0, 0, Header, 0, 1, 480
1, 0, Start_track
1, 0, Title_t, "Scherzo  in b-moll Opus 31"
1, 0, Copyright_t, "Copyright © 1997 von Bernd Krüger. http://www.piano-midi.de"
1, 0, Text_t, "Chopin"
1, 0, Text_t, "Presto"
1, 0, Text_t, "Fertiggestellt am 15.10.97\012"
1, 0, Text_t, "Korrekturen am 26.8.98\012"
1, 0, Text_t, "Zusammenlegung auf Channel 1 und Reduzierung auf Volume 100 am 8.11.98\012"
1, 0, Text_t, "Update am 21.4.99\012"
1, 0, Text_t, "Update am 20.12.99\012"
1, 0, Text_t, "Normierung: 23.12.2002\012"
1, 0, Text_t, "Update am 20.5.2010\012"
1, 0, Text_t, "Update am 24.2.2014\012"
1, 0, Text_t, "Dauer: 8:37 Minuten\012"
1, 0, Time_signature, 3, 3, 12, 8
1, 0, Key_signature, -5, "major"
1, 0, Tempo, 449438
1, 0, Marker_t, "Presto"
1, 0, Program_c, 0, 0
1, 0, Control_c, 0, 7, 100
1, 0, Control_c, 0, 10, 64
1, 0, Control_c, 0, 91, 127
1, 0, Control_c, 0, 64, 0
1, 0, Control_c, 0, 91, 127
1, 0, Text_t, "bdca426d104a26ac9dcb070447587523"
1, 0, Program_c, 0, 0
1, 0, Control_c, 0, 7, 100
1, 0, Control_c, 0, 10, 64
1, 0, Control_c, 0, 64, 0
1, 0, Control_c, 0, 91, 127
1, 1, Note_on_c, 0, 58, 41
1, 1, Note_on_c, 0, 46, 41
1, 480, Tempo, 428571
1, 480, Note_on_c, 0, 57, 29
1, 480, Note_on_c, 0, 45, 27
1, 481, Note_on_c, 0, 46, 0
1, 481, Note_on_c, 0, 58, 0
1, 560, Note_on_c, 0, 57, 0
1, 560, Note_on_c, 0, 45, 0
1, 560, Note_on_c, 0, 58, 31
1, 560, Note_on_c, 0, 46, 28
1, 640, Note_on_c, 0, 46, 0
1, 640, Note_on_c, 0, 58, 0
1, 640, Note_on_c, 0, 61, 33
1, 640, Note_on_c, 0, 49, 29
1, 720, Tempo, 454545
1, 720, Note_on_c, 0, 49, 0
1, 720, Note_on_c, 0, 61, 0
1, 720, Note_on_c, 0, 65, 37
1, 720, Note_on_c, 0, 53, 33
1, 840, Note_on_c, 0, 53, 0
1, 840, Note_on_c, 0, 65, 0
1, 1200, Tempo, 428571
1, 1200, Note_on_c, 0, 57, 29
1, 1200, Note_on_c, 0, 45, 26
1, 1280, Note_on_c, 0, 45, 0
1, 1280, Note_on_c, 0, 57, 0
1, 1280, Note_on_c, 0, 58, 31
1, 1280, Note_on_c, 0, 46, 27
1, 1360, Note_on_c, 0, 46, 0
1, 1360, Note_on_c, 0, 58, 0
1, 1360, Note_on_c, 0, 61, 32
1, 1360, Note_on_c, 0, 49, 29
1, 1440, Tempo, 451128
1, 1440, Note_on_c, 0, 49, 0
1, 1440, Note_on_c, 0, 61, 0
1, 1440, Note_on_c, 0, 65, 37
1, 1440, Note_on_c, 0, 53, 32
1, 1560, Note_on_c, 0, 53, 0
1, 1560, Note_on_c, 0, 65, 0
1, 2880, Tempo, 375000
1, 2880, Note_on_c, 0, 58, 100
1, 2880, Note_on_c, 0, 34, 95
1, 2880, Note_on_c, 0, 46, 95
1, 2951, Control_c, 0, 64, 127
1, 3000, Note_on_c, 0, 46, 0
1, 3000, Note_on_c, 0, 34, 0
1, 3000, Note_on_c, 0, 58, 0
1, 3600, Note_on_c, 0, 90, 92
1, 3600, Note_on_c, 0, 82, 78
1, 3600, Note_on_c, 0, 94, 92
1, 3600, Note_on_c, 0, 58, 72
1, 3600, Note_on_c, 0, 60, 72
1, 3600, Note_on_c, 0, 63, 85
1, 3600, Note_on_c, 0, 66, 85
1, 3600, Note_on_c, 0, 70, 85
1, 5040, Note_on_c, 0, 70, 0
1, 5040, Note_on_c, 0, 90, 0
1, 5040, Note_on_c, 0, 60, 0
1, 5040, Note_on_c, 0, 82, 0
1, 5040, Note_on_c, 0, 94, 0
1, 5040, Note_on_c, 0, 58, 0
1, 5040, Note_on_c, 0, 63, 0
1, 5040, Note_on_c, 0, 66, 0
1, 5040, Note_on_c, 0, 75, 51
1, 5040, Note_on_c, 0, 84, 61
1, 5040, Note_on_c, 0, 87, 61
1, 5040, Note_on_c, 0, 58, 47
1, 5040, Note_on_c, 0, 60, 47
1, 5040, Note_on_c, 0, 63, 56
1, 5040, Note_on_c, 0, 66, 56
1, 5040, Note_on_c, 0, 70, 56
1, 5400, Note_on_c, 0, 70, 0
1, 5400, Note_on_c, 0, 75, 0
1, 5400, Note_on_c, 0, 60, 0
1, 5400, Note_on_c, 0, 84, 0
1, 5400, Note_on_c, 0, 87, 0
1, 5400, Note_on_c, 0, 58, 0
1, 5400, Note_on_c, 0, 63, 0
1, 5400, Note_on_c, 0, 66, 0
1, 5400, Note_on_c, 0, 84, 68
1, 5400, Note_on_c, 0, 77, 57
1, 5400, Note_on_c, 0, 89, 68
1, 5400, Note_on_c, 0, 58, 51
1, 5400, Note_on_c, 0, 60, 51
1, 5400, Note_on_c, 0, 63, 61
1, 5400, Note_on_c, 0, 66, 61
1, 5400, Note_on_c, 0, 70, 61
1, 5520, Tempo, 408163
1, 5520, Note_on_c, 0, 70, 0
1, 5520, Note_on_c, 0, 84, 0
1, 5520, Note_on_c, 0, 60, 0
1, 5520, Note_on_c, 0, 77, 0
1, 5520, Note_on_c, 0, 89, 0
1, 5520, Note_on_c, 0, 58, 0
1, 5520, Note_on_c, 0, 63, 0
1, 5520, Note_on_c, 0, 66, 0
1, 5520, Note_on_c, 0, 90, 71
1, 5520, Note_on_c, 0, 78, 60
1, 5520, Note_on_c, 0, 84, 71
1, 5520, Note_on_c, 0, 58, 56
1, 5520, Note_on_c, 0, 60, 56
1, 5520, Note_on_c, 0, 63, 66
1, 5520, Note_on_c, 0, 66, 66
1, 5520, Note_on_c, 0, 70, 66
1, 5760, Note_on_c, 0, 70, 0
1, 5760, Note_on_c, 0, 90, 0
1, 5760, Note_on_c, 0, 60, 0
1, 5760, Note_on_c, 0, 78, 0
1, 5760, Note_on_c, 0, 84, 0
1, 5760, Note_on_c, 0, 58, 0
1, 5760, Note_on_c, 0, 63, 0
1, 5760, Note_on_c, 0, 66, 0
1, 5760, Note_on_c, 0, 85, 68
1, 5760, Note_on_c, 0, 77, 57
1, 5760, Note_on_c, 0, 89, 68
1, 5760, Control_c, 0, 64, 0
1, 5760, Note_on_c, 0, 58, 52
1, 5760, Note_on_c, 0, 61, 52
1, 5760, Note_on_c, 0, 65, 62
1, 5760, Note_on_c, 0, 70, 62
1, 6000, Note_on_c, 0, 70, 0
1, 6000, Note_on_c, 0, 61, 0
1, 6000, Note_on_c, 0, 77, 0
1, 6000, Note_on_c, 0, 89, 0
1, 6000, Note_on_c, 0, 85, 0
1, 6000, Note_on_c, 0, 65, 0
1, 6000, Note_on_c, 0, 58, 0
1, 6240, Note_on_c, 0, 57, 27
1, 6240, Note_on_c, 0, 45, 27
1, 6320, Note_on_c, 0, 45, 0
1, 6320, Note_on_c, 0, 57, 0
1, 6320, Note_on_c, 0, 58, 29
1, 6320, Note_on_c, 0, 46, 28
1, 6400, Note_on_c, 0, 46, 0
1, 6400, Note_on_c, 0, 58, 0
1, 6400, Note_on_c, 0, 61, 30
1, 6400, Note_on_c, 0, 49, 30
1, 6480, Note_on_c, 0, 49, 0
1, 6480, Note_on_c, 0, 61, 0
1, 6480, Note_on_c, 0, 65, 35
1, 6480, Note_on_c, 0, 53, 33
1, 6600, Note_on_c, 0, 53, 0
1, 6600, Note_on_c, 0, 65, 0
1, 6960, Note_on_c, 0, 57, 27
1, 6960, Note_on_c, 0, 45, 26
1, 7040, Note_on_c, 0, 45, 0
1, 7040, Note_on_c, 0, 57, 0
1, 7040, Note_on_c, 0, 58, 29
1, 7040, Note_on_c, 0, 46, 28
1, 7120, Note_on_c, 0, 46, 0
1, 7120, Note_on_c, 0, 58, 0
1, 7120, Note_on_c, 0, 61, 30
1, 7120, Note_on_c, 0, 49, 30
1, 7200, Tempo, 377358
1, 7200, Note_on_c, 0, 49, 0
1, 7200, Note_on_c, 0, 61, 0
1, 7200, Note_on_c, 0, 65, 35
1, 7200, Note_on_c, 0, 53, 34
1, 7320, Note_on_c, 0, 53, 0
1, 7320, Note_on_c, 0, 65, 0
1, 8640, Tempo, 347826
1, 8640, Note_on_c, 0, 56, 100
1, 8640, Note_on_c, 0, 32, 95
1, 8640, Note_on_c, 0, 44, 95
1, 8725, Control_c, 0, 64, 127
1, 8760, Note_on_c, 0, 44, 0
1, 8760, Note_on_c, 0, 32, 0
1, 8760, Note_on_c, 0, 56, 0
1, 9300, Note_on_c, 0, 56, 72
1, 9330, Note_on_c, 0, 65, 76
1, 9360, Note_on_c, 0, 92, 90
1, 9360, Note_on_c, 0, 89, 90
1, 9360, Note_on_c, 0, 80, 76
1, 9360, Note_on_c, 0, 73, 89
1, 10800, Note_on_c, 0, 73, 0
1, 10800, Note_on_c, 0, 65, 0
1, 10800, Note_on_c, 0, 92, 0
1, 10800, Note_on_c, 0, 56, 0
1, 10800, Note_on_c, 0, 80, 0
1, 10800, Note_on_c, 0, 89, 0
1, 10800, Note_on_c, 0, 84, 60
1, 10800, Note_on_c, 0, 75, 51
1, 10800, Note_on_c, 0, 87, 60
1, 10800, Note_on_c, 0, 56, 49
1, 10800, Note_on_c, 0, 63, 58
1, 10800, Note_on_c, 0, 66, 58
1, 10800, Note_on_c, 0, 68, 58
1, 11160, Tempo, 362538
1, 11160, Note_on_c, 0, 68, 0
1, 11160, Note_on_c, 0, 63, 0
1, 11160, Note_on_c, 0, 75, 0
1, 11160, Note_on_c, 0, 87, 0
1, 11160, Note_on_c, 0, 84, 0
1, 11160, Note_on_c, 0, 66, 0
1, 11160, Note_on_c, 0, 56, 0
1, 11160, Note_on_c, 0, 84, 65
1, 11160, Note_on_c, 0, 89, 65
1, 11160, Note_on_c, 0, 77, 55
1, 11160, Note_on_c, 0, 56, 53
1, 11160, Note_on_c, 0, 63, 63
1, 11160, Note_on_c, 0, 66, 63
1, 11160, Note_on_c, 0, 68, 63
1, 11280, Tempo, 387097
1, 11280, Note_on_c, 0, 68, 0
1, 11280, Note_on_c, 0, 63, 0
1, 11280, Note_on_c, 0, 89, 0
1, 11280, Note_on_c, 0, 77, 0
1, 11280, Note_on_c, 0, 84, 0
1, 11280, Note_on_c, 0, 66, 0
1, 11280, Note_on_c, 0, 56, 0
1, 11280, Note_on_c, 0, 84, 70
1, 11280, Note_on_c, 0, 90, 70
1, 11280, Note_on_c, 0, 78, 59
1, 11280, Note_on_c, 0, 56, 57
1, 11280, Note_on_c, 0, 63, 68
1, 11280, Note_on_c, 0, 66, 68
1, 11280, Note_on_c, 0, 68, 68
1, 11520, Tempo, 347826
1, 11520, Note_on_c, 0, 68, 0
1, 11520, Note_on_c, 0, 63, 0
1, 11520, Note_on_c, 0, 90, 0
1, 11520, Note_on_c, 0, 78, 0
1, 11520, Note_on_c, 0, 84, 0
1, 11520, Note_on_c, 0, 66, 0
1, 11520, Note_on_c, 0, 56, 0
1, 11520, Note_on_c, 0, 77, 56
1, 11520, Note_on_c, 0, 85, 67
1, 11520, Note_on_c, 0, 89, 67
1, 11520, Control_c, 0, 64, 0
1, 11520, Note_on_c, 0, 68, 65
1, 11520, Note_on_c, 0, 61, 55
1, 11520, Note_on_c, 0, 65, 65
1, 11760, Note_on_c, 0, 65, 0
1, 11760, Note_on_c, 0, 85, 0
1, 11760, Note_on_c, 0, 89, 0
1, 11760, Note_on_c, 0, 77, 0
1, 11760, Note_on_c, 0, 61, 0
1, 11760, Note_on_c, 0, 68, 0
1, 12240, Note_on_c, 0, 77, 81
1, 12240, Note_on_c, 0, 69, 81
1, 12240, Note_on_c, 0, 65, 77
1, 12240, Note_on_c, 0, 60, 77
1, 12240, Note_on_c, 0, 53, 65
1, 12347, Control_c, 0, 64, 127
1, 12720, Note_on_c, 0, 53, 0
1, 12720, Note_on_c, 0, 65, 0
1, 12720, Note_on_c, 0, 77, 0
1, 12720, Note_on_c, 0, 69, 0
1, 12720, Note_on_c, 0, 60, 0
1, 12960, Tempo, 378549
1, 12960, Note_on_c, 0, 57, 81
1, 12960, Note_on_c, 0, 65, 81
1, 12960, Note_on_c, 0, 41, 65
1, 12960, Note_on_c, 0, 48, 77
1, 12960, Note_on_c, 0, 53, 77
1, 13440, Note_on_c, 0, 53, 0
1, 13440, Note_on_c, 0, 41, 0
1, 13440, Note_on_c, 0, 57, 0
1, 13440, Note_on_c, 0, 65, 0
1, 13440, Note_on_c, 0, 48, 0
1, 13443, Control_c, 0, 64, 0
1, 13680, Tempo, 394737
1, 13680, Note_on_c, 0, 29, 79
1, 13680, Note_on_c, 0, 41, 94
1, 15360, Note_on_c, 0, 41, 0
1, 15360, Note_on_c, 0, 29, 0
1, 15360, Note_on_c, 0, 30, 82
1, 15360, Note_on_c, 0, 42, 97
1, 15540, Note_on_c, 0, 42, 0
1, 15540, Note_on_c, 0, 30, 0
1, 17280, Tempo, 413793
1, 17280, Control_c, 0, 91, 127
1, 17280, Control_c, 0, 91, 127
1, 17760, Note_on_c, 0, 57, 27
1, 17760, Note_on_c, 0, 45, 27
1, 17840, Note_on_c, 0, 45, 0
1, 17840, Note_on_c, 0, 57, 0
1, 17840, Note_on_c, 0, 58, 29
1, 17840, Note_on_c, 0, 46, 28
1, 17920, Note_on_c, 0, 46, 0
1, 17920, Note_on_c, 0, 58, 0
1, 17920, Note_on_c, 0, 61, 30
1, 17920, Note_on_c, 0, 49, 29
1, 18000, Note_on_c, 0, 49, 0
1, 18000, Note_on_c, 0, 61, 0
1, 18000, Note_on_c, 0, 65, 34
1, 18000, Note_on_c, 0, 53, 33
1, 18120, Note_on_c, 0, 53, 0
1, 18120, Note_on_c, 0, 65, 0
1, 18480, Note_on_c, 0, 57, 29
1, 18480, Note_on_c, 0, 45, 27
1, 18560, Note_on_c, 0, 45, 0
1, 18560, Note_on_c, 0, 57, 0
1, 18560, Note_on_c, 0, 58, 30
1, 18560, Note_on_c, 0, 46, 28
1, 18640, Note_on_c, 0, 46, 0
1, 18640, Note_on_c, 0, 58, 0
1, 18640, Note_on_c, 0, 61, 31
1, 18640, Note_on_c, 0, 49, 29
1, 18720, Note_on_c, 0, 49, 0
1, 18720, Note_on_c, 0, 61, 0
1, 18720, Note_on_c, 0, 65, 36
1, 18720, Note_on_c, 0, 53, 33
1, 18840, Note_on_c, 0, 53, 0
1, 18840, Note_on_c, 0, 65, 0
1, 20160, Tempo, 375000
1, 20160, Note_on_c, 0, 58, 100
1, 20160, Note_on_c, 0, 46, 95
1, 20160, Note_on_c, 0, 34, 95
1, 20245, Control_c, 0, 64, 127
1, 20280, Note_on_c, 0, 34, 0
1, 20280, Note_on_c, 0, 46, 0
1, 20280, Note_on_c, 0, 58, 0
1, 20880, Note_on_c, 0, 90, 92
1, 20880, Note_on_c, 0, 94, 92
1, 20880, Note_on_c, 0, 82, 78
1, 20880, Note_on_c, 0, 63, 85
1, 20880, Note_on_c, 0, 58, 72
1, 20880, Note_on_c, 0, 60, 72
1, 20880, Note_on_c, 0, 70, 85
1, 20880, Note_on_c, 0, 66, 85
1, 21960, Note_on_c, 0, 66, 0
1, 21960, Note_on_c, 0, 90, 0
1, 21960, Note_on_c, 0, 58, 0
1, 21960, Note_on_c, 0, 94, 0
1, 21960, Note_on_c, 0, 82, 0
1, 21960, Note_on_c, 0, 63, 0
1, 21960, Note_on_c, 0, 60, 0
1, 21960, Note_on_c, 0, 70, 0
1, 21960, Note_on_c, 0, 87, 58
1, 21960, Note_on_c, 0, 84, 58
1, 21960, Note_on_c, 0, 75, 49
1, 21960, Note_on_c, 0, 58, 47
1, 21960, Note_on_c, 0, 60, 47
1, 21960, Note_on_c, 0, 63, 56
1, 21960, Note_on_c, 0, 66, 56
1, 21960, Note_on_c, 0, 70, 56
1, 22080, Note_on_c, 0, 70, 0
1, 22080, Note_on_c, 0, 87, 0
1, 22080, Note_on_c, 0, 60, 0
1, 22080, Note_on_c, 0, 84, 0
1, 22080, Note_on_c, 0, 75, 0
1, 22080, Note_on_c, 0, 58, 0
1, 22080, Note_on_c, 0, 63, 0
1, 22080, Note_on_c, 0, 66, 0
1, 22080, Note_on_c, 0, 84, 58
1, 22080, Note_on_c, 0, 75, 49
1, 22080, Note_on_c, 0, 87, 58
1, 22080, Note_on_c, 0, 58, 47
1, 22080, Note_on_c, 0, 60, 47
1, 22080, Note_on_c, 0, 63, 56
1, 22080, Note_on_c, 0, 66, 56
1, 22080, Note_on_c, 0, 70, 56
1, 22320, Note_on_c, 0, 70, 0
1, 22320, Note_on_c, 0, 84, 0
1, 22320, Note_on_c, 0, 60, 0
1, 22320, Note_on_c, 0, 75, 0
1, 22320, Note_on_c, 0, 87, 0
1, 22320, Note_on_c, 0, 58, 0
1, 22320, Note_on_c, 0, 63, 0
1, 22320, Note_on_c, 0, 66, 0
1, 22320, Note_on_c, 0, 75, 51
1, 22320, Note_on_c, 0, 84, 61
1, 22320, Note_on_c, 0, 87, 61
1, 22320, Note_on_c, 0, 63, 56
1, 22320, Note_on_c, 0, 58, 47
1, 22320, Note_on_c, 0, 60, 47
1, 22320, Note_on_c, 0, 66, 56
1, 22320, Note_on_c, 0, 70, 56
1, 22680, Note_on_c, 0, 70, 0
1, 22680, Note_on_c, 0, 75, 0
1, 22680, Note_on_c, 0, 58, 0
1, 22680, Note_on_c, 0, 84, 0
1, 22680, Note_on_c, 0, 87, 0
1, 22680, Note_on_c, 0, 63, 0
1, 22680, Note_on_c, 0, 60, 0
1, 22680, Note_on_c, 0, 66, 0
1, 22680, Note_on_c, 0, 89, 68
1, 22680, Note_on_c, 0, 84, 68
1, 22680, Note_on_c, 0, 77, 57
1, 22680, Note_on_c, 0, 60, 51
1, 22680, Note_on_c, 0, 63, 61
1, 22680, Note_on_c, 0, 58, 51
1, 22680, Note_on_c, 0, 66, 61
1, 22680, Note_on_c, 0, 70, 61
1, 22800, Tempo, 408163
1, 22800, Note_on_c, 0, 70, 0
1, 22800, Note_on_c, 0, 89, 0
1, 22800, Note_on_c, 0, 63, 0
1, 22800, Note_on_c, 0, 84, 0
1, 22800, Note_on_c, 0, 77, 0
1, 22800, Note_on_c, 0, 60, 0
1, 22800, Note_on_c, 0, 58, 0
1, 22800, Note_on_c, 0, 66, 0
1, 22800, Note_on_c, 0, 84, 71
1, 22800, Note_on_c, 0, 90, 71
1, 22800, Note_on_c, 0, 78, 60
1, 22800, Note_on_c, 0, 63, 66
1, 22800, Note_on_c, 0, 66, 66
1, 22800, Note_on_c, 0, 58, 56
1, 22800, Note_on_c, 0, 60, 56
1, 22800, Note_on_c, 0, 70, 66
1, 23040, Note_on_c, 0, 70, 0
1, 23040, Note_on_c, 0, 84, 0
1, 23040, Note_on_c, 0, 66, 0
1, 23040, Note_on_c, 0, 90, 0
1, 23040, Note_on_c, 0, 78, 0
1, 23040, Note_on_c, 0, 63, 0
1, 23040, Note_on_c, 0, 58, 0
1, 23040, Note_on_c, 0, 60, 0
1, 23040, Note_on_c, 0, 85, 68
1, 23040, Note_on_c, 0, 89, 68
1, 23040, Note_on_c, 0, 77, 57
1, 23040, Note_on_c, 0, 65, 62
1, 23040, Note_on_c, 0, 58, 52
1, 23040, Note_on_c, 0, 61, 52
1, 23040, Note_on_c, 0, 70, 62
1, 23052, Control_c, 0, 64, 0
1, 23280, Note_on_c, 0, 70, 0
1, 23280, Note_on_c, 0, 58, 0
1, 23280, Note_on_c, 0, 89, 0
1, 23280, Note_on_c, 0, 77, 0
1, 23280, Note_on_c, 0, 85, 0
1, 23280, Note_on_c, 0, 61, 0
1, 23280, Note_on_c, 0, 65, 0
1, 23520, Note_on_c, 0, 57, 29
1, 23520, Note_on_c, 0, 45, 27
1, 23600, Note_on_c, 0, 45, 0
1, 23600, Note_on_c, 0, 57, 0
1, 23600, Note_on_c, 0, 58, 30
1, 23600, Note_on_c, 0, 46, 29
1, 23680, Note_on_c, 0, 46, 0
1, 23680, Note_on_c, 0, 58, 0
1, 23680, Note_on_c, 0, 61, 32
1, 23680, Note_on_c, 0, 49, 30
1, 23760, Note_on_c, 0, 49, 0
1, 23760, Note_on_c, 0, 61, 0
1, 23760, Note_on_c, 0, 65, 37
1, 23760, Note_on_c, 0, 53, 34
1, 23880, Note_on_c, 0, 53, 0
1, 23880, Note_on_c, 0, 65, 0
1, 24240, Note_on_c, 0, 57, 29
1, 24240, Note_on_c, 0, 45, 24
1, 24320, Note_on_c, 0, 45, 0
1, 24320, Note_on_c, 0, 57, 0
1, 24320, Note_on_c, 0, 58, 30
1, 24320, Note_on_c, 0, 46, 26
1, 24400, Note_on_c, 0, 46, 0
1, 24400, Note_on_c, 0, 58, 0
1, 24400, Note_on_c, 0, 61, 32
1, 24400, Note_on_c, 0, 49, 27
1, 24480, Tempo, 377358
1, 24480, Note_on_c, 0, 49, 0
1, 24480, Note_on_c, 0, 61, 0
1, 24480, Note_on_c, 0, 65, 37
1, 24480, Note_on_c, 0, 53, 32
1, 24600, Note_on_c, 0, 53, 0
1, 24600, Note_on_c, 0, 65, 0
1, 25200, Tempo, 334262
1, 25920, Note_on_c, 0, 48, 100
1, 25920, Note_on_c, 0, 24, 95
1, 25920, Note_on_c, 0, 36, 95
1, 26026, Control_c, 0, 64, 127
1, 26040, Note_on_c, 0, 36, 0
1, 26040, Note_on_c, 0, 24, 0
1, 26040, Note_on_c, 0, 48, 0
1, 26640, Note_on_c, 0, 84, 64
1, 26640, Note_on_c, 0, 92, 90
1, 26640, Note_on_c, 0, 96, 90
1, 26640, Note_on_c, 0, 68, 89
1, 26640, Note_on_c, 0, 72, 89
1, 26640, Note_on_c, 0, 65, 63
1, 26640, Note_on_c, 0, 60, 63
1, 28080, Note_on_c, 0, 60, 0
1, 28080, Note_on_c, 0, 72, 0
1, 28080, Note_on_c, 0, 92, 0
1, 28080, Note_on_c, 0, 96, 0
1, 28080, Note_on_c, 0, 84, 0
1, 28080, Note_on_c, 0, 65, 0
1, 28080, Note_on_c, 0, 68, 0
1, 28080, Note_on_c, 0, 88, 60
1, 28080, Note_on_c, 0, 79, 43
1, 28080, Note_on_c, 0, 91, 60
1, 28080, Note_on_c, 0, 60, 41
1, 28080, Note_on_c, 0, 70, 58
1, 28080, Note_on_c, 0, 64, 41
1, 28080, Note_on_c, 0, 72, 58
1, 28440, Tempo, 362538
1, 28440, Note_on_c, 0, 72, 0
1, 28440, Note_on_c, 0, 70, 0
1, 28440, Note_on_c, 0, 79, 0
1, 28440, Note_on_c, 0, 91, 0
1, 28440, Note_on_c, 0, 88, 0
1, 28440, Note_on_c, 0, 64, 0
1, 28440, Note_on_c, 0, 60, 0
1, 28440, Note_on_c, 0, 80, 46
1, 28440, Note_on_c, 0, 88, 65
1, 28440, Note_on_c, 0, 92, 65
1, 28440, Note_on_c, 0, 64, 45
1, 28440, Note_on_c, 0, 60, 45
1, 28440, Note_on_c, 0, 72, 63
1, 28440, Note_on_c, 0, 70, 63
1, 28560, Tempo, 387097
1, 28560, Note_on_c, 0, 70, 0
1, 28560, Note_on_c, 0, 60, 0
1, 28560, Note_on_c, 0, 88, 0
1, 28560, Note_on_c, 0, 92, 0
1, 28560, Note_on_c, 0, 80, 0
1, 28560, Note_on_c, 0, 72, 0
1, 28560, Note_on_c, 0, 64, 0
1, 28560, Note_on_c, 0, 88, 70
1, 28560, Note_on_c, 0, 82, 50
1, 28560, Note_on_c, 0, 94, 70
1, 28560, Note_on_c, 0, 70, 68
1, 28560, Note_on_c, 0, 60, 48
1, 28560, Note_on_c, 0, 64, 48
1, 28560, Note_on_c, 0, 72, 68
1, 28800, Tempo, 347826
1, 28800, Note_on_c, 0, 72, 0
1, 28800, Note_on_c, 0, 60, 0
1, 28800, Note_on_c, 0, 82, 0
1, 28800, Note_on_c, 0, 94, 0
1, 28800, Note_on_c, 0, 88, 0
1, 28800, Note_on_c, 0, 64, 0
1, 28800, Note_on_c, 0, 70, 0
1, 28800, Note_on_c, 0, 80, 47
1, 28800, Note_on_c, 0, 92, 67
1, 28800, Note_on_c, 0, 89, 67
1, 28800, Control_c, 0, 64, 0
1, 28800, Note_on_c, 0, 72, 65
1, 28800, Note_on_c, 0, 65, 46
1, 28800, Note_on_c, 0, 68, 65
1, 29040, Note_on_c, 0, 68, 0
1, 29040, Note_on_c, 0, 92, 0
1, 29040, Note_on_c, 0, 89, 0
1, 29040, Note_on_c, 0, 80, 0
1, 29040, Note_on_c, 0, 65, 0
1, 29040, Note_on_c, 0, 72, 0
1, 29520, Tempo, 362538
1, 29520, Note_on_c, 0, 80, 81
1, 29520, Note_on_c, 0, 72, 68
1, 29520, Note_on_c, 0, 68, 68
1, 29520, Note_on_c, 0, 77, 81
1, 29520, Note_on_c, 0, 53, 65
1, 29520, Note_on_c, 0, 65, 77
1, 29520, Control_c, 0, 64, 127
1, 29520, Note_on_c, 0, 60, 77
1, 30000, Note_on_c, 0, 60, 0
1, 30000, Note_on_c, 0, 53, 0
1, 30000, Note_on_c, 0, 72, 0
1, 30000, Note_on_c, 0, 68, 0
1, 30000, Note_on_c, 0, 80, 0
1, 30000, Note_on_c, 0, 65, 0
1, 30000, Note_on_c, 0, 77, 0
1, 30240, Tempo, 422535
1, 30240, Note_on_c, 0, 68, 81
1, 30240, Note_on_c, 0, 56, 68
1, 30240, Note_on_c, 0, 60, 68
1, 30240, Note_on_c, 0, 65, 81
1, 30240, Note_on_c, 0, 53, 77
1, 30240, Note_on_c, 0, 48, 77
1, 30240, Note_on_c, 0, 41, 65
1, 30720, Note_on_c, 0, 41, 0
1, 30720, Note_on_c, 0, 53, 0
1, 30720, Note_on_c, 0, 56, 0
1, 30720, Note_on_c, 0, 60, 0
1, 30720, Note_on_c, 0, 68, 0
1, 30720, Note_on_c, 0, 48, 0
1, 30720, Note_on_c, 0, 65, 0
1, 30720, Control_c, 0, 64, 0
1, 30960, Tempo, 394737
1, 30960, Note_on_c, 0, 28, 79
1, 30960, Note_on_c, 0, 40, 94
1, 32640, Note_on_c, 0, 40, 0
1, 32640, Note_on_c, 0, 28, 0
1, 32640, Note_on_c, 0, 29, 82
1, 32640, Note_on_c, 0, 41, 97
1, 32820, Note_on_c, 0, 41, 0
1, 32820, Note_on_c, 0, 29, 0
1, 34560, Tempo, 506329
1, 34560, Note_on_c, 0, 101, 97
1, 34560, Note_on_c, 0, 25, 71
1, 34560, Note_on_c, 0, 37, 84
1, 34624, Control_c, 0, 64, 127
1, 34680, Note_on_c, 0, 37, 0
1, 34680, Note_on_c, 0, 25, 0
1, 35040, Tempo, 451128
1, 35040, Note_on_c, 0, 44, 45
1, 35040, Note_on_c, 0, 56, 45
1, 35280, Note_on_c, 0, 56, 0
1, 35280, Note_on_c, 0, 44, 0
1, 35280, Note_on_c, 0, 61, 53
1, 35280, Note_on_c, 0, 53, 53
1, 35520, Tempo, 353982
1, 35520, Note_on_c, 0, 53, 0
1, 35520, Note_on_c, 0, 61, 0
1, 35520, Note_on_c, 0, 101, 0
1, 35520, Note_on_c, 0, 99, 68
1, 35640, Note_on_c, 0, 99, 0
1, 35640, Note_on_c, 0, 97, 62
1, 35760, Note_on_c, 0, 97, 0
1, 35760, Note_on_c, 0, 92, 65
1, 35760, Note_on_c, 0, 44, 42
1, 35760, Note_on_c, 0, 56, 42
1, 35880, Note_on_c, 0, 92, 0
1, 35880, Note_on_c, 0, 89, 59
1, 36000, Note_on_c, 0, 89, 0
1, 36000, Note_on_c, 0, 56, 0
1, 36000, Note_on_c, 0, 44, 0
1, 36000, Note_on_c, 0, 87, 62
1, 36000, Note_on_c, 0, 53, 47
1, 36000, Note_on_c, 0, 61, 47
1, 36120, Note_on_c, 0, 87, 0
1, 36120, Note_on_c, 0, 85, 57
1, 36240, Note_on_c, 0, 85, 0
1, 36240, Note_on_c, 0, 61, 0
1, 36240, Note_on_c, 0, 53, 0
1, 36240, Note_on_c, 0, 80, 58
1, 36360, Note_on_c, 0, 80, 0
1, 36360, Note_on_c, 0, 77, 53
1, 36480, Note_on_c, 0, 77, 0
1, 36480, Note_on_c, 0, 75, 55
1, 36600, Note_on_c, 0, 75, 0
1, 36600, Note_on_c, 0, 73, 51
1, 36720, Note_on_c, 0, 73, 0
1, 36720, Note_on_c, 0, 68, 52
1, 36727, Control_c, 0, 64, 0
1, 36960, Note_on_c, 0, 68, 0
1, 37440, Tempo, 355030
1, 37440, Note_on_c, 0, 72, 55
1, 37440, Control_c, 0, 64, 127
1, 37440, Note_on_c, 0, 32, 44
1, 37440, Note_on_c, 0, 44, 52
1, 37520, Tempo, 356083
1, 37560, Note_on_c, 0, 44, 0
1, 37560, Note_on_c, 0, 32, 0
1, 37560, Note_on_c, 0, 72, 0
1, 37560, Note_on_c, 0, 73, 52
1, 37600, Tempo, 357143
1, 37680, Tempo, 358209
1, 37680, Note_on_c, 0, 73, 0
1, 37680, Note_on_c, 0, 75, 50
1, 37760, Tempo, 359281
1, 37800, Note_on_c, 0, 75, 0
1, 37800, Note_on_c, 0, 77, 47
1, 37840, Tempo, 360360
1, 37920, Tempo, 361446
1, 37920, Note_on_c, 0, 77, 0
1, 37920, Note_on_c, 0, 78, 45
1, 38000, Tempo, 362538
1, 38033, Note_on_c, 0, 80, 42
1, 38040, Note_on_c, 0, 78, 0
1, 38080, Tempo, 363636
1, 38148, Tempo, 364742
1, 38153, Note_on_c, 0, 80, 0
1, 38160, Tempo, 436364
1, 38160, Note_on_c, 0, 81, 40
1, 38160, Note_on_c, 0, 66, 38
1, 38160, Note_on_c, 0, 55, 38
1, 38160, Note_on_c, 0, 60, 38
1, 38162, Control_c, 0, 64, 0
1, 38280, Note_on_c, 0, 81, 0
1, 38400, Tempo, 394737
1, 38400, Note_on_c, 0, 66, 0
1, 38400, Note_on_c, 0, 55, 0
1, 38400, Note_on_c, 0, 60, 0
1, 38400, Note_on_c, 0, 56, 35
1, 38400, Note_on_c, 0, 60, 35
1, 38400, Note_on_c, 0, 66, 35
1, 38640, Note_on_c, 0, 66, 0
1, 38640, Note_on_c, 0, 60, 0
1, 38640, Note_on_c, 0, 56, 0
1, 38640, Note_on_c, 0, 66, 31
1, 38640, Note_on_c, 0, 56, 31
1, 38640, Note_on_c, 0, 60, 31
1, 38760, Note_on_c, 0, 60, 0
1, 38760, Note_on_c, 0, 56, 0
1, 38760, Note_on_c, 0, 66, 0
1, 38880, Tempo, 361446
1, 38880, Note_on_c, 0, 81, 50
1, 38880, Control_c, 0, 64, 127
1, 38960, Tempo, 360360
1, 39000, Note_on_c, 0, 81, 0
1, 39000, Note_on_c, 0, 80, 49
1, 39040, Tempo, 359281
1, 39120, Tempo, 358209
1, 39120, Note_on_c, 0, 80, 0
1, 39120, Note_on_c, 0, 79, 47
1, 39200, Tempo, 357143
1, 39240, Note_on_c, 0, 79, 0
1, 39240, Note_on_c, 0, 78, 46
1, 39280, Tempo, 356083
1, 39360, Tempo, 355030
1, 39360, Note_on_c, 0, 78, 0
1, 39360, Note_on_c, 0, 77, 44
1, 39440, Tempo, 353982
1, 39480, Note_on_c, 0, 77, 0
1, 39480, Note_on_c, 0, 76, 42
1, 39520, Tempo, 352941
1, 39588, Tempo, 351906
1, 39600, Tempo, 430108
1, 39600, Note_on_c, 0, 76, 0
1, 39600, Note_on_c, 0, 75, 41
1, 39600, Note_on_c, 0, 57, 35
1, 39600, Note_on_c, 0, 60, 35
1, 39600, Note_on_c, 0, 66, 35
1, 39605, Control_c, 0, 64, 0
1, 39720, Note_on_c, 0, 75, 0
1, 39840, Tempo, 394737
1, 39840, Note_on_c, 0, 57, 0
1, 39840, Note_on_c, 0, 60, 0
1, 39840, Note_on_c, 0, 66, 0
1, 39840, Note_on_c, 0, 66, 32
1, 39840, Note_on_c, 0, 60, 32
1, 39840, Note_on_c, 0, 56, 32
1, 40080, Note_on_c, 0, 56, 0
1, 40080, Note_on_c, 0, 60, 0
1, 40080, Note_on_c, 0, 66, 0
1, 40080, Note_on_c, 0, 66, 28
1, 40080, Note_on_c, 0, 60, 28
1, 40080, Note_on_c, 0, 56, 28
1, 40200, Note_on_c, 0, 56, 0
1, 40200, Note_on_c, 0, 60, 0
1, 40200, Note_on_c, 0, 66, 0
1, 40320, Tempo, 451128
1, 40320, Note_on_c, 0, 101, 97
1, 40320, Note_on_c, 0, 25, 68
1, 40320, Note_on_c, 0, 37, 82
1, 40391, Control_c, 0, 64, 127
1, 40440, Note_on_c, 0, 37, 0
1, 40440, Note_on_c, 0, 25, 0
1, 40800, Tempo, 421053
1, 40800, Note_on_c, 0, 44, 45
1, 40800, Note_on_c, 0, 56, 45
1, 41040, Note_on_c, 0, 56, 0
1, 41040, Note_on_c, 0, 44, 0
1, 41040, Note_on_c, 0, 61, 53
1, 41040, Note_on_c, 0, 53, 53
1, 41280, Tempo, 346821
1, 41280, Note_on_c, 0, 53, 0
1, 41280, Note_on_c, 0, 61, 0
1, 41280, Note_on_c, 0, 101, 0
1, 41280, Note_on_c, 0, 99, 68
1, 41400, Note_on_c, 0, 99, 0
1, 41400, Note_on_c, 0, 97, 60
1, 41520, Note_on_c, 0, 97, 0
1, 41520, Note_on_c, 0, 92, 65
1, 41520, Note_on_c, 0, 44, 42
1, 41520, Note_on_c, 0, 56, 42
1, 41640, Note_on_c, 0, 92, 0
1, 41640, Note_on_c, 0, 89, 58
1, 41760, Note_on_c, 0, 89, 0
1, 41760, Note_on_c, 0, 56, 0
1, 41760, Note_on_c, 0, 44, 0
1, 41760, Note_on_c, 0, 87, 62
1, 41760, Note_on_c, 0, 53, 47
1, 41760, Note_on_c, 0, 61, 47
1, 41880, Note_on_c, 0, 87, 0
1, 41880, Note_on_c, 0, 85, 57
1, 42000, Note_on_c, 0, 85, 0
1, 42000, Note_on_c, 0, 61, 0
1, 42000, Note_on_c, 0, 53, 0
1, 42000, Note_on_c, 0, 80, 58
1, 42120, Note_on_c, 0, 80, 0
1, 42120, Note_on_c, 0, 77, 53
1, 42240, Note_on_c, 0, 77, 0
1, 42240, Note_on_c, 0, 75, 55
1, 42360, Note_on_c, 0, 75, 0
1, 42360, Note_on_c, 0, 73, 49
1, 42480, Tempo, 345821
1, 42480, Note_on_c, 0, 73, 0
1, 42480, Note_on_c, 0, 68, 52
1, 42480, Control_c, 0, 64, 0
1, 42720, Note_on_c, 0, 68, 0
1, 43200, Tempo, 353982
1, 43200, Note_on_c, 0, 72, 42
1, 43200, Note_on_c, 0, 44, 20
1, 43200, Note_on_c, 0, 51, 20
1, 43200, Note_on_c, 0, 54, 20
1, 43208, Tempo, 352941
1, 43308, Tempo, 353982
1, 43320, Note_on_c, 0, 72, 0
1, 43320, Note_on_c, 0, 73, 41
1, 43408, Tempo, 355030
1, 43440, Note_on_c, 0, 73, 0
1, 43440, Note_on_c, 0, 75, 41
1, 43508, Tempo, 356083
1, 43560, Note_on_c, 0, 75, 0
1, 43560, Note_on_c, 0, 77, 40
1, 43608, Tempo, 357143
1, 43680, Note_on_c, 0, 77, 0
1, 43680, Note_on_c, 0, 78, 39
1, 43708, Tempo, 358209
1, 43793, Note_on_c, 0, 80, 38
1, 43800, Note_on_c, 0, 78, 0
1, 43808, Tempo, 359281
1, 43908, Tempo, 360360
1, 43913, Note_on_c, 0, 80, 0
1, 43920, Tempo, 359281
1, 43920, Note_on_c, 0, 44, 0
1, 43920, Note_on_c, 0, 51, 0
1, 43920, Note_on_c, 0, 54, 0
1, 43920, Note_on_c, 0, 81, 37
1, 43920, Note_on_c, 0, 60, 32
1, 44040, Note_on_c, 0, 60, 0
1, 44040, Note_on_c, 0, 81, 0
1, 44040, Note_on_c, 0, 61, 32
1, 44160, Note_on_c, 0, 61, 0
1, 44160, Note_on_c, 0, 63, 32
1, 44280, Note_on_c, 0, 63, 0
1, 44280, Note_on_c, 0, 65, 32
1, 44400, Note_on_c, 0, 65, 0
1, 44400, Note_on_c, 0, 66, 32
1, 44520, Note_on_c, 0, 66, 0
1, 44520, Note_on_c, 0, 68, 32
1, 44640, Tempo, 352941
1, 44640, Note_on_c, 0, 68, 0
1, 44640, Note_on_c, 0, 81, 42
1, 44640, Note_on_c, 0, 69, 32
1, 44760, Note_on_c, 0, 69, 0
1, 44760, Note_on_c, 0, 81, 0
1, 44760, Note_on_c, 0, 80, 41
1, 44880, Note_on_c, 0, 80, 0
1, 44880, Note_on_c, 0, 79, 40
1, 45000, Note_on_c, 0, 79, 0
1, 45000, Note_on_c, 0, 78, 39
1, 45120, Note_on_c, 0, 78, 0
1, 45120, Note_on_c, 0, 77, 37
1, 45240, Note_on_c, 0, 77, 0
1, 45240, Note_on_c, 0, 76, 36
1, 45360, Tempo, 371517
1, 45360, Note_on_c, 0, 76, 0
1, 45360, Note_on_c, 0, 75, 35
1, 45360, Note_on_c, 0, 57, 30
1, 45368, Tempo, 372671
1, 45388, Tempo, 373832
1, 45400, Tempo, 375000
1, 45420, Tempo, 376176
1, 45428, Tempo, 377358
1, 45440, Tempo, 378549
1, 45460, Tempo, 379747
1, 45468, Tempo, 380952
1, 45480, Note_on_c, 0, 57, 0
1, 45480, Note_on_c, 0, 75, 0
1, 45480, Note_on_c, 0, 56, 29
1, 45488, Tempo, 382166
1, 45500, Tempo, 383387
1, 45508, Tempo, 384615
1, 45528, Tempo, 385852
1, 45540, Tempo, 387097
1, 45560, Tempo, 388350
1, 45568, Tempo, 389610
1, 45580, Tempo, 390879
1, 45600, Tempo, 392157
1, 45600, Note_on_c, 0, 56, 0
1, 45600, Note_on_c, 0, 55, 28
1, 45608, Tempo, 393443
1, 45628, Tempo, 394737
1, 45640, Tempo, 396040
1, 45648, Tempo, 397351
1, 45668, Tempo, 398671
1, 45680, Tempo, 400000
1, 45700, Tempo, 401338
1, 45708, Tempo, 402685
1, 45720, Tempo, 404040
1, 45720, Note_on_c, 0, 55, 0
1, 45720, Note_on_c, 0, 54, 27
1, 45740, Tempo, 405405
1, 45748, Tempo, 406780
1, 45760, Tempo, 408163
1, 45780, Tempo, 409556
1, 45788, Tempo, 410959
1, 45808, Tempo, 412371
1, 45820, Tempo, 413793
1, 45828, Tempo, 415225
1, 45840, Note_on_c, 0, 54, 0
1, 45840, Note_on_c, 0, 53, 26
1, 45848, Tempo, 416667
1, 45860, Tempo, 418118
1, 45880, Tempo, 419580
1, 45888, Tempo, 421053
1, 45900, Tempo, 422535
1, 45920, Tempo, 424028
1, 45928, Tempo, 425532
1, 45948, Tempo, 427046
1, 45960, Tempo, 428571
1, 45960, Note_on_c, 0, 53, 0
1, 45960, Note_on_c, 0, 51, 25
1, 45968, Tempo, 430108
1, 45988, Tempo, 431655
1, 46000, Tempo, 433213
1, 46020, Tempo, 434783
1, 46028, Tempo, 436364
1, 46040, Tempo, 437956
1, 46060, Tempo, 439560
1, 46068, Tempo, 441176
1, 46080, Tempo, 465116
1, 46080, Marker_t, "Part 2"
1, 46080, Note_on_c, 0, 51, 0
1, 46080, Note_on_c, 0, 71, 38
1, 46080, Control_c, 0, 91, 127
1, 46080, Note_on_c, 0, 77, 59
1, 46080, Note_on_c, 0, 49, 30
1, 46080, Control_c, 0, 91, 127
1, 46123, Control_c, 0, 64, 127
1, 46200, Note_on_c, 0, 49, 0
1, 46200, Note_on_c, 0, 56, 28
1, 46320, Note_on_c, 0, 56, 0
1, 46320, Note_on_c, 0, 61, 30
1, 46440, Note_on_c, 0, 61, 0
1, 46440, Note_on_c, 0, 65, 34
1, 46560, Note_on_c, 0, 65, 0
1, 46560, Note_on_c, 0, 61, 31
1, 46680, Note_on_c, 0, 61, 0
1, 46680, Note_on_c, 0, 56, 30
1, 46800, Note_on_c, 0, 56, 0
1, 46800, Note_on_c, 0, 49, 28
1, 46808, Control_c, 0, 64, 0
1, 46852, Control_c, 0, 64, 127
1, 46920, Note_on_c, 0, 49, 0
1, 46920, Note_on_c, 0, 59, 28
1, 47040, Tempo, 463320
1, 47040, Note_on_c, 0, 59, 0
1, 47040, Note_on_c, 0, 77, 0
1, 47040, Note_on_c, 0, 75, 53
1, 47040, Note_on_c, 0, 61, 30
1, 47080, Tempo, 465116
1, 47108, Tempo, 466926
1, 47148, Tempo, 468750
1, 47160, Note_on_c, 0, 61, 0
1, 47160, Note_on_c, 0, 65, 31
1, 47180, Tempo, 470588
1, 47208, Tempo, 472441
1, 47248, Tempo, 474308
1, 47280, Tempo, 476190
1, 47280, Note_on_c, 0, 65, 0
1, 47280, Note_on_c, 0, 61, 30
1, 47320, Tempo, 478088
1, 47348, Tempo, 480000
1, 47380, Tempo, 481928
1, 47400, Tempo, 512821
1, 47400, Note_on_c, 0, 61, 0
1, 47400, Note_on_c, 0, 75, 0
1, 47400, Note_on_c, 0, 73, 52
1, 47400, Note_on_c, 0, 59, 29
1, 47510, Note_on_c, 0, 73, 0
1, 47520, Tempo, 463320
1, 47520, Note_on_c, 0, 59, 0
1, 47520, Note_on_c, 0, 71, 0
1, 47520, Note_on_c, 0, 71, 38
1, 47520, Note_on_c, 0, 73, 54
1, 47520, Note_on_c, 0, 54, 28
1, 47524, Control_c, 0, 64, 0
1, 47583, Control_c, 0, 64, 127
1, 47640, Note_on_c, 0, 54, 0
1, 47640, Note_on_c, 0, 59, 28
1, 47760, Note_on_c, 0, 59, 0
1, 47760, Note_on_c, 0, 61, 31
1, 47880, Note_on_c, 0, 61, 0
1, 47880, Note_on_c, 0, 66, 34
1, 48000, Note_on_c, 0, 66, 0
1, 48000, Note_on_c, 0, 61, 31
1, 48120, Note_on_c, 0, 61, 0
1, 48120, Note_on_c, 0, 59, 29
1, 48240, Tempo, 437956
1, 48240, Note_on_c, 0, 59, 0
1, 48240, Note_on_c, 0, 73, 0
1, 48240, Note_on_c, 0, 71, 0
1, 48240, Note_on_c, 0, 70, 56
1, 48240, Note_on_c, 0, 78, 56
1, 48240, Note_on_c, 0, 49, 30
1, 48249, Control_c, 0, 64, 0
1, 48320, Tempo, 436364
1, 48360, Note_on_c, 0, 49, 0
1, 48360, Note_on_c, 0, 58, 28
1, 48374, Control_c, 0, 64, 127
1, 48388, Tempo, 434783
1, 48460, Tempo, 433213
1, 48480, Note_on_c, 0, 58, 0
1, 48480, Note_on_c, 0, 61, 30
1, 48528, Tempo, 431655
1, 48600, Tempo, 430108
1, 48600, Note_on_c, 0, 61, 0
1, 48600, Note_on_c, 0, 66, 33
1, 48680, Tempo, 428571
1, 48720, Note_on_c, 0, 66, 0
1, 48720, Note_on_c, 0, 61, 31
1, 48748, Tempo, 427046
1, 48820, Tempo, 425532
1, 48840, Note_on_c, 0, 61, 0
1, 48840, Note_on_c, 0, 58, 30
1, 48888, Tempo, 424028
1, 48960, Tempo, 422535
1, 48960, Note_on_c, 0, 58, 0
1, 48960, Note_on_c, 0, 70, 0
1, 48960, Note_on_c, 0, 71, 50
1, 48960, Note_on_c, 0, 56, 30
1, 48968, Control_c, 0, 64, 0
1, 49046, Control_c, 0, 64, 127
1, 49080, Note_on_c, 0, 56, 0
1, 49080, Note_on_c, 0, 59, 28
1, 49200, Note_on_c, 0, 59, 0
1, 49200, Note_on_c, 0, 61, 30
1, 49320, Note_on_c, 0, 61, 0
1, 49320, Note_on_c, 0, 68, 33
1, 49440, Tempo, 437956
1, 49440, Note_on_c, 0, 68, 0
1, 49440, Note_on_c, 0, 78, 0
1, 49440, Note_on_c, 0, 77, 52
1, 49440, Note_on_c, 0, 61, 31
1, 49560, Note_on_c, 0, 61, 0
1, 49560, Note_on_c, 0, 59, 29
1, 49670, Note_on_c, 0, 77, 0
1, 49680, Note_on_c, 0, 59, 0
1, 49680, Note_on_c, 0, 77, 51
1, 49680, Note_on_c, 0, 49, 30
1, 49688, Tempo, 428571
1, 49688, Control_c, 0, 64, 0
1, 49766, Control_c, 0, 64, 127
1, 49768, Tempo, 430108
1, 49800, Note_on_c, 0, 49, 0
1, 49800, Note_on_c, 0, 59, 28
1, 49848, Tempo, 431655
1, 49920, Tempo, 433213
1, 49920, Note_on_c, 0, 59, 0
1, 49920, Note_on_c, 0, 77, 0
1, 49920, Note_on_c, 0, 75, 50
1, 49920, Note_on_c, 0, 61, 30
1, 50000, Tempo, 434783
1, 50040, Note_on_c, 0, 61, 0
1, 50040, Note_on_c, 0, 65, 31
1, 50080, Tempo, 436364
1, 50148, Tempo, 437956
1, 50160, Tempo, 502092
1, 50160, Note_on_c, 0, 65, 0
1, 50160, Note_on_c, 0, 75, 0
1, 50160, Note_on_c, 0, 73, 49
1, 50160, Note_on_c, 0, 61, 30
1, 50280, Note_on_c, 0, 61, 0
1, 50280, Note_on_c, 0, 59, 29
1, 50388, Tempo, 439560
1, 50400, Note_on_c, 0, 59, 0
1, 50400, Note_on_c, 0, 73, 0
1, 50400, Note_on_c, 0, 71, 0
1, 50400, Note_on_c, 0, 70, 44
1, 50400, Note_on_c, 0, 73, 44
1, 50400, Note_on_c, 0, 82, 56
1, 50400, Note_on_c, 0, 54, 32
1, 50411, Control_c, 0, 64, 0
1, 50448, Tempo, 437956
1, 50499, Control_c, 0, 64, 127
1, 50500, Tempo, 436364
1, 50520, Note_on_c, 0, 54, 0
1, 50520, Note_on_c, 0, 58, 30
1, 50548, Tempo, 434783
1, 50600, Tempo, 433213
1, 50640, Note_on_c, 0, 58, 0
1, 50640, Note_on_c, 0, 61, 34
1, 50648, Tempo, 431655
1, 50700, Tempo, 430108
1, 50748, Tempo, 428571
1, 50760, Note_on_c, 0, 61, 0
1, 50760, Note_on_c, 0, 66, 35
1, 50800, Tempo, 427046
1, 50848, Tempo, 425532
1, 50880, Note_on_c, 0, 66, 0
1, 50880, Note_on_c, 0, 61, 34
1, 50900, Tempo, 424028
1, 50948, Tempo, 422535
1, 51000, Tempo, 421053
1, 51000, Note_on_c, 0, 61, 0
1, 51000, Note_on_c, 0, 58, 33
1, 51048, Tempo, 419580
1, 51100, Tempo, 418118
1, 51120, Tempo, 481928
1, 51120, Note_on_c, 0, 58, 0
1, 51120, Note_on_c, 0, 82, 0
1, 51120, Note_on_c, 0, 73, 0
1, 51120, Note_on_c, 0, 70, 0
1, 51120, Note_on_c, 0, 68, 44
1, 51120, Note_on_c, 0, 73, 44
1, 51120, Note_on_c, 0, 82, 62
1, 51120, Note_on_c, 0, 52, 33
1, 51129, Control_c, 0, 64, 0
1, 51180, Control_c, 0, 64, 127
1, 51240, Note_on_c, 0, 52, 0
1, 51240, Note_on_c, 0, 58, 36
1, 51348, Tempo, 459770
1, 51360, Tempo, 497925
1, 51360, Note_on_c, 0, 58, 0
1, 51360, Note_on_c, 0, 61, 39
1, 51480, Note_on_c, 0, 61, 0
1, 51480, Note_on_c, 0, 68, 37
1, 51588, Tempo, 510638
1, 51600, Tempo, 540541
1, 51600, Note_on_c, 0, 68, 0
1, 51600, Note_on_c, 0, 82, 0
1, 51600, Note_on_c, 0, 82, 64
1, 51600, Note_on_c, 0, 61, 34
1, 51720, Note_on_c, 0, 61, 0
1, 51720, Note_on_c, 0, 58, 31
1, 51780, Note_on_c, 0, 67, 44
1, 51831, Note_on_c, 0, 82, 0
1, 51840, Tempo, 478088
1, 51840, Note_on_c, 0, 58, 0
1, 51840, Note_on_c, 0, 68, 0
1, 51840, Note_on_c, 0, 73, 0
1, 51840, Note_on_c, 0, 67, 0
1, 51840, Note_on_c, 0, 73, 45
1, 51840, Note_on_c, 0, 82, 68
1, 51840, Note_on_c, 0, 51, 36
1, 51850, Control_c, 0, 64, 0
1, 51943, Control_c, 0, 64, 127
1, 51960, Note_on_c, 0, 51, 0
1, 51960, Note_on_c, 0, 58, 38
1, 52080, Note_on_c, 0, 58, 0
1, 52080, Note_on_c, 0, 61, 41
1, 52200, Note_on_c, 0, 61, 0
1, 52200, Note_on_c, 0, 67, 45
1, 52308, Tempo, 478088
1, 52320, Tempo, 528634
1, 52320, Note_on_c, 0, 67, 0
1, 52320, Note_on_c, 0, 82, 0
1, 52320, Note_on_c, 0, 75, 57
1, 52320, Note_on_c, 0, 61, 42
1, 52440, Note_on_c, 0, 61, 0
1, 52440, Note_on_c, 0, 58, 39
1, 52548, Tempo, 560748
1, 52560, Tempo, 472441
1, 52560, Note_on_c, 0, 58, 0
1, 52560, Note_on_c, 0, 75, 0
1, 52560, Note_on_c, 0, 75, 57
1, 52560, Note_on_c, 0, 55, 39
1, 52575, Control_c, 0, 64, 0
1, 52626, Control_c, 0, 64, 127
1, 52680, Note_on_c, 0, 55, 0
1, 52680, Note_on_c, 0, 61, 38
1, 52800, Note_on_c, 0, 61, 0
1, 52800, Note_on_c, 0, 75, 0
1, 52800, Note_on_c, 0, 77, 51
1, 52800, Note_on_c, 0, 63, 41
1, 52860, Note_on_c, 0, 77, 0
1, 52860, Note_on_c, 0, 79, 51
1, 52920, Tempo, 515021
1, 52920, Note_on_c, 0, 79, 0
1, 52920, Note_on_c, 0, 63, 0
1, 52920, Note_on_c, 0, 77, 56
1, 52920, Note_on_c, 0, 70, 46
1, 53040, Note_on_c, 0, 70, 0
1, 53040, Note_on_c, 0, 63, 42
1, 53160, Tempo, 574163
1, 53160, Note_on_c, 0, 63, 0
1, 53160, Note_on_c, 0, 77, 0
1, 53160, Note_on_c, 0, 75, 56
1, 53160, Note_on_c, 0, 61, 39
1, 53270, Note_on_c, 0, 75, 0
1, 53280, Tempo, 431655
1, 53280, Note_on_c, 0, 61, 0
1, 53280, Note_on_c, 0, 73, 0
1, 53280, Note_on_c, 0, 73, 49
1, 53280, Note_on_c, 0, 75, 59
1, 53280, Note_on_c, 0, 56, 38
1, 53291, Control_c, 0, 64, 0
1, 53400, Note_on_c, 0, 56, 0
1, 53400, Note_on_c, 0, 61, 38
1, 53414, Control_c, 0, 64, 127
1, 53520, Note_on_c, 0, 61, 0
1, 53520, Note_on_c, 0, 63, 42
1, 53640, Note_on_c, 0, 63, 0
1, 53640, Note_on_c, 0, 68, 45
1, 53760, Note_on_c, 0, 68, 0
1, 53760, Note_on_c, 0, 63, 41
1, 53880, Note_on_c, 0, 63, 0
1, 53880, Note_on_c, 0, 61, 38
1, 54000, Tempo, 405405
1, 54000, Note_on_c, 0, 61, 0
1, 54000, Note_on_c, 0, 75, 0
1, 54000, Note_on_c, 0, 73, 0
1, 54000, Note_on_c, 0, 72, 53
1, 54000, Note_on_c, 0, 80, 64
1, 54000, Note_on_c, 0, 51, 38
1, 54012, Control_c, 0, 64, 0
1, 54120, Note_on_c, 0, 51, 0
1, 54120, Control_c, 0, 64, 127
1, 54120, Note_on_c, 0, 60, 37
1, 54240, Note_on_c, 0, 60, 0
1, 54240, Note_on_c, 0, 63, 40
1, 54360, Note_on_c, 0, 63, 0
1, 54360, Note_on_c, 0, 68, 44
1, 54480, Note_on_c, 0, 68, 0
1, 54480, Note_on_c, 0, 63, 41
1, 54600, Note_on_c, 0, 63, 0
1, 54600, Note_on_c, 0, 60, 39
1, 54720, Note_on_c, 0, 60, 0
1, 54720, Note_on_c, 0, 72, 0
1, 54720, Note_on_c, 0, 73, 55
1, 54720, Note_on_c, 0, 58, 39
1, 54729, Control_c, 0, 64, 0
1, 54840, Note_on_c, 0, 58, 0
1, 54840, Control_c, 0, 64, 127
1, 54840, Note_on_c, 0, 61, 37
1, 54960, Note_on_c, 0, 61, 0
1, 54960, Note_on_c, 0, 80, 0
1, 54960, Note_on_c, 0, 79, 60
1, 54960, Note_on_c, 0, 63, 40
1, 55080, Note_on_c, 0, 63, 0
1, 55080, Note_on_c, 0, 70, 42
1, 55200, Tempo, 419580
1, 55200, Note_on_c, 0, 70, 0
1, 55200, Note_on_c, 0, 79, 0
1, 55200, Note_on_c, 0, 77, 59
1, 55200, Note_on_c, 0, 63, 41
1, 55320, Note_on_c, 0, 63, 0
1, 55320, Note_on_c, 0, 61, 39
1, 55440, Note_on_c, 0, 61, 0
1, 55440, Note_on_c, 0, 77, 0
1, 55440, Note_on_c, 0, 79, 60
1, 55440, Note_on_c, 0, 51, 38
1, 55446, Control_c, 0, 64, 0
1, 55549, Control_c, 0, 64, 127
1, 55560, Note_on_c, 0, 51, 0
1, 55560, Note_on_c, 0, 61, 36
1, 55680, Tempo, 510638
1, 55680, Note_on_c, 0, 61, 0
1, 55680, Note_on_c, 0, 79, 0
1, 55680, Note_on_c, 0, 77, 59
1, 55680, Note_on_c, 0, 63, 38
1, 55800, Note_on_c, 0, 63, 0
1, 55800, Note_on_c, 0, 67, 40
1, 55920, Tempo, 659341
1, 55920, Note_on_c, 0, 67, 0
1, 55920, Note_on_c, 0, 63, 40
1, 56040, Note_on_c, 0, 63, 0
1, 56040, Note_on_c, 0, 77, 0
1, 56040, Note_on_c, 0, 75, 56
1, 56040, Note_on_c, 0, 61, 37
1, 56160, Tempo, 441176
1, 56160, Note_on_c, 0, 61, 0
1, 56160, Note_on_c, 0, 75, 0
1, 56160, Note_on_c, 0, 73, 0
1, 56160, Note_on_c, 0, 72, 56
1, 56160, Note_on_c, 0, 84, 56
1, 56160, Note_on_c, 0, 56, 38
1, 56170, Control_c, 0, 64, 0
1, 56220, Tempo, 439560
1, 56280, Tempo, 437956
1, 56280, Note_on_c, 0, 56, 0
1, 56280, Note_on_c, 0, 60, 40
1, 56287, Control_c, 0, 64, 127
1, 56340, Tempo, 436364
1, 56400, Tempo, 434783
1, 56400, Note_on_c, 0, 60, 0
1, 56400, Note_on_c, 0, 63, 44
1, 56460, Tempo, 433213
1, 56520, Tempo, 431655
1, 56520, Note_on_c, 0, 63, 0
1, 56520, Note_on_c, 0, 68, 45
1, 56580, Tempo, 430108
1, 56640, Tempo, 428571
1, 56640, Note_on_c, 0, 68, 0
1, 56640, Note_on_c, 0, 63, 44
1, 56700, Tempo, 427046
1, 56760, Tempo, 425532
1, 56760, Note_on_c, 0, 63, 0
1, 56760, Note_on_c, 0, 60, 42
1, 56820, Tempo, 424028
1, 56868, Tempo, 422535
1, 56880, Tempo, 560748
1, 56880, Note_on_c, 0, 60, 0
1, 56880, Note_on_c, 0, 84, 0
1, 56880, Note_on_c, 0, 84, 64
1, 56880, Note_on_c, 0, 55, 40
1, 56889, Control_c, 0, 64, 0
1, 57000, Note_on_c, 0, 56, 41
1, 57014, Control_c, 0, 64, 127
1, 57120, Note_on_c, 0, 56, 0
1, 57120, Note_on_c, 0, 60, 45
1, 57240, Note_on_c, 0, 60, 0
1, 57240, Note_on_c, 0, 63, 49
1, 57360, Tempo, 615385
1, 57360, Note_on_c, 0, 63, 0
1, 57360, Note_on_c, 0, 84, 0
1, 57360, Note_on_c, 0, 84, 63
1, 57360, Note_on_c, 0, 60, 47
1, 57480, Note_on_c, 0, 60, 0
1, 57480, Note_on_c, 0, 56, 41
1, 57590, Note_on_c, 0, 84, 0
1, 57600, Tempo, 502092
1, 57600, Note_on_c, 0, 72, 0
1, 57600, Note_on_c, 0, 55, 0
1, 57600, Note_on_c, 0, 56, 0
1, 57600, Note_on_c, 0, 84, 68
1, 57600, Note_on_c, 0, 54, 36
1, 57607, Control_c, 0, 64, 0
1, 57720, Control_c, 0, 64, 127
1, 57720, Note_on_c, 0, 56, 36
1, 57840, Note_on_c, 0, 56, 0
1, 57840, Note_on_c, 0, 60, 39
1, 57960, Note_on_c, 0, 60, 0
1, 57960, Note_on_c, 0, 63, 42
1, 58080, Note_on_c, 0, 63, 0
1, 58080, Note_on_c, 0, 60, 41
1, 58200, Note_on_c, 0, 60, 0
1, 58200, Note_on_c, 0, 56, 38
1, 58320, Note_on_c, 0, 56, 0
1, 58320, Note_on_c, 0, 54, 0
1, 58320, Note_on_c, 0, 54, 38
1, 58440, Note_on_c, 0, 56, 41
1, 58560, Tempo, 472441
1, 58560, Note_on_c, 0, 56, 0
1, 58560, Note_on_c, 0, 84, 0
1, 58560, Note_on_c, 0, 82, 63
1, 58560, Note_on_c, 0, 60, 41
1, 58680, Note_on_c, 0, 60, 0
1, 58680, Note_on_c, 0, 63, 41
1, 58800, Note_on_c, 0, 63, 0
1, 58800, Note_on_c, 0, 60, 38
1, 58920, Note_on_c, 0, 60, 0
1, 58920, Note_on_c, 0, 82, 0
1, 58920, Note_on_c, 0, 80, 63
1, 58920, Note_on_c, 0, 56, 35
1, 59028, Tempo, 413793
1, 59030, Note_on_c, 0, 80, 0
1, 59040, Note_on_c, 0, 56, 0
1, 59040, Note_on_c, 0, 54, 0
1, 59040, Note_on_c, 0, 80, 63
1, 59040, Note_on_c, 0, 53, 33
1, 59051, Control_c, 0, 64, 0
1, 59088, Tempo, 412371
1, 59148, Tempo, 410959
1, 59153, Control_c, 0, 64, 127
1, 59160, Note_on_c, 0, 56, 33
1, 59200, Tempo, 409556
1, 59260, Tempo, 408163
1, 59280, Note_on_c, 0, 56, 0
1, 59280, Note_on_c, 0, 61, 36
1, 59320, Tempo, 406780
1, 59368, Tempo, 405405
1, 59400, Note_on_c, 0, 61, 0
1, 59400, Note_on_c, 0, 65, 39
1, 59428, Tempo, 404040
1, 59480, Tempo, 402685
1, 59520, Note_on_c, 0, 65, 0
1, 59520, Note_on_c, 0, 61, 37
1, 59540, Tempo, 401338
1, 59600, Tempo, 400000
1, 59640, Note_on_c, 0, 61, 0
1, 59640, Note_on_c, 0, 56, 35
1, 59648, Tempo, 398671
1, 59708, Tempo, 397351
1, 59760, Tempo, 396040
1, 59760, Note_on_c, 0, 56, 0
1, 59760, Note_on_c, 0, 53, 0
1, 59760, Note_on_c, 0, 80, 0
1, 59760, Note_on_c, 0, 85, 75
1, 59760, Note_on_c, 0, 53, 35
1, 59771, Control_c, 0, 64, 0
1, 59880, Note_on_c, 0, 53, 0
1, 59880, Note_on_c, 0, 56, 38
1, 59887, Control_c, 0, 64, 127
1, 60000, Note_on_c, 0, 56, 0
1, 60000, Note_on_c, 0, 61, 41
1, 60120, Note_on_c, 0, 61, 0
1, 60120, Note_on_c, 0, 68, 42
1, 60240, Note_on_c, 0, 68, 0
1, 60240, Note_on_c, 0, 61, 40
1, 60360, Note_on_c, 0, 61, 0
1, 60360, Note_on_c, 0, 56, 37
1, 60480, Note_on_c, 0, 56, 0
1, 60480, Note_on_c, 0, 85, 0
1, 60480, Note_on_c, 0, 85, 82
1, 60480, Note_on_c, 0, 51, 35
1, 60487, Control_c, 0, 64, 0
1, 60572, Control_c, 0, 64, 127
1, 60600, Note_on_c, 0, 51, 0
1, 60600, Note_on_c, 0, 56, 38
1, 60720, Note_on_c, 0, 56, 0
1, 60720, Note_on_c, 0, 60, 41
1, 60840, Note_on_c, 0, 60, 0
1, 60840, Note_on_c, 0, 66, 41
1, 60960, Note_on_c, 0, 66, 0
1, 60960, Note_on_c, 0, 85, 0
1, 60960, Note_on_c, 0, 84, 78
1, 60960, Note_on_c, 0, 60, 39
1, 61080, Note_on_c, 0, 60, 0
1, 61080, Note_on_c, 0, 56, 36
1, 61200, Tempo, 416667
1, 61200, Note_on_c, 0, 56, 0
1, 61200, Note_on_c, 0, 84, 0
1, 61200, Note_on_c, 0, 84, 75
1, 61200, Control_c, 0, 64, 0
1, 61200, Note_on_c, 0, 51, 35
1, 61320, Note_on_c, 0, 51, 0
1, 61320, Note_on_c, 0, 56, 34
1, 61348, Control_c, 0, 64, 127
1, 61440, Tempo, 470588
1, 61440, Note_on_c, 0, 56, 0
1, 61440, Note_on_c, 0, 84, 0
1, 61440, Note_on_c, 0, 82, 71
1, 61440, Note_on_c, 0, 60, 37
1, 61560, Note_on_c, 0, 60, 0
1, 61560, Note_on_c, 0, 66, 39
1, 61680, Tempo, 502092
1, 61680, Note_on_c, 0, 66, 0
1, 61680, Note_on_c, 0, 60, 36
1, 61800, Note_on_c, 0, 60, 0
1, 61800, Note_on_c, 0, 82, 0
1, 61800, Note_on_c, 0, 80, 63
1, 61800, Note_on_c, 0, 56, 31
1, 61920, Note_on_c, 0, 56, 0
1, 61920, Note_on_c, 0, 80, 0
1, 61920, Note_on_c, 0, 89, 80
1, 61920, Note_on_c, 0, 50, 32
1, 61930, Control_c, 0, 64, 0
1, 62000, Control_c, 0, 64, 127
1, 62040, Note_on_c, 0, 50, 0
1, 62040, Note_on_c, 0, 56, 31
1, 62160, Note_on_c, 0, 56, 0
1, 62160, Note_on_c, 0, 59, 35
1, 62280, Note_on_c, 0, 59, 0
1, 62280, Note_on_c, 0, 65, 37
1, 62400, Note_on_c, 0, 65, 0
1, 62400, Note_on_c, 0, 59, 36
1, 62520, Note_on_c, 0, 59, 0
1, 62520, Note_on_c, 0, 56, 34
1, 62640, Tempo, 582524
1, 62640, Note_on_c, 0, 56, 0
1, 62640, Note_on_c, 0, 89, 0
1, 62640, Note_on_c, 0, 89, 77
1, 62640, Note_on_c, 0, 50, 33
1, 62649, Control_c, 0, 64, 0
1, 62726, Control_c, 0, 64, 127
1, 62760, Note_on_c, 0, 50, 0
1, 62760, Note_on_c, 0, 56, 30
1, 62880, Note_on_c, 0, 56, 0
1, 62880, Note_on_c, 0, 58, 35
1, 63000, Note_on_c, 0, 58, 0
1, 63000, Note_on_c, 0, 65, 37
1, 63120, Tempo, 714286
1, 63120, Note_on_c, 0, 65, 0
1, 63120, Note_on_c, 0, 89, 0
1, 63120, Note_on_c, 0, 89, 81
1, 63120, Note_on_c, 0, 58, 36
1, 63240, Note_on_c, 0, 58, 0
1, 63240, Note_on_c, 0, 56, 34
1, 63350, Note_on_c, 0, 89, 0
1, 63360, Tempo, 538117
1, 63360, Note_on_c, 0, 56, 0
1, 63360, Note_on_c, 0, 89, 85
1, 63360, Note_on_c, 0, 51, 35
1, 63368, Control_c, 0, 64, 0
1, 63408, Tempo, 535714
1, 63448, Tempo, 533333
1, 63452, Control_c, 0, 64, 127
1, 63480, Note_on_c, 0, 51, 0
1, 63480, Note_on_c, 0, 54, 35
1, 63500, Tempo, 530973
1, 63540, Tempo, 528634
1, 63580, Tempo, 526316
1, 63600, Note_on_c, 0, 54, 0
1, 63600, Note_on_c, 0, 58, 38
1, 63628, Tempo, 524017
1, 63668, Tempo, 521739
1, 63708, Tempo, 519481
1, 63720, Note_on_c, 0, 58, 0
1, 63720, Note_on_c, 0, 63, 39
1, 63760, Tempo, 517241
1, 63800, Tempo, 515021
1, 63840, Note_on_c, 0, 63, 0
1, 63840, Note_on_c, 0, 58, 38
1, 63848, Tempo, 512821
1, 63888, Tempo, 510638
1, 63928, Tempo, 508475
1, 63960, Note_on_c, 0, 58, 0
1, 63960, Note_on_c, 0, 54, 36
1, 63980, Tempo, 506329
1, 64020, Tempo, 504202
1, 64060, Tempo, 502092
1, 64080, Tempo, 526316
1, 64080, Note_on_c, 0, 54, 0
1, 64080, Note_on_c, 0, 89, 0
1, 64080, Note_on_c, 0, 87, 72
1, 64080, Note_on_c, 0, 42, 32
1, 64086, Control_c, 0, 64, 0
1, 64186, Control_c, 0, 64, 127
1, 64200, Note_on_c, 0, 42, 0
1, 64200, Note_on_c, 0, 54, 31
1, 64320, Note_on_c, 0, 54, 0
1, 64320, Note_on_c, 0, 87, 0
1, 64320, Note_on_c, 0, 85, 71
1, 64320, Note_on_c, 0, 58, 36
1, 64440, Note_on_c, 0, 58, 0
1, 64440, Note_on_c, 0, 63, 38
1, 64560, Note_on_c, 0, 63, 0
1, 64560, Note_on_c, 0, 85, 0
1, 64560, Note_on_c, 0, 82, 70
1, 64560, Note_on_c, 0, 58, 36
1, 64680, Note_on_c, 0, 58, 0
1, 64680, Note_on_c, 0, 54, 34
1, 64800, Note_on_c, 0, 54, 0
1, 64800, Note_on_c, 0, 82, 0
1, 64800, Note_on_c, 0, 84, 75
1, 64800, Note_on_c, 0, 44, 34
1, 64809, Control_c, 0, 64, 0
1, 64913, Control_c, 0, 64, 127
1, 64920, Note_on_c, 0, 44, 0
1, 64920, Note_on_c, 0, 53, 36
1, 65040, Note_on_c, 0, 53, 0
1, 65040, Note_on_c, 0, 56, 37
1, 65160, Note_on_c, 0, 56, 0
1, 65160, Note_on_c, 0, 61, 39
1, 65280, Note_on_c, 0, 61, 0
1, 65280, Note_on_c, 0, 56, 37
1, 65400, Note_on_c, 0, 56, 0
1, 65400, Note_on_c, 0, 53, 35
1, 65520, Note_on_c, 0, 53, 0
1, 65520, Note_on_c, 0, 84, 0
1, 65520, Note_on_c, 0, 82, 71
1, 65520, Note_on_c, 0, 44, 36
1, 65640, Note_on_c, 0, 44, 0
1, 65640, Note_on_c, 0, 53, 34
1, 65760, Note_on_c, 0, 53, 0
1, 65760, Note_on_c, 0, 82, 0
1, 65760, Note_on_c, 0, 80, 68
1, 65760, Note_on_c, 0, 56, 35
1, 65880, Note_on_c, 0, 56, 0
1, 65880, Note_on_c, 0, 61, 38
1, 66000, Note_on_c, 0, 61, 0
1, 66000, Note_on_c, 0, 80, 0
1, 66000, Note_on_c, 0, 77, 63
1, 66000, Note_on_c, 0, 56, 37
1, 66120, Note_on_c, 0, 56, 0
1, 66120, Note_on_c, 0, 53, 36
1, 66240, Note_on_c, 0, 53, 0
1, 66240, Note_on_c, 0, 77, 0
1, 66240, Note_on_c, 0, 82, 69
1, 66240, Note_on_c, 0, 44, 36
1, 66249, Control_c, 0, 64, 0
1, 66332, Control_c, 0, 64, 127
1, 66360, Note_on_c, 0, 44, 0
1, 66360, Note_on_c, 0, 54, 34
1, 66480, Note_on_c, 0, 54, 0
1, 66480, Note_on_c, 0, 82, 0
1, 66480, Note_on_c, 0, 80, 64
1, 66480, Note_on_c, 0, 56, 36
1, 66600, Note_on_c, 0, 56, 0
1, 66600, Note_on_c, 0, 60, 36
1, 66720, Note_on_c, 0, 60, 0
1, 66720, Note_on_c, 0, 80, 0
1, 66720, Note_on_c, 0, 78, 61
1, 66720, Note_on_c, 0, 56, 35
1, 66840, Note_on_c, 0, 56, 0
1, 66840, Note_on_c, 0, 54, 34
1, 66960, Tempo, 547945
1, 66960, Note_on_c, 0, 54, 0
1, 66960, Note_on_c, 0, 78, 0
1, 66960, Note_on_c, 0, 78, 55
1, 66960, Note_on_c, 0, 44, 34
1, 67020, Note_on_c, 0, 78, 0
1, 67020, Note_on_c, 0, 80, 55
1, 67080, Note_on_c, 0, 80, 0
1, 67080, Note_on_c, 0, 44, 0
1, 67080, Note_on_c, 0, 78, 63
1, 67080, Note_on_c, 0, 54, 31
1, 67200, Tempo, 603015
1, 67200, Note_on_c, 0, 54, 0
1, 67200, Note_on_c, 0, 78, 0
1, 67200, Note_on_c, 0, 77, 58
1, 67200, Note_on_c, 0, 56, 35
1, 67320, Note_on_c, 0, 56, 0
1, 67320, Note_on_c, 0, 60, 37
1, 67440, Tempo, 681818
1, 67440, Note_on_c, 0, 60, 0
1, 67440, Note_on_c, 0, 56, 35
1, 67560, Note_on_c, 0, 56, 0
1, 67560, Note_on_c, 0, 77, 0
1, 67560, Note_on_c, 0, 76, 59
1, 67560, Note_on_c, 0, 54, 33
1, 67670, Note_on_c, 0, 76, 0
1, 67680, Tempo, 603015
1, 67680, Note_on_c, 0, 54, 0
1, 67680, Note_on_c, 0, 76, 59
1, 67680, Note_on_c, 0, 49, 34
1, 67688, Control_c, 0, 64, 0
1, 67720, Tempo, 600000
1, 67760, Tempo, 597015
1, 67779, Control_c, 0, 64, 127
1, 67800, Tempo, 594059
1, 67800, Note_on_c, 0, 49, 0
1, 67800, Note_on_c, 0, 56, 33
1, 67840, Tempo, 591133
1, 67880, Tempo, 588235
1, 67920, Tempo, 585366
1, 67920, Note_on_c, 0, 56, 0
1, 67920, Note_on_c, 0, 61, 36
1, 67960, Tempo, 582524
1, 68000, Tempo, 579710
1, 68040, Tempo, 576923
1, 68040, Note_on_c, 0, 61, 0
1, 68040, Note_on_c, 0, 65, 37
1, 68080, Tempo, 574163
1, 68120, Tempo, 571429
1, 68160, Tempo, 568720
1, 68160, Note_on_c, 0, 65, 0
1, 68160, Note_on_c, 0, 61, 36
1, 68200, Tempo, 566038
1, 68240, Tempo, 563380
1, 68280, Tempo, 560748
1, 68280, Note_on_c, 0, 61, 0
1, 68280, Note_on_c, 0, 58, 35
1, 68320, Tempo, 558140
1, 68360, Tempo, 555556
1, 68388, Tempo, 552995
1, 68400, Tempo, 552995
1, 68400, Note_on_c, 0, 58, 0
1, 68400, Note_on_c, 0, 76, 0
1, 68400, Note_on_c, 0, 77, 63
1, 68400, Note_on_c, 0, 56, 37
1, 68409, Control_c, 0, 64, 0
1, 68520, Note_on_c, 0, 61, 36
1, 68534, Control_c, 0, 64, 127
1, 68640, Note_on_c, 0, 61, 0
1, 68640, Note_on_c, 0, 56, 0
1, 68640, Note_on_c, 0, 65, 39
1, 68760, Note_on_c, 0, 65, 0
1, 68760, Note_on_c, 0, 68, 40
1, 68880, Tempo, 517241
1, 68880, Note_on_c, 0, 68, 0
1, 68880, Note_on_c, 0, 77, 0
1, 68880, Note_on_c, 0, 80, 57
1, 68880, Note_on_c, 0, 65, 39
1, 69000, Note_on_c, 0, 65, 0
1, 69000, Note_on_c, 0, 61, 38
1, 69120, Note_on_c, 0, 61, 0
1, 69120, Note_on_c, 0, 80, 0
1, 69120, Note_on_c, 0, 68, 57
1, 69120, Note_on_c, 0, 54, 42
1, 69124, Control_c, 0, 64, 0
1, 69180, Note_on_c, 0, 80, 57
1, 69191, Control_c, 0, 64, 127
1, 69240, Note_on_c, 0, 56, 42
1, 69360, Note_on_c, 0, 56, 0
1, 69360, Note_on_c, 0, 60, 42
1, 69480, Note_on_c, 0, 60, 0
1, 69480, Note_on_c, 0, 63, 42
1, 69600, Note_on_c, 0, 63, 0
1, 69600, Note_on_c, 0, 68, 0
1, 69600, Note_on_c, 0, 72, 63
1, 69600, Note_on_c, 0, 60, 42
1, 69720, Note_on_c, 0, 60, 0
1, 69720, Note_on_c, 0, 56, 42
1, 69840, Tempo, 600000
1, 69840, Note_on_c, 0, 56, 0
1, 69840, Note_on_c, 0, 80, 0
1, 69840, Note_on_c, 0, 54, 0
1, 69840, Note_on_c, 0, 84, 63
1, 69840, Note_on_c, 0, 54, 51
1, 69960, Note_on_c, 0, 56, 45
1, 70080, Tempo, 472441
1, 70080, Note_on_c, 0, 56, 0
1, 70080, Note_on_c, 0, 72, 0
1, 70080, Note_on_c, 0, 84, 0
1, 70080, Note_on_c, 0, 70, 63
1, 70080, Note_on_c, 0, 82, 63
1, 70080, Note_on_c, 0, 60, 45
1, 70200, Note_on_c, 0, 60, 0
1, 70200, Note_on_c, 0, 63, 45
1, 70320, Note_on_c, 0, 63, 0
1, 70320, Note_on_c, 0, 60, 41
1, 70440, Note_on_c, 0, 60, 0
1, 70440, Note_on_c, 0, 82, 0
1, 70440, Note_on_c, 0, 70, 0
1, 70440, Note_on_c, 0, 68, 63
1, 70440, Note_on_c, 0, 80, 63
1, 70440, Note_on_c, 0, 56, 38
1, 70548, Tempo, 413793
1, 70550, Note_on_c, 0, 80, 0
1, 70550, Note_on_c, 0, 68, 0
1, 70560, Note_on_c, 0, 54, 0
1, 70560, Note_on_c, 0, 56, 0
1, 70560, Note_on_c, 0, 68, 63
1, 70560, Note_on_c, 0, 80, 63
1, 70560, Note_on_c, 0, 53, 37
1, 70570, Control_c, 0, 64, 0
1, 70608, Tempo, 412371
1, 70668, Tempo, 410959
1, 70680, Note_on_c, 0, 56, 36
1, 70687, Control_c, 0, 64, 127
1, 70720, Tempo, 409556
1, 70780, Tempo, 408163
1, 70800, Note_on_c, 0, 56, 0
1, 70800, Note_on_c, 0, 61, 39
1, 70840, Tempo, 406780
1, 70888, Tempo, 405405
1, 70920, Note_on_c, 0, 61, 0
1, 70920, Note_on_c, 0, 65, 42
1, 70948, Tempo, 404040
1, 71000, Tempo, 402685
1, 71040, Note_on_c, 0, 65, 0
1, 71040, Note_on_c, 0, 61, 40
1, 71060, Tempo, 401338
1, 71120, Tempo, 400000
1, 71160, Note_on_c, 0, 61, 0
1, 71160, Note_on_c, 0, 56, 38
1, 71168, Tempo, 398671
1, 71228, Tempo, 397351
1, 71280, Tempo, 396040
1, 71280, Note_on_c, 0, 56, 0
1, 71280, Note_on_c, 0, 53, 0
1, 71280, Note_on_c, 0, 68, 0
1, 71280, Note_on_c, 0, 73, 75
1, 71280, Note_on_c, 0, 85, 75
1, 71280, Note_on_c, 0, 53, 39
1, 71400, Note_on_c, 0, 53, 0
1, 71400, Note_on_c, 0, 56, 41
1, 71520, Note_on_c, 0, 56, 0
1, 71520, Note_on_c, 0, 61, 45
1, 71640, Note_on_c, 0, 61, 0
1, 71640, Note_on_c, 0, 68, 46
1, 71760, Note_on_c, 0, 68, 0
1, 71760, Note_on_c, 0, 61, 44
1, 71880, Note_on_c, 0, 61, 0
1, 71880, Note_on_c, 0, 56, 40
1, 72000, Note_on_c, 0, 56, 0
1, 72000, Note_on_c, 0, 85, 0
1, 72000, Note_on_c, 0, 73, 0
1, 72000, Note_on_c, 0, 80, 0
1, 72000, Note_on_c, 0, 80, 60
1, 72000, Note_on_c, 0, 73, 75
1, 72000, Note_on_c, 0, 85, 75
1, 72000, Note_on_c, 0, 51, 39
1, 72004, Control_c, 0, 64, 0
1, 72099, Control_c, 0, 64, 127
1, 72120, Note_on_c, 0, 51, 0
1, 72120, Note_on_c, 0, 56, 41
1, 72240, Note_on_c, 0, 56, 0
1, 72240, Note_on_c, 0, 60, 45
1, 72360, Note_on_c, 0, 60, 0
1, 72360, Note_on_c, 0, 66, 45
1, 72480, Note_on_c, 0, 66, 0
1, 72480, Note_on_c, 0, 85, 0
1, 72480, Note_on_c, 0, 73, 0
1, 72480, Note_on_c, 0, 72, 78
1, 72480, Note_on_c, 0, 84, 78
1, 72480, Note_on_c, 0, 60, 42
1, 72600, Note_on_c, 0, 60, 0
1, 72600, Note_on_c, 0, 56, 39
1, 72720, Tempo, 416667
1, 72720, Note_on_c, 0, 56, 0
1, 72720, Note_on_c, 0, 84, 0
1, 72720, Note_on_c, 0, 72, 0
1, 72720, Note_on_c, 0, 72, 75
1, 72720, Note_on_c, 0, 84, 75
1, 72720, Note_on_c, 0, 51, 37
1, 72840, Note_on_c, 0, 51, 0
1, 72840, Note_on_c, 0, 56, 37
1, 72960, Tempo, 470588
1, 72960, Note_on_c, 0, 56, 0
1, 72960, Note_on_c, 0, 60, 40
1, 73080, Note_on_c, 0, 60, 0
1, 73080, Note_on_c, 0, 80, 0
1, 73080, Note_on_c, 0, 72, 0
1, 73080, Note_on_c, 0, 84, 0
1, 73080, Note_on_c, 0, 70, 71
1, 73080, Note_on_c, 0, 82, 71
1, 73080, Note_on_c, 0, 66, 42
1, 73200, Tempo, 481928
1, 73200, Note_on_c, 0, 66, 0
1, 73200, Note_on_c, 0, 82, 0
1, 73200, Note_on_c, 0, 70, 0
1, 73200, Note_on_c, 0, 68, 63
1, 73200, Note_on_c, 0, 80, 63
1, 73200, Note_on_c, 0, 60, 39
1, 73320, Note_on_c, 0, 60, 0
1, 73320, Note_on_c, 0, 56, 34
1, 73440, Note_on_c, 0, 56, 0
1, 73440, Note_on_c, 0, 80, 0
1, 73440, Note_on_c, 0, 68, 0
1, 73440, Note_on_c, 0, 80, 80
1, 73440, Note_on_c, 0, 77, 68
1, 73440, Note_on_c, 0, 89, 80
1, 73440, Note_on_c, 0, 50, 39
1, 73450, Control_c, 0, 64, 0
1, 73503, Control_c, 0, 64, 127
1, 73560, Note_on_c, 0, 50, 0
1, 73560, Note_on_c, 0, 56, 37
1, 73680, Note_on_c, 0, 56, 0
1, 73680, Note_on_c, 0, 59, 41
1, 73800, Note_on_c, 0, 59, 0
1, 73800, Note_on_c, 0, 65, 44
1, 73920, Note_on_c, 0, 65, 0
1, 73920, Note_on_c, 0, 59, 42
1, 74040, Note_on_c, 0, 59, 0
1, 74040, Note_on_c, 0, 56, 40
1, 74160, Tempo, 526316
1, 74160, Note_on_c, 0, 56, 0
1, 74160, Note_on_c, 0, 89, 0
1, 74160, Note_on_c, 0, 77, 0
1, 74160, Note_on_c, 0, 80, 0
1, 74160, Note_on_c, 0, 77, 65
1, 74160, Note_on_c, 0, 80, 77
1, 74160, Note_on_c, 0, 89, 77
1, 74160, Note_on_c, 0, 50, 35
1, 74169, Control_c, 0, 64, 0
1, 74235, Control_c, 0, 64, 127
1, 74280, Note_on_c, 0, 50, 0
1, 74280, Note_on_c, 0, 56, 36
1, 74400, Note_on_c, 0, 56, 0
1, 74400, Note_on_c, 0, 58, 41
1, 74520, Note_on_c, 0, 58, 0
1, 74520, Note_on_c, 0, 65, 44
1, 74640, Tempo, 600000
1, 74640, Note_on_c, 0, 65, 0
1, 74640, Note_on_c, 0, 89, 0
1, 74640, Note_on_c, 0, 80, 0
1, 74640, Note_on_c, 0, 77, 0
1, 74640, Note_on_c, 0, 77, 62
1, 74640, Note_on_c, 0, 80, 74
1, 74640, Note_on_c, 0, 89, 74
1, 74640, Note_on_c, 0, 58, 42
1, 74760, Note_on_c, 0, 58, 0
1, 74760, Note_on_c, 0, 56, 40
1, 74870, Note_on_c, 0, 77, 0
1, 74870, Note_on_c, 0, 89, 0
1, 74870, Note_on_c, 0, 80, 0
1, 74880, Tempo, 538117
1, 74880, Note_on_c, 0, 56, 0
1, 74880, Note_on_c, 0, 77, 69
1, 74880, Note_on_c, 0, 80, 82
1, 74880, Note_on_c, 0, 89, 82
1, 74880, Note_on_c, 0, 51, 35
1, 74887, Control_c, 0, 64, 0
1, 74928, Tempo, 535714
1, 74968, Tempo, 533333
1, 75000, Note_on_c, 0, 51, 0
1, 75000, Note_on_c, 0, 54, 38
1, 75014, Control_c, 0, 64, 127
1, 75020, Tempo, 530973
1, 75060, Tempo, 528634
1, 75100, Tempo, 526316
1, 75120, Note_on_c, 0, 54, 0
1, 75120, Note_on_c, 0, 58, 41
1, 75148, Tempo, 524017
1, 75188, Tempo, 521739
1, 75228, Tempo, 519481
1, 75240, Note_on_c, 0, 58, 0
1, 75240, Note_on_c, 0, 63, 42
1, 75280, Tempo, 517241
1, 75320, Tempo, 515021
1, 75360, Note_on_c, 0, 63, 0
1, 75360, Note_on_c, 0, 58, 41
1, 75368, Tempo, 512821
1, 75408, Tempo, 510638
1, 75448, Tempo, 508475
1, 75480, Note_on_c, 0, 58, 0
1, 75480, Note_on_c, 0, 54, 39
1, 75500, Tempo, 506329
1, 75540, Tempo, 504202
1, 75580, Tempo, 502092
1, 75600, Tempo, 526316
1, 75600, Note_on_c, 0, 54, 0
1, 75600, Note_on_c, 0, 89, 0
1, 75600, Note_on_c, 0, 80, 0
1, 75600, Note_on_c, 0, 77, 0
1, 75600, Note_on_c, 0, 78, 67
1, 75600, Note_on_c, 0, 75, 56
1, 75600, Note_on_c, 0, 87, 67
1, 75600, Note_on_c, 0, 42, 34
1, 75614, Control_c, 0, 64, 0
1, 75706, Control_c, 0, 64, 127
1, 75720, Note_on_c, 0, 42, 0
1, 75720, Note_on_c, 0, 54, 34
1, 75840, Note_on_c, 0, 54, 0
1, 75840, Note_on_c, 0, 87, 0
1, 75840, Note_on_c, 0, 75, 0
1, 75840, Note_on_c, 0, 78, 0
1, 75840, Note_on_c, 0, 73, 55
1, 75840, Note_on_c, 0, 78, 65
1, 75840, Note_on_c, 0, 85, 65
1, 75840, Note_on_c, 0, 58, 39
1, 75960, Tempo, 550459
1, 75960, Note_on_c, 0, 58, 0
1, 75960, Note_on_c, 0, 63, 41
1, 76080, Note_on_c, 0, 63, 0
1, 76080, Note_on_c, 0, 58, 39
1, 76200, Tempo, 588235
1, 76200, Note_on_c, 0, 58, 0
1, 76200, Note_on_c, 0, 73, 0
1, 76200, Note_on_c, 0, 78, 0
1, 76200, Note_on_c, 0, 85, 0
1, 76200, Note_on_c, 0, 70, 54
1, 76200, Note_on_c, 0, 78, 64
1, 76200, Note_on_c, 0, 82, 64
1, 76200, Note_on_c, 0, 54, 37
1, 76320, Tempo, 526316
1, 76320, Note_on_c, 0, 54, 0
1, 76320, Note_on_c, 0, 70, 0
1, 76320, Note_on_c, 0, 78, 0
1, 76320, Note_on_c, 0, 82, 0
1, 76320, Note_on_c, 0, 72, 52
1, 76320, Note_on_c, 0, 80, 62
1, 76320, Note_on_c, 0, 84, 62
1, 76320, Note_on_c, 0, 44, 36
1, 76329, Control_c, 0, 64, 0
1, 76405, Control_c, 0, 64, 127
1, 76440, Note_on_c, 0, 44, 0
1, 76440, Note_on_c, 0, 53, 39
1, 76560, Note_on_c, 0, 53, 0
1, 76560, Note_on_c, 0, 56, 40
1, 76680, Note_on_c, 0, 56, 0
1, 76680, Note_on_c, 0, 61, 42
1, 76800, Note_on_c, 0, 61, 0
1, 76800, Note_on_c, 0, 56, 40
1, 76920, Note_on_c, 0, 56, 0
1, 76920, Note_on_c, 0, 53, 38
1, 77040, Tempo, 433213
1, 77040, Note_on_c, 0, 53, 0
1, 77040, Note_on_c, 0, 84, 0
1, 77040, Note_on_c, 0, 80, 0
1, 77040, Note_on_c, 0, 72, 0
1, 77040, Note_on_c, 0, 70, 54
1, 77040, Note_on_c, 0, 78, 64
1, 77040, Note_on_c, 0, 82, 64
1, 77040, Note_on_c, 0, 44, 35
1, 77160, Note_on_c, 0, 44, 0
1, 77160, Note_on_c, 0, 53, 35
1, 77280, Note_on_c, 0, 53, 0
1, 77280, Note_on_c, 0, 82, 0
1, 77280, Note_on_c, 0, 78, 0
1, 77280, Note_on_c, 0, 70, 0
1, 77280, Note_on_c, 0, 68, 57
1, 77280, Note_on_c, 0, 77, 68
1, 77280, Note_on_c, 0, 80, 68
1, 77280, Note_on_c, 0, 56, 37
1, 77400, Note_on_c, 0, 56, 0
1, 77400, Note_on_c, 0, 61, 39
1, 77520, Tempo, 470588
1, 77520, Note_on_c, 0, 61, 0
1, 77520, Note_on_c, 0, 80, 0
1, 77520, Note_on_c, 0, 77, 0
1, 77520, Note_on_c, 0, 68, 0
1, 77520, Note_on_c, 0, 70, 61
1, 77520, Note_on_c, 0, 77, 72
1, 77520, Note_on_c, 0, 82, 72
1, 77520, Note_on_c, 0, 56, 37
1, 77640, Note_on_c, 0, 56, 0
1, 77640, Note_on_c, 0, 53, 35
1, 77760, Note_on_c, 0, 53, 0
1, 77760, Note_on_c, 0, 82, 0
1, 77760, Note_on_c, 0, 77, 0
1, 77760, Note_on_c, 0, 70, 0
1, 77760, Note_on_c, 0, 77, 77
1, 77760, Note_on_c, 0, 71, 65
1, 77760, Note_on_c, 0, 83, 77
1, 77760, Note_on_c, 0, 44, 35
1, 77769, Control_c, 0, 64, 0
1, 77840, Control_c, 0, 64, 127
1, 77880, Note_on_c, 0, 44, 0
1, 77880, Note_on_c, 0, 53, 37
1, 78000, Note_on_c, 0, 53, 0
1, 78000, Note_on_c, 0, 56, 39
1, 78120, Note_on_c, 0, 56, 0
1, 78120, Note_on_c, 0, 62, 41
1, 78240, Note_on_c, 0, 62, 0
1, 78240, Note_on_c, 0, 83, 0
1, 78240, Note_on_c, 0, 71, 0
1, 78240, Note_on_c, 0, 77, 0
1, 78240, Note_on_c, 0, 77, 75
1, 78240, Note_on_c, 0, 70, 63
1, 78240, Note_on_c, 0, 82, 75
1, 78240, Note_on_c, 0, 56, 39
1, 78360, Note_on_c, 0, 56, 0
1, 78360, Note_on_c, 0, 53, 36
1, 78480, Note_on_c, 0, 53, 0
1, 78480, Note_on_c, 0, 82, 0
1, 78480, Note_on_c, 0, 70, 0
1, 78480, Note_on_c, 0, 77, 0
1, 78480, Note_on_c, 0, 71, 66
1, 78480, Note_on_c, 0, 77, 78
1, 78480, Note_on_c, 0, 83, 78
1, 78480, Note_on_c, 0, 44, 37
1, 78488, Control_c, 0, 64, 0
1, 78555, Control_c, 0, 64, 127
1, 78600, Note_on_c, 0, 44, 0
1, 78600, Note_on_c, 0, 53, 39
1, 78720, Note_on_c, 0, 53, 0
1, 78720, Note_on_c, 0, 56, 43
1, 78840, Note_on_c, 0, 56, 0
1, 78840, Note_on_c, 0, 62, 48
1, 78960, Note_on_c, 0, 62, 0
1, 78960, Note_on_c, 0, 56, 45
1, 79080, Note_on_c, 0, 56, 0
1, 79080, Note_on_c, 0, 53, 41
1, 79200, Note_on_c, 0, 53, 0
1, 79200, Note_on_c, 0, 44, 39
1, 79320, Note_on_c, 0, 44, 0
1, 79320, Note_on_c, 0, 53, 40
1, 79440, Note_on_c, 0, 53, 0
1, 79440, Note_on_c, 0, 56, 43
1, 79560, Note_on_c, 0, 56, 0
1, 79560, Note_on_c, 0, 62, 45
1, 79680, Tempo, 418118
1, 79680, Note_on_c, 0, 62, 0
1, 79680, Note_on_c, 0, 83, 0
1, 79680, Note_on_c, 0, 77, 0
1, 79680, Note_on_c, 0, 71, 0
1, 79680, Note_on_c, 0, 70, 64
1, 79680, Note_on_c, 0, 77, 76
1, 79680, Note_on_c, 0, 82, 76
1, 79680, Note_on_c, 0, 56, 42
1, 79800, Note_on_c, 0, 56, 0
1, 79800, Note_on_c, 0, 53, 36
1, 79920, Tempo, 412371
1, 79920, Note_on_c, 0, 53, 0
1, 79920, Note_on_c, 0, 82, 0
1, 79920, Note_on_c, 0, 77, 0
1, 79920, Note_on_c, 0, 70, 0
1, 79920, Note_on_c, 0, 71, 68
1, 79920, Note_on_c, 0, 77, 81
1, 79920, Note_on_c, 0, 83, 81
1, 79920, Note_on_c, 0, 44, 39
1, 79932, Control_c, 0, 64, 0
1, 79977, Control_c, 0, 64, 127
1, 80040, Note_on_c, 0, 44, 0
1, 80040, Note_on_c, 0, 53, 40
1, 80160, Note_on_c, 0, 53, 0
1, 80160, Note_on_c, 0, 83, 0
1, 80160, Note_on_c, 0, 77, 0
1, 80160, Note_on_c, 0, 71, 0
1, 80160, Note_on_c, 0, 70, 66
1, 80160, Note_on_c, 0, 77, 78
1, 80160, Note_on_c, 0, 82, 78
1, 80160, Note_on_c, 0, 56, 43
1, 80280, Note_on_c, 0, 56, 0
1, 80280, Note_on_c, 0, 62, 47
1, 80400, Note_on_c, 0, 62, 0
1, 80400, Note_on_c, 0, 82, 0
1, 80400, Note_on_c, 0, 77, 0
1, 80400, Note_on_c, 0, 70, 0
1, 80400, Note_on_c, 0, 71, 66
1, 80400, Note_on_c, 0, 77, 78
1, 80400, Note_on_c, 0, 83, 78
1, 80400, Note_on_c, 0, 56, 44
1, 80520, Note_on_c, 0, 56, 0
1, 80520, Note_on_c, 0, 53, 40
1, 80640, Note_on_c, 0, 53, 0
1, 80640, Note_on_c, 0, 83, 0
1, 80640, Note_on_c, 0, 77, 0
1, 80640, Note_on_c, 0, 71, 0
1, 80640, Note_on_c, 0, 71, 68
1, 80640, Note_on_c, 0, 78, 81
1, 80640, Note_on_c, 0, 83, 81
1, 80640, Note_on_c, 0, 44, 41
1, 80649, Control_c, 0, 64, 0
1, 80718, Control_c, 0, 64, 127
1, 80760, Note_on_c, 0, 44, 0
1, 80760, Note_on_c, 0, 51, 43
1, 80880, Note_on_c, 0, 51, 0
1, 80880, Note_on_c, 0, 54, 47
1, 81000, Note_on_c, 0, 54, 0
1, 81000, Note_on_c, 0, 63, 50
1, 81120, Note_on_c, 0, 63, 0
1, 81120, Note_on_c, 0, 83, 0
1, 81120, Note_on_c, 0, 78, 0
1, 81120, Note_on_c, 0, 71, 0
1, 81120, Note_on_c, 0, 70, 69
1, 81120, Note_on_c, 0, 78, 82
1, 81120, Note_on_c, 0, 82, 82
1, 81120, Note_on_c, 0, 54, 46
1, 81240, Note_on_c, 0, 54, 0
1, 81240, Note_on_c, 0, 51, 43
1, 81360, Note_on_c, 0, 51, 0
1, 81360, Note_on_c, 0, 82, 0
1, 81360, Note_on_c, 0, 78, 0
1, 81360, Note_on_c, 0, 70, 0
1, 81360, Note_on_c, 0, 94, 96
1, 81360, Note_on_c, 0, 90, 96
1, 81360, Note_on_c, 0, 82, 81
1, 81360, Note_on_c, 0, 44, 67
1, 81480, Note_on_c, 0, 44, 0
1, 81480, Note_on_c, 0, 51, 50
1, 81600, Note_on_c, 0, 51, 0
1, 81600, Note_on_c, 0, 54, 55
1, 81720, Note_on_c, 0, 54, 0
1, 81720, Note_on_c, 0, 63, 58
1, 81840, Note_on_c, 0, 63, 0
1, 81840, Note_on_c, 0, 54, 55
1, 81960, Note_on_c, 0, 54, 0
1, 81960, Note_on_c, 0, 51, 52
1, 82080, Note_on_c, 0, 51, 0
1, 82080, Note_on_c, 0, 44, 62
1, 82091, Control_c, 0, 64, 0
1, 82179, Control_c, 0, 64, 127
1, 82200, Note_on_c, 0, 44, 0
1, 82200, Note_on_c, 0, 51, 50
1, 82320, Note_on_c, 0, 51, 0
1, 82320, Note_on_c, 0, 54, 55
1, 82440, Note_on_c, 0, 54, 0
1, 82440, Note_on_c, 0, 94, 0
1, 82440, Note_on_c, 0, 90, 0
1, 82440, Note_on_c, 0, 82, 0
1, 82440, Note_on_c, 0, 84, 80
1, 82440, Note_on_c, 0, 78, 80
1, 82440, Note_on_c, 0, 72, 68
1, 82440, Note_on_c, 0, 60, 58
1, 82550, Note_on_c, 0, 72, 0
1, 82550, Note_on_c, 0, 84, 0
1, 82550, Note_on_c, 0, 78, 0
1, 82560, Note_on_c, 0, 60, 0
1, 82560, Note_on_c, 0, 72, 68
1, 82560, Note_on_c, 0, 78, 80
1, 82560, Note_on_c, 0, 84, 80
1, 82560, Note_on_c, 0, 54, 55
1, 82680, Note_on_c, 0, 54, 0
1, 82680, Note_on_c, 0, 51, 51
1, 82790, Note_on_c, 0, 72, 0
1, 82790, Note_on_c, 0, 84, 0
1, 82790, Note_on_c, 0, 78, 0
1, 82800, Note_on_c, 0, 51, 0
1, 82800, Note_on_c, 0, 72, 79
1, 82800, Note_on_c, 0, 78, 93
1, 82800, Note_on_c, 0, 84, 93
1, 82800, Note_on_c, 0, 44, 67
1, 82809, Control_c, 0, 64, 0
1, 82920, Note_on_c, 0, 44, 0
1, 82920, Control_c, 0, 64, 127
1, 82920, Note_on_c, 0, 51, 57
1, 83040, Note_on_c, 0, 51, 0
1, 83040, Note_on_c, 0, 54, 61
1, 83160, Note_on_c, 0, 54, 0
1, 83160, Note_on_c, 0, 72, 0
1, 83160, Note_on_c, 0, 78, 0
1, 83160, Note_on_c, 0, 84, 0
1, 83160, Note_on_c, 0, 89, 89
1, 83160, Note_on_c, 0, 80, 89
1, 83160, Note_on_c, 0, 77, 75
1, 83160, Note_on_c, 0, 60, 65
1, 83280, Note_on_c, 0, 60, 0
1, 83280, Note_on_c, 0, 89, 0
1, 83280, Note_on_c, 0, 80, 0
1, 83280, Note_on_c, 0, 77, 0
1, 83280, Note_on_c, 0, 87, 92
1, 83280, Note_on_c, 0, 78, 92
1, 83280, Note_on_c, 0, 75, 78
1, 83280, Note_on_c, 0, 54, 62
1, 83400, Note_on_c, 0, 54, 0
1, 83400, Note_on_c, 0, 51, 59
1, 83520, Note_on_c, 0, 51, 0
1, 83520, Note_on_c, 0, 75, 0
1, 83520, Note_on_c, 0, 78, 0
1, 83520, Note_on_c, 0, 87, 0
1, 83520, Note_on_c, 0, 85, 104
1, 83520, Note_on_c, 0, 77, 104
1, 83520, Note_on_c, 0, 73, 88
1, 83520, Note_on_c, 0, 37, 71
1, 83531, Control_c, 0, 64, 0
1, 83627, Control_c, 0, 64, 127
1, 83640, Note_on_c, 0, 37, 0
1, 83640, Note_on_c, 0, 85, 0
1, 83640, Note_on_c, 0, 77, 0
1, 83640, Note_on_c, 0, 73, 0
1, 84000, Note_on_c, 0, 44, 70
1, 84120, Note_on_c, 0, 44, 0
1, 84120, Note_on_c, 0, 53, 75
1, 84240, Tempo, 385852
1, 84240, Note_on_c, 0, 53, 0
1, 84240, Note_on_c, 0, 65, 97
1, 84240, Note_on_c, 0, 61, 83
1, 84360, Note_on_c, 0, 65, 0
1, 84360, Note_on_c, 0, 73, 75
1, 84480, Note_on_c, 0, 73, 0
1, 84480, Note_on_c, 0, 61, 0
1, 84480, Note_on_c, 0, 80, 79
1, 84600, Note_on_c, 0, 80, 0
1, 84600, Note_on_c, 0, 77, 83
1, 84720, Note_on_c, 0, 77, 0
1, 84720, Note_on_c, 0, 85, 87
1, 84840, Note_on_c, 0, 85, 0
1, 84840, Note_on_c, 0, 94, 91
1, 84960, Note_on_c, 0, 94, 0
1, 84960, Note_on_c, 0, 84, 86
1, 84960, Note_on_c, 0, 92, 96
1, 84960, Note_on_c, 0, 32, 73
1, 84969, Control_c, 0, 64, 0
1, 85059, Control_c, 0, 64, 127
1, 85080, Note_on_c, 0, 32, 0
1, 85200, Note_on_c, 0, 92, 0
1, 85200, Note_on_c, 0, 84, 0
1, 85440, Note_on_c, 0, 44, 68
1, 85560, Note_on_c, 0, 44, 0
1, 85560, Note_on_c, 0, 51, 74
1, 85680, Tempo, 369231
1, 85680, Note_on_c, 0, 51, 0
1, 85680, Note_on_c, 0, 66, 97
1, 85680, Note_on_c, 0, 60, 84
1, 85800, Note_on_c, 0, 66, 0
1, 85800, Note_on_c, 0, 72, 75
1, 85920, Note_on_c, 0, 72, 0
1, 85920, Note_on_c, 0, 60, 0
1, 85920, Note_on_c, 0, 80, 80
1, 86040, Note_on_c, 0, 80, 0
1, 86040, Note_on_c, 0, 78, 84
1, 86160, Note_on_c, 0, 78, 0
1, 86160, Note_on_c, 0, 84, 88
1, 86280, Note_on_c, 0, 84, 0
1, 86280, Note_on_c, 0, 92, 93
1, 86400, Note_on_c, 0, 92, 0
1, 86400, Note_on_c, 0, 85, 87
1, 86400, Note_on_c, 0, 89, 97
1, 86400, Note_on_c, 0, 37, 78
1, 86411, Control_c, 0, 64, 0
1, 86506, Control_c, 0, 64, 127
1, 86520, Note_on_c, 0, 37, 0
1, 86640, Note_on_c, 0, 89, 0
1, 86640, Note_on_c, 0, 85, 0
1, 86880, Note_on_c, 0, 44, 70
1, 87000, Note_on_c, 0, 44, 0
1, 87000, Note_on_c, 0, 53, 75
1, 87120, Tempo, 378549
1, 87120, Note_on_c, 0, 53, 0
1, 87120, Note_on_c, 0, 65, 97
1, 87120, Note_on_c, 0, 61, 83
1, 87240, Note_on_c, 0, 65, 0
1, 87240, Note_on_c, 0, 73, 75
1, 87360, Note_on_c, 0, 73, 0
1, 87360, Note_on_c, 0, 61, 0
1, 87360, Note_on_c, 0, 80, 79
1, 87480, Note_on_c, 0, 80, 0
1, 87480, Note_on_c, 0, 77, 83
1, 87600, Note_on_c, 0, 77, 0
1, 87600, Note_on_c, 0, 85, 87
1, 87720, Note_on_c, 0, 85, 0
1, 87720, Note_on_c, 0, 94, 91
1, 87840, Note_on_c, 0, 94, 0
1, 87840, Note_on_c, 0, 84, 86
1, 87840, Note_on_c, 0, 92, 96
1, 87840, Note_on_c, 0, 32, 78
1, 87851, Control_c, 0, 64, 0
1, 87948, Control_c, 0, 64, 127
1, 87960, Note_on_c, 0, 32, 0
1, 88080, Note_on_c, 0, 92, 0
1, 88080, Note_on_c, 0, 84, 0
1, 88320, Note_on_c, 0, 44, 68
1, 88440, Note_on_c, 0, 44, 0
1, 88440, Note_on_c, 0, 51, 74
1, 88560, Tempo, 365854
1, 88560, Note_on_c, 0, 51, 0
1, 88560, Note_on_c, 0, 66, 97
1, 88560, Note_on_c, 0, 60, 84
1, 88680, Note_on_c, 0, 66, 0
1, 88680, Note_on_c, 0, 72, 75
1, 88800, Note_on_c, 0, 72, 0
1, 88800, Note_on_c, 0, 60, 0
1, 88800, Note_on_c, 0, 80, 80
1, 88920, Note_on_c, 0, 80, 0
1, 88920, Note_on_c, 0, 78, 84
1, 89040, Note_on_c, 0, 78, 0
1, 89040, Note_on_c, 0, 84, 88
1, 89160, Note_on_c, 0, 84, 0
1, 89160, Note_on_c, 0, 92, 93
1, 89280, Tempo, 333333
1, 89280, Note_on_c, 0, 92, 0
1, 89280, Note_on_c, 0, 85, 87
1, 89280, Note_on_c, 0, 89, 97
1, 89280, Note_on_c, 0, 25, 82
1, 89288, Control_c, 0, 64, 0
1, 89436, Control_c, 0, 64, 127
1, 89520, Note_on_c, 0, 25, 0
1, 89520, Note_on_c, 0, 89, 0
1, 89520, Note_on_c, 0, 85, 0
1, 89760, Note_on_c, 0, 44, 68
1, 89880, Note_on_c, 0, 44, 0
1, 89880, Note_on_c, 0, 53, 74
1, 90000, Tempo, 334262
1, 90000, Note_on_c, 0, 53, 0
1, 90000, Note_on_c, 0, 65, 97
1, 90000, Note_on_c, 0, 61, 84
1, 90080, Tempo, 333333
1, 90120, Note_on_c, 0, 65, 0
1, 90120, Note_on_c, 0, 73, 75
1, 90148, Tempo, 332410
1, 90220, Tempo, 331492
1, 90240, Note_on_c, 0, 73, 0
1, 90240, Note_on_c, 0, 61, 0
1, 90240, Note_on_c, 0, 80, 78
1, 90288, Tempo, 330579
1, 90360, Tempo, 329670
1, 90360, Note_on_c, 0, 80, 0
1, 90360, Note_on_c, 0, 77, 75
1, 90440, Tempo, 328767
1, 90480, Note_on_c, 0, 77, 0
1, 90480, Note_on_c, 0, 85, 79
1, 90508, Tempo, 327869
1, 90580, Tempo, 326975
1, 90600, Note_on_c, 0, 85, 0
1, 90600, Note_on_c, 0, 92, 75
1, 90648, Tempo, 326087
1, 90720, Tempo, 325203
1, 90720, Note_on_c, 0, 92, 0
1, 90720, Note_on_c, 0, 85, 78
1, 90840, Note_on_c, 0, 85, 0
1, 90840, Note_on_c, 0, 77, 75
1, 90960, Note_on_c, 0, 77, 0
1, 90960, Note_on_c, 0, 80, 80
1, 91080, Note_on_c, 0, 80, 0
1, 91080, Note_on_c, 0, 73, 75
1, 91200, Note_on_c, 0, 73, 0
1, 91200, Note_on_c, 0, 65, 79
1, 91320, Note_on_c, 0, 65, 0
1, 91320, Note_on_c, 0, 68, 75
1, 91440, Note_on_c, 0, 68, 0
1, 91440, Note_on_c, 0, 61, 78
1, 91560, Note_on_c, 0, 61, 0
1, 91560, Note_on_c, 0, 53, 77
1, 91680, Note_on_c, 0, 53, 0
1, 91680, Note_on_c, 0, 56, 82
1, 91800, Note_on_c, 0, 56, 0
1, 91800, Note_on_c, 0, 49, 79
1, 91920, Note_on_c, 0, 49, 0
1, 91920, Note_on_c, 0, 41, 87
1, 92040, Note_on_c, 0, 41, 0
1, 92040, Note_on_c, 0, 49, 85
1, 92160, Tempo, 389610
1, 92160, Note_on_c, 0, 49, 0
1, 92160, Note_on_c, 0, 25, 86
1, 92160, Note_on_c, 0, 37, 102
1, 92280, Note_on_c, 0, 37, 0
1, 92280, Note_on_c, 0, 25, 0
1, 92880, Note_on_c, 0, 97, 101
1, 92880, Note_on_c, 0, 85, 85
1, 92880, Note_on_c, 0, 61, 86
1, 92880, Note_on_c, 0, 73, 102
1, 93600, Note_on_c, 0, 73, 0
1, 93600, Note_on_c, 0, 97, 0
1, 93600, Note_on_c, 0, 85, 0
1, 93600, Note_on_c, 0, 61, 0
1, 93600, Control_c, 0, 64, 0
1, 95040, Tempo, 447761
1, 95040, Marker_t, "Part 3"
1, 95040, Control_c, 0, 91, 127
1, 95040, Control_c, 0, 91, 127
1, 95520, Note_on_c, 0, 57, 29
1, 95520, Note_on_c, 0, 45, 27
1, 95600, Note_on_c, 0, 45, 0
1, 95600, Note_on_c, 0, 57, 0
1, 95600, Note_on_c, 0, 58, 31
1, 95600, Note_on_c, 0, 46, 28
1, 95680, Note_on_c, 0, 46, 0
1, 95680, Note_on_c, 0, 58, 0
1, 95680, Note_on_c, 0, 61, 33
1, 95680, Note_on_c, 0, 49, 29
1, 95760, Note_on_c, 0, 49, 0
1, 95760, Note_on_c, 0, 61, 0
1, 95760, Note_on_c, 0, 65, 38
1, 95760, Note_on_c, 0, 53, 34
1, 95880, Note_on_c, 0, 53, 0
1, 95880, Note_on_c, 0, 65, 0
1, 96240, Note_on_c, 0, 57, 29
1, 96240, Note_on_c, 0, 45, 26
1, 96320, Note_on_c, 0, 45, 0
1, 96320, Note_on_c, 0, 57, 0
1, 96320, Note_on_c, 0, 58, 31
1, 96320, Note_on_c, 0, 46, 27
1, 96400, Note_on_c, 0, 46, 0
1, 96400, Note_on_c, 0, 58, 0
1, 96400, Note_on_c, 0, 61, 32
1, 96400, Note_on_c, 0, 49, 29
1, 96480, Note_on_c, 0, 49, 0
1, 96480, Note_on_c, 0, 61, 0
1, 96480, Note_on_c, 0, 65, 38
1, 96480, Note_on_c, 0, 53, 34
1, 96600, Note_on_c, 0, 53, 0
1, 96600, Note_on_c, 0, 65, 0
1, 97920, Tempo, 375000
1, 97920, Note_on_c, 0, 58, 100
1, 97920, Note_on_c, 0, 34, 95
1, 97920, Note_on_c, 0, 46, 95
1, 97991, Control_c, 0, 64, 127
1, 98040, Note_on_c, 0, 46, 0
1, 98040, Note_on_c, 0, 34, 0
1, 98040, Note_on_c, 0, 58, 0
1, 98640, Note_on_c, 0, 94, 92
1, 98640, Note_on_c, 0, 90, 92
1, 98640, Note_on_c, 0, 82, 78
1, 98640, Note_on_c, 0, 58, 72
1, 98640, Note_on_c, 0, 60, 72
1, 98640, Note_on_c, 0, 63, 85
1, 98640, Note_on_c, 0, 66, 85
1, 98640, Note_on_c, 0, 70, 85
1, 100080, Note_on_c, 0, 70, 0
1, 100080, Note_on_c, 0, 94, 0
1, 100080, Note_on_c, 0, 60, 0
1, 100080, Note_on_c, 0, 90, 0
1, 100080, Note_on_c, 0, 82, 0
1, 100080, Note_on_c, 0, 58, 0
1, 100080, Note_on_c, 0, 63, 0
1, 100080, Note_on_c, 0, 66, 0
1, 100080, Note_on_c, 0, 75, 51
1, 100080, Note_on_c, 0, 84, 61
1, 100080, Note_on_c, 0, 87, 61
1, 100080, Note_on_c, 0, 58, 47
1, 100080, Note_on_c, 0, 60, 47
1, 100080, Note_on_c, 0, 63, 56
1, 100080, Note_on_c, 0, 66, 56
1, 100080, Note_on_c, 0, 70, 56
1, 100320, Tempo, 398671
1, 100440, Note_on_c, 0, 70, 0
1, 100440, Note_on_c, 0, 75, 0
1, 100440, Note_on_c, 0, 60, 0
1, 100440, Note_on_c, 0, 84, 0
1, 100440, Note_on_c, 0, 87, 0
1, 100440, Note_on_c, 0, 58, 0
1, 100440, Note_on_c, 0, 63, 0
1, 100440, Note_on_c, 0, 66, 0
1, 100440, Note_on_c, 0, 77, 57
1, 100440, Note_on_c, 0, 84, 68
1, 100440, Note_on_c, 0, 89, 68
1, 100440, Note_on_c, 0, 58, 51
1, 100440, Note_on_c, 0, 60, 51
1, 100440, Note_on_c, 0, 63, 61
1, 100440, Note_on_c, 0, 66, 61
1, 100440, Note_on_c, 0, 70, 61
1, 100560, Tempo, 483871
1, 100560, Note_on_c, 0, 70, 0
1, 100560, Note_on_c, 0, 77, 0
1, 100560, Note_on_c, 0, 60, 0
1, 100560, Note_on_c, 0, 84, 0
1, 100560, Note_on_c, 0, 89, 0
1, 100560, Note_on_c, 0, 58, 0
1, 100560, Note_on_c, 0, 63, 0
1, 100560, Note_on_c, 0, 66, 0
1, 100560, Note_on_c, 0, 78, 60
1, 100560, Note_on_c, 0, 84, 71
1, 100560, Note_on_c, 0, 90, 71
1, 100560, Note_on_c, 0, 58, 56
1, 100560, Note_on_c, 0, 60, 56
1, 100560, Note_on_c, 0, 63, 66
1, 100560, Note_on_c, 0, 66, 66
1, 100560, Note_on_c, 0, 70, 66
1, 100800, Tempo, 408163
1, 100800, Note_on_c, 0, 70, 0
1, 100800, Note_on_c, 0, 78, 0
1, 100800, Note_on_c, 0, 60, 0
1, 100800, Note_on_c, 0, 84, 0
1, 100800, Note_on_c, 0, 90, 0
1, 100800, Note_on_c, 0, 58, 0
1, 100800, Note_on_c, 0, 63, 0
1, 100800, Note_on_c, 0, 66, 0
1, 100800, Note_on_c, 0, 77, 57
1, 100800, Note_on_c, 0, 85, 68
1, 100800, Note_on_c, 0, 89, 68
1, 100800, Note_on_c, 0, 58, 52
1, 100800, Note_on_c, 0, 61, 52
1, 100800, Note_on_c, 0, 65, 62
1, 100800, Note_on_c, 0, 70, 62
1, 100808, Control_c, 0, 64, 0
1, 101040, Note_on_c, 0, 70, 0
1, 101040, Note_on_c, 0, 61, 0
1, 101040, Note_on_c, 0, 85, 0
1, 101040, Note_on_c, 0, 89, 0
1, 101040, Note_on_c, 0, 77, 0
1, 101040, Note_on_c, 0, 65, 0
1, 101040, Note_on_c, 0, 58, 0
1, 101280, Note_on_c, 0, 57, 27
1, 101280, Note_on_c, 0, 45, 27
1, 101360, Note_on_c, 0, 45, 0
1, 101360, Note_on_c, 0, 57, 0
1, 101360, Note_on_c, 0, 58, 29
1, 101360, Note_on_c, 0, 46, 28
1, 101440, Note_on_c, 0, 46, 0
1, 101440, Note_on_c, 0, 58, 0
1, 101440, Note_on_c, 0, 61, 30
1, 101440, Note_on_c, 0, 49, 30
1, 101520, Note_on_c, 0, 49, 0
1, 101520, Note_on_c, 0, 61, 0
1, 101520, Note_on_c, 0, 65, 35
1, 101520, Note_on_c, 0, 53, 35
1, 101640, Note_on_c, 0, 53, 0
1, 101640, Note_on_c, 0, 65, 0
1, 102000, Note_on_c, 0, 57, 27
1, 102000, Note_on_c, 0, 45, 26
1, 102080, Note_on_c, 0, 45, 0
1, 102080, Note_on_c, 0, 57, 0
1, 102080, Note_on_c, 0, 58, 29
1, 102080, Note_on_c, 0, 46, 28
1, 102160, Note_on_c, 0, 46, 0
1, 102160, Note_on_c, 0, 58, 0
1, 102160, Note_on_c, 0, 61, 30
1, 102160, Note_on_c, 0, 49, 30
1, 102240, Tempo, 377358
1, 102240, Note_on_c, 0, 49, 0
1, 102240, Note_on_c, 0, 61, 0
1, 102240, Note_on_c, 0, 65, 35
1, 102240, Note_on_c, 0, 53, 34
1, 102360, Note_on_c, 0, 53, 0
1, 102360, Note_on_c, 0, 65, 0
1, 103680, Tempo, 347826
1, 103680, Note_on_c, 0, 56, 100
1, 103680, Note_on_c, 0, 32, 95
1, 103680, Note_on_c, 0, 44, 95
1, 103751, Control_c, 0, 64, 127
1, 103800, Note_on_c, 0, 44, 0
1, 103800, Note_on_c, 0, 32, 0
1, 103800, Note_on_c, 0, 56, 0
1, 104340, Note_on_c, 0, 56, 75
1, 104370, Note_on_c, 0, 65, 89
1, 104400, Note_on_c, 0, 92, 90
1, 104400, Note_on_c, 0, 89, 90
1, 104400, Note_on_c, 0, 80, 76
1, 104400, Note_on_c, 0, 73, 89
1, 105840, Tempo, 444444
1, 105840, Note_on_c, 0, 73, 0
1, 105840, Note_on_c, 0, 65, 0
1, 105840, Note_on_c, 0, 92, 0
1, 105840, Note_on_c, 0, 56, 0
1, 105840, Note_on_c, 0, 80, 0
1, 105840, Note_on_c, 0, 89, 0
1, 105840, Note_on_c, 0, 75, 51
1, 105840, Note_on_c, 0, 84, 60
1, 105840, Note_on_c, 0, 87, 60
1, 105840, Note_on_c, 0, 56, 44
1, 105840, Note_on_c, 0, 63, 52
1, 105840, Note_on_c, 0, 66, 52
1, 105840, Note_on_c, 0, 68, 52
1, 105852, Control_c, 0, 64, 0
1, 105888, Control_c, 0, 64, 127
1, 105984, Note_on_c, 0, 68, 0
1, 105984, Note_on_c, 0, 63, 0
1, 105984, Note_on_c, 0, 84, 0
1, 105984, Note_on_c, 0, 87, 0
1, 105984, Note_on_c, 0, 75, 0
1, 105984, Note_on_c, 0, 66, 0
1, 105984, Note_on_c, 0, 56, 0
1, 105984, Note_on_c, 0, 84, 60
1, 105984, Note_on_c, 0, 76, 51
1, 105984, Note_on_c, 0, 88, 60
1, 105984, Note_on_c, 0, 66, 52
1, 105984, Note_on_c, 0, 63, 52
1, 105984, Note_on_c, 0, 56, 44
1, 105984, Note_on_c, 0, 68, 52
1, 106128, Note_on_c, 0, 68, 0
1, 106128, Note_on_c, 0, 63, 0
1, 106128, Note_on_c, 0, 76, 0
1, 106128, Note_on_c, 0, 88, 0
1, 106128, Note_on_c, 0, 84, 0
1, 106128, Note_on_c, 0, 56, 0
1, 106128, Note_on_c, 0, 66, 0
1, 106128, Note_on_c, 0, 77, 55
1, 106128, Note_on_c, 0, 84, 65
1, 106128, Note_on_c, 0, 89, 65
1, 106128, Note_on_c, 0, 68, 54
1, 106128, Note_on_c, 0, 66, 54
1, 106128, Note_on_c, 0, 63, 54
1, 106128, Note_on_c, 0, 56, 45
1, 106272, Note_on_c, 0, 56, 0
1, 106272, Note_on_c, 0, 66, 0
1, 106272, Note_on_c, 0, 84, 0
1, 106272, Note_on_c, 0, 89, 0
1, 106272, Note_on_c, 0, 77, 0
1, 106272, Note_on_c, 0, 63, 0
1, 106272, Note_on_c, 0, 68, 0
1, 106272, Note_on_c, 0, 80, 61
1, 106272, Note_on_c, 0, 84, 72
1, 106272, Note_on_c, 0, 92, 72
1, 106272, Note_on_c, 0, 68, 61
1, 106272, Note_on_c, 0, 66, 61
1, 106272, Note_on_c, 0, 63, 61
1, 106272, Note_on_c, 0, 56, 51
1, 106320, Tempo, 394737
1, 106416, Note_on_c, 0, 56, 0
1, 106416, Note_on_c, 0, 66, 0
1, 106416, Note_on_c, 0, 84, 0
1, 106416, Note_on_c, 0, 92, 0
1, 106416, Note_on_c, 0, 80, 0
1, 106416, Note_on_c, 0, 63, 0
1, 106416, Note_on_c, 0, 68, 0
1, 106416, Note_on_c, 0, 90, 70
1, 106416, Note_on_c, 0, 84, 70
1, 106416, Note_on_c, 0, 78, 70
1, 106416, Note_on_c, 0, 68, 58
1, 106416, Note_on_c, 0, 66, 58
1, 106416, Note_on_c, 0, 63, 58
1, 106416, Note_on_c, 0, 56, 49
1, 106560, Tempo, 347826
1, 106560, Note_on_c, 0, 56, 0
1, 106560, Note_on_c, 0, 66, 0
1, 106560, Note_on_c, 0, 84, 0
1, 106560, Note_on_c, 0, 78, 0
1, 106560, Note_on_c, 0, 90, 0
1, 106560, Note_on_c, 0, 63, 0
1, 106560, Note_on_c, 0, 68, 0
1, 106560, Note_on_c, 0, 77, 56
1, 106560, Note_on_c, 0, 85, 67
1, 106560, Note_on_c, 0, 89, 67
1, 106560, Note_on_c, 0, 68, 58
1, 106560, Note_on_c, 0, 61, 49
1, 106560, Note_on_c, 0, 65, 58
1, 106575, Control_c, 0, 64, 0
1, 106800, Note_on_c, 0, 65, 0
1, 106800, Note_on_c, 0, 85, 0
1, 106800, Note_on_c, 0, 89, 0
1, 106800, Note_on_c, 0, 77, 0
1, 106800, Note_on_c, 0, 61, 0
1, 106800, Note_on_c, 0, 68, 0
1, 107280, Note_on_c, 0, 69, 81
1, 107280, Note_on_c, 0, 77, 81
1, 107280, Control_c, 0, 64, 127
1, 107280, Note_on_c, 0, 65, 77
1, 107280, Note_on_c, 0, 60, 77
1, 107280, Note_on_c, 0, 53, 77
1, 107760, Note_on_c, 0, 53, 0
1, 107760, Note_on_c, 0, 65, 0
1, 107760, Note_on_c, 0, 69, 0
1, 107760, Note_on_c, 0, 77, 0
1, 107760, Note_on_c, 0, 60, 0
1, 108000, Tempo, 378549
1, 108000, Note_on_c, 0, 57, 81
1, 108000, Note_on_c, 0, 65, 81
1, 108000, Note_on_c, 0, 41, 77
1, 108000, Note_on_c, 0, 48, 77
1, 108000, Note_on_c, 0, 53, 77
1, 108480, Note_on_c, 0, 53, 0
1, 108480, Note_on_c, 0, 41, 0
1, 108480, Note_on_c, 0, 57, 0
1, 108480, Note_on_c, 0, 65, 0
1, 108480, Note_on_c, 0, 48, 0
1, 108480, Control_c, 0, 64, 0
1, 108720, Tempo, 394737
1, 108720, Note_on_c, 0, 29, 79
1, 108720, Note_on_c, 0, 41, 94
1, 110400, Note_on_c, 0, 41, 0
1, 110400, Note_on_c, 0, 29, 0
1, 110400, Note_on_c, 0, 30, 82
1, 110400, Note_on_c, 0, 42, 97
1, 110580, Note_on_c, 0, 42, 0
1, 110580, Note_on_c, 0, 30, 0
1, 112320, Tempo, 413793
1, 112320, Control_c, 0, 91, 127
1, 112320, Control_c, 0, 91, 127
1, 112800, Note_on_c, 0, 57, 27
1, 112800, Note_on_c, 0, 45, 27
1, 112880, Note_on_c, 0, 45, 0
1, 112880, Note_on_c, 0, 57, 0
1, 112880, Note_on_c, 0, 58, 29
1, 112880, Note_on_c, 0, 46, 28
1, 112960, Note_on_c, 0, 46, 0
1, 112960, Note_on_c, 0, 58, 0
1, 112960, Note_on_c, 0, 61, 30
1, 112960, Note_on_c, 0, 49, 29
1, 113040, Note_on_c, 0, 49, 0
1, 113040, Note_on_c, 0, 61, 0
1, 113040, Note_on_c, 0, 65, 35
1, 113040, Note_on_c, 0, 53, 34
1, 113160, Note_on_c, 0, 53, 0
1, 113160, Note_on_c, 0, 65, 0
1, 113520, Note_on_c, 0, 57, 29
1, 113520, Note_on_c, 0, 45, 27
1, 113600, Note_on_c, 0, 45, 0
1, 113600, Note_on_c, 0, 57, 0
1, 113600, Note_on_c, 0, 58, 30
1, 113600, Note_on_c, 0, 46, 28
1, 113680, Note_on_c, 0, 46, 0
1, 113680, Note_on_c, 0, 58, 0
1, 113680, Note_on_c, 0, 61, 31
1, 113680, Note_on_c, 0, 49, 29
1, 113760, Note_on_c, 0, 49, 0
1, 113760, Note_on_c, 0, 61, 0
1, 113760, Note_on_c, 0, 65, 35
1, 113760, Note_on_c, 0, 53, 34
1, 113880, Note_on_c, 0, 53, 0
1, 113880, Note_on_c, 0, 65, 0
1, 115200, Tempo, 375000
1, 115200, Note_on_c, 0, 58, 100
1, 115200, Note_on_c, 0, 46, 95
1, 115200, Note_on_c, 0, 34, 95
1, 115264, Control_c, 0, 64, 127
1, 115320, Note_on_c, 0, 34, 0
1, 115320, Note_on_c, 0, 46, 0
1, 115320, Note_on_c, 0, 58, 0
1, 115920, Note_on_c, 0, 82, 78
1, 115920, Note_on_c, 0, 90, 92
1, 115920, Note_on_c, 0, 94, 92
1, 115920, Note_on_c, 0, 63, 85
1, 115920, Note_on_c, 0, 58, 72
1, 115920, Note_on_c, 0, 60, 72
1, 115920, Note_on_c, 0, 70, 85
1, 115920, Note_on_c, 0, 66, 85
1, 117000, Note_on_c, 0, 66, 0
1, 117000, Note_on_c, 0, 82, 0
1, 117000, Note_on_c, 0, 58, 0
1, 117000, Note_on_c, 0, 90, 0
1, 117000, Note_on_c, 0, 94, 0
1, 117000, Note_on_c, 0, 63, 0
1, 117000, Note_on_c, 0, 60, 0
1, 117000, Note_on_c, 0, 70, 0
1, 117000, Note_on_c, 0, 87, 58
1, 117000, Note_on_c, 0, 84, 58
1, 117000, Note_on_c, 0, 75, 49
1, 117000, Note_on_c, 0, 58, 47
1, 117000, Note_on_c, 0, 60, 47
1, 117000, Note_on_c, 0, 63, 56
1, 117000, Note_on_c, 0, 66, 56
1, 117000, Note_on_c, 0, 70, 56
1, 117120, Note_on_c, 0, 70, 0
1, 117120, Note_on_c, 0, 87, 0
1, 117120, Note_on_c, 0, 60, 0
1, 117120, Note_on_c, 0, 84, 0
1, 117120, Note_on_c, 0, 75, 0
1, 117120, Note_on_c, 0, 58, 0
1, 117120, Note_on_c, 0, 63, 0
1, 117120, Note_on_c, 0, 66, 0
1, 117120, Note_on_c, 0, 87, 58
1, 117120, Note_on_c, 0, 84, 58
1, 117120, Note_on_c, 0, 75, 49
1, 117120, Note_on_c, 0, 58, 47
1, 117120, Note_on_c, 0, 60, 47
1, 117120, Note_on_c, 0, 63, 56
1, 117120, Note_on_c, 0, 66, 56
1, 117120, Note_on_c, 0, 70, 56
1, 117360, Note_on_c, 0, 70, 0
1, 117360, Note_on_c, 0, 87, 0
1, 117360, Note_on_c, 0, 60, 0
1, 117360, Note_on_c, 0, 84, 0
1, 117360, Note_on_c, 0, 75, 0
1, 117360, Note_on_c, 0, 58, 0
1, 117360, Note_on_c, 0, 63, 0
1, 117360, Note_on_c, 0, 66, 0
1, 117360, Note_on_c, 0, 75, 51
1, 117360, Note_on_c, 0, 84, 61
1, 117360, Note_on_c, 0, 87, 61
1, 117360, Note_on_c, 0, 63, 56
1, 117360, Note_on_c, 0, 58, 47
1, 117360, Note_on_c, 0, 60, 47
1, 117360, Note_on_c, 0, 66, 56
1, 117360, Note_on_c, 0, 70, 56
1, 117720, Note_on_c, 0, 70, 0
1, 117720, Note_on_c, 0, 75, 0
1, 117720, Note_on_c, 0, 58, 0
1, 117720, Note_on_c, 0, 84, 0
1, 117720, Note_on_c, 0, 87, 0
1, 117720, Note_on_c, 0, 63, 0
1, 117720, Note_on_c, 0, 60, 0
1, 117720, Note_on_c, 0, 66, 0
1, 117720, Note_on_c, 0, 84, 68
1, 117720, Note_on_c, 0, 89, 68
1, 117720, Note_on_c, 0, 77, 57
1, 117720, Note_on_c, 0, 60, 51
1, 117720, Note_on_c, 0, 63, 61
1, 117720, Note_on_c, 0, 58, 51
1, 117720, Note_on_c, 0, 66, 61
1, 117720, Note_on_c, 0, 70, 61
1, 117840, Tempo, 466926
1, 117840, Note_on_c, 0, 70, 0
1, 117840, Note_on_c, 0, 84, 0
1, 117840, Note_on_c, 0, 63, 0
1, 117840, Note_on_c, 0, 89, 0
1, 117840, Note_on_c, 0, 77, 0
1, 117840, Note_on_c, 0, 60, 0
1, 117840, Note_on_c, 0, 58, 0
1, 117840, Note_on_c, 0, 66, 0
1, 117840, Note_on_c, 0, 84, 71
1, 117840, Note_on_c, 0, 78, 60
1, 117840, Note_on_c, 0, 90, 71
1, 117840, Note_on_c, 0, 63, 66
1, 117840, Note_on_c, 0, 66, 66
1, 117840, Note_on_c, 0, 58, 56
1, 117840, Note_on_c, 0, 60, 56
1, 117840, Note_on_c, 0, 70, 66
1, 118080, Tempo, 408163
1, 118080, Note_on_c, 0, 70, 0
1, 118080, Note_on_c, 0, 84, 0
1, 118080, Note_on_c, 0, 66, 0
1, 118080, Note_on_c, 0, 78, 0
1, 118080, Note_on_c, 0, 90, 0
1, 118080, Note_on_c, 0, 63, 0
1, 118080, Note_on_c, 0, 58, 0
1, 118080, Note_on_c, 0, 60, 0
1, 118080, Note_on_c, 0, 85, 68
1, 118080, Note_on_c, 0, 77, 57
1, 118080, Note_on_c, 0, 89, 68
1, 118080, Note_on_c, 0, 65, 62
1, 118080, Note_on_c, 0, 58, 52
1, 118080, Note_on_c, 0, 61, 52
1, 118080, Note_on_c, 0, 70, 62
1, 118091, Control_c, 0, 64, 0
1, 118320, Note_on_c, 0, 70, 0
1, 118320, Note_on_c, 0, 58, 0
1, 118320, Note_on_c, 0, 77, 0
1, 118320, Note_on_c, 0, 89, 0
1, 118320, Note_on_c, 0, 85, 0
1, 118320, Note_on_c, 0, 61, 0
1, 118320, Note_on_c, 0, 65, 0
1, 118560, Note_on_c, 0, 57, 29
1, 118560, Note_on_c, 0, 45, 27
1, 118640, Note_on_c, 0, 45, 0
1, 118640, Note_on_c, 0, 57, 0
1, 118640, Note_on_c, 0, 58, 30
1, 118640, Note_on_c, 0, 46, 29
1, 118720, Note_on_c, 0, 46, 0
1, 118720, Note_on_c, 0, 58, 0
1, 118720, Note_on_c, 0, 61, 32
1, 118720, Note_on_c, 0, 49, 30
1, 118800, Note_on_c, 0, 49, 0
1, 118800, Note_on_c, 0, 61, 0
1, 118800, Note_on_c, 0, 65, 37
1, 118800, Note_on_c, 0, 53, 35
1, 118920, Note_on_c, 0, 53, 0
1, 118920, Note_on_c, 0, 65, 0
1, 119280, Note_on_c, 0, 57, 29
1, 119280, Note_on_c, 0, 45, 24
1, 119360, Note_on_c, 0, 45, 0
1, 119360, Note_on_c, 0, 57, 0
1, 119360, Note_on_c, 0, 58, 30
1, 119360, Note_on_c, 0, 46, 26
1, 119440, Note_on_c, 0, 46, 0
1, 119440, Note_on_c, 0, 58, 0
1, 119440, Note_on_c, 0, 61, 32
1, 119440, Note_on_c, 0, 49, 27
1, 119520, Tempo, 377358
1, 119520, Note_on_c, 0, 49, 0
1, 119520, Note_on_c, 0, 61, 0
1, 119520, Note_on_c, 0, 65, 37
1, 119520, Note_on_c, 0, 53, 34
1, 119640, Note_on_c, 0, 53, 0
1, 119640, Note_on_c, 0, 65, 0
1, 120240, Tempo, 334262
1, 120960, Note_on_c, 0, 48, 100
1, 120960, Note_on_c, 0, 24, 95
1, 120960, Note_on_c, 0, 36, 95
1, 121045, Control_c, 0, 64, 127
1, 121080, Note_on_c, 0, 36, 0
1, 121080, Note_on_c, 0, 24, 0
1, 121080, Note_on_c, 0, 48, 0
1, 121680, Note_on_c, 0, 84, 76
1, 121680, Note_on_c, 0, 92, 90
1, 121680, Note_on_c, 0, 96, 90
1, 121680, Note_on_c, 0, 68, 89
1, 121680, Note_on_c, 0, 72, 89
1, 121680, Note_on_c, 0, 65, 89
1, 121680, Note_on_c, 0, 60, 75
1, 123120, Tempo, 491803
1, 123120, Note_on_c, 0, 60, 0
1, 123120, Note_on_c, 0, 72, 0
1, 123120, Note_on_c, 0, 92, 0
1, 123120, Note_on_c, 0, 96, 0
1, 123120, Note_on_c, 0, 84, 0
1, 123120, Note_on_c, 0, 65, 0
1, 123120, Note_on_c, 0, 68, 0
1, 123120, Note_on_c, 0, 91, 73
1, 123120, Note_on_c, 0, 97, 73
1, 123120, Note_on_c, 0, 85, 62
1, 123120, Note_on_c, 0, 60, 58
1, 123120, Note_on_c, 0, 70, 69
1, 123120, Note_on_c, 0, 64, 69
1, 123120, Note_on_c, 0, 72, 69
1, 123130, Control_c, 0, 64, 0
1, 123174, Control_c, 0, 64, 127
1, 123300, Note_on_c, 0, 72, 0
1, 123300, Note_on_c, 0, 70, 0
1, 123300, Note_on_c, 0, 97, 0
1, 123300, Note_on_c, 0, 85, 0
1, 123300, Note_on_c, 0, 91, 0
1, 123300, Note_on_c, 0, 64, 0
1, 123300, Note_on_c, 0, 60, 0
1, 123300, Note_on_c, 0, 84, 60
1, 123300, Note_on_c, 0, 91, 71
1, 123300, Note_on_c, 0, 96, 71
1, 123300, Note_on_c, 0, 60, 53
1, 123300, Note_on_c, 0, 64, 63
1, 123300, Note_on_c, 0, 70, 63
1, 123300, Note_on_c, 0, 72, 63
1, 123480, Tempo, 400000
1, 123480, Note_on_c, 0, 72, 0
1, 123480, Note_on_c, 0, 64, 0
1, 123480, Note_on_c, 0, 91, 0
1, 123480, Note_on_c, 0, 96, 0
1, 123480, Note_on_c, 0, 84, 0
1, 123480, Note_on_c, 0, 70, 0
1, 123480, Note_on_c, 0, 60, 0
1, 123480, Note_on_c, 0, 89, 67
1, 123480, Note_on_c, 0, 77, 56
1, 123480, Note_on_c, 0, 84, 67
1, 123480, Note_on_c, 0, 64, 61
1, 123480, Note_on_c, 0, 60, 51
1, 123480, Note_on_c, 0, 72, 61
1, 123480, Note_on_c, 0, 70, 61
1, 123660, Note_on_c, 0, 70, 0
1, 123660, Note_on_c, 0, 60, 0
1, 123660, Note_on_c, 0, 77, 0
1, 123660, Note_on_c, 0, 84, 0
1, 123660, Note_on_c, 0, 89, 0
1, 123660, Note_on_c, 0, 72, 0
1, 123660, Note_on_c, 0, 64, 0
1, 123660, Note_on_c, 0, 91, 68
1, 123660, Note_on_c, 0, 84, 68
1, 123660, Note_on_c, 0, 79, 57
1, 123660, Note_on_c, 0, 72, 62
1, 123660, Note_on_c, 0, 64, 62
1, 123660, Note_on_c, 0, 60, 52
1, 123660, Note_on_c, 0, 70, 62
1, 123840, Tempo, 347826
1, 123840, Note_on_c, 0, 70, 0
1, 123840, Note_on_c, 0, 64, 0
1, 123840, Note_on_c, 0, 84, 0
1, 123840, Note_on_c, 0, 79, 0
1, 123840, Note_on_c, 0, 91, 0
1, 123840, Note_on_c, 0, 60, 0
1, 123840, Note_on_c, 0, 72, 0
1, 123840, Note_on_c, 0, 92, 73
1, 123840, Note_on_c, 0, 84, 73
1, 123840, Note_on_c, 0, 80, 62
1, 123840, Note_on_c, 0, 72, 68
1, 123840, Note_on_c, 0, 65, 68
1, 123840, Note_on_c, 0, 68, 68
1, 123853, Control_c, 0, 64, 0
1, 124080, Note_on_c, 0, 68, 0
1, 124080, Note_on_c, 0, 84, 0
1, 124080, Note_on_c, 0, 80, 0
1, 124080, Note_on_c, 0, 92, 0
1, 124080, Note_on_c, 0, 65, 0
1, 124080, Note_on_c, 0, 72, 0
1, 124560, Tempo, 362538
1, 124560, Note_on_c, 0, 72, 81
1, 124560, Note_on_c, 0, 80, 81
1, 124560, Note_on_c, 0, 68, 68
1, 124560, Note_on_c, 0, 77, 81
1, 124560, Note_on_c, 0, 53, 65
1, 124560, Note_on_c, 0, 65, 77
1, 124560, Control_c, 0, 64, 127
1, 124560, Note_on_c, 0, 60, 77
1, 125040, Note_on_c, 0, 60, 0
1, 125040, Note_on_c, 0, 53, 0
1, 125040, Note_on_c, 0, 80, 0
1, 125040, Note_on_c, 0, 68, 0
1, 125040, Note_on_c, 0, 72, 0
1, 125040, Note_on_c, 0, 65, 0
1, 125040, Note_on_c, 0, 77, 0
1, 125280, Tempo, 422535
1, 125280, Note_on_c, 0, 60, 81
1, 125280, Note_on_c, 0, 68, 81
1, 125280, Note_on_c, 0, 56, 68
1, 125280, Note_on_c, 0, 65, 81
1, 125280, Note_on_c, 0, 53, 77
1, 125280, Note_on_c, 0, 48, 77
1, 125280, Note_on_c, 0, 41, 65
1, 125760, Note_on_c, 0, 41, 0
1, 125760, Note_on_c, 0, 53, 0
1, 125760, Note_on_c, 0, 68, 0
1, 125760, Note_on_c, 0, 56, 0
1, 125760, Note_on_c, 0, 60, 0
1, 125760, Note_on_c, 0, 48, 0
1, 125760, Note_on_c, 0, 65, 0
1, 125760, Control_c, 0, 64, 0
1, 126000, Tempo, 394737
1, 126000, Note_on_c, 0, 28, 79
1, 126000, Note_on_c, 0, 40, 94
1, 127440, Tempo, 502092
1, 127440, Note_on_c, 0, 40, 0
1, 127440, Note_on_c, 0, 28, 0
1, 127440, Note_on_c, 0, 41, 94
1, 127440, Note_on_c, 0, 29, 94
1, 128160, Tempo, 540541
1, 128160, Note_on_c, 0, 29, 0
1, 128160, Note_on_c, 0, 41, 0
1, 128160, Note_on_c, 0, 38, 50
1, 128160, Note_on_c, 0, 26, 45
1, 128190, Tempo, 538117
1, 128205, Tempo, 535714
1, 128220, Tempo, 533333
1, 128235, Tempo, 530973
1, 128240, Note_on_c, 0, 39, 51
1, 128240, Note_on_c, 0, 27, 45
1, 128250, Tempo, 528634
1, 128250, Note_on_c, 0, 26, 0
1, 128250, Note_on_c, 0, 38, 0
1, 128265, Tempo, 526316
1, 128280, Tempo, 524017
1, 128295, Tempo, 521739
1, 128310, Tempo, 519481
1, 128320, Note_on_c, 0, 41, 51
1, 128320, Note_on_c, 0, 29, 45
1, 128325, Tempo, 517241
1, 128330, Note_on_c, 0, 39, 0
1, 128330, Note_on_c, 0, 27, 0
1, 128340, Tempo, 515021
1, 128355, Tempo, 512821
1, 128370, Tempo, 510638
1, 128385, Tempo, 508475
1, 128400, Tempo, 504202
1, 128400, Note_on_c, 0, 39, 52
1, 128400, Note_on_c, 0, 27, 46
1, 128410, Note_on_c, 0, 41, 0
1, 128410, Note_on_c, 0, 29, 0
1, 128430, Tempo, 502092
1, 128445, Tempo, 500000
1, 128460, Tempo, 497925
1, 128475, Tempo, 495868
1, 128480, Note_on_c, 0, 41, 53
1, 128480, Note_on_c, 0, 29, 47
1, 128490, Tempo, 493827
1, 128490, Note_on_c, 0, 39, 0
1, 128490, Note_on_c, 0, 27, 0
1, 128505, Tempo, 491803
1, 128520, Tempo, 489796
1, 128535, Tempo, 487805
1, 128550, Tempo, 485830
1, 128560, Note_on_c, 0, 39, 55
1, 128560, Note_on_c, 0, 27, 49
1, 128565, Tempo, 483871
1, 128570, Note_on_c, 0, 41, 0
1, 128570, Note_on_c, 0, 29, 0
1, 128580, Tempo, 481928
1, 128610, Tempo, 483871
1, 128640, Tempo, 485830
1, 128640, Note_on_c, 0, 41, 56
1, 128640, Note_on_c, 0, 29, 50
1, 128650, Note_on_c, 0, 39, 0
1, 128650, Note_on_c, 0, 27, 0
1, 128670, Tempo, 487805
1, 128700, Tempo, 489796
1, 128720, Note_on_c, 0, 39, 56
1, 128720, Note_on_c, 0, 27, 51
1, 128730, Tempo, 491803
1, 128730, Note_on_c, 0, 41, 0
1, 128730, Note_on_c, 0, 29, 0
1, 128745, Tempo, 489796
1, 128775, Tempo, 491803
1, 128800, Note_on_c, 0, 41, 57
1, 128800, Note_on_c, 0, 29, 51
1, 128805, Tempo, 493827
1, 128810, Note_on_c, 0, 39, 0
1, 128810, Note_on_c, 0, 27, 0
1, 128835, Tempo, 495868
1, 128865, Tempo, 497925
1, 128880, Note_on_c, 0, 39, 58
1, 128880, Note_on_c, 0, 27, 52
1, 128890, Note_on_c, 0, 41, 0
1, 128890, Note_on_c, 0, 29, 0
1, 128940, Note_on_c, 0, 41, 59
1, 128940, Note_on_c, 0, 29, 53
1, 128950, Note_on_c, 0, 39, 0
1, 128950, Note_on_c, 0, 27, 0
1, 129000, Note_on_c, 0, 39, 60
1, 129000, Note_on_c, 0, 27, 53
1, 129010, Note_on_c, 0, 41, 0
1, 129010, Note_on_c, 0, 29, 0
1, 129060, Note_on_c, 0, 41, 61
1, 129060, Note_on_c, 0, 29, 54
1, 129070, Note_on_c, 0, 39, 0
1, 129070, Note_on_c, 0, 27, 0
1, 129120, Tempo, 502092
1, 129120, Note_on_c, 0, 41, 0
1, 129120, Note_on_c, 0, 29, 0
1, 129120, Note_on_c, 0, 39, 62
1, 129120, Note_on_c, 0, 27, 55
1, 129140, Tempo, 506329
1, 129160, Tempo, 512821
1, 129180, Tempo, 519481
1, 129180, Note_on_c, 0, 27, 0
1, 129180, Note_on_c, 0, 39, 0
1, 129180, Note_on_c, 0, 41, 62
1, 129180, Note_on_c, 0, 29, 55
1, 129200, Tempo, 526316
1, 129220, Tempo, 533333
1, 129240, Tempo, 538117
1, 129240, Note_on_c, 0, 29, 0
1, 129240, Note_on_c, 0, 41, 0
1, 129240, Note_on_c, 0, 39, 62
1, 129240, Note_on_c, 0, 27, 56
1, 129260, Tempo, 545455
1, 129280, Tempo, 552995
1, 129300, Tempo, 560748
1, 129300, Note_on_c, 0, 27, 0
1, 129300, Note_on_c, 0, 39, 0
1, 129300, Note_on_c, 0, 41, 63
1, 129300, Note_on_c, 0, 29, 56
1, 129320, Tempo, 568720
1, 129340, Tempo, 574163
1, 129360, Tempo, 582524
1, 129360, Note_on_c, 0, 29, 0
1, 129360, Note_on_c, 0, 41, 0
1, 129360, Note_on_c, 0, 39, 64
1, 129360, Note_on_c, 0, 27, 59
1, 129380, Tempo, 591133
1, 129400, Tempo, 600000
1, 129420, Tempo, 609137
1, 129440, Tempo, 1188119
1, 129440, Note_on_c, 0, 38, 73
1, 129440, Note_on_c, 0, 26, 73
1, 129450, Note_on_c, 0, 27, 0
1, 129450, Note_on_c, 0, 39, 0
1, 129520, Note_on_c, 0, 39, 73
1, 129520, Note_on_c, 0, 27, 73
1, 129530, Note_on_c, 0, 38, 0
1, 129530, Note_on_c, 0, 26, 0
1, 129600, Tempo, 506329
1, 129600, Note_on_c, 0, 101, 97
1, 129600, Control_c, 0, 91, 127
1, 129600, Control_c, 0, 91, 127
1, 129600, Note_on_c, 0, 25, 74
1, 129600, Note_on_c, 0, 37, 88
1, 129610, Note_on_c, 0, 39, 0
1, 129610, Note_on_c, 0, 27, 0
1, 129720, Note_on_c, 0, 25, 0
1, 129720, Note_on_c, 0, 37, 0
1, 129727, Control_c, 0, 64, 127
1, 130080, Tempo, 451128
1, 130080, Note_on_c, 0, 44, 45
1, 130080, Note_on_c, 0, 56, 45
1, 130320, Note_on_c, 0, 56, 0
1, 130320, Note_on_c, 0, 44, 0
1, 130320, Note_on_c, 0, 61, 53
1, 130320, Note_on_c, 0, 53, 53
1, 130560, Tempo, 353982
1, 130560, Note_on_c, 0, 53, 0
1, 130560, Note_on_c, 0, 61, 0
1, 130560, Note_on_c, 0, 101, 0
1, 130560, Note_on_c, 0, 99, 68
1, 130680, Note_on_c, 0, 99, 0
1, 130680, Note_on_c, 0, 97, 61
1, 130800, Note_on_c, 0, 97, 0
1, 130800, Note_on_c, 0, 92, 65
1, 130800, Note_on_c, 0, 44, 42
1, 130800, Note_on_c, 0, 56, 42
1, 130920, Note_on_c, 0, 92, 0
1, 130920, Note_on_c, 0, 89, 59
1, 131040, Note_on_c, 0, 89, 0
1, 131040, Note_on_c, 0, 56, 0
1, 131040, Note_on_c, 0, 44, 0
1, 131040, Note_on_c, 0, 87, 62
1, 131040, Note_on_c, 0, 53, 47
1, 131040, Note_on_c, 0, 61, 47
1, 131160, Note_on_c, 0, 87, 0
1, 131160, Note_on_c, 0, 85, 56
1, 131280, Note_on_c, 0, 85, 0
1, 131280, Note_on_c, 0, 61, 0
1, 131280, Note_on_c, 0, 53, 0
1, 131280, Note_on_c, 0, 80, 58
1, 131400, Note_on_c, 0, 80, 0
1, 131400, Note_on_c, 0, 77, 53
1, 131520, Note_on_c, 0, 77, 0
1, 131520, Note_on_c, 0, 75, 55
1, 131640, Note_on_c, 0, 75, 0
1, 131640, Note_on_c, 0, 73, 50
1, 131760, Note_on_c, 0, 73, 0
1, 131760, Note_on_c, 0, 68, 52
1, 131769, Control_c, 0, 64, 0
1, 132000, Note_on_c, 0, 68, 0
1, 132480, Tempo, 355030
1, 132480, Note_on_c, 0, 72, 55
1, 132480, Control_c, 0, 64, 127
1, 132480, Note_on_c, 0, 32, 52
1, 132480, Note_on_c, 0, 44, 52
1, 132560, Tempo, 356083
1, 132600, Note_on_c, 0, 44, 0
1, 132600, Note_on_c, 0, 32, 0
1, 132600, Note_on_c, 0, 72, 0
1, 132600, Note_on_c, 0, 73, 52
1, 132640, Tempo, 357143
1, 132720, Tempo, 358209
1, 132720, Note_on_c, 0, 73, 0
1, 132720, Note_on_c, 0, 75, 50
1, 132800, Tempo, 359281
1, 132840, Note_on_c, 0, 75, 0
1, 132840, Note_on_c, 0, 77, 47
1, 132880, Tempo, 360360
1, 132960, Tempo, 361446
1, 132960, Note_on_c, 0, 77, 0
1, 132960, Note_on_c, 0, 78, 45
1, 133040, Tempo, 362538
1, 133073, Note_on_c, 0, 80, 42
1, 133080, Note_on_c, 0, 78, 0
1, 133120, Tempo, 363636
1, 133188, Tempo, 364742
1, 133193, Note_on_c, 0, 80, 0
1, 133200, Tempo, 436364
1, 133200, Note_on_c, 0, 81, 40
1, 133200, Note_on_c, 0, 66, 38
1, 133200, Note_on_c, 0, 55, 38
1, 133200, Note_on_c, 0, 60, 38
1, 133209, Control_c, 0, 64, 0
1, 133320, Note_on_c, 0, 81, 0
1, 133440, Tempo, 394737
1, 133440, Note_on_c, 0, 66, 0
1, 133440, Note_on_c, 0, 55, 0
1, 133440, Note_on_c, 0, 60, 0
1, 133440, Note_on_c, 0, 56, 35
1, 133440, Note_on_c, 0, 60, 35
1, 133440, Note_on_c, 0, 66, 35
1, 133680, Note_on_c, 0, 66, 0
1, 133680, Note_on_c, 0, 60, 0
1, 133680, Note_on_c, 0, 56, 0
1, 133680, Note_on_c, 0, 66, 31
1, 133680, Note_on_c, 0, 56, 31
1, 133680, Note_on_c, 0, 60, 31
1, 133800, Note_on_c, 0, 60, 0
1, 133800, Note_on_c, 0, 56, 0
1, 133800, Note_on_c, 0, 66, 0
1, 133920, Tempo, 361446
1, 133920, Note_on_c, 0, 81, 50
1, 134000, Tempo, 360360
1, 134040, Note_on_c, 0, 81, 0
1, 134040, Note_on_c, 0, 80, 49
1, 134080, Tempo, 359281
1, 134160, Tempo, 358209
1, 134160, Note_on_c, 0, 80, 0
1, 134160, Note_on_c, 0, 79, 47
1, 134240, Tempo, 357143
1, 134280, Note_on_c, 0, 79, 0
1, 134280, Note_on_c, 0, 78, 46
1, 134320, Tempo, 356083
1, 134400, Tempo, 355030
1, 134400, Note_on_c, 0, 78, 0
1, 134400, Note_on_c, 0, 77, 44
1, 134480, Tempo, 353982
1, 134520, Note_on_c, 0, 77, 0
1, 134520, Note_on_c, 0, 76, 42
1, 134560, Tempo, 352941
1, 134628, Tempo, 351906
1, 134640, Tempo, 430108
1, 134640, Note_on_c, 0, 76, 0
1, 134640, Note_on_c, 0, 75, 41
1, 134640, Note_on_c, 0, 57, 35
1, 134640, Note_on_c, 0, 60, 35
1, 134640, Note_on_c, 0, 66, 35
1, 134760, Note_on_c, 0, 75, 0
1, 134880, Tempo, 394737
1, 134880, Note_on_c, 0, 57, 0
1, 134880, Note_on_c, 0, 60, 0
1, 134880, Note_on_c, 0, 66, 0
1, 134880, Note_on_c, 0, 66, 32
1, 134880, Note_on_c, 0, 60, 32
1, 134880, Note_on_c, 0, 56, 32
1, 135120, Note_on_c, 0, 56, 0
1, 135120, Note_on_c, 0, 60, 0
1, 135120, Note_on_c, 0, 66, 0
1, 135120, Note_on_c, 0, 66, 28
1, 135120, Note_on_c, 0, 60, 28
1, 135120, Note_on_c, 0, 56, 28
1, 135240, Note_on_c, 0, 56, 0
1, 135240, Note_on_c, 0, 60, 0
1, 135240, Note_on_c, 0, 66, 0
1, 135360, Tempo, 451128
1, 135360, Note_on_c, 0, 101, 97
1, 135360, Note_on_c, 0, 25, 74
1, 135360, Note_on_c, 0, 37, 88
1, 135417, Control_c, 0, 64, 127
1, 135480, Note_on_c, 0, 37, 0
1, 135480, Note_on_c, 0, 25, 0
1, 135840, Tempo, 421053
1, 135840, Note_on_c, 0, 44, 45
1, 135840, Note_on_c, 0, 56, 45
1, 136080, Note_on_c, 0, 56, 0
1, 136080, Note_on_c, 0, 44, 0
1, 136080, Note_on_c, 0, 61, 53
1, 136080, Note_on_c, 0, 53, 53
1, 136320, Tempo, 346821
1, 136320, Note_on_c, 0, 53, 0
1, 136320, Note_on_c, 0, 61, 0
1, 136320, Note_on_c, 0, 101, 0
1, 136320, Note_on_c, 0, 99, 68
1, 136440, Note_on_c, 0, 99, 0
1, 136440, Note_on_c, 0, 97, 61
1, 136560, Note_on_c, 0, 97, 0
1, 136560, Note_on_c, 0, 92, 65
1, 136560, Note_on_c, 0, 44, 42
1, 136560, Note_on_c, 0, 56, 42
1, 136680, Note_on_c, 0, 92, 0
1, 136680, Note_on_c, 0, 89, 59
1, 136800, Note_on_c, 0, 89, 0
1, 136800, Note_on_c, 0, 56, 0
1, 136800, Note_on_c, 0, 44, 0
1, 136800, Note_on_c, 0, 87, 62
1, 136800, Note_on_c, 0, 53, 47
1, 136800, Note_on_c, 0, 61, 47
1, 136920, Note_on_c, 0, 87, 0
1, 136920, Note_on_c, 0, 85, 57
1, 137040, Note_on_c, 0, 85, 0
1, 137040, Note_on_c, 0, 61, 0
1, 137040, Note_on_c, 0, 53, 0
1, 137040, Note_on_c, 0, 80, 58
1, 137160, Note_on_c, 0, 80, 0
1, 137160, Note_on_c, 0, 77, 53
1, 137280, Note_on_c, 0, 77, 0
1, 137280, Note_on_c, 0, 75, 55
1, 137400, Note_on_c, 0, 75, 0
1, 137400, Note_on_c, 0, 73, 51
1, 137520, Tempo, 345821
1, 137520, Note_on_c, 0, 73, 0
1, 137520, Note_on_c, 0, 68, 52
1, 137531, Control_c, 0, 64, 0
1, 137760, Note_on_c, 0, 68, 0
1, 138240, Tempo, 353982
1, 138240, Note_on_c, 0, 72, 42
1, 138240, Note_on_c, 0, 44, 25
1, 138240, Note_on_c, 0, 51, 25
1, 138240, Note_on_c, 0, 54, 25
1, 138248, Tempo, 352941
1, 138348, Tempo, 353982
1, 138360, Note_on_c, 0, 72, 0
1, 138360, Note_on_c, 0, 73, 41
1, 138448, Tempo, 355030
1, 138480, Note_on_c, 0, 73, 0
1, 138480, Note_on_c, 0, 75, 41
1, 138548, Tempo, 356083
1, 138600, Note_on_c, 0, 75, 0
1, 138600, Note_on_c, 0, 77, 40
1, 138648, Tempo, 357143
1, 138720, Note_on_c, 0, 77, 0
1, 138720, Note_on_c, 0, 78, 39
1, 138748, Tempo, 358209
1, 138833, Note_on_c, 0, 80, 38
1, 138840, Note_on_c, 0, 78, 0
1, 138848, Tempo, 359281
1, 138948, Tempo, 360360
1, 138953, Note_on_c, 0, 80, 0
1, 138960, Tempo, 359281
1, 138960, Note_on_c, 0, 44, 0
1, 138960, Note_on_c, 0, 51, 0
1, 138960, Note_on_c, 0, 54, 0
1, 138960, Note_on_c, 0, 81, 37
1, 138960, Note_on_c, 0, 60, 32
1, 139080, Note_on_c, 0, 60, 0
1, 139080, Note_on_c, 0, 81, 0
1, 139080, Note_on_c, 0, 61, 32
1, 139200, Note_on_c, 0, 61, 0
1, 139200, Note_on_c, 0, 63, 32
1, 139320, Note_on_c, 0, 63, 0
1, 139320, Note_on_c, 0, 65, 32
1, 139440, Note_on_c, 0, 65, 0
1, 139440, Note_on_c, 0, 66, 32
1, 139560, Note_on_c, 0, 66, 0
1, 139560, Note_on_c, 0, 68, 32
1, 139680, Tempo, 352941
1, 139680, Note_on_c, 0, 68, 0
1, 139680, Note_on_c, 0, 81, 42
1, 139680, Note_on_c, 0, 69, 32
1, 139800, Note_on_c, 0, 69, 0
1, 139800, Note_on_c, 0, 81, 0
1, 139800, Note_on_c, 0, 80, 41
1, 139920, Note_on_c, 0, 80, 0
1, 139920, Note_on_c, 0, 79, 40
1, 140040, Note_on_c, 0, 79, 0
1, 140040, Note_on_c, 0, 78, 39
1, 140160, Note_on_c, 0, 78, 0
1, 140160, Note_on_c, 0, 77, 37
1, 140280, Note_on_c, 0, 77, 0
1, 140280, Note_on_c, 0, 76, 36
1, 140400, Tempo, 371517
1, 140400, Note_on_c, 0, 76, 0
1, 140400, Note_on_c, 0, 75, 35
1, 140400, Note_on_c, 0, 57, 30
1, 140408, Tempo, 372671
1, 140428, Tempo, 373832
1, 140440, Tempo, 375000
1, 140460, Tempo, 376176
1, 140468, Tempo, 377358
1, 140480, Tempo, 378549
1, 140500, Tempo, 379747
1, 140508, Tempo, 380952
1, 140520, Note_on_c, 0, 57, 0
1, 140520, Note_on_c, 0, 56, 29
1, 140528, Tempo, 382166
1, 140540, Tempo, 383387
1, 140548, Tempo, 384615
1, 140568, Tempo, 385852
1, 140580, Tempo, 387097
1, 140600, Tempo, 388350
1, 140608, Tempo, 389610
1, 140620, Tempo, 390879
1, 140640, Tempo, 392157
1, 140640, Note_on_c, 0, 56, 0
1, 140640, Note_on_c, 0, 75, 0
1, 140640, Note_on_c, 0, 55, 28
1, 140648, Tempo, 393443
1, 140668, Tempo, 394737
1, 140680, Tempo, 396040
1, 140688, Tempo, 397351
1, 140708, Tempo, 398671
1, 140720, Tempo, 400000
1, 140740, Tempo, 401338
1, 140748, Tempo, 402685
1, 140760, Tempo, 404040
1, 140760, Note_on_c, 0, 55, 0
1, 140760, Note_on_c, 0, 54, 27
1, 140780, Tempo, 405405
1, 140788, Tempo, 406780
1, 140800, Tempo, 408163
1, 140820, Tempo, 409556
1, 140828, Tempo, 410959
1, 140848, Tempo, 412371
1, 140860, Tempo, 413793
1, 140868, Tempo, 415225
1, 140880, Note_on_c, 0, 54, 0
1, 140880, Note_on_c, 0, 53, 26
1, 140888, Tempo, 416667
1, 140900, Tempo, 418118
1, 140920, Tempo, 419580
1, 140928, Tempo, 421053
1, 140940, Tempo, 422535
1, 140960, Tempo, 424028
1, 140968, Tempo, 425532
1, 140988, Tempo, 427046
1, 141000, Tempo, 428571
1, 141000, Note_on_c, 0, 53, 0
1, 141000, Note_on_c, 0, 51, 25
1, 141008, Tempo, 430108
1, 141028, Tempo, 431655
1, 141040, Tempo, 433213
1, 141060, Tempo, 434783
1, 141068, Tempo, 436364
1, 141080, Tempo, 437956
1, 141100, Tempo, 439560
1, 141108, Tempo, 441176
1, 141120, Tempo, 465116
1, 141120, Marker_t, "Part 4"
1, 141120, Note_on_c, 0, 51, 0
1, 141120, Note_on_c, 0, 71, 40
1, 141120, Control_c, 0, 91, 127
1, 141120, Note_on_c, 0, 77, 59
1, 141120, Note_on_c, 0, 49, 27
1, 141120, Control_c, 0, 91, 127
1, 141177, Control_c, 0, 64, 127
1, 141240, Note_on_c, 0, 49, 0
1, 141240, Note_on_c, 0, 56, 28
1, 141360, Note_on_c, 0, 56, 0
1, 141360, Note_on_c, 0, 61, 30
1, 141480, Note_on_c, 0, 61, 0
1, 141480, Note_on_c, 0, 65, 34
1, 141600, Note_on_c, 0, 65, 0
1, 141600, Note_on_c, 0, 61, 31
1, 141720, Note_on_c, 0, 61, 0
1, 141720, Note_on_c, 0, 56, 30
1, 141840, Note_on_c, 0, 56, 0
1, 141840, Note_on_c, 0, 49, 29
1, 141851, Control_c, 0, 64, 0
1, 141909, Control_c, 0, 64, 127
1, 141960, Note_on_c, 0, 49, 0
1, 141960, Note_on_c, 0, 59, 28
1, 142080, Tempo, 463320
1, 142080, Note_on_c, 0, 59, 0
1, 142080, Note_on_c, 0, 77, 0
1, 142080, Note_on_c, 0, 75, 53
1, 142080, Note_on_c, 0, 61, 30
1, 142120, Tempo, 465116
1, 142148, Tempo, 466926
1, 142188, Tempo, 468750
1, 142200, Note_on_c, 0, 61, 0
1, 142200, Note_on_c, 0, 65, 31
1, 142220, Tempo, 470588
1, 142248, Tempo, 472441
1, 142288, Tempo, 474308
1, 142320, Tempo, 476190
1, 142320, Note_on_c, 0, 65, 0
1, 142320, Note_on_c, 0, 61, 30
1, 142360, Tempo, 478088
1, 142388, Tempo, 480000
1, 142420, Tempo, 481928
1, 142440, Tempo, 512821
1, 142440, Note_on_c, 0, 61, 0
1, 142440, Note_on_c, 0, 75, 0
1, 142440, Note_on_c, 0, 73, 52
1, 142440, Note_on_c, 0, 59, 29
1, 142550, Note_on_c, 0, 73, 0
1, 142560, Tempo, 463320
1, 142560, Note_on_c, 0, 59, 0
1, 142560, Note_on_c, 0, 71, 0
1, 142560, Note_on_c, 0, 71, 43
1, 142560, Note_on_c, 0, 73, 58
1, 142560, Note_on_c, 0, 54, 28
1, 142569, Control_c, 0, 64, 0
1, 142641, Control_c, 0, 64, 127
1, 142680, Note_on_c, 0, 54, 0
1, 142680, Note_on_c, 0, 59, 28
1, 142800, Note_on_c, 0, 59, 0
1, 142800, Note_on_c, 0, 61, 31
1, 142920, Note_on_c, 0, 61, 0
1, 142920, Note_on_c, 0, 66, 34
1, 143040, Note_on_c, 0, 66, 0
1, 143040, Note_on_c, 0, 61, 31
1, 143160, Note_on_c, 0, 61, 0
1, 143160, Note_on_c, 0, 59, 29
1, 143280, Tempo, 437956
1, 143280, Note_on_c, 0, 59, 0
1, 143280, Note_on_c, 0, 73, 0
1, 143280, Note_on_c, 0, 71, 0
1, 143280, Note_on_c, 0, 70, 56
1, 143280, Note_on_c, 0, 78, 56
1, 143280, Note_on_c, 0, 49, 29
1, 143290, Control_c, 0, 64, 0
1, 143360, Tempo, 436364
1, 143365, Control_c, 0, 64, 127
1, 143400, Note_on_c, 0, 49, 0
1, 143400, Note_on_c, 0, 58, 28
1, 143428, Tempo, 434783
1, 143500, Tempo, 433213
1, 143520, Note_on_c, 0, 58, 0
1, 143520, Note_on_c, 0, 61, 30
1, 143568, Tempo, 431655
1, 143640, Tempo, 430108
1, 143640, Note_on_c, 0, 61, 0
1, 143640, Note_on_c, 0, 66, 33
1, 143720, Tempo, 428571
1, 143760, Note_on_c, 0, 66, 0
1, 143760, Note_on_c, 0, 61, 31
1, 143788, Tempo, 427046
1, 143860, Tempo, 425532
1, 143880, Note_on_c, 0, 61, 0
1, 143880, Note_on_c, 0, 58, 30
1, 143928, Tempo, 424028
1, 144000, Tempo, 422535
1, 144000, Note_on_c, 0, 58, 0
1, 144000, Note_on_c, 0, 70, 0
1, 144000, Note_on_c, 0, 71, 50
1, 144000, Note_on_c, 0, 56, 28
1, 144011, Control_c, 0, 64, 0
1, 144052, Control_c, 0, 64, 127
1, 144120, Note_on_c, 0, 56, 0
1, 144120, Note_on_c, 0, 59, 28
1, 144240, Note_on_c, 0, 59, 0
1, 144240, Note_on_c, 0, 61, 30
1, 144360, Note_on_c, 0, 61, 0
1, 144360, Note_on_c, 0, 68, 33
1, 144480, Tempo, 437956
1, 144480, Note_on_c, 0, 68, 0
1, 144480, Note_on_c, 0, 78, 0
1, 144480, Note_on_c, 0, 77, 52
1, 144480, Note_on_c, 0, 61, 31
1, 144600, Note_on_c, 0, 61, 0
1, 144600, Note_on_c, 0, 59, 29
1, 144720, Note_on_c, 0, 59, 0
1, 144720, Note_on_c, 0, 77, 0
1, 144720, Note_on_c, 0, 77, 51
1, 144720, Note_on_c, 0, 49, 29
1, 144728, Tempo, 428571
1, 144730, Control_c, 0, 64, 0
1, 144808, Tempo, 430108
1, 144829, Control_c, 0, 64, 127
1, 144840, Note_on_c, 0, 49, 0
1, 144840, Note_on_c, 0, 59, 28
1, 144888, Tempo, 431655
1, 144960, Tempo, 433213
1, 144960, Note_on_c, 0, 59, 0
1, 144960, Note_on_c, 0, 77, 0
1, 144960, Note_on_c, 0, 75, 50
1, 144960, Note_on_c, 0, 61, 30
1, 145040, Tempo, 434783
1, 145080, Note_on_c, 0, 61, 0
1, 145080, Note_on_c, 0, 65, 31
1, 145120, Tempo, 436364
1, 145188, Tempo, 437956
1, 145200, Tempo, 502092
1, 145200, Note_on_c, 0, 65, 0
1, 145200, Note_on_c, 0, 75, 0
1, 145200, Note_on_c, 0, 73, 49
1, 145200, Note_on_c, 0, 61, 30
1, 145320, Note_on_c, 0, 61, 0
1, 145320, Note_on_c, 0, 59, 29
1, 145428, Tempo, 439560
1, 145430, Note_on_c, 0, 73, 0
1, 145440, Note_on_c, 0, 59, 0
1, 145440, Note_on_c, 0, 71, 0
1, 145440, Note_on_c, 0, 70, 44
1, 145440, Note_on_c, 0, 73, 44
1, 145440, Note_on_c, 0, 82, 56
1, 145440, Note_on_c, 0, 54, 29
1, 145450, Control_c, 0, 64, 0
1, 145488, Tempo, 437956
1, 145540, Tempo, 436364
1, 145560, Note_on_c, 0, 54, 0
1, 145560, Note_on_c, 0, 58, 30
1, 145567, Control_c, 0, 64, 127
1, 145588, Tempo, 434783
1, 145640, Tempo, 433213
1, 145680, Note_on_c, 0, 58, 0
1, 145680, Note_on_c, 0, 61, 34
1, 145688, Tempo, 431655
1, 145740, Tempo, 430108
1, 145788, Tempo, 428571
1, 145800, Note_on_c, 0, 61, 0
1, 145800, Note_on_c, 0, 66, 35
1, 145840, Tempo, 427046
1, 145888, Tempo, 425532
1, 145920, Note_on_c, 0, 66, 0
1, 145920, Note_on_c, 0, 61, 34
1, 145940, Tempo, 424028
1, 145988, Tempo, 422535
1, 146040, Tempo, 421053
1, 146040, Note_on_c, 0, 61, 0
1, 146040, Note_on_c, 0, 58, 33
1, 146088, Tempo, 419580
1, 146140, Tempo, 418118
1, 146160, Tempo, 481928
1, 146160, Note_on_c, 0, 58, 0
1, 146160, Note_on_c, 0, 82, 0
1, 146160, Note_on_c, 0, 73, 0
1, 146160, Note_on_c, 0, 70, 0
1, 146160, Note_on_c, 0, 68, 44
1, 146160, Note_on_c, 0, 73, 44
1, 146160, Note_on_c, 0, 82, 62
1, 146160, Note_on_c, 0, 52, 35
1, 146172, Control_c, 0, 64, 0
1, 146212, Control_c, 0, 64, 127
1, 146280, Note_on_c, 0, 52, 0
1, 146280, Note_on_c, 0, 58, 36
1, 146388, Tempo, 459770
1, 146400, Tempo, 497925
1, 146400, Note_on_c, 0, 58, 0
1, 146400, Note_on_c, 0, 61, 39
1, 146520, Note_on_c, 0, 61, 0
1, 146520, Note_on_c, 0, 68, 37
1, 146628, Tempo, 510638
1, 146640, Tempo, 540541
1, 146640, Note_on_c, 0, 68, 0
1, 146640, Note_on_c, 0, 82, 0
1, 146640, Note_on_c, 0, 82, 64
1, 146640, Note_on_c, 0, 61, 34
1, 146760, Note_on_c, 0, 61, 0
1, 146760, Note_on_c, 0, 58, 31
1, 146820, Note_on_c, 0, 67, 44
1, 146880, Tempo, 478088
1, 146880, Note_on_c, 0, 67, 0
1, 146880, Note_on_c, 0, 68, 0
1, 146880, Note_on_c, 0, 82, 0
1, 146880, Note_on_c, 0, 73, 0
1, 146880, Note_on_c, 0, 58, 0
1, 146880, Note_on_c, 0, 73, 45
1, 146880, Note_on_c, 0, 82, 68
1, 146880, Note_on_c, 0, 51, 36
1, 146890, Control_c, 0, 64, 0
1, 146972, Control_c, 0, 64, 127
1, 147000, Note_on_c, 0, 51, 0
1, 147000, Note_on_c, 0, 58, 38
1, 147120, Note_on_c, 0, 58, 0
1, 147120, Note_on_c, 0, 61, 41
1, 147240, Note_on_c, 0, 61, 0
1, 147240, Note_on_c, 0, 67, 45
1, 147348, Tempo, 478088
1, 147360, Tempo, 528634
1, 147360, Note_on_c, 0, 67, 0
1, 147360, Note_on_c, 0, 82, 0
1, 147360, Note_on_c, 0, 75, 57
1, 147360, Note_on_c, 0, 61, 42
1, 147480, Note_on_c, 0, 61, 0
1, 147480, Note_on_c, 0, 58, 39
1, 147588, Tempo, 560748
1, 147600, Tempo, 472441
1, 147600, Note_on_c, 0, 58, 0
1, 147600, Note_on_c, 0, 75, 0
1, 147600, Note_on_c, 0, 75, 57
1, 147600, Note_on_c, 0, 55, 36
1, 147608, Control_c, 0, 64, 0
1, 147646, Control_c, 0, 64, 127
1, 147720, Note_on_c, 0, 55, 0
1, 147720, Note_on_c, 0, 61, 38
1, 147840, Note_on_c, 0, 61, 0
1, 147840, Note_on_c, 0, 75, 0
1, 147840, Note_on_c, 0, 77, 51
1, 147840, Note_on_c, 0, 63, 41
1, 147900, Note_on_c, 0, 77, 0
1, 147900, Note_on_c, 0, 79, 51
1, 147960, Tempo, 515021
1, 147960, Note_on_c, 0, 79, 0
1, 147960, Note_on_c, 0, 63, 0
1, 147960, Note_on_c, 0, 77, 56
1, 147960, Note_on_c, 0, 70, 46
1, 148080, Note_on_c, 0, 70, 0
1, 148080, Note_on_c, 0, 63, 42
1, 148200, Tempo, 574163
1, 148200, Note_on_c, 0, 63, 0
1, 148200, Note_on_c, 0, 77, 0
1, 148200, Note_on_c, 0, 75, 56
1, 148200, Note_on_c, 0, 61, 39
1, 148310, Note_on_c, 0, 75, 0
1, 148320, Tempo, 431655
1, 148320, Note_on_c, 0, 61, 0
1, 148320, Note_on_c, 0, 73, 0
1, 148320, Note_on_c, 0, 73, 49
1, 148320, Note_on_c, 0, 75, 59
1, 148320, Note_on_c, 0, 56, 37
1, 148332, Control_c, 0, 64, 0
1, 148426, Control_c, 0, 64, 127
1, 148440, Note_on_c, 0, 56, 0
1, 148440, Note_on_c, 0, 61, 38
1, 148560, Note_on_c, 0, 61, 0
1, 148560, Note_on_c, 0, 63, 42
1, 148680, Note_on_c, 0, 63, 0
1, 148680, Note_on_c, 0, 68, 45
1, 148800, Note_on_c, 0, 68, 0
1, 148800, Note_on_c, 0, 63, 41
1, 148920, Note_on_c, 0, 63, 0
1, 148920, Note_on_c, 0, 61, 38
1, 149040, Tempo, 405405
1, 149040, Note_on_c, 0, 61, 0
1, 149040, Note_on_c, 0, 75, 0
1, 149040, Note_on_c, 0, 73, 0
1, 149040, Note_on_c, 0, 72, 53
1, 149040, Note_on_c, 0, 80, 64
1, 149040, Note_on_c, 0, 51, 36
1, 149051, Control_c, 0, 64, 0
1, 149146, Control_c, 0, 64, 127
1, 149160, Note_on_c, 0, 51, 0
1, 149160, Note_on_c, 0, 60, 37
1, 149280, Note_on_c, 0, 60, 0
1, 149280, Note_on_c, 0, 63, 40
1, 149400, Note_on_c, 0, 63, 0
1, 149400, Note_on_c, 0, 68, 44
1, 149520, Note_on_c, 0, 68, 0
1, 149520, Note_on_c, 0, 63, 41
1, 149640, Note_on_c, 0, 63, 0
1, 149640, Note_on_c, 0, 60, 39
1, 149760, Note_on_c, 0, 60, 0
1, 149760, Note_on_c, 0, 72, 0
1, 149760, Note_on_c, 0, 73, 55
1, 149760, Note_on_c, 0, 58, 36
1, 149769, Control_c, 0, 64, 0
1, 149880, Note_on_c, 0, 58, 0
1, 149880, Note_on_c, 0, 61, 37
1, 149894, Control_c, 0, 64, 127
1, 150000, Note_on_c, 0, 61, 0
1, 150000, Note_on_c, 0, 80, 0
1, 150000, Note_on_c, 0, 79, 60
1, 150000, Note_on_c, 0, 63, 40
1, 150120, Note_on_c, 0, 63, 0
1, 150120, Note_on_c, 0, 70, 42
1, 150240, Tempo, 419580
1, 150240, Note_on_c, 0, 70, 0
1, 150240, Note_on_c, 0, 79, 0
1, 150240, Note_on_c, 0, 77, 59
1, 150240, Note_on_c, 0, 63, 41
1, 150360, Note_on_c, 0, 63, 0
1, 150360, Note_on_c, 0, 61, 39
1, 150480, Note_on_c, 0, 61, 0
1, 150480, Note_on_c, 0, 77, 0
1, 150480, Note_on_c, 0, 79, 60
1, 150480, Note_on_c, 0, 51, 37
1, 150492, Control_c, 0, 64, 0
1, 150566, Control_c, 0, 64, 127
1, 150600, Note_on_c, 0, 51, 0
1, 150600, Note_on_c, 0, 61, 36
1, 150720, Tempo, 510638
1, 150720, Note_on_c, 0, 61, 0
1, 150720, Note_on_c, 0, 79, 0
1, 150720, Note_on_c, 0, 77, 59
1, 150720, Note_on_c, 0, 63, 38
1, 150840, Note_on_c, 0, 63, 0
1, 150840, Note_on_c, 0, 67, 40
1, 150960, Tempo, 659341
1, 150960, Note_on_c, 0, 67, 0
1, 150960, Note_on_c, 0, 63, 40
1, 151080, Note_on_c, 0, 63, 0
1, 151080, Note_on_c, 0, 77, 0
1, 151080, Note_on_c, 0, 75, 56
1, 151080, Note_on_c, 0, 61, 37
1, 151200, Tempo, 441176
1, 151200, Note_on_c, 0, 61, 0
1, 151200, Note_on_c, 0, 75, 0
1, 151200, Note_on_c, 0, 73, 0
1, 151200, Note_on_c, 0, 72, 56
1, 151200, Note_on_c, 0, 84, 56
1, 151200, Note_on_c, 0, 56, 50
1, 151210, Control_c, 0, 64, 0
1, 151260, Tempo, 439560
1, 151320, Tempo, 437956
1, 151320, Note_on_c, 0, 56, 0
1, 151320, Note_on_c, 0, 60, 40
1, 151341, Control_c, 0, 64, 127
1, 151380, Tempo, 436364
1, 151440, Tempo, 434783
1, 151440, Note_on_c, 0, 60, 0
1, 151440, Note_on_c, 0, 63, 44
1, 151500, Tempo, 433213
1, 151560, Tempo, 431655
1, 151560, Note_on_c, 0, 63, 0
1, 151560, Note_on_c, 0, 68, 45
1, 151620, Tempo, 430108
1, 151680, Tempo, 428571
1, 151680, Note_on_c, 0, 68, 0
1, 151680, Note_on_c, 0, 63, 44
1, 151740, Tempo, 427046
1, 151800, Tempo, 425532
1, 151800, Note_on_c, 0, 63, 0
1, 151800, Note_on_c, 0, 60, 42
1, 151860, Tempo, 424028
1, 151908, Tempo, 422535
1, 151920, Tempo, 560748
1, 151920, Note_on_c, 0, 60, 0
1, 151920, Note_on_c, 0, 84, 0
1, 151920, Note_on_c, 0, 84, 64
1, 151920, Note_on_c, 0, 55, 39
1, 151933, Control_c, 0, 64, 0
1, 152005, Control_c, 0, 64, 127
1, 152040, Note_on_c, 0, 56, 41
1, 152160, Note_on_c, 0, 56, 0
1, 152160, Note_on_c, 0, 60, 45
1, 152280, Note_on_c, 0, 60, 0
1, 152280, Note_on_c, 0, 63, 49
1, 152400, Tempo, 615385
1, 152400, Note_on_c, 0, 63, 0
1, 152400, Note_on_c, 0, 84, 0
1, 152400, Note_on_c, 0, 84, 63
1, 152400, Note_on_c, 0, 60, 47
1, 152520, Note_on_c, 0, 60, 0
1, 152520, Note_on_c, 0, 56, 41
1, 152630, Note_on_c, 0, 84, 0
1, 152640, Tempo, 502092
1, 152640, Note_on_c, 0, 72, 0
1, 152640, Note_on_c, 0, 55, 0
1, 152640, Note_on_c, 0, 56, 0
1, 152640, Note_on_c, 0, 84, 68
1, 152640, Note_on_c, 0, 54, 38
1, 152653, Control_c, 0, 64, 0
1, 152760, Note_on_c, 0, 56, 36
1, 152774, Control_c, 0, 64, 127
1, 152880, Note_on_c, 0, 56, 0
1, 152880, Note_on_c, 0, 60, 39
1, 153000, Note_on_c, 0, 60, 0
1, 153000, Note_on_c, 0, 63, 42
1, 153120, Note_on_c, 0, 63, 0
1, 153120, Note_on_c, 0, 60, 41
1, 153240, Note_on_c, 0, 60, 0
1, 153240, Note_on_c, 0, 56, 38
1, 153360, Note_on_c, 0, 56, 0
1, 153360, Note_on_c, 0, 54, 0
1, 153360, Note_on_c, 0, 54, 47
1, 153480, Note_on_c, 0, 56, 41
1, 153600, Tempo, 472441
1, 153600, Note_on_c, 0, 56, 0
1, 153600, Note_on_c, 0, 84, 0
1, 153600, Note_on_c, 0, 82, 63
1, 153600, Note_on_c, 0, 60, 41
1, 153720, Note_on_c, 0, 60, 0
1, 153720, Note_on_c, 0, 63, 41
1, 153840, Note_on_c, 0, 63, 0
1, 153840, Note_on_c, 0, 60, 38
1, 153960, Note_on_c, 0, 60, 0
1, 153960, Note_on_c, 0, 82, 0
1, 153960, Note_on_c, 0, 80, 63
1, 153960, Note_on_c, 0, 56, 35
1, 154068, Tempo, 413793
1, 154070, Note_on_c, 0, 80, 0
1, 154080, Note_on_c, 0, 56, 0
1, 154080, Note_on_c, 0, 54, 0
1, 154080, Note_on_c, 0, 80, 63
1, 154080, Note_on_c, 0, 53, 34
1, 154091, Control_c, 0, 64, 0
1, 154128, Tempo, 412371
1, 154188, Tempo, 410959
1, 154193, Control_c, 0, 64, 127
1, 154200, Note_on_c, 0, 56, 33
1, 154240, Tempo, 409556
1, 154300, Tempo, 408163
1, 154320, Note_on_c, 0, 56, 0
1, 154320, Note_on_c, 0, 61, 36
1, 154360, Tempo, 406780
1, 154408, Tempo, 405405
1, 154440, Note_on_c, 0, 61, 0
1, 154440, Note_on_c, 0, 65, 39
1, 154468, Tempo, 404040
1, 154520, Tempo, 402685
1, 154560, Note_on_c, 0, 65, 0
1, 154560, Note_on_c, 0, 61, 37
1, 154580, Tempo, 401338
1, 154640, Tempo, 400000
1, 154680, Note_on_c, 0, 61, 0
1, 154680, Note_on_c, 0, 56, 35
1, 154688, Tempo, 398671
1, 154748, Tempo, 397351
1, 154800, Tempo, 396040
1, 154800, Note_on_c, 0, 56, 0
1, 154800, Note_on_c, 0, 53, 0
1, 154800, Note_on_c, 0, 80, 0
1, 154800, Note_on_c, 0, 85, 75
1, 154800, Note_on_c, 0, 53, 36
1, 154920, Note_on_c, 0, 53, 0
1, 154920, Note_on_c, 0, 56, 38
1, 155040, Note_on_c, 0, 56, 0
1, 155040, Note_on_c, 0, 61, 41
1, 155160, Note_on_c, 0, 61, 0
1, 155160, Note_on_c, 0, 68, 42
1, 155280, Note_on_c, 0, 68, 0
1, 155280, Note_on_c, 0, 61, 40
1, 155400, Note_on_c, 0, 61, 0
1, 155400, Note_on_c, 0, 56, 37
1, 155520, Note_on_c, 0, 56, 0
1, 155520, Note_on_c, 0, 85, 0
1, 155520, Note_on_c, 0, 85, 82
1, 155520, Note_on_c, 0, 51, 35
1, 155532, Control_c, 0, 64, 0
1, 155612, Control_c, 0, 64, 127
1, 155640, Note_on_c, 0, 51, 0
1, 155640, Note_on_c, 0, 56, 38
1, 155760, Note_on_c, 0, 56, 0
1, 155760, Note_on_c, 0, 60, 41
1, 155880, Note_on_c, 0, 60, 0
1, 155880, Note_on_c, 0, 66, 41
1, 156000, Note_on_c, 0, 66, 0
1, 156000, Note_on_c, 0, 85, 0
1, 156000, Note_on_c, 0, 84, 78
1, 156000, Note_on_c, 0, 60, 39
1, 156120, Note_on_c, 0, 60, 0
1, 156120, Note_on_c, 0, 56, 36
1, 156230, Note_on_c, 0, 84, 0
1, 156240, Tempo, 416667
1, 156240, Note_on_c, 0, 56, 0
1, 156240, Note_on_c, 0, 84, 75
1, 156240, Note_on_c, 0, 51, 34
1, 156360, Note_on_c, 0, 51, 0
1, 156360, Note_on_c, 0, 56, 34
1, 156480, Tempo, 470588
1, 156480, Note_on_c, 0, 56, 0
1, 156480, Note_on_c, 0, 84, 0
1, 156480, Note_on_c, 0, 82, 71
1, 156480, Note_on_c, 0, 60, 37
1, 156600, Note_on_c, 0, 60, 0
1, 156600, Note_on_c, 0, 66, 39
1, 156720, Tempo, 502092
1, 156720, Note_on_c, 0, 66, 0
1, 156720, Note_on_c, 0, 60, 36
1, 156840, Note_on_c, 0, 60, 0
1, 156840, Note_on_c, 0, 82, 0
1, 156840, Note_on_c, 0, 80, 63
1, 156840, Note_on_c, 0, 56, 31
1, 156960, Note_on_c, 0, 56, 0
1, 156960, Note_on_c, 0, 80, 0
1, 156960, Note_on_c, 0, 89, 80
1, 156960, Note_on_c, 0, 50, 31
1, 156970, Control_c, 0, 64, 0
1, 157035, Control_c, 0, 64, 127
1, 157080, Note_on_c, 0, 50, 0
1, 157080, Note_on_c, 0, 56, 31
1, 157200, Note_on_c, 0, 56, 0
1, 157200, Note_on_c, 0, 59, 35
1, 157320, Note_on_c, 0, 59, 0
1, 157320, Note_on_c, 0, 65, 37
1, 157440, Note_on_c, 0, 65, 0
1, 157440, Note_on_c, 0, 59, 36
1, 157560, Note_on_c, 0, 59, 0
1, 157560, Note_on_c, 0, 56, 34
1, 157680, Tempo, 582524
1, 157680, Note_on_c, 0, 56, 0
1, 157680, Note_on_c, 0, 89, 0
1, 157680, Note_on_c, 0, 89, 77
1, 157680, Note_on_c, 0, 50, 34
1, 157687, Control_c, 0, 64, 0
1, 157749, Control_c, 0, 64, 127
1, 157800, Note_on_c, 0, 50, 0
1, 157800, Note_on_c, 0, 56, 30
1, 157920, Note_on_c, 0, 56, 0
1, 157920, Note_on_c, 0, 58, 35
1, 158040, Note_on_c, 0, 58, 0
1, 158040, Note_on_c, 0, 65, 37
1, 158160, Tempo, 714286
1, 158160, Note_on_c, 0, 65, 0
1, 158160, Note_on_c, 0, 89, 0
1, 158160, Note_on_c, 0, 89, 81
1, 158160, Note_on_c, 0, 58, 36
1, 158280, Note_on_c, 0, 58, 0
1, 158280, Note_on_c, 0, 56, 34
1, 158390, Note_on_c, 0, 89, 0
1, 158400, Tempo, 538117
1, 158400, Note_on_c, 0, 56, 0
1, 158400, Note_on_c, 0, 89, 85
1, 158400, Note_on_c, 0, 51, 34
1, 158410, Control_c, 0, 64, 0
1, 158448, Tempo, 535714
1, 158478, Control_c, 0, 64, 127
1, 158488, Tempo, 533333
1, 158520, Note_on_c, 0, 51, 0
1, 158520, Note_on_c, 0, 54, 35
1, 158540, Tempo, 530973
1, 158580, Tempo, 528634
1, 158620, Tempo, 526316
1, 158640, Note_on_c, 0, 54, 0
1, 158640, Note_on_c, 0, 58, 38
1, 158668, Tempo, 524017
1, 158708, Tempo, 521739
1, 158748, Tempo, 519481
1, 158760, Note_on_c, 0, 58, 0
1, 158760, Note_on_c, 0, 63, 39
1, 158800, Tempo, 517241
1, 158840, Tempo, 515021
1, 158880, Note_on_c, 0, 63, 0
1, 158880, Note_on_c, 0, 58, 38
1, 158888, Tempo, 512821
1, 158928, Tempo, 510638
1, 158968, Tempo, 508475
1, 159000, Note_on_c, 0, 58, 0
1, 159000, Note_on_c, 0, 54, 36
1, 159020, Tempo, 506329
1, 159060, Tempo, 504202
1, 159100, Tempo, 502092
1, 159120, Tempo, 526316
1, 159120, Note_on_c, 0, 54, 0
1, 159120, Note_on_c, 0, 89, 0
1, 159120, Note_on_c, 0, 87, 72
1, 159120, Note_on_c, 0, 42, 34
1, 159130, Control_c, 0, 64, 0
1, 159219, Control_c, 0, 64, 127
1, 159240, Note_on_c, 0, 42, 0
1, 159240, Note_on_c, 0, 54, 31
1, 159360, Note_on_c, 0, 54, 0
1, 159360, Note_on_c, 0, 87, 0
1, 159360, Note_on_c, 0, 85, 71
1, 159360, Note_on_c, 0, 58, 36
1, 159480, Note_on_c, 0, 58, 0
1, 159480, Note_on_c, 0, 63, 38
1, 159600, Note_on_c, 0, 63, 0
1, 159600, Note_on_c, 0, 85, 0
1, 159600, Note_on_c, 0, 82, 70
1, 159600, Note_on_c, 0, 58, 36
1, 159720, Note_on_c, 0, 58, 0
1, 159720, Note_on_c, 0, 54, 34
1, 159840, Note_on_c, 0, 54, 0
1, 159840, Note_on_c, 0, 82, 0
1, 159840, Note_on_c, 0, 84, 75
1, 159840, Note_on_c, 0, 44, 35
1, 159850, Control_c, 0, 64, 0
1, 159946, Control_c, 0, 64, 127
1, 159960, Note_on_c, 0, 44, 0
1, 159960, Note_on_c, 0, 53, 36
1, 160080, Note_on_c, 0, 53, 0
1, 160080, Note_on_c, 0, 56, 37
1, 160200, Note_on_c, 0, 56, 0
1, 160200, Note_on_c, 0, 61, 39
1, 160320, Note_on_c, 0, 61, 0
1, 160320, Note_on_c, 0, 56, 37
1, 160440, Note_on_c, 0, 56, 0
1, 160440, Note_on_c, 0, 53, 35
1, 160560, Note_on_c, 0, 53, 0
1, 160560, Note_on_c, 0, 84, 0
1, 160560, Note_on_c, 0, 82, 71
1, 160560, Note_on_c, 0, 44, 33
1, 160680, Note_on_c, 0, 44, 0
1, 160680, Note_on_c, 0, 53, 34
1, 160800, Note_on_c, 0, 53, 0
1, 160800, Note_on_c, 0, 82, 0
1, 160800, Note_on_c, 0, 80, 68
1, 160800, Note_on_c, 0, 56, 35
1, 160920, Note_on_c, 0, 56, 0
1, 160920, Note_on_c, 0, 61, 38
1, 161040, Note_on_c, 0, 61, 0
1, 161040, Note_on_c, 0, 80, 0
1, 161040, Note_on_c, 0, 77, 63
1, 161040, Note_on_c, 0, 56, 37
1, 161160, Note_on_c, 0, 56, 0
1, 161160, Note_on_c, 0, 53, 36
1, 161280, Note_on_c, 0, 53, 0
1, 161280, Note_on_c, 0, 77, 0
1, 161280, Note_on_c, 0, 82, 69
1, 161280, Note_on_c, 0, 44, 39
1, 161291, Control_c, 0, 64, 0
1, 161386, Control_c, 0, 64, 127
1, 161400, Note_on_c, 0, 44, 0
1, 161400, Note_on_c, 0, 54, 34
1, 161520, Note_on_c, 0, 54, 0
1, 161520, Note_on_c, 0, 82, 0
1, 161520, Note_on_c, 0, 80, 64
1, 161520, Note_on_c, 0, 56, 36
1, 161640, Note_on_c, 0, 56, 0
1, 161640, Note_on_c, 0, 60, 36
1, 161760, Note_on_c, 0, 60, 0
1, 161760, Note_on_c, 0, 80, 0
1, 161760, Note_on_c, 0, 78, 61
1, 161760, Note_on_c, 0, 56, 35
1, 161880, Note_on_c, 0, 56, 0
1, 161880, Note_on_c, 0, 54, 34
1, 161990, Note_on_c, 0, 78, 0
1, 162000, Tempo, 547945
1, 162000, Note_on_c, 0, 54, 0
1, 162000, Note_on_c, 0, 78, 55
1, 162000, Note_on_c, 0, 44, 31
1, 162010, Control_c, 0, 64, 0
1, 162060, Note_on_c, 0, 78, 0
1, 162060, Note_on_c, 0, 80, 55
1, 162060, Control_c, 0, 64, 127
1, 162120, Note_on_c, 0, 80, 0
1, 162120, Note_on_c, 0, 44, 0
1, 162120, Note_on_c, 0, 78, 63
1, 162120, Note_on_c, 0, 54, 31
1, 162240, Tempo, 603015
1, 162240, Note_on_c, 0, 54, 0
1, 162240, Note_on_c, 0, 78, 0
1, 162240, Note_on_c, 0, 77, 58
1, 162240, Note_on_c, 0, 56, 35
1, 162360, Note_on_c, 0, 56, 0
1, 162360, Note_on_c, 0, 60, 37
1, 162480, Tempo, 681818
1, 162480, Note_on_c, 0, 60, 0
1, 162480, Note_on_c, 0, 56, 35
1, 162600, Note_on_c, 0, 56, 0
1, 162600, Note_on_c, 0, 77, 0
1, 162600, Note_on_c, 0, 76, 59
1, 162600, Note_on_c, 0, 54, 33
1, 162710, Note_on_c, 0, 76, 0
1, 162720, Tempo, 603015
1, 162720, Note_on_c, 0, 54, 0
1, 162720, Note_on_c, 0, 76, 59
1, 162720, Note_on_c, 0, 49, 33
1, 162729, Control_c, 0, 64, 0
1, 162760, Tempo, 600000
1, 162798, Control_c, 0, 64, 127
1, 162800, Tempo, 597015
1, 162840, Tempo, 594059
1, 162840, Note_on_c, 0, 49, 0
1, 162840, Note_on_c, 0, 56, 33
1, 162880, Tempo, 591133
1, 162920, Tempo, 588235
1, 162960, Tempo, 585366
1, 162960, Note_on_c, 0, 56, 0
1, 162960, Note_on_c, 0, 61, 36
1, 163000, Tempo, 582524
1, 163040, Tempo, 579710
1, 163080, Tempo, 576923
1, 163080, Note_on_c, 0, 61, 0
1, 163080, Note_on_c, 0, 65, 37
1, 163120, Tempo, 574163
1, 163160, Tempo, 571429
1, 163200, Tempo, 568720
1, 163200, Note_on_c, 0, 65, 0
1, 163200, Note_on_c, 0, 61, 36
1, 163240, Tempo, 566038
1, 163280, Tempo, 563380
1, 163320, Tempo, 560748
1, 163320, Note_on_c, 0, 61, 0
1, 163320, Note_on_c, 0, 58, 35
1, 163360, Tempo, 558140
1, 163400, Tempo, 555556
1, 163428, Tempo, 552995
1, 163440, Tempo, 552995
1, 163440, Note_on_c, 0, 58, 0
1, 163440, Note_on_c, 0, 76, 0
1, 163440, Note_on_c, 0, 77, 63
1, 163440, Note_on_c, 0, 56, 36
1, 163452, Control_c, 0, 64, 0
1, 163560, Note_on_c, 0, 56, 0
1, 163560, Note_on_c, 0, 61, 36
1, 163574, Control_c, 0, 64, 127
1, 163680, Note_on_c, 0, 61, 0
1, 163680, Note_on_c, 0, 65, 39
1, 163800, Note_on_c, 0, 65, 0
1, 163800, Note_on_c, 0, 68, 40
1, 163920, Tempo, 517241
1, 163920, Note_on_c, 0, 68, 0
1, 163920, Note_on_c, 0, 77, 0
1, 163920, Note_on_c, 0, 80, 57
1, 163920, Note_on_c, 0, 65, 39
1, 164040, Note_on_c, 0, 65, 0
1, 164040, Note_on_c, 0, 61, 38
1, 164160, Tempo, 506329
1, 164160, Note_on_c, 0, 61, 0
1, 164160, Note_on_c, 0, 80, 0
1, 164160, Note_on_c, 0, 68, 57
1, 164160, Note_on_c, 0, 54, 38
1, 164174, Control_c, 0, 64, 0
1, 164217, Control_c, 0, 64, 127
1, 164220, Note_on_c, 0, 80, 57
1, 164280, Note_on_c, 0, 56, 42
1, 164400, Note_on_c, 0, 56, 0
1, 164400, Note_on_c, 0, 60, 42
1, 164520, Note_on_c, 0, 60, 0
1, 164520, Note_on_c, 0, 63, 42
1, 164640, Note_on_c, 0, 63, 0
1, 164640, Note_on_c, 0, 68, 0
1, 164640, Note_on_c, 0, 72, 63
1, 164640, Note_on_c, 0, 60, 42
1, 164760, Note_on_c, 0, 60, 0
1, 164760, Note_on_c, 0, 56, 42
1, 164880, Tempo, 600000
1, 164880, Note_on_c, 0, 56, 0
1, 164880, Note_on_c, 0, 80, 0
1, 164880, Note_on_c, 0, 54, 0
1, 164880, Note_on_c, 0, 84, 63
1, 164880, Note_on_c, 0, 54, 41
1, 165000, Note_on_c, 0, 56, 45
1, 165120, Tempo, 472441
1, 165120, Note_on_c, 0, 56, 0
1, 165120, Note_on_c, 0, 72, 0
1, 165120, Note_on_c, 0, 84, 0
1, 165120, Note_on_c, 0, 70, 63
1, 165120, Note_on_c, 0, 82, 63
1, 165120, Note_on_c, 0, 60, 45
1, 165240, Note_on_c, 0, 60, 0
1, 165240, Note_on_c, 0, 63, 45
1, 165360, Note_on_c, 0, 63, 0
1, 165360, Note_on_c, 0, 60, 41
1, 165480, Note_on_c, 0, 60, 0
1, 165480, Note_on_c, 0, 82, 0
1, 165480, Note_on_c, 0, 70, 0
1, 165480, Note_on_c, 0, 68, 63
1, 165480, Note_on_c, 0, 80, 63
1, 165480, Note_on_c, 0, 56, 38
1, 165588, Tempo, 413793
1, 165590, Note_on_c, 0, 80, 0
1, 165590, Note_on_c, 0, 68, 0
1, 165600, Note_on_c, 0, 54, 0
1, 165600, Note_on_c, 0, 56, 0
1, 165600, Note_on_c, 0, 68, 63
1, 165600, Note_on_c, 0, 80, 63
1, 165600, Note_on_c, 0, 53, 37
1, 165610, Control_c, 0, 64, 0
1, 165648, Tempo, 412371
1, 165699, Control_c, 0, 64, 127
1, 165708, Tempo, 410959
1, 165720, Note_on_c, 0, 56, 36
1, 165760, Tempo, 409556
1, 165820, Tempo, 408163
1, 165840, Note_on_c, 0, 56, 0
1, 165840, Note_on_c, 0, 61, 39
1, 165880, Tempo, 406780
1, 165928, Tempo, 405405
1, 165960, Note_on_c, 0, 61, 0
1, 165960, Note_on_c, 0, 65, 42
1, 165988, Tempo, 404040
1, 166040, Tempo, 402685
1, 166080, Note_on_c, 0, 65, 0
1, 166080, Note_on_c, 0, 61, 40
1, 166100, Tempo, 401338
1, 166160, Tempo, 400000
1, 166200, Note_on_c, 0, 61, 0
1, 166200, Note_on_c, 0, 56, 38
1, 166208, Tempo, 398671
1, 166268, Tempo, 397351
1, 166320, Tempo, 396040
1, 166320, Note_on_c, 0, 56, 0
1, 166320, Note_on_c, 0, 53, 0
1, 166320, Note_on_c, 0, 68, 0
1, 166320, Note_on_c, 0, 73, 75
1, 166320, Note_on_c, 0, 85, 75
1, 166320, Note_on_c, 0, 53, 39
1, 166440, Note_on_c, 0, 53, 0
1, 166440, Note_on_c, 0, 56, 41
1, 166560, Note_on_c, 0, 56, 0
1, 166560, Note_on_c, 0, 61, 45
1, 166680, Note_on_c, 0, 61, 0
1, 166680, Note_on_c, 0, 68, 46
1, 166800, Note_on_c, 0, 68, 0
1, 166800, Note_on_c, 0, 61, 44
1, 166920, Note_on_c, 0, 61, 0
1, 166920, Note_on_c, 0, 56, 40
1, 167040, Note_on_c, 0, 56, 0
1, 167040, Note_on_c, 0, 85, 0
1, 167040, Note_on_c, 0, 73, 0
1, 167040, Note_on_c, 0, 80, 0
1, 167040, Note_on_c, 0, 78, 60
1, 167040, Note_on_c, 0, 80, 60
1, 167040, Note_on_c, 0, 73, 75
1, 167040, Note_on_c, 0, 85, 75
1, 167040, Note_on_c, 0, 51, 39
1, 167049, Control_c, 0, 64, 0
1, 167146, Control_c, 0, 64, 127
1, 167160, Note_on_c, 0, 51, 0
1, 167160, Note_on_c, 0, 56, 41
1, 167280, Note_on_c, 0, 56, 0
1, 167280, Note_on_c, 0, 60, 45
1, 167400, Note_on_c, 0, 60, 0
1, 167400, Note_on_c, 0, 73, 0
1, 167400, Note_on_c, 0, 85, 0
1, 167400, Note_on_c, 0, 84, 71
1, 167400, Note_on_c, 0, 72, 71
1, 167400, Note_on_c, 0, 66, 45
1, 167520, Note_on_c, 0, 66, 0
1, 167520, Note_on_c, 0, 84, 0
1, 167520, Note_on_c, 0, 72, 0
1, 167520, Note_on_c, 0, 80, 70
1, 167520, Note_on_c, 0, 78, 70
1, 167520, Note_on_c, 0, 72, 70
1, 167520, Note_on_c, 0, 84, 70
1, 167520, Note_on_c, 0, 60, 42
1, 167640, Note_on_c, 0, 60, 0
1, 167640, Note_on_c, 0, 56, 39
1, 167760, Tempo, 416667
1, 167760, Note_on_c, 0, 56, 0
1, 167760, Note_on_c, 0, 84, 0
1, 167760, Note_on_c, 0, 80, 0
1, 167760, Note_on_c, 0, 80, 0
1, 167760, Note_on_c, 0, 78, 0
1, 167760, Note_on_c, 0, 72, 0
1, 167760, Note_on_c, 0, 78, 0
1, 167760, Note_on_c, 0, 80, 60
1, 167760, Note_on_c, 0, 78, 60
1, 167760, Note_on_c, 0, 72, 75
1, 167760, Note_on_c, 0, 84, 75
1, 167760, Note_on_c, 0, 51, 38
1, 167880, Note_on_c, 0, 51, 0
1, 167880, Note_on_c, 0, 56, 37
1, 168000, Tempo, 470588
1, 168000, Note_on_c, 0, 56, 0
1, 168000, Note_on_c, 0, 60, 40
1, 168120, Note_on_c, 0, 60, 0
1, 168120, Note_on_c, 0, 72, 0
1, 168120, Note_on_c, 0, 80, 0
1, 168120, Note_on_c, 0, 78, 0
1, 168120, Note_on_c, 0, 84, 0
1, 168120, Note_on_c, 0, 70, 71
1, 168120, Note_on_c, 0, 82, 71
1, 168120, Note_on_c, 0, 66, 42
1, 168240, Tempo, 481928
1, 168240, Note_on_c, 0, 66, 0
1, 168240, Note_on_c, 0, 82, 0
1, 168240, Note_on_c, 0, 70, 0
1, 168240, Note_on_c, 0, 78, 60
1, 168240, Note_on_c, 0, 68, 63
1, 168240, Note_on_c, 0, 80, 63
1, 168240, Note_on_c, 0, 60, 39
1, 168360, Note_on_c, 0, 60, 0
1, 168360, Note_on_c, 0, 56, 34
1, 168480, Note_on_c, 0, 56, 0
1, 168480, Note_on_c, 0, 80, 0
1, 168480, Note_on_c, 0, 68, 0
1, 168480, Note_on_c, 0, 78, 0
1, 168480, Note_on_c, 0, 80, 80
1, 168480, Note_on_c, 0, 77, 68
1, 168480, Note_on_c, 0, 89, 80
1, 168480, Note_on_c, 0, 50, 35
1, 168491, Control_c, 0, 64, 0
1, 168549, Control_c, 0, 64, 127
1, 168600, Note_on_c, 0, 50, 0
1, 168600, Note_on_c, 0, 56, 37
1, 168720, Note_on_c, 0, 56, 0
1, 168720, Note_on_c, 0, 59, 41
1, 168840, Note_on_c, 0, 59, 0
1, 168840, Note_on_c, 0, 65, 44
1, 168960, Note_on_c, 0, 65, 0
1, 168960, Note_on_c, 0, 59, 42
1, 169080, Note_on_c, 0, 59, 0
1, 169080, Note_on_c, 0, 56, 40
1, 169200, Tempo, 526316
1, 169200, Note_on_c, 0, 56, 0
1, 169200, Note_on_c, 0, 89, 0
1, 169200, Note_on_c, 0, 77, 0
1, 169200, Note_on_c, 0, 80, 0
1, 169200, Note_on_c, 0, 77, 65
1, 169200, Note_on_c, 0, 80, 77
1, 169200, Note_on_c, 0, 89, 77
1, 169200, Note_on_c, 0, 50, 35
1, 169209, Control_c, 0, 64, 0
1, 169280, Control_c, 0, 64, 127
1, 169320, Note_on_c, 0, 50, 0
1, 169320, Note_on_c, 0, 56, 36
1, 169440, Note_on_c, 0, 56, 0
1, 169440, Note_on_c, 0, 58, 41
1, 169560, Note_on_c, 0, 58, 0
1, 169560, Note_on_c, 0, 65, 44
1, 169680, Tempo, 600000
1, 169680, Note_on_c, 0, 65, 0
1, 169680, Note_on_c, 0, 89, 0
1, 169680, Note_on_c, 0, 80, 0
1, 169680, Note_on_c, 0, 77, 0
1, 169680, Note_on_c, 0, 77, 66
1, 169680, Note_on_c, 0, 80, 78
1, 169680, Note_on_c, 0, 89, 78
1, 169680, Note_on_c, 0, 58, 42
1, 169800, Note_on_c, 0, 58, 0
1, 169800, Note_on_c, 0, 56, 40
1, 169910, Note_on_c, 0, 77, 0
1, 169910, Note_on_c, 0, 89, 0
1, 169910, Note_on_c, 0, 80, 0
1, 169920, Tempo, 538117
1, 169920, Note_on_c, 0, 56, 0
1, 169920, Note_on_c, 0, 77, 69
1, 169920, Note_on_c, 0, 80, 82
1, 169920, Note_on_c, 0, 89, 82
1, 169920, Note_on_c, 0, 51, 37
1, 169929, Control_c, 0, 64, 0
1, 169968, Tempo, 535714
1, 170008, Tempo, 533333
1, 170033, Control_c, 0, 64, 127
1, 170040, Note_on_c, 0, 51, 0
1, 170040, Note_on_c, 0, 54, 38
1, 170060, Tempo, 530973
1, 170100, Tempo, 528634
1, 170140, Tempo, 526316
1, 170160, Note_on_c, 0, 54, 0
1, 170160, Note_on_c, 0, 58, 41
1, 170188, Tempo, 524017
1, 170228, Tempo, 521739
1, 170268, Tempo, 519481
1, 170280, Note_on_c, 0, 58, 0
1, 170280, Note_on_c, 0, 63, 42
1, 170320, Tempo, 517241
1, 170360, Tempo, 515021
1, 170400, Note_on_c, 0, 63, 0
1, 170400, Note_on_c, 0, 58, 41
1, 170408, Tempo, 512821
1, 170448, Tempo, 510638
1, 170488, Tempo, 508475
1, 170520, Note_on_c, 0, 58, 0
1, 170520, Note_on_c, 0, 54, 39
1, 170540, Tempo, 506329
1, 170580, Tempo, 504202
1, 170620, Tempo, 502092
1, 170640, Tempo, 526316
1, 170640, Note_on_c, 0, 54, 0
1, 170640, Note_on_c, 0, 89, 0
1, 170640, Note_on_c, 0, 80, 0
1, 170640, Note_on_c, 0, 77, 0
1, 170640, Note_on_c, 0, 78, 67
1, 170640, Note_on_c, 0, 75, 56
1, 170640, Note_on_c, 0, 87, 67
1, 170640, Note_on_c, 0, 42, 37
1, 170649, Control_c, 0, 64, 0
1, 170739, Control_c, 0, 64, 127
1, 170760, Note_on_c, 0, 42, 0
1, 170760, Note_on_c, 0, 54, 34
1, 170880, Note_on_c, 0, 54, 0
1, 170880, Note_on_c, 0, 87, 0
1, 170880, Note_on_c, 0, 75, 0
1, 170880, Note_on_c, 0, 78, 0
1, 170880, Note_on_c, 0, 73, 55
1, 170880, Note_on_c, 0, 78, 65
1, 170880, Note_on_c, 0, 85, 65
1, 170880, Note_on_c, 0, 58, 39
1, 171000, Tempo, 550459
1, 171000, Note_on_c, 0, 58, 0
1, 171000, Note_on_c, 0, 63, 41
1, 171120, Note_on_c, 0, 63, 0
1, 171120, Note_on_c, 0, 58, 39
1, 171240, Tempo, 588235
1, 171240, Note_on_c, 0, 58, 0
1, 171240, Note_on_c, 0, 73, 0
1, 171240, Note_on_c, 0, 78, 0
1, 171240, Note_on_c, 0, 85, 0
1, 171240, Note_on_c, 0, 70, 54
1, 171240, Note_on_c, 0, 78, 64
1, 171240, Note_on_c, 0, 82, 64
1, 171240, Note_on_c, 0, 54, 37
1, 171360, Tempo, 526316
1, 171360, Note_on_c, 0, 54, 0
1, 171360, Note_on_c, 0, 70, 0
1, 171360, Note_on_c, 0, 78, 0
1, 171360, Note_on_c, 0, 82, 0
1, 171360, Note_on_c, 0, 72, 52
1, 171360, Note_on_c, 0, 80, 62
1, 171360, Note_on_c, 0, 84, 62
1, 171360, Note_on_c, 0, 44, 37
1, 171372, Control_c, 0, 64, 0
1, 171480, Note_on_c, 0, 44, 0
1, 171480, Control_c, 0, 64, 127
1, 171480, Note_on_c, 0, 53, 39
1, 171600, Note_on_c, 0, 53, 0
1, 171600, Note_on_c, 0, 56, 40
1, 171720, Note_on_c, 0, 56, 0
1, 171720, Note_on_c, 0, 61, 42
1, 171840, Note_on_c, 0, 61, 0
1, 171840, Note_on_c, 0, 56, 40
1, 171960, Note_on_c, 0, 56, 0
1, 171960, Note_on_c, 0, 53, 38
1, 172080, Tempo, 433213
1, 172080, Note_on_c, 0, 53, 0
1, 172080, Note_on_c, 0, 84, 0
1, 172080, Note_on_c, 0, 80, 0
1, 172080, Note_on_c, 0, 72, 0
1, 172080, Note_on_c, 0, 70, 54
1, 172080, Note_on_c, 0, 78, 64
1, 172080, Note_on_c, 0, 82, 64
1, 172080, Note_on_c, 0, 44, 35
1, 172200, Note_on_c, 0, 44, 0
1, 172200, Note_on_c, 0, 53, 35
1, 172320, Note_on_c, 0, 53, 0
1, 172320, Note_on_c, 0, 82, 0
1, 172320, Note_on_c, 0, 78, 0
1, 172320, Note_on_c, 0, 70, 0
1, 172320, Note_on_c, 0, 68, 57
1, 172320, Note_on_c, 0, 77, 68
1, 172320, Note_on_c, 0, 80, 68
1, 172320, Note_on_c, 0, 56, 37
1, 172440, Note_on_c, 0, 56, 0
1, 172440, Note_on_c, 0, 61, 39
1, 172560, Tempo, 470588
1, 172560, Note_on_c, 0, 61, 0
1, 172560, Note_on_c, 0, 80, 0
1, 172560, Note_on_c, 0, 77, 0
1, 172560, Note_on_c, 0, 68, 0
1, 172560, Note_on_c, 0, 70, 61
1, 172560, Note_on_c, 0, 77, 72
1, 172560, Note_on_c, 0, 82, 72
1, 172560, Note_on_c, 0, 56, 37
1, 172680, Note_on_c, 0, 56, 0
1, 172680, Note_on_c, 0, 53, 35
1, 172800, Note_on_c, 0, 53, 0
1, 172800, Note_on_c, 0, 82, 0
1, 172800, Note_on_c, 0, 77, 0
1, 172800, Note_on_c, 0, 70, 0
1, 172800, Note_on_c, 0, 77, 77
1, 172800, Note_on_c, 0, 71, 65
1, 172800, Note_on_c, 0, 83, 77
1, 172800, Note_on_c, 0, 44, 38
1, 172812, Control_c, 0, 64, 0
1, 172920, Note_on_c, 0, 44, 0
1, 172920, Note_on_c, 0, 53, 37
1, 172932, Control_c, 0, 64, 127
1, 173040, Note_on_c, 0, 53, 0
1, 173040, Note_on_c, 0, 56, 39
1, 173160, Note_on_c, 0, 56, 0
1, 173160, Note_on_c, 0, 62, 41
1, 173280, Note_on_c, 0, 62, 0
1, 173280, Note_on_c, 0, 83, 0
1, 173280, Note_on_c, 0, 71, 0
1, 173280, Note_on_c, 0, 77, 0
1, 173280, Note_on_c, 0, 77, 75
1, 173280, Note_on_c, 0, 70, 63
1, 173280, Note_on_c, 0, 82, 75
1, 173280, Note_on_c, 0, 56, 39
1, 173400, Note_on_c, 0, 56, 0
1, 173400, Note_on_c, 0, 53, 36
1, 173520, Note_on_c, 0, 53, 0
1, 173520, Note_on_c, 0, 82, 0
1, 173520, Note_on_c, 0, 70, 0
1, 173520, Note_on_c, 0, 77, 0
1, 173520, Note_on_c, 0, 71, 66
1, 173520, Note_on_c, 0, 77, 78
1, 173520, Note_on_c, 0, 83, 78
1, 173520, Note_on_c, 0, 44, 40
1, 173532, Control_c, 0, 64, 0
1, 173606, Control_c, 0, 64, 127
1, 173640, Note_on_c, 0, 44, 0
1, 173640, Note_on_c, 0, 53, 39
1, 173760, Note_on_c, 0, 53, 0
1, 173760, Note_on_c, 0, 56, 43
1, 173880, Note_on_c, 0, 56, 0
1, 173880, Note_on_c, 0, 62, 48
1, 174000, Note_on_c, 0, 62, 0
1, 174000, Note_on_c, 0, 56, 45
1, 174120, Note_on_c, 0, 56, 0
1, 174120, Note_on_c, 0, 53, 41
1, 174240, Note_on_c, 0, 53, 0
1, 174240, Note_on_c, 0, 44, 40
1, 174360, Note_on_c, 0, 44, 0
1, 174360, Note_on_c, 0, 53, 40
1, 174480, Note_on_c, 0, 53, 0
1, 174480, Note_on_c, 0, 56, 43
1, 174600, Note_on_c, 0, 56, 0
1, 174600, Note_on_c, 0, 62, 45
1, 174720, Tempo, 418118
1, 174720, Note_on_c, 0, 62, 0
1, 174720, Note_on_c, 0, 83, 0
1, 174720, Note_on_c, 0, 77, 0
1, 174720, Note_on_c, 0, 71, 0
1, 174720, Note_on_c, 0, 70, 64
1, 174720, Note_on_c, 0, 77, 76
1, 174720, Note_on_c, 0, 82, 76
1, 174720, Note_on_c, 0, 56, 42
1, 174840, Note_on_c, 0, 56, 0
1, 174840, Note_on_c, 0, 53, 36
1, 174960, Tempo, 412371
1, 174960, Note_on_c, 0, 53, 0
1, 174960, Note_on_c, 0, 82, 0
1, 174960, Note_on_c, 0, 77, 0
1, 174960, Note_on_c, 0, 70, 0
1, 174960, Note_on_c, 0, 71, 68
1, 174960, Note_on_c, 0, 77, 81
1, 174960, Note_on_c, 0, 83, 81
1, 174960, Note_on_c, 0, 44, 52
1, 174967, Control_c, 0, 64, 0
1, 175029, Control_c, 0, 64, 127
1, 175080, Note_on_c, 0, 44, 0
1, 175080, Note_on_c, 0, 53, 40
1, 175200, Note_on_c, 0, 53, 0
1, 175200, Note_on_c, 0, 83, 0
1, 175200, Note_on_c, 0, 77, 0
1, 175200, Note_on_c, 0, 71, 0
1, 175200, Note_on_c, 0, 70, 66
1, 175200, Note_on_c, 0, 77, 78
1, 175200, Note_on_c, 0, 82, 78
1, 175200, Note_on_c, 0, 56, 43
1, 175320, Note_on_c, 0, 56, 0
1, 175320, Note_on_c, 0, 62, 47
1, 175440, Note_on_c, 0, 62, 0
1, 175440, Note_on_c, 0, 82, 0
1, 175440, Note_on_c, 0, 77, 0
1, 175440, Note_on_c, 0, 70, 0
1, 175440, Note_on_c, 0, 71, 66
1, 175440, Note_on_c, 0, 77, 78
1, 175440, Note_on_c, 0, 83, 78
1, 175440, Note_on_c, 0, 56, 44
1, 175560, Note_on_c, 0, 56, 0
1, 175560, Note_on_c, 0, 53, 40
1, 175680, Note_on_c, 0, 53, 0
1, 175680, Note_on_c, 0, 83, 0
1, 175680, Note_on_c, 0, 77, 0
1, 175680, Note_on_c, 0, 71, 0
1, 175680, Note_on_c, 0, 71, 68
1, 175680, Note_on_c, 0, 78, 81
1, 175680, Note_on_c, 0, 83, 81
1, 175680, Note_on_c, 0, 44, 54
1, 175691, Control_c, 0, 64, 0
1, 175786, Control_c, 0, 64, 127
1, 175800, Note_on_c, 0, 44, 0
1, 175800, Note_on_c, 0, 51, 43
1, 175920, Note_on_c, 0, 51, 0
1, 175920, Note_on_c, 0, 54, 47
1, 176040, Note_on_c, 0, 54, 0
1, 176040, Note_on_c, 0, 63, 50
1, 176160, Note_on_c, 0, 63, 0
1, 176160, Note_on_c, 0, 83, 0
1, 176160, Note_on_c, 0, 78, 0
1, 176160, Note_on_c, 0, 71, 0
1, 176160, Note_on_c, 0, 70, 69
1, 176160, Note_on_c, 0, 78, 82
1, 176160, Note_on_c, 0, 82, 82
1, 176160, Note_on_c, 0, 54, 46
1, 176280, Note_on_c, 0, 54, 0
1, 176280, Note_on_c, 0, 51, 43
1, 176400, Note_on_c, 0, 51, 0
1, 176400, Note_on_c, 0, 82, 0
1, 176400, Note_on_c, 0, 78, 0
1, 176400, Note_on_c, 0, 70, 0
1, 176400, Note_on_c, 0, 94, 95
1, 176400, Note_on_c, 0, 90, 95
1, 176400, Note_on_c, 0, 82, 80
1, 176400, Note_on_c, 0, 44, 67
1, 176520, Note_on_c, 0, 44, 0
1, 176520, Note_on_c, 0, 51, 50
1, 176640, Note_on_c, 0, 51, 0
1, 176640, Note_on_c, 0, 54, 55
1, 176760, Note_on_c, 0, 54, 0
1, 176760, Note_on_c, 0, 63, 58
1, 176880, Note_on_c, 0, 63, 0
1, 176880, Note_on_c, 0, 54, 55
1, 177000, Note_on_c, 0, 54, 0
1, 177000, Note_on_c, 0, 51, 52
1, 177120, Note_on_c, 0, 51, 0
1, 177120, Note_on_c, 0, 44, 62
1, 177130, Control_c, 0, 64, 0
1, 177226, Control_c, 0, 64, 127
1, 177240, Note_on_c, 0, 44, 0
1, 177240, Note_on_c, 0, 51, 50
1, 177360, Note_on_c, 0, 51, 0
1, 177360, Note_on_c, 0, 54, 55
1, 177480, Note_on_c, 0, 54, 0
1, 177480, Note_on_c, 0, 94, 0
1, 177480, Note_on_c, 0, 90, 0
1, 177480, Note_on_c, 0, 82, 0
1, 177480, Note_on_c, 0, 84, 80
1, 177480, Note_on_c, 0, 78, 80
1, 177480, Note_on_c, 0, 72, 68
1, 177480, Note_on_c, 0, 60, 58
1, 177590, Note_on_c, 0, 72, 0
1, 177590, Note_on_c, 0, 84, 0
1, 177590, Note_on_c, 0, 78, 0
1, 177600, Note_on_c, 0, 60, 0
1, 177600, Note_on_c, 0, 72, 68
1, 177600, Note_on_c, 0, 78, 80
1, 177600, Note_on_c, 0, 84, 80
1, 177600, Note_on_c, 0, 54, 55
1, 177720, Note_on_c, 0, 54, 0
1, 177720, Note_on_c, 0, 51, 51
1, 177830, Note_on_c, 0, 72, 0
1, 177830, Note_on_c, 0, 84, 0
1, 177830, Note_on_c, 0, 78, 0
1, 177840, Note_on_c, 0, 51, 0
1, 177840, Note_on_c, 0, 72, 79
1, 177840, Note_on_c, 0, 78, 93
1, 177840, Note_on_c, 0, 84, 93
1, 177840, Control_c, 0, 64, 0
1, 177840, Note_on_c, 0, 44, 67
1, 177918, Control_c, 0, 64, 127
1, 177960, Note_on_c, 0, 44, 0
1, 177960, Note_on_c, 0, 51, 57
1, 178080, Note_on_c, 0, 51, 0
1, 178080, Note_on_c, 0, 54, 61
1, 178200, Note_on_c, 0, 54, 0
1, 178200, Note_on_c, 0, 72, 0
1, 178200, Note_on_c, 0, 78, 0
1, 178200, Note_on_c, 0, 84, 0
1, 178200, Note_on_c, 0, 89, 89
1, 178200, Note_on_c, 0, 80, 89
1, 178200, Note_on_c, 0, 77, 75
1, 178200, Note_on_c, 0, 60, 65
1, 178320, Note_on_c, 0, 60, 0
1, 178320, Note_on_c, 0, 89, 0
1, 178320, Note_on_c, 0, 80, 0
1, 178320, Note_on_c, 0, 77, 0
1, 178320, Note_on_c, 0, 87, 92
1, 178320, Note_on_c, 0, 78, 92
1, 178320, Note_on_c, 0, 75, 78
1, 178320, Note_on_c, 0, 54, 62
1, 178440, Note_on_c, 0, 54, 0
1, 178440, Note_on_c, 0, 51, 59
1, 178560, Note_on_c, 0, 51, 0
1, 178560, Note_on_c, 0, 75, 0
1, 178560, Note_on_c, 0, 78, 0
1, 178560, Note_on_c, 0, 87, 0
1, 178560, Note_on_c, 0, 85, 101
1, 178560, Note_on_c, 0, 77, 101
1, 178560, Note_on_c, 0, 73, 85
1, 178560, Note_on_c, 0, 37, 71
1, 178565, Control_c, 0, 64, 0
1, 178652, Control_c, 0, 64, 127
1, 178680, Note_on_c, 0, 37, 0
1, 178680, Note_on_c, 0, 85, 0
1, 178680, Note_on_c, 0, 77, 0
1, 178680, Note_on_c, 0, 73, 0
1, 179040, Note_on_c, 0, 44, 70
1, 179160, Note_on_c, 0, 44, 0
1, 179160, Note_on_c, 0, 53, 75
1, 179280, Tempo, 385852
1, 179280, Note_on_c, 0, 53, 0
1, 179280, Note_on_c, 0, 65, 97
1, 179280, Note_on_c, 0, 61, 83
1, 179400, Note_on_c, 0, 65, 0
1, 179400, Note_on_c, 0, 73, 75
1, 179520, Note_on_c, 0, 73, 0
1, 179520, Note_on_c, 0, 61, 0
1, 179520, Note_on_c, 0, 80, 79
1, 179640, Note_on_c, 0, 80, 0
1, 179640, Note_on_c, 0, 77, 83
1, 179760, Note_on_c, 0, 77, 0
1, 179760, Note_on_c, 0, 85, 87
1, 179880, Note_on_c, 0, 85, 0
1, 179880, Note_on_c, 0, 94, 91
1, 180000, Note_on_c, 0, 94, 0
1, 180000, Note_on_c, 0, 84, 86
1, 180000, Note_on_c, 0, 92, 96
1, 180000, Note_on_c, 0, 32, 87
1, 180010, Control_c, 0, 64, 0
1, 180106, Control_c, 0, 64, 127
1, 180120, Note_on_c, 0, 32, 0
1, 180240, Note_on_c, 0, 92, 0
1, 180240, Note_on_c, 0, 84, 0
1, 180480, Note_on_c, 0, 44, 68
1, 180600, Note_on_c, 0, 44, 0
1, 180600, Note_on_c, 0, 51, 74
1, 180720, Tempo, 369231
1, 180720, Note_on_c, 0, 51, 0
1, 180720, Note_on_c, 0, 66, 97
1, 180720, Note_on_c, 0, 60, 84
1, 180840, Note_on_c, 0, 66, 0
1, 180840, Note_on_c, 0, 72, 75
1, 180960, Note_on_c, 0, 72, 0
1, 180960, Note_on_c, 0, 60, 0
1, 180960, Note_on_c, 0, 80, 80
1, 181080, Note_on_c, 0, 80, 0
1, 181080, Note_on_c, 0, 78, 84
1, 181200, Note_on_c, 0, 78, 0
1, 181200, Note_on_c, 0, 84, 88
1, 181320, Note_on_c, 0, 84, 0
1, 181320, Note_on_c, 0, 92, 93
1, 181440, Note_on_c, 0, 92, 0
1, 181440, Note_on_c, 0, 85, 87
1, 181440, Note_on_c, 0, 89, 97
1, 181440, Note_on_c, 0, 37, 87
1, 181452, Control_c, 0, 64, 0
1, 181546, Control_c, 0, 64, 127
1, 181560, Note_on_c, 0, 37, 0
1, 181680, Note_on_c, 0, 89, 0
1, 181680, Note_on_c, 0, 85, 0
1, 181920, Note_on_c, 0, 44, 70
1, 182040, Note_on_c, 0, 44, 0
1, 182040, Note_on_c, 0, 53, 75
1, 182160, Tempo, 378549
1, 182160, Note_on_c, 0, 53, 0
1, 182160, Note_on_c, 0, 65, 97
1, 182160, Note_on_c, 0, 61, 83
1, 182280, Note_on_c, 0, 65, 0
1, 182280, Note_on_c, 0, 73, 75
1, 182400, Note_on_c, 0, 73, 0
1, 182400, Note_on_c, 0, 61, 0
1, 182400, Note_on_c, 0, 80, 79
1, 182520, Note_on_c, 0, 80, 0
1, 182520, Note_on_c, 0, 77, 83
1, 182640, Note_on_c, 0, 77, 0
1, 182640, Note_on_c, 0, 85, 87
1, 182760, Note_on_c, 0, 85, 0
1, 182760, Note_on_c, 0, 94, 91
1, 182880, Note_on_c, 0, 94, 0
1, 182880, Note_on_c, 0, 84, 86
1, 182880, Note_on_c, 0, 92, 96
1, 182880, Note_on_c, 0, 32, 87
1, 182894, Control_c, 0, 64, 0
1, 183000, Note_on_c, 0, 32, 0
1, 183000, Control_c, 0, 64, 127
1, 183120, Note_on_c, 0, 92, 0
1, 183120, Note_on_c, 0, 84, 0
1, 183360, Note_on_c, 0, 44, 68
1, 183480, Note_on_c, 0, 44, 0
1, 183480, Note_on_c, 0, 51, 74
1, 183600, Tempo, 365854
1, 183600, Note_on_c, 0, 51, 0
1, 183600, Note_on_c, 0, 66, 97
1, 183600, Note_on_c, 0, 60, 84
1, 183720, Note_on_c, 0, 66, 0
1, 183720, Note_on_c, 0, 72, 75
1, 183840, Note_on_c, 0, 72, 0
1, 183840, Note_on_c, 0, 60, 0
1, 183840, Note_on_c, 0, 80, 80
1, 183960, Note_on_c, 0, 80, 0
1, 183960, Note_on_c, 0, 78, 84
1, 184080, Note_on_c, 0, 78, 0
1, 184080, Note_on_c, 0, 84, 88
1, 184200, Note_on_c, 0, 84, 0
1, 184200, Note_on_c, 0, 92, 93
1, 184320, Tempo, 333333
1, 184320, Note_on_c, 0, 92, 0
1, 184320, Note_on_c, 0, 85, 97
1, 184320, Note_on_c, 0, 89, 97
1, 184320, Note_on_c, 0, 25, 82
1, 184333, Control_c, 0, 64, 0
1, 184468, Control_c, 0, 64, 127
1, 184560, Note_on_c, 0, 25, 0
1, 184560, Note_on_c, 0, 89, 0
1, 184560, Note_on_c, 0, 85, 0
1, 184800, Note_on_c, 0, 44, 68
1, 184920, Note_on_c, 0, 44, 0
1, 184920, Note_on_c, 0, 53, 74
1, 185040, Tempo, 334262
1, 185040, Note_on_c, 0, 53, 0
1, 185040, Note_on_c, 0, 65, 97
1, 185040, Note_on_c, 0, 61, 84
1, 185120, Tempo, 333333
1, 185160, Note_on_c, 0, 65, 0
1, 185160, Note_on_c, 0, 73, 75
1, 185188, Tempo, 332410
1, 185260, Tempo, 331492
1, 185280, Note_on_c, 0, 73, 0
1, 185280, Note_on_c, 0, 61, 0
1, 185280, Note_on_c, 0, 80, 78
1, 185328, Tempo, 330579
1, 185400, Tempo, 329670
1, 185400, Note_on_c, 0, 80, 0
1, 185400, Note_on_c, 0, 77, 75
1, 185480, Tempo, 328767
1, 185520, Note_on_c, 0, 77, 0
1, 185520, Note_on_c, 0, 85, 79
1, 185548, Tempo, 327869
1, 185620, Tempo, 326975
1, 185640, Note_on_c, 0, 85, 0
1, 185640, Note_on_c, 0, 92, 75
1, 185688, Tempo, 326087
1, 185760, Tempo, 325203
1, 185760, Note_on_c, 0, 92, 0
1, 185760, Note_on_c, 0, 85, 78
1, 185880, Note_on_c, 0, 85, 0
1, 185880, Note_on_c, 0, 77, 75
1, 186000, Note_on_c, 0, 77, 0
1, 186000, Note_on_c, 0, 80, 80
1, 186120, Note_on_c, 0, 80, 0
1, 186120, Note_on_c, 0, 73, 75
1, 186240, Note_on_c, 0, 73, 0
1, 186240, Note_on_c, 0, 65, 79
1, 186360, Note_on_c, 0, 65, 0
1, 186360, Note_on_c, 0, 68, 75
1, 186480, Note_on_c, 0, 68, 0
1, 186480, Note_on_c, 0, 61, 78
1, 186600, Note_on_c, 0, 61, 0
1, 186600, Note_on_c, 0, 53, 77
1, 186720, Note_on_c, 0, 53, 0
1, 186720, Note_on_c, 0, 56, 82
1, 186840, Note_on_c, 0, 56, 0
1, 186840, Note_on_c, 0, 49, 79
1, 186960, Note_on_c, 0, 49, 0
1, 186960, Note_on_c, 0, 41, 87
1, 187080, Note_on_c, 0, 41, 0
1, 187080, Note_on_c, 0, 49, 85
1, 187200, Tempo, 389610
1, 187200, Note_on_c, 0, 49, 0
1, 187200, Note_on_c, 0, 25, 96
1, 187200, Note_on_c, 0, 37, 96
1, 187320, Note_on_c, 0, 37, 0
1, 187320, Note_on_c, 0, 25, 0
1, 187920, Note_on_c, 0, 97, 101
1, 187920, Note_on_c, 0, 85, 85
1, 187920, Note_on_c, 0, 61, 86
1, 187920, Note_on_c, 0, 73, 102
1, 188640, Note_on_c, 0, 73, 0
1, 188640, Note_on_c, 0, 97, 0
1, 188640, Note_on_c, 0, 85, 0
1, 188640, Note_on_c, 0, 61, 0
1, 188640, Control_c, 0, 64, 0
1, 190080, Key_signature, 3, "major"
1, 190080, Tempo, 754717
1, 190080, Marker_t, "Sostenuto"
1, 190080, Control_c, 0, 91, 127
1, 190080, Note_on_c, 0, 52, 44
1, 190080, Note_on_c, 0, 61, 52
1, 190080, Note_on_c, 0, 64, 52
1, 190080, Note_on_c, 0, 33, 40
1, 190080, Note_on_c, 0, 45, 40
1, 190080, Control_c, 0, 91, 127
1, 190800, Note_on_c, 0, 33, 0
1, 190800, Note_on_c, 0, 64, 0
1, 190800, Note_on_c, 0, 52, 0
1, 190800, Note_on_c, 0, 61, 0
1, 190800, Note_on_c, 0, 54, 37
1, 190800, Note_on_c, 0, 61, 44
1, 190800, Note_on_c, 0, 66, 44
1, 190800, Note_on_c, 0, 38, 36
1, 191520, Note_on_c, 0, 54, 0
1, 191760, Tempo, 481928
1, 191760, Note_on_c, 0, 61, 0
1, 191760, Note_on_c, 0, 59, 57
1, 192000, Note_on_c, 0, 59, 0
1, 192000, Note_on_c, 0, 61, 57
1, 192240, Tempo, 461538
1, 192240, Note_on_c, 0, 61, 0
1, 192240, Note_on_c, 0, 64, 60
1, 192480, Note_on_c, 0, 64, 0
1, 192480, Note_on_c, 0, 62, 56
1, 192720, Tempo, 474308
1, 192720, Note_on_c, 0, 62, 0
1, 192720, Note_on_c, 0, 61, 56
1, 192950, Note_on_c, 0, 61, 0
1, 192960, Tempo, 659341
1, 192960, Note_on_c, 0, 38, 0
1, 192960, Note_on_c, 0, 66, 0
1, 192960, Note_on_c, 0, 45, 0
1, 192960, Note_on_c, 0, 52, 44
1, 192960, Note_on_c, 0, 61, 52
1, 192960, Note_on_c, 0, 64, 52
1, 192960, Note_on_c, 0, 33, 40
1, 192960, Note_on_c, 0, 45, 40
1, 193680, Note_on_c, 0, 33, 0
1, 193680, Note_on_c, 0, 64, 0
1, 193680, Note_on_c, 0, 52, 0
1, 193680, Note_on_c, 0, 61, 0
1, 193680, Note_on_c, 0, 54, 37
1, 193680, Note_on_c, 0, 61, 44
1, 193680, Note_on_c, 0, 66, 44
1, 193680, Note_on_c, 0, 38, 36
1, 194400, Note_on_c, 0, 54, 0
1, 194640, Tempo, 461538
1, 194640, Note_on_c, 0, 61, 0
1, 194640, Note_on_c, 0, 59, 57
1, 194880, Tempo, 517241
1, 194880, Note_on_c, 0, 59, 0
1, 194880, Note_on_c, 0, 61, 57
1, 195120, Tempo, 476190
1, 195120, Note_on_c, 0, 61, 0
1, 195120, Note_on_c, 0, 64, 60
1, 195360, Tempo, 740741
1, 195360, Note_on_c, 0, 64, 0
1, 195360, Note_on_c, 0, 62, 56
1, 195600, Tempo, 1290323
1, 195720, Note_on_c, 0, 62, 0
1, 195720, Note_on_c, 0, 61, 56
1, 195830, Note_on_c, 0, 61, 0
1, 195840, Tempo, 784314
1, 195840, Note_on_c, 0, 38, 0
1, 195840, Note_on_c, 0, 66, 0
1, 195840, Note_on_c, 0, 45, 0
1, 195840, Note_on_c, 0, 56, 37
1, 195840, Note_on_c, 0, 61, 44
1, 195840, Note_on_c, 0, 64, 44
1, 195840, Note_on_c, 0, 40, 34
1, 195840, Note_on_c, 0, 50, 34
1, 196560, Tempo, 1132075
1, 196560, Note_on_c, 0, 61, 0
1, 196560, Note_on_c, 0, 59, 37
1, 197040, Note_on_c, 0, 59, 0
1, 197040, Note_on_c, 0, 50, 0
1, 197040, Note_on_c, 0, 56, 0
1, 197040, Note_on_c, 0, 40, 0
1, 197040, Note_on_c, 0, 57, 32
1, 197040, Note_on_c, 0, 45, 30
1, 197040, Note_on_c, 0, 49, 30
1, 197280, Tempo, 759494
1, 197280, Note_on_c, 0, 49, 0
1, 197280, Note_on_c, 0, 64, 0
1, 197280, Note_on_c, 0, 57, 0
1, 197280, Note_on_c, 0, 61, 30
1, 197280, Note_on_c, 0, 52, 26
1, 198720, Tempo, 641711
1, 198720, Note_on_c, 0, 52, 0
1, 198720, Note_on_c, 0, 61, 0
1, 198720, Note_on_c, 0, 45, 0
1, 198720, Note_on_c, 0, 73, 53
1, 199200, Note_on_c, 0, 52, 32
1, 199200, Note_on_c, 0, 55, 32
1, 199200, Note_on_c, 0, 58, 32
1, 199320, Note_on_c, 0, 73, 0
1, 199320, Note_on_c, 0, 71, 45
1, 199380, Note_on_c, 0, 71, 0
1, 199380, Note_on_c, 0, 73, 45
1, 199440, Tempo, 540541
1, 199440, Note_on_c, 0, 73, 0
1, 199440, Note_on_c, 0, 52, 0
1, 199440, Note_on_c, 0, 55, 0
1, 199440, Note_on_c, 0, 58, 0
1, 199440, Note_on_c, 0, 71, 50
1, 199440, Note_on_c, 0, 50, 38
1, 199440, Note_on_c, 0, 54, 38
1, 199440, Note_on_c, 0, 59, 38
1, 199680, Note_on_c, 0, 59, 0
1, 199680, Note_on_c, 0, 54, 0
1, 199680, Note_on_c, 0, 50, 0
1, 199800, Note_on_c, 0, 71, 0
1, 199800, Note_on_c, 0, 69, 47
1, 199920, Note_on_c, 0, 69, 0
1, 199920, Note_on_c, 0, 71, 50
1, 199920, Note_on_c, 0, 54, 32
1, 199920, Note_on_c, 0, 57, 32
1, 199920, Note_on_c, 0, 62, 32
1, 200160, Note_on_c, 0, 62, 0
1, 200160, Note_on_c, 0, 71, 0
1, 200160, Note_on_c, 0, 54, 0
1, 200160, Note_on_c, 0, 57, 0
1, 200160, Note_on_c, 0, 73, 53
1, 200160, Note_on_c, 0, 53, 36
1, 200160, Note_on_c, 0, 56, 36
1, 200160, Note_on_c, 0, 61, 36
1, 200520, Note_on_c, 0, 73, 0
1, 200520, Note_on_c, 0, 74, 50
1, 200640, Note_on_c, 0, 74, 0
1, 200640, Note_on_c, 0, 61, 0
1, 200640, Note_on_c, 0, 56, 0
1, 200640, Note_on_c, 0, 53, 0
1, 200640, Note_on_c, 0, 73, 48
1, 200640, Note_on_c, 0, 52, 31
1, 200640, Note_on_c, 0, 55, 31
1, 200640, Note_on_c, 0, 58, 31
1, 200760, Note_on_c, 0, 73, 0
1, 200760, Note_on_c, 0, 71, 43
1, 200820, Note_on_c, 0, 71, 0
1, 200820, Note_on_c, 0, 73, 43
1, 200880, Tempo, 612245
1, 200880, Note_on_c, 0, 73, 0
1, 200880, Note_on_c, 0, 52, 0
1, 200880, Note_on_c, 0, 55, 0
1, 200880, Note_on_c, 0, 58, 0
1, 200880, Note_on_c, 0, 71, 52
1, 200880, Note_on_c, 0, 50, 37
1, 200880, Note_on_c, 0, 54, 37
1, 200880, Note_on_c, 0, 59, 37
1, 201120, Note_on_c, 0, 59, 0
1, 201120, Note_on_c, 0, 54, 0
1, 201120, Note_on_c, 0, 50, 0
1, 201240, Tempo, 612245
1, 201240, Note_on_c, 0, 71, 0
1, 201240, Note_on_c, 0, 69, 48
1, 201360, Tempo, 975610
1, 201360, Note_on_c, 0, 69, 0
1, 201360, Note_on_c, 0, 71, 47
1, 201360, Note_on_c, 0, 54, 32
1, 201360, Note_on_c, 0, 57, 32
1, 201360, Note_on_c, 0, 62, 32
1, 201600, Note_on_c, 0, 62, 0
1, 201600, Note_on_c, 0, 71, 0
1, 201600, Note_on_c, 0, 54, 0
1, 201600, Note_on_c, 0, 57, 0
1, 201600, Note_on_c, 0, 73, 39
1, 201600, Note_on_c, 0, 49, 29
1, 201630, Note_on_c, 0, 56, 29
1, 201660, Note_on_c, 0, 65, 29
1, 201660, Control_c, 0, 64, 127
1, 201720, Tempo, 458015
1, 201720, Note_on_c, 0, 73, 0
1, 201720, Note_on_c, 0, 61, 29
1, 201840, Note_on_c, 0, 61, 0
1, 201840, Note_on_c, 0, 65, 0
1, 201840, Note_on_c, 0, 56, 0
1, 201840, Note_on_c, 0, 49, 0
1, 201840, Note_on_c, 0, 73, 29
1, 201960, Note_on_c, 0, 73, 0
1, 201960, Note_on_c, 0, 68, 29
1, 202080, Note_on_c, 0, 68, 0
1, 202080, Note_on_c, 0, 73, 29
1, 202200, Note_on_c, 0, 73, 0
1, 202200, Note_on_c, 0, 68, 29
1, 202320, Note_on_c, 0, 68, 0
1, 202320, Note_on_c, 0, 80, 29
1, 202320, Note_on_c, 0, 37, 25
1, 202440, Note_on_c, 0, 37, 0
1, 202440, Note_on_c, 0, 80, 0
1, 202440, Note_on_c, 0, 73, 29
1, 202560, Note_on_c, 0, 73, 0
1, 202560, Note_on_c, 0, 80, 29
1, 202680, Note_on_c, 0, 80, 0
1, 202680, Note_on_c, 0, 73, 29
1, 202800, Note_on_c, 0, 73, 0
1, 202800, Note_on_c, 0, 85, 29
1, 202920, Note_on_c, 0, 85, 0
1, 202920, Note_on_c, 0, 80, 29
1, 203040, Tempo, 476190
1, 203040, Note_on_c, 0, 80, 0
1, 203040, Note_on_c, 0, 85, 29
1, 203160, Note_on_c, 0, 85, 0
1, 203160, Note_on_c, 0, 80, 29
1, 203280, Tempo, 491803
1, 203280, Note_on_c, 0, 80, 0
1, 203280, Note_on_c, 0, 92, 29
1, 203400, Note_on_c, 0, 92, 0
1, 203400, Note_on_c, 0, 85, 29
1, 203520, Note_on_c, 0, 85, 0
1, 203520, Note_on_c, 0, 92, 29
1, 203640, Note_on_c, 0, 92, 0
1, 203640, Note_on_c, 0, 85, 29
1, 203760, Tempo, 566038
1, 203760, Note_on_c, 0, 85, 0
1, 203760, Note_on_c, 0, 97, 39
1, 203880, Note_on_c, 0, 97, 0
1, 203979, Control_c, 0, 64, 0
1, 204480, Tempo, 754717
1, 204480, Control_c, 0, 91, 127
1, 204480, Note_on_c, 0, 52, 44
1, 204480, Note_on_c, 0, 61, 52
1, 204480, Note_on_c, 0, 64, 52
1, 204480, Note_on_c, 0, 33, 40
1, 204480, Note_on_c, 0, 45, 40
1, 204480, Control_c, 0, 91, 127
1, 205200, Note_on_c, 0, 33, 0
1, 205200, Note_on_c, 0, 64, 0
1, 205200, Note_on_c, 0, 52, 0
1, 205200, Note_on_c, 0, 54, 37
1, 205200, Note_on_c, 0, 66, 44
1, 205200, Note_on_c, 0, 38, 36
1, 205920, Note_on_c, 0, 54, 0
1, 206160, Tempo, 481928
1, 206160, Note_on_c, 0, 61, 0
1, 206160, Note_on_c, 0, 59, 57
1, 206400, Note_on_c, 0, 59, 0
1, 206400, Note_on_c, 0, 61, 57
1, 206640, Tempo, 461538
1, 206640, Note_on_c, 0, 61, 0
1, 206640, Note_on_c, 0, 64, 60
1, 206880, Note_on_c, 0, 64, 0
1, 206880, Note_on_c, 0, 62, 56
1, 207120, Tempo, 474308
1, 207120, Note_on_c, 0, 62, 0
1, 207120, Note_on_c, 0, 61, 56
1, 207360, Tempo, 659341
1, 207360, Note_on_c, 0, 61, 0
1, 207360, Note_on_c, 0, 38, 0
1, 207360, Note_on_c, 0, 66, 0
1, 207360, Note_on_c, 0, 45, 0
1, 207360, Note_on_c, 0, 52, 44
1, 207360, Note_on_c, 0, 61, 52
1, 207360, Note_on_c, 0, 64, 52
1, 207360, Note_on_c, 0, 33, 40
1, 207360, Note_on_c, 0, 45, 40
1, 208080, Note_on_c, 0, 33, 0
1, 208080, Note_on_c, 0, 64, 0
1, 208080, Note_on_c, 0, 52, 0
1, 208080, Note_on_c, 0, 54, 37
1, 208080, Note_on_c, 0, 66, 44
1, 208080, Note_on_c, 0, 38, 36
1, 209040, Tempo, 461538
1, 209040, Note_on_c, 0, 61, 0
1, 209040, Note_on_c, 0, 59, 57
1, 209280, Tempo, 517241
1, 209280, Note_on_c, 0, 59, 0
1, 209280, Note_on_c, 0, 61, 57
1, 209520, Tempo, 476190
1, 209520, Note_on_c, 0, 61, 0
1, 209520, Note_on_c, 0, 64, 60
1, 209760, Tempo, 740741
1, 209760, Note_on_c, 0, 64, 0
1, 209760, Note_on_c, 0, 62, 56
1, 210000, Tempo, 1395349
1, 210120, Tempo, 944882
1, 210120, Note_on_c, 0, 62, 0
1, 210120, Note_on_c, 0, 61, 56
1, 210170, Note_on_c, 0, 61, 0
1, 210180, Note_on_c, 0, 61, 50
1, 210240, Tempo, 714286
1, 210240, Note_on_c, 0, 61, 0
1, 210240, Note_on_c, 0, 66, 0
1, 210240, Note_on_c, 0, 69, 56
1, 210480, Tempo, 681818
1, 210480, Note_on_c, 0, 69, 0
1, 210480, Note_on_c, 0, 66, 53
1, 210720, Note_on_c, 0, 66, 0
1, 210720, Note_on_c, 0, 62, 51
1, 210960, Tempo, 784314
1, 210960, Note_on_c, 0, 62, 0
1, 210960, Note_on_c, 0, 38, 0
1, 210960, Note_on_c, 0, 54, 0
1, 210960, Note_on_c, 0, 45, 0
1, 210960, Note_on_c, 0, 56, 37
1, 210960, Note_on_c, 0, 61, 44
1, 210960, Note_on_c, 0, 64, 44
1, 210960, Note_on_c, 0, 40, 34
1, 210960, Note_on_c, 0, 52, 34
1, 211680, Tempo, 882353
1, 211680, Note_on_c, 0, 52, 0
1, 211680, Note_on_c, 0, 61, 0
1, 211680, Note_on_c, 0, 59, 37
1, 211680, Note_on_c, 0, 50, 34
1, 212160, Tempo, 952381
1, 212160, Note_on_c, 0, 50, 0
1, 212160, Note_on_c, 0, 56, 0
1, 212160, Note_on_c, 0, 40, 0
1, 212160, Note_on_c, 0, 59, 0
1, 212160, Note_on_c, 0, 57, 32
1, 212160, Note_on_c, 0, 45, 30
1, 212160, Note_on_c, 0, 49, 30
1, 212400, Tempo, 759494
1, 212400, Note_on_c, 0, 49, 0
1, 212400, Note_on_c, 0, 64, 0
1, 212400, Note_on_c, 0, 57, 0
1, 212400, Note_on_c, 0, 45, 0
1, 212400, Note_on_c, 0, 61, 30
1, 212400, Note_on_c, 0, 45, 26
1, 212400, Note_on_c, 0, 52, 26
1, 213840, Note_on_c, 0, 52, 0
1, 213840, Note_on_c, 0, 45, 0
1, 213840, Note_on_c, 0, 61, 0
1, 214560, Tempo, 638298
1, 214560, Note_on_c, 0, 73, 42
1, 216120, Tempo, 1111111
1, 216120, Note_on_c, 0, 73, 0
1, 216120, Note_on_c, 0, 75, 42
1, 216240, Tempo, 902256
1, 216240, Note_on_c, 0, 75, 0
1, 216240, Note_on_c, 0, 78, 43
1, 216360, Tempo, 714286
1, 216360, Note_on_c, 0, 78, 0
1, 216360, Note_on_c, 0, 76, 41
1, 216480, Note_on_c, 0, 76, 0
1, 216480, Note_on_c, 0, 73, 39
1, 216600, Tempo, 967742
1, 216600, Note_on_c, 0, 73, 0
1, 216600, Note_on_c, 0, 69, 39
1, 216720, Note_on_c, 0, 69, 0
1, 216720, Note_on_c, 0, 68, 35
1, 216750, Note_on_c, 0, 68, 0
1, 216780, Note_on_c, 0, 68, 35
1, 216840, Tempo, 681818
1, 216840, Note_on_c, 0, 68, 0
1, 216840, Note_on_c, 0, 80, 43
1, 217200, Note_on_c, 0, 59, 26
1, 217200, Note_on_c, 0, 62, 26
1, 217200, Note_on_c, 0, 65, 26
1, 217320, Note_on_c, 0, 80, 0
1, 217320, Note_on_c, 0, 78, 37
1, 217380, Note_on_c, 0, 78, 0
1, 217380, Note_on_c, 0, 80, 37
1, 217440, Tempo, 574163
1, 217440, Note_on_c, 0, 80, 0
1, 217440, Note_on_c, 0, 59, 0
1, 217440, Note_on_c, 0, 62, 0
1, 217440, Note_on_c, 0, 65, 0
1, 217440, Note_on_c, 0, 78, 43
1, 217440, Note_on_c, 0, 57, 31
1, 217440, Note_on_c, 0, 61, 31
1, 217440, Note_on_c, 0, 66, 31
1, 217680, Note_on_c, 0, 66, 0
1, 217680, Note_on_c, 0, 61, 0
1, 217680, Note_on_c, 0, 57, 0
1, 217800, Note_on_c, 0, 78, 0
1, 217800, Note_on_c, 0, 76, 39
1, 217920, Note_on_c, 0, 76, 0
1, 217920, Note_on_c, 0, 78, 39
1, 217920, Note_on_c, 0, 61, 28
1, 217920, Note_on_c, 0, 64, 28
1, 217920, Note_on_c, 0, 69, 28
1, 218160, Note_on_c, 0, 69, 0
1, 218160, Note_on_c, 0, 78, 0
1, 218160, Note_on_c, 0, 61, 0
1, 218160, Note_on_c, 0, 64, 0
1, 218160, Note_on_c, 0, 80, 42
1, 218160, Note_on_c, 0, 60, 31
1, 218160, Note_on_c, 0, 63, 31
1, 218160, Note_on_c, 0, 68, 31
1, 218520, Note_on_c, 0, 80, 0
1, 218520, Note_on_c, 0, 81, 40
1, 218640, Note_on_c, 0, 81, 0
1, 218640, Note_on_c, 0, 68, 0
1, 218640, Note_on_c, 0, 63, 0
1, 218640, Note_on_c, 0, 60, 0
1, 218640, Note_on_c, 0, 80, 40
1, 218640, Note_on_c, 0, 59, 27
1, 218640, Note_on_c, 0, 62, 27
1, 218640, Note_on_c, 0, 65, 27
1, 218760, Note_on_c, 0, 80, 0
1, 218760, Note_on_c, 0, 78, 37
1, 218820, Note_on_c, 0, 78, 0
1, 218820, Note_on_c, 0, 80, 37
1, 218880, Tempo, 745342
1, 218880, Note_on_c, 0, 80, 0
1, 218880, Note_on_c, 0, 59, 0
1, 218880, Note_on_c, 0, 62, 0
1, 218880, Note_on_c, 0, 65, 0
1, 218880, Note_on_c, 0, 78, 44
1, 218880, Note_on_c, 0, 57, 31
1, 218880, Note_on_c, 0, 61, 31
1, 218880, Note_on_c, 0, 66, 31
1, 219120, Tempo, 888889
1, 219120, Note_on_c, 0, 66, 0
1, 219120, Note_on_c, 0, 61, 0
1, 219120, Note_on_c, 0, 57, 0
1, 219240, Note_on_c, 0, 78, 0
1, 219240, Note_on_c, 0, 76, 33
1, 219360, Tempo, 845070
1, 219360, Note_on_c, 0, 76, 0
1, 219360, Note_on_c, 0, 78, 31
1, 219360, Note_on_c, 0, 61, 25
1, 219360, Note_on_c, 0, 64, 25
1, 219360, Note_on_c, 0, 69, 25
1, 219600, Tempo, 705882
1, 219600, Note_on_c, 0, 69, 0
1, 219600, Note_on_c, 0, 78, 0
1, 219600, Note_on_c, 0, 61, 0
1, 219600, Note_on_c, 0, 64, 0
1, 219600, Note_on_c, 0, 80, 31
1, 219600, Note_on_c, 0, 56, 24
1, 219600, Note_on_c, 0, 63, 24
1, 219600, Note_on_c, 0, 72, 24
1, 219737, Control_c, 0, 64, 127
1, 219840, Note_on_c, 0, 72, 0
1, 219840, Note_on_c, 0, 63, 0
1, 219840, Note_on_c, 0, 56, 0
1, 220320, Note_on_c, 0, 44, 24
1, 220560, Note_on_c, 0, 44, 0
1, 220680, Tempo, 521739
1, 220680, Note_on_c, 0, 80, 0
1, 220680, Note_on_c, 0, 68, 25
1, 220800, Note_on_c, 0, 68, 0
1, 220800, Note_on_c, 0, 80, 25
1, 220920, Note_on_c, 0, 80, 0
1, 220920, Note_on_c, 0, 75, 25
1, 221040, Note_on_c, 0, 75, 0
1, 221040, Note_on_c, 0, 80, 25
1, 221160, Note_on_c, 0, 80, 0
1, 221160, Note_on_c, 0, 75, 25
1, 221280, Tempo, 588235
1, 221280, Note_on_c, 0, 75, 0
1, 221280, Note_on_c, 0, 87, 21
1, 221400, Note_on_c, 0, 87, 0
1, 221400, Note_on_c, 0, 80, 21
1, 221520, Tempo, 697674
1, 221520, Note_on_c, 0, 80, 0
1, 221520, Note_on_c, 0, 87, 21
1, 221640, Tempo, 916031
1, 221640, Note_on_c, 0, 87, 0
1, 221640, Note_on_c, 0, 80, 21
1, 221760, Tempo, 2000000
1, 221760, Note_on_c, 0, 80, 0
1, 221760, Note_on_c, 0, 92, 28
1, 221880, Note_on_c, 0, 92, 0
1, 221915, Control_c, 0, 64, 0
1, 222000, Tempo, 727273
1, 222000, Marker_t, "tranquillo"
1, 222000, Note_on_c, 0, 80, 44
1, 222240, Tempo, 750000
1, 222240, Note_on_c, 0, 80, 0
1, 222240, Note_on_c, 0, 78, 44
1, 222480, Tempo, 800000
1, 222480, Note_on_c, 0, 78, 0
1, 222480, Note_on_c, 0, 76, 45
1, 222480, Note_on_c, 0, 49, 33
1, 222720, Tempo, 641711
1, 222720, Note_on_c, 0, 67, 34
1, 222720, Note_on_c, 0, 64, 30
1, 222840, Note_on_c, 0, 67, 0
1, 222840, Note_on_c, 0, 68, 34
1, 222960, Note_on_c, 0, 68, 0
1, 222960, Note_on_c, 0, 64, 0
1, 222960, Note_on_c, 0, 71, 34
1, 222960, Note_on_c, 0, 56, 30
1, 223040, Note_on_c, 0, 71, 0
1, 223040, Note_on_c, 0, 69, 34
1, 223120, Note_on_c, 0, 69, 0
1, 223120, Note_on_c, 0, 68, 34
1, 223200, Tempo, 659341
1, 223200, Note_on_c, 0, 68, 0
1, 223200, Note_on_c, 0, 49, 0
1, 223200, Note_on_c, 0, 68, 43
1, 223200, Note_on_c, 0, 51, 33
1, 223200, Note_on_c, 0, 54, 33
1, 223440, Tempo, 588235
1, 223440, Note_on_c, 0, 76, 0
1, 223440, Note_on_c, 0, 56, 0
1, 223440, Note_on_c, 0, 76, 42
1, 223440, Note_on_c, 0, 60, 32
1, 223680, Note_on_c, 0, 60, 0
1, 223680, Note_on_c, 0, 76, 0
1, 223680, Note_on_c, 0, 75, 42
1, 223680, Note_on_c, 0, 56, 32
1, 223920, Tempo, 524017
1, 223920, Note_on_c, 0, 75, 0
1, 223920, Note_on_c, 0, 54, 0
1, 223920, Note_on_c, 0, 51, 0
1, 223920, Note_on_c, 0, 73, 44
1, 223920, Note_on_c, 0, 52, 33
1, 224160, Tempo, 506329
1, 224160, Note_on_c, 0, 73, 0
1, 224160, Note_on_c, 0, 56, 0
1, 224160, Note_on_c, 0, 68, 0
1, 224160, Note_on_c, 0, 67, 36
1, 224160, Note_on_c, 0, 61, 32
1, 224280, Note_on_c, 0, 67, 0
1, 224280, Note_on_c, 0, 68, 32
1, 224400, Note_on_c, 0, 68, 0
1, 224400, Note_on_c, 0, 61, 0
1, 224400, Note_on_c, 0, 71, 36
1, 224400, Note_on_c, 0, 56, 32
1, 224480, Note_on_c, 0, 71, 0
1, 224480, Note_on_c, 0, 69, 36
1, 224560, Note_on_c, 0, 69, 0
1, 224560, Note_on_c, 0, 68, 32
1, 224640, Note_on_c, 0, 68, 0
1, 224640, Note_on_c, 0, 52, 0
1, 224640, Note_on_c, 0, 68, 44
1, 224640, Note_on_c, 0, 48, 33
1, 224880, Tempo, 495868
1, 224880, Note_on_c, 0, 56, 0
1, 224880, Note_on_c, 0, 80, 43
1, 224880, Note_on_c, 0, 63, 31
1, 225120, Note_on_c, 0, 63, 0
1, 225120, Note_on_c, 0, 80, 0
1, 225120, Note_on_c, 0, 78, 40
1, 225120, Note_on_c, 0, 56, 31
1, 225360, Tempo, 506329
1, 225360, Note_on_c, 0, 78, 0
1, 225360, Note_on_c, 0, 48, 0
1, 225360, Note_on_c, 0, 76, 46
1, 225360, Note_on_c, 0, 49, 33
1, 225600, Tempo, 489796
1, 225600, Note_on_c, 0, 68, 0
1, 225600, Note_on_c, 0, 56, 0
1, 225600, Note_on_c, 0, 67, 38
1, 225600, Note_on_c, 0, 64, 33
1, 225720, Note_on_c, 0, 67, 0
1, 225720, Note_on_c, 0, 68, 34
1, 225840, Note_on_c, 0, 68, 0
1, 225840, Note_on_c, 0, 64, 0
1, 225840, Note_on_c, 0, 71, 38
1, 225840, Note_on_c, 0, 56, 31
1, 225920, Note_on_c, 0, 71, 0
1, 225920, Note_on_c, 0, 69, 38
1, 226000, Note_on_c, 0, 69, 0
1, 226000, Note_on_c, 0, 68, 35
1, 226080, Tempo, 502092
1, 226080, Note_on_c, 0, 68, 0
1, 226080, Note_on_c, 0, 49, 0
1, 226080, Note_on_c, 0, 68, 42
1, 226080, Note_on_c, 0, 51, 33
1, 226080, Note_on_c, 0, 54, 33
1, 226320, Tempo, 487805
1, 226320, Note_on_c, 0, 76, 0
1, 226320, Note_on_c, 0, 56, 0
1, 226320, Note_on_c, 0, 76, 43
1, 226320, Note_on_c, 0, 60, 31
1, 226560, Note_on_c, 0, 60, 0
1, 226560, Note_on_c, 0, 76, 0
1, 226560, Note_on_c, 0, 75, 41
1, 226560, Note_on_c, 0, 56, 31
1, 226800, Tempo, 500000
1, 226800, Note_on_c, 0, 75, 0
1, 226800, Note_on_c, 0, 54, 0
1, 226800, Note_on_c, 0, 51, 0
1, 226800, Note_on_c, 0, 68, 0
1, 226800, Note_on_c, 0, 73, 47
1, 226800, Note_on_c, 0, 52, 33
1, 227040, Tempo, 483871
1, 227040, Note_on_c, 0, 73, 0
1, 227040, Note_on_c, 0, 56, 0
1, 227040, Note_on_c, 0, 72, 37
1, 227040, Note_on_c, 0, 61, 31
1, 227160, Note_on_c, 0, 72, 0
1, 227160, Note_on_c, 0, 73, 37
1, 227280, Note_on_c, 0, 73, 0
1, 227280, Note_on_c, 0, 61, 0
1, 227280, Note_on_c, 0, 76, 37
1, 227280, Note_on_c, 0, 56, 31
1, 227360, Note_on_c, 0, 76, 0
1, 227360, Note_on_c, 0, 74, 37
1, 227440, Note_on_c, 0, 74, 0
1, 227440, Note_on_c, 0, 73, 34
1, 227520, Tempo, 500000
1, 227520, Note_on_c, 0, 73, 0
1, 227520, Note_on_c, 0, 56, 0
1, 227520, Note_on_c, 0, 52, 0
1, 227520, Note_on_c, 0, 73, 41
1, 227520, Note_on_c, 0, 59, 31
1, 227520, Note_on_c, 0, 53, 33
1, 227760, Tempo, 476190
1, 227760, Note_on_c, 0, 59, 0
1, 227760, Note_on_c, 0, 85, 46
1, 227760, Note_on_c, 0, 68, 31
1, 228000, Tempo, 506329
1, 228000, Note_on_c, 0, 68, 0
1, 228000, Note_on_c, 0, 85, 0
1, 228000, Note_on_c, 0, 83, 44
1, 228000, Note_on_c, 0, 61, 31
1, 228240, Tempo, 591133
1, 228240, Note_on_c, 0, 83, 0
1, 228240, Note_on_c, 0, 53, 0
1, 228240, Note_on_c, 0, 81, 53
1, 228240, Note_on_c, 0, 54, 36
1, 228240, Note_on_c, 0, 57, 36
1, 228460, Tempo, 485830
1, 228480, Note_on_c, 0, 73, 0
1, 228480, Note_on_c, 0, 61, 0
1, 228480, Note_on_c, 0, 72, 32
1, 228480, Note_on_c, 0, 66, 31
1, 228600, Note_on_c, 0, 72, 0
1, 228600, Note_on_c, 0, 73, 30
1, 228720, Note_on_c, 0, 73, 0
1, 228720, Note_on_c, 0, 66, 0
1, 228720, Note_on_c, 0, 76, 32
1, 228720, Note_on_c, 0, 61, 31
1, 228800, Note_on_c, 0, 76, 0
1, 228800, Note_on_c, 0, 74, 32
1, 228880, Note_on_c, 0, 74, 0
1, 228880, Note_on_c, 0, 73, 30
1, 228960, Tempo, 563380
1, 228960, Note_on_c, 0, 73, 0
1, 228960, Note_on_c, 0, 57, 0
1, 228960, Note_on_c, 0, 54, 0
1, 228960, Note_on_c, 0, 73, 37
1, 228960, Note_on_c, 0, 56, 33
1, 228960, Note_on_c, 0, 59, 33
1, 229200, Tempo, 487805
1, 229200, Note_on_c, 0, 81, 0
1, 229200, Note_on_c, 0, 61, 0
1, 229200, Note_on_c, 0, 81, 38
1, 229200, Note_on_c, 0, 65, 31
1, 229440, Note_on_c, 0, 65, 0
1, 229440, Note_on_c, 0, 81, 0
1, 229440, Note_on_c, 0, 80, 36
1, 229440, Note_on_c, 0, 61, 31
1, 229680, Tempo, 634921
1, 229680, Note_on_c, 0, 80, 0
1, 229680, Note_on_c, 0, 59, 0
1, 229680, Note_on_c, 0, 56, 0
1, 229680, Note_on_c, 0, 78, 40
1, 229680, Note_on_c, 0, 57, 33
1, 229920, Tempo, 535714
1, 229920, Note_on_c, 0, 78, 0
1, 229920, Note_on_c, 0, 61, 0
1, 229920, Note_on_c, 0, 73, 0
1, 229920, Note_on_c, 0, 72, 27
1, 229920, Note_on_c, 0, 66, 27
1, 230040, Note_on_c, 0, 72, 0
1, 230040, Note_on_c, 0, 73, 28
1, 230160, Note_on_c, 0, 73, 0
1, 230160, Note_on_c, 0, 66, 0
1, 230160, Note_on_c, 0, 76, 30
1, 230160, Note_on_c, 0, 61, 27
1, 230240, Note_on_c, 0, 76, 0
1, 230240, Note_on_c, 0, 74, 30
1, 230320, Note_on_c, 0, 74, 0
1, 230320, Note_on_c, 0, 73, 27
1, 230400, Tempo, 512821
1, 230400, Note_on_c, 0, 73, 0
1, 230400, Note_on_c, 0, 57, 0
1, 230400, Note_on_c, 0, 73, 38
1, 230400, Note_on_c, 0, 53, 30
1, 230640, Tempo, 468750
1, 230640, Note_on_c, 0, 61, 0
1, 230640, Note_on_c, 0, 85, 40
1, 230640, Note_on_c, 0, 68, 31
1, 230880, Tempo, 474308
1, 230880, Note_on_c, 0, 68, 0
1, 230880, Note_on_c, 0, 85, 0
1, 230880, Note_on_c, 0, 83, 37
1, 230880, Note_on_c, 0, 61, 31
1, 231120, Tempo, 481928
1, 231120, Note_on_c, 0, 83, 0
1, 231120, Note_on_c, 0, 53, 0
1, 231120, Note_on_c, 0, 81, 45
1, 231120, Note_on_c, 0, 54, 33
1, 231120, Note_on_c, 0, 57, 33
1, 231360, Tempo, 459770
1, 231360, Note_on_c, 0, 73, 0
1, 231360, Note_on_c, 0, 61, 0
1, 231360, Note_on_c, 0, 72, 37
1, 231360, Note_on_c, 0, 69, 31
1, 231480, Note_on_c, 0, 72, 0
1, 231480, Note_on_c, 0, 73, 37
1, 231600, Note_on_c, 0, 73, 0
1, 231600, Note_on_c, 0, 69, 0
1, 231600, Note_on_c, 0, 76, 37
1, 231600, Note_on_c, 0, 61, 31
1, 231680, Note_on_c, 0, 76, 0
1, 231680, Note_on_c, 0, 74, 37
1, 231760, Note_on_c, 0, 74, 0
1, 231760, Note_on_c, 0, 73, 34
1, 231840, Tempo, 493827
1, 231840, Note_on_c, 0, 73, 0
1, 231840, Note_on_c, 0, 57, 0
1, 231840, Note_on_c, 0, 54, 0
1, 231840, Note_on_c, 0, 73, 42
1, 231840, Note_on_c, 0, 56, 33
1, 231840, Note_on_c, 0, 59, 33
1, 232080, Tempo, 452830
1, 232080, Note_on_c, 0, 81, 0
1, 232080, Note_on_c, 0, 61, 0
1, 232080, Note_on_c, 0, 81, 44
1, 232080, Note_on_c, 0, 65, 31
1, 232320, Tempo, 465116
1, 232320, Note_on_c, 0, 65, 0
1, 232320, Note_on_c, 0, 81, 0
1, 232320, Note_on_c, 0, 80, 42
1, 232320, Note_on_c, 0, 61, 31
1, 232560, Tempo, 515021
1, 232560, Note_on_c, 0, 80, 0
1, 232560, Note_on_c, 0, 59, 0
1, 232560, Note_on_c, 0, 56, 0
1, 232560, Note_on_c, 0, 78, 47
1, 232560, Note_on_c, 0, 57, 33
1, 232800, Tempo, 491803
1, 232800, Note_on_c, 0, 73, 0
1, 232800, Note_on_c, 0, 61, 0
1, 232800, Note_on_c, 0, 72, 37
1, 232800, Note_on_c, 0, 66, 31
1, 232920, Note_on_c, 0, 72, 0
1, 232920, Note_on_c, 0, 73, 34
1, 233040, Note_on_c, 0, 73, 0
1, 233040, Note_on_c, 0, 66, 0
1, 233040, Note_on_c, 0, 76, 37
1, 233040, Note_on_c, 0, 61, 31
1, 233120, Note_on_c, 0, 76, 0
1, 233120, Note_on_c, 0, 74, 37
1, 233200, Note_on_c, 0, 74, 0
1, 233200, Note_on_c, 0, 73, 34
1, 233280, Tempo, 568720
1, 233280, Note_on_c, 0, 73, 0
1, 233280, Note_on_c, 0, 61, 0
1, 233280, Note_on_c, 0, 57, 0
1, 233280, Note_on_c, 0, 73, 41
1, 233280, Note_on_c, 0, 45, 31
1, 233337, Control_c, 0, 64, 127
1, 233400, Note_on_c, 0, 45, 0
1, 233520, Tempo, 506329
1, 233520, Note_on_c, 0, 78, 0
1, 233520, Note_on_c, 0, 80, 43
1, 233520, Note_on_c, 0, 61, 28
1, 233760, Tempo, 533333
1, 233760, Note_on_c, 0, 61, 0
1, 233760, Note_on_c, 0, 80, 0
1, 233760, Note_on_c, 0, 81, 42
1, 233760, Note_on_c, 0, 54, 28
1, 234000, Tempo, 504202
1, 234000, Note_on_c, 0, 54, 0
1, 234000, Note_on_c, 0, 81, 0
1, 234000, Note_on_c, 0, 73, 0
1, 234000, Note_on_c, 0, 80, 50
1, 234000, Note_on_c, 0, 44, 30
1, 234000, Note_on_c, 0, 51, 30
1, 234007, Control_c, 0, 64, 0
1, 234117, Control_c, 0, 64, 127
1, 234240, Tempo, 461538
1, 234240, Note_on_c, 0, 44, 0
1, 234240, Note_on_c, 0, 80, 0
1, 234240, Note_on_c, 0, 67, 32
1, 234240, Note_on_c, 0, 60, 27
1, 234360, Note_on_c, 0, 67, 0
1, 234360, Note_on_c, 0, 68, 30
1, 234480, Note_on_c, 0, 68, 0
1, 234480, Note_on_c, 0, 60, 0
1, 234480, Note_on_c, 0, 71, 32
1, 234480, Note_on_c, 0, 54, 27
1, 234560, Note_on_c, 0, 71, 0
1, 234560, Note_on_c, 0, 69, 32
1, 234640, Note_on_c, 0, 69, 0
1, 234640, Note_on_c, 0, 68, 30
1, 234720, Tempo, 512821
1, 234720, Note_on_c, 0, 68, 0
1, 234720, Note_on_c, 0, 54, 0
1, 234720, Note_on_c, 0, 51, 0
1, 234720, Note_on_c, 0, 68, 37
1, 234720, Note_on_c, 0, 52, 31
1, 234730, Control_c, 0, 64, 0
1, 234960, Tempo, 461538
1, 234960, Note_on_c, 0, 78, 47
1, 234960, Note_on_c, 0, 61, 33
1, 235200, Note_on_c, 0, 61, 0
1, 235200, Note_on_c, 0, 78, 0
1, 235200, Note_on_c, 0, 76, 47
1, 235200, Note_on_c, 0, 56, 33
1, 235440, Tempo, 517241
1, 235440, Note_on_c, 0, 56, 0
1, 235440, Note_on_c, 0, 76, 0
1, 235440, Note_on_c, 0, 52, 0
1, 235440, Note_on_c, 0, 75, 53
1, 235440, Note_on_c, 0, 44, 38
1, 235440, Note_on_c, 0, 54, 38
1, 235496, Control_c, 0, 64, 127
1, 235680, Tempo, 497925
1, 235680, Note_on_c, 0, 44, 0
1, 235680, Note_on_c, 0, 68, 0
1, 235680, Note_on_c, 0, 67, 38
1, 235680, Note_on_c, 0, 60, 32
1, 235800, Note_on_c, 0, 67, 0
1, 235800, Note_on_c, 0, 68, 35
1, 235920, Note_on_c, 0, 68, 0
1, 235920, Note_on_c, 0, 60, 0
1, 235920, Note_on_c, 0, 71, 38
1, 235920, Note_on_c, 0, 56, 32
1, 236000, Note_on_c, 0, 71, 0
1, 236000, Note_on_c, 0, 69, 38
1, 236080, Note_on_c, 0, 69, 0
1, 236080, Note_on_c, 0, 68, 35
1, 236160, Tempo, 558140
1, 236160, Note_on_c, 0, 68, 0
1, 236160, Note_on_c, 0, 54, 0
1, 236160, Note_on_c, 0, 68, 46
1, 236160, Note_on_c, 0, 52, 37
1, 236166, Control_c, 0, 64, 0
1, 236400, Tempo, 533333
1, 236400, Note_on_c, 0, 75, 0
1, 236400, Note_on_c, 0, 56, 0
1, 236400, Note_on_c, 0, 75, 47
1, 236400, Note_on_c, 0, 61, 31
1, 236640, Note_on_c, 0, 61, 0
1, 236640, Note_on_c, 0, 75, 0
1, 236640, Note_on_c, 0, 73, 44
1, 236640, Note_on_c, 0, 56, 31
1, 236880, Tempo, 576923
1, 236880, Note_on_c, 0, 56, 0
1, 236880, Note_on_c, 0, 73, 0
1, 236880, Note_on_c, 0, 52, 0
1, 236880, Note_on_c, 0, 72, 52
1, 236880, Note_on_c, 0, 44, 36
1, 236880, Note_on_c, 0, 51, 36
1, 236934, Control_c, 0, 64, 127
1, 237120, Tempo, 560748
1, 237120, Note_on_c, 0, 44, 0
1, 237120, Note_on_c, 0, 68, 0
1, 237120, Note_on_c, 0, 72, 0
1, 237120, Note_on_c, 0, 67, 41
1, 237120, Note_on_c, 0, 60, 34
1, 237240, Note_on_c, 0, 67, 0
1, 237240, Note_on_c, 0, 68, 39
1, 237360, Note_on_c, 0, 68, 0
1, 237360, Note_on_c, 0, 60, 0
1, 237360, Note_on_c, 0, 71, 41
1, 237360, Note_on_c, 0, 56, 34
1, 237440, Note_on_c, 0, 71, 0
1, 237440, Note_on_c, 0, 69, 41
1, 237520, Note_on_c, 0, 69, 0
1, 237520, Note_on_c, 0, 68, 38
1, 237600, Tempo, 538117
1, 237600, Note_on_c, 0, 68, 0
1, 237600, Note_on_c, 0, 51, 0
1, 237600, Note_on_c, 0, 68, 52
1, 237600, Note_on_c, 0, 52, 38
1, 237613, Control_c, 0, 64, 0
1, 237840, Tempo, 478088
1, 237840, Note_on_c, 0, 56, 0
1, 237840, Note_on_c, 0, 78, 43
1, 237840, Note_on_c, 0, 61, 31
1, 238080, Note_on_c, 0, 61, 0
1, 238080, Note_on_c, 0, 78, 0
1, 238080, Note_on_c, 0, 76, 41
1, 238080, Note_on_c, 0, 56, 31
1, 238320, Tempo, 519481
1, 238320, Note_on_c, 0, 56, 0
1, 238320, Note_on_c, 0, 76, 0
1, 238320, Note_on_c, 0, 52, 0
1, 238320, Note_on_c, 0, 75, 47
1, 238320, Note_on_c, 0, 47, 33
1, 238373, Control_c, 0, 64, 127
1, 238560, Tempo, 502092
1, 238560, Note_on_c, 0, 75, 0
1, 238560, Note_on_c, 0, 68, 0
1, 238560, Note_on_c, 0, 70, 38
1, 238560, Note_on_c, 0, 54, 29
1, 238680, Note_on_c, 0, 70, 0
1, 238680, Note_on_c, 0, 71, 36
1, 238800, Tempo, 571429
1, 238800, Note_on_c, 0, 71, 0
1, 238800, Note_on_c, 0, 75, 38
1, 238800, Note_on_c, 0, 57, 29
1, 238880, Note_on_c, 0, 75, 0
1, 238880, Note_on_c, 0, 73, 38
1, 238960, Note_on_c, 0, 73, 0
1, 238960, Note_on_c, 0, 71, 35
1, 239040, Tempo, 1061947
1, 239040, Note_on_c, 0, 71, 0
1, 239040, Note_on_c, 0, 71, 41
1, 239040, Note_on_c, 0, 63, 33
1, 239280, Note_on_c, 0, 76, 34
1, 239295, Control_c, 0, 64, 0
1, 239520, Note_on_c, 0, 76, 0
1, 239520, Note_on_c, 0, 78, 34
1, 239760, Tempo, 375000
1, 239760, Marker_t, "a tempo"
1, 239760, Note_on_c, 0, 78, 0
1, 239760, Note_on_c, 0, 63, 0
1, 239760, Note_on_c, 0, 47, 0
1, 239760, Note_on_c, 0, 57, 0
1, 239760, Note_on_c, 0, 54, 0
1, 239760, Note_on_c, 0, 71, 0
1, 239760, Note_on_c, 0, 68, 35
1, 239760, Note_on_c, 0, 52, 32
1, 239880, Note_on_c, 0, 68, 0
1, 239880, Note_on_c, 0, 71, 37
1, 239894, Control_c, 0, 64, 127
1, 240000, Note_on_c, 0, 71, 0
1, 240000, Note_on_c, 0, 76, 40
1, 240000, Note_on_c, 0, 64, 29
1, 240000, Note_on_c, 0, 59, 29
1, 240120, Note_on_c, 0, 76, 0
1, 240120, Note_on_c, 0, 80, 42
1, 240240, Note_on_c, 0, 80, 0
1, 240240, Note_on_c, 0, 59, 0
1, 240240, Note_on_c, 0, 64, 0
1, 240240, Note_on_c, 0, 78, 44
1, 240240, Note_on_c, 0, 56, 30
1, 240360, Note_on_c, 0, 78, 0
1, 240360, Note_on_c, 0, 76, 42
1, 240480, Tempo, 319149
1, 240480, Note_on_c, 0, 76, 0
1, 240480, Note_on_c, 0, 56, 0
1, 240480, Note_on_c, 0, 52, 0
1, 240480, Note_on_c, 0, 80, 38
1, 240480, Note_on_c, 0, 51, 35
1, 240484, Control_c, 0, 64, 0
1, 240544, Control_c, 0, 64, 127
1, 240600, Note_on_c, 0, 80, 0
1, 240600, Note_on_c, 0, 83, 40
1, 240720, Note_on_c, 0, 83, 0
1, 240720, Note_on_c, 0, 88, 43
1, 240720, Note_on_c, 0, 64, 30
1, 240720, Note_on_c, 0, 59, 30
1, 240840, Note_on_c, 0, 88, 0
1, 240840, Note_on_c, 0, 92, 46
1, 240960, Note_on_c, 0, 92, 0
1, 240960, Note_on_c, 0, 59, 0
1, 240960, Note_on_c, 0, 64, 0
1, 240960, Note_on_c, 0, 90, 50
1, 240960, Note_on_c, 0, 56, 32
1, 241080, Note_on_c, 0, 90, 0
1, 241080, Note_on_c, 0, 88, 47
1, 241180, Tempo, 318302
1, 241200, Note_on_c, 0, 88, 0
1, 241200, Note_on_c, 0, 56, 0
1, 241200, Note_on_c, 0, 51, 0
1, 241200, Note_on_c, 0, 83, 44
1, 241200, Note_on_c, 0, 52, 32
1, 241210, Control_c, 0, 64, 0
1, 241292, Control_c, 0, 64, 127
1, 241320, Note_on_c, 0, 83, 0
1, 241320, Note_on_c, 0, 80, 43
1, 241340, Tempo, 319149
1, 241440, Note_on_c, 0, 80, 0
1, 241440, Note_on_c, 0, 52, 0
1, 241440, Note_on_c, 0, 78, 42
1, 241440, Note_on_c, 0, 64, 30
1, 241440, Note_on_c, 0, 59, 30
1, 241480, Tempo, 320000
1, 241560, Note_on_c, 0, 78, 0
1, 241560, Note_on_c, 0, 76, 41
1, 241620, Tempo, 320856
1, 241680, Note_on_c, 0, 76, 0
1, 241680, Note_on_c, 0, 59, 0
1, 241680, Note_on_c, 0, 64, 0
1, 241680, Note_on_c, 0, 71, 40
1, 241680, Note_on_c, 0, 56, 30
1, 241760, Tempo, 321716
1, 241800, Note_on_c, 0, 71, 0
1, 241800, Note_on_c, 0, 68, 39
1, 241900, Tempo, 322581
1, 241920, Note_on_c, 0, 68, 0
1, 241920, Note_on_c, 0, 56, 0
1, 241920, Note_on_c, 0, 66, 38
1, 241920, Note_on_c, 0, 47, 32
1, 241934, Control_c, 0, 64, 0
1, 242012, Control_c, 0, 64, 127
1, 242040, Tempo, 323450
1, 242040, Note_on_c, 0, 66, 0
1, 242040, Note_on_c, 0, 64, 37
1, 242160, Note_on_c, 0, 64, 0
1, 242160, Note_on_c, 0, 59, 36
1, 242180, Tempo, 324324
1, 242280, Note_on_c, 0, 59, 0
1, 242280, Note_on_c, 0, 68, 39
1, 242320, Tempo, 325203
1, 242400, Note_on_c, 0, 68, 0
1, 242400, Note_on_c, 0, 66, 38
1, 242460, Tempo, 326087
1, 242520, Note_on_c, 0, 66, 0
1, 242520, Note_on_c, 0, 64, 37
1, 242600, Tempo, 326975
1, 242640, Tempo, 326975
1, 242640, Note_on_c, 0, 64, 0
1, 242640, Note_on_c, 0, 47, 0
1, 242640, Note_on_c, 0, 61, 36
1, 242640, Note_on_c, 0, 45, 36
1, 242645, Control_c, 0, 64, 0
1, 242660, Tempo, 321716
1, 242720, Tempo, 320856
1, 242760, Tempo, 320000
1, 242760, Note_on_c, 0, 45, 0
1, 242760, Note_on_c, 0, 61, 0
1, 242760, Note_on_c, 0, 64, 34
1, 242781, Control_c, 0, 64, 127
1, 242800, Tempo, 319149
1, 242840, Tempo, 318302
1, 242880, Tempo, 317460
1, 242880, Note_on_c, 0, 64, 0
1, 242880, Note_on_c, 0, 66, 37
1, 242880, Note_on_c, 0, 64, 31
1, 242880, Note_on_c, 0, 61, 31
1, 242920, Tempo, 316623
1, 242960, Tempo, 315789
1, 243000, Tempo, 314961
1, 243000, Note_on_c, 0, 66, 0
1, 243000, Note_on_c, 0, 69, 39
1, 243060, Tempo, 314136
1, 243100, Tempo, 313316
1, 243120, Note_on_c, 0, 69, 0
1, 243120, Note_on_c, 0, 61, 0
1, 243120, Note_on_c, 0, 64, 0
1, 243120, Note_on_c, 0, 73, 41
1, 243120, Note_on_c, 0, 54, 31
1, 243140, Tempo, 312500
1, 243180, Tempo, 311688
1, 243220, Tempo, 310881
1, 243240, Note_on_c, 0, 73, 0
1, 243240, Note_on_c, 0, 76, 43
1, 243260, Tempo, 310078
1, 243300, Tempo, 309278
1, 243340, Tempo, 308483
1, 243360, Note_on_c, 0, 76, 0
1, 243360, Note_on_c, 0, 54, 0
1, 243360, Note_on_c, 0, 78, 46
1, 243360, Note_on_c, 0, 42, 40
1, 243380, Tempo, 307692
1, 243460, Tempo, 308483
1, 243480, Note_on_c, 0, 42, 0
1, 243480, Note_on_c, 0, 78, 0
1, 243480, Note_on_c, 0, 81, 48
1, 243520, Tempo, 309278
1, 243600, Tempo, 310078
1, 243600, Note_on_c, 0, 81, 0
1, 243600, Note_on_c, 0, 85, 50
1, 243600, Note_on_c, 0, 64, 35
1, 243600, Note_on_c, 0, 61, 35
1, 243660, Tempo, 310881
1, 243720, Tempo, 311688
1, 243720, Note_on_c, 0, 85, 0
1, 243720, Note_on_c, 0, 88, 51
1, 243800, Tempo, 312500
1, 243840, Note_on_c, 0, 88, 0
1, 243840, Note_on_c, 0, 61, 0
1, 243840, Note_on_c, 0, 64, 0
1, 243840, Note_on_c, 0, 90, 49
1, 243840, Note_on_c, 0, 54, 35
1, 243860, Tempo, 313316
1, 243940, Tempo, 314136
1, 243960, Note_on_c, 0, 90, 0
1, 243960, Note_on_c, 0, 93, 47
1, 244000, Tempo, 314961
1, 244060, Tempo, 315789
1, 244080, Tempo, 322581
1, 244080, Note_on_c, 0, 93, 0
1, 244080, Note_on_c, 0, 54, 0
1, 244080, Note_on_c, 0, 92, 50
1, 244080, Note_on_c, 0, 47, 38
1, 244092, Control_c, 0, 64, 0
1, 244160, Control_c, 0, 64, 127
1, 244200, Note_on_c, 0, 47, 0
1, 244200, Note_on_c, 0, 92, 0
1, 244200, Note_on_c, 0, 90, 49
1, 244320, Tempo, 314136
1, 244320, Note_on_c, 0, 90, 0
1, 244320, Note_on_c, 0, 87, 49
1, 244320, Note_on_c, 0, 59, 34
1, 244320, Note_on_c, 0, 63, 34
1, 244440, Note_on_c, 0, 87, 0
1, 244440, Note_on_c, 0, 81, 48
1, 244560, Note_on_c, 0, 81, 0
1, 244560, Note_on_c, 0, 80, 47
1, 244560, Note_on_c, 0, 54, 31
1, 244680, Note_on_c, 0, 80, 0
1, 244680, Note_on_c, 0, 78, 46
1, 244780, Tempo, 313316
1, 244800, Note_on_c, 0, 78, 0
1, 244800, Note_on_c, 0, 54, 0
1, 244800, Note_on_c, 0, 75, 45
1, 244800, Note_on_c, 0, 56, 38
1, 244835, Control_c, 0, 64, 0
1, 244880, Tempo, 314136
1, 244920, Note_on_c, 0, 75, 0
1, 244920, Note_on_c, 0, 71, 44
1, 244980, Tempo, 314961
1, 245040, Note_on_c, 0, 71, 0
1, 245040, Note_on_c, 0, 56, 0
1, 245040, Note_on_c, 0, 75, 45
1, 245040, Note_on_c, 0, 54, 40
1, 245080, Tempo, 315789
1, 245160, Note_on_c, 0, 75, 0
1, 245160, Note_on_c, 0, 73, 42
1, 245180, Tempo, 316623
1, 245280, Tempo, 317460
1, 245280, Note_on_c, 0, 73, 0
1, 245280, Note_on_c, 0, 54, 0
1, 245280, Note_on_c, 0, 71, 39
1, 245280, Note_on_c, 0, 56, 48
1, 245380, Tempo, 318302
1, 245400, Note_on_c, 0, 71, 0
1, 245400, Note_on_c, 0, 69, 37
1, 245480, Tempo, 319149
1, 245520, Tempo, 312500
1, 245520, Note_on_c, 0, 69, 0
1, 245520, Note_on_c, 0, 56, 0
1, 245520, Note_on_c, 0, 63, 0
1, 245520, Note_on_c, 0, 59, 0
1, 245520, Note_on_c, 0, 68, 35
1, 245520, Note_on_c, 0, 52, 35
1, 245577, Control_c, 0, 64, 127
1, 245620, Tempo, 311688
1, 245640, Note_on_c, 0, 68, 0
1, 245640, Note_on_c, 0, 71, 37
1, 245700, Tempo, 310881
1, 245760, Note_on_c, 0, 71, 0
1, 245760, Note_on_c, 0, 76, 40
1, 245760, Note_on_c, 0, 64, 31
1, 245760, Note_on_c, 0, 59, 31
1, 245800, Tempo, 310078
1, 245880, Tempo, 309278
1, 245880, Note_on_c, 0, 76, 0
1, 245880, Note_on_c, 0, 80, 42
1, 245960, Tempo, 308483
1, 246000, Note_on_c, 0, 80, 0
1, 246000, Note_on_c, 0, 59, 0
1, 246000, Note_on_c, 0, 64, 0
1, 246000, Note_on_c, 0, 78, 44
1, 246000, Note_on_c, 0, 56, 33
1, 246060, Tempo, 307692
1, 246120, Note_on_c, 0, 78, 0
1, 246120, Note_on_c, 0, 76, 42
1, 246140, Tempo, 306905
1, 246220, Tempo, 306122
1, 246240, Note_on_c, 0, 76, 0
1, 246240, Note_on_c, 0, 56, 0
1, 246240, Note_on_c, 0, 52, 0
1, 246240, Note_on_c, 0, 80, 38
1, 246240, Note_on_c, 0, 51, 38
1, 246283, Control_c, 0, 64, 0
1, 246360, Note_on_c, 0, 80, 0
1, 246360, Note_on_c, 0, 83, 40
1, 246381, Control_c, 0, 64, 127
1, 246420, Tempo, 306905
1, 246480, Note_on_c, 0, 83, 0
1, 246480, Note_on_c, 0, 88, 43
1, 246480, Note_on_c, 0, 64, 33
1, 246480, Note_on_c, 0, 59, 33
1, 246600, Tempo, 307692
1, 246600, Note_on_c, 0, 88, 0
1, 246600, Note_on_c, 0, 92, 46
1, 246720, Note_on_c, 0, 92, 0
1, 246720, Note_on_c, 0, 59, 0
1, 246720, Note_on_c, 0, 64, 0
1, 246720, Note_on_c, 0, 90, 50
1, 246720, Note_on_c, 0, 56, 35
1, 246780, Tempo, 308483
1, 246840, Note_on_c, 0, 90, 0
1, 246840, Note_on_c, 0, 88, 47
1, 246960, Tempo, 308483
1, 246960, Note_on_c, 0, 88, 0
1, 246960, Note_on_c, 0, 56, 0
1, 246960, Note_on_c, 0, 51, 0
1, 246960, Note_on_c, 0, 83, 44
1, 246960, Note_on_c, 0, 52, 35
1, 246967, Control_c, 0, 64, 0
1, 247073, Control_c, 0, 64, 127
1, 247080, Tempo, 309278
1, 247080, Note_on_c, 0, 83, 0
1, 247080, Note_on_c, 0, 80, 43
1, 247200, Tempo, 310078
1, 247200, Note_on_c, 0, 80, 0
1, 247200, Note_on_c, 0, 52, 0
1, 247200, Note_on_c, 0, 78, 42
1, 247200, Note_on_c, 0, 64, 33
1, 247200, Note_on_c, 0, 59, 33
1, 247320, Tempo, 310881
1, 247320, Note_on_c, 0, 78, 0
1, 247320, Note_on_c, 0, 76, 41
1, 247440, Tempo, 311688
1, 247440, Note_on_c, 0, 76, 0
1, 247440, Note_on_c, 0, 59, 0
1, 247440, Note_on_c, 0, 64, 0
1, 247440, Note_on_c, 0, 71, 40
1, 247440, Note_on_c, 0, 56, 33
1, 247560, Tempo, 312500
1, 247560, Note_on_c, 0, 71, 0
1, 247560, Note_on_c, 0, 68, 39
1, 247680, Tempo, 313316
1, 247680, Note_on_c, 0, 68, 0
1, 247680, Note_on_c, 0, 56, 0
1, 247680, Note_on_c, 0, 66, 38
1, 247680, Note_on_c, 0, 47, 35
1, 247688, Control_c, 0, 64, 0
1, 247800, Tempo, 314136
1, 247800, Note_on_c, 0, 66, 0
1, 247800, Note_on_c, 0, 64, 37
1, 247920, Tempo, 314961
1, 247920, Note_on_c, 0, 64, 0
1, 247920, Note_on_c, 0, 59, 36
1, 248040, Tempo, 315789
1, 248040, Note_on_c, 0, 59, 0
1, 248040, Note_on_c, 0, 68, 39
1, 248160, Tempo, 316623
1, 248160, Note_on_c, 0, 68, 0
1, 248160, Note_on_c, 0, 66, 38
1, 248280, Tempo, 317460
1, 248280, Note_on_c, 0, 66, 0
1, 248280, Note_on_c, 0, 64, 37
1, 248380, Tempo, 318302
1, 248400, Note_on_c, 0, 64, 0
1, 248400, Note_on_c, 0, 47, 0
1, 248400, Note_on_c, 0, 61, 36
1, 248400, Note_on_c, 0, 45, 36
1, 248460, Tempo, 317460
1, 248471, Control_c, 0, 64, 127
1, 248520, Note_on_c, 0, 45, 0
1, 248520, Note_on_c, 0, 61, 0
1, 248520, Note_on_c, 0, 64, 34
1, 248540, Tempo, 316623
1, 248620, Tempo, 315789
1, 248633, Note_on_c, 0, 64, 0
1, 248640, Note_on_c, 0, 66, 37
1, 248640, Note_on_c, 0, 64, 31
1, 248640, Note_on_c, 0, 61, 31
1, 248680, Tempo, 314961
1, 248760, Tempo, 314136
1, 248760, Note_on_c, 0, 66, 0
1, 248760, Note_on_c, 0, 69, 39
1, 248840, Tempo, 313316
1, 248880, Note_on_c, 0, 69, 0
1, 248880, Note_on_c, 0, 61, 0
1, 248880, Note_on_c, 0, 64, 0
1, 248880, Note_on_c, 0, 73, 41
1, 248880, Note_on_c, 0, 54, 31
1, 248900, Tempo, 312500
1, 248980, Tempo, 311688
1, 249000, Note_on_c, 0, 73, 0
1, 249000, Note_on_c, 0, 76, 43
1, 249060, Tempo, 310881
1, 249120, Tempo, 310078
1, 249120, Note_on_c, 0, 76, 0
1, 249120, Note_on_c, 0, 54, 0
1, 249120, Note_on_c, 0, 78, 46
1, 249120, Note_on_c, 0, 42, 40
1, 249240, Note_on_c, 0, 42, 0
1, 249240, Note_on_c, 0, 78, 0
1, 249240, Note_on_c, 0, 81, 48
1, 249280, Tempo, 310881
1, 249360, Note_on_c, 0, 81, 0
1, 249360, Note_on_c, 0, 85, 50
1, 249360, Note_on_c, 0, 64, 35
1, 249360, Note_on_c, 0, 61, 35
1, 249420, Tempo, 311688
1, 249480, Note_on_c, 0, 85, 0
1, 249480, Note_on_c, 0, 88, 51
1, 249580, Tempo, 312500
1, 249600, Note_on_c, 0, 88, 0
1, 249600, Note_on_c, 0, 61, 0
1, 249600, Note_on_c, 0, 64, 0
1, 249600, Note_on_c, 0, 90, 49
1, 249600, Note_on_c, 0, 54, 35
1, 249720, Tempo, 313316
1, 249720, Note_on_c, 0, 90, 0
1, 249720, Note_on_c, 0, 93, 47
1, 249840, Tempo, 320856
1, 249840, Note_on_c, 0, 93, 0
1, 249840, Note_on_c, 0, 54, 0
1, 249840, Note_on_c, 0, 92, 47
1, 249840, Note_on_c, 0, 47, 42
1, 249849, Control_c, 0, 64, 0
1, 249932, Control_c, 0, 64, 127
1, 249960, Note_on_c, 0, 47, 0
1, 249960, Note_on_c, 0, 92, 0
1, 249960, Note_on_c, 0, 90, 48
1, 250080, Tempo, 313316
1, 250080, Note_on_c, 0, 90, 0
1, 250080, Note_on_c, 0, 87, 49
1, 250080, Note_on_c, 0, 59, 36
1, 250080, Note_on_c, 0, 63, 36
1, 250200, Note_on_c, 0, 87, 0
1, 250200, Note_on_c, 0, 81, 50
1, 250320, Note_on_c, 0, 81, 0
1, 250320, Note_on_c, 0, 80, 51
1, 250320, Note_on_c, 0, 54, 36
1, 250440, Note_on_c, 0, 80, 0
1, 250440, Note_on_c, 0, 78, 52
1, 250520, Tempo, 321716
1, 250540, Tempo, 313316
1, 250560, Note_on_c, 0, 78, 0
1, 250560, Note_on_c, 0, 54, 0
1, 250560, Note_on_c, 0, 75, 53
1, 250560, Note_on_c, 0, 56, 38
1, 250566, Control_c, 0, 64, 0
1, 250680, Note_on_c, 0, 75, 0
1, 250680, Note_on_c, 0, 71, 52
1, 250700, Tempo, 314136
1, 250800, Note_on_c, 0, 71, 0
1, 250800, Note_on_c, 0, 56, 0
1, 250800, Note_on_c, 0, 75, 51
1, 250800, Note_on_c, 0, 54, 40
1, 250840, Tempo, 314961
1, 250920, Note_on_c, 0, 75, 0
1, 250920, Note_on_c, 0, 73, 51
1, 251000, Tempo, 315789
1, 251040, Note_on_c, 0, 73, 0
1, 251040, Note_on_c, 0, 54, 0
1, 251040, Note_on_c, 0, 71, 53
1, 251040, Note_on_c, 0, 56, 45
1, 251140, Tempo, 316623
1, 251160, Note_on_c, 0, 71, 0
1, 251160, Note_on_c, 0, 69, 57
1, 251280, Tempo, 317460
1, 251280, Note_on_c, 0, 69, 0
1, 251280, Note_on_c, 0, 56, 0
1, 251280, Note_on_c, 0, 63, 0
1, 251280, Note_on_c, 0, 59, 0
1, 251280, Note_on_c, 0, 68, 56
1, 251280, Note_on_c, 0, 52, 49
1, 251358, Control_c, 0, 64, 127
1, 251360, Tempo, 316623
1, 251400, Note_on_c, 0, 68, 0
1, 251400, Note_on_c, 0, 71, 59
1, 251440, Tempo, 315789
1, 251520, Tempo, 314961
1, 251520, Note_on_c, 0, 71, 0
1, 251520, Note_on_c, 0, 76, 61
1, 251520, Note_on_c, 0, 64, 44
1, 251520, Note_on_c, 0, 59, 44
1, 251600, Tempo, 314136
1, 251640, Note_on_c, 0, 76, 0
1, 251640, Note_on_c, 0, 80, 63
1, 251680, Tempo, 313316
1, 251760, Tempo, 312500
1, 251760, Note_on_c, 0, 80, 0
1, 251760, Note_on_c, 0, 59, 0
1, 251760, Note_on_c, 0, 64, 0
1, 251760, Note_on_c, 0, 78, 65
1, 251760, Note_on_c, 0, 56, 44
1, 251840, Tempo, 311688
1, 251880, Note_on_c, 0, 78, 0
1, 251880, Note_on_c, 0, 76, 63
1, 251920, Tempo, 310881
1, 252000, Note_on_c, 0, 76, 0
1, 252000, Note_on_c, 0, 56, 0
1, 252000, Note_on_c, 0, 52, 0
1, 252000, Note_on_c, 0, 80, 61
1, 252000, Note_on_c, 0, 47, 67
1, 252120, Note_on_c, 0, 47, 0
1, 252120, Note_on_c, 0, 80, 0
1, 252120, Note_on_c, 0, 83, 61
1, 252240, Note_on_c, 0, 83, 0
1, 252240, Note_on_c, 0, 88, 64
1, 252240, Note_on_c, 0, 64, 74
1, 252240, Note_on_c, 0, 59, 74
1, 252360, Note_on_c, 0, 88, 0
1, 252360, Note_on_c, 0, 92, 66
1, 252480, Note_on_c, 0, 92, 0
1, 252480, Note_on_c, 0, 59, 0
1, 252480, Note_on_c, 0, 64, 0
1, 252480, Note_on_c, 0, 90, 69
1, 252480, Note_on_c, 0, 56, 74
1, 252600, Note_on_c, 0, 90, 0
1, 252600, Note_on_c, 0, 88, 65
1, 252720, Note_on_c, 0, 88, 0
1, 252720, Note_on_c, 0, 56, 0
1, 252720, Note_on_c, 0, 84, 62
1, 252720, Note_on_c, 0, 45, 70
1, 252720, Note_on_c, 0, 57, 70
1, 252749, Control_c, 0, 64, 0
1, 252795, Control_c, 0, 64, 127
1, 252840, Note_on_c, 0, 84, 0
1, 252840, Note_on_c, 0, 81, 61
1, 252960, Note_on_c, 0, 81, 0
1, 252960, Note_on_c, 0, 57, 0
1, 252960, Note_on_c, 0, 45, 0
1, 252960, Note_on_c, 0, 78, 60
1, 252960, Note_on_c, 0, 48, 77
1, 252960, Note_on_c, 0, 60, 77
1, 253080, Note_on_c, 0, 78, 0
1, 253080, Note_on_c, 0, 76, 60
1, 253200, Note_on_c, 0, 76, 0
1, 253200, Note_on_c, 0, 72, 59
1, 253320, Note_on_c, 0, 72, 0
1, 253320, Note_on_c, 0, 69, 58
1, 253420, Tempo, 310881
1, 253440, Note_on_c, 0, 69, 0
1, 253440, Note_on_c, 0, 60, 0
1, 253440, Note_on_c, 0, 48, 0
1, 253440, Note_on_c, 0, 66, 57
1, 253440, Control_c, 0, 64, 0
1, 253520, Tempo, 311688
1, 253560, Note_on_c, 0, 66, 0
1, 253560, Note_on_c, 0, 64, 56
1, 253600, Tempo, 312500
1, 253680, Note_on_c, 0, 64, 0
1, 253680, Note_on_c, 0, 60, 55
1, 253700, Tempo, 313316
1, 253780, Tempo, 314136
1, 253800, Note_on_c, 0, 60, 0
1, 253800, Note_on_c, 0, 57, 54
1, 253880, Tempo, 314961
1, 253920, Note_on_c, 0, 57, 0
1, 253920, Note_on_c, 0, 54, 53
1, 253960, Tempo, 315789
1, 254040, Note_on_c, 0, 54, 0
1, 254040, Note_on_c, 0, 52, 52
1, 254060, Tempo, 316623
1, 254140, Tempo, 317460
1, 254160, Note_on_c, 0, 52, 0
1, 254160, Note_on_c, 0, 56, 52
1, 254160, Note_on_c, 0, 40, 66
1, 254217, Control_c, 0, 64, 127
1, 254220, Tempo, 316623
1, 254280, Note_on_c, 0, 56, 0
1, 254280, Note_on_c, 0, 59, 51
1, 254300, Tempo, 315789
1, 254360, Tempo, 314961
1, 254400, Note_on_c, 0, 59, 0
1, 254400, Note_on_c, 0, 64, 52
1, 254400, Note_on_c, 0, 52, 52
1, 254440, Tempo, 314136
1, 254500, Tempo, 313316
1, 254520, Note_on_c, 0, 64, 0
1, 254520, Note_on_c, 0, 68, 53
1, 254580, Tempo, 312500
1, 254640, Note_on_c, 0, 68, 0
1, 254640, Note_on_c, 0, 52, 0
1, 254640, Note_on_c, 0, 66, 54
1, 254640, Note_on_c, 0, 47, 52
1, 254660, Tempo, 311688
1, 254720, Tempo, 310881
1, 254760, Note_on_c, 0, 66, 0
1, 254760, Note_on_c, 0, 64, 52
1, 254800, Tempo, 310078
1, 254860, Tempo, 309278
1, 254880, Note_on_c, 0, 64, 0
1, 254880, Note_on_c, 0, 47, 0
1, 254880, Note_on_c, 0, 40, 0
1, 254880, Note_on_c, 0, 68, 49
1, 254880, Note_on_c, 0, 35, 68
1, 254916, Control_c, 0, 64, 0
1, 254940, Tempo, 308483
1, 255000, Note_on_c, 0, 35, 0
1, 255000, Note_on_c, 0, 68, 0
1, 255000, Note_on_c, 0, 71, 51
1, 255000, Control_c, 0, 64, 127
1, 255020, Tempo, 307692
1, 255080, Tempo, 306905
1, 255120, Note_on_c, 0, 71, 0
1, 255120, Note_on_c, 0, 76, 54
1, 255120, Note_on_c, 0, 52, 68
1, 255160, Tempo, 306122
1, 255220, Tempo, 305344
1, 255240, Note_on_c, 0, 76, 0
1, 255240, Note_on_c, 0, 80, 57
1, 255300, Tempo, 304569
1, 255360, Tempo, 303797
1, 255360, Note_on_c, 0, 80, 0
1, 255360, Note_on_c, 0, 52, 0
1, 255360, Note_on_c, 0, 78, 59
1, 255360, Note_on_c, 0, 47, 68
1, 255480, Note_on_c, 0, 78, 0
1, 255480, Note_on_c, 0, 76, 57
1, 255600, Note_on_c, 0, 76, 0
1, 255600, Note_on_c, 0, 47, 0
1, 255600, Note_on_c, 0, 72, 59
1, 255600, Note_on_c, 0, 33, 75
1, 255600, Note_on_c, 0, 45, 75
1, 255606, Control_c, 0, 64, 0
1, 255680, Control_c, 0, 64, 127
1, 255720, Note_on_c, 0, 72, 0
1, 255720, Note_on_c, 0, 69, 61
1, 255840, Note_on_c, 0, 69, 0
1, 255840, Note_on_c, 0, 45, 0
1, 255840, Note_on_c, 0, 33, 0
1, 255840, Note_on_c, 0, 66, 62
1, 255840, Note_on_c, 0, 36, 86
1, 255840, Note_on_c, 0, 48, 86
1, 255960, Note_on_c, 0, 66, 0
1, 255960, Note_on_c, 0, 64, 64
1, 256080, Note_on_c, 0, 64, 0
1, 256080, Note_on_c, 0, 60, 66
1, 256200, Note_on_c, 0, 60, 0
1, 256200, Note_on_c, 0, 57, 67
1, 256320, Tempo, 303797
1, 256320, Note_on_c, 0, 57, 0
1, 256320, Note_on_c, 0, 48, 0
1, 256320, Note_on_c, 0, 36, 0
1, 256320, Note_on_c, 0, 54, 69
1, 256320, Control_c, 0, 64, 0
1, 256380, Tempo, 304569
1, 256420, Tempo, 305344
1, 256440, Note_on_c, 0, 54, 0
1, 256440, Note_on_c, 0, 52, 71
1, 256460, Tempo, 306122
1, 256500, Tempo, 306905
1, 256540, Tempo, 307692
1, 256560, Note_on_c, 0, 52, 0
1, 256560, Note_on_c, 0, 48, 73
1, 256580, Tempo, 308483
1, 256620, Tempo, 309278
1, 256660, Tempo, 310078
1, 256680, Note_on_c, 0, 48, 0
1, 256680, Note_on_c, 0, 45, 74
1, 256700, Tempo, 310881
1, 256740, Tempo, 311688
1, 256780, Tempo, 312500
1, 256800, Note_on_c, 0, 45, 0
1, 256800, Note_on_c, 0, 42, 76
1, 256820, Tempo, 313316
1, 256860, Tempo, 314136
1, 256900, Tempo, 314961
1, 256920, Note_on_c, 0, 42, 0
1, 256920, Note_on_c, 0, 40, 78
1, 256940, Tempo, 315789
1, 256980, Tempo, 316623
1, 257020, Tempo, 317460
1, 257040, Tempo, 325203
1, 257040, Note_on_c, 0, 40, 0
1, 257040, Note_on_c, 0, 28, 98
1, 257118, Control_c, 0, 64, 127
1, 257280, Tempo, 306122
1, 257280, Note_on_c, 0, 28, 0
1, 257280, Note_on_c, 0, 47, 73
1, 257400, Note_on_c, 0, 47, 0
1, 257400, Note_on_c, 0, 52, 68
1, 257520, Note_on_c, 0, 52, 0
1, 257520, Note_on_c, 0, 57, 68
1, 257640, Note_on_c, 0, 57, 0
1, 257640, Note_on_c, 0, 56, 68
1, 257760, Note_on_c, 0, 56, 0
1, 257760, Note_on_c, 0, 59, 73
1, 257880, Note_on_c, 0, 59, 0
1, 257880, Note_on_c, 0, 64, 67
1, 258000, Note_on_c, 0, 64, 0
1, 258000, Note_on_c, 0, 69, 67
1, 258120, Note_on_c, 0, 69, 0
1, 258120, Note_on_c, 0, 68, 68
1, 258240, Note_on_c, 0, 68, 0
1, 258240, Note_on_c, 0, 71, 72
1, 258360, Note_on_c, 0, 71, 0
1, 258360, Note_on_c, 0, 76, 73
1, 258480, Note_on_c, 0, 76, 0
1, 258480, Note_on_c, 0, 81, 76
1, 258480, Note_on_c, 0, 68, 80
1, 258480, Note_on_c, 0, 59, 80
1, 258480, Note_on_c, 0, 52, 80
1, 258600, Note_on_c, 0, 81, 0
1, 258600, Note_on_c, 0, 80, 71
1, 258720, Note_on_c, 0, 80, 0
1, 258720, Note_on_c, 0, 52, 0
1, 258720, Note_on_c, 0, 59, 0
1, 258720, Note_on_c, 0, 68, 0
1, 258720, Note_on_c, 0, 83, 71
1, 258840, Note_on_c, 0, 83, 0
1, 258840, Note_on_c, 0, 88, 71
1, 258960, Note_on_c, 0, 88, 0
1, 258960, Note_on_c, 0, 93, 71
1, 259080, Note_on_c, 0, 93, 0
1, 259080, Note_on_c, 0, 92, 71
1, 259200, Note_on_c, 0, 92, 0
1, 259200, Note_on_c, 0, 88, 77
1, 259320, Note_on_c, 0, 88, 0
1, 259320, Note_on_c, 0, 83, 71
1, 259440, Note_on_c, 0, 83, 0
1, 259440, Note_on_c, 0, 81, 71
1, 259560, Note_on_c, 0, 81, 0
1, 259560, Note_on_c, 0, 80, 71
1, 259680, Note_on_c, 0, 80, 0
1, 259680, Note_on_c, 0, 76, 71
1, 259800, Note_on_c, 0, 76, 0
1, 259800, Note_on_c, 0, 71, 71
1, 259920, Tempo, 305344
1, 259920, Note_on_c, 0, 71, 0
1, 259920, Note_on_c, 0, 69, 71
1, 260040, Tempo, 306122
1, 260040, Note_on_c, 0, 69, 0
1, 260040, Note_on_c, 0, 68, 72
1, 260160, Tempo, 306905
1, 260160, Note_on_c, 0, 68, 0
1, 260160, Note_on_c, 0, 64, 73
1, 260260, Tempo, 307692
1, 260280, Note_on_c, 0, 64, 0
1, 260280, Note_on_c, 0, 59, 75
1, 260380, Tempo, 308483
1, 260400, Note_on_c, 0, 59, 0
1, 260400, Note_on_c, 0, 57, 77
1, 260480, Tempo, 309278
1, 260520, Note_on_c, 0, 57, 0
1, 260520, Note_on_c, 0, 56, 78
1, 260600, Tempo, 310078
1, 260640, Note_on_c, 0, 56, 0
1, 260640, Note_on_c, 0, 52, 80
1, 260700, Tempo, 310881
1, 260760, Note_on_c, 0, 52, 0
1, 260760, Note_on_c, 0, 47, 81
1, 260820, Tempo, 311688
1, 260880, Note_on_c, 0, 47, 0
1, 260880, Note_on_c, 0, 45, 82
1, 260920, Tempo, 312500
1, 261000, Note_on_c, 0, 45, 0
1, 261000, Note_on_c, 0, 44, 84
1, 261040, Tempo, 313316
1, 261120, Note_on_c, 0, 44, 0
1, 261120, Note_on_c, 0, 40, 86
1, 261140, Tempo, 314136
1, 261240, Note_on_c, 0, 40, 0
1, 261240, Note_on_c, 0, 35, 88
1, 261260, Tempo, 314961
1, 261360, Tempo, 315789
1, 261360, Note_on_c, 0, 35, 0
1, 261360, Control_c, 0, 64, 0
1, 261360, Note_on_c, 0, 28, 96
1, 262080, Note_on_c, 0, 28, 0
1, 262800, Tempo, 754717
1, 262800, Marker_t, "Sostenuto"
1, 262800, Control_c, 0, 91, 127
1, 262800, Note_on_c, 0, 52, 55
1, 262800, Note_on_c, 0, 61, 65
1, 262800, Note_on_c, 0, 64, 65
1, 262800, Note_on_c, 0, 33, 50
1, 262800, Note_on_c, 0, 45, 50
1, 262800, Control_c, 0, 91, 127
1, 263520, Note_on_c, 0, 33, 0
1, 263520, Note_on_c, 0, 64, 0
1, 263520, Note_on_c, 0, 52, 0
1, 263520, Note_on_c, 0, 61, 0
1, 263520, Note_on_c, 0, 54, 46
1, 263520, Note_on_c, 0, 61, 55
1, 263520, Note_on_c, 0, 66, 55
1, 263520, Note_on_c, 0, 38, 44
1, 264240, Note_on_c, 0, 54, 0
1, 264480, Tempo, 533333
1, 264480, Note_on_c, 0, 61, 0
1, 264480, Note_on_c, 0, 59, 71
1, 264720, Note_on_c, 0, 59, 0
1, 264720, Note_on_c, 0, 61, 71
1, 264960, Tempo, 591133
1, 264960, Note_on_c, 0, 61, 0
1, 264960, Note_on_c, 0, 64, 75
1, 265200, Note_on_c, 0, 64, 0
1, 265200, Note_on_c, 0, 62, 70
1, 265440, Tempo, 857143
1, 265560, Note_on_c, 0, 62, 0
1, 265560, Note_on_c, 0, 61, 64
1, 265670, Note_on_c, 0, 61, 0
1, 265680, Tempo, 705882
1, 265680, Note_on_c, 0, 38, 0
1, 265680, Note_on_c, 0, 66, 0
1, 265680, Note_on_c, 0, 45, 0
1, 265680, Note_on_c, 0, 52, 55
1, 265680, Note_on_c, 0, 61, 65
1, 265680, Note_on_c, 0, 64, 65
1, 265680, Note_on_c, 0, 33, 50
1, 265680, Note_on_c, 0, 45, 50
1, 266400, Note_on_c, 0, 33, 0
1, 266400, Note_on_c, 0, 64, 0
1, 266400, Note_on_c, 0, 52, 0
1, 266400, Note_on_c, 0, 61, 0
1, 266400, Note_on_c, 0, 54, 46
1, 266400, Note_on_c, 0, 61, 55
1, 266400, Note_on_c, 0, 66, 55
1, 266400, Note_on_c, 0, 38, 44
1, 267360, Tempo, 540541
1, 267360, Note_on_c, 0, 61, 0
1, 267360, Note_on_c, 0, 59, 67
1, 267600, Note_on_c, 0, 59, 0
1, 267600, Note_on_c, 0, 61, 67
1, 267840, Tempo, 597015
1, 267840, Note_on_c, 0, 61, 0
1, 267840, Note_on_c, 0, 64, 72
1, 268080, Note_on_c, 0, 64, 0
1, 268080, Note_on_c, 0, 62, 66
1, 268320, Tempo, 1132075
1, 268440, Note_on_c, 0, 62, 0
1, 268440, Note_on_c, 0, 61, 57
1, 268490, Note_on_c, 0, 61, 0
1, 268500, Tempo, 1111111
1, 268500, Note_on_c, 0, 61, 54
1, 268560, Tempo, 727273
1, 268560, Note_on_c, 0, 66, 0
1, 268560, Note_on_c, 0, 69, 63
1, 268800, Tempo, 693642
1, 268800, Note_on_c, 0, 69, 0
1, 268800, Note_on_c, 0, 66, 62
1, 269040, Note_on_c, 0, 61, 0
1, 269040, Note_on_c, 0, 62, 57
1, 269280, Tempo, 784314
1, 269280, Note_on_c, 0, 62, 0
1, 269280, Note_on_c, 0, 66, 0
1, 269280, Note_on_c, 0, 45, 0
1, 269280, Note_on_c, 0, 54, 0
1, 269280, Note_on_c, 0, 38, 0
1, 269280, Note_on_c, 0, 56, 52
1, 269280, Note_on_c, 0, 61, 52
1, 269280, Note_on_c, 0, 64, 52
1, 269280, Note_on_c, 0, 40, 41
1, 269280, Note_on_c, 0, 52, 41
1, 270000, Tempo, 895522
1, 270000, Note_on_c, 0, 52, 0
1, 270000, Note_on_c, 0, 61, 0
1, 270000, Note_on_c, 0, 59, 43
1, 270000, Note_on_c, 0, 50, 39
1, 270480, Tempo, 784314
1, 270480, Note_on_c, 0, 50, 0
1, 270480, Note_on_c, 0, 56, 0
1, 270480, Note_on_c, 0, 40, 0
1, 270480, Note_on_c, 0, 59, 0
1, 270480, Note_on_c, 0, 57, 37
1, 270480, Note_on_c, 0, 45, 36
1, 270480, Note_on_c, 0, 49, 36
1, 270720, Tempo, 759494
1, 270720, Note_on_c, 0, 49, 0
1, 270720, Note_on_c, 0, 64, 0
1, 270720, Note_on_c, 0, 57, 0
1, 270720, Note_on_c, 0, 61, 35
1, 270720, Note_on_c, 0, 52, 32
1, 272160, Tempo, 662983
1, 272160, Note_on_c, 0, 52, 0
1, 272160, Note_on_c, 0, 61, 0
1, 272160, Note_on_c, 0, 45, 0
1, 272160, Note_on_c, 0, 73, 53
1, 272640, Note_on_c, 0, 52, 32
1, 272640, Note_on_c, 0, 55, 32
1, 272640, Note_on_c, 0, 58, 32
1, 272760, Note_on_c, 0, 73, 0
1, 272760, Note_on_c, 0, 71, 45
1, 272820, Note_on_c, 0, 71, 0
1, 272820, Note_on_c, 0, 73, 45
1, 272880, Tempo, 566038
1, 272880, Note_on_c, 0, 73, 0
1, 272880, Note_on_c, 0, 52, 0
1, 272880, Note_on_c, 0, 55, 0
1, 272880, Note_on_c, 0, 58, 0
1, 272880, Note_on_c, 0, 71, 50
1, 272880, Note_on_c, 0, 50, 38
1, 272880, Note_on_c, 0, 54, 38
1, 272880, Note_on_c, 0, 59, 38
1, 273120, Note_on_c, 0, 59, 0
1, 273120, Note_on_c, 0, 54, 0
1, 273120, Note_on_c, 0, 50, 0
1, 273240, Note_on_c, 0, 71, 0
1, 273240, Note_on_c, 0, 69, 47
1, 273360, Note_on_c, 0, 69, 0
1, 273360, Note_on_c, 0, 71, 50
1, 273360, Note_on_c, 0, 54, 32
1, 273360, Note_on_c, 0, 57, 32
1, 273360, Note_on_c, 0, 62, 32
1, 273600, Note_on_c, 0, 62, 0
1, 273600, Note_on_c, 0, 71, 0
1, 273600, Note_on_c, 0, 54, 0
1, 273600, Note_on_c, 0, 57, 0
1, 273600, Note_on_c, 0, 73, 53
1, 273600, Note_on_c, 0, 53, 36
1, 273600, Note_on_c, 0, 56, 36
1, 273600, Note_on_c, 0, 61, 36
1, 273960, Note_on_c, 0, 73, 0
1, 273960, Note_on_c, 0, 74, 50
1, 274080, Note_on_c, 0, 74, 0
1, 274080, Note_on_c, 0, 61, 0
1, 274080, Note_on_c, 0, 56, 0
1, 274080, Note_on_c, 0, 53, 0
1, 274080, Note_on_c, 0, 73, 48
1, 274080, Note_on_c, 0, 52, 31
1, 274080, Note_on_c, 0, 55, 31
1, 274080, Note_on_c, 0, 58, 31
1, 274200, Note_on_c, 0, 73, 0
1, 274200, Note_on_c, 0, 71, 43
1, 274260, Note_on_c, 0, 71, 0
1, 274260, Note_on_c, 0, 73, 43
1, 274320, Tempo, 612245
1, 274320, Note_on_c, 0, 73, 0
1, 274320, Note_on_c, 0, 52, 0
1, 274320, Note_on_c, 0, 55, 0
1, 274320, Note_on_c, 0, 58, 0
1, 274320, Note_on_c, 0, 71, 52
1, 274320, Note_on_c, 0, 50, 37
1, 274320, Note_on_c, 0, 54, 37
1, 274320, Note_on_c, 0, 59, 37
1, 274560, Note_on_c, 0, 59, 0
1, 274560, Note_on_c, 0, 54, 0
1, 274560, Note_on_c, 0, 50, 0
1, 274680, Tempo, 612245
1, 274680, Note_on_c, 0, 71, 0
1, 274680, Note_on_c, 0, 69, 48
1, 274800, Tempo, 975610
1, 274800, Note_on_c, 0, 69, 0
1, 274800, Note_on_c, 0, 71, 47
1, 274800, Note_on_c, 0, 54, 32
1, 274800, Note_on_c, 0, 57, 32
1, 274800, Note_on_c, 0, 62, 32
1, 275040, Note_on_c, 0, 62, 0
1, 275040, Note_on_c, 0, 71, 0
1, 275040, Note_on_c, 0, 54, 0
1, 275040, Note_on_c, 0, 57, 0
1, 275040, Note_on_c, 0, 73, 39
1, 275040, Note_on_c, 0, 49, 29
1, 275070, Note_on_c, 0, 56, 29
1, 275100, Note_on_c, 0, 65, 29
1, 275121, Control_c, 0, 64, 127
1, 275160, Tempo, 458015
1, 275160, Note_on_c, 0, 73, 0
1, 275160, Note_on_c, 0, 61, 29
1, 275280, Note_on_c, 0, 61, 0
1, 275280, Note_on_c, 0, 65, 0
1, 275280, Note_on_c, 0, 56, 0
1, 275280, Note_on_c, 0, 49, 0
1, 275280, Note_on_c, 0, 73, 29
1, 275400, Note_on_c, 0, 73, 0
1, 275400, Note_on_c, 0, 68, 29
1, 275520, Note_on_c, 0, 68, 0
1, 275520, Note_on_c, 0, 73, 29
1, 275640, Note_on_c, 0, 73, 0
1, 275640, Note_on_c, 0, 68, 29
1, 275760, Note_on_c, 0, 68, 0
1, 275760, Note_on_c, 0, 80, 29
1, 275760, Note_on_c, 0, 37, 25
1, 275880, Note_on_c, 0, 37, 0
1, 275880, Note_on_c, 0, 80, 0
1, 275880, Note_on_c, 0, 73, 29
1, 276000, Note_on_c, 0, 73, 0
1, 276000, Note_on_c, 0, 80, 29
1, 276120, Note_on_c, 0, 80, 0
1, 276120, Note_on_c, 0, 73, 29
1, 276240, Note_on_c, 0, 73, 0
1, 276240, Note_on_c, 0, 85, 29
1, 276360, Note_on_c, 0, 85, 0
1, 276360, Note_on_c, 0, 80, 29
1, 276480, Tempo, 476190
1, 276480, Note_on_c, 0, 80, 0
1, 276480, Note_on_c, 0, 85, 29
1, 276600, Note_on_c, 0, 85, 0
1, 276600, Note_on_c, 0, 80, 29
1, 276720, Tempo, 491803
1, 276720, Note_on_c, 0, 80, 0
1, 276720, Note_on_c, 0, 92, 29
1, 276840, Note_on_c, 0, 92, 0
1, 276840, Note_on_c, 0, 85, 29
1, 276960, Note_on_c, 0, 85, 0
1, 276960, Note_on_c, 0, 92, 29
1, 277080, Note_on_c, 0, 92, 0
1, 277080, Note_on_c, 0, 85, 29
1, 277200, Tempo, 600000
1, 277200, Note_on_c, 0, 85, 0
1, 277200, Note_on_c, 0, 97, 39
1, 277320, Note_on_c, 0, 97, 0
1, 277419, Control_c, 0, 64, 0
1, 277920, Tempo, 805477
1, 277920, Control_c, 0, 91, 127
1, 277920, Note_on_c, 0, 52, 37
1, 277920, Note_on_c, 0, 61, 44
1, 277920, Note_on_c, 0, 64, 44
1, 277920, Note_on_c, 0, 45, 34
1, 277920, Control_c, 0, 91, 127
1, 278640, Note_on_c, 0, 64, 0
1, 278640, Note_on_c, 0, 52, 0
1, 278640, Note_on_c, 0, 54, 31
1, 278640, Note_on_c, 0, 66, 37
1, 278640, Note_on_c, 0, 38, 30
1, 279360, Note_on_c, 0, 54, 0
1, 279600, Tempo, 597015
1, 279600, Note_on_c, 0, 61, 0
1, 279600, Note_on_c, 0, 59, 48
1, 279840, Note_on_c, 0, 59, 0
1, 279840, Note_on_c, 0, 61, 48
1, 280080, Tempo, 722892
1, 280080, Note_on_c, 0, 61, 0
1, 280080, Note_on_c, 0, 64, 51
1, 280320, Tempo, 714286
1, 280320, Note_on_c, 0, 64, 0
1, 280320, Note_on_c, 0, 62, 47
1, 280560, Tempo, 1100917
1, 280680, Note_on_c, 0, 62, 0
1, 280680, Note_on_c, 0, 61, 47
1, 280800, Tempo, 703730
1, 280800, Note_on_c, 0, 61, 0
1, 280800, Note_on_c, 0, 38, 0
1, 280800, Note_on_c, 0, 66, 0
1, 280800, Note_on_c, 0, 45, 0
1, 280800, Note_on_c, 0, 52, 37
1, 280800, Note_on_c, 0, 61, 44
1, 280800, Note_on_c, 0, 64, 44
1, 280800, Note_on_c, 0, 33, 34
1, 280800, Note_on_c, 0, 45, 34
1, 281520, Note_on_c, 0, 33, 0
1, 281520, Note_on_c, 0, 64, 0
1, 281520, Note_on_c, 0, 52, 0
1, 281520, Note_on_c, 0, 54, 31
1, 281520, Note_on_c, 0, 66, 37
1, 281520, Note_on_c, 0, 38, 30
1, 282480, Tempo, 615385
1, 282480, Note_on_c, 0, 61, 0
1, 282480, Note_on_c, 0, 59, 48
1, 282720, Note_on_c, 0, 59, 0
1, 282720, Note_on_c, 0, 61, 48
1, 282960, Tempo, 714286
1, 282960, Note_on_c, 0, 61, 0
1, 282960, Note_on_c, 0, 64, 51
1, 283200, Note_on_c, 0, 64, 0
1, 283200, Note_on_c, 0, 62, 47
1, 283440, Tempo, 1100917
1, 283440, Note_on_c, 0, 62, 0
1, 283440, Note_on_c, 0, 61, 47
1, 283610, Note_on_c, 0, 61, 0
1, 283620, Note_on_c, 0, 61, 40
1, 283680, Tempo, 902256
1, 283680, Note_on_c, 0, 66, 0
1, 283680, Note_on_c, 0, 69, 36
1, 283800, Note_on_c, 0, 69, 0
1, 283800, Note_on_c, 0, 68, 33
1, 283920, Tempo, 952381
1, 283920, Note_on_c, 0, 68, 0
1, 283920, Note_on_c, 0, 71, 39
1, 284040, Note_on_c, 0, 71, 0
1, 284040, Note_on_c, 0, 69, 38
1, 284160, Tempo, 952381
1, 284160, Note_on_c, 0, 69, 0
1, 284160, Note_on_c, 0, 66, 36
1, 284280, Note_on_c, 0, 66, 0
1, 284280, Note_on_c, 0, 61, 0
1, 284280, Note_on_c, 0, 62, 35
1, 284400, Tempo, 837054
1, 284400, Note_on_c, 0, 62, 0
1, 284400, Note_on_c, 0, 38, 0
1, 284400, Note_on_c, 0, 54, 0
1, 284400, Note_on_c, 0, 45, 0
1, 284400, Note_on_c, 0, 56, 31
1, 284400, Note_on_c, 0, 61, 37
1, 284400, Note_on_c, 0, 64, 37
1, 284400, Note_on_c, 0, 40, 28
1, 284400, Note_on_c, 0, 52, 28
1, 285120, Tempo, 975610
1, 285120, Note_on_c, 0, 52, 0
1, 285120, Note_on_c, 0, 61, 0
1, 285120, Note_on_c, 0, 59, 31
1, 285120, Note_on_c, 0, 50, 28
1, 285600, Tempo, 1061947
1, 285600, Note_on_c, 0, 50, 0
1, 285600, Note_on_c, 0, 56, 0
1, 285600, Note_on_c, 0, 40, 0
1, 285600, Note_on_c, 0, 59, 0
1, 285600, Note_on_c, 0, 57, 27
1, 285600, Note_on_c, 0, 45, 25
1, 285600, Note_on_c, 0, 49, 25
1, 285840, Tempo, 810592
1, 285840, Note_on_c, 0, 49, 0
1, 285840, Note_on_c, 0, 64, 0
1, 285840, Note_on_c, 0, 57, 0
1, 285840, Note_on_c, 0, 61, 25
1, 285840, Note_on_c, 0, 52, 22
1, 287280, Tempo, 759494
1, 287280, Note_on_c, 0, 52, 0
1, 287280, Note_on_c, 0, 61, 0
1, 287280, Note_on_c, 0, 45, 0
1, 288000, Tempo, 638298
1, 288000, Note_on_c, 0, 73, 42
1, 289560, Tempo, 1111111
1, 289560, Note_on_c, 0, 73, 0
1, 289560, Note_on_c, 0, 75, 42
1, 289680, Tempo, 902256
1, 289680, Note_on_c, 0, 75, 0
1, 289680, Note_on_c, 0, 78, 43
1, 289800, Tempo, 714286
1, 289800, Note_on_c, 0, 78, 0
1, 289800, Note_on_c, 0, 76, 41
1, 289920, Note_on_c, 0, 76, 0
1, 289920, Note_on_c, 0, 73, 39
1, 290040, Tempo, 967742
1, 290040, Note_on_c, 0, 73, 0
1, 290040, Note_on_c, 0, 69, 39
1, 290160, Note_on_c, 0, 69, 0
1, 290160, Note_on_c, 0, 68, 35
1, 290190, Note_on_c, 0, 68, 0
1, 290220, Note_on_c, 0, 68, 35
1, 290280, Tempo, 681818
1, 290280, Note_on_c, 0, 68, 0
1, 290280, Note_on_c, 0, 80, 43
1, 290640, Note_on_c, 0, 59, 26
1, 290640, Note_on_c, 0, 62, 26
1, 290640, Note_on_c, 0, 65, 26
1, 290760, Note_on_c, 0, 80, 0
1, 290760, Note_on_c, 0, 78, 37
1, 290820, Note_on_c, 0, 78, 0
1, 290820, Note_on_c, 0, 80, 37
1, 290880, Tempo, 574163
1, 290880, Note_on_c, 0, 80, 0
1, 290880, Note_on_c, 0, 59, 0
1, 290880, Note_on_c, 0, 62, 0
1, 290880, Note_on_c, 0, 65, 0
1, 290880, Note_on_c, 0, 78, 43
1, 290880, Note_on_c, 0, 57, 31
1, 290880, Note_on_c, 0, 61, 31
1, 290880, Note_on_c, 0, 66, 31
1, 291120, Note_on_c, 0, 66, 0
1, 291120, Note_on_c, 0, 61, 0
1, 291120, Note_on_c, 0, 57, 0
1, 291240, Note_on_c, 0, 78, 0
1, 291240, Note_on_c, 0, 76, 39
1, 291360, Note_on_c, 0, 76, 0
1, 291360, Note_on_c, 0, 78, 39
1, 291360, Note_on_c, 0, 61, 28
1, 291360, Note_on_c, 0, 64, 28
1, 291360, Note_on_c, 0, 69, 28
1, 291600, Note_on_c, 0, 69, 0
1, 291600, Note_on_c, 0, 78, 0
1, 291600, Note_on_c, 0, 61, 0
1, 291600, Note_on_c, 0, 64, 0
1, 291600, Note_on_c, 0, 80, 42
1, 291600, Note_on_c, 0, 60, 31
1, 291600, Note_on_c, 0, 63, 31
1, 291600, Note_on_c, 0, 68, 31
1, 291960, Note_on_c, 0, 80, 0
1, 291960, Note_on_c, 0, 81, 40
1, 292080, Note_on_c, 0, 81, 0
1, 292080, Note_on_c, 0, 68, 0
1, 292080, Note_on_c, 0, 63, 0
1, 292080, Note_on_c, 0, 60, 0
1, 292080, Note_on_c, 0, 80, 40
1, 292080, Note_on_c, 0, 59, 27
1, 292080, Note_on_c, 0, 62, 27
1, 292080, Note_on_c, 0, 65, 27
1, 292200, Note_on_c, 0, 80, 0
1, 292200, Note_on_c, 0, 78, 37
1, 292260, Note_on_c, 0, 78, 0
1, 292260, Note_on_c, 0, 80, 37
1, 292320, Tempo, 745342
1, 292320, Note_on_c, 0, 80, 0
1, 292320, Note_on_c, 0, 59, 0
1, 292320, Note_on_c, 0, 62, 0
1, 292320, Note_on_c, 0, 65, 0
1, 292320, Note_on_c, 0, 78, 44
1, 292320, Note_on_c, 0, 57, 31
1, 292320, Note_on_c, 0, 61, 31
1, 292320, Note_on_c, 0, 66, 31
1, 292560, Tempo, 888889
1, 292560, Note_on_c, 0, 66, 0
1, 292560, Note_on_c, 0, 61, 0
1, 292560, Note_on_c, 0, 57, 0
1, 292680, Note_on_c, 0, 78, 0
1, 292680, Note_on_c, 0, 76, 33
1, 292800, Tempo, 845070
1, 292800, Note_on_c, 0, 76, 0
1, 292800, Note_on_c, 0, 78, 31
1, 292800, Note_on_c, 0, 61, 25
1, 292800, Note_on_c, 0, 64, 25
1, 292800, Note_on_c, 0, 69, 25
1, 293040, Tempo, 705882
1, 293040, Note_on_c, 0, 69, 0
1, 293040, Note_on_c, 0, 78, 0
1, 293040, Note_on_c, 0, 61, 0
1, 293040, Note_on_c, 0, 64, 0
1, 293040, Note_on_c, 0, 80, 31
1, 293040, Note_on_c, 0, 56, 24
1, 293040, Note_on_c, 0, 63, 24
1, 293040, Note_on_c, 0, 72, 24
1, 293223, Control_c, 0, 64, 127
1, 293280, Note_on_c, 0, 72, 0
1, 293280, Note_on_c, 0, 63, 0
1, 293280, Note_on_c, 0, 56, 0
1, 293760, Note_on_c, 0, 44, 24
1, 294000, Note_on_c, 0, 44, 0
1, 294120, Tempo, 521739
1, 294120, Note_on_c, 0, 80, 0
1, 294120, Note_on_c, 0, 68, 25
1, 294240, Note_on_c, 0, 68, 0
1, 294240, Note_on_c, 0, 80, 25
1, 294360, Note_on_c, 0, 80, 0
1, 294360, Note_on_c, 0, 75, 25
1, 294480, Note_on_c, 0, 75, 0
1, 294480, Note_on_c, 0, 80, 25
1, 294600, Note_on_c, 0, 80, 0
1, 294600, Note_on_c, 0, 75, 25
1, 294720, Tempo, 588235
1, 294720, Note_on_c, 0, 75, 0
1, 294720, Note_on_c, 0, 87, 21
1, 294840, Note_on_c, 0, 87, 0
1, 294840, Note_on_c, 0, 80, 21
1, 294960, Tempo, 697674
1, 294960, Note_on_c, 0, 80, 0
1, 294960, Note_on_c, 0, 87, 21
1, 295080, Tempo, 916031
1, 295080, Note_on_c, 0, 87, 0
1, 295080, Note_on_c, 0, 80, 21
1, 295200, Tempo, 2000000
1, 295200, Note_on_c, 0, 80, 0
1, 295200, Note_on_c, 0, 92, 28
1, 295320, Note_on_c, 0, 92, 0
1, 295355, Control_c, 0, 64, 0
1, 295440, Tempo, 727273
1, 295440, Note_on_c, 0, 80, 44
1, 295680, Tempo, 750000
1, 295680, Note_on_c, 0, 80, 0
1, 295680, Note_on_c, 0, 78, 44
1, 295920, Tempo, 800000
1, 295920, Marker_t, "tranquillo"
1, 295920, Note_on_c, 0, 78, 0
1, 295920, Note_on_c, 0, 76, 45
1, 295920, Note_on_c, 0, 49, 33
1, 296160, Tempo, 641711
1, 296160, Note_on_c, 0, 67, 34
1, 296160, Note_on_c, 0, 64, 30
1, 296280, Note_on_c, 0, 67, 0
1, 296280, Note_on_c, 0, 68, 31
1, 296400, Note_on_c, 0, 68, 0
1, 296400, Note_on_c, 0, 64, 0
1, 296400, Note_on_c, 0, 71, 34
1, 296400, Note_on_c, 0, 56, 30
1, 296480, Note_on_c, 0, 71, 0
1, 296480, Note_on_c, 0, 69, 34
1, 296560, Note_on_c, 0, 69, 0
1, 296560, Note_on_c, 0, 68, 32
1, 296640, Tempo, 659341
1, 296640, Note_on_c, 0, 68, 0
1, 296640, Note_on_c, 0, 49, 0
1, 296640, Note_on_c, 0, 68, 43
1, 296640, Note_on_c, 0, 51, 33
1, 296640, Note_on_c, 0, 54, 33
1, 296880, Tempo, 588235
1, 296880, Note_on_c, 0, 76, 0
1, 296880, Note_on_c, 0, 56, 0
1, 296880, Note_on_c, 0, 76, 42
1, 296880, Note_on_c, 0, 60, 32
1, 297120, Note_on_c, 0, 60, 0
1, 297120, Note_on_c, 0, 76, 0
1, 297120, Note_on_c, 0, 75, 39
1, 297120, Note_on_c, 0, 56, 32
1, 297360, Tempo, 524017
1, 297360, Note_on_c, 0, 75, 0
1, 297360, Note_on_c, 0, 54, 0
1, 297360, Note_on_c, 0, 51, 0
1, 297360, Note_on_c, 0, 73, 44
1, 297360, Note_on_c, 0, 52, 33
1, 297600, Tempo, 506329
1, 297600, Note_on_c, 0, 73, 0
1, 297600, Note_on_c, 0, 56, 0
1, 297600, Note_on_c, 0, 68, 0
1, 297600, Note_on_c, 0, 67, 36
1, 297600, Note_on_c, 0, 61, 32
1, 297720, Note_on_c, 0, 67, 0
1, 297720, Note_on_c, 0, 68, 33
1, 297840, Note_on_c, 0, 68, 0
1, 297840, Note_on_c, 0, 61, 0
1, 297840, Note_on_c, 0, 71, 36
1, 297840, Note_on_c, 0, 56, 32
1, 297920, Note_on_c, 0, 71, 0
1, 297920, Note_on_c, 0, 69, 36
1, 298000, Note_on_c, 0, 69, 0
1, 298000, Note_on_c, 0, 68, 33
1, 298080, Note_on_c, 0, 68, 0
1, 298080, Note_on_c, 0, 52, 0
1, 298080, Note_on_c, 0, 68, 44
1, 298080, Note_on_c, 0, 48, 33
1, 298320, Tempo, 495868
1, 298320, Note_on_c, 0, 56, 0
1, 298320, Note_on_c, 0, 80, 43
1, 298320, Note_on_c, 0, 63, 31
1, 298560, Note_on_c, 0, 63, 0
1, 298560, Note_on_c, 0, 80, 0
1, 298560, Note_on_c, 0, 78, 39
1, 298560, Note_on_c, 0, 56, 31
1, 298800, Tempo, 506329
1, 298800, Note_on_c, 0, 78, 0
1, 298800, Note_on_c, 0, 48, 0
1, 298800, Note_on_c, 0, 76, 46
1, 298800, Note_on_c, 0, 49, 33
1, 299040, Tempo, 489796
1, 299040, Note_on_c, 0, 68, 0
1, 299040, Note_on_c, 0, 56, 0
1, 299040, Note_on_c, 0, 67, 38
1, 299040, Note_on_c, 0, 64, 33
1, 299160, Note_on_c, 0, 67, 0
1, 299160, Note_on_c, 0, 68, 35
1, 299280, Note_on_c, 0, 68, 0
1, 299280, Note_on_c, 0, 64, 0
1, 299280, Note_on_c, 0, 71, 38
1, 299280, Note_on_c, 0, 56, 31
1, 299360, Note_on_c, 0, 71, 0
1, 299360, Note_on_c, 0, 69, 38
1, 299440, Note_on_c, 0, 69, 0
1, 299440, Note_on_c, 0, 68, 36
1, 299520, Tempo, 502092
1, 299520, Note_on_c, 0, 68, 0
1, 299520, Note_on_c, 0, 49, 0
1, 299520, Note_on_c, 0, 68, 42
1, 299520, Note_on_c, 0, 51, 33
1, 299520, Note_on_c, 0, 54, 33
1, 299760, Tempo, 487805
1, 299760, Note_on_c, 0, 76, 0
1, 299760, Note_on_c, 0, 56, 0
1, 299760, Note_on_c, 0, 76, 43
1, 299760, Note_on_c, 0, 60, 31
1, 300000, Note_on_c, 0, 60, 0
1, 300000, Note_on_c, 0, 76, 0
1, 300000, Note_on_c, 0, 75, 38
1, 300000, Note_on_c, 0, 56, 31
1, 300240, Tempo, 500000
1, 300240, Note_on_c, 0, 75, 0
1, 300240, Note_on_c, 0, 54, 0
1, 300240, Note_on_c, 0, 51, 0
1, 300240, Note_on_c, 0, 68, 0
1, 300240, Note_on_c, 0, 73, 47
1, 300240, Note_on_c, 0, 52, 33
1, 300480, Tempo, 483871
1, 300480, Note_on_c, 0, 73, 0
1, 300480, Note_on_c, 0, 56, 0
1, 300480, Note_on_c, 0, 72, 37
1, 300480, Note_on_c, 0, 61, 31
1, 300600, Note_on_c, 0, 72, 0
1, 300600, Note_on_c, 0, 73, 35
1, 300720, Note_on_c, 0, 73, 0
1, 300720, Note_on_c, 0, 61, 0
1, 300720, Note_on_c, 0, 76, 37
1, 300720, Note_on_c, 0, 56, 31
1, 300800, Note_on_c, 0, 76, 0
1, 300800, Note_on_c, 0, 74, 37
1, 300880, Note_on_c, 0, 74, 0
1, 300880, Note_on_c, 0, 73, 35
1, 300950, Note_on_c, 0, 73, 0
1, 300960, Tempo, 500000
1, 300960, Note_on_c, 0, 56, 0
1, 300960, Note_on_c, 0, 52, 0
1, 300960, Note_on_c, 0, 73, 41
1, 300960, Note_on_c, 0, 59, 31
1, 300960, Note_on_c, 0, 53, 33
1, 301200, Tempo, 476190
1, 301200, Note_on_c, 0, 59, 0
1, 301200, Note_on_c, 0, 85, 46
1, 301200, Note_on_c, 0, 68, 31
1, 301440, Tempo, 485830
1, 301440, Note_on_c, 0, 68, 0
1, 301440, Note_on_c, 0, 85, 0
1, 301440, Note_on_c, 0, 83, 43
1, 301440, Note_on_c, 0, 61, 31
1, 301680, Tempo, 579710
1, 301680, Note_on_c, 0, 83, 0
1, 301680, Note_on_c, 0, 53, 0
1, 301680, Note_on_c, 0, 81, 53
1, 301680, Note_on_c, 0, 54, 36
1, 301680, Note_on_c, 0, 57, 36
1, 301900, Tempo, 485830
1, 301920, Note_on_c, 0, 73, 0
1, 301920, Note_on_c, 0, 61, 0
1, 301920, Note_on_c, 0, 72, 32
1, 301920, Note_on_c, 0, 66, 31
1, 302040, Note_on_c, 0, 72, 0
1, 302040, Note_on_c, 0, 73, 30
1, 302160, Note_on_c, 0, 73, 0
1, 302160, Note_on_c, 0, 66, 0
1, 302160, Note_on_c, 0, 76, 32
1, 302160, Note_on_c, 0, 61, 31
1, 302240, Note_on_c, 0, 76, 0
1, 302240, Note_on_c, 0, 74, 32
1, 302320, Note_on_c, 0, 74, 0
1, 302320, Note_on_c, 0, 73, 30
1, 302390, Note_on_c, 0, 73, 0
1, 302400, Tempo, 528634
1, 302400, Note_on_c, 0, 57, 0
1, 302400, Note_on_c, 0, 54, 0
1, 302400, Note_on_c, 0, 73, 37
1, 302400, Note_on_c, 0, 56, 33
1, 302400, Note_on_c, 0, 59, 33
1, 302640, Tempo, 476190
1, 302640, Note_on_c, 0, 81, 0
1, 302640, Note_on_c, 0, 61, 0
1, 302640, Note_on_c, 0, 81, 38
1, 302640, Note_on_c, 0, 65, 31
1, 302880, Note_on_c, 0, 65, 0
1, 302880, Note_on_c, 0, 81, 0
1, 302880, Note_on_c, 0, 80, 36
1, 302880, Note_on_c, 0, 61, 31
1, 303120, Tempo, 597015
1, 303120, Note_on_c, 0, 80, 0
1, 303120, Note_on_c, 0, 59, 0
1, 303120, Note_on_c, 0, 56, 0
1, 303120, Note_on_c, 0, 78, 40
1, 303120, Note_on_c, 0, 57, 33
1, 303360, Tempo, 540541
1, 303360, Note_on_c, 0, 78, 0
1, 303360, Note_on_c, 0, 61, 0
1, 303360, Note_on_c, 0, 73, 0
1, 303360, Note_on_c, 0, 72, 27
1, 303360, Note_on_c, 0, 66, 27
1, 303480, Note_on_c, 0, 72, 0
1, 303480, Note_on_c, 0, 73, 27
1, 303600, Note_on_c, 0, 73, 0
1, 303600, Note_on_c, 0, 66, 0
1, 303600, Note_on_c, 0, 76, 30
1, 303600, Note_on_c, 0, 61, 27
1, 303680, Note_on_c, 0, 76, 0
1, 303680, Note_on_c, 0, 74, 30
1, 303760, Note_on_c, 0, 74, 0
1, 303760, Note_on_c, 0, 73, 29
1, 303830, Note_on_c, 0, 73, 0
1, 303840, Tempo, 521739
1, 303840, Note_on_c, 0, 57, 0
1, 303840, Note_on_c, 0, 73, 38
1, 303840, Note_on_c, 0, 53, 30
1, 304080, Tempo, 468750
1, 304080, Note_on_c, 0, 61, 0
1, 304080, Note_on_c, 0, 85, 40
1, 304080, Note_on_c, 0, 68, 31
1, 304320, Tempo, 474308
1, 304320, Note_on_c, 0, 68, 0
1, 304320, Note_on_c, 0, 85, 0
1, 304320, Note_on_c, 0, 83, 38
1, 304320, Note_on_c, 0, 61, 31
1, 304560, Tempo, 481928
1, 304560, Note_on_c, 0, 83, 0
1, 304560, Note_on_c, 0, 53, 0
1, 304560, Note_on_c, 0, 81, 45
1, 304560, Note_on_c, 0, 54, 33
1, 304560, Note_on_c, 0, 57, 33
1, 304800, Tempo, 459770
1, 304800, Note_on_c, 0, 73, 0
1, 304800, Note_on_c, 0, 61, 0
1, 304800, Note_on_c, 0, 72, 37
1, 304800, Note_on_c, 0, 69, 31
1, 304920, Note_on_c, 0, 72, 0
1, 304920, Note_on_c, 0, 73, 37
1, 305040, Note_on_c, 0, 73, 0
1, 305040, Note_on_c, 0, 69, 0
1, 305040, Note_on_c, 0, 76, 37
1, 305040, Note_on_c, 0, 61, 31
1, 305120, Note_on_c, 0, 76, 0
1, 305120, Note_on_c, 0, 74, 37
1, 305200, Note_on_c, 0, 74, 0
1, 305200, Note_on_c, 0, 73, 34
1, 305270, Note_on_c, 0, 73, 0
1, 305280, Tempo, 493827
1, 305280, Note_on_c, 0, 57, 0
1, 305280, Note_on_c, 0, 54, 0
1, 305280, Note_on_c, 0, 73, 42
1, 305280, Note_on_c, 0, 56, 33
1, 305280, Note_on_c, 0, 59, 33
1, 305520, Tempo, 452830
1, 305520, Note_on_c, 0, 81, 0
1, 305520, Note_on_c, 0, 61, 0
1, 305520, Note_on_c, 0, 81, 44
1, 305520, Note_on_c, 0, 65, 31
1, 305760, Tempo, 465116
1, 305760, Note_on_c, 0, 65, 0
1, 305760, Note_on_c, 0, 81, 0
1, 305760, Note_on_c, 0, 80, 40
1, 305760, Note_on_c, 0, 61, 31
1, 306000, Tempo, 515021
1, 306000, Note_on_c, 0, 80, 0
1, 306000, Note_on_c, 0, 59, 0
1, 306000, Note_on_c, 0, 56, 0
1, 306000, Note_on_c, 0, 78, 47
1, 306000, Note_on_c, 0, 57, 33
1, 306240, Tempo, 491803
1, 306240, Note_on_c, 0, 73, 0
1, 306240, Note_on_c, 0, 61, 0
1, 306240, Note_on_c, 0, 72, 37
1, 306240, Note_on_c, 0, 66, 31
1, 306360, Note_on_c, 0, 72, 0
1, 306360, Note_on_c, 0, 73, 35
1, 306480, Note_on_c, 0, 73, 0
1, 306480, Note_on_c, 0, 66, 0
1, 306480, Note_on_c, 0, 76, 37
1, 306480, Note_on_c, 0, 61, 31
1, 306560, Note_on_c, 0, 76, 0
1, 306560, Note_on_c, 0, 74, 37
1, 306640, Note_on_c, 0, 74, 0
1, 306640, Note_on_c, 0, 73, 35
1, 306710, Note_on_c, 0, 73, 0
1, 306720, Tempo, 568720
1, 306720, Note_on_c, 0, 61, 0
1, 306720, Note_on_c, 0, 57, 0
1, 306720, Note_on_c, 0, 73, 41
1, 306720, Note_on_c, 0, 45, 31
1, 306777, Control_c, 0, 64, 127
1, 306840, Note_on_c, 0, 45, 0
1, 306960, Tempo, 506329
1, 306960, Note_on_c, 0, 78, 0
1, 306960, Note_on_c, 0, 80, 43
1, 306960, Note_on_c, 0, 61, 28
1, 307200, Tempo, 533333
1, 307200, Note_on_c, 0, 61, 0
1, 307200, Note_on_c, 0, 80, 0
1, 307200, Note_on_c, 0, 81, 40
1, 307200, Note_on_c, 0, 54, 28
1, 307440, Tempo, 504202
1, 307440, Note_on_c, 0, 54, 0
1, 307440, Note_on_c, 0, 81, 0
1, 307440, Note_on_c, 0, 73, 0
1, 307440, Note_on_c, 0, 80, 50
1, 307440, Note_on_c, 0, 44, 30
1, 307440, Note_on_c, 0, 51, 30
1, 307452, Control_c, 0, 64, 0
1, 307518, Control_c, 0, 64, 127
1, 307680, Tempo, 461538
1, 307680, Note_on_c, 0, 44, 0
1, 307680, Note_on_c, 0, 80, 0
1, 307680, Note_on_c, 0, 67, 32
1, 307680, Note_on_c, 0, 60, 27
1, 307800, Note_on_c, 0, 67, 0
1, 307800, Note_on_c, 0, 68, 30
1, 307920, Note_on_c, 0, 68, 0
1, 307920, Note_on_c, 0, 60, 0
1, 307920, Note_on_c, 0, 71, 32
1, 307920, Note_on_c, 0, 54, 27
1, 308000, Note_on_c, 0, 71, 0
1, 308000, Note_on_c, 0, 69, 32
1, 308080, Note_on_c, 0, 69, 0
1, 308080, Note_on_c, 0, 68, 30
1, 308150, Note_on_c, 0, 68, 0
1, 308160, Tempo, 512821
1, 308160, Note_on_c, 0, 54, 0
1, 308160, Note_on_c, 0, 51, 0
1, 308160, Note_on_c, 0, 68, 37
1, 308160, Note_on_c, 0, 52, 31
1, 308400, Tempo, 461538
1, 308400, Note_on_c, 0, 78, 47
1, 308400, Note_on_c, 0, 61, 33
1, 308413, Control_c, 0, 64, 0
1, 308640, Note_on_c, 0, 61, 0
1, 308640, Note_on_c, 0, 78, 0
1, 308640, Note_on_c, 0, 76, 44
1, 308640, Note_on_c, 0, 56, 33
1, 308880, Tempo, 517241
1, 308880, Note_on_c, 0, 56, 0
1, 308880, Note_on_c, 0, 76, 0
1, 308880, Note_on_c, 0, 52, 0
1, 308880, Note_on_c, 0, 75, 53
1, 308880, Note_on_c, 0, 44, 38
1, 308880, Note_on_c, 0, 54, 38
1, 308976, Control_c, 0, 64, 127
1, 309120, Tempo, 497925
1, 309120, Note_on_c, 0, 44, 0
1, 309120, Note_on_c, 0, 68, 0
1, 309120, Note_on_c, 0, 67, 38
1, 309120, Note_on_c, 0, 60, 32
1, 309240, Note_on_c, 0, 67, 0
1, 309240, Note_on_c, 0, 68, 38
1, 309360, Note_on_c, 0, 68, 0
1, 309360, Note_on_c, 0, 60, 0
1, 309360, Note_on_c, 0, 71, 38
1, 309360, Note_on_c, 0, 56, 32
1, 309440, Note_on_c, 0, 71, 0
1, 309440, Note_on_c, 0, 69, 38
1, 309520, Note_on_c, 0, 69, 0
1, 309520, Note_on_c, 0, 68, 35
1, 309590, Note_on_c, 0, 68, 0
1, 309600, Tempo, 558140
1, 309600, Note_on_c, 0, 54, 0
1, 309600, Note_on_c, 0, 68, 46
1, 309600, Control_c, 0, 64, 0
1, 309600, Note_on_c, 0, 52, 37
1, 309840, Tempo, 533333
1, 309840, Note_on_c, 0, 75, 0
1, 309840, Note_on_c, 0, 56, 0
1, 309840, Note_on_c, 0, 75, 47
1, 309840, Note_on_c, 0, 61, 31
1, 310080, Note_on_c, 0, 61, 0
1, 310080, Note_on_c, 0, 75, 0
1, 310080, Note_on_c, 0, 73, 44
1, 310080, Note_on_c, 0, 56, 31
1, 310320, Tempo, 576923
1, 310320, Note_on_c, 0, 56, 0
1, 310320, Note_on_c, 0, 73, 0
1, 310320, Note_on_c, 0, 52, 0
1, 310320, Note_on_c, 0, 72, 52
1, 310320, Note_on_c, 0, 44, 36
1, 310320, Note_on_c, 0, 51, 36
1, 310397, Control_c, 0, 64, 127
1, 310560, Tempo, 560748
1, 310560, Note_on_c, 0, 44, 0
1, 310560, Note_on_c, 0, 68, 0
1, 310560, Note_on_c, 0, 72, 0
1, 310560, Note_on_c, 0, 67, 41
1, 310560, Note_on_c, 0, 60, 34
1, 310680, Note_on_c, 0, 67, 0
1, 310680, Note_on_c, 0, 68, 38
1, 310800, Note_on_c, 0, 68, 0
1, 310800, Note_on_c, 0, 60, 0
1, 310800, Note_on_c, 0, 71, 41
1, 310800, Note_on_c, 0, 56, 34
1, 310880, Note_on_c, 0, 71, 0
1, 310880, Note_on_c, 0, 69, 41
1, 310960, Note_on_c, 0, 69, 0
1, 310960, Note_on_c, 0, 68, 38
1, 311030, Note_on_c, 0, 68, 0
1, 311040, Tempo, 538117
1, 311040, Note_on_c, 0, 51, 0
1, 311040, Note_on_c, 0, 68, 52
1, 311040, Note_on_c, 0, 52, 38
1, 311053, Control_c, 0, 64, 0
1, 311280, Tempo, 478088
1, 311280, Note_on_c, 0, 56, 0
1, 311280, Note_on_c, 0, 78, 43
1, 311280, Note_on_c, 0, 61, 31
1, 311520, Note_on_c, 0, 61, 0
1, 311520, Note_on_c, 0, 78, 0
1, 311520, Note_on_c, 0, 76, 39
1, 311520, Note_on_c, 0, 56, 31
1, 311760, Tempo, 519481
1, 311760, Note_on_c, 0, 56, 0
1, 311760, Note_on_c, 0, 76, 0
1, 311760, Note_on_c, 0, 52, 0
1, 311760, Note_on_c, 0, 75, 47
1, 311760, Note_on_c, 0, 47, 33
1, 311803, Control_c, 0, 64, 127
1, 312000, Tempo, 502092
1, 312000, Note_on_c, 0, 75, 0
1, 312000, Note_on_c, 0, 68, 0
1, 312000, Note_on_c, 0, 70, 38
1, 312000, Note_on_c, 0, 54, 29
1, 312120, Note_on_c, 0, 70, 0
1, 312120, Note_on_c, 0, 71, 36
1, 312240, Tempo, 571429
1, 312240, Note_on_c, 0, 71, 0
1, 312240, Note_on_c, 0, 75, 38
1, 312240, Note_on_c, 0, 57, 29
1, 312320, Note_on_c, 0, 75, 0
1, 312320, Note_on_c, 0, 73, 38
1, 312400, Note_on_c, 0, 73, 0
1, 312400, Note_on_c, 0, 71, 35
1, 312470, Note_on_c, 0, 71, 0
1, 312480, Tempo, 1061947
1, 312480, Note_on_c, 0, 71, 41
1, 312480, Note_on_c, 0, 63, 33
1, 312720, Note_on_c, 0, 76, 34
1, 312733, Control_c, 0, 64, 0
1, 312960, Note_on_c, 0, 76, 0
1, 312960, Note_on_c, 0, 78, 34
1, 313200, Tempo, 375000
1, 313200, Marker_t, "a tempo"
1, 313200, Note_on_c, 0, 78, 0
1, 313200, Note_on_c, 0, 63, 0
1, 313200, Note_on_c, 0, 47, 0
1, 313200, Note_on_c, 0, 57, 0
1, 313200, Note_on_c, 0, 54, 0
1, 313200, Note_on_c, 0, 71, 0
1, 313200, Note_on_c, 0, 68, 35
1, 313200, Note_on_c, 0, 52, 32
1, 313299, Control_c, 0, 64, 127
1, 313320, Note_on_c, 0, 68, 0
1, 313320, Note_on_c, 0, 71, 37
1, 313440, Note_on_c, 0, 71, 0
1, 313440, Note_on_c, 0, 76, 40
1, 313440, Note_on_c, 0, 64, 29
1, 313440, Note_on_c, 0, 59, 29
1, 313560, Note_on_c, 0, 76, 0
1, 313560, Note_on_c, 0, 80, 42
1, 313680, Note_on_c, 0, 80, 0
1, 313680, Note_on_c, 0, 59, 0
1, 313680, Note_on_c, 0, 64, 0
1, 313680, Note_on_c, 0, 78, 44
1, 313680, Note_on_c, 0, 56, 30
1, 313800, Note_on_c, 0, 78, 0
1, 313800, Note_on_c, 0, 76, 42
1, 313920, Tempo, 319149
1, 313920, Note_on_c, 0, 76, 0
1, 313920, Note_on_c, 0, 56, 0
1, 313920, Note_on_c, 0, 52, 0
1, 313920, Note_on_c, 0, 80, 38
1, 313920, Control_c, 0, 64, 0
1, 313920, Note_on_c, 0, 51, 35
1, 314026, Control_c, 0, 64, 127
1, 314040, Note_on_c, 0, 80, 0
1, 314040, Note_on_c, 0, 83, 40
1, 314160, Note_on_c, 0, 83, 0
1, 314160, Note_on_c, 0, 88, 43
1, 314160, Note_on_c, 0, 64, 30
1, 314160, Note_on_c, 0, 59, 30
1, 314280, Note_on_c, 0, 88, 0
1, 314280, Note_on_c, 0, 92, 46
1, 314400, Note_on_c, 0, 92, 0
1, 314400, Note_on_c, 0, 59, 0
1, 314400, Note_on_c, 0, 64, 0
1, 314400, Note_on_c, 0, 90, 50
1, 314400, Note_on_c, 0, 56, 32
1, 314520, Note_on_c, 0, 90, 0
1, 314520, Note_on_c, 0, 88, 47
1, 314620, Tempo, 318302
1, 314640, Note_on_c, 0, 88, 0
1, 314640, Note_on_c, 0, 56, 0
1, 314640, Note_on_c, 0, 51, 0
1, 314640, Note_on_c, 0, 83, 44
1, 314640, Note_on_c, 0, 52, 32
1, 314649, Control_c, 0, 64, 0
1, 314760, Note_on_c, 0, 83, 0
1, 314760, Note_on_c, 0, 80, 43
1, 314774, Control_c, 0, 64, 127
1, 314780, Tempo, 319149
1, 314880, Note_on_c, 0, 80, 0
1, 314880, Note_on_c, 0, 52, 0
1, 314880, Note_on_c, 0, 78, 42
1, 314880, Note_on_c, 0, 64, 30
1, 314880, Note_on_c, 0, 59, 30
1, 314920, Tempo, 320000
1, 315000, Note_on_c, 0, 78, 0
1, 315000, Note_on_c, 0, 76, 41
1, 315060, Tempo, 320856
1, 315120, Note_on_c, 0, 76, 0
1, 315120, Note_on_c, 0, 59, 0
1, 315120, Note_on_c, 0, 64, 0
1, 315120, Note_on_c, 0, 71, 40
1, 315120, Note_on_c, 0, 56, 30
1, 315200, Tempo, 321716
1, 315240, Note_on_c, 0, 71, 0
1, 315240, Note_on_c, 0, 68, 39
1, 315340, Tempo, 322581
1, 315360, Note_on_c, 0, 68, 0
1, 315360, Note_on_c, 0, 56, 0
1, 315360, Note_on_c, 0, 66, 38
1, 315360, Note_on_c, 0, 47, 32
1, 315367, Control_c, 0, 64, 0
1, 315480, Tempo, 323450
1, 315480, Note_on_c, 0, 66, 0
1, 315480, Note_on_c, 0, 64, 37
1, 315600, Note_on_c, 0, 64, 0
1, 315600, Note_on_c, 0, 59, 36
1, 315620, Tempo, 324324
1, 315720, Note_on_c, 0, 59, 0
1, 315720, Note_on_c, 0, 68, 39
1, 315760, Tempo, 325203
1, 315840, Note_on_c, 0, 68, 0
1, 315840, Note_on_c, 0, 66, 38
1, 315900, Tempo, 326087
1, 315960, Note_on_c, 0, 66, 0
1, 315960, Note_on_c, 0, 64, 37
1, 316040, Tempo, 326975
1, 316080, Tempo, 326975
1, 316080, Note_on_c, 0, 64, 0
1, 316080, Note_on_c, 0, 47, 0
1, 316080, Note_on_c, 0, 61, 36
1, 316080, Note_on_c, 0, 45, 36
1, 316086, Control_c, 0, 64, 0
1, 316100, Tempo, 321716
1, 316160, Tempo, 320856
1, 316200, Tempo, 320000
1, 316200, Note_on_c, 0, 45, 0
1, 316200, Note_on_c, 0, 61, 0
1, 316200, Note_on_c, 0, 64, 34
1, 316228, Control_c, 0, 64, 127
1, 316240, Tempo, 319149
1, 316280, Tempo, 318302
1, 316320, Tempo, 317460
1, 316320, Note_on_c, 0, 64, 0
1, 316320, Note_on_c, 0, 66, 37
1, 316320, Note_on_c, 0, 64, 31
1, 316320, Note_on_c, 0, 61, 31
1, 316360, Tempo, 316623
1, 316400, Tempo, 315789
1, 316440, Tempo, 314961
1, 316440, Note_on_c, 0, 66, 0
1, 316440, Note_on_c, 0, 69, 39
1, 316500, Tempo, 314136
1, 316540, Tempo, 313316
1, 316560, Note_on_c, 0, 69, 0
1, 316560, Note_on_c, 0, 61, 0
1, 316560, Note_on_c, 0, 64, 0
1, 316560, Note_on_c, 0, 73, 41
1, 316560, Note_on_c, 0, 54, 31
1, 316580, Tempo, 312500
1, 316620, Tempo, 311688
1, 316660, Tempo, 310881
1, 316680, Note_on_c, 0, 73, 0
1, 316680, Note_on_c, 0, 76, 43
1, 316700, Tempo, 310078
1, 316740, Tempo, 309278
1, 316780, Tempo, 308483
1, 316800, Note_on_c, 0, 76, 0
1, 316800, Note_on_c, 0, 54, 0
1, 316800, Note_on_c, 0, 78, 46
1, 316800, Note_on_c, 0, 42, 40
1, 316820, Tempo, 307692
1, 316900, Tempo, 308483
1, 316920, Note_on_c, 0, 42, 0
1, 316920, Note_on_c, 0, 78, 0
1, 316920, Note_on_c, 0, 81, 48
1, 316960, Tempo, 309278
1, 317040, Tempo, 310078
1, 317040, Note_on_c, 0, 81, 0
1, 317040, Note_on_c, 0, 85, 50
1, 317040, Note_on_c, 0, 64, 35
1, 317040, Note_on_c, 0, 61, 35
1, 317100, Tempo, 310881
1, 317160, Tempo, 311688
1, 317160, Note_on_c, 0, 85, 0
1, 317160, Note_on_c, 0, 88, 51
1, 317240, Tempo, 312500
1, 317280, Note_on_c, 0, 88, 0
1, 317280, Note_on_c, 0, 61, 0
1, 317280, Note_on_c, 0, 64, 0
1, 317280, Note_on_c, 0, 90, 49
1, 317280, Note_on_c, 0, 54, 35
1, 317300, Tempo, 313316
1, 317380, Tempo, 314136
1, 317400, Note_on_c, 0, 90, 0
1, 317400, Note_on_c, 0, 93, 47
1, 317440, Tempo, 314961
1, 317500, Tempo, 315789
1, 317520, Tempo, 322581
1, 317520, Note_on_c, 0, 93, 0
1, 317520, Note_on_c, 0, 54, 0
1, 317520, Note_on_c, 0, 92, 50
1, 317520, Note_on_c, 0, 47, 38
1, 317527, Control_c, 0, 64, 0
1, 317617, Control_c, 0, 64, 127
1, 317640, Note_on_c, 0, 47, 0
1, 317640, Note_on_c, 0, 92, 0
1, 317640, Note_on_c, 0, 90, 49
1, 317760, Tempo, 314136
1, 317760, Note_on_c, 0, 90, 0
1, 317760, Note_on_c, 0, 87, 49
1, 317760, Note_on_c, 0, 59, 34
1, 317760, Note_on_c, 0, 63, 34
1, 317880, Note_on_c, 0, 87, 0
1, 317880, Note_on_c, 0, 81, 48
1, 318000, Note_on_c, 0, 81, 0
1, 318000, Note_on_c, 0, 80, 47
1, 318000, Note_on_c, 0, 54, 31
1, 318120, Note_on_c, 0, 80, 0
1, 318120, Note_on_c, 0, 78, 46
1, 318220, Tempo, 313316
1, 318240, Note_on_c, 0, 78, 0
1, 318240, Note_on_c, 0, 54, 0
1, 318240, Note_on_c, 0, 75, 45
1, 318240, Note_on_c, 0, 56, 38
1, 318246, Control_c, 0, 64, 0
1, 318320, Tempo, 314136
1, 318360, Note_on_c, 0, 75, 0
1, 318360, Note_on_c, 0, 71, 44
1, 318420, Tempo, 314961
1, 318480, Note_on_c, 0, 71, 0
1, 318480, Note_on_c, 0, 56, 0
1, 318480, Note_on_c, 0, 75, 45
1, 318480, Note_on_c, 0, 54, 40
1, 318520, Tempo, 315789
1, 318600, Note_on_c, 0, 75, 0
1, 318600, Note_on_c, 0, 73, 42
1, 318620, Tempo, 316623
1, 318720, Tempo, 317460
1, 318720, Note_on_c, 0, 73, 0
1, 318720, Note_on_c, 0, 54, 0
1, 318720, Note_on_c, 0, 71, 39
1, 318720, Note_on_c, 0, 56, 48
1, 318820, Tempo, 318302
1, 318840, Note_on_c, 0, 71, 0
1, 318840, Note_on_c, 0, 69, 37
1, 318920, Tempo, 319149
1, 318960, Tempo, 312500
1, 318960, Note_on_c, 0, 69, 0
1, 318960, Note_on_c, 0, 56, 0
1, 318960, Note_on_c, 0, 63, 0
1, 318960, Note_on_c, 0, 59, 0
1, 318960, Note_on_c, 0, 68, 35
1, 318960, Note_on_c, 0, 52, 35
1, 319017, Control_c, 0, 64, 127
1, 319060, Tempo, 311688
1, 319080, Note_on_c, 0, 68, 0
1, 319080, Note_on_c, 0, 71, 37
1, 319140, Tempo, 310881
1, 319200, Note_on_c, 0, 71, 0
1, 319200, Note_on_c, 0, 76, 40
1, 319200, Note_on_c, 0, 64, 31
1, 319200, Note_on_c, 0, 59, 31
1, 319240, Tempo, 310078
1, 319320, Tempo, 309278
1, 319320, Note_on_c, 0, 76, 0
1, 319320, Note_on_c, 0, 80, 42
1, 319400, Tempo, 308483
1, 319440, Note_on_c, 0, 80, 0
1, 319440, Note_on_c, 0, 59, 0
1, 319440, Note_on_c, 0, 64, 0
1, 319440, Note_on_c, 0, 78, 44
1, 319440, Note_on_c, 0, 56, 33
1, 319500, Tempo, 307692
1, 319560, Note_on_c, 0, 78, 0
1, 319560, Note_on_c, 0, 76, 42
1, 319580, Tempo, 306905
1, 319660, Tempo, 306122
1, 319680, Note_on_c, 0, 76, 0
1, 319680, Note_on_c, 0, 56, 0
1, 319680, Note_on_c, 0, 52, 0
1, 319680, Note_on_c, 0, 80, 38
1, 319680, Note_on_c, 0, 51, 38
1, 319688, Control_c, 0, 64, 0
1, 319758, Control_c, 0, 64, 127
1, 319800, Note_on_c, 0, 80, 0
1, 319800, Note_on_c, 0, 83, 40
1, 319860, Tempo, 306905
1, 319920, Note_on_c, 0, 83, 0
1, 319920, Note_on_c, 0, 88, 43
1, 319920, Note_on_c, 0, 64, 33
1, 319920, Note_on_c, 0, 59, 33
1, 320040, Tempo, 307692
1, 320040, Note_on_c, 0, 88, 0
1, 320040, Note_on_c, 0, 92, 46
1, 320160, Note_on_c, 0, 92, 0
1, 320160, Note_on_c, 0, 59, 0
1, 320160, Note_on_c, 0, 64, 0
1, 320160, Note_on_c, 0, 90, 50
1, 320160, Note_on_c, 0, 56, 35
1, 320220, Tempo, 308483
1, 320280, Note_on_c, 0, 90, 0
1, 320280, Note_on_c, 0, 88, 47
1, 320400, Tempo, 308483
1, 320400, Note_on_c, 0, 88, 0
1, 320400, Note_on_c, 0, 56, 0
1, 320400, Note_on_c, 0, 51, 0
1, 320400, Note_on_c, 0, 83, 44
1, 320400, Control_c, 0, 64, 0
1, 320400, Note_on_c, 0, 52, 35
1, 320520, Tempo, 309278
1, 320520, Note_on_c, 0, 83, 0
1, 320520, Note_on_c, 0, 80, 43
1, 320527, Control_c, 0, 64, 127
1, 320640, Tempo, 310078
1, 320640, Note_on_c, 0, 80, 0
1, 320640, Note_on_c, 0, 52, 0
1, 320640, Note_on_c, 0, 78, 42
1, 320640, Note_on_c, 0, 64, 33
1, 320640, Note_on_c, 0, 59, 33
1, 320760, Tempo, 310881
1, 320760, Note_on_c, 0, 78, 0
1, 320760, Note_on_c, 0, 76, 41
1, 320880, Tempo, 311688
1, 320880, Note_on_c, 0, 76, 0
1, 320880, Note_on_c, 0, 59, 0
1, 320880, Note_on_c, 0, 64, 0
1, 320880, Note_on_c, 0, 71, 40
1, 320880, Note_on_c, 0, 56, 33
1, 321000, Tempo, 312500
1, 321000, Note_on_c, 0, 71, 0
1, 321000, Note_on_c, 0, 68, 39
1, 321120, Tempo, 313316
1, 321120, Note_on_c, 0, 68, 0
1, 321120, Note_on_c, 0, 56, 0
1, 321120, Note_on_c, 0, 66, 38
1, 321120, Note_on_c, 0, 47, 35
1, 321132, Control_c, 0, 64, 0
1, 321205, Control_c, 0, 64, 127
1, 321240, Tempo, 314136
1, 321240, Note_on_c, 0, 66, 0
1, 321240, Note_on_c, 0, 64, 37
1, 321360, Tempo, 314961
1, 321360, Note_on_c, 0, 64, 0
1, 321360, Note_on_c, 0, 59, 36
1, 321480, Tempo, 315789
1, 321480, Note_on_c, 0, 59, 0
1, 321480, Note_on_c, 0, 68, 39
1, 321600, Tempo, 316623
1, 321600, Note_on_c, 0, 68, 0
1, 321600, Note_on_c, 0, 66, 38
1, 321720, Tempo, 317460
1, 321720, Note_on_c, 0, 66, 0
1, 321720, Note_on_c, 0, 64, 37
1, 321820, Tempo, 318302
1, 321840, Note_on_c, 0, 64, 0
1, 321840, Note_on_c, 0, 47, 0
1, 321840, Note_on_c, 0, 61, 36
1, 321840, Note_on_c, 0, 45, 36
1, 321849, Control_c, 0, 64, 0
1, 321900, Tempo, 317460
1, 321960, Note_on_c, 0, 45, 0
1, 321960, Note_on_c, 0, 61, 0
1, 321960, Note_on_c, 0, 64, 34
1, 321967, Control_c, 0, 64, 127
1, 321980, Tempo, 316623
1, 322060, Tempo, 315789
1, 322073, Note_on_c, 0, 64, 0
1, 322080, Note_on_c, 0, 66, 37
1, 322080, Note_on_c, 0, 64, 31
1, 322080, Note_on_c, 0, 61, 31
1, 322120, Tempo, 314961
1, 322200, Tempo, 314136
1, 322200, Note_on_c, 0, 66, 0
1, 322200, Note_on_c, 0, 69, 39
1, 322280, Tempo, 313316
1, 322320, Note_on_c, 0, 69, 0
1, 322320, Note_on_c, 0, 61, 0
1, 322320, Note_on_c, 0, 64, 0
1, 322320, Note_on_c, 0, 73, 41
1, 322320, Note_on_c, 0, 54, 31
1, 322340, Tempo, 312500
1, 322420, Tempo, 311688
1, 322440, Note_on_c, 0, 73, 0
1, 322440, Note_on_c, 0, 76, 43
1, 322500, Tempo, 310881
1, 322560, Tempo, 310078
1, 322560, Note_on_c, 0, 76, 0
1, 322560, Note_on_c, 0, 54, 0
1, 322560, Note_on_c, 0, 78, 46
1, 322560, Note_on_c, 0, 42, 40
1, 322680, Note_on_c, 0, 42, 0
1, 322680, Note_on_c, 0, 78, 0
1, 322680, Note_on_c, 0, 81, 48
1, 322720, Tempo, 310881
1, 322800, Note_on_c, 0, 81, 0
1, 322800, Note_on_c, 0, 85, 50
1, 322800, Note_on_c, 0, 64, 35
1, 322800, Note_on_c, 0, 61, 35
1, 322860, Tempo, 311688
1, 322920, Note_on_c, 0, 85, 0
1, 322920, Note_on_c, 0, 88, 51
1, 323020, Tempo, 312500
1, 323040, Note_on_c, 0, 88, 0
1, 323040, Note_on_c, 0, 61, 0
1, 323040, Note_on_c, 0, 64, 0
1, 323040, Note_on_c, 0, 90, 49
1, 323040, Note_on_c, 0, 54, 35
1, 323160, Tempo, 313316
1, 323160, Note_on_c, 0, 90, 0
1, 323160, Note_on_c, 0, 93, 47
1, 323280, Tempo, 320856
1, 323280, Note_on_c, 0, 93, 0
1, 323280, Note_on_c, 0, 54, 0
1, 323280, Note_on_c, 0, 92, 47
1, 323280, Note_on_c, 0, 47, 42
1, 323288, Control_c, 0, 64, 0
1, 323400, Note_on_c, 0, 47, 0
1, 323400, Note_on_c, 0, 92, 0
1, 323400, Note_on_c, 0, 90, 48
1, 323406, Control_c, 0, 64, 127
1, 323520, Tempo, 313316
1, 323520, Note_on_c, 0, 90, 0
1, 323520, Note_on_c, 0, 87, 49
1, 323520, Note_on_c, 0, 59, 36
1, 323520, Note_on_c, 0, 63, 36
1, 323640, Note_on_c, 0, 87, 0
1, 323640, Note_on_c, 0, 81, 50
1, 323760, Note_on_c, 0, 81, 0
1, 323760, Note_on_c, 0, 80, 51
1, 323760, Note_on_c, 0, 54, 36
1, 323880, Note_on_c, 0, 80, 0
1, 323880, Note_on_c, 0, 78, 52
1, 323960, Tempo, 321716
1, 323980, Tempo, 313316
1, 324000, Note_on_c, 0, 78, 0
1, 324000, Note_on_c, 0, 54, 0
1, 324000, Note_on_c, 0, 75, 53
1, 324000, Note_on_c, 0, 56, 38
1, 324012, Control_c, 0, 64, 0
1, 324120, Note_on_c, 0, 75, 0
1, 324120, Note_on_c, 0, 71, 52
1, 324140, Tempo, 314136
1, 324240, Note_on_c, 0, 71, 0
1, 324240, Note_on_c, 0, 56, 0
1, 324240, Note_on_c, 0, 75, 51
1, 324240, Note_on_c, 0, 54, 40
1, 324280, Tempo, 314961
1, 324360, Note_on_c, 0, 75, 0
1, 324360, Note_on_c, 0, 73, 51
1, 324440, Tempo, 315789
1, 324480, Note_on_c, 0, 73, 0
1, 324480, Note_on_c, 0, 54, 0
1, 324480, Note_on_c, 0, 71, 53
1, 324480, Note_on_c, 0, 56, 45
1, 324580, Tempo, 316623
1, 324600, Note_on_c, 0, 71, 0
1, 324600, Note_on_c, 0, 69, 57
1, 324720, Tempo, 317460
1, 324720, Note_on_c, 0, 69, 0
1, 324720, Note_on_c, 0, 56, 0
1, 324720, Note_on_c, 0, 63, 0
1, 324720, Note_on_c, 0, 59, 0
1, 324720, Note_on_c, 0, 68, 56
1, 324720, Note_on_c, 0, 52, 49
1, 324791, Control_c, 0, 64, 127
1, 324800, Tempo, 316623
1, 324840, Note_on_c, 0, 68, 0
1, 324840, Note_on_c, 0, 71, 59
1, 324880, Tempo, 315789
1, 324960, Tempo, 314961
1, 324960, Note_on_c, 0, 71, 0
1, 324960, Note_on_c, 0, 76, 61
1, 324960, Note_on_c, 0, 64, 44
1, 324960, Note_on_c, 0, 59, 44
1, 325040, Tempo, 314136
1, 325080, Note_on_c, 0, 76, 0
1, 325080, Note_on_c, 0, 80, 63
1, 325120, Tempo, 313316
1, 325200, Tempo, 312500
1, 325200, Note_on_c, 0, 80, 0
1, 325200, Note_on_c, 0, 59, 0
1, 325200, Note_on_c, 0, 64, 0
1, 325200, Note_on_c, 0, 78, 65
1, 325200, Note_on_c, 0, 56, 44
1, 325280, Tempo, 311688
1, 325320, Note_on_c, 0, 78, 0
1, 325320, Note_on_c, 0, 76, 63
1, 325360, Tempo, 310881
1, 325440, Note_on_c, 0, 76, 0
1, 325440, Note_on_c, 0, 56, 0
1, 325440, Note_on_c, 0, 52, 0
1, 325440, Note_on_c, 0, 80, 61
1, 325440, Note_on_c, 0, 47, 62
1, 325560, Note_on_c, 0, 47, 0
1, 325560, Note_on_c, 0, 80, 0
1, 325560, Note_on_c, 0, 83, 61
1, 325680, Note_on_c, 0, 83, 0
1, 325680, Note_on_c, 0, 88, 64
1, 325680, Note_on_c, 0, 64, 67
1, 325680, Note_on_c, 0, 59, 67
1, 325800, Note_on_c, 0, 88, 0
1, 325800, Note_on_c, 0, 92, 66
1, 325920, Note_on_c, 0, 92, 0
1, 325920, Note_on_c, 0, 59, 0
1, 325920, Note_on_c, 0, 64, 0
1, 325920, Note_on_c, 0, 90, 69
1, 325920, Note_on_c, 0, 56, 67
1, 326040, Note_on_c, 0, 90, 0
1, 326040, Note_on_c, 0, 88, 65
1, 326160, Note_on_c, 0, 88, 0
1, 326160, Note_on_c, 0, 56, 0
1, 326160, Note_on_c, 0, 84, 62
1, 326160, Note_on_c, 0, 45, 70
1, 326160, Note_on_c, 0, 57, 70
1, 326166, Control_c, 0, 64, 0
1, 326235, Control_c, 0, 64, 127
1, 326280, Note_on_c, 0, 84, 0
1, 326280, Note_on_c, 0, 81, 61
1, 326400, Note_on_c, 0, 81, 0
1, 326400, Note_on_c, 0, 57, 0
1, 326400, Note_on_c, 0, 45, 0
1, 326400, Note_on_c, 0, 78, 60
1, 326400, Note_on_c, 0, 48, 77
1, 326400, Note_on_c, 0, 60, 77
1, 326520, Note_on_c, 0, 78, 0
1, 326520, Note_on_c, 0, 76, 60
1, 326640, Note_on_c, 0, 76, 0
1, 326640, Note_on_c, 0, 72, 59
1, 326760, Note_on_c, 0, 72, 0
1, 326760, Note_on_c, 0, 69, 58
1, 326860, Tempo, 310881
1, 326880, Note_on_c, 0, 69, 0
1, 326880, Note_on_c, 0, 60, 0
1, 326880, Note_on_c, 0, 48, 0
1, 326880, Note_on_c, 0, 66, 57
1, 326880, Control_c, 0, 64, 0
1, 326960, Tempo, 311688
1, 327000, Note_on_c, 0, 66, 0
1, 327000, Note_on_c, 0, 64, 56
1, 327040, Tempo, 312500
1, 327120, Note_on_c, 0, 64, 0
1, 327120, Note_on_c, 0, 60, 55
1, 327140, Tempo, 313316
1, 327220, Tempo, 314136
1, 327240, Note_on_c, 0, 60, 0
1, 327240, Note_on_c, 0, 57, 54
1, 327320, Tempo, 314961
1, 327360, Note_on_c, 0, 57, 0
1, 327360, Note_on_c, 0, 54, 53
1, 327400, Tempo, 315789
1, 327480, Note_on_c, 0, 54, 0
1, 327480, Note_on_c, 0, 52, 52
1, 327500, Tempo, 316623
1, 327580, Tempo, 317460
1, 327600, Note_on_c, 0, 52, 0
1, 327600, Note_on_c, 0, 56, 52
1, 327600, Note_on_c, 0, 40, 66
1, 327660, Tempo, 316623
1, 327692, Control_c, 0, 64, 127
1, 327720, Note_on_c, 0, 56, 0
1, 327720, Note_on_c, 0, 59, 51
1, 327740, Tempo, 315789
1, 327800, Tempo, 314961
1, 327840, Note_on_c, 0, 59, 0
1, 327840, Note_on_c, 0, 64, 52
1, 327840, Note_on_c, 0, 52, 52
1, 327880, Tempo, 314136
1, 327940, Tempo, 313316
1, 327960, Note_on_c, 0, 64, 0
1, 327960, Note_on_c, 0, 68, 53
1, 328020, Tempo, 312500
1, 328080, Note_on_c, 0, 68, 0
1, 328080, Note_on_c, 0, 52, 0
1, 328080, Note_on_c, 0, 66, 54
1, 328080, Note_on_c, 0, 47, 52
1, 328100, Tempo, 311688
1, 328160, Tempo, 310881
1, 328200, Note_on_c, 0, 66, 0
1, 328200, Note_on_c, 0, 64, 52
1, 328240, Tempo, 310078
1, 328300, Tempo, 309278
1, 328320, Note_on_c, 0, 64, 0
1, 328320, Note_on_c, 0, 47, 0
1, 328320, Note_on_c, 0, 40, 0
1, 328320, Note_on_c, 0, 68, 49
1, 328320, Note_on_c, 0, 35, 68
1, 328330, Control_c, 0, 64, 0
1, 328380, Tempo, 308483
1, 328405, Control_c, 0, 64, 127
1, 328440, Note_on_c, 0, 35, 0
1, 328440, Note_on_c, 0, 68, 0
1, 328440, Note_on_c, 0, 71, 51
1, 328460, Tempo, 307692
1, 328520, Tempo, 306905
1, 328560, Note_on_c, 0, 71, 0
1, 328560, Note_on_c, 0, 76, 54
1, 328560, Note_on_c, 0, 52, 66
1, 328600, Tempo, 306122
1, 328660, Tempo, 305344
1, 328680, Note_on_c, 0, 76, 0
1, 328680, Note_on_c, 0, 80, 57
1, 328740, Tempo, 304569
1, 328800, Tempo, 303797
1, 328800, Note_on_c, 0, 80, 0
1, 328800, Note_on_c, 0, 52, 0
1, 328800, Note_on_c, 0, 78, 59
1, 328800, Note_on_c, 0, 47, 66
1, 328920, Note_on_c, 0, 78, 0
1, 328920, Note_on_c, 0, 76, 57
1, 329040, Note_on_c, 0, 76, 0
1, 329040, Note_on_c, 0, 47, 0
1, 329040, Note_on_c, 0, 72, 59
1, 329040, Note_on_c, 0, 33, 75
1, 329040, Note_on_c, 0, 45, 75
1, 329049, Control_c, 0, 64, 0
1, 329120, Control_c, 0, 64, 127
1, 329160, Note_on_c, 0, 72, 0
1, 329160, Note_on_c, 0, 69, 61
1, 329280, Note_on_c, 0, 69, 0
1, 329280, Note_on_c, 0, 45, 0
1, 329280, Note_on_c, 0, 33, 0
1, 329280, Note_on_c, 0, 66, 62
1, 329280, Note_on_c, 0, 36, 86
1, 329280, Note_on_c, 0, 48, 86
1, 329400, Note_on_c, 0, 66, 0
1, 329400, Note_on_c, 0, 64, 64
1, 329520, Note_on_c, 0, 64, 0
1, 329520, Note_on_c, 0, 60, 66
1, 329640, Note_on_c, 0, 60, 0
1, 329640, Note_on_c, 0, 57, 67
1, 329760, Tempo, 303797
1, 329760, Note_on_c, 0, 57, 0
1, 329760, Note_on_c, 0, 48, 0
1, 329760, Note_on_c, 0, 36, 0
1, 329760, Note_on_c, 0, 54, 69
1, 329760, Control_c, 0, 64, 0
1, 329820, Tempo, 304569
1, 329860, Tempo, 305344
1, 329880, Note_on_c, 0, 54, 0
1, 329880, Note_on_c, 0, 52, 71
1, 329900, Tempo, 306122
1, 329940, Tempo, 306905
1, 329980, Tempo, 307692
1, 330000, Note_on_c, 0, 52, 0
1, 330000, Note_on_c, 0, 48, 73
1, 330020, Tempo, 308483
1, 330060, Tempo, 309278
1, 330100, Tempo, 310078
1, 330120, Note_on_c, 0, 48, 0
1, 330120, Note_on_c, 0, 45, 74
1, 330140, Tempo, 310881
1, 330180, Tempo, 311688
1, 330220, Tempo, 312500
1, 330240, Note_on_c, 0, 45, 0
1, 330240, Note_on_c, 0, 42, 76
1, 330260, Tempo, 313316
1, 330300, Tempo, 314136
1, 330340, Tempo, 314961
1, 330360, Note_on_c, 0, 42, 0
1, 330360, Note_on_c, 0, 40, 78
1, 330380, Tempo, 315789
1, 330420, Tempo, 316623
1, 330460, Tempo, 317460
1, 330480, Tempo, 325203
1, 330480, Note_on_c, 0, 40, 0
1, 330480, Note_on_c, 0, 28, 104
1, 330600, Control_c, 0, 64, 127
1, 330720, Tempo, 306122
1, 330720, Note_on_c, 0, 28, 0
1, 330720, Note_on_c, 0, 47, 73
1, 330840, Note_on_c, 0, 47, 0
1, 330840, Note_on_c, 0, 52, 68
1, 330960, Note_on_c, 0, 52, 0
1, 330960, Note_on_c, 0, 57, 68
1, 331080, Note_on_c, 0, 57, 0
1, 331080, Note_on_c, 0, 56, 68
1, 331200, Note_on_c, 0, 56, 0
1, 331200, Note_on_c, 0, 59, 73
1, 331320, Note_on_c, 0, 59, 0
1, 331320, Note_on_c, 0, 64, 67
1, 331440, Note_on_c, 0, 64, 0
1, 331440, Note_on_c, 0, 69, 67
1, 331560, Note_on_c, 0, 69, 0
1, 331560, Note_on_c, 0, 68, 68
1, 331680, Note_on_c, 0, 68, 0
1, 331680, Note_on_c, 0, 71, 72
1, 331800, Note_on_c, 0, 71, 0
1, 331800, Note_on_c, 0, 76, 73
1, 331920, Note_on_c, 0, 76, 0
1, 331920, Note_on_c, 0, 81, 76
1, 331920, Note_on_c, 0, 68, 80
1, 331920, Note_on_c, 0, 59, 80
1, 331920, Note_on_c, 0, 52, 80
1, 332040, Note_on_c, 0, 81, 0
1, 332040, Note_on_c, 0, 80, 71
1, 332160, Note_on_c, 0, 80, 0
1, 332160, Note_on_c, 0, 52, 0
1, 332160, Note_on_c, 0, 59, 0
1, 332160, Note_on_c, 0, 68, 0
1, 332160, Note_on_c, 0, 83, 71
1, 332280, Note_on_c, 0, 83, 0
1, 332280, Note_on_c, 0, 88, 71
1, 332400, Note_on_c, 0, 88, 0
1, 332400, Note_on_c, 0, 93, 71
1, 332520, Note_on_c, 0, 93, 0
1, 332520, Note_on_c, 0, 92, 71
1, 332640, Note_on_c, 0, 92, 0
1, 332640, Note_on_c, 0, 88, 77
1, 332760, Note_on_c, 0, 88, 0
1, 332760, Note_on_c, 0, 83, 71
1, 332880, Note_on_c, 0, 83, 0
1, 332880, Note_on_c, 0, 81, 71
1, 333000, Note_on_c, 0, 81, 0
1, 333000, Note_on_c, 0, 80, 71
1, 333120, Note_on_c, 0, 80, 0
1, 333120, Note_on_c, 0, 76, 71
1, 333240, Note_on_c, 0, 76, 0
1, 333240, Note_on_c, 0, 71, 71
1, 333360, Tempo, 305344
1, 333360, Note_on_c, 0, 71, 0
1, 333360, Note_on_c, 0, 69, 71
1, 333480, Tempo, 306122
1, 333480, Note_on_c, 0, 69, 0
1, 333480, Note_on_c, 0, 68, 72
1, 333600, Tempo, 306905
1, 333600, Note_on_c, 0, 68, 0
1, 333600, Note_on_c, 0, 64, 73
1, 333700, Tempo, 307692
1, 333720, Note_on_c, 0, 64, 0
1, 333720, Note_on_c, 0, 59, 75
1, 333820, Tempo, 308483
1, 333840, Note_on_c, 0, 59, 0
1, 333840, Note_on_c, 0, 57, 77
1, 333920, Tempo, 309278
1, 333960, Note_on_c, 0, 57, 0
1, 333960, Note_on_c, 0, 56, 78
1, 334040, Tempo, 310078
1, 334080, Note_on_c, 0, 56, 0
1, 334080, Note_on_c, 0, 52, 80
1, 334140, Tempo, 310881
1, 334200, Note_on_c, 0, 52, 0
1, 334200, Note_on_c, 0, 47, 81
1, 334260, Tempo, 311688
1, 334320, Note_on_c, 0, 47, 0
1, 334320, Note_on_c, 0, 45, 82
1, 334360, Tempo, 312500
1, 334440, Note_on_c, 0, 45, 0
1, 334440, Note_on_c, 0, 44, 84
1, 334480, Tempo, 313316
1, 334560, Note_on_c, 0, 44, 0
1, 334560, Note_on_c, 0, 40, 86
1, 334580, Tempo, 314136
1, 334680, Note_on_c, 0, 40, 0
1, 334680, Note_on_c, 0, 35, 88
1, 334700, Tempo, 314961
1, 334800, Tempo, 315789
1, 334800, Note_on_c, 0, 35, 0
1, 334800, Note_on_c, 0, 28, 96
1, 334814, Control_c, 0, 64, 0
1, 335520, Note_on_c, 0, 28, 0
1, 336240, Tempo, 351906
1, 336240, Note_on_c, 0, 38, 98
1, 336240, Note_on_c, 0, 26, 83
1, 336309, Control_c, 0, 64, 127
1, 336480, Tempo, 306122
1, 336480, Note_on_c, 0, 26, 0
1, 336480, Note_on_c, 0, 38, 0
1, 336480, Note_on_c, 0, 47, 73
1, 336600, Note_on_c, 0, 47, 0
1, 336600, Note_on_c, 0, 53, 68
1, 336720, Note_on_c, 0, 53, 0
1, 336720, Note_on_c, 0, 57, 68
1, 336840, Note_on_c, 0, 57, 0
1, 336840, Note_on_c, 0, 56, 68
1, 336960, Note_on_c, 0, 56, 0
1, 336960, Note_on_c, 0, 59, 73
1, 337080, Note_on_c, 0, 59, 0
1, 337080, Note_on_c, 0, 65, 67
1, 337200, Note_on_c, 0, 65, 0
1, 337200, Note_on_c, 0, 69, 67
1, 337320, Note_on_c, 0, 69, 0
1, 337320, Note_on_c, 0, 68, 68
1, 337440, Note_on_c, 0, 68, 0
1, 337440, Note_on_c, 0, 71, 72
1, 337560, Note_on_c, 0, 71, 0
1, 337560, Note_on_c, 0, 77, 73
1, 337680, Note_on_c, 0, 77, 0
1, 337680, Note_on_c, 0, 81, 76
1, 337680, Note_on_c, 0, 56, 80
1, 337680, Note_on_c, 0, 65, 80
1, 337680, Note_on_c, 0, 59, 80
1, 337680, Note_on_c, 0, 50, 68
1, 337800, Note_on_c, 0, 81, 0
1, 337800, Note_on_c, 0, 80, 71
1, 337920, Note_on_c, 0, 80, 0
1, 337920, Note_on_c, 0, 50, 0
1, 337920, Note_on_c, 0, 56, 0
1, 337920, Note_on_c, 0, 65, 0
1, 337920, Note_on_c, 0, 59, 0
1, 337920, Note_on_c, 0, 83, 71
1, 338040, Note_on_c, 0, 83, 0
1, 338040, Note_on_c, 0, 89, 71
1, 338160, Note_on_c, 0, 89, 0
1, 338160, Note_on_c, 0, 93, 71
1, 338280, Note_on_c, 0, 93, 0
1, 338280, Note_on_c, 0, 92, 71
1, 338400, Note_on_c, 0, 92, 0
1, 338400, Note_on_c, 0, 89, 77
1, 338520, Note_on_c, 0, 89, 0
1, 338520, Note_on_c, 0, 83, 71
1, 338640, Note_on_c, 0, 83, 0
1, 338640, Note_on_c, 0, 81, 71
1, 338760, Note_on_c, 0, 81, 0
1, 338760, Note_on_c, 0, 80, 71
1, 338880, Note_on_c, 0, 80, 0
1, 338880, Note_on_c, 0, 77, 71
1, 339000, Note_on_c, 0, 77, 0
1, 339000, Note_on_c, 0, 71, 71
1, 339120, Tempo, 305344
1, 339120, Note_on_c, 0, 71, 0
1, 339120, Note_on_c, 0, 69, 71
1, 339240, Tempo, 306122
1, 339240, Note_on_c, 0, 69, 0
1, 339240, Note_on_c, 0, 68, 72
1, 339360, Tempo, 306905
1, 339360, Note_on_c, 0, 68, 0
1, 339360, Note_on_c, 0, 65, 73
1, 339460, Tempo, 307692
1, 339480, Note_on_c, 0, 65, 0
1, 339480, Note_on_c, 0, 59, 75
1, 339580, Tempo, 308483
1, 339600, Note_on_c, 0, 59, 0
1, 339600, Note_on_c, 0, 57, 77
1, 339680, Tempo, 309278
1, 339720, Note_on_c, 0, 57, 0
1, 339720, Note_on_c, 0, 56, 78
1, 339800, Tempo, 310078
1, 339840, Note_on_c, 0, 56, 0
1, 339840, Note_on_c, 0, 53, 80
1, 339900, Tempo, 310881
1, 339960, Note_on_c, 0, 53, 0
1, 339960, Note_on_c, 0, 47, 81
1, 340020, Tempo, 311688
1, 340080, Note_on_c, 0, 47, 0
1, 340080, Note_on_c, 0, 45, 82
1, 340120, Tempo, 312500
1, 340200, Note_on_c, 0, 45, 0
1, 340200, Note_on_c, 0, 44, 84
1, 340240, Tempo, 313316
1, 340320, Note_on_c, 0, 44, 0
1, 340320, Note_on_c, 0, 41, 86
1, 340340, Tempo, 314136
1, 340440, Note_on_c, 0, 41, 0
1, 340440, Note_on_c, 0, 35, 88
1, 340460, Tempo, 314961
1, 340560, Tempo, 315789
1, 340560, Note_on_c, 0, 35, 0
1, 340560, Control_c, 0, 64, 0
1, 340560, Note_on_c, 0, 26, 96
1, 342000, Tempo, 351906
1, 342000, Note_on_c, 0, 26, 0
1, 342000, Note_on_c, 0, 25, 86
1, 342000, Note_on_c, 0, 37, 102
1, 342240, Tempo, 307692
1, 342240, Note_on_c, 0, 37, 0
1, 342240, Note_on_c, 0, 25, 0
1, 342240, Note_on_c, 0, 70, 66
1, 342360, Note_on_c, 0, 70, 0
1, 342360, Note_on_c, 0, 68, 67
1, 342480, Note_on_c, 0, 68, 0
1, 342480, Note_on_c, 0, 71, 68
1, 342600, Note_on_c, 0, 71, 0
1, 342600, Note_on_c, 0, 77, 69
1, 342720, Tempo, 313316
1, 342720, Note_on_c, 0, 77, 0
1, 342720, Note_on_c, 0, 82, 71
1, 342720, Note_on_c, 0, 44, 84
1, 342720, Note_on_c, 0, 56, 84
1, 342840, Note_on_c, 0, 82, 0
1, 342840, Note_on_c, 0, 80, 72
1, 342960, Note_on_c, 0, 80, 0
1, 342960, Note_on_c, 0, 56, 0
1, 342960, Note_on_c, 0, 44, 0
1, 342960, Note_on_c, 0, 83, 73
1, 342960, Note_on_c, 0, 51, 90
1, 342960, Note_on_c, 0, 63, 90
1, 343080, Note_on_c, 0, 83, 0
1, 343080, Note_on_c, 0, 89, 74
1, 343200, Note_on_c, 0, 89, 0
1, 343200, Note_on_c, 0, 63, 0
1, 343200, Note_on_c, 0, 51, 0
1, 343200, Note_on_c, 0, 94, 75
1, 343200, Note_on_c, 0, 49, 84
1, 343200, Note_on_c, 0, 61, 84
1, 343320, Note_on_c, 0, 94, 0
1, 343320, Note_on_c, 0, 92, 77
1, 343440, Tempo, 307692
1, 343440, Note_on_c, 0, 92, 0
1, 343440, Note_on_c, 0, 61, 0
1, 343440, Note_on_c, 0, 49, 0
1, 343440, Note_on_c, 0, 82, 80
1, 343440, Note_on_c, 0, 49, 95
1, 343440, Note_on_c, 0, 61, 95
1, 343509, Control_c, 0, 64, 127
1, 343560, Note_on_c, 0, 82, 0
1, 343560, Note_on_c, 0, 88, 74
1, 343680, Note_on_c, 0, 88, 0
1, 343680, Note_on_c, 0, 92, 77
1, 343800, Note_on_c, 0, 92, 0
1, 343800, Note_on_c, 0, 91, 81
1, 343920, Note_on_c, 0, 91, 0
1, 343920, Note_on_c, 0, 61, 0
1, 343920, Note_on_c, 0, 49, 0
1, 343920, Note_on_c, 0, 88, 80
1, 344040, Note_on_c, 0, 88, 0
1, 344040, Note_on_c, 0, 82, 78
1, 344160, Tempo, 306905
1, 344160, Note_on_c, 0, 82, 0
1, 344160, Note_on_c, 0, 80, 76
1, 344160, Note_on_c, 0, 37, 90
1, 344160, Note_on_c, 0, 49, 90
1, 344240, Tempo, 307692
1, 344280, Note_on_c, 0, 49, 0
1, 344280, Note_on_c, 0, 37, 0
1, 344280, Note_on_c, 0, 80, 0
1, 344280, Note_on_c, 0, 79, 76
1, 344320, Tempo, 308483
1, 344400, Tempo, 309278
1, 344400, Note_on_c, 0, 79, 0
1, 344400, Note_on_c, 0, 76, 76
1, 344460, Tempo, 310078
1, 344520, Note_on_c, 0, 76, 0
1, 344520, Note_on_c, 0, 70, 76
1, 344540, Tempo, 310881
1, 344620, Tempo, 311688
1, 344640, Note_on_c, 0, 70, 0
1, 344640, Note_on_c, 0, 68, 74
1, 344680, Tempo, 312500
1, 344760, Tempo, 313316
1, 344760, Note_on_c, 0, 68, 0
1, 344760, Note_on_c, 0, 67, 73
1, 344840, Tempo, 314136
1, 344880, Tempo, 338983
1, 344880, Note_on_c, 0, 67, 0
1, 344880, Note_on_c, 0, 57, 73
1, 344880, Note_on_c, 0, 25, 90
1, 344880, Note_on_c, 0, 37, 90
1, 344882, Control_c, 0, 64, 0
1, 344983, Control_c, 0, 64, 127
1, 345000, Note_on_c, 0, 57, 0
1, 345000, Note_on_c, 0, 63, 73
1, 345120, Tempo, 307692
1, 345120, Note_on_c, 0, 63, 0
1, 345120, Note_on_c, 0, 37, 0
1, 345120, Note_on_c, 0, 25, 0
1, 345120, Note_on_c, 0, 68, 74
1, 345240, Note_on_c, 0, 68, 0
1, 345240, Note_on_c, 0, 66, 75
1, 345360, Note_on_c, 0, 66, 0
1, 345360, Note_on_c, 0, 69, 76
1, 345480, Note_on_c, 0, 69, 0
1, 345480, Note_on_c, 0, 75, 76
1, 345600, Tempo, 314961
1, 345600, Note_on_c, 0, 75, 0
1, 345600, Note_on_c, 0, 80, 77
1, 345600, Control_c, 0, 64, 0
1, 345600, Note_on_c, 0, 42, 82
1, 345600, Note_on_c, 0, 54, 82
1, 345720, Note_on_c, 0, 80, 0
1, 345720, Note_on_c, 0, 78, 76
1, 345840, Note_on_c, 0, 78, 0
1, 345840, Note_on_c, 0, 54, 0
1, 345840, Note_on_c, 0, 42, 0
1, 345840, Note_on_c, 0, 81, 79
1, 345840, Note_on_c, 0, 51, 87
1, 345840, Note_on_c, 0, 63, 87
1, 345960, Note_on_c, 0, 81, 0
1, 345960, Note_on_c, 0, 87, 81
1, 346080, Note_on_c, 0, 87, 0
1, 346080, Note_on_c, 0, 63, 0
1, 346080, Note_on_c, 0, 51, 0
1, 346080, Note_on_c, 0, 92, 84
1, 346080, Note_on_c, 0, 49, 82
1, 346080, Note_on_c, 0, 61, 82
1, 346200, Note_on_c, 0, 92, 0
1, 346200, Note_on_c, 0, 90, 86
1, 346320, Note_on_c, 0, 90, 0
1, 346320, Note_on_c, 0, 61, 0
1, 346320, Note_on_c, 0, 49, 0
1, 346320, Note_on_c, 0, 80, 88
1, 346320, Note_on_c, 0, 49, 93
1, 346320, Note_on_c, 0, 61, 93
1, 346440, Note_on_c, 0, 61, 0
1, 346440, Note_on_c, 0, 49, 0
1, 346440, Note_on_c, 0, 80, 0
1, 346440, Note_on_c, 0, 85, 87
1, 346560, Tempo, 308483
1, 346560, Note_on_c, 0, 85, 0
1, 346560, Note_on_c, 0, 90, 87
1, 346560, Note_on_c, 0, 31, 71
1, 346560, Note_on_c, 0, 43, 71
1, 346680, Note_on_c, 0, 90, 0
1, 346680, Note_on_c, 0, 89, 85
1, 346800, Note_on_c, 0, 89, 0
1, 346800, Note_on_c, 0, 43, 0
1, 346800, Note_on_c, 0, 31, 0
1, 346800, Note_on_c, 0, 85, 83
1, 346800, Note_on_c, 0, 32, 71
1, 346800, Note_on_c, 0, 44, 71
1, 346920, Note_on_c, 0, 85, 0
1, 346920, Note_on_c, 0, 80, 82
1, 347040, Note_on_c, 0, 80, 0
1, 347040, Note_on_c, 0, 44, 0
1, 347040, Note_on_c, 0, 32, 0
1, 347040, Note_on_c, 0, 78, 80
1, 347040, Note_on_c, 0, 32, 71
1, 347040, Note_on_c, 0, 44, 71
1, 347160, Note_on_c, 0, 78, 0
1, 347160, Note_on_c, 0, 77, 78
1, 347280, Note_on_c, 0, 77, 0
1, 347280, Note_on_c, 0, 44, 0
1, 347280, Note_on_c, 0, 32, 0
1, 347280, Note_on_c, 0, 73, 76
1, 347280, Note_on_c, 0, 39, 75
1, 347280, Note_on_c, 0, 51, 75
1, 347400, Note_on_c, 0, 73, 0
1, 347400, Note_on_c, 0, 68, 74
1, 347520, Note_on_c, 0, 68, 0
1, 347520, Note_on_c, 0, 51, 0
1, 347520, Note_on_c, 0, 39, 0
1, 347520, Note_on_c, 0, 66, 72
1, 347520, Note_on_c, 0, 37, 74
1, 347520, Note_on_c, 0, 49, 74
1, 347640, Note_on_c, 0, 66, 0
1, 347640, Note_on_c, 0, 65, 71
1, 347760, Tempo, 321716
1, 347760, Note_on_c, 0, 65, 0
1, 347760, Note_on_c, 0, 49, 0
1, 347760, Note_on_c, 0, 37, 0
1, 347760, Note_on_c, 0, 60, 71
1, 347760, Note_on_c, 0, 38, 93
1, 347760, Note_on_c, 0, 50, 93
1, 347828, Control_c, 0, 64, 127
1, 347880, Note_on_c, 0, 60, 0
1, 347880, Note_on_c, 0, 66, 71
1, 348000, Tempo, 307692
1, 348000, Note_on_c, 0, 66, 0
1, 348000, Note_on_c, 0, 50, 0
1, 348000, Note_on_c, 0, 38, 0
1, 348000, Note_on_c, 0, 71, 71
1, 348120, Note_on_c, 0, 71, 0
1, 348120, Note_on_c, 0, 69, 71
1, 348240, Note_on_c, 0, 69, 0
1, 348240, Note_on_c, 0, 72, 71
1, 348360, Note_on_c, 0, 72, 0
1, 348360, Note_on_c, 0, 78, 71
1, 348480, Tempo, 316623
1, 348480, Note_on_c, 0, 78, 0
1, 348480, Note_on_c, 0, 83, 69
1, 348480, Control_c, 0, 64, 0
1, 348480, Note_on_c, 0, 45, 81
1, 348480, Note_on_c, 0, 57, 81
1, 348600, Note_on_c, 0, 83, 0
1, 348600, Note_on_c, 0, 81, 71
1, 348720, Note_on_c, 0, 81, 0
1, 348720, Note_on_c, 0, 57, 0
1, 348720, Note_on_c, 0, 45, 0
1, 348720, Note_on_c, 0, 84, 73
1, 348720, Note_on_c, 0, 64, 86
1, 348720, Note_on_c, 0, 52, 86
1, 348840, Note_on_c, 0, 84, 0
1, 348840, Note_on_c, 0, 90, 75
1, 348960, Note_on_c, 0, 90, 0
1, 348960, Note_on_c, 0, 52, 0
1, 348960, Note_on_c, 0, 64, 0
1, 348960, Note_on_c, 0, 95, 76
1, 348960, Note_on_c, 0, 50, 79
1, 348960, Note_on_c, 0, 62, 79
1, 349080, Note_on_c, 0, 95, 0
1, 349080, Note_on_c, 0, 93, 78
1, 349200, Tempo, 307692
1, 349200, Note_on_c, 0, 93, 0
1, 349200, Note_on_c, 0, 62, 0
1, 349200, Note_on_c, 0, 50, 0
1, 349200, Note_on_c, 0, 83, 80
1, 349200, Note_on_c, 0, 50, 93
1, 349200, Note_on_c, 0, 62, 93
1, 349240, Control_c, 0, 64, 127
1, 349320, Note_on_c, 0, 83, 0
1, 349320, Note_on_c, 0, 89, 82
1, 349440, Note_on_c, 0, 89, 0
1, 349440, Note_on_c, 0, 93, 82
1, 349560, Note_on_c, 0, 93, 0
1, 349560, Note_on_c, 0, 92, 80
1, 349680, Note_on_c, 0, 92, 0
1, 349680, Note_on_c, 0, 62, 0
1, 349680, Note_on_c, 0, 50, 0
1, 349680, Note_on_c, 0, 89, 79
1, 349800, Note_on_c, 0, 89, 0
1, 349800, Note_on_c, 0, 83, 78
1, 349920, Note_on_c, 0, 83, 0
1, 349920, Note_on_c, 0, 81, 77
1, 349920, Note_on_c, 0, 38, 97
1, 349920, Note_on_c, 0, 50, 97
1, 350040, Note_on_c, 0, 50, 0
1, 350040, Note_on_c, 0, 38, 0
1, 350040, Note_on_c, 0, 81, 0
1, 350040, Note_on_c, 0, 80, 76
1, 350160, Note_on_c, 0, 80, 0
1, 350160, Note_on_c, 0, 77, 75
1, 350280, Note_on_c, 0, 77, 0
1, 350280, Note_on_c, 0, 71, 74
1, 350400, Note_on_c, 0, 71, 0
1, 350400, Note_on_c, 0, 69, 73
1, 350520, Note_on_c, 0, 69, 0
1, 350520, Note_on_c, 0, 68, 72
1, 350640, Tempo, 321716
1, 350640, Note_on_c, 0, 68, 0
1, 350640, Note_on_c, 0, 58, 71
1, 350640, Control_c, 0, 64, 0
1, 350640, Note_on_c, 0, 38, 93
1, 350640, Note_on_c, 0, 26, 79
1, 350726, Control_c, 0, 64, 127
1, 350760, Note_on_c, 0, 58, 0
1, 350760, Note_on_c, 0, 64, 71
1, 350880, Tempo, 307692
1, 350880, Note_on_c, 0, 64, 0
1, 350880, Note_on_c, 0, 26, 0
1, 350880, Note_on_c, 0, 38, 0
1, 350880, Note_on_c, 0, 69, 71
1, 351000, Note_on_c, 0, 69, 0
1, 351000, Note_on_c, 0, 67, 71
1, 351120, Note_on_c, 0, 67, 0
1, 351120, Note_on_c, 0, 70, 71
1, 351240, Note_on_c, 0, 70, 0
1, 351240, Note_on_c, 0, 76, 71
1, 351360, Tempo, 316623
1, 351360, Note_on_c, 0, 76, 0
1, 351360, Note_on_c, 0, 81, 69
1, 351360, Control_c, 0, 64, 0
1, 351360, Note_on_c, 0, 43, 81
1, 351360, Note_on_c, 0, 55, 81
1, 351480, Note_on_c, 0, 81, 0
1, 351480, Note_on_c, 0, 79, 71
1, 351600, Note_on_c, 0, 79, 0
1, 351600, Note_on_c, 0, 55, 0
1, 351600, Note_on_c, 0, 43, 0
1, 351600, Note_on_c, 0, 82, 73
1, 351600, Note_on_c, 0, 64, 86
1, 351600, Note_on_c, 0, 52, 86
1, 351720, Note_on_c, 0, 82, 0
1, 351720, Note_on_c, 0, 88, 75
1, 351840, Note_on_c, 0, 88, 0
1, 351840, Note_on_c, 0, 52, 0
1, 351840, Note_on_c, 0, 64, 0
1, 351840, Note_on_c, 0, 93, 76
1, 351840, Note_on_c, 0, 50, 79
1, 351840, Note_on_c, 0, 62, 79
1, 351960, Note_on_c, 0, 93, 0
1, 351960, Note_on_c, 0, 91, 78
1, 352080, Tempo, 307692
1, 352080, Note_on_c, 0, 91, 0
1, 352080, Note_on_c, 0, 62, 0
1, 352080, Note_on_c, 0, 50, 0
1, 352080, Note_on_c, 0, 81, 80
1, 352080, Note_on_c, 0, 50, 86
1, 352080, Note_on_c, 0, 62, 86
1, 352200, Note_on_c, 0, 62, 0
1, 352200, Note_on_c, 0, 50, 0
1, 352200, Note_on_c, 0, 81, 0
1, 352200, Note_on_c, 0, 86, 82
1, 352320, Note_on_c, 0, 86, 0
1, 352320, Note_on_c, 0, 91, 82
1, 352320, Note_on_c, 0, 37, 71
1, 352320, Note_on_c, 0, 49, 71
1, 352440, Note_on_c, 0, 91, 0
1, 352440, Note_on_c, 0, 90, 80
1, 352560, Note_on_c, 0, 90, 0
1, 352560, Note_on_c, 0, 49, 0
1, 352560, Note_on_c, 0, 37, 0
1, 352560, Note_on_c, 0, 86, 79
1, 352560, Note_on_c, 0, 38, 71
1, 352560, Note_on_c, 0, 50, 71
1, 352680, Note_on_c, 0, 86, 0
1, 352680, Note_on_c, 0, 81, 78
1, 352800, Note_on_c, 0, 81, 0
1, 352800, Note_on_c, 0, 50, 0
1, 352800, Note_on_c, 0, 38, 0
1, 352800, Note_on_c, 0, 79, 76
1, 352800, Note_on_c, 0, 38, 77
1, 352800, Note_on_c, 0, 50, 77
1, 352920, Note_on_c, 0, 50, 0
1, 352920, Note_on_c, 0, 38, 0
1, 352920, Note_on_c, 0, 79, 0
1, 352920, Note_on_c, 0, 78, 75
1, 353040, Note_on_c, 0, 78, 0
1, 353040, Note_on_c, 0, 74, 73
1, 353040, Note_on_c, 0, 35, 70
1, 353040, Note_on_c, 0, 47, 70
1, 353160, Note_on_c, 0, 74, 0
1, 353160, Note_on_c, 0, 69, 71
1, 353280, Note_on_c, 0, 69, 0
1, 353280, Note_on_c, 0, 47, 0
1, 353280, Note_on_c, 0, 35, 0
1, 353280, Note_on_c, 0, 67, 70
1, 353280, Note_on_c, 0, 36, 71
1, 353280, Note_on_c, 0, 48, 71
1, 353400, Note_on_c, 0, 67, 0
1, 353400, Note_on_c, 0, 66, 68
1, 353520, Tempo, 478088
1, 353520, Marker_t, "agitato"
1, 353520, Note_on_c, 0, 66, 0
1, 353520, Note_on_c, 0, 48, 0
1, 353520, Note_on_c, 0, 36, 0
1, 353520, Control_c, 0, 91, 127
1, 353520, Note_on_c, 0, 62, 66
1, 353520, Note_on_c, 0, 67, 66
1, 353520, Note_on_c, 0, 74, 66
1, 353520, Note_on_c, 0, 34, 84
1, 353520, Note_on_c, 0, 46, 84
1, 353520, Control_c, 0, 91, 127
1, 353640, Control_c, 0, 64, 127
1, 353760, Tempo, 458015
1, 353760, Note_on_c, 0, 46, 0
1, 353760, Note_on_c, 0, 74, 0
1, 353760, Note_on_c, 0, 62, 0
1, 353760, Note_on_c, 0, 67, 0
1, 353760, Note_on_c, 0, 34, 0
1, 353760, Note_on_c, 0, 73, 58
1, 353760, Note_on_c, 0, 62, 56
1, 353880, Note_on_c, 0, 73, 0
1, 353880, Note_on_c, 0, 74, 55
1, 354000, Note_on_c, 0, 74, 0
1, 354000, Note_on_c, 0, 62, 0
1, 354000, Note_on_c, 0, 77, 58
1, 354000, Note_on_c, 0, 50, 56
1, 354000, Note_on_c, 0, 55, 56
1, 354006, Control_c, 0, 64, 0
1, 354080, Note_on_c, 0, 77, 0
1, 354080, Note_on_c, 0, 75, 58
1, 354160, Note_on_c, 0, 75, 0
1, 354160, Note_on_c, 0, 74, 55
1, 354240, Tempo, 480000
1, 354240, Note_on_c, 0, 74, 0
1, 354240, Note_on_c, 0, 55, 0
1, 354240, Note_on_c, 0, 50, 0
1, 354240, Note_on_c, 0, 74, 67
1, 354240, Note_on_c, 0, 45, 68
1, 354355, Control_c, 0, 64, 127
1, 354480, Tempo, 451128
1, 354480, Note_on_c, 0, 45, 0
1, 354480, Note_on_c, 0, 86, 66
1, 354480, Note_on_c, 0, 78, 66
1, 354480, Note_on_c, 0, 62, 56
1, 354720, Note_on_c, 0, 62, 0
1, 354720, Note_on_c, 0, 86, 0
1, 354720, Note_on_c, 0, 84, 64
1, 354720, Note_on_c, 0, 50, 56
1, 354720, Note_on_c, 0, 57, 56
1, 354960, Tempo, 430108
1, 354960, Note_on_c, 0, 57, 0
1, 354960, Note_on_c, 0, 84, 0
1, 354960, Note_on_c, 0, 50, 0
1, 354960, Note_on_c, 0, 78, 0
1, 354960, Note_on_c, 0, 79, 70
1, 354960, Note_on_c, 0, 82, 70
1, 354960, Note_on_c, 0, 43, 66
1, 354969, Control_c, 0, 64, 0
1, 355015, Control_c, 0, 64, 127
1, 355200, Tempo, 413793
1, 355200, Note_on_c, 0, 43, 0
1, 355200, Note_on_c, 0, 74, 0
1, 355200, Note_on_c, 0, 79, 0
1, 355200, Note_on_c, 0, 82, 0
1, 355200, Note_on_c, 0, 73, 59
1, 355200, Note_on_c, 0, 62, 56
1, 355320, Note_on_c, 0, 73, 0
1, 355320, Note_on_c, 0, 74, 55
1, 355440, Note_on_c, 0, 74, 0
1, 355440, Note_on_c, 0, 62, 0
1, 355440, Note_on_c, 0, 77, 59
1, 355440, Note_on_c, 0, 50, 56
1, 355440, Note_on_c, 0, 58, 56
1, 355448, Control_c, 0, 64, 0
1, 355520, Note_on_c, 0, 77, 0
1, 355520, Note_on_c, 0, 75, 59
1, 355600, Note_on_c, 0, 75, 0
1, 355600, Note_on_c, 0, 74, 55
1, 355680, Tempo, 402685
1, 355680, Note_on_c, 0, 74, 0
1, 355680, Note_on_c, 0, 58, 0
1, 355680, Note_on_c, 0, 50, 0
1, 355680, Note_on_c, 0, 74, 69
1, 355680, Note_on_c, 0, 48, 65
1, 355817, Control_c, 0, 64, 127
1, 355920, Tempo, 393443
1, 355920, Note_on_c, 0, 70, 65
1, 355920, Note_on_c, 0, 82, 65
1, 355920, Note_on_c, 0, 62, 56
1, 356160, Note_on_c, 0, 62, 0
1, 356160, Note_on_c, 0, 70, 0
1, 356160, Note_on_c, 0, 82, 0
1, 356160, Note_on_c, 0, 69, 62
1, 356160, Note_on_c, 0, 81, 62
1, 356160, Note_on_c, 0, 54, 56
1, 356160, Note_on_c, 0, 57, 56
1, 356175, Control_c, 0, 64, 0
1, 356400, Tempo, 415225
1, 356400, Note_on_c, 0, 57, 0
1, 356400, Note_on_c, 0, 48, 0
1, 356400, Note_on_c, 0, 69, 0
1, 356400, Note_on_c, 0, 81, 0
1, 356400, Note_on_c, 0, 54, 0
1, 356400, Note_on_c, 0, 67, 69
1, 356400, Note_on_c, 0, 79, 69
1, 356400, Note_on_c, 0, 46, 65
1, 356469, Control_c, 0, 64, 127
1, 356640, Tempo, 384615
1, 356640, Note_on_c, 0, 46, 0
1, 356640, Note_on_c, 0, 74, 0
1, 356640, Note_on_c, 0, 67, 0
1, 356640, Note_on_c, 0, 79, 0
1, 356640, Note_on_c, 0, 73, 59
1, 356640, Note_on_c, 0, 62, 56
1, 356760, Note_on_c, 0, 73, 0
1, 356760, Note_on_c, 0, 74, 55
1, 356880, Note_on_c, 0, 74, 0
1, 356880, Note_on_c, 0, 62, 0
1, 356880, Note_on_c, 0, 77, 59
1, 356880, Note_on_c, 0, 50, 56
1, 356880, Note_on_c, 0, 55, 56
1, 356894, Control_c, 0, 64, 0
1, 356960, Note_on_c, 0, 77, 0
1, 356960, Note_on_c, 0, 75, 59
1, 357040, Note_on_c, 0, 75, 0
1, 357040, Note_on_c, 0, 74, 55
1, 357120, Tempo, 394737
1, 357120, Note_on_c, 0, 74, 0
1, 357120, Note_on_c, 0, 55, 0
1, 357120, Note_on_c, 0, 50, 0
1, 357120, Note_on_c, 0, 74, 70
1, 357120, Note_on_c, 0, 45, 66
1, 357212, Control_c, 0, 64, 127
1, 357360, Tempo, 382166
1, 357360, Note_on_c, 0, 45, 0
1, 357360, Note_on_c, 0, 86, 65
1, 357360, Note_on_c, 0, 78, 65
1, 357360, Note_on_c, 0, 62, 56
1, 357600, Note_on_c, 0, 62, 0
1, 357600, Note_on_c, 0, 86, 0
1, 357600, Note_on_c, 0, 84, 65
1, 357600, Note_on_c, 0, 50, 56
1, 357600, Note_on_c, 0, 57, 56
1, 357840, Tempo, 405405
1, 357840, Note_on_c, 0, 57, 0
1, 357840, Note_on_c, 0, 84, 0
1, 357840, Note_on_c, 0, 50, 0
1, 357840, Note_on_c, 0, 78, 0
1, 357840, Note_on_c, 0, 79, 69
1, 357840, Note_on_c, 0, 82, 69
1, 357840, Note_on_c, 0, 43, 65
1, 357857, Control_c, 0, 64, 0
1, 357895, Control_c, 0, 64, 127
1, 358080, Tempo, 388350
1, 358080, Note_on_c, 0, 43, 0
1, 358080, Note_on_c, 0, 74, 0
1, 358080, Note_on_c, 0, 79, 0
1, 358080, Note_on_c, 0, 82, 0
1, 358080, Note_on_c, 0, 66, 58
1, 358080, Note_on_c, 0, 62, 56
1, 358200, Note_on_c, 0, 66, 0
1, 358200, Note_on_c, 0, 67, 53
1, 358320, Note_on_c, 0, 67, 0
1, 358320, Note_on_c, 0, 62, 0
1, 358320, Note_on_c, 0, 70, 58
1, 358320, Note_on_c, 0, 55, 56
1, 358327, Control_c, 0, 64, 0
1, 358400, Note_on_c, 0, 70, 0
1, 358400, Note_on_c, 0, 68, 58
1, 358480, Note_on_c, 0, 68, 0
1, 358480, Note_on_c, 0, 67, 55
1, 358560, Tempo, 405405
1, 358560, Note_on_c, 0, 67, 0
1, 358560, Note_on_c, 0, 55, 0
1, 358560, Note_on_c, 0, 67, 70
1, 358560, Note_on_c, 0, 47, 64
1, 358629, Control_c, 0, 64, 127
1, 358800, Tempo, 388350
1, 358800, Note_on_c, 0, 47, 0
1, 358800, Note_on_c, 0, 79, 63
1, 358800, Note_on_c, 0, 74, 63
1, 358800, Note_on_c, 0, 62, 56
1, 359040, Note_on_c, 0, 62, 0
1, 359040, Note_on_c, 0, 79, 0
1, 359040, Note_on_c, 0, 77, 63
1, 359040, Note_on_c, 0, 55, 56
1, 359280, Note_on_c, 0, 55, 0
1, 359280, Note_on_c, 0, 77, 0
1, 359280, Note_on_c, 0, 74, 0
1, 359280, Note_on_c, 0, 72, 71
1, 359280, Note_on_c, 0, 75, 71
1, 359280, Note_on_c, 0, 48, 65
1, 359287, Control_c, 0, 64, 0
1, 359372, Control_c, 0, 64, 127
1, 359520, Tempo, 380952
1, 359520, Note_on_c, 0, 48, 0
1, 359520, Note_on_c, 0, 67, 0
1, 359520, Note_on_c, 0, 72, 0
1, 359520, Note_on_c, 0, 75, 0
1, 359520, Note_on_c, 0, 78, 57
1, 359520, Note_on_c, 0, 63, 56
1, 359640, Note_on_c, 0, 78, 0
1, 359640, Note_on_c, 0, 79, 57
1, 359760, Note_on_c, 0, 79, 0
1, 359760, Note_on_c, 0, 63, 0
1, 359760, Note_on_c, 0, 82, 57
1, 359760, Note_on_c, 0, 55, 56
1, 359769, Control_c, 0, 64, 0
1, 359840, Note_on_c, 0, 82, 0
1, 359840, Note_on_c, 0, 80, 57
1, 359920, Note_on_c, 0, 80, 0
1, 359920, Note_on_c, 0, 79, 54
1, 360000, Tempo, 394737
1, 360000, Note_on_c, 0, 79, 0
1, 360000, Note_on_c, 0, 55, 0
1, 360000, Note_on_c, 0, 79, 71
1, 360000, Note_on_c, 0, 50, 65
1, 360069, Control_c, 0, 64, 127
1, 360240, Tempo, 373832
1, 360240, Note_on_c, 0, 50, 0
1, 360240, Note_on_c, 0, 91, 63
1, 360240, Note_on_c, 0, 83, 63
1, 360240, Note_on_c, 0, 65, 54
1, 360480, Note_on_c, 0, 65, 0
1, 360480, Note_on_c, 0, 91, 0
1, 360480, Note_on_c, 0, 89, 63
1, 360480, Note_on_c, 0, 55, 54
1, 360480, Note_on_c, 0, 59, 54
1, 360720, Tempo, 383387
1, 360720, Note_on_c, 0, 59, 0
1, 360720, Note_on_c, 0, 89, 0
1, 360720, Note_on_c, 0, 55, 0
1, 360720, Note_on_c, 0, 83, 0
1, 360720, Note_on_c, 0, 84, 71
1, 360720, Note_on_c, 0, 87, 71
1, 360720, Note_on_c, 0, 51, 66
1, 360728, Control_c, 0, 64, 0
1, 360812, Control_c, 0, 64, 127
1, 360960, Tempo, 370370
1, 360960, Note_on_c, 0, 51, 0
1, 360960, Note_on_c, 0, 79, 0
1, 360960, Note_on_c, 0, 84, 0
1, 360960, Note_on_c, 0, 87, 0
1, 360960, Note_on_c, 0, 78, 59
1, 360960, Note_on_c, 0, 67, 54
1, 361080, Note_on_c, 0, 78, 0
1, 361080, Note_on_c, 0, 79, 56
1, 361200, Note_on_c, 0, 79, 0
1, 361200, Note_on_c, 0, 67, 0
1, 361200, Note_on_c, 0, 82, 59
1, 361200, Note_on_c, 0, 55, 54
1, 361200, Note_on_c, 0, 60, 54
1, 361210, Control_c, 0, 64, 0
1, 361280, Note_on_c, 0, 82, 0
1, 361280, Note_on_c, 0, 80, 59
1, 361360, Note_on_c, 0, 80, 0
1, 361360, Note_on_c, 0, 79, 55
1, 361440, Tempo, 388350
1, 361440, Note_on_c, 0, 79, 0
1, 361440, Note_on_c, 0, 60, 0
1, 361440, Note_on_c, 0, 55, 0
1, 361440, Note_on_c, 0, 79, 70
1, 361440, Note_on_c, 0, 53, 64
1, 361497, Control_c, 0, 64, 127
1, 361680, Tempo, 361446
1, 361680, Note_on_c, 0, 75, 64
1, 361680, Note_on_c, 0, 87, 64
1, 361680, Note_on_c, 0, 67, 54
1, 361920, Note_on_c, 0, 67, 0
1, 361920, Note_on_c, 0, 75, 0
1, 361920, Note_on_c, 0, 87, 0
1, 361920, Note_on_c, 0, 74, 64
1, 361920, Note_on_c, 0, 86, 64
1, 361920, Note_on_c, 0, 55, 54
1, 361920, Note_on_c, 0, 59, 54
1, 361934, Control_c, 0, 64, 0
1, 362160, Tempo, 400000
1, 362160, Note_on_c, 0, 59, 0
1, 362160, Note_on_c, 0, 53, 0
1, 362160, Note_on_c, 0, 74, 0
1, 362160, Note_on_c, 0, 79, 0
1, 362160, Note_on_c, 0, 55, 0
1, 362160, Note_on_c, 0, 86, 0
1, 362160, Note_on_c, 0, 79, 70
1, 362160, Note_on_c, 0, 72, 70
1, 362160, Note_on_c, 0, 84, 70
1, 362160, Note_on_c, 0, 51, 63
1, 362197, Control_c, 0, 64, 127
1, 362400, Tempo, 437956
1, 362400, Note_on_c, 0, 84, 0
1, 362400, Note_on_c, 0, 79, 0
1, 362400, Note_on_c, 0, 72, 0
1, 362400, Note_on_c, 0, 66, 59
1, 362400, Note_on_c, 0, 63, 52
1, 362520, Note_on_c, 0, 66, 0
1, 362520, Note_on_c, 0, 67, 55
1, 362640, Note_on_c, 0, 67, 0
1, 362640, Note_on_c, 0, 63, 0
1, 362640, Note_on_c, 0, 70, 59
1, 362640, Note_on_c, 0, 55, 52
1, 362640, Note_on_c, 0, 60, 52
1, 362651, Control_c, 0, 64, 0
1, 362720, Note_on_c, 0, 70, 0
1, 362720, Note_on_c, 0, 68, 59
1, 362800, Note_on_c, 0, 68, 0
1, 362800, Note_on_c, 0, 67, 56
1, 362880, Tempo, 485830
1, 362880, Note_on_c, 0, 67, 0
1, 362880, Note_on_c, 0, 51, 0
1, 362880, Note_on_c, 0, 55, 0
1, 362880, Note_on_c, 0, 60, 0
1, 362880, Note_on_c, 0, 67, 71
1, 362880, Note_on_c, 0, 50, 58
1, 362972, Control_c, 0, 64, 127
1, 363120, Tempo, 470588
1, 363120, Note_on_c, 0, 79, 56
1, 363120, Note_on_c, 0, 71, 56
1, 363120, Note_on_c, 0, 62, 51
1, 363360, Note_on_c, 0, 62, 0
1, 363360, Note_on_c, 0, 79, 0
1, 363360, Note_on_c, 0, 77, 55
1, 363360, Note_on_c, 0, 55, 51
1, 363600, Tempo, 497925
1, 363600, Note_on_c, 0, 55, 0
1, 363600, Note_on_c, 0, 71, 0
1, 363600, Note_on_c, 0, 77, 0
1, 363600, Note_on_c, 0, 50, 0
1, 363600, Note_on_c, 0, 72, 60
1, 363600, Note_on_c, 0, 75, 60
1, 363600, Note_on_c, 0, 48, 57
1, 363608, Control_c, 0, 64, 0
1, 363697, Control_c, 0, 64, 127
1, 363840, Tempo, 474308
1, 363840, Note_on_c, 0, 75, 0
1, 363840, Note_on_c, 0, 67, 0
1, 363840, Note_on_c, 0, 72, 0
1, 363840, Note_on_c, 0, 62, 53
1, 363840, Note_on_c, 0, 60, 49
1, 363960, Note_on_c, 0, 62, 0
1, 363960, Note_on_c, 0, 63, 53
1, 364080, Note_on_c, 0, 63, 0
1, 364080, Note_on_c, 0, 60, 0
1, 364080, Note_on_c, 0, 67, 53
1, 364080, Note_on_c, 0, 51, 49
1, 364080, Note_on_c, 0, 55, 49
1, 364090, Control_c, 0, 64, 0
1, 364160, Note_on_c, 0, 67, 0
1, 364160, Note_on_c, 0, 65, 53
1, 364240, Note_on_c, 0, 65, 0
1, 364240, Note_on_c, 0, 63, 50
1, 364320, Tempo, 481928
1, 364320, Note_on_c, 0, 63, 0
1, 364320, Note_on_c, 0, 48, 0
1, 364320, Note_on_c, 0, 51, 0
1, 364320, Note_on_c, 0, 55, 0
1, 364320, Note_on_c, 0, 63, 61
1, 364320, Note_on_c, 0, 46, 55
1, 364377, Control_c, 0, 64, 127
1, 364560, Tempo, 442804
1, 364560, Note_on_c, 0, 75, 58
1, 364560, Note_on_c, 0, 67, 58
1, 364560, Note_on_c, 0, 61, 50
1, 364800, Note_on_c, 0, 61, 0
1, 364800, Note_on_c, 0, 75, 0
1, 364800, Note_on_c, 0, 73, 56
1, 364800, Note_on_c, 0, 51, 50
1, 364800, Note_on_c, 0, 55, 50
1, 365040, Tempo, 454545
1, 365040, Note_on_c, 0, 55, 0
1, 365040, Note_on_c, 0, 46, 0
1, 365040, Note_on_c, 0, 67, 0
1, 365040, Note_on_c, 0, 73, 0
1, 365040, Note_on_c, 0, 51, 0
1, 365040, Note_on_c, 0, 68, 63
1, 365040, Note_on_c, 0, 71, 63
1, 365040, Note_on_c, 0, 44, 56
1, 365049, Control_c, 0, 64, 0
1, 365135, Control_c, 0, 64, 127
1, 365280, Tempo, 421053
1, 365280, Note_on_c, 0, 44, 0
1, 365280, Note_on_c, 0, 63, 0
1, 365280, Note_on_c, 0, 68, 0
1, 365280, Note_on_c, 0, 71, 0
1, 365280, Note_on_c, 0, 74, 54
1, 365280, Note_on_c, 0, 59, 50
1, 365400, Note_on_c, 0, 74, 0
1, 365400, Note_on_c, 0, 75, 51
1, 365520, Note_on_c, 0, 75, 0
1, 365520, Note_on_c, 0, 59, 0
1, 365520, Note_on_c, 0, 78, 54
1, 365520, Note_on_c, 0, 51, 50
1, 365520, Note_on_c, 0, 56, 50
1, 365529, Control_c, 0, 64, 0
1, 365600, Note_on_c, 0, 78, 0
1, 365600, Note_on_c, 0, 76, 54
1, 365680, Note_on_c, 0, 76, 0
1, 365680, Note_on_c, 0, 75, 51
1, 365760, Tempo, 400000
1, 365760, Note_on_c, 0, 75, 0
1, 365760, Note_on_c, 0, 56, 0
1, 365760, Note_on_c, 0, 51, 0
1, 365760, Note_on_c, 0, 75, 62
1, 365760, Note_on_c, 0, 43, 57
1, 365875, Control_c, 0, 64, 127
1, 366000, Tempo, 383387
1, 366000, Note_on_c, 0, 43, 0
1, 366000, Note_on_c, 0, 87, 58
1, 366000, Note_on_c, 0, 82, 58
1, 366000, Note_on_c, 0, 63, 52
1, 366240, Note_on_c, 0, 63, 0
1, 366240, Note_on_c, 0, 87, 0
1, 366240, Note_on_c, 0, 85, 59
1, 366240, Note_on_c, 0, 51, 52
1, 366240, Note_on_c, 0, 58, 52
1, 366480, Tempo, 389610
1, 366480, Note_on_c, 0, 58, 0
1, 366480, Note_on_c, 0, 85, 0
1, 366480, Note_on_c, 0, 51, 0
1, 366480, Note_on_c, 0, 82, 0
1, 366480, Note_on_c, 0, 80, 67
1, 366480, Note_on_c, 0, 83, 67
1, 366480, Note_on_c, 0, 44, 59
1, 366490, Control_c, 0, 64, 0
1, 366580, Control_c, 0, 64, 127
1, 366720, Tempo, 378549
1, 366720, Note_on_c, 0, 44, 0
1, 366720, Note_on_c, 0, 75, 0
1, 366720, Note_on_c, 0, 80, 0
1, 366720, Note_on_c, 0, 83, 0
1, 366720, Note_on_c, 0, 74, 59
1, 366720, Note_on_c, 0, 63, 53
1, 366840, Note_on_c, 0, 74, 0
1, 366840, Note_on_c, 0, 75, 56
1, 366960, Note_on_c, 0, 75, 0
1, 366960, Note_on_c, 0, 63, 0
1, 366960, Note_on_c, 0, 78, 59
1, 366960, Note_on_c, 0, 51, 53
1, 366960, Note_on_c, 0, 56, 53
1, 366960, Note_on_c, 0, 59, 53
1, 366969, Control_c, 0, 64, 0
1, 367040, Note_on_c, 0, 78, 0
1, 367040, Note_on_c, 0, 76, 59
1, 367120, Note_on_c, 0, 76, 0
1, 367120, Note_on_c, 0, 75, 55
1, 367193, Note_on_c, 0, 75, 0
1, 367200, Tempo, 392157
1, 367200, Note_on_c, 0, 51, 0
1, 367200, Note_on_c, 0, 56, 0
1, 367200, Note_on_c, 0, 59, 0
1, 367200, Note_on_c, 0, 75, 68
1, 367200, Note_on_c, 0, 46, 64
1, 367292, Control_c, 0, 64, 127
1, 367440, Tempo, 377358
1, 367440, Note_on_c, 0, 46, 0
1, 367440, Note_on_c, 0, 71, 63
1, 367440, Note_on_c, 0, 83, 63
1, 367440, Note_on_c, 0, 63, 54
1, 367680, Note_on_c, 0, 63, 0
1, 367680, Note_on_c, 0, 83, 0
1, 367680, Note_on_c, 0, 71, 0
1, 367680, Note_on_c, 0, 70, 63
1, 367680, Note_on_c, 0, 82, 63
1, 367680, Note_on_c, 0, 51, 54
1, 367680, Note_on_c, 0, 55, 54
1, 367680, Note_on_c, 0, 61, 54
1, 367920, Tempo, 405405
1, 367920, Note_on_c, 0, 61, 0
1, 367920, Note_on_c, 0, 70, 0
1, 367920, Note_on_c, 0, 82, 0
1, 367920, Note_on_c, 0, 75, 0
1, 367920, Note_on_c, 0, 55, 0
1, 367920, Note_on_c, 0, 51, 0
1, 367920, Note_on_c, 0, 75, 69
1, 367920, Note_on_c, 0, 68, 69
1, 367920, Note_on_c, 0, 80, 69
1, 367920, Note_on_c, 0, 47, 66
1, 367929, Control_c, 0, 64, 0
1, 368015, Control_c, 0, 64, 127
1, 368160, Tempo, 394737
1, 368160, Note_on_c, 0, 47, 0
1, 368160, Note_on_c, 0, 75, 0
1, 368160, Note_on_c, 0, 68, 0
1, 368160, Note_on_c, 0, 80, 0
1, 368160, Note_on_c, 0, 74, 60
1, 368160, Note_on_c, 0, 63, 57
1, 368280, Note_on_c, 0, 74, 0
1, 368280, Note_on_c, 0, 75, 56
1, 368400, Note_on_c, 0, 75, 0
1, 368400, Note_on_c, 0, 63, 0
1, 368400, Note_on_c, 0, 78, 60
1, 368400, Note_on_c, 0, 51, 57
1, 368400, Note_on_c, 0, 56, 57
1, 368400, Note_on_c, 0, 59, 57
1, 368410, Control_c, 0, 64, 0
1, 368480, Note_on_c, 0, 78, 0
1, 368480, Note_on_c, 0, 76, 60
1, 368560, Note_on_c, 0, 76, 0
1, 368560, Note_on_c, 0, 75, 56
1, 368631, Note_on_c, 0, 75, 0
1, 368640, Tempo, 383387
1, 368640, Note_on_c, 0, 51, 0
1, 368640, Note_on_c, 0, 56, 0
1, 368640, Note_on_c, 0, 59, 0
1, 368640, Note_on_c, 0, 75, 74
1, 368640, Note_on_c, 0, 43, 68
1, 368812, Control_c, 0, 64, 127
1, 368880, Tempo, 366972
1, 368880, Note_on_c, 0, 43, 0
1, 368880, Note_on_c, 0, 87, 65
1, 368880, Note_on_c, 0, 82, 65
1, 368880, Note_on_c, 0, 63, 60
1, 369120, Note_on_c, 0, 63, 0
1, 369120, Note_on_c, 0, 87, 0
1, 369120, Note_on_c, 0, 85, 65
1, 369120, Note_on_c, 0, 51, 60
1, 369120, Note_on_c, 0, 58, 60
1, 369360, Tempo, 404040
1, 369360, Note_on_c, 0, 58, 0
1, 369360, Note_on_c, 0, 85, 0
1, 369360, Note_on_c, 0, 51, 0
1, 369360, Note_on_c, 0, 82, 0
1, 369360, Note_on_c, 0, 80, 76
1, 369360, Note_on_c, 0, 83, 76
1, 369360, Note_on_c, 0, 44, 70
1, 369366, Control_c, 0, 64, 0
1, 369443, Control_c, 0, 64, 127
1, 369600, Tempo, 421053
1, 369600, Note_on_c, 0, 44, 0
1, 369600, Note_on_c, 0, 75, 0
1, 369600, Note_on_c, 0, 80, 0
1, 369600, Note_on_c, 0, 83, 0
1, 369600, Note_on_c, 0, 74, 66
1, 369600, Note_on_c, 0, 63, 60
1, 369720, Note_on_c, 0, 74, 0
1, 369720, Note_on_c, 0, 75, 61
1, 369840, Note_on_c, 0, 75, 0
1, 369840, Note_on_c, 0, 63, 0
1, 369840, Note_on_c, 0, 78, 66
1, 369840, Note_on_c, 0, 51, 60
1, 369840, Note_on_c, 0, 56, 60
1, 369840, Note_on_c, 0, 59, 60
1, 369848, Control_c, 0, 64, 0
1, 369920, Note_on_c, 0, 78, 0
1, 369920, Note_on_c, 0, 76, 66
1, 370000, Note_on_c, 0, 76, 0
1, 370000, Note_on_c, 0, 75, 61
1, 370074, Note_on_c, 0, 75, 0
1, 370080, Tempo, 468750
1, 370080, Note_on_c, 0, 51, 0
1, 370080, Note_on_c, 0, 56, 0
1, 370080, Note_on_c, 0, 59, 0
1, 370080, Note_on_c, 0, 75, 82
1, 370080, Note_on_c, 0, 46, 72
1, 370115, Control_c, 0, 64, 127
1, 370320, Tempo, 485830
1, 370320, Note_on_c, 0, 46, 0
1, 370320, Note_on_c, 0, 71, 73
1, 370320, Note_on_c, 0, 83, 73
1, 370320, Note_on_c, 0, 63, 67
1, 370560, Note_on_c, 0, 63, 0
1, 370560, Note_on_c, 0, 83, 0
1, 370560, Note_on_c, 0, 71, 0
1, 370560, Note_on_c, 0, 70, 73
1, 370560, Note_on_c, 0, 82, 73
1, 370560, Note_on_c, 0, 51, 72
1, 370560, Note_on_c, 0, 55, 72
1, 370560, Note_on_c, 0, 61, 72
1, 370569, Control_c, 0, 64, 0
1, 370800, Note_on_c, 0, 61, 0
1, 370800, Note_on_c, 0, 70, 0
1, 370800, Note_on_c, 0, 82, 0
1, 370800, Note_on_c, 0, 75, 0
1, 370800, Note_on_c, 0, 55, 0
1, 370800, Note_on_c, 0, 51, 0
1, 370800, Note_on_c, 0, 76, 87
1, 370800, Note_on_c, 0, 68, 73
1, 370800, Note_on_c, 0, 80, 87
1, 370800, Note_on_c, 0, 35, 86
1, 370800, Note_on_c, 0, 47, 86
1, 370920, Note_on_c, 0, 47, 0
1, 370920, Note_on_c, 0, 35, 0
1, 371040, Note_on_c, 0, 76, 0
1, 371040, Note_on_c, 0, 68, 0
1, 371040, Note_on_c, 0, 80, 0
1, 371280, Note_on_c, 0, 64, 50
1, 371280, Note_on_c, 0, 56, 50
1, 371460, Note_on_c, 0, 80, 70
1, 371520, Tempo, 600000
1, 371520, Note_on_c, 0, 80, 0
1, 371520, Note_on_c, 0, 56, 0
1, 371520, Note_on_c, 0, 64, 0
1, 371520, Note_on_c, 0, 92, 95
1, 371520, Note_on_c, 0, 71, 62
1, 371520, Note_on_c, 0, 59, 62
1, 371626, Control_c, 0, 64, 127
1, 371760, Tempo, 353982
1, 371760, Note_on_c, 0, 59, 0
1, 371760, Note_on_c, 0, 71, 0
1, 371760, Note_on_c, 0, 92, 0
1, 371760, Note_on_c, 0, 90, 81
1, 371880, Note_on_c, 0, 90, 0
1, 371880, Note_on_c, 0, 88, 76
1, 372000, Note_on_c, 0, 88, 0
1, 372000, Note_on_c, 0, 83, 79
1, 372000, Note_on_c, 0, 56, 51
1, 372000, Note_on_c, 0, 64, 51
1, 372120, Note_on_c, 0, 83, 0
1, 372120, Note_on_c, 0, 80, 72
1, 372240, Note_on_c, 0, 80, 0
1, 372240, Note_on_c, 0, 64, 0
1, 372240, Note_on_c, 0, 56, 0
1, 372240, Note_on_c, 0, 78, 76
1, 372240, Note_on_c, 0, 59, 61
1, 372240, Note_on_c, 0, 71, 61
1, 372360, Note_on_c, 0, 78, 0
1, 372360, Note_on_c, 0, 76, 71
1, 372480, Note_on_c, 0, 76, 0
1, 372480, Note_on_c, 0, 71, 0
1, 372480, Note_on_c, 0, 59, 0
1, 372480, Note_on_c, 0, 71, 74
1, 372600, Note_on_c, 0, 71, 0
1, 372600, Note_on_c, 0, 68, 68
1, 372720, Note_on_c, 0, 68, 0
1, 372720, Note_on_c, 0, 66, 71
1, 372840, Note_on_c, 0, 66, 0
1, 372840, Note_on_c, 0, 64, 66
1, 372960, Note_on_c, 0, 64, 0
1, 372960, Note_on_c, 0, 59, 69
1, 372964, Control_c, 0, 64, 0
1, 373200, Note_on_c, 0, 59, 0
1, 373680, Tempo, 355030
1, 373680, Note_on_c, 0, 75, 55
1, 373680, Control_c, 0, 64, 127
1, 373680, Note_on_c, 0, 35, 40
1, 373680, Note_on_c, 0, 47, 40
1, 373760, Tempo, 356083
1, 373800, Note_on_c, 0, 47, 0
1, 373800, Note_on_c, 0, 35, 0
1, 373800, Note_on_c, 0, 75, 0
1, 373800, Note_on_c, 0, 76, 52
1, 373840, Tempo, 357143
1, 373920, Tempo, 358209
1, 373920, Note_on_c, 0, 76, 0
1, 373920, Note_on_c, 0, 78, 50
1, 374000, Tempo, 359281
1, 374040, Note_on_c, 0, 78, 0
1, 374040, Note_on_c, 0, 80, 44
1, 374080, Tempo, 360360
1, 374160, Tempo, 361446
1, 374160, Note_on_c, 0, 80, 0
1, 374160, Note_on_c, 0, 81, 45
1, 374240, Tempo, 362538
1, 374280, Note_on_c, 0, 81, 0
1, 374280, Note_on_c, 0, 83, 42
1, 374320, Tempo, 363636
1, 374388, Tempo, 364742
1, 374400, Tempo, 436364
1, 374400, Note_on_c, 0, 83, 0
1, 374400, Note_on_c, 0, 84, 40
1, 374400, Note_on_c, 0, 63, 38
1, 374400, Note_on_c, 0, 66, 38
1, 374400, Note_on_c, 0, 57, 38
1, 374400, Note_on_c, 0, 60, 38
1, 374412, Control_c, 0, 64, 0
1, 374640, Tempo, 394737
1, 374640, Note_on_c, 0, 60, 0
1, 374640, Note_on_c, 0, 66, 0
1, 374640, Note_on_c, 0, 84, 0
1, 374640, Note_on_c, 0, 63, 0
1, 374640, Note_on_c, 0, 57, 0
1, 374640, Note_on_c, 0, 60, 44
1, 374640, Note_on_c, 0, 57, 44
1, 374640, Note_on_c, 0, 63, 44
1, 374640, Note_on_c, 0, 68, 44
1, 374880, Note_on_c, 0, 68, 0
1, 374880, Note_on_c, 0, 60, 0
1, 374880, Note_on_c, 0, 57, 0
1, 374880, Note_on_c, 0, 63, 0
1, 374880, Note_on_c, 0, 63, 42
1, 374880, Note_on_c, 0, 66, 42
1, 374880, Note_on_c, 0, 57, 42
1, 374880, Note_on_c, 0, 60, 42
1, 375120, Tempo, 351906
1, 375120, Note_on_c, 0, 60, 0
1, 375120, Note_on_c, 0, 63, 0
1, 375120, Note_on_c, 0, 66, 0
1, 375120, Note_on_c, 0, 57, 0
1, 375120, Note_on_c, 0, 84, 50
1, 375120, Note_on_c, 0, 66, 39
1, 375120, Note_on_c, 0, 63, 39
1, 375120, Note_on_c, 0, 60, 39
1, 375120, Note_on_c, 0, 57, 39
1, 375169, Control_c, 0, 64, 127
1, 375240, Note_on_c, 0, 57, 0
1, 375240, Note_on_c, 0, 63, 0
1, 375240, Note_on_c, 0, 84, 0
1, 375240, Note_on_c, 0, 66, 0
1, 375240, Note_on_c, 0, 60, 0
1, 375240, Note_on_c, 0, 83, 46
1, 375360, Note_on_c, 0, 83, 0
1, 375360, Note_on_c, 0, 81, 47
1, 375480, Note_on_c, 0, 81, 0
1, 375480, Note_on_c, 0, 80, 43
1, 375600, Note_on_c, 0, 80, 0
1, 375600, Note_on_c, 0, 78, 44
1, 375720, Note_on_c, 0, 78, 0
1, 375720, Note_on_c, 0, 76, 42
1, 375760, Tempo, 352941
1, 375828, Tempo, 351906
1, 375840, Tempo, 416667
1, 375840, Note_on_c, 0, 76, 0
1, 375840, Note_on_c, 0, 75, 41
1, 375840, Note_on_c, 0, 35, 53
1, 375840, Note_on_c, 0, 47, 53
1, 375849, Control_c, 0, 64, 0
1, 376080, Tempo, 390879
1, 376080, Note_on_c, 0, 47, 0
1, 376080, Note_on_c, 0, 35, 0
1, 376080, Note_on_c, 0, 75, 0
1, 376080, Note_on_c, 0, 45, 49
1, 376080, Note_on_c, 0, 33, 49
1, 376320, Note_on_c, 0, 33, 0
1, 376320, Note_on_c, 0, 45, 0
1, 376320, Note_on_c, 0, 36, 53
1, 376320, Note_on_c, 0, 48, 53
1, 376500, Note_on_c, 0, 80, 81
1, 376560, Tempo, 373832
1, 376560, Note_on_c, 0, 80, 0
1, 376560, Note_on_c, 0, 48, 0
1, 376560, Note_on_c, 0, 36, 0
1, 376560, Note_on_c, 0, 92, 115
1, 376560, Note_on_c, 0, 35, 52
1, 376560, Note_on_c, 0, 47, 52
1, 376652, Control_c, 0, 64, 127
1, 376680, Note_on_c, 0, 47, 0
1, 376680, Note_on_c, 0, 35, 0
1, 376800, Note_on_c, 0, 64, 45
1, 376800, Note_on_c, 0, 56, 45
1, 377040, Note_on_c, 0, 56, 0
1, 377040, Note_on_c, 0, 64, 0
1, 377040, Note_on_c, 0, 64, 45
1, 377040, Note_on_c, 0, 56, 45
1, 377280, Tempo, 376176
1, 377280, Note_on_c, 0, 56, 0
1, 377280, Note_on_c, 0, 64, 0
1, 377280, Note_on_c, 0, 71, 51
1, 377280, Note_on_c, 0, 59, 51
1, 377520, Tempo, 344828
1, 377520, Note_on_c, 0, 92, 0
1, 377520, Note_on_c, 0, 90, 81
1, 377640, Note_on_c, 0, 90, 0
1, 377640, Note_on_c, 0, 59, 0
1, 377640, Note_on_c, 0, 71, 0
1, 377640, Note_on_c, 0, 88, 73
1, 377640, Note_on_c, 0, 64, 45
1, 377640, Note_on_c, 0, 56, 45
1, 377760, Note_on_c, 0, 56, 0
1, 377760, Note_on_c, 0, 64, 0
1, 377760, Note_on_c, 0, 88, 0
1, 377760, Note_on_c, 0, 83, 79
1, 377760, Note_on_c, 0, 56, 45
1, 377760, Note_on_c, 0, 64, 45
1, 377880, Note_on_c, 0, 83, 0
1, 377880, Note_on_c, 0, 80, 73
1, 378000, Note_on_c, 0, 80, 0
1, 378000, Note_on_c, 0, 64, 0
1, 378000, Note_on_c, 0, 56, 0
1, 378000, Note_on_c, 0, 78, 76
1, 378000, Note_on_c, 0, 59, 52
1, 378000, Note_on_c, 0, 71, 52
1, 378120, Note_on_c, 0, 78, 0
1, 378120, Note_on_c, 0, 76, 70
1, 378240, Note_on_c, 0, 76, 0
1, 378240, Note_on_c, 0, 71, 0
1, 378240, Note_on_c, 0, 59, 0
1, 378240, Note_on_c, 0, 71, 74
1, 378360, Note_on_c, 0, 71, 0
1, 378360, Note_on_c, 0, 68, 69
1, 378480, Note_on_c, 0, 68, 0
1, 378480, Note_on_c, 0, 66, 71
1, 378600, Note_on_c, 0, 66, 0
1, 378600, Note_on_c, 0, 64, 70
1, 378720, Tempo, 338028
1, 378720, Note_on_c, 0, 64, 0
1, 378720, Note_on_c, 0, 59, 69
1, 378728, Control_c, 0, 64, 0
1, 378960, Note_on_c, 0, 59, 0
1, 379440, Tempo, 335196
1, 379440, Note_on_c, 0, 77, 57
1, 379440, Note_on_c, 0, 38, 40
1, 379440, Note_on_c, 0, 50, 40
1, 379475, Control_c, 0, 64, 127
1, 379560, Note_on_c, 0, 50, 0
1, 379560, Note_on_c, 0, 38, 0
1, 379560, Note_on_c, 0, 77, 0
1, 379560, Note_on_c, 0, 78, 55
1, 379680, Note_on_c, 0, 78, 0
1, 379680, Note_on_c, 0, 80, 53
1, 379800, Note_on_c, 0, 80, 0
1, 379800, Note_on_c, 0, 81, 52
1, 379920, Note_on_c, 0, 81, 0
1, 379920, Note_on_c, 0, 83, 50
1, 380040, Note_on_c, 0, 83, 0
1, 380040, Note_on_c, 0, 85, 48
1, 380148, Tempo, 364742
1, 380160, Tempo, 358209
1, 380160, Note_on_c, 0, 85, 0
1, 380160, Note_on_c, 0, 86, 46
1, 380160, Note_on_c, 0, 66, 38
1, 380160, Note_on_c, 0, 68, 38
1, 380160, Note_on_c, 0, 59, 38
1, 380166, Control_c, 0, 64, 0
1, 380350, Control_c, 0, 64, 127
1, 380400, Tempo, 349854
1, 380400, Note_on_c, 0, 59, 0
1, 380400, Note_on_c, 0, 86, 0
1, 380400, Note_on_c, 0, 66, 0
1, 380400, Note_on_c, 0, 68, 0
1, 380400, Note_on_c, 0, 59, 44
1, 380400, Note_on_c, 0, 66, 44
1, 380400, Note_on_c, 0, 69, 44
1, 380640, Note_on_c, 0, 69, 0
1, 380640, Note_on_c, 0, 66, 0
1, 380640, Note_on_c, 0, 59, 0
1, 380640, Note_on_c, 0, 66, 42
1, 380640, Note_on_c, 0, 68, 42
1, 380640, Note_on_c, 0, 59, 42
1, 380880, Tempo, 335196
1, 380880, Note_on_c, 0, 59, 0
1, 380880, Note_on_c, 0, 68, 0
1, 380880, Note_on_c, 0, 66, 0
1, 380880, Note_on_c, 0, 86, 56
1, 380880, Control_c, 0, 64, 0
1, 380880, Note_on_c, 0, 68, 39
1, 380880, Note_on_c, 0, 65, 39
1, 380880, Note_on_c, 0, 59, 39
1, 380955, Control_c, 0, 64, 127
1, 381000, Note_on_c, 0, 59, 0
1, 381000, Note_on_c, 0, 86, 0
1, 381000, Note_on_c, 0, 68, 0
1, 381000, Note_on_c, 0, 65, 0
1, 381000, Note_on_c, 0, 85, 54
1, 381120, Note_on_c, 0, 85, 0
1, 381120, Note_on_c, 0, 83, 53
1, 381240, Note_on_c, 0, 83, 0
1, 381240, Note_on_c, 0, 81, 52
1, 381360, Note_on_c, 0, 81, 0
1, 381360, Note_on_c, 0, 80, 51
1, 381480, Note_on_c, 0, 80, 0
1, 381480, Note_on_c, 0, 78, 50
1, 381588, Tempo, 351906
1, 381600, Tempo, 358209
1, 381600, Note_on_c, 0, 78, 0
1, 381600, Note_on_c, 0, 77, 48
1, 381600, Note_on_c, 0, 38, 53
1, 381600, Note_on_c, 0, 50, 53
1, 381607, Control_c, 0, 64, 0
1, 381737, Control_c, 0, 64, 127
1, 381840, Tempo, 346821
1, 381840, Note_on_c, 0, 50, 0
1, 381840, Note_on_c, 0, 38, 0
1, 381840, Note_on_c, 0, 77, 0
1, 381840, Note_on_c, 0, 48, 53
1, 381840, Note_on_c, 0, 36, 53
1, 382080, Note_on_c, 0, 36, 0
1, 382080, Note_on_c, 0, 48, 0
1, 382080, Note_on_c, 0, 37, 53
1, 382080, Note_on_c, 0, 49, 53
1, 382095, Control_c, 0, 64, 0
1, 382195, Control_c, 0, 64, 127
1, 382320, Tempo, 335196
1, 382320, Note_on_c, 0, 49, 0
1, 382320, Note_on_c, 0, 37, 0
1, 382320, Note_on_c, 0, 79, 66
1, 382320, Control_c, 0, 64, 0
1, 382320, Note_on_c, 0, 40, 47
1, 382320, Note_on_c, 0, 52, 47
1, 382372, Control_c, 0, 64, 127
1, 382440, Note_on_c, 0, 52, 0
1, 382440, Note_on_c, 0, 40, 0
1, 382440, Note_on_c, 0, 79, 0
1, 382440, Note_on_c, 0, 80, 65
1, 382560, Note_on_c, 0, 80, 0
1, 382560, Note_on_c, 0, 82, 64
1, 382680, Note_on_c, 0, 82, 0
1, 382680, Note_on_c, 0, 83, 63
1, 382800, Note_on_c, 0, 83, 0
1, 382800, Note_on_c, 0, 85, 62
1, 382920, Note_on_c, 0, 85, 0
1, 382920, Note_on_c, 0, 87, 61
1, 383028, Tempo, 364742
1, 383040, Tempo, 353982
1, 383040, Note_on_c, 0, 87, 0
1, 383040, Note_on_c, 0, 88, 60
1, 383040, Note_on_c, 0, 68, 48
1, 383040, Note_on_c, 0, 70, 48
1, 383040, Note_on_c, 0, 61, 48
1, 383048, Control_c, 0, 64, 0
1, 383164, Control_c, 0, 64, 127
1, 383280, Tempo, 345821
1, 383280, Note_on_c, 0, 61, 0
1, 383280, Note_on_c, 0, 88, 0
1, 383280, Note_on_c, 0, 68, 0
1, 383280, Note_on_c, 0, 70, 0
1, 383280, Note_on_c, 0, 61, 53
1, 383280, Note_on_c, 0, 68, 53
1, 383280, Note_on_c, 0, 71, 53
1, 383520, Note_on_c, 0, 71, 0
1, 383520, Note_on_c, 0, 68, 0
1, 383520, Note_on_c, 0, 61, 0
1, 383520, Note_on_c, 0, 68, 51
1, 383520, Note_on_c, 0, 70, 51
1, 383520, Note_on_c, 0, 61, 51
1, 383760, Tempo, 334262
1, 383760, Note_on_c, 0, 61, 0
1, 383760, Note_on_c, 0, 70, 0
1, 383760, Note_on_c, 0, 68, 0
1, 383760, Note_on_c, 0, 88, 65
1, 383760, Control_c, 0, 64, 0
1, 383760, Note_on_c, 0, 70, 49
1, 383760, Note_on_c, 0, 67, 49
1, 383760, Note_on_c, 0, 61, 49
1, 383835, Control_c, 0, 64, 127
1, 383880, Note_on_c, 0, 61, 0
1, 383880, Note_on_c, 0, 88, 0
1, 383880, Note_on_c, 0, 70, 0
1, 383880, Note_on_c, 0, 67, 0
1, 383880, Note_on_c, 0, 87, 64
1, 384000, Note_on_c, 0, 87, 0
1, 384000, Note_on_c, 0, 85, 62
1, 384120, Note_on_c, 0, 85, 0
1, 384120, Note_on_c, 0, 83, 61
1, 384240, Note_on_c, 0, 83, 0
1, 384240, Note_on_c, 0, 82, 59
1, 384360, Note_on_c, 0, 82, 0
1, 384360, Note_on_c, 0, 80, 58
1, 384468, Tempo, 351906
1, 384480, Key_signature, -5, "major"
1, 384480, Tempo, 358209
1, 384480, Note_on_c, 0, 80, 0
1, 384480, Note_on_c, 0, 79, 56
1, 384480, Note_on_c, 0, 40, 58
1, 384480, Note_on_c, 0, 52, 58
1, 384486, Control_c, 0, 64, 0
1, 384606, Control_c, 0, 64, 127
1, 384720, Tempo, 346821
1, 384720, Note_on_c, 0, 52, 0
1, 384720, Note_on_c, 0, 40, 0
1, 384720, Note_on_c, 0, 79, 0
1, 384720, Note_on_c, 0, 50, 58
1, 384720, Note_on_c, 0, 38, 58
1, 384960, Note_on_c, 0, 38, 0
1, 384960, Note_on_c, 0, 50, 0
1, 384960, Note_on_c, 0, 39, 58
1, 384960, Note_on_c, 0, 51, 58
1, 384966, Control_c, 0, 64, 0
1, 385063, Control_c, 0, 64, 127
1, 385200, Tempo, 338028
1, 385200, Note_on_c, 0, 51, 0
1, 385200, Note_on_c, 0, 39, 0
1, 385200, Note_on_c, 0, 81, 71
1, 385200, Note_on_c, 0, 42, 55
1, 385200, Note_on_c, 0, 54, 55
1, 385210, Control_c, 0, 64, 0
1, 385269, Control_c, 0, 64, 127
1, 385320, Note_on_c, 0, 54, 0
1, 385320, Note_on_c, 0, 42, 0
1, 385320, Note_on_c, 0, 81, 0
1, 385320, Note_on_c, 0, 82, 72
1, 385440, Note_on_c, 0, 82, 0
1, 385440, Note_on_c, 0, 84, 73
1, 385560, Note_on_c, 0, 84, 0
1, 385560, Note_on_c, 0, 85, 75
1, 385680, Note_on_c, 0, 85, 0
1, 385680, Note_on_c, 0, 87, 76
1, 385680, Note_on_c, 0, 60, 49
1, 385680, Note_on_c, 0, 63, 49
1, 385680, Note_on_c, 0, 69, 49
1, 385800, Note_on_c, 0, 87, 0
1, 385800, Note_on_c, 0, 89, 77
1, 385920, Note_on_c, 0, 89, 0
1, 385920, Note_on_c, 0, 69, 0
1, 385920, Note_on_c, 0, 63, 0
1, 385920, Note_on_c, 0, 60, 0
1, 385920, Note_on_c, 0, 90, 78
1, 385920, Note_on_c, 0, 63, 54
1, 385920, Note_on_c, 0, 69, 54
1, 385920, Note_on_c, 0, 75, 54
1, 386040, Note_on_c, 0, 90, 0
1, 386040, Note_on_c, 0, 99, 78
1, 386160, Note_on_c, 0, 99, 0
1, 386160, Note_on_c, 0, 75, 0
1, 386160, Note_on_c, 0, 69, 0
1, 386160, Note_on_c, 0, 63, 0
1, 386160, Note_on_c, 0, 90, 77
1, 386280, Note_on_c, 0, 90, 0
1, 386280, Note_on_c, 0, 89, 76
1, 386400, Note_on_c, 0, 89, 0
1, 386400, Note_on_c, 0, 87, 75
1, 386400, Note_on_c, 0, 60, 52
1, 386400, Note_on_c, 0, 63, 52
1, 386400, Note_on_c, 0, 69, 52
1, 386520, Note_on_c, 0, 87, 0
1, 386520, Note_on_c, 0, 85, 75
1, 386640, Note_on_c, 0, 85, 0
1, 386640, Note_on_c, 0, 69, 0
1, 386640, Note_on_c, 0, 63, 0
1, 386640, Note_on_c, 0, 60, 0
1, 386640, Note_on_c, 0, 84, 71
1, 386640, Note_on_c, 0, 63, 56
1, 386640, Note_on_c, 0, 69, 56
1, 386640, Note_on_c, 0, 75, 56
1, 386760, Note_on_c, 0, 84, 0
1, 386760, Note_on_c, 0, 85, 72
1, 386880, Note_on_c, 0, 85, 0
1, 386880, Note_on_c, 0, 75, 0
1, 386880, Note_on_c, 0, 69, 0
1, 386880, Note_on_c, 0, 63, 0
1, 386880, Note_on_c, 0, 86, 73
1, 387000, Note_on_c, 0, 86, 0
1, 387000, Note_on_c, 0, 87, 74
1, 387120, Note_on_c, 0, 87, 0
1, 387120, Note_on_c, 0, 88, 76
1, 387120, Note_on_c, 0, 54, 70
1, 387120, Note_on_c, 0, 66, 70
1, 387240, Note_on_c, 0, 88, 0
1, 387240, Note_on_c, 0, 89, 77
1, 387348, Note_on_c, 0, 66, 0
1, 387348, Note_on_c, 0, 54, 0
1, 387360, Note_on_c, 0, 89, 0
1, 387360, Note_on_c, 0, 90, 78
1, 387360, Note_on_c, 0, 54, 70
1, 387360, Note_on_c, 0, 66, 70
1, 387480, Note_on_c, 0, 90, 0
1, 387480, Note_on_c, 0, 99, 79
1, 387588, Note_on_c, 0, 66, 0
1, 387588, Note_on_c, 0, 54, 0
1, 387600, Note_on_c, 0, 99, 0
1, 387600, Note_on_c, 0, 90, 80
1, 387600, Note_on_c, 0, 54, 70
1, 387600, Note_on_c, 0, 66, 70
1, 387720, Note_on_c, 0, 90, 0
1, 387720, Note_on_c, 0, 89, 82
1, 387828, Note_on_c, 0, 66, 0
1, 387828, Note_on_c, 0, 54, 0
1, 387840, Note_on_c, 0, 89, 0
1, 387840, Note_on_c, 0, 87, 83
1, 387840, Note_on_c, 0, 54, 70
1, 387840, Note_on_c, 0, 66, 70
1, 387960, Note_on_c, 0, 87, 0
1, 387960, Note_on_c, 0, 85, 84
1, 388068, Note_on_c, 0, 66, 0
1, 388068, Note_on_c, 0, 54, 0
1, 388080, Note_on_c, 0, 85, 0
1, 388080, Note_on_c, 0, 84, 85
1, 388080, Note_on_c, 0, 53, 73
1, 388080, Note_on_c, 0, 60, 73
1, 388080, Note_on_c, 0, 63, 73
1, 388080, Note_on_c, 0, 69, 73
1, 388200, Note_on_c, 0, 84, 0
1, 388320, Tempo, 323450
1, 388320, Note_on_c, 0, 63, 0
1, 388320, Note_on_c, 0, 53, 0
1, 388320, Note_on_c, 0, 60, 0
1, 388320, Note_on_c, 0, 69, 0
1, 388320, Note_on_c, 0, 101, 93
1, 388440, Note_on_c, 0, 101, 0
1, 388440, Note_on_c, 0, 100, 83
1, 388560, Note_on_c, 0, 100, 0
1, 388560, Note_on_c, 0, 99, 81
1, 388680, Note_on_c, 0, 99, 0
1, 388680, Note_on_c, 0, 96, 78
1, 388800, Note_on_c, 0, 96, 0
1, 388800, Note_on_c, 0, 93, 76
1, 388800, Control_c, 0, 64, 0
1, 388800, Note_on_c, 0, 89, 89
1, 388920, Note_on_c, 0, 89, 0
1, 388920, Note_on_c, 0, 88, 81
1, 389040, Note_on_c, 0, 88, 0
1, 389040, Note_on_c, 0, 93, 0
1, 389040, Note_on_c, 0, 87, 79
1, 389160, Note_on_c, 0, 87, 0
1, 389160, Note_on_c, 0, 84, 78
1, 389280, Note_on_c, 0, 84, 0
1, 389280, Note_on_c, 0, 77, 90
1, 389280, Note_on_c, 0, 81, 76
1, 389400, Note_on_c, 0, 77, 0
1, 389400, Note_on_c, 0, 76, 82
1, 389520, Note_on_c, 0, 76, 0
1, 389520, Note_on_c, 0, 81, 0
1, 389520, Note_on_c, 0, 75, 80
1, 389640, Note_on_c, 0, 75, 0
1, 389640, Note_on_c, 0, 72, 78
1, 389760, Note_on_c, 0, 72, 0
1, 389760, Note_on_c, 0, 69, 76
1, 389760, Note_on_c, 0, 65, 88
1, 389880, Note_on_c, 0, 65, 0
1, 389880, Note_on_c, 0, 64, 81
1, 390000, Note_on_c, 0, 64, 0
1, 390000, Note_on_c, 0, 69, 0
1, 390000, Note_on_c, 0, 63, 79
1, 390120, Note_on_c, 0, 63, 0
1, 390120, Note_on_c, 0, 60, 77
1, 390240, Note_on_c, 0, 60, 0
1, 390240, Note_on_c, 0, 53, 90
1, 390240, Note_on_c, 0, 57, 75
1, 390360, Note_on_c, 0, 53, 0
1, 390360, Note_on_c, 0, 52, 84
1, 390480, Note_on_c, 0, 52, 0
1, 390480, Note_on_c, 0, 57, 0
1, 390480, Note_on_c, 0, 51, 82
1, 390600, Note_on_c, 0, 51, 0
1, 390600, Note_on_c, 0, 48, 80
1, 390720, Tempo, 365854
1, 390720, Note_on_c, 0, 48, 0
1, 390720, Note_on_c, 0, 41, 117
1, 390960, Tempo, 416667
1, 390960, Note_on_c, 0, 41, 0
1, 390960, Note_on_c, 0, 85, 89
1, 390960, Note_on_c, 0, 73, 89
1, 390960, Note_on_c, 0, 34, 100
1, 390960, Note_on_c, 0, 46, 100
1, 391006, Control_c, 0, 64, 127
1, 391200, Tempo, 382166
1, 391200, Note_on_c, 0, 46, 0
1, 391200, Note_on_c, 0, 85, 0
1, 391200, Note_on_c, 0, 73, 0
1, 391200, Note_on_c, 0, 34, 0
1, 391200, Note_on_c, 0, 76, 74
1, 391200, Note_on_c, 0, 70, 58
1, 391200, Note_on_c, 0, 58, 58
1, 391320, Note_on_c, 0, 76, 0
1, 391320, Note_on_c, 0, 77, 71
1, 391440, Note_on_c, 0, 77, 0
1, 391440, Note_on_c, 0, 58, 0
1, 391440, Note_on_c, 0, 70, 0
1, 391440, Note_on_c, 0, 80, 74
1, 391440, Note_on_c, 0, 65, 58
1, 391440, Note_on_c, 0, 61, 58
1, 391520, Note_on_c, 0, 80, 0
1, 391520, Note_on_c, 0, 78, 74
1, 391600, Note_on_c, 0, 78, 0
1, 391600, Note_on_c, 0, 77, 71
1, 391670, Note_on_c, 0, 77, 0
1, 391680, Tempo, 413793
1, 391680, Note_on_c, 0, 61, 0
1, 391680, Note_on_c, 0, 65, 0
1, 391680, Note_on_c, 0, 77, 89
1, 391680, Control_c, 0, 64, 0
1, 391680, Note_on_c, 0, 44, 81
1, 391680, Note_on_c, 0, 56, 81
1, 391875, Control_c, 0, 64, 127
1, 391920, Tempo, 384615
1, 391920, Note_on_c, 0, 56, 0
1, 391920, Note_on_c, 0, 44, 0
1, 391920, Note_on_c, 0, 77, 0
1, 391920, Note_on_c, 0, 88, 81
1, 391920, Note_on_c, 0, 76, 81
1, 391920, Note_on_c, 0, 68, 58
1, 391920, Note_on_c, 0, 56, 58
1, 392160, Tempo, 392157
1, 392160, Note_on_c, 0, 56, 0
1, 392160, Note_on_c, 0, 88, 0
1, 392160, Note_on_c, 0, 76, 0
1, 392160, Note_on_c, 0, 68, 0
1, 392160, Note_on_c, 0, 77, 81
1, 392160, Note_on_c, 0, 89, 81
1, 392160, Note_on_c, 0, 65, 58
1, 392160, Note_on_c, 0, 60, 58
1, 392171, Control_c, 0, 64, 0
1, 392263, Control_c, 0, 64, 127
1, 392400, Tempo, 405405
1, 392400, Note_on_c, 0, 60, 0
1, 392400, Note_on_c, 0, 77, 0
1, 392400, Note_on_c, 0, 89, 0
1, 392400, Note_on_c, 0, 65, 0
1, 392400, Note_on_c, 0, 70, 89
1, 392400, Note_on_c, 0, 82, 89
1, 392400, Control_c, 0, 64, 0
1, 392400, Note_on_c, 0, 42, 81
1, 392400, Note_on_c, 0, 54, 81
1, 392488, Control_c, 0, 64, 127
1, 392640, Tempo, 389610
1, 392640, Note_on_c, 0, 54, 0
1, 392640, Note_on_c, 0, 70, 0
1, 392640, Note_on_c, 0, 82, 0
1, 392640, Note_on_c, 0, 42, 0
1, 392640, Note_on_c, 0, 72, 73
1, 392640, Note_on_c, 0, 66, 58
1, 392640, Note_on_c, 0, 54, 58
1, 392760, Note_on_c, 0, 72, 0
1, 392760, Note_on_c, 0, 73, 71
1, 392880, Note_on_c, 0, 73, 0
1, 392880, Note_on_c, 0, 54, 0
1, 392880, Note_on_c, 0, 66, 0
1, 392880, Note_on_c, 0, 77, 73
1, 392880, Note_on_c, 0, 61, 58
1, 392880, Note_on_c, 0, 58, 58
1, 392960, Note_on_c, 0, 77, 0
1, 392960, Note_on_c, 0, 75, 73
1, 393040, Note_on_c, 0, 75, 0
1, 393040, Note_on_c, 0, 73, 69
1, 393110, Note_on_c, 0, 73, 0
1, 393120, Tempo, 419580
1, 393120, Note_on_c, 0, 58, 0
1, 393120, Note_on_c, 0, 61, 0
1, 393120, Note_on_c, 0, 73, 89
1, 393120, Control_c, 0, 64, 0
1, 393120, Note_on_c, 0, 41, 80
1, 393120, Note_on_c, 0, 53, 80
1, 393280, Control_c, 0, 64, 127
1, 393360, Tempo, 394737
1, 393360, Note_on_c, 0, 53, 0
1, 393360, Note_on_c, 0, 41, 0
1, 393360, Note_on_c, 0, 73, 0
1, 393360, Note_on_c, 0, 84, 81
1, 393360, Note_on_c, 0, 72, 81
1, 393360, Note_on_c, 0, 65, 56
1, 393360, Note_on_c, 0, 53, 56
1, 393600, Note_on_c, 0, 53, 0
1, 393600, Note_on_c, 0, 84, 0
1, 393600, Note_on_c, 0, 72, 0
1, 393600, Note_on_c, 0, 65, 0
1, 393600, Note_on_c, 0, 73, 81
1, 393600, Note_on_c, 0, 85, 81
1, 393600, Note_on_c, 0, 61, 56
1, 393600, Note_on_c, 0, 56, 56
1, 393603, Control_c, 0, 64, 0
1, 393720, Control_c, 0, 64, 127
1, 393840, Tempo, 409556
1, 393840, Note_on_c, 0, 56, 0
1, 393840, Note_on_c, 0, 73, 0
1, 393840, Note_on_c, 0, 85, 0
1, 393840, Note_on_c, 0, 61, 0
1, 393840, Note_on_c, 0, 66, 89
1, 393840, Note_on_c, 0, 78, 89
1, 393840, Note_on_c, 0, 39, 81
1, 393840, Note_on_c, 0, 51, 81
1, 393850, Control_c, 0, 64, 0
1, 393936, Control_c, 0, 64, 127
1, 394080, Tempo, 406780
1, 394080, Note_on_c, 0, 51, 0
1, 394080, Note_on_c, 0, 66, 0
1, 394080, Note_on_c, 0, 78, 0
1, 394080, Note_on_c, 0, 39, 0
1, 394080, Note_on_c, 0, 69, 73
1, 394080, Note_on_c, 0, 63, 56
1, 394080, Note_on_c, 0, 51, 56
1, 394200, Note_on_c, 0, 69, 0
1, 394200, Note_on_c, 0, 70, 69
1, 394320, Note_on_c, 0, 70, 0
1, 394320, Note_on_c, 0, 51, 0
1, 394320, Note_on_c, 0, 63, 0
1, 394320, Note_on_c, 0, 73, 73
1, 394320, Note_on_c, 0, 58, 56
1, 394320, Note_on_c, 0, 54, 56
1, 394400, Note_on_c, 0, 73, 0
1, 394400, Note_on_c, 0, 72, 73
1, 394480, Note_on_c, 0, 72, 0
1, 394480, Note_on_c, 0, 70, 69
1, 394550, Note_on_c, 0, 70, 0
1, 394560, Note_on_c, 0, 54, 0
1, 394560, Note_on_c, 0, 58, 0
1, 394560, Note_on_c, 0, 70, 89
1, 394560, Note_on_c, 0, 37, 81
1, 394560, Note_on_c, 0, 49, 81
1, 394572, Control_c, 0, 64, 0
1, 394686, Control_c, 0, 64, 127
1, 394800, Note_on_c, 0, 49, 0
1, 394800, Note_on_c, 0, 37, 0
1, 394800, Note_on_c, 0, 70, 0
1, 394800, Note_on_c, 0, 81, 81
1, 394800, Note_on_c, 0, 69, 81
1, 394800, Note_on_c, 0, 61, 62
1, 394800, Note_on_c, 0, 49, 62
1, 395040, Tempo, 418118
1, 395040, Note_on_c, 0, 49, 0
1, 395040, Note_on_c, 0, 81, 0
1, 395040, Note_on_c, 0, 69, 0
1, 395040, Note_on_c, 0, 61, 0
1, 395040, Note_on_c, 0, 70, 81
1, 395040, Note_on_c, 0, 82, 81
1, 395040, Note_on_c, 0, 53, 61
1, 395040, Note_on_c, 0, 58, 61
1, 395047, Control_c, 0, 64, 0
1, 395166, Control_c, 0, 64, 127
1, 395280, Tempo, 408163
1, 395280, Note_on_c, 0, 58, 0
1, 395280, Note_on_c, 0, 70, 0
1, 395280, Note_on_c, 0, 82, 0
1, 395280, Note_on_c, 0, 53, 0
1, 395280, Note_on_c, 0, 63, 89
1, 395280, Note_on_c, 0, 75, 89
1, 395280, Note_on_c, 0, 36, 81
1, 395280, Note_on_c, 0, 48, 81
1, 395301, Control_c, 0, 64, 0
1, 395407, Control_c, 0, 64, 127
1, 395520, Note_on_c, 0, 48, 0
1, 395520, Note_on_c, 0, 63, 0
1, 395520, Note_on_c, 0, 75, 0
1, 395520, Note_on_c, 0, 36, 0
1, 395520, Note_on_c, 0, 65, 74
1, 395520, Note_on_c, 0, 60, 57
1, 395520, Note_on_c, 0, 48, 57
1, 395640, Note_on_c, 0, 65, 0
1, 395640, Note_on_c, 0, 66, 70
1, 395760, Note_on_c, 0, 66, 0
1, 395760, Note_on_c, 0, 48, 0
1, 395760, Note_on_c, 0, 60, 0
1, 395760, Note_on_c, 0, 70, 74
1, 395760, Note_on_c, 0, 51, 57
1, 395760, Note_on_c, 0, 54, 57
1, 395840, Note_on_c, 0, 70, 0
1, 395840, Note_on_c, 0, 68, 74
1, 395920, Note_on_c, 0, 68, 0
1, 395920, Note_on_c, 0, 66, 71
1, 395990, Note_on_c, 0, 66, 0
1, 396000, Note_on_c, 0, 54, 0
1, 396000, Note_on_c, 0, 51, 0
1, 396000, Note_on_c, 0, 66, 89
1, 396000, Control_c, 0, 64, 0
1, 396000, Note_on_c, 0, 34, 80
1, 396000, Note_on_c, 0, 46, 80
1, 396115, Control_c, 0, 64, 127
1, 396240, Tempo, 434783
1, 396240, Note_on_c, 0, 46, 0
1, 396240, Note_on_c, 0, 34, 0
1, 396240, Note_on_c, 0, 74, 85
1, 396240, Note_on_c, 0, 77, 85
1, 396240, Note_on_c, 0, 58, 58
1, 396240, Note_on_c, 0, 46, 58
1, 396480, Note_on_c, 0, 77, 0
1, 396480, Note_on_c, 0, 74, 0
1, 396480, Note_on_c, 0, 75, 85
1, 396480, Note_on_c, 0, 78, 85
1, 396480, Note_on_c, 0, 51, 58
1, 396480, Note_on_c, 0, 54, 58
1, 396497, Control_c, 0, 64, 0
1, 396583, Control_c, 0, 64, 127
1, 396720, Tempo, 449438
1, 396720, Note_on_c, 0, 54, 0
1, 396720, Note_on_c, 0, 78, 0
1, 396720, Note_on_c, 0, 58, 0
1, 396720, Note_on_c, 0, 66, 0
1, 396720, Note_on_c, 0, 46, 0
1, 396720, Note_on_c, 0, 51, 0
1, 396720, Note_on_c, 0, 75, 0
1, 396720, Note_on_c, 0, 65, 84
1, 396720, Note_on_c, 0, 72, 84
1, 396720, Note_on_c, 0, 75, 84
1, 396720, Note_on_c, 0, 77, 84
1, 396720, Note_on_c, 0, 48, 76
1, 396720, Note_on_c, 0, 45, 76
1, 396720, Note_on_c, 0, 53, 76
1, 396720, Note_on_c, 0, 57, 76
1, 396723, Control_c, 0, 64, 0
1, 396800, Control_c, 0, 64, 127
1, 396960, Note_on_c, 0, 57, 0
1, 396960, Note_on_c, 0, 65, 0
1, 396960, Note_on_c, 0, 48, 0
1, 396960, Note_on_c, 0, 72, 0
1, 396960, Note_on_c, 0, 75, 0
1, 396960, Note_on_c, 0, 77, 0
1, 396960, Note_on_c, 0, 45, 0
1, 396960, Note_on_c, 0, 53, 0
1, 396960, Note_on_c, 0, 64, 68
1, 396960, Note_on_c, 0, 52, 64
1, 397080, Note_on_c, 0, 52, 0
1, 397080, Note_on_c, 0, 64, 0
1, 397080, Note_on_c, 0, 65, 66
1, 397080, Note_on_c, 0, 53, 61
1, 397200, Note_on_c, 0, 53, 0
1, 397200, Note_on_c, 0, 65, 0
1, 397200, Note_on_c, 0, 68, 68
1, 397200, Note_on_c, 0, 56, 64
1, 397211, Control_c, 0, 64, 0
1, 397266, Control_c, 0, 64, 127
1, 397280, Note_on_c, 0, 66, 68
1, 397280, Note_on_c, 0, 54, 64
1, 397300, Note_on_c, 0, 56, 0
1, 397300, Note_on_c, 0, 68, 0
1, 397360, Note_on_c, 0, 65, 66
1, 397360, Note_on_c, 0, 53, 61
1, 397380, Note_on_c, 0, 66, 0
1, 397380, Note_on_c, 0, 54, 0
1, 397430, Note_on_c, 0, 65, 0
1, 397430, Note_on_c, 0, 53, 0
1, 397440, Tempo, 425532
1, 397440, Note_on_c, 0, 53, 59
1, 397440, Note_on_c, 0, 34, 57
1, 397451, Control_c, 0, 64, 0
1, 397455, Note_on_c, 0, 58, 59
1, 397470, Note_on_c, 0, 61, 59
1, 397470, Note_on_c, 0, 46, 57
1, 397485, Note_on_c, 0, 65, 59
1, 397532, Control_c, 0, 64, 127
1, 397680, Tempo, 410959
1, 397680, Note_on_c, 0, 65, 0
1, 397680, Note_on_c, 0, 34, 0
1, 397680, Note_on_c, 0, 58, 0
1, 397680, Note_on_c, 0, 53, 0
1, 397680, Note_on_c, 0, 46, 0
1, 397680, Note_on_c, 0, 61, 0
1, 397680, Note_on_c, 0, 87, 73
1, 397680, Note_on_c, 0, 75, 73
1, 397680, Note_on_c, 0, 63, 71
1, 397680, Note_on_c, 0, 51, 71
1, 397920, Tempo, 421053
1, 397920, Note_on_c, 0, 51, 0
1, 397920, Note_on_c, 0, 87, 0
1, 397920, Note_on_c, 0, 75, 0
1, 397920, Note_on_c, 0, 63, 0
1, 397920, Note_on_c, 0, 85, 73
1, 397920, Note_on_c, 0, 73, 73
1, 397920, Note_on_c, 0, 49, 72
1, 397920, Note_on_c, 0, 61, 72
1, 397930, Control_c, 0, 64, 0
1, 397987, Control_c, 0, 64, 127
1, 398160, Tempo, 394867
1, 398160, Note_on_c, 0, 61, 0
1, 398160, Note_on_c, 0, 85, 0
1, 398160, Note_on_c, 0, 73, 0
1, 398160, Note_on_c, 0, 49, 0
1, 398160, Note_on_c, 0, 72, 68
1, 398160, Note_on_c, 0, 41, 74
1, 398167, Control_c, 0, 64, 0
1, 398175, Note_on_c, 0, 77, 69
1, 398175, Note_on_c, 0, 48, 74
1, 398190, Note_on_c, 0, 81, 72
1, 398190, Note_on_c, 0, 57, 74
1, 398205, Note_on_c, 0, 84, 77
1, 398269, Control_c, 0, 64, 127
1, 398400, Tempo, 389914
1, 398400, Note_on_c, 0, 84, 0
1, 398400, Note_on_c, 0, 81, 0
1, 398400, Note_on_c, 0, 41, 0
1, 398400, Note_on_c, 0, 77, 0
1, 398400, Note_on_c, 0, 72, 0
1, 398400, Note_on_c, 0, 57, 0
1, 398400, Note_on_c, 0, 48, 0
1, 398400, Note_on_c, 0, 64, 68
1, 398400, Note_on_c, 0, 52, 62
1, 398520, Note_on_c, 0, 52, 0
1, 398520, Note_on_c, 0, 64, 0
1, 398520, Note_on_c, 0, 65, 66
1, 398520, Note_on_c, 0, 53, 59
1, 398640, Note_on_c, 0, 53, 0
1, 398640, Note_on_c, 0, 65, 0
1, 398640, Note_on_c, 0, 68, 69
1, 398640, Note_on_c, 0, 56, 62
1, 398651, Control_c, 0, 64, 0
1, 398675, Control_c, 0, 64, 127
1, 398720, Note_on_c, 0, 66, 69
1, 398720, Note_on_c, 0, 54, 62
1, 398740, Note_on_c, 0, 56, 0
1, 398740, Note_on_c, 0, 68, 0
1, 398800, Note_on_c, 0, 65, 67
1, 398800, Note_on_c, 0, 53, 58
1, 398820, Note_on_c, 0, 66, 0
1, 398820, Note_on_c, 0, 54, 0
1, 398870, Note_on_c, 0, 65, 0
1, 398870, Note_on_c, 0, 53, 0
1, 398880, Tempo, 396040
1, 398880, Note_on_c, 0, 53, 60
1, 398880, Control_c, 0, 64, 0
1, 398880, Note_on_c, 0, 34, 54
1, 398895, Note_on_c, 0, 58, 60
1, 398910, Note_on_c, 0, 61, 60
1, 398910, Note_on_c, 0, 46, 54
1, 398925, Note_on_c, 0, 65, 60
1, 398968, Control_c, 0, 64, 127
1, 399120, Tempo, 398671
1, 399120, Note_on_c, 0, 65, 0
1, 399120, Note_on_c, 0, 34, 0
1, 399120, Note_on_c, 0, 58, 0
1, 399120, Note_on_c, 0, 53, 0
1, 399120, Note_on_c, 0, 46, 0
1, 399120, Note_on_c, 0, 61, 0
1, 399120, Note_on_c, 0, 84, 74
1, 399120, Note_on_c, 0, 72, 74
1, 399120, Note_on_c, 0, 60, 69
1, 399120, Note_on_c, 0, 48, 69
1, 399360, Tempo, 413793
1, 399360, Note_on_c, 0, 48, 0
1, 399360, Note_on_c, 0, 84, 0
1, 399360, Note_on_c, 0, 72, 0
1, 399360, Note_on_c, 0, 60, 0
1, 399360, Note_on_c, 0, 70, 74
1, 399360, Note_on_c, 0, 82, 74
1, 399360, Note_on_c, 0, 46, 69
1, 399360, Note_on_c, 0, 58, 69
1, 399369, Control_c, 0, 64, 0
1, 399438, Control_c, 0, 64, 127
1, 399600, Tempo, 401257
1, 399600, Note_on_c, 0, 58, 0
1, 399600, Note_on_c, 0, 70, 0
1, 399600, Note_on_c, 0, 82, 0
1, 399600, Note_on_c, 0, 46, 0
1, 399600, Note_on_c, 0, 69, 69
1, 399600, Note_on_c, 0, 41, 75
1, 399609, Control_c, 0, 64, 0
1, 399615, Note_on_c, 0, 72, 70
1, 399615, Note_on_c, 0, 48, 75
1, 399630, Note_on_c, 0, 77, 74
1, 399630, Note_on_c, 0, 57, 75
1, 399645, Note_on_c, 0, 81, 76
1, 399692, Control_c, 0, 64, 127
1, 399840, Tempo, 407858
1, 399840, Note_on_c, 0, 81, 0
1, 399840, Note_on_c, 0, 77, 0
1, 399840, Note_on_c, 0, 41, 0
1, 399840, Note_on_c, 0, 72, 0
1, 399840, Note_on_c, 0, 69, 0
1, 399840, Note_on_c, 0, 57, 0
1, 399840, Note_on_c, 0, 48, 0
1, 399840, Note_on_c, 0, 64, 65
1, 399840, Note_on_c, 0, 52, 61
1, 399960, Note_on_c, 0, 52, 0
1, 399960, Note_on_c, 0, 64, 0
1, 399960, Note_on_c, 0, 65, 60
1, 399960, Note_on_c, 0, 53, 58
1, 400080, Note_on_c, 0, 53, 0
1, 400080, Note_on_c, 0, 65, 0
1, 400080, Note_on_c, 0, 68, 65
1, 400080, Note_on_c, 0, 56, 61
1, 400091, Control_c, 0, 64, 0
1, 400120, Control_c, 0, 64, 127
1, 400160, Note_on_c, 0, 66, 65
1, 400160, Note_on_c, 0, 54, 61
1, 400180, Note_on_c, 0, 56, 0
1, 400180, Note_on_c, 0, 68, 0
1, 400240, Note_on_c, 0, 65, 61
1, 400240, Note_on_c, 0, 53, 57
1, 400260, Note_on_c, 0, 66, 0
1, 400260, Note_on_c, 0, 54, 0
1, 400310, Note_on_c, 0, 65, 0
1, 400310, Note_on_c, 0, 53, 0
1, 400320, Tempo, 399973
1, 400320, Note_on_c, 0, 53, 56
1, 400320, Note_on_c, 0, 34, 55
1, 400335, Note_on_c, 0, 58, 56
1, 400345, Control_c, 0, 64, 0
1, 400350, Note_on_c, 0, 61, 56
1, 400350, Note_on_c, 0, 46, 55
1, 400365, Note_on_c, 0, 65, 56
1, 400416, Control_c, 0, 64, 127
1, 400560, Tempo, 405405
1, 400560, Note_on_c, 0, 65, 0
1, 400560, Note_on_c, 0, 34, 0
1, 400560, Note_on_c, 0, 58, 0
1, 400560, Note_on_c, 0, 53, 0
1, 400560, Note_on_c, 0, 46, 0
1, 400560, Note_on_c, 0, 61, 0
1, 400560, Note_on_c, 0, 87, 78
1, 400560, Note_on_c, 0, 75, 78
1, 400560, Note_on_c, 0, 63, 74
1, 400560, Note_on_c, 0, 51, 74
1, 400800, Tempo, 424028
1, 400800, Note_on_c, 0, 51, 0
1, 400800, Note_on_c, 0, 87, 0
1, 400800, Note_on_c, 0, 75, 0
1, 400800, Note_on_c, 0, 63, 0
1, 400800, Note_on_c, 0, 73, 78
1, 400800, Note_on_c, 0, 85, 78
1, 400800, Note_on_c, 0, 49, 73
1, 400800, Note_on_c, 0, 61, 73
1, 400808, Control_c, 0, 64, 0
1, 400857, Control_c, 0, 64, 127
1, 401040, Tempo, 401257
1, 401040, Note_on_c, 0, 61, 0
1, 401040, Note_on_c, 0, 73, 0
1, 401040, Note_on_c, 0, 85, 0
1, 401040, Note_on_c, 0, 49, 0
1, 401040, Note_on_c, 0, 72, 74
1, 401040, Control_c, 0, 64, 0
1, 401040, Note_on_c, 0, 41, 75
1, 401055, Note_on_c, 0, 77, 75
1, 401055, Note_on_c, 0, 48, 75
1, 401070, Note_on_c, 0, 81, 77
1, 401070, Note_on_c, 0, 57, 74
1, 401085, Note_on_c, 0, 84, 80
1, 401123, Control_c, 0, 64, 127
1, 401280, Tempo, 403877
1, 401280, Note_on_c, 0, 84, 0
1, 401280, Note_on_c, 0, 81, 0
1, 401280, Note_on_c, 0, 41, 0
1, 401280, Note_on_c, 0, 77, 0
1, 401280, Note_on_c, 0, 72, 0
1, 401280, Note_on_c, 0, 57, 0
1, 401280, Note_on_c, 0, 48, 0
1, 401280, Note_on_c, 0, 64, 70
1, 401280, Note_on_c, 0, 52, 67
1, 401400, Note_on_c, 0, 52, 0
1, 401400, Note_on_c, 0, 64, 0
1, 401400, Note_on_c, 0, 65, 67
1, 401400, Note_on_c, 0, 53, 63
1, 401520, Note_on_c, 0, 53, 0
1, 401520, Note_on_c, 0, 65, 0
1, 401520, Note_on_c, 0, 68, 70
1, 401520, Note_on_c, 0, 56, 67
1, 401530, Control_c, 0, 64, 0
1, 401575, Control_c, 0, 64, 127
1, 401600, Note_on_c, 0, 66, 70
1, 401600, Note_on_c, 0, 54, 67
1, 401620, Note_on_c, 0, 56, 0
1, 401620, Note_on_c, 0, 68, 0
1, 401680, Note_on_c, 0, 65, 68
1, 401680, Note_on_c, 0, 53, 62
1, 401700, Note_on_c, 0, 66, 0
1, 401700, Note_on_c, 0, 54, 0
1, 401750, Note_on_c, 0, 65, 0
1, 401750, Note_on_c, 0, 53, 0
1, 401760, Tempo, 397404
1, 401760, Note_on_c, 0, 53, 62
1, 401760, Note_on_c, 0, 34, 60
1, 401767, Control_c, 0, 64, 0
1, 401775, Note_on_c, 0, 58, 62
1, 401790, Note_on_c, 0, 61, 62
1, 401790, Note_on_c, 0, 46, 60
1, 401805, Note_on_c, 0, 65, 62
1, 401852, Control_c, 0, 64, 127
1, 402000, Tempo, 402685
1, 402000, Note_on_c, 0, 65, 0
1, 402000, Note_on_c, 0, 34, 0
1, 402000, Note_on_c, 0, 58, 0
1, 402000, Note_on_c, 0, 53, 0
1, 402000, Note_on_c, 0, 46, 0
1, 402000, Note_on_c, 0, 61, 0
1, 402000, Note_on_c, 0, 84, 77
1, 402000, Note_on_c, 0, 72, 77
1, 402000, Note_on_c, 0, 60, 74
1, 402000, Note_on_c, 0, 48, 74
1, 402240, Tempo, 401257
1, 402240, Note_on_c, 0, 48, 0
1, 402240, Note_on_c, 0, 84, 0
1, 402240, Note_on_c, 0, 72, 0
1, 402240, Note_on_c, 0, 60, 0
1, 402240, Note_on_c, 0, 70, 77
1, 402240, Note_on_c, 0, 82, 77
1, 402240, Note_on_c, 0, 46, 74
1, 402240, Note_on_c, 0, 58, 74
1, 402252, Control_c, 0, 64, 0
1, 402328, Control_c, 0, 64, 127
1, 402480, Note_on_c, 0, 58, 0
1, 402480, Note_on_c, 0, 70, 0
1, 402480, Note_on_c, 0, 82, 0
1, 402480, Note_on_c, 0, 46, 0
1, 402480, Note_on_c, 0, 69, 73
1, 402480, Note_on_c, 0, 41, 75
1, 402495, Note_on_c, 0, 72, 74
1, 402495, Note_on_c, 0, 48, 75
1, 402506, Control_c, 0, 64, 0
1, 402510, Note_on_c, 0, 77, 77
1, 402510, Note_on_c, 0, 57, 74
1, 402525, Note_on_c, 0, 81, 81
1, 402555, Control_c, 0, 64, 127
1, 402720, Tempo, 394867
1, 402720, Note_on_c, 0, 81, 0
1, 402720, Note_on_c, 0, 77, 0
1, 402720, Note_on_c, 0, 41, 0
1, 402720, Note_on_c, 0, 72, 0
1, 402720, Note_on_c, 0, 69, 0
1, 402720, Note_on_c, 0, 57, 0
1, 402720, Note_on_c, 0, 48, 0
1, 402720, Note_on_c, 0, 64, 67
1, 402720, Note_on_c, 0, 52, 63
1, 402840, Note_on_c, 0, 52, 0
1, 402840, Note_on_c, 0, 64, 0
1, 402840, Note_on_c, 0, 65, 64
1, 402840, Note_on_c, 0, 53, 60
1, 402960, Note_on_c, 0, 53, 0
1, 402960, Note_on_c, 0, 65, 0
1, 402960, Note_on_c, 0, 68, 67
1, 402960, Note_on_c, 0, 56, 63
1, 402972, Control_c, 0, 64, 0
1, 403020, Control_c, 0, 64, 127
1, 403040, Note_on_c, 0, 66, 67
1, 403040, Note_on_c, 0, 54, 63
1, 403060, Note_on_c, 0, 56, 0
1, 403060, Note_on_c, 0, 68, 0
1, 403120, Note_on_c, 0, 65, 64
1, 403120, Note_on_c, 0, 53, 60
1, 403140, Note_on_c, 0, 66, 0
1, 403140, Note_on_c, 0, 54, 0
1, 403190, Note_on_c, 0, 65, 0
1, 403190, Note_on_c, 0, 53, 0
1, 403200, Note_on_c, 0, 65, 80
1, 403200, Control_c, 0, 64, 0
1, 403200, Note_on_c, 0, 53, 74
1, 403320, Control_c, 0, 64, 127
1, 403440, Tempo, 406532
1, 403440, Note_on_c, 0, 53, 0
1, 403440, Note_on_c, 0, 65, 0
1, 403440, Note_on_c, 0, 85, 77
1, 403440, Note_on_c, 0, 73, 77
1, 403440, Note_on_c, 0, 61, 71
1, 403680, Tempo, 418877
1, 403680, Note_on_c, 0, 61, 0
1, 403680, Note_on_c, 0, 73, 0
1, 403680, Note_on_c, 0, 85, 0
1, 403680, Note_on_c, 0, 72, 78
1, 403680, Note_on_c, 0, 84, 78
1, 403680, Note_on_c, 0, 60, 73
1, 403690, Control_c, 0, 64, 0
1, 403774, Control_c, 0, 64, 127
1, 403920, Tempo, 394867
1, 403920, Note_on_c, 0, 60, 0
1, 403920, Note_on_c, 0, 84, 0
1, 403920, Note_on_c, 0, 72, 0
1, 403920, Note_on_c, 0, 69, 74
1, 403920, Note_on_c, 0, 41, 76
1, 403935, Note_on_c, 0, 72, 75
1, 403935, Control_c, 0, 64, 0
1, 403935, Note_on_c, 0, 48, 76
1, 403950, Note_on_c, 0, 77, 78
1, 403950, Note_on_c, 0, 57, 76
1, 403965, Note_on_c, 0, 81, 83
1, 404008, Control_c, 0, 64, 127
1, 404160, Tempo, 405186
1, 404160, Note_on_c, 0, 81, 0
1, 404160, Note_on_c, 0, 77, 0
1, 404160, Note_on_c, 0, 41, 0
1, 404160, Note_on_c, 0, 72, 0
1, 404160, Note_on_c, 0, 69, 0
1, 404160, Note_on_c, 0, 57, 0
1, 404160, Note_on_c, 0, 48, 0
1, 404160, Note_on_c, 0, 59, 70
1, 404160, Note_on_c, 0, 47, 67
1, 404280, Note_on_c, 0, 47, 0
1, 404280, Note_on_c, 0, 59, 0
1, 404280, Note_on_c, 0, 60, 66
1, 404280, Note_on_c, 0, 48, 64
1, 404400, Note_on_c, 0, 48, 0
1, 404400, Note_on_c, 0, 60, 0
1, 404400, Note_on_c, 0, 63, 70
1, 404400, Note_on_c, 0, 51, 67
1, 404413, Control_c, 0, 64, 0
1, 404460, Control_c, 0, 64, 127
1, 404480, Note_on_c, 0, 61, 70
1, 404480, Note_on_c, 0, 49, 67
1, 404500, Note_on_c, 0, 51, 0
1, 404500, Note_on_c, 0, 63, 0
1, 404560, Note_on_c, 0, 60, 66
1, 404560, Note_on_c, 0, 48, 64
1, 404580, Note_on_c, 0, 61, 0
1, 404580, Note_on_c, 0, 49, 0
1, 404630, Note_on_c, 0, 60, 0
1, 404630, Note_on_c, 0, 48, 0
1, 404640, Tempo, 396144
1, 404640, Note_on_c, 0, 60, 80
1, 404640, Control_c, 0, 64, 0
1, 404640, Note_on_c, 0, 36, 74
1, 404640, Note_on_c, 0, 48, 74
1, 404789, Control_c, 0, 64, 127
1, 404880, Tempo, 410959
1, 404880, Note_on_c, 0, 48, 0
1, 404880, Note_on_c, 0, 36, 0
1, 404880, Note_on_c, 0, 60, 0
1, 404880, Note_on_c, 0, 70, 78
1, 404880, Note_on_c, 0, 58, 73
1, 405120, Tempo, 421053
1, 405120, Note_on_c, 0, 58, 0
1, 405120, Note_on_c, 0, 70, 0
1, 405120, Note_on_c, 0, 69, 75
1, 405120, Note_on_c, 0, 57, 70
1, 405131, Control_c, 0, 64, 0
1, 405235, Control_c, 0, 64, 127
1, 405360, Tempo, 401257
1, 405360, Note_on_c, 0, 57, 0
1, 405360, Note_on_c, 0, 69, 0
1, 405360, Note_on_c, 0, 69, 65
1, 405360, Note_on_c, 0, 41, 69
1, 405369, Control_c, 0, 64, 0
1, 405375, Note_on_c, 0, 72, 67
1, 405375, Note_on_c, 0, 48, 69
1, 405390, Note_on_c, 0, 77, 71
1, 405390, Note_on_c, 0, 57, 69
1, 405405, Note_on_c, 0, 81, 71
1, 405409, Control_c, 0, 64, 127
1, 405600, Note_on_c, 0, 81, 0
1, 405600, Note_on_c, 0, 77, 0
1, 405600, Note_on_c, 0, 41, 0
1, 405600, Note_on_c, 0, 72, 0
1, 405600, Note_on_c, 0, 69, 0
1, 405600, Note_on_c, 0, 57, 0
1, 405600, Note_on_c, 0, 48, 0
1, 405600, Note_on_c, 0, 64, 70
1, 405600, Note_on_c, 0, 52, 66
1, 405720, Note_on_c, 0, 52, 0
1, 405720, Note_on_c, 0, 64, 0
1, 405720, Note_on_c, 0, 65, 67
1, 405720, Note_on_c, 0, 53, 63
1, 405840, Note_on_c, 0, 53, 0
1, 405840, Note_on_c, 0, 65, 0
1, 405840, Note_on_c, 0, 68, 70
1, 405840, Note_on_c, 0, 56, 66
1, 405853, Control_c, 0, 64, 0
1, 405880, Control_c, 0, 64, 127
1, 405920, Note_on_c, 0, 66, 70
1, 405920, Note_on_c, 0, 54, 66
1, 405940, Note_on_c, 0, 56, 0
1, 405940, Note_on_c, 0, 68, 0
1, 406000, Note_on_c, 0, 65, 66
1, 406000, Note_on_c, 0, 53, 63
1, 406020, Note_on_c, 0, 66, 0
1, 406020, Note_on_c, 0, 54, 0
1, 406070, Note_on_c, 0, 65, 0
1, 406070, Note_on_c, 0, 53, 0
1, 406080, Tempo, 411918
1, 406080, Note_on_c, 0, 65, 80
1, 406080, Control_c, 0, 64, 0
1, 406080, Note_on_c, 0, 53, 74
1, 406081, Tempo, 398671
1, 406200, Control_c, 0, 64, 127
1, 406320, Tempo, 425532
1, 406320, Note_on_c, 0, 53, 0
1, 406320, Note_on_c, 0, 65, 0
1, 406320, Note_on_c, 0, 85, 77
1, 406320, Note_on_c, 0, 73, 77
1, 406320, Note_on_c, 0, 61, 74
1, 406560, Note_on_c, 0, 61, 0
1, 406560, Note_on_c, 0, 73, 0
1, 406560, Note_on_c, 0, 85, 0
1, 406560, Note_on_c, 0, 72, 77
1, 406560, Note_on_c, 0, 84, 77
1, 406560, Note_on_c, 0, 60, 71
1, 406567, Control_c, 0, 64, 0
1, 406707, Control_c, 0, 64, 127
1, 406800, Note_on_c, 0, 60, 0
1, 406800, Note_on_c, 0, 84, 0
1, 406800, Note_on_c, 0, 72, 0
1, 406800, Note_on_c, 0, 69, 65
1, 406800, Control_c, 0, 64, 0
1, 406800, Note_on_c, 0, 41, 68
1, 406815, Note_on_c, 0, 72, 66
1, 406815, Note_on_c, 0, 48, 68
1, 406830, Note_on_c, 0, 77, 70
1, 406830, Note_on_c, 0, 57, 68
1, 406845, Note_on_c, 0, 81, 76
1, 406874, Control_c, 0, 64, 127
1, 407040, Tempo, 441176
1, 407040, Note_on_c, 0, 81, 0
1, 407040, Note_on_c, 0, 77, 0
1, 407040, Note_on_c, 0, 41, 0
1, 407040, Note_on_c, 0, 72, 0
1, 407040, Note_on_c, 0, 69, 0
1, 407040, Note_on_c, 0, 57, 0
1, 407040, Note_on_c, 0, 48, 0
1, 407040, Note_on_c, 0, 59, 69
1, 407040, Note_on_c, 0, 47, 66
1, 407160, Note_on_c, 0, 47, 0
1, 407160, Note_on_c, 0, 59, 0
1, 407160, Note_on_c, 0, 60, 67
1, 407160, Note_on_c, 0, 48, 64
1, 407280, Note_on_c, 0, 48, 0
1, 407280, Note_on_c, 0, 60, 0
1, 407280, Note_on_c, 0, 63, 69
1, 407280, Note_on_c, 0, 51, 66
1, 407289, Control_c, 0, 64, 0
1, 407330, Control_c, 0, 64, 127
1, 407360, Note_on_c, 0, 61, 69
1, 407360, Note_on_c, 0, 49, 66
1, 407380, Note_on_c, 0, 51, 0
1, 407380, Note_on_c, 0, 63, 0
1, 407440, Note_on_c, 0, 60, 66
1, 407440, Note_on_c, 0, 48, 63
1, 407460, Note_on_c, 0, 61, 0
1, 407460, Note_on_c, 0, 49, 0
1, 407510, Note_on_c, 0, 60, 0
1, 407510, Note_on_c, 0, 48, 0
1, 407520, Tempo, 474308
1, 407520, Note_on_c, 0, 60, 78
1, 407520, Control_c, 0, 64, 0
1, 407520, Note_on_c, 0, 36, 75
1, 407520, Note_on_c, 0, 48, 75
1, 407692, Control_c, 0, 64, 127
1, 407760, Tempo, 447761
1, 407760, Note_on_c, 0, 48, 0
1, 407760, Note_on_c, 0, 36, 0
1, 407760, Note_on_c, 0, 60, 0
1, 407760, Note_on_c, 0, 70, 77
1, 407760, Note_on_c, 0, 58, 69
1, 408000, Note_on_c, 0, 58, 0
1, 408000, Note_on_c, 0, 70, 0
1, 408000, Note_on_c, 0, 69, 74
1, 408000, Note_on_c, 0, 57, 71
1, 408014, Control_c, 0, 64, 0
1, 408092, Control_c, 0, 64, 127
1, 408240, Note_on_c, 0, 57, 0
1, 408240, Note_on_c, 0, 69, 0
1, 408240, Note_on_c, 0, 69, 62
1, 408240, Note_on_c, 0, 41, 59
1, 408245, Control_c, 0, 64, 0
1, 408255, Note_on_c, 0, 72, 63
1, 408255, Note_on_c, 0, 48, 59
1, 408270, Note_on_c, 0, 77, 65
1, 408270, Note_on_c, 0, 57, 59
1, 408285, Note_on_c, 0, 81, 69
1, 408325, Control_c, 0, 64, 127
1, 408480, Tempo, 447761
1, 408480, Note_on_c, 0, 81, 0
1, 408480, Note_on_c, 0, 77, 0
1, 408480, Note_on_c, 0, 41, 0
1, 408480, Note_on_c, 0, 72, 0
1, 408480, Note_on_c, 0, 69, 0
1, 408480, Note_on_c, 0, 57, 0
1, 408480, Note_on_c, 0, 48, 0
1, 408480, Note_on_c, 0, 59, 64
1, 408480, Note_on_c, 0, 47, 61
1, 408600, Note_on_c, 0, 47, 0
1, 408600, Note_on_c, 0, 59, 0
1, 408600, Note_on_c, 0, 60, 59
1, 408600, Note_on_c, 0, 48, 57
1, 408720, Note_on_c, 0, 48, 0
1, 408720, Note_on_c, 0, 60, 0
1, 408720, Note_on_c, 0, 63, 64
1, 408720, Note_on_c, 0, 51, 61
1, 408732, Control_c, 0, 64, 0
1, 408777, Control_c, 0, 64, 127
1, 408800, Note_on_c, 0, 61, 64
1, 408800, Note_on_c, 0, 49, 61
1, 408820, Note_on_c, 0, 51, 0
1, 408820, Note_on_c, 0, 63, 0
1, 408880, Note_on_c, 0, 60, 60
1, 408880, Note_on_c, 0, 48, 57
1, 408900, Note_on_c, 0, 61, 0
1, 408900, Note_on_c, 0, 49, 0
1, 408950, Note_on_c, 0, 60, 0
1, 408950, Note_on_c, 0, 48, 0
1, 408960, Note_on_c, 0, 60, 72
1, 408960, Control_c, 0, 64, 0
1, 408960, Note_on_c, 0, 36, 69
1, 408960, Note_on_c, 0, 48, 69
1, 409140, Control_c, 0, 64, 127
1, 409200, Tempo, 454545
1, 409200, Note_on_c, 0, 48, 0
1, 409200, Note_on_c, 0, 36, 0
1, 409200, Note_on_c, 0, 60, 0
1, 409200, Note_on_c, 0, 70, 71
1, 409200, Note_on_c, 0, 58, 67
1, 409440, Note_on_c, 0, 58, 0
1, 409440, Note_on_c, 0, 70, 0
1, 409440, Note_on_c, 0, 69, 69
1, 409440, Note_on_c, 0, 57, 65
1, 409448, Control_c, 0, 64, 0
1, 409543, Control_c, 0, 64, 127
1, 409680, Note_on_c, 0, 57, 0
1, 409680, Note_on_c, 0, 69, 0
1, 409680, Note_on_c, 0, 69, 58
1, 409680, Note_on_c, 0, 41, 62
1, 409694, Control_c, 0, 64, 0
1, 409695, Note_on_c, 0, 72, 59
1, 409695, Note_on_c, 0, 48, 62
1, 409710, Note_on_c, 0, 77, 61
1, 409710, Note_on_c, 0, 57, 62
1, 409725, Note_on_c, 0, 81, 63
1, 409740, Control_c, 0, 64, 127
1, 409920, Tempo, 447761
1, 409920, Note_on_c, 0, 81, 0
1, 409920, Note_on_c, 0, 77, 0
1, 409920, Note_on_c, 0, 41, 0
1, 409920, Note_on_c, 0, 72, 0
1, 409920, Note_on_c, 0, 69, 0
1, 409920, Note_on_c, 0, 57, 0
1, 409920, Note_on_c, 0, 48, 0
1, 409920, Note_on_c, 0, 59, 59
1, 409920, Note_on_c, 0, 47, 56
1, 410040, Note_on_c, 0, 47, 0
1, 410040, Note_on_c, 0, 59, 0
1, 410040, Note_on_c, 0, 60, 56
1, 410040, Note_on_c, 0, 48, 53
1, 410160, Note_on_c, 0, 48, 0
1, 410160, Note_on_c, 0, 60, 0
1, 410160, Note_on_c, 0, 63, 59
1, 410160, Note_on_c, 0, 51, 57
1, 410174, Control_c, 0, 64, 0
1, 410220, Control_c, 0, 64, 127
1, 410240, Note_on_c, 0, 61, 59
1, 410240, Note_on_c, 0, 49, 57
1, 410260, Note_on_c, 0, 51, 0
1, 410260, Note_on_c, 0, 63, 0
1, 410320, Note_on_c, 0, 60, 55
1, 410320, Note_on_c, 0, 48, 54
1, 410340, Note_on_c, 0, 61, 0
1, 410340, Note_on_c, 0, 49, 0
1, 410390, Note_on_c, 0, 60, 0
1, 410390, Note_on_c, 0, 48, 0
1, 410400, Note_on_c, 0, 60, 67
1, 410400, Control_c, 0, 64, 0
1, 410400, Note_on_c, 0, 36, 65
1, 410400, Note_on_c, 0, 48, 65
1, 410595, Control_c, 0, 64, 127
1, 410640, Tempo, 447761
1, 410640, Note_on_c, 0, 48, 0
1, 410640, Note_on_c, 0, 36, 0
1, 410640, Note_on_c, 0, 60, 0
1, 410640, Note_on_c, 0, 70, 67
1, 410640, Note_on_c, 0, 58, 60
1, 410880, Note_on_c, 0, 58, 0
1, 410880, Note_on_c, 0, 70, 0
1, 410880, Note_on_c, 0, 69, 64
1, 410880, Note_on_c, 0, 57, 60
1, 410894, Control_c, 0, 64, 0
1, 411120, Tempo, 454545
1, 411120, Note_on_c, 0, 57, 0
1, 411120, Note_on_c, 0, 69, 0
1, 411120, Note_on_c, 0, 69, 54
1, 411120, Note_on_c, 0, 41, 56
1, 411135, Note_on_c, 0, 72, 54
1, 411135, Note_on_c, 0, 48, 56
1, 411150, Note_on_c, 0, 77, 56
1, 411150, Note_on_c, 0, 53, 56
1, 411165, Note_on_c, 0, 81, 58
1, 411360, Tempo, 447761
1, 411360, Note_on_c, 0, 81, 0
1, 411360, Note_on_c, 0, 77, 0
1, 411360, Note_on_c, 0, 41, 0
1, 411360, Note_on_c, 0, 72, 0
1, 411360, Note_on_c, 0, 69, 0
1, 411360, Note_on_c, 0, 53, 0
1, 411360, Note_on_c, 0, 48, 0
1, 411360, Note_on_c, 0, 47, 53
1, 411360, Note_on_c, 0, 35, 48
1, 411480, Note_on_c, 0, 48, 51
1, 411480, Note_on_c, 0, 36, 44
1, 411510, Note_on_c, 0, 35, 0
1, 411510, Note_on_c, 0, 47, 0
1, 411600, Note_on_c, 0, 51, 53
1, 411600, Note_on_c, 0, 39, 48
1, 411630, Note_on_c, 0, 48, 0
1, 411630, Note_on_c, 0, 36, 0
1, 411680, Note_on_c, 0, 49, 53
1, 411680, Note_on_c, 0, 37, 48
1, 411700, Note_on_c, 0, 51, 0
1, 411700, Note_on_c, 0, 39, 0
1, 411760, Note_on_c, 0, 48, 49
1, 411760, Note_on_c, 0, 36, 45
1, 411780, Note_on_c, 0, 49, 0
1, 411780, Note_on_c, 0, 37, 0
1, 411830, Note_on_c, 0, 48, 0
1, 411830, Note_on_c, 0, 36, 0
1, 411840, Tempo, 512821
1, 411840, Note_on_c, 0, 48, 59
1, 411840, Note_on_c, 0, 36, 55
1, 412080, Tempo, 491803
1, 412080, Note_on_c, 0, 36, 0
1, 412080, Note_on_c, 0, 48, 0
1, 412080, Note_on_c, 0, 58, 56
1, 412080, Note_on_c, 0, 46, 55
1, 412200, Note_on_c, 0, 46, 0
1, 412200, Note_on_c, 0, 58, 0
1, 412320, Note_on_c, 0, 57, 58
1, 412320, Note_on_c, 0, 45, 53
1, 412440, Note_on_c, 0, 45, 0
1, 412440, Note_on_c, 0, 57, 0
1, 412560, Tempo, 478088
1, 412560, Note_on_c, 0, 53, 62
1, 412560, Note_on_c, 0, 41, 56
1, 412800, Note_on_c, 0, 41, 0
1, 412800, Note_on_c, 0, 53, 0
1, 412800, Note_on_c, 0, 47, 46
1, 412800, Note_on_c, 0, 35, 43
1, 412920, Note_on_c, 0, 48, 43
1, 412920, Note_on_c, 0, 36, 40
1, 412950, Note_on_c, 0, 35, 0
1, 412950, Note_on_c, 0, 47, 0
1, 413040, Note_on_c, 0, 51, 46
1, 413040, Note_on_c, 0, 39, 43
1, 413070, Note_on_c, 0, 48, 0
1, 413070, Note_on_c, 0, 36, 0
1, 413120, Note_on_c, 0, 49, 46
1, 413120, Note_on_c, 0, 37, 43
1, 413140, Note_on_c, 0, 51, 0
1, 413140, Note_on_c, 0, 39, 0
1, 413200, Note_on_c, 0, 48, 42
1, 413200, Note_on_c, 0, 36, 40
1, 413220, Note_on_c, 0, 49, 0
1, 413220, Note_on_c, 0, 37, 0
1, 413270, Note_on_c, 0, 48, 0
1, 413270, Note_on_c, 0, 36, 0
1, 413280, Tempo, 515021
1, 413280, Note_on_c, 0, 48, 51
1, 413280, Note_on_c, 0, 36, 46
1, 413520, Tempo, 538117
1, 413520, Note_on_c, 0, 36, 0
1, 413520, Note_on_c, 0, 48, 0
1, 413520, Note_on_c, 0, 58, 52
1, 413520, Note_on_c, 0, 46, 49
1, 413640, Note_on_c, 0, 46, 0
1, 413640, Note_on_c, 0, 58, 0
1, 413760, Tempo, 588235
1, 413760, Note_on_c, 0, 57, 52
1, 413760, Note_on_c, 0, 45, 49
1, 413880, Note_on_c, 0, 45, 0
1, 413880, Note_on_c, 0, 57, 0
1, 414000, Tempo, 535714
1, 414000, Note_on_c, 0, 53, 56
1, 414000, Note_on_c, 0, 41, 52
1, 414240, Note_on_c, 0, 41, 0
1, 414240, Note_on_c, 0, 53, 0
1, 414720, Tempo, 506329
1, 415440, Tempo, 519481
1, 415680, Note_on_c, 0, 47, 47
1, 415680, Note_on_c, 0, 35, 44
1, 415800, Note_on_c, 0, 48, 44
1, 415800, Note_on_c, 0, 36, 41
1, 415830, Note_on_c, 0, 35, 0
1, 415830, Note_on_c, 0, 47, 0
1, 415920, Note_on_c, 0, 51, 47
1, 415920, Note_on_c, 0, 39, 44
1, 415950, Note_on_c, 0, 48, 0
1, 415950, Note_on_c, 0, 36, 0
1, 416000, Note_on_c, 0, 49, 47
1, 416000, Note_on_c, 0, 37, 44
1, 416020, Note_on_c, 0, 51, 0
1, 416020, Note_on_c, 0, 39, 0
1, 416080, Note_on_c, 0, 48, 44
1, 416080, Note_on_c, 0, 36, 41
1, 416100, Note_on_c, 0, 49, 0
1, 416100, Note_on_c, 0, 37, 0
1, 416150, Note_on_c, 0, 48, 0
1, 416150, Note_on_c, 0, 36, 0
1, 416160, Note_on_c, 0, 48, 55
1, 416160, Note_on_c, 0, 36, 52
1, 416280, Note_on_c, 0, 36, 0
1, 416280, Note_on_c, 0, 48, 0
1, 416400, Tempo, 550459
1, 416400, Note_on_c, 0, 58, 52
1, 416400, Note_on_c, 0, 46, 49
1, 416520, Note_on_c, 0, 46, 0
1, 416520, Note_on_c, 0, 58, 0
1, 416640, Tempo, 588235
1, 416640, Note_on_c, 0, 57, 49
1, 416640, Note_on_c, 0, 45, 46
1, 416760, Note_on_c, 0, 45, 0
1, 416760, Note_on_c, 0, 57, 0
1, 416880, Tempo, 574163
1, 416880, Note_on_c, 0, 53, 55
1, 416880, Note_on_c, 0, 41, 52
1, 417120, Note_on_c, 0, 41, 0
1, 417120, Note_on_c, 0, 53, 0
1, 417840, Tempo, 659341
1, 417840, Note_on_c, 0, 46, 46
1, 417840, Note_on_c, 0, 34, 43
1, 418080, Tempo, 827586
1, 418080, Note_on_c, 0, 34, 0
1, 418080, Note_on_c, 0, 46, 0
1, 418080, Note_on_c, 0, 45, 45
1, 418080, Note_on_c, 0, 33, 43
1, 418320, Tempo, 685714
1, 418320, Note_on_c, 0, 33, 0
1, 418320, Note_on_c, 0, 45, 0
1, 418320, Note_on_c, 0, 41, 46
1, 418320, Note_on_c, 0, 29, 43
1, 419040, Note_on_c, 0, 29, 0
1, 419040, Note_on_c, 0, 41, 0
1, 419360, Tempo, 373832
1, 419760, Tempo, 449438
1, 419760, Marker_t, "Part 10"
1, 419760, Control_c, 0, 91, 127
1, 419760, Control_c, 0, 91, 127
1, 420240, Tempo, 428571
1, 420240, Note_on_c, 0, 57, 29
1, 420240, Note_on_c, 0, 45, 27
1, 420320, Note_on_c, 0, 45, 0
1, 420320, Note_on_c, 0, 57, 0
1, 420320, Note_on_c, 0, 58, 31
1, 420320, Note_on_c, 0, 46, 28
1, 420400, Note_on_c, 0, 46, 0
1, 420400, Note_on_c, 0, 58, 0
1, 420400, Note_on_c, 0, 61, 33
1, 420400, Note_on_c, 0, 49, 29
1, 420480, Tempo, 454545
1, 420480, Note_on_c, 0, 49, 0
1, 420480, Note_on_c, 0, 61, 0
1, 420480, Note_on_c, 0, 65, 37
1, 420480, Note_on_c, 0, 53, 33
1, 420600, Note_on_c, 0, 53, 0
1, 420600, Note_on_c, 0, 65, 0
1, 420960, Tempo, 428571
1, 420960, Note_on_c, 0, 57, 29
1, 420960, Note_on_c, 0, 45, 26
1, 421040, Note_on_c, 0, 45, 0
1, 421040, Note_on_c, 0, 57, 0
1, 421040, Note_on_c, 0, 58, 31
1, 421040, Note_on_c, 0, 46, 27
1, 421120, Note_on_c, 0, 46, 0
1, 421120, Note_on_c, 0, 58, 0
1, 421120, Note_on_c, 0, 61, 32
1, 421120, Note_on_c, 0, 49, 29
1, 421200, Tempo, 451128
1, 421200, Note_on_c, 0, 49, 0
1, 421200, Note_on_c, 0, 61, 0
1, 421200, Note_on_c, 0, 65, 43
1, 421200, Note_on_c, 0, 53, 38
1, 422640, Tempo, 375000
1, 422640, Note_on_c, 0, 53, 0
1, 422640, Note_on_c, 0, 65, 0
1, 422640, Note_on_c, 0, 58, 100
1, 422640, Note_on_c, 0, 34, 95
1, 422640, Note_on_c, 0, 46, 95
1, 422690, Control_c, 0, 64, 127
1, 422760, Note_on_c, 0, 46, 0
1, 422760, Note_on_c, 0, 34, 0
1, 422760, Note_on_c, 0, 58, 0
1, 423360, Note_on_c, 0, 94, 92
1, 423360, Note_on_c, 0, 90, 92
1, 423360, Note_on_c, 0, 82, 78
1, 423360, Note_on_c, 0, 58, 72
1, 423360, Note_on_c, 0, 60, 72
1, 423360, Note_on_c, 0, 63, 85
1, 423360, Note_on_c, 0, 66, 85
1, 423360, Note_on_c, 0, 70, 85
1, 424800, Note_on_c, 0, 70, 0
1, 424800, Note_on_c, 0, 94, 0
1, 424800, Note_on_c, 0, 60, 0
1, 424800, Note_on_c, 0, 90, 0
1, 424800, Note_on_c, 0, 82, 0
1, 424800, Note_on_c, 0, 58, 0
1, 424800, Note_on_c, 0, 63, 0
1, 424800, Note_on_c, 0, 66, 0
1, 424800, Note_on_c, 0, 75, 51
1, 424800, Note_on_c, 0, 84, 61
1, 424800, Note_on_c, 0, 87, 61
1, 424800, Note_on_c, 0, 58, 47
1, 424800, Note_on_c, 0, 60, 47
1, 424800, Note_on_c, 0, 63, 56
1, 424800, Note_on_c, 0, 66, 56
1, 424800, Note_on_c, 0, 70, 56
1, 425160, Note_on_c, 0, 70, 0
1, 425160, Note_on_c, 0, 75, 0
1, 425160, Note_on_c, 0, 60, 0
1, 425160, Note_on_c, 0, 84, 0
1, 425160, Note_on_c, 0, 87, 0
1, 425160, Note_on_c, 0, 58, 0
1, 425160, Note_on_c, 0, 63, 0
1, 425160, Note_on_c, 0, 66, 0
1, 425160, Note_on_c, 0, 77, 57
1, 425160, Note_on_c, 0, 84, 68
1, 425160, Note_on_c, 0, 89, 68
1, 425160, Note_on_c, 0, 58, 51
1, 425160, Note_on_c, 0, 60, 51
1, 425160, Note_on_c, 0, 63, 61
1, 425160, Note_on_c, 0, 66, 61
1, 425160, Note_on_c, 0, 70, 61
1, 425280, Tempo, 408163
1, 425280, Note_on_c, 0, 70, 0
1, 425280, Note_on_c, 0, 77, 0
1, 425280, Note_on_c, 0, 60, 0
1, 425280, Note_on_c, 0, 84, 0
1, 425280, Note_on_c, 0, 89, 0
1, 425280, Note_on_c, 0, 58, 0
1, 425280, Note_on_c, 0, 63, 0
1, 425280, Note_on_c, 0, 66, 0
1, 425280, Note_on_c, 0, 78, 60
1, 425280, Note_on_c, 0, 84, 71
1, 425280, Note_on_c, 0, 90, 71
1, 425280, Note_on_c, 0, 58, 56
1, 425280, Note_on_c, 0, 60, 56
1, 425280, Note_on_c, 0, 63, 66
1, 425280, Note_on_c, 0, 66, 66
1, 425280, Note_on_c, 0, 70, 66
1, 425520, Note_on_c, 0, 70, 0
1, 425520, Note_on_c, 0, 78, 0
1, 425520, Note_on_c, 0, 60, 0
1, 425520, Note_on_c, 0, 84, 0
1, 425520, Note_on_c, 0, 90, 0
1, 425520, Note_on_c, 0, 58, 0
1, 425520, Note_on_c, 0, 63, 0
1, 425520, Note_on_c, 0, 66, 0
1, 425520, Note_on_c, 0, 77, 57
1, 425520, Note_on_c, 0, 85, 68
1, 425520, Note_on_c, 0, 89, 68
1, 425520, Control_c, 0, 64, 0
1, 425520, Note_on_c, 0, 58, 52
1, 425520, Note_on_c, 0, 61, 52
1, 425520, Note_on_c, 0, 65, 62
1, 425520, Note_on_c, 0, 70, 62
1, 425760, Note_on_c, 0, 70, 0
1, 425760, Note_on_c, 0, 61, 0
1, 425760, Note_on_c, 0, 85, 0
1, 425760, Note_on_c, 0, 89, 0
1, 425760, Note_on_c, 0, 77, 0
1, 425760, Note_on_c, 0, 65, 0
1, 425760, Note_on_c, 0, 58, 0
1, 426000, Note_on_c, 0, 57, 27
1, 426000, Note_on_c, 0, 45, 27
1, 426080, Note_on_c, 0, 45, 0
1, 426080, Note_on_c, 0, 57, 0
1, 426080, Note_on_c, 0, 58, 29
1, 426080, Note_on_c, 0, 46, 28
1, 426160, Note_on_c, 0, 46, 0
1, 426160, Note_on_c, 0, 58, 0
1, 426160, Note_on_c, 0, 61, 30
1, 426160, Note_on_c, 0, 49, 30
1, 426240, Note_on_c, 0, 49, 0
1, 426240, Note_on_c, 0, 61, 0
1, 426240, Note_on_c, 0, 65, 35
1, 426240, Note_on_c, 0, 53, 33
1, 426360, Note_on_c, 0, 53, 0
1, 426360, Note_on_c, 0, 65, 0
1, 426720, Note_on_c, 0, 57, 27
1, 426720, Note_on_c, 0, 45, 26
1, 426800, Note_on_c, 0, 45, 0
1, 426800, Note_on_c, 0, 57, 0
1, 426800, Note_on_c, 0, 58, 29
1, 426800, Note_on_c, 0, 46, 28
1, 426880, Note_on_c, 0, 46, 0
1, 426880, Note_on_c, 0, 58, 0
1, 426880, Note_on_c, 0, 61, 30
1, 426880, Note_on_c, 0, 49, 30
1, 426960, Tempo, 377358
1, 426960, Note_on_c, 0, 49, 0
1, 426960, Note_on_c, 0, 61, 0
1, 426960, Note_on_c, 0, 65, 39
1, 426960, Note_on_c, 0, 53, 37
1, 428400, Tempo, 347826
1, 428400, Note_on_c, 0, 53, 0
1, 428400, Note_on_c, 0, 65, 0
1, 428400, Note_on_c, 0, 56, 100
1, 428400, Note_on_c, 0, 32, 95
1, 428400, Note_on_c, 0, 44, 95
1, 428450, Control_c, 0, 64, 127
1, 428520, Note_on_c, 0, 44, 0
1, 428520, Note_on_c, 0, 32, 0
1, 428520, Note_on_c, 0, 56, 0
1, 429060, Note_on_c, 0, 56, 75
1, 429090, Note_on_c, 0, 65, 89
1, 429120, Note_on_c, 0, 92, 90
1, 429120, Note_on_c, 0, 89, 90
1, 429120, Note_on_c, 0, 80, 76
1, 429120, Note_on_c, 0, 73, 89
1, 430560, Note_on_c, 0, 73, 0
1, 430560, Note_on_c, 0, 65, 0
1, 430560, Note_on_c, 0, 92, 0
1, 430560, Note_on_c, 0, 56, 0
1, 430560, Note_on_c, 0, 80, 0
1, 430560, Note_on_c, 0, 89, 0
1, 430560, Note_on_c, 0, 75, 51
1, 430560, Note_on_c, 0, 84, 60
1, 430560, Note_on_c, 0, 87, 60
1, 430560, Note_on_c, 0, 56, 49
1, 430560, Note_on_c, 0, 63, 58
1, 430560, Note_on_c, 0, 66, 58
1, 430560, Note_on_c, 0, 68, 58
1, 430920, Tempo, 362538
1, 430920, Note_on_c, 0, 68, 0
1, 430920, Note_on_c, 0, 63, 0
1, 430920, Note_on_c, 0, 84, 0
1, 430920, Note_on_c, 0, 87, 0
1, 430920, Note_on_c, 0, 75, 0
1, 430920, Note_on_c, 0, 66, 0
1, 430920, Note_on_c, 0, 56, 0
1, 430920, Note_on_c, 0, 77, 55
1, 430920, Note_on_c, 0, 84, 65
1, 430920, Note_on_c, 0, 89, 65
1, 430920, Note_on_c, 0, 56, 53
1, 430920, Note_on_c, 0, 63, 63
1, 430920, Note_on_c, 0, 66, 63
1, 430920, Note_on_c, 0, 68, 63
1, 431040, Tempo, 387097
1, 431040, Note_on_c, 0, 68, 0
1, 431040, Note_on_c, 0, 63, 0
1, 431040, Note_on_c, 0, 84, 0
1, 431040, Note_on_c, 0, 89, 0
1, 431040, Note_on_c, 0, 77, 0
1, 431040, Note_on_c, 0, 66, 0
1, 431040, Note_on_c, 0, 56, 0
1, 431040, Note_on_c, 0, 78, 59
1, 431040, Note_on_c, 0, 84, 70
1, 431040, Note_on_c, 0, 90, 70
1, 431040, Note_on_c, 0, 56, 57
1, 431040, Note_on_c, 0, 63, 68
1, 431040, Note_on_c, 0, 66, 68
1, 431040, Note_on_c, 0, 68, 68
1, 431280, Tempo, 347826
1, 431280, Note_on_c, 0, 68, 0
1, 431280, Note_on_c, 0, 63, 0
1, 431280, Note_on_c, 0, 84, 0
1, 431280, Note_on_c, 0, 90, 0
1, 431280, Note_on_c, 0, 78, 0
1, 431280, Note_on_c, 0, 66, 0
1, 431280, Note_on_c, 0, 56, 0
1, 431280, Note_on_c, 0, 77, 56
1, 431280, Note_on_c, 0, 85, 67
1, 431280, Note_on_c, 0, 89, 67
1, 431280, Note_on_c, 0, 68, 65
1, 431280, Note_on_c, 0, 61, 55
1, 431280, Note_on_c, 0, 65, 65
1, 431285, Control_c, 0, 64, 0
1, 431520, Note_on_c, 0, 65, 0
1, 431520, Note_on_c, 0, 85, 0
1, 431520, Note_on_c, 0, 89, 0
1, 431520, Note_on_c, 0, 77, 0
1, 431520, Note_on_c, 0, 61, 0
1, 431520, Note_on_c, 0, 68, 0
1, 432000, Note_on_c, 0, 69, 81
1, 432000, Note_on_c, 0, 77, 81
1, 432000, Control_c, 0, 64, 127
1, 432000, Note_on_c, 0, 65, 77
1, 432000, Note_on_c, 0, 60, 77
1, 432000, Note_on_c, 0, 53, 65
1, 432480, Note_on_c, 0, 53, 0
1, 432480, Note_on_c, 0, 65, 0
1, 432480, Note_on_c, 0, 69, 0
1, 432480, Note_on_c, 0, 77, 0
1, 432480, Note_on_c, 0, 60, 0
1, 432720, Tempo, 378549
1, 432720, Note_on_c, 0, 57, 81
1, 432720, Note_on_c, 0, 65, 81
1, 432720, Note_on_c, 0, 41, 65
1, 432720, Note_on_c, 0, 48, 77
1, 432720, Note_on_c, 0, 53, 77
1, 433200, Note_on_c, 0, 53, 0
1, 433200, Note_on_c, 0, 41, 0
1, 433200, Note_on_c, 0, 57, 0
1, 433200, Note_on_c, 0, 65, 0
1, 433200, Note_on_c, 0, 48, 0
1, 433200, Control_c, 0, 64, 0
1, 433440, Tempo, 394737
1, 433440, Note_on_c, 0, 29, 79
1, 433440, Note_on_c, 0, 41, 94
1, 435120, Note_on_c, 0, 41, 0
1, 435120, Note_on_c, 0, 29, 0
1, 435120, Note_on_c, 0, 30, 82
1, 435120, Note_on_c, 0, 42, 97
1, 435300, Note_on_c, 0, 42, 0
1, 435300, Note_on_c, 0, 30, 0
1, 437040, Tempo, 413793
1, 437040, Control_c, 0, 91, 127
1, 437040, Control_c, 0, 91, 127
1, 437520, Note_on_c, 0, 57, 27
1, 437520, Note_on_c, 0, 45, 27
1, 437600, Note_on_c, 0, 45, 0
1, 437600, Note_on_c, 0, 57, 0
1, 437600, Note_on_c, 0, 58, 29
1, 437600, Note_on_c, 0, 46, 28
1, 437680, Note_on_c, 0, 46, 0
1, 437680, Note_on_c, 0, 58, 0
1, 437680, Note_on_c, 0, 61, 30
1, 437680, Note_on_c, 0, 49, 29
1, 437760, Note_on_c, 0, 49, 0
1, 437760, Note_on_c, 0, 61, 0
1, 437760, Note_on_c, 0, 65, 34
1, 437760, Note_on_c, 0, 53, 33
1, 437880, Note_on_c, 0, 53, 0
1, 437880, Note_on_c, 0, 65, 0
1, 438240, Note_on_c, 0, 57, 29
1, 438240, Note_on_c, 0, 45, 27
1, 438320, Note_on_c, 0, 45, 0
1, 438320, Note_on_c, 0, 57, 0
1, 438320, Note_on_c, 0, 58, 30
1, 438320, Note_on_c, 0, 46, 28
1, 438400, Note_on_c, 0, 46, 0
1, 438400, Note_on_c, 0, 58, 0
1, 438400, Note_on_c, 0, 61, 31
1, 438400, Note_on_c, 0, 49, 29
1, 438480, Note_on_c, 0, 49, 0
1, 438480, Note_on_c, 0, 61, 0
1, 438480, Note_on_c, 0, 65, 39
1, 438480, Note_on_c, 0, 53, 37
1, 439920, Tempo, 375000
1, 439920, Note_on_c, 0, 53, 0
1, 439920, Note_on_c, 0, 65, 0
1, 439920, Note_on_c, 0, 58, 100
1, 439920, Note_on_c, 0, 46, 95
1, 439920, Note_on_c, 0, 34, 95
1, 440012, Control_c, 0, 64, 127
1, 440040, Note_on_c, 0, 34, 0
1, 440040, Note_on_c, 0, 46, 0
1, 440040, Note_on_c, 0, 58, 0
1, 440640, Note_on_c, 0, 82, 78
1, 440640, Note_on_c, 0, 90, 92
1, 440640, Note_on_c, 0, 94, 92
1, 440640, Note_on_c, 0, 63, 85
1, 440640, Note_on_c, 0, 58, 72
1, 440640, Note_on_c, 0, 60, 72
1, 440640, Note_on_c, 0, 70, 85
1, 440640, Note_on_c, 0, 66, 85
1, 441720, Note_on_c, 0, 66, 0
1, 441720, Note_on_c, 0, 82, 0
1, 441720, Note_on_c, 0, 58, 0
1, 441720, Note_on_c, 0, 90, 0
1, 441720, Note_on_c, 0, 94, 0
1, 441720, Note_on_c, 0, 63, 0
1, 441720, Note_on_c, 0, 60, 0
1, 441720, Note_on_c, 0, 70, 0
1, 441720, Note_on_c, 0, 87, 58
1, 441720, Note_on_c, 0, 84, 58
1, 441720, Note_on_c, 0, 75, 49
1, 441720, Note_on_c, 0, 58, 47
1, 441720, Note_on_c, 0, 60, 47
1, 441720, Note_on_c, 0, 63, 56
1, 441720, Note_on_c, 0, 66, 56
1, 441720, Note_on_c, 0, 70, 56
1, 441840, Note_on_c, 0, 70, 0
1, 441840, Note_on_c, 0, 87, 0
1, 441840, Note_on_c, 0, 60, 0
1, 441840, Note_on_c, 0, 84, 0
1, 441840, Note_on_c, 0, 75, 0
1, 441840, Note_on_c, 0, 58, 0
1, 441840, Note_on_c, 0, 63, 0
1, 441840, Note_on_c, 0, 66, 0
1, 441840, Note_on_c, 0, 87, 58
1, 441840, Note_on_c, 0, 84, 58
1, 441840, Note_on_c, 0, 75, 49
1, 441840, Note_on_c, 0, 58, 47
1, 441840, Note_on_c, 0, 60, 47
1, 441840, Note_on_c, 0, 63, 56
1, 441840, Note_on_c, 0, 66, 56
1, 441840, Note_on_c, 0, 70, 56
1, 442080, Note_on_c, 0, 70, 0
1, 442080, Note_on_c, 0, 87, 0
1, 442080, Note_on_c, 0, 60, 0
1, 442080, Note_on_c, 0, 84, 0
1, 442080, Note_on_c, 0, 75, 0
1, 442080, Note_on_c, 0, 58, 0
1, 442080, Note_on_c, 0, 63, 0
1, 442080, Note_on_c, 0, 66, 0
1, 442080, Note_on_c, 0, 75, 51
1, 442080, Note_on_c, 0, 84, 61
1, 442080, Note_on_c, 0, 87, 61
1, 442080, Note_on_c, 0, 63, 56
1, 442080, Note_on_c, 0, 58, 47
1, 442080, Note_on_c, 0, 60, 47
1, 442080, Note_on_c, 0, 66, 56
1, 442080, Note_on_c, 0, 70, 56
1, 442440, Note_on_c, 0, 70, 0
1, 442440, Note_on_c, 0, 75, 0
1, 442440, Note_on_c, 0, 58, 0
1, 442440, Note_on_c, 0, 84, 0
1, 442440, Note_on_c, 0, 87, 0
1, 442440, Note_on_c, 0, 63, 0
1, 442440, Note_on_c, 0, 60, 0
1, 442440, Note_on_c, 0, 66, 0
1, 442440, Note_on_c, 0, 84, 68
1, 442440, Note_on_c, 0, 89, 68
1, 442440, Note_on_c, 0, 77, 57
1, 442440, Note_on_c, 0, 60, 51
1, 442440, Note_on_c, 0, 63, 61
1, 442440, Note_on_c, 0, 58, 51
1, 442440, Note_on_c, 0, 66, 61
1, 442440, Note_on_c, 0, 70, 61
1, 442560, Tempo, 408163
1, 442560, Note_on_c, 0, 70, 0
1, 442560, Note_on_c, 0, 84, 0
1, 442560, Note_on_c, 0, 63, 0
1, 442560, Note_on_c, 0, 89, 0
1, 442560, Note_on_c, 0, 77, 0
1, 442560, Note_on_c, 0, 60, 0
1, 442560, Note_on_c, 0, 58, 0
1, 442560, Note_on_c, 0, 66, 0
1, 442560, Note_on_c, 0, 84, 71
1, 442560, Note_on_c, 0, 78, 60
1, 442560, Note_on_c, 0, 90, 71
1, 442560, Note_on_c, 0, 63, 66
1, 442560, Note_on_c, 0, 66, 66
1, 442560, Note_on_c, 0, 58, 56
1, 442560, Note_on_c, 0, 60, 56
1, 442560, Note_on_c, 0, 70, 66
1, 442800, Note_on_c, 0, 70, 0
1, 442800, Note_on_c, 0, 84, 0
1, 442800, Note_on_c, 0, 66, 0
1, 442800, Note_on_c, 0, 78, 0
1, 442800, Note_on_c, 0, 90, 0
1, 442800, Note_on_c, 0, 63, 0
1, 442800, Note_on_c, 0, 58, 0
1, 442800, Note_on_c, 0, 60, 0
1, 442800, Note_on_c, 0, 85, 68
1, 442800, Note_on_c, 0, 77, 57
1, 442800, Note_on_c, 0, 89, 68
1, 442800, Note_on_c, 0, 65, 62
1, 442800, Note_on_c, 0, 58, 52
1, 442800, Note_on_c, 0, 61, 62
1, 442800, Note_on_c, 0, 70, 62
1, 442806, Control_c, 0, 64, 0
1, 443040, Note_on_c, 0, 70, 0
1, 443040, Note_on_c, 0, 58, 0
1, 443040, Note_on_c, 0, 77, 0
1, 443040, Note_on_c, 0, 89, 0
1, 443040, Note_on_c, 0, 85, 0
1, 443040, Note_on_c, 0, 61, 0
1, 443040, Note_on_c, 0, 65, 0
1, 443280, Note_on_c, 0, 57, 29
1, 443280, Note_on_c, 0, 45, 27
1, 443360, Note_on_c, 0, 45, 0
1, 443360, Note_on_c, 0, 57, 0
1, 443360, Note_on_c, 0, 58, 30
1, 443360, Note_on_c, 0, 46, 29
1, 443440, Note_on_c, 0, 46, 0
1, 443440, Note_on_c, 0, 58, 0
1, 443440, Note_on_c, 0, 61, 32
1, 443440, Note_on_c, 0, 49, 30
1, 443520, Note_on_c, 0, 49, 0
1, 443520, Note_on_c, 0, 61, 0
1, 443520, Note_on_c, 0, 65, 37
1, 443520, Note_on_c, 0, 53, 34
1, 443640, Note_on_c, 0, 53, 0
1, 443640, Note_on_c, 0, 65, 0
1, 444000, Note_on_c, 0, 57, 29
1, 444000, Note_on_c, 0, 45, 24
1, 444080, Note_on_c, 0, 45, 0
1, 444080, Note_on_c, 0, 57, 0
1, 444080, Note_on_c, 0, 58, 30
1, 444080, Note_on_c, 0, 46, 26
1, 444160, Note_on_c, 0, 46, 0
1, 444160, Note_on_c, 0, 58, 0
1, 444160, Note_on_c, 0, 61, 32
1, 444160, Note_on_c, 0, 49, 27
1, 444240, Tempo, 377358
1, 444240, Note_on_c, 0, 49, 0
1, 444240, Note_on_c, 0, 61, 0
1, 444240, Note_on_c, 0, 65, 39
1, 444240, Note_on_c, 0, 53, 37
1, 444960, Tempo, 334262
1, 445680, Note_on_c, 0, 53, 0
1, 445680, Note_on_c, 0, 65, 0
1, 445680, Note_on_c, 0, 48, 100
1, 445680, Note_on_c, 0, 24, 95
1, 445680, Note_on_c, 0, 36, 95
1, 445737, Control_c, 0, 64, 127
1, 445800, Note_on_c, 0, 36, 0
1, 445800, Note_on_c, 0, 24, 0
1, 445800, Note_on_c, 0, 48, 0
1, 446400, Note_on_c, 0, 84, 76
1, 446400, Note_on_c, 0, 92, 90
1, 446400, Note_on_c, 0, 96, 90
1, 446400, Note_on_c, 0, 68, 89
1, 446400, Note_on_c, 0, 72, 89
1, 446400, Note_on_c, 0, 65, 75
1, 446400, Note_on_c, 0, 60, 75
1, 447840, Note_on_c, 0, 60, 0
1, 447840, Note_on_c, 0, 72, 0
1, 447840, Note_on_c, 0, 92, 0
1, 447840, Note_on_c, 0, 96, 0
1, 447840, Note_on_c, 0, 84, 0
1, 447840, Note_on_c, 0, 65, 0
1, 447840, Note_on_c, 0, 68, 0
1, 447840, Note_on_c, 0, 91, 60
1, 447840, Note_on_c, 0, 88, 60
1, 447840, Note_on_c, 0, 79, 51
1, 447840, Note_on_c, 0, 60, 49
1, 447840, Note_on_c, 0, 70, 58
1, 447840, Note_on_c, 0, 64, 58
1, 447840, Note_on_c, 0, 72, 58
1, 448200, Tempo, 362538
1, 448200, Note_on_c, 0, 72, 0
1, 448200, Note_on_c, 0, 70, 0
1, 448200, Note_on_c, 0, 88, 0
1, 448200, Note_on_c, 0, 79, 0
1, 448200, Note_on_c, 0, 91, 0
1, 448200, Note_on_c, 0, 64, 0
1, 448200, Note_on_c, 0, 60, 0
1, 448200, Note_on_c, 0, 80, 55
1, 448200, Note_on_c, 0, 88, 65
1, 448200, Note_on_c, 0, 92, 65
1, 448200, Note_on_c, 0, 64, 63
1, 448200, Note_on_c, 0, 60, 53
1, 448200, Note_on_c, 0, 72, 63
1, 448200, Note_on_c, 0, 70, 63
1, 448320, Tempo, 387097
1, 448320, Note_on_c, 0, 70, 0
1, 448320, Note_on_c, 0, 60, 0
1, 448320, Note_on_c, 0, 88, 0
1, 448320, Note_on_c, 0, 92, 0
1, 448320, Note_on_c, 0, 80, 0
1, 448320, Note_on_c, 0, 72, 0
1, 448320, Note_on_c, 0, 64, 0
1, 448320, Note_on_c, 0, 82, 59
1, 448320, Note_on_c, 0, 88, 70
1, 448320, Note_on_c, 0, 94, 70
1, 448320, Note_on_c, 0, 70, 68
1, 448320, Note_on_c, 0, 60, 57
1, 448320, Note_on_c, 0, 64, 68
1, 448320, Note_on_c, 0, 72, 68
1, 448560, Tempo, 347826
1, 448560, Note_on_c, 0, 72, 0
1, 448560, Note_on_c, 0, 60, 0
1, 448560, Note_on_c, 0, 88, 0
1, 448560, Note_on_c, 0, 94, 0
1, 448560, Note_on_c, 0, 82, 0
1, 448560, Note_on_c, 0, 64, 0
1, 448560, Note_on_c, 0, 70, 0
1, 448560, Note_on_c, 0, 92, 67
1, 448560, Note_on_c, 0, 89, 67
1, 448560, Note_on_c, 0, 80, 56
1, 448560, Note_on_c, 0, 72, 65
1, 448560, Note_on_c, 0, 65, 55
1, 448560, Note_on_c, 0, 68, 65
1, 448568, Control_c, 0, 64, 0
1, 448800, Note_on_c, 0, 68, 0
1, 448800, Note_on_c, 0, 89, 0
1, 448800, Note_on_c, 0, 80, 0
1, 448800, Note_on_c, 0, 92, 0
1, 448800, Note_on_c, 0, 65, 0
1, 448800, Note_on_c, 0, 72, 0
1, 449280, Tempo, 362538
1, 449280, Note_on_c, 0, 72, 81
1, 449280, Note_on_c, 0, 80, 81
1, 449280, Note_on_c, 0, 68, 68
1, 449280, Note_on_c, 0, 77, 81
1, 449280, Note_on_c, 0, 53, 65
1, 449280, Note_on_c, 0, 65, 77
1, 449280, Control_c, 0, 64, 127
1, 449280, Note_on_c, 0, 60, 77
1, 449760, Note_on_c, 0, 60, 0
1, 449760, Note_on_c, 0, 53, 0
1, 449760, Note_on_c, 0, 80, 0
1, 449760, Note_on_c, 0, 68, 0
1, 449760, Note_on_c, 0, 72, 0
1, 449760, Note_on_c, 0, 65, 0
1, 449760, Note_on_c, 0, 77, 0
1, 450000, Tempo, 422535
1, 450000, Note_on_c, 0, 60, 81
1, 450000, Note_on_c, 0, 68, 81
1, 450000, Note_on_c, 0, 56, 68
1, 450000, Note_on_c, 0, 65, 81
1, 450000, Note_on_c, 0, 53, 77
1, 450000, Note_on_c, 0, 48, 77
1, 450000, Note_on_c, 0, 41, 65
1, 450480, Note_on_c, 0, 41, 0
1, 450480, Note_on_c, 0, 53, 0
1, 450480, Note_on_c, 0, 68, 0
1, 450480, Note_on_c, 0, 56, 0
1, 450480, Note_on_c, 0, 60, 0
1, 450480, Note_on_c, 0, 48, 0
1, 450480, Note_on_c, 0, 65, 0
1, 450480, Control_c, 0, 64, 0
1, 450720, Tempo, 394737
1, 450720, Note_on_c, 0, 28, 79
1, 450720, Note_on_c, 0, 40, 94
1, 452160, Tempo, 502092
1, 452160, Note_on_c, 0, 40, 0
1, 452160, Note_on_c, 0, 28, 0
1, 452160, Note_on_c, 0, 41, 94
1, 452160, Note_on_c, 0, 29, 94
1, 452865, Tempo, 528634
1, 452880, Note_on_c, 0, 29, 0
1, 452880, Note_on_c, 0, 41, 0
1, 452880, Note_on_c, 0, 38, 50
1, 452880, Note_on_c, 0, 26, 45
1, 452895, Tempo, 526316
1, 452910, Tempo, 524017
1, 452925, Tempo, 521739
1, 452955, Tempo, 519481
1, 452960, Note_on_c, 0, 39, 51
1, 452960, Note_on_c, 0, 27, 45
1, 452970, Tempo, 517241
1, 452970, Note_on_c, 0, 26, 0
1, 452970, Note_on_c, 0, 38, 0
1, 452985, Tempo, 515021
1, 453015, Tempo, 512821
1, 453030, Tempo, 510638
1, 453040, Note_on_c, 0, 41, 51
1, 453040, Note_on_c, 0, 29, 45
1, 453045, Tempo, 508475
1, 453050, Note_on_c, 0, 39, 0
1, 453050, Note_on_c, 0, 27, 0
1, 453075, Tempo, 506329
1, 453090, Tempo, 504202
1, 453105, Tempo, 502092
1, 453120, Tempo, 500000
1, 453120, Note_on_c, 0, 39, 52
1, 453120, Note_on_c, 0, 27, 46
1, 453130, Note_on_c, 0, 41, 0
1, 453130, Note_on_c, 0, 29, 0
1, 453135, Tempo, 497925
1, 453150, Tempo, 495868
1, 453165, Tempo, 493827
1, 453180, Tempo, 491803
1, 453195, Tempo, 489796
1, 453200, Note_on_c, 0, 39, 0
1, 453200, Note_on_c, 0, 41, 53
1, 453200, Note_on_c, 0, 29, 47
1, 453210, Tempo, 487805
1, 453210, Note_on_c, 0, 27, 0
1, 453225, Tempo, 485830
1, 453240, Tempo, 483871
1, 453255, Tempo, 481928
1, 453280, Note_on_c, 0, 29, 0
1, 453280, Note_on_c, 0, 39, 55
1, 453280, Note_on_c, 0, 27, 49
1, 453285, Tempo, 483871
1, 453290, Note_on_c, 0, 41, 0
1, 453315, Tempo, 485830
1, 453345, Tempo, 487805
1, 453357, Note_on_c, 0, 41, 56
1, 453360, Tempo, 489796
1, 453360, Note_on_c, 0, 29, 50
1, 453370, Note_on_c, 0, 27, 0
1, 453370, Note_on_c, 0, 39, 0
1, 453390, Tempo, 491803
1, 453420, Tempo, 493827
1, 453435, Tempo, 495868
1, 453440, Note_on_c, 0, 39, 56
1, 453440, Note_on_c, 0, 27, 51
1, 453447, Note_on_c, 0, 41, 0
1, 453450, Tempo, 493827
1, 453450, Note_on_c, 0, 29, 0
1, 453520, Note_on_c, 0, 41, 57
1, 453520, Note_on_c, 0, 29, 51
1, 453525, Tempo, 495868
1, 453530, Note_on_c, 0, 39, 0
1, 453530, Note_on_c, 0, 27, 0
1, 453600, Tempo, 497925
1, 453600, Note_on_c, 0, 39, 58
1, 453600, Note_on_c, 0, 27, 52
1, 453610, Note_on_c, 0, 41, 0
1, 453610, Note_on_c, 0, 29, 0
1, 453660, Note_on_c, 0, 41, 59
1, 453660, Note_on_c, 0, 29, 53
1, 453670, Note_on_c, 0, 39, 0
1, 453670, Note_on_c, 0, 27, 0
1, 453720, Note_on_c, 0, 39, 60
1, 453720, Note_on_c, 0, 27, 53
1, 453730, Note_on_c, 0, 41, 0
1, 453730, Note_on_c, 0, 29, 0
1, 453780, Note_on_c, 0, 41, 61
1, 453780, Note_on_c, 0, 29, 54
1, 453790, Note_on_c, 0, 39, 0
1, 453790, Note_on_c, 0, 27, 0
1, 453837, Note_on_c, 0, 39, 62
1, 453840, Tempo, 502092
1, 453840, Note_on_c, 0, 27, 55
1, 453850, Note_on_c, 0, 41, 0
1, 453850, Note_on_c, 0, 29, 0
1, 453860, Tempo, 506329
1, 453880, Tempo, 512821
1, 453897, Note_on_c, 0, 39, 0
1, 453900, Tempo, 519481
1, 453900, Note_on_c, 0, 41, 62
1, 453900, Note_on_c, 0, 29, 55
1, 453910, Note_on_c, 0, 27, 0
1, 453920, Tempo, 526316
1, 453940, Tempo, 533333
1, 453960, Tempo, 538117
1, 453960, Note_on_c, 0, 39, 62
1, 453960, Note_on_c, 0, 27, 56
1, 453970, Note_on_c, 0, 29, 0
1, 453970, Note_on_c, 0, 41, 0
1, 453980, Tempo, 545455
1, 454000, Tempo, 552995
1, 454020, Tempo, 560748
1, 454020, Note_on_c, 0, 41, 63
1, 454020, Note_on_c, 0, 29, 56
1, 454030, Note_on_c, 0, 39, 0
1, 454030, Note_on_c, 0, 27, 0
1, 454040, Tempo, 568720
1, 454060, Tempo, 574163
1, 454080, Tempo, 582524
1, 454080, Note_on_c, 0, 39, 64
1, 454080, Note_on_c, 0, 27, 59
1, 454090, Note_on_c, 0, 41, 0
1, 454090, Note_on_c, 0, 29, 0
1, 454100, Tempo, 591133
1, 454120, Tempo, 600000
1, 454140, Tempo, 609137
1, 454160, Tempo, 1188119
1, 454160, Note_on_c, 0, 38, 73
1, 454160, Note_on_c, 0, 26, 73
1, 454170, Note_on_c, 0, 39, 0
1, 454170, Note_on_c, 0, 27, 0
1, 454240, Note_on_c, 0, 39, 73
1, 454240, Note_on_c, 0, 27, 73
1, 454250, Note_on_c, 0, 38, 0
1, 454250, Note_on_c, 0, 26, 0
1, 454320, Tempo, 506329
1, 454320, Note_on_c, 0, 101, 97
1, 454320, Control_c, 0, 91, 127
1, 454320, Control_c, 0, 91, 127
1, 454320, Note_on_c, 0, 25, 74
1, 454320, Note_on_c, 0, 37, 88
1, 454330, Note_on_c, 0, 39, 0
1, 454330, Note_on_c, 0, 27, 0
1, 454440, Note_on_c, 0, 25, 0
1, 454440, Note_on_c, 0, 37, 0
1, 454454, Control_c, 0, 64, 127
1, 454800, Tempo, 451128
1, 454800, Note_on_c, 0, 44, 45
1, 454800, Note_on_c, 0, 56, 45
1, 455040, Note_on_c, 0, 56, 0
1, 455040, Note_on_c, 0, 44, 0
1, 455040, Note_on_c, 0, 61, 53
1, 455040, Note_on_c, 0, 53, 53
1, 455280, Tempo, 353982
1, 455280, Note_on_c, 0, 53, 0
1, 455280, Note_on_c, 0, 61, 0
1, 455280, Note_on_c, 0, 101, 0
1, 455280, Note_on_c, 0, 99, 68
1, 455400, Note_on_c, 0, 99, 0
1, 455400, Note_on_c, 0, 97, 62
1, 455520, Note_on_c, 0, 97, 0
1, 455520, Note_on_c, 0, 92, 65
1, 455520, Note_on_c, 0, 44, 42
1, 455520, Note_on_c, 0, 56, 42
1, 455640, Note_on_c, 0, 92, 0
1, 455640, Note_on_c, 0, 89, 60
1, 455760, Note_on_c, 0, 89, 0
1, 455760, Note_on_c, 0, 56, 0
1, 455760, Note_on_c, 0, 44, 0
1, 455760, Note_on_c, 0, 87, 62
1, 455760, Note_on_c, 0, 53, 47
1, 455760, Note_on_c, 0, 61, 47
1, 455880, Note_on_c, 0, 87, 0
1, 455880, Note_on_c, 0, 85, 57
1, 456000, Note_on_c, 0, 85, 0
1, 456000, Note_on_c, 0, 61, 0
1, 456000, Note_on_c, 0, 53, 0
1, 456000, Note_on_c, 0, 80, 58
1, 456120, Note_on_c, 0, 80, 0
1, 456120, Note_on_c, 0, 77, 52
1, 456240, Note_on_c, 0, 77, 0
1, 456240, Note_on_c, 0, 75, 55
1, 456360, Note_on_c, 0, 75, 0
1, 456360, Note_on_c, 0, 73, 51
1, 456480, Note_on_c, 0, 73, 0
1, 456480, Note_on_c, 0, 68, 52
1, 456486, Control_c, 0, 64, 0
1, 456720, Note_on_c, 0, 68, 0
1, 457200, Tempo, 355030
1, 457200, Note_on_c, 0, 72, 55
1, 457200, Control_c, 0, 64, 127
1, 457200, Note_on_c, 0, 32, 52
1, 457200, Note_on_c, 0, 44, 52
1, 457280, Tempo, 356083
1, 457320, Note_on_c, 0, 44, 0
1, 457320, Note_on_c, 0, 32, 0
1, 457320, Note_on_c, 0, 72, 0
1, 457320, Note_on_c, 0, 73, 52
1, 457360, Tempo, 357143
1, 457440, Tempo, 358209
1, 457440, Note_on_c, 0, 73, 0
1, 457440, Note_on_c, 0, 75, 50
1, 457520, Tempo, 359281
1, 457560, Note_on_c, 0, 75, 0
1, 457560, Note_on_c, 0, 77, 47
1, 457600, Tempo, 360360
1, 457680, Tempo, 361446
1, 457680, Note_on_c, 0, 77, 0
1, 457680, Note_on_c, 0, 78, 45
1, 457760, Tempo, 362538
1, 457793, Note_on_c, 0, 80, 42
1, 457800, Note_on_c, 0, 78, 0
1, 457840, Tempo, 363636
1, 457908, Tempo, 364742
1, 457913, Note_on_c, 0, 80, 0
1, 457920, Tempo, 436364
1, 457920, Note_on_c, 0, 81, 40
1, 457920, Control_c, 0, 64, 0
1, 457920, Note_on_c, 0, 66, 38
1, 457920, Note_on_c, 0, 55, 38
1, 457920, Note_on_c, 0, 60, 38
1, 458040, Note_on_c, 0, 81, 0
1, 458160, Tempo, 394737
1, 458160, Note_on_c, 0, 66, 0
1, 458160, Note_on_c, 0, 55, 0
1, 458160, Note_on_c, 0, 60, 0
1, 458160, Note_on_c, 0, 56, 35
1, 458160, Note_on_c, 0, 60, 35
1, 458160, Note_on_c, 0, 66, 35
1, 458400, Note_on_c, 0, 66, 0
1, 458400, Note_on_c, 0, 60, 0
1, 458400, Note_on_c, 0, 56, 0
1, 458400, Note_on_c, 0, 66, 31
1, 458400, Note_on_c, 0, 56, 31
1, 458400, Note_on_c, 0, 60, 31
1, 458520, Note_on_c, 0, 60, 0
1, 458520, Note_on_c, 0, 56, 0
1, 458520, Note_on_c, 0, 66, 0
1, 458640, Tempo, 361446
1, 458640, Note_on_c, 0, 81, 50
1, 458720, Tempo, 360360
1, 458760, Note_on_c, 0, 81, 0
1, 458760, Note_on_c, 0, 80, 49
1, 458800, Tempo, 359281
1, 458880, Tempo, 358209
1, 458880, Note_on_c, 0, 80, 0
1, 458880, Note_on_c, 0, 79, 47
1, 458960, Tempo, 357143
1, 459000, Note_on_c, 0, 79, 0
1, 459000, Note_on_c, 0, 78, 46
1, 459040, Tempo, 356083
1, 459120, Tempo, 355030
1, 459120, Note_on_c, 0, 78, 0
1, 459120, Note_on_c, 0, 77, 44
1, 459200, Tempo, 353982
1, 459240, Note_on_c, 0, 77, 0
1, 459240, Note_on_c, 0, 76, 42
1, 459280, Tempo, 352941
1, 459348, Tempo, 351906
1, 459360, Tempo, 430108
1, 459360, Note_on_c, 0, 76, 0
1, 459360, Note_on_c, 0, 75, 41
1, 459360, Note_on_c, 0, 57, 35
1, 459360, Note_on_c, 0, 60, 35
1, 459360, Note_on_c, 0, 66, 35
1, 459480, Note_on_c, 0, 75, 0
1, 459600, Tempo, 394737
1, 459600, Note_on_c, 0, 57, 0
1, 459600, Note_on_c, 0, 60, 0
1, 459600, Note_on_c, 0, 66, 0
1, 459600, Note_on_c, 0, 66, 32
1, 459600, Note_on_c, 0, 60, 32
1, 459600, Note_on_c, 0, 56, 32
1, 459840, Note_on_c, 0, 56, 0
1, 459840, Note_on_c, 0, 60, 0
1, 459840, Note_on_c, 0, 66, 0
1, 459840, Note_on_c, 0, 66, 28
1, 459840, Note_on_c, 0, 60, 28
1, 459840, Note_on_c, 0, 56, 28
1, 459960, Note_on_c, 0, 56, 0
1, 459960, Note_on_c, 0, 60, 0
1, 459960, Note_on_c, 0, 66, 0
1, 460080, Tempo, 451128
1, 460080, Note_on_c, 0, 101, 97
1, 460080, Note_on_c, 0, 25, 74
1, 460080, Note_on_c, 0, 37, 88
1, 460144, Control_c, 0, 64, 127
1, 460200, Note_on_c, 0, 37, 0
1, 460200, Note_on_c, 0, 25, 0
1, 460560, Tempo, 421053
1, 460560, Note_on_c, 0, 44, 45
1, 460560, Note_on_c, 0, 56, 45
1, 460800, Note_on_c, 0, 56, 0
1, 460800, Note_on_c, 0, 44, 0
1, 460800, Note_on_c, 0, 61, 53
1, 460800, Note_on_c, 0, 53, 53
1, 461040, Tempo, 346821
1, 461040, Note_on_c, 0, 53, 0
1, 461040, Note_on_c, 0, 61, 0
1, 461040, Note_on_c, 0, 101, 0
1, 461040, Note_on_c, 0, 99, 68
1, 461160, Note_on_c, 0, 99, 0
1, 461160, Note_on_c, 0, 97, 61
1, 461280, Note_on_c, 0, 97, 0
1, 461280, Note_on_c, 0, 92, 65
1, 461280, Note_on_c, 0, 44, 42
1, 461280, Note_on_c, 0, 56, 42
1, 461400, Note_on_c, 0, 92, 0
1, 461400, Note_on_c, 0, 89, 59
1, 461520, Note_on_c, 0, 89, 0
1, 461520, Note_on_c, 0, 56, 0
1, 461520, Note_on_c, 0, 44, 0
1, 461520, Note_on_c, 0, 87, 62
1, 461520, Note_on_c, 0, 53, 47
1, 461520, Note_on_c, 0, 61, 47
1, 461640, Note_on_c, 0, 87, 0
1, 461640, Note_on_c, 0, 85, 57
1, 461760, Note_on_c, 0, 85, 0
1, 461760, Note_on_c, 0, 61, 0
1, 461760, Note_on_c, 0, 53, 0
1, 461760, Note_on_c, 0, 80, 58
1, 461880, Note_on_c, 0, 80, 0
1, 461880, Note_on_c, 0, 77, 57
1, 462000, Note_on_c, 0, 77, 0
1, 462000, Note_on_c, 0, 75, 55
1, 462120, Note_on_c, 0, 75, 0
1, 462120, Note_on_c, 0, 73, 51
1, 462240, Tempo, 345821
1, 462240, Note_on_c, 0, 73, 0
1, 462240, Note_on_c, 0, 68, 52
1, 462247, Control_c, 0, 64, 0
1, 462480, Note_on_c, 0, 68, 0
1, 462960, Tempo, 353982
1, 462960, Note_on_c, 0, 72, 42
1, 462960, Note_on_c, 0, 44, 25
1, 462960, Note_on_c, 0, 51, 25
1, 462960, Note_on_c, 0, 54, 25
1, 462968, Tempo, 352941
1, 463068, Tempo, 353982
1, 463080, Note_on_c, 0, 72, 0
1, 463080, Note_on_c, 0, 73, 41
1, 463168, Tempo, 355030
1, 463200, Note_on_c, 0, 73, 0
1, 463200, Note_on_c, 0, 75, 41
1, 463268, Tempo, 356083
1, 463320, Note_on_c, 0, 75, 0
1, 463320, Note_on_c, 0, 77, 40
1, 463368, Tempo, 357143
1, 463440, Note_on_c, 0, 77, 0
1, 463440, Note_on_c, 0, 78, 39
1, 463468, Tempo, 358209
1, 463553, Note_on_c, 0, 80, 38
1, 463560, Note_on_c, 0, 78, 0
1, 463568, Tempo, 359281
1, 463668, Tempo, 360360
1, 463673, Note_on_c, 0, 80, 0
1, 463680, Tempo, 359281
1, 463680, Note_on_c, 0, 44, 0
1, 463680, Note_on_c, 0, 51, 0
1, 463680, Note_on_c, 0, 54, 0
1, 463680, Note_on_c, 0, 81, 37
1, 463680, Note_on_c, 0, 60, 32
1, 463800, Note_on_c, 0, 60, 0
1, 463800, Note_on_c, 0, 81, 0
1, 463800, Note_on_c, 0, 61, 32
1, 463920, Note_on_c, 0, 61, 0
1, 463920, Note_on_c, 0, 63, 32
1, 464040, Note_on_c, 0, 63, 0
1, 464040, Note_on_c, 0, 65, 32
1, 464160, Note_on_c, 0, 65, 0
1, 464160, Note_on_c, 0, 66, 32
1, 464280, Note_on_c, 0, 66, 0
1, 464280, Note_on_c, 0, 68, 32
1, 464400, Tempo, 352941
1, 464400, Note_on_c, 0, 68, 0
1, 464400, Note_on_c, 0, 81, 42
1, 464400, Note_on_c, 0, 69, 32
1, 464520, Note_on_c, 0, 69, 0
1, 464520, Note_on_c, 0, 81, 0
1, 464520, Note_on_c, 0, 80, 41
1, 464640, Note_on_c, 0, 80, 0
1, 464640, Note_on_c, 0, 79, 40
1, 464760, Note_on_c, 0, 79, 0
1, 464760, Note_on_c, 0, 78, 39
1, 464880, Note_on_c, 0, 78, 0
1, 464880, Note_on_c, 0, 77, 37
1, 465000, Note_on_c, 0, 77, 0
1, 465000, Note_on_c, 0, 76, 36
1, 465120, Tempo, 371517
1, 465120, Note_on_c, 0, 76, 0
1, 465120, Note_on_c, 0, 75, 35
1, 465120, Note_on_c, 0, 57, 30
1, 465128, Tempo, 372671
1, 465148, Tempo, 373832
1, 465160, Tempo, 375000
1, 465180, Tempo, 376176
1, 465188, Tempo, 377358
1, 465200, Tempo, 378549
1, 465220, Tempo, 379747
1, 465228, Tempo, 380952
1, 465240, Note_on_c, 0, 57, 0
1, 465240, Note_on_c, 0, 56, 29
1, 465248, Tempo, 382166
1, 465260, Tempo, 383387
1, 465268, Tempo, 384615
1, 465288, Tempo, 385852
1, 465300, Tempo, 387097
1, 465320, Tempo, 388350
1, 465328, Tempo, 389610
1, 465340, Tempo, 390879
1, 465360, Tempo, 392157
1, 465360, Note_on_c, 0, 56, 0
1, 465360, Note_on_c, 0, 75, 0
1, 465360, Note_on_c, 0, 55, 28
1, 465368, Tempo, 393443
1, 465388, Tempo, 394737
1, 465400, Tempo, 396040
1, 465408, Tempo, 397351
1, 465428, Tempo, 398671
1, 465440, Tempo, 400000
1, 465460, Tempo, 401338
1, 465468, Tempo, 402685
1, 465480, Tempo, 404040
1, 465480, Note_on_c, 0, 55, 0
1, 465480, Note_on_c, 0, 54, 27
1, 465500, Tempo, 405405
1, 465508, Tempo, 406780
1, 465520, Tempo, 408163
1, 465540, Tempo, 409556
1, 465548, Tempo, 410959
1, 465568, Tempo, 412371
1, 465580, Tempo, 413793
1, 465588, Tempo, 415225
1, 465600, Note_on_c, 0, 54, 0
1, 465600, Note_on_c, 0, 53, 26
1, 465608, Tempo, 416667
1, 465620, Tempo, 418118
1, 465640, Tempo, 419580
1, 465648, Tempo, 421053
1, 465660, Tempo, 422535
1, 465680, Tempo, 424028
1, 465688, Tempo, 425532
1, 465708, Tempo, 427046
1, 465720, Tempo, 428571
1, 465720, Note_on_c, 0, 53, 0
1, 465720, Note_on_c, 0, 51, 25
1, 465728, Tempo, 430108
1, 465748, Tempo, 431655
1, 465760, Tempo, 433213
1, 465780, Tempo, 434783
1, 465788, Tempo, 436364
1, 465800, Tempo, 437956
1, 465820, Tempo, 439560
1, 465828, Tempo, 441176
1, 465840, Tempo, 465116
1, 465840, Note_on_c, 0, 51, 0
1, 465840, Note_on_c, 0, 71, 40
1, 465840, Control_c, 0, 91, 127
1, 465840, Note_on_c, 0, 77, 59
1, 465840, Note_on_c, 0, 49, 27
1, 465840, Control_c, 0, 91, 127
1, 465883, Control_c, 0, 64, 127
1, 465960, Note_on_c, 0, 49, 0
1, 465960, Note_on_c, 0, 56, 28
1, 466080, Note_on_c, 0, 56, 0
1, 466080, Note_on_c, 0, 61, 30
1, 466200, Note_on_c, 0, 61, 0
1, 466200, Note_on_c, 0, 65, 34
1, 466320, Note_on_c, 0, 65, 0
1, 466320, Note_on_c, 0, 61, 31
1, 466440, Note_on_c, 0, 61, 0
1, 466440, Note_on_c, 0, 56, 30
1, 466560, Note_on_c, 0, 56, 0
1, 466560, Note_on_c, 0, 49, 29
1, 466680, Note_on_c, 0, 49, 0
1, 466680, Note_on_c, 0, 59, 28
1, 466800, Tempo, 463320
1, 466800, Note_on_c, 0, 59, 0
1, 466800, Note_on_c, 0, 77, 0
1, 466800, Note_on_c, 0, 75, 53
1, 466800, Note_on_c, 0, 61, 30
1, 466840, Tempo, 465116
1, 466868, Tempo, 466926
1, 466908, Tempo, 468750
1, 466920, Note_on_c, 0, 61, 0
1, 466920, Note_on_c, 0, 65, 31
1, 466940, Tempo, 470588
1, 466968, Tempo, 472441
1, 467008, Tempo, 474308
1, 467040, Tempo, 476190
1, 467040, Note_on_c, 0, 65, 0
1, 467040, Note_on_c, 0, 61, 30
1, 467080, Tempo, 478088
1, 467108, Tempo, 480000
1, 467140, Tempo, 481928
1, 467160, Tempo, 512821
1, 467160, Note_on_c, 0, 61, 0
1, 467160, Note_on_c, 0, 75, 0
1, 467160, Note_on_c, 0, 73, 52
1, 467160, Note_on_c, 0, 59, 29
1, 467270, Note_on_c, 0, 73, 0
1, 467280, Tempo, 463320
1, 467280, Note_on_c, 0, 59, 0
1, 467280, Note_on_c, 0, 71, 0
1, 467280, Note_on_c, 0, 71, 38
1, 467280, Note_on_c, 0, 73, 56
1, 467280, Note_on_c, 0, 54, 28
1, 467287, Control_c, 0, 64, 0
1, 467377, Control_c, 0, 64, 127
1, 467400, Note_on_c, 0, 54, 0
1, 467400, Note_on_c, 0, 59, 28
1, 467520, Note_on_c, 0, 59, 0
1, 467520, Note_on_c, 0, 61, 31
1, 467640, Note_on_c, 0, 61, 0
1, 467640, Note_on_c, 0, 66, 34
1, 467760, Note_on_c, 0, 66, 0
1, 467760, Note_on_c, 0, 61, 31
1, 467880, Note_on_c, 0, 61, 0
1, 467880, Note_on_c, 0, 59, 29
1, 468000, Tempo, 437956
1, 468000, Note_on_c, 0, 59, 0
1, 468000, Note_on_c, 0, 73, 0
1, 468000, Note_on_c, 0, 71, 0
1, 468000, Note_on_c, 0, 70, 56
1, 468000, Note_on_c, 0, 78, 56
1, 468000, Note_on_c, 0, 49, 29
1, 468004, Control_c, 0, 64, 0
1, 468078, Control_c, 0, 64, 127
1, 468080, Tempo, 436364
1, 468120, Note_on_c, 0, 49, 0
1, 468120, Note_on_c, 0, 58, 28
1, 468148, Tempo, 434783
1, 468220, Tempo, 433213
1, 468240, Note_on_c, 0, 58, 0
1, 468240, Note_on_c, 0, 61, 30
1, 468288, Tempo, 431655
1, 468360, Tempo, 430108
1, 468360, Note_on_c, 0, 61, 0
1, 468360, Note_on_c, 0, 66, 33
1, 468440, Tempo, 428571
1, 468480, Note_on_c, 0, 66, 0
1, 468480, Note_on_c, 0, 61, 31
1, 468508, Tempo, 427046
1, 468580, Tempo, 425532
1, 468600, Note_on_c, 0, 61, 0
1, 468600, Note_on_c, 0, 58, 30
1, 468648, Tempo, 424028
1, 468720, Tempo, 422535
1, 468720, Note_on_c, 0, 58, 0
1, 468720, Note_on_c, 0, 70, 0
1, 468720, Note_on_c, 0, 71, 50
1, 468720, Note_on_c, 0, 56, 28
1, 468728, Control_c, 0, 64, 0
1, 468789, Control_c, 0, 64, 127
1, 468840, Note_on_c, 0, 56, 0
1, 468840, Note_on_c, 0, 59, 28
1, 468960, Note_on_c, 0, 59, 0
1, 468960, Note_on_c, 0, 61, 30
1, 469080, Note_on_c, 0, 61, 0
1, 469080, Note_on_c, 0, 68, 33
1, 469200, Tempo, 437956
1, 469200, Note_on_c, 0, 68, 0
1, 469200, Note_on_c, 0, 78, 0
1, 469200, Note_on_c, 0, 77, 52
1, 469200, Note_on_c, 0, 61, 31
1, 469320, Note_on_c, 0, 61, 0
1, 469320, Note_on_c, 0, 59, 29
1, 469430, Note_on_c, 0, 77, 0
1, 469440, Note_on_c, 0, 59, 0
1, 469440, Note_on_c, 0, 77, 51
1, 469440, Note_on_c, 0, 49, 29
1, 469448, Tempo, 428571
1, 469449, Control_c, 0, 64, 0
1, 469526, Control_c, 0, 64, 127
1, 469528, Tempo, 430108
1, 469560, Note_on_c, 0, 49, 0
1, 469560, Note_on_c, 0, 59, 28
1, 469608, Tempo, 431655
1, 469680, Tempo, 433213
1, 469680, Note_on_c, 0, 59, 0
1, 469680, Note_on_c, 0, 77, 0
1, 469680, Note_on_c, 0, 75, 50
1, 469680, Note_on_c, 0, 61, 30
1, 469760, Tempo, 434783
1, 469800, Note_on_c, 0, 61, 0
1, 469800, Note_on_c, 0, 65, 31
1, 469840, Tempo, 436364
1, 469908, Tempo, 437956
1, 469920, Tempo, 502092
1, 469920, Note_on_c, 0, 65, 0
1, 469920, Note_on_c, 0, 75, 0
1, 469920, Note_on_c, 0, 73, 49
1, 469920, Note_on_c, 0, 61, 30
1, 470040, Note_on_c, 0, 61, 0
1, 470040, Note_on_c, 0, 59, 29
1, 470148, Tempo, 439560
1, 470160, Note_on_c, 0, 59, 0
1, 470160, Note_on_c, 0, 73, 0
1, 470160, Note_on_c, 0, 71, 0
1, 470160, Note_on_c, 0, 70, 44
1, 470160, Note_on_c, 0, 73, 44
1, 470160, Note_on_c, 0, 82, 56
1, 470160, Note_on_c, 0, 54, 29
1, 470172, Control_c, 0, 64, 0
1, 470208, Tempo, 437956
1, 470260, Tempo, 436364
1, 470266, Control_c, 0, 64, 127
1, 470280, Note_on_c, 0, 54, 0
1, 470280, Note_on_c, 0, 58, 30
1, 470308, Tempo, 434783
1, 470360, Tempo, 433213
1, 470400, Note_on_c, 0, 58, 0
1, 470400, Note_on_c, 0, 61, 34
1, 470408, Tempo, 431655
1, 470460, Tempo, 430108
1, 470508, Tempo, 428571
1, 470520, Note_on_c, 0, 61, 0
1, 470520, Note_on_c, 0, 66, 35
1, 470560, Tempo, 427046
1, 470608, Tempo, 425532
1, 470640, Note_on_c, 0, 66, 0
1, 470640, Note_on_c, 0, 61, 34
1, 470660, Tempo, 424028
1, 470708, Tempo, 422535
1, 470760, Tempo, 421053
1, 470760, Note_on_c, 0, 61, 0
1, 470760, Note_on_c, 0, 58, 33
1, 470808, Tempo, 419580
1, 470860, Tempo, 418118
1, 470880, Tempo, 481928
1, 470880, Note_on_c, 0, 58, 0
1, 470880, Note_on_c, 0, 82, 0
1, 470880, Note_on_c, 0, 73, 0
1, 470880, Note_on_c, 0, 70, 0
1, 470880, Note_on_c, 0, 68, 44
1, 470880, Note_on_c, 0, 73, 44
1, 470880, Note_on_c, 0, 82, 62
1, 470880, Note_on_c, 0, 52, 35
1, 470887, Control_c, 0, 64, 0
1, 470937, Control_c, 0, 64, 127
1, 471000, Note_on_c, 0, 52, 0
1, 471000, Note_on_c, 0, 58, 36
1, 471108, Tempo, 459770
1, 471120, Tempo, 497925
1, 471120, Note_on_c, 0, 58, 0
1, 471120, Note_on_c, 0, 61, 39
1, 471240, Note_on_c, 0, 61, 0
1, 471240, Note_on_c, 0, 68, 37
1, 471348, Tempo, 510638
1, 471360, Tempo, 540541
1, 471360, Note_on_c, 0, 68, 0
1, 471360, Note_on_c, 0, 82, 0
1, 471360, Note_on_c, 0, 82, 64
1, 471360, Note_on_c, 0, 61, 34
1, 471480, Note_on_c, 0, 61, 0
1, 471480, Note_on_c, 0, 58, 31
1, 471540, Note_on_c, 0, 67, 44
1, 471600, Tempo, 478088
1, 471600, Note_on_c, 0, 67, 0
1, 471600, Note_on_c, 0, 68, 0
1, 471600, Note_on_c, 0, 82, 0
1, 471600, Note_on_c, 0, 73, 0
1, 471600, Note_on_c, 0, 58, 0
1, 471600, Note_on_c, 0, 73, 45
1, 471600, Note_on_c, 0, 82, 68
1, 471600, Note_on_c, 0, 51, 36
1, 471607, Control_c, 0, 64, 0
1, 471692, Control_c, 0, 64, 127
1, 471720, Note_on_c, 0, 51, 0
1, 471720, Note_on_c, 0, 58, 38
1, 471840, Note_on_c, 0, 58, 0
1, 471840, Note_on_c, 0, 61, 41
1, 471960, Note_on_c, 0, 61, 0
1, 471960, Note_on_c, 0, 67, 45
1, 472068, Tempo, 478088
1, 472080, Tempo, 528634
1, 472080, Note_on_c, 0, 67, 0
1, 472080, Note_on_c, 0, 82, 0
1, 472080, Note_on_c, 0, 75, 57
1, 472080, Note_on_c, 0, 61, 42
1, 472200, Note_on_c, 0, 61, 0
1, 472200, Note_on_c, 0, 58, 39
1, 472308, Tempo, 560748
1, 472320, Tempo, 472441
1, 472320, Note_on_c, 0, 58, 0
1, 472320, Note_on_c, 0, 75, 0
1, 472320, Note_on_c, 0, 75, 57
1, 472320, Note_on_c, 0, 55, 36
1, 472328, Control_c, 0, 64, 0
1, 472375, Control_c, 0, 64, 127
1, 472440, Note_on_c, 0, 55, 0
1, 472440, Note_on_c, 0, 61, 38
1, 472560, Note_on_c, 0, 61, 0
1, 472560, Note_on_c, 0, 75, 0
1, 472560, Note_on_c, 0, 77, 51
1, 472560, Note_on_c, 0, 63, 41
1, 472620, Note_on_c, 0, 77, 0
1, 472620, Note_on_c, 0, 79, 51
1, 472680, Tempo, 515021
1, 472680, Note_on_c, 0, 79, 0
1, 472680, Note_on_c, 0, 63, 0
1, 472680, Note_on_c, 0, 77, 56
1, 472680, Note_on_c, 0, 70, 46
1, 472800, Note_on_c, 0, 70, 0
1, 472800, Note_on_c, 0, 63, 42
1, 472920, Tempo, 574163
1, 472920, Note_on_c, 0, 63, 0
1, 472920, Note_on_c, 0, 77, 0
1, 472920, Note_on_c, 0, 75, 56
1, 472920, Note_on_c, 0, 61, 39
1, 473030, Note_on_c, 0, 75, 0
1, 473040, Tempo, 431655
1, 473040, Note_on_c, 0, 61, 0
1, 473040, Note_on_c, 0, 73, 0
1, 473040, Note_on_c, 0, 73, 49
1, 473040, Note_on_c, 0, 75, 59
1, 473040, Note_on_c, 0, 56, 37
1, 473047, Control_c, 0, 64, 0
1, 473118, Control_c, 0, 64, 127
1, 473160, Note_on_c, 0, 56, 0
1, 473160, Note_on_c, 0, 61, 38
1, 473280, Note_on_c, 0, 61, 0
1, 473280, Note_on_c, 0, 63, 42
1, 473400, Note_on_c, 0, 63, 0
1, 473400, Note_on_c, 0, 68, 45
1, 473520, Note_on_c, 0, 68, 0
1, 473520, Note_on_c, 0, 63, 41
1, 473640, Note_on_c, 0, 63, 0
1, 473640, Note_on_c, 0, 61, 38
1, 473760, Tempo, 405405
1, 473760, Note_on_c, 0, 61, 0
1, 473760, Note_on_c, 0, 75, 0
1, 473760, Note_on_c, 0, 73, 0
1, 473760, Note_on_c, 0, 72, 53
1, 473760, Note_on_c, 0, 80, 64
1, 473760, Note_on_c, 0, 51, 36
1, 473767, Control_c, 0, 64, 0
1, 473845, Control_c, 0, 64, 127
1, 473880, Note_on_c, 0, 51, 0
1, 473880, Note_on_c, 0, 60, 37
1, 474000, Note_on_c, 0, 60, 0
1, 474000, Note_on_c, 0, 63, 40
1, 474120, Note_on_c, 0, 63, 0
1, 474120, Note_on_c, 0, 68, 44
1, 474240, Note_on_c, 0, 68, 0
1, 474240, Note_on_c, 0, 63, 41
1, 474360, Note_on_c, 0, 63, 0
1, 474360, Note_on_c, 0, 60, 39
1, 474480, Note_on_c, 0, 60, 0
1, 474480, Note_on_c, 0, 72, 0
1, 474480, Note_on_c, 0, 73, 55
1, 474480, Note_on_c, 0, 58, 36
1, 474490, Control_c, 0, 64, 0
1, 474586, Control_c, 0, 64, 127
1, 474600, Note_on_c, 0, 58, 0
1, 474600, Note_on_c, 0, 61, 37
1, 474720, Note_on_c, 0, 61, 0
1, 474720, Note_on_c, 0, 80, 0
1, 474720, Note_on_c, 0, 79, 60
1, 474720, Note_on_c, 0, 63, 40
1, 474840, Note_on_c, 0, 63, 0
1, 474840, Note_on_c, 0, 70, 42
1, 474960, Tempo, 419580
1, 474960, Note_on_c, 0, 70, 0
1, 474960, Note_on_c, 0, 79, 0
1, 474960, Note_on_c, 0, 77, 59
1, 474960, Note_on_c, 0, 63, 41
1, 475080, Note_on_c, 0, 63, 0
1, 475080, Note_on_c, 0, 61, 39
1, 475200, Note_on_c, 0, 61, 0
1, 475200, Note_on_c, 0, 77, 0
1, 475200, Note_on_c, 0, 79, 60
1, 475200, Note_on_c, 0, 51, 37
1, 475207, Control_c, 0, 64, 0
1, 475320, Note_on_c, 0, 51, 0
1, 475320, Control_c, 0, 64, 127
1, 475320, Note_on_c, 0, 61, 36
1, 475440, Tempo, 510638
1, 475440, Note_on_c, 0, 61, 0
1, 475440, Note_on_c, 0, 79, 0
1, 475440, Note_on_c, 0, 77, 59
1, 475440, Note_on_c, 0, 63, 38
1, 475560, Note_on_c, 0, 63, 0
1, 475560, Note_on_c, 0, 67, 40
1, 475680, Tempo, 659341
1, 475680, Note_on_c, 0, 67, 0
1, 475680, Note_on_c, 0, 63, 40
1, 475800, Note_on_c, 0, 63, 0
1, 475800, Note_on_c, 0, 77, 0
1, 475800, Note_on_c, 0, 75, 56
1, 475800, Note_on_c, 0, 61, 37
1, 475920, Tempo, 441176
1, 475920, Note_on_c, 0, 61, 0
1, 475920, Note_on_c, 0, 75, 0
1, 475920, Note_on_c, 0, 73, 0
1, 475920, Note_on_c, 0, 72, 56
1, 475920, Note_on_c, 0, 84, 56
1, 475920, Note_on_c, 0, 56, 50
1, 475928, Control_c, 0, 64, 0
1, 475980, Tempo, 439560
1, 476026, Control_c, 0, 64, 127
1, 476040, Tempo, 437956
1, 476040, Note_on_c, 0, 56, 0
1, 476040, Note_on_c, 0, 60, 40
1, 476100, Tempo, 436364
1, 476160, Tempo, 434783
1, 476160, Note_on_c, 0, 60, 0
1, 476160, Note_on_c, 0, 63, 44
1, 476220, Tempo, 433213
1, 476280, Tempo, 431655
1, 476280, Note_on_c, 0, 63, 0
1, 476280, Note_on_c, 0, 68, 45
1, 476340, Tempo, 430108
1, 476400, Tempo, 428571
1, 476400, Note_on_c, 0, 68, 0
1, 476400, Note_on_c, 0, 63, 44
1, 476460, Tempo, 427046
1, 476520, Tempo, 425532
1, 476520, Note_on_c, 0, 63, 0
1, 476520, Note_on_c, 0, 60, 42
1, 476580, Tempo, 424028
1, 476628, Tempo, 422535
1, 476640, Tempo, 560748
1, 476640, Note_on_c, 0, 60, 0
1, 476640, Note_on_c, 0, 84, 0
1, 476640, Note_on_c, 0, 84, 64
1, 476640, Note_on_c, 0, 55, 39
1, 476652, Control_c, 0, 64, 0
1, 476711, Control_c, 0, 64, 127
1, 476760, Note_on_c, 0, 56, 41
1, 476880, Note_on_c, 0, 56, 0
1, 476880, Note_on_c, 0, 60, 45
1, 477000, Note_on_c, 0, 60, 0
1, 477000, Note_on_c, 0, 63, 49
1, 477120, Tempo, 615385
1, 477120, Note_on_c, 0, 63, 0
1, 477120, Note_on_c, 0, 84, 0
1, 477120, Note_on_c, 0, 84, 63
1, 477120, Note_on_c, 0, 60, 47
1, 477240, Note_on_c, 0, 60, 0
1, 477240, Note_on_c, 0, 56, 41
1, 477350, Note_on_c, 0, 84, 0
1, 477360, Tempo, 502092
1, 477360, Note_on_c, 0, 72, 0
1, 477360, Note_on_c, 0, 55, 0
1, 477360, Note_on_c, 0, 56, 0
1, 477360, Note_on_c, 0, 84, 68
1, 477360, Note_on_c, 0, 54, 38
1, 477368, Control_c, 0, 64, 0
1, 477466, Control_c, 0, 64, 127
1, 477480, Note_on_c, 0, 56, 36
1, 477600, Note_on_c, 0, 56, 0
1, 477600, Note_on_c, 0, 60, 39
1, 477720, Note_on_c, 0, 60, 0
1, 477720, Note_on_c, 0, 63, 42
1, 477840, Note_on_c, 0, 63, 0
1, 477840, Note_on_c, 0, 60, 41
1, 477960, Note_on_c, 0, 60, 0
1, 477960, Note_on_c, 0, 56, 38
1, 478080, Note_on_c, 0, 56, 0
1, 478080, Note_on_c, 0, 54, 0
1, 478080, Note_on_c, 0, 54, 47
1, 478200, Note_on_c, 0, 56, 41
1, 478320, Tempo, 472441
1, 478320, Note_on_c, 0, 56, 0
1, 478320, Note_on_c, 0, 84, 0
1, 478320, Note_on_c, 0, 82, 63
1, 478320, Note_on_c, 0, 60, 41
1, 478440, Note_on_c, 0, 60, 0
1, 478440, Note_on_c, 0, 63, 41
1, 478560, Note_on_c, 0, 63, 0
1, 478560, Note_on_c, 0, 60, 38
1, 478680, Note_on_c, 0, 60, 0
1, 478680, Note_on_c, 0, 82, 0
1, 478680, Note_on_c, 0, 80, 63
1, 478680, Note_on_c, 0, 56, 35
1, 478788, Tempo, 413793
1, 478790, Note_on_c, 0, 80, 0
1, 478800, Note_on_c, 0, 56, 0
1, 478800, Note_on_c, 0, 54, 0
1, 478800, Note_on_c, 0, 80, 63
1, 478800, Note_on_c, 0, 53, 34
1, 478808, Control_c, 0, 64, 0
1, 478848, Tempo, 412371
1, 478908, Tempo, 410959
1, 478920, Control_c, 0, 64, 127
1, 478920, Note_on_c, 0, 56, 33
1, 478960, Tempo, 409556
1, 479020, Tempo, 408163
1, 479040, Note_on_c, 0, 56, 0
1, 479040, Note_on_c, 0, 61, 36
1, 479080, Tempo, 406780
1, 479128, Tempo, 405405
1, 479160, Note_on_c, 0, 61, 0
1, 479160, Note_on_c, 0, 65, 39
1, 479188, Tempo, 404040
1, 479240, Tempo, 402685
1, 479280, Note_on_c, 0, 65, 0
1, 479280, Note_on_c, 0, 61, 37
1, 479300, Tempo, 401338
1, 479360, Tempo, 400000
1, 479400, Note_on_c, 0, 61, 0
1, 479400, Note_on_c, 0, 56, 35
1, 479408, Tempo, 398671
1, 479468, Tempo, 397351
1, 479520, Tempo, 396040
1, 479520, Note_on_c, 0, 56, 0
1, 479520, Note_on_c, 0, 53, 0
1, 479520, Note_on_c, 0, 80, 0
1, 479520, Note_on_c, 0, 85, 75
1, 479520, Note_on_c, 0, 53, 36
1, 479640, Note_on_c, 0, 53, 0
1, 479640, Note_on_c, 0, 56, 38
1, 479760, Note_on_c, 0, 56, 0
1, 479760, Note_on_c, 0, 61, 41
1, 479880, Note_on_c, 0, 61, 0
1, 479880, Note_on_c, 0, 68, 42
1, 480000, Note_on_c, 0, 68, 0
1, 480000, Note_on_c, 0, 61, 40
1, 480120, Note_on_c, 0, 61, 0
1, 480120, Note_on_c, 0, 56, 37
1, 480240, Note_on_c, 0, 56, 0
1, 480240, Note_on_c, 0, 85, 0
1, 480240, Note_on_c, 0, 85, 82
1, 480240, Note_on_c, 0, 51, 35
1, 480251, Control_c, 0, 64, 0
1, 480297, Control_c, 0, 64, 127
1, 480360, Note_on_c, 0, 51, 0
1, 480360, Note_on_c, 0, 56, 38
1, 480480, Note_on_c, 0, 56, 0
1, 480480, Note_on_c, 0, 60, 41
1, 480600, Note_on_c, 0, 60, 0
1, 480600, Note_on_c, 0, 66, 41
1, 480720, Note_on_c, 0, 66, 0
1, 480720, Note_on_c, 0, 85, 0
1, 480720, Note_on_c, 0, 84, 78
1, 480720, Note_on_c, 0, 60, 39
1, 480840, Note_on_c, 0, 60, 0
1, 480840, Note_on_c, 0, 56, 36
1, 480950, Note_on_c, 0, 84, 0
1, 480960, Tempo, 416667
1, 480960, Note_on_c, 0, 56, 0
1, 480960, Note_on_c, 0, 84, 75
1, 480960, Note_on_c, 0, 51, 34
1, 481080, Note_on_c, 0, 51, 0
1, 481080, Note_on_c, 0, 56, 34
1, 481200, Tempo, 470588
1, 481200, Note_on_c, 0, 56, 0
1, 481200, Note_on_c, 0, 84, 0
1, 481200, Note_on_c, 0, 82, 71
1, 481200, Note_on_c, 0, 60, 37
1, 481320, Note_on_c, 0, 60, 0
1, 481320, Note_on_c, 0, 66, 39
1, 481440, Tempo, 502092
1, 481440, Note_on_c, 0, 66, 0
1, 481440, Note_on_c, 0, 60, 36
1, 481560, Note_on_c, 0, 60, 0
1, 481560, Note_on_c, 0, 82, 0
1, 481560, Note_on_c, 0, 80, 63
1, 481560, Note_on_c, 0, 56, 31
1, 481680, Note_on_c, 0, 56, 0
1, 481680, Note_on_c, 0, 80, 0
1, 481680, Note_on_c, 0, 89, 80
1, 481680, Note_on_c, 0, 50, 31
1, 481690, Control_c, 0, 64, 0
1, 481743, Control_c, 0, 64, 127
1, 481800, Note_on_c, 0, 50, 0
1, 481800, Note_on_c, 0, 56, 31
1, 481920, Note_on_c, 0, 56, 0
1, 481920, Note_on_c, 0, 59, 35
1, 482040, Note_on_c, 0, 59, 0
1, 482040, Note_on_c, 0, 65, 37
1, 482160, Note_on_c, 0, 65, 0
1, 482160, Note_on_c, 0, 59, 36
1, 482280, Note_on_c, 0, 59, 0
1, 482280, Note_on_c, 0, 56, 34
1, 482400, Tempo, 582524
1, 482400, Note_on_c, 0, 56, 0
1, 482400, Note_on_c, 0, 89, 0
1, 482400, Note_on_c, 0, 89, 77
1, 482400, Note_on_c, 0, 50, 34
1, 482409, Control_c, 0, 64, 0
1, 482463, Control_c, 0, 64, 127
1, 482520, Note_on_c, 0, 50, 0
1, 482520, Note_on_c, 0, 56, 30
1, 482640, Note_on_c, 0, 56, 0
1, 482640, Note_on_c, 0, 58, 35
1, 482760, Note_on_c, 0, 58, 0
1, 482760, Note_on_c, 0, 65, 37
1, 482880, Tempo, 714286
1, 482880, Note_on_c, 0, 65, 0
1, 482880, Note_on_c, 0, 89, 0
1, 482880, Note_on_c, 0, 89, 81
1, 482880, Note_on_c, 0, 58, 36
1, 483000, Note_on_c, 0, 58, 0
1, 483000, Note_on_c, 0, 56, 34
1, 483110, Note_on_c, 0, 89, 0
1, 483120, Tempo, 538117
1, 483120, Note_on_c, 0, 56, 0
1, 483120, Note_on_c, 0, 89, 85
1, 483120, Note_on_c, 0, 51, 34
1, 483130, Control_c, 0, 64, 0
1, 483168, Tempo, 535714
1, 483208, Tempo, 533333
1, 483226, Control_c, 0, 64, 127
1, 483240, Note_on_c, 0, 51, 0
1, 483240, Note_on_c, 0, 54, 35
1, 483260, Tempo, 530973
1, 483300, Tempo, 528634
1, 483340, Tempo, 526316
1, 483360, Note_on_c, 0, 54, 0
1, 483360, Note_on_c, 0, 58, 38
1, 483388, Tempo, 524017
1, 483428, Tempo, 521739
1, 483468, Tempo, 519481
1, 483480, Note_on_c, 0, 58, 0
1, 483480, Note_on_c, 0, 63, 39
1, 483520, Tempo, 517241
1, 483560, Tempo, 515021
1, 483600, Note_on_c, 0, 63, 0
1, 483600, Note_on_c, 0, 58, 38
1, 483608, Tempo, 512821
1, 483648, Tempo, 510638
1, 483688, Tempo, 508475
1, 483720, Note_on_c, 0, 58, 0
1, 483720, Note_on_c, 0, 54, 36
1, 483740, Tempo, 506329
1, 483780, Tempo, 504202
1, 483820, Tempo, 502092
1, 483840, Tempo, 526316
1, 483840, Note_on_c, 0, 54, 0
1, 483840, Note_on_c, 0, 89, 0
1, 483840, Note_on_c, 0, 87, 72
1, 483840, Note_on_c, 0, 42, 34
1, 483960, Note_on_c, 0, 42, 0
1, 483960, Note_on_c, 0, 54, 31
1, 484080, Note_on_c, 0, 54, 0
1, 484080, Note_on_c, 0, 87, 0
1, 484080, Note_on_c, 0, 85, 71
1, 484080, Note_on_c, 0, 58, 36
1, 484200, Note_on_c, 0, 58, 0
1, 484200, Note_on_c, 0, 63, 38
1, 484320, Note_on_c, 0, 63, 0
1, 484320, Note_on_c, 0, 85, 0
1, 484320, Note_on_c, 0, 82, 70
1, 484320, Note_on_c, 0, 58, 36
1, 484440, Note_on_c, 0, 58, 0
1, 484440, Note_on_c, 0, 54, 34
1, 484560, Note_on_c, 0, 54, 0
1, 484560, Note_on_c, 0, 82, 0
1, 484560, Note_on_c, 0, 84, 75
1, 484560, Note_on_c, 0, 44, 35
1, 484564, Control_c, 0, 64, 0
1, 484680, Note_on_c, 0, 44, 0
1, 484680, Control_c, 0, 64, 127
1, 484680, Note_on_c, 0, 53, 36
1, 484800, Note_on_c, 0, 53, 0
1, 484800, Note_on_c, 0, 56, 37
1, 484920, Note_on_c, 0, 56, 0
1, 484920, Note_on_c, 0, 61, 39
1, 485040, Note_on_c, 0, 61, 0
1, 485040, Note_on_c, 0, 56, 37
1, 485160, Note_on_c, 0, 56, 0
1, 485160, Note_on_c, 0, 53, 35
1, 485280, Note_on_c, 0, 53, 0
1, 485280, Note_on_c, 0, 84, 0
1, 485280, Note_on_c, 0, 82, 71
1, 485280, Note_on_c, 0, 44, 33
1, 485400, Note_on_c, 0, 44, 0
1, 485400, Note_on_c, 0, 53, 34
1, 485520, Note_on_c, 0, 53, 0
1, 485520, Note_on_c, 0, 82, 0
1, 485520, Note_on_c, 0, 80, 68
1, 485520, Note_on_c, 0, 56, 35
1, 485640, Note_on_c, 0, 56, 0
1, 485640, Note_on_c, 0, 61, 38
1, 485760, Note_on_c, 0, 61, 0
1, 485760, Note_on_c, 0, 80, 0
1, 485760, Note_on_c, 0, 77, 63
1, 485760, Note_on_c, 0, 56, 37
1, 485880, Note_on_c, 0, 56, 0
1, 485880, Note_on_c, 0, 53, 36
1, 486000, Note_on_c, 0, 53, 0
1, 486000, Note_on_c, 0, 77, 0
1, 486000, Note_on_c, 0, 82, 69
1, 486000, Note_on_c, 0, 44, 39
1, 486010, Control_c, 0, 64, 0
1, 486099, Control_c, 0, 64, 127
1, 486120, Note_on_c, 0, 44, 0
1, 486120, Note_on_c, 0, 54, 34
1, 486240, Note_on_c, 0, 54, 0
1, 486240, Note_on_c, 0, 82, 0
1, 486240, Note_on_c, 0, 80, 64
1, 486240, Note_on_c, 0, 56, 36
1, 486360, Note_on_c, 0, 56, 0
1, 486360, Note_on_c, 0, 60, 36
1, 486480, Note_on_c, 0, 60, 0
1, 486480, Note_on_c, 0, 80, 0
1, 486480, Note_on_c, 0, 78, 61
1, 486480, Note_on_c, 0, 56, 35
1, 486600, Note_on_c, 0, 56, 0
1, 486600, Note_on_c, 0, 54, 34
1, 486710, Note_on_c, 0, 78, 0
1, 486720, Tempo, 547945
1, 486720, Note_on_c, 0, 54, 0
1, 486720, Note_on_c, 0, 78, 55
1, 486720, Note_on_c, 0, 44, 31
1, 486727, Control_c, 0, 64, 0
1, 486773, Control_c, 0, 64, 127
1, 486780, Note_on_c, 0, 78, 0
1, 486780, Note_on_c, 0, 80, 55
1, 486840, Note_on_c, 0, 80, 0
1, 486840, Note_on_c, 0, 44, 0
1, 486840, Note_on_c, 0, 78, 63
1, 486840, Note_on_c, 0, 54, 31
1, 486960, Tempo, 603015
1, 486960, Note_on_c, 0, 54, 0
1, 486960, Note_on_c, 0, 78, 0
1, 486960, Note_on_c, 0, 77, 58
1, 486960, Note_on_c, 0, 56, 35
1, 487080, Note_on_c, 0, 56, 0
1, 487080, Note_on_c, 0, 60, 37
1, 487200, Tempo, 681818
1, 487200, Note_on_c, 0, 60, 0
1, 487200, Note_on_c, 0, 56, 35
1, 487320, Note_on_c, 0, 56, 0
1, 487320, Note_on_c, 0, 77, 0
1, 487320, Note_on_c, 0, 76, 59
1, 487320, Note_on_c, 0, 54, 33
1, 487430, Note_on_c, 0, 76, 0
1, 487440, Tempo, 603015
1, 487440, Note_on_c, 0, 54, 0
1, 487440, Note_on_c, 0, 76, 59
1, 487440, Note_on_c, 0, 49, 33
1, 487449, Control_c, 0, 64, 0
1, 487480, Tempo, 600000
1, 487504, Control_c, 0, 64, 127
1, 487520, Tempo, 597015
1, 487560, Tempo, 594059
1, 487560, Note_on_c, 0, 49, 0
1, 487560, Note_on_c, 0, 56, 33
1, 487600, Tempo, 591133
1, 487640, Tempo, 588235
1, 487680, Tempo, 585366
1, 487680, Note_on_c, 0, 56, 0
1, 487680, Note_on_c, 0, 61, 36
1, 487720, Tempo, 582524
1, 487760, Tempo, 579710
1, 487800, Tempo, 576923
1, 487800, Note_on_c, 0, 61, 0
1, 487800, Note_on_c, 0, 65, 37
1, 487840, Tempo, 574163
1, 487880, Tempo, 571429
1, 487920, Tempo, 568720
1, 487920, Note_on_c, 0, 65, 0
1, 487920, Note_on_c, 0, 61, 36
1, 487960, Tempo, 566038
1, 488000, Tempo, 563380
1, 488040, Tempo, 560748
1, 488040, Note_on_c, 0, 61, 0
1, 488040, Note_on_c, 0, 58, 35
1, 488080, Tempo, 558140
1, 488120, Tempo, 555556
1, 488148, Tempo, 552995
1, 488160, Tempo, 552995
1, 488160, Note_on_c, 0, 58, 0
1, 488160, Note_on_c, 0, 76, 0
1, 488160, Note_on_c, 0, 77, 63
1, 488160, Note_on_c, 0, 56, 36
1, 488167, Control_c, 0, 64, 0
1, 488245, Control_c, 0, 64, 127
1, 488280, Note_on_c, 0, 61, 36
1, 488400, Note_on_c, 0, 61, 0
1, 488400, Note_on_c, 0, 56, 0
1, 488400, Note_on_c, 0, 65, 39
1, 488520, Note_on_c, 0, 65, 0
1, 488520, Note_on_c, 0, 68, 40
1, 488640, Tempo, 517241
1, 488640, Note_on_c, 0, 68, 0
1, 488640, Note_on_c, 0, 77, 0
1, 488640, Note_on_c, 0, 80, 57
1, 488640, Note_on_c, 0, 65, 39
1, 488760, Note_on_c, 0, 65, 0
1, 488760, Note_on_c, 0, 61, 38
1, 488880, Tempo, 506329
1, 488880, Note_on_c, 0, 61, 0
1, 488880, Note_on_c, 0, 80, 0
1, 488880, Note_on_c, 0, 68, 57
1, 488880, Note_on_c, 0, 54, 38
1, 488888, Control_c, 0, 64, 0
1, 488937, Control_c, 0, 64, 127
1, 488940, Note_on_c, 0, 80, 57
1, 489000, Note_on_c, 0, 56, 42
1, 489120, Note_on_c, 0, 56, 0
1, 489120, Note_on_c, 0, 60, 42
1, 489240, Note_on_c, 0, 60, 0
1, 489240, Note_on_c, 0, 63, 42
1, 489360, Note_on_c, 0, 63, 0
1, 489360, Note_on_c, 0, 68, 0
1, 489360, Note_on_c, 0, 72, 63
1, 489360, Note_on_c, 0, 60, 42
1, 489480, Note_on_c, 0, 60, 0
1, 489480, Note_on_c, 0, 56, 42
1, 489600, Tempo, 600000
1, 489600, Note_on_c, 0, 56, 0
1, 489600, Note_on_c, 0, 80, 0
1, 489600, Note_on_c, 0, 54, 0
1, 489600, Note_on_c, 0, 84, 63
1, 489600, Note_on_c, 0, 54, 41
1, 489720, Note_on_c, 0, 56, 45
1, 489840, Tempo, 472441
1, 489840, Note_on_c, 0, 56, 0
1, 489840, Note_on_c, 0, 72, 0
1, 489840, Note_on_c, 0, 84, 0
1, 489840, Note_on_c, 0, 70, 63
1, 489840, Note_on_c, 0, 82, 63
1, 489840, Note_on_c, 0, 60, 45
1, 489960, Note_on_c, 0, 60, 0
1, 489960, Note_on_c, 0, 63, 45
1, 490080, Note_on_c, 0, 63, 0
1, 490080, Note_on_c, 0, 60, 41
1, 490200, Note_on_c, 0, 60, 0
1, 490200, Note_on_c, 0, 82, 0
1, 490200, Note_on_c, 0, 70, 0
1, 490200, Note_on_c, 0, 68, 63
1, 490200, Note_on_c, 0, 80, 63
1, 490200, Note_on_c, 0, 56, 38
1, 490308, Tempo, 413793
1, 490310, Note_on_c, 0, 80, 0
1, 490310, Note_on_c, 0, 68, 0
1, 490320, Note_on_c, 0, 54, 0
1, 490320, Note_on_c, 0, 56, 0
1, 490320, Note_on_c, 0, 68, 63
1, 490320, Note_on_c, 0, 80, 63
1, 490320, Note_on_c, 0, 53, 37
1, 490326, Control_c, 0, 64, 0
1, 490368, Tempo, 412371
1, 490419, Control_c, 0, 64, 127
1, 490428, Tempo, 410959
1, 490440, Note_on_c, 0, 56, 36
1, 490480, Tempo, 409556
1, 490540, Tempo, 408163
1, 490560, Note_on_c, 0, 56, 0
1, 490560, Note_on_c, 0, 61, 39
1, 490600, Tempo, 406780
1, 490648, Tempo, 405405
1, 490680, Note_on_c, 0, 61, 0
1, 490680, Note_on_c, 0, 65, 42
1, 490708, Tempo, 404040
1, 490760, Tempo, 402685
1, 490800, Note_on_c, 0, 65, 0
1, 490800, Note_on_c, 0, 61, 40
1, 490820, Tempo, 401338
1, 490880, Tempo, 400000
1, 490920, Note_on_c, 0, 61, 0
1, 490920, Note_on_c, 0, 56, 38
1, 490928, Tempo, 398671
1, 490988, Tempo, 397351
1, 491040, Tempo, 396040
1, 491040, Note_on_c, 0, 56, 0
1, 491040, Note_on_c, 0, 53, 0
1, 491040, Note_on_c, 0, 68, 0
1, 491040, Note_on_c, 0, 73, 75
1, 491040, Note_on_c, 0, 85, 75
1, 491040, Note_on_c, 0, 53, 39
1, 491160, Note_on_c, 0, 53, 0
1, 491160, Note_on_c, 0, 56, 41
1, 491280, Note_on_c, 0, 56, 0
1, 491280, Note_on_c, 0, 61, 45
1, 491400, Note_on_c, 0, 61, 0
1, 491400, Note_on_c, 0, 68, 46
1, 491520, Note_on_c, 0, 68, 0
1, 491520, Note_on_c, 0, 61, 44
1, 491640, Note_on_c, 0, 61, 0
1, 491640, Note_on_c, 0, 56, 40
1, 491760, Note_on_c, 0, 56, 0
1, 491760, Note_on_c, 0, 85, 0
1, 491760, Note_on_c, 0, 73, 0
1, 491760, Note_on_c, 0, 80, 0
1, 491760, Note_on_c, 0, 78, 60
1, 491760, Note_on_c, 0, 80, 60
1, 491760, Note_on_c, 0, 73, 75
1, 491760, Note_on_c, 0, 85, 75
1, 491760, Note_on_c, 0, 51, 39
1, 491768, Control_c, 0, 64, 0
1, 491873, Control_c, 0, 64, 127
1, 491880, Note_on_c, 0, 51, 0
1, 491880, Note_on_c, 0, 56, 41
1, 492000, Note_on_c, 0, 56, 0
1, 492000, Note_on_c, 0, 60, 45
1, 492120, Note_on_c, 0, 60, 0
1, 492120, Note_on_c, 0, 73, 0
1, 492120, Note_on_c, 0, 85, 0
1, 492120, Note_on_c, 0, 75, 71
1, 492120, Note_on_c, 0, 84, 71
1, 492120, Note_on_c, 0, 66, 45
1, 492240, Note_on_c, 0, 66, 0
1, 492240, Note_on_c, 0, 75, 0
1, 492240, Note_on_c, 0, 78, 0
1, 492240, Note_on_c, 0, 80, 0
1, 492240, Note_on_c, 0, 84, 0
1, 492240, Note_on_c, 0, 80, 60
1, 492240, Note_on_c, 0, 78, 60
1, 492240, Note_on_c, 0, 72, 78
1, 492240, Note_on_c, 0, 84, 78
1, 492240, Note_on_c, 0, 60, 42
1, 492360, Note_on_c, 0, 60, 0
1, 492360, Note_on_c, 0, 56, 39
1, 492480, Tempo, 416667
1, 492480, Note_on_c, 0, 56, 0
1, 492480, Note_on_c, 0, 84, 0
1, 492480, Note_on_c, 0, 80, 0
1, 492480, Note_on_c, 0, 78, 0
1, 492480, Note_on_c, 0, 72, 0
1, 492480, Note_on_c, 0, 80, 60
1, 492480, Note_on_c, 0, 78, 60
1, 492480, Note_on_c, 0, 72, 75
1, 492480, Note_on_c, 0, 84, 75
1, 492480, Note_on_c, 0, 51, 38
1, 492489, Control_c, 0, 64, 0
1, 492600, Note_on_c, 0, 51, 0
1, 492600, Note_on_c, 0, 56, 37
1, 492621, Control_c, 0, 64, 127
1, 492720, Tempo, 470588
1, 492720, Note_on_c, 0, 56, 0
1, 492720, Note_on_c, 0, 60, 40
1, 492840, Note_on_c, 0, 60, 0
1, 492840, Note_on_c, 0, 72, 0
1, 492840, Note_on_c, 0, 80, 0
1, 492840, Note_on_c, 0, 78, 0
1, 492840, Note_on_c, 0, 84, 0
1, 492840, Note_on_c, 0, 70, 71
1, 492840, Note_on_c, 0, 82, 71
1, 492840, Note_on_c, 0, 66, 42
1, 492960, Tempo, 481928
1, 492960, Note_on_c, 0, 66, 0
1, 492960, Note_on_c, 0, 82, 0
1, 492960, Note_on_c, 0, 70, 0
1, 492960, Note_on_c, 0, 78, 60
1, 492960, Note_on_c, 0, 68, 63
1, 492960, Note_on_c, 0, 80, 63
1, 492960, Note_on_c, 0, 60, 39
1, 493080, Note_on_c, 0, 60, 0
1, 493080, Note_on_c, 0, 56, 34
1, 493200, Note_on_c, 0, 56, 0
1, 493200, Note_on_c, 0, 80, 0
1, 493200, Note_on_c, 0, 68, 0
1, 493200, Note_on_c, 0, 78, 0
1, 493200, Note_on_c, 0, 80, 80
1, 493200, Note_on_c, 0, 77, 68
1, 493200, Note_on_c, 0, 89, 80
1, 493200, Note_on_c, 0, 50, 35
1, 493211, Control_c, 0, 64, 0
1, 493297, Control_c, 0, 64, 127
1, 493320, Note_on_c, 0, 50, 0
1, 493320, Note_on_c, 0, 56, 37
1, 493440, Note_on_c, 0, 56, 0
1, 493440, Note_on_c, 0, 59, 41
1, 493560, Note_on_c, 0, 59, 0
1, 493560, Note_on_c, 0, 65, 44
1, 493680, Note_on_c, 0, 65, 0
1, 493680, Note_on_c, 0, 59, 42
1, 493800, Note_on_c, 0, 59, 0
1, 493800, Note_on_c, 0, 56, 40
1, 493920, Tempo, 526316
1, 493920, Note_on_c, 0, 56, 0
1, 493920, Note_on_c, 0, 89, 0
1, 493920, Note_on_c, 0, 77, 0
1, 493920, Note_on_c, 0, 80, 0
1, 493920, Note_on_c, 0, 77, 65
1, 493920, Note_on_c, 0, 80, 77
1, 493920, Note_on_c, 0, 89, 77
1, 493920, Note_on_c, 0, 50, 35
1, 493929, Control_c, 0, 64, 0
1, 493995, Control_c, 0, 64, 127
1, 494040, Note_on_c, 0, 50, 0
1, 494040, Note_on_c, 0, 56, 36
1, 494160, Note_on_c, 0, 56, 0
1, 494160, Note_on_c, 0, 58, 41
1, 494280, Note_on_c, 0, 58, 0
1, 494280, Note_on_c, 0, 65, 44
1, 494400, Tempo, 600000
1, 494400, Note_on_c, 0, 65, 0
1, 494400, Note_on_c, 0, 89, 0
1, 494400, Note_on_c, 0, 80, 0
1, 494400, Note_on_c, 0, 77, 0
1, 494400, Note_on_c, 0, 77, 66
1, 494400, Note_on_c, 0, 80, 78
1, 494400, Note_on_c, 0, 89, 78
1, 494400, Note_on_c, 0, 58, 42
1, 494520, Note_on_c, 0, 58, 0
1, 494520, Note_on_c, 0, 56, 40
1, 494640, Tempo, 538117
1, 494640, Note_on_c, 0, 56, 0
1, 494640, Note_on_c, 0, 89, 0
1, 494640, Note_on_c, 0, 80, 0
1, 494640, Note_on_c, 0, 77, 0
1, 494640, Note_on_c, 0, 77, 69
1, 494640, Note_on_c, 0, 80, 82
1, 494640, Note_on_c, 0, 89, 82
1, 494640, Note_on_c, 0, 51, 37
1, 494656, Control_c, 0, 64, 0
1, 494688, Tempo, 535714
1, 494704, Control_c, 0, 64, 127
1, 494728, Tempo, 533333
1, 494760, Note_on_c, 0, 51, 0
1, 494760, Note_on_c, 0, 54, 38
1, 494780, Tempo, 530973
1, 494820, Tempo, 528634
1, 494860, Tempo, 526316
1, 494880, Note_on_c, 0, 54, 0
1, 494880, Note_on_c, 0, 58, 41
1, 494908, Tempo, 524017
1, 494948, Tempo, 521739
1, 494988, Tempo, 519481
1, 495000, Note_on_c, 0, 58, 0
1, 495000, Note_on_c, 0, 63, 42
1, 495040, Tempo, 517241
1, 495080, Tempo, 515021
1, 495120, Note_on_c, 0, 63, 0
1, 495120, Note_on_c, 0, 58, 41
1, 495128, Tempo, 512821
1, 495168, Tempo, 510638
1, 495208, Tempo, 508475
1, 495240, Note_on_c, 0, 58, 0
1, 495240, Note_on_c, 0, 54, 39
1, 495260, Tempo, 506329
1, 495300, Tempo, 504202
1, 495340, Tempo, 502092
1, 495360, Tempo, 526316
1, 495360, Note_on_c, 0, 54, 0
1, 495360, Note_on_c, 0, 89, 0
1, 495360, Note_on_c, 0, 80, 0
1, 495360, Note_on_c, 0, 77, 0
1, 495360, Note_on_c, 0, 78, 67
1, 495360, Note_on_c, 0, 75, 56
1, 495360, Note_on_c, 0, 87, 67
1, 495360, Note_on_c, 0, 42, 37
1, 495369, Control_c, 0, 64, 0
1, 495473, Control_c, 0, 64, 127
1, 495480, Note_on_c, 0, 42, 0
1, 495480, Note_on_c, 0, 54, 34
1, 495600, Note_on_c, 0, 54, 0
1, 495600, Note_on_c, 0, 87, 0
1, 495600, Note_on_c, 0, 75, 0
1, 495600, Note_on_c, 0, 78, 0
1, 495600, Note_on_c, 0, 73, 55
1, 495600, Note_on_c, 0, 78, 65
1, 495600, Note_on_c, 0, 85, 65
1, 495600, Note_on_c, 0, 58, 39
1, 495720, Tempo, 550459
1, 495720, Note_on_c, 0, 58, 0
1, 495720, Note_on_c, 0, 63, 41
1, 495840, Note_on_c, 0, 63, 0
1, 495840, Note_on_c, 0, 58, 39
1, 495960, Tempo, 588235
1, 495960, Note_on_c, 0, 58, 0
1, 495960, Note_on_c, 0, 73, 0
1, 495960, Note_on_c, 0, 78, 0
1, 495960, Note_on_c, 0, 85, 0
1, 495960, Note_on_c, 0, 70, 54
1, 495960, Note_on_c, 0, 78, 64
1, 495960, Note_on_c, 0, 82, 64
1, 495960, Note_on_c, 0, 54, 37
1, 496080, Tempo, 526316
1, 496080, Note_on_c, 0, 54, 0
1, 496080, Note_on_c, 0, 70, 0
1, 496080, Note_on_c, 0, 78, 0
1, 496080, Note_on_c, 0, 82, 0
1, 496080, Note_on_c, 0, 72, 52
1, 496080, Note_on_c, 0, 80, 62
1, 496080, Note_on_c, 0, 84, 62
1, 496080, Note_on_c, 0, 44, 37
1, 496090, Control_c, 0, 64, 0
1, 496186, Control_c, 0, 64, 127
1, 496200, Note_on_c, 0, 44, 0
1, 496200, Note_on_c, 0, 53, 39
1, 496320, Note_on_c, 0, 53, 0
1, 496320, Note_on_c, 0, 56, 40
1, 496440, Note_on_c, 0, 56, 0
1, 496440, Note_on_c, 0, 61, 42
1, 496560, Note_on_c, 0, 61, 0
1, 496560, Note_on_c, 0, 56, 40
1, 496680, Note_on_c, 0, 56, 0
1, 496680, Note_on_c, 0, 53, 38
1, 496800, Tempo, 433213
1, 496800, Note_on_c, 0, 53, 0
1, 496800, Note_on_c, 0, 84, 0
1, 496800, Note_on_c, 0, 80, 0
1, 496800, Note_on_c, 0, 72, 0
1, 496800, Note_on_c, 0, 70, 54
1, 496800, Note_on_c, 0, 78, 64
1, 496800, Note_on_c, 0, 82, 64
1, 496800, Note_on_c, 0, 44, 35
1, 496809, Control_c, 0, 64, 0
1, 496892, Control_c, 0, 64, 127
1, 496920, Note_on_c, 0, 44, 0
1, 496920, Note_on_c, 0, 53, 35
1, 497040, Note_on_c, 0, 53, 0
1, 497040, Note_on_c, 0, 82, 0
1, 497040, Note_on_c, 0, 78, 0
1, 497040, Note_on_c, 0, 70, 0
1, 497040, Note_on_c, 0, 68, 57
1, 497040, Note_on_c, 0, 77, 68
1, 497040, Note_on_c, 0, 80, 68
1, 497040, Note_on_c, 0, 56, 37
1, 497160, Note_on_c, 0, 56, 0
1, 497160, Note_on_c, 0, 61, 39
1, 497280, Tempo, 470588
1, 497280, Note_on_c, 0, 61, 0
1, 497280, Note_on_c, 0, 80, 0
1, 497280, Note_on_c, 0, 77, 0
1, 497280, Note_on_c, 0, 68, 0
1, 497280, Note_on_c, 0, 70, 61
1, 497280, Note_on_c, 0, 77, 72
1, 497280, Note_on_c, 0, 82, 72
1, 497280, Note_on_c, 0, 56, 37
1, 497400, Note_on_c, 0, 56, 0
1, 497400, Note_on_c, 0, 53, 35
1, 497520, Note_on_c, 0, 53, 0
1, 497520, Note_on_c, 0, 82, 0
1, 497520, Note_on_c, 0, 77, 0
1, 497520, Note_on_c, 0, 70, 0
1, 497520, Note_on_c, 0, 77, 77
1, 497520, Note_on_c, 0, 71, 65
1, 497520, Note_on_c, 0, 83, 77
1, 497520, Note_on_c, 0, 44, 38
1, 497529, Control_c, 0, 64, 0
1, 497606, Control_c, 0, 64, 127
1, 497640, Note_on_c, 0, 44, 0
1, 497640, Note_on_c, 0, 53, 37
1, 497760, Note_on_c, 0, 53, 0
1, 497760, Note_on_c, 0, 56, 39
1, 497880, Note_on_c, 0, 56, 0
1, 497880, Note_on_c, 0, 62, 41
1, 498000, Note_on_c, 0, 62, 0
1, 498000, Note_on_c, 0, 83, 0
1, 498000, Note_on_c, 0, 71, 0
1, 498000, Note_on_c, 0, 77, 0
1, 498000, Note_on_c, 0, 77, 75
1, 498000, Note_on_c, 0, 70, 63
1, 498000, Note_on_c, 0, 82, 75
1, 498000, Note_on_c, 0, 56, 39
1, 498120, Note_on_c, 0, 56, 0
1, 498120, Note_on_c, 0, 53, 36
1, 498240, Note_on_c, 0, 53, 0
1, 498240, Note_on_c, 0, 82, 0
1, 498240, Note_on_c, 0, 70, 0
1, 498240, Note_on_c, 0, 77, 0
1, 498240, Note_on_c, 0, 71, 66
1, 498240, Note_on_c, 0, 77, 78
1, 498240, Note_on_c, 0, 83, 78
1, 498240, Note_on_c, 0, 44, 40
1, 498246, Control_c, 0, 64, 0
1, 498297, Control_c, 0, 64, 127
1, 498360, Note_on_c, 0, 44, 0
1, 498360, Note_on_c, 0, 53, 39
1, 498480, Note_on_c, 0, 53, 0
1, 498480, Note_on_c, 0, 56, 43
1, 498600, Note_on_c, 0, 56, 0
1, 498600, Note_on_c, 0, 62, 48
1, 498720, Note_on_c, 0, 62, 0
1, 498720, Note_on_c, 0, 56, 45
1, 498840, Note_on_c, 0, 56, 0
1, 498840, Note_on_c, 0, 53, 41
1, 498960, Note_on_c, 0, 53, 0
1, 498960, Note_on_c, 0, 44, 40
1, 499080, Note_on_c, 0, 44, 0
1, 499080, Note_on_c, 0, 53, 40
1, 499200, Note_on_c, 0, 53, 0
1, 499200, Note_on_c, 0, 56, 43
1, 499320, Note_on_c, 0, 56, 0
1, 499320, Note_on_c, 0, 62, 45
1, 499440, Tempo, 418118
1, 499440, Note_on_c, 0, 62, 0
1, 499440, Note_on_c, 0, 83, 0
1, 499440, Note_on_c, 0, 77, 0
1, 499440, Note_on_c, 0, 71, 0
1, 499440, Note_on_c, 0, 70, 64
1, 499440, Note_on_c, 0, 77, 76
1, 499440, Note_on_c, 0, 82, 76
1, 499440, Note_on_c, 0, 56, 42
1, 499560, Note_on_c, 0, 56, 0
1, 499560, Note_on_c, 0, 53, 36
1, 499680, Tempo, 412371
1, 499680, Note_on_c, 0, 53, 0
1, 499680, Note_on_c, 0, 82, 0
1, 499680, Note_on_c, 0, 77, 0
1, 499680, Note_on_c, 0, 70, 0
1, 499680, Note_on_c, 0, 71, 68
1, 499680, Note_on_c, 0, 77, 81
1, 499680, Note_on_c, 0, 83, 81
1, 499680, Note_on_c, 0, 44, 52
1, 499689, Control_c, 0, 64, 0
1, 499777, Control_c, 0, 64, 127
1, 499800, Note_on_c, 0, 44, 0
1, 499800, Note_on_c, 0, 53, 40
1, 499920, Note_on_c, 0, 53, 0
1, 499920, Note_on_c, 0, 83, 0
1, 499920, Note_on_c, 0, 77, 0
1, 499920, Note_on_c, 0, 71, 0
1, 499920, Note_on_c, 0, 70, 66
1, 499920, Note_on_c, 0, 77, 78
1, 499920, Note_on_c, 0, 82, 78
1, 499920, Note_on_c, 0, 56, 43
1, 500040, Note_on_c, 0, 56, 0
1, 500040, Note_on_c, 0, 62, 47
1, 500160, Note_on_c, 0, 62, 0
1, 500160, Note_on_c, 0, 82, 0
1, 500160, Note_on_c, 0, 77, 0
1, 500160, Note_on_c, 0, 70, 0
1, 500160, Note_on_c, 0, 71, 66
1, 500160, Note_on_c, 0, 77, 78
1, 500160, Note_on_c, 0, 83, 78
1, 500160, Note_on_c, 0, 56, 44
1, 500280, Note_on_c, 0, 56, 0
1, 500280, Note_on_c, 0, 53, 40
1, 500400, Note_on_c, 0, 53, 0
1, 500400, Note_on_c, 0, 83, 0
1, 500400, Note_on_c, 0, 77, 0
1, 500400, Note_on_c, 0, 71, 0
1, 500400, Note_on_c, 0, 71, 68
1, 500400, Note_on_c, 0, 78, 81
1, 500400, Note_on_c, 0, 83, 81
1, 500400, Note_on_c, 0, 44, 54
1, 500408, Control_c, 0, 64, 0
1, 500471, Control_c, 0, 64, 127
1, 500520, Note_on_c, 0, 44, 0
1, 500520, Note_on_c, 0, 51, 43
1, 500640, Note_on_c, 0, 51, 0
1, 500640, Note_on_c, 0, 54, 47
1, 500760, Note_on_c, 0, 54, 0
1, 500760, Note_on_c, 0, 63, 50
1, 500880, Tempo, 510638
1, 500880, Note_on_c, 0, 63, 0
1, 500880, Note_on_c, 0, 83, 0
1, 500880, Note_on_c, 0, 78, 0
1, 500880, Note_on_c, 0, 71, 0
1, 500880, Note_on_c, 0, 70, 69
1, 500880, Note_on_c, 0, 78, 82
1, 500880, Note_on_c, 0, 82, 82
1, 500880, Note_on_c, 0, 54, 46
1, 501000, Note_on_c, 0, 54, 0
1, 501000, Note_on_c, 0, 51, 43
1, 501120, Tempo, 466926
1, 501120, Note_on_c, 0, 51, 0
1, 501120, Note_on_c, 0, 82, 0
1, 501120, Note_on_c, 0, 78, 0
1, 501120, Note_on_c, 0, 70, 0
1, 501120, Note_on_c, 0, 73, 74
1, 501120, Note_on_c, 0, 79, 88
1, 501120, Note_on_c, 0, 85, 88
1, 501120, Note_on_c, 0, 44, 56
1, 501134, Control_c, 0, 64, 0
1, 501206, Control_c, 0, 64, 127
1, 501240, Note_on_c, 0, 44, 0
1, 501240, Note_on_c, 0, 52, 47
1, 501360, Note_on_c, 0, 52, 0
1, 501360, Note_on_c, 0, 55, 49
1, 501480, Note_on_c, 0, 55, 0
1, 501480, Note_on_c, 0, 64, 51
1, 501600, Note_on_c, 0, 64, 0
1, 501600, Note_on_c, 0, 55, 49
1, 501720, Note_on_c, 0, 55, 0
1, 501720, Note_on_c, 0, 52, 47
1, 501840, Note_on_c, 0, 52, 0
1, 501840, Note_on_c, 0, 44, 57
1, 501960, Note_on_c, 0, 44, 0
1, 501960, Note_on_c, 0, 52, 48
1, 502080, Note_on_c, 0, 52, 0
1, 502080, Note_on_c, 0, 55, 51
1, 502200, Note_on_c, 0, 55, 0
1, 502200, Note_on_c, 0, 64, 53
1, 502320, Tempo, 418118
1, 502320, Note_on_c, 0, 64, 0
1, 502320, Note_on_c, 0, 85, 0
1, 502320, Note_on_c, 0, 79, 0
1, 502320, Note_on_c, 0, 73, 0
1, 502320, Note_on_c, 0, 72, 69
1, 502320, Note_on_c, 0, 79, 82
1, 502320, Note_on_c, 0, 84, 82
1, 502320, Note_on_c, 0, 55, 51
1, 502440, Note_on_c, 0, 55, 0
1, 502440, Note_on_c, 0, 52, 49
1, 502560, Tempo, 412371
1, 502560, Note_on_c, 0, 52, 0
1, 502560, Note_on_c, 0, 84, 0
1, 502560, Note_on_c, 0, 79, 0
1, 502560, Note_on_c, 0, 72, 0
1, 502560, Note_on_c, 0, 73, 73
1, 502560, Note_on_c, 0, 79, 86
1, 502560, Note_on_c, 0, 85, 86
1, 502560, Note_on_c, 0, 44, 61
1, 502570, Control_c, 0, 64, 0
1, 502646, Control_c, 0, 64, 127
1, 502680, Note_on_c, 0, 44, 0
1, 502680, Note_on_c, 0, 52, 51
1, 502800, Note_on_c, 0, 52, 0
1, 502800, Note_on_c, 0, 85, 0
1, 502800, Note_on_c, 0, 79, 0
1, 502800, Note_on_c, 0, 73, 0
1, 502800, Note_on_c, 0, 72, 68
1, 502800, Note_on_c, 0, 79, 81
1, 502800, Note_on_c, 0, 84, 81
1, 502800, Note_on_c, 0, 55, 54
1, 502920, Note_on_c, 0, 55, 0
1, 502920, Note_on_c, 0, 64, 56
1, 503040, Note_on_c, 0, 64, 0
1, 503040, Note_on_c, 0, 84, 0
1, 503040, Note_on_c, 0, 79, 0
1, 503040, Note_on_c, 0, 72, 0
1, 503040, Note_on_c, 0, 73, 72
1, 503040, Note_on_c, 0, 79, 85
1, 503040, Note_on_c, 0, 85, 85
1, 503040, Note_on_c, 0, 55, 54
1, 503160, Note_on_c, 0, 55, 0
1, 503160, Note_on_c, 0, 52, 51
1, 503280, Note_on_c, 0, 52, 0
1, 503280, Note_on_c, 0, 85, 0
1, 503280, Note_on_c, 0, 79, 0
1, 503280, Note_on_c, 0, 73, 0
1, 503280, Note_on_c, 0, 73, 74
1, 503280, Note_on_c, 0, 80, 88
1, 503280, Note_on_c, 0, 85, 88
1, 503280, Note_on_c, 0, 44, 64
1, 503288, Control_c, 0, 64, 0
1, 503393, Control_c, 0, 64, 127
1, 503400, Note_on_c, 0, 44, 0
1, 503400, Note_on_c, 0, 53, 54
1, 503520, Note_on_c, 0, 53, 0
1, 503520, Note_on_c, 0, 56, 56
1, 503640, Note_on_c, 0, 56, 0
1, 503640, Note_on_c, 0, 65, 59
1, 503760, Tempo, 466926
1, 503760, Note_on_c, 0, 65, 0
1, 503760, Note_on_c, 0, 85, 0
1, 503760, Note_on_c, 0, 80, 0
1, 503760, Note_on_c, 0, 73, 0
1, 503760, Note_on_c, 0, 72, 77
1, 503760, Note_on_c, 0, 80, 91
1, 503760, Note_on_c, 0, 84, 91
1, 503760, Note_on_c, 0, 56, 55
1, 503880, Note_on_c, 0, 56, 0
1, 503880, Note_on_c, 0, 53, 52
1, 504000, Tempo, 412371
1, 504000, Note_on_c, 0, 53, 0
1, 504000, Note_on_c, 0, 84, 0
1, 504000, Note_on_c, 0, 80, 0
1, 504000, Note_on_c, 0, 72, 0
1, 504000, Note_on_c, 0, 81, 90
1, 504000, Note_on_c, 0, 75, 76
1, 504000, Note_on_c, 0, 87, 90
1, 504000, Note_on_c, 0, 44, 67
1, 504006, Control_c, 0, 64, 0
1, 504120, Note_on_c, 0, 44, 0
1, 504120, Control_c, 0, 64, 127
1, 504120, Note_on_c, 0, 51, 55
1, 504240, Note_on_c, 0, 51, 0
1, 504240, Note_on_c, 0, 54, 57
1, 504360, Note_on_c, 0, 54, 0
1, 504360, Note_on_c, 0, 60, 60
1, 504480, Note_on_c, 0, 60, 0
1, 504480, Note_on_c, 0, 87, 0
1, 504480, Note_on_c, 0, 75, 0
1, 504480, Note_on_c, 0, 81, 0
1, 504480, Note_on_c, 0, 87, 88
1, 504480, Note_on_c, 0, 81, 88
1, 504480, Note_on_c, 0, 75, 74
1, 504480, Note_on_c, 0, 54, 58
1, 504600, Note_on_c, 0, 54, 0
1, 504600, Note_on_c, 0, 51, 55
1, 504720, Note_on_c, 0, 51, 0
1, 504720, Note_on_c, 0, 75, 0
1, 504720, Note_on_c, 0, 81, 0
1, 504720, Note_on_c, 0, 87, 0
1, 504720, Note_on_c, 0, 87, 92
1, 504720, Note_on_c, 0, 80, 92
1, 504720, Note_on_c, 0, 75, 78
1, 504720, Note_on_c, 0, 44, 68
1, 504728, Control_c, 0, 64, 0
1, 504800, Control_c, 0, 64, 127
1, 504840, Note_on_c, 0, 44, 0
1, 504840, Note_on_c, 0, 47, 57
1, 504960, Note_on_c, 0, 47, 0
1, 504960, Note_on_c, 0, 53, 59
1, 505080, Note_on_c, 0, 53, 0
1, 505080, Note_on_c, 0, 59, 60
1, 505200, Tempo, 459770
1, 505200, Note_on_c, 0, 59, 0
1, 505200, Note_on_c, 0, 75, 0
1, 505200, Note_on_c, 0, 80, 0
1, 505200, Note_on_c, 0, 87, 0
1, 505200, Note_on_c, 0, 86, 88
1, 505200, Note_on_c, 0, 80, 88
1, 505200, Note_on_c, 0, 74, 74
1, 505200, Note_on_c, 0, 53, 59
1, 505320, Note_on_c, 0, 53, 0
1, 505320, Note_on_c, 0, 47, 57
1, 505440, Tempo, 412371
1, 505440, Note_on_c, 0, 47, 0
1, 505440, Note_on_c, 0, 74, 0
1, 505440, Note_on_c, 0, 80, 0
1, 505440, Note_on_c, 0, 86, 0
1, 505440, Note_on_c, 0, 89, 99
1, 505440, Note_on_c, 0, 83, 99
1, 505440, Note_on_c, 0, 77, 84
1, 505440, Note_on_c, 0, 44, 68
1, 505448, Control_c, 0, 64, 0
1, 505520, Control_c, 0, 64, 127
1, 505560, Note_on_c, 0, 44, 0
1, 505560, Note_on_c, 0, 53, 56
1, 505680, Note_on_c, 0, 53, 0
1, 505680, Note_on_c, 0, 56, 60
1, 505800, Note_on_c, 0, 56, 0
1, 505800, Note_on_c, 0, 62, 62
1, 505920, Note_on_c, 0, 62, 0
1, 505920, Note_on_c, 0, 77, 0
1, 505920, Note_on_c, 0, 83, 0
1, 505920, Note_on_c, 0, 89, 0
1, 505920, Note_on_c, 0, 89, 95
1, 505920, Note_on_c, 0, 83, 95
1, 505920, Note_on_c, 0, 77, 80
1, 505920, Note_on_c, 0, 56, 60
1, 506040, Note_on_c, 0, 56, 0
1, 506040, Note_on_c, 0, 53, 57
1, 506160, Note_on_c, 0, 53, 0
1, 506160, Note_on_c, 0, 77, 0
1, 506160, Note_on_c, 0, 83, 0
1, 506160, Note_on_c, 0, 89, 0
1, 506160, Note_on_c, 0, 89, 96
1, 506160, Note_on_c, 0, 82, 96
1, 506160, Note_on_c, 0, 77, 81
1, 506160, Note_on_c, 0, 44, 70
1, 506167, Control_c, 0, 64, 0
1, 506223, Control_c, 0, 64, 127
1, 506280, Note_on_c, 0, 44, 0
1, 506280, Note_on_c, 0, 49, 59
1, 506400, Note_on_c, 0, 49, 0
1, 506400, Note_on_c, 0, 55, 62
1, 506520, Note_on_c, 0, 55, 0
1, 506520, Note_on_c, 0, 61, 65
1, 506640, Tempo, 483871
1, 506640, Note_on_c, 0, 61, 0
1, 506640, Note_on_c, 0, 77, 0
1, 506640, Note_on_c, 0, 82, 0
1, 506640, Note_on_c, 0, 89, 0
1, 506640, Note_on_c, 0, 88, 96
1, 506640, Note_on_c, 0, 82, 96
1, 506640, Note_on_c, 0, 76, 81
1, 506640, Note_on_c, 0, 55, 62
1, 506760, Note_on_c, 0, 55, 0
1, 506760, Note_on_c, 0, 49, 59
1, 506880, Tempo, 415225
1, 506880, Note_on_c, 0, 49, 0
1, 506880, Note_on_c, 0, 76, 0
1, 506880, Note_on_c, 0, 82, 0
1, 506880, Note_on_c, 0, 88, 0
1, 506880, Note_on_c, 0, 91, 101
1, 506880, Note_on_c, 0, 85, 101
1, 506880, Note_on_c, 0, 79, 85
1, 506880, Note_on_c, 0, 44, 72
1, 506890, Control_c, 0, 64, 0
1, 506989, Control_c, 0, 64, 127
1, 507000, Note_on_c, 0, 44, 0
1, 507000, Note_on_c, 0, 52, 59
1, 507120, Note_on_c, 0, 52, 0
1, 507120, Note_on_c, 0, 58, 64
1, 507240, Note_on_c, 0, 58, 0
1, 507240, Note_on_c, 0, 64, 66
1, 507360, Tempo, 436364
1, 507360, Note_on_c, 0, 64, 0
1, 507360, Note_on_c, 0, 79, 0
1, 507360, Note_on_c, 0, 85, 0
1, 507360, Note_on_c, 0, 91, 0
1, 507360, Note_on_c, 0, 91, 98
1, 507360, Note_on_c, 0, 85, 98
1, 507360, Note_on_c, 0, 79, 83
1, 507360, Note_on_c, 0, 58, 62
1, 507480, Note_on_c, 0, 58, 0
1, 507480, Note_on_c, 0, 52, 59
1, 507600, Note_on_c, 0, 52, 0
1, 507600, Note_on_c, 0, 79, 0
1, 507600, Note_on_c, 0, 85, 0
1, 507600, Note_on_c, 0, 91, 0
1, 507600, Note_on_c, 0, 91, 98
1, 507600, Note_on_c, 0, 84, 98
1, 507600, Note_on_c, 0, 79, 83
1, 507600, Note_on_c, 0, 44, 72
1, 507606, Control_c, 0, 64, 0
1, 507720, Note_on_c, 0, 44, 0
1, 507720, Control_c, 0, 64, 127
1, 507720, Note_on_c, 0, 51, 58
1, 507840, Note_on_c, 0, 51, 0
1, 507840, Note_on_c, 0, 54, 63
1, 507960, Note_on_c, 0, 54, 0
1, 507960, Note_on_c, 0, 63, 68
1, 508080, Tempo, 563380
1, 508080, Note_on_c, 0, 63, 0
1, 508080, Note_on_c, 0, 79, 0
1, 508080, Note_on_c, 0, 84, 0
1, 508080, Note_on_c, 0, 91, 0
1, 508080, Note_on_c, 0, 92, 94
1, 508080, Note_on_c, 0, 84, 94
1, 508080, Note_on_c, 0, 80, 79
1, 508080, Note_on_c, 0, 54, 65
1, 508200, Note_on_c, 0, 54, 0
1, 508200, Note_on_c, 0, 51, 62
1, 508320, Tempo, 521739
1, 508320, Note_on_c, 0, 51, 0
1, 508320, Note_on_c, 0, 80, 0
1, 508320, Note_on_c, 0, 84, 0
1, 508320, Note_on_c, 0, 92, 0
1, 508320, Note_on_c, 0, 93, 110
1, 508320, Note_on_c, 0, 84, 110
1, 508320, Note_on_c, 0, 81, 93
1, 508320, Note_on_c, 0, 44, 72
1, 508330, Control_c, 0, 64, 0
1, 508405, Control_c, 0, 64, 127
1, 508440, Note_on_c, 0, 44, 0
1, 508440, Note_on_c, 0, 51, 60
1, 508560, Note_on_c, 0, 51, 0
1, 508560, Note_on_c, 0, 54, 64
1, 508680, Note_on_c, 0, 54, 0
1, 508680, Note_on_c, 0, 60, 69
1, 508800, Tempo, 502092
1, 508800, Note_on_c, 0, 60, 0
1, 508800, Note_on_c, 0, 81, 0
1, 508800, Note_on_c, 0, 84, 0
1, 508800, Note_on_c, 0, 93, 0
1, 508800, Note_on_c, 0, 84, 94
1, 508800, Note_on_c, 0, 78, 94
1, 508800, Note_on_c, 0, 72, 79
1, 508800, Note_on_c, 0, 54, 65
1, 508920, Note_on_c, 0, 54, 0
1, 508920, Note_on_c, 0, 51, 63
1, 509040, Tempo, 430108
1, 509040, Note_on_c, 0, 51, 0
1, 509040, Note_on_c, 0, 72, 0
1, 509040, Note_on_c, 0, 78, 0
1, 509040, Note_on_c, 0, 84, 0
1, 509040, Note_on_c, 0, 85, 109
1, 509040, Note_on_c, 0, 77, 109
1, 509040, Note_on_c, 0, 73, 92
1, 509040, Note_on_c, 0, 37, 78
1, 509058, Control_c, 0, 64, 0
1, 509132, Control_c, 0, 64, 127
1, 509220, Note_on_c, 0, 37, 0
1, 509220, Note_on_c, 0, 85, 0
1, 509220, Note_on_c, 0, 77, 0
1, 509220, Note_on_c, 0, 73, 0
1, 509520, Tempo, 379747
1, 509524, Note_on_c, 0, 44, 68
1, 509640, Note_on_c, 0, 51, 68
1, 509644, Note_on_c, 0, 44, 0
1, 509760, Tempo, 378549
1, 509760, Note_on_c, 0, 51, 0
1, 509760, Note_on_c, 0, 65, 97
1, 509760, Note_on_c, 0, 61, 83
1, 509880, Note_on_c, 0, 65, 0
1, 509880, Note_on_c, 0, 73, 75
1, 510000, Note_on_c, 0, 73, 0
1, 510000, Note_on_c, 0, 61, 0
1, 510000, Note_on_c, 0, 80, 79
1, 510120, Note_on_c, 0, 80, 0
1, 510120, Note_on_c, 0, 77, 83
1, 510240, Note_on_c, 0, 77, 0
1, 510240, Note_on_c, 0, 85, 87
1, 510360, Note_on_c, 0, 85, 0
1, 510360, Note_on_c, 0, 94, 91
1, 510480, Note_on_c, 0, 94, 0
1, 510480, Note_on_c, 0, 84, 96
1, 510480, Note_on_c, 0, 92, 96
1, 510480, Note_on_c, 0, 32, 87
1, 510488, Control_c, 0, 64, 0
1, 510582, Control_c, 0, 64, 127
1, 510600, Note_on_c, 0, 32, 0
1, 510720, Note_on_c, 0, 92, 0
1, 510720, Note_on_c, 0, 84, 0
1, 510960, Note_on_c, 0, 44, 68
1, 511080, Note_on_c, 0, 44, 0
1, 511080, Note_on_c, 0, 51, 74
1, 511200, Tempo, 369231
1, 511200, Note_on_c, 0, 51, 0
1, 511200, Note_on_c, 0, 66, 97
1, 511200, Note_on_c, 0, 60, 84
1, 511320, Note_on_c, 0, 66, 0
1, 511320, Note_on_c, 0, 72, 75
1, 511440, Note_on_c, 0, 72, 0
1, 511440, Note_on_c, 0, 60, 0
1, 511440, Note_on_c, 0, 80, 80
1, 511560, Note_on_c, 0, 80, 0
1, 511560, Note_on_c, 0, 78, 84
1, 511680, Note_on_c, 0, 78, 0
1, 511680, Note_on_c, 0, 84, 88
1, 511800, Note_on_c, 0, 84, 0
1, 511800, Note_on_c, 0, 92, 93
1, 511920, Note_on_c, 0, 92, 0
1, 511920, Note_on_c, 0, 85, 97
1, 511920, Note_on_c, 0, 89, 97
1, 511920, Note_on_c, 0, 37, 87
1, 511926, Control_c, 0, 64, 0
1, 512040, Note_on_c, 0, 37, 0
1, 512047, Control_c, 0, 64, 127
1, 512160, Note_on_c, 0, 89, 0
1, 512160, Note_on_c, 0, 85, 0
1, 512400, Note_on_c, 0, 44, 70
1, 512520, Note_on_c, 0, 44, 0
1, 512520, Note_on_c, 0, 53, 75
1, 512640, Tempo, 378549
1, 512640, Note_on_c, 0, 53, 0
1, 512640, Note_on_c, 0, 65, 97
1, 512640, Note_on_c, 0, 61, 83
1, 512760, Note_on_c, 0, 65, 0
1, 512760, Note_on_c, 0, 73, 75
1, 512880, Note_on_c, 0, 73, 0
1, 512880, Note_on_c, 0, 61, 0
1, 512880, Note_on_c, 0, 80, 79
1, 513000, Note_on_c, 0, 80, 0
1, 513000, Note_on_c, 0, 77, 83
1, 513120, Note_on_c, 0, 77, 0
1, 513120, Note_on_c, 0, 85, 87
1, 513240, Note_on_c, 0, 85, 0
1, 513240, Note_on_c, 0, 94, 91
1, 513360, Note_on_c, 0, 94, 0
1, 513360, Note_on_c, 0, 84, 96
1, 513360, Note_on_c, 0, 92, 96
1, 513360, Note_on_c, 0, 32, 87
1, 513366, Control_c, 0, 64, 0
1, 513470, Control_c, 0, 64, 127
1, 513480, Note_on_c, 0, 32, 0
1, 513600, Note_on_c, 0, 92, 0
1, 513600, Note_on_c, 0, 84, 0
1, 513840, Note_on_c, 0, 44, 68
1, 513960, Note_on_c, 0, 44, 0
1, 513960, Note_on_c, 0, 51, 74
1, 514080, Tempo, 365854
1, 514080, Note_on_c, 0, 51, 0
1, 514080, Note_on_c, 0, 66, 97
1, 514080, Note_on_c, 0, 60, 84
1, 514200, Note_on_c, 0, 66, 0
1, 514200, Note_on_c, 0, 72, 75
1, 514320, Note_on_c, 0, 72, 0
1, 514320, Note_on_c, 0, 60, 0
1, 514320, Note_on_c, 0, 80, 80
1, 514440, Note_on_c, 0, 80, 0
1, 514440, Note_on_c, 0, 78, 84
1, 514560, Note_on_c, 0, 78, 0
1, 514560, Note_on_c, 0, 84, 88
1, 514680, Note_on_c, 0, 84, 0
1, 514680, Note_on_c, 0, 92, 93
1, 514740, Tempo, 745342
1, 514740, Note_on_c, 0, 92, 0
1, 514740, Note_on_c, 0, 85, 100
1, 514740, Control_c, 0, 64, 0
1, 514800, Key_signature, 3, "major"
1, 514800, Tempo, 338028
1, 514800, Note_on_c, 0, 85, 0
1, 514800, Note_on_c, 0, 97, 113
1, 514800, Note_on_c, 0, 33, 97
1, 514800, Note_on_c, 0, 45, 97
1, 514920, Note_on_c, 0, 45, 0
1, 514920, Note_on_c, 0, 33, 0
1, 515040, Note_on_c, 0, 97, 0
1, 515040, Note_on_c, 0, 95, 111
1, 515040, Note_on_c, 0, 39, 82
1, 515040, Note_on_c, 0, 51, 82
1, 515160, Note_on_c, 0, 95, 0
1, 515160, Note_on_c, 0, 93, 103
1, 515280, Tempo, 353982
1, 515280, Note_on_c, 0, 93, 0
1, 515280, Note_on_c, 0, 51, 0
1, 515280, Note_on_c, 0, 39, 0
1, 515280, Note_on_c, 0, 88, 107
1, 515280, Note_on_c, 0, 40, 90
1, 515280, Note_on_c, 0, 52, 90
1, 515400, Note_on_c, 0, 88, 0
1, 515400, Note_on_c, 0, 85, 98
1, 515520, Tempo, 330579
1, 515520, Note_on_c, 0, 85, 0
1, 515520, Note_on_c, 0, 52, 0
1, 515520, Note_on_c, 0, 40, 0
1, 515520, Note_on_c, 0, 83, 102
1, 515520, Note_on_c, 0, 40, 90
1, 515520, Note_on_c, 0, 52, 90
1, 515620, Tempo, 331492
1, 515640, Note_on_c, 0, 83, 0
1, 515640, Note_on_c, 0, 81, 94
1, 515700, Tempo, 332410
1, 515760, Note_on_c, 0, 81, 0
1, 515760, Note_on_c, 0, 76, 98
1, 515800, Tempo, 333333
1, 515880, Tempo, 334262
1, 515880, Note_on_c, 0, 76, 0
1, 515880, Note_on_c, 0, 73, 91
1, 515980, Tempo, 335196
1, 516000, Note_on_c, 0, 73, 0
1, 516000, Note_on_c, 0, 71, 94
1, 516060, Tempo, 336134
1, 516120, Note_on_c, 0, 71, 0
1, 516120, Note_on_c, 0, 69, 85
1, 516160, Tempo, 337079
1, 516240, Tempo, 338028
1, 516240, Note_on_c, 0, 69, 0
1, 516240, Note_on_c, 0, 52, 0
1, 516240, Note_on_c, 0, 40, 0
1, 516240, Note_on_c, 0, 64, 90
1, 516360, Note_on_c, 0, 64, 0
1, 516360, Note_on_c, 0, 61, 82
1, 516480, Note_on_c, 0, 61, 0
1, 516480, Note_on_c, 0, 59, 85
1, 516480, Note_on_c, 0, 39, 77
1, 516544, Control_c, 0, 64, 127
1, 516600, Note_on_c, 0, 59, 0
1, 516600, Note_on_c, 0, 57, 77
1, 516720, Tempo, 352941
1, 516720, Note_on_c, 0, 57, 0
1, 516720, Note_on_c, 0, 39, 0
1, 516720, Note_on_c, 0, 52, 81
1, 516720, Note_on_c, 0, 40, 77
1, 516960, Tempo, 340909
1, 516960, Note_on_c, 0, 40, 0
1, 516960, Note_on_c, 0, 52, 0
1, 516960, Note_on_c, 0, 53, 93
1, 516960, Note_on_c, 0, 65, 93
1, 516960, Note_on_c, 0, 33, 81
1, 516960, Note_on_c, 0, 41, 81
1, 516971, Control_c, 0, 64, 0
1, 517440, Note_on_c, 0, 41, 0
1, 517440, Note_on_c, 0, 53, 0
1, 517440, Note_on_c, 0, 65, 0
1, 517440, Note_on_c, 0, 33, 0
1, 517440, Note_on_c, 0, 52, 87
1, 517440, Note_on_c, 0, 64, 87
1, 517440, Note_on_c, 0, 40, 75
1, 517440, Note_on_c, 0, 33, 75
1, 517620, Tempo, 745342
1, 517620, Note_on_c, 0, 64, 0
1, 517620, Note_on_c, 0, 52, 0
1, 517620, Note_on_c, 0, 85, 100
1, 517680, Tempo, 338028
1, 517680, Note_on_c, 0, 85, 0
1, 517680, Note_on_c, 0, 40, 0
1, 517680, Note_on_c, 0, 33, 0
1, 517680, Note_on_c, 0, 97, 113
1, 517680, Note_on_c, 0, 33, 97
1, 517680, Note_on_c, 0, 45, 97
1, 517751, Control_c, 0, 64, 127
1, 517800, Note_on_c, 0, 45, 0
1, 517800, Note_on_c, 0, 33, 0
1, 517920, Note_on_c, 0, 97, 0
1, 517920, Note_on_c, 0, 95, 111
1, 517920, Note_on_c, 0, 39, 82
1, 517920, Note_on_c, 0, 51, 82
1, 518040, Note_on_c, 0, 95, 0
1, 518040, Note_on_c, 0, 93, 103
1, 518160, Tempo, 353982
1, 518160, Note_on_c, 0, 93, 0
1, 518160, Note_on_c, 0, 51, 0
1, 518160, Note_on_c, 0, 39, 0
1, 518160, Note_on_c, 0, 88, 107
1, 518160, Note_on_c, 0, 40, 90
1, 518160, Note_on_c, 0, 52, 90
1, 518280, Note_on_c, 0, 88, 0
1, 518280, Note_on_c, 0, 85, 98
1, 518400, Tempo, 332410
1, 518400, Note_on_c, 0, 85, 0
1, 518400, Note_on_c, 0, 52, 0
1, 518400, Note_on_c, 0, 40, 0
1, 518400, Note_on_c, 0, 83, 102
1, 518400, Note_on_c, 0, 40, 90
1, 518400, Note_on_c, 0, 52, 90
1, 518464, Control_c, 0, 64, 0
1, 518520, Tempo, 333333
1, 518520, Note_on_c, 0, 83, 0
1, 518520, Note_on_c, 0, 81, 96
1, 518640, Tempo, 334262
1, 518640, Note_on_c, 0, 81, 0
1, 518640, Note_on_c, 0, 76, 98
1, 518760, Tempo, 335196
1, 518760, Note_on_c, 0, 76, 0
1, 518760, Note_on_c, 0, 73, 91
1, 518880, Tempo, 336134
1, 518880, Note_on_c, 0, 73, 0
1, 518880, Note_on_c, 0, 71, 94
1, 519000, Tempo, 337079
1, 519000, Note_on_c, 0, 71, 0
1, 519000, Note_on_c, 0, 69, 87
1, 519120, Tempo, 338028
1, 519120, Note_on_c, 0, 69, 0
1, 519120, Note_on_c, 0, 52, 0
1, 519120, Note_on_c, 0, 40, 0
1, 519120, Note_on_c, 0, 64, 90
1, 519240, Note_on_c, 0, 64, 0
1, 519240, Note_on_c, 0, 61, 82
1, 519360, Note_on_c, 0, 61, 0
1, 519360, Note_on_c, 0, 59, 85
1, 519360, Note_on_c, 0, 39, 77
1, 519381, Control_c, 0, 64, 127
1, 519480, Note_on_c, 0, 59, 0
1, 519480, Note_on_c, 0, 57, 78
1, 519600, Tempo, 352941
1, 519600, Note_on_c, 0, 57, 0
1, 519600, Note_on_c, 0, 39, 0
1, 519600, Note_on_c, 0, 52, 81
1, 519600, Note_on_c, 0, 40, 77
1, 519840, Tempo, 332410
1, 519840, Note_on_c, 0, 40, 0
1, 519840, Note_on_c, 0, 52, 0
1, 519840, Note_on_c, 0, 53, 93
1, 519840, Note_on_c, 0, 65, 93
1, 519840, Note_on_c, 0, 33, 81
1, 519840, Note_on_c, 0, 41, 81
1, 519848, Control_c, 0, 64, 0
1, 520320, Note_on_c, 0, 41, 0
1, 520320, Note_on_c, 0, 53, 0
1, 520320, Note_on_c, 0, 65, 0
1, 520320, Note_on_c, 0, 33, 0
1, 520320, Note_on_c, 0, 52, 87
1, 520320, Note_on_c, 0, 64, 87
1, 520320, Note_on_c, 0, 40, 75
1, 520320, Note_on_c, 0, 33, 75
1, 520560, Key_signature, -5, "major"
1, 520560, Tempo, 284360
1, 520560, Note_on_c, 0, 33, 0
1, 520560, Note_on_c, 0, 52, 0
1, 520560, Note_on_c, 0, 64, 0
1, 520560, Note_on_c, 0, 40, 0
1, 520560, Note_on_c, 0, 53, 87
1, 520560, Note_on_c, 0, 65, 87
1, 520560, Note_on_c, 0, 33, 87
1, 520560, Note_on_c, 0, 41, 87
1, 520617, Control_c, 0, 64, 127
1, 520740, Note_on_c, 0, 41, 0
1, 520740, Note_on_c, 0, 53, 0
1, 520740, Note_on_c, 0, 65, 0
1, 520740, Note_on_c, 0, 33, 0
1, 520800, Note_on_c, 0, 53, 43
1, 520803, Control_c, 0, 64, 0
1, 520920, Note_on_c, 0, 53, 0
1, 520920, Note_on_c, 0, 57, 45
1, 521040, Note_on_c, 0, 57, 0
1, 521040, Note_on_c, 0, 61, 46
1, 521040, Note_on_c, 0, 33, 38
1, 521040, Note_on_c, 0, 45, 38
1, 521100, Control_c, 0, 64, 127
1, 521160, Note_on_c, 0, 61, 0
1, 521160, Note_on_c, 0, 65, 48
1, 521280, Note_on_c, 0, 65, 0
1, 521280, Note_on_c, 0, 45, 0
1, 521280, Note_on_c, 0, 33, 0
1, 521280, Note_on_c, 0, 73, 54
1, 521280, Note_on_c, 0, 77, 54
1, 521280, Note_on_c, 0, 41, 42
1, 521280, Note_on_c, 0, 53, 42
1, 521520, Note_on_c, 0, 53, 0
1, 521520, Note_on_c, 0, 73, 0
1, 521520, Note_on_c, 0, 77, 0
1, 521520, Note_on_c, 0, 41, 0
1, 521520, Note_on_c, 0, 53, 43
1, 521529, Control_c, 0, 64, 0
1, 521640, Note_on_c, 0, 53, 0
1, 521640, Note_on_c, 0, 57, 44
1, 521760, Note_on_c, 0, 57, 0
1, 521760, Note_on_c, 0, 61, 45
1, 521760, Note_on_c, 0, 33, 39
1, 521760, Note_on_c, 0, 45, 39
1, 521812, Control_c, 0, 64, 127
1, 521880, Note_on_c, 0, 61, 0
1, 521880, Note_on_c, 0, 65, 46
1, 522000, Note_on_c, 0, 65, 0
1, 522000, Note_on_c, 0, 45, 0
1, 522000, Note_on_c, 0, 33, 0
1, 522000, Note_on_c, 0, 73, 54
1, 522000, Note_on_c, 0, 77, 54
1, 522000, Note_on_c, 0, 41, 43
1, 522000, Note_on_c, 0, 53, 43
1, 522240, Tempo, 289855
1, 522240, Note_on_c, 0, 53, 0
1, 522240, Note_on_c, 0, 73, 0
1, 522240, Note_on_c, 0, 77, 0
1, 522240, Note_on_c, 0, 41, 0
1, 522240, Note_on_c, 0, 53, 46
1, 522249, Control_c, 0, 64, 0
1, 522360, Note_on_c, 0, 53, 0
1, 522360, Note_on_c, 0, 58, 46
1, 522480, Note_on_c, 0, 58, 0
1, 522480, Note_on_c, 0, 61, 47
1, 522480, Note_on_c, 0, 34, 39
1, 522480, Note_on_c, 0, 46, 39
1, 522508, Control_c, 0, 64, 127
1, 522600, Note_on_c, 0, 61, 0
1, 522600, Note_on_c, 0, 65, 47
1, 522720, Tempo, 289855
1, 522720, Note_on_c, 0, 65, 0
1, 522720, Note_on_c, 0, 46, 0
1, 522720, Note_on_c, 0, 34, 0
1, 522720, Note_on_c, 0, 73, 54
1, 522720, Note_on_c, 0, 77, 54
1, 522720, Note_on_c, 0, 41, 43
1, 522720, Note_on_c, 0, 53, 43
1, 522960, Tempo, 292683
1, 522960, Note_on_c, 0, 53, 0
1, 522960, Note_on_c, 0, 73, 0
1, 522960, Note_on_c, 0, 77, 0
1, 522960, Note_on_c, 0, 41, 0
1, 522960, Note_on_c, 0, 53, 45
1, 522970, Control_c, 0, 64, 0
1, 523080, Note_on_c, 0, 53, 0
1, 523080, Note_on_c, 0, 58, 46
1, 523200, Note_on_c, 0, 58, 0
1, 523200, Note_on_c, 0, 62, 47
1, 523200, Note_on_c, 0, 34, 40
1, 523200, Note_on_c, 0, 46, 40
1, 523229, Control_c, 0, 64, 127
1, 523320, Note_on_c, 0, 62, 0
1, 523320, Note_on_c, 0, 65, 49
1, 523440, Note_on_c, 0, 65, 0
1, 523440, Note_on_c, 0, 46, 0
1, 523440, Note_on_c, 0, 34, 0
1, 523440, Note_on_c, 0, 74, 55
1, 523440, Note_on_c, 0, 77, 55
1, 523440, Note_on_c, 0, 41, 44
1, 523440, Note_on_c, 0, 53, 44
1, 523680, Note_on_c, 0, 53, 0
1, 523680, Note_on_c, 0, 74, 0
1, 523680, Note_on_c, 0, 77, 0
1, 523680, Note_on_c, 0, 41, 0
1, 523680, Note_on_c, 0, 54, 46
1, 523703, Control_c, 0, 64, 0
1, 523800, Note_on_c, 0, 54, 0
1, 523800, Note_on_c, 0, 58, 47
1, 523920, Note_on_c, 0, 58, 0
1, 523920, Note_on_c, 0, 62, 48
1, 523920, Note_on_c, 0, 34, 42
1, 523920, Note_on_c, 0, 46, 42
1, 523955, Control_c, 0, 64, 127
1, 524040, Note_on_c, 0, 62, 0
1, 524040, Note_on_c, 0, 66, 49
1, 524160, Note_on_c, 0, 66, 0
1, 524160, Note_on_c, 0, 46, 0
1, 524160, Note_on_c, 0, 34, 0
1, 524160, Note_on_c, 0, 74, 57
1, 524160, Note_on_c, 0, 78, 57
1, 524160, Note_on_c, 0, 42, 48
1, 524160, Note_on_c, 0, 54, 48
1, 524400, Tempo, 297030
1, 524400, Note_on_c, 0, 54, 0
1, 524400, Note_on_c, 0, 74, 0
1, 524400, Note_on_c, 0, 78, 0
1, 524400, Note_on_c, 0, 42, 0
1, 524400, Note_on_c, 0, 54, 47
1, 524418, Control_c, 0, 64, 0
1, 524520, Note_on_c, 0, 54, 0
1, 524520, Note_on_c, 0, 58, 48
1, 524640, Note_on_c, 0, 58, 0
1, 524640, Note_on_c, 0, 63, 49
1, 524640, Note_on_c, 0, 34, 44
1, 524640, Note_on_c, 0, 46, 44
1, 524725, Control_c, 0, 64, 127
1, 524760, Note_on_c, 0, 63, 0
1, 524760, Note_on_c, 0, 66, 51
1, 524880, Note_on_c, 0, 66, 0
1, 524880, Note_on_c, 0, 46, 0
1, 524880, Note_on_c, 0, 34, 0
1, 524880, Note_on_c, 0, 75, 57
1, 524880, Note_on_c, 0, 78, 57
1, 524880, Note_on_c, 0, 42, 48
1, 524880, Note_on_c, 0, 54, 48
1, 525120, Note_on_c, 0, 54, 0
1, 525120, Note_on_c, 0, 75, 0
1, 525120, Note_on_c, 0, 78, 0
1, 525120, Note_on_c, 0, 42, 0
1, 525120, Note_on_c, 0, 55, 47
1, 525134, Control_c, 0, 64, 0
1, 525240, Note_on_c, 0, 55, 0
1, 525240, Note_on_c, 0, 61, 48
1, 525360, Note_on_c, 0, 61, 0
1, 525360, Note_on_c, 0, 64, 50
1, 525360, Note_on_c, 0, 33, 46
1, 525360, Note_on_c, 0, 45, 46
1, 525412, Control_c, 0, 64, 127
1, 525480, Note_on_c, 0, 64, 0
1, 525480, Note_on_c, 0, 67, 51
1, 525600, Note_on_c, 0, 67, 0
1, 525600, Note_on_c, 0, 45, 0
1, 525600, Note_on_c, 0, 33, 0
1, 525600, Note_on_c, 0, 76, 60
1, 525600, Note_on_c, 0, 79, 60
1, 525600, Note_on_c, 0, 45, 51
1, 525600, Note_on_c, 0, 57, 51
1, 525840, Tempo, 300752
1, 525840, Note_on_c, 0, 57, 0
1, 525840, Note_on_c, 0, 76, 0
1, 525840, Note_on_c, 0, 79, 0
1, 525840, Note_on_c, 0, 45, 0
1, 525840, Note_on_c, 0, 68, 56
1, 525849, Control_c, 0, 64, 0
1, 525960, Note_on_c, 0, 68, 0
1, 525960, Note_on_c, 0, 73, 60
1, 526080, Note_on_c, 0, 73, 0
1, 526080, Note_on_c, 0, 77, 63
1, 526080, Note_on_c, 0, 32, 54
1, 526080, Note_on_c, 0, 44, 54
1, 526094, Control_c, 0, 64, 127
1, 526200, Note_on_c, 0, 77, 0
1, 526200, Note_on_c, 0, 80, 67
1, 526320, Note_on_c, 0, 44, 0
1, 526320, Note_on_c, 0, 32, 0
1, 526320, Note_on_c, 0, 92, 77
1, 526320, Note_on_c, 0, 89, 77
1, 526320, Note_on_c, 0, 85, 77
1, 526320, Note_on_c, 0, 65, 65
1, 526320, Note_on_c, 0, 61, 65
1, 526320, Note_on_c, 0, 56, 65
1, 526320, Note_on_c, 0, 53, 65
1, 526560, Note_on_c, 0, 53, 0
1, 526560, Note_on_c, 0, 80, 0
1, 526560, Note_on_c, 0, 65, 0
1, 526560, Note_on_c, 0, 92, 0
1, 526560, Note_on_c, 0, 89, 0
1, 526560, Note_on_c, 0, 85, 0
1, 526560, Note_on_c, 0, 61, 0
1, 526560, Note_on_c, 0, 56, 0
1, 526627, Control_c, 0, 64, 0
1, 526800, Tempo, 290557
1, 526800, Note_on_c, 0, 60, 63
1, 526800, Note_on_c, 0, 48, 58
1, 526880, Note_on_c, 0, 48, 0
1, 526880, Note_on_c, 0, 60, 0
1, 526880, Note_on_c, 0, 61, 64
1, 526880, Note_on_c, 0, 49, 60
1, 526960, Note_on_c, 0, 49, 0
1, 526960, Note_on_c, 0, 61, 0
1, 526960, Note_on_c, 0, 65, 66
1, 526960, Note_on_c, 0, 53, 61
1, 527040, Note_on_c, 0, 53, 0
1, 527040, Note_on_c, 0, 65, 0
1, 527040, Note_on_c, 0, 68, 68
1, 527040, Note_on_c, 0, 56, 63
1, 527280, Note_on_c, 0, 56, 0
1, 527280, Note_on_c, 0, 68, 0
1, 527520, Note_on_c, 0, 59, 62
1, 527520, Note_on_c, 0, 47, 58
1, 527600, Note_on_c, 0, 47, 0
1, 527600, Note_on_c, 0, 59, 0
1, 527600, Note_on_c, 0, 60, 63
1, 527600, Note_on_c, 0, 48, 60
1, 527680, Note_on_c, 0, 48, 0
1, 527680, Note_on_c, 0, 60, 0
1, 527680, Note_on_c, 0, 65, 65
1, 527680, Note_on_c, 0, 53, 62
1, 527760, Note_on_c, 0, 53, 0
1, 527760, Note_on_c, 0, 65, 0
1, 527760, Note_on_c, 0, 68, 67
1, 527760, Note_on_c, 0, 56, 64
1, 528000, Note_on_c, 0, 56, 0
1, 528000, Note_on_c, 0, 68, 0
1, 528240, Note_on_c, 0, 57, 62
1, 528240, Note_on_c, 0, 45, 57
1, 528320, Note_on_c, 0, 45, 0
1, 528320, Note_on_c, 0, 57, 0
1, 528320, Note_on_c, 0, 58, 64
1, 528320, Note_on_c, 0, 46, 58
1, 528400, Note_on_c, 0, 46, 0
1, 528400, Note_on_c, 0, 58, 0
1, 528400, Note_on_c, 0, 65, 66
1, 528400, Note_on_c, 0, 53, 61
1, 528480, Tempo, 283019
1, 528480, Note_on_c, 0, 53, 0
1, 528480, Note_on_c, 0, 65, 0
1, 528480, Note_on_c, 0, 68, 68
1, 528480, Note_on_c, 0, 56, 63
1, 528720, Note_on_c, 0, 56, 0
1, 528720, Note_on_c, 0, 68, 0
1, 529200, Note_on_c, 0, 56, 86
1, 529200, Control_c, 0, 64, 127
1, 529200, Note_on_c, 0, 32, 81
1, 529200, Note_on_c, 0, 44, 81
1, 529440, Note_on_c, 0, 44, 0
1, 529440, Note_on_c, 0, 32, 0
1, 529440, Note_on_c, 0, 56, 0
1, 529920, Note_on_c, 0, 92, 90
1, 529920, Note_on_c, 0, 89, 90
1, 529920, Note_on_c, 0, 80, 90
1, 529920, Note_on_c, 0, 66, 85
1, 529920, Note_on_c, 0, 72, 85
1, 529920, Note_on_c, 0, 77, 85
1, 530747, Control_c, 0, 64, 0
1, 530880, Tempo, 310881
1, 530880, Note_on_c, 0, 77, 0
1, 530880, Note_on_c, 0, 89, 0
1, 530880, Note_on_c, 0, 80, 0
1, 530880, Note_on_c, 0, 92, 0
1, 530880, Note_on_c, 0, 72, 0
1, 530880, Note_on_c, 0, 66, 0
1, 530880, Note_on_c, 0, 80, 77
1, 530880, Note_on_c, 0, 87, 77
1, 530880, Note_on_c, 0, 92, 77
1, 530880, Note_on_c, 0, 66, 65
1, 530880, Note_on_c, 0, 72, 65
1, 530880, Note_on_c, 0, 75, 65
1, 531120, Tempo, 299252
1, 531120, Note_on_c, 0, 75, 0
1, 531120, Note_on_c, 0, 87, 0
1, 531120, Note_on_c, 0, 92, 0
1, 531120, Note_on_c, 0, 80, 0
1, 531120, Note_on_c, 0, 72, 0
1, 531120, Note_on_c, 0, 66, 0
1, 531120, Note_on_c, 0, 80, 77
1, 531120, Note_on_c, 0, 89, 77
1, 531120, Note_on_c, 0, 92, 77
1, 531120, Note_on_c, 0, 66, 65
1, 531120, Note_on_c, 0, 72, 65
1, 531120, Note_on_c, 0, 77, 65
1, 531360, Tempo, 293399
1, 531360, Note_on_c, 0, 77, 0
1, 531360, Note_on_c, 0, 89, 0
1, 531360, Note_on_c, 0, 92, 0
1, 531360, Note_on_c, 0, 80, 0
1, 531360, Note_on_c, 0, 72, 0
1, 531360, Note_on_c, 0, 66, 0
1, 531360, Note_on_c, 0, 80, 75
1, 531360, Note_on_c, 0, 87, 75
1, 531360, Note_on_c, 0, 92, 75
1, 531360, Note_on_c, 0, 66, 63
1, 531360, Note_on_c, 0, 72, 63
1, 531360, Note_on_c, 0, 75, 63
1, 531600, Note_on_c, 0, 75, 0
1, 531600, Note_on_c, 0, 87, 0
1, 531600, Note_on_c, 0, 92, 0
1, 531600, Note_on_c, 0, 80, 0
1, 531600, Note_on_c, 0, 72, 0
1, 531600, Note_on_c, 0, 66, 0
1, 531600, Note_on_c, 0, 80, 80
1, 531600, Note_on_c, 0, 89, 80
1, 531600, Note_on_c, 0, 92, 80
1, 531600, Note_on_c, 0, 66, 67
1, 531600, Note_on_c, 0, 72, 67
1, 531600, Note_on_c, 0, 77, 67
1, 531840, Tempo, 277136
1, 531840, Note_on_c, 0, 77, 0
1, 531840, Note_on_c, 0, 89, 0
1, 531840, Note_on_c, 0, 92, 0
1, 531840, Note_on_c, 0, 80, 0
1, 531840, Note_on_c, 0, 72, 0
1, 531840, Note_on_c, 0, 66, 0
1, 531840, Note_on_c, 0, 80, 79
1, 531840, Note_on_c, 0, 92, 79
1, 531840, Note_on_c, 0, 87, 79
1, 531840, Note_on_c, 0, 75, 66
1, 531840, Note_on_c, 0, 72, 66
1, 531840, Note_on_c, 0, 66, 66
1, 532080, Note_on_c, 0, 66, 0
1, 532080, Note_on_c, 0, 92, 0
1, 532080, Note_on_c, 0, 87, 0
1, 532080, Note_on_c, 0, 80, 0
1, 532080, Note_on_c, 0, 72, 0
1, 532080, Note_on_c, 0, 75, 0
1, 532080, Note_on_c, 0, 92, 90
1, 532080, Note_on_c, 0, 89, 90
1, 532080, Note_on_c, 0, 85, 90
1, 532080, Note_on_c, 0, 80, 90
1, 532080, Note_on_c, 0, 65, 76
1, 532080, Note_on_c, 0, 68, 76
1, 532080, Note_on_c, 0, 73, 76
1, 532080, Note_on_c, 0, 77, 76
1, 532260, Note_on_c, 0, 77, 0
1, 532260, Note_on_c, 0, 92, 0
1, 532260, Note_on_c, 0, 65, 0
1, 532260, Note_on_c, 0, 89, 0
1, 532260, Note_on_c, 0, 85, 0
1, 532260, Note_on_c, 0, 80, 0
1, 532260, Note_on_c, 0, 68, 0
1, 532260, Note_on_c, 0, 73, 0
1, 532560, Tempo, 290557
1, 532560, Note_on_c, 0, 60, 63
1, 532560, Note_on_c, 0, 48, 58
1, 532640, Note_on_c, 0, 48, 0
1, 532640, Note_on_c, 0, 60, 0
1, 532640, Note_on_c, 0, 61, 64
1, 532640, Note_on_c, 0, 49, 60
1, 532720, Note_on_c, 0, 49, 0
1, 532720, Note_on_c, 0, 61, 0
1, 532720, Note_on_c, 0, 65, 66
1, 532720, Note_on_c, 0, 53, 61
1, 532800, Note_on_c, 0, 53, 0
1, 532800, Note_on_c, 0, 65, 0
1, 532800, Note_on_c, 0, 68, 68
1, 532800, Note_on_c, 0, 56, 63
1, 533040, Note_on_c, 0, 56, 0
1, 533040, Note_on_c, 0, 68, 0
1, 533280, Note_on_c, 0, 59, 62
1, 533280, Note_on_c, 0, 47, 58
1, 533360, Note_on_c, 0, 47, 0
1, 533360, Note_on_c, 0, 59, 0
1, 533360, Note_on_c, 0, 60, 63
1, 533360, Note_on_c, 0, 48, 60
1, 533440, Note_on_c, 0, 48, 0
1, 533440, Note_on_c, 0, 60, 0
1, 533440, Note_on_c, 0, 65, 65
1, 533440, Note_on_c, 0, 53, 62
1, 533520, Note_on_c, 0, 53, 0
1, 533520, Note_on_c, 0, 65, 0
1, 533520, Note_on_c, 0, 68, 67
1, 533520, Note_on_c, 0, 56, 64
1, 533760, Note_on_c, 0, 56, 0
1, 533760, Note_on_c, 0, 68, 0
1, 534000, Note_on_c, 0, 57, 62
1, 534000, Note_on_c, 0, 45, 57
1, 534080, Note_on_c, 0, 45, 0
1, 534080, Note_on_c, 0, 57, 0
1, 534080, Note_on_c, 0, 58, 64
1, 534080, Note_on_c, 0, 46, 58
1, 534160, Note_on_c, 0, 46, 0
1, 534160, Note_on_c, 0, 58, 0
1, 534160, Note_on_c, 0, 65, 66
1, 534160, Note_on_c, 0, 53, 61
1, 534240, Tempo, 283019
1, 534240, Note_on_c, 0, 53, 0
1, 534240, Note_on_c, 0, 65, 0
1, 534240, Note_on_c, 0, 68, 68
1, 534240, Note_on_c, 0, 56, 63
1, 534480, Note_on_c, 0, 56, 0
1, 534480, Note_on_c, 0, 68, 0
1, 534960, Note_on_c, 0, 56, 86
1, 534960, Control_c, 0, 64, 127
1, 534960, Note_on_c, 0, 32, 81
1, 534960, Note_on_c, 0, 44, 81
1, 535200, Note_on_c, 0, 44, 0
1, 535200, Note_on_c, 0, 32, 0
1, 535200, Note_on_c, 0, 56, 0
1, 535680, Note_on_c, 0, 92, 90
1, 535680, Note_on_c, 0, 89, 90
1, 535680, Note_on_c, 0, 80, 90
1, 535680, Note_on_c, 0, 66, 85
1, 535680, Note_on_c, 0, 72, 85
1, 535680, Note_on_c, 0, 77, 85
1, 536507, Control_c, 0, 64, 0
1, 536640, Tempo, 310881
1, 536640, Note_on_c, 0, 77, 0
1, 536640, Note_on_c, 0, 89, 0
1, 536640, Note_on_c, 0, 80, 0
1, 536640, Note_on_c, 0, 92, 0
1, 536640, Note_on_c, 0, 72, 0
1, 536640, Note_on_c, 0, 66, 0
1, 536640, Note_on_c, 0, 80, 74
1, 536640, Note_on_c, 0, 87, 74
1, 536640, Note_on_c, 0, 92, 74
1, 536640, Note_on_c, 0, 66, 70
1, 536640, Note_on_c, 0, 72, 70
1, 536640, Note_on_c, 0, 75, 70
1, 536880, Tempo, 299252
1, 536880, Note_on_c, 0, 75, 0
1, 536880, Note_on_c, 0, 87, 0
1, 536880, Note_on_c, 0, 92, 0
1, 536880, Note_on_c, 0, 80, 0
1, 536880, Note_on_c, 0, 72, 0
1, 536880, Note_on_c, 0, 66, 0
1, 536880, Note_on_c, 0, 80, 71
1, 536880, Note_on_c, 0, 89, 71
1, 536880, Note_on_c, 0, 92, 71
1, 536880, Note_on_c, 0, 66, 68
1, 536880, Note_on_c, 0, 72, 68
1, 536880, Note_on_c, 0, 77, 68
1, 537120, Tempo, 293399
1, 537120, Note_on_c, 0, 77, 0
1, 537120, Note_on_c, 0, 89, 0
1, 537120, Note_on_c, 0, 92, 0
1, 537120, Note_on_c, 0, 80, 0
1, 537120, Note_on_c, 0, 72, 0
1, 537120, Note_on_c, 0, 66, 0
1, 537120, Note_on_c, 0, 80, 68
1, 537120, Note_on_c, 0, 87, 68
1, 537120, Note_on_c, 0, 92, 68
1, 537120, Note_on_c, 0, 66, 66
1, 537120, Note_on_c, 0, 72, 66
1, 537120, Note_on_c, 0, 75, 66
1, 537360, Note_on_c, 0, 75, 0
1, 537360, Note_on_c, 0, 87, 0
1, 537360, Note_on_c, 0, 92, 0
1, 537360, Note_on_c, 0, 80, 0
1, 537360, Note_on_c, 0, 72, 0
1, 537360, Note_on_c, 0, 66, 0
1, 537360, Note_on_c, 0, 80, 66
1, 537360, Note_on_c, 0, 89, 66
1, 537360, Note_on_c, 0, 92, 66
1, 537360, Note_on_c, 0, 66, 64
1, 537360, Note_on_c, 0, 72, 64
1, 537360, Note_on_c, 0, 77, 64
1, 537600, Tempo, 277136
1, 537600, Note_on_c, 0, 77, 0
1, 537600, Note_on_c, 0, 89, 0
1, 537600, Note_on_c, 0, 92, 0
1, 537600, Note_on_c, 0, 80, 0
1, 537600, Note_on_c, 0, 72, 0
1, 537600, Note_on_c, 0, 66, 0
1, 537600, Note_on_c, 0, 80, 63
1, 537600, Note_on_c, 0, 92, 63
1, 537600, Note_on_c, 0, 87, 63
1, 537600, Note_on_c, 0, 75, 61
1, 537600, Note_on_c, 0, 72, 61
1, 537600, Note_on_c, 0, 66, 61
1, 537840, Tempo, 275229
1, 537840, Note_on_c, 0, 66, 0
1, 537840, Note_on_c, 0, 92, 0
1, 537840, Note_on_c, 0, 87, 0
1, 537840, Note_on_c, 0, 80, 0
1, 537840, Note_on_c, 0, 72, 0
1, 537840, Note_on_c, 0, 75, 0
1, 537840, Note_on_c, 0, 89, 59
1, 537840, Note_on_c, 0, 92, 59
1, 537840, Note_on_c, 0, 80, 59
1, 537840, Note_on_c, 0, 77, 59
1, 537840, Note_on_c, 0, 66, 59
1, 537840, Note_on_c, 0, 72, 59
1, 538320, Note_on_c, 0, 77, 0
1, 538320, Note_on_c, 0, 89, 0
1, 538320, Note_on_c, 0, 87, 59
1, 538320, Note_on_c, 0, 75, 56
1, 538560, Note_on_c, 0, 75, 0
1, 538560, Note_on_c, 0, 72, 0
1, 538560, Note_on_c, 0, 80, 0
1, 538560, Note_on_c, 0, 92, 0
1, 538560, Note_on_c, 0, 87, 0
1, 538560, Note_on_c, 0, 66, 0
1, 538560, Note_on_c, 0, 89, 58
1, 538560, Note_on_c, 0, 93, 58
1, 538560, Note_on_c, 0, 81, 58
1, 538560, Note_on_c, 0, 77, 55
1, 538560, Note_on_c, 0, 66, 55
1, 538560, Note_on_c, 0, 72, 55
1, 539040, Tempo, 271493
1, 539040, Note_on_c, 0, 77, 0
1, 539040, Note_on_c, 0, 89, 0
1, 539040, Note_on_c, 0, 87, 58
1, 539040, Note_on_c, 0, 75, 58
1, 539280, Note_on_c, 0, 75, 0
1, 539280, Note_on_c, 0, 72, 0
1, 539280, Note_on_c, 0, 81, 0
1, 539280, Note_on_c, 0, 93, 0
1, 539280, Note_on_c, 0, 87, 0
1, 539280, Note_on_c, 0, 66, 0
1, 539280, Note_on_c, 0, 89, 60
1, 539280, Note_on_c, 0, 81, 60
1, 539280, Note_on_c, 0, 93, 60
1, 539280, Note_on_c, 0, 77, 60
1, 539280, Note_on_c, 0, 66, 60
1, 539280, Note_on_c, 0, 72, 60
1, 539760, Note_on_c, 0, 77, 0
1, 539760, Note_on_c, 0, 89, 0
1, 539760, Note_on_c, 0, 87, 58
1, 539760, Note_on_c, 0, 75, 57
1, 540000, Note_on_c, 0, 75, 0
1, 540000, Note_on_c, 0, 72, 0
1, 540000, Note_on_c, 0, 93, 0
1, 540000, Note_on_c, 0, 81, 0
1, 540000, Note_on_c, 0, 87, 0
1, 540000, Note_on_c, 0, 66, 0
1, 540000, Note_on_c, 0, 90, 62
1, 540000, Note_on_c, 0, 82, 62
1, 540000, Note_on_c, 0, 94, 62
1, 540000, Note_on_c, 0, 78, 61
1, 540000, Note_on_c, 0, 67, 61
1, 540000, Note_on_c, 0, 73, 61
1, 540480, Tempo, 269058
1, 540480, Note_on_c, 0, 78, 0
1, 540480, Note_on_c, 0, 90, 0
1, 540480, Note_on_c, 0, 88, 63
1, 540480, Note_on_c, 0, 76, 63
1, 540720, Note_on_c, 0, 76, 0
1, 540720, Note_on_c, 0, 73, 0
1, 540720, Note_on_c, 0, 94, 0
1, 540720, Note_on_c, 0, 82, 0
1, 540720, Note_on_c, 0, 88, 0
1, 540720, Note_on_c, 0, 67, 0
1, 540720, Note_on_c, 0, 90, 64
1, 540720, Note_on_c, 0, 82, 64
1, 540720, Note_on_c, 0, 94, 64
1, 540720, Note_on_c, 0, 78, 67
1, 540720, Note_on_c, 0, 67, 67
1, 540720, Note_on_c, 0, 73, 67
1, 541200, Note_on_c, 0, 78, 0
1, 541200, Note_on_c, 0, 90, 0
1, 541200, Note_on_c, 0, 88, 70
1, 541200, Note_on_c, 0, 76, 69
1, 541440, Note_on_c, 0, 76, 0
1, 541440, Note_on_c, 0, 73, 0
1, 541440, Note_on_c, 0, 94, 0
1, 541440, Note_on_c, 0, 82, 0
1, 541440, Note_on_c, 0, 88, 0
1, 541440, Note_on_c, 0, 67, 0
1, 541440, Note_on_c, 0, 91, 74
1, 541440, Note_on_c, 0, 83, 74
1, 541440, Note_on_c, 0, 95, 74
1, 541440, Note_on_c, 0, 79, 72
1, 541440, Note_on_c, 0, 68, 72
1, 541440, Note_on_c, 0, 74, 72
1, 541920, Note_on_c, 0, 79, 0
1, 541920, Note_on_c, 0, 91, 0
1, 541920, Note_on_c, 0, 89, 73
1, 541920, Note_on_c, 0, 77, 74
1, 542160, Note_on_c, 0, 77, 0
1, 542160, Note_on_c, 0, 74, 0
1, 542160, Note_on_c, 0, 95, 0
1, 542160, Note_on_c, 0, 83, 0
1, 542160, Note_on_c, 0, 89, 0
1, 542160, Note_on_c, 0, 68, 0
1, 542160, Note_on_c, 0, 91, 78
1, 542160, Note_on_c, 0, 83, 78
1, 542160, Note_on_c, 0, 95, 78
1, 542160, Note_on_c, 0, 79, 75
1, 542160, Note_on_c, 0, 68, 75
1, 542160, Note_on_c, 0, 74, 75
1, 542640, Tempo, 281030
1, 542640, Note_on_c, 0, 79, 0
1, 542640, Note_on_c, 0, 91, 0
1, 542640, Note_on_c, 0, 89, 78
1, 542640, Note_on_c, 0, 77, 79
1, 542880, Note_on_c, 0, 77, 0
1, 542880, Note_on_c, 0, 74, 0
1, 542880, Note_on_c, 0, 95, 0
1, 542880, Note_on_c, 0, 83, 0
1, 542880, Note_on_c, 0, 89, 0
1, 542880, Note_on_c, 0, 68, 0
1, 542880, Note_on_c, 0, 92, 84
1, 542880, Note_on_c, 0, 96, 84
1, 542880, Note_on_c, 0, 84, 84
1, 542880, Note_on_c, 0, 80, 83
1, 542880, Note_on_c, 0, 68, 83
1, 542880, Note_on_c, 0, 75, 83
1, 543360, Tempo, 318302
1, 543360, Note_on_c, 0, 80, 0
1, 543360, Note_on_c, 0, 92, 0
1, 543360, Note_on_c, 0, 90, 86
1, 543360, Note_on_c, 0, 78, 86
1, 543600, Tempo, 307692
1, 543600, Note_on_c, 0, 78, 0
1, 543600, Note_on_c, 0, 75, 0
1, 543600, Note_on_c, 0, 84, 0
1, 543600, Note_on_c, 0, 96, 0
1, 543600, Note_on_c, 0, 90, 0
1, 543600, Note_on_c, 0, 68, 0
1, 543600, Note_on_c, 0, 101, 101
1, 543600, Note_on_c, 0, 37, 90
1, 543600, Note_on_c, 0, 49, 90
1, 543643, Control_c, 0, 64, 127
1, 543840, Note_on_c, 0, 49, 0
1, 543840, Note_on_c, 0, 37, 0
1, 543840, Note_on_c, 0, 101, 0
1, 543840, Note_on_c, 0, 99, 100
1, 543840, Note_on_c, 0, 43, 74
1, 543960, Note_on_c, 0, 99, 0
1, 543960, Note_on_c, 0, 97, 96
1, 544080, Note_on_c, 0, 97, 0
1, 544080, Note_on_c, 0, 43, 0
1, 544080, Note_on_c, 0, 92, 98
1, 544080, Note_on_c, 0, 44, 74
1, 544200, Note_on_c, 0, 92, 0
1, 544200, Note_on_c, 0, 89, 93
1, 544320, Tempo, 303797
1, 544320, Note_on_c, 0, 89, 0
1, 544320, Note_on_c, 0, 44, 0
1, 544320, Note_on_c, 0, 87, 95
1, 544320, Note_on_c, 0, 44, 79
1, 544329, Control_c, 0, 64, 0
1, 544391, Control_c, 0, 64, 127
1, 544420, Tempo, 304569
1, 544440, Note_on_c, 0, 87, 0
1, 544440, Note_on_c, 0, 85, 89
1, 544500, Tempo, 305344
1, 544560, Note_on_c, 0, 85, 0
1, 544560, Note_on_c, 0, 44, 0
1, 544560, Note_on_c, 0, 80, 92
1, 544560, Note_on_c, 0, 42, 62
1, 544560, Note_on_c, 0, 54, 62
1, 544600, Tempo, 306122
1, 544680, Tempo, 306905
1, 544680, Note_on_c, 0, 80, 0
1, 544680, Note_on_c, 0, 77, 86
1, 544760, Tempo, 307692
1, 544800, Note_on_c, 0, 77, 0
1, 544800, Note_on_c, 0, 54, 0
1, 544800, Note_on_c, 0, 42, 0
1, 544800, Note_on_c, 0, 75, 89
1, 544800, Note_on_c, 0, 41, 58
1, 544800, Note_on_c, 0, 53, 58
1, 544860, Tempo, 308483
1, 544920, Note_on_c, 0, 75, 0
1, 544920, Note_on_c, 0, 73, 83
1, 544940, Tempo, 309278
1, 545020, Tempo, 310078
1, 545040, Tempo, 309278
1, 545040, Note_on_c, 0, 73, 0
1, 545040, Note_on_c, 0, 53, 0
1, 545040, Note_on_c, 0, 41, 0
1, 545040, Note_on_c, 0, 68, 86
1, 545040, Note_on_c, 0, 41, 68
1, 545040, Note_on_c, 0, 53, 68
1, 545052, Control_c, 0, 64, 0
1, 545118, Control_c, 0, 64, 127
1, 545160, Note_on_c, 0, 53, 0
1, 545160, Note_on_c, 0, 41, 0
1, 545160, Note_on_c, 0, 68, 0
1, 545160, Note_on_c, 0, 65, 81
1, 545280, Note_on_c, 0, 65, 0
1, 545280, Note_on_c, 0, 63, 83
1, 545280, Note_on_c, 0, 43, 59
1, 545400, Note_on_c, 0, 63, 0
1, 545400, Note_on_c, 0, 61, 79
1, 545520, Tempo, 313316
1, 545520, Note_on_c, 0, 61, 0
1, 545520, Note_on_c, 0, 43, 0
1, 545520, Note_on_c, 0, 56, 80
1, 545520, Note_on_c, 0, 44, 59
1, 545760, Tempo, 301508
1, 545760, Note_on_c, 0, 44, 0
1, 545760, Note_on_c, 0, 56, 0
1, 545760, Note_on_c, 0, 65, 64
1, 545760, Note_on_c, 0, 57, 88
1, 545760, Note_on_c, 0, 69, 88
1, 545760, Note_on_c, 0, 45, 73
1, 545767, Control_c, 0, 64, 0
1, 546240, Note_on_c, 0, 45, 0
1, 546240, Note_on_c, 0, 69, 0
1, 546240, Note_on_c, 0, 57, 0
1, 546240, Note_on_c, 0, 56, 83
1, 546240, Note_on_c, 0, 68, 83
1, 546240, Note_on_c, 0, 44, 70
1, 546480, Tempo, 307692
1, 546480, Note_on_c, 0, 44, 0
1, 546480, Note_on_c, 0, 65, 0
1, 546480, Note_on_c, 0, 56, 0
1, 546480, Note_on_c, 0, 68, 0
1, 546480, Note_on_c, 0, 101, 100
1, 546480, Note_on_c, 0, 37, 90
1, 546480, Note_on_c, 0, 49, 90
1, 546558, Control_c, 0, 64, 127
1, 546720, Note_on_c, 0, 49, 0
1, 546720, Note_on_c, 0, 37, 0
1, 546720, Note_on_c, 0, 101, 0
1, 546720, Note_on_c, 0, 99, 99
1, 546720, Note_on_c, 0, 43, 73
1, 546840, Note_on_c, 0, 99, 0
1, 546840, Note_on_c, 0, 97, 92
1, 546960, Note_on_c, 0, 97, 0
1, 546960, Note_on_c, 0, 43, 0
1, 546960, Note_on_c, 0, 92, 96
1, 546960, Note_on_c, 0, 44, 75
1, 547080, Note_on_c, 0, 92, 0
1, 547080, Note_on_c, 0, 89, 91
1, 547200, Tempo, 303797
1, 547200, Note_on_c, 0, 89, 0
1, 547200, Note_on_c, 0, 44, 0
1, 547200, Note_on_c, 0, 87, 93
1, 547200, Note_on_c, 0, 44, 77
1, 547209, Control_c, 0, 64, 0
1, 547292, Control_c, 0, 64, 127
1, 547300, Tempo, 304569
1, 547320, Note_on_c, 0, 87, 0
1, 547320, Note_on_c, 0, 85, 88
1, 547380, Tempo, 305344
1, 547440, Note_on_c, 0, 85, 0
1, 547440, Note_on_c, 0, 44, 0
1, 547440, Note_on_c, 0, 80, 90
1, 547440, Note_on_c, 0, 42, 62
1, 547440, Note_on_c, 0, 54, 62
1, 547480, Tempo, 306122
1, 547560, Tempo, 306905
1, 547560, Note_on_c, 0, 80, 0
1, 547560, Note_on_c, 0, 77, 86
1, 547640, Tempo, 307692
1, 547680, Note_on_c, 0, 77, 0
1, 547680, Note_on_c, 0, 54, 0
1, 547680, Note_on_c, 0, 42, 0
1, 547680, Note_on_c, 0, 75, 87
1, 547680, Note_on_c, 0, 41, 58
1, 547680, Note_on_c, 0, 53, 58
1, 547740, Tempo, 308483
1, 547800, Note_on_c, 0, 75, 0
1, 547800, Note_on_c, 0, 73, 81
1, 547820, Tempo, 309278
1, 547900, Tempo, 310078
1, 547920, Tempo, 309278
1, 547920, Note_on_c, 0, 73, 0
1, 547920, Note_on_c, 0, 53, 0
1, 547920, Note_on_c, 0, 41, 0
1, 547920, Note_on_c, 0, 68, 84
1, 547920, Note_on_c, 0, 41, 68
1, 547920, Note_on_c, 0, 53, 68
1, 547935, Control_c, 0, 64, 0
1, 547998, Control_c, 0, 64, 127
1, 548040, Note_on_c, 0, 53, 0
1, 548040, Note_on_c, 0, 41, 0
1, 548040, Note_on_c, 0, 68, 0
1, 548040, Note_on_c, 0, 65, 79
1, 548160, Note_on_c, 0, 65, 0
1, 548160, Note_on_c, 0, 63, 82
1, 548160, Note_on_c, 0, 43, 59
1, 548280, Note_on_c, 0, 63, 0
1, 548280, Note_on_c, 0, 61, 76
1, 548400, Tempo, 313316
1, 548400, Note_on_c, 0, 61, 0
1, 548400, Note_on_c, 0, 43, 0
1, 548400, Note_on_c, 0, 56, 79
1, 548400, Note_on_c, 0, 44, 59
1, 548640, Tempo, 294118
1, 548640, Note_on_c, 0, 44, 0
1, 548640, Note_on_c, 0, 56, 0
1, 548640, Note_on_c, 0, 65, 82
1, 548640, Note_on_c, 0, 57, 82
1, 548640, Note_on_c, 0, 69, 82
1, 548640, Note_on_c, 0, 45, 73
1, 548648, Control_c, 0, 64, 0
1, 549120, Note_on_c, 0, 45, 0
1, 549120, Note_on_c, 0, 69, 0
1, 549120, Note_on_c, 0, 57, 0
1, 549120, Note_on_c, 0, 56, 77
1, 549120, Note_on_c, 0, 68, 77
1, 549120, Note_on_c, 0, 44, 70
1, 549360, Note_on_c, 0, 44, 0
1, 549360, Note_on_c, 0, 65, 0
1, 549360, Note_on_c, 0, 56, 0
1, 549360, Note_on_c, 0, 68, 0
1, 549360, Note_on_c, 0, 56, 70
1, 549360, Note_on_c, 0, 65, 70
1, 549360, Note_on_c, 0, 68, 70
1, 549360, Note_on_c, 0, 37, 60
1, 549360, Note_on_c, 0, 49, 60
1, 549480, Note_on_c, 0, 49, 0
1, 549480, Note_on_c, 0, 37, 0
1, 549600, Tempo, 286396
1, 549600, Note_on_c, 0, 56, 0
1, 549600, Note_on_c, 0, 65, 0
1, 549600, Note_on_c, 0, 68, 0
1, 549600, Note_on_c, 0, 43, 68
1, 549840, Note_on_c, 0, 43, 0
1, 549840, Note_on_c, 0, 44, 68
1, 550080, Tempo, 288462
1, 550080, Note_on_c, 0, 44, 0
1, 550080, Note_on_c, 0, 57, 82
1, 550080, Note_on_c, 0, 69, 82
1, 550320, Note_on_c, 0, 42, 70
1, 550320, Note_on_c, 0, 54, 70
1, 550560, Note_on_c, 0, 54, 0
1, 550560, Note_on_c, 0, 57, 0
1, 550560, Note_on_c, 0, 69, 0
1, 550560, Note_on_c, 0, 42, 0
1, 550560, Note_on_c, 0, 56, 77
1, 550560, Note_on_c, 0, 68, 77
1, 550560, Note_on_c, 0, 41, 70
1, 550560, Note_on_c, 0, 53, 70
1, 550800, Note_on_c, 0, 53, 0
1, 550800, Note_on_c, 0, 56, 0
1, 550800, Note_on_c, 0, 68, 0
1, 550800, Note_on_c, 0, 41, 0
1, 550800, Note_on_c, 0, 56, 71
1, 550800, Note_on_c, 0, 65, 71
1, 550800, Note_on_c, 0, 68, 71
1, 550800, Note_on_c, 0, 37, 63
1, 550800, Note_on_c, 0, 49, 63
1, 550920, Note_on_c, 0, 49, 0
1, 550920, Note_on_c, 0, 37, 0
1, 551040, Tempo, 279070
1, 551040, Note_on_c, 0, 56, 0
1, 551040, Note_on_c, 0, 65, 0
1, 551040, Note_on_c, 0, 68, 0
1, 551040, Note_on_c, 0, 43, 69
1, 551280, Note_on_c, 0, 43, 0
1, 551280, Note_on_c, 0, 44, 69
1, 551520, Tempo, 281690
1, 551520, Note_on_c, 0, 44, 0
1, 551520, Note_on_c, 0, 57, 83
1, 551520, Note_on_c, 0, 69, 83
1, 551760, Note_on_c, 0, 42, 70
1, 551760, Note_on_c, 0, 54, 70
1, 552000, Note_on_c, 0, 54, 0
1, 552000, Note_on_c, 0, 57, 0
1, 552000, Note_on_c, 0, 69, 0
1, 552000, Note_on_c, 0, 42, 0
1, 552000, Note_on_c, 0, 56, 77
1, 552000, Note_on_c, 0, 68, 77
1, 552000, Note_on_c, 0, 41, 70
1, 552000, Note_on_c, 0, 53, 70
1, 552240, Tempo, 275229
1, 552240, Note_on_c, 0, 53, 0
1, 552240, Note_on_c, 0, 56, 0
1, 552240, Note_on_c, 0, 68, 0
1, 552240, Note_on_c, 0, 41, 0
1, 552240, Note_on_c, 0, 56, 74
1, 552240, Note_on_c, 0, 65, 74
1, 552240, Note_on_c, 0, 68, 74
1, 552240, Note_on_c, 0, 37, 64
1, 552240, Note_on_c, 0, 49, 64
1, 552360, Note_on_c, 0, 49, 0
1, 552360, Note_on_c, 0, 37, 0
1, 552480, Note_on_c, 0, 56, 0
1, 552480, Note_on_c, 0, 65, 0
1, 552480, Note_on_c, 0, 68, 0
1, 552480, Note_on_c, 0, 43, 69
1, 552720, Note_on_c, 0, 43, 0
1, 552720, Note_on_c, 0, 44, 69
1, 552960, Tempo, 278422
1, 552960, Note_on_c, 0, 44, 0
1, 552960, Note_on_c, 0, 57, 86
1, 552960, Note_on_c, 0, 69, 86
1, 553200, Note_on_c, 0, 42, 70
1, 553200, Note_on_c, 0, 54, 70
1, 553440, Tempo, 286396
1, 553440, Note_on_c, 0, 54, 0
1, 553440, Note_on_c, 0, 57, 0
1, 553440, Note_on_c, 0, 69, 0
1, 553440, Note_on_c, 0, 42, 0
1, 553440, Note_on_c, 0, 56, 81
1, 553440, Note_on_c, 0, 68, 81
1, 553440, Note_on_c, 0, 41, 70
1, 553440, Note_on_c, 0, 53, 70
1, 553680, Note_on_c, 0, 53, 0
1, 553680, Note_on_c, 0, 56, 0
1, 553680, Note_on_c, 0, 68, 0
1, 553680, Note_on_c, 0, 41, 0
1, 553680, Note_on_c, 0, 57, 71
1, 553680, Note_on_c, 0, 65, 71
1, 553680, Note_on_c, 0, 69, 71
1, 553680, Note_on_c, 0, 37, 67
1, 553680, Note_on_c, 0, 45, 67
1, 553860, Note_on_c, 0, 45, 0
1, 553860, Note_on_c, 0, 69, 0
1, 553860, Note_on_c, 0, 57, 0
1, 553860, Note_on_c, 0, 65, 0
1, 553860, Note_on_c, 0, 37, 0
1, 553920, Note_on_c, 0, 56, 73
1, 553920, Note_on_c, 0, 65, 73
1, 553920, Note_on_c, 0, 68, 73
1, 553920, Note_on_c, 0, 37, 68
1, 553920, Note_on_c, 0, 44, 68
1, 554100, Note_on_c, 0, 44, 0
1, 554100, Note_on_c, 0, 68, 0
1, 554100, Note_on_c, 0, 56, 0
1, 554100, Note_on_c, 0, 65, 0
1, 554100, Note_on_c, 0, 37, 0
1, 554160, Tempo, 281030
1, 554160, Note_on_c, 0, 57, 74
1, 554160, Note_on_c, 0, 65, 74
1, 554160, Note_on_c, 0, 69, 74
1, 554160, Note_on_c, 0, 37, 70
1, 554160, Note_on_c, 0, 45, 70
1, 554340, Note_on_c, 0, 45, 0
1, 554340, Note_on_c, 0, 69, 0
1, 554340, Note_on_c, 0, 57, 0
1, 554340, Note_on_c, 0, 65, 0
1, 554340, Note_on_c, 0, 37, 0
1, 554400, Note_on_c, 0, 56, 76
1, 554400, Note_on_c, 0, 65, 76
1, 554400, Note_on_c, 0, 68, 76
1, 554400, Note_on_c, 0, 37, 71
1, 554400, Note_on_c, 0, 44, 71
1, 554580, Note_on_c, 0, 44, 0
1, 554580, Note_on_c, 0, 68, 0
1, 554580, Note_on_c, 0, 56, 0
1, 554580, Note_on_c, 0, 65, 0
1, 554580, Note_on_c, 0, 37, 0
1, 554640, Tempo, 275862
1, 554640, Note_on_c, 0, 57, 77
1, 554640, Note_on_c, 0, 65, 77
1, 554640, Note_on_c, 0, 69, 77
1, 554640, Note_on_c, 0, 37, 73
1, 554640, Note_on_c, 0, 45, 73
1, 554820, Note_on_c, 0, 45, 0
1, 554820, Note_on_c, 0, 69, 0
1, 554820, Note_on_c, 0, 57, 0
1, 554820, Note_on_c, 0, 65, 0
1, 554820, Note_on_c, 0, 37, 0
1, 554880, Note_on_c, 0, 56, 79
1, 554880, Note_on_c, 0, 65, 79
1, 554880, Note_on_c, 0, 68, 79
1, 554880, Note_on_c, 0, 37, 74
1, 554880, Note_on_c, 0, 44, 74
1, 555060, Note_on_c, 0, 44, 0
1, 555060, Note_on_c, 0, 68, 0
1, 555060, Note_on_c, 0, 56, 0
1, 555060, Note_on_c, 0, 65, 0
1, 555060, Note_on_c, 0, 37, 0
1, 555120, Tempo, 283688
1, 555120, Note_on_c, 0, 57, 89
1, 555120, Note_on_c, 0, 65, 89
1, 555120, Note_on_c, 0, 69, 89
1, 555120, Note_on_c, 0, 36, 84
1, 555120, Note_on_c, 0, 45, 84
1, 555166, Control_c, 0, 64, 127
1, 555300, Note_on_c, 0, 45, 0
1, 555300, Note_on_c, 0, 69, 0
1, 555300, Note_on_c, 0, 57, 0
1, 555300, Note_on_c, 0, 65, 0
1, 555300, Note_on_c, 0, 36, 0
1, 555840, Note_on_c, 0, 60, 85
1, 555840, Note_on_c, 0, 64, 85
1, 555840, Note_on_c, 0, 70, 100
1, 555840, Note_on_c, 0, 72, 100
1, 555840, Note_on_c, 0, 36, 85
1, 555840, Note_on_c, 0, 43, 101
1, 555840, Note_on_c, 0, 48, 101
1, 555850, Control_c, 0, 64, 0
1, 555989, Control_c, 0, 64, 127
1, 556080, Note_on_c, 0, 48, 0
1, 556080, Note_on_c, 0, 36, 0
1, 556080, Note_on_c, 0, 64, 0
1, 556080, Note_on_c, 0, 70, 0
1, 556080, Note_on_c, 0, 60, 0
1, 556080, Note_on_c, 0, 43, 0
1, 556080, Note_on_c, 0, 72, 0
1, 556560, Note_on_c, 0, 69, 85
1, 556560, Note_on_c, 0, 72, 100
1, 556560, Note_on_c, 0, 81, 100
1, 556560, Note_on_c, 0, 77, 100
1, 556560, Note_on_c, 0, 41, 85
1, 556560, Note_on_c, 0, 48, 101
1, 556560, Note_on_c, 0, 53, 101
1, 556570, Control_c, 0, 64, 0
1, 556732, Control_c, 0, 64, 127
1, 556800, Note_on_c, 0, 53, 0
1, 556800, Note_on_c, 0, 41, 0
1, 556800, Note_on_c, 0, 72, 0
1, 556800, Note_on_c, 0, 81, 0
1, 556800, Note_on_c, 0, 69, 0
1, 556800, Note_on_c, 0, 48, 0
1, 556800, Note_on_c, 0, 77, 0
1, 557280, Note_on_c, 0, 66, 85
1, 557280, Note_on_c, 0, 68, 85
1, 557280, Note_on_c, 0, 72, 100
1, 557280, Note_on_c, 0, 75, 100
1, 557280, Note_on_c, 0, 78, 100
1, 557280, Note_on_c, 0, 80, 100
1, 557280, Note_on_c, 0, 44, 85
1, 557280, Note_on_c, 0, 51, 101
1, 557280, Note_on_c, 0, 56, 101
1, 557288, Control_c, 0, 64, 0
1, 557495, Control_c, 0, 64, 127
1, 557520, Note_on_c, 0, 56, 0
1, 557520, Note_on_c, 0, 75, 0
1, 557520, Note_on_c, 0, 66, 0
1, 557520, Note_on_c, 0, 78, 0
1, 557520, Note_on_c, 0, 68, 0
1, 557520, Note_on_c, 0, 72, 0
1, 557520, Note_on_c, 0, 44, 0
1, 557520, Note_on_c, 0, 80, 0
1, 557520, Note_on_c, 0, 51, 0
1, 558000, Note_on_c, 0, 65, 85
1, 558000, Note_on_c, 0, 68, 85
1, 558000, Note_on_c, 0, 73, 100
1, 558000, Note_on_c, 0, 77, 100
1, 558000, Note_on_c, 0, 49, 85
1, 558000, Note_on_c, 0, 56, 101
1, 558000, Note_on_c, 0, 61, 101
1, 558011, Control_c, 0, 64, 0
1, 558267, Control_c, 0, 64, 127
1, 558720, Note_on_c, 0, 61, 0
1, 558720, Note_on_c, 0, 49, 0
1, 558720, Note_on_c, 0, 68, 0
1, 558720, Note_on_c, 0, 73, 0
1, 558720, Note_on_c, 0, 65, 0
1, 558720, Note_on_c, 0, 56, 0
1, 558720, Note_on_c, 0, 77, 0
1, 559440, Tempo, 293399
1, 559440, Note_on_c, 0, 53, 85
1, 559440, Note_on_c, 0, 56, 85
1, 559440, Note_on_c, 0, 61, 101
1, 559440, Note_on_c, 0, 65, 101
1, 559440, Note_on_c, 0, 37, 85
1, 559440, Note_on_c, 0, 44, 100
1, 559440, Note_on_c, 0, 49, 100
1, 560160, Note_on_c, 0, 49, 0
1, 560160, Note_on_c, 0, 37, 0
1, 560160, Note_on_c, 0, 56, 0
1, 560160, Note_on_c, 0, 61, 0
1, 560160, Note_on_c, 0, 53, 0
1, 560160, Note_on_c, 0, 44, 0
1, 560160, Note_on_c, 0, 65, 0
1, 560700, Note_on_c, 0, 49, 69
1, 560730, Note_on_c, 0, 56, 82
1, 560760, Tempo, 833333
1, 560760, Note_on_c, 0, 61, 73
1, 560760, Note_on_c, 0, 68, 87
1, 560760, Note_on_c, 0, 73, 87
1, 560760, Note_on_c, 0, 65, 82
1, 560880, Tempo, 1146351
1, 560880, Note_on_c, 0, 65, 0
1, 560880, Note_on_c, 0, 56, 0
1, 560880, Note_on_c, 0, 61, 0
1, 560880, Note_on_c, 0, 49, 0
1, 560880, Note_on_c, 0, 73, 0
1, 560880, Note_on_c, 0, 68, 0
1, 560880, Note_on_c, 0, 101, 123
1, 560880, Note_on_c, 0, 25, 100
1, 560880, Note_on_c, 0, 37, 109
1, 561600, Marker_t, "Fine"
1, 561600, Note_on_c, 0, 37, 0
1, 561600, Note_on_c, 0, 25, 0
1, 561600, Note_on_c, 0, 101, 0
1, 562120, Control_c, 0, 64, 0
1, 562320, Tempo, 319149
1, 562320, End_track
0, 0, End_of_file
