0, 0, Header, 0, 1, 480
1, 0, Start_track
1, 0, Title_t, "Chopin Prelude  No. 13, Opus 28"
1, 0, Copyright_t, "Copyright © 2002 by Bernd Krueger "
1, 0, Text_t, "Frederic Chopin"
1, 0, Text_t, "Lento"
1, 0, Text_t, "Fertiggestellt am 28.09.2002\012"
1, 0, Text_t, "Normierung: 23.12.2002\012"
1, 0, Text_t, "Update am 24.12.2002\012"
1, 0, Text_t, "Update am 20.7.2003\012"
1, 0, Text_t, "Update am 17.6.2010\012"
1, 0, Text_t, "Update am 21.2.2014\012"
1, 0, Text_t, "Dauer: 2:34 Minuten\012"
1, 0, SMPTE_offset, 96, 0, 3, 0, 0
1, 0, Time_signature, 6, 2, 24, 8
1, 0, Key_signature, 6, "major"
1, 0, Tempo, 693642
1, 0, Program_c, 0, 0
1, 0, Control_c, 0, 7, 100
1, 0, Control_c, 0, 10, 64
1, 0, Note_on_c, 0, 61, 34
1, 0, Note_on_c, 0, 66, 41
1, 0, Note_on_c, 0, 70, 55
1, 0, Text_t, "bdca426d104a26ac9dcb070447587523"
1, 0, Control_c, 0, 91, 127
1, 0, Program_c, 0, 0
1, 0, Control_c, 0, 7, 100
1, 0, Control_c, 0, 10, 64
1, 0, Note_on_c, 0, 42, 39
1, 0, Control_c, 0, 7, 127
1, 0, Control_c, 0, 10, 64
1, 0, Control_c, 0, 7, 127
1, 0, Control_c, 0, 10, 64
1, 113, Control_c, 0, 64, 127
1, 240, Tempo, 662983
1, 240, Note_on_c, 0, 42, 0
1, 240, Note_on_c, 0, 53, 20
1, 480, Tempo, 588235
1, 480, Note_on_c, 0, 53, 0
1, 480, Note_on_c, 0, 56, 25
1, 720, Note_on_c, 0, 56, 0
1, 720, Note_on_c, 0, 54, 21
1, 960, Tempo, 603015
1, 960, Note_on_c, 0, 54, 0
1, 960, Note_on_c, 0, 58, 28
1, 1200, Tempo, 638298
1, 1200, Note_on_c, 0, 58, 0
1, 1200, Note_on_c, 0, 49, 25
1, 1440, Tempo, 670391
1, 1440, Note_on_c, 0, 49, 0
1, 1440, Note_on_c, 0, 70, 0
1, 1440, Note_on_c, 0, 66, 0
1, 1440, Note_on_c, 0, 61, 0
1, 1440, Note_on_c, 0, 66, 41
1, 1440, Note_on_c, 0, 61, 34
1, 1440, Note_on_c, 0, 70, 55
1, 1440, Note_on_c, 0, 42, 39
1, 1451, Control_c, 0, 64, 0
1, 1595, Control_c, 0, 64, 127
1, 1680, Tempo, 594059
1, 1680, Note_on_c, 0, 42, 0
1, 1680, Note_on_c, 0, 53, 22
1, 1920, Tempo, 574163
1, 1920, Note_on_c, 0, 53, 0
1, 1920, Note_on_c, 0, 56, 29
1, 2160, Tempo, 588235
1, 2160, Note_on_c, 0, 56, 0
1, 2160, Note_on_c, 0, 54, 23
1, 2400, Tempo, 609137
1, 2400, Note_on_c, 0, 54, 0
1, 2400, Note_on_c, 0, 58, 31
1, 2640, Tempo, 615385
1, 2640, Note_on_c, 0, 58, 0
1, 2640, Note_on_c, 0, 49, 27
1, 2880, Tempo, 634921
1, 2880, Note_on_c, 0, 49, 0
1, 2880, Note_on_c, 0, 70, 0
1, 2880, Note_on_c, 0, 61, 0
1, 2880, Note_on_c, 0, 66, 0
1, 2880, Note_on_c, 0, 61, 34
1, 2880, Note_on_c, 0, 70, 55
1, 2880, Note_on_c, 0, 66, 41
1, 2880, Note_on_c, 0, 42, 39
1, 2894, Control_c, 0, 64, 0
1, 2993, Control_c, 0, 64, 127
1, 3120, Tempo, 615385
1, 3120, Note_on_c, 0, 42, 0
1, 3120, Note_on_c, 0, 53, 25
1, 3360, Tempo, 582524
1, 3360, Note_on_c, 0, 53, 0
1, 3360, Note_on_c, 0, 56, 28
1, 3600, Tempo, 600000
1, 3600, Note_on_c, 0, 56, 0
1, 3600, Note_on_c, 0, 54, 25
1, 3840, Tempo, 597015
1, 3840, Note_on_c, 0, 54, 0
1, 3840, Note_on_c, 0, 58, 32
1, 4080, Tempo, 634921
1, 4080, Note_on_c, 0, 58, 0
1, 4080, Note_on_c, 0, 49, 28
1, 4320, Tempo, 655738
1, 4320, Note_on_c, 0, 49, 0
1, 4320, Note_on_c, 0, 66, 0
1, 4320, Note_on_c, 0, 70, 0
1, 4320, Note_on_c, 0, 61, 0
1, 4320, Note_on_c, 0, 65, 41
1, 4320, Note_on_c, 0, 71, 55
1, 4320, Note_on_c, 0, 37, 39
1, 4330, Control_c, 0, 64, 0
1, 4492, Control_c, 0, 64, 127
1, 4560, Tempo, 618557
1, 4560, Note_on_c, 0, 37, 0
1, 4560, Note_on_c, 0, 55, 29
1, 4800, Tempo, 600000
1, 4800, Note_on_c, 0, 55, 0
1, 4800, Note_on_c, 0, 58, 32
1, 5040, Tempo, 618557
1, 5040, Note_on_c, 0, 58, 0
1, 5040, Note_on_c, 0, 56, 28
1, 5280, Tempo, 615385
1, 5280, Note_on_c, 0, 56, 0
1, 5280, Note_on_c, 0, 71, 0
1, 5280, Note_on_c, 0, 68, 49
1, 5280, Note_on_c, 0, 59, 32
1, 5320, Tempo, 625000
1, 5520, Tempo, 648649
1, 5520, Note_on_c, 0, 59, 0
1, 5520, Note_on_c, 0, 49, 27
1, 5760, Tempo, 641711
1, 5760, Note_on_c, 0, 49, 0
1, 5760, Note_on_c, 0, 68, 0
1, 5760, Note_on_c, 0, 65, 0
1, 5760, Note_on_c, 0, 66, 37
1, 5760, Note_on_c, 0, 70, 51
1, 5760, Note_on_c, 0, 61, 32
1, 5760, Note_on_c, 0, 42, 39
1, 5774, Control_c, 0, 64, 0
1, 5930, Control_c, 0, 64, 127
1, 6000, Tempo, 618557
1, 6000, Note_on_c, 0, 42, 0
1, 6000, Note_on_c, 0, 53, 25
1, 6240, Tempo, 600000
1, 6240, Note_on_c, 0, 53, 0
1, 6240, Note_on_c, 0, 56, 28
1, 6480, Note_on_c, 0, 56, 0
1, 6480, Note_on_c, 0, 54, 26
1, 6720, Tempo, 615385
1, 6720, Note_on_c, 0, 54, 0
1, 6720, Note_on_c, 0, 58, 28
1, 6960, Tempo, 641711
1, 6960, Note_on_c, 0, 58, 0
1, 6960, Note_on_c, 0, 49, 27
1, 7200, Tempo, 666667
1, 7200, Note_on_c, 0, 49, 0
1, 7200, Note_on_c, 0, 61, 0
1, 7200, Note_on_c, 0, 70, 0
1, 7200, Note_on_c, 0, 66, 0
1, 7200, Note_on_c, 0, 61, 35
1, 7200, Note_on_c, 0, 66, 43
1, 7200, Note_on_c, 0, 70, 57
1, 7200, Note_on_c, 0, 42, 40
1, 7214, Control_c, 0, 64, 0
1, 7370, Control_c, 0, 64, 127
1, 7440, Tempo, 612245
1, 7440, Note_on_c, 0, 42, 0
1, 7440, Note_on_c, 0, 53, 33
1, 7680, Tempo, 588235
1, 7680, Note_on_c, 0, 53, 0
1, 7680, Note_on_c, 0, 56, 38
1, 7920, Note_on_c, 0, 56, 0
1, 7920, Note_on_c, 0, 54, 33
1, 8160, Tempo, 603015
1, 8160, Note_on_c, 0, 54, 0
1, 8160, Note_on_c, 0, 70, 0
1, 8160, Note_on_c, 0, 66, 0
1, 8160, Note_on_c, 0, 70, 59
1, 8160, Note_on_c, 0, 66, 44
1, 8160, Note_on_c, 0, 58, 38
1, 8400, Tempo, 638298
1, 8400, Note_on_c, 0, 58, 0
1, 8400, Note_on_c, 0, 49, 33
1, 8640, Tempo, 568720
1, 8640, Note_on_c, 0, 49, 0
1, 8640, Note_on_c, 0, 66, 0
1, 8640, Note_on_c, 0, 70, 0
1, 8640, Note_on_c, 0, 61, 0
1, 8640, Note_on_c, 0, 61, 33
1, 8640, Note_on_c, 0, 70, 66
1, 8640, Note_on_c, 0, 66, 49
1, 8640, Note_on_c, 0, 42, 44
1, 8654, Control_c, 0, 64, 0
1, 8753, Control_c, 0, 64, 127
1, 8880, Tempo, 576923
1, 8880, Note_on_c, 0, 42, 0
1, 8880, Note_on_c, 0, 53, 33
1, 8928, Note_on_c, 0, 66, 0
1, 8928, Note_on_c, 0, 70, 0
1, 8928, Note_on_c, 0, 71, 49
1, 8928, Note_on_c, 0, 68, 36
1, 9120, Tempo, 591133
1, 9120, Note_on_c, 0, 53, 0
1, 9120, Note_on_c, 0, 56, 37
1, 9216, Note_on_c, 0, 68, 0
1, 9216, Note_on_c, 0, 71, 0
1, 9216, Note_on_c, 0, 70, 49
1, 9216, Note_on_c, 0, 66, 36
1, 9360, Tempo, 574163
1, 9360, Note_on_c, 0, 56, 0
1, 9360, Note_on_c, 0, 54, 30
1, 9504, Note_on_c, 0, 66, 0
1, 9504, Note_on_c, 0, 70, 0
1, 9504, Note_on_c, 0, 65, 36
1, 9504, Note_on_c, 0, 68, 49
1, 9600, Tempo, 597015
1, 9600, Note_on_c, 0, 54, 0
1, 9600, Note_on_c, 0, 58, 38
1, 9792, Note_on_c, 0, 68, 0
1, 9792, Note_on_c, 0, 65, 0
1, 9792, Note_on_c, 0, 70, 47
1, 9792, Note_on_c, 0, 66, 36
1, 9840, Tempo, 670391
1, 9840, Note_on_c, 0, 58, 0
1, 9840, Note_on_c, 0, 49, 33
1, 10080, Tempo, 655738
1, 10080, Note_on_c, 0, 49, 0
1, 10080, Note_on_c, 0, 66, 0
1, 10080, Note_on_c, 0, 70, 0
1, 10080, Note_on_c, 0, 61, 0
1, 10080, Note_on_c, 0, 65, 32
1, 10080, Note_on_c, 0, 73, 66
1, 10080, Note_on_c, 0, 70, 49
1, 10080, Note_on_c, 0, 37, 39
1, 10094, Control_c, 0, 64, 0
1, 10171, Control_c, 0, 64, 127
1, 10320, Tempo, 603015
1, 10320, Note_on_c, 0, 37, 0
1, 10320, Note_on_c, 0, 55, 28
1, 10560, Tempo, 600000
1, 10560, Note_on_c, 0, 55, 0
1, 10560, Note_on_c, 0, 70, 0
1, 10560, Note_on_c, 0, 73, 0
1, 10560, Note_on_c, 0, 71, 49
1, 10560, Note_on_c, 0, 68, 36
1, 10560, Note_on_c, 0, 58, 33
1, 10574, Control_c, 0, 64, 0
1, 10652, Control_c, 0, 64, 127
1, 10800, Note_on_c, 0, 58, 0
1, 10800, Note_on_c, 0, 56, 28
1, 11040, Note_on_c, 0, 56, 0
1, 11040, Note_on_c, 0, 68, 0
1, 11040, Note_on_c, 0, 71, 0
1, 11040, Note_on_c, 0, 65, 0
1, 11040, Note_on_c, 0, 59, 32
1, 11054, Control_c, 0, 64, 0
1, 11143, Control_c, 0, 64, 127
1, 11280, Tempo, 648649
1, 11280, Note_on_c, 0, 59, 0
1, 11280, Note_on_c, 0, 68, 50
1, 11280, Note_on_c, 0, 61, 32
1, 11280, Note_on_c, 0, 49, 29
1, 11520, Tempo, 666667
1, 11520, Note_on_c, 0, 49, 0
1, 11520, Note_on_c, 0, 61, 0
1, 11520, Note_on_c, 0, 68, 0
1, 11520, Note_on_c, 0, 61, 34
1, 11520, Note_on_c, 0, 66, 46
1, 11520, Note_on_c, 0, 70, 55
1, 11520, Note_on_c, 0, 42, 39
1, 11532, Control_c, 0, 64, 0
1, 11760, Tempo, 612245
1, 11760, Note_on_c, 0, 42, 0
1, 11760, Control_c, 0, 64, 127
1, 11760, Note_on_c, 0, 53, 26
1, 12000, Tempo, 588235
1, 12000, Note_on_c, 0, 53, 0
1, 12000, Note_on_c, 0, 56, 31
1, 12240, Note_on_c, 0, 56, 0
1, 12240, Note_on_c, 0, 54, 30
1, 12480, Tempo, 603015
1, 12480, Note_on_c, 0, 54, 0
1, 12480, Note_on_c, 0, 58, 35
1, 12720, Tempo, 638298
1, 12720, Note_on_c, 0, 58, 0
1, 12720, Note_on_c, 0, 49, 33
1, 12960, Tempo, 645161
1, 12960, Note_on_c, 0, 49, 0
1, 12960, Note_on_c, 0, 70, 0
1, 12960, Note_on_c, 0, 66, 0
1, 12960, Note_on_c, 0, 61, 0
1, 12960, Note_on_c, 0, 70, 55
1, 12960, Note_on_c, 0, 61, 41
1, 12960, Note_on_c, 0, 73, 66
1, 12960, Note_on_c, 0, 42, 46
1, 12972, Control_c, 0, 64, 0
1, 13172, Control_c, 0, 64, 127
1, 13200, Tempo, 600000
1, 13200, Note_on_c, 0, 42, 0
1, 13200, Note_on_c, 0, 53, 30
1, 13440, Tempo, 588235
1, 13440, Note_on_c, 0, 53, 0
1, 13440, Note_on_c, 0, 56, 43
1, 13680, Tempo, 576923
1, 13680, Note_on_c, 0, 56, 0
1, 13680, Note_on_c, 0, 54, 37
1, 13920, Tempo, 603015
1, 13920, Note_on_c, 0, 54, 0
1, 13920, Note_on_c, 0, 58, 46
1, 14160, Tempo, 618557
1, 14160, Note_on_c, 0, 58, 0
1, 14160, Note_on_c, 0, 49, 41
1, 14400, Tempo, 628272
1, 14400, Note_on_c, 0, 49, 0
1, 14400, Note_on_c, 0, 73, 0
1, 14400, Note_on_c, 0, 61, 0
1, 14400, Note_on_c, 0, 70, 0
1, 14400, Note_on_c, 0, 70, 62
1, 14400, Note_on_c, 0, 78, 72
1, 14400, Note_on_c, 0, 66, 46
1, 14400, Note_on_c, 0, 39, 53
1, 14412, Control_c, 0, 64, 0
1, 14527, Control_c, 0, 64, 127
1, 14640, Tempo, 597015
1, 14640, Note_on_c, 0, 39, 0
1, 14640, Note_on_c, 0, 57, 39
1, 14880, Tempo, 579710
1, 14880, Note_on_c, 0, 57, 0
1, 14880, Note_on_c, 0, 60, 46
1, 15120, Note_on_c, 0, 60, 0
1, 15120, Note_on_c, 0, 58, 38
1, 15360, Tempo, 582524
1, 15360, Note_on_c, 0, 58, 0
1, 15360, Note_on_c, 0, 63, 43
1, 15600, Tempo, 621762
1, 15600, Note_on_c, 0, 63, 0
1, 15600, Note_on_c, 0, 54, 34
1, 15840, Tempo, 621762
1, 15840, Note_on_c, 0, 54, 0
1, 15840, Note_on_c, 0, 66, 0
1, 15840, Note_on_c, 0, 78, 0
1, 15840, Note_on_c, 0, 70, 0
1, 15840, Note_on_c, 0, 73, 50
1, 15840, Note_on_c, 0, 77, 60
1, 15840, Note_on_c, 0, 68, 37
1, 15840, Note_on_c, 0, 44, 42
1, 15852, Control_c, 0, 64, 0
1, 15967, Control_c, 0, 64, 127
1, 16080, Tempo, 594059
1, 16080, Note_on_c, 0, 44, 0
1, 16080, Note_on_c, 0, 55, 28
1, 16320, Tempo, 579710
1, 16320, Note_on_c, 0, 55, 0
1, 16320, Note_on_c, 0, 58, 33
1, 16560, Note_on_c, 0, 58, 0
1, 16560, Note_on_c, 0, 56, 28
1, 16800, Tempo, 603015
1, 16800, Note_on_c, 0, 56, 0
1, 16800, Note_on_c, 0, 61, 31
1, 16811, Control_c, 0, 64, 0
1, 16878, Control_c, 0, 64, 127
1, 17040, Tempo, 750000
1, 17040, Note_on_c, 0, 61, 0
1, 17040, Note_on_c, 0, 53, 27
1, 17160, Tempo, 710059
1, 17160, Note_on_c, 0, 77, 0
1, 17160, Note_on_c, 0, 66, 36
1, 17172, Control_c, 0, 64, 0
1, 17200, Note_on_c, 0, 68, 42
1, 17220, Note_on_c, 0, 53, 0
1, 17224, Control_c, 0, 64, 127
1, 17240, Tempo, 1025641
1, 17240, Note_on_c, 0, 77, 44
1, 17260, Tempo, 1304348
1, 17280, Tempo, 655738
1, 17280, Note_on_c, 0, 77, 0
1, 17280, Note_on_c, 0, 73, 0
1, 17280, Note_on_c, 0, 68, 0
1, 17280, Note_on_c, 0, 75, 56
1, 17280, Note_on_c, 0, 44, 39
1, 17520, Tempo, 612245
1, 17520, Note_on_c, 0, 44, 0
1, 17520, Note_on_c, 0, 55, 26
1, 17760, Tempo, 588235
1, 17760, Note_on_c, 0, 55, 0
1, 17760, Note_on_c, 0, 58, 29
1, 18000, Note_on_c, 0, 58, 0
1, 18000, Note_on_c, 0, 56, 26
1, 18240, Tempo, 603015
1, 18240, Note_on_c, 0, 56, 0
1, 18240, Note_on_c, 0, 60, 29
1, 18480, Tempo, 638298
1, 18480, Note_on_c, 0, 60, 0
1, 18480, Note_on_c, 0, 51, 25
1, 18720, Tempo, 666667
1, 18720, Note_on_c, 0, 51, 0
1, 18720, Note_on_c, 0, 75, 0
1, 18720, Note_on_c, 0, 66, 0
1, 18720, Note_on_c, 0, 68, 0
1, 18720, Note_on_c, 0, 65, 28
1, 18720, Note_on_c, 0, 73, 45
1, 18720, Note_on_c, 0, 68, 37
1, 18720, Note_on_c, 0, 49, 36
1, 18732, Control_c, 0, 64, 0
1, 18847, Control_c, 0, 64, 127
1, 18960, Tempo, 612245
1, 18960, Note_on_c, 0, 49, 0
1, 18960, Note_on_c, 0, 55, 26
1, 19200, Tempo, 588235
1, 19200, Note_on_c, 0, 55, 0
1, 19200, Note_on_c, 0, 58, 29
1, 19440, Note_on_c, 0, 58, 0
1, 19440, Note_on_c, 0, 56, 26
1, 19680, Tempo, 603015
1, 19680, Note_on_c, 0, 56, 0
1, 19680, Note_on_c, 0, 61, 29
1, 19920, Tempo, 638298
1, 19920, Note_on_c, 0, 61, 0
1, 19920, Note_on_c, 0, 53, 25
1, 20160, Tempo, 618557
1, 20160, Note_on_c, 0, 53, 0
1, 20160, Note_on_c, 0, 68, 0
1, 20160, Note_on_c, 0, 73, 0
1, 20160, Note_on_c, 0, 65, 0
1, 20160, Control_c, 0, 64, 0
1, 20160, Note_on_c, 0, 56, 33
1, 20273, Control_c, 0, 64, 127
1, 20400, Tempo, 600000
1, 20400, Note_on_c, 0, 56, 0
1, 20400, Note_on_c, 0, 54, 26
1, 20640, Tempo, 594059
1, 20640, Note_on_c, 0, 54, 0
1, 20640, Note_on_c, 0, 59, 30
1, 20649, Control_c, 0, 64, 0
1, 20739, Control_c, 0, 64, 127
1, 20760, Tempo, 597015
1, 20840, Tempo, 600000
1, 20880, Note_on_c, 0, 59, 0
1, 20880, Note_on_c, 0, 51, 27
1, 20960, Tempo, 603015
1, 21040, Tempo, 606061
1, 21120, Note_on_c, 0, 51, 0
1, 21120, Note_on_c, 0, 54, 31
1, 21128, Control_c, 0, 64, 0
1, 21160, Tempo, 609137
1, 21219, Control_c, 0, 64, 127
1, 21240, Tempo, 612245
1, 21360, Tempo, 615385
1, 21360, Note_on_c, 0, 54, 0
1, 21360, Note_on_c, 0, 53, 27
1, 21440, Tempo, 618557
1, 21520, Tempo, 621762
1, 21600, Tempo, 625000
1, 21600, Note_on_c, 0, 53, 0
1, 21600, Control_c, 0, 64, 0
1, 21600, Note_on_c, 0, 58, 30
1, 21699, Control_c, 0, 64, 127
1, 21840, Tempo, 648649
1, 21840, Note_on_c, 0, 58, 0
1, 21840, Note_on_c, 0, 49, 28
1, 22080, Tempo, 634921
1, 22080, Note_on_c, 0, 49, 0
1, 22080, Note_on_c, 0, 58, 31
1, 22089, Control_c, 0, 64, 0
1, 22186, Control_c, 0, 64, 127
1, 22320, Tempo, 681818
1, 22320, Note_on_c, 0, 58, 0
1, 22320, Note_on_c, 0, 47, 28
1, 22560, Tempo, 662983
1, 22560, Note_on_c, 0, 47, 0
1, 22560, Note_on_c, 0, 58, 33
1, 22575, Control_c, 0, 64, 0
1, 22687, Control_c, 0, 64, 127
1, 22800, Tempo, 923077
1, 22800, Note_on_c, 0, 58, 0
1, 22800, Note_on_c, 0, 56, 28
1, 22920, Tempo, 430108
1, 22920, Note_on_c, 0, 56, 0
1, 22920, Note_on_c, 0, 58, 27
1, 22927, Control_c, 0, 64, 0
1, 23023, Control_c, 0, 64, 127
1, 23040, Tempo, 666667
1, 23040, Note_on_c, 0, 66, 36
1, 23040, Note_on_c, 0, 70, 49
1, 23040, Note_on_c, 0, 61, 27
1, 23040, Note_on_c, 0, 42, 39
1, 23060, Note_on_c, 0, 58, 0
1, 23280, Tempo, 612245
1, 23280, Note_on_c, 0, 42, 0
1, 23280, Note_on_c, 0, 53, 21
1, 23520, Tempo, 588235
1, 23520, Note_on_c, 0, 53, 0
1, 23520, Note_on_c, 0, 56, 27
1, 23760, Note_on_c, 0, 56, 0
1, 23760, Note_on_c, 0, 54, 26
1, 24000, Tempo, 603015
1, 24000, Note_on_c, 0, 54, 0
1, 24000, Note_on_c, 0, 58, 29
1, 24240, Tempo, 638298
1, 24240, Note_on_c, 0, 58, 0
1, 24240, Note_on_c, 0, 49, 25
1, 24480, Tempo, 638298
1, 24480, Note_on_c, 0, 49, 0
1, 24480, Note_on_c, 0, 61, 0
1, 24480, Note_on_c, 0, 70, 0
1, 24480, Note_on_c, 0, 66, 0
1, 24480, Note_on_c, 0, 61, 34
1, 24480, Note_on_c, 0, 66, 41
1, 24480, Note_on_c, 0, 70, 55
1, 24480, Note_on_c, 0, 42, 39
1, 24498, Control_c, 0, 64, 0
1, 24644, Control_c, 0, 64, 127
1, 24720, Tempo, 594059
1, 24720, Note_on_c, 0, 42, 0
1, 24720, Note_on_c, 0, 53, 23
1, 24960, Tempo, 588235
1, 24960, Note_on_c, 0, 53, 0
1, 24960, Note_on_c, 0, 56, 27
1, 25200, Tempo, 571429
1, 25200, Note_on_c, 0, 56, 0
1, 25200, Note_on_c, 0, 54, 26
1, 25440, Tempo, 609137
1, 25440, Note_on_c, 0, 54, 0
1, 25440, Note_on_c, 0, 58, 31
1, 25480, Tempo, 588235
1, 25680, Tempo, 615385
1, 25680, Note_on_c, 0, 58, 0
1, 25680, Note_on_c, 0, 49, 28
1, 25920, Tempo, 634921
1, 25920, Note_on_c, 0, 49, 0
1, 25920, Note_on_c, 0, 70, 0
1, 25920, Note_on_c, 0, 66, 0
1, 25920, Note_on_c, 0, 61, 0
1, 25920, Note_on_c, 0, 66, 41
1, 25920, Note_on_c, 0, 61, 34
1, 25920, Note_on_c, 0, 70, 55
1, 25920, Note_on_c, 0, 42, 39
1, 25948, Control_c, 0, 64, 0
1, 26033, Control_c, 0, 64, 127
1, 26160, Tempo, 615385
1, 26160, Note_on_c, 0, 42, 0
1, 26160, Note_on_c, 0, 53, 25
1, 26400, Tempo, 594059
1, 26400, Note_on_c, 0, 53, 0
1, 26400, Note_on_c, 0, 56, 28
1, 26640, Note_on_c, 0, 56, 0
1, 26640, Note_on_c, 0, 54, 25
1, 26880, Tempo, 597015
1, 26880, Note_on_c, 0, 54, 0
1, 26880, Note_on_c, 0, 58, 33
1, 27120, Tempo, 634921
1, 27120, Note_on_c, 0, 58, 0
1, 27120, Note_on_c, 0, 49, 29
1, 27349, Control_c, 0, 64, 0
1, 27360, Tempo, 655738
1, 27360, Note_on_c, 0, 49, 0
1, 27360, Note_on_c, 0, 70, 0
1, 27360, Note_on_c, 0, 66, 0
1, 27360, Note_on_c, 0, 71, 55
1, 27360, Note_on_c, 0, 65, 46
1, 27360, Note_on_c, 0, 37, 39
1, 27451, Control_c, 0, 64, 127
1, 27600, Tempo, 618557
1, 27600, Note_on_c, 0, 37, 0
1, 27600, Note_on_c, 0, 55, 25
1, 27840, Tempo, 600000
1, 27840, Note_on_c, 0, 55, 0
1, 27840, Note_on_c, 0, 58, 28
1, 28080, Note_on_c, 0, 58, 0
1, 28080, Note_on_c, 0, 56, 25
1, 28320, Tempo, 615385
1, 28320, Note_on_c, 0, 56, 0
1, 28320, Note_on_c, 0, 59, 28
1, 28360, Tempo, 625000
1, 28560, Tempo, 648649
1, 28560, Note_on_c, 0, 59, 0
1, 28560, Note_on_c, 0, 49, 25
1, 28680, Note_on_c, 0, 71, 0
1, 28680, Note_on_c, 0, 68, 46
1, 28800, Tempo, 641711
1, 28800, Note_on_c, 0, 68, 0
1, 28800, Note_on_c, 0, 49, 0
1, 28800, Note_on_c, 0, 65, 0
1, 28800, Note_on_c, 0, 61, 0
1, 28800, Note_on_c, 0, 66, 37
1, 28800, Note_on_c, 0, 61, 32
1, 28800, Note_on_c, 0, 70, 51
1, 28800, Note_on_c, 0, 42, 39
1, 28828, Control_c, 0, 64, 0
1, 28913, Control_c, 0, 64, 127
1, 29040, Tempo, 618557
1, 29040, Note_on_c, 0, 42, 0
1, 29040, Note_on_c, 0, 53, 25
1, 29280, Tempo, 600000
1, 29280, Note_on_c, 0, 53, 0
1, 29280, Note_on_c, 0, 56, 28
1, 29520, Note_on_c, 0, 56, 0
1, 29520, Note_on_c, 0, 54, 26
1, 29760, Tempo, 615385
1, 29760, Note_on_c, 0, 54, 0
1, 29760, Note_on_c, 0, 58, 28
1, 30000, Tempo, 641711
1, 30000, Note_on_c, 0, 58, 0
1, 30000, Note_on_c, 0, 49, 26
1, 30240, Tempo, 666667
1, 30240, Note_on_c, 0, 49, 0
1, 30240, Note_on_c, 0, 70, 0
1, 30240, Note_on_c, 0, 61, 0
1, 30240, Note_on_c, 0, 66, 0
1, 30240, Note_on_c, 0, 61, 41
1, 30240, Note_on_c, 0, 70, 55
1, 30240, Note_on_c, 0, 66, 41
1, 30240, Note_on_c, 0, 42, 39
1, 30254, Control_c, 0, 64, 0
1, 30403, Control_c, 0, 64, 127
1, 30480, Tempo, 612245
1, 30480, Note_on_c, 0, 42, 0
1, 30480, Note_on_c, 0, 53, 32
1, 30720, Tempo, 588235
1, 30720, Note_on_c, 0, 53, 0
1, 30720, Note_on_c, 0, 66, 0
1, 30720, Note_on_c, 0, 56, 36
1, 30880, Tempo, 634921
1, 30880, Note_on_c, 0, 70, 0
1, 30880, Note_on_c, 0, 61, 0
1, 30880, Note_on_c, 0, 61, 26
1, 30880, Note_on_c, 0, 70, 48
1, 30880, Note_on_c, 0, 66, 35
1, 30920, Tempo, 648649
1, 30960, Tempo, 645161
1, 30960, Note_on_c, 0, 56, 0
1, 30960, Note_on_c, 0, 54, 30
1, 31000, Tempo, 641711
1, 31032, Note_on_c, 0, 61, 0
1, 31032, Note_on_c, 0, 66, 0
1, 31032, Note_on_c, 0, 70, 0
1, 31040, Tempo, 634921
1, 31040, Note_on_c, 0, 66, 36
1, 31040, Note_on_c, 0, 70, 49
1, 31040, Note_on_c, 0, 61, 27
1, 31080, Tempo, 631579
1, 31120, Tempo, 625000
1, 31160, Tempo, 621762
1, 31192, Note_on_c, 0, 61, 0
1, 31192, Note_on_c, 0, 70, 0
1, 31192, Note_on_c, 0, 66, 0
1, 31200, Tempo, 597015
1, 31200, Note_on_c, 0, 54, 0
1, 31200, Note_on_c, 0, 61, 28
1, 31200, Note_on_c, 0, 66, 36
1, 31200, Note_on_c, 0, 70, 51
1, 31200, Note_on_c, 0, 58, 35
1, 31352, Note_on_c, 0, 70, 0
1, 31352, Note_on_c, 0, 61, 0
1, 31352, Note_on_c, 0, 66, 0
1, 31360, Note_on_c, 0, 66, 39
1, 31360, Note_on_c, 0, 70, 52
1, 31360, Note_on_c, 0, 61, 29
1, 31440, Tempo, 638298
1, 31440, Note_on_c, 0, 58, 0
1, 31440, Note_on_c, 0, 49, 31
1, 31512, Note_on_c, 0, 66, 0
1, 31512, Note_on_c, 0, 61, 0
1, 31512, Note_on_c, 0, 70, 0
1, 31520, Note_on_c, 0, 70, 56
1, 31520, Note_on_c, 0, 66, 41
1, 31520, Note_on_c, 0, 61, 31
1, 31672, Note_on_c, 0, 61, 0
1, 31672, Note_on_c, 0, 66, 0
1, 31672, Note_on_c, 0, 70, 0
1, 31680, Tempo, 597015
1, 31680, Note_on_c, 0, 49, 0
1, 31680, Note_on_c, 0, 66, 49
1, 31680, Note_on_c, 0, 70, 66
1, 31680, Note_on_c, 0, 61, 36
1, 31680, Note_on_c, 0, 42, 39
1, 31708, Control_c, 0, 64, 0
1, 31793, Control_c, 0, 64, 127
1, 31920, Tempo, 576923
1, 31920, Note_on_c, 0, 42, 0
1, 31920, Note_on_c, 0, 53, 32
1, 32160, Tempo, 591133
1, 32160, Note_on_c, 0, 53, 0
1, 32160, Note_on_c, 0, 70, 0
1, 32160, Note_on_c, 0, 66, 0
1, 32160, Note_on_c, 0, 68, 41
1, 32160, Note_on_c, 0, 71, 57
1, 32160, Note_on_c, 0, 56, 36
1, 32400, Tempo, 574163
1, 32400, Note_on_c, 0, 56, 0
1, 32400, Note_on_c, 0, 71, 0
1, 32400, Note_on_c, 0, 68, 0
1, 32400, Note_on_c, 0, 66, 43
1, 32400, Note_on_c, 0, 70, 58
1, 32400, Note_on_c, 0, 54, 31
1, 32640, Tempo, 597015
1, 32640, Note_on_c, 0, 54, 0
1, 32640, Note_on_c, 0, 70, 0
1, 32640, Note_on_c, 0, 66, 0
1, 32640, Note_on_c, 0, 68, 60
1, 32640, Note_on_c, 0, 65, 44
1, 32640, Note_on_c, 0, 58, 36
1, 32880, Tempo, 652174
1, 32880, Note_on_c, 0, 58, 0
1, 32880, Note_on_c, 0, 65, 0
1, 32880, Note_on_c, 0, 68, 0
1, 32880, Note_on_c, 0, 70, 60
1, 32880, Note_on_c, 0, 66, 45
1, 32880, Note_on_c, 0, 49, 31
1, 33120, Tempo, 655738
1, 33120, Note_on_c, 0, 49, 0
1, 33120, Note_on_c, 0, 61, 0
1, 33120, Note_on_c, 0, 70, 0
1, 33120, Note_on_c, 0, 66, 0
1, 33120, Note_on_c, 0, 70, 49
1, 33120, Note_on_c, 0, 73, 66
1, 33120, Note_on_c, 0, 65, 36
1, 33120, Note_on_c, 0, 37, 39
1, 33132, Control_c, 0, 64, 0
1, 33326, Control_c, 0, 64, 127
1, 33360, Tempo, 603015
1, 33360, Note_on_c, 0, 37, 0
1, 33360, Note_on_c, 0, 55, 30
1, 33600, Tempo, 600000
1, 33600, Note_on_c, 0, 55, 0
1, 33600, Note_on_c, 0, 73, 0
1, 33600, Note_on_c, 0, 70, 0
1, 33600, Note_on_c, 0, 68, 34
1, 33600, Note_on_c, 0, 71, 46
1, 33600, Note_on_c, 0, 58, 34
1, 33615, Control_c, 0, 64, 0
1, 33840, Note_on_c, 0, 58, 0
1, 33840, Note_on_c, 0, 56, 28
1, 33863, Control_c, 0, 64, 127
1, 34080, Note_on_c, 0, 56, 0
1, 34080, Note_on_c, 0, 71, 0
1, 34080, Note_on_c, 0, 68, 0
1, 34080, Note_on_c, 0, 65, 0
1, 34080, Note_on_c, 0, 59, 34
1, 34320, Tempo, 648649
1, 34320, Note_on_c, 0, 59, 0
1, 34320, Note_on_c, 0, 61, 32
1, 34320, Note_on_c, 0, 68, 50
1, 34320, Note_on_c, 0, 49, 31
1, 34560, Tempo, 666667
1, 34560, Note_on_c, 0, 49, 0
1, 34560, Note_on_c, 0, 68, 0
1, 34560, Note_on_c, 0, 61, 0
1, 34560, Note_on_c, 0, 64, 46
1, 34560, Note_on_c, 0, 61, 34
1, 34560, Note_on_c, 0, 70, 55
1, 34560, Note_on_c, 0, 42, 39
1, 34572, Control_c, 0, 64, 0
1, 34687, Control_c, 0, 64, 127
1, 34800, Tempo, 612245
1, 34800, Note_on_c, 0, 42, 0
1, 34800, Note_on_c, 0, 53, 26
1, 35040, Tempo, 588235
1, 35040, Note_on_c, 0, 53, 0
1, 35040, Note_on_c, 0, 56, 31
1, 35280, Note_on_c, 0, 56, 0
1, 35280, Note_on_c, 0, 54, 30
1, 35520, Tempo, 603015
1, 35520, Note_on_c, 0, 54, 0
1, 35520, Note_on_c, 0, 58, 35
1, 35760, Tempo, 638298
1, 35760, Note_on_c, 0, 58, 0
1, 35760, Note_on_c, 0, 49, 33
1, 36000, Tempo, 645161
1, 36000, Note_on_c, 0, 49, 0
1, 36000, Note_on_c, 0, 70, 0
1, 36000, Note_on_c, 0, 61, 0
1, 36000, Note_on_c, 0, 64, 0
1, 36000, Note_on_c, 0, 70, 66
1, 36000, Note_on_c, 0, 64, 55
1, 36000, Note_on_c, 0, 42, 46
1, 36012, Control_c, 0, 64, 0
1, 36127, Control_c, 0, 64, 127
1, 36240, Tempo, 600000
1, 36240, Note_on_c, 0, 42, 0
1, 36240, Note_on_c, 0, 53, 30
1, 36480, Tempo, 588235
1, 36480, Note_on_c, 0, 53, 0
1, 36480, Note_on_c, 0, 56, 40
1, 36720, Tempo, 576923
1, 36720, Note_on_c, 0, 56, 0
1, 36720, Note_on_c, 0, 54, 35
1, 36960, Tempo, 603015
1, 36960, Note_on_c, 0, 54, 0
1, 36960, Note_on_c, 0, 58, 42
1, 37200, Tempo, 618557
1, 37200, Note_on_c, 0, 58, 0
1, 37200, Note_on_c, 0, 49, 37
1, 37320, Note_on_c, 0, 70, 0
1, 37320, Note_on_c, 0, 71, 62
1, 37440, Tempo, 628272
1, 37440, Note_on_c, 0, 71, 0
1, 37440, Note_on_c, 0, 49, 0
1, 37440, Note_on_c, 0, 64, 0
1, 37440, Note_on_c, 0, 70, 59
1, 37440, Note_on_c, 0, 64, 44
1, 37440, Note_on_c, 0, 73, 71
1, 37440, Note_on_c, 0, 42, 47
1, 37452, Control_c, 0, 64, 0
1, 37567, Control_c, 0, 64, 127
1, 37680, Tempo, 597015
1, 37680, Note_on_c, 0, 42, 0
1, 37680, Note_on_c, 0, 53, 34
1, 37920, Tempo, 579710
1, 37920, Note_on_c, 0, 53, 0
1, 37920, Note_on_c, 0, 56, 45
1, 38160, Note_on_c, 0, 56, 0
1, 38160, Note_on_c, 0, 54, 37
1, 38400, Tempo, 582524
1, 38400, Note_on_c, 0, 54, 0
1, 38400, Note_on_c, 0, 58, 44
1, 38640, Tempo, 645161
1, 38640, Note_on_c, 0, 58, 0
1, 38640, Note_on_c, 0, 49, 29
1, 38880, Tempo, 621762
1, 38880, Note_on_c, 0, 49, 0
1, 38880, Note_on_c, 0, 73, 0
1, 38880, Note_on_c, 0, 64, 0
1, 38880, Note_on_c, 0, 70, 0
1, 38880, Note_on_c, 0, 64, 45
1, 38880, Note_on_c, 0, 75, 72
1, 38880, Note_on_c, 0, 70, 60
1, 38880, Note_on_c, 0, 42, 51
1, 38892, Control_c, 0, 64, 0
1, 39007, Control_c, 0, 64, 127
1, 39120, Tempo, 594059
1, 39120, Note_on_c, 0, 42, 0
1, 39120, Note_on_c, 0, 53, 38
1, 39360, Tempo, 579710
1, 39360, Note_on_c, 0, 53, 0
1, 39360, Note_on_c, 0, 56, 46
1, 39600, Note_on_c, 0, 56, 0
1, 39600, Note_on_c, 0, 54, 37
1, 39840, Tempo, 603015
1, 39840, Note_on_c, 0, 54, 0
1, 39840, Note_on_c, 0, 58, 44
1, 40080, Note_on_c, 0, 58, 0
1, 40080, Note_on_c, 0, 49, 34
1, 40200, Tempo, 645161
1, 40200, Note_on_c, 0, 75, 0
1, 40200, Note_on_c, 0, 73, 60
1, 40320, Tempo, 655738
1, 40320, Note_on_c, 0, 73, 0
1, 40320, Note_on_c, 0, 49, 0
1, 40320, Note_on_c, 0, 70, 0
1, 40320, Note_on_c, 0, 64, 0
1, 40320, Note_on_c, 0, 73, 62
1, 40320, Note_on_c, 0, 64, 34
1, 40320, Note_on_c, 0, 70, 42
1, 40320, Note_on_c, 0, 47, 39
1, 40328, Control_c, 0, 64, 0
1, 40480, Control_c, 0, 64, 127
1, 40560, Tempo, 612245
1, 40560, Note_on_c, 0, 47, 0
1, 40560, Note_on_c, 0, 54, 29
1, 40800, Tempo, 588235
1, 40800, Note_on_c, 0, 54, 0
1, 40800, Note_on_c, 0, 56, 34
1, 41040, Note_on_c, 0, 56, 0
1, 41040, Note_on_c, 0, 55, 29
1, 41280, Tempo, 603015
1, 41280, Note_on_c, 0, 55, 0
1, 41280, Note_on_c, 0, 58, 29
1, 41520, Tempo, 638298
1, 41520, Note_on_c, 0, 58, 0
1, 41520, Note_on_c, 0, 49, 25
1, 41760, Tempo, 666667
1, 41760, Note_on_c, 0, 49, 0
1, 41760, Note_on_c, 0, 70, 0
1, 41760, Note_on_c, 0, 64, 0
1, 41760, Note_on_c, 0, 73, 0
1, 41760, Note_on_c, 0, 68, 42
1, 41760, Note_on_c, 0, 71, 51
1, 41760, Note_on_c, 0, 63, 32
1, 41760, Note_on_c, 0, 47, 36
1, 41772, Control_c, 0, 64, 0
1, 41932, Control_c, 0, 64, 127
1, 42000, Tempo, 612245
1, 42000, Note_on_c, 0, 47, 0
1, 42000, Note_on_c, 0, 55, 26
1, 42240, Tempo, 588235
1, 42240, Note_on_c, 0, 55, 0
1, 42240, Note_on_c, 0, 58, 29
1, 42480, Note_on_c, 0, 58, 0
1, 42480, Note_on_c, 0, 56, 26
1, 42720, Tempo, 603015
1, 42720, Note_on_c, 0, 56, 0
1, 42720, Note_on_c, 0, 59, 29
1, 42960, Tempo, 638298
1, 42960, Note_on_c, 0, 59, 0
1, 42960, Note_on_c, 0, 51, 25
1, 43200, Tempo, 628272
1, 43200, Note_on_c, 0, 51, 0
1, 43200, Note_on_c, 0, 63, 0
1, 43200, Note_on_c, 0, 71, 0
1, 43200, Note_on_c, 0, 68, 0
1, 43200, Note_on_c, 0, 61, 50
1, 43200, Note_on_c, 0, 67, 56
1, 43200, Note_on_c, 0, 70, 56
1, 43200, Note_on_c, 0, 39, 41
1, 43242, Control_c, 0, 64, 0
1, 43327, Control_c, 0, 64, 127
1, 43440, Tempo, 597015
1, 43440, Note_on_c, 0, 39, 0
1, 43440, Note_on_c, 0, 50, 30
1, 43680, Tempo, 579710
1, 43680, Note_on_c, 0, 50, 0
1, 43680, Note_on_c, 0, 52, 38
1, 43920, Note_on_c, 0, 52, 0
1, 43920, Note_on_c, 0, 51, 30
1, 44160, Tempo, 582524
1, 44160, Note_on_c, 0, 51, 0
1, 44160, Note_on_c, 0, 55, 36
1, 44400, Tempo, 645161
1, 44400, Note_on_c, 0, 55, 0
1, 44400, Note_on_c, 0, 46, 29
1, 44640, Tempo, 621762
1, 44640, Note_on_c, 0, 46, 0
1, 44640, Note_on_c, 0, 70, 0
1, 44640, Note_on_c, 0, 67, 0
1, 44640, Note_on_c, 0, 61, 0
1, 44640, Note_on_c, 0, 68, 50
1, 44640, Note_on_c, 0, 59, 45
1, 44640, Note_on_c, 0, 71, 60
1, 44640, Note_on_c, 0, 44, 38
1, 44652, Control_c, 0, 64, 0
1, 44767, Control_c, 0, 64, 127
1, 44880, Tempo, 594059
1, 44880, Note_on_c, 0, 44, 0
1, 44880, Note_on_c, 0, 50, 33
1, 45120, Tempo, 579710
1, 45120, Note_on_c, 0, 50, 0
1, 45120, Note_on_c, 0, 52, 37
1, 45360, Note_on_c, 0, 52, 0
1, 45360, Note_on_c, 0, 51, 29
1, 45600, Tempo, 603015
1, 45600, Note_on_c, 0, 51, 0
1, 45600, Note_on_c, 0, 56, 34
1, 45840, Note_on_c, 0, 56, 0
1, 45840, Note_on_c, 0, 44, 28
1, 45960, Tempo, 645161
1, 45960, Note_on_c, 0, 71, 0
1, 45960, Note_on_c, 0, 63, 49
1, 46080, Tempo, 655738
1, 46080, Note_on_c, 0, 63, 0
1, 46080, Note_on_c, 0, 44, 0
1, 46080, Note_on_c, 0, 59, 0
1, 46080, Note_on_c, 0, 68, 0
1, 46080, Note_on_c, 0, 68, 57
1, 46080, Note_on_c, 0, 65, 31
1, 46080, Note_on_c, 0, 59, 37
1, 46080, Note_on_c, 0, 37, 39
1, 46091, Control_c, 0, 64, 0
1, 46275, Control_c, 0, 64, 127
1, 46320, Tempo, 612245
1, 46320, Note_on_c, 0, 37, 0
1, 46320, Note_on_c, 0, 48, 26
1, 46560, Tempo, 588235
1, 46560, Note_on_c, 0, 48, 0
1, 46560, Note_on_c, 0, 51, 29
1, 46800, Note_on_c, 0, 51, 0
1, 46800, Note_on_c, 0, 49, 26
1, 47040, Tempo, 603015
1, 47040, Note_on_c, 0, 49, 0
1, 47040, Note_on_c, 0, 53, 29
1, 47280, Tempo, 638298
1, 47280, Note_on_c, 0, 53, 0
1, 47280, Note_on_c, 0, 44, 25
1, 47520, Tempo, 666667
1, 47520, Note_on_c, 0, 44, 0
1, 47520, Note_on_c, 0, 59, 0
1, 47520, Note_on_c, 0, 68, 0
1, 47520, Note_on_c, 0, 70, 51
1, 47520, Note_on_c, 0, 61, 33
1, 47520, Note_on_c, 0, 37, 36
1, 47532, Control_c, 0, 64, 0
1, 47715, Control_c, 0, 64, 127
1, 47760, Tempo, 612245
1, 47760, Note_on_c, 0, 37, 0
1, 47760, Note_on_c, 0, 48, 26
1, 48000, Tempo, 588235
1, 48000, Note_on_c, 0, 48, 0
1, 48000, Note_on_c, 0, 51, 29
1, 48240, Note_on_c, 0, 51, 0
1, 48240, Note_on_c, 0, 49, 26
1, 48480, Tempo, 603015
1, 48480, Note_on_c, 0, 49, 0
1, 48480, Note_on_c, 0, 53, 29
1, 48720, Tempo, 638298
1, 48720, Note_on_c, 0, 53, 0
1, 48720, Note_on_c, 0, 44, 25
1, 48960, Tempo, 666667
1, 48960, Note_on_c, 0, 44, 0
1, 48960, Note_on_c, 0, 61, 0
1, 48960, Note_on_c, 0, 70, 0
1, 48960, Note_on_c, 0, 65, 0
1, 48960, Note_on_c, 0, 58, 33
1, 48960, Note_on_c, 0, 66, 51
1, 48960, Note_on_c, 0, 42, 36
1, 48972, Control_c, 0, 64, 0
1, 49132, Control_c, 0, 64, 127
1, 49200, Tempo, 612245
1, 49200, Note_on_c, 0, 42, 0
1, 49200, Note_on_c, 0, 48, 26
1, 49440, Tempo, 588235
1, 49440, Note_on_c, 0, 48, 0
1, 49440, Note_on_c, 0, 51, 29
1, 49680, Note_on_c, 0, 51, 0
1, 49680, Note_on_c, 0, 49, 26
1, 49920, Tempo, 603015
1, 49920, Note_on_c, 0, 49, 0
1, 49920, Note_on_c, 0, 66, 0
1, 49920, Note_on_c, 0, 58, 0
1, 49920, Note_on_c, 0, 54, 29
1, 50160, Tempo, 670391
1, 50160, Note_on_c, 0, 54, 0
1, 50160, Note_on_c, 0, 42, 25
1, 50400, Tempo, 621762
1, 50400, Note_on_c, 0, 42, 0
1, 50400, Note_on_c, 0, 71, 53
1, 50400, Note_on_c, 0, 63, 36
1, 50400, Note_on_c, 0, 35, 34
1, 50412, Control_c, 0, 64, 0
1, 50572, Control_c, 0, 64, 127
1, 50640, Tempo, 594059
1, 50640, Note_on_c, 0, 35, 0
1, 50640, Note_on_c, 0, 53, 29
1, 50880, Tempo, 579710
1, 50880, Note_on_c, 0, 53, 0
1, 50880, Note_on_c, 0, 56, 33
1, 51120, Note_on_c, 0, 56, 0
1, 51120, Note_on_c, 0, 54, 26
1, 51360, Tempo, 603015
1, 51360, Note_on_c, 0, 54, 0
1, 51360, Note_on_c, 0, 59, 29
1, 51600, Note_on_c, 0, 59, 0
1, 51600, Note_on_c, 0, 47, 25
1, 51720, Tempo, 645161
1, 51840, Tempo, 677966
1, 51840, Note_on_c, 0, 47, 0
1, 51840, Note_on_c, 0, 63, 0
1, 51840, Note_on_c, 0, 71, 0
1, 51840, Note_on_c, 0, 59, 32
1, 51840, Note_on_c, 0, 68, 50
1, 51840, Note_on_c, 0, 65, 41
1, 51840, Control_c, 0, 64, 0
1, 51840, Note_on_c, 0, 37, 35
1, 52000, Control_c, 0, 64, 127
1, 52080, Tempo, 625000
1, 52080, Note_on_c, 0, 37, 0
1, 52080, Note_on_c, 0, 48, 23
1, 52320, Tempo, 603015
1, 52320, Note_on_c, 0, 48, 0
1, 52320, Note_on_c, 0, 51, 25
1, 52560, Note_on_c, 0, 51, 0
1, 52560, Note_on_c, 0, 49, 22
1, 52800, Tempo, 603015
1, 52800, Note_on_c, 0, 49, 0
1, 52800, Note_on_c, 0, 53, 24
1, 53040, Tempo, 638298
1, 53040, Note_on_c, 0, 53, 0
1, 53040, Note_on_c, 0, 44, 20
1, 53280, Tempo, 677966
1, 53280, Note_on_c, 0, 44, 0
1, 53280, Note_on_c, 0, 68, 0
1, 53280, Note_on_c, 0, 59, 0
1, 53280, Note_on_c, 0, 70, 42
1, 53280, Note_on_c, 0, 61, 35
1, 53280, Note_on_c, 0, 37, 29
1, 53292, Control_c, 0, 64, 0
1, 53463, Control_c, 0, 64, 127
1, 53520, Tempo, 638298
1, 53520, Note_on_c, 0, 37, 0
1, 53520, Note_on_c, 0, 48, 20
1, 53760, Tempo, 612245
1, 53760, Note_on_c, 0, 48, 0
1, 53760, Note_on_c, 0, 51, 23
1, 54000, Note_on_c, 0, 51, 0
1, 54000, Note_on_c, 0, 49, 19
1, 54240, Tempo, 625000
1, 54240, Note_on_c, 0, 49, 0
1, 54240, Note_on_c, 0, 61, 0
1, 54240, Note_on_c, 0, 59, 39
1, 54240, Note_on_c, 0, 53, 23
1, 54255, Control_c, 0, 64, 0
1, 54423, Control_c, 0, 64, 127
1, 54480, Tempo, 638298
1, 54480, Note_on_c, 0, 53, 0
1, 54480, Note_on_c, 0, 44, 18
1, 54720, Tempo, 689655
1, 54720, Note_on_c, 0, 44, 0
1, 54720, Note_on_c, 0, 59, 0
1, 54720, Note_on_c, 0, 70, 0
1, 54720, Note_on_c, 0, 65, 0
1, 54720, Note_on_c, 0, 58, 24
1, 54720, Note_on_c, 0, 66, 38
1, 54720, Note_on_c, 0, 42, 26
1, 54732, Control_c, 0, 64, 0
1, 54880, Control_c, 0, 64, 127
1, 54960, Tempo, 641711
1, 54960, Note_on_c, 0, 42, 0
1, 54960, Note_on_c, 0, 48, 19
1, 55200, Tempo, 615385
1, 55200, Note_on_c, 0, 48, 0
1, 55200, Note_on_c, 0, 51, 22
1, 55440, Note_on_c, 0, 51, 0
1, 55440, Note_on_c, 0, 49, 19
1, 55680, Tempo, 638298
1, 55680, Note_on_c, 0, 49, 0
1, 55680, Note_on_c, 0, 54, 22
1, 55920, Tempo, 655738
1, 55920, Note_on_c, 0, 54, 0
1, 55920, Note_on_c, 0, 37, 18
1, 56160, Tempo, 666667
1, 56160, Note_on_c, 0, 37, 0
1, 56160, Note_on_c, 0, 42, 26
1, 56175, Control_c, 0, 64, 0
1, 56200, Tempo, 710059
1, 56355, Control_c, 0, 64, 127
1, 56400, Tempo, 645161
1, 56400, Note_on_c, 0, 42, 0
1, 56400, Note_on_c, 0, 48, 19
1, 56640, Tempo, 621762
1, 56640, Note_on_c, 0, 48, 0
1, 56640, Note_on_c, 0, 66, 0
1, 56640, Note_on_c, 0, 58, 0
1, 56640, Note_on_c, 0, 51, 22
1, 56880, Note_on_c, 0, 51, 0
1, 56880, Note_on_c, 0, 49, 19
1, 57120, Tempo, 652174
1, 57120, Note_on_c, 0, 49, 0
1, 57120, Note_on_c, 0, 54, 22
1, 57360, Tempo, 714286
1, 57360, Note_on_c, 0, 54, 0
1, 57360, Note_on_c, 0, 41, 18
1, 57600, Tempo, 805369
1, 57600, Note_on_c, 0, 41, 0
1, 57600, Note_on_c, 0, 78, 60
1, 57600, Note_on_c, 0, 39, 31
1, 57602, Control_c, 0, 64, 0
1, 57691, Control_c, 0, 64, 127
1, 57840, Tempo, 779221
1, 57840, Note_on_c, 0, 39, 0
1, 57840, Note_on_c, 0, 66, 24
1, 57840, Note_on_c, 0, 51, 20
1, 57840, Note_on_c, 0, 58, 30
1, 58068, Note_on_c, 0, 58, 0
1, 58068, Note_on_c, 0, 51, 0
1, 58068, Note_on_c, 0, 66, 0
1, 58080, Tempo, 750000
1, 58080, Note_on_c, 0, 66, 26
1, 58080, Note_on_c, 0, 51, 22
1, 58080, Note_on_c, 0, 58, 33
1, 58308, Note_on_c, 0, 58, 0
1, 58308, Note_on_c, 0, 51, 0
1, 58308, Note_on_c, 0, 66, 0
1, 58320, Note_on_c, 0, 66, 28
1, 58320, Note_on_c, 0, 51, 23
1, 58320, Note_on_c, 0, 58, 36
1, 58548, Note_on_c, 0, 58, 0
1, 58548, Note_on_c, 0, 51, 0
1, 58548, Note_on_c, 0, 66, 0
1, 58560, Note_on_c, 0, 66, 31
1, 58560, Note_on_c, 0, 51, 26
1, 58560, Note_on_c, 0, 63, 40
1, 58788, Note_on_c, 0, 63, 0
1, 58788, Note_on_c, 0, 51, 0
1, 58788, Note_on_c, 0, 66, 0
1, 58800, Tempo, 816327
1, 58800, Note_on_c, 0, 66, 28
1, 58800, Note_on_c, 0, 51, 23
1, 58800, Note_on_c, 0, 58, 36
1, 59028, Note_on_c, 0, 58, 0
1, 59028, Note_on_c, 0, 51, 0
1, 59028, Note_on_c, 0, 66, 0
1, 59040, Tempo, 784314
1, 59040, Note_on_c, 0, 78, 0
1, 59040, Note_on_c, 0, 70, 57
1, 59040, Note_on_c, 0, 66, 29
1, 59040, Note_on_c, 0, 51, 24
1, 59040, Note_on_c, 0, 58, 37
1, 59109, Control_c, 0, 64, 0
1, 59177, Control_c, 0, 64, 127
1, 59268, Note_on_c, 0, 58, 0
1, 59268, Note_on_c, 0, 51, 0
1, 59268, Note_on_c, 0, 66, 0
1, 59280, Tempo, 764331
1, 59280, Note_on_c, 0, 66, 29
1, 59280, Note_on_c, 0, 51, 24
1, 59280, Note_on_c, 0, 61, 37
1, 59508, Note_on_c, 0, 61, 0
1, 59508, Note_on_c, 0, 51, 0
1, 59508, Note_on_c, 0, 66, 0
1, 59520, Note_on_c, 0, 66, 28
1, 59520, Note_on_c, 0, 51, 23
1, 59520, Note_on_c, 0, 60, 36
1, 59528, Control_c, 0, 64, 0
1, 59623, Control_c, 0, 64, 127
1, 59748, Note_on_c, 0, 60, 0
1, 59748, Note_on_c, 0, 51, 0
1, 59748, Note_on_c, 0, 66, 0
1, 59760, Note_on_c, 0, 66, 27
1, 59760, Note_on_c, 0, 51, 22
1, 59760, Note_on_c, 0, 58, 34
1, 59988, Note_on_c, 0, 58, 0
1, 59988, Note_on_c, 0, 51, 0
1, 59988, Note_on_c, 0, 66, 0
1, 60000, Tempo, 789474
1, 60000, Note_on_c, 0, 70, 0
1, 60000, Note_on_c, 0, 66, 26
1, 60000, Note_on_c, 0, 72, 58
1, 60000, Note_on_c, 0, 44, 22
1, 60000, Note_on_c, 0, 58, 33
1, 60006, Control_c, 0, 64, 0
1, 60091, Control_c, 0, 64, 127
1, 60228, Note_on_c, 0, 58, 0
1, 60228, Note_on_c, 0, 44, 0
1, 60228, Note_on_c, 0, 66, 0
1, 60240, Note_on_c, 0, 66, 26
1, 60240, Note_on_c, 0, 44, 22
1, 60240, Note_on_c, 0, 56, 33
1, 60468, Note_on_c, 0, 56, 0
1, 60468, Note_on_c, 0, 44, 0
1, 60468, Note_on_c, 0, 66, 0
1, 60480, Note_on_c, 0, 72, 0
1, 60480, Note_on_c, 0, 65, 30
1, 60480, Note_on_c, 0, 72, 60
1, 60480, Note_on_c, 0, 37, 30
1, 60489, Control_c, 0, 64, 0
1, 60593, Control_c, 0, 64, 127
1, 60708, Note_on_c, 0, 65, 0
1, 60720, Tempo, 774194
1, 60720, Note_on_c, 0, 37, 0
1, 60720, Note_on_c, 0, 65, 27
1, 60720, Note_on_c, 0, 56, 27
1, 60720, Note_on_c, 0, 44, 28
1, 60948, Note_on_c, 0, 44, 0
1, 60948, Note_on_c, 0, 56, 0
1, 60948, Note_on_c, 0, 65, 0
1, 60960, Tempo, 754717
1, 60960, Note_on_c, 0, 65, 31
1, 60960, Note_on_c, 0, 49, 33
1, 60960, Note_on_c, 0, 56, 31
1, 61188, Note_on_c, 0, 56, 0
1, 61188, Note_on_c, 0, 49, 0
1, 61188, Note_on_c, 0, 65, 0
1, 61200, Note_on_c, 0, 65, 30
1, 61200, Note_on_c, 0, 51, 31
1, 61200, Note_on_c, 0, 56, 30
1, 61428, Note_on_c, 0, 56, 0
1, 61428, Note_on_c, 0, 51, 0
1, 61428, Note_on_c, 0, 65, 0
1, 61440, Note_on_c, 0, 65, 26
1, 61440, Note_on_c, 0, 49, 28
1, 61440, Note_on_c, 0, 56, 26
1, 61560, Tempo, 727273
1, 61560, Note_on_c, 0, 72, 0
1, 61560, Note_on_c, 0, 73, 43
1, 61668, Note_on_c, 0, 65, 0
1, 61668, Note_on_c, 0, 56, 0
1, 61668, Note_on_c, 0, 49, 0
1, 61680, Tempo, 710059
1, 61680, Note_on_c, 0, 73, 0
1, 61680, Note_on_c, 0, 65, 26
1, 61680, Note_on_c, 0, 77, 42
1, 61680, Note_on_c, 0, 44, 28
1, 61680, Note_on_c, 0, 56, 26
1, 61800, Note_on_c, 0, 77, 0
1, 61800, Note_on_c, 0, 75, 40
1, 61908, Note_on_c, 0, 65, 0
1, 61908, Note_on_c, 0, 56, 0
1, 61908, Note_on_c, 0, 44, 0
1, 61920, Tempo, 745342
1, 61920, Note_on_c, 0, 75, 0
1, 61920, Note_on_c, 0, 73, 52
1, 61920, Note_on_c, 0, 65, 26
1, 61920, Note_on_c, 0, 49, 28
1, 61920, Note_on_c, 0, 56, 26
1, 61941, Control_c, 0, 64, 0
1, 61991, Control_c, 0, 64, 127
1, 62148, Note_on_c, 0, 56, 0
1, 62148, Note_on_c, 0, 49, 0
1, 62148, Note_on_c, 0, 65, 0
1, 62160, Note_on_c, 0, 65, 26
1, 62160, Note_on_c, 0, 51, 28
1, 62160, Note_on_c, 0, 56, 26
1, 62360, Tempo, 727273
1, 62388, Note_on_c, 0, 56, 0
1, 62388, Note_on_c, 0, 51, 0
1, 62388, Note_on_c, 0, 65, 0
1, 62400, Note_on_c, 0, 65, 26
1, 62400, Note_on_c, 0, 49, 28
1, 62400, Note_on_c, 0, 56, 26
1, 62416, Control_c, 0, 64, 0
1, 62440, Tempo, 731707
1, 62480, Tempo, 736196
1, 62520, Tempo, 740741
1, 62534, Control_c, 0, 64, 127
1, 62560, Tempo, 745342
1, 62600, Tempo, 750000
1, 62628, Note_on_c, 0, 56, 0
1, 62628, Note_on_c, 0, 49, 0
1, 62628, Note_on_c, 0, 65, 0
1, 62640, Tempo, 754717
1, 62640, Note_on_c, 0, 65, 26
1, 62640, Note_on_c, 0, 54, 28
1, 62640, Note_on_c, 0, 56, 26
1, 62680, Tempo, 759494
1, 62720, Tempo, 764331
1, 62760, Tempo, 769231
1, 62800, Tempo, 774194
1, 62840, Tempo, 779221
1, 62868, Note_on_c, 0, 56, 0
1, 62868, Note_on_c, 0, 54, 0
1, 62868, Note_on_c, 0, 65, 0
1, 62880, Tempo, 784314
1, 62880, Note_on_c, 0, 65, 26
1, 62880, Note_on_c, 0, 53, 28
1, 62880, Note_on_c, 0, 56, 26
1, 62894, Control_c, 0, 64, 0
1, 63014, Control_c, 0, 64, 127
1, 63108, Note_on_c, 0, 56, 0
1, 63108, Note_on_c, 0, 53, 0
1, 63108, Note_on_c, 0, 65, 0
1, 63120, Note_on_c, 0, 65, 26
1, 63120, Note_on_c, 0, 44, 28
1, 63120, Note_on_c, 0, 56, 26
1, 63348, Note_on_c, 0, 56, 0
1, 63348, Note_on_c, 0, 44, 0
1, 63348, Note_on_c, 0, 65, 0
1, 63360, Tempo, 805369
1, 63360, Note_on_c, 0, 73, 0
1, 63360, Note_on_c, 0, 76, 60
1, 63360, Note_on_c, 0, 37, 31
1, 63367, Control_c, 0, 64, 0
1, 63486, Control_c, 0, 64, 127
1, 63600, Tempo, 779221
1, 63600, Note_on_c, 0, 37, 0
1, 63600, Note_on_c, 0, 64, 24
1, 63600, Note_on_c, 0, 49, 20
1, 63600, Note_on_c, 0, 56, 30
1, 63828, Note_on_c, 0, 56, 0
1, 63828, Note_on_c, 0, 49, 0
1, 63828, Note_on_c, 0, 64, 0
1, 63840, Tempo, 750000
1, 63840, Note_on_c, 0, 64, 26
1, 63840, Note_on_c, 0, 49, 22
1, 63840, Note_on_c, 0, 56, 33
1, 64068, Note_on_c, 0, 56, 0
1, 64068, Note_on_c, 0, 49, 0
1, 64068, Note_on_c, 0, 64, 0
1, 64080, Note_on_c, 0, 64, 28
1, 64080, Note_on_c, 0, 49, 23
1, 64080, Note_on_c, 0, 56, 36
1, 64308, Note_on_c, 0, 56, 0
1, 64308, Note_on_c, 0, 49, 0
1, 64308, Note_on_c, 0, 64, 0
1, 64320, Note_on_c, 0, 64, 31
1, 64320, Note_on_c, 0, 49, 26
1, 64320, Note_on_c, 0, 61, 40
1, 64548, Note_on_c, 0, 61, 0
1, 64548, Note_on_c, 0, 49, 0
1, 64548, Note_on_c, 0, 64, 0
1, 64560, Tempo, 816327
1, 64560, Note_on_c, 0, 64, 28
1, 64560, Note_on_c, 0, 49, 23
1, 64560, Note_on_c, 0, 56, 36
1, 64743, Control_c, 0, 64, 0
1, 64788, Note_on_c, 0, 56, 0
1, 64788, Note_on_c, 0, 49, 0
1, 64788, Note_on_c, 0, 64, 0
1, 64800, Tempo, 784314
1, 64800, Note_on_c, 0, 76, 0
1, 64800, Note_on_c, 0, 64, 29
1, 64800, Note_on_c, 0, 68, 57
1, 64800, Note_on_c, 0, 49, 24
1, 64800, Note_on_c, 0, 56, 37
1, 64846, Control_c, 0, 64, 127
1, 65028, Note_on_c, 0, 56, 0
1, 65028, Note_on_c, 0, 49, 0
1, 65028, Note_on_c, 0, 64, 0
1, 65040, Tempo, 764331
1, 65040, Note_on_c, 0, 64, 29
1, 65040, Note_on_c, 0, 49, 24
1, 65040, Note_on_c, 0, 59, 37
1, 65268, Note_on_c, 0, 59, 0
1, 65268, Note_on_c, 0, 49, 0
1, 65268, Note_on_c, 0, 64, 0
1, 65280, Note_on_c, 0, 64, 28
1, 65280, Note_on_c, 0, 49, 23
1, 65280, Note_on_c, 0, 58, 36
1, 65293, Control_c, 0, 64, 0
1, 65429, Control_c, 0, 64, 127
1, 65508, Note_on_c, 0, 58, 0
1, 65508, Note_on_c, 0, 49, 0
1, 65508, Note_on_c, 0, 64, 0
1, 65520, Note_on_c, 0, 64, 27
1, 65520, Note_on_c, 0, 49, 22
1, 65520, Note_on_c, 0, 56, 34
1, 65748, Note_on_c, 0, 56, 0
1, 65748, Note_on_c, 0, 49, 0
1, 65748, Note_on_c, 0, 64, 0
1, 65760, Tempo, 789474
1, 65760, Note_on_c, 0, 68, 0
1, 65760, Note_on_c, 0, 70, 58
1, 65760, Note_on_c, 0, 64, 26
1, 65760, Note_on_c, 0, 42, 22
1, 65760, Note_on_c, 0, 56, 33
1, 65769, Control_c, 0, 64, 0
1, 65897, Control_c, 0, 64, 127
1, 65988, Note_on_c, 0, 56, 0
1, 65988, Note_on_c, 0, 42, 0
1, 65988, Note_on_c, 0, 64, 0
1, 66000, Note_on_c, 0, 64, 26
1, 66000, Note_on_c, 0, 42, 22
1, 66000, Note_on_c, 0, 54, 33
1, 66228, Note_on_c, 0, 54, 0
1, 66228, Note_on_c, 0, 42, 0
1, 66228, Note_on_c, 0, 64, 0
1, 66240, Note_on_c, 0, 70, 0
1, 66240, Note_on_c, 0, 63, 30
1, 66240, Note_on_c, 0, 70, 60
1, 66240, Note_on_c, 0, 35, 30
1, 66247, Control_c, 0, 64, 0
1, 66339, Control_c, 0, 64, 127
1, 66468, Note_on_c, 0, 63, 0
1, 66480, Tempo, 774194
1, 66480, Note_on_c, 0, 35, 0
1, 66480, Note_on_c, 0, 63, 27
1, 66480, Note_on_c, 0, 54, 27
1, 66480, Note_on_c, 0, 42, 28
1, 66708, Note_on_c, 0, 42, 0
1, 66708, Note_on_c, 0, 54, 0
1, 66708, Note_on_c, 0, 63, 0
1, 66720, Tempo, 754717
1, 66720, Note_on_c, 0, 63, 31
1, 66720, Note_on_c, 0, 47, 33
1, 66720, Note_on_c, 0, 54, 31
1, 66948, Note_on_c, 0, 54, 0
1, 66948, Note_on_c, 0, 47, 0
1, 66948, Note_on_c, 0, 63, 0
1, 66960, Note_on_c, 0, 63, 30
1, 66960, Note_on_c, 0, 49, 31
1, 66960, Note_on_c, 0, 54, 30
1, 67188, Note_on_c, 0, 54, 0
1, 67188, Note_on_c, 0, 49, 0
1, 67188, Note_on_c, 0, 63, 0
1, 67191, Tempo, 731707
1, 67200, Tempo, 718563
1, 67200, Note_on_c, 0, 63, 26
1, 67200, Note_on_c, 0, 47, 28
1, 67200, Note_on_c, 0, 54, 26
1, 67320, Note_on_c, 0, 70, 0
1, 67320, Note_on_c, 0, 71, 43
1, 67428, Note_on_c, 0, 63, 0
1, 67428, Note_on_c, 0, 54, 0
1, 67428, Note_on_c, 0, 47, 0
1, 67440, Tempo, 701754
1, 67440, Note_on_c, 0, 71, 0
1, 67440, Note_on_c, 0, 75, 42
1, 67440, Note_on_c, 0, 63, 26
1, 67440, Note_on_c, 0, 42, 28
1, 67440, Note_on_c, 0, 54, 26
1, 67560, Note_on_c, 0, 75, 0
1, 67560, Note_on_c, 0, 73, 40
1, 67668, Note_on_c, 0, 63, 0
1, 67668, Note_on_c, 0, 54, 0
1, 67668, Note_on_c, 0, 42, 0
1, 67680, Tempo, 774194
1, 67680, Note_on_c, 0, 73, 0
1, 67680, Note_on_c, 0, 63, 24
1, 67680, Note_on_c, 0, 71, 45
1, 67680, Note_on_c, 0, 47, 28
1, 67680, Note_on_c, 0, 54, 26
1, 67693, Control_c, 0, 64, 0
1, 67807, Control_c, 0, 64, 127
1, 67908, Note_on_c, 0, 54, 0
1, 67908, Note_on_c, 0, 47, 0
1, 67908, Note_on_c, 0, 63, 0
1, 67920, Note_on_c, 0, 63, 26
1, 67920, Note_on_c, 0, 49, 28
1, 67920, Note_on_c, 0, 54, 26
1, 68120, Tempo, 731707
1, 68148, Note_on_c, 0, 54, 0
1, 68148, Note_on_c, 0, 49, 0
1, 68148, Note_on_c, 0, 63, 0
1, 68160, Tempo, 754717
1, 68160, Note_on_c, 0, 63, 26
1, 68160, Note_on_c, 0, 47, 28
1, 68160, Note_on_c, 0, 54, 26
1, 68240, Tempo, 759494
1, 68320, Tempo, 764331
1, 68388, Note_on_c, 0, 54, 0
1, 68388, Note_on_c, 0, 47, 0
1, 68388, Note_on_c, 0, 63, 0
1, 68400, Tempo, 769231
1, 68400, Note_on_c, 0, 63, 26
1, 68400, Note_on_c, 0, 42, 28
1, 68400, Note_on_c, 0, 54, 26
1, 68480, Tempo, 774194
1, 68560, Tempo, 779221
1, 68600, Tempo, 784314
1, 68628, Note_on_c, 0, 54, 0
1, 68628, Note_on_c, 0, 42, 0
1, 68628, Note_on_c, 0, 63, 0
1, 68640, Tempo, 784314
1, 68640, Note_on_c, 0, 71, 0
1, 68640, Note_on_c, 0, 63, 26
1, 68640, Note_on_c, 0, 70, 56
1, 68640, Note_on_c, 0, 47, 28
1, 68640, Note_on_c, 0, 54, 26
1, 68654, Control_c, 0, 64, 0
1, 68781, Control_c, 0, 64, 127
1, 68868, Note_on_c, 0, 54, 0
1, 68868, Note_on_c, 0, 47, 0
1, 68868, Note_on_c, 0, 63, 0
1, 68880, Note_on_c, 0, 61, 26
1, 68880, Note_on_c, 0, 49, 28
1, 68880, Note_on_c, 0, 54, 26
1, 69108, Note_on_c, 0, 54, 0
1, 69108, Note_on_c, 0, 49, 0
1, 69108, Note_on_c, 0, 61, 0
1, 69120, Tempo, 736196
1, 69120, Note_on_c, 0, 70, 0
1, 69120, Note_on_c, 0, 59, 30
1, 69120, Note_on_c, 0, 70, 60
1, 69120, Note_on_c, 0, 51, 22
1, 69120, Note_on_c, 0, 54, 30
1, 69127, Control_c, 0, 64, 0
1, 69233, Control_c, 0, 64, 127
1, 69348, Note_on_c, 0, 54, 0
1, 69348, Note_on_c, 0, 51, 0
1, 69348, Note_on_c, 0, 59, 0
1, 69360, Tempo, 774194
1, 69360, Note_on_c, 0, 59, 27
1, 69360, Note_on_c, 0, 54, 27
1, 69360, Note_on_c, 0, 51, 22
1, 69588, Note_on_c, 0, 51, 0
1, 69588, Note_on_c, 0, 54, 0
1, 69588, Note_on_c, 0, 59, 0
1, 69600, Tempo, 754717
1, 69600, Note_on_c, 0, 70, 0
1, 69600, Note_on_c, 0, 68, 55
1, 69600, Note_on_c, 0, 59, 21
1, 69600, Note_on_c, 0, 51, 26
1, 69600, Note_on_c, 0, 54, 31
1, 69608, Control_c, 0, 64, 0
1, 69678, Control_c, 0, 64, 127
1, 69828, Note_on_c, 0, 54, 0
1, 69828, Note_on_c, 0, 51, 0
1, 69828, Note_on_c, 0, 59, 0
1, 69840, Tempo, 701754
1, 69840, Note_on_c, 0, 59, 30
1, 69840, Note_on_c, 0, 51, 25
1, 69840, Note_on_c, 0, 54, 30
1, 70068, Note_on_c, 0, 54, 0
1, 70068, Note_on_c, 0, 51, 0
1, 70068, Note_on_c, 0, 59, 0
1, 70080, Tempo, 705882
1, 70080, Note_on_c, 0, 61, 26
1, 70080, Note_on_c, 0, 49, 22
1, 70080, Note_on_c, 0, 54, 26
1, 70094, Control_c, 0, 64, 0
1, 70200, Note_on_c, 0, 68, 0
1, 70200, Note_on_c, 0, 70, 43
1, 70221, Control_c, 0, 64, 127
1, 70308, Note_on_c, 0, 61, 0
1, 70308, Note_on_c, 0, 54, 0
1, 70308, Note_on_c, 0, 49, 0
1, 70320, Tempo, 685714
1, 70320, Note_on_c, 0, 70, 0
1, 70320, Note_on_c, 0, 73, 42
1, 70320, Note_on_c, 0, 61, 26
1, 70320, Note_on_c, 0, 49, 22
1, 70320, Note_on_c, 0, 54, 26
1, 70440, Note_on_c, 0, 73, 0
1, 70440, Note_on_c, 0, 71, 40
1, 70548, Note_on_c, 0, 61, 0
1, 70548, Note_on_c, 0, 54, 0
1, 70548, Note_on_c, 0, 49, 0
1, 70560, Tempo, 736196
1, 70560, Note_on_c, 0, 71, 0
1, 70560, Note_on_c, 0, 63, 30
1, 70560, Note_on_c, 0, 70, 60
1, 70560, Note_on_c, 0, 47, 22
1, 70560, Note_on_c, 0, 54, 30
1, 70573, Control_c, 0, 64, 0
1, 70638, Control_c, 0, 64, 127
1, 70788, Note_on_c, 0, 54, 0
1, 70788, Note_on_c, 0, 47, 0
1, 70788, Note_on_c, 0, 63, 0
1, 70800, Tempo, 774194
1, 70800, Note_on_c, 0, 63, 27
1, 70800, Note_on_c, 0, 54, 27
1, 70800, Note_on_c, 0, 47, 22
1, 71028, Note_on_c, 0, 47, 0
1, 71028, Note_on_c, 0, 54, 0
1, 71028, Note_on_c, 0, 63, 0
1, 71040, Tempo, 754717
1, 71040, Note_on_c, 0, 70, 0
1, 71040, Note_on_c, 0, 68, 54
1, 71040, Note_on_c, 0, 63, 21
1, 71040, Note_on_c, 0, 47, 26
1, 71040, Note_on_c, 0, 54, 31
1, 71054, Control_c, 0, 64, 0
1, 71132, Control_c, 0, 64, 127
1, 71268, Note_on_c, 0, 54, 0
1, 71268, Note_on_c, 0, 47, 0
1, 71268, Note_on_c, 0, 63, 0
1, 71280, Tempo, 736196
1, 71280, Note_on_c, 0, 63, 30
1, 71280, Note_on_c, 0, 47, 25
1, 71280, Note_on_c, 0, 54, 30
1, 71508, Note_on_c, 0, 54, 0
1, 71508, Note_on_c, 0, 47, 0
1, 71508, Note_on_c, 0, 63, 0
1, 71520, Tempo, 710059
1, 71520, Note_on_c, 0, 61, 26
1, 71520, Note_on_c, 0, 49, 22
1, 71520, Note_on_c, 0, 54, 26
1, 71532, Control_c, 0, 64, 0
1, 71612, Control_c, 0, 64, 127
1, 71640, Note_on_c, 0, 68, 0
1, 71640, Note_on_c, 0, 70, 40
1, 71748, Note_on_c, 0, 61, 0
1, 71748, Note_on_c, 0, 54, 0
1, 71748, Note_on_c, 0, 49, 0
1, 71760, Tempo, 689655
1, 71760, Note_on_c, 0, 70, 0
1, 71760, Note_on_c, 0, 61, 26
1, 71760, Note_on_c, 0, 73, 39
1, 71760, Note_on_c, 0, 49, 22
1, 71760, Note_on_c, 0, 54, 26
1, 71880, Note_on_c, 0, 73, 0
1, 71880, Note_on_c, 0, 71, 38
1, 71988, Note_on_c, 0, 61, 0
1, 71988, Note_on_c, 0, 54, 0
1, 71988, Note_on_c, 0, 49, 0
1, 72000, Tempo, 736196
1, 72000, Note_on_c, 0, 71, 0
1, 72000, Note_on_c, 0, 59, 33
1, 72000, Note_on_c, 0, 70, 57
1, 72000, Note_on_c, 0, 51, 22
1, 72000, Note_on_c, 0, 54, 30
1, 72007, Control_c, 0, 64, 0
1, 72095, Control_c, 0, 64, 127
1, 72228, Note_on_c, 0, 54, 0
1, 72228, Note_on_c, 0, 51, 0
1, 72228, Note_on_c, 0, 59, 0
1, 72240, Tempo, 774194
1, 72240, Note_on_c, 0, 59, 29
1, 72240, Note_on_c, 0, 54, 27
1, 72240, Note_on_c, 0, 51, 22
1, 72468, Note_on_c, 0, 51, 0
1, 72468, Note_on_c, 0, 54, 0
1, 72468, Note_on_c, 0, 59, 0
1, 72480, Tempo, 745342
1, 72480, Note_on_c, 0, 70, 0
1, 72480, Note_on_c, 0, 68, 53
1, 72480, Note_on_c, 0, 63, 40
1, 72480, Note_on_c, 0, 47, 26
1, 72480, Note_on_c, 0, 54, 31
1, 72493, Control_c, 0, 64, 0
1, 72650, Control_c, 0, 64, 127
1, 72708, Note_on_c, 0, 54, 0
1, 72708, Note_on_c, 0, 47, 0
1, 72708, Note_on_c, 0, 63, 0
1, 72720, Note_on_c, 0, 63, 44
1, 72720, Note_on_c, 0, 47, 25
1, 72720, Note_on_c, 0, 54, 30
1, 72948, Note_on_c, 0, 54, 0
1, 72948, Note_on_c, 0, 47, 0
1, 72948, Note_on_c, 0, 63, 0
1, 72960, Note_on_c, 0, 65, 53
1, 72960, Note_on_c, 0, 47, 29
1, 72960, Note_on_c, 0, 56, 35
1, 72967, Control_c, 0, 64, 0
1, 73080, Tempo, 727273
1, 73087, Control_c, 0, 64, 127
1, 73188, Note_on_c, 0, 56, 0
1, 73188, Note_on_c, 0, 47, 0
1, 73188, Note_on_c, 0, 65, 0
1, 73200, Tempo, 710059
1, 73200, Note_on_c, 0, 63, 42
1, 73200, Note_on_c, 0, 47, 24
1, 73200, Note_on_c, 0, 56, 29
1, 73428, Note_on_c, 0, 56, 0
1, 73428, Note_on_c, 0, 47, 0
1, 73428, Note_on_c, 0, 63, 0
1, 73440, Tempo, 736196
1, 73440, Note_on_c, 0, 65, 48
1, 73440, Note_on_c, 0, 47, 22
1, 73440, Note_on_c, 0, 56, 30
1, 73449, Control_c, 0, 64, 0
1, 73610, Control_c, 0, 64, 127
1, 73668, Note_on_c, 0, 56, 0
1, 73668, Note_on_c, 0, 47, 0
1, 73680, Tempo, 774194
1, 73680, Note_on_c, 0, 65, 0
1, 73680, Note_on_c, 0, 63, 42
1, 73680, Note_on_c, 0, 54, 27
1, 73680, Note_on_c, 0, 47, 22
1, 73908, Note_on_c, 0, 47, 0
1, 73908, Note_on_c, 0, 54, 0
1, 73920, Note_on_c, 0, 63, 0
1, 73920, Note_on_c, 0, 65, 40
1, 73920, Note_on_c, 0, 47, 26
1, 73920, Note_on_c, 0, 56, 31
1, 73928, Control_c, 0, 64, 0
1, 74076, Control_c, 0, 64, 127
1, 74148, Note_on_c, 0, 56, 0
1, 74148, Note_on_c, 0, 47, 0
1, 74160, Note_on_c, 0, 65, 0
1, 74160, Note_on_c, 0, 68, 0
1, 74160, Note_on_c, 0, 63, 46
1, 74160, Note_on_c, 0, 70, 55
1, 74160, Note_on_c, 0, 47, 27
1, 74160, Note_on_c, 0, 54, 32
1, 74388, Note_on_c, 0, 54, 0
1, 74388, Note_on_c, 0, 47, 0
1, 74400, Note_on_c, 0, 70, 0
1, 74400, Note_on_c, 0, 63, 0
1, 74400, Note_on_c, 0, 61, 51
1, 74400, Note_on_c, 0, 73, 61
1, 74400, Note_on_c, 0, 46, 28
1, 74400, Note_on_c, 0, 54, 34
1, 74407, Control_c, 0, 64, 0
1, 74520, Tempo, 727273
1, 74541, Control_c, 0, 64, 127
1, 74628, Note_on_c, 0, 54, 0
1, 74628, Note_on_c, 0, 46, 0
1, 74640, Tempo, 731707
1, 74640, Note_on_c, 0, 73, 0
1, 74640, Note_on_c, 0, 61, 0
1, 74640, Note_on_c, 0, 70, 55
1, 74640, Note_on_c, 0, 61, 46
1, 74640, Note_on_c, 0, 49, 29
1, 74640, Note_on_c, 0, 54, 35
1, 74868, Note_on_c, 0, 54, 0
1, 74868, Note_on_c, 0, 49, 0
1, 74880, Tempo, 754717
1, 74880, Note_on_c, 0, 61, 0
1, 74880, Note_on_c, 0, 70, 0
1, 74880, Note_on_c, 0, 58, 30
1, 74880, Note_on_c, 0, 66, 60
1, 74880, Note_on_c, 0, 51, 22
1, 74880, Note_on_c, 0, 54, 30
1, 74887, Control_c, 0, 64, 0
1, 75017, Control_c, 0, 64, 127
1, 75108, Note_on_c, 0, 54, 0
1, 75108, Note_on_c, 0, 51, 0
1, 75108, Note_on_c, 0, 58, 0
1, 75120, Tempo, 800000
1, 75120, Note_on_c, 0, 58, 34
1, 75120, Note_on_c, 0, 54, 27
1, 75120, Note_on_c, 0, 51, 22
1, 75348, Note_on_c, 0, 51, 0
1, 75348, Note_on_c, 0, 54, 0
1, 75348, Note_on_c, 0, 58, 0
1, 75360, Tempo, 769231
1, 75360, Note_on_c, 0, 66, 0
1, 75360, Note_on_c, 0, 63, 46
1, 75360, Note_on_c, 0, 66, 58
1, 75360, Note_on_c, 0, 51, 26
1, 75360, Note_on_c, 0, 58, 31
1, 75588, Note_on_c, 0, 58, 0
1, 75588, Note_on_c, 0, 51, 0
1, 75588, Note_on_c, 0, 63, 0
1, 75600, Note_on_c, 0, 63, 34
1, 75600, Note_on_c, 0, 51, 25
1, 75600, Note_on_c, 0, 58, 30
1, 75828, Note_on_c, 0, 58, 0
1, 75828, Note_on_c, 0, 51, 0
1, 75828, Note_on_c, 0, 63, 0
1, 75840, Tempo, 740741
1, 75840, Note_on_c, 0, 66, 0
1, 75840, Note_on_c, 0, 66, 57
1, 75840, Note_on_c, 0, 60, 48
1, 75840, Note_on_c, 0, 63, 48
1, 75840, Note_on_c, 0, 44, 24
1, 75840, Note_on_c, 0, 51, 29
1, 75840, Note_on_c, 0, 56, 35
1, 75856, Control_c, 0, 64, 0
1, 75955, Control_c, 0, 64, 127
1, 76068, Note_on_c, 0, 56, 0
1, 76068, Note_on_c, 0, 44, 0
1, 76068, Note_on_c, 0, 60, 0
1, 76068, Note_on_c, 0, 51, 0
1, 76080, Tempo, 794702
1, 76080, Note_on_c, 0, 60, 37
1, 76080, Note_on_c, 0, 44, 24
1, 76080, Note_on_c, 0, 51, 24
1, 76080, Note_on_c, 0, 56, 29
1, 76308, Note_on_c, 0, 56, 0
1, 76308, Note_on_c, 0, 44, 0
1, 76308, Note_on_c, 0, 60, 0
1, 76308, Note_on_c, 0, 51, 0
1, 76320, Tempo, 774194
1, 76320, Note_on_c, 0, 63, 0
1, 76320, Note_on_c, 0, 66, 0
1, 76320, Note_on_c, 0, 68, 54
1, 76320, Note_on_c, 0, 66, 60
1, 76320, Note_on_c, 0, 59, 34
1, 76320, Note_on_c, 0, 63, 51
1, 76320, Note_on_c, 0, 49, 33
1, 76320, Note_on_c, 0, 56, 39
1, 76332, Control_c, 0, 64, 0
1, 76360, Tempo, 759494
1, 76423, Control_c, 0, 64, 127
1, 76548, Note_on_c, 0, 56, 0
1, 76548, Note_on_c, 0, 59, 0
1, 76548, Note_on_c, 0, 49, 0
1, 76560, Tempo, 805369
1, 76560, Note_on_c, 0, 59, 41
1, 76560, Note_on_c, 0, 56, 34
1, 76560, Note_on_c, 0, 49, 28
1, 76788, Note_on_c, 0, 49, 0
1, 76788, Note_on_c, 0, 59, 0
1, 76788, Note_on_c, 0, 56, 0
1, 76800, Tempo, 774194
1, 76800, Note_on_c, 0, 63, 0
1, 76800, Note_on_c, 0, 66, 0
1, 76800, Note_on_c, 0, 61, 42
1, 76800, Note_on_c, 0, 65, 56
1, 76800, Note_on_c, 0, 59, 50
1, 76800, Note_on_c, 0, 49, 31
1, 76800, Note_on_c, 0, 56, 37
1, 76812, Control_c, 0, 64, 0
1, 76892, Control_c, 0, 64, 127
1, 77028, Note_on_c, 0, 56, 0
1, 77028, Note_on_c, 0, 59, 0
1, 77028, Note_on_c, 0, 49, 0
1, 77040, Note_on_c, 0, 59, 41
1, 77040, Note_on_c, 0, 49, 27
1, 77040, Note_on_c, 0, 56, 32
1, 77268, Note_on_c, 0, 56, 0
1, 77268, Note_on_c, 0, 59, 0
1, 77268, Note_on_c, 0, 49, 0
1, 77280, Tempo, 784314
1, 77280, Note_on_c, 0, 61, 0
1, 77280, Note_on_c, 0, 68, 0
1, 77280, Note_on_c, 0, 65, 0
1, 77280, Note_on_c, 0, 63, 42
1, 77280, Note_on_c, 0, 59, 50
1, 77280, Note_on_c, 0, 68, 56
1, 77280, Note_on_c, 0, 49, 30
1, 77280, Note_on_c, 0, 56, 36
1, 77286, Control_c, 0, 64, 0
1, 77383, Control_c, 0, 64, 127
1, 77508, Note_on_c, 0, 56, 0
1, 77508, Note_on_c, 0, 59, 0
1, 77508, Note_on_c, 0, 49, 0
1, 77520, Note_on_c, 0, 59, 41
1, 77520, Note_on_c, 0, 49, 27
1, 77520, Note_on_c, 0, 56, 32
1, 77748, Note_on_c, 0, 56, 0
1, 77748, Note_on_c, 0, 59, 0
1, 77748, Note_on_c, 0, 49, 0
1, 77760, Tempo, 736196
1, 77760, Note_on_c, 0, 68, 0
1, 77760, Note_on_c, 0, 63, 0
1, 77760, Note_on_c, 0, 63, 42
1, 77760, Note_on_c, 0, 68, 56
1, 77760, Note_on_c, 0, 59, 42
1, 77760, Note_on_c, 0, 49, 22
1, 77760, Note_on_c, 0, 56, 30
1, 77773, Control_c, 0, 64, 0
1, 77800, Tempo, 769231
1, 77958, Control_c, 0, 64, 127
1, 77988, Note_on_c, 0, 56, 0
1, 77988, Note_on_c, 0, 49, 0
1, 78000, Tempo, 805369
1, 78000, Note_on_c, 0, 49, 27
1, 78000, Note_on_c, 0, 42, 19
1, 78228, Note_on_c, 0, 42, 0
1, 78228, Note_on_c, 0, 49, 0
1, 78240, Tempo, 779221
1, 78240, Note_on_c, 0, 59, 0
1, 78240, Note_on_c, 0, 68, 0
1, 78240, Note_on_c, 0, 63, 0
1, 78240, Note_on_c, 0, 70, 52
1, 78240, Note_on_c, 0, 58, 39
1, 78240, Note_on_c, 0, 61, 39
1, 78240, Note_on_c, 0, 42, 23
1, 78240, Note_on_c, 0, 49, 31
1, 78253, Control_c, 0, 64, 0
1, 78396, Control_c, 0, 64, 127
1, 78468, Note_on_c, 0, 49, 0
1, 78468, Note_on_c, 0, 42, 0
1, 78480, Note_on_c, 0, 42, 22
1, 78480, Note_on_c, 0, 49, 30
1, 78708, Note_on_c, 0, 49, 0
1, 78708, Note_on_c, 0, 42, 0
1, 78720, Note_on_c, 0, 61, 0
1, 78720, Note_on_c, 0, 58, 0
1, 78720, Note_on_c, 0, 70, 0
1, 78720, Note_on_c, 0, 63, 37
1, 78720, Note_on_c, 0, 68, 50
1, 78720, Note_on_c, 0, 59, 32
1, 78720, Note_on_c, 0, 42, 21
1, 78720, Note_on_c, 0, 49, 35
1, 78734, Control_c, 0, 64, 0
1, 78918, Control_c, 0, 64, 127
1, 78948, Note_on_c, 0, 49, 0
1, 78948, Note_on_c, 0, 42, 0
1, 78960, Note_on_c, 0, 42, 21
1, 78960, Note_on_c, 0, 53, 29
1, 79188, Note_on_c, 0, 53, 0
1, 79188, Note_on_c, 0, 42, 0
1, 79200, Tempo, 784314
1, 79200, Note_on_c, 0, 59, 0
1, 79200, Note_on_c, 0, 68, 0
1, 79200, Note_on_c, 0, 63, 0
1, 79200, Note_on_c, 0, 58, 38
1, 79200, Note_on_c, 0, 61, 38
1, 79200, Note_on_c, 0, 70, 51
1, 79200, Note_on_c, 0, 42, 34
1, 79200, Note_on_c, 0, 54, 34
1, 79214, Control_c, 0, 64, 0
1, 79370, Control_c, 0, 64, 127
1, 79428, Note_on_c, 0, 54, 0
1, 79428, Note_on_c, 0, 42, 0
1, 79440, Tempo, 727273
1, 79440, Note_on_c, 0, 41, 29
1, 79680, Note_on_c, 0, 41, 0
1, 79680, Note_on_c, 0, 44, 32
1, 79694, Control_c, 0, 64, 0
1, 79807, Control_c, 0, 64, 127
1, 79920, Note_on_c, 0, 44, 0
1, 79920, Note_on_c, 0, 42, 29
1, 80160, Note_on_c, 0, 42, 0
1, 80160, Note_on_c, 0, 46, 32
1, 80174, Control_c, 0, 64, 0
1, 80316, Control_c, 0, 64, 127
1, 80400, Tempo, 789474
1, 80400, Note_on_c, 0, 46, 0
1, 80400, Note_on_c, 0, 37, 29
1, 80640, Tempo, 693642
1, 80640, Note_on_c, 0, 37, 0
1, 80640, Note_on_c, 0, 70, 0
1, 80640, Note_on_c, 0, 61, 0
1, 80640, Note_on_c, 0, 58, 0
1, 80640, Note_on_c, 0, 70, 55
1, 80640, Note_on_c, 0, 64, 46
1, 80640, Note_on_c, 0, 30, 39
1, 80652, Control_c, 0, 64, 0
1, 80796, Control_c, 0, 64, 127
1, 80880, Tempo, 612245
1, 80880, Note_on_c, 0, 30, 0
1, 80880, Note_on_c, 0, 53, 26
1, 81120, Tempo, 588235
1, 81120, Note_on_c, 0, 53, 0
1, 81120, Note_on_c, 0, 56, 31
1, 81360, Note_on_c, 0, 56, 0
1, 81360, Note_on_c, 0, 54, 30
1, 81600, Tempo, 603015
1, 81600, Note_on_c, 0, 54, 0
1, 81600, Note_on_c, 0, 58, 35
1, 81840, Tempo, 638298
1, 81840, Note_on_c, 0, 58, 0
1, 81840, Note_on_c, 0, 49, 33
1, 82080, Tempo, 645161
1, 82080, Note_on_c, 0, 49, 0
1, 82080, Note_on_c, 0, 64, 0
1, 82080, Note_on_c, 0, 70, 0
1, 82080, Note_on_c, 0, 70, 66
1, 82080, Note_on_c, 0, 64, 55
1, 82080, Note_on_c, 0, 42, 46
1, 82092, Control_c, 0, 64, 0
1, 82207, Control_c, 0, 64, 127
1, 82320, Tempo, 600000
1, 82320, Note_on_c, 0, 42, 0
1, 82320, Note_on_c, 0, 53, 30
1, 82560, Tempo, 588235
1, 82560, Note_on_c, 0, 53, 0
1, 82560, Note_on_c, 0, 56, 40
1, 82800, Tempo, 576923
1, 82800, Note_on_c, 0, 56, 0
1, 82800, Note_on_c, 0, 54, 35
1, 83040, Tempo, 603015
1, 83040, Note_on_c, 0, 54, 0
1, 83040, Note_on_c, 0, 58, 42
1, 83280, Tempo, 618557
1, 83280, Note_on_c, 0, 58, 0
1, 83280, Note_on_c, 0, 49, 37
1, 83400, Note_on_c, 0, 70, 0
1, 83400, Note_on_c, 0, 71, 62
1, 83520, Tempo, 628272
1, 83520, Note_on_c, 0, 71, 0
1, 83520, Note_on_c, 0, 49, 0
1, 83520, Note_on_c, 0, 64, 0
1, 83520, Note_on_c, 0, 70, 59
1, 83520, Note_on_c, 0, 73, 71
1, 83520, Note_on_c, 0, 64, 44
1, 83520, Note_on_c, 0, 42, 47
1, 83532, Control_c, 0, 64, 0
1, 83647, Control_c, 0, 64, 127
1, 83760, Tempo, 597015
1, 83760, Note_on_c, 0, 42, 0
1, 83760, Note_on_c, 0, 53, 34
1, 84000, Tempo, 579710
1, 84000, Note_on_c, 0, 53, 0
1, 84000, Note_on_c, 0, 56, 45
1, 84240, Note_on_c, 0, 56, 0
1, 84240, Note_on_c, 0, 54, 37
1, 84480, Tempo, 582524
1, 84480, Note_on_c, 0, 54, 0
1, 84480, Note_on_c, 0, 58, 44
1, 84720, Tempo, 645161
1, 84720, Note_on_c, 0, 58, 0
1, 84720, Note_on_c, 0, 49, 29
1, 84960, Tempo, 621762
1, 84960, Note_on_c, 0, 49, 0
1, 84960, Note_on_c, 0, 64, 0
1, 84960, Note_on_c, 0, 73, 0
1, 84960, Note_on_c, 0, 70, 0
1, 84960, Note_on_c, 0, 75, 67
1, 84960, Note_on_c, 0, 64, 30
1, 84960, Note_on_c, 0, 78, 67
1, 84960, Note_on_c, 0, 70, 45
1, 84960, Note_on_c, 0, 42, 48
1, 84972, Control_c, 0, 64, 0
1, 85087, Control_c, 0, 64, 127
1, 85200, Tempo, 594059
1, 85200, Note_on_c, 0, 42, 0
1, 85200, Note_on_c, 0, 53, 33
1, 85440, Tempo, 579710
1, 85440, Note_on_c, 0, 53, 0
1, 85440, Note_on_c, 0, 56, 39
1, 85680, Note_on_c, 0, 56, 0
1, 85680, Note_on_c, 0, 54, 34
1, 85920, Tempo, 603015
1, 85920, Note_on_c, 0, 54, 0
1, 85920, Note_on_c, 0, 58, 38
1, 86160, Note_on_c, 0, 58, 0
1, 86160, Note_on_c, 0, 49, 34
1, 86280, Tempo, 645161
1, 86280, Note_on_c, 0, 75, 0
1, 86280, Note_on_c, 0, 73, 66
1, 86400, Tempo, 655738
1, 86400, Note_on_c, 0, 73, 0
1, 86400, Note_on_c, 0, 49, 0
1, 86400, Note_on_c, 0, 64, 0
1, 86400, Note_on_c, 0, 78, 0
1, 86400, Note_on_c, 0, 70, 0
1, 86400, Note_on_c, 0, 78, 69
1, 86400, Note_on_c, 0, 64, 30
1, 86400, Note_on_c, 0, 73, 48
1, 86400, Note_on_c, 0, 47, 44
1, 86409, Control_c, 0, 64, 0
1, 86556, Control_c, 0, 64, 127
1, 86640, Tempo, 612245
1, 86640, Note_on_c, 0, 47, 0
1, 86640, Note_on_c, 0, 53, 29
1, 86880, Tempo, 588235
1, 86880, Note_on_c, 0, 53, 0
1, 86880, Note_on_c, 0, 56, 33
1, 87120, Note_on_c, 0, 56, 0
1, 87120, Note_on_c, 0, 54, 29
1, 87360, Tempo, 603015
1, 87360, Note_on_c, 0, 54, 0
1, 87360, Note_on_c, 0, 58, 32
1, 87600, Tempo, 638298
1, 87600, Note_on_c, 0, 58, 0
1, 87600, Note_on_c, 0, 49, 27
1, 87840, Tempo, 666667
1, 87840, Note_on_c, 0, 49, 0
1, 87840, Note_on_c, 0, 73, 0
1, 87840, Note_on_c, 0, 64, 0
1, 87840, Note_on_c, 0, 78, 0
1, 87840, Note_on_c, 0, 71, 50
1, 87840, Note_on_c, 0, 75, 61
1, 87840, Note_on_c, 0, 63, 37
1, 87840, Note_on_c, 0, 47, 39
1, 87852, Control_c, 0, 64, 0
1, 88024, Control_c, 0, 64, 127
1, 88080, Tempo, 612245
1, 88080, Note_on_c, 0, 47, 0
1, 88080, Note_on_c, 0, 53, 28
1, 88320, Tempo, 588235
1, 88320, Note_on_c, 0, 53, 0
1, 88320, Note_on_c, 0, 56, 31
1, 88560, Note_on_c, 0, 56, 0
1, 88560, Note_on_c, 0, 54, 28
1, 88800, Tempo, 603015
1, 88800, Note_on_c, 0, 54, 0
1, 88800, Note_on_c, 0, 59, 31
1, 89040, Tempo, 638298
1, 89040, Note_on_c, 0, 59, 0
1, 89040, Note_on_c, 0, 47, 26
1, 89280, Tempo, 628272
1, 89280, Note_on_c, 0, 47, 0
1, 89280, Note_on_c, 0, 63, 0
1, 89280, Note_on_c, 0, 71, 0
1, 89280, Note_on_c, 0, 61, 50
1, 89280, Note_on_c, 0, 67, 50
1, 89280, Note_on_c, 0, 71, 56
1, 89280, Note_on_c, 0, 39, 41
1, 89292, Control_c, 0, 64, 0
1, 89407, Control_c, 0, 64, 127
1, 89520, Tempo, 597015
1, 89520, Note_on_c, 0, 39, 0
1, 89520, Note_on_c, 0, 50, 30
1, 89760, Tempo, 579710
1, 89760, Note_on_c, 0, 50, 0
1, 89760, Note_on_c, 0, 52, 38
1, 90000, Note_on_c, 0, 52, 0
1, 90000, Note_on_c, 0, 51, 30
1, 90240, Tempo, 582524
1, 90240, Note_on_c, 0, 51, 0
1, 90240, Note_on_c, 0, 55, 36
1, 90480, Tempo, 645161
1, 90480, Note_on_c, 0, 55, 0
1, 90480, Note_on_c, 0, 46, 29
1, 90720, Tempo, 621762
1, 90720, Note_on_c, 0, 46, 0
1, 90720, Note_on_c, 0, 71, 0
1, 90720, Note_on_c, 0, 75, 0
1, 90720, Note_on_c, 0, 61, 0
1, 90720, Note_on_c, 0, 67, 0
1, 90720, Note_on_c, 0, 68, 47
1, 90720, Note_on_c, 0, 59, 42
1, 90720, Note_on_c, 0, 71, 57
1, 90720, Note_on_c, 0, 44, 38
1, 90762, Control_c, 0, 64, 0
1, 90847, Control_c, 0, 64, 127
1, 90960, Tempo, 594059
1, 90960, Note_on_c, 0, 44, 0
1, 90960, Note_on_c, 0, 50, 33
1, 91200, Tempo, 579710
1, 91200, Note_on_c, 0, 50, 0
1, 91200, Note_on_c, 0, 52, 37
1, 91440, Note_on_c, 0, 52, 0
1, 91440, Note_on_c, 0, 51, 29
1, 91680, Tempo, 603015
1, 91680, Note_on_c, 0, 51, 0
1, 91680, Note_on_c, 0, 56, 34
1, 91920, Note_on_c, 0, 56, 0
1, 91920, Note_on_c, 0, 44, 28
1, 92040, Tempo, 645161
1, 92040, Note_on_c, 0, 71, 0
1, 92040, Note_on_c, 0, 63, 49
1, 92160, Tempo, 585366
1, 92160, Note_on_c, 0, 63, 0
1, 92160, Note_on_c, 0, 44, 0
1, 92160, Note_on_c, 0, 59, 0
1, 92160, Note_on_c, 0, 68, 0
1, 92160, Note_on_c, 0, 68, 59
1, 92160, Note_on_c, 0, 65, 47
1, 92160, Note_on_c, 0, 59, 42
1, 92160, Note_on_c, 0, 37, 39
1, 92167, Control_c, 0, 64, 0
1, 92309, Control_c, 0, 64, 127
1, 92400, Tempo, 612245
1, 92400, Note_on_c, 0, 37, 0
1, 92400, Note_on_c, 0, 77, 54
1, 92400, Note_on_c, 0, 48, 26
1, 92640, Tempo, 588235
1, 92640, Note_on_c, 0, 48, 0
1, 92640, Note_on_c, 0, 51, 29
1, 92880, Note_on_c, 0, 51, 0
1, 92880, Note_on_c, 0, 49, 26
1, 93120, Tempo, 603015
1, 93120, Note_on_c, 0, 49, 0
1, 93120, Note_on_c, 0, 53, 29
1, 93360, Tempo, 638298
1, 93360, Note_on_c, 0, 53, 0
1, 93360, Note_on_c, 0, 44, 25
1, 93600, Tempo, 666667
1, 93600, Note_on_c, 0, 44, 0
1, 93600, Note_on_c, 0, 59, 0
1, 93600, Note_on_c, 0, 68, 0
1, 93600, Note_on_c, 0, 65, 0
1, 93600, Note_on_c, 0, 65, 42
1, 93600, Note_on_c, 0, 59, 37
1, 93600, Note_on_c, 0, 68, 51
1, 93600, Note_on_c, 0, 37, 36
1, 93840, Tempo, 612245
1, 93840, Note_on_c, 0, 37, 0
1, 93840, Note_on_c, 0, 48, 26
1, 94080, Tempo, 588235
1, 94080, Note_on_c, 0, 48, 0
1, 94080, Note_on_c, 0, 51, 29
1, 94320, Note_on_c, 0, 51, 0
1, 94320, Note_on_c, 0, 49, 26
1, 94560, Tempo, 603015
1, 94560, Note_on_c, 0, 49, 0
1, 94560, Note_on_c, 0, 68, 0
1, 94560, Note_on_c, 0, 59, 0
1, 94560, Note_on_c, 0, 65, 0
1, 94560, Note_on_c, 0, 70, 51
1, 94560, Note_on_c, 0, 61, 42
1, 94560, Note_on_c, 0, 53, 29
1, 94800, Tempo, 638298
1, 94800, Note_on_c, 0, 53, 0
1, 94800, Note_on_c, 0, 44, 25
1, 95040, Tempo, 597015
1, 95040, Note_on_c, 0, 44, 0
1, 95040, Note_on_c, 0, 61, 0
1, 95040, Note_on_c, 0, 70, 0
1, 95040, Note_on_c, 0, 77, 0
1, 95040, Note_on_c, 0, 58, 42
1, 95040, Note_on_c, 0, 66, 54
1, 95040, Note_on_c, 0, 42, 36
1, 95052, Control_c, 0, 64, 0
1, 95167, Control_c, 0, 64, 127
1, 95280, Tempo, 612245
1, 95280, Note_on_c, 0, 42, 0
1, 95280, Note_on_c, 0, 78, 59
1, 95280, Note_on_c, 0, 48, 26
1, 95520, Tempo, 588235
1, 95520, Note_on_c, 0, 48, 0
1, 95520, Note_on_c, 0, 51, 29
1, 95760, Note_on_c, 0, 51, 0
1, 95760, Note_on_c, 0, 49, 26
1, 96000, Tempo, 603015
1, 96000, Note_on_c, 0, 49, 0
1, 96000, Note_on_c, 0, 58, 0
1, 96000, Note_on_c, 0, 66, 0
1, 96000, Note_on_c, 0, 54, 29
1, 96240, Tempo, 638298
1, 96240, Note_on_c, 0, 54, 0
1, 96240, Note_on_c, 0, 42, 25
1, 96480, Tempo, 585366
1, 96480, Note_on_c, 0, 42, 0
1, 96480, Note_on_c, 0, 78, 0
1, 96480, Note_on_c, 0, 63, 40
1, 96480, Note_on_c, 0, 71, 57
1, 96480, Note_on_c, 0, 68, 45
1, 96480, Note_on_c, 0, 35, 34
1, 96492, Control_c, 0, 64, 0
1, 96607, Control_c, 0, 64, 127
1, 96720, Tempo, 594059
1, 96720, Note_on_c, 0, 35, 0
1, 96720, Note_on_c, 0, 80, 61
1, 96720, Note_on_c, 0, 50, 29
1, 96960, Tempo, 579710
1, 96960, Note_on_c, 0, 50, 0
1, 96960, Note_on_c, 0, 53, 33
1, 97200, Note_on_c, 0, 53, 0
1, 97200, Note_on_c, 0, 51, 26
1, 97440, Tempo, 603015
1, 97440, Note_on_c, 0, 51, 0
1, 97440, Note_on_c, 0, 59, 29
1, 97680, Note_on_c, 0, 59, 0
1, 97680, Note_on_c, 0, 44, 25
1, 97800, Tempo, 645161
1, 97920, Tempo, 615385
1, 97920, Note_on_c, 0, 44, 0
1, 97920, Note_on_c, 0, 63, 0
1, 97920, Note_on_c, 0, 68, 0
1, 97920, Note_on_c, 0, 71, 0
1, 97920, Note_on_c, 0, 80, 0
1, 97920, Note_on_c, 0, 59, 34
1, 97920, Note_on_c, 0, 65, 38
1, 97920, Note_on_c, 0, 68, 51
1, 97920, Note_on_c, 0, 37, 35
1, 97930, Control_c, 0, 64, 0
1, 98080, Control_c, 0, 64, 127
1, 98160, Tempo, 625000
1, 98160, Note_on_c, 0, 37, 0
1, 98160, Note_on_c, 0, 77, 58
1, 98160, Note_on_c, 0, 48, 23
1, 98400, Tempo, 603015
1, 98400, Note_on_c, 0, 48, 0
1, 98400, Note_on_c, 0, 51, 25
1, 98640, Note_on_c, 0, 51, 0
1, 98640, Note_on_c, 0, 49, 22
1, 98880, Tempo, 618557
1, 98880, Note_on_c, 0, 49, 0
1, 98880, Note_on_c, 0, 53, 24
1, 99120, Tempo, 645161
1, 99120, Note_on_c, 0, 53, 0
1, 99120, Note_on_c, 0, 44, 20
1, 99360, Tempo, 685714
1, 99360, Note_on_c, 0, 44, 0
1, 99360, Note_on_c, 0, 68, 0
1, 99360, Note_on_c, 0, 70, 56
1, 99360, Note_on_c, 0, 37, 29
1, 99600, Tempo, 631579
1, 99600, Note_on_c, 0, 37, 0
1, 99600, Note_on_c, 0, 48, 20
1, 99840, Tempo, 609137
1, 99840, Note_on_c, 0, 48, 0
1, 99840, Note_on_c, 0, 51, 23
1, 100080, Note_on_c, 0, 51, 0
1, 100080, Note_on_c, 0, 49, 19
1, 100320, Tempo, 621762
1, 100320, Note_on_c, 0, 49, 0
1, 100320, Note_on_c, 0, 56, 23
1, 100560, Tempo, 655738
1, 100560, Note_on_c, 0, 56, 0
1, 100560, Note_on_c, 0, 37, 18
1, 100680, Note_on_c, 0, 77, 0
1, 100680, Note_on_c, 0, 78, 54
1, 100800, Tempo, 621762
1, 100800, Note_on_c, 0, 78, 0
1, 100800, Note_on_c, 0, 37, 0
1, 100800, Note_on_c, 0, 59, 0
1, 100800, Note_on_c, 0, 65, 0
1, 100800, Note_on_c, 0, 70, 0
1, 100800, Note_on_c, 0, 66, 42
1, 100800, Note_on_c, 0, 58, 27
1, 100800, Note_on_c, 0, 30, 26
1, 100812, Control_c, 0, 64, 0
1, 100995, Control_c, 0, 64, 127
1, 101040, Tempo, 631579
1, 101040, Note_on_c, 0, 30, 0
1, 101040, Note_on_c, 0, 78, 57
1, 101040, Note_on_c, 0, 48, 19
1, 101280, Tempo, 609137
1, 101280, Note_on_c, 0, 48, 0
1, 101280, Note_on_c, 0, 51, 22
1, 101520, Note_on_c, 0, 51, 0
1, 101520, Note_on_c, 0, 49, 19
1, 101760, Tempo, 621762
1, 101760, Note_on_c, 0, 49, 0
1, 101760, Note_on_c, 0, 54, 22
1, 102000, Tempo, 652174
1, 102000, Note_on_c, 0, 54, 0
1, 102000, Note_on_c, 0, 37, 18
1, 102240, Tempo, 681818
1, 102240, Note_on_c, 0, 37, 0
1, 102240, Note_on_c, 0, 42, 26
1, 102480, Tempo, 666667
1, 102480, Note_on_c, 0, 42, 0
1, 102480, Note_on_c, 0, 48, 19
1, 102720, Tempo, 621762
1, 102720, Note_on_c, 0, 48, 0
1, 102720, Note_on_c, 0, 51, 22
1, 102960, Note_on_c, 0, 51, 0
1, 102960, Note_on_c, 0, 49, 19
1, 103200, Tempo, 603015
1, 103200, Note_on_c, 0, 49, 0
1, 103200, Note_on_c, 0, 54, 22
1, 103240, Tempo, 631579
1, 103440, Tempo, 659341
1, 103440, Note_on_c, 0, 54, 0
1, 103440, Note_on_c, 0, 37, 18
1, 103680, Tempo, 740741
1, 103680, Note_on_c, 0, 37, 0
1, 103680, Note_on_c, 0, 66, 0
1, 103680, Note_on_c, 0, 58, 0
1, 103680, Note_on_c, 0, 78, 0
1, 103680, Note_on_c, 0, 30, 33
1, 103688, Control_c, 0, 64, 0
1, 103783, Control_c, 0, 64, 127
1, 103920, Tempo, 715137
1, 103920, Note_on_c, 0, 30, 0
1, 103920, Note_on_c, 0, 58, 30
1, 103920, Note_on_c, 0, 42, 25
1, 103920, Note_on_c, 0, 51, 25
1, 104148, Note_on_c, 0, 51, 0
1, 104148, Note_on_c, 0, 42, 0
1, 104148, Note_on_c, 0, 58, 0
1, 104160, Note_on_c, 0, 58, 33
1, 104160, Note_on_c, 0, 42, 27
1, 104160, Note_on_c, 0, 51, 27
1, 104388, Note_on_c, 0, 51, 0
1, 104388, Note_on_c, 0, 42, 0
1, 104388, Note_on_c, 0, 58, 0
1, 104400, Note_on_c, 0, 58, 34
1, 104400, Note_on_c, 0, 42, 28
1, 104400, Note_on_c, 0, 51, 28
1, 104628, Note_on_c, 0, 51, 0
1, 104628, Note_on_c, 0, 42, 0
1, 104628, Note_on_c, 0, 58, 0
1, 104640, Note_on_c, 0, 63, 37
1, 104640, Note_on_c, 0, 42, 30
1, 104640, Note_on_c, 0, 51, 30
1, 104840, Tempo, 745249
1, 104868, Note_on_c, 0, 51, 0
1, 104868, Note_on_c, 0, 42, 0
1, 104868, Note_on_c, 0, 63, 0
1, 104880, Tempo, 804290
1, 104880, Note_on_c, 0, 58, 40
1, 104880, Note_on_c, 0, 42, 26
1, 104880, Note_on_c, 0, 51, 26
1, 105080, Tempo, 702905
1, 105088, Tempo, 733496
1, 105108, Note_on_c, 0, 51, 0
1, 105108, Note_on_c, 0, 42, 0
1, 105108, Note_on_c, 0, 58, 0
1, 105120, Note_on_c, 0, 58, 25
1, 105120, Note_on_c, 0, 70, 52
1, 105120, Note_on_c, 0, 42, 26
1, 105120, Note_on_c, 0, 51, 26
1, 105153, Tempo, 740741
1, 105219, Tempo, 748130
1, 105284, Tempo, 755668
1, 105348, Note_on_c, 0, 51, 0
1, 105348, Note_on_c, 0, 42, 0
1, 105348, Note_on_c, 0, 58, 0
1, 105350, Tempo, 763359
1, 105360, Note_on_c, 0, 61, 38
1, 105360, Note_on_c, 0, 42, 26
1, 105360, Note_on_c, 0, 51, 26
1, 105415, Tempo, 771208
1, 105481, Tempo, 779221
1, 105546, Tempo, 787402
1, 105568, Tempo, 787402
1, 105588, Note_on_c, 0, 51, 0
1, 105588, Note_on_c, 0, 42, 0
1, 105588, Note_on_c, 0, 61, 0
1, 105590, Tempo, 795756
1, 105600, Note_on_c, 0, 59, 37
1, 105600, Note_on_c, 0, 42, 25
1, 105600, Note_on_c, 0, 51, 25
1, 105611, Tempo, 804290
1, 105615, Control_c, 0, 64, 0
1, 105633, Tempo, 813008
1, 105655, Tempo, 821918
1, 105677, Tempo, 831025
1, 105686, Control_c, 0, 64, 127
1, 105699, Tempo, 840336
1, 105721, Tempo, 849858
1, 105742, Tempo, 859599
1, 105764, Tempo, 869565
1, 105786, Tempo, 879765
1, 105808, Tempo, 900901
1, 105828, Note_on_c, 0, 51, 0
1, 105828, Note_on_c, 0, 42, 0
1, 105828, Note_on_c, 0, 59, 0
1, 105840, Tempo, 1010101
1, 105840, Note_on_c, 0, 58, 30
1, 105840, Note_on_c, 0, 42, 25
1, 105840, Note_on_c, 0, 49, 25
1, 105854, Control_c, 0, 64, 0
1, 105903, Control_c, 0, 64, 127
1, 106068, Note_on_c, 0, 49, 0
1, 106068, Note_on_c, 0, 42, 0
1, 106068, Note_on_c, 0, 58, 0
1, 106080, Tempo, 900901
1, 106080, Note_on_c, 0, 70, 0
1, 106080, Note_on_c, 0, 58, 18
1, 106080, Note_on_c, 0, 69, 40
1, 106080, Note_on_c, 0, 42, 21
1, 106080, Note_on_c, 0, 49, 21
1, 106097, Control_c, 0, 64, 0
1, 106149, Control_c, 0, 64, 127
1, 106200, Note_on_c, 0, 69, 0
1, 106200, Note_on_c, 0, 70, 35
1, 106308, Note_on_c, 0, 58, 0
1, 106308, Note_on_c, 0, 49, 0
1, 106308, Note_on_c, 0, 42, 0
1, 106320, Tempo, 1023891
1, 106320, Note_on_c, 0, 70, 0
1, 106320, Note_on_c, 0, 73, 40
1, 106320, Note_on_c, 0, 58, 18
1, 106320, Note_on_c, 0, 42, 17
1, 106320, Note_on_c, 0, 49, 17
1, 106334, Control_c, 0, 64, 0
1, 106412, Control_c, 0, 64, 127
1, 106440, Tempo, 1775148
1, 106440, Note_on_c, 0, 73, 0
1, 106440, Note_on_c, 0, 71, 35
1, 106548, Note_on_c, 0, 58, 0
1, 106548, Note_on_c, 0, 49, 0
1, 106548, Note_on_c, 0, 42, 0
1, 106560, Tempo, 857143
1, 106560, Note_on_c, 0, 71, 0
1, 106560, Note_on_c, 0, 70, 33
1, 106560, Note_on_c, 0, 58, 30
1, 106560, Note_on_c, 0, 42, 20
1, 106560, Note_on_c, 0, 49, 25
1, 106573, Control_c, 0, 64, 0
1, 107067, Control_c, 0, 64, 127
1, 109440, Note_on_c, 0, 49, 0
1, 109440, Note_on_c, 0, 70, 0
1, 109440, Note_on_c, 0, 58, 0
1, 109440, Note_on_c, 0, 42, 0
1, 110880, Tempo, 666667
1, 111467, Control_c, 0, 64, 0
1, 111467, End_track
0, 0, End_of_file
