0, 0, Header, 0, 1, 480
1, 0, Start_track
1, 0, Title_t, "Chopin Prelude  No. 14, Opus 28"
1, 0, Copyright_t, "Copyright © 2002 by Bernd Krueger "
1, 0, Text_t, "Frederic Chopin"
1, 0, Text_t, "Lento"
1, 0, Text_t, "Fertiggestellt am  25.09.2002\012"
1, 0, Text_t, "Normierung: 23.12.2002\012"
1, 0, Text_t, "Update am 18.6.2010\012"
1, 0, Text_t, "Update am 21.2.2014\012"
1, 0, Text_t, "Dauer: 0:30 Minuten\012"
1, 0, SMPTE_offset, 96, 0, 3, 0, 0
1, 0, Time_signature, 4, 2, 24, 8
1, 0, Key_signature, -6, "major"
1, 0, Tempo, 383387
1, 0, Program_c, 0, 0
1, 0, Control_c, 0, 7, 100
1, 0, Control_c, 0, 10, 64
1, 0, Note_on_c, 0, 51, 29
1, 0, Control_c, 0, 64, 0
1, 0, Text_t, "bdca426d104a26ac9dcb070447587523"
1, 0, Control_c, 0, 91, 127
1, 0, Program_c, 0, 0
1, 0, Control_c, 0, 7, 100
1, 0, Control_c, 0, 10, 64
1, 0, Note_on_c, 0, 39, 24
1, 0, Control_c, 0, 7, 127
1, 0, Control_c, 0, 10, 64
1, 0, Control_c, 0, 7, 127
1, 0, Control_c, 0, 10, 64
1, 74, Control_c, 0, 64, 127
1, 80, Tempo, 382166
1, 160, Tempo, 380952
1, 160, Note_on_c, 0, 39, 0
1, 160, Note_on_c, 0, 51, 0
1, 160, Note_on_c, 0, 58, 26
1, 160, Note_on_c, 0, 46, 21
1, 240, Tempo, 379747
1, 320, Tempo, 378549
1, 320, Note_on_c, 0, 46, 0
1, 320, Note_on_c, 0, 58, 0
1, 320, Note_on_c, 0, 54, 27
1, 320, Note_on_c, 0, 42, 22
1, 400, Tempo, 377358
1, 440, Tempo, 380952
1, 480, Note_on_c, 0, 42, 0
1, 480, Note_on_c, 0, 54, 0
1, 480, Note_on_c, 0, 59, 33
1, 480, Note_on_c, 0, 47, 27
1, 520, Tempo, 373832
1, 600, Tempo, 375000
1, 640, Tempo, 376176
1, 640, Note_on_c, 0, 47, 0
1, 640, Note_on_c, 0, 59, 0
1, 640, Note_on_c, 0, 51, 30
1, 640, Note_on_c, 0, 39, 25
1, 680, Tempo, 377358
1, 760, Tempo, 379747
1, 800, Tempo, 382166
1, 800, Note_on_c, 0, 39, 0
1, 800, Note_on_c, 0, 51, 0
1, 800, Note_on_c, 0, 59, 32
1, 800, Note_on_c, 0, 47, 26
1, 840, Tempo, 385852
1, 880, Tempo, 389610
1, 920, Tempo, 393443
1, 960, Note_on_c, 0, 47, 0
1, 960, Note_on_c, 0, 59, 0
1, 960, Note_on_c, 0, 50, 36
1, 960, Note_on_c, 0, 38, 30
1, 975, Control_c, 0, 64, 0
1, 1000, Tempo, 379747
1, 1052, Control_c, 0, 64, 127
1, 1080, Tempo, 378549
1, 1120, Note_on_c, 0, 38, 0
1, 1120, Note_on_c, 0, 50, 0
1, 1120, Note_on_c, 0, 59, 29
1, 1120, Note_on_c, 0, 47, 24
1, 1160, Tempo, 377358
1, 1240, Tempo, 376176
1, 1280, Note_on_c, 0, 47, 0
1, 1280, Note_on_c, 0, 59, 0
1, 1280, Note_on_c, 0, 53, 29
1, 1280, Note_on_c, 0, 41, 24
1, 1320, Tempo, 375000
1, 1400, Tempo, 373832
1, 1440, Note_on_c, 0, 41, 0
1, 1440, Note_on_c, 0, 53, 0
1, 1440, Note_on_c, 0, 58, 32
1, 1440, Note_on_c, 0, 46, 26
1, 1480, Tempo, 373832
1, 1560, Tempo, 375000
1, 1600, Note_on_c, 0, 46, 0
1, 1600, Note_on_c, 0, 58, 0
1, 1600, Note_on_c, 0, 50, 28
1, 1600, Note_on_c, 0, 38, 23
1, 1640, Tempo, 376176
1, 1720, Tempo, 376176
1, 1760, Tempo, 378549
1, 1760, Note_on_c, 0, 38, 0
1, 1760, Note_on_c, 0, 50, 0
1, 1760, Note_on_c, 0, 58, 27
1, 1760, Note_on_c, 0, 46, 23
1, 1800, Tempo, 380952
1, 1840, Tempo, 383387
1, 1880, Tempo, 387097
1, 1920, Tempo, 378549
1, 1920, Note_on_c, 0, 46, 0
1, 1920, Note_on_c, 0, 58, 0
1, 1920, Note_on_c, 0, 51, 33
1, 1920, Note_on_c, 0, 39, 27
1, 1928, Control_c, 0, 64, 0
1, 2000, Tempo, 377358
1, 2006, Control_c, 0, 64, 127
1, 2080, Tempo, 376176
1, 2080, Note_on_c, 0, 39, 0
1, 2080, Note_on_c, 0, 51, 0
1, 2080, Note_on_c, 0, 58, 30
1, 2080, Note_on_c, 0, 46, 24
1, 2120, Tempo, 375000
1, 2200, Tempo, 373832
1, 2240, Tempo, 372671
1, 2240, Note_on_c, 0, 46, 0
1, 2240, Note_on_c, 0, 58, 0
1, 2240, Note_on_c, 0, 54, 30
1, 2240, Note_on_c, 0, 42, 24
1, 2320, Tempo, 371517
1, 2360, Tempo, 370370
1, 2400, Note_on_c, 0, 42, 0
1, 2400, Note_on_c, 0, 54, 0
1, 2400, Note_on_c, 0, 59, 37
1, 2400, Note_on_c, 0, 47, 32
1, 2480, Tempo, 371517
1, 2560, Tempo, 372671
1, 2560, Note_on_c, 0, 47, 0
1, 2560, Note_on_c, 0, 59, 0
1, 2560, Note_on_c, 0, 51, 34
1, 2560, Note_on_c, 0, 39, 28
1, 2680, Tempo, 372671
1, 2720, Tempo, 375000
1, 2720, Note_on_c, 0, 39, 0
1, 2720, Note_on_c, 0, 51, 0
1, 2720, Note_on_c, 0, 59, 36
1, 2720, Note_on_c, 0, 47, 30
1, 2760, Tempo, 377358
1, 2800, Tempo, 379747
1, 2840, Tempo, 383387
1, 2880, Tempo, 377358
1, 2880, Note_on_c, 0, 47, 0
1, 2880, Note_on_c, 0, 59, 0
1, 2880, Note_on_c, 0, 50, 41
1, 2880, Note_on_c, 0, 38, 35
1, 2895, Control_c, 0, 64, 0
1, 2995, Control_c, 0, 64, 127
1, 3000, Tempo, 376176
1, 3040, Note_on_c, 0, 38, 0
1, 3040, Note_on_c, 0, 50, 0
1, 3040, Note_on_c, 0, 59, 36
1, 3040, Note_on_c, 0, 47, 28
1, 3080, Tempo, 375000
1, 3200, Tempo, 373832
1, 3200, Note_on_c, 0, 47, 0
1, 3200, Note_on_c, 0, 59, 0
1, 3200, Note_on_c, 0, 53, 33
1, 3200, Note_on_c, 0, 41, 26
1, 3280, Tempo, 372671
1, 3360, Tempo, 371517
1, 3360, Note_on_c, 0, 41, 0
1, 3360, Note_on_c, 0, 53, 0
1, 3360, Note_on_c, 0, 58, 38
1, 3360, Note_on_c, 0, 46, 32
1, 3400, Tempo, 372671
1, 3440, Tempo, 373832
1, 3480, Tempo, 375000
1, 3520, Tempo, 376176
1, 3520, Note_on_c, 0, 46, 0
1, 3520, Note_on_c, 0, 58, 0
1, 3520, Note_on_c, 0, 50, 34
1, 3520, Note_on_c, 0, 38, 28
1, 3560, Tempo, 377358
1, 3600, Tempo, 378549
1, 3640, Tempo, 379747
1, 3680, Tempo, 380952
1, 3680, Note_on_c, 0, 38, 0
1, 3680, Note_on_c, 0, 50, 0
1, 3680, Note_on_c, 0, 58, 32
1, 3680, Note_on_c, 0, 46, 24
1, 3720, Tempo, 382166
1, 3760, Tempo, 384615
1, 3840, Tempo, 382166
1, 3840, Note_on_c, 0, 46, 0
1, 3840, Note_on_c, 0, 58, 0
1, 3840, Note_on_c, 0, 51, 37
1, 3840, Note_on_c, 0, 39, 32
1, 3852, Control_c, 0, 64, 0
1, 3936, Control_c, 0, 64, 127
1, 3960, Tempo, 380952
1, 4000, Note_on_c, 0, 39, 0
1, 4000, Note_on_c, 0, 51, 0
1, 4000, Note_on_c, 0, 58, 34
1, 4000, Note_on_c, 0, 46, 28
1, 4040, Tempo, 379747
1, 4120, Tempo, 378549
1, 4160, Note_on_c, 0, 46, 0
1, 4160, Note_on_c, 0, 58, 0
1, 4160, Note_on_c, 0, 54, 35
1, 4160, Note_on_c, 0, 42, 29
1, 4200, Tempo, 377358
1, 4280, Tempo, 376176
1, 4320, Tempo, 370370
1, 4320, Note_on_c, 0, 42, 0
1, 4320, Note_on_c, 0, 54, 0
1, 4320, Note_on_c, 0, 59, 44
1, 4320, Note_on_c, 0, 47, 36
1, 4480, Note_on_c, 0, 47, 0
1, 4480, Note_on_c, 0, 59, 0
1, 4480, Note_on_c, 0, 51, 41
1, 4480, Note_on_c, 0, 39, 34
1, 4520, Tempo, 369231
1, 4640, Note_on_c, 0, 39, 0
1, 4640, Note_on_c, 0, 51, 0
1, 4640, Note_on_c, 0, 60, 44
1, 4640, Note_on_c, 0, 48, 37
1, 4720, Tempo, 368098
1, 4800, Tempo, 369231
1, 4800, Note_on_c, 0, 48, 0
1, 4800, Note_on_c, 0, 60, 0
1, 4800, Note_on_c, 0, 53, 48
1, 4800, Note_on_c, 0, 41, 40
1, 4815, Control_c, 0, 64, 0
1, 4870, Control_c, 0, 64, 127
1, 4880, Tempo, 370370
1, 4920, Tempo, 371517
1, 4960, Tempo, 372671
1, 4960, Note_on_c, 0, 41, 0
1, 4960, Note_on_c, 0, 53, 0
1, 4960, Note_on_c, 0, 60, 45
1, 4960, Note_on_c, 0, 48, 36
1, 5040, Tempo, 373832
1, 5080, Tempo, 375000
1, 5120, Tempo, 376176
1, 5120, Note_on_c, 0, 48, 0
1, 5120, Note_on_c, 0, 60, 0
1, 5120, Note_on_c, 0, 56, 45
1, 5120, Note_on_c, 0, 44, 33
1, 5160, Tempo, 380952
1, 5200, Tempo, 385852
1, 5280, Tempo, 377358
1, 5280, Note_on_c, 0, 44, 0
1, 5280, Note_on_c, 0, 56, 0
1, 5286, Note_on_c, 0, 63, 49
1, 5286, Note_on_c, 0, 51, 40
1, 5400, Tempo, 376176
1, 5446, Note_on_c, 0, 51, 0
1, 5446, Note_on_c, 0, 63, 0
1, 5451, Note_on_c, 0, 57, 44
1, 5451, Note_on_c, 0, 45, 33
1, 5480, Tempo, 375000
1, 5560, Tempo, 373832
1, 5600, Tempo, 376176
1, 5600, Note_on_c, 0, 61, 39
1, 5600, Note_on_c, 0, 49, 29
1, 5611, Note_on_c, 0, 45, 0
1, 5611, Note_on_c, 0, 57, 0
1, 5640, Tempo, 378549
1, 5680, Tempo, 380952
1, 5720, Tempo, 383387
1, 5760, Tempo, 387097
1, 5760, Note_on_c, 0, 61, 0
1, 5760, Note_on_c, 0, 49, 0
1, 5760, Note_on_c, 0, 54, 42
1, 5760, Note_on_c, 0, 42, 35
1, 5770, Control_c, 0, 64, 0
1, 5800, Tempo, 378549
1, 5823, Control_c, 0, 64, 127
1, 5840, Tempo, 378549
1, 5920, Note_on_c, 0, 42, 0
1, 5920, Note_on_c, 0, 54, 0
1, 5920, Note_on_c, 0, 61, 37
1, 5920, Note_on_c, 0, 49, 31
1, 5960, Tempo, 377358
1, 6040, Tempo, 376176
1, 6080, Note_on_c, 0, 49, 0
1, 6080, Note_on_c, 0, 61, 0
1, 6080, Note_on_c, 0, 58, 38
1, 6080, Note_on_c, 0, 46, 32
1, 6120, Tempo, 375000
1, 6200, Tempo, 373832
1, 6240, Tempo, 368098
1, 6240, Note_on_c, 0, 46, 0
1, 6240, Note_on_c, 0, 58, 0
1, 6240, Note_on_c, 0, 63, 49
1, 6240, Note_on_c, 0, 51, 41
1, 6400, Note_on_c, 0, 51, 0
1, 6400, Note_on_c, 0, 63, 0
1, 6400, Note_on_c, 0, 54, 45
1, 6400, Note_on_c, 0, 42, 38
1, 6560, Note_on_c, 0, 42, 0
1, 6560, Note_on_c, 0, 54, 0
1, 6560, Note_on_c, 0, 64, 49
1, 6560, Note_on_c, 0, 52, 41
1, 6640, Tempo, 366972
1, 6680, Tempo, 366972
1, 6720, Note_on_c, 0, 52, 0
1, 6720, Note_on_c, 0, 64, 0
1, 6720, Note_on_c, 0, 57, 54
1, 6720, Note_on_c, 0, 45, 45
1, 6735, Control_c, 0, 64, 0
1, 6760, Tempo, 368098
1, 6800, Tempo, 369231
1, 6823, Control_c, 0, 64, 127
1, 6880, Tempo, 370370
1, 6880, Note_on_c, 0, 45, 0
1, 6880, Note_on_c, 0, 57, 0
1, 6880, Note_on_c, 0, 64, 50
1, 6880, Note_on_c, 0, 52, 38
1, 6920, Tempo, 371517
1, 7000, Tempo, 372671
1, 7040, Tempo, 373832
1, 7040, Note_on_c, 0, 52, 0
1, 7040, Note_on_c, 0, 64, 0
1, 7040, Note_on_c, 0, 60, 51
1, 7040, Note_on_c, 0, 48, 39
1, 7080, Tempo, 375000
1, 7120, Tempo, 384615
1, 7200, Note_on_c, 0, 48, 0
1, 7200, Note_on_c, 0, 60, 0
1, 7200, Note_on_c, 0, 66, 54
1, 7200, Note_on_c, 0, 54, 43
1, 7240, Tempo, 376176
1, 7320, Tempo, 375000
1, 7360, Note_on_c, 0, 54, 0
1, 7360, Note_on_c, 0, 66, 0
1, 7360, Note_on_c, 0, 61, 43
1, 7360, Note_on_c, 0, 49, 36
1, 7400, Tempo, 373832
1, 7480, Tempo, 372671
1, 7520, Note_on_c, 0, 49, 0
1, 7520, Note_on_c, 0, 61, 0
1, 7520, Note_on_c, 0, 65, 40
1, 7520, Note_on_c, 0, 53, 32
1, 7560, Tempo, 371517
1, 7640, Tempo, 370370
1, 7680, Tempo, 373832
1, 7680, Note_on_c, 0, 53, 0
1, 7680, Note_on_c, 0, 65, 0
1, 7680, Note_on_c, 0, 58, 47
1, 7680, Note_on_c, 0, 46, 39
1, 7695, Control_c, 0, 64, 0
1, 7735, Control_c, 0, 64, 127
1, 7760, Tempo, 372671
1, 7840, Tempo, 371517
1, 7840, Note_on_c, 0, 46, 0
1, 7840, Note_on_c, 0, 58, 0
1, 7840, Note_on_c, 0, 65, 42
1, 7840, Note_on_c, 0, 53, 36
1, 7920, Tempo, 370370
1, 8000, Tempo, 369231
1, 8000, Note_on_c, 0, 53, 0
1, 8000, Note_on_c, 0, 65, 0
1, 8000, Note_on_c, 0, 61, 44
1, 8000, Note_on_c, 0, 49, 37
1, 8080, Tempo, 368098
1, 8120, Tempo, 366972
1, 8160, Note_on_c, 0, 49, 0
1, 8160, Note_on_c, 0, 61, 0
1, 8160, Note_on_c, 0, 66, 45
1, 8160, Note_on_c, 0, 54, 46
1, 8200, Tempo, 368098
1, 8240, Tempo, 369231
1, 8280, Tempo, 370370
1, 8320, Tempo, 371517
1, 8320, Note_on_c, 0, 54, 0
1, 8320, Note_on_c, 0, 66, 0
1, 8320, Note_on_c, 0, 58, 52
1, 8320, Note_on_c, 0, 46, 43
1, 8360, Tempo, 372671
1, 8400, Tempo, 373832
1, 8440, Tempo, 375000
1, 8480, Tempo, 376176
1, 8480, Note_on_c, 0, 46, 0
1, 8480, Note_on_c, 0, 58, 0
1, 8480, Note_on_c, 0, 66, 54
1, 8480, Note_on_c, 0, 54, 45
1, 8520, Tempo, 377358
1, 8600, Tempo, 372671
1, 8640, Note_on_c, 0, 54, 0
1, 8640, Note_on_c, 0, 66, 0
1, 8640, Note_on_c, 0, 57, 56
1, 8640, Note_on_c, 0, 45, 44
1, 8651, Control_c, 0, 64, 0
1, 8710, Control_c, 0, 64, 127
1, 8720, Tempo, 371517
1, 8800, Note_on_c, 0, 45, 0
1, 8800, Note_on_c, 0, 57, 0
1, 8800, Note_on_c, 0, 66, 50
1, 8800, Note_on_c, 0, 54, 40
1, 8840, Tempo, 370370
1, 8960, Tempo, 369231
1, 8960, Note_on_c, 0, 54, 0
1, 8960, Note_on_c, 0, 66, 0
1, 8960, Note_on_c, 0, 60, 47
1, 8960, Note_on_c, 0, 48, 40
1, 9080, Tempo, 368098
1, 9120, Note_on_c, 0, 48, 0
1, 9120, Note_on_c, 0, 60, 0
1, 9120, Note_on_c, 0, 65, 48
1, 9120, Note_on_c, 0, 53, 42
1, 9160, Tempo, 369231
1, 9240, Tempo, 370370
1, 9280, Tempo, 371517
1, 9280, Note_on_c, 0, 53, 0
1, 9280, Note_on_c, 0, 65, 0
1, 9280, Note_on_c, 0, 57, 45
1, 9280, Note_on_c, 0, 45, 37
1, 9360, Tempo, 372671
1, 9400, Tempo, 373832
1, 9440, Note_on_c, 0, 45, 0
1, 9440, Note_on_c, 0, 57, 0
1, 9440, Note_on_c, 0, 65, 45
1, 9440, Note_on_c, 0, 53, 36
1, 9480, Tempo, 375000
1, 9520, Tempo, 376176
1, 9600, Tempo, 375000
1, 9600, Note_on_c, 0, 53, 0
1, 9600, Note_on_c, 0, 65, 0
1, 9600, Note_on_c, 0, 58, 48
1, 9600, Note_on_c, 0, 46, 40
1, 9612, Control_c, 0, 64, 0
1, 9640, Tempo, 376176
1, 9691, Control_c, 0, 64, 127
1, 9720, Tempo, 375000
1, 9760, Note_on_c, 0, 46, 0
1, 9760, Note_on_c, 0, 58, 0
1, 9760, Note_on_c, 0, 65, 45
1, 9760, Note_on_c, 0, 53, 37
1, 9800, Tempo, 373832
1, 9840, Tempo, 372671
1, 9920, Tempo, 371517
1, 9920, Note_on_c, 0, 53, 0
1, 9920, Note_on_c, 0, 65, 0
1, 9920, Note_on_c, 0, 61, 46
1, 9920, Note_on_c, 0, 49, 39
1, 9960, Tempo, 370370
1, 10040, Tempo, 369231
1, 10080, Tempo, 368098
1, 10080, Note_on_c, 0, 49, 0
1, 10080, Note_on_c, 0, 61, 0
1, 10080, Note_on_c, 0, 66, 57
1, 10080, Note_on_c, 0, 54, 47
1, 10160, Tempo, 369231
1, 10200, Tempo, 370370
1, 10240, Tempo, 371517
1, 10240, Note_on_c, 0, 54, 0
1, 10240, Note_on_c, 0, 66, 0
1, 10240, Note_on_c, 0, 57, 53
1, 10240, Note_on_c, 0, 45, 44
1, 10280, Tempo, 372671
1, 10320, Tempo, 373832
1, 10360, Tempo, 375000
1, 10400, Tempo, 376176
1, 10400, Note_on_c, 0, 45, 0
1, 10400, Note_on_c, 0, 57, 0
1, 10400, Note_on_c, 0, 66, 55
1, 10400, Note_on_c, 0, 54, 46
1, 10440, Tempo, 377358
1, 10480, Tempo, 378549
1, 10520, Tempo, 379747
1, 10560, Tempo, 377358
1, 10560, Note_on_c, 0, 54, 0
1, 10560, Note_on_c, 0, 66, 0
1, 10560, Note_on_c, 0, 56, 65
1, 10560, Note_on_c, 0, 44, 55
1, 10576, Control_c, 0, 64, 0
1, 10630, Control_c, 0, 64, 127
1, 10640, Tempo, 376176
1, 10680, Tempo, 375000
1, 10720, Note_on_c, 0, 44, 0
1, 10720, Note_on_c, 0, 56, 0
1, 10720, Note_on_c, 0, 66, 60
1, 10720, Note_on_c, 0, 54, 50
1, 10760, Tempo, 373832
1, 10800, Tempo, 372671
1, 10880, Tempo, 371517
1, 10880, Note_on_c, 0, 54, 0
1, 10880, Note_on_c, 0, 66, 0
1, 10880, Note_on_c, 0, 62, 52
1, 10880, Note_on_c, 0, 50, 43
1, 10920, Tempo, 370370
1, 11000, Tempo, 369231
1, 11040, Tempo, 368098
1, 11040, Note_on_c, 0, 50, 0
1, 11040, Note_on_c, 0, 62, 0
1, 11040, Note_on_c, 0, 65, 54
1, 11040, Note_on_c, 0, 53, 46
1, 11120, Tempo, 369231
1, 11160, Tempo, 370370
1, 11200, Note_on_c, 0, 53, 0
1, 11200, Note_on_c, 0, 65, 0
1, 11200, Note_on_c, 0, 59, 50
1, 11200, Note_on_c, 0, 47, 42
1, 11240, Tempo, 371517
1, 11280, Tempo, 372671
1, 11360, Tempo, 373832
1, 11360, Note_on_c, 0, 47, 0
1, 11360, Note_on_c, 0, 59, 0
1, 11360, Note_on_c, 0, 65, 47
1, 11360, Note_on_c, 0, 53, 40
1, 11400, Tempo, 375000
1, 11480, Tempo, 371517
1, 11520, Note_on_c, 0, 53, 0
1, 11520, Note_on_c, 0, 65, 0
1, 11520, Note_on_c, 0, 56, 69
1, 11520, Note_on_c, 0, 44, 57
1, 11532, Control_c, 0, 64, 0
1, 11600, Tempo, 370370
1, 11652, Control_c, 0, 64, 127
1, 11680, Note_on_c, 0, 44, 0
1, 11680, Note_on_c, 0, 56, 0
1, 11680, Note_on_c, 0, 64, 58
1, 11680, Note_on_c, 0, 52, 48
1, 11720, Tempo, 369231
1, 11800, Tempo, 368098
1, 11840, Note_on_c, 0, 52, 0
1, 11840, Note_on_c, 0, 64, 0
1, 11840, Note_on_c, 0, 59, 57
1, 11840, Note_on_c, 0, 47, 48
1, 11920, Tempo, 366972
1, 12000, Tempo, 365854
1, 12000, Note_on_c, 0, 47, 0
1, 12000, Note_on_c, 0, 59, 0
1, 12000, Note_on_c, 0, 62, 62
1, 12000, Note_on_c, 0, 50, 51
1, 12080, Tempo, 363636
1, 12160, Tempo, 364742
1, 12160, Note_on_c, 0, 50, 0
1, 12160, Note_on_c, 0, 62, 0
1, 12160, Note_on_c, 0, 56, 51
1, 12160, Note_on_c, 0, 44, 42
1, 12240, Tempo, 365854
1, 12320, Tempo, 366972
1, 12320, Note_on_c, 0, 44, 0
1, 12320, Note_on_c, 0, 56, 0
1, 12320, Note_on_c, 0, 62, 52
1, 12320, Note_on_c, 0, 50, 44
1, 12400, Tempo, 368098
1, 12480, Tempo, 369231
1, 12480, Note_on_c, 0, 50, 0
1, 12480, Note_on_c, 0, 62, 0
1, 12480, Note_on_c, 0, 55, 55
1, 12480, Note_on_c, 0, 43, 46
1, 12493, Control_c, 0, 64, 0
1, 12550, Control_c, 0, 64, 127
1, 12560, Tempo, 370370
1, 12640, Tempo, 371517
1, 12640, Note_on_c, 0, 43, 0
1, 12640, Note_on_c, 0, 55, 0
1, 12640, Note_on_c, 0, 62, 49
1, 12640, Note_on_c, 0, 50, 41
1, 12720, Tempo, 372671
1, 12800, Note_on_c, 0, 50, 0
1, 12800, Note_on_c, 0, 62, 0
1, 12800, Note_on_c, 0, 58, 49
1, 12800, Note_on_c, 0, 46, 40
1, 12960, Note_on_c, 0, 46, 0
1, 12960, Note_on_c, 0, 58, 0
1, 12960, Note_on_c, 0, 65, 50
1, 12960, Note_on_c, 0, 53, 42
1, 13120, Note_on_c, 0, 53, 0
1, 13120, Note_on_c, 0, 65, 0
1, 13120, Note_on_c, 0, 55, 56
1, 13120, Note_on_c, 0, 43, 47
1, 13280, Note_on_c, 0, 43, 0
1, 13280, Note_on_c, 0, 55, 0
1, 13280, Note_on_c, 0, 63, 55
1, 13280, Note_on_c, 0, 51, 47
1, 13440, Tempo, 371517
1, 13440, Note_on_c, 0, 51, 0
1, 13440, Note_on_c, 0, 63, 0
1, 13440, Note_on_c, 0, 53, 67
1, 13440, Note_on_c, 0, 41, 55
1, 13449, Control_c, 0, 64, 0
1, 13537, Control_c, 0, 64, 127
1, 13560, Tempo, 370370
1, 13600, Note_on_c, 0, 41, 0
1, 13600, Note_on_c, 0, 53, 0
1, 13600, Note_on_c, 0, 61, 59
1, 13600, Note_on_c, 0, 49, 49
1, 13640, Tempo, 369231
1, 13760, Tempo, 368098
1, 13760, Note_on_c, 0, 49, 0
1, 13760, Note_on_c, 0, 61, 0
1, 13760, Note_on_c, 0, 55, 58
1, 13760, Note_on_c, 0, 43, 49
1, 13840, Tempo, 366972
1, 13920, Tempo, 365854
1, 13920, Note_on_c, 0, 43, 0
1, 13920, Note_on_c, 0, 55, 0
1, 13920, Note_on_c, 0, 59, 63
1, 13920, Note_on_c, 0, 47, 52
1, 14080, Tempo, 366972
1, 14080, Note_on_c, 0, 47, 0
1, 14080, Note_on_c, 0, 59, 0
1, 14080, Note_on_c, 0, 53, 52
1, 14080, Note_on_c, 0, 41, 43
1, 14200, Tempo, 368098
1, 14240, Note_on_c, 0, 41, 0
1, 14240, Note_on_c, 0, 53, 0
1, 14240, Note_on_c, 0, 59, 53
1, 14240, Note_on_c, 0, 47, 45
1, 14320, Tempo, 369231
1, 14400, Note_on_c, 0, 47, 0
1, 14400, Note_on_c, 0, 59, 0
1, 14400, Note_on_c, 0, 52, 56
1, 14400, Note_on_c, 0, 40, 47
1, 14415, Control_c, 0, 64, 0
1, 14470, Control_c, 0, 64, 127
1, 14480, Tempo, 370370
1, 14560, Note_on_c, 0, 40, 0
1, 14560, Note_on_c, 0, 52, 0
1, 14560, Note_on_c, 0, 59, 50
1, 14560, Note_on_c, 0, 47, 42
1, 14600, Tempo, 371517
1, 14720, Tempo, 372671
1, 14720, Note_on_c, 0, 47, 0
1, 14720, Note_on_c, 0, 59, 0
1, 14720, Note_on_c, 0, 55, 49
1, 14720, Note_on_c, 0, 43, 41
1, 14840, Tempo, 373832
1, 14880, Note_on_c, 0, 43, 0
1, 14880, Note_on_c, 0, 55, 0
1, 14880, Note_on_c, 0, 61, 51
1, 14880, Note_on_c, 0, 49, 44
1, 15040, Note_on_c, 0, 49, 0
1, 15040, Note_on_c, 0, 61, 0
1, 15040, Note_on_c, 0, 52, 56
1, 15040, Note_on_c, 0, 40, 48
1, 15080, Tempo, 373832
1, 15120, Tempo, 376176
1, 15160, Tempo, 378549
1, 15200, Tempo, 380952
1, 15200, Note_on_c, 0, 40, 0
1, 15200, Note_on_c, 0, 52, 0
1, 15200, Note_on_c, 0, 60, 58
1, 15200, Note_on_c, 0, 48, 48
1, 15240, Tempo, 383387
1, 15280, Tempo, 385852
1, 15320, Tempo, 388350
1, 15360, Tempo, 369231
1, 15360, Note_on_c, 0, 48, 0
1, 15360, Note_on_c, 0, 60, 0
1, 15360, Note_on_c, 0, 54, 70
1, 15360, Note_on_c, 0, 42, 54
1, 15373, Control_c, 0, 64, 0
1, 15440, Tempo, 368098
1, 15466, Control_c, 0, 64, 127
1, 15480, Tempo, 366972
1, 15520, Note_on_c, 0, 42, 0
1, 15520, Note_on_c, 0, 54, 0
1, 15520, Note_on_c, 0, 62, 59
1, 15520, Note_on_c, 0, 50, 49
1, 15560, Tempo, 365854
1, 15600, Tempo, 364742
1, 15680, Tempo, 363636
1, 15680, Note_on_c, 0, 50, 0
1, 15680, Note_on_c, 0, 62, 0
1, 15680, Note_on_c, 0, 57, 59
1, 15680, Note_on_c, 0, 45, 50
1, 15720, Tempo, 362538
1, 15800, Tempo, 361446
1, 15840, Tempo, 360360
1, 15840, Note_on_c, 0, 45, 0
1, 15840, Note_on_c, 0, 57, 0
1, 15840, Note_on_c, 0, 60, 63
1, 15840, Note_on_c, 0, 48, 53
1, 15880, Tempo, 361446
1, 16000, Tempo, 362538
1, 16000, Note_on_c, 0, 48, 0
1, 16000, Note_on_c, 0, 60, 0
1, 16000, Note_on_c, 0, 54, 53
1, 16000, Note_on_c, 0, 42, 44
1, 16120, Tempo, 363636
1, 16160, Note_on_c, 0, 42, 0
1, 16160, Note_on_c, 0, 54, 0
1, 16160, Note_on_c, 0, 60, 54
1, 16160, Note_on_c, 0, 48, 46
1, 16240, Tempo, 364742
1, 16320, Note_on_c, 0, 48, 0
1, 16320, Note_on_c, 0, 60, 0
1, 16320, Note_on_c, 0, 53, 57
1, 16320, Note_on_c, 0, 41, 48
1, 16335, Control_c, 0, 64, 0
1, 16360, Tempo, 365854
1, 16395, Control_c, 0, 64, 127
1, 16480, Tempo, 366972
1, 16480, Note_on_c, 0, 41, 0
1, 16480, Note_on_c, 0, 53, 0
1, 16480, Note_on_c, 0, 60, 51
1, 16480, Note_on_c, 0, 48, 43
1, 16600, Tempo, 368098
1, 16640, Note_on_c, 0, 48, 0
1, 16640, Note_on_c, 0, 60, 0
1, 16640, Note_on_c, 0, 56, 51
1, 16640, Note_on_c, 0, 44, 42
1, 16720, Tempo, 369231
1, 16800, Tempo, 370370
1, 16800, Note_on_c, 0, 44, 0
1, 16800, Note_on_c, 0, 56, 0
1, 16800, Note_on_c, 0, 63, 53
1, 16800, Note_on_c, 0, 51, 45
1, 16960, Note_on_c, 0, 51, 0
1, 16960, Note_on_c, 0, 63, 0
1, 16960, Note_on_c, 0, 53, 58
1, 16960, Note_on_c, 0, 41, 48
1, 17000, Tempo, 369231
1, 17040, Tempo, 371517
1, 17080, Tempo, 373832
1, 17120, Tempo, 376176
1, 17120, Note_on_c, 0, 41, 0
1, 17120, Note_on_c, 0, 53, 0
1, 17120, Note_on_c, 0, 61, 59
1, 17120, Note_on_c, 0, 49, 48
1, 17160, Tempo, 378549
1, 17200, Tempo, 380952
1, 17240, Tempo, 384615
1, 17280, Tempo, 369231
1, 17280, Note_on_c, 0, 49, 0
1, 17280, Note_on_c, 0, 61, 0
1, 17280, Note_on_c, 0, 51, 71
1, 17280, Note_on_c, 0, 39, 61
1, 17290, Control_c, 0, 64, 0
1, 17355, Control_c, 0, 64, 127
1, 17360, Tempo, 368098
1, 17440, Tempo, 366972
1, 17440, Note_on_c, 0, 39, 0
1, 17440, Note_on_c, 0, 51, 0
1, 17440, Note_on_c, 0, 59, 61
1, 17440, Note_on_c, 0, 47, 51
1, 17520, Tempo, 365854
1, 17600, Tempo, 364742
1, 17600, Note_on_c, 0, 47, 0
1, 17600, Note_on_c, 0, 59, 0
1, 17600, Note_on_c, 0, 53, 60
1, 17600, Note_on_c, 0, 41, 50
1, 17680, Tempo, 363636
1, 17760, Tempo, 362538
1, 17760, Note_on_c, 0, 41, 0
1, 17760, Note_on_c, 0, 53, 0
1, 17760, Note_on_c, 0, 57, 61
1, 17760, Note_on_c, 0, 45, 50
1, 17920, Tempo, 363636
1, 17920, Note_on_c, 0, 45, 0
1, 17920, Note_on_c, 0, 57, 0
1, 17920, Note_on_c, 0, 51, 53
1, 17920, Note_on_c, 0, 39, 45
1, 18080, Tempo, 364742
1, 18080, Note_on_c, 0, 39, 0
1, 18080, Note_on_c, 0, 51, 0
1, 18080, Note_on_c, 0, 57, 54
1, 18080, Note_on_c, 0, 45, 45
1, 18240, Tempo, 365854
1, 18240, Note_on_c, 0, 45, 0
1, 18240, Note_on_c, 0, 57, 0
1, 18240, Note_on_c, 0, 50, 56
1, 18240, Note_on_c, 0, 38, 47
1, 18246, Control_c, 0, 64, 0
1, 18337, Control_c, 0, 64, 127
1, 18400, Tempo, 366972
1, 18400, Note_on_c, 0, 38, 0
1, 18400, Note_on_c, 0, 50, 0
1, 18400, Note_on_c, 0, 57, 51
1, 18400, Note_on_c, 0, 45, 44
1, 18560, Tempo, 368098
1, 18560, Note_on_c, 0, 45, 0
1, 18560, Note_on_c, 0, 57, 0
1, 18560, Note_on_c, 0, 53, 51
1, 18560, Note_on_c, 0, 41, 44
1, 18680, Tempo, 369231
1, 18720, Note_on_c, 0, 41, 0
1, 18720, Note_on_c, 0, 53, 0
1, 18720, Note_on_c, 0, 58, 66
1, 18720, Note_on_c, 0, 46, 56
1, 18880, Note_on_c, 0, 46, 0
1, 18880, Note_on_c, 0, 58, 0
1, 18880, Note_on_c, 0, 54, 58
1, 18880, Note_on_c, 0, 42, 50
1, 19040, Note_on_c, 0, 42, 0
1, 19040, Note_on_c, 0, 54, 0
1, 19040, Note_on_c, 0, 58, 60
1, 19040, Note_on_c, 0, 46, 50
1, 19160, Tempo, 364742
1, 19200, Note_on_c, 0, 46, 0
1, 19200, Note_on_c, 0, 58, 0
1, 19200, Note_on_c, 0, 51, 75
1, 19200, Note_on_c, 0, 39, 64
1, 19211, Control_c, 0, 64, 0
1, 19240, Tempo, 362538
1, 19297, Control_c, 0, 64, 127
1, 19360, Note_on_c, 0, 39, 0
1, 19360, Note_on_c, 0, 51, 0
1, 19360, Note_on_c, 0, 58, 68
1, 19360, Note_on_c, 0, 46, 57
1, 19400, Tempo, 361446
1, 19520, Note_on_c, 0, 46, 0
1, 19520, Note_on_c, 0, 58, 0
1, 19520, Note_on_c, 0, 54, 69
1, 19520, Note_on_c, 0, 42, 58
1, 19560, Tempo, 360360
1, 19680, Tempo, 359281
1, 19680, Note_on_c, 0, 42, 0
1, 19680, Note_on_c, 0, 54, 0
1, 19680, Note_on_c, 0, 59, 78
1, 19680, Note_on_c, 0, 47, 66
1, 19840, Tempo, 358209
1, 19840, Note_on_c, 0, 47, 0
1, 19840, Note_on_c, 0, 59, 0
1, 19840, Note_on_c, 0, 54, 75
1, 19840, Note_on_c, 0, 42, 63
1, 20000, Tempo, 357143
1, 20000, Note_on_c, 0, 42, 0
1, 20000, Note_on_c, 0, 54, 0
1, 20000, Note_on_c, 0, 59, 77
1, 20000, Note_on_c, 0, 47, 65
1, 20120, Tempo, 356083
1, 20160, Note_on_c, 0, 47, 0
1, 20160, Note_on_c, 0, 59, 0
1, 20160, Note_on_c, 0, 50, 80
1, 20160, Note_on_c, 0, 38, 67
1, 20170, Control_c, 0, 64, 0
1, 20240, Tempo, 357143
1, 20252, Control_c, 0, 64, 127
1, 20320, Tempo, 358209
1, 20320, Note_on_c, 0, 38, 0
1, 20320, Note_on_c, 0, 50, 0
1, 20320, Note_on_c, 0, 59, 67
1, 20320, Note_on_c, 0, 47, 54
1, 20440, Tempo, 359281
1, 20480, Note_on_c, 0, 47, 0
1, 20480, Note_on_c, 0, 59, 0
1, 20480, Note_on_c, 0, 53, 65
1, 20480, Note_on_c, 0, 41, 53
1, 20520, Tempo, 360360
1, 20640, Tempo, 361446
1, 20640, Note_on_c, 0, 41, 0
1, 20640, Note_on_c, 0, 53, 0
1, 20640, Note_on_c, 0, 58, 67
1, 20640, Note_on_c, 0, 46, 57
1, 20720, Tempo, 362538
1, 20800, Tempo, 363636
1, 20800, Note_on_c, 0, 46, 0
1, 20800, Note_on_c, 0, 58, 0
1, 20800, Note_on_c, 0, 50, 59
1, 20800, Note_on_c, 0, 38, 50
1, 20880, Tempo, 363636
1, 20920, Tempo, 364742
1, 20960, Note_on_c, 0, 38, 0
1, 20960, Note_on_c, 0, 50, 0
1, 20960, Note_on_c, 0, 58, 58
1, 20960, Note_on_c, 0, 46, 49
1, 21040, Tempo, 368098
1, 21120, Tempo, 359475
1, 21120, Note_on_c, 0, 46, 0
1, 21120, Note_on_c, 0, 58, 0
1, 21120, Note_on_c, 0, 51, 67
1, 21120, Note_on_c, 0, 39, 56
1, 21131, Control_c, 0, 64, 0
1, 21200, Tempo, 358337
1, 21206, Control_c, 0, 64, 127
1, 21280, Tempo, 357228
1, 21280, Note_on_c, 0, 39, 0
1, 21280, Note_on_c, 0, 51, 0
1, 21280, Note_on_c, 0, 58, 59
1, 21280, Note_on_c, 0, 46, 49
1, 21320, Tempo, 356104
1, 21400, Tempo, 354967
1, 21440, Tempo, 353878
1, 21440, Note_on_c, 0, 46, 0
1, 21440, Note_on_c, 0, 58, 0
1, 21440, Note_on_c, 0, 54, 61
1, 21440, Note_on_c, 0, 42, 51
1, 21520, Tempo, 352775
1, 21560, Tempo, 351700
1, 21600, Note_on_c, 0, 42, 0
1, 21600, Note_on_c, 0, 54, 0
1, 21600, Note_on_c, 0, 59, 80
1, 21600, Note_on_c, 0, 47, 65
1, 21680, Tempo, 352775
1, 21760, Tempo, 353878
1, 21760, Note_on_c, 0, 47, 0
1, 21760, Note_on_c, 0, 59, 0
1, 21760, Note_on_c, 0, 55, 74
1, 21760, Note_on_c, 0, 43, 57
1, 21880, Tempo, 353878
1, 21920, Tempo, 356104
1, 21920, Note_on_c, 0, 43, 0
1, 21920, Note_on_c, 0, 55, 0
1, 21920, Note_on_c, 0, 59, 75
1, 21920, Note_on_c, 0, 47, 58
1, 21960, Tempo, 358337
1, 22000, Tempo, 360620
1, 22040, Tempo, 364056
1, 22080, Tempo, 358337
1, 22080, Note_on_c, 0, 47, 0
1, 22080, Note_on_c, 0, 59, 0
1, 22080, Note_on_c, 0, 50, 83
1, 22080, Note_on_c, 0, 38, 71
1, 22092, Control_c, 0, 64, 0
1, 22165, Control_c, 0, 64, 127
1, 22200, Tempo, 357228
1, 22240, Note_on_c, 0, 38, 0
1, 22240, Note_on_c, 0, 50, 0
1, 22240, Note_on_c, 0, 59, 73
1, 22240, Note_on_c, 0, 47, 62
1, 22280, Tempo, 356104
1, 22400, Tempo, 354967
1, 22400, Note_on_c, 0, 47, 0
1, 22400, Note_on_c, 0, 59, 0
1, 22400, Note_on_c, 0, 54, 74
1, 22400, Note_on_c, 0, 42, 63
1, 22480, Tempo, 353878
1, 22560, Tempo, 352775
1, 22560, Note_on_c, 0, 42, 0
1, 22560, Note_on_c, 0, 54, 0
1, 22560, Note_on_c, 0, 58, 80
1, 22560, Note_on_c, 0, 46, 67
1, 22600, Tempo, 353878
1, 22640, Tempo, 354967
1, 22680, Tempo, 356104
1, 22720, Tempo, 357228
1, 22720, Note_on_c, 0, 46, 0
1, 22720, Note_on_c, 0, 58, 0
1, 22720, Note_on_c, 0, 53, 72
1, 22720, Note_on_c, 0, 41, 61
1, 22760, Tempo, 358337
1, 22800, Tempo, 359475
1, 22840, Tempo, 360620
1, 22880, Tempo, 361751
1, 22880, Note_on_c, 0, 41, 0
1, 22880, Note_on_c, 0, 53, 0
1, 22880, Note_on_c, 0, 58, 69
1, 22880, Note_on_c, 0, 46, 58
1, 22920, Tempo, 362911
1, 22960, Tempo, 365230
1, 23040, Tempo, 362911
1, 23040, Note_on_c, 0, 46, 0
1, 23040, Note_on_c, 0, 58, 0
1, 23040, Note_on_c, 0, 51, 71
1, 23040, Note_on_c, 0, 39, 59
1, 23053, Control_c, 0, 64, 0
1, 23132, Control_c, 0, 64, 127
1, 23160, Tempo, 361751
1, 23200, Note_on_c, 0, 39, 0
1, 23200, Note_on_c, 0, 51, 0
1, 23200, Note_on_c, 0, 58, 63
1, 23200, Note_on_c, 0, 46, 54
1, 23240, Tempo, 360620
1, 23320, Tempo, 359475
1, 23360, Note_on_c, 0, 46, 0
1, 23360, Note_on_c, 0, 58, 0
1, 23360, Note_on_c, 0, 54, 63
1, 23360, Note_on_c, 0, 42, 54
1, 23400, Tempo, 358337
1, 23480, Tempo, 357228
1, 23520, Tempo, 351700
1, 23520, Note_on_c, 0, 42, 0
1, 23520, Note_on_c, 0, 54, 0
1, 23520, Note_on_c, 0, 59, 78
1, 23520, Note_on_c, 0, 47, 65
1, 23680, Note_on_c, 0, 47, 0
1, 23680, Note_on_c, 0, 59, 0
1, 23680, Note_on_c, 0, 51, 73
1, 23680, Note_on_c, 0, 39, 60
1, 23720, Tempo, 350611
1, 23840, Note_on_c, 0, 39, 0
1, 23840, Note_on_c, 0, 51, 0
1, 23840, Note_on_c, 0, 59, 73
1, 23840, Note_on_c, 0, 47, 61
1, 23920, Tempo, 349528
1, 24000, Tempo, 350611
1, 24000, Note_on_c, 0, 47, 0
1, 24000, Note_on_c, 0, 59, 0
1, 24000, Note_on_c, 0, 53, 85
1, 24000, Note_on_c, 0, 41, 70
1, 24015, Control_c, 0, 64, 0
1, 24080, Tempo, 351700
1, 24080, Control_c, 0, 64, 127
1, 24120, Tempo, 352775
1, 24160, Tempo, 353878
1, 24160, Note_on_c, 0, 41, 0
1, 24160, Note_on_c, 0, 53, 0
1, 24160, Note_on_c, 0, 61, 76
1, 24160, Note_on_c, 0, 49, 66
1, 24240, Tempo, 354967
1, 24280, Tempo, 356104
1, 24320, Tempo, 357228
1, 24320, Note_on_c, 0, 49, 0
1, 24320, Note_on_c, 0, 61, 0
1, 24320, Note_on_c, 0, 57, 76
1, 24320, Note_on_c, 0, 45, 62
1, 24360, Tempo, 361751
1, 24400, Tempo, 366412
1, 24480, Tempo, 358337
1, 24480, Note_on_c, 0, 45, 0
1, 24480, Note_on_c, 0, 57, 0
1, 24480, Note_on_c, 0, 61, 86
1, 24480, Note_on_c, 0, 49, 71
1, 24600, Tempo, 357228
1, 24640, Note_on_c, 0, 49, 0
1, 24640, Note_on_c, 0, 61, 0
1, 24640, Note_on_c, 0, 53, 82
1, 24640, Note_on_c, 0, 41, 69
1, 24680, Tempo, 356104
1, 24760, Tempo, 354967
1, 24800, Tempo, 357228
1, 24800, Note_on_c, 0, 41, 0
1, 24800, Note_on_c, 0, 53, 0
1, 24800, Note_on_c, 0, 61, 78
1, 24800, Note_on_c, 0, 49, 67
1, 24960, Tempo, 362911
1, 24960, Note_on_c, 0, 49, 0
1, 24960, Note_on_c, 0, 61, 0
1, 24960, Note_on_c, 0, 54, 78
1, 24960, Note_on_c, 0, 42, 65
1, 24971, Control_c, 0, 64, 0
1, 25042, Control_c, 0, 64, 127
1, 25080, Tempo, 361751
1, 25120, Note_on_c, 0, 42, 0
1, 25120, Note_on_c, 0, 54, 0
1, 25120, Note_on_c, 0, 61, 71
1, 25120, Note_on_c, 0, 49, 59
1, 25160, Tempo, 360620
1, 25240, Tempo, 359475
1, 25280, Note_on_c, 0, 49, 0
1, 25280, Note_on_c, 0, 61, 0
1, 25280, Note_on_c, 0, 57, 72
1, 25280, Note_on_c, 0, 45, 60
1, 25320, Tempo, 358337
1, 25400, Tempo, 357228
1, 25440, Tempo, 351700
1, 25440, Note_on_c, 0, 45, 0
1, 25440, Note_on_c, 0, 57, 0
1, 25440, Note_on_c, 0, 62, 83
1, 25440, Note_on_c, 0, 50, 70
1, 25600, Note_on_c, 0, 50, 0
1, 25600, Note_on_c, 0, 62, 0
1, 25600, Note_on_c, 0, 54, 77
1, 25600, Note_on_c, 0, 42, 66
1, 25640, Tempo, 350611
1, 25760, Note_on_c, 0, 42, 0
1, 25760, Note_on_c, 0, 54, 0
1, 25760, Note_on_c, 0, 62, 79
1, 25760, Note_on_c, 0, 50, 66
1, 25840, Tempo, 349528
1, 25920, Tempo, 350611
1, 25920, Note_on_c, 0, 50, 0
1, 25920, Note_on_c, 0, 62, 0
1, 25920, Note_on_c, 0, 58, 90
1, 25920, Note_on_c, 0, 46, 77
1, 25932, Control_c, 0, 64, 0
1, 26000, Tempo, 351700
1, 26007, Control_c, 0, 64, 127
1, 26040, Tempo, 352775
1, 26080, Tempo, 353878
1, 26080, Note_on_c, 0, 46, 0
1, 26080, Note_on_c, 0, 58, 0
1, 26080, Note_on_c, 0, 63, 83
1, 26080, Note_on_c, 0, 51, 70
1, 26160, Tempo, 354967
1, 26200, Tempo, 356104
1, 26240, Tempo, 357228
1, 26240, Note_on_c, 0, 51, 0
1, 26240, Note_on_c, 0, 63, 0
1, 26240, Note_on_c, 0, 54, 82
1, 26240, Note_on_c, 0, 42, 68
1, 26280, Tempo, 361751
1, 26320, Tempo, 366412
1, 26400, Tempo, 358337
1, 26400, Note_on_c, 0, 42, 0
1, 26400, Note_on_c, 0, 54, 0
1, 26400, Note_on_c, 0, 64, 97
1, 26400, Note_on_c, 0, 52, 81
1, 26520, Tempo, 357228
1, 26560, Note_on_c, 0, 52, 0
1, 26560, Note_on_c, 0, 64, 0
1, 26560, Note_on_c, 0, 55, 90
1, 26560, Note_on_c, 0, 43, 77
1, 26600, Tempo, 356104
1, 26680, Tempo, 354967
1, 26720, Tempo, 357228
1, 26720, Note_on_c, 0, 43, 0
1, 26720, Note_on_c, 0, 55, 0
1, 26720, Note_on_c, 0, 65, 85
1, 26720, Note_on_c, 0, 53, 75
1, 26721, Tempo, 376176
1, 26880, Tempo, 362538
1, 26880, Note_on_c, 0, 53, 0
1, 26880, Note_on_c, 0, 65, 0
1, 26880, Note_on_c, 0, 56, 84
1, 26880, Note_on_c, 0, 44, 73
1, 26890, Control_c, 0, 64, 0
1, 26960, Tempo, 361446
1, 27017, Control_c, 0, 64, 127
1, 27040, Tempo, 360360
1, 27040, Note_on_c, 0, 44, 0
1, 27040, Note_on_c, 0, 56, 0
1, 27040, Note_on_c, 0, 59, 74
1, 27040, Note_on_c, 0, 47, 63
1, 27080, Tempo, 359281
1, 27160, Tempo, 358209
1, 27200, Tempo, 357143
1, 27200, Note_on_c, 0, 47, 0
1, 27200, Note_on_c, 0, 59, 0
1, 27200, Note_on_c, 0, 54, 73
1, 27200, Note_on_c, 0, 42, 62
1, 27280, Tempo, 356083
1, 27320, Tempo, 355030
1, 27360, Note_on_c, 0, 42, 0
1, 27360, Note_on_c, 0, 54, 0
1, 27360, Note_on_c, 0, 59, 80
1, 27360, Note_on_c, 0, 47, 68
1, 27400, Tempo, 356083
1, 27480, Tempo, 357143
1, 27520, Note_on_c, 0, 47, 0
1, 27520, Note_on_c, 0, 59, 0
1, 27520, Note_on_c, 0, 53, 71
1, 27520, Note_on_c, 0, 41, 60
1, 27560, Tempo, 358209
1, 27640, Tempo, 359281
1, 27680, Tempo, 360360
1, 27680, Note_on_c, 0, 41, 0
1, 27680, Note_on_c, 0, 53, 0
1, 27680, Note_on_c, 0, 59, 70
1, 27680, Note_on_c, 0, 47, 59
1, 27720, Tempo, 365854
1, 27760, Tempo, 372671
1, 27800, Tempo, 361446
1, 27840, Note_on_c, 0, 47, 0
1, 27840, Note_on_c, 0, 59, 0
1, 27840, Note_on_c, 0, 51, 79
1, 27840, Note_on_c, 0, 39, 67
1, 27856, Control_c, 0, 64, 0
1, 27920, Tempo, 360360
1, 27926, Control_c, 0, 64, 127
1, 28000, Tempo, 359281
1, 28000, Note_on_c, 0, 39, 0
1, 28000, Note_on_c, 0, 51, 0
1, 28000, Note_on_c, 0, 56, 70
1, 28000, Note_on_c, 0, 44, 59
1, 28120, Tempo, 358209
1, 28160, Note_on_c, 0, 44, 0
1, 28160, Note_on_c, 0, 56, 0
1, 28160, Note_on_c, 0, 50, 70
1, 28160, Note_on_c, 0, 38, 59
1, 28200, Tempo, 357143
1, 28280, Tempo, 356083
1, 28320, Tempo, 357143
1, 28320, Note_on_c, 0, 38, 0
1, 28320, Note_on_c, 0, 50, 0
1, 28320, Note_on_c, 0, 54, 73
1, 28320, Note_on_c, 0, 42, 62
1, 28360, Tempo, 358209
1, 28400, Tempo, 359281
1, 28440, Tempo, 360360
1, 28480, Tempo, 361446
1, 28480, Note_on_c, 0, 42, 0
1, 28480, Note_on_c, 0, 54, 0
1, 28480, Note_on_c, 0, 51, 67
1, 28480, Note_on_c, 0, 39, 56
1, 28520, Tempo, 362538
1, 28560, Tempo, 363636
1, 28600, Tempo, 364742
1, 28640, Tempo, 365854
1, 28640, Note_on_c, 0, 39, 0
1, 28640, Note_on_c, 0, 51, 0
1, 28640, Note_on_c, 0, 54, 66
1, 28640, Note_on_c, 0, 42, 55
1, 28680, Tempo, 368098
1, 28800, Tempo, 365854
1, 28800, Note_on_c, 0, 42, 0
1, 28800, Note_on_c, 0, 54, 0
1, 28800, Note_on_c, 0, 44, 75
1, 28800, Note_on_c, 0, 32, 62
1, 28811, Control_c, 0, 64, 0
1, 28880, Tempo, 364742
1, 28913, Control_c, 0, 64, 127
1, 28960, Tempo, 363636
1, 28960, Note_on_c, 0, 32, 0
1, 28960, Note_on_c, 0, 44, 0
1, 28960, Note_on_c, 0, 54, 64
1, 28960, Note_on_c, 0, 42, 53
1, 29040, Tempo, 362538
1, 29120, Tempo, 361446
1, 29120, Note_on_c, 0, 42, 0
1, 29120, Note_on_c, 0, 54, 0
1, 29120, Note_on_c, 0, 51, 62
1, 29120, Note_on_c, 0, 39, 51
1, 29200, Tempo, 360360
1, 29280, Tempo, 359281
1, 29280, Note_on_c, 0, 39, 0
1, 29280, Note_on_c, 0, 51, 0
1, 29280, Note_on_c, 0, 54, 65
1, 29280, Note_on_c, 0, 42, 56
1, 29360, Tempo, 360360
1, 29400, Tempo, 361446
1, 29440, Tempo, 362538
1, 29440, Note_on_c, 0, 42, 0
1, 29440, Note_on_c, 0, 54, 0
1, 29440, Note_on_c, 0, 44, 58
1, 29440, Note_on_c, 0, 32, 49
1, 29480, Tempo, 363636
1, 29520, Tempo, 364742
1, 29560, Tempo, 365854
1, 29600, Tempo, 366972
1, 29600, Note_on_c, 0, 32, 0
1, 29600, Note_on_c, 0, 44, 0
1, 29600, Note_on_c, 0, 54, 57
1, 29600, Note_on_c, 0, 42, 48
1, 29640, Tempo, 368098
1, 29680, Tempo, 369231
1, 29720, Tempo, 370370
1, 29760, Tempo, 369231
1, 29760, Note_on_c, 0, 42, 0
1, 29760, Note_on_c, 0, 54, 0
1, 29760, Note_on_c, 0, 46, 64
1, 29760, Note_on_c, 0, 34, 54
1, 29771, Control_c, 0, 64, 0
1, 29880, Tempo, 368098
1, 29887, Control_c, 0, 64, 127
1, 29920, Note_on_c, 0, 34, 0
1, 29920, Note_on_c, 0, 46, 0
1, 29920, Note_on_c, 0, 54, 56
1, 29920, Note_on_c, 0, 42, 47
1, 29960, Tempo, 366972
1, 30080, Tempo, 365854
1, 30080, Note_on_c, 0, 42, 0
1, 30080, Note_on_c, 0, 54, 0
1, 30080, Note_on_c, 0, 51, 55
1, 30080, Note_on_c, 0, 39, 46
1, 30160, Tempo, 364742
1, 30240, Tempo, 363636
1, 30240, Note_on_c, 0, 39, 0
1, 30240, Note_on_c, 0, 51, 0
1, 30240, Note_on_c, 0, 54, 58
1, 30240, Note_on_c, 0, 42, 49
1, 30320, Tempo, 364742
1, 30400, Tempo, 365854
1, 30400, Note_on_c, 0, 42, 0
1, 30400, Note_on_c, 0, 54, 0
1, 30400, Note_on_c, 0, 46, 50
1, 30400, Note_on_c, 0, 34, 42
1, 30480, Tempo, 366972
1, 30560, Tempo, 368098
1, 30560, Note_on_c, 0, 34, 0
1, 30560, Note_on_c, 0, 46, 0
1, 30560, Note_on_c, 0, 54, 49
1, 30560, Note_on_c, 0, 42, 41
1, 30640, Tempo, 369231
1, 30680, Tempo, 370370
1, 30720, Tempo, 373832
1, 30720, Note_on_c, 0, 42, 0
1, 30720, Note_on_c, 0, 54, 0
1, 30720, Note_on_c, 0, 51, 56
1, 30720, Note_on_c, 0, 39, 48
1, 30734, Control_c, 0, 64, 0
1, 30791, Control_c, 0, 64, 127
1, 30840, Tempo, 372671
1, 30880, Note_on_c, 0, 39, 0
1, 30880, Note_on_c, 0, 51, 0
1, 30880, Note_on_c, 0, 58, 49
1, 30880, Note_on_c, 0, 46, 41
1, 30920, Tempo, 371517
1, 31000, Tempo, 370370
1, 31040, Note_on_c, 0, 46, 0
1, 31040, Note_on_c, 0, 58, 0
1, 31040, Note_on_c, 0, 51, 48
1, 31040, Note_on_c, 0, 39, 40
1, 31080, Tempo, 369231
1, 31160, Tempo, 368098
1, 31200, Note_on_c, 0, 39, 0
1, 31200, Note_on_c, 0, 51, 0
1, 31200, Note_on_c, 0, 59, 51
1, 31200, Note_on_c, 0, 47, 43
1, 31280, Tempo, 369231
1, 31360, Tempo, 370370
1, 31360, Note_on_c, 0, 47, 0
1, 31360, Note_on_c, 0, 59, 0
1, 31360, Note_on_c, 0, 51, 45
1, 31360, Note_on_c, 0, 39, 38
1, 31480, Tempo, 371517
1, 31520, Note_on_c, 0, 39, 0
1, 31520, Note_on_c, 0, 51, 0
1, 31520, Note_on_c, 0, 61, 43
1, 31520, Note_on_c, 0, 49, 36
1, 31560, Tempo, 372671
1, 31640, Tempo, 373832
1, 31680, Tempo, 377358
1, 31680, Note_on_c, 0, 49, 0
1, 31680, Note_on_c, 0, 61, 0
1, 31680, Note_on_c, 0, 51, 48
1, 31680, Note_on_c, 0, 39, 41
1, 31694, Control_c, 0, 64, 0
1, 31760, Tempo, 376176
1, 31821, Control_c, 0, 64, 127
1, 31840, Tempo, 375000
1, 31840, Note_on_c, 0, 39, 0
1, 31840, Note_on_c, 0, 51, 0
1, 31840, Note_on_c, 0, 58, 43
1, 31840, Note_on_c, 0, 46, 36
1, 31920, Tempo, 373832
1, 31960, Tempo, 372671
1, 32000, Note_on_c, 0, 46, 0
1, 32000, Note_on_c, 0, 58, 0
1, 32000, Note_on_c, 0, 51, 42
1, 32000, Note_on_c, 0, 39, 36
1, 32040, Tempo, 371517
1, 32120, Tempo, 370370
1, 32160, Tempo, 369231
1, 32160, Note_on_c, 0, 39, 0
1, 32160, Note_on_c, 0, 51, 0
1, 32160, Note_on_c, 0, 59, 45
1, 32160, Note_on_c, 0, 47, 37
1, 32240, Tempo, 370370
1, 32320, Tempo, 371517
1, 32320, Note_on_c, 0, 47, 0
1, 32320, Note_on_c, 0, 59, 0
1, 32320, Note_on_c, 0, 51, 39
1, 32320, Note_on_c, 0, 39, 32
1, 32360, Tempo, 372671
1, 32440, Tempo, 373832
1, 32480, Note_on_c, 0, 39, 0
1, 32480, Note_on_c, 0, 51, 0
1, 32480, Note_on_c, 0, 61, 38
1, 32480, Note_on_c, 0, 49, 32
1, 32520, Tempo, 375000
1, 32560, Tempo, 376176
1, 32640, Note_on_c, 0, 49, 0
1, 32640, Note_on_c, 0, 61, 0
1, 32640, Note_on_c, 0, 51, 43
1, 32640, Note_on_c, 0, 39, 36
1, 32655, Control_c, 0, 64, 0
1, 32680, Tempo, 378549
1, 32746, Control_c, 0, 64, 127
1, 32760, Tempo, 377358
1, 32800, Note_on_c, 0, 39, 0
1, 32800, Note_on_c, 0, 51, 0
1, 32800, Note_on_c, 0, 61, 37
1, 32800, Note_on_c, 0, 49, 32
1, 32840, Tempo, 376176
1, 32920, Tempo, 375000
1, 32960, Note_on_c, 0, 49, 0
1, 32960, Note_on_c, 0, 61, 0
1, 32960, Note_on_c, 0, 51, 36
1, 32960, Note_on_c, 0, 39, 31
1, 33000, Tempo, 373832
1, 33080, Tempo, 372671
1, 33085, Tempo, 372439
1, 33120, Note_on_c, 0, 39, 0
1, 33120, Note_on_c, 0, 51, 0
1, 33120, Note_on_c, 0, 59, 39
1, 33120, Note_on_c, 0, 47, 32
1, 33151, Tempo, 374298
1, 33216, Tempo, 376176
1, 33260, Tempo, 378072
1, 33280, Note_on_c, 0, 47, 0
1, 33280, Note_on_c, 0, 59, 0
1, 33280, Note_on_c, 0, 51, 35
1, 33280, Note_on_c, 0, 39, 28
1, 33325, Tempo, 379987
1, 33369, Tempo, 381922
1, 33434, Tempo, 383877
1, 33440, Note_on_c, 0, 39, 0
1, 33440, Note_on_c, 0, 51, 0
1, 33440, Note_on_c, 0, 58, 35
1, 33440, Note_on_c, 0, 46, 28
1, 33478, Tempo, 385852
1, 33543, Tempo, 387847
1, 33587, Tempo, 389864
1, 33600, Tempo, 382166
1, 33600, Note_on_c, 0, 46, 0
1, 33600, Note_on_c, 0, 58, 0
1, 33600, Note_on_c, 0, 51, 37
1, 33600, Note_on_c, 0, 39, 31
1, 33602, Tempo, 389610
1, 33609, Tempo, 404585
1, 33614, Control_c, 0, 64, 0
1, 33674, Tempo, 402414
1, 33718, Tempo, 400267
1, 33720, Control_c, 0, 64, 127
1, 33760, Note_on_c, 0, 39, 0
1, 33760, Note_on_c, 0, 51, 0
1, 33760, Note_on_c, 0, 56, 34
1, 33760, Note_on_c, 0, 44, 28
1, 33762, Tempo, 398142
1, 33805, Tempo, 396040
1, 33849, Tempo, 393959
1, 33893, Tempo, 391901
1, 33920, Note_on_c, 0, 44, 0
1, 33920, Note_on_c, 0, 56, 0
1, 33920, Note_on_c, 0, 51, 32
1, 33920, Note_on_c, 0, 39, 27
1, 33936, Tempo, 389864
1, 33980, Tempo, 387847
1, 34023, Tempo, 385852
1, 34067, Tempo, 385852
1, 34080, Note_on_c, 0, 39, 0
1, 34080, Note_on_c, 0, 51, 0
1, 34080, Note_on_c, 0, 58, 34
1, 34080, Note_on_c, 0, 46, 28
1, 34082, Tempo, 385852
1, 34091, Tempo, 387847
1, 34100, Tempo, 389864
1, 34109, Tempo, 391901
1, 34117, Tempo, 393959
1, 34126, Tempo, 396040
1, 34135, Tempo, 398142
1, 34144, Tempo, 400267
1, 34152, Tempo, 402414
1, 34161, Tempo, 404585
1, 34170, Tempo, 406780
1, 34178, Tempo, 408998
1, 34187, Tempo, 411241
1, 34196, Tempo, 413508
1, 34205, Tempo, 415800
1, 34213, Tempo, 418118
1, 34222, Tempo, 420463
1, 34231, Tempo, 422833
1, 34240, Tempo, 425230
1, 34240, Note_on_c, 0, 46, 0
1, 34240, Note_on_c, 0, 58, 0
1, 34240, Note_on_c, 0, 51, 30
1, 34240, Note_on_c, 0, 39, 25
1, 34248, Tempo, 427655
1, 34257, Tempo, 430108
1, 34266, Tempo, 432588
1, 34274, Tempo, 435098
1, 34283, Tempo, 437637
1, 34292, Tempo, 440205
1, 34301, Tempo, 442804
1, 34309, Tempo, 445434
1, 34318, Tempo, 448096
1, 34327, Tempo, 450789
1, 34336, Tempo, 453515
1, 34344, Tempo, 456274
1, 34353, Tempo, 459067
1, 34362, Tempo, 461894
1, 34370, Tempo, 464756
1, 34379, Tempo, 467654
1, 34388, Tempo, 473560
1, 34400, Tempo, 650054
1, 34400, Note_on_c, 0, 39, 0
1, 34400, Note_on_c, 0, 51, 0
1, 34400, Note_on_c, 0, 58, 29
1, 34400, Note_on_c, 0, 46, 24
1, 34560, Tempo, 442804
1, 34560, Note_on_c, 0, 46, 0
1, 34560, Note_on_c, 0, 58, 0
1, 34560, Note_on_c, 0, 51, 36
1, 34560, Note_on_c, 0, 27, 31
1, 34566, Control_c, 0, 64, 0
1, 34880, Control_c, 0, 64, 127
1, 35040, Note_on_c, 0, 27, 0
1, 35040, Note_on_c, 0, 51, 0
1, 35227, Control_c, 0, 64, 0
1, 36480, Tempo, 461538
1, 36480, End_track
0, 0, End_of_file
