0, 0, Header, 0, 1, 480
1, 0, Start_track
1, 0, Title_t, "Chopin Prelude  No. 21, Opus 28"
1, 0, Copyright_t, "Copyright © 2002 by Bernd Krueger "
1, 0, Text_t, "Frederic Chopin"
1, 0, Text_t, "Cantabile"
1, 0, Text_t, "Fertiggestellt am 1.12..2002\012"
1, 0, Text_t, "Normierung: 23.12.2002\012"
1, 0, Text_t, "Update am 21.7.2003\012"
1, 0, Text_t, "Update am 26.10.2010\012"
1, 0, Text_t, "Update am 22.2.2014\012"
1, 0, Text_t, "Dauer: 1:49 Minuten\012"
1, 0, SMPTE_offset, 96, 0, 3, 0, 0
1, 0, Time_signature, 3, 2, 24, 8
1, 0, Key_signature, -2, "major"
1, 0, Tempo, 710059
1, 0, Program_c, 0, 0
1, 0, Control_c, 0, 7, 100
1, 0, Control_c, 0, 10, 64
1, 0, Note_on_c, 0, 77, 52
1, 0, Control_c, 0, 64, 0
1, 0, Text_t, "bdca426d104a26ac9dcb070447587523"
1, 0, Control_c, 0, 91, 127
1, 0, Program_c, 0, 0
1, 0, Control_c, 0, 7, 100
1, 0, Control_c, 0, 10, 64
1, 0, Note_on_c, 0, 34, 50
1, 103, Control_c, 0, 64, 127
1, 240, Tempo, 600000
1, 240, Note_on_c, 0, 34, 0
1, 240, Note_on_c, 0, 53, 40
1, 400, Tempo, 583431
1, 440, Tempo, 574163
1, 480, Note_on_c, 0, 53, 0
1, 480, Note_on_c, 0, 52, 32
1, 480, Note_on_c, 0, 55, 40
1, 494, Control_c, 0, 64, 0
1, 520, Tempo, 571157
1, 600, Tempo, 568128
1, 629, Control_c, 0, 64, 127
1, 640, Tempo, 565185
1, 720, Tempo, 562272
1, 720, Note_on_c, 0, 55, 0
1, 720, Note_on_c, 0, 52, 0
1, 720, Note_on_c, 0, 51, 32
1, 720, Note_on_c, 0, 57, 41
1, 760, Tempo, 559336
1, 840, Tempo, 556483
1, 920, Tempo, 553659
1, 960, Tempo, 576923
1, 960, Note_on_c, 0, 57, 0
1, 960, Note_on_c, 0, 51, 0
1, 960, Note_on_c, 0, 50, 35
1, 960, Note_on_c, 0, 58, 44
1, 968, Control_c, 0, 64, 0
1, 1097, Control_c, 0, 64, 127
1, 1200, Tempo, 594059
1, 1200, Note_on_c, 0, 58, 0
1, 1200, Note_on_c, 0, 50, 0
1, 1200, Note_on_c, 0, 48, 35
1, 1200, Note_on_c, 0, 60, 45
1, 1440, Tempo, 666667
1, 1440, Note_on_c, 0, 60, 0
1, 1440, Note_on_c, 0, 48, 0
1, 1440, Note_on_c, 0, 77, 0
1, 1440, Note_on_c, 0, 74, 52
1, 1440, Note_on_c, 0, 46, 50
1, 1450, Control_c, 0, 64, 0
1, 1518, Control_c, 0, 64, 127
1, 1680, Tempo, 574163
1, 1680, Note_on_c, 0, 46, 0
1, 1680, Note_on_c, 0, 53, 28
1, 1680, Note_on_c, 0, 62, 36
1, 1760, Tempo, 571157
1, 1840, Tempo, 568128
1, 1920, Tempo, 565185
1, 1920, Note_on_c, 0, 62, 0
1, 1920, Note_on_c, 0, 53, 0
1, 1920, Note_on_c, 0, 52, 35
1, 1920, Note_on_c, 0, 55, 44
1, 1934, Control_c, 0, 64, 0
1, 2000, Tempo, 562272
1, 2005, Control_c, 0, 64, 127
1, 2080, Tempo, 559336
1, 2160, Tempo, 556483
1, 2160, Note_on_c, 0, 55, 0
1, 2160, Note_on_c, 0, 52, 0
1, 2160, Note_on_c, 0, 51, 37
1, 2160, Note_on_c, 0, 57, 47
1, 2320, Note_on_c, 0, 74, 0
1, 2320, Note_on_c, 0, 77, 53
1, 2400, Tempo, 576923
1, 2400, Note_on_c, 0, 57, 0
1, 2400, Note_on_c, 0, 51, 0
1, 2400, Note_on_c, 0, 75, 59
1, 2400, Note_on_c, 0, 50, 40
1, 2400, Note_on_c, 0, 58, 50
1, 2409, Control_c, 0, 64, 0
1, 2420, Note_on_c, 0, 77, 0
1, 2478, Control_c, 0, 64, 127
1, 2640, Tempo, 628272
1, 2640, Note_on_c, 0, 58, 0
1, 2640, Note_on_c, 0, 50, 0
1, 2640, Note_on_c, 0, 46, 40
1, 2880, Tempo, 609137
1, 2880, Note_on_c, 0, 46, 0
1, 2880, Note_on_c, 0, 75, 0
1, 2880, Note_on_c, 0, 74, 55
1, 2880, Note_on_c, 0, 39, 50
1, 2887, Control_c, 0, 64, 0
1, 3017, Control_c, 0, 64, 127
1, 3120, Tempo, 580271
1, 3120, Note_on_c, 0, 39, 0
1, 3120, Note_on_c, 0, 55, 39
1, 3200, Tempo, 577201
1, 3280, Tempo, 574163
1, 3360, Tempo, 571157
1, 3360, Note_on_c, 0, 55, 0
1, 3360, Note_on_c, 0, 57, 40
1, 3360, Note_on_c, 0, 54, 32
1, 3374, Control_c, 0, 64, 0
1, 3440, Tempo, 568128
1, 3497, Control_c, 0, 64, 127
1, 3520, Tempo, 565185
1, 3600, Tempo, 562272
1, 3600, Note_on_c, 0, 54, 0
1, 3600, Note_on_c, 0, 57, 0
1, 3600, Note_on_c, 0, 53, 31
1, 3600, Note_on_c, 0, 59, 39
1, 3640, Tempo, 559336
1, 3720, Tempo, 556483
1, 3800, Tempo, 553659
1, 3840, Tempo, 582524
1, 3840, Note_on_c, 0, 59, 0
1, 3840, Note_on_c, 0, 53, 0
1, 3840, Note_on_c, 0, 51, 35
1, 3840, Note_on_c, 0, 60, 44
1, 3850, Control_c, 0, 64, 0
1, 4000, Control_c, 0, 64, 127
1, 4080, Tempo, 597015
1, 4080, Note_on_c, 0, 60, 0
1, 4080, Note_on_c, 0, 51, 0
1, 4080, Note_on_c, 0, 50, 36
1, 4080, Note_on_c, 0, 62, 47
1, 4320, Tempo, 631579
1, 4320, Note_on_c, 0, 62, 0
1, 4320, Note_on_c, 0, 50, 0
1, 4320, Note_on_c, 0, 74, 0
1, 4320, Note_on_c, 0, 67, 52
1, 4320, Note_on_c, 0, 48, 50
1, 4331, Control_c, 0, 64, 0
1, 4457, Control_c, 0, 64, 127
1, 4560, Tempo, 577201
1, 4560, Note_on_c, 0, 48, 0
1, 4560, Note_on_c, 0, 63, 41
1, 4560, Note_on_c, 0, 55, 32
1, 4680, Tempo, 574163
1, 4800, Tempo, 571157
1, 4800, Note_on_c, 0, 55, 0
1, 4800, Note_on_c, 0, 63, 0
1, 4800, Note_on_c, 0, 54, 35
1, 4800, Note_on_c, 0, 57, 44
1, 4819, Control_c, 0, 64, 0
1, 4914, Control_c, 0, 64, 127
1, 4920, Tempo, 568128
1, 5040, Tempo, 565185
1, 5040, Note_on_c, 0, 57, 0
1, 5040, Note_on_c, 0, 54, 0
1, 5040, Note_on_c, 0, 53, 37
1, 5040, Note_on_c, 0, 59, 47
1, 5160, Tempo, 562272
1, 5280, Tempo, 559336
1, 5280, Note_on_c, 0, 59, 0
1, 5280, Note_on_c, 0, 53, 0
1, 5280, Note_on_c, 0, 67, 0
1, 5280, Note_on_c, 0, 51, 40
1, 5280, Note_on_c, 0, 60, 50
1, 5296, Control_c, 0, 64, 0
1, 5400, Tempo, 556483
1, 5406, Control_c, 0, 64, 127
1, 5520, Tempo, 589739
1, 5520, Note_on_c, 0, 60, 0
1, 5520, Note_on_c, 0, 51, 0
1, 5520, Note_on_c, 0, 63, 52
1, 5520, Note_on_c, 0, 48, 41
1, 5760, Tempo, 638298
1, 5760, Note_on_c, 0, 48, 0
1, 5760, Note_on_c, 0, 63, 0
1, 5760, Note_on_c, 0, 69, 57
1, 5760, Note_on_c, 0, 41, 50
1, 5767, Control_c, 0, 64, 0
1, 5920, Control_c, 0, 64, 127
1, 6000, Tempo, 577201
1, 6000, Note_on_c, 0, 41, 0
1, 6000, Note_on_c, 0, 66, 42
1, 6000, Note_on_c, 0, 58, 33
1, 6120, Tempo, 574163
1, 6200, Tempo, 571157
1, 6240, Note_on_c, 0, 58, 0
1, 6240, Note_on_c, 0, 66, 0
1, 6240, Note_on_c, 0, 69, 0
1, 6240, Note_on_c, 0, 75, 58
1, 6240, Note_on_c, 0, 65, 43
1, 6240, Note_on_c, 0, 57, 34
1, 6254, Control_c, 0, 64, 0
1, 6280, Tempo, 568128
1, 6377, Control_c, 0, 64, 127
1, 6400, Tempo, 565185
1, 6480, Tempo, 562272
1, 6480, Note_on_c, 0, 57, 0
1, 6480, Note_on_c, 0, 65, 0
1, 6480, Note_on_c, 0, 56, 31
1, 6480, Note_on_c, 0, 60, 39
1, 6560, Tempo, 559336
1, 6680, Tempo, 556483
1, 6720, Tempo, 579710
1, 6720, Note_on_c, 0, 60, 0
1, 6720, Note_on_c, 0, 56, 0
1, 6720, Note_on_c, 0, 75, 0
1, 6720, Note_on_c, 0, 75, 56
1, 6720, Note_on_c, 0, 63, 40
1, 6720, Note_on_c, 0, 55, 32
1, 6728, Control_c, 0, 64, 0
1, 6869, Control_c, 0, 64, 127
1, 6960, Tempo, 594059
1, 6960, Note_on_c, 0, 55, 0
1, 6960, Note_on_c, 0, 63, 0
1, 6960, Note_on_c, 0, 58, 37
1, 6960, Note_on_c, 0, 54, 29
1, 7200, Tempo, 618557
1, 7200, Note_on_c, 0, 54, 0
1, 7200, Note_on_c, 0, 58, 0
1, 7200, Note_on_c, 0, 75, 0
1, 7200, Note_on_c, 0, 75, 58
1, 7200, Note_on_c, 0, 41, 50
1, 7208, Control_c, 0, 64, 0
1, 7292, Control_c, 0, 64, 127
1, 7440, Tempo, 628272
1, 7440, Note_on_c, 0, 41, 0
1, 7440, Note_on_c, 0, 63, 41
1, 7440, Note_on_c, 0, 54, 32
1, 7560, Tempo, 645161
1, 7560, Note_on_c, 0, 75, 49
1, 7600, Note_on_c, 0, 77, 51
1, 7620, Note_on_c, 0, 75, 0
1, 7620, Note_on_c, 0, 75, 0
1, 7640, Note_on_c, 0, 75, 54
1, 7660, Note_on_c, 0, 77, 0
1, 7680, Tempo, 571429
1, 7680, Note_on_c, 0, 63, 0
1, 7680, Note_on_c, 0, 54, 0
1, 7680, Note_on_c, 0, 74, 55
1, 7680, Note_on_c, 0, 62, 45
1, 7680, Note_on_c, 0, 53, 36
1, 7690, Control_c, 0, 64, 0
1, 7700, Note_on_c, 0, 75, 0
1, 7734, Control_c, 0, 64, 127
1, 7880, Tempo, 568720
1, 7920, Note_on_c, 0, 53, 0
1, 7920, Note_on_c, 0, 62, 0
1, 7920, Note_on_c, 0, 52, 31
1, 7920, Note_on_c, 0, 55, 39
1, 8080, Tempo, 566038
1, 8120, Tempo, 550863
1, 8160, Tempo, 576923
1, 8160, Note_on_c, 0, 55, 0
1, 8160, Note_on_c, 0, 52, 0
1, 8160, Note_on_c, 0, 74, 0
1, 8160, Note_on_c, 0, 75, 56
1, 8160, Note_on_c, 0, 51, 31
1, 8160, Note_on_c, 0, 57, 39
1, 8173, Control_c, 0, 64, 0
1, 8277, Control_c, 0, 64, 127
1, 8400, Tempo, 603015
1, 8400, Note_on_c, 0, 57, 0
1, 8400, Note_on_c, 0, 51, 0
1, 8400, Note_on_c, 0, 53, 36
1, 8640, Tempo, 652174
1, 8640, Note_on_c, 0, 53, 0
1, 8640, Note_on_c, 0, 75, 0
1, 8640, Note_on_c, 0, 79, 57
1, 8640, Note_on_c, 0, 46, 50
1, 8647, Control_c, 0, 64, 0
1, 8739, Control_c, 0, 64, 127
1, 8840, Tempo, 571157
1, 8880, Note_on_c, 0, 46, 0
1, 8880, Note_on_c, 0, 53, 41
1, 8920, Tempo, 568128
1, 9000, Tempo, 565185
1, 9040, Tempo, 562272
1, 9120, Tempo, 559336
1, 9120, Note_on_c, 0, 53, 0
1, 9120, Note_on_c, 0, 52, 32
1, 9120, Note_on_c, 0, 55, 41
1, 9130, Control_c, 0, 64, 0
1, 9198, Control_c, 0, 64, 127
1, 9200, Tempo, 556483
1, 9240, Tempo, 553659
1, 9320, Tempo, 550863
1, 9360, Note_on_c, 0, 55, 0
1, 9360, Note_on_c, 0, 52, 0
1, 9360, Note_on_c, 0, 51, 28
1, 9360, Note_on_c, 0, 57, 36
1, 9400, Tempo, 548045
1, 9440, Tempo, 545306
1, 9520, Tempo, 542594
1, 9560, Tempo, 539860
1, 9600, Tempo, 571429
1, 9600, Note_on_c, 0, 57, 0
1, 9600, Note_on_c, 0, 51, 0
1, 9600, Note_on_c, 0, 50, 32
1, 9600, Note_on_c, 0, 58, 41
1, 9609, Control_c, 0, 64, 0
1, 9699, Control_c, 0, 64, 127
1, 9840, Tempo, 618557
1, 9840, Note_on_c, 0, 58, 0
1, 9840, Note_on_c, 0, 50, 0
1, 9840, Note_on_c, 0, 48, 28
1, 9840, Note_on_c, 0, 60, 36
1, 9960, Note_on_c, 0, 79, 0
1, 9960, Note_on_c, 0, 77, 48
1, 10080, Tempo, 670391
1, 10080, Note_on_c, 0, 77, 0
1, 10080, Note_on_c, 0, 60, 0
1, 10080, Note_on_c, 0, 48, 0
1, 10080, Note_on_c, 0, 74, 52
1, 10080, Note_on_c, 0, 46, 50
1, 10090, Control_c, 0, 64, 0
1, 10206, Control_c, 0, 64, 127
1, 10320, Tempo, 566038
1, 10320, Note_on_c, 0, 46, 0
1, 10320, Note_on_c, 0, 53, 28
1, 10320, Note_on_c, 0, 62, 36
1, 10560, Note_on_c, 0, 62, 0
1, 10560, Note_on_c, 0, 53, 0
1, 10560, Note_on_c, 0, 52, 32
1, 10560, Note_on_c, 0, 55, 41
1, 10570, Control_c, 0, 64, 0
1, 10680, Tempo, 563380
1, 10709, Control_c, 0, 64, 127
1, 10800, Note_on_c, 0, 55, 0
1, 10800, Note_on_c, 0, 52, 0
1, 10800, Note_on_c, 0, 51, 28
1, 10800, Note_on_c, 0, 57, 36
1, 11000, Tempo, 560748
1, 11040, Tempo, 562272
1, 11040, Note_on_c, 0, 57, 0
1, 11040, Note_on_c, 0, 51, 0
1, 11040, Note_on_c, 0, 74, 0
1, 11040, Note_on_c, 0, 50, 32
1, 11040, Note_on_c, 0, 58, 41
1, 11052, Control_c, 0, 64, 0
1, 11155, Control_c, 0, 64, 127
1, 11280, Tempo, 615385
1, 11280, Note_on_c, 0, 58, 0
1, 11280, Note_on_c, 0, 50, 0
1, 11280, Note_on_c, 0, 48, 29
1, 11280, Note_on_c, 0, 60, 37
1, 11520, Tempo, 638298
1, 11520, Note_on_c, 0, 60, 0
1, 11520, Note_on_c, 0, 48, 0
1, 11520, Note_on_c, 0, 82, 70
1, 11520, Note_on_c, 0, 43, 50
1, 11527, Control_c, 0, 64, 0
1, 11680, Control_c, 0, 64, 127
1, 11760, Tempo, 574163
1, 11760, Note_on_c, 0, 43, 0
1, 11760, Note_on_c, 0, 62, 42
1, 11840, Tempo, 571157
1, 11920, Tempo, 568128
1, 12000, Tempo, 565185
1, 12000, Note_on_c, 0, 62, 0
1, 12000, Note_on_c, 0, 61, 33
1, 12000, Note_on_c, 0, 64, 42
1, 12016, Control_c, 0, 64, 0
1, 12080, Tempo, 562272
1, 12103, Control_c, 0, 64, 127
1, 12120, Tempo, 559336
1, 12200, Tempo, 556483
1, 12240, Note_on_c, 0, 64, 0
1, 12240, Note_on_c, 0, 61, 0
1, 12240, Note_on_c, 0, 60, 33
1, 12240, Note_on_c, 0, 66, 43
1, 12280, Tempo, 553659
1, 12360, Tempo, 550863
1, 12440, Tempo, 548045
1, 12480, Tempo, 574163
1, 12480, Note_on_c, 0, 66, 0
1, 12480, Note_on_c, 0, 60, 0
1, 12480, Note_on_c, 0, 58, 36
1, 12480, Note_on_c, 0, 67, 46
1, 12490, Control_c, 0, 64, 0
1, 12583, Control_c, 0, 64, 127
1, 12720, Tempo, 615385
1, 12720, Note_on_c, 0, 67, 0
1, 12720, Note_on_c, 0, 58, 0
1, 12720, Note_on_c, 0, 57, 37
1, 12720, Note_on_c, 0, 69, 48
1, 12960, Tempo, 655738
1, 12960, Note_on_c, 0, 69, 0
1, 12960, Note_on_c, 0, 57, 0
1, 12960, Note_on_c, 0, 82, 0
1, 12960, Note_on_c, 0, 70, 61
1, 12960, Note_on_c, 0, 46, 50
1, 12968, Control_c, 0, 64, 0
1, 13073, Control_c, 0, 64, 127
1, 13200, Tempo, 574163
1, 13200, Note_on_c, 0, 46, 0
1, 13200, Note_on_c, 0, 58, 40
1, 13280, Tempo, 571157
1, 13360, Tempo, 568128
1, 13440, Tempo, 565185
1, 13440, Note_on_c, 0, 58, 0
1, 13440, Note_on_c, 0, 57, 32
1, 13440, Note_on_c, 0, 60, 40
1, 13456, Control_c, 0, 64, 0
1, 13520, Tempo, 562272
1, 13560, Tempo, 559336
1, 13574, Control_c, 0, 64, 127
1, 13640, Tempo, 556483
1, 13680, Note_on_c, 0, 60, 0
1, 13680, Note_on_c, 0, 57, 0
1, 13680, Note_on_c, 0, 56, 32
1, 13680, Note_on_c, 0, 62, 41
1, 13720, Tempo, 553659
1, 13800, Tempo, 550863
1, 13880, Tempo, 548045
1, 13920, Tempo, 571429
1, 13920, Note_on_c, 0, 62, 0
1, 13920, Note_on_c, 0, 56, 0
1, 13920, Note_on_c, 0, 55, 35
1, 13920, Note_on_c, 0, 63, 44
1, 13928, Control_c, 0, 64, 0
1, 13991, Control_c, 0, 64, 127
1, 14160, Tempo, 615385
1, 14160, Note_on_c, 0, 63, 0
1, 14160, Note_on_c, 0, 55, 0
1, 14160, Note_on_c, 0, 53, 38
1, 14160, Note_on_c, 0, 65, 48
1, 14280, Tempo, 670391
1, 14280, Note_on_c, 0, 70, 0
1, 14280, Note_on_c, 0, 70, 54
1, 14400, Tempo, 655738
1, 14400, Note_on_c, 0, 70, 0
1, 14400, Note_on_c, 0, 65, 0
1, 14400, Note_on_c, 0, 53, 0
1, 14400, Note_on_c, 0, 79, 66
1, 14400, Control_c, 0, 64, 0
1, 14400, Note_on_c, 0, 39, 50
1, 14503, Control_c, 0, 64, 127
1, 14640, Tempo, 574163
1, 14640, Note_on_c, 0, 39, 0
1, 14640, Note_on_c, 0, 55, 40
1, 14720, Tempo, 571157
1, 14800, Tempo, 568128
1, 14880, Tempo, 565185
1, 14880, Note_on_c, 0, 55, 0
1, 14880, Note_on_c, 0, 54, 32
1, 14880, Note_on_c, 0, 57, 40
1, 14892, Control_c, 0, 64, 0
1, 14960, Tempo, 562272
1, 14983, Control_c, 0, 64, 127
1, 15000, Tempo, 559336
1, 15080, Tempo, 556483
1, 15120, Note_on_c, 0, 57, 0
1, 15120, Note_on_c, 0, 54, 0
1, 15120, Note_on_c, 0, 53, 32
1, 15120, Note_on_c, 0, 59, 41
1, 15160, Tempo, 553659
1, 15240, Tempo, 550863
1, 15320, Tempo, 548045
1, 15360, Tempo, 562272
1, 15360, Note_on_c, 0, 59, 0
1, 15360, Note_on_c, 0, 53, 0
1, 15360, Note_on_c, 0, 51, 35
1, 15360, Note_on_c, 0, 60, 44
1, 15370, Control_c, 0, 64, 0
1, 15475, Control_c, 0, 64, 127
1, 15600, Tempo, 600000
1, 15600, Note_on_c, 0, 60, 0
1, 15600, Note_on_c, 0, 51, 0
1, 15600, Note_on_c, 0, 50, 36
1, 15600, Note_on_c, 0, 62, 46
1, 15840, Tempo, 609137
1, 15840, Note_on_c, 0, 62, 0
1, 15840, Note_on_c, 0, 50, 0
1, 15840, Note_on_c, 0, 79, 0
1, 15840, Note_on_c, 0, 67, 60
1, 15840, Control_c, 0, 64, 0
1, 15840, Note_on_c, 0, 48, 50
1, 15931, Control_c, 0, 64, 127
1, 16074, Note_on_c, 0, 67, 0
1, 16080, Tempo, 625000
1, 16080, Note_on_c, 0, 48, 0
1, 16080, Note_on_c, 0, 67, 49
1, 16080, Note_on_c, 0, 55, 32
1, 16080, Note_on_c, 0, 63, 40
1, 16128, Note_on_c, 0, 67, 0
1, 16128, Note_on_c, 0, 69, 49
1, 16176, Note_on_c, 0, 69, 0
1, 16176, Note_on_c, 0, 67, 49
1, 16224, Note_on_c, 0, 67, 0
1, 16224, Note_on_c, 0, 66, 49
1, 16260, Tempo, 689655
1, 16272, Note_on_c, 0, 66, 0
1, 16272, Note_on_c, 0, 67, 51
1, 16320, Tempo, 582524
1, 16320, Note_on_c, 0, 67, 0
1, 16320, Note_on_c, 0, 63, 0
1, 16320, Note_on_c, 0, 55, 0
1, 16320, Note_on_c, 0, 75, 57
1, 16320, Note_on_c, 0, 54, 32
1, 16320, Note_on_c, 0, 57, 40
1, 16328, Control_c, 0, 64, 0
1, 16440, Tempo, 579710
1, 16457, Control_c, 0, 64, 127
1, 16520, Tempo, 576923
1, 16560, Note_on_c, 0, 57, 0
1, 16560, Note_on_c, 0, 54, 0
1, 16560, Note_on_c, 0, 53, 32
1, 16560, Note_on_c, 0, 59, 41
1, 16600, Tempo, 574163
1, 16680, Tempo, 571429
1, 16760, Tempo, 568720
1, 16800, Tempo, 591133
1, 16800, Note_on_c, 0, 59, 0
1, 16800, Note_on_c, 0, 53, 0
1, 16800, Note_on_c, 0, 75, 0
1, 16800, Note_on_c, 0, 72, 55
1, 16800, Note_on_c, 0, 51, 35
1, 16800, Note_on_c, 0, 60, 44
1, 16809, Control_c, 0, 64, 0
1, 16846, Control_c, 0, 64, 127
1, 17040, Tempo, 615385
1, 17040, Note_on_c, 0, 60, 0
1, 17040, Note_on_c, 0, 51, 0
1, 17040, Note_on_c, 0, 48, 35
1, 17040, Note_on_c, 0, 63, 45
1, 17280, Tempo, 674157
1, 17280, Note_on_c, 0, 63, 0
1, 17280, Note_on_c, 0, 48, 0
1, 17280, Note_on_c, 0, 72, 0
1, 17280, Note_on_c, 0, 69, 55
1, 17280, Note_on_c, 0, 41, 50
1, 17288, Control_c, 0, 64, 0
1, 17371, Control_c, 0, 64, 127
1, 17520, Tempo, 571157
1, 17520, Note_on_c, 0, 41, 0
1, 17520, Note_on_c, 0, 69, 0
1, 17520, Note_on_c, 0, 77, 50
1, 17520, Note_on_c, 0, 86, 63
1, 17520, Note_on_c, 0, 74, 50
1, 17520, Note_on_c, 0, 65, 40
1, 17600, Tempo, 568128
1, 17680, Tempo, 565185
1, 17760, Tempo, 562272
1, 17760, Note_on_c, 0, 65, 0
1, 17760, Note_on_c, 0, 77, 0
1, 17760, Note_on_c, 0, 86, 0
1, 17760, Note_on_c, 0, 74, 0
1, 17760, Note_on_c, 0, 79, 60
1, 17760, Note_on_c, 0, 76, 48
1, 17760, Note_on_c, 0, 67, 48
1, 17760, Note_on_c, 0, 64, 38
1, 17771, Control_c, 0, 64, 0
1, 17840, Tempo, 559336
1, 17880, Tempo, 556483
1, 17886, Control_c, 0, 64, 127
1, 17960, Tempo, 553659
1, 18000, Note_on_c, 0, 64, 0
1, 18000, Note_on_c, 0, 79, 0
1, 18000, Note_on_c, 0, 76, 0
1, 18000, Note_on_c, 0, 67, 0
1, 18000, Note_on_c, 0, 81, 58
1, 18000, Note_on_c, 0, 75, 46
1, 18000, Note_on_c, 0, 69, 46
1, 18000, Note_on_c, 0, 63, 36
1, 18040, Tempo, 550863
1, 18120, Tempo, 548045
1, 18200, Tempo, 545306
1, 18240, Tempo, 553659
1, 18240, Note_on_c, 0, 63, 0
1, 18240, Note_on_c, 0, 81, 0
1, 18240, Note_on_c, 0, 75, 0
1, 18240, Note_on_c, 0, 69, 0
1, 18240, Note_on_c, 0, 74, 44
1, 18240, Note_on_c, 0, 82, 55
1, 18240, Note_on_c, 0, 62, 35
1, 18240, Note_on_c, 0, 70, 44
1, 18252, Control_c, 0, 64, 0
1, 18389, Control_c, 0, 64, 127
1, 18480, Tempo, 583431
1, 18480, Note_on_c, 0, 70, 0
1, 18480, Note_on_c, 0, 74, 0
1, 18480, Note_on_c, 0, 82, 0
1, 18480, Note_on_c, 0, 62, 0
1, 18480, Note_on_c, 0, 73, 41
1, 18480, Note_on_c, 0, 77, 52
1, 18480, Note_on_c, 0, 65, 41
1, 18480, Note_on_c, 0, 61, 32
1, 18720, Note_on_c, 0, 61, 0
1, 18720, Note_on_c, 0, 73, 0
1, 18720, Note_on_c, 0, 77, 0
1, 18720, Note_on_c, 0, 65, 0
1, 18720, Note_on_c, 0, 80, 60
1, 18720, Note_on_c, 0, 72, 48
1, 18720, Note_on_c, 0, 60, 38
1, 18720, Note_on_c, 0, 68, 48
1, 18735, Control_c, 0, 64, 0
1, 18857, Control_c, 0, 64, 127
1, 18960, Tempo, 571157
1, 18960, Note_on_c, 0, 68, 0
1, 18960, Note_on_c, 0, 80, 0
1, 18960, Note_on_c, 0, 72, 0
1, 18960, Note_on_c, 0, 60, 0
1, 18960, Note_on_c, 0, 70, 46
1, 18960, Note_on_c, 0, 78, 58
1, 18960, Note_on_c, 0, 66, 46
1, 18960, Note_on_c, 0, 58, 36
1, 19040, Tempo, 568128
1, 19120, Tempo, 565185
1, 19200, Tempo, 562272
1, 19200, Note_on_c, 0, 58, 0
1, 19200, Note_on_c, 0, 70, 0
1, 19200, Note_on_c, 0, 78, 0
1, 19200, Note_on_c, 0, 66, 0
1, 19200, Note_on_c, 0, 72, 57
1, 19200, Note_on_c, 0, 69, 45
1, 19200, Note_on_c, 0, 57, 36
1, 19200, Note_on_c, 0, 60, 45
1, 19208, Control_c, 0, 64, 0
1, 19280, Tempo, 559336
1, 19291, Control_c, 0, 64, 127
1, 19360, Tempo, 556483
1, 19440, Tempo, 553659
1, 19440, Note_on_c, 0, 60, 0
1, 19440, Note_on_c, 0, 72, 0
1, 19440, Note_on_c, 0, 69, 0
1, 19440, Note_on_c, 0, 57, 0
1, 19440, Note_on_c, 0, 68, 43
1, 19440, Note_on_c, 0, 74, 55
1, 19440, Note_on_c, 0, 56, 34
1, 19440, Note_on_c, 0, 62, 44
1, 19520, Tempo, 550863
1, 19600, Tempo, 548045
1, 19680, Tempo, 565185
1, 19680, Note_on_c, 0, 62, 0
1, 19680, Note_on_c, 0, 68, 0
1, 19680, Note_on_c, 0, 74, 0
1, 19680, Note_on_c, 0, 56, 0
1, 19680, Note_on_c, 0, 67, 42
1, 19680, Note_on_c, 0, 75, 54
1, 19680, Note_on_c, 0, 63, 43
1, 19680, Note_on_c, 0, 55, 33
1, 19688, Control_c, 0, 64, 0
1, 19817, Control_c, 0, 64, 127
1, 19920, Tempo, 641711
1, 19920, Note_on_c, 0, 55, 0
1, 19920, Note_on_c, 0, 67, 0
1, 19920, Note_on_c, 0, 75, 0
1, 19920, Note_on_c, 0, 63, 0
1, 19920, Note_on_c, 0, 70, 52
1, 19920, Note_on_c, 0, 66, 41
1, 19920, Note_on_c, 0, 54, 32
1, 19920, Note_on_c, 0, 58, 41
1, 20160, Tempo, 618557
1, 20160, Note_on_c, 0, 58, 0
1, 20160, Note_on_c, 0, 70, 0
1, 20160, Note_on_c, 0, 66, 0
1, 20160, Note_on_c, 0, 54, 0
1, 20160, Control_c, 0, 64, 0
1, 20160, Note_on_c, 0, 46, 50
1, 20286, Control_c, 0, 64, 127
1, 20400, Tempo, 580271
1, 20400, Note_on_c, 0, 46, 0
1, 20400, Note_on_c, 0, 65, 43
1, 20400, Note_on_c, 0, 74, 55
1, 20400, Note_on_c, 0, 53, 34
1, 20400, Note_on_c, 0, 62, 43
1, 20480, Tempo, 577201
1, 20560, Tempo, 574163
1, 20640, Tempo, 571157
1, 20640, Note_on_c, 0, 62, 0
1, 20640, Note_on_c, 0, 65, 0
1, 20640, Note_on_c, 0, 74, 0
1, 20640, Note_on_c, 0, 53, 0
1, 20640, Note_on_c, 0, 67, 54
1, 20640, Note_on_c, 0, 64, 43
1, 20640, Note_on_c, 0, 52, 34
1, 20640, Note_on_c, 0, 55, 43
1, 20649, Control_c, 0, 64, 0
1, 20720, Tempo, 568128
1, 20754, Control_c, 0, 64, 127
1, 20800, Tempo, 565185
1, 20880, Tempo, 562272
1, 20880, Note_on_c, 0, 55, 0
1, 20880, Note_on_c, 0, 67, 0
1, 20880, Note_on_c, 0, 64, 0
1, 20880, Note_on_c, 0, 52, 0
1, 20880, Note_on_c, 0, 63, 41
1, 20880, Note_on_c, 0, 69, 52
1, 20880, Note_on_c, 0, 51, 32
1, 20880, Note_on_c, 0, 57, 41
1, 21120, Tempo, 585366
1, 21120, Note_on_c, 0, 57, 0
1, 21120, Note_on_c, 0, 63, 0
1, 21120, Note_on_c, 0, 69, 0
1, 21120, Note_on_c, 0, 51, 0
1, 21120, Note_on_c, 0, 62, 40
1, 21120, Note_on_c, 0, 70, 50
1, 21120, Note_on_c, 0, 50, 32
1, 21120, Note_on_c, 0, 58, 40
1, 21126, Control_c, 0, 64, 0
1, 21223, Control_c, 0, 64, 127
1, 21360, Tempo, 621762
1, 21360, Note_on_c, 0, 58, 0
1, 21360, Note_on_c, 0, 62, 0
1, 21360, Note_on_c, 0, 70, 0
1, 21360, Note_on_c, 0, 50, 0
1, 21360, Note_on_c, 0, 65, 47
1, 21360, Note_on_c, 0, 53, 37
1, 21600, Tempo, 583431
1, 21600, Note_on_c, 0, 53, 0
1, 21600, Note_on_c, 0, 65, 0
1, 21600, Note_on_c, 0, 58, 51
1, 21600, Note_on_c, 0, 46, 50
1, 21616, Control_c, 0, 64, 0
1, 21715, Control_c, 0, 64, 127
1, 21800, Tempo, 582524
1, 21840, Note_on_c, 0, 46, 0
1, 21840, Note_on_c, 0, 58, 0
1, 21840, Note_on_c, 0, 53, 35
1, 21840, Note_on_c, 0, 62, 44
1, 22000, Tempo, 579710
1, 22080, Note_on_c, 0, 62, 0
1, 22080, Note_on_c, 0, 53, 0
1, 22080, Note_on_c, 0, 52, 32
1, 22080, Note_on_c, 0, 55, 41
1, 22098, Control_c, 0, 64, 0
1, 22200, Tempo, 576923
1, 22206, Control_c, 0, 64, 127
1, 22320, Note_on_c, 0, 55, 0
1, 22320, Note_on_c, 0, 52, 0
1, 22320, Note_on_c, 0, 51, 30
1, 22320, Note_on_c, 0, 57, 38
1, 22400, Tempo, 574163
1, 22560, Tempo, 585366
1, 22560, Note_on_c, 0, 57, 0
1, 22560, Note_on_c, 0, 51, 0
1, 22560, Note_on_c, 0, 50, 29
1, 22560, Note_on_c, 0, 58, 36
1, 22567, Control_c, 0, 64, 0
1, 22675, Control_c, 0, 64, 127
1, 22800, Tempo, 634921
1, 22800, Note_on_c, 0, 58, 0
1, 22800, Note_on_c, 0, 50, 0
1, 22800, Note_on_c, 0, 46, 32
1, 23040, Tempo, 572301
1, 23040, Note_on_c, 0, 46, 0
1, 23040, Note_on_c, 0, 70, 77
1, 23040, Note_on_c, 0, 73, 77
1, 23040, Note_on_c, 0, 82, 90
1, 23040, Note_on_c, 0, 30, 64
1, 23054, Control_c, 0, 64, 0
1, 23080, Tempo, 626305
1, 23177, Control_c, 0, 64, 127
1, 23280, Tempo, 587717
1, 23280, Note_on_c, 0, 30, 0
1, 23280, Note_on_c, 0, 49, 41
1, 23280, Note_on_c, 0, 58, 49
1, 23520, Tempo, 575650
1, 23520, Note_on_c, 0, 58, 0
1, 23520, Note_on_c, 0, 49, 0
1, 23520, Note_on_c, 0, 61, 53
1, 23520, Note_on_c, 0, 54, 44
1, 23760, Tempo, 583942
1, 23760, Note_on_c, 0, 54, 0
1, 23760, Note_on_c, 0, 61, 0
1, 23760, Note_on_c, 0, 63, 48
1, 23760, Note_on_c, 0, 58, 40
1, 24000, Tempo, 572301
1, 24000, Note_on_c, 0, 58, 0
1, 24000, Note_on_c, 0, 63, 0
1, 24000, Note_on_c, 0, 54, 46
1, 24000, Note_on_c, 0, 61, 55
1, 24240, Note_on_c, 0, 61, 0
1, 24240, Note_on_c, 0, 54, 0
1, 24240, Note_on_c, 0, 49, 42
1, 24240, Note_on_c, 0, 58, 50
1, 24280, Tempo, 594059
1, 24480, Tempo, 581452
1, 24480, Note_on_c, 0, 58, 0
1, 24480, Note_on_c, 0, 70, 0
1, 24480, Note_on_c, 0, 82, 0
1, 24480, Note_on_c, 0, 73, 0
1, 24480, Note_on_c, 0, 49, 0
1, 24480, Note_on_c, 0, 70, 71
1, 24480, Note_on_c, 0, 66, 71
1, 24480, Note_on_c, 0, 78, 84
1, 24480, Control_c, 0, 64, 0
1, 24480, Note_on_c, 0, 54, 44
1, 24480, Note_on_c, 0, 61, 53
1, 24594, Control_c, 0, 64, 127
1, 24720, Note_on_c, 0, 61, 0
1, 24720, Note_on_c, 0, 54, 0
1, 24720, Note_on_c, 0, 58, 41
1, 24720, Note_on_c, 0, 63, 49
1, 24960, Tempo, 572301
1, 24960, Note_on_c, 0, 63, 0
1, 24960, Note_on_c, 0, 58, 0
1, 24960, Note_on_c, 0, 61, 53
1, 24960, Note_on_c, 0, 54, 44
1, 25200, Note_on_c, 0, 54, 0
1, 25200, Note_on_c, 0, 61, 0
1, 25200, Note_on_c, 0, 58, 48
1, 25200, Note_on_c, 0, 49, 40
1, 25440, Tempo, 578369
1, 25440, Note_on_c, 0, 49, 0
1, 25440, Note_on_c, 0, 70, 0
1, 25440, Note_on_c, 0, 78, 0
1, 25440, Note_on_c, 0, 66, 0
1, 25440, Note_on_c, 0, 58, 0
1, 25440, Note_on_c, 0, 71, 66
1, 25440, Note_on_c, 0, 83, 78
1, 25440, Note_on_c, 0, 75, 66
1, 25440, Note_on_c, 0, 54, 46
1, 25440, Note_on_c, 0, 61, 55
1, 25680, Tempo, 600601
1, 25680, Note_on_c, 0, 61, 0
1, 25680, Note_on_c, 0, 54, 0
1, 25680, Note_on_c, 0, 58, 42
1, 25680, Note_on_c, 0, 63, 50
1, 25920, Tempo, 578369
1, 25920, Note_on_c, 0, 63, 0
1, 25920, Note_on_c, 0, 71, 0
1, 25920, Note_on_c, 0, 75, 0
1, 25920, Note_on_c, 0, 83, 0
1, 25920, Note_on_c, 0, 58, 0
1, 25920, Note_on_c, 0, 70, 71
1, 25920, Note_on_c, 0, 73, 71
1, 25920, Note_on_c, 0, 82, 84
1, 25920, Note_on_c, 0, 54, 44
1, 25920, Note_on_c, 0, 61, 53
1, 25932, Control_c, 0, 64, 0
1, 26057, Control_c, 0, 64, 127
1, 26160, Note_on_c, 0, 61, 0
1, 26160, Note_on_c, 0, 54, 0
1, 26160, Note_on_c, 0, 49, 41
1, 26160, Note_on_c, 0, 58, 49
1, 26400, Tempo, 572301
1, 26400, Note_on_c, 0, 58, 0
1, 26400, Note_on_c, 0, 49, 0
1, 26400, Note_on_c, 0, 61, 53
1, 26400, Note_on_c, 0, 54, 44
1, 26640, Tempo, 583942
1, 26640, Note_on_c, 0, 54, 0
1, 26640, Note_on_c, 0, 61, 0
1, 26640, Note_on_c, 0, 63, 48
1, 26640, Note_on_c, 0, 58, 40
1, 26880, Tempo, 570180
1, 26880, Note_on_c, 0, 58, 0
1, 26880, Note_on_c, 0, 63, 0
1, 26880, Note_on_c, 0, 54, 46
1, 26880, Note_on_c, 0, 61, 55
1, 27120, Note_on_c, 0, 61, 0
1, 27120, Note_on_c, 0, 54, 0
1, 27120, Note_on_c, 0, 49, 42
1, 27120, Note_on_c, 0, 58, 50
1, 27360, Tempo, 584510
1, 27360, Note_on_c, 0, 58, 0
1, 27360, Note_on_c, 0, 70, 0
1, 27360, Note_on_c, 0, 82, 0
1, 27360, Note_on_c, 0, 73, 0
1, 27360, Note_on_c, 0, 49, 0
1, 27360, Note_on_c, 0, 70, 68
1, 27360, Note_on_c, 0, 78, 80
1, 27360, Note_on_c, 0, 66, 68
1, 27360, Note_on_c, 0, 61, 53
1, 27360, Note_on_c, 0, 54, 44
1, 27370, Control_c, 0, 64, 0
1, 27509, Control_c, 0, 64, 127
1, 27600, Note_on_c, 0, 54, 0
1, 27600, Note_on_c, 0, 61, 0
1, 27600, Note_on_c, 0, 63, 49
1, 27600, Note_on_c, 0, 58, 41
1, 27840, Tempo, 572301
1, 27840, Note_on_c, 0, 58, 0
1, 27840, Note_on_c, 0, 63, 0
1, 27840, Note_on_c, 0, 61, 53
1, 27840, Note_on_c, 0, 54, 44
1, 28080, Note_on_c, 0, 54, 0
1, 28080, Note_on_c, 0, 61, 0
1, 28080, Note_on_c, 0, 58, 48
1, 28080, Note_on_c, 0, 49, 40
1, 28320, Note_on_c, 0, 49, 0
1, 28320, Note_on_c, 0, 58, 0
1, 28320, Note_on_c, 0, 54, 46
1, 28320, Note_on_c, 0, 61, 55
1, 28560, Tempo, 600601
1, 28560, Note_on_c, 0, 61, 0
1, 28560, Note_on_c, 0, 54, 0
1, 28560, Note_on_c, 0, 58, 42
1, 28560, Note_on_c, 0, 63, 50
1, 28800, Tempo, 572301
1, 28800, Note_on_c, 0, 63, 0
1, 28800, Note_on_c, 0, 70, 0
1, 28800, Note_on_c, 0, 66, 0
1, 28800, Note_on_c, 0, 78, 0
1, 28800, Note_on_c, 0, 58, 0
1, 28800, Note_on_c, 0, 73, 76
1, 28800, Note_on_c, 0, 85, 90
1, 28800, Note_on_c, 0, 82, 76
1, 28800, Note_on_c, 0, 54, 44
1, 28800, Note_on_c, 0, 61, 53
1, 28811, Control_c, 0, 64, 0
1, 28903, Control_c, 0, 64, 127
1, 29040, Tempo, 583942
1, 29040, Note_on_c, 0, 61, 0
1, 29040, Note_on_c, 0, 54, 0
1, 29040, Note_on_c, 0, 49, 41
1, 29040, Note_on_c, 0, 58, 49
1, 29280, Tempo, 570180
1, 29280, Note_on_c, 0, 58, 0
1, 29280, Note_on_c, 0, 49, 0
1, 29280, Note_on_c, 0, 61, 53
1, 29280, Note_on_c, 0, 54, 44
1, 29520, Note_on_c, 0, 54, 0
1, 29520, Note_on_c, 0, 61, 0
1, 29520, Note_on_c, 0, 58, 40
1, 29520, Note_on_c, 0, 63, 48
1, 29760, Tempo, 591133
1, 29760, Note_on_c, 0, 63, 0
1, 29760, Note_on_c, 0, 73, 0
1, 29760, Note_on_c, 0, 82, 0
1, 29760, Note_on_c, 0, 85, 0
1, 29760, Note_on_c, 0, 58, 0
1, 29760, Note_on_c, 0, 82, 87
1, 29760, Note_on_c, 0, 70, 73
1, 29760, Note_on_c, 0, 78, 73
1, 29760, Note_on_c, 0, 54, 46
1, 29760, Note_on_c, 0, 61, 55
1, 30000, Tempo, 609137
1, 30000, Note_on_c, 0, 61, 0
1, 30000, Note_on_c, 0, 54, 0
1, 30000, Note_on_c, 0, 49, 42
1, 30000, Note_on_c, 0, 58, 50
1, 30240, Tempo, 572301
1, 30240, Note_on_c, 0, 58, 0
1, 30240, Note_on_c, 0, 82, 0
1, 30240, Note_on_c, 0, 78, 0
1, 30240, Note_on_c, 0, 70, 0
1, 30240, Note_on_c, 0, 49, 0
1, 30240, Note_on_c, 0, 90, 93
1, 30240, Note_on_c, 0, 78, 78
1, 30240, Note_on_c, 0, 82, 78
1, 30240, Note_on_c, 0, 54, 44
1, 30240, Note_on_c, 0, 61, 53
1, 30249, Control_c, 0, 64, 0
1, 30332, Control_c, 0, 64, 127
1, 30480, Note_on_c, 0, 61, 0
1, 30480, Note_on_c, 0, 54, 0
1, 30480, Note_on_c, 0, 63, 49
1, 30480, Note_on_c, 0, 58, 41
1, 30720, Tempo, 582524
1, 30720, Note_on_c, 0, 58, 0
1, 30720, Note_on_c, 0, 63, 0
1, 30720, Note_on_c, 0, 61, 53
1, 30720, Note_on_c, 0, 54, 44
1, 30960, Note_on_c, 0, 54, 0
1, 30960, Note_on_c, 0, 61, 0
1, 30960, Note_on_c, 0, 58, 48
1, 30960, Note_on_c, 0, 49, 40
1, 31160, Tempo, 591133
1, 31200, Tempo, 597015
1, 31200, Note_on_c, 0, 49, 0
1, 31200, Note_on_c, 0, 90, 0
1, 31200, Note_on_c, 0, 82, 0
1, 31200, Note_on_c, 0, 78, 0
1, 31200, Note_on_c, 0, 58, 0
1, 31200, Note_on_c, 0, 85, 84
1, 31200, Note_on_c, 0, 82, 73
1, 31200, Note_on_c, 0, 73, 69
1, 31200, Note_on_c, 0, 61, 55
1, 31200, Note_on_c, 0, 54, 46
1, 31240, Tempo, 603015
1, 31280, Tempo, 609137
1, 31320, Tempo, 615385
1, 31360, Tempo, 621762
1, 31400, Tempo, 628272
1, 31440, Tempo, 634921
1, 31440, Note_on_c, 0, 54, 0
1, 31440, Note_on_c, 0, 61, 0
1, 31440, Note_on_c, 0, 58, 40
1, 31440, Note_on_c, 0, 63, 48
1, 31480, Tempo, 641711
1, 31520, Tempo, 648649
1, 31560, Tempo, 655738
1, 31560, Note_on_c, 0, 85, 0
1, 31560, Note_on_c, 0, 73, 0
1, 31560, Note_on_c, 0, 82, 0
1, 31560, Note_on_c, 0, 80, 68
1, 31560, Note_on_c, 0, 83, 79
1, 31560, Note_on_c, 0, 71, 68
1, 31600, Tempo, 662983
1, 31640, Tempo, 674157
1, 31680, Tempo, 579710
1, 31680, Note_on_c, 0, 71, 0
1, 31680, Note_on_c, 0, 80, 0
1, 31680, Note_on_c, 0, 63, 0
1, 31680, Note_on_c, 0, 58, 0
1, 31680, Note_on_c, 0, 83, 0
1, 31680, Note_on_c, 0, 71, 67
1, 31680, Note_on_c, 0, 80, 67
1, 31680, Note_on_c, 0, 83, 79
1, 31680, Note_on_c, 0, 54, 43
1, 31680, Note_on_c, 0, 61, 51
1, 31688, Control_c, 0, 64, 0
1, 31794, Control_c, 0, 64, 127
1, 31920, Note_on_c, 0, 61, 0
1, 31920, Note_on_c, 0, 54, 0
1, 31920, Note_on_c, 0, 49, 37
1, 31920, Note_on_c, 0, 58, 46
1, 32160, Tempo, 594059
1, 32160, Note_on_c, 0, 58, 0
1, 32160, Note_on_c, 0, 71, 0
1, 32160, Note_on_c, 0, 83, 0
1, 32160, Note_on_c, 0, 80, 0
1, 32160, Note_on_c, 0, 49, 0
1, 32160, Note_on_c, 0, 78, 61
1, 32160, Note_on_c, 0, 70, 61
1, 32160, Note_on_c, 0, 82, 71
1, 32160, Note_on_c, 0, 54, 39
1, 32160, Note_on_c, 0, 61, 48
1, 32174, Control_c, 0, 64, 0
1, 32286, Control_c, 0, 64, 127
1, 32400, Note_on_c, 0, 61, 0
1, 32400, Note_on_c, 0, 54, 0
1, 32400, Note_on_c, 0, 58, 34
1, 32400, Note_on_c, 0, 63, 42
1, 32640, Note_on_c, 0, 63, 0
1, 32640, Note_on_c, 0, 78, 0
1, 32640, Note_on_c, 0, 82, 0
1, 32640, Note_on_c, 0, 70, 0
1, 32640, Note_on_c, 0, 58, 0
1, 32640, Note_on_c, 0, 54, 36
1, 32640, Note_on_c, 0, 61, 44
1, 32680, Tempo, 585366
1, 32840, Tempo, 582524
1, 32880, Note_on_c, 0, 61, 0
1, 32880, Note_on_c, 0, 54, 0
1, 32880, Note_on_c, 0, 58, 42
1, 32880, Note_on_c, 0, 49, 34
1, 33000, Tempo, 579710
1, 33120, Note_on_c, 0, 49, 0
1, 33120, Note_on_c, 0, 58, 0
1, 33120, Note_on_c, 0, 54, 36
1, 33120, Note_on_c, 0, 61, 44
1, 33130, Control_c, 0, 64, 0
1, 33160, Tempo, 576923
1, 33280, Control_c, 0, 64, 127
1, 33320, Tempo, 574163
1, 33360, Note_on_c, 0, 61, 0
1, 33360, Note_on_c, 0, 54, 0
1, 33360, Note_on_c, 0, 58, 33
1, 33360, Note_on_c, 0, 63, 40
1, 33480, Tempo, 571429
1, 33600, Note_on_c, 0, 63, 0
1, 33600, Note_on_c, 0, 58, 0
1, 33600, Note_on_c, 0, 61, 44
1, 33600, Note_on_c, 0, 54, 36
1, 33640, Tempo, 568720
1, 33840, Note_on_c, 0, 54, 0
1, 33840, Note_on_c, 0, 61, 0
1, 33840, Note_on_c, 0, 58, 39
1, 33840, Note_on_c, 0, 49, 33
1, 34080, Note_on_c, 0, 49, 0
1, 34080, Note_on_c, 0, 58, 0
1, 34080, Note_on_c, 0, 54, 37
1, 34080, Note_on_c, 0, 61, 46
1, 34320, Note_on_c, 0, 61, 0
1, 34320, Note_on_c, 0, 54, 0
1, 34320, Note_on_c, 0, 58, 34
1, 34320, Note_on_c, 0, 63, 42
1, 34560, Tempo, 572301
1, 34560, Note_on_c, 0, 63, 0
1, 34560, Note_on_c, 0, 58, 0
1, 34560, Note_on_c, 0, 70, 43
1, 34560, Note_on_c, 0, 82, 51
1, 34560, Note_on_c, 0, 73, 43
1, 34560, Note_on_c, 0, 54, 25
1, 34560, Note_on_c, 0, 64, 27
1, 34577, Control_c, 0, 64, 0
1, 34600, Tempo, 614125
1, 34675, Control_c, 0, 64, 127
1, 34800, Tempo, 572301
1, 34800, Note_on_c, 0, 64, 0
1, 34800, Note_on_c, 0, 54, 0
1, 34800, Note_on_c, 0, 58, 23
1, 34800, Note_on_c, 0, 61, 27
1, 35040, Note_on_c, 0, 61, 0
1, 35040, Note_on_c, 0, 58, 0
1, 35040, Note_on_c, 0, 66, 29
1, 35040, Note_on_c, 0, 54, 25
1, 35280, Note_on_c, 0, 54, 0
1, 35280, Note_on_c, 0, 66, 0
1, 35280, Note_on_c, 0, 63, 27
1, 35280, Note_on_c, 0, 58, 23
1, 35520, Tempo, 572301
1, 35520, Note_on_c, 0, 58, 0
1, 35520, Note_on_c, 0, 63, 0
1, 35520, Note_on_c, 0, 54, 26
1, 35520, Note_on_c, 0, 64, 30
1, 35760, Note_on_c, 0, 64, 0
1, 35760, Note_on_c, 0, 54, 0
1, 35760, Note_on_c, 0, 58, 24
1, 35760, Note_on_c, 0, 61, 28
1, 35800, Tempo, 594059
1, 36000, Tempo, 572301
1, 36000, Note_on_c, 0, 61, 0
1, 36000, Note_on_c, 0, 70, 0
1, 36000, Note_on_c, 0, 73, 0
1, 36000, Note_on_c, 0, 82, 0
1, 36000, Note_on_c, 0, 58, 0
1, 36000, Note_on_c, 0, 66, 39
1, 36000, Note_on_c, 0, 70, 39
1, 36000, Note_on_c, 0, 78, 48
1, 36000, Note_on_c, 0, 54, 29
1, 36006, Control_c, 0, 64, 0
1, 36114, Control_c, 0, 64, 127
1, 36240, Tempo, 586797
1, 36240, Note_on_c, 0, 54, 0
1, 36240, Note_on_c, 0, 58, 23
1, 36240, Note_on_c, 0, 63, 27
1, 36480, Tempo, 570180
1, 36480, Note_on_c, 0, 63, 0
1, 36480, Note_on_c, 0, 58, 0
1, 36480, Note_on_c, 0, 64, 29
1, 36480, Note_on_c, 0, 54, 25
1, 36720, Note_on_c, 0, 54, 0
1, 36720, Note_on_c, 0, 64, 0
1, 36720, Note_on_c, 0, 61, 27
1, 36720, Note_on_c, 0, 58, 23
1, 36960, Tempo, 591133
1, 36960, Note_on_c, 0, 58, 0
1, 36960, Note_on_c, 0, 66, 0
1, 36960, Note_on_c, 0, 78, 0
1, 36960, Note_on_c, 0, 70, 0
1, 36960, Note_on_c, 0, 61, 0
1, 36960, Note_on_c, 0, 75, 37
1, 36960, Note_on_c, 0, 83, 44
1, 36960, Note_on_c, 0, 71, 37
1, 36960, Note_on_c, 0, 54, 26
1, 36960, Note_on_c, 0, 66, 30
1, 37200, Tempo, 600601
1, 37200, Note_on_c, 0, 66, 0
1, 37200, Note_on_c, 0, 54, 0
1, 37200, Note_on_c, 0, 58, 24
1, 37200, Note_on_c, 0, 63, 28
1, 37440, Tempo, 581452
1, 37440, Note_on_c, 0, 63, 0
1, 37440, Note_on_c, 0, 75, 0
1, 37440, Note_on_c, 0, 71, 0
1, 37440, Note_on_c, 0, 83, 0
1, 37440, Note_on_c, 0, 58, 0
1, 37440, Note_on_c, 0, 70, 39
1, 37440, Note_on_c, 0, 73, 39
1, 37440, Note_on_c, 0, 82, 48
1, 37440, Note_on_c, 0, 54, 25
1, 37440, Note_on_c, 0, 64, 27
1, 37449, Control_c, 0, 64, 0
1, 37543, Control_c, 0, 64, 127
1, 37680, Note_on_c, 0, 64, 0
1, 37680, Note_on_c, 0, 54, 0
1, 37680, Note_on_c, 0, 58, 23
1, 37680, Note_on_c, 0, 61, 27
1, 37920, Tempo, 572301
1, 37920, Note_on_c, 0, 61, 0
1, 37920, Note_on_c, 0, 58, 0
1, 37920, Note_on_c, 0, 66, 29
1, 37920, Note_on_c, 0, 54, 25
1, 38160, Note_on_c, 0, 54, 0
1, 38160, Note_on_c, 0, 66, 0
1, 38160, Note_on_c, 0, 63, 27
1, 38160, Note_on_c, 0, 58, 23
1, 38400, Note_on_c, 0, 58, 0
1, 38400, Note_on_c, 0, 63, 0
1, 38400, Note_on_c, 0, 54, 26
1, 38400, Note_on_c, 0, 64, 30
1, 38640, Note_on_c, 0, 64, 0
1, 38640, Note_on_c, 0, 54, 0
1, 38640, Note_on_c, 0, 58, 24
1, 38640, Note_on_c, 0, 61, 28
1, 38880, Tempo, 572301
1, 38880, Note_on_c, 0, 61, 0
1, 38880, Note_on_c, 0, 70, 0
1, 38880, Note_on_c, 0, 82, 0
1, 38880, Note_on_c, 0, 73, 0
1, 38880, Note_on_c, 0, 58, 0
1, 38880, Note_on_c, 0, 70, 38
1, 38880, Note_on_c, 0, 66, 38
1, 38880, Note_on_c, 0, 78, 46
1, 38880, Note_on_c, 0, 54, 29
1, 38889, Control_c, 0, 64, 0
1, 38994, Control_c, 0, 64, 127
1, 39120, Tempo, 583942
1, 39120, Note_on_c, 0, 54, 0
1, 39120, Note_on_c, 0, 58, 23
1, 39120, Note_on_c, 0, 63, 27
1, 39360, Tempo, 570180
1, 39360, Note_on_c, 0, 63, 0
1, 39360, Note_on_c, 0, 58, 0
1, 39360, Note_on_c, 0, 64, 29
1, 39360, Note_on_c, 0, 54, 25
1, 39600, Note_on_c, 0, 54, 0
1, 39600, Note_on_c, 0, 64, 0
1, 39600, Note_on_c, 0, 61, 27
1, 39600, Note_on_c, 0, 58, 23
1, 39840, Note_on_c, 0, 58, 0
1, 39840, Note_on_c, 0, 61, 0
1, 39840, Note_on_c, 0, 54, 26
1, 39840, Note_on_c, 0, 66, 30
1, 40080, Tempo, 600601
1, 40080, Note_on_c, 0, 66, 0
1, 40080, Note_on_c, 0, 54, 0
1, 40080, Note_on_c, 0, 58, 24
1, 40080, Note_on_c, 0, 63, 28
1, 40320, Tempo, 581452
1, 40320, Note_on_c, 0, 63, 0
1, 40320, Note_on_c, 0, 70, 0
1, 40320, Note_on_c, 0, 78, 0
1, 40320, Note_on_c, 0, 66, 0
1, 40320, Note_on_c, 0, 58, 0
1, 40320, Note_on_c, 0, 73, 43
1, 40320, Note_on_c, 0, 82, 43
1, 40320, Note_on_c, 0, 85, 51
1, 40320, Note_on_c, 0, 54, 25
1, 40320, Note_on_c, 0, 64, 27
1, 40327, Control_c, 0, 64, 0
1, 40469, Control_c, 0, 64, 127
1, 40560, Note_on_c, 0, 64, 0
1, 40560, Note_on_c, 0, 54, 0
1, 40560, Note_on_c, 0, 58, 23
1, 40560, Note_on_c, 0, 61, 27
1, 40800, Note_on_c, 0, 61, 0
1, 40800, Note_on_c, 0, 58, 0
1, 40800, Note_on_c, 0, 66, 29
1, 40800, Note_on_c, 0, 54, 25
1, 41040, Note_on_c, 0, 54, 0
1, 41040, Note_on_c, 0, 66, 0
1, 41040, Note_on_c, 0, 63, 27
1, 41040, Note_on_c, 0, 58, 23
1, 41280, Tempo, 607349
1, 41280, Note_on_c, 0, 58, 0
1, 41280, Note_on_c, 0, 73, 0
1, 41280, Note_on_c, 0, 85, 0
1, 41280, Note_on_c, 0, 82, 0
1, 41280, Note_on_c, 0, 63, 0
1, 41280, Note_on_c, 0, 70, 40
1, 41280, Note_on_c, 0, 82, 49
1, 41280, Note_on_c, 0, 78, 40
1, 41280, Note_on_c, 0, 54, 26
1, 41280, Note_on_c, 0, 64, 30
1, 41520, Note_on_c, 0, 64, 0
1, 41520, Note_on_c, 0, 54, 0
1, 41520, Note_on_c, 0, 58, 24
1, 41520, Note_on_c, 0, 61, 28
1, 41760, Tempo, 588235
1, 41760, Note_on_c, 0, 61, 0
1, 41760, Note_on_c, 0, 70, 0
1, 41760, Note_on_c, 0, 78, 0
1, 41760, Note_on_c, 0, 82, 0
1, 41760, Note_on_c, 0, 58, 0
1, 41760, Note_on_c, 0, 82, 44
1, 41760, Note_on_c, 0, 78, 44
1, 41760, Note_on_c, 0, 90, 52
1, 41760, Note_on_c, 0, 66, 29
1, 41760, Note_on_c, 0, 54, 25
1, 41775, Control_c, 0, 64, 0
1, 41846, Control_c, 0, 64, 127
1, 42000, Note_on_c, 0, 54, 0
1, 42000, Note_on_c, 0, 66, 0
1, 42000, Note_on_c, 0, 58, 23
1, 42000, Note_on_c, 0, 63, 27
1, 42240, Tempo, 600000
1, 42240, Note_on_c, 0, 63, 0
1, 42240, Note_on_c, 0, 58, 0
1, 42240, Note_on_c, 0, 64, 29
1, 42240, Note_on_c, 0, 54, 25
1, 42480, Note_on_c, 0, 54, 0
1, 42480, Note_on_c, 0, 64, 0
1, 42480, Note_on_c, 0, 61, 27
1, 42480, Note_on_c, 0, 58, 23
1, 42720, Tempo, 618557
1, 42720, Note_on_c, 0, 58, 0
1, 42720, Note_on_c, 0, 82, 0
1, 42720, Note_on_c, 0, 90, 0
1, 42720, Note_on_c, 0, 78, 0
1, 42720, Note_on_c, 0, 61, 0
1, 42720, Note_on_c, 0, 85, 48
1, 42720, Note_on_c, 0, 82, 40
1, 42720, Note_on_c, 0, 73, 38
1, 42720, Note_on_c, 0, 54, 26
1, 42720, Note_on_c, 0, 66, 30
1, 42760, Tempo, 609137
1, 42800, Tempo, 612245
1, 42840, Tempo, 618557
1, 42880, Tempo, 625000
1, 42920, Tempo, 628272
1, 42960, Tempo, 634921
1, 42960, Note_on_c, 0, 66, 0
1, 42960, Note_on_c, 0, 54, 0
1, 42960, Note_on_c, 0, 58, 24
1, 42960, Note_on_c, 0, 63, 28
1, 43000, Tempo, 641711
1, 43040, Tempo, 645161
1, 43080, Tempo, 652174
1, 43080, Note_on_c, 0, 85, 0
1, 43080, Note_on_c, 0, 73, 0
1, 43080, Note_on_c, 0, 82, 0
1, 43080, Note_on_c, 0, 80, 38
1, 43080, Note_on_c, 0, 71, 38
1, 43080, Note_on_c, 0, 83, 46
1, 43120, Tempo, 659341
1, 43160, Tempo, 666667
1, 43200, Tempo, 609137
1, 43200, Note_on_c, 0, 83, 0
1, 43200, Note_on_c, 0, 80, 0
1, 43200, Note_on_c, 0, 63, 0
1, 43200, Note_on_c, 0, 58, 0
1, 43200, Note_on_c, 0, 71, 0
1, 43200, Note_on_c, 0, 71, 38
1, 43200, Note_on_c, 0, 83, 46
1, 43200, Note_on_c, 0, 80, 38
1, 43200, Note_on_c, 0, 54, 25
1, 43200, Note_on_c, 0, 64, 27
1, 43207, Control_c, 0, 64, 0
1, 43337, Control_c, 0, 64, 127
1, 43440, Note_on_c, 0, 64, 0
1, 43440, Note_on_c, 0, 54, 0
1, 43440, Note_on_c, 0, 58, 23
1, 43440, Note_on_c, 0, 61, 27
1, 43680, Note_on_c, 0, 61, 0
1, 43680, Note_on_c, 0, 71, 0
1, 43680, Note_on_c, 0, 80, 0
1, 43680, Note_on_c, 0, 83, 0
1, 43680, Note_on_c, 0, 58, 0
1, 43680, Note_on_c, 0, 70, 38
1, 43680, Note_on_c, 0, 78, 38
1, 43680, Note_on_c, 0, 82, 44
1, 43680, Note_on_c, 0, 66, 29
1, 43680, Note_on_c, 0, 54, 25
1, 43693, Control_c, 0, 64, 0
1, 43720, Tempo, 594059
1, 43829, Control_c, 0, 64, 127
1, 43840, Tempo, 591133
1, 43920, Note_on_c, 0, 54, 0
1, 43920, Note_on_c, 0, 66, 0
1, 43920, Note_on_c, 0, 63, 27
1, 43920, Note_on_c, 0, 58, 23
1, 43960, Tempo, 588235
1, 44040, Tempo, 585366
1, 44160, Tempo, 582524
1, 44160, Note_on_c, 0, 58, 0
1, 44160, Note_on_c, 0, 70, 0
1, 44160, Note_on_c, 0, 82, 0
1, 44160, Note_on_c, 0, 78, 0
1, 44160, Note_on_c, 0, 63, 0
1, 44160, Note_on_c, 0, 54, 26
1, 44160, Note_on_c, 0, 64, 30
1, 44280, Tempo, 579710
1, 44360, Tempo, 576923
1, 44400, Note_on_c, 0, 64, 0
1, 44400, Note_on_c, 0, 54, 0
1, 44400, Note_on_c, 0, 58, 24
1, 44400, Note_on_c, 0, 61, 28
1, 44480, Tempo, 574163
1, 44560, Tempo, 571429
1, 44640, Note_on_c, 0, 61, 0
1, 44640, Note_on_c, 0, 58, 0
1, 44640, Note_on_c, 0, 66, 34
1, 44640, Note_on_c, 0, 54, 29
1, 44645, Control_c, 0, 64, 0
1, 44680, Tempo, 576923
1, 44754, Control_c, 0, 64, 127
1, 44880, Note_on_c, 0, 54, 0
1, 44880, Note_on_c, 0, 66, 0
1, 44880, Note_on_c, 0, 58, 29
1, 44880, Note_on_c, 0, 63, 33
1, 45040, Tempo, 572301
1, 45080, Tempo, 569314
1, 45120, Tempo, 574163
1, 45120, Note_on_c, 0, 63, 0
1, 45120, Note_on_c, 0, 58, 0
1, 45120, Note_on_c, 0, 64, 40
1, 45120, Note_on_c, 0, 54, 33
1, 45360, Note_on_c, 0, 54, 0
1, 45360, Note_on_c, 0, 64, 0
1, 45360, Note_on_c, 0, 61, 39
1, 45360, Note_on_c, 0, 58, 32
1, 45600, Note_on_c, 0, 58, 0
1, 45600, Note_on_c, 0, 61, 0
1, 45600, Note_on_c, 0, 54, 38
1, 45600, Note_on_c, 0, 64, 46
1, 45840, Tempo, 581452
1, 45840, Note_on_c, 0, 64, 0
1, 45840, Note_on_c, 0, 54, 0
1, 45840, Note_on_c, 0, 58, 37
1, 45840, Note_on_c, 0, 60, 45
1, 46000, Tempo, 597372
1, 46080, Tempo, 710059
1, 46080, Note_on_c, 0, 60, 0
1, 46080, Note_on_c, 0, 58, 0
1, 46080, Note_on_c, 0, 77, 62
1, 46080, Note_on_c, 0, 29, 57
1, 46094, Control_c, 0, 64, 0
1, 46194, Control_c, 0, 64, 127
1, 46233, Tempo, 566038
1, 46320, Tempo, 561798
1, 46320, Note_on_c, 0, 29, 0
1, 46320, Note_on_c, 0, 65, 46
1, 46320, Note_on_c, 0, 53, 40
1, 46408, Tempo, 557621
1, 46495, Tempo, 553506
1, 46560, Tempo, 549451
1, 46560, Note_on_c, 0, 53, 0
1, 46560, Note_on_c, 0, 65, 0
1, 46560, Note_on_c, 0, 77, 0
1, 46560, Note_on_c, 0, 64, 36
1, 46560, Note_on_c, 0, 67, 46
1, 46560, Note_on_c, 0, 52, 32
1, 46560, Note_on_c, 0, 55, 40
1, 46576, Control_c, 0, 64, 0
1, 46604, Tempo, 545455
1, 46648, Tempo, 541516
1, 46686, Control_c, 0, 64, 127
1, 46691, Tempo, 537634
1, 46725, Tempo, 526316
1, 46768, Tempo, 522648
1, 46800, Tempo, 555556
1, 46800, Note_on_c, 0, 55, 0
1, 46800, Note_on_c, 0, 64, 0
1, 46800, Note_on_c, 0, 67, 0
1, 46800, Note_on_c, 0, 52, 0
1, 46800, Note_on_c, 0, 63, 37
1, 46800, Note_on_c, 0, 69, 48
1, 46800, Note_on_c, 0, 51, 32
1, 46800, Note_on_c, 0, 57, 42
1, 46812, Tempo, 530035
1, 47000, Tempo, 542986
1, 47040, Tempo, 574163
1, 47040, Note_on_c, 0, 57, 0
1, 47040, Note_on_c, 0, 63, 0
1, 47040, Note_on_c, 0, 69, 0
1, 47040, Note_on_c, 0, 51, 0
1, 47040, Note_on_c, 0, 70, 52
1, 47040, Note_on_c, 0, 62, 41
1, 47040, Note_on_c, 0, 50, 36
1, 47040, Note_on_c, 0, 58, 45
1, 47048, Control_c, 0, 64, 0
1, 47143, Control_c, 0, 64, 127
1, 47280, Tempo, 597015
1, 47280, Note_on_c, 0, 58, 0
1, 47280, Note_on_c, 0, 70, 0
1, 47280, Note_on_c, 0, 62, 0
1, 47280, Note_on_c, 0, 50, 0
1, 47280, Note_on_c, 0, 72, 50
1, 47280, Note_on_c, 0, 60, 45
1, 47280, Note_on_c, 0, 48, 39
1, 47520, Tempo, 652174
1, 47520, Note_on_c, 0, 48, 0
1, 47520, Note_on_c, 0, 60, 0
1, 47520, Note_on_c, 0, 72, 0
1, 47520, Note_on_c, 0, 74, 60
1, 47520, Note_on_c, 0, 41, 53
1, 47533, Control_c, 0, 64, 0
1, 47634, Control_c, 0, 64, 127
1, 47760, Tempo, 563380
1, 47760, Note_on_c, 0, 41, 0
1, 47760, Note_on_c, 0, 74, 0
1, 47760, Note_on_c, 0, 65, 49
1, 47760, Note_on_c, 0, 53, 42
1, 47772, Tempo, 545455
1, 47804, Tempo, 557621
1, 47848, Tempo, 553506
1, 47891, Tempo, 549451
1, 47935, Tempo, 545455
1, 47979, Tempo, 541516
1, 48000, Note_on_c, 0, 53, 0
1, 48000, Note_on_c, 0, 65, 0
1, 48000, Note_on_c, 0, 64, 38
1, 48000, Note_on_c, 0, 67, 49
1, 48000, Note_on_c, 0, 52, 34
1, 48000, Note_on_c, 0, 55, 43
1, 48008, Control_c, 0, 64, 0
1, 48022, Tempo, 537634
1, 48034, Tempo, 526316
1, 48099, Tempo, 522648
1, 48143, Tempo, 519031
1, 48149, Control_c, 0, 64, 127
1, 48186, Tempo, 545455
1, 48230, Tempo, 541516
1, 48240, Note_on_c, 0, 55, 0
1, 48240, Note_on_c, 0, 64, 0
1, 48240, Note_on_c, 0, 67, 0
1, 48240, Note_on_c, 0, 52, 0
1, 48240, Note_on_c, 0, 63, 39
1, 48240, Note_on_c, 0, 69, 51
1, 48240, Note_on_c, 0, 51, 35
1, 48240, Note_on_c, 0, 57, 45
1, 48274, Tempo, 537634
1, 48440, Tempo, 533333
1, 48480, Tempo, 576923
1, 48480, Note_on_c, 0, 57, 0
1, 48480, Note_on_c, 0, 63, 0
1, 48480, Note_on_c, 0, 69, 0
1, 48480, Note_on_c, 0, 51, 0
1, 48480, Note_on_c, 0, 70, 55
1, 48480, Note_on_c, 0, 62, 44
1, 48480, Note_on_c, 0, 50, 38
1, 48480, Note_on_c, 0, 58, 48
1, 48492, Control_c, 0, 64, 0
1, 48595, Control_c, 0, 64, 127
1, 48720, Tempo, 597015
1, 48720, Note_on_c, 0, 58, 0
1, 48720, Note_on_c, 0, 70, 0
1, 48720, Note_on_c, 0, 62, 0
1, 48720, Note_on_c, 0, 50, 0
1, 48720, Note_on_c, 0, 74, 53
1, 48720, Note_on_c, 0, 53, 42
1, 48960, Tempo, 631579
1, 48960, Note_on_c, 0, 53, 0
1, 48960, Note_on_c, 0, 74, 0
1, 48960, Note_on_c, 0, 79, 64
1, 48960, Note_on_c, 0, 41, 56
1, 48974, Control_c, 0, 64, 0
1, 49074, Control_c, 0, 64, 127
1, 49146, Tempo, 541516
1, 49200, Note_on_c, 0, 41, 0
1, 49200, Note_on_c, 0, 67, 52
1, 49200, Note_on_c, 0, 55, 45
1, 49212, Tempo, 537634
1, 49256, Tempo, 533808
1, 49321, Tempo, 530035
1, 49365, Tempo, 526316
1, 49408, Tempo, 522648
1, 49440, Note_on_c, 0, 55, 0
1, 49440, Note_on_c, 0, 67, 0
1, 49440, Note_on_c, 0, 79, 0
1, 49440, Note_on_c, 0, 69, 52
1, 49440, Note_on_c, 0, 66, 41
1, 49440, Note_on_c, 0, 54, 36
1, 49440, Note_on_c, 0, 57, 46
1, 49452, Control_c, 0, 64, 0
1, 49474, Tempo, 519031
1, 49517, Tempo, 515464
1, 49554, Control_c, 0, 64, 127
1, 49561, Tempo, 511945
1, 49600, Tempo, 565185
1, 49605, Tempo, 537634
1, 49680, Note_on_c, 0, 57, 0
1, 49680, Note_on_c, 0, 69, 0
1, 49680, Note_on_c, 0, 66, 0
1, 49680, Note_on_c, 0, 54, 0
1, 49680, Note_on_c, 0, 71, 54
1, 49680, Note_on_c, 0, 65, 41
1, 49680, Note_on_c, 0, 53, 37
1, 49680, Note_on_c, 0, 59, 47
1, 49920, Tempo, 576923
1, 49920, Note_on_c, 0, 59, 0
1, 49920, Note_on_c, 0, 71, 0
1, 49920, Note_on_c, 0, 65, 0
1, 49920, Note_on_c, 0, 53, 0
1, 49920, Note_on_c, 0, 72, 58
1, 49920, Note_on_c, 0, 63, 46
1, 49920, Note_on_c, 0, 51, 40
1, 49920, Note_on_c, 0, 60, 51
1, 49931, Control_c, 0, 64, 0
1, 49932, Tempo, 557621
1, 50023, Control_c, 0, 64, 127
1, 50160, Tempo, 600000
1, 50160, Note_on_c, 0, 60, 0
1, 50160, Note_on_c, 0, 72, 0
1, 50160, Note_on_c, 0, 63, 0
1, 50160, Note_on_c, 0, 51, 0
1, 50160, Note_on_c, 0, 74, 56
1, 50160, Note_on_c, 0, 62, 50
1, 50160, Note_on_c, 0, 50, 44
1, 50400, Tempo, 638298
1, 50400, Note_on_c, 0, 50, 0
1, 50400, Note_on_c, 0, 62, 0
1, 50400, Note_on_c, 0, 74, 0
1, 50400, Note_on_c, 0, 75, 74
1, 50400, Note_on_c, 0, 41, 66
1, 50414, Control_c, 0, 64, 0
1, 50514, Control_c, 0, 64, 127
1, 50640, Tempo, 574163
1, 50640, Note_on_c, 0, 41, 0
1, 50640, Note_on_c, 0, 67, 60
1, 50640, Note_on_c, 0, 55, 52
1, 50696, Tempo, 561798
1, 50761, Tempo, 557621
1, 50826, Tempo, 553506
1, 50870, Tempo, 549451
1, 50880, Note_on_c, 0, 55, 0
1, 50880, Note_on_c, 0, 67, 0
1, 50880, Note_on_c, 0, 75, 0
1, 50880, Note_on_c, 0, 69, 62
1, 50880, Note_on_c, 0, 66, 47
1, 50880, Note_on_c, 0, 54, 43
1, 50880, Note_on_c, 0, 57, 53
1, 50890, Control_c, 0, 64, 0
1, 50936, Tempo, 545455
1, 50994, Control_c, 0, 64, 127
1, 51001, Tempo, 541516
1, 51045, Tempo, 537634
1, 51110, Tempo, 533808
1, 51120, Note_on_c, 0, 57, 0
1, 51120, Note_on_c, 0, 69, 0
1, 51120, Note_on_c, 0, 66, 0
1, 51120, Note_on_c, 0, 54, 0
1, 51120, Note_on_c, 0, 65, 49
1, 51120, Note_on_c, 0, 71, 63
1, 51120, Note_on_c, 0, 53, 43
1, 51120, Note_on_c, 0, 59, 56
1, 51176, Tempo, 530035
1, 51219, Tempo, 526316
1, 51240, Tempo, 556483
1, 51320, Tempo, 553659
1, 51360, Tempo, 576923
1, 51360, Note_on_c, 0, 59, 0
1, 51360, Note_on_c, 0, 65, 0
1, 51360, Note_on_c, 0, 71, 0
1, 51360, Note_on_c, 0, 53, 0
1, 51360, Note_on_c, 0, 63, 55
1, 51360, Note_on_c, 0, 72, 70
1, 51360, Note_on_c, 0, 51, 48
1, 51360, Note_on_c, 0, 60, 61
1, 51371, Control_c, 0, 64, 0
1, 51463, Control_c, 0, 64, 127
1, 51600, Tempo, 597015
1, 51600, Note_on_c, 0, 60, 0
1, 51600, Note_on_c, 0, 63, 0
1, 51600, Note_on_c, 0, 72, 0
1, 51600, Note_on_c, 0, 51, 0
1, 51600, Note_on_c, 0, 75, 68
1, 51600, Note_on_c, 0, 55, 53
1, 51840, Tempo, 625000
1, 51840, Note_on_c, 0, 55, 0
1, 51840, Note_on_c, 0, 75, 0
1, 51840, Note_on_c, 0, 81, 81
1, 51840, Note_on_c, 0, 41, 72
1, 51854, Control_c, 0, 64, 0
1, 52000, Control_c, 0, 64, 127
1, 52026, Tempo, 557621
1, 52080, Note_on_c, 0, 41, 0
1, 52080, Note_on_c, 0, 69, 66
1, 52080, Note_on_c, 0, 57, 57
1, 52114, Tempo, 553506
1, 52179, Tempo, 549451
1, 52245, Tempo, 545455
1, 52310, Tempo, 541516
1, 52320, Note_on_c, 0, 57, 0
1, 52320, Note_on_c, 0, 69, 0
1, 52320, Note_on_c, 0, 81, 0
1, 52320, Note_on_c, 0, 68, 53
1, 52320, Note_on_c, 0, 71, 67
1, 52320, Note_on_c, 0, 56, 46
1, 52320, Note_on_c, 0, 59, 59
1, 52335, Control_c, 0, 64, 0
1, 52376, Tempo, 537634
1, 52434, Control_c, 0, 64, 127
1, 52463, Tempo, 533808
1, 52528, Tempo, 530035
1, 52560, Note_on_c, 0, 59, 0
1, 52560, Note_on_c, 0, 68, 0
1, 52560, Note_on_c, 0, 71, 0
1, 52560, Note_on_c, 0, 56, 0
1, 52560, Note_on_c, 0, 73, 71
1, 52560, Note_on_c, 0, 67, 53
1, 52560, Note_on_c, 0, 55, 47
1, 52560, Note_on_c, 0, 61, 62
1, 52594, Tempo, 526316
1, 52659, Tempo, 522648
1, 52725, Tempo, 519031
1, 52760, Tempo, 553659
1, 52800, Tempo, 568128
1, 52800, Note_on_c, 0, 61, 0
1, 52800, Note_on_c, 0, 73, 0
1, 52800, Note_on_c, 0, 67, 0
1, 52800, Note_on_c, 0, 55, 0
1, 52800, Note_on_c, 0, 65, 61
1, 52800, Note_on_c, 0, 74, 76
1, 52800, Note_on_c, 0, 53, 53
1, 52800, Note_on_c, 0, 62, 67
1, 52809, Control_c, 0, 64, 0
1, 52915, Control_c, 0, 64, 127
1, 53040, Tempo, 583431
1, 53040, Note_on_c, 0, 62, 0
1, 53040, Note_on_c, 0, 65, 0
1, 53040, Note_on_c, 0, 74, 0
1, 53040, Note_on_c, 0, 53, 0
1, 53040, Note_on_c, 0, 77, 74
1, 53040, Note_on_c, 0, 57, 59
1, 53280, Tempo, 596244
1, 53280, Note_on_c, 0, 57, 0
1, 53280, Note_on_c, 0, 77, 0
1, 53280, Note_on_c, 0, 82, 90
1, 53280, Note_on_c, 0, 41, 79
1, 53294, Control_c, 0, 64, 0
1, 53429, Control_c, 0, 64, 127
1, 53520, Tempo, 586568
1, 53520, Note_on_c, 0, 41, 0
1, 53520, Note_on_c, 0, 70, 73
1, 53520, Note_on_c, 0, 58, 63
1, 53564, Tempo, 574713
1, 53630, Tempo, 570342
1, 53673, Tempo, 566038
1, 53739, Tempo, 561798
1, 53760, Note_on_c, 0, 58, 0
1, 53760, Note_on_c, 0, 70, 0
1, 53760, Note_on_c, 0, 82, 0
1, 53760, Note_on_c, 0, 69, 58
1, 53760, Note_on_c, 0, 72, 75
1, 53760, Note_on_c, 0, 57, 52
1, 53760, Note_on_c, 0, 60, 65
1, 53771, Control_c, 0, 64, 0
1, 53782, Tempo, 557621
1, 53826, Tempo, 553506
1, 53874, Control_c, 0, 64, 127
1, 53891, Tempo, 549451
1, 53935, Tempo, 545455
1, 53979, Tempo, 541516
1, 54000, Note_on_c, 0, 60, 0
1, 54000, Note_on_c, 0, 69, 0
1, 54000, Note_on_c, 0, 72, 0
1, 54000, Note_on_c, 0, 57, 0
1, 54000, Note_on_c, 0, 74, 76
1, 54000, Note_on_c, 0, 68, 58
1, 54000, Note_on_c, 0, 56, 52
1, 54000, Note_on_c, 0, 62, 67
1, 54044, Tempo, 537634
1, 54088, Tempo, 533808
1, 54131, Tempo, 530035
1, 54165, Tempo, 537634
1, 54200, Tempo, 553659
1, 54240, Tempo, 568128
1, 54240, Note_on_c, 0, 62, 0
1, 54240, Note_on_c, 0, 74, 0
1, 54240, Note_on_c, 0, 68, 0
1, 54240, Note_on_c, 0, 56, 0
1, 54240, Note_on_c, 0, 67, 66
1, 54240, Note_on_c, 0, 75, 83
1, 54240, Note_on_c, 0, 55, 57
1, 54240, Note_on_c, 0, 63, 73
1, 54249, Control_c, 0, 64, 0
1, 54355, Control_c, 0, 64, 127
1, 54480, Tempo, 630915
1, 54480, Note_on_c, 0, 63, 0
1, 54480, Note_on_c, 0, 67, 0
1, 54480, Note_on_c, 0, 75, 0
1, 54480, Note_on_c, 0, 55, 0
1, 54480, Note_on_c, 0, 66, 73
1, 54480, Note_on_c, 0, 78, 81
1, 54480, Note_on_c, 0, 54, 64
1, 54720, Note_on_c, 0, 54, 0
1, 54720, Note_on_c, 0, 78, 0
1, 54720, Note_on_c, 0, 66, 0
1, 54720, Note_on_c, 0, 29, 85
1, 54720, Note_on_c, 0, 41, 101
1, 54725, Control_c, 0, 64, 0
1, 54835, Control_c, 0, 64, 127
1, 54960, Tempo, 586568
1, 54960, Note_on_c, 0, 41, 0
1, 54960, Note_on_c, 0, 29, 0
1, 54960, Note_on_c, 0, 77, 84
1, 54960, Note_on_c, 0, 65, 67
1, 55200, Tempo, 557621
1, 55200, Note_on_c, 0, 65, 0
1, 55200, Note_on_c, 0, 77, 0
1, 55200, Note_on_c, 0, 82, 79
1, 55200, Note_on_c, 0, 78, 79
1, 55200, Note_on_c, 0, 87, 92
1, 55200, Note_on_c, 0, 70, 62
1, 55200, Note_on_c, 0, 66, 62
1, 55200, Note_on_c, 0, 75, 73
1, 55210, Control_c, 0, 64, 0
1, 55326, Control_c, 0, 64, 127
1, 55440, Tempo, 574713
1, 55440, Note_on_c, 0, 75, 0
1, 55440, Note_on_c, 0, 78, 0
1, 55440, Note_on_c, 0, 87, 0
1, 55440, Note_on_c, 0, 82, 0
1, 55440, Note_on_c, 0, 66, 0
1, 55440, Note_on_c, 0, 70, 0
1, 55440, Note_on_c, 0, 77, 85
1, 55440, Note_on_c, 0, 65, 67
1, 55680, Tempo, 557621
1, 55680, Note_on_c, 0, 65, 0
1, 55680, Note_on_c, 0, 77, 0
1, 55680, Note_on_c, 0, 82, 77
1, 55680, Note_on_c, 0, 78, 77
1, 55680, Note_on_c, 0, 87, 91
1, 55680, Note_on_c, 0, 66, 61
1, 55680, Note_on_c, 0, 70, 61
1, 55680, Note_on_c, 0, 75, 72
1, 55920, Tempo, 570342
1, 55920, Note_on_c, 0, 75, 0
1, 55920, Note_on_c, 0, 78, 0
1, 55920, Note_on_c, 0, 87, 0
1, 55920, Note_on_c, 0, 82, 0
1, 55920, Note_on_c, 0, 70, 0
1, 55920, Note_on_c, 0, 66, 0
1, 55920, Note_on_c, 0, 77, 86
1, 55920, Note_on_c, 0, 65, 69
1, 56160, Tempo, 557621
1, 56160, Note_on_c, 0, 65, 0
1, 56160, Note_on_c, 0, 77, 0
1, 56160, Note_on_c, 0, 78, 82
1, 56160, Note_on_c, 0, 87, 96
1, 56160, Note_on_c, 0, 82, 82
1, 56160, Note_on_c, 0, 70, 66
1, 56160, Note_on_c, 0, 66, 66
1, 56160, Note_on_c, 0, 75, 77
1, 56400, Tempo, 566038
1, 56400, Note_on_c, 0, 75, 0
1, 56400, Note_on_c, 0, 87, 0
1, 56400, Note_on_c, 0, 82, 0
1, 56400, Note_on_c, 0, 78, 0
1, 56400, Note_on_c, 0, 66, 0
1, 56400, Note_on_c, 0, 70, 0
1, 56400, Note_on_c, 0, 77, 89
1, 56400, Note_on_c, 0, 65, 70
1, 56640, Tempo, 553506
1, 56640, Note_on_c, 0, 65, 0
1, 56640, Note_on_c, 0, 77, 0
1, 56640, Note_on_c, 0, 78, 80
1, 56640, Note_on_c, 0, 87, 95
1, 56640, Note_on_c, 0, 82, 80
1, 56640, Note_on_c, 0, 66, 63
1, 56640, Note_on_c, 0, 70, 63
1, 56640, Note_on_c, 0, 75, 75
1, 56880, Tempo, 566038
1, 56880, Note_on_c, 0, 75, 0
1, 56880, Note_on_c, 0, 87, 0
1, 56880, Note_on_c, 0, 82, 0
1, 56880, Note_on_c, 0, 78, 0
1, 56880, Note_on_c, 0, 70, 0
1, 56880, Note_on_c, 0, 66, 0
1, 56880, Note_on_c, 0, 77, 91
1, 56880, Note_on_c, 0, 65, 71
1, 57120, Note_on_c, 0, 65, 0
1, 57120, Note_on_c, 0, 77, 0
1, 57120, Note_on_c, 0, 82, 85
1, 57120, Note_on_c, 0, 78, 85
1, 57120, Note_on_c, 0, 87, 101
1, 57120, Note_on_c, 0, 70, 68
1, 57120, Note_on_c, 0, 66, 68
1, 57120, Note_on_c, 0, 75, 80
1, 57360, Tempo, 602894
1, 57360, Note_on_c, 0, 75, 0
1, 57360, Note_on_c, 0, 78, 0
1, 57360, Note_on_c, 0, 87, 0
1, 57360, Note_on_c, 0, 82, 0
1, 57360, Note_on_c, 0, 66, 0
1, 57360, Note_on_c, 0, 70, 0
1, 57360, Note_on_c, 0, 77, 93
1, 57360, Note_on_c, 0, 65, 73
1, 57600, Tempo, 577201
1, 57600, Note_on_c, 0, 65, 0
1, 57600, Note_on_c, 0, 77, 0
1, 57600, Note_on_c, 0, 78, 79
1, 57600, Note_on_c, 0, 87, 100
1, 57600, Note_on_c, 0, 69, 55
1, 57600, Note_on_c, 0, 66, 55
1, 57600, Note_on_c, 0, 75, 69
1, 57600, Control_c, 0, 64, 0
1, 57605, Control_c, 0, 64, 0
1, 57726, Control_c, 0, 64, 127
1, 57840, Note_on_c, 0, 75, 0
1, 57840, Note_on_c, 0, 69, 0
1, 57840, Note_on_c, 0, 78, 0
1, 57840, Note_on_c, 0, 87, 0
1, 57840, Note_on_c, 0, 66, 0
1, 57840, Note_on_c, 0, 86, 92
1, 57840, Note_on_c, 0, 77, 73
1, 57840, Note_on_c, 0, 74, 63
1, 57840, Note_on_c, 0, 65, 50
1, 58080, Tempo, 562272
1, 58080, Note_on_c, 0, 65, 0
1, 58080, Note_on_c, 0, 86, 0
1, 58080, Note_on_c, 0, 77, 0
1, 58080, Note_on_c, 0, 74, 0
1, 58080, Note_on_c, 0, 79, 89
1, 58080, Note_on_c, 0, 76, 70
1, 58080, Note_on_c, 0, 64, 49
1, 58080, Note_on_c, 0, 67, 62
1, 58086, Control_c, 0, 64, 0
1, 58171, Control_c, 0, 64, 127
1, 58320, Tempo, 576923
1, 58320, Note_on_c, 0, 67, 0
1, 58320, Note_on_c, 0, 79, 0
1, 58320, Note_on_c, 0, 76, 0
1, 58320, Note_on_c, 0, 64, 0
1, 58320, Note_on_c, 0, 75, 60
1, 58320, Note_on_c, 0, 81, 78
1, 58320, Note_on_c, 0, 63, 41
1, 58320, Note_on_c, 0, 69, 55
1, 58560, Tempo, 560748
1, 58560, Note_on_c, 0, 69, 0
1, 58560, Note_on_c, 0, 75, 0
1, 58560, Note_on_c, 0, 81, 0
1, 58560, Note_on_c, 0, 63, 0
1, 58560, Note_on_c, 0, 82, 85
1, 58560, Note_on_c, 0, 74, 67
1, 58560, Note_on_c, 0, 62, 46
1, 58560, Note_on_c, 0, 70, 59
1, 58567, Control_c, 0, 64, 0
1, 58645, Control_c, 0, 64, 127
1, 58800, Note_on_c, 0, 70, 0
1, 58800, Note_on_c, 0, 82, 0
1, 58800, Note_on_c, 0, 74, 0
1, 58800, Note_on_c, 0, 62, 0
1, 58800, Note_on_c, 0, 73, 59
1, 58800, Note_on_c, 0, 77, 76
1, 58800, Note_on_c, 0, 61, 40
1, 58800, Note_on_c, 0, 65, 53
1, 59040, Tempo, 558140
1, 59040, Note_on_c, 0, 65, 0
1, 59040, Note_on_c, 0, 73, 0
1, 59040, Note_on_c, 0, 77, 0
1, 59040, Note_on_c, 0, 61, 0
1, 59040, Note_on_c, 0, 72, 63
1, 59040, Note_on_c, 0, 80, 80
1, 59040, Note_on_c, 0, 60, 43
1, 59040, Note_on_c, 0, 68, 56
1, 59055, Control_c, 0, 64, 0
1, 59189, Control_c, 0, 64, 127
1, 59280, Note_on_c, 0, 68, 0
1, 59280, Note_on_c, 0, 72, 0
1, 59280, Note_on_c, 0, 80, 0
1, 59280, Note_on_c, 0, 60, 0
1, 59280, Note_on_c, 0, 78, 76
1, 59280, Note_on_c, 0, 70, 59
1, 59280, Note_on_c, 0, 58, 40
1, 59280, Note_on_c, 0, 66, 53
1, 59520, Note_on_c, 0, 66, 0
1, 59520, Note_on_c, 0, 78, 0
1, 59520, Note_on_c, 0, 70, 0
1, 59520, Note_on_c, 0, 58, 0
1, 59520, Note_on_c, 0, 69, 59
1, 59520, Note_on_c, 0, 72, 75
1, 59520, Note_on_c, 0, 57, 40
1, 59520, Note_on_c, 0, 60, 52
1, 59529, Control_c, 0, 64, 0
1, 59657, Control_c, 0, 64, 127
1, 59760, Note_on_c, 0, 60, 0
1, 59760, Note_on_c, 0, 69, 0
1, 59760, Note_on_c, 0, 72, 0
1, 59760, Note_on_c, 0, 57, 0
1, 59760, Note_on_c, 0, 74, 72
1, 59760, Note_on_c, 0, 68, 57
1, 59760, Note_on_c, 0, 56, 38
1, 59760, Note_on_c, 0, 62, 50
1, 60000, Note_on_c, 0, 62, 0
1, 60000, Note_on_c, 0, 74, 0
1, 60000, Note_on_c, 0, 68, 0
1, 60000, Note_on_c, 0, 56, 0
1, 60000, Note_on_c, 0, 67, 60
1, 60000, Note_on_c, 0, 75, 76
1, 60000, Note_on_c, 0, 55, 41
1, 60000, Note_on_c, 0, 63, 54
1, 60008, Control_c, 0, 64, 0
1, 60103, Control_c, 0, 64, 127
1, 60240, Tempo, 586568
1, 60240, Note_on_c, 0, 63, 0
1, 60240, Note_on_c, 0, 67, 0
1, 60240, Note_on_c, 0, 75, 0
1, 60240, Note_on_c, 0, 55, 0
1, 60240, Note_on_c, 0, 66, 55
1, 60240, Note_on_c, 0, 70, 69
1, 60240, Note_on_c, 0, 54, 38
1, 60240, Note_on_c, 0, 58, 47
1, 60480, Tempo, 565185
1, 60480, Note_on_c, 0, 58, 0
1, 60480, Note_on_c, 0, 66, 0
1, 60480, Note_on_c, 0, 70, 0
1, 60480, Note_on_c, 0, 54, 0
1, 60480, Note_on_c, 0, 73, 78
1, 60480, Note_on_c, 0, 65, 62
1, 60480, Note_on_c, 0, 53, 43
1, 60480, Note_on_c, 0, 61, 54
1, 60494, Control_c, 0, 64, 0
1, 60595, Control_c, 0, 64, 127
1, 60720, Note_on_c, 0, 61, 0
1, 60720, Note_on_c, 0, 73, 0
1, 60720, Note_on_c, 0, 65, 0
1, 60720, Note_on_c, 0, 53, 0
1, 60720, Note_on_c, 0, 64, 55
1, 60720, Note_on_c, 0, 72, 70
1, 60720, Note_on_c, 0, 52, 32
1, 60720, Note_on_c, 0, 60, 50
1, 60960, Note_on_c, 0, 60, 0
1, 60960, Note_on_c, 0, 64, 0
1, 60960, Note_on_c, 0, 72, 0
1, 60960, Note_on_c, 0, 52, 0
1, 60960, Note_on_c, 0, 67, 70
1, 60960, Note_on_c, 0, 63, 54
1, 60960, Note_on_c, 0, 51, 36
1, 60960, Note_on_c, 0, 55, 49
1, 60976, Control_c, 0, 64, 0
1, 61074, Control_c, 0, 64, 127
1, 61200, Tempo, 571429
1, 61200, Note_on_c, 0, 55, 0
1, 61200, Note_on_c, 0, 67, 0
1, 61200, Note_on_c, 0, 63, 0
1, 61200, Note_on_c, 0, 51, 0
1, 61200, Note_on_c, 0, 62, 53
1, 61200, Note_on_c, 0, 68, 66
1, 61200, Note_on_c, 0, 50, 36
1, 61200, Note_on_c, 0, 56, 45
1, 61440, Tempo, 563380
1, 61440, Note_on_c, 0, 56, 0
1, 61440, Note_on_c, 0, 62, 0
1, 61440, Note_on_c, 0, 68, 0
1, 61440, Note_on_c, 0, 50, 0
1, 61440, Note_on_c, 0, 61, 55
1, 61440, Note_on_c, 0, 69, 70
1, 61440, Note_on_c, 0, 49, 36
1, 61440, Note_on_c, 0, 57, 48
1, 61452, Control_c, 0, 64, 0
1, 61543, Control_c, 0, 64, 127
1, 61680, Tempo, 593003
1, 61680, Note_on_c, 0, 57, 0
1, 61680, Note_on_c, 0, 61, 0
1, 61680, Note_on_c, 0, 69, 0
1, 61680, Note_on_c, 0, 49, 0
1, 61680, Note_on_c, 0, 63, 65
1, 61680, Note_on_c, 0, 60, 52
1, 61680, Note_on_c, 0, 48, 36
1, 61680, Note_on_c, 0, 51, 45
1, 61920, Tempo, 571157
1, 61920, Note_on_c, 0, 51, 0
1, 61920, Note_on_c, 0, 63, 0
1, 61920, Note_on_c, 0, 60, 0
1, 61920, Note_on_c, 0, 48, 0
1, 61920, Note_on_c, 0, 58, 57
1, 61920, Note_on_c, 0, 66, 73
1, 61920, Note_on_c, 0, 46, 37
1, 61920, Note_on_c, 0, 54, 49
1, 61937, Control_c, 0, 64, 0
1, 62023, Control_c, 0, 64, 127
1, 62160, Note_on_c, 0, 54, 0
1, 62160, Note_on_c, 0, 58, 0
1, 62160, Note_on_c, 0, 66, 0
1, 62160, Note_on_c, 0, 46, 0
1, 62160, Note_on_c, 0, 65, 65
1, 62160, Note_on_c, 0, 57, 52
1, 62160, Note_on_c, 0, 45, 36
1, 62160, Note_on_c, 0, 53, 45
1, 62400, Tempo, 568128
1, 62400, Note_on_c, 0, 53, 0
1, 62400, Note_on_c, 0, 65, 0
1, 62400, Note_on_c, 0, 57, 0
1, 62400, Note_on_c, 0, 45, 0
1, 62400, Note_on_c, 0, 56, 55
1, 62400, Note_on_c, 0, 60, 70
1, 62400, Note_on_c, 0, 44, 37
1, 62400, Note_on_c, 0, 48, 48
1, 62414, Control_c, 0, 64, 0
1, 62520, Tempo, 571157
1, 62526, Control_c, 0, 64, 127
1, 62640, Tempo, 574163
1, 62640, Note_on_c, 0, 48, 0
1, 62640, Note_on_c, 0, 56, 0
1, 62640, Note_on_c, 0, 60, 0
1, 62640, Note_on_c, 0, 44, 0
1, 62640, Note_on_c, 0, 55, 47
1, 62640, Note_on_c, 0, 62, 60
1, 62640, Note_on_c, 0, 43, 32
1, 62640, Note_on_c, 0, 50, 40
1, 62760, Tempo, 577201
1, 62840, Tempo, 580271
1, 62880, Tempo, 621762
1, 62880, Note_on_c, 0, 50, 0
1, 62880, Note_on_c, 0, 55, 0
1, 62880, Note_on_c, 0, 62, 0
1, 62880, Note_on_c, 0, 43, 0
1, 62880, Note_on_c, 0, 63, 69
1, 62880, Note_on_c, 0, 54, 52
1, 62880, Note_on_c, 0, 42, 37
1, 62880, Note_on_c, 0, 51, 45
1, 62895, Control_c, 0, 64, 0
1, 63063, Control_c, 0, 64, 127
1, 63120, Tempo, 681818
1, 63120, Note_on_c, 0, 51, 0
1, 63120, Note_on_c, 0, 42, 0
1, 63120, Note_on_c, 0, 54, 0
1, 63120, Note_on_c, 0, 53, 50
1, 63120, Note_on_c, 0, 57, 62
1, 63120, Note_on_c, 0, 41, 35
1, 63360, Note_on_c, 0, 41, 0
1, 63360, Note_on_c, 0, 63, 0
1, 63360, Note_on_c, 0, 53, 0
1, 63360, Note_on_c, 0, 57, 0
1, 63360, Note_on_c, 0, 58, 57
1, 63360, Note_on_c, 0, 62, 73
1, 63360, Note_on_c, 0, 53, 57
1, 63360, Note_on_c, 0, 34, 50
1, 63376, Control_c, 0, 64, 0
1, 63400, Tempo, 641711
1, 63475, Control_c, 0, 64, 127
1, 63600, Tempo, 585366
1, 63600, Note_on_c, 0, 34, 0
1, 63600, Note_on_c, 0, 58, 0
1, 63600, Note_on_c, 0, 62, 0
1, 63600, Note_on_c, 0, 53, 0
1, 63600, Note_on_c, 0, 52, 43
1, 63720, Tempo, 582524
1, 63800, Tempo, 579710
1, 63840, Note_on_c, 0, 52, 0
1, 63840, Note_on_c, 0, 53, 47
1, 63857, Control_c, 0, 64, 0
1, 64080, Note_on_c, 0, 53, 0
1, 64080, Note_on_c, 0, 58, 43
1, 64320, Tempo, 588235
1, 64320, Note_on_c, 0, 58, 0
1, 64320, Note_on_c, 0, 57, 43
1, 64560, Note_on_c, 0, 57, 0
1, 64560, Note_on_c, 0, 55, 43
1, 64800, Tempo, 630915
1, 64800, Note_on_c, 0, 55, 0
1, 64800, Note_on_c, 0, 41, 55
1, 64880, Control_c, 0, 64, 127
1, 65040, Tempo, 589739
1, 65040, Note_on_c, 0, 41, 0
1, 65040, Note_on_c, 0, 66, 44
1, 65040, Note_on_c, 0, 75, 56
1, 65040, Note_on_c, 0, 54, 35
1, 65040, Note_on_c, 0, 63, 44
1, 65080, Tempo, 589739
1, 65280, Note_on_c, 0, 63, 0
1, 65280, Note_on_c, 0, 66, 0
1, 65280, Note_on_c, 0, 75, 0
1, 65280, Note_on_c, 0, 54, 0
1, 65280, Note_on_c, 0, 69, 54
1, 65280, Note_on_c, 0, 65, 43
1, 65280, Note_on_c, 0, 53, 34
1, 65280, Note_on_c, 0, 57, 43
1, 65288, Control_c, 0, 64, 0
1, 65320, Tempo, 586568
1, 65394, Control_c, 0, 64, 127
1, 65520, Tempo, 583431
1, 65520, Note_on_c, 0, 57, 0
1, 65520, Note_on_c, 0, 69, 0
1, 65520, Note_on_c, 0, 65, 0
1, 65520, Note_on_c, 0, 53, 0
1, 65520, Note_on_c, 0, 64, 39
1, 65520, Note_on_c, 0, 70, 50
1, 65520, Note_on_c, 0, 52, 31
1, 65520, Note_on_c, 0, 58, 39
1, 65720, Tempo, 580271
1, 65760, Tempo, 593003
1, 65760, Note_on_c, 0, 58, 0
1, 65760, Note_on_c, 0, 64, 0
1, 65760, Note_on_c, 0, 70, 0
1, 65760, Note_on_c, 0, 52, 0
1, 65760, Note_on_c, 0, 63, 40
1, 65760, Note_on_c, 0, 72, 50
1, 65760, Note_on_c, 0, 51, 32
1, 65760, Note_on_c, 0, 60, 40
1, 65771, Control_c, 0, 64, 0
1, 65852, Control_c, 0, 64, 127
1, 66000, Tempo, 623636
1, 66000, Note_on_c, 0, 60, 0
1, 66000, Note_on_c, 0, 51, 0
1, 66000, Note_on_c, 0, 66, 47
1, 66000, Note_on_c, 0, 54, 37
1, 66240, Tempo, 649773
1, 66240, Note_on_c, 0, 54, 0
1, 66240, Note_on_c, 0, 63, 0
1, 66240, Note_on_c, 0, 72, 0
1, 66240, Note_on_c, 0, 66, 0
1, 66240, Note_on_c, 0, 62, 45
1, 66240, Note_on_c, 0, 65, 45
1, 66240, Note_on_c, 0, 70, 45
1, 66240, Note_on_c, 0, 74, 58
1, 66240, Control_c, 0, 64, 0
1, 66240, Note_on_c, 0, 46, 50
1, 66366, Control_c, 0, 64, 127
1, 66480, Tempo, 609632
1, 66480, Note_on_c, 0, 46, 0
1, 66480, Note_on_c, 0, 52, 43
1, 66492, Control_c, 0, 64, 0
1, 66720, Tempo, 585366
1, 66720, Note_on_c, 0, 52, 0
1, 66720, Note_on_c, 0, 74, 0
1, 66720, Note_on_c, 0, 62, 0
1, 66720, Note_on_c, 0, 65, 0
1, 66720, Note_on_c, 0, 70, 0
1, 66720, Note_on_c, 0, 53, 46
1, 66960, Note_on_c, 0, 53, 0
1, 66960, Note_on_c, 0, 58, 39
1, 67200, Tempo, 588235
1, 67200, Note_on_c, 0, 58, 0
1, 67200, Note_on_c, 0, 57, 43
1, 67440, Note_on_c, 0, 57, 0
1, 67440, Note_on_c, 0, 55, 37
1, 67680, Tempo, 630915
1, 67680, Note_on_c, 0, 55, 0
1, 67680, Note_on_c, 0, 41, 54
1, 67760, Control_c, 0, 64, 127
1, 67920, Tempo, 589739
1, 67920, Note_on_c, 0, 41, 0
1, 67920, Note_on_c, 0, 75, 56
1, 67920, Note_on_c, 0, 66, 44
1, 67920, Note_on_c, 0, 54, 35
1, 67920, Note_on_c, 0, 63, 44
1, 67960, Tempo, 589739
1, 68160, Note_on_c, 0, 63, 0
1, 68160, Note_on_c, 0, 75, 0
1, 68160, Note_on_c, 0, 66, 0
1, 68160, Note_on_c, 0, 54, 0
1, 68160, Note_on_c, 0, 65, 43
1, 68160, Note_on_c, 0, 69, 54
1, 68160, Note_on_c, 0, 53, 34
1, 68160, Note_on_c, 0, 57, 43
1, 68172, Control_c, 0, 64, 0
1, 68200, Tempo, 586568
1, 68297, Control_c, 0, 64, 127
1, 68400, Tempo, 583431
1, 68400, Note_on_c, 0, 57, 0
1, 68400, Note_on_c, 0, 65, 0
1, 68400, Note_on_c, 0, 69, 0
1, 68400, Note_on_c, 0, 53, 0
1, 68400, Note_on_c, 0, 70, 50
1, 68400, Note_on_c, 0, 64, 39
1, 68400, Note_on_c, 0, 52, 31
1, 68400, Note_on_c, 0, 58, 39
1, 68600, Tempo, 580271
1, 68640, Tempo, 593003
1, 68640, Note_on_c, 0, 58, 0
1, 68640, Note_on_c, 0, 70, 0
1, 68640, Note_on_c, 0, 64, 0
1, 68640, Note_on_c, 0, 52, 0
1, 68640, Note_on_c, 0, 63, 40
1, 68640, Note_on_c, 0, 72, 50
1, 68640, Note_on_c, 0, 51, 32
1, 68640, Note_on_c, 0, 60, 40
1, 68649, Control_c, 0, 64, 0
1, 68766, Control_c, 0, 64, 127
1, 68880, Tempo, 649351
1, 68880, Note_on_c, 0, 60, 0
1, 68880, Note_on_c, 0, 51, 0
1, 68880, Note_on_c, 0, 66, 47
1, 68880, Note_on_c, 0, 54, 37
1, 69120, Tempo, 649773
1, 69120, Note_on_c, 0, 54, 0
1, 69120, Note_on_c, 0, 63, 0
1, 69120, Note_on_c, 0, 72, 0
1, 69120, Note_on_c, 0, 66, 0
1, 69120, Note_on_c, 0, 65, 45
1, 69120, Note_on_c, 0, 70, 45
1, 69120, Note_on_c, 0, 62, 45
1, 69120, Note_on_c, 0, 74, 58
1, 69120, Note_on_c, 0, 34, 50
1, 69154, Control_c, 0, 64, 0
1, 69246, Control_c, 0, 64, 127
1, 69360, Tempo, 609632
1, 69360, Note_on_c, 0, 34, 0
1, 69360, Note_on_c, 0, 40, 43
1, 69375, Control_c, 0, 64, 0
1, 69600, Tempo, 589739
1, 69600, Note_on_c, 0, 40, 0
1, 69600, Note_on_c, 0, 74, 0
1, 69600, Note_on_c, 0, 65, 0
1, 69600, Note_on_c, 0, 70, 0
1, 69600, Note_on_c, 0, 62, 0
1, 69600, Note_on_c, 0, 41, 46
1, 69840, Note_on_c, 0, 41, 0
1, 69840, Note_on_c, 0, 46, 39
1, 70080, Tempo, 606244
1, 70080, Note_on_c, 0, 46, 0
1, 70080, Note_on_c, 0, 45, 43
1, 70320, Tempo, 622407
1, 70320, Note_on_c, 0, 45, 0
1, 70320, Note_on_c, 0, 43, 37
1, 70560, Tempo, 599520
1, 70560, Note_on_c, 0, 43, 0
1, 70560, Note_on_c, 0, 67, 58
1, 70560, Note_on_c, 0, 62, 58
1, 70560, Note_on_c, 0, 55, 49
1, 70560, Note_on_c, 0, 58, 49
1, 70560, Note_on_c, 0, 31, 47
1, 70687, Control_c, 0, 64, 127
1, 71280, Tempo, 602894
1, 71280, Note_on_c, 0, 58, 0
1, 71280, Note_on_c, 0, 62, 0
1, 71280, Note_on_c, 0, 60, 54
1, 71520, Note_on_c, 0, 60, 0
1, 71520, Note_on_c, 0, 31, 0
1, 71520, Note_on_c, 0, 63, 58
1, 71520, Note_on_c, 0, 33, 44
1, 71534, Control_c, 0, 64, 0
1, 71760, Tempo, 622407
1, 71760, Note_on_c, 0, 63, 0
1, 71760, Note_on_c, 0, 62, 51
1, 72000, Tempo, 649773
1, 72000, Note_on_c, 0, 62, 0
1, 72000, Note_on_c, 0, 33, 0
1, 72000, Note_on_c, 0, 55, 0
1, 72000, Note_on_c, 0, 67, 0
1, 72000, Note_on_c, 0, 58, 48
1, 72000, Note_on_c, 0, 53, 48
1, 72000, Note_on_c, 0, 62, 57
1, 72000, Note_on_c, 0, 65, 57
1, 72000, Note_on_c, 0, 34, 50
1, 72126, Control_c, 0, 64, 127
1, 72240, Tempo, 609632
1, 72240, Note_on_c, 0, 34, 0
1, 72240, Note_on_c, 0, 40, 43
1, 72266, Control_c, 0, 64, 0
1, 72480, Tempo, 589739
1, 72480, Note_on_c, 0, 40, 0
1, 72480, Note_on_c, 0, 41, 46
1, 72720, Note_on_c, 0, 41, 0
1, 72720, Note_on_c, 0, 46, 39
1, 72960, Note_on_c, 0, 46, 0
1, 72960, Note_on_c, 0, 62, 0
1, 72960, Note_on_c, 0, 45, 43
1, 73200, Tempo, 634585
1, 73200, Note_on_c, 0, 45, 0
1, 73200, Note_on_c, 0, 43, 37
1, 73440, Tempo, 599520
1, 73440, Note_on_c, 0, 43, 0
1, 73440, Note_on_c, 0, 58, 0
1, 73440, Note_on_c, 0, 53, 0
1, 73440, Note_on_c, 0, 65, 0
1, 73440, Note_on_c, 0, 58, 49
1, 73440, Note_on_c, 0, 62, 58
1, 73440, Note_on_c, 0, 55, 49
1, 73440, Note_on_c, 0, 67, 58
1, 73440, Note_on_c, 0, 31, 47
1, 73624, Control_c, 0, 64, 127
1, 74160, Tempo, 602894
1, 74160, Note_on_c, 0, 62, 0
1, 74160, Note_on_c, 0, 58, 0
1, 74160, Note_on_c, 0, 60, 54
1, 74400, Note_on_c, 0, 60, 0
1, 74400, Note_on_c, 0, 31, 0
1, 74400, Note_on_c, 0, 63, 58
1, 74400, Note_on_c, 0, 33, 44
1, 74414, Control_c, 0, 64, 0
1, 74640, Note_on_c, 0, 63, 0
1, 74640, Note_on_c, 0, 62, 51
1, 74880, Tempo, 649773
1, 74880, Note_on_c, 0, 62, 0
1, 74880, Note_on_c, 0, 33, 0
1, 74880, Note_on_c, 0, 55, 0
1, 74880, Note_on_c, 0, 67, 0
1, 74880, Note_on_c, 0, 53, 48
1, 74880, Note_on_c, 0, 58, 48
1, 74880, Note_on_c, 0, 62, 57
1, 74880, Note_on_c, 0, 65, 57
1, 74880, Note_on_c, 0, 34, 50
1, 75006, Control_c, 0, 64, 127
1, 75120, Tempo, 609632
1, 75120, Note_on_c, 0, 34, 0
1, 75120, Note_on_c, 0, 40, 43
1, 75146, Control_c, 0, 64, 0
1, 75360, Tempo, 589739
1, 75360, Note_on_c, 0, 40, 0
1, 75360, Note_on_c, 0, 41, 46
1, 75600, Note_on_c, 0, 41, 0
1, 75600, Note_on_c, 0, 46, 39
1, 75840, Note_on_c, 0, 46, 0
1, 75840, Note_on_c, 0, 45, 43
1, 76080, Note_on_c, 0, 45, 0
1, 76080, Note_on_c, 0, 43, 37
1, 76320, Tempo, 620091
1, 76320, Note_on_c, 0, 43, 0
1, 76320, Note_on_c, 0, 34, 50
1, 76446, Control_c, 0, 64, 127
1, 76560, Tempo, 609632
1, 76560, Note_on_c, 0, 34, 0
1, 76560, Note_on_c, 0, 40, 43
1, 76575, Control_c, 0, 64, 0
1, 76800, Tempo, 589739
1, 76800, Note_on_c, 0, 40, 0
1, 76800, Note_on_c, 0, 41, 50
1, 77040, Note_on_c, 0, 41, 0
1, 77040, Note_on_c, 0, 46, 43
1, 77280, Note_on_c, 0, 46, 0
1, 77280, Note_on_c, 0, 45, 51
1, 77520, Note_on_c, 0, 45, 0
1, 77520, Note_on_c, 0, 43, 48
1, 77760, Tempo, 620091
1, 77760, Note_on_c, 0, 43, 0
1, 77760, Note_on_c, 0, 34, 50
1, 77886, Control_c, 0, 64, 127
1, 78000, Tempo, 609632
1, 78000, Note_on_c, 0, 34, 0
1, 78000, Note_on_c, 0, 40, 43
1, 78020, Control_c, 0, 64, 0
1, 78240, Tempo, 589739
1, 78240, Note_on_c, 0, 40, 0
1, 78240, Note_on_c, 0, 41, 50
1, 78469, Note_on_c, 0, 48, 43
1, 78480, Note_on_c, 0, 41, 0
1, 78709, Note_on_c, 0, 48, 0
1, 78720, Note_on_c, 0, 45, 51
1, 78960, Note_on_c, 0, 45, 0
1, 78960, Note_on_c, 0, 46, 48
1, 79200, Note_on_c, 0, 46, 0
1, 79200, Note_on_c, 0, 62, 0
1, 79200, Note_on_c, 0, 53, 0
1, 79200, Note_on_c, 0, 58, 0
1, 79200, Note_on_c, 0, 65, 0
1, 79200, Note_on_c, 0, 51, 56
1, 79280, Control_c, 0, 64, 127
1, 79440, Note_on_c, 0, 51, 0
1, 79440, Note_on_c, 0, 49, 53
1, 79450, Control_c, 0, 64, 0
1, 79680, Tempo, 602168
1, 79680, Note_on_c, 0, 49, 0
1, 79680, Note_on_c, 0, 50, 61
1, 79920, Note_on_c, 0, 50, 0
1, 79920, Note_on_c, 0, 55, 55
1, 80160, Tempo, 622148
1, 80160, Note_on_c, 0, 55, 0
1, 80160, Note_on_c, 0, 52, 62
1, 80400, Tempo, 717360
1, 80400, Note_on_c, 0, 52, 0
1, 80400, Note_on_c, 0, 53, 58
1, 80640, Note_on_c, 0, 53, 0
1, 80640, Note_on_c, 0, 62, 69
1, 80747, Control_c, 0, 64, 127
1, 81120, Note_on_c, 0, 62, 0
1, 81147, Control_c, 0, 64, 0
1, 82080, Note_on_c, 0, 60, 60
1, 82080, Note_on_c, 0, 53, 60
1, 82080, Note_on_c, 0, 63, 71
1, 82080, Note_on_c, 0, 65, 71
1, 82080, Note_on_c, 0, 41, 53
1, 82080, Note_on_c, 0, 29, 45
1, 82267, Control_c, 0, 64, 127
1, 83520, Note_on_c, 0, 29, 0
1, 83520, Note_on_c, 0, 53, 0
1, 83520, Note_on_c, 0, 63, 0
1, 83520, Note_on_c, 0, 60, 0
1, 83520, Note_on_c, 0, 41, 0
1, 83520, Note_on_c, 0, 65, 0
1, 83520, Note_on_c, 0, 65, 71
1, 83520, Note_on_c, 0, 58, 61
1, 83520, Note_on_c, 0, 62, 72
1, 83520, Note_on_c, 0, 53, 61
1, 83520, Note_on_c, 0, 34, 46
1, 83520, Control_c, 0, 64, 0
1, 83520, Note_on_c, 0, 46, 55
1, 83920, Control_c, 0, 64, 127
1, 84960, Note_on_c, 0, 46, 0
1, 84960, Note_on_c, 0, 58, 0
1, 84960, Note_on_c, 0, 62, 0
1, 84960, Note_on_c, 0, 65, 0
1, 84960, Note_on_c, 0, 34, 0
1, 84960, Note_on_c, 0, 53, 0
1, 85920, Control_c, 0, 64, 0
1, 85920, End_track
0, 0, End_of_file
