0, 0, Header, 0, 1, 480
1, 0, Start_track
1, 0, Title_t, "Sonate opus 35, 2. Satz"
1, 0, Copyright_t, "Copyright © 2002 by Bernd Krueger"
1, 0, Text_t, "Frederic Chopin"
1, 0, Text_t, "Scherzo"
1, 0, Text_t, "Fertiggestellt am 1.3.2002\012"
1, 0, Text_t, "Update am 22.3.2002\012"
1, 0, Text_t, "Normierung: 23.12.2002\012"
1, 0, Text_t, "Update am 6.8.2010\012"
1, 0, Text_t, "Update am 26.2.2014\012"
1, 0, Text_t, "Dauer: 6:35 Minuten\012"
1, 0, SMPTE_offset, 96, 0, 3, 0, 0
1, 0, Time_signature, 3, 2, 24, 8
1, 0, Key_signature, -6, "major"
1, 0, Tempo, 320410
1, 0, Marker_t, "Teil 1"
1, 0, Program_c, 0, 0
1, 0, Control_c, 0, 7, 100
1, 0, Control_c, 0, 10, 64
1, 0, Control_c, 0, 64, 0
1, 0, Text_t, "bdca426d104a26ac9dcb070447587523"
1, 0, Control_c, 0, 91, 127
1, 0, Program_c, 0, 0
1, 0, Control_c, 0, 7, 100
1, 0, Control_c, 0, 10, 64
1, 960, Tempo, 282992
1, 960, Note_on_c, 0, 58, 72
1, 960, Note_on_c, 0, 34, 40
1, 960, Note_on_c, 0, 46, 47
1, 1440, Tempo, 264271
1, 1440, Note_on_c, 0, 46, 0
1, 1440, Note_on_c, 0, 34, 0
1, 1440, Note_on_c, 0, 58, 0
1, 1440, Note_on_c, 0, 51, 47
1, 1440, Note_on_c, 0, 63, 56
1, 1440, Note_on_c, 0, 27, 36
1, 1440, Note_on_c, 0, 39, 42
1, 1530, Note_on_c, 0, 63, 0
1, 1530, Note_on_c, 0, 51, 0
1, 1680, Tempo, 269227
1, 1680, Note_on_c, 0, 51, 49
1, 1680, Note_on_c, 0, 63, 58
1, 1770, Note_on_c, 0, 63, 0
1, 1770, Note_on_c, 0, 51, 0
1, 1920, Tempo, 263667
1, 1920, Note_on_c, 0, 27, 0
1, 1920, Note_on_c, 0, 39, 0
1, 1920, Note_on_c, 0, 51, 54
1, 1920, Note_on_c, 0, 63, 64
1, 1920, Note_on_c, 0, 28, 36
1, 1920, Note_on_c, 0, 40, 42
1, 2010, Note_on_c, 0, 40, 0
1, 2010, Note_on_c, 0, 51, 0
1, 2010, Note_on_c, 0, 63, 0
1, 2010, Note_on_c, 0, 28, 0
1, 2160, Tempo, 281070
1, 2160, Note_on_c, 0, 51, 56
1, 2160, Note_on_c, 0, 63, 65
1, 2160, Note_on_c, 0, 29, 36
1, 2160, Note_on_c, 0, 41, 45
1, 2250, Note_on_c, 0, 41, 0
1, 2250, Note_on_c, 0, 51, 0
1, 2250, Note_on_c, 0, 63, 0
1, 2250, Note_on_c, 0, 29, 0
1, 2320, Tempo, 265498
1, 2360, Tempo, 266111
1, 2400, Tempo, 283152
1, 2400, Note_on_c, 0, 51, 61
1, 2400, Note_on_c, 0, 63, 72
1, 2400, Note_on_c, 0, 30, 42
1, 2400, Note_on_c, 0, 42, 50
1, 2880, Tempo, 275141
1, 2880, Note_on_c, 0, 42, 0
1, 2880, Note_on_c, 0, 51, 0
1, 2880, Note_on_c, 0, 63, 0
1, 2880, Note_on_c, 0, 30, 0
1, 2880, Note_on_c, 0, 65, 80
1, 2880, Note_on_c, 0, 59, 67
1, 2880, Note_on_c, 0, 63, 67
1, 2880, Note_on_c, 0, 53, 67
1, 2880, Note_on_c, 0, 32, 50
1, 2880, Note_on_c, 0, 44, 59
1, 3006, Control_c, 0, 64, 127
1, 3270, Note_on_c, 0, 44, 0
1, 3270, Note_on_c, 0, 32, 0
1, 3270, Note_on_c, 0, 44, 37
1, 3300, Note_on_c, 0, 51, 37
1, 3326, Control_c, 0, 64, 0
1, 3330, Note_on_c, 0, 53, 37
1, 3360, Tempo, 271358
1, 3360, Note_on_c, 0, 63, 0
1, 3360, Note_on_c, 0, 53, 0
1, 3360, Note_on_c, 0, 65, 0
1, 3360, Note_on_c, 0, 59, 0
1, 3360, Note_on_c, 0, 65, 56
1, 3360, Note_on_c, 0, 71, 56
1, 3360, Note_on_c, 0, 75, 56
1, 3360, Note_on_c, 0, 77, 68
1, 3360, Note_on_c, 0, 59, 46
1, 3417, Control_c, 0, 64, 127
1, 3600, Note_on_c, 0, 77, 0
1, 3600, Note_on_c, 0, 65, 0
1, 3600, Note_on_c, 0, 71, 0
1, 3600, Note_on_c, 0, 75, 0
1, 3600, Note_on_c, 0, 63, 55
1, 3600, Note_on_c, 0, 75, 66
1, 3750, Note_on_c, 0, 53, 0
1, 3750, Note_on_c, 0, 51, 0
1, 3750, Note_on_c, 0, 59, 0
1, 3750, Note_on_c, 0, 44, 0
1, 3750, Note_on_c, 0, 46, 37
1, 3780, Note_on_c, 0, 53, 37
1, 3797, Control_c, 0, 64, 0
1, 3810, Note_on_c, 0, 56, 37
1, 3840, Tempo, 268601
1, 3840, Note_on_c, 0, 75, 0
1, 3840, Note_on_c, 0, 63, 0
1, 3840, Note_on_c, 0, 65, 56
1, 3840, Note_on_c, 0, 70, 56
1, 3840, Note_on_c, 0, 74, 56
1, 3840, Note_on_c, 0, 77, 68
1, 3840, Note_on_c, 0, 62, 46
1, 4080, Tempo, 283849
1, 4080, Note_on_c, 0, 77, 0
1, 4080, Note_on_c, 0, 65, 0
1, 4080, Note_on_c, 0, 70, 0
1, 4080, Note_on_c, 0, 74, 0
1, 4080, Note_on_c, 0, 66, 53
1, 4080, Note_on_c, 0, 78, 65
1, 4293, Note_on_c, 0, 56, 0
1, 4320, Tempo, 263667
1, 4320, Note_on_c, 0, 46, 0
1, 4320, Note_on_c, 0, 53, 0
1, 4320, Note_on_c, 0, 62, 0
1, 4320, Note_on_c, 0, 78, 0
1, 4320, Note_on_c, 0, 66, 0
1, 4320, Note_on_c, 0, 54, 49
1, 4320, Note_on_c, 0, 66, 59
1, 4320, Note_on_c, 0, 30, 38
1, 4320, Note_on_c, 0, 42, 44
1, 4410, Note_on_c, 0, 66, 0
1, 4410, Note_on_c, 0, 54, 0
1, 4560, Tempo, 269227
1, 4560, Note_on_c, 0, 54, 52
1, 4560, Note_on_c, 0, 66, 61
1, 4650, Note_on_c, 0, 66, 0
1, 4650, Note_on_c, 0, 54, 0
1, 4800, Tempo, 263667
1, 4800, Note_on_c, 0, 30, 0
1, 4800, Note_on_c, 0, 42, 0
1, 4800, Note_on_c, 0, 54, 57
1, 4800, Note_on_c, 0, 66, 67
1, 4800, Note_on_c, 0, 31, 38
1, 4800, Note_on_c, 0, 43, 44
1, 4890, Note_on_c, 0, 43, 0
1, 4890, Note_on_c, 0, 54, 0
1, 4890, Note_on_c, 0, 66, 0
1, 4890, Note_on_c, 0, 31, 0
1, 5040, Tempo, 284549
1, 5040, Note_on_c, 0, 54, 57
1, 5040, Note_on_c, 0, 66, 66
1, 5040, Note_on_c, 0, 32, 35
1, 5040, Note_on_c, 0, 44, 43
1, 5130, Note_on_c, 0, 44, 0
1, 5130, Note_on_c, 0, 54, 0
1, 5130, Note_on_c, 0, 66, 0
1, 5130, Note_on_c, 0, 32, 0
1, 5200, Tempo, 266111
1, 5240, Tempo, 266111
1, 5280, Tempo, 279707
1, 5280, Note_on_c, 0, 54, 64
1, 5280, Note_on_c, 0, 66, 75
1, 5280, Note_on_c, 0, 33, 43
1, 5280, Note_on_c, 0, 45, 51
1, 5760, Tempo, 273623
1, 5760, Note_on_c, 0, 45, 0
1, 5760, Note_on_c, 0, 54, 0
1, 5760, Note_on_c, 0, 66, 0
1, 5760, Note_on_c, 0, 33, 0
1, 5760, Note_on_c, 0, 56, 67
1, 5760, Note_on_c, 0, 62, 69
1, 5760, Note_on_c, 0, 66, 69
1, 5760, Note_on_c, 0, 68, 82
1, 5760, Note_on_c, 0, 35, 53
1, 5760, Note_on_c, 0, 47, 63
1, 5838, Control_c, 0, 64, 127
1, 6150, Note_on_c, 0, 47, 0
1, 6150, Note_on_c, 0, 35, 0
1, 6150, Note_on_c, 0, 48, 39
1, 6180, Note_on_c, 0, 54, 39
1, 6210, Note_on_c, 0, 56, 39
1, 6240, Tempo, 270636
1, 6240, Note_on_c, 0, 66, 0
1, 6240, Note_on_c, 0, 68, 0
1, 6240, Note_on_c, 0, 56, 0
1, 6240, Note_on_c, 0, 62, 0
1, 6240, Note_on_c, 0, 80, 72
1, 6240, Note_on_c, 0, 74, 59
1, 6240, Note_on_c, 0, 78, 59
1, 6240, Note_on_c, 0, 68, 59
1, 6240, Control_c, 0, 64, 0
1, 6240, Note_on_c, 0, 62, 48
1, 6279, Control_c, 0, 64, 127
1, 6480, Note_on_c, 0, 68, 0
1, 6480, Note_on_c, 0, 80, 0
1, 6480, Note_on_c, 0, 74, 0
1, 6480, Note_on_c, 0, 78, 0
1, 6480, Note_on_c, 0, 66, 58
1, 6480, Note_on_c, 0, 78, 70
1, 6630, Note_on_c, 0, 56, 0
1, 6630, Note_on_c, 0, 54, 0
1, 6630, Note_on_c, 0, 62, 0
1, 6630, Note_on_c, 0, 48, 0
1, 6630, Note_on_c, 0, 49, 39
1, 6660, Note_on_c, 0, 56, 39
1, 6675, Control_c, 0, 64, 0
1, 6690, Note_on_c, 0, 59, 39
1, 6720, Tempo, 267344
1, 6720, Note_on_c, 0, 78, 0
1, 6720, Note_on_c, 0, 66, 0
1, 6720, Note_on_c, 0, 80, 72
1, 6720, Note_on_c, 0, 73, 59
1, 6720, Note_on_c, 0, 77, 59
1, 6720, Note_on_c, 0, 68, 59
1, 6720, Note_on_c, 0, 65, 48
1, 6960, Tempo, 282459
1, 6960, Note_on_c, 0, 68, 0
1, 6960, Note_on_c, 0, 80, 0
1, 6960, Note_on_c, 0, 73, 0
1, 6960, Note_on_c, 0, 77, 0
1, 6960, Note_on_c, 0, 69, 54
1, 6960, Note_on_c, 0, 81, 65
1, 7200, Tempo, 260677
1, 7200, Note_on_c, 0, 81, 0
1, 7200, Note_on_c, 0, 49, 0
1, 7200, Note_on_c, 0, 59, 0
1, 7200, Note_on_c, 0, 65, 0
1, 7200, Note_on_c, 0, 69, 0
1, 7200, Note_on_c, 0, 56, 0
1, 7200, Note_on_c, 0, 57, 47
1, 7200, Note_on_c, 0, 69, 56
1, 7200, Note_on_c, 0, 33, 36
1, 7200, Note_on_c, 0, 45, 42
1, 7290, Note_on_c, 0, 69, 0
1, 7290, Note_on_c, 0, 57, 0
1, 7440, Tempo, 266111
1, 7440, Note_on_c, 0, 57, 51
1, 7440, Note_on_c, 0, 69, 60
1, 7530, Note_on_c, 0, 69, 0
1, 7530, Note_on_c, 0, 57, 0
1, 7640, Tempo, 266726
1, 7680, Tempo, 261860
1, 7680, Note_on_c, 0, 33, 0
1, 7680, Note_on_c, 0, 45, 0
1, 7680, Note_on_c, 0, 57, 54
1, 7680, Note_on_c, 0, 69, 64
1, 7680, Note_on_c, 0, 35, 36
1, 7680, Note_on_c, 0, 47, 42
1, 7770, Note_on_c, 0, 47, 0
1, 7770, Note_on_c, 0, 57, 0
1, 7770, Note_on_c, 0, 69, 0
1, 7770, Note_on_c, 0, 35, 0
1, 7920, Tempo, 283849
1, 7920, Note_on_c, 0, 57, 59
1, 7920, Note_on_c, 0, 69, 69
1, 7920, Note_on_c, 0, 36, 37
1, 7920, Note_on_c, 0, 48, 45
1, 8010, Note_on_c, 0, 48, 0
1, 8010, Note_on_c, 0, 57, 0
1, 8010, Note_on_c, 0, 69, 0
1, 8010, Note_on_c, 0, 36, 0
1, 8120, Tempo, 265498
1, 8160, Tempo, 273623
1, 8160, Note_on_c, 0, 57, 68
1, 8160, Note_on_c, 0, 69, 79
1, 8160, Note_on_c, 0, 37, 46
1, 8160, Note_on_c, 0, 49, 54
1, 8640, Tempo, 263667
1, 8640, Note_on_c, 0, 49, 0
1, 8640, Note_on_c, 0, 57, 0
1, 8640, Note_on_c, 0, 69, 0
1, 8640, Note_on_c, 0, 37, 0
1, 8640, Note_on_c, 0, 58, 52
1, 8640, Note_on_c, 0, 70, 63
1, 8640, Note_on_c, 0, 68, 52
1, 8640, Note_on_c, 0, 56, 52
1, 8640, Note_on_c, 0, 65, 52
1, 8640, Note_on_c, 0, 38, 40
1, 8640, Note_on_c, 0, 50, 47
1, 8730, Note_on_c, 0, 65, 0
1, 8730, Note_on_c, 0, 56, 0
1, 8730, Note_on_c, 0, 58, 0
1, 8730, Note_on_c, 0, 68, 0
1, 8730, Note_on_c, 0, 70, 0
1, 8880, Tempo, 267965
1, 8880, Note_on_c, 0, 58, 55
1, 8880, Note_on_c, 0, 65, 55
1, 8880, Note_on_c, 0, 68, 55
1, 8880, Note_on_c, 0, 56, 55
1, 8880, Note_on_c, 0, 70, 66
1, 8970, Note_on_c, 0, 70, 0
1, 8970, Note_on_c, 0, 68, 0
1, 8970, Note_on_c, 0, 65, 0
1, 8970, Note_on_c, 0, 58, 0
1, 8970, Note_on_c, 0, 56, 0
1, 9120, Tempo, 264271
1, 9120, Note_on_c, 0, 38, 0
1, 9120, Note_on_c, 0, 50, 0
1, 9120, Note_on_c, 0, 58, 57
1, 9120, Note_on_c, 0, 65, 57
1, 9120, Note_on_c, 0, 68, 57
1, 9120, Note_on_c, 0, 56, 57
1, 9120, Note_on_c, 0, 70, 67
1, 9120, Note_on_c, 0, 39, 38
1, 9120, Note_on_c, 0, 51, 44
1, 9210, Note_on_c, 0, 51, 0
1, 9210, Note_on_c, 0, 70, 0
1, 9210, Note_on_c, 0, 65, 0
1, 9210, Note_on_c, 0, 68, 0
1, 9210, Note_on_c, 0, 58, 0
1, 9210, Note_on_c, 0, 39, 0
1, 9210, Note_on_c, 0, 56, 0
1, 9360, Tempo, 284549
1, 9360, Note_on_c, 0, 56, 57
1, 9360, Note_on_c, 0, 65, 57
1, 9360, Note_on_c, 0, 68, 68
1, 9360, Note_on_c, 0, 58, 57
1, 9360, Note_on_c, 0, 70, 68
1, 9360, Note_on_c, 0, 40, 37
1, 9360, Note_on_c, 0, 52, 45
1, 9450, Note_on_c, 0, 52, 0
1, 9450, Note_on_c, 0, 70, 0
1, 9450, Note_on_c, 0, 65, 0
1, 9450, Note_on_c, 0, 68, 0
1, 9450, Note_on_c, 0, 56, 0
1, 9450, Note_on_c, 0, 40, 0
1, 9450, Note_on_c, 0, 58, 0
1, 9600, Tempo, 277008
1, 9600, Note_on_c, 0, 56, 68
1, 9600, Note_on_c, 0, 70, 81
1, 9600, Note_on_c, 0, 68, 68
1, 9600, Note_on_c, 0, 58, 68
1, 9600, Note_on_c, 0, 62, 68
1, 9600, Note_on_c, 0, 41, 45
1, 9600, Note_on_c, 0, 53, 53
1, 10080, Tempo, 265498
1, 10080, Note_on_c, 0, 53, 0
1, 10080, Note_on_c, 0, 62, 0
1, 10080, Note_on_c, 0, 70, 0
1, 10080, Note_on_c, 0, 68, 0
1, 10080, Note_on_c, 0, 56, 0
1, 10080, Note_on_c, 0, 41, 0
1, 10080, Note_on_c, 0, 58, 0
1, 10080, Note_on_c, 0, 70, 63
1, 10080, Note_on_c, 0, 63, 52
1, 10080, Note_on_c, 0, 66, 52
1, 10080, Note_on_c, 0, 58, 52
1, 10080, Note_on_c, 0, 42, 40
1, 10080, Note_on_c, 0, 54, 47
1, 10170, Note_on_c, 0, 58, 0
1, 10170, Note_on_c, 0, 66, 0
1, 10170, Note_on_c, 0, 70, 0
1, 10170, Note_on_c, 0, 63, 0
1, 10320, Tempo, 269857
1, 10320, Note_on_c, 0, 58, 55
1, 10320, Note_on_c, 0, 63, 55
1, 10320, Note_on_c, 0, 66, 55
1, 10320, Note_on_c, 0, 70, 66
1, 10410, Note_on_c, 0, 70, 0
1, 10410, Note_on_c, 0, 63, 0
1, 10410, Note_on_c, 0, 58, 0
1, 10410, Note_on_c, 0, 66, 0
1, 10560, Tempo, 267344
1, 10560, Note_on_c, 0, 42, 0
1, 10560, Note_on_c, 0, 54, 0
1, 10560, Note_on_c, 0, 63, 57
1, 10560, Note_on_c, 0, 66, 57
1, 10560, Note_on_c, 0, 70, 67
1, 10560, Note_on_c, 0, 44, 38
1, 10560, Note_on_c, 0, 56, 44
1, 10650, Note_on_c, 0, 56, 0
1, 10650, Note_on_c, 0, 70, 0
1, 10650, Note_on_c, 0, 63, 0
1, 10650, Note_on_c, 0, 66, 0
1, 10650, Note_on_c, 0, 44, 0
1, 10800, Tempo, 275685
1, 10800, Note_on_c, 0, 63, 56
1, 10800, Note_on_c, 0, 66, 56
1, 10800, Note_on_c, 0, 70, 67
1, 10800, Note_on_c, 0, 45, 37
1, 10800, Note_on_c, 0, 57, 45
1, 10890, Note_on_c, 0, 57, 0
1, 10890, Note_on_c, 0, 70, 0
1, 10890, Note_on_c, 0, 63, 0
1, 10890, Note_on_c, 0, 66, 0
1, 10890, Note_on_c, 0, 45, 0
1, 11040, Tempo, 279031
1, 11040, Note_on_c, 0, 63, 70
1, 11040, Note_on_c, 0, 66, 72
1, 11040, Note_on_c, 0, 70, 85
1, 11040, Note_on_c, 0, 46, 47
1, 11040, Note_on_c, 0, 58, 56
1, 11520, Tempo, 284158
1, 11520, Note_on_c, 0, 58, 0
1, 11520, Note_on_c, 0, 70, 0
1, 11520, Note_on_c, 0, 63, 0
1, 11520, Note_on_c, 0, 66, 0
1, 11520, Note_on_c, 0, 46, 0
1, 11520, Note_on_c, 0, 58, 66
1, 11520, Note_on_c, 0, 63, 66
1, 11520, Note_on_c, 0, 70, 78
1, 11520, Note_on_c, 0, 47, 48
1, 11520, Note_on_c, 0, 59, 57
1, 11619, Control_c, 0, 64, 127
1, 12000, Tempo, 276676
1, 12000, Note_on_c, 0, 59, 0
1, 12000, Note_on_c, 0, 70, 0
1, 12000, Note_on_c, 0, 58, 0
1, 12000, Note_on_c, 0, 63, 0
1, 12000, Note_on_c, 0, 47, 0
1, 12000, Note_on_c, 0, 56, 66
1, 12000, Note_on_c, 0, 63, 66
1, 12000, Note_on_c, 0, 68, 78
1, 12000, Note_on_c, 0, 35, 43
1, 12000, Note_on_c, 0, 47, 52
1, 12480, Tempo, 281386
1, 12480, Note_on_c, 0, 47, 0
1, 12480, Note_on_c, 0, 68, 0
1, 12480, Note_on_c, 0, 56, 0
1, 12480, Note_on_c, 0, 63, 0
1, 12480, Note_on_c, 0, 35, 0
1, 12480, Note_on_c, 0, 54, 63
1, 12480, Note_on_c, 0, 57, 63
1, 12480, Note_on_c, 0, 63, 63
1, 12480, Note_on_c, 0, 66, 74
1, 12480, Note_on_c, 0, 36, 43
1, 12480, Note_on_c, 0, 48, 52
1, 12497, Control_c, 0, 64, 0
1, 12920, Tempo, 273710
1, 12960, Note_on_c, 0, 48, 0
1, 12960, Note_on_c, 0, 57, 0
1, 12960, Note_on_c, 0, 63, 0
1, 12960, Note_on_c, 0, 54, 0
1, 12960, Note_on_c, 0, 36, 0
1, 12960, Note_on_c, 0, 66, 0
1, 12960, Note_on_c, 0, 58, 52
1, 12960, Note_on_c, 0, 61, 52
1, 12960, Note_on_c, 0, 65, 61
1, 12960, Note_on_c, 0, 37, 50
1, 12960, Note_on_c, 0, 49, 60
1, 13080, Tempo, 273062
1, 13158, Control_c, 0, 64, 127
1, 13200, Tempo, 272418
1, 13200, Note_on_c, 0, 65, 0
1, 13200, Note_on_c, 0, 58, 0
1, 13200, Note_on_c, 0, 61, 0
1, 13200, Note_on_c, 0, 61, 59
1, 13320, Tempo, 271776
1, 13440, Tempo, 271125
1, 13440, Note_on_c, 0, 61, 0
1, 13440, Note_on_c, 0, 37, 0
1, 13440, Note_on_c, 0, 49, 0
1, 13440, Note_on_c, 0, 66, 66
1, 13440, Note_on_c, 0, 73, 78
1, 13440, Note_on_c, 0, 49, 48
1, 13440, Note_on_c, 0, 58, 57
1, 13560, Tempo, 270490
1, 13680, Tempo, 269857
1, 13680, Note_on_c, 0, 73, 0
1, 13680, Note_on_c, 0, 66, 0
1, 13680, Note_on_c, 0, 66, 73
1, 13840, Tempo, 269227
1, 13920, Note_on_c, 0, 66, 0
1, 13920, Note_on_c, 0, 49, 0
1, 13920, Note_on_c, 0, 58, 0
1, 13920, Note_on_c, 0, 70, 69
1, 13920, Note_on_c, 0, 78, 82
1, 13920, Note_on_c, 0, 61, 57
1, 13920, Note_on_c, 0, 54, 48
1, 13960, Tempo, 268601
1, 14080, Tempo, 267965
1, 14160, Note_on_c, 0, 78, 0
1, 14160, Note_on_c, 0, 70, 0
1, 14160, Note_on_c, 0, 70, 71
1, 14200, Tempo, 267344
1, 14320, Tempo, 266726
1, 14400, Note_on_c, 0, 70, 0
1, 14400, Note_on_c, 0, 61, 0
1, 14400, Note_on_c, 0, 54, 0
1, 14400, Note_on_c, 0, 73, 65
1, 14400, Note_on_c, 0, 82, 76
1, 14400, Note_on_c, 0, 58, 42
1, 14400, Note_on_c, 0, 66, 60
1, 14420, Control_c, 0, 64, 0
1, 14440, Tempo, 266111
1, 14626, Control_c, 0, 64, 127
1, 14640, Note_on_c, 0, 82, 0
1, 14640, Note_on_c, 0, 73, 0
1, 14640, Note_on_c, 0, 73, 69
1, 14880, Tempo, 269227
1, 14880, Note_on_c, 0, 73, 0
1, 14880, Note_on_c, 0, 58, 0
1, 14880, Note_on_c, 0, 66, 0
1, 14880, Note_on_c, 0, 78, 66
1, 14880, Note_on_c, 0, 85, 78
1, 14880, Note_on_c, 0, 61, 40
1, 14880, Note_on_c, 0, 70, 57
1, 15120, Note_on_c, 0, 85, 0
1, 15120, Note_on_c, 0, 78, 0
1, 15120, Note_on_c, 0, 78, 73
1, 15360, Tempo, 277675
1, 15360, Note_on_c, 0, 78, 0
1, 15360, Note_on_c, 0, 61, 0
1, 15360, Note_on_c, 0, 70, 0
1, 15360, Note_on_c, 0, 82, 69
1, 15360, Note_on_c, 0, 90, 82
1, 15360, Note_on_c, 0, 73, 57
1, 15360, Note_on_c, 0, 66, 40
1, 15600, Note_on_c, 0, 90, 0
1, 15600, Note_on_c, 0, 82, 0
1, 15600, Note_on_c, 0, 82, 75
1, 15840, Note_on_c, 0, 82, 0
1, 15840, Note_on_c, 0, 73, 0
1, 15840, Note_on_c, 0, 66, 0
1, 15840, Note_on_c, 0, 85, 69
1, 15840, Note_on_c, 0, 82, 69
1, 15840, Note_on_c, 0, 94, 82
1, 15840, Note_on_c, 0, 70, 48
1, 15840, Note_on_c, 0, 78, 57
1, 16320, Tempo, 273062
1, 16320, Note_on_c, 0, 78, 0
1, 16320, Note_on_c, 0, 94, 0
1, 16320, Note_on_c, 0, 85, 0
1, 16320, Note_on_c, 0, 82, 0
1, 16320, Note_on_c, 0, 70, 0
1, 16320, Note_on_c, 0, 85, 66
1, 16320, Note_on_c, 0, 80, 64
1, 16320, Note_on_c, 0, 92, 76
1, 16320, Note_on_c, 0, 71, 46
1, 16320, Note_on_c, 0, 77, 51
1, 16347, Control_c, 0, 64, 0
1, 16720, Control_c, 0, 64, 127
1, 16800, Tempo, 282992
1, 16800, Note_on_c, 0, 77, 0
1, 16800, Note_on_c, 0, 92, 0
1, 16800, Note_on_c, 0, 85, 0
1, 16800, Note_on_c, 0, 80, 0
1, 16800, Note_on_c, 0, 71, 0
1, 16800, Note_on_c, 0, 85, 73
1, 16800, Note_on_c, 0, 80, 61
1, 16800, Note_on_c, 0, 73, 61
1, 16800, Note_on_c, 0, 61, 42
1, 16800, Note_on_c, 0, 65, 42
1, 16800, Note_on_c, 0, 71, 51
1, 17280, Tempo, 277008
1, 17280, Note_on_c, 0, 71, 0
1, 17280, Note_on_c, 0, 80, 0
1, 17280, Note_on_c, 0, 73, 0
1, 17280, Note_on_c, 0, 85, 0
1, 17280, Note_on_c, 0, 65, 0
1, 17280, Note_on_c, 0, 61, 0
1, 17280, Note_on_c, 0, 73, 57
1, 17280, Note_on_c, 0, 80, 61
1, 17280, Note_on_c, 0, 85, 75
1, 17280, Note_on_c, 0, 61, 46
1, 17280, Note_on_c, 0, 65, 46
1, 17280, Note_on_c, 0, 71, 52
1, 17760, Tempo, 279031
1, 17760, Note_on_c, 0, 71, 0
1, 17760, Note_on_c, 0, 80, 0
1, 17760, Note_on_c, 0, 73, 0
1, 17760, Note_on_c, 0, 65, 0
1, 17760, Note_on_c, 0, 90, 68
1, 17760, Note_on_c, 0, 78, 58
1, 17760, Note_on_c, 0, 54, 38
1, 17760, Note_on_c, 0, 70, 47
1, 17785, Control_c, 0, 64, 0
1, 18240, Tempo, 281756
1, 18240, Note_on_c, 0, 70, 0
1, 18240, Note_on_c, 0, 61, 0
1, 18240, Note_on_c, 0, 90, 0
1, 18240, Note_on_c, 0, 85, 0
1, 18240, Note_on_c, 0, 54, 0
1, 18240, Note_on_c, 0, 78, 0
1, 18240, Note_on_c, 0, 73, 56
1, 18240, Note_on_c, 0, 68, 49
1, 18240, Note_on_c, 0, 61, 40
1, 18240, Note_on_c, 0, 49, 28
1, 18240, Note_on_c, 0, 53, 33
1, 18240, Note_on_c, 0, 59, 38
1, 18400, Control_c, 0, 64, 127
1, 18720, Tempo, 279799
1, 18720, Note_on_c, 0, 59, 0
1, 18720, Note_on_c, 0, 68, 0
1, 18720, Note_on_c, 0, 61, 0
1, 18720, Note_on_c, 0, 73, 0
1, 18720, Note_on_c, 0, 53, 0
1, 18720, Note_on_c, 0, 49, 0
1, 18720, Note_on_c, 0, 61, 40
1, 18720, Note_on_c, 0, 68, 48
1, 18720, Note_on_c, 0, 73, 56
1, 18720, Note_on_c, 0, 49, 31
1, 18720, Note_on_c, 0, 53, 34
1, 18720, Note_on_c, 0, 59, 42
1, 19200, Tempo, 280387
1, 19200, Note_on_c, 0, 59, 0
1, 19200, Note_on_c, 0, 68, 0
1, 19200, Note_on_c, 0, 61, 0
1, 19200, Note_on_c, 0, 53, 0
1, 19200, Note_on_c, 0, 78, 56
1, 19200, Note_on_c, 0, 66, 49
1, 19200, Note_on_c, 0, 42, 32
1, 19200, Note_on_c, 0, 58, 38
1, 19210, Control_c, 0, 64, 0
1, 19680, Tempo, 288018
1, 19680, Note_on_c, 0, 58, 0
1, 19680, Note_on_c, 0, 49, 0
1, 19680, Note_on_c, 0, 78, 0
1, 19680, Note_on_c, 0, 73, 0
1, 19680, Note_on_c, 0, 42, 0
1, 19680, Note_on_c, 0, 66, 0
1, 19680, Note_on_c, 0, 73, 55
1, 19680, Note_on_c, 0, 68, 46
1, 19680, Note_on_c, 0, 61, 38
1, 19680, Note_on_c, 0, 49, 29
1, 19680, Note_on_c, 0, 53, 31
1, 19680, Note_on_c, 0, 59, 36
1, 19840, Control_c, 0, 64, 127
1, 20160, Tempo, 284914
1, 20160, Note_on_c, 0, 59, 0
1, 20160, Note_on_c, 0, 68, 0
1, 20160, Note_on_c, 0, 61, 0
1, 20160, Note_on_c, 0, 73, 0
1, 20160, Note_on_c, 0, 53, 0
1, 20160, Note_on_c, 0, 49, 0
1, 20160, Note_on_c, 0, 61, 40
1, 20160, Note_on_c, 0, 68, 48
1, 20160, Note_on_c, 0, 73, 55
1, 20160, Note_on_c, 0, 49, 30
1, 20160, Note_on_c, 0, 53, 34
1, 20160, Note_on_c, 0, 59, 38
1, 20640, Tempo, 293269
1, 20640, Note_on_c, 0, 59, 0
1, 20640, Note_on_c, 0, 68, 0
1, 20640, Note_on_c, 0, 61, 0
1, 20640, Note_on_c, 0, 53, 0
1, 20640, Note_on_c, 0, 78, 56
1, 20640, Note_on_c, 0, 66, 48
1, 20640, Note_on_c, 0, 42, 32
1, 20640, Note_on_c, 0, 58, 38
1, 20664, Control_c, 0, 64, 0
1, 21120, Tempo, 284549
1, 21120, Note_on_c, 0, 58, 0
1, 21120, Note_on_c, 0, 49, 0
1, 21120, Note_on_c, 0, 78, 0
1, 21120, Note_on_c, 0, 73, 0
1, 21120, Note_on_c, 0, 42, 0
1, 21120, Note_on_c, 0, 66, 0
1, 21120, Note_on_c, 0, 61, 52
1, 21120, Note_on_c, 0, 73, 52
1, 21600, Tempo, 289589
1, 21600, Note_on_c, 0, 73, 0
1, 21600, Note_on_c, 0, 61, 0
1, 21600, Note_on_c, 0, 61, 51
1, 21600, Note_on_c, 0, 73, 56
1, 23040, Note_on_c, 0, 73, 0
1, 23040, Note_on_c, 0, 61, 0
1, 23040, Note_on_c, 0, 58, 46
1, 23040, Note_on_c, 0, 70, 53
1, 24480, Tempo, 276727
1, 24480, Note_on_c, 0, 44, 36
1, 24480, Note_on_c, 0, 56, 43
1, 24960, Tempo, 283393
1, 24960, Note_on_c, 0, 56, 0
1, 24960, Note_on_c, 0, 44, 0
1, 24960, Note_on_c, 0, 42, 30
1, 24960, Note_on_c, 0, 54, 37
1, 25440, Note_on_c, 0, 54, 0
1, 25440, Note_on_c, 0, 42, 0
1, 25440, Note_on_c, 0, 39, 30
1, 25440, Note_on_c, 0, 51, 37
1, 25920, Tempo, 276727
1, 25920, Note_on_c, 0, 51, 0
1, 25920, Note_on_c, 0, 39, 0
1, 25920, Note_on_c, 0, 42, 36
1, 25920, Note_on_c, 0, 54, 43
1, 26400, Tempo, 284158
1, 26400, Note_on_c, 0, 54, 0
1, 26400, Note_on_c, 0, 42, 0
1, 26400, Note_on_c, 0, 41, 30
1, 26400, Note_on_c, 0, 53, 37
1, 26880, Note_on_c, 0, 53, 0
1, 26880, Note_on_c, 0, 41, 0
1, 26880, Note_on_c, 0, 37, 30
1, 26880, Note_on_c, 0, 49, 37
1, 27360, Tempo, 277457
1, 27360, Note_on_c, 0, 49, 0
1, 27360, Note_on_c, 0, 37, 0
1, 27360, Note_on_c, 0, 39, 36
1, 27360, Note_on_c, 0, 51, 43
1, 27840, Tempo, 283393
1, 27840, Note_on_c, 0, 51, 0
1, 27840, Note_on_c, 0, 39, 0
1, 27840, Note_on_c, 0, 37, 30
1, 27840, Note_on_c, 0, 49, 37
1, 28320, Note_on_c, 0, 49, 0
1, 28320, Note_on_c, 0, 37, 0
1, 28320, Note_on_c, 0, 34, 30
1, 28320, Note_on_c, 0, 46, 37
1, 28800, Note_on_c, 0, 46, 0
1, 28800, Note_on_c, 0, 58, 0
1, 28800, Note_on_c, 0, 70, 0
1, 28800, Note_on_c, 0, 34, 0
1, 28800, Note_on_c, 0, 35, 32
1, 28800, Note_on_c, 0, 47, 39
1, 29280, Note_on_c, 0, 47, 0
1, 29280, Note_on_c, 0, 35, 0
1, 29280, Note_on_c, 0, 34, 29
1, 29280, Note_on_c, 0, 46, 35
1, 29760, Note_on_c, 0, 46, 0
1, 29760, Note_on_c, 0, 34, 0
1, 29760, Note_on_c, 0, 30, 29
1, 29760, Note_on_c, 0, 42, 35
1, 30240, Tempo, 263066
1, 30240, Note_on_c, 0, 42, 0
1, 30240, Note_on_c, 0, 30, 0
1, 30240, Note_on_c, 0, 51, 52
1, 30240, Note_on_c, 0, 63, 63
1, 30240, Note_on_c, 0, 27, 40
1, 30240, Note_on_c, 0, 39, 47
1, 30330, Note_on_c, 0, 63, 0
1, 30330, Note_on_c, 0, 51, 0
1, 30480, Tempo, 269227
1, 30480, Note_on_c, 0, 51, 55
1, 30480, Note_on_c, 0, 63, 66
1, 30570, Note_on_c, 0, 63, 0
1, 30570, Note_on_c, 0, 51, 0
1, 30680, Tempo, 265498
1, 30720, Note_on_c, 0, 27, 0
1, 30720, Note_on_c, 0, 39, 0
1, 30720, Note_on_c, 0, 51, 57
1, 30720, Note_on_c, 0, 63, 67
1, 30720, Note_on_c, 0, 28, 38
1, 30720, Note_on_c, 0, 40, 44
1, 30810, Note_on_c, 0, 40, 0
1, 30810, Note_on_c, 0, 51, 0
1, 30810, Note_on_c, 0, 63, 0
1, 30810, Note_on_c, 0, 28, 0
1, 30960, Tempo, 283849
1, 30960, Note_on_c, 0, 51, 59
1, 30960, Note_on_c, 0, 63, 68
1, 30960, Note_on_c, 0, 29, 38
1, 30960, Note_on_c, 0, 41, 47
1, 31050, Note_on_c, 0, 41, 0
1, 31050, Note_on_c, 0, 51, 0
1, 31050, Note_on_c, 0, 63, 0
1, 31050, Note_on_c, 0, 29, 0
1, 31120, Tempo, 266111
1, 31160, Tempo, 266252
1, 31200, Tempo, 279005
1, 31200, Note_on_c, 0, 51, 69
1, 31200, Note_on_c, 0, 63, 80
1, 31200, Note_on_c, 0, 30, 47
1, 31200, Note_on_c, 0, 42, 56
1, 31680, Tempo, 275141
1, 31680, Note_on_c, 0, 42, 0
1, 31680, Note_on_c, 0, 51, 0
1, 31680, Note_on_c, 0, 63, 0
1, 31680, Note_on_c, 0, 30, 0
1, 31680, Note_on_c, 0, 65, 90
1, 31680, Note_on_c, 0, 59, 75
1, 31680, Note_on_c, 0, 63, 75
1, 31680, Note_on_c, 0, 53, 75
1, 31680, Note_on_c, 0, 32, 56
1, 31680, Note_on_c, 0, 44, 67
1, 31806, Control_c, 0, 64, 127
1, 32160, Tempo, 271358
1, 32160, Note_on_c, 0, 44, 0
1, 32160, Note_on_c, 0, 59, 0
1, 32160, Note_on_c, 0, 63, 0
1, 32160, Note_on_c, 0, 65, 0
1, 32160, Note_on_c, 0, 32, 0
1, 32160, Note_on_c, 0, 53, 0
1, 32160, Note_on_c, 0, 77, 76
1, 32160, Note_on_c, 0, 71, 63
1, 32160, Note_on_c, 0, 75, 63
1, 32160, Note_on_c, 0, 65, 63
1, 32160, Note_on_c, 0, 44, 43
1, 32160, Note_on_c, 0, 51, 43
1, 32160, Note_on_c, 0, 53, 43
1, 32160, Note_on_c, 0, 59, 51
1, 32400, Note_on_c, 0, 65, 0
1, 32400, Note_on_c, 0, 75, 0
1, 32400, Note_on_c, 0, 77, 0
1, 32400, Note_on_c, 0, 71, 0
1, 32400, Note_on_c, 0, 63, 61
1, 32400, Note_on_c, 0, 75, 74
1, 32640, Tempo, 267965
1, 32640, Note_on_c, 0, 75, 0
1, 32640, Note_on_c, 0, 51, 0
1, 32640, Note_on_c, 0, 53, 0
1, 32640, Note_on_c, 0, 59, 0
1, 32640, Note_on_c, 0, 63, 0
1, 32640, Note_on_c, 0, 44, 0
1, 32640, Note_on_c, 0, 77, 76
1, 32640, Note_on_c, 0, 70, 63
1, 32640, Note_on_c, 0, 74, 63
1, 32640, Note_on_c, 0, 65, 63
1, 32640, Note_on_c, 0, 46, 43
1, 32640, Note_on_c, 0, 53, 43
1, 32640, Note_on_c, 0, 56, 43
1, 32640, Note_on_c, 0, 62, 51
1, 32652, Control_c, 0, 64, 0
1, 32880, Tempo, 283152
1, 32880, Note_on_c, 0, 65, 0
1, 32880, Note_on_c, 0, 74, 0
1, 32880, Note_on_c, 0, 77, 0
1, 32880, Note_on_c, 0, 70, 0
1, 32880, Note_on_c, 0, 66, 59
1, 32880, Note_on_c, 0, 78, 72
1, 33120, Tempo, 263066
1, 33120, Note_on_c, 0, 78, 0
1, 33120, Note_on_c, 0, 53, 0
1, 33120, Note_on_c, 0, 56, 0
1, 33120, Note_on_c, 0, 62, 0
1, 33120, Note_on_c, 0, 66, 0
1, 33120, Note_on_c, 0, 46, 0
1, 33120, Note_on_c, 0, 54, 52
1, 33120, Note_on_c, 0, 66, 63
1, 33120, Note_on_c, 0, 30, 40
1, 33120, Note_on_c, 0, 42, 47
1, 33210, Note_on_c, 0, 66, 0
1, 33210, Note_on_c, 0, 54, 0
1, 33360, Tempo, 267965
1, 33360, Note_on_c, 0, 54, 55
1, 33360, Note_on_c, 0, 66, 66
1, 33450, Note_on_c, 0, 66, 0
1, 33450, Note_on_c, 0, 54, 0
1, 33600, Tempo, 264877
1, 33600, Note_on_c, 0, 30, 0
1, 33600, Note_on_c, 0, 42, 0
1, 33600, Note_on_c, 0, 54, 57
1, 33600, Note_on_c, 0, 66, 67
1, 33600, Note_on_c, 0, 31, 38
1, 33600, Note_on_c, 0, 43, 44
1, 33690, Note_on_c, 0, 43, 0
1, 33690, Note_on_c, 0, 54, 0
1, 33690, Note_on_c, 0, 66, 0
1, 33690, Note_on_c, 0, 31, 0
1, 33840, Tempo, 285252
1, 33840, Note_on_c, 0, 54, 57
1, 33840, Note_on_c, 0, 66, 66
1, 33840, Note_on_c, 0, 32, 35
1, 33840, Note_on_c, 0, 44, 43
1, 33930, Note_on_c, 0, 44, 0
1, 33930, Note_on_c, 0, 54, 0
1, 33930, Note_on_c, 0, 66, 0
1, 33930, Note_on_c, 0, 32, 0
1, 34040, Tempo, 265498
1, 34080, Tempo, 278229
1, 34080, Note_on_c, 0, 54, 68
1, 34080, Note_on_c, 0, 66, 79
1, 34080, Note_on_c, 0, 33, 46
1, 34080, Note_on_c, 0, 45, 54
1, 34560, Tempo, 273623
1, 34560, Note_on_c, 0, 45, 0
1, 34560, Note_on_c, 0, 54, 0
1, 34560, Note_on_c, 0, 66, 0
1, 34560, Note_on_c, 0, 33, 0
1, 34560, Note_on_c, 0, 56, 72
1, 34560, Note_on_c, 0, 62, 73
1, 34560, Note_on_c, 0, 66, 75
1, 34560, Note_on_c, 0, 68, 87
1, 34560, Note_on_c, 0, 35, 56
1, 34560, Note_on_c, 0, 47, 67
1, 34638, Control_c, 0, 64, 127
1, 35040, Tempo, 270636
1, 35040, Note_on_c, 0, 47, 0
1, 35040, Note_on_c, 0, 62, 0
1, 35040, Note_on_c, 0, 66, 0
1, 35040, Note_on_c, 0, 56, 0
1, 35040, Note_on_c, 0, 35, 0
1, 35040, Note_on_c, 0, 68, 0
1, 35040, Note_on_c, 0, 80, 76
1, 35040, Note_on_c, 0, 74, 63
1, 35040, Note_on_c, 0, 78, 63
1, 35040, Note_on_c, 0, 68, 63
1, 35040, Note_on_c, 0, 48, 43
1, 35040, Note_on_c, 0, 54, 43
1, 35040, Note_on_c, 0, 56, 43
1, 35040, Note_on_c, 0, 62, 51
1, 35280, Note_on_c, 0, 68, 0
1, 35280, Note_on_c, 0, 78, 0
1, 35280, Note_on_c, 0, 80, 0
1, 35280, Note_on_c, 0, 74, 0
1, 35280, Note_on_c, 0, 66, 61
1, 35280, Note_on_c, 0, 78, 74
1, 35520, Tempo, 267344
1, 35520, Note_on_c, 0, 78, 0
1, 35520, Note_on_c, 0, 54, 0
1, 35520, Note_on_c, 0, 56, 0
1, 35520, Note_on_c, 0, 62, 0
1, 35520, Note_on_c, 0, 66, 0
1, 35520, Note_on_c, 0, 48, 0
1, 35520, Note_on_c, 0, 80, 76
1, 35520, Note_on_c, 0, 73, 63
1, 35520, Note_on_c, 0, 77, 63
1, 35520, Note_on_c, 0, 68, 63
1, 35520, Note_on_c, 0, 49, 43
1, 35520, Note_on_c, 0, 56, 43
1, 35520, Note_on_c, 0, 59, 43
1, 35520, Note_on_c, 0, 65, 51
1, 35533, Control_c, 0, 64, 0
1, 35760, Tempo, 279707
1, 35760, Note_on_c, 0, 68, 0
1, 35760, Note_on_c, 0, 77, 0
1, 35760, Note_on_c, 0, 80, 0
1, 35760, Note_on_c, 0, 73, 0
1, 35760, Note_on_c, 0, 69, 58
1, 35760, Note_on_c, 0, 81, 71
1, 36000, Tempo, 260089
1, 36000, Note_on_c, 0, 81, 0
1, 36000, Note_on_c, 0, 56, 0
1, 36000, Note_on_c, 0, 59, 0
1, 36000, Note_on_c, 0, 65, 0
1, 36000, Note_on_c, 0, 69, 0
1, 36000, Note_on_c, 0, 49, 0
1, 36000, Note_on_c, 0, 57, 47
1, 36000, Note_on_c, 0, 69, 56
1, 36000, Note_on_c, 0, 33, 36
1, 36000, Note_on_c, 0, 45, 42
1, 36090, Note_on_c, 0, 69, 0
1, 36090, Note_on_c, 0, 57, 0
1, 36240, Tempo, 264271
1, 36240, Note_on_c, 0, 57, 51
1, 36240, Note_on_c, 0, 69, 60
1, 36330, Note_on_c, 0, 69, 0
1, 36330, Note_on_c, 0, 57, 0
1, 36440, Tempo, 266726
1, 36480, Tempo, 261267
1, 36480, Note_on_c, 0, 33, 0
1, 36480, Note_on_c, 0, 45, 0
1, 36480, Note_on_c, 0, 57, 54
1, 36480, Note_on_c, 0, 69, 64
1, 36480, Note_on_c, 0, 35, 36
1, 36480, Note_on_c, 0, 47, 42
1, 36570, Note_on_c, 0, 47, 0
1, 36570, Note_on_c, 0, 57, 0
1, 36570, Note_on_c, 0, 69, 0
1, 36570, Note_on_c, 0, 35, 0
1, 36720, Tempo, 275685
1, 36720, Note_on_c, 0, 57, 57
1, 36720, Note_on_c, 0, 69, 68
1, 36720, Note_on_c, 0, 36, 37
1, 36720, Note_on_c, 0, 48, 45
1, 36810, Note_on_c, 0, 48, 0
1, 36810, Note_on_c, 0, 57, 0
1, 36810, Note_on_c, 0, 69, 0
1, 36810, Note_on_c, 0, 36, 0
1, 36960, Tempo, 273623
1, 36960, Note_on_c, 0, 57, 68
1, 36960, Note_on_c, 0, 69, 80
1, 36960, Note_on_c, 0, 37, 46
1, 36960, Note_on_c, 0, 49, 54
1, 37440, Tempo, 263667
1, 37440, Note_on_c, 0, 49, 0
1, 37440, Note_on_c, 0, 57, 0
1, 37440, Note_on_c, 0, 69, 0
1, 37440, Note_on_c, 0, 37, 0
1, 37440, Note_on_c, 0, 71, 64
1, 37440, Note_on_c, 0, 65, 53
1, 37440, Note_on_c, 0, 69, 53
1, 37440, Note_on_c, 0, 59, 53
1, 37440, Note_on_c, 0, 38, 40
1, 37440, Note_on_c, 0, 50, 47
1, 37530, Note_on_c, 0, 59, 0
1, 37530, Note_on_c, 0, 69, 0
1, 37530, Note_on_c, 0, 71, 0
1, 37530, Note_on_c, 0, 65, 0
1, 37680, Tempo, 269227
1, 37680, Note_on_c, 0, 59, 56
1, 37680, Note_on_c, 0, 65, 56
1, 37680, Note_on_c, 0, 69, 56
1, 37680, Note_on_c, 0, 71, 67
1, 37770, Note_on_c, 0, 71, 0
1, 37770, Note_on_c, 0, 65, 0
1, 37770, Note_on_c, 0, 59, 0
1, 37770, Note_on_c, 0, 69, 0
1, 37880, Tempo, 266111
1, 37920, Tempo, 265498
1, 37920, Note_on_c, 0, 38, 0
1, 37920, Note_on_c, 0, 50, 0
1, 37920, Note_on_c, 0, 71, 71
1, 37920, Note_on_c, 0, 65, 60
1, 37920, Note_on_c, 0, 69, 60
1, 37920, Note_on_c, 0, 59, 60
1, 37920, Note_on_c, 0, 39, 40
1, 37920, Note_on_c, 0, 51, 47
1, 38010, Note_on_c, 0, 51, 0
1, 38010, Note_on_c, 0, 65, 0
1, 38010, Note_on_c, 0, 69, 0
1, 38010, Note_on_c, 0, 71, 0
1, 38010, Note_on_c, 0, 39, 0
1, 38010, Note_on_c, 0, 59, 0
1, 38160, Note_on_c, 0, 71, 72
1, 38160, Note_on_c, 0, 65, 60
1, 38160, Note_on_c, 0, 69, 72
1, 38160, Note_on_c, 0, 59, 60
1, 38160, Note_on_c, 0, 40, 39
1, 38160, Note_on_c, 0, 52, 48
1, 38200, Tempo, 276345
1, 38250, Note_on_c, 0, 52, 0
1, 38250, Note_on_c, 0, 65, 0
1, 38250, Note_on_c, 0, 69, 0
1, 38250, Note_on_c, 0, 71, 0
1, 38250, Note_on_c, 0, 40, 0
1, 38250, Note_on_c, 0, 59, 0
1, 38400, Tempo, 273623
1, 38400, Note_on_c, 0, 59, 68
1, 38400, Note_on_c, 0, 65, 68
1, 38400, Note_on_c, 0, 69, 68
1, 38400, Note_on_c, 0, 71, 81
1, 38400, Note_on_c, 0, 41, 45
1, 38400, Note_on_c, 0, 53, 53
1, 38880, Tempo, 263066
1, 38880, Note_on_c, 0, 53, 0
1, 38880, Note_on_c, 0, 65, 0
1, 38880, Note_on_c, 0, 69, 0
1, 38880, Note_on_c, 0, 59, 0
1, 38880, Note_on_c, 0, 41, 0
1, 38880, Note_on_c, 0, 71, 0
1, 38880, Note_on_c, 0, 72, 66
1, 38880, Note_on_c, 0, 63, 54
1, 38880, Note_on_c, 0, 69, 54
1, 38880, Note_on_c, 0, 60, 54
1, 38880, Note_on_c, 0, 42, 42
1, 38880, Note_on_c, 0, 54, 49
1, 38970, Note_on_c, 0, 60, 0
1, 38970, Note_on_c, 0, 69, 0
1, 38970, Note_on_c, 0, 72, 0
1, 38970, Note_on_c, 0, 63, 0
1, 39120, Tempo, 268601
1, 39120, Note_on_c, 0, 72, 69
1, 39120, Note_on_c, 0, 63, 57
1, 39120, Note_on_c, 0, 69, 57
1, 39120, Note_on_c, 0, 60, 57
1, 39210, Note_on_c, 0, 60, 0
1, 39210, Note_on_c, 0, 63, 0
1, 39210, Note_on_c, 0, 72, 0
1, 39210, Note_on_c, 0, 69, 0
1, 39360, Tempo, 265498
1, 39360, Note_on_c, 0, 42, 0
1, 39360, Note_on_c, 0, 54, 0
1, 39360, Note_on_c, 0, 60, 63
1, 39360, Note_on_c, 0, 63, 63
1, 39360, Note_on_c, 0, 72, 74
1, 39360, Note_on_c, 0, 43, 42
1, 39360, Note_on_c, 0, 55, 49
1, 39450, Note_on_c, 0, 55, 0
1, 39450, Note_on_c, 0, 72, 0
1, 39450, Note_on_c, 0, 60, 0
1, 39450, Note_on_c, 0, 63, 0
1, 39450, Note_on_c, 0, 43, 0
1, 39600, Tempo, 268601
1, 39600, Note_on_c, 0, 60, 55
1, 39600, Note_on_c, 0, 63, 55
1, 39600, Note_on_c, 0, 72, 76
1, 39600, Note_on_c, 0, 44, 40
1, 39600, Note_on_c, 0, 56, 50
1, 39690, Note_on_c, 0, 56, 0
1, 39690, Note_on_c, 0, 72, 0
1, 39690, Note_on_c, 0, 60, 0
1, 39690, Note_on_c, 0, 63, 0
1, 39690, Note_on_c, 0, 44, 0
1, 39840, Tempo, 286451
1, 39840, Note_on_c, 0, 66, 73
1, 39840, Note_on_c, 0, 60, 73
1, 39840, Note_on_c, 0, 63, 73
1, 39840, Note_on_c, 0, 72, 86
1, 39840, Note_on_c, 0, 45, 49
1, 39840, Note_on_c, 0, 57, 58
1, 40320, Tempo, 284158
1, 40320, Note_on_c, 0, 57, 0
1, 40320, Note_on_c, 0, 60, 0
1, 40320, Note_on_c, 0, 63, 0
1, 40320, Note_on_c, 0, 66, 0
1, 40320, Note_on_c, 0, 45, 0
1, 40320, Note_on_c, 0, 72, 0
1, 40320, Note_on_c, 0, 76, 81
1, 40320, Note_on_c, 0, 66, 69
1, 40320, Note_on_c, 0, 69, 69
1, 40320, Note_on_c, 0, 64, 69
1, 40320, Note_on_c, 0, 54, 50
1, 40320, Note_on_c, 0, 48, 50
1, 40320, Note_on_c, 0, 60, 59
1, 40419, Control_c, 0, 64, 127
1, 40800, Tempo, 276676
1, 40800, Note_on_c, 0, 60, 0
1, 40800, Note_on_c, 0, 54, 0
1, 40800, Note_on_c, 0, 66, 0
1, 40800, Note_on_c, 0, 69, 0
1, 40800, Note_on_c, 0, 76, 0
1, 40800, Note_on_c, 0, 48, 0
1, 40800, Note_on_c, 0, 64, 0
1, 40800, Note_on_c, 0, 62, 69
1, 40800, Note_on_c, 0, 67, 69
1, 40800, Note_on_c, 0, 74, 81
1, 40800, Note_on_c, 0, 55, 45
1, 40800, Note_on_c, 0, 47, 45
1, 40800, Note_on_c, 0, 59, 54
1, 40815, Control_c, 0, 64, 0
1, 41008, Control_c, 0, 64, 127
1, 41280, Tempo, 281386
1, 41280, Note_on_c, 0, 59, 0
1, 41280, Note_on_c, 0, 67, 0
1, 41280, Note_on_c, 0, 74, 0
1, 41280, Note_on_c, 0, 62, 0
1, 41280, Note_on_c, 0, 47, 0
1, 41280, Note_on_c, 0, 55, 0
1, 41280, Note_on_c, 0, 50, 72
1, 41280, Note_on_c, 0, 62, 85
1, 41280, Note_on_c, 0, 26, 49
1, 41280, Note_on_c, 0, 38, 59
1, 41298, Control_c, 0, 64, 0
1, 41760, Tempo, 275887
1, 41760, Note_on_c, 0, 38, 0
1, 41760, Note_on_c, 0, 50, 0
1, 41760, Note_on_c, 0, 62, 0
1, 41760, Note_on_c, 0, 26, 0
1, 41760, Note_on_c, 0, 61, 61
1, 41760, Note_on_c, 0, 49, 61
1, 41760, Note_on_c, 0, 25, 50
1, 41760, Note_on_c, 0, 37, 60
1, 41800, Tempo, 273062
1, 41960, Tempo, 272418
1, 41977, Control_c, 0, 64, 127
1, 42000, Note_on_c, 0, 49, 0
1, 42000, Note_on_c, 0, 61, 0
1, 42000, Note_on_c, 0, 61, 59
1, 42080, Tempo, 271776
1, 42240, Tempo, 271125
1, 42240, Note_on_c, 0, 61, 0
1, 42240, Note_on_c, 0, 25, 0
1, 42240, Note_on_c, 0, 37, 0
1, 42240, Note_on_c, 0, 66, 66
1, 42240, Note_on_c, 0, 73, 78
1, 42240, Note_on_c, 0, 49, 48
1, 42240, Note_on_c, 0, 57, 57
1, 42360, Tempo, 270490
1, 42480, Note_on_c, 0, 73, 0
1, 42480, Note_on_c, 0, 66, 0
1, 42480, Note_on_c, 0, 66, 75
1, 42520, Tempo, 269857
1, 42640, Tempo, 269227
1, 42720, Note_on_c, 0, 66, 0
1, 42720, Note_on_c, 0, 49, 0
1, 42720, Note_on_c, 0, 57, 0
1, 42720, Note_on_c, 0, 69, 69
1, 42720, Note_on_c, 0, 78, 82
1, 42720, Note_on_c, 0, 61, 57
1, 42720, Note_on_c, 0, 54, 48
1, 42800, Tempo, 268601
1, 42920, Tempo, 267965
1, 42960, Note_on_c, 0, 78, 0
1, 42960, Note_on_c, 0, 69, 0
1, 42960, Note_on_c, 0, 69, 75
1, 43080, Tempo, 267344
1, 43200, Tempo, 266726
1, 43200, Note_on_c, 0, 69, 0
1, 43200, Note_on_c, 0, 61, 0
1, 43200, Note_on_c, 0, 54, 0
1, 43200, Note_on_c, 0, 73, 65
1, 43200, Note_on_c, 0, 81, 76
1, 43200, Note_on_c, 0, 57, 42
1, 43200, Note_on_c, 0, 66, 60
1, 43440, Note_on_c, 0, 81, 0
1, 43440, Note_on_c, 0, 73, 0
1, 43440, Note_on_c, 0, 73, 71
1, 43680, Tempo, 271358
1, 43680, Note_on_c, 0, 73, 0
1, 43680, Note_on_c, 0, 57, 0
1, 43680, Note_on_c, 0, 66, 0
1, 43680, Note_on_c, 0, 78, 66
1, 43680, Note_on_c, 0, 85, 78
1, 43680, Note_on_c, 0, 61, 40
1, 43680, Note_on_c, 0, 69, 57
1, 43920, Note_on_c, 0, 85, 0
1, 43920, Note_on_c, 0, 78, 0
1, 43920, Note_on_c, 0, 78, 75
1, 44160, Tempo, 277675
1, 44160, Note_on_c, 0, 78, 0
1, 44160, Note_on_c, 0, 61, 0
1, 44160, Note_on_c, 0, 69, 0
1, 44160, Note_on_c, 0, 81, 69
1, 44160, Note_on_c, 0, 90, 82
1, 44160, Note_on_c, 0, 73, 57
1, 44160, Note_on_c, 0, 66, 40
1, 44400, Note_on_c, 0, 90, 0
1, 44400, Note_on_c, 0, 81, 0
1, 44400, Note_on_c, 0, 81, 75
1, 44640, Note_on_c, 0, 81, 0
1, 44640, Note_on_c, 0, 73, 0
1, 44640, Note_on_c, 0, 66, 0
1, 44640, Note_on_c, 0, 85, 69
1, 44640, Note_on_c, 0, 81, 69
1, 44640, Note_on_c, 0, 93, 82
1, 44640, Note_on_c, 0, 69, 48
1, 44640, Note_on_c, 0, 78, 57
1, 45120, Tempo, 274361
1, 45120, Note_on_c, 0, 78, 0
1, 45120, Note_on_c, 0, 93, 0
1, 45120, Note_on_c, 0, 85, 0
1, 45120, Note_on_c, 0, 81, 0
1, 45120, Note_on_c, 0, 69, 0
1, 45120, Note_on_c, 0, 85, 66
1, 45120, Note_on_c, 0, 80, 66
1, 45120, Note_on_c, 0, 92, 78
1, 45120, Note_on_c, 0, 71, 46
1, 45120, Note_on_c, 0, 77, 54
1, 45137, Control_c, 0, 64, 0
1, 45600, Tempo, 282992
1, 45600, Note_on_c, 0, 77, 0
1, 45600, Note_on_c, 0, 92, 0
1, 45600, Note_on_c, 0, 85, 0
1, 45600, Note_on_c, 0, 80, 0
1, 45600, Note_on_c, 0, 71, 0
1, 45600, Note_on_c, 0, 85, 73
1, 45600, Note_on_c, 0, 80, 61
1, 45600, Note_on_c, 0, 73, 61
1, 45600, Note_on_c, 0, 61, 42
1, 45600, Note_on_c, 0, 65, 42
1, 45600, Note_on_c, 0, 71, 51
1, 45691, Control_c, 0, 64, 127
1, 46080, Tempo, 277008
1, 46080, Note_on_c, 0, 71, 0
1, 46080, Note_on_c, 0, 80, 0
1, 46080, Note_on_c, 0, 73, 0
1, 46080, Note_on_c, 0, 85, 0
1, 46080, Note_on_c, 0, 65, 0
1, 46080, Note_on_c, 0, 61, 0
1, 46080, Note_on_c, 0, 73, 61
1, 46080, Note_on_c, 0, 80, 61
1, 46080, Note_on_c, 0, 85, 75
1, 46080, Note_on_c, 0, 61, 46
1, 46080, Note_on_c, 0, 65, 46
1, 46080, Note_on_c, 0, 71, 54
1, 46560, Tempo, 279707
1, 46560, Note_on_c, 0, 71, 0
1, 46560, Note_on_c, 0, 80, 0
1, 46560, Note_on_c, 0, 73, 0
1, 46560, Note_on_c, 0, 65, 0
1, 46560, Note_on_c, 0, 90, 68
1, 46560, Note_on_c, 0, 78, 58
1, 46560, Note_on_c, 0, 54, 38
1, 46560, Note_on_c, 0, 69, 47
1, 46577, Control_c, 0, 64, 0
1, 47040, Tempo, 281756
1, 47040, Note_on_c, 0, 69, 0
1, 47040, Note_on_c, 0, 61, 0
1, 47040, Note_on_c, 0, 90, 0
1, 47040, Note_on_c, 0, 85, 0
1, 47040, Note_on_c, 0, 54, 0
1, 47040, Note_on_c, 0, 78, 0
1, 47040, Note_on_c, 0, 73, 58
1, 47040, Note_on_c, 0, 68, 48
1, 47040, Note_on_c, 0, 61, 40
1, 47040, Note_on_c, 0, 49, 28
1, 47040, Note_on_c, 0, 53, 33
1, 47040, Note_on_c, 0, 59, 38
1, 47200, Control_c, 0, 64, 127
1, 47520, Tempo, 279799
1, 47520, Note_on_c, 0, 59, 0
1, 47520, Note_on_c, 0, 68, 0
1, 47520, Note_on_c, 0, 61, 0
1, 47520, Note_on_c, 0, 73, 0
1, 47520, Note_on_c, 0, 53, 0
1, 47520, Note_on_c, 0, 49, 0
1, 47520, Note_on_c, 0, 61, 42
1, 47520, Note_on_c, 0, 68, 50
1, 47520, Note_on_c, 0, 73, 58
1, 47520, Note_on_c, 0, 49, 30
1, 47520, Note_on_c, 0, 53, 36
1, 47520, Note_on_c, 0, 59, 42
1, 48000, Tempo, 280387
1, 48000, Note_on_c, 0, 59, 0
1, 48000, Note_on_c, 0, 68, 0
1, 48000, Note_on_c, 0, 61, 0
1, 48000, Note_on_c, 0, 53, 0
1, 48000, Note_on_c, 0, 78, 56
1, 48000, Note_on_c, 0, 66, 49
1, 48000, Note_on_c, 0, 42, 32
1, 48000, Note_on_c, 0, 57, 38
1, 48007, Control_c, 0, 64, 0
1, 48480, Tempo, 288018
1, 48480, Note_on_c, 0, 57, 0
1, 48480, Note_on_c, 0, 49, 0
1, 48480, Note_on_c, 0, 78, 0
1, 48480, Note_on_c, 0, 73, 0
1, 48480, Note_on_c, 0, 42, 0
1, 48480, Note_on_c, 0, 66, 0
1, 48480, Note_on_c, 0, 73, 56
1, 48480, Note_on_c, 0, 68, 46
1, 48480, Note_on_c, 0, 61, 38
1, 48480, Note_on_c, 0, 49, 26
1, 48480, Note_on_c, 0, 53, 31
1, 48480, Note_on_c, 0, 59, 36
1, 48617, Control_c, 0, 64, 127
1, 48960, Tempo, 284914
1, 48960, Note_on_c, 0, 59, 0
1, 48960, Note_on_c, 0, 68, 0
1, 48960, Note_on_c, 0, 61, 0
1, 48960, Note_on_c, 0, 73, 0
1, 48960, Note_on_c, 0, 53, 0
1, 48960, Note_on_c, 0, 49, 0
1, 48960, Note_on_c, 0, 61, 40
1, 48960, Note_on_c, 0, 68, 48
1, 48960, Note_on_c, 0, 73, 56
1, 48960, Note_on_c, 0, 49, 29
1, 48960, Note_on_c, 0, 53, 34
1, 48960, Note_on_c, 0, 59, 38
1, 49440, Tempo, 283152
1, 49440, Note_on_c, 0, 59, 0
1, 49440, Note_on_c, 0, 68, 0
1, 49440, Note_on_c, 0, 61, 0
1, 49440, Note_on_c, 0, 53, 0
1, 49440, Note_on_c, 0, 78, 55
1, 49440, Note_on_c, 0, 66, 46
1, 49440, Note_on_c, 0, 42, 30
1, 49440, Note_on_c, 0, 57, 37
1, 49451, Control_c, 0, 64, 0
1, 49920, Tempo, 281070
1, 49920, Note_on_c, 0, 57, 0
1, 49920, Note_on_c, 0, 49, 0
1, 49920, Note_on_c, 0, 78, 0
1, 49920, Note_on_c, 0, 73, 0
1, 49920, Note_on_c, 0, 42, 0
1, 49920, Note_on_c, 0, 66, 0
1, 49920, Note_on_c, 0, 61, 69
1, 49920, Note_on_c, 0, 73, 81
1, 49920, Note_on_c, 0, 37, 57
1, 49920, Note_on_c, 0, 49, 69
1, 50103, Control_c, 0, 64, 127
1, 50880, Tempo, 273710
1, 50880, Note_on_c, 0, 49, 0
1, 50880, Note_on_c, 0, 61, 0
1, 50880, Note_on_c, 0, 73, 0
1, 50880, Note_on_c, 0, 37, 0
1, 50880, Note_on_c, 0, 62, 64
1, 50880, Note_on_c, 0, 74, 75
1, 50880, Note_on_c, 0, 38, 52
1, 50880, Note_on_c, 0, 50, 63
1, 50891, Control_c, 0, 64, 0
1, 51006, Control_c, 0, 64, 127
1, 51120, Note_on_c, 0, 50, 0
1, 51120, Note_on_c, 0, 62, 0
1, 51120, Note_on_c, 0, 74, 0
1, 51120, Note_on_c, 0, 38, 0
1, 51120, Note_on_c, 0, 61, 59
1, 51120, Note_on_c, 0, 73, 71
1, 51120, Note_on_c, 0, 37, 48
1, 51120, Note_on_c, 0, 49, 57
1, 51360, Tempo, 278345
1, 51360, Note_on_c, 0, 49, 0
1, 51360, Note_on_c, 0, 61, 0
1, 51360, Note_on_c, 0, 73, 0
1, 51360, Note_on_c, 0, 37, 0
1, 51360, Note_on_c, 0, 56, 63
1, 51360, Note_on_c, 0, 68, 73
1, 51360, Note_on_c, 0, 32, 53
1, 51360, Note_on_c, 0, 44, 64
1, 51371, Control_c, 0, 64, 0
1, 51520, Control_c, 0, 64, 127
1, 51600, Note_on_c, 0, 44, 0
1, 51600, Note_on_c, 0, 56, 0
1, 51600, Note_on_c, 0, 68, 0
1, 51600, Note_on_c, 0, 32, 0
1, 51600, Note_on_c, 0, 57, 54
1, 51600, Note_on_c, 0, 69, 65
1, 51600, Note_on_c, 0, 33, 47
1, 51600, Note_on_c, 0, 45, 55
1, 51840, Tempo, 284549
1, 51840, Note_on_c, 0, 45, 0
1, 51840, Note_on_c, 0, 57, 0
1, 51840, Note_on_c, 0, 69, 0
1, 51840, Note_on_c, 0, 33, 0
1, 51840, Note_on_c, 0, 54, 58
1, 51840, Note_on_c, 0, 66, 70
1, 51840, Note_on_c, 0, 30, 52
1, 51840, Note_on_c, 0, 42, 63
1, 51858, Control_c, 0, 64, 0
1, 52053, Control_c, 0, 64, 127
1, 53280, Note_on_c, 0, 42, 0
1, 53280, Note_on_c, 0, 54, 0
1, 53280, Note_on_c, 0, 66, 0
1, 53280, Note_on_c, 0, 30, 0
1, 53280, Note_on_c, 0, 62, 84
1, 53280, Note_on_c, 0, 74, 84
1, 53280, Note_on_c, 0, 26, 72
1, 53280, Note_on_c, 0, 38, 72
1, 53282, Control_c, 0, 64, 0
1, 53475, Control_c, 0, 64, 127
1, 53714, Control_c, 0, 64, 0
1, 53720, Tempo, 281889
1, 53760, Tempo, 280387
1, 53760, Note_on_c, 0, 38, 0
1, 53760, Note_on_c, 0, 62, 0
1, 53760, Note_on_c, 0, 74, 0
1, 53760, Note_on_c, 0, 26, 0
1, 53760, Note_on_c, 0, 57, 48
1, 53760, Note_on_c, 0, 62, 48
1, 53760, Note_on_c, 0, 54, 38
1, 54000, Tempo, 279655
1, 54000, Note_on_c, 0, 54, 0
1, 54000, Note_on_c, 0, 62, 0
1, 54000, Note_on_c, 0, 57, 0
1, 54000, Note_on_c, 0, 57, 49
1, 54000, Note_on_c, 0, 62, 49
1, 54000, Note_on_c, 0, 54, 39
1, 54240, Tempo, 278914
1, 54240, Note_on_c, 0, 54, 0
1, 54240, Note_on_c, 0, 62, 0
1, 54240, Note_on_c, 0, 57, 0
1, 54240, Note_on_c, 0, 56, 50
1, 54240, Note_on_c, 0, 61, 50
1, 54240, Note_on_c, 0, 53, 40
1, 54480, Tempo, 278190
1, 54480, Note_on_c, 0, 53, 0
1, 54480, Note_on_c, 0, 61, 0
1, 54480, Note_on_c, 0, 56, 0
1, 54480, Note_on_c, 0, 57, 51
1, 54480, Note_on_c, 0, 62, 51
1, 54480, Note_on_c, 0, 54, 42
1, 54720, Tempo, 277457
1, 54720, Note_on_c, 0, 54, 0
1, 54720, Note_on_c, 0, 62, 0
1, 54720, Note_on_c, 0, 57, 0
1, 54720, Note_on_c, 0, 58, 52
1, 54720, Note_on_c, 0, 63, 52
1, 54720, Note_on_c, 0, 55, 43
1, 54960, Tempo, 276727
1, 54960, Note_on_c, 0, 55, 0
1, 54960, Note_on_c, 0, 63, 0
1, 54960, Note_on_c, 0, 58, 0
1, 54960, Note_on_c, 0, 59, 53
1, 54960, Note_on_c, 0, 64, 53
1, 54960, Note_on_c, 0, 56, 45
1, 55200, Tempo, 276014
1, 55200, Note_on_c, 0, 56, 0
1, 55200, Note_on_c, 0, 64, 0
1, 55200, Note_on_c, 0, 59, 0
1, 55200, Note_on_c, 0, 60, 54
1, 55200, Note_on_c, 0, 65, 54
1, 55200, Note_on_c, 0, 57, 46
1, 55440, Tempo, 275292
1, 55440, Note_on_c, 0, 57, 0
1, 55440, Note_on_c, 0, 65, 0
1, 55440, Note_on_c, 0, 60, 0
1, 55440, Note_on_c, 0, 61, 55
1, 55440, Note_on_c, 0, 66, 55
1, 55440, Note_on_c, 0, 58, 47
1, 55680, Tempo, 274574
1, 55680, Note_on_c, 0, 58, 0
1, 55680, Note_on_c, 0, 66, 0
1, 55680, Note_on_c, 0, 61, 0
1, 55680, Note_on_c, 0, 62, 57
1, 55680, Note_on_c, 0, 67, 57
1, 55680, Note_on_c, 0, 59, 49
1, 55920, Tempo, 273873
1, 55920, Note_on_c, 0, 59, 0
1, 55920, Note_on_c, 0, 67, 0
1, 55920, Note_on_c, 0, 62, 0
1, 55920, Note_on_c, 0, 63, 59
1, 55920, Note_on_c, 0, 68, 59
1, 55920, Note_on_c, 0, 60, 50
1, 56160, Tempo, 273162
1, 56160, Note_on_c, 0, 60, 0
1, 56160, Note_on_c, 0, 68, 0
1, 56160, Note_on_c, 0, 63, 0
1, 56160, Note_on_c, 0, 64, 59
1, 56160, Note_on_c, 0, 69, 59
1, 56160, Note_on_c, 0, 61, 51
1, 56400, Note_on_c, 0, 61, 0
1, 56400, Note_on_c, 0, 69, 0
1, 56400, Note_on_c, 0, 64, 0
1, 56400, Note_on_c, 0, 65, 60
1, 56400, Note_on_c, 0, 70, 60
1, 56400, Note_on_c, 0, 62, 53
1, 56640, Note_on_c, 0, 62, 0
1, 56640, Note_on_c, 0, 70, 0
1, 56640, Note_on_c, 0, 65, 0
1, 56640, Note_on_c, 0, 66, 64
1, 56640, Note_on_c, 0, 71, 64
1, 56640, Note_on_c, 0, 63, 55
1, 56880, Note_on_c, 0, 63, 0
1, 56880, Note_on_c, 0, 71, 0
1, 56880, Note_on_c, 0, 66, 0
1, 56880, Note_on_c, 0, 67, 65
1, 56880, Note_on_c, 0, 72, 65
1, 56880, Note_on_c, 0, 64, 55
1, 57120, Note_on_c, 0, 64, 0
1, 57120, Note_on_c, 0, 72, 0
1, 57120, Note_on_c, 0, 67, 0
1, 57120, Note_on_c, 0, 68, 66
1, 57120, Note_on_c, 0, 73, 66
1, 57120, Note_on_c, 0, 65, 55
1, 57360, Note_on_c, 0, 65, 0
1, 57360, Note_on_c, 0, 73, 0
1, 57360, Note_on_c, 0, 68, 0
1, 57360, Note_on_c, 0, 69, 67
1, 57360, Note_on_c, 0, 74, 67
1, 57360, Note_on_c, 0, 66, 57
1, 57600, Note_on_c, 0, 66, 0
1, 57600, Note_on_c, 0, 74, 0
1, 57600, Note_on_c, 0, 69, 0
1, 57600, Note_on_c, 0, 69, 68
1, 57600, Note_on_c, 0, 74, 68
1, 57600, Note_on_c, 0, 66, 58
1, 58080, Tempo, 269857
1, 58080, Note_on_c, 0, 66, 0
1, 58080, Note_on_c, 0, 74, 0
1, 58080, Note_on_c, 0, 69, 0
1, 58080, Note_on_c, 0, 70, 73
1, 58080, Note_on_c, 0, 75, 73
1, 58080, Note_on_c, 0, 67, 64
1, 58440, Tempo, 295523
1, 58537, Control_c, 0, 64, 127
1, 58560, Tempo, 284914
1, 58560, Note_on_c, 0, 67, 0
1, 58560, Note_on_c, 0, 75, 0
1, 58560, Note_on_c, 0, 70, 0
1, 58560, Note_on_c, 0, 87, 80
1, 58560, Note_on_c, 0, 82, 80
1, 58560, Note_on_c, 0, 75, 80
1, 58560, Note_on_c, 0, 67, 74
1, 58560, Note_on_c, 0, 63, 74
1, 58560, Note_on_c, 0, 58, 74
1, 58560, Note_on_c, 0, 55, 74
1, 58800, Note_on_c, 0, 55, 0
1, 58800, Note_on_c, 0, 63, 0
1, 58800, Note_on_c, 0, 82, 0
1, 58800, Note_on_c, 0, 75, 0
1, 58800, Note_on_c, 0, 87, 0
1, 58800, Note_on_c, 0, 58, 0
1, 58800, Note_on_c, 0, 67, 0
1, 59040, Note_on_c, 0, 87, 91
1, 59040, Note_on_c, 0, 99, 79
1, 59040, Note_on_c, 0, 39, 79
1, 59040, Note_on_c, 0, 51, 79
1, 59497, Control_c, 0, 64, 0
1, 59520, Tempo, 279655
1, 59520, Note_on_c, 0, 51, 0
1, 59520, Note_on_c, 0, 87, 0
1, 59520, Note_on_c, 0, 99, 0
1, 59520, Note_on_c, 0, 39, 0
1, 59520, Note_on_c, 0, 58, 48
1, 59520, Note_on_c, 0, 63, 48
1, 59520, Note_on_c, 0, 55, 38
1, 59760, Note_on_c, 0, 55, 0
1, 59760, Note_on_c, 0, 63, 0
1, 59760, Note_on_c, 0, 58, 0
1, 59760, Note_on_c, 0, 63, 49
1, 59760, Note_on_c, 0, 58, 49
1, 59760, Note_on_c, 0, 55, 39
1, 59800, Tempo, 278914
1, 60000, Note_on_c, 0, 55, 0
1, 60000, Note_on_c, 0, 58, 0
1, 60000, Note_on_c, 0, 63, 0
1, 60000, Note_on_c, 0, 57, 50
1, 60000, Note_on_c, 0, 62, 50
1, 60000, Note_on_c, 0, 54, 40
1, 60080, Tempo, 278190
1, 60240, Note_on_c, 0, 54, 0
1, 60240, Note_on_c, 0, 62, 0
1, 60240, Note_on_c, 0, 57, 0
1, 60240, Note_on_c, 0, 58, 51
1, 60240, Note_on_c, 0, 63, 51
1, 60240, Note_on_c, 0, 55, 42
1, 60320, Tempo, 277457
1, 60480, Note_on_c, 0, 55, 0
1, 60480, Note_on_c, 0, 63, 0
1, 60480, Note_on_c, 0, 58, 0
1, 60480, Note_on_c, 0, 59, 52
1, 60480, Note_on_c, 0, 64, 52
1, 60480, Note_on_c, 0, 56, 43
1, 60600, Tempo, 276727
1, 60720, Note_on_c, 0, 56, 0
1, 60720, Note_on_c, 0, 64, 0
1, 60720, Note_on_c, 0, 59, 0
1, 60720, Note_on_c, 0, 60, 53
1, 60720, Note_on_c, 0, 65, 53
1, 60720, Note_on_c, 0, 57, 45
1, 60880, Tempo, 276014
1, 60960, Note_on_c, 0, 57, 0
1, 60960, Note_on_c, 0, 65, 0
1, 60960, Note_on_c, 0, 60, 0
1, 60960, Note_on_c, 0, 61, 54
1, 60960, Note_on_c, 0, 66, 54
1, 60960, Note_on_c, 0, 58, 46
1, 61120, Tempo, 275292
1, 61200, Note_on_c, 0, 58, 0
1, 61200, Note_on_c, 0, 66, 0
1, 61200, Note_on_c, 0, 61, 0
1, 61200, Note_on_c, 0, 62, 55
1, 61200, Note_on_c, 0, 67, 55
1, 61200, Note_on_c, 0, 59, 47
1, 61400, Tempo, 274574
1, 61440, Note_on_c, 0, 59, 0
1, 61440, Note_on_c, 0, 67, 0
1, 61440, Note_on_c, 0, 62, 0
1, 61440, Note_on_c, 0, 63, 57
1, 61440, Note_on_c, 0, 68, 57
1, 61440, Note_on_c, 0, 60, 49
1, 61680, Tempo, 273873
1, 61680, Note_on_c, 0, 60, 0
1, 61680, Note_on_c, 0, 68, 0
1, 61680, Note_on_c, 0, 63, 0
1, 61680, Note_on_c, 0, 64, 59
1, 61680, Note_on_c, 0, 69, 59
1, 61680, Note_on_c, 0, 61, 50
1, 61920, Tempo, 273162
1, 61920, Note_on_c, 0, 61, 0
1, 61920, Note_on_c, 0, 69, 0
1, 61920, Note_on_c, 0, 64, 0
1, 61920, Note_on_c, 0, 65, 59
1, 61920, Note_on_c, 0, 70, 59
1, 61920, Note_on_c, 0, 62, 51
1, 62160, Note_on_c, 0, 62, 0
1, 62160, Note_on_c, 0, 70, 0
1, 62160, Note_on_c, 0, 65, 0
1, 62160, Note_on_c, 0, 66, 60
1, 62160, Note_on_c, 0, 71, 60
1, 62160, Note_on_c, 0, 63, 53
1, 62400, Note_on_c, 0, 63, 0
1, 62400, Note_on_c, 0, 71, 0
1, 62400, Note_on_c, 0, 66, 0
1, 62400, Note_on_c, 0, 67, 64
1, 62400, Note_on_c, 0, 72, 64
1, 62400, Note_on_c, 0, 64, 55
1, 62640, Note_on_c, 0, 64, 0
1, 62640, Note_on_c, 0, 72, 0
1, 62640, Note_on_c, 0, 67, 0
1, 62640, Note_on_c, 0, 68, 65
1, 62640, Note_on_c, 0, 73, 65
1, 62640, Note_on_c, 0, 65, 55
1, 62880, Note_on_c, 0, 65, 0
1, 62880, Note_on_c, 0, 73, 0
1, 62880, Note_on_c, 0, 68, 0
1, 62880, Note_on_c, 0, 69, 66
1, 62880, Note_on_c, 0, 74, 66
1, 62880, Note_on_c, 0, 66, 55
1, 63120, Note_on_c, 0, 66, 0
1, 63120, Note_on_c, 0, 74, 0
1, 63120, Note_on_c, 0, 69, 0
1, 63120, Note_on_c, 0, 70, 67
1, 63120, Note_on_c, 0, 75, 67
1, 63120, Note_on_c, 0, 67, 57
1, 63360, Note_on_c, 0, 67, 0
1, 63360, Note_on_c, 0, 75, 0
1, 63360, Note_on_c, 0, 70, 0
1, 63360, Note_on_c, 0, 70, 68
1, 63360, Note_on_c, 0, 75, 68
1, 63360, Note_on_c, 0, 67, 58
1, 63840, Tempo, 269227
1, 63840, Note_on_c, 0, 67, 0
1, 63840, Note_on_c, 0, 75, 0
1, 63840, Note_on_c, 0, 70, 0
1, 63840, Note_on_c, 0, 71, 73
1, 63840, Note_on_c, 0, 76, 73
1, 63840, Note_on_c, 0, 68, 64
1, 64240, Tempo, 293269
1, 64320, Tempo, 284914
1, 64320, Note_on_c, 0, 68, 0
1, 64320, Note_on_c, 0, 76, 0
1, 64320, Note_on_c, 0, 71, 0
1, 64320, Note_on_c, 0, 88, 80
1, 64320, Note_on_c, 0, 83, 80
1, 64320, Note_on_c, 0, 76, 80
1, 64320, Note_on_c, 0, 68, 74
1, 64320, Note_on_c, 0, 64, 74
1, 64320, Note_on_c, 0, 59, 74
1, 64320, Note_on_c, 0, 56, 74
1, 64457, Control_c, 0, 64, 127
1, 64560, Note_on_c, 0, 56, 0
1, 64560, Note_on_c, 0, 64, 0
1, 64560, Note_on_c, 0, 83, 0
1, 64560, Note_on_c, 0, 76, 0
1, 64560, Note_on_c, 0, 88, 0
1, 64560, Note_on_c, 0, 59, 0
1, 64560, Note_on_c, 0, 68, 0
1, 64800, Note_on_c, 0, 88, 91
1, 64800, Note_on_c, 0, 100, 85
1, 64800, Note_on_c, 0, 40, 79
1, 64800, Note_on_c, 0, 52, 79
1, 65280, Tempo, 275292
1, 65280, Note_on_c, 0, 52, 0
1, 65280, Note_on_c, 0, 88, 0
1, 65280, Note_on_c, 0, 100, 0
1, 65280, Note_on_c, 0, 40, 0
1, 65280, Note_on_c, 0, 64, 58
1, 65280, Note_on_c, 0, 76, 70
1, 65280, Note_on_c, 0, 56, 50
1, 65280, Note_on_c, 0, 59, 59
1, 65292, Control_c, 0, 64, 0
1, 65520, Note_on_c, 0, 59, 0
1, 65520, Note_on_c, 0, 64, 0
1, 65520, Note_on_c, 0, 76, 0
1, 65520, Note_on_c, 0, 56, 0
1, 65520, Note_on_c, 0, 64, 58
1, 65520, Note_on_c, 0, 76, 70
1, 65520, Note_on_c, 0, 56, 49
1, 65520, Note_on_c, 0, 59, 58
1, 65760, Tempo, 279655
1, 65760, Note_on_c, 0, 59, 0
1, 65760, Note_on_c, 0, 64, 0
1, 65760, Note_on_c, 0, 76, 0
1, 65760, Note_on_c, 0, 56, 0
1, 65760, Note_on_c, 0, 63, 53
1, 65760, Note_on_c, 0, 75, 64
1, 65760, Note_on_c, 0, 55, 46
1, 65760, Note_on_c, 0, 58, 54
1, 66000, Note_on_c, 0, 58, 0
1, 66000, Note_on_c, 0, 63, 0
1, 66000, Note_on_c, 0, 75, 0
1, 66000, Note_on_c, 0, 55, 0
1, 66000, Note_on_c, 0, 64, 53
1, 66000, Note_on_c, 0, 76, 64
1, 66000, Note_on_c, 0, 56, 46
1, 66000, Note_on_c, 0, 59, 54
1, 66120, Tempo, 276727
1, 66240, Note_on_c, 0, 59, 0
1, 66240, Note_on_c, 0, 64, 0
1, 66240, Note_on_c, 0, 76, 0
1, 66240, Note_on_c, 0, 56, 0
1, 66240, Note_on_c, 0, 65, 58
1, 66240, Note_on_c, 0, 77, 70
1, 66240, Note_on_c, 0, 57, 49
1, 66240, Note_on_c, 0, 60, 58
1, 66280, Tempo, 276014
1, 66480, Note_on_c, 0, 60, 0
1, 66480, Note_on_c, 0, 65, 0
1, 66480, Note_on_c, 0, 77, 0
1, 66480, Note_on_c, 0, 57, 0
1, 66480, Note_on_c, 0, 66, 53
1, 66480, Note_on_c, 0, 78, 64
1, 66480, Note_on_c, 0, 58, 49
1, 66480, Note_on_c, 0, 61, 58
1, 66720, Tempo, 273710
1, 66720, Note_on_c, 0, 61, 0
1, 66720, Note_on_c, 0, 66, 0
1, 66720, Note_on_c, 0, 78, 0
1, 66720, Note_on_c, 0, 58, 0
1, 66720, Note_on_c, 0, 67, 58
1, 66720, Note_on_c, 0, 79, 70
1, 66720, Note_on_c, 0, 59, 49
1, 66720, Note_on_c, 0, 62, 58
1, 66840, Note_on_c, 0, 62, 0
1, 66840, Note_on_c, 0, 67, 0
1, 66840, Note_on_c, 0, 79, 0
1, 66840, Note_on_c, 0, 59, 0
1, 66960, Note_on_c, 0, 67, 54
1, 66960, Note_on_c, 0, 79, 65
1, 66960, Note_on_c, 0, 59, 45
1, 66960, Note_on_c, 0, 62, 53
1, 67080, Note_on_c, 0, 62, 0
1, 67080, Note_on_c, 0, 67, 0
1, 67080, Note_on_c, 0, 79, 0
1, 67080, Note_on_c, 0, 59, 0
1, 67200, Tempo, 281136
1, 67200, Note_on_c, 0, 67, 54
1, 67200, Note_on_c, 0, 79, 65
1, 67200, Note_on_c, 0, 59, 45
1, 67200, Note_on_c, 0, 62, 53
1, 67320, Note_on_c, 0, 62, 0
1, 67320, Note_on_c, 0, 67, 0
1, 67320, Note_on_c, 0, 79, 0
1, 67320, Note_on_c, 0, 59, 0
1, 67440, Note_on_c, 0, 67, 54
1, 67440, Note_on_c, 0, 79, 65
1, 67440, Note_on_c, 0, 59, 46
1, 67440, Note_on_c, 0, 62, 54
1, 67560, Note_on_c, 0, 62, 0
1, 67560, Note_on_c, 0, 67, 0
1, 67560, Note_on_c, 0, 79, 0
1, 67560, Note_on_c, 0, 59, 0
1, 67680, Tempo, 275292
1, 67680, Note_on_c, 0, 67, 58
1, 67680, Note_on_c, 0, 79, 70
1, 67680, Note_on_c, 0, 59, 49
1, 67680, Note_on_c, 0, 62, 58
1, 67920, Note_on_c, 0, 62, 0
1, 67920, Note_on_c, 0, 67, 0
1, 67920, Note_on_c, 0, 79, 0
1, 67920, Note_on_c, 0, 59, 0
1, 67920, Note_on_c, 0, 66, 54
1, 67920, Note_on_c, 0, 78, 65
1, 67920, Note_on_c, 0, 58, 46
1, 67920, Note_on_c, 0, 61, 54
1, 68160, Tempo, 273062
1, 68160, Note_on_c, 0, 61, 0
1, 68160, Note_on_c, 0, 66, 0
1, 68160, Note_on_c, 0, 78, 0
1, 68160, Note_on_c, 0, 58, 0
1, 68160, Note_on_c, 0, 66, 58
1, 68160, Note_on_c, 0, 78, 70
1, 68160, Note_on_c, 0, 58, 49
1, 68160, Note_on_c, 0, 61, 58
1, 68280, Note_on_c, 0, 61, 0
1, 68280, Note_on_c, 0, 66, 0
1, 68280, Note_on_c, 0, 78, 0
1, 68280, Note_on_c, 0, 58, 0
1, 68400, Note_on_c, 0, 66, 54
1, 68400, Note_on_c, 0, 78, 65
1, 68400, Note_on_c, 0, 58, 46
1, 68400, Note_on_c, 0, 61, 54
1, 68520, Note_on_c, 0, 61, 0
1, 68520, Note_on_c, 0, 66, 0
1, 68520, Note_on_c, 0, 78, 0
1, 68520, Note_on_c, 0, 58, 0
1, 68640, Tempo, 281136
1, 68640, Note_on_c, 0, 65, 54
1, 68640, Note_on_c, 0, 77, 65
1, 68640, Note_on_c, 0, 57, 46
1, 68640, Note_on_c, 0, 60, 54
1, 68760, Note_on_c, 0, 60, 0
1, 68760, Note_on_c, 0, 65, 0
1, 68760, Note_on_c, 0, 77, 0
1, 68760, Note_on_c, 0, 57, 0
1, 68880, Note_on_c, 0, 66, 54
1, 68880, Note_on_c, 0, 78, 65
1, 68880, Note_on_c, 0, 58, 46
1, 68880, Note_on_c, 0, 61, 54
1, 69000, Note_on_c, 0, 61, 0
1, 69000, Note_on_c, 0, 66, 0
1, 69000, Note_on_c, 0, 78, 0
1, 69000, Note_on_c, 0, 58, 0
1, 69120, Tempo, 275292
1, 69120, Note_on_c, 0, 67, 58
1, 69120, Note_on_c, 0, 79, 70
1, 69120, Note_on_c, 0, 59, 49
1, 69120, Note_on_c, 0, 62, 58
1, 69360, Note_on_c, 0, 62, 0
1, 69360, Note_on_c, 0, 67, 0
1, 69360, Note_on_c, 0, 79, 0
1, 69360, Note_on_c, 0, 59, 0
1, 69360, Note_on_c, 0, 68, 53
1, 69360, Note_on_c, 0, 80, 63
1, 69360, Note_on_c, 0, 60, 46
1, 69360, Note_on_c, 0, 63, 54
1, 69600, Tempo, 272418
1, 69600, Note_on_c, 0, 63, 0
1, 69600, Note_on_c, 0, 68, 0
1, 69600, Note_on_c, 0, 80, 0
1, 69600, Note_on_c, 0, 60, 0
1, 69600, Note_on_c, 0, 69, 54
1, 69600, Note_on_c, 0, 81, 65
1, 69600, Note_on_c, 0, 61, 49
1, 69600, Note_on_c, 0, 64, 58
1, 69720, Note_on_c, 0, 64, 0
1, 69720, Note_on_c, 0, 69, 0
1, 69720, Note_on_c, 0, 81, 0
1, 69720, Note_on_c, 0, 61, 0
1, 69840, Note_on_c, 0, 69, 56
1, 69840, Note_on_c, 0, 81, 67
1, 69840, Note_on_c, 0, 61, 51
1, 69840, Note_on_c, 0, 64, 60
1, 69960, Note_on_c, 0, 64, 0
1, 69960, Note_on_c, 0, 69, 0
1, 69960, Note_on_c, 0, 81, 0
1, 69960, Note_on_c, 0, 61, 0
1, 70080, Tempo, 279655
1, 70080, Note_on_c, 0, 69, 58
1, 70080, Note_on_c, 0, 81, 70
1, 70080, Note_on_c, 0, 61, 53
1, 70080, Note_on_c, 0, 64, 63
1, 70200, Note_on_c, 0, 64, 0
1, 70200, Note_on_c, 0, 69, 0
1, 70200, Note_on_c, 0, 81, 0
1, 70200, Note_on_c, 0, 61, 0
1, 70320, Note_on_c, 0, 69, 60
1, 70320, Note_on_c, 0, 81, 72
1, 70320, Note_on_c, 0, 61, 53
1, 70320, Note_on_c, 0, 64, 64
1, 70440, Note_on_c, 0, 64, 0
1, 70440, Note_on_c, 0, 69, 0
1, 70440, Note_on_c, 0, 81, 0
1, 70440, Note_on_c, 0, 61, 0
1, 70560, Tempo, 275292
1, 70560, Note_on_c, 0, 69, 66
1, 70560, Note_on_c, 0, 81, 78
1, 70560, Note_on_c, 0, 61, 56
1, 70560, Note_on_c, 0, 64, 67
1, 70800, Note_on_c, 0, 64, 0
1, 70800, Note_on_c, 0, 69, 0
1, 70800, Note_on_c, 0, 81, 0
1, 70800, Note_on_c, 0, 61, 0
1, 70800, Note_on_c, 0, 68, 60
1, 70800, Note_on_c, 0, 80, 72
1, 70800, Note_on_c, 0, 60, 50
1, 70800, Note_on_c, 0, 63, 59
1, 71040, Tempo, 272418
1, 71040, Note_on_c, 0, 63, 0
1, 71040, Note_on_c, 0, 68, 0
1, 71040, Note_on_c, 0, 80, 0
1, 71040, Note_on_c, 0, 60, 0
1, 71040, Note_on_c, 0, 68, 63
1, 71040, Note_on_c, 0, 80, 74
1, 71040, Note_on_c, 0, 60, 50
1, 71040, Note_on_c, 0, 63, 59
1, 71160, Note_on_c, 0, 63, 0
1, 71160, Note_on_c, 0, 68, 0
1, 71160, Note_on_c, 0, 80, 0
1, 71160, Note_on_c, 0, 60, 0
1, 71280, Note_on_c, 0, 68, 65
1, 71280, Note_on_c, 0, 80, 76
1, 71280, Note_on_c, 0, 60, 52
1, 71280, Note_on_c, 0, 63, 61
1, 71400, Note_on_c, 0, 63, 0
1, 71400, Note_on_c, 0, 68, 0
1, 71400, Note_on_c, 0, 80, 0
1, 71400, Note_on_c, 0, 60, 0
1, 71520, Tempo, 279655
1, 71520, Note_on_c, 0, 67, 65
1, 71520, Note_on_c, 0, 79, 77
1, 71520, Note_on_c, 0, 59, 53
1, 71520, Note_on_c, 0, 62, 64
1, 71640, Note_on_c, 0, 62, 0
1, 71640, Note_on_c, 0, 67, 0
1, 71640, Note_on_c, 0, 79, 0
1, 71640, Note_on_c, 0, 59, 0
1, 71760, Note_on_c, 0, 68, 68
1, 71760, Note_on_c, 0, 80, 80
1, 71760, Note_on_c, 0, 60, 54
1, 71760, Note_on_c, 0, 63, 65
1, 71880, Note_on_c, 0, 63, 0
1, 71880, Note_on_c, 0, 68, 0
1, 71880, Note_on_c, 0, 80, 0
1, 71880, Note_on_c, 0, 60, 0
1, 72000, Tempo, 281756
1, 72000, Note_on_c, 0, 68, 77
1, 72000, Note_on_c, 0, 73, 77
1, 72000, Note_on_c, 0, 80, 91
1, 72000, Note_on_c, 0, 59, 56
1, 72000, Note_on_c, 0, 65, 67
1, 72000, Note_on_c, 0, 61, 56
1, 72071, Control_c, 0, 64, 127
1, 72360, Tempo, 298597
1, 72420, Note_on_c, 0, 80, 0
1, 72420, Note_on_c, 0, 68, 0
1, 72420, Note_on_c, 0, 73, 0
1, 72420, Note_on_c, 0, 70, 55
1, 72420, Note_on_c, 0, 82, 63
1, 72480, Tempo, 275685
1, 72480, Note_on_c, 0, 82, 0
1, 72480, Note_on_c, 0, 59, 0
1, 72480, Note_on_c, 0, 61, 0
1, 72480, Note_on_c, 0, 65, 0
1, 72480, Note_on_c, 0, 70, 0
1, 72480, Note_on_c, 0, 68, 73
1, 72480, Note_on_c, 0, 73, 73
1, 72480, Note_on_c, 0, 80, 86
1, 72480, Note_on_c, 0, 37, 49
1, 72480, Note_on_c, 0, 49, 59
1, 72720, Tempo, 278345
1, 72720, Note_on_c, 0, 80, 0
1, 72720, Note_on_c, 0, 68, 0
1, 72720, Note_on_c, 0, 73, 0
1, 72720, Note_on_c, 0, 67, 66
1, 72720, Note_on_c, 0, 79, 79
1, 72960, Tempo, 285973
1, 72960, Note_on_c, 0, 79, 0
1, 72960, Note_on_c, 0, 49, 0
1, 72960, Note_on_c, 0, 37, 0
1, 72960, Note_on_c, 0, 67, 0
1, 72960, Note_on_c, 0, 68, 73
1, 72960, Note_on_c, 0, 73, 73
1, 72960, Note_on_c, 0, 80, 88
1, 72960, Note_on_c, 0, 65, 65
1, 72960, Note_on_c, 0, 61, 54
1, 72960, Note_on_c, 0, 59, 54
1, 73200, Note_on_c, 0, 80, 0
1, 73200, Note_on_c, 0, 68, 0
1, 73200, Note_on_c, 0, 73, 0
1, 73200, Note_on_c, 0, 70, 69
1, 73200, Note_on_c, 0, 82, 82
1, 73320, Tempo, 297059
1, 73440, Tempo, 286684
1, 73440, Note_on_c, 0, 82, 0
1, 73440, Note_on_c, 0, 65, 0
1, 73440, Note_on_c, 0, 59, 0
1, 73440, Note_on_c, 0, 61, 0
1, 73440, Note_on_c, 0, 70, 0
1, 73440, Note_on_c, 0, 73, 76
1, 73440, Note_on_c, 0, 68, 76
1, 73440, Note_on_c, 0, 80, 90
1, 73440, Note_on_c, 0, 64, 67
1, 73440, Note_on_c, 0, 61, 56
1, 73440, Note_on_c, 0, 59, 56
1, 73440, Note_on_c, 0, 54, 56
1, 73451, Control_c, 0, 64, 0
1, 73680, Control_c, 0, 64, 127
1, 73920, Tempo, 277008
1, 73920, Note_on_c, 0, 54, 0
1, 73920, Note_on_c, 0, 61, 0
1, 73920, Note_on_c, 0, 68, 0
1, 73920, Note_on_c, 0, 80, 0
1, 73920, Note_on_c, 0, 73, 0
1, 73920, Note_on_c, 0, 59, 0
1, 73920, Note_on_c, 0, 64, 0
1, 73920, Note_on_c, 0, 92, 95
1, 73920, Note_on_c, 0, 80, 79
1, 73920, Note_on_c, 0, 30, 51
1, 73920, Note_on_c, 0, 42, 60
1, 74160, Note_on_c, 0, 42, 0
1, 74160, Note_on_c, 0, 92, 0
1, 74160, Note_on_c, 0, 80, 0
1, 74160, Note_on_c, 0, 30, 0
1, 74400, Tempo, 281756
1, 74400, Note_on_c, 0, 66, 73
1, 74400, Note_on_c, 0, 73, 73
1, 74400, Note_on_c, 0, 78, 88
1, 74400, Note_on_c, 0, 64, 61
1, 74400, Note_on_c, 0, 61, 52
1, 74400, Note_on_c, 0, 58, 52
1, 74400, Note_on_c, 0, 54, 52
1, 74880, Tempo, 285252
1, 74880, Note_on_c, 0, 54, 0
1, 74880, Note_on_c, 0, 61, 0
1, 74880, Note_on_c, 0, 73, 0
1, 74880, Note_on_c, 0, 78, 0
1, 74880, Note_on_c, 0, 66, 0
1, 74880, Note_on_c, 0, 58, 0
1, 74880, Note_on_c, 0, 64, 0
1, 74880, Note_on_c, 0, 66, 65
1, 74880, Note_on_c, 0, 71, 65
1, 74880, Note_on_c, 0, 78, 77
1, 74880, Note_on_c, 0, 57, 54
1, 74880, Note_on_c, 0, 63, 63
1, 74880, Note_on_c, 0, 59, 54
1, 74891, Control_c, 0, 64, 0
1, 75134, Control_c, 0, 64, 127
1, 75240, Tempo, 299371
1, 75300, Note_on_c, 0, 78, 0
1, 75300, Note_on_c, 0, 66, 0
1, 75300, Note_on_c, 0, 71, 0
1, 75300, Note_on_c, 0, 68, 61
1, 75300, Note_on_c, 0, 80, 61
1, 75360, Tempo, 278345
1, 75360, Note_on_c, 0, 80, 0
1, 75360, Note_on_c, 0, 57, 0
1, 75360, Note_on_c, 0, 59, 0
1, 75360, Note_on_c, 0, 63, 0
1, 75360, Note_on_c, 0, 68, 0
1, 75360, Note_on_c, 0, 66, 70
1, 75360, Note_on_c, 0, 71, 70
1, 75360, Note_on_c, 0, 78, 82
1, 75360, Note_on_c, 0, 35, 47
1, 75360, Note_on_c, 0, 47, 57
1, 75400, Tempo, 275685
1, 75600, Tempo, 278345
1, 75600, Note_on_c, 0, 78, 0
1, 75600, Note_on_c, 0, 66, 0
1, 75600, Note_on_c, 0, 71, 0
1, 75600, Note_on_c, 0, 65, 67
1, 75600, Note_on_c, 0, 77, 79
1, 75840, Tempo, 289575
1, 75840, Note_on_c, 0, 77, 0
1, 75840, Note_on_c, 0, 47, 0
1, 75840, Note_on_c, 0, 35, 0
1, 75840, Note_on_c, 0, 65, 0
1, 75840, Note_on_c, 0, 66, 70
1, 75840, Note_on_c, 0, 71, 70
1, 75840, Note_on_c, 0, 78, 84
1, 75840, Note_on_c, 0, 63, 61
1, 75840, Note_on_c, 0, 59, 51
1, 75840, Note_on_c, 0, 57, 51
1, 76080, Note_on_c, 0, 78, 0
1, 76080, Note_on_c, 0, 66, 0
1, 76080, Note_on_c, 0, 71, 0
1, 76080, Note_on_c, 0, 68, 67
1, 76080, Note_on_c, 0, 80, 79
1, 76320, Tempo, 285252
1, 76320, Note_on_c, 0, 80, 0
1, 76320, Note_on_c, 0, 63, 0
1, 76320, Note_on_c, 0, 57, 0
1, 76320, Note_on_c, 0, 59, 0
1, 76320, Note_on_c, 0, 68, 0
1, 76320, Note_on_c, 0, 71, 76
1, 76320, Note_on_c, 0, 66, 76
1, 76320, Note_on_c, 0, 78, 90
1, 76320, Control_c, 0, 64, 0
1, 76320, Note_on_c, 0, 62, 67
1, 76320, Note_on_c, 0, 59, 56
1, 76320, Note_on_c, 0, 57, 56
1, 76320, Note_on_c, 0, 52, 56
1, 76560, Control_c, 0, 64, 127
1, 76800, Tempo, 279031
1, 76800, Note_on_c, 0, 52, 0
1, 76800, Note_on_c, 0, 59, 0
1, 76800, Note_on_c, 0, 66, 0
1, 76800, Note_on_c, 0, 78, 0
1, 76800, Note_on_c, 0, 71, 0
1, 76800, Note_on_c, 0, 57, 0
1, 76800, Note_on_c, 0, 62, 0
1, 76800, Note_on_c, 0, 90, 92
1, 76800, Note_on_c, 0, 78, 79
1, 76800, Note_on_c, 0, 28, 51
1, 76800, Note_on_c, 0, 40, 60
1, 77040, Note_on_c, 0, 40, 0
1, 77040, Note_on_c, 0, 90, 0
1, 77040, Note_on_c, 0, 78, 0
1, 77040, Note_on_c, 0, 28, 0
1, 77280, Note_on_c, 0, 64, 73
1, 77280, Note_on_c, 0, 71, 73
1, 77280, Note_on_c, 0, 76, 88
1, 77280, Note_on_c, 0, 62, 61
1, 77280, Note_on_c, 0, 56, 52
1, 77280, Note_on_c, 0, 52, 52
1, 77320, Tempo, 281756
1, 77760, Tempo, 285252
1, 77760, Note_on_c, 0, 52, 0
1, 77760, Note_on_c, 0, 71, 0
1, 77760, Note_on_c, 0, 76, 0
1, 77760, Note_on_c, 0, 64, 0
1, 77760, Note_on_c, 0, 56, 0
1, 77760, Note_on_c, 0, 62, 0
1, 77760, Note_on_c, 0, 64, 77
1, 77760, Note_on_c, 0, 69, 77
1, 77760, Note_on_c, 0, 76, 91
1, 77760, Note_on_c, 0, 55, 56
1, 77760, Note_on_c, 0, 61, 67
1, 77760, Note_on_c, 0, 57, 56
1, 77765, Control_c, 0, 64, 0
1, 78017, Control_c, 0, 64, 127
1, 78120, Tempo, 300150
1, 78180, Note_on_c, 0, 76, 0
1, 78180, Note_on_c, 0, 64, 0
1, 78180, Note_on_c, 0, 69, 0
1, 78180, Note_on_c, 0, 66, 55
1, 78180, Note_on_c, 0, 78, 63
1, 78240, Tempo, 277457
1, 78240, Note_on_c, 0, 78, 0
1, 78240, Note_on_c, 0, 55, 0
1, 78240, Note_on_c, 0, 57, 0
1, 78240, Note_on_c, 0, 61, 0
1, 78240, Note_on_c, 0, 66, 0
1, 78240, Note_on_c, 0, 64, 77
1, 78240, Note_on_c, 0, 69, 77
1, 78240, Note_on_c, 0, 76, 91
1, 78240, Note_on_c, 0, 33, 50
1, 78240, Note_on_c, 0, 45, 59
1, 78480, Note_on_c, 0, 76, 0
1, 78480, Note_on_c, 0, 64, 0
1, 78480, Note_on_c, 0, 69, 0
1, 78480, Note_on_c, 0, 63, 69
1, 78480, Note_on_c, 0, 75, 82
1, 78720, Tempo, 286451
1, 78720, Note_on_c, 0, 75, 0
1, 78720, Note_on_c, 0, 45, 0
1, 78720, Note_on_c, 0, 33, 0
1, 78720, Note_on_c, 0, 63, 0
1, 78720, Note_on_c, 0, 64, 73
1, 78720, Note_on_c, 0, 69, 73
1, 78720, Note_on_c, 0, 76, 88
1, 78720, Note_on_c, 0, 61, 60
1, 78720, Note_on_c, 0, 57, 51
1, 78720, Note_on_c, 0, 55, 51
1, 78960, Note_on_c, 0, 76, 0
1, 78960, Note_on_c, 0, 64, 0
1, 78960, Note_on_c, 0, 69, 0
1, 78960, Note_on_c, 0, 66, 69
1, 78960, Note_on_c, 0, 78, 82
1, 79200, Tempo, 281889
1, 79200, Note_on_c, 0, 78, 0
1, 79200, Note_on_c, 0, 61, 0
1, 79200, Note_on_c, 0, 55, 0
1, 79200, Note_on_c, 0, 57, 0
1, 79200, Note_on_c, 0, 66, 0
1, 79200, Note_on_c, 0, 63, 76
1, 79200, Note_on_c, 0, 69, 76
1, 79200, Note_on_c, 0, 75, 90
1, 79200, Control_c, 0, 64, 0
1, 79200, Note_on_c, 0, 54, 56
1, 79200, Note_on_c, 0, 60, 67
1, 79440, Note_on_c, 0, 75, 0
1, 79440, Note_on_c, 0, 63, 0
1, 79440, Note_on_c, 0, 69, 0
1, 79440, Note_on_c, 0, 63, 74
1, 79440, Control_c, 0, 64, 127
1, 79680, Note_on_c, 0, 63, 0
1, 79680, Note_on_c, 0, 54, 0
1, 79680, Note_on_c, 0, 60, 0
1, 79680, Note_on_c, 0, 66, 71
1, 79680, Note_on_c, 0, 75, 84
1, 79680, Note_on_c, 0, 57, 48
1, 79680, Note_on_c, 0, 60, 58
1, 79720, Tempo, 281136
1, 79840, Tempo, 281889
1, 79920, Tempo, 282632
1, 79920, Note_on_c, 0, 75, 0
1, 79920, Note_on_c, 0, 66, 0
1, 79920, Note_on_c, 0, 75, 81
1, 80000, Tempo, 283393
1, 80080, Tempo, 284158
1, 80160, Tempo, 284914
1, 80160, Note_on_c, 0, 75, 0
1, 80160, Note_on_c, 0, 57, 0
1, 80160, Note_on_c, 0, 60, 0
1, 80160, Note_on_c, 0, 87, 89
1, 80160, Note_on_c, 0, 78, 74
1, 80160, Note_on_c, 0, 69, 55
1, 80160, Note_on_c, 0, 72, 65
1, 80280, Tempo, 285687
1, 80360, Tempo, 286451
1, 80400, Note_on_c, 0, 78, 0
1, 80400, Note_on_c, 0, 87, 0
1, 80400, Note_on_c, 0, 87, 88
1, 80440, Tempo, 287219
1, 80520, Tempo, 288018
1, 80600, Tempo, 288795
1, 80640, Note_on_c, 0, 87, 0
1, 80640, Note_on_c, 0, 69, 0
1, 80640, Note_on_c, 0, 72, 0
1, 80640, Note_on_c, 0, 99, 93
1, 80640, Note_on_c, 0, 90, 77
1, 80640, Note_on_c, 0, 84, 68
1, 80640, Note_on_c, 0, 81, 56
1, 81120, Tempo, 288836
1, 81120, Note_on_c, 0, 81, 0
1, 81120, Note_on_c, 0, 99, 0
1, 81120, Note_on_c, 0, 90, 0
1, 81120, Note_on_c, 0, 84, 0
1, 81120, Note_on_c, 0, 63, 70
1, 81120, Note_on_c, 0, 69, 82
1, 81120, Note_on_c, 0, 66, 70
1, 81120, Note_on_c, 0, 48, 48
1, 81120, Note_on_c, 0, 60, 58
1, 81130, Control_c, 0, 64, 0
1, 81360, Note_on_c, 0, 60, 0
1, 81360, Note_on_c, 0, 66, 0
1, 81360, Note_on_c, 0, 63, 0
1, 81360, Note_on_c, 0, 69, 0
1, 81360, Note_on_c, 0, 48, 0
1, 81600, Tempo, 285252
1, 81600, Note_on_c, 0, 66, 67
1, 81600, Note_on_c, 0, 69, 67
1, 81600, Note_on_c, 0, 78, 79
1, 81600, Note_on_c, 0, 24, 48
1, 81600, Note_on_c, 0, 36, 57
1, 81840, Note_on_c, 0, 36, 0
1, 81840, Note_on_c, 0, 78, 0
1, 81840, Note_on_c, 0, 66, 0
1, 81840, Note_on_c, 0, 69, 0
1, 81840, Note_on_c, 0, 24, 0
1, 82080, Tempo, 288115
1, 82080, Note_on_c, 0, 65, 70
1, 82080, Note_on_c, 0, 70, 70
1, 82080, Note_on_c, 0, 77, 82
1, 82080, Note_on_c, 0, 25, 50
1, 82080, Note_on_c, 0, 37, 59
1, 82320, Note_on_c, 0, 37, 0
1, 82320, Note_on_c, 0, 77, 0
1, 82320, Note_on_c, 0, 65, 0
1, 82320, Note_on_c, 0, 70, 0
1, 82320, Note_on_c, 0, 25, 0
1, 82560, Tempo, 286684
1, 82560, Note_on_c, 0, 58, 52
1, 82560, Note_on_c, 0, 65, 52
1, 82560, Note_on_c, 0, 70, 61
1, 82560, Note_on_c, 0, 37, 34
1, 82560, Note_on_c, 0, 49, 40
1, 82800, Note_on_c, 0, 49, 0
1, 82800, Note_on_c, 0, 70, 0
1, 82800, Note_on_c, 0, 58, 0
1, 82800, Note_on_c, 0, 65, 0
1, 82800, Note_on_c, 0, 37, 0
1, 83040, Tempo, 289575
1, 83040, Note_on_c, 0, 75, 66
1, 83040, Note_on_c, 0, 66, 56
1, 83040, Note_on_c, 0, 72, 66
1, 83040, Note_on_c, 0, 63, 56
1, 83040, Note_on_c, 0, 27, 37
1, 83040, Note_on_c, 0, 39, 46
1, 83280, Note_on_c, 0, 39, 0
1, 83280, Note_on_c, 0, 66, 0
1, 83280, Note_on_c, 0, 72, 0
1, 83280, Note_on_c, 0, 75, 0
1, 83280, Note_on_c, 0, 27, 0
1, 83280, Note_on_c, 0, 63, 0
1, 83520, Tempo, 288115
1, 83520, Note_on_c, 0, 61, 57
1, 83520, Note_on_c, 0, 65, 57
1, 83520, Note_on_c, 0, 70, 68
1, 83520, Note_on_c, 0, 73, 68
1, 83520, Note_on_c, 0, 29, 40
1, 83520, Note_on_c, 0, 41, 49
1, 83760, Note_on_c, 0, 41, 0
1, 83760, Note_on_c, 0, 65, 0
1, 83760, Note_on_c, 0, 70, 0
1, 83760, Note_on_c, 0, 61, 0
1, 83760, Note_on_c, 0, 29, 0
1, 83760, Note_on_c, 0, 73, 0
1, 84000, Note_on_c, 0, 61, 50
1, 84000, Note_on_c, 0, 65, 60
1, 84000, Note_on_c, 0, 41, 35
1, 84000, Note_on_c, 0, 53, 44
1, 84240, Note_on_c, 0, 53, 0
1, 84240, Note_on_c, 0, 61, 0
1, 84240, Note_on_c, 0, 65, 0
1, 84240, Note_on_c, 0, 41, 0
1, 84480, Note_on_c, 0, 63, 49
1, 84480, Note_on_c, 0, 65, 49
1, 84480, Note_on_c, 0, 69, 58
1, 84480, Note_on_c, 0, 72, 58
1, 84480, Note_on_c, 0, 29, 35
1, 84480, Note_on_c, 0, 41, 43
1, 84720, Note_on_c, 0, 41, 0
1, 84720, Note_on_c, 0, 65, 0
1, 84720, Note_on_c, 0, 69, 0
1, 84720, Note_on_c, 0, 63, 0
1, 84720, Note_on_c, 0, 29, 0
1, 84720, Note_on_c, 0, 72, 0
1, 84960, Note_on_c, 0, 61, 46
1, 84960, Note_on_c, 0, 65, 46
1, 84960, Note_on_c, 0, 70, 55
1, 84960, Note_on_c, 0, 34, 30
1, 84960, Note_on_c, 0, 46, 37
1, 85200, Note_on_c, 0, 46, 0
1, 85200, Note_on_c, 0, 70, 0
1, 85200, Note_on_c, 0, 61, 0
1, 85200, Note_on_c, 0, 65, 0
1, 85200, Note_on_c, 0, 34, 0
1, 85440, Tempo, 290304
1, 85440, Note_on_c, 0, 53, 38
1, 85440, Note_on_c, 0, 58, 48
1, 85440, Note_on_c, 0, 37, 25
1, 85440, Note_on_c, 0, 49, 31
1, 85680, Note_on_c, 0, 49, 0
1, 85680, Note_on_c, 0, 53, 0
1, 85680, Note_on_c, 0, 58, 0
1, 85680, Note_on_c, 0, 37, 0
1, 85920, Tempo, 285973
1, 85920, Note_on_c, 0, 63, 50
1, 85920, Note_on_c, 0, 58, 40
1, 85920, Note_on_c, 0, 54, 40
1, 85920, Note_on_c, 0, 39, 33
1, 86160, Note_on_c, 0, 39, 0
1, 86160, Note_on_c, 0, 63, 0
1, 86160, Note_on_c, 0, 58, 0
1, 86160, Note_on_c, 0, 54, 0
1, 86400, Tempo, 288115
1, 86400, Note_on_c, 0, 53, 43
1, 86400, Note_on_c, 0, 58, 43
1, 86400, Note_on_c, 0, 61, 51
1, 86400, Note_on_c, 0, 41, 38
1, 86640, Note_on_c, 0, 41, 0
1, 86640, Note_on_c, 0, 53, 0
1, 86640, Note_on_c, 0, 58, 0
1, 86640, Note_on_c, 0, 61, 0
1, 86880, Note_on_c, 0, 53, 45
1, 87120, Note_on_c, 0, 53, 0
1, 87360, Note_on_c, 0, 60, 45
1, 87360, Note_on_c, 0, 57, 37
1, 87360, Note_on_c, 0, 51, 37
1, 87360, Note_on_c, 0, 29, 28
1, 87360, Note_on_c, 0, 41, 34
1, 87600, Note_on_c, 0, 41, 0
1, 87600, Note_on_c, 0, 51, 0
1, 87600, Note_on_c, 0, 60, 0
1, 87600, Note_on_c, 0, 57, 0
1, 87600, Note_on_c, 0, 29, 0
1, 87840, Tempo, 278345
1, 87840, Note_on_c, 0, 58, 46
1, 87840, Note_on_c, 0, 70, 46
1, 87840, Note_on_c, 0, 34, 30
1, 87840, Note_on_c, 0, 46, 36
1, 88320, Tempo, 284549
1, 88320, Note_on_c, 0, 46, 0
1, 88320, Note_on_c, 0, 34, 0
1, 88320, Note_on_c, 0, 44, 26
1, 88320, Note_on_c, 0, 56, 31
1, 88800, Note_on_c, 0, 56, 0
1, 88800, Note_on_c, 0, 44, 0
1, 88800, Note_on_c, 0, 41, 26
1, 88800, Note_on_c, 0, 53, 31
1, 89280, Note_on_c, 0, 53, 0
1, 89280, Note_on_c, 0, 41, 0
1, 89280, Note_on_c, 0, 42, 30
1, 89280, Note_on_c, 0, 54, 36
1, 89281, Tempo, 276727
1, 89760, Note_on_c, 0, 54, 0
1, 89760, Note_on_c, 0, 58, 0
1, 89760, Note_on_c, 0, 70, 0
1, 89760, Note_on_c, 0, 42, 0
1, 89760, Note_on_c, 0, 70, 46
1, 89760, Note_on_c, 0, 82, 46
1, 89760, Note_on_c, 0, 41, 26
1, 89760, Note_on_c, 0, 53, 31
1, 89761, Tempo, 284158
1, 89974, Control_c, 0, 64, 127
1, 90240, Note_on_c, 0, 53, 0
1, 90240, Note_on_c, 0, 70, 0
1, 90240, Note_on_c, 0, 82, 0
1, 90240, Note_on_c, 0, 41, 0
1, 90240, Note_on_c, 0, 94, 46
1, 90240, Note_on_c, 0, 82, 46
1, 90240, Note_on_c, 0, 37, 26
1, 90240, Note_on_c, 0, 49, 31
1, 90720, Note_on_c, 0, 49, 0
1, 90720, Note_on_c, 0, 94, 0
1, 90720, Note_on_c, 0, 82, 0
1, 90720, Note_on_c, 0, 37, 0
1, 90720, Note_on_c, 0, 70, 46
1, 90720, Note_on_c, 0, 58, 46
1, 90720, Note_on_c, 0, 39, 30
1, 90720, Note_on_c, 0, 51, 36
1, 90721, Tempo, 277457
1, 90729, Control_c, 0, 64, 0
1, 91200, Note_on_c, 0, 51, 0
1, 91200, Note_on_c, 0, 39, 0
1, 91200, Note_on_c, 0, 37, 26
1, 91200, Note_on_c, 0, 49, 31
1, 91201, Tempo, 283393
1, 91680, Note_on_c, 0, 49, 0
1, 91680, Note_on_c, 0, 37, 0
1, 91680, Note_on_c, 0, 34, 31
1, 91680, Note_on_c, 0, 46, 31
1, 92160, Note_on_c, 0, 46, 0
1, 92160, Note_on_c, 0, 34, 0
1, 92160, Note_on_c, 0, 35, 38
1, 92160, Note_on_c, 0, 47, 38
1, 92640, Note_on_c, 0, 47, 0
1, 92640, Note_on_c, 0, 70, 0
1, 92640, Note_on_c, 0, 58, 0
1, 92640, Note_on_c, 0, 35, 0
1, 92640, Note_on_c, 0, 70, 53
1, 92640, Note_on_c, 0, 82, 53
1, 92640, Note_on_c, 0, 34, 38
1, 92640, Note_on_c, 0, 46, 38
1, 92880, Control_c, 0, 64, 127
1, 93120, Note_on_c, 0, 46, 0
1, 93120, Note_on_c, 0, 70, 0
1, 93120, Note_on_c, 0, 82, 0
1, 93120, Note_on_c, 0, 34, 0
1, 93120, Note_on_c, 0, 94, 59
1, 93120, Note_on_c, 0, 82, 59
1, 93120, Note_on_c, 0, 30, 40
1, 93120, Note_on_c, 0, 42, 40
1, 93600, Tempo, 264271
1, 93600, Note_on_c, 0, 42, 0
1, 93600, Note_on_c, 0, 94, 0
1, 93600, Note_on_c, 0, 82, 0
1, 93600, Note_on_c, 0, 30, 0
1, 93600, Note_on_c, 0, 51, 52
1, 93600, Note_on_c, 0, 63, 63
1, 93600, Note_on_c, 0, 27, 40
1, 93600, Note_on_c, 0, 39, 47
1, 93605, Control_c, 0, 64, 0
1, 93690, Note_on_c, 0, 63, 0
1, 93690, Note_on_c, 0, 51, 0
1, 93840, Tempo, 269857
1, 93840, Note_on_c, 0, 51, 55
1, 93840, Note_on_c, 0, 63, 66
1, 93930, Note_on_c, 0, 63, 0
1, 93930, Note_on_c, 0, 51, 0
1, 94080, Tempo, 267344
1, 94080, Note_on_c, 0, 27, 0
1, 94080, Note_on_c, 0, 39, 0
1, 94080, Note_on_c, 0, 63, 67
1, 94080, Note_on_c, 0, 51, 57
1, 94080, Note_on_c, 0, 28, 38
1, 94080, Note_on_c, 0, 40, 44
1, 94170, Note_on_c, 0, 40, 0
1, 94170, Note_on_c, 0, 63, 0
1, 94170, Note_on_c, 0, 51, 0
1, 94170, Note_on_c, 0, 28, 0
1, 94280, Tempo, 265498
1, 94320, Tempo, 276345
1, 94320, Note_on_c, 0, 63, 68
1, 94320, Note_on_c, 0, 51, 59
1, 94320, Note_on_c, 0, 29, 38
1, 94320, Note_on_c, 0, 41, 47
1, 94410, Note_on_c, 0, 41, 0
1, 94410, Note_on_c, 0, 63, 0
1, 94410, Note_on_c, 0, 51, 0
1, 94410, Note_on_c, 0, 29, 0
1, 94560, Note_on_c, 0, 63, 79
1, 94560, Note_on_c, 0, 51, 66
1, 94560, Note_on_c, 0, 30, 46
1, 94560, Note_on_c, 0, 42, 54
1, 94600, Tempo, 282459
1, 95040, Note_on_c, 0, 42, 0
1, 95040, Note_on_c, 0, 63, 0
1, 95040, Note_on_c, 0, 51, 0
1, 95040, Note_on_c, 0, 30, 0
1, 95040, Note_on_c, 0, 53, 73
1, 95040, Note_on_c, 0, 63, 75
1, 95040, Note_on_c, 0, 59, 71
1, 95040, Note_on_c, 0, 65, 88
1, 95040, Note_on_c, 0, 32, 56
1, 95040, Note_on_c, 0, 44, 67
1, 95041, Tempo, 275141
1, 95166, Control_c, 0, 64, 127
1, 95520, Note_on_c, 0, 44, 0
1, 95520, Note_on_c, 0, 63, 0
1, 95520, Note_on_c, 0, 59, 0
1, 95520, Note_on_c, 0, 53, 0
1, 95520, Note_on_c, 0, 32, 0
1, 95520, Note_on_c, 0, 65, 0
1, 95520, Note_on_c, 0, 71, 63
1, 95520, Note_on_c, 0, 77, 76
1, 95520, Note_on_c, 0, 75, 63
1, 95520, Note_on_c, 0, 65, 63
1, 95520, Note_on_c, 0, 44, 43
1, 95520, Note_on_c, 0, 51, 43
1, 95520, Note_on_c, 0, 53, 43
1, 95520, Note_on_c, 0, 59, 51
1, 95521, Tempo, 271358
1, 95760, Note_on_c, 0, 65, 0
1, 95760, Note_on_c, 0, 75, 0
1, 95760, Note_on_c, 0, 71, 0
1, 95760, Note_on_c, 0, 77, 0
1, 95760, Note_on_c, 0, 63, 61
1, 95760, Note_on_c, 0, 75, 74
1, 96000, Note_on_c, 0, 75, 0
1, 96000, Note_on_c, 0, 51, 0
1, 96000, Note_on_c, 0, 53, 0
1, 96000, Note_on_c, 0, 59, 0
1, 96000, Note_on_c, 0, 63, 0
1, 96000, Note_on_c, 0, 44, 0
1, 96000, Note_on_c, 0, 65, 63
1, 96000, Note_on_c, 0, 74, 63
1, 96000, Note_on_c, 0, 77, 76
1, 96000, Note_on_c, 0, 70, 63
1, 96000, Note_on_c, 0, 46, 43
1, 96000, Note_on_c, 0, 53, 43
1, 96000, Note_on_c, 0, 56, 43
1, 96000, Note_on_c, 0, 62, 51
1, 96012, Control_c, 0, 64, 0
1, 96240, Note_on_c, 0, 70, 0
1, 96240, Note_on_c, 0, 77, 0
1, 96240, Note_on_c, 0, 65, 0
1, 96240, Note_on_c, 0, 74, 0
1, 96240, Note_on_c, 0, 78, 72
1, 96240, Note_on_c, 0, 66, 59
1, 96241, Tempo, 279005
1, 96480, Tempo, 263667
1, 96480, Note_on_c, 0, 66, 0
1, 96480, Note_on_c, 0, 53, 0
1, 96480, Note_on_c, 0, 56, 0
1, 96480, Note_on_c, 0, 62, 0
1, 96480, Note_on_c, 0, 78, 0
1, 96480, Note_on_c, 0, 46, 0
1, 96480, Note_on_c, 0, 66, 63
1, 96480, Note_on_c, 0, 54, 52
1, 96480, Note_on_c, 0, 30, 40
1, 96480, Note_on_c, 0, 42, 47
1, 96570, Note_on_c, 0, 54, 0
1, 96570, Note_on_c, 0, 66, 0
1, 96720, Tempo, 269227
1, 96720, Note_on_c, 0, 54, 55
1, 96720, Note_on_c, 0, 66, 66
1, 96810, Note_on_c, 0, 66, 0
1, 96810, Note_on_c, 0, 54, 0
1, 96960, Tempo, 264877
1, 96960, Note_on_c, 0, 30, 0
1, 96960, Note_on_c, 0, 42, 0
1, 96960, Note_on_c, 0, 54, 57
1, 96960, Note_on_c, 0, 66, 67
1, 96960, Note_on_c, 0, 31, 38
1, 96960, Note_on_c, 0, 43, 44
1, 97050, Note_on_c, 0, 43, 0
1, 97050, Note_on_c, 0, 54, 0
1, 97050, Note_on_c, 0, 66, 0
1, 97050, Note_on_c, 0, 31, 0
1, 97200, Tempo, 279031
1, 97200, Note_on_c, 0, 66, 66
1, 97200, Note_on_c, 0, 54, 57
1, 97200, Note_on_c, 0, 32, 35
1, 97200, Note_on_c, 0, 44, 43
1, 97290, Note_on_c, 0, 44, 0
1, 97290, Note_on_c, 0, 66, 0
1, 97290, Note_on_c, 0, 54, 0
1, 97290, Note_on_c, 0, 32, 0
1, 97440, Tempo, 283152
1, 97440, Note_on_c, 0, 66, 79
1, 97440, Note_on_c, 0, 54, 68
1, 97440, Note_on_c, 0, 33, 46
1, 97440, Note_on_c, 0, 45, 54
1, 97920, Note_on_c, 0, 45, 0
1, 97920, Note_on_c, 0, 66, 0
1, 97920, Note_on_c, 0, 54, 0
1, 97920, Note_on_c, 0, 33, 0
1, 97920, Note_on_c, 0, 56, 72
1, 97920, Note_on_c, 0, 62, 73
1, 97920, Note_on_c, 0, 66, 75
1, 97920, Note_on_c, 0, 68, 87
1, 97920, Note_on_c, 0, 35, 56
1, 97920, Note_on_c, 0, 47, 67
1, 97921, Tempo, 273623
1, 97998, Control_c, 0, 64, 127
1, 98400, Note_on_c, 0, 47, 0
1, 98400, Note_on_c, 0, 62, 0
1, 98400, Note_on_c, 0, 66, 0
1, 98400, Note_on_c, 0, 56, 0
1, 98400, Note_on_c, 0, 35, 0
1, 98400, Note_on_c, 0, 68, 0
1, 98400, Note_on_c, 0, 68, 63
1, 98400, Note_on_c, 0, 78, 63
1, 98400, Note_on_c, 0, 80, 76
1, 98400, Note_on_c, 0, 74, 63
1, 98400, Note_on_c, 0, 48, 43
1, 98400, Note_on_c, 0, 54, 43
1, 98400, Note_on_c, 0, 56, 43
1, 98400, Note_on_c, 0, 62, 51
1, 98401, Tempo, 270636
1, 98640, Note_on_c, 0, 74, 0
1, 98640, Note_on_c, 0, 80, 0
1, 98640, Note_on_c, 0, 68, 0
1, 98640, Note_on_c, 0, 78, 0
1, 98640, Note_on_c, 0, 66, 61
1, 98640, Note_on_c, 0, 78, 74
1, 98880, Note_on_c, 0, 78, 0
1, 98880, Note_on_c, 0, 54, 0
1, 98880, Note_on_c, 0, 56, 0
1, 98880, Note_on_c, 0, 62, 0
1, 98880, Note_on_c, 0, 66, 0
1, 98880, Note_on_c, 0, 48, 0
1, 98880, Note_on_c, 0, 68, 63
1, 98880, Note_on_c, 0, 77, 63
1, 98880, Note_on_c, 0, 80, 76
1, 98880, Note_on_c, 0, 73, 63
1, 98880, Note_on_c, 0, 49, 43
1, 98880, Note_on_c, 0, 56, 43
1, 98880, Note_on_c, 0, 59, 43
1, 98880, Note_on_c, 0, 65, 51
1, 98897, Control_c, 0, 64, 0
1, 99120, Note_on_c, 0, 73, 0
1, 99120, Note_on_c, 0, 80, 0
1, 99120, Note_on_c, 0, 68, 0
1, 99120, Note_on_c, 0, 77, 0
1, 99120, Note_on_c, 0, 81, 72
1, 99120, Note_on_c, 0, 69, 59
1, 99121, Tempo, 277444
1, 99360, Tempo, 261860
1, 99360, Note_on_c, 0, 69, 0
1, 99360, Note_on_c, 0, 56, 0
1, 99360, Note_on_c, 0, 59, 0
1, 99360, Note_on_c, 0, 65, 0
1, 99360, Note_on_c, 0, 81, 0
1, 99360, Note_on_c, 0, 49, 0
1, 99360, Note_on_c, 0, 69, 56
1, 99360, Note_on_c, 0, 57, 47
1, 99360, Note_on_c, 0, 33, 36
1, 99360, Note_on_c, 0, 45, 42
1, 99450, Note_on_c, 0, 57, 0
1, 99450, Note_on_c, 0, 69, 0
1, 99600, Tempo, 265498
1, 99600, Note_on_c, 0, 57, 51
1, 99600, Note_on_c, 0, 69, 60
1, 99690, Note_on_c, 0, 69, 0
1, 99690, Note_on_c, 0, 57, 0
1, 99840, Tempo, 261860
1, 99840, Note_on_c, 0, 33, 0
1, 99840, Note_on_c, 0, 45, 0
1, 99840, Note_on_c, 0, 57, 54
1, 99840, Note_on_c, 0, 69, 64
1, 99840, Note_on_c, 0, 35, 36
1, 99840, Note_on_c, 0, 47, 42
1, 99930, Note_on_c, 0, 47, 0
1, 99930, Note_on_c, 0, 57, 0
1, 99930, Note_on_c, 0, 69, 0
1, 99930, Note_on_c, 0, 35, 0
1, 100080, Tempo, 281756
1, 100080, Note_on_c, 0, 57, 57
1, 100080, Note_on_c, 0, 69, 68
1, 100080, Note_on_c, 0, 36, 37
1, 100080, Note_on_c, 0, 48, 45
1, 100170, Note_on_c, 0, 48, 0
1, 100170, Note_on_c, 0, 57, 0
1, 100170, Note_on_c, 0, 69, 0
1, 100170, Note_on_c, 0, 36, 0
1, 100281, Tempo, 267702
1, 100320, Tempo, 278345
1, 100320, Note_on_c, 0, 69, 82
1, 100320, Note_on_c, 0, 57, 70
1, 100320, Note_on_c, 0, 37, 47
1, 100320, Note_on_c, 0, 49, 56
1, 100800, Tempo, 264271
1, 100800, Note_on_c, 0, 49, 0
1, 100800, Note_on_c, 0, 69, 0
1, 100800, Note_on_c, 0, 57, 0
1, 100800, Note_on_c, 0, 37, 0
1, 100800, Note_on_c, 0, 70, 63
1, 100800, Note_on_c, 0, 58, 52
1, 100800, Note_on_c, 0, 68, 52
1, 100800, Note_on_c, 0, 56, 52
1, 100800, Note_on_c, 0, 65, 52
1, 100800, Note_on_c, 0, 38, 40
1, 100800, Note_on_c, 0, 50, 47
1, 100890, Note_on_c, 0, 65, 0
1, 100890, Note_on_c, 0, 56, 0
1, 100890, Note_on_c, 0, 70, 0
1, 100890, Note_on_c, 0, 68, 0
1, 100890, Note_on_c, 0, 58, 0
1, 101040, Tempo, 270490
1, 101040, Note_on_c, 0, 65, 55
1, 101040, Note_on_c, 0, 70, 66
1, 101040, Note_on_c, 0, 68, 55
1, 101040, Note_on_c, 0, 56, 55
1, 101040, Note_on_c, 0, 58, 55
1, 101130, Note_on_c, 0, 58, 0
1, 101130, Note_on_c, 0, 68, 0
1, 101130, Note_on_c, 0, 70, 0
1, 101130, Note_on_c, 0, 65, 0
1, 101130, Note_on_c, 0, 56, 0
1, 101280, Tempo, 268601
1, 101280, Note_on_c, 0, 38, 0
1, 101280, Note_on_c, 0, 50, 0
1, 101280, Note_on_c, 0, 56, 60
1, 101280, Note_on_c, 0, 68, 60
1, 101280, Note_on_c, 0, 58, 60
1, 101280, Note_on_c, 0, 70, 71
1, 101280, Note_on_c, 0, 65, 60
1, 101280, Note_on_c, 0, 39, 40
1, 101280, Note_on_c, 0, 51, 47
1, 101370, Note_on_c, 0, 51, 0
1, 101370, Note_on_c, 0, 65, 0
1, 101370, Note_on_c, 0, 68, 0
1, 101370, Note_on_c, 0, 58, 0
1, 101370, Note_on_c, 0, 56, 0
1, 101370, Note_on_c, 0, 39, 0
1, 101370, Note_on_c, 0, 70, 0
1, 101520, Tempo, 280387
1, 101520, Note_on_c, 0, 56, 61
1, 101520, Note_on_c, 0, 65, 61
1, 101520, Note_on_c, 0, 68, 73
1, 101520, Note_on_c, 0, 70, 73
1, 101520, Note_on_c, 0, 58, 61
1, 101520, Note_on_c, 0, 40, 39
1, 101520, Note_on_c, 0, 52, 48
1, 101610, Note_on_c, 0, 52, 0
1, 101610, Note_on_c, 0, 58, 0
1, 101610, Note_on_c, 0, 65, 0
1, 101610, Note_on_c, 0, 68, 0
1, 101610, Note_on_c, 0, 56, 0
1, 101610, Note_on_c, 0, 40, 0
1, 101610, Note_on_c, 0, 70, 0
1, 101760, Tempo, 280387
1, 101760, Note_on_c, 0, 56, 68
1, 101760, Note_on_c, 0, 58, 68
1, 101760, Note_on_c, 0, 62, 68
1, 101760, Note_on_c, 0, 68, 68
1, 101760, Note_on_c, 0, 70, 81
1, 101760, Note_on_c, 0, 41, 45
1, 101760, Note_on_c, 0, 53, 53
1, 102240, Tempo, 267344
1, 102240, Note_on_c, 0, 53, 0
1, 102240, Note_on_c, 0, 70, 0
1, 102240, Note_on_c, 0, 58, 0
1, 102240, Note_on_c, 0, 62, 0
1, 102240, Note_on_c, 0, 56, 0
1, 102240, Note_on_c, 0, 41, 0
1, 102240, Note_on_c, 0, 68, 0
1, 102240, Note_on_c, 0, 66, 53
1, 102240, Note_on_c, 0, 63, 53
1, 102240, Note_on_c, 0, 70, 64
1, 102240, Note_on_c, 0, 58, 53
1, 102240, Note_on_c, 0, 42, 42
1, 102240, Note_on_c, 0, 54, 50
1, 102330, Note_on_c, 0, 58, 0
1, 102330, Note_on_c, 0, 70, 0
1, 102330, Note_on_c, 0, 66, 0
1, 102330, Note_on_c, 0, 63, 0
1, 102480, Tempo, 270490
1, 102480, Note_on_c, 0, 66, 56
1, 102480, Note_on_c, 0, 58, 56
1, 102480, Note_on_c, 0, 70, 68
1, 102480, Note_on_c, 0, 63, 56
1, 102570, Note_on_c, 0, 63, 0
1, 102570, Note_on_c, 0, 58, 0
1, 102570, Note_on_c, 0, 66, 0
1, 102570, Note_on_c, 0, 70, 0
1, 102720, Tempo, 268601
1, 102720, Note_on_c, 0, 42, 0
1, 102720, Note_on_c, 0, 54, 0
1, 102720, Note_on_c, 0, 66, 61
1, 102720, Note_on_c, 0, 70, 73
1, 102720, Note_on_c, 0, 63, 61
1, 102720, Note_on_c, 0, 44, 42
1, 102720, Note_on_c, 0, 56, 48
1, 102810, Note_on_c, 0, 56, 0
1, 102810, Note_on_c, 0, 63, 0
1, 102810, Note_on_c, 0, 66, 0
1, 102810, Note_on_c, 0, 70, 0
1, 102810, Note_on_c, 0, 44, 0
1, 102960, Tempo, 277675
1, 102960, Note_on_c, 0, 66, 64
1, 102960, Note_on_c, 0, 63, 64
1, 102960, Note_on_c, 0, 70, 75
1, 102960, Note_on_c, 0, 45, 39
1, 102960, Note_on_c, 0, 57, 50
1, 103050, Note_on_c, 0, 57, 0
1, 103050, Note_on_c, 0, 70, 0
1, 103050, Note_on_c, 0, 66, 0
1, 103050, Note_on_c, 0, 63, 0
1, 103050, Note_on_c, 0, 45, 0
1, 103200, Note_on_c, 0, 66, 72
1, 103200, Note_on_c, 0, 70, 84
1, 103200, Note_on_c, 0, 63, 72
1, 103200, Note_on_c, 0, 46, 48
1, 103200, Note_on_c, 0, 58, 57
1, 103201, Tempo, 286451
1, 103680, Tempo, 284158
1, 103680, Note_on_c, 0, 58, 0
1, 103680, Note_on_c, 0, 63, 0
1, 103680, Note_on_c, 0, 66, 0
1, 103680, Note_on_c, 0, 70, 0
1, 103680, Note_on_c, 0, 46, 0
1, 103680, Note_on_c, 0, 56, 75
1, 103680, Note_on_c, 0, 63, 75
1, 103680, Note_on_c, 0, 68, 90
1, 103680, Note_on_c, 0, 47, 54
1, 103680, Note_on_c, 0, 59, 66
1, 103779, Control_c, 0, 64, 127
1, 104160, Tempo, 276676
1, 104160, Note_on_c, 0, 59, 0
1, 104160, Note_on_c, 0, 68, 0
1, 104160, Note_on_c, 0, 56, 0
1, 104160, Note_on_c, 0, 63, 0
1, 104160, Note_on_c, 0, 47, 0
1, 104160, Note_on_c, 0, 63, 75
1, 104160, Note_on_c, 0, 68, 75
1, 104160, Note_on_c, 0, 75, 90
1, 104160, Note_on_c, 0, 35, 49
1, 104160, Note_on_c, 0, 47, 59
1, 104640, Tempo, 281386
1, 104640, Note_on_c, 0, 47, 0
1, 104640, Note_on_c, 0, 75, 0
1, 104640, Note_on_c, 0, 63, 0
1, 104640, Note_on_c, 0, 68, 0
1, 104640, Note_on_c, 0, 35, 0
1, 104640, Note_on_c, 0, 77, 85
1, 104640, Note_on_c, 0, 71, 72
1, 104640, Note_on_c, 0, 65, 72
1, 104640, Note_on_c, 0, 75, 72
1, 104640, Note_on_c, 0, 32, 49
1, 104640, Note_on_c, 0, 44, 59
1, 104656, Control_c, 0, 64, 0
1, 105120, Note_on_c, 0, 44, 0
1, 105120, Note_on_c, 0, 71, 0
1, 105120, Note_on_c, 0, 65, 0
1, 105120, Note_on_c, 0, 77, 0
1, 105120, Note_on_c, 0, 32, 0
1, 105120, Note_on_c, 0, 75, 0
1, 105120, Note_on_c, 0, 70, 72
1, 105120, Note_on_c, 0, 66, 72
1, 105120, Note_on_c, 0, 75, 72
1, 105120, Note_on_c, 0, 78, 85
1, 105120, Note_on_c, 0, 51, 49
1, 105120, Note_on_c, 0, 54, 49
1, 105120, Note_on_c, 0, 58, 49
1, 105120, Note_on_c, 0, 63, 59
1, 105174, Control_c, 0, 64, 127
1, 105600, Note_on_c, 0, 63, 0
1, 105600, Note_on_c, 0, 70, 0
1, 105600, Note_on_c, 0, 51, 0
1, 105600, Note_on_c, 0, 66, 0
1, 105600, Note_on_c, 0, 75, 0
1, 105600, Note_on_c, 0, 78, 0
1, 105600, Note_on_c, 0, 54, 0
1, 105600, Note_on_c, 0, 58, 0
1, 105600, Note_on_c, 0, 87, 87
1, 105600, Note_on_c, 0, 99, 101
1, 105600, Note_on_c, 0, 30, 55
1, 105600, Note_on_c, 0, 42, 67
1, 105840, Note_on_c, 0, 42, 0
1, 105840, Note_on_c, 0, 87, 0
1, 105840, Note_on_c, 0, 99, 0
1, 105840, Note_on_c, 0, 30, 0
1, 105939, Control_c, 0, 64, 0
1, 106080, Tempo, 283849
1, 106080, Note_on_c, 0, 83, 86
1, 106080, Note_on_c, 0, 71, 72
1, 106080, Note_on_c, 0, 75, 72
1, 106080, Note_on_c, 0, 63, 63
1, 106080, Note_on_c, 0, 59, 52
1, 106080, Note_on_c, 0, 56, 52
1, 106080, Note_on_c, 0, 51, 52
1, 106374, Control_c, 0, 64, 127
1, 106560, Tempo, 281070
1, 106560, Note_on_c, 0, 51, 0
1, 106560, Note_on_c, 0, 59, 0
1, 106560, Note_on_c, 0, 71, 0
1, 106560, Note_on_c, 0, 75, 0
1, 106560, Note_on_c, 0, 83, 0
1, 106560, Note_on_c, 0, 56, 0
1, 106560, Note_on_c, 0, 63, 0
1, 106560, Note_on_c, 0, 83, 84
1, 106560, Note_on_c, 0, 95, 99
1, 106560, Note_on_c, 0, 32, 55
1, 106560, Note_on_c, 0, 44, 67
1, 106800, Note_on_c, 0, 44, 0
1, 106800, Note_on_c, 0, 83, 0
1, 106800, Note_on_c, 0, 95, 0
1, 106800, Note_on_c, 0, 32, 0
1, 106857, Control_c, 0, 64, 0
1, 107040, Tempo, 284549
1, 107040, Note_on_c, 0, 68, 71
1, 107040, Note_on_c, 0, 71, 71
1, 107040, Note_on_c, 0, 75, 71
1, 107040, Note_on_c, 0, 80, 85
1, 107040, Note_on_c, 0, 63, 57
1, 107040, Note_on_c, 0, 59, 48
1, 107040, Note_on_c, 0, 56, 48
1, 107040, Note_on_c, 0, 53, 48
1, 107360, Control_c, 0, 64, 127
1, 107520, Tempo, 281070
1, 107520, Note_on_c, 0, 53, 0
1, 107520, Note_on_c, 0, 68, 0
1, 107520, Note_on_c, 0, 63, 0
1, 107520, Note_on_c, 0, 71, 0
1, 107520, Note_on_c, 0, 75, 0
1, 107520, Note_on_c, 0, 80, 0
1, 107520, Note_on_c, 0, 59, 0
1, 107520, Note_on_c, 0, 56, 0
1, 107520, Note_on_c, 0, 80, 84
1, 107520, Note_on_c, 0, 92, 99
1, 107520, Note_on_c, 0, 35, 55
1, 107520, Note_on_c, 0, 47, 66
1, 107760, Note_on_c, 0, 47, 0
1, 107760, Note_on_c, 0, 80, 0
1, 107760, Note_on_c, 0, 92, 0
1, 107760, Note_on_c, 0, 35, 0
1, 107845, Control_c, 0, 64, 0
1, 108000, Note_on_c, 0, 70, 75
1, 108000, Note_on_c, 0, 66, 75
1, 108000, Note_on_c, 0, 75, 75
1, 108000, Note_on_c, 0, 78, 89
1, 108000, Note_on_c, 0, 63, 60
1, 108000, Note_on_c, 0, 58, 51
1, 108000, Note_on_c, 0, 54, 51
1, 108001, Tempo, 289589
1, 108202, Control_c, 0, 64, 127
1, 108480, Tempo, 284549
1, 108480, Note_on_c, 0, 54, 0
1, 108480, Note_on_c, 0, 63, 0
1, 108480, Note_on_c, 0, 66, 0
1, 108480, Note_on_c, 0, 75, 0
1, 108480, Note_on_c, 0, 70, 0
1, 108480, Note_on_c, 0, 58, 0
1, 108480, Note_on_c, 0, 78, 0
1, 108480, Note_on_c, 0, 90, 99
1, 108480, Note_on_c, 0, 78, 84
1, 108480, Note_on_c, 0, 34, 55
1, 108480, Note_on_c, 0, 46, 66
1, 108720, Note_on_c, 0, 46, 0
1, 108720, Note_on_c, 0, 90, 0
1, 108720, Note_on_c, 0, 78, 0
1, 108720, Note_on_c, 0, 34, 0
1, 108777, Control_c, 0, 64, 0
1, 108960, Tempo, 290304
1, 108960, Note_on_c, 0, 65, 72
1, 108960, Note_on_c, 0, 70, 72
1, 108960, Note_on_c, 0, 77, 86
1, 108960, Note_on_c, 0, 75, 72
1, 108960, Note_on_c, 0, 63, 60
1, 108960, Note_on_c, 0, 58, 51
1, 108960, Note_on_c, 0, 53, 51
1, 109188, Control_c, 0, 64, 127
1, 109440, Tempo, 286684
1, 109440, Note_on_c, 0, 53, 0
1, 109440, Note_on_c, 0, 63, 0
1, 109440, Note_on_c, 0, 70, 0
1, 109440, Note_on_c, 0, 77, 0
1, 109440, Note_on_c, 0, 65, 0
1, 109440, Note_on_c, 0, 58, 0
1, 109440, Note_on_c, 0, 75, 0
1, 109440, Note_on_c, 0, 89, 99
1, 109440, Note_on_c, 0, 77, 84
1, 109440, Note_on_c, 0, 34, 57
1, 109440, Note_on_c, 0, 46, 69
1, 109680, Note_on_c, 0, 46, 0
1, 109680, Note_on_c, 0, 89, 0
1, 109680, Note_on_c, 0, 77, 0
1, 109680, Note_on_c, 0, 34, 0
1, 109751, Control_c, 0, 64, 0
1, 109920, Tempo, 291772
1, 109920, Note_on_c, 0, 65, 75
1, 109920, Note_on_c, 0, 70, 75
1, 109920, Note_on_c, 0, 74, 75
1, 109920, Note_on_c, 0, 77, 89
1, 109920, Note_on_c, 0, 62, 60
1, 109920, Note_on_c, 0, 58, 51
1, 109920, Note_on_c, 0, 56, 51
1, 109920, Note_on_c, 0, 53, 51
1, 110152, Control_c, 0, 64, 127
1, 110400, Tempo, 289575
1, 110400, Note_on_c, 0, 53, 0
1, 110400, Note_on_c, 0, 65, 0
1, 110400, Note_on_c, 0, 62, 0
1, 110400, Note_on_c, 0, 70, 0
1, 110400, Note_on_c, 0, 74, 0
1, 110400, Note_on_c, 0, 77, 0
1, 110400, Note_on_c, 0, 58, 0
1, 110400, Note_on_c, 0, 56, 0
1, 110400, Note_on_c, 0, 87, 102
1, 110400, Note_on_c, 0, 75, 85
1, 110400, Note_on_c, 0, 27, 62
1, 110400, Note_on_c, 0, 39, 74
1, 110450, Control_c, 0, 64, 0
1, 110599, Control_c, 0, 64, 127
1, 110850, Note_on_c, 0, 39, 0
1, 110850, Note_on_c, 0, 87, 0
1, 110850, Note_on_c, 0, 75, 0
1, 110850, Note_on_c, 0, 27, 0
1, 110880, Note_on_c, 0, 63, 78
1, 110880, Note_on_c, 0, 75, 94
1, 110880, Note_on_c, 0, 39, 52
1, 110880, Note_on_c, 0, 51, 63
1, 111801, Tempo, 281889
1, 112320, Tempo, 284549
1, 112320, Note_on_c, 0, 51, 0
1, 112320, Note_on_c, 0, 63, 0
1, 112320, Note_on_c, 0, 75, 0
1, 112320, Note_on_c, 0, 39, 0
1, 112320, Note_on_c, 0, 58, 69
1, 112320, Note_on_c, 0, 70, 81
1, 112320, Control_c, 0, 64, 0
1, 112320, Note_on_c, 0, 34, 57
1, 112320, Note_on_c, 0, 46, 69
1, 112461, Control_c, 0, 64, 127
1, 112800, Tempo, 277675
1, 112800, Note_on_c, 0, 46, 0
1, 112800, Note_on_c, 0, 58, 0
1, 112800, Note_on_c, 0, 70, 0
1, 112800, Note_on_c, 0, 34, 0
1, 112800, Note_on_c, 0, 59, 64
1, 112800, Note_on_c, 0, 71, 75
1, 112800, Note_on_c, 0, 35, 52
1, 112800, Note_on_c, 0, 47, 63
1, 112814, Control_c, 0, 64, 0
1, 112927, Control_c, 0, 64, 127
1, 113040, Note_on_c, 0, 47, 0
1, 113040, Note_on_c, 0, 59, 0
1, 113040, Note_on_c, 0, 71, 0
1, 113040, Note_on_c, 0, 35, 0
1, 113040, Note_on_c, 0, 58, 59
1, 113040, Note_on_c, 0, 70, 71
1, 113040, Note_on_c, 0, 34, 48
1, 113040, Note_on_c, 0, 46, 57
1, 113280, Tempo, 285252
1, 113280, Note_on_c, 0, 46, 0
1, 113280, Note_on_c, 0, 58, 0
1, 113280, Note_on_c, 0, 70, 0
1, 113280, Note_on_c, 0, 34, 0
1, 113280, Note_on_c, 0, 53, 63
1, 113280, Note_on_c, 0, 65, 73
1, 113280, Note_on_c, 0, 29, 53
1, 113280, Note_on_c, 0, 41, 64
1, 113294, Control_c, 0, 64, 0
1, 113492, Control_c, 0, 64, 127
1, 113520, Note_on_c, 0, 41, 0
1, 113520, Note_on_c, 0, 53, 0
1, 113520, Note_on_c, 0, 65, 0
1, 113520, Note_on_c, 0, 29, 0
1, 113520, Note_on_c, 0, 54, 54
1, 113520, Note_on_c, 0, 66, 65
1, 113520, Note_on_c, 0, 30, 47
1, 113520, Note_on_c, 0, 42, 55
1, 113760, Note_on_c, 0, 42, 0
1, 113760, Note_on_c, 0, 54, 0
1, 113760, Note_on_c, 0, 66, 0
1, 113760, Note_on_c, 0, 30, 0
1, 113760, Note_on_c, 0, 51, 58
1, 113760, Note_on_c, 0, 63, 70
1, 113760, Note_on_c, 0, 27, 52
1, 113760, Note_on_c, 0, 39, 63
1, 113785, Control_c, 0, 64, 0
1, 114187, Control_c, 0, 64, 127
1, 115600, Control_c, 0, 64, 0
1, 115680, Note_on_c, 0, 39, 0
1, 115680, Note_on_c, 0, 51, 0
1, 115680, Note_on_c, 0, 63, 0
1, 115680, Note_on_c, 0, 27, 0
1, 116640, Tempo, 528867
1, 116640, Marker_t, "Teil 2"
1, 116640, Note_on_c, 0, 30, 27
1, 116720, Control_c, 0, 64, 127
1, 117120, Note_on_c, 0, 30, 0
1, 117120, Note_on_c, 0, 58, 30
1, 117120, Note_on_c, 0, 63, 22
1, 117120, Note_on_c, 0, 49, 17
1, 117120, Note_on_c, 0, 54, 17
1, 117160, Tempo, 502807
1, 117600, Tempo, 510682
1, 117600, Note_on_c, 0, 54, 0
1, 117600, Note_on_c, 0, 58, 0
1, 117600, Note_on_c, 0, 63, 0
1, 117600, Note_on_c, 0, 49, 0
1, 117600, Note_on_c, 0, 58, 32
1, 117600, Note_on_c, 0, 49, 16
1, 117600, Note_on_c, 0, 54, 16
1, 117600, Note_on_c, 0, 61, 20
1, 118080, Tempo, 510682
1, 118080, Note_on_c, 0, 61, 0
1, 118080, Note_on_c, 0, 54, 0
1, 118080, Note_on_c, 0, 49, 0
1, 118080, Note_on_c, 0, 42, 25
1, 118092, Control_c, 0, 64, 0
1, 118374, Control_c, 0, 64, 127
1, 118560, Tempo, 504414
1, 118560, Note_on_c, 0, 42, 0
1, 118560, Note_on_c, 0, 58, 0
1, 118560, Note_on_c, 0, 58, 28
1, 118560, Note_on_c, 0, 63, 24
1, 118560, Note_on_c, 0, 54, 20
1, 118560, Note_on_c, 0, 49, 20
1, 119040, Tempo, 510682
1, 119040, Note_on_c, 0, 49, 0
1, 119040, Note_on_c, 0, 58, 0
1, 119040, Note_on_c, 0, 63, 0
1, 119040, Note_on_c, 0, 54, 0
1, 119040, Note_on_c, 0, 58, 32
1, 119040, Note_on_c, 0, 49, 15
1, 119040, Note_on_c, 0, 54, 15
1, 119040, Note_on_c, 0, 61, 18
1, 119520, Note_on_c, 0, 61, 0
1, 119520, Note_on_c, 0, 54, 0
1, 119520, Note_on_c, 0, 49, 0
1, 119520, Note_on_c, 0, 42, 27
1, 119531, Control_c, 0, 64, 0
1, 119760, Control_c, 0, 64, 127
1, 120000, Tempo, 502807
1, 120000, Note_on_c, 0, 42, 0
1, 120000, Note_on_c, 0, 58, 0
1, 120000, Note_on_c, 0, 58, 27
1, 120000, Note_on_c, 0, 63, 24
1, 120000, Note_on_c, 0, 54, 20
1, 120000, Note_on_c, 0, 49, 20
1, 120480, Tempo, 510682
1, 120480, Note_on_c, 0, 49, 0
1, 120480, Note_on_c, 0, 58, 0
1, 120480, Note_on_c, 0, 63, 0
1, 120480, Note_on_c, 0, 54, 0
1, 120480, Note_on_c, 0, 58, 32
1, 120480, Note_on_c, 0, 49, 15
1, 120480, Note_on_c, 0, 54, 15
1, 120480, Note_on_c, 0, 61, 18
1, 120960, Note_on_c, 0, 61, 0
1, 120960, Note_on_c, 0, 54, 0
1, 120960, Note_on_c, 0, 49, 0
1, 120960, Note_on_c, 0, 42, 27
1, 120971, Control_c, 0, 64, 0
1, 121227, Control_c, 0, 64, 127
1, 121440, Tempo, 502807
1, 121440, Note_on_c, 0, 42, 0
1, 121440, Note_on_c, 0, 58, 0
1, 121440, Note_on_c, 0, 58, 27
1, 121440, Note_on_c, 0, 63, 27
1, 121440, Note_on_c, 0, 49, 22
1, 121440, Note_on_c, 0, 54, 22
1, 121920, Tempo, 520427
1, 121920, Note_on_c, 0, 54, 0
1, 121920, Note_on_c, 0, 58, 0
1, 121920, Note_on_c, 0, 63, 0
1, 121920, Note_on_c, 0, 49, 0
1, 121920, Note_on_c, 0, 58, 33
1, 121920, Note_on_c, 0, 49, 17
1, 121920, Note_on_c, 0, 54, 17
1, 121920, Note_on_c, 0, 61, 21
1, 122400, Tempo, 521785
1, 122400, Note_on_c, 0, 61, 0
1, 122400, Note_on_c, 0, 58, 0
1, 122400, Note_on_c, 0, 49, 0
1, 122400, Note_on_c, 0, 54, 0
1, 122400, Note_on_c, 0, 70, 57
1, 122400, Note_on_c, 0, 42, 34
1, 122409, Control_c, 0, 64, 0
1, 122614, Control_c, 0, 64, 127
1, 122880, Tempo, 504414
1, 122880, Note_on_c, 0, 42, 0
1, 122880, Note_on_c, 0, 70, 0
1, 122880, Note_on_c, 0, 65, 49
1, 122880, Note_on_c, 0, 58, 25
1, 122880, Note_on_c, 0, 63, 24
1, 122880, Note_on_c, 0, 54, 20
1, 122880, Note_on_c, 0, 49, 20
1, 123360, Tempo, 517152
1, 123360, Note_on_c, 0, 49, 0
1, 123360, Note_on_c, 0, 63, 0
1, 123360, Note_on_c, 0, 65, 0
1, 123360, Note_on_c, 0, 58, 0
1, 123360, Note_on_c, 0, 54, 0
1, 123360, Note_on_c, 0, 66, 52
1, 123360, Note_on_c, 0, 58, 25
1, 123360, Note_on_c, 0, 49, 16
1, 123360, Note_on_c, 0, 54, 16
1, 123360, Note_on_c, 0, 61, 21
1, 123840, Tempo, 503778
1, 123840, Note_on_c, 0, 61, 0
1, 123840, Note_on_c, 0, 49, 0
1, 123840, Note_on_c, 0, 66, 0
1, 123840, Note_on_c, 0, 58, 0
1, 123840, Note_on_c, 0, 54, 0
1, 123840, Note_on_c, 0, 75, 57
1, 123840, Note_on_c, 0, 42, 34
1, 123853, Control_c, 0, 64, 0
1, 124107, Control_c, 0, 64, 127
1, 124320, Tempo, 507485
1, 124320, Note_on_c, 0, 42, 0
1, 124320, Note_on_c, 0, 58, 19
1, 124320, Note_on_c, 0, 66, 24
1, 124320, Note_on_c, 0, 63, 21
1, 124320, Note_on_c, 0, 49, 17
1, 124320, Note_on_c, 0, 54, 17
1, 124800, Tempo, 512295
1, 124800, Note_on_c, 0, 54, 0
1, 124800, Note_on_c, 0, 58, 0
1, 124800, Note_on_c, 0, 66, 0
1, 124800, Note_on_c, 0, 75, 0
1, 124800, Note_on_c, 0, 49, 0
1, 124800, Note_on_c, 0, 63, 0
1, 124800, Note_on_c, 0, 73, 52
1, 124800, Note_on_c, 0, 58, 19
1, 124800, Note_on_c, 0, 66, 24
1, 124800, Note_on_c, 0, 49, 15
1, 124800, Note_on_c, 0, 54, 15
1, 124800, Note_on_c, 0, 61, 18
1, 125280, Tempo, 509122
1, 125280, Note_on_c, 0, 61, 0
1, 125280, Note_on_c, 0, 58, 0
1, 125280, Note_on_c, 0, 66, 0
1, 125280, Note_on_c, 0, 73, 0
1, 125280, Note_on_c, 0, 54, 0
1, 125280, Note_on_c, 0, 49, 0
1, 125280, Note_on_c, 0, 73, 52
1, 125280, Note_on_c, 0, 37, 33
1, 125293, Control_c, 0, 64, 0
1, 125600, Control_c, 0, 64, 127
1, 125760, Tempo, 514889
1, 125760, Note_on_c, 0, 37, 0
1, 125760, Note_on_c, 0, 73, 0
1, 125760, Note_on_c, 0, 66, 44
1, 125760, Note_on_c, 0, 59, 22
1, 125760, Note_on_c, 0, 63, 24
1, 125760, Note_on_c, 0, 54, 20
1, 125760, Note_on_c, 0, 49, 20
1, 126240, Tempo, 524109
1, 126240, Note_on_c, 0, 49, 0
1, 126240, Note_on_c, 0, 63, 0
1, 126240, Note_on_c, 0, 66, 0
1, 126240, Note_on_c, 0, 59, 0
1, 126240, Note_on_c, 0, 54, 0
1, 126240, Note_on_c, 0, 68, 45
1, 126240, Note_on_c, 0, 65, 25
1, 126240, Note_on_c, 0, 59, 21
1, 126240, Note_on_c, 0, 49, 16
1, 126240, Note_on_c, 0, 54, 16
1, 126240, Note_on_c, 0, 61, 21
1, 126720, Note_on_c, 0, 61, 0
1, 126720, Note_on_c, 0, 65, 0
1, 126720, Note_on_c, 0, 59, 0
1, 126720, Note_on_c, 0, 68, 0
1, 126720, Note_on_c, 0, 54, 0
1, 126720, Note_on_c, 0, 49, 0
1, 126720, Note_on_c, 0, 70, 52
1, 126720, Note_on_c, 0, 42, 34
1, 126734, Control_c, 0, 64, 0
1, 127014, Control_c, 0, 64, 127
1, 127200, Tempo, 509122
1, 127200, Note_on_c, 0, 42, 0
1, 127200, Note_on_c, 0, 58, 22
1, 127200, Note_on_c, 0, 66, 26
1, 127200, Note_on_c, 0, 63, 24
1, 127200, Note_on_c, 0, 49, 20
1, 127200, Note_on_c, 0, 54, 20
1, 127680, Tempo, 515553
1, 127680, Note_on_c, 0, 54, 0
1, 127680, Note_on_c, 0, 58, 0
1, 127680, Note_on_c, 0, 66, 0
1, 127680, Note_on_c, 0, 63, 0
1, 127680, Note_on_c, 0, 49, 0
1, 127680, Note_on_c, 0, 58, 22
1, 127680, Note_on_c, 0, 66, 26
1, 127680, Note_on_c, 0, 49, 16
1, 127680, Note_on_c, 0, 54, 16
1, 127680, Note_on_c, 0, 61, 21
1, 128160, Note_on_c, 0, 61, 0
1, 128160, Note_on_c, 0, 58, 0
1, 128160, Note_on_c, 0, 66, 0
1, 128160, Note_on_c, 0, 49, 0
1, 128160, Note_on_c, 0, 54, 0
1, 128160, Note_on_c, 0, 58, 21
1, 128160, Note_on_c, 0, 66, 25
1, 128160, Note_on_c, 0, 49, 20
1, 128160, Note_on_c, 0, 54, 18
1, 128160, Note_on_c, 0, 61, 22
1, 128172, Control_c, 0, 64, 0
1, 128427, Control_c, 0, 64, 127
1, 128640, Tempo, 507485
1, 128640, Note_on_c, 0, 61, 0
1, 128640, Note_on_c, 0, 58, 0
1, 128640, Note_on_c, 0, 66, 0
1, 128640, Note_on_c, 0, 49, 0
1, 128640, Note_on_c, 0, 54, 0
1, 128640, Note_on_c, 0, 61, 20
1, 128640, Note_on_c, 0, 66, 24
1, 128640, Note_on_c, 0, 49, 17
1, 128640, Note_on_c, 0, 54, 17
1, 128640, Note_on_c, 0, 59, 22
1, 129120, Tempo, 513919
1, 129120, Note_on_c, 0, 59, 0
1, 129120, Note_on_c, 0, 61, 0
1, 129120, Note_on_c, 0, 66, 0
1, 129120, Note_on_c, 0, 49, 0
1, 129120, Note_on_c, 0, 54, 0
1, 129120, Note_on_c, 0, 61, 20
1, 129120, Note_on_c, 0, 66, 24
1, 129120, Note_on_c, 0, 49, 18
1, 129120, Note_on_c, 0, 54, 18
1, 129120, Note_on_c, 0, 58, 23
1, 129600, Tempo, 507485
1, 129600, Note_on_c, 0, 58, 0
1, 129600, Note_on_c, 0, 61, 0
1, 129600, Note_on_c, 0, 66, 0
1, 129600, Note_on_c, 0, 49, 0
1, 129600, Note_on_c, 0, 54, 0
1, 129600, Note_on_c, 0, 61, 21
1, 129600, Note_on_c, 0, 66, 25
1, 129600, Note_on_c, 0, 49, 18
1, 129600, Note_on_c, 0, 54, 18
1, 129600, Note_on_c, 0, 58, 23
1, 129616, Control_c, 0, 64, 0
1, 129903, Control_c, 0, 64, 127
1, 130080, Note_on_c, 0, 58, 0
1, 130080, Note_on_c, 0, 61, 0
1, 130080, Note_on_c, 0, 66, 0
1, 130080, Note_on_c, 0, 70, 0
1, 130080, Note_on_c, 0, 54, 0
1, 130080, Note_on_c, 0, 49, 0
1, 130080, Note_on_c, 0, 56, 20
1, 130080, Note_on_c, 0, 61, 24
1, 130080, Note_on_c, 0, 47, 18
1, 130080, Note_on_c, 0, 49, 23
1, 130560, Tempo, 513919
1, 130560, Note_on_c, 0, 49, 0
1, 130560, Note_on_c, 0, 56, 0
1, 130560, Note_on_c, 0, 61, 0
1, 130560, Note_on_c, 0, 47, 0
1, 130560, Note_on_c, 0, 54, 20
1, 130560, Note_on_c, 0, 61, 24
1, 130560, Note_on_c, 0, 46, 18
1, 130560, Note_on_c, 0, 49, 23
1, 131040, Tempo, 518762
1, 131040, Note_on_c, 0, 49, 0
1, 131040, Note_on_c, 0, 54, 0
1, 131040, Note_on_c, 0, 61, 0
1, 131040, Note_on_c, 0, 46, 0
1, 131040, Note_on_c, 0, 54, 21
1, 131040, Note_on_c, 0, 61, 25
1, 131040, Note_on_c, 0, 46, 18
1, 131040, Note_on_c, 0, 49, 23
1, 131520, Tempo, 512295
1, 131520, Note_on_c, 0, 49, 0
1, 131520, Note_on_c, 0, 54, 0
1, 131520, Note_on_c, 0, 61, 0
1, 131520, Note_on_c, 0, 46, 0
1, 131520, Note_on_c, 0, 56, 20
1, 131520, Note_on_c, 0, 61, 24
1, 131520, Note_on_c, 0, 47, 18
1, 131520, Note_on_c, 0, 49, 23
1, 132000, Note_on_c, 0, 49, 0
1, 132000, Note_on_c, 0, 56, 0
1, 132000, Note_on_c, 0, 61, 0
1, 132000, Note_on_c, 0, 47, 0
1, 132000, Note_on_c, 0, 54, 20
1, 132000, Note_on_c, 0, 61, 24
1, 132000, Note_on_c, 0, 46, 18
1, 132000, Note_on_c, 0, 49, 23
1, 132480, Note_on_c, 0, 49, 0
1, 132480, Note_on_c, 0, 54, 0
1, 132480, Note_on_c, 0, 61, 0
1, 132480, Note_on_c, 0, 46, 0
1, 132480, Note_on_c, 0, 54, 21
1, 132480, Note_on_c, 0, 61, 25
1, 132480, Note_on_c, 0, 46, 17
1, 132480, Note_on_c, 0, 49, 22
1, 132960, Tempo, 518762
1, 132960, Note_on_c, 0, 49, 0
1, 132960, Note_on_c, 0, 54, 0
1, 132960, Note_on_c, 0, 61, 0
1, 132960, Note_on_c, 0, 46, 0
1, 132960, Note_on_c, 0, 56, 20
1, 132960, Note_on_c, 0, 61, 24
1, 132960, Note_on_c, 0, 47, 17
1, 132960, Note_on_c, 0, 49, 22
1, 133440, Tempo, 528774
1, 133440, Note_on_c, 0, 49, 0
1, 133440, Note_on_c, 0, 56, 0
1, 133440, Note_on_c, 0, 61, 0
1, 133440, Note_on_c, 0, 47, 0
1, 133440, Note_on_c, 0, 54, 21
1, 133440, Note_on_c, 0, 61, 25
1, 133440, Note_on_c, 0, 46, 16
1, 133440, Note_on_c, 0, 49, 20
1, 133920, Tempo, 515553
1, 133920, Note_on_c, 0, 49, 0
1, 133920, Note_on_c, 0, 54, 0
1, 133920, Note_on_c, 0, 61, 0
1, 133920, Note_on_c, 0, 46, 0
1, 133920, Note_on_c, 0, 73, 53
1, 133920, Note_on_c, 0, 46, 34
1, 133931, Control_c, 0, 64, 0
1, 134195, Control_c, 0, 64, 127
1, 134400, Tempo, 504414
1, 134400, Note_on_c, 0, 46, 0
1, 134400, Note_on_c, 0, 73, 0
1, 134400, Note_on_c, 0, 69, 49
1, 134400, Note_on_c, 0, 61, 27
1, 134400, Note_on_c, 0, 66, 24
1, 134400, Note_on_c, 0, 58, 20
1, 134400, Note_on_c, 0, 53, 20
1, 134880, Tempo, 517152
1, 134880, Note_on_c, 0, 53, 0
1, 134880, Note_on_c, 0, 66, 0
1, 134880, Note_on_c, 0, 69, 0
1, 134880, Note_on_c, 0, 61, 0
1, 134880, Note_on_c, 0, 58, 0
1, 134880, Note_on_c, 0, 70, 54
1, 134880, Note_on_c, 0, 61, 27
1, 134880, Note_on_c, 0, 53, 16
1, 134880, Note_on_c, 0, 58, 16
1, 134880, Note_on_c, 0, 65, 21
1, 135360, Note_on_c, 0, 65, 0
1, 135360, Note_on_c, 0, 53, 0
1, 135360, Note_on_c, 0, 70, 0
1, 135360, Note_on_c, 0, 61, 0
1, 135360, Note_on_c, 0, 58, 0
1, 135360, Note_on_c, 0, 78, 58
1, 135360, Note_on_c, 0, 46, 34
1, 135376, Control_c, 0, 64, 0
1, 135400, Tempo, 508173
1, 135734, Control_c, 0, 64, 127
1, 135840, Tempo, 507485
1, 135840, Note_on_c, 0, 46, 0
1, 135840, Note_on_c, 0, 61, 22
1, 135840, Note_on_c, 0, 70, 26
1, 135840, Note_on_c, 0, 66, 22
1, 135840, Note_on_c, 0, 53, 17
1, 135840, Note_on_c, 0, 58, 17
1, 136320, Tempo, 512295
1, 136320, Note_on_c, 0, 58, 0
1, 136320, Note_on_c, 0, 61, 0
1, 136320, Note_on_c, 0, 70, 0
1, 136320, Note_on_c, 0, 78, 0
1, 136320, Note_on_c, 0, 53, 0
1, 136320, Note_on_c, 0, 66, 0
1, 136320, Note_on_c, 0, 77, 52
1, 136320, Note_on_c, 0, 61, 20
1, 136320, Note_on_c, 0, 70, 24
1, 136320, Note_on_c, 0, 53, 14
1, 136320, Note_on_c, 0, 58, 14
1, 136320, Note_on_c, 0, 65, 17
1, 136800, Tempo, 509122
1, 136800, Note_on_c, 0, 65, 0
1, 136800, Note_on_c, 0, 61, 0
1, 136800, Note_on_c, 0, 70, 0
1, 136800, Note_on_c, 0, 77, 0
1, 136800, Note_on_c, 0, 58, 0
1, 136800, Note_on_c, 0, 53, 0
1, 136800, Note_on_c, 0, 77, 52
1, 136800, Note_on_c, 0, 41, 33
1, 136818, Control_c, 0, 64, 0
1, 137097, Control_c, 0, 64, 127
1, 137280, Note_on_c, 0, 41, 0
1, 137280, Note_on_c, 0, 77, 0
1, 137280, Note_on_c, 0, 70, 52
1, 137280, Note_on_c, 0, 63, 22
1, 137280, Note_on_c, 0, 66, 24
1, 137280, Note_on_c, 0, 60, 13
1, 137280, Note_on_c, 0, 53, 13
1, 137760, Tempo, 515553
1, 137760, Note_on_c, 0, 53, 0
1, 137760, Note_on_c, 0, 66, 0
1, 137760, Note_on_c, 0, 70, 0
1, 137760, Note_on_c, 0, 63, 0
1, 137760, Note_on_c, 0, 60, 0
1, 137760, Note_on_c, 0, 72, 53
1, 137760, Note_on_c, 0, 69, 26
1, 137760, Note_on_c, 0, 63, 22
1, 137760, Note_on_c, 0, 53, 16
1, 137760, Note_on_c, 0, 60, 16
1, 137760, Note_on_c, 0, 65, 20
1, 138240, Note_on_c, 0, 65, 0
1, 138240, Note_on_c, 0, 69, 0
1, 138240, Note_on_c, 0, 63, 0
1, 138240, Note_on_c, 0, 72, 0
1, 138240, Note_on_c, 0, 60, 0
1, 138240, Note_on_c, 0, 53, 0
1, 138240, Note_on_c, 0, 75, 57
1, 138240, Note_on_c, 0, 46, 34
1, 138252, Control_c, 0, 64, 0
1, 138507, Control_c, 0, 64, 127
1, 138720, Tempo, 509122
1, 138720, Note_on_c, 0, 46, 0
1, 138720, Note_on_c, 0, 75, 0
1, 138720, Note_on_c, 0, 73, 57
1, 138720, Note_on_c, 0, 61, 21
1, 138720, Note_on_c, 0, 70, 25
1, 138720, Note_on_c, 0, 66, 24
1, 138720, Note_on_c, 0, 53, 20
1, 138720, Note_on_c, 0, 58, 20
1, 139200, Tempo, 510421
1, 139200, Note_on_c, 0, 58, 0
1, 139200, Note_on_c, 0, 61, 0
1, 139200, Note_on_c, 0, 70, 0
1, 139200, Note_on_c, 0, 66, 0
1, 139200, Note_on_c, 0, 53, 0
1, 139200, Note_on_c, 0, 61, 21
1, 139200, Note_on_c, 0, 70, 25
1, 139200, Note_on_c, 0, 53, 17
1, 139200, Note_on_c, 0, 58, 17
1, 139200, Note_on_c, 0, 65, 22
1, 139680, Tempo, 514889
1, 139680, Note_on_c, 0, 65, 0
1, 139680, Note_on_c, 0, 61, 0
1, 139680, Note_on_c, 0, 70, 0
1, 139680, Note_on_c, 0, 53, 0
1, 139680, Note_on_c, 0, 58, 0
1, 139680, Note_on_c, 0, 61, 23
1, 139680, Note_on_c, 0, 70, 27
1, 139680, Note_on_c, 0, 53, 14
1, 139680, Note_on_c, 0, 58, 17
1, 139680, Note_on_c, 0, 65, 23
1, 139696, Control_c, 0, 64, 0
1, 139920, Control_c, 0, 64, 127
1, 140160, Tempo, 507485
1, 140160, Note_on_c, 0, 65, 0
1, 140160, Note_on_c, 0, 61, 0
1, 140160, Note_on_c, 0, 70, 0
1, 140160, Note_on_c, 0, 53, 0
1, 140160, Note_on_c, 0, 58, 0
1, 140160, Note_on_c, 0, 65, 24
1, 140160, Note_on_c, 0, 70, 28
1, 140160, Note_on_c, 0, 53, 20
1, 140160, Note_on_c, 0, 58, 20
1, 140160, Note_on_c, 0, 63, 24
1, 140640, Tempo, 513919
1, 140640, Note_on_c, 0, 63, 0
1, 140640, Note_on_c, 0, 65, 0
1, 140640, Note_on_c, 0, 70, 0
1, 140640, Note_on_c, 0, 53, 0
1, 140640, Note_on_c, 0, 58, 0
1, 140640, Note_on_c, 0, 65, 23
1, 140640, Note_on_c, 0, 70, 27
1, 140640, Note_on_c, 0, 53, 20
1, 140640, Note_on_c, 0, 58, 20
1, 140640, Note_on_c, 0, 61, 24
1, 141120, Tempo, 507485
1, 141120, Note_on_c, 0, 61, 0
1, 141120, Note_on_c, 0, 65, 0
1, 141120, Note_on_c, 0, 70, 0
1, 141120, Note_on_c, 0, 53, 0
1, 141120, Note_on_c, 0, 58, 0
1, 141120, Note_on_c, 0, 65, 22
1, 141120, Note_on_c, 0, 70, 27
1, 141120, Note_on_c, 0, 53, 16
1, 141120, Note_on_c, 0, 58, 16
1, 141120, Note_on_c, 0, 61, 25
1, 141132, Control_c, 0, 64, 0
1, 141372, Control_c, 0, 64, 127
1, 141600, Note_on_c, 0, 61, 0
1, 141600, Note_on_c, 0, 65, 0
1, 141600, Note_on_c, 0, 70, 0
1, 141600, Note_on_c, 0, 73, 0
1, 141600, Note_on_c, 0, 58, 0
1, 141600, Note_on_c, 0, 53, 0
1, 141600, Note_on_c, 0, 60, 22
1, 141600, Note_on_c, 0, 65, 26
1, 141600, Note_on_c, 0, 51, 20
1, 141600, Note_on_c, 0, 53, 24
1, 142080, Tempo, 513919
1, 142080, Note_on_c, 0, 53, 0
1, 142080, Note_on_c, 0, 60, 0
1, 142080, Note_on_c, 0, 65, 0
1, 142080, Note_on_c, 0, 51, 0
1, 142080, Note_on_c, 0, 58, 22
1, 142080, Note_on_c, 0, 65, 26
1, 142080, Note_on_c, 0, 49, 20
1, 142080, Note_on_c, 0, 53, 24
1, 142560, Tempo, 518762
1, 142560, Note_on_c, 0, 53, 0
1, 142560, Note_on_c, 0, 58, 0
1, 142560, Note_on_c, 0, 65, 0
1, 142560, Note_on_c, 0, 49, 0
1, 142560, Note_on_c, 0, 58, 22
1, 142560, Note_on_c, 0, 65, 26
1, 142560, Note_on_c, 0, 49, 20
1, 142560, Note_on_c, 0, 53, 24
1, 143040, Tempo, 512295
1, 143040, Note_on_c, 0, 53, 0
1, 143040, Note_on_c, 0, 58, 0
1, 143040, Note_on_c, 0, 65, 0
1, 143040, Note_on_c, 0, 49, 0
1, 143040, Note_on_c, 0, 60, 22
1, 143040, Note_on_c, 0, 65, 26
1, 143040, Note_on_c, 0, 51, 20
1, 143040, Note_on_c, 0, 53, 24
1, 143520, Note_on_c, 0, 53, 0
1, 143520, Note_on_c, 0, 60, 0
1, 143520, Note_on_c, 0, 65, 0
1, 143520, Note_on_c, 0, 51, 0
1, 143520, Note_on_c, 0, 58, 22
1, 143520, Note_on_c, 0, 65, 26
1, 143520, Note_on_c, 0, 49, 20
1, 143520, Note_on_c, 0, 53, 24
1, 144000, Note_on_c, 0, 53, 0
1, 144000, Note_on_c, 0, 58, 0
1, 144000, Note_on_c, 0, 65, 0
1, 144000, Note_on_c, 0, 49, 0
1, 144000, Note_on_c, 0, 58, 22
1, 144000, Note_on_c, 0, 65, 26
1, 144000, Note_on_c, 0, 49, 20
1, 144000, Note_on_c, 0, 53, 24
1, 144480, Note_on_c, 0, 53, 0
1, 144480, Note_on_c, 0, 58, 0
1, 144480, Note_on_c, 0, 65, 0
1, 144480, Note_on_c, 0, 49, 0
1, 144480, Note_on_c, 0, 60, 22
1, 144480, Note_on_c, 0, 65, 26
1, 144480, Note_on_c, 0, 51, 24
1, 144480, Note_on_c, 0, 53, 24
1, 144960, Note_on_c, 0, 53, 0
1, 144960, Note_on_c, 0, 60, 0
1, 144960, Note_on_c, 0, 65, 0
1, 144960, Note_on_c, 0, 51, 0
1, 144960, Note_on_c, 0, 58, 22
1, 144960, Note_on_c, 0, 65, 26
1, 144960, Note_on_c, 0, 49, 20
1, 144960, Note_on_c, 0, 53, 24
1, 145440, Tempo, 515553
1, 145440, Note_on_c, 0, 53, 0
1, 145440, Note_on_c, 0, 58, 0
1, 145440, Note_on_c, 0, 65, 0
1, 145440, Note_on_c, 0, 49, 0
1, 145440, Note_on_c, 0, 70, 60
1, 145440, Note_on_c, 0, 42, 36
1, 145452, Control_c, 0, 64, 0
1, 145653, Control_c, 0, 64, 127
1, 145920, Tempo, 504414
1, 145920, Note_on_c, 0, 42, 0
1, 145920, Note_on_c, 0, 70, 0
1, 145920, Note_on_c, 0, 65, 53
1, 145920, Note_on_c, 0, 58, 27
1, 145920, Note_on_c, 0, 63, 25
1, 145920, Note_on_c, 0, 54, 21
1, 145920, Note_on_c, 0, 49, 21
1, 146400, Tempo, 517152
1, 146400, Note_on_c, 0, 49, 0
1, 146400, Note_on_c, 0, 63, 0
1, 146400, Note_on_c, 0, 65, 0
1, 146400, Note_on_c, 0, 58, 0
1, 146400, Note_on_c, 0, 54, 0
1, 146400, Note_on_c, 0, 66, 57
1, 146400, Note_on_c, 0, 58, 26
1, 146400, Note_on_c, 0, 49, 16
1, 146400, Note_on_c, 0, 54, 16
1, 146400, Note_on_c, 0, 61, 21
1, 146880, Tempo, 508173
1, 146880, Note_on_c, 0, 61, 0
1, 146880, Note_on_c, 0, 49, 0
1, 146880, Note_on_c, 0, 66, 0
1, 146880, Note_on_c, 0, 58, 0
1, 146880, Note_on_c, 0, 54, 0
1, 146880, Note_on_c, 0, 75, 59
1, 146880, Note_on_c, 0, 42, 34
1, 146893, Control_c, 0, 64, 0
1, 147147, Control_c, 0, 64, 127
1, 147360, Tempo, 507485
1, 147360, Note_on_c, 0, 42, 0
1, 147360, Note_on_c, 0, 58, 22
1, 147360, Note_on_c, 0, 66, 27
1, 147360, Note_on_c, 0, 63, 21
1, 147360, Note_on_c, 0, 49, 17
1, 147360, Note_on_c, 0, 54, 17
1, 147840, Tempo, 512295
1, 147840, Note_on_c, 0, 54, 0
1, 147840, Note_on_c, 0, 58, 0
1, 147840, Note_on_c, 0, 66, 0
1, 147840, Note_on_c, 0, 75, 0
1, 147840, Note_on_c, 0, 49, 0
1, 147840, Note_on_c, 0, 63, 0
1, 147840, Note_on_c, 0, 73, 57
1, 147840, Note_on_c, 0, 58, 22
1, 147840, Note_on_c, 0, 66, 26
1, 147840, Note_on_c, 0, 49, 15
1, 147840, Note_on_c, 0, 54, 15
1, 147840, Note_on_c, 0, 61, 18
1, 148320, Tempo, 509122
1, 148320, Note_on_c, 0, 61, 0
1, 148320, Note_on_c, 0, 58, 0
1, 148320, Note_on_c, 0, 66, 0
1, 148320, Note_on_c, 0, 73, 0
1, 148320, Note_on_c, 0, 54, 0
1, 148320, Note_on_c, 0, 49, 0
1, 148320, Note_on_c, 0, 73, 57
1, 148320, Note_on_c, 0, 37, 34
1, 148333, Control_c, 0, 64, 0
1, 148640, Control_c, 0, 64, 127
1, 148800, Tempo, 514889
1, 148800, Note_on_c, 0, 37, 0
1, 148800, Note_on_c, 0, 73, 0
1, 148800, Note_on_c, 0, 66, 53
1, 148800, Note_on_c, 0, 59, 22
1, 148800, Note_on_c, 0, 63, 26
1, 148800, Note_on_c, 0, 54, 22
1, 148800, Note_on_c, 0, 49, 22
1, 149280, Tempo, 521785
1, 149280, Note_on_c, 0, 49, 0
1, 149280, Note_on_c, 0, 63, 0
1, 149280, Note_on_c, 0, 66, 0
1, 149280, Note_on_c, 0, 59, 0
1, 149280, Note_on_c, 0, 54, 0
1, 149280, Note_on_c, 0, 68, 52
1, 149280, Note_on_c, 0, 65, 27
1, 149280, Note_on_c, 0, 59, 22
1, 149280, Note_on_c, 0, 49, 18
1, 149280, Note_on_c, 0, 54, 18
1, 149280, Note_on_c, 0, 61, 23
1, 149760, Note_on_c, 0, 61, 0
1, 149760, Note_on_c, 0, 65, 0
1, 149760, Note_on_c, 0, 59, 0
1, 149760, Note_on_c, 0, 68, 0
1, 149760, Note_on_c, 0, 54, 0
1, 149760, Note_on_c, 0, 49, 0
1, 149760, Note_on_c, 0, 70, 57
1, 149760, Note_on_c, 0, 42, 34
1, 149776, Control_c, 0, 64, 0
1, 150000, Control_c, 0, 64, 127
1, 150240, Tempo, 509122
1, 150240, Note_on_c, 0, 42, 0
1, 150240, Note_on_c, 0, 58, 24
1, 150240, Note_on_c, 0, 66, 28
1, 150240, Note_on_c, 0, 63, 25
1, 150240, Note_on_c, 0, 49, 21
1, 150240, Note_on_c, 0, 54, 21
1, 150720, Tempo, 515553
1, 150720, Note_on_c, 0, 54, 0
1, 150720, Note_on_c, 0, 58, 0
1, 150720, Note_on_c, 0, 66, 0
1, 150720, Note_on_c, 0, 63, 0
1, 150720, Note_on_c, 0, 49, 0
1, 150720, Note_on_c, 0, 58, 24
1, 150720, Note_on_c, 0, 66, 27
1, 150720, Note_on_c, 0, 49, 20
1, 150720, Note_on_c, 0, 54, 20
1, 150720, Note_on_c, 0, 61, 24
1, 151200, Note_on_c, 0, 61, 0
1, 151200, Note_on_c, 0, 58, 0
1, 151200, Note_on_c, 0, 66, 0
1, 151200, Note_on_c, 0, 49, 0
1, 151200, Note_on_c, 0, 54, 0
1, 151200, Note_on_c, 0, 58, 23
1, 151200, Note_on_c, 0, 66, 27
1, 151200, Note_on_c, 0, 49, 21
1, 151200, Note_on_c, 0, 54, 21
1, 151200, Note_on_c, 0, 61, 25
1, 151680, Tempo, 507485
1, 151680, Note_on_c, 0, 61, 0
1, 151680, Note_on_c, 0, 58, 0
1, 151680, Note_on_c, 0, 66, 0
1, 151680, Note_on_c, 0, 49, 0
1, 151680, Note_on_c, 0, 54, 0
1, 151680, Note_on_c, 0, 61, 22
1, 151680, Note_on_c, 0, 66, 27
1, 151680, Note_on_c, 0, 49, 20
1, 151680, Note_on_c, 0, 54, 20
1, 151680, Note_on_c, 0, 59, 24
1, 152160, Tempo, 513919
1, 152160, Note_on_c, 0, 59, 0
1, 152160, Note_on_c, 0, 61, 0
1, 152160, Note_on_c, 0, 66, 0
1, 152160, Note_on_c, 0, 49, 0
1, 152160, Note_on_c, 0, 54, 0
1, 152160, Note_on_c, 0, 61, 22
1, 152160, Note_on_c, 0, 66, 27
1, 152160, Note_on_c, 0, 49, 21
1, 152160, Note_on_c, 0, 54, 21
1, 152160, Note_on_c, 0, 58, 25
1, 152640, Tempo, 507485
1, 152640, Note_on_c, 0, 58, 0
1, 152640, Note_on_c, 0, 61, 0
1, 152640, Note_on_c, 0, 66, 0
1, 152640, Note_on_c, 0, 49, 0
1, 152640, Note_on_c, 0, 54, 0
1, 152640, Note_on_c, 0, 61, 22
1, 152640, Note_on_c, 0, 66, 26
1, 152640, Note_on_c, 0, 49, 21
1, 152640, Note_on_c, 0, 54, 21
1, 152640, Note_on_c, 0, 58, 25
1, 153120, Note_on_c, 0, 58, 0
1, 153120, Note_on_c, 0, 61, 0
1, 153120, Note_on_c, 0, 66, 0
1, 153120, Note_on_c, 0, 70, 0
1, 153120, Note_on_c, 0, 54, 0
1, 153120, Note_on_c, 0, 49, 0
1, 153120, Note_on_c, 0, 56, 22
1, 153120, Note_on_c, 0, 61, 26
1, 153120, Note_on_c, 0, 47, 21
1, 153120, Note_on_c, 0, 49, 25
1, 153600, Tempo, 513919
1, 153600, Note_on_c, 0, 49, 0
1, 153600, Note_on_c, 0, 56, 0
1, 153600, Note_on_c, 0, 61, 0
1, 153600, Note_on_c, 0, 47, 0
1, 153600, Note_on_c, 0, 54, 21
1, 153600, Note_on_c, 0, 61, 25
1, 153600, Note_on_c, 0, 46, 21
1, 153600, Note_on_c, 0, 49, 25
1, 154080, Tempo, 518762
1, 154080, Note_on_c, 0, 49, 0
1, 154080, Note_on_c, 0, 54, 0
1, 154080, Note_on_c, 0, 61, 0
1, 154080, Note_on_c, 0, 46, 0
1, 154080, Note_on_c, 0, 54, 22
1, 154080, Note_on_c, 0, 61, 27
1, 154080, Note_on_c, 0, 46, 21
1, 154080, Note_on_c, 0, 49, 25
1, 154560, Tempo, 512295
1, 154560, Note_on_c, 0, 49, 0
1, 154560, Note_on_c, 0, 54, 0
1, 154560, Note_on_c, 0, 61, 0
1, 154560, Note_on_c, 0, 46, 0
1, 154560, Note_on_c, 0, 56, 22
1, 154560, Note_on_c, 0, 61, 26
1, 154560, Note_on_c, 0, 47, 21
1, 154560, Note_on_c, 0, 49, 25
1, 155040, Note_on_c, 0, 49, 0
1, 155040, Note_on_c, 0, 56, 0
1, 155040, Note_on_c, 0, 61, 0
1, 155040, Note_on_c, 0, 47, 0
1, 155040, Note_on_c, 0, 54, 22
1, 155040, Note_on_c, 0, 61, 26
1, 155040, Note_on_c, 0, 46, 21
1, 155040, Note_on_c, 0, 49, 25
1, 155520, Note_on_c, 0, 49, 0
1, 155520, Note_on_c, 0, 54, 0
1, 155520, Note_on_c, 0, 61, 0
1, 155520, Note_on_c, 0, 46, 0
1, 155520, Note_on_c, 0, 54, 22
1, 155520, Note_on_c, 0, 61, 27
1, 155520, Note_on_c, 0, 46, 18
1, 155520, Note_on_c, 0, 49, 23
1, 156000, Tempo, 518762
1, 156000, Note_on_c, 0, 49, 0
1, 156000, Note_on_c, 0, 54, 0
1, 156000, Note_on_c, 0, 61, 0
1, 156000, Note_on_c, 0, 46, 0
1, 156000, Note_on_c, 0, 56, 22
1, 156000, Note_on_c, 0, 61, 26
1, 156000, Note_on_c, 0, 44, 16
1, 156000, Note_on_c, 0, 49, 22
1, 156480, Tempo, 528774
1, 156480, Note_on_c, 0, 49, 0
1, 156480, Note_on_c, 0, 56, 0
1, 156480, Note_on_c, 0, 61, 0
1, 156480, Note_on_c, 0, 44, 0
1, 156480, Note_on_c, 0, 58, 22
1, 156480, Note_on_c, 0, 61, 26
1, 156480, Note_on_c, 0, 42, 16
1, 156480, Note_on_c, 0, 49, 22
1, 156960, Tempo, 515553
1, 156960, Note_on_c, 0, 49, 0
1, 156960, Note_on_c, 0, 58, 0
1, 156960, Note_on_c, 0, 61, 0
1, 156960, Note_on_c, 0, 42, 0
1, 156960, Note_on_c, 0, 70, 62
1, 156960, Note_on_c, 0, 41, 44
1, 156972, Control_c, 0, 64, 0
1, 157257, Control_c, 0, 64, 127
1, 157440, Tempo, 504414
1, 157440, Note_on_c, 0, 41, 0
1, 157440, Note_on_c, 0, 70, 0
1, 157440, Note_on_c, 0, 69, 54
1, 157440, Note_on_c, 0, 58, 24
1, 157440, Note_on_c, 0, 65, 28
1, 157440, Note_on_c, 0, 62, 27
1, 157440, Note_on_c, 0, 53, 23
1, 157920, Tempo, 517152
1, 157920, Note_on_c, 0, 53, 0
1, 157920, Note_on_c, 0, 65, 0
1, 157920, Note_on_c, 0, 69, 0
1, 157920, Note_on_c, 0, 58, 0
1, 157920, Note_on_c, 0, 62, 0
1, 157920, Note_on_c, 0, 70, 59
1, 157920, Note_on_c, 0, 58, 24
1, 157920, Note_on_c, 0, 65, 28
1, 157920, Note_on_c, 0, 53, 20
1, 157920, Note_on_c, 0, 62, 24
1, 158400, Tempo, 510421
1, 158400, Note_on_c, 0, 62, 0
1, 158400, Note_on_c, 0, 65, 0
1, 158400, Note_on_c, 0, 70, 0
1, 158400, Note_on_c, 0, 58, 0
1, 158400, Note_on_c, 0, 53, 0
1, 158400, Note_on_c, 0, 71, 62
1, 158400, Note_on_c, 0, 41, 41
1, 158417, Control_c, 0, 64, 0
1, 158743, Control_c, 0, 64, 127
1, 158880, Tempo, 507485
1, 158880, Note_on_c, 0, 41, 0
1, 158880, Note_on_c, 0, 59, 24
1, 158880, Note_on_c, 0, 65, 28
1, 158880, Note_on_c, 0, 63, 27
1, 158880, Note_on_c, 0, 53, 22
1, 158880, Note_on_c, 0, 57, 22
1, 159360, Tempo, 512295
1, 159360, Note_on_c, 0, 57, 0
1, 159360, Note_on_c, 0, 59, 0
1, 159360, Note_on_c, 0, 65, 0
1, 159360, Note_on_c, 0, 71, 0
1, 159360, Note_on_c, 0, 53, 0
1, 159360, Note_on_c, 0, 63, 0
1, 159360, Note_on_c, 0, 72, 60
1, 159360, Note_on_c, 0, 60, 31
1, 159360, Note_on_c, 0, 65, 37
1, 159360, Note_on_c, 0, 53, 24
1, 159360, Note_on_c, 0, 57, 24
1, 159360, Note_on_c, 0, 63, 28
1, 159840, Tempo, 501630
1, 159840, Note_on_c, 0, 63, 0
1, 159840, Note_on_c, 0, 60, 0
1, 159840, Note_on_c, 0, 65, 0
1, 159840, Note_on_c, 0, 72, 0
1, 159840, Note_on_c, 0, 57, 0
1, 159840, Note_on_c, 0, 53, 0
1, 159840, Note_on_c, 0, 74, 63
1, 159840, Note_on_c, 0, 41, 39
1, 159859, Control_c, 0, 64, 0
1, 160122, Control_c, 0, 64, 127
1, 160320, Tempo, 508173
1, 160320, Note_on_c, 0, 41, 0
1, 160320, Note_on_c, 0, 74, 0
1, 160320, Note_on_c, 0, 70, 60
1, 160320, Note_on_c, 0, 62, 28
1, 160320, Note_on_c, 0, 65, 28
1, 160320, Note_on_c, 0, 58, 24
1, 160320, Note_on_c, 0, 53, 24
1, 160800, Tempo, 515553
1, 160800, Note_on_c, 0, 53, 0
1, 160800, Note_on_c, 0, 65, 0
1, 160800, Note_on_c, 0, 70, 0
1, 160800, Note_on_c, 0, 62, 0
1, 160800, Note_on_c, 0, 58, 0
1, 160800, Note_on_c, 0, 79, 60
1, 160800, Note_on_c, 0, 70, 28
1, 160800, Note_on_c, 0, 67, 24
1, 160800, Note_on_c, 0, 53, 20
1, 160800, Note_on_c, 0, 61, 20
1, 160800, Note_on_c, 0, 64, 24
1, 161280, Note_on_c, 0, 64, 0
1, 161280, Note_on_c, 0, 70, 0
1, 161280, Note_on_c, 0, 67, 0
1, 161280, Note_on_c, 0, 79, 0
1, 161280, Note_on_c, 0, 61, 0
1, 161280, Note_on_c, 0, 53, 0
1, 161280, Note_on_c, 0, 77, 61
1, 161280, Note_on_c, 0, 41, 41
1, 161291, Control_c, 0, 64, 0
1, 161547, Control_c, 0, 64, 127
1, 161760, Tempo, 509122
1, 161760, Note_on_c, 0, 41, 0
1, 161760, Note_on_c, 0, 65, 27
1, 161760, Note_on_c, 0, 69, 32
1, 161760, Note_on_c, 0, 63, 27
1, 161760, Note_on_c, 0, 53, 23
1, 161760, Note_on_c, 0, 60, 23
1, 162240, Tempo, 515553
1, 162240, Note_on_c, 0, 60, 0
1, 162240, Note_on_c, 0, 65, 0
1, 162240, Note_on_c, 0, 69, 0
1, 162240, Note_on_c, 0, 63, 0
1, 162240, Note_on_c, 0, 53, 0
1, 162240, Note_on_c, 0, 65, 31
1, 162240, Note_on_c, 0, 69, 31
1, 162240, Note_on_c, 0, 53, 20
1, 162240, Note_on_c, 0, 60, 20
1, 162240, Note_on_c, 0, 63, 24
1, 162480, Tempo, 535427
1, 162600, Note_on_c, 0, 69, 0
1, 162600, Note_on_c, 0, 77, 0
1, 162600, Note_on_c, 0, 65, 0
1, 162600, Note_on_c, 0, 70, 52
1, 162660, Note_on_c, 0, 70, 0
1, 162660, Note_on_c, 0, 72, 46
1, 162720, Tempo, 508173
1, 162720, Note_on_c, 0, 72, 0
1, 162720, Note_on_c, 0, 53, 0
1, 162720, Note_on_c, 0, 60, 0
1, 162720, Note_on_c, 0, 63, 0
1, 162720, Note_on_c, 0, 70, 63
1, 162720, Note_on_c, 0, 41, 45
1, 162733, Control_c, 0, 64, 0
1, 162995, Control_c, 0, 64, 127
1, 163200, Tempo, 504414
1, 163200, Note_on_c, 0, 41, 0
1, 163200, Note_on_c, 0, 70, 0
1, 163200, Note_on_c, 0, 69, 57
1, 163200, Note_on_c, 0, 58, 24
1, 163200, Note_on_c, 0, 65, 27
1, 163200, Note_on_c, 0, 62, 28
1, 163200, Note_on_c, 0, 53, 24
1, 163680, Tempo, 517152
1, 163680, Note_on_c, 0, 53, 0
1, 163680, Note_on_c, 0, 65, 0
1, 163680, Note_on_c, 0, 69, 0
1, 163680, Note_on_c, 0, 58, 0
1, 163680, Note_on_c, 0, 62, 0
1, 163680, Note_on_c, 0, 70, 61
1, 163680, Note_on_c, 0, 58, 23
1, 163680, Note_on_c, 0, 65, 27
1, 163680, Note_on_c, 0, 53, 22
1, 163680, Note_on_c, 0, 62, 27
1, 164160, Note_on_c, 0, 62, 0
1, 164160, Note_on_c, 0, 65, 0
1, 164160, Note_on_c, 0, 70, 0
1, 164160, Note_on_c, 0, 58, 0
1, 164160, Note_on_c, 0, 53, 0
1, 164160, Note_on_c, 0, 71, 62
1, 164160, Note_on_c, 0, 41, 43
1, 164177, Control_c, 0, 64, 0
1, 164427, Control_c, 0, 64, 127
1, 164640, Tempo, 507485
1, 164640, Note_on_c, 0, 41, 0
1, 164640, Note_on_c, 0, 59, 24
1, 164640, Note_on_c, 0, 65, 28
1, 164640, Note_on_c, 0, 63, 27
1, 164640, Note_on_c, 0, 53, 24
1, 164640, Note_on_c, 0, 57, 24
1, 165120, Tempo, 512295
1, 165120, Note_on_c, 0, 57, 0
1, 165120, Note_on_c, 0, 59, 0
1, 165120, Note_on_c, 0, 65, 0
1, 165120, Note_on_c, 0, 71, 0
1, 165120, Note_on_c, 0, 53, 0
1, 165120, Note_on_c, 0, 63, 0
1, 165120, Note_on_c, 0, 72, 63
1, 165120, Note_on_c, 0, 60, 22
1, 165120, Note_on_c, 0, 65, 26
1, 165120, Note_on_c, 0, 53, 20
1, 165120, Note_on_c, 0, 57, 20
1, 165120, Note_on_c, 0, 63, 24
1, 165600, Tempo, 509122
1, 165600, Note_on_c, 0, 63, 0
1, 165600, Note_on_c, 0, 60, 0
1, 165600, Note_on_c, 0, 65, 0
1, 165600, Note_on_c, 0, 72, 0
1, 165600, Note_on_c, 0, 57, 0
1, 165600, Note_on_c, 0, 53, 0
1, 165600, Note_on_c, 0, 73, 66
1, 165600, Note_on_c, 0, 46, 45
1, 165619, Control_c, 0, 64, 0
1, 165840, Control_c, 0, 64, 127
1, 166080, Note_on_c, 0, 46, 0
1, 166080, Note_on_c, 0, 73, 0
1, 166080, Note_on_c, 0, 70, 63
1, 166080, Note_on_c, 0, 61, 34
1, 166080, Note_on_c, 0, 65, 33
1, 166080, Note_on_c, 0, 58, 22
1, 166080, Note_on_c, 0, 53, 22
1, 166320, Tempo, 520698
1, 166560, Tempo, 524843
1, 166560, Note_on_c, 0, 53, 0
1, 166560, Note_on_c, 0, 65, 0
1, 166560, Note_on_c, 0, 70, 0
1, 166560, Note_on_c, 0, 61, 0
1, 166560, Note_on_c, 0, 58, 0
1, 166560, Note_on_c, 0, 78, 63
1, 166560, Note_on_c, 0, 70, 28
1, 166560, Note_on_c, 0, 66, 24
1, 166560, Note_on_c, 0, 53, 13
1, 166560, Note_on_c, 0, 58, 13
1, 166560, Note_on_c, 0, 61, 24
1, 167040, Note_on_c, 0, 61, 0
1, 167040, Note_on_c, 0, 70, 0
1, 167040, Note_on_c, 0, 66, 0
1, 167040, Note_on_c, 0, 78, 0
1, 167040, Note_on_c, 0, 58, 0
1, 167040, Note_on_c, 0, 53, 0
1, 167040, Note_on_c, 0, 77, 65
1, 167040, Note_on_c, 0, 37, 45
1, 167051, Control_c, 0, 64, 0
1, 167307, Control_c, 0, 64, 127
1, 167520, Tempo, 520698
1, 167520, Note_on_c, 0, 37, 0
1, 167520, Note_on_c, 0, 77, 0
1, 167520, Note_on_c, 0, 75, 63
1, 167520, Note_on_c, 0, 65, 24
1, 167520, Note_on_c, 0, 71, 28
1, 167520, Note_on_c, 0, 61, 24
1, 167520, Note_on_c, 0, 68, 27
1, 167520, Note_on_c, 0, 56, 24
1, 167520, Note_on_c, 0, 59, 24
1, 168000, Tempo, 515553
1, 168000, Note_on_c, 0, 59, 0
1, 168000, Note_on_c, 0, 68, 0
1, 168000, Note_on_c, 0, 65, 0
1, 168000, Note_on_c, 0, 71, 0
1, 168000, Note_on_c, 0, 75, 0
1, 168000, Note_on_c, 0, 56, 0
1, 168000, Note_on_c, 0, 61, 0
1, 168000, Note_on_c, 0, 73, 63
1, 168000, Note_on_c, 0, 65, 24
1, 168000, Note_on_c, 0, 71, 28
1, 168000, Note_on_c, 0, 61, 22
1, 168000, Note_on_c, 0, 56, 22
1, 168000, Note_on_c, 0, 59, 22
1, 168000, Note_on_c, 0, 68, 26
1, 168478, Note_on_c, 0, 71, 0
1, 168480, Note_on_c, 0, 59, 0
1, 168480, Note_on_c, 0, 65, 0
1, 168480, Note_on_c, 0, 61, 0
1, 168480, Note_on_c, 0, 73, 0
1, 168480, Note_on_c, 0, 68, 0
1, 168480, Note_on_c, 0, 56, 0
1, 168480, Note_on_c, 0, 71, 62
1, 168480, Note_on_c, 0, 65, 35
1, 168480, Note_on_c, 0, 56, 22
1, 168480, Note_on_c, 0, 59, 22
1, 168480, Note_on_c, 0, 61, 22
1, 168480, Note_on_c, 0, 68, 26
1, 168960, Note_on_c, 0, 68, 0
1, 168960, Note_on_c, 0, 65, 0
1, 168960, Note_on_c, 0, 56, 0
1, 168960, Note_on_c, 0, 59, 0
1, 168960, Note_on_c, 0, 61, 0
1, 168960, Note_on_c, 0, 65, 39
1, 168960, Note_on_c, 0, 56, 23
1, 168960, Note_on_c, 0, 59, 23
1, 168960, Note_on_c, 0, 61, 27
1, 169440, Note_on_c, 0, 61, 0
1, 169440, Note_on_c, 0, 56, 0
1, 169440, Note_on_c, 0, 59, 0
1, 169440, Note_on_c, 0, 65, 0
1, 169440, Note_on_c, 0, 65, 39
1, 169440, Note_on_c, 0, 56, 23
1, 169440, Note_on_c, 0, 59, 27
1, 169440, Note_on_c, 0, 61, 27
1, 169920, Note_on_c, 0, 61, 0
1, 169920, Note_on_c, 0, 56, 0
1, 169920, Note_on_c, 0, 59, 0
1, 169920, Note_on_c, 0, 65, 0
1, 169920, Note_on_c, 0, 65, 37
1, 169920, Note_on_c, 0, 56, 23
1, 169920, Note_on_c, 0, 59, 23
1, 169920, Note_on_c, 0, 61, 27
1, 170400, Note_on_c, 0, 61, 0
1, 170400, Note_on_c, 0, 56, 0
1, 170400, Note_on_c, 0, 59, 0
1, 170400, Note_on_c, 0, 65, 0
1, 170400, Note_on_c, 0, 63, 36
1, 170400, Note_on_c, 0, 54, 23
1, 170400, Note_on_c, 0, 59, 23
1, 170400, Note_on_c, 0, 61, 27
1, 170880, Note_on_c, 0, 61, 0
1, 170880, Note_on_c, 0, 54, 0
1, 170880, Note_on_c, 0, 59, 0
1, 170880, Note_on_c, 0, 63, 0
1, 170880, Note_on_c, 0, 65, 36
1, 170880, Note_on_c, 0, 56, 23
1, 170880, Note_on_c, 0, 59, 23
1, 170880, Note_on_c, 0, 61, 27
1, 171360, Tempo, 512339
1, 171360, Note_on_c, 0, 61, 0
1, 171360, Note_on_c, 0, 56, 0
1, 171360, Note_on_c, 0, 59, 0
1, 171360, Note_on_c, 0, 65, 0
1, 171360, Note_on_c, 0, 65, 35
1, 171360, Note_on_c, 0, 56, 23
1, 171360, Note_on_c, 0, 59, 23
1, 171360, Note_on_c, 0, 61, 27
1, 171680, Tempo, 514403
1, 171840, Note_on_c, 0, 61, 0
1, 171840, Note_on_c, 0, 56, 0
1, 171840, Note_on_c, 0, 59, 0
1, 171840, Note_on_c, 0, 65, 0
1, 171840, Note_on_c, 0, 63, 35
1, 171840, Note_on_c, 0, 54, 22
1, 171840, Note_on_c, 0, 59, 22
1, 171840, Note_on_c, 0, 61, 26
1, 171960, Tempo, 516529
1, 172240, Tempo, 518717
1, 172320, Note_on_c, 0, 61, 0
1, 172320, Note_on_c, 0, 54, 0
1, 172320, Note_on_c, 0, 59, 0
1, 172320, Note_on_c, 0, 63, 0
1, 172320, Note_on_c, 0, 65, 32
1, 172320, Note_on_c, 0, 56, 22
1, 172320, Note_on_c, 0, 59, 22
1, 172320, Note_on_c, 0, 61, 26
1, 172520, Tempo, 520833
1, 172800, Note_on_c, 0, 61, 0
1, 172800, Note_on_c, 0, 56, 0
1, 172800, Note_on_c, 0, 59, 0
1, 172800, Note_on_c, 0, 65, 0
1, 172800, Note_on_c, 0, 65, 32
1, 172800, Note_on_c, 0, 56, 20
1, 172800, Note_on_c, 0, 59, 20
1, 172800, Note_on_c, 0, 61, 24
1, 172840, Tempo, 523013
1, 173120, Tempo, 525210
1, 173280, Note_on_c, 0, 61, 0
1, 173280, Note_on_c, 0, 56, 0
1, 173280, Note_on_c, 0, 59, 0
1, 173280, Note_on_c, 0, 65, 0
1, 173280, Note_on_c, 0, 63, 31
1, 173280, Note_on_c, 0, 54, 18
1, 173280, Note_on_c, 0, 59, 18
1, 173280, Note_on_c, 0, 61, 23
1, 173400, Tempo, 527426
1, 173680, Tempo, 529614
1, 173760, Tempo, 534140
1, 173760, Note_on_c, 0, 61, 0
1, 173760, Note_on_c, 0, 54, 0
1, 173760, Note_on_c, 0, 59, 0
1, 173760, Note_on_c, 0, 63, 0
1, 173760, Note_on_c, 0, 65, 31
1, 173760, Note_on_c, 0, 56, 18
1, 173760, Note_on_c, 0, 59, 18
1, 173760, Note_on_c, 0, 61, 23
1, 174240, Tempo, 531303
1, 174240, Note_on_c, 0, 61, 0
1, 174240, Note_on_c, 0, 56, 0
1, 174240, Note_on_c, 0, 71, 0
1, 174240, Note_on_c, 0, 65, 0
1, 174240, Note_on_c, 0, 59, 0
1, 174240, Note_on_c, 0, 70, 54
1, 174240, Control_c, 0, 64, 0
1, 174240, Note_on_c, 0, 42, 37
1, 174507, Control_c, 0, 64, 127
1, 174720, Tempo, 504414
1, 174720, Note_on_c, 0, 42, 0
1, 174720, Note_on_c, 0, 70, 0
1, 174720, Note_on_c, 0, 65, 49
1, 174720, Note_on_c, 0, 58, 25
1, 174720, Note_on_c, 0, 63, 25
1, 174720, Note_on_c, 0, 54, 21
1, 174720, Note_on_c, 0, 49, 21
1, 175200, Tempo, 517152
1, 175200, Note_on_c, 0, 49, 0
1, 175200, Note_on_c, 0, 63, 0
1, 175200, Note_on_c, 0, 65, 0
1, 175200, Note_on_c, 0, 58, 0
1, 175200, Note_on_c, 0, 54, 0
1, 175200, Note_on_c, 0, 66, 52
1, 175200, Note_on_c, 0, 58, 22
1, 175200, Note_on_c, 0, 49, 18
1, 175200, Note_on_c, 0, 54, 18
1, 175200, Note_on_c, 0, 61, 23
1, 175680, Tempo, 510421
1, 175680, Note_on_c, 0, 61, 0
1, 175680, Note_on_c, 0, 49, 0
1, 175680, Note_on_c, 0, 66, 0
1, 175680, Note_on_c, 0, 58, 0
1, 175680, Note_on_c, 0, 54, 0
1, 175680, Note_on_c, 0, 75, 57
1, 175680, Note_on_c, 0, 42, 34
1, 175693, Control_c, 0, 64, 0
1, 176000, Control_c, 0, 64, 127
1, 176160, Tempo, 507485
1, 176160, Note_on_c, 0, 42, 0
1, 176160, Note_on_c, 0, 58, 20
1, 176160, Note_on_c, 0, 66, 25
1, 176160, Note_on_c, 0, 63, 23
1, 176160, Note_on_c, 0, 49, 18
1, 176160, Note_on_c, 0, 54, 18
1, 176640, Tempo, 512295
1, 176640, Note_on_c, 0, 54, 0
1, 176640, Note_on_c, 0, 58, 0
1, 176640, Note_on_c, 0, 66, 0
1, 176640, Note_on_c, 0, 75, 0
1, 176640, Note_on_c, 0, 49, 0
1, 176640, Note_on_c, 0, 63, 0
1, 176640, Note_on_c, 0, 73, 52
1, 176640, Note_on_c, 0, 58, 20
1, 176640, Note_on_c, 0, 66, 25
1, 176640, Note_on_c, 0, 49, 15
1, 176640, Note_on_c, 0, 54, 15
1, 176640, Note_on_c, 0, 61, 18
1, 177120, Tempo, 509122
1, 177120, Note_on_c, 0, 61, 0
1, 177120, Note_on_c, 0, 58, 0
1, 177120, Note_on_c, 0, 66, 0
1, 177120, Note_on_c, 0, 73, 0
1, 177120, Note_on_c, 0, 54, 0
1, 177120, Note_on_c, 0, 49, 0
1, 177120, Note_on_c, 0, 73, 52
1, 177120, Note_on_c, 0, 37, 33
1, 177133, Control_c, 0, 64, 0
1, 177387, Control_c, 0, 64, 127
1, 177600, Tempo, 512601
1, 177600, Note_on_c, 0, 37, 0
1, 177600, Note_on_c, 0, 73, 0
1, 177600, Note_on_c, 0, 66, 45
1, 177600, Note_on_c, 0, 59, 23
1, 177600, Note_on_c, 0, 63, 27
1, 177600, Note_on_c, 0, 54, 23
1, 177600, Note_on_c, 0, 49, 23
1, 178080, Tempo, 528867
1, 178080, Note_on_c, 0, 49, 0
1, 178080, Note_on_c, 0, 63, 0
1, 178080, Note_on_c, 0, 66, 0
1, 178080, Note_on_c, 0, 59, 0
1, 178080, Note_on_c, 0, 54, 0
1, 178080, Note_on_c, 0, 68, 46
1, 178080, Note_on_c, 0, 65, 27
1, 178080, Note_on_c, 0, 59, 22
1, 178080, Note_on_c, 0, 49, 18
1, 178080, Note_on_c, 0, 54, 18
1, 178080, Note_on_c, 0, 61, 23
1, 178560, Note_on_c, 0, 61, 0
1, 178560, Note_on_c, 0, 65, 0
1, 178560, Note_on_c, 0, 59, 0
1, 178560, Note_on_c, 0, 68, 0
1, 178560, Note_on_c, 0, 54, 0
1, 178560, Note_on_c, 0, 49, 0
1, 178560, Note_on_c, 0, 70, 52
1, 178560, Note_on_c, 0, 42, 34
1, 178574, Control_c, 0, 64, 0
1, 178800, Control_c, 0, 64, 127
1, 179040, Tempo, 509122
1, 179040, Note_on_c, 0, 42, 0
1, 179040, Note_on_c, 0, 58, 24
1, 179040, Note_on_c, 0, 66, 28
1, 179040, Note_on_c, 0, 63, 24
1, 179040, Note_on_c, 0, 49, 20
1, 179040, Note_on_c, 0, 54, 20
1, 179520, Tempo, 515553
1, 179520, Note_on_c, 0, 54, 0
1, 179520, Note_on_c, 0, 58, 0
1, 179520, Note_on_c, 0, 66, 0
1, 179520, Note_on_c, 0, 63, 0
1, 179520, Note_on_c, 0, 49, 0
1, 179520, Note_on_c, 0, 58, 23
1, 179520, Note_on_c, 0, 66, 27
1, 179520, Note_on_c, 0, 49, 17
1, 179520, Note_on_c, 0, 54, 17
1, 179520, Note_on_c, 0, 61, 22
1, 180000, Note_on_c, 0, 61, 0
1, 180000, Note_on_c, 0, 58, 0
1, 180000, Note_on_c, 0, 66, 0
1, 180000, Note_on_c, 0, 49, 0
1, 180000, Note_on_c, 0, 54, 0
1, 180000, Note_on_c, 0, 58, 23
1, 180000, Note_on_c, 0, 66, 28
1, 180000, Note_on_c, 0, 49, 12
1, 180000, Note_on_c, 0, 54, 12
1, 180000, Note_on_c, 0, 61, 21
1, 180480, Tempo, 507485
1, 180480, Note_on_c, 0, 61, 0
1, 180480, Note_on_c, 0, 58, 0
1, 180480, Note_on_c, 0, 66, 0
1, 180480, Note_on_c, 0, 49, 0
1, 180480, Note_on_c, 0, 54, 0
1, 180480, Note_on_c, 0, 61, 20
1, 180480, Note_on_c, 0, 66, 24
1, 180480, Note_on_c, 0, 49, 18
1, 180480, Note_on_c, 0, 54, 18
1, 180480, Note_on_c, 0, 59, 23
1, 180960, Tempo, 513919
1, 180960, Note_on_c, 0, 59, 0
1, 180960, Note_on_c, 0, 61, 0
1, 180960, Note_on_c, 0, 66, 0
1, 180960, Note_on_c, 0, 49, 0
1, 180960, Note_on_c, 0, 54, 0
1, 180960, Note_on_c, 0, 61, 20
1, 180960, Note_on_c, 0, 66, 24
1, 180960, Note_on_c, 0, 49, 13
1, 180960, Note_on_c, 0, 54, 15
1, 180960, Note_on_c, 0, 58, 22
1, 181440, Tempo, 507485
1, 181440, Note_on_c, 0, 58, 0
1, 181440, Note_on_c, 0, 61, 0
1, 181440, Note_on_c, 0, 66, 0
1, 181440, Note_on_c, 0, 49, 0
1, 181440, Note_on_c, 0, 54, 0
1, 181440, Note_on_c, 0, 61, 20
1, 181440, Note_on_c, 0, 66, 24
1, 181440, Note_on_c, 0, 49, 20
1, 181440, Note_on_c, 0, 54, 20
1, 181440, Note_on_c, 0, 58, 24
1, 181920, Note_on_c, 0, 58, 0
1, 181920, Note_on_c, 0, 61, 0
1, 181920, Note_on_c, 0, 66, 0
1, 181920, Note_on_c, 0, 70, 0
1, 181920, Note_on_c, 0, 54, 0
1, 181920, Note_on_c, 0, 49, 0
1, 181920, Note_on_c, 0, 56, 20
1, 181920, Note_on_c, 0, 61, 24
1, 181920, Note_on_c, 0, 47, 20
1, 181920, Note_on_c, 0, 49, 24
1, 182400, Tempo, 513919
1, 182400, Note_on_c, 0, 49, 0
1, 182400, Note_on_c, 0, 56, 0
1, 182400, Note_on_c, 0, 61, 0
1, 182400, Note_on_c, 0, 47, 0
1, 182400, Note_on_c, 0, 54, 18
1, 182400, Note_on_c, 0, 61, 24
1, 182400, Note_on_c, 0, 46, 18
1, 182400, Note_on_c, 0, 49, 24
1, 182880, Tempo, 518762
1, 182880, Note_on_c, 0, 49, 0
1, 182880, Note_on_c, 0, 54, 0
1, 182880, Note_on_c, 0, 61, 0
1, 182880, Note_on_c, 0, 46, 0
1, 182880, Note_on_c, 0, 54, 18
1, 182880, Note_on_c, 0, 61, 24
1, 182880, Note_on_c, 0, 46, 18
1, 182880, Note_on_c, 0, 49, 24
1, 183360, Tempo, 512295
1, 183360, Note_on_c, 0, 49, 0
1, 183360, Note_on_c, 0, 54, 0
1, 183360, Note_on_c, 0, 61, 0
1, 183360, Note_on_c, 0, 46, 0
1, 183360, Note_on_c, 0, 56, 17
1, 183360, Note_on_c, 0, 61, 22
1, 183360, Note_on_c, 0, 47, 18
1, 183360, Note_on_c, 0, 49, 23
1, 183840, Note_on_c, 0, 49, 0
1, 183840, Note_on_c, 0, 56, 0
1, 183840, Note_on_c, 0, 61, 0
1, 183840, Note_on_c, 0, 47, 0
1, 183840, Note_on_c, 0, 54, 17
1, 183840, Note_on_c, 0, 61, 22
1, 183840, Note_on_c, 0, 46, 18
1, 183840, Note_on_c, 0, 49, 23
1, 184320, Note_on_c, 0, 49, 0
1, 184320, Note_on_c, 0, 54, 0
1, 184320, Note_on_c, 0, 61, 0
1, 184320, Note_on_c, 0, 46, 0
1, 184320, Note_on_c, 0, 54, 14
1, 184320, Note_on_c, 0, 61, 22
1, 184320, Note_on_c, 0, 46, 17
1, 184320, Note_on_c, 0, 49, 23
1, 184800, Tempo, 518762
1, 184800, Note_on_c, 0, 49, 0
1, 184800, Note_on_c, 0, 54, 0
1, 184800, Note_on_c, 0, 61, 0
1, 184800, Note_on_c, 0, 46, 0
1, 184800, Note_on_c, 0, 56, 13
1, 184800, Note_on_c, 0, 61, 22
1, 184800, Note_on_c, 0, 44, 17
1, 184800, Note_on_c, 0, 49, 22
1, 185280, Tempo, 528774
1, 185280, Note_on_c, 0, 49, 0
1, 185280, Note_on_c, 0, 56, 0
1, 185280, Note_on_c, 0, 61, 0
1, 185280, Note_on_c, 0, 44, 0
1, 185280, Note_on_c, 0, 58, 13
1, 185280, Note_on_c, 0, 61, 20
1, 185280, Note_on_c, 0, 42, 17
1, 185280, Note_on_c, 0, 49, 22
1, 185760, Tempo, 515553
1, 185760, Note_on_c, 0, 49, 0
1, 185760, Note_on_c, 0, 58, 0
1, 185760, Note_on_c, 0, 61, 0
1, 185760, Note_on_c, 0, 42, 0
1, 185760, Note_on_c, 0, 71, 53
1, 185760, Note_on_c, 0, 44, 31
1, 185771, Control_c, 0, 64, 0
1, 186035, Control_c, 0, 64, 127
1, 186240, Tempo, 504414
1, 186240, Note_on_c, 0, 44, 0
1, 186240, Note_on_c, 0, 71, 0
1, 186240, Note_on_c, 0, 67, 49
1, 186240, Note_on_c, 0, 59, 26
1, 186240, Note_on_c, 0, 64, 26
1, 186240, Note_on_c, 0, 56, 22
1, 186240, Note_on_c, 0, 51, 22
1, 186720, Tempo, 517152
1, 186720, Note_on_c, 0, 51, 0
1, 186720, Note_on_c, 0, 64, 0
1, 186720, Note_on_c, 0, 67, 0
1, 186720, Note_on_c, 0, 59, 0
1, 186720, Note_on_c, 0, 56, 0
1, 186720, Note_on_c, 0, 68, 54
1, 186720, Note_on_c, 0, 59, 26
1, 186720, Note_on_c, 0, 51, 17
1, 186720, Note_on_c, 0, 56, 17
1, 186720, Note_on_c, 0, 63, 22
1, 187170, Tempo, 508173
1, 187200, Note_on_c, 0, 63, 0
1, 187200, Note_on_c, 0, 51, 0
1, 187200, Note_on_c, 0, 68, 0
1, 187200, Note_on_c, 0, 59, 0
1, 187200, Note_on_c, 0, 56, 0
1, 187200, Note_on_c, 0, 76, 58
1, 187200, Note_on_c, 0, 44, 38
1, 187217, Control_c, 0, 64, 0
1, 187467, Control_c, 0, 64, 127
1, 187680, Tempo, 507485
1, 187680, Note_on_c, 0, 44, 0
1, 187680, Note_on_c, 0, 59, 22
1, 187680, Note_on_c, 0, 68, 27
1, 187680, Note_on_c, 0, 64, 24
1, 187680, Note_on_c, 0, 51, 18
1, 187680, Note_on_c, 0, 56, 18
1, 188160, Tempo, 512295
1, 188160, Note_on_c, 0, 56, 0
1, 188160, Note_on_c, 0, 59, 0
1, 188160, Note_on_c, 0, 68, 0
1, 188160, Note_on_c, 0, 76, 0
1, 188160, Note_on_c, 0, 51, 0
1, 188160, Note_on_c, 0, 64, 0
1, 188160, Note_on_c, 0, 75, 54
1, 188160, Note_on_c, 0, 59, 21
1, 188160, Note_on_c, 0, 68, 25
1, 188160, Note_on_c, 0, 51, 17
1, 188160, Note_on_c, 0, 56, 17
1, 188160, Note_on_c, 0, 63, 21
1, 188640, Tempo, 509122
1, 188640, Note_on_c, 0, 63, 0
1, 188640, Note_on_c, 0, 59, 0
1, 188640, Note_on_c, 0, 68, 0
1, 188640, Note_on_c, 0, 75, 0
1, 188640, Note_on_c, 0, 56, 0
1, 188640, Note_on_c, 0, 51, 0
1, 188640, Note_on_c, 0, 75, 54
1, 188640, Note_on_c, 0, 39, 33
1, 188659, Control_c, 0, 64, 0
1, 188915, Control_c, 0, 64, 127
1, 189120, Note_on_c, 0, 39, 0
1, 189120, Note_on_c, 0, 75, 0
1, 189120, Note_on_c, 0, 68, 49
1, 189120, Note_on_c, 0, 61, 28
1, 189120, Note_on_c, 0, 64, 22
1, 189120, Note_on_c, 0, 58, 17
1, 189120, Note_on_c, 0, 51, 17
1, 189600, Tempo, 515553
1, 189600, Note_on_c, 0, 51, 0
1, 189600, Note_on_c, 0, 64, 0
1, 189600, Note_on_c, 0, 68, 0
1, 189600, Note_on_c, 0, 61, 0
1, 189600, Note_on_c, 0, 58, 0
1, 189600, Note_on_c, 0, 70, 51
1, 189600, Note_on_c, 0, 67, 27
1, 189600, Note_on_c, 0, 61, 22
1, 189600, Note_on_c, 0, 51, 14
1, 189600, Note_on_c, 0, 58, 14
1, 189600, Note_on_c, 0, 63, 17
1, 190080, Note_on_c, 0, 63, 0
1, 190080, Note_on_c, 0, 67, 0
1, 190080, Note_on_c, 0, 61, 0
1, 190080, Note_on_c, 0, 70, 0
1, 190080, Note_on_c, 0, 58, 0
1, 190080, Note_on_c, 0, 51, 0
1, 190080, Note_on_c, 0, 73, 53
1, 190080, Note_on_c, 0, 44, 34
1, 190091, Control_c, 0, 64, 0
1, 190347, Control_c, 0, 64, 127
1, 190560, Tempo, 509122
1, 190560, Note_on_c, 0, 44, 0
1, 190560, Note_on_c, 0, 73, 0
1, 190560, Note_on_c, 0, 71, 51
1, 190560, Note_on_c, 0, 59, 22
1, 190560, Note_on_c, 0, 68, 26
1, 190560, Note_on_c, 0, 64, 25
1, 190560, Note_on_c, 0, 51, 21
1, 190560, Note_on_c, 0, 56, 21
1, 191040, Tempo, 515553
1, 191040, Note_on_c, 0, 56, 0
1, 191040, Note_on_c, 0, 59, 0
1, 191040, Note_on_c, 0, 68, 0
1, 191040, Note_on_c, 0, 64, 0
1, 191040, Note_on_c, 0, 51, 0
1, 191040, Note_on_c, 0, 59, 22
1, 191040, Note_on_c, 0, 68, 26
1, 191040, Note_on_c, 0, 51, 18
1, 191040, Note_on_c, 0, 56, 18
1, 191040, Note_on_c, 0, 63, 23
1, 191520, Note_on_c, 0, 63, 0
1, 191520, Note_on_c, 0, 59, 0
1, 191520, Note_on_c, 0, 68, 0
1, 191520, Note_on_c, 0, 51, 0
1, 191520, Note_on_c, 0, 56, 0
1, 191520, Note_on_c, 0, 59, 20
1, 191520, Note_on_c, 0, 68, 28
1, 191520, Note_on_c, 0, 51, 16
1, 191520, Note_on_c, 0, 56, 16
1, 191520, Note_on_c, 0, 63, 25
1, 191994, Note_on_c, 0, 63, 0
1, 192000, Tempo, 507485
1, 192000, Note_on_c, 0, 59, 0
1, 192000, Note_on_c, 0, 68, 0
1, 192000, Note_on_c, 0, 51, 0
1, 192000, Note_on_c, 0, 56, 0
1, 192000, Note_on_c, 0, 63, 24
1, 192000, Note_on_c, 0, 68, 29
1, 192000, Note_on_c, 0, 51, 20
1, 192000, Note_on_c, 0, 56, 20
1, 192000, Note_on_c, 0, 61, 24
1, 192480, Tempo, 513919
1, 192480, Note_on_c, 0, 61, 0
1, 192480, Note_on_c, 0, 63, 0
1, 192480, Note_on_c, 0, 68, 0
1, 192480, Note_on_c, 0, 51, 0
1, 192480, Note_on_c, 0, 56, 0
1, 192480, Note_on_c, 0, 63, 24
1, 192480, Note_on_c, 0, 68, 27
1, 192480, Note_on_c, 0, 51, 20
1, 192480, Note_on_c, 0, 56, 20
1, 192480, Note_on_c, 0, 59, 24
1, 192960, Tempo, 507485
1, 192960, Note_on_c, 0, 59, 0
1, 192960, Note_on_c, 0, 63, 0
1, 192960, Note_on_c, 0, 68, 0
1, 192960, Note_on_c, 0, 51, 0
1, 192960, Note_on_c, 0, 56, 0
1, 192960, Note_on_c, 0, 63, 22
1, 192960, Note_on_c, 0, 68, 27
1, 192960, Note_on_c, 0, 51, 21
1, 192960, Note_on_c, 0, 56, 21
1, 192960, Note_on_c, 0, 59, 25
1, 193440, Note_on_c, 0, 59, 0
1, 193440, Note_on_c, 0, 63, 0
1, 193440, Note_on_c, 0, 68, 0
1, 193440, Note_on_c, 0, 71, 0
1, 193440, Note_on_c, 0, 56, 0
1, 193440, Note_on_c, 0, 51, 0
1, 193440, Note_on_c, 0, 58, 21
1, 193440, Note_on_c, 0, 63, 26
1, 193440, Note_on_c, 0, 49, 20
1, 193440, Note_on_c, 0, 51, 24
1, 193920, Tempo, 513919
1, 193920, Note_on_c, 0, 51, 0
1, 193920, Note_on_c, 0, 58, 0
1, 193920, Note_on_c, 0, 63, 0
1, 193920, Note_on_c, 0, 49, 0
1, 193920, Note_on_c, 0, 56, 20
1, 193920, Note_on_c, 0, 63, 25
1, 193920, Note_on_c, 0, 47, 20
1, 193920, Note_on_c, 0, 51, 24
1, 194400, Tempo, 518762
1, 194400, Note_on_c, 0, 51, 0
1, 194400, Note_on_c, 0, 56, 0
1, 194400, Note_on_c, 0, 63, 0
1, 194400, Note_on_c, 0, 47, 0
1, 194400, Note_on_c, 0, 56, 20
1, 194400, Note_on_c, 0, 63, 25
1, 194400, Note_on_c, 0, 47, 20
1, 194400, Note_on_c, 0, 51, 24
1, 194880, Tempo, 512295
1, 194880, Note_on_c, 0, 51, 0
1, 194880, Note_on_c, 0, 56, 0
1, 194880, Note_on_c, 0, 63, 0
1, 194880, Note_on_c, 0, 47, 0
1, 194880, Note_on_c, 0, 58, 18
1, 194880, Note_on_c, 0, 63, 24
1, 194880, Note_on_c, 0, 49, 20
1, 194880, Note_on_c, 0, 51, 21
1, 195360, Note_on_c, 0, 51, 0
1, 195360, Note_on_c, 0, 58, 0
1, 195360, Note_on_c, 0, 63, 0
1, 195360, Note_on_c, 0, 49, 0
1, 195360, Note_on_c, 0, 56, 18
1, 195360, Note_on_c, 0, 63, 24
1, 195360, Note_on_c, 0, 47, 18
1, 195360, Note_on_c, 0, 51, 23
1, 195840, Note_on_c, 0, 51, 0
1, 195840, Note_on_c, 0, 56, 0
1, 195840, Note_on_c, 0, 63, 0
1, 195840, Note_on_c, 0, 47, 0
1, 195840, Note_on_c, 0, 56, 18
1, 195840, Note_on_c, 0, 63, 24
1, 195840, Note_on_c, 0, 47, 18
1, 195840, Note_on_c, 0, 51, 23
1, 195852, Control_c, 0, 64, 0
1, 196320, Note_on_c, 0, 51, 0
1, 196320, Note_on_c, 0, 56, 0
1, 196320, Note_on_c, 0, 63, 0
1, 196320, Note_on_c, 0, 47, 0
1, 196320, Note_on_c, 0, 58, 18
1, 196320, Note_on_c, 0, 63, 23
1, 196320, Note_on_c, 0, 46, 17
1, 196320, Note_on_c, 0, 51, 22
1, 196800, Note_on_c, 0, 51, 0
1, 196800, Note_on_c, 0, 58, 0
1, 196800, Note_on_c, 0, 63, 0
1, 196800, Note_on_c, 0, 46, 0
1, 196800, Note_on_c, 0, 59, 18
1, 196800, Note_on_c, 0, 54, 18
1, 196800, Note_on_c, 0, 63, 23
1, 196800, Note_on_c, 0, 44, 16
1, 196800, Note_on_c, 0, 51, 20
1, 197280, Note_on_c, 0, 51, 0
1, 197280, Note_on_c, 0, 63, 0
1, 197280, Note_on_c, 0, 59, 0
1, 197280, Note_on_c, 0, 54, 0
1, 197280, Note_on_c, 0, 44, 0
1, 197280, Note_on_c, 0, 53, 24
1, 197280, Note_on_c, 0, 59, 24
1, 197280, Note_on_c, 0, 61, 28
1, 197280, Note_on_c, 0, 37, 20
1, 197292, Control_c, 0, 64, 0
1, 197320, Control_c, 0, 64, 127
1, 197760, Note_on_c, 0, 37, 0
1, 197760, Note_on_c, 0, 53, 0
1, 197760, Note_on_c, 0, 59, 0
1, 197760, Note_on_c, 0, 61, 0
1, 197760, Note_on_c, 0, 68, 39
1, 197760, Note_on_c, 0, 59, 22
1, 197760, Note_on_c, 0, 65, 27
1, 198240, Note_on_c, 0, 65, 0
1, 198240, Note_on_c, 0, 59, 0
1, 198240, Note_on_c, 0, 68, 0
1, 198240, Note_on_c, 0, 70, 39
1, 198240, Note_on_c, 0, 59, 22
1, 198240, Note_on_c, 0, 65, 27
1, 198240, Note_on_c, 0, 49, 27
1, 198263, Control_c, 0, 64, 0
1, 198480, Tempo, 531821
1, 198600, Note_on_c, 0, 49, 0
1, 198600, Note_on_c, 0, 50, 26
1, 198660, Note_on_c, 0, 50, 0
1, 198660, Note_on_c, 0, 51, 26
1, 198720, Tempo, 555401
1, 198720, Note_on_c, 0, 51, 0
1, 198720, Note_on_c, 0, 70, 0
1, 198720, Note_on_c, 0, 59, 0
1, 198720, Note_on_c, 0, 65, 0
1, 198720, Note_on_c, 0, 66, 46
1, 198720, Note_on_c, 0, 54, 25
1, 198720, Note_on_c, 0, 59, 30
1, 198720, Note_on_c, 0, 53, 25
1, 198760, Tempo, 552944
1, 198770, Control_c, 0, 64, 127
1, 198780, Tempo, 550560
1, 198800, Note_on_c, 0, 53, 0
1, 198800, Note_on_c, 0, 51, 21
1, 198820, Tempo, 548095
1, 198840, Tempo, 545752
1, 198880, Tempo, 543429
1, 198880, Note_on_c, 0, 51, 0
1, 198880, Note_on_c, 0, 53, 24
1, 198900, Tempo, 541077
1, 198920, Tempo, 538793
1, 198960, Tempo, 536433
1, 198960, Note_on_c, 0, 53, 0
1, 198960, Note_on_c, 0, 51, 22
1, 198980, Tempo, 534140
1, 199020, Tempo, 531821
1, 199040, Tempo, 529614
1, 199040, Note_on_c, 0, 51, 0
1, 199040, Note_on_c, 0, 53, 24
1, 199060, Tempo, 527426
1, 199100, Tempo, 525210
1, 199120, Tempo, 523013
1, 199120, Note_on_c, 0, 53, 0
1, 199120, Note_on_c, 0, 51, 21
1, 199160, Tempo, 520833
1, 199180, Tempo, 518717
1, 199200, Tempo, 516529
1, 199200, Note_on_c, 0, 51, 0
1, 199200, Note_on_c, 0, 59, 0
1, 199200, Note_on_c, 0, 54, 0
1, 199200, Note_on_c, 0, 54, 21
1, 199200, Note_on_c, 0, 59, 25
1, 199200, Note_on_c, 0, 53, 24
1, 199280, Tempo, 514403
1, 199280, Note_on_c, 0, 53, 0
1, 199280, Note_on_c, 0, 51, 21
1, 199360, Note_on_c, 0, 51, 0
1, 199360, Note_on_c, 0, 53, 24
1, 199420, Tempo, 512339
1, 199440, Note_on_c, 0, 53, 0
1, 199440, Note_on_c, 0, 51, 21
1, 199520, Note_on_c, 0, 51, 0
1, 199520, Note_on_c, 0, 53, 24
1, 199560, Tempo, 510291
1, 199600, Note_on_c, 0, 53, 0
1, 199600, Note_on_c, 0, 51, 21
1, 199680, Tempo, 508173
1, 199680, Note_on_c, 0, 51, 0
1, 199680, Note_on_c, 0, 59, 0
1, 199680, Note_on_c, 0, 54, 0
1, 199680, Note_on_c, 0, 66, 0
1, 199680, Note_on_c, 0, 63, 39
1, 199680, Note_on_c, 0, 54, 22
1, 199680, Note_on_c, 0, 59, 26
1, 199680, Note_on_c, 0, 53, 24
1, 199700, Tempo, 510291
1, 199720, Tempo, 512339
1, 199740, Tempo, 514403
1, 199760, Tempo, 516529
1, 199780, Tempo, 518717
1, 199800, Tempo, 520833
1, 199800, Note_on_c, 0, 53, 0
1, 199800, Note_on_c, 0, 51, 21
1, 199820, Tempo, 523013
1, 199840, Tempo, 525210
1, 199860, Tempo, 527426
1, 199880, Tempo, 529614
1, 199900, Tempo, 531821
1, 199920, Tempo, 534140
1, 199920, Note_on_c, 0, 51, 0
1, 199920, Note_on_c, 0, 53, 24
1, 199940, Tempo, 536433
1, 199960, Tempo, 538793
1, 199980, Tempo, 541077
1, 199980, Note_on_c, 0, 53, 0
1, 199980, Note_on_c, 0, 51, 20
1, 200000, Tempo, 543429
1, 200020, Tempo, 545752
1, 200040, Tempo, 536433
1, 200040, Note_on_c, 0, 51, 0
1, 200040, Note_on_c, 0, 49, 24
1, 200080, Tempo, 570559
1, 200100, Note_on_c, 0, 49, 0
1, 200100, Note_on_c, 0, 51, 18
1, 200120, Tempo, 508173
1, 200160, Tempo, 512339
1, 200160, Note_on_c, 0, 51, 0
1, 200160, Note_on_c, 0, 59, 0
1, 200160, Note_on_c, 0, 54, 0
1, 200160, Note_on_c, 0, 63, 0
1, 200160, Note_on_c, 0, 56, 27
1, 200160, Note_on_c, 0, 59, 27
1, 200160, Note_on_c, 0, 61, 36
1, 200160, Control_c, 0, 64, 0
1, 200160, Control_c, 0, 64, 0
1, 200160, Note_on_c, 0, 53, 32
1, 200231, Control_c, 0, 64, 127
1, 200640, Note_on_c, 0, 53, 0
1, 200640, Note_on_c, 0, 56, 0
1, 200640, Note_on_c, 0, 59, 0
1, 200640, Note_on_c, 0, 61, 0
1, 200640, Note_on_c, 0, 68, 39
1, 200640, Note_on_c, 0, 59, 23
1, 200640, Note_on_c, 0, 65, 27
1, 200640, Note_on_c, 0, 37, 25
1, 201111, Control_c, 0, 64, 0
1, 201120, Note_on_c, 0, 37, 0
1, 201120, Note_on_c, 0, 68, 0
1, 201120, Note_on_c, 0, 59, 0
1, 201120, Note_on_c, 0, 65, 0
1, 201120, Note_on_c, 0, 70, 39
1, 201120, Note_on_c, 0, 59, 23
1, 201120, Note_on_c, 0, 65, 27
1, 201120, Note_on_c, 0, 49, 27
1, 201360, Tempo, 527426
1, 201480, Note_on_c, 0, 49, 0
1, 201480, Note_on_c, 0, 50, 26
1, 201540, Note_on_c, 0, 50, 0
1, 201540, Note_on_c, 0, 51, 26
1, 201600, Tempo, 550560
1, 201600, Note_on_c, 0, 51, 0
1, 201600, Note_on_c, 0, 70, 0
1, 201600, Note_on_c, 0, 59, 0
1, 201600, Note_on_c, 0, 65, 0
1, 201600, Note_on_c, 0, 66, 46
1, 201600, Note_on_c, 0, 54, 25
1, 201600, Note_on_c, 0, 59, 30
1, 201600, Note_on_c, 0, 53, 25
1, 201636, Control_c, 0, 64, 127
1, 201640, Tempo, 548095
1, 201680, Tempo, 545752
1, 201680, Note_on_c, 0, 53, 0
1, 201680, Note_on_c, 0, 51, 21
1, 201700, Tempo, 543429
1, 201740, Tempo, 541077
1, 201760, Note_on_c, 0, 51, 0
1, 201760, Note_on_c, 0, 53, 24
1, 201780, Tempo, 538793
1, 201800, Tempo, 536433
1, 201840, Tempo, 534140
1, 201840, Note_on_c, 0, 53, 0
1, 201840, Note_on_c, 0, 51, 22
1, 201880, Tempo, 531821
1, 201900, Tempo, 529614
1, 201920, Note_on_c, 0, 51, 0
1, 201920, Note_on_c, 0, 53, 24
1, 201940, Tempo, 527426
1, 201980, Tempo, 525210
1, 202000, Tempo, 523013
1, 202000, Note_on_c, 0, 53, 0
1, 202000, Note_on_c, 0, 51, 21
1, 202040, Tempo, 520833
1, 202060, Tempo, 518717
1, 202080, Tempo, 514403
1, 202080, Note_on_c, 0, 51, 0
1, 202080, Note_on_c, 0, 59, 0
1, 202080, Note_on_c, 0, 54, 0
1, 202080, Note_on_c, 0, 54, 23
1, 202080, Note_on_c, 0, 59, 27
1, 202080, Note_on_c, 0, 53, 24
1, 202160, Note_on_c, 0, 53, 0
1, 202160, Note_on_c, 0, 51, 21
1, 202200, Tempo, 512339
1, 202240, Note_on_c, 0, 51, 0
1, 202240, Note_on_c, 0, 53, 24
1, 202320, Tempo, 510291
1, 202320, Note_on_c, 0, 53, 0
1, 202320, Note_on_c, 0, 51, 21
1, 202400, Note_on_c, 0, 51, 0
1, 202400, Note_on_c, 0, 53, 24
1, 202440, Tempo, 508173
1, 202480, Note_on_c, 0, 53, 0
1, 202480, Note_on_c, 0, 51, 21
1, 202540, Tempo, 506158
1, 202560, Tempo, 506158
1, 202560, Note_on_c, 0, 51, 0
1, 202560, Note_on_c, 0, 59, 0
1, 202560, Note_on_c, 0, 54, 0
1, 202560, Note_on_c, 0, 66, 0
1, 202560, Note_on_c, 0, 63, 43
1, 202560, Note_on_c, 0, 54, 23
1, 202560, Note_on_c, 0, 59, 27
1, 202560, Note_on_c, 0, 53, 24
1, 202600, Tempo, 508173
1, 202620, Tempo, 510291
1, 202640, Tempo, 512339
1, 202680, Tempo, 514403
1, 202680, Note_on_c, 0, 53, 0
1, 202680, Note_on_c, 0, 51, 21
1, 202700, Tempo, 516529
1, 202720, Tempo, 518717
1, 202740, Tempo, 520833
1, 202780, Tempo, 523013
1, 202800, Tempo, 525210
1, 202800, Note_on_c, 0, 51, 0
1, 202800, Note_on_c, 0, 53, 24
1, 202820, Tempo, 527426
1, 202840, Tempo, 529614
1, 202860, Note_on_c, 0, 53, 0
1, 202860, Note_on_c, 0, 51, 20
1, 202880, Tempo, 531821
1, 202900, Tempo, 534140
1, 202920, Tempo, 536433
1, 202920, Note_on_c, 0, 51, 0
1, 202920, Note_on_c, 0, 49, 24
1, 202940, Tempo, 538793
1, 202960, Tempo, 557932
1, 202980, Note_on_c, 0, 49, 0
1, 202980, Note_on_c, 0, 51, 18
1, 203000, Tempo, 508173
1, 203040, Note_on_c, 0, 51, 0
1, 203040, Note_on_c, 0, 59, 0
1, 203040, Note_on_c, 0, 54, 0
1, 203040, Note_on_c, 0, 63, 0
1, 203040, Note_on_c, 0, 56, 27
1, 203040, Note_on_c, 0, 59, 27
1, 203040, Note_on_c, 0, 61, 31
1, 203040, Note_on_c, 0, 53, 34
1, 203050, Control_c, 0, 64, 0
1, 203444, Control_c, 0, 64, 127
1, 203520, Tempo, 502092
1, 203520, Note_on_c, 0, 53, 0
1, 203520, Note_on_c, 0, 56, 0
1, 203520, Note_on_c, 0, 59, 0
1, 203520, Note_on_c, 0, 61, 0
1, 203520, Note_on_c, 0, 68, 44
1, 203520, Note_on_c, 0, 59, 28
1, 203520, Note_on_c, 0, 65, 34
1, 203520, Note_on_c, 0, 37, 36
1, 204000, Tempo, 512339
1, 204000, Note_on_c, 0, 37, 0
1, 204000, Note_on_c, 0, 68, 0
1, 204000, Note_on_c, 0, 59, 0
1, 204000, Note_on_c, 0, 65, 0
1, 204000, Note_on_c, 0, 70, 45
1, 204000, Note_on_c, 0, 59, 30
1, 204000, Note_on_c, 0, 65, 36
1, 204000, Note_on_c, 0, 49, 17
1, 204000, Note_on_c, 0, 56, 17
1, 204000, Note_on_c, 0, 61, 26
1, 204480, Note_on_c, 0, 61, 0
1, 204480, Note_on_c, 0, 59, 0
1, 204480, Note_on_c, 0, 65, 0
1, 204480, Note_on_c, 0, 70, 0
1, 204480, Note_on_c, 0, 56, 0
1, 204480, Note_on_c, 0, 49, 0
1, 204480, Note_on_c, 0, 71, 47
1, 204480, Note_on_c, 0, 59, 31
1, 204480, Note_on_c, 0, 65, 37
1, 204480, Note_on_c, 0, 49, 20
1, 204480, Note_on_c, 0, 56, 20
1, 204480, Note_on_c, 0, 61, 28
1, 204491, Control_c, 0, 64, 0
1, 204623, Control_c, 0, 64, 127
1, 204960, Tempo, 525210
1, 204960, Note_on_c, 0, 61, 0
1, 204960, Note_on_c, 0, 59, 0
1, 204960, Note_on_c, 0, 65, 0
1, 204960, Note_on_c, 0, 71, 0
1, 204960, Note_on_c, 0, 56, 0
1, 204960, Note_on_c, 0, 49, 0
1, 204960, Note_on_c, 0, 72, 48
1, 204960, Note_on_c, 0, 60, 32
1, 204960, Note_on_c, 0, 65, 39
1, 204960, Note_on_c, 0, 49, 21
1, 204960, Note_on_c, 0, 56, 21
1, 204960, Note_on_c, 0, 59, 32
1, 205440, Tempo, 518717
1, 205440, Note_on_c, 0, 59, 0
1, 205440, Note_on_c, 0, 60, 0
1, 205440, Note_on_c, 0, 65, 0
1, 205440, Note_on_c, 0, 72, 0
1, 205440, Note_on_c, 0, 56, 0
1, 205440, Note_on_c, 0, 49, 0
1, 205440, Note_on_c, 0, 73, 52
1, 205440, Note_on_c, 0, 61, 36
1, 205440, Note_on_c, 0, 65, 43
1, 205440, Note_on_c, 0, 49, 21
1, 205440, Note_on_c, 0, 56, 21
1, 205440, Note_on_c, 0, 59, 35
1, 205920, Tempo, 527426
1, 205920, Note_on_c, 0, 59, 0
1, 205920, Note_on_c, 0, 61, 0
1, 205920, Note_on_c, 0, 65, 0
1, 205920, Note_on_c, 0, 73, 0
1, 205920, Note_on_c, 0, 56, 0
1, 205920, Note_on_c, 0, 49, 0
1, 205920, Note_on_c, 0, 74, 56
1, 205920, Note_on_c, 0, 62, 36
1, 205920, Note_on_c, 0, 65, 45
1, 205920, Note_on_c, 0, 49, 26
1, 205920, Note_on_c, 0, 56, 26
1, 205920, Note_on_c, 0, 59, 37
1, 205932, Control_c, 0, 64, 0
1, 206069, Control_c, 0, 64, 127
1, 206400, Tempo, 559232
1, 206400, Note_on_c, 0, 59, 0
1, 206400, Note_on_c, 0, 62, 0
1, 206400, Note_on_c, 0, 65, 0
1, 206400, Note_on_c, 0, 74, 0
1, 206400, Note_on_c, 0, 56, 0
1, 206400, Note_on_c, 0, 49, 0
1, 206400, Note_on_c, 0, 75, 52
1, 206400, Note_on_c, 0, 63, 34
1, 206400, Note_on_c, 0, 65, 42
1, 206400, Note_on_c, 0, 49, 21
1, 206400, Note_on_c, 0, 56, 21
1, 206400, Note_on_c, 0, 59, 31
1, 206417, Control_c, 0, 64, 0
1, 206582, Control_c, 0, 64, 127
1, 206875, Note_on_c, 0, 59, 0
1, 206878, Note_on_c, 0, 65, 0
1, 206880, Tempo, 548747
1, 206880, Note_on_c, 0, 49, 0
1, 206880, Note_on_c, 0, 75, 0
1, 206880, Note_on_c, 0, 63, 0
1, 206880, Note_on_c, 0, 56, 0
1, 206880, Note_on_c, 0, 65, 35
1, 206880, Note_on_c, 0, 59, 24
1, 206880, Note_on_c, 0, 61, 28
1, 206880, Note_on_c, 0, 49, 17
1, 206880, Note_on_c, 0, 56, 26
1, 206890, Control_c, 0, 64, 0
1, 207029, Control_c, 0, 64, 127
1, 207360, Note_on_c, 0, 56, 0
1, 207360, Note_on_c, 0, 61, 0
1, 207360, Note_on_c, 0, 65, 0
1, 207360, Note_on_c, 0, 59, 0
1, 207360, Note_on_c, 0, 49, 0
1, 207360, Note_on_c, 0, 66, 36
1, 207360, Note_on_c, 0, 58, 26
1, 207360, Note_on_c, 0, 61, 30
1, 207360, Note_on_c, 0, 42, 18
1, 207360, Note_on_c, 0, 49, 25
1, 207367, Control_c, 0, 64, 0
1, 207573, Control_c, 0, 64, 127
1, 207840, Tempo, 538600
1, 207840, Marker_t, "Teil 3"
1, 207840, Note_on_c, 0, 49, 0
1, 207840, Note_on_c, 0, 61, 0
1, 207840, Note_on_c, 0, 66, 0
1, 207840, Note_on_c, 0, 58, 0
1, 207840, Note_on_c, 0, 42, 0
1, 207840, Note_on_c, 0, 58, 39
1, 207882, Control_c, 0, 64, 0
1, 208080, Tempo, 519481
1, 208080, Note_on_c, 0, 58, 0
1, 208080, Note_on_c, 0, 56, 37
1, 208300, Tempo, 511989
1, 208320, Tempo, 517241
1, 208320, Note_on_c, 0, 56, 0
1, 208320, Note_on_c, 0, 54, 36
1, 208560, Tempo, 515021
1, 208560, Note_on_c, 0, 54, 0
1, 208560, Note_on_c, 0, 53, 35
1, 208800, Tempo, 504202
1, 208800, Note_on_c, 0, 53, 0
1, 208800, Note_on_c, 0, 56, 30
1, 208800, Note_on_c, 0, 60, 30
1, 208800, Note_on_c, 0, 66, 36
1, 208800, Note_on_c, 0, 68, 36
1, 208800, Note_on_c, 0, 53, 39
1, 209040, Note_on_c, 0, 53, 0
1, 209040, Note_on_c, 0, 51, 39
1, 209280, Note_on_c, 0, 51, 0
1, 209280, Note_on_c, 0, 49, 37
1, 209520, Note_on_c, 0, 49, 0
1, 209520, Note_on_c, 0, 48, 36
1, 209760, Tempo, 508475
1, 209760, Note_on_c, 0, 48, 0
1, 209760, Note_on_c, 0, 46, 35
1, 210000, Tempo, 524017
1, 210000, Note_on_c, 0, 46, 0
1, 210000, Note_on_c, 0, 44, 35
1, 210240, Tempo, 530973
1, 210240, Note_on_c, 0, 44, 0
1, 210240, Note_on_c, 0, 68, 0
1, 210240, Note_on_c, 0, 56, 0
1, 210240, Note_on_c, 0, 60, 0
1, 210240, Note_on_c, 0, 66, 0
1, 210240, Note_on_c, 0, 56, 30
1, 210240, Note_on_c, 0, 61, 30
1, 210240, Note_on_c, 0, 65, 30
1, 210240, Note_on_c, 0, 68, 36
1, 210240, Note_on_c, 0, 37, 35
1, 210480, Note_on_c, 0, 37, 0
1, 210720, Tempo, 531303
1, 210720, Note_on_c, 0, 56, 0
1, 210720, Note_on_c, 0, 58, 42
1, 210960, Tempo, 519481
1, 210960, Note_on_c, 0, 58, 0
1, 210960, Note_on_c, 0, 56, 37
1, 211180, Tempo, 516262
1, 211200, Note_on_c, 0, 56, 0
1, 211200, Note_on_c, 0, 54, 36
1, 211300, Tempo, 514139
1, 211380, Tempo, 511989
1, 211440, Note_on_c, 0, 54, 0
1, 211440, Note_on_c, 0, 53, 36
1, 211500, Tempo, 509857
1, 211580, Tempo, 507743
1, 211660, Tempo, 507743
1, 211680, Tempo, 502092
1, 211680, Note_on_c, 0, 53, 0
1, 211680, Note_on_c, 0, 61, 0
1, 211680, Note_on_c, 0, 65, 0
1, 211680, Note_on_c, 0, 68, 0
1, 211680, Note_on_c, 0, 60, 31
1, 211680, Note_on_c, 0, 66, 37
1, 211680, Note_on_c, 0, 68, 37
1, 211680, Note_on_c, 0, 53, 39
1, 211920, Note_on_c, 0, 53, 0
1, 211920, Note_on_c, 0, 51, 39
1, 212160, Tempo, 493827
1, 212160, Note_on_c, 0, 51, 0
1, 212160, Note_on_c, 0, 49, 37
1, 212400, Note_on_c, 0, 49, 0
1, 212400, Note_on_c, 0, 48, 36
1, 212640, Tempo, 510638
1, 212640, Note_on_c, 0, 48, 0
1, 212640, Note_on_c, 0, 60, 0
1, 212640, Note_on_c, 0, 61, 42
1, 212640, Note_on_c, 0, 46, 36
1, 212880, Tempo, 528634
1, 212880, Note_on_c, 0, 46, 0
1, 212880, Note_on_c, 0, 61, 0
1, 212880, Note_on_c, 0, 63, 37
1, 212880, Note_on_c, 0, 44, 35
1, 213120, Tempo, 518896
1, 213120, Note_on_c, 0, 44, 0
1, 213120, Note_on_c, 0, 66, 0
1, 213120, Note_on_c, 0, 68, 0
1, 213120, Note_on_c, 0, 63, 0
1, 213120, Note_on_c, 0, 64, 45
1, 213120, Note_on_c, 0, 68, 45
1, 213120, Note_on_c, 0, 37, 35
1, 213360, Note_on_c, 0, 37, 0
1, 213600, Note_on_c, 0, 64, 0
1, 213600, Note_on_c, 0, 65, 39
1, 213600, Note_on_c, 0, 56, 35
1, 213840, Tempo, 495868
1, 213840, Note_on_c, 0, 56, 0
1, 213840, Note_on_c, 0, 58, 36
1, 214080, Tempo, 493827
1, 214080, Note_on_c, 0, 58, 0
1, 214080, Note_on_c, 0, 60, 37
1, 214320, Tempo, 530973
1, 214320, Note_on_c, 0, 60, 0
1, 214320, Note_on_c, 0, 68, 0
1, 214320, Note_on_c, 0, 77, 52
1, 214320, Note_on_c, 0, 61, 41
1, 214560, Tempo, 516262
1, 214560, Note_on_c, 0, 61, 0
1, 214560, Note_on_c, 0, 77, 0
1, 214560, Note_on_c, 0, 65, 0
1, 214560, Note_on_c, 0, 63, 39
1, 214560, Note_on_c, 0, 69, 39
1, 214560, Note_on_c, 0, 77, 49
1, 214560, Note_on_c, 0, 61, 45
1, 214800, Note_on_c, 0, 61, 0
1, 214800, Note_on_c, 0, 60, 37
1, 215040, Tempo, 506329
1, 215040, Note_on_c, 0, 60, 0
1, 215040, Note_on_c, 0, 52, 41
1, 215280, Note_on_c, 0, 52, 0
1, 215280, Note_on_c, 0, 53, 36
1, 215520, Tempo, 523378
1, 215520, Note_on_c, 0, 53, 0
1, 215520, Note_on_c, 0, 77, 0
1, 215520, Note_on_c, 0, 69, 0
1, 215520, Note_on_c, 0, 69, 39
1, 215520, Note_on_c, 0, 61, 39
1, 215760, Note_on_c, 0, 61, 0
1, 215760, Note_on_c, 0, 60, 35
1, 216000, Note_on_c, 0, 60, 0
1, 216000, Note_on_c, 0, 69, 0
1, 216000, Note_on_c, 0, 63, 0
1, 216000, Note_on_c, 0, 70, 46
1, 216000, Note_on_c, 0, 61, 39
1, 216000, Note_on_c, 0, 58, 39
1, 216480, Tempo, 516751
1, 216480, Note_on_c, 0, 58, 0
1, 216480, Note_on_c, 0, 46, 41
1, 216720, Tempo, 505646
1, 216720, Note_on_c, 0, 46, 0
1, 216720, Note_on_c, 0, 53, 35
1, 216960, Tempo, 495868
1, 216960, Note_on_c, 0, 53, 0
1, 216960, Note_on_c, 0, 70, 0
1, 216960, Note_on_c, 0, 65, 37
1, 216960, Note_on_c, 0, 73, 45
1, 216960, Note_on_c, 0, 56, 37
1, 217200, Tempo, 530973
1, 217200, Note_on_c, 0, 56, 0
1, 217200, Note_on_c, 0, 60, 35
1, 217440, Tempo, 514139
1, 217440, Note_on_c, 0, 60, 0
1, 217440, Note_on_c, 0, 73, 0
1, 217440, Note_on_c, 0, 65, 0
1, 217440, Note_on_c, 0, 61, 0
1, 217440, Note_on_c, 0, 61, 34
1, 217440, Note_on_c, 0, 63, 39
1, 217440, Note_on_c, 0, 67, 47
1, 217440, Note_on_c, 0, 60, 39
1, 217680, Note_on_c, 0, 60, 0
1, 217680, Note_on_c, 0, 58, 35
1, 217920, Tempo, 506329
1, 217920, Note_on_c, 0, 58, 0
1, 217920, Note_on_c, 0, 50, 36
1, 218160, Note_on_c, 0, 50, 0
1, 218160, Note_on_c, 0, 51, 35
1, 218400, Tempo, 527844
1, 218400, Note_on_c, 0, 51, 0
1, 218400, Note_on_c, 0, 60, 37
1, 218640, Note_on_c, 0, 60, 0
1, 218640, Note_on_c, 0, 58, 35
1, 218880, Note_on_c, 0, 58, 0
1, 218880, Note_on_c, 0, 67, 0
1, 218880, Note_on_c, 0, 63, 0
1, 218880, Note_on_c, 0, 61, 0
1, 218880, Note_on_c, 0, 60, 39
1, 218880, Note_on_c, 0, 63, 39
1, 218880, Note_on_c, 0, 68, 47
1, 218880, Note_on_c, 0, 56, 37
1, 219360, Tempo, 521195
1, 219360, Note_on_c, 0, 56, 0
1, 219360, Note_on_c, 0, 58, 39
1, 219402, Control_c, 0, 64, 0
1, 219600, Note_on_c, 0, 58, 0
1, 219600, Note_on_c, 0, 56, 37
1, 219640, Tempo, 518448
1, 219800, Tempo, 516262
1, 219840, Note_on_c, 0, 56, 0
1, 219840, Note_on_c, 0, 60, 0
1, 219840, Note_on_c, 0, 63, 0
1, 219840, Note_on_c, 0, 68, 0
1, 219840, Note_on_c, 0, 61, 37
1, 219840, Note_on_c, 0, 65, 37
1, 219840, Note_on_c, 0, 68, 45
1, 219840, Note_on_c, 0, 54, 36
1, 219960, Tempo, 514139
1, 220080, Note_on_c, 0, 54, 0
1, 220080, Note_on_c, 0, 53, 35
1, 220120, Tempo, 511989
1, 220280, Tempo, 511989
1, 220320, Tempo, 506329
1, 220320, Note_on_c, 0, 53, 0
1, 220320, Note_on_c, 0, 68, 0
1, 220320, Note_on_c, 0, 65, 0
1, 220320, Note_on_c, 0, 61, 0
1, 220320, Note_on_c, 0, 60, 30
1, 220320, Note_on_c, 0, 66, 36
1, 220320, Note_on_c, 0, 68, 36
1, 220320, Note_on_c, 0, 53, 39
1, 220560, Note_on_c, 0, 53, 0
1, 220560, Note_on_c, 0, 51, 39
1, 220800, Tempo, 500000
1, 220800, Note_on_c, 0, 51, 0
1, 220800, Note_on_c, 0, 49, 37
1, 221040, Note_on_c, 0, 49, 0
1, 221040, Note_on_c, 0, 48, 36
1, 221280, Tempo, 508475
1, 221280, Note_on_c, 0, 48, 0
1, 221280, Note_on_c, 0, 46, 35
1, 221520, Tempo, 524017
1, 221520, Note_on_c, 0, 46, 0
1, 221520, Note_on_c, 0, 44, 35
1, 221760, Note_on_c, 0, 44, 0
1, 221760, Note_on_c, 0, 68, 0
1, 221760, Note_on_c, 0, 66, 0
1, 221760, Note_on_c, 0, 60, 0
1, 221760, Note_on_c, 0, 61, 39
1, 221760, Note_on_c, 0, 65, 42
1, 221760, Note_on_c, 0, 68, 46
1, 221760, Note_on_c, 0, 37, 35
1, 221800, Tempo, 529614
1, 222000, Note_on_c, 0, 37, 0
1, 222240, Tempo, 521195
1, 222240, Note_on_c, 0, 58, 42
1, 222480, Note_on_c, 0, 58, 0
1, 222480, Note_on_c, 0, 56, 37
1, 222720, Tempo, 514139
1, 222720, Note_on_c, 0, 56, 0
1, 222720, Note_on_c, 0, 61, 0
1, 222720, Note_on_c, 0, 56, 35
1, 222720, Note_on_c, 0, 54, 36
1, 222960, Note_on_c, 0, 54, 0
1, 222960, Note_on_c, 0, 53, 36
1, 223200, Note_on_c, 0, 53, 0
1, 223200, Note_on_c, 0, 56, 0
1, 223200, Note_on_c, 0, 68, 0
1, 223200, Note_on_c, 0, 65, 0
1, 223200, Note_on_c, 0, 60, 45
1, 223200, Note_on_c, 0, 66, 45
1, 223200, Note_on_c, 0, 68, 45
1, 223200, Note_on_c, 0, 53, 39
1, 223440, Note_on_c, 0, 53, 0
1, 223440, Note_on_c, 0, 51, 39
1, 223680, Tempo, 502092
1, 223680, Note_on_c, 0, 51, 0
1, 223680, Note_on_c, 0, 60, 0
1, 223680, Note_on_c, 0, 58, 38
1, 223680, Note_on_c, 0, 49, 37
1, 223720, Tempo, 514139
1, 223840, Tempo, 516262
1, 223920, Note_on_c, 0, 49, 0
1, 223920, Note_on_c, 0, 58, 0
1, 223920, Note_on_c, 0, 56, 34
1, 223920, Note_on_c, 0, 48, 36
1, 223960, Tempo, 518448
1, 224080, Tempo, 520653
1, 224160, Tempo, 530129
1, 224160, Note_on_c, 0, 48, 0
1, 224160, Note_on_c, 0, 56, 0
1, 224160, Note_on_c, 0, 61, 42
1, 224160, Note_on_c, 0, 46, 36
1, 224400, Note_on_c, 0, 46, 0
1, 224400, Note_on_c, 0, 61, 0
1, 224400, Note_on_c, 0, 63, 37
1, 224400, Note_on_c, 0, 44, 35
1, 224640, Note_on_c, 0, 44, 0
1, 224640, Note_on_c, 0, 66, 0
1, 224640, Note_on_c, 0, 68, 0
1, 224640, Note_on_c, 0, 63, 0
1, 224640, Note_on_c, 0, 65, 39
1, 224640, Note_on_c, 0, 68, 47
1, 224640, Note_on_c, 0, 37, 35
1, 224812, Control_c, 0, 64, 127
1, 224880, Note_on_c, 0, 37, 0
1, 225120, Tempo, 522876
1, 225120, Note_on_c, 0, 56, 39
1, 225360, Note_on_c, 0, 56, 0
1, 225360, Note_on_c, 0, 55, 36
1, 225600, Tempo, 536577
1, 225600, Note_on_c, 0, 55, 0
1, 225600, Note_on_c, 0, 65, 0
1, 225600, Note_on_c, 0, 64, 42
1, 225600, Note_on_c, 0, 58, 39
1, 225611, Control_c, 0, 64, 0
1, 225840, Note_on_c, 0, 58, 0
1, 225840, Note_on_c, 0, 56, 34
1, 226080, Tempo, 531303
1, 226080, Note_on_c, 0, 56, 0
1, 226080, Note_on_c, 0, 64, 0
1, 226080, Note_on_c, 0, 68, 0
1, 226080, Note_on_c, 0, 68, 45
1, 226080, Note_on_c, 0, 63, 38
1, 226080, Note_on_c, 0, 59, 39
1, 226221, Control_c, 0, 64, 127
1, 226560, Tempo, 522876
1, 226560, Note_on_c, 0, 59, 0
1, 226560, Note_on_c, 0, 47, 43
1, 226800, Note_on_c, 0, 47, 0
1, 226800, Note_on_c, 0, 53, 39
1, 227040, Tempo, 524109
1, 227040, Note_on_c, 0, 53, 0
1, 227040, Note_on_c, 0, 68, 0
1, 227040, Note_on_c, 0, 66, 38
1, 227040, Note_on_c, 0, 56, 43
1, 227049, Control_c, 0, 64, 0
1, 227280, Tempo, 541126
1, 227280, Note_on_c, 0, 56, 0
1, 227280, Note_on_c, 0, 54, 39
1, 227520, Tempo, 531303
1, 227520, Note_on_c, 0, 54, 0
1, 227520, Note_on_c, 0, 66, 0
1, 227520, Note_on_c, 0, 63, 0
1, 227520, Note_on_c, 0, 62, 37
1, 227520, Note_on_c, 0, 66, 45
1, 227520, Note_on_c, 0, 58, 45
1, 228000, Note_on_c, 0, 58, 0
1, 228000, Note_on_c, 0, 62, 0
1, 228000, Note_on_c, 0, 61, 39
1, 228000, Note_on_c, 0, 42, 41
1, 228028, Control_c, 0, 64, 127
1, 228240, Tempo, 546150
1, 228240, Note_on_c, 0, 42, 0
1, 228240, Note_on_c, 0, 49, 36
1, 228480, Tempo, 531303
1, 228480, Note_on_c, 0, 49, 0
1, 228480, Note_on_c, 0, 66, 0
1, 228480, Note_on_c, 0, 63, 39
1, 228480, Note_on_c, 0, 73, 47
1, 228480, Note_on_c, 0, 54, 41
1, 228720, Note_on_c, 0, 54, 0
1, 228720, Note_on_c, 0, 58, 36
1, 228960, Note_on_c, 0, 58, 0
1, 228960, Note_on_c, 0, 73, 0
1, 228960, Note_on_c, 0, 63, 0
1, 228960, Note_on_c, 0, 61, 0
1, 228960, Note_on_c, 0, 61, 41
1, 228960, Note_on_c, 0, 65, 41
1, 228960, Note_on_c, 0, 73, 48
1, 228960, Note_on_c, 0, 56, 43
1, 228988, Control_c, 0, 64, 0
1, 229440, Note_on_c, 0, 56, 0
1, 229440, Note_on_c, 0, 37, 39
1, 229539, Control_c, 0, 64, 127
1, 229680, Note_on_c, 0, 37, 0
1, 229680, Note_on_c, 0, 44, 35
1, 229920, Note_on_c, 0, 44, 0
1, 229920, Note_on_c, 0, 49, 39
1, 230160, Note_on_c, 0, 49, 0
1, 230160, Note_on_c, 0, 56, 36
1, 230397, Note_on_c, 0, 61, 0
1, 230400, Note_on_c, 0, 65, 0
1, 230400, Note_on_c, 0, 73, 0
1, 230400, Note_on_c, 0, 56, 0
1, 230400, Note_on_c, 0, 65, 31
1, 230400, Note_on_c, 0, 68, 37
1, 230400, Note_on_c, 0, 61, 39
1, 230419, Control_c, 0, 64, 0
1, 230640, Note_on_c, 0, 61, 0
1, 230640, Note_on_c, 0, 60, 34
1, 230880, Note_on_c, 0, 60, 0
1, 230880, Note_on_c, 0, 59, 35
1, 231120, Note_on_c, 0, 59, 0
1, 231120, Note_on_c, 0, 58, 34
1, 231360, Tempo, 539374
1, 231360, Note_on_c, 0, 58, 0
1, 231360, Note_on_c, 0, 68, 0
1, 231360, Note_on_c, 0, 69, 45
1, 231360, Note_on_c, 0, 59, 41
1, 231600, Tempo, 559024
1, 231600, Note_on_c, 0, 59, 0
1, 231600, Note_on_c, 0, 49, 35
1, 231840, Tempo, 538600
1, 231840, Note_on_c, 0, 49, 0
1, 231840, Note_on_c, 0, 69, 0
1, 231840, Note_on_c, 0, 65, 0
1, 231840, Note_on_c, 0, 70, 57
1, 231840, Note_on_c, 0, 42, 37
1, 231852, Control_c, 0, 64, 0
1, 232107, Control_c, 0, 64, 127
1, 232320, Tempo, 504414
1, 232320, Note_on_c, 0, 42, 0
1, 232320, Note_on_c, 0, 70, 0
1, 232320, Note_on_c, 0, 65, 49
1, 232320, Note_on_c, 0, 58, 25
1, 232320, Note_on_c, 0, 63, 25
1, 232320, Note_on_c, 0, 54, 21
1, 232320, Note_on_c, 0, 49, 21
1, 232800, Tempo, 517152
1, 232800, Note_on_c, 0, 49, 0
1, 232800, Note_on_c, 0, 63, 0
1, 232800, Note_on_c, 0, 65, 0
1, 232800, Note_on_c, 0, 58, 0
1, 232800, Note_on_c, 0, 54, 0
1, 232800, Note_on_c, 0, 66, 52
1, 232800, Note_on_c, 0, 58, 22
1, 232800, Note_on_c, 0, 49, 18
1, 232800, Note_on_c, 0, 54, 18
1, 232800, Note_on_c, 0, 61, 23
1, 233260, Tempo, 510421
1, 233280, Note_on_c, 0, 61, 0
1, 233280, Note_on_c, 0, 49, 0
1, 233280, Note_on_c, 0, 66, 0
1, 233280, Note_on_c, 0, 58, 0
1, 233280, Note_on_c, 0, 54, 0
1, 233280, Note_on_c, 0, 75, 56
1, 233280, Note_on_c, 0, 42, 34
1, 233333, Control_c, 0, 64, 0
1, 233547, Control_c, 0, 64, 127
1, 233760, Tempo, 507485
1, 233760, Note_on_c, 0, 42, 0
1, 233760, Note_on_c, 0, 58, 20
1, 233760, Note_on_c, 0, 66, 25
1, 233760, Note_on_c, 0, 63, 23
1, 233760, Note_on_c, 0, 49, 18
1, 233760, Note_on_c, 0, 54, 18
1, 234240, Tempo, 517152
1, 234240, Note_on_c, 0, 54, 0
1, 234240, Note_on_c, 0, 58, 0
1, 234240, Note_on_c, 0, 66, 0
1, 234240, Note_on_c, 0, 75, 0
1, 234240, Note_on_c, 0, 49, 0
1, 234240, Note_on_c, 0, 63, 0
1, 234240, Note_on_c, 0, 73, 52
1, 234240, Note_on_c, 0, 58, 20
1, 234240, Note_on_c, 0, 66, 25
1, 234240, Note_on_c, 0, 49, 15
1, 234240, Note_on_c, 0, 54, 15
1, 234240, Note_on_c, 0, 61, 18
1, 234720, Tempo, 509122
1, 234720, Note_on_c, 0, 61, 0
1, 234720, Note_on_c, 0, 58, 0
1, 234720, Note_on_c, 0, 66, 0
1, 234720, Note_on_c, 0, 73, 0
1, 234720, Note_on_c, 0, 54, 0
1, 234720, Note_on_c, 0, 49, 0
1, 234720, Note_on_c, 0, 73, 52
1, 234720, Note_on_c, 0, 37, 33
1, 234733, Control_c, 0, 64, 0
1, 234987, Control_c, 0, 64, 127
1, 235200, Note_on_c, 0, 37, 0
1, 235200, Note_on_c, 0, 73, 0
1, 235200, Note_on_c, 0, 66, 44
1, 235200, Note_on_c, 0, 59, 23
1, 235200, Note_on_c, 0, 63, 27
1, 235200, Note_on_c, 0, 54, 23
1, 235200, Note_on_c, 0, 49, 23
1, 235680, Tempo, 515553
1, 235680, Note_on_c, 0, 49, 0
1, 235680, Note_on_c, 0, 63, 0
1, 235680, Note_on_c, 0, 66, 0
1, 235680, Note_on_c, 0, 59, 0
1, 235680, Note_on_c, 0, 54, 0
1, 235680, Note_on_c, 0, 68, 45
1, 235680, Note_on_c, 0, 65, 27
1, 235680, Note_on_c, 0, 59, 22
1, 235680, Note_on_c, 0, 49, 18
1, 235680, Note_on_c, 0, 54, 18
1, 235680, Note_on_c, 0, 61, 23
1, 236160, Note_on_c, 0, 61, 0
1, 236160, Note_on_c, 0, 65, 0
1, 236160, Note_on_c, 0, 59, 0
1, 236160, Note_on_c, 0, 68, 0
1, 236160, Note_on_c, 0, 54, 0
1, 236160, Note_on_c, 0, 49, 0
1, 236160, Note_on_c, 0, 70, 52
1, 236160, Note_on_c, 0, 42, 34
1, 236170, Control_c, 0, 64, 0
1, 236427, Control_c, 0, 64, 127
1, 236640, Tempo, 509122
1, 236640, Note_on_c, 0, 42, 0
1, 236640, Note_on_c, 0, 58, 24
1, 236640, Note_on_c, 0, 66, 28
1, 236640, Note_on_c, 0, 63, 24
1, 236640, Note_on_c, 0, 49, 20
1, 236640, Note_on_c, 0, 54, 20
1, 237120, Tempo, 515553
1, 237120, Note_on_c, 0, 54, 0
1, 237120, Note_on_c, 0, 58, 0
1, 237120, Note_on_c, 0, 66, 0
1, 237120, Note_on_c, 0, 63, 0
1, 237120, Note_on_c, 0, 49, 0
1, 237120, Note_on_c, 0, 58, 23
1, 237120, Note_on_c, 0, 66, 27
1, 237120, Note_on_c, 0, 49, 17
1, 237120, Note_on_c, 0, 54, 17
1, 237120, Note_on_c, 0, 61, 22
1, 237600, Note_on_c, 0, 61, 0
1, 237600, Note_on_c, 0, 58, 0
1, 237600, Note_on_c, 0, 66, 0
1, 237600, Note_on_c, 0, 49, 0
1, 237600, Note_on_c, 0, 54, 0
1, 237600, Note_on_c, 0, 58, 23
1, 237600, Note_on_c, 0, 66, 27
1, 237600, Note_on_c, 0, 49, 12
1, 237600, Note_on_c, 0, 54, 15
1, 237600, Note_on_c, 0, 61, 22
1, 238080, Tempo, 507485
1, 238080, Note_on_c, 0, 61, 0
1, 238080, Note_on_c, 0, 58, 0
1, 238080, Note_on_c, 0, 66, 0
1, 238080, Note_on_c, 0, 49, 0
1, 238080, Note_on_c, 0, 54, 0
1, 238080, Note_on_c, 0, 61, 20
1, 238080, Note_on_c, 0, 66, 24
1, 238080, Note_on_c, 0, 49, 18
1, 238080, Note_on_c, 0, 54, 18
1, 238080, Note_on_c, 0, 59, 23
1, 238560, Tempo, 513919
1, 238560, Note_on_c, 0, 59, 0
1, 238560, Note_on_c, 0, 61, 0
1, 238560, Note_on_c, 0, 66, 0
1, 238560, Note_on_c, 0, 49, 0
1, 238560, Note_on_c, 0, 54, 0
1, 238560, Note_on_c, 0, 61, 20
1, 238560, Note_on_c, 0, 66, 24
1, 238560, Note_on_c, 0, 49, 12
1, 238560, Note_on_c, 0, 54, 15
1, 238560, Note_on_c, 0, 58, 21
1, 239040, Tempo, 507485
1, 239040, Note_on_c, 0, 58, 0
1, 239040, Note_on_c, 0, 61, 0
1, 239040, Note_on_c, 0, 66, 0
1, 239040, Note_on_c, 0, 49, 0
1, 239040, Note_on_c, 0, 54, 0
1, 239040, Note_on_c, 0, 61, 20
1, 239040, Note_on_c, 0, 66, 24
1, 239040, Note_on_c, 0, 49, 13
1, 239040, Note_on_c, 0, 54, 16
1, 239040, Note_on_c, 0, 58, 21
1, 239049, Control_c, 0, 64, 0
1, 239293, Control_c, 0, 64, 127
1, 239520, Note_on_c, 0, 58, 0
1, 239520, Note_on_c, 0, 61, 0
1, 239520, Note_on_c, 0, 66, 0
1, 239520, Note_on_c, 0, 70, 0
1, 239520, Note_on_c, 0, 54, 0
1, 239520, Note_on_c, 0, 49, 0
1, 239520, Note_on_c, 0, 56, 20
1, 239520, Note_on_c, 0, 61, 24
1, 239520, Note_on_c, 0, 47, 20
1, 239520, Note_on_c, 0, 49, 24
1, 240000, Tempo, 513919
1, 240000, Note_on_c, 0, 49, 0
1, 240000, Note_on_c, 0, 56, 0
1, 240000, Note_on_c, 0, 61, 0
1, 240000, Note_on_c, 0, 47, 0
1, 240000, Note_on_c, 0, 54, 20
1, 240000, Note_on_c, 0, 61, 24
1, 240000, Note_on_c, 0, 46, 20
1, 240000, Note_on_c, 0, 49, 24
1, 240480, Tempo, 518762
1, 240480, Note_on_c, 0, 49, 0
1, 240480, Note_on_c, 0, 54, 0
1, 240480, Note_on_c, 0, 61, 0
1, 240480, Note_on_c, 0, 46, 0
1, 240480, Note_on_c, 0, 54, 20
1, 240480, Note_on_c, 0, 61, 24
1, 240480, Note_on_c, 0, 46, 20
1, 240480, Note_on_c, 0, 49, 24
1, 240960, Tempo, 512295
1, 240960, Note_on_c, 0, 49, 0
1, 240960, Note_on_c, 0, 54, 0
1, 240960, Note_on_c, 0, 61, 0
1, 240960, Note_on_c, 0, 46, 0
1, 240960, Note_on_c, 0, 56, 18
1, 240960, Note_on_c, 0, 61, 23
1, 240960, Note_on_c, 0, 47, 20
1, 240960, Note_on_c, 0, 49, 24
1, 241440, Note_on_c, 0, 49, 0
1, 241440, Note_on_c, 0, 56, 0
1, 241440, Note_on_c, 0, 61, 0
1, 241440, Note_on_c, 0, 47, 0
1, 241440, Note_on_c, 0, 54, 18
1, 241440, Note_on_c, 0, 61, 23
1, 241440, Note_on_c, 0, 46, 20
1, 241440, Note_on_c, 0, 49, 24
1, 241920, Note_on_c, 0, 49, 0
1, 241920, Note_on_c, 0, 54, 0
1, 241920, Note_on_c, 0, 61, 0
1, 241920, Note_on_c, 0, 46, 0
1, 241920, Note_on_c, 0, 54, 15
1, 241920, Note_on_c, 0, 61, 23
1, 241920, Note_on_c, 0, 46, 20
1, 241920, Note_on_c, 0, 49, 24
1, 242400, Tempo, 518762
1, 242400, Note_on_c, 0, 49, 0
1, 242400, Note_on_c, 0, 54, 0
1, 242400, Note_on_c, 0, 61, 0
1, 242400, Note_on_c, 0, 46, 0
1, 242400, Note_on_c, 0, 56, 15
1, 242400, Note_on_c, 0, 61, 24
1, 242400, Note_on_c, 0, 47, 20
1, 242400, Note_on_c, 0, 49, 24
1, 242880, Tempo, 528774
1, 242880, Note_on_c, 0, 49, 0
1, 242880, Note_on_c, 0, 56, 0
1, 242880, Note_on_c, 0, 61, 0
1, 242880, Note_on_c, 0, 47, 0
1, 242880, Note_on_c, 0, 54, 15
1, 242880, Note_on_c, 0, 61, 23
1, 242880, Note_on_c, 0, 46, 20
1, 242880, Note_on_c, 0, 49, 24
1, 243360, Tempo, 515553
1, 243360, Note_on_c, 0, 49, 0
1, 243360, Note_on_c, 0, 54, 0
1, 243360, Note_on_c, 0, 61, 0
1, 243360, Note_on_c, 0, 46, 0
1, 243360, Note_on_c, 0, 71, 53
1, 243360, Note_on_c, 0, 44, 31
1, 243369, Control_c, 0, 64, 0
1, 243589, Control_c, 0, 64, 127
1, 243840, Tempo, 504414
1, 243840, Note_on_c, 0, 44, 0
1, 243840, Note_on_c, 0, 71, 0
1, 243840, Note_on_c, 0, 67, 50
1, 243840, Note_on_c, 0, 59, 26
1, 243840, Note_on_c, 0, 64, 26
1, 243840, Note_on_c, 0, 56, 22
1, 243840, Note_on_c, 0, 51, 22
1, 244320, Tempo, 517152
1, 244320, Note_on_c, 0, 51, 0
1, 244320, Note_on_c, 0, 64, 0
1, 244320, Note_on_c, 0, 67, 0
1, 244320, Note_on_c, 0, 59, 0
1, 244320, Note_on_c, 0, 56, 0
1, 244320, Note_on_c, 0, 68, 57
1, 244320, Note_on_c, 0, 59, 26
1, 244320, Note_on_c, 0, 51, 17
1, 244320, Note_on_c, 0, 56, 17
1, 244320, Note_on_c, 0, 63, 22
1, 244780, Tempo, 510421
1, 244800, Note_on_c, 0, 63, 0
1, 244800, Note_on_c, 0, 51, 0
1, 244800, Note_on_c, 0, 68, 0
1, 244800, Note_on_c, 0, 59, 0
1, 244800, Note_on_c, 0, 56, 0
1, 244800, Note_on_c, 0, 76, 58
1, 244800, Note_on_c, 0, 44, 38
1, 244817, Control_c, 0, 64, 0
1, 245120, Control_c, 0, 64, 127
1, 245280, Tempo, 507485
1, 245280, Note_on_c, 0, 44, 0
1, 245280, Note_on_c, 0, 59, 25
1, 245280, Note_on_c, 0, 68, 30
1, 245280, Note_on_c, 0, 64, 24
1, 245280, Note_on_c, 0, 51, 18
1, 245280, Note_on_c, 0, 56, 18
1, 245760, Tempo, 512295
1, 245760, Note_on_c, 0, 56, 0
1, 245760, Note_on_c, 0, 59, 0
1, 245760, Note_on_c, 0, 68, 0
1, 245760, Note_on_c, 0, 76, 0
1, 245760, Note_on_c, 0, 51, 0
1, 245760, Note_on_c, 0, 64, 0
1, 245760, Note_on_c, 0, 75, 54
1, 245760, Note_on_c, 0, 59, 21
1, 245760, Note_on_c, 0, 68, 25
1, 245760, Note_on_c, 0, 51, 17
1, 245760, Note_on_c, 0, 56, 17
1, 245760, Note_on_c, 0, 63, 21
1, 246240, Tempo, 509122
1, 246240, Note_on_c, 0, 63, 0
1, 246240, Note_on_c, 0, 59, 0
1, 246240, Note_on_c, 0, 68, 0
1, 246240, Note_on_c, 0, 75, 0
1, 246240, Note_on_c, 0, 56, 0
1, 246240, Note_on_c, 0, 51, 0
1, 246240, Note_on_c, 0, 75, 54
1, 246240, Note_on_c, 0, 39, 33
1, 246258, Control_c, 0, 64, 0
1, 246537, Control_c, 0, 64, 127
1, 246720, Note_on_c, 0, 39, 0
1, 246720, Note_on_c, 0, 75, 0
1, 246720, Note_on_c, 0, 68, 49
1, 246720, Note_on_c, 0, 61, 28
1, 246720, Note_on_c, 0, 64, 25
1, 246720, Note_on_c, 0, 58, 21
1, 246720, Note_on_c, 0, 51, 21
1, 247200, Tempo, 515553
1, 247200, Note_on_c, 0, 51, 0
1, 247200, Note_on_c, 0, 64, 0
1, 247200, Note_on_c, 0, 68, 0
1, 247200, Note_on_c, 0, 61, 0
1, 247200, Note_on_c, 0, 58, 0
1, 247200, Note_on_c, 0, 70, 52
1, 247200, Note_on_c, 0, 67, 27
1, 247200, Note_on_c, 0, 61, 22
1, 247200, Note_on_c, 0, 51, 16
1, 247200, Note_on_c, 0, 58, 16
1, 247200, Note_on_c, 0, 63, 21
1, 247680, Note_on_c, 0, 63, 0
1, 247680, Note_on_c, 0, 67, 0
1, 247680, Note_on_c, 0, 61, 0
1, 247680, Note_on_c, 0, 70, 0
1, 247680, Note_on_c, 0, 58, 0
1, 247680, Note_on_c, 0, 51, 0
1, 247680, Note_on_c, 0, 73, 58
1, 247680, Note_on_c, 0, 44, 34
1, 247687, Control_c, 0, 64, 0
1, 247947, Control_c, 0, 64, 127
1, 248160, Tempo, 509122
1, 248160, Note_on_c, 0, 44, 0
1, 248160, Note_on_c, 0, 73, 0
1, 248160, Note_on_c, 0, 71, 54
1, 248160, Note_on_c, 0, 59, 22
1, 248160, Note_on_c, 0, 68, 26
1, 248160, Note_on_c, 0, 64, 25
1, 248160, Note_on_c, 0, 51, 21
1, 248160, Note_on_c, 0, 56, 21
1, 248640, Tempo, 515553
1, 248640, Note_on_c, 0, 56, 0
1, 248640, Note_on_c, 0, 59, 0
1, 248640, Note_on_c, 0, 68, 0
1, 248640, Note_on_c, 0, 64, 0
1, 248640, Note_on_c, 0, 51, 0
1, 248640, Note_on_c, 0, 59, 22
1, 248640, Note_on_c, 0, 68, 26
1, 248640, Note_on_c, 0, 51, 18
1, 248640, Note_on_c, 0, 56, 18
1, 248640, Note_on_c, 0, 63, 23
1, 249120, Note_on_c, 0, 63, 0
1, 249120, Note_on_c, 0, 59, 0
1, 249120, Note_on_c, 0, 68, 0
1, 249120, Note_on_c, 0, 51, 0
1, 249120, Note_on_c, 0, 56, 0
1, 249120, Note_on_c, 0, 59, 20
1, 249120, Note_on_c, 0, 68, 28
1, 249120, Note_on_c, 0, 51, 16
1, 249120, Note_on_c, 0, 56, 16
1, 249120, Note_on_c, 0, 63, 25
1, 249600, Tempo, 507485
1, 249600, Note_on_c, 0, 63, 0
1, 249600, Note_on_c, 0, 59, 0
1, 249600, Note_on_c, 0, 68, 0
1, 249600, Note_on_c, 0, 51, 0
1, 249600, Note_on_c, 0, 56, 0
1, 249600, Note_on_c, 0, 63, 24
1, 249600, Note_on_c, 0, 68, 29
1, 249600, Note_on_c, 0, 51, 20
1, 249600, Note_on_c, 0, 56, 20
1, 249600, Note_on_c, 0, 61, 24
1, 250080, Tempo, 513919
1, 250080, Note_on_c, 0, 61, 0
1, 250080, Note_on_c, 0, 63, 0
1, 250080, Note_on_c, 0, 68, 0
1, 250080, Note_on_c, 0, 51, 0
1, 250080, Note_on_c, 0, 56, 0
1, 250080, Note_on_c, 0, 63, 24
1, 250080, Note_on_c, 0, 68, 27
1, 250080, Note_on_c, 0, 51, 20
1, 250080, Note_on_c, 0, 56, 20
1, 250080, Note_on_c, 0, 59, 24
1, 250560, Tempo, 507485
1, 250560, Note_on_c, 0, 59, 0
1, 250560, Note_on_c, 0, 63, 0
1, 250560, Note_on_c, 0, 68, 0
1, 250560, Note_on_c, 0, 51, 0
1, 250560, Note_on_c, 0, 56, 0
1, 250560, Note_on_c, 0, 63, 22
1, 250560, Note_on_c, 0, 68, 27
1, 250560, Note_on_c, 0, 51, 21
1, 250560, Note_on_c, 0, 56, 21
1, 250560, Note_on_c, 0, 59, 25
1, 251040, Note_on_c, 0, 59, 0
1, 251040, Note_on_c, 0, 63, 0
1, 251040, Note_on_c, 0, 68, 0
1, 251040, Note_on_c, 0, 71, 0
1, 251040, Note_on_c, 0, 56, 0
1, 251040, Note_on_c, 0, 51, 0
1, 251040, Note_on_c, 0, 58, 23
1, 251040, Note_on_c, 0, 63, 27
1, 251040, Note_on_c, 0, 49, 22
1, 251040, Note_on_c, 0, 51, 26
1, 251056, Control_c, 0, 64, 0
1, 251520, Tempo, 513919
1, 251520, Note_on_c, 0, 51, 0
1, 251520, Note_on_c, 0, 58, 0
1, 251520, Note_on_c, 0, 63, 0
1, 251520, Note_on_c, 0, 49, 0
1, 251520, Note_on_c, 0, 56, 22
1, 251520, Note_on_c, 0, 63, 27
1, 251520, Note_on_c, 0, 47, 22
1, 251520, Note_on_c, 0, 51, 26
1, 252000, Tempo, 518762
1, 252000, Note_on_c, 0, 51, 0
1, 252000, Note_on_c, 0, 56, 0
1, 252000, Note_on_c, 0, 63, 0
1, 252000, Note_on_c, 0, 47, 0
1, 252000, Note_on_c, 0, 56, 22
1, 252000, Note_on_c, 0, 63, 27
1, 252000, Note_on_c, 0, 47, 22
1, 252000, Note_on_c, 0, 51, 26
1, 252480, Tempo, 512295
1, 252480, Note_on_c, 0, 51, 0
1, 252480, Note_on_c, 0, 56, 0
1, 252480, Note_on_c, 0, 63, 0
1, 252480, Note_on_c, 0, 47, 0
1, 252480, Note_on_c, 0, 58, 22
1, 252480, Note_on_c, 0, 63, 27
1, 252480, Note_on_c, 0, 49, 22
1, 252480, Note_on_c, 0, 51, 24
1, 252960, Note_on_c, 0, 51, 0
1, 252960, Note_on_c, 0, 58, 0
1, 252960, Note_on_c, 0, 63, 0
1, 252960, Note_on_c, 0, 49, 0
1, 252960, Note_on_c, 0, 56, 22
1, 252960, Note_on_c, 0, 63, 27
1, 252960, Note_on_c, 0, 47, 22
1, 252960, Note_on_c, 0, 51, 26
1, 253440, Note_on_c, 0, 51, 0
1, 253440, Note_on_c, 0, 56, 0
1, 253440, Note_on_c, 0, 63, 0
1, 253440, Note_on_c, 0, 47, 0
1, 253440, Note_on_c, 0, 56, 22
1, 253440, Note_on_c, 0, 63, 27
1, 253440, Note_on_c, 0, 47, 22
1, 253440, Note_on_c, 0, 51, 26
1, 253920, Note_on_c, 0, 51, 0
1, 253920, Note_on_c, 0, 56, 0
1, 253920, Note_on_c, 0, 63, 0
1, 253920, Note_on_c, 0, 47, 0
1, 253920, Note_on_c, 0, 58, 22
1, 253920, Note_on_c, 0, 63, 27
1, 253920, Note_on_c, 0, 46, 21
1, 253920, Note_on_c, 0, 51, 25
1, 254400, Note_on_c, 0, 51, 0
1, 254400, Note_on_c, 0, 58, 0
1, 254400, Note_on_c, 0, 63, 0
1, 254400, Note_on_c, 0, 46, 0
1, 254400, Note_on_c, 0, 59, 22
1, 254400, Note_on_c, 0, 54, 22
1, 254400, Note_on_c, 0, 63, 27
1, 254400, Note_on_c, 0, 44, 20
1, 254400, Note_on_c, 0, 51, 24
1, 254880, Note_on_c, 0, 51, 0
1, 254880, Note_on_c, 0, 63, 0
1, 254880, Note_on_c, 0, 59, 0
1, 254880, Note_on_c, 0, 54, 0
1, 254880, Note_on_c, 0, 44, 0
1, 254880, Note_on_c, 0, 53, 24
1, 254880, Note_on_c, 0, 59, 28
1, 254880, Note_on_c, 0, 61, 28
1, 254880, Note_on_c, 0, 37, 20
1, 254888, Control_c, 0, 64, 0
1, 254986, Control_c, 0, 64, 127
1, 255360, Note_on_c, 0, 37, 0
1, 255360, Note_on_c, 0, 53, 0
1, 255360, Note_on_c, 0, 59, 0
1, 255360, Note_on_c, 0, 61, 0
1, 255360, Note_on_c, 0, 68, 39
1, 255360, Note_on_c, 0, 59, 22
1, 255360, Note_on_c, 0, 65, 27
1, 255840, Note_on_c, 0, 65, 0
1, 255840, Note_on_c, 0, 59, 0
1, 255840, Note_on_c, 0, 68, 0
1, 255840, Note_on_c, 0, 70, 39
1, 255840, Note_on_c, 0, 59, 22
1, 255840, Note_on_c, 0, 65, 27
1, 255840, Note_on_c, 0, 49, 27
1, 255869, Control_c, 0, 64, 0
1, 256080, Tempo, 531821
1, 256200, Note_on_c, 0, 49, 0
1, 256200, Note_on_c, 0, 50, 26
1, 256260, Note_on_c, 0, 50, 0
1, 256260, Note_on_c, 0, 51, 26
1, 256320, Tempo, 555401
1, 256320, Note_on_c, 0, 51, 0
1, 256320, Note_on_c, 0, 70, 0
1, 256320, Note_on_c, 0, 59, 0
1, 256320, Note_on_c, 0, 65, 0
1, 256320, Note_on_c, 0, 66, 46
1, 256320, Note_on_c, 0, 54, 25
1, 256320, Note_on_c, 0, 59, 30
1, 256320, Note_on_c, 0, 53, 25
1, 256360, Tempo, 552944
1, 256370, Control_c, 0, 64, 127
1, 256380, Tempo, 550560
1, 256400, Note_on_c, 0, 53, 0
1, 256400, Note_on_c, 0, 51, 21
1, 256420, Tempo, 548095
1, 256440, Tempo, 545752
1, 256480, Tempo, 543429
1, 256480, Note_on_c, 0, 51, 0
1, 256480, Note_on_c, 0, 53, 24
1, 256500, Tempo, 541077
1, 256520, Tempo, 538793
1, 256560, Tempo, 536433
1, 256560, Note_on_c, 0, 53, 0
1, 256560, Note_on_c, 0, 51, 22
1, 256580, Tempo, 534140
1, 256620, Tempo, 531821
1, 256640, Tempo, 529614
1, 256640, Note_on_c, 0, 51, 0
1, 256640, Note_on_c, 0, 53, 24
1, 256660, Tempo, 527426
1, 256700, Tempo, 525210
1, 256720, Tempo, 523013
1, 256720, Note_on_c, 0, 53, 0
1, 256720, Note_on_c, 0, 51, 21
1, 256760, Tempo, 520833
1, 256780, Tempo, 518717
1, 256800, Tempo, 516529
1, 256800, Note_on_c, 0, 51, 0
1, 256800, Note_on_c, 0, 59, 0
1, 256800, Note_on_c, 0, 54, 0
1, 256800, Note_on_c, 0, 54, 21
1, 256800, Note_on_c, 0, 59, 25
1, 256800, Note_on_c, 0, 53, 24
1, 256880, Tempo, 514403
1, 256880, Note_on_c, 0, 53, 0
1, 256880, Note_on_c, 0, 51, 21
1, 256960, Note_on_c, 0, 51, 0
1, 256960, Note_on_c, 0, 53, 24
1, 257020, Tempo, 512339
1, 257040, Note_on_c, 0, 53, 0
1, 257040, Note_on_c, 0, 51, 21
1, 257120, Note_on_c, 0, 51, 0
1, 257120, Note_on_c, 0, 53, 24
1, 257160, Tempo, 510291
1, 257200, Note_on_c, 0, 53, 0
1, 257200, Note_on_c, 0, 51, 21
1, 257280, Tempo, 508173
1, 257280, Note_on_c, 0, 51, 0
1, 257280, Note_on_c, 0, 59, 0
1, 257280, Note_on_c, 0, 54, 0
1, 257280, Note_on_c, 0, 66, 0
1, 257280, Note_on_c, 0, 63, 39
1, 257280, Note_on_c, 0, 54, 22
1, 257280, Note_on_c, 0, 59, 26
1, 257280, Note_on_c, 0, 53, 24
1, 257300, Tempo, 510291
1, 257320, Tempo, 512339
1, 257340, Tempo, 514403
1, 257360, Tempo, 516529
1, 257380, Tempo, 518717
1, 257400, Tempo, 520833
1, 257400, Note_on_c, 0, 53, 0
1, 257400, Note_on_c, 0, 51, 21
1, 257420, Tempo, 523013
1, 257440, Tempo, 525210
1, 257460, Tempo, 527426
1, 257480, Tempo, 529614
1, 257500, Tempo, 531821
1, 257520, Tempo, 534140
1, 257520, Note_on_c, 0, 51, 0
1, 257520, Note_on_c, 0, 53, 24
1, 257540, Tempo, 536433
1, 257560, Tempo, 538793
1, 257580, Tempo, 541077
1, 257580, Note_on_c, 0, 53, 0
1, 257580, Note_on_c, 0, 51, 20
1, 257600, Tempo, 543429
1, 257620, Tempo, 545752
1, 257640, Tempo, 536433
1, 257640, Note_on_c, 0, 51, 0
1, 257640, Note_on_c, 0, 49, 24
1, 257680, Tempo, 570559
1, 257700, Note_on_c, 0, 49, 0
1, 257700, Note_on_c, 0, 51, 18
1, 257720, Tempo, 508173
1, 257760, Tempo, 512339
1, 257760, Note_on_c, 0, 51, 0
1, 257760, Note_on_c, 0, 59, 0
1, 257760, Note_on_c, 0, 54, 0
1, 257760, Note_on_c, 0, 63, 0
1, 257760, Note_on_c, 0, 56, 27
1, 257760, Note_on_c, 0, 59, 27
1, 257760, Note_on_c, 0, 61, 36
1, 257760, Control_c, 0, 64, 0
1, 257760, Note_on_c, 0, 53, 32
1, 257769, Control_c, 0, 64, 0
1, 257920, Control_c, 0, 64, 127
1, 258240, Note_on_c, 0, 53, 0
1, 258240, Note_on_c, 0, 56, 0
1, 258240, Note_on_c, 0, 59, 0
1, 258240, Note_on_c, 0, 61, 0
1, 258240, Note_on_c, 0, 68, 39
1, 258240, Note_on_c, 0, 59, 23
1, 258240, Note_on_c, 0, 65, 27
1, 258240, Note_on_c, 0, 37, 25
1, 258720, Note_on_c, 0, 37, 0
1, 258720, Note_on_c, 0, 68, 0
1, 258720, Note_on_c, 0, 59, 0
1, 258720, Note_on_c, 0, 65, 0
1, 258720, Note_on_c, 0, 70, 39
1, 258720, Note_on_c, 0, 59, 23
1, 258720, Note_on_c, 0, 65, 27
1, 258720, Note_on_c, 0, 49, 27
1, 258737, Control_c, 0, 64, 0
1, 258960, Tempo, 527426
1, 259080, Note_on_c, 0, 49, 0
1, 259080, Note_on_c, 0, 50, 26
1, 259140, Note_on_c, 0, 50, 0
1, 259140, Note_on_c, 0, 51, 26
1, 259200, Tempo, 550560
1, 259200, Note_on_c, 0, 51, 0
1, 259200, Note_on_c, 0, 70, 0
1, 259200, Note_on_c, 0, 59, 0
1, 259200, Note_on_c, 0, 65, 0
1, 259200, Note_on_c, 0, 66, 46
1, 259200, Note_on_c, 0, 54, 25
1, 259200, Note_on_c, 0, 59, 30
1, 259200, Note_on_c, 0, 53, 25
1, 259236, Control_c, 0, 64, 127
1, 259240, Tempo, 548095
1, 259280, Tempo, 545752
1, 259280, Note_on_c, 0, 53, 0
1, 259280, Note_on_c, 0, 51, 21
1, 259300, Tempo, 543429
1, 259340, Tempo, 541077
1, 259360, Note_on_c, 0, 51, 0
1, 259360, Note_on_c, 0, 53, 24
1, 259380, Tempo, 538793
1, 259400, Tempo, 536433
1, 259440, Tempo, 534140
1, 259440, Note_on_c, 0, 53, 0
1, 259440, Note_on_c, 0, 51, 22
1, 259480, Tempo, 531821
1, 259500, Tempo, 529614
1, 259520, Note_on_c, 0, 51, 0
1, 259520, Note_on_c, 0, 53, 24
1, 259540, Tempo, 527426
1, 259580, Tempo, 525210
1, 259600, Tempo, 523013
1, 259600, Note_on_c, 0, 53, 0
1, 259600, Note_on_c, 0, 51, 21
1, 259640, Tempo, 520833
1, 259660, Tempo, 518717
1, 259680, Tempo, 514403
1, 259680, Note_on_c, 0, 51, 0
1, 259680, Note_on_c, 0, 59, 0
1, 259680, Note_on_c, 0, 54, 0
1, 259680, Note_on_c, 0, 54, 23
1, 259680, Note_on_c, 0, 59, 27
1, 259680, Note_on_c, 0, 53, 24
1, 259760, Note_on_c, 0, 53, 0
1, 259760, Note_on_c, 0, 51, 21
1, 259800, Tempo, 512339
1, 259840, Note_on_c, 0, 51, 0
1, 259840, Note_on_c, 0, 53, 24
1, 259920, Tempo, 510291
1, 259920, Note_on_c, 0, 53, 0
1, 259920, Note_on_c, 0, 51, 21
1, 260000, Note_on_c, 0, 51, 0
1, 260000, Note_on_c, 0, 53, 24
1, 260040, Tempo, 508173
1, 260080, Note_on_c, 0, 53, 0
1, 260080, Note_on_c, 0, 51, 21
1, 260140, Tempo, 506158
1, 260160, Tempo, 506158
1, 260160, Note_on_c, 0, 51, 0
1, 260160, Note_on_c, 0, 59, 0
1, 260160, Note_on_c, 0, 54, 0
1, 260160, Note_on_c, 0, 66, 0
1, 260160, Note_on_c, 0, 63, 43
1, 260160, Note_on_c, 0, 54, 23
1, 260160, Note_on_c, 0, 59, 27
1, 260160, Note_on_c, 0, 53, 24
1, 260200, Tempo, 508173
1, 260220, Tempo, 510291
1, 260240, Tempo, 512339
1, 260280, Tempo, 514403
1, 260280, Note_on_c, 0, 53, 0
1, 260280, Note_on_c, 0, 51, 21
1, 260300, Tempo, 516529
1, 260320, Tempo, 518717
1, 260340, Tempo, 520833
1, 260380, Tempo, 523013
1, 260400, Tempo, 525210
1, 260400, Note_on_c, 0, 51, 0
1, 260400, Note_on_c, 0, 53, 24
1, 260420, Tempo, 527426
1, 260440, Tempo, 529614
1, 260460, Note_on_c, 0, 53, 0
1, 260460, Note_on_c, 0, 51, 20
1, 260480, Tempo, 531821
1, 260500, Tempo, 534140
1, 260520, Tempo, 536433
1, 260520, Note_on_c, 0, 51, 0
1, 260520, Note_on_c, 0, 49, 24
1, 260540, Tempo, 538793
1, 260560, Tempo, 557932
1, 260580, Note_on_c, 0, 49, 0
1, 260580, Note_on_c, 0, 51, 18
1, 260600, Tempo, 508173
1, 260640, Note_on_c, 0, 51, 0
1, 260640, Note_on_c, 0, 59, 0
1, 260640, Note_on_c, 0, 54, 0
1, 260640, Note_on_c, 0, 63, 0
1, 260640, Note_on_c, 0, 56, 27
1, 260640, Note_on_c, 0, 59, 27
1, 260640, Note_on_c, 0, 61, 31
1, 260640, Note_on_c, 0, 53, 34
1, 260649, Control_c, 0, 64, 0
1, 260969, Control_c, 0, 64, 127
1, 261120, Tempo, 502092
1, 261120, Note_on_c, 0, 53, 0
1, 261120, Note_on_c, 0, 56, 0
1, 261120, Note_on_c, 0, 59, 0
1, 261120, Note_on_c, 0, 61, 0
1, 261120, Note_on_c, 0, 68, 44
1, 261120, Note_on_c, 0, 59, 28
1, 261120, Note_on_c, 0, 65, 34
1, 261120, Note_on_c, 0, 37, 36
1, 261600, Tempo, 512339
1, 261600, Note_on_c, 0, 37, 0
1, 261600, Note_on_c, 0, 68, 0
1, 261600, Note_on_c, 0, 59, 0
1, 261600, Note_on_c, 0, 65, 0
1, 261600, Note_on_c, 0, 70, 45
1, 261600, Note_on_c, 0, 59, 30
1, 261600, Note_on_c, 0, 65, 36
1, 261600, Note_on_c, 0, 49, 17
1, 261600, Note_on_c, 0, 56, 17
1, 261600, Note_on_c, 0, 61, 26
1, 262080, Note_on_c, 0, 61, 0
1, 262080, Note_on_c, 0, 59, 0
1, 262080, Note_on_c, 0, 65, 0
1, 262080, Note_on_c, 0, 70, 0
1, 262080, Note_on_c, 0, 56, 0
1, 262080, Note_on_c, 0, 49, 0
1, 262080, Note_on_c, 0, 71, 47
1, 262080, Note_on_c, 0, 59, 31
1, 262080, Note_on_c, 0, 65, 37
1, 262080, Note_on_c, 0, 49, 20
1, 262080, Note_on_c, 0, 56, 20
1, 262080, Note_on_c, 0, 61, 28
1, 262092, Control_c, 0, 64, 0
1, 262309, Control_c, 0, 64, 127
1, 262560, Tempo, 525210
1, 262560, Note_on_c, 0, 61, 0
1, 262560, Note_on_c, 0, 59, 0
1, 262560, Note_on_c, 0, 65, 0
1, 262560, Note_on_c, 0, 71, 0
1, 262560, Note_on_c, 0, 56, 0
1, 262560, Note_on_c, 0, 49, 0
1, 262560, Note_on_c, 0, 72, 48
1, 262560, Note_on_c, 0, 60, 32
1, 262560, Note_on_c, 0, 65, 39
1, 262560, Note_on_c, 0, 49, 21
1, 262560, Note_on_c, 0, 56, 21
1, 262560, Note_on_c, 0, 59, 32
1, 263040, Tempo, 518717
1, 263040, Note_on_c, 0, 59, 0
1, 263040, Note_on_c, 0, 60, 0
1, 263040, Note_on_c, 0, 65, 0
1, 263040, Note_on_c, 0, 72, 0
1, 263040, Note_on_c, 0, 56, 0
1, 263040, Note_on_c, 0, 49, 0
1, 263040, Note_on_c, 0, 73, 52
1, 263040, Note_on_c, 0, 61, 35
1, 263040, Note_on_c, 0, 65, 42
1, 263040, Note_on_c, 0, 49, 21
1, 263040, Note_on_c, 0, 56, 21
1, 263040, Note_on_c, 0, 59, 34
1, 263520, Tempo, 527426
1, 263520, Note_on_c, 0, 59, 0
1, 263520, Note_on_c, 0, 61, 0
1, 263520, Note_on_c, 0, 65, 0
1, 263520, Note_on_c, 0, 73, 0
1, 263520, Note_on_c, 0, 56, 0
1, 263520, Note_on_c, 0, 49, 0
1, 263520, Note_on_c, 0, 74, 52
1, 263520, Note_on_c, 0, 62, 37
1, 263520, Note_on_c, 0, 65, 45
1, 263520, Note_on_c, 0, 49, 27
1, 263520, Note_on_c, 0, 56, 27
1, 263520, Note_on_c, 0, 59, 37
1, 263529, Control_c, 0, 64, 0
1, 263669, Control_c, 0, 64, 127
1, 264000, Tempo, 553914
1, 264000, Note_on_c, 0, 59, 0
1, 264000, Note_on_c, 0, 62, 0
1, 264000, Note_on_c, 0, 65, 0
1, 264000, Note_on_c, 0, 74, 0
1, 264000, Note_on_c, 0, 56, 0
1, 264000, Note_on_c, 0, 49, 0
1, 264000, Note_on_c, 0, 75, 51
1, 264000, Note_on_c, 0, 63, 34
1, 264000, Note_on_c, 0, 65, 41
1, 264000, Note_on_c, 0, 49, 20
1, 264000, Note_on_c, 0, 56, 20
1, 264000, Note_on_c, 0, 59, 31
1, 264017, Control_c, 0, 64, 0
1, 264199, Control_c, 0, 64, 127
1, 264463, Control_c, 0, 64, 0
1, 264475, Note_on_c, 0, 59, 0
1, 264478, Note_on_c, 0, 65, 0
1, 264480, Tempo, 553914
1, 264480, Note_on_c, 0, 49, 0
1, 264480, Note_on_c, 0, 75, 0
1, 264480, Note_on_c, 0, 63, 0
1, 264480, Note_on_c, 0, 56, 0
1, 264480, Note_on_c, 0, 65, 35
1, 264480, Note_on_c, 0, 59, 24
1, 264480, Note_on_c, 0, 61, 28
1, 264480, Note_on_c, 0, 49, 17
1, 264480, Note_on_c, 0, 56, 26
1, 264629, Control_c, 0, 64, 127
1, 264960, Note_on_c, 0, 56, 0
1, 264960, Note_on_c, 0, 61, 0
1, 264960, Note_on_c, 0, 65, 0
1, 264960, Note_on_c, 0, 59, 0
1, 264960, Note_on_c, 0, 49, 0
1, 264960, Note_on_c, 0, 66, 36
1, 264960, Note_on_c, 0, 58, 26
1, 264960, Note_on_c, 0, 61, 30
1, 264960, Control_c, 0, 64, 0
1, 264960, Note_on_c, 0, 42, 18
1, 264960, Note_on_c, 0, 49, 26
1, 265440, Tempo, 541126
1, 265440, Marker_t, "Teil 3 Wiederholung"
1, 265440, Note_on_c, 0, 49, 0
1, 265440, Note_on_c, 0, 61, 0
1, 265440, Note_on_c, 0, 66, 0
1, 265440, Note_on_c, 0, 58, 0
1, 265440, Note_on_c, 0, 42, 0
1, 265440, Note_on_c, 0, 58, 39
1, 265680, Tempo, 519481
1, 265680, Note_on_c, 0, 58, 0
1, 265680, Note_on_c, 0, 56, 37
1, 265920, Tempo, 507743
1, 265920, Note_on_c, 0, 56, 0
1, 265920, Note_on_c, 0, 54, 36
1, 266160, Note_on_c, 0, 54, 0
1, 266160, Note_on_c, 0, 53, 35
1, 266360, Tempo, 507743
1, 266380, Tempo, 514139
1, 266400, Tempo, 506329
1, 266400, Note_on_c, 0, 53, 0
1, 266400, Note_on_c, 0, 56, 30
1, 266400, Note_on_c, 0, 60, 30
1, 266400, Note_on_c, 0, 66, 36
1, 266400, Note_on_c, 0, 68, 36
1, 266400, Note_on_c, 0, 53, 39
1, 266640, Note_on_c, 0, 53, 0
1, 266640, Note_on_c, 0, 51, 39
1, 266880, Tempo, 502092
1, 266880, Note_on_c, 0, 51, 0
1, 266880, Note_on_c, 0, 49, 37
1, 267120, Note_on_c, 0, 49, 0
1, 267120, Note_on_c, 0, 48, 36
1, 267360, Tempo, 512821
1, 267360, Note_on_c, 0, 48, 0
1, 267360, Note_on_c, 0, 46, 35
1, 267600, Tempo, 526316
1, 267600, Note_on_c, 0, 46, 0
1, 267600, Note_on_c, 0, 44, 35
1, 267840, Tempo, 535714
1, 267840, Note_on_c, 0, 44, 0
1, 267840, Note_on_c, 0, 68, 0
1, 267840, Note_on_c, 0, 56, 0
1, 267840, Note_on_c, 0, 60, 0
1, 267840, Note_on_c, 0, 66, 0
1, 267840, Note_on_c, 0, 56, 30
1, 267840, Note_on_c, 0, 61, 30
1, 267840, Note_on_c, 0, 65, 30
1, 267840, Note_on_c, 0, 68, 36
1, 267840, Note_on_c, 0, 37, 35
1, 268080, Note_on_c, 0, 37, 0
1, 268320, Tempo, 524109
1, 268320, Note_on_c, 0, 56, 0
1, 268320, Note_on_c, 0, 58, 42
1, 268560, Note_on_c, 0, 58, 0
1, 268560, Note_on_c, 0, 56, 37
1, 268800, Tempo, 511989
1, 268800, Note_on_c, 0, 56, 0
1, 268800, Note_on_c, 0, 54, 36
1, 269040, Note_on_c, 0, 54, 0
1, 269040, Note_on_c, 0, 53, 36
1, 269260, Tempo, 516262
1, 269280, Tempo, 508475
1, 269280, Note_on_c, 0, 53, 0
1, 269280, Note_on_c, 0, 61, 0
1, 269280, Note_on_c, 0, 65, 0
1, 269280, Note_on_c, 0, 68, 0
1, 269280, Note_on_c, 0, 60, 31
1, 269280, Note_on_c, 0, 66, 37
1, 269280, Note_on_c, 0, 68, 37
1, 269280, Note_on_c, 0, 53, 39
1, 269520, Note_on_c, 0, 53, 0
1, 269520, Note_on_c, 0, 51, 39
1, 269760, Tempo, 500000
1, 269760, Note_on_c, 0, 51, 0
1, 269760, Note_on_c, 0, 49, 37
1, 270000, Note_on_c, 0, 49, 0
1, 270000, Note_on_c, 0, 48, 36
1, 270240, Tempo, 515021
1, 270240, Note_on_c, 0, 48, 0
1, 270240, Note_on_c, 0, 60, 0
1, 270240, Note_on_c, 0, 61, 42
1, 270240, Note_on_c, 0, 46, 36
1, 270480, Tempo, 530973
1, 270480, Note_on_c, 0, 46, 0
1, 270480, Note_on_c, 0, 61, 0
1, 270480, Note_on_c, 0, 63, 37
1, 270480, Note_on_c, 0, 44, 35
1, 270720, Tempo, 518896
1, 270720, Note_on_c, 0, 44, 0
1, 270720, Note_on_c, 0, 66, 0
1, 270720, Note_on_c, 0, 68, 0
1, 270720, Note_on_c, 0, 63, 0
1, 270720, Note_on_c, 0, 64, 45
1, 270720, Note_on_c, 0, 68, 45
1, 270720, Note_on_c, 0, 37, 35
1, 270960, Note_on_c, 0, 37, 0
1, 271200, Note_on_c, 0, 64, 0
1, 271200, Note_on_c, 0, 65, 39
1, 271200, Note_on_c, 0, 56, 35
1, 271240, Tempo, 506329
1, 271440, Tempo, 528867
1, 271440, Note_on_c, 0, 56, 0
1, 271440, Note_on_c, 0, 58, 36
1, 271680, Tempo, 517152
1, 271680, Note_on_c, 0, 58, 0
1, 271680, Note_on_c, 0, 60, 37
1, 271920, Tempo, 503567
1, 271920, Note_on_c, 0, 60, 0
1, 271920, Note_on_c, 0, 68, 0
1, 271920, Note_on_c, 0, 77, 52
1, 271920, Note_on_c, 0, 61, 41
1, 272160, Tempo, 509857
1, 272160, Note_on_c, 0, 61, 0
1, 272160, Note_on_c, 0, 77, 0
1, 272160, Note_on_c, 0, 65, 0
1, 272160, Note_on_c, 0, 63, 39
1, 272160, Note_on_c, 0, 69, 39
1, 272160, Note_on_c, 0, 77, 49
1, 272160, Note_on_c, 0, 61, 45
1, 272400, Note_on_c, 0, 61, 0
1, 272400, Note_on_c, 0, 60, 37
1, 272640, Tempo, 511989
1, 272640, Note_on_c, 0, 60, 0
1, 272640, Note_on_c, 0, 52, 41
1, 272880, Note_on_c, 0, 52, 0
1, 272880, Note_on_c, 0, 53, 36
1, 273120, Tempo, 523378
1, 273120, Note_on_c, 0, 53, 0
1, 273120, Note_on_c, 0, 77, 0
1, 273120, Note_on_c, 0, 69, 0
1, 273120, Note_on_c, 0, 69, 39
1, 273120, Note_on_c, 0, 61, 39
1, 273360, Note_on_c, 0, 61, 0
1, 273360, Note_on_c, 0, 60, 35
1, 273600, Note_on_c, 0, 60, 0
1, 273600, Note_on_c, 0, 69, 0
1, 273600, Note_on_c, 0, 63, 0
1, 273600, Note_on_c, 0, 70, 46
1, 273600, Note_on_c, 0, 61, 39
1, 273600, Note_on_c, 0, 58, 39
1, 274080, Tempo, 516751
1, 274080, Note_on_c, 0, 58, 0
1, 274080, Note_on_c, 0, 46, 41
1, 274320, Tempo, 507743
1, 274320, Note_on_c, 0, 46, 0
1, 274320, Note_on_c, 0, 53, 35
1, 274560, Note_on_c, 0, 53, 0
1, 274560, Note_on_c, 0, 70, 0
1, 274560, Note_on_c, 0, 65, 37
1, 274560, Note_on_c, 0, 73, 45
1, 274560, Note_on_c, 0, 56, 37
1, 274800, Note_on_c, 0, 56, 0
1, 274800, Note_on_c, 0, 60, 35
1, 275040, Tempo, 507743
1, 275040, Note_on_c, 0, 60, 0
1, 275040, Note_on_c, 0, 73, 0
1, 275040, Note_on_c, 0, 65, 0
1, 275040, Note_on_c, 0, 61, 0
1, 275040, Note_on_c, 0, 61, 34
1, 275040, Note_on_c, 0, 63, 39
1, 275040, Note_on_c, 0, 67, 47
1, 275040, Note_on_c, 0, 60, 39
1, 275240, Tempo, 509857
1, 275280, Note_on_c, 0, 60, 0
1, 275280, Note_on_c, 0, 58, 35
1, 275400, Tempo, 511989
1, 275520, Note_on_c, 0, 58, 0
1, 275520, Note_on_c, 0, 50, 36
1, 275600, Tempo, 514139
1, 275760, Tempo, 516262
1, 275760, Note_on_c, 0, 50, 0
1, 275760, Note_on_c, 0, 51, 35
1, 275920, Tempo, 518448
1, 276000, Tempo, 527844
1, 276000, Note_on_c, 0, 51, 0
1, 276000, Note_on_c, 0, 60, 37
1, 276240, Note_on_c, 0, 60, 0
1, 276240, Note_on_c, 0, 58, 35
1, 276480, Note_on_c, 0, 58, 0
1, 276480, Note_on_c, 0, 67, 0
1, 276480, Note_on_c, 0, 63, 0
1, 276480, Note_on_c, 0, 61, 0
1, 276480, Note_on_c, 0, 60, 39
1, 276480, Note_on_c, 0, 63, 39
1, 276480, Note_on_c, 0, 68, 47
1, 276480, Note_on_c, 0, 56, 37
1, 276960, Tempo, 536145
1, 276960, Note_on_c, 0, 56, 0
1, 276960, Note_on_c, 0, 58, 39
1, 277200, Tempo, 517152
1, 277200, Note_on_c, 0, 58, 0
1, 277200, Note_on_c, 0, 56, 37
1, 277440, Note_on_c, 0, 56, 0
1, 277440, Note_on_c, 0, 60, 0
1, 277440, Note_on_c, 0, 63, 0
1, 277440, Note_on_c, 0, 68, 0
1, 277440, Note_on_c, 0, 61, 37
1, 277440, Note_on_c, 0, 65, 37
1, 277440, Note_on_c, 0, 68, 45
1, 277440, Note_on_c, 0, 54, 36
1, 277680, Note_on_c, 0, 54, 0
1, 277680, Note_on_c, 0, 53, 35
1, 277920, Tempo, 506329
1, 277920, Note_on_c, 0, 53, 0
1, 277920, Note_on_c, 0, 68, 0
1, 277920, Note_on_c, 0, 65, 0
1, 277920, Note_on_c, 0, 61, 0
1, 277920, Note_on_c, 0, 60, 30
1, 277920, Note_on_c, 0, 66, 36
1, 277920, Note_on_c, 0, 68, 36
1, 277920, Note_on_c, 0, 53, 39
1, 278160, Note_on_c, 0, 53, 0
1, 278160, Note_on_c, 0, 51, 39
1, 278400, Tempo, 500000
1, 278400, Note_on_c, 0, 51, 0
1, 278400, Note_on_c, 0, 49, 37
1, 278640, Note_on_c, 0, 49, 0
1, 278640, Note_on_c, 0, 48, 36
1, 278880, Tempo, 512821
1, 278880, Note_on_c, 0, 48, 0
1, 278880, Note_on_c, 0, 46, 35
1, 279120, Tempo, 528634
1, 279120, Note_on_c, 0, 46, 0
1, 279120, Note_on_c, 0, 44, 35
1, 279360, Tempo, 538117
1, 279360, Note_on_c, 0, 44, 0
1, 279360, Note_on_c, 0, 68, 0
1, 279360, Note_on_c, 0, 66, 0
1, 279360, Note_on_c, 0, 60, 0
1, 279360, Note_on_c, 0, 61, 39
1, 279360, Note_on_c, 0, 65, 43
1, 279360, Note_on_c, 0, 68, 46
1, 279360, Note_on_c, 0, 37, 35
1, 279600, Note_on_c, 0, 37, 0
1, 279840, Tempo, 528867
1, 279840, Note_on_c, 0, 58, 42
1, 280080, Tempo, 519481
1, 280080, Note_on_c, 0, 58, 0
1, 280080, Note_on_c, 0, 56, 37
1, 280320, Tempo, 511989
1, 280320, Note_on_c, 0, 56, 0
1, 280320, Note_on_c, 0, 61, 0
1, 280320, Note_on_c, 0, 56, 35
1, 280320, Note_on_c, 0, 54, 36
1, 280560, Note_on_c, 0, 54, 0
1, 280560, Note_on_c, 0, 53, 36
1, 280800, Tempo, 521739
1, 280800, Note_on_c, 0, 53, 0
1, 280800, Note_on_c, 0, 56, 0
1, 280800, Note_on_c, 0, 68, 0
1, 280800, Note_on_c, 0, 65, 0
1, 280800, Note_on_c, 0, 60, 45
1, 280800, Note_on_c, 0, 66, 40
1, 280800, Note_on_c, 0, 68, 45
1, 280800, Note_on_c, 0, 53, 39
1, 281040, Note_on_c, 0, 53, 0
1, 281040, Note_on_c, 0, 51, 39
1, 281280, Tempo, 512821
1, 281280, Note_on_c, 0, 51, 0
1, 281280, Note_on_c, 0, 60, 0
1, 281280, Note_on_c, 0, 58, 38
1, 281280, Note_on_c, 0, 49, 37
1, 281520, Note_on_c, 0, 49, 0
1, 281520, Note_on_c, 0, 58, 0
1, 281520, Note_on_c, 0, 56, 34
1, 281520, Note_on_c, 0, 48, 36
1, 281760, Tempo, 530129
1, 281760, Note_on_c, 0, 48, 0
1, 281760, Note_on_c, 0, 56, 0
1, 281760, Note_on_c, 0, 61, 42
1, 281760, Note_on_c, 0, 46, 36
1, 282000, Note_on_c, 0, 46, 0
1, 282000, Note_on_c, 0, 61, 0
1, 282000, Note_on_c, 0, 63, 37
1, 282000, Note_on_c, 0, 44, 35
1, 282240, Note_on_c, 0, 44, 0
1, 282240, Note_on_c, 0, 66, 0
1, 282240, Note_on_c, 0, 68, 0
1, 282240, Note_on_c, 0, 63, 0
1, 282240, Note_on_c, 0, 65, 39
1, 282240, Note_on_c, 0, 68, 47
1, 282240, Note_on_c, 0, 37, 35
1, 282423, Control_c, 0, 64, 127
1, 282480, Note_on_c, 0, 37, 0
1, 282720, Tempo, 519481
1, 282720, Note_on_c, 0, 56, 39
1, 282960, Note_on_c, 0, 56, 0
1, 282960, Note_on_c, 0, 55, 36
1, 283200, Tempo, 528867
1, 283200, Note_on_c, 0, 55, 0
1, 283200, Note_on_c, 0, 65, 0
1, 283200, Note_on_c, 0, 64, 42
1, 283200, Note_on_c, 0, 58, 39
1, 283211, Control_c, 0, 64, 0
1, 283440, Note_on_c, 0, 58, 0
1, 283440, Note_on_c, 0, 56, 34
1, 283680, Note_on_c, 0, 56, 0
1, 283680, Note_on_c, 0, 64, 0
1, 283680, Note_on_c, 0, 68, 0
1, 283680, Note_on_c, 0, 68, 45
1, 283680, Note_on_c, 0, 63, 38
1, 283680, Note_on_c, 0, 59, 39
1, 283821, Control_c, 0, 64, 127
1, 284160, Tempo, 538600
1, 284160, Note_on_c, 0, 59, 0
1, 284160, Note_on_c, 0, 47, 43
1, 284400, Note_on_c, 0, 47, 0
1, 284400, Note_on_c, 0, 53, 39
1, 284640, Tempo, 533665
1, 284640, Note_on_c, 0, 53, 0
1, 284640, Note_on_c, 0, 68, 0
1, 284640, Note_on_c, 0, 66, 38
1, 284640, Note_on_c, 0, 56, 43
1, 284650, Control_c, 0, 64, 0
1, 284880, Note_on_c, 0, 56, 0
1, 284880, Note_on_c, 0, 54, 39
1, 285118, Note_on_c, 0, 66, 0
1, 285120, Tempo, 538600
1, 285120, Note_on_c, 0, 54, 0
1, 285120, Note_on_c, 0, 63, 0
1, 285120, Note_on_c, 0, 62, 37
1, 285120, Note_on_c, 0, 66, 45
1, 285120, Note_on_c, 0, 58, 45
1, 285600, Note_on_c, 0, 58, 0
1, 285600, Note_on_c, 0, 62, 0
1, 285600, Note_on_c, 0, 61, 39
1, 285600, Note_on_c, 0, 42, 41
1, 285671, Control_c, 0, 64, 127
1, 285840, Tempo, 526501
1, 285840, Note_on_c, 0, 42, 0
1, 285840, Note_on_c, 0, 49, 36
1, 286080, Tempo, 538600
1, 286080, Note_on_c, 0, 49, 0
1, 286080, Note_on_c, 0, 66, 0
1, 286080, Note_on_c, 0, 63, 39
1, 286080, Note_on_c, 0, 73, 47
1, 286080, Note_on_c, 0, 54, 41
1, 286320, Note_on_c, 0, 54, 0
1, 286320, Note_on_c, 0, 58, 36
1, 286560, Tempo, 538600
1, 286560, Note_on_c, 0, 58, 0
1, 286560, Note_on_c, 0, 73, 0
1, 286560, Note_on_c, 0, 63, 0
1, 286560, Note_on_c, 0, 61, 0
1, 286560, Note_on_c, 0, 61, 41
1, 286560, Note_on_c, 0, 65, 41
1, 286560, Note_on_c, 0, 73, 48
1, 286560, Note_on_c, 0, 56, 43
1, 286578, Control_c, 0, 64, 0
1, 287040, Tempo, 533665
1, 287040, Note_on_c, 0, 56, 0
1, 287040, Note_on_c, 0, 37, 39
1, 287210, Control_c, 0, 64, 127
1, 287280, Note_on_c, 0, 37, 0
1, 287280, Note_on_c, 0, 44, 35
1, 287520, Tempo, 541126
1, 287520, Note_on_c, 0, 44, 0
1, 287520, Note_on_c, 0, 49, 39
1, 287760, Note_on_c, 0, 49, 0
1, 287760, Note_on_c, 0, 56, 36
1, 287998, Note_on_c, 0, 61, 0
1, 288000, Note_on_c, 0, 65, 0
1, 288000, Note_on_c, 0, 73, 0
1, 288000, Note_on_c, 0, 56, 0
1, 288000, Note_on_c, 0, 65, 31
1, 288000, Note_on_c, 0, 68, 37
1, 288000, Note_on_c, 0, 61, 39
1, 288019, Control_c, 0, 64, 0
1, 288240, Note_on_c, 0, 61, 0
1, 288240, Note_on_c, 0, 60, 34
1, 288480, Note_on_c, 0, 60, 0
1, 288480, Note_on_c, 0, 59, 34
1, 288720, Note_on_c, 0, 59, 0
1, 288720, Note_on_c, 0, 58, 34
1, 288960, Tempo, 539374
1, 288960, Note_on_c, 0, 58, 0
1, 288960, Note_on_c, 0, 68, 0
1, 288960, Note_on_c, 0, 69, 45
1, 288960, Note_on_c, 0, 59, 41
1, 289200, Tempo, 559024
1, 289200, Note_on_c, 0, 59, 0
1, 289200, Note_on_c, 0, 49, 34
1, 289440, Tempo, 528867
1, 289440, Note_on_c, 0, 49, 0
1, 289440, Note_on_c, 0, 69, 0
1, 289440, Note_on_c, 0, 65, 0
1, 289440, Note_on_c, 0, 70, 54
1, 289440, Note_on_c, 0, 42, 37
1, 289450, Control_c, 0, 64, 0
1, 289707, Control_c, 0, 64, 127
1, 289920, Tempo, 510421
1, 289920, Note_on_c, 0, 42, 0
1, 289920, Note_on_c, 0, 70, 0
1, 289920, Note_on_c, 0, 65, 49
1, 289920, Note_on_c, 0, 58, 25
1, 289920, Note_on_c, 0, 63, 25
1, 289920, Note_on_c, 0, 54, 21
1, 289920, Note_on_c, 0, 49, 21
1, 290400, Tempo, 517152
1, 290400, Note_on_c, 0, 49, 0
1, 290400, Note_on_c, 0, 63, 0
1, 290400, Note_on_c, 0, 65, 0
1, 290400, Note_on_c, 0, 58, 0
1, 290400, Note_on_c, 0, 54, 0
1, 290400, Note_on_c, 0, 66, 52
1, 290400, Note_on_c, 0, 58, 22
1, 290400, Note_on_c, 0, 49, 18
1, 290400, Note_on_c, 0, 54, 18
1, 290400, Note_on_c, 0, 61, 23
1, 290860, Tempo, 510421
1, 290880, Note_on_c, 0, 61, 0
1, 290880, Note_on_c, 0, 49, 0
1, 290880, Note_on_c, 0, 66, 0
1, 290880, Note_on_c, 0, 58, 0
1, 290880, Note_on_c, 0, 54, 0
1, 290880, Note_on_c, 0, 75, 57
1, 290880, Note_on_c, 0, 42, 34
1, 290893, Control_c, 0, 64, 0
1, 291147, Control_c, 0, 64, 127
1, 291360, Tempo, 507485
1, 291360, Note_on_c, 0, 42, 0
1, 291360, Note_on_c, 0, 58, 20
1, 291360, Note_on_c, 0, 66, 25
1, 291360, Note_on_c, 0, 63, 23
1, 291360, Note_on_c, 0, 49, 18
1, 291360, Note_on_c, 0, 54, 18
1, 291840, Tempo, 512295
1, 291840, Note_on_c, 0, 54, 0
1, 291840, Note_on_c, 0, 58, 0
1, 291840, Note_on_c, 0, 66, 0
1, 291840, Note_on_c, 0, 75, 0
1, 291840, Note_on_c, 0, 49, 0
1, 291840, Note_on_c, 0, 63, 0
1, 291840, Note_on_c, 0, 73, 52
1, 291840, Note_on_c, 0, 58, 20
1, 291840, Note_on_c, 0, 66, 25
1, 291840, Note_on_c, 0, 49, 15
1, 291840, Note_on_c, 0, 54, 15
1, 291840, Note_on_c, 0, 61, 18
1, 292320, Tempo, 509122
1, 292320, Note_on_c, 0, 61, 0
1, 292320, Note_on_c, 0, 58, 0
1, 292320, Note_on_c, 0, 66, 0
1, 292320, Note_on_c, 0, 73, 0
1, 292320, Note_on_c, 0, 54, 0
1, 292320, Note_on_c, 0, 49, 0
1, 292320, Note_on_c, 0, 73, 52
1, 292320, Note_on_c, 0, 37, 33
1, 292333, Control_c, 0, 64, 0
1, 292614, Control_c, 0, 64, 127
1, 292800, Tempo, 517152
1, 292800, Note_on_c, 0, 37, 0
1, 292800, Note_on_c, 0, 73, 0
1, 292800, Note_on_c, 0, 66, 45
1, 292800, Note_on_c, 0, 59, 23
1, 292800, Note_on_c, 0, 63, 27
1, 292800, Note_on_c, 0, 54, 23
1, 292800, Note_on_c, 0, 49, 23
1, 293280, Tempo, 526501
1, 293280, Note_on_c, 0, 49, 0
1, 293280, Note_on_c, 0, 63, 0
1, 293280, Note_on_c, 0, 66, 0
1, 293280, Note_on_c, 0, 59, 0
1, 293280, Note_on_c, 0, 54, 0
1, 293280, Note_on_c, 0, 68, 45
1, 293280, Note_on_c, 0, 65, 27
1, 293280, Note_on_c, 0, 59, 22
1, 293280, Note_on_c, 0, 49, 18
1, 293280, Note_on_c, 0, 54, 18
1, 293280, Note_on_c, 0, 61, 23
1, 293760, Note_on_c, 0, 61, 0
1, 293760, Note_on_c, 0, 65, 0
1, 293760, Note_on_c, 0, 59, 0
1, 293760, Note_on_c, 0, 68, 0
1, 293760, Note_on_c, 0, 54, 0
1, 293760, Note_on_c, 0, 49, 0
1, 293760, Note_on_c, 0, 70, 52
1, 293760, Note_on_c, 0, 42, 34
1, 293771, Control_c, 0, 64, 0
1, 294000, Control_c, 0, 64, 127
1, 294240, Tempo, 512601
1, 294240, Note_on_c, 0, 42, 0
1, 294240, Note_on_c, 0, 58, 24
1, 294240, Note_on_c, 0, 66, 28
1, 294240, Note_on_c, 0, 63, 24
1, 294240, Note_on_c, 0, 49, 20
1, 294240, Note_on_c, 0, 54, 20
1, 294720, Tempo, 519481
1, 294720, Note_on_c, 0, 54, 0
1, 294720, Note_on_c, 0, 58, 0
1, 294720, Note_on_c, 0, 66, 0
1, 294720, Note_on_c, 0, 63, 0
1, 294720, Note_on_c, 0, 49, 0
1, 294720, Note_on_c, 0, 58, 23
1, 294720, Note_on_c, 0, 66, 27
1, 294720, Note_on_c, 0, 49, 17
1, 294720, Note_on_c, 0, 54, 17
1, 294720, Note_on_c, 0, 61, 22
1, 295200, Tempo, 514889
1, 295200, Note_on_c, 0, 61, 0
1, 295200, Note_on_c, 0, 58, 0
1, 295200, Note_on_c, 0, 66, 0
1, 295200, Note_on_c, 0, 49, 0
1, 295200, Note_on_c, 0, 54, 0
1, 295200, Note_on_c, 0, 58, 23
1, 295200, Note_on_c, 0, 66, 27
1, 295200, Note_on_c, 0, 49, 12
1, 295200, Note_on_c, 0, 54, 15
1, 295200, Note_on_c, 0, 61, 22
1, 295680, Tempo, 507485
1, 295680, Note_on_c, 0, 61, 0
1, 295680, Note_on_c, 0, 58, 0
1, 295680, Note_on_c, 0, 66, 0
1, 295680, Note_on_c, 0, 49, 0
1, 295680, Note_on_c, 0, 54, 0
1, 295680, Note_on_c, 0, 61, 20
1, 295680, Note_on_c, 0, 66, 24
1, 295680, Note_on_c, 0, 49, 18
1, 295680, Note_on_c, 0, 54, 18
1, 295680, Note_on_c, 0, 59, 23
1, 296160, Tempo, 513919
1, 296160, Note_on_c, 0, 59, 0
1, 296160, Note_on_c, 0, 61, 0
1, 296160, Note_on_c, 0, 66, 0
1, 296160, Note_on_c, 0, 49, 0
1, 296160, Note_on_c, 0, 54, 0
1, 296160, Note_on_c, 0, 61, 20
1, 296160, Note_on_c, 0, 66, 24
1, 296160, Note_on_c, 0, 49, 12
1, 296160, Note_on_c, 0, 54, 15
1, 296160, Note_on_c, 0, 58, 21
1, 296640, Tempo, 507485
1, 296640, Note_on_c, 0, 58, 0
1, 296640, Note_on_c, 0, 61, 0
1, 296640, Note_on_c, 0, 66, 0
1, 296640, Note_on_c, 0, 49, 0
1, 296640, Note_on_c, 0, 54, 0
1, 296640, Note_on_c, 0, 61, 20
1, 296640, Note_on_c, 0, 66, 24
1, 296640, Note_on_c, 0, 49, 20
1, 296640, Note_on_c, 0, 54, 20
1, 296640, Note_on_c, 0, 58, 23
1, 296652, Control_c, 0, 64, 0
1, 297120, Note_on_c, 0, 58, 0
1, 297120, Note_on_c, 0, 61, 0
1, 297120, Note_on_c, 0, 66, 0
1, 297120, Note_on_c, 0, 70, 0
1, 297120, Note_on_c, 0, 54, 0
1, 297120, Note_on_c, 0, 49, 0
1, 297120, Note_on_c, 0, 56, 20
1, 297120, Note_on_c, 0, 61, 24
1, 297120, Note_on_c, 0, 47, 20
1, 297120, Note_on_c, 0, 49, 24
1, 297600, Tempo, 513919
1, 297600, Note_on_c, 0, 49, 0
1, 297600, Note_on_c, 0, 56, 0
1, 297600, Note_on_c, 0, 61, 0
1, 297600, Note_on_c, 0, 47, 0
1, 297600, Note_on_c, 0, 54, 20
1, 297600, Note_on_c, 0, 61, 24
1, 297600, Note_on_c, 0, 46, 20
1, 297600, Note_on_c, 0, 49, 24
1, 298080, Tempo, 518762
1, 298080, Note_on_c, 0, 49, 0
1, 298080, Note_on_c, 0, 54, 0
1, 298080, Note_on_c, 0, 61, 0
1, 298080, Note_on_c, 0, 46, 0
1, 298080, Note_on_c, 0, 54, 20
1, 298080, Note_on_c, 0, 61, 24
1, 298080, Note_on_c, 0, 46, 20
1, 298080, Note_on_c, 0, 49, 24
1, 298560, Tempo, 512295
1, 298560, Note_on_c, 0, 49, 0
1, 298560, Note_on_c, 0, 54, 0
1, 298560, Note_on_c, 0, 61, 0
1, 298560, Note_on_c, 0, 46, 0
1, 298560, Note_on_c, 0, 56, 18
1, 298560, Note_on_c, 0, 61, 23
1, 298560, Note_on_c, 0, 47, 20
1, 298560, Note_on_c, 0, 49, 24
1, 299040, Note_on_c, 0, 49, 0
1, 299040, Note_on_c, 0, 56, 0
1, 299040, Note_on_c, 0, 61, 0
1, 299040, Note_on_c, 0, 47, 0
1, 299040, Note_on_c, 0, 54, 18
1, 299040, Note_on_c, 0, 61, 23
1, 299040, Note_on_c, 0, 46, 20
1, 299040, Note_on_c, 0, 49, 24
1, 299520, Note_on_c, 0, 49, 0
1, 299520, Note_on_c, 0, 54, 0
1, 299520, Note_on_c, 0, 61, 0
1, 299520, Note_on_c, 0, 46, 0
1, 299520, Note_on_c, 0, 54, 15
1, 299520, Note_on_c, 0, 61, 23
1, 299520, Note_on_c, 0, 46, 20
1, 299520, Note_on_c, 0, 49, 24
1, 300000, Tempo, 518762
1, 300000, Note_on_c, 0, 49, 0
1, 300000, Note_on_c, 0, 54, 0
1, 300000, Note_on_c, 0, 61, 0
1, 300000, Note_on_c, 0, 46, 0
1, 300000, Note_on_c, 0, 56, 15
1, 300000, Note_on_c, 0, 61, 24
1, 300000, Note_on_c, 0, 47, 20
1, 300000, Note_on_c, 0, 49, 24
1, 300480, Tempo, 528774
1, 300480, Note_on_c, 0, 49, 0
1, 300480, Note_on_c, 0, 56, 0
1, 300480, Note_on_c, 0, 61, 0
1, 300480, Note_on_c, 0, 47, 0
1, 300480, Note_on_c, 0, 54, 15
1, 300480, Note_on_c, 0, 61, 23
1, 300480, Note_on_c, 0, 46, 20
1, 300480, Note_on_c, 0, 49, 24
1, 300960, Tempo, 515553
1, 300960, Note_on_c, 0, 49, 0
1, 300960, Note_on_c, 0, 54, 0
1, 300960, Note_on_c, 0, 61, 0
1, 300960, Note_on_c, 0, 46, 0
1, 300960, Note_on_c, 0, 71, 54
1, 300960, Note_on_c, 0, 44, 31
1, 300972, Control_c, 0, 64, 0
1, 301189, Control_c, 0, 64, 127
1, 301440, Tempo, 504414
1, 301440, Note_on_c, 0, 44, 0
1, 301440, Note_on_c, 0, 71, 0
1, 301440, Note_on_c, 0, 67, 52
1, 301440, Note_on_c, 0, 59, 26
1, 301440, Note_on_c, 0, 64, 26
1, 301440, Note_on_c, 0, 56, 22
1, 301440, Note_on_c, 0, 51, 22
1, 301920, Tempo, 517152
1, 301920, Note_on_c, 0, 51, 0
1, 301920, Note_on_c, 0, 64, 0
1, 301920, Note_on_c, 0, 67, 0
1, 301920, Note_on_c, 0, 59, 0
1, 301920, Note_on_c, 0, 56, 0
1, 301920, Note_on_c, 0, 68, 54
1, 301920, Note_on_c, 0, 59, 26
1, 301920, Note_on_c, 0, 51, 17
1, 301920, Note_on_c, 0, 56, 17
1, 301920, Note_on_c, 0, 63, 22
1, 302380, Tempo, 510421
1, 302400, Note_on_c, 0, 63, 0
1, 302400, Note_on_c, 0, 51, 0
1, 302400, Note_on_c, 0, 68, 0
1, 302400, Note_on_c, 0, 59, 0
1, 302400, Note_on_c, 0, 56, 0
1, 302400, Note_on_c, 0, 76, 59
1, 302400, Note_on_c, 0, 44, 38
1, 302417, Control_c, 0, 64, 0
1, 302766, Control_c, 0, 64, 127
1, 302880, Tempo, 507485
1, 302880, Note_on_c, 0, 44, 0
1, 302880, Note_on_c, 0, 59, 25
1, 302880, Note_on_c, 0, 68, 30
1, 302880, Note_on_c, 0, 64, 24
1, 302880, Note_on_c, 0, 51, 18
1, 302880, Note_on_c, 0, 56, 18
1, 303360, Tempo, 512295
1, 303360, Note_on_c, 0, 56, 0
1, 303360, Note_on_c, 0, 59, 0
1, 303360, Note_on_c, 0, 68, 0
1, 303360, Note_on_c, 0, 76, 0
1, 303360, Note_on_c, 0, 51, 0
1, 303360, Note_on_c, 0, 64, 0
1, 303360, Note_on_c, 0, 75, 56
1, 303360, Note_on_c, 0, 59, 21
1, 303360, Note_on_c, 0, 68, 25
1, 303360, Note_on_c, 0, 51, 17
1, 303360, Note_on_c, 0, 56, 17
1, 303360, Note_on_c, 0, 63, 21
1, 303840, Tempo, 509122
1, 303840, Note_on_c, 0, 63, 0
1, 303840, Note_on_c, 0, 59, 0
1, 303840, Note_on_c, 0, 68, 0
1, 303840, Note_on_c, 0, 75, 0
1, 303840, Note_on_c, 0, 56, 0
1, 303840, Note_on_c, 0, 51, 0
1, 303840, Note_on_c, 0, 75, 58
1, 303840, Note_on_c, 0, 39, 33
1, 303859, Control_c, 0, 64, 0
1, 304092, Control_c, 0, 64, 127
1, 304320, Note_on_c, 0, 39, 0
1, 304320, Note_on_c, 0, 75, 0
1, 304320, Note_on_c, 0, 68, 49
1, 304320, Note_on_c, 0, 61, 28
1, 304320, Note_on_c, 0, 64, 25
1, 304320, Note_on_c, 0, 58, 21
1, 304320, Note_on_c, 0, 51, 21
1, 304800, Tempo, 515553
1, 304800, Note_on_c, 0, 51, 0
1, 304800, Note_on_c, 0, 64, 0
1, 304800, Note_on_c, 0, 68, 0
1, 304800, Note_on_c, 0, 61, 0
1, 304800, Note_on_c, 0, 58, 0
1, 304800, Note_on_c, 0, 70, 51
1, 304800, Note_on_c, 0, 67, 27
1, 304800, Note_on_c, 0, 61, 22
1, 304800, Note_on_c, 0, 51, 16
1, 304800, Note_on_c, 0, 58, 16
1, 304800, Note_on_c, 0, 63, 21
1, 305280, Note_on_c, 0, 63, 0
1, 305280, Note_on_c, 0, 67, 0
1, 305280, Note_on_c, 0, 61, 0
1, 305280, Note_on_c, 0, 70, 0
1, 305280, Note_on_c, 0, 58, 0
1, 305280, Note_on_c, 0, 51, 0
1, 305280, Note_on_c, 0, 73, 57
1, 305280, Note_on_c, 0, 44, 34
1, 305291, Control_c, 0, 64, 0
1, 305547, Control_c, 0, 64, 127
1, 305760, Tempo, 509122
1, 305760, Note_on_c, 0, 44, 0
1, 305760, Note_on_c, 0, 73, 0
1, 305760, Note_on_c, 0, 71, 52
1, 305760, Note_on_c, 0, 59, 22
1, 305760, Note_on_c, 0, 68, 26
1, 305760, Note_on_c, 0, 64, 25
1, 305760, Note_on_c, 0, 51, 21
1, 305760, Note_on_c, 0, 56, 21
1, 306240, Tempo, 515553
1, 306240, Note_on_c, 0, 56, 0
1, 306240, Note_on_c, 0, 59, 0
1, 306240, Note_on_c, 0, 68, 0
1, 306240, Note_on_c, 0, 64, 0
1, 306240, Note_on_c, 0, 51, 0
1, 306240, Note_on_c, 0, 59, 22
1, 306240, Note_on_c, 0, 68, 26
1, 306240, Note_on_c, 0, 51, 18
1, 306240, Note_on_c, 0, 56, 18
1, 306240, Note_on_c, 0, 63, 23
1, 306720, Note_on_c, 0, 63, 0
1, 306720, Note_on_c, 0, 59, 0
1, 306720, Note_on_c, 0, 68, 0
1, 306720, Note_on_c, 0, 51, 0
1, 306720, Note_on_c, 0, 56, 0
1, 306720, Note_on_c, 0, 59, 20
1, 306720, Note_on_c, 0, 68, 28
1, 306720, Note_on_c, 0, 51, 16
1, 306720, Note_on_c, 0, 56, 16
1, 306720, Note_on_c, 0, 63, 25
1, 307200, Tempo, 507485
1, 307200, Note_on_c, 0, 63, 0
1, 307200, Note_on_c, 0, 59, 0
1, 307200, Note_on_c, 0, 68, 0
1, 307200, Note_on_c, 0, 51, 0
1, 307200, Note_on_c, 0, 56, 0
1, 307200, Note_on_c, 0, 63, 24
1, 307200, Note_on_c, 0, 68, 29
1, 307200, Note_on_c, 0, 51, 20
1, 307200, Note_on_c, 0, 56, 20
1, 307200, Note_on_c, 0, 61, 24
1, 307680, Tempo, 513919
1, 307680, Note_on_c, 0, 61, 0
1, 307680, Note_on_c, 0, 63, 0
1, 307680, Note_on_c, 0, 68, 0
1, 307680, Note_on_c, 0, 51, 0
1, 307680, Note_on_c, 0, 56, 0
1, 307680, Note_on_c, 0, 63, 24
1, 307680, Note_on_c, 0, 68, 27
1, 307680, Note_on_c, 0, 51, 20
1, 307680, Note_on_c, 0, 56, 20
1, 307680, Note_on_c, 0, 59, 24
1, 308160, Tempo, 507485
1, 308160, Note_on_c, 0, 59, 0
1, 308160, Note_on_c, 0, 63, 0
1, 308160, Note_on_c, 0, 68, 0
1, 308160, Note_on_c, 0, 51, 0
1, 308160, Note_on_c, 0, 56, 0
1, 308160, Note_on_c, 0, 63, 22
1, 308160, Note_on_c, 0, 68, 27
1, 308160, Note_on_c, 0, 51, 21
1, 308160, Note_on_c, 0, 56, 21
1, 308160, Note_on_c, 0, 59, 25
1, 308640, Note_on_c, 0, 59, 0
1, 308640, Note_on_c, 0, 63, 0
1, 308640, Note_on_c, 0, 68, 0
1, 308640, Note_on_c, 0, 71, 0
1, 308640, Note_on_c, 0, 56, 0
1, 308640, Note_on_c, 0, 51, 0
1, 308640, Note_on_c, 0, 58, 23
1, 308640, Note_on_c, 0, 63, 27
1, 308640, Note_on_c, 0, 49, 22
1, 308640, Note_on_c, 0, 51, 26
1, 308649, Control_c, 0, 64, 0
1, 309120, Tempo, 513919
1, 309120, Note_on_c, 0, 51, 0
1, 309120, Note_on_c, 0, 58, 0
1, 309120, Note_on_c, 0, 63, 0
1, 309120, Note_on_c, 0, 49, 0
1, 309120, Note_on_c, 0, 56, 22
1, 309120, Note_on_c, 0, 63, 27
1, 309120, Note_on_c, 0, 47, 22
1, 309120, Note_on_c, 0, 51, 26
1, 309600, Tempo, 518762
1, 309600, Note_on_c, 0, 51, 0
1, 309600, Note_on_c, 0, 56, 0
1, 309600, Note_on_c, 0, 63, 0
1, 309600, Note_on_c, 0, 47, 0
1, 309600, Note_on_c, 0, 56, 22
1, 309600, Note_on_c, 0, 63, 27
1, 309600, Note_on_c, 0, 47, 22
1, 309600, Note_on_c, 0, 51, 26
1, 310080, Tempo, 512295
1, 310080, Note_on_c, 0, 51, 0
1, 310080, Note_on_c, 0, 56, 0
1, 310080, Note_on_c, 0, 63, 0
1, 310080, Note_on_c, 0, 47, 0
1, 310080, Note_on_c, 0, 58, 22
1, 310080, Note_on_c, 0, 63, 27
1, 310080, Note_on_c, 0, 49, 22
1, 310080, Note_on_c, 0, 51, 24
1, 310560, Note_on_c, 0, 51, 0
1, 310560, Note_on_c, 0, 58, 0
1, 310560, Note_on_c, 0, 63, 0
1, 310560, Note_on_c, 0, 49, 0
1, 310560, Note_on_c, 0, 56, 22
1, 310560, Note_on_c, 0, 63, 27
1, 310560, Note_on_c, 0, 47, 22
1, 310560, Note_on_c, 0, 51, 26
1, 311040, Note_on_c, 0, 51, 0
1, 311040, Note_on_c, 0, 56, 0
1, 311040, Note_on_c, 0, 63, 0
1, 311040, Note_on_c, 0, 47, 0
1, 311040, Note_on_c, 0, 56, 22
1, 311040, Note_on_c, 0, 63, 27
1, 311040, Note_on_c, 0, 47, 22
1, 311040, Note_on_c, 0, 51, 26
1, 311520, Note_on_c, 0, 51, 0
1, 311520, Note_on_c, 0, 56, 0
1, 311520, Note_on_c, 0, 63, 0
1, 311520, Note_on_c, 0, 47, 0
1, 311520, Note_on_c, 0, 58, 22
1, 311520, Note_on_c, 0, 63, 27
1, 311520, Note_on_c, 0, 46, 21
1, 311520, Note_on_c, 0, 51, 25
1, 312000, Note_on_c, 0, 51, 0
1, 312000, Note_on_c, 0, 58, 0
1, 312000, Note_on_c, 0, 63, 0
1, 312000, Note_on_c, 0, 46, 0
1, 312000, Note_on_c, 0, 59, 22
1, 312000, Note_on_c, 0, 54, 22
1, 312000, Note_on_c, 0, 63, 27
1, 312000, Note_on_c, 0, 44, 20
1, 312000, Note_on_c, 0, 51, 24
1, 312480, Note_on_c, 0, 51, 0
1, 312480, Note_on_c, 0, 63, 0
1, 312480, Note_on_c, 0, 59, 0
1, 312480, Note_on_c, 0, 54, 0
1, 312480, Note_on_c, 0, 44, 0
1, 312480, Note_on_c, 0, 53, 24
1, 312480, Note_on_c, 0, 59, 28
1, 312480, Note_on_c, 0, 61, 28
1, 312480, Note_on_c, 0, 37, 20
1, 312490, Control_c, 0, 64, 0
1, 312583, Control_c, 0, 64, 127
1, 312960, Note_on_c, 0, 37, 0
1, 312960, Note_on_c, 0, 53, 0
1, 312960, Note_on_c, 0, 59, 0
1, 312960, Note_on_c, 0, 61, 0
1, 312960, Note_on_c, 0, 68, 39
1, 312960, Note_on_c, 0, 59, 22
1, 312960, Note_on_c, 0, 65, 27
1, 313440, Note_on_c, 0, 65, 0
1, 313440, Note_on_c, 0, 59, 0
1, 313440, Note_on_c, 0, 68, 0
1, 313440, Note_on_c, 0, 70, 39
1, 313440, Note_on_c, 0, 59, 22
1, 313440, Note_on_c, 0, 65, 27
1, 313440, Note_on_c, 0, 49, 27
1, 313452, Control_c, 0, 64, 0
1, 313680, Tempo, 531821
1, 313800, Note_on_c, 0, 49, 0
1, 313800, Note_on_c, 0, 50, 26
1, 313860, Note_on_c, 0, 50, 0
1, 313860, Note_on_c, 0, 51, 26
1, 313920, Tempo, 555401
1, 313920, Note_on_c, 0, 51, 0
1, 313920, Note_on_c, 0, 70, 0
1, 313920, Note_on_c, 0, 59, 0
1, 313920, Note_on_c, 0, 65, 0
1, 313920, Note_on_c, 0, 66, 46
1, 313920, Note_on_c, 0, 54, 25
1, 313920, Note_on_c, 0, 59, 30
1, 313920, Note_on_c, 0, 53, 25
1, 313956, Control_c, 0, 64, 127
1, 313960, Tempo, 552944
1, 313980, Tempo, 550560
1, 314000, Note_on_c, 0, 53, 0
1, 314000, Note_on_c, 0, 51, 21
1, 314020, Tempo, 548095
1, 314040, Tempo, 545752
1, 314080, Tempo, 543429
1, 314080, Note_on_c, 0, 51, 0
1, 314080, Note_on_c, 0, 53, 24
1, 314100, Tempo, 541077
1, 314120, Tempo, 538793
1, 314160, Tempo, 536433
1, 314160, Note_on_c, 0, 53, 0
1, 314160, Note_on_c, 0, 51, 22
1, 314180, Tempo, 534140
1, 314220, Tempo, 531821
1, 314240, Tempo, 529614
1, 314240, Note_on_c, 0, 51, 0
1, 314240, Note_on_c, 0, 53, 24
1, 314260, Tempo, 527426
1, 314300, Tempo, 525210
1, 314320, Tempo, 523013
1, 314320, Note_on_c, 0, 53, 0
1, 314320, Note_on_c, 0, 51, 21
1, 314360, Tempo, 520833
1, 314380, Tempo, 518717
1, 314400, Tempo, 516529
1, 314400, Note_on_c, 0, 51, 0
1, 314400, Note_on_c, 0, 59, 0
1, 314400, Note_on_c, 0, 54, 0
1, 314400, Note_on_c, 0, 54, 21
1, 314400, Note_on_c, 0, 59, 25
1, 314400, Note_on_c, 0, 53, 24
1, 314480, Tempo, 514403
1, 314480, Note_on_c, 0, 53, 0
1, 314480, Note_on_c, 0, 51, 21
1, 314560, Note_on_c, 0, 51, 0
1, 314560, Note_on_c, 0, 53, 24
1, 314620, Tempo, 512339
1, 314640, Note_on_c, 0, 53, 0
1, 314640, Note_on_c, 0, 51, 21
1, 314720, Note_on_c, 0, 51, 0
1, 314720, Note_on_c, 0, 53, 24
1, 314760, Tempo, 510291
1, 314800, Note_on_c, 0, 53, 0
1, 314800, Note_on_c, 0, 51, 21
1, 314880, Tempo, 508173
1, 314880, Note_on_c, 0, 51, 0
1, 314880, Note_on_c, 0, 59, 0
1, 314880, Note_on_c, 0, 54, 0
1, 314880, Note_on_c, 0, 66, 0
1, 314880, Note_on_c, 0, 63, 39
1, 314880, Note_on_c, 0, 54, 22
1, 314880, Note_on_c, 0, 59, 26
1, 314880, Note_on_c, 0, 53, 24
1, 314900, Tempo, 510291
1, 314920, Tempo, 512339
1, 314940, Tempo, 514403
1, 314960, Tempo, 516529
1, 314980, Tempo, 518717
1, 315000, Tempo, 520833
1, 315000, Note_on_c, 0, 53, 0
1, 315000, Note_on_c, 0, 51, 21
1, 315020, Tempo, 523013
1, 315040, Tempo, 525210
1, 315060, Tempo, 527426
1, 315080, Tempo, 529614
1, 315100, Tempo, 531821
1, 315120, Tempo, 534140
1, 315120, Note_on_c, 0, 51, 0
1, 315120, Note_on_c, 0, 53, 24
1, 315140, Tempo, 536433
1, 315160, Tempo, 538793
1, 315180, Tempo, 541077
1, 315180, Note_on_c, 0, 53, 0
1, 315180, Note_on_c, 0, 51, 20
1, 315200, Tempo, 543429
1, 315220, Tempo, 545752
1, 315240, Tempo, 536433
1, 315240, Note_on_c, 0, 51, 0
1, 315240, Note_on_c, 0, 49, 24
1, 315280, Tempo, 570559
1, 315300, Note_on_c, 0, 49, 0
1, 315300, Note_on_c, 0, 51, 18
1, 315320, Tempo, 508173
1, 315360, Tempo, 512339
1, 315360, Note_on_c, 0, 51, 0
1, 315360, Note_on_c, 0, 59, 0
1, 315360, Note_on_c, 0, 54, 0
1, 315360, Note_on_c, 0, 63, 0
1, 315360, Note_on_c, 0, 56, 27
1, 315360, Note_on_c, 0, 59, 27
1, 315360, Note_on_c, 0, 61, 36
1, 315360, Control_c, 0, 64, 0
1, 315360, Note_on_c, 0, 53, 32
1, 315369, Control_c, 0, 64, 0
1, 315535, Control_c, 0, 64, 127
1, 315840, Note_on_c, 0, 53, 0
1, 315840, Note_on_c, 0, 56, 0
1, 315840, Note_on_c, 0, 59, 0
1, 315840, Note_on_c, 0, 61, 0
1, 315840, Note_on_c, 0, 68, 39
1, 315840, Note_on_c, 0, 59, 23
1, 315840, Note_on_c, 0, 65, 27
1, 315840, Note_on_c, 0, 37, 25
1, 316320, Note_on_c, 0, 37, 0
1, 316320, Note_on_c, 0, 68, 0
1, 316320, Note_on_c, 0, 59, 0
1, 316320, Note_on_c, 0, 65, 0
1, 316320, Note_on_c, 0, 70, 39
1, 316320, Note_on_c, 0, 59, 23
1, 316320, Note_on_c, 0, 65, 27
1, 316320, Control_c, 0, 64, 0
1, 316320, Note_on_c, 0, 49, 27
1, 316560, Tempo, 527426
1, 316680, Note_on_c, 0, 49, 0
1, 316680, Note_on_c, 0, 50, 26
1, 316740, Note_on_c, 0, 50, 0
1, 316740, Note_on_c, 0, 51, 26
1, 316800, Tempo, 550560
1, 316800, Note_on_c, 0, 51, 0
1, 316800, Note_on_c, 0, 70, 0
1, 316800, Note_on_c, 0, 59, 0
1, 316800, Note_on_c, 0, 65, 0
1, 316800, Note_on_c, 0, 66, 46
1, 316800, Note_on_c, 0, 54, 25
1, 316800, Note_on_c, 0, 59, 30
1, 316800, Note_on_c, 0, 53, 25
1, 316840, Tempo, 548095
1, 316846, Control_c, 0, 64, 127
1, 316880, Tempo, 545752
1, 316880, Note_on_c, 0, 53, 0
1, 316880, Note_on_c, 0, 51, 21
1, 316900, Tempo, 543429
1, 316940, Tempo, 541077
1, 316960, Note_on_c, 0, 51, 0
1, 316960, Note_on_c, 0, 53, 24
1, 316980, Tempo, 538793
1, 317000, Tempo, 536433
1, 317040, Tempo, 534140
1, 317040, Note_on_c, 0, 53, 0
1, 317040, Note_on_c, 0, 51, 22
1, 317080, Tempo, 531821
1, 317100, Tempo, 529614
1, 317120, Note_on_c, 0, 51, 0
1, 317120, Note_on_c, 0, 53, 24
1, 317140, Tempo, 527426
1, 317180, Tempo, 525210
1, 317200, Tempo, 523013
1, 317200, Note_on_c, 0, 53, 0
1, 317200, Note_on_c, 0, 51, 21
1, 317240, Tempo, 520833
1, 317260, Tempo, 518717
1, 317280, Tempo, 514403
1, 317280, Note_on_c, 0, 51, 0
1, 317280, Note_on_c, 0, 59, 0
1, 317280, Note_on_c, 0, 54, 0
1, 317280, Note_on_c, 0, 54, 23
1, 317280, Note_on_c, 0, 59, 27
1, 317280, Note_on_c, 0, 53, 24
1, 317360, Note_on_c, 0, 53, 0
1, 317360, Note_on_c, 0, 51, 21
1, 317400, Tempo, 512339
1, 317440, Note_on_c, 0, 51, 0
1, 317440, Note_on_c, 0, 53, 24
1, 317520, Tempo, 510291
1, 317520, Note_on_c, 0, 53, 0
1, 317520, Note_on_c, 0, 51, 21
1, 317600, Note_on_c, 0, 51, 0
1, 317600, Note_on_c, 0, 53, 24
1, 317640, Tempo, 508173
1, 317680, Note_on_c, 0, 53, 0
1, 317680, Note_on_c, 0, 51, 21
1, 317740, Tempo, 506158
1, 317760, Tempo, 506158
1, 317760, Note_on_c, 0, 51, 0
1, 317760, Note_on_c, 0, 59, 0
1, 317760, Note_on_c, 0, 54, 0
1, 317760, Note_on_c, 0, 66, 0
1, 317760, Note_on_c, 0, 63, 43
1, 317760, Note_on_c, 0, 54, 23
1, 317760, Note_on_c, 0, 59, 27
1, 317760, Note_on_c, 0, 53, 24
1, 317800, Tempo, 508173
1, 317820, Tempo, 510291
1, 317840, Tempo, 512339
1, 317880, Tempo, 514403
1, 317880, Note_on_c, 0, 53, 0
1, 317880, Note_on_c, 0, 51, 21
1, 317900, Tempo, 516529
1, 317920, Tempo, 518717
1, 317940, Tempo, 520833
1, 317980, Tempo, 523013
1, 318000, Tempo, 525210
1, 318000, Note_on_c, 0, 51, 0
1, 318000, Note_on_c, 0, 53, 24
1, 318020, Tempo, 527426
1, 318040, Tempo, 529614
1, 318060, Note_on_c, 0, 53, 0
1, 318060, Note_on_c, 0, 51, 20
1, 318080, Tempo, 531821
1, 318100, Tempo, 534140
1, 318120, Tempo, 536433
1, 318120, Note_on_c, 0, 51, 0
1, 318120, Note_on_c, 0, 49, 24
1, 318140, Tempo, 538793
1, 318160, Tempo, 557932
1, 318180, Note_on_c, 0, 49, 0
1, 318180, Note_on_c, 0, 51, 18
1, 318200, Tempo, 508173
1, 318240, Note_on_c, 0, 51, 0
1, 318240, Note_on_c, 0, 59, 0
1, 318240, Note_on_c, 0, 54, 0
1, 318240, Note_on_c, 0, 63, 0
1, 318240, Note_on_c, 0, 56, 27
1, 318240, Note_on_c, 0, 59, 27
1, 318240, Note_on_c, 0, 61, 31
1, 318240, Note_on_c, 0, 53, 34
1, 318250, Control_c, 0, 64, 0
1, 318644, Control_c, 0, 64, 127
1, 318720, Tempo, 502092
1, 318720, Note_on_c, 0, 53, 0
1, 318720, Note_on_c, 0, 56, 0
1, 318720, Note_on_c, 0, 59, 0
1, 318720, Note_on_c, 0, 61, 0
1, 318720, Note_on_c, 0, 68, 44
1, 318720, Note_on_c, 0, 59, 29
1, 318720, Note_on_c, 0, 65, 35
1, 318720, Note_on_c, 0, 37, 37
1, 318760, Tempo, 495254
1, 319200, Tempo, 503778
1, 319200, Note_on_c, 0, 37, 0
1, 319200, Note_on_c, 0, 68, 0
1, 319200, Note_on_c, 0, 59, 0
1, 319200, Note_on_c, 0, 65, 0
1, 319200, Note_on_c, 0, 70, 45
1, 319200, Note_on_c, 0, 59, 31
1, 319200, Note_on_c, 0, 65, 37
1, 319200, Note_on_c, 0, 49, 20
1, 319200, Note_on_c, 0, 56, 20
1, 319200, Note_on_c, 0, 61, 30
1, 319680, Note_on_c, 0, 61, 0
1, 319680, Note_on_c, 0, 59, 0
1, 319680, Note_on_c, 0, 65, 0
1, 319680, Note_on_c, 0, 70, 0
1, 319680, Note_on_c, 0, 56, 0
1, 319680, Note_on_c, 0, 49, 0
1, 319680, Note_on_c, 0, 71, 47
1, 319680, Note_on_c, 0, 59, 33
1, 319680, Note_on_c, 0, 65, 40
1, 319680, Note_on_c, 0, 49, 23
1, 319680, Note_on_c, 0, 56, 23
1, 319680, Note_on_c, 0, 61, 34
1, 319693, Control_c, 0, 64, 0
1, 319886, Control_c, 0, 64, 127
1, 320160, Tempo, 510421
1, 320160, Note_on_c, 0, 61, 0
1, 320160, Note_on_c, 0, 59, 0
1, 320160, Note_on_c, 0, 65, 0
1, 320160, Note_on_c, 0, 71, 0
1, 320160, Note_on_c, 0, 56, 0
1, 320160, Note_on_c, 0, 49, 0
1, 320160, Note_on_c, 0, 72, 51
1, 320160, Note_on_c, 0, 60, 36
1, 320160, Note_on_c, 0, 65, 45
1, 320160, Note_on_c, 0, 49, 24
1, 320160, Note_on_c, 0, 56, 24
1, 320160, Note_on_c, 0, 59, 36
1, 320640, Tempo, 518717
1, 320640, Note_on_c, 0, 59, 0
1, 320640, Note_on_c, 0, 60, 0
1, 320640, Note_on_c, 0, 65, 0
1, 320640, Note_on_c, 0, 72, 0
1, 320640, Note_on_c, 0, 56, 0
1, 320640, Note_on_c, 0, 49, 0
1, 320640, Note_on_c, 0, 73, 57
1, 320640, Note_on_c, 0, 61, 42
1, 320640, Note_on_c, 0, 65, 47
1, 320640, Note_on_c, 0, 49, 23
1, 320640, Note_on_c, 0, 56, 22
1, 320640, Note_on_c, 0, 59, 39
1, 321120, Tempo, 495868
1, 321120, Note_on_c, 0, 59, 0
1, 321120, Note_on_c, 0, 61, 0
1, 321120, Note_on_c, 0, 65, 0
1, 321120, Note_on_c, 0, 73, 0
1, 321120, Note_on_c, 0, 56, 0
1, 321120, Note_on_c, 0, 49, 0
1, 321120, Note_on_c, 0, 74, 49
1, 321120, Note_on_c, 0, 62, 43
1, 321120, Note_on_c, 0, 65, 43
1, 321120, Note_on_c, 0, 49, 28
1, 321120, Note_on_c, 0, 56, 34
1, 321120, Note_on_c, 0, 59, 34
1, 321127, Control_c, 0, 64, 0
1, 321269, Control_c, 0, 64, 127
1, 321600, Tempo, 504202
1, 321600, Note_on_c, 0, 59, 0
1, 321600, Note_on_c, 0, 62, 0
1, 321600, Note_on_c, 0, 65, 0
1, 321600, Note_on_c, 0, 74, 0
1, 321600, Note_on_c, 0, 56, 0
1, 321600, Note_on_c, 0, 49, 0
1, 321600, Note_on_c, 0, 75, 51
1, 321600, Note_on_c, 0, 63, 44
1, 321600, Note_on_c, 0, 65, 45
1, 321600, Note_on_c, 0, 49, 29
1, 321600, Note_on_c, 0, 56, 34
1, 321600, Note_on_c, 0, 59, 35
1, 321614, Control_c, 0, 64, 0
1, 321826, Control_c, 0, 64, 127
1, 321840, Tempo, 524017
1, 322080, Tempo, 506329
1, 322080, Note_on_c, 0, 59, 0
1, 322080, Note_on_c, 0, 49, 0
1, 322080, Note_on_c, 0, 56, 0
1, 322080, Note_on_c, 0, 59, 27
1, 322080, Note_on_c, 0, 49, 23
1, 322080, Note_on_c, 0, 56, 24
1, 322320, Note_on_c, 0, 75, 0
1, 322320, Note_on_c, 0, 63, 0
1, 322320, Note_on_c, 0, 65, 0
1, 322320, Note_on_c, 0, 74, 49
1, 322320, Note_on_c, 0, 62, 33
1, 322320, Note_on_c, 0, 65, 33
1, 322560, Tempo, 524017
1, 322560, Note_on_c, 0, 65, 0
1, 322560, Note_on_c, 0, 49, 0
1, 322560, Note_on_c, 0, 59, 0
1, 322560, Note_on_c, 0, 56, 0
1, 322560, Note_on_c, 0, 62, 0
1, 322560, Note_on_c, 0, 74, 0
1, 322560, Note_on_c, 0, 74, 50
1, 322560, Note_on_c, 0, 62, 34
1, 322560, Note_on_c, 0, 65, 35
1, 322560, Note_on_c, 0, 49, 27
1, 322560, Note_on_c, 0, 56, 34
1, 322560, Note_on_c, 0, 59, 34
1, 322570, Control_c, 0, 64, 0
1, 322723, Control_c, 0, 64, 127
1, 323040, Tempo, 506329
1, 323040, Note_on_c, 0, 59, 0
1, 323040, Note_on_c, 0, 62, 0
1, 323040, Note_on_c, 0, 65, 0
1, 323040, Note_on_c, 0, 74, 0
1, 323040, Note_on_c, 0, 56, 0
1, 323040, Note_on_c, 0, 49, 0
1, 323040, Note_on_c, 0, 75, 51
1, 323040, Note_on_c, 0, 63, 44
1, 323040, Note_on_c, 0, 65, 44
1, 323040, Note_on_c, 0, 49, 14
1, 323040, Note_on_c, 0, 56, 20
1, 323040, Note_on_c, 0, 59, 36
1, 323056, Control_c, 0, 64, 0
1, 323160, Control_c, 0, 64, 127
1, 323520, Tempo, 526316
1, 323760, Tempo, 487805
1, 323760, Note_on_c, 0, 59, 0
1, 323760, Note_on_c, 0, 63, 0
1, 323760, Note_on_c, 0, 65, 0
1, 323760, Note_on_c, 0, 75, 0
1, 323760, Note_on_c, 0, 56, 0
1, 323760, Note_on_c, 0, 49, 0
1, 323760, Note_on_c, 0, 74, 54
1, 323760, Note_on_c, 0, 62, 37
1, 323760, Note_on_c, 0, 38, 31
1, 323760, Note_on_c, 0, 50, 39
1, 324000, Tempo, 486421
1, 324000, Note_on_c, 0, 50, 0
1, 324000, Note_on_c, 0, 74, 0
1, 324000, Note_on_c, 0, 62, 0
1, 324000, Note_on_c, 0, 38, 0
1, 324000, Note_on_c, 0, 74, 58
1, 324000, Note_on_c, 0, 62, 49
1, 324000, Note_on_c, 0, 38, 35
1, 324000, Note_on_c, 0, 50, 43
1, 324000, Control_c, 0, 64, 0
1, 324011, Control_c, 0, 64, 0
1, 324126, Control_c, 0, 64, 127
1, 324480, Note_on_c, 0, 50, 0
1, 324480, Note_on_c, 0, 74, 0
1, 324480, Note_on_c, 0, 62, 0
1, 324480, Note_on_c, 0, 38, 0
1, 324480, Note_on_c, 0, 73, 63
1, 324480, Note_on_c, 0, 61, 52
1, 324480, Note_on_c, 0, 37, 39
1, 324480, Note_on_c, 0, 49, 47
1, 324496, Control_c, 0, 64, 0
1, 324686, Control_c, 0, 64, 127
1, 324960, Tempo, 468750
1, 325200, Note_on_c, 0, 49, 0
1, 325200, Note_on_c, 0, 73, 0
1, 325200, Note_on_c, 0, 61, 0
1, 325200, Note_on_c, 0, 37, 0
1, 325200, Note_on_c, 0, 72, 55
1, 325200, Note_on_c, 0, 60, 46
1, 325200, Note_on_c, 0, 36, 31
1, 325200, Note_on_c, 0, 48, 38
1, 325440, Tempo, 461538
1, 325440, Note_on_c, 0, 48, 0
1, 325440, Note_on_c, 0, 72, 0
1, 325440, Note_on_c, 0, 60, 0
1, 325440, Note_on_c, 0, 36, 0
1, 325440, Note_on_c, 0, 72, 61
1, 325440, Note_on_c, 0, 60, 51
1, 325440, Note_on_c, 0, 36, 34
1, 325440, Note_on_c, 0, 48, 42
1, 325440, Control_c, 0, 64, 0
1, 325451, Control_c, 0, 64, 0
1, 325610, Control_c, 0, 64, 127
1, 325920, Note_on_c, 0, 48, 0
1, 325920, Note_on_c, 0, 72, 0
1, 325920, Note_on_c, 0, 60, 0
1, 325920, Note_on_c, 0, 36, 0
1, 325920, Note_on_c, 0, 71, 61
1, 325920, Note_on_c, 0, 59, 52
1, 325920, Note_on_c, 0, 35, 42
1, 325920, Note_on_c, 0, 47, 50
1, 325936, Control_c, 0, 64, 0
1, 326217, Control_c, 0, 64, 127
1, 326400, Tempo, 447761
1, 326640, Note_on_c, 0, 47, 0
1, 326640, Note_on_c, 0, 71, 0
1, 326640, Note_on_c, 0, 59, 0
1, 326640, Note_on_c, 0, 35, 0
1, 326640, Note_on_c, 0, 70, 61
1, 326640, Note_on_c, 0, 58, 49
1, 326640, Note_on_c, 0, 34, 32
1, 326640, Note_on_c, 0, 46, 40
1, 326880, Tempo, 442804
1, 326880, Note_on_c, 0, 46, 0
1, 326880, Note_on_c, 0, 70, 0
1, 326880, Note_on_c, 0, 58, 0
1, 326880, Note_on_c, 0, 34, 0
1, 326880, Note_on_c, 0, 70, 66
1, 326880, Note_on_c, 0, 58, 55
1, 326880, Note_on_c, 0, 34, 34
1, 326880, Note_on_c, 0, 46, 44
1, 326880, Control_c, 0, 64, 0
1, 326891, Control_c, 0, 64, 0
1, 327029, Control_c, 0, 64, 127
1, 327360, Note_on_c, 0, 46, 0
1, 327360, Note_on_c, 0, 70, 0
1, 327360, Note_on_c, 0, 58, 0
1, 327360, Note_on_c, 0, 34, 0
1, 327360, Note_on_c, 0, 69, 68
1, 327360, Note_on_c, 0, 57, 56
1, 327360, Note_on_c, 0, 33, 45
1, 327360, Note_on_c, 0, 45, 55
1, 327378, Control_c, 0, 64, 0
1, 327532, Control_c, 0, 64, 127
1, 327840, Tempo, 428571
1, 328080, Note_on_c, 0, 45, 0
1, 328080, Note_on_c, 0, 69, 0
1, 328080, Note_on_c, 0, 57, 0
1, 328080, Note_on_c, 0, 33, 0
1, 328080, Note_on_c, 0, 68, 67
1, 328080, Note_on_c, 0, 56, 55
1, 328080, Note_on_c, 0, 32, 35
1, 328080, Note_on_c, 0, 44, 44
1, 328320, Tempo, 422535
1, 328320, Note_on_c, 0, 44, 0
1, 328320, Note_on_c, 0, 68, 0
1, 328320, Note_on_c, 0, 56, 0
1, 328320, Note_on_c, 0, 32, 0
1, 328320, Note_on_c, 0, 68, 73
1, 328320, Note_on_c, 0, 56, 59
1, 328320, Control_c, 0, 64, 0
1, 328320, Note_on_c, 0, 32, 37
1, 328320, Note_on_c, 0, 44, 48
1, 328320, Control_c, 0, 64, 0
1, 328587, Control_c, 0, 64, 127
1, 328800, Tempo, 342857
1, 328800, Note_on_c, 0, 44, 0
1, 328800, Note_on_c, 0, 68, 0
1, 328800, Note_on_c, 0, 56, 0
1, 328800, Note_on_c, 0, 32, 0
1, 328800, Note_on_c, 0, 66, 73
1, 328800, Note_on_c, 0, 54, 61
1, 328800, Note_on_c, 0, 30, 29
1, 328800, Note_on_c, 0, 42, 56
1, 328816, Control_c, 0, 64, 0
1, 329094, Control_c, 0, 64, 127
1, 329280, Tempo, 293055
1, 329280, Note_on_c, 0, 42, 0
1, 329280, Note_on_c, 0, 66, 0
1, 329280, Note_on_c, 0, 54, 0
1, 329280, Note_on_c, 0, 30, 0
1, 329280, Note_on_c, 0, 58, 73
1, 329280, Note_on_c, 0, 34, 42
1, 329280, Note_on_c, 0, 46, 49
1, 329297, Control_c, 0, 64, 0
1, 329760, Tempo, 265793
1, 329760, Marker_t, "Teil 4"
1, 329760, Note_on_c, 0, 46, 0
1, 329760, Note_on_c, 0, 34, 0
1, 329760, Note_on_c, 0, 58, 0
1, 329760, Note_on_c, 0, 51, 47
1, 329760, Note_on_c, 0, 63, 56
1, 329760, Note_on_c, 0, 27, 36
1, 329760, Note_on_c, 0, 39, 42
1, 329850, Note_on_c, 0, 63, 0
1, 329850, Note_on_c, 0, 51, 0
1, 330000, Tempo, 270770
1, 330000, Note_on_c, 0, 51, 49
1, 330000, Note_on_c, 0, 63, 58
1, 330090, Note_on_c, 0, 63, 0
1, 330090, Note_on_c, 0, 51, 0
1, 330240, Tempo, 265182
1, 330240, Note_on_c, 0, 27, 0
1, 330240, Note_on_c, 0, 39, 0
1, 330240, Note_on_c, 0, 51, 54
1, 330240, Note_on_c, 0, 63, 64
1, 330240, Note_on_c, 0, 28, 36
1, 330240, Note_on_c, 0, 40, 42
1, 330330, Note_on_c, 0, 40, 0
1, 330330, Note_on_c, 0, 51, 0
1, 330330, Note_on_c, 0, 63, 0
1, 330330, Note_on_c, 0, 28, 0
1, 330480, Tempo, 282686
1, 330480, Note_on_c, 0, 51, 56
1, 330480, Note_on_c, 0, 63, 65
1, 330480, Note_on_c, 0, 29, 36
1, 330480, Note_on_c, 0, 41, 45
1, 330570, Note_on_c, 0, 41, 0
1, 330570, Note_on_c, 0, 51, 0
1, 330570, Note_on_c, 0, 63, 0
1, 330570, Note_on_c, 0, 29, 0
1, 330640, Tempo, 267023
1, 330680, Tempo, 267630
1, 330720, Tempo, 284792
1, 330720, Note_on_c, 0, 51, 61
1, 330720, Note_on_c, 0, 63, 72
1, 330720, Note_on_c, 0, 30, 42
1, 330720, Note_on_c, 0, 42, 50
1, 331200, Tempo, 276714
1, 331200, Note_on_c, 0, 42, 0
1, 331200, Note_on_c, 0, 51, 0
1, 331200, Note_on_c, 0, 63, 0
1, 331200, Note_on_c, 0, 30, 0
1, 331200, Note_on_c, 0, 53, 67
1, 331200, Note_on_c, 0, 59, 67
1, 331200, Note_on_c, 0, 63, 67
1, 331200, Note_on_c, 0, 65, 80
1, 331200, Note_on_c, 0, 32, 50
1, 331200, Note_on_c, 0, 44, 59
1, 331326, Control_c, 0, 64, 127
1, 331590, Note_on_c, 0, 44, 0
1, 331590, Note_on_c, 0, 32, 0
1, 331590, Note_on_c, 0, 44, 37
1, 331620, Note_on_c, 0, 51, 37
1, 331646, Control_c, 0, 64, 0
1, 331650, Note_on_c, 0, 53, 37
1, 331680, Tempo, 272926
1, 331680, Note_on_c, 0, 63, 0
1, 331680, Note_on_c, 0, 65, 0
1, 331680, Note_on_c, 0, 53, 0
1, 331680, Note_on_c, 0, 59, 0
1, 331680, Note_on_c, 0, 65, 56
1, 331680, Note_on_c, 0, 71, 56
1, 331680, Note_on_c, 0, 75, 56
1, 331680, Note_on_c, 0, 77, 68
1, 331680, Note_on_c, 0, 59, 46
1, 331737, Control_c, 0, 64, 127
1, 331920, Note_on_c, 0, 77, 0
1, 331920, Note_on_c, 0, 65, 0
1, 331920, Note_on_c, 0, 71, 0
1, 331920, Note_on_c, 0, 75, 0
1, 331920, Note_on_c, 0, 63, 55
1, 331920, Note_on_c, 0, 75, 66
1, 332070, Note_on_c, 0, 53, 0
1, 332070, Note_on_c, 0, 51, 0
1, 332070, Note_on_c, 0, 59, 0
1, 332070, Note_on_c, 0, 44, 0
1, 332070, Note_on_c, 0, 46, 37
1, 332100, Note_on_c, 0, 53, 37
1, 332114, Control_c, 0, 64, 0
1, 332130, Note_on_c, 0, 56, 37
1, 332160, Tempo, 270124
1, 332160, Note_on_c, 0, 75, 0
1, 332160, Note_on_c, 0, 63, 0
1, 332160, Note_on_c, 0, 65, 56
1, 332160, Note_on_c, 0, 70, 56
1, 332160, Note_on_c, 0, 74, 56
1, 332160, Note_on_c, 0, 77, 68
1, 332160, Note_on_c, 0, 62, 46
1, 332400, Tempo, 285483
1, 332400, Note_on_c, 0, 77, 0
1, 332400, Note_on_c, 0, 65, 0
1, 332400, Note_on_c, 0, 70, 0
1, 332400, Note_on_c, 0, 74, 0
1, 332400, Note_on_c, 0, 66, 53
1, 332400, Note_on_c, 0, 78, 65
1, 332640, Tempo, 265182
1, 332640, Note_on_c, 0, 78, 0
1, 332640, Note_on_c, 0, 46, 0
1, 332640, Note_on_c, 0, 56, 0
1, 332640, Note_on_c, 0, 62, 0
1, 332640, Note_on_c, 0, 66, 0
1, 332640, Note_on_c, 0, 53, 0
1, 332640, Note_on_c, 0, 54, 49
1, 332640, Note_on_c, 0, 66, 59
1, 332640, Note_on_c, 0, 30, 38
1, 332640, Note_on_c, 0, 42, 44
1, 332730, Note_on_c, 0, 66, 0
1, 332730, Note_on_c, 0, 54, 0
1, 332880, Tempo, 270770
1, 332880, Note_on_c, 0, 54, 52
1, 332880, Note_on_c, 0, 66, 61
1, 332970, Note_on_c, 0, 66, 0
1, 332970, Note_on_c, 0, 54, 0
1, 333120, Tempo, 265182
1, 333120, Note_on_c, 0, 30, 0
1, 333120, Note_on_c, 0, 42, 0
1, 333120, Note_on_c, 0, 54, 57
1, 333120, Note_on_c, 0, 66, 67
1, 333120, Note_on_c, 0, 31, 38
1, 333120, Note_on_c, 0, 43, 44
1, 333210, Note_on_c, 0, 43, 0
1, 333210, Note_on_c, 0, 54, 0
1, 333210, Note_on_c, 0, 66, 0
1, 333210, Note_on_c, 0, 31, 0
1, 333360, Tempo, 286191
1, 333360, Note_on_c, 0, 54, 57
1, 333360, Note_on_c, 0, 66, 66
1, 333360, Note_on_c, 0, 32, 35
1, 333360, Note_on_c, 0, 44, 43
1, 333450, Note_on_c, 0, 44, 0
1, 333450, Note_on_c, 0, 54, 0
1, 333450, Note_on_c, 0, 66, 0
1, 333450, Note_on_c, 0, 32, 0
1, 333520, Tempo, 267630
1, 333560, Tempo, 267630
1, 333600, Tempo, 281294
1, 333600, Note_on_c, 0, 54, 64
1, 333600, Note_on_c, 0, 66, 75
1, 333600, Note_on_c, 0, 33, 43
1, 333600, Note_on_c, 0, 45, 51
1, 334080, Tempo, 275191
1, 334080, Note_on_c, 0, 45, 0
1, 334080, Note_on_c, 0, 54, 0
1, 334080, Note_on_c, 0, 66, 0
1, 334080, Note_on_c, 0, 33, 0
1, 334080, Note_on_c, 0, 56, 67
1, 334080, Note_on_c, 0, 62, 69
1, 334080, Note_on_c, 0, 66, 69
1, 334080, Note_on_c, 0, 68, 82
1, 334080, Note_on_c, 0, 35, 53
1, 334080, Note_on_c, 0, 47, 63
1, 334158, Control_c, 0, 64, 127
1, 334470, Note_on_c, 0, 47, 0
1, 334470, Note_on_c, 0, 35, 0
1, 334470, Note_on_c, 0, 48, 39
1, 334500, Note_on_c, 0, 54, 39
1, 334517, Control_c, 0, 64, 0
1, 334530, Note_on_c, 0, 56, 39
1, 334560, Tempo, 272183
1, 334560, Note_on_c, 0, 66, 0
1, 334560, Note_on_c, 0, 68, 0
1, 334560, Note_on_c, 0, 56, 0
1, 334560, Note_on_c, 0, 62, 0
1, 334560, Note_on_c, 0, 68, 59
1, 334560, Note_on_c, 0, 74, 59
1, 334560, Note_on_c, 0, 78, 59
1, 334560, Note_on_c, 0, 80, 72
1, 334560, Note_on_c, 0, 62, 48
1, 334599, Control_c, 0, 64, 127
1, 334800, Note_on_c, 0, 80, 0
1, 334800, Note_on_c, 0, 68, 0
1, 334800, Note_on_c, 0, 74, 0
1, 334800, Note_on_c, 0, 78, 0
1, 334800, Note_on_c, 0, 66, 58
1, 334800, Note_on_c, 0, 78, 70
1, 334950, Note_on_c, 0, 56, 0
1, 334950, Note_on_c, 0, 54, 0
1, 334950, Note_on_c, 0, 62, 0
1, 334950, Note_on_c, 0, 48, 0
1, 334950, Note_on_c, 0, 49, 39
1, 334980, Note_on_c, 0, 56, 39
1, 334990, Control_c, 0, 64, 0
1, 335010, Note_on_c, 0, 59, 39
1, 335040, Tempo, 268889
1, 335040, Note_on_c, 0, 78, 0
1, 335040, Note_on_c, 0, 66, 0
1, 335040, Note_on_c, 0, 68, 59
1, 335040, Note_on_c, 0, 73, 59
1, 335040, Note_on_c, 0, 77, 59
1, 335040, Note_on_c, 0, 80, 72
1, 335040, Note_on_c, 0, 65, 48
1, 335280, Tempo, 284077
1, 335280, Note_on_c, 0, 80, 0
1, 335280, Note_on_c, 0, 68, 0
1, 335280, Note_on_c, 0, 73, 0
1, 335280, Note_on_c, 0, 77, 0
1, 335280, Note_on_c, 0, 69, 54
1, 335280, Note_on_c, 0, 81, 65
1, 335520, Tempo, 262169
1, 335520, Note_on_c, 0, 81, 0
1, 335520, Note_on_c, 0, 49, 0
1, 335520, Note_on_c, 0, 59, 0
1, 335520, Note_on_c, 0, 65, 0
1, 335520, Note_on_c, 0, 69, 0
1, 335520, Note_on_c, 0, 56, 0
1, 335520, Note_on_c, 0, 57, 47
1, 335520, Note_on_c, 0, 69, 56
1, 335520, Note_on_c, 0, 33, 36
1, 335520, Note_on_c, 0, 45, 42
1, 335610, Note_on_c, 0, 69, 0
1, 335610, Note_on_c, 0, 57, 0
1, 335760, Tempo, 267630
1, 335760, Note_on_c, 0, 57, 51
1, 335760, Note_on_c, 0, 69, 60
1, 335850, Note_on_c, 0, 69, 0
1, 335850, Note_on_c, 0, 57, 0
1, 335960, Tempo, 268264
1, 336000, Tempo, 263377
1, 336000, Note_on_c, 0, 33, 0
1, 336000, Note_on_c, 0, 45, 0
1, 336000, Note_on_c, 0, 57, 54
1, 336000, Note_on_c, 0, 69, 64
1, 336000, Note_on_c, 0, 35, 36
1, 336000, Note_on_c, 0, 47, 42
1, 336090, Note_on_c, 0, 47, 0
1, 336090, Note_on_c, 0, 57, 0
1, 336090, Note_on_c, 0, 69, 0
1, 336090, Note_on_c, 0, 35, 0
1, 336240, Tempo, 285483
1, 336240, Note_on_c, 0, 57, 59
1, 336240, Note_on_c, 0, 69, 69
1, 336240, Note_on_c, 0, 36, 37
1, 336240, Note_on_c, 0, 48, 45
1, 336330, Note_on_c, 0, 48, 0
1, 336330, Note_on_c, 0, 57, 0
1, 336330, Note_on_c, 0, 69, 0
1, 336330, Note_on_c, 0, 36, 0
1, 336440, Tempo, 267023
1, 336480, Tempo, 275191
1, 336480, Note_on_c, 0, 57, 68
1, 336480, Note_on_c, 0, 69, 79
1, 336480, Note_on_c, 0, 37, 46
1, 336480, Note_on_c, 0, 49, 54
1, 336960, Tempo, 265182
1, 336960, Note_on_c, 0, 49, 0
1, 336960, Note_on_c, 0, 57, 0
1, 336960, Note_on_c, 0, 69, 0
1, 336960, Note_on_c, 0, 37, 0
1, 336960, Note_on_c, 0, 58, 52
1, 336960, Note_on_c, 0, 65, 52
1, 336960, Note_on_c, 0, 68, 52
1, 336960, Note_on_c, 0, 56, 52
1, 336960, Note_on_c, 0, 70, 63
1, 336960, Note_on_c, 0, 38, 40
1, 336960, Note_on_c, 0, 50, 47
1, 337050, Note_on_c, 0, 70, 0
1, 337050, Note_on_c, 0, 56, 0
1, 337050, Note_on_c, 0, 58, 0
1, 337050, Note_on_c, 0, 68, 0
1, 337050, Note_on_c, 0, 65, 0
1, 337200, Tempo, 269505
1, 337200, Note_on_c, 0, 58, 55
1, 337200, Note_on_c, 0, 65, 55
1, 337200, Note_on_c, 0, 68, 55
1, 337200, Note_on_c, 0, 56, 55
1, 337200, Note_on_c, 0, 70, 66
1, 337290, Note_on_c, 0, 70, 0
1, 337290, Note_on_c, 0, 68, 0
1, 337290, Note_on_c, 0, 65, 0
1, 337290, Note_on_c, 0, 58, 0
1, 337290, Note_on_c, 0, 56, 0
1, 337440, Tempo, 265793
1, 337440, Note_on_c, 0, 38, 0
1, 337440, Note_on_c, 0, 50, 0
1, 337440, Note_on_c, 0, 58, 57
1, 337440, Note_on_c, 0, 65, 57
1, 337440, Note_on_c, 0, 68, 57
1, 337440, Note_on_c, 0, 56, 57
1, 337440, Note_on_c, 0, 70, 67
1, 337440, Note_on_c, 0, 39, 38
1, 337440, Note_on_c, 0, 51, 44
1, 337530, Note_on_c, 0, 51, 0
1, 337530, Note_on_c, 0, 70, 0
1, 337530, Note_on_c, 0, 65, 0
1, 337530, Note_on_c, 0, 68, 0
1, 337530, Note_on_c, 0, 58, 0
1, 337530, Note_on_c, 0, 39, 0
1, 337530, Note_on_c, 0, 56, 0
1, 337680, Tempo, 286191
1, 337680, Note_on_c, 0, 58, 57
1, 337680, Note_on_c, 0, 65, 57
1, 337680, Note_on_c, 0, 68, 68
1, 337680, Note_on_c, 0, 56, 57
1, 337680, Note_on_c, 0, 70, 68
1, 337680, Note_on_c, 0, 40, 37
1, 337680, Note_on_c, 0, 52, 45
1, 337770, Note_on_c, 0, 52, 0
1, 337770, Note_on_c, 0, 70, 0
1, 337770, Note_on_c, 0, 65, 0
1, 337770, Note_on_c, 0, 68, 0
1, 337770, Note_on_c, 0, 58, 0
1, 337770, Note_on_c, 0, 40, 0
1, 337770, Note_on_c, 0, 56, 0
1, 337920, Tempo, 278603
1, 337920, Note_on_c, 0, 58, 68
1, 337920, Note_on_c, 0, 62, 68
1, 337920, Note_on_c, 0, 68, 68
1, 337920, Note_on_c, 0, 56, 68
1, 337920, Note_on_c, 0, 70, 81
1, 337920, Note_on_c, 0, 41, 45
1, 337920, Note_on_c, 0, 53, 53
1, 338400, Tempo, 267023
1, 338400, Note_on_c, 0, 53, 0
1, 338400, Note_on_c, 0, 70, 0
1, 338400, Note_on_c, 0, 62, 0
1, 338400, Note_on_c, 0, 68, 0
1, 338400, Note_on_c, 0, 58, 0
1, 338400, Note_on_c, 0, 41, 0
1, 338400, Note_on_c, 0, 56, 0
1, 338400, Note_on_c, 0, 58, 52
1, 338400, Note_on_c, 0, 63, 52
1, 338400, Note_on_c, 0, 66, 52
1, 338400, Note_on_c, 0, 70, 63
1, 338400, Note_on_c, 0, 42, 40
1, 338400, Note_on_c, 0, 54, 47
1, 338490, Note_on_c, 0, 70, 0
1, 338490, Note_on_c, 0, 66, 0
1, 338490, Note_on_c, 0, 58, 0
1, 338490, Note_on_c, 0, 63, 0
1, 338640, Tempo, 271407
1, 338640, Note_on_c, 0, 58, 55
1, 338640, Note_on_c, 0, 63, 55
1, 338640, Note_on_c, 0, 66, 55
1, 338640, Note_on_c, 0, 70, 66
1, 338730, Note_on_c, 0, 70, 0
1, 338730, Note_on_c, 0, 63, 0
1, 338730, Note_on_c, 0, 58, 0
1, 338730, Note_on_c, 0, 66, 0
1, 338880, Tempo, 268889
1, 338880, Note_on_c, 0, 42, 0
1, 338880, Note_on_c, 0, 54, 0
1, 338880, Note_on_c, 0, 63, 57
1, 338880, Note_on_c, 0, 66, 57
1, 338880, Note_on_c, 0, 70, 67
1, 338880, Note_on_c, 0, 44, 38
1, 338880, Note_on_c, 0, 56, 44
1, 338970, Note_on_c, 0, 56, 0
1, 338970, Note_on_c, 0, 70, 0
1, 338970, Note_on_c, 0, 63, 0
1, 338970, Note_on_c, 0, 66, 0
1, 338970, Note_on_c, 0, 44, 0
1, 339120, Tempo, 277252
1, 339120, Note_on_c, 0, 63, 56
1, 339120, Note_on_c, 0, 66, 56
1, 339120, Note_on_c, 0, 70, 67
1, 339120, Note_on_c, 0, 45, 37
1, 339120, Note_on_c, 0, 57, 45
1, 339210, Note_on_c, 0, 57, 0
1, 339210, Note_on_c, 0, 70, 0
1, 339210, Note_on_c, 0, 63, 0
1, 339210, Note_on_c, 0, 66, 0
1, 339210, Note_on_c, 0, 45, 0
1, 339360, Tempo, 280636
1, 339360, Note_on_c, 0, 63, 70
1, 339360, Note_on_c, 0, 66, 72
1, 339360, Note_on_c, 0, 70, 85
1, 339360, Note_on_c, 0, 46, 47
1, 339360, Note_on_c, 0, 58, 56
1, 339840, Tempo, 285796
1, 339840, Note_on_c, 0, 58, 0
1, 339840, Note_on_c, 0, 70, 0
1, 339840, Note_on_c, 0, 63, 0
1, 339840, Note_on_c, 0, 66, 0
1, 339840, Note_on_c, 0, 46, 0
1, 339840, Note_on_c, 0, 58, 66
1, 339840, Note_on_c, 0, 63, 66
1, 339840, Note_on_c, 0, 70, 78
1, 339840, Note_on_c, 0, 47, 48
1, 339840, Note_on_c, 0, 59, 57
1, 339939, Control_c, 0, 64, 127
1, 340320, Tempo, 278267
1, 340320, Note_on_c, 0, 59, 0
1, 340320, Note_on_c, 0, 70, 0
1, 340320, Note_on_c, 0, 58, 0
1, 340320, Note_on_c, 0, 63, 0
1, 340320, Note_on_c, 0, 47, 0
1, 340320, Note_on_c, 0, 56, 66
1, 340320, Note_on_c, 0, 63, 66
1, 340320, Note_on_c, 0, 68, 78
1, 340320, Note_on_c, 0, 35, 43
1, 340320, Note_on_c, 0, 47, 52
1, 340800, Tempo, 283006
1, 340800, Note_on_c, 0, 47, 0
1, 340800, Note_on_c, 0, 68, 0
1, 340800, Note_on_c, 0, 56, 0
1, 340800, Note_on_c, 0, 63, 0
1, 340800, Note_on_c, 0, 35, 0
1, 340800, Note_on_c, 0, 54, 63
1, 340800, Note_on_c, 0, 57, 63
1, 340800, Note_on_c, 0, 63, 63
1, 340800, Note_on_c, 0, 66, 74
1, 340800, Note_on_c, 0, 36, 43
1, 340800, Note_on_c, 0, 48, 52
1, 340818, Control_c, 0, 64, 0
1, 341240, Tempo, 275280
1, 341280, Note_on_c, 0, 48, 0
1, 341280, Note_on_c, 0, 57, 0
1, 341280, Note_on_c, 0, 63, 0
1, 341280, Note_on_c, 0, 54, 0
1, 341280, Note_on_c, 0, 36, 0
1, 341280, Note_on_c, 0, 66, 0
1, 341280, Note_on_c, 0, 58, 52
1, 341280, Note_on_c, 0, 61, 52
1, 341280, Note_on_c, 0, 65, 61
1, 341280, Note_on_c, 0, 37, 50
1, 341280, Note_on_c, 0, 49, 60
1, 341400, Tempo, 274625
1, 341478, Control_c, 0, 64, 127
1, 341520, Tempo, 273973
1, 341520, Note_on_c, 0, 65, 0
1, 341520, Note_on_c, 0, 58, 0
1, 341520, Note_on_c, 0, 61, 0
1, 341520, Note_on_c, 0, 61, 59
1, 341640, Tempo, 273324
1, 341760, Tempo, 272690
1, 341760, Note_on_c, 0, 61, 0
1, 341760, Note_on_c, 0, 37, 0
1, 341760, Note_on_c, 0, 49, 0
1, 341760, Note_on_c, 0, 66, 66
1, 341760, Note_on_c, 0, 73, 78
1, 341760, Note_on_c, 0, 49, 48
1, 341760, Note_on_c, 0, 58, 57
1, 341880, Tempo, 272047
1, 342000, Tempo, 271407
1, 342000, Note_on_c, 0, 73, 0
1, 342000, Note_on_c, 0, 66, 0
1, 342000, Note_on_c, 0, 66, 75
1, 342160, Tempo, 270770
1, 342240, Note_on_c, 0, 66, 0
1, 342240, Note_on_c, 0, 49, 0
1, 342240, Note_on_c, 0, 58, 0
1, 342240, Note_on_c, 0, 70, 69
1, 342240, Note_on_c, 0, 78, 82
1, 342240, Note_on_c, 0, 61, 57
1, 342240, Note_on_c, 0, 54, 48
1, 342280, Tempo, 270124
1, 342400, Tempo, 269505
1, 342480, Note_on_c, 0, 78, 0
1, 342480, Note_on_c, 0, 70, 0
1, 342480, Note_on_c, 0, 70, 75
1, 342520, Tempo, 268889
1, 342640, Tempo, 268264
1, 342720, Note_on_c, 0, 70, 0
1, 342720, Note_on_c, 0, 61, 0
1, 342720, Note_on_c, 0, 54, 0
1, 342720, Note_on_c, 0, 73, 65
1, 342720, Note_on_c, 0, 82, 76
1, 342720, Note_on_c, 0, 58, 42
1, 342720, Note_on_c, 0, 66, 60
1, 342760, Tempo, 267630
1, 342960, Note_on_c, 0, 82, 0
1, 342960, Note_on_c, 0, 73, 0
1, 342960, Note_on_c, 0, 73, 71
1, 343200, Tempo, 270770
1, 343200, Note_on_c, 0, 73, 0
1, 343200, Note_on_c, 0, 58, 0
1, 343200, Note_on_c, 0, 66, 0
1, 343200, Note_on_c, 0, 78, 66
1, 343200, Note_on_c, 0, 85, 78
1, 343200, Note_on_c, 0, 61, 40
1, 343200, Note_on_c, 0, 70, 57
1, 343440, Note_on_c, 0, 85, 0
1, 343440, Note_on_c, 0, 78, 0
1, 343440, Note_on_c, 0, 78, 75
1, 343680, Tempo, 279291
1, 343680, Note_on_c, 0, 78, 0
1, 343680, Note_on_c, 0, 61, 0
1, 343680, Note_on_c, 0, 70, 0
1, 343680, Note_on_c, 0, 82, 69
1, 343680, Note_on_c, 0, 90, 82
1, 343680, Note_on_c, 0, 73, 57
1, 343680, Note_on_c, 0, 66, 40
1, 343920, Note_on_c, 0, 90, 0
1, 343920, Note_on_c, 0, 82, 0
1, 343920, Note_on_c, 0, 82, 75
1, 344160, Note_on_c, 0, 82, 0
1, 344160, Note_on_c, 0, 73, 0
1, 344160, Note_on_c, 0, 66, 0
1, 344160, Note_on_c, 0, 85, 69
1, 344160, Note_on_c, 0, 82, 69
1, 344160, Note_on_c, 0, 94, 82
1, 344160, Note_on_c, 0, 70, 48
1, 344160, Note_on_c, 0, 78, 57
1, 344640, Tempo, 274625
1, 344640, Note_on_c, 0, 78, 0
1, 344640, Note_on_c, 0, 94, 0
1, 344640, Note_on_c, 0, 85, 0
1, 344640, Note_on_c, 0, 82, 0
1, 344640, Note_on_c, 0, 70, 0
1, 344640, Note_on_c, 0, 85, 66
1, 344640, Note_on_c, 0, 80, 64
1, 344640, Note_on_c, 0, 92, 76
1, 344640, Note_on_c, 0, 71, 46
1, 344640, Note_on_c, 0, 77, 51
1, 344660, Control_c, 0, 64, 0
1, 345120, Tempo, 284630
1, 345120, Note_on_c, 0, 77, 0
1, 345120, Note_on_c, 0, 92, 0
1, 345120, Note_on_c, 0, 85, 0
1, 345120, Note_on_c, 0, 80, 0
1, 345120, Note_on_c, 0, 71, 0
1, 345120, Note_on_c, 0, 85, 73
1, 345120, Note_on_c, 0, 80, 61
1, 345120, Note_on_c, 0, 73, 61
1, 345120, Note_on_c, 0, 61, 42
1, 345120, Note_on_c, 0, 65, 42
1, 345120, Note_on_c, 0, 71, 51
1, 345280, Control_c, 0, 64, 127
1, 345600, Tempo, 278603
1, 345600, Note_on_c, 0, 71, 0
1, 345600, Note_on_c, 0, 80, 0
1, 345600, Note_on_c, 0, 73, 0
1, 345600, Note_on_c, 0, 85, 0
1, 345600, Note_on_c, 0, 65, 0
1, 345600, Note_on_c, 0, 61, 0
1, 345600, Note_on_c, 0, 73, 57
1, 345600, Note_on_c, 0, 80, 61
1, 345600, Note_on_c, 0, 85, 75
1, 345600, Note_on_c, 0, 61, 46
1, 345600, Note_on_c, 0, 65, 46
1, 345600, Note_on_c, 0, 71, 52
1, 346080, Tempo, 280636
1, 346080, Note_on_c, 0, 71, 0
1, 346080, Note_on_c, 0, 80, 0
1, 346080, Note_on_c, 0, 73, 0
1, 346080, Note_on_c, 0, 65, 0
1, 346080, Note_on_c, 0, 90, 68
1, 346080, Note_on_c, 0, 78, 58
1, 346080, Note_on_c, 0, 54, 38
1, 346080, Note_on_c, 0, 70, 47
1, 346098, Control_c, 0, 64, 0
1, 346560, Tempo, 283380
1, 346560, Note_on_c, 0, 70, 0
1, 346560, Note_on_c, 0, 61, 0
1, 346560, Note_on_c, 0, 90, 0
1, 346560, Note_on_c, 0, 85, 0
1, 346560, Note_on_c, 0, 54, 0
1, 346560, Note_on_c, 0, 78, 0
1, 346560, Note_on_c, 0, 73, 56
1, 346560, Note_on_c, 0, 68, 49
1, 346560, Note_on_c, 0, 61, 40
1, 346560, Note_on_c, 0, 49, 28
1, 346560, Note_on_c, 0, 53, 33
1, 346560, Note_on_c, 0, 59, 38
1, 346827, Control_c, 0, 64, 127
1, 347040, Tempo, 281399
1, 347040, Note_on_c, 0, 59, 0
1, 347040, Note_on_c, 0, 68, 0
1, 347040, Note_on_c, 0, 61, 0
1, 347040, Note_on_c, 0, 73, 0
1, 347040, Note_on_c, 0, 53, 0
1, 347040, Note_on_c, 0, 49, 0
1, 347040, Note_on_c, 0, 61, 40
1, 347040, Note_on_c, 0, 68, 48
1, 347040, Note_on_c, 0, 73, 56
1, 347040, Note_on_c, 0, 49, 31
1, 347040, Note_on_c, 0, 53, 34
1, 347040, Note_on_c, 0, 59, 42
1, 347520, Tempo, 281995
1, 347520, Note_on_c, 0, 59, 0
1, 347520, Note_on_c, 0, 68, 0
1, 347520, Note_on_c, 0, 61, 0
1, 347520, Note_on_c, 0, 53, 0
1, 347520, Note_on_c, 0, 78, 56
1, 347520, Note_on_c, 0, 66, 49
1, 347520, Note_on_c, 0, 42, 32
1, 347520, Note_on_c, 0, 58, 38
1, 347540, Control_c, 0, 64, 0
1, 348000, Tempo, 289687
1, 348000, Note_on_c, 0, 58, 0
1, 348000, Note_on_c, 0, 49, 0
1, 348000, Note_on_c, 0, 78, 0
1, 348000, Note_on_c, 0, 73, 0
1, 348000, Note_on_c, 0, 42, 0
1, 348000, Note_on_c, 0, 66, 0
1, 348000, Note_on_c, 0, 73, 55
1, 348000, Note_on_c, 0, 68, 46
1, 348000, Note_on_c, 0, 61, 38
1, 348000, Note_on_c, 0, 49, 29
1, 348000, Note_on_c, 0, 53, 31
1, 348000, Note_on_c, 0, 59, 36
1, 348160, Control_c, 0, 64, 127
1, 348480, Tempo, 286547
1, 348480, Note_on_c, 0, 59, 0
1, 348480, Note_on_c, 0, 68, 0
1, 348480, Note_on_c, 0, 61, 0
1, 348480, Note_on_c, 0, 73, 0
1, 348480, Note_on_c, 0, 53, 0
1, 348480, Note_on_c, 0, 49, 0
1, 348480, Note_on_c, 0, 61, 40
1, 348480, Note_on_c, 0, 68, 48
1, 348480, Note_on_c, 0, 73, 55
1, 348480, Note_on_c, 0, 49, 30
1, 348480, Note_on_c, 0, 53, 34
1, 348480, Note_on_c, 0, 59, 38
1, 348960, Tempo, 294942
1, 348960, Note_on_c, 0, 59, 0
1, 348960, Note_on_c, 0, 68, 0
1, 348960, Note_on_c, 0, 61, 0
1, 348960, Note_on_c, 0, 53, 0
1, 348960, Note_on_c, 0, 78, 56
1, 348960, Note_on_c, 0, 66, 48
1, 348960, Note_on_c, 0, 42, 32
1, 348960, Note_on_c, 0, 58, 38
1, 348978, Control_c, 0, 64, 0
1, 349440, Tempo, 286191
1, 349440, Note_on_c, 0, 58, 0
1, 349440, Note_on_c, 0, 49, 0
1, 349440, Note_on_c, 0, 78, 0
1, 349440, Note_on_c, 0, 73, 0
1, 349440, Note_on_c, 0, 42, 0
1, 349440, Note_on_c, 0, 66, 0
1, 349440, Note_on_c, 0, 61, 52
1, 349440, Note_on_c, 0, 73, 52
1, 349920, Tempo, 291248
1, 349920, Note_on_c, 0, 73, 0
1, 349920, Note_on_c, 0, 61, 0
1, 349920, Note_on_c, 0, 61, 51
1, 349920, Note_on_c, 0, 73, 56
1, 351360, Note_on_c, 0, 73, 0
1, 351360, Note_on_c, 0, 61, 0
1, 351360, Note_on_c, 0, 58, 46
1, 351360, Note_on_c, 0, 70, 53
1, 352800, Tempo, 278319
1, 352800, Note_on_c, 0, 44, 36
1, 352800, Note_on_c, 0, 56, 43
1, 353280, Tempo, 285036
1, 353280, Note_on_c, 0, 56, 0
1, 353280, Note_on_c, 0, 44, 0
1, 353280, Note_on_c, 0, 42, 30
1, 353280, Note_on_c, 0, 54, 37
1, 353760, Note_on_c, 0, 54, 0
1, 353760, Note_on_c, 0, 42, 0
1, 353760, Note_on_c, 0, 39, 30
1, 353760, Note_on_c, 0, 51, 37
1, 354240, Tempo, 278319
1, 354240, Note_on_c, 0, 51, 0
1, 354240, Note_on_c, 0, 39, 0
1, 354240, Note_on_c, 0, 42, 36
1, 354240, Note_on_c, 0, 54, 43
1, 354720, Tempo, 285796
1, 354720, Note_on_c, 0, 54, 0
1, 354720, Note_on_c, 0, 42, 0
1, 354720, Note_on_c, 0, 41, 30
1, 354720, Note_on_c, 0, 53, 37
1, 355200, Note_on_c, 0, 53, 0
1, 355200, Note_on_c, 0, 41, 0
1, 355200, Note_on_c, 0, 37, 30
1, 355200, Note_on_c, 0, 49, 37
1, 355680, Tempo, 279057
1, 355680, Note_on_c, 0, 49, 0
1, 355680, Note_on_c, 0, 37, 0
1, 355680, Note_on_c, 0, 39, 36
1, 355680, Note_on_c, 0, 51, 43
1, 356160, Tempo, 285036
1, 356160, Note_on_c, 0, 51, 0
1, 356160, Note_on_c, 0, 39, 0
1, 356160, Note_on_c, 0, 37, 30
1, 356160, Note_on_c, 0, 49, 37
1, 356640, Note_on_c, 0, 49, 0
1, 356640, Note_on_c, 0, 37, 0
1, 356640, Note_on_c, 0, 34, 30
1, 356640, Note_on_c, 0, 46, 37
1, 357120, Note_on_c, 0, 46, 0
1, 357120, Note_on_c, 0, 58, 0
1, 357120, Note_on_c, 0, 70, 0
1, 357120, Note_on_c, 0, 34, 0
1, 357120, Note_on_c, 0, 35, 32
1, 357120, Note_on_c, 0, 47, 39
1, 357600, Note_on_c, 0, 47, 0
1, 357600, Note_on_c, 0, 35, 0
1, 357600, Note_on_c, 0, 34, 29
1, 357600, Note_on_c, 0, 46, 35
1, 358080, Note_on_c, 0, 46, 0
1, 358080, Note_on_c, 0, 34, 0
1, 358080, Note_on_c, 0, 30, 29
1, 358080, Note_on_c, 0, 42, 35
1, 358560, Tempo, 264574
1, 358560, Note_on_c, 0, 42, 0
1, 358560, Note_on_c, 0, 30, 0
1, 358560, Note_on_c, 0, 51, 52
1, 358560, Note_on_c, 0, 63, 63
1, 358560, Note_on_c, 0, 27, 40
1, 358560, Note_on_c, 0, 39, 47
1, 358650, Note_on_c, 0, 63, 0
1, 358650, Note_on_c, 0, 51, 0
1, 358800, Tempo, 270770
1, 358800, Note_on_c, 0, 51, 55
1, 358800, Note_on_c, 0, 63, 66
1, 358890, Note_on_c, 0, 63, 0
1, 358890, Note_on_c, 0, 51, 0
1, 359000, Tempo, 267023
1, 359040, Note_on_c, 0, 27, 0
1, 359040, Note_on_c, 0, 39, 0
1, 359040, Note_on_c, 0, 51, 57
1, 359040, Note_on_c, 0, 63, 67
1, 359040, Note_on_c, 0, 28, 38
1, 359040, Note_on_c, 0, 40, 44
1, 359130, Note_on_c, 0, 40, 0
1, 359130, Note_on_c, 0, 51, 0
1, 359130, Note_on_c, 0, 63, 0
1, 359130, Note_on_c, 0, 28, 0
1, 359280, Tempo, 285483
1, 359280, Note_on_c, 0, 51, 59
1, 359280, Note_on_c, 0, 63, 68
1, 359280, Note_on_c, 0, 29, 38
1, 359280, Note_on_c, 0, 41, 47
1, 359370, Note_on_c, 0, 41, 0
1, 359370, Note_on_c, 0, 51, 0
1, 359370, Note_on_c, 0, 63, 0
1, 359370, Note_on_c, 0, 29, 0
1, 359440, Tempo, 267630
1, 359480, Tempo, 267785
1, 359520, Tempo, 280610
1, 359520, Note_on_c, 0, 51, 69
1, 359520, Note_on_c, 0, 63, 80
1, 359520, Note_on_c, 0, 30, 47
1, 359520, Note_on_c, 0, 42, 56
1, 360000, Tempo, 276714
1, 360000, Note_on_c, 0, 42, 0
1, 360000, Note_on_c, 0, 51, 0
1, 360000, Note_on_c, 0, 63, 0
1, 360000, Note_on_c, 0, 30, 0
1, 360000, Note_on_c, 0, 53, 75
1, 360000, Note_on_c, 0, 59, 75
1, 360000, Note_on_c, 0, 63, 75
1, 360000, Note_on_c, 0, 65, 90
1, 360000, Note_on_c, 0, 32, 56
1, 360000, Note_on_c, 0, 44, 67
1, 360126, Control_c, 0, 64, 127
1, 360480, Tempo, 272926
1, 360480, Note_on_c, 0, 44, 0
1, 360480, Note_on_c, 0, 59, 0
1, 360480, Note_on_c, 0, 63, 0
1, 360480, Note_on_c, 0, 53, 0
1, 360480, Note_on_c, 0, 32, 0
1, 360480, Note_on_c, 0, 65, 0
1, 360480, Note_on_c, 0, 65, 63
1, 360480, Note_on_c, 0, 71, 63
1, 360480, Note_on_c, 0, 75, 63
1, 360480, Note_on_c, 0, 77, 76
1, 360480, Note_on_c, 0, 44, 43
1, 360480, Note_on_c, 0, 51, 43
1, 360480, Note_on_c, 0, 53, 43
1, 360480, Note_on_c, 0, 59, 51
1, 360720, Note_on_c, 0, 77, 0
1, 360720, Note_on_c, 0, 75, 0
1, 360720, Note_on_c, 0, 65, 0
1, 360720, Note_on_c, 0, 71, 0
1, 360720, Note_on_c, 0, 63, 61
1, 360720, Note_on_c, 0, 75, 74
1, 360960, Tempo, 269505
1, 360960, Note_on_c, 0, 75, 0
1, 360960, Note_on_c, 0, 51, 0
1, 360960, Note_on_c, 0, 53, 0
1, 360960, Note_on_c, 0, 59, 0
1, 360960, Note_on_c, 0, 63, 0
1, 360960, Note_on_c, 0, 44, 0
1, 360960, Note_on_c, 0, 65, 63
1, 360960, Note_on_c, 0, 70, 63
1, 360960, Note_on_c, 0, 74, 63
1, 360960, Note_on_c, 0, 77, 76
1, 360960, Note_on_c, 0, 46, 43
1, 360960, Note_on_c, 0, 53, 43
1, 360960, Note_on_c, 0, 56, 43
1, 360960, Note_on_c, 0, 62, 51
1, 360980, Control_c, 0, 64, 0
1, 361200, Tempo, 284792
1, 361200, Note_on_c, 0, 77, 0
1, 361200, Note_on_c, 0, 74, 0
1, 361200, Note_on_c, 0, 65, 0
1, 361200, Note_on_c, 0, 70, 0
1, 361200, Note_on_c, 0, 66, 59
1, 361200, Note_on_c, 0, 78, 72
1, 361440, Tempo, 264574
1, 361440, Note_on_c, 0, 78, 0
1, 361440, Note_on_c, 0, 53, 0
1, 361440, Note_on_c, 0, 56, 0
1, 361440, Note_on_c, 0, 62, 0
1, 361440, Note_on_c, 0, 66, 0
1, 361440, Note_on_c, 0, 46, 0
1, 361440, Note_on_c, 0, 54, 52
1, 361440, Note_on_c, 0, 66, 63
1, 361440, Note_on_c, 0, 30, 40
1, 361440, Note_on_c, 0, 42, 47
1, 361530, Note_on_c, 0, 66, 0
1, 361530, Note_on_c, 0, 54, 0
1, 361680, Tempo, 269505
1, 361680, Note_on_c, 0, 54, 55
1, 361680, Note_on_c, 0, 66, 66
1, 361770, Note_on_c, 0, 66, 0
1, 361770, Note_on_c, 0, 54, 0
1, 361920, Tempo, 266406
1, 361920, Note_on_c, 0, 30, 0
1, 361920, Note_on_c, 0, 42, 0
1, 361920, Note_on_c, 0, 54, 57
1, 361920, Note_on_c, 0, 66, 67
1, 361920, Note_on_c, 0, 31, 38
1, 361920, Note_on_c, 0, 43, 44
1, 362010, Note_on_c, 0, 43, 0
1, 362010, Note_on_c, 0, 54, 0
1, 362010, Note_on_c, 0, 66, 0
1, 362010, Note_on_c, 0, 31, 0
1, 362160, Tempo, 286875
1, 362160, Note_on_c, 0, 54, 57
1, 362160, Note_on_c, 0, 66, 66
1, 362160, Note_on_c, 0, 32, 35
1, 362160, Note_on_c, 0, 44, 43
1, 362250, Note_on_c, 0, 44, 0
1, 362250, Note_on_c, 0, 54, 0
1, 362250, Note_on_c, 0, 66, 0
1, 362250, Note_on_c, 0, 32, 0
1, 362360, Tempo, 267023
1, 362400, Tempo, 279838
1, 362400, Note_on_c, 0, 54, 68
1, 362400, Note_on_c, 0, 66, 79
1, 362400, Note_on_c, 0, 33, 46
1, 362400, Note_on_c, 0, 45, 54
1, 362880, Tempo, 275191
1, 362880, Note_on_c, 0, 45, 0
1, 362880, Note_on_c, 0, 54, 0
1, 362880, Note_on_c, 0, 66, 0
1, 362880, Note_on_c, 0, 33, 0
1, 362880, Note_on_c, 0, 56, 72
1, 362880, Note_on_c, 0, 62, 73
1, 362880, Note_on_c, 0, 66, 75
1, 362880, Note_on_c, 0, 68, 87
1, 362880, Note_on_c, 0, 35, 56
1, 362880, Note_on_c, 0, 47, 67
1, 362958, Control_c, 0, 64, 127
1, 363360, Tempo, 272183
1, 363360, Note_on_c, 0, 47, 0
1, 363360, Note_on_c, 0, 62, 0
1, 363360, Note_on_c, 0, 66, 0
1, 363360, Note_on_c, 0, 56, 0
1, 363360, Note_on_c, 0, 35, 0
1, 363360, Note_on_c, 0, 68, 0
1, 363360, Note_on_c, 0, 68, 63
1, 363360, Note_on_c, 0, 74, 63
1, 363360, Note_on_c, 0, 78, 63
1, 363360, Note_on_c, 0, 80, 76
1, 363360, Note_on_c, 0, 48, 43
1, 363360, Note_on_c, 0, 54, 43
1, 363360, Note_on_c, 0, 56, 43
1, 363360, Note_on_c, 0, 62, 51
1, 363600, Note_on_c, 0, 80, 0
1, 363600, Note_on_c, 0, 78, 0
1, 363600, Note_on_c, 0, 68, 0
1, 363600, Note_on_c, 0, 74, 0
1, 363600, Note_on_c, 0, 66, 61
1, 363600, Note_on_c, 0, 78, 74
1, 363840, Tempo, 268889
1, 363840, Note_on_c, 0, 78, 0
1, 363840, Note_on_c, 0, 54, 0
1, 363840, Note_on_c, 0, 56, 0
1, 363840, Note_on_c, 0, 62, 0
1, 363840, Note_on_c, 0, 66, 0
1, 363840, Note_on_c, 0, 48, 0
1, 363840, Note_on_c, 0, 68, 63
1, 363840, Note_on_c, 0, 73, 63
1, 363840, Note_on_c, 0, 77, 63
1, 363840, Note_on_c, 0, 80, 76
1, 363840, Note_on_c, 0, 49, 43
1, 363840, Note_on_c, 0, 56, 43
1, 363840, Note_on_c, 0, 59, 43
1, 363840, Note_on_c, 0, 65, 51
1, 363848, Control_c, 0, 64, 0
1, 364080, Tempo, 281294
1, 364080, Note_on_c, 0, 80, 0
1, 364080, Note_on_c, 0, 77, 0
1, 364080, Note_on_c, 0, 68, 0
1, 364080, Note_on_c, 0, 73, 0
1, 364080, Note_on_c, 0, 69, 58
1, 364080, Note_on_c, 0, 81, 71
1, 364320, Tempo, 261586
1, 364320, Note_on_c, 0, 81, 0
1, 364320, Note_on_c, 0, 56, 0
1, 364320, Note_on_c, 0, 59, 0
1, 364320, Note_on_c, 0, 65, 0
1, 364320, Note_on_c, 0, 69, 0
1, 364320, Note_on_c, 0, 49, 0
1, 364320, Note_on_c, 0, 57, 47
1, 364320, Note_on_c, 0, 69, 56
1, 364320, Note_on_c, 0, 33, 36
1, 364320, Note_on_c, 0, 45, 42
1, 364410, Note_on_c, 0, 69, 0
1, 364410, Note_on_c, 0, 57, 0
1, 364560, Tempo, 265793
1, 364560, Note_on_c, 0, 57, 51
1, 364560, Note_on_c, 0, 69, 60
1, 364650, Note_on_c, 0, 69, 0
1, 364650, Note_on_c, 0, 57, 0
1, 364760, Tempo, 268264
1, 364800, Tempo, 262778
1, 364800, Note_on_c, 0, 33, 0
1, 364800, Note_on_c, 0, 45, 0
1, 364800, Note_on_c, 0, 57, 54
1, 364800, Note_on_c, 0, 69, 64
1, 364800, Note_on_c, 0, 35, 36
1, 364800, Note_on_c, 0, 47, 42
1, 364890, Note_on_c, 0, 47, 0
1, 364890, Note_on_c, 0, 57, 0
1, 364890, Note_on_c, 0, 69, 0
1, 364890, Note_on_c, 0, 35, 0
1, 365040, Tempo, 277252
1, 365040, Note_on_c, 0, 57, 57
1, 365040, Note_on_c, 0, 69, 68
1, 365040, Note_on_c, 0, 36, 37
1, 365040, Note_on_c, 0, 48, 45
1, 365130, Note_on_c, 0, 48, 0
1, 365130, Note_on_c, 0, 57, 0
1, 365130, Note_on_c, 0, 69, 0
1, 365130, Note_on_c, 0, 36, 0
1, 365280, Tempo, 275191
1, 365280, Note_on_c, 0, 57, 68
1, 365280, Note_on_c, 0, 69, 80
1, 365280, Note_on_c, 0, 37, 46
1, 365280, Note_on_c, 0, 49, 54
1, 365760, Tempo, 265182
1, 365760, Note_on_c, 0, 49, 0
1, 365760, Note_on_c, 0, 57, 0
1, 365760, Note_on_c, 0, 69, 0
1, 365760, Note_on_c, 0, 37, 0
1, 365760, Note_on_c, 0, 59, 53
1, 365760, Note_on_c, 0, 65, 53
1, 365760, Note_on_c, 0, 69, 53
1, 365760, Note_on_c, 0, 71, 64
1, 365760, Note_on_c, 0, 38, 40
1, 365760, Note_on_c, 0, 50, 47
1, 365850, Note_on_c, 0, 71, 0
1, 365850, Note_on_c, 0, 69, 0
1, 365850, Note_on_c, 0, 59, 0
1, 365850, Note_on_c, 0, 65, 0
1, 366000, Tempo, 270770
1, 366000, Note_on_c, 0, 59, 56
1, 366000, Note_on_c, 0, 65, 56
1, 366000, Note_on_c, 0, 69, 56
1, 366000, Note_on_c, 0, 71, 67
1, 366090, Note_on_c, 0, 71, 0
1, 366090, Note_on_c, 0, 65, 0
1, 366090, Note_on_c, 0, 59, 0
1, 366090, Note_on_c, 0, 69, 0
1, 366200, Tempo, 267630
1, 366240, Tempo, 267023
1, 366240, Note_on_c, 0, 38, 0
1, 366240, Note_on_c, 0, 50, 0
1, 366240, Note_on_c, 0, 59, 60
1, 366240, Note_on_c, 0, 65, 60
1, 366240, Note_on_c, 0, 69, 60
1, 366240, Note_on_c, 0, 71, 71
1, 366240, Note_on_c, 0, 39, 40
1, 366240, Note_on_c, 0, 51, 47
1, 366330, Note_on_c, 0, 51, 0
1, 366330, Note_on_c, 0, 65, 0
1, 366330, Note_on_c, 0, 69, 0
1, 366330, Note_on_c, 0, 59, 0
1, 366330, Note_on_c, 0, 39, 0
1, 366330, Note_on_c, 0, 71, 0
1, 366480, Note_on_c, 0, 59, 60
1, 366480, Note_on_c, 0, 65, 60
1, 366480, Note_on_c, 0, 69, 72
1, 366480, Note_on_c, 0, 71, 72
1, 366480, Note_on_c, 0, 40, 39
1, 366480, Note_on_c, 0, 52, 48
1, 366520, Tempo, 277932
1, 366570, Note_on_c, 0, 52, 0
1, 366570, Note_on_c, 0, 65, 0
1, 366570, Note_on_c, 0, 69, 0
1, 366570, Note_on_c, 0, 59, 0
1, 366570, Note_on_c, 0, 40, 0
1, 366570, Note_on_c, 0, 71, 0
1, 366720, Tempo, 275191
1, 366720, Note_on_c, 0, 59, 68
1, 366720, Note_on_c, 0, 65, 68
1, 366720, Note_on_c, 0, 69, 68
1, 366720, Note_on_c, 0, 71, 81
1, 366720, Note_on_c, 0, 41, 45
1, 366720, Note_on_c, 0, 53, 53
1, 367200, Tempo, 264574
1, 367200, Note_on_c, 0, 53, 0
1, 367200, Note_on_c, 0, 65, 0
1, 367200, Note_on_c, 0, 69, 0
1, 367200, Note_on_c, 0, 59, 0
1, 367200, Note_on_c, 0, 41, 0
1, 367200, Note_on_c, 0, 71, 0
1, 367200, Note_on_c, 0, 60, 54
1, 367200, Note_on_c, 0, 63, 54
1, 367200, Note_on_c, 0, 69, 54
1, 367200, Note_on_c, 0, 72, 66
1, 367200, Note_on_c, 0, 42, 42
1, 367200, Note_on_c, 0, 54, 49
1, 367290, Note_on_c, 0, 72, 0
1, 367290, Note_on_c, 0, 69, 0
1, 367290, Note_on_c, 0, 60, 0
1, 367290, Note_on_c, 0, 63, 0
1, 367440, Tempo, 270124
1, 367440, Note_on_c, 0, 60, 57
1, 367440, Note_on_c, 0, 63, 57
1, 367440, Note_on_c, 0, 69, 57
1, 367440, Note_on_c, 0, 72, 69
1, 367530, Note_on_c, 0, 72, 0
1, 367530, Note_on_c, 0, 63, 0
1, 367530, Note_on_c, 0, 60, 0
1, 367530, Note_on_c, 0, 69, 0
1, 367680, Tempo, 267023
1, 367680, Note_on_c, 0, 42, 0
1, 367680, Note_on_c, 0, 54, 0
1, 367680, Note_on_c, 0, 60, 63
1, 367680, Note_on_c, 0, 63, 63
1, 367680, Note_on_c, 0, 72, 74
1, 367680, Note_on_c, 0, 43, 42
1, 367680, Note_on_c, 0, 55, 49
1, 367770, Note_on_c, 0, 55, 0
1, 367770, Note_on_c, 0, 72, 0
1, 367770, Note_on_c, 0, 60, 0
1, 367770, Note_on_c, 0, 63, 0
1, 367770, Note_on_c, 0, 43, 0
1, 367920, Tempo, 270124
1, 367920, Note_on_c, 0, 60, 55
1, 367920, Note_on_c, 0, 63, 55
1, 367920, Note_on_c, 0, 72, 76
1, 367920, Note_on_c, 0, 44, 40
1, 367920, Note_on_c, 0, 56, 50
1, 368010, Note_on_c, 0, 56, 0
1, 368010, Note_on_c, 0, 72, 0
1, 368010, Note_on_c, 0, 60, 0
1, 368010, Note_on_c, 0, 63, 0
1, 368010, Note_on_c, 0, 44, 0
1, 368160, Tempo, 288101
1, 368160, Note_on_c, 0, 66, 73
1, 368160, Note_on_c, 0, 60, 73
1, 368160, Note_on_c, 0, 63, 73
1, 368160, Note_on_c, 0, 72, 86
1, 368160, Note_on_c, 0, 45, 49
1, 368160, Note_on_c, 0, 57, 58
1, 368640, Tempo, 285796
1, 368640, Note_on_c, 0, 57, 0
1, 368640, Note_on_c, 0, 60, 0
1, 368640, Note_on_c, 0, 63, 0
1, 368640, Note_on_c, 0, 66, 0
1, 368640, Note_on_c, 0, 45, 0
1, 368640, Note_on_c, 0, 72, 0
1, 368640, Note_on_c, 0, 64, 69
1, 368640, Note_on_c, 0, 66, 69
1, 368640, Note_on_c, 0, 69, 69
1, 368640, Note_on_c, 0, 76, 81
1, 368640, Note_on_c, 0, 54, 50
1, 368640, Note_on_c, 0, 48, 50
1, 368640, Note_on_c, 0, 60, 59
1, 368739, Control_c, 0, 64, 127
1, 369120, Tempo, 278267
1, 369120, Note_on_c, 0, 60, 0
1, 369120, Note_on_c, 0, 54, 0
1, 369120, Note_on_c, 0, 66, 0
1, 369120, Note_on_c, 0, 69, 0
1, 369120, Note_on_c, 0, 64, 0
1, 369120, Note_on_c, 0, 48, 0
1, 369120, Note_on_c, 0, 76, 0
1, 369120, Note_on_c, 0, 62, 69
1, 369120, Note_on_c, 0, 67, 69
1, 369120, Note_on_c, 0, 74, 81
1, 369120, Note_on_c, 0, 55, 45
1, 369120, Note_on_c, 0, 47, 45
1, 369120, Note_on_c, 0, 59, 54
1, 369135, Control_c, 0, 64, 0
1, 369263, Control_c, 0, 64, 127
1, 369600, Tempo, 283006
1, 369600, Note_on_c, 0, 59, 0
1, 369600, Note_on_c, 0, 67, 0
1, 369600, Note_on_c, 0, 74, 0
1, 369600, Note_on_c, 0, 62, 0
1, 369600, Note_on_c, 0, 47, 0
1, 369600, Note_on_c, 0, 55, 0
1, 369600, Note_on_c, 0, 50, 72
1, 369600, Note_on_c, 0, 62, 85
1, 369600, Note_on_c, 0, 26, 49
1, 369600, Note_on_c, 0, 38, 59
1, 369613, Control_c, 0, 64, 0
1, 370080, Tempo, 277469
1, 370080, Note_on_c, 0, 38, 0
1, 370080, Note_on_c, 0, 50, 0
1, 370080, Note_on_c, 0, 62, 0
1, 370080, Note_on_c, 0, 26, 0
1, 370080, Note_on_c, 0, 61, 61
1, 370080, Note_on_c, 0, 49, 61
1, 370080, Note_on_c, 0, 25, 50
1, 370080, Note_on_c, 0, 37, 60
1, 370120, Tempo, 274625
1, 370278, Control_c, 0, 64, 127
1, 370280, Tempo, 273973
1, 370320, Note_on_c, 0, 49, 0
1, 370320, Note_on_c, 0, 61, 0
1, 370320, Note_on_c, 0, 61, 59
1, 370400, Tempo, 273324
1, 370560, Tempo, 272690
1, 370560, Note_on_c, 0, 61, 0
1, 370560, Note_on_c, 0, 25, 0
1, 370560, Note_on_c, 0, 37, 0
1, 370560, Note_on_c, 0, 66, 66
1, 370560, Note_on_c, 0, 73, 78
1, 370560, Note_on_c, 0, 49, 48
1, 370560, Note_on_c, 0, 57, 57
1, 370680, Tempo, 272047
1, 370800, Note_on_c, 0, 73, 0
1, 370800, Note_on_c, 0, 66, 0
1, 370800, Note_on_c, 0, 66, 75
1, 370840, Tempo, 271407
1, 370960, Tempo, 270770
1, 371040, Note_on_c, 0, 66, 0
1, 371040, Note_on_c, 0, 49, 0
1, 371040, Note_on_c, 0, 57, 0
1, 371040, Note_on_c, 0, 69, 69
1, 371040, Note_on_c, 0, 78, 82
1, 371040, Note_on_c, 0, 61, 57
1, 371040, Note_on_c, 0, 54, 48
1, 371120, Tempo, 270124
1, 371240, Tempo, 269505
1, 371280, Note_on_c, 0, 78, 0
1, 371280, Note_on_c, 0, 69, 0
1, 371280, Note_on_c, 0, 69, 73
1, 371400, Tempo, 268889
1, 371520, Tempo, 268264
1, 371520, Note_on_c, 0, 69, 0
1, 371520, Note_on_c, 0, 61, 0
1, 371520, Note_on_c, 0, 54, 0
1, 371520, Note_on_c, 0, 73, 65
1, 371520, Note_on_c, 0, 81, 76
1, 371520, Note_on_c, 0, 57, 42
1, 371520, Note_on_c, 0, 66, 60
1, 371760, Note_on_c, 0, 81, 0
1, 371760, Note_on_c, 0, 73, 0
1, 371760, Note_on_c, 0, 73, 71
1, 372000, Tempo, 272926
1, 372000, Note_on_c, 0, 73, 0
1, 372000, Note_on_c, 0, 57, 0
1, 372000, Note_on_c, 0, 66, 0
1, 372000, Note_on_c, 0, 78, 66
1, 372000, Note_on_c, 0, 85, 78
1, 372000, Note_on_c, 0, 61, 40
1, 372000, Note_on_c, 0, 69, 57
1, 372240, Note_on_c, 0, 85, 0
1, 372240, Note_on_c, 0, 78, 0
1, 372240, Note_on_c, 0, 78, 75
1, 372480, Tempo, 279291
1, 372480, Note_on_c, 0, 78, 0
1, 372480, Note_on_c, 0, 61, 0
1, 372480, Note_on_c, 0, 69, 0
1, 372480, Note_on_c, 0, 81, 69
1, 372480, Note_on_c, 0, 90, 82
1, 372480, Note_on_c, 0, 73, 57
1, 372480, Note_on_c, 0, 66, 40
1, 372720, Note_on_c, 0, 90, 0
1, 372720, Note_on_c, 0, 81, 0
1, 372720, Note_on_c, 0, 81, 75
1, 372960, Note_on_c, 0, 81, 0
1, 372960, Note_on_c, 0, 73, 0
1, 372960, Note_on_c, 0, 66, 0
1, 372960, Note_on_c, 0, 85, 69
1, 372960, Note_on_c, 0, 81, 69
1, 372960, Note_on_c, 0, 93, 82
1, 372960, Note_on_c, 0, 69, 48
1, 372960, Note_on_c, 0, 78, 57
1, 373440, Tempo, 275951
1, 373440, Note_on_c, 0, 78, 0
1, 373440, Note_on_c, 0, 93, 0
1, 373440, Note_on_c, 0, 85, 0
1, 373440, Note_on_c, 0, 81, 0
1, 373440, Note_on_c, 0, 69, 0
1, 373440, Note_on_c, 0, 85, 66
1, 373440, Note_on_c, 0, 80, 66
1, 373440, Note_on_c, 0, 92, 78
1, 373440, Note_on_c, 0, 71, 46
1, 373440, Note_on_c, 0, 77, 54
1, 373459, Control_c, 0, 64, 0
1, 373920, Tempo, 284630
1, 373920, Note_on_c, 0, 77, 0
1, 373920, Note_on_c, 0, 92, 0
1, 373920, Note_on_c, 0, 85, 0
1, 373920, Note_on_c, 0, 80, 0
1, 373920, Note_on_c, 0, 71, 0
1, 373920, Note_on_c, 0, 85, 73
1, 373920, Note_on_c, 0, 80, 61
1, 373920, Note_on_c, 0, 73, 61
1, 373920, Note_on_c, 0, 61, 42
1, 373920, Note_on_c, 0, 65, 42
1, 373920, Note_on_c, 0, 71, 51
1, 374011, Control_c, 0, 64, 127
1, 374400, Tempo, 278603
1, 374400, Note_on_c, 0, 71, 0
1, 374400, Note_on_c, 0, 80, 0
1, 374400, Note_on_c, 0, 73, 0
1, 374400, Note_on_c, 0, 85, 0
1, 374400, Note_on_c, 0, 65, 0
1, 374400, Note_on_c, 0, 61, 0
1, 374400, Note_on_c, 0, 73, 61
1, 374400, Note_on_c, 0, 80, 61
1, 374400, Note_on_c, 0, 85, 75
1, 374400, Note_on_c, 0, 61, 46
1, 374400, Note_on_c, 0, 65, 46
1, 374400, Note_on_c, 0, 71, 54
1, 374880, Tempo, 281294
1, 374880, Note_on_c, 0, 71, 0
1, 374880, Note_on_c, 0, 80, 0
1, 374880, Note_on_c, 0, 73, 0
1, 374880, Note_on_c, 0, 65, 0
1, 374880, Note_on_c, 0, 90, 68
1, 374880, Note_on_c, 0, 78, 58
1, 374880, Note_on_c, 0, 54, 38
1, 374880, Note_on_c, 0, 69, 47
1, 374897, Control_c, 0, 64, 0
1, 375360, Tempo, 283380
1, 375360, Note_on_c, 0, 69, 0
1, 375360, Note_on_c, 0, 61, 0
1, 375360, Note_on_c, 0, 90, 0
1, 375360, Note_on_c, 0, 85, 0
1, 375360, Note_on_c, 0, 54, 0
1, 375360, Note_on_c, 0, 78, 0
1, 375360, Note_on_c, 0, 73, 58
1, 375360, Note_on_c, 0, 68, 48
1, 375360, Note_on_c, 0, 61, 40
1, 375360, Note_on_c, 0, 49, 28
1, 375360, Note_on_c, 0, 53, 33
1, 375360, Note_on_c, 0, 59, 38
1, 375520, Control_c, 0, 64, 127
1, 375840, Tempo, 281399
1, 375840, Note_on_c, 0, 59, 0
1, 375840, Note_on_c, 0, 68, 0
1, 375840, Note_on_c, 0, 61, 0
1, 375840, Note_on_c, 0, 73, 0
1, 375840, Note_on_c, 0, 53, 0
1, 375840, Note_on_c, 0, 49, 0
1, 375840, Note_on_c, 0, 61, 42
1, 375840, Note_on_c, 0, 68, 50
1, 375840, Note_on_c, 0, 73, 58
1, 375840, Note_on_c, 0, 49, 30
1, 375840, Note_on_c, 0, 53, 36
1, 375840, Note_on_c, 0, 59, 42
1, 376320, Tempo, 281995
1, 376320, Note_on_c, 0, 59, 0
1, 376320, Note_on_c, 0, 68, 0
1, 376320, Note_on_c, 0, 61, 0
1, 376320, Note_on_c, 0, 53, 0
1, 376320, Note_on_c, 0, 78, 56
1, 376320, Note_on_c, 0, 66, 49
1, 376320, Note_on_c, 0, 42, 32
1, 376320, Note_on_c, 0, 57, 38
1, 376336, Control_c, 0, 64, 0
1, 376800, Tempo, 289687
1, 376800, Note_on_c, 0, 57, 0
1, 376800, Note_on_c, 0, 49, 0
1, 376800, Note_on_c, 0, 78, 0
1, 376800, Note_on_c, 0, 73, 0
1, 376800, Note_on_c, 0, 42, 0
1, 376800, Note_on_c, 0, 66, 0
1, 376800, Note_on_c, 0, 73, 56
1, 376800, Note_on_c, 0, 68, 46
1, 376800, Note_on_c, 0, 61, 38
1, 376800, Note_on_c, 0, 49, 26
1, 376800, Note_on_c, 0, 53, 31
1, 376800, Note_on_c, 0, 59, 36
1, 376937, Control_c, 0, 64, 127
1, 377280, Tempo, 286547
1, 377280, Note_on_c, 0, 59, 0
1, 377280, Note_on_c, 0, 68, 0
1, 377280, Note_on_c, 0, 61, 0
1, 377280, Note_on_c, 0, 73, 0
1, 377280, Note_on_c, 0, 53, 0
1, 377280, Note_on_c, 0, 49, 0
1, 377280, Note_on_c, 0, 61, 40
1, 377280, Note_on_c, 0, 68, 48
1, 377280, Note_on_c, 0, 73, 56
1, 377280, Note_on_c, 0, 49, 29
1, 377280, Note_on_c, 0, 53, 34
1, 377280, Note_on_c, 0, 59, 38
1, 377760, Tempo, 284792
1, 377760, Note_on_c, 0, 59, 0
1, 377760, Note_on_c, 0, 68, 0
1, 377760, Note_on_c, 0, 61, 0
1, 377760, Note_on_c, 0, 53, 0
1, 377760, Note_on_c, 0, 78, 55
1, 377760, Note_on_c, 0, 66, 46
1, 377760, Note_on_c, 0, 42, 30
1, 377760, Note_on_c, 0, 57, 37
1, 377779, Control_c, 0, 64, 0
1, 378240, Tempo, 282686
1, 378240, Note_on_c, 0, 57, 0
1, 378240, Note_on_c, 0, 49, 0
1, 378240, Note_on_c, 0, 78, 0
1, 378240, Note_on_c, 0, 73, 0
1, 378240, Note_on_c, 0, 42, 0
1, 378240, Note_on_c, 0, 66, 0
1, 378240, Note_on_c, 0, 61, 69
1, 378240, Note_on_c, 0, 73, 81
1, 378240, Note_on_c, 0, 37, 57
1, 378240, Note_on_c, 0, 49, 69
1, 378606, Control_c, 0, 64, 127
1, 379200, Tempo, 275280
1, 379200, Note_on_c, 0, 49, 0
1, 379200, Note_on_c, 0, 61, 0
1, 379200, Note_on_c, 0, 73, 0
1, 379200, Note_on_c, 0, 37, 0
1, 379200, Note_on_c, 0, 62, 64
1, 379200, Note_on_c, 0, 74, 75
1, 379200, Note_on_c, 0, 38, 52
1, 379200, Note_on_c, 0, 50, 63
1, 379208, Control_c, 0, 64, 0
1, 379326, Control_c, 0, 64, 127
1, 379440, Note_on_c, 0, 50, 0
1, 379440, Note_on_c, 0, 62, 0
1, 379440, Note_on_c, 0, 74, 0
1, 379440, Note_on_c, 0, 38, 0
1, 379440, Note_on_c, 0, 61, 59
1, 379440, Note_on_c, 0, 73, 71
1, 379440, Note_on_c, 0, 37, 48
1, 379440, Note_on_c, 0, 49, 57
1, 379680, Tempo, 279955
1, 379680, Note_on_c, 0, 49, 0
1, 379680, Note_on_c, 0, 61, 0
1, 379680, Note_on_c, 0, 73, 0
1, 379680, Note_on_c, 0, 37, 0
1, 379680, Note_on_c, 0, 56, 63
1, 379680, Note_on_c, 0, 68, 73
1, 379680, Note_on_c, 0, 32, 53
1, 379680, Note_on_c, 0, 44, 64
1, 379689, Control_c, 0, 64, 0
1, 379863, Control_c, 0, 64, 127
1, 379920, Note_on_c, 0, 44, 0
1, 379920, Note_on_c, 0, 56, 0
1, 379920, Note_on_c, 0, 68, 0
1, 379920, Note_on_c, 0, 32, 0
1, 379920, Note_on_c, 0, 57, 54
1, 379920, Note_on_c, 0, 69, 65
1, 379920, Note_on_c, 0, 33, 47
1, 379920, Note_on_c, 0, 45, 55
1, 380160, Tempo, 286191
1, 380160, Note_on_c, 0, 45, 0
1, 380160, Note_on_c, 0, 57, 0
1, 380160, Note_on_c, 0, 69, 0
1, 380160, Note_on_c, 0, 33, 0
1, 380160, Note_on_c, 0, 54, 58
1, 380160, Note_on_c, 0, 66, 70
1, 380160, Note_on_c, 0, 30, 52
1, 380160, Note_on_c, 0, 42, 63
1, 380170, Control_c, 0, 64, 0
1, 380373, Control_c, 0, 64, 127
1, 381600, Note_on_c, 0, 42, 0
1, 381600, Note_on_c, 0, 54, 0
1, 381600, Note_on_c, 0, 66, 0
1, 381600, Note_on_c, 0, 30, 0
1, 381600, Note_on_c, 0, 62, 84
1, 381600, Note_on_c, 0, 74, 84
1, 381600, Note_on_c, 0, 26, 72
1, 381600, Note_on_c, 0, 38, 72
1, 381609, Control_c, 0, 64, 0
1, 381737, Control_c, 0, 64, 127
1, 382034, Control_c, 0, 64, 0
1, 382040, Tempo, 283500
1, 382080, Tempo, 281995
1, 382080, Note_on_c, 0, 38, 0
1, 382080, Note_on_c, 0, 62, 0
1, 382080, Note_on_c, 0, 74, 0
1, 382080, Note_on_c, 0, 26, 0
1, 382080, Note_on_c, 0, 57, 48
1, 382080, Note_on_c, 0, 62, 48
1, 382080, Note_on_c, 0, 54, 38
1, 382320, Tempo, 281241
1, 382320, Note_on_c, 0, 54, 0
1, 382320, Note_on_c, 0, 62, 0
1, 382320, Note_on_c, 0, 57, 0
1, 382320, Note_on_c, 0, 57, 49
1, 382320, Note_on_c, 0, 62, 49
1, 382320, Note_on_c, 0, 54, 39
1, 382560, Tempo, 280518
1, 382560, Note_on_c, 0, 54, 0
1, 382560, Note_on_c, 0, 62, 0
1, 382560, Note_on_c, 0, 57, 0
1, 382560, Note_on_c, 0, 56, 50
1, 382560, Note_on_c, 0, 61, 50
1, 382560, Note_on_c, 0, 53, 40
1, 382800, Tempo, 279799
1, 382800, Note_on_c, 0, 53, 0
1, 382800, Note_on_c, 0, 61, 0
1, 382800, Note_on_c, 0, 56, 0
1, 382800, Note_on_c, 0, 57, 51
1, 382800, Note_on_c, 0, 62, 51
1, 382800, Note_on_c, 0, 54, 42
1, 383040, Tempo, 279057
1, 383040, Note_on_c, 0, 54, 0
1, 383040, Note_on_c, 0, 62, 0
1, 383040, Note_on_c, 0, 57, 0
1, 383040, Note_on_c, 0, 58, 52
1, 383040, Note_on_c, 0, 63, 52
1, 383040, Note_on_c, 0, 55, 43
1, 383280, Tempo, 278319
1, 383280, Note_on_c, 0, 55, 0
1, 383280, Note_on_c, 0, 63, 0
1, 383280, Note_on_c, 0, 58, 0
1, 383280, Note_on_c, 0, 59, 53
1, 383280, Note_on_c, 0, 64, 53
1, 383280, Note_on_c, 0, 56, 45
1, 383520, Tempo, 277585
1, 383520, Note_on_c, 0, 56, 0
1, 383520, Note_on_c, 0, 64, 0
1, 383520, Note_on_c, 0, 59, 0
1, 383520, Note_on_c, 0, 60, 54
1, 383520, Note_on_c, 0, 65, 54
1, 383520, Note_on_c, 0, 57, 46
1, 383760, Tempo, 276880
1, 383760, Note_on_c, 0, 57, 0
1, 383760, Note_on_c, 0, 65, 0
1, 383760, Note_on_c, 0, 60, 0
1, 383760, Note_on_c, 0, 61, 55
1, 383760, Note_on_c, 0, 66, 55
1, 383760, Note_on_c, 0, 58, 47
1, 384000, Tempo, 276167
1, 384000, Note_on_c, 0, 58, 0
1, 384000, Note_on_c, 0, 66, 0
1, 384000, Note_on_c, 0, 61, 0
1, 384000, Note_on_c, 0, 62, 57
1, 384000, Note_on_c, 0, 67, 57
1, 384000, Note_on_c, 0, 59, 49
1, 384240, Tempo, 275444
1, 384240, Note_on_c, 0, 59, 0
1, 384240, Note_on_c, 0, 67, 0
1, 384240, Note_on_c, 0, 62, 0
1, 384240, Note_on_c, 0, 63, 59
1, 384240, Note_on_c, 0, 68, 59
1, 384240, Note_on_c, 0, 60, 50
1, 384480, Tempo, 274725
1, 384480, Note_on_c, 0, 60, 0
1, 384480, Note_on_c, 0, 68, 0
1, 384480, Note_on_c, 0, 63, 0
1, 384480, Note_on_c, 0, 64, 59
1, 384480, Note_on_c, 0, 69, 59
1, 384480, Note_on_c, 0, 61, 51
1, 384720, Note_on_c, 0, 61, 0
1, 384720, Note_on_c, 0, 69, 0
1, 384720, Note_on_c, 0, 64, 0
1, 384720, Note_on_c, 0, 65, 60
1, 384720, Note_on_c, 0, 70, 60
1, 384720, Note_on_c, 0, 62, 53
1, 384960, Note_on_c, 0, 62, 0
1, 384960, Note_on_c, 0, 70, 0
1, 384960, Note_on_c, 0, 65, 0
1, 384960, Note_on_c, 0, 66, 64
1, 384960, Note_on_c, 0, 71, 64
1, 384960, Note_on_c, 0, 63, 55
1, 385200, Note_on_c, 0, 63, 0
1, 385200, Note_on_c, 0, 71, 0
1, 385200, Note_on_c, 0, 66, 0
1, 385200, Note_on_c, 0, 67, 65
1, 385200, Note_on_c, 0, 72, 65
1, 385200, Note_on_c, 0, 64, 55
1, 385440, Note_on_c, 0, 64, 0
1, 385440, Note_on_c, 0, 72, 0
1, 385440, Note_on_c, 0, 67, 0
1, 385440, Note_on_c, 0, 68, 66
1, 385440, Note_on_c, 0, 73, 66
1, 385440, Note_on_c, 0, 65, 55
1, 385680, Note_on_c, 0, 65, 0
1, 385680, Note_on_c, 0, 73, 0
1, 385680, Note_on_c, 0, 68, 0
1, 385680, Note_on_c, 0, 69, 67
1, 385680, Note_on_c, 0, 74, 67
1, 385680, Note_on_c, 0, 66, 57
1, 385920, Note_on_c, 0, 66, 0
1, 385920, Note_on_c, 0, 74, 0
1, 385920, Note_on_c, 0, 69, 0
1, 385920, Note_on_c, 0, 69, 68
1, 385920, Note_on_c, 0, 74, 68
1, 385920, Note_on_c, 0, 66, 58
1, 386400, Tempo, 271407
1, 386400, Note_on_c, 0, 66, 0
1, 386400, Note_on_c, 0, 74, 0
1, 386400, Note_on_c, 0, 69, 0
1, 386400, Note_on_c, 0, 70, 73
1, 386400, Note_on_c, 0, 75, 73
1, 386400, Note_on_c, 0, 67, 64
1, 386760, Tempo, 297236
1, 386880, Tempo, 286547
1, 386880, Note_on_c, 0, 67, 0
1, 386880, Note_on_c, 0, 75, 0
1, 386880, Note_on_c, 0, 70, 0
1, 386880, Note_on_c, 0, 87, 80
1, 386880, Note_on_c, 0, 82, 80
1, 386880, Note_on_c, 0, 75, 80
1, 386880, Note_on_c, 0, 67, 74
1, 386880, Note_on_c, 0, 63, 74
1, 386880, Note_on_c, 0, 58, 74
1, 386880, Note_on_c, 0, 55, 74
1, 386983, Control_c, 0, 64, 127
1, 387120, Note_on_c, 0, 55, 0
1, 387120, Note_on_c, 0, 63, 0
1, 387120, Note_on_c, 0, 82, 0
1, 387120, Note_on_c, 0, 75, 0
1, 387120, Note_on_c, 0, 87, 0
1, 387120, Note_on_c, 0, 58, 0
1, 387120, Note_on_c, 0, 67, 0
1, 387360, Note_on_c, 0, 87, 91
1, 387360, Note_on_c, 0, 99, 79
1, 387360, Note_on_c, 0, 39, 79
1, 387360, Note_on_c, 0, 51, 79
1, 387840, Tempo, 281241
1, 387840, Note_on_c, 0, 51, 0
1, 387840, Note_on_c, 0, 87, 0
1, 387840, Note_on_c, 0, 99, 0
1, 387840, Note_on_c, 0, 39, 0
1, 387840, Note_on_c, 0, 58, 48
1, 387840, Note_on_c, 0, 63, 48
1, 387840, Note_on_c, 0, 55, 38
1, 387850, Control_c, 0, 64, 0
1, 388080, Note_on_c, 0, 55, 0
1, 388080, Note_on_c, 0, 63, 0
1, 388080, Note_on_c, 0, 58, 0
1, 388080, Note_on_c, 0, 58, 49
1, 388080, Note_on_c, 0, 63, 49
1, 388080, Note_on_c, 0, 55, 39
1, 388120, Tempo, 280518
1, 388320, Note_on_c, 0, 55, 0
1, 388320, Note_on_c, 0, 63, 0
1, 388320, Note_on_c, 0, 58, 0
1, 388320, Note_on_c, 0, 57, 50
1, 388320, Note_on_c, 0, 62, 50
1, 388320, Note_on_c, 0, 54, 40
1, 388400, Tempo, 279799
1, 388560, Note_on_c, 0, 54, 0
1, 388560, Note_on_c, 0, 62, 0
1, 388560, Note_on_c, 0, 57, 0
1, 388560, Note_on_c, 0, 58, 51
1, 388560, Note_on_c, 0, 63, 51
1, 388560, Note_on_c, 0, 55, 42
1, 388640, Tempo, 279057
1, 388800, Note_on_c, 0, 55, 0
1, 388800, Note_on_c, 0, 63, 0
1, 388800, Note_on_c, 0, 58, 0
1, 388800, Note_on_c, 0, 59, 52
1, 388800, Note_on_c, 0, 64, 52
1, 388800, Note_on_c, 0, 56, 43
1, 388920, Tempo, 278319
1, 389040, Note_on_c, 0, 56, 0
1, 389040, Note_on_c, 0, 64, 0
1, 389040, Note_on_c, 0, 59, 0
1, 389040, Note_on_c, 0, 60, 53
1, 389040, Note_on_c, 0, 65, 53
1, 389040, Note_on_c, 0, 57, 45
1, 389200, Tempo, 277585
1, 389280, Note_on_c, 0, 57, 0
1, 389280, Note_on_c, 0, 65, 0
1, 389280, Note_on_c, 0, 60, 0
1, 389280, Note_on_c, 0, 61, 54
1, 389280, Note_on_c, 0, 66, 54
1, 389280, Note_on_c, 0, 58, 46
1, 389440, Tempo, 276880
1, 389520, Note_on_c, 0, 58, 0
1, 389520, Note_on_c, 0, 66, 0
1, 389520, Note_on_c, 0, 61, 0
1, 389520, Note_on_c, 0, 62, 55
1, 389520, Note_on_c, 0, 67, 55
1, 389520, Note_on_c, 0, 59, 47
1, 389720, Tempo, 276167
1, 389760, Note_on_c, 0, 59, 0
1, 389760, Note_on_c, 0, 67, 0
1, 389760, Note_on_c, 0, 62, 0
1, 389760, Note_on_c, 0, 63, 57
1, 389760, Note_on_c, 0, 68, 57
1, 389760, Note_on_c, 0, 60, 49
1, 390000, Tempo, 275444
1, 390000, Note_on_c, 0, 60, 0
1, 390000, Note_on_c, 0, 68, 0
1, 390000, Note_on_c, 0, 63, 0
1, 390000, Note_on_c, 0, 64, 59
1, 390000, Note_on_c, 0, 69, 59
1, 390000, Note_on_c, 0, 61, 50
1, 390240, Tempo, 274725
1, 390240, Note_on_c, 0, 61, 0
1, 390240, Note_on_c, 0, 69, 0
1, 390240, Note_on_c, 0, 64, 0
1, 390240, Note_on_c, 0, 65, 59
1, 390240, Note_on_c, 0, 70, 59
1, 390240, Note_on_c, 0, 62, 51
1, 390480, Note_on_c, 0, 62, 0
1, 390480, Note_on_c, 0, 70, 0
1, 390480, Note_on_c, 0, 65, 0
1, 390480, Note_on_c, 0, 66, 60
1, 390480, Note_on_c, 0, 71, 60
1, 390480, Note_on_c, 0, 63, 53
1, 390720, Note_on_c, 0, 63, 0
1, 390720, Note_on_c, 0, 71, 0
1, 390720, Note_on_c, 0, 66, 0
1, 390720, Note_on_c, 0, 67, 64
1, 390720, Note_on_c, 0, 72, 64
1, 390720, Note_on_c, 0, 64, 55
1, 390960, Note_on_c, 0, 64, 0
1, 390960, Note_on_c, 0, 72, 0
1, 390960, Note_on_c, 0, 67, 0
1, 390960, Note_on_c, 0, 68, 65
1, 390960, Note_on_c, 0, 73, 65
1, 390960, Note_on_c, 0, 65, 55
1, 391200, Note_on_c, 0, 65, 0
1, 391200, Note_on_c, 0, 73, 0
1, 391200, Note_on_c, 0, 68, 0
1, 391200, Note_on_c, 0, 69, 66
1, 391200, Note_on_c, 0, 74, 66
1, 391200, Note_on_c, 0, 66, 55
1, 391440, Note_on_c, 0, 66, 0
1, 391440, Note_on_c, 0, 74, 0
1, 391440, Note_on_c, 0, 69, 0
1, 391440, Note_on_c, 0, 70, 67
1, 391440, Note_on_c, 0, 75, 67
1, 391440, Note_on_c, 0, 67, 57
1, 391680, Note_on_c, 0, 67, 0
1, 391680, Note_on_c, 0, 75, 0
1, 391680, Note_on_c, 0, 70, 0
1, 391680, Note_on_c, 0, 70, 68
1, 391680, Note_on_c, 0, 75, 68
1, 391680, Note_on_c, 0, 67, 58
1, 392160, Tempo, 270770
1, 392160, Note_on_c, 0, 67, 0
1, 392160, Note_on_c, 0, 75, 0
1, 392160, Note_on_c, 0, 70, 0
1, 392160, Note_on_c, 0, 71, 73
1, 392160, Note_on_c, 0, 76, 73
1, 392160, Note_on_c, 0, 68, 64
1, 392560, Tempo, 294942
1, 392640, Tempo, 286547
1, 392640, Note_on_c, 0, 68, 0
1, 392640, Note_on_c, 0, 76, 0
1, 392640, Note_on_c, 0, 71, 0
1, 392640, Note_on_c, 0, 88, 80
1, 392640, Note_on_c, 0, 83, 80
1, 392640, Note_on_c, 0, 76, 80
1, 392640, Note_on_c, 0, 68, 74
1, 392640, Note_on_c, 0, 64, 74
1, 392640, Note_on_c, 0, 59, 74
1, 392640, Note_on_c, 0, 56, 74
1, 392720, Control_c, 0, 64, 127
1, 392880, Note_on_c, 0, 56, 0
1, 392880, Note_on_c, 0, 64, 0
1, 392880, Note_on_c, 0, 83, 0
1, 392880, Note_on_c, 0, 76, 0
1, 392880, Note_on_c, 0, 88, 0
1, 392880, Note_on_c, 0, 59, 0
1, 392880, Note_on_c, 0, 68, 0
1, 393120, Note_on_c, 0, 88, 91
1, 393120, Note_on_c, 0, 100, 85
1, 393120, Note_on_c, 0, 40, 79
1, 393120, Note_on_c, 0, 52, 79
1, 393600, Tempo, 276880
1, 393600, Note_on_c, 0, 52, 0
1, 393600, Note_on_c, 0, 88, 0
1, 393600, Note_on_c, 0, 100, 0
1, 393600, Note_on_c, 0, 40, 0
1, 393600, Note_on_c, 0, 64, 58
1, 393600, Note_on_c, 0, 76, 70
1, 393600, Note_on_c, 0, 56, 50
1, 393600, Note_on_c, 0, 59, 59
1, 393607, Control_c, 0, 64, 0
1, 393840, Note_on_c, 0, 59, 0
1, 393840, Note_on_c, 0, 64, 0
1, 393840, Note_on_c, 0, 76, 0
1, 393840, Note_on_c, 0, 56, 0
1, 393840, Note_on_c, 0, 64, 58
1, 393840, Note_on_c, 0, 76, 70
1, 393840, Note_on_c, 0, 56, 49
1, 393840, Note_on_c, 0, 59, 58
1, 394080, Tempo, 281241
1, 394080, Note_on_c, 0, 59, 0
1, 394080, Note_on_c, 0, 64, 0
1, 394080, Note_on_c, 0, 76, 0
1, 394080, Note_on_c, 0, 56, 0
1, 394080, Note_on_c, 0, 63, 53
1, 394080, Note_on_c, 0, 75, 64
1, 394080, Note_on_c, 0, 55, 46
1, 394080, Note_on_c, 0, 58, 54
1, 394320, Note_on_c, 0, 58, 0
1, 394320, Note_on_c, 0, 63, 0
1, 394320, Note_on_c, 0, 75, 0
1, 394320, Note_on_c, 0, 55, 0
1, 394320, Note_on_c, 0, 64, 53
1, 394320, Note_on_c, 0, 76, 64
1, 394320, Note_on_c, 0, 56, 46
1, 394320, Note_on_c, 0, 59, 54
1, 394440, Tempo, 278319
1, 394560, Note_on_c, 0, 59, 0
1, 394560, Note_on_c, 0, 64, 0
1, 394560, Note_on_c, 0, 76, 0
1, 394560, Note_on_c, 0, 56, 0
1, 394560, Note_on_c, 0, 65, 58
1, 394560, Note_on_c, 0, 77, 70
1, 394560, Note_on_c, 0, 57, 49
1, 394560, Note_on_c, 0, 60, 58
1, 394600, Tempo, 277585
1, 394800, Note_on_c, 0, 60, 0
1, 394800, Note_on_c, 0, 65, 0
1, 394800, Note_on_c, 0, 77, 0
1, 394800, Note_on_c, 0, 57, 0
1, 394800, Note_on_c, 0, 66, 53
1, 394800, Note_on_c, 0, 78, 64
1, 394800, Note_on_c, 0, 58, 49
1, 394800, Note_on_c, 0, 61, 58
1, 395040, Tempo, 275280
1, 395040, Note_on_c, 0, 61, 0
1, 395040, Note_on_c, 0, 66, 0
1, 395040, Note_on_c, 0, 78, 0
1, 395040, Note_on_c, 0, 58, 0
1, 395040, Note_on_c, 0, 67, 58
1, 395040, Note_on_c, 0, 79, 70
1, 395040, Note_on_c, 0, 59, 49
1, 395040, Note_on_c, 0, 62, 58
1, 395160, Note_on_c, 0, 62, 0
1, 395160, Note_on_c, 0, 67, 0
1, 395160, Note_on_c, 0, 79, 0
1, 395160, Note_on_c, 0, 59, 0
1, 395280, Note_on_c, 0, 67, 54
1, 395280, Note_on_c, 0, 79, 65
1, 395280, Note_on_c, 0, 59, 45
1, 395280, Note_on_c, 0, 62, 53
1, 395400, Note_on_c, 0, 62, 0
1, 395400, Note_on_c, 0, 67, 0
1, 395400, Note_on_c, 0, 79, 0
1, 395400, Note_on_c, 0, 59, 0
1, 395520, Tempo, 282752
1, 395520, Note_on_c, 0, 67, 54
1, 395520, Note_on_c, 0, 79, 65
1, 395520, Note_on_c, 0, 59, 45
1, 395520, Note_on_c, 0, 62, 53
1, 395640, Note_on_c, 0, 62, 0
1, 395640, Note_on_c, 0, 67, 0
1, 395640, Note_on_c, 0, 79, 0
1, 395640, Note_on_c, 0, 59, 0
1, 395760, Note_on_c, 0, 67, 54
1, 395760, Note_on_c, 0, 79, 65
1, 395760, Note_on_c, 0, 59, 46
1, 395760, Note_on_c, 0, 62, 54
1, 395880, Note_on_c, 0, 62, 0
1, 395880, Note_on_c, 0, 67, 0
1, 395880, Note_on_c, 0, 79, 0
1, 395880, Note_on_c, 0, 59, 0
1, 396000, Tempo, 276880
1, 396000, Note_on_c, 0, 67, 58
1, 396000, Note_on_c, 0, 79, 70
1, 396000, Note_on_c, 0, 59, 49
1, 396000, Note_on_c, 0, 62, 58
1, 396240, Note_on_c, 0, 62, 0
1, 396240, Note_on_c, 0, 67, 0
1, 396240, Note_on_c, 0, 79, 0
1, 396240, Note_on_c, 0, 59, 0
1, 396240, Note_on_c, 0, 66, 54
1, 396240, Note_on_c, 0, 78, 65
1, 396240, Note_on_c, 0, 58, 46
1, 396240, Note_on_c, 0, 61, 54
1, 396480, Tempo, 274625
1, 396480, Note_on_c, 0, 61, 0
1, 396480, Note_on_c, 0, 66, 0
1, 396480, Note_on_c, 0, 78, 0
1, 396480, Note_on_c, 0, 58, 0
1, 396480, Note_on_c, 0, 66, 58
1, 396480, Note_on_c, 0, 78, 70
1, 396480, Note_on_c, 0, 58, 49
1, 396480, Note_on_c, 0, 61, 58
1, 396600, Note_on_c, 0, 61, 0
1, 396600, Note_on_c, 0, 66, 0
1, 396600, Note_on_c, 0, 78, 0
1, 396600, Note_on_c, 0, 58, 0
1, 396720, Note_on_c, 0, 66, 54
1, 396720, Note_on_c, 0, 78, 65
1, 396720, Note_on_c, 0, 58, 46
1, 396720, Note_on_c, 0, 61, 54
1, 396840, Note_on_c, 0, 61, 0
1, 396840, Note_on_c, 0, 66, 0
1, 396840, Note_on_c, 0, 78, 0
1, 396840, Note_on_c, 0, 58, 0
1, 396960, Tempo, 282752
1, 396960, Note_on_c, 0, 65, 54
1, 396960, Note_on_c, 0, 77, 65
1, 396960, Note_on_c, 0, 57, 46
1, 396960, Note_on_c, 0, 60, 54
1, 397080, Note_on_c, 0, 60, 0
1, 397080, Note_on_c, 0, 65, 0
1, 397080, Note_on_c, 0, 77, 0
1, 397080, Note_on_c, 0, 57, 0
1, 397200, Note_on_c, 0, 66, 54
1, 397200, Note_on_c, 0, 78, 65
1, 397200, Note_on_c, 0, 58, 46
1, 397200, Note_on_c, 0, 61, 54
1, 397320, Note_on_c, 0, 61, 0
1, 397320, Note_on_c, 0, 66, 0
1, 397320, Note_on_c, 0, 78, 0
1, 397320, Note_on_c, 0, 58, 0
1, 397440, Tempo, 276880
1, 397440, Note_on_c, 0, 67, 58
1, 397440, Note_on_c, 0, 79, 70
1, 397440, Note_on_c, 0, 59, 49
1, 397440, Note_on_c, 0, 62, 58
1, 397680, Note_on_c, 0, 62, 0
1, 397680, Note_on_c, 0, 67, 0
1, 397680, Note_on_c, 0, 79, 0
1, 397680, Note_on_c, 0, 59, 0
1, 397680, Note_on_c, 0, 68, 53
1, 397680, Note_on_c, 0, 80, 63
1, 397680, Note_on_c, 0, 60, 46
1, 397680, Note_on_c, 0, 63, 54
1, 397920, Tempo, 273973
1, 397920, Note_on_c, 0, 63, 0
1, 397920, Note_on_c, 0, 68, 0
1, 397920, Note_on_c, 0, 80, 0
1, 397920, Note_on_c, 0, 60, 0
1, 397920, Note_on_c, 0, 69, 54
1, 397920, Note_on_c, 0, 81, 65
1, 397920, Note_on_c, 0, 61, 49
1, 397920, Note_on_c, 0, 64, 58
1, 398040, Note_on_c, 0, 64, 0
1, 398040, Note_on_c, 0, 69, 0
1, 398040, Note_on_c, 0, 81, 0
1, 398040, Note_on_c, 0, 61, 0
1, 398160, Note_on_c, 0, 69, 56
1, 398160, Note_on_c, 0, 81, 67
1, 398160, Note_on_c, 0, 61, 51
1, 398160, Note_on_c, 0, 64, 60
1, 398280, Note_on_c, 0, 64, 0
1, 398280, Note_on_c, 0, 69, 0
1, 398280, Note_on_c, 0, 81, 0
1, 398280, Note_on_c, 0, 61, 0
1, 398400, Tempo, 281241
1, 398400, Note_on_c, 0, 69, 58
1, 398400, Note_on_c, 0, 81, 70
1, 398400, Note_on_c, 0, 61, 53
1, 398400, Note_on_c, 0, 64, 63
1, 398520, Note_on_c, 0, 64, 0
1, 398520, Note_on_c, 0, 69, 0
1, 398520, Note_on_c, 0, 81, 0
1, 398520, Note_on_c, 0, 61, 0
1, 398640, Note_on_c, 0, 69, 60
1, 398640, Note_on_c, 0, 81, 72
1, 398640, Note_on_c, 0, 61, 53
1, 398640, Note_on_c, 0, 64, 64
1, 398760, Note_on_c, 0, 64, 0
1, 398760, Note_on_c, 0, 69, 0
1, 398760, Note_on_c, 0, 81, 0
1, 398760, Note_on_c, 0, 61, 0
1, 398880, Tempo, 276880
1, 398880, Note_on_c, 0, 69, 66
1, 398880, Note_on_c, 0, 81, 78
1, 398880, Note_on_c, 0, 61, 56
1, 398880, Note_on_c, 0, 64, 67
1, 399120, Note_on_c, 0, 64, 0
1, 399120, Note_on_c, 0, 69, 0
1, 399120, Note_on_c, 0, 81, 0
1, 399120, Note_on_c, 0, 61, 0
1, 399120, Note_on_c, 0, 68, 60
1, 399120, Note_on_c, 0, 80, 72
1, 399120, Note_on_c, 0, 60, 50
1, 399120, Note_on_c, 0, 63, 59
1, 399360, Tempo, 273973
1, 399360, Note_on_c, 0, 63, 0
1, 399360, Note_on_c, 0, 68, 0
1, 399360, Note_on_c, 0, 80, 0
1, 399360, Note_on_c, 0, 60, 0
1, 399360, Note_on_c, 0, 68, 63
1, 399360, Note_on_c, 0, 80, 74
1, 399360, Note_on_c, 0, 60, 50
1, 399360, Note_on_c, 0, 63, 59
1, 399480, Note_on_c, 0, 63, 0
1, 399480, Note_on_c, 0, 68, 0
1, 399480, Note_on_c, 0, 80, 0
1, 399480, Note_on_c, 0, 60, 0
1, 399600, Note_on_c, 0, 68, 65
1, 399600, Note_on_c, 0, 80, 76
1, 399600, Note_on_c, 0, 60, 52
1, 399600, Note_on_c, 0, 63, 61
1, 399720, Note_on_c, 0, 63, 0
1, 399720, Note_on_c, 0, 68, 0
1, 399720, Note_on_c, 0, 80, 0
1, 399720, Note_on_c, 0, 60, 0
1, 399840, Tempo, 281241
1, 399840, Note_on_c, 0, 67, 65
1, 399840, Note_on_c, 0, 79, 77
1, 399840, Note_on_c, 0, 59, 53
1, 399840, Note_on_c, 0, 62, 64
1, 399960, Note_on_c, 0, 62, 0
1, 399960, Note_on_c, 0, 67, 0
1, 399960, Note_on_c, 0, 79, 0
1, 399960, Note_on_c, 0, 59, 0
1, 400080, Note_on_c, 0, 68, 68
1, 400080, Note_on_c, 0, 80, 80
1, 400080, Note_on_c, 0, 60, 54
1, 400080, Note_on_c, 0, 63, 65
1, 400200, Note_on_c, 0, 63, 0
1, 400200, Note_on_c, 0, 68, 0
1, 400200, Note_on_c, 0, 80, 0
1, 400200, Note_on_c, 0, 60, 0
1, 400320, Tempo, 283380
1, 400320, Note_on_c, 0, 68, 77
1, 400320, Note_on_c, 0, 73, 77
1, 400320, Note_on_c, 0, 80, 91
1, 400320, Note_on_c, 0, 59, 56
1, 400320, Note_on_c, 0, 65, 67
1, 400320, Note_on_c, 0, 61, 56
1, 400384, Control_c, 0, 64, 127
1, 400680, Tempo, 300315
1, 400740, Note_on_c, 0, 80, 0
1, 400740, Note_on_c, 0, 68, 0
1, 400740, Note_on_c, 0, 73, 0
1, 400740, Note_on_c, 0, 70, 55
1, 400740, Note_on_c, 0, 82, 63
1, 400800, Tempo, 277252
1, 400800, Note_on_c, 0, 82, 0
1, 400800, Note_on_c, 0, 59, 0
1, 400800, Note_on_c, 0, 61, 0
1, 400800, Note_on_c, 0, 65, 0
1, 400800, Note_on_c, 0, 70, 0
1, 400800, Note_on_c, 0, 68, 73
1, 400800, Note_on_c, 0, 73, 73
1, 400800, Note_on_c, 0, 80, 86
1, 400800, Note_on_c, 0, 37, 49
1, 400800, Note_on_c, 0, 49, 59
1, 401040, Tempo, 279955
1, 401040, Note_on_c, 0, 80, 0
1, 401040, Note_on_c, 0, 68, 0
1, 401040, Note_on_c, 0, 73, 0
1, 401040, Note_on_c, 0, 67, 66
1, 401040, Note_on_c, 0, 79, 79
1, 401280, Tempo, 287604
1, 401280, Note_on_c, 0, 79, 0
1, 401280, Note_on_c, 0, 49, 0
1, 401280, Note_on_c, 0, 37, 0
1, 401280, Note_on_c, 0, 67, 0
1, 401280, Note_on_c, 0, 68, 73
1, 401280, Note_on_c, 0, 73, 73
1, 401280, Note_on_c, 0, 80, 88
1, 401280, Note_on_c, 0, 65, 65
1, 401280, Note_on_c, 0, 61, 54
1, 401280, Note_on_c, 0, 59, 54
1, 401520, Note_on_c, 0, 80, 0
1, 401520, Note_on_c, 0, 68, 0
1, 401520, Note_on_c, 0, 73, 0
1, 401520, Note_on_c, 0, 70, 69
1, 401520, Note_on_c, 0, 82, 82
1, 401640, Tempo, 298775
1, 401760, Tempo, 288323
1, 401760, Note_on_c, 0, 82, 0
1, 401760, Note_on_c, 0, 65, 0
1, 401760, Note_on_c, 0, 59, 0
1, 401760, Note_on_c, 0, 61, 0
1, 401760, Note_on_c, 0, 70, 0
1, 401760, Note_on_c, 0, 73, 76
1, 401760, Note_on_c, 0, 68, 76
1, 401760, Note_on_c, 0, 80, 90
1, 401760, Control_c, 0, 64, 0
1, 401760, Note_on_c, 0, 64, 67
1, 401760, Note_on_c, 0, 61, 56
1, 401760, Note_on_c, 0, 59, 56
1, 401760, Note_on_c, 0, 54, 56
1, 402000, Control_c, 0, 64, 127
1, 402240, Tempo, 278603
1, 402240, Note_on_c, 0, 54, 0
1, 402240, Note_on_c, 0, 61, 0
1, 402240, Note_on_c, 0, 68, 0
1, 402240, Note_on_c, 0, 80, 0
1, 402240, Note_on_c, 0, 73, 0
1, 402240, Note_on_c, 0, 59, 0
1, 402240, Note_on_c, 0, 64, 0
1, 402240, Note_on_c, 0, 92, 95
1, 402240, Note_on_c, 0, 80, 79
1, 402240, Note_on_c, 0, 30, 51
1, 402240, Note_on_c, 0, 42, 60
1, 402480, Note_on_c, 0, 80, 0
1, 402480, Note_on_c, 0, 92, 0
1, 402720, Tempo, 283380
1, 402720, Note_on_c, 0, 30, 0
1, 402720, Note_on_c, 0, 42, 0
1, 402720, Note_on_c, 0, 66, 73
1, 402720, Note_on_c, 0, 73, 73
1, 402720, Note_on_c, 0, 78, 88
1, 402720, Note_on_c, 0, 64, 61
1, 402720, Note_on_c, 0, 61, 52
1, 402720, Note_on_c, 0, 58, 52
1, 402720, Note_on_c, 0, 54, 52
1, 403200, Tempo, 286875
1, 403200, Note_on_c, 0, 54, 0
1, 403200, Note_on_c, 0, 61, 0
1, 403200, Note_on_c, 0, 73, 0
1, 403200, Note_on_c, 0, 78, 0
1, 403200, Note_on_c, 0, 66, 0
1, 403200, Note_on_c, 0, 58, 0
1, 403200, Note_on_c, 0, 64, 0
1, 403200, Note_on_c, 0, 66, 65
1, 403200, Note_on_c, 0, 71, 65
1, 403200, Note_on_c, 0, 78, 77
1, 403200, Note_on_c, 0, 57, 54
1, 403200, Note_on_c, 0, 63, 63
1, 403200, Note_on_c, 0, 59, 54
1, 403215, Control_c, 0, 64, 0
1, 403433, Control_c, 0, 64, 127
1, 403560, Tempo, 301099
1, 403620, Note_on_c, 0, 78, 0
1, 403620, Note_on_c, 0, 66, 0
1, 403620, Note_on_c, 0, 71, 0
1, 403620, Note_on_c, 0, 68, 61
1, 403620, Note_on_c, 0, 80, 61
1, 403680, Tempo, 279955
1, 403680, Note_on_c, 0, 80, 0
1, 403680, Note_on_c, 0, 57, 0
1, 403680, Note_on_c, 0, 59, 0
1, 403680, Note_on_c, 0, 63, 0
1, 403680, Note_on_c, 0, 68, 0
1, 403680, Note_on_c, 0, 66, 70
1, 403680, Note_on_c, 0, 71, 70
1, 403680, Note_on_c, 0, 78, 82
1, 403680, Note_on_c, 0, 35, 47
1, 403680, Note_on_c, 0, 47, 57
1, 403720, Tempo, 277252
1, 403920, Tempo, 279955
1, 403920, Note_on_c, 0, 78, 0
1, 403920, Note_on_c, 0, 66, 0
1, 403920, Note_on_c, 0, 71, 0
1, 403920, Note_on_c, 0, 65, 67
1, 403920, Note_on_c, 0, 77, 79
1, 404160, Tempo, 291234
1, 404160, Note_on_c, 0, 77, 0
1, 404160, Note_on_c, 0, 47, 0
1, 404160, Note_on_c, 0, 35, 0
1, 404160, Note_on_c, 0, 65, 0
1, 404160, Note_on_c, 0, 66, 70
1, 404160, Note_on_c, 0, 71, 70
1, 404160, Note_on_c, 0, 78, 84
1, 404160, Note_on_c, 0, 63, 61
1, 404160, Note_on_c, 0, 59, 51
1, 404160, Note_on_c, 0, 57, 51
1, 404400, Note_on_c, 0, 78, 0
1, 404400, Note_on_c, 0, 66, 0
1, 404400, Note_on_c, 0, 71, 0
1, 404400, Note_on_c, 0, 68, 67
1, 404400, Note_on_c, 0, 80, 79
1, 404640, Tempo, 286875
1, 404640, Note_on_c, 0, 80, 0
1, 404640, Note_on_c, 0, 63, 0
1, 404640, Note_on_c, 0, 57, 0
1, 404640, Note_on_c, 0, 59, 0
1, 404640, Note_on_c, 0, 68, 0
1, 404640, Note_on_c, 0, 71, 76
1, 404640, Note_on_c, 0, 66, 76
1, 404640, Note_on_c, 0, 78, 90
1, 404640, Note_on_c, 0, 62, 67
1, 404640, Note_on_c, 0, 59, 56
1, 404640, Note_on_c, 0, 57, 56
1, 404640, Note_on_c, 0, 52, 56
1, 404652, Control_c, 0, 64, 0
1, 404880, Control_c, 0, 64, 127
1, 405120, Tempo, 280636
1, 405120, Note_on_c, 0, 52, 0
1, 405120, Note_on_c, 0, 59, 0
1, 405120, Note_on_c, 0, 66, 0
1, 405120, Note_on_c, 0, 78, 0
1, 405120, Note_on_c, 0, 71, 0
1, 405120, Note_on_c, 0, 57, 0
1, 405120, Note_on_c, 0, 62, 0
1, 405120, Note_on_c, 0, 90, 92
1, 405120, Note_on_c, 0, 78, 79
1, 405120, Note_on_c, 0, 28, 51
1, 405120, Note_on_c, 0, 40, 60
1, 405360, Note_on_c, 0, 78, 0
1, 405360, Note_on_c, 0, 90, 0
1, 405600, Note_on_c, 0, 28, 0
1, 405600, Note_on_c, 0, 40, 0
1, 405600, Note_on_c, 0, 64, 73
1, 405600, Note_on_c, 0, 71, 73
1, 405600, Note_on_c, 0, 76, 88
1, 405600, Note_on_c, 0, 62, 61
1, 405600, Note_on_c, 0, 56, 52
1, 405600, Note_on_c, 0, 52, 52
1, 405640, Tempo, 283380
1, 406080, Tempo, 286875
1, 406080, Note_on_c, 0, 52, 0
1, 406080, Note_on_c, 0, 71, 0
1, 406080, Note_on_c, 0, 76, 0
1, 406080, Note_on_c, 0, 64, 0
1, 406080, Note_on_c, 0, 56, 0
1, 406080, Note_on_c, 0, 62, 0
1, 406080, Note_on_c, 0, 64, 77
1, 406080, Note_on_c, 0, 69, 77
1, 406080, Note_on_c, 0, 76, 91
1, 406080, Note_on_c, 0, 55, 56
1, 406080, Note_on_c, 0, 61, 67
1, 406080, Note_on_c, 0, 57, 56
1, 406090, Control_c, 0, 64, 0
1, 406309, Control_c, 0, 64, 127
1, 406440, Tempo, 301872
1, 406500, Note_on_c, 0, 76, 0
1, 406500, Note_on_c, 0, 64, 0
1, 406500, Note_on_c, 0, 69, 0
1, 406500, Note_on_c, 0, 66, 55
1, 406500, Note_on_c, 0, 78, 63
1, 406560, Tempo, 279057
1, 406560, Note_on_c, 0, 78, 0
1, 406560, Note_on_c, 0, 55, 0
1, 406560, Note_on_c, 0, 57, 0
1, 406560, Note_on_c, 0, 61, 0
1, 406560, Note_on_c, 0, 66, 0
1, 406560, Note_on_c, 0, 64, 77
1, 406560, Note_on_c, 0, 69, 77
1, 406560, Note_on_c, 0, 76, 91
1, 406560, Note_on_c, 0, 33, 50
1, 406560, Note_on_c, 0, 45, 59
1, 406800, Note_on_c, 0, 76, 0
1, 406800, Note_on_c, 0, 64, 0
1, 406800, Note_on_c, 0, 69, 0
1, 406800, Note_on_c, 0, 63, 69
1, 406800, Note_on_c, 0, 75, 82
1, 407040, Tempo, 288101
1, 407040, Note_on_c, 0, 75, 0
1, 407040, Note_on_c, 0, 45, 0
1, 407040, Note_on_c, 0, 33, 0
1, 407040, Note_on_c, 0, 63, 0
1, 407040, Note_on_c, 0, 64, 73
1, 407040, Note_on_c, 0, 69, 73
1, 407040, Note_on_c, 0, 76, 88
1, 407040, Note_on_c, 0, 61, 60
1, 407040, Note_on_c, 0, 57, 51
1, 407040, Note_on_c, 0, 55, 51
1, 407280, Note_on_c, 0, 76, 0
1, 407280, Note_on_c, 0, 64, 0
1, 407280, Note_on_c, 0, 69, 0
1, 407280, Note_on_c, 0, 66, 69
1, 407280, Note_on_c, 0, 78, 82
1, 407520, Tempo, 283500
1, 407520, Note_on_c, 0, 78, 0
1, 407520, Note_on_c, 0, 61, 0
1, 407520, Note_on_c, 0, 55, 0
1, 407520, Note_on_c, 0, 57, 0
1, 407520, Note_on_c, 0, 66, 0
1, 407520, Note_on_c, 0, 63, 76
1, 407520, Note_on_c, 0, 69, 76
1, 407520, Note_on_c, 0, 75, 90
1, 407520, Control_c, 0, 64, 0
1, 407520, Note_on_c, 0, 54, 56
1, 407520, Note_on_c, 0, 60, 67
1, 407760, Note_on_c, 0, 75, 0
1, 407760, Note_on_c, 0, 63, 0
1, 407760, Note_on_c, 0, 69, 0
1, 407760, Note_on_c, 0, 63, 74
1, 407760, Control_c, 0, 64, 127
1, 408000, Note_on_c, 0, 63, 0
1, 408000, Note_on_c, 0, 54, 0
1, 408000, Note_on_c, 0, 60, 0
1, 408000, Note_on_c, 0, 66, 71
1, 408000, Note_on_c, 0, 75, 84
1, 408000, Note_on_c, 0, 57, 48
1, 408000, Note_on_c, 0, 60, 58
1, 408040, Tempo, 282752
1, 408160, Tempo, 283500
1, 408240, Tempo, 284266
1, 408240, Note_on_c, 0, 75, 0
1, 408240, Note_on_c, 0, 66, 0
1, 408240, Note_on_c, 0, 75, 91
1, 408320, Tempo, 285036
1, 408400, Tempo, 285796
1, 408480, Tempo, 286547
1, 408480, Note_on_c, 0, 75, 0
1, 408480, Note_on_c, 0, 57, 0
1, 408480, Note_on_c, 0, 60, 0
1, 408480, Note_on_c, 0, 87, 89
1, 408480, Note_on_c, 0, 78, 74
1, 408480, Note_on_c, 0, 69, 55
1, 408480, Note_on_c, 0, 72, 65
1, 408600, Tempo, 287315
1, 408680, Tempo, 288101
1, 408720, Note_on_c, 0, 78, 0
1, 408720, Note_on_c, 0, 87, 0
1, 408720, Note_on_c, 0, 87, 93
1, 408760, Tempo, 288878
1, 408840, Tempo, 289687
1, 408920, Tempo, 290458
1, 408960, Note_on_c, 0, 87, 0
1, 408960, Note_on_c, 0, 69, 0
1, 408960, Note_on_c, 0, 72, 0
1, 408960, Note_on_c, 0, 99, 93
1, 408960, Note_on_c, 0, 90, 77
1, 408960, Note_on_c, 0, 84, 68
1, 408960, Note_on_c, 0, 81, 56
1, 409440, Tempo, 290501
1, 409440, Note_on_c, 0, 81, 0
1, 409440, Note_on_c, 0, 99, 0
1, 409440, Note_on_c, 0, 90, 0
1, 409440, Note_on_c, 0, 84, 0
1, 409440, Note_on_c, 0, 63, 70
1, 409440, Note_on_c, 0, 69, 82
1, 409440, Note_on_c, 0, 66, 70
1, 409440, Note_on_c, 0, 48, 48
1, 409440, Note_on_c, 0, 60, 58
1, 409452, Control_c, 0, 64, 0
1, 409680, Note_on_c, 0, 60, 0
1, 409680, Note_on_c, 0, 66, 0
1, 409680, Note_on_c, 0, 63, 0
1, 409680, Note_on_c, 0, 69, 0
1, 409680, Note_on_c, 0, 48, 0
1, 409920, Tempo, 286875
1, 409920, Note_on_c, 0, 66, 67
1, 409920, Note_on_c, 0, 69, 67
1, 409920, Note_on_c, 0, 78, 79
1, 409920, Note_on_c, 0, 24, 48
1, 409920, Note_on_c, 0, 36, 57
1, 410160, Note_on_c, 0, 36, 0
1, 410160, Note_on_c, 0, 78, 0
1, 410160, Note_on_c, 0, 66, 0
1, 410160, Note_on_c, 0, 69, 0
1, 410160, Note_on_c, 0, 24, 0
1, 410400, Tempo, 289771
1, 410400, Note_on_c, 0, 65, 70
1, 410400, Note_on_c, 0, 70, 70
1, 410400, Note_on_c, 0, 77, 82
1, 410400, Note_on_c, 0, 25, 50
1, 410400, Note_on_c, 0, 37, 59
1, 410640, Note_on_c, 0, 37, 0
1, 410640, Note_on_c, 0, 77, 0
1, 410640, Note_on_c, 0, 65, 0
1, 410640, Note_on_c, 0, 70, 0
1, 410640, Note_on_c, 0, 25, 0
1, 410880, Tempo, 288323
1, 410880, Note_on_c, 0, 58, 52
1, 410880, Note_on_c, 0, 65, 52
1, 410880, Note_on_c, 0, 70, 61
1, 410880, Note_on_c, 0, 37, 34
1, 410880, Note_on_c, 0, 49, 40
1, 411120, Note_on_c, 0, 49, 0
1, 411120, Note_on_c, 0, 70, 0
1, 411120, Note_on_c, 0, 58, 0
1, 411120, Note_on_c, 0, 65, 0
1, 411120, Note_on_c, 0, 37, 0
1, 411360, Tempo, 291234
1, 411360, Note_on_c, 0, 63, 56
1, 411360, Note_on_c, 0, 66, 56
1, 411360, Note_on_c, 0, 72, 66
1, 411360, Note_on_c, 0, 75, 66
1, 411360, Note_on_c, 0, 27, 37
1, 411360, Note_on_c, 0, 39, 46
1, 411600, Note_on_c, 0, 39, 0
1, 411600, Note_on_c, 0, 66, 0
1, 411600, Note_on_c, 0, 72, 0
1, 411600, Note_on_c, 0, 63, 0
1, 411600, Note_on_c, 0, 27, 0
1, 411600, Note_on_c, 0, 75, 0
1, 411840, Tempo, 289771
1, 411840, Note_on_c, 0, 61, 57
1, 411840, Note_on_c, 0, 65, 57
1, 411840, Note_on_c, 0, 70, 68
1, 411840, Note_on_c, 0, 73, 68
1, 411840, Note_on_c, 0, 29, 40
1, 411840, Note_on_c, 0, 41, 49
1, 412080, Note_on_c, 0, 41, 0
1, 412080, Note_on_c, 0, 65, 0
1, 412080, Note_on_c, 0, 70, 0
1, 412080, Note_on_c, 0, 61, 0
1, 412080, Note_on_c, 0, 29, 0
1, 412080, Note_on_c, 0, 73, 0
1, 412320, Note_on_c, 0, 61, 50
1, 412320, Note_on_c, 0, 65, 60
1, 412320, Note_on_c, 0, 41, 35
1, 412320, Note_on_c, 0, 53, 44
1, 412560, Note_on_c, 0, 53, 0
1, 412560, Note_on_c, 0, 61, 0
1, 412560, Note_on_c, 0, 65, 0
1, 412560, Note_on_c, 0, 41, 0
1, 412800, Note_on_c, 0, 63, 49
1, 412800, Note_on_c, 0, 65, 49
1, 412800, Note_on_c, 0, 69, 58
1, 412800, Note_on_c, 0, 72, 58
1, 412800, Note_on_c, 0, 29, 35
1, 412800, Note_on_c, 0, 41, 43
1, 413040, Note_on_c, 0, 41, 0
1, 413040, Note_on_c, 0, 65, 0
1, 413040, Note_on_c, 0, 69, 0
1, 413040, Note_on_c, 0, 63, 0
1, 413040, Note_on_c, 0, 29, 0
1, 413040, Note_on_c, 0, 72, 0
1, 413280, Note_on_c, 0, 61, 46
1, 413280, Note_on_c, 0, 65, 46
1, 413280, Note_on_c, 0, 70, 55
1, 413280, Note_on_c, 0, 34, 30
1, 413280, Note_on_c, 0, 46, 37
1, 413520, Note_on_c, 0, 46, 0
1, 413520, Note_on_c, 0, 70, 0
1, 413520, Note_on_c, 0, 61, 0
1, 413520, Note_on_c, 0, 65, 0
1, 413520, Note_on_c, 0, 34, 0
1, 413760, Tempo, 291971
1, 413760, Note_on_c, 0, 53, 38
1, 413760, Note_on_c, 0, 58, 48
1, 413760, Note_on_c, 0, 37, 25
1, 413760, Note_on_c, 0, 49, 31
1, 414000, Note_on_c, 0, 49, 0
1, 414000, Note_on_c, 0, 53, 0
1, 414000, Note_on_c, 0, 58, 0
1, 414000, Note_on_c, 0, 37, 0
1, 414240, Tempo, 287604
1, 414240, Note_on_c, 0, 63, 50
1, 414240, Note_on_c, 0, 58, 40
1, 414240, Note_on_c, 0, 54, 40
1, 414240, Note_on_c, 0, 39, 33
1, 414480, Note_on_c, 0, 39, 0
1, 414480, Note_on_c, 0, 63, 0
1, 414480, Note_on_c, 0, 58, 0
1, 414480, Note_on_c, 0, 54, 0
1, 414720, Tempo, 289771
1, 414720, Note_on_c, 0, 53, 43
1, 414720, Note_on_c, 0, 58, 43
1, 414720, Note_on_c, 0, 61, 51
1, 414720, Note_on_c, 0, 41, 38
1, 414960, Note_on_c, 0, 41, 0
1, 414960, Note_on_c, 0, 53, 0
1, 414960, Note_on_c, 0, 58, 0
1, 414960, Note_on_c, 0, 61, 0
1, 415200, Note_on_c, 0, 53, 45
1, 415440, Note_on_c, 0, 53, 0
1, 415680, Note_on_c, 0, 60, 45
1, 415680, Note_on_c, 0, 57, 37
1, 415680, Note_on_c, 0, 51, 37
1, 415680, Note_on_c, 0, 29, 28
1, 415680, Note_on_c, 0, 41, 34
1, 415920, Note_on_c, 0, 41, 0
1, 415920, Note_on_c, 0, 51, 0
1, 415920, Note_on_c, 0, 60, 0
1, 415920, Note_on_c, 0, 57, 0
1, 415920, Note_on_c, 0, 29, 0
1, 416160, Tempo, 279955
1, 416160, Note_on_c, 0, 58, 46
1, 416160, Note_on_c, 0, 70, 46
1, 416160, Note_on_c, 0, 34, 30
1, 416160, Note_on_c, 0, 46, 36
1, 416640, Tempo, 286191
1, 416640, Note_on_c, 0, 46, 0
1, 416640, Note_on_c, 0, 34, 0
1, 416640, Note_on_c, 0, 44, 26
1, 416640, Note_on_c, 0, 56, 31
1, 417120, Note_on_c, 0, 56, 0
1, 417120, Note_on_c, 0, 44, 0
1, 417120, Note_on_c, 0, 41, 26
1, 417120, Note_on_c, 0, 53, 31
1, 417600, Note_on_c, 0, 53, 0
1, 417600, Note_on_c, 0, 41, 0
1, 417600, Note_on_c, 0, 42, 30
1, 417600, Note_on_c, 0, 54, 36
1, 417601, Tempo, 278319
1, 418080, Note_on_c, 0, 54, 0
1, 418080, Note_on_c, 0, 58, 0
1, 418080, Note_on_c, 0, 70, 0
1, 418080, Note_on_c, 0, 42, 0
1, 418080, Note_on_c, 0, 70, 46
1, 418080, Note_on_c, 0, 82, 46
1, 418080, Note_on_c, 0, 41, 26
1, 418080, Note_on_c, 0, 53, 31
1, 418081, Tempo, 285796
1, 418240, Control_c, 0, 64, 127
1, 418560, Note_on_c, 0, 53, 0
1, 418560, Note_on_c, 0, 70, 0
1, 418560, Note_on_c, 0, 82, 0
1, 418560, Note_on_c, 0, 41, 0
1, 418560, Note_on_c, 0, 94, 46
1, 418560, Note_on_c, 0, 82, 46
1, 418560, Note_on_c, 0, 37, 26
1, 418560, Note_on_c, 0, 49, 31
1, 419040, Note_on_c, 0, 49, 0
1, 419040, Note_on_c, 0, 94, 0
1, 419040, Note_on_c, 0, 82, 0
1, 419040, Note_on_c, 0, 37, 0
1, 419040, Note_on_c, 0, 70, 46
1, 419040, Note_on_c, 0, 58, 46
1, 419040, Note_on_c, 0, 39, 30
1, 419040, Note_on_c, 0, 51, 36
1, 419041, Tempo, 279057
1, 419048, Control_c, 0, 64, 0
1, 419520, Note_on_c, 0, 51, 0
1, 419520, Note_on_c, 0, 39, 0
1, 419520, Note_on_c, 0, 37, 26
1, 419520, Note_on_c, 0, 49, 31
1, 419521, Tempo, 285036
1, 420000, Note_on_c, 0, 49, 0
1, 420000, Note_on_c, 0, 37, 0
1, 420000, Note_on_c, 0, 34, 31
1, 420000, Note_on_c, 0, 46, 31
1, 420480, Note_on_c, 0, 46, 0
1, 420480, Note_on_c, 0, 34, 0
1, 420480, Note_on_c, 0, 35, 38
1, 420480, Note_on_c, 0, 47, 38
1, 420960, Note_on_c, 0, 47, 0
1, 420960, Note_on_c, 0, 70, 0
1, 420960, Note_on_c, 0, 58, 0
1, 420960, Note_on_c, 0, 35, 0
1, 420960, Note_on_c, 0, 70, 53
1, 420960, Note_on_c, 0, 82, 53
1, 420960, Note_on_c, 0, 34, 38
1, 420960, Note_on_c, 0, 46, 38
1, 421174, Control_c, 0, 64, 127
1, 421440, Note_on_c, 0, 46, 0
1, 421440, Note_on_c, 0, 70, 0
1, 421440, Note_on_c, 0, 82, 0
1, 421440, Note_on_c, 0, 34, 0
1, 421440, Note_on_c, 0, 94, 59
1, 421440, Note_on_c, 0, 82, 59
1, 421440, Note_on_c, 0, 30, 40
1, 421440, Note_on_c, 0, 42, 40
1, 421920, Tempo, 265793
1, 421920, Note_on_c, 0, 42, 0
1, 421920, Note_on_c, 0, 94, 0
1, 421920, Note_on_c, 0, 82, 0
1, 421920, Note_on_c, 0, 30, 0
1, 421920, Note_on_c, 0, 51, 52
1, 421920, Note_on_c, 0, 63, 63
1, 421920, Note_on_c, 0, 27, 40
1, 421920, Note_on_c, 0, 39, 47
1, 421927, Control_c, 0, 64, 0
1, 422010, Note_on_c, 0, 63, 0
1, 422010, Note_on_c, 0, 51, 0
1, 422160, Tempo, 271407
1, 422160, Note_on_c, 0, 51, 55
1, 422160, Note_on_c, 0, 63, 66
1, 422250, Note_on_c, 0, 63, 0
1, 422250, Note_on_c, 0, 51, 0
1, 422400, Tempo, 268889
1, 422400, Note_on_c, 0, 27, 0
1, 422400, Note_on_c, 0, 39, 0
1, 422400, Note_on_c, 0, 63, 67
1, 422400, Note_on_c, 0, 51, 57
1, 422400, Note_on_c, 0, 28, 38
1, 422400, Note_on_c, 0, 40, 44
1, 422490, Note_on_c, 0, 40, 0
1, 422490, Note_on_c, 0, 63, 0
1, 422490, Note_on_c, 0, 51, 0
1, 422490, Note_on_c, 0, 28, 0
1, 422600, Tempo, 267023
1, 422640, Tempo, 277932
1, 422640, Note_on_c, 0, 63, 68
1, 422640, Note_on_c, 0, 51, 59
1, 422640, Note_on_c, 0, 29, 38
1, 422640, Note_on_c, 0, 41, 47
1, 422730, Note_on_c, 0, 41, 0
1, 422730, Note_on_c, 0, 63, 0
1, 422730, Note_on_c, 0, 51, 0
1, 422730, Note_on_c, 0, 29, 0
1, 422880, Note_on_c, 0, 63, 79
1, 422880, Note_on_c, 0, 51, 66
1, 422880, Note_on_c, 0, 30, 46
1, 422880, Note_on_c, 0, 42, 54
1, 422920, Tempo, 284077
1, 423360, Note_on_c, 0, 42, 0
1, 423360, Note_on_c, 0, 63, 0
1, 423360, Note_on_c, 0, 51, 0
1, 423360, Note_on_c, 0, 30, 0
1, 423360, Note_on_c, 0, 53, 73
1, 423360, Note_on_c, 0, 63, 75
1, 423360, Note_on_c, 0, 59, 71
1, 423360, Note_on_c, 0, 65, 88
1, 423360, Note_on_c, 0, 32, 56
1, 423360, Note_on_c, 0, 44, 67
1, 423361, Tempo, 276714
1, 423543, Control_c, 0, 64, 127
1, 423840, Note_on_c, 0, 44, 0
1, 423840, Note_on_c, 0, 63, 0
1, 423840, Note_on_c, 0, 59, 0
1, 423840, Note_on_c, 0, 53, 0
1, 423840, Note_on_c, 0, 32, 0
1, 423840, Note_on_c, 0, 65, 0
1, 423840, Note_on_c, 0, 65, 63
1, 423840, Note_on_c, 0, 77, 76
1, 423840, Note_on_c, 0, 75, 63
1, 423840, Note_on_c, 0, 71, 63
1, 423840, Note_on_c, 0, 44, 43
1, 423840, Note_on_c, 0, 51, 43
1, 423840, Note_on_c, 0, 53, 43
1, 423840, Note_on_c, 0, 59, 51
1, 423841, Tempo, 272926
1, 424080, Note_on_c, 0, 71, 0
1, 424080, Note_on_c, 0, 75, 0
1, 424080, Note_on_c, 0, 65, 0
1, 424080, Note_on_c, 0, 77, 0
1, 424080, Note_on_c, 0, 63, 61
1, 424080, Note_on_c, 0, 75, 74
1, 424320, Note_on_c, 0, 75, 0
1, 424320, Note_on_c, 0, 51, 0
1, 424320, Note_on_c, 0, 53, 0
1, 424320, Note_on_c, 0, 59, 0
1, 424320, Note_on_c, 0, 63, 0
1, 424320, Note_on_c, 0, 44, 0
1, 424320, Note_on_c, 0, 70, 63
1, 424320, Note_on_c, 0, 74, 63
1, 424320, Note_on_c, 0, 77, 76
1, 424320, Note_on_c, 0, 65, 63
1, 424320, Note_on_c, 0, 46, 43
1, 424320, Note_on_c, 0, 53, 43
1, 424320, Note_on_c, 0, 56, 43
1, 424320, Note_on_c, 0, 62, 51
1, 424332, Control_c, 0, 64, 0
1, 424560, Note_on_c, 0, 65, 0
1, 424560, Note_on_c, 0, 77, 0
1, 424560, Note_on_c, 0, 70, 0
1, 424560, Note_on_c, 0, 74, 0
1, 424560, Note_on_c, 0, 78, 72
1, 424560, Note_on_c, 0, 66, 59
1, 424561, Tempo, 280610
1, 424800, Tempo, 265182
1, 424800, Note_on_c, 0, 66, 0
1, 424800, Note_on_c, 0, 53, 0
1, 424800, Note_on_c, 0, 56, 0
1, 424800, Note_on_c, 0, 62, 0
1, 424800, Note_on_c, 0, 78, 0
1, 424800, Note_on_c, 0, 46, 0
1, 424800, Note_on_c, 0, 66, 63
1, 424800, Note_on_c, 0, 54, 52
1, 424800, Note_on_c, 0, 30, 40
1, 424800, Note_on_c, 0, 42, 47
1, 424890, Note_on_c, 0, 54, 0
1, 424890, Note_on_c, 0, 66, 0
1, 425040, Tempo, 270770
1, 425040, Note_on_c, 0, 54, 55
1, 425040, Note_on_c, 0, 66, 66
1, 425130, Note_on_c, 0, 66, 0
1, 425130, Note_on_c, 0, 54, 0
1, 425280, Tempo, 266406
1, 425280, Note_on_c, 0, 30, 0
1, 425280, Note_on_c, 0, 42, 0
1, 425280, Note_on_c, 0, 54, 57
1, 425280, Note_on_c, 0, 66, 67
1, 425280, Note_on_c, 0, 31, 38
1, 425280, Note_on_c, 0, 43, 44
1, 425370, Note_on_c, 0, 43, 0
1, 425370, Note_on_c, 0, 54, 0
1, 425370, Note_on_c, 0, 66, 0
1, 425370, Note_on_c, 0, 31, 0
1, 425520, Tempo, 280636
1, 425520, Note_on_c, 0, 66, 66
1, 425520, Note_on_c, 0, 54, 57
1, 425520, Note_on_c, 0, 32, 35
1, 425520, Note_on_c, 0, 44, 43
1, 425610, Note_on_c, 0, 44, 0
1, 425610, Note_on_c, 0, 66, 0
1, 425610, Note_on_c, 0, 54, 0
1, 425610, Note_on_c, 0, 32, 0
1, 425760, Tempo, 284792
1, 425760, Note_on_c, 0, 66, 79
1, 425760, Note_on_c, 0, 54, 68
1, 425760, Note_on_c, 0, 33, 46
1, 425760, Note_on_c, 0, 45, 54
1, 426240, Note_on_c, 0, 45, 0
1, 426240, Note_on_c, 0, 66, 0
1, 426240, Note_on_c, 0, 54, 0
1, 426240, Note_on_c, 0, 33, 0
1, 426240, Note_on_c, 0, 56, 72
1, 426240, Note_on_c, 0, 62, 73
1, 426240, Note_on_c, 0, 66, 75
1, 426240, Note_on_c, 0, 68, 87
1, 426240, Note_on_c, 0, 35, 56
1, 426240, Note_on_c, 0, 47, 67
1, 426241, Tempo, 275191
1, 426318, Control_c, 0, 64, 127
1, 426720, Note_on_c, 0, 47, 0
1, 426720, Note_on_c, 0, 62, 0
1, 426720, Note_on_c, 0, 66, 0
1, 426720, Note_on_c, 0, 56, 0
1, 426720, Note_on_c, 0, 35, 0
1, 426720, Note_on_c, 0, 68, 0
1, 426720, Note_on_c, 0, 68, 63
1, 426720, Note_on_c, 0, 78, 63
1, 426720, Note_on_c, 0, 80, 76
1, 426720, Note_on_c, 0, 74, 63
1, 426720, Note_on_c, 0, 48, 43
1, 426720, Note_on_c, 0, 54, 43
1, 426720, Note_on_c, 0, 56, 43
1, 426720, Note_on_c, 0, 62, 51
1, 426721, Tempo, 272183
1, 426960, Note_on_c, 0, 74, 0
1, 426960, Note_on_c, 0, 80, 0
1, 426960, Note_on_c, 0, 68, 0
1, 426960, Note_on_c, 0, 78, 0
1, 426960, Note_on_c, 0, 66, 61
1, 426960, Note_on_c, 0, 78, 74
1, 427200, Note_on_c, 0, 78, 0
1, 427200, Note_on_c, 0, 54, 0
1, 427200, Note_on_c, 0, 56, 0
1, 427200, Note_on_c, 0, 62, 0
1, 427200, Note_on_c, 0, 66, 0
1, 427200, Note_on_c, 0, 48, 0
1, 427200, Note_on_c, 0, 68, 63
1, 427200, Note_on_c, 0, 77, 63
1, 427200, Note_on_c, 0, 80, 76
1, 427200, Note_on_c, 0, 73, 63
1, 427200, Note_on_c, 0, 49, 43
1, 427200, Note_on_c, 0, 56, 43
1, 427200, Note_on_c, 0, 59, 43
1, 427200, Note_on_c, 0, 65, 51
1, 427210, Control_c, 0, 64, 0
1, 427440, Note_on_c, 0, 73, 0
1, 427440, Note_on_c, 0, 80, 0
1, 427440, Note_on_c, 0, 68, 0
1, 427440, Note_on_c, 0, 77, 0
1, 427440, Note_on_c, 0, 81, 72
1, 427440, Note_on_c, 0, 69, 59
1, 427441, Tempo, 279044
1, 427680, Tempo, 263377
1, 427680, Note_on_c, 0, 69, 0
1, 427680, Note_on_c, 0, 56, 0
1, 427680, Note_on_c, 0, 59, 0
1, 427680, Note_on_c, 0, 65, 0
1, 427680, Note_on_c, 0, 81, 0
1, 427680, Note_on_c, 0, 49, 0
1, 427680, Note_on_c, 0, 69, 56
1, 427680, Note_on_c, 0, 57, 47
1, 427680, Note_on_c, 0, 33, 36
1, 427680, Note_on_c, 0, 45, 42
1, 427770, Note_on_c, 0, 57, 0
1, 427770, Note_on_c, 0, 69, 0
1, 427920, Tempo, 267023
1, 427920, Note_on_c, 0, 57, 51
1, 427920, Note_on_c, 0, 69, 60
1, 428010, Note_on_c, 0, 69, 0
1, 428010, Note_on_c, 0, 57, 0
1, 428160, Tempo, 263377
1, 428160, Note_on_c, 0, 33, 0
1, 428160, Note_on_c, 0, 45, 0
1, 428160, Note_on_c, 0, 57, 54
1, 428160, Note_on_c, 0, 69, 64
1, 428160, Note_on_c, 0, 35, 36
1, 428160, Note_on_c, 0, 47, 42
1, 428250, Note_on_c, 0, 47, 0
1, 428250, Note_on_c, 0, 57, 0
1, 428250, Note_on_c, 0, 69, 0
1, 428250, Note_on_c, 0, 35, 0
1, 428400, Tempo, 283380
1, 428400, Note_on_c, 0, 57, 57
1, 428400, Note_on_c, 0, 69, 68
1, 428400, Note_on_c, 0, 36, 37
1, 428400, Note_on_c, 0, 48, 45
1, 428490, Note_on_c, 0, 48, 0
1, 428490, Note_on_c, 0, 57, 0
1, 428490, Note_on_c, 0, 69, 0
1, 428490, Note_on_c, 0, 36, 0
1, 428601, Tempo, 269251
1, 428640, Tempo, 279955
1, 428640, Note_on_c, 0, 69, 82
1, 428640, Note_on_c, 0, 57, 70
1, 428640, Note_on_c, 0, 37, 47
1, 428640, Note_on_c, 0, 49, 56
1, 429120, Tempo, 265793
1, 429120, Note_on_c, 0, 49, 0
1, 429120, Note_on_c, 0, 69, 0
1, 429120, Note_on_c, 0, 57, 0
1, 429120, Note_on_c, 0, 37, 0
1, 429120, Note_on_c, 0, 65, 52
1, 429120, Note_on_c, 0, 69, 52
1, 429120, Note_on_c, 0, 71, 63
1, 429120, Note_on_c, 0, 59, 52
1, 429120, Note_on_c, 0, 38, 40
1, 429120, Note_on_c, 0, 50, 47
1, 429210, Note_on_c, 0, 59, 0
1, 429210, Note_on_c, 0, 71, 0
1, 429210, Note_on_c, 0, 65, 0
1, 429210, Note_on_c, 0, 69, 0
1, 429360, Tempo, 272047
1, 429360, Note_on_c, 0, 59, 55
1, 429360, Note_on_c, 0, 69, 55
1, 429360, Note_on_c, 0, 65, 55
1, 429360, Note_on_c, 0, 71, 66
1, 429450, Note_on_c, 0, 71, 0
1, 429450, Note_on_c, 0, 69, 0
1, 429450, Note_on_c, 0, 59, 0
1, 429450, Note_on_c, 0, 65, 0
1, 429600, Tempo, 270124
1, 429600, Note_on_c, 0, 38, 0
1, 429600, Note_on_c, 0, 50, 0
1, 429600, Note_on_c, 0, 65, 60
1, 429600, Note_on_c, 0, 59, 60
1, 429600, Note_on_c, 0, 71, 71
1, 429600, Note_on_c, 0, 69, 60
1, 429600, Note_on_c, 0, 39, 40
1, 429600, Note_on_c, 0, 51, 47
1, 429690, Note_on_c, 0, 51, 0
1, 429690, Note_on_c, 0, 59, 0
1, 429690, Note_on_c, 0, 71, 0
1, 429690, Note_on_c, 0, 65, 0
1, 429690, Note_on_c, 0, 39, 0
1, 429690, Note_on_c, 0, 69, 0
1, 429840, Tempo, 281995
1, 429840, Note_on_c, 0, 65, 61
1, 429840, Note_on_c, 0, 69, 73
1, 429840, Note_on_c, 0, 71, 73
1, 429840, Note_on_c, 0, 59, 61
1, 429840, Note_on_c, 0, 40, 39
1, 429840, Note_on_c, 0, 52, 48
1, 429930, Note_on_c, 0, 52, 0
1, 429930, Note_on_c, 0, 69, 0
1, 429930, Note_on_c, 0, 71, 0
1, 429930, Note_on_c, 0, 65, 0
1, 429930, Note_on_c, 0, 40, 0
1, 429930, Note_on_c, 0, 59, 0
1, 430080, Tempo, 281995
1, 430080, Note_on_c, 0, 59, 68
1, 430080, Note_on_c, 0, 65, 68
1, 430080, Note_on_c, 0, 69, 68
1, 430080, Note_on_c, 0, 71, 81
1, 430080, Note_on_c, 0, 41, 45
1, 430080, Note_on_c, 0, 53, 53
1, 430560, Tempo, 268889
1, 430560, Note_on_c, 0, 53, 0
1, 430560, Note_on_c, 0, 65, 0
1, 430560, Note_on_c, 0, 69, 0
1, 430560, Note_on_c, 0, 59, 0
1, 430560, Note_on_c, 0, 41, 0
1, 430560, Note_on_c, 0, 71, 0
1, 430560, Note_on_c, 0, 60, 53
1, 430560, Note_on_c, 0, 63, 53
1, 430560, Note_on_c, 0, 72, 64
1, 430560, Note_on_c, 0, 69, 53
1, 430560, Note_on_c, 0, 42, 42
1, 430560, Note_on_c, 0, 54, 50
1, 430650, Note_on_c, 0, 69, 0
1, 430650, Note_on_c, 0, 72, 0
1, 430650, Note_on_c, 0, 60, 0
1, 430650, Note_on_c, 0, 63, 0
1, 430800, Tempo, 272047
1, 430800, Note_on_c, 0, 63, 56
1, 430800, Note_on_c, 0, 60, 56
1, 430800, Note_on_c, 0, 72, 68
1, 430800, Note_on_c, 0, 69, 56
1, 430890, Note_on_c, 0, 69, 0
1, 430890, Note_on_c, 0, 60, 0
1, 430890, Note_on_c, 0, 63, 0
1, 430890, Note_on_c, 0, 72, 0
1, 431040, Tempo, 270124
1, 431040, Note_on_c, 0, 42, 0
1, 431040, Note_on_c, 0, 54, 0
1, 431040, Note_on_c, 0, 63, 61
1, 431040, Note_on_c, 0, 72, 73
1, 431040, Note_on_c, 0, 60, 61
1, 431040, Note_on_c, 0, 43, 42
1, 431040, Note_on_c, 0, 55, 48
1, 431130, Note_on_c, 0, 55, 0
1, 431130, Note_on_c, 0, 60, 0
1, 431130, Note_on_c, 0, 63, 0
1, 431130, Note_on_c, 0, 72, 0
1, 431130, Note_on_c, 0, 43, 0
1, 431280, Tempo, 279291
1, 431280, Note_on_c, 0, 63, 64
1, 431280, Note_on_c, 0, 60, 64
1, 431280, Note_on_c, 0, 72, 75
1, 431280, Note_on_c, 0, 44, 39
1, 431280, Note_on_c, 0, 56, 50
1, 431370, Note_on_c, 0, 56, 0
1, 431370, Note_on_c, 0, 72, 0
1, 431370, Note_on_c, 0, 63, 0
1, 431370, Note_on_c, 0, 60, 0
1, 431370, Note_on_c, 0, 44, 0
1, 431520, Tempo, 291971
1, 431520, Note_on_c, 0, 66, 72
1, 431520, Note_on_c, 0, 63, 72
1, 431520, Note_on_c, 0, 72, 84
1, 431520, Note_on_c, 0, 60, 72
1, 431520, Note_on_c, 0, 45, 48
1, 431520, Note_on_c, 0, 57, 57
1, 432000, Tempo, 272690
1, 432000, Note_on_c, 0, 57, 0
1, 432000, Note_on_c, 0, 63, 0
1, 432000, Note_on_c, 0, 72, 0
1, 432000, Note_on_c, 0, 66, 0
1, 432000, Note_on_c, 0, 45, 0
1, 432000, Note_on_c, 0, 60, 0
1, 432000, Note_on_c, 0, 66, 78
1, 432000, Note_on_c, 0, 63, 78
1, 432000, Note_on_c, 0, 69, 78
1, 432000, Note_on_c, 0, 75, 93
1, 432000, Note_on_c, 0, 36, 53
1, 432000, Note_on_c, 0, 48, 65
1, 432120, Control_c, 0, 64, 127
1, 432480, Tempo, 274625
1, 432480, Note_on_c, 0, 48, 0
1, 432480, Note_on_c, 0, 63, 0
1, 432480, Note_on_c, 0, 69, 0
1, 432480, Note_on_c, 0, 66, 0
1, 432480, Note_on_c, 0, 36, 0
1, 432480, Note_on_c, 0, 75, 0
1, 432480, Note_on_c, 0, 75, 80
1, 432480, Note_on_c, 0, 78, 80
1, 432480, Note_on_c, 0, 81, 80
1, 432480, Note_on_c, 0, 90, 94
1, 432480, Note_on_c, 0, 60, 51
1, 432480, Note_on_c, 0, 66, 51
1, 432480, Note_on_c, 0, 69, 51
1, 432480, Note_on_c, 0, 72, 61
1, 432720, Note_on_c, 0, 72, 0
1, 432720, Note_on_c, 0, 75, 0
1, 432720, Note_on_c, 0, 60, 0
1, 432720, Note_on_c, 0, 78, 0
1, 432720, Note_on_c, 0, 81, 0
1, 432720, Note_on_c, 0, 90, 0
1, 432720, Note_on_c, 0, 66, 0
1, 432720, Note_on_c, 0, 69, 0
1, 432795, Control_c, 0, 64, 0
1, 432960, Tempo, 278603
1, 432960, Note_on_c, 0, 74, 94
1, 432960, Note_on_c, 0, 62, 78
1, 432960, Note_on_c, 0, 66, 78
1, 432960, Note_on_c, 0, 47, 69
1, 432960, Note_on_c, 0, 35, 57
1, 433159, Control_c, 0, 64, 127
1, 433440, Tempo, 283688
1, 433440, Note_on_c, 0, 35, 0
1, 433440, Note_on_c, 0, 66, 0
1, 433440, Note_on_c, 0, 74, 0
1, 433440, Note_on_c, 0, 62, 0
1, 433440, Note_on_c, 0, 47, 0
1, 433440, Note_on_c, 0, 61, 74
1, 433440, Note_on_c, 0, 66, 74
1, 433440, Note_on_c, 0, 73, 88
1, 433440, Control_c, 0, 64, 0
1, 433440, Note_on_c, 0, 45, 49
1, 433440, Note_on_c, 0, 49, 58
1, 433440, Note_on_c, 0, 54, 58
1, 433440, Note_on_c, 0, 57, 58
1, 433600, Control_c, 0, 64, 127
1, 433920, Tempo, 289157
1, 433920, Note_on_c, 0, 57, 0
1, 433920, Note_on_c, 0, 49, 0
1, 433920, Note_on_c, 0, 66, 0
1, 433920, Note_on_c, 0, 73, 0
1, 433920, Note_on_c, 0, 61, 0
1, 433920, Note_on_c, 0, 54, 0
1, 433920, Note_on_c, 0, 45, 0
1, 433920, Note_on_c, 0, 78, 81
1, 433920, Note_on_c, 0, 90, 98
1, 433920, Note_on_c, 0, 33, 54
1, 433920, Note_on_c, 0, 45, 65
1, 434035, Control_c, 0, 64, 0
1, 434160, Note_on_c, 0, 45, 0
1, 434160, Note_on_c, 0, 78, 0
1, 434160, Note_on_c, 0, 90, 0
1, 434160, Note_on_c, 0, 33, 0
1, 434400, Tempo, 284360
1, 434400, Note_on_c, 0, 66, 71
1, 434400, Note_on_c, 0, 62, 71
1, 434400, Note_on_c, 0, 74, 84
1, 434400, Note_on_c, 0, 47, 50
1, 434400, Note_on_c, 0, 54, 50
1, 434400, Note_on_c, 0, 59, 59
1, 434560, Control_c, 0, 64, 127
1, 434880, Tempo, 289855
1, 434880, Note_on_c, 0, 59, 0
1, 434880, Note_on_c, 0, 62, 0
1, 434880, Note_on_c, 0, 74, 0
1, 434880, Note_on_c, 0, 66, 0
1, 434880, Note_on_c, 0, 54, 0
1, 434880, Note_on_c, 0, 47, 0
1, 434880, Note_on_c, 0, 74, 81
1, 434880, Note_on_c, 0, 86, 98
1, 434880, Note_on_c, 0, 35, 54
1, 434880, Note_on_c, 0, 47, 65
1, 435075, Control_c, 0, 64, 0
1, 435120, Note_on_c, 0, 47, 0
1, 435120, Note_on_c, 0, 74, 0
1, 435120, Note_on_c, 0, 86, 0
1, 435120, Note_on_c, 0, 35, 0
1, 435360, Tempo, 284360
1, 435360, Note_on_c, 0, 68, 71
1, 435360, Note_on_c, 0, 66, 66
1, 435360, Note_on_c, 0, 62, 64
1, 435360, Note_on_c, 0, 71, 84
1, 435360, Note_on_c, 0, 56, 50
1, 435360, Note_on_c, 0, 50, 45
1, 435360, Note_on_c, 0, 54, 47
1, 435360, Note_on_c, 0, 59, 59
1, 435429, Control_c, 0, 64, 127
1, 435840, Tempo, 290557
1, 435840, Note_on_c, 0, 59, 0
1, 435840, Note_on_c, 0, 68, 0
1, 435840, Note_on_c, 0, 56, 0
1, 435840, Note_on_c, 0, 66, 0
1, 435840, Note_on_c, 0, 62, 0
1, 435840, Note_on_c, 0, 71, 0
1, 435840, Note_on_c, 0, 50, 0
1, 435840, Note_on_c, 0, 54, 0
1, 435840, Note_on_c, 0, 71, 81
1, 435840, Note_on_c, 0, 83, 98
1, 435840, Note_on_c, 0, 38, 54
1, 435840, Note_on_c, 0, 50, 65
1, 436080, Note_on_c, 0, 50, 0
1, 436080, Note_on_c, 0, 71, 0
1, 436080, Note_on_c, 0, 83, 0
1, 436080, Note_on_c, 0, 38, 0
1, 436103, Control_c, 0, 64, 0
1, 436320, Tempo, 285714
1, 436320, Note_on_c, 0, 66, 71
1, 436320, Note_on_c, 0, 61, 71
1, 436320, Note_on_c, 0, 69, 84
1, 436320, Note_on_c, 0, 54, 50
1, 436320, Note_on_c, 0, 49, 50
1, 436320, Note_on_c, 0, 57, 59
1, 436366, Control_c, 0, 64, 127
1, 436800, Tempo, 289855
1, 436800, Note_on_c, 0, 57, 0
1, 436800, Note_on_c, 0, 61, 0
1, 436800, Note_on_c, 0, 69, 0
1, 436800, Note_on_c, 0, 66, 0
1, 436800, Note_on_c, 0, 49, 0
1, 436800, Note_on_c, 0, 54, 0
1, 436800, Note_on_c, 0, 69, 80
1, 436800, Note_on_c, 0, 81, 96
1, 436800, Note_on_c, 0, 37, 54
1, 436800, Note_on_c, 0, 49, 65
1, 437029, Control_c, 0, 64, 0
1, 437040, Note_on_c, 0, 49, 0
1, 437040, Note_on_c, 0, 69, 0
1, 437040, Note_on_c, 0, 81, 0
1, 437040, Note_on_c, 0, 37, 0
1, 437280, Tempo, 285036
1, 437280, Note_on_c, 0, 66, 71
1, 437280, Note_on_c, 0, 61, 71
1, 437280, Note_on_c, 0, 68, 84
1, 437280, Note_on_c, 0, 54, 50
1, 437280, Note_on_c, 0, 49, 50
1, 437280, Note_on_c, 0, 56, 59
1, 437372, Control_c, 0, 64, 127
1, 437760, Tempo, 289855
1, 437760, Note_on_c, 0, 56, 0
1, 437760, Note_on_c, 0, 61, 0
1, 437760, Note_on_c, 0, 68, 0
1, 437760, Note_on_c, 0, 66, 0
1, 437760, Note_on_c, 0, 49, 0
1, 437760, Note_on_c, 0, 54, 0
1, 437760, Note_on_c, 0, 68, 78
1, 437760, Note_on_c, 0, 80, 94
1, 437760, Note_on_c, 0, 37, 54
1, 437760, Note_on_c, 0, 49, 65
1, 437989, Control_c, 0, 64, 0
1, 438000, Note_on_c, 0, 49, 0
1, 438000, Note_on_c, 0, 68, 0
1, 438000, Note_on_c, 0, 80, 0
1, 438000, Note_on_c, 0, 37, 0
1, 438240, Tempo, 295567
1, 438240, Note_on_c, 0, 65, 67
1, 438240, Note_on_c, 0, 61, 67
1, 438240, Note_on_c, 0, 68, 79
1, 438240, Note_on_c, 0, 56, 47
1, 438240, Note_on_c, 0, 49, 47
1, 438240, Note_on_c, 0, 59, 56
1, 438297, Control_c, 0, 64, 127
1, 438720, Tempo, 288462
1, 438720, Note_on_c, 0, 59, 0
1, 438720, Note_on_c, 0, 61, 0
1, 438720, Note_on_c, 0, 68, 0
1, 438720, Note_on_c, 0, 65, 0
1, 438720, Note_on_c, 0, 49, 0
1, 438720, Note_on_c, 0, 56, 0
1, 438720, Note_on_c, 0, 85, 80
1, 438720, Note_on_c, 0, 80, 67
1, 438720, Note_on_c, 0, 73, 63
1, 438720, Note_on_c, 0, 61, 40
1, 438720, Note_on_c, 0, 65, 46
1, 438720, Note_on_c, 0, 71, 55
1, 438960, Note_on_c, 0, 71, 0
1, 438960, Note_on_c, 0, 80, 0
1, 438960, Note_on_c, 0, 73, 0
1, 438960, Note_on_c, 0, 85, 0
1, 438960, Note_on_c, 0, 65, 0
1, 438960, Note_on_c, 0, 61, 0
1, 438995, Control_c, 0, 64, 0
1, 439200, Tempo, 289157
1, 439200, Note_on_c, 0, 73, 63
1, 439200, Note_on_c, 0, 80, 67
1, 439200, Note_on_c, 0, 85, 82
1, 439200, Note_on_c, 0, 61, 46
1, 439200, Note_on_c, 0, 65, 50
1, 439200, Note_on_c, 0, 71, 59
1, 439286, Control_c, 0, 64, 127
1, 439620, Note_on_c, 0, 71, 0
1, 439620, Note_on_c, 0, 61, 0
1, 439620, Note_on_c, 0, 65, 0
1, 439620, Note_on_c, 0, 54, 42
1, 439650, Note_on_c, 0, 61, 44
1, 439680, Tempo, 291971
1, 439680, Note_on_c, 0, 73, 0
1, 439680, Note_on_c, 0, 80, 0
1, 439680, Note_on_c, 0, 85, 0
1, 439680, Note_on_c, 0, 90, 74
1, 439680, Note_on_c, 0, 78, 64
1, 439680, Note_on_c, 0, 69, 51
1, 439691, Control_c, 0, 64, 0
1, 440160, Tempo, 294118
1, 440160, Note_on_c, 0, 69, 0
1, 440160, Note_on_c, 0, 90, 0
1, 440160, Note_on_c, 0, 61, 0
1, 440160, Note_on_c, 0, 54, 0
1, 440160, Note_on_c, 0, 78, 0
1, 440160, Note_on_c, 0, 73, 46
1, 440160, Note_on_c, 0, 68, 38
1, 440160, Note_on_c, 0, 61, 29
1, 440160, Note_on_c, 0, 49, 19
1, 440160, Note_on_c, 0, 53, 26
1, 440160, Note_on_c, 0, 59, 30
1, 440400, Note_on_c, 0, 59, 0
1, 440400, Note_on_c, 0, 68, 0
1, 440400, Note_on_c, 0, 61, 0
1, 440400, Note_on_c, 0, 73, 0
1, 440400, Note_on_c, 0, 53, 0
1, 440400, Note_on_c, 0, 49, 0
1, 440640, Tempo, 292070
1, 440640, Note_on_c, 0, 61, 30
1, 440640, Note_on_c, 0, 68, 40
1, 440640, Note_on_c, 0, 73, 46
1, 440640, Note_on_c, 0, 49, 21
1, 440640, Note_on_c, 0, 53, 28
1, 440640, Note_on_c, 0, 59, 33
1, 440740, Control_c, 0, 64, 127
1, 441060, Note_on_c, 0, 59, 0
1, 441060, Note_on_c, 0, 49, 0
1, 441060, Note_on_c, 0, 53, 0
1, 441060, Note_on_c, 0, 42, 25
1, 441090, Note_on_c, 0, 49, 25
1, 441120, Tempo, 292683
1, 441120, Note_on_c, 0, 61, 0
1, 441120, Note_on_c, 0, 68, 0
1, 441120, Note_on_c, 0, 73, 0
1, 441120, Note_on_c, 0, 78, 43
1, 441120, Note_on_c, 0, 66, 37
1, 441120, Note_on_c, 0, 57, 30
1, 441136, Control_c, 0, 64, 0
1, 441600, Tempo, 298507
1, 441600, Note_on_c, 0, 57, 0
1, 441600, Note_on_c, 0, 78, 0
1, 441600, Note_on_c, 0, 49, 0
1, 441600, Note_on_c, 0, 42, 0
1, 441600, Note_on_c, 0, 66, 0
1, 441600, Note_on_c, 0, 73, 42
1, 441600, Note_on_c, 0, 68, 31
1, 441600, Note_on_c, 0, 61, 27
1, 441600, Note_on_c, 0, 49, 17
1, 441600, Note_on_c, 0, 53, 21
1, 441600, Note_on_c, 0, 59, 25
1, 442080, Tempo, 294118
1, 442080, Note_on_c, 0, 59, 0
1, 442080, Note_on_c, 0, 68, 0
1, 442080, Note_on_c, 0, 61, 0
1, 442080, Note_on_c, 0, 73, 0
1, 442080, Note_on_c, 0, 53, 0
1, 442080, Note_on_c, 0, 49, 0
1, 442080, Note_on_c, 0, 61, 35
1, 442080, Note_on_c, 0, 73, 46
1, 442080, Note_on_c, 0, 49, 24
1, 442080, Note_on_c, 0, 54, 28
1, 442080, Note_on_c, 0, 57, 33
1, 442180, Control_c, 0, 64, 127
1, 442560, Tempo, 299252
1, 442560, Note_on_c, 0, 57, 0
1, 442560, Note_on_c, 0, 49, 0
1, 442560, Note_on_c, 0, 61, 0
1, 442560, Note_on_c, 0, 73, 0
1, 442560, Note_on_c, 0, 54, 0
1, 442560, Note_on_c, 0, 78, 43
1, 442560, Note_on_c, 0, 66, 34
1, 442560, Note_on_c, 0, 42, 25
1, 443040, Tempo, 297767
1, 443040, Note_on_c, 0, 42, 0
1, 443040, Note_on_c, 0, 66, 0
1, 443040, Note_on_c, 0, 78, 0
1, 443040, Note_on_c, 0, 73, 39
1, 443040, Note_on_c, 0, 68, 29
1, 443040, Note_on_c, 0, 61, 25
1, 443040, Note_on_c, 0, 49, 17
1, 443040, Note_on_c, 0, 53, 20
1, 443040, Note_on_c, 0, 59, 23
1, 443050, Control_c, 0, 64, 0
1, 443520, Tempo, 294840
1, 443520, Note_on_c, 0, 59, 0
1, 443520, Note_on_c, 0, 68, 0
1, 443520, Note_on_c, 0, 61, 0
1, 443520, Note_on_c, 0, 73, 0
1, 443520, Note_on_c, 0, 53, 0
1, 443520, Note_on_c, 0, 49, 0
1, 443520, Note_on_c, 0, 61, 32
1, 443520, Note_on_c, 0, 73, 43
1, 443520, Note_on_c, 0, 49, 21
1, 443520, Note_on_c, 0, 54, 26
1, 443520, Note_on_c, 0, 57, 30
1, 443674, Control_c, 0, 64, 127
1, 444000, Tempo, 299252
1, 444000, Note_on_c, 0, 57, 0
1, 444000, Note_on_c, 0, 49, 0
1, 444000, Note_on_c, 0, 61, 0
1, 444000, Note_on_c, 0, 73, 0
1, 444000, Note_on_c, 0, 54, 0
1, 444000, Note_on_c, 0, 78, 40
1, 444000, Note_on_c, 0, 66, 31
1, 444000, Note_on_c, 0, 42, 22
1, 444480, Tempo, 306122
1, 444480, Note_on_c, 0, 42, 0
1, 444480, Note_on_c, 0, 66, 0
1, 444480, Note_on_c, 0, 78, 0
1, 444480, Note_on_c, 0, 73, 36
1, 444480, Note_on_c, 0, 68, 27
1, 444480, Note_on_c, 0, 61, 23
1, 444480, Note_on_c, 0, 49, 15
1, 444480, Note_on_c, 0, 53, 18
1, 444480, Note_on_c, 0, 59, 21
1, 444493, Control_c, 0, 64, 0
1, 444960, Tempo, 299252
1, 444960, Note_on_c, 0, 59, 0
1, 444960, Note_on_c, 0, 68, 0
1, 444960, Note_on_c, 0, 61, 0
1, 444960, Note_on_c, 0, 73, 0
1, 444960, Note_on_c, 0, 53, 0
1, 444960, Note_on_c, 0, 49, 0
1, 444960, Note_on_c, 0, 61, 29
1, 444960, Note_on_c, 0, 73, 39
1, 444960, Note_on_c, 0, 49, 19
1, 444960, Note_on_c, 0, 54, 24
1, 444960, Note_on_c, 0, 58, 27
1, 445147, Control_c, 0, 64, 127
1, 445440, Tempo, 302267
1, 445440, Note_on_c, 0, 58, 0
1, 445440, Note_on_c, 0, 49, 0
1, 445440, Note_on_c, 0, 61, 0
1, 445440, Note_on_c, 0, 73, 0
1, 445440, Note_on_c, 0, 54, 0
1, 445440, Note_on_c, 0, 78, 37
1, 445440, Note_on_c, 0, 66, 29
1, 445440, Note_on_c, 0, 42, 21
1, 445920, Tempo, 304569
1, 445920, Note_on_c, 0, 42, 0
1, 445920, Note_on_c, 0, 66, 0
1, 445920, Note_on_c, 0, 78, 0
1, 445920, Note_on_c, 0, 73, 33
1, 445920, Note_on_c, 0, 68, 26
1, 445920, Note_on_c, 0, 61, 21
1, 445920, Note_on_c, 0, 49, 14
1, 445920, Note_on_c, 0, 53, 17
1, 445920, Note_on_c, 0, 59, 20
1, 445930, Control_c, 0, 64, 0
1, 446400, Tempo, 300000
1, 446400, Note_on_c, 0, 59, 0
1, 446400, Note_on_c, 0, 68, 0
1, 446400, Note_on_c, 0, 61, 0
1, 446400, Note_on_c, 0, 73, 0
1, 446400, Note_on_c, 0, 53, 0
1, 446400, Note_on_c, 0, 49, 0
1, 446400, Note_on_c, 0, 61, 27
1, 446400, Note_on_c, 0, 73, 37
1, 446400, Note_on_c, 0, 49, 18
1, 446400, Note_on_c, 0, 54, 23
1, 446400, Note_on_c, 0, 58, 26
1, 446560, Control_c, 0, 64, 127
1, 446880, Tempo, 302954
1, 446880, Note_on_c, 0, 58, 0
1, 446880, Note_on_c, 0, 49, 0
1, 446880, Note_on_c, 0, 61, 0
1, 446880, Note_on_c, 0, 73, 0
1, 446880, Note_on_c, 0, 54, 0
1, 446880, Note_on_c, 0, 78, 35
1, 446880, Note_on_c, 0, 66, 27
1, 446880, Note_on_c, 0, 42, 19
1, 447360, Tempo, 307929
1, 447360, Note_on_c, 0, 42, 0
1, 447360, Note_on_c, 0, 66, 0
1, 447360, Note_on_c, 0, 78, 0
1, 447360, Note_on_c, 0, 73, 32
1, 447360, Note_on_c, 0, 68, 24
1, 447360, Note_on_c, 0, 61, 20
1, 447360, Note_on_c, 0, 49, 13
1, 447360, Note_on_c, 0, 53, 16
1, 447360, Note_on_c, 0, 59, 19
1, 447364, Control_c, 0, 64, 0
1, 447840, Tempo, 313071
1, 447840, Note_on_c, 0, 59, 0
1, 447840, Note_on_c, 0, 68, 0
1, 447840, Note_on_c, 0, 61, 0
1, 447840, Note_on_c, 0, 73, 0
1, 447840, Note_on_c, 0, 53, 0
1, 447840, Note_on_c, 0, 49, 0
1, 447840, Note_on_c, 0, 61, 27
1, 447840, Note_on_c, 0, 73, 35
1, 447840, Note_on_c, 0, 49, 17
1, 447840, Note_on_c, 0, 54, 21
1, 447840, Note_on_c, 0, 58, 25
1, 447974, Control_c, 0, 64, 127
1, 448320, Tempo, 317041
1, 448320, Note_on_c, 0, 58, 0
1, 448320, Note_on_c, 0, 49, 0
1, 448320, Note_on_c, 0, 61, 0
1, 448320, Note_on_c, 0, 73, 0
1, 448320, Note_on_c, 0, 54, 0
1, 448320, Note_on_c, 0, 78, 33
1, 448320, Note_on_c, 0, 66, 27
1, 448320, Note_on_c, 0, 42, 18
1, 448800, Tempo, 323887
1, 448800, Note_on_c, 0, 42, 0
1, 448800, Note_on_c, 0, 66, 0
1, 448800, Note_on_c, 0, 78, 0
1, 448800, Note_on_c, 0, 73, 30
1, 448800, Note_on_c, 0, 68, 23
1, 448800, Note_on_c, 0, 61, 19
1, 448800, Note_on_c, 0, 49, 13
1, 448800, Note_on_c, 0, 53, 15
1, 448800, Note_on_c, 0, 59, 17
1, 448810, Control_c, 0, 64, 0
1, 449280, Tempo, 326708
1, 449280, Note_on_c, 0, 59, 0
1, 449280, Note_on_c, 0, 68, 0
1, 449280, Note_on_c, 0, 61, 0
1, 449280, Note_on_c, 0, 73, 0
1, 449280, Note_on_c, 0, 53, 0
1, 449280, Note_on_c, 0, 49, 0
1, 449280, Note_on_c, 0, 61, 25
1, 449280, Note_on_c, 0, 73, 33
1, 449280, Note_on_c, 0, 49, 16
1, 449280, Note_on_c, 0, 54, 20
1, 449280, Note_on_c, 0, 58, 24
1, 449387, Control_c, 0, 64, 127
1, 449760, Tempo, 341588
1, 449760, Note_on_c, 0, 58, 0
1, 449760, Note_on_c, 0, 49, 0
1, 449760, Note_on_c, 0, 61, 0
1, 449760, Note_on_c, 0, 73, 0
1, 449760, Note_on_c, 0, 54, 0
1, 449760, Note_on_c, 0, 78, 31
1, 449760, Note_on_c, 0, 66, 25
1, 449760, Note_on_c, 0, 42, 17
1, 450240, Note_on_c, 0, 42, 0
1, 450240, Note_on_c, 0, 66, 0
1, 450240, Note_on_c, 0, 78, 0
1, 450240, Note_on_c, 0, 61, 19
1, 450240, Note_on_c, 0, 68, 23
1, 450240, Note_on_c, 0, 73, 30
1, 450240, Note_on_c, 0, 49, 13
1, 450240, Note_on_c, 0, 53, 15
1, 450240, Note_on_c, 0, 59, 17
1, 450248, Control_c, 0, 64, 0
1, 450720, Tempo, 564069
1, 450720, Note_on_c, 0, 59, 0
1, 450720, Note_on_c, 0, 68, 0
1, 450720, Note_on_c, 0, 73, 0
1, 450720, Note_on_c, 0, 61, 0
1, 450720, Note_on_c, 0, 53, 0
1, 450720, Note_on_c, 0, 49, 0
1, 450720, Note_on_c, 0, 70, 51
1, 450720, Note_on_c, 0, 42, 32
1, 450732, Control_c, 0, 64, 0
1, 451014, Control_c, 0, 64, 127
1, 451200, Tempo, 551623
1, 451200, Note_on_c, 0, 42, 0
1, 451200, Note_on_c, 0, 70, 0
1, 451200, Note_on_c, 0, 65, 42
1, 451200, Note_on_c, 0, 58, 23
1, 451200, Note_on_c, 0, 63, 20
1, 451200, Note_on_c, 0, 54, 17
1, 451200, Note_on_c, 0, 49, 17
1, 451680, Tempo, 577090
1, 451680, Note_on_c, 0, 49, 0
1, 451680, Note_on_c, 0, 63, 0
1, 451680, Note_on_c, 0, 65, 0
1, 451680, Note_on_c, 0, 58, 0
1, 451680, Note_on_c, 0, 54, 0
1, 451680, Note_on_c, 0, 66, 46
1, 451680, Note_on_c, 0, 58, 23
1, 451680, Note_on_c, 0, 49, 14
1, 451680, Note_on_c, 0, 54, 14
1, 451680, Note_on_c, 0, 61, 17
1, 452160, Tempo, 524613
1, 452160, Note_on_c, 0, 61, 0
1, 452160, Note_on_c, 0, 49, 0
1, 452160, Note_on_c, 0, 66, 0
1, 452160, Note_on_c, 0, 58, 0
1, 452160, Note_on_c, 0, 54, 0
1, 452160, Note_on_c, 0, 75, 51
1, 452160, Note_on_c, 0, 49, 16
1, 452160, Note_on_c, 0, 54, 16
1, 452160, Note_on_c, 0, 61, 20
1, 452173, Control_c, 0, 64, 0
1, 452427, Control_c, 0, 64, 127
1, 452640, Tempo, 543626
1, 452640, Note_on_c, 0, 61, 0
1, 452640, Note_on_c, 0, 54, 0
1, 452640, Note_on_c, 0, 49, 0
1, 452640, Note_on_c, 0, 58, 17
1, 452640, Note_on_c, 0, 66, 22
1, 452640, Note_on_c, 0, 63, 16
1, 452640, Note_on_c, 0, 49, 10
1, 452640, Note_on_c, 0, 54, 14
1, 453120, Tempo, 564069
1, 453120, Note_on_c, 0, 54, 0
1, 453120, Note_on_c, 0, 58, 0
1, 453120, Note_on_c, 0, 66, 0
1, 453120, Note_on_c, 0, 75, 0
1, 453120, Note_on_c, 0, 49, 0
1, 453120, Note_on_c, 0, 63, 0
1, 453120, Note_on_c, 0, 73, 47
1, 453120, Note_on_c, 0, 58, 17
1, 453120, Note_on_c, 0, 66, 22
1, 453120, Note_on_c, 0, 49, 12
1, 453120, Note_on_c, 0, 54, 12
1, 453120, Note_on_c, 0, 61, 15
1, 453600, Tempo, 539714
1, 453600, Note_on_c, 0, 61, 0
1, 453600, Note_on_c, 0, 58, 0
1, 453600, Note_on_c, 0, 66, 0
1, 453600, Note_on_c, 0, 73, 0
1, 453600, Note_on_c, 0, 54, 0
1, 453600, Note_on_c, 0, 49, 0
1, 453600, Note_on_c, 0, 73, 47
1, 453600, Note_on_c, 0, 49, 16
1, 453600, Note_on_c, 0, 54, 16
1, 453600, Note_on_c, 0, 61, 20
1, 453613, Control_c, 0, 64, 0
1, 453920, Control_c, 0, 64, 127
1, 454080, Tempo, 555710
1, 454080, Note_on_c, 0, 61, 0
1, 454080, Note_on_c, 0, 73, 0
1, 454080, Note_on_c, 0, 49, 0
1, 454080, Note_on_c, 0, 54, 0
1, 454080, Note_on_c, 0, 66, 38
1, 454080, Note_on_c, 0, 59, 20
1, 454080, Note_on_c, 0, 63, 19
1, 454080, Note_on_c, 0, 54, 16
1, 454080, Note_on_c, 0, 49, 16
1, 454560, Tempo, 600180
1, 454560, Note_on_c, 0, 49, 0
1, 454560, Note_on_c, 0, 63, 0
1, 454560, Note_on_c, 0, 66, 0
1, 454560, Note_on_c, 0, 59, 0
1, 454560, Note_on_c, 0, 54, 0
1, 454560, Note_on_c, 0, 68, 38
1, 454560, Note_on_c, 0, 65, 23
1, 454560, Note_on_c, 0, 59, 19
1, 454560, Note_on_c, 0, 49, 13
1, 454560, Note_on_c, 0, 54, 13
1, 454560, Note_on_c, 0, 61, 16
1, 455040, Tempo, 572683
1, 455040, Note_on_c, 0, 61, 0
1, 455040, Note_on_c, 0, 65, 0
1, 455040, Note_on_c, 0, 59, 0
1, 455040, Note_on_c, 0, 68, 0
1, 455040, Note_on_c, 0, 54, 0
1, 455040, Note_on_c, 0, 49, 0
1, 455040, Note_on_c, 0, 70, 49
1, 455040, Note_on_c, 0, 49, 16
1, 455040, Note_on_c, 0, 54, 16
1, 455040, Note_on_c, 0, 61, 20
1, 455050, Control_c, 0, 64, 0
1, 455307, Control_c, 0, 64, 127
1, 455520, Tempo, 547595
1, 455520, Note_on_c, 0, 61, 0
1, 455520, Note_on_c, 0, 54, 0
1, 455520, Note_on_c, 0, 49, 0
1, 455520, Note_on_c, 0, 58, 20
1, 455520, Note_on_c, 0, 66, 24
1, 455520, Note_on_c, 0, 63, 19
1, 455520, Note_on_c, 0, 49, 16
1, 455520, Note_on_c, 0, 54, 16
1, 456000, Tempo, 568343
1, 456000, Note_on_c, 0, 54, 0
1, 456000, Note_on_c, 0, 58, 0
1, 456000, Note_on_c, 0, 66, 0
1, 456000, Note_on_c, 0, 63, 0
1, 456000, Note_on_c, 0, 49, 0
1, 456000, Note_on_c, 0, 58, 20
1, 456000, Note_on_c, 0, 66, 24
1, 456000, Note_on_c, 0, 49, 13
1, 456000, Note_on_c, 0, 54, 13
1, 456000, Note_on_c, 0, 61, 16
1, 456480, Tempo, 568343
1, 456480, Note_on_c, 0, 61, 0
1, 456480, Note_on_c, 0, 58, 0
1, 456480, Note_on_c, 0, 66, 0
1, 456480, Note_on_c, 0, 49, 0
1, 456480, Note_on_c, 0, 54, 0
1, 456480, Note_on_c, 0, 58, 19
1, 456480, Note_on_c, 0, 66, 23
1, 456480, Note_on_c, 0, 49, 16
1, 456480, Note_on_c, 0, 54, 16
1, 456480, Note_on_c, 0, 61, 19
1, 456496, Control_c, 0, 64, 0
1, 456960, Tempo, 555710
1, 456960, Note_on_c, 0, 61, 0
1, 456960, Note_on_c, 0, 58, 0
1, 456960, Note_on_c, 0, 66, 0
1, 456960, Note_on_c, 0, 49, 0
1, 456960, Note_on_c, 0, 54, 0
1, 456960, Note_on_c, 0, 61, 18
1, 456960, Note_on_c, 0, 66, 22
1, 456960, Note_on_c, 0, 49, 14
1, 456960, Note_on_c, 0, 54, 14
1, 456960, Note_on_c, 0, 59, 17
1, 457440, Tempo, 568343
1, 457440, Note_on_c, 0, 59, 0
1, 457440, Note_on_c, 0, 61, 0
1, 457440, Note_on_c, 0, 66, 0
1, 457440, Note_on_c, 0, 49, 0
1, 457440, Note_on_c, 0, 54, 0
1, 457440, Note_on_c, 0, 61, 18
1, 457440, Note_on_c, 0, 66, 22
1, 457440, Note_on_c, 0, 49, 15
1, 457440, Note_on_c, 0, 54, 15
1, 457440, Note_on_c, 0, 58, 18
1, 457920, Tempo, 547595
1, 457920, Note_on_c, 0, 58, 0
1, 457920, Note_on_c, 0, 61, 0
1, 457920, Note_on_c, 0, 66, 0
1, 457920, Note_on_c, 0, 49, 0
1, 457920, Note_on_c, 0, 54, 0
1, 457920, Note_on_c, 0, 61, 19
1, 457920, Note_on_c, 0, 66, 23
1, 457920, Note_on_c, 0, 49, 15
1, 457920, Note_on_c, 0, 54, 15
1, 457920, Note_on_c, 0, 58, 18
1, 458400, Note_on_c, 0, 58, 0
1, 458400, Note_on_c, 0, 61, 0
1, 458400, Note_on_c, 0, 66, 0
1, 458400, Note_on_c, 0, 70, 0
1, 458400, Note_on_c, 0, 54, 0
1, 458400, Note_on_c, 0, 49, 0
1, 458400, Note_on_c, 0, 56, 18
1, 458400, Note_on_c, 0, 61, 22
1, 458400, Note_on_c, 0, 47, 17
1, 458400, Note_on_c, 0, 49, 21
1, 458880, Tempo, 559858
1, 458880, Note_on_c, 0, 49, 0
1, 458880, Note_on_c, 0, 56, 0
1, 458880, Note_on_c, 0, 61, 0
1, 458880, Note_on_c, 0, 47, 0
1, 458880, Note_on_c, 0, 54, 18
1, 458880, Note_on_c, 0, 61, 22
1, 458880, Note_on_c, 0, 46, 17
1, 458880, Note_on_c, 0, 49, 21
1, 459360, Tempo, 547595
1, 459360, Note_on_c, 0, 49, 0
1, 459360, Note_on_c, 0, 54, 0
1, 459360, Note_on_c, 0, 61, 0
1, 459360, Note_on_c, 0, 46, 0
1, 459360, Note_on_c, 0, 54, 19
1, 459360, Note_on_c, 0, 61, 23
1, 459360, Note_on_c, 0, 46, 17
1, 459360, Note_on_c, 0, 49, 21
1, 459840, Tempo, 543626
1, 459840, Note_on_c, 0, 49, 0
1, 459840, Note_on_c, 0, 54, 0
1, 459840, Note_on_c, 0, 61, 0
1, 459840, Note_on_c, 0, 46, 0
1, 459840, Note_on_c, 0, 56, 18
1, 459840, Note_on_c, 0, 61, 22
1, 459840, Note_on_c, 0, 47, 17
1, 459840, Note_on_c, 0, 49, 21
1, 460320, Note_on_c, 0, 49, 0
1, 460320, Note_on_c, 0, 56, 0
1, 460320, Note_on_c, 0, 61, 0
1, 460320, Note_on_c, 0, 47, 0
1, 460320, Note_on_c, 0, 54, 18
1, 460320, Note_on_c, 0, 61, 22
1, 460320, Note_on_c, 0, 46, 17
1, 460320, Note_on_c, 0, 49, 21
1, 460800, Tempo, 555710
1, 460800, Note_on_c, 0, 49, 0
1, 460800, Note_on_c, 0, 54, 0
1, 460800, Note_on_c, 0, 61, 0
1, 460800, Note_on_c, 0, 46, 0
1, 460800, Note_on_c, 0, 54, 19
1, 460800, Note_on_c, 0, 61, 23
1, 460800, Note_on_c, 0, 46, 16
1, 460800, Note_on_c, 0, 49, 20
1, 461280, Tempo, 551623
1, 461280, Note_on_c, 0, 49, 0
1, 461280, Note_on_c, 0, 54, 0
1, 461280, Note_on_c, 0, 61, 0
1, 461280, Note_on_c, 0, 46, 0
1, 461280, Note_on_c, 0, 56, 18
1, 461280, Note_on_c, 0, 61, 22
1, 461280, Note_on_c, 0, 47, 16
1, 461280, Note_on_c, 0, 49, 20
1, 461760, Tempo, 590726
1, 461760, Note_on_c, 0, 49, 0
1, 461760, Note_on_c, 0, 56, 0
1, 461760, Note_on_c, 0, 61, 0
1, 461760, Note_on_c, 0, 47, 0
1, 461760, Note_on_c, 0, 54, 19
1, 461760, Note_on_c, 0, 61, 23
1, 461760, Note_on_c, 0, 46, 15
1, 461760, Note_on_c, 0, 49, 18
1, 462240, Tempo, 586109
1, 462240, Note_on_c, 0, 61, 0
1, 462240, Note_on_c, 0, 54, 0
1, 462240, Note_on_c, 0, 54, 19
1, 462240, Note_on_c, 0, 61, 23
1, 462720, Tempo, 564069
1, 462720, Note_on_c, 0, 61, 0
1, 462720, Note_on_c, 0, 49, 0
1, 462720, Note_on_c, 0, 46, 0
1, 462720, Note_on_c, 0, 54, 0
1, 462720, Note_on_c, 0, 32, 17
1, 462720, Note_on_c, 0, 44, 20
1, 463200, Tempo, 600180
1, 463200, Note_on_c, 0, 44, 0
1, 463200, Note_on_c, 0, 32, 0
1, 463200, Note_on_c, 0, 30, 17
1, 463200, Note_on_c, 0, 42, 20
1, 463680, Tempo, 630451
1, 463680, Note_on_c, 0, 42, 0
1, 463680, Note_on_c, 0, 30, 0
1, 463680, Note_on_c, 0, 30, 17
1, 463680, Note_on_c, 0, 42, 20
1, 464160, Tempo, 600180
1, 464160, Note_on_c, 0, 42, 0
1, 464160, Note_on_c, 0, 30, 0
1, 464160, Note_on_c, 0, 32, 17
1, 464160, Note_on_c, 0, 44, 20
1, 464640, Tempo, 728421
1, 464640, Note_on_c, 0, 44, 0
1, 464640, Note_on_c, 0, 32, 0
1, 464640, Note_on_c, 0, 30, 17
1, 464640, Note_on_c, 0, 42, 20
1, 465120, Tempo, 658111
1, 465120, Note_on_c, 0, 42, 0
1, 465120, Note_on_c, 0, 30, 0
1, 465120, Note_on_c, 0, 54, 23
1, 465120, Note_on_c, 0, 61, 23
1, 465120, Note_on_c, 0, 66, 23
1, 465120, Note_on_c, 0, 70, 23
1, 465494, Control_c, 0, 64, 127
1, 466560, Control_c, 0, 64, 0
1, 466560, Note_on_c, 0, 25, 16
1, 466560, Note_on_c, 0, 37, 20
1, 466680, Note_on_c, 0, 37, 0
1, 466680, Note_on_c, 0, 25, 0
1, 468000, Note_on_c, 0, 30, 16
1, 468000, Note_on_c, 0, 42, 20
1, 468120, Note_on_c, 0, 42, 0
1, 468120, Note_on_c, 0, 30, 0
1, 470880, Tempo, 600000
1, 471360, Note_on_c, 0, 70, 0
1, 471360, Note_on_c, 0, 54, 0
1, 471360, Note_on_c, 0, 61, 0
1, 471360, Note_on_c, 0, 66, 0
1, 471360, End_track
0, 0, End_of_file
