0, 0, Header, 0, 1, 480
1, 0, Start_track
1, 0, Title_t, "Chopin Prelude  No. 24, Opus 28"
1, 0, Copyright_t, "Copyright © 2002 by Bernd Krueger "
1, 0, Text_t, "Frederic Chopin"
1, 0, Text_t, "Allegro appassionato"
1, 0, Text_t, "Fertiggestellt am  16.12.02\012"
1, 0, Text_t, "Normierung: 23.12.2002\012"
1, 0, Text_t, "Update am 21.7.2003\012"
1, 0, Text_t, "Update am 30.6.2010\012"
1, 0, Text_t, "Update am 23.2.2014\012"
1, 0, Text_t, "Dauer: 2:05 Minuten\012"
1, 0, SMPTE_offset, 96, 0, 3, 0, 0
1, 0, Time_signature, 6, 3, 12, 8
1, 0, Key_signature, -1, "major"
1, 0, Tempo, 521241
1, 0, Program_c, 0, 0
1, 0, Control_c, 0, 7, 100
1, 0, Control_c, 0, 10, 64
1, 0, Control_c, 0, 91, 127
1, 0, Text_t, "bdca426d104a26ac9dcb070447587523"
1, 0, Program_c, 0, 0
1, 0, Control_c, 0, 7, 100
1, 0, Control_c, 0, 10, 64
1, 0, Control_c, 0, 64, 127
1, 0, Note_on_c, 0, 38, 92
1, 120, Note_on_c, 0, 38, 0
1, 120, Note_on_c, 0, 45, 56
1, 240, Note_on_c, 0, 53, 56
1, 360, Note_on_c, 0, 53, 0
1, 360, Note_on_c, 0, 38, 46
1, 480, Tempo, 537586
1, 480, Note_on_c, 0, 38, 0
1, 480, Note_on_c, 0, 57, 69
1, 600, Note_on_c, 0, 45, 0
1, 720, Tempo, 521241
1, 720, Note_on_c, 0, 57, 0
1, 720, Note_on_c, 0, 38, 75
1, 840, Note_on_c, 0, 38, 0
1, 840, Note_on_c, 0, 45, 53
1, 960, Note_on_c, 0, 53, 53
1, 1080, Note_on_c, 0, 53, 0
1, 1080, Note_on_c, 0, 38, 48
1, 1200, Tempo, 535189
1, 1200, Note_on_c, 0, 38, 0
1, 1200, Note_on_c, 0, 57, 65
1, 1320, Note_on_c, 0, 45, 0
1, 1440, Tempo, 521241
1, 1440, Note_on_c, 0, 57, 0
1, 1440, Note_on_c, 0, 38, 63
1, 1560, Note_on_c, 0, 38, 0
1, 1560, Note_on_c, 0, 45, 51
1, 1680, Note_on_c, 0, 53, 51
1, 1800, Note_on_c, 0, 53, 0
1, 1800, Note_on_c, 0, 38, 46
1, 1920, Tempo, 530457
1, 1920, Note_on_c, 0, 38, 0
1, 1920, Note_on_c, 0, 57, 60
1, 2040, Note_on_c, 0, 45, 0
1, 2160, Tempo, 521241
1, 2160, Note_on_c, 0, 57, 0
1, 2160, Note_on_c, 0, 38, 61
1, 2280, Note_on_c, 0, 38, 0
1, 2280, Note_on_c, 0, 45, 52
1, 2400, Note_on_c, 0, 53, 53
1, 2520, Note_on_c, 0, 53, 0
1, 2520, Note_on_c, 0, 38, 46
1, 2640, Tempo, 537586
1, 2640, Note_on_c, 0, 38, 0
1, 2640, Note_on_c, 0, 57, 60
1, 2760, Note_on_c, 0, 45, 0
1, 2880, Tempo, 521241
1, 2880, Note_on_c, 0, 57, 0
1, 2880, Note_on_c, 0, 69, 79
1, 2880, Note_on_c, 0, 38, 55
1, 3000, Note_on_c, 0, 38, 0
1, 3000, Note_on_c, 0, 45, 48
1, 3120, Note_on_c, 0, 53, 47
1, 3240, Note_on_c, 0, 53, 0
1, 3240, Note_on_c, 0, 38, 41
1, 3360, Tempo, 539957
1, 3360, Note_on_c, 0, 38, 0
1, 3360, Note_on_c, 0, 69, 0
1, 3360, Note_on_c, 0, 65, 73
1, 3360, Note_on_c, 0, 57, 50
1, 3480, Note_on_c, 0, 45, 0
1, 3600, Tempo, 528123
1, 3600, Note_on_c, 0, 57, 0
1, 3600, Note_on_c, 0, 65, 0
1, 3600, Note_on_c, 0, 62, 70
1, 3600, Note_on_c, 0, 38, 54
1, 3720, Note_on_c, 0, 38, 0
1, 3720, Note_on_c, 0, 45, 45
1, 3840, Note_on_c, 0, 53, 45
1, 3960, Note_on_c, 0, 53, 0
1, 3960, Note_on_c, 0, 38, 38
1, 4080, Note_on_c, 0, 38, 0
1, 4080, Note_on_c, 0, 57, 53
1, 4200, Note_on_c, 0, 45, 0
1, 4320, Note_on_c, 0, 57, 0
1, 4320, Note_on_c, 0, 38, 55
1, 4440, Note_on_c, 0, 38, 0
1, 4440, Note_on_c, 0, 45, 45
1, 4560, Note_on_c, 0, 53, 46
1, 4680, Note_on_c, 0, 53, 0
1, 4680, Note_on_c, 0, 38, 40
1, 4800, Note_on_c, 0, 38, 0
1, 4800, Note_on_c, 0, 57, 53
1, 4920, Note_on_c, 0, 45, 0
1, 5040, Tempo, 521241
1, 5040, Note_on_c, 0, 57, 0
1, 5040, Note_on_c, 0, 62, 0
1, 5040, Note_on_c, 0, 65, 72
1, 5040, Note_on_c, 0, 38, 54
1, 5160, Note_on_c, 0, 38, 0
1, 5160, Note_on_c, 0, 45, 47
1, 5280, Note_on_c, 0, 65, 0
1, 5280, Note_on_c, 0, 69, 77
1, 5280, Note_on_c, 0, 53, 47
1, 5400, Note_on_c, 0, 53, 0
1, 5400, Note_on_c, 0, 38, 42
1, 5520, Note_on_c, 0, 38, 0
1, 5520, Note_on_c, 0, 57, 56
1, 5640, Note_on_c, 0, 69, 0
1, 5640, Note_on_c, 0, 45, 0
1, 5640, Note_on_c, 0, 74, 78
1, 5760, Note_on_c, 0, 74, 0
1, 5760, Note_on_c, 0, 57, 0
1, 5760, Note_on_c, 0, 72, 77
1, 5760, Note_on_c, 0, 38, 57
1, 5767, Control_c, 0, 64, 0
1, 5816, Control_c, 0, 64, 127
1, 5880, Note_on_c, 0, 38, 0
1, 5880, Note_on_c, 0, 45, 49
1, 6000, Note_on_c, 0, 53, 49
1, 6120, Note_on_c, 0, 53, 0
1, 6120, Note_on_c, 0, 38, 44
1, 6240, Note_on_c, 0, 38, 0
1, 6240, Note_on_c, 0, 57, 54
1, 6360, Note_on_c, 0, 45, 0
1, 6480, Note_on_c, 0, 57, 0
1, 6480, Note_on_c, 0, 38, 56
1, 6600, Note_on_c, 0, 38, 0
1, 6600, Note_on_c, 0, 45, 48
1, 6720, Tempo, 528123
1, 6720, Note_on_c, 0, 53, 49
1, 6840, Note_on_c, 0, 53, 0
1, 6840, Note_on_c, 0, 38, 43
1, 6960, Note_on_c, 0, 38, 0
1, 6960, Note_on_c, 0, 57, 54
1, 7080, Note_on_c, 0, 45, 0
1, 7080, Note_on_c, 0, 72, 0
1, 7080, Note_on_c, 0, 70, 75
1, 7200, Tempo, 521241
1, 7200, Note_on_c, 0, 70, 0
1, 7200, Note_on_c, 0, 57, 0
1, 7200, Note_on_c, 0, 69, 70
1, 7200, Note_on_c, 0, 38, 54
1, 7208, Control_c, 0, 64, 0
1, 7264, Control_c, 0, 64, 127
1, 7320, Note_on_c, 0, 38, 0
1, 7320, Note_on_c, 0, 45, 48
1, 7440, Note_on_c, 0, 53, 48
1, 7560, Note_on_c, 0, 53, 0
1, 7560, Note_on_c, 0, 38, 43
1, 7680, Note_on_c, 0, 38, 0
1, 7680, Note_on_c, 0, 57, 51
1, 7800, Note_on_c, 0, 45, 0
1, 7920, Note_on_c, 0, 57, 0
1, 7920, Note_on_c, 0, 69, 0
1, 7920, Note_on_c, 0, 38, 53
1, 8040, Note_on_c, 0, 38, 0
1, 8040, Note_on_c, 0, 45, 48
1, 8160, Note_on_c, 0, 53, 48
1, 8280, Note_on_c, 0, 53, 0
1, 8280, Note_on_c, 0, 38, 42
1, 8400, Tempo, 537586
1, 8400, Note_on_c, 0, 38, 0
1, 8400, Note_on_c, 0, 57, 51
1, 8520, Note_on_c, 0, 45, 0
1, 8520, Note_on_c, 0, 69, 77
1, 8640, Tempo, 521241
1, 8640, Note_on_c, 0, 69, 0
1, 8640, Note_on_c, 0, 57, 0
1, 8640, Note_on_c, 0, 69, 77
1, 8640, Note_on_c, 0, 38, 57
1, 8760, Note_on_c, 0, 38, 0
1, 8760, Note_on_c, 0, 45, 47
1, 8880, Note_on_c, 0, 53, 47
1, 9000, Note_on_c, 0, 53, 0
1, 9000, Note_on_c, 0, 38, 42
1, 9120, Note_on_c, 0, 38, 0
1, 9120, Note_on_c, 0, 69, 0
1, 9120, Note_on_c, 0, 57, 54
1, 9160, Tempo, 1131008
1, 9240, Note_on_c, 0, 45, 0
1, 9240, Note_on_c, 0, 65, 63
1, 9276, Note_on_c, 0, 62, 63
1, 9280, Note_on_c, 0, 65, 0
1, 9304, Note_on_c, 0, 62, 0
1, 9304, Note_on_c, 0, 64, 63
1, 9332, Note_on_c, 0, 64, 0
1, 9332, Note_on_c, 0, 65, 63
1, 9360, Tempo, 521241
1, 9360, Note_on_c, 0, 65, 0
1, 9360, Note_on_c, 0, 57, 0
1, 9360, Note_on_c, 0, 64, 72
1, 9360, Note_on_c, 0, 38, 54
1, 9480, Note_on_c, 0, 38, 0
1, 9480, Note_on_c, 0, 45, 45
1, 9600, Tempo, 525762
1, 9600, Note_on_c, 0, 64, 0
1, 9600, Note_on_c, 0, 62, 72
1, 9600, Note_on_c, 0, 53, 45
1, 9720, Note_on_c, 0, 53, 0
1, 9720, Note_on_c, 0, 38, 41
1, 9840, Note_on_c, 0, 38, 0
1, 9840, Note_on_c, 0, 62, 0
1, 9840, Note_on_c, 0, 57, 53
1, 9960, Note_on_c, 0, 45, 0
1, 10080, Tempo, 521241
1, 10080, Note_on_c, 0, 57, 0
1, 10080, Note_on_c, 0, 38, 55
1, 10200, Note_on_c, 0, 38, 0
1, 10200, Note_on_c, 0, 45, 45
1, 10320, Note_on_c, 0, 53, 45
1, 10440, Note_on_c, 0, 53, 0
1, 10440, Note_on_c, 0, 38, 39
1, 10560, Note_on_c, 0, 38, 0
1, 10560, Note_on_c, 0, 65, 70
1, 10560, Note_on_c, 0, 57, 53
1, 10680, Note_on_c, 0, 45, 0
1, 10800, Tempo, 514492
1, 10800, Note_on_c, 0, 57, 0
1, 10800, Note_on_c, 0, 65, 0
1, 10800, Note_on_c, 0, 69, 72
1, 10800, Note_on_c, 0, 38, 54
1, 10920, Note_on_c, 0, 38, 0
1, 10920, Note_on_c, 0, 45, 46
1, 11040, Note_on_c, 0, 69, 0
1, 11040, Note_on_c, 0, 74, 76
1, 11040, Note_on_c, 0, 53, 46
1, 11160, Note_on_c, 0, 53, 0
1, 11160, Note_on_c, 0, 38, 40
1, 11280, Note_on_c, 0, 38, 0
1, 11280, Note_on_c, 0, 57, 53
1, 11400, Note_on_c, 0, 74, 0
1, 11400, Note_on_c, 0, 45, 0
1, 11400, Note_on_c, 0, 77, 77
1, 11520, Tempo, 521241
1, 11520, Note_on_c, 0, 77, 0
1, 11520, Note_on_c, 0, 57, 0
1, 11520, Note_on_c, 0, 76, 79
1, 11520, Note_on_c, 0, 38, 55
1, 11526, Control_c, 0, 64, 0
1, 11640, Note_on_c, 0, 38, 0
1, 11640, Note_on_c, 0, 45, 47
1, 11654, Control_c, 0, 64, 127
1, 11760, Note_on_c, 0, 53, 47
1, 11880, Note_on_c, 0, 53, 0
1, 11880, Note_on_c, 0, 38, 41
1, 12000, Tempo, 516751
1, 12000, Note_on_c, 0, 38, 0
1, 12000, Note_on_c, 0, 57, 53
1, 12120, Note_on_c, 0, 45, 0
1, 12240, Note_on_c, 0, 57, 0
1, 12240, Note_on_c, 0, 38, 54
1, 12360, Note_on_c, 0, 38, 0
1, 12360, Note_on_c, 0, 45, 47
1, 12480, Note_on_c, 0, 53, 46
1, 12600, Note_on_c, 0, 53, 0
1, 12600, Note_on_c, 0, 38, 43
1, 12720, Tempo, 521241
1, 12720, Note_on_c, 0, 38, 0
1, 12720, Note_on_c, 0, 57, 53
1, 12840, Note_on_c, 0, 45, 0
1, 12840, Note_on_c, 0, 76, 0
1, 12840, Note_on_c, 0, 74, 79
1, 12960, Tempo, 528123
1, 12960, Note_on_c, 0, 74, 0
1, 12960, Note_on_c, 0, 57, 0
1, 12960, Note_on_c, 0, 69, 79
1, 12960, Note_on_c, 0, 38, 55
1, 13080, Note_on_c, 0, 38, 0
1, 13080, Note_on_c, 0, 45, 47
1, 13200, Note_on_c, 0, 53, 47
1, 13320, Note_on_c, 0, 53, 0
1, 13320, Note_on_c, 0, 69, 0
1, 13320, Note_on_c, 0, 69, 57
1, 13320, Note_on_c, 0, 38, 44
1, 13380, Note_on_c, 0, 69, 0
1, 13380, Note_on_c, 0, 71, 57
1, 13440, Tempo, 611621
1, 13440, Note_on_c, 0, 71, 0
1, 13440, Note_on_c, 0, 38, 0
1, 13440, Note_on_c, 0, 72, 58
1, 13440, Note_on_c, 0, 57, 53
1, 13480, Tempo, 602410
1, 13500, Note_on_c, 0, 72, 0
1, 13500, Note_on_c, 0, 71, 58
1, 13520, Tempo, 590551
1, 13560, Tempo, 555813
1, 13560, Note_on_c, 0, 71, 0
1, 13560, Note_on_c, 0, 45, 0
1, 13560, Note_on_c, 0, 72, 59
1, 13600, Tempo, 568128
1, 13620, Note_on_c, 0, 72, 0
1, 13620, Note_on_c, 0, 71, 59
1, 13640, Tempo, 557569
1, 13680, Tempo, 539957
1, 13680, Note_on_c, 0, 71, 0
1, 13680, Note_on_c, 0, 57, 0
1, 13680, Note_on_c, 0, 72, 60
1, 13680, Note_on_c, 0, 38, 54
1, 13692, Control_c, 0, 64, 0
1, 13723, Control_c, 0, 64, 127
1, 13740, Note_on_c, 0, 72, 0
1, 13740, Note_on_c, 0, 71, 60
1, 13760, Tempo, 537586
1, 13800, Tempo, 535189
1, 13800, Note_on_c, 0, 71, 0
1, 13800, Note_on_c, 0, 38, 0
1, 13800, Note_on_c, 0, 72, 61
1, 13800, Note_on_c, 0, 43, 46
1, 13860, Note_on_c, 0, 72, 0
1, 13860, Note_on_c, 0, 71, 61
1, 13880, Tempo, 532765
1, 13920, Tempo, 530457
1, 13920, Note_on_c, 0, 71, 0
1, 13920, Note_on_c, 0, 72, 62
1, 13920, Note_on_c, 0, 53, 47
1, 13960, Tempo, 528123
1, 13980, Note_on_c, 0, 72, 0
1, 13980, Note_on_c, 0, 71, 62
1, 14040, Tempo, 525762
1, 14040, Note_on_c, 0, 71, 0
1, 14040, Note_on_c, 0, 53, 0
1, 14040, Note_on_c, 0, 72, 63
1, 14040, Note_on_c, 0, 38, 42
1, 14080, Tempo, 523515
1, 14100, Note_on_c, 0, 72, 0
1, 14100, Note_on_c, 0, 71, 63
1, 14120, Tempo, 521241
1, 14160, Note_on_c, 0, 71, 0
1, 14160, Note_on_c, 0, 38, 0
1, 14160, Note_on_c, 0, 72, 63
1, 14160, Note_on_c, 0, 55, 53
1, 14220, Note_on_c, 0, 72, 0
1, 14220, Note_on_c, 0, 71, 63
1, 14280, Tempo, 521241
1, 14280, Note_on_c, 0, 71, 0
1, 14280, Note_on_c, 0, 43, 0
1, 14280, Note_on_c, 0, 69, 64
1, 14340, Note_on_c, 0, 69, 0
1, 14340, Note_on_c, 0, 71, 64
1, 14400, Tempo, 521241
1, 14400, Note_on_c, 0, 71, 0
1, 14400, Note_on_c, 0, 55, 0
1, 14400, Note_on_c, 0, 72, 79
1, 14400, Note_on_c, 0, 36, 62
1, 14414, Control_c, 0, 64, 0
1, 14506, Control_c, 0, 64, 97
1, 14520, Note_on_c, 0, 36, 0
1, 14520, Note_on_c, 0, 45, 48
1, 14640, Note_on_c, 0, 53, 48
1, 14760, Note_on_c, 0, 53, 0
1, 14760, Note_on_c, 0, 36, 44
1, 14880, Note_on_c, 0, 36, 0
1, 14880, Note_on_c, 0, 57, 56
1, 15000, Note_on_c, 0, 45, 0
1, 15120, Note_on_c, 0, 57, 0
1, 15120, Note_on_c, 0, 72, 0
1, 15120, Note_on_c, 0, 70, 78
1, 15120, Note_on_c, 0, 36, 60
1, 15127, Control_c, 0, 64, 0
1, 15191, Control_c, 0, 64, 97
1, 15240, Note_on_c, 0, 36, 0
1, 15240, Note_on_c, 0, 45, 49
1, 15360, Note_on_c, 0, 53, 49
1, 15480, Note_on_c, 0, 53, 0
1, 15480, Note_on_c, 0, 36, 45
1, 15600, Note_on_c, 0, 36, 0
1, 15600, Note_on_c, 0, 70, 0
1, 15600, Note_on_c, 0, 69, 73
1, 15600, Note_on_c, 0, 57, 55
1, 15720, Note_on_c, 0, 45, 0
1, 15840, Tempo, 593472
1, 15840, Note_on_c, 0, 57, 0
1, 15840, Note_on_c, 0, 69, 0
1, 15840, Note_on_c, 0, 67, 60
1, 15840, Note_on_c, 0, 36, 59
1, 15848, Control_c, 0, 64, 32
1, 15880, Tempo, 587659
1, 15882, Control_c, 0, 64, 96
1, 15900, Note_on_c, 0, 67, 0
1, 15900, Note_on_c, 0, 69, 61
1, 15920, Tempo, 579151
1, 15960, Tempo, 573559
1, 15960, Note_on_c, 0, 69, 0
1, 15960, Note_on_c, 0, 36, 0
1, 15960, Note_on_c, 0, 67, 61
1, 15960, Note_on_c, 0, 43, 48
1, 16000, Tempo, 565451
1, 16020, Note_on_c, 0, 67, 0
1, 16020, Note_on_c, 0, 69, 62
1, 16040, Tempo, 560172
1, 16080, Tempo, 552435
1, 16080, Note_on_c, 0, 69, 0
1, 16080, Note_on_c, 0, 43, 0
1, 16080, Note_on_c, 0, 67, 63
1, 16080, Note_on_c, 0, 53, 49
1, 16120, Tempo, 547445
1, 16140, Note_on_c, 0, 67, 0
1, 16140, Note_on_c, 0, 69, 63
1, 16160, Tempo, 544910
1, 16200, Tempo, 539957
1, 16200, Note_on_c, 0, 69, 0
1, 16200, Note_on_c, 0, 53, 0
1, 16200, Note_on_c, 0, 67, 63
1, 16200, Note_on_c, 0, 36, 45
1, 16240, Tempo, 535189
1, 16260, Note_on_c, 0, 67, 0
1, 16260, Note_on_c, 0, 69, 64
1, 16280, Tempo, 532765
1, 16320, Tempo, 528123
1, 16320, Note_on_c, 0, 69, 0
1, 16320, Note_on_c, 0, 36, 0
1, 16320, Note_on_c, 0, 67, 64
1, 16320, Note_on_c, 0, 55, 63
1, 16360, Tempo, 523515
1, 16380, Note_on_c, 0, 67, 0
1, 16380, Note_on_c, 0, 69, 65
1, 16400, Tempo, 518941
1, 16440, Tempo, 521241
1, 16440, Note_on_c, 0, 69, 0
1, 16440, Note_on_c, 0, 65, 66
1, 16500, Note_on_c, 0, 65, 0
1, 16500, Note_on_c, 0, 67, 67
1, 16560, Tempo, 521241
1, 16560, Note_on_c, 0, 67, 0
1, 16560, Note_on_c, 0, 55, 0
1, 16560, Note_on_c, 0, 69, 78
1, 16560, Note_on_c, 0, 36, 60
1, 16680, Note_on_c, 0, 36, 0
1, 16680, Note_on_c, 0, 43, 49
1, 16800, Note_on_c, 0, 43, 0
1, 16800, Note_on_c, 0, 53, 49
1, 16920, Note_on_c, 0, 53, 0
1, 16920, Note_on_c, 0, 36, 43
1, 17040, Tempo, 530457
1, 17040, Note_on_c, 0, 36, 0
1, 17040, Note_on_c, 0, 69, 0
1, 17040, Note_on_c, 0, 55, 62
1, 17160, Note_on_c, 0, 65, 78
1, 17280, Note_on_c, 0, 65, 0
1, 17280, Note_on_c, 0, 55, 0
1, 17280, Note_on_c, 0, 60, 72
1, 17280, Control_c, 0, 64, 32
1, 17280, Note_on_c, 0, 36, 63
1, 17400, Note_on_c, 0, 36, 0
1, 17400, Control_c, 0, 64, 96
1, 17400, Note_on_c, 0, 46, 50
1, 17520, Tempo, 523515
1, 17520, Note_on_c, 0, 46, 0
1, 17520, Note_on_c, 0, 53, 50
1, 17640, Note_on_c, 0, 53, 0
1, 17640, Note_on_c, 0, 36, 45
1, 17760, Note_on_c, 0, 36, 0
1, 17760, Note_on_c, 0, 55, 63
1, 18000, Note_on_c, 0, 55, 0
1, 18000, Note_on_c, 0, 36, 63
1, 18120, Note_on_c, 0, 36, 0
1, 18120, Note_on_c, 0, 46, 48
1, 18240, Note_on_c, 0, 46, 0
1, 18240, Note_on_c, 0, 53, 48
1, 18360, Note_on_c, 0, 53, 0
1, 18360, Note_on_c, 0, 36, 42
1, 18480, Note_on_c, 0, 36, 0
1, 18480, Note_on_c, 0, 55, 63
1, 18720, Tempo, 542446
1, 18720, Note_on_c, 0, 55, 0
1, 18720, Note_on_c, 0, 60, 0
1, 18720, Note_on_c, 0, 60, 72
1, 18720, Note_on_c, 0, 36, 61
1, 18726, Control_c, 0, 64, 31
1, 18769, Control_c, 0, 64, 96
1, 18800, Tempo, 539957
1, 18840, Note_on_c, 0, 36, 0
1, 18840, Note_on_c, 0, 46, 51
1, 18864, Note_on_c, 0, 60, 0
1, 18864, Note_on_c, 0, 62, 61
1, 18880, Tempo, 537586
1, 18912, Note_on_c, 0, 62, 0
1, 18912, Note_on_c, 0, 60, 62
1, 18960, Tempo, 535189
1, 18960, Note_on_c, 0, 60, 0
1, 18960, Note_on_c, 0, 46, 0
1, 18960, Note_on_c, 0, 59, 63
1, 18960, Note_on_c, 0, 52, 50
1, 19008, Note_on_c, 0, 59, 0
1, 19008, Note_on_c, 0, 60, 63
1, 19040, Tempo, 532765
1, 19056, Note_on_c, 0, 60, 0
1, 19056, Note_on_c, 0, 62, 63
1, 19080, Note_on_c, 0, 52, 0
1, 19080, Note_on_c, 0, 36, 44
1, 19104, Note_on_c, 0, 62, 0
1, 19104, Note_on_c, 0, 64, 64
1, 19120, Tempo, 530457
1, 19152, Note_on_c, 0, 64, 0
1, 19152, Note_on_c, 0, 65, 64
1, 19200, Tempo, 528123
1, 19200, Note_on_c, 0, 65, 0
1, 19200, Note_on_c, 0, 36, 0
1, 19200, Note_on_c, 0, 67, 65
1, 19200, Note_on_c, 0, 55, 56
1, 19248, Note_on_c, 0, 67, 0
1, 19248, Note_on_c, 0, 69, 66
1, 19280, Tempo, 525762
1, 19296, Note_on_c, 0, 69, 0
1, 19296, Note_on_c, 0, 70, 66
1, 19344, Note_on_c, 0, 70, 0
1, 19344, Note_on_c, 0, 72, 67
1, 19360, Tempo, 523515
1, 19392, Note_on_c, 0, 72, 0
1, 19392, Note_on_c, 0, 74, 68
1, 19440, Tempo, 523515
1, 19440, Note_on_c, 0, 74, 0
1, 19440, Note_on_c, 0, 55, 0
1, 19440, Note_on_c, 0, 76, 69
1, 19440, Note_on_c, 0, 36, 61
1, 19488, Note_on_c, 0, 76, 0
1, 19488, Note_on_c, 0, 77, 69
1, 19536, Note_on_c, 0, 77, 0
1, 19536, Note_on_c, 0, 79, 70
1, 19560, Note_on_c, 0, 36, 0
1, 19560, Note_on_c, 0, 46, 49
1, 19584, Note_on_c, 0, 79, 0
1, 19584, Note_on_c, 0, 81, 71
1, 19632, Note_on_c, 0, 81, 0
1, 19632, Note_on_c, 0, 82, 71
1, 19640, Tempo, 525762
1, 19680, Note_on_c, 0, 82, 0
1, 19680, Note_on_c, 0, 46, 0
1, 19680, Note_on_c, 0, 84, 72
1, 19680, Note_on_c, 0, 52, 49
1, 19728, Note_on_c, 0, 84, 0
1, 19728, Note_on_c, 0, 86, 72
1, 19776, Note_on_c, 0, 86, 0
1, 19776, Note_on_c, 0, 88, 72
1, 19800, Tempo, 528123
1, 19800, Note_on_c, 0, 52, 0
1, 19800, Note_on_c, 0, 36, 45
1, 19824, Note_on_c, 0, 88, 0
1, 19824, Note_on_c, 0, 89, 73
1, 19872, Note_on_c, 0, 89, 0
1, 19872, Note_on_c, 0, 91, 74
1, 19920, Note_on_c, 0, 91, 0
1, 19920, Note_on_c, 0, 36, 0
1, 19920, Note_on_c, 0, 93, 75
1, 19920, Note_on_c, 0, 55, 57
1, 19968, Note_on_c, 0, 93, 0
1, 19968, Note_on_c, 0, 94, 75
1, 20000, Tempo, 530457
1, 20016, Note_on_c, 0, 94, 0
1, 20016, Note_on_c, 0, 96, 76
1, 20064, Note_on_c, 0, 96, 0
1, 20064, Note_on_c, 0, 98, 77
1, 20112, Note_on_c, 0, 98, 0
1, 20112, Note_on_c, 0, 100, 77
1, 20160, Tempo, 521241
1, 20160, Note_on_c, 0, 100, 0
1, 20160, Note_on_c, 0, 55, 0
1, 20160, Note_on_c, 0, 101, 90
1, 20160, Control_c, 0, 64, 32
1, 20160, Note_on_c, 0, 41, 64
1, 20252, Control_c, 0, 64, 95
1, 20280, Note_on_c, 0, 41, 0
1, 20280, Note_on_c, 0, 48, 52
1, 20400, Note_on_c, 0, 48, 0
1, 20400, Note_on_c, 0, 57, 52
1, 20520, Note_on_c, 0, 57, 0
1, 20520, Note_on_c, 0, 41, 45
1, 20640, Tempo, 537586
1, 20640, Note_on_c, 0, 41, 0
1, 20640, Note_on_c, 0, 101, 0
1, 20640, Note_on_c, 0, 60, 59
1, 20880, Tempo, 521241
1, 20880, Note_on_c, 0, 60, 0
1, 20880, Note_on_c, 0, 41, 64
1, 21000, Note_on_c, 0, 41, 0
1, 21000, Note_on_c, 0, 48, 52
1, 21120, Note_on_c, 0, 48, 0
1, 21120, Note_on_c, 0, 57, 52
1, 21240, Note_on_c, 0, 57, 0
1, 21240, Note_on_c, 0, 41, 45
1, 21360, Tempo, 535189
1, 21360, Note_on_c, 0, 41, 0
1, 21360, Note_on_c, 0, 60, 59
1, 21600, Tempo, 587659
1, 21600, Note_on_c, 0, 60, 0
1, 21600, Note_on_c, 0, 71, 64
1, 21600, Note_on_c, 0, 41, 64
1, 21610, Control_c, 0, 64, 32
1, 21640, Tempo, 581959
1, 21646, Control_c, 0, 64, 96
1, 21660, Note_on_c, 0, 71, 0
1, 21660, Note_on_c, 0, 72, 64
1, 21680, Tempo, 573559
1, 21720, Tempo, 565451
1, 21720, Note_on_c, 0, 72, 0
1, 21720, Note_on_c, 0, 41, 0
1, 21720, Note_on_c, 0, 71, 64
1, 21720, Note_on_c, 0, 51, 54
1, 21760, Tempo, 557569
1, 21780, Note_on_c, 0, 71, 0
1, 21780, Note_on_c, 0, 72, 64
1, 21800, Tempo, 549904
1, 21840, Tempo, 542446
1, 21840, Note_on_c, 0, 72, 0
1, 21840, Note_on_c, 0, 51, 0
1, 21840, Note_on_c, 0, 71, 64
1, 21840, Note_on_c, 0, 57, 54
1, 21880, Tempo, 535189
1, 21900, Note_on_c, 0, 71, 0
1, 21900, Note_on_c, 0, 72, 64
1, 21920, Tempo, 528123
1, 21960, Note_on_c, 0, 72, 0
1, 21960, Note_on_c, 0, 57, 0
1, 21960, Note_on_c, 0, 71, 65
1, 21960, Note_on_c, 0, 41, 46
1, 22000, Tempo, 528123
1, 22020, Note_on_c, 0, 71, 0
1, 22020, Note_on_c, 0, 72, 65
1, 22080, Tempo, 525762
1, 22080, Note_on_c, 0, 72, 0
1, 22080, Note_on_c, 0, 41, 0
1, 22080, Note_on_c, 0, 71, 65
1, 22080, Note_on_c, 0, 59, 60
1, 22120, Tempo, 523515
1, 22140, Note_on_c, 0, 71, 0
1, 22140, Note_on_c, 0, 72, 65
1, 22200, Tempo, 521241
1, 22200, Note_on_c, 0, 72, 0
1, 22200, Note_on_c, 0, 69, 65
1, 22240, Tempo, 518941
1, 22260, Note_on_c, 0, 69, 0
1, 22260, Note_on_c, 0, 71, 65
1, 22320, Note_on_c, 0, 71, 0
1, 22320, Note_on_c, 0, 59, 0
1, 22320, Note_on_c, 0, 72, 77
1, 22320, Note_on_c, 0, 41, 64
1, 22332, Control_c, 0, 64, 0
1, 22377, Control_c, 0, 64, 97
1, 22440, Note_on_c, 0, 41, 0
1, 22440, Note_on_c, 0, 47, 53
1, 22560, Note_on_c, 0, 47, 0
1, 22560, Note_on_c, 0, 57, 53
1, 22680, Note_on_c, 0, 57, 0
1, 22680, Note_on_c, 0, 41, 45
1, 22800, Tempo, 525762
1, 22800, Note_on_c, 0, 41, 0
1, 22800, Note_on_c, 0, 72, 0
1, 22800, Note_on_c, 0, 59, 59
1, 22920, Note_on_c, 0, 69, 77
1, 23040, Note_on_c, 0, 69, 0
1, 23040, Note_on_c, 0, 59, 0
1, 23040, Note_on_c, 0, 64, 76
1, 23040, Note_on_c, 0, 40, 64
1, 23047, Control_c, 0, 64, 32
1, 23103, Control_c, 0, 64, 95
1, 23160, Note_on_c, 0, 40, 0
1, 23160, Note_on_c, 0, 48, 52
1, 23280, Tempo, 510161
1, 23280, Note_on_c, 0, 48, 0
1, 23280, Note_on_c, 0, 57, 52
1, 23400, Note_on_c, 0, 57, 0
1, 23400, Note_on_c, 0, 40, 45
1, 23520, Tempo, 518941
1, 23520, Note_on_c, 0, 40, 0
1, 23520, Note_on_c, 0, 64, 0
1, 23520, Note_on_c, 0, 89, 87
1, 23520, Note_on_c, 0, 60, 60
1, 23760, Note_on_c, 0, 60, 0
1, 23760, Note_on_c, 0, 40, 64
1, 23796, Note_on_c, 0, 89, 0
1, 23796, Note_on_c, 0, 88, 74
1, 23853, Note_on_c, 0, 88, 0
1, 23853, Note_on_c, 0, 84, 73
1, 23880, Note_on_c, 0, 40, 0
1, 23880, Note_on_c, 0, 48, 54
1, 23910, Note_on_c, 0, 84, 0
1, 23910, Note_on_c, 0, 81, 72
1, 23967, Note_on_c, 0, 81, 0
1, 23967, Note_on_c, 0, 77, 72
1, 24000, Tempo, 528123
1, 24000, Note_on_c, 0, 48, 0
1, 24000, Note_on_c, 0, 57, 54
1, 24024, Note_on_c, 0, 77, 0
1, 24024, Note_on_c, 0, 76, 72
1, 24040, Tempo, 530457
1, 24080, Tempo, 539957
1, 24081, Note_on_c, 0, 76, 0
1, 24081, Note_on_c, 0, 72, 72
1, 24120, Tempo, 542446
1, 24120, Note_on_c, 0, 57, 0
1, 24120, Note_on_c, 0, 40, 46
1, 24138, Note_on_c, 0, 72, 0
1, 24138, Note_on_c, 0, 69, 71
1, 24160, Tempo, 544910
1, 24195, Note_on_c, 0, 69, 0
1, 24195, Note_on_c, 0, 65, 70
1, 24200, Tempo, 547445
1, 24240, Tempo, 549904
1, 24240, Note_on_c, 0, 40, 0
1, 24240, Note_on_c, 0, 60, 61
1, 24252, Note_on_c, 0, 65, 0
1, 24252, Note_on_c, 0, 64, 70
1, 24280, Tempo, 555042
1, 24309, Note_on_c, 0, 64, 0
1, 24309, Note_on_c, 0, 60, 69
1, 24320, Tempo, 557569
1, 24360, Tempo, 560172
1, 24366, Note_on_c, 0, 60, 0
1, 24366, Note_on_c, 0, 57, 68
1, 24400, Tempo, 562852
1, 24423, Note_on_c, 0, 57, 0
1, 24423, Note_on_c, 0, 53, 68
1, 24440, Tempo, 568128
1, 24480, Tempo, 518941
1, 24480, Note_on_c, 0, 53, 0
1, 24480, Note_on_c, 0, 60, 0
1, 24480, Note_on_c, 0, 52, 85
1, 24480, Note_on_c, 0, 40, 64
1, 24491, Control_c, 0, 64, 32
1, 24514, Control_c, 0, 64, 96
1, 24600, Note_on_c, 0, 40, 0
1, 24600, Note_on_c, 0, 50, 54
1, 24720, Note_on_c, 0, 50, 0
1, 24720, Note_on_c, 0, 56, 54
1, 24840, Note_on_c, 0, 56, 0
1, 24840, Note_on_c, 0, 40, 49
1, 24944, Tempo, 525762
1, 24960, Note_on_c, 0, 40, 0
1, 24960, Note_on_c, 0, 52, 0
1, 24960, Note_on_c, 0, 52, 64
1, 24960, Note_on_c, 0, 59, 60
1, 24984, Tempo, 521241
1, 25056, Note_on_c, 0, 52, 0
1, 25056, Note_on_c, 0, 53, 65
1, 25088, Note_on_c, 0, 53, 0
1, 25088, Note_on_c, 0, 52, 66
1, 25120, Note_on_c, 0, 52, 0
1, 25120, Note_on_c, 0, 51, 67
1, 25152, Note_on_c, 0, 51, 0
1, 25152, Note_on_c, 0, 52, 67
1, 25184, Note_on_c, 0, 52, 0
1, 25184, Note_on_c, 0, 54, 68
1, 25200, Note_on_c, 0, 59, 0
1, 25200, Note_on_c, 0, 40, 64
1, 25216, Note_on_c, 0, 54, 0
1, 25216, Note_on_c, 0, 56, 68
1, 25248, Tempo, 530457
1, 25248, Note_on_c, 0, 56, 0
1, 25248, Note_on_c, 0, 57, 68
1, 25280, Note_on_c, 0, 57, 0
1, 25280, Note_on_c, 0, 59, 69
1, 25296, Tempo, 535189
1, 25312, Note_on_c, 0, 59, 0
1, 25312, Note_on_c, 0, 60, 69
1, 25320, Note_on_c, 0, 40, 0
1, 25320, Note_on_c, 0, 50, 53
1, 25336, Tempo, 539957
1, 25344, Note_on_c, 0, 60, 0
1, 25344, Note_on_c, 0, 62, 70
1, 25376, Note_on_c, 0, 62, 0
1, 25376, Note_on_c, 0, 64, 70
1, 25392, Tempo, 544910
1, 25408, Note_on_c, 0, 64, 0
1, 25408, Note_on_c, 0, 66, 71
1, 25432, Tempo, 549904
1, 25440, Note_on_c, 0, 66, 0
1, 25440, Note_on_c, 0, 50, 0
1, 25440, Note_on_c, 0, 68, 71
1, 25440, Note_on_c, 0, 56, 53
1, 25464, Tempo, 555042
1, 25472, Note_on_c, 0, 68, 0
1, 25472, Note_on_c, 0, 69, 72
1, 25480, Tempo, 560172
1, 25504, Tempo, 565451
1, 25504, Note_on_c, 0, 69, 0
1, 25504, Note_on_c, 0, 71, 72
1, 25520, Tempo, 570885
1, 25536, Note_on_c, 0, 71, 0
1, 25536, Note_on_c, 0, 72, 72
1, 25552, Tempo, 576369
1, 25560, Note_on_c, 0, 56, 0
1, 25560, Note_on_c, 0, 40, 47
1, 25568, Note_on_c, 0, 72, 0
1, 25568, Note_on_c, 0, 74, 72
1, 25584, Tempo, 587659
1, 25600, Note_on_c, 0, 74, 0
1, 25600, Note_on_c, 0, 76, 73
1, 25616, Tempo, 593472
1, 25632, Note_on_c, 0, 76, 0
1, 25632, Note_on_c, 0, 78, 74
1, 25640, Tempo, 599401
1, 25656, Tempo, 605449
1, 25664, Note_on_c, 0, 78, 0
1, 25664, Note_on_c, 0, 80, 74
1, 25680, Note_on_c, 0, 40, 0
1, 25680, Note_on_c, 0, 59, 64
1, 25688, Tempo, 611621
1, 25696, Note_on_c, 0, 80, 0
1, 25696, Note_on_c, 0, 81, 75
1, 25720, Tempo, 624350
1, 25728, Note_on_c, 0, 81, 0
1, 25728, Note_on_c, 0, 83, 75
1, 25744, Tempo, 630981
1, 25760, Note_on_c, 0, 83, 0
1, 25760, Note_on_c, 0, 84, 76
1, 25776, Tempo, 644538
1, 25792, Note_on_c, 0, 84, 0
1, 25792, Note_on_c, 0, 86, 76
1, 25800, Tempo, 651537
1, 25808, Tempo, 658689
1, 25824, Tempo, 666001
1, 25824, Note_on_c, 0, 86, 0
1, 25824, Note_on_c, 0, 88, 77
1, 25840, Tempo, 673552
1, 25848, Tempo, 681122
1, 25856, Note_on_c, 0, 88, 0
1, 25856, Note_on_c, 0, 90, 77
1, 25872, Tempo, 697026
1, 25888, Note_on_c, 0, 90, 0
1, 25888, Note_on_c, 0, 92, 78
1, 25904, Tempo, 705136
1, 25912, Tempo, 713606
1, 25920, Note_on_c, 0, 92, 0
1, 25920, Note_on_c, 0, 59, 0
1, 25920, Note_on_c, 0, 93, 85
1, 25920, Note_on_c, 0, 33, 67
1, 25923, Control_c, 0, 64, 32
1, 25928, Tempo, 521241
1, 26005, Control_c, 0, 64, 95
1, 26040, Note_on_c, 0, 33, 0
1, 26040, Note_on_c, 0, 40, 53
1, 26160, Note_on_c, 0, 40, 0
1, 26160, Note_on_c, 0, 48, 54
1, 26280, Note_on_c, 0, 48, 0
1, 26280, Note_on_c, 0, 33, 47
1, 26400, Note_on_c, 0, 33, 0
1, 26400, Note_on_c, 0, 93, 0
1, 26400, Note_on_c, 0, 52, 59
1, 26640, Note_on_c, 0, 52, 0
1, 26640, Note_on_c, 0, 33, 65
1, 26760, Note_on_c, 0, 33, 0
1, 26760, Note_on_c, 0, 40, 53
1, 26880, Note_on_c, 0, 40, 0
1, 26880, Note_on_c, 0, 48, 53
1, 27000, Note_on_c, 0, 48, 0
1, 27000, Note_on_c, 0, 33, 47
1, 27120, Note_on_c, 0, 33, 0
1, 27120, Note_on_c, 0, 52, 58
1, 27360, Note_on_c, 0, 52, 0
1, 27360, Note_on_c, 0, 33, 64
1, 27480, Note_on_c, 0, 33, 0
1, 27480, Note_on_c, 0, 40, 50
1, 27600, Note_on_c, 0, 40, 0
1, 27600, Note_on_c, 0, 48, 50
1, 27720, Note_on_c, 0, 48, 0
1, 27720, Note_on_c, 0, 33, 45
1, 27840, Note_on_c, 0, 33, 0
1, 27840, Note_on_c, 0, 52, 59
1, 28080, Note_on_c, 0, 52, 0
1, 28080, Note_on_c, 0, 33, 64
1, 28200, Note_on_c, 0, 33, 0
1, 28200, Note_on_c, 0, 40, 48
1, 28320, Note_on_c, 0, 40, 0
1, 28320, Note_on_c, 0, 48, 48
1, 28440, Note_on_c, 0, 48, 0
1, 28440, Note_on_c, 0, 33, 45
1, 28560, Note_on_c, 0, 33, 0
1, 28560, Note_on_c, 0, 52, 58
1, 28800, Tempo, 521241
1, 28800, Note_on_c, 0, 52, 0
1, 28800, Note_on_c, 0, 64, 77
1, 28800, Note_on_c, 0, 33, 55
1, 28920, Note_on_c, 0, 33, 0
1, 28920, Note_on_c, 0, 40, 46
1, 29040, Note_on_c, 0, 40, 0
1, 29040, Note_on_c, 0, 48, 46
1, 29160, Note_on_c, 0, 48, 0
1, 29160, Note_on_c, 0, 33, 40
1, 29280, Tempo, 539957
1, 29280, Note_on_c, 0, 33, 0
1, 29280, Note_on_c, 0, 64, 0
1, 29280, Note_on_c, 0, 60, 70
1, 29280, Note_on_c, 0, 52, 53
1, 29520, Tempo, 528123
1, 29520, Note_on_c, 0, 52, 0
1, 29520, Note_on_c, 0, 60, 0
1, 29520, Note_on_c, 0, 57, 67
1, 29520, Note_on_c, 0, 33, 54
1, 29640, Note_on_c, 0, 33, 0
1, 29640, Note_on_c, 0, 40, 45
1, 29760, Note_on_c, 0, 40, 0
1, 29760, Note_on_c, 0, 48, 46
1, 29880, Note_on_c, 0, 48, 0
1, 29880, Note_on_c, 0, 33, 41
1, 30000, Note_on_c, 0, 33, 0
1, 30000, Note_on_c, 0, 52, 53
1, 30240, Note_on_c, 0, 52, 0
1, 30240, Note_on_c, 0, 33, 55
1, 30360, Note_on_c, 0, 33, 0
1, 30360, Note_on_c, 0, 40, 46
1, 30480, Note_on_c, 0, 40, 0
1, 30480, Note_on_c, 0, 48, 47
1, 30600, Note_on_c, 0, 48, 0
1, 30600, Note_on_c, 0, 33, 41
1, 30720, Note_on_c, 0, 33, 0
1, 30720, Note_on_c, 0, 52, 53
1, 30960, Tempo, 521241
1, 30960, Note_on_c, 0, 52, 0
1, 30960, Note_on_c, 0, 57, 0
1, 30960, Note_on_c, 0, 60, 72
1, 30960, Note_on_c, 0, 33, 54
1, 31080, Note_on_c, 0, 33, 0
1, 31080, Note_on_c, 0, 40, 48
1, 31200, Note_on_c, 0, 40, 0
1, 31200, Note_on_c, 0, 60, 0
1, 31200, Note_on_c, 0, 64, 77
1, 31200, Note_on_c, 0, 48, 48
1, 31320, Note_on_c, 0, 48, 0
1, 31320, Note_on_c, 0, 33, 43
1, 31440, Note_on_c, 0, 33, 0
1, 31440, Note_on_c, 0, 52, 56
1, 31560, Note_on_c, 0, 64, 0
1, 31560, Note_on_c, 0, 69, 78
1, 31680, Tempo, 521241
1, 31680, Note_on_c, 0, 69, 0
1, 31680, Note_on_c, 0, 52, 0
1, 31680, Note_on_c, 0, 67, 77
1, 31680, Note_on_c, 0, 33, 57
1, 31689, Control_c, 0, 64, 0
1, 31736, Control_c, 0, 64, 127
1, 31800, Note_on_c, 0, 33, 0
1, 31800, Note_on_c, 0, 40, 48
1, 31920, Note_on_c, 0, 40, 0
1, 31920, Note_on_c, 0, 48, 48
1, 32040, Note_on_c, 0, 48, 0
1, 32040, Note_on_c, 0, 33, 43
1, 32160, Note_on_c, 0, 33, 0
1, 32160, Note_on_c, 0, 52, 54
1, 32400, Note_on_c, 0, 52, 0
1, 32400, Note_on_c, 0, 33, 56
1, 32520, Note_on_c, 0, 33, 0
1, 32520, Note_on_c, 0, 40, 48
1, 32640, Tempo, 528123
1, 32640, Note_on_c, 0, 40, 0
1, 32640, Note_on_c, 0, 48, 48
1, 32760, Note_on_c, 0, 48, 0
1, 32760, Note_on_c, 0, 33, 44
1, 32880, Note_on_c, 0, 33, 0
1, 32880, Note_on_c, 0, 52, 54
1, 33000, Note_on_c, 0, 67, 0
1, 33000, Note_on_c, 0, 65, 75
1, 33120, Tempo, 521241
1, 33120, Note_on_c, 0, 65, 0
1, 33120, Note_on_c, 0, 52, 0
1, 33120, Note_on_c, 0, 64, 70
1, 33120, Note_on_c, 0, 33, 54
1, 33131, Control_c, 0, 64, 0
1, 33184, Control_c, 0, 64, 127
1, 33240, Note_on_c, 0, 33, 0
1, 33240, Note_on_c, 0, 40, 48
1, 33360, Note_on_c, 0, 40, 0
1, 33360, Note_on_c, 0, 48, 48
1, 33480, Note_on_c, 0, 48, 0
1, 33480, Note_on_c, 0, 33, 43
1, 33600, Note_on_c, 0, 33, 0
1, 33600, Note_on_c, 0, 52, 51
1, 33840, Note_on_c, 0, 52, 0
1, 33840, Note_on_c, 0, 64, 0
1, 33840, Note_on_c, 0, 33, 53
1, 33960, Note_on_c, 0, 33, 0
1, 33960, Note_on_c, 0, 40, 47
1, 34080, Note_on_c, 0, 40, 0
1, 34080, Note_on_c, 0, 48, 47
1, 34200, Note_on_c, 0, 48, 0
1, 34200, Note_on_c, 0, 33, 43
1, 34320, Tempo, 537586
1, 34320, Note_on_c, 0, 33, 0
1, 34320, Note_on_c, 0, 52, 51
1, 34440, Note_on_c, 0, 64, 77
1, 34560, Tempo, 521241
1, 34560, Note_on_c, 0, 64, 0
1, 34560, Note_on_c, 0, 52, 0
1, 34560, Note_on_c, 0, 64, 77
1, 34560, Note_on_c, 0, 33, 57
1, 34567, Control_c, 0, 64, 0
1, 34614, Control_c, 0, 64, 127
1, 34680, Note_on_c, 0, 33, 0
1, 34680, Note_on_c, 0, 40, 48
1, 34800, Note_on_c, 0, 40, 0
1, 34800, Note_on_c, 0, 48, 48
1, 34920, Note_on_c, 0, 48, 0
1, 34920, Note_on_c, 0, 33, 45
1, 35040, Note_on_c, 0, 33, 0
1, 35040, Note_on_c, 0, 64, 0
1, 35040, Note_on_c, 0, 52, 54
1, 35080, Tempo, 1131008
1, 35160, Note_on_c, 0, 60, 63
1, 35196, Note_on_c, 0, 57, 63
1, 35200, Note_on_c, 0, 60, 0
1, 35224, Note_on_c, 0, 57, 0
1, 35224, Note_on_c, 0, 59, 63
1, 35252, Note_on_c, 0, 59, 0
1, 35252, Note_on_c, 0, 60, 63
1, 35280, Tempo, 521241
1, 35280, Note_on_c, 0, 60, 0
1, 35280, Note_on_c, 0, 52, 0
1, 35280, Note_on_c, 0, 59, 72
1, 35280, Note_on_c, 0, 33, 54
1, 35291, Control_c, 0, 64, 0
1, 35400, Note_on_c, 0, 33, 0
1, 35400, Note_on_c, 0, 40, 46
1, 35520, Tempo, 525762
1, 35520, Note_on_c, 0, 40, 0
1, 35520, Note_on_c, 0, 59, 0
1, 35520, Note_on_c, 0, 57, 72
1, 35520, Note_on_c, 0, 48, 45
1, 35533, Control_c, 0, 64, 127
1, 35640, Note_on_c, 0, 48, 0
1, 35640, Note_on_c, 0, 33, 41
1, 35760, Note_on_c, 0, 33, 0
1, 35760, Note_on_c, 0, 57, 0
1, 35760, Note_on_c, 0, 52, 53
1, 36000, Tempo, 521241
1, 36000, Note_on_c, 0, 52, 0
1, 36000, Note_on_c, 0, 33, 55
1, 36120, Note_on_c, 0, 33, 0
1, 36120, Note_on_c, 0, 40, 45
1, 36240, Note_on_c, 0, 40, 0
1, 36240, Note_on_c, 0, 48, 45
1, 36360, Note_on_c, 0, 48, 0
1, 36360, Note_on_c, 0, 33, 39
1, 36480, Note_on_c, 0, 33, 0
1, 36480, Note_on_c, 0, 60, 70
1, 36480, Note_on_c, 0, 52, 53
1, 36720, Tempo, 514492
1, 36720, Note_on_c, 0, 52, 0
1, 36720, Note_on_c, 0, 60, 0
1, 36720, Note_on_c, 0, 64, 72
1, 36720, Note_on_c, 0, 33, 54
1, 36840, Note_on_c, 0, 33, 0
1, 36840, Note_on_c, 0, 40, 47
1, 36960, Note_on_c, 0, 40, 0
1, 36960, Note_on_c, 0, 64, 0
1, 36960, Note_on_c, 0, 69, 76
1, 36960, Note_on_c, 0, 48, 47
1, 37080, Note_on_c, 0, 48, 0
1, 37080, Note_on_c, 0, 33, 42
1, 37200, Note_on_c, 0, 33, 0
1, 37200, Note_on_c, 0, 52, 53
1, 37320, Note_on_c, 0, 69, 0
1, 37320, Note_on_c, 0, 72, 77
1, 37440, Tempo, 521241
1, 37440, Note_on_c, 0, 72, 0
1, 37440, Note_on_c, 0, 52, 0
1, 37440, Note_on_c, 0, 71, 79
1, 37440, Note_on_c, 0, 33, 55
1, 37443, Control_c, 0, 64, 0
1, 37496, Control_c, 0, 64, 127
1, 37560, Note_on_c, 0, 33, 0
1, 37560, Note_on_c, 0, 40, 46
1, 37680, Note_on_c, 0, 40, 0
1, 37680, Note_on_c, 0, 48, 46
1, 37800, Note_on_c, 0, 48, 0
1, 37800, Note_on_c, 0, 33, 43
1, 37920, Tempo, 516751
1, 37920, Note_on_c, 0, 33, 0
1, 37920, Note_on_c, 0, 52, 53
1, 38160, Note_on_c, 0, 52, 0
1, 38160, Note_on_c, 0, 33, 54
1, 38280, Note_on_c, 0, 33, 0
1, 38280, Note_on_c, 0, 40, 48
1, 38400, Note_on_c, 0, 40, 0
1, 38400, Note_on_c, 0, 48, 47
1, 38520, Note_on_c, 0, 48, 0
1, 38520, Note_on_c, 0, 33, 42
1, 38640, Tempo, 521241
1, 38640, Note_on_c, 0, 33, 0
1, 38640, Note_on_c, 0, 52, 53
1, 38760, Note_on_c, 0, 71, 0
1, 38760, Note_on_c, 0, 69, 79
1, 38880, Tempo, 528123
1, 38880, Note_on_c, 0, 69, 0
1, 38880, Note_on_c, 0, 52, 0
1, 38880, Note_on_c, 0, 64, 79
1, 38880, Note_on_c, 0, 33, 55
1, 39000, Note_on_c, 0, 33, 0
1, 39000, Note_on_c, 0, 40, 47
1, 39120, Note_on_c, 0, 40, 0
1, 39120, Note_on_c, 0, 48, 47
1, 39240, Note_on_c, 0, 48, 0
1, 39240, Note_on_c, 0, 64, 0
1, 39240, Note_on_c, 0, 64, 57
1, 39240, Note_on_c, 0, 33, 44
1, 39300, Note_on_c, 0, 64, 0
1, 39300, Note_on_c, 0, 66, 57
1, 39360, Tempo, 611621
1, 39360, Note_on_c, 0, 66, 0
1, 39360, Note_on_c, 0, 33, 0
1, 39360, Note_on_c, 0, 67, 58
1, 39360, Note_on_c, 0, 52, 53
1, 39400, Tempo, 602410
1, 39420, Note_on_c, 0, 67, 0
1, 39420, Note_on_c, 0, 66, 58
1, 39440, Tempo, 590551
1, 39480, Tempo, 579151
1, 39480, Note_on_c, 0, 66, 0
1, 39480, Note_on_c, 0, 67, 59
1, 39520, Tempo, 568128
1, 39540, Note_on_c, 0, 67, 0
1, 39540, Note_on_c, 0, 66, 59
1, 39560, Tempo, 557569
1, 39600, Tempo, 539957
1, 39600, Note_on_c, 0, 66, 0
1, 39600, Note_on_c, 0, 52, 0
1, 39600, Note_on_c, 0, 67, 60
1, 39600, Note_on_c, 0, 33, 54
1, 39613, Control_c, 0, 64, 0
1, 39643, Control_c, 0, 64, 127
1, 39660, Note_on_c, 0, 67, 0
1, 39660, Note_on_c, 0, 66, 60
1, 39680, Tempo, 537586
1, 39720, Tempo, 535189
1, 39720, Note_on_c, 0, 66, 0
1, 39720, Note_on_c, 0, 33, 0
1, 39720, Note_on_c, 0, 67, 61
1, 39720, Note_on_c, 0, 38, 47
1, 39780, Note_on_c, 0, 67, 0
1, 39780, Note_on_c, 0, 66, 61
1, 39800, Tempo, 532765
1, 39840, Tempo, 530457
1, 39840, Note_on_c, 0, 66, 0
1, 39840, Note_on_c, 0, 38, 0
1, 39840, Note_on_c, 0, 67, 62
1, 39840, Note_on_c, 0, 48, 47
1, 39880, Tempo, 528123
1, 39900, Note_on_c, 0, 67, 0
1, 39900, Note_on_c, 0, 66, 62
1, 39960, Tempo, 525762
1, 39960, Note_on_c, 0, 66, 0
1, 39960, Note_on_c, 0, 48, 0
1, 39960, Note_on_c, 0, 67, 63
1, 39960, Note_on_c, 0, 33, 42
1, 40000, Tempo, 523515
1, 40020, Note_on_c, 0, 67, 0
1, 40020, Note_on_c, 0, 66, 63
1, 40040, Tempo, 521241
1, 40080, Note_on_c, 0, 66, 0
1, 40080, Note_on_c, 0, 33, 0
1, 40080, Note_on_c, 0, 67, 63
1, 40080, Note_on_c, 0, 50, 53
1, 40140, Note_on_c, 0, 67, 0
1, 40140, Note_on_c, 0, 66, 63
1, 40200, Tempo, 521241
1, 40200, Note_on_c, 0, 66, 0
1, 40200, Note_on_c, 0, 64, 64
1, 40260, Note_on_c, 0, 64, 0
1, 40260, Note_on_c, 0, 66, 64
1, 40320, Tempo, 521241
1, 40320, Note_on_c, 0, 66, 0
1, 40320, Note_on_c, 0, 50, 0
1, 40320, Note_on_c, 0, 67, 79
1, 40320, Note_on_c, 0, 31, 62
1, 40334, Control_c, 0, 64, 0
1, 40426, Control_c, 0, 64, 97
1, 40440, Note_on_c, 0, 31, 0
1, 40440, Note_on_c, 0, 40, 48
1, 40560, Note_on_c, 0, 40, 0
1, 40560, Note_on_c, 0, 48, 48
1, 40680, Note_on_c, 0, 48, 0
1, 40680, Note_on_c, 0, 31, 42
1, 40800, Note_on_c, 0, 31, 0
1, 40800, Note_on_c, 0, 52, 56
1, 41040, Note_on_c, 0, 52, 0
1, 41040, Note_on_c, 0, 67, 0
1, 41040, Note_on_c, 0, 65, 78
1, 41040, Note_on_c, 0, 31, 60
1, 41160, Note_on_c, 0, 31, 0
1, 41160, Note_on_c, 0, 40, 50
1, 41280, Note_on_c, 0, 40, 0
1, 41280, Note_on_c, 0, 48, 49
1, 41400, Note_on_c, 0, 48, 0
1, 41400, Note_on_c, 0, 31, 44
1, 41520, Note_on_c, 0, 31, 0
1, 41520, Note_on_c, 0, 65, 0
1, 41520, Note_on_c, 0, 64, 77
1, 41520, Note_on_c, 0, 52, 55
1, 41760, Tempo, 593472
1, 41760, Note_on_c, 0, 52, 0
1, 41760, Note_on_c, 0, 64, 0
1, 41760, Note_on_c, 0, 62, 60
1, 41760, Note_on_c, 0, 31, 59
1, 41770, Control_c, 0, 64, 32
1, 41800, Tempo, 587659
1, 41802, Control_c, 0, 64, 96
1, 41820, Note_on_c, 0, 62, 0
1, 41820, Note_on_c, 0, 64, 61
1, 41840, Tempo, 579151
1, 41880, Tempo, 573559
1, 41880, Note_on_c, 0, 64, 0
1, 41880, Note_on_c, 0, 31, 0
1, 41880, Note_on_c, 0, 62, 61
1, 41880, Note_on_c, 0, 38, 48
1, 41920, Tempo, 565451
1, 41940, Note_on_c, 0, 62, 0
1, 41940, Note_on_c, 0, 64, 62
1, 41960, Tempo, 560172
1, 42000, Tempo, 552435
1, 42000, Note_on_c, 0, 64, 0
1, 42000, Note_on_c, 0, 38, 0
1, 42000, Note_on_c, 0, 62, 63
1, 42000, Note_on_c, 0, 48, 48
1, 42040, Tempo, 547445
1, 42060, Note_on_c, 0, 62, 0
1, 42060, Note_on_c, 0, 64, 63
1, 42080, Tempo, 544910
1, 42120, Tempo, 539957
1, 42120, Note_on_c, 0, 64, 0
1, 42120, Note_on_c, 0, 48, 0
1, 42120, Note_on_c, 0, 62, 63
1, 42120, Note_on_c, 0, 31, 44
1, 42160, Tempo, 535189
1, 42180, Note_on_c, 0, 62, 0
1, 42180, Note_on_c, 0, 64, 64
1, 42200, Tempo, 532765
1, 42240, Tempo, 528123
1, 42240, Note_on_c, 0, 64, 0
1, 42240, Note_on_c, 0, 31, 0
1, 42240, Note_on_c, 0, 62, 64
1, 42240, Note_on_c, 0, 50, 53
1, 42280, Tempo, 523515
1, 42300, Note_on_c, 0, 62, 0
1, 42300, Note_on_c, 0, 64, 65
1, 42320, Tempo, 518941
1, 42360, Tempo, 521241
1, 42360, Note_on_c, 0, 64, 0
1, 42360, Note_on_c, 0, 60, 66
1, 42420, Note_on_c, 0, 60, 0
1, 42420, Note_on_c, 0, 62, 67
1, 42480, Tempo, 521241
1, 42480, Note_on_c, 0, 62, 0
1, 42480, Note_on_c, 0, 50, 0
1, 42480, Note_on_c, 0, 64, 78
1, 42480, Note_on_c, 0, 31, 60
1, 42490, Control_c, 0, 64, 0
1, 42519, Control_c, 0, 64, 97
1, 42600, Note_on_c, 0, 31, 0
1, 42600, Note_on_c, 0, 38, 50
1, 42720, Note_on_c, 0, 38, 0
1, 42720, Note_on_c, 0, 48, 50
1, 42840, Note_on_c, 0, 48, 0
1, 42840, Note_on_c, 0, 31, 44
1, 42960, Tempo, 530457
1, 42960, Note_on_c, 0, 31, 0
1, 42960, Note_on_c, 0, 64, 0
1, 42960, Note_on_c, 0, 50, 56
1, 43080, Note_on_c, 0, 60, 78
1, 43200, Note_on_c, 0, 60, 0
1, 43200, Note_on_c, 0, 50, 0
1, 43200, Note_on_c, 0, 55, 72
1, 43200, Note_on_c, 0, 31, 60
1, 43206, Control_c, 0, 64, 32
1, 43285, Control_c, 0, 64, 96
1, 43320, Note_on_c, 0, 31, 0
1, 43320, Note_on_c, 0, 38, 50
1, 43440, Tempo, 523515
1, 43440, Note_on_c, 0, 38, 0
1, 43440, Note_on_c, 0, 48, 49
1, 43560, Note_on_c, 0, 48, 0
1, 43560, Note_on_c, 0, 31, 45
1, 43680, Note_on_c, 0, 31, 0
1, 43680, Note_on_c, 0, 50, 55
1, 43920, Note_on_c, 0, 50, 0
1, 43920, Note_on_c, 0, 31, 60
1, 44040, Note_on_c, 0, 31, 0
1, 44040, Note_on_c, 0, 38, 50
1, 44160, Note_on_c, 0, 38, 0
1, 44160, Note_on_c, 0, 48, 48
1, 44280, Note_on_c, 0, 48, 0
1, 44280, Note_on_c, 0, 31, 44
1, 44400, Note_on_c, 0, 31, 0
1, 44400, Note_on_c, 0, 50, 55
1, 44640, Tempo, 542446
1, 44640, Note_on_c, 0, 50, 0
1, 44640, Note_on_c, 0, 55, 0
1, 44640, Note_on_c, 0, 55, 72
1, 44640, Note_on_c, 0, 31, 61
1, 44647, Control_c, 0, 64, 31
1, 44681, Control_c, 0, 64, 96
1, 44720, Tempo, 539957
1, 44760, Note_on_c, 0, 31, 0
1, 44760, Note_on_c, 0, 41, 51
1, 44784, Note_on_c, 0, 55, 0
1, 44784, Note_on_c, 0, 57, 61
1, 44800, Tempo, 537586
1, 44832, Note_on_c, 0, 57, 0
1, 44832, Note_on_c, 0, 55, 62
1, 44880, Tempo, 535189
1, 44880, Note_on_c, 0, 55, 0
1, 44880, Note_on_c, 0, 41, 0
1, 44880, Note_on_c, 0, 54, 63
1, 44880, Note_on_c, 0, 47, 50
1, 44928, Note_on_c, 0, 54, 0
1, 44928, Note_on_c, 0, 55, 63
1, 44960, Tempo, 532765
1, 44976, Note_on_c, 0, 55, 0
1, 44976, Note_on_c, 0, 57, 63
1, 45000, Note_on_c, 0, 47, 0
1, 45000, Note_on_c, 0, 31, 44
1, 45024, Note_on_c, 0, 57, 0
1, 45024, Note_on_c, 0, 59, 64
1, 45040, Tempo, 530457
1, 45072, Note_on_c, 0, 59, 0
1, 45072, Note_on_c, 0, 60, 64
1, 45120, Tempo, 528123
1, 45120, Note_on_c, 0, 60, 0
1, 45120, Note_on_c, 0, 31, 0
1, 45120, Note_on_c, 0, 62, 65
1, 45120, Note_on_c, 0, 50, 50
1, 45168, Note_on_c, 0, 62, 0
1, 45168, Note_on_c, 0, 64, 66
1, 45200, Tempo, 525762
1, 45216, Note_on_c, 0, 64, 0
1, 45216, Note_on_c, 0, 65, 66
1, 45264, Note_on_c, 0, 65, 0
1, 45264, Note_on_c, 0, 67, 67
1, 45280, Tempo, 523515
1, 45312, Note_on_c, 0, 67, 0
1, 45312, Note_on_c, 0, 69, 68
1, 45360, Tempo, 523515
1, 45360, Note_on_c, 0, 69, 0
1, 45360, Note_on_c, 0, 50, 0
1, 45360, Note_on_c, 0, 71, 69
1, 45360, Note_on_c, 0, 31, 61
1, 45408, Note_on_c, 0, 71, 0
1, 45408, Note_on_c, 0, 72, 69
1, 45456, Note_on_c, 0, 72, 0
1, 45456, Note_on_c, 0, 74, 70
1, 45480, Note_on_c, 0, 31, 0
1, 45480, Note_on_c, 0, 41, 52
1, 45504, Note_on_c, 0, 74, 0
1, 45504, Note_on_c, 0, 76, 71
1, 45552, Note_on_c, 0, 76, 0
1, 45552, Note_on_c, 0, 77, 71
1, 45560, Tempo, 525762
1, 45600, Note_on_c, 0, 77, 0
1, 45600, Note_on_c, 0, 41, 0
1, 45600, Note_on_c, 0, 79, 72
1, 45600, Note_on_c, 0, 47, 51
1, 45648, Note_on_c, 0, 79, 0
1, 45648, Note_on_c, 0, 81, 72
1, 45696, Note_on_c, 0, 81, 0
1, 45696, Note_on_c, 0, 83, 72
1, 45720, Tempo, 528123
1, 45720, Note_on_c, 0, 47, 0
1, 45720, Note_on_c, 0, 31, 45
1, 45744, Note_on_c, 0, 83, 0
1, 45744, Note_on_c, 0, 84, 73
1, 45792, Note_on_c, 0, 84, 0
1, 45792, Note_on_c, 0, 86, 74
1, 45840, Note_on_c, 0, 86, 0
1, 45840, Note_on_c, 0, 31, 0
1, 45840, Note_on_c, 0, 88, 75
1, 45840, Note_on_c, 0, 50, 57
1, 45888, Note_on_c, 0, 88, 0
1, 45888, Note_on_c, 0, 89, 75
1, 45920, Tempo, 530457
1, 45936, Note_on_c, 0, 89, 0
1, 45936, Note_on_c, 0, 91, 76
1, 45984, Note_on_c, 0, 91, 0
1, 45984, Note_on_c, 0, 93, 77
1, 46032, Note_on_c, 0, 93, 0
1, 46032, Note_on_c, 0, 95, 77
1, 46080, Tempo, 521241
1, 46080, Note_on_c, 0, 95, 0
1, 46080, Note_on_c, 0, 50, 0
1, 46080, Note_on_c, 0, 96, 90
1, 46080, Note_on_c, 0, 36, 64
1, 46089, Control_c, 0, 64, 32
1, 46158, Control_c, 0, 64, 95
1, 46200, Note_on_c, 0, 36, 0
1, 46200, Note_on_c, 0, 43, 54
1, 46320, Note_on_c, 0, 43, 0
1, 46320, Note_on_c, 0, 52, 52
1, 46440, Note_on_c, 0, 52, 0
1, 46440, Note_on_c, 0, 36, 47
1, 46560, Tempo, 537586
1, 46560, Note_on_c, 0, 36, 0
1, 46560, Note_on_c, 0, 96, 0
1, 46560, Note_on_c, 0, 55, 59
1, 46800, Tempo, 521241
1, 46800, Note_on_c, 0, 55, 0
1, 46800, Note_on_c, 0, 36, 64
1, 46920, Note_on_c, 0, 36, 0
1, 46920, Note_on_c, 0, 43, 51
1, 47040, Note_on_c, 0, 43, 0
1, 47040, Note_on_c, 0, 52, 51
1, 47160, Note_on_c, 0, 52, 0
1, 47160, Note_on_c, 0, 36, 45
1, 47280, Tempo, 535189
1, 47280, Note_on_c, 0, 36, 0
1, 47280, Note_on_c, 0, 55, 59
1, 47520, Tempo, 587659
1, 47520, Note_on_c, 0, 55, 0
1, 47520, Note_on_c, 0, 66, 64
1, 47520, Note_on_c, 0, 36, 64
1, 47533, Control_c, 0, 64, 32
1, 47560, Tempo, 581959
1, 47580, Note_on_c, 0, 66, 0
1, 47580, Note_on_c, 0, 67, 64
1, 47591, Control_c, 0, 64, 96
1, 47600, Tempo, 573559
1, 47640, Tempo, 565451
1, 47640, Note_on_c, 0, 67, 0
1, 47640, Note_on_c, 0, 36, 0
1, 47640, Note_on_c, 0, 66, 64
1, 47640, Note_on_c, 0, 42, 53
1, 47680, Tempo, 557569
1, 47700, Note_on_c, 0, 66, 0
1, 47700, Note_on_c, 0, 67, 64
1, 47720, Tempo, 549904
1, 47760, Tempo, 542446
1, 47760, Note_on_c, 0, 67, 0
1, 47760, Note_on_c, 0, 42, 0
1, 47760, Note_on_c, 0, 66, 64
1, 47760, Note_on_c, 0, 52, 53
1, 47800, Tempo, 535189
1, 47820, Note_on_c, 0, 66, 0
1, 47820, Note_on_c, 0, 67, 64
1, 47840, Tempo, 528123
1, 47880, Note_on_c, 0, 67, 0
1, 47880, Note_on_c, 0, 52, 0
1, 47880, Note_on_c, 0, 66, 65
1, 47880, Note_on_c, 0, 36, 47
1, 47920, Tempo, 528123
1, 47940, Note_on_c, 0, 66, 0
1, 47940, Note_on_c, 0, 67, 65
1, 48000, Tempo, 525762
1, 48000, Note_on_c, 0, 67, 0
1, 48000, Note_on_c, 0, 36, 0
1, 48000, Note_on_c, 0, 66, 65
1, 48000, Note_on_c, 0, 54, 60
1, 48040, Tempo, 523515
1, 48060, Note_on_c, 0, 66, 0
1, 48060, Note_on_c, 0, 67, 65
1, 48120, Tempo, 521241
1, 48120, Note_on_c, 0, 67, 0
1, 48120, Note_on_c, 0, 64, 65
1, 48160, Tempo, 518941
1, 48180, Note_on_c, 0, 64, 0
1, 48180, Note_on_c, 0, 66, 65
1, 48240, Note_on_c, 0, 66, 0
1, 48240, Note_on_c, 0, 54, 0
1, 48240, Note_on_c, 0, 67, 77
1, 48240, Note_on_c, 0, 36, 64
1, 48360, Note_on_c, 0, 36, 0
1, 48360, Note_on_c, 0, 42, 52
1, 48480, Note_on_c, 0, 42, 0
1, 48480, Note_on_c, 0, 52, 52
1, 48600, Note_on_c, 0, 52, 0
1, 48600, Note_on_c, 0, 36, 45
1, 48720, Tempo, 525762
1, 48720, Note_on_c, 0, 36, 0
1, 48720, Note_on_c, 0, 67, 0
1, 48720, Note_on_c, 0, 54, 59
1, 48840, Note_on_c, 0, 64, 77
1, 48960, Note_on_c, 0, 64, 0
1, 48960, Note_on_c, 0, 54, 0
1, 48960, Note_on_c, 0, 59, 76
1, 48960, Note_on_c, 0, 35, 64
1, 48970, Control_c, 0, 64, 32
1, 49009, Control_c, 0, 64, 95
1, 49080, Note_on_c, 0, 35, 0
1, 49080, Note_on_c, 0, 43, 51
1, 49200, Tempo, 510161
1, 49200, Note_on_c, 0, 43, 0
1, 49200, Note_on_c, 0, 52, 51
1, 49320, Note_on_c, 0, 52, 0
1, 49320, Note_on_c, 0, 35, 45
1, 49440, Tempo, 518941
1, 49440, Note_on_c, 0, 35, 0
1, 49440, Note_on_c, 0, 59, 0
1, 49440, Note_on_c, 0, 84, 87
1, 49440, Note_on_c, 0, 55, 60
1, 49680, Note_on_c, 0, 55, 0
1, 49680, Note_on_c, 0, 35, 64
1, 49728, Note_on_c, 0, 84, 0
1, 49728, Note_on_c, 0, 83, 74
1, 49784, Note_on_c, 0, 83, 0
1, 49784, Note_on_c, 0, 79, 73
1, 49800, Note_on_c, 0, 35, 0
1, 49800, Note_on_c, 0, 43, 54
1, 49840, Note_on_c, 0, 79, 0
1, 49840, Note_on_c, 0, 76, 72
1, 49896, Note_on_c, 0, 76, 0
1, 49896, Note_on_c, 0, 72, 72
1, 49920, Note_on_c, 0, 43, 0
1, 49920, Note_on_c, 0, 52, 54
1, 49952, Note_on_c, 0, 72, 0
1, 49952, Note_on_c, 0, 71, 72
1, 50008, Note_on_c, 0, 71, 0
1, 50008, Note_on_c, 0, 67, 72
1, 50040, Note_on_c, 0, 52, 0
1, 50040, Note_on_c, 0, 35, 46
1, 50064, Note_on_c, 0, 67, 0
1, 50064, Note_on_c, 0, 64, 71
1, 50120, Note_on_c, 0, 64, 0
1, 50120, Note_on_c, 0, 60, 70
1, 50160, Note_on_c, 0, 35, 0
1, 50160, Note_on_c, 0, 55, 61
1, 50176, Note_on_c, 0, 60, 0
1, 50176, Note_on_c, 0, 59, 70
1, 50232, Note_on_c, 0, 59, 0
1, 50232, Note_on_c, 0, 55, 69
1, 50288, Note_on_c, 0, 55, 0
1, 50288, Note_on_c, 0, 52, 68
1, 50344, Note_on_c, 0, 52, 0
1, 50344, Note_on_c, 0, 48, 68
1, 50400, Note_on_c, 0, 48, 0
1, 50400, Note_on_c, 0, 55, 0
1, 50400, Note_on_c, 0, 47, 90
1, 50400, Note_on_c, 0, 35, 64
1, 50410, Control_c, 0, 64, 0
1, 50446, Control_c, 0, 64, 96
1, 50520, Note_on_c, 0, 35, 0
1, 50520, Note_on_c, 0, 45, 54
1, 50640, Note_on_c, 0, 45, 0
1, 50640, Note_on_c, 0, 51, 54
1, 50760, Note_on_c, 0, 51, 0
1, 50760, Note_on_c, 0, 35, 48
1, 50864, Tempo, 525762
1, 50880, Note_on_c, 0, 35, 0
1, 50880, Note_on_c, 0, 54, 59
1, 50904, Tempo, 521241
1, 51120, Note_on_c, 0, 54, 0
1, 51120, Note_on_c, 0, 35, 64
1, 51168, Tempo, 530457
1, 51192, Note_on_c, 0, 47, 0
1, 51192, Note_on_c, 0, 48, 60
1, 51228, Note_on_c, 0, 48, 0
1, 51228, Note_on_c, 0, 51, 62
1, 51240, Note_on_c, 0, 35, 0
1, 51240, Note_on_c, 0, 45, 55
1, 51264, Note_on_c, 0, 51, 0
1, 51264, Note_on_c, 0, 54, 63
1, 51300, Note_on_c, 0, 54, 0
1, 51300, Note_on_c, 0, 57, 63
1, 51336, Note_on_c, 0, 57, 0
1, 51336, Note_on_c, 0, 60, 64
1, 51352, Tempo, 549904
1, 51360, Note_on_c, 0, 45, 0
1, 51360, Note_on_c, 0, 51, 55
1, 51372, Note_on_c, 0, 60, 0
1, 51372, Note_on_c, 0, 63, 65
1, 51380, Tempo, 573559
1, 51400, Tempo, 579151
1, 51408, Note_on_c, 0, 63, 0
1, 51408, Note_on_c, 0, 66, 67
1, 51420, Tempo, 587659
1, 51440, Tempo, 593472
1, 51444, Note_on_c, 0, 66, 0
1, 51444, Note_on_c, 0, 69, 68
1, 51460, Tempo, 602410
1, 51480, Tempo, 608581
1, 51480, Note_on_c, 0, 69, 0
1, 51480, Note_on_c, 0, 51, 0
1, 51480, Note_on_c, 0, 72, 69
1, 51480, Note_on_c, 0, 35, 47
1, 51500, Tempo, 617983
1, 51516, Note_on_c, 0, 72, 0
1, 51516, Note_on_c, 0, 75, 71
1, 51520, Tempo, 624350
1, 51540, Tempo, 634317
1, 51552, Note_on_c, 0, 75, 0
1, 51552, Note_on_c, 0, 78, 72
1, 51560, Tempo, 641094
1, 51580, Tempo, 651537
1, 51588, Note_on_c, 0, 78, 0
1, 51588, Note_on_c, 0, 81, 72
1, 51600, Tempo, 658689
1, 51600, Note_on_c, 0, 35, 0
1, 51600, Note_on_c, 0, 54, 61
1, 51620, Tempo, 669718
1, 51624, Note_on_c, 0, 81, 0
1, 51624, Note_on_c, 0, 84, 73
1, 51640, Tempo, 677354
1, 51660, Tempo, 689022
1, 51660, Note_on_c, 0, 84, 0
1, 51660, Note_on_c, 0, 87, 75
1, 51680, Tempo, 697026
1, 51696, Note_on_c, 0, 87, 0
1, 51696, Note_on_c, 0, 90, 76
1, 51700, Tempo, 709388
1, 51720, Tempo, 717875
1, 51732, Note_on_c, 0, 90, 0
1, 51732, Note_on_c, 0, 93, 77
1, 51740, Tempo, 731083
1, 51760, Tempo, 740010
1, 51768, Note_on_c, 0, 93, 0
1, 51768, Note_on_c, 0, 96, 78
1, 51780, Tempo, 753958
1, 51800, Tempo, 763553
1, 51804, Note_on_c, 0, 96, 0
1, 51804, Note_on_c, 0, 99, 79
1, 51820, Tempo, 778412
1, 51824, Tempo, 705136
1, 51832, Tempo, 713606
1, 51840, Note_on_c, 0, 99, 0
1, 51840, Note_on_c, 0, 54, 0
1, 51840, Note_on_c, 0, 100, 90
1, 51840, Note_on_c, 0, 40, 64
1, 51848, Tempo, 521241
1, 51851, Control_c, 0, 64, 32
1, 51943, Control_c, 0, 64, 95
1, 51960, Note_on_c, 0, 40, 0
1, 51960, Note_on_c, 0, 47, 54
1, 52080, Note_on_c, 0, 47, 0
1, 52080, Note_on_c, 0, 55, 54
1, 52200, Note_on_c, 0, 55, 0
1, 52200, Note_on_c, 0, 40, 48
1, 52320, Tempo, 537586
1, 52320, Note_on_c, 0, 40, 0
1, 52320, Note_on_c, 0, 100, 0
1, 52320, Note_on_c, 0, 59, 60
1, 52560, Tempo, 521241
1, 52560, Note_on_c, 0, 59, 0
1, 52560, Note_on_c, 0, 67, 79
1, 52560, Note_on_c, 0, 40, 62
1, 52680, Note_on_c, 0, 40, 0
1, 52680, Note_on_c, 0, 47, 52
1, 52800, Note_on_c, 0, 47, 0
1, 52800, Note_on_c, 0, 55, 52
1, 52920, Note_on_c, 0, 55, 0
1, 52920, Note_on_c, 0, 40, 45
1, 53040, Note_on_c, 0, 40, 0
1, 53040, Note_on_c, 0, 59, 56
1, 53280, Note_on_c, 0, 59, 0
1, 53280, Note_on_c, 0, 39, 61
1, 53283, Control_c, 0, 64, 31
1, 53326, Control_c, 0, 64, 96
1, 53400, Note_on_c, 0, 39, 0
1, 53400, Note_on_c, 0, 47, 51
1, 53520, Note_on_c, 0, 47, 0
1, 53520, Note_on_c, 0, 55, 51
1, 53640, Note_on_c, 0, 55, 0
1, 53640, Note_on_c, 0, 39, 45
1, 53760, Tempo, 537586
1, 53760, Note_on_c, 0, 39, 0
1, 53760, Note_on_c, 0, 67, 0
1, 53760, Note_on_c, 0, 67, 78
1, 53760, Note_on_c, 0, 59, 57
1, 53920, Note_on_c, 0, 67, 0
1, 53920, Note_on_c, 0, 67, 72
1, 53960, Note_on_c, 0, 67, 0
1, 53960, Note_on_c, 0, 70, 72
1, 54000, Tempo, 521241
1, 54000, Note_on_c, 0, 70, 0
1, 54000, Note_on_c, 0, 59, 0
1, 54000, Note_on_c, 0, 68, 80
1, 54000, Note_on_c, 0, 38, 61
1, 54012, Control_c, 0, 64, 31
1, 54071, Control_c, 0, 64, 96
1, 54120, Note_on_c, 0, 38, 0
1, 54120, Note_on_c, 0, 47, 52
1, 54240, Note_on_c, 0, 47, 0
1, 54240, Note_on_c, 0, 53, 52
1, 54360, Note_on_c, 0, 53, 0
1, 54360, Note_on_c, 0, 38, 45
1, 54480, Tempo, 530457
1, 54480, Note_on_c, 0, 38, 0
1, 54480, Note_on_c, 0, 68, 0
1, 54480, Note_on_c, 0, 55, 57
1, 54600, Note_on_c, 0, 67, 78
1, 54720, Note_on_c, 0, 67, 0
1, 54720, Note_on_c, 0, 55, 0
1, 54720, Note_on_c, 0, 67, 77
1, 54720, Note_on_c, 0, 36, 64
1, 54728, Control_c, 0, 64, 31
1, 54823, Control_c, 0, 64, 96
1, 54840, Note_on_c, 0, 36, 0
1, 54840, Note_on_c, 0, 43, 52
1, 54960, Note_on_c, 0, 43, 0
1, 54960, Note_on_c, 0, 51, 52
1, 55080, Note_on_c, 0, 51, 0
1, 55080, Note_on_c, 0, 36, 45
1, 55200, Note_on_c, 0, 36, 0
1, 55200, Note_on_c, 0, 67, 0
1, 55200, Note_on_c, 0, 63, 80
1, 55200, Note_on_c, 0, 55, 57
1, 55440, Tempo, 530457
1, 55440, Note_on_c, 0, 55, 0
1, 55440, Note_on_c, 0, 63, 0
1, 55440, Note_on_c, 0, 60, 78
1, 55440, Note_on_c, 0, 36, 63
1, 55560, Tempo, 528123
1, 55560, Note_on_c, 0, 36, 0
1, 55560, Note_on_c, 0, 43, 53
1, 55680, Tempo, 525762
1, 55680, Note_on_c, 0, 43, 0
1, 55680, Note_on_c, 0, 51, 53
1, 55800, Tempo, 523515
1, 55800, Note_on_c, 0, 51, 0
1, 55800, Note_on_c, 0, 36, 45
1, 55920, Tempo, 521241
1, 55920, Note_on_c, 0, 36, 0
1, 55920, Note_on_c, 0, 55, 61
1, 56000, Tempo, 518941
1, 56160, Tempo, 521241
1, 56160, Note_on_c, 0, 55, 0
1, 56160, Note_on_c, 0, 36, 61
1, 56280, Note_on_c, 0, 36, 0
1, 56280, Note_on_c, 0, 43, 52
1, 56400, Note_on_c, 0, 43, 0
1, 56400, Note_on_c, 0, 51, 52
1, 56520, Note_on_c, 0, 51, 0
1, 56520, Note_on_c, 0, 36, 45
1, 56640, Tempo, 537586
1, 56640, Note_on_c, 0, 36, 0
1, 56640, Note_on_c, 0, 55, 57
1, 56880, Tempo, 521241
1, 56880, Note_on_c, 0, 55, 0
1, 56880, Note_on_c, 0, 60, 0
1, 56880, Note_on_c, 0, 63, 76
1, 56880, Note_on_c, 0, 36, 60
1, 57000, Note_on_c, 0, 36, 0
1, 57000, Note_on_c, 0, 43, 52
1, 57120, Tempo, 532765
1, 57120, Note_on_c, 0, 43, 0
1, 57120, Note_on_c, 0, 63, 0
1, 57120, Note_on_c, 0, 67, 78
1, 57120, Note_on_c, 0, 51, 52
1, 57240, Note_on_c, 0, 51, 0
1, 57240, Note_on_c, 0, 36, 44
1, 57360, Tempo, 562852
1, 57360, Note_on_c, 0, 36, 0
1, 57360, Note_on_c, 0, 55, 55
1, 57480, Note_on_c, 0, 67, 0
1, 57480, Note_on_c, 0, 72, 81
1, 57600, Tempo, 537586
1, 57600, Note_on_c, 0, 72, 0
1, 57600, Note_on_c, 0, 55, 0
1, 57600, Note_on_c, 0, 70, 81
1, 57600, Note_on_c, 0, 36, 63
1, 57608, Control_c, 0, 64, 31
1, 57669, Control_c, 0, 64, 96
1, 57720, Note_on_c, 0, 36, 0
1, 57720, Note_on_c, 0, 44, 49
1, 57840, Note_on_c, 0, 44, 0
1, 57840, Note_on_c, 0, 51, 49
1, 57960, Note_on_c, 0, 51, 0
1, 57960, Note_on_c, 0, 36, 44
1, 58080, Note_on_c, 0, 36, 0
1, 58080, Note_on_c, 0, 70, 0
1, 58080, Note_on_c, 0, 68, 79
1, 58080, Note_on_c, 0, 56, 58
1, 58320, Note_on_c, 0, 56, 0
1, 58320, Note_on_c, 0, 68, 0
1, 58320, Note_on_c, 0, 63, 79
1, 58320, Note_on_c, 0, 36, 62
1, 58440, Note_on_c, 0, 36, 0
1, 58440, Note_on_c, 0, 44, 53
1, 58560, Note_on_c, 0, 44, 0
1, 58560, Note_on_c, 0, 51, 51
1, 58680, Note_on_c, 0, 51, 0
1, 58680, Note_on_c, 0, 36, 45
1, 58800, Note_on_c, 0, 36, 0
1, 58800, Note_on_c, 0, 56, 57
1, 59040, Note_on_c, 0, 56, 0
1, 59040, Note_on_c, 0, 36, 63
1, 59160, Note_on_c, 0, 36, 0
1, 59160, Note_on_c, 0, 44, 51
1, 59280, Note_on_c, 0, 44, 0
1, 59280, Note_on_c, 0, 68, 81
1, 59280, Note_on_c, 0, 54, 51
1, 59316, Note_on_c, 0, 63, 0
1, 59400, Note_on_c, 0, 54, 0
1, 59400, Note_on_c, 0, 36, 45
1, 59520, Note_on_c, 0, 36, 0
1, 59520, Note_on_c, 0, 56, 58
1, 59640, Note_on_c, 0, 68, 0
1, 59640, Note_on_c, 0, 68, 78
1, 59760, Tempo, 525762
1, 59760, Note_on_c, 0, 68, 0
1, 59760, Note_on_c, 0, 56, 0
1, 59760, Note_on_c, 0, 68, 74
1, 59760, Note_on_c, 0, 36, 64
1, 59856, Tempo, 530457
1, 59880, Tempo, 535189
1, 59880, Note_on_c, 0, 36, 0
1, 59880, Note_on_c, 0, 65, 76
1, 59880, Note_on_c, 0, 44, 52
1, 59968, Tempo, 539957
1, 59992, Tempo, 544910
1, 60000, Note_on_c, 0, 44, 0
1, 60000, Note_on_c, 0, 65, 0
1, 60000, Note_on_c, 0, 66, 78
1, 60000, Note_on_c, 0, 54, 52
1, 60032, Tempo, 549904
1, 60080, Tempo, 555042
1, 60096, Tempo, 560172
1, 60120, Note_on_c, 0, 54, 0
1, 60120, Note_on_c, 0, 66, 0
1, 60120, Note_on_c, 0, 63, 80
1, 60120, Note_on_c, 0, 36, 45
1, 60136, Tempo, 565451
1, 60168, Tempo, 570885
1, 60184, Tempo, 576369
1, 60208, Tempo, 587659
1, 60232, Tempo, 593472
1, 60240, Note_on_c, 0, 36, 0
1, 60240, Note_on_c, 0, 63, 0
1, 60240, Note_on_c, 0, 66, 81
1, 60240, Note_on_c, 0, 56, 58
1, 60256, Tempo, 605449
1, 60272, Tempo, 617983
1, 60288, Tempo, 624350
1, 60304, Tempo, 630981
1, 60312, Tempo, 637687
1, 60344, Tempo, 644538
1, 60360, Tempo, 651537
1, 60360, Note_on_c, 0, 66, 0
1, 60360, Note_on_c, 0, 56, 82
1, 60368, Tempo, 658689
1, 60384, Tempo, 666001
1, 60400, Tempo, 673552
1, 60408, Tempo, 681122
1, 60424, Tempo, 689022
1, 60440, Tempo, 705136
1, 60456, Tempo, 713606
1, 60464, Tempo, 722195
1, 60472, Tempo, 740010
1, 60480, Tempo, 521241
1, 60480, Note_on_c, 0, 56, 0
1, 60480, Note_on_c, 0, 56, 0
1, 60480, Note_on_c, 0, 68, 0
1, 60480, Note_on_c, 0, 68, 84
1, 60480, Control_c, 0, 64, 32
1, 60480, Note_on_c, 0, 37, 64
1, 60531, Control_c, 0, 64, 95
1, 60600, Note_on_c, 0, 37, 0
1, 60600, Note_on_c, 0, 44, 51
1, 60720, Note_on_c, 0, 44, 0
1, 60720, Note_on_c, 0, 53, 52
1, 60840, Note_on_c, 0, 53, 0
1, 60840, Note_on_c, 0, 37, 45
1, 60960, Tempo, 535189
1, 60960, Note_on_c, 0, 37, 0
1, 60960, Note_on_c, 0, 68, 0
1, 60960, Note_on_c, 0, 65, 82
1, 60960, Note_on_c, 0, 56, 57
1, 61200, Tempo, 521241
1, 61200, Note_on_c, 0, 56, 0
1, 61200, Note_on_c, 0, 65, 0
1, 61200, Note_on_c, 0, 61, 82
1, 61200, Note_on_c, 0, 37, 64
1, 61320, Note_on_c, 0, 37, 0
1, 61320, Note_on_c, 0, 44, 53
1, 61440, Note_on_c, 0, 44, 0
1, 61440, Note_on_c, 0, 53, 52
1, 61560, Note_on_c, 0, 53, 0
1, 61560, Note_on_c, 0, 37, 46
1, 61680, Note_on_c, 0, 37, 0
1, 61680, Note_on_c, 0, 56, 58
1, 61920, Note_on_c, 0, 56, 0
1, 61920, Note_on_c, 0, 37, 63
1, 62040, Note_on_c, 0, 37, 0
1, 62040, Note_on_c, 0, 44, 53
1, 62160, Note_on_c, 0, 44, 0
1, 62160, Note_on_c, 0, 53, 53
1, 62280, Note_on_c, 0, 53, 0
1, 62280, Note_on_c, 0, 37, 46
1, 62400, Note_on_c, 0, 37, 0
1, 62400, Note_on_c, 0, 61, 0
1, 62400, Note_on_c, 0, 65, 77
1, 62400, Note_on_c, 0, 56, 59
1, 62640, Note_on_c, 0, 56, 0
1, 62640, Note_on_c, 0, 65, 0
1, 62640, Note_on_c, 0, 68, 79
1, 62640, Note_on_c, 0, 37, 64
1, 62760, Note_on_c, 0, 37, 0
1, 62760, Note_on_c, 0, 44, 53
1, 62880, Note_on_c, 0, 44, 0
1, 62880, Note_on_c, 0, 68, 0
1, 62880, Note_on_c, 0, 73, 81
1, 62880, Note_on_c, 0, 53, 53
1, 63000, Note_on_c, 0, 53, 0
1, 63000, Note_on_c, 0, 37, 45
1, 63120, Tempo, 539957
1, 63120, Note_on_c, 0, 37, 0
1, 63120, Note_on_c, 0, 56, 58
1, 63240, Note_on_c, 0, 73, 0
1, 63240, Note_on_c, 0, 77, 82
1, 63360, Tempo, 521241
1, 63360, Note_on_c, 0, 77, 0
1, 63360, Note_on_c, 0, 56, 0
1, 63360, Note_on_c, 0, 75, 79
1, 63360, Note_on_c, 0, 37, 62
1, 63480, Note_on_c, 0, 37, 0
1, 63480, Note_on_c, 0, 44, 52
1, 63600, Note_on_c, 0, 44, 0
1, 63600, Note_on_c, 0, 53, 52
1, 63720, Note_on_c, 0, 53, 0
1, 63720, Note_on_c, 0, 37, 45
1, 63840, Tempo, 530457
1, 63840, Note_on_c, 0, 37, 0
1, 63840, Note_on_c, 0, 75, 0
1, 63840, Note_on_c, 0, 73, 77
1, 63840, Note_on_c, 0, 56, 59
1, 64080, Note_on_c, 0, 56, 0
1, 64080, Note_on_c, 0, 73, 0
1, 64080, Note_on_c, 0, 68, 72
1, 64080, Note_on_c, 0, 37, 56
1, 64200, Note_on_c, 0, 37, 0
1, 64200, Note_on_c, 0, 44, 49
1, 64320, Note_on_c, 0, 44, 0
1, 64320, Note_on_c, 0, 53, 46
1, 64440, Note_on_c, 0, 53, 0
1, 64440, Note_on_c, 0, 37, 43
1, 64560, Note_on_c, 0, 37, 0
1, 64560, Note_on_c, 0, 56, 50
1, 64800, Note_on_c, 0, 56, 0
1, 64800, Note_on_c, 0, 68, 0
1, 64800, Note_on_c, 0, 37, 50
1, 64920, Note_on_c, 0, 37, 0
1, 64920, Note_on_c, 0, 44, 34
1, 65040, Note_on_c, 0, 44, 0
1, 65040, Note_on_c, 0, 53, 35
1, 65160, Note_on_c, 0, 53, 0
1, 65160, Note_on_c, 0, 37, 29
1, 65280, Tempo, 544910
1, 65280, Note_on_c, 0, 37, 0
1, 65280, Note_on_c, 0, 65, 54
1, 65280, Note_on_c, 0, 56, 42
1, 65520, Tempo, 560172
1, 65520, Note_on_c, 0, 56, 0
1, 65520, Note_on_c, 0, 65, 0
1, 65520, Note_on_c, 0, 68, 56
1, 65520, Note_on_c, 0, 37, 48
1, 65640, Note_on_c, 0, 37, 0
1, 65640, Note_on_c, 0, 44, 34
1, 65760, Note_on_c, 0, 44, 0
1, 65760, Note_on_c, 0, 68, 0
1, 65760, Note_on_c, 0, 73, 58
1, 65760, Note_on_c, 0, 53, 34
1, 65880, Note_on_c, 0, 53, 0
1, 65880, Note_on_c, 0, 37, 27
1, 66000, Note_on_c, 0, 37, 0
1, 66000, Note_on_c, 0, 56, 42
1, 66120, Note_on_c, 0, 73, 0
1, 66120, Note_on_c, 0, 77, 61
1, 66240, Note_on_c, 0, 77, 0
1, 66240, Note_on_c, 0, 56, 0
1, 66240, Note_on_c, 0, 75, 60
1, 66240, Note_on_c, 0, 37, 43
1, 66245, Control_c, 0, 64, 31
1, 66343, Control_c, 0, 64, 96
1, 66360, Note_on_c, 0, 37, 0
1, 66360, Note_on_c, 0, 45, 32
1, 66480, Note_on_c, 0, 45, 0
1, 66480, Note_on_c, 0, 53, 32
1, 66600, Note_on_c, 0, 53, 0
1, 66600, Note_on_c, 0, 37, 27
1, 66720, Note_on_c, 0, 37, 0
1, 66720, Note_on_c, 0, 75, 0
1, 66720, Note_on_c, 0, 73, 59
1, 66720, Note_on_c, 0, 57, 42
1, 66960, Tempo, 530457
1, 66960, Note_on_c, 0, 57, 0
1, 66960, Note_on_c, 0, 73, 0
1, 66960, Note_on_c, 0, 69, 52
1, 66960, Note_on_c, 0, 37, 44
1, 67080, Note_on_c, 0, 37, 0
1, 67080, Note_on_c, 0, 45, 32
1, 67200, Note_on_c, 0, 45, 0
1, 67200, Note_on_c, 0, 53, 32
1, 67320, Note_on_c, 0, 53, 0
1, 67320, Note_on_c, 0, 37, 27
1, 67440, Note_on_c, 0, 37, 0
1, 67440, Note_on_c, 0, 57, 41
1, 67680, Tempo, 521241
1, 67680, Note_on_c, 0, 57, 0
1, 67680, Note_on_c, 0, 37, 46
1, 67800, Note_on_c, 0, 37, 0
1, 67800, Note_on_c, 0, 45, 33
1, 67920, Note_on_c, 0, 45, 0
1, 67920, Note_on_c, 0, 69, 0
1, 67920, Note_on_c, 0, 69, 60
1, 67920, Note_on_c, 0, 53, 33
1, 68040, Note_on_c, 0, 53, 0
1, 68040, Note_on_c, 0, 37, 27
1, 68160, Tempo, 528123
1, 68160, Note_on_c, 0, 37, 0
1, 68160, Note_on_c, 0, 69, 0
1, 68160, Note_on_c, 0, 69, 58
1, 68160, Note_on_c, 0, 57, 41
1, 68400, Note_on_c, 0, 57, 0
1, 68400, Note_on_c, 0, 69, 0
1, 68400, Note_on_c, 0, 69, 62
1, 68400, Note_on_c, 0, 37, 45
1, 68520, Note_on_c, 0, 37, 0
1, 68520, Note_on_c, 0, 45, 33
1, 68640, Note_on_c, 0, 45, 0
1, 68640, Note_on_c, 0, 69, 0
1, 68640, Note_on_c, 0, 65, 55
1, 68640, Note_on_c, 0, 53, 33
1, 68760, Note_on_c, 0, 53, 0
1, 68760, Note_on_c, 0, 37, 28
1, 68880, Tempo, 532765
1, 68880, Note_on_c, 0, 37, 0
1, 68880, Note_on_c, 0, 65, 0
1, 68880, Note_on_c, 0, 57, 41
1, 69000, Note_on_c, 0, 67, 62
1, 69120, Note_on_c, 0, 67, 0
1, 69120, Note_on_c, 0, 57, 0
1, 69120, Note_on_c, 0, 69, 62
1, 69120, Note_on_c, 0, 37, 45
1, 69128, Control_c, 0, 64, 0
1, 69189, Control_c, 0, 64, 96
1, 69240, Note_on_c, 0, 37, 0
1, 69240, Note_on_c, 0, 45, 33
1, 69360, Note_on_c, 0, 45, 0
1, 69360, Note_on_c, 0, 53, 33
1, 69480, Note_on_c, 0, 53, 0
1, 69480, Note_on_c, 0, 37, 27
1, 69600, Note_on_c, 0, 37, 0
1, 69600, Note_on_c, 0, 57, 41
1, 69840, Note_on_c, 0, 57, 0
1, 69840, Note_on_c, 0, 37, 46
1, 69960, Note_on_c, 0, 37, 0
1, 69960, Note_on_c, 0, 45, 34
1, 70080, Note_on_c, 0, 45, 0
1, 70080, Note_on_c, 0, 53, 33
1, 70200, Note_on_c, 0, 53, 0
1, 70200, Note_on_c, 0, 37, 27
1, 70320, Note_on_c, 0, 37, 0
1, 70320, Note_on_c, 0, 57, 41
1, 70560, Note_on_c, 0, 57, 0
1, 70560, Note_on_c, 0, 37, 45
1, 70680, Note_on_c, 0, 37, 0
1, 70680, Note_on_c, 0, 45, 33
1, 70800, Tempo, 528123
1, 70800, Note_on_c, 0, 45, 0
1, 70800, Note_on_c, 0, 69, 0
1, 70800, Note_on_c, 0, 69, 62
1, 70800, Note_on_c, 0, 81, 62
1, 70800, Note_on_c, 0, 53, 33
1, 70920, Note_on_c, 0, 53, 0
1, 70920, Note_on_c, 0, 37, 25
1, 71040, Note_on_c, 0, 37, 0
1, 71040, Note_on_c, 0, 81, 0
1, 71040, Note_on_c, 0, 69, 0
1, 71040, Note_on_c, 0, 81, 64
1, 71040, Note_on_c, 0, 69, 64
1, 71040, Note_on_c, 0, 57, 40
1, 71280, Note_on_c, 0, 57, 0
1, 71280, Note_on_c, 0, 69, 0
1, 71280, Note_on_c, 0, 81, 0
1, 71280, Note_on_c, 0, 69, 67
1, 71280, Note_on_c, 0, 81, 67
1, 71280, Note_on_c, 0, 37, 45
1, 71400, Note_on_c, 0, 37, 0
1, 71400, Note_on_c, 0, 45, 35
1, 71460, Note_on_c, 0, 81, 0
1, 71460, Note_on_c, 0, 69, 0
1, 71460, Note_on_c, 0, 84, 60
1, 71460, Note_on_c, 0, 72, 60
1, 71520, Note_on_c, 0, 72, 0
1, 71520, Note_on_c, 0, 84, 0
1, 71520, Note_on_c, 0, 45, 0
1, 71520, Note_on_c, 0, 82, 66
1, 71520, Note_on_c, 0, 70, 66
1, 71520, Note_on_c, 0, 53, 33
1, 71640, Note_on_c, 0, 53, 0
1, 71640, Note_on_c, 0, 37, 26
1, 71760, Tempo, 584795
1, 71760, Note_on_c, 0, 37, 0
1, 71760, Note_on_c, 0, 57, 39
1, 71880, Note_on_c, 0, 70, 0
1, 71880, Note_on_c, 0, 82, 0
1, 71880, Note_on_c, 0, 69, 72
1, 71880, Note_on_c, 0, 81, 72
1, 72000, Tempo, 530457
1, 72000, Note_on_c, 0, 81, 0
1, 72000, Note_on_c, 0, 69, 0
1, 72000, Note_on_c, 0, 57, 0
1, 72000, Note_on_c, 0, 69, 68
1, 72000, Note_on_c, 0, 81, 68
1, 72000, Note_on_c, 0, 38, 61
1, 72011, Control_c, 0, 64, 31
1, 72120, Note_on_c, 0, 38, 0
1, 72120, Note_on_c, 0, 45, 45
1, 72169, Control_c, 0, 64, 96
1, 72240, Note_on_c, 0, 45, 0
1, 72240, Note_on_c, 0, 53, 45
1, 72360, Note_on_c, 0, 53, 0
1, 72360, Note_on_c, 0, 38, 40
1, 72480, Note_on_c, 0, 38, 0
1, 72480, Note_on_c, 0, 81, 0
1, 72480, Note_on_c, 0, 69, 0
1, 72480, Note_on_c, 0, 65, 66
1, 72480, Note_on_c, 0, 77, 66
1, 72480, Note_on_c, 0, 57, 56
1, 72720, Note_on_c, 0, 57, 0
1, 72720, Note_on_c, 0, 77, 0
1, 72720, Note_on_c, 0, 65, 0
1, 72720, Note_on_c, 0, 74, 66
1, 72720, Note_on_c, 0, 62, 66
1, 72720, Note_on_c, 0, 38, 56
1, 72840, Note_on_c, 0, 38, 0
1, 72840, Note_on_c, 0, 45, 45
1, 72960, Note_on_c, 0, 45, 0
1, 72960, Note_on_c, 0, 53, 45
1, 73080, Note_on_c, 0, 53, 0
1, 73080, Note_on_c, 0, 38, 39
1, 73200, Note_on_c, 0, 38, 0
1, 73200, Note_on_c, 0, 57, 55
1, 73440, Note_on_c, 0, 57, 0
1, 73440, Note_on_c, 0, 38, 64
1, 73560, Note_on_c, 0, 38, 0
1, 73560, Note_on_c, 0, 45, 45
1, 73680, Tempo, 525762
1, 73680, Note_on_c, 0, 45, 0
1, 73680, Note_on_c, 0, 53, 45
1, 73800, Note_on_c, 0, 53, 0
1, 73800, Note_on_c, 0, 38, 39
1, 73880, Note_on_c, 0, 74, 0
1, 73900, Note_on_c, 0, 62, 0
1, 73920, Note_on_c, 0, 38, 0
1, 73920, Note_on_c, 0, 65, 70
1, 73920, Note_on_c, 0, 77, 70
1, 73920, Note_on_c, 0, 57, 57
1, 74160, Note_on_c, 0, 57, 0
1, 74160, Note_on_c, 0, 77, 0
1, 74160, Note_on_c, 0, 65, 0
1, 74160, Note_on_c, 0, 81, 72
1, 74160, Note_on_c, 0, 69, 72
1, 74160, Note_on_c, 0, 38, 59
1, 74280, Note_on_c, 0, 38, 0
1, 74280, Note_on_c, 0, 45, 49
1, 74400, Note_on_c, 0, 45, 0
1, 74400, Note_on_c, 0, 69, 0
1, 74400, Note_on_c, 0, 81, 0
1, 74400, Note_on_c, 0, 86, 75
1, 74400, Note_on_c, 0, 74, 75
1, 74400, Note_on_c, 0, 53, 47
1, 74520, Note_on_c, 0, 53, 0
1, 74520, Note_on_c, 0, 38, 42
1, 74640, Tempo, 549904
1, 74640, Note_on_c, 0, 38, 0
1, 74640, Note_on_c, 0, 57, 60
1, 74760, Note_on_c, 0, 74, 0
1, 74760, Note_on_c, 0, 86, 0
1, 74760, Note_on_c, 0, 89, 79
1, 74760, Note_on_c, 0, 77, 79
1, 74880, Tempo, 525762
1, 74880, Note_on_c, 0, 77, 0
1, 74880, Note_on_c, 0, 89, 0
1, 74880, Note_on_c, 0, 57, 0
1, 74880, Note_on_c, 0, 88, 81
1, 74880, Note_on_c, 0, 76, 81
1, 74880, Note_on_c, 0, 34, 64
1, 74896, Control_c, 0, 64, 32
1, 75000, Note_on_c, 0, 34, 0
1, 75000, Note_on_c, 0, 43, 51
1, 75007, Control_c, 0, 64, 96
1, 75120, Note_on_c, 0, 43, 0
1, 75120, Note_on_c, 0, 50, 51
1, 75240, Note_on_c, 0, 50, 0
1, 75240, Note_on_c, 0, 34, 43
1, 75360, Tempo, 539957
1, 75360, Note_on_c, 0, 34, 0
1, 75360, Note_on_c, 0, 76, 0
1, 75360, Note_on_c, 0, 88, 0
1, 75360, Note_on_c, 0, 86, 76
1, 75360, Note_on_c, 0, 74, 76
1, 75360, Note_on_c, 0, 52, 63
1, 75600, Tempo, 523515
1, 75600, Note_on_c, 0, 52, 0
1, 75600, Note_on_c, 0, 74, 0
1, 75600, Note_on_c, 0, 86, 0
1, 75600, Note_on_c, 0, 67, 80
1, 75600, Note_on_c, 0, 79, 80
1, 75600, Note_on_c, 0, 34, 64
1, 75720, Note_on_c, 0, 34, 0
1, 75720, Note_on_c, 0, 43, 52
1, 75840, Note_on_c, 0, 43, 0
1, 75840, Note_on_c, 0, 79, 0
1, 75840, Note_on_c, 0, 67, 0
1, 75840, Note_on_c, 0, 86, 83
1, 75840, Note_on_c, 0, 74, 83
1, 75840, Note_on_c, 0, 50, 52
1, 75960, Note_on_c, 0, 50, 0
1, 75960, Note_on_c, 0, 34, 45
1, 76080, Note_on_c, 0, 34, 0
1, 76080, Note_on_c, 0, 52, 63
1, 76200, Note_on_c, 0, 74, 0
1, 76200, Note_on_c, 0, 86, 0
1, 76200, Note_on_c, 0, 89, 84
1, 76200, Note_on_c, 0, 77, 84
1, 76320, Note_on_c, 0, 77, 0
1, 76320, Note_on_c, 0, 89, 0
1, 76320, Note_on_c, 0, 52, 0
1, 76320, Note_on_c, 0, 76, 84
1, 76320, Note_on_c, 0, 88, 84
1, 76320, Note_on_c, 0, 34, 72
1, 76326, Control_c, 0, 64, 31
1, 76389, Control_c, 0, 64, 95
1, 76440, Note_on_c, 0, 34, 0
1, 76440, Note_on_c, 0, 44, 59
1, 76560, Note_on_c, 0, 44, 0
1, 76560, Note_on_c, 0, 50, 58
1, 76680, Note_on_c, 0, 50, 0
1, 76680, Note_on_c, 0, 34, 50
1, 76800, Note_on_c, 0, 34, 0
1, 76800, Note_on_c, 0, 88, 0
1, 76800, Note_on_c, 0, 76, 0
1, 76800, Note_on_c, 0, 86, 82
1, 76800, Note_on_c, 0, 74, 82
1, 76800, Note_on_c, 0, 53, 64
1, 77040, Note_on_c, 0, 53, 0
1, 77040, Note_on_c, 0, 74, 0
1, 77040, Note_on_c, 0, 86, 0
1, 77040, Note_on_c, 0, 80, 78
1, 77040, Note_on_c, 0, 68, 78
1, 77040, Note_on_c, 0, 34, 71
1, 77160, Note_on_c, 0, 34, 0
1, 77160, Note_on_c, 0, 44, 58
1, 77280, Tempo, 525762
1, 77280, Note_on_c, 0, 44, 0
1, 77280, Note_on_c, 0, 68, 0
1, 77280, Note_on_c, 0, 80, 0
1, 77280, Note_on_c, 0, 74, 81
1, 77280, Note_on_c, 0, 86, 81
1, 77280, Note_on_c, 0, 50, 58
1, 77288, Tempo, 530457
1, 77328, Tempo, 539957
1, 77368, Tempo, 544910
1, 77400, Note_on_c, 0, 50, 0
1, 77400, Note_on_c, 0, 34, 51
1, 77408, Tempo, 555042
1, 77448, Tempo, 570885
1, 77472, Tempo, 576369
1, 77488, Tempo, 581959
1, 77520, Tempo, 593472
1, 77520, Note_on_c, 0, 34, 0
1, 77520, Note_on_c, 0, 86, 0
1, 77520, Note_on_c, 0, 74, 0
1, 77520, Note_on_c, 0, 89, 83
1, 77520, Note_on_c, 0, 77, 83
1, 77520, Note_on_c, 0, 53, 64
1, 77544, Tempo, 611621
1, 77560, Tempo, 617983
1, 77576, Tempo, 630981
1, 77600, Tempo, 644538
1, 77632, Tempo, 658689
1, 77640, Tempo, 666001
1, 77656, Tempo, 673552
1, 77664, Tempo, 689022
1, 77672, Tempo, 697026
1, 77680, Tempo, 705136
1, 77688, Tempo, 713606
1, 77704, Tempo, 731083
1, 77720, Tempo, 740010
1, 77736, Tempo, 758821
1, 77752, Tempo, 768541
1, 77760, Tempo, 532765
1, 77760, Note_on_c, 0, 53, 0
1, 77760, Note_on_c, 0, 77, 0
1, 77760, Note_on_c, 0, 89, 0
1, 77760, Note_on_c, 0, 98, 72
1, 77760, Note_on_c, 0, 101, 72
1, 77760, Note_on_c, 0, 34, 72
1, 77840, Note_on_c, 0, 101, 0
1, 77840, Note_on_c, 0, 98, 0
1, 77840, Note_on_c, 0, 100, 72
1, 77840, Note_on_c, 0, 97, 72
1, 77880, Note_on_c, 0, 34, 0
1, 77880, Note_on_c, 0, 44, 61
1, 77920, Note_on_c, 0, 97, 0
1, 77920, Note_on_c, 0, 100, 0
1, 77920, Note_on_c, 0, 96, 72
1, 77920, Note_on_c, 0, 99, 72
1, 78000, Tempo, 530457
1, 78000, Note_on_c, 0, 99, 0
1, 78000, Note_on_c, 0, 96, 0
1, 78000, Note_on_c, 0, 44, 0
1, 78000, Note_on_c, 0, 98, 71
1, 78000, Note_on_c, 0, 95, 71
1, 78000, Note_on_c, 0, 50, 61
1, 78080, Note_on_c, 0, 95, 0
1, 78080, Note_on_c, 0, 98, 0
1, 78080, Note_on_c, 0, 97, 71
1, 78080, Note_on_c, 0, 94, 71
1, 78120, Note_on_c, 0, 50, 0
1, 78120, Note_on_c, 0, 34, 54
1, 78160, Note_on_c, 0, 94, 0
1, 78160, Note_on_c, 0, 97, 0
1, 78160, Note_on_c, 0, 93, 71
1, 78160, Note_on_c, 0, 96, 71
1, 78240, Tempo, 528123
1, 78240, Note_on_c, 0, 96, 0
1, 78240, Note_on_c, 0, 93, 0
1, 78240, Note_on_c, 0, 34, 0
1, 78240, Note_on_c, 0, 95, 70
1, 78240, Note_on_c, 0, 92, 70
1, 78240, Note_on_c, 0, 53, 64
1, 78320, Note_on_c, 0, 92, 0
1, 78320, Note_on_c, 0, 95, 0
1, 78320, Note_on_c, 0, 91, 70
1, 78320, Note_on_c, 0, 94, 70
1, 78400, Note_on_c, 0, 94, 0
1, 78400, Note_on_c, 0, 91, 0
1, 78400, Note_on_c, 0, 93, 70
1, 78400, Note_on_c, 0, 90, 70
1, 78480, Tempo, 525762
1, 78480, Note_on_c, 0, 90, 0
1, 78480, Note_on_c, 0, 93, 0
1, 78480, Note_on_c, 0, 53, 0
1, 78480, Note_on_c, 0, 92, 69
1, 78480, Note_on_c, 0, 89, 69
1, 78480, Note_on_c, 0, 34, 70
1, 78560, Note_on_c, 0, 89, 0
1, 78560, Note_on_c, 0, 92, 0
1, 78560, Note_on_c, 0, 88, 69
1, 78560, Note_on_c, 0, 91, 69
1, 78600, Note_on_c, 0, 34, 0
1, 78600, Note_on_c, 0, 44, 60
1, 78640, Note_on_c, 0, 91, 0
1, 78640, Note_on_c, 0, 88, 0
1, 78640, Note_on_c, 0, 87, 69
1, 78640, Note_on_c, 0, 90, 69
1, 78720, Tempo, 523515
1, 78720, Note_on_c, 0, 90, 0
1, 78720, Note_on_c, 0, 87, 0
1, 78720, Note_on_c, 0, 44, 0
1, 78720, Note_on_c, 0, 89, 68
1, 78720, Note_on_c, 0, 86, 68
1, 78720, Note_on_c, 0, 50, 60
1, 78800, Note_on_c, 0, 86, 0
1, 78800, Note_on_c, 0, 89, 0
1, 78800, Note_on_c, 0, 85, 68
1, 78800, Note_on_c, 0, 88, 68
1, 78840, Note_on_c, 0, 50, 0
1, 78840, Note_on_c, 0, 34, 53
1, 78880, Note_on_c, 0, 88, 0
1, 78880, Note_on_c, 0, 85, 0
1, 78880, Note_on_c, 0, 84, 68
1, 78880, Note_on_c, 0, 87, 68
1, 78960, Tempo, 521241
1, 78960, Note_on_c, 0, 87, 0
1, 78960, Note_on_c, 0, 84, 0
1, 78960, Note_on_c, 0, 34, 0
1, 78960, Note_on_c, 0, 83, 67
1, 78960, Note_on_c, 0, 86, 67
1, 78960, Note_on_c, 0, 53, 64
1, 79040, Note_on_c, 0, 86, 0
1, 79040, Note_on_c, 0, 83, 0
1, 79040, Note_on_c, 0, 85, 67
1, 79040, Note_on_c, 0, 82, 67
1, 79120, Note_on_c, 0, 82, 0
1, 79120, Note_on_c, 0, 85, 0
1, 79120, Note_on_c, 0, 84, 67
1, 79120, Note_on_c, 0, 81, 67
1, 79200, Tempo, 521241
1, 79200, Note_on_c, 0, 81, 0
1, 79200, Note_on_c, 0, 84, 0
1, 79200, Note_on_c, 0, 53, 0
1, 79200, Note_on_c, 0, 80, 66
1, 79200, Note_on_c, 0, 83, 66
1, 79200, Note_on_c, 0, 34, 68
1, 79280, Note_on_c, 0, 83, 0
1, 79280, Note_on_c, 0, 80, 0
1, 79280, Note_on_c, 0, 82, 66
1, 79280, Note_on_c, 0, 79, 66
1, 79320, Note_on_c, 0, 34, 0
1, 79320, Note_on_c, 0, 44, 60
1, 79360, Note_on_c, 0, 79, 0
1, 79360, Note_on_c, 0, 82, 0
1, 79360, Note_on_c, 0, 78, 66
1, 79360, Note_on_c, 0, 81, 66
1, 79440, Tempo, 523515
1, 79440, Note_on_c, 0, 81, 0
1, 79440, Note_on_c, 0, 78, 0
1, 79440, Note_on_c, 0, 44, 0
1, 79440, Note_on_c, 0, 80, 65
1, 79440, Note_on_c, 0, 77, 65
1, 79440, Note_on_c, 0, 50, 60
1, 79520, Note_on_c, 0, 77, 0
1, 79520, Note_on_c, 0, 80, 0
1, 79520, Note_on_c, 0, 79, 65
1, 79520, Note_on_c, 0, 76, 65
1, 79560, Note_on_c, 0, 50, 0
1, 79560, Note_on_c, 0, 34, 54
1, 79600, Note_on_c, 0, 76, 0
1, 79600, Note_on_c, 0, 79, 0
1, 79600, Note_on_c, 0, 75, 65
1, 79600, Note_on_c, 0, 78, 65
1, 79640, Tempo, 525762
1, 79680, Note_on_c, 0, 78, 0
1, 79680, Note_on_c, 0, 75, 0
1, 79680, Note_on_c, 0, 34, 0
1, 79680, Note_on_c, 0, 77, 64
1, 79680, Note_on_c, 0, 74, 64
1, 79680, Note_on_c, 0, 53, 64
1, 79760, Note_on_c, 0, 74, 0
1, 79760, Note_on_c, 0, 77, 0
1, 79760, Note_on_c, 0, 73, 64
1, 79760, Note_on_c, 0, 76, 64
1, 79840, Tempo, 528123
1, 79840, Note_on_c, 0, 76, 0
1, 79840, Note_on_c, 0, 73, 0
1, 79840, Note_on_c, 0, 75, 64
1, 79840, Note_on_c, 0, 72, 64
1, 79920, Note_on_c, 0, 72, 0
1, 79920, Note_on_c, 0, 75, 0
1, 79920, Note_on_c, 0, 53, 0
1, 79920, Note_on_c, 0, 74, 64
1, 79920, Note_on_c, 0, 71, 64
1, 79920, Note_on_c, 0, 34, 67
1, 80000, Note_on_c, 0, 71, 0
1, 80000, Note_on_c, 0, 74, 0
1, 80000, Note_on_c, 0, 70, 64
1, 80000, Note_on_c, 0, 73, 64
1, 80040, Tempo, 530457
1, 80040, Note_on_c, 0, 34, 0
1, 80040, Note_on_c, 0, 44, 58
1, 80080, Note_on_c, 0, 73, 0
1, 80080, Note_on_c, 0, 70, 0
1, 80080, Note_on_c, 0, 72, 64
1, 80080, Note_on_c, 0, 69, 64
1, 80160, Note_on_c, 0, 69, 0
1, 80160, Note_on_c, 0, 72, 0
1, 80160, Note_on_c, 0, 44, 0
1, 80160, Note_on_c, 0, 68, 63
1, 80160, Note_on_c, 0, 71, 63
1, 80160, Note_on_c, 0, 50, 58
1, 80240, Tempo, 532765
1, 80240, Note_on_c, 0, 71, 0
1, 80240, Note_on_c, 0, 68, 0
1, 80240, Note_on_c, 0, 70, 63
1, 80240, Note_on_c, 0, 67, 63
1, 80280, Note_on_c, 0, 50, 0
1, 80280, Note_on_c, 0, 34, 52
1, 80320, Note_on_c, 0, 67, 0
1, 80320, Note_on_c, 0, 70, 0
1, 80320, Note_on_c, 0, 69, 63
1, 80320, Note_on_c, 0, 66, 63
1, 80400, Note_on_c, 0, 66, 0
1, 80400, Note_on_c, 0, 69, 0
1, 80400, Note_on_c, 0, 34, 0
1, 80400, Note_on_c, 0, 65, 63
1, 80400, Note_on_c, 0, 68, 63
1, 80400, Note_on_c, 0, 53, 64
1, 80440, Tempo, 535189
1, 80480, Note_on_c, 0, 68, 0
1, 80480, Note_on_c, 0, 65, 0
1, 80480, Note_on_c, 0, 64, 63
1, 80480, Note_on_c, 0, 67, 63
1, 80560, Note_on_c, 0, 67, 0
1, 80560, Note_on_c, 0, 64, 0
1, 80560, Note_on_c, 0, 62, 63
1, 80560, Note_on_c, 0, 67, 63
1, 80640, Tempo, 532765
1, 80640, Note_on_c, 0, 67, 0
1, 80640, Note_on_c, 0, 62, 0
1, 80640, Note_on_c, 0, 53, 0
1, 80640, Note_on_c, 0, 57, 85
1, 80640, Note_on_c, 0, 33, 65
1, 80647, Control_c, 0, 64, 32
1, 80760, Note_on_c, 0, 33, 0
1, 80760, Note_on_c, 0, 41, 54
1, 80802, Control_c, 0, 64, 96
1, 80880, Note_on_c, 0, 41, 0
1, 80880, Note_on_c, 0, 50, 54
1, 81000, Note_on_c, 0, 50, 0
1, 81000, Note_on_c, 0, 33, 48
1, 81120, Note_on_c, 0, 33, 0
1, 81120, Note_on_c, 0, 57, 0
1, 81120, Note_on_c, 0, 53, 62
1, 81240, Note_on_c, 0, 69, 83
1, 81360, Tempo, 521241
1, 81360, Note_on_c, 0, 69, 0
1, 81360, Note_on_c, 0, 53, 0
1, 81360, Note_on_c, 0, 69, 86
1, 81360, Note_on_c, 0, 33, 66
1, 81480, Note_on_c, 0, 33, 0
1, 81480, Note_on_c, 0, 41, 55
1, 81600, Note_on_c, 0, 41, 0
1, 81600, Note_on_c, 0, 50, 55
1, 81720, Note_on_c, 0, 50, 0
1, 81720, Note_on_c, 0, 33, 49
1, 81840, Note_on_c, 0, 33, 0
1, 81840, Note_on_c, 0, 53, 61
1, 82080, Note_on_c, 0, 53, 0
1, 82080, Note_on_c, 0, 33, 67
1, 82200, Note_on_c, 0, 33, 0
1, 82200, Note_on_c, 0, 41, 55
1, 82320, Note_on_c, 0, 41, 0
1, 82320, Note_on_c, 0, 69, 0
1, 82320, Note_on_c, 0, 67, 81
1, 82320, Note_on_c, 0, 50, 55
1, 82440, Note_on_c, 0, 50, 0
1, 82440, Note_on_c, 0, 33, 50
1, 82560, Note_on_c, 0, 33, 0
1, 82560, Note_on_c, 0, 53, 63
1, 82680, Note_on_c, 0, 67, 0
1, 82680, Note_on_c, 0, 65, 78
1, 82800, Tempo, 516751
1, 82800, Note_on_c, 0, 65, 0
1, 82800, Note_on_c, 0, 53, 0
1, 82800, Note_on_c, 0, 64, 76
1, 82800, Note_on_c, 0, 33, 66
1, 82920, Note_on_c, 0, 33, 0
1, 82920, Note_on_c, 0, 64, 0
1, 82920, Note_on_c, 0, 65, 78
1, 82920, Note_on_c, 0, 41, 56
1, 83020, Note_on_c, 0, 65, 0
1, 83020, Note_on_c, 0, 64, 78
1, 83040, Note_on_c, 0, 41, 0
1, 83040, Note_on_c, 0, 50, 56
1, 83120, Note_on_c, 0, 64, 0
1, 83120, Note_on_c, 0, 62, 78
1, 83160, Note_on_c, 0, 50, 0
1, 83160, Note_on_c, 0, 33, 50
1, 83220, Note_on_c, 0, 62, 0
1, 83220, Note_on_c, 0, 64, 78
1, 83280, Note_on_c, 0, 33, 0
1, 83280, Note_on_c, 0, 53, 63
1, 83320, Note_on_c, 0, 64, 0
1, 83320, Note_on_c, 0, 65, 78
1, 83420, Note_on_c, 0, 65, 0
1, 83420, Note_on_c, 0, 62, 73
1, 83520, Tempo, 528123
1, 83520, Note_on_c, 0, 62, 0
1, 83520, Note_on_c, 0, 53, 0
1, 83520, Note_on_c, 0, 69, 78
1, 83520, Note_on_c, 0, 57, 78
1, 83520, Note_on_c, 0, 33, 67
1, 83522, Control_c, 0, 64, 0
1, 83640, Note_on_c, 0, 33, 0
1, 83640, Control_c, 0, 64, 127
1, 83640, Note_on_c, 0, 41, 57
1, 83760, Note_on_c, 0, 41, 0
1, 83760, Note_on_c, 0, 57, 0
1, 83760, Note_on_c, 0, 69, 0
1, 83760, Note_on_c, 0, 50, 57
1, 83880, Note_on_c, 0, 50, 0
1, 83880, Note_on_c, 0, 33, 49
1, 84000, Tempo, 521241
1, 84000, Note_on_c, 0, 33, 0
1, 84000, Note_on_c, 0, 81, 84
1, 84000, Note_on_c, 0, 69, 84
1, 84000, Note_on_c, 0, 53, 61
1, 84120, Note_on_c, 0, 69, 0
1, 84120, Note_on_c, 0, 81, 0
1, 84240, Note_on_c, 0, 53, 0
1, 84240, Note_on_c, 0, 93, 84
1, 84240, Note_on_c, 0, 81, 84
1, 84240, Note_on_c, 0, 33, 67
1, 84360, Note_on_c, 0, 33, 0
1, 84360, Note_on_c, 0, 41, 59
1, 84480, Note_on_c, 0, 41, 0
1, 84480, Note_on_c, 0, 50, 59
1, 84600, Note_on_c, 0, 50, 0
1, 84600, Note_on_c, 0, 33, 54
1, 84720, Note_on_c, 0, 33, 0
1, 84720, Note_on_c, 0, 53, 63
1, 84960, Note_on_c, 0, 53, 0
1, 84960, Note_on_c, 0, 33, 70
1, 85080, Note_on_c, 0, 33, 0
1, 85080, Note_on_c, 0, 41, 59
1, 85200, Note_on_c, 0, 41, 0
1, 85200, Note_on_c, 0, 81, 0
1, 85200, Note_on_c, 0, 93, 0
1, 85200, Note_on_c, 0, 91, 85
1, 85200, Note_on_c, 0, 79, 85
1, 85200, Note_on_c, 0, 50, 59
1, 85320, Note_on_c, 0, 50, 0
1, 85320, Note_on_c, 0, 33, 53
1, 85440, Note_on_c, 0, 33, 0
1, 85440, Note_on_c, 0, 53, 67
1, 85560, Note_on_c, 0, 79, 0
1, 85560, Note_on_c, 0, 91, 0
1, 85560, Note_on_c, 0, 89, 87
1, 85560, Note_on_c, 0, 77, 87
1, 85680, Note_on_c, 0, 77, 0
1, 85680, Note_on_c, 0, 89, 0
1, 85680, Note_on_c, 0, 53, 0
1, 85680, Note_on_c, 0, 88, 80
1, 85680, Note_on_c, 0, 76, 80
1, 85680, Note_on_c, 0, 33, 71
1, 85800, Note_on_c, 0, 33, 0
1, 85800, Note_on_c, 0, 76, 0
1, 85800, Note_on_c, 0, 88, 0
1, 85800, Note_on_c, 0, 89, 82
1, 85800, Note_on_c, 0, 77, 82
1, 85800, Note_on_c, 0, 41, 59
1, 85900, Note_on_c, 0, 77, 0
1, 85900, Note_on_c, 0, 89, 0
1, 85900, Note_on_c, 0, 88, 82
1, 85900, Note_on_c, 0, 76, 82
1, 85920, Note_on_c, 0, 41, 0
1, 85920, Note_on_c, 0, 50, 59
1, 86000, Note_on_c, 0, 76, 0
1, 86000, Note_on_c, 0, 88, 0
1, 86000, Note_on_c, 0, 86, 82
1, 86000, Note_on_c, 0, 74, 82
1, 86040, Note_on_c, 0, 50, 0
1, 86040, Note_on_c, 0, 33, 52
1, 86100, Note_on_c, 0, 74, 0
1, 86100, Note_on_c, 0, 86, 0
1, 86100, Note_on_c, 0, 88, 82
1, 86100, Note_on_c, 0, 76, 82
1, 86160, Note_on_c, 0, 33, 0
1, 86160, Note_on_c, 0, 53, 67
1, 86200, Note_on_c, 0, 76, 0
1, 86200, Note_on_c, 0, 88, 0
1, 86200, Note_on_c, 0, 89, 82
1, 86200, Note_on_c, 0, 77, 82
1, 86280, Tempo, 590551
1, 86300, Note_on_c, 0, 77, 0
1, 86300, Note_on_c, 0, 89, 0
1, 86340, Note_on_c, 0, 86, 82
1, 86340, Note_on_c, 0, 74, 82
1, 86400, Tempo, 521241
1, 86400, Note_on_c, 0, 74, 0
1, 86400, Note_on_c, 0, 86, 0
1, 86400, Note_on_c, 0, 53, 0
1, 86400, Note_on_c, 0, 82, 89
1, 86400, Note_on_c, 0, 94, 89
1, 86400, Note_on_c, 0, 33, 72
1, 86404, Control_c, 0, 64, 32
1, 86520, Note_on_c, 0, 33, 0
1, 86520, Control_c, 0, 64, 96
1, 86520, Note_on_c, 0, 43, 61
1, 86640, Note_on_c, 0, 43, 0
1, 86640, Note_on_c, 0, 94, 0
1, 86640, Note_on_c, 0, 82, 0
1, 86640, Note_on_c, 0, 88, 84
1, 86640, Note_on_c, 0, 76, 84
1, 86640, Note_on_c, 0, 50, 61
1, 86760, Note_on_c, 0, 50, 0
1, 86760, Note_on_c, 0, 33, 54
1, 86880, Tempo, 535189
1, 86880, Note_on_c, 0, 33, 0
1, 86880, Note_on_c, 0, 76, 0
1, 86880, Note_on_c, 0, 88, 0
1, 86880, Note_on_c, 0, 77, 84
1, 86880, Note_on_c, 0, 89, 84
1, 86880, Note_on_c, 0, 52, 71
1, 87120, Tempo, 521241
1, 87120, Note_on_c, 0, 52, 0
1, 87120, Note_on_c, 0, 89, 0
1, 87120, Note_on_c, 0, 77, 0
1, 87120, Note_on_c, 0, 93, 87
1, 87120, Note_on_c, 0, 81, 87
1, 87120, Note_on_c, 0, 33, 72
1, 87240, Note_on_c, 0, 33, 0
1, 87240, Note_on_c, 0, 43, 58
1, 87360, Note_on_c, 0, 43, 0
1, 87360, Note_on_c, 0, 81, 0
1, 87360, Note_on_c, 0, 93, 0
1, 87360, Note_on_c, 0, 91, 84
1, 87360, Note_on_c, 0, 79, 84
1, 87360, Note_on_c, 0, 50, 58
1, 87480, Note_on_c, 0, 50, 0
1, 87480, Note_on_c, 0, 33, 51
1, 87600, Tempo, 535189
1, 87600, Note_on_c, 0, 33, 0
1, 87600, Note_on_c, 0, 79, 0
1, 87600, Note_on_c, 0, 91, 0
1, 87600, Note_on_c, 0, 70, 84
1, 87600, Note_on_c, 0, 82, 84
1, 87600, Note_on_c, 0, 52, 70
1, 87840, Tempo, 521241
1, 87840, Note_on_c, 0, 52, 0
1, 87840, Note_on_c, 0, 82, 0
1, 87840, Note_on_c, 0, 70, 0
1, 87840, Note_on_c, 0, 74, 88
1, 87840, Note_on_c, 0, 86, 88
1, 87840, Note_on_c, 0, 33, 72
1, 87850, Control_c, 0, 64, 32
1, 87925, Control_c, 0, 64, 96
1, 87960, Note_on_c, 0, 33, 0
1, 87960, Note_on_c, 0, 43, 63
1, 88080, Note_on_c, 0, 43, 0
1, 88080, Note_on_c, 0, 86, 0
1, 88080, Note_on_c, 0, 74, 0
1, 88080, Note_on_c, 0, 79, 83
1, 88080, Note_on_c, 0, 67, 83
1, 88080, Note_on_c, 0, 50, 63
1, 88200, Note_on_c, 0, 50, 0
1, 88200, Note_on_c, 0, 33, 57
1, 88320, Note_on_c, 0, 33, 0
1, 88320, Note_on_c, 0, 67, 0
1, 88320, Note_on_c, 0, 79, 0
1, 88320, Note_on_c, 0, 69, 80
1, 88320, Note_on_c, 0, 81, 80
1, 88320, Note_on_c, 0, 52, 68
1, 88560, Note_on_c, 0, 52, 0
1, 88560, Note_on_c, 0, 81, 0
1, 88560, Note_on_c, 0, 69, 0
1, 88560, Note_on_c, 0, 72, 86
1, 88560, Note_on_c, 0, 84, 86
1, 88560, Note_on_c, 0, 33, 71
1, 88575, Control_c, 0, 64, 31
1, 88659, Control_c, 0, 64, 95
1, 88680, Note_on_c, 0, 33, 0
1, 88680, Note_on_c, 0, 43, 63
1, 88800, Note_on_c, 0, 43, 0
1, 88800, Note_on_c, 0, 84, 0
1, 88800, Note_on_c, 0, 72, 0
1, 88800, Note_on_c, 0, 70, 82
1, 88800, Note_on_c, 0, 82, 82
1, 88800, Note_on_c, 0, 50, 63
1, 88920, Note_on_c, 0, 50, 0
1, 88920, Note_on_c, 0, 33, 58
1, 89040, Tempo, 532765
1, 89040, Note_on_c, 0, 33, 0
1, 89040, Note_on_c, 0, 82, 0
1, 89040, Note_on_c, 0, 70, 0
1, 89040, Note_on_c, 0, 52, 66
1, 89160, Note_on_c, 0, 64, 79
1, 89160, Note_on_c, 0, 76, 79
1, 89280, Tempo, 521241
1, 89280, Note_on_c, 0, 76, 0
1, 89280, Note_on_c, 0, 64, 0
1, 89280, Note_on_c, 0, 52, 0
1, 89280, Note_on_c, 0, 79, 87
1, 89280, Note_on_c, 0, 67, 87
1, 89280, Note_on_c, 0, 33, 71
1, 89287, Control_c, 0, 64, 31
1, 89372, Control_c, 0, 64, 96
1, 89400, Note_on_c, 0, 33, 0
1, 89400, Note_on_c, 0, 43, 61
1, 89520, Note_on_c, 0, 43, 0
1, 89520, Note_on_c, 0, 67, 0
1, 89520, Note_on_c, 0, 79, 0
1, 89520, Note_on_c, 0, 58, 81
1, 89520, Note_on_c, 0, 70, 81
1, 89520, Note_on_c, 0, 50, 61
1, 89640, Note_on_c, 0, 50, 0
1, 89640, Note_on_c, 0, 33, 56
1, 89760, Note_on_c, 0, 33, 0
1, 89760, Note_on_c, 0, 70, 0
1, 89760, Note_on_c, 0, 58, 0
1, 89760, Note_on_c, 0, 60, 79
1, 89760, Note_on_c, 0, 72, 79
1, 89760, Note_on_c, 0, 52, 65
1, 90000, Note_on_c, 0, 52, 0
1, 90000, Note_on_c, 0, 72, 0
1, 90000, Note_on_c, 0, 60, 0
1, 90000, Note_on_c, 0, 64, 83
1, 90000, Note_on_c, 0, 76, 83
1, 90000, Note_on_c, 0, 33, 70
1, 90009, Control_c, 0, 64, 30
1, 90078, Control_c, 0, 64, 96
1, 90120, Note_on_c, 0, 33, 0
1, 90120, Note_on_c, 0, 43, 60
1, 90240, Note_on_c, 0, 43, 0
1, 90240, Note_on_c, 0, 76, 0
1, 90240, Note_on_c, 0, 64, 0
1, 90240, Note_on_c, 0, 62, 78
1, 90240, Note_on_c, 0, 74, 78
1, 90240, Note_on_c, 0, 50, 60
1, 90360, Note_on_c, 0, 50, 0
1, 90360, Note_on_c, 0, 33, 54
1, 90480, Tempo, 544910
1, 90480, Note_on_c, 0, 33, 0
1, 90480, Note_on_c, 0, 74, 0
1, 90480, Note_on_c, 0, 62, 0
1, 90480, Note_on_c, 0, 67, 78
1, 90480, Note_on_c, 0, 55, 78
1, 90480, Note_on_c, 0, 52, 66
1, 90720, Tempo, 521241
1, 90720, Note_on_c, 0, 52, 0
1, 90720, Note_on_c, 0, 55, 0
1, 90720, Note_on_c, 0, 67, 0
1, 90720, Note_on_c, 0, 58, 86
1, 90720, Note_on_c, 0, 70, 86
1, 90720, Note_on_c, 0, 33, 72
1, 90741, Control_c, 0, 64, 0
1, 90784, Control_c, 0, 64, 96
1, 90840, Note_on_c, 0, 33, 0
1, 90840, Note_on_c, 0, 43, 59
1, 90960, Note_on_c, 0, 43, 0
1, 90960, Note_on_c, 0, 50, 60
1, 91080, Note_on_c, 0, 50, 0
1, 91080, Note_on_c, 0, 33, 54
1, 91200, Note_on_c, 0, 33, 0
1, 91200, Note_on_c, 0, 52, 67
1, 91440, Tempo, 528123
1, 91440, Note_on_c, 0, 52, 0
1, 91440, Note_on_c, 0, 70, 0
1, 91440, Note_on_c, 0, 58, 0
1, 91440, Note_on_c, 0, 61, 84
1, 91440, Note_on_c, 0, 49, 84
1, 91440, Note_on_c, 0, 33, 71
1, 91454, Control_c, 0, 64, 31
1, 91560, Note_on_c, 0, 33, 0
1, 91560, Note_on_c, 0, 43, 61
1, 91574, Control_c, 0, 64, 97
1, 91680, Note_on_c, 0, 43, 0
1, 91680, Note_on_c, 0, 45, 61
1, 91800, Note_on_c, 0, 45, 0
1, 91800, Note_on_c, 0, 33, 54
1, 91920, Note_on_c, 0, 33, 0
1, 91920, Note_on_c, 0, 52, 65
1, 92160, Tempo, 521241
1, 92160, Note_on_c, 0, 52, 0
1, 92160, Note_on_c, 0, 49, 0
1, 92160, Note_on_c, 0, 61, 0
1, 92160, Note_on_c, 0, 50, 86
1, 92160, Note_on_c, 0, 62, 86
1, 92160, Note_on_c, 0, 38, 71
1, 92170, Control_c, 0, 64, 31
1, 92224, Control_c, 0, 64, 96
1, 92280, Note_on_c, 0, 38, 0
1, 92280, Note_on_c, 0, 45, 63
1, 92400, Note_on_c, 0, 45, 0
1, 92400, Note_on_c, 0, 53, 62
1, 92520, Note_on_c, 0, 53, 0
1, 92520, Note_on_c, 0, 38, 57
1, 92640, Note_on_c, 0, 38, 0
1, 92640, Note_on_c, 0, 62, 0
1, 92640, Note_on_c, 0, 50, 0
1, 92640, Note_on_c, 0, 57, 67
1, 92880, Note_on_c, 0, 57, 0
1, 92880, Note_on_c, 0, 38, 68
1, 93000, Note_on_c, 0, 38, 0
1, 93000, Note_on_c, 0, 45, 62
1, 93120, Note_on_c, 0, 45, 0
1, 93120, Note_on_c, 0, 53, 62
1, 93240, Note_on_c, 0, 53, 0
1, 93240, Note_on_c, 0, 38, 58
1, 93360, Tempo, 535189
1, 93360, Note_on_c, 0, 38, 0
1, 93360, Note_on_c, 0, 57, 66
1, 93600, Tempo, 521241
1, 93600, Note_on_c, 0, 57, 0
1, 93600, Note_on_c, 0, 89, 90
1, 93600, Note_on_c, 0, 101, 90
1, 93600, Note_on_c, 0, 38, 68
1, 93611, Control_c, 0, 64, 31
1, 93640, Control_c, 0, 64, 96
1, 93720, Note_on_c, 0, 38, 0
1, 93720, Note_on_c, 0, 44, 62
1, 93840, Note_on_c, 0, 44, 0
1, 93840, Note_on_c, 0, 53, 62
1, 93960, Note_on_c, 0, 53, 0
1, 93960, Note_on_c, 0, 38, 56
1, 94080, Note_on_c, 0, 38, 0
1, 94080, Note_on_c, 0, 89, 0
1, 94080, Note_on_c, 0, 56, 66
1, 94200, Note_on_c, 0, 101, 0
1, 94200, Note_on_c, 0, 100, 81
1, 94240, Note_on_c, 0, 100, 0
1, 94240, Note_on_c, 0, 98, 80
1, 94280, Note_on_c, 0, 98, 0
1, 94280, Note_on_c, 0, 95, 80
1, 94320, Tempo, 516751
1, 94320, Note_on_c, 0, 95, 0
1, 94320, Note_on_c, 0, 56, 0
1, 94320, Note_on_c, 0, 91, 79
1, 94320, Note_on_c, 0, 38, 68
1, 94360, Note_on_c, 0, 91, 0
1, 94360, Note_on_c, 0, 89, 79
1, 94400, Tempo, 518941
1, 94400, Note_on_c, 0, 89, 0
1, 94400, Note_on_c, 0, 88, 78
1, 94440, Note_on_c, 0, 88, 0
1, 94440, Note_on_c, 0, 38, 0
1, 94440, Note_on_c, 0, 86, 78
1, 94440, Note_on_c, 0, 44, 61
1, 94480, Tempo, 521241
1, 94480, Note_on_c, 0, 86, 0
1, 94480, Note_on_c, 0, 83, 77
1, 94520, Note_on_c, 0, 83, 0
1, 94520, Note_on_c, 0, 79, 77
1, 94560, Tempo, 523515
1, 94560, Note_on_c, 0, 79, 0
1, 94560, Note_on_c, 0, 44, 0
1, 94560, Note_on_c, 0, 77, 76
1, 94560, Note_on_c, 0, 53, 61
1, 94600, Note_on_c, 0, 77, 0
1, 94600, Note_on_c, 0, 76, 76
1, 94640, Tempo, 525762
1, 94640, Note_on_c, 0, 76, 0
1, 94640, Note_on_c, 0, 74, 75
1, 94680, Note_on_c, 0, 74, 0
1, 94680, Note_on_c, 0, 53, 0
1, 94680, Note_on_c, 0, 71, 75
1, 94680, Note_on_c, 0, 38, 56
1, 94720, Tempo, 528123
1, 94720, Note_on_c, 0, 71, 0
1, 94720, Note_on_c, 0, 67, 75
1, 94760, Note_on_c, 0, 67, 0
1, 94760, Note_on_c, 0, 65, 74
1, 94800, Tempo, 530457
1, 94800, Note_on_c, 0, 65, 0
1, 94800, Note_on_c, 0, 38, 0
1, 94800, Note_on_c, 0, 64, 74
1, 94800, Note_on_c, 0, 56, 65
1, 94840, Note_on_c, 0, 64, 0
1, 94840, Note_on_c, 0, 62, 73
1, 94880, Tempo, 532765
1, 94880, Note_on_c, 0, 62, 0
1, 94880, Note_on_c, 0, 59, 73
1, 94920, Note_on_c, 0, 59, 0
1, 94920, Note_on_c, 0, 55, 72
1, 94960, Tempo, 535189
1, 94960, Note_on_c, 0, 55, 0
1, 94960, Note_on_c, 0, 53, 72
1, 95000, Note_on_c, 0, 53, 0
1, 95000, Note_on_c, 0, 52, 72
1, 95040, Tempo, 523515
1, 95040, Note_on_c, 0, 52, 0
1, 95040, Note_on_c, 0, 56, 0
1, 95040, Note_on_c, 0, 50, 90
1, 95040, Note_on_c, 0, 38, 64
1, 95047, Control_c, 0, 64, 32
1, 95139, Control_c, 0, 64, 95
1, 95160, Note_on_c, 0, 38, 0
1, 95160, Note_on_c, 0, 45, 52
1, 95280, Note_on_c, 0, 45, 0
1, 95280, Note_on_c, 0, 53, 52
1, 95400, Note_on_c, 0, 53, 0
1, 95400, Note_on_c, 0, 38, 45
1, 95520, Note_on_c, 0, 38, 0
1, 95520, Note_on_c, 0, 57, 62
1, 95760, Note_on_c, 0, 57, 0
1, 95760, Note_on_c, 0, 38, 64
1, 95880, Note_on_c, 0, 38, 0
1, 95880, Note_on_c, 0, 45, 53
1, 96000, Note_on_c, 0, 45, 0
1, 96000, Note_on_c, 0, 50, 0
1, 96000, Note_on_c, 0, 53, 53
1, 96120, Note_on_c, 0, 53, 0
1, 96120, Note_on_c, 0, 38, 46
1, 96240, Tempo, 539957
1, 96240, Note_on_c, 0, 38, 0
1, 96240, Note_on_c, 0, 57, 63
1, 96480, Tempo, 525762
1, 96480, Note_on_c, 0, 57, 0
1, 96480, Note_on_c, 0, 59, 73
1, 96480, Note_on_c, 0, 65, 73
1, 96480, Note_on_c, 0, 71, 73
1, 96480, Note_on_c, 0, 38, 61
1, 96488, Control_c, 0, 64, 31
1, 96571, Control_c, 0, 64, 95
1, 96600, Note_on_c, 0, 38, 0
1, 96600, Note_on_c, 0, 44, 51
1, 96720, Note_on_c, 0, 44, 0
1, 96720, Note_on_c, 0, 53, 51
1, 96840, Note_on_c, 0, 53, 0
1, 96840, Note_on_c, 0, 38, 46
1, 96960, Tempo, 532765
1, 96960, Note_on_c, 0, 38, 0
1, 96960, Note_on_c, 0, 56, 56
1, 97200, Tempo, 523515
1, 97200, Note_on_c, 0, 56, 0
1, 97200, Note_on_c, 0, 71, 0
1, 97200, Note_on_c, 0, 59, 0
1, 97200, Note_on_c, 0, 58, 72
1, 97200, Note_on_c, 0, 70, 72
1, 97200, Note_on_c, 0, 38, 61
1, 97215, Control_c, 0, 64, 31
1, 97269, Control_c, 0, 64, 95
1, 97320, Note_on_c, 0, 38, 0
1, 97320, Note_on_c, 0, 44, 49
1, 97440, Note_on_c, 0, 44, 0
1, 97440, Note_on_c, 0, 53, 49
1, 97560, Note_on_c, 0, 53, 0
1, 97560, Note_on_c, 0, 38, 44
1, 97680, Tempo, 542446
1, 97680, Note_on_c, 0, 38, 0
1, 97680, Note_on_c, 0, 56, 56
1, 97920, Tempo, 525762
1, 97920, Note_on_c, 0, 56, 0
1, 97920, Note_on_c, 0, 65, 0
1, 97920, Note_on_c, 0, 58, 0
1, 97920, Note_on_c, 0, 70, 0
1, 97920, Note_on_c, 0, 57, 69
1, 97920, Note_on_c, 0, 65, 69
1, 97920, Note_on_c, 0, 69, 69
1, 97920, Note_on_c, 0, 38, 61
1, 97928, Control_c, 0, 64, 31
1, 98005, Control_c, 0, 64, 95
1, 98040, Note_on_c, 0, 38, 0
1, 98040, Note_on_c, 0, 45, 49
1, 98160, Note_on_c, 0, 45, 0
1, 98160, Note_on_c, 0, 53, 48
1, 98280, Note_on_c, 0, 53, 0
1, 98280, Note_on_c, 0, 38, 41
1, 98400, Note_on_c, 0, 38, 0
1, 98400, Note_on_c, 0, 69, 0
1, 98400, Note_on_c, 0, 65, 0
1, 98400, Note_on_c, 0, 57, 0
1, 98400, Note_on_c, 0, 57, 56
1, 98640, Note_on_c, 0, 57, 0
1, 98640, Note_on_c, 0, 38, 61
1, 98760, Note_on_c, 0, 38, 0
1, 98760, Note_on_c, 0, 45, 48
1, 98880, Note_on_c, 0, 45, 0
1, 98880, Note_on_c, 0, 53, 48
1, 99000, Note_on_c, 0, 53, 0
1, 99000, Note_on_c, 0, 38, 41
1, 99120, Tempo, 542446
1, 99120, Note_on_c, 0, 38, 0
1, 99120, Note_on_c, 0, 57, 56
1, 99360, Tempo, 523515
1, 99360, Note_on_c, 0, 57, 0
1, 99360, Note_on_c, 0, 89, 90
1, 99360, Note_on_c, 0, 101, 90
1, 99360, Note_on_c, 0, 38, 68
1, 99373, Control_c, 0, 64, 31
1, 99397, Control_c, 0, 64, 95
1, 99480, Note_on_c, 0, 38, 0
1, 99480, Note_on_c, 0, 44, 52
1, 99600, Note_on_c, 0, 44, 0
1, 99600, Note_on_c, 0, 53, 52
1, 99720, Note_on_c, 0, 53, 0
1, 99720, Note_on_c, 0, 38, 45
1, 99840, Note_on_c, 0, 38, 0
1, 99840, Note_on_c, 0, 89, 0
1, 99840, Note_on_c, 0, 56, 61
1, 99960, Note_on_c, 0, 101, 0
1, 99960, Note_on_c, 0, 100, 80
1, 100000, Note_on_c, 0, 100, 0
1, 100000, Note_on_c, 0, 98, 79
1, 100040, Note_on_c, 0, 98, 0
1, 100040, Note_on_c, 0, 95, 79
1, 100080, Tempo, 514492
1, 100080, Note_on_c, 0, 95, 0
1, 100080, Note_on_c, 0, 56, 0
1, 100080, Note_on_c, 0, 91, 78
1, 100080, Note_on_c, 0, 38, 64
1, 100120, Note_on_c, 0, 91, 0
1, 100120, Note_on_c, 0, 89, 78
1, 100160, Tempo, 516751
1, 100160, Note_on_c, 0, 89, 0
1, 100160, Note_on_c, 0, 88, 78
1, 100200, Note_on_c, 0, 88, 0
1, 100200, Note_on_c, 0, 38, 0
1, 100200, Note_on_c, 0, 86, 77
1, 100200, Note_on_c, 0, 44, 52
1, 100240, Tempo, 518941
1, 100240, Note_on_c, 0, 86, 0
1, 100240, Note_on_c, 0, 83, 77
1, 100280, Note_on_c, 0, 83, 0
1, 100280, Note_on_c, 0, 79, 76
1, 100320, Tempo, 521241
1, 100320, Note_on_c, 0, 79, 0
1, 100320, Note_on_c, 0, 44, 0
1, 100320, Note_on_c, 0, 77, 76
1, 100320, Note_on_c, 0, 53, 52
1, 100360, Note_on_c, 0, 77, 0
1, 100360, Note_on_c, 0, 76, 75
1, 100400, Tempo, 523515
1, 100400, Note_on_c, 0, 76, 0
1, 100400, Note_on_c, 0, 74, 75
1, 100440, Note_on_c, 0, 74, 0
1, 100440, Note_on_c, 0, 53, 0
1, 100440, Note_on_c, 0, 71, 75
1, 100440, Note_on_c, 0, 38, 45
1, 100480, Tempo, 525762
1, 100480, Note_on_c, 0, 71, 0
1, 100480, Note_on_c, 0, 67, 74
1, 100520, Note_on_c, 0, 67, 0
1, 100520, Note_on_c, 0, 65, 74
1, 100560, Tempo, 528123
1, 100560, Note_on_c, 0, 65, 0
1, 100560, Note_on_c, 0, 38, 0
1, 100560, Note_on_c, 0, 64, 73
1, 100560, Note_on_c, 0, 56, 60
1, 100600, Note_on_c, 0, 64, 0
1, 100600, Note_on_c, 0, 62, 73
1, 100640, Tempo, 530457
1, 100640, Note_on_c, 0, 62, 0
1, 100640, Note_on_c, 0, 59, 73
1, 100680, Note_on_c, 0, 59, 0
1, 100680, Note_on_c, 0, 55, 72
1, 100720, Tempo, 532765
1, 100720, Note_on_c, 0, 55, 0
1, 100720, Note_on_c, 0, 53, 72
1, 100760, Tempo, 535189
1, 100760, Note_on_c, 0, 53, 0
1, 100760, Note_on_c, 0, 52, 72
1, 100800, Note_on_c, 0, 52, 0
1, 100800, Note_on_c, 0, 56, 0
1, 100800, Note_on_c, 0, 50, 90
1, 100800, Note_on_c, 0, 38, 64
1, 100807, Control_c, 0, 64, 33
1, 100899, Control_c, 0, 64, 95
1, 100920, Note_on_c, 0, 38, 0
1, 100920, Note_on_c, 0, 45, 52
1, 101040, Note_on_c, 0, 45, 0
1, 101040, Note_on_c, 0, 53, 52
1, 101160, Note_on_c, 0, 53, 0
1, 101160, Note_on_c, 0, 38, 42
1, 101280, Note_on_c, 0, 38, 0
1, 101280, Note_on_c, 0, 57, 60
1, 101520, Note_on_c, 0, 57, 0
1, 101520, Note_on_c, 0, 38, 66
1, 101640, Note_on_c, 0, 38, 0
1, 101640, Note_on_c, 0, 45, 51
1, 101760, Note_on_c, 0, 45, 0
1, 101760, Note_on_c, 0, 50, 0
1, 101760, Note_on_c, 0, 53, 51
1, 101880, Note_on_c, 0, 53, 0
1, 101880, Note_on_c, 0, 38, 43
1, 102000, Note_on_c, 0, 38, 0
1, 102000, Note_on_c, 0, 57, 62
1, 102240, Tempo, 555042
1, 102240, Note_on_c, 0, 57, 0
1, 102240, Note_on_c, 0, 71, 72
1, 102240, Note_on_c, 0, 59, 61
1, 102240, Note_on_c, 0, 65, 61
1, 102240, Note_on_c, 0, 38, 68
1, 102248, Control_c, 0, 64, 32
1, 102307, Control_c, 0, 64, 95
1, 102320, Tempo, 552435
1, 102360, Note_on_c, 0, 38, 0
1, 102360, Note_on_c, 0, 44, 51
1, 102370, Note_on_c, 0, 71, 0
1, 102370, Note_on_c, 0, 65, 0
1, 102370, Note_on_c, 0, 59, 0
1, 102384, Note_on_c, 0, 71, 73
1, 102384, Note_on_c, 0, 65, 62
1, 102384, Note_on_c, 0, 59, 62
1, 102400, Tempo, 549904
1, 102480, Tempo, 547445
1, 102480, Note_on_c, 0, 44, 0
1, 102480, Note_on_c, 0, 53, 51
1, 102514, Note_on_c, 0, 71, 0
1, 102514, Note_on_c, 0, 59, 0
1, 102514, Note_on_c, 0, 65, 0
1, 102520, Tempo, 544910
1, 102528, Note_on_c, 0, 71, 74
1, 102528, Note_on_c, 0, 65, 63
1, 102528, Note_on_c, 0, 59, 63
1, 102600, Tempo, 542446
1, 102600, Note_on_c, 0, 53, 0
1, 102600, Note_on_c, 0, 38, 44
1, 102658, Note_on_c, 0, 71, 0
1, 102658, Note_on_c, 0, 59, 0
1, 102658, Note_on_c, 0, 65, 0
1, 102672, Note_on_c, 0, 59, 63
1, 102672, Note_on_c, 0, 65, 63
1, 102672, Note_on_c, 0, 71, 75
1, 102680, Tempo, 539957
1, 102720, Tempo, 537586
1, 102720, Note_on_c, 0, 38, 0
1, 102720, Note_on_c, 0, 56, 61
1, 102800, Tempo, 535189
1, 102802, Note_on_c, 0, 59, 0
1, 102802, Note_on_c, 0, 71, 0
1, 102802, Note_on_c, 0, 65, 0
1, 102816, Note_on_c, 0, 65, 64
1, 102816, Note_on_c, 0, 59, 64
1, 102816, Note_on_c, 0, 71, 76
1, 102880, Tempo, 532765
1, 102920, Tempo, 530457
1, 102946, Note_on_c, 0, 71, 0
1, 102946, Note_on_c, 0, 59, 0
1, 102946, Note_on_c, 0, 65, 0
1, 102960, Tempo, 532765
1, 102960, Note_on_c, 0, 56, 0
1, 102960, Note_on_c, 0, 70, 77
1, 102960, Note_on_c, 0, 58, 65
1, 102960, Note_on_c, 0, 65, 65
1, 102960, Note_on_c, 0, 38, 61
1, 102975, Control_c, 0, 64, 31
1, 103020, Control_c, 0, 64, 96
1, 103080, Tempo, 535189
1, 103080, Note_on_c, 0, 38, 0
1, 103080, Note_on_c, 0, 44, 51
1, 103090, Note_on_c, 0, 70, 0
1, 103090, Note_on_c, 0, 65, 0
1, 103090, Note_on_c, 0, 58, 0
1, 103104, Note_on_c, 0, 58, 67
1, 103104, Note_on_c, 0, 65, 67
1, 103104, Note_on_c, 0, 70, 79
1, 103200, Tempo, 537586
1, 103200, Note_on_c, 0, 44, 0
1, 103200, Note_on_c, 0, 53, 52
1, 103234, Note_on_c, 0, 58, 0
1, 103234, Note_on_c, 0, 70, 0
1, 103234, Note_on_c, 0, 65, 0
1, 103248, Note_on_c, 0, 70, 80
1, 103248, Note_on_c, 0, 58, 67
1, 103248, Note_on_c, 0, 65, 67
1, 103320, Tempo, 539957
1, 103320, Note_on_c, 0, 53, 0
1, 103320, Note_on_c, 0, 38, 45
1, 103378, Note_on_c, 0, 70, 0
1, 103378, Note_on_c, 0, 65, 0
1, 103378, Note_on_c, 0, 58, 0
1, 103392, Note_on_c, 0, 65, 68
1, 103392, Note_on_c, 0, 70, 81
1, 103392, Note_on_c, 0, 58, 68
1, 103400, Tempo, 542446
1, 103440, Note_on_c, 0, 38, 0
1, 103440, Note_on_c, 0, 56, 61
1, 103522, Note_on_c, 0, 65, 0
1, 103522, Note_on_c, 0, 58, 0
1, 103522, Note_on_c, 0, 70, 0
1, 103536, Note_on_c, 0, 65, 68
1, 103536, Note_on_c, 0, 70, 81
1, 103536, Note_on_c, 0, 58, 68
1, 103666, Note_on_c, 0, 58, 0
1, 103666, Note_on_c, 0, 70, 0
1, 103666, Note_on_c, 0, 65, 0
1, 103680, Note_on_c, 0, 56, 0
1, 103680, Note_on_c, 0, 38, 50
1, 103689, Control_c, 0, 64, 31
1, 103710, Note_on_c, 0, 45, 52
1, 103740, Note_on_c, 0, 53, 54
1, 103744, Control_c, 0, 64, 96
1, 103770, Note_on_c, 0, 57, 77
1, 103800, Note_on_c, 0, 65, 81
1, 103860, Note_on_c, 0, 69, 85
1, 103920, Note_on_c, 0, 65, 0
1, 103920, Note_on_c, 0, 57, 0
1, 103920, Note_on_c, 0, 53, 0
1, 103920, Note_on_c, 0, 45, 0
1, 103950, Note_on_c, 0, 69, 0
1, 104160, Note_on_c, 0, 38, 0
1, 104400, Note_on_c, 0, 98, 102
1, 104400, Note_on_c, 0, 86, 90
1, 104400, Note_on_c, 0, 69, 68
1, 104400, Note_on_c, 0, 74, 81
1, 104400, Note_on_c, 0, 65, 68
1, 104400, Note_on_c, 0, 77, 81
1, 105120, Tempo, 521241
1, 105120, Note_on_c, 0, 77, 0
1, 105120, Note_on_c, 0, 86, 0
1, 105120, Note_on_c, 0, 69, 0
1, 105120, Note_on_c, 0, 98, 0
1, 105120, Note_on_c, 0, 65, 0
1, 105120, Note_on_c, 0, 74, 0
1, 105120, Note_on_c, 0, 94, 86
1, 105180, Note_on_c, 0, 94, 0
1, 105180, Note_on_c, 0, 93, 86
1, 105240, Tempo, 523515
1, 105240, Note_on_c, 0, 93, 0
1, 105240, Note_on_c, 0, 89, 86
1, 105300, Note_on_c, 0, 89, 0
1, 105300, Note_on_c, 0, 86, 85
1, 105360, Tempo, 525762
1, 105360, Note_on_c, 0, 86, 0
1, 105360, Note_on_c, 0, 82, 85
1, 105420, Note_on_c, 0, 82, 0
1, 105420, Note_on_c, 0, 81, 85
1, 105440, Tempo, 528123
1, 105480, Note_on_c, 0, 81, 0
1, 105480, Note_on_c, 0, 77, 84
1, 105540, Note_on_c, 0, 77, 0
1, 105540, Note_on_c, 0, 74, 84
1, 105560, Tempo, 530457
1, 105600, Note_on_c, 0, 74, 0
1, 105600, Note_on_c, 0, 70, 84
1, 105640, Tempo, 532765
1, 105660, Note_on_c, 0, 70, 0
1, 105660, Note_on_c, 0, 69, 83
1, 105720, Note_on_c, 0, 69, 0
1, 105720, Note_on_c, 0, 65, 83
1, 105760, Tempo, 535189
1, 105780, Note_on_c, 0, 65, 0
1, 105780, Note_on_c, 0, 62, 83
1, 105840, Tempo, 537586
1, 105840, Note_on_c, 0, 62, 0
1, 105840, Note_on_c, 0, 58, 82
1, 105900, Note_on_c, 0, 58, 0
1, 105900, Note_on_c, 0, 57, 82
1, 105960, Tempo, 539957
1, 105960, Note_on_c, 0, 57, 0
1, 105960, Note_on_c, 0, 53, 82
1, 106020, Note_on_c, 0, 53, 0
1, 106020, Note_on_c, 0, 50, 81
1, 106040, Tempo, 542446
1, 106080, Note_on_c, 0, 50, 0
1, 106080, Note_on_c, 0, 46, 81
1, 106140, Note_on_c, 0, 46, 0
1, 106140, Note_on_c, 0, 45, 81
1, 106160, Tempo, 544910
1, 106200, Note_on_c, 0, 45, 0
1, 106200, Note_on_c, 0, 41, 81
1, 106240, Tempo, 547445
1, 106260, Note_on_c, 0, 41, 0
1, 106260, Note_on_c, 0, 38, 81
1, 106320, Note_on_c, 0, 38, 0
1, 106320, Note_on_c, 0, 34, 81
1, 106360, Tempo, 549904
1, 106380, Note_on_c, 0, 34, 0
1, 106380, Note_on_c, 0, 33, 80
1, 106440, Tempo, 552435
1, 106440, Note_on_c, 0, 33, 0
1, 106440, Note_on_c, 0, 29, 80
1, 106500, Note_on_c, 0, 29, 0
1, 106500, Note_on_c, 0, 28, 79
1, 106560, Note_on_c, 0, 28, 0
1, 106560, Note_on_c, 0, 26, 113
1, 106560, Control_c, 0, 64, 0
1, 106707, Control_c, 0, 64, 96
1, 107760, Note_on_c, 0, 26, 0
1, 108000, Note_on_c, 0, 26, 115
1, 109200, Note_on_c, 0, 26, 0
1, 109440, Tempo, 743402
1, 109440, Note_on_c, 0, 26, 113
1, 110640, Note_on_c, 0, 26, 0
1, 112094, Control_c, 0, 64, 0
1, 112094, End_track
0, 0, End_of_file
