0, 0, Header, 0, 1, 480
1, 0, Start_track
1, 0, Title_t, "Chopin Prelude  No. 17, Opus 28"
1, 0, Copyright_t, "Copyright © 2002 by Bernd Krueger "
1, 0, Text_t, "Frederic Chopin"
1, 0, Text_t, "Allegretto"
1, 0, Text_t, "Fertiggestellt am 22.10.2002\012"
1, 0, Text_t, "Normierung: 23.12.2002\012"
1, 0, Text_t, "Update am 20.7.2003\012"
1, 0, Text_t, "Update am 23.6.2010\012"
1, 0, Text_t, "Update am 21.2.2014\012"
1, 0, Text_t, "Dauer: 2:42 Minuten\012"
1, 0, SMPTE_offset, 96, 0, 3, 0, 0
1, 0, Time_signature, 6, 3, 12, 8
1, 0, Key_signature, -4, "major"
1, 0, Tempo, 582355
1, 0, Program_c, 0, 0
1, 0, Control_c, 0, 7, 100
1, 0, Control_c, 0, 10, 64
1, 0, Note_on_c, 0, 60, 34
1, 0, Control_c, 0, 91, 127
1, 0, Text_t, "bdca426d104a26ac9dcb070447587523"
1, 0, Program_c, 0, 0
1, 0, Control_c, 0, 7, 100
1, 0, Control_c, 0, 10, 64
1, 0, Control_c, 0, 64, 127
1, 0, Note_on_c, 0, 51, 17
1, 0, Note_on_c, 0, 56, 23
1, 0, Note_on_c, 0, 63, 28
1, 228, Note_on_c, 0, 63, 0
1, 228, Note_on_c, 0, 60, 0
1, 228, Note_on_c, 0, 51, 0
1, 228, Note_on_c, 0, 56, 0
1, 240, Tempo, 552334
1, 240, Note_on_c, 0, 60, 35
1, 240, Note_on_c, 0, 51, 17
1, 240, Note_on_c, 0, 56, 24
1, 240, Note_on_c, 0, 63, 29
1, 468, Note_on_c, 0, 63, 0
1, 468, Note_on_c, 0, 60, 0
1, 468, Note_on_c, 0, 51, 0
1, 468, Note_on_c, 0, 56, 0
1, 480, Note_on_c, 0, 60, 37
1, 480, Note_on_c, 0, 51, 18
1, 480, Note_on_c, 0, 56, 25
1, 480, Note_on_c, 0, 63, 30
1, 708, Note_on_c, 0, 63, 0
1, 708, Note_on_c, 0, 60, 0
1, 708, Note_on_c, 0, 51, 0
1, 708, Note_on_c, 0, 56, 0
1, 720, Tempo, 528961
1, 720, Note_on_c, 0, 60, 38
1, 720, Note_on_c, 0, 51, 18
1, 720, Note_on_c, 0, 56, 25
1, 720, Note_on_c, 0, 63, 30
1, 948, Note_on_c, 0, 63, 0
1, 948, Note_on_c, 0, 60, 0
1, 948, Note_on_c, 0, 51, 0
1, 948, Note_on_c, 0, 56, 0
1, 960, Tempo, 521603
1, 960, Note_on_c, 0, 60, 39
1, 960, Note_on_c, 0, 51, 20
1, 960, Note_on_c, 0, 56, 27
1, 960, Note_on_c, 0, 63, 33
1, 1188, Note_on_c, 0, 63, 0
1, 1188, Note_on_c, 0, 60, 0
1, 1188, Note_on_c, 0, 51, 0
1, 1188, Note_on_c, 0, 56, 0
1, 1200, Note_on_c, 0, 60, 41
1, 1200, Note_on_c, 0, 51, 21
1, 1200, Note_on_c, 0, 56, 28
1, 1200, Note_on_c, 0, 63, 34
1, 1428, Note_on_c, 0, 63, 0
1, 1428, Note_on_c, 0, 60, 0
1, 1428, Note_on_c, 0, 51, 0
1, 1428, Note_on_c, 0, 56, 0
1, 1440, Note_on_c, 0, 60, 43
1, 1440, Note_on_c, 0, 51, 22
1, 1440, Note_on_c, 0, 56, 29
1, 1440, Note_on_c, 0, 63, 35
1, 1668, Note_on_c, 0, 63, 0
1, 1668, Note_on_c, 0, 60, 0
1, 1668, Note_on_c, 0, 51, 0
1, 1668, Note_on_c, 0, 56, 0
1, 1680, Note_on_c, 0, 60, 45
1, 1680, Note_on_c, 0, 51, 22
1, 1680, Note_on_c, 0, 56, 31
1, 1680, Note_on_c, 0, 63, 38
1, 1898, Tempo, 518001
1, 1908, Note_on_c, 0, 63, 0
1, 1908, Note_on_c, 0, 60, 0
1, 1908, Note_on_c, 0, 51, 0
1, 1908, Note_on_c, 0, 56, 0
1, 1920, Note_on_c, 0, 60, 47
1, 1920, Note_on_c, 0, 51, 24
1, 1920, Note_on_c, 0, 56, 33
1, 1920, Note_on_c, 0, 63, 39
1, 1942, Tempo, 521603
1, 1986, Tempo, 525256
1, 2008, Tempo, 528961
1, 2051, Tempo, 532718
1, 2095, Tempo, 536529
1, 2117, Tempo, 540394
1, 2148, Note_on_c, 0, 63, 0
1, 2148, Note_on_c, 0, 60, 0
1, 2148, Note_on_c, 0, 51, 0
1, 2148, Note_on_c, 0, 56, 0
1, 2160, Tempo, 544316
1, 2160, Note_on_c, 0, 60, 47
1, 2160, Note_on_c, 0, 51, 24
1, 2160, Note_on_c, 0, 56, 33
1, 2160, Note_on_c, 0, 63, 39
1, 2204, Tempo, 548296
1, 2226, Tempo, 552334
1, 2280, Tempo, 556019
1, 2360, Tempo, 558815
1, 2388, Note_on_c, 0, 63, 0
1, 2388, Note_on_c, 0, 60, 0
1, 2388, Note_on_c, 0, 51, 0
1, 2388, Note_on_c, 0, 56, 0
1, 2400, Tempo, 567430
1, 2400, Note_on_c, 0, 60, 45
1, 2400, Note_on_c, 0, 51, 22
1, 2400, Note_on_c, 0, 56, 31
1, 2400, Note_on_c, 0, 63, 37
1, 2628, Note_on_c, 0, 63, 0
1, 2628, Note_on_c, 0, 60, 0
1, 2628, Note_on_c, 0, 51, 0
1, 2628, Note_on_c, 0, 56, 0
1, 2640, Tempo, 573285
1, 2640, Note_on_c, 0, 60, 40
1, 2640, Note_on_c, 0, 51, 21
1, 2640, Note_on_c, 0, 56, 28
1, 2640, Note_on_c, 0, 63, 34
1, 2868, Note_on_c, 0, 63, 0
1, 2868, Note_on_c, 0, 60, 0
1, 2868, Note_on_c, 0, 51, 0
1, 2868, Note_on_c, 0, 56, 0
1, 2880, Tempo, 604656
1, 2880, Note_on_c, 0, 61, 48
1, 2880, Note_on_c, 0, 39, 46
1, 2891, Control_c, 0, 64, 0
1, 2987, Control_c, 0, 64, 127
1, 3108, Note_on_c, 0, 39, 0
1, 3108, Note_on_c, 0, 61, 0
1, 3120, Tempo, 525256
1, 3120, Note_on_c, 0, 67, 55
1, 3120, Note_on_c, 0, 61, 42
1, 3120, Note_on_c, 0, 51, 24
1, 3120, Note_on_c, 0, 58, 32
1, 3120, Note_on_c, 0, 63, 32
1, 3348, Note_on_c, 0, 63, 0
1, 3348, Note_on_c, 0, 51, 0
1, 3348, Note_on_c, 0, 67, 0
1, 3348, Note_on_c, 0, 61, 0
1, 3348, Note_on_c, 0, 58, 0
1, 3360, Tempo, 536529
1, 3360, Note_on_c, 0, 72, 57
1, 3360, Note_on_c, 0, 61, 44
1, 3360, Note_on_c, 0, 51, 25
1, 3360, Note_on_c, 0, 58, 34
1, 3360, Note_on_c, 0, 63, 34
1, 3380, Tempo, 550459
1, 3588, Note_on_c, 0, 63, 0
1, 3588, Note_on_c, 0, 51, 0
1, 3588, Note_on_c, 0, 72, 0
1, 3588, Note_on_c, 0, 61, 0
1, 3588, Note_on_c, 0, 58, 0
1, 3600, Tempo, 518001
1, 3600, Note_on_c, 0, 73, 59
1, 3600, Note_on_c, 0, 61, 45
1, 3600, Note_on_c, 0, 51, 27
1, 3600, Note_on_c, 0, 58, 36
1, 3600, Note_on_c, 0, 63, 36
1, 3828, Note_on_c, 0, 63, 0
1, 3828, Note_on_c, 0, 51, 0
1, 3828, Note_on_c, 0, 73, 0
1, 3828, Note_on_c, 0, 61, 0
1, 3828, Note_on_c, 0, 58, 0
1, 3840, Tempo, 545058
1, 3840, Note_on_c, 0, 65, 56
1, 3840, Note_on_c, 0, 61, 43
1, 3840, Note_on_c, 0, 51, 25
1, 3840, Note_on_c, 0, 58, 34
1, 3840, Note_on_c, 0, 63, 34
1, 4068, Note_on_c, 0, 63, 0
1, 4068, Note_on_c, 0, 51, 0
1, 4068, Note_on_c, 0, 65, 0
1, 4068, Note_on_c, 0, 61, 0
1, 4068, Note_on_c, 0, 58, 0
1, 4080, Tempo, 570342
1, 4080, Note_on_c, 0, 67, 55
1, 4080, Note_on_c, 0, 61, 42
1, 4080, Note_on_c, 0, 51, 25
1, 4080, Note_on_c, 0, 58, 34
1, 4080, Note_on_c, 0, 63, 34
1, 4308, Note_on_c, 0, 63, 0
1, 4308, Note_on_c, 0, 51, 0
1, 4308, Note_on_c, 0, 67, 0
1, 4308, Note_on_c, 0, 61, 0
1, 4308, Note_on_c, 0, 58, 0
1, 4320, Tempo, 591716
1, 4320, Note_on_c, 0, 70, 61
1, 4320, Note_on_c, 0, 44, 47
1, 4331, Control_c, 0, 64, 0
1, 4411, Control_c, 0, 64, 127
1, 4548, Note_on_c, 0, 44, 0
1, 4560, Tempo, 518001
1, 4560, Note_on_c, 0, 60, 26
1, 4560, Note_on_c, 0, 66, 31
1, 4560, Note_on_c, 0, 56, 22
1, 4560, Note_on_c, 0, 63, 30
1, 4788, Note_on_c, 0, 63, 0
1, 4788, Note_on_c, 0, 66, 0
1, 4788, Note_on_c, 0, 56, 0
1, 4788, Note_on_c, 0, 60, 0
1, 4800, Tempo, 528961
1, 4800, Note_on_c, 0, 60, 26
1, 4800, Note_on_c, 0, 66, 31
1, 4800, Note_on_c, 0, 56, 21
1, 4800, Note_on_c, 0, 63, 29
1, 5028, Note_on_c, 0, 63, 0
1, 5028, Note_on_c, 0, 66, 0
1, 5028, Note_on_c, 0, 56, 0
1, 5028, Note_on_c, 0, 60, 0
1, 5040, Note_on_c, 0, 70, 0
1, 5040, Note_on_c, 0, 68, 52
1, 5040, Note_on_c, 0, 60, 30
1, 5040, Note_on_c, 0, 66, 36
1, 5040, Note_on_c, 0, 56, 25
1, 5040, Note_on_c, 0, 63, 34
1, 5055, Control_c, 0, 64, 0
1, 5189, Control_c, 0, 64, 127
1, 5268, Note_on_c, 0, 63, 0
1, 5268, Note_on_c, 0, 66, 0
1, 5268, Note_on_c, 0, 56, 0
1, 5268, Note_on_c, 0, 60, 0
1, 5280, Tempo, 564546
1, 5280, Note_on_c, 0, 66, 31
1, 5280, Note_on_c, 0, 60, 26
1, 5280, Note_on_c, 0, 56, 22
1, 5280, Note_on_c, 0, 63, 30
1, 5508, Note_on_c, 0, 63, 0
1, 5508, Note_on_c, 0, 60, 0
1, 5508, Note_on_c, 0, 56, 0
1, 5508, Note_on_c, 0, 66, 0
1, 5520, Tempo, 576314
1, 5520, Note_on_c, 0, 66, 31
1, 5520, Note_on_c, 0, 60, 26
1, 5520, Note_on_c, 0, 56, 22
1, 5520, Note_on_c, 0, 63, 30
1, 5748, Note_on_c, 0, 63, 0
1, 5748, Note_on_c, 0, 60, 0
1, 5748, Note_on_c, 0, 56, 0
1, 5748, Note_on_c, 0, 66, 0
1, 5760, Tempo, 588524
1, 5760, Note_on_c, 0, 49, 47
1, 5768, Control_c, 0, 64, 0
1, 5880, Control_c, 0, 64, 127
1, 5988, Note_on_c, 0, 49, 0
1, 6000, Tempo, 532718
1, 6000, Note_on_c, 0, 68, 0
1, 6000, Note_on_c, 0, 73, 59
1, 6000, Note_on_c, 0, 68, 45
1, 6000, Note_on_c, 0, 56, 21
1, 6000, Note_on_c, 0, 61, 28
1, 6000, Note_on_c, 0, 65, 34
1, 6228, Note_on_c, 0, 65, 0
1, 6228, Note_on_c, 0, 56, 0
1, 6228, Note_on_c, 0, 73, 0
1, 6228, Note_on_c, 0, 68, 0
1, 6228, Note_on_c, 0, 61, 0
1, 6240, Tempo, 528961
1, 6240, Note_on_c, 0, 79, 63
1, 6240, Note_on_c, 0, 68, 49
1, 6240, Note_on_c, 0, 56, 21
1, 6240, Note_on_c, 0, 61, 28
1, 6240, Note_on_c, 0, 65, 34
1, 6468, Note_on_c, 0, 65, 0
1, 6468, Note_on_c, 0, 56, 0
1, 6468, Note_on_c, 0, 79, 0
1, 6468, Note_on_c, 0, 68, 0
1, 6468, Note_on_c, 0, 61, 0
1, 6480, Tempo, 521603
1, 6480, Note_on_c, 0, 82, 68
1, 6480, Note_on_c, 0, 68, 52
1, 6480, Note_on_c, 0, 56, 22
1, 6480, Note_on_c, 0, 61, 30
1, 6480, Note_on_c, 0, 65, 36
1, 6708, Note_on_c, 0, 65, 0
1, 6708, Note_on_c, 0, 56, 0
1, 6708, Note_on_c, 0, 82, 0
1, 6708, Note_on_c, 0, 68, 0
1, 6708, Note_on_c, 0, 61, 0
1, 6720, Tempo, 548296
1, 6720, Note_on_c, 0, 80, 61
1, 6720, Note_on_c, 0, 68, 47
1, 6720, Note_on_c, 0, 56, 21
1, 6720, Note_on_c, 0, 61, 28
1, 6720, Note_on_c, 0, 65, 34
1, 6948, Note_on_c, 0, 65, 0
1, 6948, Note_on_c, 0, 56, 0
1, 6948, Note_on_c, 0, 80, 0
1, 6948, Note_on_c, 0, 68, 0
1, 6948, Note_on_c, 0, 61, 0
1, 6960, Tempo, 573285
1, 6960, Note_on_c, 0, 77, 61
1, 6960, Note_on_c, 0, 68, 47
1, 6960, Note_on_c, 0, 56, 21
1, 6960, Note_on_c, 0, 61, 28
1, 6960, Note_on_c, 0, 65, 34
1, 7188, Note_on_c, 0, 65, 0
1, 7188, Note_on_c, 0, 56, 0
1, 7188, Note_on_c, 0, 77, 0
1, 7188, Note_on_c, 0, 68, 0
1, 7188, Note_on_c, 0, 61, 0
1, 7200, Note_on_c, 0, 75, 71
1, 7200, Note_on_c, 0, 51, 47
1, 7213, Control_c, 0, 64, 0
1, 7347, Control_c, 0, 64, 127
1, 7428, Note_on_c, 0, 51, 0
1, 7440, Tempo, 535714
1, 7440, Note_on_c, 0, 63, 42
1, 7440, Note_on_c, 0, 70, 50
1, 7440, Note_on_c, 0, 58, 18
1, 7440, Note_on_c, 0, 61, 24
1, 7440, Note_on_c, 0, 67, 29
1, 7668, Note_on_c, 0, 67, 0
1, 7668, Note_on_c, 0, 63, 0
1, 7668, Note_on_c, 0, 70, 0
1, 7668, Note_on_c, 0, 58, 0
1, 7668, Note_on_c, 0, 61, 0
1, 7680, Tempo, 579318
1, 7680, Note_on_c, 0, 63, 42
1, 7680, Note_on_c, 0, 70, 50
1, 7680, Note_on_c, 0, 58, 18
1, 7680, Note_on_c, 0, 61, 25
1, 7680, Note_on_c, 0, 67, 30
1, 7908, Note_on_c, 0, 67, 0
1, 7908, Note_on_c, 0, 63, 0
1, 7908, Note_on_c, 0, 70, 0
1, 7908, Note_on_c, 0, 58, 0
1, 7908, Note_on_c, 0, 61, 0
1, 7920, Tempo, 539568
1, 7920, Note_on_c, 0, 75, 0
1, 7920, Note_on_c, 0, 77, 69
1, 7920, Note_on_c, 0, 49, 47
1, 7930, Control_c, 0, 64, 0
1, 8053, Control_c, 0, 64, 127
1, 8148, Note_on_c, 0, 49, 0
1, 8160, Tempo, 564546
1, 8160, Note_on_c, 0, 73, 50
1, 8160, Note_on_c, 0, 65, 42
1, 8160, Note_on_c, 0, 56, 16
1, 8160, Note_on_c, 0, 61, 22
1, 8160, Note_on_c, 0, 68, 27
1, 8388, Note_on_c, 0, 68, 0
1, 8388, Note_on_c, 0, 73, 0
1, 8388, Note_on_c, 0, 65, 0
1, 8388, Note_on_c, 0, 56, 0
1, 8388, Note_on_c, 0, 61, 0
1, 8400, Note_on_c, 0, 73, 48
1, 8400, Note_on_c, 0, 65, 40
1, 8400, Note_on_c, 0, 56, 16
1, 8400, Note_on_c, 0, 61, 22
1, 8400, Note_on_c, 0, 68, 27
1, 8628, Note_on_c, 0, 68, 0
1, 8628, Note_on_c, 0, 73, 0
1, 8628, Note_on_c, 0, 65, 0
1, 8628, Note_on_c, 0, 56, 0
1, 8628, Note_on_c, 0, 61, 0
1, 8640, Tempo, 594884
1, 8640, Note_on_c, 0, 51, 47
1, 8640, Control_c, 0, 64, 0
1, 8649, Control_c, 0, 64, 0
1, 8760, Control_c, 0, 64, 127
1, 8868, Note_on_c, 0, 51, 0
1, 8880, Tempo, 525256
1, 8880, Note_on_c, 0, 77, 0
1, 8880, Note_on_c, 0, 70, 59
1, 8880, Note_on_c, 0, 58, 21
1, 8880, Note_on_c, 0, 61, 28
1, 8880, Note_on_c, 0, 67, 34
1, 9108, Note_on_c, 0, 67, 0
1, 9108, Note_on_c, 0, 70, 0
1, 9108, Note_on_c, 0, 58, 0
1, 9108, Note_on_c, 0, 61, 0
1, 9120, Tempo, 525256
1, 9120, Note_on_c, 0, 75, 63
1, 9120, Note_on_c, 0, 63, 49
1, 9120, Note_on_c, 0, 70, 49
1, 9120, Note_on_c, 0, 58, 21
1, 9120, Note_on_c, 0, 61, 28
1, 9120, Note_on_c, 0, 67, 34
1, 9348, Note_on_c, 0, 67, 0
1, 9348, Note_on_c, 0, 63, 0
1, 9348, Note_on_c, 0, 70, 0
1, 9348, Note_on_c, 0, 75, 0
1, 9348, Note_on_c, 0, 61, 0
1, 9348, Note_on_c, 0, 58, 0
1, 9360, Tempo, 510943
1, 9360, Note_on_c, 0, 79, 64
1, 9360, Note_on_c, 0, 70, 52
1, 9360, Note_on_c, 0, 58, 22
1, 9360, Note_on_c, 0, 61, 30
1, 9360, Note_on_c, 0, 67, 36
1, 9588, Note_on_c, 0, 67, 0
1, 9588, Note_on_c, 0, 58, 0
1, 9588, Note_on_c, 0, 79, 0
1, 9588, Note_on_c, 0, 70, 0
1, 9588, Note_on_c, 0, 61, 0
1, 9600, Tempo, 521603
1, 9600, Note_on_c, 0, 77, 61
1, 9600, Note_on_c, 0, 70, 47
1, 9600, Note_on_c, 0, 58, 21
1, 9600, Note_on_c, 0, 61, 28
1, 9600, Note_on_c, 0, 67, 34
1, 9828, Note_on_c, 0, 67, 0
1, 9828, Note_on_c, 0, 58, 0
1, 9828, Note_on_c, 0, 77, 0
1, 9828, Note_on_c, 0, 70, 0
1, 9828, Note_on_c, 0, 61, 0
1, 9840, Tempo, 573285
1, 9840, Note_on_c, 0, 73, 61
1, 9840, Note_on_c, 0, 70, 47
1, 9840, Note_on_c, 0, 58, 21
1, 9840, Note_on_c, 0, 61, 28
1, 9840, Note_on_c, 0, 67, 34
1, 10068, Note_on_c, 0, 67, 0
1, 10068, Note_on_c, 0, 58, 0
1, 10068, Note_on_c, 0, 73, 0
1, 10068, Note_on_c, 0, 70, 0
1, 10068, Note_on_c, 0, 61, 0
1, 10080, Note_on_c, 0, 72, 70
1, 10080, Note_on_c, 0, 53, 47
1, 10093, Control_c, 0, 64, 0
1, 10227, Control_c, 0, 64, 127
1, 10320, Tempo, 556019
1, 10320, Note_on_c, 0, 63, 37
1, 10320, Note_on_c, 0, 69, 45
1, 10320, Note_on_c, 0, 60, 21
1, 10320, Note_on_c, 0, 65, 29
1, 10548, Note_on_c, 0, 65, 0
1, 10548, Note_on_c, 0, 69, 0
1, 10548, Note_on_c, 0, 63, 0
1, 10548, Note_on_c, 0, 60, 0
1, 10560, Tempo, 579318
1, 10560, Note_on_c, 0, 63, 37
1, 10560, Note_on_c, 0, 69, 45
1, 10560, Note_on_c, 0, 60, 22
1, 10560, Note_on_c, 0, 65, 30
1, 10788, Note_on_c, 0, 65, 0
1, 10788, Note_on_c, 0, 69, 0
1, 10788, Note_on_c, 0, 63, 0
1, 10788, Note_on_c, 0, 60, 0
1, 10800, Tempo, 556019
1, 10800, Note_on_c, 0, 53, 0
1, 10800, Note_on_c, 0, 72, 0
1, 10800, Note_on_c, 0, 73, 58
1, 10800, Note_on_c, 0, 46, 39
1, 10810, Control_c, 0, 64, 0
1, 10933, Control_c, 0, 64, 127
1, 11028, Note_on_c, 0, 46, 0
1, 11040, Tempo, 564546
1, 11040, Note_on_c, 0, 68, 35
1, 11040, Note_on_c, 0, 61, 29
1, 11040, Note_on_c, 0, 53, 13
1, 11040, Note_on_c, 0, 58, 15
1, 11040, Note_on_c, 0, 65, 18
1, 11268, Note_on_c, 0, 65, 0
1, 11268, Note_on_c, 0, 68, 0
1, 11268, Note_on_c, 0, 61, 0
1, 11268, Note_on_c, 0, 53, 0
1, 11268, Note_on_c, 0, 58, 0
1, 11280, Note_on_c, 0, 68, 34
1, 11280, Note_on_c, 0, 61, 28
1, 11280, Note_on_c, 0, 53, 13
1, 11280, Note_on_c, 0, 58, 15
1, 11280, Note_on_c, 0, 65, 18
1, 11508, Note_on_c, 0, 65, 0
1, 11508, Note_on_c, 0, 68, 0
1, 11508, Note_on_c, 0, 61, 0
1, 11508, Note_on_c, 0, 53, 0
1, 11508, Note_on_c, 0, 58, 0
1, 11520, Tempo, 594884
1, 11520, Note_on_c, 0, 51, 39
1, 11520, Control_c, 0, 64, 0
1, 11531, Control_c, 0, 64, 0
1, 11640, Control_c, 0, 64, 127
1, 11760, Tempo, 542397
1, 11760, Note_on_c, 0, 73, 0
1, 11760, Note_on_c, 0, 68, 50
1, 11760, Note_on_c, 0, 61, 41
1, 11760, Note_on_c, 0, 58, 21
1, 11760, Note_on_c, 0, 65, 28
1, 11988, Note_on_c, 0, 65, 0
1, 11988, Note_on_c, 0, 61, 0
1, 11988, Note_on_c, 0, 58, 0
1, 11988, Note_on_c, 0, 68, 0
1, 12000, Tempo, 528961
1, 12000, Note_on_c, 0, 67, 41
1, 12000, Note_on_c, 0, 61, 34
1, 12000, Note_on_c, 0, 70, 53
1, 12000, Note_on_c, 0, 58, 21
1, 12000, Note_on_c, 0, 63, 28
1, 12228, Note_on_c, 0, 63, 0
1, 12228, Note_on_c, 0, 67, 0
1, 12228, Note_on_c, 0, 61, 0
1, 12228, Note_on_c, 0, 70, 0
1, 12228, Note_on_c, 0, 58, 0
1, 12240, Tempo, 514447
1, 12240, Note_on_c, 0, 51, 0
1, 12240, Note_on_c, 0, 73, 57
1, 12240, Note_on_c, 0, 44, 39
1, 12254, Control_c, 0, 64, 0
1, 12334, Control_c, 0, 64, 127
1, 12468, Note_on_c, 0, 44, 0
1, 12468, Note_on_c, 0, 73, 0
1, 12480, Tempo, 548296
1, 12480, Note_on_c, 0, 68, 39
1, 12480, Note_on_c, 0, 60, 33
1, 12480, Note_on_c, 0, 72, 51
1, 12480, Note_on_c, 0, 51, 17
1, 12480, Note_on_c, 0, 56, 23
1, 12480, Note_on_c, 0, 63, 28
1, 12708, Note_on_c, 0, 63, 0
1, 12708, Note_on_c, 0, 60, 0
1, 12708, Note_on_c, 0, 72, 0
1, 12708, Note_on_c, 0, 68, 0
1, 12708, Note_on_c, 0, 56, 0
1, 12708, Note_on_c, 0, 51, 0
1, 12720, Tempo, 585423
1, 12720, Note_on_c, 0, 68, 46
1, 12720, Note_on_c, 0, 60, 29
1, 12720, Note_on_c, 0, 65, 35
1, 12720, Note_on_c, 0, 51, 15
1, 12720, Note_on_c, 0, 56, 21
1, 12720, Note_on_c, 0, 63, 25
1, 12948, Note_on_c, 0, 63, 0
1, 12948, Note_on_c, 0, 60, 0
1, 12948, Note_on_c, 0, 65, 0
1, 12948, Note_on_c, 0, 68, 0
1, 12948, Note_on_c, 0, 56, 0
1, 12948, Note_on_c, 0, 51, 0
1, 12960, Tempo, 573285
1, 12960, Note_on_c, 0, 70, 55
1, 12960, Note_on_c, 0, 39, 39
1, 12973, Control_c, 0, 64, 0
1, 13133, Control_c, 0, 64, 127
1, 13188, Note_on_c, 0, 39, 0
1, 13200, Tempo, 550459
1, 13200, Note_on_c, 0, 58, 34
1, 13200, Note_on_c, 0, 67, 40
1, 13200, Note_on_c, 0, 51, 18
1, 13200, Note_on_c, 0, 63, 25
1, 13428, Note_on_c, 0, 63, 0
1, 13428, Note_on_c, 0, 67, 0
1, 13428, Note_on_c, 0, 51, 0
1, 13428, Note_on_c, 0, 58, 0
1, 13440, Note_on_c, 0, 58, 33
1, 13440, Note_on_c, 0, 67, 39
1, 13440, Note_on_c, 0, 51, 17
1, 13440, Note_on_c, 0, 63, 23
1, 13668, Note_on_c, 0, 63, 0
1, 13668, Note_on_c, 0, 67, 0
1, 13668, Note_on_c, 0, 51, 0
1, 13668, Note_on_c, 0, 58, 0
1, 13680, Note_on_c, 0, 58, 34
1, 13680, Note_on_c, 0, 67, 40
1, 13680, Note_on_c, 0, 51, 18
1, 13680, Note_on_c, 0, 63, 25
1, 13908, Note_on_c, 0, 63, 0
1, 13908, Note_on_c, 0, 67, 0
1, 13908, Note_on_c, 0, 51, 0
1, 13908, Note_on_c, 0, 58, 0
1, 13920, Note_on_c, 0, 58, 32
1, 13920, Note_on_c, 0, 67, 38
1, 13920, Note_on_c, 0, 51, 17
1, 13920, Note_on_c, 0, 63, 23
1, 14148, Note_on_c, 0, 63, 0
1, 14148, Note_on_c, 0, 67, 0
1, 14148, Note_on_c, 0, 51, 0
1, 14148, Note_on_c, 0, 58, 0
1, 14160, Tempo, 582355
1, 14160, Note_on_c, 0, 58, 32
1, 14160, Note_on_c, 0, 67, 38
1, 14160, Note_on_c, 0, 51, 17
1, 14160, Note_on_c, 0, 63, 23
1, 14388, Note_on_c, 0, 63, 0
1, 14388, Note_on_c, 0, 67, 0
1, 14388, Note_on_c, 0, 51, 0
1, 14388, Note_on_c, 0, 58, 0
1, 14400, Tempo, 604656
1, 14400, Note_on_c, 0, 61, 64
1, 14400, Note_on_c, 0, 39, 69
1, 14409, Control_c, 0, 64, 0
1, 14507, Control_c, 0, 64, 127
1, 14628, Note_on_c, 0, 39, 0
1, 14628, Note_on_c, 0, 61, 0
1, 14640, Tempo, 539763
1, 14640, Note_on_c, 0, 70, 0
1, 14640, Note_on_c, 0, 67, 68
1, 14640, Note_on_c, 0, 61, 52
1, 14640, Note_on_c, 0, 51, 28
1, 14640, Note_on_c, 0, 58, 39
1, 14640, Note_on_c, 0, 63, 39
1, 14868, Note_on_c, 0, 63, 0
1, 14868, Note_on_c, 0, 51, 0
1, 14868, Note_on_c, 0, 67, 0
1, 14868, Note_on_c, 0, 61, 0
1, 14868, Note_on_c, 0, 58, 0
1, 14880, Tempo, 521603
1, 14880, Note_on_c, 0, 61, 54
1, 14880, Note_on_c, 0, 67, 54
1, 14880, Note_on_c, 0, 72, 70
1, 14880, Note_on_c, 0, 51, 30
1, 14880, Note_on_c, 0, 58, 42
1, 14880, Note_on_c, 0, 63, 42
1, 15108, Note_on_c, 0, 63, 0
1, 15108, Note_on_c, 0, 67, 0
1, 15108, Note_on_c, 0, 72, 0
1, 15108, Note_on_c, 0, 61, 0
1, 15108, Note_on_c, 0, 58, 0
1, 15108, Note_on_c, 0, 51, 0
1, 15120, Tempo, 514447
1, 15120, Note_on_c, 0, 73, 72
1, 15120, Note_on_c, 0, 67, 55
1, 15120, Note_on_c, 0, 61, 55
1, 15120, Note_on_c, 0, 51, 32
1, 15120, Note_on_c, 0, 58, 44
1, 15120, Note_on_c, 0, 63, 44
1, 15348, Note_on_c, 0, 63, 0
1, 15348, Note_on_c, 0, 67, 0
1, 15348, Note_on_c, 0, 61, 0
1, 15348, Note_on_c, 0, 73, 0
1, 15348, Note_on_c, 0, 58, 0
1, 15348, Note_on_c, 0, 51, 0
1, 15360, Tempo, 545058
1, 15360, Note_on_c, 0, 65, 69
1, 15360, Note_on_c, 0, 61, 53
1, 15360, Note_on_c, 0, 51, 30
1, 15360, Note_on_c, 0, 58, 42
1, 15360, Note_on_c, 0, 63, 42
1, 15588, Note_on_c, 0, 63, 0
1, 15588, Note_on_c, 0, 51, 0
1, 15588, Note_on_c, 0, 65, 0
1, 15588, Note_on_c, 0, 61, 0
1, 15588, Note_on_c, 0, 58, 0
1, 15600, Tempo, 570342
1, 15600, Note_on_c, 0, 67, 68
1, 15600, Note_on_c, 0, 61, 52
1, 15600, Note_on_c, 0, 51, 30
1, 15600, Note_on_c, 0, 58, 42
1, 15600, Note_on_c, 0, 63, 42
1, 15828, Note_on_c, 0, 63, 0
1, 15828, Note_on_c, 0, 51, 0
1, 15828, Note_on_c, 0, 67, 0
1, 15828, Note_on_c, 0, 61, 0
1, 15828, Note_on_c, 0, 58, 0
1, 15840, Tempo, 591716
1, 15840, Note_on_c, 0, 70, 72
1, 15840, Note_on_c, 0, 44, 66
1, 15851, Control_c, 0, 64, 0
1, 15931, Control_c, 0, 64, 127
1, 16068, Note_on_c, 0, 44, 0
1, 16080, Tempo, 518001
1, 16080, Note_on_c, 0, 60, 37
1, 16080, Note_on_c, 0, 66, 44
1, 16080, Note_on_c, 0, 51, 32
1, 16080, Note_on_c, 0, 56, 32
1, 16080, Note_on_c, 0, 63, 43
1, 16308, Note_on_c, 0, 63, 0
1, 16308, Note_on_c, 0, 60, 0
1, 16308, Note_on_c, 0, 66, 0
1, 16308, Note_on_c, 0, 51, 0
1, 16308, Note_on_c, 0, 56, 0
1, 16320, Tempo, 525256
1, 16320, Note_on_c, 0, 60, 37
1, 16320, Note_on_c, 0, 66, 44
1, 16320, Note_on_c, 0, 51, 32
1, 16320, Note_on_c, 0, 56, 32
1, 16320, Note_on_c, 0, 63, 42
1, 16548, Note_on_c, 0, 63, 0
1, 16548, Note_on_c, 0, 60, 0
1, 16548, Note_on_c, 0, 66, 0
1, 16548, Note_on_c, 0, 51, 0
1, 16548, Note_on_c, 0, 56, 0
1, 16560, Note_on_c, 0, 70, 0
1, 16560, Note_on_c, 0, 68, 73
1, 16560, Note_on_c, 0, 60, 43
1, 16560, Note_on_c, 0, 66, 52
1, 16560, Note_on_c, 0, 51, 36
1, 16560, Note_on_c, 0, 56, 36
1, 16560, Note_on_c, 0, 63, 50
1, 16575, Control_c, 0, 64, 0
1, 16709, Control_c, 0, 64, 127
1, 16788, Note_on_c, 0, 63, 0
1, 16788, Note_on_c, 0, 60, 0
1, 16788, Note_on_c, 0, 66, 0
1, 16788, Note_on_c, 0, 51, 0
1, 16788, Note_on_c, 0, 56, 0
1, 16800, Tempo, 564546
1, 16800, Note_on_c, 0, 66, 44
1, 16800, Note_on_c, 0, 60, 37
1, 16800, Note_on_c, 0, 51, 32
1, 16800, Note_on_c, 0, 56, 32
1, 16800, Note_on_c, 0, 63, 43
1, 17028, Note_on_c, 0, 63, 0
1, 17028, Note_on_c, 0, 66, 0
1, 17028, Note_on_c, 0, 60, 0
1, 17028, Note_on_c, 0, 51, 0
1, 17028, Note_on_c, 0, 56, 0
1, 17040, Tempo, 576314
1, 17040, Note_on_c, 0, 66, 44
1, 17040, Note_on_c, 0, 60, 37
1, 17040, Note_on_c, 0, 51, 32
1, 17040, Note_on_c, 0, 56, 32
1, 17040, Note_on_c, 0, 63, 43
1, 17268, Note_on_c, 0, 63, 0
1, 17268, Note_on_c, 0, 66, 0
1, 17268, Note_on_c, 0, 60, 0
1, 17268, Note_on_c, 0, 51, 0
1, 17268, Note_on_c, 0, 56, 0
1, 17280, Tempo, 588524
1, 17280, Note_on_c, 0, 37, 71
1, 17291, Control_c, 0, 64, 0
1, 17400, Control_c, 0, 64, 127
1, 17508, Note_on_c, 0, 37, 0
1, 17520, Tempo, 532718
1, 17520, Note_on_c, 0, 68, 0
1, 17520, Note_on_c, 0, 73, 72
1, 17520, Note_on_c, 0, 68, 55
1, 17520, Note_on_c, 0, 53, 20
1, 17520, Note_on_c, 0, 56, 20
1, 17520, Note_on_c, 0, 61, 34
1, 17520, Note_on_c, 0, 65, 41
1, 17748, Note_on_c, 0, 65, 0
1, 17748, Note_on_c, 0, 68, 0
1, 17748, Note_on_c, 0, 53, 0
1, 17748, Note_on_c, 0, 73, 0
1, 17748, Note_on_c, 0, 61, 0
1, 17748, Note_on_c, 0, 56, 0
1, 17760, Tempo, 514447
1, 17760, Note_on_c, 0, 68, 50
1, 17760, Note_on_c, 0, 73, 59
1, 17760, Note_on_c, 0, 79, 75
1, 17760, Note_on_c, 0, 53, 20
1, 17760, Note_on_c, 0, 56, 20
1, 17760, Note_on_c, 0, 61, 34
1, 17760, Note_on_c, 0, 65, 41
1, 17988, Note_on_c, 0, 65, 0
1, 17988, Note_on_c, 0, 56, 0
1, 17988, Note_on_c, 0, 73, 0
1, 17988, Note_on_c, 0, 79, 0
1, 17988, Note_on_c, 0, 68, 0
1, 17988, Note_on_c, 0, 61, 0
1, 17988, Note_on_c, 0, 53, 0
1, 18000, Tempo, 504075
1, 18000, Note_on_c, 0, 73, 62
1, 18000, Note_on_c, 0, 82, 80
1, 18000, Note_on_c, 0, 68, 52
1, 18000, Note_on_c, 0, 53, 22
1, 18000, Note_on_c, 0, 56, 22
1, 18000, Note_on_c, 0, 61, 36
1, 18000, Note_on_c, 0, 65, 45
1, 18228, Note_on_c, 0, 65, 0
1, 18228, Note_on_c, 0, 56, 0
1, 18228, Note_on_c, 0, 82, 0
1, 18228, Note_on_c, 0, 68, 0
1, 18228, Note_on_c, 0, 73, 0
1, 18228, Note_on_c, 0, 61, 0
1, 18228, Note_on_c, 0, 53, 0
1, 18240, Tempo, 528961
1, 18240, Note_on_c, 0, 73, 57
1, 18240, Note_on_c, 0, 80, 75
1, 18240, Note_on_c, 0, 68, 48
1, 18240, Note_on_c, 0, 53, 20
1, 18240, Note_on_c, 0, 56, 20
1, 18240, Note_on_c, 0, 61, 34
1, 18240, Note_on_c, 0, 65, 41
1, 18468, Note_on_c, 0, 65, 0
1, 18468, Note_on_c, 0, 56, 0
1, 18468, Note_on_c, 0, 80, 0
1, 18468, Note_on_c, 0, 68, 0
1, 18468, Note_on_c, 0, 73, 0
1, 18468, Note_on_c, 0, 61, 0
1, 18468, Note_on_c, 0, 53, 0
1, 18480, Tempo, 573285
1, 18480, Note_on_c, 0, 68, 48
1, 18480, Note_on_c, 0, 73, 57
1, 18480, Note_on_c, 0, 77, 75
1, 18480, Note_on_c, 0, 53, 20
1, 18480, Note_on_c, 0, 56, 20
1, 18480, Note_on_c, 0, 61, 34
1, 18480, Note_on_c, 0, 65, 41
1, 18708, Note_on_c, 0, 65, 0
1, 18708, Note_on_c, 0, 56, 0
1, 18708, Note_on_c, 0, 73, 0
1, 18708, Note_on_c, 0, 77, 0
1, 18708, Note_on_c, 0, 68, 0
1, 18708, Note_on_c, 0, 61, 0
1, 18708, Note_on_c, 0, 53, 0
1, 18720, Note_on_c, 0, 75, 88
1, 18720, Note_on_c, 0, 51, 65
1, 18733, Control_c, 0, 64, 0
1, 18867, Control_c, 0, 64, 127
1, 18948, Note_on_c, 0, 51, 0
1, 18960, Tempo, 524476
1, 18960, Note_on_c, 0, 70, 65
1, 18960, Note_on_c, 0, 63, 54
1, 18960, Note_on_c, 0, 58, 19
1, 18960, Note_on_c, 0, 61, 27
1, 18960, Note_on_c, 0, 67, 33
1, 19188, Note_on_c, 0, 67, 0
1, 19188, Note_on_c, 0, 70, 0
1, 19188, Note_on_c, 0, 63, 0
1, 19188, Note_on_c, 0, 58, 0
1, 19188, Note_on_c, 0, 61, 0
1, 19200, Tempo, 579318
1, 19200, Note_on_c, 0, 70, 65
1, 19200, Note_on_c, 0, 63, 54
1, 19200, Note_on_c, 0, 58, 20
1, 19200, Note_on_c, 0, 61, 28
1, 19200, Note_on_c, 0, 67, 34
1, 19428, Note_on_c, 0, 67, 0
1, 19428, Note_on_c, 0, 70, 0
1, 19428, Note_on_c, 0, 63, 0
1, 19428, Note_on_c, 0, 58, 0
1, 19428, Note_on_c, 0, 61, 0
1, 19440, Tempo, 520833
1, 19440, Note_on_c, 0, 75, 0
1, 19440, Note_on_c, 0, 77, 84
1, 19440, Note_on_c, 0, 49, 57
1, 19456, Control_c, 0, 64, 0
1, 19573, Control_c, 0, 64, 127
1, 19668, Note_on_c, 0, 49, 0
1, 19680, Tempo, 564546
1, 19680, Note_on_c, 0, 65, 54
1, 19680, Note_on_c, 0, 73, 65
1, 19680, Note_on_c, 0, 56, 18
1, 19680, Note_on_c, 0, 61, 25
1, 19680, Note_on_c, 0, 68, 30
1, 19908, Note_on_c, 0, 68, 0
1, 19908, Note_on_c, 0, 65, 0
1, 19908, Note_on_c, 0, 73, 0
1, 19908, Note_on_c, 0, 56, 0
1, 19908, Note_on_c, 0, 61, 0
1, 19920, Note_on_c, 0, 65, 52
1, 19920, Note_on_c, 0, 73, 62
1, 19920, Note_on_c, 0, 56, 18
1, 19920, Note_on_c, 0, 61, 25
1, 19920, Note_on_c, 0, 68, 30
1, 20148, Note_on_c, 0, 68, 0
1, 20148, Note_on_c, 0, 65, 0
1, 20148, Note_on_c, 0, 73, 0
1, 20148, Note_on_c, 0, 56, 0
1, 20148, Note_on_c, 0, 61, 0
1, 20160, Tempo, 594884
1, 20160, Note_on_c, 0, 51, 69
1, 20160, Control_c, 0, 64, 0
1, 20170, Control_c, 0, 64, 0
1, 20280, Control_c, 0, 64, 127
1, 20388, Note_on_c, 0, 51, 0
1, 20400, Tempo, 542397
1, 20400, Note_on_c, 0, 77, 0
1, 20400, Note_on_c, 0, 70, 72
1, 20400, Note_on_c, 0, 58, 25
1, 20400, Note_on_c, 0, 61, 34
1, 20400, Note_on_c, 0, 67, 41
1, 20628, Note_on_c, 0, 67, 0
1, 20628, Note_on_c, 0, 70, 0
1, 20628, Note_on_c, 0, 58, 0
1, 20628, Note_on_c, 0, 61, 0
1, 20640, Tempo, 528961
1, 20640, Note_on_c, 0, 70, 59
1, 20640, Note_on_c, 0, 63, 51
1, 20640, Note_on_c, 0, 75, 75
1, 20640, Note_on_c, 0, 58, 25
1, 20640, Note_on_c, 0, 61, 34
1, 20640, Note_on_c, 0, 67, 41
1, 20868, Note_on_c, 0, 67, 0
1, 20868, Note_on_c, 0, 63, 0
1, 20868, Note_on_c, 0, 75, 0
1, 20868, Note_on_c, 0, 70, 0
1, 20868, Note_on_c, 0, 61, 0
1, 20868, Note_on_c, 0, 58, 0
1, 20880, Tempo, 514447
1, 20880, Note_on_c, 0, 70, 64
1, 20880, Note_on_c, 0, 79, 80
1, 20880, Note_on_c, 0, 63, 36
1, 20880, Note_on_c, 0, 58, 27
1, 20880, Note_on_c, 0, 61, 36
1, 20880, Note_on_c, 0, 67, 45
1, 21108, Note_on_c, 0, 67, 0
1, 21108, Note_on_c, 0, 79, 0
1, 21108, Note_on_c, 0, 63, 0
1, 21108, Note_on_c, 0, 70, 0
1, 21108, Note_on_c, 0, 61, 0
1, 21108, Note_on_c, 0, 58, 0
1, 21120, Tempo, 532718
1, 21120, Note_on_c, 0, 70, 57
1, 21120, Note_on_c, 0, 77, 75
1, 21120, Note_on_c, 0, 63, 34
1, 21120, Note_on_c, 0, 58, 25
1, 21120, Note_on_c, 0, 61, 34
1, 21120, Note_on_c, 0, 67, 41
1, 21348, Note_on_c, 0, 67, 0
1, 21348, Note_on_c, 0, 77, 0
1, 21348, Note_on_c, 0, 63, 0
1, 21348, Note_on_c, 0, 70, 0
1, 21348, Note_on_c, 0, 61, 0
1, 21348, Note_on_c, 0, 58, 0
1, 21360, Tempo, 573285
1, 21360, Note_on_c, 0, 63, 51
1, 21360, Note_on_c, 0, 73, 75
1, 21360, Note_on_c, 0, 70, 57
1, 21360, Note_on_c, 0, 58, 25
1, 21360, Note_on_c, 0, 61, 34
1, 21360, Note_on_c, 0, 67, 41
1, 21588, Note_on_c, 0, 67, 0
1, 21588, Note_on_c, 0, 73, 0
1, 21588, Note_on_c, 0, 70, 0
1, 21588, Note_on_c, 0, 63, 0
1, 21588, Note_on_c, 0, 61, 0
1, 21588, Note_on_c, 0, 58, 0
1, 21600, Note_on_c, 0, 72, 81
1, 21600, Note_on_c, 0, 41, 68
1, 21613, Control_c, 0, 64, 0
1, 21747, Control_c, 0, 64, 127
1, 21828, Note_on_c, 0, 41, 0
1, 21840, Tempo, 540394
1, 21840, Note_on_c, 0, 63, 49
1, 21840, Note_on_c, 0, 69, 58
1, 21840, Note_on_c, 0, 53, 24
1, 21840, Note_on_c, 0, 60, 24
1, 21840, Note_on_c, 0, 65, 33
1, 22068, Note_on_c, 0, 65, 0
1, 22068, Note_on_c, 0, 63, 0
1, 22068, Note_on_c, 0, 69, 0
1, 22068, Note_on_c, 0, 53, 0
1, 22068, Note_on_c, 0, 60, 0
1, 22080, Tempo, 604656
1, 22080, Note_on_c, 0, 63, 49
1, 22080, Note_on_c, 0, 69, 58
1, 22080, Note_on_c, 0, 53, 25
1, 22080, Note_on_c, 0, 60, 25
1, 22080, Note_on_c, 0, 65, 34
1, 22308, Note_on_c, 0, 65, 0
1, 22308, Note_on_c, 0, 63, 0
1, 22308, Note_on_c, 0, 69, 0
1, 22308, Note_on_c, 0, 53, 0
1, 22308, Note_on_c, 0, 60, 0
1, 22320, Tempo, 548296
1, 22320, Note_on_c, 0, 72, 0
1, 22320, Note_on_c, 0, 73, 81
1, 22320, Note_on_c, 0, 46, 57
1, 22334, Control_c, 0, 64, 0
1, 22453, Control_c, 0, 64, 127
1, 22548, Note_on_c, 0, 46, 0
1, 22560, Tempo, 579318
1, 22560, Note_on_c, 0, 68, 56
1, 22560, Note_on_c, 0, 61, 47
1, 22560, Note_on_c, 0, 53, 21
1, 22560, Note_on_c, 0, 58, 24
1, 22560, Note_on_c, 0, 65, 29
1, 22788, Note_on_c, 0, 65, 0
1, 22788, Note_on_c, 0, 68, 0
1, 22788, Note_on_c, 0, 61, 0
1, 22788, Note_on_c, 0, 53, 0
1, 22788, Note_on_c, 0, 58, 0
1, 22800, Note_on_c, 0, 68, 53
1, 22800, Note_on_c, 0, 61, 44
1, 22800, Note_on_c, 0, 53, 21
1, 22800, Note_on_c, 0, 58, 24
1, 22800, Note_on_c, 0, 65, 29
1, 23028, Note_on_c, 0, 65, 0
1, 23028, Note_on_c, 0, 68, 0
1, 23028, Note_on_c, 0, 61, 0
1, 23028, Note_on_c, 0, 53, 0
1, 23028, Note_on_c, 0, 58, 0
1, 23040, Tempo, 621633
1, 23040, Note_on_c, 0, 51, 57
1, 23040, Control_c, 0, 64, 0
1, 23050, Control_c, 0, 64, 0
1, 23160, Control_c, 0, 64, 127
1, 23268, Note_on_c, 0, 51, 0
1, 23280, Tempo, 564546
1, 23280, Note_on_c, 0, 73, 0
1, 23280, Note_on_c, 0, 61, 64
1, 23280, Note_on_c, 0, 53, 27
1, 23280, Note_on_c, 0, 58, 30
1, 23280, Note_on_c, 0, 65, 36
1, 23508, Note_on_c, 0, 65, 0
1, 23508, Note_on_c, 0, 61, 0
1, 23508, Note_on_c, 0, 53, 0
1, 23508, Note_on_c, 0, 58, 0
1, 23520, Tempo, 573285
1, 23520, Note_on_c, 0, 61, 45
1, 23520, Note_on_c, 0, 68, 68
1, 23520, Note_on_c, 0, 53, 27
1, 23520, Note_on_c, 0, 58, 30
1, 23520, Note_on_c, 0, 65, 36
1, 23748, Note_on_c, 0, 65, 0
1, 23748, Note_on_c, 0, 53, 0
1, 23748, Note_on_c, 0, 61, 0
1, 23748, Note_on_c, 0, 68, 0
1, 23748, Note_on_c, 0, 58, 0
1, 23760, Note_on_c, 0, 72, 57
1, 23760, Note_on_c, 0, 39, 39
1, 23774, Control_c, 0, 64, 0
1, 23859, Control_c, 0, 64, 127
1, 23988, Note_on_c, 0, 39, 0
1, 23988, Note_on_c, 0, 72, 0
1, 24000, Tempo, 588524
1, 24000, Note_on_c, 0, 67, 43
1, 24000, Note_on_c, 0, 61, 35
1, 24000, Note_on_c, 0, 70, 57
1, 24000, Note_on_c, 0, 51, 18
1, 24000, Note_on_c, 0, 58, 25
1, 24000, Note_on_c, 0, 63, 30
1, 24228, Note_on_c, 0, 63, 0
1, 24228, Note_on_c, 0, 51, 0
1, 24228, Note_on_c, 0, 61, 0
1, 24228, Note_on_c, 0, 67, 0
1, 24228, Note_on_c, 0, 58, 0
1, 24240, Tempo, 604656
1, 24240, Note_on_c, 0, 61, 28
1, 24240, Note_on_c, 0, 67, 34
1, 24240, Note_on_c, 0, 51, 14
1, 24240, Note_on_c, 0, 58, 20
1, 24240, Note_on_c, 0, 63, 23
1, 24360, Tempo, 682982
1, 24360, Note_on_c, 0, 70, 0
1, 24360, Note_on_c, 0, 68, 51
1, 24468, Note_on_c, 0, 67, 0
1, 24468, Note_on_c, 0, 58, 0
1, 24468, Note_on_c, 0, 51, 0
1, 24468, Note_on_c, 0, 61, 0
1, 24468, Note_on_c, 0, 63, 0
1, 24480, Tempo, 585423
1, 24480, Note_on_c, 0, 68, 0
1, 24480, Note_on_c, 0, 68, 56
1, 24480, Note_on_c, 0, 44, 39
1, 24495, Control_c, 0, 64, 0
1, 24653, Control_c, 0, 64, 127
1, 24708, Note_on_c, 0, 44, 0
1, 24720, Tempo, 564546
1, 24720, Note_on_c, 0, 60, 39
1, 24720, Note_on_c, 0, 56, 20
1, 24720, Note_on_c, 0, 51, 13
1, 24720, Note_on_c, 0, 63, 23
1, 24948, Note_on_c, 0, 63, 0
1, 24948, Note_on_c, 0, 56, 0
1, 24948, Note_on_c, 0, 51, 0
1, 24948, Note_on_c, 0, 60, 0
1, 24960, Note_on_c, 0, 60, 38
1, 24960, Note_on_c, 0, 56, 18
1, 24960, Note_on_c, 0, 51, 12
1, 24960, Note_on_c, 0, 63, 22
1, 25188, Note_on_c, 0, 63, 0
1, 25188, Note_on_c, 0, 56, 0
1, 25188, Note_on_c, 0, 51, 0
1, 25188, Note_on_c, 0, 60, 0
1, 25200, Note_on_c, 0, 60, 39
1, 25200, Note_on_c, 0, 56, 20
1, 25200, Note_on_c, 0, 51, 13
1, 25200, Note_on_c, 0, 63, 23
1, 25428, Note_on_c, 0, 63, 0
1, 25428, Note_on_c, 0, 56, 0
1, 25428, Note_on_c, 0, 51, 0
1, 25428, Note_on_c, 0, 60, 0
1, 25440, Tempo, 582355
1, 25440, Note_on_c, 0, 60, 37
1, 25440, Note_on_c, 0, 56, 18
1, 25440, Note_on_c, 0, 51, 12
1, 25440, Note_on_c, 0, 63, 22
1, 25668, Note_on_c, 0, 63, 0
1, 25668, Note_on_c, 0, 56, 0
1, 25668, Note_on_c, 0, 51, 0
1, 25668, Note_on_c, 0, 60, 0
1, 25680, Tempo, 601323
1, 25680, Note_on_c, 0, 60, 37
1, 25680, Note_on_c, 0, 56, 18
1, 25680, Note_on_c, 0, 51, 12
1, 25680, Note_on_c, 0, 63, 22
1, 25908, Note_on_c, 0, 63, 0
1, 25908, Note_on_c, 0, 56, 0
1, 25908, Note_on_c, 0, 51, 0
1, 25908, Note_on_c, 0, 60, 0
1, 25920, Tempo, 582355
1, 25920, Note_on_c, 0, 68, 0
1, 25920, Note_on_c, 0, 68, 52
1, 25920, Note_on_c, 0, 40, 28
1, 25930, Control_c, 0, 64, 0
1, 26023, Control_c, 0, 64, 127
1, 26148, Note_on_c, 0, 40, 0
1, 26160, Tempo, 567430
1, 26160, Note_on_c, 0, 56, 26
1, 26160, Note_on_c, 0, 62, 34
1, 26160, Note_on_c, 0, 52, 18
1, 26160, Note_on_c, 0, 59, 21
1, 26160, Note_on_c, 0, 64, 25
1, 26388, Note_on_c, 0, 64, 0
1, 26388, Note_on_c, 0, 56, 0
1, 26388, Note_on_c, 0, 62, 0
1, 26388, Note_on_c, 0, 52, 0
1, 26388, Note_on_c, 0, 59, 0
1, 26400, Note_on_c, 0, 56, 26
1, 26400, Note_on_c, 0, 62, 34
1, 26400, Note_on_c, 0, 52, 18
1, 26400, Note_on_c, 0, 59, 21
1, 26400, Note_on_c, 0, 64, 25
1, 26628, Note_on_c, 0, 64, 0
1, 26628, Note_on_c, 0, 56, 0
1, 26628, Note_on_c, 0, 62, 0
1, 26628, Note_on_c, 0, 52, 0
1, 26628, Note_on_c, 0, 59, 0
1, 26640, Tempo, 544316
1, 26640, Note_on_c, 0, 68, 0
1, 26640, Note_on_c, 0, 68, 51
1, 26640, Note_on_c, 0, 56, 26
1, 26640, Note_on_c, 0, 62, 34
1, 26640, Note_on_c, 0, 52, 18
1, 26640, Note_on_c, 0, 59, 21
1, 26640, Note_on_c, 0, 64, 25
1, 26655, Control_c, 0, 64, 0
1, 26868, Note_on_c, 0, 64, 0
1, 26868, Note_on_c, 0, 56, 0
1, 26868, Note_on_c, 0, 62, 0
1, 26868, Note_on_c, 0, 68, 0
1, 26868, Note_on_c, 0, 59, 0
1, 26868, Note_on_c, 0, 52, 0
1, 26880, Tempo, 582355
1, 26880, Note_on_c, 0, 62, 34
1, 26880, Note_on_c, 0, 56, 26
1, 26880, Note_on_c, 0, 66, 49
1, 26880, Note_on_c, 0, 52, 18
1, 26880, Note_on_c, 0, 59, 21
1, 26880, Note_on_c, 0, 64, 25
1, 27108, Note_on_c, 0, 59, 0
1, 27108, Note_on_c, 0, 52, 0
1, 27108, Note_on_c, 0, 66, 0
1, 27108, Note_on_c, 0, 62, 0
1, 27108, Note_on_c, 0, 56, 0
1, 27115, Note_on_c, 0, 64, 0
1, 27120, Note_on_c, 0, 56, 22
1, 27120, Note_on_c, 0, 64, 49
1, 27120, Note_on_c, 0, 62, 28
1, 27120, Note_on_c, 0, 52, 16
1, 27120, Note_on_c, 0, 59, 22
1, 27348, Note_on_c, 0, 59, 0
1, 27348, Note_on_c, 0, 62, 0
1, 27348, Note_on_c, 0, 56, 0
1, 27348, Note_on_c, 0, 64, 0
1, 27348, Note_on_c, 0, 52, 0
1, 27360, Tempo, 576314
1, 27360, Note_on_c, 0, 73, 62
1, 27360, Note_on_c, 0, 45, 34
1, 27451, Control_c, 0, 64, 127
1, 27588, Note_on_c, 0, 45, 0
1, 27600, Tempo, 561640
1, 27600, Note_on_c, 0, 61, 40
1, 27600, Note_on_c, 0, 69, 48
1, 27600, Note_on_c, 0, 52, 20
1, 27600, Note_on_c, 0, 57, 29
1, 27600, Note_on_c, 0, 64, 39
1, 27680, Tempo, 558815
1, 27760, Tempo, 556019
1, 27820, Tempo, 553250
1, 27828, Note_on_c, 0, 64, 0
1, 27828, Note_on_c, 0, 61, 0
1, 27828, Note_on_c, 0, 69, 0
1, 27828, Note_on_c, 0, 52, 0
1, 27828, Note_on_c, 0, 57, 0
1, 27840, Tempo, 548296
1, 27840, Note_on_c, 0, 61, 42
1, 27840, Note_on_c, 0, 69, 50
1, 27840, Note_on_c, 0, 53, 23
1, 27840, Note_on_c, 0, 57, 31
1, 27840, Note_on_c, 0, 65, 42
1, 27852, Control_c, 0, 64, 0
1, 27900, Tempo, 550459
1, 27980, Tempo, 547745
1, 28040, Tempo, 545058
1, 28068, Note_on_c, 0, 65, 0
1, 28068, Note_on_c, 0, 61, 0
1, 28068, Note_on_c, 0, 69, 0
1, 28068, Note_on_c, 0, 53, 0
1, 28068, Note_on_c, 0, 57, 0
1, 28080, Tempo, 532718
1, 28080, Note_on_c, 0, 61, 44
1, 28080, Note_on_c, 0, 69, 53
1, 28080, Note_on_c, 0, 53, 25
1, 28080, Note_on_c, 0, 57, 34
1, 28080, Note_on_c, 0, 65, 45
1, 28308, Note_on_c, 0, 65, 0
1, 28308, Note_on_c, 0, 61, 0
1, 28308, Note_on_c, 0, 69, 0
1, 28308, Note_on_c, 0, 53, 0
1, 28308, Note_on_c, 0, 57, 0
1, 28320, Tempo, 564546
1, 28320, Note_on_c, 0, 61, 47
1, 28320, Note_on_c, 0, 69, 56
1, 28320, Note_on_c, 0, 54, 26
1, 28320, Note_on_c, 0, 57, 35
1, 28320, Note_on_c, 0, 66, 48
1, 28548, Note_on_c, 0, 66, 0
1, 28548, Note_on_c, 0, 61, 0
1, 28548, Note_on_c, 0, 69, 0
1, 28548, Note_on_c, 0, 54, 0
1, 28548, Note_on_c, 0, 57, 0
1, 28560, Note_on_c, 0, 61, 49
1, 28560, Note_on_c, 0, 69, 59
1, 28560, Note_on_c, 0, 57, 38
1, 28560, Note_on_c, 0, 55, 28
1, 28560, Note_on_c, 0, 67, 51
1, 28788, Note_on_c, 0, 67, 0
1, 28788, Note_on_c, 0, 61, 0
1, 28788, Note_on_c, 0, 69, 0
1, 28788, Note_on_c, 0, 57, 0
1, 28788, Note_on_c, 0, 55, 0
1, 28800, Tempo, 567430
1, 28800, Note_on_c, 0, 73, 0
1, 28800, Note_on_c, 0, 73, 79
1, 28800, Note_on_c, 0, 44, 42
1, 28903, Control_c, 0, 64, 127
1, 29028, Note_on_c, 0, 44, 0
1, 29040, Tempo, 550459
1, 29040, Note_on_c, 0, 68, 51
1, 29040, Note_on_c, 0, 61, 39
1, 29040, Note_on_c, 0, 56, 28
1, 29040, Note_on_c, 0, 63, 31
1, 29040, Note_on_c, 0, 66, 38
1, 29268, Note_on_c, 0, 66, 0
1, 29268, Note_on_c, 0, 68, 0
1, 29268, Note_on_c, 0, 61, 0
1, 29268, Note_on_c, 0, 56, 0
1, 29268, Note_on_c, 0, 63, 0
1, 29280, Note_on_c, 0, 60, 33
1, 29280, Note_on_c, 0, 72, 67
1, 29280, Note_on_c, 0, 68, 42
1, 29280, Note_on_c, 0, 56, 28
1, 29280, Note_on_c, 0, 63, 31
1, 29280, Note_on_c, 0, 66, 38
1, 29291, Control_c, 0, 64, 0
1, 29508, Note_on_c, 0, 66, 0
1, 29508, Note_on_c, 0, 56, 0
1, 29508, Note_on_c, 0, 60, 0
1, 29508, Note_on_c, 0, 72, 0
1, 29508, Note_on_c, 0, 68, 0
1, 29508, Note_on_c, 0, 63, 0
1, 29520, Tempo, 536529
1, 29520, Note_on_c, 0, 73, 0
1, 29520, Note_on_c, 0, 60, 39
1, 29520, Note_on_c, 0, 72, 70
1, 29520, Note_on_c, 0, 68, 48
1, 29520, Note_on_c, 0, 56, 28
1, 29520, Note_on_c, 0, 63, 31
1, 29520, Note_on_c, 0, 66, 38
1, 29748, Note_on_c, 0, 66, 0
1, 29748, Note_on_c, 0, 72, 0
1, 29748, Note_on_c, 0, 68, 0
1, 29748, Note_on_c, 0, 60, 0
1, 29748, Note_on_c, 0, 63, 0
1, 29748, Note_on_c, 0, 56, 0
1, 29760, Tempo, 564546
1, 29760, Note_on_c, 0, 70, 69
1, 29760, Note_on_c, 0, 60, 49
1, 29760, Note_on_c, 0, 56, 26
1, 29760, Note_on_c, 0, 63, 29
1, 29760, Note_on_c, 0, 66, 36
1, 29988, Note_on_c, 0, 66, 0
1, 29988, Note_on_c, 0, 56, 0
1, 29988, Note_on_c, 0, 70, 0
1, 29988, Note_on_c, 0, 60, 0
1, 29988, Note_on_c, 0, 63, 0
1, 30000, Note_on_c, 0, 68, 70
1, 30000, Note_on_c, 0, 60, 39
1, 30000, Note_on_c, 0, 66, 36
1, 30000, Note_on_c, 0, 56, 23
1, 30000, Note_on_c, 0, 63, 32
1, 30228, Note_on_c, 0, 63, 0
1, 30228, Note_on_c, 0, 66, 0
1, 30228, Note_on_c, 0, 68, 0
1, 30228, Note_on_c, 0, 60, 0
1, 30228, Note_on_c, 0, 56, 0
1, 30240, Tempo, 567430
1, 30240, Note_on_c, 0, 76, 72
1, 30240, Note_on_c, 0, 49, 39
1, 30331, Control_c, 0, 64, 127
1, 30468, Note_on_c, 0, 49, 0
1, 30480, Tempo, 535714
1, 30480, Note_on_c, 0, 64, 44
1, 30480, Note_on_c, 0, 73, 52
1, 30480, Note_on_c, 0, 55, 23
1, 30480, Note_on_c, 0, 61, 31
1, 30480, Note_on_c, 0, 67, 42
1, 30708, Note_on_c, 0, 67, 0
1, 30708, Note_on_c, 0, 64, 0
1, 30708, Note_on_c, 0, 73, 0
1, 30708, Note_on_c, 0, 55, 0
1, 30708, Note_on_c, 0, 61, 0
1, 30720, Tempo, 528169
1, 30720, Note_on_c, 0, 64, 45
1, 30720, Note_on_c, 0, 73, 54
1, 30720, Note_on_c, 0, 56, 25
1, 30720, Note_on_c, 0, 61, 34
1, 30720, Note_on_c, 0, 68, 45
1, 30732, Control_c, 0, 64, 0
1, 30948, Note_on_c, 0, 68, 0
1, 30948, Note_on_c, 0, 64, 0
1, 30948, Note_on_c, 0, 73, 0
1, 30948, Note_on_c, 0, 56, 0
1, 30948, Note_on_c, 0, 61, 0
1, 30960, Tempo, 536529
1, 30960, Note_on_c, 0, 64, 47
1, 30960, Note_on_c, 0, 73, 58
1, 30960, Note_on_c, 0, 56, 27
1, 30960, Note_on_c, 0, 61, 37
1, 30960, Note_on_c, 0, 68, 50
1, 31188, Note_on_c, 0, 68, 0
1, 31188, Note_on_c, 0, 64, 0
1, 31188, Note_on_c, 0, 73, 0
1, 31188, Note_on_c, 0, 56, 0
1, 31188, Note_on_c, 0, 61, 0
1, 31200, Tempo, 564546
1, 31200, Note_on_c, 0, 64, 52
1, 31200, Note_on_c, 0, 73, 61
1, 31200, Note_on_c, 0, 57, 27
1, 31200, Note_on_c, 0, 61, 39
1, 31200, Note_on_c, 0, 69, 53
1, 31428, Note_on_c, 0, 69, 0
1, 31428, Note_on_c, 0, 64, 0
1, 31428, Note_on_c, 0, 73, 0
1, 31428, Note_on_c, 0, 57, 0
1, 31428, Note_on_c, 0, 61, 0
1, 31440, Note_on_c, 0, 64, 54
1, 31440, Note_on_c, 0, 72, 64
1, 31440, Note_on_c, 0, 60, 42
1, 31440, Note_on_c, 0, 58, 31
1, 31440, Note_on_c, 0, 70, 56
1, 31668, Note_on_c, 0, 70, 0
1, 31668, Note_on_c, 0, 64, 0
1, 31668, Note_on_c, 0, 72, 0
1, 31668, Note_on_c, 0, 60, 0
1, 31668, Note_on_c, 0, 58, 0
1, 31680, Tempo, 567430
1, 31680, Note_on_c, 0, 76, 0
1, 31680, Note_on_c, 0, 76, 82
1, 31680, Note_on_c, 0, 47, 67
1, 31746, Control_c, 0, 64, 127
1, 31908, Note_on_c, 0, 47, 0
1, 31920, Tempo, 550459
1, 31920, Note_on_c, 0, 71, 53
1, 31920, Note_on_c, 0, 64, 40
1, 31920, Note_on_c, 0, 59, 29
1, 31920, Note_on_c, 0, 66, 33
1, 31920, Note_on_c, 0, 69, 39
1, 32148, Note_on_c, 0, 69, 0
1, 32148, Note_on_c, 0, 71, 0
1, 32148, Note_on_c, 0, 64, 0
1, 32148, Note_on_c, 0, 59, 0
1, 32148, Note_on_c, 0, 66, 0
1, 32160, Note_on_c, 0, 71, 53
1, 32160, Note_on_c, 0, 75, 75
1, 32160, Note_on_c, 0, 63, 33
1, 32160, Note_on_c, 0, 59, 29
1, 32160, Note_on_c, 0, 66, 33
1, 32160, Note_on_c, 0, 69, 39
1, 32388, Note_on_c, 0, 69, 0
1, 32388, Note_on_c, 0, 59, 0
1, 32388, Note_on_c, 0, 71, 0
1, 32388, Note_on_c, 0, 75, 0
1, 32388, Note_on_c, 0, 63, 0
1, 32388, Note_on_c, 0, 66, 0
1, 32400, Tempo, 532718
1, 32400, Note_on_c, 0, 76, 0
1, 32400, Note_on_c, 0, 75, 80
1, 32400, Note_on_c, 0, 71, 53
1, 32400, Note_on_c, 0, 63, 33
1, 32400, Note_on_c, 0, 59, 29
1, 32400, Note_on_c, 0, 66, 33
1, 32400, Note_on_c, 0, 69, 39
1, 32408, Control_c, 0, 64, 0
1, 32628, Note_on_c, 0, 69, 0
1, 32628, Note_on_c, 0, 71, 0
1, 32628, Note_on_c, 0, 63, 0
1, 32628, Note_on_c, 0, 75, 0
1, 32628, Note_on_c, 0, 66, 0
1, 32628, Note_on_c, 0, 59, 0
1, 32640, Tempo, 564546
1, 32640, Note_on_c, 0, 73, 77
1, 32640, Note_on_c, 0, 71, 53
1, 32640, Note_on_c, 0, 61, 33
1, 32640, Note_on_c, 0, 59, 29
1, 32640, Note_on_c, 0, 66, 33
1, 32640, Note_on_c, 0, 69, 39
1, 32868, Note_on_c, 0, 69, 0
1, 32868, Note_on_c, 0, 71, 0
1, 32868, Note_on_c, 0, 61, 0
1, 32868, Note_on_c, 0, 73, 0
1, 32868, Note_on_c, 0, 66, 0
1, 32868, Note_on_c, 0, 59, 0
1, 32880, Note_on_c, 0, 71, 77
1, 32880, Note_on_c, 0, 63, 29
1, 32880, Note_on_c, 0, 69, 39
1, 32880, Note_on_c, 0, 59, 26
1, 32880, Note_on_c, 0, 66, 35
1, 33108, Note_on_c, 0, 66, 0
1, 33108, Note_on_c, 0, 69, 0
1, 33108, Note_on_c, 0, 71, 0
1, 33108, Note_on_c, 0, 63, 0
1, 33108, Note_on_c, 0, 59, 0
1, 33120, Tempo, 567430
1, 33120, Note_on_c, 0, 80, 84
1, 33120, Note_on_c, 0, 52, 52
1, 33223, Control_c, 0, 64, 127
1, 33348, Note_on_c, 0, 52, 0
1, 33360, Tempo, 550459
1, 33360, Note_on_c, 0, 74, 56
1, 33360, Note_on_c, 0, 68, 42
1, 33360, Note_on_c, 0, 59, 35
1, 33360, Note_on_c, 0, 64, 35
1, 33360, Note_on_c, 0, 71, 41
1, 33588, Note_on_c, 0, 71, 0
1, 33588, Note_on_c, 0, 74, 0
1, 33588, Note_on_c, 0, 68, 0
1, 33588, Note_on_c, 0, 59, 0
1, 33588, Note_on_c, 0, 64, 0
1, 33600, Tempo, 536529
1, 33600, Note_on_c, 0, 80, 0
1, 33600, Note_on_c, 0, 74, 57
1, 33600, Note_on_c, 0, 80, 73
1, 33600, Note_on_c, 0, 68, 46
1, 33600, Note_on_c, 0, 58, 29
1, 33600, Note_on_c, 0, 64, 33
1, 33600, Note_on_c, 0, 70, 40
1, 33828, Note_on_c, 0, 70, 0
1, 33828, Note_on_c, 0, 80, 0
1, 33828, Note_on_c, 0, 68, 0
1, 33828, Note_on_c, 0, 74, 0
1, 33828, Note_on_c, 0, 64, 0
1, 33828, Note_on_c, 0, 58, 0
1, 33840, Tempo, 532718
1, 33840, Note_on_c, 0, 80, 77
1, 33840, Note_on_c, 0, 51, 52
1, 33848, Control_c, 0, 64, 0
1, 33920, Control_c, 0, 64, 127
1, 34068, Note_on_c, 0, 51, 0
1, 34068, Note_on_c, 0, 80, 0
1, 34080, Tempo, 564546
1, 34080, Note_on_c, 0, 75, 46
1, 34080, Note_on_c, 0, 67, 45
1, 34080, Note_on_c, 0, 79, 70
1, 34080, Note_on_c, 0, 58, 27
1, 34080, Note_on_c, 0, 63, 31
1, 34080, Note_on_c, 0, 70, 36
1, 34308, Note_on_c, 0, 70, 0
1, 34308, Note_on_c, 0, 67, 0
1, 34308, Note_on_c, 0, 79, 0
1, 34308, Note_on_c, 0, 75, 0
1, 34308, Note_on_c, 0, 63, 0
1, 34308, Note_on_c, 0, 58, 0
1, 34320, Tempo, 579318
1, 34320, Note_on_c, 0, 67, 47
1, 34320, Note_on_c, 0, 75, 68
1, 34320, Note_on_c, 0, 58, 23
1, 34320, Note_on_c, 0, 70, 35
1, 34320, Note_on_c, 0, 63, 31
1, 34548, Note_on_c, 0, 63, 0
1, 34548, Note_on_c, 0, 58, 0
1, 34548, Note_on_c, 0, 67, 0
1, 34548, Note_on_c, 0, 75, 0
1, 34548, Note_on_c, 0, 70, 0
1, 34560, Tempo, 567430
1, 34560, Note_on_c, 0, 78, 61
1, 34560, Note_on_c, 0, 50, 38
1, 34571, Control_c, 0, 64, 0
1, 34674, Control_c, 0, 64, 127
1, 34788, Note_on_c, 0, 50, 0
1, 34800, Tempo, 550459
1, 34800, Note_on_c, 0, 72, 39
1, 34800, Note_on_c, 0, 66, 30
1, 34800, Note_on_c, 0, 57, 20
1, 34800, Note_on_c, 0, 62, 22
1, 34800, Note_on_c, 0, 69, 28
1, 35028, Note_on_c, 0, 69, 0
1, 35028, Note_on_c, 0, 72, 0
1, 35028, Note_on_c, 0, 66, 0
1, 35028, Note_on_c, 0, 57, 0
1, 35028, Note_on_c, 0, 62, 0
1, 35040, Note_on_c, 0, 78, 0
1, 35040, Note_on_c, 0, 72, 45
1, 35040, Note_on_c, 0, 66, 36
1, 35040, Note_on_c, 0, 78, 55
1, 35040, Note_on_c, 0, 56, 20
1, 35040, Note_on_c, 0, 62, 23
1, 35040, Note_on_c, 0, 68, 28
1, 35268, Note_on_c, 0, 68, 0
1, 35268, Note_on_c, 0, 66, 0
1, 35268, Note_on_c, 0, 78, 0
1, 35268, Note_on_c, 0, 72, 0
1, 35268, Note_on_c, 0, 62, 0
1, 35268, Note_on_c, 0, 56, 0
1, 35280, Tempo, 532718
1, 35280, Note_on_c, 0, 78, 59
1, 35280, Note_on_c, 0, 49, 38
1, 35290, Control_c, 0, 64, 0
1, 35406, Control_c, 0, 64, 127
1, 35508, Note_on_c, 0, 49, 0
1, 35508, Note_on_c, 0, 78, 0
1, 35520, Tempo, 564546
1, 35520, Note_on_c, 0, 73, 36
1, 35520, Note_on_c, 0, 65, 36
1, 35520, Note_on_c, 0, 77, 54
1, 35520, Note_on_c, 0, 56, 17
1, 35520, Note_on_c, 0, 61, 20
1, 35520, Note_on_c, 0, 68, 23
1, 35748, Note_on_c, 0, 68, 0
1, 35748, Note_on_c, 0, 65, 0
1, 35748, Note_on_c, 0, 77, 0
1, 35748, Note_on_c, 0, 73, 0
1, 35748, Note_on_c, 0, 61, 0
1, 35748, Note_on_c, 0, 56, 0
1, 35760, Tempo, 585423
1, 35760, Note_on_c, 0, 65, 36
1, 35760, Note_on_c, 0, 73, 52
1, 35760, Note_on_c, 0, 56, 15
1, 35760, Note_on_c, 0, 68, 23
1, 35760, Note_on_c, 0, 61, 21
1, 35988, Note_on_c, 0, 61, 0
1, 35988, Note_on_c, 0, 56, 0
1, 35988, Note_on_c, 0, 65, 0
1, 35988, Note_on_c, 0, 73, 0
1, 35988, Note_on_c, 0, 68, 0
1, 36000, Tempo, 576314
1, 36000, Note_on_c, 0, 76, 58
1, 36000, Note_on_c, 0, 48, 36
1, 36011, Control_c, 0, 64, 0
1, 36114, Control_c, 0, 64, 127
1, 36228, Note_on_c, 0, 48, 0
1, 36228, Note_on_c, 0, 76, 0
1, 36240, Tempo, 564546
1, 36240, Note_on_c, 0, 63, 28
1, 36240, Note_on_c, 0, 75, 53
1, 36240, Note_on_c, 0, 70, 35
1, 36240, Note_on_c, 0, 55, 20
1, 36240, Note_on_c, 0, 60, 22
1, 36240, Note_on_c, 0, 67, 27
1, 36468, Note_on_c, 0, 67, 0
1, 36468, Note_on_c, 0, 75, 0
1, 36468, Note_on_c, 0, 70, 0
1, 36468, Note_on_c, 0, 63, 0
1, 36468, Note_on_c, 0, 60, 0
1, 36468, Note_on_c, 0, 55, 0
1, 36480, Note_on_c, 0, 64, 35
1, 36480, Note_on_c, 0, 76, 53
1, 36480, Note_on_c, 0, 70, 44
1, 36480, Note_on_c, 0, 54, 20
1, 36480, Note_on_c, 0, 60, 22
1, 36480, Note_on_c, 0, 66, 27
1, 36500, Tempo, 576314
1, 36708, Note_on_c, 0, 66, 0
1, 36708, Note_on_c, 0, 76, 0
1, 36708, Note_on_c, 0, 70, 0
1, 36708, Note_on_c, 0, 64, 0
1, 36708, Note_on_c, 0, 60, 0
1, 36708, Note_on_c, 0, 54, 0
1, 36720, Tempo, 556019
1, 36720, Note_on_c, 0, 80, 56
1, 36720, Note_on_c, 0, 47, 37
1, 36727, Control_c, 0, 64, 0
1, 36800, Control_c, 0, 64, 127
1, 36948, Note_on_c, 0, 47, 0
1, 36960, Tempo, 576314
1, 36960, Note_on_c, 0, 68, 36
1, 36960, Note_on_c, 0, 76, 36
1, 36960, Note_on_c, 0, 59, 20
1, 36960, Note_on_c, 0, 64, 22
1, 36960, Note_on_c, 0, 71, 27
1, 37188, Note_on_c, 0, 71, 0
1, 37188, Note_on_c, 0, 68, 0
1, 37188, Note_on_c, 0, 76, 0
1, 37188, Note_on_c, 0, 59, 0
1, 37188, Note_on_c, 0, 64, 0
1, 37200, Note_on_c, 0, 80, 0
1, 37200, Note_on_c, 0, 78, 52
1, 37200, Note_on_c, 0, 71, 44
1, 37200, Note_on_c, 0, 66, 36
1, 37200, Note_on_c, 0, 59, 17
1, 37200, Note_on_c, 0, 69, 27
1, 37200, Note_on_c, 0, 63, 23
1, 37213, Control_c, 0, 64, 0
1, 37292, Control_c, 0, 64, 127
1, 37428, Note_on_c, 0, 63, 0
1, 37428, Note_on_c, 0, 71, 0
1, 37428, Note_on_c, 0, 66, 0
1, 37428, Note_on_c, 0, 78, 0
1, 37428, Note_on_c, 0, 69, 0
1, 37428, Note_on_c, 0, 59, 0
1, 37440, Tempo, 567430
1, 37440, Note_on_c, 0, 76, 55
1, 37440, Note_on_c, 0, 40, 39
1, 37455, Control_c, 0, 64, 0
1, 37577, Control_c, 0, 64, 127
1, 37668, Note_on_c, 0, 40, 0
1, 37680, Tempo, 550459
1, 37680, Note_on_c, 0, 64, 29
1, 37680, Note_on_c, 0, 71, 35
1, 37680, Note_on_c, 0, 56, 13
1, 37680, Note_on_c, 0, 59, 18
1, 37680, Note_on_c, 0, 68, 22
1, 37908, Note_on_c, 0, 68, 0
1, 37908, Note_on_c, 0, 64, 0
1, 37908, Note_on_c, 0, 71, 0
1, 37908, Note_on_c, 0, 56, 0
1, 37908, Note_on_c, 0, 59, 0
1, 37920, Tempo, 542397
1, 37920, Note_on_c, 0, 64, 30
1, 37920, Note_on_c, 0, 71, 36
1, 37920, Note_on_c, 0, 56, 14
1, 37920, Note_on_c, 0, 59, 19
1, 37920, Note_on_c, 0, 68, 24
1, 38148, Note_on_c, 0, 68, 0
1, 38148, Note_on_c, 0, 64, 0
1, 38148, Note_on_c, 0, 71, 0
1, 38148, Note_on_c, 0, 56, 0
1, 38148, Note_on_c, 0, 59, 0
1, 38160, Tempo, 545058
1, 38160, Note_on_c, 0, 64, 31
1, 38160, Note_on_c, 0, 71, 37
1, 38160, Note_on_c, 0, 56, 15
1, 38160, Note_on_c, 0, 59, 21
1, 38160, Note_on_c, 0, 68, 25
1, 38388, Note_on_c, 0, 68, 0
1, 38388, Note_on_c, 0, 64, 0
1, 38388, Note_on_c, 0, 71, 0
1, 38388, Note_on_c, 0, 56, 0
1, 38388, Note_on_c, 0, 59, 0
1, 38400, Tempo, 564546
1, 38400, Note_on_c, 0, 64, 32
1, 38400, Note_on_c, 0, 71, 39
1, 38400, Note_on_c, 0, 56, 16
1, 38400, Note_on_c, 0, 59, 21
1, 38400, Note_on_c, 0, 68, 26
1, 38628, Note_on_c, 0, 68, 0
1, 38628, Note_on_c, 0, 64, 0
1, 38628, Note_on_c, 0, 71, 0
1, 38628, Note_on_c, 0, 56, 0
1, 38628, Note_on_c, 0, 59, 0
1, 38640, Note_on_c, 0, 64, 33
1, 38640, Note_on_c, 0, 71, 40
1, 38640, Note_on_c, 0, 59, 23
1, 38640, Note_on_c, 0, 56, 16
1, 38640, Note_on_c, 0, 68, 27
1, 38868, Note_on_c, 0, 68, 0
1, 38868, Note_on_c, 0, 64, 0
1, 38868, Note_on_c, 0, 71, 0
1, 38868, Note_on_c, 0, 59, 0
1, 38868, Note_on_c, 0, 56, 0
1, 38880, Tempo, 567430
1, 38880, Note_on_c, 0, 52, 53
1, 38896, Control_c, 0, 64, 0
1, 38983, Control_c, 0, 64, 127
1, 39108, Note_on_c, 0, 52, 0
1, 39120, Tempo, 550459
1, 39120, Note_on_c, 0, 76, 0
1, 39120, Note_on_c, 0, 76, 60
1, 39120, Note_on_c, 0, 72, 46
1, 39120, Note_on_c, 0, 64, 46
1, 39120, Note_on_c, 0, 57, 22
1, 39120, Note_on_c, 0, 60, 25
1, 39120, Note_on_c, 0, 69, 35
1, 39348, Note_on_c, 0, 69, 0
1, 39348, Note_on_c, 0, 72, 0
1, 39348, Note_on_c, 0, 64, 0
1, 39348, Note_on_c, 0, 76, 0
1, 39348, Note_on_c, 0, 60, 0
1, 39348, Note_on_c, 0, 57, 0
1, 39360, Tempo, 536529
1, 39360, Note_on_c, 0, 63, 44
1, 39360, Note_on_c, 0, 75, 57
1, 39360, Note_on_c, 0, 72, 44
1, 39360, Note_on_c, 0, 57, 23
1, 39360, Note_on_c, 0, 60, 26
1, 39360, Note_on_c, 0, 69, 31
1, 39588, Note_on_c, 0, 69, 0
1, 39588, Note_on_c, 0, 75, 0
1, 39588, Note_on_c, 0, 72, 0
1, 39588, Note_on_c, 0, 63, 0
1, 39588, Note_on_c, 0, 60, 0
1, 39588, Note_on_c, 0, 57, 0
1, 39600, Tempo, 521603
1, 39600, Note_on_c, 0, 66, 50
1, 39600, Note_on_c, 0, 78, 64
1, 39600, Note_on_c, 0, 72, 50
1, 39600, Note_on_c, 0, 57, 22
1, 39600, Note_on_c, 0, 60, 25
1, 39600, Note_on_c, 0, 69, 35
1, 39828, Note_on_c, 0, 69, 0
1, 39828, Note_on_c, 0, 78, 0
1, 39828, Note_on_c, 0, 72, 0
1, 39828, Note_on_c, 0, 66, 0
1, 39828, Note_on_c, 0, 60, 0
1, 39828, Note_on_c, 0, 57, 0
1, 39840, Tempo, 564546
1, 39840, Note_on_c, 0, 64, 45
1, 39840, Note_on_c, 0, 72, 45
1, 39840, Note_on_c, 0, 76, 58
1, 39840, Note_on_c, 0, 57, 24
1, 39840, Note_on_c, 0, 60, 27
1, 39840, Note_on_c, 0, 69, 32
1, 40068, Note_on_c, 0, 69, 0
1, 40068, Note_on_c, 0, 72, 0
1, 40068, Note_on_c, 0, 76, 0
1, 40068, Note_on_c, 0, 64, 0
1, 40068, Note_on_c, 0, 60, 0
1, 40068, Note_on_c, 0, 57, 0
1, 40080, Note_on_c, 0, 64, 45
1, 40080, Note_on_c, 0, 72, 59
1, 40080, Note_on_c, 0, 69, 32
1, 40080, Note_on_c, 0, 57, 24
1, 40080, Note_on_c, 0, 60, 27
1, 40308, Note_on_c, 0, 60, 0
1, 40308, Note_on_c, 0, 69, 0
1, 40308, Note_on_c, 0, 64, 0
1, 40308, Note_on_c, 0, 72, 0
1, 40308, Note_on_c, 0, 57, 0
1, 40320, Tempo, 567430
1, 40320, Note_on_c, 0, 76, 62
1, 40320, Note_on_c, 0, 40, 44
1, 40335, Control_c, 0, 64, 0
1, 40435, Control_c, 0, 64, 127
1, 40548, Note_on_c, 0, 40, 0
1, 40560, Tempo, 550459
1, 40560, Note_on_c, 0, 71, 39
1, 40560, Note_on_c, 0, 64, 33
1, 40560, Note_on_c, 0, 56, 15
1, 40560, Note_on_c, 0, 59, 21
1, 40560, Note_on_c, 0, 68, 25
1, 40788, Note_on_c, 0, 68, 0
1, 40788, Note_on_c, 0, 71, 0
1, 40788, Note_on_c, 0, 64, 0
1, 40788, Note_on_c, 0, 56, 0
1, 40788, Note_on_c, 0, 59, 0
1, 40800, Tempo, 532718
1, 40800, Note_on_c, 0, 71, 40
1, 40800, Note_on_c, 0, 64, 34
1, 40800, Note_on_c, 0, 56, 16
1, 40800, Note_on_c, 0, 59, 22
1, 40800, Note_on_c, 0, 68, 27
1, 41028, Note_on_c, 0, 68, 0
1, 41028, Note_on_c, 0, 71, 0
1, 41028, Note_on_c, 0, 64, 0
1, 41028, Note_on_c, 0, 56, 0
1, 41028, Note_on_c, 0, 59, 0
1, 41040, Tempo, 518001
1, 41040, Note_on_c, 0, 71, 42
1, 41040, Note_on_c, 0, 64, 35
1, 41040, Note_on_c, 0, 56, 17
1, 41040, Note_on_c, 0, 59, 24
1, 41040, Note_on_c, 0, 68, 28
1, 41268, Note_on_c, 0, 68, 0
1, 41268, Note_on_c, 0, 71, 0
1, 41268, Note_on_c, 0, 64, 0
1, 41268, Note_on_c, 0, 56, 0
1, 41268, Note_on_c, 0, 59, 0
1, 41280, Tempo, 564546
1, 41280, Note_on_c, 0, 71, 44
1, 41280, Note_on_c, 0, 64, 36
1, 41280, Note_on_c, 0, 56, 18
1, 41280, Note_on_c, 0, 59, 24
1, 41280, Note_on_c, 0, 68, 29
1, 41508, Note_on_c, 0, 68, 0
1, 41508, Note_on_c, 0, 71, 0
1, 41508, Note_on_c, 0, 64, 0
1, 41508, Note_on_c, 0, 56, 0
1, 41508, Note_on_c, 0, 59, 0
1, 41520, Note_on_c, 0, 71, 45
1, 41520, Note_on_c, 0, 64, 37
1, 41520, Note_on_c, 0, 59, 26
1, 41520, Note_on_c, 0, 56, 18
1, 41520, Note_on_c, 0, 68, 31
1, 41748, Note_on_c, 0, 68, 0
1, 41748, Note_on_c, 0, 71, 0
1, 41748, Note_on_c, 0, 64, 0
1, 41748, Note_on_c, 0, 59, 0
1, 41748, Note_on_c, 0, 56, 0
1, 41760, Tempo, 567430
1, 41760, Note_on_c, 0, 52, 53
1, 41777, Control_c, 0, 64, 0
1, 41863, Control_c, 0, 64, 127
1, 41988, Note_on_c, 0, 52, 0
1, 42000, Tempo, 550459
1, 42000, Note_on_c, 0, 76, 0
1, 42000, Note_on_c, 0, 64, 46
1, 42000, Note_on_c, 0, 72, 46
1, 42000, Note_on_c, 0, 76, 60
1, 42000, Note_on_c, 0, 57, 22
1, 42000, Note_on_c, 0, 60, 25
1, 42000, Note_on_c, 0, 69, 35
1, 42228, Note_on_c, 0, 69, 0
1, 42228, Note_on_c, 0, 72, 0
1, 42228, Note_on_c, 0, 76, 0
1, 42228, Note_on_c, 0, 64, 0
1, 42228, Note_on_c, 0, 60, 0
1, 42228, Note_on_c, 0, 57, 0
1, 42240, Note_on_c, 0, 72, 44
1, 42240, Note_on_c, 0, 75, 57
1, 42240, Note_on_c, 0, 63, 44
1, 42240, Note_on_c, 0, 57, 23
1, 42240, Note_on_c, 0, 60, 26
1, 42240, Note_on_c, 0, 69, 31
1, 42468, Note_on_c, 0, 69, 0
1, 42468, Note_on_c, 0, 75, 0
1, 42468, Note_on_c, 0, 63, 0
1, 42468, Note_on_c, 0, 72, 0
1, 42468, Note_on_c, 0, 60, 0
1, 42468, Note_on_c, 0, 57, 0
1, 42480, Tempo, 525256
1, 42480, Note_on_c, 0, 72, 50
1, 42480, Note_on_c, 0, 66, 50
1, 42480, Note_on_c, 0, 78, 64
1, 42480, Note_on_c, 0, 57, 22
1, 42480, Note_on_c, 0, 60, 25
1, 42480, Note_on_c, 0, 69, 35
1, 42708, Note_on_c, 0, 69, 0
1, 42708, Note_on_c, 0, 66, 0
1, 42708, Note_on_c, 0, 78, 0
1, 42708, Note_on_c, 0, 72, 0
1, 42708, Note_on_c, 0, 60, 0
1, 42708, Note_on_c, 0, 57, 0
1, 42720, Tempo, 564546
1, 42720, Note_on_c, 0, 72, 45
1, 42720, Note_on_c, 0, 76, 58
1, 42720, Note_on_c, 0, 64, 45
1, 42720, Note_on_c, 0, 57, 24
1, 42720, Note_on_c, 0, 60, 27
1, 42720, Note_on_c, 0, 69, 32
1, 42948, Note_on_c, 0, 69, 0
1, 42948, Note_on_c, 0, 76, 0
1, 42948, Note_on_c, 0, 64, 0
1, 42948, Note_on_c, 0, 72, 0
1, 42948, Note_on_c, 0, 60, 0
1, 42948, Note_on_c, 0, 57, 0
1, 42960, Note_on_c, 0, 72, 59
1, 42960, Note_on_c, 0, 64, 45
1, 42960, Note_on_c, 0, 69, 32
1, 42960, Note_on_c, 0, 57, 24
1, 42960, Note_on_c, 0, 60, 27
1, 43188, Note_on_c, 0, 60, 0
1, 43188, Note_on_c, 0, 69, 0
1, 43188, Note_on_c, 0, 72, 0
1, 43188, Note_on_c, 0, 64, 0
1, 43188, Note_on_c, 0, 57, 0
1, 43200, Tempo, 567430
1, 43200, Note_on_c, 0, 76, 62
1, 43200, Note_on_c, 0, 40, 44
1, 43216, Control_c, 0, 64, 0
1, 43371, Control_c, 0, 64, 127
1, 43428, Note_on_c, 0, 40, 0
1, 43440, Tempo, 550459
1, 43440, Note_on_c, 0, 64, 33
1, 43440, Note_on_c, 0, 71, 39
1, 43440, Note_on_c, 0, 56, 15
1, 43440, Note_on_c, 0, 59, 21
1, 43440, Note_on_c, 0, 68, 25
1, 43668, Note_on_c, 0, 68, 0
1, 43668, Note_on_c, 0, 64, 0
1, 43668, Note_on_c, 0, 71, 0
1, 43668, Note_on_c, 0, 56, 0
1, 43668, Note_on_c, 0, 59, 0
1, 43680, Tempo, 542397
1, 43680, Note_on_c, 0, 64, 34
1, 43680, Note_on_c, 0, 71, 40
1, 43680, Note_on_c, 0, 56, 16
1, 43680, Note_on_c, 0, 59, 22
1, 43680, Note_on_c, 0, 68, 27
1, 43908, Note_on_c, 0, 68, 0
1, 43908, Note_on_c, 0, 64, 0
1, 43908, Note_on_c, 0, 71, 0
1, 43908, Note_on_c, 0, 56, 0
1, 43908, Note_on_c, 0, 59, 0
1, 43920, Tempo, 545058
1, 43920, Note_on_c, 0, 64, 35
1, 43920, Note_on_c, 0, 71, 42
1, 43920, Note_on_c, 0, 56, 17
1, 43920, Note_on_c, 0, 59, 24
1, 43920, Note_on_c, 0, 68, 28
1, 44148, Note_on_c, 0, 68, 0
1, 44148, Note_on_c, 0, 64, 0
1, 44148, Note_on_c, 0, 71, 0
1, 44148, Note_on_c, 0, 56, 0
1, 44148, Note_on_c, 0, 59, 0
1, 44160, Tempo, 564546
1, 44160, Note_on_c, 0, 64, 36
1, 44160, Note_on_c, 0, 71, 44
1, 44160, Note_on_c, 0, 56, 18
1, 44160, Note_on_c, 0, 59, 24
1, 44160, Note_on_c, 0, 68, 29
1, 44388, Note_on_c, 0, 68, 0
1, 44388, Note_on_c, 0, 64, 0
1, 44388, Note_on_c, 0, 71, 0
1, 44388, Note_on_c, 0, 56, 0
1, 44388, Note_on_c, 0, 59, 0
1, 44400, Note_on_c, 0, 64, 37
1, 44400, Note_on_c, 0, 71, 45
1, 44400, Note_on_c, 0, 59, 26
1, 44400, Note_on_c, 0, 56, 18
1, 44400, Note_on_c, 0, 68, 31
1, 44628, Note_on_c, 0, 68, 0
1, 44628, Note_on_c, 0, 64, 0
1, 44628, Note_on_c, 0, 71, 0
1, 44628, Note_on_c, 0, 59, 0
1, 44628, Note_on_c, 0, 56, 0
1, 44640, Tempo, 567430
1, 44640, Note_on_c, 0, 64, 35
1, 44640, Note_on_c, 0, 71, 42
1, 44640, Note_on_c, 0, 56, 17
1, 44640, Note_on_c, 0, 59, 24
1, 44640, Note_on_c, 0, 68, 28
1, 44868, Note_on_c, 0, 68, 0
1, 44868, Note_on_c, 0, 64, 0
1, 44868, Note_on_c, 0, 71, 0
1, 44868, Note_on_c, 0, 56, 0
1, 44868, Note_on_c, 0, 59, 0
1, 44880, Tempo, 550459
1, 44880, Note_on_c, 0, 64, 33
1, 44880, Note_on_c, 0, 71, 39
1, 44880, Note_on_c, 0, 56, 15
1, 44880, Note_on_c, 0, 59, 21
1, 44880, Note_on_c, 0, 68, 25
1, 45108, Note_on_c, 0, 68, 0
1, 45108, Note_on_c, 0, 64, 0
1, 45108, Note_on_c, 0, 71, 0
1, 45108, Note_on_c, 0, 56, 0
1, 45108, Note_on_c, 0, 59, 0
1, 45120, Tempo, 542397
1, 45120, Note_on_c, 0, 64, 35
1, 45120, Note_on_c, 0, 71, 41
1, 45120, Note_on_c, 0, 56, 16
1, 45120, Note_on_c, 0, 59, 22
1, 45120, Note_on_c, 0, 68, 27
1, 45348, Note_on_c, 0, 68, 0
1, 45348, Note_on_c, 0, 64, 0
1, 45348, Note_on_c, 0, 71, 0
1, 45348, Note_on_c, 0, 56, 0
1, 45348, Note_on_c, 0, 59, 0
1, 45360, Tempo, 545058
1, 45360, Note_on_c, 0, 76, 0
1, 45360, Note_on_c, 0, 71, 49
1, 45360, Note_on_c, 0, 75, 64
1, 45360, Note_on_c, 0, 63, 40
1, 45360, Note_on_c, 0, 56, 20
1, 45360, Note_on_c, 0, 59, 27
1, 45360, Note_on_c, 0, 68, 33
1, 45379, Control_c, 0, 64, 0
1, 45480, Control_c, 0, 64, 127
1, 45588, Note_on_c, 0, 68, 0
1, 45588, Note_on_c, 0, 71, 0
1, 45588, Note_on_c, 0, 63, 0
1, 45588, Note_on_c, 0, 56, 0
1, 45588, Note_on_c, 0, 59, 0
1, 45600, Tempo, 564546
1, 45600, Note_on_c, 0, 71, 51
1, 45600, Note_on_c, 0, 63, 43
1, 45600, Note_on_c, 0, 56, 21
1, 45600, Note_on_c, 0, 59, 28
1, 45600, Note_on_c, 0, 68, 35
1, 45828, Note_on_c, 0, 68, 0
1, 45828, Note_on_c, 0, 71, 0
1, 45828, Note_on_c, 0, 63, 0
1, 45828, Note_on_c, 0, 56, 0
1, 45828, Note_on_c, 0, 59, 0
1, 45840, Note_on_c, 0, 75, 0
1, 45840, Note_on_c, 0, 63, 45
1, 45840, Note_on_c, 0, 75, 67
1, 45840, Note_on_c, 0, 71, 54
1, 45840, Note_on_c, 0, 59, 31
1, 45840, Note_on_c, 0, 56, 23
1, 45840, Note_on_c, 0, 68, 37
1, 46068, Note_on_c, 0, 68, 0
1, 46068, Note_on_c, 0, 75, 0
1, 46068, Note_on_c, 0, 71, 0
1, 46068, Note_on_c, 0, 63, 0
1, 46068, Note_on_c, 0, 56, 0
1, 46068, Note_on_c, 0, 59, 0
1, 46080, Tempo, 567430
1, 46080, Note_on_c, 0, 71, 51
1, 46080, Note_on_c, 0, 75, 71
1, 46080, Note_on_c, 0, 63, 42
1, 46080, Note_on_c, 0, 56, 21
1, 46080, Note_on_c, 0, 59, 29
1, 46080, Note_on_c, 0, 68, 35
1, 46091, Control_c, 0, 64, 0
1, 46171, Control_c, 0, 64, 127
1, 46308, Note_on_c, 0, 68, 0
1, 46308, Note_on_c, 0, 71, 0
1, 46308, Note_on_c, 0, 63, 0
1, 46308, Note_on_c, 0, 56, 0
1, 46308, Note_on_c, 0, 59, 0
1, 46320, Tempo, 550459
1, 46320, Note_on_c, 0, 71, 48
1, 46320, Note_on_c, 0, 63, 40
1, 46320, Note_on_c, 0, 56, 18
1, 46320, Note_on_c, 0, 59, 26
1, 46320, Note_on_c, 0, 68, 31
1, 46548, Note_on_c, 0, 68, 0
1, 46548, Note_on_c, 0, 71, 0
1, 46548, Note_on_c, 0, 63, 0
1, 46548, Note_on_c, 0, 56, 0
1, 46548, Note_on_c, 0, 59, 0
1, 46560, Tempo, 542397
1, 46560, Note_on_c, 0, 71, 50
1, 46560, Note_on_c, 0, 63, 42
1, 46560, Note_on_c, 0, 56, 20
1, 46560, Note_on_c, 0, 59, 27
1, 46560, Note_on_c, 0, 68, 34
1, 46788, Note_on_c, 0, 68, 0
1, 46788, Note_on_c, 0, 71, 0
1, 46788, Note_on_c, 0, 63, 0
1, 46788, Note_on_c, 0, 56, 0
1, 46788, Note_on_c, 0, 59, 0
1, 46800, Tempo, 545058
1, 46800, Note_on_c, 0, 71, 53
1, 46800, Note_on_c, 0, 63, 44
1, 46800, Note_on_c, 0, 56, 22
1, 46800, Note_on_c, 0, 59, 30
1, 46800, Note_on_c, 0, 68, 36
1, 47028, Note_on_c, 0, 68, 0
1, 47028, Note_on_c, 0, 71, 0
1, 47028, Note_on_c, 0, 63, 0
1, 47028, Note_on_c, 0, 56, 0
1, 47028, Note_on_c, 0, 59, 0
1, 47040, Tempo, 564546
1, 47040, Note_on_c, 0, 71, 56
1, 47040, Note_on_c, 0, 63, 47
1, 47040, Note_on_c, 0, 56, 23
1, 47040, Note_on_c, 0, 59, 31
1, 47040, Note_on_c, 0, 68, 37
1, 47268, Note_on_c, 0, 68, 0
1, 47268, Note_on_c, 0, 71, 0
1, 47268, Note_on_c, 0, 63, 0
1, 47268, Note_on_c, 0, 56, 0
1, 47268, Note_on_c, 0, 59, 0
1, 47280, Note_on_c, 0, 71, 59
1, 47280, Note_on_c, 0, 63, 49
1, 47280, Note_on_c, 0, 59, 34
1, 47280, Note_on_c, 0, 56, 24
1, 47280, Note_on_c, 0, 68, 41
1, 47508, Note_on_c, 0, 68, 0
1, 47508, Note_on_c, 0, 71, 0
1, 47508, Note_on_c, 0, 63, 0
1, 47508, Note_on_c, 0, 59, 0
1, 47508, Note_on_c, 0, 56, 0
1, 47520, Tempo, 567430
1, 47520, Note_on_c, 0, 75, 0
1, 47520, Note_on_c, 0, 62, 39
1, 47520, Note_on_c, 0, 74, 78
1, 47520, Note_on_c, 0, 71, 56
1, 47520, Note_on_c, 0, 56, 42
1, 47520, Note_on_c, 0, 59, 42
1, 47520, Note_on_c, 0, 68, 50
1, 47527, Control_c, 0, 64, 0
1, 47611, Control_c, 0, 64, 127
1, 47748, Note_on_c, 0, 68, 0
1, 47748, Note_on_c, 0, 62, 0
1, 47748, Note_on_c, 0, 71, 0
1, 47748, Note_on_c, 0, 56, 0
1, 47748, Note_on_c, 0, 59, 0
1, 47760, Tempo, 550459
1, 47760, Note_on_c, 0, 71, 60
1, 47760, Note_on_c, 0, 68, 60
1, 47760, Note_on_c, 0, 62, 51
1, 47760, Note_on_c, 0, 41, 40
1, 47760, Note_on_c, 0, 53, 48
1, 47988, Note_on_c, 0, 53, 0
1, 47988, Note_on_c, 0, 71, 0
1, 47988, Note_on_c, 0, 68, 0
1, 47988, Note_on_c, 0, 62, 0
1, 47988, Note_on_c, 0, 41, 0
1, 48000, Tempo, 542397
1, 48000, Note_on_c, 0, 62, 53
1, 48000, Note_on_c, 0, 68, 63
1, 48000, Note_on_c, 0, 71, 63
1, 48000, Note_on_c, 0, 38, 45
1, 48000, Note_on_c, 0, 50, 53
1, 48228, Note_on_c, 0, 50, 0
1, 48228, Note_on_c, 0, 62, 0
1, 48228, Note_on_c, 0, 68, 0
1, 48228, Note_on_c, 0, 71, 0
1, 48228, Note_on_c, 0, 38, 0
1, 48240, Tempo, 545058
1, 48240, Note_on_c, 0, 68, 67
1, 48240, Note_on_c, 0, 71, 67
1, 48240, Note_on_c, 0, 62, 56
1, 48240, Note_on_c, 0, 35, 49
1, 48240, Note_on_c, 0, 47, 58
1, 48468, Note_on_c, 0, 47, 0
1, 48468, Note_on_c, 0, 68, 0
1, 48468, Note_on_c, 0, 71, 0
1, 48468, Note_on_c, 0, 62, 0
1, 48468, Note_on_c, 0, 35, 0
1, 48480, Tempo, 564546
1, 48480, Note_on_c, 0, 62, 59
1, 48480, Note_on_c, 0, 68, 69
1, 48480, Note_on_c, 0, 71, 69
1, 48480, Note_on_c, 0, 32, 54
1, 48480, Note_on_c, 0, 44, 63
1, 48708, Note_on_c, 0, 44, 0
1, 48708, Note_on_c, 0, 62, 0
1, 48708, Note_on_c, 0, 68, 0
1, 48708, Note_on_c, 0, 71, 0
1, 48708, Note_on_c, 0, 32, 0
1, 48720, Note_on_c, 0, 71, 73
1, 48720, Note_on_c, 0, 68, 73
1, 48720, Note_on_c, 0, 62, 61
1, 48720, Note_on_c, 0, 29, 58
1, 48720, Note_on_c, 0, 41, 69
1, 48948, Note_on_c, 0, 41, 0
1, 48948, Note_on_c, 0, 71, 0
1, 48948, Note_on_c, 0, 68, 0
1, 48948, Note_on_c, 0, 62, 0
1, 48948, Note_on_c, 0, 29, 0
1, 48960, Tempo, 604656
1, 48960, Note_on_c, 0, 74, 0
1, 48960, Note_on_c, 0, 67, 81
1, 48960, Note_on_c, 0, 61, 74
1, 48960, Note_on_c, 0, 27, 77
1, 48960, Note_on_c, 0, 39, 86
1, 48969, Control_c, 0, 64, 0
1, 49067, Control_c, 0, 64, 127
1, 49188, Note_on_c, 0, 39, 0
1, 49188, Note_on_c, 0, 67, 0
1, 49188, Note_on_c, 0, 61, 0
1, 49188, Note_on_c, 0, 27, 0
1, 49200, Tempo, 539763
1, 49200, Note_on_c, 0, 67, 78
1, 49200, Note_on_c, 0, 61, 59
1, 49200, Note_on_c, 0, 51, 32
1, 49200, Note_on_c, 0, 58, 45
1, 49200, Note_on_c, 0, 63, 45
1, 49428, Note_on_c, 0, 63, 0
1, 49428, Note_on_c, 0, 51, 0
1, 49428, Note_on_c, 0, 67, 0
1, 49428, Note_on_c, 0, 61, 0
1, 49428, Note_on_c, 0, 58, 0
1, 49440, Tempo, 525256
1, 49440, Note_on_c, 0, 67, 62
1, 49440, Note_on_c, 0, 72, 80
1, 49440, Note_on_c, 0, 61, 62
1, 49440, Note_on_c, 0, 51, 34
1, 49440, Note_on_c, 0, 58, 48
1, 49440, Note_on_c, 0, 63, 48
1, 49668, Note_on_c, 0, 63, 0
1, 49668, Note_on_c, 0, 72, 0
1, 49668, Note_on_c, 0, 61, 0
1, 49668, Note_on_c, 0, 67, 0
1, 49668, Note_on_c, 0, 58, 0
1, 49668, Note_on_c, 0, 51, 0
1, 49680, Tempo, 510943
1, 49680, Note_on_c, 0, 61, 63
1, 49680, Note_on_c, 0, 67, 63
1, 49680, Note_on_c, 0, 73, 82
1, 49680, Note_on_c, 0, 51, 37
1, 49680, Note_on_c, 0, 58, 50
1, 49680, Note_on_c, 0, 63, 50
1, 49908, Note_on_c, 0, 63, 0
1, 49908, Note_on_c, 0, 67, 0
1, 49908, Note_on_c, 0, 73, 0
1, 49908, Note_on_c, 0, 61, 0
1, 49908, Note_on_c, 0, 58, 0
1, 49908, Note_on_c, 0, 51, 0
1, 49920, Tempo, 545058
1, 49920, Note_on_c, 0, 61, 60
1, 49920, Note_on_c, 0, 65, 79
1, 49920, Note_on_c, 0, 51, 34
1, 49920, Note_on_c, 0, 58, 48
1, 49920, Note_on_c, 0, 63, 48
1, 50148, Note_on_c, 0, 63, 0
1, 50148, Note_on_c, 0, 51, 0
1, 50148, Note_on_c, 0, 61, 0
1, 50148, Note_on_c, 0, 65, 0
1, 50148, Note_on_c, 0, 58, 0
1, 50160, Tempo, 570342
1, 50160, Note_on_c, 0, 61, 59
1, 50160, Note_on_c, 0, 67, 78
1, 50160, Note_on_c, 0, 51, 34
1, 50160, Note_on_c, 0, 58, 48
1, 50160, Note_on_c, 0, 63, 48
1, 50388, Note_on_c, 0, 63, 0
1, 50388, Note_on_c, 0, 51, 0
1, 50388, Note_on_c, 0, 61, 0
1, 50388, Note_on_c, 0, 67, 0
1, 50388, Note_on_c, 0, 58, 0
1, 50400, Tempo, 591716
1, 50400, Note_on_c, 0, 70, 86
1, 50400, Note_on_c, 0, 32, 71
1, 50400, Note_on_c, 0, 44, 77
1, 50410, Control_c, 0, 64, 0
1, 50491, Control_c, 0, 64, 127
1, 50628, Note_on_c, 0, 44, 0
1, 50628, Note_on_c, 0, 32, 0
1, 50640, Tempo, 537105
1, 50640, Note_on_c, 0, 66, 50
1, 50640, Note_on_c, 0, 60, 42
1, 50640, Note_on_c, 0, 51, 36
1, 50640, Note_on_c, 0, 56, 41
1, 50640, Note_on_c, 0, 63, 49
1, 50868, Note_on_c, 0, 63, 0
1, 50868, Note_on_c, 0, 66, 0
1, 50868, Note_on_c, 0, 60, 0
1, 50868, Note_on_c, 0, 51, 0
1, 50868, Note_on_c, 0, 56, 0
1, 50880, Tempo, 528961
1, 50880, Note_on_c, 0, 66, 50
1, 50880, Note_on_c, 0, 60, 42
1, 50880, Note_on_c, 0, 51, 36
1, 50880, Note_on_c, 0, 56, 41
1, 50880, Note_on_c, 0, 63, 48
1, 51108, Note_on_c, 0, 63, 0
1, 51108, Note_on_c, 0, 66, 0
1, 51108, Note_on_c, 0, 60, 0
1, 51108, Note_on_c, 0, 51, 0
1, 51108, Note_on_c, 0, 56, 0
1, 51120, Tempo, 525256
1, 51120, Note_on_c, 0, 70, 0
1, 51120, Note_on_c, 0, 66, 59
1, 51120, Note_on_c, 0, 60, 49
1, 51120, Note_on_c, 0, 68, 84
1, 51120, Note_on_c, 0, 51, 41
1, 51120, Note_on_c, 0, 56, 46
1, 51120, Note_on_c, 0, 63, 57
1, 51137, Control_c, 0, 64, 0
1, 51269, Control_c, 0, 64, 127
1, 51348, Note_on_c, 0, 63, 0
1, 51348, Note_on_c, 0, 51, 0
1, 51348, Note_on_c, 0, 60, 0
1, 51348, Note_on_c, 0, 66, 0
1, 51348, Note_on_c, 0, 56, 0
1, 51360, Tempo, 564546
1, 51360, Note_on_c, 0, 60, 42
1, 51360, Note_on_c, 0, 66, 50
1, 51360, Note_on_c, 0, 51, 36
1, 51360, Note_on_c, 0, 56, 41
1, 51360, Note_on_c, 0, 63, 49
1, 51588, Note_on_c, 0, 63, 0
1, 51588, Note_on_c, 0, 60, 0
1, 51588, Note_on_c, 0, 66, 0
1, 51588, Note_on_c, 0, 51, 0
1, 51588, Note_on_c, 0, 56, 0
1, 51600, Tempo, 576314
1, 51600, Note_on_c, 0, 60, 42
1, 51600, Note_on_c, 0, 66, 50
1, 51600, Note_on_c, 0, 51, 36
1, 51600, Note_on_c, 0, 56, 41
1, 51600, Note_on_c, 0, 63, 49
1, 51828, Note_on_c, 0, 63, 0
1, 51828, Note_on_c, 0, 60, 0
1, 51828, Note_on_c, 0, 66, 0
1, 51828, Note_on_c, 0, 51, 0
1, 51828, Note_on_c, 0, 56, 0
1, 51840, Tempo, 588524
1, 51840, Note_on_c, 0, 25, 69
1, 51840, Note_on_c, 0, 37, 82
1, 51850, Control_c, 0, 64, 0
1, 51960, Control_c, 0, 64, 127
1, 52068, Note_on_c, 0, 37, 0
1, 52068, Note_on_c, 0, 25, 0
1, 52080, Tempo, 542397
1, 52080, Note_on_c, 0, 68, 0
1, 52080, Note_on_c, 0, 68, 63
1, 52080, Note_on_c, 0, 73, 82
1, 52080, Note_on_c, 0, 53, 23
1, 52080, Note_on_c, 0, 56, 26
1, 52080, Note_on_c, 0, 61, 38
1, 52080, Note_on_c, 0, 65, 46
1, 52308, Note_on_c, 0, 65, 0
1, 52308, Note_on_c, 0, 73, 0
1, 52308, Note_on_c, 0, 53, 0
1, 52308, Note_on_c, 0, 68, 0
1, 52308, Note_on_c, 0, 61, 0
1, 52308, Note_on_c, 0, 56, 0
1, 52320, Tempo, 521603
1, 52320, Note_on_c, 0, 73, 67
1, 52320, Note_on_c, 0, 79, 86
1, 52320, Note_on_c, 0, 68, 57
1, 52320, Note_on_c, 0, 53, 23
1, 52320, Note_on_c, 0, 56, 26
1, 52320, Note_on_c, 0, 61, 38
1, 52320, Note_on_c, 0, 65, 46
1, 52548, Note_on_c, 0, 65, 0
1, 52548, Note_on_c, 0, 56, 0
1, 52548, Note_on_c, 0, 79, 0
1, 52548, Note_on_c, 0, 68, 0
1, 52548, Note_on_c, 0, 73, 0
1, 52548, Note_on_c, 0, 61, 0
1, 52548, Note_on_c, 0, 53, 0
1, 52560, Tempo, 510943
1, 52560, Note_on_c, 0, 68, 59
1, 52560, Note_on_c, 0, 73, 71
1, 52560, Note_on_c, 0, 82, 91
1, 52560, Note_on_c, 0, 53, 25
1, 52560, Note_on_c, 0, 56, 28
1, 52560, Note_on_c, 0, 61, 42
1, 52560, Note_on_c, 0, 65, 51
1, 52788, Note_on_c, 0, 65, 0
1, 52788, Note_on_c, 0, 56, 0
1, 52788, Note_on_c, 0, 73, 0
1, 52788, Note_on_c, 0, 82, 0
1, 52788, Note_on_c, 0, 68, 0
1, 52788, Note_on_c, 0, 61, 0
1, 52788, Note_on_c, 0, 53, 0
1, 52800, Tempo, 532718
1, 52800, Note_on_c, 0, 80, 86
1, 52800, Note_on_c, 0, 73, 65
1, 52800, Note_on_c, 0, 68, 55
1, 52800, Note_on_c, 0, 53, 23
1, 52800, Note_on_c, 0, 56, 26
1, 52800, Note_on_c, 0, 61, 38
1, 52800, Note_on_c, 0, 65, 46
1, 53028, Note_on_c, 0, 65, 0
1, 53028, Note_on_c, 0, 56, 0
1, 53028, Note_on_c, 0, 73, 0
1, 53028, Note_on_c, 0, 68, 0
1, 53028, Note_on_c, 0, 80, 0
1, 53028, Note_on_c, 0, 61, 0
1, 53028, Note_on_c, 0, 53, 0
1, 53040, Tempo, 573285
1, 53040, Note_on_c, 0, 68, 55
1, 53040, Note_on_c, 0, 73, 65
1, 53040, Note_on_c, 0, 77, 86
1, 53040, Note_on_c, 0, 53, 23
1, 53040, Note_on_c, 0, 56, 26
1, 53040, Note_on_c, 0, 61, 38
1, 53040, Note_on_c, 0, 65, 46
1, 53268, Note_on_c, 0, 65, 0
1, 53268, Note_on_c, 0, 56, 0
1, 53268, Note_on_c, 0, 73, 0
1, 53268, Note_on_c, 0, 77, 0
1, 53268, Note_on_c, 0, 68, 0
1, 53268, Note_on_c, 0, 61, 0
1, 53268, Note_on_c, 0, 53, 0
1, 53280, Note_on_c, 0, 75, 101
1, 53280, Note_on_c, 0, 27, 60
1, 53280, Note_on_c, 0, 39, 71
1, 53293, Control_c, 0, 64, 0
1, 53427, Control_c, 0, 64, 127
1, 53508, Note_on_c, 0, 39, 0
1, 53508, Note_on_c, 0, 27, 0
1, 53520, Tempo, 556019
1, 53520, Note_on_c, 0, 70, 74
1, 53520, Note_on_c, 0, 63, 62
1, 53520, Note_on_c, 0, 55, 22
1, 53520, Note_on_c, 0, 58, 30
1, 53520, Note_on_c, 0, 67, 37
1, 53748, Note_on_c, 0, 67, 0
1, 53748, Note_on_c, 0, 70, 0
1, 53748, Note_on_c, 0, 63, 0
1, 53748, Note_on_c, 0, 55, 0
1, 53748, Note_on_c, 0, 58, 0
1, 53760, Tempo, 579318
1, 53760, Note_on_c, 0, 70, 74
1, 53760, Note_on_c, 0, 63, 62
1, 53760, Note_on_c, 0, 55, 23
1, 53760, Note_on_c, 0, 58, 32
1, 53760, Note_on_c, 0, 67, 38
1, 53988, Note_on_c, 0, 67, 0
1, 53988, Note_on_c, 0, 70, 0
1, 53988, Note_on_c, 0, 63, 0
1, 53988, Note_on_c, 0, 55, 0
1, 53988, Note_on_c, 0, 58, 0
1, 54000, Tempo, 556019
1, 54000, Note_on_c, 0, 75, 0
1, 54000, Note_on_c, 0, 77, 96
1, 54000, Note_on_c, 0, 29, 55
1, 54000, Note_on_c, 0, 41, 65
1, 54017, Control_c, 0, 64, 0
1, 54133, Control_c, 0, 64, 127
1, 54228, Note_on_c, 0, 41, 0
1, 54228, Note_on_c, 0, 29, 0
1, 54240, Tempo, 564546
1, 54240, Note_on_c, 0, 65, 62
1, 54240, Note_on_c, 0, 73, 74
1, 54240, Note_on_c, 0, 53, 23
1, 54240, Note_on_c, 0, 56, 23
1, 54240, Note_on_c, 0, 61, 32
1, 54240, Note_on_c, 0, 68, 38
1, 54468, Note_on_c, 0, 68, 0
1, 54468, Note_on_c, 0, 56, 0
1, 54468, Note_on_c, 0, 65, 0
1, 54468, Note_on_c, 0, 73, 0
1, 54468, Note_on_c, 0, 53, 0
1, 54468, Note_on_c, 0, 61, 0
1, 54480, Note_on_c, 0, 65, 59
1, 54480, Note_on_c, 0, 73, 71
1, 54480, Note_on_c, 0, 53, 23
1, 54480, Note_on_c, 0, 56, 23
1, 54480, Note_on_c, 0, 61, 32
1, 54480, Note_on_c, 0, 68, 38
1, 54708, Note_on_c, 0, 68, 0
1, 54708, Note_on_c, 0, 56, 0
1, 54708, Note_on_c, 0, 65, 0
1, 54708, Note_on_c, 0, 73, 0
1, 54708, Note_on_c, 0, 53, 0
1, 54708, Note_on_c, 0, 61, 0
1, 54720, Tempo, 594884
1, 54720, Note_on_c, 0, 27, 64
1, 54720, Note_on_c, 0, 39, 71
1, 54720, Control_c, 0, 64, 0
1, 54729, Control_c, 0, 64, 0
1, 54840, Control_c, 0, 64, 127
1, 54948, Note_on_c, 0, 39, 0
1, 54948, Note_on_c, 0, 27, 0
1, 54960, Tempo, 542397
1, 54960, Note_on_c, 0, 77, 0
1, 54960, Note_on_c, 0, 70, 82
1, 54960, Note_on_c, 0, 55, 28
1, 54960, Note_on_c, 0, 58, 32
1, 54960, Note_on_c, 0, 61, 38
1, 54960, Note_on_c, 0, 67, 46
1, 55188, Note_on_c, 0, 67, 0
1, 55188, Note_on_c, 0, 58, 0
1, 55188, Note_on_c, 0, 70, 0
1, 55188, Note_on_c, 0, 55, 0
1, 55188, Note_on_c, 0, 61, 0
1, 55200, Tempo, 532718
1, 55200, Note_on_c, 0, 70, 67
1, 55200, Note_on_c, 0, 63, 58
1, 55200, Note_on_c, 0, 75, 86
1, 55200, Note_on_c, 0, 55, 28
1, 55200, Note_on_c, 0, 58, 32
1, 55200, Note_on_c, 0, 61, 38
1, 55200, Note_on_c, 0, 67, 46
1, 55428, Note_on_c, 0, 67, 0
1, 55428, Note_on_c, 0, 58, 0
1, 55428, Note_on_c, 0, 63, 0
1, 55428, Note_on_c, 0, 75, 0
1, 55428, Note_on_c, 0, 70, 0
1, 55428, Note_on_c, 0, 61, 0
1, 55428, Note_on_c, 0, 55, 0
1, 55440, Tempo, 525256
1, 55440, Note_on_c, 0, 70, 69
1, 55440, Note_on_c, 0, 79, 89
1, 55440, Note_on_c, 0, 63, 42
1, 55440, Note_on_c, 0, 55, 31
1, 55440, Note_on_c, 0, 58, 35
1, 55440, Note_on_c, 0, 61, 42
1, 55440, Note_on_c, 0, 67, 51
1, 55668, Note_on_c, 0, 67, 0
1, 55668, Note_on_c, 0, 58, 0
1, 55668, Note_on_c, 0, 79, 0
1, 55668, Note_on_c, 0, 63, 0
1, 55668, Note_on_c, 0, 70, 0
1, 55668, Note_on_c, 0, 61, 0
1, 55668, Note_on_c, 0, 55, 0
1, 55680, Tempo, 536529
1, 55680, Note_on_c, 0, 70, 65
1, 55680, Note_on_c, 0, 77, 86
1, 55680, Note_on_c, 0, 63, 38
1, 55680, Note_on_c, 0, 55, 28
1, 55680, Note_on_c, 0, 58, 32
1, 55680, Note_on_c, 0, 61, 38
1, 55680, Note_on_c, 0, 67, 46
1, 55908, Note_on_c, 0, 67, 0
1, 55908, Note_on_c, 0, 58, 0
1, 55908, Note_on_c, 0, 77, 0
1, 55908, Note_on_c, 0, 63, 0
1, 55908, Note_on_c, 0, 70, 0
1, 55908, Note_on_c, 0, 61, 0
1, 55908, Note_on_c, 0, 55, 0
1, 55920, Tempo, 573285
1, 55920, Note_on_c, 0, 73, 86
1, 55920, Note_on_c, 0, 63, 38
1, 55920, Note_on_c, 0, 70, 65
1, 55920, Note_on_c, 0, 55, 28
1, 55920, Note_on_c, 0, 58, 32
1, 55920, Note_on_c, 0, 61, 38
1, 55920, Note_on_c, 0, 67, 46
1, 56148, Note_on_c, 0, 67, 0
1, 56148, Note_on_c, 0, 58, 0
1, 56148, Note_on_c, 0, 63, 0
1, 56148, Note_on_c, 0, 70, 0
1, 56148, Note_on_c, 0, 73, 0
1, 56148, Note_on_c, 0, 61, 0
1, 56148, Note_on_c, 0, 55, 0
1, 56160, Tempo, 585423
1, 56160, Note_on_c, 0, 72, 96
1, 56160, Note_on_c, 0, 29, 63
1, 56160, Note_on_c, 0, 41, 71
1, 56173, Control_c, 0, 64, 0
1, 56307, Control_c, 0, 64, 127
1, 56388, Note_on_c, 0, 41, 0
1, 56388, Note_on_c, 0, 29, 0
1, 56400, Tempo, 570342
1, 56400, Note_on_c, 0, 63, 56
1, 56400, Note_on_c, 0, 69, 66
1, 56400, Note_on_c, 0, 53, 27
1, 56400, Note_on_c, 0, 60, 30
1, 56400, Note_on_c, 0, 65, 37
1, 56628, Note_on_c, 0, 65, 0
1, 56628, Note_on_c, 0, 63, 0
1, 56628, Note_on_c, 0, 69, 0
1, 56628, Note_on_c, 0, 53, 0
1, 56628, Note_on_c, 0, 60, 0
1, 56640, Tempo, 579318
1, 56640, Note_on_c, 0, 63, 56
1, 56640, Note_on_c, 0, 69, 66
1, 56640, Note_on_c, 0, 53, 28
1, 56640, Note_on_c, 0, 60, 32
1, 56640, Note_on_c, 0, 65, 38
1, 56868, Note_on_c, 0, 65, 0
1, 56868, Note_on_c, 0, 63, 0
1, 56868, Note_on_c, 0, 69, 0
1, 56868, Note_on_c, 0, 53, 0
1, 56868, Note_on_c, 0, 60, 0
1, 56880, Tempo, 567430
1, 56880, Note_on_c, 0, 72, 0
1, 56880, Note_on_c, 0, 73, 95
1, 56880, Note_on_c, 0, 34, 59
1, 56880, Note_on_c, 0, 46, 65
1, 56895, Control_c, 0, 64, 0
1, 57013, Control_c, 0, 64, 127
1, 57108, Note_on_c, 0, 46, 0
1, 57108, Note_on_c, 0, 34, 0
1, 57120, Tempo, 579318
1, 57120, Note_on_c, 0, 68, 64
1, 57120, Note_on_c, 0, 61, 54
1, 57120, Note_on_c, 0, 53, 27
1, 57120, Note_on_c, 0, 58, 31
1, 57120, Note_on_c, 0, 65, 36
1, 57348, Note_on_c, 0, 65, 0
1, 57348, Note_on_c, 0, 68, 0
1, 57348, Note_on_c, 0, 61, 0
1, 57348, Note_on_c, 0, 53, 0
1, 57348, Note_on_c, 0, 58, 0
1, 57360, Note_on_c, 0, 68, 61
1, 57360, Note_on_c, 0, 61, 50
1, 57360, Note_on_c, 0, 53, 27
1, 57360, Note_on_c, 0, 58, 31
1, 57360, Note_on_c, 0, 65, 36
1, 57588, Note_on_c, 0, 65, 0
1, 57588, Note_on_c, 0, 68, 0
1, 57588, Note_on_c, 0, 61, 0
1, 57588, Note_on_c, 0, 53, 0
1, 57588, Note_on_c, 0, 58, 0
1, 57600, Tempo, 648649
1, 57600, Note_on_c, 0, 39, 65
1, 57600, Note_on_c, 0, 51, 65
1, 57610, Control_c, 0, 64, 0
1, 57611, Control_c, 0, 64, 0
1, 57720, Control_c, 0, 64, 127
1, 57828, Note_on_c, 0, 51, 0
1, 57828, Note_on_c, 0, 39, 0
1, 57840, Tempo, 567430
1, 57840, Note_on_c, 0, 73, 0
1, 57840, Note_on_c, 0, 68, 66
1, 57840, Note_on_c, 0, 61, 54
1, 57840, Note_on_c, 0, 53, 27
1, 57840, Note_on_c, 0, 58, 31
1, 57840, Note_on_c, 0, 65, 37
1, 58068, Note_on_c, 0, 65, 0
1, 58068, Note_on_c, 0, 53, 0
1, 58068, Note_on_c, 0, 68, 0
1, 58068, Note_on_c, 0, 61, 0
1, 58068, Note_on_c, 0, 58, 0
1, 58080, Tempo, 585423
1, 58080, Note_on_c, 0, 61, 45
1, 58080, Note_on_c, 0, 67, 45
1, 58080, Note_on_c, 0, 70, 69
1, 58080, Note_on_c, 0, 51, 27
1, 58080, Note_on_c, 0, 58, 31
1, 58080, Note_on_c, 0, 63, 37
1, 58308, Note_on_c, 0, 63, 0
1, 58308, Note_on_c, 0, 67, 0
1, 58308, Note_on_c, 0, 70, 0
1, 58308, Note_on_c, 0, 61, 0
1, 58308, Note_on_c, 0, 58, 0
1, 58308, Note_on_c, 0, 51, 0
1, 58320, Note_on_c, 0, 61, 54
1, 58320, Note_on_c, 0, 73, 69
1, 58320, Note_on_c, 0, 68, 54
1, 58320, Note_on_c, 0, 44, 48
1, 58330, Control_c, 0, 64, 0
1, 58427, Control_c, 0, 64, 127
1, 58548, Note_on_c, 0, 44, 0
1, 58548, Note_on_c, 0, 61, 0
1, 58548, Note_on_c, 0, 73, 0
1, 58548, Note_on_c, 0, 68, 0
1, 58560, Tempo, 576314
1, 58560, Note_on_c, 0, 68, 52
1, 58560, Note_on_c, 0, 60, 43
1, 58560, Note_on_c, 0, 72, 69
1, 58560, Note_on_c, 0, 51, 22
1, 58560, Note_on_c, 0, 56, 31
1, 58560, Note_on_c, 0, 63, 37
1, 58788, Note_on_c, 0, 63, 0
1, 58788, Note_on_c, 0, 60, 0
1, 58788, Note_on_c, 0, 72, 0
1, 58788, Note_on_c, 0, 68, 0
1, 58788, Note_on_c, 0, 56, 0
1, 58788, Note_on_c, 0, 51, 0
1, 58800, Tempo, 607964
1, 58800, Note_on_c, 0, 65, 46
1, 58800, Note_on_c, 0, 68, 61
1, 58800, Note_on_c, 0, 60, 37
1, 58800, Note_on_c, 0, 51, 19
1, 58800, Note_on_c, 0, 56, 27
1, 58800, Note_on_c, 0, 63, 32
1, 58920, Tempo, 662544
1, 59028, Note_on_c, 0, 63, 0
1, 59028, Note_on_c, 0, 68, 0
1, 59028, Note_on_c, 0, 60, 0
1, 59028, Note_on_c, 0, 65, 0
1, 59028, Note_on_c, 0, 56, 0
1, 59028, Note_on_c, 0, 51, 0
1, 59040, Tempo, 588524
1, 59040, Note_on_c, 0, 70, 70
1, 59040, Note_on_c, 0, 39, 48
1, 59059, Control_c, 0, 64, 0
1, 59213, Control_c, 0, 64, 127
1, 59268, Note_on_c, 0, 39, 0
1, 59280, Tempo, 564546
1, 59280, Note_on_c, 0, 58, 37
1, 59280, Note_on_c, 0, 67, 43
1, 59280, Note_on_c, 0, 51, 15
1, 59280, Note_on_c, 0, 63, 26
1, 59508, Note_on_c, 0, 63, 0
1, 59508, Note_on_c, 0, 67, 0
1, 59508, Note_on_c, 0, 51, 0
1, 59508, Note_on_c, 0, 58, 0
1, 59520, Note_on_c, 0, 58, 36
1, 59520, Note_on_c, 0, 67, 42
1, 59520, Note_on_c, 0, 51, 13
1, 59520, Note_on_c, 0, 63, 25
1, 59748, Note_on_c, 0, 63, 0
1, 59748, Note_on_c, 0, 67, 0
1, 59748, Note_on_c, 0, 51, 0
1, 59748, Note_on_c, 0, 58, 0
1, 59760, Note_on_c, 0, 58, 37
1, 59760, Note_on_c, 0, 67, 43
1, 59760, Note_on_c, 0, 51, 15
1, 59760, Note_on_c, 0, 63, 26
1, 59988, Note_on_c, 0, 63, 0
1, 59988, Note_on_c, 0, 67, 0
1, 59988, Note_on_c, 0, 51, 0
1, 59988, Note_on_c, 0, 58, 0
1, 60000, Tempo, 577868
1, 60000, Note_on_c, 0, 58, 33
1, 60000, Note_on_c, 0, 67, 39
1, 60000, Note_on_c, 0, 51, 12
1, 60000, Note_on_c, 0, 63, 23
1, 60228, Note_on_c, 0, 63, 0
1, 60228, Note_on_c, 0, 67, 0
1, 60228, Note_on_c, 0, 51, 0
1, 60228, Note_on_c, 0, 58, 0
1, 60240, Tempo, 631380
1, 60240, Note_on_c, 0, 58, 31
1, 60240, Note_on_c, 0, 67, 37
1, 60240, Note_on_c, 0, 51, 11
1, 60240, Note_on_c, 0, 63, 22
1, 60468, Note_on_c, 0, 63, 0
1, 60468, Note_on_c, 0, 67, 0
1, 60468, Note_on_c, 0, 51, 0
1, 60468, Note_on_c, 0, 58, 0
1, 60480, Tempo, 576314
1, 60480, Note_on_c, 0, 70, 0
1, 60480, Note_on_c, 0, 71, 52
1, 60480, Note_on_c, 0, 39, 28
1, 60490, Control_c, 0, 64, 0
1, 60583, Control_c, 0, 64, 127
1, 60708, Note_on_c, 0, 39, 0
1, 60720, Tempo, 561640
1, 60720, Note_on_c, 0, 66, 34
1, 60720, Note_on_c, 0, 59, 26
1, 60720, Note_on_c, 0, 51, 18
1, 60720, Note_on_c, 0, 57, 21
1, 60720, Note_on_c, 0, 63, 25
1, 60948, Note_on_c, 0, 63, 0
1, 60948, Note_on_c, 0, 66, 0
1, 60948, Note_on_c, 0, 59, 0
1, 60948, Note_on_c, 0, 51, 0
1, 60948, Note_on_c, 0, 57, 0
1, 60960, Tempo, 573285
1, 60960, Note_on_c, 0, 66, 34
1, 60960, Note_on_c, 0, 59, 26
1, 60960, Note_on_c, 0, 51, 18
1, 60960, Note_on_c, 0, 57, 21
1, 60960, Note_on_c, 0, 63, 25
1, 61080, Note_on_c, 0, 71, 0
1, 61080, Note_on_c, 0, 71, 34
1, 61140, Tempo, 526870
1, 61140, Note_on_c, 0, 71, 0
1, 61140, Note_on_c, 0, 73, 34
1, 61188, Note_on_c, 0, 63, 0
1, 61188, Note_on_c, 0, 57, 0
1, 61188, Note_on_c, 0, 51, 0
1, 61188, Note_on_c, 0, 66, 0
1, 61188, Note_on_c, 0, 59, 0
1, 61200, Tempo, 544316
1, 61200, Note_on_c, 0, 73, 0
1, 61200, Note_on_c, 0, 66, 34
1, 61200, Note_on_c, 0, 59, 26
1, 61200, Note_on_c, 0, 71, 51
1, 61200, Note_on_c, 0, 51, 18
1, 61200, Note_on_c, 0, 57, 21
1, 61200, Note_on_c, 0, 63, 25
1, 61209, Control_c, 0, 64, 0
1, 61428, Note_on_c, 0, 63, 0
1, 61428, Note_on_c, 0, 59, 0
1, 61428, Note_on_c, 0, 71, 0
1, 61428, Note_on_c, 0, 66, 0
1, 61428, Note_on_c, 0, 57, 0
1, 61428, Note_on_c, 0, 51, 0
1, 61440, Tempo, 576314
1, 61440, Note_on_c, 0, 70, 49
1, 61440, Note_on_c, 0, 58, 26
1, 61440, Note_on_c, 0, 66, 34
1, 61440, Note_on_c, 0, 51, 18
1, 61440, Note_on_c, 0, 57, 21
1, 61440, Note_on_c, 0, 63, 25
1, 61668, Note_on_c, 0, 63, 0
1, 61668, Note_on_c, 0, 58, 0
1, 61668, Note_on_c, 0, 66, 0
1, 61668, Note_on_c, 0, 70, 0
1, 61668, Note_on_c, 0, 57, 0
1, 61668, Note_on_c, 0, 51, 0
1, 61680, Note_on_c, 0, 66, 28
1, 61680, Note_on_c, 0, 59, 22
1, 61680, Note_on_c, 0, 71, 49
1, 61680, Note_on_c, 0, 63, 25
1, 61680, Note_on_c, 0, 51, 16
1, 61680, Note_on_c, 0, 57, 22
1, 61908, Note_on_c, 0, 57, 0
1, 61908, Note_on_c, 0, 59, 0
1, 61908, Note_on_c, 0, 71, 0
1, 61908, Note_on_c, 0, 66, 0
1, 61908, Note_on_c, 0, 51, 0
1, 61908, Note_on_c, 0, 63, 0
1, 61920, Tempo, 582355
1, 61920, Note_on_c, 0, 73, 52
1, 61920, Note_on_c, 0, 40, 28
1, 62011, Control_c, 0, 64, 127
1, 62148, Note_on_c, 0, 40, 0
1, 62160, Tempo, 564546
1, 62160, Note_on_c, 0, 68, 33
1, 62160, Note_on_c, 0, 61, 28
1, 62160, Note_on_c, 0, 52, 14
1, 62160, Note_on_c, 0, 56, 20
1, 62160, Note_on_c, 0, 64, 23
1, 62388, Note_on_c, 0, 64, 0
1, 62388, Note_on_c, 0, 68, 0
1, 62388, Note_on_c, 0, 61, 0
1, 62388, Note_on_c, 0, 52, 0
1, 62388, Note_on_c, 0, 56, 0
1, 62400, Tempo, 553250
1, 62400, Note_on_c, 0, 68, 34
1, 62400, Note_on_c, 0, 61, 28
1, 62400, Note_on_c, 0, 52, 15
1, 62400, Note_on_c, 0, 56, 21
1, 62400, Note_on_c, 0, 64, 25
1, 62628, Note_on_c, 0, 64, 0
1, 62628, Note_on_c, 0, 68, 0
1, 62628, Note_on_c, 0, 61, 0
1, 62628, Note_on_c, 0, 52, 0
1, 62628, Note_on_c, 0, 56, 0
1, 62640, Tempo, 561640
1, 62640, Note_on_c, 0, 73, 0
1, 62640, Note_on_c, 0, 59, 27
1, 62640, Note_on_c, 0, 71, 51
1, 62640, Note_on_c, 0, 68, 32
1, 62640, Note_on_c, 0, 52, 16
1, 62640, Note_on_c, 0, 56, 22
1, 62640, Note_on_c, 0, 64, 27
1, 62650, Control_c, 0, 64, 0
1, 62868, Note_on_c, 0, 64, 0
1, 62868, Note_on_c, 0, 59, 0
1, 62868, Note_on_c, 0, 68, 0
1, 62868, Note_on_c, 0, 52, 0
1, 62868, Note_on_c, 0, 56, 0
1, 62880, Tempo, 564546
1, 62880, Note_on_c, 0, 68, 37
1, 62880, Note_on_c, 0, 52, 17
1, 62880, Note_on_c, 0, 56, 22
1, 62880, Note_on_c, 0, 63, 28
1, 63108, Note_on_c, 0, 63, 0
1, 63108, Note_on_c, 0, 52, 0
1, 63108, Note_on_c, 0, 56, 0
1, 63108, Note_on_c, 0, 68, 0
1, 63120, Note_on_c, 0, 71, 0
1, 63120, Note_on_c, 0, 68, 38
1, 63120, Note_on_c, 0, 56, 24
1, 63120, Note_on_c, 0, 52, 17
1, 63120, Note_on_c, 0, 61, 29
1, 63348, Note_on_c, 0, 61, 0
1, 63348, Note_on_c, 0, 68, 0
1, 63348, Note_on_c, 0, 56, 0
1, 63348, Note_on_c, 0, 52, 0
1, 63360, Tempo, 567430
1, 63360, Note_on_c, 0, 71, 56
1, 63360, Note_on_c, 0, 35, 39
1, 63360, Note_on_c, 0, 47, 39
1, 63463, Control_c, 0, 64, 127
1, 63588, Note_on_c, 0, 47, 0
1, 63588, Note_on_c, 0, 35, 0
1, 63588, Note_on_c, 0, 71, 0
1, 63600, Tempo, 550459
1, 63600, Note_on_c, 0, 71, 47
1, 63600, Note_on_c, 0, 66, 36
1, 63600, Note_on_c, 0, 59, 26
1, 63600, Note_on_c, 0, 63, 29
1, 63600, Note_on_c, 0, 69, 35
1, 63828, Note_on_c, 0, 69, 0
1, 63828, Note_on_c, 0, 59, 0
1, 63828, Note_on_c, 0, 71, 0
1, 63828, Note_on_c, 0, 66, 0
1, 63828, Note_on_c, 0, 63, 0
1, 63840, Tempo, 528961
1, 63840, Note_on_c, 0, 73, 60
1, 63840, Note_on_c, 0, 71, 47
1, 63840, Note_on_c, 0, 66, 47
1, 63840, Note_on_c, 0, 59, 26
1, 63840, Note_on_c, 0, 63, 29
1, 63840, Note_on_c, 0, 69, 35
1, 64068, Note_on_c, 0, 69, 0
1, 64068, Note_on_c, 0, 71, 0
1, 64068, Note_on_c, 0, 66, 0
1, 64068, Note_on_c, 0, 73, 0
1, 64068, Note_on_c, 0, 63, 0
1, 64068, Note_on_c, 0, 59, 0
1, 64080, Tempo, 525256
1, 64080, Note_on_c, 0, 66, 36
1, 64080, Note_on_c, 0, 75, 63
1, 64080, Note_on_c, 0, 71, 47
1, 64080, Note_on_c, 0, 59, 26
1, 64080, Note_on_c, 0, 63, 29
1, 64080, Note_on_c, 0, 69, 35
1, 64093, Control_c, 0, 64, 0
1, 64308, Note_on_c, 0, 69, 0
1, 64308, Note_on_c, 0, 75, 0
1, 64308, Note_on_c, 0, 71, 0
1, 64308, Note_on_c, 0, 66, 0
1, 64308, Note_on_c, 0, 63, 0
1, 64308, Note_on_c, 0, 59, 0
1, 64320, Tempo, 564546
1, 64320, Note_on_c, 0, 66, 47
1, 64320, Note_on_c, 0, 76, 67
1, 64320, Note_on_c, 0, 71, 47
1, 64320, Note_on_c, 0, 59, 26
1, 64320, Note_on_c, 0, 61, 29
1, 64320, Note_on_c, 0, 69, 35
1, 64548, Note_on_c, 0, 69, 0
1, 64548, Note_on_c, 0, 76, 0
1, 64548, Note_on_c, 0, 71, 0
1, 64548, Note_on_c, 0, 66, 0
1, 64548, Note_on_c, 0, 61, 0
1, 64548, Note_on_c, 0, 59, 0
1, 64560, Note_on_c, 0, 71, 47
1, 64560, Note_on_c, 0, 78, 67
1, 64560, Note_on_c, 0, 66, 38
1, 64560, Note_on_c, 0, 69, 35
1, 64560, Note_on_c, 0, 59, 23
1, 64560, Note_on_c, 0, 63, 31
1, 64680, Tempo, 576314
1, 64788, Note_on_c, 0, 63, 0
1, 64788, Note_on_c, 0, 78, 0
1, 64788, Note_on_c, 0, 66, 0
1, 64788, Note_on_c, 0, 71, 0
1, 64788, Note_on_c, 0, 59, 0
1, 64788, Note_on_c, 0, 69, 0
1, 64800, Tempo, 567430
1, 64800, Note_on_c, 0, 80, 72
1, 64800, Note_on_c, 0, 40, 39
1, 64800, Note_on_c, 0, 52, 50
1, 64891, Control_c, 0, 64, 127
1, 65028, Note_on_c, 0, 52, 0
1, 65028, Note_on_c, 0, 40, 0
1, 65040, Tempo, 550459
1, 65040, Note_on_c, 0, 68, 40
1, 65040, Note_on_c, 0, 76, 48
1, 65040, Note_on_c, 0, 59, 21
1, 65040, Note_on_c, 0, 64, 29
1, 65040, Note_on_c, 0, 71, 35
1, 65268, Note_on_c, 0, 71, 0
1, 65268, Note_on_c, 0, 68, 0
1, 65268, Note_on_c, 0, 76, 0
1, 65268, Note_on_c, 0, 59, 0
1, 65268, Note_on_c, 0, 64, 0
1, 65280, Tempo, 525256
1, 65280, Note_on_c, 0, 68, 41
1, 65280, Note_on_c, 0, 76, 49
1, 65280, Note_on_c, 0, 59, 23
1, 65280, Note_on_c, 0, 64, 31
1, 65280, Note_on_c, 0, 71, 36
1, 65508, Note_on_c, 0, 71, 0
1, 65508, Note_on_c, 0, 68, 0
1, 65508, Note_on_c, 0, 76, 0
1, 65508, Note_on_c, 0, 59, 0
1, 65508, Note_on_c, 0, 64, 0
1, 65520, Tempo, 545058
1, 65520, Note_on_c, 0, 68, 42
1, 65520, Note_on_c, 0, 76, 51
1, 65520, Note_on_c, 0, 59, 24
1, 65520, Note_on_c, 0, 64, 33
1, 65520, Note_on_c, 0, 71, 39
1, 65748, Note_on_c, 0, 71, 0
1, 65748, Note_on_c, 0, 68, 0
1, 65748, Note_on_c, 0, 76, 0
1, 65748, Note_on_c, 0, 59, 0
1, 65748, Note_on_c, 0, 64, 0
1, 65760, Tempo, 564546
1, 65760, Note_on_c, 0, 76, 53
1, 65760, Note_on_c, 0, 71, 45
1, 65760, Note_on_c, 0, 68, 45
1, 65760, Note_on_c, 0, 39, 40
1, 65760, Note_on_c, 0, 51, 49
1, 65773, Control_c, 0, 64, 0
1, 65988, Note_on_c, 0, 51, 0
1, 65988, Note_on_c, 0, 76, 0
1, 65988, Note_on_c, 0, 71, 0
1, 65988, Note_on_c, 0, 68, 0
1, 65988, Note_on_c, 0, 39, 0
1, 66000, Note_on_c, 0, 68, 46
1, 66000, Note_on_c, 0, 71, 45
1, 66000, Note_on_c, 0, 76, 55
1, 66000, Note_on_c, 0, 50, 55
1, 66000, Note_on_c, 0, 38, 46
1, 66228, Note_on_c, 0, 38, 0
1, 66228, Note_on_c, 0, 68, 0
1, 66228, Note_on_c, 0, 71, 0
1, 66228, Note_on_c, 0, 76, 0
1, 66228, Note_on_c, 0, 50, 0
1, 66240, Tempo, 567430
1, 66240, Note_on_c, 0, 37, 48
1, 66240, Note_on_c, 0, 49, 60
1, 66312, Control_c, 0, 64, 127
1, 66468, Note_on_c, 0, 49, 0
1, 66468, Note_on_c, 0, 37, 0
1, 66480, Tempo, 550459
1, 66480, Note_on_c, 0, 80, 0
1, 66480, Note_on_c, 0, 61, 31
1, 66480, Note_on_c, 0, 53, 22
1, 66480, Note_on_c, 0, 59, 25
1, 66480, Note_on_c, 0, 65, 30
1, 66708, Note_on_c, 0, 65, 0
1, 66708, Note_on_c, 0, 61, 0
1, 66708, Note_on_c, 0, 53, 0
1, 66708, Note_on_c, 0, 59, 0
1, 66720, Tempo, 561640
1, 66720, Note_on_c, 0, 61, 31
1, 66720, Note_on_c, 0, 68, 31
1, 66720, Note_on_c, 0, 73, 40
1, 66720, Note_on_c, 0, 53, 22
1, 66720, Note_on_c, 0, 59, 25
1, 66720, Note_on_c, 0, 65, 30
1, 66839, Note_on_c, 0, 73, 0
1, 66840, Note_on_c, 0, 73, 40
1, 66900, Tempo, 526870
1, 66900, Note_on_c, 0, 73, 0
1, 66900, Note_on_c, 0, 75, 40
1, 66948, Note_on_c, 0, 65, 0
1, 66948, Note_on_c, 0, 59, 0
1, 66948, Note_on_c, 0, 53, 0
1, 66948, Note_on_c, 0, 61, 0
1, 66948, Note_on_c, 0, 68, 0
1, 66960, Tempo, 525256
1, 66960, Note_on_c, 0, 75, 0
1, 66960, Note_on_c, 0, 73, 61
1, 66960, Note_on_c, 0, 61, 31
1, 66960, Note_on_c, 0, 68, 40
1, 66960, Note_on_c, 0, 53, 22
1, 66960, Note_on_c, 0, 59, 25
1, 66960, Note_on_c, 0, 65, 30
1, 67188, Note_on_c, 0, 65, 0
1, 67188, Note_on_c, 0, 61, 0
1, 67188, Note_on_c, 0, 68, 0
1, 67188, Note_on_c, 0, 73, 0
1, 67188, Note_on_c, 0, 59, 0
1, 67188, Note_on_c, 0, 53, 0
1, 67200, Tempo, 564546
1, 67200, Note_on_c, 0, 68, 38
1, 67200, Note_on_c, 0, 60, 31
1, 67200, Note_on_c, 0, 72, 56
1, 67200, Note_on_c, 0, 53, 22
1, 67200, Note_on_c, 0, 59, 25
1, 67200, Note_on_c, 0, 65, 30
1, 67212, Control_c, 0, 64, 0
1, 67428, Note_on_c, 0, 65, 0
1, 67428, Note_on_c, 0, 60, 0
1, 67428, Note_on_c, 0, 72, 0
1, 67428, Note_on_c, 0, 68, 0
1, 67428, Note_on_c, 0, 59, 0
1, 67428, Note_on_c, 0, 53, 0
1, 67440, Note_on_c, 0, 61, 27
1, 67440, Note_on_c, 0, 73, 58
1, 67440, Note_on_c, 0, 68, 33
1, 67440, Note_on_c, 0, 65, 30
1, 67440, Note_on_c, 0, 53, 19
1, 67440, Note_on_c, 0, 59, 27
1, 67668, Note_on_c, 0, 59, 0
1, 67668, Note_on_c, 0, 73, 0
1, 67668, Note_on_c, 0, 68, 0
1, 67668, Note_on_c, 0, 61, 0
1, 67668, Note_on_c, 0, 53, 0
1, 67668, Note_on_c, 0, 65, 0
1, 67680, Tempo, 567430
1, 67680, Note_on_c, 0, 75, 62
1, 67680, Note_on_c, 0, 42, 34
1, 67771, Control_c, 0, 64, 127
1, 67908, Note_on_c, 0, 42, 0
1, 67920, Tempo, 550459
1, 67920, Note_on_c, 0, 61, 33
1, 67920, Note_on_c, 0, 70, 39
1, 67920, Note_on_c, 0, 54, 17
1, 67920, Note_on_c, 0, 58, 24
1, 67920, Note_on_c, 0, 66, 28
1, 68148, Note_on_c, 0, 66, 0
1, 68148, Note_on_c, 0, 61, 0
1, 68148, Note_on_c, 0, 70, 0
1, 68148, Note_on_c, 0, 54, 0
1, 68148, Note_on_c, 0, 58, 0
1, 68160, Tempo, 525256
1, 68160, Note_on_c, 0, 61, 34
1, 68160, Note_on_c, 0, 70, 40
1, 68160, Note_on_c, 0, 54, 18
1, 68160, Note_on_c, 0, 58, 25
1, 68160, Note_on_c, 0, 66, 30
1, 68388, Note_on_c, 0, 66, 0
1, 68388, Note_on_c, 0, 61, 0
1, 68388, Note_on_c, 0, 70, 0
1, 68388, Note_on_c, 0, 54, 0
1, 68388, Note_on_c, 0, 58, 0
1, 68400, Tempo, 545058
1, 68400, Note_on_c, 0, 75, 0
1, 68400, Note_on_c, 0, 73, 60
1, 68400, Note_on_c, 0, 70, 38
1, 68400, Note_on_c, 0, 61, 32
1, 68400, Note_on_c, 0, 54, 19
1, 68400, Note_on_c, 0, 58, 27
1, 68400, Note_on_c, 0, 66, 32
1, 68412, Control_c, 0, 64, 0
1, 68628, Note_on_c, 0, 66, 0
1, 68628, Note_on_c, 0, 70, 0
1, 68628, Note_on_c, 0, 61, 0
1, 68628, Note_on_c, 0, 54, 0
1, 68628, Note_on_c, 0, 58, 0
1, 68640, Tempo, 564546
1, 68640, Note_on_c, 0, 70, 44
1, 68640, Note_on_c, 0, 61, 32
1, 68640, Note_on_c, 0, 54, 20
1, 68640, Note_on_c, 0, 58, 27
1, 68640, Note_on_c, 0, 65, 33
1, 68868, Note_on_c, 0, 65, 0
1, 68868, Note_on_c, 0, 70, 0
1, 68868, Note_on_c, 0, 61, 0
1, 68868, Note_on_c, 0, 54, 0
1, 68868, Note_on_c, 0, 58, 0
1, 68880, Note_on_c, 0, 70, 45
1, 68880, Note_on_c, 0, 61, 32
1, 68880, Note_on_c, 0, 58, 29
1, 68880, Note_on_c, 0, 54, 21
1, 68880, Note_on_c, 0, 63, 35
1, 69108, Note_on_c, 0, 63, 0
1, 69108, Note_on_c, 0, 70, 0
1, 69108, Note_on_c, 0, 61, 0
1, 69108, Note_on_c, 0, 58, 0
1, 69108, Note_on_c, 0, 54, 0
1, 69120, Tempo, 567430
1, 69120, Note_on_c, 0, 73, 0
1, 69120, Note_on_c, 0, 73, 56
1, 69120, Note_on_c, 0, 37, 39
1, 69120, Note_on_c, 0, 49, 39
1, 69205, Control_c, 0, 64, 127
1, 69348, Note_on_c, 0, 49, 0
1, 69348, Note_on_c, 0, 37, 0
1, 69348, Note_on_c, 0, 73, 0
1, 69360, Tempo, 550459
1, 69360, Note_on_c, 0, 65, 36
1, 69360, Note_on_c, 0, 73, 47
1, 69360, Note_on_c, 0, 71, 36
1, 69360, Note_on_c, 0, 61, 29
1, 69360, Note_on_c, 0, 56, 26
1, 69360, Note_on_c, 0, 59, 29
1, 69360, Note_on_c, 0, 68, 35
1, 69588, Note_on_c, 0, 68, 0
1, 69588, Note_on_c, 0, 56, 0
1, 69588, Note_on_c, 0, 73, 0
1, 69588, Note_on_c, 0, 71, 0
1, 69588, Note_on_c, 0, 65, 0
1, 69588, Note_on_c, 0, 59, 0
1, 69588, Note_on_c, 0, 61, 0
1, 69600, Tempo, 528961
1, 69600, Note_on_c, 0, 75, 60
1, 69600, Note_on_c, 0, 71, 47
1, 69600, Note_on_c, 0, 65, 47
1, 69600, Note_on_c, 0, 61, 29
1, 69600, Note_on_c, 0, 56, 26
1, 69600, Note_on_c, 0, 59, 29
1, 69600, Note_on_c, 0, 68, 35
1, 69828, Note_on_c, 0, 68, 0
1, 69828, Note_on_c, 0, 56, 0
1, 69828, Note_on_c, 0, 71, 0
1, 69828, Note_on_c, 0, 65, 0
1, 69828, Note_on_c, 0, 75, 0
1, 69828, Note_on_c, 0, 59, 0
1, 69828, Note_on_c, 0, 61, 0
1, 69840, Tempo, 514447
1, 69840, Note_on_c, 0, 77, 63
1, 69840, Note_on_c, 0, 65, 36
1, 69840, Note_on_c, 0, 71, 47
1, 69840, Note_on_c, 0, 61, 29
1, 69840, Note_on_c, 0, 56, 26
1, 69840, Note_on_c, 0, 59, 29
1, 69840, Note_on_c, 0, 68, 35
1, 69853, Control_c, 0, 64, 0
1, 70068, Note_on_c, 0, 68, 0
1, 70068, Note_on_c, 0, 56, 0
1, 70068, Note_on_c, 0, 65, 0
1, 70068, Note_on_c, 0, 71, 0
1, 70068, Note_on_c, 0, 77, 0
1, 70068, Note_on_c, 0, 59, 0
1, 70068, Note_on_c, 0, 61, 0
1, 70080, Tempo, 564546
1, 70080, Note_on_c, 0, 78, 67
1, 70080, Note_on_c, 0, 71, 47
1, 70080, Note_on_c, 0, 73, 47
1, 70080, Note_on_c, 0, 66, 47
1, 70080, Note_on_c, 0, 61, 29
1, 70080, Note_on_c, 0, 56, 26
1, 70080, Note_on_c, 0, 59, 29
1, 70080, Note_on_c, 0, 63, 35
1, 70308, Note_on_c, 0, 63, 0
1, 70308, Note_on_c, 0, 78, 0
1, 70308, Note_on_c, 0, 61, 0
1, 70308, Note_on_c, 0, 71, 0
1, 70308, Note_on_c, 0, 73, 0
1, 70308, Note_on_c, 0, 66, 0
1, 70308, Note_on_c, 0, 56, 0
1, 70308, Note_on_c, 0, 59, 0
1, 70320, Note_on_c, 0, 80, 67
1, 70320, Note_on_c, 0, 71, 47
1, 70320, Note_on_c, 0, 73, 47
1, 70320, Note_on_c, 0, 68, 38
1, 70320, Note_on_c, 0, 61, 31
1, 70320, Note_on_c, 0, 65, 35
1, 70320, Note_on_c, 0, 56, 23
1, 70320, Note_on_c, 0, 59, 31
1, 70440, Tempo, 576314
1, 70548, Note_on_c, 0, 59, 0
1, 70548, Note_on_c, 0, 80, 0
1, 70548, Note_on_c, 0, 61, 0
1, 70548, Note_on_c, 0, 71, 0
1, 70548, Note_on_c, 0, 73, 0
1, 70548, Note_on_c, 0, 68, 0
1, 70548, Note_on_c, 0, 65, 0
1, 70548, Note_on_c, 0, 56, 0
1, 70560, Tempo, 567430
1, 70560, Note_on_c, 0, 82, 72
1, 70560, Note_on_c, 0, 42, 45
1, 70651, Control_c, 0, 64, 127
1, 70788, Note_on_c, 0, 42, 0
1, 70800, Tempo, 550459
1, 70800, Note_on_c, 0, 70, 50
1, 70800, Note_on_c, 0, 78, 59
1, 70800, Note_on_c, 0, 54, 21
1, 70800, Note_on_c, 0, 61, 29
1, 70800, Note_on_c, 0, 66, 35
1, 71028, Note_on_c, 0, 66, 0
1, 71028, Note_on_c, 0, 70, 0
1, 71028, Note_on_c, 0, 78, 0
1, 71028, Note_on_c, 0, 54, 0
1, 71028, Note_on_c, 0, 61, 0
1, 71040, Tempo, 540394
1, 71040, Note_on_c, 0, 70, 46
1, 71040, Note_on_c, 0, 78, 55
1, 71040, Note_on_c, 0, 54, 23
1, 71040, Note_on_c, 0, 61, 31
1, 71040, Note_on_c, 0, 66, 36
1, 71268, Note_on_c, 0, 66, 0
1, 71268, Note_on_c, 0, 70, 0
1, 71268, Note_on_c, 0, 78, 0
1, 71268, Note_on_c, 0, 54, 0
1, 71268, Note_on_c, 0, 61, 0
1, 71280, Tempo, 545058
1, 71280, Note_on_c, 0, 78, 62
1, 71280, Note_on_c, 0, 73, 52
1, 71280, Note_on_c, 0, 70, 52
1, 71280, Note_on_c, 0, 42, 42
1, 71280, Note_on_c, 0, 54, 50
1, 71508, Note_on_c, 0, 54, 0
1, 71508, Note_on_c, 0, 78, 0
1, 71508, Note_on_c, 0, 73, 0
1, 71508, Note_on_c, 0, 70, 0
1, 71508, Note_on_c, 0, 42, 0
1, 71520, Tempo, 564546
1, 71520, Note_on_c, 0, 70, 56
1, 71520, Note_on_c, 0, 73, 56
1, 71520, Note_on_c, 0, 78, 66
1, 71520, Note_on_c, 0, 41, 45
1, 71520, Note_on_c, 0, 53, 53
1, 71589, Control_c, 0, 64, 0
1, 71748, Note_on_c, 0, 53, 0
1, 71748, Note_on_c, 0, 70, 0
1, 71748, Note_on_c, 0, 73, 0
1, 71748, Note_on_c, 0, 78, 0
1, 71748, Note_on_c, 0, 41, 0
1, 71760, Tempo, 573285
1, 71760, Note_on_c, 0, 73, 59
1, 71760, Note_on_c, 0, 78, 70
1, 71760, Note_on_c, 0, 70, 59
1, 71760, Note_on_c, 0, 52, 56
1, 71760, Note_on_c, 0, 40, 47
1, 71988, Note_on_c, 0, 40, 0
1, 71988, Note_on_c, 0, 73, 0
1, 71988, Note_on_c, 0, 78, 0
1, 71988, Note_on_c, 0, 70, 0
1, 71988, Note_on_c, 0, 52, 0
1, 72000, Note_on_c, 0, 82, 0
1, 72000, Note_on_c, 0, 83, 78
1, 72000, Note_on_c, 0, 39, 63
1, 72000, Note_on_c, 0, 51, 63
1, 72097, Control_c, 0, 64, 127
1, 72228, Note_on_c, 0, 51, 0
1, 72228, Note_on_c, 0, 39, 0
1, 72240, Tempo, 550459
1, 72240, Note_on_c, 0, 69, 48
1, 72240, Note_on_c, 0, 78, 58
1, 72240, Note_on_c, 0, 71, 48
1, 72240, Note_on_c, 0, 59, 34
1, 72240, Note_on_c, 0, 66, 41
1, 72468, Note_on_c, 0, 66, 0
1, 72468, Note_on_c, 0, 69, 0
1, 72468, Note_on_c, 0, 78, 0
1, 72468, Note_on_c, 0, 71, 0
1, 72468, Note_on_c, 0, 59, 0
1, 72480, Note_on_c, 0, 71, 48
1, 72480, Note_on_c, 0, 69, 48
1, 72480, Note_on_c, 0, 78, 58
1, 72480, Note_on_c, 0, 59, 34
1, 72480, Note_on_c, 0, 66, 41
1, 72708, Note_on_c, 0, 66, 0
1, 72708, Note_on_c, 0, 71, 0
1, 72708, Note_on_c, 0, 69, 0
1, 72708, Note_on_c, 0, 78, 0
1, 72708, Note_on_c, 0, 59, 0
1, 72720, Tempo, 564546
1, 72720, Note_on_c, 0, 83, 0
1, 72720, Note_on_c, 0, 80, 74
1, 72720, Note_on_c, 0, 52, 59
1, 72732, Control_c, 0, 64, 0
1, 72843, Control_c, 0, 64, 127
1, 72948, Note_on_c, 0, 52, 0
1, 72960, Tempo, 550459
1, 72960, Note_on_c, 0, 76, 57
1, 72960, Note_on_c, 0, 68, 48
1, 72960, Note_on_c, 0, 59, 34
1, 72960, Note_on_c, 0, 64, 34
1, 72960, Note_on_c, 0, 71, 40
1, 73188, Note_on_c, 0, 71, 0
1, 73188, Note_on_c, 0, 76, 0
1, 73188, Note_on_c, 0, 68, 0
1, 73188, Note_on_c, 0, 59, 0
1, 73188, Note_on_c, 0, 64, 0
1, 73200, Tempo, 576314
1, 73200, Note_on_c, 0, 76, 57
1, 73200, Note_on_c, 0, 68, 48
1, 73200, Note_on_c, 0, 59, 34
1, 73200, Note_on_c, 0, 64, 34
1, 73200, Note_on_c, 0, 71, 40
1, 73428, Note_on_c, 0, 71, 0
1, 73428, Note_on_c, 0, 76, 0
1, 73428, Note_on_c, 0, 68, 0
1, 73428, Note_on_c, 0, 59, 0
1, 73428, Note_on_c, 0, 64, 0
1, 73440, Tempo, 553250
1, 73440, Note_on_c, 0, 80, 0
1, 73440, Note_on_c, 0, 82, 74
1, 73440, Note_on_c, 0, 50, 59
1, 73457, Control_c, 0, 64, 0
1, 73537, Control_c, 0, 64, 127
1, 73668, Note_on_c, 0, 50, 0
1, 73680, Tempo, 550459
1, 73680, Note_on_c, 0, 68, 44
1, 73680, Note_on_c, 0, 77, 55
1, 73680, Note_on_c, 0, 70, 39
1, 73680, Note_on_c, 0, 58, 28
1, 73680, Note_on_c, 0, 65, 34
1, 73908, Note_on_c, 0, 65, 0
1, 73908, Note_on_c, 0, 68, 0
1, 73908, Note_on_c, 0, 77, 0
1, 73908, Note_on_c, 0, 70, 0
1, 73908, Note_on_c, 0, 58, 0
1, 73920, Note_on_c, 0, 68, 44
1, 73920, Note_on_c, 0, 77, 55
1, 73920, Note_on_c, 0, 70, 39
1, 73920, Note_on_c, 0, 58, 28
1, 73920, Note_on_c, 0, 65, 34
1, 74148, Note_on_c, 0, 65, 0
1, 74148, Note_on_c, 0, 68, 0
1, 74148, Note_on_c, 0, 77, 0
1, 74148, Note_on_c, 0, 70, 0
1, 74148, Note_on_c, 0, 58, 0
1, 74160, Tempo, 564546
1, 74160, Note_on_c, 0, 82, 0
1, 74160, Note_on_c, 0, 79, 70
1, 74160, Note_on_c, 0, 51, 56
1, 74172, Control_c, 0, 64, 0
1, 74283, Control_c, 0, 64, 127
1, 74388, Note_on_c, 0, 51, 0
1, 74400, Tempo, 550459
1, 74400, Note_on_c, 0, 75, 52
1, 74400, Note_on_c, 0, 67, 43
1, 74400, Note_on_c, 0, 58, 27
1, 74400, Note_on_c, 0, 63, 27
1, 74400, Note_on_c, 0, 70, 32
1, 74628, Note_on_c, 0, 70, 0
1, 74628, Note_on_c, 0, 75, 0
1, 74628, Note_on_c, 0, 67, 0
1, 74628, Note_on_c, 0, 58, 0
1, 74628, Note_on_c, 0, 63, 0
1, 74640, Tempo, 579318
1, 74640, Note_on_c, 0, 75, 52
1, 74640, Note_on_c, 0, 67, 43
1, 74640, Note_on_c, 0, 58, 27
1, 74640, Note_on_c, 0, 63, 27
1, 74640, Note_on_c, 0, 70, 32
1, 74868, Note_on_c, 0, 70, 0
1, 74868, Note_on_c, 0, 75, 0
1, 74868, Note_on_c, 0, 67, 0
1, 74868, Note_on_c, 0, 58, 0
1, 74868, Note_on_c, 0, 63, 0
1, 74880, Tempo, 553250
1, 74880, Note_on_c, 0, 79, 0
1, 74880, Note_on_c, 0, 81, 66
1, 74880, Note_on_c, 0, 49, 53
1, 74897, Control_c, 0, 64, 0
1, 74977, Control_c, 0, 64, 127
1, 75108, Note_on_c, 0, 49, 0
1, 75120, Tempo, 550459
1, 75120, Note_on_c, 0, 67, 42
1, 75120, Note_on_c, 0, 76, 51
1, 75120, Note_on_c, 0, 69, 36
1, 75120, Note_on_c, 0, 57, 30
1, 75120, Note_on_c, 0, 64, 36
1, 75348, Note_on_c, 0, 64, 0
1, 75348, Note_on_c, 0, 67, 0
1, 75348, Note_on_c, 0, 76, 0
1, 75348, Note_on_c, 0, 69, 0
1, 75348, Note_on_c, 0, 57, 0
1, 75360, Note_on_c, 0, 67, 42
1, 75360, Note_on_c, 0, 76, 51
1, 75360, Note_on_c, 0, 69, 36
1, 75360, Note_on_c, 0, 57, 30
1, 75360, Note_on_c, 0, 64, 36
1, 75588, Note_on_c, 0, 64, 0
1, 75588, Note_on_c, 0, 67, 0
1, 75588, Note_on_c, 0, 76, 0
1, 75588, Note_on_c, 0, 69, 0
1, 75588, Note_on_c, 0, 57, 0
1, 75600, Tempo, 564546
1, 75600, Note_on_c, 0, 81, 0
1, 75600, Note_on_c, 0, 78, 63
1, 75600, Note_on_c, 0, 50, 50
1, 75612, Control_c, 0, 64, 0
1, 75723, Control_c, 0, 64, 127
1, 75828, Note_on_c, 0, 50, 0
1, 75840, Tempo, 550459
1, 75840, Note_on_c, 0, 74, 48
1, 75840, Note_on_c, 0, 66, 40
1, 75840, Note_on_c, 0, 57, 28
1, 75840, Note_on_c, 0, 62, 28
1, 75840, Note_on_c, 0, 69, 34
1, 76068, Note_on_c, 0, 69, 0
1, 76068, Note_on_c, 0, 74, 0
1, 76068, Note_on_c, 0, 66, 0
1, 76068, Note_on_c, 0, 57, 0
1, 76068, Note_on_c, 0, 62, 0
1, 76080, Note_on_c, 0, 73, 48
1, 76080, Note_on_c, 0, 66, 40
1, 76080, Note_on_c, 0, 57, 28
1, 76080, Note_on_c, 0, 62, 28
1, 76080, Note_on_c, 0, 69, 34
1, 76308, Note_on_c, 0, 69, 0
1, 76308, Note_on_c, 0, 73, 0
1, 76308, Note_on_c, 0, 66, 0
1, 76308, Note_on_c, 0, 57, 0
1, 76308, Note_on_c, 0, 62, 0
1, 76320, Tempo, 539763
1, 76320, Note_on_c, 0, 72, 56
1, 76320, Note_on_c, 0, 66, 47
1, 76320, Note_on_c, 0, 57, 43
1, 76320, Note_on_c, 0, 62, 43
1, 76320, Note_on_c, 0, 69, 43
1, 76548, Note_on_c, 0, 69, 0
1, 76548, Note_on_c, 0, 72, 0
1, 76548, Note_on_c, 0, 66, 0
1, 76548, Note_on_c, 0, 57, 0
1, 76548, Note_on_c, 0, 62, 0
1, 76560, Tempo, 545058
1, 76560, Note_on_c, 0, 69, 49
1, 76560, Note_on_c, 0, 66, 49
1, 76560, Note_on_c, 0, 72, 58
1, 76560, Note_on_c, 0, 38, 35
1, 76560, Note_on_c, 0, 50, 42
1, 76576, Control_c, 0, 64, 0
1, 76625, Control_c, 0, 64, 127
1, 76640, Tempo, 547745
1, 76720, Tempo, 550459
1, 76788, Note_on_c, 0, 50, 0
1, 76788, Note_on_c, 0, 69, 0
1, 76788, Note_on_c, 0, 66, 0
1, 76788, Note_on_c, 0, 72, 0
1, 76788, Note_on_c, 0, 38, 0
1, 76800, Tempo, 553250
1, 76800, Note_on_c, 0, 66, 51
1, 76800, Note_on_c, 0, 73, 60
1, 76800, Note_on_c, 0, 69, 51
1, 76800, Note_on_c, 0, 37, 38
1, 76800, Note_on_c, 0, 49, 45
1, 76816, Control_c, 0, 64, 0
1, 76871, Control_c, 0, 64, 127
1, 76880, Tempo, 556019
1, 76960, Tempo, 558815
1, 77028, Note_on_c, 0, 49, 0
1, 77028, Note_on_c, 0, 66, 0
1, 77028, Note_on_c, 0, 73, 0
1, 77028, Note_on_c, 0, 69, 0
1, 77028, Note_on_c, 0, 37, 0
1, 77040, Tempo, 561640
1, 77040, Note_on_c, 0, 69, 52
1, 77040, Note_on_c, 0, 66, 52
1, 77040, Note_on_c, 0, 74, 62
1, 77040, Note_on_c, 0, 36, 39
1, 77040, Note_on_c, 0, 48, 47
1, 77056, Control_c, 0, 64, 0
1, 77120, Tempo, 564546
1, 77131, Control_c, 0, 64, 127
1, 77200, Tempo, 567430
1, 77268, Note_on_c, 0, 48, 0
1, 77268, Note_on_c, 0, 69, 0
1, 77268, Note_on_c, 0, 66, 0
1, 77268, Note_on_c, 0, 74, 0
1, 77268, Note_on_c, 0, 36, 0
1, 77280, Tempo, 570342
1, 77280, Note_on_c, 0, 74, 64
1, 77280, Note_on_c, 0, 66, 54
1, 77280, Note_on_c, 0, 69, 54
1, 77280, Note_on_c, 0, 36, 42
1, 77280, Note_on_c, 0, 48, 50
1, 77360, Tempo, 573285
1, 77440, Tempo, 576314
1, 77500, Tempo, 579318
1, 77508, Note_on_c, 0, 48, 0
1, 77508, Note_on_c, 0, 74, 0
1, 77508, Note_on_c, 0, 66, 0
1, 77508, Note_on_c, 0, 69, 0
1, 77508, Note_on_c, 0, 36, 0
1, 77520, Note_on_c, 0, 69, 56
1, 77520, Note_on_c, 0, 66, 56
1, 77520, Note_on_c, 0, 75, 66
1, 77520, Note_on_c, 0, 35, 44
1, 77520, Note_on_c, 0, 47, 52
1, 77527, Control_c, 0, 64, 0
1, 77618, Control_c, 0, 64, 127
1, 77748, Note_on_c, 0, 47, 0
1, 77748, Note_on_c, 0, 69, 0
1, 77748, Note_on_c, 0, 66, 0
1, 77748, Note_on_c, 0, 75, 0
1, 77748, Note_on_c, 0, 35, 0
1, 77760, Tempo, 567430
1, 77760, Note_on_c, 0, 78, 0
1, 77760, Note_on_c, 0, 79, 77
1, 77760, Note_on_c, 0, 34, 48
1, 77760, Note_on_c, 0, 46, 48
1, 77771, Control_c, 0, 64, 0
1, 77863, Control_c, 0, 64, 127
1, 77988, Note_on_c, 0, 46, 0
1, 77988, Note_on_c, 0, 34, 0
1, 78000, Tempo, 550459
1, 78000, Note_on_c, 0, 67, 39
1, 78000, Note_on_c, 0, 75, 51
1, 78000, Note_on_c, 0, 58, 27
1, 78000, Note_on_c, 0, 63, 31
1, 78000, Note_on_c, 0, 70, 37
1, 78228, Note_on_c, 0, 70, 0
1, 78228, Note_on_c, 0, 67, 0
1, 78228, Note_on_c, 0, 75, 0
1, 78228, Note_on_c, 0, 58, 0
1, 78228, Note_on_c, 0, 63, 0
1, 78240, Note_on_c, 0, 67, 45
1, 78240, Note_on_c, 0, 75, 55
1, 78240, Note_on_c, 0, 58, 28
1, 78240, Note_on_c, 0, 63, 32
1, 78240, Note_on_c, 0, 70, 38
1, 78468, Note_on_c, 0, 70, 0
1, 78468, Note_on_c, 0, 67, 0
1, 78468, Note_on_c, 0, 75, 0
1, 78468, Note_on_c, 0, 58, 0
1, 78468, Note_on_c, 0, 63, 0
1, 78480, Tempo, 545058
1, 78480, Note_on_c, 0, 67, 48
1, 78480, Note_on_c, 0, 73, 48
1, 78480, Note_on_c, 0, 58, 31
1, 78480, Note_on_c, 0, 64, 35
1, 78480, Note_on_c, 0, 70, 42
1, 78490, Control_c, 0, 64, 0
1, 78629, Control_c, 0, 64, 127
1, 78708, Note_on_c, 0, 70, 0
1, 78708, Note_on_c, 0, 67, 0
1, 78708, Note_on_c, 0, 73, 0
1, 78708, Note_on_c, 0, 58, 0
1, 78708, Note_on_c, 0, 64, 0
1, 78720, Tempo, 564546
1, 78720, Note_on_c, 0, 79, 0
1, 78720, Note_on_c, 0, 73, 56
1, 78720, Note_on_c, 0, 80, 66
1, 78720, Note_on_c, 0, 67, 48
1, 78720, Note_on_c, 0, 58, 30
1, 78720, Note_on_c, 0, 64, 34
1, 78720, Note_on_c, 0, 70, 41
1, 78948, Note_on_c, 0, 70, 0
1, 78948, Note_on_c, 0, 80, 0
1, 78948, Note_on_c, 0, 67, 0
1, 78948, Note_on_c, 0, 73, 0
1, 78948, Note_on_c, 0, 64, 0
1, 78948, Note_on_c, 0, 58, 0
1, 78960, Tempo, 579318
1, 78960, Note_on_c, 0, 73, 49
1, 78960, Note_on_c, 0, 67, 49
1, 78960, Note_on_c, 0, 76, 64
1, 78960, Note_on_c, 0, 58, 18
1, 78960, Note_on_c, 0, 70, 35
1, 78960, Note_on_c, 0, 64, 26
1, 79188, Note_on_c, 0, 64, 0
1, 79188, Note_on_c, 0, 67, 0
1, 79188, Note_on_c, 0, 76, 0
1, 79188, Note_on_c, 0, 73, 0
1, 79188, Note_on_c, 0, 70, 0
1, 79188, Note_on_c, 0, 58, 0
1, 79200, Tempo, 560748
1, 79200, Note_on_c, 0, 79, 69
1, 79200, Note_on_c, 0, 46, 46
1, 79211, Control_c, 0, 64, 0
1, 79246, Control_c, 0, 64, 127
1, 79320, Tempo, 509901
1, 79320, Note_on_c, 0, 79, 0
1, 79320, Note_on_c, 0, 77, 54
1, 79380, Note_on_c, 0, 77, 0
1, 79380, Note_on_c, 0, 79, 49
1, 79428, Note_on_c, 0, 46, 0
1, 79440, Tempo, 550459
1, 79440, Note_on_c, 0, 79, 0
1, 79440, Note_on_c, 0, 68, 53
1, 79440, Note_on_c, 0, 77, 62
1, 79440, Note_on_c, 0, 74, 51
1, 79440, Note_on_c, 0, 58, 27
1, 79440, Note_on_c, 0, 65, 30
1, 79440, Note_on_c, 0, 70, 36
1, 79668, Note_on_c, 0, 70, 0
1, 79668, Note_on_c, 0, 77, 0
1, 79668, Note_on_c, 0, 74, 0
1, 79668, Note_on_c, 0, 68, 0
1, 79668, Note_on_c, 0, 65, 0
1, 79668, Note_on_c, 0, 58, 0
1, 79680, Note_on_c, 0, 68, 35
1, 79680, Note_on_c, 0, 76, 64
1, 79680, Note_on_c, 0, 74, 44
1, 79680, Note_on_c, 0, 58, 27
1, 79680, Note_on_c, 0, 65, 30
1, 79680, Note_on_c, 0, 70, 36
1, 79908, Note_on_c, 0, 70, 0
1, 79908, Note_on_c, 0, 76, 0
1, 79908, Note_on_c, 0, 74, 0
1, 79908, Note_on_c, 0, 68, 0
1, 79908, Note_on_c, 0, 65, 0
1, 79908, Note_on_c, 0, 58, 0
1, 79920, Tempo, 545058
1, 79920, Note_on_c, 0, 74, 55
1, 79920, Note_on_c, 0, 68, 57
1, 79920, Note_on_c, 0, 77, 64
1, 79920, Note_on_c, 0, 58, 29
1, 79920, Note_on_c, 0, 65, 33
1, 79920, Note_on_c, 0, 70, 39
1, 80148, Note_on_c, 0, 70, 0
1, 80148, Note_on_c, 0, 68, 0
1, 80148, Note_on_c, 0, 77, 0
1, 80148, Note_on_c, 0, 74, 0
1, 80148, Note_on_c, 0, 65, 0
1, 80148, Note_on_c, 0, 58, 0
1, 80160, Tempo, 564546
1, 80160, Note_on_c, 0, 68, 51
1, 80160, Note_on_c, 0, 79, 60
1, 80160, Note_on_c, 0, 74, 51
1, 80160, Note_on_c, 0, 58, 24
1, 80160, Note_on_c, 0, 65, 27
1, 80160, Note_on_c, 0, 70, 33
1, 80388, Note_on_c, 0, 70, 0
1, 80388, Note_on_c, 0, 79, 0
1, 80388, Note_on_c, 0, 74, 0
1, 80388, Note_on_c, 0, 68, 0
1, 80388, Note_on_c, 0, 65, 0
1, 80388, Note_on_c, 0, 58, 0
1, 80400, Note_on_c, 0, 74, 63
1, 80400, Note_on_c, 0, 68, 51
1, 80400, Note_on_c, 0, 58, 24
1, 80400, Note_on_c, 0, 70, 33
1, 80400, Note_on_c, 0, 65, 27
1, 80628, Note_on_c, 0, 65, 0
1, 80628, Note_on_c, 0, 58, 0
1, 80628, Note_on_c, 0, 74, 0
1, 80628, Note_on_c, 0, 68, 0
1, 80628, Note_on_c, 0, 70, 0
1, 80640, Tempo, 567430
1, 80640, Note_on_c, 0, 75, 62
1, 80640, Note_on_c, 0, 39, 44
1, 80656, Control_c, 0, 64, 0
1, 80811, Control_c, 0, 64, 127
1, 80868, Note_on_c, 0, 39, 0
1, 80880, Tempo, 550459
1, 80880, Note_on_c, 0, 63, 35
1, 80880, Note_on_c, 0, 70, 41
1, 80880, Note_on_c, 0, 55, 16
1, 80880, Note_on_c, 0, 58, 22
1, 80880, Note_on_c, 0, 67, 26
1, 81108, Note_on_c, 0, 67, 0
1, 81108, Note_on_c, 0, 63, 0
1, 81108, Note_on_c, 0, 70, 0
1, 81108, Note_on_c, 0, 55, 0
1, 81108, Note_on_c, 0, 58, 0
1, 81120, Tempo, 528961
1, 81120, Note_on_c, 0, 63, 36
1, 81120, Note_on_c, 0, 70, 42
1, 81120, Note_on_c, 0, 55, 17
1, 81120, Note_on_c, 0, 58, 23
1, 81120, Note_on_c, 0, 67, 28
1, 81348, Note_on_c, 0, 67, 0
1, 81348, Note_on_c, 0, 63, 0
1, 81348, Note_on_c, 0, 70, 0
1, 81348, Note_on_c, 0, 55, 0
1, 81348, Note_on_c, 0, 58, 0
1, 81360, Tempo, 536529
1, 81360, Note_on_c, 0, 63, 37
1, 81360, Note_on_c, 0, 70, 44
1, 81360, Note_on_c, 0, 55, 18
1, 81360, Note_on_c, 0, 58, 25
1, 81360, Note_on_c, 0, 67, 30
1, 81588, Note_on_c, 0, 67, 0
1, 81588, Note_on_c, 0, 63, 0
1, 81588, Note_on_c, 0, 70, 0
1, 81588, Note_on_c, 0, 55, 0
1, 81588, Note_on_c, 0, 58, 0
1, 81600, Tempo, 564546
1, 81600, Note_on_c, 0, 63, 38
1, 81600, Note_on_c, 0, 70, 46
1, 81600, Note_on_c, 0, 55, 19
1, 81600, Note_on_c, 0, 58, 25
1, 81600, Note_on_c, 0, 67, 31
1, 81828, Note_on_c, 0, 67, 0
1, 81828, Note_on_c, 0, 63, 0
1, 81828, Note_on_c, 0, 70, 0
1, 81828, Note_on_c, 0, 55, 0
1, 81828, Note_on_c, 0, 58, 0
1, 81840, Note_on_c, 0, 63, 39
1, 81840, Note_on_c, 0, 70, 47
1, 81840, Note_on_c, 0, 58, 27
1, 81840, Note_on_c, 0, 55, 19
1, 81840, Note_on_c, 0, 67, 33
1, 82068, Note_on_c, 0, 67, 0
1, 82068, Note_on_c, 0, 63, 0
1, 82068, Note_on_c, 0, 70, 0
1, 82068, Note_on_c, 0, 58, 0
1, 82068, Note_on_c, 0, 55, 0
1, 82080, Tempo, 567430
1, 82080, Note_on_c, 0, 63, 45
1, 82080, Note_on_c, 0, 71, 48
1, 82080, Note_on_c, 0, 51, 53
1, 82097, Control_c, 0, 64, 0
1, 82183, Control_c, 0, 64, 127
1, 82308, Note_on_c, 0, 51, 0
1, 82308, Note_on_c, 0, 71, 0
1, 82308, Note_on_c, 0, 63, 0
1, 82320, Tempo, 550459
1, 82320, Note_on_c, 0, 75, 0
1, 82320, Note_on_c, 0, 75, 60
1, 82320, Note_on_c, 0, 71, 46
1, 82320, Note_on_c, 0, 63, 46
1, 82320, Note_on_c, 0, 56, 22
1, 82320, Note_on_c, 0, 59, 25
1, 82320, Note_on_c, 0, 68, 35
1, 82548, Note_on_c, 0, 68, 0
1, 82548, Note_on_c, 0, 71, 0
1, 82548, Note_on_c, 0, 63, 0
1, 82548, Note_on_c, 0, 75, 0
1, 82548, Note_on_c, 0, 59, 0
1, 82548, Note_on_c, 0, 56, 0
1, 82560, Tempo, 536529
1, 82560, Note_on_c, 0, 62, 44
1, 82560, Note_on_c, 0, 74, 57
1, 82560, Note_on_c, 0, 71, 44
1, 82560, Note_on_c, 0, 56, 23
1, 82560, Note_on_c, 0, 59, 26
1, 82560, Note_on_c, 0, 68, 31
1, 82788, Note_on_c, 0, 68, 0
1, 82788, Note_on_c, 0, 74, 0
1, 82788, Note_on_c, 0, 71, 0
1, 82788, Note_on_c, 0, 62, 0
1, 82788, Note_on_c, 0, 59, 0
1, 82788, Note_on_c, 0, 56, 0
1, 82800, Tempo, 525256
1, 82800, Note_on_c, 0, 65, 48
1, 82800, Note_on_c, 0, 77, 62
1, 82800, Note_on_c, 0, 71, 48
1, 82800, Note_on_c, 0, 56, 22
1, 82800, Note_on_c, 0, 59, 25
1, 82800, Note_on_c, 0, 68, 35
1, 83028, Note_on_c, 0, 68, 0
1, 83028, Note_on_c, 0, 77, 0
1, 83028, Note_on_c, 0, 71, 0
1, 83028, Note_on_c, 0, 65, 0
1, 83028, Note_on_c, 0, 59, 0
1, 83028, Note_on_c, 0, 56, 0
1, 83040, Tempo, 564546
1, 83040, Note_on_c, 0, 63, 45
1, 83040, Note_on_c, 0, 71, 45
1, 83040, Note_on_c, 0, 75, 58
1, 83040, Note_on_c, 0, 56, 24
1, 83040, Note_on_c, 0, 59, 27
1, 83040, Note_on_c, 0, 68, 32
1, 83268, Note_on_c, 0, 68, 0
1, 83268, Note_on_c, 0, 71, 0
1, 83268, Note_on_c, 0, 75, 0
1, 83268, Note_on_c, 0, 63, 0
1, 83268, Note_on_c, 0, 59, 0
1, 83268, Note_on_c, 0, 56, 0
1, 83280, Note_on_c, 0, 63, 45
1, 83280, Note_on_c, 0, 71, 59
1, 83280, Note_on_c, 0, 68, 32
1, 83280, Note_on_c, 0, 56, 24
1, 83280, Note_on_c, 0, 59, 27
1, 83508, Note_on_c, 0, 59, 0
1, 83508, Note_on_c, 0, 68, 0
1, 83508, Note_on_c, 0, 63, 0
1, 83508, Note_on_c, 0, 71, 0
1, 83508, Note_on_c, 0, 56, 0
1, 83520, Tempo, 567430
1, 83520, Note_on_c, 0, 75, 62
1, 83520, Note_on_c, 0, 39, 44
1, 83538, Control_c, 0, 64, 0
1, 83691, Control_c, 0, 64, 127
1, 83748, Note_on_c, 0, 39, 0
1, 83760, Tempo, 550459
1, 83760, Note_on_c, 0, 70, 41
1, 83760, Note_on_c, 0, 63, 35
1, 83760, Note_on_c, 0, 55, 16
1, 83760, Note_on_c, 0, 58, 22
1, 83760, Note_on_c, 0, 67, 26
1, 83988, Note_on_c, 0, 67, 0
1, 83988, Note_on_c, 0, 70, 0
1, 83988, Note_on_c, 0, 63, 0
1, 83988, Note_on_c, 0, 55, 0
1, 83988, Note_on_c, 0, 58, 0
1, 84000, Tempo, 525256
1, 84000, Note_on_c, 0, 70, 42
1, 84000, Note_on_c, 0, 63, 36
1, 84000, Note_on_c, 0, 55, 17
1, 84000, Note_on_c, 0, 58, 23
1, 84000, Note_on_c, 0, 67, 28
1, 84228, Note_on_c, 0, 67, 0
1, 84228, Note_on_c, 0, 70, 0
1, 84228, Note_on_c, 0, 63, 0
1, 84228, Note_on_c, 0, 55, 0
1, 84228, Note_on_c, 0, 58, 0
1, 84240, Tempo, 545058
1, 84240, Note_on_c, 0, 70, 44
1, 84240, Note_on_c, 0, 63, 37
1, 84240, Note_on_c, 0, 55, 18
1, 84240, Note_on_c, 0, 58, 25
1, 84240, Note_on_c, 0, 67, 30
1, 84468, Note_on_c, 0, 67, 0
1, 84468, Note_on_c, 0, 70, 0
1, 84468, Note_on_c, 0, 63, 0
1, 84468, Note_on_c, 0, 55, 0
1, 84468, Note_on_c, 0, 58, 0
1, 84480, Tempo, 564546
1, 84480, Note_on_c, 0, 70, 46
1, 84480, Note_on_c, 0, 63, 38
1, 84480, Note_on_c, 0, 55, 19
1, 84480, Note_on_c, 0, 58, 25
1, 84480, Note_on_c, 0, 67, 31
1, 84708, Note_on_c, 0, 67, 0
1, 84708, Note_on_c, 0, 70, 0
1, 84708, Note_on_c, 0, 63, 0
1, 84708, Note_on_c, 0, 55, 0
1, 84708, Note_on_c, 0, 58, 0
1, 84720, Note_on_c, 0, 70, 47
1, 84720, Note_on_c, 0, 63, 39
1, 84720, Note_on_c, 0, 58, 27
1, 84720, Note_on_c, 0, 55, 19
1, 84720, Note_on_c, 0, 67, 33
1, 84948, Note_on_c, 0, 67, 0
1, 84948, Note_on_c, 0, 70, 0
1, 84948, Note_on_c, 0, 63, 0
1, 84948, Note_on_c, 0, 58, 0
1, 84948, Note_on_c, 0, 55, 0
1, 84960, Tempo, 567430
1, 84960, Note_on_c, 0, 71, 48
1, 84960, Note_on_c, 0, 63, 45
1, 84960, Note_on_c, 0, 51, 53
1, 84977, Control_c, 0, 64, 0
1, 85063, Control_c, 0, 64, 127
1, 85188, Note_on_c, 0, 51, 0
1, 85188, Note_on_c, 0, 63, 0
1, 85188, Note_on_c, 0, 71, 0
1, 85200, Tempo, 550459
1, 85200, Note_on_c, 0, 75, 0
1, 85200, Note_on_c, 0, 63, 39
1, 85200, Note_on_c, 0, 71, 39
1, 85200, Note_on_c, 0, 75, 51
1, 85200, Note_on_c, 0, 56, 18
1, 85200, Note_on_c, 0, 59, 21
1, 85200, Note_on_c, 0, 68, 29
1, 85428, Note_on_c, 0, 68, 0
1, 85428, Note_on_c, 0, 71, 0
1, 85428, Note_on_c, 0, 75, 0
1, 85428, Note_on_c, 0, 63, 0
1, 85428, Note_on_c, 0, 59, 0
1, 85428, Note_on_c, 0, 56, 0
1, 85440, Tempo, 528961
1, 85440, Note_on_c, 0, 74, 48
1, 85440, Note_on_c, 0, 71, 37
1, 85440, Note_on_c, 0, 62, 37
1, 85440, Note_on_c, 0, 56, 19
1, 85440, Note_on_c, 0, 59, 22
1, 85440, Note_on_c, 0, 68, 26
1, 85668, Note_on_c, 0, 68, 0
1, 85668, Note_on_c, 0, 71, 0
1, 85668, Note_on_c, 0, 62, 0
1, 85668, Note_on_c, 0, 74, 0
1, 85668, Note_on_c, 0, 59, 0
1, 85668, Note_on_c, 0, 56, 0
1, 85680, Tempo, 528961
1, 85680, Note_on_c, 0, 71, 40
1, 85680, Note_on_c, 0, 65, 40
1, 85680, Note_on_c, 0, 77, 52
1, 85680, Note_on_c, 0, 56, 18
1, 85680, Note_on_c, 0, 59, 21
1, 85680, Note_on_c, 0, 68, 29
1, 85908, Note_on_c, 0, 68, 0
1, 85908, Note_on_c, 0, 65, 0
1, 85908, Note_on_c, 0, 77, 0
1, 85908, Note_on_c, 0, 71, 0
1, 85908, Note_on_c, 0, 59, 0
1, 85908, Note_on_c, 0, 56, 0
1, 85920, Tempo, 564546
1, 85920, Note_on_c, 0, 75, 49
1, 85920, Note_on_c, 0, 71, 38
1, 85920, Note_on_c, 0, 63, 38
1, 85920, Note_on_c, 0, 56, 20
1, 85920, Note_on_c, 0, 59, 22
1, 85920, Note_on_c, 0, 68, 27
1, 86148, Note_on_c, 0, 68, 0
1, 86148, Note_on_c, 0, 71, 0
1, 86148, Note_on_c, 0, 63, 0
1, 86148, Note_on_c, 0, 75, 0
1, 86148, Note_on_c, 0, 59, 0
1, 86148, Note_on_c, 0, 56, 0
1, 86160, Note_on_c, 0, 71, 50
1, 86160, Note_on_c, 0, 63, 38
1, 86160, Note_on_c, 0, 68, 27
1, 86160, Note_on_c, 0, 56, 20
1, 86160, Note_on_c, 0, 59, 22
1, 86388, Note_on_c, 0, 59, 0
1, 86388, Note_on_c, 0, 68, 0
1, 86388, Note_on_c, 0, 71, 0
1, 86388, Note_on_c, 0, 63, 0
1, 86388, Note_on_c, 0, 56, 0
1, 86400, Tempo, 567430
1, 86400, Note_on_c, 0, 75, 47
1, 86400, Note_on_c, 0, 39, 33
1, 86417, Control_c, 0, 64, 0
1, 86571, Control_c, 0, 64, 127
1, 86628, Note_on_c, 0, 39, 0
1, 86640, Tempo, 550459
1, 86640, Note_on_c, 0, 63, 23
1, 86640, Note_on_c, 0, 70, 28
1, 86640, Note_on_c, 0, 55, 13
1, 86640, Note_on_c, 0, 58, 15
1, 86640, Note_on_c, 0, 67, 17
1, 86868, Note_on_c, 0, 67, 0
1, 86868, Note_on_c, 0, 63, 0
1, 86868, Note_on_c, 0, 70, 0
1, 86868, Note_on_c, 0, 55, 0
1, 86868, Note_on_c, 0, 58, 0
1, 86880, Tempo, 542397
1, 86880, Note_on_c, 0, 63, 24
1, 86880, Note_on_c, 0, 70, 29
1, 86880, Note_on_c, 0, 55, 13
1, 86880, Note_on_c, 0, 58, 15
1, 86880, Note_on_c, 0, 67, 17
1, 87108, Note_on_c, 0, 67, 0
1, 87108, Note_on_c, 0, 63, 0
1, 87108, Note_on_c, 0, 70, 0
1, 87108, Note_on_c, 0, 55, 0
1, 87108, Note_on_c, 0, 58, 0
1, 87120, Tempo, 545058
1, 87120, Note_on_c, 0, 63, 25
1, 87120, Note_on_c, 0, 70, 30
1, 87120, Note_on_c, 0, 55, 13
1, 87120, Note_on_c, 0, 58, 15
1, 87120, Note_on_c, 0, 67, 18
1, 87348, Note_on_c, 0, 67, 0
1, 87348, Note_on_c, 0, 63, 0
1, 87348, Note_on_c, 0, 70, 0
1, 87348, Note_on_c, 0, 55, 0
1, 87348, Note_on_c, 0, 58, 0
1, 87360, Tempo, 550459
1, 87360, Note_on_c, 0, 63, 26
1, 87360, Note_on_c, 0, 70, 31
1, 87360, Note_on_c, 0, 55, 14
1, 87360, Note_on_c, 0, 58, 16
1, 87360, Note_on_c, 0, 67, 19
1, 87412, Tempo, 552995
1, 87424, Tempo, 555556
1, 87440, Tempo, 558140
1, 87452, Tempo, 560748
1, 87492, Tempo, 558140
1, 87504, Tempo, 550459
1, 87532, Tempo, 555556
1, 87560, Tempo, 563380
1, 87588, Note_on_c, 0, 67, 0
1, 87588, Note_on_c, 0, 63, 0
1, 87588, Note_on_c, 0, 70, 0
1, 87588, Note_on_c, 0, 55, 0
1, 87588, Note_on_c, 0, 58, 0
1, 87600, Tempo, 560748
1, 87600, Note_on_c, 0, 63, 28
1, 87600, Note_on_c, 0, 70, 33
1, 87600, Note_on_c, 0, 58, 16
1, 87600, Note_on_c, 0, 55, 14
1, 87600, Note_on_c, 0, 67, 20
1, 87612, Tempo, 555556
1, 87624, Tempo, 552995
1, 87680, Tempo, 560748
1, 87692, Tempo, 563380
1, 87720, Tempo, 560748
1, 87732, Tempo, 558140
1, 87760, Tempo, 555556
1, 87784, Tempo, 558140
1, 87828, Note_on_c, 0, 67, 0
1, 87828, Note_on_c, 0, 63, 0
1, 87828, Note_on_c, 0, 70, 0
1, 87828, Note_on_c, 0, 58, 0
1, 87828, Note_on_c, 0, 55, 0
1, 87840, Tempo, 558140
1, 87840, Note_on_c, 0, 63, 28
1, 87840, Note_on_c, 0, 70, 34
1, 87840, Note_on_c, 0, 55, 15
1, 87840, Note_on_c, 0, 58, 17
1, 87840, Note_on_c, 0, 67, 21
1, 87880, Tempo, 555556
1, 87904, Tempo, 552995
1, 87944, Tempo, 550459
1, 87972, Tempo, 547945
1, 88012, Tempo, 545455
1, 88040, Tempo, 542986
1, 88068, Note_on_c, 0, 67, 0
1, 88068, Note_on_c, 0, 63, 0
1, 88068, Note_on_c, 0, 70, 0
1, 88068, Note_on_c, 0, 55, 0
1, 88068, Note_on_c, 0, 58, 0
1, 88080, Tempo, 540541
1, 88080, Note_on_c, 0, 63, 28
1, 88080, Note_on_c, 0, 70, 34
1, 88080, Note_on_c, 0, 55, 15
1, 88080, Note_on_c, 0, 58, 17
1, 88080, Note_on_c, 0, 67, 22
1, 88308, Note_on_c, 0, 67, 0
1, 88308, Note_on_c, 0, 63, 0
1, 88308, Note_on_c, 0, 70, 0
1, 88308, Note_on_c, 0, 55, 0
1, 88308, Note_on_c, 0, 58, 0
1, 88320, Tempo, 530973
1, 88320, Note_on_c, 0, 63, 31
1, 88320, Note_on_c, 0, 70, 37
1, 88320, Note_on_c, 0, 55, 16
1, 88320, Note_on_c, 0, 58, 18
1, 88320, Note_on_c, 0, 67, 22
1, 88548, Note_on_c, 0, 67, 0
1, 88548, Note_on_c, 0, 63, 0
1, 88548, Note_on_c, 0, 70, 0
1, 88548, Note_on_c, 0, 55, 0
1, 88548, Note_on_c, 0, 58, 0
1, 88560, Tempo, 545058
1, 88560, Note_on_c, 0, 63, 32
1, 88560, Note_on_c, 0, 70, 39
1, 88560, Note_on_c, 0, 55, 17
1, 88560, Note_on_c, 0, 58, 20
1, 88560, Note_on_c, 0, 67, 23
1, 88788, Note_on_c, 0, 67, 0
1, 88788, Note_on_c, 0, 63, 0
1, 88788, Note_on_c, 0, 70, 0
1, 88788, Note_on_c, 0, 55, 0
1, 88788, Note_on_c, 0, 58, 0
1, 88800, Tempo, 555556
1, 88800, Note_on_c, 0, 63, 34
1, 88800, Note_on_c, 0, 70, 39
1, 88800, Note_on_c, 0, 55, 18
1, 88800, Note_on_c, 0, 58, 21
1, 88800, Note_on_c, 0, 67, 24
1, 88812, Tempo, 552995
1, 88824, Tempo, 550459
1, 88852, Tempo, 547945
1, 88880, Tempo, 558140
1, 88892, Tempo, 560748
1, 88932, Tempo, 555556
1, 88944, Tempo, 550459
1, 88960, Tempo, 547945
1, 88984, Tempo, 550459
1, 89000, Tempo, 558140
1, 89012, Tempo, 563380
1, 89028, Note_on_c, 0, 67, 0
1, 89028, Note_on_c, 0, 63, 0
1, 89028, Note_on_c, 0, 70, 0
1, 89028, Note_on_c, 0, 55, 0
1, 89028, Note_on_c, 0, 58, 0
1, 89040, Note_on_c, 0, 63, 35
1, 89040, Note_on_c, 0, 70, 42
1, 89040, Note_on_c, 0, 58, 22
1, 89040, Note_on_c, 0, 55, 19
1, 89040, Note_on_c, 0, 67, 26
1, 89052, Tempo, 560748
1, 89064, Tempo, 558140
1, 89080, Tempo, 555556
1, 89092, Tempo, 550459
1, 89120, Tempo, 552995
1, 89132, Tempo, 558140
1, 89252, Tempo, 563380
1, 89268, Note_on_c, 0, 67, 0
1, 89268, Note_on_c, 0, 63, 0
1, 89268, Note_on_c, 0, 70, 0
1, 89268, Note_on_c, 0, 58, 0
1, 89268, Note_on_c, 0, 55, 0
1, 89280, Tempo, 563380
1, 89280, Note_on_c, 0, 75, 0
1, 89280, Note_on_c, 0, 63, 35
1, 89280, Note_on_c, 0, 70, 43
1, 89280, Note_on_c, 0, 55, 20
1, 89280, Note_on_c, 0, 58, 22
1, 89280, Note_on_c, 0, 67, 28
1, 89360, Tempo, 560748
1, 89440, Tempo, 558140
1, 89480, Tempo, 555556
1, 89508, Note_on_c, 0, 67, 0
1, 89508, Note_on_c, 0, 55, 0
1, 89508, Note_on_c, 0, 63, 0
1, 89508, Note_on_c, 0, 70, 0
1, 89508, Note_on_c, 0, 58, 0
1, 89520, Note_on_c, 0, 63, 35
1, 89520, Note_on_c, 0, 70, 42
1, 89520, Note_on_c, 0, 55, 20
1, 89520, Note_on_c, 0, 58, 22
1, 89520, Note_on_c, 0, 67, 28
1, 89560, Tempo, 552995
1, 89600, Tempo, 550459
1, 89680, Tempo, 547945
1, 89748, Note_on_c, 0, 67, 0
1, 89748, Note_on_c, 0, 55, 0
1, 89748, Note_on_c, 0, 63, 0
1, 89748, Note_on_c, 0, 70, 0
1, 89748, Note_on_c, 0, 58, 0
1, 89760, Tempo, 545455
1, 89760, Note_on_c, 0, 63, 34
1, 89760, Note_on_c, 0, 70, 41
1, 89760, Note_on_c, 0, 55, 19
1, 89760, Note_on_c, 0, 58, 22
1, 89760, Note_on_c, 0, 67, 26
1, 89800, Tempo, 542986
1, 89880, Tempo, 540541
1, 89920, Tempo, 538117
1, 89960, Tempo, 538117
1, 89988, Note_on_c, 0, 67, 0
1, 89988, Note_on_c, 0, 55, 0
1, 89988, Note_on_c, 0, 63, 0
1, 89988, Note_on_c, 0, 70, 0
1, 89988, Note_on_c, 0, 58, 0
1, 90000, Note_on_c, 0, 63, 33
1, 90000, Note_on_c, 0, 70, 39
1, 90000, Note_on_c, 0, 55, 19
1, 90000, Note_on_c, 0, 58, 22
1, 90000, Note_on_c, 0, 67, 26
1, 90040, Tempo, 540541
1, 90120, Tempo, 542986
1, 90200, Tempo, 545455
1, 90228, Note_on_c, 0, 67, 0
1, 90228, Note_on_c, 0, 55, 0
1, 90228, Note_on_c, 0, 63, 0
1, 90228, Note_on_c, 0, 70, 0
1, 90228, Note_on_c, 0, 58, 0
1, 90240, Tempo, 547945
1, 90240, Note_on_c, 0, 63, 32
1, 90240, Note_on_c, 0, 70, 39
1, 90240, Note_on_c, 0, 55, 18
1, 90240, Note_on_c, 0, 58, 21
1, 90240, Note_on_c, 0, 67, 24
1, 90320, Tempo, 550459
1, 90400, Tempo, 552995
1, 90440, Tempo, 555556
1, 90468, Note_on_c, 0, 67, 0
1, 90468, Note_on_c, 0, 55, 0
1, 90468, Note_on_c, 0, 63, 0
1, 90468, Note_on_c, 0, 70, 0
1, 90468, Note_on_c, 0, 58, 0
1, 90480, Note_on_c, 0, 63, 30
1, 90480, Note_on_c, 0, 70, 36
1, 90480, Note_on_c, 0, 58, 21
1, 90480, Note_on_c, 0, 55, 18
1, 90480, Note_on_c, 0, 67, 24
1, 90520, Tempo, 558140
1, 90600, Tempo, 560748
1, 90640, Tempo, 563380
1, 90708, Note_on_c, 0, 67, 0
1, 90708, Note_on_c, 0, 58, 0
1, 90708, Note_on_c, 0, 63, 0
1, 90708, Note_on_c, 0, 70, 0
1, 90708, Note_on_c, 0, 55, 0
1, 90720, Tempo, 567430
1, 90720, Note_on_c, 0, 63, 29
1, 90720, Note_on_c, 0, 70, 35
1, 90720, Note_on_c, 0, 55, 17
1, 90720, Note_on_c, 0, 58, 20
1, 90720, Note_on_c, 0, 67, 23
1, 90948, Note_on_c, 0, 67, 0
1, 90948, Note_on_c, 0, 55, 0
1, 90948, Note_on_c, 0, 63, 0
1, 90948, Note_on_c, 0, 70, 0
1, 90948, Note_on_c, 0, 58, 0
1, 90960, Tempo, 550459
1, 90960, Note_on_c, 0, 63, 28
1, 90960, Note_on_c, 0, 70, 34
1, 90960, Note_on_c, 0, 55, 17
1, 90960, Note_on_c, 0, 58, 20
1, 90960, Note_on_c, 0, 67, 23
1, 91188, Note_on_c, 0, 67, 0
1, 91188, Note_on_c, 0, 55, 0
1, 91188, Note_on_c, 0, 63, 0
1, 91188, Note_on_c, 0, 70, 0
1, 91188, Note_on_c, 0, 58, 0
1, 91200, Tempo, 550459
1, 91200, Note_on_c, 0, 63, 28
1, 91200, Note_on_c, 0, 70, 33
1, 91200, Note_on_c, 0, 55, 16
1, 91200, Note_on_c, 0, 58, 18
1, 91200, Note_on_c, 0, 67, 23
1, 91260, Tempo, 553250
1, 91320, Tempo, 556019
1, 91380, Tempo, 558815
1, 91420, Tempo, 561640
1, 91428, Note_on_c, 0, 67, 0
1, 91428, Note_on_c, 0, 55, 0
1, 91428, Note_on_c, 0, 63, 0
1, 91428, Note_on_c, 0, 70, 0
1, 91428, Note_on_c, 0, 58, 0
1, 91440, Tempo, 560748
1, 91440, Note_on_c, 0, 63, 26
1, 91440, Note_on_c, 0, 70, 32
1, 91440, Note_on_c, 0, 55, 16
1, 91440, Note_on_c, 0, 58, 18
1, 91440, Note_on_c, 0, 67, 22
1, 91480, Tempo, 563380
1, 91520, Tempo, 568720
1, 91560, Tempo, 571429
1, 91600, Tempo, 576923
1, 91640, Tempo, 579710
1, 91668, Note_on_c, 0, 67, 0
1, 91668, Note_on_c, 0, 55, 0
1, 91668, Note_on_c, 0, 63, 0
1, 91668, Note_on_c, 0, 70, 0
1, 91668, Note_on_c, 0, 58, 0
1, 91680, Tempo, 585366
1, 91680, Note_on_c, 0, 63, 24
1, 91680, Note_on_c, 0, 70, 29
1, 91680, Note_on_c, 0, 55, 15
1, 91680, Note_on_c, 0, 58, 17
1, 91680, Note_on_c, 0, 67, 22
1, 91720, Tempo, 591133
1, 91760, Tempo, 594059
1, 91800, Tempo, 600000
1, 91840, Tempo, 603015
1, 91880, Tempo, 609137
1, 91908, Note_on_c, 0, 67, 0
1, 91908, Note_on_c, 0, 55, 0
1, 91908, Note_on_c, 0, 63, 0
1, 91908, Note_on_c, 0, 70, 0
1, 91908, Note_on_c, 0, 58, 0
1, 91920, Tempo, 615385
1, 91920, Note_on_c, 0, 63, 23
1, 91920, Note_on_c, 0, 70, 28
1, 91920, Note_on_c, 0, 58, 17
1, 91920, Note_on_c, 0, 55, 15
1, 91920, Note_on_c, 0, 67, 22
1, 92040, Tempo, 689655
1, 92148, Note_on_c, 0, 67, 0
1, 92148, Note_on_c, 0, 58, 0
1, 92148, Note_on_c, 0, 55, 0
1, 92160, Tempo, 722892
1, 92160, Note_on_c, 0, 32, 61
1, 92171, Control_c, 0, 64, 0
1, 92267, Control_c, 0, 64, 127
1, 92400, Tempo, 539763
1, 92400, Note_on_c, 0, 70, 0
1, 92400, Note_on_c, 0, 63, 0
1, 92400, Note_on_c, 0, 70, 39
1, 92400, Note_on_c, 0, 63, 28
1, 92400, Note_on_c, 0, 44, 17
1, 92400, Note_on_c, 0, 51, 21
1, 92628, Note_on_c, 0, 51, 0
1, 92628, Note_on_c, 0, 63, 0
1, 92628, Note_on_c, 0, 44, 0
1, 92628, Note_on_c, 0, 70, 0
1, 92640, Tempo, 521603
1, 92640, Note_on_c, 0, 72, 39
1, 92640, Note_on_c, 0, 63, 29
1, 92640, Note_on_c, 0, 44, 18
1, 92640, Note_on_c, 0, 51, 22
1, 92868, Note_on_c, 0, 51, 0
1, 92868, Note_on_c, 0, 63, 0
1, 92868, Note_on_c, 0, 44, 0
1, 92868, Note_on_c, 0, 72, 0
1, 92880, Tempo, 514447
1, 92880, Note_on_c, 0, 63, 30
1, 92880, Note_on_c, 0, 73, 41
1, 92880, Note_on_c, 0, 44, 20
1, 92880, Note_on_c, 0, 51, 23
1, 92880, Note_on_c, 0, 58, 23
1, 93108, Note_on_c, 0, 58, 0
1, 93108, Note_on_c, 0, 63, 0
1, 93108, Note_on_c, 0, 73, 0
1, 93108, Note_on_c, 0, 44, 0
1, 93108, Note_on_c, 0, 51, 0
1, 93120, Tempo, 545058
1, 93120, Note_on_c, 0, 61, 28
1, 93120, Note_on_c, 0, 65, 39
1, 93120, Note_on_c, 0, 51, 18
1, 93120, Note_on_c, 0, 58, 22
1, 93348, Note_on_c, 0, 58, 0
1, 93348, Note_on_c, 0, 65, 0
1, 93348, Note_on_c, 0, 51, 0
1, 93348, Note_on_c, 0, 61, 0
1, 93360, Tempo, 570342
1, 93360, Note_on_c, 0, 61, 28
1, 93360, Note_on_c, 0, 67, 39
1, 93360, Note_on_c, 0, 51, 18
1, 93360, Note_on_c, 0, 58, 22
1, 93588, Note_on_c, 0, 58, 0
1, 93588, Note_on_c, 0, 67, 0
1, 93588, Note_on_c, 0, 51, 0
1, 93588, Note_on_c, 0, 61, 0
1, 93600, Tempo, 591716
1, 93600, Note_on_c, 0, 32, 0
1, 93600, Note_on_c, 0, 60, 19
1, 93600, Note_on_c, 0, 70, 42
1, 93600, Note_on_c, 0, 51, 16
1, 93600, Note_on_c, 0, 56, 18
1, 93600, Note_on_c, 0, 63, 22
1, 93613, Control_c, 0, 64, 0
1, 93734, Control_c, 0, 64, 127
1, 93828, Note_on_c, 0, 63, 0
1, 93828, Note_on_c, 0, 51, 0
1, 93828, Note_on_c, 0, 56, 0
1, 93828, Note_on_c, 0, 60, 0
1, 93840, Tempo, 537105
1, 93840, Note_on_c, 0, 60, 19
1, 93840, Note_on_c, 0, 51, 14
1, 93840, Note_on_c, 0, 56, 16
1, 93840, Note_on_c, 0, 63, 20
1, 94068, Note_on_c, 0, 63, 0
1, 94068, Note_on_c, 0, 51, 0
1, 94068, Note_on_c, 0, 56, 0
1, 94068, Note_on_c, 0, 60, 0
1, 94080, Tempo, 542397
1, 94080, Note_on_c, 0, 60, 19
1, 94080, Note_on_c, 0, 51, 13
1, 94080, Note_on_c, 0, 56, 15
1, 94080, Note_on_c, 0, 63, 19
1, 94308, Note_on_c, 0, 63, 0
1, 94308, Note_on_c, 0, 51, 0
1, 94308, Note_on_c, 0, 56, 0
1, 94308, Note_on_c, 0, 60, 0
1, 94320, Note_on_c, 0, 70, 0
1, 94320, Note_on_c, 0, 60, 22
1, 94320, Note_on_c, 0, 68, 40
1, 94320, Note_on_c, 0, 51, 16
1, 94320, Note_on_c, 0, 56, 18
1, 94320, Note_on_c, 0, 63, 22
1, 94337, Control_c, 0, 64, 0
1, 94469, Control_c, 0, 64, 127
1, 94548, Note_on_c, 0, 63, 0
1, 94548, Note_on_c, 0, 51, 0
1, 94548, Note_on_c, 0, 56, 0
1, 94548, Note_on_c, 0, 60, 0
1, 94560, Tempo, 564546
1, 94560, Note_on_c, 0, 60, 19
1, 94560, Note_on_c, 0, 51, 14
1, 94560, Note_on_c, 0, 56, 16
1, 94560, Note_on_c, 0, 63, 20
1, 94788, Note_on_c, 0, 63, 0
1, 94788, Note_on_c, 0, 51, 0
1, 94788, Note_on_c, 0, 56, 0
1, 94788, Note_on_c, 0, 60, 0
1, 94800, Tempo, 576314
1, 94800, Note_on_c, 0, 60, 19
1, 94800, Note_on_c, 0, 51, 14
1, 94800, Note_on_c, 0, 56, 16
1, 94800, Note_on_c, 0, 63, 20
1, 94920, Tempo, 647040
1, 95028, Note_on_c, 0, 63, 0
1, 95028, Note_on_c, 0, 51, 0
1, 95028, Note_on_c, 0, 56, 0
1, 95028, Note_on_c, 0, 60, 0
1, 95040, Tempo, 639591
1, 95040, Note_on_c, 0, 68, 0
1, 95040, Note_on_c, 0, 32, 57
1, 95050, Control_c, 0, 64, 0
1, 95160, Control_c, 0, 64, 127
1, 95280, Tempo, 533333
1, 95280, Note_on_c, 0, 68, 30
1, 95280, Note_on_c, 0, 73, 41
1, 95280, Note_on_c, 0, 53, 13
1, 95280, Note_on_c, 0, 56, 15
1, 95280, Note_on_c, 0, 61, 18
1, 95280, Note_on_c, 0, 65, 22
1, 95508, Note_on_c, 0, 65, 0
1, 95508, Note_on_c, 0, 56, 0
1, 95508, Note_on_c, 0, 68, 0
1, 95508, Note_on_c, 0, 73, 0
1, 95508, Note_on_c, 0, 53, 0
1, 95508, Note_on_c, 0, 61, 0
1, 95520, Tempo, 528961
1, 95520, Note_on_c, 0, 73, 33
1, 95520, Note_on_c, 0, 79, 44
1, 95520, Note_on_c, 0, 68, 33
1, 95520, Note_on_c, 0, 53, 13
1, 95520, Note_on_c, 0, 56, 15
1, 95520, Note_on_c, 0, 61, 18
1, 95520, Note_on_c, 0, 65, 22
1, 95748, Note_on_c, 0, 65, 0
1, 95748, Note_on_c, 0, 61, 0
1, 95748, Note_on_c, 0, 53, 0
1, 95748, Note_on_c, 0, 73, 0
1, 95748, Note_on_c, 0, 79, 0
1, 95748, Note_on_c, 0, 68, 0
1, 95748, Note_on_c, 0, 56, 0
1, 95760, Tempo, 518001
1, 95760, Note_on_c, 0, 68, 34
1, 95760, Note_on_c, 0, 73, 34
1, 95760, Note_on_c, 0, 82, 47
1, 95760, Note_on_c, 0, 53, 14
1, 95760, Note_on_c, 0, 56, 16
1, 95760, Note_on_c, 0, 61, 20
1, 95760, Note_on_c, 0, 65, 23
1, 95988, Note_on_c, 0, 65, 0
1, 95988, Note_on_c, 0, 61, 0
1, 95988, Note_on_c, 0, 53, 0
1, 95988, Note_on_c, 0, 68, 0
1, 95988, Note_on_c, 0, 73, 0
1, 95988, Note_on_c, 0, 82, 0
1, 95988, Note_on_c, 0, 56, 0
1, 96000, Tempo, 532718
1, 96000, Note_on_c, 0, 80, 42
1, 96000, Note_on_c, 0, 73, 31
1, 96000, Note_on_c, 0, 68, 31
1, 96000, Note_on_c, 0, 53, 13
1, 96000, Note_on_c, 0, 56, 15
1, 96000, Note_on_c, 0, 61, 18
1, 96000, Note_on_c, 0, 65, 22
1, 96228, Note_on_c, 0, 65, 0
1, 96228, Note_on_c, 0, 61, 0
1, 96228, Note_on_c, 0, 53, 0
1, 96228, Note_on_c, 0, 80, 0
1, 96228, Note_on_c, 0, 73, 0
1, 96228, Note_on_c, 0, 68, 0
1, 96228, Note_on_c, 0, 56, 0
1, 96240, Tempo, 573285
1, 96240, Note_on_c, 0, 68, 31
1, 96240, Note_on_c, 0, 73, 31
1, 96240, Note_on_c, 0, 77, 42
1, 96240, Note_on_c, 0, 53, 13
1, 96240, Note_on_c, 0, 56, 15
1, 96240, Note_on_c, 0, 61, 18
1, 96240, Note_on_c, 0, 65, 22
1, 96468, Note_on_c, 0, 65, 0
1, 96468, Note_on_c, 0, 61, 0
1, 96468, Note_on_c, 0, 53, 0
1, 96468, Note_on_c, 0, 68, 0
1, 96468, Note_on_c, 0, 73, 0
1, 96468, Note_on_c, 0, 77, 0
1, 96468, Note_on_c, 0, 56, 0
1, 96480, Tempo, 588235
1, 96480, Note_on_c, 0, 32, 0
1, 96480, Note_on_c, 0, 63, 31
1, 96480, Note_on_c, 0, 75, 49
1, 96480, Note_on_c, 0, 70, 37
1, 96480, Note_on_c, 0, 55, 11
1, 96480, Note_on_c, 0, 58, 13
1, 96480, Note_on_c, 0, 61, 15
1, 96480, Note_on_c, 0, 67, 19
1, 96493, Control_c, 0, 64, 0
1, 96627, Control_c, 0, 64, 127
1, 96708, Note_on_c, 0, 67, 0
1, 96708, Note_on_c, 0, 58, 0
1, 96708, Note_on_c, 0, 63, 0
1, 96708, Note_on_c, 0, 70, 0
1, 96708, Note_on_c, 0, 55, 0
1, 96708, Note_on_c, 0, 61, 0
1, 96720, Tempo, 568720
1, 96720, Note_on_c, 0, 70, 37
1, 96720, Note_on_c, 0, 63, 31
1, 96720, Note_on_c, 0, 55, 11
1, 96720, Note_on_c, 0, 58, 13
1, 96720, Note_on_c, 0, 61, 15
1, 96720, Note_on_c, 0, 67, 19
1, 96948, Note_on_c, 0, 67, 0
1, 96948, Note_on_c, 0, 58, 0
1, 96948, Note_on_c, 0, 70, 0
1, 96948, Note_on_c, 0, 63, 0
1, 96948, Note_on_c, 0, 55, 0
1, 96948, Note_on_c, 0, 61, 0
1, 96960, Tempo, 594059
1, 96960, Note_on_c, 0, 70, 37
1, 96960, Note_on_c, 0, 63, 31
1, 96960, Note_on_c, 0, 55, 12
1, 96960, Note_on_c, 0, 58, 14
1, 96960, Note_on_c, 0, 61, 16
1, 96960, Note_on_c, 0, 67, 20
1, 97188, Note_on_c, 0, 67, 0
1, 97188, Note_on_c, 0, 58, 0
1, 97188, Note_on_c, 0, 70, 0
1, 97188, Note_on_c, 0, 63, 0
1, 97188, Note_on_c, 0, 55, 0
1, 97188, Note_on_c, 0, 61, 0
1, 97200, Tempo, 568720
1, 97200, Note_on_c, 0, 75, 0
1, 97200, Note_on_c, 0, 73, 37
1, 97200, Note_on_c, 0, 65, 31
1, 97200, Note_on_c, 0, 77, 48
1, 97200, Note_on_c, 0, 56, 12
1, 97200, Note_on_c, 0, 61, 16
1, 97200, Note_on_c, 0, 68, 20
1, 97217, Control_c, 0, 64, 0
1, 97333, Control_c, 0, 64, 127
1, 97428, Note_on_c, 0, 68, 0
1, 97428, Note_on_c, 0, 56, 0
1, 97428, Note_on_c, 0, 65, 0
1, 97428, Note_on_c, 0, 73, 0
1, 97428, Note_on_c, 0, 61, 0
1, 97440, Tempo, 579710
1, 97440, Note_on_c, 0, 65, 31
1, 97440, Note_on_c, 0, 73, 37
1, 97440, Note_on_c, 0, 56, 12
1, 97440, Note_on_c, 0, 61, 16
1, 97440, Note_on_c, 0, 68, 20
1, 97668, Note_on_c, 0, 68, 0
1, 97668, Note_on_c, 0, 65, 0
1, 97668, Note_on_c, 0, 73, 0
1, 97668, Note_on_c, 0, 56, 0
1, 97668, Note_on_c, 0, 61, 0
1, 97680, Note_on_c, 0, 65, 30
1, 97680, Note_on_c, 0, 73, 36
1, 97680, Note_on_c, 0, 56, 12
1, 97680, Note_on_c, 0, 61, 16
1, 97680, Note_on_c, 0, 68, 20
1, 97800, Tempo, 647040
1, 97908, Note_on_c, 0, 68, 0
1, 97908, Note_on_c, 0, 65, 0
1, 97908, Note_on_c, 0, 73, 0
1, 97908, Note_on_c, 0, 56, 0
1, 97908, Note_on_c, 0, 61, 0
1, 97920, Tempo, 647040
1, 97920, Note_on_c, 0, 77, 0
1, 97920, Note_on_c, 0, 32, 57
1, 97920, Control_c, 0, 64, 0
1, 97929, Control_c, 0, 64, 0
1, 98040, Control_c, 0, 64, 127
1, 98160, Tempo, 542397
1, 98160, Note_on_c, 0, 63, 33
1, 98160, Note_on_c, 0, 70, 41
1, 98160, Note_on_c, 0, 55, 13
1, 98160, Note_on_c, 0, 58, 18
1, 98160, Note_on_c, 0, 67, 22
1, 98388, Note_on_c, 0, 67, 0
1, 98388, Note_on_c, 0, 63, 0
1, 98388, Note_on_c, 0, 70, 0
1, 98388, Note_on_c, 0, 55, 0
1, 98388, Note_on_c, 0, 58, 0
1, 98400, Tempo, 536529
1, 98400, Note_on_c, 0, 75, 44
1, 98400, Note_on_c, 0, 70, 33
1, 98400, Note_on_c, 0, 55, 13
1, 98400, Note_on_c, 0, 58, 18
1, 98400, Note_on_c, 0, 67, 22
1, 98628, Note_on_c, 0, 67, 0
1, 98628, Note_on_c, 0, 75, 0
1, 98628, Note_on_c, 0, 70, 0
1, 98628, Note_on_c, 0, 55, 0
1, 98628, Note_on_c, 0, 58, 0
1, 98640, Tempo, 521603
1, 98640, Note_on_c, 0, 79, 47
1, 98640, Note_on_c, 0, 70, 34
1, 98640, Note_on_c, 0, 63, 20
1, 98640, Note_on_c, 0, 55, 14
1, 98640, Note_on_c, 0, 58, 14
1, 98640, Note_on_c, 0, 61, 20
1, 98640, Note_on_c, 0, 67, 23
1, 98868, Note_on_c, 0, 67, 0
1, 98868, Note_on_c, 0, 61, 0
1, 98868, Note_on_c, 0, 55, 0
1, 98868, Note_on_c, 0, 79, 0
1, 98868, Note_on_c, 0, 70, 0
1, 98868, Note_on_c, 0, 63, 0
1, 98868, Note_on_c, 0, 58, 0
1, 98880, Tempo, 532718
1, 98880, Note_on_c, 0, 77, 42
1, 98880, Note_on_c, 0, 70, 31
1, 98880, Note_on_c, 0, 63, 18
1, 98880, Note_on_c, 0, 55, 13
1, 98880, Note_on_c, 0, 58, 13
1, 98880, Note_on_c, 0, 61, 18
1, 98880, Note_on_c, 0, 67, 22
1, 99108, Note_on_c, 0, 67, 0
1, 99108, Note_on_c, 0, 61, 0
1, 99108, Note_on_c, 0, 55, 0
1, 99108, Note_on_c, 0, 77, 0
1, 99108, Note_on_c, 0, 70, 0
1, 99108, Note_on_c, 0, 63, 0
1, 99108, Note_on_c, 0, 58, 0
1, 99120, Tempo, 573285
1, 99120, Note_on_c, 0, 73, 42
1, 99120, Note_on_c, 0, 70, 31
1, 99120, Note_on_c, 0, 63, 18
1, 99120, Note_on_c, 0, 55, 13
1, 99120, Note_on_c, 0, 58, 13
1, 99120, Note_on_c, 0, 61, 18
1, 99120, Note_on_c, 0, 67, 22
1, 99348, Note_on_c, 0, 67, 0
1, 99348, Note_on_c, 0, 61, 0
1, 99348, Note_on_c, 0, 55, 0
1, 99348, Note_on_c, 0, 73, 0
1, 99348, Note_on_c, 0, 70, 0
1, 99348, Note_on_c, 0, 63, 0
1, 99348, Note_on_c, 0, 58, 0
1, 99360, Tempo, 585366
1, 99360, Note_on_c, 0, 32, 0
1, 99360, Note_on_c, 0, 68, 34
1, 99360, Note_on_c, 0, 63, 28
1, 99360, Note_on_c, 0, 72, 49
1, 99360, Note_on_c, 0, 56, 13
1, 99360, Note_on_c, 0, 60, 15
1, 99360, Note_on_c, 0, 66, 19
1, 99373, Control_c, 0, 64, 0
1, 99507, Control_c, 0, 64, 127
1, 99588, Note_on_c, 0, 66, 0
1, 99588, Note_on_c, 0, 56, 0
1, 99588, Note_on_c, 0, 63, 0
1, 99588, Note_on_c, 0, 68, 0
1, 99588, Note_on_c, 0, 60, 0
1, 99600, Tempo, 568720
1, 99600, Note_on_c, 0, 63, 28
1, 99600, Note_on_c, 0, 68, 34
1, 99600, Note_on_c, 0, 56, 13
1, 99600, Note_on_c, 0, 60, 15
1, 99600, Note_on_c, 0, 66, 19
1, 99828, Note_on_c, 0, 66, 0
1, 99828, Note_on_c, 0, 63, 0
1, 99828, Note_on_c, 0, 68, 0
1, 99828, Note_on_c, 0, 56, 0
1, 99828, Note_on_c, 0, 60, 0
1, 99840, Tempo, 606061
1, 99840, Note_on_c, 0, 63, 28
1, 99840, Note_on_c, 0, 68, 34
1, 99840, Note_on_c, 0, 56, 13
1, 99840, Note_on_c, 0, 60, 16
1, 99840, Note_on_c, 0, 66, 20
1, 100068, Note_on_c, 0, 66, 0
1, 100068, Note_on_c, 0, 63, 0
1, 100068, Note_on_c, 0, 68, 0
1, 100068, Note_on_c, 0, 56, 0
1, 100068, Note_on_c, 0, 60, 0
1, 100080, Tempo, 585366
1, 100080, Note_on_c, 0, 72, 0
1, 100080, Note_on_c, 0, 61, 28
1, 100080, Note_on_c, 0, 73, 48
1, 100080, Note_on_c, 0, 68, 34
1, 100080, Note_on_c, 0, 53, 13
1, 100080, Note_on_c, 0, 56, 15
1, 100080, Note_on_c, 0, 65, 17
1, 100097, Control_c, 0, 64, 0
1, 100213, Control_c, 0, 64, 127
1, 100308, Note_on_c, 0, 65, 0
1, 100308, Note_on_c, 0, 61, 0
1, 100308, Note_on_c, 0, 68, 0
1, 100308, Note_on_c, 0, 53, 0
1, 100308, Note_on_c, 0, 56, 0
1, 100320, Tempo, 603015
1, 100320, Note_on_c, 0, 68, 34
1, 100320, Note_on_c, 0, 61, 28
1, 100320, Note_on_c, 0, 53, 13
1, 100320, Note_on_c, 0, 56, 15
1, 100320, Note_on_c, 0, 65, 17
1, 100548, Note_on_c, 0, 65, 0
1, 100548, Note_on_c, 0, 68, 0
1, 100548, Note_on_c, 0, 61, 0
1, 100548, Note_on_c, 0, 53, 0
1, 100548, Note_on_c, 0, 56, 0
1, 100560, Note_on_c, 0, 68, 32
1, 100560, Note_on_c, 0, 61, 27
1, 100560, Note_on_c, 0, 53, 13
1, 100560, Note_on_c, 0, 56, 15
1, 100560, Note_on_c, 0, 65, 17
1, 100680, Tempo, 658617
1, 100788, Note_on_c, 0, 65, 0
1, 100788, Note_on_c, 0, 68, 0
1, 100788, Note_on_c, 0, 61, 0
1, 100788, Note_on_c, 0, 53, 0
1, 100788, Note_on_c, 0, 56, 0
1, 100800, Tempo, 662544
1, 100800, Note_on_c, 0, 73, 0
1, 100800, Note_on_c, 0, 32, 58
1, 100800, Control_c, 0, 64, 0
1, 100812, Control_c, 0, 64, 0
1, 100920, Control_c, 0, 64, 127
1, 101040, Tempo, 542397
1, 101040, Note_on_c, 0, 61, 34
1, 101040, Note_on_c, 0, 51, 18
1, 101040, Note_on_c, 0, 56, 18
1, 101040, Note_on_c, 0, 63, 22
1, 101268, Note_on_c, 0, 63, 0
1, 101268, Note_on_c, 0, 51, 0
1, 101268, Note_on_c, 0, 56, 0
1, 101268, Note_on_c, 0, 61, 0
1, 101280, Tempo, 544316
1, 101280, Note_on_c, 0, 61, 27
1, 101280, Note_on_c, 0, 70, 44
1, 101280, Note_on_c, 0, 51, 18
1, 101280, Note_on_c, 0, 56, 18
1, 101280, Note_on_c, 0, 63, 22
1, 101508, Note_on_c, 0, 63, 0
1, 101508, Note_on_c, 0, 61, 0
1, 101508, Note_on_c, 0, 70, 0
1, 101508, Note_on_c, 0, 51, 0
1, 101508, Note_on_c, 0, 56, 0
1, 101520, Tempo, 521603
1, 101520, Note_on_c, 0, 73, 47
1, 101520, Note_on_c, 0, 60, 26
1, 101520, Note_on_c, 0, 68, 31
1, 101520, Note_on_c, 0, 51, 15
1, 101520, Note_on_c, 0, 56, 18
1, 101520, Note_on_c, 0, 63, 22
1, 101534, Control_c, 0, 64, 0
1, 101680, Control_c, 0, 64, 127
1, 101748, Note_on_c, 0, 63, 0
1, 101748, Note_on_c, 0, 51, 0
1, 101748, Note_on_c, 0, 73, 0
1, 101748, Note_on_c, 0, 60, 0
1, 101748, Note_on_c, 0, 68, 0
1, 101748, Note_on_c, 0, 56, 0
1, 101760, Tempo, 540394
1, 101760, Note_on_c, 0, 68, 31
1, 101760, Note_on_c, 0, 60, 26
1, 101760, Note_on_c, 0, 72, 42
1, 101760, Note_on_c, 0, 51, 15
1, 101760, Note_on_c, 0, 56, 18
1, 101760, Note_on_c, 0, 63, 22
1, 101988, Note_on_c, 0, 63, 0
1, 101988, Note_on_c, 0, 51, 0
1, 101988, Note_on_c, 0, 68, 0
1, 101988, Note_on_c, 0, 60, 0
1, 101988, Note_on_c, 0, 72, 0
1, 101988, Note_on_c, 0, 56, 0
1, 102000, Tempo, 585423
1, 102000, Note_on_c, 0, 60, 23
1, 102000, Note_on_c, 0, 68, 39
1, 102000, Note_on_c, 0, 65, 28
1, 102000, Note_on_c, 0, 51, 14
1, 102000, Note_on_c, 0, 56, 16
1, 102000, Note_on_c, 0, 63, 20
1, 102228, Note_on_c, 0, 63, 0
1, 102228, Note_on_c, 0, 51, 0
1, 102228, Note_on_c, 0, 60, 0
1, 102228, Note_on_c, 0, 68, 0
1, 102228, Note_on_c, 0, 65, 0
1, 102228, Note_on_c, 0, 56, 0
1, 102240, Tempo, 573285
1, 102240, Note_on_c, 0, 32, 0
1, 102240, Note_on_c, 0, 67, 32
1, 102240, Note_on_c, 0, 58, 27
1, 102240, Note_on_c, 0, 70, 45
1, 102240, Note_on_c, 0, 51, 16
1, 102240, Note_on_c, 0, 63, 20
1, 102250, Control_c, 0, 64, 0
1, 102360, Control_c, 0, 64, 127
1, 102468, Note_on_c, 0, 63, 0
1, 102468, Note_on_c, 0, 58, 0
1, 102468, Note_on_c, 0, 67, 0
1, 102468, Note_on_c, 0, 51, 0
1, 102480, Tempo, 550459
1, 102480, Note_on_c, 0, 58, 27
1, 102480, Note_on_c, 0, 67, 32
1, 102480, Note_on_c, 0, 51, 16
1, 102480, Note_on_c, 0, 63, 20
1, 102708, Note_on_c, 0, 63, 0
1, 102708, Note_on_c, 0, 67, 0
1, 102708, Note_on_c, 0, 51, 0
1, 102708, Note_on_c, 0, 58, 0
1, 102720, Note_on_c, 0, 58, 26
1, 102720, Note_on_c, 0, 67, 30
1, 102720, Note_on_c, 0, 51, 15
1, 102720, Note_on_c, 0, 63, 18
1, 102760, Tempo, 547945
1, 102840, Tempo, 550459
1, 102920, Tempo, 552995
1, 102948, Note_on_c, 0, 63, 0
1, 102948, Note_on_c, 0, 67, 0
1, 102948, Note_on_c, 0, 51, 0
1, 102948, Note_on_c, 0, 58, 0
1, 102960, Note_on_c, 0, 58, 27
1, 102960, Note_on_c, 0, 67, 32
1, 102960, Note_on_c, 0, 51, 16
1, 102960, Note_on_c, 0, 63, 20
1, 103000, Tempo, 555556
1, 103080, Tempo, 558140
1, 103160, Tempo, 560748
1, 103188, Note_on_c, 0, 63, 0
1, 103188, Note_on_c, 0, 67, 0
1, 103188, Note_on_c, 0, 51, 0
1, 103188, Note_on_c, 0, 58, 0
1, 103200, Note_on_c, 0, 58, 25
1, 103200, Note_on_c, 0, 67, 30
1, 103200, Note_on_c, 0, 51, 15
1, 103200, Note_on_c, 0, 63, 18
1, 103240, Tempo, 563380
1, 103320, Tempo, 566038
1, 103400, Tempo, 568720
1, 103428, Note_on_c, 0, 63, 0
1, 103428, Note_on_c, 0, 67, 0
1, 103428, Note_on_c, 0, 51, 0
1, 103428, Note_on_c, 0, 58, 0
1, 103440, Tempo, 582355
1, 103440, Note_on_c, 0, 58, 25
1, 103440, Note_on_c, 0, 67, 30
1, 103440, Note_on_c, 0, 51, 15
1, 103440, Note_on_c, 0, 63, 18
1, 103560, Tempo, 704804
1, 103668, Note_on_c, 0, 63, 0
1, 103668, Note_on_c, 0, 67, 0
1, 103668, Note_on_c, 0, 51, 0
1, 103668, Note_on_c, 0, 58, 0
1, 103680, Tempo, 695894
1, 103680, Note_on_c, 0, 70, 0
1, 103680, Note_on_c, 0, 32, 62
1, 103691, Control_c, 0, 64, 0
1, 103840, Control_c, 0, 64, 127
1, 103920, Tempo, 539763
1, 103920, Note_on_c, 0, 70, 39
1, 103920, Note_on_c, 0, 67, 38
1, 103920, Note_on_c, 0, 61, 28
1, 103920, Note_on_c, 0, 51, 17
1, 103920, Note_on_c, 0, 63, 22
1, 104148, Note_on_c, 0, 63, 0
1, 104148, Note_on_c, 0, 70, 0
1, 104148, Note_on_c, 0, 67, 0
1, 104148, Note_on_c, 0, 61, 0
1, 104148, Note_on_c, 0, 51, 0
1, 104160, Tempo, 536529
1, 104160, Note_on_c, 0, 61, 30
1, 104160, Note_on_c, 0, 67, 30
1, 104160, Note_on_c, 0, 72, 41
1, 104160, Note_on_c, 0, 51, 18
1, 104160, Note_on_c, 0, 63, 22
1, 104180, Tempo, 550459
1, 104388, Note_on_c, 0, 63, 0
1, 104388, Note_on_c, 0, 61, 0
1, 104388, Note_on_c, 0, 67, 0
1, 104388, Note_on_c, 0, 72, 0
1, 104388, Note_on_c, 0, 51, 0
1, 104400, Tempo, 525256
1, 104400, Note_on_c, 0, 73, 42
1, 104400, Note_on_c, 0, 67, 31
1, 104400, Note_on_c, 0, 61, 31
1, 104400, Note_on_c, 0, 51, 20
1, 104400, Note_on_c, 0, 63, 24
1, 104628, Note_on_c, 0, 63, 0
1, 104628, Note_on_c, 0, 73, 0
1, 104628, Note_on_c, 0, 67, 0
1, 104628, Note_on_c, 0, 61, 0
1, 104628, Note_on_c, 0, 51, 0
1, 104640, Tempo, 545058
1, 104640, Note_on_c, 0, 65, 40
1, 104640, Note_on_c, 0, 61, 29
1, 104640, Note_on_c, 0, 51, 18
1, 104640, Note_on_c, 0, 63, 22
1, 104868, Note_on_c, 0, 63, 0
1, 104868, Note_on_c, 0, 61, 0
1, 104868, Note_on_c, 0, 51, 0
1, 104868, Note_on_c, 0, 65, 0
1, 104880, Tempo, 570342
1, 104880, Note_on_c, 0, 67, 39
1, 104880, Note_on_c, 0, 61, 28
1, 104880, Note_on_c, 0, 51, 18
1, 104880, Note_on_c, 0, 63, 22
1, 105108, Note_on_c, 0, 63, 0
1, 105108, Note_on_c, 0, 61, 0
1, 105108, Note_on_c, 0, 51, 0
1, 105108, Note_on_c, 0, 67, 0
1, 105120, Tempo, 591716
1, 105120, Note_on_c, 0, 32, 0
1, 105120, Note_on_c, 0, 66, 24
1, 105120, Note_on_c, 0, 61, 20
1, 105120, Note_on_c, 0, 70, 42
1, 105120, Note_on_c, 0, 51, 15
1, 105120, Note_on_c, 0, 56, 17
1, 105120, Note_on_c, 0, 63, 21
1, 105131, Control_c, 0, 64, 0
1, 105211, Control_c, 0, 64, 127
1, 105348, Note_on_c, 0, 63, 0
1, 105348, Note_on_c, 0, 51, 0
1, 105348, Note_on_c, 0, 61, 0
1, 105348, Note_on_c, 0, 66, 0
1, 105348, Note_on_c, 0, 56, 0
1, 105360, Tempo, 537105
1, 105360, Note_on_c, 0, 61, 20
1, 105360, Note_on_c, 0, 66, 24
1, 105360, Note_on_c, 0, 51, 15
1, 105360, Note_on_c, 0, 56, 17
1, 105360, Note_on_c, 0, 63, 21
1, 105588, Note_on_c, 0, 63, 0
1, 105588, Note_on_c, 0, 61, 0
1, 105588, Note_on_c, 0, 66, 0
1, 105588, Note_on_c, 0, 51, 0
1, 105588, Note_on_c, 0, 56, 0
1, 105600, Tempo, 542397
1, 105600, Note_on_c, 0, 61, 20
1, 105600, Note_on_c, 0, 66, 24
1, 105600, Note_on_c, 0, 51, 15
1, 105600, Note_on_c, 0, 56, 17
1, 105600, Note_on_c, 0, 63, 21
1, 105828, Note_on_c, 0, 63, 0
1, 105828, Note_on_c, 0, 61, 0
1, 105828, Note_on_c, 0, 66, 0
1, 105828, Note_on_c, 0, 51, 0
1, 105828, Note_on_c, 0, 56, 0
1, 105840, Note_on_c, 0, 70, 0
1, 105840, Note_on_c, 0, 60, 23
1, 105840, Note_on_c, 0, 68, 43
1, 105840, Note_on_c, 0, 66, 28
1, 105840, Note_on_c, 0, 51, 15
1, 105840, Note_on_c, 0, 56, 20
1, 105840, Note_on_c, 0, 63, 25
1, 105857, Control_c, 0, 64, 0
1, 105989, Control_c, 0, 64, 127
1, 106068, Note_on_c, 0, 63, 0
1, 106068, Note_on_c, 0, 60, 0
1, 106068, Note_on_c, 0, 66, 0
1, 106068, Note_on_c, 0, 51, 0
1, 106068, Note_on_c, 0, 56, 0
1, 106080, Tempo, 564546
1, 106080, Note_on_c, 0, 66, 24
1, 106080, Note_on_c, 0, 60, 20
1, 106080, Note_on_c, 0, 51, 15
1, 106080, Note_on_c, 0, 56, 17
1, 106080, Note_on_c, 0, 63, 21
1, 106308, Note_on_c, 0, 63, 0
1, 106308, Note_on_c, 0, 66, 0
1, 106308, Note_on_c, 0, 60, 0
1, 106308, Note_on_c, 0, 51, 0
1, 106308, Note_on_c, 0, 56, 0
1, 106320, Tempo, 576314
1, 106320, Note_on_c, 0, 66, 24
1, 106320, Note_on_c, 0, 60, 20
1, 106320, Note_on_c, 0, 51, 15
1, 106320, Note_on_c, 0, 56, 17
1, 106320, Note_on_c, 0, 63, 21
1, 106440, Tempo, 670616
1, 106548, Note_on_c, 0, 63, 0
1, 106548, Note_on_c, 0, 66, 0
1, 106548, Note_on_c, 0, 60, 0
1, 106548, Note_on_c, 0, 51, 0
1, 106548, Note_on_c, 0, 56, 0
1, 106560, Tempo, 666519
1, 106560, Note_on_c, 0, 68, 0
1, 106560, Note_on_c, 0, 32, 56
1, 106570, Control_c, 0, 64, 0
1, 106680, Control_c, 0, 64, 127
1, 106800, Tempo, 542397
1, 106800, Note_on_c, 0, 73, 42
1, 106800, Note_on_c, 0, 68, 31
1, 106800, Note_on_c, 0, 53, 11
1, 106800, Note_on_c, 0, 56, 12
1, 106800, Note_on_c, 0, 61, 18
1, 106800, Note_on_c, 0, 65, 22
1, 107028, Note_on_c, 0, 65, 0
1, 107028, Note_on_c, 0, 56, 0
1, 107028, Note_on_c, 0, 73, 0
1, 107028, Note_on_c, 0, 68, 0
1, 107028, Note_on_c, 0, 53, 0
1, 107028, Note_on_c, 0, 61, 0
1, 107040, Tempo, 550459
1, 107040, Note_on_c, 0, 68, 28
1, 107040, Note_on_c, 0, 73, 33
1, 107040, Note_on_c, 0, 79, 45
1, 107040, Note_on_c, 0, 53, 11
1, 107040, Note_on_c, 0, 56, 12
1, 107040, Note_on_c, 0, 61, 18
1, 107040, Note_on_c, 0, 65, 22
1, 107268, Note_on_c, 0, 65, 0
1, 107268, Note_on_c, 0, 61, 0
1, 107268, Note_on_c, 0, 53, 0
1, 107268, Note_on_c, 0, 68, 0
1, 107268, Note_on_c, 0, 73, 0
1, 107268, Note_on_c, 0, 79, 0
1, 107268, Note_on_c, 0, 56, 0
1, 107280, Tempo, 518001
1, 107280, Note_on_c, 0, 73, 34
1, 107280, Note_on_c, 0, 68, 28
1, 107280, Note_on_c, 0, 82, 47
1, 107280, Note_on_c, 0, 53, 11
1, 107280, Note_on_c, 0, 56, 13
1, 107280, Note_on_c, 0, 61, 20
1, 107280, Note_on_c, 0, 65, 25
1, 107508, Note_on_c, 0, 65, 0
1, 107508, Note_on_c, 0, 61, 0
1, 107508, Note_on_c, 0, 53, 0
1, 107508, Note_on_c, 0, 73, 0
1, 107508, Note_on_c, 0, 68, 0
1, 107508, Note_on_c, 0, 82, 0
1, 107508, Note_on_c, 0, 56, 0
1, 107520, Tempo, 540394
1, 107520, Note_on_c, 0, 68, 27
1, 107520, Note_on_c, 0, 80, 45
1, 107520, Note_on_c, 0, 73, 32
1, 107520, Note_on_c, 0, 53, 11
1, 107520, Note_on_c, 0, 56, 12
1, 107520, Note_on_c, 0, 61, 18
1, 107520, Note_on_c, 0, 65, 22
1, 107748, Note_on_c, 0, 65, 0
1, 107748, Note_on_c, 0, 61, 0
1, 107748, Note_on_c, 0, 53, 0
1, 107748, Note_on_c, 0, 68, 0
1, 107748, Note_on_c, 0, 80, 0
1, 107748, Note_on_c, 0, 73, 0
1, 107748, Note_on_c, 0, 56, 0
1, 107760, Tempo, 573285
1, 107760, Note_on_c, 0, 68, 27
1, 107760, Note_on_c, 0, 73, 32
1, 107760, Note_on_c, 0, 77, 45
1, 107760, Note_on_c, 0, 53, 11
1, 107760, Note_on_c, 0, 56, 12
1, 107760, Note_on_c, 0, 61, 18
1, 107760, Note_on_c, 0, 65, 22
1, 107988, Note_on_c, 0, 65, 0
1, 107988, Note_on_c, 0, 61, 0
1, 107988, Note_on_c, 0, 53, 0
1, 107988, Note_on_c, 0, 68, 0
1, 107988, Note_on_c, 0, 73, 0
1, 107988, Note_on_c, 0, 77, 0
1, 107988, Note_on_c, 0, 56, 0
1, 108000, Tempo, 591133
1, 108000, Note_on_c, 0, 32, 0
1, 108000, Note_on_c, 0, 63, 30
1, 108000, Note_on_c, 0, 75, 51
1, 108000, Note_on_c, 0, 70, 37
1, 108000, Note_on_c, 0, 55, 11
1, 108000, Note_on_c, 0, 58, 12
1, 108000, Note_on_c, 0, 61, 15
1, 108000, Note_on_c, 0, 67, 17
1, 108013, Control_c, 0, 64, 0
1, 108147, Control_c, 0, 64, 127
1, 108228, Note_on_c, 0, 67, 0
1, 108228, Note_on_c, 0, 58, 0
1, 108228, Note_on_c, 0, 63, 0
1, 108228, Note_on_c, 0, 70, 0
1, 108228, Note_on_c, 0, 55, 0
1, 108228, Note_on_c, 0, 61, 0
1, 108240, Tempo, 555556
1, 108240, Note_on_c, 0, 70, 37
1, 108240, Note_on_c, 0, 63, 30
1, 108240, Note_on_c, 0, 55, 11
1, 108240, Note_on_c, 0, 58, 12
1, 108240, Note_on_c, 0, 61, 15
1, 108240, Note_on_c, 0, 67, 17
1, 108468, Note_on_c, 0, 67, 0
1, 108468, Note_on_c, 0, 58, 0
1, 108468, Note_on_c, 0, 70, 0
1, 108468, Note_on_c, 0, 63, 0
1, 108468, Note_on_c, 0, 55, 0
1, 108468, Note_on_c, 0, 61, 0
1, 108480, Tempo, 609137
1, 108480, Note_on_c, 0, 70, 37
1, 108480, Note_on_c, 0, 63, 30
1, 108480, Note_on_c, 0, 55, 11
1, 108480, Note_on_c, 0, 58, 12
1, 108480, Note_on_c, 0, 61, 15
1, 108480, Note_on_c, 0, 67, 18
1, 108708, Note_on_c, 0, 67, 0
1, 108708, Note_on_c, 0, 58, 0
1, 108708, Note_on_c, 0, 70, 0
1, 108708, Note_on_c, 0, 63, 0
1, 108708, Note_on_c, 0, 55, 0
1, 108708, Note_on_c, 0, 61, 0
1, 108720, Tempo, 568182
1, 108720, Note_on_c, 0, 75, 0
1, 108720, Note_on_c, 0, 73, 37
1, 108720, Note_on_c, 0, 65, 30
1, 108720, Note_on_c, 0, 77, 49
1, 108720, Note_on_c, 0, 56, 13
1, 108720, Note_on_c, 0, 61, 15
1, 108720, Note_on_c, 0, 68, 18
1, 108739, Control_c, 0, 64, 0
1, 108853, Control_c, 0, 64, 127
1, 108948, Note_on_c, 0, 68, 0
1, 108948, Note_on_c, 0, 56, 0
1, 108948, Note_on_c, 0, 65, 0
1, 108948, Note_on_c, 0, 73, 0
1, 108948, Note_on_c, 0, 61, 0
1, 108960, Tempo, 591133
1, 108960, Note_on_c, 0, 65, 30
1, 108960, Note_on_c, 0, 73, 37
1, 108960, Note_on_c, 0, 56, 11
1, 108960, Note_on_c, 0, 61, 15
1, 108960, Note_on_c, 0, 68, 18
1, 109188, Note_on_c, 0, 68, 0
1, 109188, Note_on_c, 0, 65, 0
1, 109188, Note_on_c, 0, 73, 0
1, 109188, Note_on_c, 0, 56, 0
1, 109188, Note_on_c, 0, 61, 0
1, 109200, Note_on_c, 0, 65, 28
1, 109200, Note_on_c, 0, 73, 34
1, 109200, Note_on_c, 0, 56, 11
1, 109200, Note_on_c, 0, 61, 15
1, 109200, Note_on_c, 0, 68, 18
1, 109320, Tempo, 666519
1, 109428, Note_on_c, 0, 68, 0
1, 109428, Note_on_c, 0, 65, 0
1, 109428, Note_on_c, 0, 73, 0
1, 109428, Note_on_c, 0, 56, 0
1, 109428, Note_on_c, 0, 61, 0
1, 109440, Tempo, 710059
1, 109440, Note_on_c, 0, 77, 0
1, 109440, Note_on_c, 0, 32, 57
1, 109440, Control_c, 0, 64, 0
1, 109453, Control_c, 0, 64, 0
1, 109560, Control_c, 0, 64, 127
1, 109680, Tempo, 542397
1, 109680, Note_on_c, 0, 63, 28
1, 109680, Note_on_c, 0, 70, 42
1, 109680, Note_on_c, 0, 55, 13
1, 109680, Note_on_c, 0, 58, 18
1, 109680, Note_on_c, 0, 67, 22
1, 109908, Note_on_c, 0, 67, 0
1, 109908, Note_on_c, 0, 63, 0
1, 109908, Note_on_c, 0, 70, 0
1, 109908, Note_on_c, 0, 55, 0
1, 109908, Note_on_c, 0, 58, 0
1, 109920, Tempo, 528961
1, 109920, Note_on_c, 0, 63, 28
1, 109920, Note_on_c, 0, 75, 45
1, 109920, Note_on_c, 0, 70, 33
1, 109920, Note_on_c, 0, 55, 13
1, 109920, Note_on_c, 0, 58, 18
1, 109920, Note_on_c, 0, 67, 22
1, 110148, Note_on_c, 0, 67, 0
1, 110148, Note_on_c, 0, 55, 0
1, 110148, Note_on_c, 0, 63, 0
1, 110148, Note_on_c, 0, 75, 0
1, 110148, Note_on_c, 0, 70, 0
1, 110148, Note_on_c, 0, 58, 0
1, 110160, Tempo, 514447
1, 110160, Note_on_c, 0, 79, 48
1, 110160, Note_on_c, 0, 70, 36
1, 110160, Note_on_c, 0, 61, 18
1, 110160, Note_on_c, 0, 63, 18
1, 110160, Note_on_c, 0, 55, 14
1, 110160, Note_on_c, 0, 58, 20
1, 110160, Note_on_c, 0, 67, 25
1, 110388, Note_on_c, 0, 67, 0
1, 110388, Note_on_c, 0, 58, 0
1, 110388, Note_on_c, 0, 63, 0
1, 110388, Note_on_c, 0, 79, 0
1, 110388, Note_on_c, 0, 70, 0
1, 110388, Note_on_c, 0, 61, 0
1, 110388, Note_on_c, 0, 55, 0
1, 110400, Tempo, 540394
1, 110400, Note_on_c, 0, 77, 45
1, 110400, Note_on_c, 0, 70, 32
1, 110400, Note_on_c, 0, 61, 18
1, 110400, Note_on_c, 0, 63, 18
1, 110400, Note_on_c, 0, 55, 13
1, 110400, Note_on_c, 0, 58, 18
1, 110400, Note_on_c, 0, 67, 22
1, 110628, Note_on_c, 0, 67, 0
1, 110628, Note_on_c, 0, 58, 0
1, 110628, Note_on_c, 0, 63, 0
1, 110628, Note_on_c, 0, 77, 0
1, 110628, Note_on_c, 0, 70, 0
1, 110628, Note_on_c, 0, 61, 0
1, 110628, Note_on_c, 0, 55, 0
1, 110640, Tempo, 566038
1, 110640, Note_on_c, 0, 73, 45
1, 110640, Note_on_c, 0, 70, 32
1, 110640, Note_on_c, 0, 61, 18
1, 110640, Note_on_c, 0, 63, 18
1, 110640, Note_on_c, 0, 55, 13
1, 110640, Note_on_c, 0, 58, 18
1, 110640, Note_on_c, 0, 67, 22
1, 110868, Note_on_c, 0, 67, 0
1, 110868, Note_on_c, 0, 58, 0
1, 110868, Note_on_c, 0, 63, 0
1, 110868, Note_on_c, 0, 73, 0
1, 110868, Note_on_c, 0, 70, 0
1, 110868, Note_on_c, 0, 61, 0
1, 110868, Note_on_c, 0, 55, 0
1, 110880, Tempo, 591133
1, 110880, Note_on_c, 0, 32, 0
1, 110880, Note_on_c, 0, 68, 33
1, 110880, Note_on_c, 0, 63, 28
1, 110880, Note_on_c, 0, 72, 47
1, 110880, Note_on_c, 0, 56, 13
1, 110880, Note_on_c, 0, 60, 15
1, 110880, Note_on_c, 0, 66, 17
1, 110893, Control_c, 0, 64, 0
1, 111027, Control_c, 0, 64, 127
1, 111108, Note_on_c, 0, 66, 0
1, 111108, Note_on_c, 0, 56, 0
1, 111108, Note_on_c, 0, 63, 0
1, 111108, Note_on_c, 0, 68, 0
1, 111108, Note_on_c, 0, 60, 0
1, 111120, Tempo, 571429
1, 111120, Note_on_c, 0, 63, 28
1, 111120, Note_on_c, 0, 68, 33
1, 111120, Note_on_c, 0, 56, 13
1, 111120, Note_on_c, 0, 60, 15
1, 111120, Note_on_c, 0, 66, 17
1, 111348, Note_on_c, 0, 66, 0
1, 111348, Note_on_c, 0, 63, 0
1, 111348, Note_on_c, 0, 68, 0
1, 111348, Note_on_c, 0, 56, 0
1, 111348, Note_on_c, 0, 60, 0
1, 111360, Tempo, 628272
1, 111360, Note_on_c, 0, 63, 28
1, 111360, Note_on_c, 0, 68, 33
1, 111360, Note_on_c, 0, 56, 13
1, 111360, Note_on_c, 0, 60, 15
1, 111360, Note_on_c, 0, 66, 18
1, 111588, Note_on_c, 0, 66, 0
1, 111588, Note_on_c, 0, 63, 0
1, 111588, Note_on_c, 0, 68, 0
1, 111588, Note_on_c, 0, 56, 0
1, 111588, Note_on_c, 0, 60, 0
1, 111600, Tempo, 600000
1, 111600, Note_on_c, 0, 72, 0
1, 111600, Note_on_c, 0, 61, 28
1, 111600, Note_on_c, 0, 73, 47
1, 111600, Note_on_c, 0, 68, 33
1, 111600, Note_on_c, 0, 53, 13
1, 111600, Note_on_c, 0, 56, 15
1, 111600, Note_on_c, 0, 65, 18
1, 111618, Control_c, 0, 64, 0
1, 111733, Control_c, 0, 64, 127
1, 111828, Note_on_c, 0, 65, 0
1, 111828, Note_on_c, 0, 61, 0
1, 111828, Note_on_c, 0, 68, 0
1, 111828, Note_on_c, 0, 53, 0
1, 111828, Note_on_c, 0, 56, 0
1, 111840, Tempo, 618557
1, 111840, Note_on_c, 0, 68, 31
1, 111840, Note_on_c, 0, 61, 26
1, 111840, Note_on_c, 0, 53, 12
1, 111840, Note_on_c, 0, 56, 14
1, 111840, Note_on_c, 0, 65, 17
1, 112068, Note_on_c, 0, 65, 0
1, 112068, Note_on_c, 0, 68, 0
1, 112068, Note_on_c, 0, 61, 0
1, 112068, Note_on_c, 0, 53, 0
1, 112068, Note_on_c, 0, 56, 0
1, 112080, Note_on_c, 0, 68, 27
1, 112080, Note_on_c, 0, 61, 22
1, 112080, Note_on_c, 0, 53, 11
1, 112080, Note_on_c, 0, 56, 13
1, 112080, Note_on_c, 0, 65, 16
1, 112200, Tempo, 647040
1, 112308, Note_on_c, 0, 65, 0
1, 112308, Note_on_c, 0, 68, 0
1, 112308, Note_on_c, 0, 61, 0
1, 112308, Note_on_c, 0, 53, 0
1, 112308, Note_on_c, 0, 56, 0
1, 112320, Tempo, 685714
1, 112320, Note_on_c, 0, 73, 0
1, 112320, Note_on_c, 0, 32, 56
1, 112320, Control_c, 0, 64, 0
1, 112333, Control_c, 0, 64, 0
1, 112440, Control_c, 0, 64, 127
1, 112560, Tempo, 552995
1, 112560, Note_on_c, 0, 61, 38
1, 112560, Note_on_c, 0, 52, 14
1, 112560, Note_on_c, 0, 56, 16
1, 112560, Note_on_c, 0, 64, 20
1, 112788, Note_on_c, 0, 64, 0
1, 112788, Note_on_c, 0, 52, 0
1, 112788, Note_on_c, 0, 56, 0
1, 112788, Note_on_c, 0, 61, 0
1, 112800, Tempo, 552334
1, 112800, Note_on_c, 0, 61, 25
1, 112800, Note_on_c, 0, 68, 39
1, 112800, Note_on_c, 0, 52, 14
1, 112800, Note_on_c, 0, 56, 16
1, 112800, Note_on_c, 0, 64, 20
1, 113028, Note_on_c, 0, 64, 0
1, 113028, Note_on_c, 0, 61, 0
1, 113028, Note_on_c, 0, 68, 0
1, 113028, Note_on_c, 0, 52, 0
1, 113028, Note_on_c, 0, 56, 0
1, 113040, Tempo, 540394
1, 113040, Note_on_c, 0, 61, 23
1, 113040, Note_on_c, 0, 72, 39
1, 113040, Note_on_c, 0, 52, 14
1, 113040, Note_on_c, 0, 56, 16
1, 113040, Note_on_c, 0, 64, 20
1, 113268, Note_on_c, 0, 64, 0
1, 113268, Note_on_c, 0, 61, 0
1, 113268, Note_on_c, 0, 72, 0
1, 113268, Note_on_c, 0, 52, 0
1, 113268, Note_on_c, 0, 56, 0
1, 113280, Tempo, 564546
1, 113280, Note_on_c, 0, 61, 23
1, 113280, Note_on_c, 0, 70, 39
1, 113280, Note_on_c, 0, 52, 11
1, 113280, Note_on_c, 0, 56, 16
1, 113280, Note_on_c, 0, 64, 20
1, 113508, Note_on_c, 0, 64, 0
1, 113508, Note_on_c, 0, 61, 0
1, 113508, Note_on_c, 0, 70, 0
1, 113508, Note_on_c, 0, 52, 0
1, 113508, Note_on_c, 0, 56, 0
1, 113520, Tempo, 585423
1, 113520, Note_on_c, 0, 68, 35
1, 113520, Note_on_c, 0, 61, 20
1, 113520, Note_on_c, 0, 52, 11
1, 113520, Note_on_c, 0, 56, 15
1, 113520, Note_on_c, 0, 64, 17
1, 113640, Tempo, 643294
1, 113748, Note_on_c, 0, 64, 0
1, 113748, Note_on_c, 0, 68, 0
1, 113748, Note_on_c, 0, 61, 0
1, 113748, Note_on_c, 0, 52, 0
1, 113748, Note_on_c, 0, 56, 0
1, 113760, Tempo, 573285
1, 113760, Note_on_c, 0, 32, 0
1, 113760, Note_on_c, 0, 60, 30
1, 113760, Note_on_c, 0, 72, 46
1, 113760, Note_on_c, 0, 51, 10
1, 113760, Note_on_c, 0, 56, 15
1, 113760, Note_on_c, 0, 63, 18
1, 113777, Control_c, 0, 64, 0
1, 113933, Control_c, 0, 64, 127
1, 113988, Note_on_c, 0, 63, 0
1, 113988, Note_on_c, 0, 51, 0
1, 113988, Note_on_c, 0, 56, 0
1, 113988, Note_on_c, 0, 60, 0
1, 114000, Tempo, 560748
1, 114000, Note_on_c, 0, 60, 30
1, 114000, Note_on_c, 0, 56, 15
1, 114000, Note_on_c, 0, 51, 10
1, 114000, Note_on_c, 0, 63, 18
1, 114228, Note_on_c, 0, 63, 0
1, 114228, Note_on_c, 0, 56, 0
1, 114228, Note_on_c, 0, 51, 0
1, 114228, Note_on_c, 0, 60, 0
1, 114240, Note_on_c, 0, 60, 30
1, 114240, Note_on_c, 0, 56, 15
1, 114240, Note_on_c, 0, 51, 9
1, 114240, Note_on_c, 0, 63, 17
1, 114468, Note_on_c, 0, 63, 0
1, 114468, Note_on_c, 0, 56, 0
1, 114468, Note_on_c, 0, 51, 0
1, 114468, Note_on_c, 0, 60, 0
1, 114480, Note_on_c, 0, 60, 30
1, 114480, Note_on_c, 0, 56, 15
1, 114480, Note_on_c, 0, 51, 10
1, 114480, Note_on_c, 0, 63, 18
1, 114708, Note_on_c, 0, 63, 0
1, 114708, Note_on_c, 0, 56, 0
1, 114708, Note_on_c, 0, 51, 0
1, 114708, Note_on_c, 0, 60, 0
1, 114720, Tempo, 564546
1, 114720, Note_on_c, 0, 60, 29
1, 114720, Note_on_c, 0, 56, 15
1, 114720, Note_on_c, 0, 51, 9
1, 114720, Note_on_c, 0, 63, 17
1, 114948, Note_on_c, 0, 63, 0
1, 114948, Note_on_c, 0, 56, 0
1, 114948, Note_on_c, 0, 51, 0
1, 114948, Note_on_c, 0, 60, 0
1, 114960, Tempo, 601323
1, 114960, Note_on_c, 0, 60, 29
1, 114960, Note_on_c, 0, 56, 15
1, 114960, Note_on_c, 0, 51, 9
1, 114960, Note_on_c, 0, 63, 17
1, 115188, Note_on_c, 0, 63, 0
1, 115188, Note_on_c, 0, 56, 0
1, 115188, Note_on_c, 0, 51, 0
1, 115188, Note_on_c, 0, 60, 0
1, 115200, Tempo, 639591
1, 115200, Note_on_c, 0, 61, 36
1, 115200, Note_on_c, 0, 32, 56
1, 115200, Control_c, 0, 64, 0
1, 115212, Control_c, 0, 64, 0
1, 115320, Control_c, 0, 64, 127
1, 115428, Note_on_c, 0, 61, 0
1, 115440, Tempo, 555556
1, 115440, Note_on_c, 0, 61, 38
1, 115440, Note_on_c, 0, 52, 14
1, 115440, Note_on_c, 0, 56, 16
1, 115440, Note_on_c, 0, 64, 20
1, 115668, Note_on_c, 0, 64, 0
1, 115668, Note_on_c, 0, 52, 0
1, 115668, Note_on_c, 0, 61, 0
1, 115668, Note_on_c, 0, 56, 0
1, 115680, Tempo, 566038
1, 115680, Note_on_c, 0, 72, 0
1, 115680, Note_on_c, 0, 68, 39
1, 115680, Note_on_c, 0, 61, 25
1, 115680, Note_on_c, 0, 52, 14
1, 115680, Note_on_c, 0, 56, 16
1, 115680, Note_on_c, 0, 64, 20
1, 115908, Note_on_c, 0, 64, 0
1, 115908, Note_on_c, 0, 68, 0
1, 115908, Note_on_c, 0, 61, 0
1, 115908, Note_on_c, 0, 52, 0
1, 115908, Note_on_c, 0, 56, 0
1, 115920, Note_on_c, 0, 72, 39
1, 115920, Note_on_c, 0, 61, 23
1, 115920, Note_on_c, 0, 52, 14
1, 115920, Note_on_c, 0, 56, 16
1, 115920, Note_on_c, 0, 64, 20
1, 116148, Note_on_c, 0, 64, 0
1, 116148, Note_on_c, 0, 72, 0
1, 116148, Note_on_c, 0, 61, 0
1, 116148, Note_on_c, 0, 52, 0
1, 116148, Note_on_c, 0, 56, 0
1, 116160, Tempo, 576923
1, 116160, Note_on_c, 0, 70, 39
1, 116160, Note_on_c, 0, 61, 23
1, 116160, Note_on_c, 0, 52, 11
1, 116160, Note_on_c, 0, 56, 16
1, 116160, Note_on_c, 0, 64, 20
1, 116388, Note_on_c, 0, 64, 0
1, 116388, Note_on_c, 0, 70, 0
1, 116388, Note_on_c, 0, 61, 0
1, 116388, Note_on_c, 0, 52, 0
1, 116388, Note_on_c, 0, 56, 0
1, 116400, Tempo, 585423
1, 116400, Note_on_c, 0, 61, 20
1, 116400, Note_on_c, 0, 68, 35
1, 116400, Note_on_c, 0, 52, 11
1, 116400, Note_on_c, 0, 56, 15
1, 116400, Note_on_c, 0, 64, 17
1, 116628, Note_on_c, 0, 64, 0
1, 116628, Note_on_c, 0, 61, 0
1, 116628, Note_on_c, 0, 68, 0
1, 116628, Note_on_c, 0, 52, 0
1, 116628, Note_on_c, 0, 56, 0
1, 116640, Tempo, 573285
1, 116640, Note_on_c, 0, 32, 0
1, 116640, Note_on_c, 0, 72, 46
1, 116640, Note_on_c, 0, 60, 30
1, 116640, Note_on_c, 0, 51, 10
1, 116640, Note_on_c, 0, 56, 15
1, 116640, Note_on_c, 0, 63, 18
1, 116658, Control_c, 0, 64, 0
1, 116813, Control_c, 0, 64, 127
1, 116868, Note_on_c, 0, 63, 0
1, 116868, Note_on_c, 0, 51, 0
1, 116868, Note_on_c, 0, 56, 0
1, 116868, Note_on_c, 0, 60, 0
1, 116880, Tempo, 558140
1, 116880, Note_on_c, 0, 60, 30
1, 116880, Note_on_c, 0, 56, 15
1, 116880, Note_on_c, 0, 51, 10
1, 116880, Note_on_c, 0, 63, 18
1, 117108, Note_on_c, 0, 63, 0
1, 117108, Note_on_c, 0, 56, 0
1, 117108, Note_on_c, 0, 51, 0
1, 117108, Note_on_c, 0, 60, 0
1, 117120, Note_on_c, 0, 60, 30
1, 117120, Note_on_c, 0, 56, 15
1, 117120, Note_on_c, 0, 51, 9
1, 117120, Note_on_c, 0, 63, 17
1, 117348, Note_on_c, 0, 63, 0
1, 117348, Note_on_c, 0, 56, 0
1, 117348, Note_on_c, 0, 51, 0
1, 117348, Note_on_c, 0, 60, 0
1, 117360, Tempo, 566038
1, 117360, Note_on_c, 0, 61, 24
1, 117360, Note_on_c, 0, 52, 14
1, 117360, Note_on_c, 0, 56, 16
1, 117360, Note_on_c, 0, 64, 20
1, 117375, Control_c, 0, 64, 0
1, 117486, Control_c, 0, 64, 127
1, 117588, Note_on_c, 0, 64, 0
1, 117588, Note_on_c, 0, 52, 0
1, 117588, Note_on_c, 0, 56, 0
1, 117588, Note_on_c, 0, 61, 0
1, 117600, Tempo, 576923
1, 117600, Note_on_c, 0, 72, 0
1, 117600, Note_on_c, 0, 61, 23
1, 117600, Note_on_c, 0, 70, 39
1, 117600, Note_on_c, 0, 52, 11
1, 117600, Note_on_c, 0, 56, 16
1, 117600, Note_on_c, 0, 64, 20
1, 117828, Note_on_c, 0, 64, 0
1, 117828, Note_on_c, 0, 52, 0
1, 117828, Note_on_c, 0, 61, 0
1, 117828, Note_on_c, 0, 70, 0
1, 117828, Note_on_c, 0, 56, 0
1, 117840, Tempo, 585423
1, 117840, Note_on_c, 0, 68, 35
1, 117840, Note_on_c, 0, 61, 20
1, 117840, Note_on_c, 0, 52, 11
1, 117840, Note_on_c, 0, 56, 15
1, 117840, Note_on_c, 0, 64, 17
1, 118068, Note_on_c, 0, 64, 0
1, 118068, Note_on_c, 0, 52, 0
1, 118068, Note_on_c, 0, 68, 0
1, 118068, Note_on_c, 0, 61, 0
1, 118068, Note_on_c, 0, 56, 0
1, 118080, Tempo, 573285
1, 118080, Note_on_c, 0, 60, 30
1, 118080, Note_on_c, 0, 72, 46
1, 118080, Note_on_c, 0, 51, 10
1, 118080, Note_on_c, 0, 56, 15
1, 118080, Note_on_c, 0, 63, 18
1, 118097, Control_c, 0, 64, 0
1, 118217, Control_c, 0, 64, 127
1, 118308, Note_on_c, 0, 63, 0
1, 118308, Note_on_c, 0, 51, 0
1, 118308, Note_on_c, 0, 56, 0
1, 118308, Note_on_c, 0, 60, 0
1, 118320, Tempo, 558140
1, 118320, Note_on_c, 0, 60, 30
1, 118320, Note_on_c, 0, 56, 15
1, 118320, Note_on_c, 0, 51, 10
1, 118320, Note_on_c, 0, 63, 18
1, 118548, Note_on_c, 0, 63, 0
1, 118548, Note_on_c, 0, 56, 0
1, 118548, Note_on_c, 0, 51, 0
1, 118548, Note_on_c, 0, 60, 0
1, 118560, Note_on_c, 0, 60, 30
1, 118560, Note_on_c, 0, 56, 15
1, 118560, Note_on_c, 0, 51, 9
1, 118560, Note_on_c, 0, 63, 17
1, 118788, Note_on_c, 0, 63, 0
1, 118788, Note_on_c, 0, 56, 0
1, 118788, Note_on_c, 0, 51, 0
1, 118788, Note_on_c, 0, 60, 0
1, 118800, Tempo, 566038
1, 118800, Note_on_c, 0, 60, 23
1, 118800, Note_on_c, 0, 51, 14
1, 118800, Note_on_c, 0, 56, 16
1, 118800, Note_on_c, 0, 63, 20
1, 119028, Note_on_c, 0, 63, 0
1, 119028, Note_on_c, 0, 51, 0
1, 119028, Note_on_c, 0, 56, 0
1, 119028, Note_on_c, 0, 60, 0
1, 119040, Tempo, 579710
1, 119040, Note_on_c, 0, 72, 0
1, 119040, Note_on_c, 0, 70, 39
1, 119040, Note_on_c, 0, 60, 23
1, 119040, Note_on_c, 0, 51, 11
1, 119040, Note_on_c, 0, 56, 16
1, 119040, Note_on_c, 0, 63, 20
1, 119268, Note_on_c, 0, 63, 0
1, 119268, Note_on_c, 0, 51, 0
1, 119268, Note_on_c, 0, 70, 0
1, 119268, Note_on_c, 0, 60, 0
1, 119268, Note_on_c, 0, 56, 0
1, 119280, Tempo, 585423
1, 119280, Note_on_c, 0, 60, 20
1, 119280, Note_on_c, 0, 68, 35
1, 119280, Note_on_c, 0, 51, 11
1, 119280, Note_on_c, 0, 56, 15
1, 119280, Note_on_c, 0, 63, 17
1, 119400, Tempo, 643294
1, 119508, Note_on_c, 0, 63, 0
1, 119508, Note_on_c, 0, 51, 0
1, 119508, Note_on_c, 0, 60, 0
1, 119508, Note_on_c, 0, 68, 0
1, 119508, Note_on_c, 0, 56, 0
1, 119520, Tempo, 654736
1, 119520, Note_on_c, 0, 68, 45
1, 119520, Note_on_c, 0, 32, 55
1, 119560, Control_c, 0, 64, 0
1, 119657, Control_c, 0, 64, 127
1, 119760, Tempo, 560748
1, 119760, Note_on_c, 0, 60, 30
1, 119760, Note_on_c, 0, 56, 15
1, 119760, Note_on_c, 0, 51, 10
1, 119760, Note_on_c, 0, 63, 18
1, 119988, Note_on_c, 0, 63, 0
1, 119988, Note_on_c, 0, 56, 0
1, 119988, Note_on_c, 0, 60, 0
1, 119988, Note_on_c, 0, 51, 0
1, 120000, Note_on_c, 0, 60, 30
1, 120000, Note_on_c, 0, 56, 15
1, 120000, Note_on_c, 0, 51, 9
1, 120000, Note_on_c, 0, 63, 17
1, 120228, Note_on_c, 0, 63, 0
1, 120228, Note_on_c, 0, 56, 0
1, 120228, Note_on_c, 0, 60, 0
1, 120228, Note_on_c, 0, 51, 0
1, 120240, Tempo, 568720
1, 120240, Note_on_c, 0, 60, 23
1, 120240, Note_on_c, 0, 51, 14
1, 120240, Note_on_c, 0, 56, 16
1, 120240, Note_on_c, 0, 63, 20
1, 120468, Note_on_c, 0, 63, 0
1, 120468, Note_on_c, 0, 51, 0
1, 120468, Note_on_c, 0, 60, 0
1, 120468, Note_on_c, 0, 56, 0
1, 120480, Tempo, 579710
1, 120480, Note_on_c, 0, 58, 23
1, 120480, Note_on_c, 0, 51, 11
1, 120480, Note_on_c, 0, 56, 16
1, 120480, Note_on_c, 0, 61, 20
1, 120493, Control_c, 0, 64, 0
1, 120560, Control_c, 0, 64, 127
1, 120708, Note_on_c, 0, 61, 0
1, 120708, Note_on_c, 0, 51, 0
1, 120708, Note_on_c, 0, 58, 0
1, 120708, Note_on_c, 0, 56, 0
1, 120720, Tempo, 585423
1, 120720, Note_on_c, 0, 65, 20
1, 120720, Note_on_c, 0, 51, 11
1, 120720, Note_on_c, 0, 56, 15
1, 120720, Note_on_c, 0, 61, 17
1, 120948, Note_on_c, 0, 61, 0
1, 120948, Note_on_c, 0, 51, 0
1, 120948, Note_on_c, 0, 65, 0
1, 120948, Note_on_c, 0, 56, 0
1, 120960, Tempo, 573285
1, 120960, Note_on_c, 0, 68, 0
1, 120960, Note_on_c, 0, 32, 0
1, 120960, Note_on_c, 0, 68, 45
1, 120960, Note_on_c, 0, 60, 30
1, 120960, Note_on_c, 0, 51, 13
1, 120960, Note_on_c, 0, 56, 15
1, 120960, Note_on_c, 0, 63, 18
1, 121000, Control_c, 0, 64, 0
1, 121097, Control_c, 0, 64, 127
1, 121188, Note_on_c, 0, 63, 0
1, 121188, Note_on_c, 0, 51, 0
1, 121188, Note_on_c, 0, 56, 0
1, 121188, Note_on_c, 0, 60, 0
1, 121200, Tempo, 558140
1, 121200, Note_on_c, 0, 60, 30
1, 121200, Note_on_c, 0, 56, 15
1, 121200, Note_on_c, 0, 51, 10
1, 121200, Note_on_c, 0, 63, 18
1, 121428, Note_on_c, 0, 63, 0
1, 121428, Note_on_c, 0, 56, 0
1, 121428, Note_on_c, 0, 51, 0
1, 121428, Note_on_c, 0, 60, 0
1, 121440, Note_on_c, 0, 60, 30
1, 121440, Note_on_c, 0, 56, 15
1, 121440, Note_on_c, 0, 51, 9
1, 121440, Note_on_c, 0, 63, 17
1, 121668, Note_on_c, 0, 63, 0
1, 121668, Note_on_c, 0, 56, 0
1, 121668, Note_on_c, 0, 51, 0
1, 121668, Note_on_c, 0, 60, 0
1, 121680, Tempo, 566038
1, 121680, Note_on_c, 0, 60, 23
1, 121680, Note_on_c, 0, 51, 14
1, 121680, Note_on_c, 0, 56, 16
1, 121680, Note_on_c, 0, 63, 20
1, 121908, Note_on_c, 0, 63, 0
1, 121908, Note_on_c, 0, 51, 0
1, 121908, Note_on_c, 0, 56, 0
1, 121908, Note_on_c, 0, 60, 0
1, 121920, Tempo, 579710
1, 121920, Note_on_c, 0, 58, 23
1, 121920, Note_on_c, 0, 51, 11
1, 121920, Note_on_c, 0, 56, 16
1, 121920, Note_on_c, 0, 61, 20
1, 121936, Control_c, 0, 64, 0
1, 122014, Control_c, 0, 64, 127
1, 122148, Note_on_c, 0, 61, 0
1, 122148, Note_on_c, 0, 51, 0
1, 122148, Note_on_c, 0, 56, 0
1, 122148, Note_on_c, 0, 58, 0
1, 122160, Tempo, 585423
1, 122160, Note_on_c, 0, 65, 20
1, 122160, Note_on_c, 0, 51, 11
1, 122160, Note_on_c, 0, 56, 15
1, 122160, Note_on_c, 0, 61, 17
1, 122280, Tempo, 643294
1, 122388, Note_on_c, 0, 61, 0
1, 122388, Note_on_c, 0, 51, 0
1, 122388, Note_on_c, 0, 56, 0
1, 122388, Note_on_c, 0, 65, 0
1, 122400, Tempo, 643294
1, 122400, Note_on_c, 0, 68, 0
1, 122400, Note_on_c, 0, 60, 30
1, 122400, Note_on_c, 0, 68, 45
1, 122400, Note_on_c, 0, 51, 13
1, 122400, Note_on_c, 0, 56, 15
1, 122400, Note_on_c, 0, 63, 18
1, 122418, Control_c, 0, 64, 0
1, 122537, Control_c, 0, 64, 127
1, 122628, Note_on_c, 0, 63, 0
1, 122628, Note_on_c, 0, 51, 0
1, 122628, Note_on_c, 0, 56, 0
1, 122640, Tempo, 576923
1, 122640, Note_on_c, 0, 56, 15
1, 122640, Note_on_c, 0, 51, 10
1, 122640, Note_on_c, 0, 63, 18
1, 122868, Note_on_c, 0, 63, 0
1, 122868, Note_on_c, 0, 56, 0
1, 122868, Note_on_c, 0, 51, 0
1, 122880, Note_on_c, 0, 68, 0
1, 122880, Note_on_c, 0, 60, 0
1, 122880, Note_on_c, 0, 58, 30
1, 122880, Note_on_c, 0, 55, 15
1, 122880, Note_on_c, 0, 51, 9
1, 122880, Note_on_c, 0, 63, 17
1, 123108, Note_on_c, 0, 63, 0
1, 123108, Note_on_c, 0, 58, 0
1, 123108, Note_on_c, 0, 55, 0
1, 123108, Note_on_c, 0, 51, 0
1, 123120, Tempo, 528961
1, 123120, Note_on_c, 0, 60, 23
1, 123120, Note_on_c, 0, 68, 45
1, 123120, Note_on_c, 0, 51, 14
1, 123120, Note_on_c, 0, 56, 16
1, 123120, Note_on_c, 0, 63, 20
1, 123134, Control_c, 0, 64, 0
1, 123227, Control_c, 0, 64, 127
1, 123348, Note_on_c, 0, 63, 0
1, 123348, Note_on_c, 0, 51, 0
1, 123348, Note_on_c, 0, 56, 0
1, 123360, Tempo, 588235
1, 123360, Note_on_c, 0, 51, 11
1, 123360, Note_on_c, 0, 56, 16
1, 123360, Note_on_c, 0, 63, 20
1, 123588, Note_on_c, 0, 63, 0
1, 123588, Note_on_c, 0, 51, 0
1, 123588, Note_on_c, 0, 56, 0
1, 123600, Tempo, 585423
1, 123600, Note_on_c, 0, 68, 0
1, 123600, Note_on_c, 0, 60, 0
1, 123600, Note_on_c, 0, 58, 20
1, 123600, Note_on_c, 0, 51, 11
1, 123600, Note_on_c, 0, 55, 15
1, 123600, Note_on_c, 0, 63, 17
1, 123828, Note_on_c, 0, 63, 0
1, 123828, Note_on_c, 0, 58, 0
1, 123828, Note_on_c, 0, 51, 0
1, 123828, Note_on_c, 0, 55, 0
1, 123840, Tempo, 604656
1, 123840, Note_on_c, 0, 60, 30
1, 123840, Note_on_c, 0, 68, 45
1, 123840, Note_on_c, 0, 51, 13
1, 123840, Note_on_c, 0, 56, 15
1, 123840, Note_on_c, 0, 63, 18
1, 123856, Control_c, 0, 64, 0
1, 123977, Control_c, 0, 64, 127
1, 124068, Note_on_c, 0, 63, 0
1, 124068, Note_on_c, 0, 51, 0
1, 124068, Note_on_c, 0, 56, 0
1, 124080, Tempo, 582355
1, 124080, Note_on_c, 0, 56, 15
1, 124080, Note_on_c, 0, 51, 10
1, 124080, Note_on_c, 0, 63, 18
1, 124140, Tempo, 579318
1, 124180, Tempo, 582355
1, 124220, Tempo, 585423
1, 124260, Tempo, 588524
1, 124300, Tempo, 591716
1, 124308, Note_on_c, 0, 63, 0
1, 124308, Note_on_c, 0, 56, 0
1, 124308, Note_on_c, 0, 51, 0
1, 124320, Note_on_c, 0, 68, 0
1, 124320, Note_on_c, 0, 60, 0
1, 124320, Note_on_c, 0, 58, 30
1, 124320, Note_on_c, 0, 55, 15
1, 124320, Note_on_c, 0, 51, 9
1, 124320, Note_on_c, 0, 63, 17
1, 124340, Tempo, 594884
1, 124380, Tempo, 598086
1, 124420, Tempo, 601323
1, 124460, Tempo, 604656
1, 124500, Tempo, 607964
1, 124520, Tempo, 611309
1, 124548, Note_on_c, 0, 63, 0
1, 124548, Note_on_c, 0, 58, 0
1, 124548, Note_on_c, 0, 55, 0
1, 124548, Note_on_c, 0, 51, 0
1, 124560, Tempo, 614691
1, 124560, Note_on_c, 0, 60, 23
1, 124560, Note_on_c, 0, 68, 45
1, 124560, Note_on_c, 0, 51, 14
1, 124560, Note_on_c, 0, 56, 16
1, 124560, Note_on_c, 0, 63, 20
1, 124572, Control_c, 0, 64, 0
1, 124600, Tempo, 618111
1, 124640, Tempo, 621633
1, 124680, Tempo, 625130
1, 124694, Control_c, 0, 64, 127
1, 124720, Tempo, 628667
1, 124760, Tempo, 632244
1, 124788, Note_on_c, 0, 63, 0
1, 124788, Note_on_c, 0, 51, 0
1, 124788, Note_on_c, 0, 56, 0
1, 124800, Tempo, 635930
1, 124800, Note_on_c, 0, 51, 11
1, 124800, Note_on_c, 0, 56, 16
1, 124800, Note_on_c, 0, 63, 20
1, 124840, Tempo, 639591
1, 124860, Tempo, 643294
1, 124900, Tempo, 647040
1, 124940, Tempo, 650900
1, 124980, Tempo, 654736
1, 125020, Tempo, 658617
1, 125028, Note_on_c, 0, 63, 0
1, 125028, Note_on_c, 0, 51, 0
1, 125028, Note_on_c, 0, 56, 0
1, 125040, Note_on_c, 0, 68, 0
1, 125040, Note_on_c, 0, 60, 0
1, 125040, Note_on_c, 0, 58, 20
1, 125040, Note_on_c, 0, 51, 11
1, 125040, Note_on_c, 0, 55, 15
1, 125040, Note_on_c, 0, 63, 17
1, 125060, Tempo, 662544
1, 125100, Tempo, 666519
1, 125140, Tempo, 670616
1, 125160, Tempo, 885217
1, 125268, Note_on_c, 0, 63, 0
1, 125268, Note_on_c, 0, 58, 0
1, 125268, Note_on_c, 0, 51, 0
1, 125268, Note_on_c, 0, 55, 0
1, 125280, Tempo, 838223
1, 125280, Note_on_c, 0, 32, 53
1, 125298, Control_c, 0, 64, 0
1, 125417, Control_c, 0, 64, 127
1, 125520, Tempo, 666519
1, 125520, Note_on_c, 0, 60, 30
1, 125520, Note_on_c, 0, 56, 15
1, 125520, Note_on_c, 0, 51, 10
1, 125520, Note_on_c, 0, 63, 18
1, 125540, Tempo, 662983
1, 125560, Tempo, 659341
1, 125580, Tempo, 655738
1, 125620, Tempo, 652174
1, 125640, Tempo, 662983
1, 125680, Tempo, 670391
1, 125720, Tempo, 666667
1, 125740, Tempo, 662983
1, 125748, Note_on_c, 0, 63, 0
1, 125748, Note_on_c, 0, 56, 0
1, 125748, Note_on_c, 0, 51, 0
1, 125748, Note_on_c, 0, 60, 0
1, 125760, Tempo, 659341
1, 125760, Note_on_c, 0, 60, 30
1, 125760, Note_on_c, 0, 56, 15
1, 125760, Note_on_c, 0, 51, 9
1, 125760, Note_on_c, 0, 63, 17
1, 125780, Tempo, 655738
1, 125800, Tempo, 652174
1, 125820, Tempo, 659341
1, 125840, Tempo, 670391
1, 125880, Tempo, 666667
1, 125900, Tempo, 662983
1, 125920, Tempo, 659341
1, 125940, Tempo, 655738
1, 125960, Tempo, 652174
1, 125980, Tempo, 659341
1, 125988, Note_on_c, 0, 63, 0
1, 125988, Note_on_c, 0, 56, 0
1, 125988, Note_on_c, 0, 51, 0
1, 125988, Note_on_c, 0, 60, 0
1, 126000, Tempo, 666667
1, 126000, Note_on_c, 0, 60, 23
1, 126000, Note_on_c, 0, 51, 14
1, 126000, Note_on_c, 0, 56, 16
1, 126000, Note_on_c, 0, 63, 20
1, 126020, Tempo, 674157
1, 126100, Tempo, 670391
1, 126120, Tempo, 666667
1, 126140, Tempo, 662983
1, 126160, Tempo, 655738
1, 126200, Tempo, 659341
1, 126228, Note_on_c, 0, 63, 0
1, 126228, Note_on_c, 0, 51, 0
1, 126228, Note_on_c, 0, 56, 0
1, 126228, Note_on_c, 0, 60, 0
1, 126240, Tempo, 666667
1, 126240, Note_on_c, 0, 60, 23
1, 126240, Note_on_c, 0, 51, 11
1, 126240, Note_on_c, 0, 56, 16
1, 126240, Note_on_c, 0, 63, 20
1, 126260, Tempo, 674157
1, 126280, Tempo, 677966
1, 126300, Tempo, 681818
1, 126340, Tempo, 670391
1, 126360, Tempo, 666667
1, 126380, Tempo, 662983
1, 126400, Tempo, 655738
1, 126420, Tempo, 652174
1, 126460, Tempo, 648649
1, 126468, Note_on_c, 0, 63, 0
1, 126468, Note_on_c, 0, 51, 0
1, 126468, Note_on_c, 0, 56, 0
1, 126468, Note_on_c, 0, 60, 0
1, 126480, Note_on_c, 0, 60, 20
1, 126480, Note_on_c, 0, 51, 11
1, 126480, Note_on_c, 0, 56, 15
1, 126480, Note_on_c, 0, 63, 17
1, 126500, Tempo, 659341
1, 126520, Tempo, 674157
1, 126580, Tempo, 670391
1, 126600, Tempo, 659341
1, 126620, Tempo, 655738
1, 126640, Tempo, 652174
1, 126660, Tempo, 655738
1, 126680, Tempo, 659341
1, 126708, Note_on_c, 0, 63, 0
1, 126708, Note_on_c, 0, 51, 0
1, 126708, Note_on_c, 0, 56, 0
1, 126708, Note_on_c, 0, 60, 0
1, 126720, Tempo, 666519
1, 126720, Note_on_c, 0, 32, 0
1, 126720, Note_on_c, 0, 60, 23
1, 126720, Note_on_c, 0, 51, 13
1, 126720, Note_on_c, 0, 56, 15
1, 126720, Note_on_c, 0, 63, 18
1, 126780, Tempo, 670616
1, 126840, Tempo, 674688
1, 126880, Tempo, 678810
1, 126940, Tempo, 682982
1, 126948, Note_on_c, 0, 63, 0
1, 126948, Note_on_c, 0, 60, 0
1, 126948, Note_on_c, 0, 51, 0
1, 126948, Note_on_c, 0, 56, 0
1, 126960, Note_on_c, 0, 60, 30
1, 126960, Note_on_c, 0, 56, 15
1, 126960, Note_on_c, 0, 51, 10
1, 126960, Note_on_c, 0, 63, 18
1, 126980, Tempo, 687285
1, 127040, Tempo, 691563
1, 127080, Tempo, 695894
1, 127140, Tempo, 700280
1, 127180, Tempo, 704804
1, 127188, Note_on_c, 0, 63, 0
1, 127188, Note_on_c, 0, 60, 0
1, 127188, Note_on_c, 0, 56, 0
1, 127188, Note_on_c, 0, 51, 0
1, 127200, Note_on_c, 0, 60, 30
1, 127200, Note_on_c, 0, 56, 15
1, 127200, Note_on_c, 0, 51, 9
1, 127200, Note_on_c, 0, 63, 17
1, 127240, Tempo, 709304
1, 127300, Tempo, 713861
1, 127340, Tempo, 718477
1, 127400, Tempo, 723153
1, 127428, Note_on_c, 0, 63, 0
1, 127428, Note_on_c, 0, 60, 0
1, 127428, Note_on_c, 0, 56, 0
1, 127428, Note_on_c, 0, 51, 0
1, 127440, Tempo, 851064
1, 127440, Note_on_c, 0, 60, 23
1, 127440, Note_on_c, 0, 51, 14
1, 127440, Note_on_c, 0, 56, 16
1, 127440, Note_on_c, 0, 63, 20
1, 127620, Note_on_c, 0, 60, 0
1, 127620, Note_on_c, 0, 63, 23
1, 127668, Note_on_c, 0, 51, 0
1, 127668, Note_on_c, 0, 63, 0
1, 127668, Note_on_c, 0, 56, 0
1, 127680, Tempo, 1276596
1, 127680, Note_on_c, 0, 63, 0
1, 127680, Note_on_c, 0, 61, 23
1, 127680, Note_on_c, 0, 51, 11
1, 127680, Note_on_c, 0, 56, 16
1, 127908, Note_on_c, 0, 56, 0
1, 127908, Note_on_c, 0, 51, 0
1, 127908, Note_on_c, 0, 61, 0
1, 127920, Tempo, 1764706
1, 127920, Note_on_c, 0, 60, 20
1, 127920, Note_on_c, 0, 51, 11
1, 127920, Note_on_c, 0, 56, 15
1, 127920, Note_on_c, 0, 63, 17
1, 127934, Control_c, 0, 64, 0
1, 127973, Control_c, 0, 64, 127
1, 128148, Note_on_c, 0, 63, 0
1, 128148, Note_on_c, 0, 60, 0
1, 128148, Note_on_c, 0, 51, 0
1, 128148, Note_on_c, 0, 56, 0
1, 128160, Tempo, 1500000
1, 128160, Note_on_c, 0, 60, 17
1, 128160, Note_on_c, 0, 51, 11
1, 128160, Note_on_c, 0, 56, 13
1, 128160, Note_on_c, 0, 63, 15
1, 129600, Tempo, 1000000
1, 129600, Note_on_c, 0, 63, 0
1, 129600, Note_on_c, 0, 60, 0
1, 129600, Note_on_c, 0, 51, 0
1, 129600, Note_on_c, 0, 56, 0
1, 130880, Control_c, 0, 64, 0
1, 130880, End_track
0, 0, End_of_file
