0, 0, Header, 0, 1, 480
1, 0, Start_track
1, 0, Title_t, "Sonate opus 35, 1. Satz"
1, 0, Copyright_t, "Copyright © 2002 by Bernd Krueger"
1, 0, Text_t, "Frederic Chopin"
1, 0, Text_t, "Grave / Doppio movimento"
1, 0, Text_t, "Fertiggestellt am 31.1.2002\012"
1, 0, Text_t, "Update am 23.02.2002\012"
1, 0, Text_t, "Normierung: 23.12.2002\012"
1, 0, Text_t, "Update am 3.8.2010\012"
1, 0, Text_t, "Update am 26.2.2014\012"
1, 0, Text_t, "Dauer: 6:35 Minuten\012"
1, 0, SMPTE_offset, 96, 0, 3, 0, 0
1, 0, Time_signature, 4, 2, 24, 8
1, 0, Key_signature, -5, "major"
1, 0, Tempo, 750000
1, 0, Marker_t, "Grave"
1, 0, Program_c, 0, 0
1, 0, Control_c, 0, 7, 100
1, 0, Control_c, 0, 10, 64
1, 0, Control_c, 0, 91, 127
1, 0, Program_c, 0, 0
1, 0, Control_c, 0, 7, 100
1, 0, Control_c, 0, 10, 64
1, 0, Note_on_c, 0, 37, 76
1, 0, Note_on_c, 0, 49, 90
1, 0, Program_c, 0, 0
1, 0, Control_c, 0, 64, 0
1, 0, Control_c, 0, 64, 0
1, 0, Text_t, "bdca426d104a26ac9dcb070447587523"
1, 80, Control_c, 0, 64, 127
1, 1680, Tempo, 902256
1, 1680, Note_on_c, 0, 49, 0
1, 1680, Note_on_c, 0, 37, 0
1, 1680, Note_on_c, 0, 28, 76
1, 1680, Note_on_c, 0, 40, 90
1, 1920, Tempo, 794702
1, 1920, Note_on_c, 0, 40, 0
1, 1920, Note_on_c, 0, 28, 0
1, 1920, Note_on_c, 0, 28, 76
1, 1920, Note_on_c, 0, 40, 90
1, 2880, Tempo, 794702
1, 2880, Note_on_c, 0, 49, 76
1, 2880, Note_on_c, 0, 61, 90
1, 2880, Note_on_c, 0, 56, 76
1, 2897, Control_c, 0, 64, 0
1, 3254, Control_c, 0, 64, 127
1, 3840, Tempo, 736196
1, 3840, Note_on_c, 0, 56, 0
1, 3840, Note_on_c, 0, 49, 0
1, 3840, Note_on_c, 0, 28, 0
1, 3840, Note_on_c, 0, 40, 0
1, 3840, Note_on_c, 0, 61, 0
1, 3840, Note_on_c, 0, 49, 72
1, 3853, Control_c, 0, 64, 0
1, 3880, Tempo, 740741
1, 3909, Control_c, 0, 64, 127
1, 3920, Tempo, 750000
1, 3960, Tempo, 759494
1, 3960, Note_on_c, 0, 49, 0
1, 3960, Note_on_c, 0, 49, 65
1, 4000, Tempo, 769231
1, 4040, Tempo, 774194
1, 4080, Tempo, 784314
1, 4080, Note_on_c, 0, 51, 79
1, 4120, Tempo, 794702
1, 4160, Tempo, 805369
1, 4180, Tempo, 805369
1, 4200, Tempo, 810811
1, 4200, Note_on_c, 0, 57, 81
1, 4220, Tempo, 816327
1, 4240, Tempo, 821918
1, 4320, Tempo, 839161
1, 4320, Note_on_c, 0, 29, 85
1, 4320, Note_on_c, 0, 41, 85
1, 4320, Note_on_c, 0, 61, 85
1, 5760, Tempo, 750000
1, 5760, Note_on_c, 0, 61, 0
1, 5760, Note_on_c, 0, 49, 0
1, 5760, Note_on_c, 0, 48, 64
1, 5760, Note_on_c, 0, 60, 64
1, 5771, Control_c, 0, 64, 0
1, 6133, Control_c, 0, 64, 127
1, 7440, Control_c, 0, 64, 0
1, 7680, Time_signature, 4, 3, 12, 8
1, 7680, Tempo, 500835
1, 7680, Marker_t, "Teil 1"
1, 7680, Note_on_c, 0, 60, 0
1, 7680, Note_on_c, 0, 57, 0
1, 7680, Note_on_c, 0, 41, 0
1, 7680, Note_on_c, 0, 51, 0
1, 7680, Note_on_c, 0, 48, 0
1, 7680, Note_on_c, 0, 29, 0
1, 7680, Note_on_c, 0, 34, 44
1, 7680, Note_on_c, 0, 46, 52
1, 7744, Control_c, 0, 64, 127
1, 7800, Note_on_c, 0, 46, 0
1, 7800, Note_on_c, 0, 34, 0
1, 7800, Note_on_c, 0, 53, 29
1, 7920, Note_on_c, 0, 53, 0
1, 7920, Note_on_c, 0, 49, 22
1, 7920, Note_on_c, 0, 61, 26
1, 7920, Note_on_c, 0, 58, 22
1, 8000, Tempo, 498422
1, 8040, Note_on_c, 0, 58, 0
1, 8040, Note_on_c, 0, 61, 0
1, 8040, Note_on_c, 0, 49, 0
1, 8040, Note_on_c, 0, 41, 33
1, 8160, Note_on_c, 0, 41, 0
1, 8160, Note_on_c, 0, 34, 25
1, 8160, Note_on_c, 0, 46, 29
1, 8280, Note_on_c, 0, 46, 0
1, 8280, Note_on_c, 0, 34, 0
1, 8280, Note_on_c, 0, 53, 29
1, 8320, Tempo, 496073
1, 8400, Note_on_c, 0, 53, 0
1, 8400, Note_on_c, 0, 49, 23
1, 8400, Note_on_c, 0, 61, 27
1, 8400, Note_on_c, 0, 58, 23
1, 8520, Note_on_c, 0, 58, 0
1, 8520, Note_on_c, 0, 61, 0
1, 8520, Note_on_c, 0, 49, 0
1, 8520, Note_on_c, 0, 41, 35
1, 8640, Tempo, 493746
1, 8640, Note_on_c, 0, 41, 0
1, 8640, Note_on_c, 0, 34, 27
1, 8640, Note_on_c, 0, 46, 33
1, 8760, Note_on_c, 0, 46, 0
1, 8760, Note_on_c, 0, 34, 0
1, 8760, Note_on_c, 0, 53, 30
1, 8880, Note_on_c, 0, 53, 0
1, 8880, Note_on_c, 0, 49, 24
1, 8880, Note_on_c, 0, 61, 29
1, 8880, Note_on_c, 0, 58, 24
1, 8960, Tempo, 491441
1, 9000, Note_on_c, 0, 58, 0
1, 9000, Note_on_c, 0, 61, 0
1, 9000, Note_on_c, 0, 49, 0
1, 9000, Note_on_c, 0, 41, 35
1, 9120, Note_on_c, 0, 41, 0
1, 9120, Note_on_c, 0, 34, 28
1, 9120, Note_on_c, 0, 46, 34
1, 9240, Note_on_c, 0, 46, 0
1, 9240, Note_on_c, 0, 34, 0
1, 9240, Note_on_c, 0, 53, 35
1, 9280, Tempo, 489117
1, 9360, Note_on_c, 0, 53, 0
1, 9360, Note_on_c, 0, 49, 26
1, 9360, Note_on_c, 0, 61, 31
1, 9360, Note_on_c, 0, 58, 26
1, 9480, Note_on_c, 0, 58, 0
1, 9480, Note_on_c, 0, 61, 0
1, 9480, Note_on_c, 0, 49, 0
1, 9480, Note_on_c, 0, 41, 39
1, 9560, Tempo, 489117
1, 9600, Note_on_c, 0, 41, 0
1, 9600, Note_on_c, 0, 34, 30
1, 9600, Note_on_c, 0, 46, 38
1, 9720, Note_on_c, 0, 46, 0
1, 9720, Note_on_c, 0, 34, 0
1, 9720, Note_on_c, 0, 53, 35
1, 9840, Note_on_c, 0, 53, 0
1, 9840, Note_on_c, 0, 49, 28
1, 9840, Note_on_c, 0, 61, 34
1, 9840, Note_on_c, 0, 58, 28
1, 9960, Note_on_c, 0, 58, 0
1, 9960, Note_on_c, 0, 61, 0
1, 9960, Note_on_c, 0, 49, 0
1, 9960, Note_on_c, 0, 41, 39
1, 10080, Tempo, 491441
1, 10080, Note_on_c, 0, 41, 0
1, 10080, Note_on_c, 0, 34, 29
1, 10080, Note_on_c, 0, 46, 35
1, 10200, Note_on_c, 0, 46, 0
1, 10200, Note_on_c, 0, 34, 0
1, 10200, Note_on_c, 0, 53, 34
1, 10320, Note_on_c, 0, 53, 0
1, 10320, Note_on_c, 0, 49, 25
1, 10320, Note_on_c, 0, 61, 30
1, 10320, Note_on_c, 0, 58, 25
1, 10440, Note_on_c, 0, 58, 0
1, 10440, Note_on_c, 0, 61, 0
1, 10440, Note_on_c, 0, 49, 0
1, 10440, Note_on_c, 0, 41, 36
1, 10560, Tempo, 493746
1, 10560, Note_on_c, 0, 41, 0
1, 10560, Note_on_c, 0, 34, 27
1, 10560, Note_on_c, 0, 46, 33
1, 10680, Note_on_c, 0, 46, 0
1, 10680, Note_on_c, 0, 34, 0
1, 10680, Note_on_c, 0, 53, 30
1, 10800, Note_on_c, 0, 53, 0
1, 10800, Note_on_c, 0, 49, 24
1, 10800, Note_on_c, 0, 61, 29
1, 10800, Note_on_c, 0, 58, 24
1, 10920, Note_on_c, 0, 58, 0
1, 10920, Note_on_c, 0, 61, 0
1, 10920, Note_on_c, 0, 49, 0
1, 10920, Note_on_c, 0, 41, 35
1, 11040, Tempo, 496073
1, 11040, Note_on_c, 0, 41, 0
1, 11040, Note_on_c, 0, 34, 25
1, 11040, Note_on_c, 0, 46, 29
1, 11160, Note_on_c, 0, 46, 0
1, 11160, Note_on_c, 0, 34, 0
1, 11160, Note_on_c, 0, 53, 29
1, 11280, Note_on_c, 0, 53, 0
1, 11280, Note_on_c, 0, 49, 24
1, 11280, Note_on_c, 0, 61, 28
1, 11280, Note_on_c, 0, 58, 24
1, 11400, Note_on_c, 0, 58, 0
1, 11400, Note_on_c, 0, 61, 0
1, 11400, Note_on_c, 0, 49, 0
1, 11400, Note_on_c, 0, 53, 33
1, 11520, Tempo, 498422
1, 11520, Note_on_c, 0, 53, 0
1, 11520, Note_on_c, 0, 73, 54
1, 11520, Note_on_c, 0, 46, 35
1, 11529, Control_c, 0, 64, 0
1, 11591, Control_c, 0, 64, 127
1, 11640, Note_on_c, 0, 46, 0
1, 11640, Note_on_c, 0, 73, 0
1, 11640, Note_on_c, 0, 70, 51
1, 11640, Note_on_c, 0, 53, 34
1, 11700, Note_on_c, 0, 70, 0
1, 11760, Tempo, 498422
1, 11760, Note_on_c, 0, 53, 0
1, 11760, Note_on_c, 0, 61, 30
1, 11760, Note_on_c, 0, 58, 30
1, 11880, Note_on_c, 0, 58, 0
1, 11880, Note_on_c, 0, 61, 0
1, 11880, Note_on_c, 0, 72, 51
1, 11880, Note_on_c, 0, 53, 31
1, 12000, Tempo, 491441
1, 12000, Note_on_c, 0, 53, 0
1, 12000, Note_on_c, 0, 72, 0
1, 12000, Note_on_c, 0, 73, 54
1, 12000, Note_on_c, 0, 46, 35
1, 12011, Control_c, 0, 64, 0
1, 12060, Control_c, 0, 64, 127
1, 12120, Note_on_c, 0, 46, 0
1, 12120, Note_on_c, 0, 73, 0
1, 12120, Note_on_c, 0, 70, 51
1, 12120, Note_on_c, 0, 53, 33
1, 12180, Note_on_c, 0, 70, 0
1, 12240, Tempo, 498422
1, 12240, Note_on_c, 0, 53, 0
1, 12240, Note_on_c, 0, 61, 31
1, 12240, Note_on_c, 0, 58, 31
1, 12360, Note_on_c, 0, 58, 0
1, 12360, Note_on_c, 0, 61, 0
1, 12360, Note_on_c, 0, 53, 31
1, 12480, Tempo, 489117
1, 12480, Note_on_c, 0, 53, 0
1, 12480, Note_on_c, 0, 73, 54
1, 12480, Note_on_c, 0, 46, 35
1, 12494, Control_c, 0, 64, 0
1, 12558, Control_c, 0, 64, 127
1, 12600, Note_on_c, 0, 46, 0
1, 12600, Note_on_c, 0, 73, 0
1, 12600, Note_on_c, 0, 70, 51
1, 12600, Note_on_c, 0, 53, 34
1, 12660, Note_on_c, 0, 70, 0
1, 12720, Tempo, 498422
1, 12720, Note_on_c, 0, 53, 0
1, 12720, Note_on_c, 0, 61, 31
1, 12720, Note_on_c, 0, 58, 31
1, 12840, Note_on_c, 0, 58, 0
1, 12840, Note_on_c, 0, 61, 0
1, 12840, Note_on_c, 0, 72, 51
1, 12840, Note_on_c, 0, 53, 31
1, 12960, Tempo, 491441
1, 12960, Note_on_c, 0, 53, 0
1, 12960, Note_on_c, 0, 72, 0
1, 12960, Note_on_c, 0, 73, 54
1, 12960, Note_on_c, 0, 46, 35
1, 12974, Control_c, 0, 64, 0
1, 13020, Control_c, 0, 64, 127
1, 13080, Note_on_c, 0, 46, 0
1, 13080, Note_on_c, 0, 73, 0
1, 13080, Note_on_c, 0, 70, 51
1, 13080, Note_on_c, 0, 53, 33
1, 13140, Note_on_c, 0, 70, 0
1, 13200, Tempo, 498422
1, 13200, Note_on_c, 0, 53, 0
1, 13200, Note_on_c, 0, 61, 31
1, 13200, Note_on_c, 0, 58, 31
1, 13320, Note_on_c, 0, 58, 0
1, 13320, Note_on_c, 0, 61, 0
1, 13320, Note_on_c, 0, 53, 31
1, 13440, Tempo, 491441
1, 13440, Note_on_c, 0, 53, 0
1, 13440, Note_on_c, 0, 73, 54
1, 13440, Note_on_c, 0, 46, 35
1, 13451, Control_c, 0, 64, 0
1, 13496, Control_c, 0, 64, 127
1, 13560, Note_on_c, 0, 46, 0
1, 13560, Note_on_c, 0, 73, 0
1, 13560, Note_on_c, 0, 70, 51
1, 13560, Note_on_c, 0, 53, 33
1, 13620, Note_on_c, 0, 70, 0
1, 13680, Tempo, 498422
1, 13680, Note_on_c, 0, 53, 0
1, 13680, Note_on_c, 0, 61, 31
1, 13680, Note_on_c, 0, 58, 31
1, 13800, Note_on_c, 0, 58, 0
1, 13800, Note_on_c, 0, 61, 0
1, 13800, Note_on_c, 0, 72, 61
1, 13800, Note_on_c, 0, 53, 33
1, 13920, Tempo, 489117
1, 13920, Note_on_c, 0, 53, 0
1, 13920, Note_on_c, 0, 72, 0
1, 13920, Note_on_c, 0, 73, 66
1, 13920, Note_on_c, 0, 46, 37
1, 13933, Control_c, 0, 64, 0
1, 13984, Control_c, 0, 64, 127
1, 14040, Note_on_c, 0, 46, 0
1, 14040, Note_on_c, 0, 73, 0
1, 14040, Note_on_c, 0, 82, 64
1, 14040, Note_on_c, 0, 53, 35
1, 14100, Note_on_c, 0, 82, 0
1, 14160, Tempo, 513128
1, 14160, Note_on_c, 0, 53, 0
1, 14160, Note_on_c, 0, 61, 34
1, 14160, Note_on_c, 0, 58, 34
1, 14280, Note_on_c, 0, 58, 0
1, 14280, Note_on_c, 0, 61, 0
1, 14280, Note_on_c, 0, 53, 34
1, 14400, Tempo, 491441
1, 14400, Note_on_c, 0, 53, 0
1, 14400, Note_on_c, 0, 81, 61
1, 14400, Note_on_c, 0, 48, 35
1, 14410, Control_c, 0, 64, 0
1, 14451, Control_c, 0, 64, 127
1, 14520, Note_on_c, 0, 48, 0
1, 14520, Note_on_c, 0, 81, 0
1, 14520, Note_on_c, 0, 72, 57
1, 14520, Note_on_c, 0, 54, 34
1, 14580, Note_on_c, 0, 72, 0
1, 14640, Tempo, 498422
1, 14640, Note_on_c, 0, 54, 0
1, 14640, Note_on_c, 0, 63, 30
1, 14640, Note_on_c, 0, 57, 30
1, 14760, Note_on_c, 0, 57, 0
1, 14760, Note_on_c, 0, 63, 0
1, 14760, Note_on_c, 0, 73, 49
1, 14760, Note_on_c, 0, 54, 31
1, 14880, Tempo, 491441
1, 14880, Note_on_c, 0, 54, 0
1, 14880, Note_on_c, 0, 73, 0
1, 14880, Note_on_c, 0, 75, 52
1, 14880, Note_on_c, 0, 48, 35
1, 14895, Control_c, 0, 64, 0
1, 14933, Control_c, 0, 64, 127
1, 15000, Note_on_c, 0, 48, 0
1, 15000, Note_on_c, 0, 75, 0
1, 15000, Note_on_c, 0, 72, 49
1, 15000, Note_on_c, 0, 54, 33
1, 15060, Note_on_c, 0, 72, 0
1, 15120, Tempo, 498422
1, 15120, Note_on_c, 0, 54, 0
1, 15120, Note_on_c, 0, 63, 31
1, 15120, Note_on_c, 0, 57, 31
1, 15240, Note_on_c, 0, 57, 0
1, 15240, Note_on_c, 0, 63, 0
1, 15240, Note_on_c, 0, 54, 31
1, 15360, Tempo, 493746
1, 15360, Note_on_c, 0, 54, 0
1, 15360, Note_on_c, 0, 78, 55
1, 15360, Note_on_c, 0, 48, 35
1, 15371, Control_c, 0, 64, 0
1, 15411, Control_c, 0, 64, 127
1, 15480, Note_on_c, 0, 48, 0
1, 15480, Note_on_c, 0, 78, 0
1, 15480, Note_on_c, 0, 72, 49
1, 15480, Note_on_c, 0, 51, 34
1, 15540, Note_on_c, 0, 72, 0
1, 15600, Tempo, 498422
1, 15600, Note_on_c, 0, 51, 0
1, 15600, Note_on_c, 0, 63, 30
1, 15600, Note_on_c, 0, 57, 30
1, 15720, Note_on_c, 0, 57, 0
1, 15720, Note_on_c, 0, 63, 0
1, 15720, Note_on_c, 0, 73, 49
1, 15720, Note_on_c, 0, 51, 31
1, 15840, Tempo, 491441
1, 15840, Note_on_c, 0, 51, 0
1, 15840, Note_on_c, 0, 73, 0
1, 15840, Note_on_c, 0, 75, 52
1, 15840, Note_on_c, 0, 48, 35
1, 15850, Control_c, 0, 64, 0
1, 15890, Control_c, 0, 64, 127
1, 15960, Note_on_c, 0, 48, 0
1, 15960, Note_on_c, 0, 75, 0
1, 15960, Note_on_c, 0, 72, 49
1, 15960, Note_on_c, 0, 54, 33
1, 16020, Note_on_c, 0, 72, 0
1, 16080, Tempo, 498422
1, 16080, Note_on_c, 0, 54, 0
1, 16080, Note_on_c, 0, 63, 31
1, 16080, Note_on_c, 0, 57, 31
1, 16200, Note_on_c, 0, 57, 0
1, 16200, Note_on_c, 0, 63, 0
1, 16200, Note_on_c, 0, 54, 31
1, 16320, Tempo, 493746
1, 16320, Note_on_c, 0, 54, 0
1, 16320, Note_on_c, 0, 78, 55
1, 16320, Note_on_c, 0, 48, 35
1, 16335, Control_c, 0, 64, 0
1, 16371, Control_c, 0, 64, 127
1, 16440, Note_on_c, 0, 48, 0
1, 16440, Note_on_c, 0, 78, 0
1, 16440, Note_on_c, 0, 72, 49
1, 16440, Note_on_c, 0, 51, 34
1, 16500, Note_on_c, 0, 72, 0
1, 16560, Tempo, 498422
1, 16560, Note_on_c, 0, 51, 0
1, 16560, Note_on_c, 0, 63, 30
1, 16560, Note_on_c, 0, 57, 30
1, 16680, Note_on_c, 0, 57, 0
1, 16680, Note_on_c, 0, 63, 0
1, 16680, Note_on_c, 0, 73, 49
1, 16680, Note_on_c, 0, 51, 31
1, 16800, Tempo, 491441
1, 16800, Note_on_c, 0, 51, 0
1, 16800, Note_on_c, 0, 73, 0
1, 16800, Note_on_c, 0, 75, 52
1, 16800, Note_on_c, 0, 48, 35
1, 16818, Control_c, 0, 64, 0
1, 16850, Control_c, 0, 64, 127
1, 16920, Note_on_c, 0, 48, 0
1, 16920, Note_on_c, 0, 75, 0
1, 16920, Note_on_c, 0, 72, 49
1, 16920, Note_on_c, 0, 54, 33
1, 16980, Note_on_c, 0, 72, 0
1, 17040, Tempo, 498422
1, 17040, Note_on_c, 0, 54, 0
1, 17040, Note_on_c, 0, 63, 31
1, 17040, Note_on_c, 0, 57, 31
1, 17160, Note_on_c, 0, 57, 0
1, 17160, Note_on_c, 0, 63, 0
1, 17160, Note_on_c, 0, 54, 31
1, 17280, Tempo, 493746
1, 17280, Note_on_c, 0, 54, 0
1, 17280, Note_on_c, 0, 78, 58
1, 17280, Note_on_c, 0, 48, 35
1, 17289, Control_c, 0, 64, 0
1, 17331, Control_c, 0, 64, 127
1, 17400, Note_on_c, 0, 48, 0
1, 17400, Note_on_c, 0, 78, 0
1, 17400, Note_on_c, 0, 72, 51
1, 17400, Note_on_c, 0, 51, 35
1, 17460, Note_on_c, 0, 72, 0
1, 17520, Tempo, 498422
1, 17520, Note_on_c, 0, 51, 0
1, 17520, Note_on_c, 0, 63, 34
1, 17520, Note_on_c, 0, 57, 34
1, 17640, Note_on_c, 0, 57, 0
1, 17640, Note_on_c, 0, 63, 0
1, 17640, Note_on_c, 0, 73, 65
1, 17640, Note_on_c, 0, 51, 35
1, 17760, Tempo, 491441
1, 17760, Note_on_c, 0, 51, 0
1, 17760, Note_on_c, 0, 73, 0
1, 17760, Note_on_c, 0, 75, 71
1, 17760, Note_on_c, 0, 48, 39
1, 17771, Control_c, 0, 64, 0
1, 17813, Control_c, 0, 64, 127
1, 17880, Note_on_c, 0, 48, 0
1, 17880, Note_on_c, 0, 75, 0
1, 17880, Note_on_c, 0, 84, 64
1, 17880, Note_on_c, 0, 54, 37
1, 17940, Note_on_c, 0, 84, 0
1, 18000, Tempo, 510595
1, 18000, Note_on_c, 0, 54, 0
1, 18000, Note_on_c, 0, 63, 37
1, 18000, Note_on_c, 0, 57, 37
1, 18120, Note_on_c, 0, 57, 0
1, 18120, Note_on_c, 0, 63, 0
1, 18120, Note_on_c, 0, 54, 38
1, 18240, Tempo, 493746
1, 18240, Note_on_c, 0, 54, 0
1, 18240, Note_on_c, 0, 84, 61
1, 18240, Note_on_c, 0, 49, 35
1, 18250, Control_c, 0, 64, 0
1, 18291, Control_c, 0, 64, 127
1, 18360, Note_on_c, 0, 49, 0
1, 18360, Note_on_c, 0, 73, 57
1, 18360, Note_on_c, 0, 53, 34
1, 18420, Note_on_c, 0, 73, 0
1, 18480, Tempo, 498422
1, 18480, Note_on_c, 0, 53, 0
1, 18480, Note_on_c, 0, 84, 0
1, 18480, Note_on_c, 0, 65, 30
1, 18480, Note_on_c, 0, 57, 30
1, 18600, Note_on_c, 0, 57, 0
1, 18600, Note_on_c, 0, 65, 0
1, 18600, Note_on_c, 0, 75, 49
1, 18600, Note_on_c, 0, 53, 31
1, 18720, Tempo, 491441
1, 18720, Note_on_c, 0, 53, 0
1, 18720, Note_on_c, 0, 75, 0
1, 18720, Note_on_c, 0, 82, 52
1, 18720, Note_on_c, 0, 77, 52
1, 18720, Note_on_c, 0, 49, 35
1, 18729, Control_c, 0, 64, 0
1, 18771, Control_c, 0, 64, 127
1, 18840, Note_on_c, 0, 49, 0
1, 18840, Note_on_c, 0, 77, 0
1, 18840, Note_on_c, 0, 73, 49
1, 18840, Note_on_c, 0, 53, 33
1, 18900, Note_on_c, 0, 73, 0
1, 18960, Tempo, 510595
1, 18960, Note_on_c, 0, 53, 0
1, 18960, Note_on_c, 0, 82, 0
1, 18960, Note_on_c, 0, 65, 31
1, 18960, Note_on_c, 0, 58, 31
1, 19080, Note_on_c, 0, 58, 0
1, 19080, Note_on_c, 0, 65, 0
1, 19080, Note_on_c, 0, 53, 31
1, 19200, Tempo, 498422
1, 19200, Note_on_c, 0, 53, 0
1, 19200, Note_on_c, 0, 85, 82
1, 19200, Note_on_c, 0, 73, 69
1, 19200, Note_on_c, 0, 52, 56
1, 19211, Control_c, 0, 64, 0
1, 19251, Control_c, 0, 64, 127
1, 19320, Note_on_c, 0, 52, 0
1, 19320, Note_on_c, 0, 73, 0
1, 19320, Note_on_c, 0, 85, 0
1, 19320, Note_on_c, 0, 84, 75
1, 19320, Note_on_c, 0, 79, 63
1, 19320, Note_on_c, 0, 61, 53
1, 19380, Note_on_c, 0, 79, 0
1, 19380, Note_on_c, 0, 84, 0
1, 19440, Tempo, 505689
1, 19440, Note_on_c, 0, 61, 0
1, 19440, Note_on_c, 0, 67, 50
1, 19560, Note_on_c, 0, 67, 0
1, 19560, Note_on_c, 0, 73, 61
1, 19560, Note_on_c, 0, 82, 72
1, 19560, Note_on_c, 0, 52, 51
1, 19680, Tempo, 491441
1, 19680, Note_on_c, 0, 52, 0
1, 19680, Note_on_c, 0, 82, 0
1, 19680, Note_on_c, 0, 73, 0
1, 19680, Note_on_c, 0, 81, 78
1, 19680, Note_on_c, 0, 77, 64
1, 19680, Note_on_c, 0, 53, 56
1, 19698, Control_c, 0, 64, 0
1, 19743, Control_c, 0, 64, 127
1, 19800, Note_on_c, 0, 53, 0
1, 19800, Note_on_c, 0, 77, 0
1, 19800, Note_on_c, 0, 81, 0
1, 19800, Note_on_c, 0, 72, 57
1, 19800, Note_on_c, 0, 84, 68
1, 19800, Note_on_c, 0, 60, 52
1, 19860, Note_on_c, 0, 84, 0
1, 19860, Note_on_c, 0, 72, 0
1, 19920, Tempo, 510595
1, 19920, Note_on_c, 0, 60, 0
1, 19920, Note_on_c, 0, 69, 58
1, 20040, Note_on_c, 0, 69, 0
1, 20040, Note_on_c, 0, 53, 51
1, 20160, Tempo, 498422
1, 20160, Note_on_c, 0, 53, 0
1, 20160, Note_on_c, 0, 66, 46
1, 20160, Note_on_c, 0, 78, 55
1, 20160, Note_on_c, 0, 45, 33
1, 20170, Control_c, 0, 64, 0
1, 20211, Control_c, 0, 64, 127
1, 20280, Note_on_c, 0, 45, 0
1, 20280, Note_on_c, 0, 78, 0
1, 20280, Note_on_c, 0, 66, 0
1, 20280, Note_on_c, 0, 72, 42
1, 20280, Note_on_c, 0, 77, 50
1, 20280, Note_on_c, 0, 54, 30
1, 20340, Note_on_c, 0, 77, 0
1, 20340, Note_on_c, 0, 72, 0
1, 20400, Tempo, 510595
1, 20400, Note_on_c, 0, 54, 0
1, 20400, Note_on_c, 0, 63, 29
1, 20520, Note_on_c, 0, 63, 0
1, 20520, Note_on_c, 0, 66, 40
1, 20520, Note_on_c, 0, 75, 49
1, 20520, Note_on_c, 0, 45, 29
1, 20640, Tempo, 491441
1, 20640, Note_on_c, 0, 45, 0
1, 20640, Note_on_c, 0, 75, 0
1, 20640, Note_on_c, 0, 66, 0
1, 20640, Note_on_c, 0, 73, 52
1, 20640, Note_on_c, 0, 70, 44
1, 20640, Note_on_c, 0, 46, 33
1, 20658, Control_c, 0, 64, 0
1, 20703, Control_c, 0, 64, 127
1, 20760, Note_on_c, 0, 46, 0
1, 20760, Note_on_c, 0, 70, 0
1, 20760, Note_on_c, 0, 73, 0
1, 20760, Note_on_c, 0, 65, 40
1, 20760, Note_on_c, 0, 77, 49
1, 20760, Note_on_c, 0, 53, 30
1, 20820, Note_on_c, 0, 77, 0
1, 20820, Note_on_c, 0, 65, 0
1, 20880, Tempo, 510595
1, 20880, Note_on_c, 0, 53, 0
1, 20880, Note_on_c, 0, 61, 29
1, 21000, Note_on_c, 0, 61, 0
1, 21000, Note_on_c, 0, 46, 29
1, 21120, Tempo, 498422
1, 21120, Note_on_c, 0, 46, 0
1, 21120, Note_on_c, 0, 73, 69
1, 21120, Note_on_c, 0, 85, 82
1, 21120, Note_on_c, 0, 52, 56
1, 21130, Control_c, 0, 64, 0
1, 21171, Control_c, 0, 64, 127
1, 21240, Note_on_c, 0, 52, 0
1, 21240, Note_on_c, 0, 85, 0
1, 21240, Note_on_c, 0, 73, 0
1, 21240, Note_on_c, 0, 84, 75
1, 21240, Note_on_c, 0, 79, 63
1, 21240, Note_on_c, 0, 61, 53
1, 21300, Note_on_c, 0, 79, 0
1, 21300, Note_on_c, 0, 84, 0
1, 21360, Tempo, 510595
1, 21360, Note_on_c, 0, 61, 0
1, 21360, Note_on_c, 0, 67, 50
1, 21480, Note_on_c, 0, 67, 0
1, 21480, Note_on_c, 0, 73, 61
1, 21480, Note_on_c, 0, 82, 72
1, 21480, Note_on_c, 0, 52, 51
1, 21600, Tempo, 491441
1, 21600, Note_on_c, 0, 52, 0
1, 21600, Note_on_c, 0, 82, 0
1, 21600, Note_on_c, 0, 73, 0
1, 21600, Note_on_c, 0, 77, 64
1, 21600, Note_on_c, 0, 81, 78
1, 21600, Note_on_c, 0, 53, 56
1, 21619, Control_c, 0, 64, 0
1, 21663, Control_c, 0, 64, 127
1, 21720, Note_on_c, 0, 53, 0
1, 21720, Note_on_c, 0, 81, 0
1, 21720, Note_on_c, 0, 77, 0
1, 21720, Note_on_c, 0, 72, 57
1, 21720, Note_on_c, 0, 84, 68
1, 21720, Note_on_c, 0, 60, 52
1, 21780, Note_on_c, 0, 84, 0
1, 21780, Note_on_c, 0, 72, 0
1, 21840, Tempo, 510595
1, 21840, Note_on_c, 0, 60, 0
1, 21840, Note_on_c, 0, 69, 58
1, 21960, Note_on_c, 0, 69, 0
1, 21960, Note_on_c, 0, 53, 51
1, 22080, Tempo, 498422
1, 22080, Note_on_c, 0, 53, 0
1, 22080, Note_on_c, 0, 66, 46
1, 22080, Note_on_c, 0, 78, 55
1, 22080, Note_on_c, 0, 45, 33
1, 22090, Control_c, 0, 64, 0
1, 22131, Control_c, 0, 64, 127
1, 22200, Note_on_c, 0, 45, 0
1, 22200, Note_on_c, 0, 78, 0
1, 22200, Note_on_c, 0, 66, 0
1, 22200, Note_on_c, 0, 77, 50
1, 22200, Note_on_c, 0, 72, 42
1, 22200, Note_on_c, 0, 54, 30
1, 22260, Note_on_c, 0, 72, 0
1, 22260, Note_on_c, 0, 77, 0
1, 22320, Tempo, 510595
1, 22320, Note_on_c, 0, 54, 0
1, 22320, Note_on_c, 0, 63, 29
1, 22440, Note_on_c, 0, 63, 0
1, 22440, Note_on_c, 0, 66, 40
1, 22440, Note_on_c, 0, 75, 49
1, 22440, Note_on_c, 0, 45, 29
1, 22560, Tempo, 491441
1, 22560, Note_on_c, 0, 45, 0
1, 22560, Note_on_c, 0, 75, 0
1, 22560, Note_on_c, 0, 66, 0
1, 22560, Note_on_c, 0, 74, 52
1, 22560, Note_on_c, 0, 70, 44
1, 22560, Note_on_c, 0, 46, 33
1, 22577, Control_c, 0, 64, 0
1, 22623, Control_c, 0, 64, 127
1, 22680, Note_on_c, 0, 46, 0
1, 22680, Note_on_c, 0, 70, 0
1, 22680, Note_on_c, 0, 74, 0
1, 22680, Note_on_c, 0, 77, 49
1, 22680, Note_on_c, 0, 73, 40
1, 22680, Note_on_c, 0, 65, 40
1, 22680, Note_on_c, 0, 53, 30
1, 22740, Note_on_c, 0, 65, 0
1, 22740, Note_on_c, 0, 77, 0
1, 22740, Note_on_c, 0, 73, 0
1, 22800, Tempo, 574163
1, 22800, Note_on_c, 0, 53, 0
1, 22800, Note_on_c, 0, 61, 29
1, 22920, Note_on_c, 0, 61, 0
1, 22920, Note_on_c, 0, 46, 29
1, 23040, Tempo, 521739
1, 23040, Note_on_c, 0, 46, 0
1, 23040, Note_on_c, 0, 82, 75
1, 23040, Note_on_c, 0, 77, 75
1, 23040, Note_on_c, 0, 89, 89
1, 23040, Note_on_c, 0, 43, 56
1, 23051, Control_c, 0, 64, 0
1, 23091, Control_c, 0, 64, 127
1, 23160, Note_on_c, 0, 43, 0
1, 23160, Note_on_c, 0, 82, 0
1, 23160, Note_on_c, 0, 77, 0
1, 23160, Note_on_c, 0, 89, 0
1, 23160, Note_on_c, 0, 88, 83
1, 23160, Note_on_c, 0, 76, 70
1, 23160, Note_on_c, 0, 48, 53
1, 23220, Note_on_c, 0, 76, 0
1, 23220, Note_on_c, 0, 88, 0
1, 23280, Tempo, 526316
1, 23280, Note_on_c, 0, 48, 0
1, 23280, Note_on_c, 0, 49, 50
1, 23400, Note_on_c, 0, 49, 0
1, 23400, Note_on_c, 0, 73, 62
1, 23400, Note_on_c, 0, 85, 72
1, 23400, Note_on_c, 0, 58, 49
1, 23520, Tempo, 506329
1, 23520, Note_on_c, 0, 58, 0
1, 23520, Note_on_c, 0, 85, 0
1, 23520, Note_on_c, 0, 73, 0
1, 23520, Note_on_c, 0, 76, 68
1, 23520, Note_on_c, 0, 84, 80
1, 23520, Note_on_c, 0, 72, 68
1, 23520, Note_on_c, 0, 43, 52
1, 23539, Control_c, 0, 64, 0
1, 23583, Control_c, 0, 64, 127
1, 23640, Note_on_c, 0, 43, 0
1, 23640, Note_on_c, 0, 76, 0
1, 23640, Note_on_c, 0, 84, 0
1, 23640, Note_on_c, 0, 72, 0
1, 23640, Note_on_c, 0, 82, 75
1, 23640, Note_on_c, 0, 70, 62
1, 23640, Note_on_c, 0, 48, 49
1, 23700, Note_on_c, 0, 70, 0
1, 23700, Note_on_c, 0, 82, 0
1, 23760, Tempo, 517241
1, 23760, Note_on_c, 0, 48, 0
1, 23760, Note_on_c, 0, 49, 49
1, 23880, Note_on_c, 0, 49, 0
1, 23880, Note_on_c, 0, 58, 49
1, 24000, Tempo, 498422
1, 24000, Note_on_c, 0, 58, 0
1, 24000, Note_on_c, 0, 70, 68
1, 24000, Note_on_c, 0, 82, 80
1, 24000, Note_on_c, 0, 43, 47
1, 24011, Control_c, 0, 64, 0
1, 24051, Control_c, 0, 64, 127
1, 24120, Note_on_c, 0, 43, 0
1, 24120, Note_on_c, 0, 82, 0
1, 24120, Note_on_c, 0, 70, 0
1, 24120, Note_on_c, 0, 80, 73
1, 24120, Note_on_c, 0, 76, 61
1, 24120, Note_on_c, 0, 48, 45
1, 24180, Note_on_c, 0, 76, 0
1, 24180, Note_on_c, 0, 80, 0
1, 24240, Tempo, 505689
1, 24240, Note_on_c, 0, 48, 0
1, 24240, Note_on_c, 0, 49, 42
1, 24360, Note_on_c, 0, 49, 0
1, 24360, Note_on_c, 0, 67, 57
1, 24360, Note_on_c, 0, 79, 68
1, 24360, Note_on_c, 0, 58, 44
1, 24480, Tempo, 491441
1, 24480, Note_on_c, 0, 58, 0
1, 24480, Note_on_c, 0, 79, 0
1, 24480, Note_on_c, 0, 67, 0
1, 24480, Note_on_c, 0, 75, 59
1, 24480, Note_on_c, 0, 78, 69
1, 24480, Note_on_c, 0, 45, 49
1, 24498, Control_c, 0, 64, 0
1, 24543, Control_c, 0, 64, 127
1, 24600, Note_on_c, 0, 45, 0
1, 24600, Note_on_c, 0, 78, 0
1, 24600, Note_on_c, 0, 75, 0
1, 24600, Note_on_c, 0, 66, 55
1, 24600, Note_on_c, 0, 72, 64
1, 24600, Note_on_c, 0, 50, 44
1, 24660, Note_on_c, 0, 72, 0
1, 24660, Note_on_c, 0, 66, 0
1, 24720, Tempo, 510595
1, 24720, Note_on_c, 0, 50, 0
1, 24720, Note_on_c, 0, 51, 46
1, 24840, Note_on_c, 0, 51, 0
1, 24840, Note_on_c, 0, 60, 44
1, 24960, Tempo, 498422
1, 24960, Note_on_c, 0, 60, 0
1, 24960, Note_on_c, 0, 68, 57
1, 24960, Note_on_c, 0, 80, 68
1, 24960, Note_on_c, 0, 47, 47
1, 24971, Control_c, 0, 64, 0
1, 25011, Control_c, 0, 64, 127
1, 25080, Note_on_c, 0, 47, 0
1, 25080, Note_on_c, 0, 80, 0
1, 25080, Note_on_c, 0, 68, 0
1, 25080, Note_on_c, 0, 74, 52
1, 25080, Note_on_c, 0, 79, 62
1, 25080, Note_on_c, 0, 52, 45
1, 25140, Note_on_c, 0, 79, 0
1, 25140, Note_on_c, 0, 74, 0
1, 25200, Tempo, 503229
1, 25200, Note_on_c, 0, 52, 0
1, 25200, Note_on_c, 0, 53, 42
1, 25320, Note_on_c, 0, 53, 0
1, 25320, Note_on_c, 0, 65, 51
1, 25320, Note_on_c, 0, 77, 61
1, 25320, Note_on_c, 0, 62, 44
1, 25440, Tempo, 491441
1, 25440, Note_on_c, 0, 62, 0
1, 25440, Note_on_c, 0, 77, 0
1, 25440, Note_on_c, 0, 65, 0
1, 25440, Note_on_c, 0, 72, 53
1, 25440, Note_on_c, 0, 75, 63
1, 25440, Note_on_c, 0, 48, 49
1, 25457, Control_c, 0, 64, 0
1, 25503, Control_c, 0, 64, 127
1, 25560, Note_on_c, 0, 48, 0
1, 25560, Note_on_c, 0, 75, 0
1, 25560, Note_on_c, 0, 72, 0
1, 25560, Note_on_c, 0, 63, 44
1, 25560, Note_on_c, 0, 67, 52
1, 25560, Note_on_c, 0, 54, 39
1, 25620, Note_on_c, 0, 67, 0
1, 25620, Note_on_c, 0, 63, 0
1, 25680, Tempo, 510595
1, 25680, Note_on_c, 0, 54, 0
1, 25680, Note_on_c, 0, 55, 40
1, 25800, Note_on_c, 0, 55, 0
1, 25800, Note_on_c, 0, 63, 39
1, 25920, Tempo, 477973
1, 25920, Note_on_c, 0, 63, 0
1, 25920, Note_on_c, 0, 72, 57
1, 25920, Note_on_c, 0, 75, 67
1, 25920, Note_on_c, 0, 46, 52
1, 25935, Control_c, 0, 64, 0
1, 25971, Control_c, 0, 64, 127
1, 26040, Note_on_c, 0, 46, 0
1, 26040, Note_on_c, 0, 75, 0
1, 26040, Note_on_c, 0, 72, 0
1, 26040, Note_on_c, 0, 66, 59
1, 26040, Note_on_c, 0, 63, 49
1, 26040, Note_on_c, 0, 53, 45
1, 26100, Note_on_c, 0, 63, 0
1, 26100, Note_on_c, 0, 66, 0
1, 26160, Tempo, 508475
1, 26160, Note_on_c, 0, 53, 0
1, 26160, Note_on_c, 0, 54, 41
1, 26280, Note_on_c, 0, 54, 0
1, 26280, Note_on_c, 0, 63, 42
1, 26400, Tempo, 497925
1, 26400, Note_on_c, 0, 63, 0
1, 26400, Note_on_c, 0, 75, 62
1, 26400, Note_on_c, 0, 72, 53
1, 26400, Note_on_c, 0, 45, 52
1, 26418, Control_c, 0, 64, 0
1, 26463, Control_c, 0, 64, 127
1, 26520, Note_on_c, 0, 45, 0
1, 26520, Note_on_c, 0, 72, 0
1, 26520, Note_on_c, 0, 75, 0
1, 26520, Note_on_c, 0, 63, 46
1, 26520, Note_on_c, 0, 65, 56
1, 26520, Note_on_c, 0, 52, 41
1, 26580, Note_on_c, 0, 65, 0
1, 26580, Note_on_c, 0, 63, 0
1, 26640, Tempo, 558140
1, 26640, Note_on_c, 0, 52, 0
1, 26640, Note_on_c, 0, 53, 42
1, 26760, Note_on_c, 0, 53, 0
1, 26760, Note_on_c, 0, 63, 41
1, 26880, Tempo, 515021
1, 26880, Note_on_c, 0, 63, 0
1, 26880, Note_on_c, 0, 73, 68
1, 26880, Note_on_c, 0, 46, 51
1, 26880, Control_c, 0, 64, 0
1, 26890, Control_c, 0, 64, 0
1, 26951, Control_c, 0, 64, 127
1, 27000, Note_on_c, 0, 46, 0
1, 27000, Note_on_c, 0, 73, 0
1, 27000, Note_on_c, 0, 61, 40
1, 27000, Note_on_c, 0, 65, 40
1, 27000, Note_on_c, 0, 70, 59
1, 27000, Note_on_c, 0, 53, 44
1, 27120, Tempo, 521739
1, 27120, Note_on_c, 0, 53, 0
1, 27120, Note_on_c, 0, 61, 0
1, 27120, Note_on_c, 0, 65, 0
1, 27120, Note_on_c, 0, 70, 0
1, 27120, Note_on_c, 0, 58, 47
1, 27240, Note_on_c, 0, 58, 0
1, 27240, Note_on_c, 0, 72, 67
1, 27240, Note_on_c, 0, 41, 48
1, 27360, Tempo, 504202
1, 27360, Note_on_c, 0, 41, 0
1, 27360, Note_on_c, 0, 72, 0
1, 27360, Note_on_c, 0, 73, 68
1, 27360, Note_on_c, 0, 46, 51
1, 27371, Control_c, 0, 64, 0
1, 27410, Control_c, 0, 64, 127
1, 27480, Note_on_c, 0, 46, 0
1, 27480, Note_on_c, 0, 73, 0
1, 27480, Note_on_c, 0, 61, 40
1, 27480, Note_on_c, 0, 65, 40
1, 27480, Note_on_c, 0, 70, 60
1, 27480, Note_on_c, 0, 53, 43
1, 27600, Tempo, 519481
1, 27600, Note_on_c, 0, 53, 0
1, 27600, Note_on_c, 0, 61, 0
1, 27600, Note_on_c, 0, 65, 0
1, 27600, Note_on_c, 0, 70, 0
1, 27600, Note_on_c, 0, 58, 48
1, 27720, Note_on_c, 0, 58, 0
1, 27720, Note_on_c, 0, 41, 48
1, 27840, Tempo, 497925
1, 27840, Note_on_c, 0, 41, 0
1, 27840, Note_on_c, 0, 73, 68
1, 27840, Note_on_c, 0, 46, 51
1, 27854, Control_c, 0, 64, 0
1, 27918, Control_c, 0, 64, 127
1, 27960, Note_on_c, 0, 46, 0
1, 27960, Note_on_c, 0, 73, 0
1, 27960, Note_on_c, 0, 65, 40
1, 27960, Note_on_c, 0, 61, 40
1, 27960, Note_on_c, 0, 70, 60
1, 27960, Note_on_c, 0, 53, 44
1, 28080, Tempo, 512821
1, 28080, Note_on_c, 0, 53, 0
1, 28080, Note_on_c, 0, 65, 0
1, 28080, Note_on_c, 0, 61, 0
1, 28080, Note_on_c, 0, 70, 0
1, 28080, Note_on_c, 0, 58, 48
1, 28200, Note_on_c, 0, 58, 0
1, 28200, Note_on_c, 0, 72, 68
1, 28200, Note_on_c, 0, 41, 48
1, 28320, Tempo, 504202
1, 28320, Note_on_c, 0, 41, 0
1, 28320, Note_on_c, 0, 72, 0
1, 28320, Note_on_c, 0, 73, 68
1, 28320, Note_on_c, 0, 46, 51
1, 28337, Control_c, 0, 64, 0
1, 28405, Control_c, 0, 64, 127
1, 28440, Note_on_c, 0, 46, 0
1, 28440, Note_on_c, 0, 73, 0
1, 28440, Note_on_c, 0, 61, 40
1, 28440, Note_on_c, 0, 65, 40
1, 28440, Note_on_c, 0, 70, 60
1, 28440, Note_on_c, 0, 53, 43
1, 28560, Tempo, 512821
1, 28560, Note_on_c, 0, 53, 0
1, 28560, Note_on_c, 0, 61, 0
1, 28560, Note_on_c, 0, 65, 0
1, 28560, Note_on_c, 0, 70, 0
1, 28560, Note_on_c, 0, 58, 48
1, 28680, Note_on_c, 0, 58, 0
1, 28680, Note_on_c, 0, 41, 48
1, 28800, Tempo, 500000
1, 28800, Note_on_c, 0, 41, 0
1, 28800, Note_on_c, 0, 73, 68
1, 28800, Note_on_c, 0, 46, 51
1, 28813, Control_c, 0, 64, 0
1, 28856, Control_c, 0, 64, 127
1, 28920, Note_on_c, 0, 46, 0
1, 28920, Note_on_c, 0, 73, 0
1, 28920, Note_on_c, 0, 61, 46
1, 28920, Note_on_c, 0, 65, 46
1, 28920, Note_on_c, 0, 70, 67
1, 28920, Note_on_c, 0, 53, 49
1, 29040, Tempo, 512821
1, 29040, Note_on_c, 0, 53, 0
1, 29040, Note_on_c, 0, 61, 0
1, 29040, Note_on_c, 0, 65, 0
1, 29040, Note_on_c, 0, 70, 0
1, 29040, Note_on_c, 0, 58, 48
1, 29160, Note_on_c, 0, 58, 0
1, 29160, Note_on_c, 0, 72, 73
1, 29160, Note_on_c, 0, 41, 49
1, 29280, Tempo, 497925
1, 29280, Note_on_c, 0, 41, 0
1, 29280, Note_on_c, 0, 72, 0
1, 29280, Note_on_c, 0, 73, 84
1, 29280, Note_on_c, 0, 46, 54
1, 29297, Control_c, 0, 64, 0
1, 29372, Control_c, 0, 64, 127
1, 29400, Note_on_c, 0, 46, 0
1, 29400, Note_on_c, 0, 73, 0
1, 29400, Note_on_c, 0, 70, 52
1, 29400, Note_on_c, 0, 77, 52
1, 29400, Note_on_c, 0, 82, 76
1, 29400, Note_on_c, 0, 53, 51
1, 29520, Note_on_c, 0, 53, 0
1, 29520, Note_on_c, 0, 70, 0
1, 29520, Note_on_c, 0, 77, 0
1, 29520, Note_on_c, 0, 82, 0
1, 29520, Note_on_c, 0, 61, 50
1, 29521, Tempo, 513128
1, 29640, Note_on_c, 0, 61, 0
1, 29640, Note_on_c, 0, 49, 50
1, 29760, Note_on_c, 0, 49, 0
1, 29760, Note_on_c, 0, 81, 76
1, 29760, Note_on_c, 0, 48, 51
1, 29761, Tempo, 491441
1, 29772, Control_c, 0, 64, 0
1, 29811, Control_c, 0, 64, 127
1, 29880, Note_on_c, 0, 48, 0
1, 29880, Note_on_c, 0, 81, 0
1, 29880, Note_on_c, 0, 69, 46
1, 29880, Note_on_c, 0, 72, 67
1, 29880, Note_on_c, 0, 54, 44
1, 30000, Note_on_c, 0, 54, 0
1, 30000, Note_on_c, 0, 72, 0
1, 30000, Note_on_c, 0, 69, 0
1, 30000, Note_on_c, 0, 63, 47
1, 30001, Tempo, 498422
1, 30120, Note_on_c, 0, 63, 0
1, 30120, Note_on_c, 0, 73, 67
1, 30120, Note_on_c, 0, 48, 48
1, 30240, Note_on_c, 0, 48, 0
1, 30240, Note_on_c, 0, 73, 0
1, 30240, Note_on_c, 0, 75, 68
1, 30240, Note_on_c, 0, 54, 51
1, 30241, Tempo, 491441
1, 30254, Control_c, 0, 64, 0
1, 30297, Control_c, 0, 64, 127
1, 30360, Note_on_c, 0, 54, 0
1, 30360, Note_on_c, 0, 75, 0
1, 30360, Note_on_c, 0, 66, 40
1, 30360, Note_on_c, 0, 69, 40
1, 30360, Note_on_c, 0, 72, 60
1, 30360, Note_on_c, 0, 57, 43
1, 30480, Note_on_c, 0, 57, 0
1, 30480, Note_on_c, 0, 66, 0
1, 30480, Note_on_c, 0, 69, 0
1, 30480, Note_on_c, 0, 72, 0
1, 30480, Note_on_c, 0, 63, 48
1, 30481, Tempo, 498422
1, 30600, Note_on_c, 0, 63, 0
1, 30600, Note_on_c, 0, 48, 48
1, 30720, Note_on_c, 0, 48, 0
1, 30720, Note_on_c, 0, 78, 71
1, 30720, Note_on_c, 0, 51, 51
1, 30721, Tempo, 493746
1, 30733, Control_c, 0, 64, 0
1, 30771, Control_c, 0, 64, 127
1, 30840, Note_on_c, 0, 51, 0
1, 30840, Note_on_c, 0, 78, 0
1, 30840, Note_on_c, 0, 69, 40
1, 30840, Note_on_c, 0, 66, 40
1, 30840, Note_on_c, 0, 72, 59
1, 30840, Note_on_c, 0, 57, 44
1, 30960, Note_on_c, 0, 57, 0
1, 30960, Note_on_c, 0, 69, 0
1, 30960, Note_on_c, 0, 66, 0
1, 30960, Note_on_c, 0, 72, 0
1, 30960, Note_on_c, 0, 63, 47
1, 30961, Tempo, 498422
1, 31080, Note_on_c, 0, 63, 0
1, 31080, Note_on_c, 0, 73, 67
1, 31080, Note_on_c, 0, 48, 48
1, 31200, Note_on_c, 0, 48, 0
1, 31200, Note_on_c, 0, 73, 0
1, 31200, Note_on_c, 0, 75, 68
1, 31200, Note_on_c, 0, 54, 51
1, 31201, Tempo, 491441
1, 31210, Control_c, 0, 64, 0
1, 31246, Control_c, 0, 64, 127
1, 31320, Note_on_c, 0, 54, 0
1, 31320, Note_on_c, 0, 75, 0
1, 31320, Note_on_c, 0, 66, 40
1, 31320, Note_on_c, 0, 69, 40
1, 31320, Note_on_c, 0, 72, 60
1, 31320, Note_on_c, 0, 57, 43
1, 31440, Note_on_c, 0, 57, 0
1, 31440, Note_on_c, 0, 66, 0
1, 31440, Note_on_c, 0, 69, 0
1, 31440, Note_on_c, 0, 72, 0
1, 31440, Note_on_c, 0, 63, 48
1, 31441, Tempo, 498422
1, 31560, Note_on_c, 0, 63, 0
1, 31560, Note_on_c, 0, 48, 48
1, 31680, Note_on_c, 0, 48, 0
1, 31680, Note_on_c, 0, 78, 71
1, 31680, Note_on_c, 0, 51, 51
1, 31681, Tempo, 493746
1, 31695, Control_c, 0, 64, 0
1, 31731, Control_c, 0, 64, 127
1, 31800, Note_on_c, 0, 51, 0
1, 31800, Note_on_c, 0, 78, 0
1, 31800, Note_on_c, 0, 66, 40
1, 31800, Note_on_c, 0, 69, 40
1, 31800, Note_on_c, 0, 72, 59
1, 31800, Note_on_c, 0, 57, 44
1, 31920, Note_on_c, 0, 57, 0
1, 31920, Note_on_c, 0, 66, 0
1, 31920, Note_on_c, 0, 69, 0
1, 31920, Note_on_c, 0, 72, 0
1, 31920, Note_on_c, 0, 63, 47
1, 31921, Tempo, 498422
1, 32040, Note_on_c, 0, 63, 0
1, 32040, Note_on_c, 0, 73, 67
1, 32040, Note_on_c, 0, 48, 48
1, 32160, Note_on_c, 0, 48, 0
1, 32160, Note_on_c, 0, 73, 0
1, 32160, Note_on_c, 0, 75, 68
1, 32160, Note_on_c, 0, 54, 51
1, 32161, Tempo, 491441
1, 32172, Control_c, 0, 64, 0
1, 32210, Control_c, 0, 64, 127
1, 32280, Note_on_c, 0, 54, 0
1, 32280, Note_on_c, 0, 75, 0
1, 32280, Note_on_c, 0, 66, 40
1, 32280, Note_on_c, 0, 69, 40
1, 32280, Note_on_c, 0, 72, 60
1, 32280, Note_on_c, 0, 57, 43
1, 32400, Note_on_c, 0, 57, 0
1, 32400, Note_on_c, 0, 66, 0
1, 32400, Note_on_c, 0, 69, 0
1, 32400, Note_on_c, 0, 72, 0
1, 32400, Note_on_c, 0, 63, 48
1, 32401, Tempo, 498422
1, 32520, Note_on_c, 0, 63, 0
1, 32520, Note_on_c, 0, 48, 48
1, 32640, Note_on_c, 0, 48, 0
1, 32640, Note_on_c, 0, 78, 74
1, 32640, Note_on_c, 0, 51, 52
1, 32641, Tempo, 493746
1, 32652, Control_c, 0, 64, 0
1, 32691, Control_c, 0, 64, 127
1, 32760, Note_on_c, 0, 51, 0
1, 32760, Note_on_c, 0, 78, 0
1, 32760, Note_on_c, 0, 66, 42
1, 32760, Note_on_c, 0, 69, 42
1, 32760, Note_on_c, 0, 72, 63
1, 32760, Note_on_c, 0, 57, 46
1, 32880, Note_on_c, 0, 57, 0
1, 32880, Note_on_c, 0, 66, 0
1, 32880, Note_on_c, 0, 69, 0
1, 32880, Note_on_c, 0, 72, 0
1, 32880, Note_on_c, 0, 63, 50
1, 32881, Tempo, 498422
1, 33000, Note_on_c, 0, 63, 0
1, 33000, Note_on_c, 0, 73, 78
1, 33000, Note_on_c, 0, 48, 51
1, 33120, Note_on_c, 0, 48, 0
1, 33120, Note_on_c, 0, 73, 0
1, 33120, Note_on_c, 0, 75, 88
1, 33120, Note_on_c, 0, 54, 57
1, 33121, Tempo, 491441
1, 33131, Control_c, 0, 64, 0
1, 33166, Control_c, 0, 64, 127
1, 33240, Note_on_c, 0, 54, 0
1, 33240, Note_on_c, 0, 75, 0
1, 33240, Note_on_c, 0, 72, 54
1, 33240, Note_on_c, 0, 78, 54
1, 33240, Note_on_c, 0, 84, 78
1, 33240, Note_on_c, 0, 57, 54
1, 33360, Note_on_c, 0, 57, 0
1, 33360, Note_on_c, 0, 72, 0
1, 33360, Note_on_c, 0, 78, 0
1, 33360, Note_on_c, 0, 84, 0
1, 33360, Note_on_c, 0, 63, 54
1, 33361, Tempo, 510595
1, 33480, Note_on_c, 0, 63, 0
1, 33480, Note_on_c, 0, 48, 55
1, 33600, Note_on_c, 0, 48, 0
1, 33600, Note_on_c, 0, 84, 73
1, 33600, Note_on_c, 0, 49, 51
1, 33601, Tempo, 493746
1, 33614, Control_c, 0, 64, 0
1, 33651, Control_c, 0, 64, 127
1, 33720, Note_on_c, 0, 49, 0
1, 33720, Note_on_c, 0, 84, 0
1, 33720, Note_on_c, 0, 72, 50
1, 33720, Note_on_c, 0, 73, 72
1, 33720, Note_on_c, 0, 57, 50
1, 33840, Note_on_c, 0, 57, 0
1, 33840, Note_on_c, 0, 73, 0
1, 33840, Note_on_c, 0, 72, 0
1, 33840, Note_on_c, 0, 65, 47
1, 33841, Tempo, 498422
1, 33960, Note_on_c, 0, 65, 0
1, 33960, Note_on_c, 0, 75, 64
1, 33960, Note_on_c, 0, 53, 48
1, 34080, Note_on_c, 0, 53, 0
1, 34080, Note_on_c, 0, 75, 0
1, 34080, Note_on_c, 0, 77, 69
1, 34080, Note_on_c, 0, 58, 51
1, 34081, Tempo, 491441
1, 34094, Control_c, 0, 64, 0
1, 34131, Control_c, 0, 64, 127
1, 34200, Note_on_c, 0, 58, 0
1, 34200, Note_on_c, 0, 77, 0
1, 34200, Note_on_c, 0, 70, 44
1, 34200, Note_on_c, 0, 82, 69
1, 34200, Note_on_c, 0, 73, 44
1, 34200, Note_on_c, 0, 61, 49
1, 34320, Note_on_c, 0, 61, 0
1, 34320, Note_on_c, 0, 70, 0
1, 34320, Note_on_c, 0, 82, 0
1, 34320, Note_on_c, 0, 73, 0
1, 34320, Note_on_c, 0, 65, 48
1, 34321, Tempo, 510595
1, 34440, Note_on_c, 0, 65, 0
1, 34440, Note_on_c, 0, 49, 48
1, 34560, Tempo, 498422
1, 34560, Note_on_c, 0, 49, 0
1, 34560, Note_on_c, 0, 85, 85
1, 34560, Note_on_c, 0, 52, 61
1, 34573, Control_c, 0, 64, 0
1, 34611, Control_c, 0, 64, 127
1, 34680, Note_on_c, 0, 52, 0
1, 34680, Note_on_c, 0, 85, 0
1, 34680, Note_on_c, 0, 73, 71
1, 34680, Note_on_c, 0, 84, 84
1, 34680, Note_on_c, 0, 79, 71
1, 34680, Note_on_c, 0, 61, 59
1, 34800, Tempo, 505689
1, 34800, Note_on_c, 0, 61, 0
1, 34800, Note_on_c, 0, 73, 0
1, 34800, Note_on_c, 0, 84, 0
1, 34800, Note_on_c, 0, 79, 0
1, 34800, Note_on_c, 0, 67, 55
1, 34920, Note_on_c, 0, 67, 0
1, 34920, Note_on_c, 0, 82, 80
1, 34920, Note_on_c, 0, 52, 57
1, 35040, Tempo, 491441
1, 35040, Note_on_c, 0, 52, 0
1, 35040, Note_on_c, 0, 82, 0
1, 35040, Note_on_c, 0, 81, 86
1, 35040, Note_on_c, 0, 53, 61
1, 35058, Control_c, 0, 64, 0
1, 35103, Control_c, 0, 64, 127
1, 35160, Note_on_c, 0, 53, 0
1, 35160, Note_on_c, 0, 81, 0
1, 35160, Note_on_c, 0, 77, 67
1, 35160, Note_on_c, 0, 72, 67
1, 35160, Note_on_c, 0, 84, 80
1, 35160, Note_on_c, 0, 60, 58
1, 35280, Tempo, 510595
1, 35280, Note_on_c, 0, 60, 0
1, 35280, Note_on_c, 0, 77, 0
1, 35280, Note_on_c, 0, 72, 0
1, 35280, Note_on_c, 0, 84, 0
1, 35280, Note_on_c, 0, 69, 57
1, 35400, Note_on_c, 0, 69, 0
1, 35400, Note_on_c, 0, 53, 57
1, 35520, Tempo, 498422
1, 35520, Note_on_c, 0, 53, 0
1, 35520, Note_on_c, 0, 78, 67
1, 35520, Note_on_c, 0, 45, 48
1, 35534, Control_c, 0, 64, 0
1, 35571, Control_c, 0, 64, 127
1, 35640, Note_on_c, 0, 45, 0
1, 35640, Note_on_c, 0, 78, 0
1, 35640, Note_on_c, 0, 66, 55
1, 35640, Note_on_c, 0, 77, 66
1, 35640, Note_on_c, 0, 72, 55
1, 35640, Note_on_c, 0, 54, 44
1, 35760, Tempo, 510595
1, 35760, Note_on_c, 0, 54, 0
1, 35760, Note_on_c, 0, 66, 0
1, 35760, Note_on_c, 0, 77, 0
1, 35760, Note_on_c, 0, 72, 0
1, 35760, Note_on_c, 0, 63, 44
1, 35880, Note_on_c, 0, 63, 0
1, 35880, Note_on_c, 0, 75, 64
1, 35880, Note_on_c, 0, 45, 44
1, 36000, Tempo, 491441
1, 36000, Note_on_c, 0, 45, 0
1, 36000, Note_on_c, 0, 75, 0
1, 36000, Note_on_c, 0, 74, 69
1, 36000, Note_on_c, 0, 46, 48
1, 36017, Control_c, 0, 64, 0
1, 36063, Control_c, 0, 64, 127
1, 36120, Note_on_c, 0, 46, 0
1, 36120, Note_on_c, 0, 74, 0
1, 36120, Note_on_c, 0, 70, 53
1, 36120, Note_on_c, 0, 77, 64
1, 36120, Note_on_c, 0, 73, 53
1, 36120, Note_on_c, 0, 65, 53
1, 36120, Note_on_c, 0, 53, 44
1, 36240, Tempo, 510595
1, 36240, Note_on_c, 0, 53, 0
1, 36240, Note_on_c, 0, 73, 0
1, 36240, Note_on_c, 0, 70, 0
1, 36240, Note_on_c, 0, 77, 0
1, 36240, Note_on_c, 0, 65, 0
1, 36240, Note_on_c, 0, 61, 44
1, 36360, Note_on_c, 0, 61, 0
1, 36360, Note_on_c, 0, 46, 44
1, 36480, Tempo, 498422
1, 36480, Note_on_c, 0, 46, 0
1, 36480, Note_on_c, 0, 85, 85
1, 36480, Note_on_c, 0, 52, 61
1, 36491, Control_c, 0, 64, 0
1, 36531, Control_c, 0, 64, 127
1, 36600, Note_on_c, 0, 52, 0
1, 36600, Note_on_c, 0, 85, 0
1, 36600, Note_on_c, 0, 73, 71
1, 36600, Note_on_c, 0, 84, 84
1, 36600, Note_on_c, 0, 79, 71
1, 36600, Note_on_c, 0, 61, 59
1, 36720, Tempo, 510595
1, 36720, Note_on_c, 0, 61, 0
1, 36720, Note_on_c, 0, 73, 0
1, 36720, Note_on_c, 0, 84, 0
1, 36720, Note_on_c, 0, 79, 0
1, 36720, Note_on_c, 0, 67, 55
1, 36840, Note_on_c, 0, 67, 0
1, 36840, Note_on_c, 0, 82, 80
1, 36840, Note_on_c, 0, 52, 57
1, 36960, Tempo, 491441
1, 36960, Note_on_c, 0, 52, 0
1, 36960, Note_on_c, 0, 82, 0
1, 36960, Note_on_c, 0, 81, 86
1, 36960, Note_on_c, 0, 53, 61
1, 36979, Control_c, 0, 64, 0
1, 37023, Control_c, 0, 64, 127
1, 37080, Note_on_c, 0, 53, 0
1, 37080, Note_on_c, 0, 81, 0
1, 37080, Note_on_c, 0, 77, 67
1, 37080, Note_on_c, 0, 72, 67
1, 37080, Note_on_c, 0, 84, 80
1, 37080, Note_on_c, 0, 60, 58
1, 37200, Tempo, 510595
1, 37200, Note_on_c, 0, 60, 0
1, 37200, Note_on_c, 0, 77, 0
1, 37200, Note_on_c, 0, 72, 0
1, 37200, Note_on_c, 0, 84, 0
1, 37200, Note_on_c, 0, 69, 57
1, 37320, Note_on_c, 0, 69, 0
1, 37320, Note_on_c, 0, 53, 57
1, 37440, Tempo, 498422
1, 37440, Note_on_c, 0, 53, 0
1, 37440, Note_on_c, 0, 83, 84
1, 37440, Note_on_c, 0, 50, 61
1, 37453, Control_c, 0, 64, 0
1, 37491, Control_c, 0, 64, 127
1, 37560, Note_on_c, 0, 50, 0
1, 37560, Note_on_c, 0, 83, 0
1, 37560, Note_on_c, 0, 71, 65
1, 37560, Note_on_c, 0, 82, 77
1, 37560, Note_on_c, 0, 77, 65
1, 37560, Note_on_c, 0, 59, 58
1, 37680, Tempo, 510595
1, 37680, Note_on_c, 0, 59, 0
1, 37680, Note_on_c, 0, 71, 0
1, 37680, Note_on_c, 0, 82, 0
1, 37680, Note_on_c, 0, 77, 0
1, 37680, Note_on_c, 0, 65, 55
1, 37800, Note_on_c, 0, 65, 0
1, 37800, Note_on_c, 0, 80, 80
1, 37800, Note_on_c, 0, 50, 55
1, 37920, Tempo, 491441
1, 37920, Note_on_c, 0, 50, 0
1, 37920, Note_on_c, 0, 80, 0
1, 37920, Note_on_c, 0, 79, 86
1, 37920, Note_on_c, 0, 51, 61
1, 37938, Control_c, 0, 64, 0
1, 37983, Control_c, 0, 64, 127
1, 38040, Note_on_c, 0, 51, 0
1, 38040, Note_on_c, 0, 79, 0
1, 38040, Note_on_c, 0, 78, 63
1, 38040, Note_on_c, 0, 70, 63
1, 38040, Note_on_c, 0, 82, 75
1, 38040, Note_on_c, 0, 58, 57
1, 38160, Tempo, 615764
1, 38160, Note_on_c, 0, 58, 0
1, 38160, Note_on_c, 0, 78, 0
1, 38160, Note_on_c, 0, 70, 0
1, 38160, Note_on_c, 0, 82, 0
1, 38160, Note_on_c, 0, 66, 55
1, 38280, Note_on_c, 0, 66, 0
1, 38280, Note_on_c, 0, 51, 55
1, 38400, Tempo, 550459
1, 38400, Note_on_c, 0, 51, 0
1, 38400, Note_on_c, 0, 78, 83
1, 38400, Note_on_c, 0, 69, 83
1, 38400, Note_on_c, 0, 81, 99
1, 38400, Note_on_c, 0, 39, 69
1, 38410, Control_c, 0, 64, 0
1, 38464, Control_c, 0, 64, 127
1, 38520, Note_on_c, 0, 39, 0
1, 38520, Note_on_c, 0, 46, 59
1, 38640, Tempo, 519481
1, 38640, Note_on_c, 0, 46, 0
1, 38640, Note_on_c, 0, 81, 0
1, 38640, Note_on_c, 0, 69, 0
1, 38640, Note_on_c, 0, 70, 66
1, 38640, Note_on_c, 0, 82, 79
1, 38640, Note_on_c, 0, 58, 71
1, 38760, Note_on_c, 0, 58, 0
1, 38760, Note_on_c, 0, 46, 59
1, 38880, Tempo, 533333
1, 38880, Note_on_c, 0, 46, 0
1, 38880, Note_on_c, 0, 82, 0
1, 38880, Note_on_c, 0, 70, 0
1, 38880, Note_on_c, 0, 69, 75
1, 38880, Note_on_c, 0, 81, 89
1, 38880, Note_on_c, 0, 41, 69
1, 38891, Control_c, 0, 64, 0
1, 38958, Control_c, 0, 64, 127
1, 39000, Note_on_c, 0, 41, 0
1, 39000, Note_on_c, 0, 46, 59
1, 39120, Tempo, 517241
1, 39120, Note_on_c, 0, 46, 0
1, 39120, Note_on_c, 0, 81, 0
1, 39120, Note_on_c, 0, 69, 0
1, 39120, Note_on_c, 0, 78, 0
1, 39120, Note_on_c, 0, 82, 79
1, 39120, Note_on_c, 0, 70, 66
1, 39120, Note_on_c, 0, 77, 66
1, 39120, Note_on_c, 0, 58, 69
1, 39240, Note_on_c, 0, 58, 0
1, 39240, Note_on_c, 0, 46, 59
1, 39360, Tempo, 539811
1, 39360, Note_on_c, 0, 46, 0
1, 39360, Note_on_c, 0, 77, 0
1, 39360, Note_on_c, 0, 70, 0
1, 39360, Note_on_c, 0, 82, 0
1, 39360, Note_on_c, 0, 69, 78
1, 39360, Note_on_c, 0, 77, 78
1, 39360, Note_on_c, 0, 81, 92
1, 39360, Note_on_c, 0, 42, 69
1, 39377, Control_c, 0, 64, 0
1, 39435, Control_c, 0, 64, 127
1, 39480, Note_on_c, 0, 42, 0
1, 39480, Note_on_c, 0, 46, 59
1, 39600, Tempo, 542299
1, 39600, Note_on_c, 0, 46, 0
1, 39600, Note_on_c, 0, 81, 0
1, 39600, Note_on_c, 0, 77, 0
1, 39600, Note_on_c, 0, 69, 0
1, 39600, Note_on_c, 0, 75, 67
1, 39600, Note_on_c, 0, 70, 67
1, 39600, Note_on_c, 0, 82, 80
1, 39600, Note_on_c, 0, 58, 68
1, 39720, Note_on_c, 0, 58, 0
1, 39720, Note_on_c, 0, 46, 59
1, 39840, Tempo, 568236
1, 39840, Note_on_c, 0, 46, 0
1, 39840, Note_on_c, 0, 82, 0
1, 39840, Note_on_c, 0, 70, 0
1, 39840, Note_on_c, 0, 69, 74
1, 39840, Note_on_c, 0, 81, 89
1, 39840, Note_on_c, 0, 43, 68
1, 39857, Control_c, 0, 64, 0
1, 39931, Control_c, 0, 64, 127
1, 39960, Note_on_c, 0, 43, 0
1, 39960, Note_on_c, 0, 51, 59
1, 40080, Note_on_c, 0, 51, 0
1, 40080, Note_on_c, 0, 81, 0
1, 40080, Note_on_c, 0, 69, 0
1, 40080, Note_on_c, 0, 75, 0
1, 40080, Note_on_c, 0, 70, 67
1, 40080, Note_on_c, 0, 73, 67
1, 40080, Note_on_c, 0, 82, 80
1, 40080, Note_on_c, 0, 63, 68
1, 40200, Note_on_c, 0, 63, 0
1, 40200, Note_on_c, 0, 51, 59
1, 40320, Tempo, 565504
1, 40320, Note_on_c, 0, 51, 0
1, 40320, Note_on_c, 0, 82, 0
1, 40320, Note_on_c, 0, 73, 0
1, 40320, Note_on_c, 0, 70, 0
1, 40320, Note_on_c, 0, 66, 84
1, 40320, Note_on_c, 0, 61, 79
1, 40320, Note_on_c, 0, 73, 100
1, 40320, Note_on_c, 0, 44, 52
1, 40320, Note_on_c, 0, 51, 57
1, 40320, Note_on_c, 0, 58, 68
1, 40323, Control_c, 0, 64, 0
1, 40440, Note_on_c, 0, 58, 0
1, 40440, Note_on_c, 0, 61, 0
1, 40440, Note_on_c, 0, 73, 0
1, 40440, Note_on_c, 0, 66, 0
1, 40440, Note_on_c, 0, 51, 0
1, 40440, Note_on_c, 0, 44, 0
1, 40560, Note_on_c, 0, 60, 65
1, 40560, Note_on_c, 0, 66, 73
1, 40560, Note_on_c, 0, 72, 86
1, 40560, Note_on_c, 0, 44, 39
1, 40560, Note_on_c, 0, 51, 46
1, 40560, Note_on_c, 0, 56, 56
1, 40680, Note_on_c, 0, 56, 0
1, 40680, Note_on_c, 0, 66, 0
1, 40680, Note_on_c, 0, 72, 0
1, 40680, Note_on_c, 0, 60, 0
1, 40680, Note_on_c, 0, 51, 0
1, 40680, Note_on_c, 0, 44, 0
1, 41040, Tempo, 576480
1, 41040, Note_on_c, 0, 70, 66
1, 41040, Note_on_c, 0, 61, 56
1, 41040, Note_on_c, 0, 66, 58
1, 41040, Note_on_c, 0, 56, 56
1, 41040, Note_on_c, 0, 34, 38
1, 41040, Note_on_c, 0, 46, 46
1, 41280, Note_on_c, 0, 46, 0
1, 41280, Note_on_c, 0, 61, 0
1, 41280, Note_on_c, 0, 66, 0
1, 41280, Note_on_c, 0, 70, 0
1, 41280, Note_on_c, 0, 34, 0
1, 41280, Note_on_c, 0, 56, 0
1, 41280, Note_on_c, 0, 56, 58
1, 41280, Note_on_c, 0, 70, 68
1, 41280, Note_on_c, 0, 62, 58
1, 41280, Note_on_c, 0, 66, 56
1, 41280, Note_on_c, 0, 35, 41
1, 41280, Note_on_c, 0, 47, 49
1, 41322, Control_c, 0, 64, 127
1, 41760, Note_on_c, 0, 47, 0
1, 41760, Note_on_c, 0, 70, 0
1, 41760, Note_on_c, 0, 62, 0
1, 41760, Note_on_c, 0, 56, 0
1, 41760, Note_on_c, 0, 35, 0
1, 41760, Note_on_c, 0, 66, 0
1, 41760, Note_on_c, 0, 68, 62
1, 41760, Note_on_c, 0, 63, 53
1, 41760, Note_on_c, 0, 66, 62
1, 41760, Note_on_c, 0, 56, 53
1, 41760, Note_on_c, 0, 36, 39
1, 41760, Note_on_c, 0, 48, 46
1, 41775, Control_c, 0, 64, 0
1, 41859, Control_c, 0, 64, 127
1, 42120, Note_on_c, 0, 48, 0
1, 42120, Note_on_c, 0, 63, 0
1, 42120, Note_on_c, 0, 66, 0
1, 42120, Note_on_c, 0, 68, 0
1, 42120, Note_on_c, 0, 36, 0
1, 42120, Note_on_c, 0, 56, 0
1, 42120, Note_on_c, 0, 53, 49
1, 42128, Control_c, 0, 64, 0
1, 42240, Tempo, 635997
1, 42240, Note_on_c, 0, 53, 0
1, 42240, Note_on_c, 0, 53, 41
1, 42240, Note_on_c, 0, 61, 41
1, 42240, Note_on_c, 0, 68, 49
1, 42240, Note_on_c, 0, 37, 31
1, 42240, Note_on_c, 0, 49, 37
1, 42387, Control_c, 0, 64, 127
1, 43200, Note_on_c, 0, 37, 0
1, 43200, Note_on_c, 0, 68, 0
1, 43200, Note_on_c, 0, 53, 0
1, 43200, Note_on_c, 0, 61, 0
1, 43200, Note_on_c, 0, 56, 41
1, 43200, Note_on_c, 0, 61, 41
1, 43200, Note_on_c, 0, 65, 49
1, 43201, Tempo, 623895
1, 43206, Control_c, 0, 64, 0
1, 43307, Control_c, 0, 64, 127
1, 43680, Note_on_c, 0, 65, 0
1, 43680, Note_on_c, 0, 49, 0
1, 43680, Note_on_c, 0, 56, 0
1, 43680, Note_on_c, 0, 61, 0
1, 43680, Note_on_c, 0, 66, 44
1, 43680, Note_on_c, 0, 58, 37
1, 43680, Note_on_c, 0, 63, 37
1, 43680, Note_on_c, 0, 42, 39
1, 43702, Control_c, 0, 64, 0
1, 43853, Control_c, 0, 64, 127
1, 44160, Tempo, 639114
1, 44160, Note_on_c, 0, 42, 0
1, 44160, Note_on_c, 0, 66, 0
1, 44160, Note_on_c, 0, 58, 0
1, 44160, Note_on_c, 0, 63, 0
1, 44160, Note_on_c, 0, 54, 31
1, 44160, Note_on_c, 0, 60, 37
1, 44160, Note_on_c, 0, 65, 46
1, 44160, Note_on_c, 0, 44, 36
1, 44172, Control_c, 0, 64, 0
1, 44400, Control_c, 0, 64, 127
1, 45120, Note_on_c, 0, 65, 0
1, 45120, Note_on_c, 0, 63, 41
1, 45138, Control_c, 0, 64, 0
1, 45360, Note_on_c, 0, 44, 0
1, 45360, Note_on_c, 0, 45, 37
1, 45600, Note_on_c, 0, 45, 0
1, 45600, Note_on_c, 0, 46, 39
1, 45840, Tempo, 731975
1, 45840, Note_on_c, 0, 46, 0
1, 45840, Note_on_c, 0, 44, 37
1, 45960, Tempo, 635997
1, 45960, Note_on_c, 0, 53, 41
1, 46020, Note_on_c, 0, 61, 41
1, 46080, Tempo, 655093
1, 46080, Note_on_c, 0, 44, 0
1, 46080, Note_on_c, 0, 54, 0
1, 46080, Note_on_c, 0, 63, 0
1, 46080, Note_on_c, 0, 60, 0
1, 46080, Note_on_c, 0, 68, 49
1, 46080, Note_on_c, 0, 37, 33
1, 46227, Control_c, 0, 64, 127
1, 46560, Note_on_c, 0, 68, 0
1, 46560, Note_on_c, 0, 53, 0
1, 46560, Note_on_c, 0, 56, 41
1, 46560, Note_on_c, 0, 65, 49
1, 47040, Note_on_c, 0, 65, 0
1, 47040, Note_on_c, 0, 37, 0
1, 47040, Note_on_c, 0, 61, 0
1, 47040, Note_on_c, 0, 56, 0
1, 47040, Note_on_c, 0, 66, 49
1, 47040, Note_on_c, 0, 58, 41
1, 47040, Note_on_c, 0, 61, 41
1, 47040, Note_on_c, 0, 49, 39
1, 47041, Tempo, 623895
1, 47048, Control_c, 0, 64, 0
1, 47147, Control_c, 0, 64, 127
1, 47280, Tempo, 645439
1, 47280, Note_on_c, 0, 58, 0
1, 47280, Note_on_c, 0, 66, 0
1, 47280, Note_on_c, 0, 56, 39
1, 47280, Note_on_c, 0, 65, 47
1, 47520, Tempo, 623895
1, 47520, Note_on_c, 0, 65, 0
1, 47520, Note_on_c, 0, 49, 0
1, 47520, Note_on_c, 0, 61, 0
1, 47520, Note_on_c, 0, 56, 0
1, 47520, Note_on_c, 0, 63, 41
1, 47520, Note_on_c, 0, 60, 37
1, 47520, Note_on_c, 0, 68, 44
1, 47520, Note_on_c, 0, 42, 39
1, 47533, Control_c, 0, 64, 0
1, 47693, Control_c, 0, 64, 127
1, 47760, Tempo, 639114
1, 47760, Note_on_c, 0, 68, 0
1, 47760, Note_on_c, 0, 60, 0
1, 47760, Note_on_c, 0, 58, 35
1, 47760, Note_on_c, 0, 66, 41
1, 48000, Tempo, 639114
1, 48000, Note_on_c, 0, 66, 0
1, 48000, Note_on_c, 0, 42, 0
1, 48000, Note_on_c, 0, 63, 0
1, 48000, Note_on_c, 0, 58, 0
1, 48000, Note_on_c, 0, 54, 29
1, 48000, Note_on_c, 0, 60, 36
1, 48000, Note_on_c, 0, 65, 45
1, 48000, Note_on_c, 0, 44, 29
1, 48007, Control_c, 0, 64, 0
1, 48240, Control_c, 0, 64, 127
1, 48960, Tempo, 626894
1, 48960, Note_on_c, 0, 65, 0
1, 48960, Note_on_c, 0, 63, 41
1, 48980, Control_c, 0, 64, 0
1, 49200, Note_on_c, 0, 44, 0
1, 49200, Note_on_c, 0, 45, 37
1, 49440, Tempo, 639114
1, 49440, Note_on_c, 0, 45, 0
1, 49440, Note_on_c, 0, 48, 35
1, 49600, Note_on_c, 0, 48, 0
1, 49600, Note_on_c, 0, 46, 34
1, 49760, Note_on_c, 0, 46, 0
1, 49760, Note_on_c, 0, 44, 34
1, 49920, Note_on_c, 0, 44, 0
1, 49920, Note_on_c, 0, 54, 0
1, 49920, Note_on_c, 0, 60, 0
1, 49920, Note_on_c, 0, 63, 0
1, 49920, Note_on_c, 0, 68, 52
1, 49920, Note_on_c, 0, 61, 40
1, 49920, Note_on_c, 0, 53, 41
1, 49920, Note_on_c, 0, 37, 41
1, 50000, Control_c, 0, 64, 127
1, 50400, Note_on_c, 0, 37, 0
1, 50400, Note_on_c, 0, 53, 0
1, 50400, Note_on_c, 0, 68, 0
1, 50400, Note_on_c, 0, 64, 44
1, 50400, Note_on_c, 0, 70, 51
1, 50400, Note_on_c, 0, 55, 44
1, 50411, Control_c, 0, 64, 0
1, 50573, Control_c, 0, 64, 127
1, 50880, Note_on_c, 0, 55, 0
1, 50880, Note_on_c, 0, 61, 0
1, 50880, Note_on_c, 0, 64, 0
1, 50880, Note_on_c, 0, 70, 0
1, 50880, Note_on_c, 0, 63, 44
1, 50880, Note_on_c, 0, 72, 52
1, 50880, Note_on_c, 0, 44, 37
1, 50880, Note_on_c, 0, 54, 44
1, 50881, Tempo, 623895
1, 50898, Control_c, 0, 64, 0
1, 51035, Control_c, 0, 64, 127
1, 51360, Note_on_c, 0, 54, 0
1, 51360, Note_on_c, 0, 63, 0
1, 51360, Note_on_c, 0, 72, 0
1, 51360, Note_on_c, 0, 73, 58
1, 51360, Note_on_c, 0, 66, 49
1, 51360, Note_on_c, 0, 58, 44
1, 51377, Control_c, 0, 64, 0
1, 51480, Control_c, 0, 64, 127
1, 51720, Note_on_c, 0, 58, 0
1, 51720, Note_on_c, 0, 73, 0
1, 51720, Note_on_c, 0, 72, 53
1, 51720, Note_on_c, 0, 75, 60
1, 51720, Note_on_c, 0, 56, 49
1, 51840, Note_on_c, 0, 56, 0
1, 51840, Note_on_c, 0, 72, 0
1, 51840, Note_on_c, 0, 44, 0
1, 51840, Note_on_c, 0, 66, 0
1, 51840, Note_on_c, 0, 75, 0
1, 51840, Note_on_c, 0, 65, 42
1, 51840, Note_on_c, 0, 73, 47
1, 51840, Note_on_c, 0, 77, 61
1, 51840, Note_on_c, 0, 49, 39
1, 51840, Note_on_c, 0, 56, 42
1, 51840, Control_c, 0, 64, 0
1, 52000, Control_c, 0, 64, 127
1, 52320, Tempo, 655093
1, 52320, Note_on_c, 0, 56, 0
1, 52320, Note_on_c, 0, 77, 0
1, 52320, Note_on_c, 0, 65, 0
1, 52320, Note_on_c, 0, 73, 0
1, 52320, Note_on_c, 0, 49, 0
1, 52320, Note_on_c, 0, 64, 44
1, 52320, Note_on_c, 0, 61, 44
1, 52320, Note_on_c, 0, 70, 51
1, 52320, Note_on_c, 0, 55, 44
1, 52329, Control_c, 0, 64, 0
1, 52493, Control_c, 0, 64, 127
1, 52800, Note_on_c, 0, 55, 0
1, 52800, Note_on_c, 0, 64, 0
1, 52800, Note_on_c, 0, 61, 0
1, 52800, Note_on_c, 0, 70, 0
1, 52800, Note_on_c, 0, 60, 44
1, 52800, Note_on_c, 0, 63, 44
1, 52800, Note_on_c, 0, 72, 52
1, 52800, Note_on_c, 0, 44, 37
1, 52800, Note_on_c, 0, 54, 44
1, 52801, Tempo, 623895
1, 52814, Control_c, 0, 64, 0
1, 52874, Control_c, 0, 64, 127
1, 53220, Note_on_c, 0, 72, 0
1, 53220, Note_on_c, 0, 60, 0
1, 53220, Note_on_c, 0, 58, 56
1, 53280, Note_on_c, 0, 44, 0
1, 53280, Note_on_c, 0, 73, 58
1, 53280, Note_on_c, 0, 42, 37
1, 53280, Control_c, 0, 64, 0
1, 53337, Control_c, 0, 64, 127
1, 53520, Tempo, 652884
1, 53640, Note_on_c, 0, 73, 0
1, 53640, Note_on_c, 0, 75, 60
1, 53700, Note_on_c, 0, 42, 0
1, 53700, Note_on_c, 0, 41, 41
1, 53760, Note_on_c, 0, 63, 0
1, 53760, Note_on_c, 0, 75, 0
1, 53760, Note_on_c, 0, 58, 0
1, 53760, Note_on_c, 0, 54, 0
1, 53760, Note_on_c, 0, 65, 53
1, 53760, Note_on_c, 0, 72, 53
1, 53760, Note_on_c, 0, 77, 63
1, 53760, Note_on_c, 0, 57, 49
1, 53768, Control_c, 0, 64, 0
1, 53920, Control_c, 0, 64, 127
1, 54240, Note_on_c, 0, 57, 0
1, 54240, Note_on_c, 0, 65, 0
1, 54240, Note_on_c, 0, 41, 0
1, 54240, Note_on_c, 0, 77, 0
1, 54240, Note_on_c, 0, 75, 60
1, 54240, Note_on_c, 0, 65, 53
1, 54240, Note_on_c, 0, 33, 40
1, 54240, Note_on_c, 0, 45, 48
1, 54257, Control_c, 0, 64, 0
1, 54387, Control_c, 0, 64, 127
1, 54720, Note_on_c, 0, 45, 0
1, 54720, Note_on_c, 0, 75, 0
1, 54720, Note_on_c, 0, 72, 0
1, 54720, Note_on_c, 0, 33, 0
1, 54720, Note_on_c, 0, 61, 53
1, 54720, Note_on_c, 0, 70, 63
1, 54720, Note_on_c, 0, 73, 63
1, 54720, Note_on_c, 0, 34, 41
1, 54720, Note_on_c, 0, 46, 49
1, 54729, Control_c, 0, 64, 0
1, 54812, Control_c, 0, 64, 127
1, 55200, Tempo, 630054
1, 55200, Note_on_c, 0, 46, 0
1, 55200, Note_on_c, 0, 61, 0
1, 55200, Note_on_c, 0, 70, 0
1, 55200, Note_on_c, 0, 65, 0
1, 55200, Note_on_c, 0, 34, 0
1, 55200, Note_on_c, 0, 73, 0
1, 55200, Note_on_c, 0, 64, 53
1, 55200, Note_on_c, 0, 68, 53
1, 55200, Note_on_c, 0, 72, 63
1, 55200, Note_on_c, 0, 36, 41
1, 55200, Note_on_c, 0, 48, 49
1, 55217, Control_c, 0, 64, 0
1, 55313, Control_c, 0, 64, 127
1, 55560, Note_on_c, 0, 48, 0
1, 55560, Note_on_c, 0, 72, 0
1, 55560, Note_on_c, 0, 64, 0
1, 55560, Note_on_c, 0, 68, 0
1, 55560, Note_on_c, 0, 36, 0
1, 55560, Note_on_c, 0, 65, 57
1, 55560, Note_on_c, 0, 70, 57
1, 55560, Note_on_c, 0, 37, 37
1, 55560, Note_on_c, 0, 49, 45
1, 55680, Tempo, 639114
1, 55680, Note_on_c, 0, 49, 0
1, 55680, Note_on_c, 0, 65, 0
1, 55680, Note_on_c, 0, 70, 0
1, 55680, Note_on_c, 0, 37, 0
1, 55680, Note_on_c, 0, 59, 51
1, 55680, Note_on_c, 0, 65, 56
1, 55680, Note_on_c, 0, 68, 61
1, 55680, Note_on_c, 0, 38, 41
1, 55680, Note_on_c, 0, 50, 49
1, 55689, Control_c, 0, 64, 0
1, 55720, Tempo, 642880
1, 55814, Control_c, 0, 64, 127
1, 56160, Tempo, 630054
1, 56160, Note_on_c, 0, 50, 0
1, 56160, Note_on_c, 0, 68, 0
1, 56160, Note_on_c, 0, 59, 0
1, 56160, Note_on_c, 0, 65, 0
1, 56160, Note_on_c, 0, 38, 0
1, 56160, Note_on_c, 0, 63, 59
1, 56160, Note_on_c, 0, 54, 47
1, 56160, Note_on_c, 0, 58, 49
1, 56160, Note_on_c, 0, 66, 59
1, 56160, Note_on_c, 0, 39, 41
1, 56160, Note_on_c, 0, 51, 49
1, 56173, Control_c, 0, 64, 0
1, 56316, Control_c, 0, 64, 127
1, 56520, Note_on_c, 0, 51, 0
1, 56520, Note_on_c, 0, 54, 0
1, 56520, Note_on_c, 0, 58, 0
1, 56520, Note_on_c, 0, 63, 0
1, 56520, Note_on_c, 0, 39, 0
1, 56520, Note_on_c, 0, 66, 0
1, 56520, Note_on_c, 0, 56, 47
1, 56520, Note_on_c, 0, 61, 56
1, 56520, Note_on_c, 0, 65, 56
1, 56520, Note_on_c, 0, 41, 37
1, 56520, Note_on_c, 0, 53, 45
1, 56640, Note_on_c, 0, 53, 0
1, 56640, Note_on_c, 0, 65, 0
1, 56640, Note_on_c, 0, 56, 0
1, 56640, Note_on_c, 0, 61, 0
1, 56640, Note_on_c, 0, 41, 0
1, 56640, Note_on_c, 0, 63, 59
1, 56640, Note_on_c, 0, 58, 49
1, 56640, Note_on_c, 0, 61, 59
1, 56640, Note_on_c, 0, 42, 41
1, 56640, Note_on_c, 0, 54, 49
1, 56646, Control_c, 0, 64, 0
1, 56800, Control_c, 0, 64, 127
1, 57120, Tempo, 665115
1, 57120, Note_on_c, 0, 54, 0
1, 57120, Note_on_c, 0, 61, 0
1, 57120, Note_on_c, 0, 42, 0
1, 57120, Note_on_c, 0, 58, 0
1, 57120, Note_on_c, 0, 54, 47
1, 57120, Note_on_c, 0, 60, 53
1, 57120, Note_on_c, 0, 44, 45
1, 57134, Control_c, 0, 64, 0
1, 57291, Control_c, 0, 64, 127
1, 57360, Tempo, 700689
1, 57360, Note_on_c, 0, 63, 0
1, 57360, Note_on_c, 0, 64, 60
1, 57480, Note_on_c, 0, 64, 0
1, 57480, Note_on_c, 0, 54, 0
1, 57480, Note_on_c, 0, 60, 0
1, 57480, Note_on_c, 0, 65, 55
1, 57540, Note_on_c, 0, 73, 60
1, 57600, Tempo, 639114
1, 57600, Note_on_c, 0, 44, 0
1, 57600, Note_on_c, 0, 80, 72
1, 57600, Note_on_c, 0, 37, 39
1, 57612, Control_c, 0, 64, 0
1, 57697, Control_c, 0, 64, 127
1, 57760, Note_on_c, 0, 37, 0
1, 57760, Note_on_c, 0, 55, 33
1, 57920, Note_on_c, 0, 55, 0
1, 57920, Note_on_c, 0, 56, 31
1, 58080, Note_on_c, 0, 56, 0
1, 58080, Note_on_c, 0, 58, 37
1, 58240, Note_on_c, 0, 58, 0
1, 58240, Note_on_c, 0, 56, 31
1, 58400, Note_on_c, 0, 56, 0
1, 58400, Note_on_c, 0, 44, 31
1, 58560, Tempo, 623895
1, 58560, Note_on_c, 0, 44, 0
1, 58560, Note_on_c, 0, 80, 0
1, 58560, Note_on_c, 0, 73, 0
1, 58560, Note_on_c, 0, 65, 0
1, 58560, Note_on_c, 0, 68, 49
1, 58560, Note_on_c, 0, 73, 49
1, 58560, Note_on_c, 0, 77, 60
1, 58560, Note_on_c, 0, 49, 39
1, 58569, Control_c, 0, 64, 0
1, 58623, Control_c, 0, 64, 127
1, 58720, Note_on_c, 0, 49, 0
1, 58720, Note_on_c, 0, 55, 35
1, 58880, Note_on_c, 0, 55, 0
1, 58880, Note_on_c, 0, 56, 35
1, 59040, Tempo, 639114
1, 59040, Note_on_c, 0, 56, 0
1, 59040, Note_on_c, 0, 68, 0
1, 59040, Note_on_c, 0, 73, 0
1, 59040, Note_on_c, 0, 77, 0
1, 59040, Note_on_c, 0, 65, 34
1, 59040, Note_on_c, 0, 68, 39
1, 59040, Note_on_c, 0, 58, 37
1, 59200, Note_on_c, 0, 58, 0
1, 59200, Note_on_c, 0, 56, 33
1, 59280, Tempo, 665115
1, 59280, Note_on_c, 0, 68, 0
1, 59280, Note_on_c, 0, 65, 0
1, 59280, Note_on_c, 0, 70, 41
1, 59280, Note_on_c, 0, 75, 41
1, 59280, Note_on_c, 0, 78, 55
1, 59360, Note_on_c, 0, 56, 0
1, 59360, Note_on_c, 0, 44, 33
1, 59520, Tempo, 626894
1, 59520, Note_on_c, 0, 44, 0
1, 59520, Note_on_c, 0, 78, 0
1, 59520, Note_on_c, 0, 75, 0
1, 59520, Note_on_c, 0, 70, 0
1, 59520, Note_on_c, 0, 77, 65
1, 59520, Note_on_c, 0, 66, 38
1, 59520, Note_on_c, 0, 72, 45
1, 59520, Note_on_c, 0, 51, 39
1, 59530, Control_c, 0, 64, 0
1, 59595, Control_c, 0, 64, 127
1, 59680, Note_on_c, 0, 51, 0
1, 59680, Note_on_c, 0, 55, 35
1, 59840, Note_on_c, 0, 55, 0
1, 59840, Note_on_c, 0, 56, 35
1, 60000, Tempo, 639114
1, 60000, Note_on_c, 0, 56, 0
1, 60000, Note_on_c, 0, 58, 37
1, 60160, Note_on_c, 0, 58, 0
1, 60160, Note_on_c, 0, 56, 33
1, 60240, Note_on_c, 0, 77, 0
1, 60240, Note_on_c, 0, 75, 55
1, 60320, Note_on_c, 0, 56, 0
1, 60320, Note_on_c, 0, 44, 33
1, 60480, Tempo, 623895
1, 60480, Note_on_c, 0, 44, 0
1, 60480, Note_on_c, 0, 75, 0
1, 60480, Note_on_c, 0, 72, 0
1, 60480, Note_on_c, 0, 66, 0
1, 60480, Note_on_c, 0, 70, 58
1, 60480, Note_on_c, 0, 54, 39
1, 60489, Control_c, 0, 64, 0
1, 60537, Control_c, 0, 64, 127
1, 60640, Note_on_c, 0, 54, 0
1, 60640, Note_on_c, 0, 55, 35
1, 60720, Note_on_c, 0, 70, 0
1, 60720, Note_on_c, 0, 68, 52
1, 60800, Note_on_c, 0, 55, 0
1, 60800, Note_on_c, 0, 56, 35
1, 60960, Tempo, 642261
1, 60960, Note_on_c, 0, 56, 0
1, 60960, Note_on_c, 0, 68, 0
1, 60960, Note_on_c, 0, 61, 61
1, 60960, Note_on_c, 0, 58, 37
1, 61120, Note_on_c, 0, 58, 0
1, 61120, Note_on_c, 0, 56, 33
1, 61200, Tempo, 668449
1, 61200, Note_on_c, 0, 61, 0
1, 61200, Note_on_c, 0, 63, 55
1, 61280, Note_on_c, 0, 56, 0
1, 61280, Note_on_c, 0, 44, 33
1, 61320, Note_on_c, 0, 63, 0
1, 61320, Note_on_c, 0, 65, 62
1, 61440, Tempo, 639114
1, 61440, Note_on_c, 0, 65, 0
1, 61440, Note_on_c, 0, 44, 0
1, 61440, Note_on_c, 0, 65, 55
1, 61440, Note_on_c, 0, 73, 57
1, 61440, Note_on_c, 0, 80, 68
1, 61440, Note_on_c, 0, 49, 39
1, 61450, Control_c, 0, 64, 0
1, 61537, Control_c, 0, 64, 127
1, 61560, Note_on_c, 0, 49, 0
1, 61680, Note_on_c, 0, 55, 34
1, 61800, Note_on_c, 0, 55, 0
1, 61800, Note_on_c, 0, 56, 33
1, 61920, Note_on_c, 0, 56, 0
1, 61920, Note_on_c, 0, 80, 0
1, 61920, Note_on_c, 0, 65, 0
1, 61920, Note_on_c, 0, 68, 49
1, 61920, Note_on_c, 0, 77, 62
1, 61920, Note_on_c, 0, 58, 37
1, 62040, Note_on_c, 0, 58, 0
1, 62040, Note_on_c, 0, 56, 31
1, 62148, Note_on_c, 0, 56, 0
1, 62160, Note_on_c, 0, 56, 37
1, 62280, Note_on_c, 0, 56, 0
1, 62280, Note_on_c, 0, 44, 37
1, 62400, Tempo, 623895
1, 62400, Note_on_c, 0, 44, 0
1, 62400, Note_on_c, 0, 77, 0
1, 62400, Note_on_c, 0, 68, 0
1, 62400, Note_on_c, 0, 73, 0
1, 62400, Note_on_c, 0, 78, 66
1, 62400, Note_on_c, 0, 73, 57
1, 62400, Note_on_c, 0, 70, 55
1, 62400, Note_on_c, 0, 49, 39
1, 62408, Control_c, 0, 64, 0
1, 62457, Control_c, 0, 64, 127
1, 62520, Note_on_c, 0, 49, 0
1, 62640, Note_on_c, 0, 70, 0
1, 62640, Note_on_c, 0, 78, 0
1, 62640, Note_on_c, 0, 68, 46
1, 62640, Note_on_c, 0, 77, 55
1, 62640, Note_on_c, 0, 55, 35
1, 62760, Note_on_c, 0, 55, 0
1, 62760, Note_on_c, 0, 56, 35
1, 62880, Tempo, 639114
1, 62880, Note_on_c, 0, 56, 0
1, 62880, Note_on_c, 0, 77, 0
1, 62880, Note_on_c, 0, 68, 0
1, 62880, Note_on_c, 0, 73, 0
1, 62880, Note_on_c, 0, 68, 48
1, 62880, Note_on_c, 0, 77, 57
1, 62880, Note_on_c, 0, 58, 37
1, 63000, Note_on_c, 0, 58, 0
1, 63000, Note_on_c, 0, 56, 33
1, 63040, Note_on_c, 0, 77, 0
1, 63040, Note_on_c, 0, 68, 0
1, 63040, Note_on_c, 0, 72, 46
1, 63040, Note_on_c, 0, 80, 55
1, 63108, Note_on_c, 0, 56, 0
1, 63120, Note_on_c, 0, 56, 37
1, 63200, Note_on_c, 0, 80, 0
1, 63200, Note_on_c, 0, 72, 0
1, 63200, Note_on_c, 0, 70, 46
1, 63200, Note_on_c, 0, 78, 55
1, 63240, Note_on_c, 0, 56, 0
1, 63240, Note_on_c, 0, 44, 31
1, 63360, Tempo, 626894
1, 63360, Note_on_c, 0, 44, 0
1, 63360, Note_on_c, 0, 78, 0
1, 63360, Note_on_c, 0, 70, 0
1, 63360, Note_on_c, 0, 77, 61
1, 63360, Note_on_c, 0, 66, 32
1, 63360, Note_on_c, 0, 72, 38
1, 63360, Note_on_c, 0, 51, 39
1, 63369, Control_c, 0, 64, 0
1, 63457, Control_c, 0, 64, 127
1, 63480, Note_on_c, 0, 51, 0
1, 63600, Note_on_c, 0, 55, 35
1, 63720, Note_on_c, 0, 55, 0
1, 63720, Note_on_c, 0, 56, 35
1, 63840, Tempo, 639114
1, 63840, Note_on_c, 0, 56, 0
1, 63840, Note_on_c, 0, 58, 37
1, 63960, Note_on_c, 0, 58, 0
1, 63960, Note_on_c, 0, 56, 33
1, 64068, Note_on_c, 0, 56, 0
1, 64080, Note_on_c, 0, 77, 0
1, 64080, Note_on_c, 0, 75, 60
1, 64080, Note_on_c, 0, 56, 37
1, 64200, Note_on_c, 0, 56, 0
1, 64200, Note_on_c, 0, 44, 33
1, 64320, Tempo, 623895
1, 64320, Note_on_c, 0, 44, 0
1, 64320, Note_on_c, 0, 75, 0
1, 64320, Note_on_c, 0, 72, 0
1, 64320, Note_on_c, 0, 66, 0
1, 64320, Note_on_c, 0, 70, 60
1, 64320, Note_on_c, 0, 54, 39
1, 64329, Control_c, 0, 64, 0
1, 64377, Control_c, 0, 64, 127
1, 64480, Note_on_c, 0, 70, 0
1, 64480, Note_on_c, 0, 68, 51
1, 64560, Note_on_c, 0, 54, 0
1, 64560, Note_on_c, 0, 55, 35
1, 64640, Note_on_c, 0, 68, 0
1, 64640, Note_on_c, 0, 70, 51
1, 64680, Note_on_c, 0, 55, 0
1, 64680, Note_on_c, 0, 56, 35
1, 64800, Tempo, 642261
1, 64800, Note_on_c, 0, 56, 0
1, 64800, Note_on_c, 0, 70, 0
1, 64800, Note_on_c, 0, 68, 58
1, 64800, Note_on_c, 0, 58, 39
1, 64920, Note_on_c, 0, 58, 0
1, 64920, Note_on_c, 0, 56, 35
1, 64960, Note_on_c, 0, 68, 0
1, 64960, Note_on_c, 0, 61, 53
1, 65028, Note_on_c, 0, 56, 0
1, 65040, Tempo, 682439
1, 65040, Note_on_c, 0, 56, 39
1, 65120, Note_on_c, 0, 61, 0
1, 65120, Note_on_c, 0, 63, 53
1, 65160, Note_on_c, 0, 56, 0
1, 65160, Note_on_c, 0, 44, 35
1, 65280, Tempo, 642261
1, 65280, Note_on_c, 0, 44, 0
1, 65280, Note_on_c, 0, 63, 0
1, 65280, Note_on_c, 0, 68, 59
1, 65280, Note_on_c, 0, 73, 58
1, 65280, Note_on_c, 0, 80, 73
1, 65280, Note_on_c, 0, 49, 44
1, 65288, Control_c, 0, 64, 0
1, 65358, Control_c, 0, 64, 127
1, 65400, Note_on_c, 0, 49, 0
1, 65400, Note_on_c, 0, 56, 39
1, 65520, Note_on_c, 0, 56, 0
1, 65520, Note_on_c, 0, 58, 39
1, 65640, Note_on_c, 0, 58, 0
1, 65640, Note_on_c, 0, 56, 39
1, 65760, Tempo, 632978
1, 65760, Note_on_c, 0, 56, 0
1, 65760, Note_on_c, 0, 68, 0
1, 65760, Note_on_c, 0, 70, 57
1, 65760, Note_on_c, 0, 82, 68
1, 65760, Note_on_c, 0, 65, 44
1, 65880, Note_on_c, 0, 65, 0
1, 65880, Note_on_c, 0, 56, 40
1, 66000, Note_on_c, 0, 56, 0
1, 66000, Note_on_c, 0, 58, 40
1, 66120, Note_on_c, 0, 58, 0
1, 66120, Note_on_c, 0, 56, 41
1, 66240, Note_on_c, 0, 56, 0
1, 66240, Note_on_c, 0, 82, 0
1, 66240, Note_on_c, 0, 73, 0
1, 66240, Note_on_c, 0, 80, 0
1, 66240, Note_on_c, 0, 70, 0
1, 66240, Note_on_c, 0, 84, 73
1, 66240, Note_on_c, 0, 80, 61
1, 66240, Note_on_c, 0, 78, 61
1, 66240, Note_on_c, 0, 72, 61
1, 66240, Note_on_c, 0, 44, 45
1, 66253, Control_c, 0, 64, 0
1, 66309, Control_c, 0, 64, 127
1, 66360, Note_on_c, 0, 44, 0
1, 66360, Note_on_c, 0, 56, 40
1, 66480, Note_on_c, 0, 56, 0
1, 66480, Note_on_c, 0, 58, 41
1, 66600, Note_on_c, 0, 58, 0
1, 66600, Note_on_c, 0, 56, 41
1, 66720, Tempo, 623895
1, 66720, Note_on_c, 0, 56, 0
1, 66720, Note_on_c, 0, 72, 0
1, 66720, Note_on_c, 0, 84, 0
1, 66720, Note_on_c, 0, 73, 68
1, 66720, Note_on_c, 0, 85, 75
1, 66720, Note_on_c, 0, 66, 47
1, 66840, Note_on_c, 0, 66, 0
1, 66840, Note_on_c, 0, 56, 44
1, 66960, Note_on_c, 0, 56, 0
1, 66960, Note_on_c, 0, 58, 44
1, 67080, Tempo, 645439
1, 67080, Note_on_c, 0, 58, 0
1, 67080, Note_on_c, 0, 73, 0
1, 67080, Note_on_c, 0, 85, 0
1, 67080, Note_on_c, 0, 75, 70
1, 67080, Note_on_c, 0, 87, 73
1, 67080, Note_on_c, 0, 56, 44
1, 67200, Tempo, 632978
1, 67200, Note_on_c, 0, 56, 0
1, 67200, Note_on_c, 0, 75, 0
1, 67200, Note_on_c, 0, 80, 0
1, 67200, Note_on_c, 0, 78, 0
1, 67200, Note_on_c, 0, 87, 0
1, 67200, Note_on_c, 0, 80, 66
1, 67200, Note_on_c, 0, 77, 66
1, 67200, Note_on_c, 0, 89, 78
1, 67200, Note_on_c, 0, 49, 48
1, 67215, Control_c, 0, 64, 0
1, 67265, Control_c, 0, 64, 127
1, 67320, Note_on_c, 0, 49, 0
1, 67320, Note_on_c, 0, 56, 42
1, 67440, Note_on_c, 0, 56, 0
1, 67440, Note_on_c, 0, 58, 42
1, 67560, Note_on_c, 0, 58, 0
1, 67560, Note_on_c, 0, 56, 42
1, 67680, Note_on_c, 0, 56, 0
1, 67680, Note_on_c, 0, 89, 0
1, 67680, Note_on_c, 0, 82, 73
1, 67680, Note_on_c, 0, 70, 61
1, 67680, Note_on_c, 0, 65, 49
1, 67800, Note_on_c, 0, 65, 0
1, 67800, Note_on_c, 0, 56, 46
1, 67920, Note_on_c, 0, 56, 0
1, 67920, Note_on_c, 0, 58, 46
1, 68040, Note_on_c, 0, 58, 0
1, 68040, Note_on_c, 0, 56, 46
1, 68160, Note_on_c, 0, 56, 0
1, 68160, Note_on_c, 0, 70, 0
1, 68160, Note_on_c, 0, 80, 0
1, 68160, Note_on_c, 0, 77, 0
1, 68160, Note_on_c, 0, 82, 0
1, 68160, Note_on_c, 0, 78, 66
1, 68160, Note_on_c, 0, 80, 66
1, 68160, Note_on_c, 0, 72, 66
1, 68160, Note_on_c, 0, 84, 78
1, 68160, Note_on_c, 0, 44, 50
1, 68170, Control_c, 0, 64, 0
1, 68238, Control_c, 0, 64, 127
1, 68280, Note_on_c, 0, 44, 0
1, 68280, Note_on_c, 0, 56, 46
1, 68400, Note_on_c, 0, 56, 0
1, 68400, Note_on_c, 0, 58, 46
1, 68520, Note_on_c, 0, 58, 0
1, 68520, Note_on_c, 0, 56, 46
1, 68640, Note_on_c, 0, 56, 0
1, 68640, Note_on_c, 0, 84, 0
1, 68640, Note_on_c, 0, 78, 0
1, 68640, Note_on_c, 0, 80, 0
1, 68640, Note_on_c, 0, 72, 0
1, 68640, Note_on_c, 0, 73, 66
1, 68640, Note_on_c, 0, 85, 79
1, 68640, Note_on_c, 0, 66, 52
1, 68760, Note_on_c, 0, 66, 0
1, 68760, Note_on_c, 0, 56, 49
1, 68880, Tempo, 648649
1, 68880, Note_on_c, 0, 56, 0
1, 68880, Note_on_c, 0, 58, 49
1, 69000, Note_on_c, 0, 58, 0
1, 69000, Note_on_c, 0, 85, 0
1, 69000, Note_on_c, 0, 73, 0
1, 69000, Note_on_c, 0, 75, 64
1, 69000, Note_on_c, 0, 87, 77
1, 69000, Note_on_c, 0, 56, 49
1, 69120, Note_on_c, 0, 56, 0
1, 69120, Note_on_c, 0, 87, 0
1, 69120, Note_on_c, 0, 75, 0
1, 69120, Note_on_c, 0, 84, 66
1, 69120, Note_on_c, 0, 87, 74
1, 69120, Note_on_c, 0, 77, 70
1, 69120, Note_on_c, 0, 89, 81
1, 69120, Note_on_c, 0, 45, 57
1, 69136, Control_c, 0, 64, 0
1, 69223, Control_c, 0, 64, 127
1, 69240, Note_on_c, 0, 45, 0
1, 69240, Note_on_c, 0, 52, 51
1, 69360, Note_on_c, 0, 52, 0
1, 69360, Note_on_c, 0, 53, 51
1, 69480, Note_on_c, 0, 53, 0
1, 69480, Note_on_c, 0, 60, 51
1, 69600, Tempo, 635997
1, 69600, Note_on_c, 0, 60, 0
1, 69600, Note_on_c, 0, 89, 0
1, 69600, Note_on_c, 0, 77, 0
1, 69600, Note_on_c, 0, 78, 66
1, 69600, Note_on_c, 0, 90, 78
1, 69600, Note_on_c, 0, 57, 58
1, 69720, Note_on_c, 0, 57, 0
1, 69720, Note_on_c, 0, 64, 53
1, 69840, Note_on_c, 0, 64, 0
1, 69840, Note_on_c, 0, 65, 53
1, 69960, Note_on_c, 0, 65, 0
1, 69960, Note_on_c, 0, 72, 53
1, 70080, Tempo, 626894
1, 70080, Note_on_c, 0, 72, 0
1, 70080, Note_on_c, 0, 87, 0
1, 70080, Note_on_c, 0, 84, 0
1, 70080, Note_on_c, 0, 82, 74
1, 70080, Note_on_c, 0, 85, 74
1, 70080, Note_on_c, 0, 46, 59
1, 70090, Control_c, 0, 64, 0
1, 70154, Control_c, 0, 64, 127
1, 70200, Note_on_c, 0, 46, 0
1, 70200, Note_on_c, 0, 52, 52
1, 70320, Tempo, 645439
1, 70320, Note_on_c, 0, 52, 0
1, 70320, Note_on_c, 0, 78, 0
1, 70320, Note_on_c, 0, 90, 0
1, 70320, Note_on_c, 0, 89, 77
1, 70320, Note_on_c, 0, 77, 64
1, 70320, Note_on_c, 0, 53, 52
1, 70440, Note_on_c, 0, 53, 0
1, 70440, Note_on_c, 0, 61, 53
1, 70560, Note_on_c, 0, 61, 0
1, 70560, Note_on_c, 0, 77, 0
1, 70560, Note_on_c, 0, 89, 0
1, 70560, Note_on_c, 0, 76, 63
1, 70560, Note_on_c, 0, 88, 75
1, 70560, Note_on_c, 0, 58, 60
1, 70680, Note_on_c, 0, 58, 0
1, 70680, Note_on_c, 0, 64, 55
1, 70800, Note_on_c, 0, 64, 0
1, 70800, Note_on_c, 0, 88, 0
1, 70800, Note_on_c, 0, 76, 0
1, 70800, Note_on_c, 0, 77, 63
1, 70800, Note_on_c, 0, 89, 75
1, 70800, Note_on_c, 0, 65, 55
1, 70920, Note_on_c, 0, 65, 0
1, 70920, Note_on_c, 0, 73, 56
1, 71040, Note_on_c, 0, 73, 0
1, 71040, Note_on_c, 0, 89, 0
1, 71040, Note_on_c, 0, 85, 0
1, 71040, Note_on_c, 0, 82, 0
1, 71040, Note_on_c, 0, 77, 0
1, 71040, Note_on_c, 0, 80, 72
1, 71040, Note_on_c, 0, 90, 71
1, 71040, Note_on_c, 0, 92, 85
1, 71040, Note_on_c, 0, 87, 57
1, 71040, Note_on_c, 0, 48, 61
1, 71053, Control_c, 0, 64, 0
1, 71097, Control_c, 0, 64, 127
1, 71160, Note_on_c, 0, 48, 0
1, 71160, Note_on_c, 0, 55, 55
1, 71280, Note_on_c, 0, 55, 0
1, 71280, Note_on_c, 0, 56, 55
1, 71400, Note_on_c, 0, 56, 0
1, 71400, Note_on_c, 0, 63, 55
1, 71520, Tempo, 632978
1, 71520, Note_on_c, 0, 63, 0
1, 71520, Note_on_c, 0, 92, 0
1, 71520, Note_on_c, 0, 80, 0
1, 71520, Note_on_c, 0, 82, 70
1, 71520, Note_on_c, 0, 94, 84
1, 71520, Note_on_c, 0, 60, 62
1, 71640, Note_on_c, 0, 60, 0
1, 71640, Note_on_c, 0, 67, 57
1, 71760, Note_on_c, 0, 67, 0
1, 71760, Note_on_c, 0, 68, 57
1, 71880, Note_on_c, 0, 68, 0
1, 71880, Note_on_c, 0, 75, 57
1, 72000, Tempo, 615132
1, 72000, Note_on_c, 0, 75, 0
1, 72000, Note_on_c, 0, 90, 0
1, 72000, Note_on_c, 0, 87, 0
1, 72000, Note_on_c, 0, 89, 81
1, 72000, Note_on_c, 0, 50, 62
1, 72005, Control_c, 0, 64, 0
1, 72057, Control_c, 0, 64, 127
1, 72120, Note_on_c, 0, 50, 0
1, 72120, Note_on_c, 0, 57, 56
1, 72240, Tempo, 632978
1, 72240, Note_on_c, 0, 57, 0
1, 72240, Note_on_c, 0, 82, 0
1, 72240, Note_on_c, 0, 94, 0
1, 72240, Note_on_c, 0, 92, 80
1, 72240, Note_on_c, 0, 80, 67
1, 72240, Note_on_c, 0, 58, 57
1, 72360, Note_on_c, 0, 58, 0
1, 72360, Note_on_c, 0, 65, 57
1, 72480, Note_on_c, 0, 65, 0
1, 72480, Note_on_c, 0, 80, 0
1, 72480, Note_on_c, 0, 92, 0
1, 72480, Note_on_c, 0, 89, 0
1, 72480, Note_on_c, 0, 78, 70
1, 72480, Note_on_c, 0, 90, 84
1, 72480, Note_on_c, 0, 82, 62
1, 72480, Note_on_c, 0, 62, 63
1, 72600, Note_on_c, 0, 62, 0
1, 72600, Note_on_c, 0, 69, 58
1, 72720, Note_on_c, 0, 69, 0
1, 72720, Note_on_c, 0, 70, 59
1, 72840, Note_on_c, 0, 70, 0
1, 72840, Note_on_c, 0, 78, 0
1, 72840, Note_on_c, 0, 90, 0
1, 72840, Note_on_c, 0, 89, 78
1, 72840, Note_on_c, 0, 77, 66
1, 72960, Tempo, 623895
1, 72960, Note_on_c, 0, 77, 0
1, 72960, Note_on_c, 0, 89, 0
1, 72960, Note_on_c, 0, 82, 0
1, 72960, Note_on_c, 0, 82, 73
1, 72960, Note_on_c, 0, 80, 73
1, 72960, Note_on_c, 0, 92, 86
1, 72960, Note_on_c, 0, 39, 59
1, 72973, Control_c, 0, 64, 0
1, 73029, Control_c, 0, 64, 127
1, 73080, Note_on_c, 0, 39, 0
1, 73080, Note_on_c, 0, 46, 52
1, 73200, Tempo, 639114
1, 73200, Note_on_c, 0, 46, 0
1, 73200, Note_on_c, 0, 92, 0
1, 73200, Note_on_c, 0, 80, 0
1, 73200, Note_on_c, 0, 78, 60
1, 73200, Note_on_c, 0, 90, 72
1, 73200, Note_on_c, 0, 51, 52
1, 73320, Note_on_c, 0, 51, 0
1, 73320, Note_on_c, 0, 58, 52
1, 73440, Tempo, 626894
1, 73440, Note_on_c, 0, 58, 0
1, 73440, Note_on_c, 0, 90, 0
1, 73440, Note_on_c, 0, 78, 0
1, 73440, Note_on_c, 0, 82, 0
1, 73440, Note_on_c, 0, 89, 72
1, 73440, Note_on_c, 0, 82, 54
1, 73440, Note_on_c, 0, 77, 57
1, 73440, Note_on_c, 0, 41, 59
1, 73451, Control_c, 0, 64, 0
1, 73537, Control_c, 0, 64, 127
1, 73560, Note_on_c, 0, 41, 0
1, 73560, Note_on_c, 0, 46, 52
1, 73680, Tempo, 642261
1, 73680, Note_on_c, 0, 46, 0
1, 73680, Note_on_c, 0, 77, 0
1, 73680, Note_on_c, 0, 89, 0
1, 73680, Note_on_c, 0, 74, 60
1, 73680, Note_on_c, 0, 86, 72
1, 73680, Note_on_c, 0, 50, 52
1, 73800, Note_on_c, 0, 50, 0
1, 73800, Note_on_c, 0, 56, 52
1, 73920, Tempo, 623895
1, 73920, Note_on_c, 0, 56, 0
1, 73920, Note_on_c, 0, 86, 0
1, 73920, Note_on_c, 0, 74, 0
1, 73920, Note_on_c, 0, 82, 0
1, 73920, Note_on_c, 0, 82, 54
1, 73920, Note_on_c, 0, 89, 81
1, 73920, Note_on_c, 0, 77, 69
1, 73920, Note_on_c, 0, 42, 62
1, 73933, Control_c, 0, 64, 0
1, 73966, Control_c, 0, 64, 127
1, 74040, Note_on_c, 0, 42, 0
1, 74040, Note_on_c, 0, 46, 52
1, 74160, Tempo, 639114
1, 74160, Note_on_c, 0, 46, 0
1, 74160, Note_on_c, 0, 77, 0
1, 74160, Note_on_c, 0, 89, 0
1, 74160, Note_on_c, 0, 87, 71
1, 74160, Note_on_c, 0, 75, 60
1, 74160, Note_on_c, 0, 51, 52
1, 74280, Note_on_c, 0, 51, 0
1, 74280, Note_on_c, 0, 58, 52
1, 74400, Tempo, 623895
1, 74400, Note_on_c, 0, 58, 0
1, 74400, Note_on_c, 0, 75, 0
1, 74400, Note_on_c, 0, 87, 0
1, 74400, Note_on_c, 0, 82, 0
1, 74400, Note_on_c, 0, 76, 55
1, 74400, Note_on_c, 0, 82, 72
1, 74400, Note_on_c, 0, 70, 61
1, 74400, Note_on_c, 0, 43, 61
1, 74411, Control_c, 0, 64, 0
1, 74463, Control_c, 0, 64, 127
1, 74520, Note_on_c, 0, 43, 0
1, 74520, Note_on_c, 0, 49, 52
1, 74640, Note_on_c, 0, 49, 0
1, 74640, Note_on_c, 0, 70, 0
1, 74640, Note_on_c, 0, 82, 0
1, 74640, Note_on_c, 0, 85, 67
1, 74640, Note_on_c, 0, 73, 56
1, 74640, Note_on_c, 0, 52, 52
1, 74760, Note_on_c, 0, 52, 0
1, 74760, Note_on_c, 0, 58, 52
1, 74880, Note_on_c, 0, 58, 0
1, 74880, Note_on_c, 0, 73, 0
1, 74880, Note_on_c, 0, 85, 0
1, 74880, Note_on_c, 0, 76, 0
1, 74880, Note_on_c, 0, 70, 66
1, 74880, Note_on_c, 0, 77, 61
1, 74880, Note_on_c, 0, 82, 80
1, 74880, Note_on_c, 0, 44, 59
1, 74892, Control_c, 0, 64, 0
1, 74951, Control_c, 0, 64, 127
1, 75000, Note_on_c, 0, 44, 0
1, 75000, Note_on_c, 0, 49, 52
1, 75120, Tempo, 642261
1, 75120, Note_on_c, 0, 49, 0
1, 75120, Note_on_c, 0, 82, 0
1, 75120, Note_on_c, 0, 70, 0
1, 75120, Note_on_c, 0, 80, 73
1, 75120, Note_on_c, 0, 68, 61
1, 75120, Note_on_c, 0, 53, 52
1, 75240, Note_on_c, 0, 53, 0
1, 75240, Note_on_c, 0, 61, 52
1, 75360, Note_on_c, 0, 61, 0
1, 75360, Note_on_c, 0, 68, 0
1, 75360, Note_on_c, 0, 80, 0
1, 75360, Note_on_c, 0, 77, 0
1, 75360, Note_on_c, 0, 73, 73
1, 75360, Note_on_c, 0, 66, 61
1, 75360, Note_on_c, 0, 61, 61
1, 75360, Note_on_c, 0, 46, 58
1, 75374, Control_c, 0, 64, 0
1, 75431, Control_c, 0, 64, 127
1, 75480, Note_on_c, 0, 46, 0
1, 75480, Note_on_c, 0, 49, 52
1, 75600, Note_on_c, 0, 49, 0
1, 75600, Note_on_c, 0, 61, 0
1, 75600, Note_on_c, 0, 66, 0
1, 75600, Note_on_c, 0, 66, 62
1, 75600, Note_on_c, 0, 78, 74
1, 75600, Note_on_c, 0, 54, 52
1, 75720, Note_on_c, 0, 54, 0
1, 75720, Note_on_c, 0, 61, 52
1, 75840, Note_on_c, 0, 61, 0
1, 75840, Note_on_c, 0, 78, 0
1, 75840, Note_on_c, 0, 66, 0
1, 75840, Note_on_c, 0, 73, 0
1, 75840, Note_on_c, 0, 61, 67
1, 75840, Note_on_c, 0, 75, 80
1, 75840, Note_on_c, 0, 66, 67
1, 75840, Note_on_c, 0, 73, 67
1, 75840, Note_on_c, 0, 44, 52
1, 75851, Control_c, 0, 64, 0
1, 75918, Control_c, 0, 64, 127
1, 75960, Note_on_c, 0, 44, 0
1, 75960, Note_on_c, 0, 51, 47
1, 76080, Tempo, 632978
1, 76080, Note_on_c, 0, 51, 0
1, 76080, Note_on_c, 0, 56, 47
1, 76200, Note_on_c, 0, 56, 0
1, 76200, Note_on_c, 0, 61, 47
1, 76320, Tempo, 618047
1, 76320, Note_on_c, 0, 61, 0
1, 76320, Note_on_c, 0, 73, 0
1, 76320, Note_on_c, 0, 61, 0
1, 76320, Note_on_c, 0, 75, 0
1, 76320, Note_on_c, 0, 66, 0
1, 76320, Note_on_c, 0, 65, 63
1, 76320, Note_on_c, 0, 77, 75
1, 76320, Note_on_c, 0, 72, 51
1, 76320, Note_on_c, 0, 42, 55
1, 76334, Control_c, 0, 64, 0
1, 76384, Control_c, 0, 64, 127
1, 76440, Note_on_c, 0, 42, 0
1, 76440, Note_on_c, 0, 48, 47
1, 76560, Tempo, 632978
1, 76560, Note_on_c, 0, 48, 0
1, 76560, Note_on_c, 0, 77, 0
1, 76560, Note_on_c, 0, 65, 0
1, 76560, Note_on_c, 0, 66, 60
1, 76560, Note_on_c, 0, 78, 70
1, 76560, Note_on_c, 0, 51, 47
1, 76680, Note_on_c, 0, 51, 0
1, 76680, Note_on_c, 0, 56, 47
1, 76800, Tempo, 623895
1, 76800, Note_on_c, 0, 56, 0
1, 76800, Note_on_c, 0, 78, 0
1, 76800, Note_on_c, 0, 66, 0
1, 76800, Note_on_c, 0, 72, 0
1, 76800, Note_on_c, 0, 73, 47
1, 76800, Note_on_c, 0, 70, 62
1, 76800, Note_on_c, 0, 82, 77
1, 76800, Note_on_c, 0, 41, 55
1, 76812, Control_c, 0, 64, 0
1, 76832, Control_c, 0, 64, 127
1, 76920, Note_on_c, 0, 41, 0
1, 76920, Note_on_c, 0, 44, 47
1, 77040, Tempo, 632978
1, 77040, Note_on_c, 0, 44, 0
1, 77040, Note_on_c, 0, 82, 0
1, 77040, Note_on_c, 0, 70, 0
1, 77040, Note_on_c, 0, 69, 51
1, 77040, Note_on_c, 0, 81, 68
1, 77040, Note_on_c, 0, 49, 47
1, 77160, Note_on_c, 0, 49, 0
1, 77160, Note_on_c, 0, 56, 47
1, 77280, Tempo, 642261
1, 77280, Note_on_c, 0, 56, 0
1, 77280, Note_on_c, 0, 81, 0
1, 77280, Note_on_c, 0, 69, 0
1, 77280, Note_on_c, 0, 73, 0
1, 77280, Note_on_c, 0, 80, 77
1, 77280, Note_on_c, 0, 73, 53
1, 77280, Note_on_c, 0, 68, 64
1, 77280, Note_on_c, 0, 46, 56
1, 77294, Control_c, 0, 64, 0
1, 77337, Control_c, 0, 64, 127
1, 77400, Note_on_c, 0, 46, 0
1, 77400, Note_on_c, 0, 49, 47
1, 77440, Note_on_c, 0, 80, 0
1, 77440, Note_on_c, 0, 68, 0
1, 77440, Note_on_c, 0, 73, 0
1, 77440, Note_on_c, 0, 73, 70
1, 77440, Note_on_c, 0, 61, 60
1, 77520, Note_on_c, 0, 49, 0
1, 77520, Note_on_c, 0, 54, 47
1, 77600, Note_on_c, 0, 61, 0
1, 77600, Note_on_c, 0, 66, 60
1, 77600, Note_on_c, 0, 78, 70
1, 77640, Note_on_c, 0, 54, 0
1, 77640, Note_on_c, 0, 61, 47
1, 77760, Note_on_c, 0, 61, 0
1, 77760, Note_on_c, 0, 78, 0
1, 77760, Note_on_c, 0, 66, 0
1, 77760, Note_on_c, 0, 73, 0
1, 77760, Note_on_c, 0, 73, 66
1, 77760, Note_on_c, 0, 75, 80
1, 77760, Note_on_c, 0, 66, 66
1, 77760, Note_on_c, 0, 63, 66
1, 77760, Note_on_c, 0, 45, 55
1, 77771, Control_c, 0, 64, 0
1, 77810, Control_c, 0, 64, 127
1, 77880, Note_on_c, 0, 45, 0
1, 77880, Note_on_c, 0, 49, 47
1, 78000, Tempo, 620989
1, 78000, Note_on_c, 0, 49, 0
1, 78000, Note_on_c, 0, 63, 0
1, 78000, Note_on_c, 0, 75, 0
1, 78000, Note_on_c, 0, 65, 57
1, 78000, Note_on_c, 0, 77, 68
1, 78000, Note_on_c, 0, 54, 47
1, 78120, Note_on_c, 0, 54, 0
1, 78120, Note_on_c, 0, 65, 0
1, 78120, Note_on_c, 0, 77, 0
1, 78120, Note_on_c, 0, 63, 53
1, 78120, Note_on_c, 0, 75, 63
1, 78120, Note_on_c, 0, 61, 47
1, 78240, Tempo, 639114
1, 78240, Note_on_c, 0, 61, 0
1, 78240, Note_on_c, 0, 63, 0
1, 78240, Note_on_c, 0, 73, 0
1, 78240, Note_on_c, 0, 66, 0
1, 78240, Note_on_c, 0, 75, 0
1, 78240, Note_on_c, 0, 62, 61
1, 78240, Note_on_c, 0, 72, 61
1, 78240, Note_on_c, 0, 74, 73
1, 78240, Note_on_c, 0, 44, 51
1, 78251, Control_c, 0, 64, 0
1, 78298, Control_c, 0, 64, 127
1, 78360, Note_on_c, 0, 44, 0
1, 78360, Note_on_c, 0, 74, 0
1, 78360, Note_on_c, 0, 62, 0
1, 78360, Note_on_c, 0, 63, 57
1, 78360, Note_on_c, 0, 75, 68
1, 78360, Note_on_c, 0, 51, 47
1, 78480, Tempo, 658400
1, 78480, Note_on_c, 0, 51, 0
1, 78480, Note_on_c, 0, 75, 0
1, 78480, Note_on_c, 0, 63, 0
1, 78480, Note_on_c, 0, 65, 61
1, 78480, Note_on_c, 0, 77, 73
1, 78480, Note_on_c, 0, 60, 47
1, 78600, Note_on_c, 0, 60, 0
1, 78600, Note_on_c, 0, 77, 0
1, 78600, Note_on_c, 0, 65, 0
1, 78600, Note_on_c, 0, 66, 58
1, 78600, Note_on_c, 0, 78, 69
1, 78600, Note_on_c, 0, 42, 47
1, 78720, Tempo, 632978
1, 78720, Note_on_c, 0, 42, 0
1, 78720, Note_on_c, 0, 72, 0
1, 78720, Note_on_c, 0, 66, 0
1, 78720, Note_on_c, 0, 78, 0
1, 78720, Note_on_c, 0, 73, 67
1, 78720, Note_on_c, 0, 67, 70
1, 78720, Note_on_c, 0, 79, 83
1, 78720, Note_on_c, 0, 41, 56
1, 78732, Control_c, 0, 64, 0
1, 78754, Control_c, 0, 64, 127
1, 78840, Note_on_c, 0, 41, 0
1, 78840, Note_on_c, 0, 44, 47
1, 78880, Note_on_c, 0, 79, 0
1, 78880, Note_on_c, 0, 67, 0
1, 78880, Note_on_c, 0, 80, 79
1, 78880, Note_on_c, 0, 68, 66
1, 78960, Tempo, 639114
1, 78960, Note_on_c, 0, 44, 0
1, 78960, Note_on_c, 0, 49, 46
1, 79040, Note_on_c, 0, 73, 0
1, 79040, Note_on_c, 0, 68, 0
1, 79040, Note_on_c, 0, 80, 0
1, 79040, Note_on_c, 0, 77, 69
1, 79040, Note_on_c, 0, 89, 77
1, 79080, Note_on_c, 0, 49, 0
1, 79080, Note_on_c, 0, 56, 46
1, 79200, Note_on_c, 0, 56, 0
1, 79200, Note_on_c, 0, 89, 0
1, 79200, Note_on_c, 0, 77, 0
1, 79200, Note_on_c, 0, 78, 70
1, 79200, Note_on_c, 0, 75, 70
1, 79200, Note_on_c, 0, 87, 82
1, 79200, Note_on_c, 0, 46, 53
1, 79211, Control_c, 0, 64, 0
1, 79246, Control_c, 0, 64, 127
1, 79320, Note_on_c, 0, 46, 0
1, 79320, Note_on_c, 0, 49, 45
1, 79360, Note_on_c, 0, 87, 0
1, 79360, Note_on_c, 0, 75, 0
1, 79360, Note_on_c, 0, 73, 62
1, 79360, Note_on_c, 0, 85, 73
1, 79440, Note_on_c, 0, 49, 0
1, 79440, Note_on_c, 0, 54, 44
1, 79520, Note_on_c, 0, 78, 0
1, 79520, Note_on_c, 0, 85, 0
1, 79520, Note_on_c, 0, 73, 0
1, 79520, Note_on_c, 0, 73, 64
1, 79520, Note_on_c, 0, 78, 80
1, 79520, Note_on_c, 0, 66, 68
1, 79560, Note_on_c, 0, 54, 0
1, 79560, Note_on_c, 0, 61, 44
1, 79680, Tempo, 658400
1, 79680, Note_on_c, 0, 61, 0
1, 79680, Note_on_c, 0, 66, 0
1, 79680, Note_on_c, 0, 78, 0
1, 79680, Note_on_c, 0, 73, 0
1, 79680, Note_on_c, 0, 73, 69
1, 79680, Note_on_c, 0, 75, 82
1, 79680, Note_on_c, 0, 63, 69
1, 79680, Note_on_c, 0, 68, 69
1, 79680, Note_on_c, 0, 44, 50
1, 79684, Control_c, 0, 64, 0
1, 79715, Control_c, 0, 64, 127
1, 79800, Note_on_c, 0, 44, 0
1, 79800, Note_on_c, 0, 51, 42
1, 79920, Note_on_c, 0, 51, 0
1, 79920, Note_on_c, 0, 56, 42
1, 80040, Note_on_c, 0, 56, 0
1, 80040, Note_on_c, 0, 61, 41
1, 80160, Tempo, 671892
1, 80160, Note_on_c, 0, 61, 0
1, 80160, Note_on_c, 0, 63, 0
1, 80160, Note_on_c, 0, 73, 0
1, 80160, Note_on_c, 0, 66, 61
1, 80160, Note_on_c, 0, 72, 61
1, 80160, Note_on_c, 0, 44, 49
1, 80164, Control_c, 0, 64, 0
1, 80202, Control_c, 0, 64, 127
1, 80280, Note_on_c, 0, 44, 0
1, 80280, Note_on_c, 0, 51, 41
1, 80400, Note_on_c, 0, 51, 0
1, 80400, Note_on_c, 0, 72, 0
1, 80400, Note_on_c, 0, 66, 0
1, 80400, Note_on_c, 0, 68, 0
1, 80400, Note_on_c, 0, 56, 40
1, 80520, Note_on_c, 0, 56, 0
1, 80520, Note_on_c, 0, 60, 40
1, 80580, Note_on_c, 0, 75, 0
1, 80580, Note_on_c, 0, 73, 73
1, 80640, Tempo, 552995
1, 80640, Note_on_c, 0, 73, 0
1, 80640, Note_on_c, 0, 60, 0
1, 80640, Note_on_c, 0, 65, 72
1, 80640, Note_on_c, 0, 73, 85
1, 80640, Note_on_c, 0, 49, 56
1, 80640, Note_on_c, 0, 56, 56
1, 80640, Note_on_c, 0, 61, 66
1, 80640, Control_c, 0, 64, 0
1, 80800, Note_on_c, 0, 61, 0
1, 80800, Note_on_c, 0, 49, 0
1, 80800, Note_on_c, 0, 65, 0
1, 80800, Note_on_c, 0, 73, 0
1, 80800, Note_on_c, 0, 56, 0
1, 80800, Note_on_c, 0, 63, 62
1, 80800, Note_on_c, 0, 70, 73
1, 80800, Note_on_c, 0, 51, 42
1, 80800, Note_on_c, 0, 55, 42
1, 80800, Note_on_c, 0, 61, 51
1, 80880, Tempo, 519481
1, 80880, Note_on_c, 0, 61, 0
1, 80880, Note_on_c, 0, 51, 0
1, 80880, Note_on_c, 0, 63, 0
1, 80880, Note_on_c, 0, 70, 0
1, 80880, Note_on_c, 0, 55, 0
1, 80960, Note_on_c, 0, 63, 62
1, 80960, Note_on_c, 0, 70, 73
1, 80960, Note_on_c, 0, 51, 42
1, 80960, Note_on_c, 0, 55, 42
1, 80960, Note_on_c, 0, 61, 51
1, 81040, Note_on_c, 0, 61, 0
1, 81040, Note_on_c, 0, 51, 0
1, 81040, Note_on_c, 0, 63, 0
1, 81040, Note_on_c, 0, 70, 0
1, 81040, Note_on_c, 0, 55, 0
1, 81120, Tempo, 506457
1, 81120, Note_on_c, 0, 63, 62
1, 81120, Note_on_c, 0, 70, 75
1, 81120, Note_on_c, 0, 51, 46
1, 81120, Note_on_c, 0, 55, 46
1, 81120, Note_on_c, 0, 61, 56
1, 81280, Note_on_c, 0, 61, 0
1, 81280, Note_on_c, 0, 51, 0
1, 81280, Note_on_c, 0, 63, 0
1, 81280, Note_on_c, 0, 70, 0
1, 81280, Note_on_c, 0, 55, 0
1, 81280, Note_on_c, 0, 68, 71
1, 81280, Note_on_c, 0, 56, 42
1, 81280, Note_on_c, 0, 60, 51
1, 81360, Tempo, 483871
1, 81360, Note_on_c, 0, 60, 0
1, 81360, Note_on_c, 0, 56, 0
1, 81360, Note_on_c, 0, 68, 0
1, 81440, Note_on_c, 0, 72, 62
1, 81440, Note_on_c, 0, 78, 74
1, 81440, Note_on_c, 0, 56, 42
1, 81440, Note_on_c, 0, 68, 51
1, 81440, Note_on_c, 0, 63, 42
1, 81520, Note_on_c, 0, 63, 0
1, 81520, Note_on_c, 0, 56, 0
1, 81520, Note_on_c, 0, 72, 0
1, 81520, Note_on_c, 0, 78, 0
1, 81520, Note_on_c, 0, 68, 0
1, 81600, Tempo, 491803
1, 81600, Note_on_c, 0, 72, 63
1, 81600, Note_on_c, 0, 78, 75
1, 81600, Note_on_c, 0, 56, 46
1, 81600, Note_on_c, 0, 63, 46
1, 81600, Note_on_c, 0, 68, 56
1, 81640, Tempo, 487488
1, 81760, Note_on_c, 0, 68, 0
1, 81760, Note_on_c, 0, 56, 0
1, 81760, Note_on_c, 0, 72, 0
1, 81760, Note_on_c, 0, 78, 0
1, 81760, Note_on_c, 0, 63, 0
1, 81760, Note_on_c, 0, 73, 62
1, 81760, Note_on_c, 0, 77, 74
1, 81760, Note_on_c, 0, 61, 42
1, 81760, Note_on_c, 0, 68, 51
1, 81840, Tempo, 468713
1, 81840, Note_on_c, 0, 68, 0
1, 81840, Note_on_c, 0, 73, 0
1, 81840, Note_on_c, 0, 77, 0
1, 81840, Note_on_c, 0, 61, 0
1, 81920, Note_on_c, 0, 75, 62
1, 81920, Note_on_c, 0, 82, 74
1, 81920, Note_on_c, 0, 67, 51
1, 81920, Note_on_c, 0, 63, 42
1, 81920, Note_on_c, 0, 73, 51
1, 82000, Note_on_c, 0, 73, 0
1, 82000, Note_on_c, 0, 67, 0
1, 82000, Note_on_c, 0, 75, 0
1, 82000, Note_on_c, 0, 82, 0
1, 82000, Note_on_c, 0, 63, 0
1, 82080, Tempo, 479195
1, 82080, Note_on_c, 0, 75, 64
1, 82080, Note_on_c, 0, 82, 78
1, 82080, Note_on_c, 0, 63, 46
1, 82080, Note_on_c, 0, 67, 56
1, 82080, Note_on_c, 0, 73, 56
1, 82240, Note_on_c, 0, 73, 0
1, 82240, Note_on_c, 0, 63, 0
1, 82240, Note_on_c, 0, 75, 0
1, 82240, Note_on_c, 0, 82, 0
1, 82240, Note_on_c, 0, 67, 0
1, 82240, Note_on_c, 0, 80, 73
1, 82240, Note_on_c, 0, 68, 42
1, 82240, Note_on_c, 0, 72, 51
1, 82320, Tempo, 470736
1, 82320, Note_on_c, 0, 72, 0
1, 82320, Note_on_c, 0, 68, 0
1, 82320, Note_on_c, 0, 80, 0
1, 82400, Note_on_c, 0, 90, 73
1, 82400, Note_on_c, 0, 84, 62
1, 82400, Note_on_c, 0, 68, 42
1, 82400, Note_on_c, 0, 75, 42
1, 82400, Note_on_c, 0, 80, 51
1, 82480, Note_on_c, 0, 80, 0
1, 82480, Note_on_c, 0, 68, 0
1, 82480, Note_on_c, 0, 90, 0
1, 82480, Note_on_c, 0, 84, 0
1, 82480, Note_on_c, 0, 75, 0
1, 82560, Tempo, 477327
1, 82560, Note_on_c, 0, 84, 64
1, 82560, Note_on_c, 0, 90, 78
1, 82560, Note_on_c, 0, 68, 46
1, 82560, Note_on_c, 0, 75, 46
1, 82560, Note_on_c, 0, 80, 56
1, 82720, Note_on_c, 0, 80, 0
1, 82720, Note_on_c, 0, 68, 0
1, 82720, Note_on_c, 0, 84, 0
1, 82720, Note_on_c, 0, 90, 0
1, 82720, Note_on_c, 0, 75, 0
1, 82720, Note_on_c, 0, 85, 62
1, 82720, Note_on_c, 0, 89, 73
1, 82720, Note_on_c, 0, 73, 42
1, 82720, Note_on_c, 0, 80, 51
1, 82800, Note_on_c, 0, 80, 0
1, 82800, Note_on_c, 0, 85, 0
1, 82800, Note_on_c, 0, 89, 0
1, 82800, Note_on_c, 0, 73, 0
1, 82880, Tempo, 469520
1, 82880, Note_on_c, 0, 82, 73
1, 82880, Note_on_c, 0, 75, 62
1, 82880, Note_on_c, 0, 63, 44
1, 82880, Note_on_c, 0, 73, 52
1, 82880, Note_on_c, 0, 67, 44
1, 82960, Note_on_c, 0, 67, 0
1, 82960, Note_on_c, 0, 63, 0
1, 82960, Note_on_c, 0, 82, 0
1, 82960, Note_on_c, 0, 75, 0
1, 82960, Note_on_c, 0, 73, 0
1, 83040, Note_on_c, 0, 75, 62
1, 83040, Note_on_c, 0, 82, 75
1, 83040, Note_on_c, 0, 63, 46
1, 83040, Note_on_c, 0, 67, 46
1, 83040, Note_on_c, 0, 73, 56
1, 83200, Note_on_c, 0, 73, 0
1, 83200, Note_on_c, 0, 63, 0
1, 83200, Note_on_c, 0, 75, 0
1, 83200, Note_on_c, 0, 82, 0
1, 83200, Note_on_c, 0, 67, 0
1, 83200, Note_on_c, 0, 80, 72
1, 83200, Note_on_c, 0, 68, 44
1, 83200, Note_on_c, 0, 72, 52
1, 83280, Note_on_c, 0, 72, 0
1, 83280, Note_on_c, 0, 68, 0
1, 83280, Note_on_c, 0, 80, 0
1, 83360, Note_on_c, 0, 72, 62
1, 83360, Note_on_c, 0, 78, 74
1, 83360, Note_on_c, 0, 56, 44
1, 83360, Note_on_c, 0, 63, 44
1, 83360, Note_on_c, 0, 68, 52
1, 83440, Note_on_c, 0, 68, 0
1, 83440, Note_on_c, 0, 56, 0
1, 83440, Note_on_c, 0, 72, 0
1, 83440, Note_on_c, 0, 78, 0
1, 83440, Note_on_c, 0, 63, 0
1, 83520, Note_on_c, 0, 78, 75
1, 83520, Note_on_c, 0, 72, 62
1, 83520, Note_on_c, 0, 56, 46
1, 83520, Note_on_c, 0, 63, 46
1, 83520, Note_on_c, 0, 68, 56
1, 83680, Note_on_c, 0, 68, 0
1, 83680, Note_on_c, 0, 56, 0
1, 83680, Note_on_c, 0, 78, 0
1, 83680, Note_on_c, 0, 72, 0
1, 83680, Note_on_c, 0, 63, 0
1, 83680, Note_on_c, 0, 73, 60
1, 83680, Note_on_c, 0, 77, 71
1, 83680, Note_on_c, 0, 61, 44
1, 83680, Note_on_c, 0, 68, 52
1, 83760, Note_on_c, 0, 68, 0
1, 83760, Note_on_c, 0, 73, 0
1, 83760, Note_on_c, 0, 77, 0
1, 83760, Note_on_c, 0, 61, 0
1, 83840, Note_on_c, 0, 70, 74
1, 83840, Note_on_c, 0, 63, 62
1, 83840, Note_on_c, 0, 55, 44
1, 83840, Note_on_c, 0, 51, 44
1, 83840, Note_on_c, 0, 61, 52
1, 83920, Note_on_c, 0, 61, 0
1, 83920, Note_on_c, 0, 55, 0
1, 83920, Note_on_c, 0, 70, 0
1, 83920, Note_on_c, 0, 63, 0
1, 83920, Note_on_c, 0, 51, 0
1, 84000, Note_on_c, 0, 63, 64
1, 84000, Note_on_c, 0, 70, 78
1, 84000, Note_on_c, 0, 51, 46
1, 84000, Note_on_c, 0, 55, 46
1, 84000, Note_on_c, 0, 61, 56
1, 84160, Note_on_c, 0, 61, 0
1, 84160, Note_on_c, 0, 51, 0
1, 84160, Note_on_c, 0, 63, 0
1, 84160, Note_on_c, 0, 70, 0
1, 84160, Note_on_c, 0, 55, 0
1, 84160, Note_on_c, 0, 68, 74
1, 84160, Note_on_c, 0, 56, 44
1, 84160, Note_on_c, 0, 60, 52
1, 84240, Tempo, 475097
1, 84240, Note_on_c, 0, 60, 0
1, 84240, Note_on_c, 0, 56, 0
1, 84240, Note_on_c, 0, 68, 0
1, 84320, Note_on_c, 0, 60, 62
1, 84320, Note_on_c, 0, 66, 74
1, 84320, Note_on_c, 0, 51, 44
1, 84320, Note_on_c, 0, 44, 44
1, 84320, Note_on_c, 0, 56, 52
1, 84400, Note_on_c, 0, 56, 0
1, 84400, Note_on_c, 0, 51, 0
1, 84400, Note_on_c, 0, 60, 0
1, 84400, Note_on_c, 0, 66, 0
1, 84400, Note_on_c, 0, 44, 0
1, 84480, Tempo, 489356
1, 84480, Note_on_c, 0, 60, 64
1, 84480, Note_on_c, 0, 66, 78
1, 84480, Note_on_c, 0, 44, 46
1, 84480, Note_on_c, 0, 51, 46
1, 84480, Note_on_c, 0, 56, 56
1, 84640, Note_on_c, 0, 56, 0
1, 84640, Note_on_c, 0, 44, 0
1, 84640, Note_on_c, 0, 60, 0
1, 84640, Note_on_c, 0, 66, 0
1, 84640, Note_on_c, 0, 51, 0
1, 84640, Note_on_c, 0, 65, 67
1, 84640, Note_on_c, 0, 61, 56
1, 84640, Note_on_c, 0, 49, 39
1, 84640, Note_on_c, 0, 56, 47
1, 84720, Note_on_c, 0, 56, 0
1, 84720, Note_on_c, 0, 65, 0
1, 84720, Note_on_c, 0, 61, 0
1, 84720, Note_on_c, 0, 49, 0
1, 84800, Tempo, 468274
1, 84800, Note_on_c, 0, 64, 49
1, 84800, Note_on_c, 0, 69, 59
1, 84800, Note_on_c, 0, 55, 36
1, 84800, Note_on_c, 0, 61, 41
1, 84880, Note_on_c, 0, 61, 0
1, 84880, Note_on_c, 0, 64, 0
1, 84880, Note_on_c, 0, 69, 0
1, 84880, Note_on_c, 0, 55, 0
1, 84960, Tempo, 466019
1, 84960, Note_on_c, 0, 64, 51
1, 84960, Note_on_c, 0, 69, 62
1, 84960, Note_on_c, 0, 55, 37
1, 84960, Note_on_c, 0, 61, 44
1, 85120, Note_on_c, 0, 61, 0
1, 85120, Note_on_c, 0, 64, 0
1, 85120, Note_on_c, 0, 69, 0
1, 85120, Note_on_c, 0, 55, 0
1, 85120, Note_on_c, 0, 63, 49
1, 85120, Note_on_c, 0, 68, 58
1, 85120, Note_on_c, 0, 56, 34
1, 85120, Note_on_c, 0, 60, 41
1, 85200, Note_on_c, 0, 60, 0
1, 85200, Note_on_c, 0, 63, 0
1, 85200, Note_on_c, 0, 68, 0
1, 85200, Note_on_c, 0, 56, 0
1, 85280, Note_on_c, 0, 72, 44
1, 85280, Note_on_c, 0, 78, 52
1, 85280, Note_on_c, 0, 56, 29
1, 85280, Note_on_c, 0, 68, 36
1, 85280, Note_on_c, 0, 63, 29
1, 85360, Note_on_c, 0, 63, 0
1, 85360, Note_on_c, 0, 56, 0
1, 85360, Note_on_c, 0, 72, 0
1, 85360, Note_on_c, 0, 78, 0
1, 85360, Note_on_c, 0, 68, 0
1, 85440, Note_on_c, 0, 72, 46
1, 85440, Note_on_c, 0, 78, 55
1, 85440, Note_on_c, 0, 56, 33
1, 85440, Note_on_c, 0, 63, 33
1, 85440, Note_on_c, 0, 68, 39
1, 85600, Note_on_c, 0, 68, 0
1, 85600, Note_on_c, 0, 56, 0
1, 85600, Note_on_c, 0, 72, 0
1, 85600, Note_on_c, 0, 78, 0
1, 85600, Note_on_c, 0, 63, 0
1, 85600, Note_on_c, 0, 73, 44
1, 85600, Note_on_c, 0, 77, 52
1, 85600, Note_on_c, 0, 61, 29
1, 85600, Note_on_c, 0, 68, 36
1, 85680, Note_on_c, 0, 68, 0
1, 85680, Note_on_c, 0, 73, 0
1, 85680, Note_on_c, 0, 77, 0
1, 85680, Note_on_c, 0, 61, 0
1, 85760, Note_on_c, 0, 81, 52
1, 85760, Note_on_c, 0, 76, 44
1, 85760, Note_on_c, 0, 67, 36
1, 85760, Note_on_c, 0, 73, 36
1, 85840, Note_on_c, 0, 73, 0
1, 85840, Note_on_c, 0, 81, 0
1, 85840, Note_on_c, 0, 76, 0
1, 85840, Note_on_c, 0, 67, 0
1, 85920, Note_on_c, 0, 76, 46
1, 85920, Note_on_c, 0, 81, 55
1, 85920, Note_on_c, 0, 67, 39
1, 85920, Note_on_c, 0, 73, 39
1, 86080, Note_on_c, 0, 73, 0
1, 86080, Note_on_c, 0, 76, 0
1, 86080, Note_on_c, 0, 81, 0
1, 86080, Note_on_c, 0, 67, 0
1, 86080, Note_on_c, 0, 75, 41
1, 86080, Note_on_c, 0, 80, 51
1, 86080, Note_on_c, 0, 68, 29
1, 86080, Note_on_c, 0, 72, 36
1, 86160, Note_on_c, 0, 72, 0
1, 86160, Note_on_c, 0, 75, 0
1, 86160, Note_on_c, 0, 80, 0
1, 86160, Note_on_c, 0, 68, 0
1, 86240, Note_on_c, 0, 84, 39
1, 86240, Note_on_c, 0, 90, 46
1, 86240, Note_on_c, 0, 68, 26
1, 86240, Note_on_c, 0, 75, 26
1, 86240, Note_on_c, 0, 80, 31
1, 86320, Note_on_c, 0, 80, 0
1, 86320, Note_on_c, 0, 68, 0
1, 86320, Note_on_c, 0, 84, 0
1, 86320, Note_on_c, 0, 90, 0
1, 86320, Note_on_c, 0, 75, 0
1, 86400, Note_on_c, 0, 84, 40
1, 86400, Note_on_c, 0, 90, 49
1, 86400, Note_on_c, 0, 68, 29
1, 86400, Note_on_c, 0, 75, 29
1, 86400, Note_on_c, 0, 80, 35
1, 86560, Note_on_c, 0, 80, 0
1, 86560, Note_on_c, 0, 68, 0
1, 86560, Note_on_c, 0, 84, 0
1, 86560, Note_on_c, 0, 90, 0
1, 86560, Note_on_c, 0, 75, 0
1, 86560, Note_on_c, 0, 85, 39
1, 86560, Note_on_c, 0, 89, 46
1, 86560, Note_on_c, 0, 73, 26
1, 86560, Note_on_c, 0, 80, 31
1, 86640, Note_on_c, 0, 80, 0
1, 86640, Note_on_c, 0, 85, 0
1, 86640, Note_on_c, 0, 89, 0
1, 86640, Note_on_c, 0, 73, 0
1, 86720, Note_on_c, 0, 76, 47
1, 86720, Note_on_c, 0, 81, 55
1, 86720, Note_on_c, 0, 73, 39
1, 86720, Note_on_c, 0, 67, 33
1, 86800, Note_on_c, 0, 67, 0
1, 86800, Note_on_c, 0, 76, 0
1, 86800, Note_on_c, 0, 81, 0
1, 86800, Note_on_c, 0, 73, 0
1, 86880, Note_on_c, 0, 76, 49
1, 86880, Note_on_c, 0, 81, 59
1, 86880, Note_on_c, 0, 67, 35
1, 86880, Note_on_c, 0, 73, 41
1, 87040, Note_on_c, 0, 73, 0
1, 87040, Note_on_c, 0, 76, 0
1, 87040, Note_on_c, 0, 81, 0
1, 87040, Note_on_c, 0, 67, 0
1, 87040, Note_on_c, 0, 75, 45
1, 87040, Note_on_c, 0, 80, 56
1, 87040, Note_on_c, 0, 68, 33
1, 87040, Note_on_c, 0, 72, 39
1, 87120, Tempo, 477441
1, 87120, Note_on_c, 0, 72, 0
1, 87120, Note_on_c, 0, 75, 0
1, 87120, Note_on_c, 0, 80, 0
1, 87120, Note_on_c, 0, 68, 0
1, 87200, Note_on_c, 0, 72, 47
1, 87200, Note_on_c, 0, 78, 56
1, 87200, Note_on_c, 0, 56, 33
1, 87200, Note_on_c, 0, 63, 33
1, 87200, Note_on_c, 0, 68, 39
1, 87280, Note_on_c, 0, 68, 0
1, 87280, Note_on_c, 0, 56, 0
1, 87280, Note_on_c, 0, 72, 0
1, 87280, Note_on_c, 0, 78, 0
1, 87280, Note_on_c, 0, 63, 0
1, 87360, Tempo, 484457
1, 87360, Note_on_c, 0, 72, 49
1, 87360, Note_on_c, 0, 78, 59
1, 87360, Note_on_c, 0, 56, 35
1, 87360, Note_on_c, 0, 63, 35
1, 87360, Note_on_c, 0, 68, 41
1, 87520, Note_on_c, 0, 68, 0
1, 87520, Note_on_c, 0, 56, 0
1, 87520, Note_on_c, 0, 72, 0
1, 87520, Note_on_c, 0, 78, 0
1, 87520, Note_on_c, 0, 63, 0
1, 87520, Note_on_c, 0, 73, 47
1, 87520, Note_on_c, 0, 77, 55
1, 87520, Note_on_c, 0, 61, 33
1, 87520, Note_on_c, 0, 68, 39
1, 87600, Note_on_c, 0, 68, 0
1, 87600, Note_on_c, 0, 73, 0
1, 87600, Note_on_c, 0, 77, 0
1, 87600, Note_on_c, 0, 61, 0
1, 87680, Tempo, 466019
1, 87680, Note_on_c, 0, 64, 45
1, 87680, Note_on_c, 0, 69, 54
1, 87680, Note_on_c, 0, 55, 33
1, 87680, Note_on_c, 0, 61, 39
1, 87760, Note_on_c, 0, 61, 0
1, 87760, Note_on_c, 0, 64, 0
1, 87760, Note_on_c, 0, 69, 0
1, 87760, Note_on_c, 0, 55, 0
1, 87840, Tempo, 479770
1, 87840, Note_on_c, 0, 64, 49
1, 87840, Note_on_c, 0, 69, 59
1, 87840, Note_on_c, 0, 55, 35
1, 87840, Note_on_c, 0, 61, 41
1, 88000, Note_on_c, 0, 61, 0
1, 88000, Note_on_c, 0, 64, 0
1, 88000, Note_on_c, 0, 69, 0
1, 88000, Note_on_c, 0, 55, 0
1, 88000, Note_on_c, 0, 63, 45
1, 88000, Note_on_c, 0, 68, 56
1, 88000, Note_on_c, 0, 56, 33
1, 88000, Note_on_c, 0, 60, 39
1, 88080, Tempo, 511945
1, 88080, Note_on_c, 0, 60, 0
1, 88080, Note_on_c, 0, 63, 0
1, 88080, Note_on_c, 0, 68, 0
1, 88080, Note_on_c, 0, 56, 0
1, 88160, Note_on_c, 0, 63, 52
1, 88160, Note_on_c, 0, 60, 52
1, 88160, Note_on_c, 0, 66, 62
1, 88160, Note_on_c, 0, 44, 41
1, 88160, Note_on_c, 0, 56, 49
1, 88240, Note_on_c, 0, 56, 0
1, 88240, Note_on_c, 0, 66, 0
1, 88240, Note_on_c, 0, 63, 0
1, 88240, Note_on_c, 0, 60, 0
1, 88240, Note_on_c, 0, 44, 0
1, 88320, Tempo, 484457
1, 88320, Note_on_c, 0, 63, 49
1, 88320, Note_on_c, 0, 60, 49
1, 88320, Note_on_c, 0, 66, 59
1, 88320, Note_on_c, 0, 44, 39
1, 88320, Note_on_c, 0, 56, 47
1, 88480, Note_on_c, 0, 56, 0
1, 88480, Note_on_c, 0, 66, 0
1, 88480, Note_on_c, 0, 63, 0
1, 88480, Note_on_c, 0, 60, 0
1, 88480, Note_on_c, 0, 44, 0
1, 88480, Note_on_c, 0, 64, 42
1, 88480, Note_on_c, 0, 60, 41
1, 88480, Note_on_c, 0, 67, 49
1, 88480, Note_on_c, 0, 43, 33
1, 88480, Note_on_c, 0, 55, 39
1, 88560, Tempo, 470662
1, 88560, Note_on_c, 0, 55, 0
1, 88560, Note_on_c, 0, 67, 0
1, 88560, Note_on_c, 0, 64, 0
1, 88560, Note_on_c, 0, 60, 0
1, 88560, Note_on_c, 0, 43, 0
1, 88640, Note_on_c, 0, 72, 56
1, 88640, Note_on_c, 0, 62, 49
1, 88640, Note_on_c, 0, 66, 47
1, 88640, Note_on_c, 0, 55, 38
1, 88640, Note_on_c, 0, 57, 45
1, 88720, Note_on_c, 0, 57, 0
1, 88720, Note_on_c, 0, 66, 0
1, 88720, Note_on_c, 0, 72, 0
1, 88720, Note_on_c, 0, 62, 0
1, 88720, Note_on_c, 0, 55, 0
1, 88800, Tempo, 472925
1, 88800, Note_on_c, 0, 62, 49
1, 88800, Note_on_c, 0, 66, 49
1, 88800, Note_on_c, 0, 72, 59
1, 88800, Note_on_c, 0, 55, 39
1, 88800, Note_on_c, 0, 57, 47
1, 88960, Note_on_c, 0, 57, 0
1, 88960, Note_on_c, 0, 72, 0
1, 88960, Note_on_c, 0, 62, 0
1, 88960, Note_on_c, 0, 66, 0
1, 88960, Note_on_c, 0, 55, 0
1, 88960, Note_on_c, 0, 62, 42
1, 88960, Note_on_c, 0, 67, 41
1, 88960, Note_on_c, 0, 71, 48
1, 88960, Note_on_c, 0, 55, 31
1, 88960, Note_on_c, 0, 59, 39
1, 89040, Tempo, 464109
1, 89040, Note_on_c, 0, 59, 0
1, 89040, Note_on_c, 0, 71, 0
1, 89040, Note_on_c, 0, 62, 0
1, 89040, Note_on_c, 0, 67, 0
1, 89040, Note_on_c, 0, 55, 0
1, 89120, Note_on_c, 0, 65, 47
1, 89120, Note_on_c, 0, 67, 47
1, 89120, Note_on_c, 0, 71, 47
1, 89120, Note_on_c, 0, 77, 56
1, 89120, Note_on_c, 0, 55, 36
1, 89120, Note_on_c, 0, 62, 44
1, 89200, Note_on_c, 0, 62, 0
1, 89200, Note_on_c, 0, 67, 0
1, 89200, Note_on_c, 0, 71, 0
1, 89200, Note_on_c, 0, 65, 0
1, 89200, Note_on_c, 0, 55, 0
1, 89200, Note_on_c, 0, 77, 0
1, 89280, Note_on_c, 0, 71, 49
1, 89280, Note_on_c, 0, 65, 49
1, 89280, Note_on_c, 0, 67, 49
1, 89280, Note_on_c, 0, 77, 59
1, 89280, Note_on_c, 0, 55, 39
1, 89280, Note_on_c, 0, 62, 47
1, 89440, Note_on_c, 0, 62, 0
1, 89440, Note_on_c, 0, 65, 0
1, 89440, Note_on_c, 0, 67, 0
1, 89440, Note_on_c, 0, 71, 0
1, 89440, Note_on_c, 0, 55, 0
1, 89440, Note_on_c, 0, 77, 0
1, 89440, Note_on_c, 0, 67, 46
1, 89440, Note_on_c, 0, 72, 44
1, 89440, Note_on_c, 0, 76, 52
1, 89440, Note_on_c, 0, 60, 34
1, 89440, Note_on_c, 0, 55, 34
1, 89440, Note_on_c, 0, 64, 41
1, 89520, Note_on_c, 0, 64, 0
1, 89520, Note_on_c, 0, 72, 0
1, 89520, Note_on_c, 0, 76, 0
1, 89520, Note_on_c, 0, 67, 0
1, 89520, Note_on_c, 0, 55, 0
1, 89520, Note_on_c, 0, 60, 0
1, 89600, Note_on_c, 0, 84, 56
1, 89600, Note_on_c, 0, 74, 49
1, 89600, Note_on_c, 0, 78, 47
1, 89600, Note_on_c, 0, 72, 49
1, 89600, Note_on_c, 0, 55, 44
1, 89600, Note_on_c, 0, 62, 44
1, 89600, Note_on_c, 0, 69, 44
1, 89680, Note_on_c, 0, 69, 0
1, 89680, Note_on_c, 0, 55, 0
1, 89680, Note_on_c, 0, 74, 0
1, 89680, Note_on_c, 0, 78, 0
1, 89680, Note_on_c, 0, 84, 0
1, 89680, Note_on_c, 0, 62, 0
1, 89680, Note_on_c, 0, 72, 0
1, 89760, Note_on_c, 0, 72, 49
1, 89760, Note_on_c, 0, 84, 59
1, 89760, Note_on_c, 0, 74, 49
1, 89760, Note_on_c, 0, 78, 49
1, 89760, Note_on_c, 0, 55, 47
1, 89760, Note_on_c, 0, 62, 47
1, 89760, Note_on_c, 0, 69, 47
1, 89920, Note_on_c, 0, 69, 0
1, 89920, Note_on_c, 0, 55, 0
1, 89920, Note_on_c, 0, 84, 0
1, 89920, Note_on_c, 0, 74, 0
1, 89920, Note_on_c, 0, 72, 0
1, 89920, Note_on_c, 0, 62, 0
1, 89920, Note_on_c, 0, 78, 0
1, 89920, Note_on_c, 0, 71, 46
1, 89920, Note_on_c, 0, 79, 41
1, 89920, Note_on_c, 0, 83, 51
1, 89920, Note_on_c, 0, 55, 44
1, 89920, Note_on_c, 0, 62, 34
1, 89920, Note_on_c, 0, 67, 41
1, 90000, Tempo, 475097
1, 90000, Note_on_c, 0, 67, 0
1, 90000, Note_on_c, 0, 79, 0
1, 90000, Note_on_c, 0, 83, 0
1, 90000, Note_on_c, 0, 71, 0
1, 90000, Note_on_c, 0, 62, 0
1, 90000, Note_on_c, 0, 55, 0
1, 90080, Note_on_c, 0, 77, 49
1, 90080, Note_on_c, 0, 79, 49
1, 90080, Note_on_c, 0, 83, 47
1, 90080, Note_on_c, 0, 89, 55
1, 90080, Note_on_c, 0, 55, 47
1, 90080, Note_on_c, 0, 62, 36
1, 90080, Note_on_c, 0, 67, 44
1, 90160, Note_on_c, 0, 67, 0
1, 90160, Note_on_c, 0, 55, 0
1, 90160, Note_on_c, 0, 79, 0
1, 90160, Note_on_c, 0, 83, 0
1, 90160, Note_on_c, 0, 77, 0
1, 90160, Note_on_c, 0, 62, 0
1, 90160, Note_on_c, 0, 89, 0
1, 90240, Note_on_c, 0, 77, 49
1, 90240, Note_on_c, 0, 79, 49
1, 90240, Note_on_c, 0, 83, 49
1, 90240, Note_on_c, 0, 89, 59
1, 90240, Note_on_c, 0, 55, 39
1, 90240, Note_on_c, 0, 62, 39
1, 90240, Note_on_c, 0, 67, 47
1, 90400, Note_on_c, 0, 67, 0
1, 90400, Note_on_c, 0, 55, 0
1, 90400, Note_on_c, 0, 79, 0
1, 90400, Note_on_c, 0, 83, 0
1, 90400, Note_on_c, 0, 77, 0
1, 90400, Note_on_c, 0, 62, 0
1, 90400, Note_on_c, 0, 89, 0
1, 90400, Note_on_c, 0, 74, 63
1, 90400, Note_on_c, 0, 70, 45
1, 90400, Note_on_c, 0, 62, 34
1, 90400, Note_on_c, 0, 68, 49
1, 90480, Tempo, 475097
1, 90559, Control_c, 0, 64, 127
1, 90560, Note_on_c, 0, 68, 0
1, 90560, Note_on_c, 0, 74, 0
1, 90560, Note_on_c, 0, 70, 0
1, 90560, Note_on_c, 0, 62, 0
1, 90560, Note_on_c, 0, 71, 66
1, 90560, Note_on_c, 0, 80, 80
1, 90560, Note_on_c, 0, 53, 61
1, 90600, Tempo, 472813
1, 90720, Tempo, 470551
1, 90720, Note_on_c, 0, 53, 0
1, 90720, Note_on_c, 0, 80, 0
1, 90720, Note_on_c, 0, 71, 0
1, 90720, Note_on_c, 0, 73, 68
1, 90720, Note_on_c, 0, 77, 74
1, 90720, Note_on_c, 0, 56, 47
1, 90720, Note_on_c, 0, 65, 56
1, 90800, Tempo, 468274
1, 90880, Note_on_c, 0, 65, 0
1, 90880, Note_on_c, 0, 73, 0
1, 90880, Note_on_c, 0, 77, 0
1, 90880, Note_on_c, 0, 56, 0
1, 90880, Note_on_c, 0, 74, 71
1, 90880, Note_on_c, 0, 83, 84
1, 90880, Note_on_c, 0, 50, 62
1, 90892, Control_c, 0, 64, 0
1, 90920, Tempo, 466019
1, 90935, Control_c, 0, 64, 127
1, 91000, Tempo, 463894
1, 91040, Note_on_c, 0, 50, 0
1, 91040, Note_on_c, 0, 83, 0
1, 91040, Note_on_c, 0, 74, 0
1, 91040, Note_on_c, 0, 76, 66
1, 91040, Note_on_c, 0, 80, 79
1, 91040, Note_on_c, 0, 56, 49
1, 91040, Note_on_c, 0, 62, 59
1, 91120, Tempo, 461645
1, 91200, Tempo, 457317
1, 91200, Note_on_c, 0, 62, 0
1, 91200, Note_on_c, 0, 76, 0
1, 91200, Note_on_c, 0, 80, 0
1, 91200, Note_on_c, 0, 56, 0
1, 91200, Note_on_c, 0, 77, 74
1, 91200, Note_on_c, 0, 86, 89
1, 91200, Note_on_c, 0, 47, 64
1, 91207, Control_c, 0, 64, 0
1, 91257, Control_c, 0, 64, 127
1, 91320, Tempo, 459488
1, 91360, Note_on_c, 0, 47, 0
1, 91360, Note_on_c, 0, 86, 0
1, 91360, Note_on_c, 0, 77, 0
1, 91360, Note_on_c, 0, 83, 85
1, 91360, Note_on_c, 0, 79, 72
1, 91360, Note_on_c, 0, 53, 50
1, 91360, Note_on_c, 0, 59, 60
1, 91400, Tempo, 461645
1, 91480, Tempo, 463894
1, 91520, Note_on_c, 0, 59, 0
1, 91520, Note_on_c, 0, 83, 0
1, 91520, Note_on_c, 0, 79, 0
1, 91520, Note_on_c, 0, 53, 0
1, 91520, Note_on_c, 0, 89, 92
1, 91520, Note_on_c, 0, 80, 78
1, 91520, Note_on_c, 0, 44, 69
1, 91531, Control_c, 0, 64, 0
1, 91560, Tempo, 466019
1, 91640, Control_c, 0, 64, 127
1, 91680, Note_on_c, 0, 44, 0
1, 91680, Note_on_c, 0, 80, 0
1, 91680, Note_on_c, 0, 89, 0
1, 91680, Note_on_c, 0, 82, 73
1, 91680, Note_on_c, 0, 86, 86
1, 91680, Note_on_c, 0, 50, 53
1, 91680, Note_on_c, 0, 56, 64
1, 91760, Tempo, 468274
1, 91800, Tempo, 475097
1, 91840, Tempo, 482160
1, 91840, Note_on_c, 0, 56, 0
1, 91840, Note_on_c, 0, 82, 0
1, 91840, Note_on_c, 0, 86, 0
1, 91840, Note_on_c, 0, 50, 0
1, 91840, Note_on_c, 0, 83, 79
1, 91840, Note_on_c, 0, 92, 94
1, 91840, Note_on_c, 0, 41, 77
1, 91855, Control_c, 0, 64, 0
1, 91880, Tempo, 489356
1, 91920, Tempo, 496853
1, 91937, Control_c, 0, 64, 127
1, 91960, Tempo, 504498
1, 92000, Note_on_c, 0, 41, 0
1, 92000, Note_on_c, 0, 92, 0
1, 92000, Note_on_c, 0, 83, 0
1, 92000, Note_on_c, 0, 83, 77
1, 92000, Note_on_c, 0, 95, 90
1, 92000, Note_on_c, 0, 29, 69
1, 92000, Note_on_c, 0, 41, 69
1, 92160, Note_on_c, 0, 41, 0
1, 92160, Note_on_c, 0, 83, 0
1, 92160, Note_on_c, 0, 95, 0
1, 92160, Note_on_c, 0, 29, 0
1, 92160, Note_on_c, 0, 84, 85
1, 92160, Note_on_c, 0, 96, 101
1, 92160, Note_on_c, 0, 40, 42
1, 92160, Note_on_c, 0, 28, 42
1, 92171, Control_c, 0, 64, 0
1, 92234, Control_c, 0, 64, 127
1, 92320, Note_on_c, 0, 28, 0
1, 92320, Note_on_c, 0, 84, 0
1, 92320, Note_on_c, 0, 96, 0
1, 92320, Note_on_c, 0, 40, 0
1, 92320, Note_on_c, 0, 60, 64
1, 92320, Note_on_c, 0, 67, 64
1, 92320, Note_on_c, 0, 72, 77
1, 92320, Note_on_c, 0, 40, 36
1, 92320, Note_on_c, 0, 52, 50
1, 92400, Tempo, 475210
1, 92480, Note_on_c, 0, 52, 0
1, 92480, Note_on_c, 0, 72, 0
1, 92480, Note_on_c, 0, 60, 0
1, 92480, Note_on_c, 0, 67, 0
1, 92480, Note_on_c, 0, 40, 0
1, 92480, Note_on_c, 0, 67, 64
1, 92480, Note_on_c, 0, 60, 64
1, 92480, Note_on_c, 0, 72, 77
1, 92480, Note_on_c, 0, 40, 40
1, 92480, Note_on_c, 0, 52, 48
1, 92560, Tempo, 486855
1, 92640, Note_on_c, 0, 52, 0
1, 92640, Note_on_c, 0, 72, 0
1, 92640, Note_on_c, 0, 67, 0
1, 92640, Note_on_c, 0, 60, 0
1, 92640, Note_on_c, 0, 40, 0
1, 92640, Note_on_c, 0, 60, 55
1, 92640, Note_on_c, 0, 68, 55
1, 92640, Note_on_c, 0, 72, 77
1, 92640, Note_on_c, 0, 40, 40
1, 92640, Note_on_c, 0, 52, 48
1, 92659, Control_c, 0, 64, 0
1, 92714, Control_c, 0, 64, 127
1, 92800, Tempo, 472925
1, 92800, Note_on_c, 0, 52, 0
1, 92800, Note_on_c, 0, 72, 0
1, 92800, Note_on_c, 0, 60, 0
1, 92800, Note_on_c, 0, 68, 0
1, 92800, Note_on_c, 0, 40, 0
1, 92800, Note_on_c, 0, 60, 63
1, 92800, Note_on_c, 0, 68, 63
1, 92800, Note_on_c, 0, 72, 75
1, 92800, Note_on_c, 0, 40, 40
1, 92800, Note_on_c, 0, 52, 48
1, 92960, Tempo, 479770
1, 92960, Note_on_c, 0, 52, 0
1, 92960, Note_on_c, 0, 72, 0
1, 92960, Note_on_c, 0, 60, 0
1, 92960, Note_on_c, 0, 68, 0
1, 92960, Note_on_c, 0, 40, 0
1, 92960, Note_on_c, 0, 60, 63
1, 92960, Note_on_c, 0, 68, 63
1, 92960, Note_on_c, 0, 72, 75
1, 92960, Note_on_c, 0, 40, 41
1, 92960, Note_on_c, 0, 52, 49
1, 93120, Tempo, 484457
1, 93120, Note_on_c, 0, 52, 0
1, 93120, Note_on_c, 0, 72, 0
1, 93120, Note_on_c, 0, 60, 0
1, 93120, Note_on_c, 0, 68, 0
1, 93120, Note_on_c, 0, 40, 0
1, 93120, Note_on_c, 0, 72, 80
1, 93120, Note_on_c, 0, 60, 57
1, 93120, Note_on_c, 0, 68, 57
1, 93120, Note_on_c, 0, 40, 38
1, 93120, Note_on_c, 0, 52, 55
1, 93129, Control_c, 0, 64, 0
1, 93183, Control_c, 0, 64, 127
1, 93280, Tempo, 470662
1, 93280, Note_on_c, 0, 52, 0
1, 93280, Note_on_c, 0, 68, 0
1, 93280, Note_on_c, 0, 72, 0
1, 93280, Note_on_c, 0, 60, 0
1, 93280, Note_on_c, 0, 40, 0
1, 93280, Note_on_c, 0, 60, 64
1, 93280, Note_on_c, 0, 68, 64
1, 93280, Note_on_c, 0, 72, 77
1, 93280, Note_on_c, 0, 39, 44
1, 93280, Note_on_c, 0, 51, 52
1, 93440, Tempo, 479770
1, 93440, Note_on_c, 0, 51, 0
1, 93440, Note_on_c, 0, 72, 0
1, 93440, Note_on_c, 0, 60, 0
1, 93440, Note_on_c, 0, 68, 0
1, 93440, Note_on_c, 0, 39, 0
1, 93440, Note_on_c, 0, 60, 64
1, 93440, Note_on_c, 0, 68, 64
1, 93440, Note_on_c, 0, 72, 77
1, 93440, Note_on_c, 0, 39, 44
1, 93440, Note_on_c, 0, 51, 52
1, 93600, Tempo, 475210
1, 93600, Note_on_c, 0, 51, 0
1, 93600, Note_on_c, 0, 72, 0
1, 93600, Note_on_c, 0, 60, 0
1, 93600, Note_on_c, 0, 68, 0
1, 93600, Note_on_c, 0, 39, 0
1, 93600, Note_on_c, 0, 60, 68
1, 93600, Note_on_c, 0, 68, 68
1, 93600, Note_on_c, 0, 72, 81
1, 93600, Note_on_c, 0, 39, 47
1, 93600, Note_on_c, 0, 51, 56
1, 93611, Control_c, 0, 64, 0
1, 93663, Control_c, 0, 64, 127
1, 93760, Tempo, 455581
1, 93760, Note_on_c, 0, 51, 0
1, 93760, Note_on_c, 0, 72, 0
1, 93760, Note_on_c, 0, 60, 0
1, 93760, Note_on_c, 0, 68, 0
1, 93760, Note_on_c, 0, 39, 0
1, 93760, Note_on_c, 0, 72, 79
1, 93760, Note_on_c, 0, 60, 67
1, 93760, Note_on_c, 0, 68, 67
1, 93760, Note_on_c, 0, 40, 44
1, 93760, Note_on_c, 0, 52, 52
1, 93800, Tempo, 455581
1, 93920, Tempo, 475210
1, 93920, Note_on_c, 0, 52, 0
1, 93920, Note_on_c, 0, 68, 0
1, 93920, Note_on_c, 0, 72, 0
1, 93920, Note_on_c, 0, 60, 0
1, 93920, Note_on_c, 0, 40, 0
1, 93920, Note_on_c, 0, 60, 67
1, 93920, Note_on_c, 0, 68, 67
1, 93920, Note_on_c, 0, 72, 79
1, 93920, Note_on_c, 0, 40, 44
1, 93920, Note_on_c, 0, 52, 52
1, 94040, Tempo, 451399
1, 94080, Tempo, 489237
1, 94080, Note_on_c, 0, 52, 0
1, 94080, Note_on_c, 0, 72, 0
1, 94080, Note_on_c, 0, 60, 0
1, 94080, Note_on_c, 0, 68, 0
1, 94080, Note_on_c, 0, 40, 0
1, 94080, Note_on_c, 0, 60, 67
1, 94080, Note_on_c, 0, 68, 67
1, 94080, Note_on_c, 0, 72, 80
1, 94080, Note_on_c, 0, 40, 46
1, 94080, Note_on_c, 0, 52, 56
1, 94093, Control_c, 0, 64, 0
1, 94160, Note_on_c, 0, 52, 0
1, 94160, Note_on_c, 0, 72, 0
1, 94160, Note_on_c, 0, 60, 0
1, 94160, Note_on_c, 0, 68, 0
1, 94160, Note_on_c, 0, 40, 0
1, 94200, Tempo, 461894
1, 94240, Note_on_c, 0, 60, 68
1, 94240, Note_on_c, 0, 69, 68
1, 94240, Note_on_c, 0, 72, 81
1, 94240, Note_on_c, 0, 40, 47
1, 94240, Note_on_c, 0, 52, 57
1, 94295, Control_c, 0, 64, 127
1, 94320, Note_on_c, 0, 52, 0
1, 94320, Note_on_c, 0, 72, 0
1, 94320, Note_on_c, 0, 60, 0
1, 94320, Note_on_c, 0, 69, 0
1, 94320, Note_on_c, 0, 40, 0
1, 94400, Tempo, 479770
1, 94400, Note_on_c, 0, 60, 69
1, 94400, Note_on_c, 0, 69, 69
1, 94400, Note_on_c, 0, 72, 82
1, 94400, Note_on_c, 0, 40, 48
1, 94400, Note_on_c, 0, 52, 58
1, 94480, Note_on_c, 0, 52, 0
1, 94480, Note_on_c, 0, 72, 0
1, 94480, Note_on_c, 0, 60, 0
1, 94480, Note_on_c, 0, 69, 0
1, 94480, Note_on_c, 0, 40, 0
1, 94560, Tempo, 466273
1, 94560, Note_on_c, 0, 69, 71
1, 94560, Note_on_c, 0, 60, 71
1, 94560, Note_on_c, 0, 72, 83
1, 94560, Note_on_c, 0, 40, 49
1, 94560, Note_on_c, 0, 52, 58
1, 94640, Note_on_c, 0, 52, 0
1, 94640, Note_on_c, 0, 72, 0
1, 94640, Note_on_c, 0, 69, 0
1, 94640, Note_on_c, 0, 60, 0
1, 94640, Note_on_c, 0, 40, 0
1, 94720, Tempo, 453446
1, 94720, Note_on_c, 0, 61, 71
1, 94720, Note_on_c, 0, 69, 71
1, 94720, Note_on_c, 0, 73, 84
1, 94720, Note_on_c, 0, 40, 50
1, 94720, Note_on_c, 0, 52, 59
1, 94752, Control_c, 0, 64, 0
1, 94783, Control_c, 0, 64, 127
1, 94800, Note_on_c, 0, 52, 0
1, 94800, Note_on_c, 0, 73, 0
1, 94800, Note_on_c, 0, 61, 0
1, 94800, Note_on_c, 0, 69, 0
1, 94800, Note_on_c, 0, 40, 0
1, 94880, Tempo, 477479
1, 94880, Note_on_c, 0, 61, 71
1, 94880, Note_on_c, 0, 69, 71
1, 94880, Note_on_c, 0, 73, 85
1, 94880, Note_on_c, 0, 40, 51
1, 94880, Note_on_c, 0, 52, 61
1, 94960, Note_on_c, 0, 52, 0
1, 94960, Note_on_c, 0, 73, 0
1, 94960, Note_on_c, 0, 61, 0
1, 94960, Note_on_c, 0, 69, 0
1, 94960, Note_on_c, 0, 40, 0
1, 95040, Tempo, 484457
1, 95040, Note_on_c, 0, 61, 72
1, 95040, Note_on_c, 0, 69, 72
1, 95040, Note_on_c, 0, 73, 86
1, 95040, Note_on_c, 0, 40, 52
1, 95040, Note_on_c, 0, 52, 62
1, 95120, Note_on_c, 0, 52, 0
1, 95120, Note_on_c, 0, 73, 0
1, 95120, Note_on_c, 0, 61, 0
1, 95120, Note_on_c, 0, 69, 0
1, 95120, Note_on_c, 0, 40, 0
1, 95200, Tempo, 457666
1, 95200, Note_on_c, 0, 73, 88
1, 95200, Note_on_c, 0, 61, 73
1, 95200, Note_on_c, 0, 69, 73
1, 95200, Note_on_c, 0, 39, 52
1, 95200, Note_on_c, 0, 51, 62
1, 95229, Control_c, 0, 64, 0
1, 95277, Control_c, 0, 64, 127
1, 95280, Note_on_c, 0, 51, 0
1, 95280, Note_on_c, 0, 69, 0
1, 95280, Note_on_c, 0, 73, 0
1, 95280, Note_on_c, 0, 61, 0
1, 95280, Note_on_c, 0, 39, 0
1, 95360, Tempo, 472925
1, 95360, Note_on_c, 0, 61, 75
1, 95360, Note_on_c, 0, 69, 75
1, 95360, Note_on_c, 0, 73, 90
1, 95360, Note_on_c, 0, 39, 53
1, 95360, Note_on_c, 0, 51, 63
1, 95440, Note_on_c, 0, 51, 0
1, 95440, Note_on_c, 0, 73, 0
1, 95440, Note_on_c, 0, 61, 0
1, 95440, Note_on_c, 0, 69, 0
1, 95440, Note_on_c, 0, 39, 0
1, 95520, Tempo, 472925
1, 95520, Note_on_c, 0, 61, 77
1, 95520, Note_on_c, 0, 69, 77
1, 95520, Note_on_c, 0, 73, 91
1, 95520, Note_on_c, 0, 39, 53
1, 95520, Note_on_c, 0, 51, 64
1, 95600, Note_on_c, 0, 51, 0
1, 95600, Note_on_c, 0, 73, 0
1, 95600, Note_on_c, 0, 61, 0
1, 95600, Note_on_c, 0, 69, 0
1, 95600, Note_on_c, 0, 39, 0
1, 95680, Tempo, 449405
1, 95680, Note_on_c, 0, 61, 78
1, 95680, Note_on_c, 0, 68, 78
1, 95680, Note_on_c, 0, 73, 92
1, 95680, Note_on_c, 0, 40, 55
1, 95680, Note_on_c, 0, 52, 66
1, 95717, Control_c, 0, 64, 0
1, 95740, Tempo, 451399
1, 95760, Note_on_c, 0, 52, 0
1, 95760, Note_on_c, 0, 73, 0
1, 95760, Note_on_c, 0, 61, 0
1, 95760, Note_on_c, 0, 68, 0
1, 95760, Note_on_c, 0, 40, 0
1, 95775, Control_c, 0, 64, 127
1, 95800, Tempo, 453446
1, 95840, Note_on_c, 0, 73, 93
1, 95840, Note_on_c, 0, 61, 79
1, 95840, Note_on_c, 0, 67, 79
1, 95840, Note_on_c, 0, 40, 56
1, 95840, Note_on_c, 0, 52, 67
1, 95860, Tempo, 455581
1, 95920, Tempo, 457666
1, 95920, Note_on_c, 0, 52, 0
1, 95920, Note_on_c, 0, 67, 0
1, 95920, Note_on_c, 0, 73, 0
1, 95920, Note_on_c, 0, 61, 0
1, 95920, Note_on_c, 0, 40, 0
1, 95980, Tempo, 459770
1, 96000, Tempo, 523241
1, 96000, Note_on_c, 0, 61, 73
1, 96000, Note_on_c, 0, 68, 86
1, 96000, Note_on_c, 0, 73, 102
1, 96000, Note_on_c, 0, 41, 52
1, 96000, Note_on_c, 0, 53, 74
1, 96012, Control_c, 0, 64, 0
1, 96064, Control_c, 0, 64, 127
1, 96080, Note_on_c, 0, 53, 0
1, 96080, Note_on_c, 0, 73, 0
1, 96080, Note_on_c, 0, 61, 0
1, 96080, Note_on_c, 0, 68, 0
1, 96080, Note_on_c, 0, 41, 0
1, 96120, Tempo, 488878
1, 96160, Note_on_c, 0, 65, 68
1, 96160, Note_on_c, 0, 68, 80
1, 96160, Note_on_c, 0, 77, 95
1, 96160, Note_on_c, 0, 56, 50
1, 96160, Note_on_c, 0, 49, 50
1, 96160, Note_on_c, 0, 61, 71
1, 96320, Note_on_c, 0, 61, 0
1, 96320, Note_on_c, 0, 68, 0
1, 96320, Note_on_c, 0, 77, 0
1, 96320, Note_on_c, 0, 65, 0
1, 96320, Note_on_c, 0, 49, 0
1, 96320, Note_on_c, 0, 56, 0
1, 96320, Note_on_c, 0, 65, 68
1, 96320, Note_on_c, 0, 68, 80
1, 96320, Note_on_c, 0, 77, 95
1, 96320, Note_on_c, 0, 56, 51
1, 96320, Note_on_c, 0, 49, 51
1, 96320, Note_on_c, 0, 61, 72
1, 96360, Tempo, 510291
1, 96480, Tempo, 490918
1, 96480, Note_on_c, 0, 61, 0
1, 96480, Note_on_c, 0, 68, 0
1, 96480, Note_on_c, 0, 77, 0
1, 96480, Note_on_c, 0, 65, 0
1, 96480, Note_on_c, 0, 49, 0
1, 96480, Note_on_c, 0, 56, 0
1, 96480, Note_on_c, 0, 65, 72
1, 96480, Note_on_c, 0, 68, 85
1, 96480, Note_on_c, 0, 77, 101
1, 96480, Note_on_c, 0, 49, 53
1, 96480, Note_on_c, 0, 56, 53
1, 96480, Note_on_c, 0, 61, 75
1, 96494, Control_c, 0, 64, 0
1, 96554, Control_c, 0, 64, 127
1, 96640, Note_on_c, 0, 61, 0
1, 96640, Note_on_c, 0, 68, 0
1, 96640, Note_on_c, 0, 77, 0
1, 96640, Note_on_c, 0, 65, 0
1, 96640, Note_on_c, 0, 56, 0
1, 96640, Note_on_c, 0, 49, 0
1, 96640, Note_on_c, 0, 75, 95
1, 96640, Note_on_c, 0, 63, 68
1, 96720, Tempo, 498008
1, 96800, Note_on_c, 0, 63, 0
1, 96800, Note_on_c, 0, 75, 0
1, 96800, Note_on_c, 0, 61, 68
1, 96800, Note_on_c, 0, 73, 95
1, 96960, Tempo, 541077
1, 96960, Note_on_c, 0, 73, 0
1, 96960, Note_on_c, 0, 61, 0
1, 96960, Note_on_c, 0, 30, 68
1, 96960, Note_on_c, 0, 42, 96
1, 96964, Control_c, 0, 64, 0
1, 97024, Control_c, 0, 64, 127
1, 97080, Tempo, 493178
1, 97120, Note_on_c, 0, 42, 0
1, 97120, Note_on_c, 0, 30, 0
1, 97120, Note_on_c, 0, 65, 68
1, 97120, Note_on_c, 0, 70, 80
1, 97120, Note_on_c, 0, 77, 95
1, 97120, Note_on_c, 0, 54, 50
1, 97120, Note_on_c, 0, 49, 50
1, 97120, Note_on_c, 0, 61, 71
1, 97280, Note_on_c, 0, 61, 0
1, 97280, Note_on_c, 0, 70, 0
1, 97280, Note_on_c, 0, 77, 0
1, 97280, Note_on_c, 0, 65, 0
1, 97280, Note_on_c, 0, 49, 0
1, 97280, Note_on_c, 0, 54, 0
1, 97280, Note_on_c, 0, 65, 68
1, 97280, Note_on_c, 0, 70, 80
1, 97280, Note_on_c, 0, 77, 95
1, 97280, Note_on_c, 0, 54, 51
1, 97280, Note_on_c, 0, 49, 51
1, 97280, Note_on_c, 0, 61, 72
1, 97320, Tempo, 512821
1, 97440, Tempo, 498008
1, 97440, Note_on_c, 0, 61, 0
1, 97440, Note_on_c, 0, 70, 0
1, 97440, Note_on_c, 0, 77, 0
1, 97440, Note_on_c, 0, 65, 0
1, 97440, Note_on_c, 0, 49, 0
1, 97440, Note_on_c, 0, 54, 0
1, 97440, Note_on_c, 0, 65, 72
1, 97440, Note_on_c, 0, 70, 85
1, 97440, Note_on_c, 0, 77, 101
1, 97440, Note_on_c, 0, 49, 53
1, 97440, Note_on_c, 0, 54, 53
1, 97440, Note_on_c, 0, 61, 75
1, 97454, Control_c, 0, 64, 0
1, 97514, Control_c, 0, 64, 127
1, 97600, Note_on_c, 0, 61, 0
1, 97600, Note_on_c, 0, 70, 0
1, 97600, Note_on_c, 0, 77, 0
1, 97600, Note_on_c, 0, 65, 0
1, 97600, Note_on_c, 0, 54, 0
1, 97600, Note_on_c, 0, 49, 0
1, 97600, Note_on_c, 0, 75, 95
1, 97600, Note_on_c, 0, 63, 68
1, 97680, Tempo, 507786
1, 97760, Note_on_c, 0, 63, 0
1, 97760, Note_on_c, 0, 75, 0
1, 97760, Note_on_c, 0, 61, 68
1, 97760, Note_on_c, 0, 73, 95
1, 97920, Tempo, 536769
1, 97920, Note_on_c, 0, 73, 0
1, 97920, Note_on_c, 0, 61, 0
1, 97920, Note_on_c, 0, 32, 68
1, 97920, Note_on_c, 0, 44, 96
1, 97934, Control_c, 0, 64, 0
1, 97984, Control_c, 0, 64, 127
1, 98040, Tempo, 493178
1, 98080, Note_on_c, 0, 44, 0
1, 98080, Note_on_c, 0, 32, 0
1, 98080, Note_on_c, 0, 65, 68
1, 98080, Note_on_c, 0, 68, 80
1, 98080, Note_on_c, 0, 77, 95
1, 98080, Note_on_c, 0, 56, 50
1, 98080, Note_on_c, 0, 49, 50
1, 98080, Note_on_c, 0, 61, 71
1, 98240, Note_on_c, 0, 61, 0
1, 98240, Note_on_c, 0, 68, 0
1, 98240, Note_on_c, 0, 77, 0
1, 98240, Note_on_c, 0, 65, 0
1, 98240, Note_on_c, 0, 49, 0
1, 98240, Note_on_c, 0, 56, 0
1, 98240, Note_on_c, 0, 65, 68
1, 98240, Note_on_c, 0, 68, 80
1, 98240, Note_on_c, 0, 77, 95
1, 98240, Note_on_c, 0, 56, 51
1, 98240, Note_on_c, 0, 49, 51
1, 98240, Note_on_c, 0, 61, 72
1, 98280, Tempo, 515375
1, 98400, Tempo, 495663
1, 98400, Note_on_c, 0, 61, 0
1, 98400, Note_on_c, 0, 68, 0
1, 98400, Note_on_c, 0, 77, 0
1, 98400, Note_on_c, 0, 65, 0
1, 98400, Note_on_c, 0, 49, 0
1, 98400, Note_on_c, 0, 56, 0
1, 98400, Note_on_c, 0, 65, 72
1, 98400, Note_on_c, 0, 68, 85
1, 98400, Note_on_c, 0, 77, 101
1, 98400, Note_on_c, 0, 49, 53
1, 98400, Note_on_c, 0, 56, 53
1, 98400, Note_on_c, 0, 61, 75
1, 98414, Control_c, 0, 64, 0
1, 98474, Control_c, 0, 64, 127
1, 98560, Note_on_c, 0, 61, 0
1, 98560, Note_on_c, 0, 68, 0
1, 98560, Note_on_c, 0, 77, 0
1, 98560, Note_on_c, 0, 65, 0
1, 98560, Note_on_c, 0, 56, 0
1, 98560, Note_on_c, 0, 49, 0
1, 98560, Note_on_c, 0, 75, 95
1, 98560, Note_on_c, 0, 63, 68
1, 98720, Note_on_c, 0, 63, 0
1, 98720, Note_on_c, 0, 75, 0
1, 98720, Note_on_c, 0, 61, 68
1, 98720, Note_on_c, 0, 73, 95
1, 98880, Tempo, 545207
1, 98880, Note_on_c, 0, 73, 0
1, 98880, Note_on_c, 0, 61, 0
1, 98880, Note_on_c, 0, 34, 68
1, 98880, Note_on_c, 0, 46, 96
1, 98892, Control_c, 0, 64, 0
1, 98944, Control_c, 0, 64, 127
1, 99040, Tempo, 512821
1, 99040, Note_on_c, 0, 46, 0
1, 99040, Note_on_c, 0, 34, 0
1, 99040, Note_on_c, 0, 65, 68
1, 99040, Note_on_c, 0, 67, 80
1, 99040, Note_on_c, 0, 77, 95
1, 99040, Note_on_c, 0, 58, 50
1, 99040, Note_on_c, 0, 51, 50
1, 99040, Note_on_c, 0, 61, 71
1, 99080, Tempo, 517866
1, 99120, Tempo, 520562
1, 99160, Tempo, 523149
1, 99200, Tempo, 528448
1, 99200, Note_on_c, 0, 61, 0
1, 99200, Note_on_c, 0, 67, 0
1, 99200, Note_on_c, 0, 77, 0
1, 99200, Note_on_c, 0, 65, 0
1, 99200, Note_on_c, 0, 51, 0
1, 99200, Note_on_c, 0, 58, 0
1, 99200, Note_on_c, 0, 65, 68
1, 99200, Note_on_c, 0, 67, 80
1, 99200, Note_on_c, 0, 77, 95
1, 99200, Note_on_c, 0, 58, 51
1, 99200, Note_on_c, 0, 51, 51
1, 99200, Note_on_c, 0, 61, 72
1, 99240, Tempo, 531208
1, 99280, Tempo, 533950
1, 99320, Tempo, 539520
1, 99340, Tempo, 542348
1, 99360, Tempo, 545207
1, 99360, Note_on_c, 0, 61, 0
1, 99360, Note_on_c, 0, 67, 0
1, 99360, Note_on_c, 0, 77, 0
1, 99360, Note_on_c, 0, 65, 0
1, 99360, Note_on_c, 0, 51, 0
1, 99360, Note_on_c, 0, 58, 0
1, 99360, Note_on_c, 0, 65, 72
1, 99360, Note_on_c, 0, 67, 85
1, 99360, Note_on_c, 0, 77, 101
1, 99360, Note_on_c, 0, 51, 53
1, 99360, Note_on_c, 0, 58, 53
1, 99360, Note_on_c, 0, 61, 75
1, 99374, Control_c, 0, 64, 0
1, 99380, Tempo, 548145
1, 99400, Tempo, 551015
1, 99434, Control_c, 0, 64, 127
1, 99440, Tempo, 554017
1, 99460, Tempo, 556948
1, 99480, Tempo, 559910
1, 99520, Tempo, 563010
1, 99520, Note_on_c, 0, 61, 0
1, 99520, Note_on_c, 0, 67, 0
1, 99520, Note_on_c, 0, 77, 0
1, 99520, Note_on_c, 0, 65, 0
1, 99520, Note_on_c, 0, 58, 0
1, 99520, Note_on_c, 0, 51, 0
1, 99520, Note_on_c, 0, 75, 95
1, 99520, Note_on_c, 0, 63, 68
1, 99540, Tempo, 566091
1, 99560, Tempo, 569260
1, 99580, Tempo, 572301
1, 99680, Note_on_c, 0, 63, 0
1, 99680, Note_on_c, 0, 75, 0
1, 99680, Note_on_c, 0, 61, 68
1, 99680, Note_on_c, 0, 73, 95
1, 99840, Tempo, 508475
1, 99840, Note_on_c, 0, 73, 0
1, 99840, Note_on_c, 0, 61, 0
1, 99840, Note_on_c, 0, 51, 84
1, 99840, Note_on_c, 0, 55, 84
1, 99840, Note_on_c, 0, 61, 95
1, 99840, Note_on_c, 0, 63, 101
1, 99840, Note_on_c, 0, 27, 59
1, 99840, Note_on_c, 0, 39, 70
1, 99848, Control_c, 0, 64, 0
1, 100067, Control_c, 0, 64, 127
1, 101760, Tempo, 535714
1, 101760, Note_on_c, 0, 39, 0
1, 101760, Note_on_c, 0, 55, 0
1, 101760, Note_on_c, 0, 61, 0
1, 101760, Note_on_c, 0, 51, 0
1, 101760, Note_on_c, 0, 27, 0
1, 101760, Note_on_c, 0, 63, 0
1, 101760, Note_on_c, 0, 54, 80
1, 101760, Note_on_c, 0, 60, 80
1, 101760, Note_on_c, 0, 65, 95
1, 101760, Note_on_c, 0, 32, 56
1, 101760, Note_on_c, 0, 44, 66
1, 101765, Control_c, 0, 64, 0
1, 102040, Control_c, 0, 64, 127
1, 103680, Tempo, 500835
1, 103680, Marker_t, "Teil 1 Wiederholung"
1, 103680, Note_on_c, 0, 44, 0
1, 103680, Note_on_c, 0, 65, 0
1, 103680, Note_on_c, 0, 54, 0
1, 103680, Note_on_c, 0, 60, 0
1, 103680, Note_on_c, 0, 32, 0
1, 103680, Note_on_c, 0, 34, 44
1, 103680, Note_on_c, 0, 46, 52
1, 103680, Control_c, 0, 64, 0
1, 103744, Control_c, 0, 64, 127
1, 103800, Note_on_c, 0, 46, 0
1, 103800, Note_on_c, 0, 34, 0
1, 103800, Note_on_c, 0, 53, 29
1, 103920, Note_on_c, 0, 53, 0
1, 103920, Note_on_c, 0, 49, 22
1, 103920, Note_on_c, 0, 61, 26
1, 103920, Note_on_c, 0, 58, 22
1, 104000, Tempo, 498422
1, 104040, Note_on_c, 0, 58, 0
1, 104040, Note_on_c, 0, 61, 0
1, 104040, Note_on_c, 0, 49, 0
1, 104040, Note_on_c, 0, 41, 33
1, 104160, Note_on_c, 0, 41, 0
1, 104160, Note_on_c, 0, 34, 25
1, 104160, Note_on_c, 0, 46, 29
1, 104280, Note_on_c, 0, 46, 0
1, 104280, Note_on_c, 0, 34, 0
1, 104280, Note_on_c, 0, 53, 29
1, 104320, Tempo, 496073
1, 104400, Note_on_c, 0, 53, 0
1, 104400, Note_on_c, 0, 49, 23
1, 104400, Note_on_c, 0, 61, 27
1, 104400, Note_on_c, 0, 58, 23
1, 104520, Note_on_c, 0, 58, 0
1, 104520, Note_on_c, 0, 61, 0
1, 104520, Note_on_c, 0, 49, 0
1, 104520, Note_on_c, 0, 41, 35
1, 104640, Tempo, 493827
1, 104640, Note_on_c, 0, 41, 0
1, 104640, Note_on_c, 0, 34, 27
1, 104640, Note_on_c, 0, 46, 33
1, 104760, Note_on_c, 0, 46, 0
1, 104760, Note_on_c, 0, 34, 0
1, 104760, Note_on_c, 0, 53, 30
1, 104800, Tempo, 491803
1, 104880, Note_on_c, 0, 53, 0
1, 104880, Note_on_c, 0, 49, 24
1, 104880, Note_on_c, 0, 61, 29
1, 104880, Note_on_c, 0, 58, 24
1, 104920, Tempo, 489796
1, 105000, Note_on_c, 0, 58, 0
1, 105000, Note_on_c, 0, 61, 0
1, 105000, Note_on_c, 0, 49, 0
1, 105000, Note_on_c, 0, 41, 35
1, 105080, Tempo, 487805
1, 105120, Note_on_c, 0, 41, 0
1, 105120, Note_on_c, 0, 34, 28
1, 105120, Note_on_c, 0, 46, 34
1, 105200, Tempo, 485830
1, 105240, Note_on_c, 0, 46, 0
1, 105240, Note_on_c, 0, 34, 0
1, 105240, Note_on_c, 0, 53, 35
1, 105360, Tempo, 483871
1, 105360, Note_on_c, 0, 53, 0
1, 105360, Note_on_c, 0, 49, 26
1, 105360, Note_on_c, 0, 61, 31
1, 105360, Note_on_c, 0, 58, 26
1, 105480, Tempo, 481928
1, 105480, Note_on_c, 0, 58, 0
1, 105480, Note_on_c, 0, 61, 0
1, 105480, Note_on_c, 0, 49, 0
1, 105480, Note_on_c, 0, 41, 39
1, 105600, Tempo, 482548
1, 105600, Note_on_c, 0, 41, 0
1, 105600, Note_on_c, 0, 34, 30
1, 105600, Note_on_c, 0, 46, 38
1, 105720, Note_on_c, 0, 46, 0
1, 105720, Note_on_c, 0, 34, 0
1, 105720, Note_on_c, 0, 53, 35
1, 105800, Tempo, 484496
1, 105840, Note_on_c, 0, 53, 0
1, 105840, Note_on_c, 0, 49, 28
1, 105840, Note_on_c, 0, 61, 34
1, 105840, Note_on_c, 0, 58, 28
1, 105960, Note_on_c, 0, 58, 0
1, 105960, Note_on_c, 0, 61, 0
1, 105960, Note_on_c, 0, 49, 0
1, 105960, Note_on_c, 0, 41, 39
1, 106000, Tempo, 486460
1, 106080, Note_on_c, 0, 41, 0
1, 106080, Note_on_c, 0, 34, 29
1, 106080, Note_on_c, 0, 46, 35
1, 106200, Tempo, 488440
1, 106200, Note_on_c, 0, 46, 0
1, 106200, Note_on_c, 0, 34, 0
1, 106200, Note_on_c, 0, 53, 34
1, 106320, Note_on_c, 0, 53, 0
1, 106320, Note_on_c, 0, 49, 25
1, 106320, Note_on_c, 0, 61, 30
1, 106320, Note_on_c, 0, 58, 25
1, 106400, Tempo, 490436
1, 106440, Note_on_c, 0, 58, 0
1, 106440, Note_on_c, 0, 61, 0
1, 106440, Note_on_c, 0, 49, 0
1, 106440, Note_on_c, 0, 41, 36
1, 106560, Note_on_c, 0, 41, 0
1, 106560, Note_on_c, 0, 34, 27
1, 106560, Note_on_c, 0, 46, 33
1, 106600, Tempo, 492449
1, 106680, Note_on_c, 0, 46, 0
1, 106680, Note_on_c, 0, 34, 0
1, 106680, Note_on_c, 0, 53, 30
1, 106800, Note_on_c, 0, 53, 0
1, 106800, Note_on_c, 0, 49, 24
1, 106800, Note_on_c, 0, 61, 29
1, 106800, Note_on_c, 0, 58, 24
1, 106920, Note_on_c, 0, 58, 0
1, 106920, Note_on_c, 0, 61, 0
1, 106920, Note_on_c, 0, 49, 0
1, 106920, Note_on_c, 0, 41, 35
1, 107040, Tempo, 496073
1, 107040, Note_on_c, 0, 41, 0
1, 107040, Note_on_c, 0, 34, 25
1, 107040, Note_on_c, 0, 46, 29
1, 107160, Note_on_c, 0, 46, 0
1, 107160, Note_on_c, 0, 34, 0
1, 107160, Note_on_c, 0, 53, 29
1, 107280, Note_on_c, 0, 53, 0
1, 107280, Note_on_c, 0, 49, 24
1, 107280, Note_on_c, 0, 61, 28
1, 107280, Note_on_c, 0, 58, 24
1, 107400, Note_on_c, 0, 58, 0
1, 107400, Note_on_c, 0, 61, 0
1, 107400, Note_on_c, 0, 49, 0
1, 107400, Note_on_c, 0, 53, 33
1, 107520, Tempo, 498422
1, 107520, Note_on_c, 0, 53, 0
1, 107520, Note_on_c, 0, 73, 54
1, 107520, Note_on_c, 0, 46, 35
1, 107530, Control_c, 0, 64, 0
1, 107592, Control_c, 0, 64, 127
1, 107640, Note_on_c, 0, 46, 0
1, 107640, Note_on_c, 0, 73, 0
1, 107640, Note_on_c, 0, 70, 51
1, 107640, Note_on_c, 0, 53, 34
1, 107700, Note_on_c, 0, 70, 0
1, 107760, Tempo, 498422
1, 107760, Note_on_c, 0, 53, 0
1, 107760, Note_on_c, 0, 61, 30
1, 107760, Note_on_c, 0, 58, 30
1, 107880, Note_on_c, 0, 58, 0
1, 107880, Note_on_c, 0, 61, 0
1, 107880, Note_on_c, 0, 72, 51
1, 107880, Note_on_c, 0, 53, 31
1, 108000, Tempo, 491400
1, 108000, Note_on_c, 0, 53, 0
1, 108000, Note_on_c, 0, 72, 0
1, 108000, Note_on_c, 0, 73, 54
1, 108000, Note_on_c, 0, 46, 35
1, 108012, Control_c, 0, 64, 0
1, 108061, Control_c, 0, 64, 127
1, 108120, Note_on_c, 0, 46, 0
1, 108120, Note_on_c, 0, 73, 0
1, 108120, Note_on_c, 0, 70, 51
1, 108120, Note_on_c, 0, 53, 33
1, 108180, Note_on_c, 0, 70, 0
1, 108240, Tempo, 498422
1, 108240, Note_on_c, 0, 53, 0
1, 108240, Note_on_c, 0, 61, 31
1, 108240, Note_on_c, 0, 58, 31
1, 108360, Note_on_c, 0, 58, 0
1, 108360, Note_on_c, 0, 61, 0
1, 108360, Note_on_c, 0, 53, 31
1, 108480, Tempo, 489117
1, 108480, Note_on_c, 0, 53, 0
1, 108480, Note_on_c, 0, 73, 54
1, 108480, Note_on_c, 0, 46, 35
1, 108495, Control_c, 0, 64, 0
1, 108559, Control_c, 0, 64, 127
1, 108600, Note_on_c, 0, 46, 0
1, 108600, Note_on_c, 0, 73, 0
1, 108600, Note_on_c, 0, 70, 51
1, 108600, Note_on_c, 0, 53, 34
1, 108660, Note_on_c, 0, 70, 0
1, 108720, Tempo, 498422
1, 108720, Note_on_c, 0, 53, 0
1, 108720, Note_on_c, 0, 61, 31
1, 108720, Note_on_c, 0, 58, 31
1, 108840, Note_on_c, 0, 58, 0
1, 108840, Note_on_c, 0, 61, 0
1, 108840, Note_on_c, 0, 72, 51
1, 108840, Note_on_c, 0, 53, 31
1, 108960, Tempo, 491400
1, 108960, Note_on_c, 0, 53, 0
1, 108960, Note_on_c, 0, 72, 0
1, 108960, Note_on_c, 0, 73, 54
1, 108960, Note_on_c, 0, 46, 35
1, 108975, Control_c, 0, 64, 0
1, 109021, Control_c, 0, 64, 127
1, 109080, Note_on_c, 0, 46, 0
1, 109080, Note_on_c, 0, 73, 0
1, 109080, Note_on_c, 0, 70, 51
1, 109080, Note_on_c, 0, 53, 33
1, 109140, Note_on_c, 0, 70, 0
1, 109200, Tempo, 498422
1, 109200, Note_on_c, 0, 53, 0
1, 109200, Note_on_c, 0, 61, 31
1, 109200, Note_on_c, 0, 58, 31
1, 109320, Note_on_c, 0, 58, 0
1, 109320, Note_on_c, 0, 61, 0
1, 109320, Note_on_c, 0, 53, 31
1, 109440, Tempo, 491400
1, 109440, Note_on_c, 0, 53, 0
1, 109440, Note_on_c, 0, 73, 54
1, 109440, Note_on_c, 0, 46, 35
1, 109452, Control_c, 0, 64, 0
1, 109497, Control_c, 0, 64, 127
1, 109560, Note_on_c, 0, 46, 0
1, 109560, Note_on_c, 0, 73, 0
1, 109560, Note_on_c, 0, 70, 51
1, 109560, Note_on_c, 0, 53, 33
1, 109620, Note_on_c, 0, 70, 0
1, 109680, Tempo, 498422
1, 109680, Note_on_c, 0, 53, 0
1, 109680, Note_on_c, 0, 61, 31
1, 109680, Note_on_c, 0, 58, 31
1, 109800, Note_on_c, 0, 58, 0
1, 109800, Note_on_c, 0, 61, 0
1, 109800, Note_on_c, 0, 72, 61
1, 109800, Note_on_c, 0, 53, 33
1, 109920, Tempo, 489117
1, 109920, Note_on_c, 0, 53, 0
1, 109920, Note_on_c, 0, 72, 0
1, 109920, Note_on_c, 0, 73, 66
1, 109920, Note_on_c, 0, 46, 37
1, 109934, Control_c, 0, 64, 0
1, 109985, Control_c, 0, 64, 127
1, 110040, Note_on_c, 0, 46, 0
1, 110040, Note_on_c, 0, 73, 0
1, 110040, Note_on_c, 0, 82, 64
1, 110040, Note_on_c, 0, 53, 35
1, 110100, Note_on_c, 0, 82, 0
1, 110160, Tempo, 513128
1, 110160, Note_on_c, 0, 53, 0
1, 110160, Note_on_c, 0, 61, 34
1, 110160, Note_on_c, 0, 58, 34
1, 110280, Note_on_c, 0, 58, 0
1, 110280, Note_on_c, 0, 61, 0
1, 110280, Note_on_c, 0, 53, 34
1, 110400, Tempo, 491400
1, 110400, Note_on_c, 0, 53, 0
1, 110400, Note_on_c, 0, 81, 64
1, 110400, Note_on_c, 0, 48, 35
1, 110411, Control_c, 0, 64, 0
1, 110452, Control_c, 0, 64, 127
1, 110520, Note_on_c, 0, 48, 0
1, 110520, Note_on_c, 0, 81, 0
1, 110520, Note_on_c, 0, 72, 59
1, 110520, Note_on_c, 0, 54, 34
1, 110580, Note_on_c, 0, 72, 0
1, 110640, Tempo, 498422
1, 110640, Note_on_c, 0, 54, 0
1, 110640, Note_on_c, 0, 63, 30
1, 110640, Note_on_c, 0, 57, 30
1, 110760, Note_on_c, 0, 57, 0
1, 110760, Note_on_c, 0, 63, 0
1, 110760, Note_on_c, 0, 73, 51
1, 110760, Note_on_c, 0, 54, 31
1, 110880, Tempo, 491400
1, 110880, Note_on_c, 0, 54, 0
1, 110880, Note_on_c, 0, 73, 0
1, 110880, Note_on_c, 0, 75, 54
1, 110880, Note_on_c, 0, 48, 35
1, 110896, Control_c, 0, 64, 0
1, 110934, Control_c, 0, 64, 127
1, 111000, Note_on_c, 0, 48, 0
1, 111000, Note_on_c, 0, 75, 0
1, 111000, Note_on_c, 0, 72, 51
1, 111000, Note_on_c, 0, 54, 33
1, 111060, Note_on_c, 0, 72, 0
1, 111120, Tempo, 498422
1, 111120, Note_on_c, 0, 54, 0
1, 111120, Note_on_c, 0, 63, 31
1, 111120, Note_on_c, 0, 57, 31
1, 111240, Note_on_c, 0, 57, 0
1, 111240, Note_on_c, 0, 63, 0
1, 111240, Note_on_c, 0, 54, 31
1, 111360, Tempo, 493705
1, 111360, Note_on_c, 0, 54, 0
1, 111360, Note_on_c, 0, 78, 57
1, 111360, Note_on_c, 0, 48, 35
1, 111372, Control_c, 0, 64, 0
1, 111412, Control_c, 0, 64, 127
1, 111480, Note_on_c, 0, 48, 0
1, 111480, Note_on_c, 0, 78, 0
1, 111480, Note_on_c, 0, 72, 51
1, 111480, Note_on_c, 0, 51, 34
1, 111540, Note_on_c, 0, 72, 0
1, 111600, Tempo, 498422
1, 111600, Note_on_c, 0, 51, 0
1, 111600, Note_on_c, 0, 63, 30
1, 111600, Note_on_c, 0, 57, 30
1, 111720, Note_on_c, 0, 57, 0
1, 111720, Note_on_c, 0, 63, 0
1, 111720, Note_on_c, 0, 73, 51
1, 111720, Note_on_c, 0, 51, 31
1, 111840, Tempo, 491400
1, 111840, Note_on_c, 0, 51, 0
1, 111840, Note_on_c, 0, 73, 0
1, 111840, Note_on_c, 0, 75, 54
1, 111840, Note_on_c, 0, 48, 35
1, 111851, Control_c, 0, 64, 0
1, 111890, Control_c, 0, 64, 127
1, 111960, Note_on_c, 0, 48, 0
1, 111960, Note_on_c, 0, 75, 0
1, 111960, Note_on_c, 0, 72, 51
1, 111960, Note_on_c, 0, 54, 33
1, 112020, Note_on_c, 0, 72, 0
1, 112080, Tempo, 498422
1, 112080, Note_on_c, 0, 54, 0
1, 112080, Note_on_c, 0, 63, 31
1, 112080, Note_on_c, 0, 57, 31
1, 112200, Note_on_c, 0, 57, 0
1, 112200, Note_on_c, 0, 63, 0
1, 112200, Note_on_c, 0, 54, 31
1, 112320, Tempo, 493705
1, 112320, Note_on_c, 0, 54, 0
1, 112320, Note_on_c, 0, 78, 57
1, 112320, Note_on_c, 0, 48, 35
1, 112336, Control_c, 0, 64, 0
1, 112372, Control_c, 0, 64, 127
1, 112440, Note_on_c, 0, 48, 0
1, 112440, Note_on_c, 0, 78, 0
1, 112440, Note_on_c, 0, 72, 51
1, 112440, Note_on_c, 0, 51, 34
1, 112500, Note_on_c, 0, 72, 0
1, 112560, Tempo, 498422
1, 112560, Note_on_c, 0, 51, 0
1, 112560, Note_on_c, 0, 63, 30
1, 112560, Note_on_c, 0, 57, 30
1, 112680, Note_on_c, 0, 57, 0
1, 112680, Note_on_c, 0, 63, 0
1, 112680, Note_on_c, 0, 73, 51
1, 112680, Note_on_c, 0, 51, 31
1, 112800, Tempo, 491400
1, 112800, Note_on_c, 0, 51, 0
1, 112800, Note_on_c, 0, 73, 0
1, 112800, Note_on_c, 0, 75, 54
1, 112800, Note_on_c, 0, 48, 35
1, 112819, Control_c, 0, 64, 0
1, 112850, Control_c, 0, 64, 127
1, 112920, Note_on_c, 0, 48, 0
1, 112920, Note_on_c, 0, 75, 0
1, 112920, Note_on_c, 0, 72, 51
1, 112920, Note_on_c, 0, 54, 33
1, 112980, Note_on_c, 0, 72, 0
1, 113040, Tempo, 498422
1, 113040, Note_on_c, 0, 54, 0
1, 113040, Note_on_c, 0, 63, 31
1, 113040, Note_on_c, 0, 57, 31
1, 113160, Note_on_c, 0, 57, 0
1, 113160, Note_on_c, 0, 63, 0
1, 113160, Note_on_c, 0, 54, 31
1, 113280, Tempo, 493705
1, 113280, Note_on_c, 0, 54, 0
1, 113280, Note_on_c, 0, 78, 60
1, 113280, Note_on_c, 0, 48, 35
1, 113290, Control_c, 0, 64, 0
1, 113332, Control_c, 0, 64, 127
1, 113400, Note_on_c, 0, 48, 0
1, 113400, Note_on_c, 0, 78, 0
1, 113400, Note_on_c, 0, 72, 53
1, 113400, Note_on_c, 0, 51, 35
1, 113460, Note_on_c, 0, 72, 0
1, 113520, Tempo, 498422
1, 113520, Note_on_c, 0, 51, 0
1, 113520, Note_on_c, 0, 63, 34
1, 113520, Note_on_c, 0, 57, 34
1, 113640, Note_on_c, 0, 57, 0
1, 113640, Note_on_c, 0, 63, 0
1, 113640, Note_on_c, 0, 73, 65
1, 113640, Note_on_c, 0, 51, 35
1, 113760, Tempo, 491400
1, 113760, Note_on_c, 0, 51, 0
1, 113760, Note_on_c, 0, 73, 0
1, 113760, Note_on_c, 0, 75, 71
1, 113760, Note_on_c, 0, 48, 39
1, 113772, Control_c, 0, 64, 0
1, 113814, Control_c, 0, 64, 127
1, 113880, Note_on_c, 0, 48, 0
1, 113880, Note_on_c, 0, 75, 0
1, 113880, Note_on_c, 0, 84, 64
1, 113880, Note_on_c, 0, 54, 37
1, 113940, Note_on_c, 0, 84, 0
1, 114000, Tempo, 510595
1, 114000, Note_on_c, 0, 54, 0
1, 114000, Note_on_c, 0, 63, 37
1, 114000, Note_on_c, 0, 57, 37
1, 114120, Note_on_c, 0, 57, 0
1, 114120, Note_on_c, 0, 63, 0
1, 114120, Note_on_c, 0, 54, 38
1, 114240, Tempo, 493705
1, 114240, Note_on_c, 0, 54, 0
1, 114240, Note_on_c, 0, 84, 61
1, 114240, Note_on_c, 0, 49, 35
1, 114251, Control_c, 0, 64, 0
1, 114292, Control_c, 0, 64, 127
1, 114360, Note_on_c, 0, 49, 0
1, 114360, Note_on_c, 0, 73, 57
1, 114360, Note_on_c, 0, 53, 34
1, 114420, Note_on_c, 0, 73, 0
1, 114480, Tempo, 498422
1, 114480, Note_on_c, 0, 53, 0
1, 114480, Note_on_c, 0, 84, 0
1, 114480, Note_on_c, 0, 65, 30
1, 114480, Note_on_c, 0, 57, 30
1, 114600, Note_on_c, 0, 57, 0
1, 114600, Note_on_c, 0, 65, 0
1, 114600, Note_on_c, 0, 75, 49
1, 114600, Note_on_c, 0, 53, 31
1, 114720, Tempo, 491400
1, 114720, Note_on_c, 0, 53, 0
1, 114720, Note_on_c, 0, 75, 0
1, 114720, Note_on_c, 0, 82, 52
1, 114720, Note_on_c, 0, 77, 52
1, 114720, Note_on_c, 0, 49, 35
1, 114730, Control_c, 0, 64, 0
1, 114772, Control_c, 0, 64, 127
1, 114840, Note_on_c, 0, 49, 0
1, 114840, Note_on_c, 0, 77, 0
1, 114840, Note_on_c, 0, 73, 49
1, 114840, Note_on_c, 0, 53, 33
1, 114900, Note_on_c, 0, 73, 0
1, 114960, Tempo, 510595
1, 114960, Note_on_c, 0, 53, 0
1, 114960, Note_on_c, 0, 82, 0
1, 114960, Note_on_c, 0, 65, 31
1, 114960, Note_on_c, 0, 58, 31
1, 115080, Note_on_c, 0, 58, 0
1, 115080, Note_on_c, 0, 65, 0
1, 115080, Note_on_c, 0, 53, 31
1, 115200, Tempo, 498422
1, 115200, Note_on_c, 0, 53, 0
1, 115200, Note_on_c, 0, 73, 69
1, 115200, Note_on_c, 0, 85, 82
1, 115200, Note_on_c, 0, 52, 56
1, 115212, Control_c, 0, 64, 0
1, 115252, Control_c, 0, 64, 127
1, 115320, Note_on_c, 0, 52, 0
1, 115320, Note_on_c, 0, 85, 0
1, 115320, Note_on_c, 0, 73, 0
1, 115320, Note_on_c, 0, 84, 75
1, 115320, Note_on_c, 0, 79, 63
1, 115320, Note_on_c, 0, 61, 53
1, 115380, Note_on_c, 0, 79, 0
1, 115380, Note_on_c, 0, 84, 0
1, 115440, Tempo, 505646
1, 115440, Note_on_c, 0, 61, 0
1, 115440, Note_on_c, 0, 67, 50
1, 115560, Note_on_c, 0, 67, 0
1, 115560, Note_on_c, 0, 73, 61
1, 115560, Note_on_c, 0, 82, 72
1, 115560, Note_on_c, 0, 52, 51
1, 115680, Tempo, 491400
1, 115680, Note_on_c, 0, 52, 0
1, 115680, Note_on_c, 0, 82, 0
1, 115680, Note_on_c, 0, 73, 0
1, 115680, Note_on_c, 0, 81, 78
1, 115680, Note_on_c, 0, 77, 64
1, 115680, Note_on_c, 0, 53, 56
1, 115699, Control_c, 0, 64, 0
1, 115744, Control_c, 0, 64, 127
1, 115800, Note_on_c, 0, 53, 0
1, 115800, Note_on_c, 0, 77, 0
1, 115800, Note_on_c, 0, 81, 0
1, 115800, Note_on_c, 0, 72, 57
1, 115800, Note_on_c, 0, 84, 68
1, 115800, Note_on_c, 0, 60, 52
1, 115860, Note_on_c, 0, 84, 0
1, 115860, Note_on_c, 0, 72, 0
1, 115920, Tempo, 510595
1, 115920, Note_on_c, 0, 60, 0
1, 115920, Note_on_c, 0, 69, 58
1, 116040, Note_on_c, 0, 69, 0
1, 116040, Note_on_c, 0, 53, 51
1, 116160, Tempo, 498422
1, 116160, Note_on_c, 0, 53, 0
1, 116160, Note_on_c, 0, 66, 46
1, 116160, Note_on_c, 0, 78, 55
1, 116160, Note_on_c, 0, 45, 33
1, 116171, Control_c, 0, 64, 0
1, 116212, Control_c, 0, 64, 127
1, 116280, Note_on_c, 0, 45, 0
1, 116280, Note_on_c, 0, 78, 0
1, 116280, Note_on_c, 0, 66, 0
1, 116280, Note_on_c, 0, 77, 50
1, 116280, Note_on_c, 0, 72, 42
1, 116280, Note_on_c, 0, 54, 30
1, 116340, Note_on_c, 0, 72, 0
1, 116340, Note_on_c, 0, 77, 0
1, 116400, Tempo, 510595
1, 116400, Note_on_c, 0, 54, 0
1, 116400, Note_on_c, 0, 63, 29
1, 116520, Note_on_c, 0, 63, 0
1, 116520, Note_on_c, 0, 66, 40
1, 116520, Note_on_c, 0, 75, 49
1, 116520, Note_on_c, 0, 45, 29
1, 116640, Tempo, 491400
1, 116640, Note_on_c, 0, 45, 0
1, 116640, Note_on_c, 0, 75, 0
1, 116640, Note_on_c, 0, 66, 0
1, 116640, Note_on_c, 0, 73, 52
1, 116640, Note_on_c, 0, 70, 44
1, 116640, Note_on_c, 0, 46, 33
1, 116659, Control_c, 0, 64, 0
1, 116704, Control_c, 0, 64, 127
1, 116760, Note_on_c, 0, 46, 0
1, 116760, Note_on_c, 0, 70, 0
1, 116760, Note_on_c, 0, 73, 0
1, 116760, Note_on_c, 0, 65, 40
1, 116760, Note_on_c, 0, 77, 49
1, 116760, Note_on_c, 0, 53, 30
1, 116820, Note_on_c, 0, 77, 0
1, 116820, Note_on_c, 0, 65, 0
1, 116880, Tempo, 510595
1, 116880, Note_on_c, 0, 53, 0
1, 116880, Note_on_c, 0, 61, 29
1, 117000, Note_on_c, 0, 61, 0
1, 117000, Note_on_c, 0, 46, 29
1, 117120, Tempo, 498422
1, 117120, Note_on_c, 0, 46, 0
1, 117120, Note_on_c, 0, 73, 69
1, 117120, Note_on_c, 0, 85, 82
1, 117120, Note_on_c, 0, 52, 56
1, 117131, Control_c, 0, 64, 0
1, 117172, Control_c, 0, 64, 127
1, 117240, Note_on_c, 0, 52, 0
1, 117240, Note_on_c, 0, 85, 0
1, 117240, Note_on_c, 0, 73, 0
1, 117240, Note_on_c, 0, 84, 75
1, 117240, Note_on_c, 0, 79, 63
1, 117240, Note_on_c, 0, 61, 53
1, 117300, Note_on_c, 0, 79, 0
1, 117300, Note_on_c, 0, 84, 0
1, 117360, Tempo, 510595
1, 117360, Note_on_c, 0, 61, 0
1, 117360, Note_on_c, 0, 67, 50
1, 117480, Note_on_c, 0, 67, 0
1, 117480, Note_on_c, 0, 73, 61
1, 117480, Note_on_c, 0, 82, 72
1, 117480, Note_on_c, 0, 52, 51
1, 117600, Tempo, 491400
1, 117600, Note_on_c, 0, 52, 0
1, 117600, Note_on_c, 0, 82, 0
1, 117600, Note_on_c, 0, 73, 0
1, 117600, Note_on_c, 0, 81, 78
1, 117600, Note_on_c, 0, 77, 64
1, 117600, Note_on_c, 0, 53, 56
1, 117620, Control_c, 0, 64, 0
1, 117664, Control_c, 0, 64, 127
1, 117720, Note_on_c, 0, 53, 0
1, 117720, Note_on_c, 0, 77, 0
1, 117720, Note_on_c, 0, 81, 0
1, 117720, Note_on_c, 0, 72, 57
1, 117720, Note_on_c, 0, 84, 68
1, 117720, Note_on_c, 0, 60, 52
1, 117780, Note_on_c, 0, 84, 0
1, 117780, Note_on_c, 0, 72, 0
1, 117840, Tempo, 510595
1, 117840, Note_on_c, 0, 60, 0
1, 117840, Note_on_c, 0, 69, 58
1, 117960, Note_on_c, 0, 69, 0
1, 117960, Note_on_c, 0, 53, 51
1, 118080, Tempo, 498422
1, 118080, Note_on_c, 0, 53, 0
1, 118080, Note_on_c, 0, 66, 46
1, 118080, Note_on_c, 0, 78, 55
1, 118080, Note_on_c, 0, 45, 33
1, 118091, Control_c, 0, 64, 0
1, 118132, Control_c, 0, 64, 127
1, 118200, Note_on_c, 0, 45, 0
1, 118200, Note_on_c, 0, 78, 0
1, 118200, Note_on_c, 0, 66, 0
1, 118200, Note_on_c, 0, 77, 50
1, 118200, Note_on_c, 0, 72, 42
1, 118200, Note_on_c, 0, 54, 30
1, 118260, Note_on_c, 0, 72, 0
1, 118260, Note_on_c, 0, 77, 0
1, 118320, Tempo, 510595
1, 118320, Note_on_c, 0, 54, 0
1, 118320, Note_on_c, 0, 63, 29
1, 118440, Note_on_c, 0, 63, 0
1, 118440, Note_on_c, 0, 66, 40
1, 118440, Note_on_c, 0, 75, 49
1, 118440, Note_on_c, 0, 45, 29
1, 118560, Tempo, 491400
1, 118560, Note_on_c, 0, 45, 0
1, 118560, Note_on_c, 0, 75, 0
1, 118560, Note_on_c, 0, 66, 0
1, 118560, Note_on_c, 0, 74, 52
1, 118560, Note_on_c, 0, 70, 44
1, 118560, Note_on_c, 0, 46, 33
1, 118578, Control_c, 0, 64, 0
1, 118624, Control_c, 0, 64, 127
1, 118680, Note_on_c, 0, 46, 0
1, 118680, Note_on_c, 0, 70, 0
1, 118680, Note_on_c, 0, 74, 0
1, 118680, Note_on_c, 0, 73, 40
1, 118680, Note_on_c, 0, 65, 40
1, 118680, Note_on_c, 0, 77, 49
1, 118680, Note_on_c, 0, 53, 30
1, 118740, Note_on_c, 0, 77, 0
1, 118740, Note_on_c, 0, 73, 0
1, 118740, Note_on_c, 0, 65, 0
1, 118800, Tempo, 600000
1, 118800, Note_on_c, 0, 53, 0
1, 118800, Note_on_c, 0, 61, 29
1, 118920, Note_on_c, 0, 61, 0
1, 118920, Note_on_c, 0, 46, 29
1, 119040, Tempo, 519481
1, 119040, Note_on_c, 0, 46, 0
1, 119040, Note_on_c, 0, 82, 75
1, 119040, Note_on_c, 0, 77, 75
1, 119040, Note_on_c, 0, 89, 89
1, 119040, Note_on_c, 0, 43, 56
1, 119052, Control_c, 0, 64, 0
1, 119092, Control_c, 0, 64, 127
1, 119160, Note_on_c, 0, 43, 0
1, 119160, Note_on_c, 0, 82, 0
1, 119160, Note_on_c, 0, 77, 0
1, 119160, Note_on_c, 0, 89, 0
1, 119160, Note_on_c, 0, 88, 83
1, 119160, Note_on_c, 0, 76, 70
1, 119160, Note_on_c, 0, 48, 53
1, 119220, Note_on_c, 0, 76, 0
1, 119220, Note_on_c, 0, 88, 0
1, 119280, Tempo, 533333
1, 119280, Note_on_c, 0, 48, 0
1, 119280, Note_on_c, 0, 49, 50
1, 119400, Note_on_c, 0, 49, 0
1, 119400, Note_on_c, 0, 73, 62
1, 119400, Note_on_c, 0, 85, 75
1, 119400, Note_on_c, 0, 58, 49
1, 119520, Tempo, 510638
1, 119520, Note_on_c, 0, 58, 0
1, 119520, Note_on_c, 0, 85, 0
1, 119520, Note_on_c, 0, 73, 0
1, 119520, Note_on_c, 0, 75, 68
1, 119520, Note_on_c, 0, 84, 80
1, 119520, Note_on_c, 0, 72, 68
1, 119520, Note_on_c, 0, 43, 52
1, 119540, Control_c, 0, 64, 0
1, 119584, Control_c, 0, 64, 127
1, 119640, Note_on_c, 0, 43, 0
1, 119640, Note_on_c, 0, 75, 0
1, 119640, Note_on_c, 0, 84, 0
1, 119640, Note_on_c, 0, 72, 0
1, 119640, Note_on_c, 0, 70, 62
1, 119640, Note_on_c, 0, 82, 75
1, 119640, Note_on_c, 0, 48, 49
1, 119700, Note_on_c, 0, 82, 0
1, 119700, Note_on_c, 0, 70, 0
1, 119760, Tempo, 521739
1, 119760, Note_on_c, 0, 48, 0
1, 119760, Note_on_c, 0, 49, 49
1, 119880, Note_on_c, 0, 49, 0
1, 119880, Note_on_c, 0, 58, 49
1, 120000, Tempo, 504202
1, 120000, Note_on_c, 0, 58, 0
1, 120000, Note_on_c, 0, 70, 68
1, 120000, Note_on_c, 0, 82, 80
1, 120000, Note_on_c, 0, 43, 47
1, 120012, Control_c, 0, 64, 0
1, 120052, Control_c, 0, 64, 127
1, 120120, Note_on_c, 0, 43, 0
1, 120120, Note_on_c, 0, 82, 0
1, 120120, Note_on_c, 0, 70, 0
1, 120120, Note_on_c, 0, 80, 73
1, 120120, Note_on_c, 0, 76, 61
1, 120120, Note_on_c, 0, 48, 45
1, 120180, Note_on_c, 0, 76, 0
1, 120180, Note_on_c, 0, 80, 0
1, 120240, Tempo, 515021
1, 120240, Note_on_c, 0, 48, 0
1, 120240, Note_on_c, 0, 49, 42
1, 120360, Note_on_c, 0, 49, 0
1, 120360, Note_on_c, 0, 67, 57
1, 120360, Note_on_c, 0, 79, 68
1, 120360, Note_on_c, 0, 58, 44
1, 120480, Tempo, 491400
1, 120480, Note_on_c, 0, 58, 0
1, 120480, Note_on_c, 0, 79, 0
1, 120480, Note_on_c, 0, 67, 0
1, 120480, Note_on_c, 0, 75, 59
1, 120480, Note_on_c, 0, 78, 69
1, 120480, Note_on_c, 0, 45, 49
1, 120499, Control_c, 0, 64, 0
1, 120544, Control_c, 0, 64, 127
1, 120600, Note_on_c, 0, 45, 0
1, 120600, Note_on_c, 0, 78, 0
1, 120600, Note_on_c, 0, 75, 0
1, 120600, Note_on_c, 0, 66, 53
1, 120600, Note_on_c, 0, 72, 62
1, 120600, Note_on_c, 0, 50, 44
1, 120660, Note_on_c, 0, 72, 0
1, 120660, Note_on_c, 0, 66, 0
1, 120720, Tempo, 510595
1, 120720, Note_on_c, 0, 50, 0
1, 120720, Note_on_c, 0, 51, 46
1, 120840, Note_on_c, 0, 51, 0
1, 120840, Note_on_c, 0, 60, 44
1, 120960, Tempo, 498422
1, 120960, Note_on_c, 0, 60, 0
1, 120960, Note_on_c, 0, 68, 57
1, 120960, Note_on_c, 0, 80, 68
1, 120960, Note_on_c, 0, 47, 47
1, 120972, Control_c, 0, 64, 0
1, 121012, Control_c, 0, 64, 127
1, 121080, Note_on_c, 0, 47, 0
1, 121080, Note_on_c, 0, 80, 0
1, 121080, Note_on_c, 0, 68, 0
1, 121080, Note_on_c, 0, 79, 62
1, 121080, Note_on_c, 0, 74, 52
1, 121080, Note_on_c, 0, 52, 45
1, 121140, Note_on_c, 0, 74, 0
1, 121140, Note_on_c, 0, 79, 0
1, 121200, Tempo, 503187
1, 121200, Note_on_c, 0, 52, 0
1, 121200, Note_on_c, 0, 53, 42
1, 121320, Note_on_c, 0, 53, 0
1, 121320, Note_on_c, 0, 65, 51
1, 121320, Note_on_c, 0, 77, 61
1, 121320, Note_on_c, 0, 62, 44
1, 121440, Tempo, 491400
1, 121440, Note_on_c, 0, 62, 0
1, 121440, Note_on_c, 0, 77, 0
1, 121440, Note_on_c, 0, 65, 0
1, 121440, Note_on_c, 0, 72, 53
1, 121440, Note_on_c, 0, 75, 63
1, 121440, Note_on_c, 0, 48, 49
1, 121458, Control_c, 0, 64, 0
1, 121504, Control_c, 0, 64, 127
1, 121560, Note_on_c, 0, 48, 0
1, 121560, Note_on_c, 0, 75, 0
1, 121560, Note_on_c, 0, 72, 0
1, 121560, Note_on_c, 0, 63, 44
1, 121560, Note_on_c, 0, 67, 52
1, 121560, Note_on_c, 0, 54, 39
1, 121620, Note_on_c, 0, 67, 0
1, 121620, Note_on_c, 0, 63, 0
1, 121680, Tempo, 510595
1, 121680, Note_on_c, 0, 54, 0
1, 121680, Note_on_c, 0, 55, 40
1, 121800, Note_on_c, 0, 55, 0
1, 121800, Note_on_c, 0, 63, 39
1, 121920, Tempo, 495868
1, 121920, Note_on_c, 0, 63, 0
1, 121920, Note_on_c, 0, 72, 57
1, 121920, Note_on_c, 0, 75, 67
1, 121920, Note_on_c, 0, 46, 52
1, 121936, Control_c, 0, 64, 0
1, 121972, Control_c, 0, 64, 127
1, 122040, Note_on_c, 0, 46, 0
1, 122040, Note_on_c, 0, 75, 0
1, 122040, Note_on_c, 0, 72, 0
1, 122040, Note_on_c, 0, 66, 59
1, 122040, Note_on_c, 0, 63, 49
1, 122040, Note_on_c, 0, 53, 45
1, 122100, Note_on_c, 0, 63, 0
1, 122100, Note_on_c, 0, 66, 0
1, 122160, Tempo, 508475
1, 122160, Note_on_c, 0, 53, 0
1, 122160, Note_on_c, 0, 54, 41
1, 122280, Note_on_c, 0, 54, 0
1, 122280, Note_on_c, 0, 63, 42
1, 122400, Tempo, 497925
1, 122400, Note_on_c, 0, 63, 0
1, 122400, Note_on_c, 0, 72, 53
1, 122400, Note_on_c, 0, 75, 62
1, 122400, Note_on_c, 0, 45, 52
1, 122419, Control_c, 0, 64, 0
1, 122464, Control_c, 0, 64, 127
1, 122520, Note_on_c, 0, 45, 0
1, 122520, Note_on_c, 0, 75, 0
1, 122520, Note_on_c, 0, 72, 0
1, 122520, Note_on_c, 0, 63, 46
1, 122520, Note_on_c, 0, 65, 56
1, 122520, Note_on_c, 0, 52, 41
1, 122580, Note_on_c, 0, 65, 0
1, 122580, Note_on_c, 0, 63, 0
1, 122640, Tempo, 571429
1, 122640, Note_on_c, 0, 52, 0
1, 122640, Note_on_c, 0, 53, 42
1, 122760, Note_on_c, 0, 53, 0
1, 122760, Note_on_c, 0, 63, 41
1, 122880, Tempo, 502092
1, 122880, Note_on_c, 0, 63, 0
1, 122880, Note_on_c, 0, 73, 68
1, 122880, Note_on_c, 0, 46, 51
1, 122881, Control_c, 0, 64, 0
1, 122891, Control_c, 0, 64, 0
1, 122952, Control_c, 0, 64, 127
1, 123000, Note_on_c, 0, 46, 0
1, 123000, Note_on_c, 0, 73, 0
1, 123000, Note_on_c, 0, 61, 40
1, 123000, Note_on_c, 0, 65, 40
1, 123000, Note_on_c, 0, 70, 59
1, 123000, Note_on_c, 0, 53, 44
1, 123120, Tempo, 517241
1, 123120, Note_on_c, 0, 53, 0
1, 123120, Note_on_c, 0, 61, 0
1, 123120, Note_on_c, 0, 65, 0
1, 123120, Note_on_c, 0, 70, 0
1, 123120, Note_on_c, 0, 58, 47
1, 123240, Note_on_c, 0, 58, 0
1, 123240, Note_on_c, 0, 72, 67
1, 123240, Note_on_c, 0, 41, 48
1, 123360, Tempo, 504202
1, 123360, Note_on_c, 0, 41, 0
1, 123360, Note_on_c, 0, 72, 0
1, 123360, Note_on_c, 0, 73, 68
1, 123360, Note_on_c, 0, 46, 51
1, 123372, Control_c, 0, 64, 0
1, 123411, Control_c, 0, 64, 127
1, 123480, Note_on_c, 0, 46, 0
1, 123480, Note_on_c, 0, 73, 0
1, 123480, Note_on_c, 0, 61, 40
1, 123480, Note_on_c, 0, 65, 40
1, 123480, Note_on_c, 0, 70, 60
1, 123480, Note_on_c, 0, 53, 43
1, 123600, Tempo, 515021
1, 123600, Note_on_c, 0, 53, 0
1, 123600, Note_on_c, 0, 61, 0
1, 123600, Note_on_c, 0, 65, 0
1, 123600, Note_on_c, 0, 70, 0
1, 123600, Note_on_c, 0, 58, 48
1, 123720, Note_on_c, 0, 58, 0
1, 123720, Note_on_c, 0, 41, 48
1, 123840, Tempo, 504202
1, 123840, Note_on_c, 0, 41, 0
1, 123840, Note_on_c, 0, 73, 68
1, 123840, Note_on_c, 0, 46, 51
1, 123855, Control_c, 0, 64, 0
1, 123919, Control_c, 0, 64, 127
1, 123960, Note_on_c, 0, 46, 0
1, 123960, Note_on_c, 0, 73, 0
1, 123960, Note_on_c, 0, 61, 40
1, 123960, Note_on_c, 0, 65, 40
1, 123960, Note_on_c, 0, 70, 60
1, 123960, Note_on_c, 0, 53, 44
1, 124080, Tempo, 517241
1, 124080, Note_on_c, 0, 53, 0
1, 124080, Note_on_c, 0, 61, 0
1, 124080, Note_on_c, 0, 65, 0
1, 124080, Note_on_c, 0, 70, 0
1, 124080, Note_on_c, 0, 58, 48
1, 124200, Note_on_c, 0, 58, 0
1, 124200, Note_on_c, 0, 72, 68
1, 124200, Note_on_c, 0, 41, 48
1, 124320, Tempo, 502092
1, 124320, Note_on_c, 0, 41, 0
1, 124320, Note_on_c, 0, 72, 0
1, 124320, Note_on_c, 0, 73, 68
1, 124320, Note_on_c, 0, 46, 51
1, 124338, Control_c, 0, 64, 0
1, 124406, Control_c, 0, 64, 127
1, 124440, Note_on_c, 0, 46, 0
1, 124440, Note_on_c, 0, 73, 0
1, 124440, Note_on_c, 0, 61, 40
1, 124440, Note_on_c, 0, 65, 40
1, 124440, Note_on_c, 0, 70, 60
1, 124440, Note_on_c, 0, 53, 43
1, 124560, Tempo, 512821
1, 124560, Note_on_c, 0, 53, 0
1, 124560, Note_on_c, 0, 61, 0
1, 124560, Note_on_c, 0, 65, 0
1, 124560, Note_on_c, 0, 70, 0
1, 124560, Note_on_c, 0, 58, 48
1, 124680, Note_on_c, 0, 58, 0
1, 124680, Note_on_c, 0, 41, 48
1, 124800, Tempo, 493827
1, 124800, Note_on_c, 0, 41, 0
1, 124800, Note_on_c, 0, 73, 68
1, 124800, Note_on_c, 0, 46, 51
1, 124814, Control_c, 0, 64, 0
1, 124857, Control_c, 0, 64, 127
1, 124920, Note_on_c, 0, 46, 0
1, 124920, Note_on_c, 0, 73, 0
1, 124920, Note_on_c, 0, 61, 46
1, 124920, Note_on_c, 0, 65, 46
1, 124920, Note_on_c, 0, 70, 67
1, 124920, Note_on_c, 0, 53, 49
1, 125040, Tempo, 502092
1, 125040, Note_on_c, 0, 53, 0
1, 125040, Note_on_c, 0, 61, 0
1, 125040, Note_on_c, 0, 65, 0
1, 125040, Note_on_c, 0, 70, 0
1, 125040, Note_on_c, 0, 58, 48
1, 125160, Note_on_c, 0, 58, 0
1, 125160, Note_on_c, 0, 72, 73
1, 125160, Note_on_c, 0, 41, 49
1, 125280, Note_on_c, 0, 41, 0
1, 125280, Note_on_c, 0, 72, 0
1, 125280, Note_on_c, 0, 73, 84
1, 125280, Note_on_c, 0, 46, 54
1, 125281, Tempo, 489117
1, 125298, Control_c, 0, 64, 0
1, 125373, Control_c, 0, 64, 127
1, 125400, Note_on_c, 0, 46, 0
1, 125400, Note_on_c, 0, 73, 0
1, 125400, Note_on_c, 0, 70, 52
1, 125400, Note_on_c, 0, 77, 52
1, 125400, Note_on_c, 0, 82, 76
1, 125400, Note_on_c, 0, 53, 51
1, 125520, Note_on_c, 0, 53, 0
1, 125520, Note_on_c, 0, 70, 0
1, 125520, Note_on_c, 0, 77, 0
1, 125520, Note_on_c, 0, 82, 0
1, 125520, Note_on_c, 0, 61, 50
1, 125521, Tempo, 513128
1, 125640, Note_on_c, 0, 61, 0
1, 125640, Note_on_c, 0, 49, 50
1, 125760, Tempo, 495868
1, 125760, Note_on_c, 0, 49, 0
1, 125760, Note_on_c, 0, 81, 76
1, 125760, Note_on_c, 0, 48, 51
1, 125761, Tempo, 491400
1, 125773, Control_c, 0, 64, 0
1, 125812, Control_c, 0, 64, 127
1, 125880, Note_on_c, 0, 48, 0
1, 125880, Note_on_c, 0, 81, 0
1, 125880, Note_on_c, 0, 69, 46
1, 125880, Note_on_c, 0, 72, 67
1, 125880, Note_on_c, 0, 54, 44
1, 126000, Tempo, 500000
1, 126000, Note_on_c, 0, 54, 0
1, 126000, Note_on_c, 0, 72, 0
1, 126000, Note_on_c, 0, 69, 0
1, 126000, Note_on_c, 0, 63, 47
1, 126120, Note_on_c, 0, 63, 0
1, 126120, Note_on_c, 0, 73, 67
1, 126120, Note_on_c, 0, 48, 48
1, 126240, Note_on_c, 0, 48, 0
1, 126240, Note_on_c, 0, 73, 0
1, 126240, Note_on_c, 0, 75, 68
1, 126240, Note_on_c, 0, 54, 51
1, 126241, Tempo, 491400
1, 126255, Control_c, 0, 64, 0
1, 126298, Control_c, 0, 64, 127
1, 126360, Note_on_c, 0, 54, 0
1, 126360, Note_on_c, 0, 75, 0
1, 126360, Note_on_c, 0, 66, 40
1, 126360, Note_on_c, 0, 69, 40
1, 126360, Note_on_c, 0, 72, 60
1, 126360, Note_on_c, 0, 57, 43
1, 126480, Note_on_c, 0, 57, 0
1, 126480, Note_on_c, 0, 66, 0
1, 126480, Note_on_c, 0, 69, 0
1, 126480, Note_on_c, 0, 72, 0
1, 126480, Note_on_c, 0, 63, 48
1, 126481, Tempo, 498422
1, 126600, Note_on_c, 0, 63, 0
1, 126600, Note_on_c, 0, 48, 48
1, 126720, Note_on_c, 0, 48, 0
1, 126720, Note_on_c, 0, 78, 71
1, 126720, Note_on_c, 0, 51, 51
1, 126721, Tempo, 493705
1, 126734, Control_c, 0, 64, 0
1, 126772, Control_c, 0, 64, 127
1, 126840, Note_on_c, 0, 51, 0
1, 126840, Note_on_c, 0, 78, 0
1, 126840, Note_on_c, 0, 66, 40
1, 126840, Note_on_c, 0, 69, 40
1, 126840, Note_on_c, 0, 72, 59
1, 126840, Note_on_c, 0, 57, 44
1, 126960, Note_on_c, 0, 57, 0
1, 126960, Note_on_c, 0, 66, 0
1, 126960, Note_on_c, 0, 69, 0
1, 126960, Note_on_c, 0, 72, 0
1, 126960, Note_on_c, 0, 63, 47
1, 126961, Tempo, 498422
1, 127080, Note_on_c, 0, 63, 0
1, 127080, Note_on_c, 0, 73, 67
1, 127080, Note_on_c, 0, 48, 48
1, 127200, Note_on_c, 0, 48, 0
1, 127200, Note_on_c, 0, 73, 0
1, 127200, Note_on_c, 0, 75, 68
1, 127200, Note_on_c, 0, 54, 51
1, 127201, Tempo, 491400
1, 127211, Control_c, 0, 64, 0
1, 127246, Control_c, 0, 64, 127
1, 127320, Note_on_c, 0, 54, 0
1, 127320, Note_on_c, 0, 75, 0
1, 127320, Note_on_c, 0, 66, 40
1, 127320, Note_on_c, 0, 69, 40
1, 127320, Note_on_c, 0, 72, 60
1, 127320, Note_on_c, 0, 57, 43
1, 127440, Note_on_c, 0, 57, 0
1, 127440, Note_on_c, 0, 66, 0
1, 127440, Note_on_c, 0, 69, 0
1, 127440, Note_on_c, 0, 72, 0
1, 127440, Note_on_c, 0, 63, 48
1, 127441, Tempo, 498422
1, 127560, Note_on_c, 0, 63, 0
1, 127560, Note_on_c, 0, 48, 48
1, 127680, Note_on_c, 0, 48, 0
1, 127680, Note_on_c, 0, 78, 71
1, 127680, Note_on_c, 0, 51, 51
1, 127681, Tempo, 493705
1, 127696, Control_c, 0, 64, 0
1, 127732, Control_c, 0, 64, 127
1, 127800, Note_on_c, 0, 51, 0
1, 127800, Note_on_c, 0, 78, 0
1, 127800, Note_on_c, 0, 66, 40
1, 127800, Note_on_c, 0, 69, 40
1, 127800, Note_on_c, 0, 72, 59
1, 127800, Note_on_c, 0, 57, 44
1, 127920, Note_on_c, 0, 57, 0
1, 127920, Note_on_c, 0, 66, 0
1, 127920, Note_on_c, 0, 69, 0
1, 127920, Note_on_c, 0, 72, 0
1, 127920, Note_on_c, 0, 63, 47
1, 127921, Tempo, 498422
1, 128040, Note_on_c, 0, 63, 0
1, 128040, Note_on_c, 0, 73, 67
1, 128040, Note_on_c, 0, 48, 48
1, 128160, Note_on_c, 0, 48, 0
1, 128160, Note_on_c, 0, 73, 0
1, 128160, Note_on_c, 0, 75, 68
1, 128160, Note_on_c, 0, 54, 51
1, 128161, Tempo, 491400
1, 128173, Control_c, 0, 64, 0
1, 128210, Control_c, 0, 64, 127
1, 128280, Note_on_c, 0, 54, 0
1, 128280, Note_on_c, 0, 75, 0
1, 128280, Note_on_c, 0, 66, 40
1, 128280, Note_on_c, 0, 69, 40
1, 128280, Note_on_c, 0, 72, 60
1, 128280, Note_on_c, 0, 57, 43
1, 128400, Note_on_c, 0, 57, 0
1, 128400, Note_on_c, 0, 66, 0
1, 128400, Note_on_c, 0, 69, 0
1, 128400, Note_on_c, 0, 72, 0
1, 128400, Note_on_c, 0, 63, 48
1, 128401, Tempo, 498422
1, 128520, Note_on_c, 0, 63, 0
1, 128520, Note_on_c, 0, 48, 48
1, 128640, Note_on_c, 0, 48, 0
1, 128640, Note_on_c, 0, 78, 74
1, 128640, Note_on_c, 0, 51, 52
1, 128641, Tempo, 493705
1, 128653, Control_c, 0, 64, 0
1, 128692, Control_c, 0, 64, 127
1, 128760, Note_on_c, 0, 51, 0
1, 128760, Note_on_c, 0, 78, 0
1, 128760, Note_on_c, 0, 66, 42
1, 128760, Note_on_c, 0, 69, 42
1, 128760, Note_on_c, 0, 72, 63
1, 128760, Note_on_c, 0, 57, 46
1, 128880, Note_on_c, 0, 57, 0
1, 128880, Note_on_c, 0, 66, 0
1, 128880, Note_on_c, 0, 69, 0
1, 128880, Note_on_c, 0, 72, 0
1, 128880, Note_on_c, 0, 63, 50
1, 128881, Tempo, 498422
1, 129000, Note_on_c, 0, 63, 0
1, 129000, Note_on_c, 0, 73, 82
1, 129000, Note_on_c, 0, 48, 51
1, 129120, Note_on_c, 0, 48, 0
1, 129120, Note_on_c, 0, 73, 0
1, 129120, Note_on_c, 0, 75, 88
1, 129120, Note_on_c, 0, 54, 57
1, 129121, Tempo, 491400
1, 129132, Control_c, 0, 64, 0
1, 129166, Control_c, 0, 64, 127
1, 129240, Note_on_c, 0, 54, 0
1, 129240, Note_on_c, 0, 75, 0
1, 129240, Note_on_c, 0, 72, 54
1, 129240, Note_on_c, 0, 78, 54
1, 129240, Note_on_c, 0, 84, 78
1, 129240, Note_on_c, 0, 57, 54
1, 129360, Note_on_c, 0, 57, 0
1, 129360, Note_on_c, 0, 72, 0
1, 129360, Note_on_c, 0, 78, 0
1, 129360, Note_on_c, 0, 84, 0
1, 129360, Note_on_c, 0, 63, 54
1, 129361, Tempo, 510595
1, 129480, Note_on_c, 0, 63, 0
1, 129480, Note_on_c, 0, 48, 55
1, 129600, Note_on_c, 0, 48, 0
1, 129600, Note_on_c, 0, 84, 73
1, 129600, Note_on_c, 0, 49, 51
1, 129601, Tempo, 493705
1, 129615, Control_c, 0, 64, 0
1, 129652, Control_c, 0, 64, 127
1, 129720, Note_on_c, 0, 49, 0
1, 129720, Note_on_c, 0, 84, 0
1, 129720, Note_on_c, 0, 72, 50
1, 129720, Note_on_c, 0, 73, 72
1, 129720, Note_on_c, 0, 57, 50
1, 129840, Note_on_c, 0, 57, 0
1, 129840, Note_on_c, 0, 73, 0
1, 129840, Note_on_c, 0, 72, 0
1, 129840, Note_on_c, 0, 65, 47
1, 129841, Tempo, 498422
1, 129960, Note_on_c, 0, 65, 0
1, 129960, Note_on_c, 0, 75, 64
1, 129960, Note_on_c, 0, 53, 48
1, 130080, Note_on_c, 0, 53, 0
1, 130080, Note_on_c, 0, 75, 0
1, 130080, Note_on_c, 0, 77, 69
1, 130080, Note_on_c, 0, 58, 51
1, 130081, Tempo, 491400
1, 130095, Control_c, 0, 64, 0
1, 130137, Control_c, 0, 64, 127
1, 130200, Note_on_c, 0, 58, 0
1, 130200, Note_on_c, 0, 77, 0
1, 130200, Note_on_c, 0, 70, 44
1, 130200, Note_on_c, 0, 82, 69
1, 130200, Note_on_c, 0, 73, 44
1, 130200, Note_on_c, 0, 61, 49
1, 130320, Note_on_c, 0, 61, 0
1, 130320, Note_on_c, 0, 70, 0
1, 130320, Note_on_c, 0, 82, 0
1, 130320, Note_on_c, 0, 73, 0
1, 130320, Note_on_c, 0, 65, 48
1, 130321, Tempo, 510595
1, 130440, Note_on_c, 0, 65, 0
1, 130440, Note_on_c, 0, 49, 48
1, 130560, Tempo, 498422
1, 130560, Note_on_c, 0, 49, 0
1, 130560, Note_on_c, 0, 85, 85
1, 130560, Note_on_c, 0, 52, 61
1, 130574, Control_c, 0, 64, 0
1, 130612, Control_c, 0, 64, 127
1, 130680, Note_on_c, 0, 52, 0
1, 130680, Note_on_c, 0, 85, 0
1, 130680, Note_on_c, 0, 73, 71
1, 130680, Note_on_c, 0, 84, 84
1, 130680, Note_on_c, 0, 79, 71
1, 130680, Note_on_c, 0, 61, 59
1, 130800, Tempo, 505646
1, 130800, Note_on_c, 0, 61, 0
1, 130800, Note_on_c, 0, 73, 0
1, 130800, Note_on_c, 0, 84, 0
1, 130800, Note_on_c, 0, 79, 0
1, 130800, Note_on_c, 0, 67, 55
1, 130920, Note_on_c, 0, 67, 0
1, 130920, Note_on_c, 0, 82, 80
1, 130920, Note_on_c, 0, 52, 57
1, 131040, Tempo, 491400
1, 131040, Note_on_c, 0, 52, 0
1, 131040, Note_on_c, 0, 82, 0
1, 131040, Note_on_c, 0, 81, 86
1, 131040, Note_on_c, 0, 53, 61
1, 131059, Control_c, 0, 64, 0
1, 131104, Control_c, 0, 64, 127
1, 131160, Note_on_c, 0, 53, 0
1, 131160, Note_on_c, 0, 81, 0
1, 131160, Note_on_c, 0, 77, 67
1, 131160, Note_on_c, 0, 72, 67
1, 131160, Note_on_c, 0, 84, 80
1, 131160, Note_on_c, 0, 60, 58
1, 131280, Tempo, 510595
1, 131280, Note_on_c, 0, 60, 0
1, 131280, Note_on_c, 0, 77, 0
1, 131280, Note_on_c, 0, 72, 0
1, 131280, Note_on_c, 0, 84, 0
1, 131280, Note_on_c, 0, 69, 57
1, 131400, Note_on_c, 0, 69, 0
1, 131400, Note_on_c, 0, 53, 57
1, 131520, Tempo, 498422
1, 131520, Note_on_c, 0, 53, 0
1, 131520, Note_on_c, 0, 78, 67
1, 131520, Note_on_c, 0, 45, 48
1, 131535, Control_c, 0, 64, 0
1, 131572, Control_c, 0, 64, 127
1, 131640, Note_on_c, 0, 45, 0
1, 131640, Note_on_c, 0, 78, 0
1, 131640, Note_on_c, 0, 66, 55
1, 131640, Note_on_c, 0, 77, 66
1, 131640, Note_on_c, 0, 72, 55
1, 131640, Note_on_c, 0, 54, 44
1, 131760, Tempo, 510595
1, 131760, Note_on_c, 0, 54, 0
1, 131760, Note_on_c, 0, 66, 0
1, 131760, Note_on_c, 0, 77, 0
1, 131760, Note_on_c, 0, 72, 0
1, 131760, Note_on_c, 0, 63, 44
1, 131880, Note_on_c, 0, 63, 0
1, 131880, Note_on_c, 0, 75, 64
1, 131880, Note_on_c, 0, 45, 44
1, 132000, Tempo, 491400
1, 132000, Note_on_c, 0, 45, 0
1, 132000, Note_on_c, 0, 75, 0
1, 132000, Note_on_c, 0, 74, 69
1, 132000, Note_on_c, 0, 46, 48
1, 132018, Control_c, 0, 64, 0
1, 132064, Control_c, 0, 64, 127
1, 132120, Note_on_c, 0, 46, 0
1, 132120, Note_on_c, 0, 74, 0
1, 132120, Note_on_c, 0, 70, 53
1, 132120, Note_on_c, 0, 73, 53
1, 132120, Note_on_c, 0, 65, 53
1, 132120, Note_on_c, 0, 77, 64
1, 132120, Note_on_c, 0, 53, 44
1, 132240, Tempo, 510595
1, 132240, Note_on_c, 0, 53, 0
1, 132240, Note_on_c, 0, 65, 0
1, 132240, Note_on_c, 0, 70, 0
1, 132240, Note_on_c, 0, 73, 0
1, 132240, Note_on_c, 0, 77, 0
1, 132240, Note_on_c, 0, 61, 44
1, 132360, Note_on_c, 0, 61, 0
1, 132360, Note_on_c, 0, 46, 44
1, 132480, Tempo, 498422
1, 132480, Note_on_c, 0, 46, 0
1, 132480, Note_on_c, 0, 85, 85
1, 132480, Note_on_c, 0, 52, 61
1, 132492, Control_c, 0, 64, 0
1, 132532, Control_c, 0, 64, 127
1, 132600, Note_on_c, 0, 52, 0
1, 132600, Note_on_c, 0, 85, 0
1, 132600, Note_on_c, 0, 73, 71
1, 132600, Note_on_c, 0, 84, 84
1, 132600, Note_on_c, 0, 79, 71
1, 132600, Note_on_c, 0, 61, 59
1, 132720, Tempo, 510595
1, 132720, Note_on_c, 0, 61, 0
1, 132720, Note_on_c, 0, 73, 0
1, 132720, Note_on_c, 0, 84, 0
1, 132720, Note_on_c, 0, 79, 0
1, 132720, Note_on_c, 0, 67, 55
1, 132840, Note_on_c, 0, 67, 0
1, 132840, Note_on_c, 0, 82, 80
1, 132840, Note_on_c, 0, 52, 57
1, 132960, Tempo, 491400
1, 132960, Note_on_c, 0, 52, 0
1, 132960, Note_on_c, 0, 82, 0
1, 132960, Note_on_c, 0, 81, 86
1, 132960, Note_on_c, 0, 53, 61
1, 132980, Control_c, 0, 64, 0
1, 133024, Control_c, 0, 64, 127
1, 133080, Note_on_c, 0, 53, 0
1, 133080, Note_on_c, 0, 81, 0
1, 133080, Note_on_c, 0, 77, 67
1, 133080, Note_on_c, 0, 72, 67
1, 133080, Note_on_c, 0, 84, 80
1, 133080, Note_on_c, 0, 60, 58
1, 133200, Tempo, 510595
1, 133200, Note_on_c, 0, 60, 0
1, 133200, Note_on_c, 0, 77, 0
1, 133200, Note_on_c, 0, 72, 0
1, 133200, Note_on_c, 0, 84, 0
1, 133200, Note_on_c, 0, 69, 57
1, 133320, Note_on_c, 0, 69, 0
1, 133320, Note_on_c, 0, 53, 57
1, 133440, Tempo, 498422
1, 133440, Note_on_c, 0, 53, 0
1, 133440, Note_on_c, 0, 83, 84
1, 133440, Note_on_c, 0, 50, 61
1, 133454, Control_c, 0, 64, 0
1, 133492, Control_c, 0, 64, 127
1, 133560, Note_on_c, 0, 50, 0
1, 133560, Note_on_c, 0, 83, 0
1, 133560, Note_on_c, 0, 71, 65
1, 133560, Note_on_c, 0, 82, 77
1, 133560, Note_on_c, 0, 77, 65
1, 133560, Note_on_c, 0, 59, 58
1, 133680, Tempo, 510595
1, 133680, Note_on_c, 0, 59, 0
1, 133680, Note_on_c, 0, 71, 0
1, 133680, Note_on_c, 0, 82, 0
1, 133680, Note_on_c, 0, 77, 0
1, 133680, Note_on_c, 0, 65, 55
1, 133800, Note_on_c, 0, 65, 0
1, 133800, Note_on_c, 0, 80, 80
1, 133800, Note_on_c, 0, 50, 55
1, 133920, Tempo, 491400
1, 133920, Note_on_c, 0, 50, 0
1, 133920, Note_on_c, 0, 80, 0
1, 133920, Note_on_c, 0, 79, 86
1, 133920, Note_on_c, 0, 51, 61
1, 133939, Control_c, 0, 64, 0
1, 133984, Control_c, 0, 64, 127
1, 134040, Note_on_c, 0, 51, 0
1, 134040, Note_on_c, 0, 79, 0
1, 134040, Note_on_c, 0, 78, 63
1, 134040, Note_on_c, 0, 70, 63
1, 134040, Note_on_c, 0, 82, 75
1, 134040, Note_on_c, 0, 58, 57
1, 134160, Tempo, 615764
1, 134160, Note_on_c, 0, 58, 0
1, 134160, Note_on_c, 0, 78, 0
1, 134160, Note_on_c, 0, 70, 0
1, 134160, Note_on_c, 0, 82, 0
1, 134160, Note_on_c, 0, 66, 55
1, 134280, Note_on_c, 0, 66, 0
1, 134280, Note_on_c, 0, 51, 55
1, 134400, Tempo, 555556
1, 134400, Note_on_c, 0, 51, 0
1, 134400, Note_on_c, 0, 78, 83
1, 134400, Note_on_c, 0, 69, 83
1, 134400, Note_on_c, 0, 81, 99
1, 134400, Note_on_c, 0, 39, 69
1, 134411, Control_c, 0, 64, 0
1, 134465, Control_c, 0, 64, 127
1, 134520, Note_on_c, 0, 39, 0
1, 134520, Note_on_c, 0, 46, 59
1, 134640, Tempo, 521739
1, 134640, Note_on_c, 0, 46, 0
1, 134640, Note_on_c, 0, 81, 0
1, 134640, Note_on_c, 0, 69, 0
1, 134640, Note_on_c, 0, 70, 66
1, 134640, Note_on_c, 0, 82, 79
1, 134640, Note_on_c, 0, 58, 71
1, 134760, Note_on_c, 0, 58, 0
1, 134760, Note_on_c, 0, 46, 59
1, 134880, Tempo, 533333
1, 134880, Note_on_c, 0, 46, 0
1, 134880, Note_on_c, 0, 82, 0
1, 134880, Note_on_c, 0, 70, 0
1, 134880, Note_on_c, 0, 69, 75
1, 134880, Note_on_c, 0, 81, 89
1, 134880, Note_on_c, 0, 41, 69
1, 134892, Control_c, 0, 64, 0
1, 134958, Control_c, 0, 64, 127
1, 135000, Note_on_c, 0, 41, 0
1, 135000, Note_on_c, 0, 46, 59
1, 135120, Tempo, 519481
1, 135120, Note_on_c, 0, 46, 0
1, 135120, Note_on_c, 0, 81, 0
1, 135120, Note_on_c, 0, 69, 0
1, 135120, Note_on_c, 0, 78, 0
1, 135120, Note_on_c, 0, 70, 66
1, 135120, Note_on_c, 0, 77, 66
1, 135120, Note_on_c, 0, 82, 79
1, 135120, Note_on_c, 0, 58, 69
1, 135240, Note_on_c, 0, 58, 0
1, 135240, Note_on_c, 0, 46, 59
1, 135360, Tempo, 539714
1, 135360, Note_on_c, 0, 46, 0
1, 135360, Note_on_c, 0, 82, 0
1, 135360, Note_on_c, 0, 77, 0
1, 135360, Note_on_c, 0, 70, 0
1, 135360, Note_on_c, 0, 69, 78
1, 135360, Note_on_c, 0, 77, 78
1, 135360, Note_on_c, 0, 81, 92
1, 135360, Note_on_c, 0, 42, 69
1, 135378, Control_c, 0, 64, 0
1, 135435, Control_c, 0, 64, 127
1, 135480, Note_on_c, 0, 42, 0
1, 135480, Note_on_c, 0, 46, 59
1, 135600, Tempo, 542201
1, 135600, Note_on_c, 0, 46, 0
1, 135600, Note_on_c, 0, 81, 0
1, 135600, Note_on_c, 0, 77, 0
1, 135600, Note_on_c, 0, 69, 0
1, 135600, Note_on_c, 0, 75, 67
1, 135600, Note_on_c, 0, 70, 67
1, 135600, Note_on_c, 0, 82, 80
1, 135600, Note_on_c, 0, 58, 68
1, 135720, Note_on_c, 0, 58, 0
1, 135720, Note_on_c, 0, 46, 59
1, 135840, Tempo, 568128
1, 135840, Note_on_c, 0, 46, 0
1, 135840, Note_on_c, 0, 82, 0
1, 135840, Note_on_c, 0, 70, 0
1, 135840, Note_on_c, 0, 69, 74
1, 135840, Note_on_c, 0, 81, 89
1, 135840, Note_on_c, 0, 43, 68
1, 135858, Control_c, 0, 64, 0
1, 135932, Control_c, 0, 64, 127
1, 135960, Note_on_c, 0, 43, 0
1, 135960, Note_on_c, 0, 51, 59
1, 136080, Note_on_c, 0, 51, 0
1, 136080, Note_on_c, 0, 81, 0
1, 136080, Note_on_c, 0, 69, 0
1, 136080, Note_on_c, 0, 75, 0
1, 136080, Note_on_c, 0, 70, 67
1, 136080, Note_on_c, 0, 73, 67
1, 136080, Note_on_c, 0, 82, 80
1, 136080, Note_on_c, 0, 63, 68
1, 136200, Note_on_c, 0, 63, 0
1, 136200, Note_on_c, 0, 51, 59
1, 136320, Tempo, 565398
1, 136320, Note_on_c, 0, 51, 0
1, 136320, Note_on_c, 0, 82, 0
1, 136320, Note_on_c, 0, 73, 0
1, 136320, Note_on_c, 0, 70, 0
1, 136320, Note_on_c, 0, 61, 79
1, 136320, Note_on_c, 0, 66, 84
1, 136320, Note_on_c, 0, 73, 100
1, 136320, Note_on_c, 0, 44, 51
1, 136320, Note_on_c, 0, 51, 57
1, 136320, Note_on_c, 0, 58, 68
1, 136324, Control_c, 0, 64, 0
1, 136440, Note_on_c, 0, 58, 0
1, 136440, Note_on_c, 0, 66, 0
1, 136440, Note_on_c, 0, 73, 0
1, 136440, Note_on_c, 0, 61, 0
1, 136440, Note_on_c, 0, 51, 0
1, 136440, Note_on_c, 0, 44, 0
1, 136560, Note_on_c, 0, 60, 66
1, 136560, Note_on_c, 0, 66, 73
1, 136560, Note_on_c, 0, 72, 86
1, 136560, Note_on_c, 0, 44, 39
1, 136560, Note_on_c, 0, 51, 46
1, 136560, Note_on_c, 0, 56, 56
1, 136680, Note_on_c, 0, 56, 0
1, 136680, Note_on_c, 0, 66, 0
1, 136680, Note_on_c, 0, 72, 0
1, 136680, Note_on_c, 0, 60, 0
1, 136680, Note_on_c, 0, 51, 0
1, 136680, Note_on_c, 0, 44, 0
1, 137040, Tempo, 576369
1, 137040, Note_on_c, 0, 56, 56
1, 137040, Note_on_c, 0, 61, 56
1, 137040, Note_on_c, 0, 66, 58
1, 137040, Note_on_c, 0, 70, 66
1, 137040, Note_on_c, 0, 34, 38
1, 137040, Note_on_c, 0, 46, 46
1, 137280, Note_on_c, 0, 46, 0
1, 137280, Note_on_c, 0, 61, 0
1, 137280, Note_on_c, 0, 66, 0
1, 137280, Note_on_c, 0, 56, 0
1, 137280, Note_on_c, 0, 34, 0
1, 137280, Note_on_c, 0, 70, 0
1, 137280, Note_on_c, 0, 56, 58
1, 137280, Note_on_c, 0, 62, 58
1, 137280, Note_on_c, 0, 66, 56
1, 137280, Note_on_c, 0, 70, 68
1, 137280, Note_on_c, 0, 35, 41
1, 137280, Note_on_c, 0, 47, 49
1, 137323, Control_c, 0, 64, 127
1, 137760, Note_on_c, 0, 47, 0
1, 137760, Note_on_c, 0, 62, 0
1, 137760, Note_on_c, 0, 66, 0
1, 137760, Note_on_c, 0, 56, 0
1, 137760, Note_on_c, 0, 35, 0
1, 137760, Note_on_c, 0, 70, 0
1, 137760, Note_on_c, 0, 56, 53
1, 137760, Note_on_c, 0, 63, 53
1, 137760, Note_on_c, 0, 66, 62
1, 137760, Note_on_c, 0, 68, 62
1, 137760, Note_on_c, 0, 36, 39
1, 137760, Note_on_c, 0, 48, 46
1, 137776, Control_c, 0, 64, 0
1, 137860, Control_c, 0, 64, 127
1, 138120, Note_on_c, 0, 48, 0
1, 138120, Note_on_c, 0, 63, 0
1, 138120, Note_on_c, 0, 66, 0
1, 138120, Note_on_c, 0, 56, 0
1, 138120, Note_on_c, 0, 36, 0
1, 138120, Note_on_c, 0, 68, 0
1, 138120, Note_on_c, 0, 53, 49
1, 138127, Control_c, 0, 64, 0
1, 138240, Tempo, 635997
1, 138240, Note_on_c, 0, 53, 0
1, 138240, Note_on_c, 0, 53, 41
1, 138240, Note_on_c, 0, 61, 41
1, 138240, Note_on_c, 0, 68, 49
1, 138240, Note_on_c, 0, 37, 31
1, 138240, Note_on_c, 0, 49, 37
1, 138388, Control_c, 0, 64, 127
1, 139200, Note_on_c, 0, 37, 0
1, 139200, Note_on_c, 0, 68, 0
1, 139200, Note_on_c, 0, 53, 0
1, 139200, Note_on_c, 0, 61, 0
1, 139200, Note_on_c, 0, 56, 41
1, 139200, Note_on_c, 0, 61, 41
1, 139200, Note_on_c, 0, 65, 49
1, 139201, Tempo, 623895
1, 139207, Control_c, 0, 64, 0
1, 139308, Control_c, 0, 64, 127
1, 139680, Note_on_c, 0, 65, 0
1, 139680, Note_on_c, 0, 49, 0
1, 139680, Note_on_c, 0, 56, 0
1, 139680, Note_on_c, 0, 61, 0
1, 139680, Note_on_c, 0, 58, 37
1, 139680, Note_on_c, 0, 63, 37
1, 139680, Note_on_c, 0, 66, 44
1, 139680, Note_on_c, 0, 42, 39
1, 139703, Control_c, 0, 64, 0
1, 139854, Control_c, 0, 64, 127
1, 140160, Tempo, 639114
1, 140160, Note_on_c, 0, 42, 0
1, 140160, Note_on_c, 0, 58, 0
1, 140160, Note_on_c, 0, 63, 0
1, 140160, Note_on_c, 0, 66, 0
1, 140160, Note_on_c, 0, 54, 34
1, 140160, Note_on_c, 0, 60, 36
1, 140160, Note_on_c, 0, 65, 47
1, 140160, Note_on_c, 0, 44, 39
1, 140173, Control_c, 0, 64, 0
1, 140401, Control_c, 0, 64, 127
1, 141120, Note_on_c, 0, 65, 0
1, 141120, Note_on_c, 0, 63, 41
1, 141139, Control_c, 0, 64, 0
1, 141360, Tempo, 646343
1, 141360, Note_on_c, 0, 44, 0
1, 141360, Note_on_c, 0, 45, 37
1, 141600, Note_on_c, 0, 45, 0
1, 141600, Note_on_c, 0, 46, 39
1, 141840, Tempo, 731975
1, 141840, Note_on_c, 0, 46, 0
1, 141840, Note_on_c, 0, 44, 37
1, 141960, Tempo, 635997
1, 141960, Note_on_c, 0, 53, 41
1, 142020, Note_on_c, 0, 61, 41
1, 142080, Tempo, 655093
1, 142080, Note_on_c, 0, 44, 0
1, 142080, Note_on_c, 0, 54, 0
1, 142080, Note_on_c, 0, 63, 0
1, 142080, Note_on_c, 0, 60, 0
1, 142080, Note_on_c, 0, 68, 49
1, 142080, Note_on_c, 0, 37, 33
1, 142080, Note_on_c, 0, 49, 39
1, 142228, Control_c, 0, 64, 127
1, 142560, Note_on_c, 0, 68, 0
1, 142560, Note_on_c, 0, 53, 0
1, 142560, Note_on_c, 0, 56, 41
1, 142560, Note_on_c, 0, 65, 49
1, 143040, Note_on_c, 0, 65, 0
1, 143040, Note_on_c, 0, 61, 0
1, 143040, Note_on_c, 0, 37, 0
1, 143040, Note_on_c, 0, 56, 0
1, 143040, Note_on_c, 0, 58, 41
1, 143040, Note_on_c, 0, 61, 41
1, 143040, Note_on_c, 0, 66, 49
1, 143041, Tempo, 623895
1, 143049, Control_c, 0, 64, 0
1, 143148, Control_c, 0, 64, 127
1, 143280, Tempo, 645369
1, 143280, Note_on_c, 0, 66, 0
1, 143280, Note_on_c, 0, 58, 0
1, 143280, Note_on_c, 0, 56, 39
1, 143280, Note_on_c, 0, 65, 47
1, 143520, Tempo, 623895
1, 143520, Note_on_c, 0, 65, 0
1, 143520, Note_on_c, 0, 49, 0
1, 143520, Note_on_c, 0, 61, 0
1, 143520, Note_on_c, 0, 56, 0
1, 143520, Note_on_c, 0, 63, 41
1, 143520, Note_on_c, 0, 60, 37
1, 143520, Note_on_c, 0, 68, 44
1, 143520, Note_on_c, 0, 42, 39
1, 143534, Control_c, 0, 64, 0
1, 143694, Control_c, 0, 64, 127
1, 143760, Tempo, 639114
1, 143760, Note_on_c, 0, 68, 0
1, 143760, Note_on_c, 0, 60, 0
1, 143760, Note_on_c, 0, 58, 35
1, 143760, Note_on_c, 0, 66, 41
1, 144000, Tempo, 639114
1, 144000, Note_on_c, 0, 66, 0
1, 144000, Note_on_c, 0, 42, 0
1, 144000, Note_on_c, 0, 63, 0
1, 144000, Note_on_c, 0, 58, 0
1, 144000, Note_on_c, 0, 54, 31
1, 144000, Note_on_c, 0, 60, 36
1, 144000, Note_on_c, 0, 65, 45
1, 144000, Note_on_c, 0, 44, 29
1, 144008, Control_c, 0, 64, 0
1, 144241, Control_c, 0, 64, 127
1, 144960, Tempo, 626894
1, 144960, Note_on_c, 0, 65, 0
1, 144960, Note_on_c, 0, 63, 41
1, 144981, Control_c, 0, 64, 0
1, 145200, Note_on_c, 0, 44, 0
1, 145200, Note_on_c, 0, 45, 37
1, 145440, Tempo, 639114
1, 145440, Note_on_c, 0, 45, 0
1, 145440, Note_on_c, 0, 48, 35
1, 145600, Note_on_c, 0, 48, 0
1, 145600, Note_on_c, 0, 46, 34
1, 145760, Note_on_c, 0, 46, 0
1, 145760, Note_on_c, 0, 44, 34
1, 145920, Note_on_c, 0, 44, 0
1, 145920, Note_on_c, 0, 54, 0
1, 145920, Note_on_c, 0, 60, 0
1, 145920, Note_on_c, 0, 63, 0
1, 145920, Note_on_c, 0, 61, 40
1, 145920, Note_on_c, 0, 53, 41
1, 145920, Note_on_c, 0, 68, 53
1, 145920, Note_on_c, 0, 37, 41
1, 146001, Control_c, 0, 64, 127
1, 146400, Note_on_c, 0, 37, 0
1, 146400, Note_on_c, 0, 68, 0
1, 146400, Note_on_c, 0, 53, 0
1, 146400, Note_on_c, 0, 64, 44
1, 146400, Note_on_c, 0, 70, 51
1, 146400, Note_on_c, 0, 55, 44
1, 146412, Control_c, 0, 64, 0
1, 146574, Control_c, 0, 64, 127
1, 146880, Note_on_c, 0, 55, 0
1, 146880, Note_on_c, 0, 61, 0
1, 146880, Note_on_c, 0, 64, 0
1, 146880, Note_on_c, 0, 70, 0
1, 146880, Note_on_c, 0, 63, 44
1, 146880, Note_on_c, 0, 72, 52
1, 146880, Note_on_c, 0, 44, 37
1, 146880, Note_on_c, 0, 54, 44
1, 146881, Tempo, 623895
1, 146899, Control_c, 0, 64, 0
1, 147036, Control_c, 0, 64, 127
1, 147360, Note_on_c, 0, 54, 0
1, 147360, Note_on_c, 0, 63, 0
1, 147360, Note_on_c, 0, 72, 0
1, 147360, Note_on_c, 0, 73, 58
1, 147360, Note_on_c, 0, 66, 49
1, 147360, Note_on_c, 0, 58, 44
1, 147378, Control_c, 0, 64, 0
1, 147481, Control_c, 0, 64, 127
1, 147720, Note_on_c, 0, 58, 0
1, 147720, Note_on_c, 0, 73, 0
1, 147720, Note_on_c, 0, 72, 53
1, 147720, Note_on_c, 0, 75, 60
1, 147720, Note_on_c, 0, 56, 49
1, 147840, Note_on_c, 0, 56, 0
1, 147840, Note_on_c, 0, 72, 0
1, 147840, Note_on_c, 0, 44, 0
1, 147840, Note_on_c, 0, 66, 0
1, 147840, Note_on_c, 0, 75, 0
1, 147840, Note_on_c, 0, 65, 43
1, 147840, Note_on_c, 0, 73, 46
1, 147840, Note_on_c, 0, 77, 61
1, 147840, Note_on_c, 0, 49, 39
1, 147840, Note_on_c, 0, 56, 45
1, 147841, Control_c, 0, 64, 0
1, 148001, Control_c, 0, 64, 127
1, 148320, Tempo, 643018
1, 148320, Note_on_c, 0, 56, 0
1, 148320, Note_on_c, 0, 77, 0
1, 148320, Note_on_c, 0, 65, 0
1, 148320, Note_on_c, 0, 73, 0
1, 148320, Note_on_c, 0, 49, 0
1, 148320, Note_on_c, 0, 61, 44
1, 148320, Note_on_c, 0, 64, 44
1, 148320, Note_on_c, 0, 70, 51
1, 148320, Note_on_c, 0, 55, 44
1, 148330, Control_c, 0, 64, 0
1, 148494, Control_c, 0, 64, 127
1, 148800, Note_on_c, 0, 55, 0
1, 148800, Note_on_c, 0, 61, 0
1, 148800, Note_on_c, 0, 64, 0
1, 148800, Note_on_c, 0, 70, 0
1, 148800, Note_on_c, 0, 60, 44
1, 148800, Note_on_c, 0, 63, 44
1, 148800, Note_on_c, 0, 72, 52
1, 148800, Note_on_c, 0, 44, 37
1, 148800, Note_on_c, 0, 54, 44
1, 148801, Tempo, 623895
1, 148815, Control_c, 0, 64, 0
1, 148875, Control_c, 0, 64, 127
1, 149220, Note_on_c, 0, 72, 0
1, 149220, Note_on_c, 0, 60, 0
1, 149220, Note_on_c, 0, 58, 56
1, 149280, Tempo, 636537
1, 149280, Note_on_c, 0, 44, 0
1, 149280, Note_on_c, 0, 73, 58
1, 149280, Note_on_c, 0, 42, 37
1, 149281, Control_c, 0, 64, 0
1, 149337, Control_c, 0, 64, 127
1, 149520, Tempo, 656383
1, 149640, Note_on_c, 0, 73, 0
1, 149640, Note_on_c, 0, 75, 60
1, 149700, Note_on_c, 0, 42, 0
1, 149700, Note_on_c, 0, 41, 41
1, 149760, Note_on_c, 0, 63, 0
1, 149760, Note_on_c, 0, 75, 0
1, 149760, Note_on_c, 0, 58, 0
1, 149760, Note_on_c, 0, 54, 0
1, 149760, Note_on_c, 0, 65, 53
1, 149760, Note_on_c, 0, 72, 53
1, 149760, Note_on_c, 0, 77, 63
1, 149760, Note_on_c, 0, 57, 49
1, 149769, Control_c, 0, 64, 0
1, 149921, Control_c, 0, 64, 127
1, 150240, Note_on_c, 0, 57, 0
1, 150240, Note_on_c, 0, 65, 0
1, 150240, Note_on_c, 0, 41, 0
1, 150240, Note_on_c, 0, 77, 0
1, 150240, Note_on_c, 0, 65, 53
1, 150240, Note_on_c, 0, 75, 60
1, 150240, Note_on_c, 0, 33, 40
1, 150240, Note_on_c, 0, 45, 48
1, 150258, Control_c, 0, 64, 0
1, 150388, Control_c, 0, 64, 127
1, 150720, Tempo, 649632
1, 150720, Note_on_c, 0, 45, 0
1, 150720, Note_on_c, 0, 75, 0
1, 150720, Note_on_c, 0, 33, 0
1, 150720, Note_on_c, 0, 72, 0
1, 150720, Note_on_c, 0, 61, 53
1, 150720, Note_on_c, 0, 70, 63
1, 150720, Note_on_c, 0, 73, 63
1, 150720, Note_on_c, 0, 34, 41
1, 150720, Note_on_c, 0, 46, 49
1, 150730, Control_c, 0, 64, 0
1, 150813, Control_c, 0, 64, 127
1, 151200, Tempo, 623895
1, 151200, Note_on_c, 0, 46, 0
1, 151200, Note_on_c, 0, 61, 0
1, 151200, Note_on_c, 0, 70, 0
1, 151200, Note_on_c, 0, 65, 0
1, 151200, Note_on_c, 0, 34, 0
1, 151200, Note_on_c, 0, 73, 0
1, 151200, Note_on_c, 0, 64, 53
1, 151200, Note_on_c, 0, 68, 53
1, 151200, Note_on_c, 0, 72, 63
1, 151200, Note_on_c, 0, 36, 41
1, 151200, Note_on_c, 0, 48, 49
1, 151218, Control_c, 0, 64, 0
1, 151314, Control_c, 0, 64, 127
1, 151560, Note_on_c, 0, 48, 0
1, 151560, Note_on_c, 0, 72, 0
1, 151560, Note_on_c, 0, 64, 0
1, 151560, Note_on_c, 0, 68, 0
1, 151560, Note_on_c, 0, 36, 0
1, 151560, Note_on_c, 0, 65, 57
1, 151560, Note_on_c, 0, 70, 57
1, 151560, Note_on_c, 0, 37, 37
1, 151560, Note_on_c, 0, 49, 45
1, 151680, Tempo, 643018
1, 151680, Note_on_c, 0, 49, 0
1, 151680, Note_on_c, 0, 65, 0
1, 151680, Note_on_c, 0, 70, 0
1, 151680, Note_on_c, 0, 37, 0
1, 151680, Note_on_c, 0, 59, 51
1, 151680, Note_on_c, 0, 65, 56
1, 151680, Note_on_c, 0, 68, 61
1, 151680, Note_on_c, 0, 38, 41
1, 151680, Note_on_c, 0, 50, 49
1, 151690, Control_c, 0, 64, 0
1, 151815, Control_c, 0, 64, 127
1, 152160, Tempo, 630186
1, 152160, Note_on_c, 0, 50, 0
1, 152160, Note_on_c, 0, 68, 0
1, 152160, Note_on_c, 0, 59, 0
1, 152160, Note_on_c, 0, 65, 0
1, 152160, Note_on_c, 0, 38, 0
1, 152160, Note_on_c, 0, 54, 49
1, 152160, Note_on_c, 0, 58, 49
1, 152160, Note_on_c, 0, 63, 59
1, 152160, Note_on_c, 0, 66, 59
1, 152160, Note_on_c, 0, 39, 41
1, 152160, Note_on_c, 0, 51, 49
1, 152174, Control_c, 0, 64, 0
1, 152316, Control_c, 0, 64, 127
1, 152520, Note_on_c, 0, 51, 0
1, 152520, Note_on_c, 0, 58, 0
1, 152520, Note_on_c, 0, 63, 0
1, 152520, Note_on_c, 0, 54, 0
1, 152520, Note_on_c, 0, 39, 0
1, 152520, Note_on_c, 0, 66, 0
1, 152520, Note_on_c, 0, 56, 47
1, 152520, Note_on_c, 0, 61, 56
1, 152520, Note_on_c, 0, 65, 56
1, 152520, Note_on_c, 0, 41, 37
1, 152520, Note_on_c, 0, 53, 45
1, 152640, Note_on_c, 0, 53, 0
1, 152640, Note_on_c, 0, 65, 0
1, 152640, Note_on_c, 0, 56, 0
1, 152640, Note_on_c, 0, 61, 0
1, 152640, Note_on_c, 0, 41, 0
1, 152640, Note_on_c, 0, 63, 59
1, 152640, Note_on_c, 0, 58, 49
1, 152640, Note_on_c, 0, 61, 59
1, 152640, Note_on_c, 0, 42, 41
1, 152640, Note_on_c, 0, 54, 49
1, 152647, Control_c, 0, 64, 0
1, 152801, Control_c, 0, 64, 127
1, 153120, Tempo, 674006
1, 153120, Note_on_c, 0, 54, 0
1, 153120, Note_on_c, 0, 61, 0
1, 153120, Note_on_c, 0, 42, 0
1, 153120, Note_on_c, 0, 58, 0
1, 153120, Note_on_c, 0, 54, 47
1, 153120, Note_on_c, 0, 60, 53
1, 153120, Note_on_c, 0, 44, 45
1, 153135, Control_c, 0, 64, 0
1, 153292, Control_c, 0, 64, 127
1, 153360, Tempo, 700607
1, 153360, Note_on_c, 0, 63, 0
1, 153360, Note_on_c, 0, 64, 60
1, 153480, Note_on_c, 0, 64, 0
1, 153480, Note_on_c, 0, 54, 0
1, 153480, Note_on_c, 0, 60, 0
1, 153480, Note_on_c, 0, 65, 55
1, 153540, Note_on_c, 0, 73, 60
1, 153600, Tempo, 639114
1, 153600, Note_on_c, 0, 44, 0
1, 153600, Note_on_c, 0, 80, 72
1, 153600, Note_on_c, 0, 37, 39
1, 153613, Control_c, 0, 64, 0
1, 153698, Control_c, 0, 64, 127
1, 153760, Note_on_c, 0, 37, 0
1, 153760, Note_on_c, 0, 55, 33
1, 153920, Note_on_c, 0, 55, 0
1, 153920, Note_on_c, 0, 56, 31
1, 154080, Note_on_c, 0, 56, 0
1, 154080, Note_on_c, 0, 58, 37
1, 154240, Note_on_c, 0, 58, 0
1, 154240, Note_on_c, 0, 56, 31
1, 154400, Note_on_c, 0, 56, 0
1, 154400, Note_on_c, 0, 44, 31
1, 154560, Tempo, 623895
1, 154560, Note_on_c, 0, 44, 0
1, 154560, Note_on_c, 0, 80, 0
1, 154560, Note_on_c, 0, 73, 0
1, 154560, Note_on_c, 0, 65, 0
1, 154560, Note_on_c, 0, 68, 49
1, 154560, Note_on_c, 0, 73, 49
1, 154560, Note_on_c, 0, 77, 60
1, 154560, Note_on_c, 0, 49, 39
1, 154570, Control_c, 0, 64, 0
1, 154624, Control_c, 0, 64, 127
1, 154720, Note_on_c, 0, 49, 0
1, 154720, Note_on_c, 0, 55, 35
1, 154880, Note_on_c, 0, 55, 0
1, 154880, Note_on_c, 0, 56, 35
1, 155040, Tempo, 639114
1, 155040, Note_on_c, 0, 56, 0
1, 155040, Note_on_c, 0, 68, 0
1, 155040, Note_on_c, 0, 73, 0
1, 155040, Note_on_c, 0, 77, 0
1, 155040, Note_on_c, 0, 65, 34
1, 155040, Note_on_c, 0, 68, 39
1, 155040, Note_on_c, 0, 58, 37
1, 155200, Note_on_c, 0, 58, 0
1, 155200, Note_on_c, 0, 56, 33
1, 155280, Tempo, 665041
1, 155280, Note_on_c, 0, 68, 0
1, 155280, Note_on_c, 0, 65, 0
1, 155280, Note_on_c, 0, 70, 41
1, 155280, Note_on_c, 0, 75, 41
1, 155280, Note_on_c, 0, 78, 55
1, 155360, Note_on_c, 0, 56, 0
1, 155360, Note_on_c, 0, 44, 33
1, 155520, Tempo, 626894
1, 155520, Note_on_c, 0, 44, 0
1, 155520, Note_on_c, 0, 78, 0
1, 155520, Note_on_c, 0, 75, 0
1, 155520, Note_on_c, 0, 70, 0
1, 155520, Note_on_c, 0, 77, 68
1, 155520, Note_on_c, 0, 66, 33
1, 155520, Note_on_c, 0, 72, 42
1, 155520, Note_on_c, 0, 51, 39
1, 155531, Control_c, 0, 64, 0
1, 155595, Control_c, 0, 64, 127
1, 155680, Note_on_c, 0, 51, 0
1, 155680, Note_on_c, 0, 55, 35
1, 155840, Note_on_c, 0, 55, 0
1, 155840, Note_on_c, 0, 56, 35
1, 156000, Tempo, 639114
1, 156000, Note_on_c, 0, 56, 0
1, 156000, Note_on_c, 0, 58, 37
1, 156160, Note_on_c, 0, 58, 0
1, 156160, Note_on_c, 0, 56, 33
1, 156240, Note_on_c, 0, 77, 0
1, 156240, Note_on_c, 0, 75, 55
1, 156320, Note_on_c, 0, 56, 0
1, 156320, Note_on_c, 0, 44, 33
1, 156480, Tempo, 623895
1, 156480, Note_on_c, 0, 44, 0
1, 156480, Note_on_c, 0, 75, 0
1, 156480, Note_on_c, 0, 72, 0
1, 156480, Note_on_c, 0, 66, 0
1, 156480, Note_on_c, 0, 70, 58
1, 156480, Note_on_c, 0, 54, 39
1, 156490, Control_c, 0, 64, 0
1, 156538, Control_c, 0, 64, 127
1, 156640, Note_on_c, 0, 54, 0
1, 156640, Note_on_c, 0, 55, 35
1, 156720, Note_on_c, 0, 70, 0
1, 156720, Note_on_c, 0, 68, 52
1, 156800, Note_on_c, 0, 55, 0
1, 156800, Note_on_c, 0, 56, 35
1, 156960, Tempo, 642261
1, 156960, Note_on_c, 0, 56, 0
1, 156960, Note_on_c, 0, 68, 0
1, 156960, Note_on_c, 0, 61, 61
1, 156960, Note_on_c, 0, 58, 37
1, 157120, Note_on_c, 0, 58, 0
1, 157120, Note_on_c, 0, 56, 33
1, 157200, Tempo, 668449
1, 157200, Note_on_c, 0, 61, 0
1, 157200, Note_on_c, 0, 63, 55
1, 157280, Note_on_c, 0, 56, 0
1, 157280, Note_on_c, 0, 44, 33
1, 157320, Note_on_c, 0, 63, 0
1, 157320, Note_on_c, 0, 65, 62
1, 157440, Tempo, 639114
1, 157440, Note_on_c, 0, 65, 0
1, 157440, Note_on_c, 0, 44, 0
1, 157440, Note_on_c, 0, 65, 55
1, 157440, Note_on_c, 0, 73, 57
1, 157440, Note_on_c, 0, 80, 68
1, 157440, Note_on_c, 0, 49, 39
1, 157451, Control_c, 0, 64, 0
1, 157538, Control_c, 0, 64, 127
1, 157560, Note_on_c, 0, 49, 0
1, 157680, Note_on_c, 0, 55, 34
1, 157800, Note_on_c, 0, 55, 0
1, 157800, Note_on_c, 0, 56, 33
1, 157920, Note_on_c, 0, 56, 0
1, 157920, Note_on_c, 0, 80, 0
1, 157920, Note_on_c, 0, 65, 0
1, 157920, Note_on_c, 0, 68, 49
1, 157920, Note_on_c, 0, 77, 62
1, 157920, Note_on_c, 0, 58, 37
1, 158040, Note_on_c, 0, 58, 0
1, 158040, Note_on_c, 0, 56, 31
1, 158148, Note_on_c, 0, 56, 0
1, 158160, Note_on_c, 0, 56, 37
1, 158280, Note_on_c, 0, 56, 0
1, 158280, Note_on_c, 0, 44, 37
1, 158400, Tempo, 623895
1, 158400, Note_on_c, 0, 44, 0
1, 158400, Note_on_c, 0, 77, 0
1, 158400, Note_on_c, 0, 68, 0
1, 158400, Note_on_c, 0, 73, 0
1, 158400, Note_on_c, 0, 73, 57
1, 158400, Note_on_c, 0, 70, 55
1, 158400, Note_on_c, 0, 78, 66
1, 158400, Note_on_c, 0, 49, 39
1, 158409, Control_c, 0, 64, 0
1, 158458, Control_c, 0, 64, 127
1, 158520, Note_on_c, 0, 49, 0
1, 158640, Note_on_c, 0, 78, 0
1, 158640, Note_on_c, 0, 70, 0
1, 158640, Note_on_c, 0, 68, 46
1, 158640, Note_on_c, 0, 77, 55
1, 158640, Note_on_c, 0, 55, 35
1, 158760, Note_on_c, 0, 55, 0
1, 158760, Note_on_c, 0, 56, 35
1, 158880, Tempo, 639114
1, 158880, Note_on_c, 0, 56, 0
1, 158880, Note_on_c, 0, 77, 0
1, 158880, Note_on_c, 0, 68, 0
1, 158880, Note_on_c, 0, 73, 0
1, 158880, Note_on_c, 0, 68, 48
1, 158880, Note_on_c, 0, 77, 57
1, 158880, Note_on_c, 0, 58, 37
1, 159000, Note_on_c, 0, 58, 0
1, 159000, Note_on_c, 0, 56, 33
1, 159040, Note_on_c, 0, 77, 0
1, 159040, Note_on_c, 0, 68, 0
1, 159040, Note_on_c, 0, 72, 46
1, 159040, Note_on_c, 0, 80, 55
1, 159108, Note_on_c, 0, 56, 0
1, 159120, Note_on_c, 0, 56, 37
1, 159200, Note_on_c, 0, 80, 0
1, 159200, Note_on_c, 0, 72, 0
1, 159200, Note_on_c, 0, 70, 46
1, 159200, Note_on_c, 0, 78, 55
1, 159240, Note_on_c, 0, 56, 0
1, 159240, Note_on_c, 0, 44, 31
1, 159360, Tempo, 626894
1, 159360, Note_on_c, 0, 44, 0
1, 159360, Note_on_c, 0, 78, 0
1, 159360, Note_on_c, 0, 70, 0
1, 159360, Note_on_c, 0, 77, 61
1, 159360, Note_on_c, 0, 66, 32
1, 159360, Note_on_c, 0, 72, 36
1, 159360, Note_on_c, 0, 51, 39
1, 159370, Control_c, 0, 64, 0
1, 159458, Control_c, 0, 64, 127
1, 159480, Note_on_c, 0, 51, 0
1, 159600, Note_on_c, 0, 55, 35
1, 159720, Note_on_c, 0, 55, 0
1, 159720, Note_on_c, 0, 56, 35
1, 159840, Tempo, 639114
1, 159840, Note_on_c, 0, 56, 0
1, 159840, Note_on_c, 0, 58, 37
1, 159960, Note_on_c, 0, 58, 0
1, 159960, Note_on_c, 0, 56, 33
1, 160068, Note_on_c, 0, 56, 0
1, 160080, Note_on_c, 0, 77, 0
1, 160080, Note_on_c, 0, 75, 60
1, 160080, Note_on_c, 0, 56, 37
1, 160200, Note_on_c, 0, 56, 0
1, 160200, Note_on_c, 0, 44, 33
1, 160320, Tempo, 623895
1, 160320, Note_on_c, 0, 44, 0
1, 160320, Note_on_c, 0, 75, 0
1, 160320, Note_on_c, 0, 72, 0
1, 160320, Note_on_c, 0, 66, 0
1, 160320, Note_on_c, 0, 70, 60
1, 160320, Note_on_c, 0, 54, 39
1, 160330, Control_c, 0, 64, 0
1, 160378, Control_c, 0, 64, 127
1, 160480, Note_on_c, 0, 70, 0
1, 160480, Note_on_c, 0, 68, 51
1, 160560, Note_on_c, 0, 54, 0
1, 160560, Note_on_c, 0, 55, 35
1, 160640, Note_on_c, 0, 68, 0
1, 160640, Note_on_c, 0, 70, 51
1, 160680, Note_on_c, 0, 55, 0
1, 160680, Note_on_c, 0, 56, 35
1, 160800, Tempo, 642261
1, 160800, Note_on_c, 0, 56, 0
1, 160800, Note_on_c, 0, 70, 0
1, 160800, Note_on_c, 0, 68, 58
1, 160800, Note_on_c, 0, 58, 39
1, 160920, Note_on_c, 0, 58, 0
1, 160920, Note_on_c, 0, 56, 35
1, 160960, Note_on_c, 0, 68, 0
1, 160960, Note_on_c, 0, 61, 53
1, 161028, Note_on_c, 0, 56, 0
1, 161040, Tempo, 682361
1, 161040, Note_on_c, 0, 56, 39
1, 161120, Note_on_c, 0, 61, 0
1, 161120, Note_on_c, 0, 63, 53
1, 161160, Note_on_c, 0, 56, 0
1, 161160, Note_on_c, 0, 44, 35
1, 161280, Tempo, 642261
1, 161280, Note_on_c, 0, 44, 0
1, 161280, Note_on_c, 0, 63, 0
1, 161280, Note_on_c, 0, 68, 61
1, 161280, Note_on_c, 0, 73, 58
1, 161280, Note_on_c, 0, 80, 73
1, 161280, Note_on_c, 0, 49, 44
1, 161289, Control_c, 0, 64, 0
1, 161359, Control_c, 0, 64, 127
1, 161400, Note_on_c, 0, 49, 0
1, 161400, Note_on_c, 0, 56, 39
1, 161520, Note_on_c, 0, 56, 0
1, 161520, Note_on_c, 0, 58, 39
1, 161640, Note_on_c, 0, 58, 0
1, 161640, Note_on_c, 0, 56, 39
1, 161760, Tempo, 632911
1, 161760, Note_on_c, 0, 56, 0
1, 161760, Note_on_c, 0, 68, 0
1, 161760, Note_on_c, 0, 70, 57
1, 161760, Note_on_c, 0, 82, 68
1, 161760, Note_on_c, 0, 65, 44
1, 161880, Note_on_c, 0, 65, 0
1, 161880, Note_on_c, 0, 56, 40
1, 162000, Note_on_c, 0, 56, 0
1, 162000, Note_on_c, 0, 58, 40
1, 162120, Note_on_c, 0, 58, 0
1, 162120, Note_on_c, 0, 56, 41
1, 162240, Note_on_c, 0, 56, 0
1, 162240, Note_on_c, 0, 82, 0
1, 162240, Note_on_c, 0, 73, 0
1, 162240, Note_on_c, 0, 80, 0
1, 162240, Note_on_c, 0, 70, 0
1, 162240, Note_on_c, 0, 80, 61
1, 162240, Note_on_c, 0, 78, 61
1, 162240, Note_on_c, 0, 72, 61
1, 162240, Note_on_c, 0, 84, 73
1, 162240, Note_on_c, 0, 44, 45
1, 162254, Control_c, 0, 64, 0
1, 162310, Control_c, 0, 64, 127
1, 162360, Note_on_c, 0, 44, 0
1, 162360, Note_on_c, 0, 56, 40
1, 162480, Note_on_c, 0, 56, 0
1, 162480, Note_on_c, 0, 58, 41
1, 162600, Note_on_c, 0, 58, 0
1, 162600, Note_on_c, 0, 56, 41
1, 162720, Tempo, 623895
1, 162720, Note_on_c, 0, 56, 0
1, 162720, Note_on_c, 0, 84, 0
1, 162720, Note_on_c, 0, 72, 0
1, 162720, Note_on_c, 0, 73, 68
1, 162720, Note_on_c, 0, 85, 75
1, 162720, Note_on_c, 0, 66, 47
1, 162840, Note_on_c, 0, 66, 0
1, 162840, Note_on_c, 0, 56, 44
1, 162960, Note_on_c, 0, 56, 0
1, 162960, Note_on_c, 0, 58, 44
1, 163080, Tempo, 645369
1, 163080, Note_on_c, 0, 58, 0
1, 163080, Note_on_c, 0, 73, 0
1, 163080, Note_on_c, 0, 85, 0
1, 163080, Note_on_c, 0, 75, 70
1, 163080, Note_on_c, 0, 87, 73
1, 163080, Note_on_c, 0, 56, 44
1, 163200, Tempo, 632911
1, 163200, Note_on_c, 0, 56, 0
1, 163200, Note_on_c, 0, 75, 0
1, 163200, Note_on_c, 0, 80, 0
1, 163200, Note_on_c, 0, 78, 0
1, 163200, Note_on_c, 0, 87, 0
1, 163200, Note_on_c, 0, 80, 66
1, 163200, Note_on_c, 0, 77, 66
1, 163200, Note_on_c, 0, 89, 78
1, 163200, Note_on_c, 0, 49, 48
1, 163216, Control_c, 0, 64, 0
1, 163266, Control_c, 0, 64, 127
1, 163320, Note_on_c, 0, 49, 0
1, 163320, Note_on_c, 0, 56, 42
1, 163440, Note_on_c, 0, 56, 0
1, 163440, Note_on_c, 0, 58, 42
1, 163560, Note_on_c, 0, 58, 0
1, 163560, Note_on_c, 0, 56, 42
1, 163680, Note_on_c, 0, 56, 0
1, 163680, Note_on_c, 0, 89, 0
1, 163680, Note_on_c, 0, 82, 73
1, 163680, Note_on_c, 0, 70, 61
1, 163680, Note_on_c, 0, 65, 49
1, 163800, Note_on_c, 0, 65, 0
1, 163800, Note_on_c, 0, 56, 46
1, 163920, Note_on_c, 0, 56, 0
1, 163920, Note_on_c, 0, 58, 46
1, 164040, Note_on_c, 0, 58, 0
1, 164040, Note_on_c, 0, 56, 46
1, 164160, Note_on_c, 0, 56, 0
1, 164160, Note_on_c, 0, 70, 0
1, 164160, Note_on_c, 0, 80, 0
1, 164160, Note_on_c, 0, 77, 0
1, 164160, Note_on_c, 0, 82, 0
1, 164160, Note_on_c, 0, 72, 66
1, 164160, Note_on_c, 0, 84, 78
1, 164160, Note_on_c, 0, 80, 66
1, 164160, Note_on_c, 0, 78, 66
1, 164160, Note_on_c, 0, 44, 50
1, 164171, Control_c, 0, 64, 0
1, 164238, Control_c, 0, 64, 127
1, 164280, Note_on_c, 0, 44, 0
1, 164280, Note_on_c, 0, 56, 46
1, 164400, Note_on_c, 0, 56, 0
1, 164400, Note_on_c, 0, 58, 46
1, 164520, Note_on_c, 0, 58, 0
1, 164520, Note_on_c, 0, 56, 46
1, 164640, Note_on_c, 0, 56, 0
1, 164640, Note_on_c, 0, 78, 0
1, 164640, Note_on_c, 0, 72, 0
1, 164640, Note_on_c, 0, 84, 0
1, 164640, Note_on_c, 0, 80, 0
1, 164640, Note_on_c, 0, 85, 79
1, 164640, Note_on_c, 0, 73, 66
1, 164640, Note_on_c, 0, 66, 52
1, 164760, Note_on_c, 0, 66, 0
1, 164760, Note_on_c, 0, 56, 49
1, 164880, Tempo, 659848
1, 164880, Note_on_c, 0, 56, 0
1, 164880, Note_on_c, 0, 58, 49
1, 165000, Note_on_c, 0, 58, 0
1, 165000, Note_on_c, 0, 73, 0
1, 165000, Note_on_c, 0, 85, 0
1, 165000, Note_on_c, 0, 75, 64
1, 165000, Note_on_c, 0, 87, 77
1, 165000, Note_on_c, 0, 56, 49
1, 165120, Note_on_c, 0, 56, 0
1, 165120, Note_on_c, 0, 87, 0
1, 165120, Note_on_c, 0, 75, 0
1, 165120, Note_on_c, 0, 84, 66
1, 165120, Note_on_c, 0, 87, 74
1, 165120, Note_on_c, 0, 77, 70
1, 165120, Note_on_c, 0, 89, 81
1, 165120, Note_on_c, 0, 45, 57
1, 165137, Control_c, 0, 64, 0
1, 165224, Control_c, 0, 64, 127
1, 165240, Note_on_c, 0, 45, 0
1, 165240, Note_on_c, 0, 52, 51
1, 165360, Note_on_c, 0, 52, 0
1, 165360, Note_on_c, 0, 53, 51
1, 165480, Note_on_c, 0, 53, 0
1, 165480, Note_on_c, 0, 60, 51
1, 165600, Tempo, 643018
1, 165600, Note_on_c, 0, 60, 0
1, 165600, Note_on_c, 0, 89, 0
1, 165600, Note_on_c, 0, 77, 0
1, 165600, Note_on_c, 0, 78, 66
1, 165600, Note_on_c, 0, 90, 78
1, 165600, Note_on_c, 0, 57, 58
1, 165720, Note_on_c, 0, 57, 0
1, 165720, Note_on_c, 0, 64, 53
1, 165840, Note_on_c, 0, 64, 0
1, 165840, Note_on_c, 0, 65, 53
1, 165960, Note_on_c, 0, 65, 0
1, 165960, Note_on_c, 0, 72, 53
1, 166080, Tempo, 626894
1, 166080, Note_on_c, 0, 72, 0
1, 166080, Note_on_c, 0, 87, 0
1, 166080, Note_on_c, 0, 84, 0
1, 166080, Note_on_c, 0, 82, 74
1, 166080, Note_on_c, 0, 85, 74
1, 166080, Note_on_c, 0, 46, 59
1, 166091, Control_c, 0, 64, 0
1, 166155, Control_c, 0, 64, 127
1, 166200, Note_on_c, 0, 46, 0
1, 166200, Note_on_c, 0, 52, 52
1, 166320, Tempo, 645369
1, 166320, Note_on_c, 0, 52, 0
1, 166320, Note_on_c, 0, 78, 0
1, 166320, Note_on_c, 0, 90, 0
1, 166320, Note_on_c, 0, 77, 64
1, 166320, Note_on_c, 0, 89, 77
1, 166320, Note_on_c, 0, 53, 52
1, 166440, Note_on_c, 0, 53, 0
1, 166440, Note_on_c, 0, 61, 53
1, 166560, Note_on_c, 0, 61, 0
1, 166560, Note_on_c, 0, 89, 0
1, 166560, Note_on_c, 0, 77, 0
1, 166560, Note_on_c, 0, 76, 63
1, 166560, Note_on_c, 0, 88, 75
1, 166560, Note_on_c, 0, 58, 60
1, 166680, Note_on_c, 0, 58, 0
1, 166680, Note_on_c, 0, 64, 55
1, 166800, Note_on_c, 0, 64, 0
1, 166800, Note_on_c, 0, 88, 0
1, 166800, Note_on_c, 0, 76, 0
1, 166800, Note_on_c, 0, 77, 63
1, 166800, Note_on_c, 0, 89, 75
1, 166800, Note_on_c, 0, 65, 55
1, 166920, Note_on_c, 0, 65, 0
1, 166920, Note_on_c, 0, 73, 56
1, 167040, Note_on_c, 0, 73, 0
1, 167040, Note_on_c, 0, 89, 0
1, 167040, Note_on_c, 0, 85, 0
1, 167040, Note_on_c, 0, 82, 0
1, 167040, Note_on_c, 0, 77, 0
1, 167040, Note_on_c, 0, 87, 57
1, 167040, Note_on_c, 0, 90, 71
1, 167040, Note_on_c, 0, 92, 85
1, 167040, Note_on_c, 0, 80, 72
1, 167040, Note_on_c, 0, 48, 61
1, 167054, Control_c, 0, 64, 0
1, 167098, Control_c, 0, 64, 127
1, 167160, Note_on_c, 0, 48, 0
1, 167160, Note_on_c, 0, 55, 55
1, 167280, Note_on_c, 0, 55, 0
1, 167280, Note_on_c, 0, 56, 55
1, 167400, Note_on_c, 0, 56, 0
1, 167400, Note_on_c, 0, 63, 55
1, 167520, Tempo, 632911
1, 167520, Note_on_c, 0, 63, 0
1, 167520, Note_on_c, 0, 80, 0
1, 167520, Note_on_c, 0, 92, 0
1, 167520, Note_on_c, 0, 82, 70
1, 167520, Note_on_c, 0, 94, 84
1, 167520, Note_on_c, 0, 60, 62
1, 167640, Note_on_c, 0, 60, 0
1, 167640, Note_on_c, 0, 67, 57
1, 167760, Note_on_c, 0, 67, 0
1, 167760, Note_on_c, 0, 68, 57
1, 167880, Note_on_c, 0, 68, 0
1, 167880, Note_on_c, 0, 75, 57
1, 168000, Tempo, 615069
1, 168000, Note_on_c, 0, 75, 0
1, 168000, Note_on_c, 0, 90, 0
1, 168000, Note_on_c, 0, 87, 0
1, 168000, Note_on_c, 0, 89, 81
1, 168000, Note_on_c, 0, 50, 62
1, 168006, Control_c, 0, 64, 0
1, 168058, Control_c, 0, 64, 127
1, 168120, Note_on_c, 0, 50, 0
1, 168120, Note_on_c, 0, 57, 56
1, 168240, Tempo, 632911
1, 168240, Note_on_c, 0, 57, 0
1, 168240, Note_on_c, 0, 82, 0
1, 168240, Note_on_c, 0, 94, 0
1, 168240, Note_on_c, 0, 80, 67
1, 168240, Note_on_c, 0, 92, 80
1, 168240, Note_on_c, 0, 58, 57
1, 168360, Note_on_c, 0, 58, 0
1, 168360, Note_on_c, 0, 65, 57
1, 168480, Note_on_c, 0, 65, 0
1, 168480, Note_on_c, 0, 92, 0
1, 168480, Note_on_c, 0, 80, 0
1, 168480, Note_on_c, 0, 89, 0
1, 168480, Note_on_c, 0, 78, 70
1, 168480, Note_on_c, 0, 90, 84
1, 168480, Note_on_c, 0, 82, 62
1, 168480, Note_on_c, 0, 62, 63
1, 168600, Note_on_c, 0, 62, 0
1, 168600, Note_on_c, 0, 69, 58
1, 168720, Note_on_c, 0, 69, 0
1, 168720, Note_on_c, 0, 70, 59
1, 168840, Note_on_c, 0, 70, 0
1, 168840, Note_on_c, 0, 78, 0
1, 168840, Note_on_c, 0, 90, 0
1, 168840, Note_on_c, 0, 89, 78
1, 168840, Note_on_c, 0, 77, 66
1, 168960, Tempo, 623895
1, 168960, Note_on_c, 0, 77, 0
1, 168960, Note_on_c, 0, 89, 0
1, 168960, Note_on_c, 0, 82, 0
1, 168960, Note_on_c, 0, 82, 73
1, 168960, Note_on_c, 0, 80, 73
1, 168960, Note_on_c, 0, 92, 86
1, 168960, Note_on_c, 0, 39, 59
1, 168974, Control_c, 0, 64, 0
1, 169029, Control_c, 0, 64, 127
1, 169080, Note_on_c, 0, 39, 0
1, 169080, Note_on_c, 0, 46, 52
1, 169200, Tempo, 639114
1, 169200, Note_on_c, 0, 46, 0
1, 169200, Note_on_c, 0, 92, 0
1, 169200, Note_on_c, 0, 80, 0
1, 169200, Note_on_c, 0, 78, 60
1, 169200, Note_on_c, 0, 90, 72
1, 169200, Note_on_c, 0, 51, 52
1, 169320, Note_on_c, 0, 51, 0
1, 169320, Note_on_c, 0, 58, 52
1, 169440, Tempo, 626894
1, 169440, Note_on_c, 0, 58, 0
1, 169440, Note_on_c, 0, 90, 0
1, 169440, Note_on_c, 0, 78, 0
1, 169440, Note_on_c, 0, 82, 0
1, 169440, Note_on_c, 0, 82, 53
1, 169440, Note_on_c, 0, 77, 59
1, 169440, Note_on_c, 0, 89, 72
1, 169440, Note_on_c, 0, 41, 59
1, 169452, Control_c, 0, 64, 0
1, 169538, Control_c, 0, 64, 127
1, 169560, Note_on_c, 0, 41, 0
1, 169560, Note_on_c, 0, 46, 52
1, 169680, Tempo, 642261
1, 169680, Note_on_c, 0, 46, 0
1, 169680, Note_on_c, 0, 89, 0
1, 169680, Note_on_c, 0, 77, 0
1, 169680, Note_on_c, 0, 74, 60
1, 169680, Note_on_c, 0, 86, 72
1, 169680, Note_on_c, 0, 50, 52
1, 169800, Note_on_c, 0, 50, 0
1, 169800, Note_on_c, 0, 56, 52
1, 169920, Tempo, 623895
1, 169920, Note_on_c, 0, 56, 0
1, 169920, Note_on_c, 0, 86, 0
1, 169920, Note_on_c, 0, 74, 0
1, 169920, Note_on_c, 0, 82, 0
1, 169920, Note_on_c, 0, 82, 61
1, 169920, Note_on_c, 0, 89, 81
1, 169920, Note_on_c, 0, 77, 69
1, 169920, Note_on_c, 0, 42, 62
1, 169934, Control_c, 0, 64, 0
1, 169967, Control_c, 0, 64, 127
1, 170040, Note_on_c, 0, 42, 0
1, 170040, Note_on_c, 0, 46, 52
1, 170160, Tempo, 639114
1, 170160, Note_on_c, 0, 46, 0
1, 170160, Note_on_c, 0, 77, 0
1, 170160, Note_on_c, 0, 89, 0
1, 170160, Note_on_c, 0, 87, 71
1, 170160, Note_on_c, 0, 75, 60
1, 170160, Note_on_c, 0, 51, 52
1, 170280, Note_on_c, 0, 51, 0
1, 170280, Note_on_c, 0, 58, 52
1, 170400, Tempo, 623895
1, 170400, Note_on_c, 0, 58, 0
1, 170400, Note_on_c, 0, 75, 0
1, 170400, Note_on_c, 0, 87, 0
1, 170400, Note_on_c, 0, 82, 0
1, 170400, Note_on_c, 0, 76, 53
1, 170400, Note_on_c, 0, 82, 72
1, 170400, Note_on_c, 0, 70, 61
1, 170400, Note_on_c, 0, 43, 61
1, 170412, Control_c, 0, 64, 0
1, 170464, Control_c, 0, 64, 127
1, 170520, Note_on_c, 0, 43, 0
1, 170520, Note_on_c, 0, 49, 52
1, 170640, Note_on_c, 0, 49, 0
1, 170640, Note_on_c, 0, 70, 0
1, 170640, Note_on_c, 0, 82, 0
1, 170640, Note_on_c, 0, 85, 67
1, 170640, Note_on_c, 0, 73, 56
1, 170640, Note_on_c, 0, 52, 52
1, 170760, Note_on_c, 0, 52, 0
1, 170760, Note_on_c, 0, 58, 52
1, 170880, Note_on_c, 0, 58, 0
1, 170880, Note_on_c, 0, 73, 0
1, 170880, Note_on_c, 0, 85, 0
1, 170880, Note_on_c, 0, 76, 0
1, 170880, Note_on_c, 0, 77, 64
1, 170880, Note_on_c, 0, 70, 66
1, 170880, Note_on_c, 0, 82, 80
1, 170880, Note_on_c, 0, 44, 59
1, 170893, Control_c, 0, 64, 0
1, 170952, Control_c, 0, 64, 127
1, 171000, Note_on_c, 0, 44, 0
1, 171000, Note_on_c, 0, 49, 52
1, 171120, Tempo, 642261
1, 171120, Note_on_c, 0, 49, 0
1, 171120, Note_on_c, 0, 82, 0
1, 171120, Note_on_c, 0, 70, 0
1, 171120, Note_on_c, 0, 80, 73
1, 171120, Note_on_c, 0, 68, 61
1, 171120, Note_on_c, 0, 53, 52
1, 171240, Note_on_c, 0, 53, 0
1, 171240, Note_on_c, 0, 61, 52
1, 171360, Note_on_c, 0, 61, 0
1, 171360, Note_on_c, 0, 68, 0
1, 171360, Note_on_c, 0, 80, 0
1, 171360, Note_on_c, 0, 77, 0
1, 171360, Note_on_c, 0, 73, 73
1, 171360, Note_on_c, 0, 66, 61
1, 171360, Note_on_c, 0, 61, 61
1, 171360, Note_on_c, 0, 46, 58
1, 171375, Control_c, 0, 64, 0
1, 171432, Control_c, 0, 64, 127
1, 171480, Note_on_c, 0, 46, 0
1, 171480, Note_on_c, 0, 49, 52
1, 171600, Note_on_c, 0, 49, 0
1, 171600, Note_on_c, 0, 61, 0
1, 171600, Note_on_c, 0, 66, 0
1, 171600, Note_on_c, 0, 66, 62
1, 171600, Note_on_c, 0, 78, 74
1, 171600, Note_on_c, 0, 54, 52
1, 171720, Note_on_c, 0, 54, 0
1, 171720, Note_on_c, 0, 61, 52
1, 171840, Note_on_c, 0, 61, 0
1, 171840, Note_on_c, 0, 78, 0
1, 171840, Note_on_c, 0, 66, 0
1, 171840, Note_on_c, 0, 73, 0
1, 171840, Note_on_c, 0, 61, 67
1, 171840, Note_on_c, 0, 66, 67
1, 171840, Note_on_c, 0, 73, 67
1, 171840, Note_on_c, 0, 75, 80
1, 171840, Note_on_c, 0, 44, 52
1, 171852, Control_c, 0, 64, 0
1, 171919, Control_c, 0, 64, 127
1, 171960, Note_on_c, 0, 44, 0
1, 171960, Note_on_c, 0, 51, 47
1, 172080, Tempo, 632911
1, 172080, Note_on_c, 0, 51, 0
1, 172080, Note_on_c, 0, 56, 47
1, 172200, Note_on_c, 0, 56, 0
1, 172200, Note_on_c, 0, 61, 47
1, 172320, Tempo, 617983
1, 172320, Note_on_c, 0, 61, 0
1, 172320, Note_on_c, 0, 75, 0
1, 172320, Note_on_c, 0, 61, 0
1, 172320, Note_on_c, 0, 66, 0
1, 172320, Note_on_c, 0, 73, 0
1, 172320, Note_on_c, 0, 65, 59
1, 172320, Note_on_c, 0, 77, 75
1, 172320, Note_on_c, 0, 72, 51
1, 172320, Note_on_c, 0, 42, 55
1, 172335, Control_c, 0, 64, 0
1, 172385, Control_c, 0, 64, 127
1, 172440, Note_on_c, 0, 42, 0
1, 172440, Note_on_c, 0, 48, 47
1, 172560, Tempo, 632911
1, 172560, Note_on_c, 0, 48, 0
1, 172560, Note_on_c, 0, 77, 0
1, 172560, Note_on_c, 0, 65, 0
1, 172560, Note_on_c, 0, 66, 60
1, 172560, Note_on_c, 0, 78, 70
1, 172560, Note_on_c, 0, 51, 47
1, 172680, Note_on_c, 0, 51, 0
1, 172680, Note_on_c, 0, 56, 47
1, 172800, Tempo, 623895
1, 172800, Note_on_c, 0, 56, 0
1, 172800, Note_on_c, 0, 78, 0
1, 172800, Note_on_c, 0, 66, 0
1, 172800, Note_on_c, 0, 72, 0
1, 172800, Note_on_c, 0, 73, 46
1, 172800, Note_on_c, 0, 70, 60
1, 172800, Note_on_c, 0, 82, 77
1, 172800, Note_on_c, 0, 41, 55
1, 172813, Control_c, 0, 64, 0
1, 172833, Control_c, 0, 64, 127
1, 172920, Note_on_c, 0, 41, 0
1, 172920, Note_on_c, 0, 44, 47
1, 173040, Tempo, 632911
1, 173040, Note_on_c, 0, 44, 0
1, 173040, Note_on_c, 0, 82, 0
1, 173040, Note_on_c, 0, 70, 0
1, 173040, Note_on_c, 0, 69, 50
1, 173040, Note_on_c, 0, 81, 70
1, 173040, Note_on_c, 0, 49, 47
1, 173160, Note_on_c, 0, 49, 0
1, 173160, Note_on_c, 0, 56, 47
1, 173280, Tempo, 642261
1, 173280, Note_on_c, 0, 56, 0
1, 173280, Note_on_c, 0, 81, 0
1, 173280, Note_on_c, 0, 69, 0
1, 173280, Note_on_c, 0, 73, 0
1, 173280, Note_on_c, 0, 73, 53
1, 173280, Note_on_c, 0, 68, 64
1, 173280, Note_on_c, 0, 80, 77
1, 173280, Note_on_c, 0, 46, 56
1, 173295, Control_c, 0, 64, 0
1, 173337, Control_c, 0, 64, 127
1, 173400, Note_on_c, 0, 46, 0
1, 173400, Note_on_c, 0, 49, 47
1, 173440, Note_on_c, 0, 73, 0
1, 173440, Note_on_c, 0, 80, 0
1, 173440, Note_on_c, 0, 68, 0
1, 173440, Note_on_c, 0, 73, 70
1, 173440, Note_on_c, 0, 61, 60
1, 173520, Note_on_c, 0, 49, 0
1, 173520, Note_on_c, 0, 54, 47
1, 173600, Note_on_c, 0, 61, 0
1, 173600, Note_on_c, 0, 66, 60
1, 173600, Note_on_c, 0, 78, 70
1, 173640, Note_on_c, 0, 54, 0
1, 173640, Note_on_c, 0, 61, 47
1, 173760, Note_on_c, 0, 61, 0
1, 173760, Note_on_c, 0, 78, 0
1, 173760, Note_on_c, 0, 66, 0
1, 173760, Note_on_c, 0, 73, 0
1, 173760, Note_on_c, 0, 63, 66
1, 173760, Note_on_c, 0, 75, 80
1, 173760, Note_on_c, 0, 66, 66
1, 173760, Note_on_c, 0, 73, 66
1, 173760, Note_on_c, 0, 45, 55
1, 173772, Control_c, 0, 64, 0
1, 173811, Control_c, 0, 64, 127
1, 173880, Note_on_c, 0, 45, 0
1, 173880, Note_on_c, 0, 49, 47
1, 174000, Tempo, 620989
1, 174000, Note_on_c, 0, 49, 0
1, 174000, Note_on_c, 0, 75, 0
1, 174000, Note_on_c, 0, 63, 0
1, 174000, Note_on_c, 0, 65, 57
1, 174000, Note_on_c, 0, 77, 68
1, 174000, Note_on_c, 0, 54, 47
1, 174120, Note_on_c, 0, 54, 0
1, 174120, Note_on_c, 0, 65, 0
1, 174120, Note_on_c, 0, 77, 0
1, 174120, Note_on_c, 0, 63, 53
1, 174120, Note_on_c, 0, 75, 63
1, 174120, Note_on_c, 0, 61, 47
1, 174240, Tempo, 639114
1, 174240, Note_on_c, 0, 61, 0
1, 174240, Note_on_c, 0, 63, 0
1, 174240, Note_on_c, 0, 73, 0
1, 174240, Note_on_c, 0, 66, 0
1, 174240, Note_on_c, 0, 75, 0
1, 174240, Note_on_c, 0, 72, 61
1, 174240, Note_on_c, 0, 62, 61
1, 174240, Note_on_c, 0, 74, 73
1, 174240, Note_on_c, 0, 44, 51
1, 174252, Control_c, 0, 64, 0
1, 174298, Control_c, 0, 64, 127
1, 174360, Note_on_c, 0, 44, 0
1, 174360, Note_on_c, 0, 74, 0
1, 174360, Note_on_c, 0, 62, 0
1, 174360, Note_on_c, 0, 63, 57
1, 174360, Note_on_c, 0, 75, 68
1, 174360, Note_on_c, 0, 51, 47
1, 174480, Tempo, 658400
1, 174480, Note_on_c, 0, 51, 0
1, 174480, Note_on_c, 0, 75, 0
1, 174480, Note_on_c, 0, 63, 0
1, 174480, Note_on_c, 0, 65, 61
1, 174480, Note_on_c, 0, 77, 73
1, 174480, Note_on_c, 0, 60, 47
1, 174600, Note_on_c, 0, 60, 0
1, 174600, Note_on_c, 0, 77, 0
1, 174600, Note_on_c, 0, 65, 0
1, 174600, Note_on_c, 0, 66, 58
1, 174600, Note_on_c, 0, 78, 69
1, 174600, Note_on_c, 0, 42, 47
1, 174720, Tempo, 632911
1, 174720, Note_on_c, 0, 42, 0
1, 174720, Note_on_c, 0, 72, 0
1, 174720, Note_on_c, 0, 66, 0
1, 174720, Note_on_c, 0, 78, 0
1, 174720, Note_on_c, 0, 73, 70
1, 174720, Note_on_c, 0, 67, 70
1, 174720, Note_on_c, 0, 79, 83
1, 174720, Note_on_c, 0, 41, 56
1, 174733, Control_c, 0, 64, 0
1, 174755, Control_c, 0, 64, 127
1, 174840, Note_on_c, 0, 41, 0
1, 174840, Note_on_c, 0, 44, 47
1, 174880, Note_on_c, 0, 79, 0
1, 174880, Note_on_c, 0, 67, 0
1, 174880, Note_on_c, 0, 68, 66
1, 174880, Note_on_c, 0, 80, 79
1, 174960, Tempo, 639114
1, 174960, Note_on_c, 0, 44, 0
1, 174960, Note_on_c, 0, 49, 46
1, 175040, Note_on_c, 0, 73, 0
1, 175040, Note_on_c, 0, 80, 0
1, 175040, Note_on_c, 0, 68, 0
1, 175040, Note_on_c, 0, 77, 69
1, 175040, Note_on_c, 0, 89, 77
1, 175080, Note_on_c, 0, 49, 0
1, 175080, Note_on_c, 0, 56, 46
1, 175200, Note_on_c, 0, 56, 0
1, 175200, Note_on_c, 0, 89, 0
1, 175200, Note_on_c, 0, 77, 0
1, 175200, Note_on_c, 0, 78, 70
1, 175200, Note_on_c, 0, 75, 70
1, 175200, Note_on_c, 0, 87, 82
1, 175200, Note_on_c, 0, 46, 53
1, 175212, Control_c, 0, 64, 0
1, 175247, Control_c, 0, 64, 127
1, 175320, Note_on_c, 0, 46, 0
1, 175320, Note_on_c, 0, 49, 45
1, 175360, Note_on_c, 0, 87, 0
1, 175360, Note_on_c, 0, 75, 0
1, 175360, Note_on_c, 0, 73, 62
1, 175360, Note_on_c, 0, 85, 73
1, 175440, Note_on_c, 0, 49, 0
1, 175440, Note_on_c, 0, 54, 44
1, 175520, Note_on_c, 0, 78, 0
1, 175520, Note_on_c, 0, 85, 0
1, 175520, Note_on_c, 0, 73, 0
1, 175520, Note_on_c, 0, 73, 64
1, 175520, Note_on_c, 0, 78, 80
1, 175520, Note_on_c, 0, 66, 68
1, 175560, Note_on_c, 0, 54, 0
1, 175560, Note_on_c, 0, 61, 44
1, 175680, Tempo, 658400
1, 175680, Note_on_c, 0, 61, 0
1, 175680, Note_on_c, 0, 66, 0
1, 175680, Note_on_c, 0, 78, 0
1, 175680, Note_on_c, 0, 73, 0
1, 175680, Note_on_c, 0, 75, 82
1, 175680, Note_on_c, 0, 63, 69
1, 175680, Note_on_c, 0, 68, 69
1, 175680, Note_on_c, 0, 73, 69
1, 175680, Note_on_c, 0, 44, 50
1, 175685, Control_c, 0, 64, 0
1, 175716, Control_c, 0, 64, 127
1, 175800, Note_on_c, 0, 44, 0
1, 175800, Note_on_c, 0, 51, 42
1, 175920, Note_on_c, 0, 51, 0
1, 175920, Note_on_c, 0, 56, 42
1, 176040, Note_on_c, 0, 56, 0
1, 176040, Note_on_c, 0, 61, 41
1, 176160, Tempo, 671892
1, 176160, Note_on_c, 0, 61, 0
1, 176160, Note_on_c, 0, 73, 0
1, 176160, Note_on_c, 0, 63, 0
1, 176160, Note_on_c, 0, 66, 61
1, 176160, Note_on_c, 0, 72, 61
1, 176160, Note_on_c, 0, 44, 49
1, 176165, Control_c, 0, 64, 0
1, 176203, Control_c, 0, 64, 127
1, 176280, Note_on_c, 0, 44, 0
1, 176280, Note_on_c, 0, 51, 41
1, 176400, Note_on_c, 0, 51, 0
1, 176400, Note_on_c, 0, 72, 0
1, 176400, Note_on_c, 0, 66, 0
1, 176400, Note_on_c, 0, 68, 0
1, 176400, Note_on_c, 0, 56, 40
1, 176520, Note_on_c, 0, 56, 0
1, 176520, Note_on_c, 0, 60, 40
1, 176580, Note_on_c, 0, 75, 0
1, 176580, Note_on_c, 0, 73, 73
1, 176640, Tempo, 550459
1, 176640, Note_on_c, 0, 73, 0
1, 176640, Note_on_c, 0, 60, 0
1, 176640, Note_on_c, 0, 65, 72
1, 176640, Note_on_c, 0, 73, 85
1, 176640, Note_on_c, 0, 61, 66
1, 176640, Note_on_c, 0, 49, 56
1, 176640, Note_on_c, 0, 56, 56
1, 176641, Control_c, 0, 64, 0
1, 176800, Note_on_c, 0, 56, 0
1, 176800, Note_on_c, 0, 61, 0
1, 176800, Note_on_c, 0, 65, 0
1, 176800, Note_on_c, 0, 73, 0
1, 176800, Note_on_c, 0, 49, 0
1, 176800, Note_on_c, 0, 63, 62
1, 176800, Note_on_c, 0, 70, 73
1, 176800, Note_on_c, 0, 51, 42
1, 176800, Note_on_c, 0, 55, 42
1, 176800, Note_on_c, 0, 61, 51
1, 176880, Tempo, 528634
1, 176880, Note_on_c, 0, 61, 0
1, 176880, Note_on_c, 0, 51, 0
1, 176880, Note_on_c, 0, 63, 0
1, 176880, Note_on_c, 0, 70, 0
1, 176880, Note_on_c, 0, 55, 0
1, 176960, Note_on_c, 0, 70, 73
1, 176960, Note_on_c, 0, 63, 62
1, 176960, Note_on_c, 0, 61, 51
1, 176960, Note_on_c, 0, 55, 42
1, 176960, Note_on_c, 0, 51, 42
1, 177040, Note_on_c, 0, 51, 0
1, 177040, Note_on_c, 0, 61, 0
1, 177040, Note_on_c, 0, 70, 0
1, 177040, Note_on_c, 0, 63, 0
1, 177040, Note_on_c, 0, 55, 0
1, 177120, Tempo, 505263
1, 177120, Note_on_c, 0, 63, 62
1, 177120, Note_on_c, 0, 70, 75
1, 177120, Note_on_c, 0, 61, 56
1, 177120, Note_on_c, 0, 55, 46
1, 177120, Note_on_c, 0, 51, 46
1, 177280, Note_on_c, 0, 51, 0
1, 177280, Note_on_c, 0, 61, 0
1, 177280, Note_on_c, 0, 63, 0
1, 177280, Note_on_c, 0, 70, 0
1, 177280, Note_on_c, 0, 55, 0
1, 177280, Note_on_c, 0, 68, 71
1, 177280, Note_on_c, 0, 56, 42
1, 177280, Note_on_c, 0, 60, 51
1, 177360, Tempo, 493827
1, 177360, Note_on_c, 0, 60, 0
1, 177360, Note_on_c, 0, 56, 0
1, 177360, Note_on_c, 0, 68, 0
1, 177440, Note_on_c, 0, 72, 62
1, 177440, Note_on_c, 0, 78, 74
1, 177440, Note_on_c, 0, 63, 42
1, 177440, Note_on_c, 0, 68, 51
1, 177440, Note_on_c, 0, 56, 42
1, 177520, Note_on_c, 0, 56, 0
1, 177520, Note_on_c, 0, 63, 0
1, 177520, Note_on_c, 0, 72, 0
1, 177520, Note_on_c, 0, 78, 0
1, 177520, Note_on_c, 0, 68, 0
1, 177600, Tempo, 485515
1, 177600, Note_on_c, 0, 72, 63
1, 177600, Note_on_c, 0, 78, 75
1, 177600, Note_on_c, 0, 68, 56
1, 177600, Note_on_c, 0, 56, 46
1, 177600, Note_on_c, 0, 63, 46
1, 177760, Note_on_c, 0, 63, 0
1, 177760, Note_on_c, 0, 68, 0
1, 177760, Note_on_c, 0, 72, 0
1, 177760, Note_on_c, 0, 78, 0
1, 177760, Note_on_c, 0, 56, 0
1, 177760, Note_on_c, 0, 73, 62
1, 177760, Note_on_c, 0, 77, 74
1, 177760, Note_on_c, 0, 61, 42
1, 177760, Note_on_c, 0, 68, 51
1, 177840, Tempo, 466563
1, 177840, Note_on_c, 0, 68, 0
1, 177840, Note_on_c, 0, 73, 0
1, 177840, Note_on_c, 0, 77, 0
1, 177840, Note_on_c, 0, 61, 0
1, 177920, Note_on_c, 0, 75, 62
1, 177920, Note_on_c, 0, 82, 74
1, 177920, Note_on_c, 0, 73, 51
1, 177920, Note_on_c, 0, 63, 42
1, 177920, Note_on_c, 0, 67, 51
1, 178000, Note_on_c, 0, 67, 0
1, 178000, Note_on_c, 0, 73, 0
1, 178000, Note_on_c, 0, 75, 0
1, 178000, Note_on_c, 0, 82, 0
1, 178000, Note_on_c, 0, 63, 0
1, 178080, Tempo, 479004
1, 178080, Note_on_c, 0, 82, 78
1, 178080, Note_on_c, 0, 75, 64
1, 178080, Note_on_c, 0, 63, 46
1, 178080, Note_on_c, 0, 67, 56
1, 178080, Note_on_c, 0, 73, 56
1, 178240, Note_on_c, 0, 73, 0
1, 178240, Note_on_c, 0, 63, 0
1, 178240, Note_on_c, 0, 82, 0
1, 178240, Note_on_c, 0, 75, 0
1, 178240, Note_on_c, 0, 67, 0
1, 178240, Note_on_c, 0, 80, 73
1, 178240, Note_on_c, 0, 68, 42
1, 178240, Note_on_c, 0, 72, 51
1, 178320, Tempo, 470588
1, 178320, Note_on_c, 0, 72, 0
1, 178320, Note_on_c, 0, 68, 0
1, 178320, Note_on_c, 0, 80, 0
1, 178400, Note_on_c, 0, 90, 73
1, 178400, Note_on_c, 0, 84, 62
1, 178400, Note_on_c, 0, 80, 51
1, 178400, Note_on_c, 0, 75, 42
1, 178400, Note_on_c, 0, 68, 42
1, 178480, Note_on_c, 0, 68, 0
1, 178480, Note_on_c, 0, 80, 0
1, 178480, Note_on_c, 0, 90, 0
1, 178480, Note_on_c, 0, 84, 0
1, 178480, Note_on_c, 0, 75, 0
1, 178560, Tempo, 475926
1, 178560, Note_on_c, 0, 84, 64
1, 178560, Note_on_c, 0, 90, 78
1, 178560, Note_on_c, 0, 68, 46
1, 178560, Note_on_c, 0, 80, 56
1, 178560, Note_on_c, 0, 75, 46
1, 178720, Note_on_c, 0, 75, 0
1, 178720, Note_on_c, 0, 68, 0
1, 178720, Note_on_c, 0, 84, 0
1, 178720, Note_on_c, 0, 90, 0
1, 178720, Note_on_c, 0, 80, 0
1, 178720, Note_on_c, 0, 85, 62
1, 178720, Note_on_c, 0, 89, 73
1, 178720, Note_on_c, 0, 80, 51
1, 178720, Note_on_c, 0, 73, 42
1, 178800, Tempo, 466237
1, 178800, Note_on_c, 0, 73, 0
1, 178800, Note_on_c, 0, 85, 0
1, 178800, Note_on_c, 0, 89, 0
1, 178800, Note_on_c, 0, 80, 0
1, 178880, Note_on_c, 0, 82, 73
1, 178880, Note_on_c, 0, 75, 62
1, 178880, Note_on_c, 0, 63, 44
1, 178880, Note_on_c, 0, 73, 52
1, 178880, Note_on_c, 0, 67, 44
1, 178960, Note_on_c, 0, 67, 0
1, 178960, Note_on_c, 0, 63, 0
1, 178960, Note_on_c, 0, 82, 0
1, 178960, Note_on_c, 0, 75, 0
1, 178960, Note_on_c, 0, 73, 0
1, 179040, Note_on_c, 0, 75, 62
1, 179040, Note_on_c, 0, 82, 75
1, 179040, Note_on_c, 0, 73, 56
1, 179040, Note_on_c, 0, 67, 46
1, 179040, Note_on_c, 0, 63, 46
1, 179200, Note_on_c, 0, 63, 0
1, 179200, Note_on_c, 0, 73, 0
1, 179200, Note_on_c, 0, 75, 0
1, 179200, Note_on_c, 0, 82, 0
1, 179200, Note_on_c, 0, 67, 0
1, 179200, Note_on_c, 0, 80, 72
1, 179200, Note_on_c, 0, 68, 44
1, 179200, Note_on_c, 0, 72, 52
1, 179280, Note_on_c, 0, 72, 0
1, 179280, Note_on_c, 0, 68, 0
1, 179280, Note_on_c, 0, 80, 0
1, 179360, Note_on_c, 0, 72, 62
1, 179360, Note_on_c, 0, 78, 74
1, 179360, Note_on_c, 0, 56, 44
1, 179360, Note_on_c, 0, 63, 44
1, 179360, Note_on_c, 0, 68, 52
1, 179440, Note_on_c, 0, 68, 0
1, 179440, Note_on_c, 0, 56, 0
1, 179440, Note_on_c, 0, 72, 0
1, 179440, Note_on_c, 0, 78, 0
1, 179440, Note_on_c, 0, 63, 0
1, 179520, Note_on_c, 0, 78, 75
1, 179520, Note_on_c, 0, 72, 62
1, 179520, Note_on_c, 0, 68, 56
1, 179520, Note_on_c, 0, 63, 46
1, 179520, Note_on_c, 0, 56, 46
1, 179680, Note_on_c, 0, 56, 0
1, 179680, Note_on_c, 0, 68, 0
1, 179680, Note_on_c, 0, 78, 0
1, 179680, Note_on_c, 0, 72, 0
1, 179680, Note_on_c, 0, 63, 0
1, 179680, Note_on_c, 0, 73, 60
1, 179680, Note_on_c, 0, 77, 71
1, 179680, Note_on_c, 0, 68, 52
1, 179680, Note_on_c, 0, 61, 44
1, 179760, Note_on_c, 0, 61, 0
1, 179760, Note_on_c, 0, 73, 0
1, 179760, Note_on_c, 0, 77, 0
1, 179760, Note_on_c, 0, 68, 0
1, 179840, Note_on_c, 0, 70, 74
1, 179840, Note_on_c, 0, 63, 62
1, 179840, Note_on_c, 0, 61, 52
1, 179840, Note_on_c, 0, 51, 44
1, 179840, Note_on_c, 0, 55, 44
1, 179920, Note_on_c, 0, 55, 0
1, 179920, Note_on_c, 0, 61, 0
1, 179920, Note_on_c, 0, 70, 0
1, 179920, Note_on_c, 0, 63, 0
1, 179920, Note_on_c, 0, 51, 0
1, 180000, Note_on_c, 0, 63, 64
1, 180000, Note_on_c, 0, 70, 78
1, 180000, Note_on_c, 0, 61, 56
1, 180000, Note_on_c, 0, 55, 46
1, 180000, Note_on_c, 0, 51, 46
1, 180160, Note_on_c, 0, 51, 0
1, 180160, Note_on_c, 0, 61, 0
1, 180160, Note_on_c, 0, 63, 0
1, 180160, Note_on_c, 0, 70, 0
1, 180160, Note_on_c, 0, 55, 0
1, 180160, Note_on_c, 0, 68, 74
1, 180160, Note_on_c, 0, 56, 44
1, 180160, Note_on_c, 0, 60, 52
1, 180240, Tempo, 477593
1, 180240, Note_on_c, 0, 60, 0
1, 180240, Note_on_c, 0, 56, 0
1, 180240, Note_on_c, 0, 68, 0
1, 180320, Note_on_c, 0, 60, 62
1, 180320, Note_on_c, 0, 66, 74
1, 180320, Note_on_c, 0, 56, 52
1, 180320, Note_on_c, 0, 44, 44
1, 180320, Note_on_c, 0, 51, 44
1, 180400, Note_on_c, 0, 51, 0
1, 180400, Note_on_c, 0, 56, 0
1, 180400, Note_on_c, 0, 60, 0
1, 180400, Note_on_c, 0, 66, 0
1, 180400, Note_on_c, 0, 44, 0
1, 180480, Tempo, 491965
1, 180480, Note_on_c, 0, 60, 64
1, 180480, Note_on_c, 0, 66, 78
1, 180480, Note_on_c, 0, 56, 56
1, 180480, Note_on_c, 0, 51, 46
1, 180480, Note_on_c, 0, 44, 46
1, 180640, Note_on_c, 0, 44, 0
1, 180640, Note_on_c, 0, 56, 0
1, 180640, Note_on_c, 0, 60, 0
1, 180640, Note_on_c, 0, 66, 0
1, 180640, Note_on_c, 0, 51, 0
1, 180640, Note_on_c, 0, 65, 67
1, 180640, Note_on_c, 0, 61, 56
1, 180640, Note_on_c, 0, 49, 39
1, 180640, Note_on_c, 0, 56, 47
1, 180720, Note_on_c, 0, 56, 0
1, 180720, Note_on_c, 0, 65, 0
1, 180720, Note_on_c, 0, 61, 0
1, 180720, Note_on_c, 0, 49, 0
1, 180800, Tempo, 470773
1, 180800, Note_on_c, 0, 69, 59
1, 180800, Note_on_c, 0, 64, 49
1, 180800, Note_on_c, 0, 55, 36
1, 180800, Note_on_c, 0, 61, 41
1, 180880, Note_on_c, 0, 61, 0
1, 180880, Note_on_c, 0, 69, 0
1, 180880, Note_on_c, 0, 64, 0
1, 180880, Note_on_c, 0, 55, 0
1, 180960, Tempo, 468494
1, 180960, Note_on_c, 0, 69, 62
1, 180960, Note_on_c, 0, 64, 51
1, 180960, Note_on_c, 0, 55, 37
1, 180960, Note_on_c, 0, 61, 44
1, 181120, Note_on_c, 0, 61, 0
1, 181120, Note_on_c, 0, 69, 0
1, 181120, Note_on_c, 0, 64, 0
1, 181120, Note_on_c, 0, 55, 0
1, 181120, Note_on_c, 0, 63, 49
1, 181120, Note_on_c, 0, 68, 58
1, 181120, Note_on_c, 0, 56, 34
1, 181120, Note_on_c, 0, 60, 41
1, 181200, Note_on_c, 0, 60, 0
1, 181200, Note_on_c, 0, 63, 0
1, 181200, Note_on_c, 0, 68, 0
1, 181200, Note_on_c, 0, 56, 0
1, 181280, Note_on_c, 0, 72, 44
1, 181280, Note_on_c, 0, 78, 52
1, 181280, Note_on_c, 0, 63, 29
1, 181280, Note_on_c, 0, 68, 36
1, 181280, Note_on_c, 0, 56, 29
1, 181360, Note_on_c, 0, 56, 0
1, 181360, Note_on_c, 0, 63, 0
1, 181360, Note_on_c, 0, 72, 0
1, 181360, Note_on_c, 0, 78, 0
1, 181360, Note_on_c, 0, 68, 0
1, 181440, Note_on_c, 0, 72, 46
1, 181440, Note_on_c, 0, 78, 55
1, 181440, Note_on_c, 0, 68, 39
1, 181440, Note_on_c, 0, 63, 33
1, 181440, Note_on_c, 0, 56, 33
1, 181600, Note_on_c, 0, 56, 0
1, 181600, Note_on_c, 0, 68, 0
1, 181600, Note_on_c, 0, 72, 0
1, 181600, Note_on_c, 0, 78, 0
1, 181600, Note_on_c, 0, 63, 0
1, 181600, Note_on_c, 0, 73, 44
1, 181600, Note_on_c, 0, 77, 52
1, 181600, Note_on_c, 0, 61, 29
1, 181600, Note_on_c, 0, 68, 36
1, 181680, Note_on_c, 0, 68, 0
1, 181680, Note_on_c, 0, 73, 0
1, 181680, Note_on_c, 0, 77, 0
1, 181680, Note_on_c, 0, 61, 0
1, 181760, Note_on_c, 0, 76, 44
1, 181760, Note_on_c, 0, 81, 52
1, 181760, Note_on_c, 0, 67, 36
1, 181760, Note_on_c, 0, 73, 36
1, 181840, Note_on_c, 0, 73, 0
1, 181840, Note_on_c, 0, 76, 0
1, 181840, Note_on_c, 0, 81, 0
1, 181840, Note_on_c, 0, 67, 0
1, 181920, Note_on_c, 0, 81, 55
1, 181920, Note_on_c, 0, 76, 46
1, 181920, Note_on_c, 0, 67, 39
1, 181920, Note_on_c, 0, 73, 39
1, 182080, Note_on_c, 0, 73, 0
1, 182080, Note_on_c, 0, 81, 0
1, 182080, Note_on_c, 0, 76, 0
1, 182080, Note_on_c, 0, 67, 0
1, 182080, Note_on_c, 0, 75, 41
1, 182080, Note_on_c, 0, 80, 51
1, 182080, Note_on_c, 0, 72, 36
1, 182080, Note_on_c, 0, 68, 29
1, 182160, Note_on_c, 0, 68, 0
1, 182160, Note_on_c, 0, 75, 0
1, 182160, Note_on_c, 0, 80, 0
1, 182160, Note_on_c, 0, 72, 0
1, 182240, Note_on_c, 0, 84, 39
1, 182240, Note_on_c, 0, 90, 46
1, 182240, Note_on_c, 0, 68, 26
1, 182240, Note_on_c, 0, 75, 26
1, 182240, Note_on_c, 0, 80, 31
1, 182320, Note_on_c, 0, 80, 0
1, 182320, Note_on_c, 0, 68, 0
1, 182320, Note_on_c, 0, 84, 0
1, 182320, Note_on_c, 0, 90, 0
1, 182320, Note_on_c, 0, 75, 0
1, 182400, Note_on_c, 0, 84, 40
1, 182400, Note_on_c, 0, 90, 49
1, 182400, Note_on_c, 0, 80, 35
1, 182400, Note_on_c, 0, 75, 29
1, 182400, Note_on_c, 0, 68, 29
1, 182560, Note_on_c, 0, 68, 0
1, 182560, Note_on_c, 0, 80, 0
1, 182560, Note_on_c, 0, 84, 0
1, 182560, Note_on_c, 0, 90, 0
1, 182560, Note_on_c, 0, 75, 0
1, 182560, Note_on_c, 0, 85, 39
1, 182560, Note_on_c, 0, 89, 46
1, 182560, Note_on_c, 0, 73, 26
1, 182560, Note_on_c, 0, 80, 31
1, 182640, Note_on_c, 0, 80, 0
1, 182640, Note_on_c, 0, 85, 0
1, 182640, Note_on_c, 0, 89, 0
1, 182640, Note_on_c, 0, 73, 0
1, 182720, Note_on_c, 0, 81, 55
1, 182720, Note_on_c, 0, 76, 47
1, 182720, Note_on_c, 0, 73, 39
1, 182720, Note_on_c, 0, 67, 33
1, 182800, Note_on_c, 0, 67, 0
1, 182800, Note_on_c, 0, 81, 0
1, 182800, Note_on_c, 0, 76, 0
1, 182800, Note_on_c, 0, 73, 0
1, 182880, Note_on_c, 0, 76, 49
1, 182880, Note_on_c, 0, 81, 59
1, 182880, Note_on_c, 0, 67, 35
1, 182880, Note_on_c, 0, 73, 41
1, 183040, Note_on_c, 0, 73, 0
1, 183040, Note_on_c, 0, 76, 0
1, 183040, Note_on_c, 0, 81, 0
1, 183040, Note_on_c, 0, 67, 0
1, 183040, Note_on_c, 0, 80, 56
1, 183040, Note_on_c, 0, 75, 45
1, 183040, Note_on_c, 0, 68, 33
1, 183040, Note_on_c, 0, 72, 39
1, 183120, Tempo, 479962
1, 183120, Note_on_c, 0, 72, 0
1, 183120, Note_on_c, 0, 80, 0
1, 183120, Note_on_c, 0, 75, 0
1, 183120, Note_on_c, 0, 68, 0
1, 183200, Note_on_c, 0, 72, 47
1, 183200, Note_on_c, 0, 78, 56
1, 183200, Note_on_c, 0, 68, 39
1, 183200, Note_on_c, 0, 63, 33
1, 183200, Note_on_c, 0, 56, 33
1, 183280, Note_on_c, 0, 56, 0
1, 183280, Note_on_c, 0, 68, 0
1, 183280, Note_on_c, 0, 72, 0
1, 183280, Note_on_c, 0, 78, 0
1, 183280, Note_on_c, 0, 63, 0
1, 183360, Tempo, 487053
1, 183360, Note_on_c, 0, 72, 49
1, 183360, Note_on_c, 0, 78, 59
1, 183360, Note_on_c, 0, 63, 35
1, 183360, Note_on_c, 0, 68, 41
1, 183360, Note_on_c, 0, 56, 35
1, 183520, Note_on_c, 0, 56, 0
1, 183520, Note_on_c, 0, 63, 0
1, 183520, Note_on_c, 0, 72, 0
1, 183520, Note_on_c, 0, 78, 0
1, 183520, Note_on_c, 0, 68, 0
1, 183520, Note_on_c, 0, 73, 47
1, 183520, Note_on_c, 0, 77, 55
1, 183520, Note_on_c, 0, 61, 33
1, 183520, Note_on_c, 0, 68, 39
1, 183600, Note_on_c, 0, 68, 0
1, 183600, Note_on_c, 0, 73, 0
1, 183600, Note_on_c, 0, 77, 0
1, 183600, Note_on_c, 0, 61, 0
1, 183680, Tempo, 468494
1, 183680, Note_on_c, 0, 69, 56
1, 183680, Note_on_c, 0, 64, 47
1, 183680, Note_on_c, 0, 55, 33
1, 183680, Note_on_c, 0, 61, 39
1, 183760, Note_on_c, 0, 61, 0
1, 183760, Note_on_c, 0, 69, 0
1, 183760, Note_on_c, 0, 64, 0
1, 183760, Note_on_c, 0, 55, 0
1, 183840, Tempo, 483286
1, 183840, Note_on_c, 0, 64, 49
1, 183840, Note_on_c, 0, 69, 59
1, 183840, Note_on_c, 0, 55, 35
1, 183840, Note_on_c, 0, 61, 41
1, 184000, Note_on_c, 0, 61, 0
1, 184000, Note_on_c, 0, 64, 0
1, 184000, Note_on_c, 0, 69, 0
1, 184000, Note_on_c, 0, 55, 0
1, 184000, Note_on_c, 0, 68, 56
1, 184000, Note_on_c, 0, 63, 45
1, 184000, Note_on_c, 0, 56, 33
1, 184000, Note_on_c, 0, 60, 39
1, 184080, Tempo, 504244
1, 184080, Note_on_c, 0, 60, 0
1, 184080, Note_on_c, 0, 68, 0
1, 184080, Note_on_c, 0, 63, 0
1, 184080, Note_on_c, 0, 56, 0
1, 184160, Note_on_c, 0, 63, 52
1, 184160, Note_on_c, 0, 60, 52
1, 184160, Note_on_c, 0, 66, 62
1, 184160, Note_on_c, 0, 44, 41
1, 184160, Note_on_c, 0, 56, 49
1, 184240, Note_on_c, 0, 56, 0
1, 184240, Note_on_c, 0, 66, 0
1, 184240, Note_on_c, 0, 63, 0
1, 184240, Note_on_c, 0, 60, 0
1, 184240, Note_on_c, 0, 44, 0
1, 184320, Tempo, 487053
1, 184320, Note_on_c, 0, 63, 49
1, 184320, Note_on_c, 0, 60, 49
1, 184320, Note_on_c, 0, 66, 59
1, 184320, Note_on_c, 0, 44, 39
1, 184320, Note_on_c, 0, 56, 47
1, 184480, Note_on_c, 0, 56, 0
1, 184480, Note_on_c, 0, 66, 0
1, 184480, Note_on_c, 0, 63, 0
1, 184480, Note_on_c, 0, 60, 0
1, 184480, Note_on_c, 0, 44, 0
1, 184480, Note_on_c, 0, 64, 42
1, 184480, Note_on_c, 0, 60, 41
1, 184480, Note_on_c, 0, 67, 49
1, 184480, Note_on_c, 0, 43, 33
1, 184480, Note_on_c, 0, 55, 39
1, 184560, Tempo, 470921
1, 184560, Note_on_c, 0, 55, 0
1, 184560, Note_on_c, 0, 67, 0
1, 184560, Note_on_c, 0, 64, 0
1, 184560, Note_on_c, 0, 60, 0
1, 184560, Note_on_c, 0, 43, 0
1, 184640, Note_on_c, 0, 62, 49
1, 184640, Note_on_c, 0, 66, 47
1, 184640, Note_on_c, 0, 72, 56
1, 184640, Note_on_c, 0, 55, 38
1, 184640, Note_on_c, 0, 57, 45
1, 184720, Note_on_c, 0, 57, 0
1, 184720, Note_on_c, 0, 72, 0
1, 184720, Note_on_c, 0, 62, 0
1, 184720, Note_on_c, 0, 66, 0
1, 184720, Note_on_c, 0, 55, 0
1, 184800, Tempo, 477707
1, 184800, Note_on_c, 0, 66, 49
1, 184800, Note_on_c, 0, 72, 59
1, 184800, Note_on_c, 0, 62, 49
1, 184800, Note_on_c, 0, 57, 47
1, 184800, Note_on_c, 0, 55, 39
1, 184960, Note_on_c, 0, 55, 0
1, 184960, Note_on_c, 0, 62, 0
1, 184960, Note_on_c, 0, 66, 0
1, 184960, Note_on_c, 0, 72, 0
1, 184960, Note_on_c, 0, 57, 0
1, 184960, Note_on_c, 0, 62, 42
1, 184960, Note_on_c, 0, 67, 41
1, 184960, Note_on_c, 0, 71, 48
1, 184960, Note_on_c, 0, 59, 39
1, 184960, Note_on_c, 0, 55, 31
1, 185040, Tempo, 466563
1, 185040, Note_on_c, 0, 55, 0
1, 185040, Note_on_c, 0, 71, 0
1, 185040, Note_on_c, 0, 62, 0
1, 185040, Note_on_c, 0, 67, 0
1, 185040, Note_on_c, 0, 59, 0
1, 185120, Note_on_c, 0, 65, 47
1, 185120, Note_on_c, 0, 67, 47
1, 185120, Note_on_c, 0, 71, 47
1, 185120, Note_on_c, 0, 77, 56
1, 185120, Note_on_c, 0, 62, 44
1, 185120, Note_on_c, 0, 55, 36
1, 185200, Note_on_c, 0, 55, 0
1, 185200, Note_on_c, 0, 67, 0
1, 185200, Note_on_c, 0, 71, 0
1, 185200, Note_on_c, 0, 65, 0
1, 185200, Note_on_c, 0, 62, 0
1, 185200, Note_on_c, 0, 77, 0
1, 185280, Note_on_c, 0, 65, 49
1, 185280, Note_on_c, 0, 67, 49
1, 185280, Note_on_c, 0, 77, 59
1, 185280, Note_on_c, 0, 71, 49
1, 185280, Note_on_c, 0, 62, 47
1, 185280, Note_on_c, 0, 55, 39
1, 185440, Note_on_c, 0, 55, 0
1, 185440, Note_on_c, 0, 67, 0
1, 185440, Note_on_c, 0, 77, 0
1, 185440, Note_on_c, 0, 65, 0
1, 185440, Note_on_c, 0, 62, 0
1, 185440, Note_on_c, 0, 71, 0
1, 185440, Note_on_c, 0, 67, 46
1, 185440, Note_on_c, 0, 72, 44
1, 185440, Note_on_c, 0, 76, 52
1, 185440, Note_on_c, 0, 55, 34
1, 185440, Note_on_c, 0, 60, 34
1, 185440, Note_on_c, 0, 64, 41
1, 185520, Note_on_c, 0, 64, 0
1, 185520, Note_on_c, 0, 72, 0
1, 185520, Note_on_c, 0, 76, 0
1, 185520, Note_on_c, 0, 67, 0
1, 185520, Note_on_c, 0, 60, 0
1, 185520, Note_on_c, 0, 55, 0
1, 185600, Note_on_c, 0, 84, 56
1, 185600, Note_on_c, 0, 74, 49
1, 185600, Note_on_c, 0, 78, 47
1, 185600, Note_on_c, 0, 72, 49
1, 185600, Note_on_c, 0, 69, 44
1, 185600, Note_on_c, 0, 55, 44
1, 185600, Note_on_c, 0, 62, 44
1, 185680, Note_on_c, 0, 62, 0
1, 185680, Note_on_c, 0, 69, 0
1, 185680, Note_on_c, 0, 74, 0
1, 185680, Note_on_c, 0, 78, 0
1, 185680, Note_on_c, 0, 84, 0
1, 185680, Note_on_c, 0, 55, 0
1, 185680, Note_on_c, 0, 72, 0
1, 185760, Note_on_c, 0, 72, 49
1, 185760, Note_on_c, 0, 74, 49
1, 185760, Note_on_c, 0, 78, 49
1, 185760, Note_on_c, 0, 84, 59
1, 185760, Note_on_c, 0, 69, 47
1, 185760, Note_on_c, 0, 55, 47
1, 185760, Note_on_c, 0, 62, 47
1, 185920, Note_on_c, 0, 62, 0
1, 185920, Note_on_c, 0, 69, 0
1, 185920, Note_on_c, 0, 74, 0
1, 185920, Note_on_c, 0, 78, 0
1, 185920, Note_on_c, 0, 72, 0
1, 185920, Note_on_c, 0, 55, 0
1, 185920, Note_on_c, 0, 84, 0
1, 185920, Note_on_c, 0, 79, 41
1, 185920, Note_on_c, 0, 83, 51
1, 185920, Note_on_c, 0, 71, 46
1, 185920, Note_on_c, 0, 62, 34
1, 185920, Note_on_c, 0, 67, 41
1, 185920, Note_on_c, 0, 55, 44
1, 186000, Tempo, 477593
1, 186000, Note_on_c, 0, 55, 0
1, 186000, Note_on_c, 0, 83, 0
1, 186000, Note_on_c, 0, 71, 0
1, 186000, Note_on_c, 0, 79, 0
1, 186000, Note_on_c, 0, 67, 0
1, 186000, Note_on_c, 0, 62, 0
1, 186080, Note_on_c, 0, 77, 49
1, 186080, Note_on_c, 0, 79, 49
1, 186080, Note_on_c, 0, 83, 47
1, 186080, Note_on_c, 0, 89, 55
1, 186080, Note_on_c, 0, 62, 36
1, 186080, Note_on_c, 0, 55, 47
1, 186080, Note_on_c, 0, 67, 44
1, 186160, Note_on_c, 0, 67, 0
1, 186160, Note_on_c, 0, 62, 0
1, 186160, Note_on_c, 0, 79, 0
1, 186160, Note_on_c, 0, 83, 0
1, 186160, Note_on_c, 0, 77, 0
1, 186160, Note_on_c, 0, 55, 0
1, 186160, Note_on_c, 0, 89, 0
1, 186240, Note_on_c, 0, 77, 49
1, 186240, Note_on_c, 0, 79, 49
1, 186240, Note_on_c, 0, 83, 49
1, 186240, Note_on_c, 0, 89, 59
1, 186240, Note_on_c, 0, 55, 39
1, 186240, Note_on_c, 0, 67, 47
1, 186240, Note_on_c, 0, 62, 39
1, 186400, Note_on_c, 0, 62, 0
1, 186400, Note_on_c, 0, 55, 0
1, 186400, Note_on_c, 0, 79, 0
1, 186400, Note_on_c, 0, 83, 0
1, 186400, Note_on_c, 0, 77, 0
1, 186400, Note_on_c, 0, 67, 0
1, 186400, Note_on_c, 0, 89, 0
1, 186400, Note_on_c, 0, 74, 63
1, 186400, Note_on_c, 0, 70, 45
1, 186400, Note_on_c, 0, 68, 49
1, 186400, Note_on_c, 0, 62, 34
1, 186480, Tempo, 477593
1, 186560, Control_c, 0, 64, 127
1, 186560, Note_on_c, 0, 62, 0
1, 186560, Note_on_c, 0, 74, 0
1, 186560, Note_on_c, 0, 70, 0
1, 186560, Note_on_c, 0, 68, 0
1, 186560, Note_on_c, 0, 71, 66
1, 186560, Note_on_c, 0, 80, 80
1, 186560, Note_on_c, 0, 53, 61
1, 186600, Tempo, 475285
1, 186720, Tempo, 473037
1, 186720, Note_on_c, 0, 53, 0
1, 186720, Note_on_c, 0, 80, 0
1, 186720, Note_on_c, 0, 71, 0
1, 186720, Note_on_c, 0, 73, 68
1, 186720, Note_on_c, 0, 77, 74
1, 186720, Note_on_c, 0, 65, 56
1, 186720, Note_on_c, 0, 56, 47
1, 186800, Tempo, 470773
1, 186880, Note_on_c, 0, 56, 0
1, 186880, Note_on_c, 0, 73, 0
1, 186880, Note_on_c, 0, 77, 0
1, 186880, Note_on_c, 0, 65, 0
1, 186880, Note_on_c, 0, 74, 71
1, 186880, Note_on_c, 0, 83, 84
1, 186880, Note_on_c, 0, 50, 62
1, 186893, Control_c, 0, 64, 0
1, 186920, Tempo, 468494
1, 186936, Control_c, 0, 64, 127
1, 187000, Tempo, 466345
1, 187040, Note_on_c, 0, 50, 0
1, 187040, Note_on_c, 0, 83, 0
1, 187040, Note_on_c, 0, 74, 0
1, 187040, Note_on_c, 0, 76, 66
1, 187040, Note_on_c, 0, 80, 79
1, 187040, Note_on_c, 0, 56, 49
1, 187040, Note_on_c, 0, 62, 59
1, 187120, Tempo, 464073
1, 187200, Tempo, 459735
1, 187200, Note_on_c, 0, 62, 0
1, 187200, Note_on_c, 0, 76, 0
1, 187200, Note_on_c, 0, 80, 0
1, 187200, Note_on_c, 0, 56, 0
1, 187200, Note_on_c, 0, 77, 74
1, 187200, Note_on_c, 0, 86, 89
1, 187200, Note_on_c, 0, 47, 64
1, 187208, Control_c, 0, 64, 0
1, 187258, Control_c, 0, 64, 127
1, 187320, Tempo, 461929
1, 187360, Note_on_c, 0, 47, 0
1, 187360, Note_on_c, 0, 86, 0
1, 187360, Note_on_c, 0, 77, 0
1, 187360, Note_on_c, 0, 83, 85
1, 187360, Note_on_c, 0, 79, 72
1, 187360, Note_on_c, 0, 53, 50
1, 187360, Note_on_c, 0, 59, 60
1, 187400, Tempo, 464073
1, 187480, Tempo, 466345
1, 187520, Note_on_c, 0, 59, 0
1, 187520, Note_on_c, 0, 83, 0
1, 187520, Note_on_c, 0, 79, 0
1, 187520, Note_on_c, 0, 53, 0
1, 187520, Note_on_c, 0, 89, 92
1, 187520, Note_on_c, 0, 80, 78
1, 187520, Note_on_c, 0, 44, 69
1, 187532, Control_c, 0, 64, 0
1, 187560, Tempo, 468494
1, 187641, Control_c, 0, 64, 127
1, 187680, Note_on_c, 0, 44, 0
1, 187680, Note_on_c, 0, 80, 0
1, 187680, Note_on_c, 0, 89, 0
1, 187680, Note_on_c, 0, 82, 73
1, 187680, Note_on_c, 0, 86, 86
1, 187680, Note_on_c, 0, 50, 53
1, 187680, Note_on_c, 0, 56, 64
1, 187760, Tempo, 470773
1, 187800, Tempo, 477593
1, 187840, Tempo, 484692
1, 187840, Note_on_c, 0, 56, 0
1, 187840, Note_on_c, 0, 82, 0
1, 187840, Note_on_c, 0, 86, 0
1, 187840, Note_on_c, 0, 50, 0
1, 187840, Note_on_c, 0, 83, 79
1, 187840, Note_on_c, 0, 92, 94
1, 187840, Note_on_c, 0, 41, 77
1, 187856, Control_c, 0, 64, 0
1, 187880, Tempo, 491965
1, 187920, Tempo, 499459
1, 187938, Control_c, 0, 64, 127
1, 187960, Tempo, 507142
1, 188000, Note_on_c, 0, 41, 0
1, 188000, Note_on_c, 0, 92, 0
1, 188000, Note_on_c, 0, 83, 0
1, 188000, Note_on_c, 0, 83, 77
1, 188000, Note_on_c, 0, 95, 90
1, 188000, Note_on_c, 0, 29, 69
1, 188000, Note_on_c, 0, 41, 69
1, 188160, Tempo, 499168
1, 188160, Note_on_c, 0, 41, 0
1, 188160, Note_on_c, 0, 83, 0
1, 188160, Note_on_c, 0, 95, 0
1, 188160, Note_on_c, 0, 29, 0
1, 188160, Note_on_c, 0, 84, 85
1, 188160, Note_on_c, 0, 96, 101
1, 188160, Note_on_c, 0, 40, 42
1, 188160, Note_on_c, 0, 28, 42
1, 188172, Control_c, 0, 64, 0
1, 188235, Control_c, 0, 64, 127
1, 188320, Note_on_c, 0, 28, 0
1, 188320, Note_on_c, 0, 84, 0
1, 188320, Note_on_c, 0, 96, 0
1, 188320, Note_on_c, 0, 40, 0
1, 188320, Note_on_c, 0, 60, 64
1, 188320, Note_on_c, 0, 67, 64
1, 188320, Note_on_c, 0, 72, 77
1, 188320, Note_on_c, 0, 52, 50
1, 188320, Note_on_c, 0, 40, 36
1, 188400, Tempo, 477707
1, 188480, Note_on_c, 0, 40, 0
1, 188480, Note_on_c, 0, 72, 0
1, 188480, Note_on_c, 0, 60, 0
1, 188480, Note_on_c, 0, 67, 0
1, 188480, Note_on_c, 0, 52, 0
1, 188480, Note_on_c, 0, 67, 64
1, 188480, Note_on_c, 0, 60, 64
1, 188480, Note_on_c, 0, 72, 77
1, 188480, Note_on_c, 0, 52, 48
1, 188480, Note_on_c, 0, 40, 40
1, 188560, Tempo, 489396
1, 188640, Note_on_c, 0, 40, 0
1, 188640, Note_on_c, 0, 72, 0
1, 188640, Note_on_c, 0, 67, 0
1, 188640, Note_on_c, 0, 60, 0
1, 188640, Note_on_c, 0, 52, 0
1, 188640, Note_on_c, 0, 60, 55
1, 188640, Note_on_c, 0, 68, 55
1, 188640, Note_on_c, 0, 72, 77
1, 188640, Note_on_c, 0, 52, 48
1, 188640, Note_on_c, 0, 40, 40
1, 188660, Control_c, 0, 64, 0
1, 188715, Control_c, 0, 64, 127
1, 188800, Tempo, 475398
1, 188800, Note_on_c, 0, 40, 0
1, 188800, Note_on_c, 0, 72, 0
1, 188800, Note_on_c, 0, 60, 0
1, 188800, Note_on_c, 0, 68, 0
1, 188800, Note_on_c, 0, 52, 0
1, 188800, Note_on_c, 0, 60, 63
1, 188800, Note_on_c, 0, 68, 63
1, 188800, Note_on_c, 0, 72, 75
1, 188800, Note_on_c, 0, 40, 40
1, 188800, Note_on_c, 0, 52, 48
1, 188960, Tempo, 482276
1, 188960, Note_on_c, 0, 52, 0
1, 188960, Note_on_c, 0, 72, 0
1, 188960, Note_on_c, 0, 60, 0
1, 188960, Note_on_c, 0, 68, 0
1, 188960, Note_on_c, 0, 40, 0
1, 188960, Note_on_c, 0, 60, 63
1, 188960, Note_on_c, 0, 68, 63
1, 188960, Note_on_c, 0, 72, 75
1, 188960, Note_on_c, 0, 40, 41
1, 188960, Note_on_c, 0, 52, 49
1, 189120, Tempo, 487053
1, 189120, Note_on_c, 0, 52, 0
1, 189120, Note_on_c, 0, 72, 0
1, 189120, Note_on_c, 0, 60, 0
1, 189120, Note_on_c, 0, 68, 0
1, 189120, Note_on_c, 0, 40, 0
1, 189120, Note_on_c, 0, 72, 80
1, 189120, Note_on_c, 0, 60, 57
1, 189120, Note_on_c, 0, 68, 57
1, 189120, Note_on_c, 0, 40, 38
1, 189120, Note_on_c, 0, 52, 55
1, 189130, Control_c, 0, 64, 0
1, 189184, Control_c, 0, 64, 127
1, 189280, Tempo, 473186
1, 189280, Note_on_c, 0, 52, 0
1, 189280, Note_on_c, 0, 68, 0
1, 189280, Note_on_c, 0, 72, 0
1, 189280, Note_on_c, 0, 60, 0
1, 189280, Note_on_c, 0, 40, 0
1, 189280, Note_on_c, 0, 60, 64
1, 189280, Note_on_c, 0, 68, 64
1, 189280, Note_on_c, 0, 72, 77
1, 189280, Note_on_c, 0, 39, 44
1, 189280, Note_on_c, 0, 51, 52
1, 189440, Tempo, 482276
1, 189440, Note_on_c, 0, 51, 0
1, 189440, Note_on_c, 0, 72, 0
1, 189440, Note_on_c, 0, 60, 0
1, 189440, Note_on_c, 0, 68, 0
1, 189440, Note_on_c, 0, 39, 0
1, 189440, Note_on_c, 0, 60, 64
1, 189440, Note_on_c, 0, 68, 64
1, 189440, Note_on_c, 0, 72, 77
1, 189440, Note_on_c, 0, 39, 44
1, 189440, Note_on_c, 0, 51, 52
1, 189600, Tempo, 477707
1, 189600, Note_on_c, 0, 51, 0
1, 189600, Note_on_c, 0, 72, 0
1, 189600, Note_on_c, 0, 60, 0
1, 189600, Note_on_c, 0, 68, 0
1, 189600, Note_on_c, 0, 39, 0
1, 189600, Note_on_c, 0, 60, 68
1, 189600, Note_on_c, 0, 68, 68
1, 189600, Note_on_c, 0, 72, 81
1, 189600, Note_on_c, 0, 39, 47
1, 189600, Note_on_c, 0, 51, 56
1, 189612, Control_c, 0, 64, 0
1, 189664, Control_c, 0, 64, 127
1, 189760, Tempo, 457980
1, 189760, Note_on_c, 0, 51, 0
1, 189760, Note_on_c, 0, 72, 0
1, 189760, Note_on_c, 0, 60, 0
1, 189760, Note_on_c, 0, 68, 0
1, 189760, Note_on_c, 0, 39, 0
1, 189760, Note_on_c, 0, 72, 79
1, 189760, Note_on_c, 0, 60, 67
1, 189760, Note_on_c, 0, 68, 67
1, 189760, Note_on_c, 0, 40, 44
1, 189760, Note_on_c, 0, 52, 52
1, 189800, Tempo, 457980
1, 189920, Tempo, 477707
1, 189920, Note_on_c, 0, 52, 0
1, 189920, Note_on_c, 0, 68, 0
1, 189920, Note_on_c, 0, 72, 0
1, 189920, Note_on_c, 0, 60, 0
1, 189920, Note_on_c, 0, 40, 0
1, 189920, Note_on_c, 0, 60, 67
1, 189920, Note_on_c, 0, 68, 67
1, 189920, Note_on_c, 0, 72, 79
1, 189920, Note_on_c, 0, 52, 52
1, 189920, Note_on_c, 0, 40, 44
1, 190040, Tempo, 453789
1, 190080, Tempo, 491803
1, 190080, Note_on_c, 0, 40, 0
1, 190080, Note_on_c, 0, 72, 0
1, 190080, Note_on_c, 0, 60, 0
1, 190080, Note_on_c, 0, 68, 0
1, 190080, Note_on_c, 0, 52, 0
1, 190080, Note_on_c, 0, 60, 67
1, 190080, Note_on_c, 0, 68, 67
1, 190080, Note_on_c, 0, 72, 80
1, 190080, Note_on_c, 0, 40, 46
1, 190080, Note_on_c, 0, 52, 56
1, 190094, Control_c, 0, 64, 0
1, 190160, Note_on_c, 0, 52, 0
1, 190160, Note_on_c, 0, 72, 0
1, 190160, Note_on_c, 0, 60, 0
1, 190160, Note_on_c, 0, 68, 0
1, 190160, Note_on_c, 0, 40, 0
1, 190200, Tempo, 464360
1, 190240, Note_on_c, 0, 60, 68
1, 190240, Note_on_c, 0, 69, 68
1, 190240, Note_on_c, 0, 72, 81
1, 190240, Note_on_c, 0, 40, 47
1, 190240, Note_on_c, 0, 52, 57
1, 190292, Control_c, 0, 64, 127
1, 190320, Note_on_c, 0, 52, 0
1, 190320, Note_on_c, 0, 72, 0
1, 190320, Note_on_c, 0, 60, 0
1, 190320, Note_on_c, 0, 69, 0
1, 190320, Note_on_c, 0, 40, 0
1, 190400, Tempo, 482276
1, 190400, Note_on_c, 0, 60, 69
1, 190400, Note_on_c, 0, 69, 69
1, 190400, Note_on_c, 0, 72, 82
1, 190400, Note_on_c, 0, 40, 48
1, 190400, Note_on_c, 0, 52, 58
1, 190480, Note_on_c, 0, 52, 0
1, 190480, Note_on_c, 0, 72, 0
1, 190480, Note_on_c, 0, 60, 0
1, 190480, Note_on_c, 0, 69, 0
1, 190480, Note_on_c, 0, 40, 0
1, 190560, Tempo, 468713
1, 190560, Note_on_c, 0, 69, 71
1, 190560, Note_on_c, 0, 60, 71
1, 190560, Note_on_c, 0, 72, 83
1, 190560, Note_on_c, 0, 40, 49
1, 190560, Note_on_c, 0, 52, 58
1, 190640, Note_on_c, 0, 52, 0
1, 190640, Note_on_c, 0, 72, 0
1, 190640, Note_on_c, 0, 69, 0
1, 190640, Note_on_c, 0, 60, 0
1, 190640, Note_on_c, 0, 40, 0
1, 190720, Tempo, 455858
1, 190720, Note_on_c, 0, 61, 71
1, 190720, Note_on_c, 0, 69, 71
1, 190720, Note_on_c, 0, 73, 84
1, 190720, Note_on_c, 0, 40, 50
1, 190720, Note_on_c, 0, 52, 59
1, 190743, Control_c, 0, 64, 0
1, 190800, Note_on_c, 0, 52, 0
1, 190800, Note_on_c, 0, 73, 0
1, 190800, Note_on_c, 0, 61, 0
1, 190800, Note_on_c, 0, 69, 0
1, 190800, Note_on_c, 0, 40, 0
1, 190800, Control_c, 0, 64, 127
1, 190880, Tempo, 480000
1, 190880, Note_on_c, 0, 61, 71
1, 190880, Note_on_c, 0, 69, 71
1, 190880, Note_on_c, 0, 73, 85
1, 190880, Note_on_c, 0, 52, 61
1, 190880, Note_on_c, 0, 40, 51
1, 190960, Note_on_c, 0, 40, 0
1, 190960, Note_on_c, 0, 73, 0
1, 190960, Note_on_c, 0, 61, 0
1, 190960, Note_on_c, 0, 69, 0
1, 190960, Note_on_c, 0, 52, 0
1, 191040, Tempo, 487053
1, 191040, Note_on_c, 0, 61, 72
1, 191040, Note_on_c, 0, 69, 72
1, 191040, Note_on_c, 0, 73, 86
1, 191040, Note_on_c, 0, 40, 52
1, 191040, Note_on_c, 0, 52, 62
1, 191120, Note_on_c, 0, 52, 0
1, 191120, Note_on_c, 0, 73, 0
1, 191120, Note_on_c, 0, 61, 0
1, 191120, Note_on_c, 0, 69, 0
1, 191120, Note_on_c, 0, 40, 0
1, 191200, Tempo, 460087
1, 191200, Note_on_c, 0, 73, 88
1, 191200, Note_on_c, 0, 61, 73
1, 191200, Note_on_c, 0, 69, 73
1, 191200, Note_on_c, 0, 39, 52
1, 191200, Note_on_c, 0, 51, 62
1, 191229, Control_c, 0, 64, 0
1, 191280, Note_on_c, 0, 51, 0
1, 191280, Note_on_c, 0, 69, 0
1, 191280, Note_on_c, 0, 73, 0
1, 191280, Note_on_c, 0, 61, 0
1, 191280, Note_on_c, 0, 39, 0
1, 191286, Control_c, 0, 64, 127
1, 191360, Tempo, 475398
1, 191360, Note_on_c, 0, 69, 75
1, 191360, Note_on_c, 0, 73, 90
1, 191360, Note_on_c, 0, 61, 75
1, 191360, Note_on_c, 0, 39, 53
1, 191360, Note_on_c, 0, 51, 63
1, 191440, Note_on_c, 0, 51, 0
1, 191440, Note_on_c, 0, 61, 0
1, 191440, Note_on_c, 0, 69, 0
1, 191440, Note_on_c, 0, 73, 0
1, 191440, Note_on_c, 0, 39, 0
1, 191520, Tempo, 475398
1, 191520, Note_on_c, 0, 61, 77
1, 191520, Note_on_c, 0, 73, 91
1, 191520, Note_on_c, 0, 69, 77
1, 191520, Note_on_c, 0, 51, 64
1, 191520, Note_on_c, 0, 39, 53
1, 191600, Note_on_c, 0, 39, 0
1, 191600, Note_on_c, 0, 69, 0
1, 191600, Note_on_c, 0, 61, 0
1, 191600, Note_on_c, 0, 73, 0
1, 191600, Note_on_c, 0, 51, 0
1, 191680, Tempo, 451773
1, 191680, Note_on_c, 0, 61, 78
1, 191680, Note_on_c, 0, 73, 92
1, 191680, Note_on_c, 0, 68, 78
1, 191680, Note_on_c, 0, 52, 66
1, 191680, Note_on_c, 0, 40, 55
1, 191700, Control_c, 0, 64, 0
1, 191740, Tempo, 453789
1, 191760, Note_on_c, 0, 40, 0
1, 191760, Note_on_c, 0, 68, 0
1, 191760, Note_on_c, 0, 61, 0
1, 191760, Note_on_c, 0, 73, 0
1, 191760, Note_on_c, 0, 52, 0
1, 191783, Control_c, 0, 64, 127
1, 191800, Tempo, 455858
1, 191840, Note_on_c, 0, 61, 79
1, 191840, Note_on_c, 0, 67, 79
1, 191840, Note_on_c, 0, 73, 93
1, 191840, Note_on_c, 0, 52, 67
1, 191840, Note_on_c, 0, 40, 56
1, 191860, Tempo, 457980
1, 191920, Tempo, 460087
1, 191920, Note_on_c, 0, 40, 0
1, 191920, Note_on_c, 0, 73, 0
1, 191920, Note_on_c, 0, 61, 0
1, 191920, Note_on_c, 0, 67, 0
1, 191920, Note_on_c, 0, 52, 0
1, 191980, Tempo, 462178
1, 192000, Tempo, 543774
1, 192000, Note_on_c, 0, 61, 73
1, 192000, Note_on_c, 0, 73, 102
1, 192000, Note_on_c, 0, 68, 86
1, 192000, Note_on_c, 0, 53, 74
1, 192000, Note_on_c, 0, 41, 52
1, 192013, Control_c, 0, 64, 0
1, 192065, Control_c, 0, 64, 127
1, 192080, Note_on_c, 0, 41, 0
1, 192080, Note_on_c, 0, 68, 0
1, 192080, Note_on_c, 0, 61, 0
1, 192080, Note_on_c, 0, 73, 0
1, 192080, Note_on_c, 0, 53, 0
1, 192120, Tempo, 483871
1, 192160, Note_on_c, 0, 65, 68
1, 192160, Note_on_c, 0, 68, 80
1, 192160, Note_on_c, 0, 77, 95
1, 192160, Note_on_c, 0, 56, 50
1, 192160, Note_on_c, 0, 49, 50
1, 192160, Note_on_c, 0, 61, 71
1, 192320, Tempo, 501002
1, 192320, Note_on_c, 0, 61, 0
1, 192320, Note_on_c, 0, 68, 0
1, 192320, Note_on_c, 0, 77, 0
1, 192320, Note_on_c, 0, 65, 0
1, 192320, Note_on_c, 0, 49, 0
1, 192320, Note_on_c, 0, 56, 0
1, 192320, Note_on_c, 0, 65, 68
1, 192320, Note_on_c, 0, 68, 80
1, 192320, Note_on_c, 0, 77, 95
1, 192320, Note_on_c, 0, 56, 51
1, 192320, Note_on_c, 0, 49, 51
1, 192320, Note_on_c, 0, 61, 72
1, 192480, Tempo, 486697
1, 192480, Note_on_c, 0, 61, 0
1, 192480, Note_on_c, 0, 68, 0
1, 192480, Note_on_c, 0, 77, 0
1, 192480, Note_on_c, 0, 65, 0
1, 192480, Note_on_c, 0, 49, 0
1, 192480, Note_on_c, 0, 56, 0
1, 192480, Note_on_c, 0, 65, 72
1, 192480, Note_on_c, 0, 68, 85
1, 192480, Note_on_c, 0, 77, 101
1, 192480, Note_on_c, 0, 49, 53
1, 192480, Note_on_c, 0, 56, 53
1, 192480, Note_on_c, 0, 61, 75
1, 192495, Control_c, 0, 64, 0
1, 192555, Control_c, 0, 64, 127
1, 192640, Note_on_c, 0, 61, 0
1, 192640, Note_on_c, 0, 68, 0
1, 192640, Note_on_c, 0, 77, 0
1, 192640, Note_on_c, 0, 65, 0
1, 192640, Note_on_c, 0, 56, 0
1, 192640, Note_on_c, 0, 49, 0
1, 192640, Note_on_c, 0, 63, 68
1, 192640, Note_on_c, 0, 75, 95
1, 192720, Tempo, 491400
1, 192800, Note_on_c, 0, 75, 0
1, 192800, Note_on_c, 0, 63, 0
1, 192800, Note_on_c, 0, 73, 95
1, 192800, Note_on_c, 0, 61, 68
1, 192960, Tempo, 518135
1, 192960, Note_on_c, 0, 61, 0
1, 192960, Note_on_c, 0, 73, 0
1, 192960, Note_on_c, 0, 30, 68
1, 192960, Note_on_c, 0, 42, 96
1, 192965, Control_c, 0, 64, 0
1, 193025, Control_c, 0, 64, 127
1, 193080, Tempo, 486027
1, 193120, Note_on_c, 0, 42, 0
1, 193120, Note_on_c, 0, 30, 0
1, 193120, Note_on_c, 0, 65, 68
1, 193120, Note_on_c, 0, 70, 80
1, 193120, Note_on_c, 0, 77, 95
1, 193120, Note_on_c, 0, 49, 50
1, 193120, Note_on_c, 0, 54, 50
1, 193120, Note_on_c, 0, 61, 71
1, 193280, Note_on_c, 0, 61, 0
1, 193280, Note_on_c, 0, 70, 0
1, 193280, Note_on_c, 0, 77, 0
1, 193280, Note_on_c, 0, 65, 0
1, 193280, Note_on_c, 0, 54, 0
1, 193280, Note_on_c, 0, 49, 0
1, 193280, Note_on_c, 0, 65, 68
1, 193280, Note_on_c, 0, 70, 80
1, 193280, Note_on_c, 0, 77, 95
1, 193280, Note_on_c, 0, 54, 51
1, 193280, Note_on_c, 0, 49, 51
1, 193280, Note_on_c, 0, 61, 72
1, 193320, Tempo, 506030
1, 193440, Tempo, 491400
1, 193440, Note_on_c, 0, 61, 0
1, 193440, Note_on_c, 0, 70, 0
1, 193440, Note_on_c, 0, 77, 0
1, 193440, Note_on_c, 0, 65, 0
1, 193440, Note_on_c, 0, 49, 0
1, 193440, Note_on_c, 0, 54, 0
1, 193440, Note_on_c, 0, 65, 72
1, 193440, Note_on_c, 0, 70, 85
1, 193440, Note_on_c, 0, 77, 101
1, 193440, Note_on_c, 0, 49, 53
1, 193440, Note_on_c, 0, 54, 53
1, 193440, Note_on_c, 0, 61, 75
1, 193455, Control_c, 0, 64, 0
1, 193515, Control_c, 0, 64, 127
1, 193600, Note_on_c, 0, 61, 0
1, 193600, Note_on_c, 0, 70, 0
1, 193600, Note_on_c, 0, 77, 0
1, 193600, Note_on_c, 0, 65, 0
1, 193600, Note_on_c, 0, 54, 0
1, 193600, Note_on_c, 0, 49, 0
1, 193600, Note_on_c, 0, 63, 68
1, 193600, Note_on_c, 0, 75, 95
1, 193680, Tempo, 508475
1, 193760, Note_on_c, 0, 75, 0
1, 193760, Note_on_c, 0, 63, 0
1, 193760, Note_on_c, 0, 73, 95
1, 193760, Note_on_c, 0, 61, 68
1, 193920, Tempo, 541126
1, 193920, Note_on_c, 0, 61, 0
1, 193920, Note_on_c, 0, 73, 0
1, 193920, Note_on_c, 0, 32, 68
1, 193920, Note_on_c, 0, 44, 96
1, 193935, Control_c, 0, 64, 0
1, 193985, Control_c, 0, 64, 127
1, 194040, Tempo, 488202
1, 194080, Note_on_c, 0, 44, 0
1, 194080, Note_on_c, 0, 32, 0
1, 194080, Note_on_c, 0, 65, 68
1, 194080, Note_on_c, 0, 68, 80
1, 194080, Note_on_c, 0, 77, 95
1, 194080, Note_on_c, 0, 56, 50
1, 194080, Note_on_c, 0, 61, 71
1, 194080, Note_on_c, 0, 49, 50
1, 194240, Note_on_c, 0, 49, 0
1, 194240, Note_on_c, 0, 68, 0
1, 194240, Note_on_c, 0, 77, 0
1, 194240, Note_on_c, 0, 65, 0
1, 194240, Note_on_c, 0, 61, 0
1, 194240, Note_on_c, 0, 56, 0
1, 194240, Note_on_c, 0, 65, 68
1, 194240, Note_on_c, 0, 68, 80
1, 194240, Note_on_c, 0, 77, 95
1, 194240, Note_on_c, 0, 61, 72
1, 194240, Note_on_c, 0, 49, 51
1, 194240, Note_on_c, 0, 56, 51
1, 194280, Tempo, 508475
1, 194400, Tempo, 489037
1, 194400, Note_on_c, 0, 56, 0
1, 194400, Note_on_c, 0, 68, 0
1, 194400, Note_on_c, 0, 77, 0
1, 194400, Note_on_c, 0, 65, 0
1, 194400, Note_on_c, 0, 49, 0
1, 194400, Note_on_c, 0, 61, 0
1, 194400, Note_on_c, 0, 65, 72
1, 194400, Note_on_c, 0, 68, 85
1, 194400, Note_on_c, 0, 77, 101
1, 194400, Note_on_c, 0, 61, 75
1, 194400, Note_on_c, 0, 56, 53
1, 194400, Note_on_c, 0, 49, 53
1, 194415, Control_c, 0, 64, 0
1, 194475, Control_c, 0, 64, 127
1, 194560, Note_on_c, 0, 49, 0
1, 194560, Note_on_c, 0, 68, 0
1, 194560, Note_on_c, 0, 77, 0
1, 194560, Note_on_c, 0, 65, 0
1, 194560, Note_on_c, 0, 56, 0
1, 194560, Note_on_c, 0, 61, 0
1, 194560, Note_on_c, 0, 63, 68
1, 194560, Note_on_c, 0, 75, 95
1, 194720, Note_on_c, 0, 75, 0
1, 194720, Note_on_c, 0, 63, 0
1, 194720, Note_on_c, 0, 73, 95
1, 194720, Note_on_c, 0, 61, 68
1, 194880, Tempo, 546498
1, 194880, Note_on_c, 0, 61, 0
1, 194880, Note_on_c, 0, 73, 0
1, 194880, Note_on_c, 0, 34, 68
1, 194880, Note_on_c, 0, 46, 96
1, 194893, Control_c, 0, 64, 0
1, 194945, Control_c, 0, 64, 127
1, 195000, Tempo, 513303
1, 195040, Tempo, 515685
1, 195040, Note_on_c, 0, 46, 0
1, 195040, Note_on_c, 0, 34, 0
1, 195040, Note_on_c, 0, 65, 68
1, 195040, Note_on_c, 0, 67, 80
1, 195040, Note_on_c, 0, 77, 95
1, 195040, Note_on_c, 0, 58, 50
1, 195040, Note_on_c, 0, 51, 50
1, 195040, Note_on_c, 0, 61, 71
1, 195080, Tempo, 518135
1, 195120, Tempo, 520607
1, 195160, Tempo, 525578
1, 195200, Tempo, 528076
1, 195200, Note_on_c, 0, 61, 0
1, 195200, Note_on_c, 0, 67, 0
1, 195200, Note_on_c, 0, 77, 0
1, 195200, Note_on_c, 0, 65, 0
1, 195200, Note_on_c, 0, 51, 0
1, 195200, Note_on_c, 0, 58, 0
1, 195200, Note_on_c, 0, 65, 68
1, 195200, Note_on_c, 0, 67, 80
1, 195200, Note_on_c, 0, 77, 95
1, 195200, Note_on_c, 0, 61, 72
1, 195200, Note_on_c, 0, 51, 51
1, 195200, Note_on_c, 0, 58, 51
1, 195240, Tempo, 530692
1, 195280, Tempo, 533191
1, 195320, Tempo, 538455
1, 195360, Tempo, 541126
1, 195360, Note_on_c, 0, 58, 0
1, 195360, Note_on_c, 0, 67, 0
1, 195360, Note_on_c, 0, 77, 0
1, 195360, Note_on_c, 0, 65, 0
1, 195360, Note_on_c, 0, 51, 0
1, 195360, Note_on_c, 0, 61, 0
1, 195360, Note_on_c, 0, 65, 72
1, 195360, Note_on_c, 0, 67, 85
1, 195360, Note_on_c, 0, 77, 101
1, 195360, Note_on_c, 0, 61, 75
1, 195360, Note_on_c, 0, 58, 53
1, 195360, Note_on_c, 0, 51, 53
1, 195375, Control_c, 0, 64, 0
1, 195400, Tempo, 543774
1, 195435, Control_c, 0, 64, 127
1, 195440, Tempo, 546498
1, 195480, Tempo, 551927
1, 195520, Tempo, 555556
1, 195520, Note_on_c, 0, 51, 0
1, 195520, Note_on_c, 0, 67, 0
1, 195520, Note_on_c, 0, 77, 0
1, 195520, Note_on_c, 0, 65, 0
1, 195520, Note_on_c, 0, 58, 0
1, 195520, Note_on_c, 0, 61, 0
1, 195520, Note_on_c, 0, 63, 68
1, 195520, Note_on_c, 0, 75, 95
1, 195540, Tempo, 558555
1, 195560, Tempo, 561587
1, 195580, Tempo, 564653
1, 195600, Tempo, 575098
1, 195680, Note_on_c, 0, 75, 0
1, 195680, Note_on_c, 0, 63, 0
1, 195680, Note_on_c, 0, 73, 95
1, 195680, Note_on_c, 0, 61, 68
1, 195840, Tempo, 516929
1, 195840, Note_on_c, 0, 61, 0
1, 195840, Note_on_c, 0, 73, 0
1, 195840, Note_on_c, 0, 51, 84
1, 195840, Note_on_c, 0, 55, 84
1, 195840, Note_on_c, 0, 63, 101
1, 195840, Note_on_c, 0, 61, 95
1, 195840, Note_on_c, 0, 27, 59
1, 195840, Note_on_c, 0, 39, 70
1, 195849, Control_c, 0, 64, 0
1, 196067, Control_c, 0, 64, 127
1, 197760, Tempo, 544712
1, 197760, Note_on_c, 0, 39, 0
1, 197760, Note_on_c, 0, 55, 0
1, 197760, Note_on_c, 0, 63, 0
1, 197760, Note_on_c, 0, 51, 0
1, 197760, Note_on_c, 0, 27, 0
1, 197760, Note_on_c, 0, 61, 0
1, 197760, Note_on_c, 0, 54, 80
1, 197760, Note_on_c, 0, 65, 95
1, 197760, Note_on_c, 0, 60, 80
1, 197760, Note_on_c, 0, 32, 56
1, 197760, Note_on_c, 0, 44, 66
1, 197766, Control_c, 0, 64, 0
1, 198041, Control_c, 0, 64, 127
1, 199560, Tempo, 702247
1, 199620, Note_on_c, 0, 65, 0
1, 199620, Note_on_c, 0, 66, 86
1, 199680, Tempo, 552995
1, 199680, Marker_t, "Teil 2"
1, 199680, Note_on_c, 0, 66, 0
1, 199680, Note_on_c, 0, 44, 0
1, 199680, Note_on_c, 0, 54, 0
1, 199680, Note_on_c, 0, 60, 0
1, 199680, Note_on_c, 0, 32, 0
1, 199680, Note_on_c, 0, 54, 79
1, 199680, Note_on_c, 0, 61, 79
1, 199680, Note_on_c, 0, 66, 93
1, 199680, Note_on_c, 0, 45, 66
1, 199680, Note_on_c, 0, 33, 56
1, 199680, Control_c, 0, 64, 0
1, 199800, Note_on_c, 0, 33, 0
1, 199800, Note_on_c, 0, 45, 0
1, 199800, Note_on_c, 0, 42, 60
1, 199800, Note_on_c, 0, 30, 50
1, 199920, Note_on_c, 0, 30, 0
1, 199920, Note_on_c, 0, 42, 0
1, 200040, Tempo, 528634
1, 200040, Note_on_c, 0, 32, 56
1, 200040, Note_on_c, 0, 44, 66
1, 200160, Tempo, 552995
1, 200160, Note_on_c, 0, 44, 0
1, 200160, Note_on_c, 0, 32, 0
1, 200160, Note_on_c, 0, 33, 52
1, 200160, Note_on_c, 0, 45, 62
1, 200280, Note_on_c, 0, 45, 0
1, 200280, Note_on_c, 0, 33, 0
1, 200280, Note_on_c, 0, 30, 52
1, 200280, Note_on_c, 0, 42, 62
1, 200400, Tempo, 568720
1, 200400, Note_on_c, 0, 42, 0
1, 200400, Note_on_c, 0, 30, 0
1, 200640, Tempo, 550459
1, 200640, Note_on_c, 0, 54, 0
1, 200640, Note_on_c, 0, 61, 0
1, 200640, Note_on_c, 0, 66, 0
1, 200640, Note_on_c, 0, 33, 37
1, 200640, Note_on_c, 0, 45, 44
1, 200760, Note_on_c, 0, 45, 0
1, 200760, Note_on_c, 0, 33, 0
1, 200760, Note_on_c, 0, 30, 33
1, 200760, Note_on_c, 0, 42, 39
1, 200880, Note_on_c, 0, 42, 0
1, 200880, Note_on_c, 0, 30, 0
1, 201000, Tempo, 530973
1, 201000, Note_on_c, 0, 32, 37
1, 201000, Note_on_c, 0, 44, 44
1, 201120, Tempo, 552995
1, 201120, Note_on_c, 0, 44, 0
1, 201120, Note_on_c, 0, 32, 0
1, 201120, Note_on_c, 0, 33, 33
1, 201120, Note_on_c, 0, 45, 39
1, 201240, Note_on_c, 0, 45, 0
1, 201240, Note_on_c, 0, 33, 0
1, 201240, Note_on_c, 0, 30, 33
1, 201240, Note_on_c, 0, 42, 39
1, 201360, Tempo, 576923
1, 201360, Note_on_c, 0, 42, 0
1, 201360, Note_on_c, 0, 30, 0
1, 201600, Tempo, 568720
1, 201600, Note_on_c, 0, 33, 37
1, 201600, Note_on_c, 0, 45, 44
1, 201720, Note_on_c, 0, 45, 0
1, 201720, Note_on_c, 0, 33, 0
1, 201720, Note_on_c, 0, 30, 34
1, 201720, Note_on_c, 0, 42, 39
1, 201840, Note_on_c, 0, 42, 0
1, 201840, Note_on_c, 0, 30, 0
1, 201960, Tempo, 545455
1, 201960, Note_on_c, 0, 32, 37
1, 201960, Note_on_c, 0, 44, 44
1, 202080, Tempo, 591133
1, 202080, Note_on_c, 0, 44, 0
1, 202080, Note_on_c, 0, 32, 0
1, 202080, Note_on_c, 0, 33, 34
1, 202080, Note_on_c, 0, 45, 39
1, 202200, Note_on_c, 0, 45, 0
1, 202200, Note_on_c, 0, 33, 0
1, 202200, Note_on_c, 0, 42, 34
1, 202200, Note_on_c, 0, 54, 39
1, 202320, Tempo, 697674
1, 202320, Note_on_c, 0, 54, 0
1, 202320, Note_on_c, 0, 42, 0
1, 202560, Tempo, 576923
1, 202560, Note_on_c, 0, 60, 31
1, 202560, Note_on_c, 0, 62, 32
1, 202560, Note_on_c, 0, 69, 47
1, 202560, Note_on_c, 0, 54, 41
1, 202560, Control_c, 0, 64, 127
1, 203040, Tempo, 558140
1, 203040, Note_on_c, 0, 54, 0
1, 203040, Note_on_c, 0, 69, 0
1, 203040, Note_on_c, 0, 70, 44
1, 203040, Note_on_c, 0, 38, 34
1, 203520, Tempo, 568720
1, 203520, Note_on_c, 0, 38, 0
1, 203520, Note_on_c, 0, 70, 0
1, 203520, Note_on_c, 0, 60, 0
1, 203520, Note_on_c, 0, 59, 39
1, 203520, Note_on_c, 0, 71, 47
1, 203520, Note_on_c, 0, 43, 30
1, 203520, Note_on_c, 0, 50, 30
1, 203520, Note_on_c, 0, 55, 37
1, 203531, Control_c, 0, 64, 0
1, 203640, Control_c, 0, 64, 127
1, 203880, Note_on_c, 0, 71, 0
1, 203880, Note_on_c, 0, 62, 0
1, 203880, Note_on_c, 0, 62, 40
1, 204000, Tempo, 560748
1, 204000, Note_on_c, 0, 62, 0
1, 204000, Note_on_c, 0, 62, 44
1, 204480, Note_on_c, 0, 62, 0
1, 204480, Note_on_c, 0, 43, 0
1, 204480, Note_on_c, 0, 59, 0
1, 204480, Note_on_c, 0, 55, 0
1, 204480, Note_on_c, 0, 50, 0
1, 204480, Note_on_c, 0, 38, 33
1, 204480, Note_on_c, 0, 50, 39
1, 204840, Note_on_c, 0, 50, 0
1, 204840, Note_on_c, 0, 38, 0
1, 204840, Note_on_c, 0, 31, 29
1, 204840, Note_on_c, 0, 43, 35
1, 204960, Note_on_c, 0, 43, 0
1, 204960, Note_on_c, 0, 31, 0
1, 204960, Note_on_c, 0, 31, 30
1, 204960, Note_on_c, 0, 43, 37
1, 205440, Tempo, 552995
1, 205440, Note_on_c, 0, 43, 0
1, 205440, Note_on_c, 0, 31, 0
1, 205440, Note_on_c, 0, 38, 39
1, 205440, Control_c, 0, 64, 0
1, 205560, Note_on_c, 0, 38, 0
1, 205560, Note_on_c, 0, 31, 36
1, 205680, Note_on_c, 0, 31, 0
1, 205800, Tempo, 530973
1, 205800, Note_on_c, 0, 33, 39
1, 205920, Tempo, 552995
1, 205920, Note_on_c, 0, 33, 0
1, 205920, Note_on_c, 0, 35, 36
1, 206040, Note_on_c, 0, 35, 0
1, 206040, Note_on_c, 0, 31, 36
1, 206160, Tempo, 566038
1, 206160, Note_on_c, 0, 31, 0
1, 206400, Tempo, 547945
1, 206400, Note_on_c, 0, 50, 41
1, 206400, Note_on_c, 0, 38, 35
1, 206400, Control_c, 0, 64, 0
1, 206520, Note_on_c, 0, 38, 0
1, 206520, Note_on_c, 0, 50, 0
1, 206520, Note_on_c, 0, 43, 39
1, 206520, Note_on_c, 0, 31, 31
1, 206640, Note_on_c, 0, 31, 0
1, 206640, Note_on_c, 0, 43, 0
1, 206760, Tempo, 519481
1, 206760, Note_on_c, 0, 45, 42
1, 206760, Note_on_c, 0, 33, 36
1, 206880, Tempo, 542986
1, 206880, Note_on_c, 0, 33, 0
1, 206880, Note_on_c, 0, 45, 0
1, 206880, Note_on_c, 0, 47, 39
1, 206880, Note_on_c, 0, 35, 33
1, 207000, Note_on_c, 0, 35, 0
1, 207000, Note_on_c, 0, 47, 0
1, 207000, Note_on_c, 0, 43, 39
1, 207000, Note_on_c, 0, 31, 33
1, 207120, Tempo, 555556
1, 207120, Note_on_c, 0, 31, 0
1, 207120, Note_on_c, 0, 43, 0
1, 207360, Tempo, 521739
1, 207360, Note_on_c, 0, 50, 46
1, 207360, Note_on_c, 0, 38, 38
1, 207360, Control_c, 0, 64, 0
1, 207480, Note_on_c, 0, 38, 0
1, 207480, Note_on_c, 0, 50, 0
1, 207480, Note_on_c, 0, 44, 42
1, 207480, Note_on_c, 0, 32, 36
1, 207600, Note_on_c, 0, 32, 0
1, 207600, Note_on_c, 0, 44, 0
1, 207720, Tempo, 497925
1, 207720, Note_on_c, 0, 45, 47
1, 207720, Note_on_c, 0, 33, 40
1, 207840, Tempo, 538117
1, 207840, Note_on_c, 0, 33, 0
1, 207840, Note_on_c, 0, 45, 0
1, 207840, Note_on_c, 0, 47, 42
1, 207840, Note_on_c, 0, 35, 36
1, 207960, Note_on_c, 0, 35, 0
1, 207960, Note_on_c, 0, 47, 0
1, 207960, Note_on_c, 0, 44, 45
1, 207960, Note_on_c, 0, 32, 37
1, 208040, Tempo, 519481
1, 208080, Note_on_c, 0, 32, 0
1, 208080, Note_on_c, 0, 44, 0
1, 208160, Tempo, 517241
1, 208240, Tempo, 515021
1, 208320, Tempo, 512821
1, 208320, Note_on_c, 0, 50, 58
1, 208320, Note_on_c, 0, 38, 48
1, 208320, Control_c, 0, 64, 0
1, 208400, Tempo, 510638
1, 208440, Note_on_c, 0, 38, 0
1, 208440, Note_on_c, 0, 50, 0
1, 208440, Note_on_c, 0, 44, 53
1, 208440, Note_on_c, 0, 32, 45
1, 208480, Tempo, 508475
1, 208560, Tempo, 506329
1, 208560, Note_on_c, 0, 32, 0
1, 208560, Note_on_c, 0, 44, 0
1, 208680, Tempo, 489796
1, 208680, Note_on_c, 0, 45, 60
1, 208680, Note_on_c, 0, 33, 49
1, 208800, Tempo, 535714
1, 208800, Note_on_c, 0, 33, 0
1, 208800, Note_on_c, 0, 45, 0
1, 208800, Note_on_c, 0, 47, 53
1, 208800, Note_on_c, 0, 35, 46
1, 208920, Note_on_c, 0, 35, 0
1, 208920, Note_on_c, 0, 47, 0
1, 208920, Note_on_c, 0, 44, 56
1, 208920, Note_on_c, 0, 32, 47
1, 209040, Tempo, 526316
1, 209040, Note_on_c, 0, 32, 0
1, 209040, Note_on_c, 0, 44, 0
1, 209280, Tempo, 538117
1, 209280, Note_on_c, 0, 50, 63
1, 209280, Note_on_c, 0, 38, 52
1, 209280, Control_c, 0, 64, 0
1, 209400, Note_on_c, 0, 38, 0
1, 209400, Note_on_c, 0, 50, 0
1, 209400, Note_on_c, 0, 47, 58
1, 209400, Note_on_c, 0, 35, 49
1, 209520, Note_on_c, 0, 35, 0
1, 209520, Note_on_c, 0, 47, 0
1, 209640, Tempo, 506329
1, 209640, Note_on_c, 0, 49, 67
1, 209640, Note_on_c, 0, 37, 57
1, 209760, Tempo, 571429
1, 209760, Note_on_c, 0, 37, 0
1, 209760, Note_on_c, 0, 49, 0
1, 209760, Note_on_c, 0, 50, 60
1, 209760, Note_on_c, 0, 38, 51
1, 209880, Note_on_c, 0, 38, 0
1, 209880, Note_on_c, 0, 50, 0
1, 209880, Note_on_c, 0, 59, 62
1, 209880, Note_on_c, 0, 47, 52
1, 210000, Tempo, 594059
1, 210000, Note_on_c, 0, 47, 0
1, 210000, Note_on_c, 0, 59, 0
1, 210240, Tempo, 560748
1, 210240, Note_on_c, 0, 62, 41
1, 210240, Note_on_c, 0, 64, 41
1, 210240, Note_on_c, 0, 71, 49
1, 210240, Note_on_c, 0, 56, 40
1, 210334, Control_c, 0, 64, 127
1, 210720, Tempo, 550459
1, 210720, Note_on_c, 0, 56, 0
1, 210720, Note_on_c, 0, 71, 0
1, 210720, Note_on_c, 0, 72, 47
1, 210720, Note_on_c, 0, 40, 36
1, 211200, Tempo, 560748
1, 211200, Note_on_c, 0, 40, 0
1, 211200, Note_on_c, 0, 72, 0
1, 211200, Note_on_c, 0, 62, 0
1, 211200, Note_on_c, 0, 61, 41
1, 211200, Note_on_c, 0, 73, 49
1, 211200, Note_on_c, 0, 45, 33
1, 211200, Note_on_c, 0, 52, 33
1, 211200, Note_on_c, 0, 57, 39
1, 211209, Control_c, 0, 64, 0
1, 211560, Note_on_c, 0, 73, 0
1, 211560, Note_on_c, 0, 64, 0
1, 211560, Note_on_c, 0, 65, 44
1, 211680, Note_on_c, 0, 65, 0
1, 211680, Note_on_c, 0, 52, 0
1, 211680, Note_on_c, 0, 65, 47
1, 211680, Note_on_c, 0, 53, 33
1, 212160, Tempo, 540541
1, 212160, Note_on_c, 0, 45, 0
1, 212160, Note_on_c, 0, 57, 0
1, 212160, Note_on_c, 0, 33, 33
1, 212160, Note_on_c, 0, 45, 39
1, 212280, Note_on_c, 0, 45, 0
1, 212280, Note_on_c, 0, 33, 0
1, 212280, Note_on_c, 0, 29, 29
1, 212280, Note_on_c, 0, 41, 36
1, 212400, Note_on_c, 0, 41, 0
1, 212400, Note_on_c, 0, 29, 0
1, 212520, Tempo, 508475
1, 212520, Note_on_c, 0, 31, 33
1, 212520, Note_on_c, 0, 43, 39
1, 212640, Tempo, 545455
1, 212640, Note_on_c, 0, 43, 0
1, 212640, Note_on_c, 0, 31, 0
1, 212640, Note_on_c, 0, 33, 29
1, 212640, Note_on_c, 0, 45, 35
1, 212760, Note_on_c, 0, 45, 0
1, 212760, Note_on_c, 0, 33, 0
1, 212760, Note_on_c, 0, 29, 29
1, 212760, Note_on_c, 0, 41, 35
1, 212880, Tempo, 582524
1, 212880, Note_on_c, 0, 41, 0
1, 212880, Note_on_c, 0, 29, 0
1, 213120, Tempo, 568720
1, 213120, Note_on_c, 0, 53, 0
1, 213120, Note_on_c, 0, 65, 0
1, 213120, Note_on_c, 0, 61, 0
1, 213120, Note_on_c, 0, 65, 40
1, 213120, Note_on_c, 0, 61, 39
1, 213120, Note_on_c, 0, 73, 56
1, 213120, Note_on_c, 0, 45, 31
1, 213120, Note_on_c, 0, 53, 38
1, 213129, Control_c, 0, 64, 0
1, 213246, Control_c, 0, 64, 127
1, 213480, Tempo, 555556
1, 213480, Note_on_c, 0, 73, 0
1, 213480, Note_on_c, 0, 65, 0
1, 213480, Note_on_c, 0, 66, 55
1, 213600, Note_on_c, 0, 66, 0
1, 213600, Note_on_c, 0, 53, 0
1, 213600, Note_on_c, 0, 66, 58
1, 213600, Note_on_c, 0, 54, 39
1, 213617, Control_c, 0, 64, 0
1, 213715, Control_c, 0, 64, 127
1, 214080, Tempo, 568720
1, 214080, Note_on_c, 0, 54, 0
1, 214080, Note_on_c, 0, 61, 0
1, 214080, Note_on_c, 0, 45, 0
1, 214080, Note_on_c, 0, 66, 0
1, 214080, Note_on_c, 0, 66, 51
1, 214080, Note_on_c, 0, 62, 51
1, 214080, Note_on_c, 0, 74, 61
1, 214080, Note_on_c, 0, 47, 35
1, 214080, Note_on_c, 0, 54, 41
1, 214096, Control_c, 0, 64, 0
1, 214229, Control_c, 0, 64, 127
1, 214440, Tempo, 558140
1, 214440, Note_on_c, 0, 74, 0
1, 214440, Note_on_c, 0, 66, 0
1, 214440, Note_on_c, 0, 67, 57
1, 214560, Note_on_c, 0, 67, 0
1, 214560, Note_on_c, 0, 54, 0
1, 214560, Note_on_c, 0, 67, 60
1, 214560, Note_on_c, 0, 55, 42
1, 214576, Control_c, 0, 64, 0
1, 214715, Control_c, 0, 64, 127
1, 215040, Note_on_c, 0, 55, 0
1, 215040, Note_on_c, 0, 62, 0
1, 215040, Note_on_c, 0, 47, 0
1, 215040, Note_on_c, 0, 67, 0
1, 215040, Note_on_c, 0, 65, 58
1, 215040, Note_on_c, 0, 67, 58
1, 215040, Note_on_c, 0, 75, 75
1, 215040, Note_on_c, 0, 35, 35
1, 215040, Note_on_c, 0, 47, 41
1, 215045, Control_c, 0, 64, 0
1, 215160, Note_on_c, 0, 47, 0
1, 215160, Note_on_c, 0, 35, 0
1, 215160, Note_on_c, 0, 31, 31
1, 215160, Note_on_c, 0, 43, 38
1, 215280, Note_on_c, 0, 43, 0
1, 215280, Note_on_c, 0, 31, 0
1, 215400, Tempo, 510638
1, 215400, Note_on_c, 0, 33, 38
1, 215400, Note_on_c, 0, 45, 46
1, 215520, Tempo, 579710
1, 215520, Note_on_c, 0, 45, 0
1, 215520, Note_on_c, 0, 33, 0
1, 215520, Note_on_c, 0, 35, 35
1, 215520, Note_on_c, 0, 47, 41
1, 215640, Note_on_c, 0, 47, 0
1, 215640, Note_on_c, 0, 35, 0
1, 215640, Note_on_c, 0, 31, 36
1, 215640, Note_on_c, 0, 43, 42
1, 215760, Tempo, 555556
1, 215760, Note_on_c, 0, 43, 0
1, 215760, Note_on_c, 0, 31, 0
1, 215760, Note_on_c, 0, 74, 68
1, 215770, Note_on_c, 0, 75, 0
1, 216000, Tempo, 563380
1, 216000, Note_on_c, 0, 65, 0
1, 216000, Note_on_c, 0, 67, 0
1, 216000, Note_on_c, 0, 74, 0
1, 216000, Note_on_c, 0, 63, 54
1, 216000, Note_on_c, 0, 67, 58
1, 216000, Note_on_c, 0, 74, 73
1, 216000, Note_on_c, 0, 36, 35
1, 216000, Note_on_c, 0, 48, 41
1, 216120, Note_on_c, 0, 48, 0
1, 216120, Note_on_c, 0, 36, 0
1, 216120, Note_on_c, 0, 31, 31
1, 216120, Note_on_c, 0, 43, 38
1, 216240, Note_on_c, 0, 43, 0
1, 216240, Note_on_c, 0, 31, 0
1, 216360, Tempo, 542986
1, 216360, Note_on_c, 0, 72, 51
1, 216360, Note_on_c, 0, 36, 38
1, 216360, Note_on_c, 0, 48, 46
1, 216370, Note_on_c, 0, 74, 0
1, 216480, Tempo, 563380
1, 216480, Note_on_c, 0, 67, 0
1, 216480, Note_on_c, 0, 63, 0
1, 216480, Note_on_c, 0, 36, 0
1, 216480, Note_on_c, 0, 48, 0
1, 216480, Note_on_c, 0, 65, 44
1, 216480, Note_on_c, 0, 38, 35
1, 216480, Note_on_c, 0, 50, 41
1, 216600, Note_on_c, 0, 50, 0
1, 216600, Note_on_c, 0, 38, 0
1, 216600, Note_on_c, 0, 31, 36
1, 216600, Note_on_c, 0, 43, 42
1, 216720, Note_on_c, 0, 43, 0
1, 216720, Note_on_c, 0, 31, 0
1, 216840, Tempo, 606061
1, 216840, Note_on_c, 0, 72, 0
1, 216840, Note_on_c, 0, 70, 61
1, 216960, Tempo, 563380
1, 216960, Note_on_c, 0, 70, 0
1, 216960, Note_on_c, 0, 65, 0
1, 216960, Note_on_c, 0, 60, 50
1, 216960, Note_on_c, 0, 63, 58
1, 216960, Note_on_c, 0, 70, 68
1, 216960, Note_on_c, 0, 39, 29
1, 216960, Note_on_c, 0, 51, 35
1, 217080, Note_on_c, 0, 51, 0
1, 217080, Note_on_c, 0, 39, 0
1, 217080, Note_on_c, 0, 31, 26
1, 217080, Note_on_c, 0, 43, 31
1, 217200, Tempo, 585366
1, 217200, Note_on_c, 0, 43, 0
1, 217200, Note_on_c, 0, 31, 0
1, 217320, Note_on_c, 0, 68, 55
1, 217320, Note_on_c, 0, 38, 29
1, 217320, Note_on_c, 0, 50, 35
1, 217330, Note_on_c, 0, 70, 0
1, 217440, Tempo, 555556
1, 217440, Note_on_c, 0, 38, 0
1, 217440, Note_on_c, 0, 68, 0
1, 217440, Note_on_c, 0, 50, 0
1, 217440, Note_on_c, 0, 68, 61
1, 217440, Note_on_c, 0, 39, 26
1, 217440, Note_on_c, 0, 51, 30
1, 217560, Note_on_c, 0, 51, 0
1, 217560, Note_on_c, 0, 39, 0
1, 217560, Note_on_c, 0, 44, 26
1, 217560, Note_on_c, 0, 56, 30
1, 217600, Note_on_c, 0, 72, 62
1, 217610, Note_on_c, 0, 68, 0
1, 217680, Tempo, 571429
1, 217680, Note_on_c, 0, 56, 0
1, 217680, Note_on_c, 0, 44, 0
1, 217760, Note_on_c, 0, 70, 61
1, 217770, Note_on_c, 0, 72, 0
1, 217920, Tempo, 576923
1, 217920, Note_on_c, 0, 60, 0
1, 217920, Note_on_c, 0, 63, 0
1, 217920, Note_on_c, 0, 59, 49
1, 217920, Note_on_c, 0, 68, 64
1, 217920, Note_on_c, 0, 41, 29
1, 217920, Note_on_c, 0, 53, 35
1, 217930, Note_on_c, 0, 70, 0
1, 218040, Note_on_c, 0, 41, 0
1, 218040, Note_on_c, 0, 53, 0
1, 218040, Note_on_c, 0, 38, 26
1, 218040, Note_on_c, 0, 50, 31
1, 218160, Note_on_c, 0, 50, 0
1, 218160, Note_on_c, 0, 38, 0
1, 218280, Note_on_c, 0, 39, 29
1, 218280, Note_on_c, 0, 51, 35
1, 218400, Note_on_c, 0, 51, 0
1, 218400, Note_on_c, 0, 39, 0
1, 218400, Note_on_c, 0, 67, 58
1, 218400, Note_on_c, 0, 41, 26
1, 218400, Note_on_c, 0, 53, 30
1, 218410, Note_on_c, 0, 68, 0
1, 218520, Note_on_c, 0, 41, 0
1, 218520, Note_on_c, 0, 53, 0
1, 218520, Note_on_c, 0, 50, 26
1, 218520, Note_on_c, 0, 62, 30
1, 218640, Note_on_c, 0, 62, 0
1, 218640, Note_on_c, 0, 50, 0
1, 218640, Note_on_c, 0, 67, 0
1, 218640, Note_on_c, 0, 67, 67
1, 218640, Note_on_c, 0, 79, 70
1, 218880, Tempo, 542986
1, 218880, Note_on_c, 0, 79, 0
1, 218880, Note_on_c, 0, 67, 0
1, 218880, Note_on_c, 0, 59, 0
1, 218880, Note_on_c, 0, 58, 55
1, 218880, Note_on_c, 0, 70, 64
1, 218880, Note_on_c, 0, 40, 42
1, 219000, Note_on_c, 0, 70, 0
1, 219000, Note_on_c, 0, 58, 0
1, 219000, Note_on_c, 0, 61, 49
1, 219000, Note_on_c, 0, 69, 58
1, 219040, Note_on_c, 0, 40, 0
1, 219040, Note_on_c, 0, 45, 39
1, 219120, Tempo, 558140
1, 219120, Note_on_c, 0, 69, 0
1, 219120, Note_on_c, 0, 61, 0
1, 219200, Note_on_c, 0, 55, 39
1, 219240, Note_on_c, 0, 57, 51
1, 219240, Note_on_c, 0, 67, 61
1, 219360, Tempo, 545455
1, 219360, Note_on_c, 0, 67, 0
1, 219360, Note_on_c, 0, 45, 0
1, 219360, Note_on_c, 0, 55, 0
1, 219360, Note_on_c, 0, 57, 0
1, 219360, Note_on_c, 0, 62, 56
1, 219360, Note_on_c, 0, 66, 67
1, 219360, Note_on_c, 0, 54, 44
1, 219480, Note_on_c, 0, 66, 0
1, 219480, Note_on_c, 0, 62, 0
1, 219480, Note_on_c, 0, 57, 51
1, 219480, Note_on_c, 0, 69, 61
1, 219520, Note_on_c, 0, 54, 0
1, 219520, Note_on_c, 0, 45, 40
1, 219600, Tempo, 560748
1, 219600, Note_on_c, 0, 69, 0
1, 219600, Note_on_c, 0, 57, 0
1, 219680, Note_on_c, 0, 45, 0
1, 219680, Note_on_c, 0, 38, 40
1, 219720, Note_on_c, 0, 60, 52
1, 219720, Note_on_c, 0, 72, 63
1, 219840, Tempo, 538117
1, 219840, Note_on_c, 0, 72, 0
1, 219840, Note_on_c, 0, 60, 0
1, 219840, Note_on_c, 0, 38, 0
1, 219840, Note_on_c, 0, 60, 57
1, 219840, Note_on_c, 0, 72, 68
1, 219840, Note_on_c, 0, 41, 44
1, 219960, Note_on_c, 0, 72, 0
1, 219960, Note_on_c, 0, 60, 0
1, 219960, Note_on_c, 0, 63, 52
1, 219960, Note_on_c, 0, 71, 63
1, 220000, Note_on_c, 0, 41, 0
1, 220000, Note_on_c, 0, 47, 38
1, 220080, Tempo, 552995
1, 220080, Note_on_c, 0, 71, 0
1, 220080, Note_on_c, 0, 63, 0
1, 220160, Note_on_c, 0, 57, 39
1, 220200, Note_on_c, 0, 59, 52
1, 220200, Note_on_c, 0, 69, 62
1, 220320, Tempo, 538117
1, 220320, Note_on_c, 0, 69, 0
1, 220320, Note_on_c, 0, 47, 0
1, 220320, Note_on_c, 0, 57, 0
1, 220320, Note_on_c, 0, 59, 0
1, 220320, Note_on_c, 0, 64, 57
1, 220320, Note_on_c, 0, 68, 68
1, 220320, Note_on_c, 0, 56, 44
1, 220440, Note_on_c, 0, 68, 0
1, 220440, Note_on_c, 0, 64, 0
1, 220440, Note_on_c, 0, 59, 52
1, 220440, Note_on_c, 0, 71, 62
1, 220480, Note_on_c, 0, 56, 0
1, 220480, Note_on_c, 0, 47, 39
1, 220560, Tempo, 552995
1, 220560, Note_on_c, 0, 71, 0
1, 220560, Note_on_c, 0, 59, 0
1, 220640, Note_on_c, 0, 47, 0
1, 220640, Note_on_c, 0, 40, 39
1, 220680, Note_on_c, 0, 62, 53
1, 220680, Note_on_c, 0, 74, 64
1, 220800, Tempo, 538117
1, 220800, Note_on_c, 0, 74, 0
1, 220800, Note_on_c, 0, 62, 0
1, 220800, Note_on_c, 0, 40, 0
1, 220800, Note_on_c, 0, 62, 59
1, 220800, Note_on_c, 0, 74, 70
1, 220800, Note_on_c, 0, 43, 46
1, 220920, Note_on_c, 0, 74, 0
1, 220920, Note_on_c, 0, 62, 0
1, 220920, Note_on_c, 0, 65, 55
1, 220920, Note_on_c, 0, 73, 64
1, 220960, Note_on_c, 0, 43, 0
1, 220960, Note_on_c, 0, 49, 40
1, 221040, Tempo, 552995
1, 221040, Note_on_c, 0, 73, 0
1, 221040, Note_on_c, 0, 65, 0
1, 221120, Note_on_c, 0, 49, 0
1, 221120, Note_on_c, 0, 59, 40
1, 221160, Note_on_c, 0, 61, 52
1, 221160, Note_on_c, 0, 71, 62
1, 221280, Tempo, 538117
1, 221280, Note_on_c, 0, 71, 0
1, 221280, Note_on_c, 0, 61, 0
1, 221280, Note_on_c, 0, 59, 0
1, 221280, Note_on_c, 0, 66, 55
1, 221280, Note_on_c, 0, 70, 64
1, 221280, Note_on_c, 0, 42, 49
1, 221349, Control_c, 0, 64, 127
1, 221440, Note_on_c, 0, 42, 0
1, 221440, Note_on_c, 0, 70, 0
1, 221440, Note_on_c, 0, 66, 0
1, 221440, Note_on_c, 0, 61, 58
1, 221440, Note_on_c, 0, 73, 68
1, 221440, Note_on_c, 0, 49, 42
1, 221520, Tempo, 558140
1, 221600, Note_on_c, 0, 49, 0
1, 221600, Note_on_c, 0, 73, 0
1, 221600, Note_on_c, 0, 61, 0
1, 221600, Note_on_c, 0, 70, 61
1, 221600, Note_on_c, 0, 73, 72
1, 221600, Note_on_c, 0, 58, 42
1, 221760, Tempo, 542986
1, 221760, Note_on_c, 0, 58, 0
1, 221760, Note_on_c, 0, 73, 0
1, 221760, Note_on_c, 0, 70, 0
1, 221760, Note_on_c, 0, 64, 62
1, 221760, Note_on_c, 0, 76, 75
1, 221760, Note_on_c, 0, 43, 53
1, 221768, Control_c, 0, 64, 0
1, 221811, Control_c, 0, 64, 127
1, 221840, Tempo, 545455
1, 221880, Tempo, 547945
1, 221920, Tempo, 550459
1, 221920, Note_on_c, 0, 43, 0
1, 221920, Note_on_c, 0, 76, 0
1, 221920, Note_on_c, 0, 64, 0
1, 221920, Note_on_c, 0, 73, 66
1, 221920, Note_on_c, 0, 76, 78
1, 221920, Note_on_c, 0, 52, 58
1, 222000, Tempo, 552995
1, 222040, Tempo, 555556
1, 222080, Tempo, 558140
1, 222080, Note_on_c, 0, 52, 0
1, 222080, Note_on_c, 0, 76, 0
1, 222080, Note_on_c, 0, 73, 0
1, 222080, Note_on_c, 0, 70, 67
1, 222080, Note_on_c, 0, 82, 81
1, 222080, Note_on_c, 0, 61, 60
1, 222160, Tempo, 560748
1, 222200, Tempo, 563380
1, 222240, Tempo, 566038
1, 222240, Note_on_c, 0, 61, 0
1, 222240, Note_on_c, 0, 82, 0
1, 222240, Note_on_c, 0, 70, 0
1, 222240, Note_on_c, 0, 80, 72
1, 222240, Note_on_c, 0, 85, 86
1, 222240, Note_on_c, 0, 44, 66
1, 222251, Control_c, 0, 64, 0
1, 222320, Tempo, 568720
1, 222326, Control_c, 0, 64, 127
1, 222360, Tempo, 571429
1, 222400, Tempo, 574163
1, 222400, Note_on_c, 0, 44, 0
1, 222400, Note_on_c, 0, 85, 0
1, 222400, Note_on_c, 0, 80, 0
1, 222400, Note_on_c, 0, 76, 75
1, 222400, Note_on_c, 0, 88, 84
1, 222400, Note_on_c, 0, 52, 69
1, 222480, Tempo, 576923
1, 222520, Tempo, 579710
1, 222560, Tempo, 582524
1, 222560, Note_on_c, 0, 52, 0
1, 222560, Note_on_c, 0, 88, 0
1, 222560, Note_on_c, 0, 76, 0
1, 222560, Note_on_c, 0, 88, 77
1, 222560, Note_on_c, 0, 100, 86
1, 222560, Note_on_c, 0, 61, 74
1, 222600, Tempo, 585366
1, 222640, Tempo, 591133
1, 222680, Tempo, 594059
1, 222720, Tempo, 574163
1, 222720, Note_on_c, 0, 61, 0
1, 222720, Note_on_c, 0, 100, 0
1, 222720, Note_on_c, 0, 88, 0
1, 222720, Note_on_c, 0, 60, 61
1, 222720, Note_on_c, 0, 64, 69
1, 222720, Note_on_c, 0, 72, 82
1, 222720, Note_on_c, 0, 32, 49
1, 222720, Note_on_c, 0, 44, 59
1, 222731, Control_c, 0, 64, 0
1, 222840, Note_on_c, 0, 44, 0
1, 222840, Note_on_c, 0, 32, 0
1, 222840, Note_on_c, 0, 28, 44
1, 222840, Note_on_c, 0, 40, 53
1, 222960, Tempo, 550459
1, 222960, Note_on_c, 0, 40, 0
1, 222960, Note_on_c, 0, 28, 0
1, 223080, Tempo, 519481
1, 223080, Note_on_c, 0, 30, 51
1, 223080, Note_on_c, 0, 42, 62
1, 223200, Tempo, 588235
1, 223200, Note_on_c, 0, 42, 0
1, 223200, Note_on_c, 0, 30, 0
1, 223200, Note_on_c, 0, 32, 46
1, 223200, Note_on_c, 0, 44, 56
1, 223320, Note_on_c, 0, 44, 0
1, 223320, Note_on_c, 0, 32, 0
1, 223320, Note_on_c, 0, 28, 47
1, 223320, Note_on_c, 0, 40, 57
1, 223440, Tempo, 571429
1, 223440, Note_on_c, 0, 40, 0
1, 223440, Note_on_c, 0, 28, 0
1, 223440, Note_on_c, 0, 58, 52
1, 223440, Note_on_c, 0, 70, 72
1, 223450, Note_on_c, 0, 72, 0
1, 223680, Tempo, 528634
1, 223680, Note_on_c, 0, 58, 0
1, 223680, Note_on_c, 0, 60, 0
1, 223680, Note_on_c, 0, 64, 0
1, 223680, Note_on_c, 0, 70, 0
1, 223680, Note_on_c, 0, 58, 64
1, 223680, Note_on_c, 0, 60, 53
1, 223680, Note_on_c, 0, 65, 56
1, 223680, Note_on_c, 0, 70, 77
1, 223680, Note_on_c, 0, 32, 49
1, 223680, Note_on_c, 0, 44, 59
1, 223800, Tempo, 560748
1, 223800, Note_on_c, 0, 44, 0
1, 223800, Note_on_c, 0, 32, 0
1, 223800, Note_on_c, 0, 29, 44
1, 223800, Note_on_c, 0, 41, 53
1, 223920, Note_on_c, 0, 41, 0
1, 223920, Note_on_c, 0, 29, 0
1, 224040, Tempo, 521739
1, 224040, Note_on_c, 0, 31, 51
1, 224040, Note_on_c, 0, 43, 62
1, 224160, Tempo, 563380
1, 224160, Note_on_c, 0, 43, 0
1, 224160, Note_on_c, 0, 70, 0
1, 224160, Note_on_c, 0, 58, 0
1, 224160, Note_on_c, 0, 31, 0
1, 224160, Note_on_c, 0, 56, 55
1, 224160, Note_on_c, 0, 68, 73
1, 224160, Note_on_c, 0, 32, 46
1, 224160, Note_on_c, 0, 44, 56
1, 224280, Note_on_c, 0, 44, 0
1, 224280, Note_on_c, 0, 32, 0
1, 224280, Note_on_c, 0, 29, 47
1, 224280, Note_on_c, 0, 41, 57
1, 224400, Note_on_c, 0, 41, 0
1, 224400, Note_on_c, 0, 29, 0
1, 224520, Tempo, 606061
1, 224520, Note_on_c, 0, 68, 0
1, 224520, Note_on_c, 0, 56, 0
1, 224520, Note_on_c, 0, 56, 49
1, 224520, Note_on_c, 0, 68, 67
1, 224640, Tempo, 533333
1, 224640, Note_on_c, 0, 68, 0
1, 224640, Note_on_c, 0, 65, 0
1, 224640, Note_on_c, 0, 60, 0
1, 224640, Note_on_c, 0, 56, 0
1, 224640, Note_on_c, 0, 61, 58
1, 224640, Note_on_c, 0, 56, 52
1, 224640, Note_on_c, 0, 64, 61
1, 224640, Note_on_c, 0, 68, 70
1, 224640, Note_on_c, 0, 34, 38
1, 224640, Note_on_c, 0, 46, 46
1, 224760, Tempo, 563380
1, 224760, Note_on_c, 0, 46, 0
1, 224760, Note_on_c, 0, 34, 0
1, 224760, Note_on_c, 0, 31, 35
1, 224760, Note_on_c, 0, 43, 42
1, 224880, Tempo, 566038
1, 224880, Note_on_c, 0, 43, 0
1, 224880, Note_on_c, 0, 31, 0
1, 225000, Note_on_c, 0, 68, 0
1, 225000, Note_on_c, 0, 56, 0
1, 225000, Note_on_c, 0, 55, 58
1, 225000, Note_on_c, 0, 67, 60
1, 225000, Note_on_c, 0, 32, 41
1, 225000, Note_on_c, 0, 44, 51
1, 225120, Tempo, 558140
1, 225120, Note_on_c, 0, 44, 0
1, 225120, Note_on_c, 0, 61, 0
1, 225120, Note_on_c, 0, 55, 0
1, 225120, Note_on_c, 0, 67, 0
1, 225120, Note_on_c, 0, 32, 0
1, 225120, Note_on_c, 0, 55, 58
1, 225120, Note_on_c, 0, 67, 68
1, 225120, Note_on_c, 0, 34, 39
1, 225120, Note_on_c, 0, 46, 46
1, 225237, Note_on_c, 0, 55, 0
1, 225240, Note_on_c, 0, 34, 0
1, 225240, Note_on_c, 0, 46, 0
1, 225240, Note_on_c, 0, 43, 40
1, 225240, Note_on_c, 0, 55, 47
1, 225280, Note_on_c, 0, 53, 44
1, 225280, Note_on_c, 0, 65, 63
1, 225290, Note_on_c, 0, 67, 0
1, 225360, Tempo, 574163
1, 225360, Note_on_c, 0, 55, 0
1, 225360, Note_on_c, 0, 43, 0
1, 225440, Note_on_c, 0, 64, 0
1, 225440, Note_on_c, 0, 53, 0
1, 225440, Note_on_c, 0, 52, 30
1, 225440, Note_on_c, 0, 64, 60
1, 225450, Note_on_c, 0, 65, 0
1, 225600, Tempo, 576923
1, 225600, Note_on_c, 0, 64, 0
1, 225600, Note_on_c, 0, 52, 0
1, 225600, Note_on_c, 0, 55, 45
1, 225600, Note_on_c, 0, 63, 58
1, 225600, Note_on_c, 0, 67, 71
1, 225600, Note_on_c, 0, 36, 36
1, 225600, Note_on_c, 0, 48, 44
1, 225720, Note_on_c, 0, 48, 0
1, 225720, Note_on_c, 0, 36, 0
1, 225720, Note_on_c, 0, 33, 31
1, 225720, Note_on_c, 0, 45, 39
1, 225840, Note_on_c, 0, 45, 0
1, 225840, Note_on_c, 0, 33, 0
1, 225960, Note_on_c, 0, 34, 36
1, 225960, Note_on_c, 0, 46, 44
1, 226080, Note_on_c, 0, 46, 0
1, 226080, Note_on_c, 0, 55, 0
1, 226080, Note_on_c, 0, 34, 0
1, 226080, Note_on_c, 0, 54, 42
1, 226080, Note_on_c, 0, 66, 62
1, 226080, Note_on_c, 0, 36, 31
1, 226080, Note_on_c, 0, 48, 38
1, 226090, Note_on_c, 0, 67, 0
1, 226200, Note_on_c, 0, 36, 0
1, 226200, Note_on_c, 0, 48, 0
1, 226200, Note_on_c, 0, 48, 31
1, 226200, Note_on_c, 0, 60, 38
1, 226320, Tempo, 558140
1, 226320, Note_on_c, 0, 60, 0
1, 226320, Note_on_c, 0, 54, 0
1, 226320, Note_on_c, 0, 48, 0
1, 226320, Note_on_c, 0, 66, 0
1, 226320, Note_on_c, 0, 69, 59
1, 226320, Note_on_c, 0, 81, 68
1, 226560, Tempo, 542986
1, 226560, Note_on_c, 0, 81, 0
1, 226560, Note_on_c, 0, 69, 0
1, 226560, Note_on_c, 0, 63, 0
1, 226560, Note_on_c, 0, 60, 60
1, 226560, Note_on_c, 0, 72, 70
1, 226560, Note_on_c, 0, 39, 55
1, 226680, Note_on_c, 0, 72, 0
1, 226680, Note_on_c, 0, 60, 0
1, 226680, Note_on_c, 0, 66, 53
1, 226680, Note_on_c, 0, 71, 63
1, 226720, Note_on_c, 0, 39, 0
1, 226720, Note_on_c, 0, 47, 42
1, 226800, Tempo, 560748
1, 226800, Note_on_c, 0, 71, 0
1, 226800, Note_on_c, 0, 66, 0
1, 226880, Note_on_c, 0, 57, 42
1, 226920, Note_on_c, 0, 59, 56
1, 226920, Note_on_c, 0, 69, 67
1, 227040, Tempo, 550459
1, 227040, Note_on_c, 0, 69, 0
1, 227040, Note_on_c, 0, 47, 0
1, 227040, Note_on_c, 0, 57, 0
1, 227040, Note_on_c, 0, 59, 0
1, 227040, Note_on_c, 0, 64, 61
1, 227040, Note_on_c, 0, 68, 73
1, 227040, Note_on_c, 0, 56, 48
1, 227160, Note_on_c, 0, 68, 0
1, 227160, Note_on_c, 0, 64, 0
1, 227160, Note_on_c, 0, 59, 56
1, 227160, Note_on_c, 0, 71, 67
1, 227200, Note_on_c, 0, 56, 0
1, 227200, Note_on_c, 0, 47, 44
1, 227280, Tempo, 558140
1, 227280, Note_on_c, 0, 71, 0
1, 227280, Note_on_c, 0, 59, 0
1, 227360, Note_on_c, 0, 47, 0
1, 227360, Note_on_c, 0, 40, 44
1, 227400, Note_on_c, 0, 62, 57
1, 227400, Note_on_c, 0, 74, 69
1, 227520, Tempo, 540541
1, 227520, Note_on_c, 0, 74, 0
1, 227520, Note_on_c, 0, 62, 0
1, 227520, Note_on_c, 0, 40, 0
1, 227520, Note_on_c, 0, 62, 62
1, 227520, Note_on_c, 0, 74, 74
1, 227520, Note_on_c, 0, 41, 48
1, 227640, Note_on_c, 0, 74, 0
1, 227640, Note_on_c, 0, 62, 0
1, 227640, Note_on_c, 0, 68, 57
1, 227640, Note_on_c, 0, 73, 69
1, 227680, Note_on_c, 0, 41, 0
1, 227680, Note_on_c, 0, 49, 41
1, 227760, Tempo, 550459
1, 227760, Note_on_c, 0, 73, 0
1, 227760, Note_on_c, 0, 68, 0
1, 227840, Note_on_c, 0, 59, 42
1, 227880, Note_on_c, 0, 61, 57
1, 227880, Note_on_c, 0, 71, 68
1, 228000, Tempo, 535714
1, 228000, Note_on_c, 0, 71, 0
1, 228000, Note_on_c, 0, 49, 0
1, 228000, Note_on_c, 0, 59, 0
1, 228000, Note_on_c, 0, 61, 0
1, 228000, Note_on_c, 0, 66, 62
1, 228000, Note_on_c, 0, 70, 74
1, 228000, Note_on_c, 0, 58, 48
1, 228120, Note_on_c, 0, 70, 0
1, 228120, Note_on_c, 0, 66, 0
1, 228120, Note_on_c, 0, 61, 57
1, 228120, Note_on_c, 0, 73, 68
1, 228160, Note_on_c, 0, 58, 0
1, 228160, Note_on_c, 0, 49, 42
1, 228240, Tempo, 550459
1, 228240, Note_on_c, 0, 73, 0
1, 228240, Note_on_c, 0, 61, 0
1, 228320, Note_on_c, 0, 49, 0
1, 228320, Note_on_c, 0, 42, 42
1, 228360, Note_on_c, 0, 64, 58
1, 228360, Note_on_c, 0, 76, 70
1, 228480, Tempo, 540541
1, 228480, Note_on_c, 0, 76, 0
1, 228480, Note_on_c, 0, 64, 0
1, 228480, Note_on_c, 0, 42, 0
1, 228480, Note_on_c, 0, 64, 64
1, 228480, Note_on_c, 0, 76, 77
1, 228480, Note_on_c, 0, 43, 50
1, 228600, Note_on_c, 0, 76, 0
1, 228600, Note_on_c, 0, 64, 0
1, 228600, Note_on_c, 0, 70, 60
1, 228600, Note_on_c, 0, 75, 70
1, 228640, Note_on_c, 0, 43, 0
1, 228640, Note_on_c, 0, 51, 44
1, 228720, Tempo, 560748
1, 228720, Note_on_c, 0, 75, 0
1, 228720, Note_on_c, 0, 70, 0
1, 228800, Note_on_c, 0, 61, 44
1, 228840, Note_on_c, 0, 63, 57
1, 228840, Note_on_c, 0, 73, 68
1, 228960, Note_on_c, 0, 73, 0
1, 228960, Note_on_c, 0, 51, 0
1, 228960, Note_on_c, 0, 61, 0
1, 228960, Note_on_c, 0, 63, 0
1, 228960, Note_on_c, 0, 68, 60
1, 228960, Note_on_c, 0, 72, 70
1, 228960, Note_on_c, 0, 44, 53
1, 228974, Control_c, 0, 64, 127
1, 229120, Note_on_c, 0, 44, 0
1, 229120, Note_on_c, 0, 72, 0
1, 229120, Note_on_c, 0, 68, 0
1, 229120, Note_on_c, 0, 63, 63
1, 229120, Note_on_c, 0, 75, 74
1, 229120, Note_on_c, 0, 51, 46
1, 229280, Note_on_c, 0, 51, 0
1, 229280, Note_on_c, 0, 75, 0
1, 229280, Note_on_c, 0, 63, 0
1, 229280, Note_on_c, 0, 72, 67
1, 229280, Note_on_c, 0, 75, 79
1, 229280, Note_on_c, 0, 60, 46
1, 229400, Tempo, 555556
1, 229440, Note_on_c, 0, 60, 0
1, 229440, Note_on_c, 0, 75, 0
1, 229440, Note_on_c, 0, 72, 0
1, 229440, Note_on_c, 0, 66, 68
1, 229440, Note_on_c, 0, 78, 82
1, 229440, Note_on_c, 0, 45, 58
1, 229449, Control_c, 0, 64, 0
1, 229480, Tempo, 558140
1, 229520, Tempo, 560748
1, 229520, Control_c, 0, 64, 127
1, 229600, Tempo, 563380
1, 229600, Note_on_c, 0, 45, 0
1, 229600, Note_on_c, 0, 78, 0
1, 229600, Note_on_c, 0, 66, 0
1, 229600, Note_on_c, 0, 75, 71
1, 229600, Note_on_c, 0, 78, 85
1, 229600, Note_on_c, 0, 54, 63
1, 229640, Tempo, 566038
1, 229720, Tempo, 568720
1, 229760, Tempo, 571429
1, 229760, Note_on_c, 0, 54, 0
1, 229760, Note_on_c, 0, 78, 0
1, 229760, Note_on_c, 0, 75, 0
1, 229760, Note_on_c, 0, 69, 73
1, 229760, Note_on_c, 0, 81, 89
1, 229760, Note_on_c, 0, 63, 66
1, 229840, Tempo, 574163
1, 229880, Tempo, 576923
1, 229920, Note_on_c, 0, 63, 0
1, 229920, Note_on_c, 0, 81, 0
1, 229920, Note_on_c, 0, 69, 0
1, 229920, Note_on_c, 0, 78, 80
1, 229920, Note_on_c, 0, 81, 94
1, 229920, Note_on_c, 0, 48, 71
1, 229932, Control_c, 0, 64, 0
1, 229960, Tempo, 579710
1, 229989, Control_c, 0, 64, 127
1, 230000, Tempo, 582524
1, 230080, Tempo, 585366
1, 230080, Note_on_c, 0, 48, 0
1, 230080, Note_on_c, 0, 81, 0
1, 230080, Note_on_c, 0, 78, 0
1, 230080, Note_on_c, 0, 74, 82
1, 230080, Note_on_c, 0, 86, 97
1, 230080, Note_on_c, 0, 54, 74
1, 230120, Tempo, 588235
1, 230200, Tempo, 591133
1, 230240, Tempo, 594059
1, 230240, Note_on_c, 0, 54, 0
1, 230240, Note_on_c, 0, 86, 0
1, 230240, Note_on_c, 0, 74, 0
1, 230240, Note_on_c, 0, 78, 85
1, 230240, Note_on_c, 0, 90, 104
1, 230240, Note_on_c, 0, 62, 81
1, 230320, Tempo, 597015
1, 230360, Tempo, 600000
1, 230400, Tempo, 542201
1, 230400, Note_on_c, 0, 62, 0
1, 230400, Note_on_c, 0, 90, 0
1, 230400, Note_on_c, 0, 78, 0
1, 230400, Note_on_c, 0, 86, 88
1, 230400, Note_on_c, 0, 91, 104
1, 230400, Note_on_c, 0, 34, 73
1, 230400, Note_on_c, 0, 46, 86
1, 230417, Control_c, 0, 64, 0
1, 230463, Control_c, 0, 64, 127
1, 230520, Note_on_c, 0, 91, 0
1, 230520, Note_on_c, 0, 86, 0
1, 230520, Note_on_c, 0, 79, 79
1, 230520, Note_on_c, 0, 82, 93
1, 230560, Note_on_c, 0, 34, 0
1, 230560, Note_on_c, 0, 46, 0
1, 230560, Note_on_c, 0, 50, 61
1, 230560, Note_on_c, 0, 58, 72
1, 230640, Tempo, 557828
1, 230640, Note_on_c, 0, 79, 0
1, 230640, Note_on_c, 0, 82, 0
1, 230720, Note_on_c, 0, 50, 0
1, 230720, Note_on_c, 0, 58, 0
1, 230720, Note_on_c, 0, 55, 68
1, 230720, Note_on_c, 0, 62, 80
1, 230760, Note_on_c, 0, 84, 94
1, 230760, Note_on_c, 0, 81, 80
1, 230880, Tempo, 547295
1, 230880, Note_on_c, 0, 81, 0
1, 230880, Note_on_c, 0, 55, 0
1, 230880, Note_on_c, 0, 62, 0
1, 230880, Note_on_c, 0, 84, 0
1, 230880, Note_on_c, 0, 82, 84
1, 230880, Note_on_c, 0, 86, 100
1, 230880, Note_on_c, 0, 58, 68
1, 230880, Note_on_c, 0, 67, 80
1, 230898, Control_c, 0, 64, 0
1, 230931, Control_c, 0, 64, 127
1, 231000, Note_on_c, 0, 86, 0
1, 231000, Note_on_c, 0, 82, 0
1, 231000, Note_on_c, 0, 74, 80
1, 231000, Note_on_c, 0, 79, 94
1, 231040, Note_on_c, 0, 58, 0
1, 231040, Note_on_c, 0, 67, 0
1, 231040, Note_on_c, 0, 55, 63
1, 231040, Note_on_c, 0, 62, 75
1, 231120, Tempo, 544712
1, 231120, Note_on_c, 0, 74, 0
1, 231120, Note_on_c, 0, 79, 0
1, 231200, Note_on_c, 0, 55, 0
1, 231200, Note_on_c, 0, 62, 0
1, 231280, Note_on_c, 0, 26, 56
1, 231280, Note_on_c, 0, 38, 66
1, 231303, Control_c, 0, 64, 0
1, 231337, Control_c, 0, 64, 127
1, 231360, Tempo, 542201
1, 231360, Note_on_c, 0, 38, 0
1, 231360, Note_on_c, 0, 26, 0
1, 231360, Note_on_c, 0, 82, 88
1, 231360, Note_on_c, 0, 86, 104
1, 231360, Note_on_c, 0, 26, 73
1, 231360, Note_on_c, 0, 38, 86
1, 231480, Note_on_c, 0, 86, 0
1, 231480, Note_on_c, 0, 82, 0
1, 231480, Note_on_c, 0, 74, 79
1, 231480, Note_on_c, 0, 79, 93
1, 231520, Note_on_c, 0, 26, 0
1, 231520, Note_on_c, 0, 38, 0
1, 231520, Note_on_c, 0, 50, 61
1, 231520, Note_on_c, 0, 58, 72
1, 231600, Tempo, 557828
1, 231600, Note_on_c, 0, 74, 0
1, 231600, Note_on_c, 0, 79, 0
1, 231680, Note_on_c, 0, 50, 0
1, 231680, Note_on_c, 0, 58, 0
1, 231680, Note_on_c, 0, 55, 63
1, 231680, Note_on_c, 0, 62, 75
1, 231720, Note_on_c, 0, 81, 89
1, 231720, Note_on_c, 0, 78, 75
1, 231840, Tempo, 547295
1, 231840, Note_on_c, 0, 78, 0
1, 231840, Note_on_c, 0, 55, 0
1, 231840, Note_on_c, 0, 62, 0
1, 231840, Note_on_c, 0, 81, 0
1, 231840, Note_on_c, 0, 79, 80
1, 231840, Note_on_c, 0, 82, 94
1, 231840, Note_on_c, 0, 58, 63
1, 231840, Note_on_c, 0, 67, 75
1, 231857, Control_c, 0, 64, 0
1, 231949, Control_c, 0, 64, 127
1, 231960, Note_on_c, 0, 82, 0
1, 231960, Note_on_c, 0, 79, 0
1, 231960, Note_on_c, 0, 86, 75
1, 231960, Note_on_c, 0, 91, 89
1, 232000, Note_on_c, 0, 58, 0
1, 232000, Note_on_c, 0, 67, 0
1, 232000, Note_on_c, 0, 55, 60
1, 232000, Note_on_c, 0, 62, 71
1, 232080, Tempo, 557828
1, 232080, Note_on_c, 0, 86, 0
1, 232080, Note_on_c, 0, 91, 0
1, 232160, Note_on_c, 0, 55, 0
1, 232160, Note_on_c, 0, 62, 0
1, 232160, Note_on_c, 0, 50, 52
1, 232160, Note_on_c, 0, 58, 62
1, 232320, Tempo, 542201
1, 232320, Note_on_c, 0, 58, 0
1, 232320, Note_on_c, 0, 50, 0
1, 232320, Note_on_c, 0, 85, 84
1, 232320, Note_on_c, 0, 89, 101
1, 232320, Note_on_c, 0, 46, 70
1, 232320, Note_on_c, 0, 58, 82
1, 232331, Control_c, 0, 64, 0
1, 232380, Control_c, 0, 64, 127
1, 232440, Note_on_c, 0, 89, 0
1, 232440, Note_on_c, 0, 85, 0
1, 232440, Note_on_c, 0, 77, 75
1, 232440, Note_on_c, 0, 82, 90
1, 232480, Note_on_c, 0, 46, 0
1, 232480, Note_on_c, 0, 58, 0
1, 232480, Note_on_c, 0, 53, 59
1, 232480, Note_on_c, 0, 61, 70
1, 232560, Tempo, 557828
1, 232560, Note_on_c, 0, 77, 0
1, 232560, Note_on_c, 0, 82, 0
1, 232640, Note_on_c, 0, 53, 0
1, 232640, Note_on_c, 0, 61, 0
1, 232640, Note_on_c, 0, 58, 66
1, 232640, Note_on_c, 0, 65, 77
1, 232680, Note_on_c, 0, 84, 91
1, 232680, Note_on_c, 0, 81, 77
1, 232800, Tempo, 547295
1, 232800, Note_on_c, 0, 81, 0
1, 232800, Note_on_c, 0, 58, 0
1, 232800, Note_on_c, 0, 65, 0
1, 232800, Note_on_c, 0, 84, 0
1, 232800, Note_on_c, 0, 82, 81
1, 232800, Note_on_c, 0, 85, 96
1, 232800, Note_on_c, 0, 61, 66
1, 232800, Note_on_c, 0, 70, 77
1, 232819, Control_c, 0, 64, 0
1, 232892, Control_c, 0, 64, 127
1, 232920, Note_on_c, 0, 85, 0
1, 232920, Note_on_c, 0, 82, 0
1, 232920, Note_on_c, 0, 73, 77
1, 232920, Note_on_c, 0, 77, 91
1, 232960, Note_on_c, 0, 61, 0
1, 232960, Note_on_c, 0, 70, 0
1, 232960, Note_on_c, 0, 58, 61
1, 232960, Note_on_c, 0, 65, 72
1, 233040, Tempo, 544712
1, 233040, Note_on_c, 0, 73, 0
1, 233040, Note_on_c, 0, 77, 0
1, 233120, Note_on_c, 0, 58, 0
1, 233120, Note_on_c, 0, 65, 0
1, 233200, Note_on_c, 0, 37, 53
1, 233200, Note_on_c, 0, 49, 63
1, 233280, Tempo, 542201
1, 233280, Note_on_c, 0, 49, 0
1, 233280, Note_on_c, 0, 37, 0
1, 233280, Note_on_c, 0, 85, 82
1, 233280, Note_on_c, 0, 89, 99
1, 233280, Note_on_c, 0, 37, 70
1, 233280, Note_on_c, 0, 49, 82
1, 233286, Control_c, 0, 64, 0
1, 233355, Control_c, 0, 64, 127
1, 233400, Note_on_c, 0, 89, 0
1, 233400, Note_on_c, 0, 85, 0
1, 233400, Note_on_c, 0, 77, 75
1, 233400, Note_on_c, 0, 82, 90
1, 233440, Note_on_c, 0, 37, 0
1, 233440, Note_on_c, 0, 49, 0
1, 233440, Note_on_c, 0, 53, 59
1, 233440, Note_on_c, 0, 61, 70
1, 233520, Tempo, 557828
1, 233520, Note_on_c, 0, 77, 0
1, 233520, Note_on_c, 0, 82, 0
1, 233600, Note_on_c, 0, 53, 0
1, 233600, Note_on_c, 0, 61, 0
1, 233600, Note_on_c, 0, 58, 61
1, 233600, Note_on_c, 0, 65, 72
1, 233640, Note_on_c, 0, 84, 85
1, 233640, Note_on_c, 0, 81, 72
1, 233760, Tempo, 547295
1, 233760, Note_on_c, 0, 81, 0
1, 233760, Note_on_c, 0, 58, 0
1, 233760, Note_on_c, 0, 65, 0
1, 233760, Note_on_c, 0, 84, 0
1, 233760, Note_on_c, 0, 82, 77
1, 233760, Note_on_c, 0, 85, 91
1, 233760, Note_on_c, 0, 61, 61
1, 233760, Note_on_c, 0, 70, 72
1, 233777, Control_c, 0, 64, 0
1, 233857, Control_c, 0, 64, 127
1, 233880, Note_on_c, 0, 85, 0
1, 233880, Note_on_c, 0, 82, 0
1, 233880, Note_on_c, 0, 89, 72
1, 233880, Note_on_c, 0, 94, 85
1, 233920, Note_on_c, 0, 61, 0
1, 233920, Note_on_c, 0, 70, 0
1, 233920, Note_on_c, 0, 58, 58
1, 233920, Note_on_c, 0, 65, 69
1, 234000, Tempo, 557828
1, 234000, Note_on_c, 0, 89, 0
1, 234000, Note_on_c, 0, 94, 0
1, 234080, Note_on_c, 0, 58, 0
1, 234080, Note_on_c, 0, 65, 0
1, 234080, Note_on_c, 0, 53, 50
1, 234080, Note_on_c, 0, 61, 60
1, 234240, Tempo, 542201
1, 234240, Note_on_c, 0, 61, 0
1, 234240, Note_on_c, 0, 53, 0
1, 234240, Note_on_c, 0, 84, 88
1, 234240, Note_on_c, 0, 89, 104
1, 234240, Note_on_c, 0, 32, 73
1, 234240, Note_on_c, 0, 44, 86
1, 234257, Control_c, 0, 64, 0
1, 234304, Control_c, 0, 64, 127
1, 234360, Note_on_c, 0, 89, 0
1, 234360, Note_on_c, 0, 84, 0
1, 234360, Note_on_c, 0, 77, 79
1, 234360, Note_on_c, 0, 80, 93
1, 234400, Note_on_c, 0, 32, 0
1, 234400, Note_on_c, 0, 44, 0
1, 234400, Note_on_c, 0, 53, 61
1, 234400, Note_on_c, 0, 60, 72
1, 234480, Tempo, 557828
1, 234480, Note_on_c, 0, 77, 0
1, 234480, Note_on_c, 0, 80, 0
1, 234560, Note_on_c, 0, 53, 0
1, 234560, Note_on_c, 0, 60, 0
1, 234560, Note_on_c, 0, 56, 68
1, 234560, Note_on_c, 0, 65, 80
1, 234600, Note_on_c, 0, 82, 91
1, 234600, Note_on_c, 0, 79, 77
1, 234720, Tempo, 547295
1, 234720, Note_on_c, 0, 79, 0
1, 234720, Note_on_c, 0, 56, 0
1, 234720, Note_on_c, 0, 65, 0
1, 234720, Note_on_c, 0, 82, 0
1, 234720, Note_on_c, 0, 80, 77
1, 234720, Note_on_c, 0, 84, 96
1, 234720, Note_on_c, 0, 60, 68
1, 234720, Note_on_c, 0, 68, 80
1, 234737, Control_c, 0, 64, 0
1, 234801, Control_c, 0, 64, 127
1, 234840, Note_on_c, 0, 84, 0
1, 234840, Note_on_c, 0, 80, 0
1, 234840, Note_on_c, 0, 72, 77
1, 234840, Note_on_c, 0, 77, 91
1, 234880, Note_on_c, 0, 60, 0
1, 234880, Note_on_c, 0, 68, 0
1, 234880, Note_on_c, 0, 56, 63
1, 234880, Note_on_c, 0, 65, 75
1, 234960, Tempo, 544712
1, 234960, Note_on_c, 0, 72, 0
1, 234960, Note_on_c, 0, 77, 0
1, 235040, Note_on_c, 0, 56, 0
1, 235040, Note_on_c, 0, 65, 0
1, 235140, Note_on_c, 0, 36, 66
1, 235140, Note_on_c, 0, 24, 56
1, 235152, Control_c, 0, 64, 0
1, 235182, Control_c, 0, 64, 127
1, 235200, Tempo, 542201
1, 235200, Note_on_c, 0, 80, 88
1, 235200, Note_on_c, 0, 84, 104
1, 235200, Note_on_c, 0, 24, 73
1, 235200, Note_on_c, 0, 36, 86
1, 235220, Note_on_c, 0, 24, 0
1, 235220, Note_on_c, 0, 36, 0
1, 235320, Note_on_c, 0, 84, 0
1, 235320, Note_on_c, 0, 80, 0
1, 235320, Note_on_c, 0, 72, 79
1, 235320, Note_on_c, 0, 77, 93
1, 235360, Note_on_c, 0, 36, 0
1, 235360, Note_on_c, 0, 24, 0
1, 235360, Note_on_c, 0, 53, 61
1, 235360, Note_on_c, 0, 60, 72
1, 235440, Tempo, 557828
1, 235440, Note_on_c, 0, 72, 0
1, 235440, Note_on_c, 0, 77, 0
1, 235520, Note_on_c, 0, 53, 0
1, 235520, Note_on_c, 0, 60, 0
1, 235520, Note_on_c, 0, 56, 63
1, 235520, Note_on_c, 0, 65, 75
1, 235560, Note_on_c, 0, 79, 89
1, 235560, Note_on_c, 0, 76, 75
1, 235680, Tempo, 547295
1, 235680, Note_on_c, 0, 76, 0
1, 235680, Note_on_c, 0, 56, 0
1, 235680, Note_on_c, 0, 65, 0
1, 235680, Note_on_c, 0, 79, 0
1, 235680, Note_on_c, 0, 77, 80
1, 235680, Note_on_c, 0, 80, 94
1, 235680, Note_on_c, 0, 60, 63
1, 235680, Note_on_c, 0, 68, 75
1, 235697, Control_c, 0, 64, 0
1, 235783, Control_c, 0, 64, 127
1, 235800, Note_on_c, 0, 80, 0
1, 235800, Note_on_c, 0, 77, 0
1, 235800, Note_on_c, 0, 84, 75
1, 235800, Note_on_c, 0, 89, 89
1, 235840, Note_on_c, 0, 60, 0
1, 235840, Note_on_c, 0, 68, 0
1, 235840, Note_on_c, 0, 56, 60
1, 235840, Note_on_c, 0, 65, 71
1, 235920, Tempo, 557828
1, 235920, Note_on_c, 0, 84, 0
1, 235920, Note_on_c, 0, 89, 0
1, 236000, Note_on_c, 0, 56, 0
1, 236000, Note_on_c, 0, 65, 0
1, 236000, Note_on_c, 0, 53, 52
1, 236000, Note_on_c, 0, 60, 62
1, 236160, Tempo, 542201
1, 236160, Note_on_c, 0, 60, 0
1, 236160, Note_on_c, 0, 53, 0
1, 236160, Note_on_c, 0, 84, 90
1, 236160, Note_on_c, 0, 88, 107
1, 236160, Note_on_c, 0, 44, 73
1, 236160, Note_on_c, 0, 56, 86
1, 236169, Control_c, 0, 64, 0
1, 236234, Control_c, 0, 64, 127
1, 236280, Note_on_c, 0, 88, 0
1, 236280, Note_on_c, 0, 84, 0
1, 236280, Note_on_c, 0, 76, 79
1, 236280, Note_on_c, 0, 80, 93
1, 236320, Note_on_c, 0, 44, 0
1, 236320, Note_on_c, 0, 56, 0
1, 236320, Note_on_c, 0, 52, 61
1, 236320, Note_on_c, 0, 60, 72
1, 236400, Tempo, 557828
1, 236400, Note_on_c, 0, 76, 0
1, 236400, Note_on_c, 0, 80, 0
1, 236480, Note_on_c, 0, 52, 0
1, 236480, Note_on_c, 0, 60, 0
1, 236480, Note_on_c, 0, 56, 68
1, 236480, Note_on_c, 0, 64, 80
1, 236520, Note_on_c, 0, 82, 91
1, 236520, Note_on_c, 0, 79, 77
1, 236640, Tempo, 547295
1, 236640, Note_on_c, 0, 79, 0
1, 236640, Note_on_c, 0, 56, 0
1, 236640, Note_on_c, 0, 64, 0
1, 236640, Note_on_c, 0, 82, 0
1, 236640, Note_on_c, 0, 80, 78
1, 236640, Note_on_c, 0, 84, 94
1, 236640, Note_on_c, 0, 60, 68
1, 236640, Note_on_c, 0, 68, 80
1, 236662, Control_c, 0, 64, 0
1, 236691, Control_c, 0, 64, 127
1, 236760, Note_on_c, 0, 84, 0
1, 236760, Note_on_c, 0, 80, 0
1, 236760, Note_on_c, 0, 72, 77
1, 236760, Note_on_c, 0, 76, 91
1, 236800, Note_on_c, 0, 60, 0
1, 236800, Note_on_c, 0, 68, 0
1, 236800, Note_on_c, 0, 56, 63
1, 236800, Note_on_c, 0, 64, 75
1, 236880, Tempo, 544712
1, 236880, Note_on_c, 0, 72, 0
1, 236880, Note_on_c, 0, 76, 0
1, 236960, Note_on_c, 0, 56, 0
1, 236960, Note_on_c, 0, 64, 0
1, 237060, Note_on_c, 0, 48, 66
1, 237060, Note_on_c, 0, 36, 56
1, 237068, Control_c, 0, 64, 0
1, 237100, Control_c, 0, 64, 127
1, 237120, Tempo, 542201
1, 237120, Note_on_c, 0, 80, 88
1, 237120, Note_on_c, 0, 84, 104
1, 237120, Note_on_c, 0, 36, 73
1, 237120, Note_on_c, 0, 48, 86
1, 237140, Note_on_c, 0, 36, 0
1, 237140, Note_on_c, 0, 48, 0
1, 237240, Note_on_c, 0, 84, 0
1, 237240, Note_on_c, 0, 80, 0
1, 237240, Note_on_c, 0, 72, 79
1, 237240, Note_on_c, 0, 76, 93
1, 237280, Note_on_c, 0, 48, 0
1, 237280, Note_on_c, 0, 36, 0
1, 237280, Note_on_c, 0, 52, 61
1, 237280, Note_on_c, 0, 60, 72
1, 237360, Tempo, 557828
1, 237360, Note_on_c, 0, 72, 0
1, 237360, Note_on_c, 0, 76, 0
1, 237440, Note_on_c, 0, 52, 0
1, 237440, Note_on_c, 0, 60, 0
1, 237440, Note_on_c, 0, 56, 63
1, 237440, Note_on_c, 0, 64, 75
1, 237480, Note_on_c, 0, 79, 89
1, 237480, Note_on_c, 0, 76, 75
1, 237600, Tempo, 547295
1, 237600, Note_on_c, 0, 76, 0
1, 237600, Note_on_c, 0, 56, 0
1, 237600, Note_on_c, 0, 64, 0
1, 237600, Note_on_c, 0, 79, 0
1, 237600, Note_on_c, 0, 76, 80
1, 237600, Note_on_c, 0, 80, 94
1, 237600, Note_on_c, 0, 60, 63
1, 237600, Note_on_c, 0, 68, 75
1, 237615, Control_c, 0, 64, 0
1, 237692, Control_c, 0, 64, 127
1, 237720, Note_on_c, 0, 80, 0
1, 237720, Note_on_c, 0, 76, 0
1, 237720, Note_on_c, 0, 84, 75
1, 237720, Note_on_c, 0, 88, 89
1, 237760, Note_on_c, 0, 60, 0
1, 237760, Note_on_c, 0, 68, 0
1, 237760, Note_on_c, 0, 56, 60
1, 237760, Note_on_c, 0, 64, 71
1, 237840, Tempo, 557828
1, 237840, Note_on_c, 0, 84, 0
1, 237840, Note_on_c, 0, 88, 0
1, 237920, Note_on_c, 0, 56, 0
1, 237920, Note_on_c, 0, 64, 0
1, 237920, Note_on_c, 0, 52, 52
1, 237920, Note_on_c, 0, 60, 62
1, 238080, Tempo, 542201
1, 238080, Note_on_c, 0, 60, 0
1, 238080, Note_on_c, 0, 52, 0
1, 238080, Note_on_c, 0, 83, 88
1, 238080, Note_on_c, 0, 88, 104
1, 238080, Note_on_c, 0, 43, 73
1, 238080, Note_on_c, 0, 55, 86
1, 238092, Control_c, 0, 64, 0
1, 238137, Control_c, 0, 64, 127
1, 238200, Note_on_c, 0, 88, 0
1, 238200, Note_on_c, 0, 83, 0
1, 238200, Note_on_c, 0, 76, 79
1, 238200, Note_on_c, 0, 79, 93
1, 238240, Note_on_c, 0, 43, 0
1, 238240, Note_on_c, 0, 55, 0
1, 238240, Note_on_c, 0, 55, 61
1, 238240, Note_on_c, 0, 64, 72
1, 238320, Tempo, 557828
1, 238320, Note_on_c, 0, 76, 0
1, 238320, Note_on_c, 0, 79, 0
1, 238400, Note_on_c, 0, 55, 0
1, 238400, Note_on_c, 0, 64, 0
1, 238400, Note_on_c, 0, 59, 68
1, 238400, Note_on_c, 0, 67, 80
1, 238440, Note_on_c, 0, 81, 91
1, 238440, Note_on_c, 0, 78, 77
1, 238560, Tempo, 547295
1, 238560, Note_on_c, 0, 78, 0
1, 238560, Note_on_c, 0, 59, 0
1, 238560, Note_on_c, 0, 67, 0
1, 238560, Note_on_c, 0, 81, 0
1, 238560, Note_on_c, 0, 79, 81
1, 238560, Note_on_c, 0, 83, 96
1, 238560, Note_on_c, 0, 64, 68
1, 238560, Note_on_c, 0, 71, 80
1, 238580, Control_c, 0, 64, 0
1, 238611, Control_c, 0, 64, 127
1, 238680, Note_on_c, 0, 83, 0
1, 238680, Note_on_c, 0, 79, 0
1, 238680, Note_on_c, 0, 71, 77
1, 238680, Note_on_c, 0, 76, 91
1, 238720, Note_on_c, 0, 64, 0
1, 238720, Note_on_c, 0, 71, 0
1, 238720, Note_on_c, 0, 59, 63
1, 238720, Note_on_c, 0, 67, 75
1, 238800, Tempo, 544712
1, 238800, Note_on_c, 0, 71, 0
1, 238800, Note_on_c, 0, 76, 0
1, 238880, Note_on_c, 0, 59, 0
1, 238880, Note_on_c, 0, 67, 0
1, 238980, Note_on_c, 0, 47, 66
1, 238980, Note_on_c, 0, 35, 56
1, 238986, Control_c, 0, 64, 0
1, 239022, Control_c, 0, 64, 127
1, 239040, Tempo, 542201
1, 239040, Note_on_c, 0, 79, 88
1, 239040, Note_on_c, 0, 83, 104
1, 239040, Note_on_c, 0, 35, 73
1, 239040, Note_on_c, 0, 47, 86
1, 239060, Note_on_c, 0, 35, 0
1, 239060, Note_on_c, 0, 47, 0
1, 239160, Note_on_c, 0, 83, 0
1, 239160, Note_on_c, 0, 79, 0
1, 239160, Note_on_c, 0, 71, 79
1, 239160, Note_on_c, 0, 76, 93
1, 239200, Note_on_c, 0, 47, 0
1, 239200, Note_on_c, 0, 35, 0
1, 239200, Note_on_c, 0, 55, 61
1, 239200, Note_on_c, 0, 64, 72
1, 239280, Tempo, 557828
1, 239280, Note_on_c, 0, 71, 0
1, 239280, Note_on_c, 0, 76, 0
1, 239360, Note_on_c, 0, 55, 0
1, 239360, Note_on_c, 0, 64, 0
1, 239360, Note_on_c, 0, 59, 63
1, 239360, Note_on_c, 0, 67, 75
1, 239400, Note_on_c, 0, 78, 89
1, 239400, Note_on_c, 0, 75, 75
1, 239520, Tempo, 547295
1, 239520, Note_on_c, 0, 75, 0
1, 239520, Note_on_c, 0, 59, 0
1, 239520, Note_on_c, 0, 67, 0
1, 239520, Note_on_c, 0, 78, 0
1, 239520, Note_on_c, 0, 76, 80
1, 239520, Note_on_c, 0, 79, 94
1, 239520, Note_on_c, 0, 64, 63
1, 239520, Note_on_c, 0, 71, 75
1, 239539, Control_c, 0, 64, 0
1, 239606, Control_c, 0, 64, 127
1, 239640, Note_on_c, 0, 79, 0
1, 239640, Note_on_c, 0, 76, 0
1, 239640, Note_on_c, 0, 83, 75
1, 239640, Note_on_c, 0, 88, 89
1, 239680, Note_on_c, 0, 64, 0
1, 239680, Note_on_c, 0, 71, 0
1, 239680, Note_on_c, 0, 59, 60
1, 239680, Note_on_c, 0, 67, 71
1, 239760, Tempo, 557828
1, 239760, Note_on_c, 0, 83, 0
1, 239760, Note_on_c, 0, 88, 0
1, 239840, Note_on_c, 0, 59, 0
1, 239840, Note_on_c, 0, 67, 0
1, 239840, Note_on_c, 0, 55, 52
1, 239840, Note_on_c, 0, 64, 62
1, 240000, Tempo, 542201
1, 240000, Note_on_c, 0, 64, 0
1, 240000, Note_on_c, 0, 55, 0
1, 240000, Note_on_c, 0, 83, 88
1, 240000, Note_on_c, 0, 86, 104
1, 240000, Note_on_c, 0, 43, 73
1, 240000, Note_on_c, 0, 55, 86
1, 240017, Control_c, 0, 64, 0
1, 240052, Control_c, 0, 64, 127
1, 240120, Note_on_c, 0, 86, 0
1, 240120, Note_on_c, 0, 83, 0
1, 240120, Note_on_c, 0, 74, 79
1, 240120, Note_on_c, 0, 79, 93
1, 240160, Note_on_c, 0, 43, 0
1, 240160, Note_on_c, 0, 55, 0
1, 240160, Note_on_c, 0, 50, 61
1, 240160, Note_on_c, 0, 59, 72
1, 240240, Tempo, 557828
1, 240240, Note_on_c, 0, 74, 0
1, 240240, Note_on_c, 0, 79, 0
1, 240320, Note_on_c, 0, 50, 0
1, 240320, Note_on_c, 0, 59, 0
1, 240320, Note_on_c, 0, 55, 68
1, 240320, Note_on_c, 0, 62, 80
1, 240360, Note_on_c, 0, 81, 91
1, 240360, Note_on_c, 0, 78, 77
1, 240480, Tempo, 547295
1, 240480, Note_on_c, 0, 78, 0
1, 240480, Note_on_c, 0, 55, 0
1, 240480, Note_on_c, 0, 62, 0
1, 240480, Note_on_c, 0, 81, 0
1, 240480, Note_on_c, 0, 79, 81
1, 240480, Note_on_c, 0, 83, 96
1, 240480, Note_on_c, 0, 59, 68
1, 240480, Note_on_c, 0, 67, 80
1, 240498, Control_c, 0, 64, 0
1, 240531, Control_c, 0, 64, 127
1, 240600, Note_on_c, 0, 83, 0
1, 240600, Note_on_c, 0, 79, 0
1, 240600, Note_on_c, 0, 71, 77
1, 240600, Note_on_c, 0, 74, 91
1, 240640, Note_on_c, 0, 59, 0
1, 240640, Note_on_c, 0, 67, 0
1, 240640, Note_on_c, 0, 55, 63
1, 240640, Note_on_c, 0, 62, 75
1, 240720, Tempo, 544712
1, 240720, Note_on_c, 0, 71, 0
1, 240720, Note_on_c, 0, 74, 0
1, 240800, Note_on_c, 0, 55, 0
1, 240800, Note_on_c, 0, 62, 0
1, 240900, Note_on_c, 0, 43, 66
1, 240900, Note_on_c, 0, 31, 56
1, 240909, Control_c, 0, 64, 0
1, 240942, Control_c, 0, 64, 127
1, 240960, Tempo, 542201
1, 240960, Note_on_c, 0, 83, 88
1, 240960, Note_on_c, 0, 86, 104
1, 240960, Note_on_c, 0, 31, 73
1, 240960, Note_on_c, 0, 43, 86
1, 240980, Note_on_c, 0, 31, 0
1, 240980, Note_on_c, 0, 43, 0
1, 241080, Note_on_c, 0, 86, 0
1, 241080, Note_on_c, 0, 83, 0
1, 241080, Note_on_c, 0, 74, 79
1, 241080, Note_on_c, 0, 79, 93
1, 241120, Note_on_c, 0, 43, 0
1, 241120, Note_on_c, 0, 31, 0
1, 241120, Note_on_c, 0, 50, 61
1, 241120, Note_on_c, 0, 59, 72
1, 241200, Tempo, 557828
1, 241200, Note_on_c, 0, 74, 0
1, 241200, Note_on_c, 0, 79, 0
1, 241280, Note_on_c, 0, 50, 0
1, 241280, Note_on_c, 0, 59, 0
1, 241280, Note_on_c, 0, 55, 63
1, 241280, Note_on_c, 0, 62, 75
1, 241320, Note_on_c, 0, 81, 89
1, 241320, Note_on_c, 0, 78, 75
1, 241440, Tempo, 547295
1, 241440, Note_on_c, 0, 78, 0
1, 241440, Note_on_c, 0, 55, 0
1, 241440, Note_on_c, 0, 62, 0
1, 241440, Note_on_c, 0, 81, 0
1, 241440, Note_on_c, 0, 79, 80
1, 241440, Note_on_c, 0, 83, 94
1, 241440, Note_on_c, 0, 59, 63
1, 241440, Note_on_c, 0, 67, 75
1, 241459, Control_c, 0, 64, 0
1, 241500, Control_c, 0, 64, 127
1, 241560, Note_on_c, 0, 83, 0
1, 241560, Note_on_c, 0, 79, 0
1, 241560, Note_on_c, 0, 86, 75
1, 241560, Note_on_c, 0, 91, 89
1, 241600, Note_on_c, 0, 59, 0
1, 241600, Note_on_c, 0, 67, 0
1, 241600, Note_on_c, 0, 55, 60
1, 241600, Note_on_c, 0, 62, 71
1, 241680, Tempo, 557828
1, 241680, Note_on_c, 0, 86, 0
1, 241680, Note_on_c, 0, 91, 0
1, 241760, Note_on_c, 0, 55, 0
1, 241760, Note_on_c, 0, 62, 0
1, 241760, Note_on_c, 0, 50, 52
1, 241760, Note_on_c, 0, 59, 62
1, 241920, Tempo, 542201
1, 241920, Note_on_c, 0, 59, 0
1, 241920, Note_on_c, 0, 50, 0
1, 241920, Note_on_c, 0, 81, 88
1, 241920, Note_on_c, 0, 86, 104
1, 241920, Note_on_c, 0, 42, 73
1, 241920, Note_on_c, 0, 54, 86
1, 241926, Control_c, 0, 64, 0
1, 241995, Control_c, 0, 64, 127
1, 242040, Note_on_c, 0, 86, 0
1, 242040, Note_on_c, 0, 81, 0
1, 242040, Note_on_c, 0, 74, 79
1, 242040, Note_on_c, 0, 78, 93
1, 242080, Note_on_c, 0, 42, 0
1, 242080, Note_on_c, 0, 54, 0
1, 242080, Note_on_c, 0, 50, 61
1, 242080, Note_on_c, 0, 57, 72
1, 242160, Tempo, 557828
1, 242160, Note_on_c, 0, 74, 0
1, 242160, Note_on_c, 0, 78, 0
1, 242240, Note_on_c, 0, 50, 0
1, 242240, Note_on_c, 0, 57, 0
1, 242240, Note_on_c, 0, 54, 68
1, 242240, Note_on_c, 0, 62, 80
1, 242280, Note_on_c, 0, 79, 91
1, 242280, Note_on_c, 0, 76, 77
1, 242400, Tempo, 547295
1, 242400, Note_on_c, 0, 76, 0
1, 242400, Note_on_c, 0, 54, 0
1, 242400, Note_on_c, 0, 62, 0
1, 242400, Note_on_c, 0, 79, 0
1, 242400, Note_on_c, 0, 78, 81
1, 242400, Note_on_c, 0, 81, 96
1, 242400, Note_on_c, 0, 57, 68
1, 242400, Note_on_c, 0, 66, 80
1, 242420, Control_c, 0, 64, 0
1, 242480, Control_c, 0, 64, 127
1, 242520, Note_on_c, 0, 81, 0
1, 242520, Note_on_c, 0, 78, 0
1, 242520, Note_on_c, 0, 69, 77
1, 242520, Note_on_c, 0, 74, 91
1, 242560, Note_on_c, 0, 57, 0
1, 242560, Note_on_c, 0, 66, 0
1, 242560, Note_on_c, 0, 54, 63
1, 242560, Note_on_c, 0, 62, 75
1, 242640, Tempo, 544712
1, 242640, Note_on_c, 0, 69, 0
1, 242640, Note_on_c, 0, 74, 0
1, 242720, Note_on_c, 0, 54, 0
1, 242720, Note_on_c, 0, 62, 0
1, 242720, Note_on_c, 0, 50, 56
1, 242720, Note_on_c, 0, 57, 66
1, 242880, Tempo, 542201
1, 242880, Note_on_c, 0, 57, 0
1, 242880, Note_on_c, 0, 50, 0
1, 242880, Note_on_c, 0, 77, 88
1, 242880, Note_on_c, 0, 81, 104
1, 242880, Note_on_c, 0, 41, 73
1, 242880, Note_on_c, 0, 53, 86
1, 242898, Control_c, 0, 64, 0
1, 242977, Control_c, 0, 64, 127
1, 243000, Note_on_c, 0, 81, 0
1, 243000, Note_on_c, 0, 77, 0
1, 243000, Note_on_c, 0, 69, 79
1, 243000, Note_on_c, 0, 74, 93
1, 243040, Note_on_c, 0, 41, 0
1, 243040, Note_on_c, 0, 53, 0
1, 243040, Note_on_c, 0, 50, 61
1, 243040, Note_on_c, 0, 57, 72
1, 243120, Tempo, 557828
1, 243120, Note_on_c, 0, 69, 0
1, 243120, Note_on_c, 0, 74, 0
1, 243200, Note_on_c, 0, 50, 0
1, 243200, Note_on_c, 0, 57, 0
1, 243200, Note_on_c, 0, 53, 63
1, 243200, Note_on_c, 0, 62, 75
1, 243240, Note_on_c, 0, 76, 89
1, 243240, Note_on_c, 0, 73, 75
1, 243360, Tempo, 547295
1, 243360, Note_on_c, 0, 73, 0
1, 243360, Note_on_c, 0, 53, 0
1, 243360, Note_on_c, 0, 62, 0
1, 243360, Note_on_c, 0, 76, 0
1, 243360, Note_on_c, 0, 74, 80
1, 243360, Note_on_c, 0, 77, 94
1, 243360, Note_on_c, 0, 57, 63
1, 243360, Note_on_c, 0, 65, 75
1, 243379, Control_c, 0, 64, 0
1, 243463, Control_c, 0, 64, 127
1, 243480, Note_on_c, 0, 77, 0
1, 243480, Note_on_c, 0, 74, 0
1, 243480, Note_on_c, 0, 81, 75
1, 243480, Note_on_c, 0, 86, 89
1, 243520, Note_on_c, 0, 57, 0
1, 243520, Note_on_c, 0, 65, 0
1, 243520, Note_on_c, 0, 53, 60
1, 243520, Note_on_c, 0, 62, 71
1, 243600, Tempo, 557828
1, 243600, Note_on_c, 0, 81, 0
1, 243600, Note_on_c, 0, 86, 0
1, 243680, Note_on_c, 0, 53, 0
1, 243680, Note_on_c, 0, 62, 0
1, 243680, Note_on_c, 0, 50, 52
1, 243680, Note_on_c, 0, 57, 62
1, 243840, Tempo, 542201
1, 243840, Note_on_c, 0, 57, 0
1, 243840, Note_on_c, 0, 50, 0
1, 243840, Note_on_c, 0, 81, 78
1, 243840, Note_on_c, 0, 84, 78
1, 243840, Note_on_c, 0, 89, 92
1, 243840, Note_on_c, 0, 41, 64
1, 243840, Note_on_c, 0, 53, 77
1, 243861, Control_c, 0, 64, 0
1, 243907, Control_c, 0, 64, 127
1, 244000, Note_on_c, 0, 53, 0
1, 244000, Note_on_c, 0, 89, 0
1, 244000, Note_on_c, 0, 81, 0
1, 244000, Note_on_c, 0, 84, 0
1, 244000, Note_on_c, 0, 41, 0
1, 244000, Note_on_c, 0, 78, 86
1, 244000, Note_on_c, 0, 48, 55
1, 244000, Note_on_c, 0, 57, 64
1, 244080, Tempo, 557828
1, 244160, Note_on_c, 0, 57, 0
1, 244160, Note_on_c, 0, 48, 0
1, 244160, Note_on_c, 0, 78, 0
1, 244160, Note_on_c, 0, 81, 75
1, 244160, Note_on_c, 0, 84, 90
1, 244160, Note_on_c, 0, 77, 75
1, 244160, Note_on_c, 0, 53, 60
1, 244160, Note_on_c, 0, 60, 71
1, 244320, Tempo, 547295
1, 244320, Note_on_c, 0, 60, 0
1, 244320, Note_on_c, 0, 77, 0
1, 244320, Note_on_c, 0, 81, 0
1, 244320, Note_on_c, 0, 84, 0
1, 244320, Note_on_c, 0, 53, 0
1, 244320, Note_on_c, 0, 77, 83
1, 244320, Note_on_c, 0, 72, 77
1, 244320, Note_on_c, 0, 57, 60
1, 244320, Note_on_c, 0, 65, 71
1, 244480, Note_on_c, 0, 65, 0
1, 244480, Note_on_c, 0, 77, 0
1, 244480, Note_on_c, 0, 72, 0
1, 244480, Note_on_c, 0, 57, 0
1, 244480, Note_on_c, 0, 72, 77
1, 244480, Note_on_c, 0, 77, 77
1, 244480, Note_on_c, 0, 81, 91
1, 244480, Note_on_c, 0, 53, 57
1, 244480, Note_on_c, 0, 60, 68
1, 244560, Tempo, 555556
1, 244640, Note_on_c, 0, 60, 0
1, 244640, Note_on_c, 0, 81, 0
1, 244640, Note_on_c, 0, 72, 0
1, 244640, Note_on_c, 0, 77, 0
1, 244640, Note_on_c, 0, 53, 0
1, 244640, Note_on_c, 0, 69, 82
1, 244720, Note_on_c, 0, 29, 49
1, 244720, Note_on_c, 0, 41, 59
1, 244746, Control_c, 0, 64, 0
1, 244780, Control_c, 0, 64, 127
1, 244800, Tempo, 558140
1, 244800, Note_on_c, 0, 41, 0
1, 244800, Note_on_c, 0, 29, 0
1, 244800, Note_on_c, 0, 69, 0
1, 244800, Note_on_c, 0, 69, 78
1, 244800, Note_on_c, 0, 72, 78
1, 244800, Note_on_c, 0, 77, 92
1, 244800, Note_on_c, 0, 29, 64
1, 244800, Note_on_c, 0, 41, 77
1, 244960, Note_on_c, 0, 41, 0
1, 244960, Note_on_c, 0, 77, 0
1, 244960, Note_on_c, 0, 69, 0
1, 244960, Note_on_c, 0, 72, 0
1, 244960, Note_on_c, 0, 29, 0
1, 244960, Note_on_c, 0, 66, 86
1, 244960, Note_on_c, 0, 48, 55
1, 244960, Note_on_c, 0, 57, 64
1, 245040, Tempo, 571429
1, 245120, Note_on_c, 0, 57, 0
1, 245120, Note_on_c, 0, 48, 0
1, 245120, Note_on_c, 0, 66, 0
1, 245120, Note_on_c, 0, 69, 71
1, 245120, Note_on_c, 0, 72, 85
1, 245120, Note_on_c, 0, 65, 71
1, 245120, Note_on_c, 0, 53, 57
1, 245120, Note_on_c, 0, 60, 67
1, 245280, Tempo, 555556
1, 245280, Note_on_c, 0, 60, 0
1, 245280, Note_on_c, 0, 65, 0
1, 245280, Note_on_c, 0, 69, 0
1, 245280, Note_on_c, 0, 72, 0
1, 245280, Note_on_c, 0, 53, 0
1, 245280, Note_on_c, 0, 60, 78
1, 245280, Note_on_c, 0, 57, 57
1, 245437, Note_on_c, 0, 57, 0
1, 245440, Note_on_c, 0, 60, 0
1, 245440, Note_on_c, 0, 57, 69
1, 245440, Note_on_c, 0, 60, 69
1, 245440, Note_on_c, 0, 65, 81
1, 245440, Note_on_c, 0, 41, 51
1, 245520, Tempo, 544712
1, 245560, Tempo, 550459
1, 245600, Note_on_c, 0, 41, 0
1, 245600, Note_on_c, 0, 57, 0
1, 245600, Note_on_c, 0, 60, 0
1, 245600, Note_on_c, 0, 65, 0
1, 245600, Note_on_c, 0, 65, 73
1, 245600, Note_on_c, 0, 53, 73
1, 245600, Note_on_c, 0, 29, 53
1, 245760, Tempo, 544712
1, 245760, Note_on_c, 0, 29, 0
1, 245760, Note_on_c, 0, 53, 0
1, 245760, Note_on_c, 0, 65, 0
1, 245760, Note_on_c, 0, 54, 73
1, 245760, Note_on_c, 0, 66, 86
1, 245760, Note_on_c, 0, 27, 57
1, 245760, Note_on_c, 0, 39, 57
1, 245770, Control_c, 0, 64, 0
1, 245800, Tempo, 547295
1, 245829, Control_c, 0, 64, 127
1, 245840, Tempo, 549904
1, 245880, Tempo, 552486
1, 245880, Note_on_c, 0, 66, 0
1, 245880, Note_on_c, 0, 54, 0
1, 245880, Note_on_c, 0, 63, 69
1, 245920, Tempo, 555144
1, 245960, Tempo, 557828
1, 246000, Tempo, 560538
1, 246000, Note_on_c, 0, 63, 0
1, 246000, Note_on_c, 0, 27, 0
1, 246000, Note_on_c, 0, 39, 0
1, 246000, Note_on_c, 0, 61, 68
1, 246040, Tempo, 563275
1, 246080, Tempo, 565984
1, 246120, Note_on_c, 0, 61, 0
1, 246120, Note_on_c, 0, 59, 59
1, 246180, Tempo, 638298
1, 246240, Tempo, 544712
1, 246240, Note_on_c, 0, 59, 0
1, 246240, Note_on_c, 0, 66, 57
1, 246240, Note_on_c, 0, 71, 68
1, 246240, Note_on_c, 0, 39, 46
1, 246259, Control_c, 0, 64, 0
1, 246309, Control_c, 0, 64, 127
1, 246360, Note_on_c, 0, 39, 0
1, 246360, Note_on_c, 0, 71, 0
1, 246360, Note_on_c, 0, 66, 0
1, 246360, Note_on_c, 0, 59, 52
1, 246360, Note_on_c, 0, 63, 62
1, 246360, Note_on_c, 0, 42, 39
1, 246480, Tempo, 563275
1, 246480, Note_on_c, 0, 42, 0
1, 246480, Note_on_c, 0, 63, 0
1, 246480, Note_on_c, 0, 59, 0
1, 246480, Note_on_c, 0, 54, 39
1, 246600, Note_on_c, 0, 54, 0
1, 246600, Note_on_c, 0, 61, 55
1, 246600, Note_on_c, 0, 64, 66
1, 246600, Note_on_c, 0, 47, 39
1, 246720, Tempo, 544712
1, 246720, Note_on_c, 0, 47, 0
1, 246720, Note_on_c, 0, 64, 0
1, 246720, Note_on_c, 0, 61, 0
1, 246720, Note_on_c, 0, 66, 69
1, 246720, Note_on_c, 0, 63, 58
1, 246720, Note_on_c, 0, 42, 47
1, 246729, Control_c, 0, 64, 0
1, 246777, Control_c, 0, 64, 127
1, 246840, Note_on_c, 0, 42, 0
1, 246840, Note_on_c, 0, 63, 0
1, 246840, Note_on_c, 0, 66, 0
1, 246840, Note_on_c, 0, 75, 67
1, 246840, Note_on_c, 0, 71, 56
1, 246840, Note_on_c, 0, 47, 42
1, 246960, Tempo, 560538
1, 246960, Note_on_c, 0, 47, 0
1, 246960, Note_on_c, 0, 71, 0
1, 246960, Note_on_c, 0, 75, 0
1, 246960, Note_on_c, 0, 59, 42
1, 247080, Note_on_c, 0, 59, 0
1, 247080, Note_on_c, 0, 51, 44
1, 247200, Tempo, 544712
1, 247200, Note_on_c, 0, 51, 0
1, 247200, Note_on_c, 0, 75, 60
1, 247200, Note_on_c, 0, 78, 72
1, 247200, Note_on_c, 0, 47, 49
1, 247219, Control_c, 0, 64, 0
1, 247269, Control_c, 0, 64, 127
1, 247320, Note_on_c, 0, 47, 0
1, 247320, Note_on_c, 0, 78, 0
1, 247320, Note_on_c, 0, 75, 0
1, 247320, Note_on_c, 0, 66, 55
1, 247320, Note_on_c, 0, 71, 66
1, 247320, Note_on_c, 0, 51, 42
1, 247440, Tempo, 557828
1, 247440, Note_on_c, 0, 51, 0
1, 247440, Note_on_c, 0, 71, 0
1, 247440, Note_on_c, 0, 66, 0
1, 247440, Note_on_c, 0, 63, 44
1, 247560, Note_on_c, 0, 63, 0
1, 247560, Note_on_c, 0, 70, 59
1, 247560, Note_on_c, 0, 73, 70
1, 247560, Note_on_c, 0, 54, 44
1, 247680, Tempo, 533333
1, 247680, Note_on_c, 0, 54, 0
1, 247680, Note_on_c, 0, 73, 0
1, 247680, Note_on_c, 0, 70, 0
1, 247680, Note_on_c, 0, 71, 62
1, 247680, Note_on_c, 0, 75, 74
1, 247680, Note_on_c, 0, 51, 50
1, 247691, Control_c, 0, 64, 0
1, 247731, Control_c, 0, 64, 127
1, 247800, Note_on_c, 0, 51, 0
1, 247800, Note_on_c, 0, 75, 0
1, 247800, Note_on_c, 0, 71, 0
1, 247800, Note_on_c, 0, 83, 70
1, 247800, Note_on_c, 0, 78, 58
1, 247800, Note_on_c, 0, 54, 42
1, 247920, Tempo, 540541
1, 247920, Note_on_c, 0, 54, 0
1, 247920, Note_on_c, 0, 78, 0
1, 247920, Note_on_c, 0, 83, 0
1, 247920, Note_on_c, 0, 66, 44
1, 248040, Note_on_c, 0, 66, 0
1, 248040, Note_on_c, 0, 59, 44
1, 248160, Tempo, 526316
1, 248160, Note_on_c, 0, 59, 0
1, 248160, Note_on_c, 0, 83, 66
1, 248160, Note_on_c, 0, 87, 79
1, 248160, Note_on_c, 0, 54, 56
1, 248172, Control_c, 0, 64, 0
1, 248240, Control_c, 0, 64, 127
1, 248280, Note_on_c, 0, 54, 0
1, 248280, Note_on_c, 0, 87, 0
1, 248280, Note_on_c, 0, 83, 0
1, 248280, Note_on_c, 0, 75, 62
1, 248280, Note_on_c, 0, 78, 74
1, 248280, Note_on_c, 0, 59, 48
1, 248400, Tempo, 538117
1, 248400, Note_on_c, 0, 59, 0
1, 248400, Note_on_c, 0, 78, 0
1, 248400, Note_on_c, 0, 75, 0
1, 248400, Note_on_c, 0, 71, 48
1, 248520, Note_on_c, 0, 71, 0
1, 248520, Note_on_c, 0, 76, 64
1, 248520, Note_on_c, 0, 82, 75
1, 248520, Note_on_c, 0, 63, 48
1, 248640, Tempo, 524017
1, 248640, Note_on_c, 0, 63, 0
1, 248640, Note_on_c, 0, 82, 0
1, 248640, Note_on_c, 0, 76, 0
1, 248640, Note_on_c, 0, 78, 68
1, 248640, Note_on_c, 0, 83, 80
1, 248640, Note_on_c, 0, 59, 56
1, 248650, Control_c, 0, 64, 0
1, 248681, Control_c, 0, 64, 127
1, 248760, Note_on_c, 0, 59, 0
1, 248760, Note_on_c, 0, 83, 0
1, 248760, Note_on_c, 0, 78, 0
1, 248760, Note_on_c, 0, 90, 75
1, 248760, Note_on_c, 0, 87, 63
1, 248760, Note_on_c, 0, 63, 51
1, 248840, Tempo, 552486
1, 248880, Note_on_c, 0, 63, 0
1, 248880, Note_on_c, 0, 87, 0
1, 248880, Note_on_c, 0, 90, 0
1, 248880, Note_on_c, 0, 75, 51
1, 249000, Tempo, 558140
1, 249000, Note_on_c, 0, 75, 0
1, 249000, Note_on_c, 0, 66, 52
1, 249120, Tempo, 571429
1, 249120, Note_on_c, 0, 66, 0
1, 249120, Note_on_c, 0, 79, 74
1, 249120, Note_on_c, 0, 82, 89
1, 249120, Note_on_c, 0, 52, 62
1, 249129, Control_c, 0, 64, 0
1, 249186, Control_c, 0, 64, 127
1, 249240, Tempo, 547945
1, 249240, Note_on_c, 0, 52, 0
1, 249240, Note_on_c, 0, 58, 56
1, 249280, Note_on_c, 0, 82, 0
1, 249280, Note_on_c, 0, 79, 0
1, 249280, Note_on_c, 0, 79, 67
1, 249280, Note_on_c, 0, 85, 67
1, 249280, Note_on_c, 0, 91, 79
1, 249360, Note_on_c, 0, 58, 0
1, 249360, Note_on_c, 0, 67, 56
1, 249440, Note_on_c, 0, 79, 0
1, 249440, Note_on_c, 0, 91, 0
1, 249440, Note_on_c, 0, 85, 0
1, 249440, Note_on_c, 0, 79, 67
1, 249440, Note_on_c, 0, 85, 67
1, 249440, Note_on_c, 0, 91, 79
1, 249480, Note_on_c, 0, 67, 0
1, 249480, Note_on_c, 0, 61, 56
1, 249600, Tempo, 544712
1, 249600, Note_on_c, 0, 61, 0
1, 249600, Note_on_c, 0, 91, 0
1, 249600, Note_on_c, 0, 85, 0
1, 249600, Note_on_c, 0, 79, 0
1, 249600, Note_on_c, 0, 79, 72
1, 249600, Note_on_c, 0, 83, 72
1, 249600, Note_on_c, 0, 91, 85
1, 249600, Note_on_c, 0, 51, 62
1, 249610, Control_c, 0, 64, 0
1, 249635, Control_c, 0, 64, 127
1, 249720, Note_on_c, 0, 51, 0
1, 249720, Note_on_c, 0, 79, 0
1, 249720, Note_on_c, 0, 83, 0
1, 249720, Note_on_c, 0, 91, 0
1, 249720, Note_on_c, 0, 78, 67
1, 249720, Note_on_c, 0, 90, 79
1, 249720, Note_on_c, 0, 54, 53
1, 249840, Tempo, 555144
1, 249840, Note_on_c, 0, 54, 0
1, 249840, Note_on_c, 0, 90, 0
1, 249840, Note_on_c, 0, 78, 0
1, 249840, Note_on_c, 0, 66, 53
1, 249960, Note_on_c, 0, 66, 0
1, 249960, Note_on_c, 0, 59, 53
1, 250070, Tempo, 574163
1, 250080, Tempo, 544712
1, 250080, Note_on_c, 0, 59, 0
1, 250080, Note_on_c, 0, 66, 57
1, 250080, Note_on_c, 0, 71, 68
1, 250080, Note_on_c, 0, 39, 46
1, 250100, Control_c, 0, 64, 0
1, 250149, Control_c, 0, 64, 127
1, 250200, Note_on_c, 0, 39, 0
1, 250200, Note_on_c, 0, 71, 0
1, 250200, Note_on_c, 0, 66, 0
1, 250200, Note_on_c, 0, 59, 52
1, 250200, Note_on_c, 0, 63, 62
1, 250200, Note_on_c, 0, 42, 39
1, 250320, Tempo, 563275
1, 250320, Note_on_c, 0, 42, 0
1, 250320, Note_on_c, 0, 63, 0
1, 250320, Note_on_c, 0, 59, 0
1, 250320, Note_on_c, 0, 54, 39
1, 250440, Note_on_c, 0, 54, 0
1, 250440, Note_on_c, 0, 61, 55
1, 250440, Note_on_c, 0, 64, 66
1, 250440, Note_on_c, 0, 47, 39
1, 250560, Tempo, 544712
1, 250560, Note_on_c, 0, 47, 0
1, 250560, Note_on_c, 0, 64, 0
1, 250560, Note_on_c, 0, 61, 0
1, 250560, Note_on_c, 0, 66, 69
1, 250560, Note_on_c, 0, 63, 58
1, 250560, Note_on_c, 0, 42, 47
1, 250572, Control_c, 0, 64, 0
1, 250617, Control_c, 0, 64, 127
1, 250680, Note_on_c, 0, 42, 0
1, 250680, Note_on_c, 0, 63, 0
1, 250680, Note_on_c, 0, 66, 0
1, 250680, Note_on_c, 0, 75, 67
1, 250680, Note_on_c, 0, 71, 56
1, 250680, Note_on_c, 0, 47, 42
1, 250800, Tempo, 560538
1, 250800, Note_on_c, 0, 47, 0
1, 250800, Note_on_c, 0, 71, 0
1, 250800, Note_on_c, 0, 75, 0
1, 250800, Note_on_c, 0, 59, 42
1, 250920, Note_on_c, 0, 59, 0
1, 250920, Note_on_c, 0, 51, 44
1, 251040, Tempo, 544712
1, 251040, Note_on_c, 0, 51, 0
1, 251040, Note_on_c, 0, 75, 60
1, 251040, Note_on_c, 0, 78, 72
1, 251040, Note_on_c, 0, 47, 49
1, 251056, Control_c, 0, 64, 0
1, 251109, Control_c, 0, 64, 127
1, 251160, Note_on_c, 0, 47, 0
1, 251160, Note_on_c, 0, 78, 0
1, 251160, Note_on_c, 0, 75, 0
1, 251160, Note_on_c, 0, 66, 55
1, 251160, Note_on_c, 0, 71, 66
1, 251160, Note_on_c, 0, 51, 42
1, 251280, Tempo, 557828
1, 251280, Note_on_c, 0, 51, 0
1, 251280, Note_on_c, 0, 71, 0
1, 251280, Note_on_c, 0, 66, 0
1, 251280, Note_on_c, 0, 63, 44
1, 251400, Note_on_c, 0, 63, 0
1, 251400, Note_on_c, 0, 70, 59
1, 251400, Note_on_c, 0, 73, 70
1, 251400, Note_on_c, 0, 54, 44
1, 251520, Tempo, 540541
1, 251520, Note_on_c, 0, 54, 0
1, 251520, Note_on_c, 0, 73, 0
1, 251520, Note_on_c, 0, 70, 0
1, 251520, Note_on_c, 0, 71, 62
1, 251520, Note_on_c, 0, 75, 74
1, 251520, Note_on_c, 0, 51, 50
1, 251532, Control_c, 0, 64, 0
1, 251571, Control_c, 0, 64, 127
1, 251640, Note_on_c, 0, 51, 0
1, 251640, Note_on_c, 0, 75, 0
1, 251640, Note_on_c, 0, 71, 0
1, 251640, Note_on_c, 0, 83, 70
1, 251640, Note_on_c, 0, 78, 58
1, 251640, Note_on_c, 0, 54, 42
1, 251760, Tempo, 547945
1, 251760, Note_on_c, 0, 54, 0
1, 251760, Note_on_c, 0, 78, 0
1, 251760, Note_on_c, 0, 83, 0
1, 251760, Note_on_c, 0, 66, 44
1, 251880, Note_on_c, 0, 66, 0
1, 251880, Note_on_c, 0, 59, 44
1, 252000, Tempo, 528634
1, 252000, Note_on_c, 0, 59, 0
1, 252000, Note_on_c, 0, 83, 66
1, 252000, Note_on_c, 0, 87, 79
1, 252000, Note_on_c, 0, 54, 56
1, 252007, Control_c, 0, 64, 0
1, 252046, Control_c, 0, 64, 127
1, 252120, Note_on_c, 0, 54, 0
1, 252120, Note_on_c, 0, 87, 0
1, 252120, Note_on_c, 0, 83, 0
1, 252120, Note_on_c, 0, 75, 62
1, 252120, Note_on_c, 0, 78, 74
1, 252120, Note_on_c, 0, 59, 48
1, 252240, Tempo, 540541
1, 252240, Note_on_c, 0, 59, 0
1, 252240, Note_on_c, 0, 78, 0
1, 252240, Note_on_c, 0, 75, 0
1, 252240, Note_on_c, 0, 71, 48
1, 252360, Note_on_c, 0, 71, 0
1, 252360, Note_on_c, 0, 76, 64
1, 252360, Note_on_c, 0, 82, 75
1, 252360, Note_on_c, 0, 63, 48
1, 252480, Tempo, 526316
1, 252480, Note_on_c, 0, 63, 0
1, 252480, Note_on_c, 0, 82, 0
1, 252480, Note_on_c, 0, 76, 0
1, 252480, Note_on_c, 0, 78, 68
1, 252480, Note_on_c, 0, 83, 80
1, 252480, Note_on_c, 0, 59, 56
1, 252497, Control_c, 0, 64, 0
1, 252595, Control_c, 0, 64, 127
1, 252600, Note_on_c, 0, 59, 0
1, 252600, Note_on_c, 0, 83, 0
1, 252600, Note_on_c, 0, 78, 0
1, 252600, Note_on_c, 0, 90, 75
1, 252600, Note_on_c, 0, 87, 63
1, 252600, Note_on_c, 0, 63, 51
1, 252680, Tempo, 552486
1, 252720, Note_on_c, 0, 63, 0
1, 252720, Note_on_c, 0, 87, 0
1, 252720, Note_on_c, 0, 90, 0
1, 252720, Note_on_c, 0, 75, 51
1, 252840, Tempo, 558140
1, 252840, Note_on_c, 0, 75, 0
1, 252840, Note_on_c, 0, 66, 52
1, 252960, Tempo, 560748
1, 252960, Note_on_c, 0, 66, 0
1, 252960, Note_on_c, 0, 79, 74
1, 252960, Note_on_c, 0, 82, 89
1, 252960, Note_on_c, 0, 52, 62
1, 252971, Control_c, 0, 64, 0
1, 253026, Control_c, 0, 64, 127
1, 253080, Tempo, 550459
1, 253080, Note_on_c, 0, 52, 0
1, 253080, Note_on_c, 0, 58, 56
1, 253120, Note_on_c, 0, 82, 0
1, 253120, Note_on_c, 0, 79, 0
1, 253120, Note_on_c, 0, 79, 67
1, 253120, Note_on_c, 0, 85, 67
1, 253120, Note_on_c, 0, 91, 79
1, 253200, Tempo, 552995
1, 253200, Note_on_c, 0, 58, 0
1, 253200, Note_on_c, 0, 67, 56
1, 253280, Note_on_c, 0, 79, 0
1, 253280, Note_on_c, 0, 91, 0
1, 253280, Note_on_c, 0, 85, 0
1, 253280, Note_on_c, 0, 79, 67
1, 253280, Note_on_c, 0, 85, 67
1, 253280, Note_on_c, 0, 91, 79
1, 253320, Note_on_c, 0, 67, 0
1, 253320, Note_on_c, 0, 61, 56
1, 253440, Tempo, 544712
1, 253440, Note_on_c, 0, 61, 0
1, 253440, Note_on_c, 0, 91, 0
1, 253440, Note_on_c, 0, 85, 0
1, 253440, Note_on_c, 0, 79, 0
1, 253440, Note_on_c, 0, 80, 85
1, 253440, Note_on_c, 0, 84, 85
1, 253440, Note_on_c, 0, 92, 85
1, 253440, Note_on_c, 0, 41, 62
1, 253440, Control_c, 0, 64, 0
1, 253475, Control_c, 0, 64, 127
1, 253600, Note_on_c, 0, 41, 0
1, 253600, Note_on_c, 0, 80, 0
1, 253600, Note_on_c, 0, 84, 0
1, 253600, Note_on_c, 0, 92, 0
1, 253600, Note_on_c, 0, 81, 80
1, 253600, Note_on_c, 0, 87, 80
1, 253600, Note_on_c, 0, 93, 80
1, 253600, Note_on_c, 0, 48, 52
1, 253680, Tempo, 652174
1, 253760, Note_on_c, 0, 48, 0
1, 253760, Note_on_c, 0, 81, 0
1, 253760, Note_on_c, 0, 87, 0
1, 253760, Note_on_c, 0, 93, 0
1, 253760, Note_on_c, 0, 58, 56
1, 253760, Note_on_c, 0, 70, 66
1, 253760, Note_on_c, 0, 49, 41
1, 253760, Note_on_c, 0, 54, 34
1, 253773, Control_c, 0, 64, 0
1, 253832, Control_c, 0, 64, 127
1, 253910, Tempo, 574163
1, 253920, Tempo, 591133
1, 253920, Note_on_c, 0, 49, 0
1, 253920, Note_on_c, 0, 58, 0
1, 253920, Note_on_c, 0, 70, 0
1, 253920, Note_on_c, 0, 57, 49
1, 253920, Note_on_c, 0, 69, 58
1, 253920, Note_on_c, 0, 48, 38
1, 254080, Note_on_c, 0, 48, 0
1, 254080, Note_on_c, 0, 54, 0
1, 254080, Note_on_c, 0, 57, 0
1, 254080, Note_on_c, 0, 69, 0
1, 254080, Note_on_c, 0, 63, 52
1, 254080, Note_on_c, 0, 66, 61
1, 254080, Note_on_c, 0, 41, 39
1, 254160, Tempo, 641711
1, 254240, Tempo, 591133
1, 254240, Note_on_c, 0, 41, 0
1, 254240, Note_on_c, 0, 66, 0
1, 254240, Note_on_c, 0, 63, 0
1, 254240, Note_on_c, 0, 61, 58
1, 254240, Note_on_c, 0, 73, 70
1, 254240, Note_on_c, 0, 51, 36
1, 254240, Note_on_c, 0, 58, 42
1, 254258, Control_c, 0, 64, 0
1, 254368, Control_c, 0, 64, 127
1, 254400, Note_on_c, 0, 58, 0
1, 254400, Note_on_c, 0, 61, 0
1, 254400, Note_on_c, 0, 73, 0
1, 254400, Note_on_c, 0, 60, 53
1, 254400, Note_on_c, 0, 72, 63
1, 254400, Note_on_c, 0, 57, 39
1, 254560, Note_on_c, 0, 57, 0
1, 254560, Note_on_c, 0, 51, 0
1, 254560, Note_on_c, 0, 60, 0
1, 254560, Note_on_c, 0, 72, 0
1, 254560, Note_on_c, 0, 63, 53
1, 254560, Note_on_c, 0, 66, 63
1, 254560, Note_on_c, 0, 41, 41
1, 254640, Tempo, 652174
1, 254720, Tempo, 591133
1, 254720, Note_on_c, 0, 41, 0
1, 254720, Note_on_c, 0, 66, 0
1, 254720, Note_on_c, 0, 63, 0
1, 254720, Note_on_c, 0, 58, 60
1, 254720, Note_on_c, 0, 70, 72
1, 254720, Note_on_c, 0, 49, 46
1, 254720, Note_on_c, 0, 54, 39
1, 254740, Control_c, 0, 64, 0
1, 254781, Control_c, 0, 64, 127
1, 254880, Note_on_c, 0, 49, 0
1, 254880, Note_on_c, 0, 58, 0
1, 254880, Note_on_c, 0, 70, 0
1, 254880, Note_on_c, 0, 57, 55
1, 254880, Note_on_c, 0, 69, 64
1, 254880, Note_on_c, 0, 48, 44
1, 255040, Note_on_c, 0, 48, 0
1, 255040, Note_on_c, 0, 54, 0
1, 255040, Note_on_c, 0, 57, 0
1, 255040, Note_on_c, 0, 69, 0
1, 255040, Note_on_c, 0, 63, 57
1, 255040, Note_on_c, 0, 66, 68
1, 255040, Note_on_c, 0, 41, 44
1, 255120, Tempo, 648649
1, 255200, Tempo, 591133
1, 255200, Note_on_c, 0, 41, 0
1, 255200, Note_on_c, 0, 66, 0
1, 255200, Note_on_c, 0, 63, 0
1, 255200, Note_on_c, 0, 61, 62
1, 255200, Note_on_c, 0, 73, 74
1, 255200, Note_on_c, 0, 51, 41
1, 255200, Note_on_c, 0, 58, 48
1, 255212, Control_c, 0, 64, 0
1, 255254, Control_c, 0, 64, 127
1, 255360, Note_on_c, 0, 58, 0
1, 255360, Note_on_c, 0, 61, 0
1, 255360, Note_on_c, 0, 73, 0
1, 255360, Note_on_c, 0, 60, 57
1, 255360, Note_on_c, 0, 72, 68
1, 255360, Note_on_c, 0, 57, 46
1, 255520, Note_on_c, 0, 57, 0
1, 255520, Note_on_c, 0, 51, 0
1, 255520, Note_on_c, 0, 60, 0
1, 255520, Note_on_c, 0, 72, 0
1, 255520, Note_on_c, 0, 63, 60
1, 255520, Note_on_c, 0, 66, 71
1, 255520, Note_on_c, 0, 41, 46
1, 255600, Tempo, 648649
1, 255680, Tempo, 591133
1, 255680, Note_on_c, 0, 41, 0
1, 255680, Note_on_c, 0, 66, 0
1, 255680, Note_on_c, 0, 63, 0
1, 255680, Note_on_c, 0, 66, 66
1, 255680, Note_on_c, 0, 78, 79
1, 255680, Note_on_c, 0, 58, 51
1, 255680, Note_on_c, 0, 63, 42
1, 255695, Control_c, 0, 64, 0
1, 255745, Control_c, 0, 64, 127
1, 255840, Note_on_c, 0, 58, 0
1, 255840, Note_on_c, 0, 66, 0
1, 255840, Note_on_c, 0, 78, 0
1, 255840, Note_on_c, 0, 65, 58
1, 255840, Note_on_c, 0, 77, 70
1, 255840, Note_on_c, 0, 57, 47
1, 256000, Note_on_c, 0, 57, 0
1, 256000, Note_on_c, 0, 63, 0
1, 256000, Note_on_c, 0, 65, 0
1, 256000, Note_on_c, 0, 77, 0
1, 256000, Note_on_c, 0, 72, 61
1, 256000, Note_on_c, 0, 75, 72
1, 256000, Note_on_c, 0, 53, 47
1, 256080, Tempo, 638298
1, 256160, Note_on_c, 0, 53, 0
1, 256160, Note_on_c, 0, 75, 0
1, 256160, Note_on_c, 0, 72, 0
1, 256160, Note_on_c, 0, 70, 67
1, 256160, Note_on_c, 0, 82, 80
1, 256160, Note_on_c, 0, 66, 46
1, 256160, Note_on_c, 0, 61, 53
1, 256171, Control_c, 0, 64, 0
1, 256180, Tempo, 591133
1, 256243, Control_c, 0, 64, 127
1, 256320, Note_on_c, 0, 61, 0
1, 256320, Note_on_c, 0, 70, 0
1, 256320, Note_on_c, 0, 82, 0
1, 256320, Note_on_c, 0, 69, 61
1, 256320, Note_on_c, 0, 81, 73
1, 256320, Note_on_c, 0, 60, 49
1, 256480, Note_on_c, 0, 60, 0
1, 256480, Note_on_c, 0, 66, 0
1, 256480, Note_on_c, 0, 69, 0
1, 256480, Note_on_c, 0, 81, 0
1, 256480, Note_on_c, 0, 75, 63
1, 256480, Note_on_c, 0, 78, 75
1, 256480, Note_on_c, 0, 53, 50
1, 256560, Tempo, 628272
1, 256640, Tempo, 591133
1, 256640, Note_on_c, 0, 53, 0
1, 256640, Note_on_c, 0, 78, 0
1, 256640, Note_on_c, 0, 75, 0
1, 256640, Note_on_c, 0, 73, 72
1, 256640, Note_on_c, 0, 85, 85
1, 256640, Note_on_c, 0, 63, 48
1, 256640, Note_on_c, 0, 70, 56
1, 256648, Control_c, 0, 64, 0
1, 256676, Control_c, 0, 64, 127
1, 256800, Note_on_c, 0, 70, 0
1, 256800, Note_on_c, 0, 73, 0
1, 256800, Note_on_c, 0, 85, 0
1, 256800, Note_on_c, 0, 84, 75
1, 256800, Note_on_c, 0, 72, 63
1, 256800, Note_on_c, 0, 69, 50
1, 256960, Note_on_c, 0, 69, 0
1, 256960, Note_on_c, 0, 63, 0
1, 256960, Note_on_c, 0, 84, 0
1, 256960, Note_on_c, 0, 72, 0
1, 256960, Note_on_c, 0, 78, 81
1, 256960, Note_on_c, 0, 75, 68
1, 256960, Note_on_c, 0, 53, 51
1, 257040, Tempo, 628272
1, 257120, Tempo, 591133
1, 257120, Note_on_c, 0, 53, 0
1, 257120, Note_on_c, 0, 75, 0
1, 257120, Note_on_c, 0, 78, 0
1, 257120, Note_on_c, 0, 90, 89
1, 257120, Note_on_c, 0, 78, 74
1, 257120, Note_on_c, 0, 70, 49
1, 257120, Note_on_c, 0, 75, 59
1, 257132, Control_c, 0, 64, 0
1, 257280, Tempo, 597015
1, 257280, Note_on_c, 0, 70, 0
1, 257280, Note_on_c, 0, 69, 58
1, 257301, Control_c, 0, 64, 127
1, 257440, Note_on_c, 0, 69, 0
1, 257440, Note_on_c, 0, 75, 0
1, 257440, Note_on_c, 0, 78, 0
1, 257440, Note_on_c, 0, 90, 0
1, 257440, Note_on_c, 0, 84, 63
1, 257440, Note_on_c, 0, 89, 75
1, 257520, Tempo, 609137
1, 257600, Note_on_c, 0, 89, 0
1, 257600, Note_on_c, 0, 84, 0
1, 257600, Note_on_c, 0, 78, 62
1, 257600, Note_on_c, 0, 88, 74
1, 257760, Note_on_c, 0, 88, 0
1, 257760, Note_on_c, 0, 78, 0
1, 257760, Note_on_c, 0, 84, 64
1, 257760, Note_on_c, 0, 87, 77
1, 257781, Control_c, 0, 64, 0
1, 257820, Control_c, 0, 64, 127
1, 257920, Note_on_c, 0, 87, 0
1, 257920, Note_on_c, 0, 84, 0
1, 257920, Note_on_c, 0, 78, 62
1, 257920, Note_on_c, 0, 86, 73
1, 258080, Note_on_c, 0, 86, 0
1, 258080, Note_on_c, 0, 78, 0
1, 258080, Note_on_c, 0, 81, 58
1, 258080, Note_on_c, 0, 85, 70
1, 258240, Note_on_c, 0, 85, 0
1, 258240, Note_on_c, 0, 81, 0
1, 258240, Note_on_c, 0, 75, 62
1, 258240, Note_on_c, 0, 84, 73
1, 258240, Note_on_c, 0, 65, 56
1, 258248, Control_c, 0, 64, 0
1, 258280, Control_c, 0, 64, 127
1, 258400, Note_on_c, 0, 84, 0
1, 258400, Note_on_c, 0, 75, 0
1, 258400, Note_on_c, 0, 78, 58
1, 258400, Note_on_c, 0, 83, 68
1, 258560, Note_on_c, 0, 83, 0
1, 258560, Note_on_c, 0, 78, 0
1, 258560, Note_on_c, 0, 75, 55
1, 258560, Note_on_c, 0, 82, 66
1, 258720, Note_on_c, 0, 82, 0
1, 258720, Note_on_c, 0, 75, 0
1, 258720, Note_on_c, 0, 65, 0
1, 258720, Note_on_c, 0, 78, 58
1, 258720, Note_on_c, 0, 81, 69
1, 258720, Note_on_c, 0, 65, 55
1, 258729, Control_c, 0, 64, 0
1, 258802, Control_c, 0, 64, 127
1, 258880, Note_on_c, 0, 81, 0
1, 258880, Note_on_c, 0, 78, 0
1, 258880, Note_on_c, 0, 72, 53
1, 258880, Note_on_c, 0, 80, 63
1, 259040, Note_on_c, 0, 80, 0
1, 259040, Note_on_c, 0, 72, 0
1, 259040, Note_on_c, 0, 79, 63
1, 259040, Note_on_c, 0, 75, 53
1, 259200, Note_on_c, 0, 75, 0
1, 259200, Note_on_c, 0, 79, 0
1, 259200, Note_on_c, 0, 65, 0
1, 259200, Note_on_c, 0, 69, 52
1, 259200, Note_on_c, 0, 78, 62
1, 259200, Note_on_c, 0, 65, 49
1, 259206, Control_c, 0, 64, 0
1, 259220, Tempo, 603015
1, 259286, Control_c, 0, 64, 127
1, 259360, Note_on_c, 0, 78, 0
1, 259360, Note_on_c, 0, 69, 0
1, 259360, Note_on_c, 0, 72, 49
1, 259360, Note_on_c, 0, 77, 59
1, 259380, Tempo, 606061
1, 259520, Note_on_c, 0, 77, 0
1, 259520, Note_on_c, 0, 72, 0
1, 259520, Note_on_c, 0, 69, 49
1, 259520, Note_on_c, 0, 76, 59
1, 259540, Tempo, 609137
1, 259680, Tempo, 612245
1, 259680, Note_on_c, 0, 76, 0
1, 259680, Note_on_c, 0, 69, 0
1, 259680, Note_on_c, 0, 72, 49
1, 259680, Note_on_c, 0, 75, 59
1, 259696, Control_c, 0, 64, 0
1, 259772, Control_c, 0, 64, 127
1, 259840, Tempo, 615385
1, 259840, Note_on_c, 0, 75, 0
1, 259840, Note_on_c, 0, 72, 0
1, 259840, Note_on_c, 0, 63, 45
1, 259840, Note_on_c, 0, 74, 53
1, 260000, Tempo, 618557
1, 260000, Note_on_c, 0, 74, 0
1, 260000, Note_on_c, 0, 63, 0
1, 260000, Note_on_c, 0, 69, 46
1, 260000, Note_on_c, 0, 73, 53
1, 260140, Tempo, 621762
1, 260160, Tempo, 621762
1, 260160, Note_on_c, 0, 73, 0
1, 260160, Note_on_c, 0, 69, 0
1, 260160, Note_on_c, 0, 65, 0
1, 260160, Note_on_c, 0, 63, 53
1, 260160, Note_on_c, 0, 72, 53
1, 260160, Note_on_c, 0, 53, 40
1, 260168, Control_c, 0, 64, 0
1, 260217, Control_c, 0, 64, 127
1, 260320, Note_on_c, 0, 72, 0
1, 260320, Note_on_c, 0, 63, 0
1, 260320, Note_on_c, 0, 69, 49
1, 260320, Note_on_c, 0, 71, 49
1, 260480, Note_on_c, 0, 71, 0
1, 260480, Note_on_c, 0, 69, 0
1, 260480, Note_on_c, 0, 63, 49
1, 260480, Note_on_c, 0, 74, 49
1, 260640, Tempo, 641711
1, 260640, Note_on_c, 0, 74, 0
1, 260640, Note_on_c, 0, 63, 0
1, 260640, Note_on_c, 0, 53, 0
1, 260640, Note_on_c, 0, 69, 52
1, 260640, Note_on_c, 0, 72, 52
1, 260640, Note_on_c, 0, 53, 34
1, 260656, Control_c, 0, 64, 0
1, 260680, Tempo, 645161
1, 260700, Tempo, 648649
1, 260720, Tempo, 652174
1, 260728, Control_c, 0, 64, 127
1, 260740, Tempo, 655738
1, 260760, Tempo, 659341
1, 260780, Tempo, 662983
1, 260800, Tempo, 666667
1, 260800, Note_on_c, 0, 72, 0
1, 260800, Note_on_c, 0, 69, 0
1, 260800, Note_on_c, 0, 69, 53
1, 260800, Note_on_c, 0, 79, 53
1, 260840, Tempo, 670391
1, 260860, Tempo, 674157
1, 260880, Tempo, 677966
1, 260900, Tempo, 681818
1, 260920, Tempo, 685714
1, 260940, Tempo, 689655
1, 260960, Tempo, 693642
1, 260960, Note_on_c, 0, 79, 0
1, 260960, Note_on_c, 0, 69, 0
1, 260960, Note_on_c, 0, 75, 49
1, 260960, Note_on_c, 0, 77, 49
1, 260980, Tempo, 697674
1, 261000, Tempo, 769231
1, 261060, Tempo, 869565
1, 261060, Note_on_c, 0, 77, 0
1, 261060, Note_on_c, 0, 75, 0
1, 261060, Note_on_c, 0, 53, 0
1, 261060, Note_on_c, 0, 62, 39
1, 261060, Note_on_c, 0, 34, 39
1, 261120, Key_signature, -2, "major"
1, 261120, Tempo, 636605
1, 261120, Note_on_c, 0, 34, 0
1, 261120, Note_on_c, 0, 62, 0
1, 261120, Note_on_c, 0, 62, 41
1, 261120, Note_on_c, 0, 70, 41
1, 261120, Note_on_c, 0, 77, 49
1, 261120, Note_on_c, 0, 46, 31
1, 261120, Note_on_c, 0, 53, 37
1, 261120, Control_c, 0, 64, 0
1, 261267, Control_c, 0, 64, 127
1, 262080, Note_on_c, 0, 53, 0
1, 262080, Note_on_c, 0, 62, 0
1, 262080, Note_on_c, 0, 77, 0
1, 262080, Note_on_c, 0, 70, 0
1, 262080, Note_on_c, 0, 65, 41
1, 262080, Note_on_c, 0, 70, 41
1, 262080, Note_on_c, 0, 74, 49
1, 262080, Note_on_c, 0, 58, 37
1, 262081, Tempo, 624415
1, 262088, Control_c, 0, 64, 0
1, 262187, Control_c, 0, 64, 127
1, 262560, Note_on_c, 0, 74, 0
1, 262560, Note_on_c, 0, 70, 0
1, 262560, Note_on_c, 0, 46, 0
1, 262560, Note_on_c, 0, 65, 0
1, 262560, Note_on_c, 0, 67, 37
1, 262560, Note_on_c, 0, 72, 37
1, 262560, Note_on_c, 0, 75, 44
1, 262560, Note_on_c, 0, 51, 39
1, 262573, Control_c, 0, 64, 0
1, 262733, Control_c, 0, 64, 127
1, 262980, Note_on_c, 0, 41, 29
1, 263040, Tempo, 639727
1, 263040, Note_on_c, 0, 51, 0
1, 263040, Note_on_c, 0, 75, 0
1, 263040, Note_on_c, 0, 72, 0
1, 263040, Note_on_c, 0, 58, 0
1, 263040, Note_on_c, 0, 67, 0
1, 263040, Note_on_c, 0, 63, 39
1, 263040, Note_on_c, 0, 74, 47
1, 263040, Note_on_c, 0, 53, 39
1, 263051, Control_c, 0, 64, 0
1, 263280, Control_c, 0, 64, 127
1, 264000, Note_on_c, 0, 74, 0
1, 264000, Note_on_c, 0, 72, 41
1, 264016, Control_c, 0, 64, 0
1, 264240, Note_on_c, 0, 53, 0
1, 264240, Note_on_c, 0, 54, 33
1, 264480, Note_on_c, 0, 54, 0
1, 264480, Note_on_c, 0, 55, 35
1, 264720, Tempo, 732601
1, 264720, Note_on_c, 0, 55, 0
1, 264720, Note_on_c, 0, 53, 33
1, 264840, Tempo, 636605
1, 264960, Tempo, 655666
1, 264960, Note_on_c, 0, 53, 0
1, 264960, Note_on_c, 0, 72, 0
1, 264960, Note_on_c, 0, 63, 0
1, 264960, Note_on_c, 0, 41, 0
1, 264960, Note_on_c, 0, 62, 41
1, 264960, Note_on_c, 0, 70, 41
1, 264960, Note_on_c, 0, 77, 49
1, 264960, Note_on_c, 0, 46, 33
1, 265107, Control_c, 0, 64, 127
1, 265440, Note_on_c, 0, 77, 0
1, 265440, Note_on_c, 0, 62, 0
1, 265440, Note_on_c, 0, 70, 0
1, 265440, Note_on_c, 0, 70, 41
1, 265440, Note_on_c, 0, 65, 41
1, 265440, Note_on_c, 0, 74, 49
1, 265920, Note_on_c, 0, 74, 0
1, 265920, Note_on_c, 0, 46, 0
1, 265920, Note_on_c, 0, 70, 0
1, 265920, Note_on_c, 0, 65, 0
1, 265920, Note_on_c, 0, 67, 41
1, 265920, Note_on_c, 0, 70, 41
1, 265920, Note_on_c, 0, 75, 49
1, 265920, Note_on_c, 0, 58, 39
1, 265921, Tempo, 624415
1, 265931, Control_c, 0, 64, 0
1, 266027, Control_c, 0, 64, 127
1, 266160, Tempo, 645995
1, 266160, Note_on_c, 0, 75, 0
1, 266160, Note_on_c, 0, 67, 0
1, 266160, Note_on_c, 0, 65, 39
1, 266160, Note_on_c, 0, 74, 47
1, 266400, Tempo, 624415
1, 266400, Note_on_c, 0, 74, 0
1, 266400, Note_on_c, 0, 58, 0
1, 266400, Note_on_c, 0, 70, 0
1, 266400, Note_on_c, 0, 65, 0
1, 266400, Note_on_c, 0, 71, 37
1, 266400, Note_on_c, 0, 68, 37
1, 266400, Note_on_c, 0, 77, 44
1, 266400, Note_on_c, 0, 51, 39
1, 266418, Control_c, 0, 64, 0
1, 266573, Control_c, 0, 64, 127
1, 266640, Tempo, 639727
1, 266640, Note_on_c, 0, 77, 0
1, 266640, Note_on_c, 0, 71, 0
1, 266640, Note_on_c, 0, 68, 0
1, 266640, Note_on_c, 0, 72, 35
1, 266640, Note_on_c, 0, 67, 35
1, 266640, Note_on_c, 0, 75, 41
1, 266880, Tempo, 639727
1, 266880, Note_on_c, 0, 75, 0
1, 266880, Note_on_c, 0, 51, 0
1, 266880, Note_on_c, 0, 72, 0
1, 266880, Note_on_c, 0, 67, 0
1, 266880, Note_on_c, 0, 63, 31
1, 266880, Note_on_c, 0, 69, 36
1, 266880, Note_on_c, 0, 74, 45
1, 266880, Note_on_c, 0, 53, 29
1, 266891, Control_c, 0, 64, 0
1, 267120, Note_on_c, 0, 53, 0
1, 267120, Note_on_c, 0, 54, 37
1, 267360, Note_on_c, 0, 54, 0
1, 267360, Note_on_c, 0, 57, 35
1, 267520, Note_on_c, 0, 57, 0
1, 267520, Note_on_c, 0, 55, 34
1, 267680, Note_on_c, 0, 55, 0
1, 267680, Note_on_c, 0, 53, 34
1, 267840, Tempo, 627418
1, 267840, Note_on_c, 0, 53, 0
1, 267840, Note_on_c, 0, 74, 0
1, 267840, Note_on_c, 0, 72, 41
1, 267840, Note_on_c, 0, 41, 29
1, 268080, Note_on_c, 0, 41, 0
1, 268080, Note_on_c, 0, 42, 37
1, 268320, Tempo, 639727
1, 268320, Note_on_c, 0, 42, 0
1, 268320, Note_on_c, 0, 45, 35
1, 268480, Note_on_c, 0, 45, 0
1, 268480, Note_on_c, 0, 43, 34
1, 268640, Note_on_c, 0, 43, 0
1, 268640, Note_on_c, 0, 41, 34
1, 268800, Note_on_c, 0, 41, 0
1, 268800, Note_on_c, 0, 63, 0
1, 268800, Note_on_c, 0, 69, 0
1, 268800, Note_on_c, 0, 72, 0
1, 268800, Note_on_c, 0, 70, 40
1, 268800, Note_on_c, 0, 62, 42
1, 268800, Note_on_c, 0, 77, 53
1, 268800, Note_on_c, 0, 34, 39
1, 268880, Control_c, 0, 64, 127
1, 269040, Note_on_c, 0, 34, 0
1, 269280, Note_on_c, 0, 70, 0
1, 269280, Note_on_c, 0, 62, 0
1, 269280, Note_on_c, 0, 77, 0
1, 269280, Note_on_c, 0, 67, 37
1, 269280, Note_on_c, 0, 70, 40
1, 269280, Note_on_c, 0, 79, 51
1, 269280, Note_on_c, 0, 61, 36
1, 269280, Note_on_c, 0, 64, 44
1, 269290, Control_c, 0, 64, 0
1, 269453, Control_c, 0, 64, 127
1, 269760, Note_on_c, 0, 64, 0
1, 269760, Note_on_c, 0, 79, 0
1, 269760, Note_on_c, 0, 67, 0
1, 269760, Note_on_c, 0, 70, 0
1, 269760, Note_on_c, 0, 61, 0
1, 269760, Note_on_c, 0, 69, 44
1, 269760, Note_on_c, 0, 75, 44
1, 269760, Note_on_c, 0, 81, 52
1, 269760, Note_on_c, 0, 60, 37
1, 269760, Note_on_c, 0, 53, 37
1, 269760, Note_on_c, 0, 63, 44
1, 269761, Tempo, 624415
1, 269776, Control_c, 0, 64, 0
1, 269915, Control_c, 0, 64, 127
1, 270240, Note_on_c, 0, 63, 0
1, 270240, Note_on_c, 0, 69, 0
1, 270240, Note_on_c, 0, 81, 0
1, 270240, Note_on_c, 0, 70, 51
1, 270240, Note_on_c, 0, 82, 58
1, 270240, Note_on_c, 0, 67, 44
1, 270256, Control_c, 0, 64, 0
1, 270360, Control_c, 0, 64, 127
1, 270600, Note_on_c, 0, 67, 0
1, 270600, Note_on_c, 0, 70, 0
1, 270600, Note_on_c, 0, 82, 0
1, 270600, Note_on_c, 0, 72, 53
1, 270600, Note_on_c, 0, 81, 53
1, 270600, Note_on_c, 0, 84, 60
1, 270600, Note_on_c, 0, 65, 40
1, 270660, Note_on_c, 0, 65, 0
1, 270660, Note_on_c, 0, 46, 39
1, 270690, Note_on_c, 0, 53, 39
1, 270720, Note_on_c, 0, 81, 0
1, 270720, Note_on_c, 0, 72, 0
1, 270720, Note_on_c, 0, 60, 0
1, 270720, Note_on_c, 0, 75, 0
1, 270720, Note_on_c, 0, 53, 0
1, 270720, Note_on_c, 0, 84, 0
1, 270720, Note_on_c, 0, 74, 48
1, 270720, Note_on_c, 0, 82, 51
1, 270720, Note_on_c, 0, 86, 61
1, 270720, Note_on_c, 0, 65, 46
1, 270730, Control_c, 0, 64, 0
1, 270813, Control_c, 0, 64, 127
1, 271200, Tempo, 655666
1, 271200, Note_on_c, 0, 65, 0
1, 271200, Note_on_c, 0, 53, 0
1, 271200, Note_on_c, 0, 74, 0
1, 271200, Note_on_c, 0, 46, 0
1, 271200, Note_on_c, 0, 86, 0
1, 271200, Note_on_c, 0, 82, 0
1, 271200, Note_on_c, 0, 67, 44
1, 271200, Note_on_c, 0, 70, 44
1, 271200, Note_on_c, 0, 73, 44
1, 271200, Note_on_c, 0, 79, 51
1, 271200, Note_on_c, 0, 64, 44
1, 271211, Control_c, 0, 64, 0
1, 271373, Control_c, 0, 64, 127
1, 271680, Note_on_c, 0, 64, 0
1, 271680, Note_on_c, 0, 73, 0
1, 271680, Note_on_c, 0, 67, 0
1, 271680, Note_on_c, 0, 70, 0
1, 271680, Note_on_c, 0, 79, 0
1, 271680, Note_on_c, 0, 69, 44
1, 271680, Note_on_c, 0, 72, 44
1, 271680, Note_on_c, 0, 81, 52
1, 271680, Note_on_c, 0, 63, 37
1, 271680, Note_on_c, 0, 60, 37
1, 271680, Note_on_c, 0, 53, 37
1, 271680, Note_on_c, 0, 65, 44
1, 271681, Tempo, 624415
1, 271694, Control_c, 0, 64, 0
1, 271754, Control_c, 0, 64, 127
1, 272100, Note_on_c, 0, 81, 0
1, 272100, Note_on_c, 0, 69, 0
1, 272100, Note_on_c, 0, 67, 56
1, 272130, Note_on_c, 0, 72, 56
1, 272160, Note_on_c, 0, 53, 0
1, 272160, Note_on_c, 0, 60, 0
1, 272160, Note_on_c, 0, 72, 0
1, 272160, Note_on_c, 0, 63, 0
1, 272160, Note_on_c, 0, 65, 0
1, 272160, Note_on_c, 0, 82, 58
1, 272160, Note_on_c, 0, 51, 37
1, 272160, Note_on_c, 0, 55, 37
1, 272160, Note_on_c, 0, 60, 37
1, 272160, Note_on_c, 0, 63, 37
1, 272177, Control_c, 0, 64, 0
1, 272308, Control_c, 0, 64, 127
1, 272400, Tempo, 636605
1, 272520, Note_on_c, 0, 82, 0
1, 272520, Note_on_c, 0, 84, 60
1, 272640, Tempo, 644261
1, 272640, Note_on_c, 0, 84, 0
1, 272640, Note_on_c, 0, 63, 0
1, 272640, Note_on_c, 0, 72, 0
1, 272640, Note_on_c, 0, 51, 0
1, 272640, Note_on_c, 0, 67, 0
1, 272640, Note_on_c, 0, 60, 0
1, 272640, Note_on_c, 0, 55, 0
1, 272640, Note_on_c, 0, 74, 53
1, 272640, Note_on_c, 0, 81, 53
1, 272640, Note_on_c, 0, 86, 63
1, 272640, Note_on_c, 0, 60, 41
1, 272640, Note_on_c, 0, 57, 41
1, 272640, Note_on_c, 0, 50, 41
1, 272640, Note_on_c, 0, 66, 49
1, 272648, Control_c, 0, 64, 0
1, 272800, Control_c, 0, 64, 127
1, 273120, Note_on_c, 0, 66, 0
1, 273120, Note_on_c, 0, 57, 0
1, 273120, Note_on_c, 0, 81, 0
1, 273120, Note_on_c, 0, 86, 0
1, 273120, Note_on_c, 0, 74, 0
1, 273120, Note_on_c, 0, 50, 0
1, 273120, Note_on_c, 0, 60, 0
1, 273120, Note_on_c, 0, 72, 50
1, 273120, Note_on_c, 0, 81, 53
1, 273120, Note_on_c, 0, 74, 53
1, 273120, Note_on_c, 0, 84, 60
1, 273120, Note_on_c, 0, 30, 36
1, 273120, Note_on_c, 0, 42, 42
1, 273137, Control_c, 0, 64, 0
1, 273267, Control_c, 0, 64, 127
1, 273600, Note_on_c, 0, 42, 0
1, 273600, Note_on_c, 0, 81, 0
1, 273600, Note_on_c, 0, 74, 0
1, 273600, Note_on_c, 0, 72, 0
1, 273600, Note_on_c, 0, 30, 0
1, 273600, Note_on_c, 0, 84, 0
1, 273600, Note_on_c, 0, 74, 53
1, 273600, Note_on_c, 0, 70, 53
1, 273600, Note_on_c, 0, 79, 63
1, 273600, Note_on_c, 0, 82, 63
1, 273600, Note_on_c, 0, 31, 41
1, 273600, Note_on_c, 0, 43, 49
1, 273611, Control_c, 0, 64, 0
1, 273692, Control_c, 0, 64, 127
1, 274080, Tempo, 624415
1, 274080, Note_on_c, 0, 43, 0
1, 274080, Note_on_c, 0, 70, 0
1, 274080, Note_on_c, 0, 79, 0
1, 274080, Note_on_c, 0, 74, 0
1, 274080, Note_on_c, 0, 31, 0
1, 274080, Note_on_c, 0, 82, 0
1, 274080, Note_on_c, 0, 73, 53
1, 274080, Note_on_c, 0, 77, 53
1, 274080, Note_on_c, 0, 81, 63
1, 274080, Note_on_c, 0, 33, 41
1, 274080, Note_on_c, 0, 45, 49
1, 274097, Control_c, 0, 64, 0
1, 274193, Control_c, 0, 64, 127
1, 274440, Note_on_c, 0, 45, 0
1, 274440, Note_on_c, 0, 81, 0
1, 274440, Note_on_c, 0, 73, 0
1, 274440, Note_on_c, 0, 77, 0
1, 274440, Note_on_c, 0, 33, 0
1, 274440, Note_on_c, 0, 67, 54
1, 274440, Note_on_c, 0, 74, 57
1, 274440, Note_on_c, 0, 79, 57
1, 274440, Note_on_c, 0, 34, 37
1, 274440, Note_on_c, 0, 46, 45
1, 274560, Tempo, 639727
1, 274560, Note_on_c, 0, 46, 0
1, 274560, Note_on_c, 0, 79, 0
1, 274560, Note_on_c, 0, 67, 0
1, 274560, Note_on_c, 0, 74, 0
1, 274560, Note_on_c, 0, 34, 0
1, 274560, Note_on_c, 0, 65, 51
1, 274560, Note_on_c, 0, 67, 51
1, 274560, Note_on_c, 0, 74, 56
1, 274560, Note_on_c, 0, 77, 61
1, 274560, Note_on_c, 0, 35, 41
1, 274560, Note_on_c, 0, 47, 49
1, 274568, Control_c, 0, 64, 0
1, 274694, Control_c, 0, 64, 127
1, 275040, Tempo, 624415
1, 275040, Note_on_c, 0, 47, 0
1, 275040, Note_on_c, 0, 67, 0
1, 275040, Note_on_c, 0, 74, 0
1, 275040, Note_on_c, 0, 65, 0
1, 275040, Note_on_c, 0, 35, 0
1, 275040, Note_on_c, 0, 77, 0
1, 275040, Note_on_c, 0, 63, 49
1, 275040, Note_on_c, 0, 67, 49
1, 275040, Note_on_c, 0, 72, 59
1, 275040, Note_on_c, 0, 75, 59
1, 275040, Note_on_c, 0, 36, 41
1, 275040, Note_on_c, 0, 48, 49
1, 275048, Control_c, 0, 64, 0
1, 275125, Control_c, 0, 64, 127
1, 275400, Note_on_c, 0, 48, 0
1, 275400, Note_on_c, 0, 67, 0
1, 275400, Note_on_c, 0, 72, 0
1, 275400, Note_on_c, 0, 63, 0
1, 275400, Note_on_c, 0, 36, 0
1, 275400, Note_on_c, 0, 75, 0
1, 275400, Note_on_c, 0, 66, 47
1, 275400, Note_on_c, 0, 70, 56
1, 275400, Note_on_c, 0, 74, 56
1, 275400, Note_on_c, 0, 38, 37
1, 275400, Note_on_c, 0, 50, 45
1, 275520, Note_on_c, 0, 50, 0
1, 275520, Note_on_c, 0, 74, 0
1, 275520, Note_on_c, 0, 66, 0
1, 275520, Note_on_c, 0, 70, 0
1, 275520, Note_on_c, 0, 38, 0
1, 275520, Note_on_c, 0, 60, 52
1, 275520, Note_on_c, 0, 72, 59
1, 275520, Note_on_c, 0, 67, 49
1, 275520, Note_on_c, 0, 70, 59
1, 275520, Note_on_c, 0, 39, 41
1, 275520, Note_on_c, 0, 51, 49
1, 275529, Control_c, 0, 64, 0
1, 275680, Control_c, 0, 64, 127
1, 276000, Tempo, 665631
1, 276000, Note_on_c, 0, 51, 0
1, 276000, Note_on_c, 0, 70, 0
1, 276000, Note_on_c, 0, 67, 0
1, 276000, Note_on_c, 0, 39, 0
1, 276000, Note_on_c, 0, 65, 45
1, 276000, Note_on_c, 0, 69, 49
1, 276000, Note_on_c, 0, 41, 41
1, 276000, Note_on_c, 0, 53, 46
1, 276015, Control_c, 0, 64, 0
1, 276240, Tempo, 701262
1, 276240, Note_on_c, 0, 69, 0
1, 276240, Note_on_c, 0, 65, 0
1, 276240, Note_on_c, 0, 63, 43
1, 276240, Note_on_c, 0, 67, 50
1, 276240, Control_c, 0, 64, 127
1, 276480, Tempo, 639727
1, 276480, Note_on_c, 0, 67, 0
1, 276480, Note_on_c, 0, 53, 0
1, 276480, Note_on_c, 0, 60, 0
1, 276480, Note_on_c, 0, 72, 0
1, 276480, Note_on_c, 0, 63, 0
1, 276480, Note_on_c, 0, 41, 0
1, 276480, Note_on_c, 0, 62, 45
1, 276480, Note_on_c, 0, 70, 49
1, 276480, Note_on_c, 0, 77, 64
1, 276480, Note_on_c, 0, 34, 39
1, 276492, Control_c, 0, 64, 0
1, 276577, Control_c, 0, 64, 127
1, 276640, Note_on_c, 0, 34, 0
1, 276640, Note_on_c, 0, 52, 33
1, 276800, Note_on_c, 0, 52, 0
1, 276800, Note_on_c, 0, 53, 31
1, 276960, Note_on_c, 0, 53, 0
1, 276960, Note_on_c, 0, 55, 37
1, 277120, Note_on_c, 0, 55, 0
1, 277120, Note_on_c, 0, 53, 31
1, 277280, Note_on_c, 0, 53, 0
1, 277280, Note_on_c, 0, 41, 31
1, 277440, Tempo, 624415
1, 277440, Note_on_c, 0, 41, 0
1, 277440, Note_on_c, 0, 77, 0
1, 277440, Note_on_c, 0, 70, 0
1, 277440, Note_on_c, 0, 62, 0
1, 277440, Note_on_c, 0, 65, 49
1, 277440, Note_on_c, 0, 70, 49
1, 277440, Note_on_c, 0, 74, 60
1, 277440, Note_on_c, 0, 46, 39
1, 277451, Control_c, 0, 64, 0
1, 277515, Control_c, 0, 64, 127
1, 277600, Note_on_c, 0, 46, 0
1, 277600, Note_on_c, 0, 52, 35
1, 277760, Note_on_c, 0, 52, 0
1, 277760, Note_on_c, 0, 53, 35
1, 277920, Tempo, 639727
1, 277920, Note_on_c, 0, 53, 0
1, 277920, Note_on_c, 0, 65, 0
1, 277920, Note_on_c, 0, 70, 0
1, 277920, Note_on_c, 0, 74, 0
1, 277920, Note_on_c, 0, 62, 34
1, 277920, Note_on_c, 0, 65, 39
1, 277920, Note_on_c, 0, 55, 37
1, 278080, Note_on_c, 0, 55, 0
1, 278080, Note_on_c, 0, 53, 33
1, 278160, Tempo, 665631
1, 278160, Note_on_c, 0, 65, 0
1, 278160, Note_on_c, 0, 62, 0
1, 278160, Note_on_c, 0, 67, 41
1, 278160, Note_on_c, 0, 72, 41
1, 278160, Note_on_c, 0, 75, 55
1, 278240, Note_on_c, 0, 53, 0
1, 278240, Note_on_c, 0, 41, 33
1, 278400, Tempo, 627418
1, 278400, Note_on_c, 0, 41, 0
1, 278400, Note_on_c, 0, 75, 0
1, 278400, Note_on_c, 0, 72, 0
1, 278400, Note_on_c, 0, 67, 0
1, 278400, Note_on_c, 0, 74, 68
1, 278400, Note_on_c, 0, 63, 35
1, 278400, Note_on_c, 0, 69, 42
1, 278400, Note_on_c, 0, 48, 39
1, 278411, Control_c, 0, 64, 0
1, 278480, Control_c, 0, 64, 127
1, 278560, Note_on_c, 0, 48, 0
1, 278560, Note_on_c, 0, 52, 35
1, 278720, Note_on_c, 0, 52, 0
1, 278720, Note_on_c, 0, 53, 35
1, 278880, Tempo, 639727
1, 278880, Note_on_c, 0, 53, 0
1, 278880, Note_on_c, 0, 55, 37
1, 279040, Note_on_c, 0, 55, 0
1, 279040, Note_on_c, 0, 53, 33
1, 279120, Note_on_c, 0, 74, 0
1, 279120, Note_on_c, 0, 72, 55
1, 279200, Note_on_c, 0, 53, 0
1, 279200, Note_on_c, 0, 41, 33
1, 279360, Tempo, 624415
1, 279360, Note_on_c, 0, 41, 0
1, 279360, Note_on_c, 0, 72, 0
1, 279360, Note_on_c, 0, 69, 0
1, 279360, Note_on_c, 0, 63, 0
1, 279360, Note_on_c, 0, 67, 58
1, 279360, Note_on_c, 0, 51, 39
1, 279370, Control_c, 0, 64, 0
1, 279417, Control_c, 0, 64, 127
1, 279520, Note_on_c, 0, 51, 0
1, 279520, Note_on_c, 0, 52, 35
1, 279600, Note_on_c, 0, 67, 0
1, 279600, Note_on_c, 0, 65, 52
1, 279680, Note_on_c, 0, 52, 0
1, 279680, Note_on_c, 0, 53, 35
1, 279840, Tempo, 642811
1, 279840, Note_on_c, 0, 53, 0
1, 279840, Note_on_c, 0, 65, 0
1, 279840, Note_on_c, 0, 58, 61
1, 279840, Note_on_c, 0, 55, 37
1, 280000, Note_on_c, 0, 55, 0
1, 280000, Note_on_c, 0, 53, 33
1, 280080, Tempo, 649210
1, 280080, Note_on_c, 0, 58, 0
1, 280080, Note_on_c, 0, 60, 55
1, 280120, Tempo, 666149
1, 280160, Note_on_c, 0, 53, 0
1, 280160, Note_on_c, 0, 41, 33
1, 280320, Tempo, 639727
1, 280320, Note_on_c, 0, 41, 0
1, 280320, Note_on_c, 0, 60, 0
1, 280320, Note_on_c, 0, 62, 55
1, 280320, Note_on_c, 0, 70, 54
1, 280320, Note_on_c, 0, 77, 68
1, 280320, Note_on_c, 0, 34, 39
1, 280332, Control_c, 0, 64, 0
1, 280417, Control_c, 0, 64, 127
1, 280560, Note_on_c, 0, 34, 0
1, 280560, Note_on_c, 0, 52, 34
1, 280680, Note_on_c, 0, 52, 0
1, 280680, Note_on_c, 0, 53, 33
1, 280800, Note_on_c, 0, 53, 0
1, 280800, Note_on_c, 0, 77, 0
1, 280800, Note_on_c, 0, 62, 0
1, 280800, Note_on_c, 0, 65, 49
1, 280800, Note_on_c, 0, 74, 62
1, 280800, Note_on_c, 0, 55, 37
1, 280920, Note_on_c, 0, 55, 0
1, 280920, Note_on_c, 0, 53, 31
1, 281028, Note_on_c, 0, 53, 0
1, 281040, Note_on_c, 0, 53, 37
1, 281160, Note_on_c, 0, 53, 0
1, 281160, Note_on_c, 0, 41, 37
1, 281280, Tempo, 624415
1, 281280, Note_on_c, 0, 41, 0
1, 281280, Note_on_c, 0, 74, 0
1, 281280, Note_on_c, 0, 65, 0
1, 281280, Note_on_c, 0, 70, 0
1, 281280, Note_on_c, 0, 70, 57
1, 281280, Note_on_c, 0, 67, 55
1, 281280, Note_on_c, 0, 75, 66
1, 281280, Note_on_c, 0, 46, 39
1, 281290, Control_c, 0, 64, 0
1, 281383, Control_c, 0, 64, 127
1, 281520, Note_on_c, 0, 46, 0
1, 281520, Note_on_c, 0, 75, 0
1, 281520, Note_on_c, 0, 67, 0
1, 281520, Note_on_c, 0, 65, 46
1, 281520, Note_on_c, 0, 74, 55
1, 281520, Note_on_c, 0, 52, 35
1, 281640, Note_on_c, 0, 52, 0
1, 281640, Note_on_c, 0, 53, 35
1, 281760, Tempo, 639727
1, 281760, Note_on_c, 0, 53, 0
1, 281760, Note_on_c, 0, 74, 0
1, 281760, Note_on_c, 0, 65, 0
1, 281760, Note_on_c, 0, 65, 48
1, 281760, Note_on_c, 0, 74, 57
1, 281760, Note_on_c, 0, 55, 37
1, 281880, Note_on_c, 0, 55, 0
1, 281880, Note_on_c, 0, 53, 33
1, 281920, Note_on_c, 0, 74, 0
1, 281920, Note_on_c, 0, 65, 0
1, 281920, Note_on_c, 0, 69, 46
1, 281920, Note_on_c, 0, 77, 55
1, 281988, Note_on_c, 0, 53, 0
1, 282000, Note_on_c, 0, 53, 37
1, 282080, Note_on_c, 0, 77, 0
1, 282080, Note_on_c, 0, 69, 0
1, 282080, Note_on_c, 0, 67, 46
1, 282080, Note_on_c, 0, 75, 55
1, 282120, Note_on_c, 0, 53, 0
1, 282120, Note_on_c, 0, 41, 31
1, 282240, Tempo, 627418
1, 282240, Note_on_c, 0, 41, 0
1, 282240, Note_on_c, 0, 75, 0
1, 282240, Note_on_c, 0, 67, 0
1, 282240, Note_on_c, 0, 70, 0
1, 282240, Note_on_c, 0, 74, 64
1, 282240, Note_on_c, 0, 63, 42
1, 282240, Note_on_c, 0, 69, 41
1, 282240, Note_on_c, 0, 29, 39
1, 282249, Control_c, 0, 64, 0
1, 282332, Control_c, 0, 64, 127
1, 282480, Note_on_c, 0, 29, 0
1, 282480, Note_on_c, 0, 52, 35
1, 282600, Note_on_c, 0, 52, 0
1, 282600, Note_on_c, 0, 53, 35
1, 282720, Tempo, 639727
1, 282720, Note_on_c, 0, 53, 0
1, 282720, Note_on_c, 0, 55, 37
1, 282840, Note_on_c, 0, 55, 0
1, 282840, Note_on_c, 0, 53, 33
1, 282948, Note_on_c, 0, 53, 0
1, 282960, Note_on_c, 0, 74, 0
1, 282960, Note_on_c, 0, 72, 58
1, 282960, Note_on_c, 0, 53, 37
1, 283080, Note_on_c, 0, 53, 0
1, 283080, Note_on_c, 0, 41, 33
1, 283200, Tempo, 624415
1, 283200, Note_on_c, 0, 41, 0
1, 283200, Note_on_c, 0, 72, 0
1, 283200, Note_on_c, 0, 69, 0
1, 283200, Note_on_c, 0, 63, 0
1, 283200, Note_on_c, 0, 67, 60
1, 283200, Note_on_c, 0, 51, 39
1, 283213, Control_c, 0, 64, 0
1, 283257, Control_c, 0, 64, 127
1, 283360, Note_on_c, 0, 67, 0
1, 283360, Note_on_c, 0, 65, 51
1, 283440, Note_on_c, 0, 51, 0
1, 283440, Note_on_c, 0, 52, 35
1, 283520, Note_on_c, 0, 65, 0
1, 283520, Note_on_c, 0, 67, 51
1, 283560, Note_on_c, 0, 52, 0
1, 283560, Note_on_c, 0, 53, 35
1, 283680, Tempo, 642811
1, 283680, Note_on_c, 0, 53, 0
1, 283680, Note_on_c, 0, 67, 0
1, 283680, Note_on_c, 0, 65, 58
1, 283680, Note_on_c, 0, 55, 39
1, 283800, Note_on_c, 0, 55, 0
1, 283800, Note_on_c, 0, 53, 35
1, 283840, Note_on_c, 0, 65, 0
1, 283840, Note_on_c, 0, 58, 53
1, 283908, Note_on_c, 0, 53, 0
1, 283920, Tempo, 683060
1, 283920, Note_on_c, 0, 53, 39
1, 284000, Note_on_c, 0, 58, 0
1, 284000, Note_on_c, 0, 60, 53
1, 284040, Note_on_c, 0, 53, 0
1, 284040, Note_on_c, 0, 41, 35
1, 284100, Note_on_c, 0, 60, 0
1, 284100, Note_on_c, 0, 62, 51
1, 284130, Note_on_c, 0, 70, 61
1, 284160, Tempo, 642811
1, 284160, Note_on_c, 0, 41, 0
1, 284160, Note_on_c, 0, 77, 73
1, 284160, Note_on_c, 0, 46, 44
1, 284169, Control_c, 0, 64, 0
1, 284238, Control_c, 0, 64, 127
1, 284280, Note_on_c, 0, 46, 0
1, 284280, Note_on_c, 0, 53, 39
1, 284400, Note_on_c, 0, 53, 0
1, 284400, Note_on_c, 0, 55, 39
1, 284520, Note_on_c, 0, 55, 0
1, 284520, Note_on_c, 0, 53, 39
1, 284640, Tempo, 633513
1, 284640, Note_on_c, 0, 53, 0
1, 284640, Note_on_c, 0, 77, 0
1, 284640, Note_on_c, 0, 62, 0
1, 284640, Note_on_c, 0, 67, 57
1, 284640, Note_on_c, 0, 79, 68
1, 284640, Note_on_c, 0, 62, 44
1, 284760, Note_on_c, 0, 62, 0
1, 284760, Note_on_c, 0, 53, 40
1, 284880, Note_on_c, 0, 53, 0
1, 284880, Note_on_c, 0, 55, 40
1, 285000, Note_on_c, 0, 55, 0
1, 285000, Note_on_c, 0, 53, 41
1, 285120, Note_on_c, 0, 53, 0
1, 285120, Note_on_c, 0, 79, 0
1, 285120, Note_on_c, 0, 67, 0
1, 285120, Note_on_c, 0, 70, 0
1, 285120, Note_on_c, 0, 77, 61
1, 285120, Note_on_c, 0, 77, 56
1, 285120, Note_on_c, 0, 75, 56
1, 285120, Note_on_c, 0, 69, 57
1, 285120, Note_on_c, 0, 81, 73
1, 285120, Note_on_c, 0, 41, 45
1, 285133, Control_c, 0, 64, 0
1, 285189, Control_c, 0, 64, 127
1, 285240, Note_on_c, 0, 41, 0
1, 285240, Note_on_c, 0, 53, 40
1, 285360, Note_on_c, 0, 53, 0
1, 285360, Note_on_c, 0, 55, 41
1, 285480, Note_on_c, 0, 55, 0
1, 285480, Note_on_c, 0, 53, 41
1, 285600, Tempo, 624415
1, 285600, Note_on_c, 0, 53, 0
1, 285600, Note_on_c, 0, 81, 0
1, 285600, Note_on_c, 0, 69, 0
1, 285600, Note_on_c, 0, 70, 72
1, 285600, Note_on_c, 0, 82, 75
1, 285600, Note_on_c, 0, 63, 47
1, 285720, Note_on_c, 0, 63, 0
1, 285720, Note_on_c, 0, 53, 44
1, 285840, Note_on_c, 0, 53, 0
1, 285840, Note_on_c, 0, 55, 44
1, 285960, Tempo, 645995
1, 285960, Note_on_c, 0, 55, 0
1, 285960, Note_on_c, 0, 70, 0
1, 285960, Note_on_c, 0, 82, 0
1, 285960, Note_on_c, 0, 72, 70
1, 285960, Note_on_c, 0, 84, 73
1, 285960, Note_on_c, 0, 53, 44
1, 286080, Tempo, 633513
1, 286080, Note_on_c, 0, 53, 0
1, 286080, Note_on_c, 0, 77, 0
1, 286080, Note_on_c, 0, 77, 0
1, 286080, Note_on_c, 0, 75, 0
1, 286080, Note_on_c, 0, 84, 0
1, 286080, Note_on_c, 0, 72, 0
1, 286080, Note_on_c, 0, 77, 68
1, 286080, Note_on_c, 0, 74, 66
1, 286080, Note_on_c, 0, 86, 80
1, 286080, Note_on_c, 0, 46, 48
1, 286097, Control_c, 0, 64, 0
1, 286200, Note_on_c, 0, 46, 0
1, 286200, Note_on_c, 0, 53, 42
1, 286207, Control_c, 0, 64, 127
1, 286320, Note_on_c, 0, 53, 0
1, 286320, Note_on_c, 0, 55, 42
1, 286440, Note_on_c, 0, 55, 0
1, 286440, Note_on_c, 0, 53, 42
1, 286560, Note_on_c, 0, 53, 0
1, 286560, Note_on_c, 0, 86, 0
1, 286560, Note_on_c, 0, 77, 0
1, 286560, Note_on_c, 0, 79, 73
1, 286560, Note_on_c, 0, 67, 61
1, 286560, Note_on_c, 0, 62, 49
1, 286680, Note_on_c, 0, 62, 0
1, 286680, Note_on_c, 0, 53, 46
1, 286800, Note_on_c, 0, 53, 0
1, 286800, Note_on_c, 0, 55, 46
1, 286920, Note_on_c, 0, 55, 0
1, 286920, Note_on_c, 0, 53, 46
1, 287040, Note_on_c, 0, 53, 0
1, 287040, Note_on_c, 0, 67, 0
1, 287040, Note_on_c, 0, 79, 0
1, 287040, Note_on_c, 0, 74, 0
1, 287040, Note_on_c, 0, 69, 66
1, 287040, Note_on_c, 0, 81, 78
1, 287040, Note_on_c, 0, 77, 66
1, 287040, Note_on_c, 0, 75, 66
1, 287040, Note_on_c, 0, 41, 50
1, 287048, Control_c, 0, 64, 0
1, 287108, Control_c, 0, 64, 127
1, 287160, Note_on_c, 0, 41, 0
1, 287160, Note_on_c, 0, 53, 46
1, 287280, Note_on_c, 0, 53, 0
1, 287280, Note_on_c, 0, 55, 46
1, 287400, Note_on_c, 0, 55, 0
1, 287400, Note_on_c, 0, 53, 46
1, 287520, Note_on_c, 0, 53, 0
1, 287520, Note_on_c, 0, 81, 0
1, 287520, Note_on_c, 0, 69, 0
1, 287520, Note_on_c, 0, 82, 81
1, 287520, Note_on_c, 0, 70, 68
1, 287520, Note_on_c, 0, 63, 52
1, 287640, Note_on_c, 0, 63, 0
1, 287640, Note_on_c, 0, 53, 49
1, 287760, Tempo, 649210
1, 287760, Note_on_c, 0, 53, 0
1, 287760, Note_on_c, 0, 55, 49
1, 287880, Note_on_c, 0, 55, 0
1, 287880, Note_on_c, 0, 82, 0
1, 287880, Note_on_c, 0, 70, 0
1, 287880, Note_on_c, 0, 72, 64
1, 287880, Note_on_c, 0, 84, 77
1, 287880, Note_on_c, 0, 53, 49
1, 288000, Note_on_c, 0, 53, 0
1, 288000, Note_on_c, 0, 72, 0
1, 288000, Note_on_c, 0, 75, 0
1, 288000, Note_on_c, 0, 77, 0
1, 288000, Note_on_c, 0, 84, 0
1, 288000, Note_on_c, 0, 81, 66
1, 288000, Note_on_c, 0, 84, 74
1, 288000, Note_on_c, 0, 74, 73
1, 288000, Note_on_c, 0, 86, 88
1, 288000, Note_on_c, 0, 42, 57
1, 288017, Control_c, 0, 64, 0
1, 288103, Control_c, 0, 64, 127
1, 288120, Note_on_c, 0, 42, 0
1, 288120, Note_on_c, 0, 49, 51
1, 288240, Note_on_c, 0, 49, 0
1, 288240, Note_on_c, 0, 50, 51
1, 288360, Note_on_c, 0, 50, 0
1, 288360, Note_on_c, 0, 57, 51
1, 288480, Tempo, 636605
1, 288480, Note_on_c, 0, 57, 0
1, 288480, Note_on_c, 0, 86, 0
1, 288480, Note_on_c, 0, 74, 0
1, 288480, Note_on_c, 0, 75, 78
1, 288480, Note_on_c, 0, 87, 91
1, 288480, Note_on_c, 0, 54, 58
1, 288600, Note_on_c, 0, 54, 0
1, 288600, Note_on_c, 0, 61, 53
1, 288720, Note_on_c, 0, 61, 0
1, 288720, Note_on_c, 0, 62, 53
1, 288840, Note_on_c, 0, 62, 0
1, 288840, Note_on_c, 0, 69, 53
1, 288960, Tempo, 627418
1, 288960, Note_on_c, 0, 69, 0
1, 288960, Note_on_c, 0, 84, 0
1, 288960, Note_on_c, 0, 81, 0
1, 288960, Note_on_c, 0, 79, 74
1, 288960, Note_on_c, 0, 82, 74
1, 288960, Note_on_c, 0, 43, 59
1, 288976, Control_c, 0, 64, 0
1, 289034, Control_c, 0, 64, 127
1, 289080, Note_on_c, 0, 43, 0
1, 289080, Note_on_c, 0, 49, 52
1, 289200, Tempo, 645995
1, 289200, Note_on_c, 0, 49, 0
1, 289200, Note_on_c, 0, 75, 0
1, 289200, Note_on_c, 0, 87, 0
1, 289200, Note_on_c, 0, 74, 67
1, 289200, Note_on_c, 0, 86, 80
1, 289200, Note_on_c, 0, 50, 52
1, 289320, Note_on_c, 0, 50, 0
1, 289320, Note_on_c, 0, 58, 53
1, 289440, Note_on_c, 0, 58, 0
1, 289440, Note_on_c, 0, 86, 0
1, 289440, Note_on_c, 0, 74, 0
1, 289440, Note_on_c, 0, 73, 66
1, 289440, Note_on_c, 0, 85, 79
1, 289440, Note_on_c, 0, 55, 60
1, 289560, Note_on_c, 0, 55, 0
1, 289560, Note_on_c, 0, 61, 55
1, 289680, Note_on_c, 0, 61, 0
1, 289680, Note_on_c, 0, 85, 0
1, 289680, Note_on_c, 0, 73, 0
1, 289680, Note_on_c, 0, 74, 66
1, 289680, Note_on_c, 0, 86, 79
1, 289680, Note_on_c, 0, 62, 55
1, 289800, Note_on_c, 0, 62, 0
1, 289800, Note_on_c, 0, 70, 56
1, 289920, Note_on_c, 0, 70, 0
1, 289920, Note_on_c, 0, 86, 0
1, 289920, Note_on_c, 0, 82, 0
1, 289920, Note_on_c, 0, 79, 0
1, 289920, Note_on_c, 0, 74, 0
1, 289920, Note_on_c, 0, 81, 57
1, 289920, Note_on_c, 0, 84, 57
1, 289920, Note_on_c, 0, 87, 71
1, 289920, Note_on_c, 0, 89, 90
1, 289920, Note_on_c, 0, 77, 72
1, 289920, Note_on_c, 0, 45, 61
1, 289933, Control_c, 0, 64, 0
1, 289977, Control_c, 0, 64, 127
1, 290040, Note_on_c, 0, 45, 0
1, 290040, Note_on_c, 0, 52, 55
1, 290160, Note_on_c, 0, 52, 0
1, 290160, Note_on_c, 0, 53, 55
1, 290280, Note_on_c, 0, 53, 0
1, 290280, Note_on_c, 0, 60, 55
1, 290400, Tempo, 633513
1, 290400, Note_on_c, 0, 60, 0
1, 290400, Note_on_c, 0, 77, 0
1, 290400, Note_on_c, 0, 89, 0
1, 290400, Note_on_c, 0, 79, 70
1, 290400, Note_on_c, 0, 91, 84
1, 290400, Note_on_c, 0, 57, 62
1, 290520, Note_on_c, 0, 57, 0
1, 290520, Note_on_c, 0, 64, 57
1, 290640, Note_on_c, 0, 64, 0
1, 290640, Note_on_c, 0, 65, 57
1, 290760, Note_on_c, 0, 65, 0
1, 290760, Note_on_c, 0, 72, 57
1, 290880, Tempo, 615700
1, 290880, Note_on_c, 0, 72, 0
1, 290880, Note_on_c, 0, 81, 0
1, 290880, Note_on_c, 0, 84, 0
1, 290880, Note_on_c, 0, 87, 0
1, 290880, Note_on_c, 0, 86, 85
1, 290880, Note_on_c, 0, 47, 62
1, 290890, Control_c, 0, 64, 0
1, 290937, Control_c, 0, 64, 127
1, 291000, Note_on_c, 0, 47, 0
1, 291000, Note_on_c, 0, 54, 56
1, 291120, Tempo, 633513
1, 291120, Note_on_c, 0, 54, 0
1, 291120, Note_on_c, 0, 79, 0
1, 291120, Note_on_c, 0, 91, 0
1, 291120, Note_on_c, 0, 77, 64
1, 291120, Note_on_c, 0, 89, 77
1, 291120, Note_on_c, 0, 55, 57
1, 291240, Note_on_c, 0, 55, 0
1, 291240, Note_on_c, 0, 62, 57
1, 291360, Note_on_c, 0, 62, 0
1, 291360, Note_on_c, 0, 89, 0
1, 291360, Note_on_c, 0, 77, 0
1, 291360, Note_on_c, 0, 86, 0
1, 291360, Note_on_c, 0, 75, 70
1, 291360, Note_on_c, 0, 87, 84
1, 291360, Note_on_c, 0, 79, 62
1, 291360, Note_on_c, 0, 59, 63
1, 291480, Note_on_c, 0, 59, 0
1, 291480, Note_on_c, 0, 66, 58
1, 291600, Note_on_c, 0, 66, 0
1, 291600, Note_on_c, 0, 67, 59
1, 291720, Note_on_c, 0, 67, 0
1, 291720, Note_on_c, 0, 75, 0
1, 291720, Note_on_c, 0, 87, 0
1, 291720, Note_on_c, 0, 86, 78
1, 291720, Note_on_c, 0, 74, 66
1, 291840, Tempo, 624415
1, 291840, Note_on_c, 0, 74, 0
1, 291840, Note_on_c, 0, 86, 0
1, 291840, Note_on_c, 0, 79, 0
1, 291840, Note_on_c, 0, 79, 67
1, 291840, Note_on_c, 0, 77, 74
1, 291840, Note_on_c, 0, 89, 88
1, 291840, Note_on_c, 0, 36, 59
1, 291850, Control_c, 0, 64, 0
1, 291911, Control_c, 0, 64, 127
1, 291960, Note_on_c, 0, 36, 0
1, 291960, Note_on_c, 0, 43, 52
1, 292080, Tempo, 639727
1, 292080, Note_on_c, 0, 43, 0
1, 292080, Note_on_c, 0, 89, 0
1, 292080, Note_on_c, 0, 77, 0
1, 292080, Note_on_c, 0, 75, 62
1, 292080, Note_on_c, 0, 87, 76
1, 292080, Note_on_c, 0, 48, 52
1, 292200, Note_on_c, 0, 48, 0
1, 292200, Note_on_c, 0, 55, 52
1, 292320, Tempo, 627418
1, 292320, Note_on_c, 0, 55, 0
1, 292320, Note_on_c, 0, 87, 0
1, 292320, Note_on_c, 0, 75, 0
1, 292320, Note_on_c, 0, 79, 0
1, 292320, Note_on_c, 0, 79, 59
1, 292320, Note_on_c, 0, 74, 61
1, 292320, Note_on_c, 0, 86, 73
1, 292320, Note_on_c, 0, 38, 59
1, 292331, Control_c, 0, 64, 0
1, 292417, Control_c, 0, 64, 127
1, 292440, Note_on_c, 0, 38, 0
1, 292440, Note_on_c, 0, 43, 52
1, 292560, Tempo, 642811
1, 292560, Note_on_c, 0, 43, 0
1, 292560, Note_on_c, 0, 86, 0
1, 292560, Note_on_c, 0, 74, 0
1, 292560, Note_on_c, 0, 71, 55
1, 292560, Note_on_c, 0, 83, 68
1, 292560, Note_on_c, 0, 50, 52
1, 292680, Note_on_c, 0, 50, 0
1, 292680, Note_on_c, 0, 55, 52
1, 292800, Tempo, 609880
1, 292800, Note_on_c, 0, 55, 0
1, 292800, Note_on_c, 0, 83, 0
1, 292800, Note_on_c, 0, 71, 0
1, 292800, Note_on_c, 0, 79, 0
1, 292800, Note_on_c, 0, 79, 59
1, 292800, Note_on_c, 0, 86, 79
1, 292800, Note_on_c, 0, 74, 67
1, 292800, Note_on_c, 0, 39, 62
1, 292810, Control_c, 0, 64, 0
1, 292846, Control_c, 0, 64, 127
1, 292920, Note_on_c, 0, 39, 0
1, 292920, Note_on_c, 0, 43, 52
1, 293040, Tempo, 628141
1, 293040, Note_on_c, 0, 43, 0
1, 293040, Note_on_c, 0, 74, 0
1, 293040, Note_on_c, 0, 86, 0
1, 293040, Note_on_c, 0, 84, 69
1, 293040, Note_on_c, 0, 72, 58
1, 293040, Note_on_c, 0, 48, 52
1, 293160, Note_on_c, 0, 48, 0
1, 293160, Note_on_c, 0, 55, 52
1, 293280, Tempo, 612808
1, 293280, Note_on_c, 0, 55, 0
1, 293280, Note_on_c, 0, 72, 0
1, 293280, Note_on_c, 0, 84, 0
1, 293280, Note_on_c, 0, 79, 0
1, 293280, Note_on_c, 0, 73, 57
1, 293280, Note_on_c, 0, 79, 72
1, 293280, Note_on_c, 0, 67, 61
1, 293280, Note_on_c, 0, 40, 61
1, 293291, Control_c, 0, 64, 0
1, 293343, Control_c, 0, 64, 127
1, 293400, Note_on_c, 0, 40, 0
1, 293400, Note_on_c, 0, 46, 52
1, 293520, Tempo, 618940
1, 293520, Note_on_c, 0, 46, 0
1, 293520, Note_on_c, 0, 67, 0
1, 293520, Note_on_c, 0, 79, 0
1, 293520, Note_on_c, 0, 82, 67
1, 293520, Note_on_c, 0, 70, 56
1, 293520, Note_on_c, 0, 49, 52
1, 293640, Note_on_c, 0, 49, 0
1, 293640, Note_on_c, 0, 55, 52
1, 293760, Tempo, 606919
1, 293760, Note_on_c, 0, 55, 0
1, 293760, Note_on_c, 0, 73, 0
1, 293760, Note_on_c, 0, 72, 64
1, 293760, Note_on_c, 0, 75, 64
1, 293760, Note_on_c, 0, 41, 59
1, 293770, Control_c, 0, 64, 0
1, 293831, Control_c, 0, 64, 127
1, 293880, Note_on_c, 0, 41, 0
1, 293880, Note_on_c, 0, 48, 52
1, 294000, Tempo, 625065
1, 294000, Note_on_c, 0, 48, 0
1, 294000, Note_on_c, 0, 70, 0
1, 294000, Note_on_c, 0, 82, 0
1, 294000, Note_on_c, 0, 81, 71
1, 294000, Note_on_c, 0, 69, 57
1, 294000, Note_on_c, 0, 51, 52
1, 294120, Note_on_c, 0, 51, 0
1, 294120, Note_on_c, 0, 57, 52
1, 294240, Tempo, 612808
1, 294240, Note_on_c, 0, 57, 0
1, 294240, Note_on_c, 0, 72, 0
1, 294240, Note_on_c, 0, 75, 0
1, 294240, Note_on_c, 0, 75, 73
1, 294240, Note_on_c, 0, 70, 61
1, 294240, Note_on_c, 0, 43, 58
1, 294254, Control_c, 0, 64, 0
1, 294311, Control_c, 0, 64, 127
1, 294360, Note_on_c, 0, 43, 0
1, 294360, Note_on_c, 0, 46, 52
1, 294480, Tempo, 642811
1, 294480, Note_on_c, 0, 46, 0
1, 294480, Note_on_c, 0, 81, 0
1, 294480, Note_on_c, 0, 69, 0
1, 294480, Note_on_c, 0, 67, 57
1, 294480, Note_on_c, 0, 79, 72
1, 294480, Note_on_c, 0, 51, 52
1, 294600, Note_on_c, 0, 51, 0
1, 294600, Note_on_c, 0, 58, 52
1, 294720, Note_on_c, 0, 58, 0
1, 294720, Note_on_c, 0, 75, 0
1, 294720, Note_on_c, 0, 70, 0
1, 294720, Note_on_c, 0, 72, 67
1, 294720, Note_on_c, 0, 75, 80
1, 294720, Note_on_c, 0, 45, 52
1, 294731, Control_c, 0, 64, 0
1, 294798, Control_c, 0, 64, 127
1, 294840, Note_on_c, 0, 45, 0
1, 294840, Note_on_c, 0, 48, 47
1, 294960, Tempo, 633513
1, 294960, Note_on_c, 0, 48, 0
1, 294960, Note_on_c, 0, 67, 0
1, 294960, Note_on_c, 0, 79, 0
1, 294960, Note_on_c, 0, 66, 57
1, 294960, Note_on_c, 0, 78, 71
1, 294960, Note_on_c, 0, 51, 47
1, 295080, Note_on_c, 0, 51, 0
1, 295080, Note_on_c, 0, 60, 47
1, 295200, Tempo, 618620
1, 295200, Note_on_c, 0, 60, 0
1, 295200, Note_on_c, 0, 72, 0
1, 295200, Note_on_c, 0, 75, 0
1, 295200, Note_on_c, 0, 75, 73
1, 295200, Note_on_c, 0, 69, 59
1, 295200, Note_on_c, 0, 48, 55
1, 295214, Control_c, 0, 64, 0
1, 295264, Control_c, 0, 64, 127
1, 295320, Note_on_c, 0, 48, 0
1, 295320, Note_on_c, 0, 51, 47
1, 295440, Tempo, 633513
1, 295440, Note_on_c, 0, 51, 0
1, 295440, Note_on_c, 0, 66, 0
1, 295440, Note_on_c, 0, 78, 0
1, 295440, Note_on_c, 0, 65, 60
1, 295440, Note_on_c, 0, 77, 70
1, 295440, Note_on_c, 0, 57, 47
1, 295560, Note_on_c, 0, 57, 0
1, 295560, Note_on_c, 0, 63, 47
1, 295680, Tempo, 624415
1, 295680, Note_on_c, 0, 63, 0
1, 295680, Note_on_c, 0, 75, 0
1, 295680, Note_on_c, 0, 69, 0
1, 295680, Note_on_c, 0, 70, 53
1, 295680, Note_on_c, 0, 50, 46
1, 295680, Note_on_c, 0, 62, 55
1, 295680, Note_on_c, 0, 58, 46
1, 295692, Control_c, 0, 64, 0
1, 295772, Control_c, 0, 64, 127
1, 295920, Tempo, 633513
1, 295920, Note_on_c, 0, 58, 0
1, 295920, Note_on_c, 0, 65, 0
1, 295920, Note_on_c, 0, 70, 0
1, 295920, Note_on_c, 0, 77, 0
1, 295920, Note_on_c, 0, 62, 0
1, 295920, Note_on_c, 0, 50, 0
1, 295920, Note_on_c, 0, 70, 56
1, 295920, Note_on_c, 0, 66, 56
1, 295920, Note_on_c, 0, 78, 72
1, 295920, Note_on_c, 0, 62, 46
1, 295920, Note_on_c, 0, 58, 38
1, 295920, Note_on_c, 0, 50, 38
1, 296160, Tempo, 642811
1, 296160, Note_on_c, 0, 50, 0
1, 296160, Note_on_c, 0, 66, 0
1, 296160, Note_on_c, 0, 78, 0
1, 296160, Note_on_c, 0, 70, 0
1, 296160, Note_on_c, 0, 58, 0
1, 296160, Note_on_c, 0, 62, 0
1, 296160, Note_on_c, 0, 70, 53
1, 296160, Note_on_c, 0, 67, 64
1, 296160, Note_on_c, 0, 79, 77
1, 296160, Note_on_c, 0, 51, 42
1, 296160, Note_on_c, 0, 58, 42
1, 296160, Note_on_c, 0, 63, 51
1, 296172, Control_c, 0, 64, 0
1, 296252, Control_c, 0, 64, 127
1, 296400, Note_on_c, 0, 63, 0
1, 296400, Note_on_c, 0, 67, 0
1, 296400, Note_on_c, 0, 79, 0
1, 296400, Note_on_c, 0, 70, 0
1, 296400, Note_on_c, 0, 58, 0
1, 296400, Note_on_c, 0, 51, 0
1, 296400, Note_on_c, 0, 65, 56
1, 296400, Note_on_c, 0, 70, 56
1, 296400, Note_on_c, 0, 77, 72
1, 296400, Note_on_c, 0, 53, 38
1, 296400, Note_on_c, 0, 58, 38
1, 296400, Note_on_c, 0, 62, 46
1, 296640, Note_on_c, 0, 62, 0
1, 296640, Note_on_c, 0, 70, 0
1, 296640, Note_on_c, 0, 77, 0
1, 296640, Note_on_c, 0, 65, 0
1, 296640, Note_on_c, 0, 58, 0
1, 296640, Note_on_c, 0, 53, 0
1, 296640, Note_on_c, 0, 69, 60
1, 296640, Note_on_c, 0, 72, 69
1, 296640, Note_on_c, 0, 63, 50
1, 296640, Note_on_c, 0, 54, 42
1, 296649, Control_c, 0, 64, 0
1, 296690, Control_c, 0, 64, 127
1, 296880, Tempo, 621440
1, 296880, Note_on_c, 0, 54, 0
1, 296880, Note_on_c, 0, 69, 0
1, 296880, Note_on_c, 0, 72, 0
1, 296880, Note_on_c, 0, 63, 0
1, 296880, Note_on_c, 0, 65, 52
1, 296880, Note_on_c, 0, 68, 55
1, 296880, Note_on_c, 0, 74, 68
1, 296880, Note_on_c, 0, 47, 39
1, 296880, Note_on_c, 0, 59, 47
1, 296889, Control_c, 0, 64, 0
1, 296965, Control_c, 0, 64, 127
1, 297120, Tempo, 639727
1, 297120, Note_on_c, 0, 59, 0
1, 297120, Note_on_c, 0, 74, 0
1, 297120, Note_on_c, 0, 65, 0
1, 297120, Note_on_c, 0, 68, 0
1, 297120, Note_on_c, 0, 47, 0
1, 297120, Note_on_c, 0, 63, 59
1, 297120, Note_on_c, 0, 67, 62
1, 297120, Note_on_c, 0, 75, 70
1, 297120, Note_on_c, 0, 48, 44
1, 297120, Note_on_c, 0, 60, 52
1, 297129, Control_c, 0, 64, 0
1, 297198, Control_c, 0, 64, 127
1, 297360, Tempo, 658979
1, 297360, Note_on_c, 0, 60, 0
1, 297360, Note_on_c, 0, 75, 0
1, 297360, Note_on_c, 0, 63, 0
1, 297360, Note_on_c, 0, 67, 0
1, 297360, Note_on_c, 0, 48, 0
1, 297360, Note_on_c, 0, 66, 57
1, 297360, Note_on_c, 0, 69, 68
1, 297360, Note_on_c, 0, 51, 40
1, 297360, Note_on_c, 0, 63, 47
1, 297378, Control_c, 0, 64, 0
1, 297451, Control_c, 0, 64, 127
1, 297600, Tempo, 633513
1, 297600, Note_on_c, 0, 63, 0
1, 297600, Note_on_c, 0, 66, 0
1, 297600, Note_on_c, 0, 69, 0
1, 297600, Note_on_c, 0, 51, 0
1, 297600, Note_on_c, 0, 65, 60
1, 297600, Note_on_c, 0, 70, 69
1, 297600, Note_on_c, 0, 50, 36
1, 297600, Note_on_c, 0, 53, 39
1, 297600, Note_on_c, 0, 62, 50
1, 297600, Note_on_c, 0, 58, 38
1, 297610, Control_c, 0, 64, 0
1, 297634, Control_c, 0, 64, 127
1, 297840, Tempo, 639727
1, 297840, Note_on_c, 0, 58, 0
1, 297840, Note_on_c, 0, 70, 0
1, 297840, Note_on_c, 0, 50, 0
1, 297840, Note_on_c, 0, 65, 0
1, 297840, Note_on_c, 0, 62, 0
1, 297840, Note_on_c, 0, 53, 0
1, 297840, Note_on_c, 0, 63, 56
1, 297840, Note_on_c, 0, 66, 56
1, 297840, Note_on_c, 0, 72, 67
1, 297840, Note_on_c, 0, 45, 36
1, 297840, Note_on_c, 0, 57, 42
1, 297857, Control_c, 0, 64, 0
1, 297920, Control_c, 0, 64, 127
1, 298080, Note_on_c, 0, 57, 0
1, 298080, Note_on_c, 0, 72, 0
1, 298080, Note_on_c, 0, 63, 0
1, 298080, Note_on_c, 0, 66, 0
1, 298080, Note_on_c, 0, 45, 0
1, 298080, Note_on_c, 0, 62, 54
1, 298080, Note_on_c, 0, 65, 58
1, 298080, Note_on_c, 0, 74, 70
1, 298080, Note_on_c, 0, 46, 49
1, 298080, Note_on_c, 0, 58, 49
1, 298091, Control_c, 0, 64, 0
1, 298126, Control_c, 0, 64, 127
1, 298320, Note_on_c, 0, 58, 0
1, 298320, Note_on_c, 0, 74, 0
1, 298320, Note_on_c, 0, 62, 0
1, 298320, Note_on_c, 0, 65, 0
1, 298320, Note_on_c, 0, 46, 0
1, 298320, Note_on_c, 0, 58, 58
1, 298320, Note_on_c, 0, 61, 58
1, 298320, Note_on_c, 0, 67, 69
1, 298320, Note_on_c, 0, 40, 37
1, 298320, Note_on_c, 0, 52, 45
1, 298337, Control_c, 0, 64, 0
1, 298389, Control_c, 0, 64, 127
1, 298500, Note_on_c, 0, 52, 0
1, 298500, Note_on_c, 0, 67, 0
1, 298500, Note_on_c, 0, 58, 0
1, 298500, Note_on_c, 0, 61, 0
1, 298500, Note_on_c, 0, 40, 0
1, 298500, Note_on_c, 0, 58, 50
1, 298525, Control_c, 0, 64, 0
1, 298541, Control_c, 0, 64, 127
1, 298560, Tempo, 658979
1, 298560, Note_on_c, 0, 58, 0
1, 298560, Note_on_c, 0, 60, 58
1, 298560, Note_on_c, 0, 58, 58
1, 298560, Note_on_c, 0, 63, 58
1, 298560, Note_on_c, 0, 70, 69
1, 298560, Note_on_c, 0, 28, 44
1, 298560, Note_on_c, 0, 40, 52
1, 298800, Note_on_c, 0, 40, 0
1, 298800, Note_on_c, 0, 28, 0
1, 298800, Note_on_c, 0, 41, 48
1, 298800, Note_on_c, 0, 29, 40
1, 299040, Tempo, 672495
1, 299040, Note_on_c, 0, 58, 0
1, 299040, Note_on_c, 0, 70, 0
1, 299040, Note_on_c, 0, 57, 51
1, 299040, Note_on_c, 0, 69, 61
1, 299040, Note_on_c, 0, 55, 55
1, 299056, Control_c, 0, 64, 0
1, 299223, Control_c, 0, 64, 127
1, 299280, Note_on_c, 0, 55, 0
1, 299280, Note_on_c, 0, 29, 0
1, 299280, Note_on_c, 0, 53, 51
1, 299520, Tempo, 542986
1, 299520, Note_on_c, 0, 41, 0
1, 299520, Note_on_c, 0, 57, 0
1, 299520, Note_on_c, 0, 63, 0
1, 299520, Note_on_c, 0, 60, 0
1, 299520, Note_on_c, 0, 69, 0
1, 299520, Note_on_c, 0, 62, 65
1, 299520, Note_on_c, 0, 70, 77
1, 299520, Note_on_c, 0, 46, 53
1, 299526, Note_on_c, 0, 58, 65
1, 299526, Control_c, 0, 64, 0
1, 299680, Note_on_c, 0, 46, 0
1, 299680, Note_on_c, 0, 70, 0
1, 299680, Note_on_c, 0, 53, 0
1, 299680, Note_on_c, 0, 62, 0
1, 299680, Note_on_c, 0, 61, 62
1, 299680, Note_on_c, 0, 66, 73
1, 299680, Note_on_c, 0, 52, 42
1, 299680, Note_on_c, 0, 58, 51
1, 299686, Note_on_c, 0, 58, 0
1, 299760, Tempo, 521739
1, 299760, Note_on_c, 0, 52, 0
1, 299760, Note_on_c, 0, 61, 0
1, 299760, Note_on_c, 0, 66, 0
1, 299760, Note_on_c, 0, 58, 0
1, 299840, Note_on_c, 0, 61, 62
1, 299840, Note_on_c, 0, 66, 73
1, 299840, Note_on_c, 0, 52, 42
1, 299840, Note_on_c, 0, 58, 51
1, 299920, Note_on_c, 0, 58, 0
1, 299920, Note_on_c, 0, 61, 0
1, 299920, Note_on_c, 0, 66, 0
1, 299920, Note_on_c, 0, 52, 0
1, 300000, Tempo, 508475
1, 300000, Note_on_c, 0, 61, 62
1, 300000, Note_on_c, 0, 66, 75
1, 300000, Note_on_c, 0, 52, 46
1, 300000, Note_on_c, 0, 58, 56
1, 300160, Note_on_c, 0, 58, 0
1, 300160, Note_on_c, 0, 61, 0
1, 300160, Note_on_c, 0, 66, 0
1, 300160, Note_on_c, 0, 52, 0
1, 300160, Note_on_c, 0, 60, 61
1, 300160, Note_on_c, 0, 65, 66
1, 300160, Note_on_c, 0, 53, 38
1, 300160, Note_on_c, 0, 57, 45
1, 300240, Tempo, 479731
1, 300240, Note_on_c, 0, 57, 0
1, 300240, Note_on_c, 0, 60, 0
1, 300240, Note_on_c, 0, 65, 0
1, 300240, Note_on_c, 0, 53, 0
1, 300320, Note_on_c, 0, 69, 62
1, 300320, Note_on_c, 0, 75, 74
1, 300320, Note_on_c, 0, 53, 42
1, 300320, Note_on_c, 0, 65, 51
1, 300320, Note_on_c, 0, 60, 42
1, 300400, Note_on_c, 0, 60, 0
1, 300400, Note_on_c, 0, 53, 0
1, 300400, Note_on_c, 0, 69, 0
1, 300400, Note_on_c, 0, 75, 0
1, 300400, Note_on_c, 0, 65, 0
1, 300480, Tempo, 483676
1, 300480, Note_on_c, 0, 69, 62
1, 300480, Note_on_c, 0, 75, 75
1, 300480, Note_on_c, 0, 53, 46
1, 300480, Note_on_c, 0, 60, 46
1, 300480, Note_on_c, 0, 65, 56
1, 300640, Note_on_c, 0, 65, 0
1, 300640, Note_on_c, 0, 53, 0
1, 300640, Note_on_c, 0, 69, 0
1, 300640, Note_on_c, 0, 75, 0
1, 300640, Note_on_c, 0, 60, 0
1, 300640, Note_on_c, 0, 70, 62
1, 300640, Note_on_c, 0, 74, 74
1, 300640, Note_on_c, 0, 58, 42
1, 300640, Note_on_c, 0, 65, 51
1, 300720, Tempo, 470109
1, 300720, Note_on_c, 0, 65, 0
1, 300720, Note_on_c, 0, 70, 0
1, 300720, Note_on_c, 0, 74, 0
1, 300720, Note_on_c, 0, 58, 0
1, 300800, Note_on_c, 0, 73, 62
1, 300800, Note_on_c, 0, 78, 74
1, 300800, Note_on_c, 0, 64, 51
1, 300800, Note_on_c, 0, 70, 51
1, 300880, Note_on_c, 0, 70, 0
1, 300880, Note_on_c, 0, 73, 0
1, 300880, Note_on_c, 0, 78, 0
1, 300880, Note_on_c, 0, 64, 0
1, 300960, Note_on_c, 0, 73, 62
1, 300960, Note_on_c, 0, 78, 75
1, 300960, Note_on_c, 0, 64, 56
1, 300960, Note_on_c, 0, 70, 56
1, 301120, Note_on_c, 0, 70, 0
1, 301120, Note_on_c, 0, 73, 0
1, 301120, Note_on_c, 0, 78, 0
1, 301120, Note_on_c, 0, 64, 0
1, 301120, Note_on_c, 0, 72, 63
1, 301120, Note_on_c, 0, 77, 69
1, 301120, Note_on_c, 0, 65, 40
1, 301120, Note_on_c, 0, 69, 48
1, 301200, Note_on_c, 0, 69, 0
1, 301200, Note_on_c, 0, 72, 0
1, 301200, Note_on_c, 0, 77, 0
1, 301200, Note_on_c, 0, 65, 0
1, 301280, Note_on_c, 0, 81, 62
1, 301280, Note_on_c, 0, 87, 73
1, 301280, Note_on_c, 0, 65, 42
1, 301280, Note_on_c, 0, 72, 42
1, 301280, Note_on_c, 0, 77, 51
1, 301360, Note_on_c, 0, 77, 0
1, 301360, Note_on_c, 0, 65, 0
1, 301360, Note_on_c, 0, 81, 0
1, 301360, Note_on_c, 0, 87, 0
1, 301360, Note_on_c, 0, 72, 0
1, 301440, Note_on_c, 0, 81, 64
1, 301440, Note_on_c, 0, 87, 78
1, 301440, Note_on_c, 0, 65, 46
1, 301440, Note_on_c, 0, 72, 46
1, 301440, Note_on_c, 0, 77, 56
1, 301600, Note_on_c, 0, 77, 0
1, 301600, Note_on_c, 0, 65, 0
1, 301600, Note_on_c, 0, 81, 0
1, 301600, Note_on_c, 0, 87, 0
1, 301600, Note_on_c, 0, 72, 0
1, 301600, Note_on_c, 0, 82, 62
1, 301600, Note_on_c, 0, 86, 73
1, 301600, Note_on_c, 0, 70, 42
1, 301600, Note_on_c, 0, 77, 51
1, 301680, Note_on_c, 0, 77, 0
1, 301680, Note_on_c, 0, 82, 0
1, 301680, Note_on_c, 0, 86, 0
1, 301680, Note_on_c, 0, 70, 0
1, 301760, Note_on_c, 0, 78, 73
1, 301760, Note_on_c, 0, 73, 62
1, 301760, Note_on_c, 0, 70, 52
1, 301760, Note_on_c, 0, 64, 44
1, 301840, Note_on_c, 0, 64, 0
1, 301840, Note_on_c, 0, 78, 0
1, 301840, Note_on_c, 0, 73, 0
1, 301840, Note_on_c, 0, 70, 0
1, 301920, Note_on_c, 0, 73, 64
1, 301920, Note_on_c, 0, 78, 78
1, 301920, Note_on_c, 0, 64, 46
1, 301920, Note_on_c, 0, 70, 56
1, 302040, Tempo, 464828
1, 302080, Note_on_c, 0, 70, 0
1, 302080, Note_on_c, 0, 73, 0
1, 302080, Note_on_c, 0, 78, 0
1, 302080, Note_on_c, 0, 64, 0
1, 302080, Note_on_c, 0, 72, 62
1, 302080, Note_on_c, 0, 77, 70
1, 302080, Note_on_c, 0, 65, 41
1, 302080, Note_on_c, 0, 69, 49
1, 302160, Note_on_c, 0, 69, 0
1, 302160, Note_on_c, 0, 72, 0
1, 302160, Note_on_c, 0, 77, 0
1, 302160, Note_on_c, 0, 65, 0
1, 302240, Note_on_c, 0, 69, 62
1, 302240, Note_on_c, 0, 75, 74
1, 302240, Note_on_c, 0, 53, 44
1, 302240, Note_on_c, 0, 60, 44
1, 302240, Note_on_c, 0, 65, 52
1, 302320, Note_on_c, 0, 65, 0
1, 302320, Note_on_c, 0, 53, 0
1, 302320, Note_on_c, 0, 69, 0
1, 302320, Note_on_c, 0, 75, 0
1, 302320, Note_on_c, 0, 60, 0
1, 302400, Note_on_c, 0, 69, 64
1, 302400, Note_on_c, 0, 75, 78
1, 302400, Note_on_c, 0, 53, 46
1, 302400, Note_on_c, 0, 60, 46
1, 302400, Note_on_c, 0, 65, 56
1, 302560, Note_on_c, 0, 65, 0
1, 302560, Note_on_c, 0, 53, 0
1, 302560, Note_on_c, 0, 69, 0
1, 302560, Note_on_c, 0, 75, 0
1, 302560, Note_on_c, 0, 60, 0
1, 302560, Note_on_c, 0, 70, 59
1, 302560, Note_on_c, 0, 74, 69
1, 302560, Note_on_c, 0, 58, 41
1, 302560, Note_on_c, 0, 65, 49
1, 302640, Note_on_c, 0, 65, 0
1, 302640, Note_on_c, 0, 70, 0
1, 302640, Note_on_c, 0, 74, 0
1, 302640, Note_on_c, 0, 58, 0
1, 302720, Note_on_c, 0, 66, 74
1, 302720, Note_on_c, 0, 61, 62
1, 302720, Note_on_c, 0, 52, 44
1, 302720, Note_on_c, 0, 58, 52
1, 302800, Note_on_c, 0, 58, 0
1, 302800, Note_on_c, 0, 66, 0
1, 302800, Note_on_c, 0, 61, 0
1, 302800, Note_on_c, 0, 52, 0
1, 302880, Note_on_c, 0, 61, 62
1, 302880, Note_on_c, 0, 66, 75
1, 302880, Note_on_c, 0, 52, 46
1, 302880, Note_on_c, 0, 58, 56
1, 303040, Note_on_c, 0, 58, 0
1, 303040, Note_on_c, 0, 61, 0
1, 303040, Note_on_c, 0, 66, 0
1, 303040, Note_on_c, 0, 52, 0
1, 303040, Note_on_c, 0, 60, 59
1, 303040, Note_on_c, 0, 65, 66
1, 303040, Note_on_c, 0, 53, 39
1, 303040, Note_on_c, 0, 57, 46
1, 303120, Tempo, 481271
1, 303120, Note_on_c, 0, 57, 0
1, 303120, Note_on_c, 0, 60, 0
1, 303120, Note_on_c, 0, 65, 0
1, 303120, Note_on_c, 0, 53, 0
1, 303200, Note_on_c, 0, 57, 62
1, 303200, Note_on_c, 0, 63, 74
1, 303200, Note_on_c, 0, 48, 44
1, 303200, Note_on_c, 0, 41, 44
1, 303200, Note_on_c, 0, 53, 52
1, 303280, Note_on_c, 0, 53, 0
1, 303280, Note_on_c, 0, 48, 0
1, 303280, Note_on_c, 0, 57, 0
1, 303280, Note_on_c, 0, 63, 0
1, 303280, Note_on_c, 0, 41, 0
1, 303360, Tempo, 495745
1, 303360, Note_on_c, 0, 57, 62
1, 303360, Note_on_c, 0, 63, 75
1, 303360, Note_on_c, 0, 41, 46
1, 303360, Note_on_c, 0, 53, 56
1, 303360, Note_on_c, 0, 48, 46
1, 303520, Note_on_c, 0, 48, 0
1, 303520, Note_on_c, 0, 41, 0
1, 303520, Note_on_c, 0, 57, 0
1, 303520, Note_on_c, 0, 63, 0
1, 303520, Note_on_c, 0, 53, 0
1, 303520, Note_on_c, 0, 58, 53
1, 303520, Note_on_c, 0, 62, 63
1, 303520, Note_on_c, 0, 53, 46
1, 303520, Note_on_c, 0, 46, 39
1, 303600, Note_on_c, 0, 46, 0
1, 303600, Note_on_c, 0, 58, 0
1, 303600, Note_on_c, 0, 62, 0
1, 303600, Note_on_c, 0, 53, 0
1, 303680, Tempo, 474383
1, 303680, Note_on_c, 0, 60, 49
1, 303680, Note_on_c, 0, 67, 59
1, 303680, Note_on_c, 0, 48, 36
1, 303680, Note_on_c, 0, 52, 36
1, 303680, Note_on_c, 0, 58, 41
1, 303760, Note_on_c, 0, 58, 0
1, 303760, Note_on_c, 0, 48, 0
1, 303760, Note_on_c, 0, 60, 0
1, 303760, Note_on_c, 0, 67, 0
1, 303760, Note_on_c, 0, 52, 0
1, 303840, Tempo, 472069
1, 303840, Note_on_c, 0, 60, 51
1, 303840, Note_on_c, 0, 67, 62
1, 303840, Note_on_c, 0, 48, 37
1, 303840, Note_on_c, 0, 52, 37
1, 303840, Note_on_c, 0, 58, 44
1, 304000, Note_on_c, 0, 58, 0
1, 304000, Note_on_c, 0, 48, 0
1, 304000, Note_on_c, 0, 60, 0
1, 304000, Note_on_c, 0, 67, 0
1, 304000, Note_on_c, 0, 52, 0
1, 304000, Note_on_c, 0, 65, 58
1, 304000, Note_on_c, 0, 53, 34
1, 304000, Note_on_c, 0, 57, 41
1, 304080, Note_on_c, 0, 57, 0
1, 304080, Note_on_c, 0, 53, 0
1, 304080, Note_on_c, 0, 65, 0
1, 304160, Note_on_c, 0, 69, 44
1, 304160, Note_on_c, 0, 75, 52
1, 304160, Note_on_c, 0, 53, 29
1, 304160, Note_on_c, 0, 65, 36
1, 304160, Note_on_c, 0, 60, 29
1, 304240, Note_on_c, 0, 60, 0
1, 304240, Note_on_c, 0, 53, 0
1, 304240, Note_on_c, 0, 69, 0
1, 304240, Note_on_c, 0, 75, 0
1, 304240, Note_on_c, 0, 65, 0
1, 304320, Note_on_c, 0, 69, 46
1, 304320, Note_on_c, 0, 75, 55
1, 304320, Note_on_c, 0, 53, 33
1, 304320, Note_on_c, 0, 60, 33
1, 304320, Note_on_c, 0, 65, 39
1, 304480, Note_on_c, 0, 65, 0
1, 304480, Note_on_c, 0, 53, 0
1, 304480, Note_on_c, 0, 69, 0
1, 304480, Note_on_c, 0, 75, 0
1, 304480, Note_on_c, 0, 60, 0
1, 304480, Note_on_c, 0, 70, 44
1, 304480, Note_on_c, 0, 74, 52
1, 304480, Note_on_c, 0, 58, 29
1, 304480, Note_on_c, 0, 65, 36
1, 304560, Note_on_c, 0, 65, 0
1, 304560, Note_on_c, 0, 70, 0
1, 304560, Note_on_c, 0, 74, 0
1, 304560, Note_on_c, 0, 58, 0
1, 304640, Note_on_c, 0, 72, 44
1, 304640, Note_on_c, 0, 79, 52
1, 304640, Note_on_c, 0, 60, 36
1, 304640, Note_on_c, 0, 64, 36
1, 304640, Note_on_c, 0, 70, 36
1, 304720, Note_on_c, 0, 70, 0
1, 304720, Note_on_c, 0, 60, 0
1, 304720, Note_on_c, 0, 72, 0
1, 304720, Note_on_c, 0, 79, 0
1, 304720, Note_on_c, 0, 64, 0
1, 304800, Note_on_c, 0, 72, 46
1, 304800, Note_on_c, 0, 79, 55
1, 304800, Note_on_c, 0, 60, 39
1, 304800, Note_on_c, 0, 64, 39
1, 304800, Note_on_c, 0, 70, 39
1, 304960, Note_on_c, 0, 70, 0
1, 304960, Note_on_c, 0, 60, 0
1, 304960, Note_on_c, 0, 72, 0
1, 304960, Note_on_c, 0, 79, 0
1, 304960, Note_on_c, 0, 64, 0
1, 304960, Note_on_c, 0, 77, 51
1, 304960, Note_on_c, 0, 65, 29
1, 304960, Note_on_c, 0, 69, 36
1, 305040, Note_on_c, 0, 69, 0
1, 305040, Note_on_c, 0, 65, 0
1, 305040, Note_on_c, 0, 77, 0
1, 305120, Note_on_c, 0, 81, 39
1, 305120, Note_on_c, 0, 87, 46
1, 305120, Note_on_c, 0, 65, 26
1, 305120, Note_on_c, 0, 72, 26
1, 305120, Note_on_c, 0, 77, 31
1, 305200, Note_on_c, 0, 77, 0
1, 305200, Note_on_c, 0, 65, 0
1, 305200, Note_on_c, 0, 81, 0
1, 305200, Note_on_c, 0, 87, 0
1, 305200, Note_on_c, 0, 72, 0
1, 305280, Note_on_c, 0, 81, 40
1, 305280, Note_on_c, 0, 87, 49
1, 305280, Note_on_c, 0, 65, 29
1, 305280, Note_on_c, 0, 72, 29
1, 305280, Note_on_c, 0, 77, 35
1, 305440, Note_on_c, 0, 77, 0
1, 305440, Note_on_c, 0, 65, 0
1, 305440, Note_on_c, 0, 81, 0
1, 305440, Note_on_c, 0, 87, 0
1, 305440, Note_on_c, 0, 72, 0
1, 305440, Note_on_c, 0, 82, 39
1, 305440, Note_on_c, 0, 86, 46
1, 305440, Note_on_c, 0, 70, 26
1, 305440, Note_on_c, 0, 77, 31
1, 305520, Note_on_c, 0, 77, 0
1, 305520, Note_on_c, 0, 82, 0
1, 305520, Note_on_c, 0, 86, 0
1, 305520, Note_on_c, 0, 70, 0
1, 305600, Note_on_c, 0, 79, 55
1, 305600, Note_on_c, 0, 72, 47
1, 305600, Note_on_c, 0, 60, 33
1, 305600, Note_on_c, 0, 70, 39
1, 305600, Note_on_c, 0, 64, 33
1, 305680, Note_on_c, 0, 64, 0
1, 305680, Note_on_c, 0, 60, 0
1, 305680, Note_on_c, 0, 79, 0
1, 305680, Note_on_c, 0, 72, 0
1, 305680, Note_on_c, 0, 70, 0
1, 305760, Note_on_c, 0, 72, 49
1, 305760, Note_on_c, 0, 79, 59
1, 305760, Note_on_c, 0, 60, 35
1, 305760, Note_on_c, 0, 64, 35
1, 305760, Note_on_c, 0, 70, 41
1, 305920, Note_on_c, 0, 70, 0
1, 305920, Note_on_c, 0, 60, 0
1, 305920, Note_on_c, 0, 72, 0
1, 305920, Note_on_c, 0, 79, 0
1, 305920, Note_on_c, 0, 64, 0
1, 305920, Note_on_c, 0, 77, 56
1, 305920, Note_on_c, 0, 65, 33
1, 305920, Note_on_c, 0, 69, 39
1, 306000, Tempo, 483637
1, 306000, Note_on_c, 0, 69, 0
1, 306000, Note_on_c, 0, 65, 0
1, 306000, Note_on_c, 0, 77, 0
1, 306080, Note_on_c, 0, 69, 47
1, 306080, Note_on_c, 0, 75, 56
1, 306080, Note_on_c, 0, 53, 33
1, 306080, Note_on_c, 0, 60, 33
1, 306080, Note_on_c, 0, 65, 39
1, 306160, Note_on_c, 0, 65, 0
1, 306160, Note_on_c, 0, 53, 0
1, 306160, Note_on_c, 0, 69, 0
1, 306160, Note_on_c, 0, 75, 0
1, 306160, Note_on_c, 0, 60, 0
1, 306240, Tempo, 490717
1, 306240, Note_on_c, 0, 69, 49
1, 306240, Note_on_c, 0, 75, 59
1, 306240, Note_on_c, 0, 53, 35
1, 306240, Note_on_c, 0, 60, 35
1, 306240, Note_on_c, 0, 65, 41
1, 306400, Note_on_c, 0, 65, 0
1, 306400, Note_on_c, 0, 53, 0
1, 306400, Note_on_c, 0, 69, 0
1, 306400, Note_on_c, 0, 75, 0
1, 306400, Note_on_c, 0, 60, 0
1, 306400, Note_on_c, 0, 70, 47
1, 306400, Note_on_c, 0, 74, 55
1, 306400, Note_on_c, 0, 58, 33
1, 306400, Note_on_c, 0, 65, 39
1, 306480, Note_on_c, 0, 65, 0
1, 306480, Note_on_c, 0, 70, 0
1, 306480, Note_on_c, 0, 74, 0
1, 306480, Note_on_c, 0, 58, 0
1, 306560, Tempo, 472069
1, 306560, Note_on_c, 0, 67, 56
1, 306560, Note_on_c, 0, 60, 47
1, 306560, Note_on_c, 0, 48, 33
1, 306560, Note_on_c, 0, 52, 33
1, 306560, Note_on_c, 0, 58, 39
1, 306640, Note_on_c, 0, 58, 0
1, 306640, Note_on_c, 0, 48, 0
1, 306640, Note_on_c, 0, 67, 0
1, 306640, Note_on_c, 0, 60, 0
1, 306640, Note_on_c, 0, 52, 0
1, 306720, Tempo, 479080
1, 306720, Note_on_c, 0, 60, 49
1, 306720, Note_on_c, 0, 67, 59
1, 306720, Note_on_c, 0, 48, 35
1, 306720, Note_on_c, 0, 52, 35
1, 306720, Note_on_c, 0, 58, 41
1, 306880, Note_on_c, 0, 58, 0
1, 306880, Note_on_c, 0, 48, 0
1, 306880, Note_on_c, 0, 60, 0
1, 306880, Note_on_c, 0, 67, 0
1, 306880, Note_on_c, 0, 52, 0
1, 306880, Note_on_c, 0, 65, 56
1, 306880, Note_on_c, 0, 53, 33
1, 306880, Note_on_c, 0, 57, 39
1, 306960, Tempo, 503060
1, 306960, Note_on_c, 0, 57, 0
1, 306960, Note_on_c, 0, 53, 0
1, 306960, Note_on_c, 0, 65, 0
1, 307040, Note_on_c, 0, 60, 52
1, 307040, Note_on_c, 0, 57, 52
1, 307040, Note_on_c, 0, 63, 62
1, 307040, Note_on_c, 0, 41, 41
1, 307040, Note_on_c, 0, 53, 49
1, 307120, Note_on_c, 0, 53, 0
1, 307120, Note_on_c, 0, 63, 0
1, 307120, Note_on_c, 0, 60, 0
1, 307120, Note_on_c, 0, 57, 0
1, 307120, Note_on_c, 0, 41, 0
1, 307200, Tempo, 495622
1, 307200, Note_on_c, 0, 60, 49
1, 307200, Note_on_c, 0, 57, 49
1, 307200, Note_on_c, 0, 63, 59
1, 307200, Note_on_c, 0, 41, 39
1, 307200, Note_on_c, 0, 53, 47
1, 307360, Note_on_c, 0, 53, 0
1, 307360, Note_on_c, 0, 63, 0
1, 307360, Note_on_c, 0, 60, 0
1, 307360, Note_on_c, 0, 57, 0
1, 307360, Note_on_c, 0, 41, 0
1, 307360, Note_on_c, 0, 61, 46
1, 307360, Note_on_c, 0, 57, 44
1, 307360, Note_on_c, 0, 64, 52
1, 307360, Note_on_c, 0, 40, 35
1, 307360, Note_on_c, 0, 52, 41
1, 307440, Tempo, 474571
1, 307440, Note_on_c, 0, 52, 0
1, 307440, Note_on_c, 0, 64, 0
1, 307440, Note_on_c, 0, 61, 0
1, 307440, Note_on_c, 0, 57, 0
1, 307440, Note_on_c, 0, 40, 0
1, 307520, Note_on_c, 0, 57, 49
1, 307520, Note_on_c, 0, 59, 49
1, 307520, Note_on_c, 0, 63, 47
1, 307520, Note_on_c, 0, 69, 56
1, 307520, Note_on_c, 0, 52, 38
1, 307520, Note_on_c, 0, 54, 45
1, 307600, Note_on_c, 0, 54, 0
1, 307600, Note_on_c, 0, 59, 0
1, 307600, Note_on_c, 0, 63, 0
1, 307600, Note_on_c, 0, 57, 0
1, 307600, Note_on_c, 0, 52, 0
1, 307600, Note_on_c, 0, 69, 0
1, 307680, Tempo, 483676
1, 307680, Note_on_c, 0, 57, 49
1, 307680, Note_on_c, 0, 59, 49
1, 307680, Note_on_c, 0, 63, 49
1, 307680, Note_on_c, 0, 69, 59
1, 307680, Note_on_c, 0, 52, 39
1, 307680, Note_on_c, 0, 54, 47
1, 307840, Note_on_c, 0, 54, 0
1, 307840, Note_on_c, 0, 59, 0
1, 307840, Note_on_c, 0, 63, 0
1, 307840, Note_on_c, 0, 57, 0
1, 307840, Note_on_c, 0, 52, 0
1, 307840, Note_on_c, 0, 69, 0
1, 307840, Note_on_c, 0, 56, 46
1, 307840, Note_on_c, 0, 64, 44
1, 307840, Note_on_c, 0, 68, 51
1, 307840, Note_on_c, 0, 52, 34
1, 307840, Note_on_c, 0, 59, 41
1, 307920, Tempo, 470109
1, 307920, Note_on_c, 0, 59, 0
1, 307920, Note_on_c, 0, 68, 0
1, 307920, Note_on_c, 0, 56, 0
1, 307920, Note_on_c, 0, 64, 0
1, 307920, Note_on_c, 0, 52, 0
1, 308000, Note_on_c, 0, 62, 47
1, 308000, Note_on_c, 0, 64, 47
1, 308000, Note_on_c, 0, 68, 47
1, 308000, Note_on_c, 0, 74, 56
1, 308000, Note_on_c, 0, 52, 36
1, 308000, Note_on_c, 0, 59, 44
1, 308080, Note_on_c, 0, 59, 0
1, 308080, Note_on_c, 0, 64, 0
1, 308080, Note_on_c, 0, 68, 0
1, 308080, Note_on_c, 0, 62, 0
1, 308080, Note_on_c, 0, 52, 0
1, 308080, Note_on_c, 0, 74, 0
1, 308160, Note_on_c, 0, 62, 49
1, 308160, Note_on_c, 0, 64, 49
1, 308160, Note_on_c, 0, 68, 49
1, 308160, Note_on_c, 0, 74, 59
1, 308160, Note_on_c, 0, 52, 39
1, 308160, Note_on_c, 0, 59, 47
1, 308320, Note_on_c, 0, 59, 0
1, 308320, Note_on_c, 0, 64, 0
1, 308320, Note_on_c, 0, 68, 0
1, 308320, Note_on_c, 0, 62, 0
1, 308320, Note_on_c, 0, 52, 0
1, 308320, Note_on_c, 0, 74, 0
1, 308320, Note_on_c, 0, 61, 46
1, 308320, Note_on_c, 0, 69, 44
1, 308320, Note_on_c, 0, 73, 52
1, 308320, Note_on_c, 0, 57, 34
1, 308320, Note_on_c, 0, 52, 34
1, 308320, Note_on_c, 0, 64, 41
1, 308400, Note_on_c, 0, 64, 0
1, 308400, Note_on_c, 0, 69, 0
1, 308400, Note_on_c, 0, 73, 0
1, 308400, Note_on_c, 0, 61, 0
1, 308400, Note_on_c, 0, 52, 0
1, 308400, Note_on_c, 0, 57, 0
1, 308480, Note_on_c, 0, 69, 49
1, 308480, Note_on_c, 0, 71, 49
1, 308480, Note_on_c, 0, 75, 47
1, 308480, Note_on_c, 0, 81, 56
1, 308480, Note_on_c, 0, 52, 44
1, 308480, Note_on_c, 0, 59, 44
1, 308480, Note_on_c, 0, 66, 44
1, 308560, Note_on_c, 0, 66, 0
1, 308560, Note_on_c, 0, 52, 0
1, 308560, Note_on_c, 0, 71, 0
1, 308560, Note_on_c, 0, 75, 0
1, 308560, Note_on_c, 0, 69, 0
1, 308560, Note_on_c, 0, 59, 0
1, 308560, Note_on_c, 0, 81, 0
1, 308640, Note_on_c, 0, 69, 49
1, 308640, Note_on_c, 0, 71, 49
1, 308640, Note_on_c, 0, 75, 49
1, 308640, Note_on_c, 0, 81, 59
1, 308640, Note_on_c, 0, 52, 47
1, 308640, Note_on_c, 0, 59, 47
1, 308640, Note_on_c, 0, 66, 47
1, 308800, Note_on_c, 0, 66, 0
1, 308800, Note_on_c, 0, 52, 0
1, 308800, Note_on_c, 0, 71, 0
1, 308800, Note_on_c, 0, 75, 0
1, 308800, Note_on_c, 0, 69, 0
1, 308800, Note_on_c, 0, 59, 0
1, 308800, Note_on_c, 0, 81, 0
1, 308800, Note_on_c, 0, 68, 46
1, 308800, Note_on_c, 0, 76, 41
1, 308800, Note_on_c, 0, 80, 51
1, 308800, Note_on_c, 0, 52, 44
1, 308800, Note_on_c, 0, 59, 34
1, 308800, Note_on_c, 0, 64, 41
1, 308880, Tempo, 481271
1, 308880, Note_on_c, 0, 64, 0
1, 308880, Note_on_c, 0, 76, 0
1, 308880, Note_on_c, 0, 80, 0
1, 308880, Note_on_c, 0, 68, 0
1, 308880, Note_on_c, 0, 59, 0
1, 308880, Note_on_c, 0, 52, 0
1, 308960, Note_on_c, 0, 74, 49
1, 308960, Note_on_c, 0, 76, 49
1, 308960, Note_on_c, 0, 80, 47
1, 308960, Note_on_c, 0, 86, 55
1, 308960, Note_on_c, 0, 62, 36
1, 308960, Note_on_c, 0, 52, 47
1, 308960, Note_on_c, 0, 64, 44
1, 308960, Note_on_c, 0, 59, 36
1, 309040, Note_on_c, 0, 59, 0
1, 309040, Note_on_c, 0, 74, 0
1, 309040, Note_on_c, 0, 62, 0
1, 309040, Note_on_c, 0, 76, 0
1, 309040, Note_on_c, 0, 80, 0
1, 309040, Note_on_c, 0, 86, 0
1, 309040, Note_on_c, 0, 52, 0
1, 309040, Note_on_c, 0, 64, 0
1, 309120, Note_on_c, 0, 74, 49
1, 309120, Note_on_c, 0, 76, 49
1, 309120, Note_on_c, 0, 80, 49
1, 309120, Note_on_c, 0, 86, 59
1, 309120, Note_on_c, 0, 62, 39
1, 309120, Note_on_c, 0, 59, 39
1, 309120, Note_on_c, 0, 52, 39
1, 309120, Note_on_c, 0, 64, 47
1, 309280, Note_on_c, 0, 64, 0
1, 309280, Note_on_c, 0, 74, 0
1, 309280, Note_on_c, 0, 62, 0
1, 309280, Note_on_c, 0, 76, 0
1, 309280, Note_on_c, 0, 80, 0
1, 309280, Note_on_c, 0, 86, 0
1, 309280, Note_on_c, 0, 59, 0
1, 309280, Note_on_c, 0, 52, 0
1, 309280, Note_on_c, 0, 67, 45
1, 309280, Note_on_c, 0, 71, 63
1, 309280, Note_on_c, 0, 59, 34
1, 309280, Note_on_c, 0, 65, 49
1, 309360, Tempo, 481271
1, 309440, Note_on_c, 0, 65, 0
1, 309440, Note_on_c, 0, 67, 0
1, 309440, Note_on_c, 0, 71, 0
1, 309440, Note_on_c, 0, 59, 0
1, 309440, Note_on_c, 0, 68, 66
1, 309440, Note_on_c, 0, 77, 80
1, 309440, Note_on_c, 0, 50, 61
1, 309480, Tempo, 478927
1, 309493, Control_c, 0, 64, 127
1, 309600, Tempo, 476644
1, 309600, Note_on_c, 0, 50, 0
1, 309600, Note_on_c, 0, 77, 0
1, 309600, Note_on_c, 0, 68, 0
1, 309600, Note_on_c, 0, 70, 68
1, 309600, Note_on_c, 0, 74, 74
1, 309600, Note_on_c, 0, 53, 47
1, 309600, Note_on_c, 0, 62, 56
1, 309680, Tempo, 474383
1, 309760, Note_on_c, 0, 62, 0
1, 309760, Note_on_c, 0, 70, 0
1, 309760, Note_on_c, 0, 74, 0
1, 309760, Note_on_c, 0, 53, 0
1, 309760, Note_on_c, 0, 71, 71
1, 309760, Note_on_c, 0, 80, 84
1, 309760, Note_on_c, 0, 47, 62
1, 309777, Control_c, 0, 64, 0
1, 309800, Tempo, 472069
1, 309815, Control_c, 0, 64, 127
1, 309880, Tempo, 469925
1, 309920, Note_on_c, 0, 47, 0
1, 309920, Note_on_c, 0, 80, 0
1, 309920, Note_on_c, 0, 71, 0
1, 309920, Note_on_c, 0, 73, 66
1, 309920, Note_on_c, 0, 77, 79
1, 309920, Note_on_c, 0, 53, 49
1, 309920, Note_on_c, 0, 59, 59
1, 310000, Tempo, 467617
1, 310080, Tempo, 463285
1, 310080, Note_on_c, 0, 59, 0
1, 310080, Note_on_c, 0, 73, 0
1, 310080, Note_on_c, 0, 77, 0
1, 310080, Note_on_c, 0, 53, 0
1, 310080, Note_on_c, 0, 74, 74
1, 310080, Note_on_c, 0, 83, 89
1, 310080, Note_on_c, 0, 44, 64
1, 310094, Control_c, 0, 64, 0
1, 310137, Control_c, 0, 64, 127
1, 310200, Tempo, 465477
1, 310240, Note_on_c, 0, 44, 0
1, 310240, Note_on_c, 0, 83, 0
1, 310240, Note_on_c, 0, 74, 0
1, 310240, Note_on_c, 0, 80, 85
1, 310240, Note_on_c, 0, 76, 72
1, 310240, Note_on_c, 0, 47, 50
1, 310240, Note_on_c, 0, 56, 60
1, 310280, Tempo, 467617
1, 310360, Tempo, 469925
1, 310400, Note_on_c, 0, 56, 0
1, 310400, Note_on_c, 0, 80, 0
1, 310400, Note_on_c, 0, 76, 0
1, 310400, Note_on_c, 0, 47, 0
1, 310400, Note_on_c, 0, 77, 78
1, 310400, Note_on_c, 0, 86, 92
1, 310400, Note_on_c, 0, 41, 69
1, 310415, Control_c, 0, 64, 0
1, 310440, Tempo, 472069
1, 310520, Control_c, 0, 64, 127
1, 310560, Note_on_c, 0, 41, 0
1, 310560, Note_on_c, 0, 86, 0
1, 310560, Note_on_c, 0, 77, 0
1, 310560, Note_on_c, 0, 79, 73
1, 310560, Note_on_c, 0, 83, 86
1, 310560, Note_on_c, 0, 47, 53
1, 310560, Note_on_c, 0, 53, 64
1, 310640, Tempo, 474383
1, 310680, Tempo, 481271
1, 310720, Tempo, 488440
1, 310720, Note_on_c, 0, 53, 0
1, 310720, Note_on_c, 0, 79, 0
1, 310720, Note_on_c, 0, 83, 0
1, 310720, Note_on_c, 0, 47, 0
1, 310720, Note_on_c, 0, 80, 79
1, 310720, Note_on_c, 0, 89, 94
1, 310720, Note_on_c, 0, 38, 77
1, 310736, Control_c, 0, 64, 0
1, 310760, Tempo, 495745
1, 310800, Tempo, 503313
1, 310817, Control_c, 0, 64, 127
1, 310840, Tempo, 511073
1, 310880, Note_on_c, 0, 38, 0
1, 310880, Note_on_c, 0, 89, 0
1, 310880, Note_on_c, 0, 80, 0
1, 310880, Note_on_c, 0, 80, 77
1, 310880, Note_on_c, 0, 92, 90
1, 310880, Note_on_c, 0, 26, 69
1, 310880, Note_on_c, 0, 38, 69
1, 311040, Tempo, 503060
1, 311040, Note_on_c, 0, 38, 0
1, 311040, Note_on_c, 0, 80, 0
1, 311040, Note_on_c, 0, 92, 0
1, 311040, Note_on_c, 0, 26, 0
1, 311040, Note_on_c, 0, 88, 85
1, 311040, Note_on_c, 0, 81, 85
1, 311040, Note_on_c, 0, 93, 101
1, 311040, Note_on_c, 0, 37, 42
1, 311040, Note_on_c, 0, 25, 42
1, 311051, Control_c, 0, 64, 0
1, 311154, Control_c, 0, 64, 127
1, 311200, Note_on_c, 0, 25, 0
1, 311200, Note_on_c, 0, 93, 0
1, 311200, Note_on_c, 0, 88, 0
1, 311200, Note_on_c, 0, 81, 0
1, 311200, Note_on_c, 0, 37, 0
1, 311200, Note_on_c, 0, 57, 64
1, 311200, Note_on_c, 0, 64, 64
1, 311200, Note_on_c, 0, 69, 77
1, 311200, Note_on_c, 0, 37, 36
1, 311200, Note_on_c, 0, 49, 50
1, 311280, Tempo, 481348
1, 311360, Note_on_c, 0, 49, 0
1, 311360, Note_on_c, 0, 69, 0
1, 311360, Note_on_c, 0, 57, 0
1, 311360, Note_on_c, 0, 64, 0
1, 311360, Note_on_c, 0, 37, 0
1, 311360, Note_on_c, 0, 57, 64
1, 311360, Note_on_c, 0, 64, 64
1, 311360, Note_on_c, 0, 69, 77
1, 311360, Note_on_c, 0, 37, 40
1, 311360, Note_on_c, 0, 49, 48
1, 311440, Tempo, 493178
1, 311520, Note_on_c, 0, 49, 0
1, 311520, Note_on_c, 0, 69, 0
1, 311520, Note_on_c, 0, 57, 0
1, 311520, Note_on_c, 0, 64, 0
1, 311520, Note_on_c, 0, 37, 0
1, 311520, Note_on_c, 0, 57, 55
1, 311520, Note_on_c, 0, 64, 55
1, 311520, Note_on_c, 0, 69, 77
1, 311520, Note_on_c, 0, 37, 40
1, 311520, Note_on_c, 0, 49, 48
1, 311536, Control_c, 0, 64, 0
1, 311594, Control_c, 0, 64, 127
1, 311680, Tempo, 479080
1, 311680, Note_on_c, 0, 49, 0
1, 311680, Note_on_c, 0, 69, 0
1, 311680, Note_on_c, 0, 57, 0
1, 311680, Note_on_c, 0, 64, 0
1, 311680, Note_on_c, 0, 37, 0
1, 311680, Note_on_c, 0, 57, 63
1, 311680, Note_on_c, 0, 64, 63
1, 311680, Note_on_c, 0, 69, 75
1, 311680, Note_on_c, 0, 37, 40
1, 311680, Note_on_c, 0, 49, 48
1, 311840, Tempo, 485987
1, 311840, Note_on_c, 0, 49, 0
1, 311840, Note_on_c, 0, 69, 0
1, 311840, Note_on_c, 0, 57, 0
1, 311840, Note_on_c, 0, 64, 0
1, 311840, Note_on_c, 0, 37, 0
1, 311840, Note_on_c, 0, 57, 63
1, 311840, Note_on_c, 0, 64, 63
1, 311840, Note_on_c, 0, 69, 75
1, 311840, Note_on_c, 0, 37, 41
1, 311840, Note_on_c, 0, 49, 49
1, 312000, Tempo, 490717
1, 312000, Note_on_c, 0, 49, 0
1, 312000, Note_on_c, 0, 69, 0
1, 312000, Note_on_c, 0, 57, 0
1, 312000, Note_on_c, 0, 64, 0
1, 312000, Note_on_c, 0, 37, 0
1, 312000, Note_on_c, 0, 57, 57
1, 312000, Note_on_c, 0, 65, 57
1, 312000, Note_on_c, 0, 69, 80
1, 312000, Note_on_c, 0, 37, 38
1, 312000, Note_on_c, 0, 49, 55
1, 312010, Control_c, 0, 64, 0
1, 312160, Tempo, 476796
1, 312160, Note_on_c, 0, 49, 0
1, 312160, Note_on_c, 0, 69, 0
1, 312160, Note_on_c, 0, 57, 0
1, 312160, Note_on_c, 0, 65, 0
1, 312160, Note_on_c, 0, 37, 0
1, 312160, Note_on_c, 0, 57, 64
1, 312160, Note_on_c, 0, 65, 64
1, 312160, Note_on_c, 0, 69, 77
1, 312160, Note_on_c, 0, 36, 44
1, 312160, Note_on_c, 0, 48, 52
1, 312200, Control_c, 0, 64, 127
1, 312320, Tempo, 485987
1, 312320, Note_on_c, 0, 48, 0
1, 312320, Note_on_c, 0, 69, 0
1, 312320, Note_on_c, 0, 57, 0
1, 312320, Note_on_c, 0, 65, 0
1, 312320, Note_on_c, 0, 36, 0
1, 312320, Note_on_c, 0, 57, 64
1, 312320, Note_on_c, 0, 65, 64
1, 312320, Note_on_c, 0, 69, 77
1, 312320, Note_on_c, 0, 36, 44
1, 312320, Note_on_c, 0, 48, 52
1, 312480, Tempo, 481348
1, 312480, Note_on_c, 0, 48, 0
1, 312480, Note_on_c, 0, 69, 0
1, 312480, Note_on_c, 0, 57, 0
1, 312480, Note_on_c, 0, 65, 0
1, 312480, Note_on_c, 0, 36, 0
1, 312480, Note_on_c, 0, 57, 68
1, 312480, Note_on_c, 0, 65, 68
1, 312480, Note_on_c, 0, 69, 81
1, 312480, Note_on_c, 0, 36, 47
1, 312480, Note_on_c, 0, 48, 56
1, 312640, Tempo, 461503
1, 312640, Note_on_c, 0, 48, 0
1, 312640, Note_on_c, 0, 69, 0
1, 312640, Note_on_c, 0, 57, 0
1, 312640, Note_on_c, 0, 65, 0
1, 312640, Note_on_c, 0, 36, 0
1, 312640, Note_on_c, 0, 57, 67
1, 312640, Note_on_c, 0, 65, 67
1, 312640, Note_on_c, 0, 69, 79
1, 312640, Note_on_c, 0, 37, 44
1, 312640, Note_on_c, 0, 49, 52
1, 312646, Control_c, 0, 64, 0
1, 312680, Tempo, 461503
1, 312703, Control_c, 0, 64, 127
1, 312800, Tempo, 481348
1, 312800, Note_on_c, 0, 49, 0
1, 312800, Note_on_c, 0, 69, 0
1, 312800, Note_on_c, 0, 57, 0
1, 312800, Note_on_c, 0, 65, 0
1, 312800, Note_on_c, 0, 37, 0
1, 312800, Note_on_c, 0, 57, 67
1, 312800, Note_on_c, 0, 65, 67
1, 312800, Note_on_c, 0, 69, 79
1, 312800, Note_on_c, 0, 37, 44
1, 312800, Note_on_c, 0, 49, 52
1, 312920, Tempo, 457317
1, 312960, Tempo, 495622
1, 312960, Note_on_c, 0, 49, 0
1, 312960, Note_on_c, 0, 69, 0
1, 312960, Note_on_c, 0, 57, 0
1, 312960, Note_on_c, 0, 65, 0
1, 312960, Note_on_c, 0, 37, 0
1, 312960, Note_on_c, 0, 57, 67
1, 312960, Note_on_c, 0, 65, 67
1, 312960, Note_on_c, 0, 69, 80
1, 312960, Note_on_c, 0, 37, 46
1, 312960, Note_on_c, 0, 49, 56
1, 313040, Note_on_c, 0, 49, 0
1, 313040, Note_on_c, 0, 69, 0
1, 313040, Note_on_c, 0, 57, 0
1, 313040, Note_on_c, 0, 65, 0
1, 313040, Note_on_c, 0, 37, 0
1, 313075, Control_c, 0, 64, 0
1, 313080, Tempo, 467909
1, 313120, Note_on_c, 0, 58, 68
1, 313120, Note_on_c, 0, 65, 68
1, 313120, Note_on_c, 0, 70, 81
1, 313120, Note_on_c, 0, 37, 47
1, 313120, Note_on_c, 0, 49, 57
1, 313172, Control_c, 0, 64, 127
1, 313200, Note_on_c, 0, 49, 0
1, 313200, Note_on_c, 0, 70, 0
1, 313200, Note_on_c, 0, 58, 0
1, 313200, Note_on_c, 0, 65, 0
1, 313200, Note_on_c, 0, 37, 0
1, 313280, Tempo, 485987
1, 313280, Note_on_c, 0, 58, 69
1, 313280, Note_on_c, 0, 65, 69
1, 313280, Note_on_c, 0, 70, 82
1, 313280, Note_on_c, 0, 37, 48
1, 313280, Note_on_c, 0, 49, 58
1, 313360, Note_on_c, 0, 49, 0
1, 313360, Note_on_c, 0, 70, 0
1, 313360, Note_on_c, 0, 58, 0
1, 313360, Note_on_c, 0, 65, 0
1, 313360, Note_on_c, 0, 37, 0
1, 313440, Tempo, 472329
1, 313440, Note_on_c, 0, 58, 71
1, 313440, Note_on_c, 0, 65, 71
1, 313440, Note_on_c, 0, 70, 83
1, 313440, Note_on_c, 0, 37, 49
1, 313440, Note_on_c, 0, 49, 58
1, 313520, Note_on_c, 0, 49, 0
1, 313520, Note_on_c, 0, 70, 0
1, 313520, Note_on_c, 0, 58, 0
1, 313520, Note_on_c, 0, 65, 0
1, 313520, Note_on_c, 0, 37, 0
1, 313600, Tempo, 459348
1, 313600, Note_on_c, 0, 58, 71
1, 313600, Note_on_c, 0, 66, 71
1, 313600, Note_on_c, 0, 70, 84
1, 313600, Note_on_c, 0, 37, 50
1, 313600, Note_on_c, 0, 49, 59
1, 313629, Control_c, 0, 64, 0
1, 313680, Note_on_c, 0, 49, 0
1, 313680, Note_on_c, 0, 70, 0
1, 313680, Note_on_c, 0, 58, 0
1, 313680, Note_on_c, 0, 66, 0
1, 313680, Note_on_c, 0, 37, 0
1, 313683, Control_c, 0, 64, 127
1, 313760, Tempo, 483676
1, 313760, Note_on_c, 0, 58, 71
1, 313760, Note_on_c, 0, 66, 71
1, 313760, Note_on_c, 0, 70, 85
1, 313760, Note_on_c, 0, 37, 51
1, 313760, Note_on_c, 0, 49, 61
1, 313840, Note_on_c, 0, 49, 0
1, 313840, Note_on_c, 0, 70, 0
1, 313840, Note_on_c, 0, 58, 0
1, 313840, Note_on_c, 0, 66, 0
1, 313840, Note_on_c, 0, 37, 0
1, 313920, Tempo, 490717
1, 313920, Note_on_c, 0, 58, 72
1, 313920, Note_on_c, 0, 66, 72
1, 313920, Note_on_c, 0, 70, 86
1, 313920, Note_on_c, 0, 49, 62
1, 313920, Note_on_c, 0, 37, 52
1, 314000, Note_on_c, 0, 37, 0
1, 314000, Note_on_c, 0, 70, 0
1, 314000, Note_on_c, 0, 58, 0
1, 314000, Note_on_c, 0, 66, 0
1, 314000, Note_on_c, 0, 49, 0
1, 314080, Tempo, 463571
1, 314080, Note_on_c, 0, 58, 73
1, 314080, Note_on_c, 0, 66, 73
1, 314080, Note_on_c, 0, 70, 88
1, 314080, Note_on_c, 0, 36, 52
1, 314080, Note_on_c, 0, 48, 62
1, 314097, Control_c, 0, 64, 0
1, 314135, Control_c, 0, 64, 127
1, 314160, Note_on_c, 0, 48, 0
1, 314160, Note_on_c, 0, 70, 0
1, 314160, Note_on_c, 0, 58, 0
1, 314160, Note_on_c, 0, 66, 0
1, 314160, Note_on_c, 0, 36, 0
1, 314240, Tempo, 479080
1, 314240, Note_on_c, 0, 58, 75
1, 314240, Note_on_c, 0, 66, 75
1, 314240, Note_on_c, 0, 70, 90
1, 314240, Note_on_c, 0, 36, 53
1, 314240, Note_on_c, 0, 48, 63
1, 314320, Note_on_c, 0, 48, 0
1, 314320, Note_on_c, 0, 70, 0
1, 314320, Note_on_c, 0, 58, 0
1, 314320, Note_on_c, 0, 66, 0
1, 314320, Note_on_c, 0, 36, 0
1, 314400, Tempo, 479080
1, 314400, Note_on_c, 0, 58, 77
1, 314400, Note_on_c, 0, 66, 77
1, 314400, Note_on_c, 0, 70, 91
1, 314400, Note_on_c, 0, 36, 53
1, 314400, Note_on_c, 0, 48, 64
1, 314480, Note_on_c, 0, 48, 0
1, 314480, Note_on_c, 0, 70, 0
1, 314480, Note_on_c, 0, 58, 0
1, 314480, Note_on_c, 0, 66, 0
1, 314480, Note_on_c, 0, 36, 0
1, 314560, Tempo, 455201
1, 314560, Note_on_c, 0, 58, 78
1, 314560, Note_on_c, 0, 65, 78
1, 314560, Note_on_c, 0, 70, 92
1, 314560, Note_on_c, 0, 37, 55
1, 314560, Note_on_c, 0, 49, 66
1, 314586, Control_c, 0, 64, 0
1, 314620, Tempo, 457317
1, 314640, Note_on_c, 0, 49, 0
1, 314640, Note_on_c, 0, 70, 0
1, 314640, Note_on_c, 0, 58, 0
1, 314640, Note_on_c, 0, 65, 0
1, 314640, Note_on_c, 0, 37, 0
1, 314680, Tempo, 459348
1, 314720, Note_on_c, 0, 58, 79
1, 314720, Note_on_c, 0, 64, 79
1, 314720, Note_on_c, 0, 70, 93
1, 314720, Note_on_c, 0, 37, 56
1, 314720, Note_on_c, 0, 49, 67
1, 314740, Tempo, 461503
1, 314800, Tempo, 463571
1, 314800, Note_on_c, 0, 49, 0
1, 314800, Note_on_c, 0, 70, 0
1, 314800, Note_on_c, 0, 58, 0
1, 314800, Note_on_c, 0, 64, 0
1, 314800, Note_on_c, 0, 37, 0
1, 314860, Tempo, 465766
1, 314880, Tempo, 528030
1, 314880, Note_on_c, 0, 58, 73
1, 314880, Note_on_c, 0, 65, 86
1, 314880, Note_on_c, 0, 70, 102
1, 314880, Note_on_c, 0, 38, 52
1, 314880, Note_on_c, 0, 50, 74
1, 314891, Control_c, 0, 64, 0
1, 314944, Control_c, 0, 64, 127
1, 314960, Note_on_c, 0, 50, 0
1, 314960, Note_on_c, 0, 70, 0
1, 314960, Note_on_c, 0, 58, 0
1, 314960, Note_on_c, 0, 65, 0
1, 314960, Note_on_c, 0, 38, 0
1, 315000, Tempo, 482393
1, 315040, Note_on_c, 0, 62, 68
1, 315040, Note_on_c, 0, 65, 80
1, 315040, Note_on_c, 0, 74, 95
1, 315040, Note_on_c, 0, 53, 50
1, 315040, Note_on_c, 0, 46, 50
1, 315040, Note_on_c, 0, 58, 71
1, 315200, Note_on_c, 0, 58, 0
1, 315200, Note_on_c, 0, 65, 0
1, 315200, Note_on_c, 0, 74, 0
1, 315200, Note_on_c, 0, 62, 0
1, 315200, Note_on_c, 0, 46, 0
1, 315200, Note_on_c, 0, 53, 0
1, 315200, Note_on_c, 0, 62, 68
1, 315200, Note_on_c, 0, 65, 80
1, 315200, Note_on_c, 0, 74, 95
1, 315200, Note_on_c, 0, 53, 51
1, 315200, Note_on_c, 0, 46, 51
1, 315200, Note_on_c, 0, 58, 72
1, 315240, Tempo, 507271
1, 315360, Tempo, 488003
1, 315360, Note_on_c, 0, 58, 0
1, 315360, Note_on_c, 0, 65, 0
1, 315360, Note_on_c, 0, 74, 0
1, 315360, Note_on_c, 0, 62, 0
1, 315360, Note_on_c, 0, 46, 0
1, 315360, Note_on_c, 0, 53, 0
1, 315360, Note_on_c, 0, 62, 72
1, 315360, Note_on_c, 0, 65, 85
1, 315360, Note_on_c, 0, 74, 101
1, 315360, Note_on_c, 0, 46, 53
1, 315360, Note_on_c, 0, 53, 53
1, 315360, Note_on_c, 0, 58, 75
1, 315374, Control_c, 0, 64, 0
1, 315434, Control_c, 0, 64, 127
1, 315520, Note_on_c, 0, 58, 0
1, 315520, Note_on_c, 0, 65, 0
1, 315520, Note_on_c, 0, 74, 0
1, 315520, Note_on_c, 0, 62, 0
1, 315520, Note_on_c, 0, 53, 0
1, 315520, Note_on_c, 0, 46, 0
1, 315520, Note_on_c, 0, 60, 68
1, 315520, Note_on_c, 0, 72, 95
1, 315600, Tempo, 502260
1, 315680, Note_on_c, 0, 72, 0
1, 315680, Note_on_c, 0, 60, 0
1, 315680, Note_on_c, 0, 58, 68
1, 315680, Note_on_c, 0, 70, 95
1, 315840, Tempo, 530786
1, 315840, Note_on_c, 0, 70, 0
1, 315840, Note_on_c, 0, 58, 0
1, 315840, Note_on_c, 0, 27, 68
1, 315840, Note_on_c, 0, 39, 96
1, 315850, Control_c, 0, 64, 0
1, 315904, Control_c, 0, 64, 127
1, 315960, Tempo, 488798
1, 316000, Note_on_c, 0, 39, 0
1, 316000, Note_on_c, 0, 27, 0
1, 316000, Note_on_c, 0, 62, 68
1, 316000, Note_on_c, 0, 66, 80
1, 316000, Note_on_c, 0, 74, 95
1, 316000, Note_on_c, 0, 51, 50
1, 316000, Note_on_c, 0, 46, 50
1, 316000, Note_on_c, 0, 58, 71
1, 316160, Note_on_c, 0, 58, 0
1, 316160, Note_on_c, 0, 66, 0
1, 316160, Note_on_c, 0, 74, 0
1, 316160, Note_on_c, 0, 62, 0
1, 316160, Note_on_c, 0, 46, 0
1, 316160, Note_on_c, 0, 51, 0
1, 316160, Note_on_c, 0, 62, 68
1, 316160, Note_on_c, 0, 66, 80
1, 316160, Note_on_c, 0, 74, 95
1, 316160, Note_on_c, 0, 51, 51
1, 316160, Note_on_c, 0, 46, 51
1, 316160, Note_on_c, 0, 58, 72
1, 316200, Tempo, 509727
1, 316320, Tempo, 495050
1, 316320, Note_on_c, 0, 58, 0
1, 316320, Note_on_c, 0, 66, 0
1, 316320, Note_on_c, 0, 74, 0
1, 316320, Note_on_c, 0, 62, 0
1, 316320, Note_on_c, 0, 46, 0
1, 316320, Note_on_c, 0, 51, 0
1, 316320, Note_on_c, 0, 62, 72
1, 316320, Note_on_c, 0, 66, 85
1, 316320, Note_on_c, 0, 74, 101
1, 316320, Note_on_c, 0, 46, 53
1, 316320, Note_on_c, 0, 51, 53
1, 316320, Note_on_c, 0, 58, 75
1, 316334, Control_c, 0, 64, 0
1, 316394, Control_c, 0, 64, 127
1, 316480, Note_on_c, 0, 58, 0
1, 316480, Note_on_c, 0, 66, 0
1, 316480, Note_on_c, 0, 74, 0
1, 316480, Note_on_c, 0, 62, 0
1, 316480, Note_on_c, 0, 51, 0
1, 316480, Note_on_c, 0, 46, 0
1, 316480, Note_on_c, 0, 60, 68
1, 316480, Note_on_c, 0, 72, 95
1, 316560, Tempo, 507271
1, 316640, Note_on_c, 0, 72, 0
1, 316640, Note_on_c, 0, 60, 0
1, 316640, Note_on_c, 0, 58, 68
1, 316640, Note_on_c, 0, 70, 95
1, 316800, Tempo, 533476
1, 316800, Note_on_c, 0, 70, 0
1, 316800, Note_on_c, 0, 58, 0
1, 316800, Note_on_c, 0, 29, 68
1, 316800, Note_on_c, 0, 41, 96
1, 316810, Control_c, 0, 64, 0
1, 316864, Control_c, 0, 64, 127
1, 316920, Tempo, 490316
1, 316960, Note_on_c, 0, 41, 0
1, 316960, Note_on_c, 0, 29, 0
1, 316960, Note_on_c, 0, 62, 68
1, 316960, Note_on_c, 0, 65, 80
1, 316960, Note_on_c, 0, 74, 95
1, 316960, Note_on_c, 0, 53, 50
1, 316960, Note_on_c, 0, 46, 50
1, 316960, Note_on_c, 0, 58, 71
1, 317120, Note_on_c, 0, 58, 0
1, 317120, Note_on_c, 0, 65, 0
1, 317120, Note_on_c, 0, 74, 0
1, 317120, Note_on_c, 0, 62, 0
1, 317120, Note_on_c, 0, 46, 0
1, 317120, Note_on_c, 0, 53, 0
1, 317120, Note_on_c, 0, 62, 68
1, 317120, Note_on_c, 0, 65, 80
1, 317120, Note_on_c, 0, 74, 95
1, 317120, Note_on_c, 0, 53, 51
1, 317120, Note_on_c, 0, 46, 51
1, 317120, Note_on_c, 0, 58, 72
1, 317160, Tempo, 512295
1, 317280, Tempo, 492651
1, 317280, Note_on_c, 0, 58, 0
1, 317280, Note_on_c, 0, 65, 0
1, 317280, Note_on_c, 0, 74, 0
1, 317280, Note_on_c, 0, 62, 0
1, 317280, Note_on_c, 0, 46, 0
1, 317280, Note_on_c, 0, 53, 0
1, 317280, Note_on_c, 0, 62, 72
1, 317280, Note_on_c, 0, 65, 85
1, 317280, Note_on_c, 0, 74, 101
1, 317280, Note_on_c, 0, 46, 53
1, 317280, Note_on_c, 0, 53, 53
1, 317280, Note_on_c, 0, 58, 75
1, 317294, Control_c, 0, 64, 0
1, 317354, Control_c, 0, 64, 127
1, 317440, Note_on_c, 0, 58, 0
1, 317440, Note_on_c, 0, 65, 0
1, 317440, Note_on_c, 0, 74, 0
1, 317440, Note_on_c, 0, 62, 0
1, 317440, Note_on_c, 0, 53, 0
1, 317440, Note_on_c, 0, 46, 0
1, 317440, Note_on_c, 0, 60, 68
1, 317440, Note_on_c, 0, 72, 95
1, 317520, Tempo, 520111
1, 317600, Note_on_c, 0, 72, 0
1, 317600, Note_on_c, 0, 60, 0
1, 317600, Note_on_c, 0, 58, 68
1, 317600, Note_on_c, 0, 70, 95
1, 317760, Tempo, 550661
1, 317760, Note_on_c, 0, 70, 0
1, 317760, Note_on_c, 0, 58, 0
1, 317760, Note_on_c, 0, 30, 68
1, 317760, Note_on_c, 0, 42, 96
1, 317770, Control_c, 0, 64, 0
1, 317824, Control_c, 0, 64, 127
1, 317920, Tempo, 509727
1, 317920, Note_on_c, 0, 42, 0
1, 317920, Note_on_c, 0, 30, 0
1, 317920, Note_on_c, 0, 63, 80
1, 317920, Note_on_c, 0, 74, 95
1, 317920, Note_on_c, 0, 51, 50
1, 317920, Note_on_c, 0, 46, 50
1, 317920, Note_on_c, 0, 58, 71
1, 317960, Tempo, 512295
1, 317980, Tempo, 514889
1, 318000, Tempo, 517420
1, 318040, Tempo, 520111
1, 318060, Tempo, 522694
1, 318080, Tempo, 525348
1, 318080, Note_on_c, 0, 58, 0
1, 318080, Note_on_c, 0, 51, 0
1, 318080, Note_on_c, 0, 63, 0
1, 318080, Note_on_c, 0, 74, 0
1, 318080, Note_on_c, 0, 46, 0
1, 318080, Note_on_c, 0, 63, 80
1, 318080, Note_on_c, 0, 74, 95
1, 318080, Note_on_c, 0, 51, 51
1, 318080, Note_on_c, 0, 46, 51
1, 318080, Note_on_c, 0, 58, 72
1, 318100, Tempo, 528030
1, 318140, Tempo, 530786
1, 318160, Tempo, 533476
1, 318180, Tempo, 536337
1, 318220, Tempo, 539084
1, 318240, Tempo, 541956
1, 318240, Note_on_c, 0, 58, 0
1, 318240, Note_on_c, 0, 51, 0
1, 318240, Note_on_c, 0, 63, 0
1, 318240, Note_on_c, 0, 74, 0
1, 318240, Note_on_c, 0, 46, 0
1, 318240, Note_on_c, 0, 63, 85
1, 318240, Note_on_c, 0, 74, 101
1, 318240, Note_on_c, 0, 46, 53
1, 318240, Note_on_c, 0, 51, 53
1, 318240, Note_on_c, 0, 58, 75
1, 318254, Control_c, 0, 64, 0
1, 318260, Tempo, 544860
1, 318280, Tempo, 547695
1, 318314, Control_c, 0, 64, 127
1, 318320, Tempo, 550661
1, 318340, Tempo, 553710
1, 318360, Tempo, 556586
1, 318400, Tempo, 559701
1, 318400, Note_on_c, 0, 58, 0
1, 318400, Note_on_c, 0, 46, 0
1, 318400, Note_on_c, 0, 51, 0
1, 318400, Note_on_c, 0, 74, 0
1, 318400, Note_on_c, 0, 72, 95
1, 318420, Tempo, 562693
1, 318440, Tempo, 565771
1, 318460, Tempo, 568882
1, 318560, Note_on_c, 0, 72, 0
1, 318560, Note_on_c, 0, 70, 95
1, 318600, Note_on_c, 0, 31, 60
1, 318600, Note_on_c, 0, 43, 72
1, 318720, Tempo, 553403
1, 318720, Note_on_c, 0, 43, 0
1, 318720, Note_on_c, 0, 63, 0
1, 318720, Note_on_c, 0, 70, 0
1, 318720, Note_on_c, 0, 31, 0
1, 318720, Note_on_c, 0, 62, 84
1, 318720, Note_on_c, 0, 65, 84
1, 318720, Note_on_c, 0, 70, 101
1, 318720, Note_on_c, 0, 74, 101
1, 318720, Note_on_c, 0, 32, 73
1, 318720, Note_on_c, 0, 44, 86
1, 318720, Control_c, 0, 64, 0
1, 318780, Note_on_c, 0, 44, 0
1, 318780, Note_on_c, 0, 32, 0
1, 318840, Note_on_c, 0, 29, 66
1, 318840, Note_on_c, 0, 41, 79
1, 318900, Note_on_c, 0, 41, 0
1, 318900, Note_on_c, 0, 29, 0
1, 319080, Tempo, 576092
1, 319080, Note_on_c, 0, 31, 73
1, 319080, Note_on_c, 0, 43, 86
1, 319140, Tempo, 638298
1, 319140, Note_on_c, 0, 43, 0
1, 319140, Note_on_c, 0, 31, 0
1, 319200, Tempo, 547995
1, 319200, Note_on_c, 0, 32, 68
1, 319200, Note_on_c, 0, 44, 81
1, 319260, Note_on_c, 0, 44, 0
1, 319260, Note_on_c, 0, 32, 0
1, 319320, Note_on_c, 0, 29, 68
1, 319320, Note_on_c, 0, 41, 81
1, 319380, Note_on_c, 0, 41, 0
1, 319380, Note_on_c, 0, 29, 0
1, 319440, Tempo, 564546
1, 319680, Tempo, 528634
1, 319680, Note_on_c, 0, 70, 0
1, 319680, Note_on_c, 0, 62, 0
1, 319680, Note_on_c, 0, 65, 0
1, 319680, Note_on_c, 0, 74, 0
1, 319680, Note_on_c, 0, 62, 71
1, 319680, Note_on_c, 0, 65, 71
1, 319680, Note_on_c, 0, 70, 84
1, 319680, Note_on_c, 0, 74, 84
1, 319680, Note_on_c, 0, 32, 56
1, 319680, Note_on_c, 0, 44, 67
1, 319800, Note_on_c, 0, 44, 0
1, 319800, Note_on_c, 0, 32, 0
1, 319800, Note_on_c, 0, 29, 49
1, 319800, Note_on_c, 0, 41, 60
1, 319860, Note_on_c, 0, 41, 0
1, 319860, Note_on_c, 0, 29, 0
1, 319920, Tempo, 512821
1, 320040, Tempo, 498795
1, 320040, Note_on_c, 0, 31, 52
1, 320040, Note_on_c, 0, 43, 62
1, 320060, Tempo, 472962
1, 320160, Tempo, 520653
1, 320160, Note_on_c, 0, 43, 0
1, 320160, Note_on_c, 0, 65, 0
1, 320160, Note_on_c, 0, 70, 0
1, 320160, Note_on_c, 0, 62, 0
1, 320160, Note_on_c, 0, 31, 0
1, 320160, Note_on_c, 0, 74, 0
1, 320160, Note_on_c, 0, 62, 69
1, 320160, Note_on_c, 0, 65, 69
1, 320160, Note_on_c, 0, 71, 83
1, 320160, Note_on_c, 0, 74, 83
1, 320160, Note_on_c, 0, 32, 51
1, 320160, Note_on_c, 0, 44, 61
1, 320280, Note_on_c, 0, 44, 0
1, 320280, Note_on_c, 0, 32, 0
1, 320280, Note_on_c, 0, 29, 51
1, 320280, Note_on_c, 0, 41, 61
1, 320340, Note_on_c, 0, 41, 0
1, 320340, Note_on_c, 0, 29, 0
1, 320400, Tempo, 505178
1, 320640, Tempo, 515021
1, 320640, Note_on_c, 0, 74, 0
1, 320640, Note_on_c, 0, 62, 0
1, 320640, Note_on_c, 0, 65, 0
1, 320640, Note_on_c, 0, 71, 0
1, 320640, Note_on_c, 0, 62, 69
1, 320640, Note_on_c, 0, 65, 69
1, 320640, Note_on_c, 0, 70, 82
1, 320640, Note_on_c, 0, 74, 82
1, 320640, Note_on_c, 0, 32, 56
1, 320640, Note_on_c, 0, 44, 67
1, 320760, Note_on_c, 0, 44, 0
1, 320760, Note_on_c, 0, 32, 0
1, 320760, Note_on_c, 0, 29, 50
1, 320760, Note_on_c, 0, 41, 60
1, 320820, Note_on_c, 0, 41, 0
1, 320820, Note_on_c, 0, 29, 0
1, 320880, Tempo, 488520
1, 321000, Tempo, 471069
1, 321000, Note_on_c, 0, 31, 52
1, 321000, Note_on_c, 0, 43, 66
1, 321120, Tempo, 502849
1, 321120, Note_on_c, 0, 43, 0
1, 321120, Note_on_c, 0, 65, 0
1, 321120, Note_on_c, 0, 70, 0
1, 321120, Note_on_c, 0, 62, 0
1, 321120, Note_on_c, 0, 31, 0
1, 321120, Note_on_c, 0, 74, 0
1, 321120, Note_on_c, 0, 62, 68
1, 321120, Note_on_c, 0, 65, 68
1, 321120, Note_on_c, 0, 71, 82
1, 321120, Note_on_c, 0, 74, 82
1, 321120, Note_on_c, 0, 32, 51
1, 321120, Note_on_c, 0, 44, 62
1, 321240, Note_on_c, 0, 44, 0
1, 321240, Note_on_c, 0, 32, 0
1, 321240, Note_on_c, 0, 29, 52
1, 321240, Note_on_c, 0, 41, 63
1, 321300, Note_on_c, 0, 41, 0
1, 321300, Note_on_c, 0, 29, 0
1, 321360, Tempo, 493949
1, 321600, Tempo, 506329
1, 321600, Note_on_c, 0, 74, 0
1, 321600, Note_on_c, 0, 62, 0
1, 321600, Note_on_c, 0, 65, 0
1, 321600, Note_on_c, 0, 71, 0
1, 321600, Note_on_c, 0, 63, 74
1, 321600, Note_on_c, 0, 66, 74
1, 321600, Note_on_c, 0, 71, 88
1, 321600, Note_on_c, 0, 75, 88
1, 321600, Note_on_c, 0, 33, 60
1, 321600, Note_on_c, 0, 45, 74
1, 321600, Control_c, 0, 64, 127
1, 321720, Note_on_c, 0, 45, 0
1, 321720, Note_on_c, 0, 33, 0
1, 321720, Note_on_c, 0, 30, 56
1, 321720, Note_on_c, 0, 42, 63
1, 321754, Control_c, 0, 64, 0
1, 321780, Note_on_c, 0, 42, 0
1, 321780, Note_on_c, 0, 30, 0
1, 321840, Tempo, 476758
1, 321960, Tempo, 469227
1, 321960, Note_on_c, 0, 31, 59
1, 321960, Note_on_c, 0, 43, 71
1, 321980, Tempo, 461929
1, 322080, Tempo, 491803
1, 322080, Note_on_c, 0, 43, 0
1, 322080, Note_on_c, 0, 66, 0
1, 322080, Note_on_c, 0, 71, 0
1, 322080, Note_on_c, 0, 63, 0
1, 322080, Note_on_c, 0, 31, 0
1, 322080, Note_on_c, 0, 75, 0
1, 322080, Note_on_c, 0, 63, 72
1, 322080, Note_on_c, 0, 66, 72
1, 322080, Note_on_c, 0, 72, 88
1, 322080, Note_on_c, 0, 75, 88
1, 322080, Note_on_c, 0, 33, 57
1, 322080, Note_on_c, 0, 45, 69
1, 322109, Control_c, 0, 64, 127
1, 322200, Note_on_c, 0, 45, 0
1, 322200, Note_on_c, 0, 33, 0
1, 322200, Note_on_c, 0, 42, 57
1, 322200, Note_on_c, 0, 54, 69
1, 322260, Note_on_c, 0, 54, 0
1, 322260, Note_on_c, 0, 42, 0
1, 322274, Control_c, 0, 64, 0
1, 322300, Tempo, 484535
1, 322560, Tempo, 491803
1, 322560, Note_on_c, 0, 75, 0
1, 322560, Note_on_c, 0, 63, 0
1, 322560, Note_on_c, 0, 66, 0
1, 322560, Note_on_c, 0, 72, 0
1, 322560, Note_on_c, 0, 64, 74
1, 322560, Note_on_c, 0, 67, 74
1, 322560, Note_on_c, 0, 72, 88
1, 322560, Note_on_c, 0, 76, 88
1, 322560, Note_on_c, 0, 34, 63
1, 322560, Note_on_c, 0, 46, 75
1, 322560, Control_c, 0, 64, 127
1, 322680, Note_on_c, 0, 46, 0
1, 322680, Note_on_c, 0, 34, 0
1, 322680, Note_on_c, 0, 31, 56
1, 322680, Note_on_c, 0, 43, 67
1, 322740, Note_on_c, 0, 43, 0
1, 322740, Note_on_c, 0, 31, 0
1, 322744, Control_c, 0, 64, 0
1, 322800, Tempo, 467363
1, 322920, Tempo, 453104
1, 322920, Note_on_c, 0, 33, 61
1, 322920, Note_on_c, 0, 45, 71
1, 323040, Tempo, 491803
1, 323040, Note_on_c, 0, 45, 0
1, 323040, Note_on_c, 0, 67, 0
1, 323040, Note_on_c, 0, 72, 0
1, 323040, Note_on_c, 0, 64, 0
1, 323040, Note_on_c, 0, 33, 0
1, 323040, Note_on_c, 0, 76, 0
1, 323040, Note_on_c, 0, 64, 73
1, 323040, Note_on_c, 0, 67, 73
1, 323040, Note_on_c, 0, 73, 87
1, 323040, Note_on_c, 0, 76, 87
1, 323040, Note_on_c, 0, 34, 59
1, 323040, Note_on_c, 0, 46, 71
1, 323104, Control_c, 0, 64, 127
1, 323160, Note_on_c, 0, 46, 0
1, 323160, Note_on_c, 0, 34, 0
1, 323160, Note_on_c, 0, 43, 60
1, 323160, Note_on_c, 0, 55, 71
1, 323220, Note_on_c, 0, 55, 0
1, 323220, Note_on_c, 0, 43, 0
1, 323259, Control_c, 0, 64, 0
1, 323280, Tempo, 489796
1, 323520, Tempo, 485830
1, 323520, Note_on_c, 0, 76, 0
1, 323520, Note_on_c, 0, 64, 0
1, 323520, Note_on_c, 0, 67, 0
1, 323520, Note_on_c, 0, 73, 0
1, 323520, Note_on_c, 0, 65, 76
1, 323520, Note_on_c, 0, 68, 76
1, 323520, Note_on_c, 0, 73, 93
1, 323520, Note_on_c, 0, 77, 93
1, 323520, Note_on_c, 0, 35, 68
1, 323520, Note_on_c, 0, 47, 79
1, 323520, Control_c, 0, 64, 127
1, 323640, Note_on_c, 0, 47, 0
1, 323640, Note_on_c, 0, 35, 0
1, 323640, Note_on_c, 0, 47, 60
1, 323640, Note_on_c, 0, 59, 73
1, 323700, Note_on_c, 0, 59, 0
1, 323700, Note_on_c, 0, 47, 0
1, 323714, Control_c, 0, 64, 0
1, 323880, Tempo, 469227
1, 324000, Tempo, 458015
1, 324000, Note_on_c, 0, 77, 0
1, 324000, Note_on_c, 0, 65, 0
1, 324000, Note_on_c, 0, 68, 0
1, 324000, Note_on_c, 0, 73, 0
1, 324000, Note_on_c, 0, 65, 76
1, 324000, Note_on_c, 0, 69, 76
1, 324000, Note_on_c, 0, 75, 92
1, 324000, Note_on_c, 0, 77, 92
1, 324000, Note_on_c, 0, 36, 68
1, 324000, Note_on_c, 0, 48, 68
1, 324040, Tempo, 459770
1, 324080, Tempo, 463320
1, 324080, Control_c, 0, 64, 127
1, 324120, Tempo, 465116
1, 324160, Tempo, 468750
1, 324160, Note_on_c, 0, 48, 0
1, 324160, Note_on_c, 0, 36, 0
1, 324160, Note_on_c, 0, 48, 74
1, 324160, Note_on_c, 0, 60, 74
1, 324200, Tempo, 470588
1, 324240, Tempo, 474308
1, 324260, Tempo, 488520
1, 324320, Tempo, 516129
1, 324320, Note_on_c, 0, 60, 0
1, 324320, Note_on_c, 0, 48, 0
1, 324320, Note_on_c, 0, 49, 78
1, 324320, Note_on_c, 0, 61, 78
1, 324480, Tempo, 491803
1, 324480, Note_on_c, 0, 61, 0
1, 324480, Note_on_c, 0, 69, 0
1, 324480, Note_on_c, 0, 75, 0
1, 324480, Note_on_c, 0, 65, 0
1, 324480, Note_on_c, 0, 49, 0
1, 324480, Note_on_c, 0, 77, 0
1, 324480, Note_on_c, 0, 65, 78
1, 324480, Note_on_c, 0, 70, 93
1, 324480, Note_on_c, 0, 77, 93
1, 324480, Note_on_c, 0, 50, 66
1, 324480, Note_on_c, 0, 58, 66
1, 324480, Note_on_c, 0, 62, 79
1, 324487, Control_c, 0, 64, 0
1, 324680, Control_c, 0, 64, 127
1, 324960, Tempo, 497925
1, 324960, Note_on_c, 0, 62, 0
1, 324960, Note_on_c, 0, 70, 0
1, 324960, Note_on_c, 0, 77, 0
1, 324960, Note_on_c, 0, 65, 0
1, 324960, Note_on_c, 0, 58, 0
1, 324960, Note_on_c, 0, 50, 0
1, 324960, Note_on_c, 0, 66, 79
1, 324960, Note_on_c, 0, 70, 94
1, 324960, Note_on_c, 0, 78, 94
1, 324960, Note_on_c, 0, 51, 67
1, 324960, Note_on_c, 0, 58, 67
1, 324960, Note_on_c, 0, 63, 80
1, 324980, Control_c, 0, 64, 0
1, 325200, Control_c, 0, 64, 127
1, 325440, Tempo, 480615
1, 325440, Note_on_c, 0, 63, 0
1, 325440, Note_on_c, 0, 70, 0
1, 325440, Note_on_c, 0, 78, 0
1, 325440, Note_on_c, 0, 66, 0
1, 325440, Note_on_c, 0, 58, 0
1, 325440, Note_on_c, 0, 51, 0
1, 325440, Note_on_c, 0, 70, 79
1, 325440, Note_on_c, 0, 72, 79
1, 325440, Note_on_c, 0, 75, 95
1, 325440, Note_on_c, 0, 82, 95
1, 325440, Note_on_c, 0, 54, 67
1, 325440, Note_on_c, 0, 58, 67
1, 325440, Note_on_c, 0, 60, 67
1, 325440, Note_on_c, 0, 63, 67
1, 325440, Note_on_c, 0, 66, 80
1, 325455, Control_c, 0, 64, 0
1, 325587, Control_c, 0, 64, 127
1, 325920, Tempo, 498795
1, 325920, Note_on_c, 0, 66, 0
1, 325920, Note_on_c, 0, 82, 0
1, 325920, Note_on_c, 0, 70, 0
1, 325920, Note_on_c, 0, 54, 0
1, 325920, Note_on_c, 0, 72, 0
1, 325920, Note_on_c, 0, 75, 0
1, 325920, Note_on_c, 0, 60, 0
1, 325920, Note_on_c, 0, 58, 0
1, 325920, Note_on_c, 0, 63, 0
1, 325920, Note_on_c, 0, 69, 77
1, 325920, Note_on_c, 0, 72, 77
1, 325920, Note_on_c, 0, 75, 93
1, 325920, Note_on_c, 0, 81, 93
1, 325920, Note_on_c, 0, 53, 65
1, 325920, Note_on_c, 0, 60, 65
1, 325920, Note_on_c, 0, 63, 65
1, 325920, Note_on_c, 0, 65, 78
1, 325940, Control_c, 0, 64, 0
1, 326200, Control_c, 0, 64, 127
1, 326400, Tempo, 485830
1, 326400, Note_on_c, 0, 65, 0
1, 326400, Note_on_c, 0, 69, 0
1, 326400, Note_on_c, 0, 53, 0
1, 326400, Note_on_c, 0, 72, 0
1, 326400, Note_on_c, 0, 75, 0
1, 326400, Note_on_c, 0, 81, 0
1, 326400, Note_on_c, 0, 60, 0
1, 326400, Note_on_c, 0, 63, 0
1, 326400, Note_on_c, 0, 70, 85
1, 326400, Note_on_c, 0, 74, 102
1, 326400, Note_on_c, 0, 82, 102
1, 326400, Note_on_c, 0, 46, 72
1, 326400, Note_on_c, 0, 58, 86
1, 326416, Control_c, 0, 64, 0
1, 326587, Control_c, 0, 64, 127
1, 326880, Tempo, 505178
1, 326880, Note_on_c, 0, 58, 0
1, 326880, Note_on_c, 0, 82, 0
1, 326880, Note_on_c, 0, 70, 0
1, 326880, Note_on_c, 0, 74, 0
1, 326880, Note_on_c, 0, 46, 0
1, 326880, Note_on_c, 0, 70, 84
1, 326880, Note_on_c, 0, 75, 84
1, 326880, Note_on_c, 0, 78, 101
1, 326880, Note_on_c, 0, 82, 101
1, 326880, Note_on_c, 0, 39, 70
1, 326880, Note_on_c, 0, 51, 86
1, 326897, Control_c, 0, 64, 0
1, 327093, Control_c, 0, 64, 127
1, 327360, Tempo, 500918
1, 327360, Note_on_c, 0, 51, 0
1, 327360, Note_on_c, 0, 75, 0
1, 327360, Note_on_c, 0, 78, 0
1, 327360, Note_on_c, 0, 70, 0
1, 327360, Note_on_c, 0, 39, 0
1, 327360, Note_on_c, 0, 82, 0
1, 327360, Note_on_c, 0, 70, 85
1, 327360, Note_on_c, 0, 74, 85
1, 327360, Note_on_c, 0, 77, 101
1, 327360, Note_on_c, 0, 82, 101
1, 327360, Note_on_c, 0, 34, 72
1, 327360, Note_on_c, 0, 46, 87
1, 327372, Control_c, 0, 64, 0
1, 327520, Control_c, 0, 64, 127
1, 327840, Tempo, 516129
1, 327840, Note_on_c, 0, 46, 0
1, 327840, Note_on_c, 0, 74, 0
1, 327840, Note_on_c, 0, 77, 0
1, 327840, Note_on_c, 0, 70, 0
1, 327840, Note_on_c, 0, 34, 0
1, 327840, Note_on_c, 0, 82, 0
1, 327840, Note_on_c, 0, 70, 85
1, 327840, Note_on_c, 0, 75, 85
1, 327840, Note_on_c, 0, 78, 101
1, 327840, Note_on_c, 0, 82, 101
1, 327840, Note_on_c, 0, 27, 70
1, 327840, Note_on_c, 0, 39, 86
1, 327858, Control_c, 0, 64, 0
1, 327973, Control_c, 0, 64, 127
1, 328320, Note_on_c, 0, 39, 0
1, 328320, Note_on_c, 0, 75, 0
1, 328320, Note_on_c, 0, 78, 0
1, 328320, Note_on_c, 0, 70, 0
1, 328320, Note_on_c, 0, 27, 0
1, 328320, Note_on_c, 0, 82, 0
1, 328320, Note_on_c, 0, 70, 91
1, 328320, Note_on_c, 0, 74, 91
1, 328320, Note_on_c, 0, 77, 108
1, 328320, Note_on_c, 0, 82, 108
1, 328320, Note_on_c, 0, 34, 74
1, 328320, Note_on_c, 0, 46, 92
1, 328327, Control_c, 0, 64, 0
1, 328680, Control_c, 0, 64, 127
1, 329280, Note_on_c, 0, 46, 0
1, 329280, Note_on_c, 0, 74, 0
1, 329280, Note_on_c, 0, 77, 0
1, 329280, Note_on_c, 0, 70, 0
1, 329280, Note_on_c, 0, 34, 0
1, 329280, Note_on_c, 0, 82, 0
1, 329280, Note_on_c, 0, 82, 100
1, 329280, Note_on_c, 0, 94, 117
1, 329280, Note_on_c, 0, 62, 74
1, 329280, Note_on_c, 0, 65, 74
1, 329280, Note_on_c, 0, 70, 77
1, 329280, Note_on_c, 0, 74, 95
1, 330240, Tempo, 1484047
1, 330240, Note_on_c, 0, 74, 0
1, 330240, Note_on_c, 0, 94, 0
1, 330240, Note_on_c, 0, 62, 0
1, 330240, Note_on_c, 0, 82, 0
1, 330240, Note_on_c, 0, 70, 0
1, 330240, Note_on_c, 0, 65, 0
1, 330240, Note_on_c, 0, 62, 105
1, 330240, Note_on_c, 0, 46, 65
1, 330240, Note_on_c, 0, 34, 59
1, 330240, Note_on_c, 0, 41, 60
1, 330240, Note_on_c, 0, 50, 67
1, 330240, Note_on_c, 0, 53, 71
1, 330240, Note_on_c, 0, 58, 91
1, 331200, Tempo, 547945
1, 331200, Note_on_c, 0, 58, 0
1, 331200, Note_on_c, 0, 50, 0
1, 331200, Note_on_c, 0, 46, 0
1, 331200, Note_on_c, 0, 34, 0
1, 331200, Note_on_c, 0, 62, 0
1, 331200, Note_on_c, 0, 53, 0
1, 331200, Note_on_c, 0, 41, 0
1, 331200, Control_c, 0, 64, 0
1, 331200, End_track
0, 0, End_of_file
