0, 0, Header, 0, 1, 480
1, 0, Start_track
1, 0, Title_t, "Chopin Prelude  No. 5, Opus 28"
1, 0, Copyright_t, "Copyright © 2002 by Bernd Krueger "
1, 0, Text_t, "Frederic Chopin"
1, 0, Text_t, "Molto allegro"
1, 0, Text_t, "Fertiggestellt am  27.8.2002\012"
1, 0, Text_t, "Normierung: 23.12.2002\012"
1, 0, Text_t, "Update am 24.12.2002\012"
1, 0, Text_t, "Update am 7.6.2010\012"
1, 0, Text_t, "Update am 20.2.2014\012"
1, 0, Text_t, "Dauer: 0:33 Minuten\012"
1, 0, SMPTE_offset, 96, 0, 3, 0, 0
1, 0, Time_signature, 3, 3, 12, 8
1, 0, Key_signature, 2, "major"
1, 0, Tempo, 573888
1, 0, Program_c, 0, 0
1, 0, Control_c, 0, 7, 100
1, 0, Control_c, 0, 10, 64
1, 0, Note_on_c, 0, 71, 45
1, 0, Text_t, "bdca426d104a26ac9dcb070447587523"
1, 0, Control_c, 0, 91, 127
1, 0, Program_c, 0, 0
1, 0, Control_c, 0, 7, 100
1, 0, Control_c, 0, 10, 64
1, 0, Control_c, 0, 64, 0
1, 0, Control_c, 0, 7, 127
1, 0, Control_c, 0, 10, 64
1, 0, Control_c, 0, 7, 127
1, 0, Control_c, 0, 10, 64
1, 120, Note_on_c, 0, 71, 0
1, 120, Note_on_c, 0, 69, 40
1, 240, Tempo, 563116
1, 240, Note_on_c, 0, 69, 0
1, 240, Note_on_c, 0, 61, 30
1, 240, Control_c, 0, 64, 127
1, 240, Note_on_c, 0, 55, 38
1, 300, Tempo, 560486
1, 360, Tempo, 557880
1, 360, Note_on_c, 0, 55, 0
1, 360, Note_on_c, 0, 61, 0
1, 360, Note_on_c, 0, 71, 53
1, 360, Note_on_c, 0, 45, 34
1, 420, Tempo, 555298
1, 480, Tempo, 552741
1, 480, Note_on_c, 0, 45, 0
1, 480, Note_on_c, 0, 76, 51
1, 480, Note_on_c, 0, 55, 32
1, 540, Tempo, 550206
1, 600, Tempo, 547695
1, 600, Note_on_c, 0, 55, 0
1, 600, Note_on_c, 0, 76, 0
1, 600, Note_on_c, 0, 71, 0
1, 600, Note_on_c, 0, 69, 42
1, 600, Note_on_c, 0, 64, 31
1, 660, Tempo, 545207
1, 700, Tempo, 542741
1, 720, Tempo, 528914
1, 720, Note_on_c, 0, 64, 0
1, 720, Note_on_c, 0, 69, 0
1, 720, Note_on_c, 0, 61, 46
1, 720, Note_on_c, 0, 55, 45
1, 733, Control_c, 0, 64, 0
1, 754, Control_c, 0, 64, 127
1, 786, Tempo, 525947
1, 840, Note_on_c, 0, 55, 0
1, 840, Note_on_c, 0, 61, 0
1, 840, Note_on_c, 0, 70, 65
1, 840, Note_on_c, 0, 45, 39
1, 851, Tempo, 523013
1, 895, Tempo, 520111
1, 960, Tempo, 517241
1, 960, Note_on_c, 0, 45, 0
1, 960, Note_on_c, 0, 76, 57
1, 960, Note_on_c, 0, 55, 43
1, 1026, Tempo, 514403
1, 1069, Tempo, 511596
1, 1080, Note_on_c, 0, 55, 0
1, 1080, Note_on_c, 0, 76, 0
1, 1080, Note_on_c, 0, 70, 0
1, 1080, Note_on_c, 0, 69, 50
1, 1080, Note_on_c, 0, 64, 41
1, 1135, Tempo, 508820
1, 1140, Note_on_c, 0, 64, 0
1, 1178, Tempo, 506073
1, 1200, Note_on_c, 0, 69, 0
1, 1200, Note_on_c, 0, 61, 59
1, 1200, Note_on_c, 0, 55, 50
1, 1209, Control_c, 0, 64, 0
1, 1244, Tempo, 503356
1, 1260, Control_c, 0, 64, 127
1, 1309, Tempo, 500668
1, 1320, Note_on_c, 0, 55, 0
1, 1320, Note_on_c, 0, 61, 0
1, 1320, Note_on_c, 0, 71, 67
1, 1320, Note_on_c, 0, 45, 39
1, 1353, Tempo, 498008
1, 1418, Tempo, 495376
1, 1440, Note_on_c, 0, 45, 0
1, 1440, Note_on_c, 0, 76, 69
1, 1440, Note_on_c, 0, 55, 49
1, 1462, Tempo, 490196
1, 1506, Tempo, 487646
1, 1549, Tempo, 485123
1, 1560, Note_on_c, 0, 55, 0
1, 1560, Note_on_c, 0, 76, 0
1, 1560, Note_on_c, 0, 71, 0
1, 1560, Note_on_c, 0, 69, 60
1, 1560, Note_on_c, 0, 64, 42
1, 1571, Tempo, 482625
1, 1615, Tempo, 480154
1, 1620, Note_on_c, 0, 64, 0
1, 1658, Tempo, 477707
1, 1680, Tempo, 475285
1, 1680, Note_on_c, 0, 69, 0
1, 1680, Note_on_c, 0, 61, 63
1, 1680, Note_on_c, 0, 55, 50
1, 1691, Control_c, 0, 64, 0
1, 1731, Control_c, 0, 64, 127
1, 1800, Note_on_c, 0, 55, 0
1, 1800, Note_on_c, 0, 61, 0
1, 1800, Note_on_c, 0, 70, 72
1, 1800, Note_on_c, 0, 45, 44
1, 1920, Note_on_c, 0, 45, 0
1, 1920, Note_on_c, 0, 76, 62
1, 1920, Note_on_c, 0, 55, 49
1, 2040, Note_on_c, 0, 55, 0
1, 2040, Note_on_c, 0, 76, 0
1, 2040, Note_on_c, 0, 70, 0
1, 2040, Note_on_c, 0, 69, 58
1, 2040, Note_on_c, 0, 64, 44
1, 2100, Note_on_c, 0, 64, 0
1, 2138, Tempo, 475285
1, 2160, Note_on_c, 0, 69, 0
1, 2160, Note_on_c, 0, 61, 63
1, 2160, Note_on_c, 0, 57, 50
1, 2172, Control_c, 0, 64, 0
1, 2182, Tempo, 477707
1, 2192, Control_c, 0, 64, 127
1, 2226, Tempo, 480154
1, 2248, Tempo, 482625
1, 2280, Note_on_c, 0, 57, 0
1, 2280, Note_on_c, 0, 61, 0
1, 2280, Note_on_c, 0, 71, 67
1, 2280, Note_on_c, 0, 45, 41
1, 2291, Tempo, 485123
1, 2335, Tempo, 487646
1, 2357, Tempo, 490196
1, 2400, Tempo, 492773
1, 2400, Note_on_c, 0, 45, 0
1, 2400, Note_on_c, 0, 76, 61
1, 2400, Note_on_c, 0, 55, 44
1, 2444, Tempo, 495376
1, 2466, Tempo, 498008
1, 2509, Tempo, 500668
1, 2520, Note_on_c, 0, 55, 0
1, 2520, Note_on_c, 0, 76, 0
1, 2520, Note_on_c, 0, 71, 0
1, 2520, Note_on_c, 0, 69, 50
1, 2520, Note_on_c, 0, 64, 35
1, 2553, Tempo, 503356
1, 2575, Tempo, 506073
1, 2580, Note_on_c, 0, 64, 0
1, 2618, Tempo, 508820
1, 2640, Tempo, 511596
1, 2640, Note_on_c, 0, 69, 0
1, 2640, Note_on_c, 0, 61, 48
1, 2640, Note_on_c, 0, 55, 35
1, 2649, Control_c, 0, 64, 0
1, 2660, Tempo, 524843
1, 2679, Control_c, 0, 64, 127
1, 2680, Tempo, 527333
1, 2720, Tempo, 529801
1, 2760, Tempo, 532340
1, 2760, Note_on_c, 0, 55, 0
1, 2760, Note_on_c, 0, 61, 0
1, 2760, Note_on_c, 0, 66, 46
1, 2760, Note_on_c, 0, 57, 30
1, 2780, Tempo, 534855
1, 2840, Tempo, 539957
1, 2860, Tempo, 535427
1, 2880, Tempo, 542741
1, 2880, Note_on_c, 0, 57, 0
1, 2880, Note_on_c, 0, 66, 0
1, 2880, Note_on_c, 0, 62, 49
1, 2880, Note_on_c, 0, 38, 38
1, 2895, Control_c, 0, 64, 0
1, 2940, Tempo, 540297
1, 2949, Control_c, 0, 64, 127
1, 3000, Tempo, 537875
1, 3000, Note_on_c, 0, 38, 0
1, 3000, Note_on_c, 0, 62, 0
1, 3000, Note_on_c, 0, 57, 45
1, 3000, Note_on_c, 0, 54, 34
1, 3040, Tempo, 535427
1, 3100, Tempo, 533096
1, 3120, Note_on_c, 0, 54, 0
1, 3120, Note_on_c, 0, 57, 0
1, 3120, Note_on_c, 0, 58, 45
1, 3120, Note_on_c, 0, 55, 35
1, 3132, Control_c, 0, 64, 0
1, 3140, Tempo, 530739
1, 3212, Control_c, 0, 64, 127
1, 3240, Note_on_c, 0, 55, 0
1, 3240, Note_on_c, 0, 58, 0
1, 3240, Note_on_c, 0, 59, 44
1, 3240, Note_on_c, 0, 43, 32
1, 3360, Tempo, 506073
1, 3360, Note_on_c, 0, 43, 0
1, 3360, Note_on_c, 0, 59, 0
1, 3360, Note_on_c, 0, 61, 40
1, 3360, Note_on_c, 0, 66, 48
1, 3360, Note_on_c, 0, 45, 37
1, 3371, Control_c, 0, 64, 0
1, 3480, Tempo, 535427
1, 3480, Note_on_c, 0, 45, 0
1, 3480, Note_on_c, 0, 66, 0
1, 3480, Note_on_c, 0, 61, 0
1, 3480, Note_on_c, 0, 64, 49
1, 3480, Note_on_c, 0, 55, 37
1, 3570, Note_on_c, 0, 55, 0
1, 3570, Note_on_c, 0, 64, 0
1, 3580, Tempo, 523789
1, 3600, Tempo, 530739
1, 3600, Note_on_c, 0, 62, 56
1, 3600, Note_on_c, 0, 54, 41
1, 3646, Control_c, 0, 64, 127
1, 3680, Tempo, 528402
1, 3720, Note_on_c, 0, 54, 0
1, 3720, Note_on_c, 0, 62, 0
1, 3720, Note_on_c, 0, 74, 51
1, 3720, Note_on_c, 0, 47, 36
1, 3760, Tempo, 526085
1, 3820, Tempo, 523789
1, 3840, Tempo, 519211
1, 3840, Note_on_c, 0, 47, 0
1, 3840, Note_on_c, 0, 74, 0
1, 3840, Note_on_c, 0, 66, 51
1, 3840, Note_on_c, 0, 62, 36
1, 3960, Note_on_c, 0, 62, 0
1, 3960, Note_on_c, 0, 66, 0
1, 3960, Note_on_c, 0, 69, 51
1, 3960, Note_on_c, 0, 54, 36
1, 4080, Tempo, 492166
1, 4080, Note_on_c, 0, 54, 0
1, 4080, Note_on_c, 0, 69, 0
1, 4080, Note_on_c, 0, 68, 48
1, 4080, Note_on_c, 0, 73, 57
1, 4080, Note_on_c, 0, 52, 42
1, 4090, Control_c, 0, 64, 0
1, 4200, Tempo, 528402
1, 4200, Note_on_c, 0, 52, 0
1, 4200, Note_on_c, 0, 73, 0
1, 4200, Note_on_c, 0, 68, 0
1, 4200, Note_on_c, 0, 71, 55
1, 4200, Note_on_c, 0, 62, 36
1, 4290, Note_on_c, 0, 62, 0
1, 4290, Note_on_c, 0, 71, 0
1, 4320, Note_on_c, 0, 64, 58
1, 4320, Note_on_c, 0, 61, 48
1, 4342, Tempo, 520246
1, 4366, Control_c, 0, 64, 127
1, 4408, Tempo, 517554
1, 4440, Note_on_c, 0, 61, 0
1, 4440, Note_on_c, 0, 64, 0
1, 4440, Note_on_c, 0, 69, 54
1, 4440, Note_on_c, 0, 57, 41
1, 4451, Tempo, 514889
1, 4495, Tempo, 512251
1, 4538, Tempo, 509684
1, 4560, Note_on_c, 0, 57, 0
1, 4560, Note_on_c, 0, 69, 0
1, 4560, Note_on_c, 0, 65, 54
1, 4560, Note_on_c, 0, 62, 39
1, 4574, Control_c, 0, 64, 0
1, 4582, Tempo, 507099
1, 4606, Control_c, 0, 64, 127
1, 4680, Note_on_c, 0, 62, 0
1, 4680, Note_on_c, 0, 65, 0
1, 4680, Note_on_c, 0, 66, 54
1, 4680, Note_on_c, 0, 50, 39
1, 4800, Tempo, 485044
1, 4800, Note_on_c, 0, 50, 0
1, 4800, Note_on_c, 0, 66, 0
1, 4800, Note_on_c, 0, 73, 59
1, 4800, Note_on_c, 0, 68, 50
1, 4800, Note_on_c, 0, 52, 42
1, 4815, Control_c, 0, 64, 0
1, 4920, Tempo, 523789
1, 4920, Note_on_c, 0, 52, 0
1, 4920, Note_on_c, 0, 68, 0
1, 4920, Note_on_c, 0, 73, 0
1, 4920, Note_on_c, 0, 71, 56
1, 4920, Note_on_c, 0, 62, 37
1, 5010, Note_on_c, 0, 62, 0
1, 5010, Note_on_c, 0, 71, 0
1, 5020, Tempo, 518179
1, 5040, Tempo, 517019
1, 5040, Note_on_c, 0, 69, 62
1, 5040, Note_on_c, 0, 61, 49
1, 5062, Tempo, 509684
1, 5086, Control_c, 0, 64, 127
1, 5106, Tempo, 507099
1, 5149, Tempo, 504541
1, 5160, Note_on_c, 0, 61, 0
1, 5160, Note_on_c, 0, 69, 0
1, 5160, Note_on_c, 0, 76, 52
1, 5160, Note_on_c, 0, 60, 39
1, 5193, Tempo, 502008
1, 5215, Tempo, 499542
1, 5258, Tempo, 497059
1, 5280, Note_on_c, 0, 60, 0
1, 5280, Note_on_c, 0, 76, 0
1, 5280, Note_on_c, 0, 64, 60
1, 5280, Note_on_c, 0, 54, 41
1, 5302, Tempo, 494601
1, 5324, Tempo, 492166
1, 5400, Note_on_c, 0, 54, 0
1, 5400, Note_on_c, 0, 64, 0
1, 5400, Note_on_c, 0, 69, 57
1, 5400, Note_on_c, 0, 45, 41
1, 5520, Tempo, 480384
1, 5520, Note_on_c, 0, 45, 0
1, 5520, Note_on_c, 0, 69, 0
1, 5520, Note_on_c, 0, 63, 50
1, 5520, Note_on_c, 0, 72, 59
1, 5520, Note_on_c, 0, 47, 46
1, 5530, Control_c, 0, 64, 0
1, 5640, Tempo, 537875
1, 5640, Note_on_c, 0, 47, 0
1, 5640, Note_on_c, 0, 72, 0
1, 5640, Note_on_c, 0, 63, 0
1, 5640, Note_on_c, 0, 71, 60
1, 5640, Note_on_c, 0, 57, 40
1, 5730, Note_on_c, 0, 57, 0
1, 5730, Note_on_c, 0, 71, 0
1, 5760, Tempo, 530739
1, 5760, Note_on_c, 0, 59, 66
1, 5760, Note_on_c, 0, 55, 49
1, 5806, Control_c, 0, 64, 127
1, 5820, Tempo, 528402
1, 5860, Tempo, 526085
1, 5880, Note_on_c, 0, 55, 0
1, 5880, Note_on_c, 0, 59, 0
1, 5880, Note_on_c, 0, 64, 57
1, 5880, Note_on_c, 0, 40, 45
1, 5920, Tempo, 523789
1, 5960, Tempo, 521512
1, 6000, Tempo, 519211
1, 6000, Note_on_c, 0, 40, 0
1, 6000, Note_on_c, 0, 64, 0
1, 6000, Note_on_c, 0, 60, 58
1, 6000, Note_on_c, 0, 45, 48
1, 6017, Control_c, 0, 64, 0
1, 6092, Control_c, 0, 64, 127
1, 6120, Note_on_c, 0, 45, 0
1, 6120, Note_on_c, 0, 60, 0
1, 6120, Note_on_c, 0, 64, 57
1, 6120, Note_on_c, 0, 57, 44
1, 6220, Tempo, 503948
1, 6240, Tempo, 503948
1, 6240, Note_on_c, 0, 57, 0
1, 6240, Note_on_c, 0, 64, 0
1, 6240, Note_on_c, 0, 67, 64
1, 6240, Note_on_c, 0, 63, 54
1, 6240, Note_on_c, 0, 47, 49
1, 6257, Control_c, 0, 64, 0
1, 6360, Tempo, 521512
1, 6360, Note_on_c, 0, 47, 0
1, 6360, Note_on_c, 0, 63, 0
1, 6360, Note_on_c, 0, 67, 0
1, 6360, Note_on_c, 0, 66, 63
1, 6360, Note_on_c, 0, 57, 47
1, 6450, Note_on_c, 0, 57, 0
1, 6450, Note_on_c, 0, 66, 0
1, 6480, Tempo, 512251
1, 6480, Note_on_c, 0, 64, 69
1, 6480, Note_on_c, 0, 55, 51
1, 6531, Control_c, 0, 64, 127
1, 6546, Tempo, 509684
1, 6600, Note_on_c, 0, 55, 0
1, 6600, Note_on_c, 0, 64, 0
1, 6600, Note_on_c, 0, 76, 61
1, 6600, Note_on_c, 0, 52, 46
1, 6611, Tempo, 507099
1, 6655, Tempo, 504541
1, 6720, Tempo, 502008
1, 6720, Note_on_c, 0, 52, 0
1, 6720, Note_on_c, 0, 76, 0
1, 6720, Note_on_c, 0, 67, 64
1, 6720, Note_on_c, 0, 64, 46
1, 6786, Tempo, 499542
1, 6829, Tempo, 497059
1, 6840, Tempo, 518179
1, 6840, Note_on_c, 0, 64, 0
1, 6840, Note_on_c, 0, 67, 0
1, 6840, Note_on_c, 0, 71, 64
1, 6840, Note_on_c, 0, 55, 46
1, 6920, Tempo, 506244
1, 6960, Tempo, 482703
1, 6960, Note_on_c, 0, 55, 0
1, 6960, Note_on_c, 0, 71, 0
1, 6960, Note_on_c, 0, 70, 58
1, 6960, Note_on_c, 0, 74, 70
1, 6960, Note_on_c, 0, 54, 51
1, 6969, Control_c, 0, 64, 0
1, 7080, Tempo, 510378
1, 7080, Note_on_c, 0, 54, 0
1, 7080, Note_on_c, 0, 74, 0
1, 7080, Note_on_c, 0, 70, 0
1, 7080, Note_on_c, 0, 73, 64
1, 7080, Note_on_c, 0, 64, 46
1, 7170, Note_on_c, 0, 64, 0
1, 7170, Note_on_c, 0, 73, 0
1, 7200, Tempo, 520653
1, 7200, Note_on_c, 0, 71, 73
1, 7200, Note_on_c, 0, 62, 54
1, 7222, Tempo, 507099
1, 7257, Control_c, 0, 64, 127
1, 7266, Tempo, 504541
1, 7309, Tempo, 502008
1, 7320, Note_on_c, 0, 62, 0
1, 7320, Note_on_c, 0, 71, 0
1, 7320, Note_on_c, 0, 66, 63
1, 7320, Note_on_c, 0, 47, 56
1, 7353, Tempo, 499542
1, 7397, Tempo, 497059
1, 7440, Tempo, 494601
1, 7440, Note_on_c, 0, 47, 0
1, 7440, Note_on_c, 0, 66, 0
1, 7440, Note_on_c, 0, 67, 70
1, 7440, Note_on_c, 0, 52, 49
1, 7462, Control_c, 0, 64, 0
1, 7484, Tempo, 492166
1, 7506, Tempo, 489756
1, 7560, Tempo, 513391
1, 7560, Note_on_c, 0, 52, 0
1, 7560, Note_on_c, 0, 67, 0
1, 7560, Note_on_c, 0, 71, 72
1, 7560, Note_on_c, 0, 64, 52
1, 7680, Tempo, 495622
1, 7680, Note_on_c, 0, 64, 0
1, 7680, Note_on_c, 0, 71, 0
1, 7680, Note_on_c, 0, 70, 64
1, 7680, Note_on_c, 0, 74, 76
1, 7680, Note_on_c, 0, 54, 55
1, 7702, Tempo, 478126
1, 7800, Tempo, 508259
1, 7800, Note_on_c, 0, 54, 0
1, 7800, Note_on_c, 0, 74, 0
1, 7800, Note_on_c, 0, 70, 0
1, 7800, Note_on_c, 0, 73, 77
1, 7800, Note_on_c, 0, 64, 52
1, 7890, Note_on_c, 0, 64, 0
1, 7890, Note_on_c, 0, 73, 0
1, 7900, Tempo, 520653
1, 7920, Tempo, 507099
1, 7920, Note_on_c, 0, 71, 86
1, 7920, Note_on_c, 0, 62, 59
1, 7964, Tempo, 504541
1, 7971, Control_c, 0, 64, 127
1, 8008, Tempo, 502008
1, 8040, Note_on_c, 0, 62, 0
1, 8040, Note_on_c, 0, 71, 0
1, 8040, Note_on_c, 0, 83, 75
1, 8040, Note_on_c, 0, 53, 52
1, 8051, Tempo, 499542
1, 8073, Tempo, 497059
1, 8117, Tempo, 494601
1, 8160, Tempo, 492166
1, 8160, Note_on_c, 0, 53, 0
1, 8160, Note_on_c, 0, 83, 0
1, 8160, Note_on_c, 0, 80, 82
1, 8160, Note_on_c, 0, 59, 54
1, 8182, Tempo, 489756
1, 8226, Tempo, 487409
1, 8269, Tempo, 485044
1, 8280, Note_on_c, 0, 59, 0
1, 8280, Note_on_c, 0, 80, 0
1, 8280, Note_on_c, 0, 74, 83
1, 8280, Note_on_c, 0, 68, 55
1, 8291, Tempo, 482703
1, 8360, Tempo, 503948
1, 8400, Note_on_c, 0, 68, 0
1, 8400, Note_on_c, 0, 74, 0
1, 8400, Note_on_c, 0, 73, 90
1, 8400, Note_on_c, 0, 61, 62
1, 8409, Control_c, 0, 64, 0
1, 8420, Tempo, 495622
1, 8444, Tempo, 478126
1, 8469, Control_c, 0, 64, 127
1, 8520, Tempo, 528402
1, 8520, Note_on_c, 0, 61, 0
1, 8520, Note_on_c, 0, 73, 0
1, 8520, Note_on_c, 0, 71, 85
1, 8520, Note_on_c, 0, 62, 54
1, 8640, Tempo, 520653
1, 8640, Note_on_c, 0, 62, 0
1, 8640, Note_on_c, 0, 71, 0
1, 8640, Note_on_c, 0, 70, 91
1, 8640, Note_on_c, 0, 61, 62
1, 8651, Control_c, 0, 64, 0
1, 8686, Control_c, 0, 64, 127
1, 8720, Tempo, 518179
1, 8760, Note_on_c, 0, 61, 0
1, 8760, Note_on_c, 0, 70, 0
1, 8760, Note_on_c, 0, 78, 77
1, 8760, Note_on_c, 0, 54, 44
1, 8800, Tempo, 515774
1, 8820, Note_on_c, 0, 54, 0
1, 8820, Note_on_c, 0, 78, 0
1, 8860, Tempo, 513391
1, 8880, Note_on_c, 0, 71, 84
1, 8880, Note_on_c, 0, 62, 53
1, 8891, Control_c, 0, 64, 0
1, 8931, Control_c, 0, 64, 127
1, 9000, Note_on_c, 0, 62, 0
1, 9000, Note_on_c, 0, 71, 0
1, 9000, Note_on_c, 0, 80, 73
1, 9000, Note_on_c, 0, 50, 42
1, 9060, Note_on_c, 0, 50, 0
1, 9060, Note_on_c, 0, 80, 0
1, 9100, Tempo, 513391
1, 9120, Note_on_c, 0, 65, 80
1, 9120, Note_on_c, 0, 61, 53
1, 9131, Control_c, 0, 64, 0
1, 9177, Control_c, 0, 64, 127
1, 9180, Tempo, 515774
1, 9240, Note_on_c, 0, 61, 0
1, 9240, Note_on_c, 0, 65, 0
1, 9240, Note_on_c, 0, 82, 71
1, 9240, Note_on_c, 0, 49, 42
1, 9260, Tempo, 518179
1, 9300, Note_on_c, 0, 49, 0
1, 9300, Note_on_c, 0, 82, 0
1, 9340, Tempo, 520653
1, 9360, Tempo, 531256
1, 9360, Note_on_c, 0, 70, 89
1, 9360, Note_on_c, 0, 42, 57
1, 9371, Control_c, 0, 64, 0
1, 9406, Control_c, 0, 64, 127
1, 9480, Note_on_c, 0, 42, 0
1, 9480, Note_on_c, 0, 70, 0
1, 9480, Note_on_c, 0, 78, 73
1, 9480, Note_on_c, 0, 61, 42
1, 9491, Tempo, 528448
1, 9540, Note_on_c, 0, 61, 0
1, 9540, Note_on_c, 0, 78, 0
1, 9600, Tempo, 525670
1, 9600, Note_on_c, 0, 71, 79
1, 9600, Note_on_c, 0, 62, 50
1, 9611, Control_c, 0, 64, 0
1, 9651, Control_c, 0, 64, 127
1, 9720, Note_on_c, 0, 62, 0
1, 9720, Note_on_c, 0, 71, 0
1, 9720, Note_on_c, 0, 80, 70
1, 9720, Note_on_c, 0, 47, 40
1, 9731, Tempo, 522921
1, 9780, Note_on_c, 0, 47, 0
1, 9780, Note_on_c, 0, 80, 0
1, 9840, Tempo, 520246
1, 9840, Note_on_c, 0, 65, 75
1, 9840, Note_on_c, 0, 61, 48
1, 9851, Control_c, 0, 64, 0
1, 9884, Tempo, 522921
1, 9897, Control_c, 0, 64, 127
1, 9906, Tempo, 525670
1, 9949, Tempo, 528448
1, 9960, Note_on_c, 0, 61, 0
1, 9960, Note_on_c, 0, 65, 0
1, 9960, Note_on_c, 0, 82, 64
1, 9960, Note_on_c, 0, 49, 38
1, 9971, Tempo, 531256
1, 10015, Tempo, 534045
1, 10020, Note_on_c, 0, 49, 0
1, 10020, Note_on_c, 0, 82, 0
1, 10037, Tempo, 536913
1, 10058, Tempo, 539811
1, 10080, Note_on_c, 0, 70, 74
1, 10080, Note_on_c, 0, 42, 52
1, 10091, Control_c, 0, 64, 0
1, 10102, Tempo, 560905
1, 10126, Control_c, 0, 64, 127
1, 10146, Tempo, 557828
1, 10189, Tempo, 554734
1, 10200, Note_on_c, 0, 42, 0
1, 10200, Note_on_c, 0, 70, 0
1, 10200, Note_on_c, 0, 78, 60
1, 10200, Note_on_c, 0, 61, 38
1, 10233, Tempo, 551673
1, 10255, Tempo, 548647
1, 10260, Note_on_c, 0, 61, 0
1, 10260, Note_on_c, 0, 78, 0
1, 10298, Tempo, 545703
1, 10320, Note_on_c, 0, 71, 69
1, 10320, Note_on_c, 0, 62, 46
1, 10331, Control_c, 0, 64, 0
1, 10342, Tempo, 542741
1, 10364, Tempo, 539811
1, 10371, Control_c, 0, 64, 127
1, 10440, Note_on_c, 0, 62, 0
1, 10440, Note_on_c, 0, 71, 0
1, 10440, Note_on_c, 0, 80, 55
1, 10440, Note_on_c, 0, 47, 36
1, 10500, Note_on_c, 0, 47, 0
1, 10500, Note_on_c, 0, 80, 0
1, 10560, Note_on_c, 0, 65, 64
1, 10560, Note_on_c, 0, 61, 42
1, 10571, Control_c, 0, 64, 0
1, 10604, Tempo, 542741
1, 10617, Control_c, 0, 64, 127
1, 10626, Tempo, 545703
1, 10648, Tempo, 548647
1, 10669, Tempo, 554734
1, 10680, Note_on_c, 0, 61, 0
1, 10680, Note_on_c, 0, 65, 0
1, 10680, Note_on_c, 0, 82, 57
1, 10680, Note_on_c, 0, 49, 32
1, 10691, Tempo, 557828
1, 10713, Tempo, 564069
1, 10735, Tempo, 567269
1, 10740, Note_on_c, 0, 49, 0
1, 10740, Note_on_c, 0, 82, 0
1, 10757, Tempo, 573723
1, 10778, Tempo, 577034
1, 10800, Tempo, 583771
1, 10800, Note_on_c, 0, 70, 63
1, 10800, Note_on_c, 0, 42, 43
1, 10811, Control_c, 0, 64, 0
1, 10846, Control_c, 0, 64, 127
1, 10866, Tempo, 616016
1, 10909, Tempo, 612245
1, 10920, Note_on_c, 0, 42, 0
1, 10920, Note_on_c, 0, 70, 0
1, 10920, Note_on_c, 0, 78, 54
1, 10920, Note_on_c, 0, 61, 36
1, 10975, Tempo, 608519
1, 10980, Note_on_c, 0, 61, 0
1, 10980, Note_on_c, 0, 78, 0
1, 11018, Tempo, 604839
1, 11040, Note_on_c, 0, 71, 55
1, 11040, Note_on_c, 0, 62, 38
1, 11051, Control_c, 0, 64, 0
1, 11062, Tempo, 601263
1, 11091, Control_c, 0, 64, 127
1, 11128, Tempo, 597669
1, 11160, Note_on_c, 0, 62, 0
1, 11160, Note_on_c, 0, 71, 0
1, 11160, Note_on_c, 0, 80, 48
1, 11160, Note_on_c, 0, 47, 32
1, 11171, Tempo, 594118
1, 11215, Tempo, 590609
1, 11220, Note_on_c, 0, 47, 0
1, 11220, Note_on_c, 0, 80, 0
1, 11280, Tempo, 587199
1, 11280, Note_on_c, 0, 65, 49
1, 11280, Note_on_c, 0, 61, 36
1, 11291, Control_c, 0, 64, 0
1, 11302, Tempo, 587199
1, 11324, Tempo, 594118
1, 11337, Control_c, 0, 64, 127
1, 11346, Tempo, 601263
1, 11368, Tempo, 608519
1, 11389, Tempo, 616016
1, 11400, Note_on_c, 0, 61, 0
1, 11400, Note_on_c, 0, 65, 0
1, 11400, Note_on_c, 0, 81, 43
1, 11400, Note_on_c, 0, 49, 29
1, 11411, Tempo, 623636
1, 11433, Tempo, 631512
1, 11455, Tempo, 639522
1, 11460, Note_on_c, 0, 49, 0
1, 11460, Note_on_c, 0, 81, 0
1, 11477, Tempo, 647808
1, 11498, Tempo, 608519
1, 11500, Tempo, 588005
1, 11520, Tempo, 564228
1, 11520, Note_on_c, 0, 78, 45
1, 11520, Note_on_c, 0, 42, 41
1, 11527, Control_c, 0, 64, 0
1, 11591, Control_c, 0, 64, 127
1, 11640, Note_on_c, 0, 42, 0
1, 11640, Note_on_c, 0, 78, 0
1, 11640, Note_on_c, 0, 66, 40
1, 11640, Note_on_c, 0, 57, 33
1, 11760, Tempo, 542545
1, 11760, Note_on_c, 0, 57, 0
1, 11760, Note_on_c, 0, 66, 0
1, 11760, Note_on_c, 0, 61, 30
1, 11760, Note_on_c, 0, 55, 38
1, 11767, Control_c, 0, 64, 0
1, 11845, Control_c, 0, 64, 127
1, 11860, Tempo, 539957
1, 11880, Note_on_c, 0, 55, 0
1, 11880, Note_on_c, 0, 61, 0
1, 11880, Note_on_c, 0, 71, 53
1, 11880, Note_on_c, 0, 45, 34
1, 11960, Tempo, 537394
1, 12000, Note_on_c, 0, 45, 0
1, 12000, Note_on_c, 0, 76, 49
1, 12000, Note_on_c, 0, 55, 36
1, 12040, Tempo, 534855
1, 12120, Note_on_c, 0, 55, 0
1, 12120, Note_on_c, 0, 76, 0
1, 12120, Note_on_c, 0, 71, 0
1, 12120, Note_on_c, 0, 69, 42
1, 12120, Note_on_c, 0, 64, 31
1, 12140, Tempo, 532340
1, 12220, Tempo, 529801
1, 12240, Tempo, 517241
1, 12240, Note_on_c, 0, 64, 0
1, 12240, Note_on_c, 0, 69, 0
1, 12240, Note_on_c, 0, 61, 46
1, 12240, Note_on_c, 0, 55, 45
1, 12249, Control_c, 0, 64, 0
1, 12274, Control_c, 0, 64, 127
1, 12349, Tempo, 514403
1, 12360, Note_on_c, 0, 55, 0
1, 12360, Note_on_c, 0, 61, 0
1, 12360, Note_on_c, 0, 70, 65
1, 12360, Note_on_c, 0, 45, 39
1, 12437, Tempo, 511596
1, 12480, Note_on_c, 0, 45, 0
1, 12480, Note_on_c, 0, 76, 57
1, 12480, Note_on_c, 0, 55, 44
1, 12524, Tempo, 508820
1, 12600, Note_on_c, 0, 55, 0
1, 12600, Note_on_c, 0, 76, 0
1, 12600, Note_on_c, 0, 70, 0
1, 12600, Note_on_c, 0, 69, 50
1, 12600, Note_on_c, 0, 64, 41
1, 12611, Tempo, 506073
1, 12660, Note_on_c, 0, 64, 0
1, 12698, Tempo, 503356
1, 12720, Note_on_c, 0, 69, 0
1, 12720, Note_on_c, 0, 61, 59
1, 12720, Note_on_c, 0, 55, 50
1, 12729, Control_c, 0, 64, 0
1, 12780, Control_c, 0, 64, 127
1, 12786, Tempo, 500668
1, 12840, Note_on_c, 0, 55, 0
1, 12840, Note_on_c, 0, 61, 0
1, 12840, Note_on_c, 0, 71, 67
1, 12840, Note_on_c, 0, 45, 39
1, 12873, Tempo, 498008
1, 12917, Tempo, 495376
1, 12938, Tempo, 492773
1, 12960, Tempo, 490196
1, 12960, Note_on_c, 0, 45, 0
1, 12960, Note_on_c, 0, 76, 67
1, 12960, Note_on_c, 0, 55, 50
1, 12982, Tempo, 487646
1, 13026, Tempo, 485123
1, 13048, Tempo, 482625
1, 13069, Tempo, 480154
1, 13080, Note_on_c, 0, 55, 0
1, 13080, Note_on_c, 0, 76, 0
1, 13080, Note_on_c, 0, 71, 0
1, 13080, Note_on_c, 0, 69, 61
1, 13080, Note_on_c, 0, 64, 42
1, 13091, Tempo, 477707
1, 13135, Tempo, 475285
1, 13140, Note_on_c, 0, 64, 0
1, 13157, Tempo, 472888
1, 13178, Tempo, 470514
1, 13200, Tempo, 468165
1, 13200, Note_on_c, 0, 69, 0
1, 13200, Note_on_c, 0, 61, 63
1, 13200, Note_on_c, 0, 55, 50
1, 13211, Control_c, 0, 64, 0
1, 13222, Tempo, 465839
1, 13251, Control_c, 0, 64, 127
1, 13320, Note_on_c, 0, 55, 0
1, 13320, Note_on_c, 0, 61, 0
1, 13320, Note_on_c, 0, 70, 70
1, 13320, Note_on_c, 0, 45, 44
1, 13440, Tempo, 468165
1, 13440, Note_on_c, 0, 45, 0
1, 13440, Note_on_c, 0, 76, 64
1, 13440, Note_on_c, 0, 55, 48
1, 13560, Note_on_c, 0, 55, 0
1, 13560, Note_on_c, 0, 76, 0
1, 13560, Note_on_c, 0, 70, 0
1, 13560, Note_on_c, 0, 69, 58
1, 13560, Note_on_c, 0, 64, 44
1, 13620, Note_on_c, 0, 64, 0
1, 13658, Tempo, 470514
1, 13680, Note_on_c, 0, 69, 0
1, 13680, Note_on_c, 0, 61, 65
1, 13680, Note_on_c, 0, 55, 50
1, 13680, Note_on_c, 0, 57, 50
1, 13691, Control_c, 0, 64, 0
1, 13702, Tempo, 472888
1, 13746, Tempo, 475285
1, 13747, Control_c, 0, 64, 127
1, 13768, Tempo, 477707
1, 13800, Note_on_c, 0, 57, 0
1, 13800, Note_on_c, 0, 55, 0
1, 13800, Note_on_c, 0, 61, 0
1, 13800, Note_on_c, 0, 71, 58
1, 13800, Note_on_c, 0, 45, 41
1, 13811, Tempo, 480154
1, 13833, Tempo, 482625
1, 13877, Tempo, 485123
1, 13898, Tempo, 487646
1, 13920, Note_on_c, 0, 45, 0
1, 13920, Note_on_c, 0, 76, 61
1, 13920, Note_on_c, 0, 55, 44
1, 13942, Tempo, 490196
1, 13964, Tempo, 492773
1, 14008, Tempo, 495376
1, 14029, Tempo, 498008
1, 14040, Note_on_c, 0, 55, 0
1, 14040, Note_on_c, 0, 76, 0
1, 14040, Note_on_c, 0, 71, 0
1, 14040, Note_on_c, 0, 69, 50
1, 14040, Note_on_c, 0, 64, 35
1, 14073, Tempo, 500668
1, 14095, Tempo, 503356
1, 14100, Note_on_c, 0, 64, 0
1, 14138, Tempo, 506073
1, 14160, Tempo, 508820
1, 14160, Note_on_c, 0, 69, 0
1, 14160, Note_on_c, 0, 61, 48
1, 14160, Note_on_c, 0, 55, 35
1, 14171, Control_c, 0, 64, 0
1, 14204, Tempo, 511596
1, 14217, Control_c, 0, 64, 127
1, 14226, Tempo, 514403
1, 14269, Tempo, 517241
1, 14280, Note_on_c, 0, 55, 0
1, 14280, Note_on_c, 0, 61, 0
1, 14280, Note_on_c, 0, 66, 46
1, 14280, Note_on_c, 0, 57, 30
1, 14291, Tempo, 520111
1, 14300, Tempo, 534855
1, 14360, Tempo, 539957
1, 14380, Tempo, 542741
1, 14400, Note_on_c, 0, 57, 0
1, 14400, Note_on_c, 0, 66, 0
1, 14400, Note_on_c, 0, 62, 49
1, 14400, Note_on_c, 0, 38, 38
1, 14417, Control_c, 0, 64, 0
1, 14420, Tempo, 540297
1, 14460, Tempo, 537875
1, 14463, Control_c, 0, 64, 127
1, 14480, Tempo, 535427
1, 14520, Tempo, 533096
1, 14520, Note_on_c, 0, 38, 0
1, 14520, Note_on_c, 0, 62, 0
1, 14520, Note_on_c, 0, 57, 45
1, 14520, Note_on_c, 0, 54, 34
1, 14560, Tempo, 530739
1, 14580, Tempo, 528402
1, 14620, Tempo, 526085
1, 14640, Tempo, 523789
1, 14640, Note_on_c, 0, 54, 0
1, 14640, Note_on_c, 0, 57, 0
1, 14640, Note_on_c, 0, 58, 45
1, 14640, Note_on_c, 0, 55, 35
1, 14652, Control_c, 0, 64, 0
1, 14709, Control_c, 0, 64, 127
1, 14760, Note_on_c, 0, 55, 0
1, 14760, Note_on_c, 0, 58, 0
1, 14760, Note_on_c, 0, 59, 44
1, 14760, Note_on_c, 0, 43, 32
1, 14880, Tempo, 508259
1, 14880, Note_on_c, 0, 43, 0
1, 14880, Note_on_c, 0, 59, 0
1, 14880, Note_on_c, 0, 67, 47
1, 14880, Note_on_c, 0, 61, 39
1, 14880, Note_on_c, 0, 45, 37
1, 14891, Control_c, 0, 64, 0
1, 15000, Tempo, 526085
1, 15000, Note_on_c, 0, 45, 0
1, 15000, Note_on_c, 0, 61, 0
1, 15000, Note_on_c, 0, 67, 0
1, 15000, Note_on_c, 0, 66, 46
1, 15000, Note_on_c, 0, 57, 37
1, 15090, Note_on_c, 0, 57, 0
1, 15090, Note_on_c, 0, 66, 0
1, 15120, Tempo, 535427
1, 15120, Note_on_c, 0, 62, 56
1, 15120, Note_on_c, 0, 54, 41
1, 15160, Tempo, 533096
1, 15166, Control_c, 0, 64, 127
1, 15180, Tempo, 530739
1, 15220, Tempo, 528402
1, 15240, Tempo, 526085
1, 15240, Note_on_c, 0, 54, 0
1, 15240, Note_on_c, 0, 62, 0
1, 15240, Note_on_c, 0, 74, 51
1, 15240, Note_on_c, 0, 47, 36
1, 15280, Tempo, 523789
1, 15300, Tempo, 521512
1, 15340, Tempo, 519211
1, 15360, Tempo, 517019
1, 15360, Note_on_c, 0, 47, 0
1, 15360, Note_on_c, 0, 74, 0
1, 15360, Note_on_c, 0, 66, 51
1, 15360, Note_on_c, 0, 62, 36
1, 15480, Note_on_c, 0, 62, 0
1, 15480, Note_on_c, 0, 66, 0
1, 15480, Note_on_c, 0, 69, 51
1, 15480, Note_on_c, 0, 53, 36
1, 15600, Tempo, 503948
1, 15600, Note_on_c, 0, 53, 0
1, 15600, Note_on_c, 0, 69, 0
1, 15600, Note_on_c, 0, 68, 45
1, 15600, Note_on_c, 0, 72, 53
1, 15600, Note_on_c, 0, 52, 42
1, 15609, Control_c, 0, 64, 0
1, 15720, Tempo, 528402
1, 15720, Note_on_c, 0, 52, 0
1, 15720, Note_on_c, 0, 72, 0
1, 15720, Note_on_c, 0, 68, 0
1, 15720, Note_on_c, 0, 71, 51
1, 15720, Note_on_c, 0, 62, 36
1, 15810, Note_on_c, 0, 62, 0
1, 15810, Note_on_c, 0, 71, 0
1, 15818, Tempo, 511596
1, 15840, Note_on_c, 0, 64, 58
1, 15840, Note_on_c, 0, 60, 48
1, 15884, Tempo, 508820
1, 15886, Control_c, 0, 64, 127
1, 15949, Tempo, 506073
1, 15960, Note_on_c, 0, 60, 0
1, 15960, Note_on_c, 0, 64, 0
1, 15960, Note_on_c, 0, 69, 54
1, 15960, Note_on_c, 0, 57, 41
1, 16015, Tempo, 503356
1, 16080, Tempo, 500668
1, 16080, Note_on_c, 0, 57, 0
1, 16080, Note_on_c, 0, 69, 0
1, 16080, Note_on_c, 0, 65, 54
1, 16080, Note_on_c, 0, 62, 39
1, 16089, Control_c, 0, 64, 0
1, 16146, Tempo, 498008
1, 16155, Control_c, 0, 64, 127
1, 16200, Note_on_c, 0, 62, 0
1, 16200, Note_on_c, 0, 65, 0
1, 16200, Note_on_c, 0, 69, 54
1, 16200, Note_on_c, 0, 50, 39
1, 16211, Tempo, 495376
1, 16320, Tempo, 489756
1, 16320, Note_on_c, 0, 50, 0
1, 16320, Note_on_c, 0, 69, 0
1, 16320, Note_on_c, 0, 68, 50
1, 16320, Note_on_c, 0, 72, 59
1, 16320, Note_on_c, 0, 52, 42
1, 16337, Control_c, 0, 64, 0
1, 16440, Tempo, 530739
1, 16440, Note_on_c, 0, 52, 0
1, 16440, Note_on_c, 0, 72, 0
1, 16440, Note_on_c, 0, 68, 0
1, 16440, Note_on_c, 0, 71, 56
1, 16440, Note_on_c, 0, 62, 37
1, 16530, Note_on_c, 0, 62, 0
1, 16530, Note_on_c, 0, 71, 0
1, 16538, Tempo, 502008
1, 16560, Note_on_c, 0, 69, 62
1, 16560, Note_on_c, 0, 61, 49
1, 16606, Control_c, 0, 64, 127
1, 16648, Tempo, 499542
1, 16680, Note_on_c, 0, 61, 0
1, 16680, Note_on_c, 0, 69, 0
1, 16680, Note_on_c, 0, 76, 52
1, 16680, Note_on_c, 0, 60, 39
1, 16757, Tempo, 497059
1, 16800, Note_on_c, 0, 60, 0
1, 16800, Note_on_c, 0, 76, 0
1, 16800, Note_on_c, 0, 64, 60
1, 16800, Note_on_c, 0, 54, 41
1, 16866, Tempo, 494601
1, 16920, Note_on_c, 0, 54, 0
1, 16920, Note_on_c, 0, 64, 0
1, 16920, Note_on_c, 0, 69, 57
1, 16920, Note_on_c, 0, 45, 41
1, 16953, Tempo, 492166
1, 17040, Tempo, 491562
1, 17040, Note_on_c, 0, 45, 0
1, 17040, Note_on_c, 0, 69, 0
1, 17040, Note_on_c, 0, 63, 50
1, 17040, Note_on_c, 0, 72, 59
1, 17040, Note_on_c, 0, 47, 46
1, 17049, Control_c, 0, 64, 0
1, 17062, Tempo, 478126
1, 17160, Tempo, 537875
1, 17160, Note_on_c, 0, 47, 0
1, 17160, Note_on_c, 0, 72, 0
1, 17160, Note_on_c, 0, 63, 0
1, 17160, Note_on_c, 0, 71, 60
1, 17160, Note_on_c, 0, 57, 40
1, 17237, Tempo, 514889
1, 17250, Note_on_c, 0, 57, 0
1, 17250, Note_on_c, 0, 71, 0
1, 17280, Note_on_c, 0, 59, 66
1, 17280, Note_on_c, 0, 55, 49
1, 17302, Tempo, 502008
1, 17326, Control_c, 0, 64, 127
1, 17400, Note_on_c, 0, 55, 0
1, 17400, Note_on_c, 0, 59, 0
1, 17400, Note_on_c, 0, 64, 57
1, 17400, Note_on_c, 0, 40, 45
1, 17433, Tempo, 499542
1, 17520, Note_on_c, 0, 40, 0
1, 17520, Note_on_c, 0, 64, 0
1, 17520, Note_on_c, 0, 60, 58
1, 17520, Note_on_c, 0, 45, 48
1, 17534, Control_c, 0, 64, 0
1, 17542, Tempo, 497059
1, 17595, Control_c, 0, 64, 127
1, 17640, Note_on_c, 0, 45, 0
1, 17640, Note_on_c, 0, 60, 0
1, 17640, Note_on_c, 0, 64, 57
1, 17640, Note_on_c, 0, 57, 44
1, 17651, Tempo, 494601
1, 17760, Tempo, 492166
1, 17760, Note_on_c, 0, 57, 0
1, 17760, Note_on_c, 0, 64, 0
1, 17760, Note_on_c, 0, 67, 64
1, 17760, Note_on_c, 0, 63, 54
1, 17760, Note_on_c, 0, 47, 49
1, 17777, Control_c, 0, 64, 0
1, 17804, Tempo, 478126
1, 17880, Tempo, 519211
1, 17880, Note_on_c, 0, 47, 0
1, 17880, Note_on_c, 0, 63, 0
1, 17880, Note_on_c, 0, 67, 0
1, 17880, Note_on_c, 0, 66, 63
1, 17880, Note_on_c, 0, 57, 47
1, 17970, Note_on_c, 0, 57, 0
1, 17970, Note_on_c, 0, 66, 0
1, 17978, Tempo, 502008
1, 18000, Note_on_c, 0, 64, 69
1, 18000, Note_on_c, 0, 55, 51
1, 18051, Control_c, 0, 64, 127
1, 18066, Tempo, 499542
1, 18120, Note_on_c, 0, 55, 0
1, 18120, Note_on_c, 0, 64, 0
1, 18120, Note_on_c, 0, 76, 61
1, 18120, Note_on_c, 0, 52, 46
1, 18131, Tempo, 497059
1, 18218, Tempo, 494601
1, 18240, Note_on_c, 0, 52, 0
1, 18240, Note_on_c, 0, 76, 0
1, 18240, Note_on_c, 0, 67, 64
1, 18240, Note_on_c, 0, 64, 46
1, 18284, Tempo, 492166
1, 18349, Tempo, 489756
1, 18360, Tempo, 518179
1, 18360, Note_on_c, 0, 64, 0
1, 18360, Note_on_c, 0, 67, 0
1, 18360, Note_on_c, 0, 71, 64
1, 18360, Note_on_c, 0, 55, 46
1, 18440, Tempo, 506244
1, 18458, Tempo, 482703
1, 18480, Tempo, 487409
1, 18480, Note_on_c, 0, 55, 0
1, 18480, Note_on_c, 0, 71, 0
1, 18480, Note_on_c, 0, 70, 58
1, 18480, Note_on_c, 0, 74, 70
1, 18480, Note_on_c, 0, 54, 51
1, 18488, Control_c, 0, 64, 0
1, 18600, Tempo, 512601
1, 18600, Note_on_c, 0, 54, 0
1, 18600, Note_on_c, 0, 74, 0
1, 18600, Note_on_c, 0, 70, 0
1, 18600, Note_on_c, 0, 73, 64
1, 18600, Note_on_c, 0, 64, 46
1, 18690, Note_on_c, 0, 64, 0
1, 18690, Note_on_c, 0, 73, 0
1, 18720, Tempo, 520653
1, 18720, Note_on_c, 0, 71, 77
1, 18720, Note_on_c, 0, 62, 55
1, 18742, Tempo, 509684
1, 18777, Control_c, 0, 64, 127
1, 18786, Tempo, 507099
1, 18808, Tempo, 504541
1, 18829, Tempo, 502008
1, 18840, Note_on_c, 0, 62, 0
1, 18840, Note_on_c, 0, 71, 0
1, 18840, Note_on_c, 0, 66, 63
1, 18840, Note_on_c, 0, 47, 56
1, 18851, Tempo, 499542
1, 18895, Tempo, 497059
1, 18917, Tempo, 494601
1, 18938, Tempo, 492166
1, 18960, Tempo, 489756
1, 18960, Note_on_c, 0, 47, 0
1, 18960, Note_on_c, 0, 66, 0
1, 18960, Note_on_c, 0, 67, 70
1, 18960, Note_on_c, 0, 52, 49
1, 19080, Tempo, 513391
1, 19080, Note_on_c, 0, 52, 0
1, 19080, Note_on_c, 0, 67, 0
1, 19080, Note_on_c, 0, 71, 72
1, 19080, Note_on_c, 0, 64, 52
1, 19200, Tempo, 495622
1, 19200, Note_on_c, 0, 64, 0
1, 19200, Note_on_c, 0, 71, 0
1, 19200, Note_on_c, 0, 70, 64
1, 19200, Note_on_c, 0, 74, 76
1, 19200, Note_on_c, 0, 54, 55
1, 19206, Control_c, 0, 64, 0
1, 19222, Tempo, 485044
1, 19320, Tempo, 514756
1, 19320, Note_on_c, 0, 54, 0
1, 19320, Note_on_c, 0, 74, 0
1, 19320, Note_on_c, 0, 70, 0
1, 19320, Note_on_c, 0, 73, 77
1, 19320, Note_on_c, 0, 64, 52
1, 19410, Note_on_c, 0, 64, 0
1, 19410, Note_on_c, 0, 73, 0
1, 19420, Tempo, 520653
1, 19440, Tempo, 507099
1, 19440, Note_on_c, 0, 71, 86
1, 19440, Note_on_c, 0, 62, 59
1, 19491, Control_c, 0, 64, 127
1, 19506, Tempo, 504541
1, 19549, Tempo, 502008
1, 19560, Note_on_c, 0, 62, 0
1, 19560, Note_on_c, 0, 71, 0
1, 19560, Note_on_c, 0, 83, 80
1, 19560, Note_on_c, 0, 53, 52
1, 19593, Tempo, 499542
1, 19637, Tempo, 497059
1, 19680, Tempo, 494601
1, 19680, Note_on_c, 0, 53, 0
1, 19680, Note_on_c, 0, 83, 0
1, 19680, Note_on_c, 0, 80, 82
1, 19680, Note_on_c, 0, 59, 54
1, 19724, Tempo, 492166
1, 19768, Tempo, 489756
1, 19800, Tempo, 515774
1, 19800, Note_on_c, 0, 59, 0
1, 19800, Note_on_c, 0, 80, 0
1, 19800, Note_on_c, 0, 74, 83
1, 19800, Note_on_c, 0, 68, 55
1, 19880, Tempo, 503948
1, 19920, Note_on_c, 0, 68, 0
1, 19920, Note_on_c, 0, 74, 0
1, 19920, Note_on_c, 0, 73, 92
1, 19920, Note_on_c, 0, 61, 62
1, 19929, Control_c, 0, 64, 0
1, 19940, Tempo, 495622
1, 19964, Tempo, 482703
1, 19971, Control_c, 0, 64, 127
1, 20040, Tempo, 528402
1, 20040, Note_on_c, 0, 61, 0
1, 20040, Note_on_c, 0, 73, 0
1, 20040, Note_on_c, 0, 71, 85
1, 20040, Note_on_c, 0, 62, 54
1, 20160, Tempo, 520653
1, 20160, Note_on_c, 0, 62, 0
1, 20160, Note_on_c, 0, 71, 0
1, 20160, Note_on_c, 0, 69, 92
1, 20160, Note_on_c, 0, 54, 62
1, 20171, Control_c, 0, 64, 0
1, 20206, Control_c, 0, 64, 127
1, 20240, Tempo, 518179
1, 20280, Note_on_c, 0, 54, 0
1, 20280, Note_on_c, 0, 69, 0
1, 20280, Note_on_c, 0, 74, 77
1, 20280, Note_on_c, 0, 62, 44
1, 20320, Tempo, 515774
1, 20340, Note_on_c, 0, 62, 0
1, 20340, Note_on_c, 0, 74, 0
1, 20380, Tempo, 513391
1, 20400, Note_on_c, 0, 67, 86
1, 20400, Note_on_c, 0, 58, 53
1, 20411, Control_c, 0, 64, 0
1, 20451, Control_c, 0, 64, 127
1, 20520, Note_on_c, 0, 58, 0
1, 20520, Note_on_c, 0, 67, 0
1, 20520, Note_on_c, 0, 76, 76
1, 20520, Note_on_c, 0, 43, 42
1, 20580, Note_on_c, 0, 43, 0
1, 20580, Note_on_c, 0, 76, 0
1, 20620, Tempo, 513391
1, 20640, Note_on_c, 0, 61, 83
1, 20640, Note_on_c, 0, 57, 53
1, 20651, Control_c, 0, 64, 0
1, 20697, Control_c, 0, 64, 127
1, 20700, Tempo, 515774
1, 20760, Note_on_c, 0, 57, 0
1, 20760, Note_on_c, 0, 61, 0
1, 20760, Note_on_c, 0, 78, 75
1, 20760, Note_on_c, 0, 45, 42
1, 20780, Tempo, 518179
1, 20820, Note_on_c, 0, 45, 0
1, 20820, Note_on_c, 0, 78, 0
1, 20860, Tempo, 520653
1, 20880, Tempo, 520653
1, 20880, Note_on_c, 0, 66, 91
1, 20880, Note_on_c, 0, 38, 57
1, 20891, Control_c, 0, 64, 0
1, 20926, Control_c, 0, 64, 127
1, 21000, Note_on_c, 0, 38, 0
1, 21000, Note_on_c, 0, 66, 0
1, 21000, Note_on_c, 0, 74, 73
1, 21000, Note_on_c, 0, 57, 42
1, 21020, Tempo, 518179
1, 21060, Note_on_c, 0, 57, 0
1, 21060, Note_on_c, 0, 74, 0
1, 21120, Note_on_c, 0, 67, 80
1, 21120, Note_on_c, 0, 58, 51
1, 21131, Control_c, 0, 64, 0
1, 21140, Tempo, 515774
1, 21171, Control_c, 0, 64, 127
1, 21240, Note_on_c, 0, 58, 0
1, 21240, Note_on_c, 0, 67, 0
1, 21240, Note_on_c, 0, 76, 72
1, 21240, Note_on_c, 0, 43, 41
1, 21300, Note_on_c, 0, 43, 0
1, 21300, Note_on_c, 0, 76, 0
1, 21360, Tempo, 515774
1, 21360, Note_on_c, 0, 61, 78
1, 21360, Note_on_c, 0, 57, 50
1, 21371, Control_c, 0, 64, 0
1, 21400, Tempo, 518179
1, 21417, Control_c, 0, 64, 127
1, 21440, Tempo, 520653
1, 21480, Tempo, 523104
1, 21480, Note_on_c, 0, 57, 0
1, 21480, Note_on_c, 0, 61, 0
1, 21480, Note_on_c, 0, 78, 67
1, 21480, Note_on_c, 0, 45, 40
1, 21520, Tempo, 525532
1, 21540, Note_on_c, 0, 45, 0
1, 21540, Note_on_c, 0, 78, 0
1, 21560, Tempo, 528076
1, 21578, Tempo, 560905
1, 21600, Note_on_c, 0, 66, 78
1, 21600, Note_on_c, 0, 38, 55
1, 21611, Control_c, 0, 64, 0
1, 21646, Control_c, 0, 64, 127
1, 21666, Tempo, 557828
1, 21720, Note_on_c, 0, 38, 0
1, 21720, Note_on_c, 0, 66, 0
1, 21720, Note_on_c, 0, 74, 63
1, 21720, Note_on_c, 0, 57, 40
1, 21731, Tempo, 554734
1, 21780, Note_on_c, 0, 57, 0
1, 21780, Note_on_c, 0, 74, 0
1, 21797, Tempo, 551673
1, 21840, Note_on_c, 0, 67, 72
1, 21840, Note_on_c, 0, 58, 48
1, 21851, Control_c, 0, 64, 0
1, 21884, Tempo, 548647
1, 21891, Control_c, 0, 64, 127
1, 21949, Tempo, 545703
1, 21960, Note_on_c, 0, 58, 0
1, 21960, Note_on_c, 0, 67, 0
1, 21960, Note_on_c, 0, 76, 58
1, 21960, Note_on_c, 0, 43, 37
1, 22015, Tempo, 542741
1, 22020, Note_on_c, 0, 43, 0
1, 22020, Note_on_c, 0, 76, 0
1, 22037, Tempo, 542741
1, 22080, Tempo, 545703
1, 22080, Note_on_c, 0, 61, 66
1, 22080, Note_on_c, 0, 57, 43
1, 22091, Control_c, 0, 64, 0
1, 22102, Tempo, 548647
1, 22124, Tempo, 551673
1, 22137, Control_c, 0, 64, 127
1, 22146, Tempo, 554734
1, 22168, Tempo, 557828
1, 22200, Note_on_c, 0, 57, 0
1, 22200, Note_on_c, 0, 61, 0
1, 22200, Note_on_c, 0, 78, 59
1, 22200, Note_on_c, 0, 45, 33
1, 22211, Tempo, 560905
1, 22233, Tempo, 564069
1, 22255, Tempo, 567269
1, 22260, Note_on_c, 0, 45, 0
1, 22260, Note_on_c, 0, 78, 0
1, 22277, Tempo, 570505
1, 22298, Tempo, 573723
1, 22320, Tempo, 590609
1, 22320, Note_on_c, 0, 66, 65
1, 22320, Note_on_c, 0, 38, 44
1, 22331, Control_c, 0, 64, 0
1, 22342, Tempo, 587199
1, 22366, Control_c, 0, 64, 127
1, 22386, Tempo, 583771
1, 22429, Tempo, 580383
1, 22440, Note_on_c, 0, 38, 0
1, 22440, Note_on_c, 0, 66, 0
1, 22440, Note_on_c, 0, 74, 55
1, 22440, Note_on_c, 0, 57, 36
1, 22473, Tempo, 577034
1, 22500, Note_on_c, 0, 57, 0
1, 22500, Note_on_c, 0, 74, 0
1, 22517, Tempo, 573723
1, 22560, Tempo, 570505
1, 22560, Note_on_c, 0, 67, 55
1, 22560, Note_on_c, 0, 58, 38
1, 22571, Control_c, 0, 64, 0
1, 22582, Tempo, 567269
1, 22611, Control_c, 0, 64, 127
1, 22648, Tempo, 570505
1, 22680, Note_on_c, 0, 58, 0
1, 22680, Note_on_c, 0, 67, 0
1, 22680, Note_on_c, 0, 76, 48
1, 22680, Note_on_c, 0, 43, 32
1, 22713, Tempo, 573723
1, 22740, Note_on_c, 0, 43, 0
1, 22740, Note_on_c, 0, 76, 0
1, 22757, Tempo, 577034
1, 22800, Note_on_c, 0, 61, 50
1, 22800, Note_on_c, 0, 57, 36
1, 22811, Control_c, 0, 64, 0
1, 22822, Tempo, 580383
1, 22857, Control_c, 0, 64, 127
1, 22888, Tempo, 583771
1, 22920, Note_on_c, 0, 57, 0
1, 22920, Note_on_c, 0, 61, 0
1, 22920, Note_on_c, 0, 78, 43
1, 22920, Note_on_c, 0, 45, 29
1, 22931, Tempo, 587199
1, 22980, Note_on_c, 0, 45, 0
1, 22980, Note_on_c, 0, 78, 0
1, 22997, Tempo, 590609
1, 23040, Tempo, 594118
1, 23040, Note_on_c, 0, 66, 45
1, 23040, Note_on_c, 0, 38, 33
1, 23055, Control_c, 0, 64, 0
1, 23062, Tempo, 551673
1, 23126, Control_c, 0, 64, 127
1, 23160, Note_on_c, 0, 38, 0
1, 23160, Note_on_c, 0, 66, 0
1, 23160, Note_on_c, 0, 74, 39
1, 23160, Note_on_c, 0, 45, 33
1, 23280, Tempo, 542545
1, 23280, Note_on_c, 0, 45, 0
1, 23280, Note_on_c, 0, 74, 0
1, 23280, Note_on_c, 0, 62, 30
1, 23280, Note_on_c, 0, 57, 37
1, 23380, Tempo, 539957
1, 23400, Note_on_c, 0, 57, 0
1, 23400, Note_on_c, 0, 62, 0
1, 23400, Note_on_c, 0, 70, 49
1, 23400, Note_on_c, 0, 45, 33
1, 23480, Tempo, 537394
1, 23520, Note_on_c, 0, 45, 0
1, 23520, Note_on_c, 0, 76, 42
1, 23520, Note_on_c, 0, 38, 35
1, 23560, Tempo, 534855
1, 23640, Note_on_c, 0, 38, 0
1, 23640, Note_on_c, 0, 76, 0
1, 23640, Note_on_c, 0, 70, 0
1, 23640, Note_on_c, 0, 69, 44
1, 23640, Note_on_c, 0, 45, 31
1, 23660, Tempo, 532340
1, 23740, Tempo, 529801
1, 23760, Tempo, 508345
1, 23760, Note_on_c, 0, 45, 0
1, 23760, Note_on_c, 0, 69, 0
1, 23760, Note_on_c, 0, 62, 38
1, 23760, Note_on_c, 0, 57, 41
1, 23774, Control_c, 0, 64, 0
1, 23782, Tempo, 502008
1, 23799, Control_c, 0, 64, 127
1, 23880, Note_on_c, 0, 57, 0
1, 23880, Note_on_c, 0, 62, 0
1, 23880, Note_on_c, 0, 67, 56
1, 23880, Note_on_c, 0, 45, 35
1, 23913, Tempo, 499542
1, 24000, Note_on_c, 0, 45, 0
1, 24000, Note_on_c, 0, 74, 45
1, 24000, Note_on_c, 0, 38, 41
1, 24022, Tempo, 497059
1, 24060, Note_on_c, 0, 38, 0
1, 24060, Note_on_c, 0, 74, 0
1, 24120, Note_on_c, 0, 67, 0
1, 24120, Note_on_c, 0, 66, 52
1, 24120, Note_on_c, 0, 45, 37
1, 24131, Tempo, 494601
1, 24200, Tempo, 499334
1, 24240, Tempo, 512601
1, 24240, Note_on_c, 0, 45, 0
1, 24240, Note_on_c, 0, 62, 50
1, 24240, Note_on_c, 0, 57, 46
1, 24360, Tempo, 495622
1, 24360, Note_on_c, 0, 57, 0
1, 24360, Note_on_c, 0, 62, 0
1, 24360, Note_on_c, 0, 66, 0
1, 24360, Note_on_c, 0, 70, 60
1, 24360, Note_on_c, 0, 45, 36
1, 24364, Control_c, 0, 64, 0
1, 24380, Tempo, 494927
1, 24406, Control_c, 0, 64, 127
1, 24420, Tempo, 497141
1, 24458, Tempo, 487409
1, 24460, Tempo, 494927
1, 24480, Tempo, 489756
1, 24480, Note_on_c, 0, 45, 0
1, 24480, Note_on_c, 0, 74, 51
1, 24480, Note_on_c, 0, 38, 46
1, 24540, Note_on_c, 0, 74, 0
1, 24600, Note_on_c, 0, 38, 0
1, 24600, Note_on_c, 0, 70, 0
1, 24600, Note_on_c, 0, 69, 58
1, 24600, Note_on_c, 0, 45, 39
1, 24660, Note_on_c, 0, 45, 0
1, 24720, Note_on_c, 0, 62, 57
1, 24720, Note_on_c, 0, 57, 49
1, 24733, Control_c, 0, 64, 0
1, 24742, Tempo, 487409
1, 24763, Control_c, 0, 64, 127
1, 24840, Note_on_c, 0, 57, 0
1, 24840, Note_on_c, 0, 62, 0
1, 24840, Note_on_c, 0, 69, 0
1, 24840, Note_on_c, 0, 67, 70
1, 24840, Note_on_c, 0, 45, 43
1, 24960, Note_on_c, 0, 45, 0
1, 24960, Note_on_c, 0, 74, 57
1, 24960, Note_on_c, 0, 38, 50
1, 24982, Tempo, 485044
1, 25020, Note_on_c, 0, 38, 0
1, 25020, Note_on_c, 0, 74, 0
1, 25080, Note_on_c, 0, 67, 0
1, 25080, Note_on_c, 0, 66, 63
1, 25080, Note_on_c, 0, 45, 45
1, 25200, Note_on_c, 0, 45, 0
1, 25200, Note_on_c, 0, 66, 0
1, 25200, Note_on_c, 0, 62, 69
1, 25200, Note_on_c, 0, 57, 53
1, 25221, Control_c, 0, 64, 0
1, 25222, Tempo, 482703
1, 25239, Control_c, 0, 64, 127
1, 25240, Tempo, 494927
1, 25280, Tempo, 497141
1, 25320, Tempo, 499334
1, 25320, Note_on_c, 0, 57, 0
1, 25320, Note_on_c, 0, 62, 0
1, 25320, Note_on_c, 0, 70, 77
1, 25320, Note_on_c, 0, 45, 45
1, 25340, Tempo, 501546
1, 25380, Tempo, 503778
1, 25420, Tempo, 506073
1, 25440, Note_on_c, 0, 45, 0
1, 25440, Note_on_c, 0, 74, 70
1, 25440, Note_on_c, 0, 38, 45
1, 25460, Tempo, 508345
1, 25480, Tempo, 510638
1, 25500, Note_on_c, 0, 38, 0
1, 25500, Note_on_c, 0, 74, 0
1, 25520, Tempo, 512908
1, 25560, Tempo, 515287
1, 25560, Note_on_c, 0, 70, 0
1, 25560, Note_on_c, 0, 69, 83
1, 25560, Note_on_c, 0, 45, 46
1, 25580, Tempo, 517688
1, 25620, Tempo, 520066
1, 25660, Tempo, 522466
1, 25680, Note_on_c, 0, 45, 0
1, 25680, Note_on_c, 0, 62, 91
1, 25680, Note_on_c, 0, 57, 63
1, 25687, Control_c, 0, 64, 0
1, 25700, Tempo, 524843
1, 25720, Tempo, 527333
1, 25737, Control_c, 0, 64, 127
1, 25800, Tempo, 576701
1, 25800, Note_on_c, 0, 57, 0
1, 25800, Note_on_c, 0, 62, 0
1, 25800, Note_on_c, 0, 69, 0
1, 25800, Note_on_c, 0, 74, 96
1, 25800, Note_on_c, 0, 45, 58
1, 25920, Tempo, 537875
1, 25920, Note_on_c, 0, 45, 0
1, 25920, Note_on_c, 0, 74, 0
1, 25920, Note_on_c, 0, 90, 108
1, 25920, Note_on_c, 0, 38, 79
1, 26040, Note_on_c, 0, 38, 0
1, 26040, Note_on_c, 0, 90, 0
1, 26135, Control_c, 0, 64, 0
1, 26490, Note_on_c, 0, 45, 46
1, 26520, Note_on_c, 0, 52, 51
1, 26531, Control_c, 0, 64, 127
1, 26550, Note_on_c, 0, 61, 60
1, 26580, Note_on_c, 0, 67, 79
1, 26610, Note_on_c, 0, 76, 86
1, 26640, Note_on_c, 0, 81, 93
1, 26700, Note_on_c, 0, 61, 0
1, 26700, Note_on_c, 0, 45, 0
1, 26700, Note_on_c, 0, 52, 0
1, 26760, Note_on_c, 0, 67, 0
1, 26760, Note_on_c, 0, 76, 0
1, 26760, Note_on_c, 0, 81, 0
1, 26929, Control_c, 0, 64, 0
1, 27300, Control_c, 0, 64, 127
1, 27300, Note_on_c, 0, 38, 58
1, 27360, Note_on_c, 0, 38, 0
1, 27360, Note_on_c, 0, 66, 86
1, 27360, Note_on_c, 0, 74, 86
1, 27360, Note_on_c, 0, 78, 101
1, 27360, Note_on_c, 0, 57, 51
1, 27360, Note_on_c, 0, 50, 51
1, 27360, Note_on_c, 0, 62, 60
1, 27420, Note_on_c, 0, 62, 0
1, 27420, Note_on_c, 0, 57, 0
1, 27420, Note_on_c, 0, 50, 0
1, 27480, Note_on_c, 0, 66, 0
1, 27480, Note_on_c, 0, 78, 0
1, 27480, Note_on_c, 0, 74, 0
1, 27688, Tempo, 537875
1, 27688, Control_c, 0, 64, 0
1, 28080, Tempo, 600000
1, 28080, End_track
0, 0, End_of_file
