0, 0, Header, 0, 1, 480
1, 0, Start_track
1, 0, Title_t, "Chopin Prelude  No. 19, Opus 28"
1, 0, Copyright_t, "Copyright © 2002 by Bernd Krueger "
1, 0, Text_t, "Frederic Chopin"
1, 0, Text_t, "Vivace"
1, 0, Text_t, "Fertiggestellt am 24.11.2002\012"
1, 0, Text_t, "Normierung: 23.12.2002\012"
1, 0, Text_t, "Update am 24.6.2010\012"
1, 0, Text_t, "Update am 22.2.2014\012"
1, 0, Text_t, "Dauer:  1:10 Minuten\012"
1, 0, SMPTE_offset, 96, 0, 3, 0, 0
1, 0, Time_signature, 3, 2, 24, 8
1, 0, Key_signature, -3, "major"
1, 0, Tempo, 293988
1, 0, Program_c, 0, 0
1, 0, Control_c, 0, 7, 100
1, 0, Control_c, 0, 10, 64
1, 0, Control_c, 0, 64, 0
1, 0, Control_c, 0, 91, 127
1, 0, Text_t, "bdca426d104a26ac9dcb070447587523"
1, 0, Program_c, 0, 0
1, 0, Control_c, 0, 7, 100
1, 0, Control_c, 0, 10, 64
1, 960, Tempo, 322078
1, 960, Note_on_c, 0, 70, 49
1, 1440, Tempo, 308071
1, 1440, Note_on_c, 0, 70, 0
1, 1440, Note_on_c, 0, 70, 48
1, 1440, Note_on_c, 0, 39, 36
1, 1480, Tempo, 315789
1, 1504, Control_c, 0, 64, 127
1, 1600, Tempo, 314911
1, 1600, Note_on_c, 0, 39, 0
1, 1600, Note_on_c, 0, 70, 0
1, 1600, Note_on_c, 0, 58, 37
1, 1600, Note_on_c, 0, 55, 28
1, 1720, Tempo, 314037
1, 1760, Note_on_c, 0, 55, 0
1, 1760, Note_on_c, 0, 58, 0
1, 1760, Note_on_c, 0, 67, 37
1, 1760, Note_on_c, 0, 46, 28
1, 1840, Tempo, 313169
1, 1920, Note_on_c, 0, 46, 0
1, 1920, Note_on_c, 0, 67, 0
1, 1920, Note_on_c, 0, 75, 52
1, 1920, Note_on_c, 0, 39, 33
1, 2080, Note_on_c, 0, 39, 0
1, 2080, Note_on_c, 0, 75, 0
1, 2080, Note_on_c, 0, 63, 39
1, 2080, Note_on_c, 0, 55, 29
1, 2160, Tempo, 308912
1, 2240, Note_on_c, 0, 55, 0
1, 2240, Note_on_c, 0, 63, 0
1, 2240, Note_on_c, 0, 70, 40
1, 2240, Note_on_c, 0, 46, 30
1, 2320, Tempo, 308071
1, 2400, Note_on_c, 0, 46, 0
1, 2400, Note_on_c, 0, 70, 0
1, 2400, Note_on_c, 0, 79, 56
1, 2400, Note_on_c, 0, 39, 36
1, 2440, Tempo, 307235
1, 2560, Note_on_c, 0, 39, 0
1, 2560, Note_on_c, 0, 79, 0
1, 2560, Note_on_c, 0, 67, 41
1, 2560, Note_on_c, 0, 58, 32
1, 2600, Tempo, 306404
1, 2720, Tempo, 305577
1, 2720, Note_on_c, 0, 58, 0
1, 2720, Note_on_c, 0, 67, 0
1, 2720, Note_on_c, 0, 75, 44
1, 2720, Note_on_c, 0, 46, 32
1, 2840, Tempo, 304754
1, 2880, Note_on_c, 0, 46, 0
1, 2880, Note_on_c, 0, 75, 0
1, 2880, Note_on_c, 0, 82, 63
1, 2880, Note_on_c, 0, 39, 41
1, 2960, Tempo, 303936
1, 3040, Note_on_c, 0, 39, 0
1, 3040, Note_on_c, 0, 82, 0
1, 3040, Note_on_c, 0, 70, 49
1, 3040, Note_on_c, 0, 63, 33
1, 3080, Tempo, 303122
1, 3200, Tempo, 302313
1, 3200, Note_on_c, 0, 63, 0
1, 3200, Note_on_c, 0, 70, 0
1, 3200, Note_on_c, 0, 79, 50
1, 3200, Note_on_c, 0, 55, 34
1, 3320, Tempo, 301508
1, 3360, Note_on_c, 0, 55, 0
1, 3360, Note_on_c, 0, 79, 0
1, 3360, Note_on_c, 0, 87, 68
1, 3360, Note_on_c, 0, 46, 42
1, 3440, Tempo, 300722
1, 3520, Note_on_c, 0, 46, 0
1, 3520, Note_on_c, 0, 87, 0
1, 3520, Note_on_c, 0, 75, 52
1, 3520, Note_on_c, 0, 67, 35
1, 3560, Tempo, 299925
1, 3680, Tempo, 299133
1, 3680, Note_on_c, 0, 67, 0
1, 3680, Note_on_c, 0, 75, 0
1, 3680, Note_on_c, 0, 82, 55
1, 3680, Note_on_c, 0, 58, 37
1, 3800, Tempo, 298344
1, 3840, Tempo, 295232
1, 3840, Note_on_c, 0, 58, 0
1, 3840, Note_on_c, 0, 82, 0
1, 3840, Note_on_c, 0, 91, 71
1, 3840, Note_on_c, 0, 51, 47
1, 3920, Tempo, 296004
1, 3960, Tempo, 296780
1, 4000, Note_on_c, 0, 51, 0
1, 4000, Note_on_c, 0, 91, 0
1, 4000, Note_on_c, 0, 79, 54
1, 4000, Note_on_c, 0, 70, 39
1, 4040, Tempo, 297560
1, 4080, Tempo, 298344
1, 4120, Tempo, 299133
1, 4160, Note_on_c, 0, 70, 0
1, 4160, Note_on_c, 0, 79, 0
1, 4160, Note_on_c, 0, 82, 57
1, 4160, Note_on_c, 0, 58, 45
1, 4200, Tempo, 299925
1, 4240, Tempo, 300722
1, 4280, Tempo, 301508
1, 4320, Note_on_c, 0, 58, 0
1, 4320, Note_on_c, 0, 82, 0
1, 4320, Note_on_c, 0, 89, 75
1, 4320, Note_on_c, 0, 51, 55
1, 4329, Control_c, 0, 64, 0
1, 4377, Control_c, 0, 64, 127
1, 4480, Tempo, 305577
1, 4480, Note_on_c, 0, 51, 0
1, 4480, Note_on_c, 0, 89, 0
1, 4480, Note_on_c, 0, 74, 58
1, 4480, Note_on_c, 0, 71, 39
1, 4640, Tempo, 306404
1, 4640, Note_on_c, 0, 71, 0
1, 4640, Note_on_c, 0, 74, 0
1, 4640, Note_on_c, 0, 80, 56
1, 4640, Note_on_c, 0, 59, 38
1, 4800, Tempo, 307235
1, 4800, Note_on_c, 0, 59, 0
1, 4800, Note_on_c, 0, 80, 0
1, 4800, Note_on_c, 0, 87, 72
1, 4800, Note_on_c, 0, 51, 49
1, 4806, Control_c, 0, 64, 0
1, 4846, Control_c, 0, 64, 127
1, 4960, Tempo, 308071
1, 4960, Note_on_c, 0, 51, 0
1, 4960, Note_on_c, 0, 87, 0
1, 4960, Note_on_c, 0, 75, 56
1, 4960, Note_on_c, 0, 72, 38
1, 5120, Tempo, 308912
1, 5120, Note_on_c, 0, 72, 0
1, 5120, Note_on_c, 0, 75, 0
1, 5120, Note_on_c, 0, 80, 55
1, 5120, Note_on_c, 0, 60, 36
1, 5280, Tempo, 309757
1, 5280, Note_on_c, 0, 60, 0
1, 5280, Note_on_c, 0, 80, 0
1, 5280, Note_on_c, 0, 84, 68
1, 5280, Note_on_c, 0, 51, 41
1, 5294, Control_c, 0, 64, 0
1, 5360, Control_c, 0, 64, 127
1, 5440, Note_on_c, 0, 51, 0
1, 5440, Note_on_c, 0, 84, 0
1, 5440, Note_on_c, 0, 72, 51
1, 5440, Note_on_c, 0, 68, 33
1, 5600, Tempo, 323922
1, 5600, Note_on_c, 0, 68, 0
1, 5600, Note_on_c, 0, 72, 0
1, 5600, Note_on_c, 0, 80, 49
1, 5600, Note_on_c, 0, 62, 32
1, 5760, Tempo, 309757
1, 5760, Note_on_c, 0, 62, 0
1, 5760, Note_on_c, 0, 80, 0
1, 5760, Note_on_c, 0, 84, 70
1, 5760, Note_on_c, 0, 51, 46
1, 5767, Control_c, 0, 64, 0
1, 5831, Control_c, 0, 64, 127
1, 5920, Tempo, 310607
1, 5920, Note_on_c, 0, 51, 0
1, 5920, Note_on_c, 0, 84, 0
1, 5920, Note_on_c, 0, 72, 51
1, 5920, Note_on_c, 0, 67, 36
1, 6080, Tempo, 311462
1, 6080, Note_on_c, 0, 67, 0
1, 6080, Note_on_c, 0, 72, 0
1, 6080, Note_on_c, 0, 79, 46
1, 6080, Note_on_c, 0, 63, 32
1, 6240, Tempo, 312305
1, 6240, Note_on_c, 0, 63, 0
1, 6240, Note_on_c, 0, 79, 0
1, 6240, Note_on_c, 0, 82, 62
1, 6240, Note_on_c, 0, 58, 39
1, 6252, Control_c, 0, 64, 0
1, 6339, Control_c, 0, 64, 127
1, 6360, Tempo, 313169
1, 6400, Note_on_c, 0, 58, 0
1, 6400, Note_on_c, 0, 82, 0
1, 6400, Note_on_c, 0, 70, 43
1, 6400, Note_on_c, 0, 67, 30
1, 6520, Tempo, 314037
1, 6560, Note_on_c, 0, 67, 0
1, 6560, Note_on_c, 0, 70, 0
1, 6560, Note_on_c, 0, 75, 43
1, 6560, Note_on_c, 0, 63, 30
1, 6680, Tempo, 314911
1, 6720, Note_on_c, 0, 63, 0
1, 6720, Note_on_c, 0, 75, 0
1, 6720, Note_on_c, 0, 79, 60
1, 6720, Note_on_c, 0, 51, 35
1, 6840, Tempo, 315789
1, 6880, Note_on_c, 0, 51, 0
1, 6880, Note_on_c, 0, 79, 0
1, 6880, Note_on_c, 0, 67, 43
1, 6880, Note_on_c, 0, 63, 29
1, 6960, Tempo, 316673
1, 7040, Note_on_c, 0, 63, 0
1, 7040, Note_on_c, 0, 67, 0
1, 7040, Note_on_c, 0, 70, 41
1, 7040, Note_on_c, 0, 55, 29
1, 7160, Tempo, 308071
1, 7200, Note_on_c, 0, 55, 0
1, 7200, Note_on_c, 0, 70, 0
1, 7200, Note_on_c, 0, 75, 53
1, 7200, Note_on_c, 0, 41, 36
1, 7207, Control_c, 0, 64, 0
1, 7257, Control_c, 0, 64, 127
1, 7360, Tempo, 307235
1, 7360, Note_on_c, 0, 41, 0
1, 7360, Note_on_c, 0, 75, 0
1, 7360, Note_on_c, 0, 63, 38
1, 7360, Note_on_c, 0, 60, 28
1, 7520, Tempo, 306404
1, 7520, Note_on_c, 0, 60, 0
1, 7520, Note_on_c, 0, 63, 0
1, 7520, Note_on_c, 0, 69, 38
1, 7520, Note_on_c, 0, 53, 29
1, 7680, Tempo, 305577
1, 7680, Note_on_c, 0, 53, 0
1, 7680, Note_on_c, 0, 69, 0
1, 7680, Note_on_c, 0, 74, 54
1, 7680, Note_on_c, 0, 48, 34
1, 7691, Control_c, 0, 64, 0
1, 7726, Control_c, 0, 64, 127
1, 7840, Tempo, 304754
1, 7840, Note_on_c, 0, 48, 0
1, 7840, Note_on_c, 0, 74, 0
1, 7840, Note_on_c, 0, 62, 44
1, 7840, Note_on_c, 0, 60, 30
1, 8000, Tempo, 303936
1, 8000, Note_on_c, 0, 60, 0
1, 8000, Note_on_c, 0, 62, 0
1, 8000, Note_on_c, 0, 69, 48
1, 8000, Note_on_c, 0, 53, 32
1, 8160, Tempo, 303122
1, 8160, Note_on_c, 0, 53, 0
1, 8160, Note_on_c, 0, 69, 0
1, 8160, Note_on_c, 0, 75, 64
1, 8160, Note_on_c, 0, 41, 41
1, 8166, Control_c, 0, 64, 0
1, 8217, Control_c, 0, 64, 127
1, 8320, Tempo, 302313
1, 8320, Note_on_c, 0, 41, 0
1, 8320, Note_on_c, 0, 75, 0
1, 8320, Note_on_c, 0, 63, 51
1, 8320, Note_on_c, 0, 60, 37
1, 8480, Tempo, 301508
1, 8480, Note_on_c, 0, 60, 0
1, 8480, Note_on_c, 0, 63, 0
1, 8480, Note_on_c, 0, 69, 55
1, 8480, Note_on_c, 0, 53, 42
1, 8640, Tempo, 295232
1, 8640, Note_on_c, 0, 53, 0
1, 8640, Note_on_c, 0, 69, 0
1, 8640, Note_on_c, 0, 79, 70
1, 8640, Note_on_c, 0, 46, 50
1, 8647, Control_c, 0, 64, 0
1, 8696, Control_c, 0, 64, 127
1, 8760, Tempo, 296004
1, 8800, Note_on_c, 0, 46, 0
1, 8800, Note_on_c, 0, 79, 0
1, 8800, Note_on_c, 0, 67, 55
1, 8800, Note_on_c, 0, 63, 35
1, 8880, Tempo, 296780
1, 8960, Note_on_c, 0, 63, 0
1, 8960, Note_on_c, 0, 67, 0
1, 8960, Note_on_c, 0, 70, 53
1, 8960, Note_on_c, 0, 53, 35
1, 9000, Tempo, 297560
1, 9120, Tempo, 298344
1, 9120, Note_on_c, 0, 53, 0
1, 9120, Note_on_c, 0, 70, 0
1, 9120, Note_on_c, 0, 77, 65
1, 9120, Note_on_c, 0, 50, 43
1, 9135, Control_c, 0, 64, 0
1, 9205, Control_c, 0, 64, 127
1, 9240, Tempo, 299133
1, 9280, Note_on_c, 0, 50, 0
1, 9280, Note_on_c, 0, 77, 0
1, 9280, Note_on_c, 0, 65, 49
1, 9280, Note_on_c, 0, 62, 36
1, 9360, Tempo, 299925
1, 9440, Note_on_c, 0, 62, 0
1, 9440, Note_on_c, 0, 65, 0
1, 9440, Note_on_c, 0, 70, 47
1, 9440, Note_on_c, 0, 53, 34
1, 9480, Tempo, 300722
1, 9600, Tempo, 301508
1, 9600, Note_on_c, 0, 53, 0
1, 9600, Note_on_c, 0, 70, 0
1, 9600, Note_on_c, 0, 74, 63
1, 9600, Note_on_c, 0, 46, 39
1, 9720, Tempo, 302313
1, 9760, Note_on_c, 0, 46, 0
1, 9760, Note_on_c, 0, 74, 0
1, 9760, Note_on_c, 0, 62, 42
1, 9760, Note_on_c, 0, 58, 34
1, 9840, Tempo, 303122
1, 9920, Note_on_c, 0, 58, 0
1, 9920, Note_on_c, 0, 62, 0
1, 9920, Note_on_c, 0, 65, 41
1, 9920, Note_on_c, 0, 53, 33
1, 9960, Tempo, 303936
1, 10000, Tempo, 300722
1, 10040, Tempo, 301508
1, 10080, Tempo, 316623
1, 10080, Note_on_c, 0, 53, 0
1, 10080, Note_on_c, 0, 65, 0
1, 10080, Note_on_c, 0, 75, 53
1, 10080, Note_on_c, 0, 41, 36
1, 10087, Control_c, 0, 64, 0
1, 10137, Control_c, 0, 64, 127
1, 10240, Tempo, 309278
1, 10240, Note_on_c, 0, 41, 0
1, 10240, Note_on_c, 0, 75, 0
1, 10240, Note_on_c, 0, 63, 38
1, 10240, Note_on_c, 0, 60, 28
1, 10320, Tempo, 314136
1, 10400, Note_on_c, 0, 60, 0
1, 10400, Note_on_c, 0, 63, 0
1, 10400, Note_on_c, 0, 69, 38
1, 10400, Note_on_c, 0, 53, 29
1, 10440, Tempo, 313316
1, 10560, Tempo, 312500
1, 10560, Note_on_c, 0, 53, 0
1, 10560, Note_on_c, 0, 69, 0
1, 10560, Note_on_c, 0, 74, 54
1, 10560, Note_on_c, 0, 48, 34
1, 10571, Control_c, 0, 64, 0
1, 10606, Control_c, 0, 64, 127
1, 10640, Tempo, 311688
1, 10720, Note_on_c, 0, 48, 0
1, 10720, Note_on_c, 0, 74, 0
1, 10720, Note_on_c, 0, 62, 44
1, 10720, Note_on_c, 0, 59, 30
1, 10760, Tempo, 310881
1, 10840, Tempo, 310078
1, 10880, Note_on_c, 0, 59, 0
1, 10880, Note_on_c, 0, 62, 0
1, 10880, Note_on_c, 0, 69, 47
1, 10880, Note_on_c, 0, 53, 32
1, 10960, Tempo, 309278
1, 11000, Tempo, 308483
1, 11040, Tempo, 309278
1, 11040, Note_on_c, 0, 53, 0
1, 11040, Note_on_c, 0, 69, 0
1, 11040, Note_on_c, 0, 75, 59
1, 11040, Note_on_c, 0, 41, 38
1, 11046, Control_c, 0, 64, 0
1, 11080, Tempo, 310078
1, 11097, Control_c, 0, 64, 127
1, 11120, Tempo, 310881
1, 11160, Tempo, 311688
1, 11200, Tempo, 312500
1, 11200, Note_on_c, 0, 41, 0
1, 11200, Note_on_c, 0, 75, 0
1, 11200, Note_on_c, 0, 63, 50
1, 11200, Note_on_c, 0, 60, 34
1, 11240, Tempo, 313316
1, 11280, Tempo, 314136
1, 11320, Tempo, 314961
1, 11360, Tempo, 309757
1, 11360, Note_on_c, 0, 60, 0
1, 11360, Note_on_c, 0, 63, 0
1, 11360, Note_on_c, 0, 69, 54
1, 11360, Note_on_c, 0, 53, 35
1, 11380, Tempo, 310607
1, 11400, Tempo, 377358
1, 11520, Tempo, 310078
1, 11520, Note_on_c, 0, 53, 0
1, 11520, Note_on_c, 0, 69, 0
1, 11520, Note_on_c, 0, 79, 67
1, 11520, Note_on_c, 0, 46, 49
1, 11527, Control_c, 0, 64, 0
1, 11560, Tempo, 314136
1, 11576, Control_c, 0, 64, 127
1, 11640, Tempo, 313316
1, 11680, Note_on_c, 0, 46, 0
1, 11680, Note_on_c, 0, 79, 0
1, 11680, Note_on_c, 0, 67, 49
1, 11680, Note_on_c, 0, 63, 35
1, 11720, Tempo, 312500
1, 11800, Tempo, 311688
1, 11840, Note_on_c, 0, 63, 0
1, 11840, Note_on_c, 0, 67, 0
1, 11840, Note_on_c, 0, 72, 48
1, 11840, Note_on_c, 0, 56, 35
1, 11880, Tempo, 310881
1, 11960, Tempo, 310078
1, 12000, Tempo, 309278
1, 12000, Note_on_c, 0, 56, 0
1, 12000, Note_on_c, 0, 72, 0
1, 12000, Note_on_c, 0, 77, 60
1, 12000, Note_on_c, 0, 53, 43
1, 12160, Note_on_c, 0, 53, 0
1, 12160, Note_on_c, 0, 77, 0
1, 12160, Note_on_c, 0, 65, 43
1, 12160, Note_on_c, 0, 62, 35
1, 12320, Tempo, 307692
1, 12320, Note_on_c, 0, 62, 0
1, 12320, Note_on_c, 0, 65, 0
1, 12320, Note_on_c, 0, 68, 42
1, 12320, Note_on_c, 0, 53, 34
1, 12360, Tempo, 306905
1, 12400, Tempo, 307692
1, 12440, Tempo, 309278
1, 12480, Tempo, 310881
1, 12480, Note_on_c, 0, 53, 0
1, 12480, Note_on_c, 0, 68, 0
1, 12480, Note_on_c, 0, 72, 58
1, 12480, Note_on_c, 0, 46, 39
1, 12495, Control_c, 0, 64, 0
1, 12520, Tempo, 311688
1, 12560, Tempo, 313316
1, 12600, Tempo, 314961
1, 12614, Control_c, 0, 64, 127
1, 12640, Tempo, 315789
1, 12640, Note_on_c, 0, 46, 0
1, 12640, Note_on_c, 0, 72, 0
1, 12640, Note_on_c, 0, 60, 42
1, 12640, Note_on_c, 0, 56, 33
1, 12680, Tempo, 317460
1, 12720, Tempo, 319149
1, 12760, Tempo, 320000
1, 12800, Tempo, 321716
1, 12800, Note_on_c, 0, 56, 0
1, 12800, Note_on_c, 0, 60, 0
1, 12800, Note_on_c, 0, 65, 41
1, 12800, Note_on_c, 0, 50, 32
1, 12840, Tempo, 323450
1, 12880, Tempo, 325203
1, 12920, Tempo, 301508
1, 12960, Tempo, 308071
1, 12960, Note_on_c, 0, 50, 0
1, 12960, Note_on_c, 0, 65, 0
1, 12960, Note_on_c, 0, 70, 53
1, 12960, Note_on_c, 0, 39, 36
1, 12978, Control_c, 0, 64, 0
1, 13000, Tempo, 315789
1, 13080, Control_c, 0, 64, 127
1, 13120, Tempo, 314911
1, 13120, Note_on_c, 0, 39, 0
1, 13120, Note_on_c, 0, 70, 0
1, 13120, Note_on_c, 0, 58, 38
1, 13120, Note_on_c, 0, 55, 28
1, 13240, Tempo, 314037
1, 13280, Note_on_c, 0, 55, 0
1, 13280, Note_on_c, 0, 58, 0
1, 13280, Note_on_c, 0, 67, 37
1, 13280, Note_on_c, 0, 46, 28
1, 13360, Tempo, 313169
1, 13440, Note_on_c, 0, 46, 0
1, 13440, Note_on_c, 0, 67, 0
1, 13440, Note_on_c, 0, 75, 52
1, 13440, Note_on_c, 0, 39, 33
1, 13600, Note_on_c, 0, 39, 0
1, 13600, Note_on_c, 0, 75, 0
1, 13600, Note_on_c, 0, 63, 39
1, 13600, Note_on_c, 0, 55, 29
1, 13680, Tempo, 308912
1, 13760, Note_on_c, 0, 55, 0
1, 13760, Note_on_c, 0, 63, 0
1, 13760, Note_on_c, 0, 70, 40
1, 13760, Note_on_c, 0, 46, 30
1, 13840, Tempo, 308071
1, 13920, Note_on_c, 0, 46, 0
1, 13920, Note_on_c, 0, 70, 0
1, 13920, Note_on_c, 0, 79, 56
1, 13920, Note_on_c, 0, 39, 36
1, 13960, Tempo, 307235
1, 14080, Note_on_c, 0, 39, 0
1, 14080, Note_on_c, 0, 79, 0
1, 14080, Note_on_c, 0, 67, 41
1, 14080, Note_on_c, 0, 58, 32
1, 14120, Tempo, 306404
1, 14240, Tempo, 305577
1, 14240, Note_on_c, 0, 58, 0
1, 14240, Note_on_c, 0, 67, 0
1, 14240, Note_on_c, 0, 75, 44
1, 14240, Note_on_c, 0, 46, 32
1, 14360, Tempo, 304754
1, 14400, Tempo, 308071
1, 14400, Note_on_c, 0, 46, 0
1, 14400, Note_on_c, 0, 75, 0
1, 14400, Note_on_c, 0, 82, 69
1, 14400, Note_on_c, 0, 39, 40
1, 14480, Tempo, 303936
1, 14560, Note_on_c, 0, 39, 0
1, 14560, Note_on_c, 0, 82, 0
1, 14560, Note_on_c, 0, 70, 49
1, 14560, Note_on_c, 0, 63, 33
1, 14600, Tempo, 303122
1, 14720, Tempo, 302313
1, 14720, Note_on_c, 0, 63, 0
1, 14720, Note_on_c, 0, 70, 0
1, 14720, Note_on_c, 0, 79, 50
1, 14720, Note_on_c, 0, 55, 34
1, 14840, Tempo, 301508
1, 14880, Note_on_c, 0, 55, 0
1, 14880, Note_on_c, 0, 79, 0
1, 14880, Note_on_c, 0, 87, 74
1, 14880, Note_on_c, 0, 46, 42
1, 14960, Tempo, 300722
1, 15040, Note_on_c, 0, 46, 0
1, 15040, Note_on_c, 0, 87, 0
1, 15040, Note_on_c, 0, 75, 52
1, 15040, Note_on_c, 0, 67, 35
1, 15080, Tempo, 299925
1, 15200, Tempo, 299133
1, 15200, Note_on_c, 0, 67, 0
1, 15200, Note_on_c, 0, 75, 0
1, 15200, Note_on_c, 0, 82, 55
1, 15200, Note_on_c, 0, 58, 37
1, 15320, Tempo, 298344
1, 15360, Tempo, 295232
1, 15360, Note_on_c, 0, 58, 0
1, 15360, Note_on_c, 0, 82, 0
1, 15360, Note_on_c, 0, 91, 77
1, 15360, Note_on_c, 0, 51, 50
1, 15440, Tempo, 296004
1, 15480, Tempo, 296780
1, 15520, Note_on_c, 0, 51, 0
1, 15520, Note_on_c, 0, 91, 0
1, 15520, Note_on_c, 0, 79, 63
1, 15520, Note_on_c, 0, 70, 39
1, 15560, Tempo, 297560
1, 15600, Tempo, 298344
1, 15640, Tempo, 299133
1, 15680, Note_on_c, 0, 70, 0
1, 15680, Note_on_c, 0, 79, 0
1, 15680, Note_on_c, 0, 82, 68
1, 15680, Note_on_c, 0, 58, 44
1, 15720, Tempo, 299925
1, 15760, Tempo, 300722
1, 15800, Tempo, 301508
1, 15840, Note_on_c, 0, 58, 0
1, 15840, Note_on_c, 0, 82, 0
1, 15840, Note_on_c, 0, 89, 81
1, 15840, Note_on_c, 0, 51, 54
1, 15849, Control_c, 0, 64, 0
1, 15897, Control_c, 0, 64, 127
1, 16000, Tempo, 305577
1, 16000, Note_on_c, 0, 51, 0
1, 16000, Note_on_c, 0, 89, 0
1, 16000, Note_on_c, 0, 74, 64
1, 16000, Note_on_c, 0, 71, 39
1, 16160, Tempo, 306404
1, 16160, Note_on_c, 0, 71, 0
1, 16160, Note_on_c, 0, 74, 0
1, 16160, Note_on_c, 0, 80, 61
1, 16160, Note_on_c, 0, 59, 38
1, 16320, Tempo, 307235
1, 16320, Note_on_c, 0, 59, 0
1, 16320, Note_on_c, 0, 80, 0
1, 16320, Note_on_c, 0, 87, 75
1, 16320, Note_on_c, 0, 51, 49
1, 16326, Control_c, 0, 64, 0
1, 16400, Control_c, 0, 64, 127
1, 16480, Tempo, 308071
1, 16480, Note_on_c, 0, 51, 0
1, 16480, Note_on_c, 0, 87, 0
1, 16480, Note_on_c, 0, 75, 56
1, 16480, Note_on_c, 0, 72, 38
1, 16640, Tempo, 308912
1, 16640, Note_on_c, 0, 72, 0
1, 16640, Note_on_c, 0, 75, 0
1, 16640, Note_on_c, 0, 80, 55
1, 16640, Note_on_c, 0, 60, 36
1, 16800, Tempo, 309757
1, 16800, Note_on_c, 0, 60, 0
1, 16800, Note_on_c, 0, 80, 0
1, 16800, Note_on_c, 0, 84, 67
1, 16800, Note_on_c, 0, 51, 41
1, 16814, Control_c, 0, 64, 0
1, 16880, Control_c, 0, 64, 127
1, 16960, Note_on_c, 0, 51, 0
1, 16960, Note_on_c, 0, 84, 0
1, 16960, Note_on_c, 0, 72, 51
1, 16960, Note_on_c, 0, 68, 33
1, 17120, Tempo, 323922
1, 17120, Note_on_c, 0, 68, 0
1, 17120, Note_on_c, 0, 72, 0
1, 17120, Note_on_c, 0, 80, 49
1, 17120, Note_on_c, 0, 62, 32
1, 17280, Tempo, 309757
1, 17280, Note_on_c, 0, 62, 0
1, 17280, Note_on_c, 0, 80, 0
1, 17280, Note_on_c, 0, 84, 70
1, 17280, Note_on_c, 0, 51, 46
1, 17287, Control_c, 0, 64, 0
1, 17351, Control_c, 0, 64, 127
1, 17440, Tempo, 310607
1, 17440, Note_on_c, 0, 51, 0
1, 17440, Note_on_c, 0, 84, 0
1, 17440, Note_on_c, 0, 72, 42
1, 17440, Note_on_c, 0, 67, 30
1, 17600, Tempo, 311462
1, 17600, Note_on_c, 0, 67, 0
1, 17600, Note_on_c, 0, 72, 0
1, 17600, Note_on_c, 0, 79, 43
1, 17600, Note_on_c, 0, 63, 31
1, 17760, Tempo, 312305
1, 17760, Note_on_c, 0, 63, 0
1, 17760, Note_on_c, 0, 79, 0
1, 17760, Note_on_c, 0, 82, 62
1, 17760, Note_on_c, 0, 58, 39
1, 17772, Control_c, 0, 64, 0
1, 17859, Control_c, 0, 64, 127
1, 17880, Tempo, 313169
1, 17920, Note_on_c, 0, 58, 0
1, 17920, Note_on_c, 0, 82, 0
1, 17920, Note_on_c, 0, 70, 43
1, 17920, Note_on_c, 0, 67, 30
1, 18040, Tempo, 314037
1, 18080, Note_on_c, 0, 67, 0
1, 18080, Note_on_c, 0, 70, 0
1, 18080, Note_on_c, 0, 75, 43
1, 18080, Note_on_c, 0, 63, 30
1, 18200, Tempo, 314911
1, 18240, Note_on_c, 0, 63, 0
1, 18240, Note_on_c, 0, 75, 0
1, 18240, Note_on_c, 0, 79, 60
1, 18240, Note_on_c, 0, 51, 35
1, 18360, Tempo, 315789
1, 18400, Note_on_c, 0, 51, 0
1, 18400, Note_on_c, 0, 79, 0
1, 18400, Note_on_c, 0, 67, 43
1, 18400, Note_on_c, 0, 63, 29
1, 18480, Tempo, 316673
1, 18560, Note_on_c, 0, 63, 0
1, 18560, Note_on_c, 0, 67, 0
1, 18560, Note_on_c, 0, 75, 41
1, 18560, Note_on_c, 0, 55, 29
1, 18680, Tempo, 308071
1, 18720, Tempo, 311462
1, 18720, Note_on_c, 0, 55, 0
1, 18720, Note_on_c, 0, 75, 0
1, 18720, Note_on_c, 0, 78, 57
1, 18720, Note_on_c, 0, 47, 36
1, 18727, Control_c, 0, 64, 0
1, 18777, Control_c, 0, 64, 127
1, 18880, Tempo, 307235
1, 18880, Note_on_c, 0, 47, 0
1, 18880, Note_on_c, 0, 78, 0
1, 18880, Note_on_c, 0, 66, 38
1, 18880, Note_on_c, 0, 63, 28
1, 19040, Tempo, 306404
1, 19040, Note_on_c, 0, 63, 0
1, 19040, Note_on_c, 0, 66, 0
1, 19040, Note_on_c, 0, 75, 37
1, 19040, Note_on_c, 0, 57, 28
1, 19200, Tempo, 305577
1, 19200, Note_on_c, 0, 57, 0
1, 19200, Note_on_c, 0, 75, 0
1, 19200, Note_on_c, 0, 77, 53
1, 19200, Note_on_c, 0, 51, 33
1, 19211, Control_c, 0, 64, 0
1, 19263, Control_c, 0, 64, 127
1, 19360, Tempo, 304754
1, 19360, Note_on_c, 0, 51, 0
1, 19360, Note_on_c, 0, 77, 0
1, 19360, Note_on_c, 0, 65, 39
1, 19360, Note_on_c, 0, 63, 29
1, 19520, Tempo, 303936
1, 19520, Note_on_c, 0, 63, 0
1, 19520, Note_on_c, 0, 65, 0
1, 19520, Note_on_c, 0, 75, 40
1, 19520, Note_on_c, 0, 57, 30
1, 19680, Tempo, 303122
1, 19680, Note_on_c, 0, 57, 0
1, 19680, Note_on_c, 0, 75, 0
1, 19680, Note_on_c, 0, 78, 59
1, 19680, Note_on_c, 0, 47, 36
1, 19686, Control_c, 0, 64, 0
1, 19737, Control_c, 0, 64, 127
1, 19840, Tempo, 302313
1, 19840, Note_on_c, 0, 47, 0
1, 19840, Note_on_c, 0, 78, 0
1, 19840, Note_on_c, 0, 66, 41
1, 19840, Note_on_c, 0, 63, 32
1, 20000, Tempo, 301508
1, 20000, Note_on_c, 0, 63, 0
1, 20000, Note_on_c, 0, 66, 0
1, 20000, Note_on_c, 0, 75, 44
1, 20000, Note_on_c, 0, 57, 32
1, 20160, Tempo, 303122
1, 20160, Note_on_c, 0, 57, 0
1, 20160, Note_on_c, 0, 75, 0
1, 20160, Note_on_c, 0, 79, 63
1, 20160, Note_on_c, 0, 46, 40
1, 20167, Control_c, 0, 64, 0
1, 20217, Control_c, 0, 64, 127
1, 20320, Note_on_c, 0, 46, 0
1, 20320, Note_on_c, 0, 79, 0
1, 20320, Note_on_c, 0, 67, 42
1, 20320, Note_on_c, 0, 62, 31
1, 20400, Tempo, 302313
1, 20480, Note_on_c, 0, 62, 0
1, 20480, Note_on_c, 0, 67, 0
1, 20480, Note_on_c, 0, 74, 42
1, 20480, Note_on_c, 0, 55, 32
1, 20600, Tempo, 301508
1, 20640, Note_on_c, 0, 55, 0
1, 20640, Note_on_c, 0, 74, 0
1, 20640, Note_on_c, 0, 81, 67
1, 20640, Note_on_c, 0, 45, 38
1, 20651, Control_c, 0, 64, 0
1, 20715, Control_c, 0, 64, 127
1, 20800, Tempo, 300722
1, 20800, Note_on_c, 0, 45, 0
1, 20800, Note_on_c, 0, 81, 0
1, 20800, Note_on_c, 0, 69, 47
1, 20800, Note_on_c, 0, 62, 32
1, 20960, Note_on_c, 0, 62, 0
1, 20960, Note_on_c, 0, 69, 0
1, 20960, Note_on_c, 0, 74, 52
1, 20960, Note_on_c, 0, 54, 34
1, 21000, Tempo, 299925
1, 21120, Note_on_c, 0, 54, 0
1, 21120, Note_on_c, 0, 74, 0
1, 21120, Note_on_c, 0, 82, 70
1, 21120, Note_on_c, 0, 43, 45
1, 21126, Control_c, 0, 64, 0
1, 21177, Control_c, 0, 64, 127
1, 21200, Tempo, 299133
1, 21280, Note_on_c, 0, 43, 0
1, 21280, Note_on_c, 0, 82, 0
1, 21280, Note_on_c, 0, 70, 51
1, 21280, Note_on_c, 0, 62, 36
1, 21400, Tempo, 298344
1, 21440, Tempo, 301508
1, 21440, Note_on_c, 0, 62, 0
1, 21440, Note_on_c, 0, 70, 0
1, 21440, Note_on_c, 0, 74, 55
1, 21440, Note_on_c, 0, 55, 40
1, 21600, Tempo, 311462
1, 21600, Note_on_c, 0, 55, 0
1, 21600, Note_on_c, 0, 74, 0
1, 21600, Note_on_c, 0, 84, 75
1, 21600, Note_on_c, 0, 41, 54
1, 21607, Control_c, 0, 64, 0
1, 21657, Control_c, 0, 64, 127
1, 21760, Tempo, 307235
1, 21760, Note_on_c, 0, 41, 0
1, 21760, Note_on_c, 0, 84, 0
1, 21760, Note_on_c, 0, 72, 55
1, 21760, Note_on_c, 0, 70, 42
1, 21920, Tempo, 306404
1, 21920, Note_on_c, 0, 70, 0
1, 21920, Note_on_c, 0, 72, 0
1, 21920, Note_on_c, 0, 77, 55
1, 21920, Note_on_c, 0, 63, 45
1, 22080, Tempo, 305577
1, 22080, Note_on_c, 0, 63, 0
1, 22080, Note_on_c, 0, 77, 0
1, 22080, Note_on_c, 0, 86, 72
1, 22080, Note_on_c, 0, 53, 52
1, 22240, Tempo, 304754
1, 22240, Note_on_c, 0, 53, 0
1, 22240, Note_on_c, 0, 86, 0
1, 22240, Note_on_c, 0, 74, 54
1, 22240, Note_on_c, 0, 70, 42
1, 22400, Tempo, 303936
1, 22400, Note_on_c, 0, 70, 0
1, 22400, Note_on_c, 0, 74, 0
1, 22400, Note_on_c, 0, 77, 48
1, 22400, Note_on_c, 0, 63, 35
1, 22560, Tempo, 303122
1, 22560, Note_on_c, 0, 63, 0
1, 22560, Note_on_c, 0, 77, 0
1, 22560, Note_on_c, 0, 81, 67
1, 22560, Note_on_c, 0, 60, 42
1, 22566, Control_c, 0, 64, 0
1, 22617, Control_c, 0, 64, 127
1, 22720, Tempo, 302313
1, 22720, Note_on_c, 0, 60, 0
1, 22720, Note_on_c, 0, 81, 0
1, 22720, Note_on_c, 0, 69, 48
1, 22720, Note_on_c, 0, 65, 37
1, 22880, Tempo, 332410
1, 22880, Note_on_c, 0, 65, 0
1, 22880, Note_on_c, 0, 69, 0
1, 22880, Note_on_c, 0, 77, 50
1, 22880, Note_on_c, 0, 63, 37
1, 23040, Tempo, 306905
1, 23040, Note_on_c, 0, 63, 0
1, 23040, Note_on_c, 0, 77, 0
1, 23040, Note_on_c, 0, 84, 68
1, 23040, Note_on_c, 0, 46, 50
1, 23046, Control_c, 0, 64, 0
1, 23096, Control_c, 0, 64, 127
1, 23160, Tempo, 307692
1, 23200, Note_on_c, 0, 46, 0
1, 23200, Note_on_c, 0, 84, 0
1, 23200, Note_on_c, 0, 72, 52
1, 23200, Note_on_c, 0, 63, 36
1, 23240, Tempo, 308483
1, 23360, Tempo, 309278
1, 23360, Note_on_c, 0, 63, 0
1, 23360, Note_on_c, 0, 72, 0
1, 23360, Note_on_c, 0, 77, 48
1, 23360, Note_on_c, 0, 53, 37
1, 23440, Tempo, 310078
1, 23520, Tempo, 310881
1, 23520, Note_on_c, 0, 53, 0
1, 23520, Note_on_c, 0, 77, 0
1, 23520, Note_on_c, 0, 82, 67
1, 23520, Note_on_c, 0, 46, 43
1, 23536, Control_c, 0, 64, 0
1, 23605, Control_c, 0, 64, 127
1, 23640, Tempo, 311688
1, 23680, Note_on_c, 0, 46, 0
1, 23680, Note_on_c, 0, 82, 0
1, 23680, Note_on_c, 0, 70, 43
1, 23680, Note_on_c, 0, 62, 36
1, 23720, Tempo, 312500
1, 23800, Tempo, 313316
1, 23840, Tempo, 355030
1, 23840, Note_on_c, 0, 62, 0
1, 23840, Note_on_c, 0, 70, 0
1, 23840, Note_on_c, 0, 77, 42
1, 23840, Note_on_c, 0, 53, 34
1, 24000, Tempo, 309278
1, 24000, Note_on_c, 0, 53, 0
1, 24000, Note_on_c, 0, 77, 0
1, 24000, Note_on_c, 0, 77, 65
1, 24000, Note_on_c, 0, 46, 39
1, 24015, Control_c, 0, 64, 0
1, 24134, Control_c, 0, 64, 127
1, 24160, Note_on_c, 0, 46, 0
1, 24160, Note_on_c, 0, 77, 0
1, 24160, Note_on_c, 0, 65, 42
1, 24160, Note_on_c, 0, 61, 34
1, 24320, Note_on_c, 0, 61, 0
1, 24320, Note_on_c, 0, 65, 0
1, 24320, Note_on_c, 0, 70, 41
1, 24320, Note_on_c, 0, 53, 33
1, 24360, Tempo, 303936
1, 24400, Tempo, 300722
1, 24440, Tempo, 301508
1, 24480, Tempo, 309757
1, 24480, Note_on_c, 0, 53, 0
1, 24480, Note_on_c, 0, 70, 0
1, 24480, Note_on_c, 0, 77, 59
1, 24480, Note_on_c, 0, 44, 36
1, 24487, Control_c, 0, 64, 0
1, 24537, Control_c, 0, 64, 127
1, 24640, Note_on_c, 0, 44, 0
1, 24640, Note_on_c, 0, 77, 0
1, 24640, Note_on_c, 0, 65, 47
1, 24640, Note_on_c, 0, 59, 28
1, 24720, Tempo, 315789
1, 24800, Note_on_c, 0, 59, 0
1, 24800, Note_on_c, 0, 65, 0
1, 24800, Note_on_c, 0, 71, 41
1, 24800, Note_on_c, 0, 53, 29
1, 24960, Tempo, 306122
1, 24960, Note_on_c, 0, 53, 0
1, 24960, Note_on_c, 0, 71, 0
1, 24960, Note_on_c, 0, 75, 54
1, 24960, Note_on_c, 0, 49, 34
1, 25120, Tempo, 304754
1, 25120, Note_on_c, 0, 49, 0
1, 25120, Note_on_c, 0, 75, 0
1, 25120, Note_on_c, 0, 63, 41
1, 25120, Note_on_c, 0, 59, 30
1, 25280, Tempo, 303936
1, 25280, Note_on_c, 0, 59, 0
1, 25280, Note_on_c, 0, 63, 0
1, 25280, Note_on_c, 0, 70, 43
1, 25280, Note_on_c, 0, 53, 32
1, 25440, Tempo, 303122
1, 25440, Note_on_c, 0, 53, 0
1, 25440, Note_on_c, 0, 70, 0
1, 25440, Note_on_c, 0, 77, 64
1, 25440, Note_on_c, 0, 37, 38
1, 25446, Control_c, 0, 64, 0
1, 25497, Control_c, 0, 64, 127
1, 25600, Tempo, 302313
1, 25600, Note_on_c, 0, 37, 0
1, 25600, Note_on_c, 0, 77, 0
1, 25600, Note_on_c, 0, 61, 44
1, 25600, Note_on_c, 0, 59, 34
1, 25760, Tempo, 301508
1, 25760, Note_on_c, 0, 59, 0
1, 25760, Note_on_c, 0, 61, 0
1, 25760, Note_on_c, 0, 68, 47
1, 25760, Note_on_c, 0, 53, 35
1, 25800, Tempo, 314961
1, 25920, Tempo, 318302
1, 25920, Note_on_c, 0, 53, 0
1, 25920, Note_on_c, 0, 68, 0
1, 25920, Note_on_c, 0, 80, 70
1, 25920, Note_on_c, 0, 42, 49
1, 25927, Control_c, 0, 64, 0
1, 25976, Control_c, 0, 64, 127
1, 26040, Tempo, 296004
1, 26080, Note_on_c, 0, 42, 0
1, 26080, Note_on_c, 0, 80, 0
1, 26080, Note_on_c, 0, 61, 53
1, 26080, Note_on_c, 0, 58, 35
1, 26160, Tempo, 296780
1, 26240, Note_on_c, 0, 58, 0
1, 26240, Note_on_c, 0, 61, 0
1, 26240, Note_on_c, 0, 70, 52
1, 26240, Note_on_c, 0, 54, 35
1, 26280, Tempo, 297560
1, 26400, Tempo, 298344
1, 26400, Note_on_c, 0, 54, 0
1, 26400, Note_on_c, 0, 70, 0
1, 26400, Note_on_c, 0, 78, 67
1, 26400, Note_on_c, 0, 49, 43
1, 26520, Tempo, 299133
1, 26560, Note_on_c, 0, 49, 0
1, 26560, Note_on_c, 0, 78, 0
1, 26560, Note_on_c, 0, 61, 43
1, 26560, Note_on_c, 0, 58, 36
1, 26640, Tempo, 299925
1, 26720, Note_on_c, 0, 58, 0
1, 26720, Note_on_c, 0, 61, 0
1, 26720, Note_on_c, 0, 70, 42
1, 26720, Note_on_c, 0, 54, 34
1, 26760, Tempo, 300722
1, 26880, Tempo, 301508
1, 26880, Note_on_c, 0, 54, 0
1, 26880, Note_on_c, 0, 70, 0
1, 26880, Note_on_c, 0, 73, 62
1, 26880, Note_on_c, 0, 42, 39
1, 26895, Control_c, 0, 64, 0
1, 26971, Control_c, 0, 64, 127
1, 27000, Tempo, 302313
1, 27040, Note_on_c, 0, 42, 0
1, 27040, Note_on_c, 0, 73, 0
1, 27040, Note_on_c, 0, 61, 42
1, 27040, Note_on_c, 0, 58, 34
1, 27120, Tempo, 303122
1, 27200, Note_on_c, 0, 58, 0
1, 27200, Note_on_c, 0, 61, 0
1, 27200, Note_on_c, 0, 70, 41
1, 27200, Note_on_c, 0, 49, 33
1, 27240, Tempo, 303936
1, 27280, Tempo, 300722
1, 27320, Tempo, 301508
1, 27360, Tempo, 309757
1, 27360, Note_on_c, 0, 49, 0
1, 27360, Note_on_c, 0, 70, 0
1, 27360, Note_on_c, 0, 77, 53
1, 27360, Note_on_c, 0, 37, 36
1, 27367, Control_c, 0, 64, 0
1, 27431, Control_c, 0, 64, 127
1, 27520, Tempo, 307235
1, 27520, Note_on_c, 0, 37, 0
1, 27520, Note_on_c, 0, 77, 0
1, 27520, Note_on_c, 0, 61, 38
1, 27520, Note_on_c, 0, 59, 28
1, 27680, Tempo, 306404
1, 27680, Note_on_c, 0, 59, 0
1, 27680, Note_on_c, 0, 61, 0
1, 27680, Note_on_c, 0, 71, 38
1, 27680, Note_on_c, 0, 53, 29
1, 27840, Tempo, 305577
1, 27840, Note_on_c, 0, 53, 0
1, 27840, Note_on_c, 0, 71, 0
1, 27840, Note_on_c, 0, 75, 54
1, 27840, Note_on_c, 0, 44, 34
1, 28000, Tempo, 304754
1, 28000, Note_on_c, 0, 44, 0
1, 28000, Note_on_c, 0, 75, 0
1, 28000, Note_on_c, 0, 61, 41
1, 28000, Note_on_c, 0, 59, 30
1, 28160, Tempo, 303936
1, 28160, Note_on_c, 0, 59, 0
1, 28160, Note_on_c, 0, 61, 0
1, 28160, Note_on_c, 0, 70, 43
1, 28160, Note_on_c, 0, 53, 32
1, 28320, Tempo, 303122
1, 28320, Note_on_c, 0, 53, 0
1, 28320, Note_on_c, 0, 70, 0
1, 28320, Note_on_c, 0, 77, 59
1, 28320, Note_on_c, 0, 37, 38
1, 28480, Tempo, 302313
1, 28480, Note_on_c, 0, 37, 0
1, 28480, Note_on_c, 0, 77, 0
1, 28480, Note_on_c, 0, 61, 49
1, 28480, Note_on_c, 0, 59, 34
1, 28640, Tempo, 301508
1, 28640, Note_on_c, 0, 59, 0
1, 28640, Note_on_c, 0, 61, 0
1, 28640, Note_on_c, 0, 68, 47
1, 28640, Note_on_c, 0, 53, 35
1, 28800, Tempo, 295232
1, 28800, Note_on_c, 0, 53, 0
1, 28800, Note_on_c, 0, 68, 0
1, 28800, Note_on_c, 0, 80, 69
1, 28800, Note_on_c, 0, 42, 50
1, 28808, Control_c, 0, 64, 0
1, 28856, Control_c, 0, 64, 127
1, 28920, Tempo, 296004
1, 28960, Note_on_c, 0, 42, 0
1, 28960, Note_on_c, 0, 80, 0
1, 28960, Note_on_c, 0, 61, 51
1, 28960, Note_on_c, 0, 58, 35
1, 29040, Tempo, 296780
1, 29120, Note_on_c, 0, 58, 0
1, 29120, Note_on_c, 0, 61, 0
1, 29120, Note_on_c, 0, 70, 50
1, 29120, Note_on_c, 0, 54, 35
1, 29160, Tempo, 297560
1, 29280, Tempo, 298344
1, 29280, Note_on_c, 0, 54, 0
1, 29280, Note_on_c, 0, 70, 0
1, 29280, Note_on_c, 0, 78, 67
1, 29280, Note_on_c, 0, 49, 43
1, 29400, Tempo, 299133
1, 29440, Note_on_c, 0, 49, 0
1, 29440, Note_on_c, 0, 78, 0
1, 29440, Note_on_c, 0, 61, 43
1, 29440, Note_on_c, 0, 58, 36
1, 29520, Tempo, 299925
1, 29600, Note_on_c, 0, 58, 0
1, 29600, Note_on_c, 0, 61, 0
1, 29600, Note_on_c, 0, 70, 42
1, 29600, Note_on_c, 0, 54, 34
1, 29640, Tempo, 300722
1, 29760, Tempo, 301508
1, 29760, Note_on_c, 0, 54, 0
1, 29760, Note_on_c, 0, 70, 0
1, 29760, Note_on_c, 0, 73, 62
1, 29760, Note_on_c, 0, 42, 39
1, 29880, Tempo, 302313
1, 29920, Note_on_c, 0, 42, 0
1, 29920, Note_on_c, 0, 73, 0
1, 29920, Note_on_c, 0, 61, 42
1, 29920, Note_on_c, 0, 58, 34
1, 30000, Tempo, 303122
1, 30080, Note_on_c, 0, 58, 0
1, 30080, Note_on_c, 0, 61, 0
1, 30080, Note_on_c, 0, 70, 41
1, 30080, Note_on_c, 0, 49, 33
1, 30120, Tempo, 303936
1, 30160, Tempo, 300722
1, 30200, Tempo, 301508
1, 30240, Tempo, 348837
1, 30240, Note_on_c, 0, 49, 0
1, 30240, Note_on_c, 0, 70, 0
1, 30240, Note_on_c, 0, 76, 58
1, 30240, Note_on_c, 0, 42, 36
1, 30247, Control_c, 0, 64, 0
1, 30297, Control_c, 0, 64, 127
1, 30400, Tempo, 307235
1, 30400, Note_on_c, 0, 42, 0
1, 30400, Note_on_c, 0, 76, 0
1, 30400, Note_on_c, 0, 64, 38
1, 30400, Note_on_c, 0, 58, 28
1, 30560, Tempo, 306404
1, 30560, Note_on_c, 0, 58, 0
1, 30560, Note_on_c, 0, 64, 0
1, 30560, Note_on_c, 0, 70, 38
1, 30560, Note_on_c, 0, 49, 29
1, 30720, Tempo, 305577
1, 30720, Note_on_c, 0, 49, 0
1, 30720, Note_on_c, 0, 70, 0
1, 30720, Note_on_c, 0, 82, 63
1, 30720, Note_on_c, 0, 42, 38
1, 30880, Tempo, 304754
1, 30880, Note_on_c, 0, 42, 0
1, 30880, Note_on_c, 0, 82, 0
1, 30880, Note_on_c, 0, 64, 44
1, 30880, Note_on_c, 0, 61, 30
1, 31040, Tempo, 303936
1, 31040, Note_on_c, 0, 61, 0
1, 31040, Note_on_c, 0, 64, 0
1, 31040, Note_on_c, 0, 73, 45
1, 31040, Note_on_c, 0, 54, 32
1, 31200, Tempo, 303122
1, 31200, Note_on_c, 0, 54, 0
1, 31200, Note_on_c, 0, 73, 0
1, 31200, Note_on_c, 0, 85, 68
1, 31200, Note_on_c, 0, 42, 42
1, 31360, Tempo, 302313
1, 31360, Note_on_c, 0, 42, 0
1, 31360, Note_on_c, 0, 85, 0
1, 31360, Note_on_c, 0, 70, 48
1, 31360, Note_on_c, 0, 64, 34
1, 31520, Tempo, 301508
1, 31520, Note_on_c, 0, 64, 0
1, 31520, Note_on_c, 0, 70, 0
1, 31520, Note_on_c, 0, 76, 51
1, 31520, Note_on_c, 0, 58, 36
1, 31680, Tempo, 303122
1, 31680, Note_on_c, 0, 58, 0
1, 31680, Note_on_c, 0, 76, 0
1, 31680, Note_on_c, 0, 86, 76
1, 31680, Note_on_c, 0, 41, 49
1, 31687, Control_c, 0, 64, 0
1, 31737, Control_c, 0, 64, 127
1, 31840, Note_on_c, 0, 41, 0
1, 31840, Note_on_c, 0, 86, 0
1, 31840, Note_on_c, 0, 70, 53
1, 31840, Note_on_c, 0, 65, 36
1, 31920, Tempo, 302313
1, 32000, Note_on_c, 0, 65, 0
1, 32000, Note_on_c, 0, 70, 0
1, 32000, Note_on_c, 0, 77, 52
1, 32000, Note_on_c, 0, 58, 35
1, 32120, Tempo, 301508
1, 32160, Note_on_c, 0, 58, 0
1, 32160, Note_on_c, 0, 77, 0
1, 32160, Note_on_c, 0, 87, 72
1, 32160, Note_on_c, 0, 53, 38
1, 32171, Control_c, 0, 64, 0
1, 32240, Control_c, 0, 64, 127
1, 32320, Tempo, 300722
1, 32320, Note_on_c, 0, 53, 0
1, 32320, Note_on_c, 0, 87, 0
1, 32320, Note_on_c, 0, 70, 43
1, 32320, Note_on_c, 0, 67, 32
1, 32480, Note_on_c, 0, 67, 0
1, 32480, Note_on_c, 0, 70, 0
1, 32480, Note_on_c, 0, 79, 43
1, 32480, Note_on_c, 0, 58, 32
1, 32520, Tempo, 299925
1, 32640, Tempo, 299133
1, 32640, Note_on_c, 0, 58, 0
1, 32640, Note_on_c, 0, 79, 0
1, 32640, Note_on_c, 0, 83, 66
1, 32640, Note_on_c, 0, 53, 39
1, 32646, Control_c, 0, 64, 0
1, 32680, Tempo, 299925
1, 32697, Control_c, 0, 64, 127
1, 32720, Tempo, 300722
1, 32760, Tempo, 301508
1, 32800, Tempo, 302313
1, 32800, Note_on_c, 0, 53, 0
1, 32800, Note_on_c, 0, 83, 0
1, 32800, Note_on_c, 0, 68, 53
1, 32800, Note_on_c, 0, 65, 33
1, 32840, Tempo, 303936
1, 32880, Tempo, 304754
1, 32920, Tempo, 305577
1, 32960, Tempo, 306404
1, 32960, Note_on_c, 0, 65, 0
1, 32960, Note_on_c, 0, 68, 0
1, 32960, Note_on_c, 0, 74, 54
1, 32960, Note_on_c, 0, 59, 33
1, 33000, Tempo, 307235
1, 33040, Tempo, 308912
1, 33120, Tempo, 320000
1, 33120, Note_on_c, 0, 59, 0
1, 33120, Note_on_c, 0, 74, 0
1, 33120, Note_on_c, 0, 84, 71
1, 33120, Note_on_c, 0, 53, 48
1, 33127, Control_c, 0, 64, 0
1, 33177, Control_c, 0, 64, 127
1, 33280, Tempo, 313316
1, 33280, Note_on_c, 0, 53, 0
1, 33280, Note_on_c, 0, 84, 0
1, 33280, Note_on_c, 0, 69, 55
1, 33280, Note_on_c, 0, 65, 35
1, 33400, Tempo, 312500
1, 33440, Note_on_c, 0, 65, 0
1, 33440, Note_on_c, 0, 69, 0
1, 33440, Note_on_c, 0, 75, 52
1, 33440, Note_on_c, 0, 60, 37
1, 33480, Tempo, 311688
1, 33560, Tempo, 310881
1, 33600, Note_on_c, 0, 60, 0
1, 33600, Note_on_c, 0, 75, 0
1, 33600, Note_on_c, 0, 86, 70
1, 33600, Note_on_c, 0, 53, 45
1, 33611, Control_c, 0, 64, 0
1, 33640, Tempo, 310078
1, 33680, Control_c, 0, 64, 127
1, 33720, Tempo, 309278
1, 33760, Note_on_c, 0, 53, 0
1, 33760, Note_on_c, 0, 86, 0
1, 33760, Note_on_c, 0, 69, 51
1, 33760, Note_on_c, 0, 65, 38
1, 33800, Tempo, 308483
1, 33840, Tempo, 319149
1, 33920, Note_on_c, 0, 65, 0
1, 33920, Note_on_c, 0, 69, 0
1, 33920, Note_on_c, 0, 77, 47
1, 33920, Note_on_c, 0, 63, 30
1, 34040, Tempo, 307692
1, 34080, Tempo, 311688
1, 34080, Note_on_c, 0, 63, 0
1, 34080, Note_on_c, 0, 77, 0
1, 34080, Note_on_c, 0, 81, 62
1, 34080, Note_on_c, 0, 53, 37
1, 34086, Control_c, 0, 64, 0
1, 34137, Control_c, 0, 64, 127
1, 34240, Note_on_c, 0, 53, 0
1, 34240, Note_on_c, 0, 81, 0
1, 34240, Note_on_c, 0, 69, 42
1, 34240, Note_on_c, 0, 63, 32
1, 34400, Note_on_c, 0, 63, 0
1, 34400, Note_on_c, 0, 69, 0
1, 34400, Note_on_c, 0, 72, 43
1, 34400, Note_on_c, 0, 57, 31
1, 34560, Tempo, 305344
1, 34560, Note_on_c, 0, 57, 0
1, 34560, Note_on_c, 0, 72, 0
1, 34560, Note_on_c, 0, 84, 70
1, 34560, Note_on_c, 0, 46, 50
1, 34567, Control_c, 0, 64, 0
1, 34616, Control_c, 0, 64, 127
1, 34720, Note_on_c, 0, 46, 0
1, 34720, Note_on_c, 0, 84, 0
1, 34720, Note_on_c, 0, 65, 48
1, 34720, Note_on_c, 0, 63, 36
1, 34880, Note_on_c, 0, 63, 0
1, 34880, Note_on_c, 0, 65, 0
1, 34880, Note_on_c, 0, 75, 47
1, 34880, Note_on_c, 0, 53, 37
1, 35040, Tempo, 310881
1, 35040, Note_on_c, 0, 53, 0
1, 35040, Note_on_c, 0, 75, 0
1, 35040, Note_on_c, 0, 82, 65
1, 35040, Note_on_c, 0, 46, 43
1, 35055, Control_c, 0, 64, 0
1, 35132, Control_c, 0, 64, 127
1, 35200, Note_on_c, 0, 46, 0
1, 35200, Note_on_c, 0, 82, 0
1, 35200, Note_on_c, 0, 65, 43
1, 35200, Note_on_c, 0, 62, 36
1, 35360, Tempo, 355030
1, 35360, Note_on_c, 0, 62, 0
1, 35360, Note_on_c, 0, 65, 0
1, 35360, Note_on_c, 0, 74, 42
1, 35360, Note_on_c, 0, 53, 34
1, 35520, Tempo, 305344
1, 35520, Note_on_c, 0, 53, 0
1, 35520, Note_on_c, 0, 74, 0
1, 35520, Note_on_c, 0, 77, 59
1, 35520, Note_on_c, 0, 46, 39
1, 35535, Control_c, 0, 64, 0
1, 35600, Control_c, 0, 64, 127
1, 35680, Note_on_c, 0, 46, 0
1, 35680, Note_on_c, 0, 77, 0
1, 35680, Note_on_c, 0, 65, 42
1, 35680, Note_on_c, 0, 61, 34
1, 35720, Tempo, 305577
1, 35760, Tempo, 305577
1, 35840, Note_on_c, 0, 61, 0
1, 35840, Note_on_c, 0, 65, 0
1, 35840, Note_on_c, 0, 70, 41
1, 35840, Note_on_c, 0, 53, 33
1, 35880, Tempo, 303936
1, 35920, Tempo, 300722
1, 35960, Tempo, 301508
1, 36000, Tempo, 312305
1, 36000, Note_on_c, 0, 53, 0
1, 36000, Note_on_c, 0, 70, 0
1, 36000, Note_on_c, 0, 77, 57
1, 36000, Note_on_c, 0, 44, 43
1, 36007, Control_c, 0, 64, 0
1, 36057, Control_c, 0, 64, 127
1, 36160, Tempo, 307235
1, 36160, Note_on_c, 0, 44, 0
1, 36160, Note_on_c, 0, 77, 0
1, 36160, Note_on_c, 0, 65, 38
1, 36160, Note_on_c, 0, 59, 28
1, 36320, Tempo, 306404
1, 36320, Note_on_c, 0, 59, 0
1, 36320, Note_on_c, 0, 65, 0
1, 36320, Note_on_c, 0, 71, 38
1, 36320, Note_on_c, 0, 53, 29
1, 36480, Tempo, 305577
1, 36480, Note_on_c, 0, 53, 0
1, 36480, Note_on_c, 0, 71, 0
1, 36480, Note_on_c, 0, 75, 59
1, 36480, Note_on_c, 0, 49, 40
1, 36640, Tempo, 304754
1, 36640, Note_on_c, 0, 49, 0
1, 36640, Note_on_c, 0, 75, 0
1, 36640, Note_on_c, 0, 63, 45
1, 36640, Note_on_c, 0, 59, 30
1, 36800, Tempo, 303936
1, 36800, Note_on_c, 0, 59, 0
1, 36800, Note_on_c, 0, 63, 0
1, 36800, Note_on_c, 0, 70, 47
1, 36800, Note_on_c, 0, 53, 32
1, 36960, Tempo, 303122
1, 36960, Note_on_c, 0, 53, 0
1, 36960, Note_on_c, 0, 70, 0
1, 36960, Note_on_c, 0, 77, 66
1, 36960, Note_on_c, 0, 37, 42
1, 36966, Control_c, 0, 64, 0
1, 37017, Control_c, 0, 64, 127
1, 37120, Tempo, 302313
1, 37120, Note_on_c, 0, 37, 0
1, 37120, Note_on_c, 0, 77, 0
1, 37120, Note_on_c, 0, 61, 53
1, 37120, Note_on_c, 0, 59, 34
1, 37280, Tempo, 301508
1, 37280, Note_on_c, 0, 59, 0
1, 37280, Note_on_c, 0, 61, 0
1, 37280, Note_on_c, 0, 68, 56
1, 37280, Note_on_c, 0, 53, 35
1, 37440, Tempo, 295232
1, 37440, Note_on_c, 0, 53, 0
1, 37440, Note_on_c, 0, 68, 0
1, 37440, Note_on_c, 0, 80, 71
1, 37440, Note_on_c, 0, 42, 47
1, 37448, Control_c, 0, 64, 0
1, 37496, Control_c, 0, 64, 127
1, 37560, Tempo, 296004
1, 37600, Note_on_c, 0, 42, 0
1, 37600, Note_on_c, 0, 80, 0
1, 37600, Note_on_c, 0, 61, 53
1, 37600, Note_on_c, 0, 58, 35
1, 37680, Tempo, 296780
1, 37760, Note_on_c, 0, 58, 0
1, 37760, Note_on_c, 0, 61, 0
1, 37760, Note_on_c, 0, 70, 52
1, 37760, Note_on_c, 0, 54, 35
1, 37800, Tempo, 297560
1, 37920, Tempo, 298344
1, 37920, Note_on_c, 0, 54, 0
1, 37920, Note_on_c, 0, 70, 0
1, 37920, Note_on_c, 0, 78, 66
1, 37920, Note_on_c, 0, 49, 43
1, 38040, Tempo, 299133
1, 38080, Note_on_c, 0, 49, 0
1, 38080, Note_on_c, 0, 78, 0
1, 38080, Note_on_c, 0, 61, 49
1, 38080, Note_on_c, 0, 58, 36
1, 38160, Tempo, 299925
1, 38240, Note_on_c, 0, 58, 0
1, 38240, Note_on_c, 0, 61, 0
1, 38240, Note_on_c, 0, 70, 46
1, 38240, Note_on_c, 0, 54, 31
1, 38280, Tempo, 300722
1, 38400, Tempo, 301508
1, 38400, Note_on_c, 0, 54, 0
1, 38400, Note_on_c, 0, 70, 0
1, 38400, Note_on_c, 0, 73, 59
1, 38400, Note_on_c, 0, 42, 39
1, 38415, Control_c, 0, 64, 0
1, 38469, Control_c, 0, 64, 127
1, 38520, Tempo, 302313
1, 38560, Note_on_c, 0, 42, 0
1, 38560, Note_on_c, 0, 73, 0
1, 38560, Note_on_c, 0, 61, 42
1, 38560, Note_on_c, 0, 58, 34
1, 38640, Tempo, 303122
1, 38720, Note_on_c, 0, 58, 0
1, 38720, Note_on_c, 0, 61, 0
1, 38720, Note_on_c, 0, 70, 41
1, 38720, Note_on_c, 0, 49, 33
1, 38760, Tempo, 303936
1, 38800, Tempo, 300722
1, 38840, Tempo, 301508
1, 38880, Tempo, 312305
1, 38880, Note_on_c, 0, 49, 0
1, 38880, Note_on_c, 0, 70, 0
1, 38880, Note_on_c, 0, 77, 56
1, 38880, Note_on_c, 0, 37, 36
1, 38887, Control_c, 0, 64, 0
1, 38952, Control_c, 0, 64, 127
1, 39040, Tempo, 307235
1, 39040, Note_on_c, 0, 37, 0
1, 39040, Note_on_c, 0, 77, 0
1, 39040, Note_on_c, 0, 61, 38
1, 39040, Note_on_c, 0, 59, 28
1, 39200, Tempo, 306404
1, 39200, Note_on_c, 0, 59, 0
1, 39200, Note_on_c, 0, 61, 0
1, 39200, Note_on_c, 0, 71, 38
1, 39200, Note_on_c, 0, 53, 29
1, 39360, Tempo, 305577
1, 39360, Note_on_c, 0, 53, 0
1, 39360, Note_on_c, 0, 71, 0
1, 39360, Note_on_c, 0, 75, 56
1, 39360, Note_on_c, 0, 44, 34
1, 39520, Tempo, 304754
1, 39520, Note_on_c, 0, 44, 0
1, 39520, Note_on_c, 0, 75, 0
1, 39520, Note_on_c, 0, 61, 43
1, 39520, Note_on_c, 0, 59, 30
1, 39680, Tempo, 303936
1, 39680, Note_on_c, 0, 59, 0
1, 39680, Note_on_c, 0, 61, 0
1, 39680, Note_on_c, 0, 70, 47
1, 39680, Note_on_c, 0, 53, 32
1, 39840, Tempo, 303122
1, 39840, Note_on_c, 0, 53, 0
1, 39840, Note_on_c, 0, 70, 0
1, 39840, Note_on_c, 0, 77, 66
1, 39840, Note_on_c, 0, 37, 38
1, 39846, Control_c, 0, 64, 0
1, 39897, Control_c, 0, 64, 127
1, 40000, Tempo, 302313
1, 40000, Note_on_c, 0, 37, 0
1, 40000, Note_on_c, 0, 77, 0
1, 40000, Note_on_c, 0, 61, 49
1, 40000, Note_on_c, 0, 59, 35
1, 40160, Tempo, 301508
1, 40160, Note_on_c, 0, 59, 0
1, 40160, Note_on_c, 0, 61, 0
1, 40160, Note_on_c, 0, 68, 54
1, 40160, Note_on_c, 0, 53, 38
1, 40320, Tempo, 295232
1, 40320, Note_on_c, 0, 53, 0
1, 40320, Note_on_c, 0, 68, 0
1, 40320, Note_on_c, 0, 80, 72
1, 40320, Note_on_c, 0, 42, 47
1, 40326, Control_c, 0, 64, 0
1, 40384, Control_c, 0, 64, 127
1, 40440, Tempo, 296004
1, 40480, Note_on_c, 0, 42, 0
1, 40480, Note_on_c, 0, 80, 0
1, 40480, Note_on_c, 0, 61, 53
1, 40480, Note_on_c, 0, 58, 35
1, 40560, Tempo, 296780
1, 40640, Note_on_c, 0, 58, 0
1, 40640, Note_on_c, 0, 61, 0
1, 40640, Note_on_c, 0, 70, 52
1, 40640, Note_on_c, 0, 54, 35
1, 40680, Tempo, 297560
1, 40800, Tempo, 298344
1, 40800, Note_on_c, 0, 54, 0
1, 40800, Note_on_c, 0, 70, 0
1, 40800, Note_on_c, 0, 78, 68
1, 40800, Note_on_c, 0, 49, 43
1, 40920, Tempo, 299133
1, 40960, Note_on_c, 0, 49, 0
1, 40960, Note_on_c, 0, 78, 0
1, 40960, Note_on_c, 0, 61, 43
1, 40960, Note_on_c, 0, 58, 36
1, 41040, Tempo, 299925
1, 41120, Note_on_c, 0, 58, 0
1, 41120, Note_on_c, 0, 61, 0
1, 41120, Note_on_c, 0, 70, 42
1, 41120, Note_on_c, 0, 54, 34
1, 41160, Tempo, 300722
1, 41280, Tempo, 301508
1, 41280, Note_on_c, 0, 54, 0
1, 41280, Note_on_c, 0, 70, 0
1, 41280, Note_on_c, 0, 77, 63
1, 41280, Note_on_c, 0, 42, 39
1, 41295, Control_c, 0, 64, 0
1, 41366, Control_c, 0, 64, 127
1, 41400, Tempo, 302313
1, 41440, Note_on_c, 0, 42, 0
1, 41440, Note_on_c, 0, 77, 0
1, 41440, Note_on_c, 0, 61, 42
1, 41440, Note_on_c, 0, 58, 34
1, 41520, Tempo, 303122
1, 41600, Note_on_c, 0, 58, 0
1, 41600, Note_on_c, 0, 61, 0
1, 41600, Note_on_c, 0, 70, 41
1, 41600, Note_on_c, 0, 49, 33
1, 41640, Tempo, 303936
1, 41680, Tempo, 300722
1, 41720, Tempo, 301508
1, 41760, Tempo, 311462
1, 41760, Note_on_c, 0, 49, 0
1, 41760, Note_on_c, 0, 70, 0
1, 41760, Note_on_c, 0, 76, 60
1, 41760, Note_on_c, 0, 43, 40
1, 41767, Control_c, 0, 64, 0
1, 41817, Control_c, 0, 64, 127
1, 41920, Tempo, 307235
1, 41920, Note_on_c, 0, 43, 0
1, 41920, Note_on_c, 0, 76, 0
1, 41920, Note_on_c, 0, 61, 43
1, 41920, Note_on_c, 0, 58, 31
1, 42080, Tempo, 306404
1, 42080, Note_on_c, 0, 58, 0
1, 42080, Note_on_c, 0, 61, 0
1, 42080, Note_on_c, 0, 70, 43
1, 42080, Note_on_c, 0, 52, 32
1, 42200, Tempo, 299133
1, 42240, Note_on_c, 0, 52, 0
1, 42240, Note_on_c, 0, 70, 0
1, 42240, Note_on_c, 0, 79, 67
1, 42240, Note_on_c, 0, 46, 43
1, 42280, Tempo, 296004
1, 42400, Tempo, 296780
1, 42400, Note_on_c, 0, 46, 0
1, 42400, Note_on_c, 0, 79, 0
1, 42400, Note_on_c, 0, 64, 44
1, 42400, Note_on_c, 0, 61, 35
1, 42520, Tempo, 297560
1, 42560, Note_on_c, 0, 61, 0
1, 42560, Note_on_c, 0, 64, 0
1, 42560, Note_on_c, 0, 73, 46
1, 42560, Note_on_c, 0, 52, 34
1, 42640, Tempo, 298344
1, 42720, Note_on_c, 0, 52, 0
1, 42720, Note_on_c, 0, 73, 0
1, 42720, Note_on_c, 0, 78, 63
1, 42720, Note_on_c, 0, 45, 39
1, 42726, Control_c, 0, 64, 0
1, 42760, Tempo, 299133
1, 42777, Control_c, 0, 64, 127
1, 42880, Tempo, 299925
1, 42880, Note_on_c, 0, 45, 0
1, 42880, Note_on_c, 0, 78, 0
1, 42880, Note_on_c, 0, 63, 46
1, 42880, Note_on_c, 0, 60, 35
1, 43000, Tempo, 300722
1, 43040, Note_on_c, 0, 60, 0
1, 43040, Note_on_c, 0, 63, 0
1, 43040, Note_on_c, 0, 72, 49
1, 43040, Note_on_c, 0, 51, 36
1, 43120, Tempo, 301508
1, 43160, Tempo, 291432
1, 43200, Note_on_c, 0, 51, 0
1, 43200, Note_on_c, 0, 72, 0
1, 43200, Note_on_c, 0, 81, 72
1, 43200, Note_on_c, 0, 48, 48
1, 43280, Tempo, 292184
1, 43360, Tempo, 292940
1, 43360, Note_on_c, 0, 48, 0
1, 43360, Note_on_c, 0, 81, 0
1, 43360, Note_on_c, 0, 66, 47
1, 43360, Note_on_c, 0, 63, 39
1, 43440, Tempo, 293700
1, 43520, Tempo, 294464
1, 43520, Note_on_c, 0, 63, 0
1, 43520, Note_on_c, 0, 66, 0
1, 43520, Note_on_c, 0, 75, 46
1, 43520, Note_on_c, 0, 54, 40
1, 43600, Tempo, 295232
1, 43680, Tempo, 296004
1, 43680, Note_on_c, 0, 54, 0
1, 43680, Note_on_c, 0, 75, 0
1, 43680, Note_on_c, 0, 80, 71
1, 43680, Note_on_c, 0, 47, 44
1, 43691, Control_c, 0, 64, 0
1, 43760, Tempo, 296780
1, 43760, Control_c, 0, 64, 127
1, 43840, Tempo, 297560
1, 43840, Note_on_c, 0, 47, 0
1, 43840, Note_on_c, 0, 80, 0
1, 43840, Note_on_c, 0, 65, 48
1, 43840, Note_on_c, 0, 62, 36
1, 43920, Tempo, 298344
1, 44000, Tempo, 299133
1, 44000, Note_on_c, 0, 62, 0
1, 44000, Note_on_c, 0, 65, 0
1, 44000, Note_on_c, 0, 74, 49
1, 44000, Note_on_c, 0, 53, 40
1, 44080, Tempo, 299925
1, 44120, Tempo, 298344
1, 44160, Tempo, 289212
1, 44160, Note_on_c, 0, 53, 0
1, 44160, Note_on_c, 0, 74, 0
1, 44160, Note_on_c, 0, 83, 77
1, 44160, Note_on_c, 0, 50, 55
1, 44240, Tempo, 289953
1, 44320, Tempo, 290684
1, 44320, Note_on_c, 0, 50, 0
1, 44320, Note_on_c, 0, 83, 0
1, 44320, Note_on_c, 0, 68, 51
1, 44320, Note_on_c, 0, 65, 43
1, 44400, Tempo, 291432
1, 44480, Tempo, 292184
1, 44480, Note_on_c, 0, 65, 0
1, 44480, Note_on_c, 0, 68, 0
1, 44480, Note_on_c, 0, 77, 53
1, 44480, Note_on_c, 0, 56, 43
1, 44560, Tempo, 292940
1, 44640, Tempo, 293700
1, 44640, Note_on_c, 0, 56, 0
1, 44640, Note_on_c, 0, 77, 0
1, 44640, Note_on_c, 0, 82, 74
1, 44640, Note_on_c, 0, 49, 54
1, 44647, Control_c, 0, 64, 0
1, 44697, Control_c, 0, 64, 127
1, 44720, Tempo, 294464
1, 44800, Tempo, 295232
1, 44800, Note_on_c, 0, 49, 0
1, 44800, Note_on_c, 0, 82, 0
1, 44800, Note_on_c, 0, 67, 58
1, 44800, Note_on_c, 0, 64, 41
1, 44880, Tempo, 296004
1, 44960, Tempo, 297560
1, 44960, Note_on_c, 0, 64, 0
1, 44960, Note_on_c, 0, 67, 0
1, 44960, Note_on_c, 0, 76, 63
1, 44960, Note_on_c, 0, 55, 46
1, 45040, Tempo, 298344
1, 45080, Tempo, 288475
1, 45120, Note_on_c, 0, 55, 0
1, 45120, Note_on_c, 0, 76, 0
1, 45120, Note_on_c, 0, 85, 88
1, 45120, Note_on_c, 0, 52, 60
1, 45200, Tempo, 289212
1, 45280, Tempo, 289953
1, 45280, Note_on_c, 0, 52, 0
1, 45280, Note_on_c, 0, 85, 0
1, 45280, Note_on_c, 0, 70, 66
1, 45280, Note_on_c, 0, 67, 48
1, 45360, Tempo, 290684
1, 45440, Note_on_c, 0, 67, 0
1, 45440, Note_on_c, 0, 70, 0
1, 45440, Note_on_c, 0, 79, 68
1, 45440, Note_on_c, 0, 58, 48
1, 45480, Tempo, 291432
1, 45560, Tempo, 292184
1, 45600, Note_on_c, 0, 58, 0
1, 45600, Note_on_c, 0, 79, 0
1, 45600, Note_on_c, 0, 84, 84
1, 45600, Note_on_c, 0, 51, 58
1, 45606, Control_c, 0, 64, 0
1, 45640, Tempo, 292940
1, 45657, Control_c, 0, 64, 127
1, 45760, Tempo, 293700
1, 45760, Note_on_c, 0, 51, 0
1, 45760, Note_on_c, 0, 84, 0
1, 45760, Note_on_c, 0, 69, 68
1, 45760, Note_on_c, 0, 66, 44
1, 45840, Tempo, 294464
1, 45920, Tempo, 295232
1, 45920, Note_on_c, 0, 66, 0
1, 45920, Note_on_c, 0, 69, 0
1, 45920, Note_on_c, 0, 78, 66
1, 45920, Note_on_c, 0, 57, 49
1, 46000, Tempo, 296004
1, 46080, Tempo, 291432
1, 46080, Note_on_c, 0, 57, 0
1, 46080, Note_on_c, 0, 78, 0
1, 46080, Note_on_c, 0, 87, 94
1, 46080, Note_on_c, 0, 54, 69
1, 46160, Tempo, 292184
1, 46240, Tempo, 292940
1, 46240, Note_on_c, 0, 54, 0
1, 46240, Note_on_c, 0, 87, 0
1, 46240, Note_on_c, 0, 72, 69
1, 46240, Note_on_c, 0, 69, 49
1, 46320, Tempo, 293700
1, 46400, Tempo, 294464
1, 46400, Note_on_c, 0, 69, 0
1, 46400, Note_on_c, 0, 72, 0
1, 46400, Note_on_c, 0, 81, 70
1, 46400, Note_on_c, 0, 60, 50
1, 46440, Tempo, 295232
1, 46520, Tempo, 296004
1, 46560, Note_on_c, 0, 60, 0
1, 46560, Note_on_c, 0, 81, 0
1, 46560, Note_on_c, 0, 86, 88
1, 46560, Note_on_c, 0, 53, 62
1, 46575, Control_c, 0, 64, 0
1, 46600, Tempo, 296780
1, 46645, Control_c, 0, 64, 127
1, 46680, Tempo, 297560
1, 46720, Tempo, 298344
1, 46720, Note_on_c, 0, 53, 0
1, 46720, Note_on_c, 0, 86, 0
1, 46720, Note_on_c, 0, 71, 63
1, 46720, Note_on_c, 0, 68, 51
1, 46800, Tempo, 300722
1, 46840, Tempo, 302313
1, 46880, Tempo, 303936
1, 46880, Note_on_c, 0, 68, 0
1, 46880, Note_on_c, 0, 71, 0
1, 46880, Note_on_c, 0, 80, 64
1, 46880, Note_on_c, 0, 59, 51
1, 46920, Tempo, 306404
1, 47040, Tempo, 320000
1, 47040, Note_on_c, 0, 59, 0
1, 47040, Note_on_c, 0, 80, 0
1, 47040, Note_on_c, 0, 89, 85
1, 47040, Note_on_c, 0, 58, 67
1, 47055, Control_c, 0, 64, 0
1, 47174, Control_c, 0, 64, 127
1, 47280, Tempo, 684932
1, 47280, Note_on_c, 0, 58, 0
1, 47280, Note_on_c, 0, 89, 0
1, 47296, Control_c, 0, 64, 0
1, 47520, Tempo, 308071
1, 47520, Note_on_c, 0, 70, 48
1, 47520, Note_on_c, 0, 39, 36
1, 47560, Tempo, 315789
1, 47584, Control_c, 0, 64, 127
1, 47680, Tempo, 314911
1, 47680, Note_on_c, 0, 39, 0
1, 47680, Note_on_c, 0, 70, 0
1, 47680, Note_on_c, 0, 58, 37
1, 47680, Note_on_c, 0, 55, 28
1, 47800, Tempo, 314037
1, 47840, Note_on_c, 0, 55, 0
1, 47840, Note_on_c, 0, 58, 0
1, 47840, Note_on_c, 0, 67, 37
1, 47840, Note_on_c, 0, 46, 31
1, 47920, Tempo, 313169
1, 48000, Note_on_c, 0, 46, 0
1, 48000, Note_on_c, 0, 67, 0
1, 48000, Note_on_c, 0, 75, 52
1, 48000, Note_on_c, 0, 39, 39
1, 48160, Note_on_c, 0, 39, 0
1, 48160, Note_on_c, 0, 75, 0
1, 48160, Note_on_c, 0, 63, 42
1, 48160, Note_on_c, 0, 55, 33
1, 48240, Tempo, 308912
1, 48320, Note_on_c, 0, 55, 0
1, 48320, Note_on_c, 0, 63, 0
1, 48320, Note_on_c, 0, 70, 44
1, 48320, Note_on_c, 0, 46, 36
1, 48400, Tempo, 308071
1, 48480, Note_on_c, 0, 46, 0
1, 48480, Note_on_c, 0, 70, 0
1, 48480, Note_on_c, 0, 79, 61
1, 48480, Note_on_c, 0, 39, 36
1, 48520, Tempo, 307235
1, 48640, Note_on_c, 0, 39, 0
1, 48640, Note_on_c, 0, 79, 0
1, 48640, Note_on_c, 0, 67, 51
1, 48640, Note_on_c, 0, 58, 32
1, 48680, Tempo, 306404
1, 48800, Tempo, 305577
1, 48800, Note_on_c, 0, 58, 0
1, 48800, Note_on_c, 0, 67, 0
1, 48800, Note_on_c, 0, 75, 54
1, 48800, Note_on_c, 0, 46, 32
1, 48920, Tempo, 304754
1, 48960, Tempo, 308071
1, 48960, Note_on_c, 0, 46, 0
1, 48960, Note_on_c, 0, 75, 0
1, 48960, Note_on_c, 0, 82, 66
1, 48960, Note_on_c, 0, 39, 42
1, 49040, Tempo, 303936
1, 49120, Note_on_c, 0, 39, 0
1, 49120, Note_on_c, 0, 82, 0
1, 49120, Note_on_c, 0, 70, 57
1, 49120, Note_on_c, 0, 63, 33
1, 49160, Tempo, 303122
1, 49280, Tempo, 302313
1, 49280, Note_on_c, 0, 63, 0
1, 49280, Note_on_c, 0, 70, 0
1, 49280, Note_on_c, 0, 79, 57
1, 49280, Note_on_c, 0, 55, 34
1, 49400, Tempo, 301508
1, 49440, Note_on_c, 0, 55, 0
1, 49440, Note_on_c, 0, 79, 0
1, 49440, Note_on_c, 0, 87, 74
1, 49440, Note_on_c, 0, 46, 42
1, 49520, Tempo, 300722
1, 49600, Note_on_c, 0, 46, 0
1, 49600, Note_on_c, 0, 87, 0
1, 49600, Note_on_c, 0, 75, 59
1, 49600, Note_on_c, 0, 67, 35
1, 49640, Tempo, 299925
1, 49760, Tempo, 299133
1, 49760, Note_on_c, 0, 67, 0
1, 49760, Note_on_c, 0, 75, 0
1, 49760, Note_on_c, 0, 82, 62
1, 49760, Note_on_c, 0, 58, 37
1, 49880, Tempo, 298344
1, 49920, Tempo, 295232
1, 49920, Note_on_c, 0, 58, 0
1, 49920, Note_on_c, 0, 82, 0
1, 49920, Note_on_c, 0, 91, 73
1, 49920, Note_on_c, 0, 51, 47
1, 50000, Tempo, 296004
1, 50040, Tempo, 296780
1, 50080, Note_on_c, 0, 51, 0
1, 50080, Note_on_c, 0, 91, 0
1, 50080, Note_on_c, 0, 79, 60
1, 50080, Note_on_c, 0, 70, 39
1, 50120, Tempo, 297560
1, 50160, Tempo, 298344
1, 50200, Tempo, 299133
1, 50240, Note_on_c, 0, 70, 0
1, 50240, Note_on_c, 0, 79, 0
1, 50240, Note_on_c, 0, 82, 65
1, 50240, Note_on_c, 0, 58, 41
1, 50280, Tempo, 299925
1, 50320, Tempo, 300722
1, 50360, Tempo, 301508
1, 50400, Note_on_c, 0, 58, 0
1, 50400, Note_on_c, 0, 82, 0
1, 50400, Note_on_c, 0, 89, 79
1, 50400, Note_on_c, 0, 51, 54
1, 50408, Control_c, 0, 64, 0
1, 50457, Control_c, 0, 64, 127
1, 50560, Tempo, 305577
1, 50560, Note_on_c, 0, 51, 0
1, 50560, Note_on_c, 0, 89, 0
1, 50560, Note_on_c, 0, 74, 58
1, 50560, Note_on_c, 0, 71, 39
1, 50720, Tempo, 306404
1, 50720, Note_on_c, 0, 71, 0
1, 50720, Note_on_c, 0, 74, 0
1, 50720, Note_on_c, 0, 80, 52
1, 50720, Note_on_c, 0, 59, 36
1, 50880, Tempo, 307235
1, 50880, Note_on_c, 0, 59, 0
1, 50880, Note_on_c, 0, 80, 0
1, 50880, Note_on_c, 0, 87, 76
1, 50880, Note_on_c, 0, 51, 49
1, 50886, Control_c, 0, 64, 0
1, 50926, Control_c, 0, 64, 127
1, 51040, Tempo, 308071
1, 51040, Note_on_c, 0, 51, 0
1, 51040, Note_on_c, 0, 87, 0
1, 51040, Note_on_c, 0, 75, 56
1, 51040, Note_on_c, 0, 72, 38
1, 51200, Tempo, 308912
1, 51200, Note_on_c, 0, 72, 0
1, 51200, Note_on_c, 0, 75, 0
1, 51200, Note_on_c, 0, 80, 51
1, 51200, Note_on_c, 0, 60, 33
1, 51360, Tempo, 309757
1, 51360, Note_on_c, 0, 60, 0
1, 51360, Note_on_c, 0, 80, 0
1, 51360, Note_on_c, 0, 84, 70
1, 51360, Note_on_c, 0, 51, 41
1, 51374, Control_c, 0, 64, 0
1, 51440, Control_c, 0, 64, 127
1, 51520, Note_on_c, 0, 51, 0
1, 51520, Note_on_c, 0, 84, 0
1, 51520, Note_on_c, 0, 72, 51
1, 51520, Note_on_c, 0, 68, 33
1, 51680, Tempo, 323922
1, 51680, Note_on_c, 0, 68, 0
1, 51680, Note_on_c, 0, 72, 0
1, 51680, Note_on_c, 0, 80, 49
1, 51680, Note_on_c, 0, 62, 32
1, 51840, Tempo, 309757
1, 51840, Note_on_c, 0, 62, 0
1, 51840, Note_on_c, 0, 80, 0
1, 51840, Note_on_c, 0, 84, 70
1, 51840, Note_on_c, 0, 51, 46
1, 51847, Control_c, 0, 64, 0
1, 51911, Control_c, 0, 64, 127
1, 52000, Tempo, 310607
1, 52000, Note_on_c, 0, 51, 0
1, 52000, Note_on_c, 0, 84, 0
1, 52000, Note_on_c, 0, 72, 42
1, 52000, Note_on_c, 0, 67, 30
1, 52160, Tempo, 311462
1, 52160, Note_on_c, 0, 67, 0
1, 52160, Note_on_c, 0, 72, 0
1, 52160, Note_on_c, 0, 79, 43
1, 52160, Note_on_c, 0, 63, 31
1, 52320, Tempo, 312305
1, 52320, Note_on_c, 0, 63, 0
1, 52320, Note_on_c, 0, 79, 0
1, 52320, Note_on_c, 0, 82, 62
1, 52320, Note_on_c, 0, 58, 39
1, 52332, Control_c, 0, 64, 0
1, 52419, Control_c, 0, 64, 127
1, 52440, Tempo, 313169
1, 52480, Note_on_c, 0, 58, 0
1, 52480, Note_on_c, 0, 82, 0
1, 52480, Note_on_c, 0, 70, 43
1, 52480, Note_on_c, 0, 67, 30
1, 52600, Tempo, 314037
1, 52640, Note_on_c, 0, 67, 0
1, 52640, Note_on_c, 0, 70, 0
1, 52640, Note_on_c, 0, 75, 43
1, 52640, Note_on_c, 0, 63, 30
1, 52760, Tempo, 314911
1, 52800, Note_on_c, 0, 63, 0
1, 52800, Note_on_c, 0, 75, 0
1, 52800, Note_on_c, 0, 79, 60
1, 52800, Note_on_c, 0, 51, 35
1, 52920, Tempo, 315789
1, 52960, Note_on_c, 0, 51, 0
1, 52960, Note_on_c, 0, 79, 0
1, 52960, Note_on_c, 0, 67, 43
1, 52960, Note_on_c, 0, 63, 29
1, 53040, Tempo, 316673
1, 53120, Note_on_c, 0, 63, 0
1, 53120, Note_on_c, 0, 67, 0
1, 53120, Note_on_c, 0, 70, 41
1, 53120, Note_on_c, 0, 55, 29
1, 53240, Tempo, 308071
1, 53280, Note_on_c, 0, 55, 0
1, 53280, Note_on_c, 0, 70, 0
1, 53280, Note_on_c, 0, 75, 53
1, 53280, Note_on_c, 0, 41, 36
1, 53287, Control_c, 0, 64, 0
1, 53337, Control_c, 0, 64, 127
1, 53440, Tempo, 307235
1, 53440, Note_on_c, 0, 41, 0
1, 53440, Note_on_c, 0, 75, 0
1, 53440, Note_on_c, 0, 63, 38
1, 53440, Note_on_c, 0, 60, 28
1, 53600, Tempo, 306404
1, 53600, Note_on_c, 0, 60, 0
1, 53600, Note_on_c, 0, 63, 0
1, 53600, Note_on_c, 0, 69, 38
1, 53600, Note_on_c, 0, 53, 29
1, 53760, Tempo, 306122
1, 53760, Note_on_c, 0, 53, 0
1, 53760, Note_on_c, 0, 69, 0
1, 53760, Note_on_c, 0, 74, 54
1, 53760, Note_on_c, 0, 48, 34
1, 53771, Control_c, 0, 64, 0
1, 53840, Tempo, 305344
1, 53846, Control_c, 0, 64, 127
1, 53880, Tempo, 304569
1, 53920, Note_on_c, 0, 48, 0
1, 53920, Note_on_c, 0, 74, 0
1, 53920, Note_on_c, 0, 62, 41
1, 53920, Note_on_c, 0, 60, 30
1, 53960, Tempo, 303797
1, 54000, Tempo, 303030
1, 54040, Tempo, 302267
1, 54080, Note_on_c, 0, 60, 0
1, 54080, Note_on_c, 0, 62, 0
1, 54080, Note_on_c, 0, 69, 43
1, 54080, Note_on_c, 0, 53, 32
1, 54120, Tempo, 301508
1, 54160, Tempo, 300752
1, 54240, Tempo, 300000
1, 54240, Note_on_c, 0, 53, 0
1, 54240, Note_on_c, 0, 69, 0
1, 54240, Note_on_c, 0, 75, 64
1, 54240, Note_on_c, 0, 41, 45
1, 54246, Control_c, 0, 64, 0
1, 54280, Tempo, 299252
1, 54297, Control_c, 0, 64, 127
1, 54320, Tempo, 298507
1, 54400, Tempo, 297767
1, 54400, Note_on_c, 0, 41, 0
1, 54400, Note_on_c, 0, 75, 0
1, 54400, Note_on_c, 0, 63, 51
1, 54400, Note_on_c, 0, 60, 34
1, 54440, Tempo, 297030
1, 54520, Tempo, 296296
1, 54560, Tempo, 295567
1, 54560, Note_on_c, 0, 60, 0
1, 54560, Note_on_c, 0, 63, 0
1, 54560, Note_on_c, 0, 69, 57
1, 54560, Note_on_c, 0, 53, 40
1, 54600, Tempo, 294840
1, 54720, Tempo, 295232
1, 54720, Note_on_c, 0, 53, 0
1, 54720, Note_on_c, 0, 69, 0
1, 54720, Note_on_c, 0, 79, 71
1, 54720, Note_on_c, 0, 46, 50
1, 54724, Control_c, 0, 64, 0
1, 54776, Control_c, 0, 64, 127
1, 54840, Tempo, 296004
1, 54880, Note_on_c, 0, 46, 0
1, 54880, Note_on_c, 0, 79, 0
1, 54880, Note_on_c, 0, 67, 51
1, 54880, Note_on_c, 0, 63, 35
1, 54960, Tempo, 296780
1, 55040, Note_on_c, 0, 63, 0
1, 55040, Note_on_c, 0, 67, 0
1, 55040, Note_on_c, 0, 70, 51
1, 55040, Note_on_c, 0, 53, 35
1, 55080, Tempo, 297560
1, 55200, Tempo, 298344
1, 55200, Note_on_c, 0, 53, 0
1, 55200, Note_on_c, 0, 70, 0
1, 55200, Note_on_c, 0, 77, 67
1, 55200, Note_on_c, 0, 50, 43
1, 55215, Control_c, 0, 64, 0
1, 55285, Control_c, 0, 64, 127
1, 55320, Tempo, 299133
1, 55360, Note_on_c, 0, 50, 0
1, 55360, Note_on_c, 0, 77, 0
1, 55360, Note_on_c, 0, 65, 43
1, 55360, Note_on_c, 0, 62, 36
1, 55440, Tempo, 299925
1, 55520, Note_on_c, 0, 62, 0
1, 55520, Note_on_c, 0, 65, 0
1, 55520, Note_on_c, 0, 70, 42
1, 55520, Note_on_c, 0, 53, 34
1, 55560, Tempo, 300722
1, 55680, Tempo, 301508
1, 55680, Note_on_c, 0, 53, 0
1, 55680, Note_on_c, 0, 70, 0
1, 55680, Note_on_c, 0, 74, 63
1, 55680, Note_on_c, 0, 46, 39
1, 55800, Tempo, 302313
1, 55840, Note_on_c, 0, 46, 0
1, 55840, Note_on_c, 0, 74, 0
1, 55840, Note_on_c, 0, 62, 42
1, 55840, Note_on_c, 0, 58, 34
1, 55920, Tempo, 303122
1, 56000, Note_on_c, 0, 58, 0
1, 56000, Note_on_c, 0, 62, 0
1, 56000, Note_on_c, 0, 65, 41
1, 56000, Note_on_c, 0, 53, 33
1, 56040, Tempo, 303936
1, 56080, Tempo, 300722
1, 56120, Tempo, 301508
1, 56160, Tempo, 319149
1, 56160, Note_on_c, 0, 53, 0
1, 56160, Note_on_c, 0, 65, 0
1, 56160, Note_on_c, 0, 75, 53
1, 56160, Note_on_c, 0, 41, 36
1, 56167, Control_c, 0, 64, 0
1, 56217, Control_c, 0, 64, 127
1, 56320, Tempo, 307235
1, 56320, Note_on_c, 0, 41, 0
1, 56320, Note_on_c, 0, 75, 0
1, 56320, Note_on_c, 0, 63, 38
1, 56320, Note_on_c, 0, 60, 28
1, 56360, Tempo, 310881
1, 56400, Tempo, 314136
1, 56480, Note_on_c, 0, 60, 0
1, 56480, Note_on_c, 0, 63, 0
1, 56480, Note_on_c, 0, 69, 38
1, 56480, Note_on_c, 0, 53, 29
1, 56520, Tempo, 313316
1, 56600, Tempo, 312500
1, 56640, Note_on_c, 0, 53, 0
1, 56640, Note_on_c, 0, 69, 0
1, 56640, Note_on_c, 0, 74, 54
1, 56640, Note_on_c, 0, 48, 34
1, 56651, Control_c, 0, 64, 0
1, 56703, Control_c, 0, 64, 127
1, 56720, Tempo, 311688
1, 56800, Tempo, 310881
1, 56800, Note_on_c, 0, 48, 0
1, 56800, Note_on_c, 0, 74, 0
1, 56800, Note_on_c, 0, 62, 41
1, 56800, Note_on_c, 0, 59, 30
1, 56920, Tempo, 310078
1, 56960, Note_on_c, 0, 59, 0
1, 56960, Note_on_c, 0, 62, 0
1, 56960, Note_on_c, 0, 69, 43
1, 56960, Note_on_c, 0, 53, 32
1, 57000, Tempo, 309278
1, 57080, Tempo, 308483
1, 57120, Note_on_c, 0, 53, 0
1, 57120, Note_on_c, 0, 69, 0
1, 57120, Note_on_c, 0, 75, 65
1, 57120, Note_on_c, 0, 41, 38
1, 57126, Control_c, 0, 64, 0
1, 57160, Tempo, 306905
1, 57177, Control_c, 0, 64, 127
1, 57200, Tempo, 308483
1, 57240, Tempo, 310078
1, 57280, Tempo, 312500
1, 57280, Note_on_c, 0, 41, 0
1, 57280, Note_on_c, 0, 75, 0
1, 57280, Note_on_c, 0, 63, 51
1, 57280, Note_on_c, 0, 60, 36
1, 57320, Tempo, 314136
1, 57360, Tempo, 315789
1, 57400, Tempo, 318302
1, 57440, Tempo, 309757
1, 57440, Note_on_c, 0, 60, 0
1, 57440, Note_on_c, 0, 63, 0
1, 57440, Note_on_c, 0, 69, 58
1, 57440, Note_on_c, 0, 53, 35
1, 57460, Tempo, 310607
1, 57480, Tempo, 353982
1, 57600, Tempo, 308483
1, 57600, Note_on_c, 0, 53, 0
1, 57600, Note_on_c, 0, 69, 0
1, 57600, Note_on_c, 0, 79, 71
1, 57600, Note_on_c, 0, 46, 51
1, 57609, Control_c, 0, 64, 0
1, 57678, Control_c, 0, 64, 127
1, 57760, Note_on_c, 0, 46, 0
1, 57760, Note_on_c, 0, 79, 0
1, 57760, Note_on_c, 0, 67, 54
1, 57760, Note_on_c, 0, 63, 35
1, 57920, Note_on_c, 0, 63, 0
1, 57920, Note_on_c, 0, 67, 0
1, 57920, Note_on_c, 0, 72, 51
1, 57920, Note_on_c, 0, 56, 35
1, 58080, Tempo, 313316
1, 58080, Note_on_c, 0, 56, 0
1, 58080, Note_on_c, 0, 72, 0
1, 58080, Note_on_c, 0, 77, 60
1, 58080, Note_on_c, 0, 53, 43
1, 58095, Control_c, 0, 64, 0
1, 58165, Control_c, 0, 64, 127
1, 58240, Note_on_c, 0, 53, 0
1, 58240, Note_on_c, 0, 77, 0
1, 58240, Note_on_c, 0, 65, 43
1, 58240, Note_on_c, 0, 62, 35
1, 58400, Tempo, 373832
1, 58400, Note_on_c, 0, 62, 0
1, 58400, Note_on_c, 0, 65, 0
1, 58400, Note_on_c, 0, 68, 42
1, 58400, Note_on_c, 0, 53, 34
1, 58560, Tempo, 307692
1, 58560, Note_on_c, 0, 53, 0
1, 58560, Note_on_c, 0, 68, 0
1, 58560, Note_on_c, 0, 72, 58
1, 58560, Note_on_c, 0, 46, 39
1, 58720, Note_on_c, 0, 46, 0
1, 58720, Note_on_c, 0, 72, 0
1, 58720, Note_on_c, 0, 60, 42
1, 58720, Note_on_c, 0, 56, 33
1, 58880, Note_on_c, 0, 56, 0
1, 58880, Note_on_c, 0, 60, 0
1, 58880, Note_on_c, 0, 65, 41
1, 58880, Note_on_c, 0, 50, 32
1, 58920, Tempo, 303936
1, 58960, Tempo, 300722
1, 59000, Tempo, 301508
1, 59040, Tempo, 308071
1, 59040, Note_on_c, 0, 50, 0
1, 59040, Note_on_c, 0, 65, 0
1, 59040, Note_on_c, 0, 70, 53
1, 59040, Note_on_c, 0, 39, 36
1, 59055, Control_c, 0, 64, 0
1, 59080, Tempo, 315789
1, 59132, Control_c, 0, 64, 127
1, 59200, Tempo, 314911
1, 59200, Note_on_c, 0, 39, 0
1, 59200, Note_on_c, 0, 70, 0
1, 59200, Note_on_c, 0, 58, 38
1, 59200, Note_on_c, 0, 55, 28
1, 59320, Tempo, 314037
1, 59360, Note_on_c, 0, 55, 0
1, 59360, Note_on_c, 0, 58, 0
1, 59360, Note_on_c, 0, 67, 37
1, 59360, Note_on_c, 0, 46, 28
1, 59440, Tempo, 313169
1, 59520, Note_on_c, 0, 46, 0
1, 59520, Note_on_c, 0, 67, 0
1, 59520, Note_on_c, 0, 75, 51
1, 59520, Note_on_c, 0, 39, 33
1, 59680, Note_on_c, 0, 39, 0
1, 59680, Note_on_c, 0, 75, 0
1, 59680, Note_on_c, 0, 63, 38
1, 59680, Note_on_c, 0, 55, 28
1, 59760, Tempo, 308912
1, 59840, Note_on_c, 0, 55, 0
1, 59840, Note_on_c, 0, 63, 0
1, 59840, Note_on_c, 0, 70, 40
1, 59840, Note_on_c, 0, 46, 29
1, 59920, Tempo, 308071
1, 60000, Note_on_c, 0, 46, 0
1, 60000, Note_on_c, 0, 70, 0
1, 60000, Note_on_c, 0, 79, 54
1, 60000, Note_on_c, 0, 39, 35
1, 60040, Tempo, 307235
1, 60160, Note_on_c, 0, 39, 0
1, 60160, Note_on_c, 0, 79, 0
1, 60160, Note_on_c, 0, 67, 40
1, 60160, Note_on_c, 0, 58, 31
1, 60200, Tempo, 306404
1, 60320, Tempo, 305577
1, 60320, Note_on_c, 0, 58, 0
1, 60320, Note_on_c, 0, 67, 0
1, 60320, Note_on_c, 0, 75, 43
1, 60320, Note_on_c, 0, 46, 31
1, 60440, Tempo, 304754
1, 60480, Tempo, 308071
1, 60480, Note_on_c, 0, 46, 0
1, 60480, Note_on_c, 0, 75, 0
1, 60480, Note_on_c, 0, 82, 65
1, 60480, Note_on_c, 0, 39, 39
1, 60560, Tempo, 303936
1, 60640, Note_on_c, 0, 39, 0
1, 60640, Note_on_c, 0, 82, 0
1, 60640, Note_on_c, 0, 70, 47
1, 60640, Note_on_c, 0, 63, 31
1, 60680, Tempo, 303122
1, 60800, Tempo, 302313
1, 60800, Note_on_c, 0, 63, 0
1, 60800, Note_on_c, 0, 70, 0
1, 60800, Note_on_c, 0, 79, 47
1, 60800, Note_on_c, 0, 55, 32
1, 60920, Tempo, 301508
1, 60960, Note_on_c, 0, 55, 0
1, 60960, Note_on_c, 0, 79, 0
1, 60960, Note_on_c, 0, 87, 70
1, 60960, Note_on_c, 0, 46, 40
1, 61040, Tempo, 300722
1, 61120, Note_on_c, 0, 46, 0
1, 61120, Note_on_c, 0, 87, 0
1, 61120, Note_on_c, 0, 75, 49
1, 61120, Note_on_c, 0, 67, 33
1, 61160, Tempo, 299925
1, 61280, Tempo, 299133
1, 61280, Note_on_c, 0, 67, 0
1, 61280, Note_on_c, 0, 75, 0
1, 61280, Note_on_c, 0, 82, 51
1, 61280, Note_on_c, 0, 58, 35
1, 61400, Tempo, 298344
1, 61440, Tempo, 295232
1, 61440, Note_on_c, 0, 58, 0
1, 61440, Note_on_c, 0, 82, 0
1, 61440, Note_on_c, 0, 91, 73
1, 61440, Note_on_c, 0, 51, 44
1, 61520, Tempo, 296004
1, 61560, Tempo, 296780
1, 61600, Note_on_c, 0, 51, 0
1, 61600, Note_on_c, 0, 91, 0
1, 61600, Note_on_c, 0, 79, 51
1, 61600, Note_on_c, 0, 70, 37
1, 61640, Tempo, 297560
1, 61680, Tempo, 298344
1, 61720, Tempo, 299133
1, 61760, Note_on_c, 0, 70, 0
1, 61760, Note_on_c, 0, 79, 0
1, 61760, Note_on_c, 0, 82, 53
1, 61760, Note_on_c, 0, 58, 38
1, 61800, Tempo, 299925
1, 61840, Tempo, 300722
1, 61880, Tempo, 296004
1, 61920, Note_on_c, 0, 58, 0
1, 61920, Note_on_c, 0, 82, 0
1, 61920, Note_on_c, 0, 90, 81
1, 61920, Note_on_c, 0, 45, 55
1, 61924, Control_c, 0, 64, 0
1, 61977, Control_c, 0, 64, 127
1, 62080, Tempo, 296780
1, 62080, Note_on_c, 0, 45, 0
1, 62080, Note_on_c, 0, 90, 0
1, 62080, Note_on_c, 0, 75, 57
1, 62080, Note_on_c, 0, 60, 36
1, 62240, Note_on_c, 0, 60, 0
1, 62240, Note_on_c, 0, 75, 0
1, 62240, Note_on_c, 0, 81, 59
1, 62240, Note_on_c, 0, 54, 36
1, 62280, Tempo, 297560
1, 62400, Note_on_c, 0, 54, 0
1, 62400, Note_on_c, 0, 81, 0
1, 62400, Note_on_c, 0, 89, 77
1, 62400, Note_on_c, 0, 47, 49
1, 62406, Control_c, 0, 64, 0
1, 62446, Control_c, 0, 64, 127
1, 62480, Tempo, 298344
1, 62560, Note_on_c, 0, 47, 0
1, 62560, Note_on_c, 0, 89, 0
1, 62560, Note_on_c, 0, 74, 57
1, 62560, Note_on_c, 0, 62, 37
1, 62680, Tempo, 299133
1, 62720, Note_on_c, 0, 62, 0
1, 62720, Note_on_c, 0, 74, 0
1, 62720, Note_on_c, 0, 80, 58
1, 62720, Note_on_c, 0, 56, 36
1, 62880, Tempo, 299925
1, 62880, Note_on_c, 0, 56, 0
1, 62880, Note_on_c, 0, 80, 0
1, 62880, Note_on_c, 0, 88, 76
1, 62880, Note_on_c, 0, 49, 47
1, 62894, Control_c, 0, 64, 0
1, 62960, Control_c, 0, 64, 127
1, 63040, Note_on_c, 0, 49, 0
1, 63040, Note_on_c, 0, 88, 0
1, 63040, Note_on_c, 0, 73, 52
1, 63040, Note_on_c, 0, 64, 34
1, 63080, Tempo, 300722
1, 63200, Note_on_c, 0, 64, 0
1, 63200, Note_on_c, 0, 73, 0
1, 63200, Note_on_c, 0, 79, 51
1, 63200, Note_on_c, 0, 58, 33
1, 63280, Tempo, 301508
1, 63360, Tempo, 309757
1, 63360, Note_on_c, 0, 58, 0
1, 63360, Note_on_c, 0, 79, 0
1, 63360, Note_on_c, 0, 87, 84
1, 63360, Note_on_c, 0, 51, 54
1, 63367, Control_c, 0, 64, 0
1, 63400, Control_c, 0, 64, 127
1, 63440, Tempo, 299925
1, 63520, Note_on_c, 0, 51, 0
1, 63520, Note_on_c, 0, 87, 0
1, 63520, Note_on_c, 0, 72, 53
1, 63520, Note_on_c, 0, 66, 38
1, 63640, Tempo, 300722
1, 63680, Note_on_c, 0, 66, 0
1, 63680, Note_on_c, 0, 72, 0
1, 63680, Note_on_c, 0, 78, 53
1, 63680, Note_on_c, 0, 60, 35
1, 63800, Tempo, 301508
1, 63840, Note_on_c, 0, 60, 0
1, 63840, Note_on_c, 0, 78, 0
1, 63840, Note_on_c, 0, 86, 75
1, 63840, Note_on_c, 0, 53, 46
1, 63852, Control_c, 0, 64, 0
1, 63939, Control_c, 0, 64, 127
1, 63960, Tempo, 302313
1, 64000, Note_on_c, 0, 53, 0
1, 64000, Note_on_c, 0, 86, 0
1, 64000, Note_on_c, 0, 71, 52
1, 64000, Note_on_c, 0, 68, 34
1, 64160, Tempo, 303122
1, 64160, Note_on_c, 0, 68, 0
1, 64160, Note_on_c, 0, 71, 0
1, 64160, Note_on_c, 0, 77, 48
1, 64160, Note_on_c, 0, 62, 34
1, 64320, Tempo, 303936
1, 64320, Note_on_c, 0, 62, 0
1, 64320, Note_on_c, 0, 77, 0
1, 64320, Note_on_c, 0, 85, 70
1, 64320, Note_on_c, 0, 55, 42
1, 64328, Control_c, 0, 64, 0
1, 64395, Control_c, 0, 64, 127
1, 64480, Tempo, 304754
1, 64480, Note_on_c, 0, 55, 0
1, 64480, Note_on_c, 0, 85, 0
1, 64480, Note_on_c, 0, 73, 52
1, 64480, Note_on_c, 0, 70, 35
1, 64640, Tempo, 305577
1, 64640, Note_on_c, 0, 70, 0
1, 64640, Note_on_c, 0, 73, 0
1, 64640, Note_on_c, 0, 79, 51
1, 64640, Note_on_c, 0, 64, 35
1, 64760, Tempo, 308071
1, 64800, Tempo, 311462
1, 64800, Note_on_c, 0, 64, 0
1, 64800, Note_on_c, 0, 79, 0
1, 64800, Note_on_c, 0, 84, 74
1, 64800, Note_on_c, 0, 56, 47
1, 64809, Control_c, 0, 64, 0
1, 64867, Control_c, 0, 64, 127
1, 64960, Tempo, 307235
1, 64960, Note_on_c, 0, 56, 0
1, 64960, Note_on_c, 0, 84, 0
1, 64960, Note_on_c, 0, 72, 50
1, 64960, Note_on_c, 0, 68, 36
1, 65120, Tempo, 306404
1, 65120, Note_on_c, 0, 68, 0
1, 65120, Note_on_c, 0, 72, 0
1, 65120, Note_on_c, 0, 77, 49
1, 65120, Note_on_c, 0, 65, 43
1, 65280, Tempo, 305577
1, 65280, Note_on_c, 0, 65, 0
1, 65280, Note_on_c, 0, 77, 0
1, 65280, Note_on_c, 0, 86, 79
1, 65280, Note_on_c, 0, 60, 54
1, 65440, Tempo, 304754
1, 65440, Note_on_c, 0, 60, 0
1, 65440, Note_on_c, 0, 86, 0
1, 65440, Note_on_c, 0, 72, 56
1, 65440, Note_on_c, 0, 68, 42
1, 65600, Tempo, 303936
1, 65600, Note_on_c, 0, 68, 0
1, 65600, Note_on_c, 0, 72, 0
1, 65600, Note_on_c, 0, 77, 58
1, 65600, Note_on_c, 0, 65, 42
1, 65760, Tempo, 303122
1, 65760, Note_on_c, 0, 65, 0
1, 65760, Note_on_c, 0, 77, 0
1, 65760, Note_on_c, 0, 87, 86
1, 65760, Note_on_c, 0, 56, 60
1, 65920, Tempo, 302313
1, 65920, Note_on_c, 0, 56, 0
1, 65920, Note_on_c, 0, 87, 0
1, 65920, Note_on_c, 0, 72, 61
1, 65920, Note_on_c, 0, 68, 46
1, 66080, Tempo, 301508
1, 66080, Note_on_c, 0, 68, 0
1, 66080, Note_on_c, 0, 72, 0
1, 66080, Note_on_c, 0, 77, 65
1, 66080, Note_on_c, 0, 65, 49
1, 66240, Tempo, 303122
1, 66240, Note_on_c, 0, 65, 0
1, 66240, Note_on_c, 0, 77, 0
1, 66240, Note_on_c, 0, 89, 89
1, 66240, Note_on_c, 0, 53, 62
1, 66247, Control_c, 0, 64, 0
1, 66297, Control_c, 0, 64, 127
1, 66400, Note_on_c, 0, 53, 0
1, 66400, Note_on_c, 0, 89, 0
1, 66400, Note_on_c, 0, 77, 62
1, 66400, Note_on_c, 0, 75, 46
1, 66480, Tempo, 302313
1, 66560, Note_on_c, 0, 75, 0
1, 66560, Note_on_c, 0, 77, 0
1, 66560, Note_on_c, 0, 84, 63
1, 66560, Note_on_c, 0, 68, 46
1, 66680, Tempo, 301508
1, 66720, Note_on_c, 0, 68, 0
1, 66720, Note_on_c, 0, 84, 0
1, 66720, Note_on_c, 0, 91, 80
1, 66720, Note_on_c, 0, 63, 50
1, 66880, Tempo, 300722
1, 66880, Note_on_c, 0, 63, 0
1, 66880, Note_on_c, 0, 91, 0
1, 66880, Note_on_c, 0, 79, 50
1, 66880, Note_on_c, 0, 75, 37
1, 67040, Note_on_c, 0, 75, 0
1, 67040, Note_on_c, 0, 79, 0
1, 67040, Note_on_c, 0, 84, 51
1, 67040, Note_on_c, 0, 68, 38
1, 67080, Tempo, 299925
1, 67200, Note_on_c, 0, 68, 0
1, 67200, Note_on_c, 0, 84, 0
1, 67200, Note_on_c, 0, 89, 75
1, 67200, Note_on_c, 0, 56, 46
1, 67280, Tempo, 299133
1, 67360, Note_on_c, 0, 56, 0
1, 67360, Note_on_c, 0, 89, 0
1, 67360, Note_on_c, 0, 77, 47
1, 67360, Note_on_c, 0, 75, 37
1, 67480, Tempo, 298344
1, 67520, Tempo, 301508
1, 67520, Note_on_c, 0, 75, 0
1, 67520, Note_on_c, 0, 77, 0
1, 67520, Note_on_c, 0, 80, 48
1, 67520, Note_on_c, 0, 68, 35
1, 67680, Tempo, 329670
1, 67680, Note_on_c, 0, 68, 0
1, 67680, Note_on_c, 0, 80, 0
1, 67680, Note_on_c, 0, 84, 70
1, 67680, Note_on_c, 0, 44, 46
1, 67840, Tempo, 307235
1, 67840, Note_on_c, 0, 44, 0
1, 67840, Note_on_c, 0, 84, 0
1, 67840, Note_on_c, 0, 72, 51
1, 67840, Note_on_c, 0, 68, 35
1, 68000, Tempo, 306404
1, 68000, Note_on_c, 0, 68, 0
1, 68000, Note_on_c, 0, 72, 0
1, 68000, Note_on_c, 0, 77, 50
1, 68000, Note_on_c, 0, 65, 38
1, 68160, Tempo, 305577
1, 68160, Note_on_c, 0, 65, 0
1, 68160, Note_on_c, 0, 77, 0
1, 68160, Note_on_c, 0, 86, 68
1, 68160, Note_on_c, 0, 60, 47
1, 68320, Tempo, 304754
1, 68320, Note_on_c, 0, 60, 0
1, 68320, Note_on_c, 0, 86, 0
1, 68320, Note_on_c, 0, 74, 53
1, 68320, Note_on_c, 0, 68, 38
1, 68480, Tempo, 303936
1, 68480, Note_on_c, 0, 68, 0
1, 68480, Note_on_c, 0, 74, 0
1, 68480, Note_on_c, 0, 77, 49
1, 68480, Note_on_c, 0, 65, 32
1, 68640, Tempo, 303122
1, 68640, Note_on_c, 0, 65, 0
1, 68640, Note_on_c, 0, 77, 0
1, 68640, Note_on_c, 0, 84, 61
1, 68640, Note_on_c, 0, 53, 38
1, 68800, Tempo, 302313
1, 68800, Note_on_c, 0, 53, 0
1, 68800, Note_on_c, 0, 84, 0
1, 68800, Note_on_c, 0, 72, 44
1, 68800, Note_on_c, 0, 68, 34
1, 68960, Tempo, 301508
1, 68960, Note_on_c, 0, 68, 0
1, 68960, Note_on_c, 0, 72, 0
1, 68960, Note_on_c, 0, 77, 46
1, 68960, Note_on_c, 0, 63, 34
1, 69120, Tempo, 311462
1, 69120, Note_on_c, 0, 63, 0
1, 69120, Note_on_c, 0, 77, 0
1, 69120, Note_on_c, 0, 77, 57
1, 69120, Note_on_c, 0, 46, 37
1, 69127, Control_c, 0, 64, 0
1, 69191, Control_c, 0, 64, 127
1, 69280, Tempo, 307235
1, 69280, Note_on_c, 0, 46, 0
1, 69280, Note_on_c, 0, 77, 0
1, 69280, Note_on_c, 0, 65, 42
1, 69280, Note_on_c, 0, 63, 28
1, 69440, Tempo, 306404
1, 69440, Note_on_c, 0, 63, 0
1, 69440, Note_on_c, 0, 65, 0
1, 69440, Note_on_c, 0, 72, 41
1, 69440, Note_on_c, 0, 56, 31
1, 69600, Tempo, 305577
1, 69600, Note_on_c, 0, 56, 0
1, 69600, Note_on_c, 0, 72, 0
1, 69600, Note_on_c, 0, 79, 55
1, 69600, Note_on_c, 0, 53, 38
1, 69611, Control_c, 0, 64, 0
1, 69685, Control_c, 0, 64, 127
1, 69760, Tempo, 304754
1, 69760, Note_on_c, 0, 53, 0
1, 69760, Note_on_c, 0, 79, 0
1, 69760, Note_on_c, 0, 65, 44
1, 69760, Note_on_c, 0, 62, 31
1, 69920, Tempo, 303936
1, 69920, Note_on_c, 0, 62, 0
1, 69920, Note_on_c, 0, 65, 0
1, 69920, Note_on_c, 0, 72, 44
1, 69920, Note_on_c, 0, 56, 32
1, 70060, Tempo, 302267
1, 70080, Note_on_c, 0, 56, 0
1, 70080, Note_on_c, 0, 72, 0
1, 70080, Note_on_c, 0, 74, 50
1, 70080, Note_on_c, 0, 46, 31
1, 70086, Control_c, 0, 64, 0
1, 70100, Tempo, 303797
1, 70140, Tempo, 306122
1, 70172, Control_c, 0, 64, 127
1, 70180, Tempo, 307692
1, 70220, Tempo, 310078
1, 70240, Note_on_c, 0, 46, 0
1, 70240, Note_on_c, 0, 74, 0
1, 70240, Note_on_c, 0, 62, 36
1, 70240, Note_on_c, 0, 58, 27
1, 70260, Tempo, 311688
1, 70300, Tempo, 314136
1, 70340, Tempo, 316623
1, 70380, Tempo, 318302
1, 70400, Note_on_c, 0, 58, 0
1, 70400, Note_on_c, 0, 62, 0
1, 70400, Note_on_c, 0, 70, 37
1, 70400, Note_on_c, 0, 56, 27
1, 70420, Tempo, 320856
1, 70460, Tempo, 322581
1, 70500, Tempo, 325203
1, 70540, Tempo, 327869
1, 70560, Tempo, 308071
1, 70560, Note_on_c, 0, 56, 0
1, 70560, Note_on_c, 0, 70, 0
1, 70560, Note_on_c, 0, 75, 52
1, 70560, Note_on_c, 0, 39, 32
1, 70566, Control_c, 0, 64, 0
1, 70629, Control_c, 0, 64, 127
1, 70640, Tempo, 303936
1, 70720, Note_on_c, 0, 39, 0
1, 70720, Note_on_c, 0, 75, 0
1, 70720, Note_on_c, 0, 63, 40
1, 70720, Note_on_c, 0, 55, 27
1, 70760, Tempo, 303122
1, 70880, Tempo, 302313
1, 70880, Note_on_c, 0, 55, 0
1, 70880, Note_on_c, 0, 63, 0
1, 70880, Note_on_c, 0, 70, 41
1, 70880, Note_on_c, 0, 46, 28
1, 71000, Tempo, 301508
1, 71040, Note_on_c, 0, 46, 0
1, 71040, Note_on_c, 0, 70, 0
1, 71040, Note_on_c, 0, 82, 61
1, 71040, Note_on_c, 0, 39, 36
1, 71120, Tempo, 300722
1, 71200, Note_on_c, 0, 39, 0
1, 71200, Note_on_c, 0, 82, 0
1, 71200, Note_on_c, 0, 67, 44
1, 71200, Note_on_c, 0, 58, 29
1, 71280, Tempo, 306122
1, 71360, Tempo, 375000
1, 71360, Note_on_c, 0, 58, 0
1, 71360, Note_on_c, 0, 67, 0
1, 71360, Note_on_c, 0, 75, 47
1, 71360, Note_on_c, 0, 46, 32
1, 71520, Tempo, 295232
1, 71520, Note_on_c, 0, 46, 0
1, 71520, Note_on_c, 0, 75, 0
1, 71520, Note_on_c, 0, 83, 68
1, 71520, Note_on_c, 0, 39, 40
1, 71600, Tempo, 296004
1, 71640, Tempo, 296780
1, 71680, Note_on_c, 0, 39, 0
1, 71680, Note_on_c, 0, 83, 0
1, 71680, Note_on_c, 0, 67, 48
1, 71680, Note_on_c, 0, 58, 34
1, 71720, Tempo, 297560
1, 71840, Tempo, 312305
1, 71840, Note_on_c, 0, 58, 0
1, 71840, Note_on_c, 0, 67, 0
1, 71840, Note_on_c, 0, 75, 51
1, 71840, Note_on_c, 0, 46, 36
1, 72000, Tempo, 302313
1, 72000, Note_on_c, 0, 46, 0
1, 72000, Note_on_c, 0, 75, 0
1, 72000, Note_on_c, 0, 82, 68
1, 72000, Note_on_c, 0, 39, 46
1, 72008, Control_c, 0, 64, 0
1, 72020, Tempo, 294118
1, 72057, Control_c, 0, 64, 127
1, 72160, Tempo, 305577
1, 72160, Note_on_c, 0, 39, 0
1, 72160, Note_on_c, 0, 82, 0
1, 72160, Note_on_c, 0, 68, 51
1, 72160, Note_on_c, 0, 56, 54
1, 72320, Tempo, 306404
1, 72320, Note_on_c, 0, 56, 0
1, 72320, Note_on_c, 0, 68, 0
1, 72320, Note_on_c, 0, 74, 49
1, 72320, Note_on_c, 0, 46, 33
1, 72480, Tempo, 307235
1, 72480, Note_on_c, 0, 46, 0
1, 72480, Note_on_c, 0, 74, 0
1, 72480, Note_on_c, 0, 81, 69
1, 72480, Note_on_c, 0, 39, 42
1, 72640, Tempo, 308071
1, 72640, Note_on_c, 0, 39, 0
1, 72640, Note_on_c, 0, 81, 0
1, 72640, Note_on_c, 0, 68, 49
1, 72640, Note_on_c, 0, 58, 32
1, 72800, Tempo, 308912
1, 72800, Note_on_c, 0, 58, 0
1, 72800, Note_on_c, 0, 68, 0
1, 72800, Note_on_c, 0, 74, 46
1, 72800, Note_on_c, 0, 46, 30
1, 72960, Tempo, 309757
1, 72960, Note_on_c, 0, 46, 0
1, 72960, Note_on_c, 0, 74, 0
1, 72960, Note_on_c, 0, 80, 63
1, 72960, Note_on_c, 0, 39, 34
1, 73120, Note_on_c, 0, 39, 0
1, 73120, Note_on_c, 0, 80, 0
1, 73120, Note_on_c, 0, 68, 45
1, 73120, Note_on_c, 0, 58, 28
1, 73280, Tempo, 323922
1, 73280, Note_on_c, 0, 58, 0
1, 73280, Note_on_c, 0, 68, 0
1, 73280, Note_on_c, 0, 74, 40
1, 73280, Note_on_c, 0, 46, 26
1, 73440, Tempo, 308071
1, 73440, Note_on_c, 0, 46, 0
1, 73440, Note_on_c, 0, 74, 0
1, 73440, Note_on_c, 0, 79, 52
1, 73440, Note_on_c, 0, 39, 32
1, 73447, Control_c, 0, 64, 0
1, 73511, Control_c, 0, 64, 127
1, 73520, Tempo, 303936
1, 73600, Note_on_c, 0, 39, 0
1, 73600, Note_on_c, 0, 79, 0
1, 73600, Note_on_c, 0, 67, 40
1, 73600, Note_on_c, 0, 58, 27
1, 73640, Tempo, 303122
1, 73760, Tempo, 302313
1, 73760, Note_on_c, 0, 58, 0
1, 73760, Note_on_c, 0, 67, 0
1, 73760, Note_on_c, 0, 75, 41
1, 73760, Note_on_c, 0, 46, 28
1, 73880, Tempo, 301508
1, 73920, Note_on_c, 0, 46, 0
1, 73920, Note_on_c, 0, 75, 0
1, 73920, Note_on_c, 0, 82, 61
1, 73920, Note_on_c, 0, 39, 36
1, 74000, Tempo, 300722
1, 74080, Note_on_c, 0, 39, 0
1, 74080, Note_on_c, 0, 82, 0
1, 74080, Note_on_c, 0, 67, 44
1, 74080, Note_on_c, 0, 58, 29
1, 74120, Tempo, 299925
1, 74240, Tempo, 299133
1, 74240, Note_on_c, 0, 58, 0
1, 74240, Note_on_c, 0, 67, 0
1, 74240, Note_on_c, 0, 75, 47
1, 74240, Note_on_c, 0, 46, 32
1, 74280, Tempo, 335196
1, 74360, Tempo, 298344
1, 74400, Tempo, 302313
1, 74400, Note_on_c, 0, 46, 0
1, 74400, Note_on_c, 0, 75, 0
1, 74400, Note_on_c, 0, 84, 67
1, 74400, Note_on_c, 0, 39, 40
1, 74560, Note_on_c, 0, 39, 0
1, 74560, Note_on_c, 0, 84, 0
1, 74560, Note_on_c, 0, 67, 48
1, 74560, Note_on_c, 0, 58, 34
1, 74720, Tempo, 312305
1, 74720, Note_on_c, 0, 58, 0
1, 74720, Note_on_c, 0, 67, 0
1, 74720, Note_on_c, 0, 75, 51
1, 74720, Note_on_c, 0, 46, 36
1, 74880, Tempo, 297767
1, 74880, Note_on_c, 0, 46, 0
1, 74880, Note_on_c, 0, 75, 0
1, 74880, Note_on_c, 0, 82, 69
1, 74880, Note_on_c, 0, 39, 40
1, 74887, Control_c, 0, 64, 0
1, 74937, Control_c, 0, 64, 127
1, 75040, Tempo, 305577
1, 75040, Note_on_c, 0, 39, 0
1, 75040, Note_on_c, 0, 82, 0
1, 75040, Note_on_c, 0, 68, 51
1, 75040, Note_on_c, 0, 56, 42
1, 75200, Tempo, 306404
1, 75200, Note_on_c, 0, 56, 0
1, 75200, Note_on_c, 0, 68, 0
1, 75200, Note_on_c, 0, 74, 49
1, 75200, Note_on_c, 0, 46, 33
1, 75360, Tempo, 307235
1, 75360, Note_on_c, 0, 46, 0
1, 75360, Note_on_c, 0, 74, 0
1, 75360, Note_on_c, 0, 81, 62
1, 75360, Note_on_c, 0, 39, 42
1, 75520, Tempo, 308071
1, 75520, Note_on_c, 0, 39, 0
1, 75520, Note_on_c, 0, 81, 0
1, 75520, Note_on_c, 0, 68, 49
1, 75520, Note_on_c, 0, 58, 32
1, 75680, Tempo, 308912
1, 75680, Note_on_c, 0, 58, 0
1, 75680, Note_on_c, 0, 68, 0
1, 75680, Note_on_c, 0, 74, 46
1, 75680, Note_on_c, 0, 46, 30
1, 75840, Tempo, 309757
1, 75840, Note_on_c, 0, 46, 0
1, 75840, Note_on_c, 0, 74, 0
1, 75840, Note_on_c, 0, 80, 55
1, 75840, Note_on_c, 0, 39, 34
1, 76000, Note_on_c, 0, 39, 0
1, 76000, Note_on_c, 0, 80, 0
1, 76000, Note_on_c, 0, 68, 45
1, 76000, Note_on_c, 0, 58, 28
1, 76160, Tempo, 323922
1, 76160, Note_on_c, 0, 58, 0
1, 76160, Note_on_c, 0, 68, 0
1, 76160, Note_on_c, 0, 74, 40
1, 76160, Note_on_c, 0, 46, 26
1, 76320, Tempo, 308071
1, 76320, Note_on_c, 0, 46, 0
1, 76320, Note_on_c, 0, 74, 0
1, 76320, Note_on_c, 0, 79, 52
1, 76320, Note_on_c, 0, 39, 32
1, 76334, Control_c, 0, 64, 0
1, 76384, Control_c, 0, 64, 127
1, 76400, Tempo, 303936
1, 76480, Note_on_c, 0, 39, 0
1, 76480, Note_on_c, 0, 79, 0
1, 76480, Note_on_c, 0, 67, 40
1, 76480, Note_on_c, 0, 58, 27
1, 76520, Tempo, 303122
1, 76640, Tempo, 302313
1, 76640, Note_on_c, 0, 58, 0
1, 76640, Note_on_c, 0, 67, 0
1, 76640, Note_on_c, 0, 75, 42
1, 76640, Note_on_c, 0, 46, 28
1, 76760, Tempo, 301508
1, 76800, Note_on_c, 0, 46, 0
1, 76800, Note_on_c, 0, 75, 0
1, 76800, Note_on_c, 0, 82, 65
1, 76800, Note_on_c, 0, 39, 39
1, 76880, Tempo, 300722
1, 76960, Note_on_c, 0, 39, 0
1, 76960, Note_on_c, 0, 82, 0
1, 76960, Note_on_c, 0, 67, 48
1, 76960, Note_on_c, 0, 58, 29
1, 77000, Tempo, 299925
1, 77120, Tempo, 299133
1, 77120, Note_on_c, 0, 58, 0
1, 77120, Note_on_c, 0, 67, 0
1, 77120, Note_on_c, 0, 79, 50
1, 77120, Note_on_c, 0, 46, 32
1, 77240, Tempo, 298344
1, 77280, Tempo, 295232
1, 77280, Note_on_c, 0, 46, 0
1, 77280, Note_on_c, 0, 79, 0
1, 77280, Note_on_c, 0, 87, 75
1, 77280, Note_on_c, 0, 43, 45
1, 77360, Tempo, 296004
1, 77400, Tempo, 296780
1, 77440, Note_on_c, 0, 43, 0
1, 77440, Note_on_c, 0, 87, 0
1, 77440, Note_on_c, 0, 75, 54
1, 77440, Note_on_c, 0, 58, 35
1, 77480, Tempo, 297560
1, 77600, Tempo, 370370
1, 77600, Note_on_c, 0, 58, 0
1, 77600, Note_on_c, 0, 75, 0
1, 77600, Note_on_c, 0, 82, 58
1, 77600, Note_on_c, 0, 51, 37
1, 77760, Tempo, 297767
1, 77760, Note_on_c, 0, 51, 0
1, 77760, Note_on_c, 0, 82, 0
1, 77760, Note_on_c, 0, 91, 82
1, 77760, Control_c, 0, 64, 0
1, 77760, Note_on_c, 0, 43, 53
1, 77817, Control_c, 0, 64, 127
1, 77920, Tempo, 305577
1, 77920, Note_on_c, 0, 43, 0
1, 77920, Note_on_c, 0, 91, 0
1, 77920, Note_on_c, 0, 74, 59
1, 77920, Note_on_c, 0, 65, 35
1, 77940, Tempo, 298507
1, 78020, Tempo, 299252
1, 78080, Note_on_c, 0, 65, 0
1, 78080, Note_on_c, 0, 74, 0
1, 78080, Note_on_c, 0, 83, 56
1, 78080, Note_on_c, 0, 59, 35
1, 78100, Tempo, 300000
1, 78160, Tempo, 300752
1, 78240, Tempo, 301508
1, 78240, Note_on_c, 0, 59, 0
1, 78240, Note_on_c, 0, 83, 0
1, 78240, Note_on_c, 0, 89, 74
1, 78240, Note_on_c, 0, 50, 47
1, 78300, Tempo, 302267
1, 78380, Tempo, 303030
1, 78400, Note_on_c, 0, 50, 0
1, 78400, Note_on_c, 0, 89, 0
1, 78400, Note_on_c, 0, 74, 55
1, 78400, Note_on_c, 0, 65, 34
1, 78460, Tempo, 303797
1, 78520, Tempo, 304569
1, 78560, Note_on_c, 0, 65, 0
1, 78560, Note_on_c, 0, 74, 0
1, 78560, Note_on_c, 0, 79, 53
1, 78560, Note_on_c, 0, 59, 33
1, 78600, Tempo, 305344
1, 78660, Tempo, 306122
1, 78720, Tempo, 309757
1, 78720, Note_on_c, 0, 59, 0
1, 78720, Note_on_c, 0, 79, 0
1, 78720, Note_on_c, 0, 87, 71
1, 78720, Note_on_c, 0, 48, 45
1, 78734, Control_c, 0, 64, 0
1, 78740, Tempo, 306122
1, 78800, Control_c, 0, 64, 127
1, 78880, Note_on_c, 0, 48, 0
1, 78880, Note_on_c, 0, 87, 0
1, 78880, Note_on_c, 0, 72, 52
1, 78880, Note_on_c, 0, 63, 31
1, 78960, Tempo, 310078
1, 79040, Note_on_c, 0, 63, 0
1, 79040, Note_on_c, 0, 72, 0
1, 79040, Note_on_c, 0, 79, 51
1, 79040, Note_on_c, 0, 55, 29
1, 79200, Tempo, 299252
1, 79200, Note_on_c, 0, 55, 0
1, 79200, Note_on_c, 0, 79, 0
1, 79200, Note_on_c, 0, 87, 75
1, 79200, Note_on_c, 0, 45, 44
1, 79206, Control_c, 0, 64, 0
1, 79257, Control_c, 0, 64, 127
1, 79360, Tempo, 301508
1, 79360, Note_on_c, 0, 45, 0
1, 79360, Note_on_c, 0, 87, 0
1, 79360, Note_on_c, 0, 72, 57
1, 79360, Note_on_c, 0, 63, 33
1, 79460, Tempo, 302267
1, 79520, Note_on_c, 0, 63, 0
1, 79520, Note_on_c, 0, 72, 0
1, 79520, Note_on_c, 0, 78, 51
1, 79520, Note_on_c, 0, 54, 33
1, 79560, Tempo, 303030
1, 79640, Tempo, 303797
1, 79680, Note_on_c, 0, 54, 0
1, 79680, Note_on_c, 0, 78, 0
1, 79680, Note_on_c, 0, 86, 70
1, 79680, Note_on_c, 0, 51, 40
1, 79686, Control_c, 0, 64, 0
1, 79726, Control_c, 0, 64, 127
1, 79740, Tempo, 304569
1, 79840, Tempo, 305344
1, 79840, Note_on_c, 0, 51, 0
1, 79840, Note_on_c, 0, 86, 0
1, 79840, Note_on_c, 0, 71, 51
1, 79840, Note_on_c, 0, 63, 31
1, 79920, Tempo, 306122
1, 80000, Note_on_c, 0, 63, 0
1, 80000, Note_on_c, 0, 71, 0
1, 80000, Note_on_c, 0, 78, 50
1, 80000, Note_on_c, 0, 54, 29
1, 80020, Tempo, 306905
1, 80100, Tempo, 307692
1, 80160, Tempo, 309757
1, 80160, Note_on_c, 0, 54, 0
1, 80160, Note_on_c, 0, 78, 0
1, 80160, Note_on_c, 0, 84, 65
1, 80160, Note_on_c, 0, 44, 33
1, 80168, Control_c, 0, 64, 0
1, 80206, Control_c, 0, 64, 127
1, 80320, Note_on_c, 0, 44, 0
1, 80320, Note_on_c, 0, 84, 0
1, 80320, Note_on_c, 0, 72, 45
1, 80320, Note_on_c, 0, 63, 27
1, 80480, Note_on_c, 0, 63, 0
1, 80480, Note_on_c, 0, 72, 0
1, 80480, Note_on_c, 0, 78, 44
1, 80480, Note_on_c, 0, 54, 26
1, 80640, Tempo, 302313
1, 80640, Note_on_c, 0, 54, 0
1, 80640, Note_on_c, 0, 78, 0
1, 80640, Note_on_c, 0, 84, 61
1, 80640, Note_on_c, 0, 46, 35
1, 80647, Control_c, 0, 64, 0
1, 80725, Control_c, 0, 64, 127
1, 80800, Tempo, 305577
1, 80800, Note_on_c, 0, 46, 0
1, 80800, Note_on_c, 0, 84, 0
1, 80800, Note_on_c, 0, 68, 46
1, 80800, Note_on_c, 0, 62, 29
1, 80960, Tempo, 306404
1, 80960, Note_on_c, 0, 62, 0
1, 80960, Note_on_c, 0, 68, 0
1, 80960, Note_on_c, 0, 77, 45
1, 80960, Note_on_c, 0, 56, 29
1, 81120, Tempo, 307235
1, 81120, Note_on_c, 0, 56, 0
1, 81120, Note_on_c, 0, 77, 0
1, 81120, Note_on_c, 0, 82, 58
1, 81120, Note_on_c, 0, 53, 33
1, 81280, Tempo, 308071
1, 81280, Note_on_c, 0, 53, 0
1, 81280, Note_on_c, 0, 82, 0
1, 81280, Note_on_c, 0, 67, 44
1, 81280, Note_on_c, 0, 62, 28
1, 81440, Tempo, 308912
1, 81440, Note_on_c, 0, 62, 0
1, 81440, Note_on_c, 0, 67, 0
1, 81440, Note_on_c, 0, 72, 43
1, 81440, Note_on_c, 0, 56, 28
1, 81600, Tempo, 309757
1, 81600, Note_on_c, 0, 56, 0
1, 81600, Note_on_c, 0, 72, 0
1, 81600, Note_on_c, 0, 80, 55
1, 81600, Note_on_c, 0, 46, 32
1, 81614, Control_c, 0, 64, 0
1, 81680, Control_c, 0, 64, 127
1, 81760, Note_on_c, 0, 46, 0
1, 81760, Note_on_c, 0, 80, 0
1, 81760, Note_on_c, 0, 65, 43
1, 81760, Note_on_c, 0, 58, 27
1, 81920, Tempo, 323922
1, 81920, Note_on_c, 0, 58, 0
1, 81920, Note_on_c, 0, 65, 0
1, 81920, Note_on_c, 0, 74, 39
1, 81920, Note_on_c, 0, 56, 26
1, 82080, Tempo, 308071
1, 82080, Note_on_c, 0, 56, 0
1, 82080, Note_on_c, 0, 74, 0
1, 82080, Note_on_c, 0, 79, 52
1, 82080, Note_on_c, 0, 39, 32
1, 82089, Control_c, 0, 64, 0
1, 82160, Tempo, 303936
1, 82166, Control_c, 0, 64, 127
1, 82240, Note_on_c, 0, 39, 0
1, 82240, Note_on_c, 0, 79, 0
1, 82240, Note_on_c, 0, 63, 40
1, 82240, Note_on_c, 0, 55, 27
1, 82280, Tempo, 303122
1, 82400, Tempo, 302313
1, 82400, Note_on_c, 0, 55, 0
1, 82400, Note_on_c, 0, 63, 0
1, 82400, Note_on_c, 0, 75, 41
1, 82400, Note_on_c, 0, 46, 28
1, 82520, Tempo, 301508
1, 82560, Note_on_c, 0, 46, 0
1, 82560, Note_on_c, 0, 75, 0
1, 82560, Note_on_c, 0, 82, 61
1, 82560, Note_on_c, 0, 39, 36
1, 82640, Tempo, 300722
1, 82720, Tempo, 300000
1, 82720, Note_on_c, 0, 39, 0
1, 82720, Note_on_c, 0, 82, 0
1, 82720, Note_on_c, 0, 67, 49
1, 82720, Note_on_c, 0, 58, 29
1, 82740, Tempo, 300752
1, 82760, Tempo, 302267
1, 82780, Tempo, 303030
1, 82800, Tempo, 304569
1, 82820, Tempo, 305344
1, 82840, Tempo, 306905
1, 82860, Tempo, 307692
1, 82880, Tempo, 309278
1, 82880, Note_on_c, 0, 58, 0
1, 82880, Note_on_c, 0, 67, 0
1, 82880, Note_on_c, 0, 75, 51
1, 82880, Note_on_c, 0, 46, 32
1, 82900, Tempo, 310078
1, 82920, Tempo, 311688
1, 82940, Tempo, 312500
1, 82960, Tempo, 314136
1, 82980, Tempo, 314961
1, 83000, Tempo, 316623
1, 83040, Tempo, 297560
1, 83040, Note_on_c, 0, 46, 0
1, 83040, Note_on_c, 0, 75, 0
1, 83040, Note_on_c, 0, 83, 69
1, 83040, Note_on_c, 0, 39, 40
1, 83120, Tempo, 298344
1, 83200, Tempo, 299133
1, 83200, Note_on_c, 0, 39, 0
1, 83200, Note_on_c, 0, 83, 0
1, 83200, Note_on_c, 0, 67, 55
1, 83200, Note_on_c, 0, 58, 34
1, 83280, Tempo, 299925
1, 83320, Tempo, 300722
1, 83360, Tempo, 312305
1, 83360, Note_on_c, 0, 58, 0
1, 83360, Note_on_c, 0, 67, 0
1, 83360, Note_on_c, 0, 75, 52
1, 83360, Note_on_c, 0, 46, 33
1, 83520, Tempo, 297030
1, 83520, Note_on_c, 0, 46, 0
1, 83520, Note_on_c, 0, 75, 0
1, 83520, Note_on_c, 0, 82, 68
1, 83520, Note_on_c, 0, 39, 46
1, 83526, Control_c, 0, 64, 0
1, 83577, Control_c, 0, 64, 127
1, 83680, Tempo, 305577
1, 83680, Note_on_c, 0, 39, 0
1, 83680, Note_on_c, 0, 82, 0
1, 83680, Note_on_c, 0, 68, 51
1, 83680, Note_on_c, 0, 56, 34
1, 83840, Tempo, 306404
1, 83840, Note_on_c, 0, 56, 0
1, 83840, Note_on_c, 0, 68, 0
1, 83840, Note_on_c, 0, 74, 49
1, 83840, Note_on_c, 0, 46, 33
1, 84000, Tempo, 307235
1, 84000, Note_on_c, 0, 46, 0
1, 84000, Note_on_c, 0, 74, 0
1, 84000, Note_on_c, 0, 81, 65
1, 84000, Note_on_c, 0, 39, 42
1, 84160, Tempo, 308071
1, 84160, Note_on_c, 0, 39, 0
1, 84160, Note_on_c, 0, 81, 0
1, 84160, Note_on_c, 0, 68, 49
1, 84160, Note_on_c, 0, 58, 32
1, 84320, Tempo, 308912
1, 84320, Note_on_c, 0, 58, 0
1, 84320, Note_on_c, 0, 68, 0
1, 84320, Note_on_c, 0, 74, 46
1, 84320, Note_on_c, 0, 46, 30
1, 84480, Tempo, 309757
1, 84480, Note_on_c, 0, 46, 0
1, 84480, Note_on_c, 0, 74, 0
1, 84480, Note_on_c, 0, 80, 63
1, 84480, Note_on_c, 0, 39, 34
1, 84640, Note_on_c, 0, 39, 0
1, 84640, Note_on_c, 0, 80, 0
1, 84640, Note_on_c, 0, 68, 45
1, 84640, Note_on_c, 0, 58, 28
1, 84800, Tempo, 323922
1, 84800, Note_on_c, 0, 58, 0
1, 84800, Note_on_c, 0, 68, 0
1, 84800, Note_on_c, 0, 74, 40
1, 84800, Note_on_c, 0, 46, 26
1, 84960, Tempo, 308071
1, 84960, Note_on_c, 0, 46, 0
1, 84960, Note_on_c, 0, 74, 0
1, 84960, Note_on_c, 0, 79, 52
1, 84960, Note_on_c, 0, 39, 32
1, 84965, Control_c, 0, 64, 0
1, 85038, Control_c, 0, 64, 127
1, 85040, Tempo, 303936
1, 85120, Note_on_c, 0, 39, 0
1, 85120, Note_on_c, 0, 79, 0
1, 85120, Note_on_c, 0, 67, 40
1, 85120, Note_on_c, 0, 58, 27
1, 85160, Tempo, 303122
1, 85280, Tempo, 302313
1, 85280, Note_on_c, 0, 58, 0
1, 85280, Note_on_c, 0, 67, 0
1, 85280, Note_on_c, 0, 75, 41
1, 85280, Note_on_c, 0, 46, 28
1, 85400, Tempo, 301508
1, 85440, Note_on_c, 0, 46, 0
1, 85440, Note_on_c, 0, 75, 0
1, 85440, Note_on_c, 0, 82, 61
1, 85440, Note_on_c, 0, 39, 36
1, 85520, Tempo, 300722
1, 85600, Tempo, 299252
1, 85600, Note_on_c, 0, 39, 0
1, 85600, Note_on_c, 0, 82, 0
1, 85600, Note_on_c, 0, 67, 44
1, 85600, Note_on_c, 0, 58, 29
1, 85620, Tempo, 300000
1, 85640, Tempo, 300752
1, 85660, Tempo, 301508
1, 85680, Tempo, 302267
1, 85700, Tempo, 303030
1, 85720, Tempo, 303797
1, 85740, Tempo, 304569
1, 85760, Tempo, 306122
1, 85760, Note_on_c, 0, 58, 0
1, 85760, Note_on_c, 0, 67, 0
1, 85760, Note_on_c, 0, 75, 47
1, 85760, Note_on_c, 0, 46, 32
1, 85780, Tempo, 306905
1, 85800, Tempo, 307692
1, 85820, Tempo, 308483
1, 85840, Tempo, 309278
1, 85860, Tempo, 310078
1, 85880, Tempo, 310881
1, 85900, Tempo, 312500
1, 85920, Tempo, 295232
1, 85920, Note_on_c, 0, 46, 0
1, 85920, Note_on_c, 0, 75, 0
1, 85920, Note_on_c, 0, 84, 67
1, 85920, Note_on_c, 0, 39, 40
1, 86000, Tempo, 296004
1, 86040, Tempo, 296780
1, 86080, Note_on_c, 0, 39, 0
1, 86080, Note_on_c, 0, 84, 0
1, 86080, Note_on_c, 0, 67, 48
1, 86080, Note_on_c, 0, 58, 34
1, 86120, Tempo, 297560
1, 86240, Tempo, 312305
1, 86240, Note_on_c, 0, 58, 0
1, 86240, Note_on_c, 0, 67, 0
1, 86240, Note_on_c, 0, 75, 51
1, 86240, Note_on_c, 0, 46, 36
1, 86400, Tempo, 299252
1, 86400, Note_on_c, 0, 46, 0
1, 86400, Note_on_c, 0, 75, 0
1, 86400, Note_on_c, 0, 82, 66
1, 86400, Note_on_c, 0, 39, 40
1, 86408, Control_c, 0, 64, 0
1, 86457, Control_c, 0, 64, 127
1, 86560, Tempo, 305577
1, 86560, Note_on_c, 0, 39, 0
1, 86560, Note_on_c, 0, 82, 0
1, 86560, Note_on_c, 0, 68, 51
1, 86560, Note_on_c, 0, 56, 40
1, 86720, Tempo, 306404
1, 86720, Note_on_c, 0, 56, 0
1, 86720, Note_on_c, 0, 68, 0
1, 86720, Note_on_c, 0, 74, 49
1, 86720, Note_on_c, 0, 46, 33
1, 86880, Tempo, 307235
1, 86880, Note_on_c, 0, 46, 0
1, 86880, Note_on_c, 0, 74, 0
1, 86880, Note_on_c, 0, 81, 62
1, 86880, Note_on_c, 0, 39, 42
1, 87040, Tempo, 308071
1, 87040, Note_on_c, 0, 39, 0
1, 87040, Note_on_c, 0, 81, 0
1, 87040, Note_on_c, 0, 68, 49
1, 87040, Note_on_c, 0, 58, 32
1, 87200, Tempo, 308912
1, 87200, Note_on_c, 0, 58, 0
1, 87200, Note_on_c, 0, 68, 0
1, 87200, Note_on_c, 0, 74, 46
1, 87200, Note_on_c, 0, 46, 30
1, 87360, Tempo, 309757
1, 87360, Note_on_c, 0, 46, 0
1, 87360, Note_on_c, 0, 74, 0
1, 87360, Note_on_c, 0, 80, 55
1, 87360, Note_on_c, 0, 39, 34
1, 87520, Note_on_c, 0, 39, 0
1, 87520, Note_on_c, 0, 80, 0
1, 87520, Note_on_c, 0, 68, 45
1, 87520, Note_on_c, 0, 58, 28
1, 87680, Tempo, 323922
1, 87680, Note_on_c, 0, 58, 0
1, 87680, Note_on_c, 0, 68, 0
1, 87680, Note_on_c, 0, 74, 40
1, 87680, Note_on_c, 0, 46, 26
1, 87840, Tempo, 308071
1, 87840, Note_on_c, 0, 46, 0
1, 87840, Note_on_c, 0, 74, 0
1, 87840, Note_on_c, 0, 79, 52
1, 87840, Note_on_c, 0, 39, 32
1, 87848, Control_c, 0, 64, 0
1, 87918, Control_c, 0, 64, 127
1, 87920, Tempo, 303936
1, 88000, Note_on_c, 0, 39, 0
1, 88000, Note_on_c, 0, 79, 0
1, 88000, Note_on_c, 0, 67, 40
1, 88000, Note_on_c, 0, 58, 27
1, 88040, Tempo, 303122
1, 88160, Tempo, 302313
1, 88160, Note_on_c, 0, 58, 0
1, 88160, Note_on_c, 0, 67, 0
1, 88160, Note_on_c, 0, 75, 42
1, 88160, Note_on_c, 0, 46, 28
1, 88280, Tempo, 301508
1, 88320, Note_on_c, 0, 46, 0
1, 88320, Note_on_c, 0, 75, 0
1, 88320, Note_on_c, 0, 82, 65
1, 88320, Note_on_c, 0, 39, 39
1, 88400, Tempo, 300722
1, 88480, Note_on_c, 0, 39, 0
1, 88480, Note_on_c, 0, 82, 0
1, 88480, Note_on_c, 0, 70, 48
1, 88480, Note_on_c, 0, 58, 29
1, 88520, Tempo, 299925
1, 88640, Tempo, 299133
1, 88640, Note_on_c, 0, 58, 0
1, 88640, Note_on_c, 0, 70, 0
1, 88640, Note_on_c, 0, 79, 50
1, 88640, Note_on_c, 0, 46, 32
1, 88760, Tempo, 298344
1, 88800, Tempo, 295232
1, 88800, Note_on_c, 0, 46, 0
1, 88800, Note_on_c, 0, 79, 0
1, 88800, Note_on_c, 0, 87, 75
1, 88800, Note_on_c, 0, 39, 45
1, 88880, Tempo, 296004
1, 88920, Tempo, 296780
1, 88960, Note_on_c, 0, 39, 0
1, 88960, Note_on_c, 0, 87, 0
1, 88960, Note_on_c, 0, 75, 54
1, 88960, Note_on_c, 0, 58, 35
1, 89000, Tempo, 297560
1, 89120, Tempo, 428571
1, 89120, Note_on_c, 0, 58, 0
1, 89120, Note_on_c, 0, 75, 0
1, 89120, Note_on_c, 0, 82, 58
1, 89120, Note_on_c, 0, 51, 37
1, 89280, Tempo, 313316
1, 89280, Note_on_c, 0, 51, 0
1, 89280, Note_on_c, 0, 82, 0
1, 89280, Note_on_c, 0, 91, 69
1, 89280, Note_on_c, 0, 31, 43
1, 89287, Control_c, 0, 64, 0
1, 89337, Control_c, 0, 64, 127
1, 89440, Tempo, 308483
1, 89440, Note_on_c, 0, 31, 0
1, 89440, Note_on_c, 0, 91, 0
1, 89440, Note_on_c, 0, 74, 54
1, 89440, Note_on_c, 0, 59, 30
1, 89480, Tempo, 309278
1, 89600, Note_on_c, 0, 59, 0
1, 89600, Note_on_c, 0, 74, 0
1, 89600, Note_on_c, 0, 83, 53
1, 89600, Note_on_c, 0, 53, 30
1, 89640, Tempo, 308483
1, 89760, Note_on_c, 0, 53, 0
1, 89760, Note_on_c, 0, 83, 0
1, 89760, Note_on_c, 0, 89, 68
1, 89760, Note_on_c, 0, 43, 45
1, 89800, Tempo, 307692
1, 89920, Tempo, 306905
1, 89920, Note_on_c, 0, 43, 0
1, 89920, Note_on_c, 0, 89, 0
1, 89920, Note_on_c, 0, 74, 55
1, 89920, Note_on_c, 0, 59, 35
1, 90080, Tempo, 306122
1, 90080, Note_on_c, 0, 59, 0
1, 90080, Note_on_c, 0, 74, 0
1, 90080, Note_on_c, 0, 83, 56
1, 90080, Note_on_c, 0, 53, 33
1, 90200, Tempo, 305344
1, 90240, Note_on_c, 0, 53, 0
1, 90240, Note_on_c, 0, 83, 0
1, 90240, Note_on_c, 0, 88, 73
1, 90240, Note_on_c, 0, 44, 45
1, 90254, Control_c, 0, 64, 0
1, 90320, Control_c, 0, 64, 127
1, 90400, Note_on_c, 0, 44, 0
1, 90400, Note_on_c, 0, 88, 0
1, 90400, Note_on_c, 0, 74, 59
1, 90400, Note_on_c, 0, 59, 31
1, 90560, Tempo, 313316
1, 90560, Note_on_c, 0, 59, 0
1, 90560, Note_on_c, 0, 74, 0
1, 90560, Note_on_c, 0, 83, 58
1, 90560, Note_on_c, 0, 52, 30
1, 90720, Tempo, 305344
1, 90720, Note_on_c, 0, 83, 0
1, 90720, Note_on_c, 0, 88, 76
1, 90720, Note_on_c, 0, 45, 45
1, 90730, Control_c, 0, 64, 0
1, 90777, Control_c, 0, 64, 127
1, 90880, Tempo, 305577
1, 90880, Note_on_c, 0, 45, 0
1, 90880, Note_on_c, 0, 88, 0
1, 90880, Note_on_c, 0, 73, 54
1, 90880, Note_on_c, 0, 61, 34
1, 91033, Note_on_c, 0, 52, 0
1, 91040, Tempo, 306404
1, 91040, Note_on_c, 0, 61, 0
1, 91040, Note_on_c, 0, 73, 0
1, 91040, Note_on_c, 0, 81, 51
1, 91040, Note_on_c, 0, 52, 34
1, 91200, Tempo, 307235
1, 91200, Note_on_c, 0, 81, 0
1, 91200, Note_on_c, 0, 87, 70
1, 91200, Note_on_c, 0, 45, 41
1, 91206, Control_c, 0, 64, 0
1, 91267, Control_c, 0, 64, 127
1, 91360, Tempo, 308071
1, 91360, Note_on_c, 0, 45, 0
1, 91360, Note_on_c, 0, 87, 0
1, 91360, Note_on_c, 0, 72, 53
1, 91360, Note_on_c, 0, 60, 32
1, 91520, Tempo, 308912
1, 91520, Note_on_c, 0, 60, 0
1, 91520, Note_on_c, 0, 72, 0
1, 91520, Note_on_c, 0, 52, 0
1, 91520, Note_on_c, 0, 81, 53
1, 91520, Note_on_c, 0, 53, 31
1, 91680, Tempo, 305344
1, 91680, Note_on_c, 0, 81, 0
1, 91680, Note_on_c, 0, 84, 66
1, 91680, Note_on_c, 0, 45, 35
1, 91840, Note_on_c, 0, 45, 0
1, 91840, Note_on_c, 0, 84, 0
1, 91840, Note_on_c, 0, 69, 47
1, 91840, Note_on_c, 0, 63, 29
1, 91940, Tempo, 310881
1, 92000, Note_on_c, 0, 63, 0
1, 92000, Note_on_c, 0, 69, 0
1, 92000, Note_on_c, 0, 53, 0
1, 92000, Note_on_c, 0, 75, 47
1, 92000, Note_on_c, 0, 54, 28
1, 92160, Tempo, 302313
1, 92160, Note_on_c, 0, 75, 0
1, 92160, Note_on_c, 0, 84, 65
1, 92160, Note_on_c, 0, 46, 37
1, 92169, Control_c, 0, 64, 0
1, 92217, Control_c, 0, 64, 127
1, 92320, Tempo, 305577
1, 92320, Note_on_c, 0, 46, 0
1, 92320, Note_on_c, 0, 84, 0
1, 92320, Note_on_c, 0, 69, 48
1, 92320, Note_on_c, 0, 63, 30
1, 92480, Tempo, 306404
1, 92480, Note_on_c, 0, 63, 0
1, 92480, Note_on_c, 0, 69, 0
1, 92480, Note_on_c, 0, 54, 0
1, 92480, Note_on_c, 0, 75, 47
1, 92480, Note_on_c, 0, 54, 30
1, 92640, Tempo, 307235
1, 92640, Note_on_c, 0, 54, 0
1, 92640, Note_on_c, 0, 75, 0
1, 92640, Note_on_c, 0, 82, 60
1, 92640, Note_on_c, 0, 46, 34
1, 92800, Tempo, 308071
1, 92800, Note_on_c, 0, 46, 0
1, 92800, Note_on_c, 0, 82, 0
1, 92800, Note_on_c, 0, 70, 45
1, 92800, Note_on_c, 0, 63, 28
1, 92960, Tempo, 308912
1, 92960, Note_on_c, 0, 63, 0
1, 92960, Note_on_c, 0, 70, 0
1, 92960, Note_on_c, 0, 75, 43
1, 92960, Note_on_c, 0, 55, 28
1, 93120, Tempo, 309757
1, 93120, Note_on_c, 0, 55, 0
1, 93120, Note_on_c, 0, 75, 0
1, 93120, Note_on_c, 0, 74, 55
1, 93120, Note_on_c, 0, 34, 32
1, 93134, Control_c, 0, 64, 0
1, 93200, Control_c, 0, 64, 127
1, 93280, Note_on_c, 0, 34, 0
1, 93280, Note_on_c, 0, 74, 0
1, 93280, Note_on_c, 0, 62, 43
1, 93280, Note_on_c, 0, 56, 27
1, 93440, Tempo, 323922
1, 93440, Note_on_c, 0, 56, 0
1, 93440, Note_on_c, 0, 62, 0
1, 93440, Note_on_c, 0, 70, 39
1, 93440, Note_on_c, 0, 46, 26
1, 93600, Tempo, 308071
1, 93600, Note_on_c, 0, 46, 0
1, 93600, Note_on_c, 0, 70, 0
1, 93600, Note_on_c, 0, 75, 52
1, 93600, Note_on_c, 0, 39, 32
1, 93607, Control_c, 0, 64, 0
1, 93620, Tempo, 301508
1, 93671, Control_c, 0, 64, 127
1, 93700, Tempo, 300722
1, 93740, Tempo, 299925
1, 93760, Note_on_c, 0, 39, 0
1, 93760, Note_on_c, 0, 75, 0
1, 93760, Note_on_c, 0, 63, 40
1, 93760, Note_on_c, 0, 55, 27
1, 93780, Tempo, 299133
1, 93820, Tempo, 298344
1, 93900, Tempo, 297560
1, 93920, Note_on_c, 0, 55, 0
1, 93920, Note_on_c, 0, 63, 0
1, 93920, Note_on_c, 0, 70, 40
1, 93920, Note_on_c, 0, 46, 27
1, 93940, Tempo, 296780
1, 93980, Tempo, 296004
1, 94020, Tempo, 295232
1, 94080, Note_on_c, 0, 46, 0
1, 94080, Note_on_c, 0, 70, 0
1, 94080, Note_on_c, 0, 82, 66
1, 94080, Note_on_c, 0, 39, 45
1, 94100, Tempo, 292940
1, 94180, Tempo, 292184
1, 94240, Tempo, 291432
1, 94240, Note_on_c, 0, 39, 0
1, 94240, Note_on_c, 0, 82, 0
1, 94240, Note_on_c, 0, 63, 45
1, 94240, Note_on_c, 0, 58, 27
1, 94300, Tempo, 290684
1, 94380, Tempo, 289953
1, 94400, Note_on_c, 0, 58, 0
1, 94400, Note_on_c, 0, 63, 0
1, 94400, Note_on_c, 0, 70, 45
1, 94400, Note_on_c, 0, 46, 29
1, 94440, Tempo, 289212
1, 94500, Tempo, 288475
1, 94560, Tempo, 287742
1, 94560, Note_on_c, 0, 46, 0
1, 94560, Note_on_c, 0, 70, 0
1, 94560, Note_on_c, 0, 75, 62
1, 94560, Note_on_c, 0, 39, 39
1, 94620, Tempo, 288475
1, 94680, Tempo, 289212
1, 94720, Note_on_c, 0, 39, 0
1, 94720, Note_on_c, 0, 75, 0
1, 94720, Note_on_c, 0, 63, 44
1, 94720, Note_on_c, 0, 55, 28
1, 94740, Tempo, 289953
1, 94800, Tempo, 290684
1, 94860, Tempo, 291432
1, 94880, Note_on_c, 0, 55, 0
1, 94880, Note_on_c, 0, 63, 0
1, 94880, Note_on_c, 0, 70, 46
1, 94880, Note_on_c, 0, 46, 28
1, 94920, Tempo, 292184
1, 94960, Tempo, 292940
1, 95040, Tempo, 295232
1, 95040, Note_on_c, 0, 46, 0
1, 95040, Note_on_c, 0, 70, 0
1, 95040, Note_on_c, 0, 81, 71
1, 95040, Note_on_c, 0, 39, 48
1, 95047, Control_c, 0, 64, 0
1, 95080, Tempo, 292184
1, 95097, Control_c, 0, 64, 127
1, 95160, Tempo, 291432
1, 95200, Note_on_c, 0, 39, 0
1, 95200, Note_on_c, 0, 81, 0
1, 95200, Note_on_c, 0, 63, 52
1, 95200, Note_on_c, 0, 58, 31
1, 95220, Tempo, 290684
1, 95280, Tempo, 289953
1, 95360, Tempo, 289212
1, 95360, Note_on_c, 0, 58, 0
1, 95360, Note_on_c, 0, 63, 0
1, 95360, Note_on_c, 0, 70, 52
1, 95360, Note_on_c, 0, 46, 31
1, 95420, Tempo, 288475
1, 95480, Tempo, 287742
1, 95520, Note_on_c, 0, 46, 0
1, 95520, Note_on_c, 0, 70, 0
1, 95520, Note_on_c, 0, 75, 67
1, 95520, Note_on_c, 0, 39, 43
1, 95560, Tempo, 288475
1, 95640, Tempo, 289212
1, 95680, Note_on_c, 0, 39, 0
1, 95680, Note_on_c, 0, 75, 0
1, 95680, Note_on_c, 0, 63, 49
1, 95680, Note_on_c, 0, 55, 31
1, 95700, Tempo, 289953
1, 95780, Tempo, 290684
1, 95840, Note_on_c, 0, 55, 0
1, 95840, Note_on_c, 0, 63, 0
1, 95840, Note_on_c, 0, 70, 48
1, 95840, Note_on_c, 0, 46, 30
1, 95860, Tempo, 291432
1, 95920, Tempo, 292184
1, 95980, Tempo, 291432
1, 96000, Note_on_c, 0, 46, 0
1, 96000, Note_on_c, 0, 70, 0
1, 96000, Note_on_c, 0, 80, 75
1, 96000, Note_on_c, 0, 39, 52
1, 96014, Control_c, 0, 64, 0
1, 96080, Tempo, 290684
1, 96080, Control_c, 0, 64, 127
1, 96160, Note_on_c, 0, 39, 0
1, 96160, Note_on_c, 0, 80, 0
1, 96160, Note_on_c, 0, 63, 55
1, 96160, Note_on_c, 0, 58, 31
1, 96180, Tempo, 289953
1, 96280, Tempo, 289212
1, 96320, Note_on_c, 0, 58, 0
1, 96320, Note_on_c, 0, 63, 0
1, 96320, Note_on_c, 0, 70, 52
1, 96320, Note_on_c, 0, 46, 30
1, 96380, Tempo, 288475
1, 96460, Tempo, 287742
1, 96480, Note_on_c, 0, 46, 0
1, 96480, Note_on_c, 0, 70, 0
1, 96480, Note_on_c, 0, 75, 69
1, 96480, Note_on_c, 0, 39, 44
1, 96520, Tempo, 288475
1, 96580, Tempo, 289212
1, 96620, Tempo, 289953
1, 96640, Note_on_c, 0, 39, 0
1, 96640, Note_on_c, 0, 75, 0
1, 96640, Note_on_c, 0, 63, 49
1, 96640, Note_on_c, 0, 55, 32
1, 96680, Tempo, 290684
1, 96740, Tempo, 291432
1, 96780, Tempo, 292184
1, 96800, Note_on_c, 0, 55, 0
1, 96800, Note_on_c, 0, 63, 0
1, 96800, Note_on_c, 0, 70, 49
1, 96800, Note_on_c, 0, 46, 32
1, 96840, Tempo, 292940
1, 96900, Tempo, 293700
1, 96940, Tempo, 294464
1, 96960, Tempo, 295232
1, 96960, Note_on_c, 0, 46, 0
1, 96960, Note_on_c, 0, 70, 0
1, 96960, Note_on_c, 0, 79, 76
1, 96960, Note_on_c, 0, 39, 48
1, 96975, Control_c, 0, 64, 0
1, 96980, Tempo, 295232
1, 97038, Control_c, 0, 64, 127
1, 97040, Tempo, 294464
1, 97100, Tempo, 293700
1, 97120, Note_on_c, 0, 39, 0
1, 97120, Note_on_c, 0, 79, 0
1, 97120, Note_on_c, 0, 63, 52
1, 97120, Note_on_c, 0, 58, 31
1, 97160, Tempo, 292940
1, 97220, Tempo, 292184
1, 97280, Tempo, 291432
1, 97280, Note_on_c, 0, 58, 0
1, 97280, Note_on_c, 0, 63, 0
1, 97280, Note_on_c, 0, 70, 52
1, 97280, Note_on_c, 0, 46, 33
1, 97340, Tempo, 290684
1, 97400, Tempo, 289212
1, 97440, Note_on_c, 0, 46, 0
1, 97440, Note_on_c, 0, 70, 0
1, 97440, Note_on_c, 0, 75, 65
1, 97440, Note_on_c, 0, 39, 44
1, 97460, Tempo, 289953
1, 97520, Tempo, 290684
1, 97580, Tempo, 291432
1, 97600, Note_on_c, 0, 39, 0
1, 97600, Note_on_c, 0, 75, 0
1, 97600, Note_on_c, 0, 63, 49
1, 97600, Note_on_c, 0, 55, 31
1, 97620, Tempo, 292184
1, 97680, Tempo, 292940
1, 97740, Tempo, 293700
1, 97760, Note_on_c, 0, 55, 0
1, 97760, Note_on_c, 0, 63, 0
1, 97760, Note_on_c, 0, 70, 52
1, 97760, Note_on_c, 0, 46, 36
1, 97800, Tempo, 294464
1, 97840, Tempo, 295232
1, 97900, Tempo, 296780
1, 97920, Note_on_c, 0, 46, 0
1, 97920, Note_on_c, 0, 70, 0
1, 97920, Note_on_c, 0, 78, 71
1, 97920, Note_on_c, 0, 39, 52
1, 97928, Control_c, 0, 64, 0
1, 97977, Control_c, 0, 64, 127
1, 97980, Tempo, 296004
1, 98040, Tempo, 295232
1, 98080, Note_on_c, 0, 39, 0
1, 98080, Note_on_c, 0, 78, 0
1, 98080, Note_on_c, 0, 63, 53
1, 98080, Note_on_c, 0, 58, 34
1, 98100, Tempo, 294464
1, 98180, Tempo, 293700
1, 98240, Tempo, 292940
1, 98240, Note_on_c, 0, 58, 0
1, 98240, Note_on_c, 0, 63, 0
1, 98240, Note_on_c, 0, 70, 52
1, 98240, Note_on_c, 0, 46, 33
1, 98300, Tempo, 292184
1, 98360, Tempo, 291432
1, 98400, Tempo, 292184
1, 98400, Note_on_c, 0, 46, 0
1, 98400, Note_on_c, 0, 70, 0
1, 98400, Note_on_c, 0, 75, 64
1, 98400, Note_on_c, 0, 39, 42
1, 98420, Tempo, 292940
1, 98460, Tempo, 293700
1, 98480, Tempo, 294464
1, 98520, Tempo, 295232
1, 98540, Tempo, 296004
1, 98560, Note_on_c, 0, 39, 0
1, 98560, Note_on_c, 0, 75, 0
1, 98560, Note_on_c, 0, 63, 45
1, 98560, Note_on_c, 0, 55, 29
1, 98580, Tempo, 296780
1, 98600, Tempo, 297560
1, 98640, Tempo, 298344
1, 98660, Tempo, 299133
1, 98700, Tempo, 299925
1, 98720, Tempo, 300722
1, 98720, Note_on_c, 0, 55, 0
1, 98720, Note_on_c, 0, 63, 0
1, 98720, Note_on_c, 0, 70, 43
1, 98720, Note_on_c, 0, 46, 29
1, 98760, Tempo, 301508
1, 98780, Tempo, 302313
1, 98820, Tempo, 303122
1, 98840, Tempo, 303936
1, 98880, Note_on_c, 0, 46, 0
1, 98880, Note_on_c, 0, 70, 0
1, 98880, Note_on_c, 0, 79, 63
1, 98880, Note_on_c, 0, 39, 38
1, 98894, Control_c, 0, 64, 0
1, 98960, Control_c, 0, 64, 127
1, 99040, Note_on_c, 0, 39, 0
1, 99040, Note_on_c, 0, 79, 0
1, 99040, Note_on_c, 0, 63, 46
1, 99040, Note_on_c, 0, 58, 29
1, 99200, Note_on_c, 0, 58, 0
1, 99200, Note_on_c, 0, 63, 0
1, 99200, Note_on_c, 0, 70, 41
1, 99200, Note_on_c, 0, 46, 27
1, 99360, Tempo, 314911
1, 99360, Note_on_c, 0, 46, 0
1, 99360, Note_on_c, 0, 70, 0
1, 99360, Note_on_c, 0, 75, 54
1, 99360, Note_on_c, 0, 39, 33
1, 99840, Note_on_c, 0, 39, 0
1, 99840, Note_on_c, 0, 75, 0
1, 100800, Note_on_c, 0, 94, 87
1, 100800, Note_on_c, 0, 99, 102
1, 100800, Note_on_c, 0, 87, 87
1, 100800, Note_on_c, 0, 67, 69
1, 100800, Note_on_c, 0, 70, 73
1, 100800, Note_on_c, 0, 75, 73
1, 100800, Note_on_c, 0, 79, 88
1, 101280, Note_on_c, 0, 79, 0
1, 101280, Note_on_c, 0, 70, 0
1, 101280, Note_on_c, 0, 99, 0
1, 101280, Note_on_c, 0, 87, 0
1, 101280, Note_on_c, 0, 94, 0
1, 101280, Note_on_c, 0, 75, 0
1, 101280, Note_on_c, 0, 67, 0
1, 102240, Note_on_c, 0, 67, 98
1, 102240, Note_on_c, 0, 55, 81
1, 102240, Note_on_c, 0, 58, 81
1, 102240, Note_on_c, 0, 63, 98
1, 102240, Note_on_c, 0, 39, 67
1, 102240, Note_on_c, 0, 46, 67
1, 102240, Note_on_c, 0, 51, 79
1, 103680, Note_on_c, 0, 51, 0
1, 103680, Note_on_c, 0, 39, 0
1, 103680, Note_on_c, 0, 55, 0
1, 103680, Note_on_c, 0, 58, 0
1, 103680, Note_on_c, 0, 67, 0
1, 103680, Note_on_c, 0, 46, 0
1, 103680, Note_on_c, 0, 63, 0
1, 104560, Control_c, 0, 64, 0
1, 104562, Tempo, 333333
1, 105120, Tempo, 353982
1, 105120, End_track
0, 0, End_of_file
