0, 0, Header, 0, 1, 480
1, 0, Start_track
1, 0, Title_t, "Prelude No. 11"
1, 0, Copyright_t, "Copyright © 1997 by Bernd Krueger http://www.piano-midi.de"
1, 0, Text_t, "Frederic Chopin"
1, 0, Text_t, "Vivace"
1, 0, Text_t, "Fertiggestellt am 6.5.97\012"
1, 0, Text_t, "Korrekturen am 27.8.98\012"
1, 0, Text_t, "Anpassungen an Digitalpiano am 26.12.98\012"
1, 0, Text_t, "Update am 14.4.99\012"
1, 0, Text_t, "Normierung: 23.12.2002\012"
1, 0, Text_t, "Update am 14.6.2010\012"
1, 0, Text_t, "Update am 20.2.2014\012"
1, 0, Text_t, "Dauer: 0:33 Minuten\012"
1, 0, SMPTE_offset, 96, 0, 3, 0, 0
1, 0, Time_signature, 6, 3, 12, 8
1, 0, Key_signature, 5, "major"
1, 0, Tempo, 542986
1, 0, Program_c, 0, 0
1, 0, Control_c, 0, 7, 100
1, 0, Control_c, 0, 10, 64
1, 0, Control_c, 0, 91, 127
1, 0, Program_c, 0, 0
1, 0, Control_c, 0, 7, 100
1, 0, Control_c, 0, 10, 64
1, 0, Control_c, 0, 91, 127
1, 0, Control_c, 0, 64, 0
1, 0, Control_c, 0, 91, 127
1, 0, Text_t, "bdca426d104a26ac9dcb070447587523"
1, 4, Note_on_c, 0, 78, 55
1, 134, Control_c, 0, 64, 127
1, 1440, Tempo, 375000
1, 1440, Note_on_c, 0, 77, 48
1, 1444, Note_on_c, 0, 78, 0
1, 1450, Control_c, 0, 64, 0
1, 1680, Note_on_c, 0, 77, 0
1, 1680, Note_on_c, 0, 78, 53
1, 1877, Tempo, 335570
1, 1920, Note_on_c, 0, 78, 0
1, 1920, Note_on_c, 0, 80, 57
1, 1964, Tempo, 334076
1, 2029, Tempo, 332594
1, 2095, Tempo, 331126
1, 2160, Tempo, 329670
1, 2160, Note_on_c, 0, 80, 0
1, 2160, Note_on_c, 0, 78, 55
1, 2226, Tempo, 328228
1, 2313, Tempo, 326797
1, 2378, Tempo, 325380
1, 2400, Note_on_c, 0, 78, 0
1, 2400, Note_on_c, 0, 76, 52
1, 2444, Tempo, 323974
1, 2509, Tempo, 322581
1, 2575, Tempo, 321199
1, 2640, Note_on_c, 0, 76, 0
1, 2640, Note_on_c, 0, 75, 49
1, 2760, Tempo, 424929
1, 2880, Tempo, 361446
1, 2880, Note_on_c, 0, 75, 0
1, 2880, Note_on_c, 0, 64, 39
1, 2880, Note_on_c, 0, 73, 47
1, 2880, Note_on_c, 0, 58, 33
1, 2951, Control_c, 0, 64, 127
1, 3120, Note_on_c, 0, 58, 0
1, 3120, Note_on_c, 0, 73, 0
1, 3120, Note_on_c, 0, 64, 0
1, 3120, Note_on_c, 0, 66, 40
1, 3120, Note_on_c, 0, 54, 31
1, 3240, Note_on_c, 0, 66, 0
1, 3240, Note_on_c, 0, 70, 36
1, 3340, Tempo, 361446
1, 3360, Tempo, 346821
1, 3360, Note_on_c, 0, 70, 0
1, 3360, Note_on_c, 0, 54, 0
1, 3360, Note_on_c, 0, 68, 46
1, 3360, Note_on_c, 0, 49, 34
1, 3400, Tempo, 347826
1, 3420, Tempo, 348837
1, 3460, Tempo, 349854
1, 3480, Tempo, 350877
1, 3500, Tempo, 351906
1, 3540, Tempo, 352941
1, 3560, Tempo, 353982
1, 3580, Tempo, 355030
1, 3600, Note_on_c, 0, 49, 0
1, 3600, Note_on_c, 0, 68, 0
1, 3600, Note_on_c, 0, 66, 42
1, 3600, Note_on_c, 0, 42, 31
1, 3620, Tempo, 356083
1, 3640, Tempo, 357143
1, 3660, Tempo, 358209
1, 3700, Tempo, 359281
1, 3720, Tempo, 360360
1, 3740, Tempo, 361446
1, 3780, Tempo, 362538
1, 3800, Tempo, 363636
1, 3816, Note_on_c, 0, 66, 0
1, 3820, Tempo, 364742
1, 3840, Tempo, 321199
1, 3840, Note_on_c, 0, 42, 0
1, 3840, Note_on_c, 0, 66, 41
1, 3840, Note_on_c, 0, 49, 33
1, 4080, Note_on_c, 0, 49, 0
1, 4080, Note_on_c, 0, 66, 0
1, 4080, Note_on_c, 0, 75, 41
1, 4080, Note_on_c, 0, 54, 33
1, 4320, Tempo, 345821
1, 4320, Note_on_c, 0, 54, 0
1, 4320, Note_on_c, 0, 75, 0
1, 4320, Note_on_c, 0, 64, 39
1, 4320, Note_on_c, 0, 73, 47
1, 4320, Note_on_c, 0, 58, 36
1, 4332, Control_c, 0, 64, 0
1, 4468, Control_c, 0, 64, 127
1, 4560, Note_on_c, 0, 58, 0
1, 4560, Note_on_c, 0, 73, 0
1, 4560, Note_on_c, 0, 64, 0
1, 4560, Note_on_c, 0, 66, 44
1, 4560, Note_on_c, 0, 54, 33
1, 4680, Note_on_c, 0, 66, 0
1, 4680, Note_on_c, 0, 70, 33
1, 4800, Tempo, 325203
1, 4800, Note_on_c, 0, 70, 0
1, 4800, Note_on_c, 0, 54, 0
1, 4800, Note_on_c, 0, 68, 45
1, 4800, Note_on_c, 0, 49, 33
1, 4820, Tempo, 326087
1, 4840, Tempo, 326975
1, 4860, Tempo, 327869
1, 4880, Tempo, 328767
1, 4900, Tempo, 329670
1, 4920, Tempo, 330579
1, 4940, Tempo, 331492
1, 4960, Tempo, 333333
1, 4980, Tempo, 334262
1, 5000, Tempo, 335196
1, 5020, Tempo, 336134
1, 5040, Tempo, 337079
1, 5040, Note_on_c, 0, 49, 0
1, 5040, Note_on_c, 0, 68, 0
1, 5040, Note_on_c, 0, 66, 43
1, 5040, Note_on_c, 0, 42, 33
1, 5060, Tempo, 338028
1, 5080, Tempo, 338983
1, 5100, Tempo, 340909
1, 5120, Tempo, 341880
1, 5140, Tempo, 342857
1, 5160, Tempo, 343840
1, 5180, Tempo, 344828
1, 5200, Tempo, 345821
1, 5220, Tempo, 346821
1, 5240, Tempo, 348837
1, 5256, Note_on_c, 0, 66, 0
1, 5260, Tempo, 360360
1, 5280, Tempo, 324324
1, 5280, Note_on_c, 0, 42, 0
1, 5280, Note_on_c, 0, 66, 43
1, 5280, Note_on_c, 0, 49, 33
1, 5520, Note_on_c, 0, 49, 0
1, 5520, Note_on_c, 0, 66, 0
1, 5520, Note_on_c, 0, 75, 43
1, 5520, Note_on_c, 0, 54, 33
1, 5760, Tempo, 322581
1, 5760, Note_on_c, 0, 54, 0
1, 5760, Note_on_c, 0, 75, 0
1, 5760, Note_on_c, 0, 64, 40
1, 5760, Note_on_c, 0, 73, 48
1, 5760, Note_on_c, 0, 47, 39
1, 5769, Control_c, 0, 64, 0
1, 5780, Tempo, 321716
1, 5804, Tempo, 319829
1, 5880, Control_c, 0, 64, 127
1, 5935, Tempo, 318471
1, 6000, Note_on_c, 0, 47, 0
1, 6000, Note_on_c, 0, 73, 0
1, 6000, Note_on_c, 0, 64, 0
1, 6000, Note_on_c, 0, 66, 52
1, 6000, Note_on_c, 0, 54, 35
1, 6044, Tempo, 317125
1, 6153, Tempo, 315789
1, 6240, Note_on_c, 0, 54, 0
1, 6240, Note_on_c, 0, 66, 0
1, 6240, Note_on_c, 0, 63, 59
1, 6240, Note_on_c, 0, 71, 59
1, 6240, Note_on_c, 0, 47, 43
1, 6284, Tempo, 314465
1, 6393, Tempo, 313152
1, 6480, Note_on_c, 0, 47, 0
1, 6480, Note_on_c, 0, 71, 0
1, 6480, Note_on_c, 0, 63, 0
1, 6480, Note_on_c, 0, 66, 56
1, 6480, Note_on_c, 0, 54, 38
1, 6502, Tempo, 311850
1, 6611, Tempo, 310559
1, 6720, Note_on_c, 0, 54, 0
1, 6720, Note_on_c, 0, 66, 0
1, 6720, Note_on_c, 0, 71, 51
1, 6720, Note_on_c, 0, 75, 60
1, 6720, Note_on_c, 0, 51, 44
1, 6742, Tempo, 309278
1, 6851, Tempo, 308008
1, 6960, Tempo, 306748
1, 6960, Note_on_c, 0, 51, 0
1, 6960, Note_on_c, 0, 75, 0
1, 6960, Note_on_c, 0, 71, 0
1, 6960, Note_on_c, 0, 66, 56
1, 6960, Note_on_c, 0, 59, 40
1, 7069, Tempo, 305499
1, 7080, Tempo, 320000
1, 7200, Tempo, 306122
1, 7200, Note_on_c, 0, 59, 0
1, 7200, Note_on_c, 0, 66, 0
1, 7200, Note_on_c, 0, 71, 45
1, 7200, Note_on_c, 0, 77, 53
1, 7200, Note_on_c, 0, 63, 32
1, 7222, Tempo, 300601
1, 7331, Tempo, 301811
1, 7418, Tempo, 303030
1, 7440, Note_on_c, 0, 63, 0
1, 7440, Note_on_c, 0, 77, 0
1, 7440, Note_on_c, 0, 71, 0
1, 7440, Note_on_c, 0, 66, 47
1, 7440, Note_on_c, 0, 78, 56
1, 7440, Note_on_c, 0, 54, 33
1, 7506, Tempo, 304260
1, 7593, Tempo, 305499
1, 7680, Tempo, 306748
1, 7680, Note_on_c, 0, 54, 0
1, 7680, Note_on_c, 0, 78, 0
1, 7680, Note_on_c, 0, 66, 0
1, 7680, Note_on_c, 0, 80, 62
1, 7680, Note_on_c, 0, 71, 52
1, 7680, Note_on_c, 0, 59, 39
1, 7789, Tempo, 308008
1, 7877, Tempo, 309278
1, 7920, Note_on_c, 0, 59, 0
1, 7920, Note_on_c, 0, 71, 0
1, 7920, Note_on_c, 0, 80, 0
1, 7920, Note_on_c, 0, 66, 48
1, 7920, Note_on_c, 0, 78, 57
1, 7920, Note_on_c, 0, 51, 33
1, 7932, Control_c, 0, 64, 0
1, 7964, Tempo, 310559
1, 8051, Tempo, 311850
1, 8138, Tempo, 313152
1, 8160, Note_on_c, 0, 51, 0
1, 8160, Note_on_c, 0, 78, 0
1, 8160, Note_on_c, 0, 66, 0
1, 8160, Note_on_c, 0, 71, 46
1, 8160, Note_on_c, 0, 76, 55
1, 8160, Note_on_c, 0, 54, 36
1, 8248, Tempo, 314465
1, 8335, Tempo, 315789
1, 8400, Note_on_c, 0, 54, 0
1, 8400, Note_on_c, 0, 76, 0
1, 8400, Note_on_c, 0, 71, 0
1, 8400, Note_on_c, 0, 66, 45
1, 8400, Note_on_c, 0, 75, 53
1, 8400, Note_on_c, 0, 47, 33
1, 8422, Tempo, 317125
1, 8509, Tempo, 318471
1, 8597, Tempo, 319829
1, 8600, Tempo, 320856
1, 8620, Tempo, 297767
1, 8640, Tempo, 338028
1, 8640, Note_on_c, 0, 47, 0
1, 8640, Note_on_c, 0, 75, 0
1, 8640, Note_on_c, 0, 66, 0
1, 8640, Note_on_c, 0, 64, 48
1, 8640, Note_on_c, 0, 73, 57
1, 8640, Note_on_c, 0, 58, 40
1, 8725, Control_c, 0, 64, 127
1, 8880, Note_on_c, 0, 58, 0
1, 8880, Note_on_c, 0, 73, 0
1, 8880, Note_on_c, 0, 64, 0
1, 8880, Note_on_c, 0, 66, 56
1, 8880, Note_on_c, 0, 54, 37
1, 9000, Note_on_c, 0, 66, 0
1, 9000, Note_on_c, 0, 70, 43
1, 9120, Tempo, 324324
1, 9120, Note_on_c, 0, 70, 0
1, 9120, Note_on_c, 0, 54, 0
1, 9120, Note_on_c, 0, 68, 55
1, 9120, Note_on_c, 0, 49, 40
1, 9360, Note_on_c, 0, 49, 0
1, 9360, Note_on_c, 0, 68, 0
1, 9360, Note_on_c, 0, 66, 52
1, 9360, Note_on_c, 0, 42, 36
1, 9576, Note_on_c, 0, 66, 0
1, 9600, Tempo, 318471
1, 9600, Note_on_c, 0, 42, 0
1, 9600, Note_on_c, 0, 66, 52
1, 9600, Note_on_c, 0, 49, 36
1, 9840, Note_on_c, 0, 49, 0
1, 9840, Note_on_c, 0, 66, 0
1, 9840, Note_on_c, 0, 75, 52
1, 9840, Note_on_c, 0, 54, 36
1, 10080, Tempo, 322581
1, 10080, Note_on_c, 0, 54, 0
1, 10080, Note_on_c, 0, 75, 0
1, 10080, Note_on_c, 0, 64, 49
1, 10080, Note_on_c, 0, 73, 58
1, 10080, Note_on_c, 0, 58, 40
1, 10091, Control_c, 0, 64, 0
1, 10193, Control_c, 0, 64, 127
1, 10320, Note_on_c, 0, 58, 0
1, 10320, Note_on_c, 0, 73, 0
1, 10320, Note_on_c, 0, 64, 0
1, 10320, Note_on_c, 0, 66, 55
1, 10320, Note_on_c, 0, 54, 34
1, 10440, Note_on_c, 0, 66, 0
1, 10440, Note_on_c, 0, 70, 41
1, 10560, Note_on_c, 0, 70, 0
1, 10560, Note_on_c, 0, 54, 0
1, 10560, Note_on_c, 0, 68, 52
1, 10560, Note_on_c, 0, 49, 38
1, 10800, Note_on_c, 0, 49, 0
1, 10800, Note_on_c, 0, 68, 0
1, 10800, Note_on_c, 0, 66, 51
1, 10800, Note_on_c, 0, 42, 35
1, 11016, Note_on_c, 0, 66, 0
1, 11040, Tempo, 318471
1, 11040, Note_on_c, 0, 42, 0
1, 11040, Note_on_c, 0, 66, 51
1, 11040, Note_on_c, 0, 49, 38
1, 11280, Note_on_c, 0, 49, 0
1, 11280, Note_on_c, 0, 66, 0
1, 11280, Note_on_c, 0, 75, 51
1, 11280, Note_on_c, 0, 54, 32
1, 11520, Tempo, 322581
1, 11520, Note_on_c, 0, 54, 0
1, 11520, Note_on_c, 0, 75, 0
1, 11520, Note_on_c, 0, 64, 51
1, 11520, Note_on_c, 0, 73, 61
1, 11520, Note_on_c, 0, 47, 41
1, 11536, Control_c, 0, 64, 0
1, 11640, Control_c, 0, 64, 127
1, 11760, Tempo, 322581
1, 11760, Note_on_c, 0, 47, 0
1, 11760, Note_on_c, 0, 73, 0
1, 11760, Note_on_c, 0, 64, 0
1, 11760, Note_on_c, 0, 66, 56
1, 11760, Note_on_c, 0, 54, 37
1, 12000, Tempo, 321716
1, 12000, Note_on_c, 0, 54, 0
1, 12000, Note_on_c, 0, 66, 0
1, 12000, Note_on_c, 0, 63, 54
1, 12000, Note_on_c, 0, 71, 64
1, 12000, Note_on_c, 0, 47, 45
1, 12240, Tempo, 320856
1, 12240, Note_on_c, 0, 47, 0
1, 12240, Note_on_c, 0, 71, 0
1, 12240, Note_on_c, 0, 63, 0
1, 12240, Note_on_c, 0, 66, 59
1, 12240, Note_on_c, 0, 54, 36
1, 12460, Tempo, 320000
1, 12480, Note_on_c, 0, 54, 0
1, 12480, Note_on_c, 0, 66, 0
1, 12480, Note_on_c, 0, 71, 56
1, 12480, Note_on_c, 0, 75, 67
1, 12480, Note_on_c, 0, 51, 48
1, 12700, Tempo, 319149
1, 12720, Note_on_c, 0, 51, 0
1, 12720, Note_on_c, 0, 75, 0
1, 12720, Note_on_c, 0, 71, 0
1, 12720, Note_on_c, 0, 66, 62
1, 12720, Note_on_c, 0, 59, 39
1, 12940, Tempo, 318302
1, 12960, Note_on_c, 0, 59, 0
1, 12960, Note_on_c, 0, 66, 0
1, 12960, Note_on_c, 0, 71, 59
1, 12960, Note_on_c, 0, 78, 70
1, 12960, Note_on_c, 0, 63, 48
1, 13180, Tempo, 317460
1, 13200, Note_on_c, 0, 63, 0
1, 13200, Note_on_c, 0, 78, 0
1, 13200, Note_on_c, 0, 71, 0
1, 13200, Note_on_c, 0, 66, 66
1, 13200, Note_on_c, 0, 54, 39
1, 13216, Control_c, 0, 64, 0
1, 13326, Control_c, 0, 64, 127
1, 13400, Tempo, 316623
1, 13440, Tempo, 319149
1, 13440, Note_on_c, 0, 54, 0
1, 13440, Note_on_c, 0, 66, 0
1, 13440, Note_on_c, 0, 79, 74
1, 13440, Note_on_c, 0, 71, 62
1, 13440, Note_on_c, 0, 61, 52
1, 13680, Note_on_c, 0, 61, 0
1, 13680, Note_on_c, 0, 71, 0
1, 13680, Note_on_c, 0, 79, 0
1, 13680, Note_on_c, 0, 67, 69
1, 13680, Note_on_c, 0, 52, 48
1, 13920, Tempo, 324324
1, 13920, Note_on_c, 0, 52, 0
1, 13920, Note_on_c, 0, 67, 0
1, 13920, Note_on_c, 0, 80, 76
1, 13920, Note_on_c, 0, 71, 64
1, 13920, Note_on_c, 0, 59, 53
1, 13935, Control_c, 0, 64, 0
1, 14069, Control_c, 0, 64, 127
1, 14160, Note_on_c, 0, 59, 0
1, 14160, Note_on_c, 0, 71, 0
1, 14160, Note_on_c, 0, 80, 0
1, 14160, Note_on_c, 0, 68, 70
1, 14160, Note_on_c, 0, 51, 49
1, 14400, Tempo, 310078
1, 14400, Note_on_c, 0, 51, 0
1, 14400, Note_on_c, 0, 68, 0
1, 14400, Note_on_c, 0, 75, 64
1, 14400, Note_on_c, 0, 83, 76
1, 14400, Note_on_c, 0, 44, 54
1, 14414, Control_c, 0, 64, 0
1, 14527, Control_c, 0, 64, 127
1, 14640, Note_on_c, 0, 44, 0
1, 14640, Note_on_c, 0, 83, 0
1, 14640, Note_on_c, 0, 75, 0
1, 14640, Note_on_c, 0, 75, 66
1, 14640, Note_on_c, 0, 51, 47
1, 14760, Note_on_c, 0, 75, 0
1, 14760, Note_on_c, 0, 78, 46
1, 14880, Tempo, 296296
1, 14880, Note_on_c, 0, 78, 0
1, 14880, Note_on_c, 0, 51, 0
1, 14880, Note_on_c, 0, 76, 70
1, 14880, Note_on_c, 0, 63, 54
1, 15120, Note_on_c, 0, 63, 0
1, 15120, Note_on_c, 0, 76, 0
1, 15120, Note_on_c, 0, 75, 66
1, 15120, Note_on_c, 0, 56, 47
1, 15360, Note_on_c, 0, 56, 0
1, 15360, Note_on_c, 0, 75, 0
1, 15360, Note_on_c, 0, 71, 69
1, 15360, Note_on_c, 0, 63, 52
1, 15600, Tempo, 297767
1, 15600, Note_on_c, 0, 63, 0
1, 15600, Note_on_c, 0, 71, 0
1, 15600, Note_on_c, 0, 83, 57
1, 15600, Note_on_c, 0, 80, 48
1, 15600, Note_on_c, 0, 59, 35
1, 15660, Tempo, 298507
1, 15720, Tempo, 305344
1, 15840, Note_on_c, 0, 59, 0
1, 15840, Note_on_c, 0, 80, 0
1, 15840, Note_on_c, 0, 83, 0
1, 15840, Note_on_c, 0, 78, 54
1, 15840, Note_on_c, 0, 82, 64
1, 15840, Note_on_c, 0, 51, 39
1, 15855, Control_c, 0, 64, 0
1, 15939, Control_c, 0, 64, 127
1, 16020, Tempo, 303797
1, 16060, Tempo, 304569
1, 16080, Tempo, 296296
1, 16080, Note_on_c, 0, 51, 0
1, 16080, Note_on_c, 0, 82, 0
1, 16080, Note_on_c, 0, 78, 0
1, 16080, Note_on_c, 0, 75, 65
1, 16080, Note_on_c, 0, 66, 44
1, 16320, Note_on_c, 0, 66, 0
1, 16320, Note_on_c, 0, 75, 0
1, 16320, Note_on_c, 0, 70, 65
1, 16320, Note_on_c, 0, 58, 49
1, 16440, Note_on_c, 0, 70, 0
1, 16440, Note_on_c, 0, 73, 47
1, 16560, Note_on_c, 0, 73, 0
1, 16560, Note_on_c, 0, 58, 0
1, 16560, Note_on_c, 0, 71, 65
1, 16560, Note_on_c, 0, 54, 40
1, 16800, Tempo, 304569
1, 16800, Note_on_c, 0, 54, 0
1, 16800, Note_on_c, 0, 71, 0
1, 16800, Note_on_c, 0, 70, 63
1, 16800, Note_on_c, 0, 63, 47
1, 17040, Note_on_c, 0, 63, 0
1, 17040, Note_on_c, 0, 70, 0
1, 17040, Note_on_c, 0, 78, 57
1, 17040, Note_on_c, 0, 75, 48
1, 17040, Note_on_c, 0, 58, 49
1, 17280, Note_on_c, 0, 58, 0
1, 17280, Note_on_c, 0, 75, 0
1, 17280, Note_on_c, 0, 78, 0
1, 17280, Note_on_c, 0, 71, 60
1, 17280, Note_on_c, 0, 68, 60
1, 17280, Note_on_c, 0, 40, 53
1, 17292, Control_c, 0, 64, 0
1, 17407, Control_c, 0, 64, 127
1, 17520, Tempo, 343840
1, 17520, Note_on_c, 0, 40, 0
1, 17520, Note_on_c, 0, 68, 0
1, 17520, Note_on_c, 0, 64, 58
1, 17520, Note_on_c, 0, 59, 38
1, 17640, Note_on_c, 0, 64, 0
1, 17640, Note_on_c, 0, 68, 48
1, 17760, Note_on_c, 0, 68, 0
1, 17760, Note_on_c, 0, 59, 0
1, 17760, Note_on_c, 0, 66, 63
1, 17760, Note_on_c, 0, 47, 36
1, 18000, Tempo, 356295
1, 18000, Note_on_c, 0, 47, 0
1, 18000, Note_on_c, 0, 66, 0
1, 18000, Note_on_c, 0, 64, 54
1, 18000, Note_on_c, 0, 56, 35
1, 18240, Tempo, 363196
1, 18240, Note_on_c, 0, 56, 0
1, 18240, Note_on_c, 0, 64, 0
1, 18240, Note_on_c, 0, 68, 57
1, 18240, Note_on_c, 0, 59, 37
1, 18460, Tempo, 307692
1, 18480, Tempo, 323974
1, 18480, Note_on_c, 0, 59, 0
1, 18480, Note_on_c, 0, 71, 0
1, 18480, Note_on_c, 0, 73, 59
1, 18480, Note_on_c, 0, 52, 42
1, 18720, Tempo, 326797
1, 18720, Note_on_c, 0, 52, 0
1, 18720, Note_on_c, 0, 73, 0
1, 18720, Note_on_c, 0, 68, 0
1, 18720, Note_on_c, 0, 71, 61
1, 18720, Note_on_c, 0, 75, 61
1, 18720, Note_on_c, 0, 47, 40
1, 18735, Control_c, 0, 64, 0
1, 18764, Tempo, 328228
1, 18786, Tempo, 329670
1, 18823, Control_c, 0, 64, 127
1, 18829, Tempo, 331126
1, 18851, Tempo, 332594
1, 18895, Tempo, 334076
1, 18917, Tempo, 335570
1, 18960, Tempo, 337079
1, 18960, Note_on_c, 0, 47, 0
1, 18960, Note_on_c, 0, 71, 0
1, 18960, Note_on_c, 0, 63, 51
1, 18960, Note_on_c, 0, 53, 40
1, 18982, Tempo, 338600
1, 19026, Tempo, 340136
1, 19048, Tempo, 341686
1, 19091, Tempo, 343249
1, 19113, Tempo, 344828
1, 19157, Tempo, 346420
1, 19178, Tempo, 348028
1, 19200, Note_on_c, 0, 53, 0
1, 19200, Note_on_c, 0, 63, 0
1, 19200, Note_on_c, 0, 66, 51
1, 19200, Note_on_c, 0, 54, 47
1, 19222, Tempo, 349650
1, 19244, Tempo, 351288
1, 19288, Tempo, 352941
1, 19309, Tempo, 354610
1, 19353, Tempo, 356295
1, 19375, Tempo, 357995
1, 19418, Tempo, 359712
1, 19440, Tempo, 361446
1, 19440, Note_on_c, 0, 54, 0
1, 19440, Note_on_c, 0, 66, 0
1, 19440, Note_on_c, 0, 63, 55
1, 19440, Note_on_c, 0, 61, 48
1, 19454, Control_c, 0, 64, 0
1, 19462, Tempo, 363196
1, 19566, Control_c, 0, 64, 127
1, 19680, Note_on_c, 0, 61, 0
1, 19680, Note_on_c, 0, 63, 0
1, 19680, Note_on_c, 0, 66, 51
1, 19680, Note_on_c, 0, 59, 43
1, 19920, Note_on_c, 0, 59, 0
1, 19920, Note_on_c, 0, 66, 0
1, 19920, Note_on_c, 0, 68, 49
1, 19920, Note_on_c, 0, 56, 35
1, 20160, Tempo, 352941
1, 20160, Note_on_c, 0, 56, 0
1, 20160, Note_on_c, 0, 68, 0
1, 20160, Note_on_c, 0, 75, 0
1, 20160, Note_on_c, 0, 64, 48
1, 20160, Note_on_c, 0, 73, 57
1, 20160, Note_on_c, 0, 58, 38
1, 20168, Control_c, 0, 64, 0
1, 20227, Control_c, 0, 64, 127
1, 20400, Note_on_c, 0, 58, 0
1, 20400, Note_on_c, 0, 73, 0
1, 20400, Note_on_c, 0, 64, 0
1, 20400, Note_on_c, 0, 66, 52
1, 20400, Note_on_c, 0, 54, 31
1, 20520, Note_on_c, 0, 66, 0
1, 20520, Note_on_c, 0, 68, 40
1, 20580, Note_on_c, 0, 68, 0
1, 20580, Note_on_c, 0, 70, 40
1, 20640, Note_on_c, 0, 70, 0
1, 20640, Note_on_c, 0, 54, 0
1, 20640, Note_on_c, 0, 68, 50
1, 20640, Note_on_c, 0, 49, 36
1, 20880, Note_on_c, 0, 49, 0
1, 20880, Note_on_c, 0, 68, 0
1, 20880, Note_on_c, 0, 66, 49
1, 20880, Note_on_c, 0, 42, 30
1, 21096, Note_on_c, 0, 66, 0
1, 21120, Tempo, 356295
1, 21120, Note_on_c, 0, 42, 0
1, 21120, Note_on_c, 0, 66, 49
1, 21120, Note_on_c, 0, 49, 34
1, 21360, Note_on_c, 0, 49, 0
1, 21360, Note_on_c, 0, 66, 0
1, 21360, Note_on_c, 0, 75, 49
1, 21360, Note_on_c, 0, 54, 34
1, 21600, Tempo, 351288
1, 21600, Note_on_c, 0, 54, 0
1, 21600, Note_on_c, 0, 75, 0
1, 21600, Note_on_c, 0, 64, 45
1, 21600, Note_on_c, 0, 73, 54
1, 21600, Note_on_c, 0, 58, 36
1, 21612, Control_c, 0, 64, 0
1, 21671, Control_c, 0, 64, 127
1, 21840, Note_on_c, 0, 58, 0
1, 21840, Note_on_c, 0, 73, 0
1, 21840, Note_on_c, 0, 64, 0
1, 21840, Note_on_c, 0, 66, 51
1, 21840, Note_on_c, 0, 54, 33
1, 21960, Note_on_c, 0, 66, 0
1, 21960, Note_on_c, 0, 68, 40
1, 22020, Note_on_c, 0, 68, 0
1, 22020, Note_on_c, 0, 70, 40
1, 22080, Note_on_c, 0, 70, 0
1, 22080, Note_on_c, 0, 54, 0
1, 22080, Note_on_c, 0, 68, 48
1, 22080, Note_on_c, 0, 49, 35
1, 22320, Note_on_c, 0, 49, 0
1, 22320, Note_on_c, 0, 68, 0
1, 22320, Note_on_c, 0, 66, 47
1, 22320, Note_on_c, 0, 42, 31
1, 22536, Note_on_c, 0, 66, 0
1, 22560, Tempo, 361446
1, 22560, Note_on_c, 0, 42, 0
1, 22560, Note_on_c, 0, 66, 47
1, 22560, Note_on_c, 0, 49, 32
1, 22800, Note_on_c, 0, 49, 0
1, 22800, Note_on_c, 0, 66, 0
1, 22800, Note_on_c, 0, 75, 47
1, 22800, Note_on_c, 0, 54, 30
1, 23005, Tempo, 363196
1, 23040, Note_on_c, 0, 54, 0
1, 23040, Note_on_c, 0, 75, 0
1, 23040, Note_on_c, 0, 64, 43
1, 23040, Note_on_c, 0, 73, 51
1, 23040, Note_on_c, 0, 35, 35
1, 23052, Control_c, 0, 64, 0
1, 23136, Tempo, 361446
1, 23227, Control_c, 0, 64, 127
1, 23245, Tempo, 359712
1, 23280, Note_on_c, 0, 35, 0
1, 23280, Note_on_c, 0, 73, 0
1, 23280, Note_on_c, 0, 64, 0
1, 23280, Note_on_c, 0, 66, 45
1, 23280, Note_on_c, 0, 42, 32
1, 23354, Tempo, 357995
1, 23485, Tempo, 356295
1, 23520, Note_on_c, 0, 42, 0
1, 23520, Note_on_c, 0, 66, 0
1, 23520, Note_on_c, 0, 63, 44
1, 23520, Note_on_c, 0, 71, 52
1, 23520, Note_on_c, 0, 47, 36
1, 23594, Tempo, 354610
1, 23703, Tempo, 352941
1, 23760, Note_on_c, 0, 47, 0
1, 23760, Note_on_c, 0, 71, 0
1, 23760, Note_on_c, 0, 63, 0
1, 23760, Note_on_c, 0, 66, 47
1, 23760, Note_on_c, 0, 54, 31
1, 23834, Tempo, 351288
1, 23943, Tempo, 349650
1, 24000, Note_on_c, 0, 54, 0
1, 24000, Note_on_c, 0, 66, 0
1, 24000, Note_on_c, 0, 71, 44
1, 24000, Note_on_c, 0, 75, 52
1, 24000, Note_on_c, 0, 51, 37
1, 24053, Tempo, 348028
1, 24060, Tempo, 345821
1, 24200, Tempo, 344828
1, 24240, Tempo, 377834
1, 24240, Note_on_c, 0, 51, 0
1, 24240, Note_on_c, 0, 75, 0
1, 24240, Note_on_c, 0, 71, 0
1, 24240, Note_on_c, 0, 66, 48
1, 24240, Note_on_c, 0, 59, 33
1, 24458, Tempo, 348028
1, 24480, Note_on_c, 0, 59, 0
1, 24480, Note_on_c, 0, 66, 0
1, 24480, Note_on_c, 0, 71, 44
1, 24480, Note_on_c, 0, 77, 44
1, 24480, Note_on_c, 0, 62, 27
1, 24492, Control_c, 0, 64, 0
1, 24524, Tempo, 349650
1, 24568, Tempo, 351288
1, 24611, Tempo, 352941
1, 24617, Control_c, 0, 64, 127
1, 24677, Tempo, 354610
1, 24720, Tempo, 356295
1, 24720, Note_on_c, 0, 62, 0
1, 24720, Note_on_c, 0, 77, 0
1, 24720, Note_on_c, 0, 71, 0
1, 24720, Note_on_c, 0, 66, 34
1, 24720, Note_on_c, 0, 78, 40
1, 24720, Note_on_c, 0, 63, 27
1, 24764, Tempo, 357995
1, 24829, Tempo, 359712
1, 24873, Tempo, 361446
1, 24917, Tempo, 363196
1, 24960, Note_on_c, 0, 63, 0
1, 24960, Note_on_c, 0, 78, 0
1, 24960, Note_on_c, 0, 66, 0
1, 24960, Note_on_c, 0, 71, 37
1, 24960, Note_on_c, 0, 80, 44
1, 24960, Note_on_c, 0, 64, 29
1, 24982, Tempo, 364964
1, 25026, Tempo, 366748
1, 25069, Tempo, 368550
1, 25135, Tempo, 370370
1, 25178, Tempo, 372208
1, 25200, Note_on_c, 0, 64, 0
1, 25200, Note_on_c, 0, 80, 0
1, 25200, Note_on_c, 0, 71, 0
1, 25200, Note_on_c, 0, 66, 34
1, 25200, Note_on_c, 0, 78, 40
1, 25200, Note_on_c, 0, 63, 27
1, 25214, Control_c, 0, 64, 0
1, 25222, Tempo, 374065
1, 25288, Tempo, 375940
1, 25331, Tempo, 377834
1, 25375, Tempo, 379747
1, 25418, Tempo, 381679
1, 25440, Tempo, 387097
1, 25440, Note_on_c, 0, 63, 0
1, 25440, Note_on_c, 0, 78, 0
1, 25440, Note_on_c, 0, 66, 0
1, 25440, Note_on_c, 0, 71, 32
1, 25440, Note_on_c, 0, 76, 38
1, 25440, Note_on_c, 0, 61, 30
1, 25680, Note_on_c, 0, 61, 0
1, 25680, Note_on_c, 0, 76, 0
1, 25680, Note_on_c, 0, 71, 0
1, 25680, Note_on_c, 0, 66, 32
1, 25680, Note_on_c, 0, 75, 38
1, 25680, Note_on_c, 0, 59, 29
1, 25920, Tempo, 379435
1, 25920, Note_on_c, 0, 59, 0
1, 25920, Note_on_c, 0, 75, 0
1, 25920, Note_on_c, 0, 66, 0
1, 25920, Note_on_c, 0, 64, 39
1, 25920, Note_on_c, 0, 73, 46
1, 25920, Note_on_c, 0, 58, 36
1, 25980, Control_c, 0, 64, 127
1, 26160, Note_on_c, 0, 58, 0
1, 26160, Note_on_c, 0, 73, 0
1, 26160, Note_on_c, 0, 64, 0
1, 26160, Note_on_c, 0, 66, 47
1, 26280, Note_on_c, 0, 66, 0
1, 26280, Note_on_c, 0, 68, 32
1, 26340, Note_on_c, 0, 68, 0
1, 26340, Note_on_c, 0, 70, 32
1, 26400, Note_on_c, 0, 70, 0
1, 26400, Note_on_c, 0, 68, 44
1, 26400, Note_on_c, 0, 49, 30
1, 26640, Note_on_c, 0, 49, 0
1, 26640, Note_on_c, 0, 68, 0
1, 26640, Note_on_c, 0, 66, 44
1, 26640, Note_on_c, 0, 42, 30
1, 26856, Note_on_c, 0, 66, 0
1, 26880, Tempo, 372671
1, 26880, Note_on_c, 0, 42, 0
1, 26880, Note_on_c, 0, 66, 44
1, 26880, Note_on_c, 0, 49, 30
1, 27120, Note_on_c, 0, 49, 0
1, 27120, Note_on_c, 0, 66, 0
1, 27120, Note_on_c, 0, 75, 44
1, 27120, Note_on_c, 0, 54, 30
1, 27360, Tempo, 379747
1, 27360, Note_on_c, 0, 54, 0
1, 27360, Note_on_c, 0, 75, 0
1, 27360, Note_on_c, 0, 64, 42
1, 27360, Note_on_c, 0, 73, 50
1, 27360, Note_on_c, 0, 58, 35
1, 27367, Control_c, 0, 64, 0
1, 27406, Control_c, 0, 64, 127
1, 27600, Note_on_c, 0, 58, 0
1, 27600, Note_on_c, 0, 73, 0
1, 27600, Note_on_c, 0, 64, 0
1, 27600, Note_on_c, 0, 66, 47
1, 27600, Note_on_c, 0, 54, 29
1, 27720, Note_on_c, 0, 66, 0
1, 27720, Note_on_c, 0, 68, 31
1, 27780, Note_on_c, 0, 68, 0
1, 27780, Note_on_c, 0, 70, 31
1, 27840, Note_on_c, 0, 70, 0
1, 27840, Note_on_c, 0, 54, 0
1, 27840, Note_on_c, 0, 68, 43
1, 27840, Note_on_c, 0, 49, 34
1, 28080, Tempo, 379747
1, 28080, Note_on_c, 0, 49, 0
1, 28080, Note_on_c, 0, 68, 0
1, 28080, Note_on_c, 0, 66, 43
1, 28080, Note_on_c, 0, 42, 31
1, 28095, Control_c, 0, 64, 0
1, 28120, Tempo, 380952
1, 28140, Tempo, 382166
1, 28168, Control_c, 0, 64, 127
1, 28180, Tempo, 383387
1, 28200, Tempo, 384615
1, 28220, Tempo, 385852
1, 28260, Tempo, 387097
1, 28280, Tempo, 388350
1, 28296, Note_on_c, 0, 66, 0
1, 28300, Tempo, 389610
1, 28320, Note_on_c, 0, 42, 0
1, 28320, Note_on_c, 0, 66, 43
1, 28320, Note_on_c, 0, 49, 31
1, 28340, Tempo, 390879
1, 28360, Tempo, 392157
1, 28380, Tempo, 393443
1, 28420, Tempo, 394737
1, 28440, Tempo, 396040
1, 28460, Tempo, 397351
1, 28500, Tempo, 398671
1, 28520, Tempo, 400000
1, 28540, Tempo, 401338
1, 28560, Tempo, 500000
1, 28560, Note_on_c, 0, 49, 0
1, 28560, Note_on_c, 0, 66, 0
1, 28560, Note_on_c, 0, 78, 43
1, 28560, Note_on_c, 0, 58, 34
1, 28740, Note_on_c, 0, 63, 50
1, 28800, Tempo, 431655
1, 28800, Note_on_c, 0, 58, 0
1, 28800, Note_on_c, 0, 78, 0
1, 28800, Note_on_c, 0, 78, 53
1, 28800, Note_on_c, 0, 47, 33
1, 28800, Note_on_c, 0, 54, 33
1, 28810, Control_c, 0, 64, 0
1, 29014, Control_c, 0, 64, 127
1, 30240, Tempo, 409556
1, 30240, Note_on_c, 0, 54, 0
1, 30240, Note_on_c, 0, 63, 0
1, 30240, Note_on_c, 0, 78, 0
1, 30240, Note_on_c, 0, 47, 0
1, 30240, Note_on_c, 0, 77, 58
1, 30240, Control_c, 0, 64, 0
1, 30400, Tempo, 410959
1, 30480, Note_on_c, 0, 77, 0
1, 30480, Note_on_c, 0, 78, 60
1, 30540, Tempo, 412371
1, 30700, Tempo, 413793
1, 30720, Note_on_c, 0, 78, 0
1, 30720, Note_on_c, 0, 80, 63
1, 30840, Tempo, 415225
1, 30960, Note_on_c, 0, 80, 0
1, 30960, Note_on_c, 0, 78, 60
1, 30980, Tempo, 416667
1, 31140, Tempo, 418118
1, 31200, Tempo, 382166
1, 31200, Note_on_c, 0, 78, 0
1, 31200, Note_on_c, 0, 76, 58
1, 31440, Note_on_c, 0, 76, 0
1, 31440, Note_on_c, 0, 75, 54
1, 31680, Tempo, 418118
1, 31680, Note_on_c, 0, 75, 0
1, 31680, Note_on_c, 0, 75, 51
1, 32400, Tempo, 368550
1, 32400, Note_on_c, 0, 75, 0
1, 32400, Note_on_c, 0, 67, 38
1, 32400, Note_on_c, 0, 74, 45
1, 32400, Note_on_c, 0, 58, 32
1, 32400, Note_on_c, 0, 51, 27
1, 32640, Tempo, 377834
1, 32640, Note_on_c, 0, 74, 0
1, 32640, Note_on_c, 0, 67, 0
1, 32640, Note_on_c, 0, 75, 50
1, 32880, Note_on_c, 0, 75, 0
1, 32880, Note_on_c, 0, 76, 50
1, 33120, Tempo, 368550
1, 33120, Note_on_c, 0, 76, 0
1, 33120, Note_on_c, 0, 58, 0
1, 33120, Note_on_c, 0, 51, 0
1, 33120, Note_on_c, 0, 68, 37
1, 33120, Note_on_c, 0, 75, 44
1, 33120, Note_on_c, 0, 56, 29
1, 33120, Note_on_c, 0, 59, 35
1, 33360, Tempo, 375940
1, 33360, Note_on_c, 0, 75, 0
1, 33360, Note_on_c, 0, 73, 51
1, 33600, Tempo, 422535
1, 33600, Note_on_c, 0, 73, 0
1, 33600, Note_on_c, 0, 71, 49
1, 33840, Tempo, 418118
1, 33840, Note_on_c, 0, 71, 0
1, 33840, Note_on_c, 0, 68, 0
1, 33840, Note_on_c, 0, 56, 0
1, 33840, Note_on_c, 0, 59, 0
1, 33840, Note_on_c, 0, 75, 46
1, 33840, Note_on_c, 0, 64, 39
1, 33840, Note_on_c, 0, 54, 29
1, 33840, Note_on_c, 0, 58, 35
1, 34080, Note_on_c, 0, 75, 0
1, 34080, Note_on_c, 0, 73, 52
1, 34320, Tempo, 445104
1, 34320, Note_on_c, 0, 73, 0
1, 34320, Note_on_c, 0, 71, 49
1, 34560, Tempo, 415512
1, 34560, Note_on_c, 0, 71, 0
1, 34560, Note_on_c, 0, 64, 0
1, 34560, Note_on_c, 0, 54, 0
1, 34560, Note_on_c, 0, 58, 0
1, 34560, Note_on_c, 0, 63, 39
1, 34560, Note_on_c, 0, 71, 46
1, 34560, Note_on_c, 0, 54, 32
1, 34560, Note_on_c, 0, 47, 27
1, 34867, Control_c, 0, 64, 127
1, 36000, Tempo, 418118
1, 36000, Note_on_c, 0, 47, 0
1, 36000, Note_on_c, 0, 63, 0
1, 36000, Note_on_c, 0, 71, 0
1, 36000, Note_on_c, 0, 54, 0
1, 36000, Note_on_c, 0, 63, 32
1, 36000, Note_on_c, 0, 66, 38
1, 36000, Note_on_c, 0, 35, 22
1, 36000, Note_on_c, 0, 47, 26
1, 36000, Note_on_c, 0, 54, 26
1, 36720, Tempo, 545455
1, 36720, Note_on_c, 0, 47, 0
1, 36720, Note_on_c, 0, 35, 0
1, 36720, Note_on_c, 0, 42, 26
1, 36720, Note_on_c, 0, 30, 22
1, 37440, Note_on_c, 0, 30, 0
1, 37440, Note_on_c, 0, 63, 0
1, 37440, Note_on_c, 0, 54, 0
1, 37440, Note_on_c, 0, 66, 0
1, 37440, Note_on_c, 0, 42, 0
1, 37440, Note_on_c, 0, 63, 38
1, 37440, Note_on_c, 0, 59, 26
1, 37440, Note_on_c, 0, 47, 22
1, 37440, Note_on_c, 0, 35, 22
1, 37440, Note_on_c, 0, 54, 26
1, 37450, Control_c, 0, 64, 0
1, 37654, Control_c, 0, 64, 127
1, 38880, Note_on_c, 0, 54, 0
1, 38880, Note_on_c, 0, 47, 0
1, 38880, Note_on_c, 0, 63, 0
1, 38880, Note_on_c, 0, 59, 0
1, 38880, Note_on_c, 0, 35, 0
1, 38880, Control_c, 0, 64, 0
1, 38880, End_track
0, 0, End_of_file
