0, 0, Header, 0, 1, 480
1, 0, Start_track
1, 0, Title_t, "Chopin Prelude  No. 15, Opus 28"
1, 0, Copyright_t, "Copyright © 2002 by Bernd Krueger "
1, 0, Text_t, "Frederic Chopin"
1, 0, Text_t, "Sostenuto"
1, 0, Text_t, "Fertiggestellt am  28.09.2002\012"
1, 0, Text_t, "Normierung: 23.12.2002\012"
1, 0, Text_t, "Update am 20.7.2003\012"
1, 0, Text_t, "Update am 20.6.2010\012"
1, 0, Text_t, "Update am 21.2.2014\012"
1, 0, Text_t, "Dauer:4:36 Minuten\012"
1, 0, SMPTE_offset, 96, 0, 3, 0, 0
1, 0, Time_signature, 4, 2, 24, 8
1, 0, Key_signature, -5, "major"
1, 0, Tempo, 806235
1, 0, Marker_t, "Thema"
1, 0, Program_c, 0, 0
1, 0, Control_c, 0, 7, 100
1, 0, Control_c, 0, 10, 64
1, 0, Note_on_c, 0, 77, 49
1, 0, Control_c, 0, 64, 0
1, 0, Text_t, "bdca426d104a26ac9dcb070447587523"
1, 0, Control_c, 0, 91, 127
1, 0, Program_c, 0, 0
1, 0, Control_c, 0, 7, 100
1, 0, Control_c, 0, 10, 64
1, 0, Note_on_c, 0, 49, 35
1, 0, Control_c, 0, 7, 127
1, 0, Control_c, 0, 10, 64
1, 0, Control_c, 0, 7, 127
1, 0, Control_c, 0, 10, 64
1, 71, Control_c, 0, 64, 127
1, 240, Note_on_c, 0, 49, 0
1, 240, Note_on_c, 0, 56, 24
1, 360, Tempo, 838457
1, 360, Note_on_c, 0, 77, 0
1, 360, Note_on_c, 0, 73, 44
1, 480, Note_on_c, 0, 73, 0
1, 480, Note_on_c, 0, 56, 0
1, 480, Note_on_c, 0, 68, 47
1, 480, Note_on_c, 0, 65, 22
1, 480, Note_on_c, 0, 61, 17
1, 487, Control_c, 0, 64, 0
1, 558, Control_c, 0, 64, 127
1, 720, Tempo, 759494
1, 720, Note_on_c, 0, 56, 21
1, 948, Note_on_c, 0, 56, 0
1, 960, Tempo, 745342
1, 960, Note_on_c, 0, 56, 23
1, 1188, Note_on_c, 0, 56, 0
1, 1200, Tempo, 731707
1, 1200, Note_on_c, 0, 56, 19
1, 1428, Note_on_c, 0, 56, 0
1, 1440, Tempo, 771605
1, 1440, Note_on_c, 0, 68, 0
1, 1440, Note_on_c, 0, 65, 0
1, 1440, Note_on_c, 0, 61, 0
1, 1440, Note_on_c, 0, 70, 50
1, 1440, Note_on_c, 0, 65, 27
1, 1440, Note_on_c, 0, 61, 21
1, 1455, Control_c, 0, 64, 0
1, 1553, Control_c, 0, 64, 127
1, 1680, Tempo, 811359
1, 1680, Note_on_c, 0, 61, 0
1, 1680, Note_on_c, 0, 65, 0
1, 1680, Note_on_c, 0, 56, 24
1, 1920, Note_on_c, 0, 56, 0
1, 1920, Note_on_c, 0, 70, 0
1, 1920, Note_on_c, 0, 72, 49
1, 1920, Note_on_c, 0, 66, 35
1, 1920, Note_on_c, 0, 63, 35
1, 1928, Control_c, 0, 64, 0
1, 2076, Control_c, 0, 64, 127
1, 2160, Tempo, 781148
1, 2160, Note_on_c, 0, 56, 26
1, 2388, Note_on_c, 0, 56, 0
1, 2400, Tempo, 766871
1, 2400, Note_on_c, 0, 56, 28
1, 2628, Note_on_c, 0, 56, 0
1, 2640, Tempo, 736196
1, 2640, Note_on_c, 0, 56, 32
1, 2868, Note_on_c, 0, 56, 0
1, 2880, Tempo, 745342
1, 2880, Note_on_c, 0, 58, 35
1, 2889, Control_c, 0, 64, 0
1, 3120, Note_on_c, 0, 58, 0
1, 3120, Note_on_c, 0, 56, 32
1, 3360, Tempo, 806235
1, 3360, Note_on_c, 0, 56, 0
1, 3360, Note_on_c, 0, 72, 0
1, 3360, Note_on_c, 0, 66, 0
1, 3360, Note_on_c, 0, 63, 0
1, 3360, Note_on_c, 0, 73, 51
1, 3360, Note_on_c, 0, 65, 35
1, 3360, Note_on_c, 0, 61, 35
1, 3474, Control_c, 0, 64, 127
1, 3600, Tempo, 822030
1, 3600, Note_on_c, 0, 61, 0
1, 3600, Note_on_c, 0, 65, 0
1, 3600, Note_on_c, 0, 56, 31
1, 3840, Tempo, 795967
1, 3840, Note_on_c, 0, 56, 0
1, 3840, Note_on_c, 0, 73, 0
1, 3840, Note_on_c, 0, 66, 45
1, 3840, Note_on_c, 0, 75, 54
1, 3840, Note_on_c, 0, 60, 45
1, 3849, Control_c, 0, 64, 0
1, 3946, Control_c, 0, 64, 127
1, 4080, Note_on_c, 0, 56, 32
1, 4200, Tempo, 822030
1, 4200, Note_on_c, 0, 75, 0
1, 4200, Note_on_c, 0, 66, 0
1, 4200, Note_on_c, 0, 68, 47
1, 4200, Note_on_c, 0, 77, 56
1, 4320, Note_on_c, 0, 77, 0
1, 4320, Note_on_c, 0, 68, 0
1, 4320, Note_on_c, 0, 78, 57
1, 4320, Note_on_c, 0, 70, 49
1, 4335, Control_c, 0, 64, 0
1, 4468, Control_c, 0, 64, 127
1, 4560, Tempo, 786061
1, 4560, Note_on_c, 0, 56, 0
1, 4560, Note_on_c, 0, 56, 35
1, 4788, Note_on_c, 0, 56, 0
1, 4800, Tempo, 769231
1, 4800, Note_on_c, 0, 56, 32
1, 5028, Note_on_c, 0, 56, 0
1, 5040, Tempo, 740741
1, 5040, Note_on_c, 0, 56, 32
1, 5280, Tempo, 795967
1, 5280, Note_on_c, 0, 60, 0
1, 5280, Note_on_c, 0, 70, 0
1, 5280, Note_on_c, 0, 78, 0
1, 5280, Note_on_c, 0, 61, 44
1, 5280, Note_on_c, 0, 68, 44
1, 5280, Note_on_c, 0, 77, 53
1, 5286, Control_c, 0, 64, 0
1, 5393, Control_c, 0, 64, 127
1, 5520, Tempo, 827358
1, 5520, Note_on_c, 0, 68, 0
1, 5520, Note_on_c, 0, 56, 0
1, 5520, Note_on_c, 0, 61, 0
1, 5520, Note_on_c, 0, 56, 29
1, 5760, Tempo, 801068
1, 5760, Note_on_c, 0, 56, 0
1, 5760, Note_on_c, 0, 77, 0
1, 5760, Note_on_c, 0, 68, 44
1, 5760, Note_on_c, 0, 77, 53
1, 5760, Note_on_c, 0, 60, 42
1, 5769, Control_c, 0, 64, 0
1, 5800, Tempo, 776297
1, 5929, Control_c, 0, 64, 127
1, 6000, Tempo, 771605
1, 6000, Note_on_c, 0, 68, 0
1, 6000, Note_on_c, 0, 56, 26
1, 6240, Note_on_c, 0, 56, 0
1, 6240, Note_on_c, 0, 66, 34
1, 6255, Control_c, 0, 64, 0
1, 6332, Control_c, 0, 64, 127
1, 6480, Tempo, 801068
1, 6480, Note_on_c, 0, 66, 0
1, 6480, Note_on_c, 0, 77, 0
1, 6480, Note_on_c, 0, 75, 49
1, 6480, Note_on_c, 0, 56, 27
1, 6720, Note_on_c, 0, 56, 0
1, 6720, Note_on_c, 0, 75, 0
1, 6720, Note_on_c, 0, 60, 0
1, 6720, Note_on_c, 0, 73, 46
1, 6720, Note_on_c, 0, 65, 31
1, 6720, Note_on_c, 0, 61, 26
1, 6734, Control_c, 0, 64, 0
1, 6791, Control_c, 0, 64, 127
1, 6960, Tempo, 822030
1, 6960, Note_on_c, 0, 61, 0
1, 6960, Note_on_c, 0, 65, 0
1, 6960, Note_on_c, 0, 56, 27
1, 6964, Control_c, 0, 64, 0
1, 7140, Note_on_c, 0, 73, 0
1, 7140, Note_on_c, 0, 75, 45
1, 7200, Tempo, 904841
1, 7200, Note_on_c, 0, 75, 0
1, 7200, Note_on_c, 0, 56, 0
1, 7200, Note_on_c, 0, 75, 51
1, 7200, Note_on_c, 0, 66, 32
1, 7200, Note_on_c, 0, 60, 27
1, 7240, Tempo, 898338
1, 7268, Note_on_c, 0, 75, 0
1, 7268, Note_on_c, 0, 77, 46
1, 7280, Tempo, 891928
1, 7300, Tempo, 885740
1, 7336, Note_on_c, 0, 77, 0
1, 7336, Note_on_c, 0, 75, 46
1, 7340, Tempo, 879507
1, 7380, Tempo, 873362
1, 7400, Tempo, 867303
1, 7404, Note_on_c, 0, 75, 0
1, 7404, Note_on_c, 0, 74, 51
1, 7420, Tempo, 882353
1, 7440, Tempo, 895522
1, 7440, Note_on_c, 0, 60, 0
1, 7440, Note_on_c, 0, 66, 0
1, 7440, Note_on_c, 0, 56, 31
1, 7460, Tempo, 909091
1, 7472, Note_on_c, 0, 74, 0
1, 7472, Note_on_c, 0, 75, 46
1, 7480, Tempo, 923077
1, 7500, Tempo, 937500
1, 7520, Tempo, 952381
1, 7540, Tempo, 975610
1, 7540, Note_on_c, 0, 75, 0
1, 7540, Note_on_c, 0, 77, 46
1, 7560, Tempo, 991736
1, 7580, Tempo, 1008403
1, 7600, Tempo, 1025641
1, 7608, Note_on_c, 0, 77, 0
1, 7608, Note_on_c, 0, 78, 46
1, 7620, Tempo, 1043478
1, 7640, Tempo, 1061947
1, 7660, Tempo, 1090909
1, 7680, Tempo, 827586
1, 7680, Note_on_c, 0, 78, 0
1, 7680, Note_on_c, 0, 56, 0
1, 7680, Note_on_c, 0, 77, 49
1, 7680, Note_on_c, 0, 49, 35
1, 7683, Control_c, 0, 64, 0
1, 7779, Control_c, 0, 64, 127
1, 7920, Note_on_c, 0, 49, 0
1, 7920, Note_on_c, 0, 56, 30
1, 8040, Tempo, 838457
1, 8040, Note_on_c, 0, 77, 0
1, 8040, Note_on_c, 0, 73, 44
1, 8160, Note_on_c, 0, 73, 0
1, 8160, Note_on_c, 0, 56, 0
1, 8160, Note_on_c, 0, 68, 46
1, 8160, Note_on_c, 0, 65, 22
1, 8160, Note_on_c, 0, 61, 18
1, 8175, Control_c, 0, 64, 0
1, 8294, Control_c, 0, 64, 127
1, 8400, Tempo, 771605
1, 8400, Note_on_c, 0, 56, 21
1, 8628, Note_on_c, 0, 56, 0
1, 8640, Tempo, 757576
1, 8640, Note_on_c, 0, 56, 24
1, 8868, Note_on_c, 0, 56, 0
1, 8880, Tempo, 744140
1, 8880, Note_on_c, 0, 56, 21
1, 9108, Note_on_c, 0, 56, 0
1, 9120, Tempo, 771605
1, 9120, Note_on_c, 0, 68, 0
1, 9120, Note_on_c, 0, 70, 50
1, 9120, Note_on_c, 0, 56, 32
1, 9135, Control_c, 0, 64, 0
1, 9233, Control_c, 0, 64, 127
1, 9348, Note_on_c, 0, 56, 0
1, 9360, Tempo, 811359
1, 9360, Note_on_c, 0, 56, 28
1, 9588, Note_on_c, 0, 56, 0
1, 9600, Note_on_c, 0, 70, 0
1, 9600, Note_on_c, 0, 61, 0
1, 9600, Note_on_c, 0, 65, 0
1, 9600, Note_on_c, 0, 72, 49
1, 9600, Note_on_c, 0, 66, 35
1, 9600, Note_on_c, 0, 63, 35
1, 9605, Control_c, 0, 64, 0
1, 9798, Control_c, 0, 64, 127
1, 9840, Tempo, 766871
1, 9840, Note_on_c, 0, 56, 31
1, 10068, Note_on_c, 0, 56, 0
1, 10080, Note_on_c, 0, 56, 29
1, 10308, Note_on_c, 0, 56, 0
1, 10320, Tempo, 748596
1, 10320, Note_on_c, 0, 56, 32
1, 10548, Note_on_c, 0, 56, 0
1, 10560, Tempo, 762195
1, 10560, Note_on_c, 0, 58, 35
1, 10569, Control_c, 0, 64, 0
1, 10800, Note_on_c, 0, 58, 0
1, 10800, Note_on_c, 0, 56, 32
1, 11040, Tempo, 806235
1, 11040, Note_on_c, 0, 56, 0
1, 11040, Note_on_c, 0, 72, 0
1, 11040, Note_on_c, 0, 66, 0
1, 11040, Note_on_c, 0, 63, 0
1, 11040, Note_on_c, 0, 73, 51
1, 11040, Note_on_c, 0, 65, 35
1, 11040, Note_on_c, 0, 61, 35
1, 11154, Control_c, 0, 64, 127
1, 11280, Tempo, 822030
1, 11280, Note_on_c, 0, 61, 0
1, 11280, Note_on_c, 0, 65, 0
1, 11280, Note_on_c, 0, 56, 31
1, 11520, Tempo, 795967
1, 11520, Note_on_c, 0, 56, 0
1, 11520, Note_on_c, 0, 73, 0
1, 11520, Note_on_c, 0, 66, 45
1, 11520, Note_on_c, 0, 75, 54
1, 11520, Note_on_c, 0, 60, 45
1, 11526, Control_c, 0, 64, 0
1, 11626, Control_c, 0, 64, 127
1, 11760, Note_on_c, 0, 56, 32
1, 11880, Tempo, 822030
1, 11880, Note_on_c, 0, 75, 0
1, 11880, Note_on_c, 0, 66, 0
1, 11880, Note_on_c, 0, 68, 47
1, 11880, Note_on_c, 0, 77, 56
1, 12000, Note_on_c, 0, 77, 0
1, 12000, Note_on_c, 0, 68, 0
1, 12000, Note_on_c, 0, 78, 57
1, 12000, Note_on_c, 0, 70, 49
1, 12011, Control_c, 0, 64, 0
1, 12148, Control_c, 0, 64, 127
1, 12240, Tempo, 750000
1, 12240, Note_on_c, 0, 56, 0
1, 12240, Note_on_c, 0, 56, 35
1, 12468, Note_on_c, 0, 56, 0
1, 12480, Tempo, 740741
1, 12480, Note_on_c, 0, 56, 32
1, 12708, Note_on_c, 0, 56, 0
1, 12720, Tempo, 781148
1, 12720, Note_on_c, 0, 56, 32
1, 12960, Tempo, 795967
1, 12960, Note_on_c, 0, 60, 0
1, 12960, Note_on_c, 0, 70, 0
1, 12960, Note_on_c, 0, 78, 0
1, 12960, Note_on_c, 0, 61, 40
1, 12960, Note_on_c, 0, 68, 44
1, 12960, Note_on_c, 0, 77, 53
1, 12974, Control_c, 0, 64, 0
1, 13094, Control_c, 0, 64, 127
1, 13200, Tempo, 827358
1, 13200, Note_on_c, 0, 68, 0
1, 13200, Note_on_c, 0, 56, 0
1, 13200, Note_on_c, 0, 61, 0
1, 13200, Note_on_c, 0, 56, 29
1, 13440, Tempo, 776297
1, 13440, Note_on_c, 0, 56, 0
1, 13440, Note_on_c, 0, 77, 0
1, 13440, Note_on_c, 0, 68, 44
1, 13440, Note_on_c, 0, 77, 53
1, 13440, Note_on_c, 0, 60, 44
1, 13440, Control_c, 0, 64, 0
1, 13609, Control_c, 0, 64, 127
1, 13680, Tempo, 771605
1, 13680, Note_on_c, 0, 68, 0
1, 13680, Note_on_c, 0, 56, 31
1, 13920, Note_on_c, 0, 56, 0
1, 13920, Note_on_c, 0, 66, 34
1, 13935, Control_c, 0, 64, 0
1, 14118, Control_c, 0, 64, 127
1, 14160, Tempo, 801068
1, 14160, Note_on_c, 0, 66, 0
1, 14160, Note_on_c, 0, 77, 0
1, 14160, Note_on_c, 0, 75, 49
1, 14160, Note_on_c, 0, 56, 31
1, 14400, Note_on_c, 0, 56, 0
1, 14400, Note_on_c, 0, 75, 0
1, 14400, Note_on_c, 0, 60, 0
1, 14400, Note_on_c, 0, 73, 46
1, 14400, Note_on_c, 0, 65, 35
1, 14400, Note_on_c, 0, 61, 29
1, 14415, Control_c, 0, 64, 0
1, 14541, Control_c, 0, 64, 127
1, 14640, Tempo, 790931
1, 14640, Note_on_c, 0, 61, 0
1, 14640, Note_on_c, 0, 65, 0
1, 14640, Note_on_c, 0, 56, 24
1, 14880, Tempo, 801068
1, 14880, Note_on_c, 0, 56, 0
1, 14880, Note_on_c, 0, 73, 0
1, 14880, Note_on_c, 0, 72, 51
1, 14880, Note_on_c, 0, 65, 33
1, 14880, Note_on_c, 0, 61, 27
1, 14885, Control_c, 0, 64, 0
1, 15120, Tempo, 838457
1, 15120, Note_on_c, 0, 61, 0
1, 15120, Note_on_c, 0, 65, 0
1, 15120, Note_on_c, 0, 72, 0
1, 15120, Note_on_c, 0, 73, 49
1, 15120, Note_on_c, 0, 56, 30
1, 15360, Tempo, 801068
1, 15360, Note_on_c, 0, 56, 0
1, 15360, Note_on_c, 0, 73, 0
1, 15360, Note_on_c, 0, 75, 54
1, 15360, Note_on_c, 0, 44, 39
1, 15429, Control_c, 0, 64, 127
1, 15600, Tempo, 776297
1, 15600, Note_on_c, 0, 44, 0
1, 15600, Note_on_c, 0, 56, 32
1, 15840, Tempo, 738007
1, 15840, Note_on_c, 0, 56, 0
1, 15840, Note_on_c, 0, 75, 0
1, 15840, Note_on_c, 0, 75, 54
1, 15840, Note_on_c, 0, 63, 30
1, 15840, Note_on_c, 0, 60, 30
1, 16080, Tempo, 776297
1, 16080, Note_on_c, 0, 60, 0
1, 16080, Note_on_c, 0, 63, 0
1, 16080, Note_on_c, 0, 56, 25
1, 16320, Note_on_c, 0, 56, 0
1, 16320, Note_on_c, 0, 59, 30
1, 16320, Note_on_c, 0, 63, 30
1, 16335, Control_c, 0, 64, 0
1, 16469, Control_c, 0, 64, 127
1, 16560, Tempo, 801068
1, 16560, Note_on_c, 0, 63, 0
1, 16560, Note_on_c, 0, 59, 0
1, 16560, Note_on_c, 0, 56, 32
1, 16800, Tempo, 790931
1, 16800, Note_on_c, 0, 56, 0
1, 16800, Note_on_c, 0, 75, 0
1, 16800, Note_on_c, 0, 77, 54
1, 16800, Note_on_c, 0, 49, 31
1, 16800, Note_on_c, 0, 59, 36
1, 16800, Note_on_c, 0, 65, 36
1, 16809, Control_c, 0, 64, 0
1, 16949, Control_c, 0, 64, 127
1, 17040, Tempo, 795967
1, 17040, Note_on_c, 0, 65, 0
1, 17040, Note_on_c, 0, 59, 0
1, 17040, Note_on_c, 0, 49, 0
1, 17040, Note_on_c, 0, 61, 33
1, 17280, Tempo, 730816
1, 17280, Note_on_c, 0, 61, 0
1, 17280, Note_on_c, 0, 77, 0
1, 17280, Note_on_c, 0, 78, 57
1, 17280, Note_on_c, 0, 54, 33
1, 17280, Note_on_c, 0, 58, 39
1, 17289, Control_c, 0, 64, 0
1, 17450, Control_c, 0, 64, 127
1, 17520, Tempo, 771605
1, 17520, Note_on_c, 0, 58, 0
1, 17520, Note_on_c, 0, 54, 0
1, 17520, Note_on_c, 0, 78, 0
1, 17520, Note_on_c, 0, 77, 53
1, 17520, Note_on_c, 0, 61, 33
1, 17760, Tempo, 786061
1, 17760, Note_on_c, 0, 61, 0
1, 17760, Note_on_c, 0, 77, 0
1, 17760, Note_on_c, 0, 75, 53
1, 17760, Note_on_c, 0, 58, 26
1, 17760, Note_on_c, 0, 66, 31
1, 17769, Control_c, 0, 64, 0
1, 17887, Control_c, 0, 64, 127
1, 18000, Tempo, 821918
1, 18000, Note_on_c, 0, 66, 0
1, 18000, Note_on_c, 0, 58, 0
1, 18000, Note_on_c, 0, 75, 0
1, 18000, Note_on_c, 0, 73, 53
1, 18000, Note_on_c, 0, 61, 25
1, 18240, Note_on_c, 0, 61, 0
1, 18240, Note_on_c, 0, 73, 0
1, 18240, Note_on_c, 0, 77, 55
1, 18240, Note_on_c, 0, 49, 36
1, 18249, Control_c, 0, 64, 0
1, 18410, Control_c, 0, 64, 127
1, 18480, Tempo, 784314
1, 18480, Note_on_c, 0, 49, 0
1, 18480, Note_on_c, 0, 56, 32
1, 18680, Tempo, 776297
1, 18720, Tempo, 805369
1, 18720, Note_on_c, 0, 56, 0
1, 18720, Note_on_c, 0, 65, 34
1, 18720, Note_on_c, 0, 61, 27
1, 18960, Tempo, 833333
1, 18960, Note_on_c, 0, 61, 0
1, 18960, Note_on_c, 0, 65, 0
1, 18960, Note_on_c, 0, 56, 27
1, 19200, Tempo, 789474
1, 19200, Note_on_c, 0, 56, 0
1, 19200, Note_on_c, 0, 77, 0
1, 19200, Note_on_c, 0, 75, 57
1, 19200, Note_on_c, 0, 51, 39
1, 19214, Control_c, 0, 64, 0
1, 19299, Control_c, 0, 64, 127
1, 19440, Tempo, 736196
1, 19440, Note_on_c, 0, 51, 0
1, 19440, Note_on_c, 0, 75, 0
1, 19440, Note_on_c, 0, 71, 51
1, 19440, Note_on_c, 0, 56, 30
1, 19680, Tempo, 748596
1, 19680, Note_on_c, 0, 56, 0
1, 19680, Note_on_c, 0, 71, 0
1, 19680, Note_on_c, 0, 70, 54
1, 19680, Note_on_c, 0, 63, 31
1, 19680, Note_on_c, 0, 59, 31
1, 19690, Control_c, 0, 64, 0
1, 19736, Control_c, 0, 64, 127
1, 19920, Note_on_c, 0, 59, 0
1, 19920, Note_on_c, 0, 63, 0
1, 19920, Note_on_c, 0, 70, 0
1, 19920, Note_on_c, 0, 68, 54
1, 19920, Note_on_c, 0, 56, 31
1, 20160, Note_on_c, 0, 56, 0
1, 20160, Note_on_c, 0, 68, 0
1, 20160, Note_on_c, 0, 70, 59
1, 20160, Note_on_c, 0, 51, 39
1, 20168, Control_c, 0, 64, 0
1, 20224, Control_c, 0, 64, 127
1, 20400, Tempo, 776297
1, 20400, Note_on_c, 0, 51, 0
1, 20400, Note_on_c, 0, 55, 34
1, 20520, Tempo, 849738
1, 20520, Note_on_c, 0, 71, 51
1, 20560, Note_on_c, 0, 71, 0
1, 20560, Note_on_c, 0, 70, 51
1, 20580, Note_on_c, 0, 70, 0
1, 20600, Note_on_c, 0, 70, 0
1, 20600, Note_on_c, 0, 68, 51
1, 20640, Tempo, 781148
1, 20640, Note_on_c, 0, 68, 0
1, 20640, Note_on_c, 0, 55, 0
1, 20640, Note_on_c, 0, 70, 54
1, 20640, Note_on_c, 0, 63, 34
1, 20640, Note_on_c, 0, 61, 27
1, 20650, Control_c, 0, 64, 0
1, 20713, Control_c, 0, 64, 127
1, 20880, Tempo, 816660
1, 20880, Note_on_c, 0, 61, 0
1, 20880, Note_on_c, 0, 63, 0
1, 20880, Note_on_c, 0, 55, 29
1, 21000, Note_on_c, 0, 70, 0
1, 21000, Note_on_c, 0, 71, 47
1, 21120, Tempo, 786061
1, 21120, Note_on_c, 0, 71, 0
1, 21120, Note_on_c, 0, 55, 0
1, 21120, Note_on_c, 0, 68, 51
1, 21120, Note_on_c, 0, 44, 39
1, 21129, Control_c, 0, 64, 0
1, 21234, Control_c, 0, 64, 127
1, 21360, Tempo, 806235
1, 21360, Note_on_c, 0, 44, 0
1, 21360, Note_on_c, 0, 56, 30
1, 21600, Tempo, 771605
1, 21600, Note_on_c, 0, 56, 0
1, 21600, Note_on_c, 0, 68, 0
1, 21600, Note_on_c, 0, 75, 62
1, 21600, Note_on_c, 0, 63, 37
1, 21600, Note_on_c, 0, 59, 32
1, 21640, Tempo, 753107
1, 21840, Tempo, 776297
1, 21840, Note_on_c, 0, 59, 0
1, 21840, Note_on_c, 0, 63, 0
1, 21840, Note_on_c, 0, 56, 31
1, 22080, Tempo, 766871
1, 22080, Note_on_c, 0, 56, 0
1, 22080, Note_on_c, 0, 75, 0
1, 22080, Note_on_c, 0, 73, 65
1, 22080, Note_on_c, 0, 61, 36
1, 22080, Note_on_c, 0, 58, 30
1, 22088, Control_c, 0, 64, 0
1, 22229, Control_c, 0, 64, 127
1, 22320, Note_on_c, 0, 58, 0
1, 22320, Note_on_c, 0, 61, 0
1, 22320, Note_on_c, 0, 56, 29
1, 22560, Note_on_c, 0, 56, 0
1, 22560, Note_on_c, 0, 73, 0
1, 22560, Note_on_c, 0, 76, 59
1, 22560, Note_on_c, 0, 64, 36
1, 22560, Note_on_c, 0, 61, 30
1, 22571, Control_c, 0, 64, 0
1, 22709, Control_c, 0, 64, 127
1, 22800, Tempo, 806235
1, 22800, Note_on_c, 0, 61, 0
1, 22800, Note_on_c, 0, 64, 0
1, 22800, Note_on_c, 0, 56, 34
1, 23040, Note_on_c, 0, 56, 0
1, 23040, Note_on_c, 0, 76, 0
1, 23040, Note_on_c, 0, 75, 63
1, 23040, Note_on_c, 0, 44, 43
1, 23044, Control_c, 0, 64, 0
1, 23211, Control_c, 0, 64, 127
1, 23280, Note_on_c, 0, 44, 0
1, 23280, Note_on_c, 0, 56, 37
1, 23520, Tempo, 806235
1, 23520, Note_on_c, 0, 56, 0
1, 23520, Note_on_c, 0, 75, 0
1, 23520, Note_on_c, 0, 75, 56
1, 23520, Note_on_c, 0, 63, 37
1, 23520, Note_on_c, 0, 59, 32
1, 23760, Tempo, 757576
1, 23760, Note_on_c, 0, 56, 39
1, 23988, Note_on_c, 0, 56, 0
1, 24000, Note_on_c, 0, 56, 43
1, 24228, Note_on_c, 0, 56, 0
1, 24240, Tempo, 730816
1, 24240, Note_on_c, 0, 56, 40
1, 24468, Note_on_c, 0, 56, 0
1, 24480, Tempo, 795967
1, 24480, Note_on_c, 0, 75, 0
1, 24480, Note_on_c, 0, 63, 0
1, 24480, Note_on_c, 0, 59, 0
1, 24480, Note_on_c, 0, 77, 57
1, 24480, Note_on_c, 0, 65, 46
1, 24480, Note_on_c, 0, 59, 39
1, 24495, Control_c, 0, 64, 0
1, 24692, Control_c, 0, 64, 127
1, 24720, Tempo, 832871
1, 24720, Note_on_c, 0, 59, 0
1, 24720, Note_on_c, 0, 65, 0
1, 24720, Note_on_c, 0, 56, 44
1, 24960, Tempo, 730816
1, 24960, Note_on_c, 0, 56, 0
1, 24960, Note_on_c, 0, 77, 0
1, 24960, Note_on_c, 0, 78, 63
1, 24960, Note_on_c, 0, 51, 50
1, 24966, Control_c, 0, 64, 0
1, 25087, Control_c, 0, 64, 127
1, 25200, Tempo, 766871
1, 25200, Note_on_c, 0, 51, 0
1, 25200, Note_on_c, 0, 78, 0
1, 25200, Note_on_c, 0, 77, 54
1, 25200, Note_on_c, 0, 54, 36
1, 25440, Tempo, 801068
1, 25440, Note_on_c, 0, 54, 0
1, 25440, Note_on_c, 0, 77, 0
1, 25440, Note_on_c, 0, 75, 54
1, 25440, Note_on_c, 0, 66, 43
1, 25440, Note_on_c, 0, 58, 36
1, 25450, Control_c, 0, 64, 0
1, 25567, Control_c, 0, 64, 127
1, 25680, Tempo, 838457
1, 25680, Note_on_c, 0, 58, 0
1, 25680, Note_on_c, 0, 66, 0
1, 25680, Note_on_c, 0, 75, 0
1, 25680, Note_on_c, 0, 73, 54
1, 25680, Note_on_c, 0, 54, 32
1, 25920, Tempo, 811359
1, 25920, Note_on_c, 0, 54, 0
1, 25920, Note_on_c, 0, 73, 0
1, 25920, Note_on_c, 0, 77, 51
1, 25920, Note_on_c, 0, 46, 47
1, 25935, Control_c, 0, 64, 0
1, 26132, Control_c, 0, 64, 127
1, 26160, Tempo, 771605
1, 26160, Note_on_c, 0, 46, 0
1, 26160, Note_on_c, 0, 53, 36
1, 26400, Note_on_c, 0, 53, 0
1, 26400, Note_on_c, 0, 65, 36
1, 26400, Note_on_c, 0, 61, 30
1, 26400, Note_on_c, 0, 58, 30
1, 26640, Tempo, 795967
1, 26640, Note_on_c, 0, 58, 0
1, 26640, Note_on_c, 0, 61, 0
1, 26640, Note_on_c, 0, 65, 0
1, 26640, Note_on_c, 0, 53, 31
1, 26880, Tempo, 753107
1, 26880, Note_on_c, 0, 53, 0
1, 26880, Note_on_c, 0, 41, 43
1, 26891, Control_c, 0, 64, 0
1, 26938, Control_c, 0, 64, 127
1, 27120, Tempo, 766871
1, 27120, Note_on_c, 0, 41, 0
1, 27120, Note_on_c, 0, 77, 0
1, 27120, Note_on_c, 0, 73, 54
1, 27120, Note_on_c, 0, 53, 35
1, 27360, Tempo, 786061
1, 27360, Note_on_c, 0, 53, 0
1, 27360, Note_on_c, 0, 73, 0
1, 27360, Note_on_c, 0, 72, 54
1, 27360, Note_on_c, 0, 65, 36
1, 27360, Note_on_c, 0, 61, 30
1, 27360, Note_on_c, 0, 58, 30
1, 27375, Control_c, 0, 64, 0
1, 27459, Control_c, 0, 64, 127
1, 27600, Note_on_c, 0, 58, 0
1, 27600, Note_on_c, 0, 72, 0
1, 27600, Note_on_c, 0, 65, 0
1, 27600, Note_on_c, 0, 61, 0
1, 27600, Note_on_c, 0, 70, 54
1, 27600, Note_on_c, 0, 53, 29
1, 27840, Tempo, 786061
1, 27840, Note_on_c, 0, 53, 0
1, 27840, Note_on_c, 0, 70, 0
1, 27840, Note_on_c, 0, 72, 59
1, 27840, Note_on_c, 0, 41, 43
1, 27848, Control_c, 0, 64, 0
1, 27914, Control_c, 0, 64, 127
1, 28080, Note_on_c, 0, 41, 0
1, 28080, Note_on_c, 0, 53, 33
1, 28200, Tempo, 867303
1, 28200, Note_on_c, 0, 73, 52
1, 28240, Note_on_c, 0, 73, 0
1, 28240, Note_on_c, 0, 72, 52
1, 28260, Note_on_c, 0, 72, 0
1, 28280, Note_on_c, 0, 72, 0
1, 28280, Note_on_c, 0, 70, 53
1, 28320, Tempo, 801068
1, 28320, Note_on_c, 0, 70, 0
1, 28320, Note_on_c, 0, 53, 0
1, 28320, Note_on_c, 0, 72, 55
1, 28320, Note_on_c, 0, 65, 37
1, 28320, Note_on_c, 0, 63, 29
1, 28320, Note_on_c, 0, 57, 27
1, 28330, Control_c, 0, 64, 0
1, 28386, Control_c, 0, 64, 127
1, 28560, Note_on_c, 0, 57, 0
1, 28560, Note_on_c, 0, 72, 0
1, 28560, Note_on_c, 0, 65, 0
1, 28560, Note_on_c, 0, 63, 0
1, 28560, Note_on_c, 0, 73, 51
1, 28560, Note_on_c, 0, 53, 30
1, 28800, Tempo, 786061
1, 28800, Note_on_c, 0, 53, 0
1, 28800, Note_on_c, 0, 73, 0
1, 28800, Note_on_c, 0, 70, 51
1, 28800, Note_on_c, 0, 46, 43
1, 28808, Control_c, 0, 64, 0
1, 28956, Control_c, 0, 64, 127
1, 29040, Tempo, 811359
1, 29040, Note_on_c, 0, 46, 0
1, 29040, Note_on_c, 0, 53, 37
1, 29280, Tempo, 762195
1, 29280, Note_on_c, 0, 53, 0
1, 29280, Note_on_c, 0, 70, 0
1, 29280, Note_on_c, 0, 77, 59
1, 29280, Note_on_c, 0, 65, 44
1, 29280, Note_on_c, 0, 61, 36
1, 29291, Control_c, 0, 64, 0
1, 29435, Control_c, 0, 64, 127
1, 29520, Note_on_c, 0, 61, 0
1, 29520, Note_on_c, 0, 65, 0
1, 29520, Note_on_c, 0, 53, 39
1, 29760, Tempo, 771605
1, 29760, Note_on_c, 0, 53, 0
1, 29760, Note_on_c, 0, 77, 0
1, 29760, Note_on_c, 0, 75, 59
1, 29760, Note_on_c, 0, 63, 43
1, 29760, Note_on_c, 0, 60, 36
1, 29772, Control_c, 0, 64, 0
1, 29915, Control_c, 0, 64, 127
1, 30000, Tempo, 790931
1, 30000, Note_on_c, 0, 60, 0
1, 30000, Note_on_c, 0, 63, 0
1, 30000, Note_on_c, 0, 53, 37
1, 30040, Tempo, 806235
1, 30240, Tempo, 790931
1, 30240, Note_on_c, 0, 53, 0
1, 30240, Note_on_c, 0, 75, 0
1, 30240, Note_on_c, 0, 78, 63
1, 30240, Note_on_c, 0, 66, 43
1, 30240, Note_on_c, 0, 63, 36
1, 30250, Control_c, 0, 64, 0
1, 30353, Control_c, 0, 64, 127
1, 30480, Tempo, 827358
1, 30480, Note_on_c, 0, 63, 0
1, 30480, Note_on_c, 0, 66, 0
1, 30480, Note_on_c, 0, 53, 36
1, 30720, Tempo, 744140
1, 30720, Note_on_c, 0, 53, 0
1, 30720, Note_on_c, 0, 78, 0
1, 30720, Note_on_c, 0, 77, 57
1, 30720, Note_on_c, 0, 65, 43
1, 30720, Note_on_c, 0, 61, 36
1, 30728, Control_c, 0, 64, 0
1, 30764, Control_c, 0, 64, 127
1, 30960, Tempo, 762195
1, 30960, Note_on_c, 0, 61, 0
1, 30960, Note_on_c, 0, 65, 0
1, 30960, Note_on_c, 0, 77, 0
1, 30960, Note_on_c, 0, 73, 53
1, 30960, Note_on_c, 0, 53, 34
1, 31200, Tempo, 766871
1, 31200, Note_on_c, 0, 53, 0
1, 31200, Note_on_c, 0, 73, 0
1, 31200, Note_on_c, 0, 72, 53
1, 31200, Note_on_c, 0, 65, 36
1, 31200, Note_on_c, 0, 61, 25
1, 31200, Note_on_c, 0, 58, 25
1, 31216, Control_c, 0, 64, 0
1, 31271, Control_c, 0, 64, 127
1, 31440, Tempo, 811359
1, 31440, Note_on_c, 0, 58, 0
1, 31440, Note_on_c, 0, 72, 0
1, 31440, Note_on_c, 0, 65, 0
1, 31440, Note_on_c, 0, 61, 0
1, 31440, Note_on_c, 0, 70, 53
1, 31440, Note_on_c, 0, 53, 31
1, 31680, Tempo, 771605
1, 31680, Note_on_c, 0, 53, 0
1, 31680, Note_on_c, 0, 70, 0
1, 31680, Note_on_c, 0, 72, 59
1, 31680, Note_on_c, 0, 63, 43
1, 31680, Note_on_c, 0, 57, 36
1, 31695, Control_c, 0, 64, 0
1, 31779, Control_c, 0, 64, 127
1, 31920, Tempo, 790931
1, 31920, Note_on_c, 0, 57, 0
1, 31920, Note_on_c, 0, 63, 0
1, 31920, Note_on_c, 0, 53, 37
1, 32040, Tempo, 867303
1, 32040, Note_on_c, 0, 73, 55
1, 32080, Note_on_c, 0, 73, 0
1, 32080, Note_on_c, 0, 72, 55
1, 32100, Note_on_c, 0, 72, 0
1, 32120, Note_on_c, 0, 72, 0
1, 32120, Note_on_c, 0, 70, 55
1, 32160, Tempo, 790931
1, 32160, Note_on_c, 0, 70, 0
1, 32160, Note_on_c, 0, 53, 0
1, 32160, Note_on_c, 0, 72, 55
1, 32160, Note_on_c, 0, 63, 30
1, 32160, Note_on_c, 0, 65, 37
1, 32174, Control_c, 0, 64, 0
1, 32273, Control_c, 0, 64, 127
1, 32400, Note_on_c, 0, 65, 0
1, 32400, Note_on_c, 0, 63, 0
1, 32400, Note_on_c, 0, 53, 39
1, 32520, Note_on_c, 0, 72, 0
1, 32520, Note_on_c, 0, 73, 51
1, 32640, Tempo, 776297
1, 32640, Note_on_c, 0, 73, 0
1, 32640, Note_on_c, 0, 53, 0
1, 32640, Note_on_c, 0, 70, 51
1, 32640, Note_on_c, 0, 46, 43
1, 32649, Control_c, 0, 64, 0
1, 32796, Control_c, 0, 64, 127
1, 32880, Tempo, 806235
1, 32880, Note_on_c, 0, 46, 0
1, 32880, Note_on_c, 0, 53, 37
1, 33120, Tempo, 776297
1, 33120, Note_on_c, 0, 53, 0
1, 33120, Note_on_c, 0, 70, 0
1, 33120, Note_on_c, 0, 75, 62
1, 33120, Note_on_c, 0, 63, 45
1, 33120, Note_on_c, 0, 60, 37
1, 33135, Control_c, 0, 64, 0
1, 33261, Control_c, 0, 64, 127
1, 33360, Note_on_c, 0, 60, 0
1, 33360, Note_on_c, 0, 63, 0
1, 33360, Note_on_c, 0, 53, 39
1, 33600, Tempo, 790931
1, 33600, Note_on_c, 0, 53, 0
1, 33600, Note_on_c, 0, 75, 0
1, 33600, Note_on_c, 0, 77, 65
1, 33600, Note_on_c, 0, 65, 50
1, 33600, Note_on_c, 0, 61, 41
1, 33614, Control_c, 0, 64, 0
1, 33727, Control_c, 0, 64, 127
1, 33840, Tempo, 816660
1, 33840, Note_on_c, 0, 61, 0
1, 33840, Note_on_c, 0, 65, 0
1, 33840, Note_on_c, 0, 53, 43
1, 34080, Tempo, 795967
1, 34080, Note_on_c, 0, 53, 0
1, 34080, Note_on_c, 0, 77, 0
1, 34080, Note_on_c, 0, 75, 62
1, 34080, Note_on_c, 0, 63, 51
1, 34080, Note_on_c, 0, 60, 43
1, 34088, Control_c, 0, 64, 0
1, 34207, Control_c, 0, 64, 127
1, 34320, Tempo, 822030
1, 34320, Note_on_c, 0, 60, 0
1, 34320, Note_on_c, 0, 63, 0
1, 34320, Note_on_c, 0, 53, 43
1, 34560, Tempo, 801068
1, 34560, Note_on_c, 0, 53, 0
1, 34560, Note_on_c, 0, 75, 0
1, 34560, Note_on_c, 0, 77, 66
1, 34560, Note_on_c, 0, 65, 53
1, 34560, Note_on_c, 0, 61, 44
1, 34569, Control_c, 0, 64, 0
1, 34673, Control_c, 0, 64, 127
1, 34800, Note_on_c, 0, 53, 39
1, 35000, Tempo, 800000
1, 35040, Note_on_c, 0, 53, 0
1, 35040, Note_on_c, 0, 53, 39
1, 35120, Tempo, 805369
1, 35240, Tempo, 810811
1, 35280, Note_on_c, 0, 53, 0
1, 35280, Note_on_c, 0, 53, 39
1, 35360, Tempo, 816327
1, 35480, Tempo, 821918
1, 35520, Tempo, 839161
1, 35520, Note_on_c, 0, 53, 0
1, 35520, Note_on_c, 0, 61, 0
1, 35520, Note_on_c, 0, 65, 0
1, 35520, Note_on_c, 0, 65, 43
1, 35520, Note_on_c, 0, 61, 35
1, 35534, Control_c, 0, 64, 0
1, 35619, Control_c, 0, 64, 127
1, 35760, Tempo, 888889
1, 35760, Note_on_c, 0, 61, 0
1, 35760, Note_on_c, 0, 65, 0
1, 35760, Note_on_c, 0, 54, 36
1, 36000, Tempo, 923077
1, 36000, Note_on_c, 0, 77, 0
1, 36000, Note_on_c, 0, 75, 51
1, 36000, Note_on_c, 0, 63, 37
1, 36000, Note_on_c, 0, 60, 32
1, 36012, Control_c, 0, 64, 0
1, 36113, Control_c, 0, 64, 127
1, 36240, Tempo, 1047120
1, 36240, Note_on_c, 0, 60, 0
1, 36240, Note_on_c, 0, 63, 0
1, 36240, Note_on_c, 0, 54, 0
1, 36240, Note_on_c, 0, 56, 27
1, 36480, Tempo, 806235
1, 36480, Note_on_c, 0, 56, 0
1, 36480, Note_on_c, 0, 75, 0
1, 36480, Note_on_c, 0, 77, 49
1, 36480, Note_on_c, 0, 49, 35
1, 36491, Control_c, 0, 64, 0
1, 36586, Control_c, 0, 64, 127
1, 36720, Note_on_c, 0, 49, 0
1, 36720, Note_on_c, 0, 56, 30
1, 36840, Tempo, 838457
1, 36840, Note_on_c, 0, 77, 0
1, 36840, Note_on_c, 0, 73, 45
1, 36960, Note_on_c, 0, 73, 0
1, 36960, Note_on_c, 0, 56, 0
1, 36960, Note_on_c, 0, 68, 49
1, 36960, Note_on_c, 0, 65, 27
1, 36960, Note_on_c, 0, 61, 17
1, 36967, Control_c, 0, 64, 0
1, 37038, Control_c, 0, 64, 127
1, 37200, Tempo, 776297
1, 37200, Note_on_c, 0, 56, 23
1, 37440, Tempo, 738007
1, 37440, Note_on_c, 0, 56, 0
1, 37440, Note_on_c, 0, 56, 23
1, 37680, Tempo, 745342
1, 37680, Note_on_c, 0, 56, 0
1, 37680, Note_on_c, 0, 56, 19
1, 37920, Tempo, 771605
1, 37920, Note_on_c, 0, 56, 0
1, 37920, Note_on_c, 0, 68, 0
1, 37920, Note_on_c, 0, 65, 0
1, 37920, Note_on_c, 0, 61, 0
1, 37920, Note_on_c, 0, 70, 49
1, 37920, Note_on_c, 0, 65, 30
1, 37920, Note_on_c, 0, 61, 19
1, 37935, Control_c, 0, 64, 0
1, 38033, Control_c, 0, 64, 127
1, 38160, Tempo, 811359
1, 38160, Note_on_c, 0, 61, 0
1, 38160, Note_on_c, 0, 65, 0
1, 38160, Note_on_c, 0, 56, 28
1, 38400, Note_on_c, 0, 56, 0
1, 38400, Note_on_c, 0, 70, 0
1, 38400, Note_on_c, 0, 72, 49
1, 38400, Note_on_c, 0, 66, 35
1, 38400, Note_on_c, 0, 63, 35
1, 38411, Control_c, 0, 64, 0
1, 38612, Control_c, 0, 64, 127
1, 38640, Tempo, 776297
1, 38640, Note_on_c, 0, 56, 26
1, 38880, Tempo, 762195
1, 38880, Note_on_c, 0, 56, 0
1, 38880, Note_on_c, 0, 56, 28
1, 39120, Tempo, 762195
1, 39120, Note_on_c, 0, 56, 0
1, 39120, Note_on_c, 0, 56, 32
1, 39360, Tempo, 730816
1, 39360, Note_on_c, 0, 56, 0
1, 39360, Note_on_c, 0, 58, 35
1, 39369, Control_c, 0, 64, 0
1, 39480, Tempo, 760456
1, 39600, Note_on_c, 0, 58, 0
1, 39600, Note_on_c, 0, 56, 32
1, 39840, Tempo, 806235
1, 39840, Note_on_c, 0, 56, 0
1, 39840, Note_on_c, 0, 72, 0
1, 39840, Note_on_c, 0, 66, 0
1, 39840, Note_on_c, 0, 63, 0
1, 39840, Note_on_c, 0, 73, 51
1, 39840, Note_on_c, 0, 65, 35
1, 39840, Note_on_c, 0, 61, 35
1, 39954, Control_c, 0, 64, 127
1, 40080, Tempo, 822030
1, 40080, Note_on_c, 0, 61, 0
1, 40080, Note_on_c, 0, 65, 0
1, 40080, Note_on_c, 0, 56, 29
1, 40320, Tempo, 795967
1, 40320, Note_on_c, 0, 56, 0
1, 40320, Note_on_c, 0, 73, 0
1, 40320, Note_on_c, 0, 60, 45
1, 40320, Note_on_c, 0, 66, 45
1, 40320, Note_on_c, 0, 75, 54
1, 40330, Control_c, 0, 64, 0
1, 40426, Control_c, 0, 64, 127
1, 40560, Note_on_c, 0, 56, 32
1, 40680, Tempo, 822030
1, 40680, Note_on_c, 0, 75, 0
1, 40680, Note_on_c, 0, 66, 0
1, 40680, Note_on_c, 0, 77, 56
1, 40680, Note_on_c, 0, 68, 47
1, 40800, Note_on_c, 0, 68, 0
1, 40800, Note_on_c, 0, 77, 0
1, 40800, Note_on_c, 0, 70, 49
1, 40800, Note_on_c, 0, 78, 57
1, 40815, Control_c, 0, 64, 0
1, 40913, Control_c, 0, 64, 127
1, 41040, Tempo, 790931
1, 41040, Note_on_c, 0, 56, 0
1, 41040, Note_on_c, 0, 56, 35
1, 41268, Note_on_c, 0, 56, 0
1, 41280, Note_on_c, 0, 56, 32
1, 41508, Note_on_c, 0, 56, 0
1, 41520, Tempo, 762195
1, 41520, Note_on_c, 0, 56, 32
1, 41760, Tempo, 795967
1, 41760, Note_on_c, 0, 60, 0
1, 41760, Note_on_c, 0, 78, 0
1, 41760, Note_on_c, 0, 70, 0
1, 41760, Note_on_c, 0, 61, 44
1, 41760, Note_on_c, 0, 77, 53
1, 41760, Note_on_c, 0, 68, 44
1, 41774, Control_c, 0, 64, 0
1, 41901, Control_c, 0, 64, 127
1, 42000, Tempo, 827358
1, 42000, Note_on_c, 0, 68, 0
1, 42000, Note_on_c, 0, 56, 0
1, 42000, Note_on_c, 0, 61, 0
1, 42000, Note_on_c, 0, 56, 29
1, 42240, Tempo, 776297
1, 42240, Note_on_c, 0, 56, 0
1, 42240, Note_on_c, 0, 77, 0
1, 42240, Note_on_c, 0, 60, 44
1, 42240, Note_on_c, 0, 68, 44
1, 42240, Note_on_c, 0, 77, 53
1, 42240, Control_c, 0, 64, 0
1, 42360, Control_c, 0, 64, 127
1, 42480, Tempo, 771605
1, 42480, Note_on_c, 0, 68, 0
1, 42480, Note_on_c, 0, 60, 0
1, 42480, Note_on_c, 0, 56, 31
1, 42720, Tempo, 748596
1, 42720, Note_on_c, 0, 56, 0
1, 42720, Note_on_c, 0, 66, 34
1, 42720, Note_on_c, 0, 60, 40
1, 42729, Control_c, 0, 64, 0
1, 42812, Control_c, 0, 64, 127
1, 42960, Tempo, 801068
1, 42960, Note_on_c, 0, 60, 0
1, 42960, Note_on_c, 0, 66, 0
1, 42960, Note_on_c, 0, 77, 0
1, 42960, Note_on_c, 0, 75, 49
1, 42960, Note_on_c, 0, 56, 27
1, 43200, Note_on_c, 0, 56, 0
1, 43200, Note_on_c, 0, 75, 0
1, 43200, Note_on_c, 0, 73, 46
1, 43200, Note_on_c, 0, 65, 35
1, 43200, Note_on_c, 0, 61, 29
1, 43203, Control_c, 0, 64, 0
1, 43249, Control_c, 0, 64, 127
1, 43440, Tempo, 822030
1, 43440, Note_on_c, 0, 61, 0
1, 43440, Note_on_c, 0, 65, 0
1, 43440, Note_on_c, 0, 56, 27
1, 43446, Control_c, 0, 64, 0
1, 43660, Tempo, 898338
1, 43680, Note_on_c, 0, 56, 0
1, 43680, Note_on_c, 0, 73, 0
1, 43680, Note_on_c, 0, 74, 51
1, 43680, Note_on_c, 0, 66, 32
1, 43680, Note_on_c, 0, 60, 27
1, 43720, Tempo, 891928
1, 43748, Note_on_c, 0, 74, 0
1, 43748, Note_on_c, 0, 75, 50
1, 43760, Tempo, 885740
1, 43816, Note_on_c, 0, 75, 0
1, 43816, Note_on_c, 0, 76, 52
1, 43820, Tempo, 879507
1, 43860, Tempo, 873362
1, 43880, Tempo, 875912
1, 43884, Note_on_c, 0, 76, 0
1, 43884, Note_on_c, 0, 77, 56
1, 43900, Tempo, 882353
1, 43920, Tempo, 895522
1, 43920, Note_on_c, 0, 60, 0
1, 43920, Note_on_c, 0, 66, 0
1, 43920, Note_on_c, 0, 56, 31
1, 43940, Tempo, 902256
1, 43952, Note_on_c, 0, 77, 0
1, 43952, Note_on_c, 0, 80, 54
1, 43960, Tempo, 916031
1, 43980, Tempo, 930233
1, 44000, Tempo, 937500
1, 44020, Tempo, 952381
1, 44020, Note_on_c, 0, 80, 0
1, 44020, Note_on_c, 0, 79, 53
1, 44040, Tempo, 960000
1, 44060, Tempo, 975610
1, 44080, Tempo, 991736
1, 44088, Note_on_c, 0, 79, 0
1, 44088, Note_on_c, 0, 78, 52
1, 44100, Tempo, 1000000
1, 44120, Tempo, 1016949
1, 44140, Tempo, 1034483
1, 44160, Tempo, 827586
1, 44160, Note_on_c, 0, 78, 0
1, 44160, Note_on_c, 0, 56, 0
1, 44160, Note_on_c, 0, 77, 49
1, 44160, Note_on_c, 0, 49, 35
1, 44259, Control_c, 0, 64, 127
1, 44400, Note_on_c, 0, 49, 0
1, 44400, Note_on_c, 0, 56, 30
1, 44520, Tempo, 838457
1, 44520, Note_on_c, 0, 77, 0
1, 44520, Note_on_c, 0, 73, 44
1, 44640, Note_on_c, 0, 73, 0
1, 44640, Note_on_c, 0, 56, 0
1, 44640, Note_on_c, 0, 68, 46
1, 44640, Note_on_c, 0, 65, 26
1, 44640, Note_on_c, 0, 61, 18
1, 44656, Control_c, 0, 64, 0
1, 44774, Control_c, 0, 64, 127
1, 44880, Tempo, 776297
1, 44880, Note_on_c, 0, 56, 23
1, 45108, Note_on_c, 0, 56, 0
1, 45120, Tempo, 762195
1, 45120, Note_on_c, 0, 56, 24
1, 45348, Note_on_c, 0, 56, 0
1, 45360, Tempo, 748596
1, 45360, Note_on_c, 0, 56, 21
1, 45588, Note_on_c, 0, 56, 0
1, 45600, Tempo, 771605
1, 45600, Note_on_c, 0, 68, 0
1, 45600, Note_on_c, 0, 70, 48
1, 45600, Note_on_c, 0, 56, 30
1, 45615, Control_c, 0, 64, 0
1, 45713, Control_c, 0, 64, 127
1, 45828, Note_on_c, 0, 56, 0
1, 45840, Tempo, 811359
1, 45840, Note_on_c, 0, 56, 28
1, 46068, Note_on_c, 0, 56, 0
1, 46080, Note_on_c, 0, 70, 0
1, 46080, Note_on_c, 0, 61, 0
1, 46080, Note_on_c, 0, 65, 0
1, 46080, Note_on_c, 0, 72, 49
1, 46080, Note_on_c, 0, 66, 35
1, 46080, Note_on_c, 0, 63, 35
1, 46088, Control_c, 0, 64, 0
1, 46236, Control_c, 0, 64, 127
1, 46320, Tempo, 776297
1, 46320, Note_on_c, 0, 56, 31
1, 46548, Note_on_c, 0, 56, 0
1, 46560, Tempo, 762195
1, 46560, Note_on_c, 0, 56, 29
1, 46788, Note_on_c, 0, 56, 0
1, 46800, Tempo, 753107
1, 46800, Note_on_c, 0, 56, 32
1, 47028, Note_on_c, 0, 56, 0
1, 47040, Note_on_c, 0, 58, 35
1, 47048, Control_c, 0, 64, 0
1, 47280, Note_on_c, 0, 58, 0
1, 47280, Note_on_c, 0, 56, 32
1, 47520, Tempo, 806235
1, 47520, Note_on_c, 0, 56, 0
1, 47520, Note_on_c, 0, 72, 0
1, 47520, Note_on_c, 0, 66, 0
1, 47520, Note_on_c, 0, 63, 0
1, 47520, Note_on_c, 0, 73, 51
1, 47520, Note_on_c, 0, 65, 35
1, 47520, Note_on_c, 0, 61, 35
1, 47634, Control_c, 0, 64, 127
1, 47760, Tempo, 822030
1, 47760, Note_on_c, 0, 61, 0
1, 47760, Note_on_c, 0, 65, 0
1, 47760, Note_on_c, 0, 56, 31
1, 48000, Tempo, 795967
1, 48000, Note_on_c, 0, 56, 0
1, 48000, Note_on_c, 0, 73, 0
1, 48000, Note_on_c, 0, 60, 45
1, 48000, Note_on_c, 0, 66, 45
1, 48000, Note_on_c, 0, 75, 54
1, 48011, Control_c, 0, 64, 0
1, 48106, Control_c, 0, 64, 127
1, 48240, Note_on_c, 0, 56, 32
1, 48360, Tempo, 822030
1, 48360, Note_on_c, 0, 75, 0
1, 48360, Note_on_c, 0, 66, 0
1, 48360, Note_on_c, 0, 77, 56
1, 48360, Note_on_c, 0, 68, 47
1, 48480, Note_on_c, 0, 68, 0
1, 48480, Note_on_c, 0, 77, 0
1, 48480, Note_on_c, 0, 70, 49
1, 48480, Note_on_c, 0, 78, 57
1, 48495, Control_c, 0, 64, 0
1, 48628, Control_c, 0, 64, 127
1, 48720, Tempo, 806235
1, 48720, Note_on_c, 0, 56, 0
1, 48720, Note_on_c, 0, 56, 35
1, 48960, Note_on_c, 0, 56, 0
1, 48960, Note_on_c, 0, 56, 32
1, 49200, Tempo, 781148
1, 49200, Note_on_c, 0, 56, 0
1, 49200, Note_on_c, 0, 56, 32
1, 49426, Control_c, 0, 64, 0
1, 49440, Tempo, 811359
1, 49440, Note_on_c, 0, 60, 0
1, 49440, Note_on_c, 0, 78, 0
1, 49440, Note_on_c, 0, 70, 0
1, 49440, Note_on_c, 0, 63, 39
1, 49440, Note_on_c, 0, 72, 46
1, 49511, Control_c, 0, 64, 127
1, 49680, Tempo, 885740
1, 49680, Note_on_c, 0, 63, 0
1, 49680, Note_on_c, 0, 56, 0
1, 49680, Note_on_c, 0, 56, 29
1, 49920, Tempo, 801068
1, 49920, Note_on_c, 0, 56, 0
1, 49920, Note_on_c, 0, 72, 0
1, 49920, Note_on_c, 0, 75, 46
1, 49920, Note_on_c, 0, 66, 39
1, 49931, Control_c, 0, 64, 0
1, 50089, Control_c, 0, 64, 127
1, 50160, Note_on_c, 0, 56, 26
1, 50388, Note_on_c, 0, 56, 0
1, 50400, Tempo, 753107
1, 50400, Note_on_c, 0, 56, 29
1, 50628, Note_on_c, 0, 56, 0
1, 50640, Note_on_c, 0, 56, 27
1, 50868, Note_on_c, 0, 56, 0
1, 50880, Tempo, 735474
1, 50880, Note_on_c, 0, 66, 0
1, 50880, Note_on_c, 0, 75, 0
1, 50880, Note_on_c, 0, 56, 30
1, 50894, Control_c, 0, 64, 0
1, 51108, Note_on_c, 0, 56, 0
1, 51120, Note_on_c, 0, 56, 27
1, 51348, Note_on_c, 0, 56, 0
1, 51360, Tempo, 757576
1, 51360, Note_on_c, 0, 56, 30
1, 51588, Note_on_c, 0, 56, 0
1, 51600, Tempo, 776297
1, 51600, Note_on_c, 0, 56, 26
1, 51828, Note_on_c, 0, 56, 0
1, 51840, Key_signature, 4, "major"
1, 51840, Tempo, 742390
1, 51840, Marker_t, "Mittelteil"
1, 51840, Note_on_c, 0, 56, 31
1, 51840, Note_on_c, 0, 37, 26
1, 51840, Note_on_c, 0, 44, 31
1, 51925, Control_c, 0, 64, 127
1, 52068, Note_on_c, 0, 56, 0
1, 52080, Note_on_c, 0, 56, 30
1, 52300, Tempo, 720029
1, 52308, Note_on_c, 0, 56, 0
1, 52320, Tempo, 715734
1, 52320, Note_on_c, 0, 44, 0
1, 52320, Note_on_c, 0, 37, 0
1, 52320, Note_on_c, 0, 56, 31
1, 52320, Note_on_c, 0, 39, 24
1, 52320, Note_on_c, 0, 44, 29
1, 52331, Control_c, 0, 64, 0
1, 52340, Tempo, 711406
1, 52360, Tempo, 707214
1, 52400, Tempo, 728774
1, 52460, Tempo, 724375
1, 52480, Tempo, 720029
1, 52489, Control_c, 0, 64, 127
1, 52520, Tempo, 711406
1, 52548, Note_on_c, 0, 56, 0
1, 52560, Tempo, 724375
1, 52560, Note_on_c, 0, 56, 32
1, 52580, Tempo, 728774
1, 52600, Tempo, 733227
1, 52640, Tempo, 728774
1, 52660, Tempo, 724375
1, 52680, Tempo, 715734
1, 52720, Tempo, 711406
1, 52740, Tempo, 707214
1, 52760, Tempo, 715734
1, 52780, Tempo, 728774
1, 52788, Note_on_c, 0, 56, 0
1, 52800, Note_on_c, 0, 44, 0
1, 52800, Note_on_c, 0, 39, 0
1, 52800, Note_on_c, 0, 56, 35
1, 52800, Note_on_c, 0, 40, 29
1, 52800, Note_on_c, 0, 49, 35
1, 52815, Control_c, 0, 64, 0
1, 52820, Tempo, 733227
1, 52840, Tempo, 724375
1, 52860, Tempo, 720029
1, 52880, Tempo, 715734
1, 52900, Tempo, 711406
1, 52940, Tempo, 715734
1, 52960, Tempo, 724375
1, 52980, Tempo, 728774
1, 52998, Control_c, 0, 64, 127
1, 53020, Tempo, 724375
1, 53028, Note_on_c, 0, 56, 0
1, 53040, Note_on_c, 0, 56, 33
1, 53268, Note_on_c, 0, 56, 0
1, 53280, Tempo, 742390
1, 53280, Note_on_c, 0, 49, 0
1, 53280, Note_on_c, 0, 40, 0
1, 53280, Note_on_c, 0, 56, 31
1, 53280, Note_on_c, 0, 39, 27
1, 53280, Note_on_c, 0, 48, 33
1, 53291, Control_c, 0, 64, 0
1, 53449, Control_c, 0, 64, 127
1, 53508, Note_on_c, 0, 56, 0
1, 53520, Note_on_c, 0, 56, 31
1, 53748, Note_on_c, 0, 56, 0
1, 53760, Note_on_c, 0, 48, 0
1, 53760, Note_on_c, 0, 39, 0
1, 53760, Note_on_c, 0, 56, 39
1, 53760, Note_on_c, 0, 39, 33
1, 53760, Note_on_c, 0, 44, 39
1, 53767, Control_c, 0, 64, 0
1, 53873, Control_c, 0, 64, 127
1, 53988, Note_on_c, 0, 56, 0
1, 54000, Note_on_c, 0, 56, 36
1, 54228, Note_on_c, 0, 56, 0
1, 54240, Tempo, 711406
1, 54240, Note_on_c, 0, 44, 0
1, 54240, Note_on_c, 0, 39, 0
1, 54240, Note_on_c, 0, 56, 37
1, 54240, Note_on_c, 0, 40, 29
1, 54240, Note_on_c, 0, 44, 35
1, 54255, Control_c, 0, 64, 0
1, 54395, Control_c, 0, 64, 127
1, 54468, Note_on_c, 0, 56, 0
1, 54480, Note_on_c, 0, 56, 37
1, 54708, Note_on_c, 0, 56, 0
1, 54720, Tempo, 724375
1, 54720, Note_on_c, 0, 44, 0
1, 54720, Note_on_c, 0, 40, 0
1, 54720, Note_on_c, 0, 56, 45
1, 54720, Note_on_c, 0, 42, 35
1, 54720, Note_on_c, 0, 51, 41
1, 54731, Control_c, 0, 64, 0
1, 54889, Control_c, 0, 64, 127
1, 54948, Note_on_c, 0, 56, 0
1, 54960, Note_on_c, 0, 56, 38
1, 55188, Note_on_c, 0, 56, 0
1, 55200, Tempo, 737826
1, 55200, Note_on_c, 0, 51, 0
1, 55200, Note_on_c, 0, 42, 0
1, 55200, Note_on_c, 0, 56, 35
1, 55200, Note_on_c, 0, 40, 31
1, 55200, Note_on_c, 0, 49, 38
1, 55215, Control_c, 0, 64, 0
1, 55355, Control_c, 0, 64, 127
1, 55428, Note_on_c, 0, 56, 0
1, 55440, Note_on_c, 0, 56, 36
1, 55668, Note_on_c, 0, 56, 0
1, 55680, Tempo, 724375
1, 55680, Note_on_c, 0, 49, 0
1, 55680, Note_on_c, 0, 40, 0
1, 55680, Note_on_c, 0, 56, 49
1, 55680, Note_on_c, 0, 40, 38
1, 55680, Note_on_c, 0, 49, 46
1, 55690, Control_c, 0, 64, 0
1, 55793, Control_c, 0, 64, 127
1, 55908, Note_on_c, 0, 56, 0
1, 55920, Note_on_c, 0, 56, 42
1, 56148, Note_on_c, 0, 56, 0
1, 56160, Tempo, 707214
1, 56160, Note_on_c, 0, 49, 0
1, 56160, Note_on_c, 0, 40, 0
1, 56160, Note_on_c, 0, 56, 42
1, 56160, Note_on_c, 0, 44, 38
1, 56160, Note_on_c, 0, 51, 46
1, 56172, Control_c, 0, 64, 0
1, 56287, Control_c, 0, 64, 127
1, 56388, Note_on_c, 0, 56, 0
1, 56400, Note_on_c, 0, 56, 42
1, 56628, Note_on_c, 0, 56, 0
1, 56640, Tempo, 720029
1, 56640, Note_on_c, 0, 51, 0
1, 56640, Note_on_c, 0, 44, 0
1, 56640, Note_on_c, 0, 56, 49
1, 56640, Note_on_c, 0, 49, 41
1, 56640, Note_on_c, 0, 52, 49
1, 56655, Control_c, 0, 64, 0
1, 56795, Control_c, 0, 64, 127
1, 56868, Note_on_c, 0, 56, 0
1, 56880, Note_on_c, 0, 56, 40
1, 57108, Note_on_c, 0, 56, 0
1, 57120, Tempo, 747105
1, 57120, Note_on_c, 0, 52, 0
1, 57120, Note_on_c, 0, 49, 0
1, 57120, Note_on_c, 0, 56, 39
1, 57120, Note_on_c, 0, 44, 38
1, 57120, Note_on_c, 0, 51, 46
1, 57132, Control_c, 0, 64, 0
1, 57289, Control_c, 0, 64, 127
1, 57348, Note_on_c, 0, 56, 0
1, 57360, Note_on_c, 0, 56, 39
1, 57588, Note_on_c, 0, 56, 0
1, 57600, Note_on_c, 0, 51, 0
1, 57600, Note_on_c, 0, 44, 0
1, 57600, Note_on_c, 0, 56, 49
1, 57600, Note_on_c, 0, 44, 39
1, 57600, Note_on_c, 0, 51, 47
1, 57613, Control_c, 0, 64, 0
1, 57769, Control_c, 0, 64, 127
1, 57828, Note_on_c, 0, 56, 0
1, 57840, Tempo, 733227
1, 57840, Note_on_c, 0, 56, 40
1, 58068, Note_on_c, 0, 56, 0
1, 58080, Tempo, 720029
1, 58080, Note_on_c, 0, 56, 42
1, 58308, Note_on_c, 0, 56, 0
1, 58320, Note_on_c, 0, 56, 41
1, 58548, Note_on_c, 0, 56, 0
1, 58560, Tempo, 684151
1, 58560, Note_on_c, 0, 56, 42
1, 58680, Tempo, 710059
1, 58788, Note_on_c, 0, 56, 0
1, 58800, Note_on_c, 0, 56, 41
1, 59028, Note_on_c, 0, 56, 0
1, 59040, Tempo, 690449
1, 59040, Note_on_c, 0, 56, 40
1, 59160, Tempo, 710059
1, 59268, Note_on_c, 0, 56, 0
1, 59280, Note_on_c, 0, 56, 40
1, 59508, Note_on_c, 0, 56, 0
1, 59520, Tempo, 720029
1, 59520, Note_on_c, 0, 56, 44
1, 59748, Note_on_c, 0, 56, 0
1, 59760, Note_on_c, 0, 56, 39
1, 59988, Note_on_c, 0, 56, 0
1, 60000, Tempo, 711406
1, 60000, Note_on_c, 0, 51, 0
1, 60000, Note_on_c, 0, 44, 0
1, 60000, Note_on_c, 0, 56, 39
1, 60000, Note_on_c, 0, 49, 33
1, 60000, Note_on_c, 0, 52, 39
1, 60010, Control_c, 0, 64, 0
1, 60040, Tempo, 698975
1, 60080, Tempo, 694927
1, 60100, Tempo, 690846
1, 60120, Tempo, 694927
1, 60140, Tempo, 711406
1, 60156, Control_c, 0, 64, 127
1, 60228, Note_on_c, 0, 56, 0
1, 60240, Tempo, 707214
1, 60240, Note_on_c, 0, 56, 37
1, 60260, Tempo, 698975
1, 60340, Tempo, 707214
1, 60360, Tempo, 711406
1, 60400, Tempo, 715734
1, 60440, Tempo, 711406
1, 60468, Note_on_c, 0, 56, 0
1, 60480, Tempo, 698975
1, 60480, Note_on_c, 0, 52, 0
1, 60480, Note_on_c, 0, 49, 0
1, 60480, Note_on_c, 0, 56, 41
1, 60480, Note_on_c, 0, 44, 35
1, 60480, Note_on_c, 0, 51, 41
1, 60491, Control_c, 0, 64, 0
1, 60500, Tempo, 694927
1, 60520, Tempo, 707214
1, 60540, Tempo, 711406
1, 60560, Tempo, 720029
1, 60635, Control_c, 0, 64, 127
1, 60680, Tempo, 711406
1, 60700, Tempo, 707214
1, 60708, Note_on_c, 0, 56, 0
1, 60720, Tempo, 698975
1, 60720, Note_on_c, 0, 56, 37
1, 60740, Tempo, 694927
1, 60800, Tempo, 698975
1, 60820, Tempo, 703070
1, 60948, Note_on_c, 0, 56, 0
1, 60960, Tempo, 724375
1, 60960, Note_on_c, 0, 51, 0
1, 60960, Note_on_c, 0, 44, 0
1, 60960, Note_on_c, 0, 56, 35
1, 60960, Note_on_c, 0, 40, 30
1, 60960, Note_on_c, 0, 49, 37
1, 60974, Control_c, 0, 64, 0
1, 61144, Control_c, 0, 64, 127
1, 61188, Note_on_c, 0, 56, 0
1, 61200, Note_on_c, 0, 56, 35
1, 61428, Note_on_c, 0, 56, 0
1, 61440, Tempo, 711406
1, 61440, Note_on_c, 0, 49, 0
1, 61440, Note_on_c, 0, 40, 0
1, 61440, Note_on_c, 0, 56, 40
1, 61440, Note_on_c, 0, 44, 35
1, 61440, Note_on_c, 0, 51, 41
1, 61450, Control_c, 0, 64, 0
1, 61553, Control_c, 0, 64, 127
1, 61668, Note_on_c, 0, 56, 0
1, 61680, Note_on_c, 0, 56, 35
1, 61908, Note_on_c, 0, 56, 0
1, 61920, Tempo, 728774
1, 61920, Note_on_c, 0, 51, 0
1, 61920, Note_on_c, 0, 44, 0
1, 61920, Note_on_c, 0, 56, 35
1, 61920, Note_on_c, 0, 40, 30
1, 61920, Note_on_c, 0, 49, 37
1, 61935, Control_c, 0, 64, 0
1, 62075, Control_c, 0, 64, 127
1, 62148, Note_on_c, 0, 56, 0
1, 62160, Note_on_c, 0, 56, 31
1, 62380, Tempo, 715734
1, 62388, Note_on_c, 0, 56, 0
1, 62400, Note_on_c, 0, 49, 0
1, 62400, Note_on_c, 0, 40, 0
1, 62400, Note_on_c, 0, 56, 38
1, 62400, Note_on_c, 0, 39, 31
1, 62400, Note_on_c, 0, 48, 38
1, 62412, Control_c, 0, 64, 0
1, 62420, Tempo, 711406
1, 62460, Tempo, 707214
1, 62500, Tempo, 703070
1, 62520, Tempo, 707214
1, 62540, Tempo, 720029
1, 62555, Control_c, 0, 64, 127
1, 62560, Tempo, 724375
1, 62580, Tempo, 733227
1, 62600, Tempo, 728774
1, 62620, Tempo, 724375
1, 62628, Note_on_c, 0, 56, 0
1, 62640, Tempo, 715734
1, 62640, Note_on_c, 0, 56, 35
1, 62680, Tempo, 711406
1, 62740, Tempo, 707214
1, 62780, Tempo, 715734
1, 62800, Tempo, 728774
1, 62868, Note_on_c, 0, 56, 0
1, 62880, Note_on_c, 0, 48, 0
1, 62880, Note_on_c, 0, 39, 0
1, 62880, Note_on_c, 0, 56, 35
1, 62880, Note_on_c, 0, 40, 29
1, 62880, Note_on_c, 0, 49, 35
1, 62891, Control_c, 0, 64, 0
1, 62940, Tempo, 715734
1, 62960, Tempo, 707214
1, 62980, Tempo, 703070
1, 63000, Tempo, 698975
1, 63020, Tempo, 703070
1, 63035, Control_c, 0, 64, 127
1, 63108, Note_on_c, 0, 56, 0
1, 63120, Note_on_c, 0, 56, 33
1, 63140, Tempo, 711406
1, 63160, Tempo, 720029
1, 63200, Tempo, 715734
1, 63220, Tempo, 711406
1, 63240, Tempo, 707214
1, 63260, Tempo, 703070
1, 63300, Tempo, 711406
1, 63320, Tempo, 720029
1, 63340, Tempo, 724375
1, 63348, Note_on_c, 0, 56, 0
1, 63360, Tempo, 728774
1, 63360, Note_on_c, 0, 49, 0
1, 63360, Note_on_c, 0, 40, 0
1, 63360, Note_on_c, 0, 56, 38
1, 63360, Note_on_c, 0, 39, 33
1, 63360, Note_on_c, 0, 48, 39
1, 63368, Control_c, 0, 64, 0
1, 63400, Tempo, 724375
1, 63420, Tempo, 720029
1, 63440, Tempo, 715734
1, 63445, Control_c, 0, 64, 127
1, 63480, Tempo, 711406
1, 63500, Tempo, 703070
1, 63520, Tempo, 698975
1, 63560, Tempo, 707214
1, 63580, Tempo, 715734
1, 63588, Note_on_c, 0, 56, 0
1, 63600, Tempo, 720029
1, 63600, Note_on_c, 0, 56, 40
1, 63640, Tempo, 724375
1, 63660, Tempo, 728774
1, 63720, Tempo, 720029
1, 63780, Tempo, 715734
1, 63828, Note_on_c, 0, 56, 0
1, 63840, Tempo, 720029
1, 63840, Note_on_c, 0, 48, 0
1, 63840, Note_on_c, 0, 39, 0
1, 63840, Note_on_c, 0, 56, 41
1, 63840, Note_on_c, 0, 40, 30
1, 63840, Note_on_c, 0, 49, 37
1, 63854, Control_c, 0, 64, 0
1, 63981, Control_c, 0, 64, 127
1, 64068, Note_on_c, 0, 56, 0
1, 64080, Note_on_c, 0, 56, 44
1, 64308, Note_on_c, 0, 56, 0
1, 64320, Tempo, 711406
1, 64320, Note_on_c, 0, 49, 0
1, 64320, Note_on_c, 0, 40, 0
1, 64320, Note_on_c, 0, 56, 46
1, 64320, Note_on_c, 0, 39, 34
1, 64320, Note_on_c, 0, 51, 40
1, 64331, Control_c, 0, 64, 0
1, 64489, Control_c, 0, 64, 127
1, 64548, Note_on_c, 0, 56, 0
1, 64560, Note_on_c, 0, 56, 48
1, 64788, Note_on_c, 0, 56, 0
1, 64800, Tempo, 733227
1, 64800, Note_on_c, 0, 51, 0
1, 64800, Note_on_c, 0, 39, 0
1, 64800, Note_on_c, 0, 56, 49
1, 64800, Note_on_c, 0, 37, 37
1, 64800, Note_on_c, 0, 52, 45
1, 64815, Control_c, 0, 64, 0
1, 64984, Control_c, 0, 64, 127
1, 65028, Note_on_c, 0, 56, 0
1, 65040, Note_on_c, 0, 56, 51
1, 65268, Note_on_c, 0, 56, 0
1, 65280, Tempo, 694123
1, 65280, Note_on_c, 0, 52, 0
1, 65280, Note_on_c, 0, 37, 0
1, 65280, Note_on_c, 0, 56, 53
1, 65280, Note_on_c, 0, 44, 40
1, 65280, Note_on_c, 0, 51, 48
1, 65292, Control_c, 0, 64, 0
1, 65435, Control_c, 0, 64, 127
1, 65508, Note_on_c, 0, 56, 0
1, 65520, Tempo, 714456
1, 65520, Note_on_c, 0, 68, 53
1, 65520, Note_on_c, 0, 56, 45
1, 65748, Note_on_c, 0, 56, 0
1, 65748, Note_on_c, 0, 68, 0
1, 65760, Tempo, 684151
1, 65760, Note_on_c, 0, 68, 55
1, 65760, Note_on_c, 0, 56, 46
1, 65988, Note_on_c, 0, 56, 0
1, 65988, Note_on_c, 0, 68, 0
1, 66000, Tempo, 703400
1, 66000, Note_on_c, 0, 68, 56
1, 66000, Note_on_c, 0, 56, 47
1, 66228, Note_on_c, 0, 56, 0
1, 66228, Note_on_c, 0, 68, 0
1, 66230, Tempo, 654308
1, 66240, Note_on_c, 0, 68, 57
1, 66240, Note_on_c, 0, 56, 48
1, 66274, Tempo, 660066
1, 66317, Tempo, 665927
1, 66361, Tempo, 671892
1, 66383, Tempo, 677966
1, 66427, Tempo, 684151
1, 66468, Note_on_c, 0, 56, 0
1, 66468, Note_on_c, 0, 68, 0
1, 66470, Tempo, 690449
1, 66480, Note_on_c, 0, 68, 59
1, 66480, Note_on_c, 0, 56, 49
1, 66492, Tempo, 696864
1, 66536, Tempo, 703400
1, 66579, Tempo, 710059
1, 66601, Tempo, 716846
1, 66660, Tempo, 723066
1, 66700, Tempo, 727361
1, 66708, Note_on_c, 0, 56, 0
1, 66708, Note_on_c, 0, 68, 0
1, 66720, Tempo, 723066
1, 66720, Note_on_c, 0, 68, 60
1, 66720, Note_on_c, 0, 56, 50
1, 66948, Note_on_c, 0, 56, 0
1, 66948, Note_on_c, 0, 68, 0
1, 66960, Note_on_c, 0, 68, 61
1, 66960, Note_on_c, 0, 56, 51
1, 67188, Note_on_c, 0, 56, 0
1, 67188, Note_on_c, 0, 68, 0
1, 67200, Tempo, 694123
1, 67200, Note_on_c, 0, 51, 0
1, 67200, Note_on_c, 0, 44, 0
1, 67200, Note_on_c, 0, 68, 61
1, 67200, Note_on_c, 0, 56, 51
1, 67200, Note_on_c, 0, 37, 52
1, 67200, Note_on_c, 0, 44, 62
1, 67211, Control_c, 0, 64, 0
1, 67327, Control_c, 0, 64, 127
1, 67428, Note_on_c, 0, 56, 0
1, 67428, Note_on_c, 0, 68, 0
1, 67440, Tempo, 702083
1, 67440, Note_on_c, 0, 68, 59
1, 67440, Note_on_c, 0, 56, 49
1, 67660, Tempo, 678656
1, 67668, Note_on_c, 0, 56, 0
1, 67668, Note_on_c, 0, 68, 0
1, 67680, Note_on_c, 0, 37, 0
1, 67680, Note_on_c, 0, 44, 0
1, 67680, Note_on_c, 0, 68, 59
1, 67680, Note_on_c, 0, 56, 49
1, 67680, Note_on_c, 0, 39, 51
1, 67680, Note_on_c, 0, 44, 61
1, 67695, Control_c, 0, 64, 0
1, 67835, Control_c, 0, 64, 127
1, 67908, Note_on_c, 0, 56, 0
1, 67908, Note_on_c, 0, 68, 0
1, 67920, Tempo, 710311
1, 67920, Note_on_c, 0, 68, 59
1, 67920, Note_on_c, 0, 56, 49
1, 68148, Note_on_c, 0, 56, 0
1, 68148, Note_on_c, 0, 68, 0
1, 68160, Tempo, 710311
1, 68160, Note_on_c, 0, 39, 0
1, 68160, Note_on_c, 0, 44, 0
1, 68160, Note_on_c, 0, 61, 67
1, 68160, Note_on_c, 0, 68, 61
1, 68160, Note_on_c, 0, 56, 52
1, 68160, Note_on_c, 0, 40, 56
1, 68160, Note_on_c, 0, 49, 67
1, 68174, Control_c, 0, 64, 0
1, 68330, Control_c, 0, 64, 127
1, 68388, Note_on_c, 0, 56, 0
1, 68388, Note_on_c, 0, 68, 0
1, 68400, Tempo, 694123
1, 68400, Note_on_c, 0, 68, 60
1, 68400, Note_on_c, 0, 56, 50
1, 68628, Note_on_c, 0, 56, 0
1, 68628, Note_on_c, 0, 68, 0
1, 68640, Tempo, 710311
1, 68640, Note_on_c, 0, 49, 0
1, 68640, Note_on_c, 0, 40, 0
1, 68640, Note_on_c, 0, 61, 0
1, 68640, Note_on_c, 0, 60, 59
1, 68640, Note_on_c, 0, 68, 58
1, 68640, Note_on_c, 0, 56, 48
1, 68640, Note_on_c, 0, 39, 52
1, 68640, Note_on_c, 0, 48, 62
1, 68654, Control_c, 0, 64, 0
1, 68781, Control_c, 0, 64, 127
1, 68868, Note_on_c, 0, 56, 0
1, 68868, Note_on_c, 0, 68, 0
1, 68880, Note_on_c, 0, 68, 58
1, 68880, Note_on_c, 0, 56, 48
1, 69108, Note_on_c, 0, 56, 0
1, 69108, Note_on_c, 0, 68, 0
1, 69120, Tempo, 682361
1, 69120, Note_on_c, 0, 48, 0
1, 69120, Note_on_c, 0, 39, 0
1, 69120, Note_on_c, 0, 60, 0
1, 69120, Note_on_c, 0, 68, 64
1, 69120, Note_on_c, 0, 56, 55
1, 69120, Note_on_c, 0, 39, 57
1, 69120, Note_on_c, 0, 44, 67
1, 69132, Control_c, 0, 64, 0
1, 69276, Control_c, 0, 64, 127
1, 69348, Note_on_c, 0, 56, 0
1, 69348, Note_on_c, 0, 68, 0
1, 69360, Tempo, 706215
1, 69360, Note_on_c, 0, 68, 61
1, 69360, Note_on_c, 0, 56, 51
1, 69588, Note_on_c, 0, 56, 0
1, 69588, Note_on_c, 0, 68, 0
1, 69600, Tempo, 690211
1, 69600, Note_on_c, 0, 39, 0
1, 69600, Note_on_c, 0, 44, 0
1, 69600, Note_on_c, 0, 68, 61
1, 69600, Note_on_c, 0, 56, 51
1, 69600, Note_on_c, 0, 40, 56
1, 69600, Note_on_c, 0, 44, 66
1, 69612, Control_c, 0, 64, 0
1, 69741, Control_c, 0, 64, 127
1, 69828, Note_on_c, 0, 56, 0
1, 69828, Note_on_c, 0, 68, 0
1, 69840, Tempo, 710311
1, 69840, Note_on_c, 0, 68, 61
1, 69840, Note_on_c, 0, 56, 51
1, 70068, Note_on_c, 0, 56, 0
1, 70068, Note_on_c, 0, 68, 0
1, 70080, Tempo, 690211
1, 70080, Note_on_c, 0, 40, 0
1, 70080, Note_on_c, 0, 44, 0
1, 70080, Note_on_c, 0, 63, 71
1, 70080, Note_on_c, 0, 68, 66
1, 70080, Note_on_c, 0, 56, 56
1, 70080, Note_on_c, 0, 42, 60
1, 70080, Note_on_c, 0, 51, 71
1, 70094, Control_c, 0, 64, 0
1, 70236, Control_c, 0, 64, 127
1, 70308, Note_on_c, 0, 56, 0
1, 70308, Note_on_c, 0, 68, 0
1, 70320, Tempo, 702083
1, 70320, Note_on_c, 0, 68, 61
1, 70320, Note_on_c, 0, 56, 51
1, 70548, Note_on_c, 0, 56, 0
1, 70548, Note_on_c, 0, 68, 0
1, 70560, Note_on_c, 0, 51, 0
1, 70560, Note_on_c, 0, 42, 0
1, 70560, Note_on_c, 0, 63, 0
1, 70560, Note_on_c, 0, 61, 68
1, 70560, Note_on_c, 0, 68, 61
1, 70560, Note_on_c, 0, 56, 51
1, 70560, Note_on_c, 0, 40, 57
1, 70560, Note_on_c, 0, 49, 68
1, 70572, Control_c, 0, 64, 0
1, 70701, Control_c, 0, 64, 127
1, 70788, Note_on_c, 0, 56, 0
1, 70788, Note_on_c, 0, 68, 0
1, 70800, Tempo, 727361
1, 70800, Note_on_c, 0, 68, 61
1, 70800, Note_on_c, 0, 56, 51
1, 71028, Note_on_c, 0, 56, 0
1, 71028, Note_on_c, 0, 68, 0
1, 71040, Tempo, 690211
1, 71040, Note_on_c, 0, 49, 0
1, 71040, Note_on_c, 0, 40, 0
1, 71040, Note_on_c, 0, 68, 74
1, 71040, Note_on_c, 0, 56, 62
1, 71040, Note_on_c, 0, 40, 59
1, 71040, Note_on_c, 0, 49, 70
1, 71055, Control_c, 0, 64, 0
1, 71125, Control_c, 0, 64, 127
1, 71268, Note_on_c, 0, 56, 0
1, 71268, Note_on_c, 0, 68, 0
1, 71280, Tempo, 706215
1, 71280, Note_on_c, 0, 68, 68
1, 71280, Note_on_c, 0, 56, 57
1, 71508, Note_on_c, 0, 56, 0
1, 71508, Note_on_c, 0, 68, 0
1, 71520, Tempo, 706215
1, 71520, Note_on_c, 0, 49, 0
1, 71520, Note_on_c, 0, 40, 0
1, 71520, Note_on_c, 0, 61, 0
1, 71520, Note_on_c, 0, 63, 73
1, 71520, Note_on_c, 0, 68, 68
1, 71520, Note_on_c, 0, 56, 57
1, 71520, Note_on_c, 0, 44, 61
1, 71520, Note_on_c, 0, 51, 73
1, 71533, Control_c, 0, 64, 0
1, 71600, Tempo, 702083
1, 71633, Control_c, 0, 64, 127
1, 71660, Tempo, 698162
1, 71740, Tempo, 706215
1, 71748, Note_on_c, 0, 56, 0
1, 71748, Note_on_c, 0, 68, 0
1, 71760, Tempo, 718735
1, 71760, Note_on_c, 0, 68, 68
1, 71760, Note_on_c, 0, 56, 57
1, 71800, Tempo, 714456
1, 71820, Tempo, 710311
1, 71840, Tempo, 706215
1, 71860, Tempo, 702083
1, 71880, Tempo, 694123
1, 71900, Tempo, 690211
1, 71920, Tempo, 686263
1, 71940, Tempo, 690211
1, 71960, Tempo, 698162
1, 71980, Tempo, 706215
1, 71988, Note_on_c, 0, 56, 0
1, 71988, Note_on_c, 0, 68, 0
1, 72000, Tempo, 714456
1, 72000, Note_on_c, 0, 51, 0
1, 72000, Note_on_c, 0, 44, 0
1, 72000, Note_on_c, 0, 63, 0
1, 72000, Note_on_c, 0, 64, 78
1, 72000, Note_on_c, 0, 68, 69
1, 72000, Note_on_c, 0, 56, 58
1, 72000, Note_on_c, 0, 49, 66
1, 72000, Note_on_c, 0, 52, 78
1, 72014, Control_c, 0, 64, 0
1, 72071, Control_c, 0, 64, 127
1, 72120, Tempo, 698162
1, 72140, Tempo, 690211
1, 72180, Tempo, 698162
1, 72220, Tempo, 706215
1, 72228, Note_on_c, 0, 56, 0
1, 72228, Note_on_c, 0, 68, 0
1, 72240, Tempo, 710311
1, 72240, Note_on_c, 0, 68, 68
1, 72240, Note_on_c, 0, 56, 57
1, 72320, Tempo, 706215
1, 72360, Tempo, 702083
1, 72380, Tempo, 694123
1, 72420, Tempo, 698162
1, 72440, Tempo, 706215
1, 72460, Tempo, 710311
1, 72468, Note_on_c, 0, 56, 0
1, 72468, Note_on_c, 0, 68, 0
1, 72480, Tempo, 706215
1, 72480, Note_on_c, 0, 52, 0
1, 72480, Note_on_c, 0, 49, 0
1, 72480, Note_on_c, 0, 64, 0
1, 72480, Note_on_c, 0, 63, 73
1, 72480, Note_on_c, 0, 68, 68
1, 72480, Note_on_c, 0, 56, 57
1, 72480, Note_on_c, 0, 44, 61
1, 72480, Note_on_c, 0, 51, 73
1, 72492, Control_c, 0, 64, 0
1, 72520, Tempo, 702083
1, 72565, Control_c, 0, 64, 127
1, 72708, Note_on_c, 0, 56, 0
1, 72708, Note_on_c, 0, 68, 0
1, 72720, Tempo, 749813
1, 72720, Note_on_c, 0, 68, 68
1, 72720, Note_on_c, 0, 56, 57
1, 72840, Note_on_c, 0, 51, 0
1, 72840, Note_on_c, 0, 44, 0
1, 72840, Note_on_c, 0, 32, 82
1, 72849, Control_c, 0, 64, 0
1, 72948, Note_on_c, 0, 56, 0
1, 72948, Note_on_c, 0, 68, 0
1, 72960, Tempo, 706215
1, 72960, Note_on_c, 0, 63, 0
1, 72960, Note_on_c, 0, 32, 0
1, 72960, Note_on_c, 0, 63, 74
1, 72960, Note_on_c, 0, 68, 79
1, 72960, Note_on_c, 0, 56, 67
1, 72960, Control_c, 0, 64, 127
1, 72960, Note_on_c, 0, 44, 62
1, 72960, Note_on_c, 0, 51, 74
1, 72980, Tempo, 702083
1, 73040, Tempo, 698162
1, 73060, Tempo, 694123
1, 73100, Tempo, 690211
1, 73120, Tempo, 702083
1, 73140, Tempo, 710311
1, 73180, Tempo, 706215
1, 73188, Note_on_c, 0, 56, 0
1, 73188, Note_on_c, 0, 68, 0
1, 73200, Tempo, 702083
1, 73200, Note_on_c, 0, 68, 74
1, 73200, Note_on_c, 0, 56, 62
1, 73220, Tempo, 698162
1, 73240, Tempo, 694123
1, 73280, Tempo, 698162
1, 73300, Tempo, 702083
1, 73320, Tempo, 710311
1, 73400, Tempo, 706215
1, 73420, Tempo, 702083
1, 73428, Note_on_c, 0, 56, 0
1, 73428, Note_on_c, 0, 68, 0
1, 73440, Tempo, 698162
1, 73440, Note_on_c, 0, 68, 77
1, 73440, Note_on_c, 0, 56, 63
1, 73460, Tempo, 694123
1, 73480, Tempo, 690211
1, 73520, Tempo, 698162
1, 73540, Tempo, 702083
1, 73560, Tempo, 706215
1, 73580, Tempo, 710311
1, 73620, Tempo, 702083
1, 73640, Tempo, 698162
1, 73660, Tempo, 694123
1, 73668, Note_on_c, 0, 56, 0
1, 73668, Note_on_c, 0, 68, 0
1, 73680, Tempo, 690211
1, 73680, Note_on_c, 0, 68, 78
1, 73680, Note_on_c, 0, 56, 64
1, 73720, Tempo, 694123
1, 73740, Tempo, 698162
1, 73760, Tempo, 706215
1, 73908, Note_on_c, 0, 56, 0
1, 73908, Note_on_c, 0, 68, 0
1, 73920, Tempo, 718735
1, 73920, Note_on_c, 0, 68, 79
1, 73920, Note_on_c, 0, 56, 66
1, 73960, Tempo, 706215
1, 74040, Tempo, 710311
1, 74120, Tempo, 714456
1, 74148, Note_on_c, 0, 56, 0
1, 74148, Note_on_c, 0, 68, 0
1, 74160, Note_on_c, 0, 68, 78
1, 74160, Note_on_c, 0, 56, 66
1, 74200, Tempo, 718735
1, 74280, Tempo, 723066
1, 74360, Tempo, 727361
1, 74388, Note_on_c, 0, 56, 0
1, 74388, Note_on_c, 0, 68, 0
1, 74400, Note_on_c, 0, 68, 79
1, 74400, Note_on_c, 0, 56, 67
1, 74440, Tempo, 731797
1, 74520, Tempo, 736196
1, 74600, Tempo, 740649
1, 74628, Note_on_c, 0, 56, 0
1, 74628, Note_on_c, 0, 68, 0
1, 74640, Note_on_c, 0, 68, 80
1, 74640, Note_on_c, 0, 56, 68
1, 74680, Tempo, 745249
1, 74760, Tempo, 749813
1, 74800, Tempo, 754527
1, 74868, Note_on_c, 0, 56, 0
1, 74868, Note_on_c, 0, 68, 0
1, 74880, Tempo, 718735
1, 74880, Note_on_c, 0, 51, 0
1, 74880, Note_on_c, 0, 44, 0
1, 74880, Note_on_c, 0, 63, 0
1, 74880, Note_on_c, 0, 64, 88
1, 74880, Note_on_c, 0, 68, 92
1, 74880, Note_on_c, 0, 59, 74
1, 74880, Note_on_c, 0, 71, 88
1, 74880, Note_on_c, 0, 28, 74
1, 74880, Note_on_c, 0, 40, 88
1, 74889, Control_c, 0, 64, 0
1, 75007, Control_c, 0, 64, 127
1, 75108, Note_on_c, 0, 71, 0
1, 75108, Note_on_c, 0, 59, 0
1, 75120, Tempo, 698162
1, 75120, Note_on_c, 0, 59, 70
1, 75120, Note_on_c, 0, 71, 83
1, 75348, Note_on_c, 0, 71, 0
1, 75348, Note_on_c, 0, 59, 0
1, 75360, Note_on_c, 0, 59, 70
1, 75360, Note_on_c, 0, 71, 83
1, 75588, Note_on_c, 0, 71, 0
1, 75588, Note_on_c, 0, 59, 0
1, 75600, Tempo, 718735
1, 75600, Note_on_c, 0, 59, 66
1, 75600, Note_on_c, 0, 71, 79
1, 75828, Note_on_c, 0, 71, 0
1, 75828, Note_on_c, 0, 59, 0
1, 75840, Tempo, 706215
1, 75840, Note_on_c, 0, 68, 0
1, 75840, Note_on_c, 0, 64, 0
1, 75840, Note_on_c, 0, 40, 0
1, 75840, Note_on_c, 0, 28, 0
1, 75840, Note_on_c, 0, 63, 88
1, 75840, Note_on_c, 0, 68, 92
1, 75840, Note_on_c, 0, 59, 74
1, 75840, Note_on_c, 0, 71, 88
1, 75840, Note_on_c, 0, 35, 70
1, 75840, Note_on_c, 0, 47, 83
1, 75855, Control_c, 0, 64, 0
1, 76038, Control_c, 0, 64, 127
1, 76068, Note_on_c, 0, 71, 0
1, 76068, Note_on_c, 0, 59, 0
1, 76080, Tempo, 694123
1, 76080, Note_on_c, 0, 59, 70
1, 76080, Note_on_c, 0, 71, 83
1, 76308, Note_on_c, 0, 71, 0
1, 76308, Note_on_c, 0, 59, 0
1, 76320, Note_on_c, 0, 59, 70
1, 76320, Note_on_c, 0, 71, 83
1, 76548, Note_on_c, 0, 71, 0
1, 76548, Note_on_c, 0, 59, 0
1, 76560, Tempo, 740649
1, 76560, Note_on_c, 0, 59, 66
1, 76560, Note_on_c, 0, 71, 79
1, 76788, Note_on_c, 0, 71, 0
1, 76788, Note_on_c, 0, 59, 0
1, 76800, Tempo, 706215
1, 76800, Note_on_c, 0, 68, 0
1, 76800, Note_on_c, 0, 63, 0
1, 76800, Note_on_c, 0, 47, 0
1, 76800, Note_on_c, 0, 35, 0
1, 76800, Note_on_c, 0, 64, 88
1, 76800, Note_on_c, 0, 68, 92
1, 76800, Note_on_c, 0, 59, 74
1, 76800, Note_on_c, 0, 71, 88
1, 76800, Note_on_c, 0, 28, 74
1, 76800, Note_on_c, 0, 40, 88
1, 76809, Control_c, 0, 64, 0
1, 76914, Control_c, 0, 64, 127
1, 77028, Note_on_c, 0, 71, 0
1, 77028, Note_on_c, 0, 59, 0
1, 77040, Tempo, 690211
1, 77040, Note_on_c, 0, 59, 70
1, 77040, Note_on_c, 0, 71, 83
1, 77268, Note_on_c, 0, 71, 0
1, 77268, Note_on_c, 0, 59, 0
1, 77280, Note_on_c, 0, 59, 70
1, 77280, Note_on_c, 0, 71, 83
1, 77508, Note_on_c, 0, 71, 0
1, 77508, Note_on_c, 0, 59, 0
1, 77520, Tempo, 727361
1, 77520, Note_on_c, 0, 59, 66
1, 77520, Note_on_c, 0, 71, 79
1, 77748, Note_on_c, 0, 71, 0
1, 77748, Note_on_c, 0, 59, 0
1, 77760, Tempo, 706215
1, 77760, Note_on_c, 0, 68, 0
1, 77760, Note_on_c, 0, 64, 0
1, 77760, Note_on_c, 0, 40, 0
1, 77760, Note_on_c, 0, 28, 0
1, 77760, Note_on_c, 0, 63, 88
1, 77760, Note_on_c, 0, 68, 92
1, 77760, Note_on_c, 0, 59, 74
1, 77760, Note_on_c, 0, 71, 88
1, 77760, Note_on_c, 0, 35, 72
1, 77760, Note_on_c, 0, 47, 85
1, 77774, Control_c, 0, 64, 0
1, 77874, Control_c, 0, 64, 127
1, 77988, Note_on_c, 0, 71, 0
1, 77988, Note_on_c, 0, 59, 0
1, 78000, Note_on_c, 0, 59, 70
1, 78000, Note_on_c, 0, 71, 83
1, 78228, Note_on_c, 0, 71, 0
1, 78228, Note_on_c, 0, 59, 0
1, 78240, Tempo, 731797
1, 78240, Note_on_c, 0, 59, 70
1, 78240, Note_on_c, 0, 71, 83
1, 78468, Note_on_c, 0, 71, 0
1, 78468, Note_on_c, 0, 59, 0
1, 78480, Tempo, 784314
1, 78480, Note_on_c, 0, 35, 0
1, 78480, Note_on_c, 0, 47, 0
1, 78480, Note_on_c, 0, 59, 70
1, 78480, Note_on_c, 0, 71, 83
1, 78480, Note_on_c, 0, 34, 74
1, 78480, Note_on_c, 0, 46, 88
1, 78708, Note_on_c, 0, 71, 0
1, 78708, Note_on_c, 0, 59, 0
1, 78720, Tempo, 694123
1, 78720, Note_on_c, 0, 34, 0
1, 78720, Note_on_c, 0, 68, 0
1, 78720, Note_on_c, 0, 46, 0
1, 78720, Note_on_c, 0, 63, 0
1, 78720, Note_on_c, 0, 63, 88
1, 78720, Note_on_c, 0, 68, 92
1, 78720, Note_on_c, 0, 59, 74
1, 78720, Note_on_c, 0, 71, 88
1, 78720, Note_on_c, 0, 32, 74
1, 78720, Note_on_c, 0, 44, 88
1, 78725, Control_c, 0, 64, 0
1, 78876, Control_c, 0, 64, 127
1, 78948, Note_on_c, 0, 71, 0
1, 78948, Note_on_c, 0, 59, 0
1, 78960, Tempo, 706215
1, 78960, Note_on_c, 0, 59, 70
1, 78960, Note_on_c, 0, 71, 83
1, 79188, Note_on_c, 0, 71, 0
1, 79188, Note_on_c, 0, 59, 0
1, 79200, Tempo, 702083
1, 79200, Note_on_c, 0, 59, 70
1, 79200, Note_on_c, 0, 71, 83
1, 79240, Tempo, 698162
1, 79280, Tempo, 694123
1, 79320, Tempo, 702083
1, 79340, Tempo, 718735
1, 79380, Tempo, 714456
1, 79400, Tempo, 706215
1, 79420, Tempo, 702083
1, 79428, Note_on_c, 0, 71, 0
1, 79428, Note_on_c, 0, 59, 0
1, 79440, Tempo, 698162
1, 79440, Note_on_c, 0, 59, 66
1, 79440, Note_on_c, 0, 71, 79
1, 79460, Tempo, 694123
1, 79500, Tempo, 698162
1, 79520, Tempo, 710311
1, 79580, Tempo, 706215
1, 79600, Tempo, 702083
1, 79620, Tempo, 698162
1, 79640, Tempo, 694123
1, 79668, Note_on_c, 0, 71, 0
1, 79668, Note_on_c, 0, 59, 0
1, 79680, Tempo, 698162
1, 79680, Note_on_c, 0, 68, 0
1, 79680, Note_on_c, 0, 63, 0
1, 79680, Note_on_c, 0, 44, 0
1, 79680, Note_on_c, 0, 32, 0
1, 79680, Note_on_c, 0, 63, 88
1, 79680, Note_on_c, 0, 67, 92
1, 79680, Note_on_c, 0, 59, 74
1, 79680, Note_on_c, 0, 71, 88
1, 79680, Note_on_c, 0, 39, 71
1, 79680, Note_on_c, 0, 51, 84
1, 79695, Control_c, 0, 64, 0
1, 79700, Tempo, 702083
1, 79720, Tempo, 706215
1, 79740, Tempo, 710311
1, 79800, Tempo, 702083
1, 79820, Tempo, 694123
1, 79849, Control_c, 0, 64, 127
1, 79860, Tempo, 686263
1, 79880, Tempo, 694123
1, 79900, Tempo, 698162
1, 79908, Note_on_c, 0, 71, 0
1, 79908, Note_on_c, 0, 59, 0
1, 79920, Note_on_c, 0, 59, 70
1, 79920, Note_on_c, 0, 71, 83
1, 79940, Tempo, 702083
1, 79960, Tempo, 710311
1, 80020, Tempo, 706215
1, 80040, Tempo, 702083
1, 80060, Tempo, 698162
1, 80080, Tempo, 694123
1, 80100, Tempo, 690211
1, 80120, Tempo, 702083
1, 80140, Tempo, 706215
1, 80148, Note_on_c, 0, 71, 0
1, 80148, Note_on_c, 0, 59, 0
1, 80160, Note_on_c, 0, 59, 70
1, 80160, Note_on_c, 0, 71, 83
1, 80320, Tempo, 702083
1, 80388, Note_on_c, 0, 71, 0
1, 80388, Note_on_c, 0, 59, 0
1, 80400, Tempo, 736196
1, 80400, Note_on_c, 0, 59, 66
1, 80400, Note_on_c, 0, 71, 79
1, 80628, Note_on_c, 0, 71, 0
1, 80628, Note_on_c, 0, 59, 0
1, 80640, Tempo, 706215
1, 80640, Note_on_c, 0, 67, 0
1, 80640, Note_on_c, 0, 63, 0
1, 80640, Note_on_c, 0, 51, 0
1, 80640, Note_on_c, 0, 39, 0
1, 80640, Note_on_c, 0, 63, 74
1, 80640, Note_on_c, 0, 68, 74
1, 80640, Note_on_c, 0, 59, 62
1, 80640, Note_on_c, 0, 71, 88
1, 80640, Note_on_c, 0, 32, 67
1, 80640, Note_on_c, 0, 44, 79
1, 80652, Control_c, 0, 64, 0
1, 80795, Control_c, 0, 64, 127
1, 80880, Tempo, 714456
1, 80880, Note_on_c, 0, 71, 0
1, 80880, Note_on_c, 0, 59, 0
1, 80880, Note_on_c, 0, 63, 0
1, 80880, Note_on_c, 0, 68, 0
1, 80880, Note_on_c, 0, 56, 63
1, 81108, Note_on_c, 0, 56, 0
1, 81120, Tempo, 723066
1, 81120, Note_on_c, 0, 56, 57
1, 81348, Note_on_c, 0, 56, 0
1, 81360, Note_on_c, 0, 56, 49
1, 81588, Note_on_c, 0, 56, 0
1, 81600, Tempo, 714456
1, 81600, Note_on_c, 0, 44, 0
1, 81600, Note_on_c, 0, 32, 0
1, 81600, Note_on_c, 0, 56, 46
1, 81614, Control_c, 0, 64, 0
1, 81620, Tempo, 710311
1, 81640, Tempo, 706215
1, 81660, Tempo, 710311
1, 81680, Tempo, 718735
1, 81700, Tempo, 723066
1, 81828, Note_on_c, 0, 56, 0
1, 81840, Note_on_c, 0, 56, 42
1, 81880, Tempo, 714456
1, 81920, Tempo, 710311
1, 81940, Tempo, 706215
1, 81960, Tempo, 723066
1, 81980, Tempo, 727361
1, 82020, Tempo, 723066
1, 82040, Tempo, 718735
1, 82060, Tempo, 714456
1, 82068, Note_on_c, 0, 56, 0
1, 82080, Note_on_c, 0, 56, 39
1, 82100, Tempo, 710311
1, 82120, Tempo, 706215
1, 82140, Tempo, 714456
1, 82160, Tempo, 718735
1, 82180, Tempo, 723066
1, 82260, Tempo, 718735
1, 82280, Tempo, 706215
1, 82300, Tempo, 702083
1, 82308, Note_on_c, 0, 56, 0
1, 82320, Note_on_c, 0, 56, 36
1, 82340, Tempo, 714456
1, 82360, Tempo, 718735
1, 82380, Tempo, 727361
1, 82460, Tempo, 723066
1, 82480, Tempo, 718735
1, 82500, Tempo, 714456
1, 82520, Tempo, 710311
1, 82548, Note_on_c, 0, 56, 0
1, 82560, Tempo, 742023
1, 82560, Note_on_c, 0, 56, 35
1, 82560, Note_on_c, 0, 37, 29
1, 82560, Note_on_c, 0, 44, 35
1, 82645, Control_c, 0, 64, 127
1, 82788, Note_on_c, 0, 56, 0
1, 82800, Note_on_c, 0, 56, 33
1, 83020, Tempo, 719683
1, 83028, Note_on_c, 0, 56, 0
1, 83040, Tempo, 715393
1, 83040, Note_on_c, 0, 44, 0
1, 83040, Note_on_c, 0, 37, 0
1, 83040, Note_on_c, 0, 56, 33
1, 83040, Note_on_c, 0, 39, 26
1, 83040, Note_on_c, 0, 44, 31
1, 83051, Control_c, 0, 64, 0
1, 83060, Tempo, 711069
1, 83080, Tempo, 706964
1, 83120, Tempo, 728509
1, 83180, Tempo, 724113
1, 83200, Tempo, 719683
1, 83209, Control_c, 0, 64, 127
1, 83240, Tempo, 711069
1, 83268, Note_on_c, 0, 56, 0
1, 83280, Tempo, 724113
1, 83280, Note_on_c, 0, 56, 33
1, 83300, Tempo, 728509
1, 83320, Tempo, 732959
1, 83360, Tempo, 728509
1, 83380, Tempo, 724113
1, 83400, Tempo, 715393
1, 83440, Tempo, 711069
1, 83460, Tempo, 706964
1, 83480, Tempo, 715393
1, 83500, Tempo, 728509
1, 83508, Note_on_c, 0, 56, 0
1, 83520, Note_on_c, 0, 44, 0
1, 83520, Note_on_c, 0, 39, 0
1, 83520, Note_on_c, 0, 56, 35
1, 83520, Note_on_c, 0, 40, 29
1, 83520, Note_on_c, 0, 49, 35
1, 83534, Control_c, 0, 64, 0
1, 83540, Tempo, 732959
1, 83560, Tempo, 724113
1, 83580, Tempo, 719683
1, 83600, Tempo, 715393
1, 83620, Tempo, 711069
1, 83660, Tempo, 715393
1, 83680, Tempo, 724113
1, 83700, Tempo, 728509
1, 83718, Control_c, 0, 64, 127
1, 83740, Tempo, 724113
1, 83748, Note_on_c, 0, 56, 0
1, 83760, Note_on_c, 0, 56, 33
1, 83988, Note_on_c, 0, 56, 0
1, 84000, Tempo, 742023
1, 84000, Note_on_c, 0, 49, 0
1, 84000, Note_on_c, 0, 40, 0
1, 84000, Note_on_c, 0, 56, 31
1, 84000, Note_on_c, 0, 39, 27
1, 84000, Note_on_c, 0, 48, 33
1, 84011, Control_c, 0, 64, 0
1, 84169, Control_c, 0, 64, 127
1, 84228, Note_on_c, 0, 56, 0
1, 84240, Note_on_c, 0, 56, 31
1, 84468, Note_on_c, 0, 56, 0
1, 84480, Note_on_c, 0, 48, 0
1, 84480, Note_on_c, 0, 39, 0
1, 84480, Note_on_c, 0, 56, 39
1, 84480, Note_on_c, 0, 39, 33
1, 84480, Note_on_c, 0, 44, 39
1, 84487, Control_c, 0, 64, 0
1, 84593, Control_c, 0, 64, 127
1, 84708, Note_on_c, 0, 56, 0
1, 84720, Note_on_c, 0, 56, 36
1, 84948, Note_on_c, 0, 56, 0
1, 84960, Tempo, 711069
1, 84960, Note_on_c, 0, 44, 0
1, 84960, Note_on_c, 0, 39, 0
1, 84960, Note_on_c, 0, 56, 37
1, 84960, Note_on_c, 0, 40, 29
1, 84960, Note_on_c, 0, 44, 35
1, 84975, Control_c, 0, 64, 0
1, 85115, Control_c, 0, 64, 127
1, 85188, Note_on_c, 0, 56, 0
1, 85200, Note_on_c, 0, 56, 37
1, 85428, Note_on_c, 0, 56, 0
1, 85440, Tempo, 724113
1, 85440, Note_on_c, 0, 44, 0
1, 85440, Note_on_c, 0, 40, 0
1, 85440, Note_on_c, 0, 56, 45
1, 85440, Note_on_c, 0, 42, 35
1, 85440, Note_on_c, 0, 51, 41
1, 85451, Control_c, 0, 64, 0
1, 85609, Control_c, 0, 64, 127
1, 85668, Note_on_c, 0, 56, 0
1, 85680, Note_on_c, 0, 56, 38
1, 85908, Note_on_c, 0, 56, 0
1, 85920, Tempo, 737463
1, 85920, Note_on_c, 0, 51, 0
1, 85920, Note_on_c, 0, 42, 0
1, 85920, Note_on_c, 0, 56, 35
1, 85920, Note_on_c, 0, 40, 31
1, 85920, Note_on_c, 0, 49, 38
1, 85935, Control_c, 0, 64, 0
1, 86075, Control_c, 0, 64, 127
1, 86148, Note_on_c, 0, 56, 0
1, 86160, Note_on_c, 0, 56, 36
1, 86388, Note_on_c, 0, 56, 0
1, 86400, Tempo, 724113
1, 86400, Note_on_c, 0, 49, 0
1, 86400, Note_on_c, 0, 40, 0
1, 86400, Note_on_c, 0, 56, 49
1, 86400, Note_on_c, 0, 40, 38
1, 86400, Note_on_c, 0, 49, 46
1, 86410, Control_c, 0, 64, 0
1, 86513, Control_c, 0, 64, 127
1, 86628, Note_on_c, 0, 56, 0
1, 86640, Note_on_c, 0, 56, 42
1, 86868, Note_on_c, 0, 56, 0
1, 86880, Tempo, 706964
1, 86880, Note_on_c, 0, 49, 0
1, 86880, Note_on_c, 0, 40, 0
1, 86880, Note_on_c, 0, 56, 42
1, 86880, Note_on_c, 0, 44, 38
1, 86880, Note_on_c, 0, 51, 46
1, 86892, Control_c, 0, 64, 0
1, 87007, Control_c, 0, 64, 127
1, 87108, Note_on_c, 0, 56, 0
1, 87120, Note_on_c, 0, 56, 42
1, 87348, Note_on_c, 0, 56, 0
1, 87360, Tempo, 719683
1, 87360, Note_on_c, 0, 51, 0
1, 87360, Note_on_c, 0, 44, 0
1, 87360, Note_on_c, 0, 56, 49
1, 87360, Note_on_c, 0, 49, 41
1, 87360, Note_on_c, 0, 52, 49
1, 87374, Control_c, 0, 64, 0
1, 87515, Control_c, 0, 64, 127
1, 87588, Note_on_c, 0, 56, 0
1, 87600, Note_on_c, 0, 56, 40
1, 87828, Note_on_c, 0, 56, 0
1, 87840, Tempo, 746733
1, 87840, Note_on_c, 0, 52, 0
1, 87840, Note_on_c, 0, 49, 0
1, 87840, Note_on_c, 0, 56, 39
1, 87840, Note_on_c, 0, 44, 38
1, 87840, Note_on_c, 0, 51, 46
1, 87852, Control_c, 0, 64, 0
1, 88009, Control_c, 0, 64, 127
1, 88068, Note_on_c, 0, 56, 0
1, 88080, Note_on_c, 0, 56, 39
1, 88308, Note_on_c, 0, 56, 0
1, 88320, Note_on_c, 0, 51, 0
1, 88320, Note_on_c, 0, 44, 0
1, 88320, Note_on_c, 0, 56, 49
1, 88320, Note_on_c, 0, 44, 39
1, 88320, Note_on_c, 0, 51, 47
1, 88334, Control_c, 0, 64, 0
1, 88489, Control_c, 0, 64, 127
1, 88548, Note_on_c, 0, 56, 0
1, 88560, Tempo, 732959
1, 88560, Note_on_c, 0, 56, 40
1, 88788, Note_on_c, 0, 56, 0
1, 88800, Tempo, 690449
1, 88800, Note_on_c, 0, 56, 42
1, 89028, Note_on_c, 0, 56, 0
1, 89040, Tempo, 716846
1, 89040, Note_on_c, 0, 56, 41
1, 89268, Note_on_c, 0, 56, 0
1, 89280, Tempo, 711069
1, 89280, Note_on_c, 0, 56, 42
1, 89508, Note_on_c, 0, 56, 0
1, 89520, Note_on_c, 0, 56, 41
1, 89748, Note_on_c, 0, 56, 0
1, 89760, Tempo, 684151
1, 89760, Note_on_c, 0, 56, 40
1, 89988, Note_on_c, 0, 56, 0
1, 90000, Tempo, 710059
1, 90000, Note_on_c, 0, 56, 40
1, 90228, Note_on_c, 0, 56, 0
1, 90240, Tempo, 719683
1, 90240, Note_on_c, 0, 56, 44
1, 90468, Note_on_c, 0, 56, 0
1, 90480, Note_on_c, 0, 56, 39
1, 90708, Note_on_c, 0, 56, 0
1, 90720, Tempo, 711069
1, 90720, Note_on_c, 0, 51, 0
1, 90720, Note_on_c, 0, 44, 0
1, 90720, Note_on_c, 0, 56, 39
1, 90720, Note_on_c, 0, 49, 33
1, 90720, Note_on_c, 0, 52, 39
1, 90731, Control_c, 0, 64, 0
1, 90760, Tempo, 698649
1, 90800, Tempo, 694605
1, 90820, Tempo, 690528
1, 90840, Tempo, 694605
1, 90860, Tempo, 711069
1, 90861, Control_c, 0, 64, 127
1, 90948, Note_on_c, 0, 56, 0
1, 90960, Tempo, 706964
1, 90960, Note_on_c, 0, 56, 37
1, 90980, Tempo, 698649
1, 91060, Tempo, 706964
1, 91080, Tempo, 711069
1, 91120, Tempo, 715393
1, 91160, Tempo, 711069
1, 91188, Note_on_c, 0, 56, 0
1, 91200, Tempo, 698649
1, 91200, Note_on_c, 0, 52, 0
1, 91200, Note_on_c, 0, 49, 0
1, 91200, Note_on_c, 0, 56, 41
1, 91200, Note_on_c, 0, 44, 35
1, 91200, Note_on_c, 0, 51, 41
1, 91211, Control_c, 0, 64, 0
1, 91220, Tempo, 694605
1, 91240, Tempo, 706964
1, 91260, Tempo, 711069
1, 91280, Tempo, 719683
1, 91355, Control_c, 0, 64, 127
1, 91400, Tempo, 711069
1, 91420, Tempo, 706964
1, 91428, Note_on_c, 0, 56, 0
1, 91440, Tempo, 698649
1, 91440, Note_on_c, 0, 56, 37
1, 91460, Tempo, 694605
1, 91520, Tempo, 698649
1, 91540, Tempo, 702741
1, 91668, Note_on_c, 0, 56, 0
1, 91680, Tempo, 724113
1, 91680, Note_on_c, 0, 51, 0
1, 91680, Note_on_c, 0, 44, 0
1, 91680, Note_on_c, 0, 56, 35
1, 91680, Note_on_c, 0, 40, 30
1, 91680, Note_on_c, 0, 49, 37
1, 91695, Control_c, 0, 64, 0
1, 91864, Control_c, 0, 64, 127
1, 91908, Note_on_c, 0, 56, 0
1, 91920, Note_on_c, 0, 56, 35
1, 92148, Note_on_c, 0, 56, 0
1, 92160, Tempo, 711069
1, 92160, Note_on_c, 0, 49, 0
1, 92160, Note_on_c, 0, 40, 0
1, 92160, Note_on_c, 0, 56, 40
1, 92160, Note_on_c, 0, 44, 35
1, 92160, Note_on_c, 0, 51, 41
1, 92169, Control_c, 0, 64, 0
1, 92273, Control_c, 0, 64, 127
1, 92388, Note_on_c, 0, 56, 0
1, 92400, Note_on_c, 0, 56, 35
1, 92628, Note_on_c, 0, 56, 0
1, 92640, Tempo, 728509
1, 92640, Note_on_c, 0, 51, 0
1, 92640, Note_on_c, 0, 44, 0
1, 92640, Note_on_c, 0, 56, 35
1, 92640, Note_on_c, 0, 40, 30
1, 92640, Note_on_c, 0, 49, 37
1, 92655, Control_c, 0, 64, 0
1, 92795, Control_c, 0, 64, 127
1, 92868, Note_on_c, 0, 56, 0
1, 92880, Note_on_c, 0, 56, 31
1, 93100, Tempo, 715393
1, 93108, Note_on_c, 0, 56, 0
1, 93120, Note_on_c, 0, 49, 0
1, 93120, Note_on_c, 0, 40, 0
1, 93120, Note_on_c, 0, 56, 38
1, 93120, Note_on_c, 0, 39, 31
1, 93120, Note_on_c, 0, 48, 38
1, 93132, Control_c, 0, 64, 0
1, 93140, Tempo, 711069
1, 93180, Tempo, 706964
1, 93220, Tempo, 702741
1, 93240, Tempo, 706964
1, 93260, Tempo, 719683
1, 93275, Control_c, 0, 64, 127
1, 93280, Tempo, 724113
1, 93300, Tempo, 732959
1, 93320, Tempo, 728509
1, 93340, Tempo, 724113
1, 93348, Note_on_c, 0, 56, 0
1, 93360, Tempo, 715393
1, 93360, Note_on_c, 0, 56, 35
1, 93400, Tempo, 711069
1, 93460, Tempo, 706964
1, 93500, Tempo, 715393
1, 93520, Tempo, 728509
1, 93588, Note_on_c, 0, 56, 0
1, 93600, Note_on_c, 0, 48, 0
1, 93600, Note_on_c, 0, 39, 0
1, 93600, Note_on_c, 0, 56, 35
1, 93600, Note_on_c, 0, 40, 29
1, 93600, Note_on_c, 0, 49, 35
1, 93611, Control_c, 0, 64, 0
1, 93660, Tempo, 715393
1, 93680, Tempo, 706964
1, 93700, Tempo, 702741
1, 93720, Tempo, 698649
1, 93740, Tempo, 702741
1, 93755, Control_c, 0, 64, 127
1, 93828, Note_on_c, 0, 56, 0
1, 93840, Note_on_c, 0, 56, 33
1, 93860, Tempo, 711069
1, 93880, Tempo, 719683
1, 93920, Tempo, 715393
1, 93940, Tempo, 711069
1, 93960, Tempo, 706964
1, 93980, Tempo, 702741
1, 94020, Tempo, 711069
1, 94040, Tempo, 719683
1, 94060, Tempo, 724113
1, 94068, Note_on_c, 0, 56, 0
1, 94080, Tempo, 728509
1, 94080, Note_on_c, 0, 49, 0
1, 94080, Note_on_c, 0, 40, 0
1, 94080, Note_on_c, 0, 56, 38
1, 94080, Note_on_c, 0, 39, 33
1, 94080, Note_on_c, 0, 48, 39
1, 94090, Control_c, 0, 64, 0
1, 94120, Tempo, 724113
1, 94140, Tempo, 719683
1, 94160, Tempo, 715393
1, 94165, Control_c, 0, 64, 127
1, 94200, Tempo, 711069
1, 94220, Tempo, 702741
1, 94240, Tempo, 698649
1, 94280, Tempo, 706964
1, 94300, Tempo, 715393
1, 94308, Note_on_c, 0, 56, 0
1, 94320, Tempo, 719683
1, 94320, Note_on_c, 0, 56, 40
1, 94360, Tempo, 724113
1, 94380, Tempo, 728509
1, 94440, Tempo, 719683
1, 94500, Tempo, 715393
1, 94548, Note_on_c, 0, 56, 0
1, 94560, Tempo, 719683
1, 94560, Note_on_c, 0, 48, 0
1, 94560, Note_on_c, 0, 39, 0
1, 94560, Note_on_c, 0, 56, 41
1, 94560, Note_on_c, 0, 40, 30
1, 94560, Note_on_c, 0, 49, 37
1, 94574, Control_c, 0, 64, 0
1, 94701, Control_c, 0, 64, 127
1, 94788, Note_on_c, 0, 56, 0
1, 94800, Note_on_c, 0, 56, 44
1, 95028, Note_on_c, 0, 56, 0
1, 95040, Tempo, 711069
1, 95040, Note_on_c, 0, 49, 0
1, 95040, Note_on_c, 0, 40, 0
1, 95040, Note_on_c, 0, 56, 46
1, 95040, Note_on_c, 0, 39, 34
1, 95040, Note_on_c, 0, 51, 40
1, 95051, Control_c, 0, 64, 0
1, 95209, Control_c, 0, 64, 127
1, 95268, Note_on_c, 0, 56, 0
1, 95280, Note_on_c, 0, 56, 48
1, 95508, Note_on_c, 0, 56, 0
1, 95520, Tempo, 732959
1, 95520, Note_on_c, 0, 51, 0
1, 95520, Note_on_c, 0, 39, 0
1, 95520, Note_on_c, 0, 56, 49
1, 95520, Note_on_c, 0, 37, 37
1, 95520, Note_on_c, 0, 52, 45
1, 95535, Control_c, 0, 64, 0
1, 95704, Control_c, 0, 64, 127
1, 95748, Note_on_c, 0, 56, 0
1, 95760, Note_on_c, 0, 56, 51
1, 95988, Note_on_c, 0, 56, 0
1, 96000, Tempo, 694123
1, 96000, Note_on_c, 0, 52, 0
1, 96000, Note_on_c, 0, 37, 0
1, 96000, Note_on_c, 0, 56, 53
1, 96000, Note_on_c, 0, 44, 40
1, 96000, Note_on_c, 0, 51, 48
1, 96010, Control_c, 0, 64, 0
1, 96155, Control_c, 0, 64, 127
1, 96228, Note_on_c, 0, 56, 0
1, 96240, Tempo, 714456
1, 96240, Note_on_c, 0, 68, 53
1, 96240, Note_on_c, 0, 56, 45
1, 96468, Note_on_c, 0, 56, 0
1, 96468, Note_on_c, 0, 68, 0
1, 96480, Tempo, 706215
1, 96480, Note_on_c, 0, 68, 55
1, 96480, Note_on_c, 0, 56, 46
1, 96708, Note_on_c, 0, 56, 0
1, 96708, Note_on_c, 0, 68, 0
1, 96720, Note_on_c, 0, 68, 56
1, 96720, Note_on_c, 0, 56, 47
1, 96948, Note_on_c, 0, 56, 0
1, 96948, Note_on_c, 0, 68, 0
1, 96960, Tempo, 690211
1, 96960, Note_on_c, 0, 68, 57
1, 96960, Note_on_c, 0, 56, 48
1, 97020, Tempo, 694123
1, 97080, Tempo, 698162
1, 97120, Tempo, 702083
1, 97180, Tempo, 706215
1, 97188, Note_on_c, 0, 56, 0
1, 97188, Note_on_c, 0, 68, 0
1, 97200, Note_on_c, 0, 68, 59
1, 97200, Note_on_c, 0, 56, 49
1, 97220, Tempo, 710311
1, 97280, Tempo, 714456
1, 97320, Tempo, 718735
1, 97380, Tempo, 723066
1, 97420, Tempo, 727361
1, 97428, Note_on_c, 0, 56, 0
1, 97428, Note_on_c, 0, 68, 0
1, 97440, Tempo, 723066
1, 97440, Note_on_c, 0, 68, 60
1, 97440, Note_on_c, 0, 56, 50
1, 97668, Note_on_c, 0, 56, 0
1, 97668, Note_on_c, 0, 68, 0
1, 97680, Note_on_c, 0, 68, 61
1, 97680, Note_on_c, 0, 56, 51
1, 97908, Note_on_c, 0, 56, 0
1, 97908, Note_on_c, 0, 68, 0
1, 97920, Tempo, 694123
1, 97920, Note_on_c, 0, 51, 0
1, 97920, Note_on_c, 0, 44, 0
1, 97920, Note_on_c, 0, 68, 61
1, 97920, Note_on_c, 0, 56, 51
1, 97920, Note_on_c, 0, 37, 52
1, 97920, Note_on_c, 0, 44, 62
1, 97928, Control_c, 0, 64, 0
1, 98047, Control_c, 0, 64, 127
1, 98148, Note_on_c, 0, 56, 0
1, 98148, Note_on_c, 0, 68, 0
1, 98160, Tempo, 702083
1, 98160, Note_on_c, 0, 68, 59
1, 98160, Note_on_c, 0, 56, 49
1, 98380, Tempo, 678656
1, 98388, Note_on_c, 0, 56, 0
1, 98388, Note_on_c, 0, 68, 0
1, 98400, Note_on_c, 0, 37, 0
1, 98400, Note_on_c, 0, 44, 0
1, 98400, Note_on_c, 0, 68, 59
1, 98400, Note_on_c, 0, 56, 49
1, 98400, Note_on_c, 0, 39, 51
1, 98400, Note_on_c, 0, 44, 61
1, 98414, Control_c, 0, 64, 0
1, 98555, Control_c, 0, 64, 127
1, 98628, Note_on_c, 0, 56, 0
1, 98628, Note_on_c, 0, 68, 0
1, 98640, Tempo, 710311
1, 98640, Note_on_c, 0, 68, 59
1, 98640, Note_on_c, 0, 56, 49
1, 98760, Tempo, 768246
1, 98868, Note_on_c, 0, 56, 0
1, 98868, Note_on_c, 0, 68, 0
1, 98880, Tempo, 716846
1, 98880, Note_on_c, 0, 39, 0
1, 98880, Note_on_c, 0, 44, 0
1, 98880, Note_on_c, 0, 61, 67
1, 98880, Note_on_c, 0, 68, 61
1, 98880, Note_on_c, 0, 56, 52
1, 98880, Note_on_c, 0, 40, 56
1, 98880, Note_on_c, 0, 49, 67
1, 98894, Control_c, 0, 64, 0
1, 98993, Control_c, 0, 64, 127
1, 99108, Note_on_c, 0, 56, 0
1, 99108, Note_on_c, 0, 68, 0
1, 99120, Tempo, 694123
1, 99120, Note_on_c, 0, 68, 60
1, 99120, Note_on_c, 0, 56, 50
1, 99348, Note_on_c, 0, 56, 0
1, 99348, Note_on_c, 0, 68, 0
1, 99360, Tempo, 710311
1, 99360, Note_on_c, 0, 49, 0
1, 99360, Note_on_c, 0, 40, 0
1, 99360, Note_on_c, 0, 61, 0
1, 99360, Note_on_c, 0, 60, 59
1, 99360, Note_on_c, 0, 68, 58
1, 99360, Note_on_c, 0, 56, 48
1, 99360, Note_on_c, 0, 39, 52
1, 99360, Note_on_c, 0, 48, 62
1, 99374, Control_c, 0, 64, 0
1, 99501, Control_c, 0, 64, 127
1, 99588, Note_on_c, 0, 56, 0
1, 99588, Note_on_c, 0, 68, 0
1, 99600, Note_on_c, 0, 68, 58
1, 99600, Note_on_c, 0, 56, 48
1, 99828, Note_on_c, 0, 56, 0
1, 99828, Note_on_c, 0, 68, 0
1, 99840, Tempo, 682361
1, 99840, Note_on_c, 0, 48, 0
1, 99840, Note_on_c, 0, 39, 0
1, 99840, Note_on_c, 0, 60, 0
1, 99840, Note_on_c, 0, 68, 64
1, 99840, Note_on_c, 0, 56, 55
1, 99840, Note_on_c, 0, 39, 57
1, 99840, Note_on_c, 0, 44, 67
1, 99849, Control_c, 0, 64, 0
1, 100010, Control_c, 0, 64, 127
1, 100068, Note_on_c, 0, 56, 0
1, 100068, Note_on_c, 0, 68, 0
1, 100080, Tempo, 706215
1, 100080, Note_on_c, 0, 68, 61
1, 100080, Note_on_c, 0, 56, 51
1, 100308, Note_on_c, 0, 56, 0
1, 100308, Note_on_c, 0, 68, 0
1, 100320, Tempo, 690211
1, 100320, Note_on_c, 0, 39, 0
1, 100320, Note_on_c, 0, 44, 0
1, 100320, Note_on_c, 0, 68, 61
1, 100320, Note_on_c, 0, 56, 51
1, 100320, Note_on_c, 0, 40, 56
1, 100320, Note_on_c, 0, 44, 66
1, 100332, Control_c, 0, 64, 0
1, 100461, Control_c, 0, 64, 127
1, 100548, Note_on_c, 0, 56, 0
1, 100548, Note_on_c, 0, 68, 0
1, 100560, Tempo, 710311
1, 100560, Note_on_c, 0, 68, 61
1, 100560, Note_on_c, 0, 56, 51
1, 100680, Tempo, 730816
1, 100788, Note_on_c, 0, 56, 0
1, 100788, Note_on_c, 0, 68, 0
1, 100800, Tempo, 710059
1, 100800, Note_on_c, 0, 40, 0
1, 100800, Note_on_c, 0, 44, 0
1, 100800, Note_on_c, 0, 63, 71
1, 100800, Note_on_c, 0, 68, 66
1, 100800, Note_on_c, 0, 56, 56
1, 100800, Note_on_c, 0, 42, 60
1, 100800, Note_on_c, 0, 51, 71
1, 100814, Control_c, 0, 64, 0
1, 100927, Control_c, 0, 64, 127
1, 101028, Note_on_c, 0, 56, 0
1, 101028, Note_on_c, 0, 68, 0
1, 101040, Tempo, 702083
1, 101040, Note_on_c, 0, 68, 61
1, 101040, Note_on_c, 0, 56, 51
1, 101268, Note_on_c, 0, 56, 0
1, 101268, Note_on_c, 0, 68, 0
1, 101280, Note_on_c, 0, 51, 0
1, 101280, Note_on_c, 0, 42, 0
1, 101280, Note_on_c, 0, 63, 0
1, 101280, Note_on_c, 0, 61, 68
1, 101280, Note_on_c, 0, 68, 61
1, 101280, Note_on_c, 0, 56, 51
1, 101280, Note_on_c, 0, 40, 57
1, 101280, Note_on_c, 0, 49, 68
1, 101292, Control_c, 0, 64, 0
1, 101421, Control_c, 0, 64, 127
1, 101508, Note_on_c, 0, 56, 0
1, 101508, Note_on_c, 0, 68, 0
1, 101520, Tempo, 727361
1, 101520, Note_on_c, 0, 68, 61
1, 101520, Note_on_c, 0, 56, 51
1, 101748, Note_on_c, 0, 56, 0
1, 101748, Note_on_c, 0, 68, 0
1, 101760, Tempo, 690211
1, 101760, Note_on_c, 0, 49, 0
1, 101760, Note_on_c, 0, 40, 0
1, 101760, Note_on_c, 0, 68, 74
1, 101760, Note_on_c, 0, 56, 62
1, 101760, Note_on_c, 0, 40, 59
1, 101760, Note_on_c, 0, 49, 70
1, 101769, Control_c, 0, 64, 0
1, 101866, Control_c, 0, 64, 127
1, 101988, Note_on_c, 0, 56, 0
1, 101988, Note_on_c, 0, 68, 0
1, 102000, Tempo, 706215
1, 102000, Note_on_c, 0, 68, 68
1, 102000, Note_on_c, 0, 56, 57
1, 102228, Note_on_c, 0, 56, 0
1, 102228, Note_on_c, 0, 68, 0
1, 102240, Tempo, 706215
1, 102240, Note_on_c, 0, 49, 0
1, 102240, Note_on_c, 0, 40, 0
1, 102240, Note_on_c, 0, 61, 0
1, 102240, Note_on_c, 0, 63, 73
1, 102240, Note_on_c, 0, 68, 68
1, 102240, Note_on_c, 0, 56, 57
1, 102240, Note_on_c, 0, 44, 61
1, 102240, Note_on_c, 0, 51, 73
1, 102254, Control_c, 0, 64, 0
1, 102320, Tempo, 702083
1, 102353, Control_c, 0, 64, 127
1, 102380, Tempo, 698162
1, 102460, Tempo, 706215
1, 102468, Note_on_c, 0, 56, 0
1, 102468, Note_on_c, 0, 68, 0
1, 102480, Tempo, 718735
1, 102480, Note_on_c, 0, 68, 68
1, 102480, Note_on_c, 0, 56, 57
1, 102520, Tempo, 714456
1, 102540, Tempo, 710311
1, 102560, Tempo, 706215
1, 102580, Tempo, 702083
1, 102600, Tempo, 694123
1, 102620, Tempo, 690211
1, 102640, Tempo, 686263
1, 102660, Tempo, 690211
1, 102680, Tempo, 698162
1, 102700, Tempo, 706215
1, 102708, Note_on_c, 0, 56, 0
1, 102708, Note_on_c, 0, 68, 0
1, 102720, Tempo, 714456
1, 102720, Note_on_c, 0, 51, 0
1, 102720, Note_on_c, 0, 44, 0
1, 102720, Note_on_c, 0, 63, 0
1, 102720, Note_on_c, 0, 64, 78
1, 102720, Note_on_c, 0, 68, 69
1, 102720, Note_on_c, 0, 56, 58
1, 102720, Note_on_c, 0, 49, 66
1, 102720, Note_on_c, 0, 52, 78
1, 102735, Control_c, 0, 64, 0
1, 102840, Tempo, 698162
1, 102860, Tempo, 690211
1, 102861, Control_c, 0, 64, 127
1, 102900, Tempo, 698162
1, 102940, Tempo, 706215
1, 102948, Note_on_c, 0, 56, 0
1, 102948, Note_on_c, 0, 68, 0
1, 102960, Tempo, 710311
1, 102960, Note_on_c, 0, 68, 68
1, 102960, Note_on_c, 0, 56, 57
1, 103040, Tempo, 706215
1, 103080, Tempo, 702083
1, 103100, Tempo, 694123
1, 103140, Tempo, 698162
1, 103160, Tempo, 706215
1, 103180, Tempo, 710311
1, 103188, Note_on_c, 0, 56, 0
1, 103188, Note_on_c, 0, 68, 0
1, 103200, Tempo, 706215
1, 103200, Note_on_c, 0, 52, 0
1, 103200, Note_on_c, 0, 49, 0
1, 103200, Note_on_c, 0, 64, 0
1, 103200, Note_on_c, 0, 63, 73
1, 103200, Note_on_c, 0, 68, 68
1, 103200, Note_on_c, 0, 56, 57
1, 103200, Note_on_c, 0, 44, 61
1, 103200, Note_on_c, 0, 51, 73
1, 103212, Control_c, 0, 64, 0
1, 103240, Tempo, 702083
1, 103285, Control_c, 0, 64, 127
1, 103428, Note_on_c, 0, 56, 0
1, 103428, Note_on_c, 0, 68, 0
1, 103440, Tempo, 749813
1, 103440, Note_on_c, 0, 68, 68
1, 103440, Note_on_c, 0, 56, 57
1, 103560, Note_on_c, 0, 51, 0
1, 103560, Note_on_c, 0, 44, 0
1, 103560, Note_on_c, 0, 32, 82
1, 103573, Control_c, 0, 64, 0
1, 103656, Control_c, 0, 64, 127
1, 103668, Note_on_c, 0, 56, 0
1, 103668, Note_on_c, 0, 68, 0
1, 103680, Tempo, 706215
1, 103680, Note_on_c, 0, 63, 0
1, 103680, Note_on_c, 0, 32, 0
1, 103680, Note_on_c, 0, 63, 74
1, 103680, Note_on_c, 0, 68, 79
1, 103680, Note_on_c, 0, 56, 67
1, 103680, Note_on_c, 0, 44, 62
1, 103680, Note_on_c, 0, 51, 74
1, 103700, Tempo, 702083
1, 103760, Tempo, 698162
1, 103780, Tempo, 694123
1, 103820, Tempo, 690211
1, 103840, Tempo, 702083
1, 103860, Tempo, 710311
1, 103900, Tempo, 706215
1, 103908, Note_on_c, 0, 56, 0
1, 103908, Note_on_c, 0, 68, 0
1, 103920, Tempo, 702083
1, 103920, Note_on_c, 0, 68, 74
1, 103920, Note_on_c, 0, 56, 62
1, 103940, Tempo, 698162
1, 103960, Tempo, 694123
1, 104000, Tempo, 698162
1, 104020, Tempo, 702083
1, 104040, Tempo, 710311
1, 104120, Tempo, 706215
1, 104140, Tempo, 702083
1, 104148, Note_on_c, 0, 56, 0
1, 104148, Note_on_c, 0, 68, 0
1, 104160, Tempo, 698162
1, 104160, Note_on_c, 0, 68, 77
1, 104160, Note_on_c, 0, 56, 63
1, 104180, Tempo, 694123
1, 104200, Tempo, 690211
1, 104240, Tempo, 698162
1, 104260, Tempo, 702083
1, 104280, Tempo, 706215
1, 104300, Tempo, 710311
1, 104340, Tempo, 702083
1, 104360, Tempo, 698162
1, 104380, Tempo, 694123
1, 104388, Note_on_c, 0, 56, 0
1, 104388, Note_on_c, 0, 68, 0
1, 104400, Tempo, 690211
1, 104400, Note_on_c, 0, 68, 78
1, 104400, Note_on_c, 0, 56, 64
1, 104440, Tempo, 694123
1, 104460, Tempo, 698162
1, 104480, Tempo, 706215
1, 104628, Note_on_c, 0, 56, 0
1, 104628, Note_on_c, 0, 68, 0
1, 104640, Tempo, 718735
1, 104640, Note_on_c, 0, 68, 79
1, 104640, Note_on_c, 0, 56, 66
1, 104680, Tempo, 706215
1, 104760, Tempo, 710311
1, 104840, Tempo, 714456
1, 104868, Note_on_c, 0, 56, 0
1, 104868, Note_on_c, 0, 68, 0
1, 104880, Note_on_c, 0, 68, 78
1, 104880, Note_on_c, 0, 56, 66
1, 104920, Tempo, 718735
1, 105000, Tempo, 723066
1, 105080, Tempo, 727361
1, 105108, Note_on_c, 0, 56, 0
1, 105108, Note_on_c, 0, 68, 0
1, 105120, Note_on_c, 0, 68, 79
1, 105120, Note_on_c, 0, 56, 67
1, 105160, Tempo, 731797
1, 105240, Tempo, 736196
1, 105320, Tempo, 740649
1, 105348, Note_on_c, 0, 56, 0
1, 105348, Note_on_c, 0, 68, 0
1, 105360, Note_on_c, 0, 68, 80
1, 105360, Note_on_c, 0, 56, 68
1, 105400, Tempo, 745249
1, 105480, Tempo, 749813
1, 105520, Tempo, 754527
1, 105588, Note_on_c, 0, 56, 0
1, 105588, Note_on_c, 0, 68, 0
1, 105600, Tempo, 718735
1, 105600, Note_on_c, 0, 51, 0
1, 105600, Note_on_c, 0, 44, 0
1, 105600, Note_on_c, 0, 63, 0
1, 105600, Note_on_c, 0, 64, 88
1, 105600, Note_on_c, 0, 68, 92
1, 105600, Note_on_c, 0, 59, 74
1, 105600, Note_on_c, 0, 71, 88
1, 105600, Note_on_c, 0, 28, 74
1, 105600, Note_on_c, 0, 40, 88
1, 105611, Control_c, 0, 64, 0
1, 105713, Control_c, 0, 64, 127
1, 105828, Note_on_c, 0, 71, 0
1, 105828, Note_on_c, 0, 59, 0
1, 105840, Tempo, 698162
1, 105840, Note_on_c, 0, 59, 70
1, 105840, Note_on_c, 0, 71, 83
1, 106068, Note_on_c, 0, 71, 0
1, 106068, Note_on_c, 0, 59, 0
1, 106080, Note_on_c, 0, 59, 70
1, 106080, Note_on_c, 0, 71, 83
1, 106308, Note_on_c, 0, 71, 0
1, 106308, Note_on_c, 0, 59, 0
1, 106320, Tempo, 718735
1, 106320, Note_on_c, 0, 59, 66
1, 106320, Note_on_c, 0, 71, 79
1, 106548, Note_on_c, 0, 71, 0
1, 106548, Note_on_c, 0, 59, 0
1, 106560, Tempo, 706215
1, 106560, Note_on_c, 0, 68, 0
1, 106560, Note_on_c, 0, 64, 0
1, 106560, Note_on_c, 0, 40, 0
1, 106560, Note_on_c, 0, 28, 0
1, 106560, Note_on_c, 0, 63, 88
1, 106560, Note_on_c, 0, 68, 92
1, 106560, Note_on_c, 0, 59, 74
1, 106560, Note_on_c, 0, 71, 88
1, 106560, Note_on_c, 0, 35, 70
1, 106560, Note_on_c, 0, 47, 83
1, 106575, Control_c, 0, 64, 0
1, 106758, Control_c, 0, 64, 127
1, 106788, Note_on_c, 0, 71, 0
1, 106788, Note_on_c, 0, 59, 0
1, 106800, Tempo, 694123
1, 106800, Note_on_c, 0, 59, 70
1, 106800, Note_on_c, 0, 71, 83
1, 107028, Note_on_c, 0, 71, 0
1, 107028, Note_on_c, 0, 59, 0
1, 107040, Note_on_c, 0, 59, 70
1, 107040, Note_on_c, 0, 71, 83
1, 107268, Note_on_c, 0, 71, 0
1, 107268, Note_on_c, 0, 59, 0
1, 107280, Tempo, 740649
1, 107280, Note_on_c, 0, 59, 66
1, 107280, Note_on_c, 0, 71, 79
1, 107508, Note_on_c, 0, 71, 0
1, 107508, Note_on_c, 0, 59, 0
1, 107520, Tempo, 706215
1, 107520, Note_on_c, 0, 68, 0
1, 107520, Note_on_c, 0, 63, 0
1, 107520, Note_on_c, 0, 47, 0
1, 107520, Note_on_c, 0, 35, 0
1, 107520, Note_on_c, 0, 64, 88
1, 107520, Note_on_c, 0, 68, 92
1, 107520, Note_on_c, 0, 59, 74
1, 107520, Note_on_c, 0, 71, 88
1, 107520, Note_on_c, 0, 28, 74
1, 107520, Note_on_c, 0, 40, 88
1, 107528, Control_c, 0, 64, 0
1, 107634, Control_c, 0, 64, 127
1, 107748, Note_on_c, 0, 71, 0
1, 107748, Note_on_c, 0, 59, 0
1, 107760, Tempo, 690211
1, 107760, Note_on_c, 0, 59, 70
1, 107760, Note_on_c, 0, 71, 83
1, 107988, Note_on_c, 0, 71, 0
1, 107988, Note_on_c, 0, 59, 0
1, 108000, Note_on_c, 0, 59, 70
1, 108000, Note_on_c, 0, 71, 83
1, 108228, Note_on_c, 0, 71, 0
1, 108228, Note_on_c, 0, 59, 0
1, 108240, Tempo, 727361
1, 108240, Note_on_c, 0, 59, 66
1, 108240, Note_on_c, 0, 71, 79
1, 108468, Note_on_c, 0, 71, 0
1, 108468, Note_on_c, 0, 59, 0
1, 108480, Tempo, 706215
1, 108480, Note_on_c, 0, 68, 0
1, 108480, Note_on_c, 0, 64, 0
1, 108480, Note_on_c, 0, 40, 0
1, 108480, Note_on_c, 0, 28, 0
1, 108480, Note_on_c, 0, 63, 88
1, 108480, Note_on_c, 0, 68, 92
1, 108480, Note_on_c, 0, 59, 74
1, 108480, Note_on_c, 0, 71, 88
1, 108480, Note_on_c, 0, 35, 72
1, 108480, Note_on_c, 0, 47, 85
1, 108494, Control_c, 0, 64, 0
1, 108708, Note_on_c, 0, 71, 0
1, 108708, Note_on_c, 0, 59, 0
1, 108709, Control_c, 0, 64, 127
1, 108720, Note_on_c, 0, 59, 70
1, 108720, Note_on_c, 0, 71, 83
1, 108948, Note_on_c, 0, 71, 0
1, 108948, Note_on_c, 0, 59, 0
1, 108960, Tempo, 731797
1, 108960, Note_on_c, 0, 59, 70
1, 108960, Note_on_c, 0, 71, 83
1, 109188, Note_on_c, 0, 71, 0
1, 109188, Note_on_c, 0, 59, 0
1, 109200, Tempo, 810811
1, 109200, Note_on_c, 0, 35, 0
1, 109200, Note_on_c, 0, 47, 0
1, 109200, Note_on_c, 0, 59, 70
1, 109200, Note_on_c, 0, 71, 83
1, 109200, Note_on_c, 0, 34, 74
1, 109200, Note_on_c, 0, 46, 88
1, 109428, Note_on_c, 0, 71, 0
1, 109428, Note_on_c, 0, 59, 0
1, 109440, Tempo, 694123
1, 109440, Note_on_c, 0, 34, 0
1, 109440, Note_on_c, 0, 68, 0
1, 109440, Note_on_c, 0, 46, 0
1, 109440, Note_on_c, 0, 63, 0
1, 109440, Note_on_c, 0, 63, 88
1, 109440, Note_on_c, 0, 68, 92
1, 109440, Note_on_c, 0, 59, 74
1, 109440, Note_on_c, 0, 71, 88
1, 109440, Note_on_c, 0, 32, 74
1, 109440, Note_on_c, 0, 44, 88
1, 109452, Control_c, 0, 64, 0
1, 109652, Control_c, 0, 64, 127
1, 109668, Note_on_c, 0, 71, 0
1, 109668, Note_on_c, 0, 59, 0
1, 109680, Tempo, 706215
1, 109680, Note_on_c, 0, 59, 70
1, 109680, Note_on_c, 0, 71, 83
1, 109908, Note_on_c, 0, 71, 0
1, 109908, Note_on_c, 0, 59, 0
1, 109920, Tempo, 702083
1, 109920, Note_on_c, 0, 59, 70
1, 109920, Note_on_c, 0, 71, 83
1, 109960, Tempo, 698162
1, 110000, Tempo, 694123
1, 110040, Tempo, 702083
1, 110060, Tempo, 718735
1, 110100, Tempo, 714456
1, 110120, Tempo, 706215
1, 110140, Tempo, 702083
1, 110148, Note_on_c, 0, 71, 0
1, 110148, Note_on_c, 0, 59, 0
1, 110160, Tempo, 698162
1, 110160, Note_on_c, 0, 59, 66
1, 110160, Note_on_c, 0, 71, 79
1, 110180, Tempo, 694123
1, 110220, Tempo, 698162
1, 110240, Tempo, 710311
1, 110300, Tempo, 706215
1, 110320, Tempo, 702083
1, 110340, Tempo, 698162
1, 110360, Tempo, 694123
1, 110388, Note_on_c, 0, 71, 0
1, 110388, Note_on_c, 0, 59, 0
1, 110400, Tempo, 698162
1, 110400, Note_on_c, 0, 68, 0
1, 110400, Note_on_c, 0, 63, 0
1, 110400, Note_on_c, 0, 44, 0
1, 110400, Note_on_c, 0, 32, 0
1, 110400, Note_on_c, 0, 63, 88
1, 110400, Note_on_c, 0, 67, 92
1, 110400, Note_on_c, 0, 59, 74
1, 110400, Note_on_c, 0, 71, 88
1, 110400, Note_on_c, 0, 39, 71
1, 110400, Note_on_c, 0, 51, 84
1, 110415, Control_c, 0, 64, 0
1, 110420, Tempo, 702083
1, 110440, Tempo, 706215
1, 110460, Tempo, 710311
1, 110520, Tempo, 702083
1, 110540, Tempo, 694123
1, 110580, Tempo, 686263
1, 110584, Control_c, 0, 64, 127
1, 110600, Tempo, 694123
1, 110620, Tempo, 698162
1, 110628, Note_on_c, 0, 71, 0
1, 110628, Note_on_c, 0, 59, 0
1, 110640, Note_on_c, 0, 59, 70
1, 110640, Note_on_c, 0, 71, 83
1, 110660, Tempo, 702083
1, 110680, Tempo, 710311
1, 110740, Tempo, 706215
1, 110760, Tempo, 702083
1, 110780, Tempo, 698162
1, 110800, Tempo, 694123
1, 110820, Tempo, 690211
1, 110840, Tempo, 702083
1, 110860, Tempo, 706215
1, 110868, Note_on_c, 0, 71, 0
1, 110868, Note_on_c, 0, 59, 0
1, 110880, Note_on_c, 0, 59, 70
1, 110880, Note_on_c, 0, 71, 83
1, 111040, Tempo, 702083
1, 111108, Note_on_c, 0, 71, 0
1, 111108, Note_on_c, 0, 59, 0
1, 111120, Tempo, 736196
1, 111120, Note_on_c, 0, 59, 66
1, 111120, Note_on_c, 0, 71, 79
1, 111348, Note_on_c, 0, 71, 0
1, 111348, Note_on_c, 0, 59, 0
1, 111360, Tempo, 706215
1, 111360, Note_on_c, 0, 67, 0
1, 111360, Note_on_c, 0, 63, 0
1, 111360, Note_on_c, 0, 51, 0
1, 111360, Note_on_c, 0, 39, 0
1, 111360, Note_on_c, 0, 63, 74
1, 111360, Note_on_c, 0, 68, 74
1, 111360, Note_on_c, 0, 59, 62
1, 111360, Note_on_c, 0, 71, 88
1, 111360, Note_on_c, 0, 32, 67
1, 111360, Note_on_c, 0, 44, 79
1, 111372, Control_c, 0, 64, 0
1, 111515, Control_c, 0, 64, 127
1, 111600, Tempo, 714456
1, 111600, Note_on_c, 0, 71, 0
1, 111600, Note_on_c, 0, 59, 0
1, 111600, Note_on_c, 0, 63, 0
1, 111600, Note_on_c, 0, 68, 0
1, 111600, Note_on_c, 0, 68, 63
1, 111828, Note_on_c, 0, 68, 0
1, 111840, Tempo, 690449
1, 111840, Note_on_c, 0, 68, 57
1, 112068, Note_on_c, 0, 68, 0
1, 112080, Tempo, 710059
1, 112080, Note_on_c, 0, 68, 55
1, 112308, Note_on_c, 0, 68, 0
1, 112320, Tempo, 671892
1, 112320, Note_on_c, 0, 44, 0
1, 112320, Note_on_c, 0, 32, 0
1, 112320, Note_on_c, 0, 68, 52
1, 112335, Control_c, 0, 64, 0
1, 112440, Tempo, 710059
1, 112548, Note_on_c, 0, 68, 0
1, 112560, Note_on_c, 0, 68, 50
1, 112600, Tempo, 714456
1, 112640, Tempo, 710311
1, 112660, Tempo, 706215
1, 112680, Tempo, 723066
1, 112700, Tempo, 727361
1, 112740, Tempo, 723066
1, 112760, Tempo, 718735
1, 112780, Tempo, 714456
1, 112788, Note_on_c, 0, 68, 0
1, 112800, Note_on_c, 0, 68, 48
1, 112820, Tempo, 710311
1, 112840, Tempo, 706215
1, 112860, Tempo, 714456
1, 112880, Tempo, 718735
1, 112900, Tempo, 723066
1, 112980, Tempo, 718735
1, 113000, Tempo, 706215
1, 113020, Tempo, 702083
1, 113028, Note_on_c, 0, 68, 0
1, 113040, Note_on_c, 0, 68, 48
1, 113060, Tempo, 714456
1, 113080, Tempo, 718735
1, 113100, Tempo, 727361
1, 113180, Tempo, 723066
1, 113200, Tempo, 718735
1, 113220, Tempo, 714456
1, 113240, Tempo, 710311
1, 113268, Note_on_c, 0, 68, 0
1, 113280, Note_on_c, 0, 68, 44
1, 113280, Note_on_c, 0, 60, 47
1, 113280, Note_on_c, 0, 72, 56
1, 113280, Note_on_c, 0, 44, 37
1, 113280, Note_on_c, 0, 42, 37
1, 113280, Note_on_c, 0, 54, 44
1, 113281, Tempo, 735474
1, 113365, Control_c, 0, 64, 127
1, 113508, Note_on_c, 0, 68, 0
1, 113520, Tempo, 702576
1, 113520, Note_on_c, 0, 68, 44
1, 113748, Note_on_c, 0, 68, 0
1, 113760, Note_on_c, 0, 68, 44
1, 113988, Note_on_c, 0, 68, 0
1, 114000, Note_on_c, 0, 68, 44
1, 114228, Note_on_c, 0, 68, 0
1, 114240, Tempo, 710564
1, 114240, Note_on_c, 0, 54, 0
1, 114240, Note_on_c, 0, 44, 0
1, 114240, Note_on_c, 0, 60, 0
1, 114240, Note_on_c, 0, 72, 0
1, 114240, Note_on_c, 0, 42, 0
1, 114240, Note_on_c, 0, 68, 46
1, 114240, Note_on_c, 0, 61, 50
1, 114240, Note_on_c, 0, 73, 59
1, 114240, Note_on_c, 0, 40, 33
1, 114240, Note_on_c, 0, 52, 39
1, 114240, Note_on_c, 0, 44, 33
1, 114252, Control_c, 0, 64, 0
1, 114438, Control_c, 0, 64, 127
1, 114468, Note_on_c, 0, 68, 0
1, 114480, Note_on_c, 0, 68, 46
1, 114708, Note_on_c, 0, 68, 0
1, 114720, Tempo, 722804
1, 114720, Note_on_c, 0, 40, 0
1, 114720, Note_on_c, 0, 52, 0
1, 114720, Note_on_c, 0, 68, 46
1, 114720, Note_on_c, 0, 37, 31
1, 114720, Note_on_c, 0, 49, 38
1, 114734, Control_c, 0, 64, 0
1, 114833, Control_c, 0, 64, 127
1, 114948, Note_on_c, 0, 68, 0
1, 114960, Tempo, 753107
1, 114960, Note_on_c, 0, 68, 46
1, 115188, Note_on_c, 0, 68, 0
1, 115200, Tempo, 722804
1, 115200, Note_on_c, 0, 49, 0
1, 115200, Note_on_c, 0, 61, 0
1, 115200, Note_on_c, 0, 44, 0
1, 115200, Note_on_c, 0, 73, 0
1, 115200, Note_on_c, 0, 37, 0
1, 115200, Note_on_c, 0, 68, 46
1, 115200, Note_on_c, 0, 63, 51
1, 115200, Note_on_c, 0, 73, 61
1, 115200, Note_on_c, 0, 75, 61
1, 115200, Note_on_c, 0, 32, 37
1, 115200, Note_on_c, 0, 44, 44
1, 115208, Control_c, 0, 64, 0
1, 115412, Control_c, 0, 64, 127
1, 115428, Note_on_c, 0, 68, 0
1, 115440, Tempo, 702576
1, 115440, Note_on_c, 0, 68, 46
1, 115668, Note_on_c, 0, 68, 0
1, 115680, Tempo, 691005
1, 115680, Note_on_c, 0, 68, 46
1, 115908, Note_on_c, 0, 68, 0
1, 115920, Note_on_c, 0, 68, 46
1, 116148, Note_on_c, 0, 68, 0
1, 116160, Tempo, 671892
1, 116160, Note_on_c, 0, 68, 46
1, 116280, Tempo, 690449
1, 116388, Note_on_c, 0, 68, 0
1, 116400, Note_on_c, 0, 68, 47
1, 116628, Note_on_c, 0, 68, 0
1, 116640, Tempo, 722804
1, 116640, Note_on_c, 0, 44, 0
1, 116640, Note_on_c, 0, 75, 0
1, 116640, Note_on_c, 0, 63, 0
1, 116640, Note_on_c, 0, 73, 0
1, 116640, Note_on_c, 0, 32, 0
1, 116640, Note_on_c, 0, 68, 47
1, 116640, Note_on_c, 0, 63, 51
1, 116640, Note_on_c, 0, 72, 60
1, 116640, Note_on_c, 0, 75, 60
1, 116640, Note_on_c, 0, 44, 37
1, 116640, Note_on_c, 0, 56, 44
1, 116655, Control_c, 0, 64, 0
1, 116781, Control_c, 0, 64, 127
1, 116868, Note_on_c, 0, 68, 0
1, 116880, Note_on_c, 0, 68, 48
1, 117108, Note_on_c, 0, 68, 0
1, 117120, Note_on_c, 0, 56, 0
1, 117120, Note_on_c, 0, 75, 0
1, 117120, Note_on_c, 0, 63, 0
1, 117120, Note_on_c, 0, 72, 0
1, 117120, Note_on_c, 0, 44, 0
1, 117120, Note_on_c, 0, 68, 48
1, 117120, Note_on_c, 0, 64, 53
1, 117120, Note_on_c, 0, 75, 63
1, 117120, Note_on_c, 0, 76, 63
1, 117120, Note_on_c, 0, 49, 41
1, 117120, Note_on_c, 0, 56, 49
1, 117130, Control_c, 0, 64, 0
1, 117275, Control_c, 0, 64, 127
1, 117348, Note_on_c, 0, 68, 0
1, 117360, Tempo, 691005
1, 117360, Note_on_c, 0, 68, 48
1, 117588, Note_on_c, 0, 68, 0
1, 117600, Note_on_c, 0, 75, 0
1, 117600, Note_on_c, 0, 64, 0
1, 117600, Note_on_c, 0, 76, 0
1, 117600, Note_on_c, 0, 68, 48
1, 117600, Note_on_c, 0, 64, 49
1, 117600, Note_on_c, 0, 73, 59
1, 117600, Note_on_c, 0, 76, 59
1, 117613, Control_c, 0, 64, 0
1, 117812, Control_c, 0, 64, 127
1, 117828, Note_on_c, 0, 68, 0
1, 117840, Note_on_c, 0, 68, 48
1, 118068, Note_on_c, 0, 68, 0
1, 118080, Tempo, 718649
1, 118080, Note_on_c, 0, 76, 0
1, 118080, Note_on_c, 0, 64, 0
1, 118080, Note_on_c, 0, 49, 0
1, 118080, Note_on_c, 0, 56, 0
1, 118080, Note_on_c, 0, 73, 0
1, 118080, Note_on_c, 0, 68, 46
1, 118080, Note_on_c, 0, 63, 51
1, 118080, Note_on_c, 0, 73, 61
1, 118080, Note_on_c, 0, 75, 61
1, 118080, Note_on_c, 0, 44, 37
1, 118080, Note_on_c, 0, 56, 44
1, 118095, Control_c, 0, 64, 0
1, 118264, Control_c, 0, 64, 127
1, 118308, Note_on_c, 0, 68, 0
1, 118320, Note_on_c, 0, 68, 46
1, 118548, Note_on_c, 0, 68, 0
1, 118560, Note_on_c, 0, 73, 0
1, 118560, Note_on_c, 0, 63, 0
1, 118560, Note_on_c, 0, 75, 0
1, 118560, Note_on_c, 0, 68, 46
1, 118560, Note_on_c, 0, 63, 46
1, 118560, Note_on_c, 0, 72, 55
1, 118560, Note_on_c, 0, 75, 55
1, 118574, Control_c, 0, 64, 0
1, 118744, Control_c, 0, 64, 127
1, 118788, Note_on_c, 0, 68, 0
1, 118800, Tempo, 760456
1, 118800, Note_on_c, 0, 68, 46
1, 119028, Note_on_c, 0, 68, 0
1, 119040, Tempo, 718649
1, 119040, Note_on_c, 0, 75, 0
1, 119040, Note_on_c, 0, 63, 0
1, 119040, Note_on_c, 0, 44, 0
1, 119040, Note_on_c, 0, 56, 0
1, 119040, Note_on_c, 0, 72, 0
1, 119040, Note_on_c, 0, 68, 46
1, 119040, Note_on_c, 0, 61, 51
1, 119040, Note_on_c, 0, 73, 59
1, 119040, Note_on_c, 0, 45, 45
1, 119040, Note_on_c, 0, 57, 53
1, 119049, Control_c, 0, 64, 0
1, 119209, Control_c, 0, 64, 127
1, 119268, Note_on_c, 0, 68, 0
1, 119280, Tempo, 702576
1, 119280, Note_on_c, 0, 68, 46
1, 119508, Note_on_c, 0, 68, 0
1, 119520, Tempo, 671892
1, 119520, Note_on_c, 0, 66, 45
1, 119748, Note_on_c, 0, 66, 0
1, 119760, Tempo, 690449
1, 119760, Note_on_c, 0, 66, 41
1, 119988, Note_on_c, 0, 66, 0
1, 120000, Tempo, 690449
1, 120000, Note_on_c, 0, 57, 0
1, 120000, Note_on_c, 0, 45, 0
1, 120000, Note_on_c, 0, 68, 45
1, 120000, Note_on_c, 0, 44, 42
1, 120000, Note_on_c, 0, 56, 51
1, 120014, Control_c, 0, 64, 0
1, 120155, Control_c, 0, 64, 127
1, 120228, Note_on_c, 0, 68, 0
1, 120240, Tempo, 716846
1, 120240, Note_on_c, 0, 68, 41
1, 120468, Note_on_c, 0, 68, 0
1, 120480, Note_on_c, 0, 56, 0
1, 120480, Note_on_c, 0, 44, 0
1, 120480, Note_on_c, 0, 69, 44
1, 120480, Note_on_c, 0, 42, 37
1, 120480, Note_on_c, 0, 54, 44
1, 120492, Control_c, 0, 64, 0
1, 120621, Control_c, 0, 64, 127
1, 120708, Note_on_c, 0, 69, 0
1, 120720, Note_on_c, 0, 69, 40
1, 120948, Note_on_c, 0, 69, 0
1, 120960, Tempo, 628799
1, 120960, Note_on_c, 0, 54, 0
1, 120960, Note_on_c, 0, 61, 0
1, 120960, Note_on_c, 0, 73, 0
1, 120960, Note_on_c, 0, 42, 0
1, 120960, Note_on_c, 0, 56, 39
1, 120960, Note_on_c, 0, 60, 47
1, 120960, Note_on_c, 0, 63, 56
1, 120960, Note_on_c, 0, 68, 47
1, 120960, Note_on_c, 0, 44, 49
1, 120961, Tempo, 735474
1, 120970, Control_c, 0, 64, 0
1, 121101, Control_c, 0, 64, 127
1, 121188, Note_on_c, 0, 56, 0
1, 121200, Tempo, 702576
1, 121200, Note_on_c, 0, 56, 39
1, 121428, Note_on_c, 0, 56, 0
1, 121440, Tempo, 691005
1, 121440, Note_on_c, 0, 56, 39
1, 121668, Note_on_c, 0, 56, 0
1, 121680, Note_on_c, 0, 56, 39
1, 121908, Note_on_c, 0, 56, 0
1, 121920, Tempo, 710564
1, 121920, Note_on_c, 0, 44, 0
1, 121920, Note_on_c, 0, 60, 0
1, 121920, Note_on_c, 0, 63, 0
1, 121920, Note_on_c, 0, 68, 0
1, 121920, Note_on_c, 0, 56, 38
1, 121920, Note_on_c, 0, 61, 46
1, 121920, Note_on_c, 0, 64, 55
1, 121920, Note_on_c, 0, 68, 46
1, 121920, Note_on_c, 0, 37, 37
1, 121920, Note_on_c, 0, 44, 44
1, 121934, Control_c, 0, 64, 0
1, 122089, Control_c, 0, 64, 127
1, 122148, Note_on_c, 0, 56, 0
1, 122160, Note_on_c, 0, 56, 38
1, 122388, Note_on_c, 0, 56, 0
1, 122400, Tempo, 722804
1, 122400, Note_on_c, 0, 64, 0
1, 122400, Note_on_c, 0, 61, 0
1, 122400, Note_on_c, 0, 68, 0
1, 122400, Note_on_c, 0, 56, 38
1, 122400, Note_on_c, 0, 58, 46
1, 122400, Note_on_c, 0, 61, 55
1, 122400, Note_on_c, 0, 68, 46
1, 122412, Control_c, 0, 64, 0
1, 122527, Control_c, 0, 64, 127
1, 122628, Note_on_c, 0, 56, 0
1, 122640, Tempo, 722804
1, 122640, Note_on_c, 0, 56, 38
1, 122868, Note_on_c, 0, 56, 0
1, 122880, Tempo, 722804
1, 122880, Note_on_c, 0, 68, 0
1, 122880, Note_on_c, 0, 58, 0
1, 122880, Note_on_c, 0, 37, 0
1, 122880, Note_on_c, 0, 44, 0
1, 122880, Note_on_c, 0, 61, 0
1, 122880, Note_on_c, 0, 56, 39
1, 122880, Note_on_c, 0, 60, 47
1, 122880, Note_on_c, 0, 63, 56
1, 122880, Note_on_c, 0, 68, 47
1, 122880, Note_on_c, 0, 32, 36
1, 122880, Note_on_c, 0, 44, 42
1, 122891, Control_c, 0, 64, 0
1, 122993, Control_c, 0, 64, 127
1, 123108, Note_on_c, 0, 56, 0
1, 123120, Tempo, 698649
1, 123120, Note_on_c, 0, 56, 39
1, 123348, Note_on_c, 0, 56, 0
1, 123360, Tempo, 691005
1, 123360, Note_on_c, 0, 44, 0
1, 123360, Note_on_c, 0, 68, 0
1, 123360, Note_on_c, 0, 60, 0
1, 123360, Note_on_c, 0, 63, 0
1, 123360, Note_on_c, 0, 32, 0
1, 123360, Note_on_c, 0, 56, 38
1, 123360, Note_on_c, 0, 61, 46
1, 123360, Note_on_c, 0, 64, 55
1, 123360, Note_on_c, 0, 68, 46
1, 123360, Note_on_c, 0, 37, 41
1, 123360, Note_on_c, 0, 44, 49
1, 123375, Control_c, 0, 64, 0
1, 123558, Control_c, 0, 64, 127
1, 123588, Note_on_c, 0, 56, 0
1, 123600, Note_on_c, 0, 56, 38
1, 123828, Note_on_c, 0, 56, 0
1, 123840, Note_on_c, 0, 64, 0
1, 123840, Note_on_c, 0, 61, 0
1, 123840, Note_on_c, 0, 68, 0
1, 123840, Note_on_c, 0, 56, 38
1, 123840, Note_on_c, 0, 58, 46
1, 123840, Note_on_c, 0, 61, 55
1, 123840, Note_on_c, 0, 68, 46
1, 123852, Control_c, 0, 64, 0
1, 123995, Control_c, 0, 64, 127
1, 124068, Note_on_c, 0, 56, 0
1, 124080, Note_on_c, 0, 56, 38
1, 124308, Note_on_c, 0, 56, 0
1, 124320, Tempo, 722804
1, 124320, Note_on_c, 0, 68, 0
1, 124320, Note_on_c, 0, 58, 0
1, 124320, Note_on_c, 0, 61, 0
1, 124320, Note_on_c, 0, 56, 38
1, 124320, Note_on_c, 0, 61, 46
1, 124320, Note_on_c, 0, 64, 55
1, 124320, Note_on_c, 0, 68, 46
1, 124335, Control_c, 0, 64, 0
1, 124475, Control_c, 0, 64, 127
1, 124548, Note_on_c, 0, 56, 0
1, 124560, Note_on_c, 0, 56, 38
1, 124788, Note_on_c, 0, 56, 0
1, 124800, Note_on_c, 0, 68, 0
1, 124800, Note_on_c, 0, 61, 0
1, 124800, Note_on_c, 0, 44, 0
1, 124800, Note_on_c, 0, 37, 0
1, 124800, Note_on_c, 0, 64, 0
1, 124800, Note_on_c, 0, 56, 42
1, 124800, Note_on_c, 0, 61, 50
1, 124800, Note_on_c, 0, 64, 60
1, 124800, Note_on_c, 0, 68, 50
1, 124800, Note_on_c, 0, 37, 37
1, 124800, Note_on_c, 0, 44, 45
1, 124810, Control_c, 0, 64, 0
1, 124913, Control_c, 0, 64, 127
1, 125028, Note_on_c, 0, 56, 0
1, 125040, Tempo, 694847
1, 125040, Note_on_c, 0, 56, 42
1, 125268, Note_on_c, 0, 56, 0
1, 125280, Note_on_c, 0, 44, 0
1, 125280, Note_on_c, 0, 68, 0
1, 125280, Note_on_c, 0, 61, 0
1, 125280, Note_on_c, 0, 64, 0
1, 125280, Note_on_c, 0, 37, 0
1, 125280, Note_on_c, 0, 56, 39
1, 125280, Note_on_c, 0, 60, 47
1, 125280, Note_on_c, 0, 63, 56
1, 125280, Note_on_c, 0, 68, 47
1, 125280, Note_on_c, 0, 32, 33
1, 125280, Note_on_c, 0, 44, 39
1, 125292, Control_c, 0, 64, 0
1, 125478, Control_c, 0, 64, 127
1, 125508, Note_on_c, 0, 56, 0
1, 125520, Tempo, 706547
1, 125520, Note_on_c, 0, 56, 39
1, 125748, Note_on_c, 0, 56, 0
1, 125760, Tempo, 691005
1, 125760, Note_on_c, 0, 63, 0
1, 125760, Note_on_c, 0, 60, 0
1, 125760, Note_on_c, 0, 68, 0
1, 125760, Note_on_c, 0, 56, 41
1, 125760, Note_on_c, 0, 63, 49
1, 125760, Note_on_c, 0, 66, 58
1, 125760, Note_on_c, 0, 68, 49
1, 125771, Control_c, 0, 64, 0
1, 125958, Control_c, 0, 64, 127
1, 125988, Note_on_c, 0, 56, 0
1, 126000, Note_on_c, 0, 56, 41
1, 126228, Note_on_c, 0, 56, 0
1, 126240, Note_on_c, 0, 68, 0
1, 126240, Note_on_c, 0, 63, 0
1, 126240, Note_on_c, 0, 32, 0
1, 126240, Note_on_c, 0, 44, 0
1, 126240, Note_on_c, 0, 66, 0
1, 126240, Note_on_c, 0, 56, 39
1, 126240, Note_on_c, 0, 61, 47
1, 126240, Note_on_c, 0, 64, 56
1, 126240, Note_on_c, 0, 68, 47
1, 126240, Note_on_c, 0, 37, 35
1, 126240, Note_on_c, 0, 44, 41
1, 126255, Control_c, 0, 64, 0
1, 126367, Control_c, 0, 64, 127
1, 126468, Note_on_c, 0, 56, 0
1, 126480, Tempo, 744140
1, 126480, Note_on_c, 0, 56, 39
1, 126708, Note_on_c, 0, 56, 0
1, 126720, Tempo, 718649
1, 126720, Note_on_c, 0, 44, 0
1, 126720, Note_on_c, 0, 68, 0
1, 126720, Note_on_c, 0, 61, 0
1, 126720, Note_on_c, 0, 64, 0
1, 126720, Note_on_c, 0, 37, 0
1, 126720, Note_on_c, 0, 56, 39
1, 126720, Note_on_c, 0, 60, 47
1, 126720, Note_on_c, 0, 63, 56
1, 126720, Note_on_c, 0, 68, 47
1, 126720, Note_on_c, 0, 32, 35
1, 126720, Note_on_c, 0, 44, 41
1, 126730, Control_c, 0, 64, 0
1, 126876, Control_c, 0, 64, 127
1, 126948, Note_on_c, 0, 56, 0
1, 126960, Note_on_c, 0, 56, 39
1, 127188, Note_on_c, 0, 56, 0
1, 127200, Tempo, 706547
1, 127200, Note_on_c, 0, 56, 39
1, 127428, Note_on_c, 0, 56, 0
1, 127440, Note_on_c, 0, 56, 39
1, 127668, Note_on_c, 0, 56, 0
1, 127680, Tempo, 718649
1, 127680, Note_on_c, 0, 56, 39
1, 127908, Note_on_c, 0, 56, 0
1, 127920, Note_on_c, 0, 56, 39
1, 128148, Note_on_c, 0, 56, 0
1, 128160, Note_on_c, 0, 56, 39
1, 128388, Note_on_c, 0, 56, 0
1, 128400, Note_on_c, 0, 56, 39
1, 128628, Note_on_c, 0, 56, 0
1, 128640, Tempo, 628799
1, 128640, Note_on_c, 0, 44, 0
1, 128640, Note_on_c, 0, 68, 0
1, 128640, Note_on_c, 0, 60, 0
1, 128640, Note_on_c, 0, 63, 0
1, 128640, Note_on_c, 0, 32, 0
1, 128640, Note_on_c, 0, 63, 51
1, 128640, Note_on_c, 0, 68, 48
1, 128640, Note_on_c, 0, 60, 51
1, 128640, Note_on_c, 0, 72, 61
1, 128640, Note_on_c, 0, 44, 40
1, 128640, Note_on_c, 0, 42, 40
1, 128640, Note_on_c, 0, 54, 48
1, 128641, Tempo, 735474
1, 128649, Control_c, 0, 64, 0
1, 128781, Control_c, 0, 64, 127
1, 128868, Note_on_c, 0, 44, 0
1, 128868, Note_on_c, 0, 68, 0
1, 128880, Tempo, 702576
1, 128880, Note_on_c, 0, 68, 53
1, 128880, Note_on_c, 0, 44, 40
1, 129108, Note_on_c, 0, 44, 0
1, 129108, Note_on_c, 0, 68, 0
1, 129120, Note_on_c, 0, 68, 57
1, 129120, Note_on_c, 0, 44, 40
1, 129348, Note_on_c, 0, 44, 0
1, 129348, Note_on_c, 0, 68, 0
1, 129360, Note_on_c, 0, 68, 57
1, 129360, Note_on_c, 0, 44, 40
1, 129588, Note_on_c, 0, 44, 0
1, 129588, Note_on_c, 0, 68, 0
1, 129600, Tempo, 710564
1, 129600, Note_on_c, 0, 54, 0
1, 129600, Note_on_c, 0, 72, 0
1, 129600, Note_on_c, 0, 63, 0
1, 129600, Note_on_c, 0, 60, 0
1, 129600, Note_on_c, 0, 42, 0
1, 129600, Note_on_c, 0, 68, 53
1, 129600, Note_on_c, 0, 61, 58
1, 129600, Note_on_c, 0, 73, 69
1, 129600, Note_on_c, 0, 40, 41
1, 129600, Note_on_c, 0, 52, 50
1, 129600, Note_on_c, 0, 44, 41
1, 129612, Control_c, 0, 64, 0
1, 129727, Control_c, 0, 64, 127
1, 129828, Note_on_c, 0, 68, 0
1, 129840, Note_on_c, 0, 68, 58
1, 130068, Note_on_c, 0, 68, 0
1, 130080, Tempo, 722804
1, 130080, Note_on_c, 0, 40, 0
1, 130080, Note_on_c, 0, 52, 0
1, 130080, Note_on_c, 0, 68, 59
1, 130080, Note_on_c, 0, 37, 41
1, 130080, Note_on_c, 0, 49, 50
1, 130094, Control_c, 0, 64, 0
1, 130221, Control_c, 0, 64, 127
1, 130308, Note_on_c, 0, 68, 0
1, 130320, Tempo, 753107
1, 130320, Note_on_c, 0, 68, 61
1, 130548, Note_on_c, 0, 68, 0
1, 130560, Tempo, 722804
1, 130560, Note_on_c, 0, 49, 0
1, 130560, Note_on_c, 0, 61, 0
1, 130560, Note_on_c, 0, 44, 0
1, 130560, Note_on_c, 0, 73, 0
1, 130560, Note_on_c, 0, 37, 0
1, 130560, Note_on_c, 0, 68, 57
1, 130560, Note_on_c, 0, 63, 63
1, 130560, Note_on_c, 0, 73, 77
1, 130560, Note_on_c, 0, 75, 77
1, 130560, Note_on_c, 0, 32, 50
1, 130560, Note_on_c, 0, 44, 60
1, 130572, Control_c, 0, 64, 0
1, 130687, Control_c, 0, 64, 127
1, 130788, Note_on_c, 0, 68, 0
1, 130800, Tempo, 702576
1, 130800, Note_on_c, 0, 68, 66
1, 131028, Note_on_c, 0, 68, 0
1, 131040, Tempo, 691005
1, 131040, Note_on_c, 0, 68, 68
1, 131268, Note_on_c, 0, 68, 0
1, 131280, Note_on_c, 0, 68, 69
1, 131508, Note_on_c, 0, 68, 0
1, 131520, Note_on_c, 0, 68, 71
1, 131748, Note_on_c, 0, 68, 0
1, 131760, Note_on_c, 0, 68, 73
1, 131988, Note_on_c, 0, 68, 0
1, 132000, Tempo, 722804
1, 132000, Note_on_c, 0, 73, 0
1, 132000, Note_on_c, 0, 63, 0
1, 132000, Note_on_c, 0, 75, 0
1, 132000, Note_on_c, 0, 68, 63
1, 132000, Note_on_c, 0, 63, 69
1, 132000, Note_on_c, 0, 72, 81
1, 132000, Note_on_c, 0, 75, 81
1, 132014, Control_c, 0, 64, 0
1, 132170, Control_c, 0, 64, 127
1, 132228, Note_on_c, 0, 68, 0
1, 132240, Tempo, 739827
1, 132240, Note_on_c, 0, 68, 73
1, 132468, Note_on_c, 0, 68, 0
1, 132480, Tempo, 722804
1, 132480, Note_on_c, 0, 75, 0
1, 132480, Note_on_c, 0, 63, 0
1, 132480, Note_on_c, 0, 32, 0
1, 132480, Note_on_c, 0, 44, 0
1, 132480, Note_on_c, 0, 72, 0
1, 132480, Note_on_c, 0, 68, 67
1, 132480, Note_on_c, 0, 64, 74
1, 132480, Note_on_c, 0, 75, 89
1, 132480, Note_on_c, 0, 76, 89
1, 132480, Note_on_c, 0, 37, 58
1, 132480, Note_on_c, 0, 44, 69
1, 132492, Control_c, 0, 64, 0
1, 132635, Control_c, 0, 64, 127
1, 132708, Note_on_c, 0, 68, 0
1, 132720, Tempo, 691005
1, 132720, Note_on_c, 0, 68, 67
1, 132948, Note_on_c, 0, 68, 0
1, 132960, Note_on_c, 0, 75, 0
1, 132960, Note_on_c, 0, 64, 0
1, 132960, Note_on_c, 0, 76, 0
1, 132960, Note_on_c, 0, 68, 67
1, 132960, Note_on_c, 0, 64, 69
1, 132960, Note_on_c, 0, 73, 82
1, 132960, Note_on_c, 0, 76, 82
1, 132974, Control_c, 0, 64, 0
1, 133059, Control_c, 0, 64, 127
1, 133188, Note_on_c, 0, 68, 0
1, 133200, Note_on_c, 0, 68, 67
1, 133428, Note_on_c, 0, 68, 0
1, 133440, Tempo, 718649
1, 133440, Note_on_c, 0, 76, 0
1, 133440, Note_on_c, 0, 64, 0
1, 133440, Note_on_c, 0, 37, 0
1, 133440, Note_on_c, 0, 44, 0
1, 133440, Note_on_c, 0, 73, 0
1, 133440, Note_on_c, 0, 68, 63
1, 133440, Note_on_c, 0, 63, 71
1, 133440, Note_on_c, 0, 73, 85
1, 133440, Note_on_c, 0, 75, 85
1, 133440, Note_on_c, 0, 44, 51
1, 133440, Note_on_c, 0, 56, 61
1, 133455, Control_c, 0, 64, 0
1, 133624, Control_c, 0, 64, 127
1, 133668, Note_on_c, 0, 68, 0
1, 133680, Note_on_c, 0, 68, 63
1, 133908, Note_on_c, 0, 68, 0
1, 133920, Note_on_c, 0, 73, 0
1, 133920, Note_on_c, 0, 63, 0
1, 133920, Note_on_c, 0, 75, 0
1, 133920, Note_on_c, 0, 68, 63
1, 133920, Note_on_c, 0, 63, 63
1, 133920, Note_on_c, 0, 72, 77
1, 133920, Note_on_c, 0, 75, 77
1, 133934, Control_c, 0, 64, 0
1, 134104, Control_c, 0, 64, 127
1, 134148, Note_on_c, 0, 68, 0
1, 134160, Tempo, 744140
1, 134160, Note_on_c, 0, 68, 63
1, 134388, Note_on_c, 0, 68, 0
1, 134400, Tempo, 718649
1, 134400, Note_on_c, 0, 75, 0
1, 134400, Note_on_c, 0, 63, 0
1, 134400, Note_on_c, 0, 44, 0
1, 134400, Note_on_c, 0, 56, 0
1, 134400, Note_on_c, 0, 72, 0
1, 134400, Note_on_c, 0, 71, 67
1, 134400, Note_on_c, 0, 68, 67
1, 134400, Note_on_c, 0, 61, 59
1, 134400, Note_on_c, 0, 73, 77
1, 134400, Note_on_c, 0, 41, 58
1, 134400, Note_on_c, 0, 53, 69
1, 134411, Control_c, 0, 64, 0
1, 134569, Control_c, 0, 64, 127
1, 134628, Note_on_c, 0, 61, 0
1, 134640, Tempo, 702576
1, 134640, Note_on_c, 0, 61, 59
1, 134868, Note_on_c, 0, 61, 0
1, 134880, Tempo, 691005
1, 134880, Note_on_c, 0, 61, 58
1, 135108, Note_on_c, 0, 61, 0
1, 135120, Note_on_c, 0, 61, 58
1, 135348, Note_on_c, 0, 61, 0
1, 135360, Tempo, 718649
1, 135360, Note_on_c, 0, 53, 0
1, 135360, Note_on_c, 0, 73, 0
1, 135360, Note_on_c, 0, 71, 0
1, 135360, Note_on_c, 0, 68, 0
1, 135360, Note_on_c, 0, 41, 0
1, 135360, Note_on_c, 0, 68, 62
1, 135360, Note_on_c, 0, 69, 62
1, 135360, Note_on_c, 0, 73, 72
1, 135360, Note_on_c, 0, 61, 55
1, 135360, Note_on_c, 0, 42, 51
1, 135360, Note_on_c, 0, 54, 62
1, 135374, Control_c, 0, 64, 0
1, 135515, Control_c, 0, 64, 127
1, 135588, Note_on_c, 0, 61, 0
1, 135600, Note_on_c, 0, 61, 53
1, 135828, Note_on_c, 0, 61, 0
1, 135840, Note_on_c, 0, 69, 0
1, 135840, Note_on_c, 0, 68, 0
1, 135840, Note_on_c, 0, 73, 0
1, 135840, Note_on_c, 0, 66, 62
1, 135840, Note_on_c, 0, 69, 62
1, 135840, Note_on_c, 0, 73, 72
1, 135840, Note_on_c, 0, 61, 53
1, 135852, Control_c, 0, 64, 0
1, 135981, Control_c, 0, 64, 127
1, 136068, Note_on_c, 0, 61, 0
1, 136080, Note_on_c, 0, 61, 53
1, 136308, Note_on_c, 0, 61, 0
1, 136320, Tempo, 628799
1, 136320, Note_on_c, 0, 73, 0
1, 136320, Note_on_c, 0, 66, 0
1, 136320, Note_on_c, 0, 42, 0
1, 136320, Note_on_c, 0, 54, 0
1, 136320, Note_on_c, 0, 69, 0
1, 136320, Note_on_c, 0, 56, 47
1, 136320, Note_on_c, 0, 63, 56
1, 136320, Note_on_c, 0, 66, 56
1, 136320, Note_on_c, 0, 68, 67
1, 136320, Note_on_c, 0, 36, 52
1, 136320, Note_on_c, 0, 48, 59
1, 136321, Tempo, 735474
1, 136331, Control_c, 0, 64, 0
1, 136461, Control_c, 0, 64, 127
1, 136548, Note_on_c, 0, 56, 0
1, 136560, Tempo, 702576
1, 136560, Note_on_c, 0, 56, 47
1, 136788, Note_on_c, 0, 56, 0
1, 136800, Tempo, 691005
1, 136800, Note_on_c, 0, 56, 47
1, 137028, Note_on_c, 0, 56, 0
1, 137040, Note_on_c, 0, 56, 48
1, 137268, Note_on_c, 0, 56, 0
1, 137280, Tempo, 710564
1, 137280, Note_on_c, 0, 48, 0
1, 137280, Note_on_c, 0, 68, 0
1, 137280, Note_on_c, 0, 63, 0
1, 137280, Note_on_c, 0, 66, 0
1, 137280, Note_on_c, 0, 36, 0
1, 137280, Note_on_c, 0, 56, 47
1, 137280, Note_on_c, 0, 61, 48
1, 137280, Note_on_c, 0, 66, 57
1, 137280, Note_on_c, 0, 68, 68
1, 137280, Note_on_c, 0, 37, 44
1, 137280, Note_on_c, 0, 49, 52
1, 137294, Control_c, 0, 64, 0
1, 137449, Control_c, 0, 64, 127
1, 137508, Note_on_c, 0, 56, 0
1, 137520, Note_on_c, 0, 56, 48
1, 137748, Note_on_c, 0, 56, 0
1, 137760, Tempo, 722804
1, 137760, Note_on_c, 0, 66, 0
1, 137760, Note_on_c, 0, 61, 0
1, 137760, Note_on_c, 0, 68, 0
1, 137760, Note_on_c, 0, 56, 48
1, 137760, Note_on_c, 0, 61, 49
1, 137760, Note_on_c, 0, 64, 58
1, 137760, Note_on_c, 0, 70, 69
1, 137772, Control_c, 0, 64, 0
1, 137887, Control_c, 0, 64, 127
1, 137988, Note_on_c, 0, 56, 0
1, 138000, Tempo, 722804
1, 138000, Note_on_c, 0, 56, 48
1, 138228, Note_on_c, 0, 56, 0
1, 138240, Tempo, 722804
1, 138240, Note_on_c, 0, 70, 0
1, 138240, Note_on_c, 0, 61, 0
1, 138240, Note_on_c, 0, 37, 0
1, 138240, Note_on_c, 0, 49, 0
1, 138240, Note_on_c, 0, 64, 0
1, 138240, Note_on_c, 0, 56, 50
1, 138240, Note_on_c, 0, 61, 51
1, 138240, Note_on_c, 0, 64, 60
1, 138240, Note_on_c, 0, 70, 69
1, 138240, Note_on_c, 0, 32, 42
1, 138240, Note_on_c, 0, 44, 55
1, 138252, Control_c, 0, 64, 0
1, 138353, Control_c, 0, 64, 127
1, 138468, Note_on_c, 0, 56, 0
1, 138480, Tempo, 698649
1, 138480, Note_on_c, 0, 56, 50
1, 138708, Note_on_c, 0, 56, 0
1, 138720, Tempo, 691005
1, 138720, Note_on_c, 0, 56, 48
1, 138948, Note_on_c, 0, 56, 0
1, 138960, Note_on_c, 0, 56, 48
1, 139188, Note_on_c, 0, 56, 0
1, 139200, Note_on_c, 0, 64, 0
1, 139200, Note_on_c, 0, 61, 0
1, 139200, Note_on_c, 0, 70, 0
1, 139200, Note_on_c, 0, 56, 47
1, 139200, Note_on_c, 0, 60, 50
1, 139200, Note_on_c, 0, 63, 57
1, 139200, Note_on_c, 0, 68, 68
1, 139212, Control_c, 0, 64, 0
1, 139355, Control_c, 0, 64, 127
1, 139428, Note_on_c, 0, 56, 0
1, 139440, Note_on_c, 0, 56, 47
1, 139668, Note_on_c, 0, 56, 0
1, 139680, Tempo, 722804
1, 139680, Note_on_c, 0, 68, 0
1, 139680, Note_on_c, 0, 60, 0
1, 139680, Note_on_c, 0, 32, 0
1, 139680, Note_on_c, 0, 44, 0
1, 139680, Note_on_c, 0, 63, 0
1, 139680, Note_on_c, 0, 56, 47
1, 139680, Note_on_c, 0, 61, 47
1, 139680, Note_on_c, 0, 64, 56
1, 139680, Note_on_c, 0, 70, 67
1, 139680, Note_on_c, 0, 37, 46
1, 139680, Note_on_c, 0, 44, 60
1, 139695, Control_c, 0, 64, 0
1, 139835, Control_c, 0, 64, 127
1, 139908, Note_on_c, 0, 56, 0
1, 139920, Note_on_c, 0, 56, 46
1, 140148, Note_on_c, 0, 56, 0
1, 140160, Tempo, 722804
1, 140160, Note_on_c, 0, 44, 0
1, 140160, Note_on_c, 0, 70, 0
1, 140160, Note_on_c, 0, 61, 0
1, 140160, Note_on_c, 0, 64, 0
1, 140160, Note_on_c, 0, 37, 0
1, 140160, Note_on_c, 0, 56, 47
1, 140160, Note_on_c, 0, 61, 47
1, 140160, Note_on_c, 0, 64, 56
1, 140160, Note_on_c, 0, 70, 67
1, 140160, Note_on_c, 0, 32, 42
1, 140160, Note_on_c, 0, 44, 50
1, 140171, Control_c, 0, 64, 0
1, 140273, Control_c, 0, 64, 127
1, 140388, Note_on_c, 0, 56, 0
1, 140400, Tempo, 698649
1, 140400, Note_on_c, 0, 56, 46
1, 140628, Note_on_c, 0, 56, 0
1, 140640, Tempo, 691005
1, 140640, Note_on_c, 0, 56, 44
1, 140868, Note_on_c, 0, 56, 0
1, 140880, Note_on_c, 0, 56, 42
1, 141108, Note_on_c, 0, 56, 0
1, 141120, Note_on_c, 0, 64, 0
1, 141120, Note_on_c, 0, 61, 0
1, 141120, Note_on_c, 0, 70, 0
1, 141120, Note_on_c, 0, 56, 41
1, 141120, Note_on_c, 0, 60, 44
1, 141120, Note_on_c, 0, 63, 50
1, 141120, Note_on_c, 0, 68, 60
1, 141132, Control_c, 0, 64, 0
1, 141275, Control_c, 0, 64, 127
1, 141348, Note_on_c, 0, 56, 0
1, 141360, Note_on_c, 0, 56, 40
1, 141588, Note_on_c, 0, 56, 0
1, 141600, Tempo, 722804
1, 141600, Note_on_c, 0, 68, 0
1, 141600, Note_on_c, 0, 60, 0
1, 141600, Note_on_c, 0, 32, 0
1, 141600, Note_on_c, 0, 44, 0
1, 141600, Note_on_c, 0, 63, 0
1, 141600, Note_on_c, 0, 56, 39
1, 141600, Note_on_c, 0, 61, 48
1, 141600, Note_on_c, 0, 64, 48
1, 141600, Note_on_c, 0, 70, 57
1, 141600, Note_on_c, 0, 37, 42
1, 141600, Note_on_c, 0, 44, 51
1, 141615, Control_c, 0, 64, 0
1, 141755, Control_c, 0, 64, 127
1, 141828, Note_on_c, 0, 56, 0
1, 141840, Tempo, 726920
1, 141840, Note_on_c, 0, 56, 39
1, 142068, Note_on_c, 0, 56, 0
1, 142080, Tempo, 731172
1, 142080, Note_on_c, 0, 44, 0
1, 142080, Note_on_c, 0, 70, 0
1, 142080, Note_on_c, 0, 61, 0
1, 142080, Note_on_c, 0, 64, 0
1, 142080, Note_on_c, 0, 37, 0
1, 142080, Note_on_c, 0, 56, 38
1, 142080, Note_on_c, 0, 61, 46
1, 142080, Note_on_c, 0, 64, 46
1, 142080, Note_on_c, 0, 70, 55
1, 142080, Note_on_c, 0, 32, 41
1, 142080, Note_on_c, 0, 44, 49
1, 142092, Control_c, 0, 64, 0
1, 142235, Control_c, 0, 64, 127
1, 142308, Note_on_c, 0, 56, 0
1, 142320, Tempo, 735474
1, 142320, Note_on_c, 0, 56, 38
1, 142548, Note_on_c, 0, 56, 0
1, 142560, Tempo, 739827
1, 142560, Note_on_c, 0, 44, 0
1, 142560, Note_on_c, 0, 70, 0
1, 142560, Note_on_c, 0, 61, 0
1, 142560, Note_on_c, 0, 64, 0
1, 142560, Note_on_c, 0, 56, 34
1, 142560, Note_on_c, 0, 60, 40
1, 142560, Note_on_c, 0, 63, 40
1, 142560, Note_on_c, 0, 68, 49
1, 142560, Note_on_c, 0, 44, 44
1, 142575, Control_c, 0, 64, 0
1, 142715, Control_c, 0, 64, 127
1, 142788, Note_on_c, 0, 56, 0
1, 142800, Tempo, 744140
1, 142800, Note_on_c, 0, 56, 34
1, 143000, Tempo, 748596
1, 143028, Note_on_c, 0, 56, 0
1, 143040, Tempo, 779221
1, 143040, Note_on_c, 0, 44, 0
1, 143040, Note_on_c, 0, 63, 0
1, 143040, Note_on_c, 0, 68, 0
1, 143040, Note_on_c, 0, 60, 0
1, 143040, Note_on_c, 0, 56, 37
1, 143268, Note_on_c, 0, 56, 0
1, 143280, Tempo, 855920
1, 143280, Note_on_c, 0, 56, 37
1, 143280, Note_on_c, 0, 53, 33
1, 143291, Control_c, 0, 64, 0
1, 143383, Control_c, 0, 64, 127
1, 143508, Note_on_c, 0, 56, 0
1, 143520, Tempo, 907716
1, 143520, Note_on_c, 0, 53, 0
1, 143520, Note_on_c, 0, 32, 0
1, 143520, Note_on_c, 0, 56, 40
1, 143520, Note_on_c, 0, 54, 37
1, 143529, Control_c, 0, 64, 0
1, 143612, Control_c, 0, 64, 127
1, 143748, Note_on_c, 0, 56, 0
1, 143760, Tempo, 991736
1, 143760, Note_on_c, 0, 54, 0
1, 143760, Note_on_c, 0, 56, 37
1, 143760, Note_on_c, 0, 51, 34
1, 143771, Control_c, 0, 64, 0
1, 143875, Control_c, 0, 64, 127
1, 143988, Note_on_c, 0, 56, 0
1, 144000, Key_signature, -5, "major"
1, 144000, Tempo, 806235
1, 144000, Marker_t, "Thema"
1, 144000, Note_on_c, 0, 51, 0
1, 144000, Note_on_c, 0, 77, 53
1, 144000, Note_on_c, 0, 49, 35
1, 144011, Control_c, 0, 64, 0
1, 144071, Control_c, 0, 64, 127
1, 144240, Note_on_c, 0, 49, 0
1, 144240, Note_on_c, 0, 56, 30
1, 144360, Tempo, 838457
1, 144360, Note_on_c, 0, 77, 0
1, 144360, Note_on_c, 0, 73, 45
1, 144480, Note_on_c, 0, 73, 0
1, 144480, Note_on_c, 0, 56, 0
1, 144480, Note_on_c, 0, 68, 51
1, 144480, Note_on_c, 0, 65, 26
1, 144480, Note_on_c, 0, 61, 17
1, 144489, Control_c, 0, 64, 0
1, 144558, Control_c, 0, 64, 127
1, 144720, Tempo, 771605
1, 144720, Note_on_c, 0, 56, 19
1, 144948, Note_on_c, 0, 56, 0
1, 144960, Tempo, 757576
1, 144960, Note_on_c, 0, 56, 23
1, 145188, Note_on_c, 0, 56, 0
1, 145200, Tempo, 716846
1, 145200, Note_on_c, 0, 56, 19
1, 145428, Note_on_c, 0, 56, 0
1, 145440, Tempo, 771605
1, 145440, Note_on_c, 0, 68, 0
1, 145440, Note_on_c, 0, 70, 50
1, 145440, Note_on_c, 0, 56, 27
1, 145455, Control_c, 0, 64, 0
1, 145553, Control_c, 0, 64, 127
1, 145668, Note_on_c, 0, 56, 0
1, 145680, Tempo, 811359
1, 145680, Note_on_c, 0, 56, 28
1, 145908, Note_on_c, 0, 56, 0
1, 145920, Note_on_c, 0, 70, 0
1, 145920, Note_on_c, 0, 61, 0
1, 145920, Note_on_c, 0, 65, 0
1, 145920, Note_on_c, 0, 72, 51
1, 145920, Note_on_c, 0, 66, 35
1, 145920, Note_on_c, 0, 63, 35
1, 145928, Control_c, 0, 64, 0
1, 146076, Control_c, 0, 64, 127
1, 146160, Tempo, 781148
1, 146160, Note_on_c, 0, 56, 26
1, 146388, Note_on_c, 0, 56, 0
1, 146400, Tempo, 730816
1, 146400, Note_on_c, 0, 56, 28
1, 146628, Note_on_c, 0, 56, 0
1, 146640, Tempo, 752823
1, 146640, Note_on_c, 0, 56, 32
1, 146868, Note_on_c, 0, 56, 0
1, 146880, Tempo, 757576
1, 146880, Note_on_c, 0, 58, 35
1, 146890, Control_c, 0, 64, 0
1, 147120, Note_on_c, 0, 58, 0
1, 147120, Note_on_c, 0, 56, 32
1, 147360, Tempo, 806235
1, 147360, Note_on_c, 0, 56, 0
1, 147360, Note_on_c, 0, 72, 0
1, 147360, Note_on_c, 0, 66, 0
1, 147360, Note_on_c, 0, 63, 0
1, 147360, Note_on_c, 0, 73, 51
1, 147360, Note_on_c, 0, 65, 35
1, 147360, Note_on_c, 0, 61, 35
1, 147474, Control_c, 0, 64, 127
1, 147600, Tempo, 822030
1, 147600, Note_on_c, 0, 61, 0
1, 147600, Note_on_c, 0, 65, 0
1, 147600, Note_on_c, 0, 56, 31
1, 147840, Tempo, 795967
1, 147840, Note_on_c, 0, 56, 0
1, 147840, Note_on_c, 0, 73, 0
1, 147840, Note_on_c, 0, 60, 45
1, 147840, Note_on_c, 0, 66, 45
1, 147840, Note_on_c, 0, 75, 54
1, 147848, Control_c, 0, 64, 0
1, 147946, Control_c, 0, 64, 127
1, 148080, Note_on_c, 0, 56, 32
1, 148200, Tempo, 822030
1, 148200, Note_on_c, 0, 75, 0
1, 148200, Note_on_c, 0, 66, 0
1, 148200, Note_on_c, 0, 68, 47
1, 148200, Note_on_c, 0, 77, 56
1, 148320, Note_on_c, 0, 77, 0
1, 148320, Note_on_c, 0, 68, 0
1, 148320, Note_on_c, 0, 70, 49
1, 148320, Note_on_c, 0, 78, 57
1, 148335, Control_c, 0, 64, 0
1, 148468, Control_c, 0, 64, 127
1, 148560, Tempo, 786061
1, 148560, Note_on_c, 0, 56, 0
1, 148560, Note_on_c, 0, 56, 35
1, 148788, Note_on_c, 0, 56, 0
1, 148800, Note_on_c, 0, 56, 32
1, 149028, Note_on_c, 0, 56, 0
1, 149040, Tempo, 762195
1, 149040, Note_on_c, 0, 56, 32
1, 149280, Tempo, 795967
1, 149280, Note_on_c, 0, 60, 0
1, 149280, Note_on_c, 0, 78, 0
1, 149280, Note_on_c, 0, 70, 0
1, 149280, Note_on_c, 0, 61, 44
1, 149280, Note_on_c, 0, 68, 44
1, 149280, Note_on_c, 0, 77, 53
1, 149296, Control_c, 0, 64, 0
1, 149450, Control_c, 0, 64, 127
1, 149520, Tempo, 827358
1, 149520, Note_on_c, 0, 68, 0
1, 149520, Note_on_c, 0, 56, 0
1, 149520, Note_on_c, 0, 61, 0
1, 149520, Note_on_c, 0, 56, 29
1, 149760, Tempo, 801068
1, 149760, Note_on_c, 0, 56, 0
1, 149760, Note_on_c, 0, 77, 0
1, 149760, Note_on_c, 0, 60, 44
1, 149760, Note_on_c, 0, 68, 44
1, 149760, Note_on_c, 0, 77, 53
1, 149760, Control_c, 0, 64, 0
1, 149800, Tempo, 776297
1, 149895, Control_c, 0, 64, 127
1, 150000, Tempo, 771605
1, 150000, Note_on_c, 0, 68, 0
1, 150000, Note_on_c, 0, 56, 31
1, 150240, Note_on_c, 0, 56, 0
1, 150240, Note_on_c, 0, 66, 34
1, 150255, Control_c, 0, 64, 0
1, 150289, Control_c, 0, 64, 127
1, 150480, Tempo, 801068
1, 150480, Note_on_c, 0, 66, 0
1, 150480, Note_on_c, 0, 77, 0
1, 150480, Note_on_c, 0, 75, 49
1, 150480, Note_on_c, 0, 56, 31
1, 150720, Tempo, 827586
1, 150720, Note_on_c, 0, 56, 0
1, 150720, Note_on_c, 0, 75, 0
1, 150720, Note_on_c, 0, 60, 0
1, 150720, Note_on_c, 0, 73, 46
1, 150720, Note_on_c, 0, 65, 35
1, 150720, Note_on_c, 0, 61, 29
1, 150736, Control_c, 0, 64, 0
1, 150783, Control_c, 0, 64, 127
1, 150940, Tempo, 869565
1, 150960, Note_on_c, 0, 61, 0
1, 150960, Note_on_c, 0, 65, 0
1, 150960, Note_on_c, 0, 56, 31
1, 150968, Control_c, 0, 64, 0
1, 151080, Tempo, 909091
1, 151080, Note_on_c, 0, 73, 0
1, 151080, Note_on_c, 0, 74, 45
1, 151180, Tempo, 991736
1, 151200, Tempo, 983607
1, 151200, Note_on_c, 0, 74, 0
1, 151200, Note_on_c, 0, 56, 0
1, 151200, Note_on_c, 0, 75, 51
1, 151200, Note_on_c, 0, 66, 32
1, 151200, Note_on_c, 0, 60, 27
1, 151248, Note_on_c, 0, 75, 0
1, 151248, Note_on_c, 0, 77, 45
1, 151296, Note_on_c, 0, 77, 0
1, 151296, Note_on_c, 0, 75, 46
1, 151300, Tempo, 975610
1, 151344, Note_on_c, 0, 75, 0
1, 151344, Note_on_c, 0, 74, 44
1, 151380, Tempo, 967742
1, 151392, Note_on_c, 0, 74, 0
1, 151392, Note_on_c, 0, 75, 45
1, 151440, Note_on_c, 0, 75, 0
1, 151440, Note_on_c, 0, 60, 0
1, 151440, Note_on_c, 0, 66, 0
1, 151440, Note_on_c, 0, 76, 46
1, 151440, Note_on_c, 0, 56, 31
1, 151460, Tempo, 960000
1, 151480, Tempo, 1034483
1, 151488, Note_on_c, 0, 76, 0
1, 151488, Note_on_c, 0, 77, 51
1, 151500, Tempo, 1071429
1, 151520, Tempo, 1111111
1, 151536, Note_on_c, 0, 77, 0
1, 151536, Note_on_c, 0, 80, 55
1, 151540, Tempo, 1165049
1, 151560, Tempo, 1212121
1, 151580, Tempo, 1263158
1, 151584, Note_on_c, 0, 80, 0
1, 151584, Note_on_c, 0, 79, 53
1, 151600, Tempo, 1318681
1, 151620, Tempo, 1379310
1, 151632, Note_on_c, 0, 79, 0
1, 151632, Note_on_c, 0, 78, 51
1, 151640, Tempo, 1445783
1, 151660, Tempo, 1538462
1, 151680, Tempo, 821918
1, 151680, Note_on_c, 0, 78, 0
1, 151680, Note_on_c, 0, 56, 0
1, 151680, Note_on_c, 0, 77, 49
1, 151680, Note_on_c, 0, 49, 35
1, 151779, Control_c, 0, 64, 127
1, 151920, Note_on_c, 0, 49, 0
1, 151920, Note_on_c, 0, 56, 30
1, 152040, Tempo, 838457
1, 152040, Note_on_c, 0, 77, 0
1, 152040, Note_on_c, 0, 73, 44
1, 152160, Note_on_c, 0, 73, 0
1, 152160, Note_on_c, 0, 56, 0
1, 152160, Note_on_c, 0, 68, 46
1, 152160, Note_on_c, 0, 65, 26
1, 152160, Note_on_c, 0, 61, 18
1, 152175, Control_c, 0, 64, 0
1, 152294, Control_c, 0, 64, 127
1, 152400, Tempo, 771605
1, 152400, Note_on_c, 0, 56, 20
1, 152628, Note_on_c, 0, 56, 0
1, 152640, Tempo, 757576
1, 152640, Note_on_c, 0, 56, 24
1, 152868, Note_on_c, 0, 56, 0
1, 152880, Tempo, 744140
1, 152880, Note_on_c, 0, 56, 21
1, 153108, Note_on_c, 0, 56, 0
1, 153120, Tempo, 771605
1, 153120, Note_on_c, 0, 68, 0
1, 153120, Note_on_c, 0, 70, 51
1, 153120, Note_on_c, 0, 56, 30
1, 153134, Control_c, 0, 64, 0
1, 153233, Control_c, 0, 64, 127
1, 153348, Note_on_c, 0, 56, 0
1, 153360, Tempo, 811359
1, 153360, Note_on_c, 0, 56, 28
1, 153588, Note_on_c, 0, 56, 0
1, 153600, Note_on_c, 0, 70, 0
1, 153600, Note_on_c, 0, 61, 0
1, 153600, Note_on_c, 0, 65, 0
1, 153600, Note_on_c, 0, 72, 49
1, 153600, Note_on_c, 0, 66, 35
1, 153600, Note_on_c, 0, 63, 35
1, 153607, Control_c, 0, 64, 0
1, 153784, Control_c, 0, 64, 127
1, 153840, Tempo, 766871
1, 153840, Note_on_c, 0, 63, 0
1, 153840, Note_on_c, 0, 66, 0
1, 153840, Note_on_c, 0, 56, 31
1, 154068, Note_on_c, 0, 56, 0
1, 154080, Note_on_c, 0, 56, 29
1, 154308, Note_on_c, 0, 56, 0
1, 154320, Tempo, 748596
1, 154320, Note_on_c, 0, 56, 33
1, 154548, Note_on_c, 0, 56, 0
1, 154560, Tempo, 762195
1, 154560, Note_on_c, 0, 58, 38
1, 154568, Control_c, 0, 64, 0
1, 154800, Note_on_c, 0, 58, 0
1, 154800, Note_on_c, 0, 56, 35
1, 155040, Tempo, 806235
1, 155040, Note_on_c, 0, 56, 0
1, 155040, Note_on_c, 0, 72, 0
1, 155040, Note_on_c, 0, 82, 63
1, 155154, Control_c, 0, 64, 127
1, 155280, Tempo, 822030
1, 156000, Tempo, 790931
1, 156000, Note_on_c, 0, 82, 0
1, 156000, Note_on_c, 0, 80, 55
1, 156011, Control_c, 0, 64, 0
1, 156480, Tempo, 801068
1, 156480, Note_on_c, 0, 80, 0
1, 156480, Note_on_c, 0, 78, 54
1, 156960, Tempo, 827358
1, 156960, Note_on_c, 0, 78, 0
1, 156960, Note_on_c, 0, 72, 47
1, 157440, Tempo, 795967
1, 157440, Note_on_c, 0, 72, 0
1, 157440, Note_on_c, 0, 77, 53
1, 157920, Note_on_c, 0, 77, 0
1, 157920, Note_on_c, 0, 75, 50
1, 157960, Tempo, 790931
1, 158080, Tempo, 795967
1, 158160, Tempo, 801068
1, 158280, Tempo, 806235
1, 158360, Tempo, 811359
1, 158400, Note_on_c, 0, 75, 0
1, 158400, Note_on_c, 0, 73, 46
1, 158440, Tempo, 816660
1, 158880, Note_on_c, 0, 73, 0
1, 158880, Note_on_c, 0, 70, 44
1, 158892, Control_c, 0, 64, 127
1, 159120, Tempo, 873362
1, 159360, Tempo, 816660
1, 159360, Note_on_c, 0, 70, 0
1, 159360, Note_on_c, 0, 58, 37
1, 159360, Note_on_c, 0, 63, 37
1, 159360, Note_on_c, 0, 66, 37
1, 159360, Note_on_c, 0, 44, 36
1, 159367, Control_c, 0, 64, 0
1, 159530, Control_c, 0, 64, 127
1, 159600, Note_on_c, 0, 56, 29
1, 159828, Note_on_c, 0, 56, 0
1, 159840, Note_on_c, 0, 56, 29
1, 160068, Note_on_c, 0, 56, 0
1, 160080, Note_on_c, 0, 56, 29
1, 160308, Note_on_c, 0, 56, 0
1, 160320, Note_on_c, 0, 58, 0
1, 160320, Note_on_c, 0, 60, 37
1, 160320, Note_on_c, 0, 56, 29
1, 160333, Control_c, 0, 64, 0
1, 160489, Control_c, 0, 64, 127
1, 160548, Note_on_c, 0, 56, 0
1, 160560, Note_on_c, 0, 56, 29
1, 160788, Note_on_c, 0, 56, 0
1, 160800, Note_on_c, 0, 56, 29
1, 161028, Note_on_c, 0, 56, 0
1, 161040, Tempo, 855554
1, 161040, Note_on_c, 0, 56, 29
1, 161268, Note_on_c, 0, 56, 0
1, 161280, Tempo, 816660
1, 161280, Note_on_c, 0, 60, 0
1, 161280, Note_on_c, 0, 44, 0
1, 161280, Note_on_c, 0, 66, 0
1, 161280, Note_on_c, 0, 63, 0
1, 161280, Note_on_c, 0, 61, 37
1, 161280, Note_on_c, 0, 65, 37
1, 161280, Note_on_c, 0, 56, 36
1, 161280, Note_on_c, 0, 49, 36
1, 161287, Control_c, 0, 64, 0
1, 161386, Control_c, 0, 64, 127
1, 161508, Note_on_c, 0, 56, 0
1, 161520, Note_on_c, 0, 56, 29
1, 161748, Note_on_c, 0, 56, 0
1, 161760, Note_on_c, 0, 56, 29
1, 161988, Note_on_c, 0, 56, 0
1, 162000, Note_on_c, 0, 56, 29
1, 162228, Note_on_c, 0, 56, 0
1, 162240, Note_on_c, 0, 56, 29
1, 162468, Note_on_c, 0, 56, 0
1, 162480, Note_on_c, 0, 61, 0
1, 162480, Note_on_c, 0, 61, 41
1, 162480, Note_on_c, 0, 56, 29
1, 162708, Note_on_c, 0, 56, 0
1, 162720, Tempo, 838457
1, 162720, Note_on_c, 0, 61, 0
1, 162720, Note_on_c, 0, 63, 44
1, 162720, Note_on_c, 0, 56, 29
1, 162734, Control_c, 0, 64, 0
1, 162948, Note_on_c, 0, 56, 0
1, 162960, Note_on_c, 0, 56, 29
1, 163080, Note_on_c, 0, 63, 0
1, 163080, Note_on_c, 0, 61, 41
1, 163188, Note_on_c, 0, 56, 0
1, 163200, Tempo, 816660
1, 163200, Note_on_c, 0, 49, 0
1, 163200, Note_on_c, 0, 65, 0
1, 163200, Note_on_c, 0, 61, 0
1, 163200, Note_on_c, 0, 61, 45
1, 163200, Note_on_c, 0, 63, 34
1, 163200, Note_on_c, 0, 66, 39
1, 163200, Note_on_c, 0, 56, 36
1, 163200, Note_on_c, 0, 44, 36
1, 163319, Control_c, 0, 64, 127
1, 163428, Note_on_c, 0, 56, 0
1, 163440, Note_on_c, 0, 56, 29
1, 163668, Note_on_c, 0, 56, 0
1, 163680, Tempo, 827358
1, 163680, Note_on_c, 0, 61, 0
1, 163680, Note_on_c, 0, 60, 44
1, 163680, Note_on_c, 0, 56, 29
1, 163908, Note_on_c, 0, 56, 0
1, 163920, Note_on_c, 0, 56, 29
1, 164148, Note_on_c, 0, 56, 0
1, 164160, Tempo, 811359
1, 164160, Note_on_c, 0, 60, 0
1, 164160, Note_on_c, 0, 70, 46
1, 164160, Note_on_c, 0, 56, 27
1, 164388, Note_on_c, 0, 56, 0
1, 164400, Note_on_c, 0, 56, 27
1, 164628, Note_on_c, 0, 56, 0
1, 164640, Note_on_c, 0, 70, 0
1, 164640, Note_on_c, 0, 60, 40
1, 164640, Note_on_c, 0, 56, 26
1, 164868, Note_on_c, 0, 56, 0
1, 164880, Tempo, 896861
1, 164880, Note_on_c, 0, 56, 26
1, 165108, Note_on_c, 0, 56, 0
1, 165120, Tempo, 907716
1, 165120, Note_on_c, 0, 60, 0
1, 165120, Note_on_c, 0, 44, 0
1, 165120, Note_on_c, 0, 66, 0
1, 165120, Note_on_c, 0, 63, 0
1, 165120, Note_on_c, 0, 60, 31
1, 165120, Note_on_c, 0, 63, 31
1, 165120, Note_on_c, 0, 66, 37
1, 165120, Note_on_c, 0, 56, 26
1, 165120, Note_on_c, 0, 44, 29
1, 165129, Control_c, 0, 64, 0
1, 165261, Control_c, 0, 64, 127
1, 165348, Note_on_c, 0, 56, 0
1, 165360, Tempo, 836820
1, 165360, Note_on_c, 0, 56, 26
1, 165588, Note_on_c, 0, 56, 0
1, 165600, Note_on_c, 0, 56, 26
1, 165828, Note_on_c, 0, 56, 0
1, 165840, Note_on_c, 0, 56, 26
1, 166068, Note_on_c, 0, 56, 0
1, 166080, Note_on_c, 0, 56, 26
1, 166308, Note_on_c, 0, 56, 0
1, 166320, Note_on_c, 0, 56, 26
1, 166548, Note_on_c, 0, 56, 0
1, 166560, Note_on_c, 0, 56, 26
1, 166788, Note_on_c, 0, 56, 0
1, 166800, Tempo, 930233
1, 166800, Note_on_c, 0, 56, 26
1, 167028, Note_on_c, 0, 56, 0
1, 167040, Tempo, 875912
1, 167040, Note_on_c, 0, 44, 0
1, 167040, Note_on_c, 0, 60, 0
1, 167040, Note_on_c, 0, 63, 0
1, 167040, Note_on_c, 0, 66, 0
1, 167040, Note_on_c, 0, 61, 27
1, 167040, Note_on_c, 0, 65, 34
1, 167040, Note_on_c, 0, 56, 26
1, 167040, Note_on_c, 0, 49, 30
1, 167051, Control_c, 0, 64, 0
1, 167181, Control_c, 0, 64, 127
1, 167268, Note_on_c, 0, 56, 0
1, 167280, Note_on_c, 0, 56, 26
1, 167508, Note_on_c, 0, 56, 0
1, 167520, Note_on_c, 0, 56, 26
1, 167748, Note_on_c, 0, 56, 0
1, 167760, Note_on_c, 0, 56, 26
1, 167988, Note_on_c, 0, 56, 0
1, 168000, Tempo, 918836
1, 168000, Note_on_c, 0, 49, 0
1, 168000, Note_on_c, 0, 56, 26
1, 168000, Note_on_c, 0, 44, 26
1, 168067, Tempo, 907716
1, 168198, Tempo, 918836
1, 168228, Note_on_c, 0, 56, 0
1, 168240, Note_on_c, 0, 56, 26
1, 168329, Tempo, 930233
1, 168460, Tempo, 941915
1, 168468, Note_on_c, 0, 56, 0
1, 168480, Note_on_c, 0, 56, 26
1, 168481, Tempo, 953895
1, 168503, Tempo, 966184
1, 168525, Tempo, 978793
1, 168547, Tempo, 1005025
1, 168569, Tempo, 1018676
1, 168590, Tempo, 1032702
1, 168612, Tempo, 1047120
1, 168634, Tempo, 1077199
1, 168656, Tempo, 1092896
1, 168678, Tempo, 1109057
1, 168708, Note_on_c, 0, 56, 0
1, 168720, Tempo, 1574803
1, 168720, Note_on_c, 0, 56, 26
1, 168946, Note_on_c, 0, 56, 0
1, 168960, Tempo, 1048035
1, 168960, Note_on_c, 0, 44, 0
1, 168960, Note_on_c, 0, 65, 0
1, 168960, Note_on_c, 0, 61, 0
1, 168960, Note_on_c, 0, 56, 23
1, 168960, Note_on_c, 0, 61, 23
1, 168960, Note_on_c, 0, 65, 27
1, 168960, Note_on_c, 0, 37, 24
1, 170880, Note_on_c, 0, 37, 0
1, 170880, Note_on_c, 0, 56, 0
1, 170880, Note_on_c, 0, 61, 0
1, 170880, Note_on_c, 0, 65, 0
1, 171947, Control_c, 0, 64, 0
1, 171949, Tempo, 1000000
1, 172800, Tempo, 857143
1, 172800, End_track
0, 0, End_of_file
