0, 0, Header, 0, 1, 480
1, 0, Start_track
1, 0, Title_t, "Sonate opus 35, 3. Satz"
1, 0, Title_t, "Trauermarsch"
1, 0, Copyright_t, "Copyright © 2002 by Bernd Krueger"
1, 0, Text_t, "Frederic Chopin"
1, 0, Text_t, "Marche funebre"
1, 0, Text_t, "Fertiggestellt am 29.03.2002\012"
1, 0, Text_t, "Normierung: 23.12.2002\012"
1, 0, Text_t, "Update am 7.8.2010\012"
1, 0, Text_t, "Update am 26.2.2014\012"
1, 0, Text_t, "Dauer: 7:29 Minuten\012"
1, 0, SMPTE_offset, 96, 0, 3, 0, 0
1, 0, Time_signature, 4, 2, 24, 8
1, 0, Key_signature, -5, "major"
1, 0, Tempo, 1044386
1, 0, Program_c, 0, 0
1, 0, Control_c, 0, 7, 100
1, 0, Control_c, 0, 10, 64
1, 0, Note_on_c, 0, 53, 34
1, 0, Note_on_c, 0, 58, 40
1, 0, Control_c, 0, 64, 0
1, 0, Text_t, "bdca426d104a26ac9dcb070447587523"
1, 0, Control_c, 0, 91, 127
1, 0, Program_c, 0, 0
1, 0, Control_c, 0, 7, 100
1, 0, Control_c, 0, 10, 64
1, 0, Note_on_c, 0, 34, 28
1, 0, Note_on_c, 0, 41, 28
1, 0, Note_on_c, 0, 46, 34
1, 35, Control_c, 0, 64, 127
1, 480, Tempo, 1083032
1, 480, Note_on_c, 0, 46, 0
1, 480, Note_on_c, 0, 34, 0
1, 480, Note_on_c, 0, 53, 0
1, 480, Note_on_c, 0, 58, 0
1, 480, Note_on_c, 0, 41, 0
1, 480, Note_on_c, 0, 54, 34
1, 480, Note_on_c, 0, 58, 40
1, 480, Note_on_c, 0, 37, 25
1, 480, Note_on_c, 0, 42, 25
1, 480, Note_on_c, 0, 49, 30
1, 499, Control_c, 0, 64, 0
1, 628, Control_c, 0, 64, 127
1, 840, Note_on_c, 0, 58, 0
1, 840, Note_on_c, 0, 58, 36
1, 960, Tempo, 1075076
1, 960, Note_on_c, 0, 58, 0
1, 960, Note_on_c, 0, 49, 0
1, 960, Note_on_c, 0, 54, 0
1, 960, Note_on_c, 0, 37, 0
1, 960, Note_on_c, 0, 42, 0
1, 960, Note_on_c, 0, 53, 34
1, 960, Note_on_c, 0, 58, 40
1, 960, Note_on_c, 0, 34, 28
1, 960, Note_on_c, 0, 41, 28
1, 960, Note_on_c, 0, 46, 34
1, 979, Control_c, 0, 64, 0
1, 1129, Control_c, 0, 64, 127
1, 1440, Tempo, 1083032
1, 1440, Note_on_c, 0, 46, 0
1, 1440, Note_on_c, 0, 34, 0
1, 1440, Note_on_c, 0, 41, 0
1, 1440, Note_on_c, 0, 53, 0
1, 1440, Note_on_c, 0, 54, 28
1, 1440, Note_on_c, 0, 37, 23
1, 1440, Note_on_c, 0, 42, 23
1, 1440, Note_on_c, 0, 49, 28
1, 1456, Control_c, 0, 64, 0
1, 1609, Control_c, 0, 64, 127
1, 1920, Tempo, 1044386
1, 1920, Note_on_c, 0, 49, 0
1, 1920, Note_on_c, 0, 37, 0
1, 1920, Note_on_c, 0, 58, 0
1, 1920, Note_on_c, 0, 54, 0
1, 1920, Note_on_c, 0, 42, 0
1, 1920, Note_on_c, 0, 53, 34
1, 1920, Note_on_c, 0, 58, 40
1, 1920, Control_c, 0, 64, 0
1, 1920, Note_on_c, 0, 34, 28
1, 1920, Note_on_c, 0, 41, 28
1, 1920, Note_on_c, 0, 46, 34
1, 2047, Control_c, 0, 64, 127
1, 2400, Tempo, 1091107
1, 2400, Note_on_c, 0, 46, 0
1, 2400, Note_on_c, 0, 34, 0
1, 2400, Note_on_c, 0, 53, 0
1, 2400, Note_on_c, 0, 58, 0
1, 2400, Note_on_c, 0, 41, 0
1, 2400, Note_on_c, 0, 54, 34
1, 2400, Note_on_c, 0, 58, 40
1, 2400, Note_on_c, 0, 37, 25
1, 2400, Note_on_c, 0, 42, 25
1, 2400, Note_on_c, 0, 49, 30
1, 2415, Control_c, 0, 64, 0
1, 2612, Control_c, 0, 64, 127
1, 2760, Note_on_c, 0, 58, 0
1, 2760, Note_on_c, 0, 58, 36
1, 2880, Tempo, 1075076
1, 2880, Note_on_c, 0, 58, 0
1, 2880, Note_on_c, 0, 49, 0
1, 2880, Note_on_c, 0, 54, 0
1, 2880, Note_on_c, 0, 37, 0
1, 2880, Note_on_c, 0, 42, 0
1, 2880, Note_on_c, 0, 53, 34
1, 2880, Note_on_c, 0, 58, 40
1, 2880, Note_on_c, 0, 34, 28
1, 2880, Note_on_c, 0, 41, 28
1, 2880, Note_on_c, 0, 46, 34
1, 2898, Control_c, 0, 64, 0
1, 3071, Control_c, 0, 64, 127
1, 3360, Tempo, 1075076
1, 3360, Note_on_c, 0, 46, 0
1, 3360, Note_on_c, 0, 34, 0
1, 3360, Note_on_c, 0, 41, 0
1, 3360, Note_on_c, 0, 53, 0
1, 3360, Note_on_c, 0, 54, 28
1, 3360, Note_on_c, 0, 37, 22
1, 3360, Note_on_c, 0, 42, 22
1, 3360, Note_on_c, 0, 49, 27
1, 3379, Control_c, 0, 64, 0
1, 3558, Control_c, 0, 64, 127
1, 3840, Tempo, 1044386
1, 3840, Note_on_c, 0, 49, 0
1, 3840, Note_on_c, 0, 37, 0
1, 3840, Note_on_c, 0, 58, 0
1, 3840, Note_on_c, 0, 54, 0
1, 3840, Note_on_c, 0, 42, 0
1, 3840, Note_on_c, 0, 53, 34
1, 3840, Note_on_c, 0, 58, 40
1, 3840, Note_on_c, 0, 34, 28
1, 3840, Note_on_c, 0, 41, 28
1, 3840, Note_on_c, 0, 46, 34
1, 3851, Control_c, 0, 64, 0
1, 3960, Control_c, 0, 64, 127
1, 4320, Tempo, 1075076
1, 4320, Note_on_c, 0, 46, 0
1, 4320, Note_on_c, 0, 34, 0
1, 4320, Note_on_c, 0, 53, 0
1, 4320, Note_on_c, 0, 58, 0
1, 4320, Note_on_c, 0, 41, 0
1, 4320, Note_on_c, 0, 54, 34
1, 4320, Note_on_c, 0, 58, 40
1, 4320, Note_on_c, 0, 37, 25
1, 4320, Note_on_c, 0, 42, 30
1, 4320, Note_on_c, 0, 49, 30
1, 4335, Control_c, 0, 64, 0
1, 4504, Control_c, 0, 64, 127
1, 4680, Note_on_c, 0, 58, 0
1, 4680, Note_on_c, 0, 58, 36
1, 4788, Note_on_c, 0, 58, 0
1, 4800, Tempo, 1067236
1, 4800, Note_on_c, 0, 49, 0
1, 4800, Note_on_c, 0, 54, 0
1, 4800, Note_on_c, 0, 37, 0
1, 4800, Note_on_c, 0, 42, 0
1, 4800, Note_on_c, 0, 53, 34
1, 4800, Note_on_c, 0, 58, 40
1, 4800, Note_on_c, 0, 34, 28
1, 4800, Note_on_c, 0, 41, 28
1, 4800, Note_on_c, 0, 46, 34
1, 4816, Control_c, 0, 64, 0
1, 5026, Control_c, 0, 64, 127
1, 5280, Tempo, 1044386
1, 5280, Note_on_c, 0, 46, 0
1, 5280, Note_on_c, 0, 34, 0
1, 5280, Note_on_c, 0, 53, 0
1, 5280, Note_on_c, 0, 58, 0
1, 5280, Note_on_c, 0, 41, 0
1, 5280, Note_on_c, 0, 61, 49
1, 5280, Note_on_c, 0, 54, 39
1, 5280, Note_on_c, 0, 37, 22
1, 5280, Note_on_c, 0, 42, 27
1, 5280, Note_on_c, 0, 49, 27
1, 5298, Control_c, 0, 64, 0
1, 5400, Control_c, 0, 64, 127
1, 5640, Note_on_c, 0, 61, 0
1, 5640, Note_on_c, 0, 60, 45
1, 5748, Note_on_c, 0, 60, 0
1, 5760, Note_on_c, 0, 49, 0
1, 5760, Note_on_c, 0, 54, 0
1, 5760, Note_on_c, 0, 37, 0
1, 5760, Note_on_c, 0, 42, 0
1, 5760, Note_on_c, 0, 60, 48
1, 5760, Note_on_c, 0, 53, 39
1, 5760, Note_on_c, 0, 34, 28
1, 5760, Note_on_c, 0, 41, 28
1, 5760, Note_on_c, 0, 46, 34
1, 5770, Control_c, 0, 64, 0
1, 5838, Control_c, 0, 64, 127
1, 6120, Note_on_c, 0, 60, 0
1, 6120, Note_on_c, 0, 58, 42
1, 6228, Note_on_c, 0, 58, 0
1, 6240, Tempo, 1059509
1, 6240, Note_on_c, 0, 46, 0
1, 6240, Note_on_c, 0, 53, 0
1, 6240, Note_on_c, 0, 34, 0
1, 6240, Note_on_c, 0, 41, 0
1, 6240, Note_on_c, 0, 54, 37
1, 6240, Note_on_c, 0, 58, 44
1, 6240, Note_on_c, 0, 37, 25
1, 6240, Note_on_c, 0, 42, 25
1, 6240, Note_on_c, 0, 49, 30
1, 6259, Control_c, 0, 64, 0
1, 6388, Control_c, 0, 64, 127
1, 6600, Note_on_c, 0, 58, 0
1, 6600, Note_on_c, 0, 58, 36
1, 6708, Note_on_c, 0, 58, 0
1, 6720, Tempo, 1075076
1, 6720, Note_on_c, 0, 49, 0
1, 6720, Note_on_c, 0, 54, 0
1, 6720, Note_on_c, 0, 37, 0
1, 6720, Note_on_c, 0, 42, 0
1, 6720, Note_on_c, 0, 53, 34
1, 6720, Note_on_c, 0, 58, 40
1, 6720, Note_on_c, 0, 34, 28
1, 6720, Note_on_c, 0, 41, 28
1, 6720, Note_on_c, 0, 46, 34
1, 6738, Control_c, 0, 64, 0
1, 6833, Control_c, 0, 64, 127
1, 7200, Note_on_c, 0, 46, 0
1, 7200, Note_on_c, 0, 34, 0
1, 7200, Note_on_c, 0, 41, 0
1, 7200, Note_on_c, 0, 53, 0
1, 7200, Note_on_c, 0, 54, 28
1, 7200, Note_on_c, 0, 37, 22
1, 7200, Note_on_c, 0, 42, 22
1, 7200, Note_on_c, 0, 49, 27
1, 7219, Control_c, 0, 64, 0
1, 7341, Control_c, 0, 64, 127
1, 7680, Tempo, 1044386
1, 7680, Note_on_c, 0, 49, 0
1, 7680, Note_on_c, 0, 37, 0
1, 7680, Note_on_c, 0, 58, 0
1, 7680, Note_on_c, 0, 54, 0
1, 7680, Note_on_c, 0, 42, 0
1, 7680, Note_on_c, 0, 58, 42
1, 7680, Note_on_c, 0, 53, 42
1, 7680, Note_on_c, 0, 61, 50
1, 7680, Note_on_c, 0, 34, 35
1, 7680, Note_on_c, 0, 41, 35
1, 7680, Note_on_c, 0, 46, 42
1, 7691, Control_c, 0, 64, 0
1, 7751, Control_c, 0, 64, 127
1, 8160, Tempo, 1075076
1, 8160, Note_on_c, 0, 46, 0
1, 8160, Note_on_c, 0, 53, 0
1, 8160, Note_on_c, 0, 61, 0
1, 8160, Note_on_c, 0, 58, 0
1, 8160, Note_on_c, 0, 41, 0
1, 8160, Note_on_c, 0, 34, 0
1, 8160, Note_on_c, 0, 58, 42
1, 8160, Note_on_c, 0, 54, 42
1, 8160, Note_on_c, 0, 61, 50
1, 8160, Note_on_c, 0, 37, 30
1, 8160, Note_on_c, 0, 42, 37
1, 8160, Note_on_c, 0, 49, 37
1, 8170, Control_c, 0, 64, 0
1, 8319, Control_c, 0, 64, 127
1, 8520, Note_on_c, 0, 61, 0
1, 8520, Note_on_c, 0, 61, 45
1, 8628, Note_on_c, 0, 61, 0
1, 8640, Tempo, 1036986
1, 8640, Note_on_c, 0, 49, 0
1, 8640, Note_on_c, 0, 37, 0
1, 8640, Note_on_c, 0, 58, 0
1, 8640, Note_on_c, 0, 54, 0
1, 8640, Note_on_c, 0, 42, 0
1, 8640, Note_on_c, 0, 58, 42
1, 8640, Note_on_c, 0, 53, 42
1, 8640, Note_on_c, 0, 61, 50
1, 8640, Note_on_c, 0, 34, 35
1, 8640, Note_on_c, 0, 41, 35
1, 8640, Note_on_c, 0, 46, 42
1, 8658, Control_c, 0, 64, 0
1, 8753, Control_c, 0, 64, 127
1, 9120, Tempo, 1044386
1, 9120, Note_on_c, 0, 46, 0
1, 9120, Note_on_c, 0, 53, 0
1, 9120, Note_on_c, 0, 61, 0
1, 9120, Note_on_c, 0, 58, 0
1, 9120, Note_on_c, 0, 41, 0
1, 9120, Note_on_c, 0, 34, 0
1, 9120, Note_on_c, 0, 65, 59
1, 9120, Note_on_c, 0, 61, 52
1, 9120, Note_on_c, 0, 54, 48
1, 9120, Note_on_c, 0, 37, 27
1, 9120, Note_on_c, 0, 42, 34
1, 9120, Note_on_c, 0, 49, 34
1, 9145, Control_c, 0, 64, 0
1, 9198, Control_c, 0, 64, 127
1, 9360, Tempo, 1124649
1, 9480, Note_on_c, 0, 61, 0
1, 9480, Note_on_c, 0, 65, 0
1, 9480, Note_on_c, 0, 63, 53
1, 9480, Note_on_c, 0, 60, 47
1, 9520, Tempo, 1044386
1, 9540, Note_on_c, 0, 60, 0
1, 9540, Note_on_c, 0, 63, 0
1, 9540, Note_on_c, 0, 65, 48
1, 9600, Note_on_c, 0, 65, 0
1, 9600, Note_on_c, 0, 42, 0
1, 9600, Note_on_c, 0, 37, 0
1, 9600, Note_on_c, 0, 49, 0
1, 9600, Note_on_c, 0, 54, 0
1, 9600, Note_on_c, 0, 63, 57
1, 9600, Note_on_c, 0, 60, 51
1, 9600, Note_on_c, 0, 53, 48
1, 9600, Note_on_c, 0, 34, 35
1, 9600, Note_on_c, 0, 41, 35
1, 9600, Note_on_c, 0, 46, 42
1, 9609, Control_c, 0, 64, 0
1, 9678, Control_c, 0, 64, 127
1, 9960, Note_on_c, 0, 60, 0
1, 9960, Note_on_c, 0, 63, 0
1, 9960, Note_on_c, 0, 61, 50
1, 9960, Note_on_c, 0, 58, 45
1, 10068, Note_on_c, 0, 58, 0
1, 10068, Note_on_c, 0, 61, 0
1, 10080, Tempo, 1059509
1, 10080, Note_on_c, 0, 53, 0
1, 10080, Note_on_c, 0, 34, 0
1, 10080, Note_on_c, 0, 46, 0
1, 10080, Note_on_c, 0, 41, 0
1, 10080, Note_on_c, 0, 61, 55
1, 10080, Note_on_c, 0, 54, 46
1, 10080, Note_on_c, 0, 58, 48
1, 10080, Note_on_c, 0, 37, 30
1, 10080, Note_on_c, 0, 42, 30
1, 10080, Note_on_c, 0, 49, 37
1, 10094, Control_c, 0, 64, 0
1, 10186, Control_c, 0, 64, 127
1, 10440, Note_on_c, 0, 58, 0
1, 10440, Note_on_c, 0, 61, 0
1, 10440, Note_on_c, 0, 61, 45
1, 10440, Note_on_c, 0, 58, 39
1, 10548, Note_on_c, 0, 58, 0
1, 10548, Note_on_c, 0, 61, 0
1, 10560, Tempo, 1083032
1, 10560, Note_on_c, 0, 42, 0
1, 10560, Note_on_c, 0, 54, 0
1, 10560, Note_on_c, 0, 49, 0
1, 10560, Note_on_c, 0, 37, 0
1, 10560, Note_on_c, 0, 61, 50
1, 10560, Note_on_c, 0, 53, 42
1, 10560, Note_on_c, 0, 58, 45
1, 10560, Note_on_c, 0, 34, 35
1, 10560, Note_on_c, 0, 41, 35
1, 10560, Note_on_c, 0, 46, 42
1, 10578, Control_c, 0, 64, 0
1, 10701, Control_c, 0, 64, 127
1, 11040, Note_on_c, 0, 46, 0
1, 11040, Note_on_c, 0, 34, 0
1, 11040, Note_on_c, 0, 53, 0
1, 11040, Note_on_c, 0, 41, 0
1, 11040, Note_on_c, 0, 54, 35
1, 11040, Note_on_c, 0, 37, 27
1, 11040, Note_on_c, 0, 42, 27
1, 11040, Note_on_c, 0, 49, 34
1, 11059, Control_c, 0, 64, 0
1, 11132, Control_c, 0, 64, 127
1, 11520, Tempo, 937500
1, 11520, Note_on_c, 0, 49, 0
1, 11520, Note_on_c, 0, 61, 0
1, 11520, Note_on_c, 0, 54, 0
1, 11520, Note_on_c, 0, 58, 0
1, 11520, Note_on_c, 0, 42, 0
1, 11520, Note_on_c, 0, 37, 0
1, 11520, Note_on_c, 0, 61, 58
1, 11520, Note_on_c, 0, 70, 73
1, 11520, Note_on_c, 0, 58, 58
1, 11520, Note_on_c, 0, 34, 42
1, 11520, Note_on_c, 0, 41, 42
1, 11520, Note_on_c, 0, 46, 52
1, 11529, Control_c, 0, 64, 0
1, 11601, Control_c, 0, 64, 127
1, 11760, Tempo, 875912
1, 11760, Note_on_c, 0, 70, 0
1, 11760, Note_on_c, 0, 68, 66
1, 11940, Tempo, 1000000
1, 11940, Note_on_c, 0, 68, 0
1, 11940, Note_on_c, 0, 58, 0
1, 11940, Note_on_c, 0, 61, 0
1, 11940, Note_on_c, 0, 68, 58
1, 12000, Tempo, 1016949
1, 12000, Note_on_c, 0, 68, 0
1, 12000, Note_on_c, 0, 46, 0
1, 12000, Note_on_c, 0, 41, 0
1, 12000, Note_on_c, 0, 34, 0
1, 12000, Note_on_c, 0, 61, 55
1, 12000, Note_on_c, 0, 66, 61
1, 12000, Note_on_c, 0, 58, 55
1, 12000, Note_on_c, 0, 37, 36
1, 12000, Note_on_c, 0, 42, 36
1, 12000, Note_on_c, 0, 49, 44
1, 12018, Control_c, 0, 64, 0
1, 12078, Control_c, 0, 64, 127
1, 12360, Note_on_c, 0, 66, 0
1, 12360, Note_on_c, 0, 65, 53
1, 12468, Note_on_c, 0, 65, 0
1, 12480, Tempo, 1083032
1, 12480, Note_on_c, 0, 49, 0
1, 12480, Note_on_c, 0, 37, 0
1, 12480, Note_on_c, 0, 61, 0
1, 12480, Note_on_c, 0, 58, 0
1, 12480, Note_on_c, 0, 42, 0
1, 12480, Note_on_c, 0, 58, 50
1, 12480, Note_on_c, 0, 65, 59
1, 12480, Note_on_c, 0, 61, 50
1, 12480, Note_on_c, 0, 34, 38
1, 12480, Note_on_c, 0, 41, 38
1, 12480, Note_on_c, 0, 46, 46
1, 12499, Control_c, 0, 64, 0
1, 12561, Control_c, 0, 64, 127
1, 12960, Note_on_c, 0, 46, 0
1, 12960, Note_on_c, 0, 65, 0
1, 12960, Note_on_c, 0, 61, 0
1, 12960, Note_on_c, 0, 58, 0
1, 12960, Note_on_c, 0, 41, 0
1, 12960, Note_on_c, 0, 34, 0
1, 12960, Note_on_c, 0, 58, 42
1, 12960, Note_on_c, 0, 61, 51
1, 12960, Note_on_c, 0, 37, 27
1, 12960, Note_on_c, 0, 42, 27
1, 12960, Note_on_c, 0, 49, 35
1, 12975, Control_c, 0, 64, 0
1, 13024, Control_c, 0, 64, 127
1, 13440, Tempo, 952381
1, 13440, Note_on_c, 0, 49, 0
1, 13440, Note_on_c, 0, 37, 0
1, 13440, Note_on_c, 0, 58, 0
1, 13440, Note_on_c, 0, 61, 0
1, 13440, Note_on_c, 0, 42, 0
1, 13440, Note_on_c, 0, 61, 58
1, 13440, Note_on_c, 0, 70, 73
1, 13440, Note_on_c, 0, 58, 58
1, 13440, Note_on_c, 0, 34, 42
1, 13440, Note_on_c, 0, 41, 42
1, 13440, Note_on_c, 0, 46, 52
1, 13450, Control_c, 0, 64, 0
1, 13475, Control_c, 0, 64, 127
1, 13680, Tempo, 1059509
1, 13680, Note_on_c, 0, 70, 0
1, 13680, Note_on_c, 0, 68, 65
1, 13700, Tempo, 875912
1, 13860, Tempo, 1025641
1, 13860, Note_on_c, 0, 68, 0
1, 13860, Note_on_c, 0, 58, 0
1, 13860, Note_on_c, 0, 61, 0
1, 13860, Note_on_c, 0, 68, 58
1, 13920, Tempo, 1008403
1, 13920, Note_on_c, 0, 68, 0
1, 13920, Note_on_c, 0, 46, 0
1, 13920, Note_on_c, 0, 41, 0
1, 13920, Note_on_c, 0, 34, 0
1, 13920, Note_on_c, 0, 61, 55
1, 13920, Note_on_c, 0, 66, 61
1, 13920, Note_on_c, 0, 58, 55
1, 13920, Note_on_c, 0, 37, 36
1, 13920, Note_on_c, 0, 42, 36
1, 13920, Note_on_c, 0, 49, 44
1, 13935, Control_c, 0, 64, 0
1, 13940, Tempo, 991736
1, 14001, Control_c, 0, 64, 127
1, 14280, Note_on_c, 0, 66, 0
1, 14280, Note_on_c, 0, 65, 54
1, 14388, Note_on_c, 0, 65, 0
1, 14400, Tempo, 1083032
1, 14400, Note_on_c, 0, 49, 0
1, 14400, Note_on_c, 0, 37, 0
1, 14400, Note_on_c, 0, 61, 0
1, 14400, Note_on_c, 0, 58, 0
1, 14400, Note_on_c, 0, 42, 0
1, 14400, Note_on_c, 0, 58, 50
1, 14400, Note_on_c, 0, 65, 59
1, 14400, Note_on_c, 0, 61, 50
1, 14400, Note_on_c, 0, 34, 38
1, 14400, Note_on_c, 0, 41, 38
1, 14400, Note_on_c, 0, 46, 46
1, 14418, Control_c, 0, 64, 0
1, 14460, Control_c, 0, 64, 127
1, 14880, Note_on_c, 0, 46, 0
1, 14880, Note_on_c, 0, 65, 0
1, 14880, Note_on_c, 0, 61, 0
1, 14880, Note_on_c, 0, 58, 0
1, 14880, Note_on_c, 0, 41, 0
1, 14880, Note_on_c, 0, 34, 0
1, 14880, Note_on_c, 0, 58, 42
1, 14880, Note_on_c, 0, 61, 51
1, 14880, Note_on_c, 0, 37, 27
1, 14880, Note_on_c, 0, 42, 27
1, 14880, Note_on_c, 0, 49, 35
1, 14886, Control_c, 0, 64, 0
1, 14933, Control_c, 0, 64, 127
1, 15360, Tempo, 1044386
1, 15360, Note_on_c, 0, 49, 0
1, 15360, Note_on_c, 0, 37, 0
1, 15360, Note_on_c, 0, 58, 0
1, 15360, Note_on_c, 0, 61, 0
1, 15360, Note_on_c, 0, 42, 0
1, 15360, Note_on_c, 0, 53, 39
1, 15360, Note_on_c, 0, 58, 46
1, 15360, Note_on_c, 0, 34, 32
1, 15360, Note_on_c, 0, 41, 32
1, 15360, Note_on_c, 0, 46, 39
1, 15372, Control_c, 0, 64, 0
1, 15424, Control_c, 0, 64, 127
1, 15840, Tempo, 1075076
1, 15840, Note_on_c, 0, 46, 0
1, 15840, Note_on_c, 0, 34, 0
1, 15840, Note_on_c, 0, 53, 0
1, 15840, Note_on_c, 0, 58, 0
1, 15840, Note_on_c, 0, 41, 0
1, 15840, Note_on_c, 0, 54, 39
1, 15840, Note_on_c, 0, 58, 46
1, 15840, Note_on_c, 0, 37, 28
1, 15840, Note_on_c, 0, 42, 34
1, 15840, Note_on_c, 0, 49, 34
1, 15854, Control_c, 0, 64, 0
1, 15981, Control_c, 0, 64, 127
1, 16200, Note_on_c, 0, 58, 0
1, 16200, Note_on_c, 0, 58, 41
1, 16308, Note_on_c, 0, 58, 0
1, 16320, Tempo, 1067236
1, 16320, Note_on_c, 0, 49, 0
1, 16320, Note_on_c, 0, 54, 0
1, 16320, Note_on_c, 0, 37, 0
1, 16320, Note_on_c, 0, 42, 0
1, 16320, Note_on_c, 0, 58, 46
1, 16320, Note_on_c, 0, 53, 39
1, 16320, Note_on_c, 0, 34, 32
1, 16320, Note_on_c, 0, 41, 32
1, 16320, Note_on_c, 0, 46, 39
1, 16333, Control_c, 0, 64, 0
1, 16454, Control_c, 0, 64, 127
1, 16800, Tempo, 1044386
1, 16800, Note_on_c, 0, 46, 0
1, 16800, Note_on_c, 0, 34, 0
1, 16800, Note_on_c, 0, 58, 0
1, 16800, Note_on_c, 0, 53, 0
1, 16800, Note_on_c, 0, 41, 0
1, 16800, Note_on_c, 0, 61, 54
1, 16800, Note_on_c, 0, 54, 44
1, 16800, Note_on_c, 0, 37, 25
1, 16800, Note_on_c, 0, 42, 31
1, 16800, Note_on_c, 0, 49, 31
1, 16812, Control_c, 0, 64, 0
1, 16885, Control_c, 0, 64, 127
1, 17160, Note_on_c, 0, 61, 0
1, 17160, Note_on_c, 0, 60, 49
1, 17220, Note_on_c, 0, 60, 0
1, 17220, Note_on_c, 0, 61, 45
1, 17280, Note_on_c, 0, 61, 0
1, 17280, Note_on_c, 0, 42, 0
1, 17280, Note_on_c, 0, 54, 0
1, 17280, Note_on_c, 0, 37, 0
1, 17280, Note_on_c, 0, 49, 0
1, 17280, Note_on_c, 0, 60, 52
1, 17280, Note_on_c, 0, 53, 44
1, 17280, Note_on_c, 0, 34, 32
1, 17280, Note_on_c, 0, 41, 32
1, 17280, Note_on_c, 0, 46, 39
1, 17292, Control_c, 0, 64, 0
1, 17393, Control_c, 0, 64, 127
1, 17640, Note_on_c, 0, 60, 0
1, 17640, Note_on_c, 0, 58, 46
1, 17748, Note_on_c, 0, 58, 0
1, 17760, Tempo, 1059509
1, 17760, Note_on_c, 0, 46, 0
1, 17760, Note_on_c, 0, 53, 0
1, 17760, Note_on_c, 0, 34, 0
1, 17760, Note_on_c, 0, 41, 0
1, 17760, Note_on_c, 0, 54, 42
1, 17760, Note_on_c, 0, 58, 50
1, 17760, Note_on_c, 0, 37, 28
1, 17760, Note_on_c, 0, 42, 28
1, 17760, Note_on_c, 0, 49, 34
1, 17778, Control_c, 0, 64, 0
1, 17944, Control_c, 0, 64, 127
1, 18120, Note_on_c, 0, 58, 0
1, 18120, Note_on_c, 0, 58, 41
1, 18228, Note_on_c, 0, 58, 0
1, 18240, Tempo, 1075076
1, 18240, Note_on_c, 0, 49, 0
1, 18240, Note_on_c, 0, 54, 0
1, 18240, Note_on_c, 0, 37, 0
1, 18240, Note_on_c, 0, 42, 0
1, 18240, Note_on_c, 0, 53, 39
1, 18240, Note_on_c, 0, 58, 46
1, 18240, Note_on_c, 0, 34, 32
1, 18240, Note_on_c, 0, 41, 32
1, 18240, Note_on_c, 0, 46, 39
1, 18255, Control_c, 0, 64, 0
1, 18416, Control_c, 0, 64, 127
1, 18720, Note_on_c, 0, 46, 0
1, 18720, Note_on_c, 0, 34, 0
1, 18720, Note_on_c, 0, 41, 0
1, 18720, Note_on_c, 0, 53, 0
1, 18720, Note_on_c, 0, 54, 32
1, 18720, Note_on_c, 0, 37, 25
1, 18720, Note_on_c, 0, 42, 25
1, 18720, Note_on_c, 0, 49, 31
1, 18734, Control_c, 0, 64, 0
1, 18861, Control_c, 0, 64, 127
1, 19200, Tempo, 952381
1, 19200, Note_on_c, 0, 49, 0
1, 19200, Note_on_c, 0, 37, 0
1, 19200, Note_on_c, 0, 58, 0
1, 19200, Note_on_c, 0, 54, 0
1, 19200, Note_on_c, 0, 42, 0
1, 19200, Note_on_c, 0, 73, 68
1, 19200, Note_on_c, 0, 82, 83
1, 19200, Note_on_c, 0, 70, 68
1, 19200, Note_on_c, 0, 34, 47
1, 19200, Note_on_c, 0, 41, 47
1, 19200, Note_on_c, 0, 46, 57
1, 19208, Control_c, 0, 64, 0
1, 19264, Control_c, 0, 64, 127
1, 19440, Tempo, 888889
1, 19440, Note_on_c, 0, 70, 0
1, 19440, Note_on_c, 0, 82, 0
1, 19440, Note_on_c, 0, 68, 56
1, 19440, Note_on_c, 0, 80, 73
1, 19560, Tempo, 923077
1, 19620, Tempo, 1043478
1, 19620, Note_on_c, 0, 80, 0
1, 19620, Note_on_c, 0, 68, 0
1, 19620, Note_on_c, 0, 68, 64
1, 19628, Tempo, 1071429
1, 19640, Tempo, 1100917
1, 19640, Note_on_c, 0, 68, 0
1, 19640, Note_on_c, 0, 73, 57
1, 19648, Tempo, 1142857
1, 19660, Tempo, 1176471
1, 19660, Note_on_c, 0, 73, 0
1, 19660, Note_on_c, 0, 80, 59
1, 19668, Tempo, 1224490
1, 19672, Tempo, 1008403
1, 19680, Tempo, 1016949
1, 19680, Note_on_c, 0, 80, 0
1, 19680, Note_on_c, 0, 34, 0
1, 19680, Note_on_c, 0, 41, 0
1, 19680, Note_on_c, 0, 46, 0
1, 19680, Note_on_c, 0, 73, 74
1, 19680, Note_on_c, 0, 78, 73
1, 19680, Note_on_c, 0, 66, 61
1, 19680, Note_on_c, 0, 37, 37
1, 19680, Note_on_c, 0, 42, 37
1, 19680, Note_on_c, 0, 49, 46
1, 19698, Control_c, 0, 64, 0
1, 19761, Control_c, 0, 64, 127
1, 20040, Tempo, 1052632
1, 20040, Note_on_c, 0, 78, 0
1, 20040, Note_on_c, 0, 65, 52
1, 20040, Note_on_c, 0, 77, 61
1, 20148, Note_on_c, 0, 77, 0
1, 20148, Note_on_c, 0, 65, 0
1, 20160, Tempo, 1061947
1, 20160, Note_on_c, 0, 49, 0
1, 20160, Note_on_c, 0, 73, 0
1, 20160, Note_on_c, 0, 66, 0
1, 20160, Note_on_c, 0, 37, 0
1, 20160, Note_on_c, 0, 42, 0
1, 20160, Note_on_c, 0, 73, 0
1, 20160, Note_on_c, 0, 65, 58
1, 20160, Note_on_c, 0, 77, 69
1, 20160, Note_on_c, 0, 73, 69
1, 20160, Note_on_c, 0, 34, 39
1, 20160, Note_on_c, 0, 41, 39
1, 20160, Note_on_c, 0, 46, 48
1, 20179, Control_c, 0, 64, 0
1, 20227, Control_c, 0, 64, 127
1, 20640, Note_on_c, 0, 46, 0
1, 20640, Note_on_c, 0, 77, 0
1, 20640, Note_on_c, 0, 73, 0
1, 20640, Note_on_c, 0, 65, 0
1, 20640, Note_on_c, 0, 41, 0
1, 20640, Note_on_c, 0, 34, 0
1, 20640, Note_on_c, 0, 73, 68
1, 20640, Note_on_c, 0, 61, 57
1, 20640, Note_on_c, 0, 70, 68
1, 20640, Note_on_c, 0, 37, 30
1, 20640, Note_on_c, 0, 42, 30
1, 20640, Note_on_c, 0, 49, 38
1, 20652, Control_c, 0, 64, 0
1, 20728, Control_c, 0, 64, 127
1, 21120, Tempo, 960000
1, 21120, Note_on_c, 0, 49, 0
1, 21120, Note_on_c, 0, 61, 0
1, 21120, Note_on_c, 0, 70, 0
1, 21120, Note_on_c, 0, 73, 0
1, 21120, Note_on_c, 0, 42, 0
1, 21120, Note_on_c, 0, 37, 0
1, 21120, Note_on_c, 0, 73, 68
1, 21120, Note_on_c, 0, 82, 83
1, 21120, Note_on_c, 0, 70, 68
1, 21120, Note_on_c, 0, 34, 47
1, 21120, Note_on_c, 0, 41, 47
1, 21120, Note_on_c, 0, 46, 57
1, 21131, Control_c, 0, 64, 0
1, 21187, Control_c, 0, 64, 127
1, 21360, Tempo, 895522
1, 21360, Note_on_c, 0, 70, 0
1, 21360, Note_on_c, 0, 82, 0
1, 21360, Note_on_c, 0, 68, 56
1, 21360, Note_on_c, 0, 80, 73
1, 21480, Tempo, 923077
1, 21540, Note_on_c, 0, 80, 0
1, 21540, Note_on_c, 0, 68, 0
1, 21540, Note_on_c, 0, 68, 66
1, 21560, Tempo, 1165049
1, 21560, Note_on_c, 0, 68, 0
1, 21560, Note_on_c, 0, 73, 58
1, 21568, Tempo, 1200000
1, 21580, Tempo, 1237113
1, 21580, Note_on_c, 0, 73, 0
1, 21580, Note_on_c, 0, 80, 58
1, 21588, Tempo, 1290323
1, 21592, Tempo, 991736
1, 21600, Tempo, 1025641
1, 21600, Note_on_c, 0, 80, 0
1, 21600, Note_on_c, 0, 34, 0
1, 21600, Note_on_c, 0, 41, 0
1, 21600, Note_on_c, 0, 46, 0
1, 21600, Note_on_c, 0, 73, 76
1, 21600, Note_on_c, 0, 78, 73
1, 21600, Note_on_c, 0, 66, 63
1, 21600, Note_on_c, 0, 37, 37
1, 21600, Note_on_c, 0, 42, 37
1, 21600, Note_on_c, 0, 49, 46
1, 21616, Control_c, 0, 64, 0
1, 21660, Control_c, 0, 64, 127
1, 21960, Tempo, 1052632
1, 21960, Note_on_c, 0, 78, 0
1, 21960, Note_on_c, 0, 65, 52
1, 21960, Note_on_c, 0, 77, 61
1, 22068, Note_on_c, 0, 77, 0
1, 22068, Note_on_c, 0, 65, 0
1, 22080, Tempo, 1061947
1, 22080, Note_on_c, 0, 49, 0
1, 22080, Note_on_c, 0, 73, 0
1, 22080, Note_on_c, 0, 66, 0
1, 22080, Note_on_c, 0, 37, 0
1, 22080, Note_on_c, 0, 42, 0
1, 22080, Note_on_c, 0, 73, 0
1, 22080, Note_on_c, 0, 65, 58
1, 22080, Note_on_c, 0, 77, 69
1, 22080, Note_on_c, 0, 73, 69
1, 22080, Note_on_c, 0, 34, 39
1, 22080, Note_on_c, 0, 41, 39
1, 22080, Note_on_c, 0, 46, 48
1, 22094, Control_c, 0, 64, 0
1, 22214, Control_c, 0, 64, 127
1, 22560, Note_on_c, 0, 46, 0
1, 22560, Note_on_c, 0, 77, 0
1, 22560, Note_on_c, 0, 73, 0
1, 22560, Note_on_c, 0, 65, 0
1, 22560, Note_on_c, 0, 41, 0
1, 22560, Note_on_c, 0, 34, 0
1, 22560, Note_on_c, 0, 73, 68
1, 22560, Note_on_c, 0, 61, 57
1, 22560, Note_on_c, 0, 70, 68
1, 22560, Note_on_c, 0, 37, 30
1, 22560, Note_on_c, 0, 42, 30
1, 22560, Note_on_c, 0, 49, 38
1, 22567, Control_c, 0, 64, 0
1, 22712, Control_c, 0, 64, 127
1, 23040, Tempo, 1044386
1, 23040, Note_on_c, 0, 49, 0
1, 23040, Note_on_c, 0, 61, 0
1, 23040, Note_on_c, 0, 70, 0
1, 23040, Note_on_c, 0, 73, 0
1, 23040, Note_on_c, 0, 42, 0
1, 23040, Note_on_c, 0, 37, 0
1, 23040, Note_on_c, 0, 58, 52
1, 23040, Note_on_c, 0, 65, 52
1, 23040, Note_on_c, 0, 70, 61
1, 23040, Note_on_c, 0, 34, 43
1, 23040, Note_on_c, 0, 41, 43
1, 23040, Note_on_c, 0, 46, 52
1, 23051, Control_c, 0, 64, 0
1, 23188, Control_c, 0, 64, 127
1, 23520, Tempo, 1075076
1, 23520, Note_on_c, 0, 46, 0
1, 23520, Note_on_c, 0, 65, 0
1, 23520, Note_on_c, 0, 70, 0
1, 23520, Note_on_c, 0, 58, 0
1, 23520, Note_on_c, 0, 41, 0
1, 23520, Note_on_c, 0, 34, 0
1, 23520, Note_on_c, 0, 58, 53
1, 23520, Note_on_c, 0, 66, 53
1, 23520, Note_on_c, 0, 70, 63
1, 23520, Note_on_c, 0, 37, 37
1, 23520, Note_on_c, 0, 42, 46
1, 23520, Note_on_c, 0, 49, 46
1, 23537, Control_c, 0, 64, 0
1, 23711, Control_c, 0, 64, 127
1, 23880, Note_on_c, 0, 70, 0
1, 23880, Note_on_c, 0, 58, 0
1, 23880, Note_on_c, 0, 58, 48
1, 23880, Note_on_c, 0, 70, 57
1, 23988, Note_on_c, 0, 70, 0
1, 23988, Note_on_c, 0, 58, 0
1, 24000, Tempo, 1067236
1, 24000, Note_on_c, 0, 42, 0
1, 24000, Note_on_c, 0, 66, 0
1, 24000, Note_on_c, 0, 49, 0
1, 24000, Note_on_c, 0, 37, 0
1, 24000, Note_on_c, 0, 58, 54
1, 24000, Note_on_c, 0, 65, 54
1, 24000, Note_on_c, 0, 70, 65
1, 24000, Note_on_c, 0, 34, 45
1, 24000, Note_on_c, 0, 41, 45
1, 24000, Note_on_c, 0, 46, 54
1, 24015, Control_c, 0, 64, 0
1, 24141, Control_c, 0, 64, 127
1, 24480, Tempo, 1044386
1, 24480, Note_on_c, 0, 46, 0
1, 24480, Note_on_c, 0, 65, 0
1, 24480, Note_on_c, 0, 70, 0
1, 24480, Note_on_c, 0, 58, 0
1, 24480, Note_on_c, 0, 41, 0
1, 24480, Note_on_c, 0, 34, 0
1, 24480, Note_on_c, 0, 61, 68
1, 24480, Note_on_c, 0, 73, 82
1, 24480, Note_on_c, 0, 66, 66
1, 24480, Note_on_c, 0, 37, 36
1, 24480, Note_on_c, 0, 42, 46
1, 24480, Note_on_c, 0, 49, 46
1, 24494, Control_c, 0, 64, 0
1, 24635, Control_c, 0, 64, 127
1, 24840, Note_on_c, 0, 73, 0
1, 24840, Note_on_c, 0, 61, 0
1, 24840, Note_on_c, 0, 60, 59
1, 24840, Note_on_c, 0, 72, 71
1, 24960, Note_on_c, 0, 72, 0
1, 24960, Note_on_c, 0, 49, 0
1, 24960, Note_on_c, 0, 66, 0
1, 24960, Note_on_c, 0, 37, 0
1, 24960, Note_on_c, 0, 60, 0
1, 24960, Note_on_c, 0, 42, 0
1, 24960, Note_on_c, 0, 60, 68
1, 24960, Note_on_c, 0, 72, 79
1, 24960, Note_on_c, 0, 65, 68
1, 24960, Note_on_c, 0, 34, 49
1, 24960, Note_on_c, 0, 41, 49
1, 24960, Note_on_c, 0, 46, 58
1, 24971, Control_c, 0, 64, 0
1, 25115, Control_c, 0, 64, 127
1, 25320, Note_on_c, 0, 72, 0
1, 25320, Note_on_c, 0, 60, 0
1, 25320, Note_on_c, 0, 58, 59
1, 25320, Note_on_c, 0, 70, 71
1, 25428, Note_on_c, 0, 70, 0
1, 25428, Note_on_c, 0, 58, 0
1, 25440, Tempo, 1059509
1, 25440, Note_on_c, 0, 65, 0
1, 25440, Note_on_c, 0, 34, 0
1, 25440, Note_on_c, 0, 46, 0
1, 25440, Note_on_c, 0, 41, 0
1, 25440, Note_on_c, 0, 58, 64
1, 25440, Note_on_c, 0, 66, 64
1, 25440, Note_on_c, 0, 70, 77
1, 25440, Note_on_c, 0, 37, 42
1, 25440, Note_on_c, 0, 42, 42
1, 25440, Note_on_c, 0, 49, 51
1, 25457, Control_c, 0, 64, 0
1, 25581, Control_c, 0, 64, 127
1, 25800, Note_on_c, 0, 70, 0
1, 25800, Note_on_c, 0, 58, 0
1, 25800, Note_on_c, 0, 58, 60
1, 25800, Note_on_c, 0, 70, 72
1, 25908, Note_on_c, 0, 70, 0
1, 25908, Note_on_c, 0, 58, 0
1, 25920, Tempo, 1075076
1, 25920, Note_on_c, 0, 42, 0
1, 25920, Note_on_c, 0, 66, 0
1, 25920, Note_on_c, 0, 49, 0
1, 25920, Note_on_c, 0, 37, 0
1, 25920, Note_on_c, 0, 58, 63
1, 25920, Note_on_c, 0, 65, 64
1, 25920, Note_on_c, 0, 70, 76
1, 25920, Note_on_c, 0, 34, 53
1, 25920, Note_on_c, 0, 41, 53
1, 25920, Note_on_c, 0, 46, 64
1, 25934, Control_c, 0, 64, 0
1, 26040, Control_c, 0, 64, 127
1, 26400, Note_on_c, 0, 46, 0
1, 26400, Note_on_c, 0, 65, 0
1, 26400, Note_on_c, 0, 70, 0
1, 26400, Note_on_c, 0, 58, 0
1, 26400, Note_on_c, 0, 41, 0
1, 26400, Note_on_c, 0, 34, 0
1, 26400, Note_on_c, 0, 68, 75
1, 26400, Note_on_c, 0, 60, 75
1, 26400, Note_on_c, 0, 72, 95
1, 26400, Note_on_c, 0, 66, 75
1, 26400, Note_on_c, 0, 32, 56
1, 26400, Note_on_c, 0, 44, 71
1, 26419, Control_c, 0, 64, 0
1, 26513, Control_c, 0, 64, 127
1, 26880, Note_on_c, 0, 44, 0
1, 26880, Note_on_c, 0, 60, 0
1, 26880, Note_on_c, 0, 72, 0
1, 26880, Note_on_c, 0, 68, 0
1, 26880, Note_on_c, 0, 32, 0
1, 26880, Note_on_c, 0, 66, 0
1, 26880, Note_on_c, 0, 61, 78
1, 26880, Note_on_c, 0, 65, 78
1, 26880, Note_on_c, 0, 73, 100
1, 26880, Note_on_c, 0, 25, 59
1, 26880, Note_on_c, 0, 37, 74
1, 26893, Control_c, 0, 64, 0
1, 27000, Control_c, 0, 64, 127
1, 27360, Note_on_c, 0, 37, 0
1, 27360, Note_on_c, 0, 73, 0
1, 27360, Note_on_c, 0, 61, 0
1, 27360, Note_on_c, 0, 65, 0
1, 27360, Note_on_c, 0, 25, 0
1, 27360, Note_on_c, 0, 65, 74
1, 27360, Note_on_c, 0, 73, 74
1, 27360, Note_on_c, 0, 77, 89
1, 27360, Note_on_c, 0, 49, 64
1, 27360, Note_on_c, 0, 56, 64
1, 27360, Note_on_c, 0, 61, 76
1, 27379, Control_c, 0, 64, 0
1, 27473, Control_c, 0, 64, 127
1, 27720, Note_on_c, 0, 61, 0
1, 27720, Note_on_c, 0, 73, 0
1, 27720, Note_on_c, 0, 77, 0
1, 27720, Note_on_c, 0, 65, 0
1, 27720, Note_on_c, 0, 56, 0
1, 27720, Note_on_c, 0, 49, 0
1, 27720, Note_on_c, 0, 66, 74
1, 27720, Note_on_c, 0, 78, 89
1, 27720, Note_on_c, 0, 63, 76
1, 27840, Note_on_c, 0, 63, 0
1, 27840, Note_on_c, 0, 78, 0
1, 27840, Note_on_c, 0, 66, 0
1, 27840, Note_on_c, 0, 68, 78
1, 27840, Note_on_c, 0, 80, 93
1, 27840, Note_on_c, 0, 73, 78
1, 27840, Note_on_c, 0, 49, 68
1, 27840, Note_on_c, 0, 56, 68
1, 27840, Note_on_c, 0, 65, 80
1, 27859, Control_c, 0, 64, 0
1, 27939, Control_c, 0, 64, 127
1, 28200, Note_on_c, 0, 65, 0
1, 28200, Note_on_c, 0, 80, 0
1, 28200, Note_on_c, 0, 73, 0
1, 28200, Note_on_c, 0, 68, 0
1, 28200, Note_on_c, 0, 56, 0
1, 28200, Note_on_c, 0, 49, 0
1, 28200, Note_on_c, 0, 70, 78
1, 28200, Note_on_c, 0, 82, 93
1, 28200, Note_on_c, 0, 66, 80
1, 28320, Tempo, 1100917
1, 28320, Note_on_c, 0, 66, 0
1, 28320, Note_on_c, 0, 82, 0
1, 28320, Note_on_c, 0, 70, 0
1, 28320, Note_on_c, 0, 72, 84
1, 28320, Note_on_c, 0, 80, 84
1, 28320, Note_on_c, 0, 84, 99
1, 28320, Note_on_c, 0, 63, 73
1, 28320, Note_on_c, 0, 56, 73
1, 28320, Note_on_c, 0, 68, 86
1, 28339, Control_c, 0, 64, 0
1, 28433, Control_c, 0, 64, 127
1, 28680, Note_on_c, 0, 68, 0
1, 28680, Note_on_c, 0, 80, 0
1, 28680, Note_on_c, 0, 84, 0
1, 28680, Note_on_c, 0, 72, 0
1, 28680, Note_on_c, 0, 56, 0
1, 28680, Note_on_c, 0, 63, 0
1, 28680, Note_on_c, 0, 73, 88
1, 28680, Note_on_c, 0, 85, 102
1, 28680, Note_on_c, 0, 65, 85
1, 28800, Tempo, 1071429
1, 28800, Note_on_c, 0, 65, 0
1, 28800, Note_on_c, 0, 85, 0
1, 28800, Note_on_c, 0, 73, 0
1, 28800, Note_on_c, 0, 89, 103
1, 28800, Note_on_c, 0, 80, 88
1, 28800, Note_on_c, 0, 77, 88
1, 28800, Note_on_c, 0, 84, 88
1, 28800, Note_on_c, 0, 32, 77
1, 28800, Note_on_c, 0, 44, 92
1, 28811, Control_c, 0, 64, 0
1, 28909, Control_c, 0, 64, 127
1, 29280, Note_on_c, 0, 44, 0
1, 29280, Note_on_c, 0, 32, 0
1, 29280, Note_on_c, 0, 63, 69
1, 29280, Note_on_c, 0, 66, 69
1, 29280, Note_on_c, 0, 72, 81
1, 29640, Note_on_c, 0, 72, 0
1, 29640, Note_on_c, 0, 63, 0
1, 29640, Note_on_c, 0, 66, 0
1, 29640, Note_on_c, 0, 61, 65
1, 29640, Note_on_c, 0, 66, 65
1, 29640, Note_on_c, 0, 70, 76
1, 29748, Note_on_c, 0, 70, 0
1, 29748, Note_on_c, 0, 61, 0
1, 29748, Note_on_c, 0, 66, 0
1, 29760, Note_on_c, 0, 77, 0
1, 29760, Note_on_c, 0, 89, 0
1, 29760, Note_on_c, 0, 75, 79
1, 29760, Note_on_c, 0, 87, 95
1, 29760, Note_on_c, 0, 61, 63
1, 29760, Note_on_c, 0, 66, 63
1, 29760, Note_on_c, 0, 70, 75
1, 29777, Control_c, 0, 64, 0
1, 29909, Control_c, 0, 64, 127
1, 30120, Note_on_c, 0, 70, 0
1, 30120, Note_on_c, 0, 61, 0
1, 30120, Note_on_c, 0, 66, 0
1, 30120, Note_on_c, 0, 60, 59
1, 30120, Note_on_c, 0, 66, 59
1, 30120, Note_on_c, 0, 68, 71
1, 30228, Note_on_c, 0, 68, 0
1, 30228, Note_on_c, 0, 60, 0
1, 30228, Note_on_c, 0, 66, 0
1, 30240, Note_on_c, 0, 60, 57
1, 30240, Note_on_c, 0, 66, 57
1, 30240, Note_on_c, 0, 68, 68
1, 30256, Control_c, 0, 64, 0
1, 30337, Control_c, 0, 64, 127
1, 30480, Note_on_c, 0, 87, 0
1, 30480, Note_on_c, 0, 75, 0
1, 30480, Note_on_c, 0, 84, 0
1, 30480, Note_on_c, 0, 80, 0
1, 30600, Tempo, 1176471
1, 30600, Note_on_c, 0, 68, 0
1, 30600, Note_on_c, 0, 60, 0
1, 30600, Note_on_c, 0, 66, 0
1, 30600, Note_on_c, 0, 78, 89
1, 30600, Note_on_c, 0, 72, 75
1, 30600, Note_on_c, 0, 75, 75
1, 30600, Note_on_c, 0, 66, 75
1, 30600, Note_on_c, 0, 57, 66
1, 30600, Note_on_c, 0, 60, 66
1, 30600, Note_on_c, 0, 63, 77
1, 30720, Tempo, 1071429
1, 30720, Note_on_c, 0, 63, 0
1, 30720, Note_on_c, 0, 57, 0
1, 30720, Note_on_c, 0, 72, 0
1, 30720, Note_on_c, 0, 75, 0
1, 30720, Note_on_c, 0, 78, 0
1, 30720, Note_on_c, 0, 60, 0
1, 30720, Note_on_c, 0, 66, 0
1, 30720, Note_on_c, 0, 75, 80
1, 30720, Note_on_c, 0, 65, 80
1, 30720, Note_on_c, 0, 72, 80
1, 30720, Note_on_c, 0, 77, 102
1, 30720, Note_on_c, 0, 34, 66
1, 30720, Note_on_c, 0, 46, 78
1, 30732, Control_c, 0, 64, 0
1, 30806, Control_c, 0, 64, 127
1, 31200, Note_on_c, 0, 46, 0
1, 31200, Note_on_c, 0, 65, 0
1, 31200, Note_on_c, 0, 72, 0
1, 31200, Note_on_c, 0, 75, 0
1, 31200, Note_on_c, 0, 34, 0
1, 31200, Note_on_c, 0, 77, 0
1, 31200, Note_on_c, 0, 70, 74
1, 31200, Note_on_c, 0, 65, 74
1, 31200, Note_on_c, 0, 73, 74
1, 31200, Note_on_c, 0, 77, 89
1, 31200, Note_on_c, 0, 53, 63
1, 31200, Note_on_c, 0, 58, 63
1, 31200, Note_on_c, 0, 61, 75
1, 31214, Control_c, 0, 64, 0
1, 31291, Control_c, 0, 64, 127
1, 31560, Note_on_c, 0, 77, 0
1, 31560, Note_on_c, 0, 73, 0
1, 31560, Note_on_c, 0, 70, 0
1, 31560, Note_on_c, 0, 65, 0
1, 31560, Note_on_c, 0, 67, 74
1, 31560, Note_on_c, 0, 79, 89
1, 31680, Note_on_c, 0, 79, 0
1, 31680, Note_on_c, 0, 61, 0
1, 31680, Note_on_c, 0, 58, 0
1, 31680, Note_on_c, 0, 53, 0
1, 31680, Note_on_c, 0, 67, 0
1, 31680, Note_on_c, 0, 77, 78
1, 31680, Note_on_c, 0, 69, 78
1, 31680, Note_on_c, 0, 73, 78
1, 31680, Note_on_c, 0, 81, 93
1, 31680, Note_on_c, 0, 37, 68
1, 31680, Note_on_c, 0, 49, 80
1, 31697, Control_c, 0, 64, 0
1, 31811, Control_c, 0, 64, 127
1, 32040, Note_on_c, 0, 81, 0
1, 32040, Note_on_c, 0, 73, 0
1, 32040, Note_on_c, 0, 77, 0
1, 32040, Note_on_c, 0, 69, 0
1, 32040, Note_on_c, 0, 70, 78
1, 32040, Note_on_c, 0, 82, 93
1, 32160, Tempo, 1100917
1, 32160, Note_on_c, 0, 82, 0
1, 32160, Note_on_c, 0, 37, 0
1, 32160, Note_on_c, 0, 49, 0
1, 32160, Note_on_c, 0, 70, 0
1, 32160, Note_on_c, 0, 72, 84
1, 32160, Note_on_c, 0, 77, 84
1, 32160, Note_on_c, 0, 84, 99
1, 32160, Note_on_c, 0, 65, 76
1, 32160, Note_on_c, 0, 61, 64
1, 32160, Note_on_c, 0, 58, 64
1, 32160, Note_on_c, 0, 53, 64
1, 32177, Control_c, 0, 64, 0
1, 32240, Control_c, 0, 64, 127
1, 32480, Tempo, 1318681
1, 32520, Note_on_c, 0, 84, 0
1, 32520, Note_on_c, 0, 72, 0
1, 32520, Note_on_c, 0, 77, 0
1, 32520, Note_on_c, 0, 73, 88
1, 32520, Note_on_c, 0, 85, 102
1, 32580, Tempo, 1518987
1, 32580, Note_on_c, 0, 85, 0
1, 32580, Note_on_c, 0, 73, 0
1, 32580, Note_on_c, 0, 70, 88
1, 32600, Note_on_c, 0, 76, 88
1, 32620, Note_on_c, 0, 79, 88
1, 32640, Tempo, 1100917
1, 32640, Note_on_c, 0, 53, 0
1, 32640, Note_on_c, 0, 61, 0
1, 32640, Note_on_c, 0, 65, 0
1, 32640, Note_on_c, 0, 58, 0
1, 32640, Note_on_c, 0, 85, 103
1, 32640, Note_on_c, 0, 29, 77
1, 32640, Note_on_c, 0, 41, 92
1, 32652, Control_c, 0, 64, 0
1, 32767, Control_c, 0, 64, 127
1, 33120, Note_on_c, 0, 41, 0
1, 33120, Note_on_c, 0, 29, 0
1, 33120, Note_on_c, 0, 53, 69
1, 33120, Note_on_c, 0, 58, 69
1, 33120, Note_on_c, 0, 61, 69
1, 33120, Note_on_c, 0, 67, 81
1, 33600, Note_on_c, 0, 67, 0
1, 33600, Note_on_c, 0, 76, 0
1, 33600, Note_on_c, 0, 53, 0
1, 33600, Note_on_c, 0, 70, 0
1, 33600, Note_on_c, 0, 85, 0
1, 33600, Note_on_c, 0, 79, 0
1, 33600, Note_on_c, 0, 58, 0
1, 33600, Note_on_c, 0, 61, 0
1, 33600, Note_on_c, 0, 72, 76
1, 33600, Note_on_c, 0, 77, 76
1, 33600, Note_on_c, 0, 84, 90
1, 33600, Note_on_c, 0, 53, 64
1, 33600, Note_on_c, 0, 57, 64
1, 33600, Note_on_c, 0, 60, 64
1, 33600, Note_on_c, 0, 69, 75
1, 33617, Control_c, 0, 64, 0
1, 33720, Control_c, 0, 64, 127
1, 34080, Tempo, 1481481
1, 34080, Note_on_c, 0, 69, 0
1, 34080, Note_on_c, 0, 57, 0
1, 34080, Note_on_c, 0, 77, 0
1, 34080, Note_on_c, 0, 84, 0
1, 34080, Note_on_c, 0, 72, 0
1, 34080, Note_on_c, 0, 60, 0
1, 34080, Note_on_c, 0, 53, 0
1, 34080, Note_on_c, 0, 53, 81
1, 34092, Control_c, 0, 64, 0
1, 34320, Tempo, 600000
1, 34320, Note_on_c, 0, 53, 0
1, 34320, Note_on_c, 0, 43, 61
1, 34340, Tempo, 603015
1, 34340, Control_c, 0, 64, 127
1, 34360, Tempo, 609137
1, 34380, Tempo, 615385
1, 34400, Tempo, 618557
1, 34400, Note_on_c, 0, 43, 0
1, 34400, Note_on_c, 0, 44, 61
1, 34420, Tempo, 625000
1, 34440, Tempo, 631579
1, 34460, Tempo, 638298
1, 34480, Tempo, 641711
1, 34480, Note_on_c, 0, 44, 0
1, 34480, Note_on_c, 0, 46, 61
1, 34500, Tempo, 648649
1, 34520, Tempo, 655738
1, 34540, Tempo, 662983
1, 34560, Tempo, 1111111
1, 34560, Note_on_c, 0, 46, 0
1, 34560, Note_on_c, 0, 56, 68
1, 34560, Note_on_c, 0, 54, 68
1, 34560, Note_on_c, 0, 60, 68
1, 34560, Note_on_c, 0, 65, 68
1, 34560, Note_on_c, 0, 68, 80
1, 34560, Note_on_c, 0, 44, 61
1, 34571, Control_c, 0, 64, 0
1, 34600, Control_c, 0, 64, 127
1, 34605, Note_on_c, 0, 44, 0
1, 34605, Note_on_c, 0, 46, 56
1, 34640, Tempo, 1100917
1, 34650, Note_on_c, 0, 46, 0
1, 34650, Note_on_c, 0, 44, 64
1, 34680, Tempo, 1090909
1, 34695, Note_on_c, 0, 44, 0
1, 34695, Note_on_c, 0, 46, 57
1, 34720, Tempo, 1081081
1, 34740, Note_on_c, 0, 46, 0
1, 34740, Note_on_c, 0, 44, 66
1, 34760, Tempo, 1071429
1, 34785, Note_on_c, 0, 44, 0
1, 34785, Note_on_c, 0, 46, 59
1, 34800, Tempo, 1061947
1, 34830, Note_on_c, 0, 46, 0
1, 34830, Note_on_c, 0, 44, 68
1, 34840, Tempo, 1052632
1, 34875, Note_on_c, 0, 44, 0
1, 34875, Note_on_c, 0, 46, 61
1, 34880, Tempo, 1043478
1, 34920, Tempo, 1034483
1, 34920, Note_on_c, 0, 46, 0
1, 34920, Note_on_c, 0, 44, 70
1, 34960, Tempo, 1025641
1, 34965, Note_on_c, 0, 44, 0
1, 34965, Note_on_c, 0, 46, 65
1, 35000, Tempo, 1016949
1, 35010, Note_on_c, 0, 46, 0
1, 35010, Note_on_c, 0, 44, 73
1, 35040, Tempo, 1008403
1, 35040, Note_on_c, 0, 68, 0
1, 35040, Note_on_c, 0, 65, 0
1, 35040, Note_on_c, 0, 60, 0
1, 35040, Note_on_c, 0, 56, 0
1, 35040, Note_on_c, 0, 54, 0
1, 35040, Note_on_c, 0, 63, 68
1, 35040, Note_on_c, 0, 56, 68
1, 35040, Note_on_c, 0, 60, 68
1, 35040, Note_on_c, 0, 54, 68
1, 35040, Note_on_c, 0, 68, 80
1, 35055, Note_on_c, 0, 44, 0
1, 35055, Note_on_c, 0, 46, 66
1, 35057, Control_c, 0, 64, 0
1, 35080, Tempo, 1000000
1, 35100, Note_on_c, 0, 46, 0
1, 35100, Control_c, 0, 64, 127
1, 35100, Note_on_c, 0, 44, 72
1, 35145, Note_on_c, 0, 44, 0
1, 35146, Note_on_c, 0, 46, 63
1, 35160, Tempo, 1008403
1, 35190, Note_on_c, 0, 44, 69
1, 35191, Note_on_c, 0, 46, 0
1, 35200, Tempo, 1016949
1, 35235, Note_on_c, 0, 44, 0
1, 35235, Note_on_c, 0, 46, 60
1, 35240, Tempo, 1025641
1, 35280, Tempo, 1034483
1, 35280, Note_on_c, 0, 44, 66
1, 35281, Note_on_c, 0, 46, 0
1, 35320, Tempo, 1043478
1, 35340, Note_on_c, 0, 44, 0
1, 35340, Note_on_c, 0, 46, 58
1, 35360, Tempo, 1052632
1, 35400, Tempo, 1061947
1, 35400, Note_on_c, 0, 46, 0
1, 35400, Note_on_c, 0, 43, 64
1, 35440, Tempo, 1071429
1, 35460, Note_on_c, 0, 43, 0
1, 35460, Note_on_c, 0, 44, 55
1, 35480, Tempo, 1081081
1, 35520, Tempo, 1100917
1, 35520, Note_on_c, 0, 44, 0
1, 35520, Note_on_c, 0, 68, 0
1, 35520, Note_on_c, 0, 60, 0
1, 35520, Note_on_c, 0, 63, 0
1, 35520, Note_on_c, 0, 56, 0
1, 35520, Note_on_c, 0, 54, 0
1, 35520, Note_on_c, 0, 53, 68
1, 35520, Note_on_c, 0, 61, 68
1, 35520, Note_on_c, 0, 68, 80
1, 35520, Note_on_c, 0, 49, 68
1, 35529, Control_c, 0, 64, 0
1, 35629, Control_c, 0, 64, 127
1, 36000, Tempo, 1500000
1, 36000, Note_on_c, 0, 49, 0
1, 36000, Note_on_c, 0, 53, 0
1, 36000, Note_on_c, 0, 61, 0
1, 36000, Note_on_c, 0, 68, 0
1, 36000, Note_on_c, 0, 49, 79
1, 36006, Control_c, 0, 64, 0
1, 36240, Tempo, 609137
1, 36240, Note_on_c, 0, 49, 0
1, 36240, Note_on_c, 0, 40, 61
1, 36260, Tempo, 612245
1, 36269, Control_c, 0, 64, 127
1, 36280, Tempo, 618557
1, 36300, Tempo, 621762
1, 36320, Tempo, 628272
1, 36320, Note_on_c, 0, 40, 0
1, 36320, Note_on_c, 0, 41, 61
1, 36340, Tempo, 631579
1, 36360, Tempo, 638298
1, 36380, Tempo, 641711
1, 36400, Tempo, 648649
1, 36400, Note_on_c, 0, 41, 0
1, 36400, Note_on_c, 0, 42, 61
1, 36420, Tempo, 652174
1, 36440, Tempo, 659341
1, 36460, Tempo, 666667
1, 36480, Tempo, 1111111
1, 36480, Note_on_c, 0, 42, 0
1, 36480, Note_on_c, 0, 57, 68
1, 36480, Note_on_c, 0, 51, 68
1, 36480, Note_on_c, 0, 61, 68
1, 36480, Note_on_c, 0, 65, 80
1, 36480, Note_on_c, 0, 41, 61
1, 36497, Control_c, 0, 64, 0
1, 36525, Note_on_c, 0, 41, 0
1, 36525, Note_on_c, 0, 42, 56
1, 36529, Control_c, 0, 64, 127
1, 36560, Tempo, 1100917
1, 36570, Note_on_c, 0, 42, 0
1, 36570, Note_on_c, 0, 41, 64
1, 36600, Tempo, 1090909
1, 36615, Note_on_c, 0, 41, 0
1, 36615, Note_on_c, 0, 42, 57
1, 36640, Tempo, 1081081
1, 36660, Note_on_c, 0, 42, 0
1, 36660, Note_on_c, 0, 41, 66
1, 36680, Tempo, 1071429
1, 36705, Note_on_c, 0, 41, 0
1, 36705, Note_on_c, 0, 42, 59
1, 36720, Tempo, 1061947
1, 36750, Note_on_c, 0, 42, 0
1, 36750, Note_on_c, 0, 41, 68
1, 36760, Tempo, 1052632
1, 36795, Note_on_c, 0, 41, 0
1, 36795, Note_on_c, 0, 42, 61
1, 36800, Tempo, 1043478
1, 36840, Tempo, 1034483
1, 36840, Note_on_c, 0, 42, 0
1, 36840, Note_on_c, 0, 41, 70
1, 36880, Tempo, 1025641
1, 36885, Note_on_c, 0, 41, 0
1, 36885, Note_on_c, 0, 42, 65
1, 36920, Tempo, 1016949
1, 36930, Note_on_c, 0, 42, 0
1, 36930, Note_on_c, 0, 41, 73
1, 36960, Tempo, 1008403
1, 36960, Note_on_c, 0, 65, 0
1, 36960, Note_on_c, 0, 61, 0
1, 36960, Note_on_c, 0, 57, 0
1, 36960, Note_on_c, 0, 51, 0
1, 36960, Note_on_c, 0, 65, 80
1, 36960, Note_on_c, 0, 57, 68
1, 36960, Note_on_c, 0, 60, 68
1, 36960, Note_on_c, 0, 51, 68
1, 36975, Note_on_c, 0, 41, 0
1, 36975, Note_on_c, 0, 42, 66
1, 36978, Control_c, 0, 64, 0
1, 37000, Tempo, 1000000
1, 37006, Control_c, 0, 64, 127
1, 37020, Note_on_c, 0, 42, 0
1, 37020, Note_on_c, 0, 41, 72
1, 37065, Note_on_c, 0, 41, 0
1, 37066, Note_on_c, 0, 42, 63
1, 37080, Tempo, 1008403
1, 37110, Note_on_c, 0, 41, 69
1, 37111, Note_on_c, 0, 42, 0
1, 37120, Tempo, 1016949
1, 37155, Note_on_c, 0, 41, 0
1, 37155, Note_on_c, 0, 42, 60
1, 37160, Tempo, 1025641
1, 37200, Tempo, 1034483
1, 37200, Note_on_c, 0, 41, 66
1, 37201, Note_on_c, 0, 42, 0
1, 37240, Tempo, 1043478
1, 37260, Note_on_c, 0, 41, 0
1, 37260, Note_on_c, 0, 42, 58
1, 37280, Tempo, 1052632
1, 37320, Tempo, 1061947
1, 37320, Note_on_c, 0, 42, 0
1, 37320, Note_on_c, 0, 40, 64
1, 37360, Tempo, 1071429
1, 37380, Note_on_c, 0, 40, 0
1, 37380, Note_on_c, 0, 41, 55
1, 37400, Tempo, 1081081
1, 37440, Tempo, 1100917
1, 37440, Note_on_c, 0, 41, 0
1, 37440, Note_on_c, 0, 51, 0
1, 37440, Note_on_c, 0, 65, 0
1, 37440, Note_on_c, 0, 57, 0
1, 37440, Note_on_c, 0, 60, 0
1, 37440, Note_on_c, 0, 49, 68
1, 37440, Note_on_c, 0, 58, 80
1, 37440, Note_on_c, 0, 42, 64
1, 37451, Control_c, 0, 64, 0
1, 37543, Control_c, 0, 64, 127
1, 37920, Tempo, 1132075
1, 37920, Note_on_c, 0, 42, 0
1, 37920, Note_on_c, 0, 41, 49
1, 38160, Tempo, 1176471
1, 38160, Note_on_c, 0, 41, 0
1, 38160, Note_on_c, 0, 37, 40
1, 38400, Tempo, 1044386
1, 38400, Note_on_c, 0, 37, 0
1, 38400, Note_on_c, 0, 58, 0
1, 38400, Note_on_c, 0, 49, 0
1, 38400, Note_on_c, 0, 46, 39
1, 38400, Note_on_c, 0, 53, 39
1, 38400, Note_on_c, 0, 58, 46
1, 38400, Note_on_c, 0, 34, 32
1, 38400, Note_on_c, 0, 41, 32
1, 38400, Note_on_c, 0, 46, 39
1, 38408, Control_c, 0, 64, 0
1, 38410, Control_c, 0, 64, 0
1, 38464, Control_c, 0, 64, 127
1, 38880, Tempo, 1075076
1, 38880, Note_on_c, 0, 46, 0
1, 38880, Note_on_c, 0, 53, 0
1, 38880, Note_on_c, 0, 58, 0
1, 38880, Note_on_c, 0, 46, 0
1, 38880, Note_on_c, 0, 41, 0
1, 38880, Note_on_c, 0, 34, 0
1, 38880, Note_on_c, 0, 54, 39
1, 38880, Note_on_c, 0, 58, 46
1, 38880, Note_on_c, 0, 37, 28
1, 38880, Note_on_c, 0, 42, 34
1, 38880, Note_on_c, 0, 49, 34
1, 38894, Control_c, 0, 64, 0
1, 39021, Control_c, 0, 64, 127
1, 39240, Note_on_c, 0, 58, 0
1, 39240, Note_on_c, 0, 58, 41
1, 39360, Tempo, 1067236
1, 39360, Note_on_c, 0, 58, 0
1, 39360, Note_on_c, 0, 49, 0
1, 39360, Note_on_c, 0, 54, 0
1, 39360, Note_on_c, 0, 37, 0
1, 39360, Note_on_c, 0, 42, 0
1, 39360, Note_on_c, 0, 53, 39
1, 39360, Note_on_c, 0, 58, 46
1, 39360, Note_on_c, 0, 34, 32
1, 39360, Note_on_c, 0, 41, 32
1, 39360, Note_on_c, 0, 46, 39
1, 39371, Control_c, 0, 64, 0
1, 39494, Control_c, 0, 64, 127
1, 39840, Tempo, 1044386
1, 39840, Note_on_c, 0, 46, 0
1, 39840, Note_on_c, 0, 34, 0
1, 39840, Note_on_c, 0, 53, 0
1, 39840, Note_on_c, 0, 58, 0
1, 39840, Note_on_c, 0, 41, 0
1, 39840, Note_on_c, 0, 61, 54
1, 39840, Note_on_c, 0, 54, 44
1, 39840, Note_on_c, 0, 37, 25
1, 39840, Note_on_c, 0, 42, 31
1, 39840, Note_on_c, 0, 49, 31
1, 39853, Control_c, 0, 64, 0
1, 39925, Control_c, 0, 64, 127
1, 40200, Note_on_c, 0, 61, 0
1, 40200, Note_on_c, 0, 60, 49
1, 40260, Note_on_c, 0, 60, 0
1, 40260, Note_on_c, 0, 61, 45
1, 40320, Note_on_c, 0, 61, 0
1, 40320, Note_on_c, 0, 42, 0
1, 40320, Note_on_c, 0, 54, 0
1, 40320, Note_on_c, 0, 37, 0
1, 40320, Note_on_c, 0, 49, 0
1, 40320, Note_on_c, 0, 60, 52
1, 40320, Note_on_c, 0, 53, 44
1, 40320, Note_on_c, 0, 34, 32
1, 40320, Note_on_c, 0, 41, 32
1, 40320, Note_on_c, 0, 46, 39
1, 40330, Control_c, 0, 64, 0
1, 40433, Control_c, 0, 64, 127
1, 40680, Note_on_c, 0, 60, 0
1, 40680, Note_on_c, 0, 58, 46
1, 40800, Tempo, 1059509
1, 40800, Note_on_c, 0, 58, 0
1, 40800, Note_on_c, 0, 46, 0
1, 40800, Note_on_c, 0, 53, 0
1, 40800, Note_on_c, 0, 34, 0
1, 40800, Note_on_c, 0, 41, 0
1, 40800, Note_on_c, 0, 54, 42
1, 40800, Note_on_c, 0, 58, 50
1, 40800, Note_on_c, 0, 37, 28
1, 40800, Note_on_c, 0, 42, 28
1, 40800, Note_on_c, 0, 49, 34
1, 40816, Control_c, 0, 64, 0
1, 40984, Control_c, 0, 64, 127
1, 41160, Note_on_c, 0, 58, 0
1, 41160, Note_on_c, 0, 58, 41
1, 41280, Tempo, 1075076
1, 41280, Note_on_c, 0, 58, 0
1, 41280, Note_on_c, 0, 49, 0
1, 41280, Note_on_c, 0, 54, 0
1, 41280, Note_on_c, 0, 37, 0
1, 41280, Note_on_c, 0, 42, 0
1, 41280, Note_on_c, 0, 53, 39
1, 41280, Note_on_c, 0, 58, 46
1, 41280, Note_on_c, 0, 34, 32
1, 41280, Note_on_c, 0, 41, 32
1, 41280, Note_on_c, 0, 46, 39
1, 41295, Control_c, 0, 64, 0
1, 41456, Control_c, 0, 64, 127
1, 41760, Note_on_c, 0, 46, 0
1, 41760, Note_on_c, 0, 34, 0
1, 41760, Note_on_c, 0, 53, 0
1, 41760, Note_on_c, 0, 58, 0
1, 41760, Note_on_c, 0, 41, 0
1, 41760, Note_on_c, 0, 55, 76
1, 41760, Note_on_c, 0, 61, 97
1, 41760, Note_on_c, 0, 52, 76
1, 41760, Note_on_c, 0, 33, 57
1, 41760, Note_on_c, 0, 45, 73
1, 41774, Control_c, 0, 64, 0
1, 41873, Control_c, 0, 64, 127
1, 42120, Note_on_c, 0, 45, 0
1, 42120, Note_on_c, 0, 52, 0
1, 42120, Note_on_c, 0, 55, 0
1, 42120, Note_on_c, 0, 61, 0
1, 42120, Note_on_c, 0, 33, 0
1, 42120, Note_on_c, 0, 54, 76
1, 42120, Note_on_c, 0, 60, 76
1, 42120, Note_on_c, 0, 63, 97
1, 42120, Note_on_c, 0, 32, 57
1, 42120, Note_on_c, 0, 44, 73
1, 42240, Note_on_c, 0, 44, 0
1, 42240, Note_on_c, 0, 63, 0
1, 42240, Note_on_c, 0, 54, 0
1, 42240, Note_on_c, 0, 60, 0
1, 42240, Note_on_c, 0, 32, 0
1, 42240, Note_on_c, 0, 53, 79
1, 42240, Note_on_c, 0, 61, 79
1, 42240, Note_on_c, 0, 65, 101
1, 42240, Note_on_c, 0, 25, 60
1, 42240, Note_on_c, 0, 37, 76
1, 42252, Control_c, 0, 64, 0
1, 42318, Control_c, 0, 64, 127
1, 42720, Note_on_c, 0, 37, 0
1, 42720, Note_on_c, 0, 65, 0
1, 42720, Note_on_c, 0, 53, 0
1, 42720, Note_on_c, 0, 61, 0
1, 42720, Note_on_c, 0, 25, 0
1, 42720, Note_on_c, 0, 77, 93
1, 42720, Note_on_c, 0, 65, 77
1, 42720, Note_on_c, 0, 73, 77
1, 42720, Note_on_c, 0, 49, 67
1, 42720, Note_on_c, 0, 56, 67
1, 42720, Note_on_c, 0, 61, 80
1, 42739, Control_c, 0, 64, 0
1, 42833, Control_c, 0, 64, 127
1, 43080, Note_on_c, 0, 61, 0
1, 43080, Note_on_c, 0, 65, 0
1, 43080, Note_on_c, 0, 73, 0
1, 43080, Note_on_c, 0, 77, 0
1, 43080, Note_on_c, 0, 56, 0
1, 43080, Note_on_c, 0, 49, 0
1, 43080, Note_on_c, 0, 66, 77
1, 43080, Note_on_c, 0, 78, 93
1, 43080, Note_on_c, 0, 63, 80
1, 43200, Note_on_c, 0, 63, 0
1, 43200, Note_on_c, 0, 78, 0
1, 43200, Note_on_c, 0, 66, 0
1, 43200, Note_on_c, 0, 68, 82
1, 43200, Note_on_c, 0, 73, 82
1, 43200, Note_on_c, 0, 80, 97
1, 43200, Note_on_c, 0, 49, 71
1, 43200, Note_on_c, 0, 56, 71
1, 43200, Note_on_c, 0, 65, 85
1, 43219, Control_c, 0, 64, 0
1, 43299, Control_c, 0, 64, 127
1, 43560, Note_on_c, 0, 65, 0
1, 43560, Note_on_c, 0, 73, 0
1, 43560, Note_on_c, 0, 80, 0
1, 43560, Note_on_c, 0, 68, 0
1, 43560, Note_on_c, 0, 56, 0
1, 43560, Note_on_c, 0, 49, 0
1, 43560, Note_on_c, 0, 70, 82
1, 43560, Note_on_c, 0, 82, 97
1, 43560, Note_on_c, 0, 66, 85
1, 43680, Tempo, 1100917
1, 43680, Note_on_c, 0, 66, 0
1, 43680, Note_on_c, 0, 82, 0
1, 43680, Note_on_c, 0, 70, 0
1, 43680, Note_on_c, 0, 72, 88
1, 43680, Note_on_c, 0, 80, 88
1, 43680, Note_on_c, 0, 84, 105
1, 43680, Note_on_c, 0, 63, 76
1, 43680, Note_on_c, 0, 56, 76
1, 43680, Note_on_c, 0, 68, 90
1, 43699, Control_c, 0, 64, 0
1, 43793, Control_c, 0, 64, 127
1, 44040, Note_on_c, 0, 68, 0
1, 44040, Note_on_c, 0, 80, 0
1, 44040, Note_on_c, 0, 84, 0
1, 44040, Note_on_c, 0, 72, 0
1, 44040, Note_on_c, 0, 56, 0
1, 44040, Note_on_c, 0, 63, 0
1, 44040, Note_on_c, 0, 73, 92
1, 44040, Note_on_c, 0, 85, 108
1, 44040, Note_on_c, 0, 65, 89
1, 44160, Tempo, 1071429
1, 44160, Note_on_c, 0, 65, 0
1, 44160, Note_on_c, 0, 85, 0
1, 44160, Note_on_c, 0, 73, 0
1, 44160, Note_on_c, 0, 84, 92
1, 44160, Note_on_c, 0, 80, 92
1, 44160, Note_on_c, 0, 77, 92
1, 44160, Note_on_c, 0, 89, 109
1, 44160, Note_on_c, 0, 32, 81
1, 44160, Note_on_c, 0, 44, 96
1, 44171, Control_c, 0, 64, 0
1, 44269, Control_c, 0, 64, 127
1, 44640, Note_on_c, 0, 44, 0
1, 44640, Note_on_c, 0, 32, 0
1, 44640, Note_on_c, 0, 63, 72
1, 44640, Note_on_c, 0, 66, 72
1, 44640, Note_on_c, 0, 72, 85
1, 45000, Note_on_c, 0, 72, 0
1, 45000, Note_on_c, 0, 63, 0
1, 45000, Note_on_c, 0, 66, 0
1, 45000, Note_on_c, 0, 61, 67
1, 45000, Note_on_c, 0, 66, 67
1, 45000, Note_on_c, 0, 70, 79
1, 45120, Note_on_c, 0, 70, 0
1, 45120, Note_on_c, 0, 61, 0
1, 45120, Note_on_c, 0, 89, 0
1, 45120, Note_on_c, 0, 77, 0
1, 45120, Note_on_c, 0, 66, 0
1, 45120, Note_on_c, 0, 75, 82
1, 45120, Note_on_c, 0, 87, 99
1, 45120, Note_on_c, 0, 61, 66
1, 45120, Note_on_c, 0, 66, 66
1, 45120, Note_on_c, 0, 70, 78
1, 45138, Control_c, 0, 64, 0
1, 45269, Control_c, 0, 64, 127
1, 45480, Note_on_c, 0, 70, 0
1, 45480, Note_on_c, 0, 61, 0
1, 45480, Note_on_c, 0, 66, 0
1, 45480, Note_on_c, 0, 60, 61
1, 45480, Note_on_c, 0, 66, 61
1, 45480, Note_on_c, 0, 68, 73
1, 45600, Note_on_c, 0, 68, 0
1, 45600, Note_on_c, 0, 60, 0
1, 45600, Note_on_c, 0, 66, 0
1, 45600, Note_on_c, 0, 60, 60
1, 45600, Note_on_c, 0, 66, 60
1, 45600, Note_on_c, 0, 68, 71
1, 45616, Control_c, 0, 64, 0
1, 45697, Control_c, 0, 64, 127
1, 45840, Note_on_c, 0, 87, 0
1, 45840, Note_on_c, 0, 75, 0
1, 45840, Note_on_c, 0, 80, 0
1, 45840, Note_on_c, 0, 84, 0
1, 45960, Tempo, 1176471
1, 45960, Note_on_c, 0, 68, 0
1, 45960, Note_on_c, 0, 60, 0
1, 45960, Note_on_c, 0, 66, 0
1, 45960, Note_on_c, 0, 66, 75
1, 45960, Note_on_c, 0, 72, 75
1, 45960, Note_on_c, 0, 75, 75
1, 45960, Note_on_c, 0, 78, 89
1, 45960, Note_on_c, 0, 57, 66
1, 45960, Note_on_c, 0, 60, 66
1, 45960, Note_on_c, 0, 63, 77
1, 46080, Tempo, 1071429
1, 46080, Note_on_c, 0, 63, 0
1, 46080, Note_on_c, 0, 57, 0
1, 46080, Note_on_c, 0, 72, 0
1, 46080, Note_on_c, 0, 75, 0
1, 46080, Note_on_c, 0, 66, 0
1, 46080, Note_on_c, 0, 60, 0
1, 46080, Note_on_c, 0, 78, 0
1, 46080, Note_on_c, 0, 77, 102
1, 46080, Note_on_c, 0, 65, 80
1, 46080, Note_on_c, 0, 72, 80
1, 46080, Note_on_c, 0, 75, 80
1, 46080, Note_on_c, 0, 34, 66
1, 46080, Note_on_c, 0, 46, 78
1, 46092, Control_c, 0, 64, 0
1, 46166, Control_c, 0, 64, 127
1, 46560, Note_on_c, 0, 46, 0
1, 46560, Note_on_c, 0, 65, 0
1, 46560, Note_on_c, 0, 72, 0
1, 46560, Note_on_c, 0, 77, 0
1, 46560, Note_on_c, 0, 34, 0
1, 46560, Note_on_c, 0, 75, 0
1, 46560, Note_on_c, 0, 70, 74
1, 46560, Note_on_c, 0, 65, 74
1, 46560, Note_on_c, 0, 73, 74
1, 46560, Note_on_c, 0, 77, 89
1, 46560, Note_on_c, 0, 53, 63
1, 46560, Note_on_c, 0, 58, 63
1, 46560, Note_on_c, 0, 61, 75
1, 46574, Control_c, 0, 64, 0
1, 46651, Control_c, 0, 64, 127
1, 46920, Note_on_c, 0, 77, 0
1, 46920, Note_on_c, 0, 73, 0
1, 46920, Note_on_c, 0, 70, 0
1, 46920, Note_on_c, 0, 65, 0
1, 46920, Note_on_c, 0, 67, 74
1, 46920, Note_on_c, 0, 79, 89
1, 47040, Note_on_c, 0, 79, 0
1, 47040, Note_on_c, 0, 61, 0
1, 47040, Note_on_c, 0, 58, 0
1, 47040, Note_on_c, 0, 53, 0
1, 47040, Note_on_c, 0, 67, 0
1, 47040, Note_on_c, 0, 77, 78
1, 47040, Note_on_c, 0, 69, 78
1, 47040, Note_on_c, 0, 73, 78
1, 47040, Note_on_c, 0, 81, 93
1, 47040, Note_on_c, 0, 37, 68
1, 47040, Note_on_c, 0, 49, 80
1, 47053, Control_c, 0, 64, 0
1, 47171, Control_c, 0, 64, 127
1, 47400, Note_on_c, 0, 81, 0
1, 47400, Note_on_c, 0, 73, 0
1, 47400, Note_on_c, 0, 77, 0
1, 47400, Note_on_c, 0, 69, 0
1, 47400, Note_on_c, 0, 70, 78
1, 47400, Note_on_c, 0, 82, 93
1, 47520, Tempo, 1100917
1, 47520, Note_on_c, 0, 82, 0
1, 47520, Note_on_c, 0, 37, 0
1, 47520, Note_on_c, 0, 49, 0
1, 47520, Note_on_c, 0, 70, 0
1, 47520, Note_on_c, 0, 72, 84
1, 47520, Note_on_c, 0, 77, 84
1, 47520, Note_on_c, 0, 84, 99
1, 47520, Note_on_c, 0, 65, 76
1, 47520, Note_on_c, 0, 61, 64
1, 47520, Note_on_c, 0, 58, 64
1, 47520, Note_on_c, 0, 53, 64
1, 47539, Control_c, 0, 64, 0
1, 47600, Control_c, 0, 64, 127
1, 47840, Tempo, 1318681
1, 47880, Note_on_c, 0, 84, 0
1, 47880, Note_on_c, 0, 72, 0
1, 47880, Note_on_c, 0, 77, 0
1, 47880, Note_on_c, 0, 73, 88
1, 47880, Note_on_c, 0, 85, 102
1, 47940, Tempo, 1518987
1, 47940, Note_on_c, 0, 85, 0
1, 47940, Note_on_c, 0, 73, 0
1, 47940, Note_on_c, 0, 70, 88
1, 47960, Note_on_c, 0, 76, 88
1, 47980, Note_on_c, 0, 79, 88
1, 48000, Tempo, 1100917
1, 48000, Note_on_c, 0, 53, 0
1, 48000, Note_on_c, 0, 61, 0
1, 48000, Note_on_c, 0, 65, 0
1, 48000, Note_on_c, 0, 58, 0
1, 48000, Note_on_c, 0, 85, 103
1, 48000, Note_on_c, 0, 29, 77
1, 48000, Note_on_c, 0, 41, 92
1, 48011, Control_c, 0, 64, 0
1, 48127, Control_c, 0, 64, 127
1, 48480, Note_on_c, 0, 41, 0
1, 48480, Note_on_c, 0, 29, 0
1, 48480, Note_on_c, 0, 53, 69
1, 48480, Note_on_c, 0, 58, 69
1, 48480, Note_on_c, 0, 61, 69
1, 48480, Note_on_c, 0, 67, 81
1, 48960, Note_on_c, 0, 67, 0
1, 48960, Note_on_c, 0, 76, 0
1, 48960, Note_on_c, 0, 53, 0
1, 48960, Note_on_c, 0, 70, 0
1, 48960, Note_on_c, 0, 85, 0
1, 48960, Note_on_c, 0, 79, 0
1, 48960, Note_on_c, 0, 58, 0
1, 48960, Note_on_c, 0, 61, 0
1, 48960, Note_on_c, 0, 72, 76
1, 48960, Note_on_c, 0, 77, 76
1, 48960, Note_on_c, 0, 84, 90
1, 48960, Note_on_c, 0, 53, 64
1, 48960, Note_on_c, 0, 57, 64
1, 48960, Note_on_c, 0, 60, 64
1, 48960, Note_on_c, 0, 69, 75
1, 48978, Control_c, 0, 64, 0
1, 49144, Control_c, 0, 64, 127
1, 49440, Tempo, 1481481
1, 49440, Note_on_c, 0, 69, 0
1, 49440, Note_on_c, 0, 57, 0
1, 49440, Note_on_c, 0, 77, 0
1, 49440, Note_on_c, 0, 84, 0
1, 49440, Note_on_c, 0, 72, 0
1, 49440, Note_on_c, 0, 60, 0
1, 49440, Note_on_c, 0, 53, 0
1, 49440, Note_on_c, 0, 53, 81
1, 49617, Control_c, 0, 64, 0
1, 49680, Tempo, 600000
1, 49680, Note_on_c, 0, 53, 0
1, 49680, Note_on_c, 0, 43, 61
1, 49700, Tempo, 603015
1, 49700, Control_c, 0, 64, 127
1, 49720, Tempo, 609137
1, 49740, Tempo, 615385
1, 49760, Tempo, 618557
1, 49760, Note_on_c, 0, 43, 0
1, 49760, Note_on_c, 0, 44, 61
1, 49780, Tempo, 625000
1, 49800, Tempo, 631579
1, 49820, Tempo, 638298
1, 49840, Tempo, 641711
1, 49840, Note_on_c, 0, 44, 0
1, 49840, Note_on_c, 0, 46, 61
1, 49860, Tempo, 648649
1, 49880, Tempo, 655738
1, 49900, Tempo, 662983
1, 49920, Tempo, 1111111
1, 49920, Note_on_c, 0, 46, 0
1, 49920, Note_on_c, 0, 56, 68
1, 49920, Note_on_c, 0, 68, 80
1, 49920, Note_on_c, 0, 60, 68
1, 49920, Note_on_c, 0, 65, 68
1, 49920, Note_on_c, 0, 54, 68
1, 49920, Note_on_c, 0, 44, 61
1, 49929, Control_c, 0, 64, 0
1, 49960, Control_c, 0, 64, 127
1, 49965, Note_on_c, 0, 44, 0
1, 49965, Note_on_c, 0, 46, 56
1, 50000, Tempo, 1100917
1, 50010, Note_on_c, 0, 46, 0
1, 50010, Note_on_c, 0, 44, 64
1, 50040, Tempo, 1090909
1, 50055, Note_on_c, 0, 44, 0
1, 50055, Note_on_c, 0, 46, 57
1, 50080, Tempo, 1081081
1, 50100, Note_on_c, 0, 46, 0
1, 50100, Note_on_c, 0, 44, 66
1, 50120, Tempo, 1071429
1, 50145, Note_on_c, 0, 44, 0
1, 50145, Note_on_c, 0, 46, 59
1, 50160, Tempo, 1061947
1, 50190, Note_on_c, 0, 46, 0
1, 50190, Note_on_c, 0, 44, 68
1, 50200, Tempo, 1052632
1, 50235, Note_on_c, 0, 44, 0
1, 50235, Note_on_c, 0, 46, 61
1, 50240, Tempo, 1043478
1, 50280, Tempo, 1034483
1, 50280, Note_on_c, 0, 46, 0
1, 50280, Note_on_c, 0, 44, 70
1, 50320, Tempo, 1025641
1, 50325, Note_on_c, 0, 44, 0
1, 50325, Note_on_c, 0, 46, 65
1, 50360, Tempo, 1016949
1, 50370, Note_on_c, 0, 46, 0
1, 50370, Note_on_c, 0, 44, 73
1, 50400, Tempo, 1008403
1, 50400, Note_on_c, 0, 54, 0
1, 50400, Note_on_c, 0, 65, 0
1, 50400, Note_on_c, 0, 60, 0
1, 50400, Note_on_c, 0, 56, 0
1, 50400, Note_on_c, 0, 68, 0
1, 50400, Note_on_c, 0, 54, 68
1, 50400, Note_on_c, 0, 56, 68
1, 50400, Note_on_c, 0, 60, 68
1, 50400, Note_on_c, 0, 63, 68
1, 50400, Note_on_c, 0, 68, 80
1, 50412, Control_c, 0, 64, 0
1, 50415, Note_on_c, 0, 44, 0
1, 50415, Note_on_c, 0, 46, 66
1, 50440, Tempo, 1000000
1, 50443, Control_c, 0, 64, 127
1, 50460, Note_on_c, 0, 46, 0
1, 50460, Note_on_c, 0, 44, 72
1, 50505, Note_on_c, 0, 44, 0
1, 50506, Note_on_c, 0, 46, 63
1, 50520, Tempo, 1008403
1, 50550, Note_on_c, 0, 44, 69
1, 50551, Note_on_c, 0, 46, 0
1, 50560, Tempo, 1016949
1, 50595, Note_on_c, 0, 44, 0
1, 50595, Note_on_c, 0, 46, 60
1, 50600, Tempo, 1025641
1, 50640, Tempo, 1034483
1, 50640, Note_on_c, 0, 44, 66
1, 50641, Note_on_c, 0, 46, 0
1, 50680, Tempo, 1043478
1, 50700, Note_on_c, 0, 44, 0
1, 50700, Note_on_c, 0, 46, 58
1, 50720, Tempo, 1052632
1, 50760, Tempo, 1061947
1, 50760, Note_on_c, 0, 46, 0
1, 50760, Note_on_c, 0, 43, 64
1, 50800, Tempo, 1071429
1, 50820, Note_on_c, 0, 43, 0
1, 50820, Note_on_c, 0, 44, 55
1, 50840, Tempo, 1081081
1, 50880, Tempo, 1100917
1, 50880, Note_on_c, 0, 44, 0
1, 50880, Note_on_c, 0, 68, 0
1, 50880, Note_on_c, 0, 60, 0
1, 50880, Note_on_c, 0, 54, 0
1, 50880, Note_on_c, 0, 56, 0
1, 50880, Note_on_c, 0, 63, 0
1, 50880, Note_on_c, 0, 53, 68
1, 50880, Note_on_c, 0, 61, 68
1, 50880, Note_on_c, 0, 68, 80
1, 50880, Note_on_c, 0, 49, 68
1, 50889, Control_c, 0, 64, 0
1, 50989, Control_c, 0, 64, 127
1, 51360, Tempo, 1500000
1, 51360, Note_on_c, 0, 49, 0
1, 51360, Note_on_c, 0, 53, 0
1, 51360, Note_on_c, 0, 61, 0
1, 51360, Note_on_c, 0, 68, 0
1, 51360, Note_on_c, 0, 49, 68
1, 51532, Control_c, 0, 64, 0
1, 51600, Tempo, 609137
1, 51600, Note_on_c, 0, 49, 0
1, 51600, Note_on_c, 0, 40, 61
1, 51620, Tempo, 612245
1, 51629, Control_c, 0, 64, 127
1, 51640, Tempo, 618557
1, 51660, Tempo, 621762
1, 51680, Tempo, 628272
1, 51680, Note_on_c, 0, 40, 0
1, 51680, Note_on_c, 0, 41, 61
1, 51700, Tempo, 631579
1, 51720, Tempo, 638298
1, 51740, Tempo, 641711
1, 51760, Tempo, 648649
1, 51760, Note_on_c, 0, 41, 0
1, 51760, Note_on_c, 0, 42, 61
1, 51780, Tempo, 652174
1, 51800, Tempo, 659341
1, 51820, Tempo, 666667
1, 51840, Tempo, 1111111
1, 51840, Note_on_c, 0, 42, 0
1, 51840, Note_on_c, 0, 65, 80
1, 51840, Note_on_c, 0, 51, 68
1, 51840, Note_on_c, 0, 61, 68
1, 51840, Note_on_c, 0, 57, 68
1, 51840, Note_on_c, 0, 41, 61
1, 51858, Control_c, 0, 64, 0
1, 51885, Note_on_c, 0, 41, 0
1, 51885, Note_on_c, 0, 42, 56
1, 51886, Control_c, 0, 64, 127
1, 51920, Tempo, 1100917
1, 51930, Note_on_c, 0, 42, 0
1, 51930, Note_on_c, 0, 41, 64
1, 51960, Tempo, 1090909
1, 51975, Note_on_c, 0, 41, 0
1, 51975, Note_on_c, 0, 42, 57
1, 52000, Tempo, 1081081
1, 52020, Note_on_c, 0, 42, 0
1, 52020, Note_on_c, 0, 41, 66
1, 52040, Tempo, 1071429
1, 52065, Note_on_c, 0, 41, 0
1, 52065, Note_on_c, 0, 42, 59
1, 52080, Tempo, 1061947
1, 52110, Note_on_c, 0, 42, 0
1, 52110, Note_on_c, 0, 41, 68
1, 52120, Tempo, 1052632
1, 52155, Note_on_c, 0, 41, 0
1, 52155, Note_on_c, 0, 42, 61
1, 52160, Tempo, 1043478
1, 52200, Tempo, 1034483
1, 52200, Note_on_c, 0, 42, 0
1, 52200, Note_on_c, 0, 41, 70
1, 52240, Tempo, 1025641
1, 52245, Note_on_c, 0, 41, 0
1, 52245, Note_on_c, 0, 42, 65
1, 52280, Tempo, 1016949
1, 52290, Note_on_c, 0, 42, 0
1, 52290, Note_on_c, 0, 41, 73
1, 52320, Tempo, 1008403
1, 52320, Note_on_c, 0, 57, 0
1, 52320, Note_on_c, 0, 61, 0
1, 52320, Note_on_c, 0, 65, 0
1, 52320, Note_on_c, 0, 51, 0
1, 52320, Note_on_c, 0, 51, 68
1, 52320, Note_on_c, 0, 57, 68
1, 52320, Note_on_c, 0, 60, 68
1, 52320, Note_on_c, 0, 65, 80
1, 52335, Note_on_c, 0, 41, 0
1, 52335, Note_on_c, 0, 42, 66
1, 52336, Control_c, 0, 64, 0
1, 52360, Tempo, 1000000
1, 52366, Control_c, 0, 64, 127
1, 52380, Note_on_c, 0, 42, 0
1, 52380, Note_on_c, 0, 41, 72
1, 52425, Note_on_c, 0, 41, 0
1, 52426, Note_on_c, 0, 42, 63
1, 52440, Tempo, 1008403
1, 52470, Note_on_c, 0, 41, 69
1, 52471, Note_on_c, 0, 42, 0
1, 52480, Tempo, 1016949
1, 52515, Note_on_c, 0, 41, 0
1, 52515, Note_on_c, 0, 42, 60
1, 52520, Tempo, 1025641
1, 52560, Tempo, 1034483
1, 52560, Note_on_c, 0, 41, 66
1, 52561, Note_on_c, 0, 42, 0
1, 52600, Tempo, 1043478
1, 52620, Note_on_c, 0, 41, 0
1, 52620, Note_on_c, 0, 42, 58
1, 52640, Tempo, 1052632
1, 52680, Tempo, 1061947
1, 52680, Note_on_c, 0, 42, 0
1, 52680, Note_on_c, 0, 40, 64
1, 52720, Tempo, 1071429
1, 52740, Note_on_c, 0, 40, 0
1, 52740, Note_on_c, 0, 41, 55
1, 52760, Tempo, 1081081
1, 52800, Tempo, 1100917
1, 52800, Note_on_c, 0, 41, 0
1, 52800, Note_on_c, 0, 65, 0
1, 52800, Note_on_c, 0, 51, 0
1, 52800, Note_on_c, 0, 57, 0
1, 52800, Note_on_c, 0, 60, 0
1, 52800, Note_on_c, 0, 49, 68
1, 52800, Note_on_c, 0, 58, 80
1, 52800, Note_on_c, 0, 42, 64
1, 52811, Control_c, 0, 64, 0
1, 52903, Control_c, 0, 64, 127
1, 53280, Tempo, 1132075
1, 53280, Note_on_c, 0, 42, 0
1, 53280, Note_on_c, 0, 41, 51
1, 53520, Tempo, 1176471
1, 53520, Note_on_c, 0, 41, 0
1, 53520, Note_on_c, 0, 37, 39
1, 53760, Tempo, 1044386
1, 53760, Note_on_c, 0, 37, 0
1, 53760, Note_on_c, 0, 58, 0
1, 53760, Note_on_c, 0, 49, 0
1, 53760, Note_on_c, 0, 46, 39
1, 53760, Note_on_c, 0, 53, 39
1, 53760, Note_on_c, 0, 58, 46
1, 53760, Control_c, 0, 64, 0
1, 53760, Note_on_c, 0, 34, 32
1, 53760, Note_on_c, 0, 41, 32
1, 53760, Note_on_c, 0, 46, 39
1, 53771, Control_c, 0, 64, 0
1, 53824, Control_c, 0, 64, 127
1, 54240, Tempo, 1075076
1, 54240, Note_on_c, 0, 46, 0
1, 54240, Note_on_c, 0, 53, 0
1, 54240, Note_on_c, 0, 58, 0
1, 54240, Note_on_c, 0, 46, 0
1, 54240, Note_on_c, 0, 41, 0
1, 54240, Note_on_c, 0, 34, 0
1, 54240, Note_on_c, 0, 54, 39
1, 54240, Note_on_c, 0, 58, 46
1, 54240, Note_on_c, 0, 37, 28
1, 54240, Note_on_c, 0, 42, 34
1, 54240, Note_on_c, 0, 49, 34
1, 54254, Control_c, 0, 64, 0
1, 54381, Control_c, 0, 64, 127
1, 54600, Note_on_c, 0, 58, 0
1, 54600, Note_on_c, 0, 58, 41
1, 54720, Tempo, 1067236
1, 54720, Note_on_c, 0, 58, 0
1, 54720, Note_on_c, 0, 49, 0
1, 54720, Note_on_c, 0, 54, 0
1, 54720, Note_on_c, 0, 37, 0
1, 54720, Note_on_c, 0, 42, 0
1, 54720, Note_on_c, 0, 53, 39
1, 54720, Note_on_c, 0, 58, 46
1, 54720, Note_on_c, 0, 34, 32
1, 54720, Note_on_c, 0, 41, 32
1, 54720, Note_on_c, 0, 46, 39
1, 54731, Control_c, 0, 64, 0
1, 54854, Control_c, 0, 64, 127
1, 55200, Tempo, 1044386
1, 55200, Note_on_c, 0, 46, 0
1, 55200, Note_on_c, 0, 34, 0
1, 55200, Note_on_c, 0, 53, 0
1, 55200, Note_on_c, 0, 58, 0
1, 55200, Note_on_c, 0, 41, 0
1, 55200, Note_on_c, 0, 61, 54
1, 55200, Note_on_c, 0, 54, 44
1, 55200, Note_on_c, 0, 37, 25
1, 55200, Note_on_c, 0, 42, 31
1, 55200, Note_on_c, 0, 49, 31
1, 55207, Control_c, 0, 64, 0
1, 55285, Control_c, 0, 64, 127
1, 55560, Note_on_c, 0, 61, 0
1, 55560, Note_on_c, 0, 60, 49
1, 55620, Note_on_c, 0, 60, 0
1, 55620, Note_on_c, 0, 61, 45
1, 55680, Note_on_c, 0, 61, 0
1, 55680, Note_on_c, 0, 42, 0
1, 55680, Note_on_c, 0, 54, 0
1, 55680, Note_on_c, 0, 37, 0
1, 55680, Note_on_c, 0, 49, 0
1, 55680, Note_on_c, 0, 60, 52
1, 55680, Note_on_c, 0, 53, 44
1, 55680, Note_on_c, 0, 34, 32
1, 55680, Note_on_c, 0, 41, 32
1, 55680, Note_on_c, 0, 46, 39
1, 55690, Control_c, 0, 64, 0
1, 55793, Control_c, 0, 64, 127
1, 56040, Note_on_c, 0, 60, 0
1, 56040, Note_on_c, 0, 58, 46
1, 56160, Tempo, 1059509
1, 56160, Note_on_c, 0, 58, 0
1, 56160, Note_on_c, 0, 46, 0
1, 56160, Note_on_c, 0, 53, 0
1, 56160, Note_on_c, 0, 34, 0
1, 56160, Note_on_c, 0, 41, 0
1, 56160, Note_on_c, 0, 54, 42
1, 56160, Note_on_c, 0, 58, 50
1, 56160, Note_on_c, 0, 37, 28
1, 56160, Note_on_c, 0, 42, 28
1, 56160, Note_on_c, 0, 49, 34
1, 56178, Control_c, 0, 64, 0
1, 56344, Control_c, 0, 64, 127
1, 56520, Note_on_c, 0, 58, 0
1, 56520, Note_on_c, 0, 58, 41
1, 56640, Tempo, 1075076
1, 56640, Note_on_c, 0, 58, 0
1, 56640, Note_on_c, 0, 49, 0
1, 56640, Note_on_c, 0, 54, 0
1, 56640, Note_on_c, 0, 37, 0
1, 56640, Note_on_c, 0, 42, 0
1, 56640, Note_on_c, 0, 53, 39
1, 56640, Note_on_c, 0, 58, 46
1, 56640, Note_on_c, 0, 34, 32
1, 56640, Note_on_c, 0, 41, 32
1, 56640, Note_on_c, 0, 46, 39
1, 56655, Control_c, 0, 64, 0
1, 56816, Control_c, 0, 64, 127
1, 57120, Note_on_c, 0, 46, 0
1, 57120, Note_on_c, 0, 34, 0
1, 57120, Note_on_c, 0, 53, 0
1, 57120, Note_on_c, 0, 58, 0
1, 57120, Note_on_c, 0, 41, 0
1, 57120, Note_on_c, 0, 32, 32
1, 57120, Note_on_c, 0, 44, 39
1, 57140, Control_c, 0, 64, 0
1, 57600, Tempo, 1022844
1, 57600, Note_on_c, 0, 44, 0
1, 57600, Note_on_c, 0, 32, 0
1, 57600, Note_on_c, 0, 77, 54
1, 57600, Note_on_c, 0, 37, 33
1, 57685, Control_c, 0, 64, 127
1, 57840, Tempo, 967586
1, 57840, Note_on_c, 0, 37, 0
1, 57840, Note_on_c, 0, 44, 27
1, 58080, Tempo, 975927
1, 58080, Note_on_c, 0, 44, 0
1, 58080, Note_on_c, 0, 53, 27
1, 58320, Tempo, 992884
1, 58320, Note_on_c, 0, 53, 0
1, 58320, Note_on_c, 0, 61, 28
1, 58560, Note_on_c, 0, 61, 0
1, 58560, Note_on_c, 0, 77, 0
1, 58560, Note_on_c, 0, 78, 50
1, 58560, Note_on_c, 0, 37, 33
1, 58800, Tempo, 951475
1, 58800, Note_on_c, 0, 37, 0
1, 58800, Note_on_c, 0, 78, 0
1, 58800, Note_on_c, 0, 77, 46
1, 58800, Note_on_c, 0, 44, 27
1, 59040, Note_on_c, 0, 44, 0
1, 59040, Note_on_c, 0, 77, 0
1, 59040, Note_on_c, 0, 75, 50
1, 59040, Note_on_c, 0, 53, 27
1, 59280, Tempo, 984252
1, 59280, Note_on_c, 0, 53, 0
1, 59280, Note_on_c, 0, 75, 0
1, 59280, Note_on_c, 0, 73, 46
1, 59280, Note_on_c, 0, 61, 28
1, 59520, Tempo, 984252
1, 59520, Note_on_c, 0, 61, 0
1, 59520, Note_on_c, 0, 73, 0
1, 59520, Note_on_c, 0, 72, 50
1, 59520, Note_on_c, 0, 39, 33
1, 59532, Control_c, 0, 64, 0
1, 59647, Control_c, 0, 64, 127
1, 59760, Note_on_c, 0, 39, 0
1, 59760, Note_on_c, 0, 44, 27
1, 59880, Tempo, 1028630
1, 60000, Tempo, 984252
1, 60000, Note_on_c, 0, 44, 0
1, 60000, Note_on_c, 0, 72, 0
1, 60000, Note_on_c, 0, 82, 54
1, 60000, Note_on_c, 0, 54, 24
1, 60240, Note_on_c, 0, 54, 0
1, 60240, Note_on_c, 0, 60, 24
1, 60480, Note_on_c, 0, 60, 0
1, 60480, Note_on_c, 0, 82, 0
1, 60480, Note_on_c, 0, 80, 52
1, 60480, Note_on_c, 0, 39, 31
1, 60720, Tempo, 959539
1, 60720, Note_on_c, 0, 39, 0
1, 60720, Note_on_c, 0, 44, 24
1, 60960, Note_on_c, 0, 44, 0
1, 60960, Note_on_c, 0, 54, 27
1, 61200, Tempo, 992884
1, 61200, Note_on_c, 0, 54, 0
1, 61200, Note_on_c, 0, 60, 25
1, 61240, Tempo, 1019368
1, 61440, Note_on_c, 0, 60, 0
1, 61440, Note_on_c, 0, 80, 0
1, 61440, Note_on_c, 0, 78, 51
1, 61440, Note_on_c, 0, 32, 33
1, 61454, Control_c, 0, 64, 0
1, 61624, Control_c, 0, 64, 127
1, 61680, Tempo, 967586
1, 61680, Note_on_c, 0, 32, 0
1, 61680, Note_on_c, 0, 44, 29
1, 61920, Note_on_c, 0, 44, 0
1, 61920, Note_on_c, 0, 54, 29
1, 62160, Tempo, 984252
1, 62160, Note_on_c, 0, 54, 0
1, 62160, Note_on_c, 0, 60, 30
1, 62400, Note_on_c, 0, 60, 0
1, 62400, Note_on_c, 0, 78, 0
1, 62400, Note_on_c, 0, 80, 50
1, 62400, Note_on_c, 0, 32, 36
1, 62640, Tempo, 951475
1, 62640, Note_on_c, 0, 32, 0
1, 62640, Note_on_c, 0, 80, 0
1, 62640, Note_on_c, 0, 78, 46
1, 62640, Note_on_c, 0, 44, 30
1, 62880, Note_on_c, 0, 44, 0
1, 62880, Note_on_c, 0, 78, 0
1, 62880, Note_on_c, 0, 77, 50
1, 62880, Note_on_c, 0, 54, 30
1, 63120, Tempo, 992884
1, 63120, Note_on_c, 0, 54, 0
1, 63120, Note_on_c, 0, 77, 0
1, 63120, Note_on_c, 0, 75, 46
1, 63120, Note_on_c, 0, 60, 31
1, 63360, Tempo, 992884
1, 63360, Note_on_c, 0, 60, 0
1, 63360, Note_on_c, 0, 75, 0
1, 63360, Note_on_c, 0, 73, 50
1, 63360, Note_on_c, 0, 37, 36
1, 63374, Control_c, 0, 64, 0
1, 63501, Control_c, 0, 64, 127
1, 63600, Note_on_c, 0, 37, 0
1, 63600, Note_on_c, 0, 44, 30
1, 63840, Note_on_c, 0, 44, 0
1, 63840, Note_on_c, 0, 73, 0
1, 63840, Note_on_c, 0, 85, 53
1, 63840, Note_on_c, 0, 53, 28
1, 64080, Note_on_c, 0, 53, 0
1, 64080, Note_on_c, 0, 61, 25
1, 64200, Tempo, 1047486
1, 64320, Tempo, 992884
1, 64320, Note_on_c, 0, 61, 0
1, 64320, Note_on_c, 0, 85, 0
1, 64320, Note_on_c, 0, 80, 49
1, 64320, Note_on_c, 0, 37, 33
1, 64360, Tempo, 1019368
1, 64560, Tempo, 951475
1, 64560, Note_on_c, 0, 37, 0
1, 64560, Note_on_c, 0, 44, 27
1, 64800, Note_on_c, 0, 44, 0
1, 64800, Note_on_c, 0, 53, 29
1, 65040, Tempo, 1010441
1, 65040, Note_on_c, 0, 53, 0
1, 65040, Note_on_c, 0, 61, 27
1, 65280, Tempo, 984252
1, 65280, Note_on_c, 0, 61, 0
1, 65280, Note_on_c, 0, 80, 0
1, 65280, Note_on_c, 0, 77, 52
1, 65280, Note_on_c, 0, 37, 33
1, 65291, Control_c, 0, 64, 0
1, 65417, Control_c, 0, 64, 127
1, 65520, Tempo, 959539
1, 65520, Note_on_c, 0, 37, 0
1, 65520, Note_on_c, 0, 44, 27
1, 65760, Tempo, 984252
1, 65760, Note_on_c, 0, 44, 0
1, 65760, Note_on_c, 0, 53, 30
1, 66000, Note_on_c, 0, 53, 0
1, 66000, Note_on_c, 0, 61, 28
1, 66240, Tempo, 959539
1, 66240, Note_on_c, 0, 61, 0
1, 66240, Note_on_c, 0, 77, 0
1, 66240, Note_on_c, 0, 78, 51
1, 66240, Note_on_c, 0, 34, 33
1, 66257, Control_c, 0, 64, 0
1, 66374, Control_c, 0, 64, 127
1, 66480, Note_on_c, 0, 34, 0
1, 66480, Note_on_c, 0, 78, 0
1, 66480, Note_on_c, 0, 77, 46
1, 66480, Note_on_c, 0, 46, 29
1, 66720, Note_on_c, 0, 46, 0
1, 66720, Note_on_c, 0, 77, 0
1, 66720, Note_on_c, 0, 75, 50
1, 66720, Note_on_c, 0, 56, 29
1, 66960, Tempo, 1077199
1, 66960, Note_on_c, 0, 56, 0
1, 66960, Note_on_c, 0, 75, 0
1, 66960, Note_on_c, 0, 74, 46
1, 66960, Note_on_c, 0, 62, 30
1, 67080, Tempo, 804074
1, 67080, Note_on_c, 0, 74, 0
1, 67080, Note_on_c, 0, 75, 46
1, 67140, Note_on_c, 0, 75, 0
1, 67140, Note_on_c, 0, 77, 42
1, 67200, Tempo, 951475
1, 67200, Note_on_c, 0, 77, 0
1, 67200, Note_on_c, 0, 62, 0
1, 67200, Note_on_c, 0, 75, 53
1, 67200, Note_on_c, 0, 39, 33
1, 67212, Control_c, 0, 64, 0
1, 67240, Tempo, 935891
1, 67292, Control_c, 0, 64, 127
1, 67440, Note_on_c, 0, 39, 0
1, 67440, Note_on_c, 0, 75, 0
1, 67440, Note_on_c, 0, 74, 51
1, 67440, Note_on_c, 0, 46, 30
1, 67680, Note_on_c, 0, 46, 0
1, 67680, Note_on_c, 0, 74, 0
1, 67680, Note_on_c, 0, 75, 54
1, 67680, Note_on_c, 0, 54, 30
1, 67920, Tempo, 951475
1, 67920, Note_on_c, 0, 54, 0
1, 67920, Note_on_c, 0, 75, 0
1, 67920, Note_on_c, 0, 77, 55
1, 67920, Note_on_c, 0, 63, 27
1, 68160, Note_on_c, 0, 63, 0
1, 68160, Note_on_c, 0, 77, 0
1, 68160, Note_on_c, 0, 78, 57
1, 68160, Note_on_c, 0, 42, 33
1, 68172, Control_c, 0, 64, 0
1, 68200, Tempo, 951475
1, 68257, Control_c, 0, 64, 127
1, 68400, Note_on_c, 0, 42, 0
1, 68400, Note_on_c, 0, 78, 0
1, 68400, Note_on_c, 0, 70, 52
1, 68400, Note_on_c, 0, 51, 29
1, 68640, Tempo, 992884
1, 68640, Note_on_c, 0, 51, 0
1, 68640, Note_on_c, 0, 70, 0
1, 68640, Note_on_c, 0, 77, 57
1, 68640, Note_on_c, 0, 58, 30
1, 68880, Tempo, 1165049
1, 68880, Note_on_c, 0, 58, 0
1, 68880, Note_on_c, 0, 77, 0
1, 68880, Note_on_c, 0, 75, 50
1, 68880, Note_on_c, 0, 63, 27
1, 69000, Tempo, 821355
1, 69000, Note_on_c, 0, 63, 0
1, 69000, Note_on_c, 0, 75, 0
1, 69000, Note_on_c, 0, 72, 39
1, 69020, Control_c, 0, 64, 0
1, 69060, Note_on_c, 0, 72, 0
1, 69060, Note_on_c, 0, 73, 39
1, 69077, Control_c, 0, 64, 127
1, 69118, Note_on_c, 0, 73, 0
1, 69120, Tempo, 1001502
1, 69120, Note_on_c, 0, 73, 39
1, 69120, Note_on_c, 0, 43, 33
1, 69165, Note_on_c, 0, 73, 0
1, 69165, Note_on_c, 0, 75, 36
1, 69210, Note_on_c, 0, 75, 0
1, 69210, Note_on_c, 0, 73, 40
1, 69240, Tempo, 992884
1, 69255, Note_on_c, 0, 73, 0
1, 69255, Note_on_c, 0, 75, 37
1, 69300, Note_on_c, 0, 75, 0
1, 69300, Note_on_c, 0, 73, 42
1, 69320, Tempo, 984252
1, 69345, Note_on_c, 0, 73, 0
1, 69345, Note_on_c, 0, 75, 38
1, 69360, Note_on_c, 0, 43, 0
1, 69360, Note_on_c, 0, 52, 28
1, 69390, Note_on_c, 0, 75, 0
1, 69390, Note_on_c, 0, 73, 44
1, 69400, Tempo, 975927
1, 69435, Note_on_c, 0, 73, 0
1, 69435, Note_on_c, 0, 75, 39
1, 69480, Tempo, 967586
1, 69480, Note_on_c, 0, 75, 0
1, 69480, Note_on_c, 0, 73, 46
1, 69525, Note_on_c, 0, 73, 0
1, 69525, Note_on_c, 0, 75, 42
1, 69560, Tempo, 959539
1, 69570, Note_on_c, 0, 75, 0
1, 69570, Note_on_c, 0, 73, 48
1, 69600, Note_on_c, 0, 52, 0
1, 69600, Note_on_c, 0, 61, 28
1, 69615, Note_on_c, 0, 73, 0
1, 69615, Note_on_c, 0, 75, 42
1, 69640, Tempo, 951475
1, 69660, Note_on_c, 0, 75, 0
1, 69660, Note_on_c, 0, 73, 47
1, 69680, Tempo, 959539
1, 69705, Note_on_c, 0, 73, 0
1, 69706, Note_on_c, 0, 75, 40
1, 69720, Tempo, 967586
1, 69750, Note_on_c, 0, 73, 44
1, 69751, Note_on_c, 0, 75, 0
1, 69760, Tempo, 975927
1, 69795, Note_on_c, 0, 73, 0
1, 69795, Note_on_c, 0, 75, 38
1, 69800, Tempo, 984252
1, 69840, Tempo, 992884
1, 69840, Note_on_c, 0, 61, 0
1, 69840, Note_on_c, 0, 73, 42
1, 69840, Note_on_c, 0, 70, 29
1, 69841, Note_on_c, 0, 75, 0
1, 69860, Tempo, 1001502
1, 69880, Tempo, 1019368
1, 69900, Tempo, 1038062
1, 69900, Note_on_c, 0, 73, 0
1, 69900, Note_on_c, 0, 75, 37
1, 69920, Tempo, 1057269
1, 69940, Tempo, 1087350
1, 69960, Tempo, 1108443
1, 69960, Note_on_c, 0, 75, 0
1, 69960, Note_on_c, 0, 72, 40
1, 69980, Tempo, 1130582
1, 70000, Tempo, 1153403
1, 70020, Tempo, 1189296
1, 70020, Note_on_c, 0, 72, 0
1, 70020, Note_on_c, 0, 73, 35
1, 70040, Tempo, 1038062
1, 70080, Tempo, 984252
1, 70080, Note_on_c, 0, 73, 0
1, 70080, Note_on_c, 0, 70, 0
1, 70080, Note_on_c, 0, 82, 54
1, 70080, Note_on_c, 0, 44, 33
1, 70099, Control_c, 0, 64, 0
1, 70140, Control_c, 0, 64, 127
1, 70320, Note_on_c, 0, 44, 0
1, 70320, Note_on_c, 0, 82, 0
1, 70320, Note_on_c, 0, 80, 50
1, 70320, Note_on_c, 0, 51, 28
1, 70560, Tempo, 1010441
1, 70560, Note_on_c, 0, 51, 0
1, 70560, Note_on_c, 0, 80, 0
1, 70560, Note_on_c, 0, 78, 52
1, 70560, Note_on_c, 0, 60, 30
1, 70800, Note_on_c, 0, 60, 0
1, 70800, Note_on_c, 0, 78, 0
1, 70800, Note_on_c, 0, 68, 50
1, 70800, Note_on_c, 0, 66, 30
1, 71040, Note_on_c, 0, 66, 0
1, 71040, Note_on_c, 0, 68, 0
1, 71040, Note_on_c, 0, 75, 54
1, 71040, Note_on_c, 0, 32, 33
1, 71056, Control_c, 0, 64, 0
1, 71238, Control_c, 0, 64, 127
1, 71280, Tempo, 984252
1, 71280, Note_on_c, 0, 32, 0
1, 71280, Note_on_c, 0, 44, 27
1, 71520, Tempo, 1010441
1, 71520, Note_on_c, 0, 44, 0
1, 71520, Note_on_c, 0, 54, 27
1, 71760, Note_on_c, 0, 54, 0
1, 71760, Note_on_c, 0, 60, 26
1, 72000, Note_on_c, 0, 60, 0
1, 72000, Note_on_c, 0, 75, 0
1, 72000, Note_on_c, 0, 73, 50
1, 72000, Note_on_c, 0, 37, 31
1, 72015, Control_c, 0, 64, 0
1, 72198, Control_c, 0, 64, 127
1, 72240, Note_on_c, 0, 37, 0
1, 72240, Note_on_c, 0, 44, 28
1, 72480, Note_on_c, 0, 44, 0
1, 72480, Note_on_c, 0, 73, 0
1, 72480, Note_on_c, 0, 53, 28
1, 72720, Tempo, 1077199
1, 72720, Note_on_c, 0, 53, 0
1, 72720, Note_on_c, 0, 61, 28
1, 72960, Tempo, 1028630
1, 72960, Note_on_c, 0, 61, 0
1, 72960, Note_on_c, 0, 77, 54
1, 72960, Note_on_c, 0, 37, 33
1, 72970, Control_c, 0, 64, 0
1, 73087, Control_c, 0, 64, 127
1, 73200, Tempo, 967586
1, 73200, Note_on_c, 0, 37, 0
1, 73200, Note_on_c, 0, 44, 27
1, 73440, Tempo, 975927
1, 73440, Note_on_c, 0, 44, 0
1, 73440, Note_on_c, 0, 53, 27
1, 73680, Tempo, 992884
1, 73680, Note_on_c, 0, 53, 0
1, 73680, Note_on_c, 0, 61, 28
1, 73920, Note_on_c, 0, 61, 0
1, 73920, Note_on_c, 0, 77, 0
1, 73920, Note_on_c, 0, 78, 50
1, 73920, Note_on_c, 0, 37, 33
1, 74160, Tempo, 951475
1, 74160, Note_on_c, 0, 37, 0
1, 74160, Note_on_c, 0, 78, 0
1, 74160, Note_on_c, 0, 77, 46
1, 74160, Note_on_c, 0, 44, 27
1, 74400, Note_on_c, 0, 44, 0
1, 74400, Note_on_c, 0, 77, 0
1, 74400, Note_on_c, 0, 75, 50
1, 74400, Note_on_c, 0, 53, 27
1, 74640, Tempo, 984252
1, 74640, Note_on_c, 0, 53, 0
1, 74640, Note_on_c, 0, 75, 0
1, 74640, Note_on_c, 0, 73, 46
1, 74640, Note_on_c, 0, 61, 28
1, 74880, Tempo, 984252
1, 74880, Note_on_c, 0, 61, 0
1, 74880, Note_on_c, 0, 73, 0
1, 74880, Note_on_c, 0, 72, 50
1, 74880, Note_on_c, 0, 39, 33
1, 74890, Control_c, 0, 64, 0
1, 75007, Control_c, 0, 64, 127
1, 75120, Note_on_c, 0, 39, 0
1, 75120, Note_on_c, 0, 44, 27
1, 75240, Tempo, 1028630
1, 75360, Tempo, 984252
1, 75360, Note_on_c, 0, 44, 0
1, 75360, Note_on_c, 0, 72, 0
1, 75360, Note_on_c, 0, 82, 54
1, 75360, Note_on_c, 0, 54, 24
1, 75600, Note_on_c, 0, 54, 0
1, 75600, Note_on_c, 0, 60, 24
1, 75840, Note_on_c, 0, 60, 0
1, 75840, Note_on_c, 0, 82, 0
1, 75840, Note_on_c, 0, 80, 52
1, 75840, Note_on_c, 0, 39, 31
1, 76080, Tempo, 959539
1, 76080, Note_on_c, 0, 39, 0
1, 76080, Note_on_c, 0, 44, 24
1, 76320, Note_on_c, 0, 44, 0
1, 76320, Note_on_c, 0, 54, 27
1, 76560, Tempo, 992884
1, 76560, Note_on_c, 0, 54, 0
1, 76560, Note_on_c, 0, 60, 25
1, 76600, Tempo, 1019368
1, 76800, Note_on_c, 0, 60, 0
1, 76800, Note_on_c, 0, 80, 0
1, 76800, Note_on_c, 0, 78, 51
1, 76800, Note_on_c, 0, 32, 33
1, 76814, Control_c, 0, 64, 0
1, 76984, Control_c, 0, 64, 127
1, 77040, Tempo, 967586
1, 77040, Note_on_c, 0, 32, 0
1, 77040, Note_on_c, 0, 44, 29
1, 77280, Note_on_c, 0, 44, 0
1, 77280, Note_on_c, 0, 54, 29
1, 77520, Tempo, 984252
1, 77520, Note_on_c, 0, 54, 0
1, 77520, Note_on_c, 0, 60, 30
1, 77760, Note_on_c, 0, 60, 0
1, 77760, Note_on_c, 0, 78, 0
1, 77760, Note_on_c, 0, 80, 50
1, 77760, Note_on_c, 0, 32, 36
1, 78000, Tempo, 951475
1, 78000, Note_on_c, 0, 32, 0
1, 78000, Note_on_c, 0, 80, 0
1, 78000, Note_on_c, 0, 78, 46
1, 78000, Note_on_c, 0, 44, 30
1, 78240, Note_on_c, 0, 44, 0
1, 78240, Note_on_c, 0, 78, 0
1, 78240, Note_on_c, 0, 77, 50
1, 78240, Note_on_c, 0, 54, 30
1, 78480, Tempo, 992884
1, 78480, Note_on_c, 0, 54, 0
1, 78480, Note_on_c, 0, 77, 0
1, 78480, Note_on_c, 0, 75, 46
1, 78480, Note_on_c, 0, 60, 31
1, 78720, Tempo, 992884
1, 78720, Note_on_c, 0, 60, 0
1, 78720, Note_on_c, 0, 75, 0
1, 78720, Note_on_c, 0, 73, 50
1, 78720, Note_on_c, 0, 37, 36
1, 78731, Control_c, 0, 64, 0
1, 78861, Control_c, 0, 64, 127
1, 78960, Note_on_c, 0, 37, 0
1, 78960, Note_on_c, 0, 44, 30
1, 79200, Note_on_c, 0, 44, 0
1, 79200, Note_on_c, 0, 73, 0
1, 79200, Note_on_c, 0, 85, 53
1, 79200, Note_on_c, 0, 53, 28
1, 79440, Note_on_c, 0, 53, 0
1, 79440, Note_on_c, 0, 61, 25
1, 79560, Tempo, 1047486
1, 79680, Tempo, 992884
1, 79680, Note_on_c, 0, 61, 0
1, 79680, Note_on_c, 0, 85, 0
1, 79680, Note_on_c, 0, 80, 49
1, 79680, Note_on_c, 0, 37, 33
1, 79720, Tempo, 1019368
1, 79920, Tempo, 951475
1, 79920, Note_on_c, 0, 37, 0
1, 79920, Note_on_c, 0, 44, 27
1, 80160, Note_on_c, 0, 44, 0
1, 80160, Note_on_c, 0, 53, 29
1, 80400, Tempo, 1010441
1, 80400, Note_on_c, 0, 53, 0
1, 80400, Note_on_c, 0, 61, 27
1, 80640, Tempo, 984252
1, 80640, Note_on_c, 0, 61, 0
1, 80640, Note_on_c, 0, 80, 0
1, 80640, Note_on_c, 0, 77, 52
1, 80640, Note_on_c, 0, 37, 33
1, 80652, Control_c, 0, 64, 0
1, 80777, Control_c, 0, 64, 127
1, 80880, Tempo, 959539
1, 80880, Note_on_c, 0, 37, 0
1, 80880, Note_on_c, 0, 44, 27
1, 81120, Tempo, 984252
1, 81120, Note_on_c, 0, 44, 0
1, 81120, Note_on_c, 0, 53, 30
1, 81360, Note_on_c, 0, 53, 0
1, 81360, Note_on_c, 0, 61, 28
1, 81600, Tempo, 959539
1, 81600, Note_on_c, 0, 61, 0
1, 81600, Note_on_c, 0, 77, 0
1, 81600, Note_on_c, 0, 78, 51
1, 81600, Note_on_c, 0, 34, 33
1, 81617, Control_c, 0, 64, 0
1, 81794, Control_c, 0, 64, 127
1, 81840, Note_on_c, 0, 34, 0
1, 81840, Note_on_c, 0, 78, 0
1, 81840, Note_on_c, 0, 77, 46
1, 81840, Note_on_c, 0, 46, 29
1, 82080, Note_on_c, 0, 46, 0
1, 82080, Note_on_c, 0, 77, 0
1, 82080, Note_on_c, 0, 75, 50
1, 82080, Note_on_c, 0, 56, 29
1, 82320, Tempo, 1077199
1, 82320, Note_on_c, 0, 56, 0
1, 82320, Note_on_c, 0, 75, 0
1, 82320, Note_on_c, 0, 74, 46
1, 82320, Note_on_c, 0, 62, 30
1, 82440, Tempo, 804074
1, 82440, Note_on_c, 0, 74, 0
1, 82440, Note_on_c, 0, 75, 46
1, 82500, Note_on_c, 0, 75, 0
1, 82500, Note_on_c, 0, 77, 42
1, 82560, Tempo, 951475
1, 82560, Note_on_c, 0, 77, 0
1, 82560, Note_on_c, 0, 62, 0
1, 82560, Note_on_c, 0, 75, 53
1, 82560, Note_on_c, 0, 39, 33
1, 82572, Control_c, 0, 64, 0
1, 82600, Tempo, 935891
1, 82660, Control_c, 0, 64, 127
1, 82800, Note_on_c, 0, 39, 0
1, 82800, Note_on_c, 0, 75, 0
1, 82800, Note_on_c, 0, 74, 51
1, 82800, Note_on_c, 0, 46, 30
1, 83040, Note_on_c, 0, 46, 0
1, 83040, Note_on_c, 0, 74, 0
1, 83040, Note_on_c, 0, 75, 54
1, 83040, Note_on_c, 0, 54, 30
1, 83280, Tempo, 951475
1, 83280, Note_on_c, 0, 54, 0
1, 83280, Note_on_c, 0, 75, 0
1, 83280, Note_on_c, 0, 77, 55
1, 83280, Note_on_c, 0, 63, 27
1, 83520, Note_on_c, 0, 63, 0
1, 83520, Note_on_c, 0, 77, 0
1, 83520, Note_on_c, 0, 78, 57
1, 83520, Note_on_c, 0, 42, 33
1, 83532, Control_c, 0, 64, 0
1, 83560, Tempo, 951475
1, 83603, Control_c, 0, 64, 127
1, 83760, Note_on_c, 0, 42, 0
1, 83760, Note_on_c, 0, 78, 0
1, 83760, Note_on_c, 0, 70, 52
1, 83760, Note_on_c, 0, 51, 29
1, 84000, Tempo, 992884
1, 84000, Note_on_c, 0, 51, 0
1, 84000, Note_on_c, 0, 70, 0
1, 84000, Note_on_c, 0, 77, 57
1, 84000, Note_on_c, 0, 58, 30
1, 84240, Tempo, 1165049
1, 84240, Note_on_c, 0, 58, 0
1, 84240, Note_on_c, 0, 77, 0
1, 84240, Note_on_c, 0, 75, 50
1, 84240, Note_on_c, 0, 63, 27
1, 84360, Tempo, 821355
1, 84360, Note_on_c, 0, 63, 0
1, 84360, Note_on_c, 0, 75, 0
1, 84360, Note_on_c, 0, 72, 39
1, 84381, Control_c, 0, 64, 0
1, 84420, Note_on_c, 0, 72, 0
1, 84420, Note_on_c, 0, 73, 39
1, 84423, Control_c, 0, 64, 127
1, 84480, Tempo, 1001502
1, 84480, Note_on_c, 0, 73, 0
1, 84480, Note_on_c, 0, 73, 39
1, 84480, Note_on_c, 0, 43, 33
1, 84525, Note_on_c, 0, 73, 0
1, 84525, Note_on_c, 0, 75, 36
1, 84570, Note_on_c, 0, 75, 0
1, 84570, Note_on_c, 0, 73, 40
1, 84600, Tempo, 992884
1, 84615, Note_on_c, 0, 73, 0
1, 84615, Note_on_c, 0, 75, 37
1, 84660, Note_on_c, 0, 75, 0
1, 84660, Note_on_c, 0, 73, 42
1, 84680, Tempo, 984252
1, 84705, Note_on_c, 0, 73, 0
1, 84705, Note_on_c, 0, 75, 38
1, 84720, Note_on_c, 0, 43, 0
1, 84720, Note_on_c, 0, 52, 28
1, 84750, Note_on_c, 0, 75, 0
1, 84750, Note_on_c, 0, 73, 44
1, 84760, Tempo, 975927
1, 84795, Note_on_c, 0, 73, 0
1, 84795, Note_on_c, 0, 75, 39
1, 84840, Tempo, 967586
1, 84840, Note_on_c, 0, 75, 0
1, 84840, Note_on_c, 0, 73, 46
1, 84885, Note_on_c, 0, 73, 0
1, 84885, Note_on_c, 0, 75, 42
1, 84920, Tempo, 959539
1, 84930, Note_on_c, 0, 75, 0
1, 84930, Note_on_c, 0, 73, 48
1, 84960, Note_on_c, 0, 52, 0
1, 84960, Note_on_c, 0, 61, 28
1, 84975, Note_on_c, 0, 73, 0
1, 84975, Note_on_c, 0, 75, 42
1, 85000, Tempo, 951475
1, 85020, Note_on_c, 0, 75, 0
1, 85020, Note_on_c, 0, 73, 47
1, 85040, Tempo, 959539
1, 85065, Note_on_c, 0, 73, 0
1, 85066, Note_on_c, 0, 75, 40
1, 85080, Tempo, 967586
1, 85110, Note_on_c, 0, 73, 44
1, 85111, Note_on_c, 0, 75, 0
1, 85120, Tempo, 975927
1, 85155, Note_on_c, 0, 73, 0
1, 85155, Note_on_c, 0, 75, 38
1, 85160, Tempo, 984252
1, 85200, Tempo, 992884
1, 85200, Note_on_c, 0, 61, 0
1, 85200, Note_on_c, 0, 73, 42
1, 85200, Note_on_c, 0, 70, 29
1, 85201, Note_on_c, 0, 75, 0
1, 85220, Tempo, 1001502
1, 85240, Tempo, 1019368
1, 85260, Tempo, 1038062
1, 85260, Note_on_c, 0, 73, 0
1, 85260, Note_on_c, 0, 75, 37
1, 85280, Tempo, 1057269
1, 85300, Tempo, 1087350
1, 85320, Tempo, 1108443
1, 85320, Note_on_c, 0, 75, 0
1, 85320, Note_on_c, 0, 72, 40
1, 85340, Tempo, 1130582
1, 85360, Tempo, 1153403
1, 85380, Tempo, 1189296
1, 85380, Note_on_c, 0, 72, 0
1, 85380, Note_on_c, 0, 73, 35
1, 85400, Tempo, 1038062
1, 85440, Tempo, 984252
1, 85440, Note_on_c, 0, 73, 0
1, 85440, Note_on_c, 0, 70, 0
1, 85440, Note_on_c, 0, 82, 54
1, 85440, Note_on_c, 0, 44, 33
1, 85458, Control_c, 0, 64, 0
1, 85500, Control_c, 0, 64, 127
1, 85680, Note_on_c, 0, 44, 0
1, 85680, Note_on_c, 0, 82, 0
1, 85680, Note_on_c, 0, 80, 50
1, 85680, Note_on_c, 0, 51, 28
1, 85920, Tempo, 1010441
1, 85920, Note_on_c, 0, 51, 0
1, 85920, Note_on_c, 0, 80, 0
1, 85920, Note_on_c, 0, 78, 52
1, 85920, Note_on_c, 0, 60, 30
1, 86160, Note_on_c, 0, 60, 0
1, 86160, Note_on_c, 0, 78, 0
1, 86160, Note_on_c, 0, 68, 50
1, 86160, Note_on_c, 0, 66, 30
1, 86400, Note_on_c, 0, 66, 0
1, 86400, Note_on_c, 0, 68, 0
1, 86400, Note_on_c, 0, 75, 54
1, 86400, Note_on_c, 0, 32, 33
1, 86417, Control_c, 0, 64, 0
1, 86598, Control_c, 0, 64, 127
1, 86640, Tempo, 984252
1, 86640, Note_on_c, 0, 32, 0
1, 86640, Note_on_c, 0, 44, 27
1, 86880, Tempo, 1010441
1, 86880, Note_on_c, 0, 44, 0
1, 86880, Note_on_c, 0, 54, 27
1, 87120, Note_on_c, 0, 54, 0
1, 87120, Note_on_c, 0, 60, 26
1, 87360, Note_on_c, 0, 60, 0
1, 87360, Note_on_c, 0, 75, 0
1, 87360, Note_on_c, 0, 73, 50
1, 87360, Note_on_c, 0, 37, 31
1, 87375, Control_c, 0, 64, 0
1, 87558, Control_c, 0, 64, 127
1, 87600, Note_on_c, 0, 37, 0
1, 87600, Note_on_c, 0, 44, 28
1, 87840, Note_on_c, 0, 44, 0
1, 87840, Note_on_c, 0, 73, 0
1, 87840, Note_on_c, 0, 53, 28
1, 88080, Tempo, 1077199
1, 88080, Note_on_c, 0, 53, 0
1, 88080, Note_on_c, 0, 61, 28
1, 88320, Tempo, 1028630
1, 88320, Note_on_c, 0, 61, 0
1, 88320, Note_on_c, 0, 72, 56
1, 88320, Note_on_c, 0, 32, 34
1, 88339, Control_c, 0, 64, 0
1, 88489, Control_c, 0, 64, 127
1, 88560, Tempo, 967586
1, 88560, Note_on_c, 0, 32, 0
1, 88560, Note_on_c, 0, 44, 28
1, 88800, Tempo, 975927
1, 88800, Note_on_c, 0, 44, 0
1, 88800, Note_on_c, 0, 51, 28
1, 89040, Tempo, 992884
1, 89040, Note_on_c, 0, 51, 0
1, 89040, Note_on_c, 0, 60, 29
1, 89280, Note_on_c, 0, 60, 0
1, 89280, Note_on_c, 0, 72, 0
1, 89280, Note_on_c, 0, 73, 52
1, 89280, Note_on_c, 0, 32, 34
1, 89520, Tempo, 951475
1, 89520, Note_on_c, 0, 32, 0
1, 89520, Note_on_c, 0, 73, 0
1, 89520, Note_on_c, 0, 72, 48
1, 89520, Note_on_c, 0, 44, 28
1, 89760, Note_on_c, 0, 44, 0
1, 89760, Note_on_c, 0, 72, 0
1, 89760, Note_on_c, 0, 70, 52
1, 89760, Note_on_c, 0, 51, 28
1, 90000, Tempo, 984252
1, 90000, Note_on_c, 0, 51, 0
1, 90000, Note_on_c, 0, 70, 0
1, 90000, Note_on_c, 0, 68, 48
1, 90000, Note_on_c, 0, 60, 29
1, 90240, Tempo, 984252
1, 90240, Note_on_c, 0, 60, 0
1, 90240, Note_on_c, 0, 68, 0
1, 90240, Note_on_c, 0, 67, 52
1, 90240, Note_on_c, 0, 34, 34
1, 90252, Control_c, 0, 64, 0
1, 90410, Control_c, 0, 64, 127
1, 90480, Note_on_c, 0, 34, 0
1, 90480, Note_on_c, 0, 46, 28
1, 90600, Tempo, 1028630
1, 90720, Tempo, 984252
1, 90720, Note_on_c, 0, 46, 0
1, 90720, Note_on_c, 0, 67, 0
1, 90720, Note_on_c, 0, 77, 56
1, 90720, Note_on_c, 0, 51, 25
1, 90960, Note_on_c, 0, 51, 0
1, 90960, Note_on_c, 0, 61, 25
1, 91200, Note_on_c, 0, 61, 0
1, 91200, Note_on_c, 0, 77, 0
1, 91200, Note_on_c, 0, 75, 54
1, 91200, Note_on_c, 0, 34, 32
1, 91440, Tempo, 959539
1, 91440, Note_on_c, 0, 34, 0
1, 91440, Note_on_c, 0, 46, 25
1, 91680, Note_on_c, 0, 46, 0
1, 91680, Note_on_c, 0, 51, 28
1, 91920, Tempo, 992884
1, 91920, Note_on_c, 0, 51, 0
1, 91920, Note_on_c, 0, 61, 26
1, 91960, Tempo, 1019368
1, 92160, Note_on_c, 0, 61, 0
1, 92160, Note_on_c, 0, 75, 0
1, 92160, Note_on_c, 0, 73, 55
1, 92160, Note_on_c, 0, 34, 36
1, 92174, Control_c, 0, 64, 0
1, 92344, Control_c, 0, 64, 127
1, 92400, Tempo, 967586
1, 92400, Note_on_c, 0, 34, 0
1, 92400, Note_on_c, 0, 46, 31
1, 92640, Note_on_c, 0, 46, 0
1, 92640, Note_on_c, 0, 52, 31
1, 92880, Tempo, 984252
1, 92880, Note_on_c, 0, 52, 0
1, 92880, Note_on_c, 0, 61, 33
1, 93120, Note_on_c, 0, 61, 0
1, 93120, Note_on_c, 0, 73, 0
1, 93120, Note_on_c, 0, 75, 55
1, 93120, Note_on_c, 0, 34, 39
1, 93360, Tempo, 913381
1, 93360, Note_on_c, 0, 34, 0
1, 93360, Note_on_c, 0, 75, 0
1, 93360, Note_on_c, 0, 73, 50
1, 93360, Note_on_c, 0, 46, 33
1, 93400, Tempo, 928218
1, 93600, Tempo, 951475
1, 93600, Note_on_c, 0, 46, 0
1, 93600, Note_on_c, 0, 73, 0
1, 93600, Note_on_c, 0, 72, 55
1, 93600, Note_on_c, 0, 52, 33
1, 93840, Tempo, 992884
1, 93840, Note_on_c, 0, 52, 0
1, 93840, Note_on_c, 0, 72, 0
1, 93840, Note_on_c, 0, 70, 51
1, 93840, Note_on_c, 0, 61, 34
1, 94080, Tempo, 992884
1, 94080, Note_on_c, 0, 61, 0
1, 94080, Note_on_c, 0, 70, 0
1, 94080, Note_on_c, 0, 69, 55
1, 94080, Note_on_c, 0, 36, 40
1, 94098, Control_c, 0, 64, 0
1, 94221, Control_c, 0, 64, 127
1, 94320, Note_on_c, 0, 36, 0
1, 94320, Note_on_c, 0, 48, 33
1, 94360, Tempo, 943545
1, 94560, Tempo, 992884
1, 94560, Note_on_c, 0, 48, 0
1, 94560, Note_on_c, 0, 69, 0
1, 94560, Note_on_c, 0, 78, 59
1, 94560, Note_on_c, 0, 54, 31
1, 94800, Note_on_c, 0, 54, 0
1, 94800, Note_on_c, 0, 63, 28
1, 94920, Tempo, 1047486
1, 95040, Tempo, 992884
1, 95040, Note_on_c, 0, 63, 0
1, 95040, Note_on_c, 0, 78, 0
1, 95040, Note_on_c, 0, 77, 55
1, 95040, Note_on_c, 0, 36, 37
1, 95055, Control_c, 0, 64, 0
1, 95080, Tempo, 1019368
1, 95252, Control_c, 0, 64, 127
1, 95280, Tempo, 951475
1, 95280, Note_on_c, 0, 36, 0
1, 95280, Note_on_c, 0, 48, 30
1, 95520, Note_on_c, 0, 48, 0
1, 95520, Note_on_c, 0, 51, 33
1, 95760, Tempo, 1010441
1, 95760, Note_on_c, 0, 51, 0
1, 95760, Note_on_c, 0, 63, 30
1, 96000, Tempo, 984252
1, 96000, Note_on_c, 0, 63, 0
1, 96000, Note_on_c, 0, 77, 0
1, 96000, Note_on_c, 0, 77, 59
1, 96000, Note_on_c, 0, 37, 37
1, 96014, Control_c, 0, 64, 0
1, 96137, Control_c, 0, 64, 127
1, 96240, Tempo, 959539
1, 96240, Note_on_c, 0, 37, 0
1, 96240, Note_on_c, 0, 49, 31
1, 96480, Tempo, 951475
1, 96480, Note_on_c, 0, 49, 0
1, 96480, Note_on_c, 0, 58, 34
1, 96720, Tempo, 984252
1, 96720, Note_on_c, 0, 58, 0
1, 96720, Note_on_c, 0, 65, 32
1, 96960, Tempo, 959539
1, 96960, Note_on_c, 0, 65, 0
1, 96960, Note_on_c, 0, 77, 0
1, 96960, Note_on_c, 0, 78, 58
1, 96960, Note_on_c, 0, 37, 37
1, 96977, Control_c, 0, 64, 0
1, 97154, Control_c, 0, 64, 127
1, 97200, Tempo, 959539
1, 97200, Note_on_c, 0, 37, 0
1, 97200, Note_on_c, 0, 78, 0
1, 97200, Note_on_c, 0, 77, 52
1, 97200, Note_on_c, 0, 49, 33
1, 97440, Note_on_c, 0, 49, 0
1, 97440, Note_on_c, 0, 77, 0
1, 97440, Note_on_c, 0, 75, 57
1, 97440, Note_on_c, 0, 58, 33
1, 97680, Tempo, 984252
1, 97680, Note_on_c, 0, 58, 0
1, 97680, Note_on_c, 0, 75, 0
1, 97680, Note_on_c, 0, 73, 52
1, 97680, Note_on_c, 0, 65, 34
1, 97915, Note_on_c, 0, 73, 0
1, 97920, Note_on_c, 0, 65, 0
1, 97920, Note_on_c, 0, 73, 59
1, 97920, Note_on_c, 0, 39, 40
1, 97931, Control_c, 0, 64, 0
1, 97976, Control_c, 0, 64, 127
1, 98160, Tempo, 928218
1, 98160, Note_on_c, 0, 39, 0
1, 98160, Note_on_c, 0, 51, 35
1, 98400, Tempo, 959539
1, 98400, Note_on_c, 0, 51, 0
1, 98400, Note_on_c, 0, 73, 0
1, 98400, Note_on_c, 0, 72, 57
1, 98400, Note_on_c, 0, 58, 37
1, 98640, Note_on_c, 0, 58, 0
1, 98640, Note_on_c, 0, 66, 33
1, 98880, Note_on_c, 0, 66, 0
1, 98880, Note_on_c, 0, 72, 0
1, 98880, Note_on_c, 0, 41, 41
1, 98896, Control_c, 0, 64, 0
1, 98968, Control_c, 0, 64, 127
1, 99120, Note_on_c, 0, 41, 0
1, 99120, Note_on_c, 0, 72, 56
1, 99120, Note_on_c, 0, 53, 35
1, 99330, Note_on_c, 0, 72, 0
1, 99330, Note_on_c, 0, 75, 55
1, 99360, Note_on_c, 0, 75, 0
1, 99360, Note_on_c, 0, 53, 0
1, 99360, Note_on_c, 0, 73, 59
1, 99360, Note_on_c, 0, 58, 37
1, 99600, Tempo, 984252
1, 99600, Note_on_c, 0, 58, 0
1, 99600, Note_on_c, 0, 65, 35
1, 99720, Note_on_c, 0, 73, 0
1, 99720, Note_on_c, 0, 72, 58
1, 99835, Note_on_c, 0, 72, 0
1, 99840, Note_on_c, 0, 65, 0
1, 99840, Note_on_c, 0, 72, 59
1, 99840, Note_on_c, 0, 42, 40
1, 99853, Control_c, 0, 64, 0
1, 99896, Control_c, 0, 64, 127
1, 100080, Tempo, 928218
1, 100080, Note_on_c, 0, 42, 0
1, 100080, Note_on_c, 0, 51, 34
1, 100320, Tempo, 975927
1, 100320, Note_on_c, 0, 51, 0
1, 100320, Note_on_c, 0, 72, 0
1, 100320, Note_on_c, 0, 70, 56
1, 100320, Note_on_c, 0, 58, 37
1, 100560, Tempo, 935891
1, 100560, Note_on_c, 0, 58, 0
1, 100560, Note_on_c, 0, 63, 33
1, 100800, Tempo, 975927
1, 100800, Note_on_c, 0, 63, 0
1, 100800, Note_on_c, 0, 70, 0
1, 100800, Note_on_c, 0, 42, 38
1, 100816, Control_c, 0, 64, 0
1, 100888, Control_c, 0, 64, 127
1, 101040, Note_on_c, 0, 42, 0
1, 101040, Note_on_c, 0, 72, 56
1, 101040, Note_on_c, 0, 54, 34
1, 101250, Note_on_c, 0, 72, 0
1, 101250, Note_on_c, 0, 75, 59
1, 101280, Note_on_c, 0, 75, 0
1, 101280, Note_on_c, 0, 54, 0
1, 101280, Note_on_c, 0, 73, 59
1, 101280, Note_on_c, 0, 58, 37
1, 101520, Note_on_c, 0, 58, 0
1, 101520, Note_on_c, 0, 64, 34
1, 101640, Note_on_c, 0, 73, 0
1, 101640, Note_on_c, 0, 72, 56
1, 101760, Note_on_c, 0, 72, 0
1, 101760, Note_on_c, 0, 64, 0
1, 101760, Note_on_c, 0, 72, 50
1, 101760, Note_on_c, 0, 41, 36
1, 101772, Control_c, 0, 64, 0
1, 101863, Control_c, 0, 64, 127
1, 102000, Note_on_c, 0, 41, 0
1, 102000, Note_on_c, 0, 48, 32
1, 102240, Tempo, 975927
1, 102240, Note_on_c, 0, 48, 0
1, 102240, Note_on_c, 0, 72, 0
1, 102240, Note_on_c, 0, 77, 55
1, 102240, Note_on_c, 0, 57, 32
1, 102440, Tempo, 984252
1, 102480, Note_on_c, 0, 57, 0
1, 102480, Note_on_c, 0, 65, 31
1, 102640, Tempo, 992884
1, 102720, Tempo, 1008403
1, 102720, Note_on_c, 0, 65, 0
1, 102720, Note_on_c, 0, 77, 0
1, 102720, Note_on_c, 0, 78, 54
1, 102720, Note_on_c, 0, 39, 35
1, 102731, Control_c, 0, 64, 0
1, 102811, Control_c, 0, 64, 127
1, 102840, Tempo, 1016949
1, 102960, Tempo, 1025641
1, 102960, Note_on_c, 0, 39, 0
1, 102960, Note_on_c, 0, 51, 33
1, 103080, Tempo, 1034483
1, 103160, Tempo, 1043478
1, 103200, Tempo, 1100917
1, 103200, Note_on_c, 0, 51, 0
1, 103200, Note_on_c, 0, 78, 0
1, 103200, Note_on_c, 0, 68, 46
1, 103200, Note_on_c, 0, 56, 27
1, 103440, Tempo, 1153846
1, 103440, Note_on_c, 0, 56, 0
1, 103440, Note_on_c, 0, 66, 26
1, 103440, Note_on_c, 0, 60, 23
1, 103680, Note_on_c, 0, 60, 0
1, 103680, Note_on_c, 0, 66, 0
1, 103680, Note_on_c, 0, 68, 0
1, 103680, Note_on_c, 0, 77, 54
1, 103680, Note_on_c, 0, 37, 33
1, 103694, Control_c, 0, 64, 0
1, 103720, Tempo, 1028630
1, 103793, Control_c, 0, 64, 127
1, 103920, Tempo, 967586
1, 103920, Note_on_c, 0, 37, 0
1, 103920, Note_on_c, 0, 44, 27
1, 104160, Tempo, 975927
1, 104160, Note_on_c, 0, 44, 0
1, 104160, Note_on_c, 0, 53, 27
1, 104400, Tempo, 992884
1, 104400, Note_on_c, 0, 53, 0
1, 104400, Note_on_c, 0, 61, 28
1, 104640, Note_on_c, 0, 61, 0
1, 104640, Note_on_c, 0, 77, 0
1, 104640, Note_on_c, 0, 78, 50
1, 104640, Note_on_c, 0, 37, 33
1, 104880, Tempo, 951475
1, 104880, Note_on_c, 0, 37, 0
1, 104880, Note_on_c, 0, 78, 0
1, 104880, Note_on_c, 0, 77, 46
1, 104880, Note_on_c, 0, 44, 27
1, 105120, Note_on_c, 0, 44, 0
1, 105120, Note_on_c, 0, 77, 0
1, 105120, Note_on_c, 0, 75, 50
1, 105120, Note_on_c, 0, 53, 27
1, 105360, Tempo, 984252
1, 105360, Note_on_c, 0, 53, 0
1, 105360, Note_on_c, 0, 75, 0
1, 105360, Note_on_c, 0, 73, 46
1, 105360, Note_on_c, 0, 61, 28
1, 105600, Tempo, 984252
1, 105600, Note_on_c, 0, 61, 0
1, 105600, Note_on_c, 0, 73, 0
1, 105600, Note_on_c, 0, 72, 50
1, 105600, Note_on_c, 0, 39, 33
1, 105611, Control_c, 0, 64, 0
1, 105727, Control_c, 0, 64, 127
1, 105840, Note_on_c, 0, 39, 0
1, 105840, Note_on_c, 0, 44, 27
1, 105960, Tempo, 1028630
1, 106080, Tempo, 984252
1, 106080, Note_on_c, 0, 44, 0
1, 106080, Note_on_c, 0, 72, 0
1, 106080, Note_on_c, 0, 82, 54
1, 106080, Note_on_c, 0, 54, 24
1, 106320, Note_on_c, 0, 54, 0
1, 106320, Note_on_c, 0, 60, 24
1, 106560, Note_on_c, 0, 60, 0
1, 106560, Note_on_c, 0, 82, 0
1, 106560, Note_on_c, 0, 80, 52
1, 106560, Note_on_c, 0, 39, 31
1, 106800, Tempo, 959539
1, 106800, Note_on_c, 0, 39, 0
1, 106800, Note_on_c, 0, 44, 24
1, 107040, Note_on_c, 0, 44, 0
1, 107040, Note_on_c, 0, 54, 27
1, 107280, Tempo, 992884
1, 107280, Note_on_c, 0, 54, 0
1, 107280, Note_on_c, 0, 60, 25
1, 107320, Tempo, 1019368
1, 107520, Note_on_c, 0, 60, 0
1, 107520, Note_on_c, 0, 80, 0
1, 107520, Note_on_c, 0, 78, 51
1, 107520, Note_on_c, 0, 32, 33
1, 107534, Control_c, 0, 64, 0
1, 107704, Control_c, 0, 64, 127
1, 107760, Tempo, 967586
1, 107760, Note_on_c, 0, 32, 0
1, 107760, Note_on_c, 0, 44, 29
1, 108000, Note_on_c, 0, 44, 0
1, 108000, Note_on_c, 0, 54, 29
1, 108240, Tempo, 984252
1, 108240, Note_on_c, 0, 54, 0
1, 108240, Note_on_c, 0, 60, 30
1, 108480, Note_on_c, 0, 60, 0
1, 108480, Note_on_c, 0, 78, 0
1, 108480, Note_on_c, 0, 80, 50
1, 108480, Note_on_c, 0, 32, 36
1, 108720, Tempo, 951475
1, 108720, Note_on_c, 0, 32, 0
1, 108720, Note_on_c, 0, 80, 0
1, 108720, Note_on_c, 0, 78, 46
1, 108720, Note_on_c, 0, 44, 30
1, 108960, Note_on_c, 0, 44, 0
1, 108960, Note_on_c, 0, 78, 0
1, 108960, Note_on_c, 0, 77, 50
1, 108960, Note_on_c, 0, 54, 30
1, 109200, Tempo, 992884
1, 109200, Note_on_c, 0, 54, 0
1, 109200, Note_on_c, 0, 77, 0
1, 109200, Note_on_c, 0, 75, 46
1, 109200, Note_on_c, 0, 60, 31
1, 109440, Tempo, 992884
1, 109440, Note_on_c, 0, 60, 0
1, 109440, Note_on_c, 0, 75, 0
1, 109440, Note_on_c, 0, 73, 50
1, 109440, Note_on_c, 0, 37, 36
1, 109450, Control_c, 0, 64, 0
1, 109581, Control_c, 0, 64, 127
1, 109680, Note_on_c, 0, 37, 0
1, 109680, Note_on_c, 0, 44, 30
1, 109920, Note_on_c, 0, 44, 0
1, 109920, Note_on_c, 0, 73, 0
1, 109920, Note_on_c, 0, 85, 53
1, 109920, Note_on_c, 0, 53, 28
1, 110160, Note_on_c, 0, 53, 0
1, 110160, Note_on_c, 0, 61, 25
1, 110280, Tempo, 1047486
1, 110400, Tempo, 992884
1, 110400, Note_on_c, 0, 61, 0
1, 110400, Note_on_c, 0, 85, 0
1, 110400, Note_on_c, 0, 80, 49
1, 110400, Note_on_c, 0, 37, 33
1, 110440, Tempo, 1019368
1, 110640, Tempo, 951475
1, 110640, Note_on_c, 0, 37, 0
1, 110640, Note_on_c, 0, 44, 27
1, 110880, Note_on_c, 0, 44, 0
1, 110880, Note_on_c, 0, 53, 29
1, 111120, Tempo, 1010441
1, 111120, Note_on_c, 0, 53, 0
1, 111120, Note_on_c, 0, 61, 27
1, 111360, Tempo, 984252
1, 111360, Note_on_c, 0, 61, 0
1, 111360, Note_on_c, 0, 80, 0
1, 111360, Note_on_c, 0, 77, 52
1, 111360, Note_on_c, 0, 37, 33
1, 111371, Control_c, 0, 64, 0
1, 111497, Control_c, 0, 64, 127
1, 111600, Tempo, 959539
1, 111600, Note_on_c, 0, 37, 0
1, 111600, Note_on_c, 0, 44, 27
1, 111840, Tempo, 984252
1, 111840, Note_on_c, 0, 44, 0
1, 111840, Note_on_c, 0, 53, 30
1, 112080, Note_on_c, 0, 53, 0
1, 112080, Note_on_c, 0, 61, 28
1, 112320, Tempo, 959539
1, 112320, Note_on_c, 0, 61, 0
1, 112320, Note_on_c, 0, 77, 0
1, 112320, Note_on_c, 0, 78, 51
1, 112320, Note_on_c, 0, 34, 33
1, 112337, Control_c, 0, 64, 0
1, 112514, Control_c, 0, 64, 127
1, 112560, Note_on_c, 0, 34, 0
1, 112560, Note_on_c, 0, 78, 0
1, 112560, Note_on_c, 0, 77, 46
1, 112560, Note_on_c, 0, 46, 29
1, 112800, Note_on_c, 0, 46, 0
1, 112800, Note_on_c, 0, 77, 0
1, 112800, Note_on_c, 0, 75, 50
1, 112800, Note_on_c, 0, 56, 29
1, 113040, Tempo, 1077199
1, 113040, Note_on_c, 0, 56, 0
1, 113040, Note_on_c, 0, 75, 0
1, 113040, Note_on_c, 0, 74, 46
1, 113040, Note_on_c, 0, 62, 30
1, 113160, Tempo, 804074
1, 113160, Note_on_c, 0, 74, 0
1, 113160, Note_on_c, 0, 75, 46
1, 113220, Note_on_c, 0, 75, 0
1, 113220, Note_on_c, 0, 77, 42
1, 113280, Tempo, 951475
1, 113280, Note_on_c, 0, 77, 0
1, 113280, Note_on_c, 0, 62, 0
1, 113280, Note_on_c, 0, 75, 53
1, 113280, Note_on_c, 0, 39, 33
1, 113291, Control_c, 0, 64, 0
1, 113320, Tempo, 935891
1, 113383, Control_c, 0, 64, 127
1, 113520, Note_on_c, 0, 39, 0
1, 113520, Note_on_c, 0, 75, 0
1, 113520, Note_on_c, 0, 74, 51
1, 113520, Note_on_c, 0, 46, 30
1, 113760, Note_on_c, 0, 46, 0
1, 113760, Note_on_c, 0, 74, 0
1, 113760, Note_on_c, 0, 75, 54
1, 113760, Note_on_c, 0, 54, 30
1, 114000, Tempo, 951475
1, 114000, Note_on_c, 0, 54, 0
1, 114000, Note_on_c, 0, 75, 0
1, 114000, Note_on_c, 0, 77, 55
1, 114000, Note_on_c, 0, 63, 27
1, 114240, Note_on_c, 0, 63, 0
1, 114240, Note_on_c, 0, 77, 0
1, 114240, Note_on_c, 0, 78, 57
1, 114240, Note_on_c, 0, 42, 33
1, 114251, Control_c, 0, 64, 0
1, 114280, Tempo, 951475
1, 114326, Control_c, 0, 64, 127
1, 114480, Note_on_c, 0, 42, 0
1, 114480, Note_on_c, 0, 78, 0
1, 114480, Note_on_c, 0, 70, 52
1, 114480, Note_on_c, 0, 51, 29
1, 114720, Tempo, 992884
1, 114720, Note_on_c, 0, 51, 0
1, 114720, Note_on_c, 0, 70, 0
1, 114720, Note_on_c, 0, 77, 57
1, 114720, Note_on_c, 0, 58, 30
1, 114960, Tempo, 1165049
1, 114960, Note_on_c, 0, 58, 0
1, 114960, Note_on_c, 0, 77, 0
1, 114960, Note_on_c, 0, 75, 50
1, 114960, Note_on_c, 0, 63, 27
1, 115080, Tempo, 821355
1, 115080, Note_on_c, 0, 63, 0
1, 115080, Note_on_c, 0, 75, 0
1, 115080, Note_on_c, 0, 72, 39
1, 115098, Control_c, 0, 64, 0
1, 115126, Control_c, 0, 64, 127
1, 115140, Note_on_c, 0, 72, 0
1, 115140, Note_on_c, 0, 73, 39
1, 115200, Tempo, 1001502
1, 115200, Note_on_c, 0, 73, 0
1, 115200, Note_on_c, 0, 73, 39
1, 115200, Note_on_c, 0, 43, 33
1, 115245, Note_on_c, 0, 73, 0
1, 115245, Note_on_c, 0, 75, 36
1, 115290, Note_on_c, 0, 75, 0
1, 115290, Note_on_c, 0, 73, 40
1, 115320, Tempo, 992884
1, 115335, Note_on_c, 0, 73, 0
1, 115335, Note_on_c, 0, 75, 37
1, 115380, Note_on_c, 0, 75, 0
1, 115380, Note_on_c, 0, 73, 42
1, 115400, Tempo, 984252
1, 115425, Note_on_c, 0, 73, 0
1, 115425, Note_on_c, 0, 75, 38
1, 115440, Note_on_c, 0, 43, 0
1, 115440, Note_on_c, 0, 52, 28
1, 115470, Note_on_c, 0, 75, 0
1, 115470, Note_on_c, 0, 73, 44
1, 115480, Tempo, 975927
1, 115515, Note_on_c, 0, 73, 0
1, 115515, Note_on_c, 0, 75, 39
1, 115560, Tempo, 967586
1, 115560, Note_on_c, 0, 75, 0
1, 115560, Note_on_c, 0, 73, 46
1, 115605, Note_on_c, 0, 73, 0
1, 115605, Note_on_c, 0, 75, 42
1, 115640, Tempo, 959539
1, 115650, Note_on_c, 0, 75, 0
1, 115650, Note_on_c, 0, 73, 48
1, 115680, Note_on_c, 0, 52, 0
1, 115680, Note_on_c, 0, 61, 28
1, 115695, Note_on_c, 0, 73, 0
1, 115695, Note_on_c, 0, 75, 42
1, 115720, Tempo, 951475
1, 115740, Note_on_c, 0, 75, 0
1, 115740, Note_on_c, 0, 73, 47
1, 115760, Tempo, 959539
1, 115785, Note_on_c, 0, 73, 0
1, 115786, Note_on_c, 0, 75, 40
1, 115800, Tempo, 967586
1, 115830, Note_on_c, 0, 73, 44
1, 115831, Note_on_c, 0, 75, 0
1, 115840, Tempo, 975927
1, 115875, Note_on_c, 0, 73, 0
1, 115875, Note_on_c, 0, 75, 38
1, 115880, Tempo, 984252
1, 115920, Tempo, 992884
1, 115920, Note_on_c, 0, 61, 0
1, 115920, Note_on_c, 0, 73, 42
1, 115920, Note_on_c, 0, 70, 29
1, 115921, Note_on_c, 0, 75, 0
1, 115940, Tempo, 1001502
1, 115960, Tempo, 1019368
1, 115980, Tempo, 1038062
1, 115980, Note_on_c, 0, 73, 0
1, 115980, Note_on_c, 0, 75, 37
1, 116000, Tempo, 1057269
1, 116020, Tempo, 1087350
1, 116040, Tempo, 1108443
1, 116040, Note_on_c, 0, 75, 0
1, 116040, Note_on_c, 0, 72, 40
1, 116060, Tempo, 1130582
1, 116080, Tempo, 1153403
1, 116100, Tempo, 1189296
1, 116100, Note_on_c, 0, 72, 0
1, 116100, Note_on_c, 0, 73, 35
1, 116120, Tempo, 1038062
1, 116160, Tempo, 984252
1, 116160, Note_on_c, 0, 73, 0
1, 116160, Note_on_c, 0, 70, 0
1, 116160, Note_on_c, 0, 82, 54
1, 116160, Note_on_c, 0, 44, 33
1, 116179, Control_c, 0, 64, 0
1, 116220, Control_c, 0, 64, 127
1, 116400, Note_on_c, 0, 44, 0
1, 116400, Note_on_c, 0, 82, 0
1, 116400, Note_on_c, 0, 80, 50
1, 116400, Note_on_c, 0, 51, 28
1, 116640, Tempo, 1010441
1, 116640, Note_on_c, 0, 51, 0
1, 116640, Note_on_c, 0, 80, 0
1, 116640, Note_on_c, 0, 78, 52
1, 116640, Note_on_c, 0, 60, 30
1, 116880, Note_on_c, 0, 60, 0
1, 116880, Note_on_c, 0, 78, 0
1, 116880, Note_on_c, 0, 68, 50
1, 116880, Note_on_c, 0, 66, 30
1, 117120, Note_on_c, 0, 66, 0
1, 117120, Note_on_c, 0, 68, 0
1, 117120, Note_on_c, 0, 75, 54
1, 117120, Note_on_c, 0, 32, 33
1, 117137, Control_c, 0, 64, 0
1, 117318, Control_c, 0, 64, 127
1, 117360, Tempo, 984252
1, 117360, Note_on_c, 0, 32, 0
1, 117360, Note_on_c, 0, 44, 27
1, 117600, Tempo, 1010441
1, 117600, Note_on_c, 0, 44, 0
1, 117600, Note_on_c, 0, 54, 27
1, 117840, Note_on_c, 0, 54, 0
1, 117840, Note_on_c, 0, 60, 26
1, 118080, Note_on_c, 0, 60, 0
1, 118080, Note_on_c, 0, 75, 0
1, 118080, Note_on_c, 0, 73, 45
1, 118080, Note_on_c, 0, 37, 27
1, 118095, Control_c, 0, 64, 0
1, 118278, Control_c, 0, 64, 127
1, 118320, Note_on_c, 0, 37, 0
1, 118320, Note_on_c, 0, 44, 25
1, 118560, Note_on_c, 0, 44, 0
1, 118560, Note_on_c, 0, 73, 0
1, 118560, Note_on_c, 0, 53, 25
1, 118800, Tempo, 1077199
1, 118800, Note_on_c, 0, 53, 0
1, 118800, Note_on_c, 0, 61, 25
1, 119040, Tempo, 1028630
1, 119040, Note_on_c, 0, 61, 0
1, 119040, Note_on_c, 0, 72, 56
1, 119040, Note_on_c, 0, 32, 34
1, 119056, Control_c, 0, 64, 0
1, 119224, Control_c, 0, 64, 127
1, 119280, Tempo, 967586
1, 119280, Note_on_c, 0, 32, 0
1, 119280, Note_on_c, 0, 44, 28
1, 119520, Tempo, 975927
1, 119520, Note_on_c, 0, 44, 0
1, 119520, Note_on_c, 0, 51, 28
1, 119760, Tempo, 992884
1, 119760, Note_on_c, 0, 51, 0
1, 119760, Note_on_c, 0, 60, 29
1, 120000, Note_on_c, 0, 60, 0
1, 120000, Note_on_c, 0, 72, 0
1, 120000, Note_on_c, 0, 73, 52
1, 120000, Note_on_c, 0, 32, 34
1, 120240, Tempo, 951475
1, 120240, Note_on_c, 0, 32, 0
1, 120240, Note_on_c, 0, 73, 0
1, 120240, Note_on_c, 0, 72, 48
1, 120240, Note_on_c, 0, 44, 28
1, 120480, Note_on_c, 0, 44, 0
1, 120480, Note_on_c, 0, 72, 0
1, 120480, Note_on_c, 0, 70, 52
1, 120480, Note_on_c, 0, 51, 28
1, 120720, Tempo, 984252
1, 120720, Note_on_c, 0, 51, 0
1, 120720, Note_on_c, 0, 70, 0
1, 120720, Note_on_c, 0, 68, 48
1, 120720, Note_on_c, 0, 60, 29
1, 120960, Tempo, 984252
1, 120960, Note_on_c, 0, 60, 0
1, 120960, Note_on_c, 0, 68, 0
1, 120960, Note_on_c, 0, 67, 52
1, 120960, Note_on_c, 0, 34, 34
1, 120972, Control_c, 0, 64, 0
1, 121087, Control_c, 0, 64, 127
1, 121200, Note_on_c, 0, 34, 0
1, 121200, Note_on_c, 0, 46, 28
1, 121320, Tempo, 1028630
1, 121440, Tempo, 984252
1, 121440, Note_on_c, 0, 46, 0
1, 121440, Note_on_c, 0, 67, 0
1, 121440, Note_on_c, 0, 77, 56
1, 121440, Note_on_c, 0, 51, 25
1, 121680, Note_on_c, 0, 51, 0
1, 121680, Note_on_c, 0, 61, 25
1, 121920, Note_on_c, 0, 61, 0
1, 121920, Note_on_c, 0, 77, 0
1, 121920, Note_on_c, 0, 75, 54
1, 121920, Note_on_c, 0, 34, 32
1, 122160, Tempo, 959539
1, 122160, Note_on_c, 0, 34, 0
1, 122160, Note_on_c, 0, 46, 25
1, 122400, Note_on_c, 0, 46, 0
1, 122400, Note_on_c, 0, 51, 28
1, 122640, Tempo, 992884
1, 122640, Note_on_c, 0, 51, 0
1, 122640, Note_on_c, 0, 61, 26
1, 122680, Tempo, 1019368
1, 122880, Note_on_c, 0, 61, 0
1, 122880, Note_on_c, 0, 75, 0
1, 122880, Note_on_c, 0, 73, 55
1, 122880, Note_on_c, 0, 34, 36
1, 122894, Control_c, 0, 64, 0
1, 123064, Control_c, 0, 64, 127
1, 123120, Tempo, 967586
1, 123120, Note_on_c, 0, 34, 0
1, 123120, Note_on_c, 0, 46, 31
1, 123360, Note_on_c, 0, 46, 0
1, 123360, Note_on_c, 0, 52, 31
1, 123600, Tempo, 984252
1, 123600, Note_on_c, 0, 52, 0
1, 123600, Note_on_c, 0, 61, 33
1, 123840, Note_on_c, 0, 61, 0
1, 123840, Note_on_c, 0, 73, 0
1, 123840, Note_on_c, 0, 75, 55
1, 123840, Note_on_c, 0, 34, 39
1, 124080, Tempo, 913381
1, 124080, Note_on_c, 0, 34, 0
1, 124080, Note_on_c, 0, 75, 0
1, 124080, Note_on_c, 0, 73, 50
1, 124080, Note_on_c, 0, 46, 33
1, 124120, Tempo, 928218
1, 124320, Tempo, 951475
1, 124320, Note_on_c, 0, 46, 0
1, 124320, Note_on_c, 0, 73, 0
1, 124320, Note_on_c, 0, 72, 55
1, 124320, Note_on_c, 0, 52, 33
1, 124560, Tempo, 992884
1, 124560, Note_on_c, 0, 52, 0
1, 124560, Note_on_c, 0, 72, 0
1, 124560, Note_on_c, 0, 70, 51
1, 124560, Note_on_c, 0, 61, 34
1, 124800, Tempo, 992884
1, 124800, Note_on_c, 0, 61, 0
1, 124800, Note_on_c, 0, 70, 0
1, 124800, Note_on_c, 0, 69, 55
1, 124800, Note_on_c, 0, 36, 40
1, 124809, Control_c, 0, 64, 0
1, 124941, Control_c, 0, 64, 127
1, 125040, Note_on_c, 0, 36, 0
1, 125040, Note_on_c, 0, 48, 33
1, 125080, Tempo, 943545
1, 125280, Tempo, 992884
1, 125280, Note_on_c, 0, 48, 0
1, 125280, Note_on_c, 0, 69, 0
1, 125280, Note_on_c, 0, 78, 59
1, 125280, Note_on_c, 0, 54, 31
1, 125520, Note_on_c, 0, 54, 0
1, 125520, Note_on_c, 0, 63, 28
1, 125640, Tempo, 1047486
1, 125760, Tempo, 992884
1, 125760, Note_on_c, 0, 63, 0
1, 125760, Note_on_c, 0, 78, 0
1, 125760, Note_on_c, 0, 77, 55
1, 125760, Note_on_c, 0, 36, 37
1, 125775, Control_c, 0, 64, 0
1, 125800, Tempo, 1019368
1, 125972, Control_c, 0, 64, 127
1, 126000, Tempo, 951475
1, 126000, Note_on_c, 0, 36, 0
1, 126000, Note_on_c, 0, 48, 30
1, 126240, Note_on_c, 0, 48, 0
1, 126240, Note_on_c, 0, 51, 33
1, 126480, Tempo, 1010441
1, 126480, Note_on_c, 0, 51, 0
1, 126480, Note_on_c, 0, 63, 30
1, 126720, Tempo, 984252
1, 126720, Note_on_c, 0, 63, 0
1, 126720, Note_on_c, 0, 77, 0
1, 126720, Note_on_c, 0, 77, 59
1, 126720, Note_on_c, 0, 37, 37
1, 126734, Control_c, 0, 64, 0
1, 126857, Control_c, 0, 64, 127
1, 126960, Tempo, 959539
1, 126960, Note_on_c, 0, 37, 0
1, 126960, Note_on_c, 0, 49, 31
1, 127200, Tempo, 951475
1, 127200, Note_on_c, 0, 49, 0
1, 127200, Note_on_c, 0, 58, 34
1, 127440, Tempo, 984252
1, 127440, Note_on_c, 0, 58, 0
1, 127440, Note_on_c, 0, 65, 32
1, 127680, Tempo, 959539
1, 127680, Note_on_c, 0, 65, 0
1, 127680, Note_on_c, 0, 77, 0
1, 127680, Note_on_c, 0, 78, 58
1, 127680, Note_on_c, 0, 37, 37
1, 127697, Control_c, 0, 64, 0
1, 127874, Control_c, 0, 64, 127
1, 127920, Tempo, 959539
1, 127920, Note_on_c, 0, 37, 0
1, 127920, Note_on_c, 0, 78, 0
1, 127920, Note_on_c, 0, 77, 52
1, 127920, Note_on_c, 0, 49, 33
1, 128160, Note_on_c, 0, 49, 0
1, 128160, Note_on_c, 0, 77, 0
1, 128160, Note_on_c, 0, 75, 57
1, 128160, Note_on_c, 0, 58, 33
1, 128400, Tempo, 984252
1, 128400, Note_on_c, 0, 58, 0
1, 128400, Note_on_c, 0, 75, 0
1, 128400, Note_on_c, 0, 73, 52
1, 128400, Note_on_c, 0, 65, 34
1, 128635, Note_on_c, 0, 73, 0
1, 128640, Note_on_c, 0, 65, 0
1, 128640, Note_on_c, 0, 73, 59
1, 128640, Note_on_c, 0, 39, 40
1, 128651, Control_c, 0, 64, 0
1, 128696, Control_c, 0, 64, 127
1, 128880, Tempo, 928218
1, 128880, Note_on_c, 0, 39, 0
1, 128880, Note_on_c, 0, 51, 35
1, 129120, Tempo, 959539
1, 129120, Note_on_c, 0, 51, 0
1, 129120, Note_on_c, 0, 73, 0
1, 129120, Note_on_c, 0, 72, 57
1, 129120, Note_on_c, 0, 58, 37
1, 129360, Note_on_c, 0, 58, 0
1, 129360, Note_on_c, 0, 66, 33
1, 129600, Note_on_c, 0, 66, 0
1, 129600, Note_on_c, 0, 72, 0
1, 129600, Note_on_c, 0, 41, 41
1, 129616, Control_c, 0, 64, 0
1, 129688, Control_c, 0, 64, 127
1, 129840, Note_on_c, 0, 41, 0
1, 129840, Note_on_c, 0, 72, 56
1, 129840, Note_on_c, 0, 53, 35
1, 130050, Note_on_c, 0, 72, 0
1, 130050, Note_on_c, 0, 75, 55
1, 130080, Note_on_c, 0, 75, 0
1, 130080, Note_on_c, 0, 53, 0
1, 130080, Note_on_c, 0, 73, 59
1, 130080, Note_on_c, 0, 58, 37
1, 130320, Tempo, 984252
1, 130320, Note_on_c, 0, 58, 0
1, 130320, Note_on_c, 0, 65, 35
1, 130440, Note_on_c, 0, 73, 0
1, 130440, Note_on_c, 0, 72, 58
1, 130553, Note_on_c, 0, 72, 0
1, 130560, Note_on_c, 0, 65, 0
1, 130560, Note_on_c, 0, 72, 59
1, 130560, Note_on_c, 0, 42, 40
1, 130571, Control_c, 0, 64, 0
1, 130616, Control_c, 0, 64, 127
1, 130800, Tempo, 928218
1, 130800, Note_on_c, 0, 42, 0
1, 130800, Note_on_c, 0, 51, 34
1, 131040, Tempo, 975927
1, 131040, Note_on_c, 0, 51, 0
1, 131040, Note_on_c, 0, 72, 0
1, 131040, Note_on_c, 0, 70, 56
1, 131040, Note_on_c, 0, 58, 37
1, 131280, Tempo, 935891
1, 131280, Note_on_c, 0, 58, 0
1, 131280, Note_on_c, 0, 63, 33
1, 131520, Tempo, 975927
1, 131520, Note_on_c, 0, 63, 0
1, 131520, Note_on_c, 0, 70, 0
1, 131520, Note_on_c, 0, 42, 38
1, 131536, Control_c, 0, 64, 0
1, 131608, Control_c, 0, 64, 127
1, 131760, Note_on_c, 0, 42, 0
1, 131760, Note_on_c, 0, 72, 56
1, 131760, Note_on_c, 0, 54, 34
1, 131970, Note_on_c, 0, 72, 0
1, 131970, Note_on_c, 0, 75, 59
1, 132000, Note_on_c, 0, 75, 0
1, 132000, Note_on_c, 0, 54, 0
1, 132000, Note_on_c, 0, 73, 59
1, 132000, Note_on_c, 0, 58, 37
1, 132240, Note_on_c, 0, 58, 0
1, 132240, Note_on_c, 0, 64, 34
1, 132360, Note_on_c, 0, 73, 0
1, 132360, Note_on_c, 0, 72, 56
1, 132473, Note_on_c, 0, 72, 0
1, 132480, Note_on_c, 0, 64, 0
1, 132480, Note_on_c, 0, 72, 50
1, 132480, Note_on_c, 0, 41, 36
1, 132492, Control_c, 0, 64, 0
1, 132583, Control_c, 0, 64, 127
1, 132720, Note_on_c, 0, 41, 0
1, 132720, Note_on_c, 0, 48, 32
1, 132960, Tempo, 975927
1, 132960, Note_on_c, 0, 48, 0
1, 132960, Note_on_c, 0, 72, 0
1, 132960, Note_on_c, 0, 77, 55
1, 132960, Note_on_c, 0, 57, 32
1, 133160, Tempo, 984252
1, 133200, Note_on_c, 0, 57, 0
1, 133200, Note_on_c, 0, 65, 31
1, 133360, Tempo, 992884
1, 133440, Tempo, 1008403
1, 133440, Note_on_c, 0, 65, 0
1, 133440, Note_on_c, 0, 77, 0
1, 133440, Note_on_c, 0, 78, 54
1, 133440, Note_on_c, 0, 39, 35
1, 133451, Control_c, 0, 64, 0
1, 133531, Control_c, 0, 64, 127
1, 133560, Tempo, 1016949
1, 133680, Tempo, 1025641
1, 133680, Note_on_c, 0, 39, 0
1, 133680, Note_on_c, 0, 51, 33
1, 133800, Tempo, 1034483
1, 133880, Tempo, 1043478
1, 133920, Tempo, 1100917
1, 133920, Note_on_c, 0, 51, 0
1, 133920, Note_on_c, 0, 78, 0
1, 133920, Note_on_c, 0, 68, 45
1, 133920, Note_on_c, 0, 56, 27
1, 134160, Tempo, 1153846
1, 134160, Note_on_c, 0, 56, 0
1, 134160, Note_on_c, 0, 66, 26
1, 134160, Note_on_c, 0, 60, 22
1, 134400, Note_on_c, 0, 60, 0
1, 134400, Note_on_c, 0, 66, 0
1, 134400, Note_on_c, 0, 68, 0
1, 134400, Note_on_c, 0, 77, 54
1, 134400, Note_on_c, 0, 37, 33
1, 134414, Control_c, 0, 64, 0
1, 134440, Tempo, 1028630
1, 134513, Control_c, 0, 64, 127
1, 134640, Tempo, 967586
1, 134640, Note_on_c, 0, 37, 0
1, 134640, Note_on_c, 0, 44, 27
1, 134880, Tempo, 975927
1, 134880, Note_on_c, 0, 44, 0
1, 134880, Note_on_c, 0, 53, 27
1, 135120, Tempo, 992884
1, 135120, Note_on_c, 0, 53, 0
1, 135120, Note_on_c, 0, 61, 28
1, 135360, Note_on_c, 0, 61, 0
1, 135360, Note_on_c, 0, 77, 0
1, 135360, Note_on_c, 0, 78, 50
1, 135360, Note_on_c, 0, 37, 33
1, 135600, Tempo, 951475
1, 135600, Note_on_c, 0, 37, 0
1, 135600, Note_on_c, 0, 78, 0
1, 135600, Note_on_c, 0, 77, 46
1, 135600, Note_on_c, 0, 44, 27
1, 135840, Note_on_c, 0, 44, 0
1, 135840, Note_on_c, 0, 77, 0
1, 135840, Note_on_c, 0, 75, 50
1, 135840, Note_on_c, 0, 53, 27
1, 136080, Tempo, 984252
1, 136080, Note_on_c, 0, 53, 0
1, 136080, Note_on_c, 0, 75, 0
1, 136080, Note_on_c, 0, 73, 46
1, 136080, Note_on_c, 0, 61, 28
1, 136320, Tempo, 984252
1, 136320, Note_on_c, 0, 61, 0
1, 136320, Note_on_c, 0, 73, 0
1, 136320, Note_on_c, 0, 72, 50
1, 136320, Note_on_c, 0, 39, 33
1, 136332, Control_c, 0, 64, 0
1, 136447, Control_c, 0, 64, 127
1, 136560, Note_on_c, 0, 39, 0
1, 136560, Note_on_c, 0, 44, 27
1, 136680, Tempo, 1028630
1, 136800, Tempo, 984252
1, 136800, Note_on_c, 0, 44, 0
1, 136800, Note_on_c, 0, 72, 0
1, 136800, Note_on_c, 0, 82, 54
1, 136800, Note_on_c, 0, 54, 24
1, 137040, Note_on_c, 0, 54, 0
1, 137040, Note_on_c, 0, 60, 24
1, 137280, Note_on_c, 0, 60, 0
1, 137280, Note_on_c, 0, 82, 0
1, 137280, Note_on_c, 0, 80, 52
1, 137280, Note_on_c, 0, 39, 31
1, 137520, Tempo, 959539
1, 137520, Note_on_c, 0, 39, 0
1, 137520, Note_on_c, 0, 44, 24
1, 137760, Note_on_c, 0, 44, 0
1, 137760, Note_on_c, 0, 54, 27
1, 138000, Tempo, 992884
1, 138000, Note_on_c, 0, 54, 0
1, 138000, Note_on_c, 0, 60, 25
1, 138040, Tempo, 1019368
1, 138240, Note_on_c, 0, 60, 0
1, 138240, Note_on_c, 0, 80, 0
1, 138240, Note_on_c, 0, 78, 51
1, 138240, Note_on_c, 0, 32, 33
1, 138254, Control_c, 0, 64, 0
1, 138424, Control_c, 0, 64, 127
1, 138480, Tempo, 967586
1, 138480, Note_on_c, 0, 32, 0
1, 138480, Note_on_c, 0, 44, 29
1, 138720, Note_on_c, 0, 44, 0
1, 138720, Note_on_c, 0, 54, 29
1, 138960, Tempo, 984252
1, 138960, Note_on_c, 0, 54, 0
1, 138960, Note_on_c, 0, 60, 30
1, 139200, Note_on_c, 0, 60, 0
1, 139200, Note_on_c, 0, 78, 0
1, 139200, Note_on_c, 0, 80, 50
1, 139200, Note_on_c, 0, 32, 36
1, 139440, Tempo, 951475
1, 139440, Note_on_c, 0, 32, 0
1, 139440, Note_on_c, 0, 80, 0
1, 139440, Note_on_c, 0, 78, 46
1, 139440, Note_on_c, 0, 44, 30
1, 139680, Note_on_c, 0, 44, 0
1, 139680, Note_on_c, 0, 78, 0
1, 139680, Note_on_c, 0, 77, 50
1, 139680, Note_on_c, 0, 54, 30
1, 139920, Tempo, 992884
1, 139920, Note_on_c, 0, 54, 0
1, 139920, Note_on_c, 0, 77, 0
1, 139920, Note_on_c, 0, 75, 46
1, 139920, Note_on_c, 0, 60, 31
1, 140160, Tempo, 992884
1, 140160, Note_on_c, 0, 60, 0
1, 140160, Note_on_c, 0, 75, 0
1, 140160, Note_on_c, 0, 73, 50
1, 140160, Note_on_c, 0, 37, 36
1, 140171, Control_c, 0, 64, 0
1, 140301, Control_c, 0, 64, 127
1, 140400, Note_on_c, 0, 37, 0
1, 140400, Note_on_c, 0, 44, 30
1, 140640, Note_on_c, 0, 44, 0
1, 140640, Note_on_c, 0, 73, 0
1, 140640, Note_on_c, 0, 85, 53
1, 140640, Note_on_c, 0, 53, 28
1, 140880, Note_on_c, 0, 53, 0
1, 140880, Note_on_c, 0, 61, 25
1, 141000, Tempo, 1047486
1, 141120, Tempo, 992884
1, 141120, Note_on_c, 0, 61, 0
1, 141120, Note_on_c, 0, 85, 0
1, 141120, Note_on_c, 0, 80, 49
1, 141120, Note_on_c, 0, 37, 33
1, 141160, Tempo, 1019368
1, 141360, Tempo, 951475
1, 141360, Note_on_c, 0, 37, 0
1, 141360, Note_on_c, 0, 44, 27
1, 141600, Note_on_c, 0, 44, 0
1, 141600, Note_on_c, 0, 53, 29
1, 141840, Tempo, 1010441
1, 141840, Note_on_c, 0, 53, 0
1, 141840, Note_on_c, 0, 61, 27
1, 142080, Tempo, 984252
1, 142080, Note_on_c, 0, 61, 0
1, 142080, Note_on_c, 0, 80, 0
1, 142080, Note_on_c, 0, 77, 52
1, 142080, Note_on_c, 0, 37, 33
1, 142088, Control_c, 0, 64, 0
1, 142217, Control_c, 0, 64, 127
1, 142320, Tempo, 959539
1, 142320, Note_on_c, 0, 37, 0
1, 142320, Note_on_c, 0, 44, 27
1, 142560, Tempo, 984252
1, 142560, Note_on_c, 0, 44, 0
1, 142560, Note_on_c, 0, 53, 30
1, 142800, Note_on_c, 0, 53, 0
1, 142800, Note_on_c, 0, 61, 28
1, 143040, Tempo, 959539
1, 143040, Note_on_c, 0, 61, 0
1, 143040, Note_on_c, 0, 77, 0
1, 143040, Note_on_c, 0, 78, 51
1, 143040, Note_on_c, 0, 34, 33
1, 143057, Control_c, 0, 64, 0
1, 143234, Control_c, 0, 64, 127
1, 143280, Note_on_c, 0, 34, 0
1, 143280, Note_on_c, 0, 78, 0
1, 143280, Note_on_c, 0, 77, 46
1, 143280, Note_on_c, 0, 46, 29
1, 143520, Note_on_c, 0, 46, 0
1, 143520, Note_on_c, 0, 77, 0
1, 143520, Note_on_c, 0, 75, 50
1, 143520, Note_on_c, 0, 56, 29
1, 143760, Tempo, 1077199
1, 143760, Note_on_c, 0, 56, 0
1, 143760, Note_on_c, 0, 75, 0
1, 143760, Note_on_c, 0, 74, 46
1, 143760, Note_on_c, 0, 62, 30
1, 143880, Tempo, 804074
1, 143880, Note_on_c, 0, 74, 0
1, 143880, Note_on_c, 0, 75, 46
1, 143940, Note_on_c, 0, 75, 0
1, 143940, Note_on_c, 0, 77, 42
1, 144000, Tempo, 951475
1, 144000, Note_on_c, 0, 77, 0
1, 144000, Note_on_c, 0, 62, 0
1, 144000, Note_on_c, 0, 75, 53
1, 144000, Note_on_c, 0, 39, 33
1, 144010, Control_c, 0, 64, 0
1, 144040, Tempo, 935891
1, 144083, Control_c, 0, 64, 127
1, 144240, Note_on_c, 0, 39, 0
1, 144240, Note_on_c, 0, 75, 0
1, 144240, Note_on_c, 0, 74, 51
1, 144240, Note_on_c, 0, 46, 30
1, 144480, Note_on_c, 0, 46, 0
1, 144480, Note_on_c, 0, 74, 0
1, 144480, Note_on_c, 0, 75, 54
1, 144480, Note_on_c, 0, 54, 30
1, 144720, Tempo, 951475
1, 144720, Note_on_c, 0, 54, 0
1, 144720, Note_on_c, 0, 75, 0
1, 144720, Note_on_c, 0, 77, 55
1, 144720, Note_on_c, 0, 63, 27
1, 144960, Note_on_c, 0, 63, 0
1, 144960, Note_on_c, 0, 77, 0
1, 144960, Note_on_c, 0, 78, 57
1, 144960, Note_on_c, 0, 42, 33
1, 144971, Control_c, 0, 64, 0
1, 145000, Tempo, 951475
1, 145037, Control_c, 0, 64, 127
1, 145200, Note_on_c, 0, 42, 0
1, 145200, Note_on_c, 0, 78, 0
1, 145200, Note_on_c, 0, 70, 52
1, 145200, Note_on_c, 0, 51, 29
1, 145440, Tempo, 992884
1, 145440, Note_on_c, 0, 51, 0
1, 145440, Note_on_c, 0, 70, 0
1, 145440, Note_on_c, 0, 77, 57
1, 145440, Note_on_c, 0, 58, 30
1, 145680, Tempo, 1165049
1, 145680, Note_on_c, 0, 58, 0
1, 145680, Note_on_c, 0, 77, 0
1, 145680, Note_on_c, 0, 75, 50
1, 145680, Note_on_c, 0, 63, 27
1, 145800, Tempo, 821355
1, 145800, Note_on_c, 0, 63, 0
1, 145800, Note_on_c, 0, 75, 0
1, 145800, Note_on_c, 0, 72, 39
1, 145818, Control_c, 0, 64, 0
1, 145846, Control_c, 0, 64, 127
1, 145860, Note_on_c, 0, 72, 0
1, 145860, Note_on_c, 0, 73, 39
1, 145920, Tempo, 1001502
1, 145920, Note_on_c, 0, 73, 0
1, 145920, Note_on_c, 0, 73, 39
1, 145920, Note_on_c, 0, 43, 33
1, 145965, Note_on_c, 0, 73, 0
1, 145965, Note_on_c, 0, 75, 36
1, 146010, Note_on_c, 0, 75, 0
1, 146010, Note_on_c, 0, 73, 40
1, 146040, Tempo, 992884
1, 146055, Note_on_c, 0, 73, 0
1, 146055, Note_on_c, 0, 75, 37
1, 146100, Note_on_c, 0, 75, 0
1, 146100, Note_on_c, 0, 73, 42
1, 146120, Tempo, 984252
1, 146145, Note_on_c, 0, 73, 0
1, 146145, Note_on_c, 0, 75, 38
1, 146160, Note_on_c, 0, 43, 0
1, 146160, Note_on_c, 0, 52, 28
1, 146190, Note_on_c, 0, 75, 0
1, 146190, Note_on_c, 0, 73, 44
1, 146200, Tempo, 975927
1, 146235, Note_on_c, 0, 73, 0
1, 146235, Note_on_c, 0, 75, 39
1, 146280, Tempo, 967586
1, 146280, Note_on_c, 0, 75, 0
1, 146280, Note_on_c, 0, 73, 46
1, 146325, Note_on_c, 0, 73, 0
1, 146325, Note_on_c, 0, 75, 42
1, 146360, Tempo, 959539
1, 146370, Note_on_c, 0, 75, 0
1, 146370, Note_on_c, 0, 73, 48
1, 146400, Note_on_c, 0, 52, 0
1, 146400, Note_on_c, 0, 61, 28
1, 146415, Note_on_c, 0, 73, 0
1, 146415, Note_on_c, 0, 75, 42
1, 146440, Tempo, 951475
1, 146460, Note_on_c, 0, 75, 0
1, 146460, Note_on_c, 0, 73, 47
1, 146480, Tempo, 959539
1, 146505, Note_on_c, 0, 73, 0
1, 146506, Note_on_c, 0, 75, 40
1, 146520, Tempo, 967586
1, 146550, Note_on_c, 0, 73, 44
1, 146551, Note_on_c, 0, 75, 0
1, 146560, Tempo, 975927
1, 146595, Note_on_c, 0, 73, 0
1, 146595, Note_on_c, 0, 75, 38
1, 146600, Tempo, 984252
1, 146640, Tempo, 992884
1, 146640, Note_on_c, 0, 61, 0
1, 146640, Note_on_c, 0, 73, 42
1, 146640, Note_on_c, 0, 70, 29
1, 146641, Note_on_c, 0, 75, 0
1, 146660, Tempo, 1001502
1, 146680, Tempo, 1019368
1, 146700, Tempo, 1038062
1, 146700, Note_on_c, 0, 73, 0
1, 146700, Note_on_c, 0, 75, 37
1, 146720, Tempo, 1057269
1, 146740, Tempo, 1087350
1, 146760, Tempo, 1108443
1, 146760, Note_on_c, 0, 75, 0
1, 146760, Note_on_c, 0, 72, 40
1, 146780, Tempo, 1130582
1, 146800, Tempo, 1153403
1, 146820, Tempo, 1189296
1, 146820, Note_on_c, 0, 72, 0
1, 146820, Note_on_c, 0, 73, 35
1, 146840, Tempo, 1038062
1, 146880, Tempo, 984252
1, 146880, Note_on_c, 0, 73, 0
1, 146880, Note_on_c, 0, 70, 0
1, 146880, Note_on_c, 0, 82, 54
1, 146880, Note_on_c, 0, 44, 33
1, 146895, Control_c, 0, 64, 0
1, 146940, Control_c, 0, 64, 127
1, 147120, Note_on_c, 0, 44, 0
1, 147120, Note_on_c, 0, 82, 0
1, 147120, Note_on_c, 0, 80, 50
1, 147120, Note_on_c, 0, 51, 28
1, 147360, Tempo, 1010441
1, 147360, Note_on_c, 0, 51, 0
1, 147360, Note_on_c, 0, 80, 0
1, 147360, Note_on_c, 0, 78, 52
1, 147360, Note_on_c, 0, 60, 30
1, 147600, Note_on_c, 0, 60, 0
1, 147600, Note_on_c, 0, 78, 0
1, 147600, Note_on_c, 0, 68, 50
1, 147600, Note_on_c, 0, 66, 30
1, 147840, Note_on_c, 0, 66, 0
1, 147840, Note_on_c, 0, 68, 0
1, 147840, Note_on_c, 0, 75, 54
1, 147840, Note_on_c, 0, 32, 33
1, 147856, Control_c, 0, 64, 0
1, 148038, Control_c, 0, 64, 127
1, 148080, Tempo, 984252
1, 148080, Note_on_c, 0, 32, 0
1, 148080, Note_on_c, 0, 44, 27
1, 148320, Tempo, 1038062
1, 148320, Note_on_c, 0, 44, 0
1, 148320, Note_on_c, 0, 54, 27
1, 148560, Tempo, 1077199
1, 148560, Note_on_c, 0, 54, 0
1, 148560, Note_on_c, 0, 60, 23
1, 148800, Note_on_c, 0, 60, 0
1, 148800, Note_on_c, 0, 75, 0
1, 148800, Note_on_c, 0, 73, 45
1, 148800, Note_on_c, 0, 49, 23
1, 148800, Note_on_c, 0, 53, 23
1, 148800, Note_on_c, 0, 61, 27
1, 148815, Control_c, 0, 64, 0
1, 149280, Note_on_c, 0, 61, 0
1, 149280, Note_on_c, 0, 73, 0
1, 149280, Note_on_c, 0, 49, 0
1, 149280, Note_on_c, 0, 53, 0
1, 149520, Tempo, 1077199
1, 149760, Tempo, 1044386
1, 149760, Note_on_c, 0, 53, 34
1, 149760, Note_on_c, 0, 58, 40
1, 149760, Note_on_c, 0, 34, 28
1, 149760, Note_on_c, 0, 41, 28
1, 149760, Note_on_c, 0, 46, 34
1, 149795, Control_c, 0, 64, 127
1, 150240, Tempo, 1083032
1, 150240, Note_on_c, 0, 46, 0
1, 150240, Note_on_c, 0, 34, 0
1, 150240, Note_on_c, 0, 53, 0
1, 150240, Note_on_c, 0, 58, 0
1, 150240, Note_on_c, 0, 41, 0
1, 150240, Note_on_c, 0, 54, 34
1, 150240, Note_on_c, 0, 58, 40
1, 150240, Note_on_c, 0, 37, 25
1, 150240, Note_on_c, 0, 42, 25
1, 150240, Note_on_c, 0, 49, 30
1, 150259, Control_c, 0, 64, 0
1, 150388, Control_c, 0, 64, 127
1, 150600, Note_on_c, 0, 58, 0
1, 150600, Note_on_c, 0, 58, 36
1, 150708, Note_on_c, 0, 58, 0
1, 150720, Tempo, 1075076
1, 150720, Note_on_c, 0, 49, 0
1, 150720, Note_on_c, 0, 54, 0
1, 150720, Note_on_c, 0, 37, 0
1, 150720, Note_on_c, 0, 42, 0
1, 150720, Note_on_c, 0, 53, 34
1, 150720, Note_on_c, 0, 58, 40
1, 150720, Note_on_c, 0, 34, 28
1, 150720, Note_on_c, 0, 41, 28
1, 150720, Note_on_c, 0, 46, 34
1, 150732, Control_c, 0, 64, 0
1, 150889, Control_c, 0, 64, 127
1, 151200, Tempo, 1083032
1, 151200, Note_on_c, 0, 46, 0
1, 151200, Note_on_c, 0, 34, 0
1, 151200, Note_on_c, 0, 41, 0
1, 151200, Note_on_c, 0, 53, 0
1, 151200, Note_on_c, 0, 54, 28
1, 151200, Note_on_c, 0, 37, 23
1, 151200, Note_on_c, 0, 42, 23
1, 151200, Note_on_c, 0, 49, 28
1, 151216, Control_c, 0, 64, 0
1, 151369, Control_c, 0, 64, 127
1, 151680, Tempo, 1044386
1, 151680, Note_on_c, 0, 49, 0
1, 151680, Note_on_c, 0, 37, 0
1, 151680, Note_on_c, 0, 58, 0
1, 151680, Note_on_c, 0, 54, 0
1, 151680, Note_on_c, 0, 42, 0
1, 151680, Note_on_c, 0, 53, 34
1, 151680, Note_on_c, 0, 58, 40
1, 151680, Note_on_c, 0, 34, 28
1, 151680, Note_on_c, 0, 41, 28
1, 151680, Note_on_c, 0, 46, 34
1, 151689, Control_c, 0, 64, 0
1, 151807, Control_c, 0, 64, 127
1, 152160, Tempo, 1091107
1, 152160, Note_on_c, 0, 46, 0
1, 152160, Note_on_c, 0, 34, 0
1, 152160, Note_on_c, 0, 53, 0
1, 152160, Note_on_c, 0, 58, 0
1, 152160, Note_on_c, 0, 41, 0
1, 152160, Note_on_c, 0, 54, 34
1, 152160, Note_on_c, 0, 58, 40
1, 152160, Note_on_c, 0, 37, 25
1, 152160, Note_on_c, 0, 42, 25
1, 152160, Note_on_c, 0, 49, 30
1, 152175, Control_c, 0, 64, 0
1, 152372, Control_c, 0, 64, 127
1, 152520, Note_on_c, 0, 58, 0
1, 152520, Note_on_c, 0, 58, 36
1, 152628, Note_on_c, 0, 58, 0
1, 152640, Tempo, 1075076
1, 152640, Note_on_c, 0, 49, 0
1, 152640, Note_on_c, 0, 54, 0
1, 152640, Note_on_c, 0, 37, 0
1, 152640, Note_on_c, 0, 42, 0
1, 152640, Note_on_c, 0, 53, 34
1, 152640, Note_on_c, 0, 58, 40
1, 152640, Note_on_c, 0, 34, 28
1, 152640, Note_on_c, 0, 41, 28
1, 152640, Note_on_c, 0, 46, 34
1, 152659, Control_c, 0, 64, 0
1, 152831, Control_c, 0, 64, 127
1, 153120, Tempo, 1075076
1, 153120, Note_on_c, 0, 46, 0
1, 153120, Note_on_c, 0, 34, 0
1, 153120, Note_on_c, 0, 41, 0
1, 153120, Note_on_c, 0, 53, 0
1, 153120, Note_on_c, 0, 54, 28
1, 153120, Note_on_c, 0, 37, 22
1, 153120, Note_on_c, 0, 42, 22
1, 153120, Note_on_c, 0, 49, 27
1, 153139, Control_c, 0, 64, 0
1, 153318, Control_c, 0, 64, 127
1, 153600, Tempo, 1044386
1, 153600, Note_on_c, 0, 49, 0
1, 153600, Note_on_c, 0, 37, 0
1, 153600, Note_on_c, 0, 58, 0
1, 153600, Note_on_c, 0, 54, 0
1, 153600, Note_on_c, 0, 42, 0
1, 153600, Note_on_c, 0, 53, 34
1, 153600, Note_on_c, 0, 58, 40
1, 153600, Note_on_c, 0, 34, 28
1, 153600, Note_on_c, 0, 41, 28
1, 153600, Note_on_c, 0, 46, 34
1, 153612, Control_c, 0, 64, 0
1, 153720, Control_c, 0, 64, 127
1, 154080, Tempo, 1075076
1, 154080, Note_on_c, 0, 46, 0
1, 154080, Note_on_c, 0, 34, 0
1, 154080, Note_on_c, 0, 53, 0
1, 154080, Note_on_c, 0, 58, 0
1, 154080, Note_on_c, 0, 41, 0
1, 154080, Note_on_c, 0, 54, 34
1, 154080, Note_on_c, 0, 58, 40
1, 154080, Note_on_c, 0, 37, 25
1, 154080, Note_on_c, 0, 42, 30
1, 154080, Note_on_c, 0, 49, 30
1, 154095, Control_c, 0, 64, 0
1, 154264, Control_c, 0, 64, 127
1, 154440, Note_on_c, 0, 58, 0
1, 154440, Note_on_c, 0, 58, 36
1, 154548, Note_on_c, 0, 58, 0
1, 154560, Tempo, 1067236
1, 154560, Note_on_c, 0, 49, 0
1, 154560, Note_on_c, 0, 54, 0
1, 154560, Note_on_c, 0, 37, 0
1, 154560, Note_on_c, 0, 42, 0
1, 154560, Note_on_c, 0, 53, 34
1, 154560, Note_on_c, 0, 58, 40
1, 154560, Note_on_c, 0, 34, 28
1, 154560, Note_on_c, 0, 41, 28
1, 154560, Note_on_c, 0, 46, 34
1, 154578, Control_c, 0, 64, 0
1, 154786, Control_c, 0, 64, 127
1, 155040, Tempo, 1044386
1, 155040, Note_on_c, 0, 46, 0
1, 155040, Note_on_c, 0, 34, 0
1, 155040, Note_on_c, 0, 53, 0
1, 155040, Note_on_c, 0, 58, 0
1, 155040, Note_on_c, 0, 41, 0
1, 155040, Note_on_c, 0, 61, 49
1, 155040, Note_on_c, 0, 54, 39
1, 155040, Note_on_c, 0, 37, 22
1, 155040, Note_on_c, 0, 42, 27
1, 155040, Note_on_c, 0, 49, 27
1, 155058, Control_c, 0, 64, 0
1, 155181, Control_c, 0, 64, 127
1, 155400, Note_on_c, 0, 61, 0
1, 155400, Note_on_c, 0, 60, 45
1, 155508, Note_on_c, 0, 60, 0
1, 155520, Note_on_c, 0, 49, 0
1, 155520, Note_on_c, 0, 54, 0
1, 155520, Note_on_c, 0, 37, 0
1, 155520, Note_on_c, 0, 42, 0
1, 155520, Note_on_c, 0, 60, 48
1, 155520, Note_on_c, 0, 53, 39
1, 155520, Note_on_c, 0, 34, 28
1, 155520, Note_on_c, 0, 41, 28
1, 155520, Note_on_c, 0, 46, 34
1, 155531, Control_c, 0, 64, 0
1, 155598, Control_c, 0, 64, 127
1, 155880, Note_on_c, 0, 60, 0
1, 155880, Note_on_c, 0, 58, 42
1, 155988, Note_on_c, 0, 58, 0
1, 156000, Tempo, 1059509
1, 156000, Note_on_c, 0, 46, 0
1, 156000, Note_on_c, 0, 53, 0
1, 156000, Note_on_c, 0, 34, 0
1, 156000, Note_on_c, 0, 41, 0
1, 156000, Note_on_c, 0, 54, 37
1, 156000, Note_on_c, 0, 58, 44
1, 156000, Note_on_c, 0, 37, 25
1, 156000, Note_on_c, 0, 42, 25
1, 156000, Note_on_c, 0, 49, 30
1, 156019, Control_c, 0, 64, 0
1, 156148, Control_c, 0, 64, 127
1, 156360, Note_on_c, 0, 58, 0
1, 156360, Note_on_c, 0, 58, 36
1, 156468, Note_on_c, 0, 58, 0
1, 156480, Tempo, 1075076
1, 156480, Note_on_c, 0, 49, 0
1, 156480, Note_on_c, 0, 54, 0
1, 156480, Note_on_c, 0, 37, 0
1, 156480, Note_on_c, 0, 42, 0
1, 156480, Note_on_c, 0, 53, 34
1, 156480, Note_on_c, 0, 58, 40
1, 156480, Note_on_c, 0, 34, 28
1, 156480, Note_on_c, 0, 41, 28
1, 156480, Note_on_c, 0, 46, 34
1, 156498, Control_c, 0, 64, 0
1, 156593, Control_c, 0, 64, 127
1, 156960, Note_on_c, 0, 46, 0
1, 156960, Note_on_c, 0, 34, 0
1, 156960, Note_on_c, 0, 41, 0
1, 156960, Note_on_c, 0, 53, 0
1, 156960, Note_on_c, 0, 54, 28
1, 156960, Note_on_c, 0, 37, 22
1, 156960, Note_on_c, 0, 42, 22
1, 156960, Note_on_c, 0, 49, 27
1, 156979, Control_c, 0, 64, 0
1, 157101, Control_c, 0, 64, 127
1, 157440, Tempo, 1044386
1, 157440, Note_on_c, 0, 49, 0
1, 157440, Note_on_c, 0, 37, 0
1, 157440, Note_on_c, 0, 58, 0
1, 157440, Note_on_c, 0, 54, 0
1, 157440, Note_on_c, 0, 42, 0
1, 157440, Note_on_c, 0, 58, 42
1, 157440, Note_on_c, 0, 53, 42
1, 157440, Note_on_c, 0, 61, 50
1, 157440, Note_on_c, 0, 34, 35
1, 157440, Note_on_c, 0, 41, 35
1, 157440, Note_on_c, 0, 46, 42
1, 157451, Control_c, 0, 64, 0
1, 157511, Control_c, 0, 64, 127
1, 157920, Tempo, 1075076
1, 157920, Note_on_c, 0, 46, 0
1, 157920, Note_on_c, 0, 53, 0
1, 157920, Note_on_c, 0, 61, 0
1, 157920, Note_on_c, 0, 58, 0
1, 157920, Note_on_c, 0, 41, 0
1, 157920, Note_on_c, 0, 34, 0
1, 157920, Note_on_c, 0, 58, 42
1, 157920, Note_on_c, 0, 54, 42
1, 157920, Note_on_c, 0, 61, 50
1, 157920, Note_on_c, 0, 37, 30
1, 157920, Note_on_c, 0, 42, 37
1, 157920, Note_on_c, 0, 49, 37
1, 157932, Control_c, 0, 64, 0
1, 158079, Control_c, 0, 64, 127
1, 158280, Note_on_c, 0, 61, 0
1, 158280, Note_on_c, 0, 61, 45
1, 158388, Note_on_c, 0, 61, 0
1, 158400, Tempo, 1036986
1, 158400, Note_on_c, 0, 49, 0
1, 158400, Note_on_c, 0, 37, 0
1, 158400, Note_on_c, 0, 58, 0
1, 158400, Note_on_c, 0, 54, 0
1, 158400, Note_on_c, 0, 42, 0
1, 158400, Note_on_c, 0, 58, 42
1, 158400, Note_on_c, 0, 53, 42
1, 158400, Note_on_c, 0, 61, 50
1, 158400, Note_on_c, 0, 34, 35
1, 158400, Note_on_c, 0, 41, 35
1, 158400, Note_on_c, 0, 46, 42
1, 158418, Control_c, 0, 64, 0
1, 158513, Control_c, 0, 64, 127
1, 158880, Tempo, 1044386
1, 158880, Note_on_c, 0, 46, 0
1, 158880, Note_on_c, 0, 53, 0
1, 158880, Note_on_c, 0, 61, 0
1, 158880, Note_on_c, 0, 58, 0
1, 158880, Note_on_c, 0, 41, 0
1, 158880, Note_on_c, 0, 34, 0
1, 158880, Note_on_c, 0, 65, 59
1, 158880, Note_on_c, 0, 61, 52
1, 158880, Note_on_c, 0, 54, 48
1, 158880, Note_on_c, 0, 37, 27
1, 158880, Note_on_c, 0, 42, 34
1, 158880, Note_on_c, 0, 49, 34
1, 158895, Control_c, 0, 64, 0
1, 158958, Control_c, 0, 64, 127
1, 159120, Tempo, 1124649
1, 159240, Note_on_c, 0, 61, 0
1, 159240, Note_on_c, 0, 65, 0
1, 159240, Note_on_c, 0, 63, 53
1, 159240, Note_on_c, 0, 60, 47
1, 159280, Tempo, 1044386
1, 159300, Note_on_c, 0, 60, 0
1, 159300, Note_on_c, 0, 63, 0
1, 159300, Note_on_c, 0, 65, 48
1, 159360, Note_on_c, 0, 65, 0
1, 159360, Note_on_c, 0, 42, 0
1, 159360, Note_on_c, 0, 37, 0
1, 159360, Note_on_c, 0, 49, 0
1, 159360, Note_on_c, 0, 54, 0
1, 159360, Note_on_c, 0, 63, 57
1, 159360, Note_on_c, 0, 60, 51
1, 159360, Note_on_c, 0, 53, 48
1, 159360, Note_on_c, 0, 34, 35
1, 159360, Note_on_c, 0, 41, 35
1, 159360, Note_on_c, 0, 46, 42
1, 159372, Control_c, 0, 64, 0
1, 159438, Control_c, 0, 64, 127
1, 159720, Note_on_c, 0, 60, 0
1, 159720, Note_on_c, 0, 63, 0
1, 159720, Note_on_c, 0, 61, 50
1, 159720, Note_on_c, 0, 58, 45
1, 159828, Note_on_c, 0, 58, 0
1, 159828, Note_on_c, 0, 61, 0
1, 159840, Tempo, 1059509
1, 159840, Note_on_c, 0, 53, 0
1, 159840, Note_on_c, 0, 34, 0
1, 159840, Note_on_c, 0, 46, 0
1, 159840, Note_on_c, 0, 41, 0
1, 159840, Note_on_c, 0, 61, 55
1, 159840, Note_on_c, 0, 54, 46
1, 159840, Note_on_c, 0, 58, 48
1, 159840, Note_on_c, 0, 37, 30
1, 159840, Note_on_c, 0, 42, 30
1, 159840, Note_on_c, 0, 49, 37
1, 159854, Control_c, 0, 64, 0
1, 159946, Control_c, 0, 64, 127
1, 160200, Note_on_c, 0, 58, 0
1, 160200, Note_on_c, 0, 61, 0
1, 160200, Note_on_c, 0, 61, 45
1, 160200, Note_on_c, 0, 58, 39
1, 160308, Note_on_c, 0, 58, 0
1, 160308, Note_on_c, 0, 61, 0
1, 160320, Tempo, 1083032
1, 160320, Note_on_c, 0, 42, 0
1, 160320, Note_on_c, 0, 54, 0
1, 160320, Note_on_c, 0, 49, 0
1, 160320, Note_on_c, 0, 37, 0
1, 160320, Note_on_c, 0, 61, 50
1, 160320, Note_on_c, 0, 53, 42
1, 160320, Note_on_c, 0, 58, 45
1, 160320, Note_on_c, 0, 34, 35
1, 160320, Note_on_c, 0, 41, 35
1, 160320, Note_on_c, 0, 46, 42
1, 160332, Control_c, 0, 64, 0
1, 160461, Control_c, 0, 64, 127
1, 160800, Note_on_c, 0, 46, 0
1, 160800, Note_on_c, 0, 34, 0
1, 160800, Note_on_c, 0, 53, 0
1, 160800, Note_on_c, 0, 41, 0
1, 160800, Note_on_c, 0, 54, 35
1, 160800, Note_on_c, 0, 37, 27
1, 160800, Note_on_c, 0, 42, 27
1, 160800, Note_on_c, 0, 49, 34
1, 160812, Control_c, 0, 64, 0
1, 160948, Control_c, 0, 64, 127
1, 161280, Tempo, 960000
1, 161280, Note_on_c, 0, 49, 0
1, 161280, Note_on_c, 0, 61, 0
1, 161280, Note_on_c, 0, 54, 0
1, 161280, Note_on_c, 0, 58, 0
1, 161280, Note_on_c, 0, 42, 0
1, 161280, Note_on_c, 0, 37, 0
1, 161280, Note_on_c, 0, 61, 58
1, 161280, Note_on_c, 0, 70, 73
1, 161280, Note_on_c, 0, 58, 58
1, 161280, Note_on_c, 0, 34, 42
1, 161280, Note_on_c, 0, 41, 42
1, 161280, Note_on_c, 0, 46, 52
1, 161289, Control_c, 0, 64, 0
1, 161361, Control_c, 0, 64, 127
1, 161520, Tempo, 882353
1, 161520, Note_on_c, 0, 70, 0
1, 161520, Note_on_c, 0, 68, 67
1, 161700, Tempo, 1008403
1, 161700, Note_on_c, 0, 68, 0
1, 161700, Note_on_c, 0, 58, 0
1, 161700, Note_on_c, 0, 61, 0
1, 161700, Note_on_c, 0, 68, 58
1, 161760, Tempo, 1059509
1, 161760, Note_on_c, 0, 68, 0
1, 161760, Note_on_c, 0, 46, 0
1, 161760, Note_on_c, 0, 41, 0
1, 161760, Note_on_c, 0, 34, 0
1, 161760, Note_on_c, 0, 61, 55
1, 161760, Note_on_c, 0, 66, 61
1, 161760, Note_on_c, 0, 58, 55
1, 161760, Note_on_c, 0, 37, 36
1, 161760, Note_on_c, 0, 42, 36
1, 161760, Note_on_c, 0, 49, 44
1, 161777, Control_c, 0, 64, 0
1, 161780, Tempo, 1016949
1, 161838, Control_c, 0, 64, 127
1, 162120, Note_on_c, 0, 66, 0
1, 162120, Note_on_c, 0, 65, 53
1, 162228, Note_on_c, 0, 65, 0
1, 162240, Tempo, 1083032
1, 162240, Note_on_c, 0, 49, 0
1, 162240, Note_on_c, 0, 37, 0
1, 162240, Note_on_c, 0, 61, 0
1, 162240, Note_on_c, 0, 58, 0
1, 162240, Note_on_c, 0, 42, 0
1, 162240, Note_on_c, 0, 58, 50
1, 162240, Note_on_c, 0, 65, 59
1, 162240, Note_on_c, 0, 61, 50
1, 162240, Note_on_c, 0, 34, 38
1, 162240, Note_on_c, 0, 41, 38
1, 162240, Note_on_c, 0, 46, 46
1, 162255, Control_c, 0, 64, 0
1, 162321, Control_c, 0, 64, 127
1, 162720, Note_on_c, 0, 46, 0
1, 162720, Note_on_c, 0, 65, 0
1, 162720, Note_on_c, 0, 61, 0
1, 162720, Note_on_c, 0, 58, 0
1, 162720, Note_on_c, 0, 41, 0
1, 162720, Note_on_c, 0, 34, 0
1, 162720, Note_on_c, 0, 58, 42
1, 162720, Note_on_c, 0, 61, 51
1, 162720, Note_on_c, 0, 37, 27
1, 162720, Note_on_c, 0, 42, 27
1, 162720, Note_on_c, 0, 49, 35
1, 162735, Control_c, 0, 64, 0
1, 162784, Control_c, 0, 64, 127
1, 163200, Tempo, 952381
1, 163200, Note_on_c, 0, 49, 0
1, 163200, Note_on_c, 0, 37, 0
1, 163200, Note_on_c, 0, 58, 0
1, 163200, Note_on_c, 0, 61, 0
1, 163200, Note_on_c, 0, 42, 0
1, 163200, Note_on_c, 0, 61, 58
1, 163200, Note_on_c, 0, 70, 73
1, 163200, Note_on_c, 0, 58, 58
1, 163200, Note_on_c, 0, 34, 42
1, 163200, Note_on_c, 0, 41, 42
1, 163200, Note_on_c, 0, 46, 52
1, 163212, Control_c, 0, 64, 0
1, 163281, Control_c, 0, 64, 127
1, 163440, Tempo, 875912
1, 163440, Note_on_c, 0, 70, 0
1, 163440, Note_on_c, 0, 68, 67
1, 163620, Tempo, 1008403
1, 163620, Note_on_c, 0, 68, 0
1, 163620, Note_on_c, 0, 58, 0
1, 163620, Note_on_c, 0, 61, 0
1, 163620, Note_on_c, 0, 68, 58
1, 163680, Tempo, 1025641
1, 163680, Note_on_c, 0, 68, 0
1, 163680, Note_on_c, 0, 46, 0
1, 163680, Note_on_c, 0, 41, 0
1, 163680, Note_on_c, 0, 34, 0
1, 163680, Note_on_c, 0, 61, 55
1, 163680, Note_on_c, 0, 66, 61
1, 163680, Note_on_c, 0, 58, 55
1, 163680, Note_on_c, 0, 37, 36
1, 163680, Note_on_c, 0, 42, 36
1, 163680, Note_on_c, 0, 49, 44
1, 163695, Control_c, 0, 64, 0
1, 163761, Control_c, 0, 64, 127
1, 164040, Note_on_c, 0, 66, 0
1, 164040, Note_on_c, 0, 65, 54
1, 164148, Note_on_c, 0, 65, 0
1, 164160, Tempo, 1083032
1, 164160, Note_on_c, 0, 49, 0
1, 164160, Note_on_c, 0, 37, 0
1, 164160, Note_on_c, 0, 61, 0
1, 164160, Note_on_c, 0, 58, 0
1, 164160, Note_on_c, 0, 42, 0
1, 164160, Note_on_c, 0, 58, 50
1, 164160, Note_on_c, 0, 65, 59
1, 164160, Note_on_c, 0, 61, 50
1, 164160, Note_on_c, 0, 34, 38
1, 164160, Note_on_c, 0, 41, 38
1, 164160, Note_on_c, 0, 46, 46
1, 164178, Control_c, 0, 64, 0
1, 164220, Control_c, 0, 64, 127
1, 164640, Note_on_c, 0, 46, 0
1, 164640, Note_on_c, 0, 65, 0
1, 164640, Note_on_c, 0, 61, 0
1, 164640, Note_on_c, 0, 58, 0
1, 164640, Note_on_c, 0, 41, 0
1, 164640, Note_on_c, 0, 34, 0
1, 164640, Note_on_c, 0, 58, 42
1, 164640, Note_on_c, 0, 61, 51
1, 164640, Note_on_c, 0, 37, 27
1, 164640, Note_on_c, 0, 42, 27
1, 164640, Note_on_c, 0, 49, 35
1, 164653, Control_c, 0, 64, 0
1, 164739, Control_c, 0, 64, 127
1, 165120, Tempo, 1044386
1, 165120, Note_on_c, 0, 49, 0
1, 165120, Note_on_c, 0, 37, 0
1, 165120, Note_on_c, 0, 58, 0
1, 165120, Note_on_c, 0, 61, 0
1, 165120, Note_on_c, 0, 42, 0
1, 165120, Note_on_c, 0, 53, 39
1, 165120, Note_on_c, 0, 58, 46
1, 165120, Note_on_c, 0, 34, 32
1, 165120, Note_on_c, 0, 41, 32
1, 165120, Note_on_c, 0, 46, 39
1, 165136, Control_c, 0, 64, 0
1, 165184, Control_c, 0, 64, 127
1, 165600, Tempo, 1075076
1, 165600, Note_on_c, 0, 46, 0
1, 165600, Note_on_c, 0, 34, 0
1, 165600, Note_on_c, 0, 53, 0
1, 165600, Note_on_c, 0, 58, 0
1, 165600, Note_on_c, 0, 41, 0
1, 165600, Note_on_c, 0, 54, 39
1, 165600, Note_on_c, 0, 58, 46
1, 165600, Note_on_c, 0, 37, 28
1, 165600, Note_on_c, 0, 42, 34
1, 165600, Note_on_c, 0, 49, 34
1, 165614, Control_c, 0, 64, 0
1, 165741, Control_c, 0, 64, 127
1, 165960, Note_on_c, 0, 58, 0
1, 165960, Note_on_c, 0, 58, 41
1, 166068, Note_on_c, 0, 58, 0
1, 166080, Tempo, 1067236
1, 166080, Note_on_c, 0, 49, 0
1, 166080, Note_on_c, 0, 54, 0
1, 166080, Note_on_c, 0, 37, 0
1, 166080, Note_on_c, 0, 42, 0
1, 166080, Note_on_c, 0, 53, 39
1, 166080, Note_on_c, 0, 58, 46
1, 166080, Note_on_c, 0, 34, 32
1, 166080, Note_on_c, 0, 41, 32
1, 166080, Note_on_c, 0, 46, 39
1, 166091, Control_c, 0, 64, 0
1, 166214, Control_c, 0, 64, 127
1, 166560, Tempo, 1044386
1, 166560, Note_on_c, 0, 46, 0
1, 166560, Note_on_c, 0, 34, 0
1, 166560, Note_on_c, 0, 53, 0
1, 166560, Note_on_c, 0, 58, 0
1, 166560, Note_on_c, 0, 41, 0
1, 166560, Note_on_c, 0, 61, 54
1, 166560, Note_on_c, 0, 54, 44
1, 166560, Note_on_c, 0, 37, 25
1, 166560, Note_on_c, 0, 42, 31
1, 166560, Note_on_c, 0, 49, 31
1, 166569, Control_c, 0, 64, 0
1, 166645, Control_c, 0, 64, 127
1, 166920, Note_on_c, 0, 61, 0
1, 166920, Note_on_c, 0, 60, 49
1, 166980, Note_on_c, 0, 60, 0
1, 166980, Note_on_c, 0, 61, 45
1, 167040, Note_on_c, 0, 61, 0
1, 167040, Note_on_c, 0, 42, 0
1, 167040, Note_on_c, 0, 54, 0
1, 167040, Note_on_c, 0, 37, 0
1, 167040, Note_on_c, 0, 49, 0
1, 167040, Note_on_c, 0, 60, 52
1, 167040, Note_on_c, 0, 53, 44
1, 167040, Note_on_c, 0, 34, 32
1, 167040, Note_on_c, 0, 41, 32
1, 167040, Note_on_c, 0, 46, 39
1, 167052, Control_c, 0, 64, 0
1, 167153, Control_c, 0, 64, 127
1, 167400, Note_on_c, 0, 60, 0
1, 167400, Note_on_c, 0, 58, 46
1, 167508, Note_on_c, 0, 58, 0
1, 167520, Tempo, 1059509
1, 167520, Note_on_c, 0, 46, 0
1, 167520, Note_on_c, 0, 53, 0
1, 167520, Note_on_c, 0, 34, 0
1, 167520, Note_on_c, 0, 41, 0
1, 167520, Note_on_c, 0, 54, 42
1, 167520, Note_on_c, 0, 58, 50
1, 167520, Note_on_c, 0, 37, 28
1, 167520, Note_on_c, 0, 42, 28
1, 167520, Note_on_c, 0, 49, 34
1, 167538, Control_c, 0, 64, 0
1, 167704, Control_c, 0, 64, 127
1, 167880, Note_on_c, 0, 58, 0
1, 167880, Note_on_c, 0, 58, 41
1, 167988, Note_on_c, 0, 58, 0
1, 168000, Tempo, 1075076
1, 168000, Note_on_c, 0, 49, 0
1, 168000, Note_on_c, 0, 54, 0
1, 168000, Note_on_c, 0, 37, 0
1, 168000, Note_on_c, 0, 42, 0
1, 168000, Note_on_c, 0, 53, 39
1, 168000, Note_on_c, 0, 58, 46
1, 168000, Note_on_c, 0, 34, 32
1, 168000, Note_on_c, 0, 41, 32
1, 168000, Note_on_c, 0, 46, 39
1, 168015, Control_c, 0, 64, 0
1, 168176, Control_c, 0, 64, 127
1, 168480, Note_on_c, 0, 46, 0
1, 168480, Note_on_c, 0, 34, 0
1, 168480, Note_on_c, 0, 41, 0
1, 168480, Note_on_c, 0, 53, 0
1, 168480, Note_on_c, 0, 54, 32
1, 168480, Note_on_c, 0, 37, 25
1, 168480, Note_on_c, 0, 42, 25
1, 168480, Note_on_c, 0, 49, 31
1, 168496, Control_c, 0, 64, 0
1, 168621, Control_c, 0, 64, 127
1, 168960, Tempo, 952381
1, 168960, Note_on_c, 0, 49, 0
1, 168960, Note_on_c, 0, 37, 0
1, 168960, Note_on_c, 0, 58, 0
1, 168960, Note_on_c, 0, 54, 0
1, 168960, Note_on_c, 0, 42, 0
1, 168960, Note_on_c, 0, 73, 68
1, 168960, Note_on_c, 0, 82, 83
1, 168960, Note_on_c, 0, 70, 68
1, 168960, Note_on_c, 0, 34, 47
1, 168960, Note_on_c, 0, 41, 47
1, 168960, Note_on_c, 0, 46, 57
1, 168975, Control_c, 0, 64, 0
1, 169024, Control_c, 0, 64, 127
1, 169200, Tempo, 882353
1, 169200, Note_on_c, 0, 70, 0
1, 169200, Note_on_c, 0, 82, 0
1, 169200, Note_on_c, 0, 68, 56
1, 169200, Note_on_c, 0, 80, 73
1, 169320, Tempo, 923077
1, 169376, Tempo, 1090909
1, 169380, Note_on_c, 0, 80, 0
1, 169380, Note_on_c, 0, 68, 0
1, 169380, Note_on_c, 0, 68, 64
1, 169388, Tempo, 1132075
1, 169396, Tempo, 1188119
1, 169400, Note_on_c, 0, 68, 0
1, 169400, Note_on_c, 0, 73, 57
1, 169408, Tempo, 1237113
1, 169416, Tempo, 1304348
1, 169420, Note_on_c, 0, 73, 0
1, 169420, Note_on_c, 0, 80, 59
1, 169428, Tempo, 1379310
1, 169432, Tempo, 1008403
1, 169440, Tempo, 1016949
1, 169440, Note_on_c, 0, 80, 0
1, 169440, Note_on_c, 0, 34, 0
1, 169440, Note_on_c, 0, 41, 0
1, 169440, Note_on_c, 0, 46, 0
1, 169440, Note_on_c, 0, 73, 74
1, 169440, Note_on_c, 0, 78, 73
1, 169440, Note_on_c, 0, 66, 61
1, 169440, Note_on_c, 0, 37, 37
1, 169440, Note_on_c, 0, 42, 37
1, 169440, Note_on_c, 0, 49, 46
1, 169458, Control_c, 0, 64, 0
1, 169521, Control_c, 0, 64, 127
1, 169800, Tempo, 1052632
1, 169800, Note_on_c, 0, 78, 0
1, 169800, Note_on_c, 0, 65, 52
1, 169800, Note_on_c, 0, 77, 61
1, 169908, Note_on_c, 0, 77, 0
1, 169908, Note_on_c, 0, 65, 0
1, 169920, Tempo, 1052632
1, 169920, Note_on_c, 0, 49, 0
1, 169920, Note_on_c, 0, 73, 0
1, 169920, Note_on_c, 0, 66, 0
1, 169920, Note_on_c, 0, 37, 0
1, 169920, Note_on_c, 0, 42, 0
1, 169920, Note_on_c, 0, 73, 0
1, 169920, Note_on_c, 0, 65, 58
1, 169920, Note_on_c, 0, 77, 69
1, 169920, Note_on_c, 0, 73, 69
1, 169920, Note_on_c, 0, 34, 39
1, 169920, Note_on_c, 0, 41, 39
1, 169920, Note_on_c, 0, 46, 48
1, 169938, Control_c, 0, 64, 0
1, 169987, Control_c, 0, 64, 127
1, 170400, Note_on_c, 0, 46, 0
1, 170400, Note_on_c, 0, 77, 0
1, 170400, Note_on_c, 0, 73, 0
1, 170400, Note_on_c, 0, 65, 0
1, 170400, Note_on_c, 0, 41, 0
1, 170400, Note_on_c, 0, 34, 0
1, 170400, Note_on_c, 0, 73, 68
1, 170400, Note_on_c, 0, 61, 57
1, 170400, Note_on_c, 0, 70, 68
1, 170400, Note_on_c, 0, 37, 30
1, 170400, Note_on_c, 0, 42, 30
1, 170400, Note_on_c, 0, 49, 38
1, 170417, Control_c, 0, 64, 0
1, 170488, Control_c, 0, 64, 127
1, 170880, Tempo, 960000
1, 170880, Note_on_c, 0, 49, 0
1, 170880, Note_on_c, 0, 61, 0
1, 170880, Note_on_c, 0, 70, 0
1, 170880, Note_on_c, 0, 73, 0
1, 170880, Note_on_c, 0, 42, 0
1, 170880, Note_on_c, 0, 37, 0
1, 170880, Note_on_c, 0, 73, 68
1, 170880, Note_on_c, 0, 82, 83
1, 170880, Note_on_c, 0, 70, 68
1, 170880, Note_on_c, 0, 34, 47
1, 170880, Note_on_c, 0, 41, 47
1, 170880, Note_on_c, 0, 46, 57
1, 170891, Control_c, 0, 64, 0
1, 170947, Control_c, 0, 64, 127
1, 171120, Tempo, 888889
1, 171120, Note_on_c, 0, 70, 0
1, 171120, Note_on_c, 0, 82, 0
1, 171120, Note_on_c, 0, 68, 56
1, 171120, Note_on_c, 0, 80, 73
1, 171240, Tempo, 923077
1, 171296, Tempo, 1142857
1, 171300, Note_on_c, 0, 80, 0
1, 171300, Note_on_c, 0, 68, 0
1, 171300, Note_on_c, 0, 68, 66
1, 171308, Tempo, 1176471
1, 171316, Tempo, 1224490
1, 171320, Note_on_c, 0, 68, 0
1, 171320, Note_on_c, 0, 73, 58
1, 171328, Tempo, 1276596
1, 171336, Tempo, 1333333
1, 171340, Note_on_c, 0, 73, 0
1, 171340, Note_on_c, 0, 80, 58
1, 171348, Tempo, 1395349
1, 171352, Tempo, 991736
1, 171360, Tempo, 1025641
1, 171360, Note_on_c, 0, 80, 0
1, 171360, Note_on_c, 0, 34, 0
1, 171360, Note_on_c, 0, 41, 0
1, 171360, Note_on_c, 0, 46, 0
1, 171360, Note_on_c, 0, 73, 76
1, 171360, Note_on_c, 0, 78, 73
1, 171360, Note_on_c, 0, 66, 63
1, 171360, Note_on_c, 0, 37, 37
1, 171360, Note_on_c, 0, 42, 37
1, 171360, Note_on_c, 0, 49, 46
1, 171376, Control_c, 0, 64, 0
1, 171420, Control_c, 0, 64, 127
1, 171720, Tempo, 1052632
1, 171720, Note_on_c, 0, 78, 0
1, 171720, Note_on_c, 0, 65, 52
1, 171720, Note_on_c, 0, 77, 61
1, 171828, Note_on_c, 0, 77, 0
1, 171828, Note_on_c, 0, 65, 0
1, 171840, Tempo, 1071429
1, 171840, Note_on_c, 0, 49, 0
1, 171840, Note_on_c, 0, 73, 0
1, 171840, Note_on_c, 0, 66, 0
1, 171840, Note_on_c, 0, 37, 0
1, 171840, Note_on_c, 0, 42, 0
1, 171840, Note_on_c, 0, 73, 0
1, 171840, Note_on_c, 0, 65, 58
1, 171840, Note_on_c, 0, 77, 69
1, 171840, Note_on_c, 0, 73, 69
1, 171840, Note_on_c, 0, 34, 39
1, 171840, Note_on_c, 0, 41, 39
1, 171840, Note_on_c, 0, 46, 48
1, 171858, Control_c, 0, 64, 0
1, 171974, Control_c, 0, 64, 127
1, 172320, Note_on_c, 0, 46, 0
1, 172320, Note_on_c, 0, 77, 0
1, 172320, Note_on_c, 0, 73, 0
1, 172320, Note_on_c, 0, 65, 0
1, 172320, Note_on_c, 0, 41, 0
1, 172320, Note_on_c, 0, 34, 0
1, 172320, Note_on_c, 0, 73, 68
1, 172320, Note_on_c, 0, 61, 57
1, 172320, Note_on_c, 0, 70, 68
1, 172320, Note_on_c, 0, 37, 30
1, 172320, Note_on_c, 0, 42, 30
1, 172320, Note_on_c, 0, 49, 38
1, 172333, Control_c, 0, 64, 0
1, 172472, Control_c, 0, 64, 127
1, 172800, Tempo, 1044386
1, 172800, Note_on_c, 0, 49, 0
1, 172800, Note_on_c, 0, 61, 0
1, 172800, Note_on_c, 0, 70, 0
1, 172800, Note_on_c, 0, 73, 0
1, 172800, Note_on_c, 0, 42, 0
1, 172800, Note_on_c, 0, 37, 0
1, 172800, Note_on_c, 0, 58, 52
1, 172800, Note_on_c, 0, 65, 52
1, 172800, Note_on_c, 0, 70, 61
1, 172800, Note_on_c, 0, 34, 43
1, 172800, Note_on_c, 0, 41, 43
1, 172800, Note_on_c, 0, 46, 52
1, 172807, Control_c, 0, 64, 0
1, 172948, Control_c, 0, 64, 127
1, 173280, Tempo, 1075076
1, 173280, Note_on_c, 0, 46, 0
1, 173280, Note_on_c, 0, 65, 0
1, 173280, Note_on_c, 0, 70, 0
1, 173280, Note_on_c, 0, 58, 0
1, 173280, Note_on_c, 0, 41, 0
1, 173280, Note_on_c, 0, 34, 0
1, 173280, Note_on_c, 0, 58, 53
1, 173280, Note_on_c, 0, 66, 53
1, 173280, Note_on_c, 0, 70, 63
1, 173280, Note_on_c, 0, 37, 37
1, 173280, Note_on_c, 0, 42, 46
1, 173280, Note_on_c, 0, 49, 46
1, 173297, Control_c, 0, 64, 0
1, 173471, Control_c, 0, 64, 127
1, 173640, Note_on_c, 0, 70, 0
1, 173640, Note_on_c, 0, 58, 0
1, 173640, Note_on_c, 0, 58, 48
1, 173640, Note_on_c, 0, 70, 57
1, 173748, Note_on_c, 0, 70, 0
1, 173748, Note_on_c, 0, 58, 0
1, 173760, Tempo, 1067236
1, 173760, Note_on_c, 0, 42, 0
1, 173760, Note_on_c, 0, 66, 0
1, 173760, Note_on_c, 0, 49, 0
1, 173760, Note_on_c, 0, 37, 0
1, 173760, Note_on_c, 0, 58, 54
1, 173760, Note_on_c, 0, 65, 54
1, 173760, Note_on_c, 0, 70, 65
1, 173760, Note_on_c, 0, 34, 45
1, 173760, Note_on_c, 0, 41, 45
1, 173760, Note_on_c, 0, 46, 54
1, 173775, Control_c, 0, 64, 0
1, 173901, Control_c, 0, 64, 127
1, 174240, Tempo, 1044386
1, 174240, Note_on_c, 0, 46, 0
1, 174240, Note_on_c, 0, 65, 0
1, 174240, Note_on_c, 0, 70, 0
1, 174240, Note_on_c, 0, 58, 0
1, 174240, Note_on_c, 0, 41, 0
1, 174240, Note_on_c, 0, 34, 0
1, 174240, Note_on_c, 0, 61, 68
1, 174240, Note_on_c, 0, 73, 82
1, 174240, Note_on_c, 0, 66, 66
1, 174240, Note_on_c, 0, 37, 36
1, 174240, Note_on_c, 0, 42, 46
1, 174240, Note_on_c, 0, 49, 46
1, 174259, Control_c, 0, 64, 0
1, 174395, Control_c, 0, 64, 127
1, 174600, Note_on_c, 0, 73, 0
1, 174600, Note_on_c, 0, 61, 0
1, 174600, Note_on_c, 0, 60, 59
1, 174600, Note_on_c, 0, 72, 71
1, 174708, Note_on_c, 0, 72, 0
1, 174708, Note_on_c, 0, 60, 0
1, 174720, Note_on_c, 0, 66, 0
1, 174720, Note_on_c, 0, 37, 0
1, 174720, Note_on_c, 0, 49, 0
1, 174720, Note_on_c, 0, 42, 0
1, 174720, Note_on_c, 0, 60, 68
1, 174720, Note_on_c, 0, 72, 79
1, 174720, Note_on_c, 0, 65, 68
1, 174720, Note_on_c, 0, 34, 49
1, 174720, Note_on_c, 0, 41, 49
1, 174720, Note_on_c, 0, 46, 58
1, 174732, Control_c, 0, 64, 0
1, 174875, Control_c, 0, 64, 127
1, 175080, Note_on_c, 0, 72, 0
1, 175080, Note_on_c, 0, 60, 0
1, 175080, Note_on_c, 0, 58, 59
1, 175080, Note_on_c, 0, 70, 71
1, 175188, Note_on_c, 0, 70, 0
1, 175188, Note_on_c, 0, 58, 0
1, 175200, Tempo, 1059509
1, 175200, Note_on_c, 0, 65, 0
1, 175200, Note_on_c, 0, 34, 0
1, 175200, Note_on_c, 0, 46, 0
1, 175200, Note_on_c, 0, 41, 0
1, 175200, Note_on_c, 0, 58, 64
1, 175200, Note_on_c, 0, 66, 64
1, 175200, Note_on_c, 0, 70, 77
1, 175200, Note_on_c, 0, 37, 42
1, 175200, Note_on_c, 0, 42, 42
1, 175200, Note_on_c, 0, 49, 51
1, 175215, Control_c, 0, 64, 0
1, 175341, Control_c, 0, 64, 127
1, 175560, Note_on_c, 0, 70, 0
1, 175560, Note_on_c, 0, 58, 0
1, 175560, Note_on_c, 0, 58, 60
1, 175560, Note_on_c, 0, 70, 72
1, 175668, Note_on_c, 0, 70, 0
1, 175668, Note_on_c, 0, 58, 0
1, 175680, Tempo, 1075076
1, 175680, Note_on_c, 0, 42, 0
1, 175680, Note_on_c, 0, 66, 0
1, 175680, Note_on_c, 0, 49, 0
1, 175680, Note_on_c, 0, 37, 0
1, 175680, Note_on_c, 0, 58, 63
1, 175680, Note_on_c, 0, 65, 64
1, 175680, Note_on_c, 0, 70, 76
1, 175680, Note_on_c, 0, 34, 53
1, 175680, Note_on_c, 0, 41, 53
1, 175680, Note_on_c, 0, 46, 64
1, 175690, Control_c, 0, 64, 0
1, 175800, Control_c, 0, 64, 127
1, 176160, Note_on_c, 0, 46, 0
1, 176160, Note_on_c, 0, 65, 0
1, 176160, Note_on_c, 0, 70, 0
1, 176160, Note_on_c, 0, 58, 0
1, 176160, Note_on_c, 0, 41, 0
1, 176160, Note_on_c, 0, 34, 0
1, 176160, Note_on_c, 0, 68, 75
1, 176160, Note_on_c, 0, 60, 75
1, 176160, Note_on_c, 0, 72, 95
1, 176160, Note_on_c, 0, 66, 75
1, 176160, Note_on_c, 0, 32, 56
1, 176160, Note_on_c, 0, 44, 71
1, 176179, Control_c, 0, 64, 0
1, 176273, Control_c, 0, 64, 127
1, 176640, Note_on_c, 0, 44, 0
1, 176640, Note_on_c, 0, 60, 0
1, 176640, Note_on_c, 0, 72, 0
1, 176640, Note_on_c, 0, 68, 0
1, 176640, Note_on_c, 0, 32, 0
1, 176640, Note_on_c, 0, 66, 0
1, 176640, Note_on_c, 0, 61, 78
1, 176640, Note_on_c, 0, 65, 78
1, 176640, Note_on_c, 0, 73, 100
1, 176640, Note_on_c, 0, 25, 59
1, 176640, Note_on_c, 0, 37, 74
1, 176653, Control_c, 0, 64, 0
1, 176907, Control_c, 0, 64, 127
1, 177120, Note_on_c, 0, 37, 0
1, 177120, Note_on_c, 0, 73, 0
1, 177120, Note_on_c, 0, 61, 0
1, 177120, Note_on_c, 0, 65, 0
1, 177120, Note_on_c, 0, 25, 0
1, 177120, Note_on_c, 0, 65, 74
1, 177120, Note_on_c, 0, 73, 74
1, 177120, Note_on_c, 0, 77, 89
1, 177120, Note_on_c, 0, 49, 64
1, 177120, Note_on_c, 0, 56, 64
1, 177120, Note_on_c, 0, 61, 76
1, 177139, Control_c, 0, 64, 0
1, 177233, Control_c, 0, 64, 127
1, 177480, Note_on_c, 0, 61, 0
1, 177480, Note_on_c, 0, 73, 0
1, 177480, Note_on_c, 0, 77, 0
1, 177480, Note_on_c, 0, 65, 0
1, 177480, Note_on_c, 0, 56, 0
1, 177480, Note_on_c, 0, 49, 0
1, 177480, Note_on_c, 0, 66, 74
1, 177480, Note_on_c, 0, 78, 89
1, 177480, Note_on_c, 0, 63, 76
1, 177600, Note_on_c, 0, 63, 0
1, 177600, Note_on_c, 0, 78, 0
1, 177600, Note_on_c, 0, 66, 0
1, 177600, Note_on_c, 0, 68, 78
1, 177600, Note_on_c, 0, 73, 78
1, 177600, Note_on_c, 0, 80, 93
1, 177600, Note_on_c, 0, 49, 68
1, 177600, Note_on_c, 0, 56, 68
1, 177600, Note_on_c, 0, 65, 80
1, 177619, Control_c, 0, 64, 0
1, 177699, Control_c, 0, 64, 127
1, 177960, Note_on_c, 0, 65, 0
1, 177960, Note_on_c, 0, 73, 0
1, 177960, Note_on_c, 0, 80, 0
1, 177960, Note_on_c, 0, 68, 0
1, 177960, Note_on_c, 0, 56, 0
1, 177960, Note_on_c, 0, 49, 0
1, 177960, Note_on_c, 0, 70, 78
1, 177960, Note_on_c, 0, 82, 93
1, 177960, Note_on_c, 0, 66, 80
1, 178080, Tempo, 1100917
1, 178080, Note_on_c, 0, 66, 0
1, 178080, Note_on_c, 0, 82, 0
1, 178080, Note_on_c, 0, 70, 0
1, 178080, Note_on_c, 0, 72, 84
1, 178080, Note_on_c, 0, 80, 84
1, 178080, Note_on_c, 0, 84, 99
1, 178080, Note_on_c, 0, 63, 73
1, 178080, Note_on_c, 0, 56, 73
1, 178080, Note_on_c, 0, 68, 86
1, 178099, Control_c, 0, 64, 0
1, 178193, Control_c, 0, 64, 127
1, 178440, Note_on_c, 0, 68, 0
1, 178440, Note_on_c, 0, 80, 0
1, 178440, Note_on_c, 0, 84, 0
1, 178440, Note_on_c, 0, 72, 0
1, 178440, Note_on_c, 0, 56, 0
1, 178440, Note_on_c, 0, 63, 0
1, 178440, Note_on_c, 0, 73, 88
1, 178440, Note_on_c, 0, 85, 102
1, 178440, Note_on_c, 0, 65, 85
1, 178560, Tempo, 1071429
1, 178560, Note_on_c, 0, 65, 0
1, 178560, Note_on_c, 0, 85, 0
1, 178560, Note_on_c, 0, 73, 0
1, 178560, Note_on_c, 0, 84, 88
1, 178560, Note_on_c, 0, 80, 88
1, 178560, Note_on_c, 0, 77, 88
1, 178560, Note_on_c, 0, 89, 103
1, 178560, Note_on_c, 0, 32, 77
1, 178560, Note_on_c, 0, 44, 92
1, 178572, Control_c, 0, 64, 0
1, 178669, Control_c, 0, 64, 127
1, 179040, Note_on_c, 0, 44, 0
1, 179040, Note_on_c, 0, 32, 0
1, 179040, Note_on_c, 0, 63, 69
1, 179040, Note_on_c, 0, 66, 69
1, 179040, Note_on_c, 0, 72, 81
1, 179400, Note_on_c, 0, 72, 0
1, 179400, Note_on_c, 0, 63, 0
1, 179400, Note_on_c, 0, 66, 0
1, 179400, Note_on_c, 0, 61, 65
1, 179400, Note_on_c, 0, 66, 65
1, 179400, Note_on_c, 0, 70, 76
1, 179508, Note_on_c, 0, 70, 0
1, 179508, Note_on_c, 0, 61, 0
1, 179508, Note_on_c, 0, 66, 0
1, 179520, Note_on_c, 0, 77, 0
1, 179520, Note_on_c, 0, 89, 0
1, 179520, Note_on_c, 0, 75, 79
1, 179520, Note_on_c, 0, 87, 95
1, 179520, Note_on_c, 0, 61, 63
1, 179520, Note_on_c, 0, 66, 63
1, 179520, Note_on_c, 0, 70, 75
1, 179537, Control_c, 0, 64, 0
1, 179669, Control_c, 0, 64, 127
1, 179880, Note_on_c, 0, 70, 0
1, 179880, Note_on_c, 0, 61, 0
1, 179880, Note_on_c, 0, 66, 0
1, 179880, Note_on_c, 0, 60, 59
1, 179880, Note_on_c, 0, 66, 59
1, 179880, Note_on_c, 0, 68, 71
1, 179988, Note_on_c, 0, 68, 0
1, 179988, Note_on_c, 0, 60, 0
1, 179988, Note_on_c, 0, 66, 0
1, 180000, Note_on_c, 0, 60, 57
1, 180000, Note_on_c, 0, 66, 57
1, 180000, Note_on_c, 0, 68, 68
1, 180016, Control_c, 0, 64, 0
1, 180097, Control_c, 0, 64, 127
1, 180240, Note_on_c, 0, 87, 0
1, 180240, Note_on_c, 0, 75, 0
1, 180240, Note_on_c, 0, 84, 0
1, 180240, Note_on_c, 0, 80, 0
1, 180360, Tempo, 1176471
1, 180360, Note_on_c, 0, 68, 0
1, 180360, Note_on_c, 0, 60, 0
1, 180360, Note_on_c, 0, 66, 0
1, 180360, Note_on_c, 0, 66, 75
1, 180360, Note_on_c, 0, 72, 75
1, 180360, Note_on_c, 0, 75, 75
1, 180360, Note_on_c, 0, 78, 89
1, 180360, Note_on_c, 0, 57, 66
1, 180360, Note_on_c, 0, 60, 66
1, 180360, Note_on_c, 0, 63, 77
1, 180480, Tempo, 1071429
1, 180480, Note_on_c, 0, 63, 0
1, 180480, Note_on_c, 0, 57, 0
1, 180480, Note_on_c, 0, 72, 0
1, 180480, Note_on_c, 0, 75, 0
1, 180480, Note_on_c, 0, 66, 0
1, 180480, Note_on_c, 0, 60, 0
1, 180480, Note_on_c, 0, 78, 0
1, 180480, Note_on_c, 0, 75, 80
1, 180480, Note_on_c, 0, 65, 80
1, 180480, Note_on_c, 0, 72, 80
1, 180480, Note_on_c, 0, 77, 102
1, 180480, Note_on_c, 0, 34, 66
1, 180480, Note_on_c, 0, 46, 78
1, 180492, Control_c, 0, 64, 0
1, 180566, Control_c, 0, 64, 127
1, 180960, Note_on_c, 0, 46, 0
1, 180960, Note_on_c, 0, 65, 0
1, 180960, Note_on_c, 0, 72, 0
1, 180960, Note_on_c, 0, 75, 0
1, 180960, Note_on_c, 0, 34, 0
1, 180960, Note_on_c, 0, 77, 0
1, 180960, Note_on_c, 0, 70, 74
1, 180960, Note_on_c, 0, 65, 74
1, 180960, Note_on_c, 0, 73, 74
1, 180960, Note_on_c, 0, 77, 89
1, 180960, Note_on_c, 0, 53, 63
1, 180960, Note_on_c, 0, 58, 63
1, 180960, Note_on_c, 0, 61, 75
1, 180974, Control_c, 0, 64, 0
1, 181051, Control_c, 0, 64, 127
1, 181320, Note_on_c, 0, 77, 0
1, 181320, Note_on_c, 0, 73, 0
1, 181320, Note_on_c, 0, 70, 0
1, 181320, Note_on_c, 0, 65, 0
1, 181320, Note_on_c, 0, 67, 74
1, 181320, Note_on_c, 0, 79, 89
1, 181440, Note_on_c, 0, 79, 0
1, 181440, Note_on_c, 0, 61, 0
1, 181440, Note_on_c, 0, 58, 0
1, 181440, Note_on_c, 0, 53, 0
1, 181440, Note_on_c, 0, 67, 0
1, 181440, Note_on_c, 0, 77, 78
1, 181440, Note_on_c, 0, 69, 78
1, 181440, Note_on_c, 0, 73, 78
1, 181440, Note_on_c, 0, 81, 93
1, 181440, Note_on_c, 0, 37, 68
1, 181440, Note_on_c, 0, 49, 80
1, 181457, Control_c, 0, 64, 0
1, 181571, Control_c, 0, 64, 127
1, 181800, Note_on_c, 0, 81, 0
1, 181800, Note_on_c, 0, 73, 0
1, 181800, Note_on_c, 0, 77, 0
1, 181800, Note_on_c, 0, 69, 0
1, 181800, Note_on_c, 0, 70, 78
1, 181800, Note_on_c, 0, 82, 93
1, 181920, Tempo, 1100917
1, 181920, Note_on_c, 0, 82, 0
1, 181920, Note_on_c, 0, 37, 0
1, 181920, Note_on_c, 0, 49, 0
1, 181920, Note_on_c, 0, 70, 0
1, 181920, Note_on_c, 0, 72, 84
1, 181920, Note_on_c, 0, 77, 84
1, 181920, Note_on_c, 0, 84, 99
1, 181920, Note_on_c, 0, 65, 76
1, 181920, Note_on_c, 0, 61, 64
1, 181920, Note_on_c, 0, 58, 64
1, 181920, Note_on_c, 0, 53, 64
1, 181939, Control_c, 0, 64, 0
1, 182000, Control_c, 0, 64, 127
1, 182240, Tempo, 1318681
1, 182280, Note_on_c, 0, 84, 0
1, 182280, Note_on_c, 0, 72, 0
1, 182280, Note_on_c, 0, 77, 0
1, 182280, Note_on_c, 0, 73, 88
1, 182280, Note_on_c, 0, 85, 102
1, 182340, Tempo, 1518987
1, 182340, Note_on_c, 0, 85, 0
1, 182340, Note_on_c, 0, 73, 0
1, 182340, Note_on_c, 0, 70, 88
1, 182360, Note_on_c, 0, 76, 88
1, 182380, Note_on_c, 0, 79, 88
1, 182400, Tempo, 1100917
1, 182400, Note_on_c, 0, 53, 0
1, 182400, Note_on_c, 0, 61, 0
1, 182400, Note_on_c, 0, 65, 0
1, 182400, Note_on_c, 0, 58, 0
1, 182400, Note_on_c, 0, 85, 103
1, 182400, Note_on_c, 0, 29, 77
1, 182400, Note_on_c, 0, 41, 92
1, 182413, Control_c, 0, 64, 0
1, 182527, Control_c, 0, 64, 127
1, 182880, Note_on_c, 0, 41, 0
1, 182880, Note_on_c, 0, 29, 0
1, 182880, Note_on_c, 0, 53, 69
1, 182880, Note_on_c, 0, 58, 69
1, 182880, Note_on_c, 0, 61, 69
1, 182880, Note_on_c, 0, 67, 81
1, 183360, Note_on_c, 0, 67, 0
1, 183360, Note_on_c, 0, 76, 0
1, 183360, Note_on_c, 0, 53, 0
1, 183360, Note_on_c, 0, 70, 0
1, 183360, Note_on_c, 0, 85, 0
1, 183360, Note_on_c, 0, 79, 0
1, 183360, Note_on_c, 0, 58, 0
1, 183360, Note_on_c, 0, 61, 0
1, 183360, Note_on_c, 0, 72, 76
1, 183360, Note_on_c, 0, 77, 76
1, 183360, Note_on_c, 0, 84, 90
1, 183360, Note_on_c, 0, 53, 64
1, 183360, Note_on_c, 0, 57, 64
1, 183360, Note_on_c, 0, 60, 64
1, 183360, Note_on_c, 0, 69, 75
1, 183375, Control_c, 0, 64, 0
1, 183544, Control_c, 0, 64, 127
1, 183840, Tempo, 1481481
1, 183840, Note_on_c, 0, 69, 0
1, 183840, Note_on_c, 0, 57, 0
1, 183840, Note_on_c, 0, 77, 0
1, 183840, Note_on_c, 0, 84, 0
1, 183840, Note_on_c, 0, 72, 0
1, 183840, Note_on_c, 0, 60, 0
1, 183840, Note_on_c, 0, 53, 0
1, 183840, Note_on_c, 0, 53, 87
1, 183975, Control_c, 0, 64, 0
1, 184080, Tempo, 600000
1, 184080, Note_on_c, 0, 53, 0
1, 184080, Note_on_c, 0, 43, 61
1, 184100, Tempo, 603015
1, 184100, Control_c, 0, 64, 127
1, 184120, Tempo, 609137
1, 184140, Tempo, 615385
1, 184160, Tempo, 618557
1, 184160, Note_on_c, 0, 43, 0
1, 184160, Note_on_c, 0, 44, 61
1, 184180, Tempo, 625000
1, 184200, Tempo, 631579
1, 184220, Tempo, 638298
1, 184240, Tempo, 641711
1, 184240, Note_on_c, 0, 44, 0
1, 184240, Note_on_c, 0, 46, 61
1, 184260, Tempo, 648649
1, 184280, Tempo, 655738
1, 184300, Tempo, 662983
1, 184320, Tempo, 1111111
1, 184320, Note_on_c, 0, 46, 0
1, 184320, Note_on_c, 0, 56, 68
1, 184320, Note_on_c, 0, 54, 68
1, 184320, Note_on_c, 0, 60, 68
1, 184320, Note_on_c, 0, 65, 68
1, 184320, Note_on_c, 0, 68, 80
1, 184320, Note_on_c, 0, 44, 61
1, 184329, Control_c, 0, 64, 0
1, 184360, Control_c, 0, 64, 127
1, 184365, Note_on_c, 0, 44, 0
1, 184365, Note_on_c, 0, 46, 56
1, 184400, Tempo, 1100917
1, 184410, Note_on_c, 0, 46, 0
1, 184410, Note_on_c, 0, 44, 64
1, 184440, Tempo, 1090909
1, 184455, Note_on_c, 0, 44, 0
1, 184455, Note_on_c, 0, 46, 57
1, 184480, Tempo, 1081081
1, 184500, Note_on_c, 0, 46, 0
1, 184500, Note_on_c, 0, 44, 66
1, 184520, Tempo, 1071429
1, 184545, Note_on_c, 0, 44, 0
1, 184545, Note_on_c, 0, 46, 59
1, 184560, Tempo, 1061947
1, 184590, Note_on_c, 0, 46, 0
1, 184590, Note_on_c, 0, 44, 68
1, 184600, Tempo, 1052632
1, 184635, Note_on_c, 0, 44, 0
1, 184635, Note_on_c, 0, 46, 61
1, 184640, Tempo, 1043478
1, 184680, Tempo, 1034483
1, 184680, Note_on_c, 0, 46, 0
1, 184680, Note_on_c, 0, 44, 70
1, 184720, Tempo, 1025641
1, 184725, Note_on_c, 0, 44, 0
1, 184725, Note_on_c, 0, 46, 65
1, 184760, Tempo, 1016949
1, 184770, Note_on_c, 0, 46, 0
1, 184770, Note_on_c, 0, 44, 73
1, 184800, Tempo, 1008403
1, 184800, Note_on_c, 0, 68, 0
1, 184800, Note_on_c, 0, 65, 0
1, 184800, Note_on_c, 0, 60, 0
1, 184800, Note_on_c, 0, 56, 0
1, 184800, Note_on_c, 0, 54, 0
1, 184800, Note_on_c, 0, 54, 68
1, 184800, Note_on_c, 0, 56, 68
1, 184800, Note_on_c, 0, 60, 68
1, 184800, Note_on_c, 0, 63, 68
1, 184800, Note_on_c, 0, 68, 80
1, 184813, Control_c, 0, 64, 0
1, 184815, Note_on_c, 0, 44, 0
1, 184815, Note_on_c, 0, 46, 66
1, 184840, Tempo, 1000000
1, 184849, Control_c, 0, 64, 127
1, 184860, Note_on_c, 0, 46, 0
1, 184860, Note_on_c, 0, 44, 72
1, 184905, Note_on_c, 0, 44, 0
1, 184906, Note_on_c, 0, 46, 63
1, 184920, Tempo, 1008403
1, 184950, Note_on_c, 0, 44, 69
1, 184951, Note_on_c, 0, 46, 0
1, 184960, Tempo, 1016949
1, 184995, Note_on_c, 0, 44, 0
1, 184995, Note_on_c, 0, 46, 60
1, 185000, Tempo, 1025641
1, 185040, Tempo, 1034483
1, 185040, Note_on_c, 0, 44, 66
1, 185041, Note_on_c, 0, 46, 0
1, 185080, Tempo, 1043478
1, 185100, Note_on_c, 0, 44, 0
1, 185100, Note_on_c, 0, 46, 58
1, 185120, Tempo, 1052632
1, 185160, Tempo, 1061947
1, 185160, Note_on_c, 0, 46, 0
1, 185160, Note_on_c, 0, 43, 64
1, 185200, Tempo, 1071429
1, 185220, Note_on_c, 0, 43, 0
1, 185220, Note_on_c, 0, 44, 55
1, 185240, Tempo, 1081081
1, 185280, Tempo, 1100917
1, 185280, Note_on_c, 0, 44, 0
1, 185280, Note_on_c, 0, 68, 0
1, 185280, Note_on_c, 0, 60, 0
1, 185280, Note_on_c, 0, 54, 0
1, 185280, Note_on_c, 0, 56, 0
1, 185280, Note_on_c, 0, 63, 0
1, 185280, Note_on_c, 0, 53, 68
1, 185280, Note_on_c, 0, 61, 68
1, 185280, Note_on_c, 0, 68, 80
1, 185280, Note_on_c, 0, 49, 68
1, 185295, Control_c, 0, 64, 0
1, 185389, Control_c, 0, 64, 127
1, 185760, Tempo, 1500000
1, 185760, Note_on_c, 0, 49, 0
1, 185760, Note_on_c, 0, 53, 0
1, 185760, Note_on_c, 0, 61, 0
1, 185760, Note_on_c, 0, 68, 0
1, 185760, Note_on_c, 0, 49, 82
1, 185872, Control_c, 0, 64, 0
1, 186000, Tempo, 609137
1, 186000, Note_on_c, 0, 49, 0
1, 186000, Note_on_c, 0, 40, 61
1, 186020, Tempo, 612245
1, 186029, Control_c, 0, 64, 127
1, 186040, Tempo, 618557
1, 186060, Tempo, 621762
1, 186080, Tempo, 628272
1, 186080, Note_on_c, 0, 40, 0
1, 186080, Note_on_c, 0, 41, 61
1, 186100, Tempo, 631579
1, 186120, Tempo, 638298
1, 186140, Tempo, 641711
1, 186160, Tempo, 648649
1, 186160, Note_on_c, 0, 41, 0
1, 186160, Note_on_c, 0, 42, 61
1, 186180, Tempo, 652174
1, 186200, Tempo, 659341
1, 186220, Tempo, 666667
1, 186240, Tempo, 1111111
1, 186240, Note_on_c, 0, 42, 0
1, 186240, Note_on_c, 0, 57, 68
1, 186240, Note_on_c, 0, 51, 68
1, 186240, Note_on_c, 0, 61, 68
1, 186240, Note_on_c, 0, 65, 80
1, 186240, Note_on_c, 0, 41, 61
1, 186258, Control_c, 0, 64, 0
1, 186285, Note_on_c, 0, 41, 0
1, 186285, Note_on_c, 0, 42, 56
1, 186286, Control_c, 0, 64, 127
1, 186320, Tempo, 1100917
1, 186330, Note_on_c, 0, 42, 0
1, 186330, Note_on_c, 0, 41, 64
1, 186360, Tempo, 1090909
1, 186375, Note_on_c, 0, 41, 0
1, 186375, Note_on_c, 0, 42, 57
1, 186400, Tempo, 1081081
1, 186420, Note_on_c, 0, 42, 0
1, 186420, Note_on_c, 0, 41, 66
1, 186440, Tempo, 1071429
1, 186465, Note_on_c, 0, 41, 0
1, 186465, Note_on_c, 0, 42, 59
1, 186480, Tempo, 1061947
1, 186510, Note_on_c, 0, 42, 0
1, 186510, Note_on_c, 0, 41, 68
1, 186520, Tempo, 1052632
1, 186555, Note_on_c, 0, 41, 0
1, 186555, Note_on_c, 0, 42, 61
1, 186560, Tempo, 1043478
1, 186600, Tempo, 1034483
1, 186600, Note_on_c, 0, 42, 0
1, 186600, Note_on_c, 0, 41, 70
1, 186640, Tempo, 1025641
1, 186645, Note_on_c, 0, 41, 0
1, 186645, Note_on_c, 0, 42, 65
1, 186680, Tempo, 1016949
1, 186690, Note_on_c, 0, 42, 0
1, 186690, Note_on_c, 0, 41, 73
1, 186720, Tempo, 1008403
1, 186720, Note_on_c, 0, 65, 0
1, 186720, Note_on_c, 0, 61, 0
1, 186720, Note_on_c, 0, 57, 0
1, 186720, Note_on_c, 0, 51, 0
1, 186720, Note_on_c, 0, 51, 68
1, 186720, Note_on_c, 0, 57, 68
1, 186720, Note_on_c, 0, 60, 68
1, 186720, Note_on_c, 0, 65, 80
1, 186735, Note_on_c, 0, 41, 0
1, 186735, Note_on_c, 0, 42, 66
1, 186738, Control_c, 0, 64, 0
1, 186760, Tempo, 1000000
1, 186766, Control_c, 0, 64, 127
1, 186780, Note_on_c, 0, 42, 0
1, 186780, Note_on_c, 0, 41, 72
1, 186825, Note_on_c, 0, 41, 0
1, 186826, Note_on_c, 0, 42, 63
1, 186840, Tempo, 1008403
1, 186870, Note_on_c, 0, 41, 69
1, 186871, Note_on_c, 0, 42, 0
1, 186880, Tempo, 1016949
1, 186915, Note_on_c, 0, 41, 0
1, 186915, Note_on_c, 0, 42, 60
1, 186920, Tempo, 1025641
1, 186960, Tempo, 1034483
1, 186960, Note_on_c, 0, 41, 66
1, 186961, Note_on_c, 0, 42, 0
1, 187000, Tempo, 1043478
1, 187020, Note_on_c, 0, 41, 0
1, 187020, Note_on_c, 0, 42, 58
1, 187040, Tempo, 1052632
1, 187080, Tempo, 1061947
1, 187080, Note_on_c, 0, 42, 0
1, 187080, Note_on_c, 0, 40, 64
1, 187120, Tempo, 1071429
1, 187140, Note_on_c, 0, 40, 0
1, 187140, Note_on_c, 0, 41, 55
1, 187160, Tempo, 1081081
1, 187200, Tempo, 1100917
1, 187200, Note_on_c, 0, 41, 0
1, 187200, Note_on_c, 0, 65, 0
1, 187200, Note_on_c, 0, 51, 0
1, 187200, Note_on_c, 0, 57, 0
1, 187200, Note_on_c, 0, 60, 0
1, 187200, Note_on_c, 0, 49, 68
1, 187200, Note_on_c, 0, 58, 80
1, 187200, Note_on_c, 0, 42, 64
1, 187211, Control_c, 0, 64, 0
1, 187303, Control_c, 0, 64, 127
1, 187680, Tempo, 1132075
1, 187680, Note_on_c, 0, 42, 0
1, 187680, Note_on_c, 0, 41, 49
1, 187920, Tempo, 1176471
1, 187920, Note_on_c, 0, 41, 0
1, 187920, Note_on_c, 0, 37, 39
1, 188160, Tempo, 1044386
1, 188160, Note_on_c, 0, 37, 0
1, 188160, Note_on_c, 0, 58, 0
1, 188160, Note_on_c, 0, 49, 0
1, 188160, Note_on_c, 0, 46, 39
1, 188160, Note_on_c, 0, 53, 39
1, 188160, Note_on_c, 0, 58, 46
1, 188160, Control_c, 0, 64, 0
1, 188160, Note_on_c, 0, 34, 32
1, 188160, Note_on_c, 0, 41, 32
1, 188160, Note_on_c, 0, 46, 39
1, 188171, Control_c, 0, 64, 0
1, 188298, Control_c, 0, 64, 127
1, 188640, Tempo, 1075076
1, 188640, Note_on_c, 0, 46, 0
1, 188640, Note_on_c, 0, 53, 0
1, 188640, Note_on_c, 0, 58, 0
1, 188640, Note_on_c, 0, 46, 0
1, 188640, Note_on_c, 0, 41, 0
1, 188640, Note_on_c, 0, 34, 0
1, 188640, Note_on_c, 0, 54, 39
1, 188640, Note_on_c, 0, 58, 46
1, 188640, Note_on_c, 0, 37, 28
1, 188640, Note_on_c, 0, 42, 34
1, 188640, Note_on_c, 0, 49, 34
1, 188654, Control_c, 0, 64, 0
1, 188781, Control_c, 0, 64, 127
1, 189000, Note_on_c, 0, 58, 0
1, 189000, Note_on_c, 0, 58, 41
1, 189108, Note_on_c, 0, 58, 0
1, 189120, Tempo, 1067236
1, 189120, Note_on_c, 0, 49, 0
1, 189120, Note_on_c, 0, 54, 0
1, 189120, Note_on_c, 0, 37, 0
1, 189120, Note_on_c, 0, 42, 0
1, 189120, Note_on_c, 0, 53, 39
1, 189120, Note_on_c, 0, 58, 46
1, 189120, Note_on_c, 0, 34, 32
1, 189120, Note_on_c, 0, 41, 32
1, 189120, Note_on_c, 0, 46, 39
1, 189131, Control_c, 0, 64, 0
1, 189254, Control_c, 0, 64, 127
1, 189600, Tempo, 1044386
1, 189600, Note_on_c, 0, 46, 0
1, 189600, Note_on_c, 0, 34, 0
1, 189600, Note_on_c, 0, 53, 0
1, 189600, Note_on_c, 0, 58, 0
1, 189600, Note_on_c, 0, 41, 0
1, 189600, Note_on_c, 0, 61, 54
1, 189600, Note_on_c, 0, 54, 44
1, 189600, Note_on_c, 0, 37, 25
1, 189600, Note_on_c, 0, 42, 31
1, 189600, Note_on_c, 0, 49, 31
1, 189612, Control_c, 0, 64, 0
1, 189685, Control_c, 0, 64, 127
1, 189960, Note_on_c, 0, 61, 0
1, 189960, Note_on_c, 0, 60, 49
1, 190020, Note_on_c, 0, 60, 0
1, 190020, Note_on_c, 0, 61, 45
1, 190080, Note_on_c, 0, 61, 0
1, 190080, Note_on_c, 0, 42, 0
1, 190080, Note_on_c, 0, 54, 0
1, 190080, Note_on_c, 0, 37, 0
1, 190080, Note_on_c, 0, 49, 0
1, 190080, Note_on_c, 0, 60, 52
1, 190080, Note_on_c, 0, 53, 44
1, 190080, Note_on_c, 0, 34, 32
1, 190080, Note_on_c, 0, 41, 32
1, 190080, Note_on_c, 0, 46, 39
1, 190092, Control_c, 0, 64, 0
1, 190193, Control_c, 0, 64, 127
1, 190440, Note_on_c, 0, 60, 0
1, 190440, Note_on_c, 0, 58, 46
1, 190560, Tempo, 1059509
1, 190560, Note_on_c, 0, 58, 0
1, 190560, Note_on_c, 0, 46, 0
1, 190560, Note_on_c, 0, 53, 0
1, 190560, Note_on_c, 0, 34, 0
1, 190560, Note_on_c, 0, 41, 0
1, 190560, Note_on_c, 0, 54, 42
1, 190560, Note_on_c, 0, 58, 50
1, 190560, Note_on_c, 0, 37, 28
1, 190560, Note_on_c, 0, 42, 28
1, 190560, Note_on_c, 0, 49, 34
1, 190578, Control_c, 0, 64, 0
1, 190744, Control_c, 0, 64, 127
1, 190920, Note_on_c, 0, 58, 0
1, 190920, Note_on_c, 0, 58, 41
1, 191028, Note_on_c, 0, 58, 0
1, 191040, Tempo, 1075076
1, 191040, Note_on_c, 0, 49, 0
1, 191040, Note_on_c, 0, 54, 0
1, 191040, Note_on_c, 0, 37, 0
1, 191040, Note_on_c, 0, 42, 0
1, 191040, Note_on_c, 0, 53, 39
1, 191040, Note_on_c, 0, 58, 46
1, 191040, Note_on_c, 0, 34, 32
1, 191040, Note_on_c, 0, 41, 32
1, 191040, Note_on_c, 0, 46, 39
1, 191055, Control_c, 0, 64, 0
1, 191216, Control_c, 0, 64, 127
1, 191520, Note_on_c, 0, 46, 0
1, 191520, Note_on_c, 0, 34, 0
1, 191520, Note_on_c, 0, 53, 0
1, 191520, Note_on_c, 0, 58, 0
1, 191520, Note_on_c, 0, 41, 0
1, 191520, Note_on_c, 0, 55, 76
1, 191520, Note_on_c, 0, 61, 97
1, 191520, Note_on_c, 0, 52, 76
1, 191520, Note_on_c, 0, 33, 57
1, 191520, Note_on_c, 0, 45, 73
1, 191535, Control_c, 0, 64, 0
1, 191633, Control_c, 0, 64, 127
1, 191880, Note_on_c, 0, 45, 0
1, 191880, Note_on_c, 0, 52, 0
1, 191880, Note_on_c, 0, 55, 0
1, 191880, Note_on_c, 0, 61, 0
1, 191880, Note_on_c, 0, 33, 0
1, 191880, Note_on_c, 0, 54, 76
1, 191880, Note_on_c, 0, 60, 76
1, 191880, Note_on_c, 0, 63, 97
1, 191880, Note_on_c, 0, 32, 57
1, 191880, Note_on_c, 0, 44, 73
1, 192000, Note_on_c, 0, 44, 0
1, 192000, Note_on_c, 0, 63, 0
1, 192000, Note_on_c, 0, 54, 0
1, 192000, Note_on_c, 0, 60, 0
1, 192000, Note_on_c, 0, 32, 0
1, 192000, Note_on_c, 0, 53, 79
1, 192000, Note_on_c, 0, 61, 79
1, 192000, Note_on_c, 0, 65, 101
1, 192000, Note_on_c, 0, 25, 60
1, 192000, Note_on_c, 0, 37, 76
1, 192008, Control_c, 0, 64, 0
1, 192170, Control_c, 0, 64, 127
1, 192480, Note_on_c, 0, 37, 0
1, 192480, Note_on_c, 0, 65, 0
1, 192480, Note_on_c, 0, 53, 0
1, 192480, Note_on_c, 0, 61, 0
1, 192480, Note_on_c, 0, 25, 0
1, 192480, Note_on_c, 0, 65, 74
1, 192480, Note_on_c, 0, 73, 74
1, 192480, Note_on_c, 0, 77, 89
1, 192480, Note_on_c, 0, 49, 64
1, 192480, Note_on_c, 0, 56, 64
1, 192480, Note_on_c, 0, 61, 77
1, 192499, Control_c, 0, 64, 0
1, 192593, Control_c, 0, 64, 127
1, 192840, Note_on_c, 0, 61, 0
1, 192840, Note_on_c, 0, 73, 0
1, 192840, Note_on_c, 0, 77, 0
1, 192840, Note_on_c, 0, 65, 0
1, 192840, Note_on_c, 0, 56, 0
1, 192840, Note_on_c, 0, 49, 0
1, 192840, Note_on_c, 0, 66, 74
1, 192840, Note_on_c, 0, 78, 89
1, 192840, Note_on_c, 0, 63, 77
1, 192960, Note_on_c, 0, 63, 0
1, 192960, Note_on_c, 0, 78, 0
1, 192960, Note_on_c, 0, 66, 0
1, 192960, Note_on_c, 0, 68, 79
1, 192960, Note_on_c, 0, 73, 79
1, 192960, Note_on_c, 0, 80, 93
1, 192960, Note_on_c, 0, 49, 68
1, 192960, Note_on_c, 0, 56, 68
1, 192960, Note_on_c, 0, 65, 81
1, 192979, Control_c, 0, 64, 0
1, 193059, Control_c, 0, 64, 127
1, 193320, Note_on_c, 0, 65, 0
1, 193320, Note_on_c, 0, 73, 0
1, 193320, Note_on_c, 0, 80, 0
1, 193320, Note_on_c, 0, 68, 0
1, 193320, Note_on_c, 0, 56, 0
1, 193320, Note_on_c, 0, 49, 0
1, 193320, Note_on_c, 0, 70, 79
1, 193320, Note_on_c, 0, 82, 93
1, 193320, Note_on_c, 0, 66, 81
1, 193440, Tempo, 1100917
1, 193440, Note_on_c, 0, 66, 0
1, 193440, Note_on_c, 0, 82, 0
1, 193440, Note_on_c, 0, 70, 0
1, 193440, Note_on_c, 0, 72, 84
1, 193440, Note_on_c, 0, 80, 84
1, 193440, Note_on_c, 0, 84, 100
1, 193440, Note_on_c, 0, 63, 73
1, 193440, Note_on_c, 0, 56, 73
1, 193440, Note_on_c, 0, 68, 86
1, 193459, Control_c, 0, 64, 0
1, 193553, Control_c, 0, 64, 127
1, 193800, Note_on_c, 0, 68, 0
1, 193800, Note_on_c, 0, 80, 0
1, 193800, Note_on_c, 0, 84, 0
1, 193800, Note_on_c, 0, 72, 0
1, 193800, Note_on_c, 0, 56, 0
1, 193800, Note_on_c, 0, 63, 0
1, 193800, Note_on_c, 0, 73, 88
1, 193800, Note_on_c, 0, 85, 103
1, 193800, Note_on_c, 0, 65, 85
1, 193920, Tempo, 1071429
1, 193920, Note_on_c, 0, 65, 0
1, 193920, Note_on_c, 0, 85, 0
1, 193920, Note_on_c, 0, 73, 0
1, 193920, Note_on_c, 0, 84, 88
1, 193920, Note_on_c, 0, 80, 88
1, 193920, Note_on_c, 0, 77, 88
1, 193920, Note_on_c, 0, 89, 104
1, 193920, Note_on_c, 0, 32, 78
1, 193920, Note_on_c, 0, 44, 92
1, 193930, Control_c, 0, 64, 0
1, 194029, Control_c, 0, 64, 127
1, 194400, Note_on_c, 0, 44, 0
1, 194400, Note_on_c, 0, 32, 0
1, 194400, Note_on_c, 0, 63, 69
1, 194400, Note_on_c, 0, 66, 69
1, 194400, Note_on_c, 0, 72, 81
1, 194760, Note_on_c, 0, 72, 0
1, 194760, Note_on_c, 0, 63, 0
1, 194760, Note_on_c, 0, 66, 0
1, 194760, Note_on_c, 0, 61, 64
1, 194760, Note_on_c, 0, 66, 64
1, 194760, Note_on_c, 0, 70, 76
1, 194868, Note_on_c, 0, 70, 0
1, 194868, Note_on_c, 0, 61, 0
1, 194868, Note_on_c, 0, 66, 0
1, 194880, Note_on_c, 0, 77, 0
1, 194880, Note_on_c, 0, 89, 0
1, 194880, Note_on_c, 0, 75, 79
1, 194880, Note_on_c, 0, 87, 95
1, 194880, Note_on_c, 0, 61, 63
1, 194880, Note_on_c, 0, 66, 63
1, 194880, Note_on_c, 0, 70, 75
1, 194897, Control_c, 0, 64, 0
1, 195029, Control_c, 0, 64, 127
1, 195240, Note_on_c, 0, 70, 0
1, 195240, Note_on_c, 0, 61, 0
1, 195240, Note_on_c, 0, 66, 0
1, 195240, Note_on_c, 0, 60, 59
1, 195240, Note_on_c, 0, 66, 59
1, 195240, Note_on_c, 0, 68, 70
1, 195348, Note_on_c, 0, 68, 0
1, 195348, Note_on_c, 0, 60, 0
1, 195348, Note_on_c, 0, 66, 0
1, 195360, Note_on_c, 0, 60, 58
1, 195360, Note_on_c, 0, 66, 58
1, 195360, Note_on_c, 0, 68, 68
1, 195376, Control_c, 0, 64, 0
1, 195457, Control_c, 0, 64, 127
1, 195600, Note_on_c, 0, 87, 0
1, 195600, Note_on_c, 0, 75, 0
1, 195600, Note_on_c, 0, 84, 0
1, 195600, Note_on_c, 0, 80, 0
1, 195720, Tempo, 1176471
1, 195720, Note_on_c, 0, 68, 0
1, 195720, Note_on_c, 0, 60, 0
1, 195720, Note_on_c, 0, 66, 0
1, 195720, Note_on_c, 0, 66, 72
1, 195720, Note_on_c, 0, 72, 72
1, 195720, Note_on_c, 0, 75, 72
1, 195720, Note_on_c, 0, 78, 85
1, 195720, Note_on_c, 0, 57, 63
1, 195720, Note_on_c, 0, 60, 63
1, 195720, Note_on_c, 0, 63, 74
1, 195840, Tempo, 1071429
1, 195840, Note_on_c, 0, 63, 0
1, 195840, Note_on_c, 0, 57, 0
1, 195840, Note_on_c, 0, 72, 0
1, 195840, Note_on_c, 0, 75, 0
1, 195840, Note_on_c, 0, 66, 0
1, 195840, Note_on_c, 0, 60, 0
1, 195840, Note_on_c, 0, 78, 0
1, 195840, Note_on_c, 0, 75, 77
1, 195840, Note_on_c, 0, 65, 77
1, 195840, Note_on_c, 0, 72, 77
1, 195840, Note_on_c, 0, 77, 98
1, 195840, Note_on_c, 0, 34, 63
1, 195840, Note_on_c, 0, 46, 75
1, 195852, Control_c, 0, 64, 0
1, 195926, Control_c, 0, 64, 127
1, 196320, Note_on_c, 0, 46, 0
1, 196320, Note_on_c, 0, 65, 0
1, 196320, Note_on_c, 0, 72, 0
1, 196320, Note_on_c, 0, 75, 0
1, 196320, Note_on_c, 0, 34, 0
1, 196320, Note_on_c, 0, 77, 0
1, 196320, Note_on_c, 0, 70, 74
1, 196320, Note_on_c, 0, 65, 74
1, 196320, Note_on_c, 0, 73, 74
1, 196320, Note_on_c, 0, 77, 89
1, 196320, Note_on_c, 0, 53, 63
1, 196320, Note_on_c, 0, 58, 63
1, 196320, Note_on_c, 0, 61, 75
1, 196334, Control_c, 0, 64, 0
1, 196411, Control_c, 0, 64, 127
1, 196680, Note_on_c, 0, 77, 0
1, 196680, Note_on_c, 0, 73, 0
1, 196680, Note_on_c, 0, 70, 0
1, 196680, Note_on_c, 0, 65, 0
1, 196680, Note_on_c, 0, 67, 74
1, 196680, Note_on_c, 0, 79, 89
1, 196800, Note_on_c, 0, 79, 0
1, 196800, Note_on_c, 0, 61, 0
1, 196800, Note_on_c, 0, 58, 0
1, 196800, Note_on_c, 0, 53, 0
1, 196800, Note_on_c, 0, 67, 0
1, 196800, Note_on_c, 0, 77, 78
1, 196800, Note_on_c, 0, 69, 78
1, 196800, Note_on_c, 0, 73, 78
1, 196800, Note_on_c, 0, 81, 93
1, 196800, Note_on_c, 0, 37, 68
1, 196800, Note_on_c, 0, 49, 80
1, 196813, Control_c, 0, 64, 0
1, 196931, Control_c, 0, 64, 127
1, 197160, Note_on_c, 0, 81, 0
1, 197160, Note_on_c, 0, 73, 0
1, 197160, Note_on_c, 0, 77, 0
1, 197160, Note_on_c, 0, 69, 0
1, 197160, Note_on_c, 0, 70, 78
1, 197160, Note_on_c, 0, 82, 93
1, 197280, Tempo, 1100917
1, 197280, Note_on_c, 0, 82, 0
1, 197280, Note_on_c, 0, 37, 0
1, 197280, Note_on_c, 0, 49, 0
1, 197280, Note_on_c, 0, 70, 0
1, 197280, Note_on_c, 0, 72, 84
1, 197280, Note_on_c, 0, 77, 84
1, 197280, Note_on_c, 0, 84, 99
1, 197280, Note_on_c, 0, 65, 76
1, 197280, Note_on_c, 0, 61, 64
1, 197280, Note_on_c, 0, 58, 64
1, 197280, Note_on_c, 0, 53, 64
1, 197299, Control_c, 0, 64, 0
1, 197360, Control_c, 0, 64, 127
1, 197600, Tempo, 1318681
1, 197640, Note_on_c, 0, 84, 0
1, 197640, Note_on_c, 0, 72, 0
1, 197640, Note_on_c, 0, 77, 0
1, 197640, Note_on_c, 0, 73, 88
1, 197640, Note_on_c, 0, 85, 102
1, 197700, Tempo, 1518987
1, 197700, Note_on_c, 0, 85, 0
1, 197700, Note_on_c, 0, 73, 0
1, 197700, Note_on_c, 0, 70, 88
1, 197720, Note_on_c, 0, 76, 88
1, 197740, Note_on_c, 0, 79, 88
1, 197760, Tempo, 1100917
1, 197760, Note_on_c, 0, 53, 0
1, 197760, Note_on_c, 0, 61, 0
1, 197760, Note_on_c, 0, 65, 0
1, 197760, Note_on_c, 0, 58, 0
1, 197760, Note_on_c, 0, 85, 103
1, 197760, Note_on_c, 0, 29, 77
1, 197760, Note_on_c, 0, 41, 92
1, 197774, Control_c, 0, 64, 0
1, 197887, Control_c, 0, 64, 127
1, 198240, Note_on_c, 0, 41, 0
1, 198240, Note_on_c, 0, 29, 0
1, 198240, Note_on_c, 0, 53, 69
1, 198240, Note_on_c, 0, 58, 69
1, 198240, Note_on_c, 0, 61, 69
1, 198240, Note_on_c, 0, 67, 81
1, 198720, Note_on_c, 0, 67, 0
1, 198720, Note_on_c, 0, 76, 0
1, 198720, Note_on_c, 0, 53, 0
1, 198720, Note_on_c, 0, 70, 0
1, 198720, Note_on_c, 0, 85, 0
1, 198720, Note_on_c, 0, 79, 0
1, 198720, Note_on_c, 0, 58, 0
1, 198720, Note_on_c, 0, 61, 0
1, 198720, Note_on_c, 0, 72, 76
1, 198720, Note_on_c, 0, 77, 76
1, 198720, Note_on_c, 0, 84, 90
1, 198720, Note_on_c, 0, 53, 64
1, 198720, Note_on_c, 0, 57, 64
1, 198720, Note_on_c, 0, 60, 64
1, 198720, Note_on_c, 0, 69, 75
1, 198737, Control_c, 0, 64, 0
1, 198904, Control_c, 0, 64, 127
1, 199200, Tempo, 1481481
1, 199200, Note_on_c, 0, 69, 0
1, 199200, Note_on_c, 0, 57, 0
1, 199200, Note_on_c, 0, 77, 0
1, 199200, Note_on_c, 0, 84, 0
1, 199200, Note_on_c, 0, 72, 0
1, 199200, Note_on_c, 0, 60, 0
1, 199200, Note_on_c, 0, 53, 0
1, 199200, Note_on_c, 0, 53, 81
1, 199323, Control_c, 0, 64, 0
1, 199440, Tempo, 600000
1, 199440, Note_on_c, 0, 53, 0
1, 199440, Note_on_c, 0, 43, 61
1, 199460, Tempo, 603015
1, 199460, Control_c, 0, 64, 127
1, 199480, Tempo, 609137
1, 199500, Tempo, 615385
1, 199520, Tempo, 618557
1, 199520, Note_on_c, 0, 43, 0
1, 199520, Note_on_c, 0, 44, 61
1, 199540, Tempo, 625000
1, 199560, Tempo, 631579
1, 199580, Tempo, 638298
1, 199600, Tempo, 641711
1, 199600, Note_on_c, 0, 44, 0
1, 199600, Note_on_c, 0, 46, 61
1, 199620, Tempo, 648649
1, 199640, Tempo, 655738
1, 199660, Tempo, 662983
1, 199680, Tempo, 1111111
1, 199680, Note_on_c, 0, 46, 0
1, 199680, Note_on_c, 0, 56, 68
1, 199680, Note_on_c, 0, 54, 68
1, 199680, Note_on_c, 0, 60, 68
1, 199680, Note_on_c, 0, 65, 68
1, 199680, Note_on_c, 0, 68, 80
1, 199680, Note_on_c, 0, 44, 61
1, 199691, Control_c, 0, 64, 0
1, 199720, Control_c, 0, 64, 127
1, 199725, Note_on_c, 0, 44, 0
1, 199725, Note_on_c, 0, 46, 56
1, 199760, Tempo, 1100917
1, 199770, Note_on_c, 0, 46, 0
1, 199770, Note_on_c, 0, 44, 64
1, 199800, Tempo, 1090909
1, 199815, Note_on_c, 0, 44, 0
1, 199815, Note_on_c, 0, 46, 57
1, 199840, Tempo, 1081081
1, 199860, Note_on_c, 0, 46, 0
1, 199860, Note_on_c, 0, 44, 66
1, 199880, Tempo, 1071429
1, 199905, Note_on_c, 0, 44, 0
1, 199905, Note_on_c, 0, 46, 59
1, 199920, Tempo, 1061947
1, 199950, Note_on_c, 0, 46, 0
1, 199950, Note_on_c, 0, 44, 68
1, 199960, Tempo, 1052632
1, 199995, Note_on_c, 0, 44, 0
1, 199995, Note_on_c, 0, 46, 61
1, 200000, Tempo, 1043478
1, 200040, Tempo, 1034483
1, 200040, Note_on_c, 0, 46, 0
1, 200040, Note_on_c, 0, 44, 70
1, 200080, Tempo, 1025641
1, 200085, Note_on_c, 0, 44, 0
1, 200085, Note_on_c, 0, 46, 65
1, 200120, Tempo, 1016949
1, 200130, Note_on_c, 0, 46, 0
1, 200130, Note_on_c, 0, 44, 73
1, 200160, Tempo, 1008403
1, 200160, Note_on_c, 0, 68, 0
1, 200160, Note_on_c, 0, 65, 0
1, 200160, Note_on_c, 0, 60, 0
1, 200160, Note_on_c, 0, 56, 0
1, 200160, Note_on_c, 0, 54, 0
1, 200160, Note_on_c, 0, 54, 68
1, 200160, Note_on_c, 0, 56, 68
1, 200160, Note_on_c, 0, 60, 68
1, 200160, Note_on_c, 0, 63, 68
1, 200160, Note_on_c, 0, 68, 80
1, 200175, Note_on_c, 0, 44, 0
1, 200175, Control_c, 0, 64, 0
1, 200175, Note_on_c, 0, 46, 66
1, 200200, Tempo, 1000000
1, 200200, Control_c, 0, 64, 127
1, 200220, Note_on_c, 0, 46, 0
1, 200220, Note_on_c, 0, 44, 72
1, 200265, Note_on_c, 0, 44, 0
1, 200266, Note_on_c, 0, 46, 63
1, 200280, Tempo, 1008403
1, 200310, Note_on_c, 0, 44, 69
1, 200311, Note_on_c, 0, 46, 0
1, 200320, Tempo, 1016949
1, 200355, Note_on_c, 0, 44, 0
1, 200355, Note_on_c, 0, 46, 60
1, 200360, Tempo, 1025641
1, 200400, Tempo, 1034483
1, 200400, Note_on_c, 0, 44, 66
1, 200401, Note_on_c, 0, 46, 0
1, 200440, Tempo, 1043478
1, 200460, Note_on_c, 0, 44, 0
1, 200460, Note_on_c, 0, 46, 58
1, 200480, Tempo, 1052632
1, 200520, Tempo, 1061947
1, 200520, Note_on_c, 0, 46, 0
1, 200520, Note_on_c, 0, 43, 64
1, 200560, Tempo, 1071429
1, 200580, Note_on_c, 0, 43, 0
1, 200580, Note_on_c, 0, 44, 55
1, 200600, Tempo, 1081081
1, 200640, Tempo, 1100917
1, 200640, Note_on_c, 0, 44, 0
1, 200640, Note_on_c, 0, 68, 0
1, 200640, Note_on_c, 0, 60, 0
1, 200640, Note_on_c, 0, 54, 0
1, 200640, Note_on_c, 0, 56, 0
1, 200640, Note_on_c, 0, 63, 0
1, 200640, Note_on_c, 0, 53, 68
1, 200640, Note_on_c, 0, 61, 68
1, 200640, Note_on_c, 0, 68, 80
1, 200640, Note_on_c, 0, 49, 68
1, 200648, Control_c, 0, 64, 0
1, 200749, Control_c, 0, 64, 127
1, 201120, Tempo, 1500000
1, 201120, Note_on_c, 0, 49, 0
1, 201120, Note_on_c, 0, 53, 0
1, 201120, Note_on_c, 0, 61, 0
1, 201120, Note_on_c, 0, 68, 0
1, 201120, Note_on_c, 0, 49, 68
1, 201237, Control_c, 0, 64, 0
1, 201360, Tempo, 609137
1, 201360, Note_on_c, 0, 49, 0
1, 201360, Note_on_c, 0, 40, 61
1, 201380, Tempo, 612245
1, 201389, Control_c, 0, 64, 127
1, 201400, Tempo, 618557
1, 201420, Tempo, 621762
1, 201440, Tempo, 628272
1, 201440, Note_on_c, 0, 40, 0
1, 201440, Note_on_c, 0, 41, 61
1, 201460, Tempo, 631579
1, 201480, Tempo, 638298
1, 201500, Tempo, 641711
1, 201520, Tempo, 648649
1, 201520, Note_on_c, 0, 41, 0
1, 201520, Note_on_c, 0, 42, 61
1, 201540, Tempo, 652174
1, 201560, Tempo, 659341
1, 201580, Tempo, 666667
1, 201600, Tempo, 1111111
1, 201600, Note_on_c, 0, 42, 0
1, 201600, Note_on_c, 0, 57, 68
1, 201600, Note_on_c, 0, 51, 68
1, 201600, Note_on_c, 0, 61, 68
1, 201600, Note_on_c, 0, 65, 80
1, 201600, Note_on_c, 0, 41, 61
1, 201614, Control_c, 0, 64, 0
1, 201643, Control_c, 0, 64, 127
1, 201645, Note_on_c, 0, 41, 0
1, 201645, Note_on_c, 0, 42, 56
1, 201680, Tempo, 1100917
1, 201690, Note_on_c, 0, 42, 0
1, 201690, Note_on_c, 0, 41, 64
1, 201720, Tempo, 1090909
1, 201735, Note_on_c, 0, 41, 0
1, 201735, Note_on_c, 0, 42, 57
1, 201760, Tempo, 1081081
1, 201780, Note_on_c, 0, 42, 0
1, 201780, Note_on_c, 0, 41, 66
1, 201800, Tempo, 1071429
1, 201825, Note_on_c, 0, 41, 0
1, 201825, Note_on_c, 0, 42, 59
1, 201840, Tempo, 1061947
1, 201870, Note_on_c, 0, 42, 0
1, 201870, Note_on_c, 0, 41, 68
1, 201880, Tempo, 1052632
1, 201915, Note_on_c, 0, 41, 0
1, 201915, Note_on_c, 0, 42, 61
1, 201920, Tempo, 1043478
1, 201960, Tempo, 1034483
1, 201960, Note_on_c, 0, 42, 0
1, 201960, Note_on_c, 0, 41, 70
1, 202000, Tempo, 1025641
1, 202005, Note_on_c, 0, 41, 0
1, 202005, Note_on_c, 0, 42, 65
1, 202040, Tempo, 1016949
1, 202050, Note_on_c, 0, 42, 0
1, 202050, Note_on_c, 0, 41, 73
1, 202080, Tempo, 1008403
1, 202080, Note_on_c, 0, 65, 0
1, 202080, Note_on_c, 0, 61, 0
1, 202080, Note_on_c, 0, 57, 0
1, 202080, Note_on_c, 0, 51, 0
1, 202080, Note_on_c, 0, 51, 68
1, 202080, Note_on_c, 0, 57, 68
1, 202080, Note_on_c, 0, 60, 68
1, 202080, Note_on_c, 0, 65, 80
1, 202095, Note_on_c, 0, 41, 0
1, 202095, Note_on_c, 0, 42, 66
1, 202097, Control_c, 0, 64, 0
1, 202120, Tempo, 1000000
1, 202126, Control_c, 0, 64, 127
1, 202140, Note_on_c, 0, 42, 0
1, 202140, Note_on_c, 0, 41, 72
1, 202185, Note_on_c, 0, 41, 0
1, 202186, Note_on_c, 0, 42, 63
1, 202200, Tempo, 1008403
1, 202230, Note_on_c, 0, 41, 69
1, 202231, Note_on_c, 0, 42, 0
1, 202240, Tempo, 1016949
1, 202275, Note_on_c, 0, 41, 0
1, 202275, Note_on_c, 0, 42, 60
1, 202280, Tempo, 1025641
1, 202320, Tempo, 1034483
1, 202320, Note_on_c, 0, 41, 66
1, 202321, Note_on_c, 0, 42, 0
1, 202360, Tempo, 1043478
1, 202380, Note_on_c, 0, 41, 0
1, 202380, Note_on_c, 0, 42, 58
1, 202400, Tempo, 1052632
1, 202440, Tempo, 1061947
1, 202440, Note_on_c, 0, 42, 0
1, 202440, Note_on_c, 0, 40, 64
1, 202480, Tempo, 1071429
1, 202500, Note_on_c, 0, 40, 0
1, 202500, Note_on_c, 0, 41, 55
1, 202520, Tempo, 1081081
1, 202560, Tempo, 1100917
1, 202560, Note_on_c, 0, 41, 0
1, 202560, Note_on_c, 0, 65, 0
1, 202560, Note_on_c, 0, 51, 0
1, 202560, Note_on_c, 0, 57, 0
1, 202560, Note_on_c, 0, 60, 0
1, 202560, Note_on_c, 0, 49, 68
1, 202560, Note_on_c, 0, 58, 80
1, 202560, Note_on_c, 0, 42, 64
1, 202578, Control_c, 0, 64, 0
1, 202663, Control_c, 0, 64, 127
1, 203040, Tempo, 1132075
1, 203040, Note_on_c, 0, 42, 0
1, 203040, Note_on_c, 0, 41, 47
1, 203280, Tempo, 1176471
1, 203280, Note_on_c, 0, 41, 0
1, 203280, Note_on_c, 0, 37, 39
1, 203520, Tempo, 1059322
1, 203520, Note_on_c, 0, 37, 0
1, 203520, Note_on_c, 0, 58, 0
1, 203520, Note_on_c, 0, 49, 0
1, 203520, Note_on_c, 0, 46, 39
1, 203520, Note_on_c, 0, 53, 39
1, 203520, Note_on_c, 0, 58, 46
1, 203520, Control_c, 0, 64, 0
1, 203520, Note_on_c, 0, 34, 32
1, 203520, Note_on_c, 0, 41, 32
1, 203520, Note_on_c, 0, 46, 39
1, 203530, Control_c, 0, 64, 0
1, 203584, Control_c, 0, 64, 127
1, 204000, Tempo, 1090513
1, 204000, Note_on_c, 0, 46, 0
1, 204000, Note_on_c, 0, 53, 0
1, 204000, Note_on_c, 0, 58, 0
1, 204000, Note_on_c, 0, 46, 0
1, 204000, Note_on_c, 0, 41, 0
1, 204000, Note_on_c, 0, 34, 0
1, 204000, Note_on_c, 0, 54, 39
1, 204000, Note_on_c, 0, 58, 46
1, 204000, Note_on_c, 0, 37, 28
1, 204000, Note_on_c, 0, 42, 34
1, 204000, Note_on_c, 0, 49, 34
1, 204014, Control_c, 0, 64, 0
1, 204141, Control_c, 0, 64, 127
1, 204360, Note_on_c, 0, 58, 0
1, 204360, Note_on_c, 0, 58, 41
1, 204468, Note_on_c, 0, 58, 0
1, 204480, Tempo, 1082446
1, 204480, Note_on_c, 0, 49, 0
1, 204480, Note_on_c, 0, 54, 0
1, 204480, Note_on_c, 0, 37, 0
1, 204480, Note_on_c, 0, 42, 0
1, 204480, Note_on_c, 0, 53, 39
1, 204480, Note_on_c, 0, 58, 46
1, 204480, Note_on_c, 0, 34, 32
1, 204480, Note_on_c, 0, 41, 32
1, 204480, Note_on_c, 0, 46, 39
1, 204493, Control_c, 0, 64, 0
1, 204614, Control_c, 0, 64, 127
1, 204960, Tempo, 1156069
1, 204960, Note_on_c, 0, 46, 0
1, 204960, Note_on_c, 0, 34, 0
1, 204960, Note_on_c, 0, 53, 0
1, 204960, Note_on_c, 0, 58, 0
1, 204960, Note_on_c, 0, 41, 0
1, 204960, Note_on_c, 0, 61, 45
1, 204960, Note_on_c, 0, 54, 37
1, 204960, Note_on_c, 0, 37, 21
1, 204960, Note_on_c, 0, 42, 26
1, 204960, Note_on_c, 0, 49, 26
1, 204971, Control_c, 0, 64, 0
1, 205045, Control_c, 0, 64, 127
1, 205320, Note_on_c, 0, 61, 0
1, 205320, Note_on_c, 0, 60, 40
1, 205380, Note_on_c, 0, 60, 0
1, 205380, Note_on_c, 0, 61, 37
1, 205440, Tempo, 1232033
1, 205440, Note_on_c, 0, 61, 0
1, 205440, Note_on_c, 0, 42, 0
1, 205440, Note_on_c, 0, 54, 0
1, 205440, Note_on_c, 0, 37, 0
1, 205440, Note_on_c, 0, 49, 0
1, 205440, Note_on_c, 0, 60, 42
1, 205440, Note_on_c, 0, 53, 36
1, 205440, Note_on_c, 0, 34, 26
1, 205440, Note_on_c, 0, 41, 26
1, 205440, Note_on_c, 0, 46, 31
1, 205450, Control_c, 0, 64, 0
1, 205603, Control_c, 0, 64, 127
1, 205680, Tempo, 1295896
1, 205800, Note_on_c, 0, 60, 0
1, 205800, Note_on_c, 0, 58, 36
1, 205908, Note_on_c, 0, 58, 0
1, 205920, Tempo, 1418440
1, 205920, Note_on_c, 0, 46, 0
1, 205920, Note_on_c, 0, 53, 0
1, 205920, Note_on_c, 0, 34, 0
1, 205920, Note_on_c, 0, 41, 0
1, 205920, Note_on_c, 0, 54, 33
1, 205920, Note_on_c, 0, 58, 40
1, 205920, Note_on_c, 0, 37, 22
1, 205920, Note_on_c, 0, 42, 22
1, 205920, Note_on_c, 0, 49, 27
1, 205937, Control_c, 0, 64, 0
1, 206104, Control_c, 0, 64, 127
1, 206280, Tempo, 2090592
1, 206280, Note_on_c, 0, 58, 0
1, 206280, Note_on_c, 0, 58, 28
1, 206388, Note_on_c, 0, 58, 0
1, 206395, Note_on_c, 0, 49, 0
1, 206400, Tempo, 1600000
1, 206400, Note_on_c, 0, 54, 0
1, 206400, Note_on_c, 0, 37, 0
1, 206400, Note_on_c, 0, 42, 0
1, 206400, Note_on_c, 0, 49, 26
1, 206400, Note_on_c, 0, 53, 26
1, 206400, Note_on_c, 0, 58, 31
1, 206400, Note_on_c, 0, 34, 20
1, 206400, Note_on_c, 0, 41, 24
1, 206413, Control_c, 0, 64, 0
1, 206640, Control_c, 0, 64, 127
1, 207360, Tempo, 1165049
1, 207360, Note_on_c, 0, 41, 0
1, 207360, Note_on_c, 0, 58, 0
1, 207360, Note_on_c, 0, 49, 0
1, 207360, Note_on_c, 0, 53, 0
1, 207360, Note_on_c, 0, 34, 0
1, 208774, Control_c, 0, 64, 0
1, 208774, End_track
0, 0, End_of_file
