0, 0, Header, 0, 1, 480
1, 0, Start_track
1, 0, Title_t, "Chopin Prelude  No. 22, Opus 28"
1, 0, Copyright_t, "Copyright © 2002 by Bernd Krueger "
1, 0, Text_t, "Frederic Chopin"
1, 0, Text_t, "Molto agitato"
1, 0, Text_t, "Fertiggestellt am 24.12.2002\012"
1, 0, Text_t, "Normierung: 23.12.2002\012"
1, 0, Text_t, "Update am 28.6.2010\012"
1, 0, Text_t, "Update am 23.2.2014\012"
1, 0, Text_t, "Dauer: 0:44 Minuten\012"
1, 0, SMPTE_offset, 96, 0, 3, 0, 0
1, 0, Time_signature, 6, 3, 12, 8
1, 0, Key_signature, -2, "major"
1, 0, Tempo, 336493
1, 0, Program_c, 0, 0
1, 0, Control_c, 0, 7, 100
1, 0, Control_c, 0, 10, 64
1, 0, Control_c, 0, 64, 0
1, 0, Control_c, 0, 91, 127
1, 0, Text_t, "bdca426d104a26ac9dcb070447587523"
1, 0, Program_c, 0, 0
1, 0, Control_c, 0, 7, 100
1, 0, Control_c, 0, 10, 64
1, 720, Tempo, 415053
1, 720, Note_on_c, 0, 34, 62
1, 720, Note_on_c, 0, 46, 74
1, 760, Tempo, 423819
1, 960, Tempo, 437764
1, 960, Note_on_c, 0, 46, 0
1, 960, Note_on_c, 0, 34, 0
1, 960, Note_on_c, 0, 33, 64
1, 960, Note_on_c, 0, 45, 77
1, 1200, Tempo, 459524
1, 1320, Note_on_c, 0, 45, 0
1, 1320, Note_on_c, 0, 33, 0
1, 1320, Note_on_c, 0, 31, 62
1, 1320, Note_on_c, 0, 43, 74
1, 1380, Note_on_c, 0, 43, 0
1, 1380, Note_on_c, 0, 31, 0
1, 1440, Tempo, 398486
1, 1440, Note_on_c, 0, 31, 64
1, 1440, Note_on_c, 0, 43, 77
1, 1474, Control_c, 0, 64, 127
1, 1680, Tempo, 381388
1, 1680, Note_on_c, 0, 60, 55
1, 1680, Note_on_c, 0, 57, 64
1, 1680, Note_on_c, 0, 63, 68
1, 1840, Tempo, 329670
1, 1920, Note_on_c, 0, 51, 64
1, 2160, Tempo, 338028
1, 2160, Note_on_c, 0, 51, 0
1, 2160, Note_on_c, 0, 63, 0
1, 2160, Note_on_c, 0, 62, 62
1, 2160, Note_on_c, 0, 50, 64
1, 2176, Control_c, 0, 64, 0
1, 2400, Tempo, 314136
1, 2400, Note_on_c, 0, 50, 0
1, 2400, Note_on_c, 0, 57, 0
1, 2400, Note_on_c, 0, 31, 0
1, 2400, Note_on_c, 0, 43, 0
1, 2400, Note_on_c, 0, 30, 64
1, 2400, Note_on_c, 0, 42, 77
1, 2640, Note_on_c, 0, 42, 0
1, 2640, Note_on_c, 0, 62, 0
1, 2640, Note_on_c, 0, 60, 0
1, 2640, Note_on_c, 0, 30, 0
1, 2640, Note_on_c, 0, 33, 61
1, 2640, Note_on_c, 0, 45, 73
1, 2820, Note_on_c, 0, 45, 0
1, 2820, Note_on_c, 0, 33, 0
1, 2880, Note_on_c, 0, 33, 64
1, 2880, Note_on_c, 0, 45, 77
1, 2949, Control_c, 0, 64, 127
1, 3120, Tempo, 306122
1, 3120, Note_on_c, 0, 66, 66
1, 3120, Note_on_c, 0, 63, 55
1, 3120, Note_on_c, 0, 60, 64
1, 3360, Note_on_c, 0, 60, 0
1, 3360, Note_on_c, 0, 54, 61
1, 3600, Note_on_c, 0, 54, 0
1, 3600, Note_on_c, 0, 66, 0
1, 3600, Note_on_c, 0, 55, 63
1, 3600, Note_on_c, 0, 67, 66
1, 3617, Control_c, 0, 64, 0
1, 3840, Tempo, 310881
1, 3840, Note_on_c, 0, 33, 0
1, 3840, Note_on_c, 0, 45, 0
1, 3840, Note_on_c, 0, 34, 64
1, 3840, Note_on_c, 0, 46, 77
1, 4080, Note_on_c, 0, 46, 0
1, 4080, Note_on_c, 0, 63, 0
1, 4080, Note_on_c, 0, 67, 0
1, 4080, Note_on_c, 0, 55, 0
1, 4080, Note_on_c, 0, 34, 0
1, 4080, Note_on_c, 0, 31, 63
1, 4080, Note_on_c, 0, 43, 75
1, 4320, Note_on_c, 0, 43, 0
1, 4320, Note_on_c, 0, 31, 0
1, 4320, Note_on_c, 0, 34, 64
1, 4320, Note_on_c, 0, 46, 77
1, 4400, Control_c, 0, 64, 127
1, 4560, Tempo, 294840
1, 4560, Note_on_c, 0, 63, 55
1, 4560, Note_on_c, 0, 60, 64
1, 4560, Note_on_c, 0, 67, 66
1, 4800, Note_on_c, 0, 60, 0
1, 4800, Note_on_c, 0, 55, 63
1, 5040, Note_on_c, 0, 55, 0
1, 5040, Note_on_c, 0, 67, 0
1, 5040, Note_on_c, 0, 66, 65
1, 5040, Note_on_c, 0, 54, 62
1, 5040, Note_on_c, 0, 60, 54
1, 5055, Control_c, 0, 64, 0
1, 5280, Tempo, 299790
1, 5280, Note_on_c, 0, 34, 0
1, 5280, Note_on_c, 0, 46, 0
1, 5280, Note_on_c, 0, 33, 64
1, 5280, Note_on_c, 0, 45, 77
1, 5520, Note_on_c, 0, 45, 0
1, 5520, Note_on_c, 0, 60, 0
1, 5520, Note_on_c, 0, 63, 0
1, 5520, Note_on_c, 0, 66, 0
1, 5520, Note_on_c, 0, 33, 0
1, 5520, Note_on_c, 0, 54, 0
1, 5520, Note_on_c, 0, 36, 62
1, 5520, Note_on_c, 0, 48, 73
1, 5700, Note_on_c, 0, 48, 0
1, 5700, Note_on_c, 0, 36, 0
1, 5760, Note_on_c, 0, 36, 68
1, 5760, Note_on_c, 0, 48, 81
1, 5880, Control_c, 0, 64, 127
1, 6000, Tempo, 290416
1, 6000, Note_on_c, 0, 66, 73
1, 6000, Note_on_c, 0, 63, 65
1, 6000, Note_on_c, 0, 69, 73
1, 6240, Note_on_c, 0, 63, 0
1, 6240, Note_on_c, 0, 57, 70
1, 6480, Note_on_c, 0, 57, 0
1, 6480, Note_on_c, 0, 69, 0
1, 6480, Note_on_c, 0, 66, 0
1, 6480, Note_on_c, 0, 67, 59
1, 6480, Note_on_c, 0, 58, 70
1, 6480, Note_on_c, 0, 70, 73
1, 6497, Control_c, 0, 64, 0
1, 6720, Tempo, 295406
1, 6720, Note_on_c, 0, 48, 0
1, 6720, Note_on_c, 0, 36, 0
1, 6720, Note_on_c, 0, 38, 69
1, 6720, Note_on_c, 0, 50, 83
1, 6960, Note_on_c, 0, 50, 0
1, 6960, Note_on_c, 0, 58, 0
1, 6960, Note_on_c, 0, 70, 0
1, 6960, Note_on_c, 0, 67, 0
1, 6960, Note_on_c, 0, 38, 0
1, 6960, Note_on_c, 0, 34, 67
1, 6960, Note_on_c, 0, 46, 80
1, 7200, Tempo, 305966
1, 7200, Note_on_c, 0, 46, 0
1, 7200, Note_on_c, 0, 34, 0
1, 7200, Note_on_c, 0, 49, 73
1, 7200, Note_on_c, 0, 61, 88
1, 7240, Control_c, 0, 64, 127
1, 7440, Tempo, 287425
1, 7440, Note_on_c, 0, 70, 70
1, 7440, Note_on_c, 0, 79, 79
1, 7440, Note_on_c, 0, 75, 66
1, 7680, Note_on_c, 0, 67, 71
1, 7920, Note_on_c, 0, 67, 0
1, 7920, Note_on_c, 0, 79, 0
1, 7920, Note_on_c, 0, 70, 0
1, 7920, Note_on_c, 0, 75, 0
1, 7920, Note_on_c, 0, 78, 77
1, 7920, Note_on_c, 0, 69, 64
1, 7920, Note_on_c, 0, 66, 64
1, 7920, Note_on_c, 0, 74, 64
1, 7930, Control_c, 0, 64, 0
1, 8080, Control_c, 0, 64, 127
1, 8160, Tempo, 293212
1, 8160, Note_on_c, 0, 49, 0
1, 8160, Note_on_c, 0, 61, 0
1, 8160, Note_on_c, 0, 50, 73
1, 8160, Note_on_c, 0, 62, 88
1, 8400, Note_on_c, 0, 62, 0
1, 8400, Note_on_c, 0, 74, 0
1, 8400, Note_on_c, 0, 78, 0
1, 8400, Note_on_c, 0, 69, 0
1, 8400, Note_on_c, 0, 50, 0
1, 8400, Note_on_c, 0, 66, 0
1, 8400, Note_on_c, 0, 45, 71
1, 8400, Note_on_c, 0, 57, 85
1, 8640, Note_on_c, 0, 57, 0
1, 8640, Note_on_c, 0, 45, 0
1, 8640, Note_on_c, 0, 47, 70
1, 8640, Note_on_c, 0, 59, 84
1, 8649, Control_c, 0, 64, 0
1, 8777, Control_c, 0, 64, 127
1, 8880, Tempo, 284212
1, 8880, Note_on_c, 0, 77, 75
1, 8880, Note_on_c, 0, 68, 67
1, 8880, Note_on_c, 0, 73, 64
1, 9120, Note_on_c, 0, 65, 68
1, 9360, Note_on_c, 0, 65, 0
1, 9360, Note_on_c, 0, 68, 0
1, 9360, Note_on_c, 0, 77, 0
1, 9360, Note_on_c, 0, 73, 0
1, 9360, Note_on_c, 0, 64, 60
1, 9360, Note_on_c, 0, 67, 60
1, 9360, Note_on_c, 0, 76, 74
1, 9360, Note_on_c, 0, 72, 60
1, 9375, Control_c, 0, 64, 0
1, 9509, Control_c, 0, 64, 127
1, 9600, Tempo, 294060
1, 9600, Note_on_c, 0, 47, 0
1, 9600, Note_on_c, 0, 59, 0
1, 9600, Note_on_c, 0, 48, 70
1, 9600, Note_on_c, 0, 60, 84
1, 9840, Note_on_c, 0, 60, 0
1, 9840, Note_on_c, 0, 72, 0
1, 9840, Note_on_c, 0, 64, 0
1, 9840, Note_on_c, 0, 67, 0
1, 9840, Note_on_c, 0, 48, 0
1, 9840, Note_on_c, 0, 76, 0
1, 9840, Note_on_c, 0, 43, 68
1, 9840, Note_on_c, 0, 55, 80
1, 10080, Note_on_c, 0, 55, 0
1, 10080, Note_on_c, 0, 43, 0
1, 10080, Note_on_c, 0, 47, 67
1, 10080, Note_on_c, 0, 59, 80
1, 10095, Control_c, 0, 64, 0
1, 10229, Control_c, 0, 64, 127
1, 10320, Tempo, 288226
1, 10320, Note_on_c, 0, 73, 61
1, 10320, Note_on_c, 0, 68, 64
1, 10320, Note_on_c, 0, 77, 72
1, 10560, Note_on_c, 0, 65, 65
1, 10800, Note_on_c, 0, 65, 0
1, 10800, Note_on_c, 0, 68, 0
1, 10800, Note_on_c, 0, 73, 0
1, 10800, Note_on_c, 0, 77, 0
1, 10800, Note_on_c, 0, 64, 58
1, 10800, Note_on_c, 0, 72, 58
1, 10800, Note_on_c, 0, 67, 58
1, 10800, Note_on_c, 0, 76, 71
1, 10817, Control_c, 0, 64, 0
1, 10949, Control_c, 0, 64, 127
1, 11040, Tempo, 299790
1, 11040, Note_on_c, 0, 47, 0
1, 11040, Note_on_c, 0, 59, 0
1, 11040, Note_on_c, 0, 48, 67
1, 11040, Note_on_c, 0, 60, 80
1, 11280, Note_on_c, 0, 60, 0
1, 11280, Note_on_c, 0, 76, 0
1, 11280, Note_on_c, 0, 64, 0
1, 11280, Note_on_c, 0, 72, 0
1, 11280, Note_on_c, 0, 48, 0
1, 11280, Note_on_c, 0, 67, 0
1, 11280, Note_on_c, 0, 43, 65
1, 11280, Note_on_c, 0, 55, 77
1, 11289, Control_c, 0, 64, 0
1, 11460, Note_on_c, 0, 55, 0
1, 11460, Note_on_c, 0, 43, 0
1, 11520, Tempo, 313988
1, 11520, Note_on_c, 0, 43, 74
1, 11520, Note_on_c, 0, 55, 88
1, 11760, Tempo, 307377
1, 11760, Note_on_c, 0, 55, 0
1, 11760, Note_on_c, 0, 43, 0
1, 11760, Note_on_c, 0, 72, 68
1, 11760, Note_on_c, 0, 63, 57
1, 11760, Note_on_c, 0, 69, 57
1, 11760, Note_on_c, 0, 75, 68
1, 11760, Note_on_c, 0, 42, 65
1, 11760, Note_on_c, 0, 54, 77
1, 11920, Tempo, 310720
1, 11960, Tempo, 297516
1, 12000, Tempo, 312337
1, 12000, Note_on_c, 0, 54, 0
1, 12000, Note_on_c, 0, 63, 0
1, 12000, Note_on_c, 0, 69, 0
1, 12000, Note_on_c, 0, 72, 0
1, 12000, Note_on_c, 0, 42, 0
1, 12000, Note_on_c, 0, 75, 0
1, 12000, Note_on_c, 0, 43, 65
1, 12000, Note_on_c, 0, 55, 77
1, 12040, Tempo, 313169
1, 12080, Tempo, 314795
1, 12120, Tempo, 316456
1, 12160, Tempo, 318150
1, 12200, Tempo, 319829
1, 12240, Tempo, 321543
1, 12240, Note_on_c, 0, 55, 0
1, 12240, Note_on_c, 0, 43, 0
1, 12240, Note_on_c, 0, 46, 68
1, 12240, Note_on_c, 0, 58, 80
1, 12280, Tempo, 323293
1, 12320, Tempo, 325045
1, 12360, Tempo, 325928
1, 12400, Tempo, 327708
1, 12440, Tempo, 329489
1, 12480, Tempo, 331327
1, 12480, Note_on_c, 0, 58, 0
1, 12480, Note_on_c, 0, 46, 0
1, 12480, Note_on_c, 0, 45, 65
1, 12480, Note_on_c, 0, 57, 77
1, 12520, Tempo, 333185
1, 12560, Tempo, 335027
1, 12600, Tempo, 336908
1, 12640, Tempo, 338792
1, 12680, Tempo, 340754
1, 12720, Tempo, 369709
1, 12720, Note_on_c, 0, 57, 0
1, 12720, Note_on_c, 0, 45, 0
1, 12840, Note_on_c, 0, 43, 67
1, 12840, Note_on_c, 0, 55, 79
1, 12900, Note_on_c, 0, 55, 0
1, 12900, Note_on_c, 0, 43, 0
1, 12960, Tempo, 328587
1, 12960, Note_on_c, 0, 43, 64
1, 12960, Note_on_c, 0, 55, 77
1, 13075, Control_c, 0, 64, 127
1, 13200, Tempo, 307692
1, 13200, Note_on_c, 0, 75, 72
1, 13200, Note_on_c, 0, 69, 70
1, 13200, Note_on_c, 0, 72, 60
1, 13440, Note_on_c, 0, 63, 70
1, 13680, Note_on_c, 0, 63, 0
1, 13680, Note_on_c, 0, 75, 0
1, 13680, Note_on_c, 0, 74, 70
1, 13680, Note_on_c, 0, 62, 70
1, 13695, Control_c, 0, 64, 0
1, 13920, Tempo, 299790
1, 13920, Note_on_c, 0, 43, 0
1, 13920, Note_on_c, 0, 55, 0
1, 13920, Note_on_c, 0, 42, 64
1, 13920, Note_on_c, 0, 54, 77
1, 14160, Note_on_c, 0, 54, 0
1, 14160, Note_on_c, 0, 62, 0
1, 14160, Note_on_c, 0, 74, 0
1, 14160, Note_on_c, 0, 69, 0
1, 14160, Note_on_c, 0, 42, 0
1, 14160, Note_on_c, 0, 72, 0
1, 14160, Note_on_c, 0, 45, 61
1, 14160, Note_on_c, 0, 57, 73
1, 14340, Note_on_c, 0, 57, 0
1, 14340, Note_on_c, 0, 45, 0
1, 14400, Note_on_c, 0, 45, 64
1, 14400, Note_on_c, 0, 57, 77
1, 14469, Control_c, 0, 64, 127
1, 14640, Tempo, 285810
1, 14640, Note_on_c, 0, 78, 72
1, 14640, Note_on_c, 0, 75, 60
1, 14640, Note_on_c, 0, 72, 70
1, 14880, Note_on_c, 0, 72, 0
1, 14880, Note_on_c, 0, 66, 67
1, 15120, Note_on_c, 0, 66, 0
1, 15120, Note_on_c, 0, 78, 0
1, 15120, Note_on_c, 0, 67, 69
1, 15120, Note_on_c, 0, 79, 72
1, 15137, Control_c, 0, 64, 0
1, 15360, Tempo, 296633
1, 15360, Note_on_c, 0, 45, 0
1, 15360, Note_on_c, 0, 57, 0
1, 15360, Note_on_c, 0, 46, 64
1, 15360, Note_on_c, 0, 58, 77
1, 15400, Tempo, 292355
1, 15600, Note_on_c, 0, 58, 0
1, 15600, Note_on_c, 0, 75, 0
1, 15600, Note_on_c, 0, 79, 0
1, 15600, Note_on_c, 0, 67, 0
1, 15600, Note_on_c, 0, 46, 0
1, 15600, Note_on_c, 0, 43, 63
1, 15600, Note_on_c, 0, 55, 75
1, 15840, Note_on_c, 0, 55, 0
1, 15840, Note_on_c, 0, 43, 0
1, 15840, Note_on_c, 0, 46, 67
1, 15840, Note_on_c, 0, 58, 80
1, 15920, Control_c, 0, 64, 127
1, 16080, Tempo, 284212
1, 16080, Note_on_c, 0, 75, 63
1, 16080, Note_on_c, 0, 72, 73
1, 16080, Note_on_c, 0, 79, 75
1, 16320, Note_on_c, 0, 67, 72
1, 16560, Note_on_c, 0, 67, 0
1, 16560, Note_on_c, 0, 79, 0
1, 16560, Note_on_c, 0, 78, 74
1, 16560, Note_on_c, 0, 66, 71
1, 16575, Control_c, 0, 64, 0
1, 16800, Tempo, 295770
1, 16800, Note_on_c, 0, 46, 0
1, 16800, Note_on_c, 0, 58, 0
1, 16800, Note_on_c, 0, 45, 67
1, 16800, Note_on_c, 0, 57, 80
1, 17040, Note_on_c, 0, 57, 0
1, 17040, Note_on_c, 0, 66, 0
1, 17040, Note_on_c, 0, 75, 0
1, 17040, Note_on_c, 0, 72, 0
1, 17040, Note_on_c, 0, 45, 0
1, 17040, Note_on_c, 0, 78, 0
1, 17040, Note_on_c, 0, 48, 64
1, 17040, Note_on_c, 0, 60, 75
1, 17220, Note_on_c, 0, 60, 0
1, 17220, Note_on_c, 0, 48, 0
1, 17280, Note_on_c, 0, 48, 70
1, 17280, Note_on_c, 0, 60, 84
1, 17400, Control_c, 0, 64, 127
1, 17520, Tempo, 294435
1, 17520, Note_on_c, 0, 78, 66
1, 17520, Note_on_c, 0, 81, 79
1, 17520, Note_on_c, 0, 75, 70
1, 17560, Tempo, 290684
1, 17760, Note_on_c, 0, 75, 0
1, 17760, Note_on_c, 0, 69, 74
1, 18000, Tempo, 299252
1, 18000, Note_on_c, 0, 69, 0
1, 18000, Note_on_c, 0, 81, 0
1, 18000, Note_on_c, 0, 78, 0
1, 18000, Note_on_c, 0, 79, 64
1, 18000, Note_on_c, 0, 70, 74
1, 18000, Note_on_c, 0, 82, 78
1, 18017, Control_c, 0, 64, 0
1, 18187, Control_c, 0, 64, 127
1, 18240, Tempo, 311155
1, 18240, Note_on_c, 0, 60, 0
1, 18240, Note_on_c, 0, 48, 0
1, 18240, Note_on_c, 0, 50, 70
1, 18240, Note_on_c, 0, 62, 84
1, 18480, Note_on_c, 0, 62, 0
1, 18480, Note_on_c, 0, 70, 0
1, 18480, Note_on_c, 0, 82, 0
1, 18480, Note_on_c, 0, 79, 0
1, 18480, Note_on_c, 0, 50, 0
1, 18480, Note_on_c, 0, 46, 68
1, 18480, Note_on_c, 0, 58, 81
1, 18720, Tempo, 315640
1, 18720, Note_on_c, 0, 58, 0
1, 18720, Note_on_c, 0, 46, 0
1, 18720, Note_on_c, 0, 55, 73
1, 18720, Note_on_c, 0, 67, 86
1, 18731, Control_c, 0, 64, 0
1, 18869, Control_c, 0, 64, 127
1, 18960, Tempo, 298389
1, 18960, Note_on_c, 0, 67, 0
1, 18960, Note_on_c, 0, 55, 0
1, 18960, Note_on_c, 0, 79, 69
1, 18960, Note_on_c, 0, 82, 82
1, 18960, Note_on_c, 0, 51, 69
1, 18960, Note_on_c, 0, 63, 82
1, 19200, Note_on_c, 0, 63, 0
1, 19200, Note_on_c, 0, 51, 0
1, 19200, Note_on_c, 0, 70, 78
1, 19200, Note_on_c, 0, 50, 69
1, 19200, Note_on_c, 0, 62, 82
1, 19207, Control_c, 0, 64, 0
1, 19380, Note_on_c, 0, 62, 0
1, 19380, Note_on_c, 0, 50, 0
1, 19440, Note_on_c, 0, 79, 0
1, 19440, Note_on_c, 0, 82, 0
1, 19440, Note_on_c, 0, 70, 0
1, 19440, Note_on_c, 0, 50, 74
1, 19440, Note_on_c, 0, 62, 88
1, 19589, Control_c, 0, 64, 127
1, 19680, Tempo, 290684
1, 19680, Note_on_c, 0, 79, 68
1, 19680, Note_on_c, 0, 81, 81
1, 19680, Note_on_c, 0, 76, 63
1, 19920, Note_on_c, 0, 62, 0
1, 19920, Note_on_c, 0, 50, 0
1, 19920, Note_on_c, 0, 69, 78
1, 19920, Note_on_c, 0, 49, 69
1, 19920, Note_on_c, 0, 61, 82
1, 19929, Control_c, 0, 64, 0
1, 20160, Note_on_c, 0, 61, 0
1, 20160, Note_on_c, 0, 79, 0
1, 20160, Note_on_c, 0, 81, 0
1, 20160, Note_on_c, 0, 76, 0
1, 20160, Note_on_c, 0, 49, 0
1, 20160, Note_on_c, 0, 69, 0
1, 20160, Note_on_c, 0, 53, 73
1, 20160, Note_on_c, 0, 65, 86
1, 20229, Control_c, 0, 64, 127
1, 20400, Tempo, 293384
1, 20400, Note_on_c, 0, 65, 0
1, 20400, Note_on_c, 0, 53, 0
1, 20400, Note_on_c, 0, 77, 69
1, 20400, Note_on_c, 0, 80, 82
1, 20400, Note_on_c, 0, 49, 69
1, 20400, Note_on_c, 0, 61, 82
1, 20640, Note_on_c, 0, 61, 0
1, 20640, Note_on_c, 0, 49, 0
1, 20640, Note_on_c, 0, 68, 78
1, 20640, Note_on_c, 0, 48, 69
1, 20640, Note_on_c, 0, 60, 82
1, 20648, Control_c, 0, 64, 0
1, 20820, Note_on_c, 0, 60, 0
1, 20820, Note_on_c, 0, 48, 0
1, 20880, Note_on_c, 0, 77, 0
1, 20880, Note_on_c, 0, 80, 0
1, 20880, Note_on_c, 0, 68, 0
1, 20880, Note_on_c, 0, 48, 74
1, 20880, Note_on_c, 0, 60, 88
1, 20960, Control_c, 0, 64, 127
1, 21120, Tempo, 296545
1, 21120, Note_on_c, 0, 79, 81
1, 21120, Note_on_c, 0, 77, 68
1, 21120, Note_on_c, 0, 74, 63
1, 21160, Tempo, 290684
1, 21360, Note_on_c, 0, 60, 0
1, 21360, Note_on_c, 0, 48, 0
1, 21360, Note_on_c, 0, 67, 78
1, 21360, Note_on_c, 0, 47, 69
1, 21360, Note_on_c, 0, 59, 82
1, 21370, Control_c, 0, 64, 0
1, 21600, Note_on_c, 0, 59, 0
1, 21600, Note_on_c, 0, 79, 0
1, 21600, Note_on_c, 0, 77, 0
1, 21600, Note_on_c, 0, 74, 0
1, 21600, Note_on_c, 0, 47, 0
1, 21600, Note_on_c, 0, 67, 0
1, 21600, Note_on_c, 0, 51, 73
1, 21600, Note_on_c, 0, 63, 86
1, 21669, Control_c, 0, 64, 127
1, 21840, Tempo, 291290
1, 21840, Note_on_c, 0, 63, 0
1, 21840, Note_on_c, 0, 51, 0
1, 21840, Note_on_c, 0, 72, 69
1, 21840, Note_on_c, 0, 67, 69
1, 21840, Note_on_c, 0, 75, 82
1, 21840, Note_on_c, 0, 48, 69
1, 21840, Note_on_c, 0, 60, 82
1, 22080, Note_on_c, 0, 60, 0
1, 22080, Note_on_c, 0, 48, 0
1, 22080, Note_on_c, 0, 63, 79
1, 22080, Note_on_c, 0, 46, 70
1, 22080, Note_on_c, 0, 58, 83
1, 22320, Note_on_c, 0, 58, 0
1, 22320, Note_on_c, 0, 67, 0
1, 22320, Note_on_c, 0, 72, 0
1, 22320, Note_on_c, 0, 75, 0
1, 22320, Note_on_c, 0, 46, 0
1, 22320, Note_on_c, 0, 63, 0
1, 22320, Note_on_c, 0, 45, 77
1, 22320, Note_on_c, 0, 57, 90
1, 22329, Control_c, 0, 64, 0
1, 22469, Control_c, 0, 64, 127
1, 22560, Tempo, 297634
1, 22560, Note_on_c, 0, 57, 0
1, 22560, Note_on_c, 0, 45, 0
1, 22560, Note_on_c, 0, 72, 71
1, 22560, Note_on_c, 0, 66, 71
1, 22560, Note_on_c, 0, 75, 84
1, 22560, Note_on_c, 0, 48, 72
1, 22560, Note_on_c, 0, 60, 85
1, 22800, Tempo, 300888
1, 22800, Note_on_c, 0, 60, 0
1, 22800, Note_on_c, 0, 48, 0
1, 22800, Note_on_c, 0, 63, 82
1, 22800, Note_on_c, 0, 44, 72
1, 22800, Note_on_c, 0, 56, 86
1, 22808, Control_c, 0, 64, 0
1, 23040, Tempo, 291290
1, 23040, Note_on_c, 0, 56, 0
1, 23040, Note_on_c, 0, 66, 0
1, 23040, Note_on_c, 0, 72, 0
1, 23040, Note_on_c, 0, 75, 0
1, 23040, Note_on_c, 0, 44, 0
1, 23040, Note_on_c, 0, 63, 0
1, 23040, Note_on_c, 0, 67, 72
1, 23040, Note_on_c, 0, 72, 86
1, 23040, Note_on_c, 0, 63, 72
1, 23040, Note_on_c, 0, 75, 86
1, 23040, Note_on_c, 0, 43, 73
1, 23040, Note_on_c, 0, 55, 88
1, 23080, Tempo, 292298
1, 23160, Note_on_c, 0, 55, 0
1, 23160, Note_on_c, 0, 72, 0
1, 23160, Note_on_c, 0, 63, 0
1, 23160, Note_on_c, 0, 67, 0
1, 23160, Note_on_c, 0, 43, 0
1, 23160, Note_on_c, 0, 75, 0
1, 23200, Tempo, 293384
1, 23280, Note_on_c, 0, 72, 86
1, 23280, Note_on_c, 0, 63, 72
1, 23280, Note_on_c, 0, 68, 72
1, 23280, Note_on_c, 0, 75, 86
1, 23280, Note_on_c, 0, 42, 74
1, 23280, Note_on_c, 0, 54, 89
1, 23320, Tempo, 294435
1, 23400, Note_on_c, 0, 54, 0
1, 23400, Note_on_c, 0, 63, 0
1, 23400, Note_on_c, 0, 68, 0
1, 23400, Note_on_c, 0, 72, 0
1, 23400, Note_on_c, 0, 42, 0
1, 23400, Note_on_c, 0, 75, 0
1, 23440, Tempo, 295465
1, 23520, Tempo, 296545
1, 23520, Note_on_c, 0, 41, 75
1, 23520, Note_on_c, 0, 53, 90
1, 23640, Tempo, 297634
1, 23640, Note_on_c, 0, 53, 0
1, 23640, Note_on_c, 0, 41, 0
1, 23760, Tempo, 298656
1, 23760, Note_on_c, 0, 40, 75
1, 23760, Note_on_c, 0, 52, 91
1, 23880, Tempo, 299790
1, 23880, Note_on_c, 0, 52, 0
1, 23880, Note_on_c, 0, 40, 0
1, 23960, Tempo, 300888
1, 24000, Note_on_c, 0, 39, 77
1, 24000, Note_on_c, 0, 51, 92
1, 24080, Tempo, 301963
1, 24120, Note_on_c, 0, 51, 0
1, 24120, Note_on_c, 0, 39, 0
1, 24200, Tempo, 303107
1, 24240, Note_on_c, 0, 38, 78
1, 24240, Note_on_c, 0, 50, 92
1, 24320, Tempo, 304213
1, 24360, Note_on_c, 0, 50, 0
1, 24360, Note_on_c, 0, 38, 0
1, 24400, Tempo, 305344
1, 24480, Tempo, 298656
1, 24480, Control_c, 0, 64, 127
1, 24480, Note_on_c, 0, 37, 85
1, 24480, Note_on_c, 0, 49, 101
1, 24660, Note_on_c, 0, 49, 0
1, 24660, Note_on_c, 0, 37, 0
1, 24720, Note_on_c, 0, 77, 85
1, 24720, Note_on_c, 0, 73, 74
1, 24720, Note_on_c, 0, 68, 72
1, 24720, Note_on_c, 0, 49, 78
1, 24720, Note_on_c, 0, 61, 92
1, 24900, Note_on_c, 0, 61, 0
1, 24900, Note_on_c, 0, 49, 0
1, 24960, Note_on_c, 0, 65, 82
1, 24960, Note_on_c, 0, 49, 78
1, 24960, Note_on_c, 0, 61, 92
1, 25140, Note_on_c, 0, 61, 0
1, 25140, Note_on_c, 0, 49, 0
1, 25200, Note_on_c, 0, 77, 0
1, 25200, Note_on_c, 0, 68, 0
1, 25200, Note_on_c, 0, 73, 0
1, 25200, Note_on_c, 0, 65, 0
1, 25200, Note_on_c, 0, 49, 81
1, 25200, Note_on_c, 0, 61, 96
1, 25380, Note_on_c, 0, 61, 0
1, 25380, Note_on_c, 0, 49, 0
1, 25440, Note_on_c, 0, 70, 74
1, 25440, Note_on_c, 0, 79, 88
1, 25440, Note_on_c, 0, 75, 74
1, 25440, Note_on_c, 0, 49, 78
1, 25440, Note_on_c, 0, 61, 92
1, 25620, Note_on_c, 0, 61, 0
1, 25620, Note_on_c, 0, 49, 0
1, 25680, Note_on_c, 0, 67, 85
1, 25680, Note_on_c, 0, 49, 73
1, 25680, Note_on_c, 0, 61, 86
1, 25860, Note_on_c, 0, 61, 0
1, 25860, Note_on_c, 0, 49, 0
1, 25920, Tempo, 288212
1, 25920, Note_on_c, 0, 70, 0
1, 25920, Note_on_c, 0, 75, 0
1, 25920, Note_on_c, 0, 79, 0
1, 25920, Note_on_c, 0, 67, 0
1, 25920, Note_on_c, 0, 48, 81
1, 25920, Note_on_c, 0, 60, 96
1, 25932, Control_c, 0, 64, 0
1, 25960, Tempo, 293384
1, 26120, Tempo, 294435
1, 26160, Note_on_c, 0, 60, 0
1, 26160, Note_on_c, 0, 48, 0
1, 26160, Note_on_c, 0, 75, 74
1, 26160, Note_on_c, 0, 72, 72
1, 26160, Note_on_c, 0, 80, 81
1, 26160, Note_on_c, 0, 46, 78
1, 26160, Note_on_c, 0, 58, 92
1, 26280, Tempo, 295465
1, 26400, Note_on_c, 0, 58, 0
1, 26400, Note_on_c, 0, 46, 0
1, 26400, Note_on_c, 0, 68, 82
1, 26400, Note_on_c, 0, 44, 78
1, 26400, Note_on_c, 0, 56, 92
1, 26440, Tempo, 296545
1, 26600, Tempo, 297634
1, 26640, Note_on_c, 0, 56, 0
1, 26640, Note_on_c, 0, 72, 0
1, 26640, Note_on_c, 0, 75, 0
1, 26640, Note_on_c, 0, 80, 0
1, 26640, Note_on_c, 0, 44, 0
1, 26640, Note_on_c, 0, 68, 0
1, 26640, Note_on_c, 0, 43, 82
1, 26640, Note_on_c, 0, 55, 97
1, 26760, Tempo, 298656
1, 26880, Note_on_c, 0, 55, 0
1, 26880, Note_on_c, 0, 43, 0
1, 26880, Note_on_c, 0, 72, 74
1, 26880, Note_on_c, 0, 68, 74
1, 26880, Note_on_c, 0, 75, 84
1, 26880, Note_on_c, 0, 41, 78
1, 26880, Note_on_c, 0, 53, 92
1, 26920, Tempo, 299790
1, 27080, Tempo, 300888
1, 27120, Tempo, 296545
1, 27120, Note_on_c, 0, 53, 0
1, 27120, Note_on_c, 0, 41, 0
1, 27120, Note_on_c, 0, 63, 85
1, 27120, Note_on_c, 0, 39, 74
1, 27120, Note_on_c, 0, 51, 89
1, 27200, Tempo, 297634
1, 27360, Note_on_c, 0, 51, 0
1, 27360, Note_on_c, 0, 68, 0
1, 27360, Note_on_c, 0, 72, 0
1, 27360, Note_on_c, 0, 75, 0
1, 27360, Note_on_c, 0, 39, 0
1, 27360, Note_on_c, 0, 63, 0
1, 27360, Note_on_c, 0, 37, 85
1, 27360, Note_on_c, 0, 49, 101
1, 27474, Control_c, 0, 64, 127
1, 27540, Note_on_c, 0, 49, 0
1, 27540, Note_on_c, 0, 37, 0
1, 27600, Note_on_c, 0, 68, 72
1, 27600, Note_on_c, 0, 73, 74
1, 27600, Note_on_c, 0, 77, 85
1, 27600, Note_on_c, 0, 49, 78
1, 27600, Note_on_c, 0, 61, 92
1, 27780, Note_on_c, 0, 61, 0
1, 27780, Note_on_c, 0, 49, 0
1, 27840, Note_on_c, 0, 65, 82
1, 27840, Note_on_c, 0, 49, 78
1, 27840, Note_on_c, 0, 61, 92
1, 28020, Note_on_c, 0, 61, 0
1, 28020, Note_on_c, 0, 49, 0
1, 28080, Note_on_c, 0, 68, 0
1, 28080, Note_on_c, 0, 77, 0
1, 28080, Note_on_c, 0, 73, 0
1, 28080, Note_on_c, 0, 65, 0
1, 28080, Note_on_c, 0, 49, 81
1, 28080, Note_on_c, 0, 61, 96
1, 28260, Note_on_c, 0, 61, 0
1, 28260, Note_on_c, 0, 49, 0
1, 28320, Note_on_c, 0, 75, 74
1, 28320, Note_on_c, 0, 79, 88
1, 28320, Note_on_c, 0, 70, 74
1, 28320, Note_on_c, 0, 49, 78
1, 28320, Note_on_c, 0, 61, 92
1, 28500, Note_on_c, 0, 61, 0
1, 28500, Note_on_c, 0, 49, 0
1, 28560, Note_on_c, 0, 67, 85
1, 28560, Note_on_c, 0, 49, 73
1, 28560, Note_on_c, 0, 61, 86
1, 28720, Tempo, 292298
1, 28740, Note_on_c, 0, 61, 0
1, 28740, Note_on_c, 0, 49, 0
1, 28800, Note_on_c, 0, 75, 0
1, 28800, Note_on_c, 0, 70, 0
1, 28800, Note_on_c, 0, 79, 0
1, 28800, Note_on_c, 0, 67, 0
1, 28800, Note_on_c, 0, 48, 81
1, 28800, Note_on_c, 0, 60, 96
1, 28810, Control_c, 0, 64, 0
1, 28880, Tempo, 293384
1, 29000, Tempo, 294435
1, 29040, Note_on_c, 0, 60, 0
1, 29040, Note_on_c, 0, 48, 0
1, 29040, Note_on_c, 0, 80, 81
1, 29040, Note_on_c, 0, 75, 74
1, 29040, Note_on_c, 0, 72, 72
1, 29040, Note_on_c, 0, 46, 78
1, 29040, Note_on_c, 0, 58, 92
1, 29120, Tempo, 295465
1, 29240, Tempo, 296545
1, 29280, Note_on_c, 0, 58, 0
1, 29280, Note_on_c, 0, 46, 0
1, 29280, Note_on_c, 0, 68, 82
1, 29280, Note_on_c, 0, 44, 78
1, 29280, Note_on_c, 0, 56, 92
1, 29360, Tempo, 297634
1, 29520, Tempo, 298656
1, 29520, Note_on_c, 0, 56, 0
1, 29520, Note_on_c, 0, 75, 0
1, 29520, Note_on_c, 0, 80, 0
1, 29520, Note_on_c, 0, 72, 0
1, 29520, Note_on_c, 0, 44, 0
1, 29520, Note_on_c, 0, 68, 0
1, 29520, Note_on_c, 0, 43, 82
1, 29520, Note_on_c, 0, 55, 97
1, 29640, Tempo, 299790
1, 29760, Tempo, 300888
1, 29760, Note_on_c, 0, 55, 0
1, 29760, Note_on_c, 0, 43, 0
1, 29760, Note_on_c, 0, 72, 68
1, 29760, Note_on_c, 0, 79, 84
1, 29760, Note_on_c, 0, 75, 71
1, 29760, Note_on_c, 0, 41, 78
1, 29760, Note_on_c, 0, 53, 92
1, 29880, Tempo, 301963
1, 30000, Tempo, 303107
1, 30000, Note_on_c, 0, 53, 0
1, 30000, Note_on_c, 0, 41, 0
1, 30000, Note_on_c, 0, 67, 85
1, 30000, Note_on_c, 0, 39, 74
1, 30000, Note_on_c, 0, 51, 89
1, 30120, Tempo, 300888
1, 30240, Tempo, 297634
1, 30240, Note_on_c, 0, 51, 0
1, 30240, Note_on_c, 0, 79, 0
1, 30240, Note_on_c, 0, 72, 0
1, 30240, Note_on_c, 0, 75, 0
1, 30240, Note_on_c, 0, 39, 0
1, 30240, Note_on_c, 0, 67, 0
1, 30240, Note_on_c, 0, 38, 77
1, 30240, Note_on_c, 0, 50, 90
1, 30343, Control_c, 0, 64, 127
1, 30480, Note_on_c, 0, 50, 0
1, 30480, Note_on_c, 0, 38, 0
1, 30480, Note_on_c, 0, 68, 64
1, 30480, Note_on_c, 0, 74, 67
1, 30480, Note_on_c, 0, 77, 77
1, 30480, Note_on_c, 0, 48, 69
1, 30480, Note_on_c, 0, 60, 82
1, 30660, Note_on_c, 0, 60, 0
1, 30660, Note_on_c, 0, 48, 0
1, 30720, Note_on_c, 0, 65, 73
1, 30720, Note_on_c, 0, 48, 69
1, 30720, Note_on_c, 0, 60, 82
1, 30900, Note_on_c, 0, 60, 0
1, 30900, Note_on_c, 0, 48, 0
1, 30960, Note_on_c, 0, 68, 0
1, 30960, Note_on_c, 0, 77, 0
1, 30960, Note_on_c, 0, 74, 0
1, 30960, Note_on_c, 0, 65, 0
1, 30960, Note_on_c, 0, 48, 72
1, 30960, Note_on_c, 0, 60, 86
1, 31140, Note_on_c, 0, 60, 0
1, 31140, Note_on_c, 0, 48, 0
1, 31200, Note_on_c, 0, 78, 79
1, 31200, Note_on_c, 0, 74, 67
1, 31200, Note_on_c, 0, 69, 67
1, 31200, Note_on_c, 0, 48, 69
1, 31200, Note_on_c, 0, 60, 82
1, 31380, Note_on_c, 0, 60, 0
1, 31380, Note_on_c, 0, 48, 0
1, 31440, Note_on_c, 0, 66, 77
1, 31440, Note_on_c, 0, 48, 66
1, 31440, Note_on_c, 0, 60, 78
1, 31620, Note_on_c, 0, 60, 0
1, 31620, Note_on_c, 0, 48, 0
1, 31680, Tempo, 291290
1, 31680, Note_on_c, 0, 78, 0
1, 31680, Note_on_c, 0, 69, 0
1, 31680, Note_on_c, 0, 74, 0
1, 31680, Note_on_c, 0, 66, 0
1, 31680, Note_on_c, 0, 46, 72
1, 31680, Note_on_c, 0, 58, 86
1, 31685, Control_c, 0, 64, 0
1, 31880, Tempo, 292298
1, 31920, Note_on_c, 0, 58, 0
1, 31920, Note_on_c, 0, 46, 0
1, 31920, Note_on_c, 0, 74, 67
1, 31920, Note_on_c, 0, 79, 72
1, 31920, Note_on_c, 0, 70, 64
1, 31920, Note_on_c, 0, 45, 69
1, 31920, Note_on_c, 0, 57, 82
1, 32080, Tempo, 293384
1, 32160, Note_on_c, 0, 57, 0
1, 32160, Note_on_c, 0, 45, 0
1, 32160, Note_on_c, 0, 67, 73
1, 32160, Note_on_c, 0, 43, 69
1, 32160, Note_on_c, 0, 55, 82
1, 32240, Tempo, 294435
1, 32400, Note_on_c, 0, 55, 0
1, 32400, Note_on_c, 0, 79, 0
1, 32400, Note_on_c, 0, 74, 0
1, 32400, Note_on_c, 0, 70, 0
1, 32400, Note_on_c, 0, 43, 0
1, 32400, Note_on_c, 0, 67, 0
1, 32400, Note_on_c, 0, 39, 73
1, 32400, Note_on_c, 0, 51, 88
1, 32440, Tempo, 295465
1, 32600, Tempo, 296545
1, 32640, Note_on_c, 0, 51, 0
1, 32640, Note_on_c, 0, 39, 0
1, 32640, Note_on_c, 0, 72, 75
1, 32640, Note_on_c, 0, 67, 67
1, 32640, Note_on_c, 0, 69, 67
1, 32640, Note_on_c, 0, 38, 69
1, 32640, Note_on_c, 0, 50, 82
1, 32800, Tempo, 297634
1, 32880, Note_on_c, 0, 50, 0
1, 32880, Note_on_c, 0, 38, 0
1, 32880, Note_on_c, 0, 60, 77
1, 32880, Note_on_c, 0, 36, 67
1, 32880, Note_on_c, 0, 48, 79
1, 32960, Tempo, 298656
1, 33120, Tempo, 305344
1, 33120, Note_on_c, 0, 48, 0
1, 33120, Note_on_c, 0, 67, 0
1, 33120, Note_on_c, 0, 72, 0
1, 33120, Note_on_c, 0, 69, 0
1, 33120, Note_on_c, 0, 36, 0
1, 33120, Note_on_c, 0, 60, 0
1, 33120, Note_on_c, 0, 34, 86
1, 33120, Note_on_c, 0, 46, 86
1, 33240, Control_c, 0, 64, 127
1, 33360, Tempo, 296545
1, 33360, Note_on_c, 0, 67, 64
1, 33360, Note_on_c, 0, 74, 77
1, 33360, Note_on_c, 0, 70, 69
1, 33600, Note_on_c, 0, 46, 0
1, 33600, Note_on_c, 0, 34, 0
1, 33600, Note_on_c, 0, 62, 73
1, 33840, Tempo, 306513
1, 33840, Note_on_c, 0, 62, 0
1, 33840, Note_on_c, 0, 70, 0
1, 33840, Note_on_c, 0, 67, 0
1, 33840, Note_on_c, 0, 74, 0
1, 33840, Note_on_c, 0, 39, 86
1, 33840, Note_on_c, 0, 51, 86
1, 33855, Control_c, 0, 64, 0
1, 34040, Tempo, 297634
1, 34080, Note_on_c, 0, 63, 67
1, 34080, Note_on_c, 0, 58, 67
1, 34080, Note_on_c, 0, 67, 75
1, 34160, Control_c, 0, 64, 127
1, 34320, Note_on_c, 0, 51, 0
1, 34320, Note_on_c, 0, 39, 0
1, 34320, Note_on_c, 0, 55, 77
1, 34560, Tempo, 303107
1, 34560, Note_on_c, 0, 55, 0
1, 34560, Note_on_c, 0, 67, 0
1, 34560, Note_on_c, 0, 63, 0
1, 34560, Note_on_c, 0, 58, 0
1, 34560, Note_on_c, 0, 33, 86
1, 34560, Note_on_c, 0, 45, 86
1, 34569, Control_c, 0, 64, 0
1, 34743, Control_c, 0, 64, 127
1, 34800, Note_on_c, 0, 72, 77
1, 34800, Note_on_c, 0, 67, 69
1, 34800, Note_on_c, 0, 63, 64
1, 34840, Tempo, 298656
1, 35040, Note_on_c, 0, 45, 0
1, 35040, Note_on_c, 0, 33, 0
1, 35040, Note_on_c, 0, 60, 73
1, 35280, Tempo, 305344
1, 35280, Note_on_c, 0, 60, 0
1, 35280, Note_on_c, 0, 63, 0
1, 35280, Note_on_c, 0, 72, 0
1, 35280, Note_on_c, 0, 67, 0
1, 35280, Note_on_c, 0, 38, 86
1, 35280, Note_on_c, 0, 50, 86
1, 35297, Control_c, 0, 64, 0
1, 35520, Tempo, 299790
1, 35520, Note_on_c, 0, 66, 67
1, 35520, Note_on_c, 0, 70, 70
1, 35543, Control_c, 0, 64, 127
1, 35760, Note_on_c, 0, 70, 0
1, 35760, Note_on_c, 0, 38, 0
1, 35760, Note_on_c, 0, 50, 0
1, 35760, Note_on_c, 0, 66, 0
1, 35760, Note_on_c, 0, 69, 77
1, 35760, Note_on_c, 0, 60, 77
1, 36000, Note_on_c, 0, 60, 0
1, 36000, Note_on_c, 0, 69, 0
1, 36000, Note_on_c, 0, 37, 85
1, 36000, Note_on_c, 0, 49, 101
1, 36004, Control_c, 0, 64, 0
1, 36137, Control_c, 0, 64, 127
1, 36180, Note_on_c, 0, 49, 0
1, 36180, Note_on_c, 0, 37, 0
1, 36240, Note_on_c, 0, 73, 74
1, 36240, Note_on_c, 0, 68, 72
1, 36240, Note_on_c, 0, 77, 85
1, 36240, Note_on_c, 0, 49, 78
1, 36240, Note_on_c, 0, 61, 92
1, 36420, Note_on_c, 0, 61, 0
1, 36420, Note_on_c, 0, 49, 0
1, 36480, Note_on_c, 0, 65, 82
1, 36480, Note_on_c, 0, 49, 78
1, 36480, Note_on_c, 0, 61, 92
1, 36660, Note_on_c, 0, 61, 0
1, 36660, Note_on_c, 0, 49, 0
1, 36720, Note_on_c, 0, 73, 0
1, 36720, Note_on_c, 0, 77, 0
1, 36720, Note_on_c, 0, 68, 0
1, 36720, Note_on_c, 0, 65, 0
1, 36720, Note_on_c, 0, 49, 81
1, 36720, Note_on_c, 0, 61, 96
1, 36900, Note_on_c, 0, 61, 0
1, 36900, Note_on_c, 0, 49, 0
1, 36960, Note_on_c, 0, 75, 74
1, 36960, Note_on_c, 0, 70, 74
1, 36960, Note_on_c, 0, 79, 88
1, 36960, Note_on_c, 0, 49, 78
1, 36960, Note_on_c, 0, 61, 92
1, 37140, Note_on_c, 0, 61, 0
1, 37140, Note_on_c, 0, 49, 0
1, 37200, Note_on_c, 0, 67, 85
1, 37200, Note_on_c, 0, 49, 73
1, 37200, Note_on_c, 0, 61, 86
1, 37380, Note_on_c, 0, 61, 0
1, 37380, Note_on_c, 0, 49, 0
1, 37440, Tempo, 294435
1, 37440, Note_on_c, 0, 75, 0
1, 37440, Note_on_c, 0, 79, 0
1, 37440, Note_on_c, 0, 70, 0
1, 37440, Note_on_c, 0, 67, 0
1, 37440, Note_on_c, 0, 48, 81
1, 37440, Note_on_c, 0, 60, 96
1, 37446, Control_c, 0, 64, 0
1, 37640, Tempo, 295465
1, 37680, Note_on_c, 0, 60, 0
1, 37680, Note_on_c, 0, 48, 0
1, 37680, Note_on_c, 0, 72, 72
1, 37680, Note_on_c, 0, 75, 74
1, 37680, Note_on_c, 0, 80, 81
1, 37680, Note_on_c, 0, 46, 78
1, 37680, Note_on_c, 0, 58, 92
1, 37840, Tempo, 296545
1, 37920, Note_on_c, 0, 58, 0
1, 37920, Note_on_c, 0, 46, 0
1, 37920, Note_on_c, 0, 68, 82
1, 37920, Note_on_c, 0, 44, 78
1, 37920, Note_on_c, 0, 56, 92
1, 38040, Tempo, 297634
1, 38160, Note_on_c, 0, 56, 0
1, 38160, Note_on_c, 0, 75, 0
1, 38160, Note_on_c, 0, 72, 0
1, 38160, Note_on_c, 0, 80, 0
1, 38160, Note_on_c, 0, 44, 0
1, 38160, Note_on_c, 0, 68, 0
1, 38160, Note_on_c, 0, 43, 82
1, 38160, Note_on_c, 0, 55, 97
1, 38200, Tempo, 298656
1, 38400, Tempo, 299790
1, 38400, Note_on_c, 0, 55, 0
1, 38400, Note_on_c, 0, 43, 0
1, 38400, Note_on_c, 0, 72, 74
1, 38400, Note_on_c, 0, 75, 84
1, 38400, Note_on_c, 0, 68, 74
1, 38400, Note_on_c, 0, 41, 78
1, 38400, Note_on_c, 0, 53, 92
1, 38600, Tempo, 300888
1, 38640, Note_on_c, 0, 53, 0
1, 38640, Note_on_c, 0, 41, 0
1, 38640, Note_on_c, 0, 63, 85
1, 38640, Note_on_c, 0, 39, 74
1, 38640, Note_on_c, 0, 51, 89
1, 38760, Tempo, 301963
1, 38880, Tempo, 300888
1, 38880, Note_on_c, 0, 51, 0
1, 38880, Note_on_c, 0, 75, 0
1, 38880, Note_on_c, 0, 72, 0
1, 38880, Note_on_c, 0, 68, 0
1, 38880, Note_on_c, 0, 39, 0
1, 38880, Note_on_c, 0, 63, 0
1, 38880, Note_on_c, 0, 37, 85
1, 38880, Note_on_c, 0, 49, 101
1, 38994, Control_c, 0, 64, 127
1, 39060, Note_on_c, 0, 49, 0
1, 39060, Note_on_c, 0, 37, 0
1, 39120, Note_on_c, 0, 68, 72
1, 39120, Note_on_c, 0, 73, 74
1, 39120, Note_on_c, 0, 77, 85
1, 39120, Note_on_c, 0, 49, 78
1, 39120, Note_on_c, 0, 61, 92
1, 39300, Note_on_c, 0, 61, 0
1, 39300, Note_on_c, 0, 49, 0
1, 39360, Note_on_c, 0, 65, 82
1, 39360, Note_on_c, 0, 49, 78
1, 39360, Note_on_c, 0, 61, 92
1, 39540, Note_on_c, 0, 61, 0
1, 39540, Note_on_c, 0, 49, 0
1, 39600, Note_on_c, 0, 68, 0
1, 39600, Note_on_c, 0, 77, 0
1, 39600, Note_on_c, 0, 73, 0
1, 39600, Note_on_c, 0, 65, 0
1, 39600, Note_on_c, 0, 49, 81
1, 39600, Note_on_c, 0, 61, 96
1, 39780, Note_on_c, 0, 61, 0
1, 39780, Note_on_c, 0, 49, 0
1, 39840, Note_on_c, 0, 79, 88
1, 39840, Note_on_c, 0, 75, 74
1, 39840, Note_on_c, 0, 70, 74
1, 39840, Note_on_c, 0, 49, 78
1, 39840, Note_on_c, 0, 61, 92
1, 40020, Note_on_c, 0, 61, 0
1, 40020, Note_on_c, 0, 49, 0
1, 40080, Note_on_c, 0, 67, 85
1, 40080, Note_on_c, 0, 49, 73
1, 40080, Note_on_c, 0, 61, 86
1, 40260, Note_on_c, 0, 61, 0
1, 40260, Note_on_c, 0, 49, 0
1, 40320, Tempo, 292298
1, 40320, Note_on_c, 0, 79, 0
1, 40320, Note_on_c, 0, 70, 0
1, 40320, Note_on_c, 0, 75, 0
1, 40320, Note_on_c, 0, 67, 0
1, 40320, Note_on_c, 0, 48, 81
1, 40320, Note_on_c, 0, 60, 96
1, 40325, Control_c, 0, 64, 0
1, 40520, Tempo, 293384
1, 40560, Note_on_c, 0, 60, 0
1, 40560, Note_on_c, 0, 48, 0
1, 40560, Note_on_c, 0, 75, 74
1, 40560, Note_on_c, 0, 80, 81
1, 40560, Note_on_c, 0, 72, 72
1, 40560, Note_on_c, 0, 46, 78
1, 40560, Note_on_c, 0, 58, 92
1, 40680, Tempo, 294435
1, 40800, Note_on_c, 0, 58, 0
1, 40800, Note_on_c, 0, 46, 0
1, 40800, Note_on_c, 0, 68, 82
1, 40800, Note_on_c, 0, 44, 78
1, 40800, Note_on_c, 0, 56, 92
1, 40840, Tempo, 295465
1, 41000, Tempo, 296545
1, 41040, Note_on_c, 0, 56, 0
1, 41040, Note_on_c, 0, 80, 0
1, 41040, Note_on_c, 0, 75, 0
1, 41040, Note_on_c, 0, 72, 0
1, 41040, Note_on_c, 0, 44, 0
1, 41040, Note_on_c, 0, 68, 0
1, 41040, Note_on_c, 0, 43, 82
1, 41040, Note_on_c, 0, 55, 97
1, 41160, Tempo, 297634
1, 41280, Note_on_c, 0, 55, 0
1, 41280, Note_on_c, 0, 43, 0
1, 41280, Note_on_c, 0, 72, 66
1, 41280, Note_on_c, 0, 75, 67
1, 41280, Note_on_c, 0, 79, 84
1, 41280, Note_on_c, 0, 41, 78
1, 41280, Note_on_c, 0, 53, 92
1, 41320, Tempo, 298656
1, 41480, Tempo, 299790
1, 41520, Note_on_c, 0, 53, 0
1, 41520, Note_on_c, 0, 41, 0
1, 41520, Note_on_c, 0, 67, 85
1, 41520, Note_on_c, 0, 39, 74
1, 41520, Note_on_c, 0, 51, 89
1, 41640, Tempo, 300888
1, 41760, Note_on_c, 0, 51, 0
1, 41760, Note_on_c, 0, 75, 0
1, 41760, Note_on_c, 0, 72, 0
1, 41760, Note_on_c, 0, 79, 0
1, 41760, Note_on_c, 0, 39, 0
1, 41760, Note_on_c, 0, 67, 0
1, 41760, Note_on_c, 0, 38, 77
1, 41760, Note_on_c, 0, 50, 90
1, 41909, Control_c, 0, 64, 127
1, 42000, Note_on_c, 0, 50, 0
1, 42000, Note_on_c, 0, 38, 0
1, 42000, Note_on_c, 0, 68, 64
1, 42000, Note_on_c, 0, 74, 67
1, 42000, Note_on_c, 0, 77, 77
1, 42000, Note_on_c, 0, 48, 69
1, 42000, Note_on_c, 0, 60, 82
1, 42180, Note_on_c, 0, 60, 0
1, 42180, Note_on_c, 0, 48, 0
1, 42240, Note_on_c, 0, 65, 73
1, 42240, Note_on_c, 0, 48, 69
1, 42240, Note_on_c, 0, 60, 82
1, 42420, Note_on_c, 0, 60, 0
1, 42420, Note_on_c, 0, 48, 0
1, 42480, Note_on_c, 0, 68, 0
1, 42480, Note_on_c, 0, 77, 0
1, 42480, Note_on_c, 0, 74, 0
1, 42480, Note_on_c, 0, 65, 0
1, 42480, Note_on_c, 0, 48, 72
1, 42480, Note_on_c, 0, 60, 86
1, 42492, Control_c, 0, 64, 0
1, 42629, Control_c, 0, 64, 127
1, 42660, Note_on_c, 0, 60, 0
1, 42660, Note_on_c, 0, 48, 0
1, 42720, Note_on_c, 0, 74, 67
1, 42720, Note_on_c, 0, 69, 67
1, 42720, Note_on_c, 0, 78, 79
1, 42720, Note_on_c, 0, 48, 69
1, 42720, Note_on_c, 0, 60, 82
1, 42900, Note_on_c, 0, 60, 0
1, 42900, Note_on_c, 0, 48, 0
1, 42960, Note_on_c, 0, 66, 77
1, 42960, Note_on_c, 0, 48, 66
1, 42960, Note_on_c, 0, 60, 78
1, 43140, Note_on_c, 0, 60, 0
1, 43140, Note_on_c, 0, 48, 0
1, 43200, Tempo, 294435
1, 43200, Note_on_c, 0, 74, 0
1, 43200, Note_on_c, 0, 78, 0
1, 43200, Note_on_c, 0, 69, 0
1, 43200, Note_on_c, 0, 66, 0
1, 43200, Note_on_c, 0, 46, 72
1, 43200, Note_on_c, 0, 58, 86
1, 43206, Control_c, 0, 64, 0
1, 43440, Tempo, 295465
1, 43440, Note_on_c, 0, 58, 0
1, 43440, Note_on_c, 0, 46, 0
1, 43440, Note_on_c, 0, 74, 67
1, 43440, Note_on_c, 0, 79, 72
1, 43440, Note_on_c, 0, 70, 64
1, 43440, Note_on_c, 0, 45, 69
1, 43440, Note_on_c, 0, 57, 82
1, 43640, Tempo, 296545
1, 43680, Note_on_c, 0, 57, 0
1, 43680, Note_on_c, 0, 45, 0
1, 43680, Note_on_c, 0, 67, 73
1, 43680, Note_on_c, 0, 43, 69
1, 43680, Note_on_c, 0, 55, 82
1, 43840, Tempo, 297634
1, 43920, Note_on_c, 0, 55, 0
1, 43920, Note_on_c, 0, 79, 0
1, 43920, Note_on_c, 0, 74, 0
1, 43920, Note_on_c, 0, 70, 0
1, 43920, Note_on_c, 0, 43, 0
1, 43920, Note_on_c, 0, 67, 0
1, 43920, Note_on_c, 0, 39, 73
1, 43920, Note_on_c, 0, 51, 88
1, 44080, Tempo, 298656
1, 44160, Note_on_c, 0, 51, 0
1, 44160, Note_on_c, 0, 39, 0
1, 44160, Note_on_c, 0, 72, 75
1, 44160, Note_on_c, 0, 67, 67
1, 44160, Note_on_c, 0, 69, 67
1, 44160, Note_on_c, 0, 38, 69
1, 44160, Note_on_c, 0, 50, 82
1, 44280, Tempo, 299790
1, 44400, Note_on_c, 0, 50, 0
1, 44400, Note_on_c, 0, 38, 0
1, 44400, Note_on_c, 0, 60, 77
1, 44400, Note_on_c, 0, 36, 67
1, 44400, Note_on_c, 0, 48, 79
1, 44480, Tempo, 300888
1, 44640, Tempo, 308817
1, 44640, Note_on_c, 0, 48, 0
1, 44640, Note_on_c, 0, 67, 0
1, 44640, Note_on_c, 0, 72, 0
1, 44640, Note_on_c, 0, 69, 0
1, 44640, Note_on_c, 0, 36, 0
1, 44640, Note_on_c, 0, 60, 0
1, 44640, Note_on_c, 0, 34, 86
1, 44640, Note_on_c, 0, 46, 86
1, 44760, Control_c, 0, 64, 127
1, 44880, Tempo, 294060
1, 44880, Note_on_c, 0, 70, 69
1, 44880, Note_on_c, 0, 74, 77
1, 44880, Note_on_c, 0, 67, 64
1, 45120, Note_on_c, 0, 46, 0
1, 45120, Note_on_c, 0, 34, 0
1, 45120, Note_on_c, 0, 62, 73
1, 45360, Tempo, 303107
1, 45360, Note_on_c, 0, 62, 0
1, 45360, Note_on_c, 0, 67, 0
1, 45360, Note_on_c, 0, 70, 0
1, 45360, Note_on_c, 0, 74, 0
1, 45360, Note_on_c, 0, 39, 86
1, 45360, Note_on_c, 0, 51, 86
1, 45377, Control_c, 0, 64, 0
1, 45574, Control_c, 0, 64, 127
1, 45600, Tempo, 294060
1, 45600, Note_on_c, 0, 63, 67
1, 45600, Note_on_c, 0, 58, 67
1, 45600, Note_on_c, 0, 67, 75
1, 45840, Note_on_c, 0, 51, 0
1, 45840, Note_on_c, 0, 39, 0
1, 45840, Note_on_c, 0, 55, 77
1, 46080, Tempo, 303107
1, 46080, Note_on_c, 0, 55, 0
1, 46080, Note_on_c, 0, 67, 0
1, 46080, Note_on_c, 0, 63, 0
1, 46080, Note_on_c, 0, 58, 0
1, 46080, Note_on_c, 0, 33, 86
1, 46080, Note_on_c, 0, 45, 86
1, 46084, Control_c, 0, 64, 0
1, 46263, Control_c, 0, 64, 127
1, 46320, Tempo, 294927
1, 46320, Note_on_c, 0, 67, 69
1, 46320, Note_on_c, 0, 63, 64
1, 46320, Note_on_c, 0, 72, 77
1, 46560, Note_on_c, 0, 45, 0
1, 46560, Note_on_c, 0, 33, 0
1, 46560, Note_on_c, 0, 60, 73
1, 46800, Tempo, 303107
1, 46800, Note_on_c, 0, 60, 0
1, 46800, Note_on_c, 0, 72, 0
1, 46800, Note_on_c, 0, 67, 0
1, 46800, Note_on_c, 0, 63, 0
1, 46800, Note_on_c, 0, 38, 86
1, 46800, Note_on_c, 0, 50, 86
1, 46817, Control_c, 0, 64, 0
1, 46926, Control_c, 0, 64, 127
1, 47040, Tempo, 297634
1, 47040, Note_on_c, 0, 70, 70
1, 47040, Note_on_c, 0, 66, 67
1, 47280, Note_on_c, 0, 66, 0
1, 47280, Note_on_c, 0, 38, 0
1, 47280, Note_on_c, 0, 50, 0
1, 47280, Note_on_c, 0, 70, 0
1, 47280, Note_on_c, 0, 69, 77
1, 47280, Note_on_c, 0, 60, 77
1, 47520, Tempo, 301963
1, 47520, Note_on_c, 0, 60, 0
1, 47520, Note_on_c, 0, 69, 0
1, 47520, Note_on_c, 0, 34, 86
1, 47520, Note_on_c, 0, 46, 86
1, 47533, Control_c, 0, 64, 0
1, 47734, Control_c, 0, 64, 127
1, 47760, Tempo, 293212
1, 47760, Note_on_c, 0, 74, 77
1, 47760, Note_on_c, 0, 67, 64
1, 47760, Note_on_c, 0, 70, 69
1, 48000, Note_on_c, 0, 46, 0
1, 48000, Note_on_c, 0, 34, 0
1, 48000, Note_on_c, 0, 62, 73
1, 48240, Tempo, 303107
1, 48240, Note_on_c, 0, 62, 0
1, 48240, Note_on_c, 0, 70, 0
1, 48240, Note_on_c, 0, 74, 0
1, 48240, Note_on_c, 0, 67, 0
1, 48240, Note_on_c, 0, 39, 86
1, 48240, Note_on_c, 0, 51, 86
1, 48250, Control_c, 0, 64, 0
1, 48480, Tempo, 294927
1, 48480, Note_on_c, 0, 58, 67
1, 48480, Note_on_c, 0, 67, 75
1, 48480, Note_on_c, 0, 63, 67
1, 48560, Control_c, 0, 64, 127
1, 48720, Note_on_c, 0, 51, 0
1, 48720, Note_on_c, 0, 39, 0
1, 48720, Note_on_c, 0, 55, 77
1, 48960, Tempo, 307629
1, 48960, Note_on_c, 0, 55, 0
1, 48960, Note_on_c, 0, 63, 0
1, 48960, Note_on_c, 0, 58, 0
1, 48960, Note_on_c, 0, 67, 0
1, 48960, Note_on_c, 0, 33, 86
1, 48960, Note_on_c, 0, 45, 86
1, 48966, Control_c, 0, 64, 0
1, 49143, Control_c, 0, 64, 127
1, 49200, Tempo, 303797
1, 49200, Note_on_c, 0, 67, 69
1, 49200, Note_on_c, 0, 63, 64
1, 49200, Note_on_c, 0, 72, 77
1, 49440, Note_on_c, 0, 63, 0
1, 49440, Note_on_c, 0, 67, 0
1, 49440, Note_on_c, 0, 66, 73
1, 49440, Note_on_c, 0, 60, 73
1, 49457, Control_c, 0, 64, 0
1, 49560, Tempo, 328767
1, 49680, Tempo, 336134
1, 49680, Note_on_c, 0, 60, 0
1, 49680, Note_on_c, 0, 33, 0
1, 49680, Note_on_c, 0, 72, 0
1, 49680, Note_on_c, 0, 45, 0
1, 49680, Note_on_c, 0, 66, 0
1, 49680, Note_on_c, 0, 46, 81
1, 49680, Note_on_c, 0, 34, 68
1, 49920, Note_on_c, 0, 34, 0
1, 49920, Note_on_c, 0, 46, 0
1, 49920, Note_on_c, 0, 67, 75
1, 49920, Note_on_c, 0, 58, 67
1, 49920, Note_on_c, 0, 63, 67
1, 49920, Note_on_c, 0, 33, 70
1, 49920, Note_on_c, 0, 45, 84
1, 50160, Tempo, 366972
1, 50160, Note_on_c, 0, 45, 0
1, 50160, Note_on_c, 0, 33, 0
1, 50160, Note_on_c, 0, 55, 77
1, 50280, Note_on_c, 0, 31, 68
1, 50280, Note_on_c, 0, 43, 81
1, 50340, Note_on_c, 0, 43, 0
1, 50340, Note_on_c, 0, 31, 0
1, 50400, Tempo, 328587
1, 50400, Note_on_c, 0, 67, 0
1, 50400, Note_on_c, 0, 63, 0
1, 50400, Note_on_c, 0, 58, 0
1, 50400, Note_on_c, 0, 55, 0
1, 50400, Note_on_c, 0, 31, 77
1, 50400, Note_on_c, 0, 43, 92
1, 50537, Control_c, 0, 64, 127
1, 50640, Tempo, 310881
1, 50640, Note_on_c, 0, 60, 62
1, 50640, Note_on_c, 0, 63, 75
1, 50640, Note_on_c, 0, 57, 73
1, 50880, Note_on_c, 0, 51, 70
1, 51120, Note_on_c, 0, 51, 0
1, 51120, Note_on_c, 0, 63, 0
1, 51120, Note_on_c, 0, 50, 70
1, 51120, Note_on_c, 0, 62, 70
1, 51137, Control_c, 0, 64, 0
1, 51315, Control_c, 0, 64, 127
1, 51360, Tempo, 303030
1, 51360, Note_on_c, 0, 50, 0
1, 51360, Note_on_c, 0, 43, 0
1, 51360, Note_on_c, 0, 57, 0
1, 51360, Note_on_c, 0, 31, 0
1, 51360, Note_on_c, 0, 30, 70
1, 51360, Note_on_c, 0, 42, 84
1, 51600, Note_on_c, 0, 42, 0
1, 51600, Note_on_c, 0, 60, 0
1, 51600, Note_on_c, 0, 62, 0
1, 51600, Note_on_c, 0, 30, 0
1, 51600, Note_on_c, 0, 33, 67
1, 51600, Note_on_c, 0, 45, 80
1, 51614, Control_c, 0, 64, 0
1, 51780, Note_on_c, 0, 45, 0
1, 51780, Note_on_c, 0, 33, 0
1, 51840, Note_on_c, 0, 33, 70
1, 51840, Note_on_c, 0, 45, 84
1, 51977, Control_c, 0, 64, 127
1, 52080, Tempo, 294840
1, 52080, Note_on_c, 0, 63, 62
1, 52080, Note_on_c, 0, 60, 73
1, 52080, Note_on_c, 0, 66, 75
1, 52320, Note_on_c, 0, 60, 0
1, 52320, Note_on_c, 0, 54, 68
1, 52560, Note_on_c, 0, 54, 0
1, 52560, Note_on_c, 0, 66, 0
1, 52560, Note_on_c, 0, 67, 74
1, 52560, Note_on_c, 0, 55, 71
1, 52577, Control_c, 0, 64, 0
1, 52732, Control_c, 0, 64, 127
1, 52800, Tempo, 298656
1, 52800, Note_on_c, 0, 33, 0
1, 52800, Note_on_c, 0, 45, 0
1, 52800, Note_on_c, 0, 34, 73
1, 52800, Note_on_c, 0, 46, 89
1, 53040, Note_on_c, 0, 46, 0
1, 53040, Note_on_c, 0, 67, 0
1, 53040, Note_on_c, 0, 55, 0
1, 53040, Note_on_c, 0, 63, 0
1, 53040, Note_on_c, 0, 34, 0
1, 53040, Note_on_c, 0, 31, 73
1, 53040, Note_on_c, 0, 43, 88
1, 53280, Note_on_c, 0, 43, 0
1, 53280, Note_on_c, 0, 31, 0
1, 53280, Note_on_c, 0, 33, 75
1, 53280, Note_on_c, 0, 45, 91
1, 53349, Control_c, 0, 64, 0
1, 53467, Control_c, 0, 64, 127
1, 53520, Tempo, 291531
1, 53520, Note_on_c, 0, 66, 82
1, 53520, Note_on_c, 0, 63, 68
1, 53520, Note_on_c, 0, 60, 80
1, 53760, Note_on_c, 0, 60, 0
1, 53760, Note_on_c, 0, 54, 75
1, 54000, Note_on_c, 0, 54, 0
1, 54000, Note_on_c, 0, 66, 0
1, 54000, Note_on_c, 0, 55, 79
1, 54000, Note_on_c, 0, 67, 82
1, 54017, Control_c, 0, 64, 0
1, 54137, Control_c, 0, 64, 127
1, 54240, Tempo, 296633
1, 54240, Note_on_c, 0, 33, 0
1, 54240, Note_on_c, 0, 45, 0
1, 54240, Note_on_c, 0, 34, 81
1, 54240, Note_on_c, 0, 46, 97
1, 54480, Note_on_c, 0, 46, 0
1, 54480, Note_on_c, 0, 63, 0
1, 54480, Note_on_c, 0, 67, 0
1, 54480, Note_on_c, 0, 55, 0
1, 54480, Note_on_c, 0, 34, 0
1, 54480, Note_on_c, 0, 31, 81
1, 54480, Note_on_c, 0, 43, 96
1, 54720, Note_on_c, 0, 43, 0
1, 54720, Note_on_c, 0, 31, 0
1, 54720, Note_on_c, 0, 33, 84
1, 54720, Note_on_c, 0, 45, 101
1, 54728, Control_c, 0, 64, 0
1, 54823, Control_c, 0, 64, 127
1, 54960, Tempo, 292355
1, 54960, Note_on_c, 0, 75, 75
1, 54960, Note_on_c, 0, 78, 92
1, 54960, Note_on_c, 0, 72, 89
1, 55200, Note_on_c, 0, 72, 0
1, 55200, Note_on_c, 0, 66, 82
1, 55440, Note_on_c, 0, 66, 0
1, 55440, Note_on_c, 0, 78, 0
1, 55440, Note_on_c, 0, 79, 90
1, 55440, Note_on_c, 0, 67, 85
1, 55457, Control_c, 0, 64, 0
1, 55635, Control_c, 0, 64, 127
1, 55680, Tempo, 304213
1, 55680, Note_on_c, 0, 33, 0
1, 55680, Note_on_c, 0, 45, 0
1, 55680, Note_on_c, 0, 34, 90
1, 55680, Note_on_c, 0, 46, 107
1, 55721, Tempo, 358616
1, 55920, Tempo, 373669
1, 55920, Note_on_c, 0, 46, 0
1, 55920, Note_on_c, 0, 79, 0
1, 55920, Note_on_c, 0, 67, 0
1, 55920, Note_on_c, 0, 75, 0
1, 55920, Note_on_c, 0, 34, 0
1, 55920, Note_on_c, 0, 31, 89
1, 55920, Note_on_c, 0, 43, 105
1, 56160, Note_on_c, 0, 43, 0
1, 56160, Note_on_c, 0, 31, 0
1, 56160, Note_on_c, 0, 82, 91
1, 56160, Note_on_c, 0, 87, 107
1, 56160, Note_on_c, 0, 79, 91
1, 56160, Note_on_c, 0, 91, 107
1, 56160, Note_on_c, 0, 25, 92
1, 56160, Note_on_c, 0, 37, 110
1, 56166, Control_c, 0, 64, 0
1, 56333, Control_c, 0, 64, 127
1, 56440, Control_c, 0, 64, 0
1, 56640, Note_on_c, 0, 37, 0
1, 56640, Note_on_c, 0, 87, 0
1, 56640, Note_on_c, 0, 79, 0
1, 56640, Note_on_c, 0, 82, 0
1, 56640, Note_on_c, 0, 25, 0
1, 56640, Note_on_c, 0, 91, 0
1, 57600, Tempo, 365675
1, 57600, Note_on_c, 0, 70, 101
1, 57600, Note_on_c, 0, 62, 85
1, 57600, Note_on_c, 0, 67, 85
1, 57600, Note_on_c, 0, 74, 101
1, 57600, Note_on_c, 0, 26, 75
1, 57600, Note_on_c, 0, 38, 90
1, 57699, Control_c, 0, 64, 127
1, 58320, Note_on_c, 0, 38, 0
1, 58320, Note_on_c, 0, 62, 0
1, 58320, Note_on_c, 0, 67, 0
1, 58320, Note_on_c, 0, 70, 0
1, 58320, Note_on_c, 0, 26, 0
1, 58320, Note_on_c, 0, 74, 0
1, 58320, Note_on_c, 0, 66, 97
1, 58320, Note_on_c, 0, 62, 97
1, 58320, Note_on_c, 0, 54, 82
1, 58320, Note_on_c, 0, 60, 82
1, 58320, Note_on_c, 0, 38, 68
1, 58320, Note_on_c, 0, 45, 81
1, 58320, Note_on_c, 0, 50, 81
1, 58332, Control_c, 0, 64, 0
1, 58360, Tempo, 342700
1, 58451, Control_c, 0, 64, 127
1, 58920, Note_on_c, 0, 50, 0
1, 58920, Note_on_c, 0, 38, 0
1, 58920, Note_on_c, 0, 45, 0
1, 58920, Note_on_c, 0, 31, 105
1, 59040, Tempo, 365675
1, 59040, Note_on_c, 0, 31, 0
1, 59040, Note_on_c, 0, 60, 0
1, 59040, Note_on_c, 0, 66, 0
1, 59040, Note_on_c, 0, 62, 0
1, 59040, Note_on_c, 0, 54, 0
1, 59040, Note_on_c, 0, 43, 68
1, 59047, Control_c, 0, 64, 0
1, 59070, Note_on_c, 0, 50, 75
1, 59100, Note_on_c, 0, 55, 73
1, 59130, Note_on_c, 0, 58, 80
1, 59160, Note_on_c, 0, 62, 96
1, 59190, Note_on_c, 0, 67, 105
1, 59291, Control_c, 0, 64, 127
1, 59760, Tempo, 691722
1, 60480, Note_on_c, 0, 67, 0
1, 60480, Note_on_c, 0, 50, 0
1, 60480, Note_on_c, 0, 55, 0
1, 60480, Note_on_c, 0, 43, 0
1, 60480, Note_on_c, 0, 62, 0
1, 60480, Note_on_c, 0, 58, 0
1, 61640, Control_c, 0, 64, 0
1, 61641, Tempo, 673098
1, 61642, Tempo, 857143
1, 61920, Tempo, 316139
1, 61920, End_track
0, 0, End_of_file
