0, 0, Header, 0, 1, 480
1, 0, Start_track
1, 0, Title_t, "Chopin Prelude  No. 12, Opus 28"
1, 0, Copyright_t, "Copyright © 2002 by Bernd Krueger "
1, 0, Text_t, "Frederic Chopin"
1, 0, Text_t, "Presto"
1, 0, Text_t, "Fertiggestellt am  27.9.2002\012"
1, 0, Text_t, "Normierung: 23.12.2002\012"
1, 0, Text_t, "Update 16.6.2010\012"
1, 0, Text_t, "Update am 20.2.2014\012"
1, 0, Text_t, "Dauer: 0:59 Minuten\012"
1, 0, SMPTE_offset, 96, 0, 3, 0, 0
1, 0, Time_signature, 3, 3, 12, 8
1, 0, Key_signature, 5, "major"
1, 0, Tempo, 463177
1, 0, Program_c, 0, 0
1, 0, Control_c, 0, 7, 100
1, 0, Control_c, 0, 10, 64
1, 0, Control_c, 0, 91, 127
1, 0, Control_c, 0, 91, 127
1, 0, Program_c, 0, 0
1, 0, Control_c, 0, 7, 100
1, 0, Control_c, 0, 10, 64
1, 0, Control_c, 0, 64, 0
1, 0, Text_t, "bdca426d104a26ac9dcb070447587523"
1, 0, Control_c, 0, 91, 127
1, 0, Control_c, 0, 7, 127
1, 0, Control_c, 0, 10, 64
1, 0, Control_c, 0, 7, 127
1, 0, Control_c, 0, 10, 64
1, 1, Note_on_c, 0, 63, 56
1, 1, Note_on_c, 0, 59, 48
1, 1, Note_on_c, 0, 56, 54
1, 1, Note_on_c, 0, 51, 45
1, 1, Note_on_c, 0, 44, 45
1, 32, Control_c, 0, 64, 127
1, 120, Note_on_c, 0, 64, 42
1, 121, Note_on_c, 0, 63, 0
1, 130, Control_c, 0, 64, 0
1, 180, Note_on_c, 0, 56, 0
1, 180, Note_on_c, 0, 51, 0
1, 180, Note_on_c, 0, 59, 0
1, 180, Note_on_c, 0, 64, 0
1, 180, Note_on_c, 0, 44, 0
1, 240, Tempo, 452080
1, 240, Note_on_c, 0, 59, 43
1, 240, Note_on_c, 0, 64, 51
1, 240, Note_on_c, 0, 44, 36
1, 240, Note_on_c, 0, 32, 30
1, 254, Control_c, 0, 64, 127
1, 300, Note_on_c, 0, 32, 0
1, 300, Note_on_c, 0, 44, 0
1, 360, Note_on_c, 0, 64, 0
1, 360, Note_on_c, 0, 65, 43
1, 370, Control_c, 0, 64, 0
1, 420, Note_on_c, 0, 65, 0
1, 420, Note_on_c, 0, 59, 0
1, 480, Note_on_c, 0, 59, 44
1, 480, Note_on_c, 0, 63, 44
1, 480, Note_on_c, 0, 65, 52
1, 480, Note_on_c, 0, 39, 30
1, 480, Note_on_c, 0, 51, 36
1, 503, Control_c, 0, 64, 127
1, 540, Note_on_c, 0, 51, 0
1, 540, Note_on_c, 0, 39, 0
1, 600, Tempo, 455754
1, 600, Note_on_c, 0, 65, 0
1, 600, Note_on_c, 0, 66, 44
1, 617, Control_c, 0, 64, 0
1, 660, Note_on_c, 0, 66, 0
1, 660, Note_on_c, 0, 63, 0
1, 660, Note_on_c, 0, 59, 0
1, 720, Tempo, 450349
1, 720, Note_on_c, 0, 59, 44
1, 720, Note_on_c, 0, 63, 44
1, 720, Note_on_c, 0, 66, 53
1, 720, Note_on_c, 0, 51, 37
1, 720, Note_on_c, 0, 44, 37
1, 720, Note_on_c, 0, 56, 44
1, 737, Control_c, 0, 64, 127
1, 840, Note_on_c, 0, 66, 0
1, 840, Note_on_c, 0, 67, 46
1, 851, Control_c, 0, 64, 0
1, 900, Note_on_c, 0, 67, 0
1, 900, Note_on_c, 0, 56, 0
1, 900, Note_on_c, 0, 51, 0
1, 900, Note_on_c, 0, 59, 0
1, 900, Note_on_c, 0, 63, 0
1, 900, Note_on_c, 0, 44, 0
1, 960, Note_on_c, 0, 59, 47
1, 960, Note_on_c, 0, 63, 47
1, 960, Note_on_c, 0, 67, 56
1, 960, Note_on_c, 0, 32, 32
1, 960, Note_on_c, 0, 44, 39
1, 1000, Control_c, 0, 64, 127
1, 1020, Note_on_c, 0, 44, 0
1, 1020, Note_on_c, 0, 32, 0
1, 1080, Note_on_c, 0, 67, 0
1, 1080, Note_on_c, 0, 68, 47
1, 1094, Control_c, 0, 64, 0
1, 1140, Note_on_c, 0, 68, 0
1, 1140, Note_on_c, 0, 63, 0
1, 1140, Note_on_c, 0, 59, 0
1, 1200, Tempo, 457596
1, 1200, Note_on_c, 0, 59, 48
1, 1200, Note_on_c, 0, 63, 48
1, 1200, Note_on_c, 0, 68, 57
1, 1200, Note_on_c, 0, 39, 33
1, 1200, Note_on_c, 0, 51, 40
1, 1237, Control_c, 0, 64, 127
1, 1260, Note_on_c, 0, 51, 0
1, 1260, Note_on_c, 0, 39, 0
1, 1320, Note_on_c, 0, 68, 0
1, 1320, Note_on_c, 0, 69, 48
1, 1340, Control_c, 0, 64, 0
1, 1380, Note_on_c, 0, 69, 0
1, 1380, Note_on_c, 0, 63, 0
1, 1380, Note_on_c, 0, 59, 0
1, 1440, Tempo, 450349
1, 1440, Note_on_c, 0, 63, 50
1, 1440, Note_on_c, 0, 69, 59
1, 1440, Note_on_c, 0, 59, 49
1, 1440, Note_on_c, 0, 51, 41
1, 1440, Note_on_c, 0, 56, 41
1, 1477, Control_c, 0, 64, 127
1, 1560, Note_on_c, 0, 69, 0
1, 1560, Note_on_c, 0, 70, 52
1, 1571, Control_c, 0, 64, 0
1, 1620, Note_on_c, 0, 70, 0
1, 1620, Note_on_c, 0, 56, 0
1, 1620, Note_on_c, 0, 63, 0
1, 1620, Note_on_c, 0, 59, 0
1, 1620, Note_on_c, 0, 51, 0
1, 1680, Note_on_c, 0, 63, 52
1, 1680, Note_on_c, 0, 70, 61
1, 1680, Note_on_c, 0, 32, 36
1, 1680, Note_on_c, 0, 44, 43
1, 1709, Control_c, 0, 64, 127
1, 1740, Note_on_c, 0, 44, 0
1, 1740, Note_on_c, 0, 32, 0
1, 1800, Note_on_c, 0, 70, 0
1, 1800, Note_on_c, 0, 71, 54
1, 1814, Control_c, 0, 64, 0
1, 1860, Note_on_c, 0, 71, 0
1, 1860, Note_on_c, 0, 63, 0
1, 1920, Tempo, 450349
1, 1920, Note_on_c, 0, 63, 55
1, 1920, Note_on_c, 0, 68, 66
1, 1920, Note_on_c, 0, 71, 66
1, 1920, Note_on_c, 0, 39, 38
1, 1920, Note_on_c, 0, 51, 46
1, 1954, Control_c, 0, 64, 127
1, 1980, Note_on_c, 0, 51, 0
1, 1980, Note_on_c, 0, 39, 0
1, 2040, Note_on_c, 0, 71, 0
1, 2040, Note_on_c, 0, 72, 56
1, 2051, Control_c, 0, 64, 0
1, 2100, Note_on_c, 0, 72, 0
1, 2100, Note_on_c, 0, 68, 0
1, 2100, Note_on_c, 0, 63, 0
1, 2160, Tempo, 448565
1, 2160, Note_on_c, 0, 68, 58
1, 2160, Note_on_c, 0, 63, 58
1, 2160, Note_on_c, 0, 72, 69
1, 2160, Note_on_c, 0, 59, 57
1, 2160, Note_on_c, 0, 51, 48
1, 2160, Note_on_c, 0, 56, 48
1, 2180, Control_c, 0, 64, 127
1, 2280, Note_on_c, 0, 72, 0
1, 2280, Note_on_c, 0, 73, 59
1, 2297, Control_c, 0, 64, 0
1, 2340, Note_on_c, 0, 73, 0
1, 2340, Note_on_c, 0, 56, 0
1, 2340, Note_on_c, 0, 59, 0
1, 2340, Note_on_c, 0, 68, 0
1, 2340, Note_on_c, 0, 63, 0
1, 2340, Note_on_c, 0, 51, 0
1, 2360, Tempo, 441599
1, 2400, Note_on_c, 0, 63, 61
1, 2400, Note_on_c, 0, 68, 61
1, 2400, Note_on_c, 0, 73, 71
1, 2400, Note_on_c, 0, 32, 41
1, 2400, Note_on_c, 0, 44, 50
1, 2429, Control_c, 0, 64, 127
1, 2440, Tempo, 443361
1, 2460, Note_on_c, 0, 44, 0
1, 2460, Note_on_c, 0, 32, 0
1, 2480, Tempo, 445038
1, 2520, Note_on_c, 0, 73, 0
1, 2520, Note_on_c, 0, 74, 62
1, 2533, Control_c, 0, 64, 0
1, 2580, Note_on_c, 0, 74, 0
1, 2580, Note_on_c, 0, 68, 0
1, 2580, Note_on_c, 0, 63, 0
1, 2640, Tempo, 453926
1, 2640, Note_on_c, 0, 63, 62
1, 2640, Note_on_c, 0, 68, 62
1, 2640, Note_on_c, 0, 74, 75
1, 2640, Note_on_c, 0, 51, 51
1, 2640, Note_on_c, 0, 39, 44
1, 2663, Control_c, 0, 64, 127
1, 2700, Note_on_c, 0, 39, 0
1, 2700, Note_on_c, 0, 51, 0
1, 2760, Tempo, 486934
1, 2760, Note_on_c, 0, 74, 0
1, 2760, Note_on_c, 0, 75, 66
1, 2776, Control_c, 0, 64, 0
1, 2820, Note_on_c, 0, 75, 0
1, 2820, Note_on_c, 0, 68, 0
1, 2820, Note_on_c, 0, 63, 0
1, 2880, Tempo, 446794
1, 2880, Note_on_c, 0, 63, 68
1, 2880, Note_on_c, 0, 70, 68
1, 2880, Note_on_c, 0, 75, 81
1, 2880, Note_on_c, 0, 51, 47
1, 2880, Note_on_c, 0, 58, 56
1, 2905, Control_c, 0, 64, 127
1, 2940, Note_on_c, 0, 58, 0
1, 2940, Note_on_c, 0, 51, 0
1, 3000, Tempo, 453926
1, 3000, Note_on_c, 0, 75, 0
1, 3000, Note_on_c, 0, 76, 77
1, 3060, Note_on_c, 0, 76, 0
1, 3060, Note_on_c, 0, 70, 0
1, 3060, Note_on_c, 0, 63, 0
1, 3120, Tempo, 439883
1, 3120, Note_on_c, 0, 70, 69
1, 3120, Note_on_c, 0, 76, 82
1, 3120, Note_on_c, 0, 43, 48
1, 3120, Note_on_c, 0, 51, 57
1, 3129, Control_c, 0, 64, 0
1, 3155, Control_c, 0, 64, 127
1, 3180, Note_on_c, 0, 51, 0
1, 3180, Note_on_c, 0, 43, 0
1, 3240, Note_on_c, 0, 76, 0
1, 3240, Note_on_c, 0, 75, 78
1, 3300, Note_on_c, 0, 75, 0
1, 3300, Note_on_c, 0, 70, 0
1, 3360, Tempo, 452080
1, 3360, Note_on_c, 0, 63, 70
1, 3360, Note_on_c, 0, 70, 70
1, 3360, Note_on_c, 0, 75, 84
1, 3360, Note_on_c, 0, 51, 50
1, 3360, Note_on_c, 0, 58, 59
1, 3366, Control_c, 0, 64, 0
1, 3399, Control_c, 0, 64, 127
1, 3420, Note_on_c, 0, 58, 0
1, 3420, Note_on_c, 0, 51, 0
1, 3480, Note_on_c, 0, 75, 0
1, 3480, Note_on_c, 0, 73, 84
1, 3540, Note_on_c, 0, 73, 0
1, 3540, Note_on_c, 0, 70, 0
1, 3540, Note_on_c, 0, 63, 0
1, 3600, Tempo, 455754
1, 3600, Note_on_c, 0, 63, 69
1, 3600, Note_on_c, 0, 68, 69
1, 3600, Note_on_c, 0, 73, 82
1, 3600, Control_c, 0, 64, 0
1, 3600, Note_on_c, 0, 44, 47
1, 3600, Note_on_c, 0, 51, 56
1, 3635, Control_c, 0, 64, 127
1, 3660, Note_on_c, 0, 51, 0
1, 3660, Note_on_c, 0, 44, 0
1, 3720, Note_on_c, 0, 73, 0
1, 3720, Note_on_c, 0, 71, 79
1, 3780, Note_on_c, 0, 71, 0
1, 3780, Note_on_c, 0, 68, 0
1, 3780, Note_on_c, 0, 63, 0
1, 3840, Tempo, 448565
1, 3840, Note_on_c, 0, 63, 70
1, 3840, Note_on_c, 0, 68, 70
1, 3840, Note_on_c, 0, 71, 83
1, 3840, Note_on_c, 0, 59, 57
1, 3840, Note_on_c, 0, 51, 48
1, 3850, Control_c, 0, 64, 0
1, 3890, Control_c, 0, 64, 127
1, 3900, Note_on_c, 0, 51, 0
1, 3900, Note_on_c, 0, 59, 0
1, 3960, Note_on_c, 0, 71, 0
1, 3960, Note_on_c, 0, 73, 79
1, 4020, Note_on_c, 0, 73, 0
1, 4020, Note_on_c, 0, 68, 0
1, 4020, Note_on_c, 0, 63, 0
1, 4080, Note_on_c, 0, 63, 72
1, 4080, Note_on_c, 0, 68, 72
1, 4080, Note_on_c, 0, 73, 85
1, 4080, Note_on_c, 0, 44, 50
1, 4080, Note_on_c, 0, 51, 59
1, 4088, Control_c, 0, 64, 0
1, 4126, Control_c, 0, 64, 127
1, 4140, Note_on_c, 0, 51, 0
1, 4140, Note_on_c, 0, 44, 0
1, 4200, Note_on_c, 0, 73, 0
1, 4200, Note_on_c, 0, 75, 86
1, 4260, Note_on_c, 0, 75, 0
1, 4260, Note_on_c, 0, 68, 0
1, 4260, Note_on_c, 0, 63, 0
1, 4320, Tempo, 452080
1, 4320, Note_on_c, 0, 64, 73
1, 4320, Note_on_c, 0, 68, 73
1, 4320, Note_on_c, 0, 75, 87
1, 4320, Note_on_c, 0, 56, 60
1, 4320, Note_on_c, 0, 49, 50
1, 4324, Control_c, 0, 64, 0
1, 4362, Control_c, 0, 64, 127
1, 4380, Note_on_c, 0, 49, 0
1, 4380, Note_on_c, 0, 56, 0
1, 4440, Note_on_c, 0, 75, 0
1, 4440, Note_on_c, 0, 73, 86
1, 4500, Note_on_c, 0, 73, 0
1, 4500, Note_on_c, 0, 68, 0
1, 4500, Note_on_c, 0, 64, 0
1, 4560, Note_on_c, 0, 64, 71
1, 4560, Note_on_c, 0, 68, 71
1, 4560, Note_on_c, 0, 73, 84
1, 4560, Note_on_c, 0, 37, 49
1, 4560, Note_on_c, 0, 49, 58
1, 4574, Control_c, 0, 64, 0
1, 4620, Note_on_c, 0, 49, 0
1, 4620, Note_on_c, 0, 37, 0
1, 4620, Control_c, 0, 64, 127
1, 4680, Note_on_c, 0, 73, 0
1, 4680, Note_on_c, 0, 71, 83
1, 4740, Note_on_c, 0, 71, 0
1, 4740, Note_on_c, 0, 68, 0
1, 4740, Note_on_c, 0, 64, 0
1, 4800, Tempo, 463177
1, 4800, Note_on_c, 0, 61, 68
1, 4800, Note_on_c, 0, 64, 68
1, 4800, Note_on_c, 0, 71, 81
1, 4800, Note_on_c, 0, 49, 47
1, 4800, Note_on_c, 0, 56, 56
1, 4810, Control_c, 0, 64, 0
1, 4860, Note_on_c, 0, 56, 0
1, 4860, Note_on_c, 0, 49, 0
1, 4860, Control_c, 0, 64, 127
1, 4920, Note_on_c, 0, 71, 0
1, 4920, Note_on_c, 0, 70, 80
1, 4980, Note_on_c, 0, 70, 0
1, 4980, Note_on_c, 0, 64, 0
1, 4980, Note_on_c, 0, 61, 0
1, 5040, Tempo, 457596
1, 5040, Note_on_c, 0, 61, 79
1, 5040, Note_on_c, 0, 51, 42
1, 5040, Note_on_c, 0, 55, 51
1, 5045, Control_c, 0, 64, 0
1, 5080, Control_c, 0, 64, 127
1, 5100, Note_on_c, 0, 55, 0
1, 5100, Note_on_c, 0, 51, 0
1, 5160, Note_on_c, 0, 71, 69
1, 5240, Tempo, 455754
1, 5280, Note_on_c, 0, 71, 0
1, 5280, Note_on_c, 0, 61, 0
1, 5280, Note_on_c, 0, 71, 66
1, 5280, Note_on_c, 0, 61, 55
1, 5280, Note_on_c, 0, 39, 38
1, 5280, Note_on_c, 0, 51, 46
1, 5289, Control_c, 0, 64, 0
1, 5320, Tempo, 457596
1, 5337, Control_c, 0, 64, 127
1, 5340, Note_on_c, 0, 51, 0
1, 5340, Note_on_c, 0, 39, 0
1, 5400, Tempo, 459418
1, 5400, Note_on_c, 0, 71, 0
1, 5400, Note_on_c, 0, 70, 62
1, 5440, Tempo, 461255
1, 5520, Tempo, 465008
1, 5520, Note_on_c, 0, 70, 0
1, 5520, Note_on_c, 0, 61, 0
1, 5520, Note_on_c, 0, 70, 57
1, 5520, Note_on_c, 0, 61, 48
1, 5520, Note_on_c, 0, 51, 34
1, 5520, Note_on_c, 0, 55, 40
1, 5529, Control_c, 0, 64, 0
1, 5540, Tempo, 468860
1, 5560, Tempo, 472739
1, 5566, Control_c, 0, 64, 127
1, 5580, Tempo, 478736
1, 5580, Note_on_c, 0, 55, 0
1, 5580, Note_on_c, 0, 51, 0
1, 5600, Tempo, 482742
1, 5620, Tempo, 486934
1, 5640, Note_on_c, 0, 70, 0
1, 5640, Note_on_c, 0, 63, 54
1, 5660, Tempo, 497512
1, 5760, Tempo, 463177
1, 5760, Note_on_c, 0, 63, 0
1, 5760, Note_on_c, 0, 61, 0
1, 5760, Note_on_c, 0, 59, 45
1, 5760, Note_on_c, 0, 63, 53
1, 5760, Control_c, 0, 64, 0
1, 5760, Note_on_c, 0, 44, 37
1, 5760, Note_on_c, 0, 51, 37
1, 5760, Note_on_c, 0, 56, 45
1, 5823, Control_c, 0, 64, 127
1, 5880, Note_on_c, 0, 63, 0
1, 5880, Note_on_c, 0, 64, 45
1, 5891, Control_c, 0, 64, 0
1, 5940, Note_on_c, 0, 64, 0
1, 5940, Note_on_c, 0, 56, 0
1, 5940, Note_on_c, 0, 59, 0
1, 5940, Note_on_c, 0, 44, 0
1, 5940, Note_on_c, 0, 51, 0
1, 6000, Tempo, 455754
1, 6000, Note_on_c, 0, 59, 45
1, 6000, Note_on_c, 0, 64, 54
1, 6000, Note_on_c, 0, 32, 31
1, 6000, Note_on_c, 0, 44, 37
1, 6014, Control_c, 0, 64, 127
1, 6060, Note_on_c, 0, 44, 0
1, 6060, Note_on_c, 0, 32, 0
1, 6120, Note_on_c, 0, 64, 0
1, 6120, Note_on_c, 0, 65, 45
1, 6131, Control_c, 0, 64, 0
1, 6180, Note_on_c, 0, 65, 0
1, 6180, Note_on_c, 0, 59, 0
1, 6240, Tempo, 466926
1, 6240, Note_on_c, 0, 59, 46
1, 6240, Note_on_c, 0, 63, 46
1, 6240, Note_on_c, 0, 65, 55
1, 6240, Note_on_c, 0, 39, 32
1, 6240, Note_on_c, 0, 51, 39
1, 6263, Control_c, 0, 64, 127
1, 6300, Note_on_c, 0, 51, 0
1, 6300, Note_on_c, 0, 39, 0
1, 6360, Tempo, 455754
1, 6360, Note_on_c, 0, 65, 0
1, 6360, Note_on_c, 0, 66, 47
1, 6373, Control_c, 0, 64, 0
1, 6420, Note_on_c, 0, 66, 0
1, 6420, Note_on_c, 0, 63, 0
1, 6420, Note_on_c, 0, 59, 0
1, 6480, Tempo, 450349
1, 6480, Note_on_c, 0, 59, 47
1, 6480, Note_on_c, 0, 63, 47
1, 6480, Note_on_c, 0, 66, 57
1, 6480, Note_on_c, 0, 44, 39
1, 6480, Note_on_c, 0, 51, 39
1, 6480, Note_on_c, 0, 56, 47
1, 6497, Control_c, 0, 64, 127
1, 6600, Note_on_c, 0, 66, 0
1, 6600, Note_on_c, 0, 67, 48
1, 6608, Control_c, 0, 64, 0
1, 6660, Note_on_c, 0, 67, 0
1, 6660, Note_on_c, 0, 56, 0
1, 6660, Note_on_c, 0, 44, 0
1, 6660, Note_on_c, 0, 59, 0
1, 6660, Note_on_c, 0, 63, 0
1, 6660, Note_on_c, 0, 51, 0
1, 6720, Note_on_c, 0, 59, 49
1, 6720, Note_on_c, 0, 63, 49
1, 6720, Note_on_c, 0, 67, 58
1, 6720, Note_on_c, 0, 44, 41
1, 6720, Note_on_c, 0, 32, 34
1, 6760, Control_c, 0, 64, 127
1, 6780, Note_on_c, 0, 32, 0
1, 6780, Note_on_c, 0, 44, 0
1, 6840, Note_on_c, 0, 67, 0
1, 6840, Note_on_c, 0, 68, 50
1, 6850, Control_c, 0, 64, 0
1, 6900, Note_on_c, 0, 68, 0
1, 6900, Note_on_c, 0, 63, 0
1, 6900, Note_on_c, 0, 59, 0
1, 6960, Tempo, 457596
1, 6960, Note_on_c, 0, 59, 50
1, 6960, Note_on_c, 0, 63, 50
1, 6960, Note_on_c, 0, 68, 60
1, 6960, Note_on_c, 0, 39, 34
1, 6960, Note_on_c, 0, 51, 41
1, 6997, Control_c, 0, 64, 127
1, 7020, Note_on_c, 0, 51, 0
1, 7020, Note_on_c, 0, 39, 0
1, 7080, Note_on_c, 0, 68, 0
1, 7080, Note_on_c, 0, 69, 50
1, 7091, Control_c, 0, 64, 0
1, 7140, Note_on_c, 0, 69, 0
1, 7140, Note_on_c, 0, 63, 0
1, 7140, Note_on_c, 0, 59, 0
1, 7200, Tempo, 450349
1, 7200, Note_on_c, 0, 59, 52
1, 7200, Note_on_c, 0, 64, 52
1, 7200, Note_on_c, 0, 69, 62
1, 7200, Note_on_c, 0, 43, 43
1, 7200, Note_on_c, 0, 52, 43
1, 7200, Note_on_c, 0, 55, 51
1, 7237, Control_c, 0, 64, 127
1, 7320, Note_on_c, 0, 69, 0
1, 7320, Note_on_c, 0, 70, 54
1, 7331, Control_c, 0, 64, 0
1, 7380, Note_on_c, 0, 70, 0
1, 7380, Note_on_c, 0, 55, 0
1, 7380, Note_on_c, 0, 43, 0
1, 7380, Note_on_c, 0, 59, 0
1, 7380, Note_on_c, 0, 64, 0
1, 7380, Note_on_c, 0, 52, 0
1, 7440, Note_on_c, 0, 59, 54
1, 7440, Note_on_c, 0, 64, 54
1, 7440, Note_on_c, 0, 70, 64
1, 7440, Note_on_c, 0, 43, 45
1, 7440, Note_on_c, 0, 31, 38
1, 7469, Control_c, 0, 64, 127
1, 7500, Note_on_c, 0, 31, 0
1, 7500, Note_on_c, 0, 43, 0
1, 7560, Note_on_c, 0, 70, 0
1, 7560, Note_on_c, 0, 71, 56
1, 7574, Control_c, 0, 64, 0
1, 7620, Note_on_c, 0, 71, 0
1, 7620, Note_on_c, 0, 64, 0
1, 7620, Note_on_c, 0, 59, 0
1, 7680, Tempo, 450349
1, 7680, Note_on_c, 0, 59, 57
1, 7680, Note_on_c, 0, 64, 68
1, 7680, Note_on_c, 0, 71, 68
1, 7680, Note_on_c, 0, 40, 40
1, 7680, Note_on_c, 0, 52, 47
1, 7714, Control_c, 0, 64, 127
1, 7740, Note_on_c, 0, 52, 0
1, 7740, Note_on_c, 0, 40, 0
1, 7800, Note_on_c, 0, 71, 0
1, 7800, Note_on_c, 0, 72, 59
1, 7811, Control_c, 0, 64, 0
1, 7860, Note_on_c, 0, 72, 0
1, 7860, Note_on_c, 0, 64, 0
1, 7860, Note_on_c, 0, 59, 0
1, 7920, Tempo, 448565
1, 7920, Note_on_c, 0, 65, 62
1, 7920, Note_on_c, 0, 72, 73
1, 7920, Note_on_c, 0, 55, 52
1, 7920, Note_on_c, 0, 50, 52
1, 7920, Note_on_c, 0, 59, 61
1, 7940, Control_c, 0, 64, 127
1, 8040, Note_on_c, 0, 72, 0
1, 8040, Note_on_c, 0, 73, 69
1, 8050, Control_c, 0, 64, 0
1, 8100, Note_on_c, 0, 73, 0
1, 8100, Note_on_c, 0, 59, 0
1, 8100, Note_on_c, 0, 65, 0
1, 8100, Note_on_c, 0, 55, 0
1, 8100, Note_on_c, 0, 50, 0
1, 8120, Tempo, 441599
1, 8160, Note_on_c, 0, 65, 64
1, 8160, Note_on_c, 0, 73, 76
1, 8160, Note_on_c, 0, 31, 44
1, 8160, Note_on_c, 0, 43, 53
1, 8189, Control_c, 0, 64, 127
1, 8200, Tempo, 443361
1, 8220, Note_on_c, 0, 43, 0
1, 8220, Note_on_c, 0, 31, 0
1, 8240, Tempo, 445038
1, 8280, Note_on_c, 0, 73, 0
1, 8280, Note_on_c, 0, 74, 71
1, 8294, Control_c, 0, 64, 0
1, 8340, Note_on_c, 0, 74, 0
1, 8340, Note_on_c, 0, 65, 0
1, 8400, Tempo, 453926
1, 8400, Note_on_c, 0, 65, 66
1, 8400, Note_on_c, 0, 71, 80
1, 8400, Note_on_c, 0, 43, 47
1, 8400, Note_on_c, 0, 55, 55
1, 8423, Control_c, 0, 64, 127
1, 8460, Note_on_c, 0, 55, 0
1, 8460, Note_on_c, 0, 43, 0
1, 8520, Note_on_c, 0, 74, 75
1, 8534, Control_c, 0, 64, 0
1, 8540, Tempo, 482742
1, 8580, Note_on_c, 0, 74, 0
1, 8580, Note_on_c, 0, 71, 0
1, 8580, Note_on_c, 0, 65, 0
1, 8640, Tempo, 448565
1, 8640, Note_on_c, 0, 66, 76
1, 8640, Note_on_c, 0, 71, 76
1, 8640, Note_on_c, 0, 75, 90
1, 8640, Note_on_c, 0, 54, 61
1, 8640, Note_on_c, 0, 42, 51
1, 8665, Control_c, 0, 64, 127
1, 8700, Note_on_c, 0, 42, 0
1, 8700, Note_on_c, 0, 54, 0
1, 8760, Tempo, 463177
1, 8760, Note_on_c, 0, 75, 0
1, 8760, Note_on_c, 0, 76, 85
1, 8820, Note_on_c, 0, 76, 0
1, 8820, Note_on_c, 0, 71, 0
1, 8820, Note_on_c, 0, 66, 0
1, 8880, Tempo, 452080
1, 8880, Note_on_c, 0, 66, 75
1, 8880, Note_on_c, 0, 71, 75
1, 8880, Note_on_c, 0, 76, 89
1, 8880, Note_on_c, 0, 54, 50
1, 8880, Note_on_c, 0, 63, 60
1, 8885, Control_c, 0, 64, 0
1, 8915, Control_c, 0, 64, 127
1, 8940, Note_on_c, 0, 63, 0
1, 8940, Note_on_c, 0, 54, 0
1, 9000, Note_on_c, 0, 76, 0
1, 9000, Note_on_c, 0, 75, 87
1, 9060, Note_on_c, 0, 75, 0
1, 9060, Note_on_c, 0, 71, 0
1, 9060, Note_on_c, 0, 66, 0
1, 9120, Tempo, 452080
1, 9120, Note_on_c, 0, 66, 76
1, 9120, Note_on_c, 0, 71, 76
1, 9120, Note_on_c, 0, 75, 90
1, 9120, Note_on_c, 0, 54, 61
1, 9120, Note_on_c, 0, 42, 51
1, 9122, Control_c, 0, 64, 0
1, 9159, Control_c, 0, 64, 127
1, 9180, Note_on_c, 0, 42, 0
1, 9180, Note_on_c, 0, 54, 0
1, 9240, Note_on_c, 0, 75, 0
1, 9240, Note_on_c, 0, 78, 88
1, 9300, Note_on_c, 0, 78, 0
1, 9300, Note_on_c, 0, 71, 0
1, 9300, Note_on_c, 0, 66, 0
1, 9360, Tempo, 445038
1, 9360, Note_on_c, 0, 66, 76
1, 9360, Note_on_c, 0, 70, 76
1, 9360, Note_on_c, 0, 78, 90
1, 9360, Control_c, 0, 64, 0
1, 9360, Note_on_c, 0, 54, 51
1, 9360, Note_on_c, 0, 64, 61
1, 9392, Control_c, 0, 64, 127
1, 9420, Note_on_c, 0, 64, 0
1, 9420, Note_on_c, 0, 54, 0
1, 9480, Note_on_c, 0, 78, 0
1, 9480, Note_on_c, 0, 73, 85
1, 9540, Note_on_c, 0, 73, 0
1, 9540, Note_on_c, 0, 70, 0
1, 9540, Note_on_c, 0, 66, 0
1, 9600, Tempo, 439883
1, 9600, Note_on_c, 0, 66, 75
1, 9600, Note_on_c, 0, 70, 75
1, 9600, Note_on_c, 0, 73, 89
1, 9600, Note_on_c, 0, 42, 50
1, 9600, Note_on_c, 0, 54, 60
1, 9605, Control_c, 0, 64, 0
1, 9635, Control_c, 0, 64, 127
1, 9660, Note_on_c, 0, 54, 0
1, 9660, Note_on_c, 0, 42, 0
1, 9720, Note_on_c, 0, 73, 0
1, 9720, Note_on_c, 0, 75, 87
1, 9780, Note_on_c, 0, 75, 0
1, 9780, Note_on_c, 0, 70, 0
1, 9780, Note_on_c, 0, 66, 0
1, 9840, Tempo, 452080
1, 9840, Note_on_c, 0, 66, 76
1, 9840, Note_on_c, 0, 70, 76
1, 9840, Note_on_c, 0, 75, 90
1, 9840, Note_on_c, 0, 54, 51
1, 9840, Note_on_c, 0, 64, 61
1, 9851, Control_c, 0, 64, 0
1, 9879, Control_c, 0, 64, 127
1, 9900, Note_on_c, 0, 64, 0
1, 9900, Note_on_c, 0, 54, 0
1, 9960, Note_on_c, 0, 75, 0
1, 9960, Note_on_c, 0, 76, 88
1, 10020, Note_on_c, 0, 76, 0
1, 10020, Note_on_c, 0, 70, 0
1, 10020, Note_on_c, 0, 66, 0
1, 10080, Tempo, 445038
1, 10080, Note_on_c, 0, 66, 68
1, 10080, Note_on_c, 0, 71, 68
1, 10080, Note_on_c, 0, 76, 81
1, 10080, Note_on_c, 0, 42, 45
1, 10080, Note_on_c, 0, 54, 54
1, 10087, Control_c, 0, 64, 0
1, 10140, Note_on_c, 0, 54, 0
1, 10140, Note_on_c, 0, 42, 0
1, 10144, Control_c, 0, 64, 127
1, 10200, Note_on_c, 0, 76, 0
1, 10200, Note_on_c, 0, 75, 75
1, 10260, Note_on_c, 0, 75, 0
1, 10260, Note_on_c, 0, 71, 0
1, 10260, Note_on_c, 0, 66, 0
1, 10320, Note_on_c, 0, 66, 66
1, 10320, Note_on_c, 0, 71, 66
1, 10320, Note_on_c, 0, 75, 78
1, 10320, Note_on_c, 0, 54, 44
1, 10320, Note_on_c, 0, 63, 52
1, 10327, Control_c, 0, 64, 0
1, 10370, Control_c, 0, 64, 127
1, 10380, Note_on_c, 0, 63, 0
1, 10380, Note_on_c, 0, 54, 0
1, 10440, Note_on_c, 0, 75, 0
1, 10440, Note_on_c, 0, 80, 75
1, 10500, Note_on_c, 0, 80, 0
1, 10500, Note_on_c, 0, 71, 0
1, 10500, Note_on_c, 0, 66, 0
1, 10560, Tempo, 452080
1, 10560, Note_on_c, 0, 66, 64
1, 10560, Note_on_c, 0, 80, 76
1, 10560, Note_on_c, 0, 42, 43
1, 10560, Note_on_c, 0, 54, 51
1, 10575, Control_c, 0, 64, 0
1, 10617, Control_c, 0, 64, 127
1, 10620, Note_on_c, 0, 54, 0
1, 10620, Note_on_c, 0, 42, 0
1, 10680, Note_on_c, 0, 80, 0
1, 10680, Note_on_c, 0, 78, 73
1, 10740, Note_on_c, 0, 78, 0
1, 10740, Note_on_c, 0, 66, 0
1, 10800, Tempo, 443361
1, 10800, Note_on_c, 0, 66, 63
1, 10800, Note_on_c, 0, 70, 63
1, 10800, Note_on_c, 0, 78, 74
1, 10800, Note_on_c, 0, 64, 50
1, 10800, Note_on_c, 0, 54, 42
1, 10806, Control_c, 0, 64, 0
1, 10849, Control_c, 0, 64, 127
1, 10860, Note_on_c, 0, 54, 0
1, 10860, Note_on_c, 0, 64, 0
1, 10920, Note_on_c, 0, 78, 0
1, 10920, Note_on_c, 0, 73, 69
1, 10980, Note_on_c, 0, 73, 0
1, 10980, Note_on_c, 0, 70, 0
1, 10980, Note_on_c, 0, 66, 0
1, 11040, Note_on_c, 0, 64, 60
1, 11040, Note_on_c, 0, 70, 60
1, 11040, Note_on_c, 0, 73, 71
1, 11040, Note_on_c, 0, 42, 40
1, 11040, Note_on_c, 0, 54, 47
1, 11047, Control_c, 0, 64, 0
1, 11075, Control_c, 0, 64, 127
1, 11100, Note_on_c, 0, 54, 0
1, 11100, Note_on_c, 0, 42, 0
1, 11160, Note_on_c, 0, 73, 0
1, 11160, Note_on_c, 0, 75, 68
1, 11220, Note_on_c, 0, 75, 0
1, 11220, Note_on_c, 0, 70, 0
1, 11220, Note_on_c, 0, 64, 0
1, 11280, Tempo, 452080
1, 11280, Note_on_c, 0, 64, 59
1, 11280, Note_on_c, 0, 70, 59
1, 11280, Note_on_c, 0, 75, 70
1, 11280, Note_on_c, 0, 61, 47
1, 11280, Note_on_c, 0, 54, 40
1, 11284, Control_c, 0, 64, 0
1, 11319, Control_c, 0, 64, 127
1, 11340, Note_on_c, 0, 54, 0
1, 11340, Note_on_c, 0, 61, 0
1, 11400, Note_on_c, 0, 75, 0
1, 11400, Note_on_c, 0, 76, 67
1, 11460, Note_on_c, 0, 76, 0
1, 11460, Note_on_c, 0, 70, 0
1, 11460, Note_on_c, 0, 64, 0
1, 11520, Tempo, 439883
1, 11520, Note_on_c, 0, 63, 60
1, 11520, Note_on_c, 0, 71, 60
1, 11520, Note_on_c, 0, 76, 72
1, 11520, Note_on_c, 0, 47, 40
1, 11520, Note_on_c, 0, 54, 48
1, 11527, Control_c, 0, 64, 0
1, 11563, Control_c, 0, 64, 127
1, 11580, Note_on_c, 0, 54, 0
1, 11580, Note_on_c, 0, 47, 0
1, 11640, Tempo, 452080
1, 11640, Note_on_c, 0, 76, 0
1, 11640, Note_on_c, 0, 75, 68
1, 11700, Note_on_c, 0, 75, 0
1, 11700, Note_on_c, 0, 71, 0
1, 11700, Note_on_c, 0, 63, 0
1, 11760, Tempo, 438212
1, 11760, Note_on_c, 0, 63, 61
1, 11760, Note_on_c, 0, 75, 72
1, 11760, Note_on_c, 0, 47, 40
1, 11760, Note_on_c, 0, 54, 40
1, 11760, Note_on_c, 0, 59, 48
1, 11767, Control_c, 0, 64, 0
1, 11795, Control_c, 0, 64, 127
1, 11820, Note_on_c, 0, 59, 0
1, 11820, Note_on_c, 0, 47, 0
1, 11820, Note_on_c, 0, 54, 0
1, 11880, Note_on_c, 0, 75, 0
1, 11880, Note_on_c, 0, 71, 72
1, 11940, Note_on_c, 0, 71, 0
1, 11940, Note_on_c, 0, 63, 0
1, 12000, Tempo, 448565
1, 12000, Note_on_c, 0, 64, 64
1, 12000, Note_on_c, 0, 71, 76
1, 12000, Note_on_c, 0, 59, 51
1, 12000, Note_on_c, 0, 47, 43
1, 12000, Note_on_c, 0, 55, 43
1, 12009, Control_c, 0, 64, 0
1, 12039, Control_c, 0, 64, 127
1, 12060, Note_on_c, 0, 55, 0
1, 12060, Note_on_c, 0, 59, 0
1, 12060, Note_on_c, 0, 47, 0
1, 12120, Note_on_c, 0, 71, 0
1, 12120, Note_on_c, 0, 67, 75
1, 12180, Note_on_c, 0, 67, 0
1, 12180, Note_on_c, 0, 64, 0
1, 12240, Tempo, 459418
1, 12240, Note_on_c, 0, 63, 66
1, 12240, Note_on_c, 0, 67, 78
1, 12240, Note_on_c, 0, 59, 53
1, 12240, Note_on_c, 0, 47, 45
1, 12240, Note_on_c, 0, 54, 45
1, 12247, Control_c, 0, 64, 0
1, 12286, Control_c, 0, 64, 127
1, 12300, Note_on_c, 0, 54, 0
1, 12300, Note_on_c, 0, 59, 0
1, 12300, Note_on_c, 0, 47, 0
1, 12360, Note_on_c, 0, 67, 0
1, 12360, Note_on_c, 0, 66, 74
1, 12420, Note_on_c, 0, 66, 0
1, 12420, Note_on_c, 0, 63, 0
1, 12480, Tempo, 445038
1, 12480, Note_on_c, 0, 63, 67
1, 12480, Note_on_c, 0, 66, 80
1, 12480, Note_on_c, 0, 47, 45
1, 12480, Note_on_c, 0, 54, 45
1, 12480, Note_on_c, 0, 59, 54
1, 12485, Control_c, 0, 64, 0
1, 12515, Control_c, 0, 64, 127
1, 12540, Note_on_c, 0, 59, 0
1, 12540, Note_on_c, 0, 47, 0
1, 12540, Note_on_c, 0, 54, 0
1, 12600, Note_on_c, 0, 66, 0
1, 12600, Note_on_c, 0, 71, 75
1, 12660, Note_on_c, 0, 71, 0
1, 12660, Note_on_c, 0, 63, 0
1, 12720, Tempo, 466926
1, 12720, Note_on_c, 0, 64, 69
1, 12720, Note_on_c, 0, 71, 82
1, 12720, Note_on_c, 0, 55, 46
1, 12720, Note_on_c, 0, 47, 46
1, 12720, Note_on_c, 0, 59, 55
1, 12726, Control_c, 0, 64, 0
1, 12759, Control_c, 0, 64, 127
1, 12780, Note_on_c, 0, 59, 0
1, 12780, Note_on_c, 0, 55, 0
1, 12780, Note_on_c, 0, 47, 0
1, 12840, Note_on_c, 0, 71, 0
1, 12840, Note_on_c, 0, 67, 78
1, 12900, Note_on_c, 0, 67, 0
1, 12900, Note_on_c, 0, 64, 0
1, 12960, Tempo, 453926
1, 12960, Note_on_c, 0, 63, 72
1, 12960, Note_on_c, 0, 66, 85
1, 12960, Note_on_c, 0, 59, 57
1, 12960, Note_on_c, 0, 47, 48
1, 12960, Note_on_c, 0, 54, 48
1, 12968, Control_c, 0, 64, 0
1, 12995, Control_c, 0, 64, 127
1, 13020, Note_on_c, 0, 54, 0
1, 13020, Note_on_c, 0, 59, 0
1, 13020, Note_on_c, 0, 47, 0
1, 13080, Note_on_c, 0, 66, 0
1, 13080, Note_on_c, 0, 71, 81
1, 13140, Note_on_c, 0, 71, 0
1, 13140, Note_on_c, 0, 63, 0
1, 13200, Tempo, 479042
1, 13200, Note_on_c, 0, 64, 72
1, 13200, Note_on_c, 0, 71, 86
1, 13200, Note_on_c, 0, 52, 48
1, 13200, Note_on_c, 0, 55, 48
1, 13200, Note_on_c, 0, 59, 57
1, 13209, Control_c, 0, 64, 0
1, 13235, Control_c, 0, 64, 127
1, 13260, Note_on_c, 0, 59, 0
1, 13260, Note_on_c, 0, 52, 0
1, 13260, Note_on_c, 0, 55, 0
1, 13320, Note_on_c, 0, 71, 0
1, 13320, Note_on_c, 0, 67, 85
1, 13380, Note_on_c, 0, 67, 0
1, 13380, Note_on_c, 0, 64, 0
1, 13440, Tempo, 464217
1, 13440, Note_on_c, 0, 63, 76
1, 13440, Note_on_c, 0, 66, 90
1, 13440, Note_on_c, 0, 47, 51
1, 13440, Note_on_c, 0, 54, 51
1, 13440, Note_on_c, 0, 59, 61
1, 13451, Control_c, 0, 64, 0
1, 13479, Control_c, 0, 64, 127
1, 13500, Note_on_c, 0, 59, 0
1, 13500, Note_on_c, 0, 47, 0
1, 13500, Note_on_c, 0, 54, 0
1, 13560, Note_on_c, 0, 66, 0
1, 13560, Note_on_c, 0, 71, 88
1, 13620, Note_on_c, 0, 71, 0
1, 13620, Note_on_c, 0, 63, 0
1, 13680, Tempo, 488400
1, 13680, Note_on_c, 0, 64, 77
1, 13680, Note_on_c, 0, 71, 91
1, 13680, Note_on_c, 0, 55, 52
1, 13680, Note_on_c, 0, 52, 52
1, 13680, Note_on_c, 0, 59, 62
1, 13689, Control_c, 0, 64, 0
1, 13720, Control_c, 0, 64, 127
1, 13740, Note_on_c, 0, 59, 0
1, 13740, Note_on_c, 0, 55, 0
1, 13740, Note_on_c, 0, 52, 0
1, 13800, Note_on_c, 0, 71, 0
1, 13800, Note_on_c, 0, 67, 87
1, 13860, Note_on_c, 0, 67, 0
1, 13860, Note_on_c, 0, 64, 0
1, 13920, Tempo, 467108
1, 13920, Note_on_c, 0, 62, 78
1, 13920, Note_on_c, 0, 66, 93
1, 13920, Note_on_c, 0, 59, 63
1, 13920, Note_on_c, 0, 47, 53
1, 13920, Note_on_c, 0, 54, 53
1, 13931, Control_c, 0, 64, 0
1, 13980, Note_on_c, 0, 54, 0
1, 13980, Note_on_c, 0, 59, 0
1, 13980, Note_on_c, 0, 47, 0
1, 13980, Control_c, 0, 64, 127
1, 14040, Note_on_c, 0, 66, 0
1, 14040, Note_on_c, 0, 71, 92
1, 14100, Note_on_c, 0, 71, 0
1, 14100, Note_on_c, 0, 62, 0
1, 14160, Tempo, 501463
1, 14160, Note_on_c, 0, 64, 81
1, 14160, Note_on_c, 0, 71, 96
1, 14160, Note_on_c, 0, 52, 54
1, 14160, Note_on_c, 0, 55, 54
1, 14160, Note_on_c, 0, 59, 64
1, 14168, Control_c, 0, 64, 0
1, 14199, Control_c, 0, 64, 127
1, 14220, Note_on_c, 0, 59, 0
1, 14220, Note_on_c, 0, 52, 0
1, 14220, Note_on_c, 0, 55, 0
1, 14280, Tempo, 561535
1, 14280, Note_on_c, 0, 71, 0
1, 14280, Note_on_c, 0, 67, 95
1, 14340, Note_on_c, 0, 67, 0
1, 14340, Note_on_c, 0, 64, 0
1, 14357, Control_c, 0, 64, 0
1, 14400, Tempo, 469778
1, 14400, Note_on_c, 0, 71, 92
1, 14400, Note_on_c, 0, 64, 77
1, 14400, Note_on_c, 0, 67, 92
1, 14400, Note_on_c, 0, 47, 60
1, 14400, Note_on_c, 0, 54, 60
1, 14400, Note_on_c, 0, 59, 72
1, 14452, Control_c, 0, 64, 127
1, 14520, Note_on_c, 0, 67, 0
1, 14520, Note_on_c, 0, 64, 0
1, 14520, Note_on_c, 0, 62, 74
1, 14520, Note_on_c, 0, 66, 87
1, 14610, Note_on_c, 0, 67, 72
1, 14640, Tempo, 458926
1, 14640, Note_on_c, 0, 67, 0
1, 14640, Note_on_c, 0, 62, 0
1, 14640, Note_on_c, 0, 59, 0
1, 14640, Note_on_c, 0, 54, 0
1, 14640, Note_on_c, 0, 47, 0
1, 14640, Note_on_c, 0, 66, 0
1, 14640, Note_on_c, 0, 62, 77
1, 14640, Note_on_c, 0, 66, 92
1, 14640, Note_on_c, 0, 35, 56
1, 14640, Note_on_c, 0, 47, 66
1, 14651, Control_c, 0, 64, 0
1, 14689, Control_c, 0, 64, 127
1, 14700, Note_on_c, 0, 47, 0
1, 14700, Note_on_c, 0, 35, 0
1, 14760, Note_on_c, 0, 66, 0
1, 14760, Note_on_c, 0, 62, 0
1, 14760, Note_on_c, 0, 61, 72
1, 14760, Note_on_c, 0, 64, 85
1, 14880, Tempo, 474721
1, 14880, Note_on_c, 0, 64, 0
1, 14880, Note_on_c, 0, 61, 0
1, 14880, Note_on_c, 0, 62, 77
1, 14880, Note_on_c, 0, 66, 92
1, 14880, Note_on_c, 0, 47, 56
1, 14880, Note_on_c, 0, 54, 66
1, 14884, Control_c, 0, 64, 0
1, 14946, Control_c, 0, 64, 127
1, 15120, Tempo, 467909
1, 15120, Note_on_c, 0, 54, 0
1, 15120, Note_on_c, 0, 66, 0
1, 15120, Note_on_c, 0, 62, 0
1, 15120, Note_on_c, 0, 64, 73
1, 15120, Note_on_c, 0, 67, 87
1, 15120, Note_on_c, 0, 59, 68
1, 15120, Note_on_c, 0, 54, 57
1, 15130, Control_c, 0, 64, 0
1, 15169, Control_c, 0, 64, 127
1, 15240, Note_on_c, 0, 67, 0
1, 15240, Note_on_c, 0, 64, 0
1, 15240, Note_on_c, 0, 62, 70
1, 15240, Note_on_c, 0, 66, 82
1, 15330, Note_on_c, 0, 67, 71
1, 15360, Tempo, 455408
1, 15360, Note_on_c, 0, 67, 0
1, 15360, Note_on_c, 0, 62, 0
1, 15360, Note_on_c, 0, 54, 0
1, 15360, Note_on_c, 0, 47, 0
1, 15360, Note_on_c, 0, 59, 0
1, 15360, Note_on_c, 0, 66, 0
1, 15360, Note_on_c, 0, 62, 73
1, 15360, Note_on_c, 0, 66, 87
1, 15360, Note_on_c, 0, 35, 53
1, 15360, Note_on_c, 0, 47, 62
1, 15371, Control_c, 0, 64, 0
1, 15416, Control_c, 0, 64, 127
1, 15420, Note_on_c, 0, 47, 0
1, 15420, Note_on_c, 0, 35, 0
1, 15480, Note_on_c, 0, 66, 0
1, 15480, Note_on_c, 0, 62, 0
1, 15480, Note_on_c, 0, 61, 68
1, 15480, Note_on_c, 0, 64, 80
1, 15600, Tempo, 470810
1, 15600, Note_on_c, 0, 64, 0
1, 15600, Note_on_c, 0, 61, 0
1, 15600, Note_on_c, 0, 62, 73
1, 15600, Note_on_c, 0, 66, 87
1, 15600, Note_on_c, 0, 54, 62
1, 15600, Note_on_c, 0, 47, 53
1, 15611, Control_c, 0, 64, 0
1, 15646, Control_c, 0, 64, 127
1, 15720, Tempo, 508647
1, 15840, Tempo, 463177
1, 15840, Note_on_c, 0, 47, 0
1, 15840, Note_on_c, 0, 66, 0
1, 15840, Note_on_c, 0, 71, 0
1, 15840, Note_on_c, 0, 62, 0
1, 15840, Note_on_c, 0, 54, 0
1, 15840, Note_on_c, 0, 62, 61
1, 15840, Note_on_c, 0, 68, 61
1, 15840, Note_on_c, 0, 71, 72
1, 15840, Note_on_c, 0, 52, 54
1, 15840, Note_on_c, 0, 59, 64
1, 15850, Control_c, 0, 64, 0
1, 15895, Control_c, 0, 64, 127
1, 15960, Note_on_c, 0, 59, 0
1, 15960, Note_on_c, 0, 71, 0
1, 15960, Note_on_c, 0, 52, 0
1, 15960, Note_on_c, 0, 62, 0
1, 15960, Note_on_c, 0, 64, 61
1, 15960, Note_on_c, 0, 72, 72
1, 16020, Note_on_c, 0, 72, 0
1, 16020, Note_on_c, 0, 64, 0
1, 16020, Note_on_c, 0, 68, 0
1, 16080, Tempo, 457596
1, 16080, Note_on_c, 0, 68, 61
1, 16080, Note_on_c, 0, 64, 61
1, 16080, Note_on_c, 0, 72, 72
1, 16080, Note_on_c, 0, 40, 54
1, 16080, Note_on_c, 0, 52, 64
1, 16090, Control_c, 0, 64, 0
1, 16140, Control_c, 0, 64, 127
1, 16200, Note_on_c, 0, 52, 0
1, 16200, Note_on_c, 0, 72, 0
1, 16200, Note_on_c, 0, 40, 0
1, 16200, Note_on_c, 0, 64, 0
1, 16200, Note_on_c, 0, 62, 61
1, 16200, Note_on_c, 0, 71, 72
1, 16260, Note_on_c, 0, 71, 0
1, 16260, Note_on_c, 0, 62, 0
1, 16260, Note_on_c, 0, 68, 0
1, 16320, Tempo, 463177
1, 16320, Note_on_c, 0, 68, 61
1, 16320, Note_on_c, 0, 62, 61
1, 16320, Note_on_c, 0, 71, 72
1, 16320, Note_on_c, 0, 59, 64
1, 16320, Note_on_c, 0, 52, 54
1, 16328, Control_c, 0, 64, 0
1, 16377, Control_c, 0, 64, 127
1, 16440, Tempo, 533570
1, 16440, Note_on_c, 0, 52, 0
1, 16440, Note_on_c, 0, 71, 0
1, 16440, Note_on_c, 0, 59, 0
1, 16440, Note_on_c, 0, 62, 0
1, 16440, Note_on_c, 0, 64, 61
1, 16440, Note_on_c, 0, 72, 72
1, 16500, Note_on_c, 0, 72, 0
1, 16500, Note_on_c, 0, 64, 0
1, 16500, Note_on_c, 0, 68, 0
1, 16506, Control_c, 0, 64, 0
1, 16560, Tempo, 467909
1, 16560, Note_on_c, 0, 69, 87
1, 16560, Note_on_c, 0, 62, 73
1, 16560, Note_on_c, 0, 65, 87
1, 16560, Note_on_c, 0, 45, 57
1, 16560, Note_on_c, 0, 52, 57
1, 16560, Note_on_c, 0, 57, 68
1, 16609, Control_c, 0, 64, 127
1, 16680, Note_on_c, 0, 65, 0
1, 16680, Note_on_c, 0, 62, 0
1, 16680, Note_on_c, 0, 60, 70
1, 16680, Note_on_c, 0, 64, 82
1, 16770, Note_on_c, 0, 65, 63
1, 16800, Tempo, 458926
1, 16800, Note_on_c, 0, 65, 0
1, 16800, Note_on_c, 0, 60, 0
1, 16800, Note_on_c, 0, 57, 0
1, 16800, Note_on_c, 0, 52, 0
1, 16800, Note_on_c, 0, 45, 0
1, 16800, Note_on_c, 0, 64, 0
1, 16800, Note_on_c, 0, 60, 73
1, 16800, Note_on_c, 0, 64, 87
1, 16800, Note_on_c, 0, 33, 53
1, 16800, Note_on_c, 0, 45, 62
1, 16810, Control_c, 0, 64, 0
1, 16857, Control_c, 0, 64, 127
1, 16860, Note_on_c, 0, 45, 0
1, 16860, Note_on_c, 0, 33, 0
1, 16920, Note_on_c, 0, 64, 0
1, 16920, Note_on_c, 0, 60, 0
1, 16920, Note_on_c, 0, 59, 68
1, 16920, Note_on_c, 0, 62, 80
1, 17040, Tempo, 474721
1, 17040, Note_on_c, 0, 62, 0
1, 17040, Note_on_c, 0, 59, 0
1, 17040, Note_on_c, 0, 60, 73
1, 17040, Note_on_c, 0, 64, 87
1, 17040, Note_on_c, 0, 45, 53
1, 17040, Note_on_c, 0, 52, 62
1, 17051, Control_c, 0, 64, 0
1, 17091, Control_c, 0, 64, 127
1, 17280, Tempo, 463177
1, 17280, Note_on_c, 0, 52, 0
1, 17280, Note_on_c, 0, 69, 0
1, 17280, Note_on_c, 0, 64, 0
1, 17280, Note_on_c, 0, 60, 0
1, 17280, Note_on_c, 0, 69, 84
1, 17280, Note_on_c, 0, 62, 69
1, 17280, Note_on_c, 0, 65, 82
1, 17280, Note_on_c, 0, 52, 54
1, 17280, Note_on_c, 0, 57, 64
1, 17288, Control_c, 0, 64, 0
1, 17329, Control_c, 0, 64, 127
1, 17400, Note_on_c, 0, 65, 0
1, 17400, Note_on_c, 0, 62, 0
1, 17400, Note_on_c, 0, 60, 66
1, 17400, Note_on_c, 0, 64, 77
1, 17490, Note_on_c, 0, 65, 59
1, 17520, Tempo, 452080
1, 17520, Note_on_c, 0, 65, 0
1, 17520, Note_on_c, 0, 60, 0
1, 17520, Note_on_c, 0, 57, 0
1, 17520, Note_on_c, 0, 45, 0
1, 17520, Note_on_c, 0, 52, 0
1, 17520, Note_on_c, 0, 64, 0
1, 17520, Note_on_c, 0, 60, 69
1, 17520, Note_on_c, 0, 64, 82
1, 17520, Note_on_c, 0, 45, 58
1, 17520, Note_on_c, 0, 33, 50
1, 17535, Control_c, 0, 64, 0
1, 17580, Note_on_c, 0, 33, 0
1, 17580, Note_on_c, 0, 45, 0
1, 17586, Control_c, 0, 64, 127
1, 17640, Note_on_c, 0, 64, 0
1, 17640, Note_on_c, 0, 60, 0
1, 17640, Note_on_c, 0, 59, 64
1, 17640, Note_on_c, 0, 62, 76
1, 17760, Tempo, 474721
1, 17760, Note_on_c, 0, 62, 0
1, 17760, Note_on_c, 0, 59, 0
1, 17760, Note_on_c, 0, 60, 69
1, 17760, Note_on_c, 0, 64, 82
1, 17760, Note_on_c, 0, 45, 50
1, 17760, Note_on_c, 0, 52, 58
1, 17774, Control_c, 0, 64, 0
1, 17826, Control_c, 0, 64, 127
1, 18000, Tempo, 463177
1, 18000, Note_on_c, 0, 52, 0
1, 18000, Note_on_c, 0, 64, 0
1, 18000, Note_on_c, 0, 60, 0
1, 18000, Note_on_c, 0, 62, 69
1, 18000, Note_on_c, 0, 65, 82
1, 18000, Note_on_c, 0, 57, 64
1, 18000, Note_on_c, 0, 52, 54
1, 18014, Control_c, 0, 64, 0
1, 18049, Control_c, 0, 64, 127
1, 18120, Note_on_c, 0, 65, 0
1, 18120, Note_on_c, 0, 62, 0
1, 18120, Note_on_c, 0, 60, 66
1, 18120, Note_on_c, 0, 64, 77
1, 18210, Note_on_c, 0, 65, 59
1, 18240, Tempo, 452080
1, 18240, Note_on_c, 0, 65, 0
1, 18240, Note_on_c, 0, 60, 0
1, 18240, Note_on_c, 0, 52, 0
1, 18240, Note_on_c, 0, 45, 0
1, 18240, Note_on_c, 0, 57, 0
1, 18240, Note_on_c, 0, 64, 0
1, 18240, Note_on_c, 0, 60, 69
1, 18240, Note_on_c, 0, 64, 82
1, 18240, Note_on_c, 0, 33, 50
1, 18240, Note_on_c, 0, 45, 58
1, 18249, Control_c, 0, 64, 0
1, 18300, Note_on_c, 0, 45, 0
1, 18300, Note_on_c, 0, 33, 0
1, 18300, Control_c, 0, 64, 127
1, 18360, Note_on_c, 0, 64, 0
1, 18360, Note_on_c, 0, 60, 0
1, 18360, Note_on_c, 0, 59, 64
1, 18360, Note_on_c, 0, 62, 76
1, 18480, Tempo, 474721
1, 18480, Note_on_c, 0, 62, 0
1, 18480, Note_on_c, 0, 59, 0
1, 18480, Note_on_c, 0, 60, 69
1, 18480, Note_on_c, 0, 64, 82
1, 18480, Note_on_c, 0, 52, 58
1, 18480, Note_on_c, 0, 45, 50
1, 18490, Control_c, 0, 64, 0
1, 18543, Control_c, 0, 64, 127
1, 18600, Tempo, 501966
1, 18600, Note_on_c, 0, 45, 0
1, 18600, Note_on_c, 0, 52, 0
1, 18666, Control_c, 0, 64, 0
1, 18720, Tempo, 463177
1, 18720, Note_on_c, 0, 69, 0
1, 18720, Note_on_c, 0, 60, 0
1, 18720, Note_on_c, 0, 64, 0
1, 18720, Note_on_c, 0, 60, 61
1, 18720, Note_on_c, 0, 66, 61
1, 18720, Note_on_c, 0, 69, 72
1, 18720, Note_on_c, 0, 57, 64
1, 18720, Control_c, 0, 64, 127
1, 18720, Note_on_c, 0, 50, 54
1, 18840, Note_on_c, 0, 50, 0
1, 18840, Note_on_c, 0, 69, 0
1, 18840, Note_on_c, 0, 57, 0
1, 18840, Note_on_c, 0, 60, 0
1, 18840, Note_on_c, 0, 62, 61
1, 18840, Note_on_c, 0, 71, 72
1, 18900, Note_on_c, 0, 71, 0
1, 18900, Note_on_c, 0, 62, 0
1, 18900, Note_on_c, 0, 66, 0
1, 18960, Tempo, 457596
1, 18960, Note_on_c, 0, 66, 61
1, 18960, Note_on_c, 0, 62, 61
1, 18960, Note_on_c, 0, 71, 72
1, 18960, Note_on_c, 0, 38, 54
1, 18960, Note_on_c, 0, 50, 64
1, 18972, Control_c, 0, 64, 0
1, 19015, Control_c, 0, 64, 127
1, 19080, Note_on_c, 0, 50, 0
1, 19080, Note_on_c, 0, 71, 0
1, 19080, Note_on_c, 0, 38, 0
1, 19080, Note_on_c, 0, 62, 0
1, 19080, Note_on_c, 0, 60, 61
1, 19080, Note_on_c, 0, 69, 72
1, 19140, Note_on_c, 0, 69, 0
1, 19140, Note_on_c, 0, 60, 0
1, 19140, Note_on_c, 0, 66, 0
1, 19200, Tempo, 463177
1, 19200, Note_on_c, 0, 66, 61
1, 19200, Note_on_c, 0, 60, 61
1, 19200, Note_on_c, 0, 69, 72
1, 19200, Note_on_c, 0, 57, 64
1, 19200, Note_on_c, 0, 50, 54
1, 19209, Control_c, 0, 64, 0
1, 19257, Control_c, 0, 64, 127
1, 19320, Note_on_c, 0, 50, 0
1, 19320, Note_on_c, 0, 69, 0
1, 19320, Note_on_c, 0, 57, 0
1, 19320, Note_on_c, 0, 60, 0
1, 19320, Note_on_c, 0, 62, 61
1, 19320, Note_on_c, 0, 71, 72
1, 19380, Note_on_c, 0, 71, 0
1, 19380, Note_on_c, 0, 62, 0
1, 19380, Note_on_c, 0, 66, 0
1, 19400, Control_c, 0, 64, 0
1, 19440, Tempo, 463177
1, 19440, Note_on_c, 0, 67, 78
1, 19440, Note_on_c, 0, 60, 65
1, 19440, Note_on_c, 0, 64, 78
1, 19440, Note_on_c, 0, 43, 51
1, 19440, Note_on_c, 0, 50, 51
1, 19440, Note_on_c, 0, 55, 61
1, 19497, Control_c, 0, 64, 127
1, 19560, Note_on_c, 0, 64, 0
1, 19560, Note_on_c, 0, 60, 0
1, 19560, Note_on_c, 0, 59, 63
1, 19560, Note_on_c, 0, 62, 73
1, 19650, Note_on_c, 0, 64, 56
1, 19680, Tempo, 452080
1, 19680, Note_on_c, 0, 64, 0
1, 19680, Note_on_c, 0, 59, 0
1, 19680, Note_on_c, 0, 55, 0
1, 19680, Note_on_c, 0, 50, 0
1, 19680, Note_on_c, 0, 43, 0
1, 19680, Note_on_c, 0, 62, 0
1, 19680, Note_on_c, 0, 59, 65
1, 19680, Note_on_c, 0, 62, 78
1, 19680, Note_on_c, 0, 31, 47
1, 19680, Note_on_c, 0, 43, 55
1, 19686, Control_c, 0, 64, 0
1, 19726, Control_c, 0, 64, 127
1, 19740, Note_on_c, 0, 43, 0
1, 19740, Note_on_c, 0, 31, 0
1, 19800, Note_on_c, 0, 62, 0
1, 19800, Note_on_c, 0, 59, 0
1, 19800, Note_on_c, 0, 57, 61
1, 19800, Note_on_c, 0, 60, 72
1, 19920, Tempo, 474721
1, 19920, Note_on_c, 0, 60, 0
1, 19920, Note_on_c, 0, 57, 0
1, 19920, Note_on_c, 0, 59, 65
1, 19920, Note_on_c, 0, 62, 78
1, 19920, Note_on_c, 0, 43, 47
1, 19920, Note_on_c, 0, 55, 55
1, 19932, Control_c, 0, 64, 0
1, 19989, Control_c, 0, 64, 127
1, 20040, Tempo, 578871
1, 20040, Note_on_c, 0, 55, 0
1, 20040, Note_on_c, 0, 43, 0
1, 20106, Control_c, 0, 64, 0
1, 20160, Tempo, 463177
1, 20160, Note_on_c, 0, 67, 0
1, 20160, Note_on_c, 0, 59, 0
1, 20160, Note_on_c, 0, 62, 0
1, 20160, Note_on_c, 0, 64, 37
1, 20160, Note_on_c, 0, 67, 44
1, 20160, Note_on_c, 0, 48, 32
1, 20160, Note_on_c, 0, 55, 38
1, 20189, Control_c, 0, 64, 127
1, 20220, Note_on_c, 0, 55, 0
1, 20220, Note_on_c, 0, 48, 0
1, 20280, Note_on_c, 0, 67, 0
1, 20280, Note_on_c, 0, 69, 45
1, 20340, Note_on_c, 0, 69, 0
1, 20340, Note_on_c, 0, 64, 0
1, 20400, Tempo, 459418
1, 20400, Note_on_c, 0, 64, 40
1, 20400, Note_on_c, 0, 69, 49
1, 20400, Note_on_c, 0, 60, 38
1, 20400, Note_on_c, 0, 48, 32
1, 20400, Note_on_c, 0, 55, 32
1, 20410, Control_c, 0, 64, 0
1, 20449, Control_c, 0, 64, 127
1, 20460, Note_on_c, 0, 55, 0
1, 20460, Note_on_c, 0, 60, 0
1, 20460, Note_on_c, 0, 48, 0
1, 20520, Note_on_c, 0, 69, 0
1, 20520, Note_on_c, 0, 71, 51
1, 20580, Note_on_c, 0, 71, 0
1, 20580, Note_on_c, 0, 64, 0
1, 20640, Note_on_c, 0, 64, 45
1, 20640, Note_on_c, 0, 71, 54
1, 20640, Note_on_c, 0, 48, 35
1, 20640, Note_on_c, 0, 55, 35
1, 20640, Note_on_c, 0, 60, 42
1, 20650, Control_c, 0, 64, 0
1, 20700, Note_on_c, 0, 60, 0
1, 20700, Note_on_c, 0, 48, 0
1, 20700, Note_on_c, 0, 55, 0
1, 20700, Control_c, 0, 64, 127
1, 20760, Tempo, 455754
1, 20760, Note_on_c, 0, 71, 0
1, 20760, Note_on_c, 0, 72, 57
1, 20820, Note_on_c, 0, 72, 0
1, 20820, Note_on_c, 0, 64, 0
1, 20880, Tempo, 450349
1, 20880, Note_on_c, 0, 64, 51
1, 20880, Note_on_c, 0, 72, 61
1, 20880, Note_on_c, 0, 48, 43
1, 20880, Note_on_c, 0, 55, 43
1, 20880, Note_on_c, 0, 60, 52
1, 20887, Control_c, 0, 64, 0
1, 20923, Control_c, 0, 64, 127
1, 20940, Note_on_c, 0, 60, 0
1, 20940, Note_on_c, 0, 48, 0
1, 20940, Note_on_c, 0, 55, 0
1, 21000, Note_on_c, 0, 72, 0
1, 21000, Note_on_c, 0, 74, 63
1, 21060, Note_on_c, 0, 74, 0
1, 21060, Note_on_c, 0, 64, 0
1, 21120, Note_on_c, 0, 64, 55
1, 21120, Note_on_c, 0, 69, 55
1, 21120, Note_on_c, 0, 74, 66
1, 21120, Note_on_c, 0, 60, 52
1, 21120, Note_on_c, 0, 48, 43
1, 21120, Note_on_c, 0, 54, 43
1, 21134, Control_c, 0, 64, 0
1, 21160, Control_c, 0, 64, 127
1, 21180, Note_on_c, 0, 54, 0
1, 21180, Note_on_c, 0, 60, 0
1, 21180, Note_on_c, 0, 48, 0
1, 21240, Note_on_c, 0, 74, 0
1, 21240, Note_on_c, 0, 76, 69
1, 21300, Note_on_c, 0, 76, 0
1, 21300, Note_on_c, 0, 69, 0
1, 21300, Note_on_c, 0, 64, 0
1, 21354, Control_c, 0, 64, 0
1, 21360, Tempo, 493665
1, 21360, Note_on_c, 0, 64, 60
1, 21360, Note_on_c, 0, 69, 60
1, 21360, Note_on_c, 0, 76, 72
1, 21360, Note_on_c, 0, 59, 56
1, 21360, Note_on_c, 0, 47, 47
1, 21360, Note_on_c, 0, 54, 47
1, 21397, Control_c, 0, 64, 127
1, 21420, Note_on_c, 0, 54, 0
1, 21420, Note_on_c, 0, 59, 0
1, 21420, Note_on_c, 0, 47, 0
1, 21480, Tempo, 528448
1, 21480, Note_on_c, 0, 76, 0
1, 21480, Note_on_c, 0, 62, 57
1, 21480, Note_on_c, 0, 74, 68
1, 21529, Control_c, 0, 64, 0
1, 21540, Note_on_c, 0, 74, 0
1, 21540, Note_on_c, 0, 64, 0
1, 21540, Note_on_c, 0, 69, 0
1, 21540, Note_on_c, 0, 62, 0
1, 21600, Tempo, 463177
1, 21600, Note_on_c, 0, 64, 39
1, 21600, Note_on_c, 0, 67, 47
1, 21600, Note_on_c, 0, 52, 34
1, 21600, Note_on_c, 0, 59, 40
1, 21626, Control_c, 0, 64, 127
1, 21660, Note_on_c, 0, 59, 0
1, 21660, Note_on_c, 0, 52, 0
1, 21720, Note_on_c, 0, 67, 0
1, 21720, Note_on_c, 0, 69, 48
1, 21780, Note_on_c, 0, 69, 0
1, 21780, Note_on_c, 0, 64, 0
1, 21840, Tempo, 457596
1, 21840, Note_on_c, 0, 64, 41
1, 21840, Note_on_c, 0, 69, 50
1, 21840, Note_on_c, 0, 55, 33
1, 21840, Note_on_c, 0, 48, 33
1, 21840, Note_on_c, 0, 60, 39
1, 21848, Control_c, 0, 64, 0
1, 21892, Control_c, 0, 64, 127
1, 21900, Note_on_c, 0, 60, 0
1, 21900, Note_on_c, 0, 55, 0
1, 21900, Note_on_c, 0, 48, 0
1, 21960, Note_on_c, 0, 69, 0
1, 21960, Note_on_c, 0, 71, 51
1, 22020, Note_on_c, 0, 71, 0
1, 22020, Note_on_c, 0, 64, 0
1, 22080, Note_on_c, 0, 64, 45
1, 22080, Note_on_c, 0, 71, 54
1, 22080, Note_on_c, 0, 60, 42
1, 22080, Note_on_c, 0, 48, 35
1, 22080, Note_on_c, 0, 55, 35
1, 22086, Control_c, 0, 64, 0
1, 22135, Control_c, 0, 64, 127
1, 22140, Note_on_c, 0, 55, 0
1, 22140, Note_on_c, 0, 60, 0
1, 22140, Note_on_c, 0, 48, 0
1, 22200, Tempo, 455754
1, 22200, Note_on_c, 0, 71, 0
1, 22200, Note_on_c, 0, 72, 55
1, 22260, Note_on_c, 0, 72, 0
1, 22260, Note_on_c, 0, 64, 0
1, 22320, Tempo, 450349
1, 22320, Note_on_c, 0, 64, 48
1, 22320, Note_on_c, 0, 72, 57
1, 22320, Note_on_c, 0, 48, 41
1, 22320, Note_on_c, 0, 55, 41
1, 22320, Note_on_c, 0, 60, 49
1, 22329, Control_c, 0, 64, 0
1, 22363, Control_c, 0, 64, 127
1, 22380, Note_on_c, 0, 60, 0
1, 22380, Note_on_c, 0, 48, 0
1, 22380, Note_on_c, 0, 55, 0
1, 22440, Note_on_c, 0, 72, 0
1, 22440, Note_on_c, 0, 74, 58
1, 22500, Note_on_c, 0, 74, 0
1, 22500, Note_on_c, 0, 64, 0
1, 22560, Note_on_c, 0, 64, 51
1, 22560, Note_on_c, 0, 69, 51
1, 22560, Note_on_c, 0, 74, 61
1, 22560, Note_on_c, 0, 54, 39
1, 22560, Note_on_c, 0, 48, 39
1, 22560, Note_on_c, 0, 60, 48
1, 22574, Control_c, 0, 64, 0
1, 22600, Control_c, 0, 64, 127
1, 22620, Note_on_c, 0, 60, 0
1, 22620, Note_on_c, 0, 48, 0
1, 22680, Note_on_c, 0, 74, 0
1, 22680, Note_on_c, 0, 76, 63
1, 22740, Note_on_c, 0, 76, 0
1, 22740, Note_on_c, 0, 64, 0
1, 22740, Note_on_c, 0, 69, 0
1, 22800, Tempo, 466926
1, 22800, Note_on_c, 0, 69, 54
1, 22800, Note_on_c, 0, 76, 64
1, 22800, Note_on_c, 0, 59, 50
1, 22800, Note_on_c, 0, 47, 42
1, 22804, Control_c, 0, 64, 0
1, 22837, Control_c, 0, 64, 127
1, 22860, Note_on_c, 0, 47, 0
1, 22860, Note_on_c, 0, 59, 0
1, 22920, Tempo, 605205
1, 22920, Note_on_c, 0, 76, 0
1, 22920, Note_on_c, 0, 78, 66
1, 22920, Note_on_c, 0, 75, 66
1, 22980, Note_on_c, 0, 75, 0
1, 22980, Note_on_c, 0, 78, 0
1, 22980, Note_on_c, 0, 69, 0
1, 23040, Tempo, 457596
1, 23040, Note_on_c, 0, 54, 0
1, 23040, Note_on_c, 0, 67, 56
1, 23040, Note_on_c, 0, 76, 56
1, 23040, Note_on_c, 0, 79, 67
1, 23040, Note_on_c, 0, 52, 43
1, 23040, Note_on_c, 0, 59, 51
1, 23050, Control_c, 0, 64, 0
1, 23097, Control_c, 0, 64, 127
1, 23160, Note_on_c, 0, 59, 0
1, 23160, Note_on_c, 0, 79, 0
1, 23160, Note_on_c, 0, 67, 0
1, 23160, Note_on_c, 0, 76, 0
1, 23160, Note_on_c, 0, 52, 0
1, 23280, Note_on_c, 0, 69, 56
1, 23280, Note_on_c, 0, 76, 56
1, 23280, Note_on_c, 0, 79, 67
1, 23280, Note_on_c, 0, 59, 49
1, 23280, Note_on_c, 0, 47, 41
1, 23290, Control_c, 0, 64, 0
1, 23351, Control_c, 0, 64, 127
1, 23400, Note_on_c, 0, 79, 0
1, 23400, Note_on_c, 0, 76, 0
1, 23400, Note_on_c, 0, 75, 54
1, 23400, Note_on_c, 0, 78, 64
1, 23460, Note_on_c, 0, 78, 0
1, 23460, Note_on_c, 0, 69, 0
1, 23460, Note_on_c, 0, 47, 0
1, 23460, Note_on_c, 0, 59, 0
1, 23460, Note_on_c, 0, 75, 0
1, 23520, Note_on_c, 0, 67, 56
1, 23520, Note_on_c, 0, 75, 56
1, 23520, Note_on_c, 0, 78, 67
1, 23520, Note_on_c, 0, 52, 41
1, 23520, Note_on_c, 0, 59, 49
1, 23529, Control_c, 0, 64, 0
1, 23584, Control_c, 0, 64, 127
1, 23640, Note_on_c, 0, 78, 0
1, 23640, Note_on_c, 0, 75, 0
1, 23640, Note_on_c, 0, 76, 55
1, 23640, Note_on_c, 0, 79, 65
1, 23700, Note_on_c, 0, 79, 0
1, 23700, Note_on_c, 0, 67, 0
1, 23700, Note_on_c, 0, 59, 0
1, 23700, Note_on_c, 0, 52, 0
1, 23700, Note_on_c, 0, 76, 0
1, 23740, Tempo, 453926
1, 23760, Tempo, 465008
1, 23760, Note_on_c, 0, 69, 58
1, 23760, Note_on_c, 0, 76, 58
1, 23760, Note_on_c, 0, 79, 70
1, 23760, Note_on_c, 0, 47, 43
1, 23760, Note_on_c, 0, 59, 51
1, 23764, Control_c, 0, 64, 0
1, 23795, Control_c, 0, 64, 127
1, 23880, Note_on_c, 0, 79, 0
1, 23880, Note_on_c, 0, 76, 0
1, 23880, Note_on_c, 0, 75, 58
1, 23880, Note_on_c, 0, 78, 69
1, 23940, Note_on_c, 0, 78, 0
1, 23940, Note_on_c, 0, 69, 0
1, 23940, Note_on_c, 0, 59, 0
1, 23940, Note_on_c, 0, 47, 0
1, 23940, Note_on_c, 0, 75, 0
1, 24000, Note_on_c, 0, 67, 62
1, 24000, Note_on_c, 0, 75, 62
1, 24000, Note_on_c, 0, 78, 74
1, 24000, Note_on_c, 0, 52, 45
1, 24000, Note_on_c, 0, 59, 54
1, 24009, Control_c, 0, 64, 0
1, 24032, Control_c, 0, 64, 127
1, 24120, Tempo, 472739
1, 24120, Note_on_c, 0, 78, 0
1, 24120, Note_on_c, 0, 75, 0
1, 24120, Note_on_c, 0, 76, 61
1, 24120, Note_on_c, 0, 79, 72
1, 24180, Note_on_c, 0, 79, 0
1, 24180, Note_on_c, 0, 67, 0
1, 24180, Note_on_c, 0, 59, 0
1, 24180, Note_on_c, 0, 52, 0
1, 24180, Note_on_c, 0, 76, 0
1, 24240, Tempo, 463177
1, 24240, Note_on_c, 0, 67, 64
1, 24240, Note_on_c, 0, 79, 77
1, 24240, Note_on_c, 0, 76, 64
1, 24240, Note_on_c, 0, 59, 56
1, 24240, Note_on_c, 0, 47, 47
1, 24250, Control_c, 0, 64, 0
1, 24293, Control_c, 0, 64, 127
1, 24360, Note_on_c, 0, 76, 0
1, 24360, Note_on_c, 0, 67, 0
1, 24360, Note_on_c, 0, 79, 0
1, 24360, Note_on_c, 0, 77, 62
1, 24360, Note_on_c, 0, 80, 73
1, 24360, Note_on_c, 0, 68, 62
1, 24420, Note_on_c, 0, 68, 0
1, 24420, Note_on_c, 0, 77, 0
1, 24420, Note_on_c, 0, 47, 0
1, 24420, Note_on_c, 0, 59, 0
1, 24420, Note_on_c, 0, 80, 0
1, 24480, Tempo, 470810
1, 24480, Note_on_c, 0, 68, 64
1, 24480, Note_on_c, 0, 80, 77
1, 24480, Note_on_c, 0, 77, 64
1, 24480, Note_on_c, 0, 47, 56
1, 24480, Note_on_c, 0, 35, 47
1, 24490, Control_c, 0, 64, 0
1, 24500, Tempo, 452080
1, 24533, Control_c, 0, 64, 127
1, 24580, Tempo, 453926
1, 24600, Note_on_c, 0, 77, 0
1, 24600, Note_on_c, 0, 68, 0
1, 24600, Note_on_c, 0, 80, 0
1, 24600, Note_on_c, 0, 78, 62
1, 24600, Note_on_c, 0, 81, 73
1, 24600, Note_on_c, 0, 69, 62
1, 24640, Tempo, 455754
1, 24660, Note_on_c, 0, 69, 0
1, 24660, Note_on_c, 0, 78, 0
1, 24660, Note_on_c, 0, 35, 0
1, 24660, Note_on_c, 0, 47, 0
1, 24660, Note_on_c, 0, 81, 0
1, 24720, Tempo, 457596
1, 24720, Note_on_c, 0, 69, 65
1, 24720, Note_on_c, 0, 81, 78
1, 24720, Note_on_c, 0, 78, 65
1, 24720, Note_on_c, 0, 59, 47
1, 24720, Note_on_c, 0, 62, 57
1, 24720, Note_on_c, 0, 53, 47
1, 24730, Control_c, 0, 64, 0
1, 24773, Control_c, 0, 64, 127
1, 24780, Tempo, 459418
1, 24840, Note_on_c, 0, 78, 0
1, 24840, Note_on_c, 0, 69, 0
1, 24840, Note_on_c, 0, 81, 0
1, 24840, Note_on_c, 0, 77, 63
1, 24840, Note_on_c, 0, 80, 75
1, 24840, Note_on_c, 0, 68, 63
1, 24860, Tempo, 461255
1, 24900, Note_on_c, 0, 68, 0
1, 24900, Note_on_c, 0, 62, 0
1, 24900, Note_on_c, 0, 59, 0
1, 24900, Note_on_c, 0, 53, 0
1, 24900, Note_on_c, 0, 80, 0
1, 24900, Note_on_c, 0, 77, 0
1, 24920, Tempo, 463177
1, 24960, Note_on_c, 0, 68, 67
1, 24960, Note_on_c, 0, 80, 80
1, 24960, Note_on_c, 0, 77, 67
1, 24960, Note_on_c, 0, 63, 58
1, 24960, Note_on_c, 0, 59, 49
1, 24960, Note_on_c, 0, 54, 49
1, 24970, Control_c, 0, 64, 0
1, 25000, Tempo, 465008
1, 25013, Control_c, 0, 64, 127
1, 25060, Tempo, 466926
1, 25080, Note_on_c, 0, 77, 0
1, 25080, Note_on_c, 0, 68, 0
1, 25080, Note_on_c, 0, 80, 0
1, 25080, Note_on_c, 0, 78, 65
1, 25080, Note_on_c, 0, 81, 77
1, 25080, Note_on_c, 0, 69, 65
1, 25140, Tempo, 468860
1, 25140, Note_on_c, 0, 69, 0
1, 25140, Note_on_c, 0, 59, 0
1, 25140, Note_on_c, 0, 63, 0
1, 25140, Note_on_c, 0, 54, 0
1, 25140, Note_on_c, 0, 81, 0
1, 25140, Note_on_c, 0, 78, 0
1, 25160, Tempo, 465008
1, 25200, Note_on_c, 0, 69, 68
1, 25200, Note_on_c, 0, 81, 82
1, 25200, Note_on_c, 0, 78, 68
1, 25200, Note_on_c, 0, 53, 50
1, 25200, Note_on_c, 0, 59, 50
1, 25200, Note_on_c, 0, 62, 59
1, 25210, Control_c, 0, 64, 0
1, 25220, Tempo, 466926
1, 25253, Control_c, 0, 64, 127
1, 25260, Tempo, 468860
1, 25300, Tempo, 470810
1, 25320, Note_on_c, 0, 78, 0
1, 25320, Note_on_c, 0, 69, 0
1, 25320, Note_on_c, 0, 81, 0
1, 25320, Note_on_c, 0, 77, 66
1, 25320, Note_on_c, 0, 80, 78
1, 25320, Note_on_c, 0, 68, 66
1, 25360, Tempo, 472739
1, 25380, Note_on_c, 0, 68, 0
1, 25380, Note_on_c, 0, 59, 0
1, 25380, Note_on_c, 0, 53, 0
1, 25380, Note_on_c, 0, 62, 0
1, 25380, Note_on_c, 0, 80, 0
1, 25380, Note_on_c, 0, 77, 0
1, 25400, Tempo, 474721
1, 25440, Tempo, 476720
1, 25440, Note_on_c, 0, 68, 70
1, 25440, Note_on_c, 0, 80, 84
1, 25440, Note_on_c, 0, 77, 70
1, 25440, Note_on_c, 0, 59, 51
1, 25440, Note_on_c, 0, 63, 61
1, 25440, Note_on_c, 0, 54, 51
1, 25450, Control_c, 0, 64, 0
1, 25480, Tempo, 478736
1, 25493, Control_c, 0, 64, 127
1, 25540, Tempo, 480731
1, 25560, Note_on_c, 0, 77, 0
1, 25560, Note_on_c, 0, 68, 0
1, 25560, Note_on_c, 0, 80, 0
1, 25560, Note_on_c, 0, 78, 68
1, 25560, Note_on_c, 0, 81, 81
1, 25560, Note_on_c, 0, 69, 68
1, 25580, Tempo, 482742
1, 25620, Tempo, 484848
1, 25620, Note_on_c, 0, 69, 0
1, 25620, Note_on_c, 0, 63, 0
1, 25620, Note_on_c, 0, 59, 0
1, 25620, Note_on_c, 0, 54, 0
1, 25620, Note_on_c, 0, 81, 0
1, 25620, Note_on_c, 0, 78, 0
1, 25660, Tempo, 486934
1, 25680, Tempo, 515553
1, 25680, Note_on_c, 0, 69, 71
1, 25680, Note_on_c, 0, 81, 86
1, 25680, Note_on_c, 0, 78, 71
1, 25680, Note_on_c, 0, 47, 62
1, 25680, Note_on_c, 0, 35, 52
1, 25690, Control_c, 0, 64, 0
1, 25700, Tempo, 504117
1, 25720, Tempo, 506372
1, 25733, Control_c, 0, 64, 127
1, 25740, Tempo, 508647
1, 25760, Tempo, 510943
1, 25800, Tempo, 610128
1, 25800, Note_on_c, 0, 81, 0
1, 25800, Note_on_c, 0, 69, 0
1, 25800, Note_on_c, 0, 82, 82
1, 25800, Note_on_c, 0, 70, 70
1, 25860, Note_on_c, 0, 70, 0
1, 25860, Note_on_c, 0, 47, 0
1, 25860, Note_on_c, 0, 35, 0
1, 25860, Note_on_c, 0, 78, 0
1, 25860, Note_on_c, 0, 82, 0
1, 25920, Tempo, 488958
1, 25920, Note_on_c, 0, 70, 73
1, 25920, Note_on_c, 0, 78, 73
1, 25920, Note_on_c, 0, 82, 88
1, 25920, Note_on_c, 0, 34, 56
1, 25920, Note_on_c, 0, 46, 66
1, 25931, Control_c, 0, 64, 0
1, 25955, Control_c, 0, 64, 127
1, 26160, Tempo, 478736
1, 26160, Note_on_c, 0, 46, 0
1, 26160, Note_on_c, 0, 82, 0
1, 26160, Note_on_c, 0, 70, 0
1, 26160, Note_on_c, 0, 78, 0
1, 26160, Note_on_c, 0, 34, 0
1, 26160, Note_on_c, 0, 70, 70
1, 26160, Note_on_c, 0, 82, 83
1, 26160, Note_on_c, 0, 78, 70
1, 26160, Note_on_c, 0, 54, 49
1, 26160, Note_on_c, 0, 58, 49
1, 26160, Note_on_c, 0, 63, 58
1, 26175, Control_c, 0, 64, 0
1, 26217, Control_c, 0, 64, 127
1, 26280, Note_on_c, 0, 78, 0
1, 26280, Note_on_c, 0, 77, 65
1, 26280, Note_on_c, 0, 80, 77
1, 26340, Note_on_c, 0, 80, 0
1, 26340, Note_on_c, 0, 82, 0
1, 26340, Note_on_c, 0, 63, 0
1, 26340, Note_on_c, 0, 54, 0
1, 26340, Note_on_c, 0, 70, 0
1, 26340, Note_on_c, 0, 77, 0
1, 26340, Note_on_c, 0, 58, 0
1, 26400, Tempo, 468860
1, 26400, Note_on_c, 0, 70, 63
1, 26400, Note_on_c, 0, 82, 75
1, 26400, Note_on_c, 0, 77, 63
1, 26400, Note_on_c, 0, 80, 75
1, 26400, Note_on_c, 0, 63, 44
1, 26400, Note_on_c, 0, 66, 52
1, 26400, Note_on_c, 0, 58, 44
1, 26414, Control_c, 0, 64, 0
1, 26460, Control_c, 0, 64, 127
1, 26520, Tempo, 504117
1, 26520, Note_on_c, 0, 80, 0
1, 26520, Note_on_c, 0, 77, 0
1, 26520, Note_on_c, 0, 75, 58
1, 26520, Note_on_c, 0, 78, 69
1, 26580, Note_on_c, 0, 78, 0
1, 26580, Note_on_c, 0, 82, 0
1, 26580, Note_on_c, 0, 58, 0
1, 26580, Note_on_c, 0, 63, 0
1, 26580, Note_on_c, 0, 70, 0
1, 26580, Note_on_c, 0, 75, 0
1, 26580, Note_on_c, 0, 66, 0
1, 26640, Tempo, 484848
1, 26640, Note_on_c, 0, 77, 73
1, 26640, Note_on_c, 0, 70, 73
1, 26640, Note_on_c, 0, 80, 73
1, 26640, Note_on_c, 0, 82, 88
1, 26640, Note_on_c, 0, 46, 56
1, 26640, Note_on_c, 0, 58, 66
1, 26647, Control_c, 0, 64, 0
1, 26675, Control_c, 0, 64, 127
1, 26880, Tempo, 478736
1, 26880, Note_on_c, 0, 58, 0
1, 26880, Note_on_c, 0, 70, 0
1, 26880, Note_on_c, 0, 80, 0
1, 26880, Note_on_c, 0, 77, 0
1, 26880, Note_on_c, 0, 46, 0
1, 26880, Note_on_c, 0, 82, 0
1, 26880, Note_on_c, 0, 77, 70
1, 26880, Note_on_c, 0, 70, 70
1, 26880, Note_on_c, 0, 82, 83
1, 26880, Note_on_c, 0, 80, 70
1, 26880, Note_on_c, 0, 53, 49
1, 26880, Note_on_c, 0, 62, 58
1, 26896, Control_c, 0, 64, 0
1, 26900, Tempo, 491119
1, 26917, Control_c, 0, 64, 127
1, 27000, Note_on_c, 0, 80, 0
1, 27000, Note_on_c, 0, 77, 0
1, 27000, Note_on_c, 0, 78, 77
1, 27000, Note_on_c, 0, 75, 65
1, 27060, Note_on_c, 0, 75, 0
1, 27060, Note_on_c, 0, 62, 0
1, 27060, Note_on_c, 0, 82, 0
1, 27060, Note_on_c, 0, 70, 0
1, 27060, Note_on_c, 0, 78, 0
1, 27060, Note_on_c, 0, 53, 0
1, 27120, Note_on_c, 0, 70, 63
1, 27120, Note_on_c, 0, 82, 75
1, 27120, Note_on_c, 0, 75, 63
1, 27120, Note_on_c, 0, 78, 75
1, 27120, Note_on_c, 0, 58, 44
1, 27120, Note_on_c, 0, 68, 52
1, 27120, Note_on_c, 0, 65, 44
1, 27134, Control_c, 0, 64, 0
1, 27166, Control_c, 0, 64, 127
1, 27240, Tempo, 491119
1, 27240, Note_on_c, 0, 78, 0
1, 27240, Note_on_c, 0, 75, 0
1, 27240, Note_on_c, 0, 74, 58
1, 27240, Note_on_c, 0, 77, 69
1, 27300, Note_on_c, 0, 77, 0
1, 27300, Note_on_c, 0, 82, 0
1, 27300, Note_on_c, 0, 65, 0
1, 27300, Note_on_c, 0, 58, 0
1, 27300, Note_on_c, 0, 70, 0
1, 27300, Note_on_c, 0, 74, 0
1, 27300, Note_on_c, 0, 68, 0
1, 27360, Tempo, 480731
1, 27360, Note_on_c, 0, 75, 65
1, 27360, Note_on_c, 0, 70, 65
1, 27360, Note_on_c, 0, 78, 65
1, 27360, Note_on_c, 0, 82, 79
1, 27360, Note_on_c, 0, 39, 50
1, 27360, Note_on_c, 0, 51, 59
1, 27371, Control_c, 0, 64, 0
1, 27380, Tempo, 499709
1, 27395, Control_c, 0, 64, 127
1, 27480, Tempo, 555813
1, 27480, Note_on_c, 0, 51, 0
1, 27480, Note_on_c, 0, 70, 0
1, 27480, Note_on_c, 0, 78, 0
1, 27480, Note_on_c, 0, 75, 0
1, 27480, Note_on_c, 0, 39, 0
1, 27480, Note_on_c, 0, 82, 0
1, 27600, Tempo, 497512
1, 27600, Note_on_c, 0, 70, 63
1, 27600, Note_on_c, 0, 78, 63
1, 27600, Note_on_c, 0, 51, 44
1, 27600, Note_on_c, 0, 58, 52
1, 27610, Control_c, 0, 64, 0
1, 27660, Control_c, 0, 64, 127
1, 27720, Note_on_c, 0, 78, 0
1, 27720, Note_on_c, 0, 70, 0
1, 27720, Note_on_c, 0, 77, 68
1, 27720, Note_on_c, 0, 68, 57
1, 27780, Note_on_c, 0, 68, 0
1, 27780, Note_on_c, 0, 77, 0
1, 27840, Note_on_c, 0, 58, 0
1, 27840, Note_on_c, 0, 68, 54
1, 27840, Note_on_c, 0, 77, 64
1, 27840, Note_on_c, 0, 62, 44
1, 27850, Control_c, 0, 64, 0
1, 27889, Control_c, 0, 64, 127
1, 27960, Tempo, 543774
1, 27960, Note_on_c, 0, 77, 0
1, 27960, Note_on_c, 0, 68, 0
1, 27960, Note_on_c, 0, 67, 49
1, 27960, Note_on_c, 0, 75, 59
1, 28020, Note_on_c, 0, 75, 0
1, 28020, Note_on_c, 0, 67, 0
1, 28080, Tempo, 522648
1, 28080, Note_on_c, 0, 62, 0
1, 28080, Note_on_c, 0, 67, 61
1, 28080, Note_on_c, 0, 75, 74
1, 28080, Note_on_c, 0, 63, 55
1, 28091, Control_c, 0, 64, 0
1, 28115, Control_c, 0, 64, 127
1, 28200, Note_on_c, 0, 63, 0
1, 28200, Note_on_c, 0, 51, 0
1, 28200, Note_on_c, 0, 67, 0
1, 28200, Note_on_c, 0, 75, 0
1, 28300, Tempo, 486934
1, 28320, Tempo, 468860
1, 28320, Note_on_c, 0, 67, 52
1, 28320, Note_on_c, 0, 70, 52
1, 28320, Note_on_c, 0, 39, 36
1, 28320, Note_on_c, 0, 51, 42
1, 28335, Control_c, 0, 64, 0
1, 28360, Tempo, 470810
1, 28380, Tempo, 472739
1, 28391, Control_c, 0, 64, 127
1, 28400, Tempo, 474721
1, 28440, Tempo, 476720
1, 28440, Note_on_c, 0, 67, 0
1, 28440, Note_on_c, 0, 64, 45
1, 28460, Tempo, 478736
1, 28480, Tempo, 480731
1, 28500, Note_on_c, 0, 64, 0
1, 28500, Note_on_c, 0, 51, 0
1, 28500, Note_on_c, 0, 39, 0
1, 28500, Note_on_c, 0, 70, 0
1, 28520, Tempo, 482742
1, 28540, Tempo, 484848
1, 28560, Tempo, 486934
1, 28560, Note_on_c, 0, 71, 48
1, 28560, Note_on_c, 0, 64, 41
1, 28560, Note_on_c, 0, 67, 48
1, 28560, Note_on_c, 0, 51, 31
1, 28560, Note_on_c, 0, 61, 33
1, 28574, Control_c, 0, 64, 0
1, 28620, Control_c, 0, 64, 127
1, 28680, Note_on_c, 0, 64, 0
1, 28680, Note_on_c, 0, 63, 35
1, 28740, Note_on_c, 0, 63, 0
1, 28740, Note_on_c, 0, 61, 0
1, 28740, Note_on_c, 0, 71, 0
1, 28740, Note_on_c, 0, 67, 0
1, 28758, Control_c, 0, 64, 0
1, 28800, Tempo, 465008
1, 28800, Note_on_c, 0, 51, 0
1, 28800, Note_on_c, 0, 59, 46
1, 28800, Note_on_c, 0, 63, 54
1, 28800, Note_on_c, 0, 56, 41
1, 28800, Note_on_c, 0, 44, 34
1, 28800, Note_on_c, 0, 51, 34
1, 28803, Control_c, 0, 64, 127
1, 28920, Note_on_c, 0, 63, 0
1, 28920, Note_on_c, 0, 64, 42
1, 28930, Control_c, 0, 64, 0
1, 28980, Note_on_c, 0, 64, 0
1, 28980, Note_on_c, 0, 51, 0
1, 28980, Note_on_c, 0, 59, 0
1, 28980, Note_on_c, 0, 56, 0
1, 28980, Note_on_c, 0, 44, 0
1, 29040, Tempo, 455754
1, 29040, Note_on_c, 0, 59, 43
1, 29040, Note_on_c, 0, 64, 51
1, 29040, Note_on_c, 0, 32, 30
1, 29040, Note_on_c, 0, 44, 36
1, 29054, Control_c, 0, 64, 127
1, 29100, Note_on_c, 0, 44, 0
1, 29100, Note_on_c, 0, 32, 0
1, 29160, Note_on_c, 0, 64, 0
1, 29160, Note_on_c, 0, 65, 43
1, 29174, Control_c, 0, 64, 0
1, 29220, Note_on_c, 0, 65, 0
1, 29220, Note_on_c, 0, 59, 0
1, 29280, Note_on_c, 0, 59, 44
1, 29280, Note_on_c, 0, 63, 44
1, 29280, Note_on_c, 0, 65, 52
1, 29280, Note_on_c, 0, 39, 30
1, 29280, Note_on_c, 0, 51, 36
1, 29303, Control_c, 0, 64, 127
1, 29340, Note_on_c, 0, 51, 0
1, 29340, Note_on_c, 0, 39, 0
1, 29400, Tempo, 455754
1, 29400, Note_on_c, 0, 65, 0
1, 29400, Note_on_c, 0, 66, 44
1, 29410, Control_c, 0, 64, 0
1, 29460, Note_on_c, 0, 66, 0
1, 29460, Note_on_c, 0, 63, 0
1, 29460, Note_on_c, 0, 59, 0
1, 29520, Tempo, 450349
1, 29520, Note_on_c, 0, 59, 44
1, 29520, Note_on_c, 0, 63, 44
1, 29520, Note_on_c, 0, 66, 53
1, 29520, Note_on_c, 0, 56, 44
1, 29520, Note_on_c, 0, 44, 37
1, 29520, Note_on_c, 0, 51, 37
1, 29537, Control_c, 0, 64, 127
1, 29640, Note_on_c, 0, 66, 0
1, 29640, Note_on_c, 0, 67, 46
1, 29656, Control_c, 0, 64, 0
1, 29700, Note_on_c, 0, 67, 0
1, 29700, Note_on_c, 0, 51, 0
1, 29700, Note_on_c, 0, 56, 0
1, 29700, Note_on_c, 0, 59, 0
1, 29700, Note_on_c, 0, 63, 0
1, 29700, Note_on_c, 0, 44, 0
1, 29760, Note_on_c, 0, 59, 47
1, 29760, Note_on_c, 0, 63, 47
1, 29760, Note_on_c, 0, 67, 56
1, 29760, Note_on_c, 0, 32, 32
1, 29760, Note_on_c, 0, 44, 39
1, 29800, Control_c, 0, 64, 127
1, 29820, Note_on_c, 0, 44, 0
1, 29820, Note_on_c, 0, 32, 0
1, 29880, Note_on_c, 0, 67, 0
1, 29880, Note_on_c, 0, 68, 47
1, 29894, Control_c, 0, 64, 0
1, 29940, Note_on_c, 0, 68, 0
1, 29940, Note_on_c, 0, 63, 0
1, 29940, Note_on_c, 0, 59, 0
1, 30000, Tempo, 457596
1, 30000, Note_on_c, 0, 59, 48
1, 30000, Note_on_c, 0, 63, 48
1, 30000, Note_on_c, 0, 68, 57
1, 30000, Note_on_c, 0, 51, 40
1, 30000, Note_on_c, 0, 39, 33
1, 30037, Control_c, 0, 64, 127
1, 30060, Note_on_c, 0, 39, 0
1, 30060, Note_on_c, 0, 51, 0
1, 30120, Note_on_c, 0, 68, 0
1, 30120, Note_on_c, 0, 69, 49
1, 30136, Control_c, 0, 64, 0
1, 30180, Note_on_c, 0, 69, 0
1, 30180, Note_on_c, 0, 63, 0
1, 30180, Note_on_c, 0, 59, 0
1, 30240, Tempo, 450349
1, 30240, Note_on_c, 0, 63, 50
1, 30240, Note_on_c, 0, 69, 59
1, 30240, Note_on_c, 0, 51, 41
1, 30240, Note_on_c, 0, 56, 41
1, 30240, Note_on_c, 0, 59, 49
1, 30277, Control_c, 0, 64, 127
1, 30360, Note_on_c, 0, 69, 0
1, 30360, Note_on_c, 0, 70, 52
1, 30375, Control_c, 0, 64, 0
1, 30420, Note_on_c, 0, 70, 0
1, 30420, Note_on_c, 0, 59, 0
1, 30420, Note_on_c, 0, 63, 0
1, 30420, Note_on_c, 0, 51, 0
1, 30420, Note_on_c, 0, 56, 0
1, 30480, Note_on_c, 0, 63, 52
1, 30480, Note_on_c, 0, 70, 61
1, 30480, Note_on_c, 0, 32, 36
1, 30480, Note_on_c, 0, 44, 43
1, 30509, Control_c, 0, 64, 127
1, 30540, Note_on_c, 0, 44, 0
1, 30540, Note_on_c, 0, 32, 0
1, 30600, Note_on_c, 0, 70, 0
1, 30600, Note_on_c, 0, 71, 54
1, 30610, Control_c, 0, 64, 0
1, 30660, Note_on_c, 0, 71, 0
1, 30660, Note_on_c, 0, 63, 0
1, 30720, Tempo, 450349
1, 30720, Note_on_c, 0, 63, 55
1, 30720, Note_on_c, 0, 68, 66
1, 30720, Note_on_c, 0, 71, 66
1, 30720, Note_on_c, 0, 51, 46
1, 30720, Note_on_c, 0, 39, 38
1, 30754, Control_c, 0, 64, 127
1, 30780, Note_on_c, 0, 39, 0
1, 30780, Note_on_c, 0, 51, 0
1, 30840, Note_on_c, 0, 71, 0
1, 30840, Note_on_c, 0, 72, 56
1, 30851, Control_c, 0, 64, 0
1, 30900, Note_on_c, 0, 72, 0
1, 30900, Note_on_c, 0, 68, 0
1, 30900, Note_on_c, 0, 63, 0
1, 30960, Tempo, 448565
1, 30960, Note_on_c, 0, 68, 58
1, 30960, Note_on_c, 0, 63, 58
1, 30960, Note_on_c, 0, 72, 69
1, 30960, Note_on_c, 0, 51, 48
1, 30960, Note_on_c, 0, 56, 48
1, 30960, Note_on_c, 0, 59, 57
1, 30980, Control_c, 0, 64, 127
1, 31080, Note_on_c, 0, 72, 0
1, 31080, Note_on_c, 0, 73, 60
1, 31095, Control_c, 0, 64, 0
1, 31140, Note_on_c, 0, 73, 0
1, 31140, Note_on_c, 0, 59, 0
1, 31140, Note_on_c, 0, 51, 0
1, 31140, Note_on_c, 0, 68, 0
1, 31140, Note_on_c, 0, 63, 0
1, 31140, Note_on_c, 0, 56, 0
1, 31160, Tempo, 441599
1, 31200, Note_on_c, 0, 63, 61
1, 31200, Note_on_c, 0, 68, 61
1, 31200, Note_on_c, 0, 73, 71
1, 31200, Note_on_c, 0, 32, 41
1, 31200, Note_on_c, 0, 44, 50
1, 31229, Control_c, 0, 64, 127
1, 31240, Tempo, 443361
1, 31260, Note_on_c, 0, 44, 0
1, 31260, Note_on_c, 0, 32, 0
1, 31280, Tempo, 445038
1, 31320, Note_on_c, 0, 73, 0
1, 31320, Note_on_c, 0, 74, 62
1, 31333, Control_c, 0, 64, 0
1, 31380, Note_on_c, 0, 74, 0
1, 31380, Note_on_c, 0, 68, 0
1, 31380, Note_on_c, 0, 63, 0
1, 31440, Tempo, 453926
1, 31440, Note_on_c, 0, 63, 63
1, 31440, Note_on_c, 0, 68, 63
1, 31440, Note_on_c, 0, 74, 76
1, 31440, Note_on_c, 0, 39, 44
1, 31440, Note_on_c, 0, 51, 52
1, 31463, Control_c, 0, 64, 127
1, 31500, Note_on_c, 0, 51, 0
1, 31500, Note_on_c, 0, 39, 0
1, 31560, Note_on_c, 0, 74, 0
1, 31560, Note_on_c, 0, 75, 66
1, 31574, Control_c, 0, 64, 0
1, 31620, Note_on_c, 0, 75, 0
1, 31620, Note_on_c, 0, 68, 0
1, 31620, Note_on_c, 0, 63, 0
1, 31680, Tempo, 439883
1, 31680, Note_on_c, 0, 63, 68
1, 31680, Note_on_c, 0, 70, 68
1, 31680, Note_on_c, 0, 75, 81
1, 31680, Note_on_c, 0, 51, 47
1, 31680, Note_on_c, 0, 58, 56
1, 31712, Control_c, 0, 64, 127
1, 31740, Note_on_c, 0, 58, 0
1, 31740, Note_on_c, 0, 51, 0
1, 31800, Tempo, 453926
1, 31800, Note_on_c, 0, 75, 0
1, 31800, Note_on_c, 0, 76, 77
1, 31860, Note_on_c, 0, 76, 0
1, 31860, Note_on_c, 0, 70, 0
1, 31860, Note_on_c, 0, 63, 0
1, 31920, Tempo, 439883
1, 31920, Note_on_c, 0, 70, 69
1, 31920, Note_on_c, 0, 76, 82
1, 31920, Note_on_c, 0, 51, 57
1, 31920, Note_on_c, 0, 43, 48
1, 31935, Control_c, 0, 64, 0
1, 31969, Control_c, 0, 64, 127
1, 31980, Note_on_c, 0, 43, 0
1, 31980, Note_on_c, 0, 51, 0
1, 32040, Note_on_c, 0, 76, 0
1, 32040, Note_on_c, 0, 75, 78
1, 32100, Note_on_c, 0, 75, 0
1, 32100, Note_on_c, 0, 70, 0
1, 32160, Tempo, 452080
1, 32160, Note_on_c, 0, 63, 70
1, 32160, Note_on_c, 0, 70, 70
1, 32160, Note_on_c, 0, 75, 84
1, 32160, Note_on_c, 0, 51, 50
1, 32160, Note_on_c, 0, 58, 59
1, 32170, Control_c, 0, 64, 0
1, 32199, Control_c, 0, 64, 127
1, 32220, Note_on_c, 0, 58, 0
1, 32220, Note_on_c, 0, 51, 0
1, 32280, Tempo, 500250
1, 32280, Note_on_c, 0, 75, 0
1, 32280, Note_on_c, 0, 73, 84
1, 32340, Note_on_c, 0, 73, 0
1, 32340, Note_on_c, 0, 70, 0
1, 32340, Note_on_c, 0, 63, 0
1, 32400, Tempo, 455754
1, 32400, Note_on_c, 0, 63, 69
1, 32400, Note_on_c, 0, 68, 69
1, 32400, Note_on_c, 0, 73, 82
1, 32400, Note_on_c, 0, 51, 56
1, 32400, Note_on_c, 0, 44, 47
1, 32404, Control_c, 0, 64, 0
1, 32435, Control_c, 0, 64, 127
1, 32460, Note_on_c, 0, 44, 0
1, 32460, Note_on_c, 0, 51, 0
1, 32520, Note_on_c, 0, 73, 0
1, 32520, Note_on_c, 0, 71, 79
1, 32580, Note_on_c, 0, 71, 0
1, 32580, Note_on_c, 0, 68, 0
1, 32580, Note_on_c, 0, 63, 0
1, 32640, Tempo, 448565
1, 32640, Note_on_c, 0, 63, 70
1, 32640, Note_on_c, 0, 68, 70
1, 32640, Note_on_c, 0, 71, 83
1, 32640, Note_on_c, 0, 51, 48
1, 32640, Note_on_c, 0, 59, 57
1, 32651, Control_c, 0, 64, 0
1, 32693, Control_c, 0, 64, 127
1, 32700, Note_on_c, 0, 59, 0
1, 32700, Note_on_c, 0, 51, 0
1, 32760, Note_on_c, 0, 71, 0
1, 32760, Note_on_c, 0, 73, 79
1, 32820, Note_on_c, 0, 73, 0
1, 32820, Note_on_c, 0, 68, 0
1, 32820, Note_on_c, 0, 63, 0
1, 32880, Note_on_c, 0, 63, 72
1, 32880, Note_on_c, 0, 68, 72
1, 32880, Note_on_c, 0, 73, 85
1, 32880, Note_on_c, 0, 44, 50
1, 32880, Note_on_c, 0, 51, 59
1, 32887, Control_c, 0, 64, 0
1, 32926, Control_c, 0, 64, 127
1, 32940, Note_on_c, 0, 51, 0
1, 32940, Note_on_c, 0, 44, 0
1, 33000, Tempo, 500250
1, 33000, Note_on_c, 0, 73, 0
1, 33000, Note_on_c, 0, 75, 86
1, 33060, Note_on_c, 0, 75, 0
1, 33060, Note_on_c, 0, 68, 0
1, 33060, Note_on_c, 0, 63, 0
1, 33081, Control_c, 0, 64, 0
1, 33120, Tempo, 449304
1, 33120, Note_on_c, 0, 64, 73
1, 33120, Note_on_c, 0, 68, 73
1, 33120, Note_on_c, 0, 75, 87
1, 33120, Note_on_c, 0, 49, 50
1, 33120, Note_on_c, 0, 56, 60
1, 33162, Control_c, 0, 64, 127
1, 33180, Note_on_c, 0, 56, 0
1, 33180, Note_on_c, 0, 49, 0
1, 33240, Note_on_c, 0, 75, 0
1, 33240, Note_on_c, 0, 73, 86
1, 33300, Note_on_c, 0, 73, 0
1, 33300, Note_on_c, 0, 68, 0
1, 33300, Note_on_c, 0, 64, 0
1, 33360, Note_on_c, 0, 64, 71
1, 33360, Note_on_c, 0, 68, 71
1, 33360, Note_on_c, 0, 73, 84
1, 33360, Note_on_c, 0, 37, 49
1, 33360, Note_on_c, 0, 49, 58
1, 33370, Control_c, 0, 64, 0
1, 33410, Control_c, 0, 64, 127
1, 33420, Note_on_c, 0, 49, 0
1, 33420, Note_on_c, 0, 37, 0
1, 33480, Note_on_c, 0, 73, 0
1, 33480, Note_on_c, 0, 71, 83
1, 33540, Note_on_c, 0, 71, 0
1, 33540, Note_on_c, 0, 68, 0
1, 33540, Note_on_c, 0, 64, 0
1, 33600, Tempo, 463177
1, 33600, Note_on_c, 0, 61, 68
1, 33600, Note_on_c, 0, 64, 68
1, 33600, Note_on_c, 0, 71, 81
1, 33600, Note_on_c, 0, 56, 56
1, 33600, Note_on_c, 0, 49, 47
1, 33607, Control_c, 0, 64, 0
1, 33650, Control_c, 0, 64, 127
1, 33660, Note_on_c, 0, 49, 0
1, 33660, Note_on_c, 0, 56, 0
1, 33720, Note_on_c, 0, 71, 0
1, 33720, Note_on_c, 0, 70, 80
1, 33780, Note_on_c, 0, 70, 0
1, 33780, Note_on_c, 0, 64, 0
1, 33780, Note_on_c, 0, 61, 0
1, 33840, Tempo, 457596
1, 33840, Note_on_c, 0, 61, 79
1, 33840, Control_c, 0, 64, 0
1, 33840, Note_on_c, 0, 51, 42
1, 33840, Note_on_c, 0, 55, 51
1, 33880, Control_c, 0, 64, 127
1, 33900, Note_on_c, 0, 55, 0
1, 33900, Note_on_c, 0, 51, 0
1, 33960, Note_on_c, 0, 71, 71
1, 34040, Tempo, 455754
1, 34080, Note_on_c, 0, 71, 0
1, 34080, Note_on_c, 0, 61, 0
1, 34080, Note_on_c, 0, 71, 70
1, 34080, Note_on_c, 0, 61, 58
1, 34080, Note_on_c, 0, 51, 49
1, 34080, Note_on_c, 0, 39, 41
1, 34089, Control_c, 0, 64, 0
1, 34120, Tempo, 457596
1, 34137, Control_c, 0, 64, 127
1, 34140, Note_on_c, 0, 39, 0
1, 34140, Note_on_c, 0, 51, 0
1, 34200, Tempo, 459418
1, 34200, Note_on_c, 0, 71, 0
1, 34200, Note_on_c, 0, 70, 67
1, 34240, Tempo, 461255
1, 34320, Tempo, 465008
1, 34320, Note_on_c, 0, 70, 0
1, 34320, Note_on_c, 0, 61, 0
1, 34320, Note_on_c, 0, 70, 64
1, 34320, Note_on_c, 0, 61, 54
1, 34320, Note_on_c, 0, 51, 38
1, 34320, Note_on_c, 0, 55, 45
1, 34330, Control_c, 0, 64, 0
1, 34340, Tempo, 468860
1, 34351, Tempo, 476002
1, 34372, Control_c, 0, 64, 127
1, 34373, Tempo, 482121
1, 34380, Note_on_c, 0, 55, 0
1, 34380, Note_on_c, 0, 51, 0
1, 34394, Tempo, 488400
1, 34416, Tempo, 494845
1, 34438, Tempo, 501463
1, 34440, Note_on_c, 0, 70, 0
1, 34440, Note_on_c, 0, 63, 62
1, 34460, Tempo, 508259
1, 34482, Tempo, 518807
1, 34517, Control_c, 0, 64, 0
1, 34560, Tempo, 463177
1, 34560, Note_on_c, 0, 63, 0
1, 34560, Note_on_c, 0, 61, 0
1, 34560, Note_on_c, 0, 59, 45
1, 34560, Note_on_c, 0, 63, 53
1, 34560, Note_on_c, 0, 44, 54
1, 34560, Note_on_c, 0, 51, 54
1, 34560, Note_on_c, 0, 56, 63
1, 34591, Control_c, 0, 64, 127
1, 34680, Note_on_c, 0, 63, 0
1, 34680, Note_on_c, 0, 64, 45
1, 34694, Control_c, 0, 64, 0
1, 34740, Note_on_c, 0, 64, 0
1, 34740, Note_on_c, 0, 56, 0
1, 34740, Note_on_c, 0, 59, 0
1, 34740, Note_on_c, 0, 44, 0
1, 34740, Note_on_c, 0, 51, 0
1, 34800, Tempo, 455754
1, 34800, Note_on_c, 0, 59, 46
1, 34800, Note_on_c, 0, 64, 54
1, 34800, Note_on_c, 0, 44, 81
1, 34800, Note_on_c, 0, 32, 68
1, 34814, Control_c, 0, 64, 127
1, 34920, Note_on_c, 0, 32, 0
1, 34920, Note_on_c, 0, 44, 0
1, 34920, Note_on_c, 0, 64, 0
1, 34920, Note_on_c, 0, 65, 46
1, 34934, Control_c, 0, 64, 0
1, 34980, Note_on_c, 0, 65, 0
1, 34980, Note_on_c, 0, 59, 0
1, 35040, Tempo, 466926
1, 35040, Note_on_c, 0, 59, 49
1, 35040, Note_on_c, 0, 63, 49
1, 35040, Note_on_c, 0, 65, 58
1, 35040, Note_on_c, 0, 39, 40
1, 35040, Note_on_c, 0, 51, 49
1, 35063, Control_c, 0, 64, 127
1, 35100, Note_on_c, 0, 51, 0
1, 35100, Note_on_c, 0, 39, 0
1, 35160, Tempo, 455754
1, 35160, Note_on_c, 0, 65, 0
1, 35160, Note_on_c, 0, 66, 49
1, 35171, Control_c, 0, 64, 0
1, 35220, Note_on_c, 0, 66, 0
1, 35220, Note_on_c, 0, 63, 0
1, 35220, Note_on_c, 0, 59, 0
1, 35280, Tempo, 450349
1, 35280, Note_on_c, 0, 59, 51
1, 35280, Note_on_c, 0, 63, 51
1, 35280, Note_on_c, 0, 66, 60
1, 35280, Note_on_c, 0, 51, 60
1, 35280, Note_on_c, 0, 44, 60
1, 35280, Note_on_c, 0, 56, 73
1, 35297, Control_c, 0, 64, 127
1, 35400, Note_on_c, 0, 66, 0
1, 35400, Note_on_c, 0, 67, 51
1, 35411, Control_c, 0, 64, 0
1, 35460, Note_on_c, 0, 67, 0
1, 35460, Note_on_c, 0, 56, 0
1, 35460, Note_on_c, 0, 51, 0
1, 35460, Note_on_c, 0, 59, 0
1, 35460, Note_on_c, 0, 63, 0
1, 35460, Note_on_c, 0, 44, 0
1, 35520, Note_on_c, 0, 59, 53
1, 35520, Note_on_c, 0, 63, 53
1, 35520, Note_on_c, 0, 67, 63
1, 35520, Note_on_c, 0, 30, 78
1, 35520, Note_on_c, 0, 42, 95
1, 35560, Control_c, 0, 64, 127
1, 35640, Note_on_c, 0, 42, 0
1, 35640, Note_on_c, 0, 67, 0
1, 35640, Note_on_c, 0, 30, 0
1, 35640, Note_on_c, 0, 68, 54
1, 35650, Control_c, 0, 64, 0
1, 35700, Note_on_c, 0, 68, 0
1, 35700, Note_on_c, 0, 63, 0
1, 35700, Note_on_c, 0, 59, 0
1, 35760, Tempo, 457596
1, 35760, Note_on_c, 0, 59, 55
1, 35760, Note_on_c, 0, 63, 55
1, 35760, Note_on_c, 0, 68, 65
1, 35760, Note_on_c, 0, 42, 46
1, 35760, Note_on_c, 0, 51, 55
1, 35797, Control_c, 0, 64, 127
1, 35820, Note_on_c, 0, 51, 0
1, 35820, Note_on_c, 0, 42, 0
1, 35880, Note_on_c, 0, 68, 0
1, 35880, Note_on_c, 0, 69, 56
1, 35895, Control_c, 0, 64, 0
1, 35940, Note_on_c, 0, 69, 0
1, 35940, Note_on_c, 0, 63, 0
1, 35940, Note_on_c, 0, 59, 0
1, 36000, Tempo, 450349
1, 36000, Note_on_c, 0, 59, 60
1, 36000, Note_on_c, 0, 64, 60
1, 36000, Note_on_c, 0, 69, 71
1, 36000, Note_on_c, 0, 56, 85
1, 36000, Note_on_c, 0, 52, 71
1, 36037, Control_c, 0, 64, 127
1, 36120, Note_on_c, 0, 69, 0
1, 36120, Note_on_c, 0, 70, 61
1, 36138, Control_c, 0, 64, 0
1, 36180, Note_on_c, 0, 70, 0
1, 36180, Note_on_c, 0, 52, 0
1, 36180, Note_on_c, 0, 59, 0
1, 36180, Note_on_c, 0, 64, 0
1, 36180, Note_on_c, 0, 56, 0
1, 36240, Note_on_c, 0, 59, 61
1, 36240, Note_on_c, 0, 64, 61
1, 36240, Note_on_c, 0, 70, 72
1, 36240, Note_on_c, 0, 28, 84
1, 36240, Note_on_c, 0, 40, 101
1, 36269, Control_c, 0, 64, 127
1, 36360, Note_on_c, 0, 40, 0
1, 36360, Note_on_c, 0, 70, 0
1, 36360, Note_on_c, 0, 28, 0
1, 36360, Note_on_c, 0, 71, 62
1, 36380, Control_c, 0, 64, 0
1, 36420, Note_on_c, 0, 71, 0
1, 36420, Note_on_c, 0, 64, 0
1, 36420, Note_on_c, 0, 59, 0
1, 36480, Tempo, 450349
1, 36480, Note_on_c, 0, 59, 62
1, 36480, Note_on_c, 0, 64, 74
1, 36480, Note_on_c, 0, 71, 74
1, 36480, Note_on_c, 0, 56, 62
1, 36480, Note_on_c, 0, 52, 52
1, 36514, Control_c, 0, 64, 127
1, 36540, Note_on_c, 0, 52, 0
1, 36540, Note_on_c, 0, 56, 0
1, 36600, Note_on_c, 0, 71, 0
1, 36600, Note_on_c, 0, 72, 64
1, 36611, Control_c, 0, 64, 0
1, 36660, Note_on_c, 0, 72, 0
1, 36660, Note_on_c, 0, 64, 0
1, 36660, Note_on_c, 0, 59, 0
1, 36720, Tempo, 448565
1, 36720, Note_on_c, 0, 63, 65
1, 36720, Note_on_c, 0, 72, 77
1, 36720, Note_on_c, 0, 51, 71
1, 36720, Note_on_c, 0, 56, 71
1, 36720, Note_on_c, 0, 59, 84
1, 36740, Control_c, 0, 64, 127
1, 36840, Note_on_c, 0, 72, 0
1, 36840, Note_on_c, 0, 73, 72
1, 36850, Control_c, 0, 64, 0
1, 36900, Note_on_c, 0, 73, 0
1, 36900, Note_on_c, 0, 59, 0
1, 36900, Note_on_c, 0, 63, 0
1, 36900, Note_on_c, 0, 51, 0
1, 36900, Note_on_c, 0, 56, 0
1, 36920, Tempo, 441599
1, 36960, Note_on_c, 0, 63, 66
1, 36960, Note_on_c, 0, 68, 66
1, 36960, Note_on_c, 0, 73, 79
1, 36960, Note_on_c, 0, 27, 85
1, 36960, Note_on_c, 0, 39, 103
1, 36989, Control_c, 0, 64, 127
1, 37000, Tempo, 443361
1, 37040, Tempo, 445038
1, 37080, Note_on_c, 0, 39, 0
1, 37080, Note_on_c, 0, 73, 0
1, 37080, Note_on_c, 0, 27, 0
1, 37080, Note_on_c, 0, 74, 73
1, 37094, Control_c, 0, 64, 0
1, 37140, Note_on_c, 0, 74, 0
1, 37140, Note_on_c, 0, 68, 0
1, 37140, Note_on_c, 0, 63, 0
1, 37200, Tempo, 477935
1, 37200, Note_on_c, 0, 63, 68
1, 37200, Note_on_c, 0, 68, 68
1, 37200, Note_on_c, 0, 74, 82
1, 37200, Note_on_c, 0, 59, 68
1, 37200, Note_on_c, 0, 56, 57
1, 37200, Note_on_c, 0, 51, 57
1, 37223, Control_c, 0, 64, 127
1, 37260, Note_on_c, 0, 51, 0
1, 37260, Note_on_c, 0, 59, 0
1, 37260, Note_on_c, 0, 56, 0
1, 37320, Note_on_c, 0, 75, 76
1, 37334, Control_c, 0, 64, 0
1, 37380, Note_on_c, 0, 75, 0
1, 37380, Note_on_c, 0, 68, 0
1, 37380, Note_on_c, 0, 74, 0
1, 37380, Note_on_c, 0, 63, 0
1, 37440, Tempo, 449304
1, 37440, Note_on_c, 0, 64, 76
1, 37440, Note_on_c, 0, 68, 76
1, 37440, Note_on_c, 0, 75, 90
1, 37440, Note_on_c, 0, 56, 66
1, 37440, Note_on_c, 0, 49, 66
1, 37440, Note_on_c, 0, 59, 80
1, 37465, Control_c, 0, 64, 127
1, 37560, Tempo, 461716
1, 37560, Note_on_c, 0, 59, 0
1, 37560, Note_on_c, 0, 56, 0
1, 37560, Note_on_c, 0, 75, 0
1, 37560, Note_on_c, 0, 49, 0
1, 37560, Note_on_c, 0, 73, 77
1, 37620, Note_on_c, 0, 73, 0
1, 37620, Note_on_c, 0, 64, 0
1, 37620, Note_on_c, 0, 68, 0
1, 37680, Tempo, 454511
1, 37680, Note_on_c, 0, 73, 81
1, 37688, Control_c, 0, 64, 0
1, 37715, Control_c, 0, 64, 127
1, 37800, Note_on_c, 0, 73, 0
1, 37800, Note_on_c, 0, 71, 73
1, 37860, Note_on_c, 0, 71, 0
1, 37920, Tempo, 461716
1, 37920, Note_on_c, 0, 71, 78
1, 37929, Control_c, 0, 64, 0
1, 37991, Control_c, 0, 64, 127
1, 38040, Note_on_c, 0, 71, 0
1, 38040, Note_on_c, 0, 70, 71
1, 38100, Note_on_c, 0, 70, 0
1, 38160, Tempo, 454511
1, 38160, Note_on_c, 0, 63, 76
1, 38160, Note_on_c, 0, 68, 76
1, 38160, Note_on_c, 0, 73, 90
1, 38160, Note_on_c, 0, 59, 80
1, 38160, Note_on_c, 0, 56, 66
1, 38160, Note_on_c, 0, 51, 66
1, 38170, Control_c, 0, 64, 0
1, 38196, Control_c, 0, 64, 127
1, 38280, Tempo, 461716
1, 38280, Note_on_c, 0, 51, 0
1, 38280, Note_on_c, 0, 59, 0
1, 38280, Note_on_c, 0, 73, 0
1, 38280, Note_on_c, 0, 56, 0
1, 38280, Note_on_c, 0, 71, 77
1, 38340, Note_on_c, 0, 71, 0
1, 38340, Note_on_c, 0, 63, 0
1, 38340, Note_on_c, 0, 68, 0
1, 38400, Tempo, 454511
1, 38400, Note_on_c, 0, 71, 81
1, 38410, Control_c, 0, 64, 0
1, 38467, Control_c, 0, 64, 127
1, 38520, Note_on_c, 0, 71, 0
1, 38520, Note_on_c, 0, 70, 73
1, 38580, Note_on_c, 0, 70, 0
1, 38640, Tempo, 484105
1, 38640, Note_on_c, 0, 70, 78
1, 38650, Control_c, 0, 64, 0
1, 38679, Control_c, 0, 64, 127
1, 38760, Note_on_c, 0, 70, 0
1, 38760, Note_on_c, 0, 68, 71
1, 38820, Note_on_c, 0, 68, 0
1, 38880, Tempo, 460335
1, 38880, Note_on_c, 0, 64, 76
1, 38880, Note_on_c, 0, 68, 76
1, 38880, Note_on_c, 0, 75, 90
1, 38880, Note_on_c, 0, 49, 66
1, 38880, Note_on_c, 0, 56, 66
1, 38880, Note_on_c, 0, 59, 80
1, 38886, Control_c, 0, 64, 0
1, 38919, Control_c, 0, 64, 127
1, 39000, Tempo, 461716
1, 39000, Note_on_c, 0, 59, 0
1, 39000, Note_on_c, 0, 49, 0
1, 39000, Note_on_c, 0, 75, 0
1, 39000, Note_on_c, 0, 56, 0
1, 39000, Note_on_c, 0, 73, 77
1, 39060, Note_on_c, 0, 73, 0
1, 39060, Note_on_c, 0, 64, 0
1, 39060, Note_on_c, 0, 68, 0
1, 39120, Tempo, 454511
1, 39120, Note_on_c, 0, 73, 81
1, 39128, Control_c, 0, 64, 0
1, 39155, Control_c, 0, 64, 127
1, 39240, Note_on_c, 0, 73, 0
1, 39240, Note_on_c, 0, 71, 73
1, 39300, Note_on_c, 0, 71, 0
1, 39360, Tempo, 461716
1, 39360, Note_on_c, 0, 71, 78
1, 39368, Control_c, 0, 64, 0
1, 39399, Control_c, 0, 64, 127
1, 39480, Note_on_c, 0, 71, 0
1, 39480, Note_on_c, 0, 70, 71
1, 39540, Note_on_c, 0, 70, 0
1, 39600, Tempo, 454511
1, 39600, Note_on_c, 0, 63, 76
1, 39600, Note_on_c, 0, 68, 76
1, 39600, Note_on_c, 0, 73, 90
1, 39600, Note_on_c, 0, 56, 66
1, 39600, Note_on_c, 0, 51, 66
1, 39600, Note_on_c, 0, 59, 80
1, 39609, Control_c, 0, 64, 0
1, 39639, Control_c, 0, 64, 127
1, 39720, Tempo, 461716
1, 39720, Note_on_c, 0, 59, 0
1, 39720, Note_on_c, 0, 56, 0
1, 39720, Note_on_c, 0, 73, 0
1, 39720, Note_on_c, 0, 51, 0
1, 39720, Note_on_c, 0, 71, 77
1, 39780, Note_on_c, 0, 71, 0
1, 39780, Note_on_c, 0, 63, 0
1, 39780, Note_on_c, 0, 68, 0
1, 39840, Tempo, 454511
1, 39840, Note_on_c, 0, 71, 81
1, 39847, Control_c, 0, 64, 0
1, 39875, Control_c, 0, 64, 127
1, 39960, Note_on_c, 0, 71, 0
1, 39960, Note_on_c, 0, 70, 73
1, 40020, Note_on_c, 0, 70, 0
1, 40080, Tempo, 487250
1, 40080, Note_on_c, 0, 70, 78
1, 40092, Control_c, 0, 64, 0
1, 40119, Control_c, 0, 64, 127
1, 40200, Note_on_c, 0, 70, 0
1, 40200, Note_on_c, 0, 68, 71
1, 40260, Note_on_c, 0, 68, 0
1, 40320, Tempo, 463177
1, 40320, Note_on_c, 0, 61, 76
1, 40320, Note_on_c, 0, 68, 76
1, 40320, Note_on_c, 0, 71, 90
1, 40320, Note_on_c, 0, 52, 61
1, 40320, Note_on_c, 0, 56, 72
1, 40333, Control_c, 0, 64, 0
1, 40359, Control_c, 0, 64, 127
1, 40440, Tempo, 461716
1, 40440, Note_on_c, 0, 56, 0
1, 40440, Note_on_c, 0, 71, 0
1, 40440, Note_on_c, 0, 52, 0
1, 40440, Note_on_c, 0, 70, 77
1, 40500, Note_on_c, 0, 70, 0
1, 40500, Note_on_c, 0, 68, 0
1, 40500, Note_on_c, 0, 61, 0
1, 40560, Tempo, 454511
1, 40560, Note_on_c, 0, 70, 81
1, 40568, Control_c, 0, 64, 0
1, 40595, Control_c, 0, 64, 127
1, 40680, Note_on_c, 0, 70, 0
1, 40680, Note_on_c, 0, 71, 73
1, 40740, Note_on_c, 0, 71, 0
1, 40800, Tempo, 461716
1, 40800, Note_on_c, 0, 71, 79
1, 40810, Control_c, 0, 64, 0
1, 40874, Control_c, 0, 64, 127
1, 40920, Note_on_c, 0, 71, 0
1, 40920, Note_on_c, 0, 70, 73
1, 40980, Note_on_c, 0, 70, 0
1, 41040, Tempo, 454511
1, 41040, Note_on_c, 0, 70, 93
1, 41051, Control_c, 0, 64, 0
1, 41079, Control_c, 0, 64, 127
1, 41160, Tempo, 461716
1, 41160, Note_on_c, 0, 70, 0
1, 41160, Note_on_c, 0, 71, 80
1, 41220, Note_on_c, 0, 71, 0
1, 41280, Tempo, 454511
1, 41280, Note_on_c, 0, 71, 85
1, 41286, Control_c, 0, 64, 0
1, 41315, Control_c, 0, 64, 127
1, 41400, Note_on_c, 0, 71, 0
1, 41400, Note_on_c, 0, 70, 78
1, 41460, Note_on_c, 0, 70, 0
1, 41520, Tempo, 461716
1, 41520, Note_on_c, 0, 70, 84
1, 41530, Control_c, 0, 64, 0
1, 41559, Control_c, 0, 64, 127
1, 41640, Note_on_c, 0, 70, 0
1, 41640, Note_on_c, 0, 71, 77
1, 41700, Note_on_c, 0, 71, 0
1, 41760, Tempo, 454511
1, 41760, Note_on_c, 0, 71, 90
1, 41766, Control_c, 0, 64, 0
1, 41799, Control_c, 0, 64, 127
1, 41880, Tempo, 461716
1, 41880, Note_on_c, 0, 71, 0
1, 41880, Note_on_c, 0, 70, 83
1, 41940, Note_on_c, 0, 70, 0
1, 42000, Tempo, 454511
1, 42000, Note_on_c, 0, 70, 85
1, 42120, Note_on_c, 0, 70, 0
1, 42120, Note_on_c, 0, 71, 75
1, 42180, Note_on_c, 0, 71, 0
1, 42240, Tempo, 461716
1, 42240, Note_on_c, 0, 71, 79
1, 42360, Note_on_c, 0, 71, 0
1, 42360, Note_on_c, 0, 70, 71
1, 42420, Note_on_c, 0, 70, 0
1, 42480, Tempo, 454511
1, 42480, Note_on_c, 0, 70, 88
1, 42492, Control_c, 0, 64, 0
1, 42515, Control_c, 0, 64, 127
1, 42600, Tempo, 461716
1, 42600, Note_on_c, 0, 70, 0
1, 42600, Note_on_c, 0, 71, 73
1, 42660, Note_on_c, 0, 71, 0
1, 42720, Tempo, 454511
1, 42720, Note_on_c, 0, 71, 76
1, 42840, Note_on_c, 0, 71, 0
1, 42840, Note_on_c, 0, 70, 67
1, 42900, Note_on_c, 0, 70, 0
1, 42960, Tempo, 470810
1, 42960, Note_on_c, 0, 70, 70
1, 43080, Tempo, 528448
1, 43080, Note_on_c, 0, 70, 0
1, 43080, Note_on_c, 0, 71, 62
1, 43140, Note_on_c, 0, 71, 0
1, 43144, Control_c, 0, 64, 0
1, 43200, Tempo, 459418
1, 43200, Note_on_c, 0, 68, 66
1, 43200, Note_on_c, 0, 70, 66
1, 43200, Note_on_c, 0, 64, 72
1, 43207, Control_c, 0, 64, 127
1, 43320, Tempo, 468860
1, 43320, Note_on_c, 0, 64, 0
1, 43320, Note_on_c, 0, 63, 60
1, 43331, Control_c, 0, 64, 0
1, 43380, Note_on_c, 0, 63, 0
1, 43440, Tempo, 459418
1, 43440, Note_on_c, 0, 63, 62
1, 43461, Control_c, 0, 64, 127
1, 43560, Note_on_c, 0, 63, 0
1, 43560, Note_on_c, 0, 61, 55
1, 43574, Control_c, 0, 64, 0
1, 43620, Note_on_c, 0, 61, 0
1, 43680, Tempo, 461716
1, 43680, Note_on_c, 0, 61, 58
1, 43712, Control_c, 0, 64, 127
1, 43800, Note_on_c, 0, 61, 0
1, 43800, Note_on_c, 0, 59, 53
1, 43810, Control_c, 0, 64, 0
1, 43860, Note_on_c, 0, 59, 0
1, 43920, Tempo, 454511
1, 43920, Note_on_c, 0, 59, 60
1, 43927, Control_c, 0, 64, 127
1, 44040, Tempo, 461716
1, 44040, Note_on_c, 0, 59, 0
1, 44040, Note_on_c, 0, 58, 52
1, 44051, Control_c, 0, 64, 0
1, 44100, Note_on_c, 0, 58, 0
1, 44160, Tempo, 454511
1, 44160, Note_on_c, 0, 58, 54
1, 44181, Control_c, 0, 64, 127
1, 44280, Note_on_c, 0, 58, 0
1, 44280, Note_on_c, 0, 56, 47
1, 44293, Control_c, 0, 64, 0
1, 44340, Note_on_c, 0, 56, 0
1, 44400, Tempo, 461716
1, 44400, Note_on_c, 0, 56, 53
1, 44432, Control_c, 0, 64, 127
1, 44520, Note_on_c, 0, 56, 0
1, 44520, Note_on_c, 0, 54, 45
1, 44532, Control_c, 0, 64, 0
1, 44580, Note_on_c, 0, 54, 0
1, 44640, Tempo, 454511
1, 44640, Note_on_c, 0, 54, 52
1, 44647, Control_c, 0, 64, 127
1, 44760, Tempo, 461716
1, 44760, Note_on_c, 0, 54, 0
1, 44760, Note_on_c, 0, 52, 44
1, 44771, Control_c, 0, 64, 0
1, 44820, Note_on_c, 0, 52, 0
1, 44880, Tempo, 454511
1, 44880, Note_on_c, 0, 52, 46
1, 44901, Control_c, 0, 64, 127
1, 45000, Note_on_c, 0, 52, 0
1, 45000, Note_on_c, 0, 51, 40
1, 45012, Control_c, 0, 64, 0
1, 45060, Note_on_c, 0, 51, 0
1, 45120, Tempo, 461716
1, 45120, Note_on_c, 0, 51, 44
1, 45152, Control_c, 0, 64, 127
1, 45240, Tempo, 529801
1, 45240, Note_on_c, 0, 51, 0
1, 45240, Note_on_c, 0, 49, 40
1, 45250, Control_c, 0, 64, 0
1, 45300, Note_on_c, 0, 49, 0
1, 45360, Tempo, 457596
1, 45360, Note_on_c, 0, 68, 0
1, 45360, Note_on_c, 0, 67, 48
1, 45360, Note_on_c, 0, 61, 48
1, 45360, Note_on_c, 0, 51, 41
1, 45840, Note_on_c, 0, 70, 0
1, 45840, Note_on_c, 0, 71, 48
1, 45840, Note_on_c, 0, 39, 41
1, 46080, Tempo, 501966
1, 46080, Note_on_c, 0, 39, 0
1, 46080, Note_on_c, 0, 67, 0
1, 46080, Note_on_c, 0, 71, 0
1, 46080, Note_on_c, 0, 61, 0
1, 46080, Note_on_c, 0, 59, 48
1, 46080, Note_on_c, 0, 68, 48
1, 46080, Note_on_c, 0, 44, 41
1, 46200, Note_on_c, 0, 44, 0
1, 46200, Note_on_c, 0, 68, 0
1, 46200, Note_on_c, 0, 59, 0
1, 46320, Tempo, 483131
1, 46320, Note_on_c, 0, 51, 0
1, 46320, Note_on_c, 0, 64, 45
1, 46320, Note_on_c, 0, 61, 45
1, 46320, Note_on_c, 0, 68, 53
1, 46320, Note_on_c, 0, 37, 34
1, 46320, Note_on_c, 0, 49, 40
1, 46351, Control_c, 0, 64, 127
1, 46380, Note_on_c, 0, 49, 0
1, 46380, Note_on_c, 0, 37, 0
1, 46440, Note_on_c, 0, 68, 0
1, 46440, Note_on_c, 0, 71, 45
1, 46447, Control_c, 0, 64, 0
1, 46500, Note_on_c, 0, 71, 0
1, 46500, Note_on_c, 0, 61, 0
1, 46500, Note_on_c, 0, 64, 0
1, 46560, Tempo, 467472
1, 46560, Note_on_c, 0, 67, 45
1, 46560, Note_on_c, 0, 61, 45
1, 46560, Note_on_c, 0, 71, 53
1, 46560, Note_on_c, 0, 39, 30
1, 46560, Note_on_c, 0, 51, 37
1, 46574, Control_c, 0, 64, 127
1, 46620, Note_on_c, 0, 51, 0
1, 46620, Note_on_c, 0, 39, 0
1, 46680, Note_on_c, 0, 71, 0
1, 46680, Note_on_c, 0, 70, 45
1, 46691, Control_c, 0, 64, 0
1, 46740, Note_on_c, 0, 70, 0
1, 46740, Note_on_c, 0, 61, 0
1, 46740, Note_on_c, 0, 67, 0
1, 46800, Tempo, 471291
1, 46800, Note_on_c, 0, 59, 45
1, 46800, Note_on_c, 0, 70, 53
1, 46800, Note_on_c, 0, 56, 37
1, 46800, Note_on_c, 0, 44, 30
1, 46835, Control_c, 0, 64, 127
1, 46860, Note_on_c, 0, 44, 0
1, 46860, Note_on_c, 0, 56, 0
1, 46920, Tempo, 483131
1, 46920, Note_on_c, 0, 70, 0
1, 46920, Note_on_c, 0, 68, 45
1, 46933, Control_c, 0, 64, 0
1, 46980, Note_on_c, 0, 68, 0
1, 46980, Note_on_c, 0, 59, 0
1, 47040, Tempo, 467472
1, 47040, Note_on_c, 0, 64, 45
1, 47040, Note_on_c, 0, 61, 45
1, 47040, Note_on_c, 0, 68, 53
1, 47040, Note_on_c, 0, 37, 34
1, 47040, Note_on_c, 0, 49, 40
1, 47060, Tempo, 471291
1, 47071, Control_c, 0, 64, 127
1, 47100, Note_on_c, 0, 49, 0
1, 47100, Note_on_c, 0, 37, 0
1, 47160, Note_on_c, 0, 68, 0
1, 47160, Note_on_c, 0, 71, 45
1, 47167, Control_c, 0, 64, 0
1, 47220, Note_on_c, 0, 71, 0
1, 47220, Note_on_c, 0, 61, 0
1, 47220, Note_on_c, 0, 64, 0
1, 47280, Tempo, 463643
1, 47280, Note_on_c, 0, 67, 45
1, 47280, Note_on_c, 0, 61, 45
1, 47280, Note_on_c, 0, 71, 53
1, 47280, Note_on_c, 0, 51, 37
1, 47280, Note_on_c, 0, 39, 30
1, 47294, Control_c, 0, 64, 127
1, 47340, Note_on_c, 0, 39, 0
1, 47340, Note_on_c, 0, 51, 0
1, 47400, Note_on_c, 0, 71, 0
1, 47400, Note_on_c, 0, 70, 45
1, 47409, Control_c, 0, 64, 0
1, 47460, Note_on_c, 0, 70, 0
1, 47460, Note_on_c, 0, 61, 0
1, 47460, Note_on_c, 0, 67, 0
1, 47520, Tempo, 471291
1, 47520, Note_on_c, 0, 59, 45
1, 47520, Note_on_c, 0, 70, 53
1, 47520, Note_on_c, 0, 40, 30
1, 47520, Note_on_c, 0, 52, 37
1, 47555, Control_c, 0, 64, 127
1, 47580, Note_on_c, 0, 52, 0
1, 47580, Note_on_c, 0, 40, 0
1, 47640, Tempo, 502134
1, 47640, Note_on_c, 0, 70, 0
1, 47640, Note_on_c, 0, 68, 45
1, 47651, Control_c, 0, 64, 0
1, 47700, Note_on_c, 0, 68, 0
1, 47700, Note_on_c, 0, 59, 0
1, 47760, Tempo, 467472
1, 47760, Note_on_c, 0, 63, 45
1, 47760, Note_on_c, 0, 66, 53
1, 47760, Note_on_c, 0, 35, 34
1, 47760, Note_on_c, 0, 47, 40
1, 47791, Control_c, 0, 64, 127
1, 47820, Note_on_c, 0, 47, 0
1, 47820, Note_on_c, 0, 35, 0
1, 47880, Note_on_c, 0, 66, 0
1, 47880, Note_on_c, 0, 75, 45
1, 47890, Control_c, 0, 64, 0
1, 47940, Note_on_c, 0, 75, 0
1, 47940, Note_on_c, 0, 63, 0
1, 48000, Tempo, 459982
1, 48000, Note_on_c, 0, 70, 45
1, 48000, Note_on_c, 0, 64, 45
1, 48000, Note_on_c, 0, 75, 53
1, 48000, Note_on_c, 0, 37, 30
1, 48000, Note_on_c, 0, 49, 37
1, 48014, Control_c, 0, 64, 127
1, 48060, Note_on_c, 0, 49, 0
1, 48060, Note_on_c, 0, 37, 0
1, 48120, Note_on_c, 0, 75, 0
1, 48120, Note_on_c, 0, 73, 45
1, 48132, Control_c, 0, 64, 0
1, 48180, Note_on_c, 0, 73, 0
1, 48180, Note_on_c, 0, 64, 0
1, 48180, Note_on_c, 0, 70, 0
1, 48240, Tempo, 471291
1, 48240, Note_on_c, 0, 68, 45
1, 48240, Note_on_c, 0, 63, 45
1, 48240, Note_on_c, 0, 73, 53
1, 48240, Note_on_c, 0, 39, 30
1, 48240, Note_on_c, 0, 51, 37
1, 48275, Control_c, 0, 64, 127
1, 48300, Note_on_c, 0, 51, 0
1, 48300, Note_on_c, 0, 39, 0
1, 48360, Tempo, 534902
1, 48360, Note_on_c, 0, 73, 0
1, 48360, Note_on_c, 0, 71, 45
1, 48372, Control_c, 0, 64, 0
1, 48420, Note_on_c, 0, 71, 0
1, 48420, Note_on_c, 0, 63, 0
1, 48420, Note_on_c, 0, 68, 0
1, 48480, Tempo, 467472
1, 48480, Note_on_c, 0, 63, 53
1, 48480, Note_on_c, 0, 51, 40
1, 48511, Control_c, 0, 64, 127
1, 48540, Note_on_c, 0, 51, 0
1, 48600, Note_on_c, 0, 71, 45
1, 48614, Control_c, 0, 64, 0
1, 48660, Note_on_c, 0, 71, 0
1, 48660, Note_on_c, 0, 63, 0
1, 48720, Tempo, 475172
1, 48720, Note_on_c, 0, 67, 45
1, 48720, Note_on_c, 0, 61, 45
1, 48720, Note_on_c, 0, 71, 53
1, 48720, Note_on_c, 0, 39, 30
1, 48720, Note_on_c, 0, 51, 37
1, 48734, Control_c, 0, 64, 127
1, 48780, Note_on_c, 0, 51, 0
1, 48780, Note_on_c, 0, 39, 0
1, 48840, Note_on_c, 0, 71, 0
1, 48840, Note_on_c, 0, 70, 45
1, 48851, Control_c, 0, 64, 0
1, 48900, Note_on_c, 0, 70, 0
1, 48900, Note_on_c, 0, 61, 0
1, 48900, Note_on_c, 0, 67, 0
1, 48960, Tempo, 536001
1, 48960, Note_on_c, 0, 59, 45
1, 48960, Note_on_c, 0, 68, 53
1, 48960, Note_on_c, 0, 51, 37
1, 48960, Note_on_c, 0, 44, 30
1, 48995, Control_c, 0, 64, 127
1, 49020, Note_on_c, 0, 44, 0
1, 49020, Note_on_c, 0, 51, 0
1, 49080, Note_on_c, 0, 68, 0
1, 49080, Note_on_c, 0, 59, 0
1, 49108, Control_c, 0, 64, 0
1, 49200, Tempo, 477251
1, 49200, Note_on_c, 0, 64, 45
1, 49200, Note_on_c, 0, 61, 45
1, 49200, Note_on_c, 0, 68, 53
1, 49200, Note_on_c, 0, 37, 34
1, 49200, Note_on_c, 0, 49, 40
1, 49231, Control_c, 0, 64, 127
1, 49260, Note_on_c, 0, 49, 0
1, 49260, Note_on_c, 0, 37, 0
1, 49320, Note_on_c, 0, 68, 0
1, 49320, Note_on_c, 0, 71, 45
1, 49330, Control_c, 0, 64, 0
1, 49380, Note_on_c, 0, 71, 0
1, 49380, Note_on_c, 0, 61, 0
1, 49380, Note_on_c, 0, 64, 0
1, 49440, Tempo, 469778
1, 49440, Note_on_c, 0, 67, 45
1, 49440, Note_on_c, 0, 61, 45
1, 49440, Note_on_c, 0, 71, 53
1, 49440, Note_on_c, 0, 51, 37
1, 49440, Note_on_c, 0, 39, 30
1, 49454, Control_c, 0, 64, 127
1, 49500, Note_on_c, 0, 39, 0
1, 49500, Note_on_c, 0, 51, 0
1, 49560, Note_on_c, 0, 71, 0
1, 49560, Note_on_c, 0, 70, 45
1, 49571, Control_c, 0, 64, 0
1, 49620, Note_on_c, 0, 70, 0
1, 49620, Note_on_c, 0, 61, 0
1, 49620, Note_on_c, 0, 67, 0
1, 49680, Tempo, 471291
1, 49680, Note_on_c, 0, 59, 45
1, 49680, Note_on_c, 0, 70, 53
1, 49680, Note_on_c, 0, 44, 30
1, 49680, Note_on_c, 0, 56, 37
1, 49700, Tempo, 477251
1, 49715, Control_c, 0, 64, 127
1, 49740, Note_on_c, 0, 56, 0
1, 49740, Note_on_c, 0, 44, 0
1, 49800, Tempo, 483131
1, 49800, Note_on_c, 0, 70, 0
1, 49800, Note_on_c, 0, 68, 45
1, 49810, Control_c, 0, 64, 0
1, 49860, Note_on_c, 0, 68, 0
1, 49860, Note_on_c, 0, 59, 0
1, 49920, Tempo, 473223
1, 49920, Note_on_c, 0, 64, 45
1, 49920, Note_on_c, 0, 61, 45
1, 49920, Note_on_c, 0, 68, 53
1, 49920, Note_on_c, 0, 37, 34
1, 49920, Note_on_c, 0, 49, 40
1, 49951, Control_c, 0, 64, 127
1, 49980, Note_on_c, 0, 49, 0
1, 49980, Note_on_c, 0, 37, 0
1, 50040, Note_on_c, 0, 68, 0
1, 50040, Note_on_c, 0, 71, 45
1, 50050, Control_c, 0, 64, 0
1, 50100, Note_on_c, 0, 71, 0
1, 50100, Note_on_c, 0, 61, 0
1, 50100, Note_on_c, 0, 64, 0
1, 50160, Tempo, 459982
1, 50160, Note_on_c, 0, 67, 45
1, 50160, Note_on_c, 0, 61, 45
1, 50160, Note_on_c, 0, 71, 53
1, 50160, Note_on_c, 0, 39, 30
1, 50160, Note_on_c, 0, 51, 37
1, 50174, Control_c, 0, 64, 127
1, 50180, Tempo, 463643
1, 50220, Note_on_c, 0, 51, 0
1, 50220, Note_on_c, 0, 39, 0
1, 50280, Note_on_c, 0, 71, 0
1, 50280, Note_on_c, 0, 70, 45
1, 50290, Control_c, 0, 64, 0
1, 50340, Note_on_c, 0, 70, 0
1, 50340, Note_on_c, 0, 61, 0
1, 50340, Note_on_c, 0, 67, 0
1, 50400, Tempo, 482742
1, 50400, Note_on_c, 0, 59, 45
1, 50400, Note_on_c, 0, 70, 53
1, 50400, Note_on_c, 0, 40, 30
1, 50400, Note_on_c, 0, 52, 37
1, 50435, Control_c, 0, 64, 127
1, 50460, Note_on_c, 0, 52, 0
1, 50460, Note_on_c, 0, 40, 0
1, 50520, Tempo, 558555
1, 50520, Note_on_c, 0, 70, 0
1, 50520, Note_on_c, 0, 68, 45
1, 50530, Control_c, 0, 64, 0
1, 50580, Note_on_c, 0, 68, 0
1, 50580, Note_on_c, 0, 59, 0
1, 50640, Tempo, 488958
1, 50640, Note_on_c, 0, 61, 45
1, 50640, Note_on_c, 0, 64, 53
1, 50640, Note_on_c, 0, 45, 40
1, 50640, Note_on_c, 0, 33, 34
1, 50671, Control_c, 0, 64, 127
1, 50700, Note_on_c, 0, 33, 0
1, 50700, Note_on_c, 0, 45, 0
1, 50760, Note_on_c, 0, 64, 0
1, 50760, Note_on_c, 0, 73, 45
1, 50770, Control_c, 0, 64, 0
1, 50820, Note_on_c, 0, 73, 0
1, 50820, Note_on_c, 0, 61, 0
1, 50880, Tempo, 478736
1, 50880, Note_on_c, 0, 68, 45
1, 50880, Note_on_c, 0, 62, 45
1, 50880, Note_on_c, 0, 73, 53
1, 50880, Note_on_c, 0, 35, 30
1, 50880, Note_on_c, 0, 47, 37
1, 50894, Control_c, 0, 64, 127
1, 50940, Note_on_c, 0, 47, 0
1, 50940, Note_on_c, 0, 35, 0
1, 51000, Note_on_c, 0, 73, 0
1, 51000, Note_on_c, 0, 71, 45
1, 51010, Control_c, 0, 64, 0
1, 51060, Note_on_c, 0, 71, 0
1, 51060, Note_on_c, 0, 62, 0
1, 51060, Note_on_c, 0, 68, 0
1, 51120, Tempo, 486934
1, 51120, Note_on_c, 0, 64, 45
1, 51120, Note_on_c, 0, 61, 45
1, 51120, Note_on_c, 0, 71, 53
1, 51120, Note_on_c, 0, 49, 37
1, 51120, Note_on_c, 0, 37, 30
1, 51155, Control_c, 0, 64, 127
1, 51180, Note_on_c, 0, 37, 0
1, 51180, Note_on_c, 0, 49, 0
1, 51240, Tempo, 534902
1, 51240, Note_on_c, 0, 71, 0
1, 51240, Note_on_c, 0, 69, 45
1, 51250, Control_c, 0, 64, 0
1, 51300, Note_on_c, 0, 69, 0
1, 51300, Note_on_c, 0, 61, 0
1, 51300, Note_on_c, 0, 64, 0
1, 51360, Tempo, 480731
1, 51360, Note_on_c, 0, 59, 45
1, 51360, Note_on_c, 0, 63, 53
1, 51360, Note_on_c, 0, 39, 38
1, 51360, Note_on_c, 0, 51, 40
1, 51391, Control_c, 0, 64, 127
1, 51420, Note_on_c, 0, 51, 0
1, 51420, Note_on_c, 0, 39, 0
1, 51480, Tempo, 493218
1, 51480, Note_on_c, 0, 71, 45
1, 51490, Control_c, 0, 64, 0
1, 51540, Note_on_c, 0, 71, 0
1, 51540, Note_on_c, 0, 63, 0
1, 51540, Note_on_c, 0, 59, 0
1, 51600, Tempo, 508647
1, 51600, Note_on_c, 0, 63, 45
1, 51600, Note_on_c, 0, 58, 45
1, 51600, Note_on_c, 0, 68, 53
1, 51600, Note_on_c, 0, 27, 30
1, 51600, Note_on_c, 0, 39, 37
1, 51643, Control_c, 0, 64, 127
1, 51660, Note_on_c, 0, 39, 0
1, 51660, Note_on_c, 0, 27, 0
1, 51720, Tempo, 537346
1, 51720, Note_on_c, 0, 68, 0
1, 51720, Note_on_c, 0, 67, 45
1, 51780, Note_on_c, 0, 67, 0
1, 51780, Note_on_c, 0, 58, 0
1, 51815, Control_c, 0, 64, 0
1, 51840, Tempo, 466926
1, 51840, Note_on_c, 0, 59, 45
1, 51840, Note_on_c, 0, 68, 53
1, 51840, Note_on_c, 0, 32, 30
1, 51840, Note_on_c, 0, 44, 37
1, 51900, Note_on_c, 0, 44, 0
1, 51900, Note_on_c, 0, 32, 0
1, 51900, Control_c, 0, 64, 127
1, 51960, Note_on_c, 0, 63, 0
1, 51960, Note_on_c, 0, 59, 0
1, 51960, Note_on_c, 0, 68, 0
1, 52084, Control_c, 0, 64, 0
1, 52560, Tempo, 463177
1, 52560, Note_on_c, 0, 63, 69
1, 52560, Control_c, 0, 64, 127
1, 52560, Note_on_c, 0, 39, 63
1, 52560, Note_on_c, 0, 51, 63
1, 52800, Tempo, 448565
1, 52800, Note_on_c, 0, 59, 59
1, 52800, Note_on_c, 0, 56, 59
1, 52808, Control_c, 0, 64, 0
1, 52920, Note_on_c, 0, 56, 0
1, 52920, Note_on_c, 0, 59, 0
1, 52920, Note_on_c, 0, 55, 55
1, 52920, Note_on_c, 0, 58, 55
1, 53010, Note_on_c, 0, 58, 0
1, 53010, Note_on_c, 0, 55, 0
1, 53040, Note_on_c, 0, 55, 55
1, 53040, Note_on_c, 0, 58, 55
1, 53160, Note_on_c, 0, 58, 0
1, 53160, Note_on_c, 0, 55, 0
1, 53160, Note_on_c, 0, 58, 55
1, 53160, Note_on_c, 0, 61, 55
1, 53280, Tempo, 463177
1, 53280, Note_on_c, 0, 61, 0
1, 53280, Note_on_c, 0, 39, 0
1, 53280, Note_on_c, 0, 58, 0
1, 53280, Note_on_c, 0, 44, 63
1, 53280, Note_on_c, 0, 59, 63
1, 53280, Note_on_c, 0, 56, 63
1, 53520, Note_on_c, 0, 56, 0
1, 53520, Note_on_c, 0, 44, 0
1, 53520, Note_on_c, 0, 59, 0
1, 53520, Note_on_c, 0, 51, 0
1, 53760, Tempo, 495417
1, 53760, Note_on_c, 0, 63, 0
1, 53760, Note_on_c, 0, 64, 63
1, 54000, Tempo, 463177
1, 54000, Note_on_c, 0, 64, 0
1, 54000, Note_on_c, 0, 63, 69
1, 54000, Note_on_c, 0, 39, 63
1, 54000, Note_on_c, 0, 51, 63
1, 54057, Control_c, 0, 64, 127
1, 54240, Tempo, 448565
1, 54240, Note_on_c, 0, 56, 59
1, 54240, Note_on_c, 0, 59, 59
1, 54248, Control_c, 0, 64, 0
1, 54360, Note_on_c, 0, 59, 0
1, 54360, Note_on_c, 0, 56, 0
1, 54360, Note_on_c, 0, 55, 55
1, 54360, Note_on_c, 0, 58, 55
1, 54450, Note_on_c, 0, 58, 0
1, 54450, Note_on_c, 0, 55, 0
1, 54480, Note_on_c, 0, 55, 55
1, 54480, Note_on_c, 0, 58, 55
1, 54600, Note_on_c, 0, 58, 0
1, 54600, Note_on_c, 0, 55, 0
1, 54600, Note_on_c, 0, 61, 55
1, 54600, Note_on_c, 0, 58, 55
1, 54720, Tempo, 493421
1, 54720, Note_on_c, 0, 58, 0
1, 54720, Note_on_c, 0, 39, 0
1, 54720, Note_on_c, 0, 61, 0
1, 54720, Note_on_c, 0, 44, 63
1, 54720, Note_on_c, 0, 59, 63
1, 54720, Note_on_c, 0, 56, 63
1, 54960, Tempo, 506757
1, 54960, Note_on_c, 0, 56, 0
1, 54960, Note_on_c, 0, 44, 0
1, 54960, Note_on_c, 0, 63, 0
1, 54960, Note_on_c, 0, 51, 0
1, 54960, Note_on_c, 0, 59, 0
1, 54960, Note_on_c, 0, 66, 63
1, 55200, Tempo, 520833
1, 55200, Note_on_c, 0, 66, 0
1, 55200, Note_on_c, 0, 64, 61
1, 55440, Tempo, 493421
1, 55440, Note_on_c, 0, 64, 0
1, 55440, Note_on_c, 0, 63, 70
1, 55440, Note_on_c, 0, 39, 56
1, 55440, Note_on_c, 0, 51, 56
1, 55532, Control_c, 0, 64, 127
1, 55680, Tempo, 493218
1, 55680, Note_on_c, 0, 59, 53
1, 55680, Note_on_c, 0, 56, 53
1, 55688, Control_c, 0, 64, 0
1, 55800, Note_on_c, 0, 56, 0
1, 55800, Note_on_c, 0, 59, 0
1, 55800, Note_on_c, 0, 55, 49
1, 55800, Note_on_c, 0, 58, 49
1, 55890, Note_on_c, 0, 58, 0
1, 55890, Note_on_c, 0, 55, 0
1, 55920, Note_on_c, 0, 55, 49
1, 55920, Note_on_c, 0, 58, 49
1, 56040, Note_on_c, 0, 58, 0
1, 56040, Note_on_c, 0, 55, 0
1, 56040, Note_on_c, 0, 58, 49
1, 56040, Note_on_c, 0, 61, 49
1, 56160, Tempo, 565504
1, 56160, Note_on_c, 0, 61, 0
1, 56160, Note_on_c, 0, 39, 0
1, 56160, Note_on_c, 0, 58, 0
1, 56160, Note_on_c, 0, 44, 56
1, 56160, Note_on_c, 0, 59, 56
1, 56160, Note_on_c, 0, 56, 56
1, 56400, Tempo, 551471
1, 56400, Note_on_c, 0, 56, 0
1, 56400, Note_on_c, 0, 44, 0
1, 56400, Note_on_c, 0, 63, 0
1, 56400, Note_on_c, 0, 51, 0
1, 56400, Note_on_c, 0, 59, 0
1, 56400, Note_on_c, 0, 68, 54
1, 56640, Tempo, 576923
1, 56640, Note_on_c, 0, 68, 0
1, 56640, Note_on_c, 0, 66, 49
1, 56880, Tempo, 614754
1, 56880, Note_on_c, 0, 66, 0
1, 56880, Note_on_c, 0, 64, 48
1, 57120, Tempo, 735294
1, 57120, Note_on_c, 0, 64, 0
1, 57120, Note_on_c, 0, 63, 43
1, 57360, Tempo, 599700
1, 57360, Note_on_c, 0, 27, 81
1, 57360, Note_on_c, 0, 39, 90
1, 57360, Note_on_c, 0, 51, 99
1, 57367, Control_c, 0, 64, 127
1, 57480, Note_on_c, 0, 51, 0
1, 57480, Note_on_c, 0, 39, 0
1, 57480, Note_on_c, 0, 27, 0
1, 57480, Control_c, 0, 64, 0
1, 57600, Note_on_c, 0, 63, 0
1, 57600, Note_on_c, 0, 44, 101
1, 57600, Note_on_c, 0, 32, 90
1, 57600, Note_on_c, 0, 56, 110
1, 57635, Control_c, 0, 64, 127
1, 57720, Note_on_c, 0, 56, 0
1, 57720, Note_on_c, 0, 32, 0
1, 57720, Note_on_c, 0, 44, 0
1, 57741, Tempo, 599700
1, 57741, Control_c, 0, 64, 0
1, 57742, Tempo, 603076
1, 57743, Tempo, 631579
1, 57840, Tempo, 600000
1, 57840, End_track
0, 0, End_of_file
