0, 0, Header, 0, 1, 480
1, 0, Start_track
1, 0, Title_t, "Chopin Mazurka Opus 33 Nr. 2"
1, 0, Copyright_t, "Copyright © 2003 by Bernd Krueger "
1, 0, Text_t, "Frederic Chopin"
1, 0, Text_t, "Vivace"
1, 0, Text_t, "Fertiggestellt am 12.7.2003\012"
1, 0, Text_t, "Update am 9.7.2010\012"
1, 0, Text_t, "Update am 25.2.2014\012"
1, 0, Text_t, "Dauer: 2:23 Minuten\012"
1, 0, SMPTE_offset, 96, 0, 3, 0, 0
1, 0, Time_signature, 3, 2, 24, 8
1, 0, Key_signature, 2, "major"
1, 0, Tempo, 343859
1, 0, Program_c, 0, 0
1, 0, Control_c, 0, 7, 100
1, 0, Control_c, 0, 10, 64
1, 0, Text_t, "bdca426d104a26ac9dcb070447587523"
1, 0, Control_c, 0, 91, 127
1, 0, Program_c, 0, 0
1, 0, Control_c, 0, 7, 100
1, 0, Control_c, 0, 10, 64
1, 0, Control_c, 0, 64, 0
1, 0, Control_c, 0, 64, 0
1, 960, Note_on_c, 0, 69, 77
1, 1440, Tempo, 294190
1, 1440, Note_on_c, 0, 66, 68
1, 1440, Note_on_c, 0, 50, 59
1, 1490, Control_c, 0, 64, 127
1, 1680, Note_on_c, 0, 50, 0
1, 1680, Note_on_c, 0, 69, 0
1, 1680, Note_on_c, 0, 73, 70
1, 1920, Tempo, 287646
1, 1920, Note_on_c, 0, 73, 0
1, 1920, Note_on_c, 0, 66, 0
1, 1920, Note_on_c, 0, 74, 71
1, 1920, Note_on_c, 0, 66, 60
1, 1920, Note_on_c, 0, 50, 52
1, 1920, Note_on_c, 0, 57, 52
1, 1920, Note_on_c, 0, 62, 52
1, 2160, Note_on_c, 0, 74, 0
1, 2160, Note_on_c, 0, 76, 71
1, 2400, Tempo, 297192
1, 2400, Note_on_c, 0, 76, 0
1, 2400, Note_on_c, 0, 62, 0
1, 2400, Note_on_c, 0, 66, 0
1, 2400, Note_on_c, 0, 50, 0
1, 2400, Note_on_c, 0, 57, 0
1, 2400, Note_on_c, 0, 78, 72
1, 2400, Note_on_c, 0, 66, 61
1, 2400, Note_on_c, 0, 50, 52
1, 2400, Note_on_c, 0, 57, 52
1, 2400, Note_on_c, 0, 62, 52
1, 2640, Tempo, 333797
1, 2640, Note_on_c, 0, 78, 0
1, 2640, Note_on_c, 0, 79, 73
1, 2760, Note_on_c, 0, 79, 0
1, 2760, Note_on_c, 0, 78, 70
1, 2820, Note_on_c, 0, 78, 0
1, 2820, Note_on_c, 0, 79, 68
1, 2880, Tempo, 302496
1, 2880, Note_on_c, 0, 79, 0
1, 2880, Note_on_c, 0, 62, 0
1, 2880, Note_on_c, 0, 66, 0
1, 2880, Note_on_c, 0, 50, 0
1, 2880, Note_on_c, 0, 57, 0
1, 2880, Note_on_c, 0, 78, 76
1, 2880, Note_on_c, 0, 45, 59
1, 2888, Control_c, 0, 64, 0
1, 3035, Control_c, 0, 64, 127
1, 3120, Note_on_c, 0, 45, 0
1, 3360, Tempo, 293040
1, 3360, Note_on_c, 0, 78, 0
1, 3360, Note_on_c, 0, 67, 62
1, 3360, Note_on_c, 0, 76, 74
1, 3360, Note_on_c, 0, 52, 54
1, 3360, Note_on_c, 0, 57, 54
1, 3360, Note_on_c, 0, 61, 54
1, 3600, Note_on_c, 0, 76, 0
1, 3600, Note_on_c, 0, 74, 74
1, 3840, Note_on_c, 0, 74, 0
1, 3840, Note_on_c, 0, 61, 0
1, 3840, Note_on_c, 0, 67, 0
1, 3840, Note_on_c, 0, 52, 0
1, 3840, Note_on_c, 0, 57, 0
1, 3840, Note_on_c, 0, 67, 62
1, 3840, Note_on_c, 0, 73, 73
1, 3840, Note_on_c, 0, 52, 54
1, 3840, Note_on_c, 0, 57, 54
1, 3840, Note_on_c, 0, 61, 54
1, 3854, Control_c, 0, 64, 0
1, 4080, Note_on_c, 0, 73, 0
1, 4080, Note_on_c, 0, 71, 72
1, 4320, Tempo, 287646
1, 4320, Note_on_c, 0, 71, 0
1, 4320, Note_on_c, 0, 61, 0
1, 4320, Note_on_c, 0, 67, 0
1, 4320, Note_on_c, 0, 52, 0
1, 4320, Note_on_c, 0, 57, 0
1, 4320, Note_on_c, 0, 69, 74
1, 4320, Note_on_c, 0, 38, 59
1, 4447, Control_c, 0, 64, 127
1, 4560, Note_on_c, 0, 38, 0
1, 4560, Note_on_c, 0, 69, 0
1, 4560, Note_on_c, 0, 74, 70
1, 4800, Tempo, 309837
1, 4800, Note_on_c, 0, 74, 0
1, 4800, Note_on_c, 0, 66, 62
1, 4800, Note_on_c, 0, 74, 74
1, 4800, Note_on_c, 0, 50, 54
1, 4800, Note_on_c, 0, 57, 54
1, 4800, Note_on_c, 0, 62, 54
1, 4960, Note_on_c, 0, 74, 0
1, 4960, Note_on_c, 0, 76, 70
1, 5120, Note_on_c, 0, 76, 0
1, 5120, Note_on_c, 0, 74, 70
1, 5280, Tempo, 303383
1, 5280, Note_on_c, 0, 74, 0
1, 5280, Note_on_c, 0, 57, 0
1, 5280, Note_on_c, 0, 66, 0
1, 5280, Note_on_c, 0, 50, 0
1, 5280, Note_on_c, 0, 62, 0
1, 5280, Note_on_c, 0, 66, 59
1, 5280, Note_on_c, 0, 73, 70
1, 5280, Note_on_c, 0, 50, 54
1, 5280, Note_on_c, 0, 57, 54
1, 5280, Note_on_c, 0, 62, 54
1, 5294, Control_c, 0, 64, 0
1, 5520, Note_on_c, 0, 73, 0
1, 5520, Note_on_c, 0, 71, 70
1, 5760, Tempo, 316573
1, 5760, Note_on_c, 0, 71, 0
1, 5760, Note_on_c, 0, 62, 0
1, 5760, Note_on_c, 0, 66, 0
1, 5760, Note_on_c, 0, 50, 0
1, 5760, Note_on_c, 0, 57, 0
1, 5760, Note_on_c, 0, 73, 73
1, 5760, Note_on_c, 0, 45, 59
1, 5958, Control_c, 0, 64, 127
1, 6000, Note_on_c, 0, 45, 0
1, 6240, Tempo, 331895
1, 6240, Note_on_c, 0, 64, 44
1, 6240, Note_on_c, 0, 69, 53
1, 6240, Note_on_c, 0, 57, 43
1, 6720, Tempo, 366345
1, 6720, Note_on_c, 0, 57, 0
1, 6720, Note_on_c, 0, 69, 0
1, 6720, Note_on_c, 0, 64, 0
1, 6720, Note_on_c, 0, 67, 57
1, 6720, Note_on_c, 0, 69, 68
1, 6720, Note_on_c, 0, 57, 56
1, 6720, Note_on_c, 0, 64, 56
1, 7200, Tempo, 294190
1, 7200, Note_on_c, 0, 64, 0
1, 7200, Note_on_c, 0, 69, 0
1, 7200, Note_on_c, 0, 73, 0
1, 7200, Note_on_c, 0, 67, 0
1, 7200, Note_on_c, 0, 57, 0
1, 7200, Note_on_c, 0, 69, 74
1, 7200, Note_on_c, 0, 50, 59
1, 7206, Control_c, 0, 64, 0
1, 7246, Control_c, 0, 64, 127
1, 7440, Note_on_c, 0, 50, 0
1, 7440, Note_on_c, 0, 69, 0
1, 7440, Note_on_c, 0, 73, 70
1, 7680, Tempo, 287646
1, 7680, Note_on_c, 0, 73, 0
1, 7680, Note_on_c, 0, 74, 71
1, 7680, Note_on_c, 0, 66, 60
1, 7680, Note_on_c, 0, 57, 52
1, 7680, Note_on_c, 0, 62, 52
1, 7920, Note_on_c, 0, 74, 0
1, 7920, Note_on_c, 0, 76, 71
1, 8160, Tempo, 297192
1, 8160, Note_on_c, 0, 76, 0
1, 8160, Note_on_c, 0, 62, 0
1, 8160, Note_on_c, 0, 57, 0
1, 8160, Note_on_c, 0, 66, 0
1, 8160, Note_on_c, 0, 78, 72
1, 8160, Note_on_c, 0, 66, 61
1, 8160, Note_on_c, 0, 50, 52
1, 8160, Note_on_c, 0, 57, 52
1, 8160, Note_on_c, 0, 62, 52
1, 8400, Tempo, 319166
1, 8400, Note_on_c, 0, 78, 0
1, 8400, Note_on_c, 0, 79, 73
1, 8520, Note_on_c, 0, 79, 0
1, 8520, Note_on_c, 0, 78, 70
1, 8580, Note_on_c, 0, 78, 0
1, 8580, Note_on_c, 0, 79, 68
1, 8640, Tempo, 302496
1, 8640, Note_on_c, 0, 79, 0
1, 8640, Note_on_c, 0, 62, 0
1, 8640, Note_on_c, 0, 66, 0
1, 8640, Note_on_c, 0, 50, 0
1, 8640, Note_on_c, 0, 57, 0
1, 8640, Note_on_c, 0, 78, 76
1, 8640, Note_on_c, 0, 43, 59
1, 8648, Control_c, 0, 64, 0
1, 8838, Control_c, 0, 64, 127
1, 8880, Note_on_c, 0, 43, 0
1, 9120, Tempo, 293040
1, 9120, Note_on_c, 0, 78, 0
1, 9120, Note_on_c, 0, 67, 62
1, 9120, Note_on_c, 0, 76, 74
1, 9120, Note_on_c, 0, 59, 54
1, 9120, Note_on_c, 0, 64, 54
1, 9360, Note_on_c, 0, 76, 0
1, 9360, Note_on_c, 0, 74, 74
1, 9600, Note_on_c, 0, 74, 0
1, 9600, Note_on_c, 0, 64, 0
1, 9600, Note_on_c, 0, 59, 0
1, 9600, Note_on_c, 0, 67, 0
1, 9600, Note_on_c, 0, 67, 62
1, 9600, Note_on_c, 0, 73, 73
1, 9600, Note_on_c, 0, 52, 54
1, 9600, Note_on_c, 0, 59, 54
1, 9600, Note_on_c, 0, 64, 54
1, 9610, Control_c, 0, 64, 0
1, 9840, Note_on_c, 0, 73, 0
1, 9840, Note_on_c, 0, 71, 72
1, 10080, Tempo, 287646
1, 10080, Note_on_c, 0, 71, 0
1, 10080, Note_on_c, 0, 64, 0
1, 10080, Note_on_c, 0, 67, 0
1, 10080, Note_on_c, 0, 52, 0
1, 10080, Note_on_c, 0, 59, 0
1, 10080, Note_on_c, 0, 69, 74
1, 10080, Note_on_c, 0, 45, 59
1, 10214, Control_c, 0, 64, 127
1, 10320, Note_on_c, 0, 45, 0
1, 10320, Note_on_c, 0, 69, 0
1, 10320, Note_on_c, 0, 73, 70
1, 10560, Tempo, 309837
1, 10560, Note_on_c, 0, 73, 0
1, 10560, Note_on_c, 0, 67, 62
1, 10560, Note_on_c, 0, 73, 74
1, 10560, Note_on_c, 0, 57, 54
1, 10560, Note_on_c, 0, 64, 54
1, 10720, Note_on_c, 0, 73, 0
1, 10720, Note_on_c, 0, 74, 70
1, 10880, Note_on_c, 0, 74, 0
1, 10880, Note_on_c, 0, 73, 70
1, 11040, Tempo, 303383
1, 11040, Note_on_c, 0, 73, 0
1, 11040, Note_on_c, 0, 67, 0
1, 11040, Note_on_c, 0, 57, 0
1, 11040, Note_on_c, 0, 64, 0
1, 11040, Note_on_c, 0, 67, 59
1, 11040, Note_on_c, 0, 71, 70
1, 11040, Note_on_c, 0, 57, 54
1, 11040, Note_on_c, 0, 64, 54
1, 11054, Control_c, 0, 64, 0
1, 11280, Note_on_c, 0, 71, 0
1, 11280, Note_on_c, 0, 69, 70
1, 11520, Tempo, 313169
1, 11520, Note_on_c, 0, 69, 0
1, 11520, Note_on_c, 0, 64, 0
1, 11520, Note_on_c, 0, 57, 0
1, 11520, Note_on_c, 0, 67, 0
1, 11520, Note_on_c, 0, 74, 73
1, 11520, Note_on_c, 0, 38, 59
1, 11689, Control_c, 0, 64, 127
1, 11760, Note_on_c, 0, 38, 0
1, 12000, Tempo, 317427
1, 12000, Note_on_c, 0, 66, 53
1, 12000, Note_on_c, 0, 50, 36
1, 12000, Note_on_c, 0, 57, 36
1, 12000, Note_on_c, 0, 62, 43
1, 12480, Tempo, 353024
1, 12480, Note_on_c, 0, 62, 0
1, 12480, Note_on_c, 0, 50, 0
1, 12480, Note_on_c, 0, 57, 0
1, 12480, Note_on_c, 0, 66, 0
1, 12480, Note_on_c, 0, 66, 47
1, 12480, Note_on_c, 0, 50, 39
1, 12480, Note_on_c, 0, 57, 39
1, 12480, Note_on_c, 0, 62, 39
1, 12960, Tempo, 301084
1, 12960, Note_on_c, 0, 74, 0
1, 12960, Note_on_c, 0, 69, 40
1, 12976, Control_c, 0, 64, 0
1, 13062, Control_c, 0, 64, 127
1, 13200, Note_on_c, 0, 69, 0
1, 13200, Note_on_c, 0, 73, 39
1, 13440, Tempo, 294392
1, 13440, Note_on_c, 0, 73, 0
1, 13440, Note_on_c, 0, 57, 0
1, 13440, Note_on_c, 0, 66, 0
1, 13440, Note_on_c, 0, 50, 0
1, 13440, Note_on_c, 0, 62, 0
1, 13440, Note_on_c, 0, 74, 39
1, 13440, Note_on_c, 0, 66, 33
1, 13440, Note_on_c, 0, 50, 23
1, 13440, Note_on_c, 0, 57, 23
1, 13440, Note_on_c, 0, 62, 23
1, 13680, Note_on_c, 0, 74, 0
1, 13680, Note_on_c, 0, 76, 39
1, 13920, Tempo, 304152
1, 13920, Note_on_c, 0, 76, 0
1, 13920, Note_on_c, 0, 62, 0
1, 13920, Note_on_c, 0, 66, 0
1, 13920, Note_on_c, 0, 50, 0
1, 13920, Note_on_c, 0, 57, 0
1, 13920, Note_on_c, 0, 78, 40
1, 13920, Note_on_c, 0, 66, 33
1, 13920, Note_on_c, 0, 50, 23
1, 13920, Note_on_c, 0, 57, 23
1, 13920, Note_on_c, 0, 62, 23
1, 14160, Tempo, 335721
1, 14160, Note_on_c, 0, 78, 0
1, 14160, Note_on_c, 0, 79, 40
1, 14280, Note_on_c, 0, 79, 0
1, 14280, Note_on_c, 0, 78, 39
1, 14340, Note_on_c, 0, 78, 0
1, 14340, Note_on_c, 0, 79, 37
1, 14400, Tempo, 309598
1, 14400, Note_on_c, 0, 79, 0
1, 14400, Note_on_c, 0, 62, 0
1, 14400, Note_on_c, 0, 66, 0
1, 14400, Note_on_c, 0, 50, 0
1, 14400, Note_on_c, 0, 57, 0
1, 14400, Note_on_c, 0, 78, 42
1, 14400, Note_on_c, 0, 45, 27
1, 14408, Control_c, 0, 64, 0
1, 14626, Control_c, 0, 64, 127
1, 14640, Note_on_c, 0, 45, 0
1, 14880, Tempo, 299925
1, 14880, Note_on_c, 0, 78, 0
1, 14880, Note_on_c, 0, 67, 34
1, 14880, Note_on_c, 0, 76, 40
1, 14880, Note_on_c, 0, 52, 24
1, 14880, Note_on_c, 0, 57, 24
1, 14880, Note_on_c, 0, 61, 24
1, 15120, Note_on_c, 0, 76, 0
1, 15120, Note_on_c, 0, 74, 40
1, 15360, Note_on_c, 0, 74, 0
1, 15360, Note_on_c, 0, 61, 0
1, 15360, Note_on_c, 0, 67, 0
1, 15360, Note_on_c, 0, 52, 0
1, 15360, Note_on_c, 0, 57, 0
1, 15360, Note_on_c, 0, 67, 34
1, 15360, Note_on_c, 0, 73, 40
1, 15360, Note_on_c, 0, 52, 24
1, 15360, Note_on_c, 0, 57, 24
1, 15360, Note_on_c, 0, 61, 24
1, 15374, Control_c, 0, 64, 0
1, 15600, Note_on_c, 0, 73, 0
1, 15600, Note_on_c, 0, 71, 40
1, 15840, Tempo, 294392
1, 15840, Note_on_c, 0, 71, 0
1, 15840, Note_on_c, 0, 61, 0
1, 15840, Note_on_c, 0, 67, 0
1, 15840, Note_on_c, 0, 52, 0
1, 15840, Note_on_c, 0, 57, 0
1, 15840, Note_on_c, 0, 69, 40
1, 15840, Note_on_c, 0, 38, 27
1, 15946, Control_c, 0, 64, 127
1, 16080, Note_on_c, 0, 38, 0
1, 16080, Note_on_c, 0, 69, 0
1, 16080, Note_on_c, 0, 74, 39
1, 16320, Tempo, 317108
1, 16320, Note_on_c, 0, 74, 0
1, 16320, Note_on_c, 0, 66, 34
1, 16320, Note_on_c, 0, 74, 40
1, 16320, Note_on_c, 0, 50, 24
1, 16320, Note_on_c, 0, 57, 24
1, 16320, Note_on_c, 0, 62, 24
1, 16480, Note_on_c, 0, 74, 0
1, 16480, Note_on_c, 0, 76, 39
1, 16640, Note_on_c, 0, 76, 0
1, 16640, Note_on_c, 0, 74, 39
1, 16800, Tempo, 310495
1, 16800, Note_on_c, 0, 74, 0
1, 16800, Note_on_c, 0, 57, 0
1, 16800, Note_on_c, 0, 66, 0
1, 16800, Note_on_c, 0, 50, 0
1, 16800, Note_on_c, 0, 62, 0
1, 16800, Note_on_c, 0, 66, 32
1, 16800, Note_on_c, 0, 73, 39
1, 16800, Note_on_c, 0, 50, 24
1, 16800, Note_on_c, 0, 57, 24
1, 16800, Note_on_c, 0, 62, 24
1, 16810, Control_c, 0, 64, 0
1, 17040, Note_on_c, 0, 73, 0
1, 17040, Note_on_c, 0, 71, 39
1, 17280, Tempo, 320496
1, 17280, Note_on_c, 0, 71, 0
1, 17280, Note_on_c, 0, 62, 0
1, 17280, Note_on_c, 0, 66, 0
1, 17280, Note_on_c, 0, 50, 0
1, 17280, Note_on_c, 0, 57, 0
1, 17280, Note_on_c, 0, 73, 40
1, 17280, Note_on_c, 0, 45, 27
1, 17492, Control_c, 0, 64, 127
1, 17520, Note_on_c, 0, 45, 0
1, 17760, Tempo, 341627
1, 17760, Note_on_c, 0, 64, 24
1, 17760, Note_on_c, 0, 69, 29
1, 17760, Note_on_c, 0, 61, 20
1, 17760, Note_on_c, 0, 57, 20
1, 18240, Tempo, 355177
1, 18240, Note_on_c, 0, 57, 0
1, 18240, Note_on_c, 0, 69, 0
1, 18240, Note_on_c, 0, 61, 0
1, 18240, Note_on_c, 0, 64, 0
1, 18240, Note_on_c, 0, 67, 31
1, 18240, Note_on_c, 0, 69, 37
1, 18240, Note_on_c, 0, 57, 26
1, 18240, Note_on_c, 0, 64, 26
1, 18720, Tempo, 301084
1, 18720, Note_on_c, 0, 64, 0
1, 18720, Note_on_c, 0, 73, 0
1, 18720, Note_on_c, 0, 69, 0
1, 18720, Note_on_c, 0, 67, 0
1, 18720, Note_on_c, 0, 69, 40
1, 18720, Note_on_c, 0, 50, 27
1, 18728, Control_c, 0, 64, 0
1, 18812, Control_c, 0, 64, 127
1, 18960, Note_on_c, 0, 69, 0
1, 18960, Note_on_c, 0, 73, 39
1, 19200, Tempo, 294392
1, 19200, Note_on_c, 0, 73, 0
1, 19200, Note_on_c, 0, 50, 0
1, 19200, Note_on_c, 0, 57, 0
1, 19200, Note_on_c, 0, 74, 39
1, 19200, Note_on_c, 0, 66, 33
1, 19200, Note_on_c, 0, 57, 23
1, 19200, Note_on_c, 0, 62, 23
1, 19440, Note_on_c, 0, 74, 0
1, 19440, Note_on_c, 0, 76, 39
1, 19680, Tempo, 304152
1, 19680, Note_on_c, 0, 76, 0
1, 19680, Note_on_c, 0, 62, 0
1, 19680, Note_on_c, 0, 57, 0
1, 19680, Note_on_c, 0, 66, 0
1, 19680, Note_on_c, 0, 78, 40
1, 19680, Note_on_c, 0, 66, 33
1, 19680, Note_on_c, 0, 50, 23
1, 19680, Note_on_c, 0, 57, 23
1, 19680, Note_on_c, 0, 62, 23
1, 19920, Tempo, 331895
1, 19920, Note_on_c, 0, 78, 0
1, 19920, Note_on_c, 0, 79, 40
1, 20040, Note_on_c, 0, 79, 0
1, 20040, Note_on_c, 0, 78, 39
1, 20100, Note_on_c, 0, 78, 0
1, 20100, Note_on_c, 0, 79, 37
1, 20160, Tempo, 309598
1, 20160, Note_on_c, 0, 79, 0
1, 20160, Note_on_c, 0, 62, 0
1, 20160, Note_on_c, 0, 66, 0
1, 20160, Note_on_c, 0, 50, 0
1, 20160, Note_on_c, 0, 57, 0
1, 20160, Note_on_c, 0, 78, 42
1, 20160, Note_on_c, 0, 43, 27
1, 20168, Control_c, 0, 64, 0
1, 20386, Control_c, 0, 64, 127
1, 20400, Note_on_c, 0, 43, 0
1, 20640, Tempo, 299925
1, 20640, Note_on_c, 0, 78, 0
1, 20640, Note_on_c, 0, 67, 34
1, 20640, Note_on_c, 0, 76, 40
1, 20640, Note_on_c, 0, 59, 24
1, 20640, Note_on_c, 0, 64, 24
1, 20880, Note_on_c, 0, 76, 0
1, 20880, Note_on_c, 0, 74, 40
1, 21120, Note_on_c, 0, 74, 0
1, 21120, Note_on_c, 0, 64, 0
1, 21120, Note_on_c, 0, 59, 0
1, 21120, Note_on_c, 0, 67, 0
1, 21120, Note_on_c, 0, 67, 34
1, 21120, Note_on_c, 0, 73, 40
1, 21120, Note_on_c, 0, 52, 24
1, 21120, Note_on_c, 0, 59, 24
1, 21120, Note_on_c, 0, 64, 24
1, 21129, Control_c, 0, 64, 0
1, 21360, Note_on_c, 0, 73, 0
1, 21360, Note_on_c, 0, 71, 40
1, 21600, Tempo, 294392
1, 21600, Note_on_c, 0, 71, 0
1, 21600, Note_on_c, 0, 64, 0
1, 21600, Note_on_c, 0, 67, 0
1, 21600, Note_on_c, 0, 52, 0
1, 21600, Note_on_c, 0, 59, 0
1, 21600, Note_on_c, 0, 69, 40
1, 21600, Note_on_c, 0, 45, 27
1, 21741, Control_c, 0, 64, 127
1, 21840, Note_on_c, 0, 45, 0
1, 21840, Note_on_c, 0, 69, 0
1, 21840, Note_on_c, 0, 73, 39
1, 22080, Tempo, 317108
1, 22080, Note_on_c, 0, 73, 0
1, 22080, Note_on_c, 0, 67, 34
1, 22080, Note_on_c, 0, 73, 40
1, 22080, Note_on_c, 0, 57, 24
1, 22080, Note_on_c, 0, 64, 24
1, 22240, Note_on_c, 0, 73, 0
1, 22240, Note_on_c, 0, 74, 39
1, 22400, Note_on_c, 0, 74, 0
1, 22400, Note_on_c, 0, 73, 39
1, 22560, Tempo, 310495
1, 22560, Note_on_c, 0, 73, 0
1, 22560, Note_on_c, 0, 67, 0
1, 22560, Note_on_c, 0, 57, 0
1, 22560, Note_on_c, 0, 64, 0
1, 22560, Note_on_c, 0, 67, 32
1, 22560, Note_on_c, 0, 71, 39
1, 22560, Note_on_c, 0, 57, 24
1, 22560, Note_on_c, 0, 64, 24
1, 22572, Control_c, 0, 64, 0
1, 22800, Note_on_c, 0, 71, 0
1, 22800, Note_on_c, 0, 69, 39
1, 23040, Tempo, 320496
1, 23040, Note_on_c, 0, 69, 0
1, 23040, Note_on_c, 0, 64, 0
1, 23040, Note_on_c, 0, 57, 0
1, 23040, Note_on_c, 0, 67, 0
1, 23040, Note_on_c, 0, 74, 40
1, 23040, Note_on_c, 0, 38, 27
1, 23267, Control_c, 0, 64, 127
1, 23280, Note_on_c, 0, 38, 0
1, 23520, Tempo, 324886
1, 23520, Note_on_c, 0, 66, 29
1, 23520, Note_on_c, 0, 50, 17
1, 23520, Note_on_c, 0, 57, 17
1, 23520, Note_on_c, 0, 62, 20
1, 24000, Tempo, 339635
1, 24000, Note_on_c, 0, 62, 0
1, 24000, Note_on_c, 0, 50, 0
1, 24000, Note_on_c, 0, 57, 0
1, 24000, Note_on_c, 0, 66, 0
1, 24000, Note_on_c, 0, 66, 37
1, 24000, Note_on_c, 0, 50, 26
1, 24000, Note_on_c, 0, 57, 26
1, 24000, Note_on_c, 0, 62, 26
1, 24480, Tempo, 294190
1, 24480, Note_on_c, 0, 62, 0
1, 24480, Note_on_c, 0, 50, 0
1, 24480, Note_on_c, 0, 74, 0
1, 24480, Note_on_c, 0, 66, 0
1, 24480, Note_on_c, 0, 57, 0
1, 24480, Note_on_c, 0, 64, 73
1, 24480, Note_on_c, 0, 45, 59
1, 24487, Control_c, 0, 64, 0
1, 24547, Control_c, 0, 64, 127
1, 24720, Note_on_c, 0, 45, 0
1, 24720, Note_on_c, 0, 64, 0
1, 24720, Note_on_c, 0, 68, 70
1, 24960, Tempo, 287646
1, 24960, Note_on_c, 0, 68, 0
1, 24960, Note_on_c, 0, 69, 71
1, 24960, Note_on_c, 0, 61, 60
1, 24960, Note_on_c, 0, 45, 52
1, 24960, Note_on_c, 0, 52, 52
1, 24960, Note_on_c, 0, 57, 52
1, 25200, Note_on_c, 0, 69, 0
1, 25200, Note_on_c, 0, 71, 71
1, 25440, Tempo, 297192
1, 25440, Note_on_c, 0, 71, 0
1, 25440, Note_on_c, 0, 57, 0
1, 25440, Note_on_c, 0, 61, 0
1, 25440, Note_on_c, 0, 45, 0
1, 25440, Note_on_c, 0, 52, 0
1, 25440, Note_on_c, 0, 73, 72
1, 25440, Note_on_c, 0, 61, 61
1, 25440, Note_on_c, 0, 45, 52
1, 25440, Note_on_c, 0, 52, 52
1, 25440, Note_on_c, 0, 57, 52
1, 25680, Tempo, 336700
1, 25680, Note_on_c, 0, 73, 0
1, 25680, Note_on_c, 0, 74, 73
1, 25800, Note_on_c, 0, 74, 0
1, 25800, Note_on_c, 0, 73, 70
1, 25860, Note_on_c, 0, 73, 0
1, 25860, Note_on_c, 0, 74, 68
1, 25920, Tempo, 302496
1, 25920, Note_on_c, 0, 74, 0
1, 25920, Note_on_c, 0, 57, 0
1, 25920, Note_on_c, 0, 61, 0
1, 25920, Note_on_c, 0, 45, 0
1, 25920, Note_on_c, 0, 52, 0
1, 25920, Note_on_c, 0, 73, 76
1, 25920, Note_on_c, 0, 40, 59
1, 25930, Control_c, 0, 64, 0
1, 26126, Control_c, 0, 64, 127
1, 26160, Note_on_c, 0, 40, 0
1, 26400, Tempo, 293040
1, 26400, Note_on_c, 0, 73, 0
1, 26400, Note_on_c, 0, 62, 62
1, 26400, Note_on_c, 0, 71, 74
1, 26400, Note_on_c, 0, 52, 54
1, 26400, Note_on_c, 0, 59, 54
1, 26640, Note_on_c, 0, 71, 0
1, 26640, Note_on_c, 0, 69, 74
1, 26880, Note_on_c, 0, 69, 0
1, 26880, Note_on_c, 0, 59, 0
1, 26880, Note_on_c, 0, 52, 0
1, 26880, Note_on_c, 0, 62, 0
1, 26880, Note_on_c, 0, 62, 62
1, 26880, Note_on_c, 0, 68, 73
1, 26880, Note_on_c, 0, 52, 54
1, 26880, Note_on_c, 0, 59, 54
1, 26892, Control_c, 0, 64, 0
1, 27120, Note_on_c, 0, 68, 0
1, 27120, Note_on_c, 0, 66, 72
1, 27360, Tempo, 287646
1, 27360, Note_on_c, 0, 66, 0
1, 27360, Note_on_c, 0, 59, 0
1, 27360, Note_on_c, 0, 52, 0
1, 27360, Note_on_c, 0, 62, 0
1, 27360, Note_on_c, 0, 64, 74
1, 27360, Note_on_c, 0, 33, 59
1, 27480, Control_c, 0, 64, 127
1, 27600, Note_on_c, 0, 33, 0
1, 27600, Note_on_c, 0, 64, 0
1, 27600, Note_on_c, 0, 69, 70
1, 27840, Tempo, 309837
1, 27840, Note_on_c, 0, 69, 0
1, 27840, Note_on_c, 0, 61, 62
1, 27840, Note_on_c, 0, 69, 74
1, 27840, Note_on_c, 0, 45, 54
1, 27840, Note_on_c, 0, 52, 54
1, 27840, Note_on_c, 0, 57, 54
1, 28000, Note_on_c, 0, 69, 0
1, 28000, Note_on_c, 0, 71, 70
1, 28160, Note_on_c, 0, 71, 0
1, 28160, Note_on_c, 0, 69, 70
1, 28320, Tempo, 303383
1, 28320, Note_on_c, 0, 69, 0
1, 28320, Note_on_c, 0, 52, 0
1, 28320, Note_on_c, 0, 61, 0
1, 28320, Note_on_c, 0, 45, 0
1, 28320, Note_on_c, 0, 57, 0
1, 28320, Note_on_c, 0, 61, 59
1, 28320, Note_on_c, 0, 68, 70
1, 28320, Note_on_c, 0, 45, 54
1, 28320, Note_on_c, 0, 52, 54
1, 28320, Note_on_c, 0, 57, 54
1, 28334, Control_c, 0, 64, 0
1, 28560, Note_on_c, 0, 68, 0
1, 28560, Note_on_c, 0, 66, 70
1, 28800, Tempo, 319166
1, 28800, Note_on_c, 0, 66, 0
1, 28800, Note_on_c, 0, 57, 0
1, 28800, Note_on_c, 0, 61, 0
1, 28800, Note_on_c, 0, 45, 0
1, 28800, Note_on_c, 0, 52, 0
1, 28800, Note_on_c, 0, 68, 73
1, 28800, Note_on_c, 0, 40, 59
1, 29040, Note_on_c, 0, 40, 0
1, 29054, Control_c, 0, 64, 127
1, 29280, Tempo, 330015
1, 29280, Note_on_c, 0, 59, 44
1, 29280, Note_on_c, 0, 64, 53
1, 29280, Note_on_c, 0, 52, 43
1, 29760, Tempo, 356252
1, 29760, Note_on_c, 0, 52, 0
1, 29760, Note_on_c, 0, 64, 0
1, 29760, Note_on_c, 0, 59, 0
1, 29760, Note_on_c, 0, 62, 57
1, 29760, Note_on_c, 0, 64, 68
1, 29760, Note_on_c, 0, 52, 56
1, 29760, Note_on_c, 0, 59, 56
1, 30240, Tempo, 294190
1, 30240, Note_on_c, 0, 59, 0
1, 30240, Note_on_c, 0, 64, 0
1, 30240, Note_on_c, 0, 68, 0
1, 30240, Note_on_c, 0, 62, 0
1, 30240, Note_on_c, 0, 52, 0
1, 30240, Note_on_c, 0, 64, 74
1, 30240, Note_on_c, 0, 45, 59
1, 30250, Control_c, 0, 64, 0
1, 30339, Control_c, 0, 64, 127
1, 30480, Note_on_c, 0, 45, 0
1, 30480, Note_on_c, 0, 64, 0
1, 30480, Note_on_c, 0, 68, 70
1, 30720, Tempo, 287646
1, 30720, Note_on_c, 0, 68, 0
1, 30720, Note_on_c, 0, 69, 71
1, 30720, Note_on_c, 0, 61, 60
1, 30720, Note_on_c, 0, 52, 52
1, 30720, Note_on_c, 0, 57, 52
1, 30960, Note_on_c, 0, 69, 0
1, 30960, Note_on_c, 0, 71, 71
1, 31200, Tempo, 297192
1, 31200, Note_on_c, 0, 71, 0
1, 31200, Note_on_c, 0, 57, 0
1, 31200, Note_on_c, 0, 52, 0
1, 31200, Note_on_c, 0, 61, 0
1, 31200, Note_on_c, 0, 73, 72
1, 31200, Note_on_c, 0, 61, 61
1, 31200, Note_on_c, 0, 45, 52
1, 31200, Note_on_c, 0, 52, 52
1, 31200, Note_on_c, 0, 57, 52
1, 31440, Tempo, 330015
1, 31440, Note_on_c, 0, 73, 0
1, 31440, Note_on_c, 0, 74, 73
1, 31560, Note_on_c, 0, 74, 0
1, 31560, Note_on_c, 0, 73, 70
1, 31620, Note_on_c, 0, 73, 0
1, 31620, Note_on_c, 0, 74, 68
1, 31680, Tempo, 302496
1, 31680, Note_on_c, 0, 74, 0
1, 31680, Note_on_c, 0, 57, 0
1, 31680, Note_on_c, 0, 61, 0
1, 31680, Note_on_c, 0, 45, 0
1, 31680, Note_on_c, 0, 52, 0
1, 31680, Note_on_c, 0, 73, 76
1, 31680, Note_on_c, 0, 38, 59
1, 31691, Control_c, 0, 64, 0
1, 31875, Control_c, 0, 64, 127
1, 31920, Note_on_c, 0, 38, 0
1, 32160, Tempo, 293040
1, 32160, Note_on_c, 0, 73, 0
1, 32160, Note_on_c, 0, 62, 62
1, 32160, Note_on_c, 0, 71, 74
1, 32160, Note_on_c, 0, 54, 54
1, 32160, Note_on_c, 0, 59, 54
1, 32400, Note_on_c, 0, 71, 0
1, 32400, Note_on_c, 0, 69, 74
1, 32640, Note_on_c, 0, 69, 0
1, 32640, Note_on_c, 0, 59, 0
1, 32640, Note_on_c, 0, 54, 0
1, 32640, Note_on_c, 0, 62, 0
1, 32640, Note_on_c, 0, 62, 62
1, 32640, Note_on_c, 0, 68, 73
1, 32640, Note_on_c, 0, 47, 54
1, 32640, Note_on_c, 0, 54, 54
1, 32640, Note_on_c, 0, 59, 54
1, 32652, Control_c, 0, 64, 0
1, 32880, Note_on_c, 0, 68, 0
1, 32880, Note_on_c, 0, 66, 72
1, 33120, Tempo, 287646
1, 33120, Note_on_c, 0, 66, 0
1, 33120, Note_on_c, 0, 59, 0
1, 33120, Note_on_c, 0, 62, 0
1, 33120, Note_on_c, 0, 47, 0
1, 33120, Note_on_c, 0, 54, 0
1, 33120, Note_on_c, 0, 64, 74
1, 33120, Note_on_c, 0, 40, 59
1, 33240, Control_c, 0, 64, 127
1, 33360, Note_on_c, 0, 40, 0
1, 33360, Note_on_c, 0, 64, 0
1, 33360, Note_on_c, 0, 68, 70
1, 33600, Tempo, 309837
1, 33600, Note_on_c, 0, 68, 0
1, 33600, Note_on_c, 0, 62, 62
1, 33600, Note_on_c, 0, 68, 74
1, 33600, Note_on_c, 0, 52, 54
1, 33600, Note_on_c, 0, 59, 54
1, 33760, Note_on_c, 0, 68, 0
1, 33760, Note_on_c, 0, 69, 70
1, 33920, Note_on_c, 0, 69, 0
1, 33920, Note_on_c, 0, 68, 70
1, 34080, Tempo, 303383
1, 34080, Note_on_c, 0, 68, 0
1, 34080, Note_on_c, 0, 62, 0
1, 34080, Note_on_c, 0, 52, 0
1, 34080, Note_on_c, 0, 59, 0
1, 34080, Note_on_c, 0, 62, 59
1, 34080, Note_on_c, 0, 66, 70
1, 34080, Note_on_c, 0, 52, 54
1, 34080, Note_on_c, 0, 59, 54
1, 34094, Control_c, 0, 64, 0
1, 34320, Note_on_c, 0, 66, 0
1, 34320, Note_on_c, 0, 64, 70
1, 34560, Tempo, 313169
1, 34560, Note_on_c, 0, 64, 0
1, 34560, Note_on_c, 0, 59, 0
1, 34560, Note_on_c, 0, 52, 0
1, 34560, Note_on_c, 0, 62, 0
1, 34560, Note_on_c, 0, 69, 73
1, 34560, Note_on_c, 0, 33, 59
1, 34772, Control_c, 0, 64, 127
1, 34800, Note_on_c, 0, 33, 0
1, 35040, Tempo, 325415
1, 35040, Note_on_c, 0, 61, 53
1, 35040, Note_on_c, 0, 45, 36
1, 35040, Note_on_c, 0, 52, 36
1, 35040, Note_on_c, 0, 57, 43
1, 35520, Tempo, 355177
1, 35520, Note_on_c, 0, 57, 0
1, 35520, Note_on_c, 0, 45, 0
1, 35520, Note_on_c, 0, 52, 0
1, 35520, Note_on_c, 0, 61, 0
1, 35520, Note_on_c, 0, 61, 47
1, 35520, Note_on_c, 0, 45, 39
1, 35520, Note_on_c, 0, 52, 39
1, 35520, Note_on_c, 0, 57, 39
1, 36000, Tempo, 301598
1, 36000, Note_on_c, 0, 69, 0
1, 36000, Note_on_c, 0, 64, 40
1, 36016, Control_c, 0, 64, 0
1, 36102, Control_c, 0, 64, 127
1, 36240, Note_on_c, 0, 64, 0
1, 36240, Note_on_c, 0, 68, 39
1, 36480, Tempo, 294898
1, 36480, Note_on_c, 0, 68, 0
1, 36480, Note_on_c, 0, 52, 0
1, 36480, Note_on_c, 0, 61, 0
1, 36480, Note_on_c, 0, 45, 0
1, 36480, Note_on_c, 0, 57, 0
1, 36480, Note_on_c, 0, 69, 39
1, 36480, Note_on_c, 0, 61, 33
1, 36480, Note_on_c, 0, 45, 23
1, 36480, Note_on_c, 0, 52, 23
1, 36480, Note_on_c, 0, 57, 23
1, 36720, Note_on_c, 0, 69, 0
1, 36720, Note_on_c, 0, 71, 39
1, 36960, Tempo, 314005
1, 36960, Note_on_c, 0, 71, 0
1, 36960, Note_on_c, 0, 57, 0
1, 36960, Note_on_c, 0, 61, 0
1, 36960, Note_on_c, 0, 45, 0
1, 36960, Note_on_c, 0, 52, 0
1, 36960, Note_on_c, 0, 73, 40
1, 36960, Note_on_c, 0, 61, 33
1, 36960, Note_on_c, 0, 45, 23
1, 36960, Note_on_c, 0, 52, 23
1, 36960, Note_on_c, 0, 57, 23
1, 37200, Tempo, 345682
1, 37200, Note_on_c, 0, 73, 0
1, 37200, Note_on_c, 0, 74, 40
1, 37320, Note_on_c, 0, 74, 0
1, 37320, Note_on_c, 0, 73, 39
1, 37380, Note_on_c, 0, 73, 0
1, 37380, Note_on_c, 0, 74, 37
1, 37440, Tempo, 310110
1, 37440, Note_on_c, 0, 74, 0
1, 37440, Note_on_c, 0, 57, 0
1, 37440, Note_on_c, 0, 61, 0
1, 37440, Note_on_c, 0, 45, 0
1, 37440, Note_on_c, 0, 52, 0
1, 37440, Note_on_c, 0, 73, 42
1, 37440, Note_on_c, 0, 40, 27
1, 37447, Control_c, 0, 64, 0
1, 37595, Control_c, 0, 64, 127
1, 37680, Note_on_c, 0, 40, 0
1, 37920, Tempo, 300436
1, 37920, Note_on_c, 0, 73, 0
1, 37920, Note_on_c, 0, 62, 34
1, 37920, Note_on_c, 0, 71, 40
1, 37920, Note_on_c, 0, 52, 24
1, 37920, Note_on_c, 0, 59, 24
1, 38160, Note_on_c, 0, 71, 0
1, 38160, Note_on_c, 0, 69, 40
1, 38400, Note_on_c, 0, 69, 0
1, 38400, Note_on_c, 0, 59, 0
1, 38400, Note_on_c, 0, 52, 0
1, 38400, Note_on_c, 0, 62, 0
1, 38400, Note_on_c, 0, 62, 34
1, 38400, Note_on_c, 0, 68, 40
1, 38400, Note_on_c, 0, 52, 24
1, 38400, Note_on_c, 0, 59, 24
1, 38414, Control_c, 0, 64, 0
1, 38640, Note_on_c, 0, 68, 0
1, 38640, Note_on_c, 0, 66, 40
1, 38880, Tempo, 294898
1, 38880, Note_on_c, 0, 66, 0
1, 38880, Note_on_c, 0, 59, 0
1, 38880, Note_on_c, 0, 52, 0
1, 38880, Note_on_c, 0, 62, 0
1, 38880, Note_on_c, 0, 64, 40
1, 38880, Note_on_c, 0, 33, 27
1, 39021, Control_c, 0, 64, 127
1, 39120, Note_on_c, 0, 33, 0
1, 39120, Note_on_c, 0, 64, 0
1, 39120, Note_on_c, 0, 69, 39
1, 39360, Tempo, 317645
1, 39360, Note_on_c, 0, 69, 0
1, 39360, Note_on_c, 0, 61, 34
1, 39360, Note_on_c, 0, 69, 40
1, 39360, Note_on_c, 0, 45, 24
1, 39360, Note_on_c, 0, 52, 24
1, 39360, Note_on_c, 0, 57, 24
1, 39520, Note_on_c, 0, 69, 0
1, 39520, Note_on_c, 0, 71, 39
1, 39680, Note_on_c, 0, 71, 0
1, 39680, Note_on_c, 0, 69, 39
1, 39840, Tempo, 311026
1, 39840, Note_on_c, 0, 69, 0
1, 39840, Note_on_c, 0, 52, 0
1, 39840, Note_on_c, 0, 61, 0
1, 39840, Note_on_c, 0, 45, 0
1, 39840, Note_on_c, 0, 57, 0
1, 39840, Note_on_c, 0, 61, 32
1, 39840, Note_on_c, 0, 68, 39
1, 39840, Note_on_c, 0, 45, 24
1, 39840, Note_on_c, 0, 52, 24
1, 39840, Note_on_c, 0, 57, 24
1, 39850, Control_c, 0, 64, 0
1, 40080, Note_on_c, 0, 68, 0
1, 40080, Note_on_c, 0, 66, 39
1, 40320, Tempo, 326318
1, 40320, Note_on_c, 0, 66, 0
1, 40320, Note_on_c, 0, 57, 0
1, 40320, Note_on_c, 0, 61, 0
1, 40320, Note_on_c, 0, 45, 0
1, 40320, Note_on_c, 0, 52, 0
1, 40320, Note_on_c, 0, 68, 40
1, 40320, Note_on_c, 0, 40, 27
1, 40549, Control_c, 0, 64, 127
1, 40560, Note_on_c, 0, 40, 0
1, 40800, Tempo, 337667
1, 40800, Note_on_c, 0, 59, 24
1, 40800, Note_on_c, 0, 64, 29
1, 40800, Note_on_c, 0, 52, 20
1, 41280, Tempo, 365186
1, 41280, Note_on_c, 0, 52, 0
1, 41280, Note_on_c, 0, 64, 0
1, 41280, Note_on_c, 0, 59, 0
1, 41280, Note_on_c, 0, 62, 31
1, 41280, Note_on_c, 0, 64, 37
1, 41280, Note_on_c, 0, 52, 26
1, 41280, Note_on_c, 0, 59, 26
1, 41760, Tempo, 309008
1, 41760, Note_on_c, 0, 59, 0
1, 41760, Note_on_c, 0, 68, 0
1, 41760, Note_on_c, 0, 64, 0
1, 41760, Note_on_c, 0, 62, 0
1, 41760, Note_on_c, 0, 64, 40
1, 41760, Note_on_c, 0, 45, 27
1, 41770, Control_c, 0, 64, 0
1, 41852, Control_c, 0, 64, 127
1, 42000, Note_on_c, 0, 64, 0
1, 42000, Note_on_c, 0, 68, 39
1, 42240, Tempo, 301811
1, 42240, Note_on_c, 0, 68, 0
1, 42240, Note_on_c, 0, 45, 0
1, 42240, Note_on_c, 0, 52, 0
1, 42240, Note_on_c, 0, 69, 39
1, 42240, Note_on_c, 0, 61, 33
1, 42240, Note_on_c, 0, 52, 23
1, 42240, Note_on_c, 0, 57, 23
1, 42480, Note_on_c, 0, 69, 0
1, 42480, Note_on_c, 0, 71, 39
1, 42720, Tempo, 310655
1, 42720, Note_on_c, 0, 71, 0
1, 42720, Note_on_c, 0, 57, 0
1, 42720, Note_on_c, 0, 52, 0
1, 42720, Note_on_c, 0, 61, 0
1, 42720, Note_on_c, 0, 73, 40
1, 42720, Note_on_c, 0, 61, 33
1, 42720, Note_on_c, 0, 45, 23
1, 42720, Note_on_c, 0, 52, 23
1, 42720, Note_on_c, 0, 57, 23
1, 42960, Tempo, 342642
1, 42960, Note_on_c, 0, 73, 0
1, 42960, Note_on_c, 0, 74, 40
1, 43080, Note_on_c, 0, 74, 0
1, 43080, Note_on_c, 0, 73, 39
1, 43140, Note_on_c, 0, 73, 0
1, 43140, Note_on_c, 0, 74, 37
1, 43200, Tempo, 316573
1, 43200, Note_on_c, 0, 74, 0
1, 43200, Note_on_c, 0, 57, 0
1, 43200, Note_on_c, 0, 61, 0
1, 43200, Note_on_c, 0, 45, 0
1, 43200, Note_on_c, 0, 52, 0
1, 43200, Note_on_c, 0, 73, 42
1, 43200, Note_on_c, 0, 38, 27
1, 43210, Control_c, 0, 64, 0
1, 43417, Control_c, 0, 64, 127
1, 43440, Note_on_c, 0, 38, 0
1, 43680, Tempo, 309837
1, 43680, Note_on_c, 0, 73, 0
1, 43680, Note_on_c, 0, 62, 34
1, 43680, Note_on_c, 0, 71, 40
1, 43680, Note_on_c, 0, 54, 24
1, 43680, Note_on_c, 0, 59, 24
1, 43920, Note_on_c, 0, 71, 0
1, 43920, Note_on_c, 0, 69, 40
1, 44160, Note_on_c, 0, 69, 0
1, 44160, Note_on_c, 0, 59, 0
1, 44160, Note_on_c, 0, 54, 0
1, 44160, Note_on_c, 0, 62, 0
1, 44160, Note_on_c, 0, 62, 34
1, 44160, Note_on_c, 0, 68, 40
1, 44160, Note_on_c, 0, 47, 24
1, 44160, Note_on_c, 0, 54, 24
1, 44160, Note_on_c, 0, 59, 24
1, 44173, Control_c, 0, 64, 0
1, 44400, Note_on_c, 0, 68, 0
1, 44400, Note_on_c, 0, 66, 40
1, 44640, Tempo, 301811
1, 44640, Note_on_c, 0, 66, 0
1, 44640, Note_on_c, 0, 59, 0
1, 44640, Note_on_c, 0, 62, 0
1, 44640, Note_on_c, 0, 47, 0
1, 44640, Note_on_c, 0, 54, 0
1, 44640, Note_on_c, 0, 64, 40
1, 44640, Note_on_c, 0, 40, 27
1, 44781, Control_c, 0, 64, 127
1, 44880, Note_on_c, 0, 40, 0
1, 44880, Note_on_c, 0, 64, 0
1, 44880, Note_on_c, 0, 68, 39
1, 45120, Tempo, 327243
1, 45120, Note_on_c, 0, 68, 0
1, 45120, Note_on_c, 0, 62, 34
1, 45120, Note_on_c, 0, 68, 40
1, 45120, Note_on_c, 0, 52, 24
1, 45120, Note_on_c, 0, 59, 24
1, 45280, Note_on_c, 0, 68, 0
1, 45280, Note_on_c, 0, 69, 39
1, 45440, Note_on_c, 0, 69, 0
1, 45440, Note_on_c, 0, 68, 39
1, 45600, Tempo, 315706
1, 45600, Note_on_c, 0, 68, 0
1, 45600, Note_on_c, 0, 62, 0
1, 45600, Note_on_c, 0, 52, 0
1, 45600, Note_on_c, 0, 59, 0
1, 45600, Note_on_c, 0, 62, 32
1, 45600, Note_on_c, 0, 66, 39
1, 45600, Note_on_c, 0, 52, 24
1, 45600, Note_on_c, 0, 59, 24
1, 45614, Control_c, 0, 64, 0
1, 45840, Note_on_c, 0, 66, 0
1, 45840, Note_on_c, 0, 64, 39
1, 46080, Tempo, 327243
1, 46080, Note_on_c, 0, 64, 0
1, 46080, Note_on_c, 0, 59, 0
1, 46080, Note_on_c, 0, 52, 0
1, 46080, Note_on_c, 0, 62, 0
1, 46080, Note_on_c, 0, 69, 40
1, 46080, Note_on_c, 0, 33, 32
1, 46320, Note_on_c, 0, 33, 0
1, 46334, Control_c, 0, 64, 127
1, 46560, Tempo, 335721
1, 46560, Note_on_c, 0, 61, 37
1, 46560, Note_on_c, 0, 57, 25
1, 46560, Note_on_c, 0, 64, 30
1, 47040, Tempo, 351947
1, 47040, Note_on_c, 0, 64, 0
1, 47040, Note_on_c, 0, 57, 0
1, 47040, Note_on_c, 0, 61, 0
1, 47040, Note_on_c, 0, 67, 73
1, 47040, Note_on_c, 0, 61, 73
1, 47040, Note_on_c, 0, 57, 60
1, 47040, Note_on_c, 0, 64, 60
1, 47520, Tempo, 294190
1, 47520, Note_on_c, 0, 64, 0
1, 47520, Note_on_c, 0, 61, 0
1, 47520, Note_on_c, 0, 57, 0
1, 47520, Note_on_c, 0, 67, 0
1, 47520, Note_on_c, 0, 66, 78
1, 47520, Note_on_c, 0, 50, 67
1, 47531, Control_c, 0, 64, 0
1, 47587, Control_c, 0, 64, 127
1, 47760, Note_on_c, 0, 50, 0
1, 47760, Note_on_c, 0, 69, 0
1, 47760, Note_on_c, 0, 73, 80
1, 48000, Tempo, 287646
1, 48000, Note_on_c, 0, 73, 0
1, 48000, Note_on_c, 0, 66, 0
1, 48000, Note_on_c, 0, 74, 81
1, 48000, Note_on_c, 0, 66, 69
1, 48000, Note_on_c, 0, 50, 59
1, 48000, Note_on_c, 0, 57, 59
1, 48000, Note_on_c, 0, 62, 59
1, 48240, Note_on_c, 0, 74, 0
1, 48240, Note_on_c, 0, 76, 81
1, 48480, Tempo, 297192
1, 48480, Note_on_c, 0, 76, 0
1, 48480, Note_on_c, 0, 62, 0
1, 48480, Note_on_c, 0, 66, 0
1, 48480, Note_on_c, 0, 50, 0
1, 48480, Note_on_c, 0, 57, 0
1, 48480, Note_on_c, 0, 78, 82
1, 48480, Note_on_c, 0, 66, 70
1, 48480, Note_on_c, 0, 50, 59
1, 48480, Note_on_c, 0, 57, 59
1, 48480, Note_on_c, 0, 62, 59
1, 48720, Tempo, 319166
1, 48720, Note_on_c, 0, 78, 0
1, 48720, Note_on_c, 0, 79, 83
1, 48840, Note_on_c, 0, 79, 0
1, 48840, Note_on_c, 0, 78, 80
1, 48900, Note_on_c, 0, 78, 0
1, 48900, Note_on_c, 0, 79, 78
1, 48960, Tempo, 302496
1, 48960, Note_on_c, 0, 79, 0
1, 48960, Note_on_c, 0, 62, 0
1, 48960, Note_on_c, 0, 66, 0
1, 48960, Note_on_c, 0, 50, 0
1, 48960, Note_on_c, 0, 57, 0
1, 48960, Note_on_c, 0, 78, 87
1, 48960, Note_on_c, 0, 45, 67
1, 48967, Control_c, 0, 64, 0
1, 49172, Control_c, 0, 64, 127
1, 49200, Note_on_c, 0, 45, 0
1, 49440, Tempo, 293040
1, 49440, Note_on_c, 0, 78, 0
1, 49440, Note_on_c, 0, 67, 71
1, 49440, Note_on_c, 0, 76, 85
1, 49440, Note_on_c, 0, 52, 62
1, 49440, Note_on_c, 0, 57, 62
1, 49440, Note_on_c, 0, 61, 62
1, 49680, Note_on_c, 0, 76, 0
1, 49680, Note_on_c, 0, 74, 85
1, 49920, Note_on_c, 0, 74, 0
1, 49920, Note_on_c, 0, 61, 0
1, 49920, Note_on_c, 0, 67, 0
1, 49920, Note_on_c, 0, 52, 0
1, 49920, Note_on_c, 0, 57, 0
1, 49920, Note_on_c, 0, 67, 71
1, 49920, Note_on_c, 0, 73, 83
1, 49920, Note_on_c, 0, 52, 62
1, 49920, Note_on_c, 0, 57, 62
1, 49920, Note_on_c, 0, 61, 62
1, 49934, Control_c, 0, 64, 0
1, 50160, Note_on_c, 0, 73, 0
1, 50160, Note_on_c, 0, 71, 82
1, 50400, Tempo, 287646
1, 50400, Note_on_c, 0, 71, 0
1, 50400, Note_on_c, 0, 61, 0
1, 50400, Note_on_c, 0, 67, 0
1, 50400, Note_on_c, 0, 52, 0
1, 50400, Note_on_c, 0, 57, 0
1, 50400, Note_on_c, 0, 69, 85
1, 50400, Note_on_c, 0, 38, 67
1, 50513, Control_c, 0, 64, 127
1, 50640, Note_on_c, 0, 38, 0
1, 50640, Note_on_c, 0, 69, 0
1, 50640, Note_on_c, 0, 74, 80
1, 50880, Tempo, 309837
1, 50880, Note_on_c, 0, 74, 0
1, 50880, Note_on_c, 0, 66, 71
1, 50880, Note_on_c, 0, 74, 85
1, 50880, Note_on_c, 0, 50, 62
1, 50880, Note_on_c, 0, 57, 62
1, 50880, Note_on_c, 0, 62, 62
1, 51040, Note_on_c, 0, 74, 0
1, 51040, Note_on_c, 0, 76, 80
1, 51200, Note_on_c, 0, 76, 0
1, 51200, Note_on_c, 0, 74, 80
1, 51360, Tempo, 303383
1, 51360, Note_on_c, 0, 74, 0
1, 51360, Note_on_c, 0, 57, 0
1, 51360, Note_on_c, 0, 66, 0
1, 51360, Note_on_c, 0, 50, 0
1, 51360, Note_on_c, 0, 62, 0
1, 51360, Note_on_c, 0, 66, 67
1, 51360, Note_on_c, 0, 73, 80
1, 51360, Note_on_c, 0, 50, 62
1, 51360, Note_on_c, 0, 57, 62
1, 51360, Note_on_c, 0, 62, 62
1, 51373, Control_c, 0, 64, 0
1, 51600, Note_on_c, 0, 73, 0
1, 51600, Note_on_c, 0, 71, 80
1, 51840, Tempo, 313169
1, 51840, Note_on_c, 0, 71, 0
1, 51840, Note_on_c, 0, 62, 0
1, 51840, Note_on_c, 0, 66, 0
1, 51840, Note_on_c, 0, 50, 0
1, 51840, Note_on_c, 0, 57, 0
1, 51840, Note_on_c, 0, 73, 83
1, 51840, Note_on_c, 0, 45, 67
1, 52009, Control_c, 0, 64, 127
1, 52080, Note_on_c, 0, 45, 0
1, 52320, Tempo, 317427
1, 52320, Note_on_c, 0, 64, 50
1, 52320, Note_on_c, 0, 69, 60
1, 52320, Note_on_c, 0, 57, 49
1, 52800, Tempo, 351947
1, 52800, Note_on_c, 0, 57, 0
1, 52800, Note_on_c, 0, 69, 0
1, 52800, Note_on_c, 0, 64, 0
1, 52800, Note_on_c, 0, 67, 65
1, 52800, Note_on_c, 0, 69, 78
1, 52800, Note_on_c, 0, 57, 64
1, 52800, Note_on_c, 0, 64, 64
1, 53280, Tempo, 294190
1, 53280, Note_on_c, 0, 64, 0
1, 53280, Note_on_c, 0, 69, 0
1, 53280, Note_on_c, 0, 73, 0
1, 53280, Note_on_c, 0, 67, 0
1, 53280, Note_on_c, 0, 57, 0
1, 53280, Note_on_c, 0, 69, 85
1, 53280, Note_on_c, 0, 50, 67
1, 53288, Control_c, 0, 64, 0
1, 53361, Control_c, 0, 64, 127
1, 53520, Note_on_c, 0, 50, 0
1, 53520, Note_on_c, 0, 69, 0
1, 53520, Note_on_c, 0, 73, 80
1, 53760, Tempo, 287646
1, 53760, Note_on_c, 0, 73, 0
1, 53760, Note_on_c, 0, 74, 81
1, 53760, Note_on_c, 0, 66, 69
1, 53760, Note_on_c, 0, 57, 59
1, 53760, Note_on_c, 0, 62, 59
1, 54000, Note_on_c, 0, 74, 0
1, 54000, Note_on_c, 0, 76, 81
1, 54240, Tempo, 297192
1, 54240, Note_on_c, 0, 76, 0
1, 54240, Note_on_c, 0, 62, 0
1, 54240, Note_on_c, 0, 57, 0
1, 54240, Note_on_c, 0, 66, 0
1, 54240, Note_on_c, 0, 78, 82
1, 54240, Note_on_c, 0, 66, 70
1, 54240, Note_on_c, 0, 50, 59
1, 54240, Note_on_c, 0, 57, 59
1, 54240, Note_on_c, 0, 62, 59
1, 54480, Tempo, 330015
1, 54480, Note_on_c, 0, 78, 0
1, 54480, Note_on_c, 0, 79, 83
1, 54600, Note_on_c, 0, 79, 0
1, 54600, Note_on_c, 0, 78, 80
1, 54660, Note_on_c, 0, 78, 0
1, 54660, Note_on_c, 0, 79, 78
1, 54720, Tempo, 302496
1, 54720, Note_on_c, 0, 79, 0
1, 54720, Note_on_c, 0, 62, 0
1, 54720, Note_on_c, 0, 66, 0
1, 54720, Note_on_c, 0, 50, 0
1, 54720, Note_on_c, 0, 57, 0
1, 54720, Note_on_c, 0, 78, 87
1, 54720, Note_on_c, 0, 43, 67
1, 54728, Control_c, 0, 64, 0
1, 54947, Control_c, 0, 64, 127
1, 54960, Note_on_c, 0, 43, 0
1, 55200, Tempo, 293040
1, 55200, Note_on_c, 0, 78, 0
1, 55200, Note_on_c, 0, 67, 71
1, 55200, Note_on_c, 0, 76, 85
1, 55200, Note_on_c, 0, 59, 62
1, 55200, Note_on_c, 0, 64, 62
1, 55440, Note_on_c, 0, 76, 0
1, 55440, Note_on_c, 0, 74, 85
1, 55680, Note_on_c, 0, 74, 0
1, 55680, Note_on_c, 0, 64, 0
1, 55680, Note_on_c, 0, 59, 0
1, 55680, Note_on_c, 0, 67, 0
1, 55680, Note_on_c, 0, 67, 71
1, 55680, Note_on_c, 0, 73, 83
1, 55680, Note_on_c, 0, 52, 62
1, 55680, Note_on_c, 0, 59, 62
1, 55680, Note_on_c, 0, 64, 62
1, 55686, Control_c, 0, 64, 0
1, 55920, Note_on_c, 0, 73, 0
1, 55920, Note_on_c, 0, 71, 82
1, 56160, Tempo, 287646
1, 56160, Note_on_c, 0, 71, 0
1, 56160, Note_on_c, 0, 64, 0
1, 56160, Note_on_c, 0, 67, 0
1, 56160, Note_on_c, 0, 52, 0
1, 56160, Note_on_c, 0, 59, 0
1, 56160, Note_on_c, 0, 69, 85
1, 56160, Note_on_c, 0, 45, 67
1, 56273, Control_c, 0, 64, 127
1, 56400, Note_on_c, 0, 45, 0
1, 56400, Note_on_c, 0, 69, 0
1, 56400, Note_on_c, 0, 73, 80
1, 56640, Tempo, 309837
1, 56640, Note_on_c, 0, 73, 0
1, 56640, Note_on_c, 0, 67, 71
1, 56640, Note_on_c, 0, 73, 85
1, 56640, Note_on_c, 0, 57, 62
1, 56640, Note_on_c, 0, 64, 62
1, 56800, Note_on_c, 0, 73, 0
1, 56800, Note_on_c, 0, 74, 80
1, 56960, Note_on_c, 0, 74, 0
1, 56960, Note_on_c, 0, 73, 80
1, 57120, Tempo, 303383
1, 57120, Note_on_c, 0, 73, 0
1, 57120, Note_on_c, 0, 67, 0
1, 57120, Note_on_c, 0, 57, 0
1, 57120, Note_on_c, 0, 64, 0
1, 57120, Note_on_c, 0, 67, 67
1, 57120, Note_on_c, 0, 71, 80
1, 57120, Note_on_c, 0, 57, 62
1, 57120, Note_on_c, 0, 64, 62
1, 57132, Control_c, 0, 64, 0
1, 57360, Note_on_c, 0, 71, 0
1, 57360, Note_on_c, 0, 69, 80
1, 57600, Tempo, 313169
1, 57600, Note_on_c, 0, 69, 0
1, 57600, Note_on_c, 0, 64, 0
1, 57600, Note_on_c, 0, 57, 0
1, 57600, Note_on_c, 0, 67, 0
1, 57600, Note_on_c, 0, 74, 83
1, 57600, Note_on_c, 0, 38, 67
1, 57769, Control_c, 0, 64, 127
1, 57840, Note_on_c, 0, 38, 0
1, 58080, Tempo, 323607
1, 58080, Note_on_c, 0, 66, 60
1, 58080, Note_on_c, 0, 50, 41
1, 58080, Note_on_c, 0, 57, 41
1, 58080, Note_on_c, 0, 62, 49
1, 58560, Tempo, 349834
1, 58560, Note_on_c, 0, 62, 0
1, 58560, Note_on_c, 0, 50, 0
1, 58560, Note_on_c, 0, 57, 0
1, 58560, Note_on_c, 0, 66, 0
1, 58560, Note_on_c, 0, 66, 54
1, 58560, Note_on_c, 0, 50, 44
1, 58560, Note_on_c, 0, 57, 44
1, 58560, Note_on_c, 0, 62, 44
1, 59040, Tempo, 306169
1, 59040, Note_on_c, 0, 74, 0
1, 59040, Note_on_c, 0, 69, 40
1, 59056, Control_c, 0, 64, 0
1, 59104, Control_c, 0, 64, 127
1, 59280, Note_on_c, 0, 69, 0
1, 59280, Note_on_c, 0, 73, 39
1, 59520, Tempo, 299371
1, 59520, Note_on_c, 0, 73, 0
1, 59520, Note_on_c, 0, 57, 0
1, 59520, Note_on_c, 0, 66, 0
1, 59520, Note_on_c, 0, 50, 0
1, 59520, Note_on_c, 0, 62, 0
1, 59520, Note_on_c, 0, 74, 39
1, 59520, Note_on_c, 0, 66, 33
1, 59520, Note_on_c, 0, 50, 23
1, 59520, Note_on_c, 0, 57, 23
1, 59520, Note_on_c, 0, 62, 23
1, 59760, Note_on_c, 0, 74, 0
1, 59760, Note_on_c, 0, 76, 39
1, 60000, Tempo, 309294
1, 60000, Note_on_c, 0, 76, 0
1, 60000, Note_on_c, 0, 62, 0
1, 60000, Note_on_c, 0, 66, 0
1, 60000, Note_on_c, 0, 50, 0
1, 60000, Note_on_c, 0, 57, 0
1, 60000, Note_on_c, 0, 78, 40
1, 60000, Note_on_c, 0, 66, 33
1, 60000, Note_on_c, 0, 50, 23
1, 60000, Note_on_c, 0, 57, 23
1, 60000, Note_on_c, 0, 62, 23
1, 60240, Tempo, 362911
1, 60240, Note_on_c, 0, 78, 0
1, 60240, Note_on_c, 0, 79, 40
1, 60360, Note_on_c, 0, 79, 0
1, 60360, Note_on_c, 0, 78, 39
1, 60420, Note_on_c, 0, 78, 0
1, 60420, Note_on_c, 0, 79, 37
1, 60480, Tempo, 314828
1, 60480, Note_on_c, 0, 79, 0
1, 60480, Note_on_c, 0, 62, 0
1, 60480, Note_on_c, 0, 66, 0
1, 60480, Note_on_c, 0, 50, 0
1, 60480, Note_on_c, 0, 57, 0
1, 60480, Note_on_c, 0, 78, 42
1, 60480, Note_on_c, 0, 45, 27
1, 60491, Control_c, 0, 64, 0
1, 60635, Control_c, 0, 64, 127
1, 60720, Note_on_c, 0, 45, 0
1, 60960, Tempo, 304987
1, 60960, Note_on_c, 0, 78, 0
1, 60960, Note_on_c, 0, 67, 34
1, 60960, Note_on_c, 0, 76, 40
1, 60960, Note_on_c, 0, 52, 24
1, 60960, Note_on_c, 0, 57, 24
1, 60960, Note_on_c, 0, 61, 24
1, 61200, Note_on_c, 0, 76, 0
1, 61200, Note_on_c, 0, 74, 40
1, 61440, Note_on_c, 0, 74, 0
1, 61440, Note_on_c, 0, 61, 0
1, 61440, Note_on_c, 0, 67, 0
1, 61440, Note_on_c, 0, 52, 0
1, 61440, Note_on_c, 0, 57, 0
1, 61440, Note_on_c, 0, 67, 34
1, 61440, Note_on_c, 0, 73, 40
1, 61440, Note_on_c, 0, 52, 24
1, 61440, Note_on_c, 0, 57, 24
1, 61440, Note_on_c, 0, 61, 24
1, 61454, Control_c, 0, 64, 0
1, 61680, Note_on_c, 0, 73, 0
1, 61680, Note_on_c, 0, 71, 40
1, 61920, Tempo, 299371
1, 61920, Note_on_c, 0, 71, 0
1, 61920, Note_on_c, 0, 61, 0
1, 61920, Note_on_c, 0, 67, 0
1, 61920, Note_on_c, 0, 52, 0
1, 61920, Note_on_c, 0, 57, 0
1, 61920, Note_on_c, 0, 69, 40
1, 61920, Note_on_c, 0, 38, 27
1, 62047, Control_c, 0, 64, 127
1, 62160, Note_on_c, 0, 38, 0
1, 62160, Note_on_c, 0, 69, 0
1, 62160, Note_on_c, 0, 74, 39
1, 62400, Tempo, 322459
1, 62400, Note_on_c, 0, 74, 0
1, 62400, Note_on_c, 0, 66, 34
1, 62400, Note_on_c, 0, 74, 40
1, 62400, Note_on_c, 0, 50, 24
1, 62400, Note_on_c, 0, 57, 24
1, 62400, Note_on_c, 0, 62, 24
1, 62560, Note_on_c, 0, 74, 0
1, 62560, Note_on_c, 0, 76, 39
1, 62720, Note_on_c, 0, 76, 0
1, 62720, Note_on_c, 0, 74, 39
1, 62880, Tempo, 315740
1, 62880, Note_on_c, 0, 74, 0
1, 62880, Note_on_c, 0, 57, 0
1, 62880, Note_on_c, 0, 66, 0
1, 62880, Note_on_c, 0, 50, 0
1, 62880, Note_on_c, 0, 62, 0
1, 62880, Note_on_c, 0, 66, 32
1, 62880, Note_on_c, 0, 73, 39
1, 62880, Note_on_c, 0, 50, 24
1, 62880, Note_on_c, 0, 57, 24
1, 62880, Note_on_c, 0, 62, 24
1, 62895, Control_c, 0, 64, 0
1, 63120, Note_on_c, 0, 73, 0
1, 63120, Note_on_c, 0, 71, 39
1, 63360, Tempo, 331895
1, 63360, Note_on_c, 0, 71, 0
1, 63360, Note_on_c, 0, 62, 0
1, 63360, Note_on_c, 0, 66, 0
1, 63360, Note_on_c, 0, 50, 0
1, 63360, Note_on_c, 0, 57, 0
1, 63360, Note_on_c, 0, 73, 40
1, 63360, Note_on_c, 0, 45, 27
1, 63583, Control_c, 0, 64, 127
1, 63600, Note_on_c, 0, 45, 0
1, 63840, Tempo, 342642
1, 63840, Note_on_c, 0, 64, 24
1, 63840, Note_on_c, 0, 69, 29
1, 63840, Note_on_c, 0, 61, 20
1, 63840, Note_on_c, 0, 57, 20
1, 64320, Tempo, 373390
1, 64320, Note_on_c, 0, 57, 0
1, 64320, Note_on_c, 0, 69, 0
1, 64320, Note_on_c, 0, 61, 0
1, 64320, Note_on_c, 0, 64, 0
1, 64320, Note_on_c, 0, 67, 31
1, 64320, Note_on_c, 0, 69, 37
1, 64320, Note_on_c, 0, 57, 26
1, 64320, Note_on_c, 0, 64, 26
1, 64800, Tempo, 324500
1, 64800, Note_on_c, 0, 64, 0
1, 64800, Note_on_c, 0, 73, 0
1, 64800, Note_on_c, 0, 69, 0
1, 64800, Note_on_c, 0, 67, 0
1, 64800, Note_on_c, 0, 69, 40
1, 64800, Note_on_c, 0, 50, 27
1, 64808, Control_c, 0, 64, 0
1, 64888, Control_c, 0, 64, 127
1, 65040, Note_on_c, 0, 69, 0
1, 65040, Note_on_c, 0, 73, 39
1, 65280, Tempo, 311494
1, 65280, Note_on_c, 0, 73, 0
1, 65280, Note_on_c, 0, 50, 0
1, 65280, Note_on_c, 0, 57, 0
1, 65280, Note_on_c, 0, 74, 39
1, 65280, Note_on_c, 0, 66, 33
1, 65280, Note_on_c, 0, 57, 23
1, 65280, Note_on_c, 0, 62, 23
1, 65520, Note_on_c, 0, 74, 0
1, 65520, Note_on_c, 0, 76, 39
1, 65760, Tempo, 317427
1, 65760, Note_on_c, 0, 76, 0
1, 65760, Note_on_c, 0, 62, 0
1, 65760, Note_on_c, 0, 57, 0
1, 65760, Note_on_c, 0, 66, 0
1, 65760, Note_on_c, 0, 78, 40
1, 65760, Note_on_c, 0, 66, 33
1, 65760, Note_on_c, 0, 50, 23
1, 65760, Note_on_c, 0, 57, 23
1, 65760, Note_on_c, 0, 62, 23
1, 66000, Tempo, 344669
1, 66000, Note_on_c, 0, 78, 0
1, 66000, Note_on_c, 0, 79, 40
1, 66120, Note_on_c, 0, 79, 0
1, 66120, Note_on_c, 0, 78, 39
1, 66180, Note_on_c, 0, 78, 0
1, 66180, Note_on_c, 0, 79, 37
1, 66240, Tempo, 330015
1, 66240, Note_on_c, 0, 79, 0
1, 66240, Note_on_c, 0, 62, 0
1, 66240, Note_on_c, 0, 66, 0
1, 66240, Note_on_c, 0, 50, 0
1, 66240, Note_on_c, 0, 57, 0
1, 66240, Note_on_c, 0, 78, 42
1, 66240, Note_on_c, 0, 43, 27
1, 66251, Control_c, 0, 64, 0
1, 66452, Control_c, 0, 64, 127
1, 66480, Note_on_c, 0, 43, 0
1, 66720, Tempo, 320924
1, 66720, Note_on_c, 0, 78, 0
1, 66720, Note_on_c, 0, 67, 34
1, 66720, Note_on_c, 0, 76, 40
1, 66720, Note_on_c, 0, 59, 24
1, 66720, Note_on_c, 0, 64, 24
1, 66960, Note_on_c, 0, 76, 0
1, 66960, Note_on_c, 0, 74, 40
1, 67200, Note_on_c, 0, 74, 0
1, 67200, Note_on_c, 0, 64, 0
1, 67200, Note_on_c, 0, 59, 0
1, 67200, Note_on_c, 0, 67, 0
1, 67200, Note_on_c, 0, 67, 34
1, 67200, Note_on_c, 0, 73, 40
1, 67200, Note_on_c, 0, 52, 24
1, 67200, Note_on_c, 0, 59, 24
1, 67200, Note_on_c, 0, 64, 24
1, 67215, Control_c, 0, 64, 0
1, 67440, Note_on_c, 0, 73, 0
1, 67440, Note_on_c, 0, 71, 40
1, 67680, Tempo, 312321
1, 67680, Note_on_c, 0, 71, 0
1, 67680, Note_on_c, 0, 64, 0
1, 67680, Note_on_c, 0, 67, 0
1, 67680, Note_on_c, 0, 52, 0
1, 67680, Note_on_c, 0, 59, 0
1, 67680, Note_on_c, 0, 69, 40
1, 67680, Note_on_c, 0, 45, 27
1, 67807, Control_c, 0, 64, 127
1, 67920, Note_on_c, 0, 45, 0
1, 67920, Note_on_c, 0, 69, 0
1, 67920, Note_on_c, 0, 73, 39
1, 68160, Tempo, 341627
1, 68160, Note_on_c, 0, 73, 0
1, 68160, Note_on_c, 0, 67, 34
1, 68160, Note_on_c, 0, 73, 40
1, 68160, Note_on_c, 0, 57, 24
1, 68160, Note_on_c, 0, 64, 24
1, 68320, Note_on_c, 0, 73, 0
1, 68320, Note_on_c, 0, 74, 39
1, 68480, Note_on_c, 0, 74, 0
1, 68480, Note_on_c, 0, 73, 39
1, 68640, Tempo, 323607
1, 68640, Note_on_c, 0, 73, 0
1, 68640, Note_on_c, 0, 67, 0
1, 68640, Note_on_c, 0, 57, 0
1, 68640, Note_on_c, 0, 64, 0
1, 68640, Note_on_c, 0, 67, 32
1, 68640, Note_on_c, 0, 71, 39
1, 68640, Note_on_c, 0, 57, 24
1, 68640, Note_on_c, 0, 64, 24
1, 68654, Control_c, 0, 64, 0
1, 68880, Note_on_c, 0, 71, 0
1, 68880, Note_on_c, 0, 69, 39
1, 69120, Tempo, 336700
1, 69120, Note_on_c, 0, 69, 0
1, 69120, Note_on_c, 0, 64, 0
1, 69120, Note_on_c, 0, 57, 0
1, 69120, Note_on_c, 0, 67, 0
1, 69120, Note_on_c, 0, 74, 40
1, 69120, Note_on_c, 0, 38, 27
1, 69440, Control_c, 0, 64, 127
1, 69600, Tempo, 354087
1, 69600, Note_on_c, 0, 38, 0
1, 69600, Note_on_c, 0, 66, 29
1, 69600, Note_on_c, 0, 50, 17
1, 69600, Note_on_c, 0, 57, 17
1, 69600, Note_on_c, 0, 62, 20
1, 70080, Tempo, 387047
1, 70080, Note_on_c, 0, 62, 0
1, 70080, Note_on_c, 0, 50, 0
1, 70080, Note_on_c, 0, 57, 0
1, 70080, Note_on_c, 0, 66, 0
1, 70080, Note_on_c, 0, 66, 37
1, 70080, Note_on_c, 0, 50, 26
1, 70080, Note_on_c, 0, 57, 26
1, 70080, Note_on_c, 0, 62, 26
1, 70560, Key_signature, -2, "major"
1, 70560, Tempo, 358444
1, 70560, Note_on_c, 0, 62, 0
1, 70560, Note_on_c, 0, 50, 0
1, 70560, Note_on_c, 0, 57, 0
1, 70560, Note_on_c, 0, 66, 0
1, 70560, Note_on_c, 0, 65, 54
1, 70560, Note_on_c, 0, 46, 44
1, 70570, Control_c, 0, 64, 0
1, 70687, Control_c, 0, 64, 127
1, 70920, Note_on_c, 0, 74, 0
1, 70920, Note_on_c, 0, 74, 58
1, 71040, Note_on_c, 0, 74, 0
1, 71040, Note_on_c, 0, 46, 0
1, 71040, Note_on_c, 0, 75, 62
1, 71040, Note_on_c, 0, 62, 40
1, 71040, Note_on_c, 0, 58, 33
1, 71040, Note_on_c, 0, 53, 33
1, 71520, Tempo, 375563
1, 71520, Note_on_c, 0, 53, 0
1, 71520, Note_on_c, 0, 62, 0
1, 71520, Note_on_c, 0, 65, 0
1, 71520, Note_on_c, 0, 75, 0
1, 71520, Note_on_c, 0, 58, 0
1, 71520, Note_on_c, 0, 70, 42
1, 71520, Note_on_c, 0, 76, 55
1, 71520, Note_on_c, 0, 53, 34
1, 71520, Note_on_c, 0, 62, 41
1, 71520, Note_on_c, 0, 58, 34
1, 72000, Tempo, 354087
1, 72000, Note_on_c, 0, 58, 0
1, 72000, Note_on_c, 0, 53, 0
1, 72000, Note_on_c, 0, 62, 0
1, 72000, Note_on_c, 0, 76, 0
1, 72000, Note_on_c, 0, 79, 64
1, 72000, Note_on_c, 0, 41, 46
1, 72008, Control_c, 0, 64, 0
1, 72148, Control_c, 0, 64, 127
1, 72360, Note_on_c, 0, 79, 0
1, 72360, Note_on_c, 0, 77, 60
1, 72480, Note_on_c, 0, 77, 0
1, 72480, Note_on_c, 0, 41, 0
1, 72480, Note_on_c, 0, 70, 0
1, 72480, Note_on_c, 0, 69, 49
1, 72480, Note_on_c, 0, 72, 64
1, 72480, Note_on_c, 0, 63, 43
1, 72480, Note_on_c, 0, 60, 35
1, 72480, Note_on_c, 0, 53, 35
1, 72720, Note_on_c, 0, 69, 0
1, 72720, Note_on_c, 0, 67, 47
1, 72960, Tempo, 379027
1, 72960, Note_on_c, 0, 67, 0
1, 72960, Note_on_c, 0, 53, 0
1, 72960, Note_on_c, 0, 72, 0
1, 72960, Note_on_c, 0, 63, 0
1, 72960, Note_on_c, 0, 60, 0
1, 72960, Note_on_c, 0, 65, 48
1, 72960, Note_on_c, 0, 72, 57
1, 72960, Note_on_c, 0, 63, 44
1, 72960, Note_on_c, 0, 60, 36
1, 72960, Note_on_c, 0, 53, 36
1, 73440, Tempo, 352900
1, 73440, Note_on_c, 0, 53, 0
1, 73440, Note_on_c, 0, 63, 0
1, 73440, Note_on_c, 0, 60, 0
1, 73440, Note_on_c, 0, 72, 0
1, 73440, Note_on_c, 0, 74, 64
1, 73440, Note_on_c, 0, 46, 49
1, 73451, Control_c, 0, 64, 0
1, 73567, Control_c, 0, 64, 127
1, 73800, Note_on_c, 0, 74, 0
1, 73800, Note_on_c, 0, 74, 64
1, 73920, Note_on_c, 0, 74, 0
1, 73920, Note_on_c, 0, 46, 0
1, 73920, Note_on_c, 0, 65, 0
1, 73920, Note_on_c, 0, 65, 50
1, 73920, Note_on_c, 0, 70, 50
1, 73920, Note_on_c, 0, 75, 69
1, 73920, Note_on_c, 0, 62, 45
1, 73920, Note_on_c, 0, 58, 37
1, 73920, Note_on_c, 0, 53, 37
1, 74400, Tempo, 368777
1, 74400, Note_on_c, 0, 53, 0
1, 74400, Note_on_c, 0, 70, 0
1, 74400, Note_on_c, 0, 75, 0
1, 74400, Note_on_c, 0, 65, 0
1, 74400, Note_on_c, 0, 58, 0
1, 74400, Note_on_c, 0, 62, 0
1, 74400, Note_on_c, 0, 65, 51
1, 74400, Note_on_c, 0, 70, 51
1, 74400, Note_on_c, 0, 76, 61
1, 74400, Note_on_c, 0, 53, 38
1, 74400, Note_on_c, 0, 62, 46
1, 74400, Note_on_c, 0, 58, 38
1, 74414, Control_c, 0, 64, 0
1, 74880, Tempo, 352900
1, 74880, Note_on_c, 0, 58, 0
1, 74880, Note_on_c, 0, 70, 0
1, 74880, Note_on_c, 0, 76, 0
1, 74880, Note_on_c, 0, 53, 0
1, 74880, Note_on_c, 0, 62, 0
1, 74880, Note_on_c, 0, 72, 52
1, 74880, Note_on_c, 0, 79, 71
1, 74880, Note_on_c, 0, 45, 51
1, 75050, Control_c, 0, 64, 127
1, 75240, Note_on_c, 0, 79, 0
1, 75240, Note_on_c, 0, 77, 66
1, 75360, Note_on_c, 0, 77, 0
1, 75360, Note_on_c, 0, 65, 0
1, 75360, Note_on_c, 0, 72, 0
1, 75360, Note_on_c, 0, 65, 59
1, 75360, Note_on_c, 0, 72, 71
1, 75360, Note_on_c, 0, 60, 47
1, 75720, Note_on_c, 0, 60, 0
1, 75720, Note_on_c, 0, 45, 0
1, 75720, Note_on_c, 0, 43, 48
1, 75840, Tempo, 381947
1, 75840, Note_on_c, 0, 43, 0
1, 75840, Note_on_c, 0, 65, 0
1, 75840, Note_on_c, 0, 69, 67
1, 75840, Note_on_c, 0, 77, 81
1, 75840, Note_on_c, 0, 41, 62
1, 76320, Tempo, 373274
1, 76320, Note_on_c, 0, 41, 0
1, 76320, Note_on_c, 0, 72, 0
1, 76320, Note_on_c, 0, 69, 0
1, 76320, Note_on_c, 0, 77, 0
1, 76320, Note_on_c, 0, 76, 73
1, 76320, Note_on_c, 0, 70, 69
1, 76320, Note_on_c, 0, 82, 86
1, 76320, Note_on_c, 0, 36, 55
1, 76320, Note_on_c, 0, 48, 64
1, 76335, Control_c, 0, 64, 0
1, 76461, Control_c, 0, 64, 127
1, 76560, Note_on_c, 0, 82, 0
1, 76560, Note_on_c, 0, 76, 0
1, 76560, Note_on_c, 0, 70, 0
1, 76680, Tempo, 343034
1, 76680, Note_on_c, 0, 70, 66
1, 76680, Note_on_c, 0, 76, 69
1, 76680, Note_on_c, 0, 82, 82
1, 76800, Tempo, 369914
1, 76800, Note_on_c, 0, 82, 0
1, 76800, Note_on_c, 0, 70, 0
1, 76800, Note_on_c, 0, 48, 0
1, 76800, Note_on_c, 0, 36, 0
1, 76800, Note_on_c, 0, 76, 0
1, 76800, Note_on_c, 0, 70, 70
1, 76800, Note_on_c, 0, 76, 72
1, 76800, Note_on_c, 0, 82, 85
1, 76800, Note_on_c, 0, 67, 64
1, 76800, Note_on_c, 0, 60, 55
1, 77280, Note_on_c, 0, 60, 0
1, 77280, Note_on_c, 0, 82, 0
1, 77280, Note_on_c, 0, 70, 0
1, 77280, Note_on_c, 0, 76, 0
1, 77280, Note_on_c, 0, 67, 0
1, 77280, Note_on_c, 0, 70, 70
1, 77280, Note_on_c, 0, 76, 70
1, 77280, Note_on_c, 0, 82, 83
1, 77760, Tempo, 373274
1, 77760, Note_on_c, 0, 82, 0
1, 77760, Note_on_c, 0, 76, 0
1, 77760, Note_on_c, 0, 70, 0
1, 77760, Note_on_c, 0, 77, 73
1, 77760, Note_on_c, 0, 70, 73
1, 77760, Note_on_c, 0, 82, 86
1, 77760, Note_on_c, 0, 41, 64
1, 77795, Control_c, 0, 64, 0
1, 77894, Control_c, 0, 64, 127
1, 78000, Note_on_c, 0, 41, 0
1, 78000, Note_on_c, 0, 77, 0
1, 78000, Note_on_c, 0, 70, 0
1, 78000, Note_on_c, 0, 82, 0
1, 78120, Tempo, 343034
1, 78120, Note_on_c, 0, 70, 69
1, 78120, Note_on_c, 0, 77, 69
1, 78120, Note_on_c, 0, 82, 82
1, 78120, Note_on_c, 0, 59, 65
1, 78240, Tempo, 369914
1, 78240, Note_on_c, 0, 59, 0
1, 78240, Note_on_c, 0, 70, 0
1, 78240, Note_on_c, 0, 77, 0
1, 78240, Note_on_c, 0, 82, 0
1, 78240, Note_on_c, 0, 70, 72
1, 78240, Note_on_c, 0, 77, 72
1, 78240, Note_on_c, 0, 82, 85
1, 78240, Note_on_c, 0, 60, 72
1, 78600, Note_on_c, 0, 60, 0
1, 78600, Note_on_c, 0, 61, 68
1, 78720, Note_on_c, 0, 61, 0
1, 78720, Note_on_c, 0, 82, 0
1, 78720, Note_on_c, 0, 77, 0
1, 78720, Note_on_c, 0, 70, 0
1, 78720, Note_on_c, 0, 69, 67
1, 78720, Note_on_c, 0, 77, 70
1, 78720, Note_on_c, 0, 81, 83
1, 78720, Note_on_c, 0, 60, 72
1, 78732, Control_c, 0, 64, 0
1, 79200, Tempo, 373274
1, 79200, Note_on_c, 0, 60, 0
1, 79200, Note_on_c, 0, 69, 0
1, 79200, Note_on_c, 0, 77, 0
1, 79200, Note_on_c, 0, 81, 0
1, 79200, Note_on_c, 0, 76, 64
1, 79200, Note_on_c, 0, 70, 64
1, 79200, Note_on_c, 0, 81, 78
1, 79200, Note_on_c, 0, 48, 58
1, 79334, Control_c, 0, 64, 127
1, 79440, Note_on_c, 0, 48, 0
1, 79440, Note_on_c, 0, 76, 0
1, 79440, Note_on_c, 0, 70, 0
1, 79440, Note_on_c, 0, 81, 0
1, 79560, Tempo, 343034
1, 79560, Note_on_c, 0, 70, 61
1, 79560, Note_on_c, 0, 76, 61
1, 79560, Note_on_c, 0, 81, 73
1, 79560, Note_on_c, 0, 59, 58
1, 79680, Tempo, 369914
1, 79680, Note_on_c, 0, 59, 0
1, 79680, Note_on_c, 0, 70, 0
1, 79680, Note_on_c, 0, 76, 0
1, 79680, Note_on_c, 0, 81, 0
1, 79680, Note_on_c, 0, 70, 63
1, 79680, Note_on_c, 0, 76, 63
1, 79680, Note_on_c, 0, 81, 76
1, 79680, Note_on_c, 0, 60, 63
1, 80040, Note_on_c, 0, 60, 0
1, 80040, Note_on_c, 0, 62, 58
1, 80160, Tempo, 380204
1, 80160, Note_on_c, 0, 62, 0
1, 80160, Note_on_c, 0, 81, 0
1, 80160, Note_on_c, 0, 76, 0
1, 80160, Note_on_c, 0, 70, 0
1, 80160, Note_on_c, 0, 70, 60
1, 80160, Note_on_c, 0, 76, 60
1, 80160, Note_on_c, 0, 79, 72
1, 80160, Note_on_c, 0, 60, 62
1, 80172, Control_c, 0, 64, 0
1, 80640, Tempo, 380204
1, 80640, Note_on_c, 0, 60, 0
1, 80640, Note_on_c, 0, 70, 0
1, 80640, Note_on_c, 0, 76, 0
1, 80640, Note_on_c, 0, 79, 0
1, 80640, Note_on_c, 0, 75, 58
1, 80640, Note_on_c, 0, 69, 58
1, 80640, Note_on_c, 0, 79, 70
1, 80640, Note_on_c, 0, 53, 52
1, 80774, Control_c, 0, 64, 127
1, 80880, Note_on_c, 0, 53, 0
1, 80880, Note_on_c, 0, 75, 0
1, 80880, Note_on_c, 0, 69, 0
1, 80880, Note_on_c, 0, 79, 0
1, 81000, Tempo, 350877
1, 81000, Note_on_c, 0, 69, 52
1, 81000, Note_on_c, 0, 75, 52
1, 81000, Note_on_c, 0, 79, 62
1, 81000, Note_on_c, 0, 59, 46
1, 81120, Tempo, 376695
1, 81120, Note_on_c, 0, 59, 0
1, 81120, Note_on_c, 0, 69, 0
1, 81120, Note_on_c, 0, 75, 0
1, 81120, Note_on_c, 0, 79, 0
1, 81120, Note_on_c, 0, 69, 54
1, 81120, Note_on_c, 0, 75, 54
1, 81120, Note_on_c, 0, 79, 64
1, 81120, Note_on_c, 0, 60, 54
1, 81480, Note_on_c, 0, 60, 0
1, 81480, Note_on_c, 0, 64, 45
1, 81600, Tempo, 396144
1, 81600, Note_on_c, 0, 64, 0
1, 81600, Note_on_c, 0, 79, 0
1, 81600, Note_on_c, 0, 75, 0
1, 81600, Note_on_c, 0, 69, 0
1, 81600, Note_on_c, 0, 69, 46
1, 81600, Note_on_c, 0, 75, 46
1, 81600, Note_on_c, 0, 77, 56
1, 81600, Note_on_c, 0, 65, 47
1, 81613, Control_c, 0, 64, 0
1, 82080, Tempo, 353899
1, 82080, Note_on_c, 0, 65, 0
1, 82080, Note_on_c, 0, 69, 0
1, 82080, Note_on_c, 0, 75, 0
1, 82080, Note_on_c, 0, 77, 0
1, 82080, Note_on_c, 0, 74, 61
1, 82080, Note_on_c, 0, 46, 44
1, 82207, Control_c, 0, 64, 127
1, 82440, Note_on_c, 0, 74, 0
1, 82440, Note_on_c, 0, 74, 58
1, 82560, Note_on_c, 0, 74, 0
1, 82560, Note_on_c, 0, 46, 0
1, 82560, Note_on_c, 0, 65, 45
1, 82560, Note_on_c, 0, 70, 45
1, 82560, Note_on_c, 0, 75, 62
1, 82560, Note_on_c, 0, 62, 40
1, 82560, Note_on_c, 0, 58, 33
1, 82560, Note_on_c, 0, 53, 33
1, 83040, Tempo, 381947
1, 83040, Note_on_c, 0, 53, 0
1, 83040, Note_on_c, 0, 70, 0
1, 83040, Note_on_c, 0, 75, 0
1, 83040, Note_on_c, 0, 65, 0
1, 83040, Note_on_c, 0, 58, 0
1, 83040, Note_on_c, 0, 62, 0
1, 83040, Note_on_c, 0, 65, 46
1, 83040, Note_on_c, 0, 70, 46
1, 83040, Note_on_c, 0, 76, 55
1, 83040, Note_on_c, 0, 53, 34
1, 83040, Note_on_c, 0, 62, 41
1, 83040, Note_on_c, 0, 58, 34
1, 83061, Control_c, 0, 64, 0
1, 83520, Tempo, 352900
1, 83520, Note_on_c, 0, 58, 0
1, 83520, Note_on_c, 0, 70, 0
1, 83520, Note_on_c, 0, 76, 0
1, 83520, Note_on_c, 0, 65, 0
1, 83520, Note_on_c, 0, 62, 0
1, 83520, Note_on_c, 0, 53, 0
1, 83520, Note_on_c, 0, 78, 64
1, 83520, Note_on_c, 0, 45, 46
1, 83646, Control_c, 0, 64, 127
1, 83880, Note_on_c, 0, 78, 0
1, 83880, Note_on_c, 0, 77, 60
1, 84000, Note_on_c, 0, 77, 0
1, 84000, Note_on_c, 0, 45, 0
1, 84000, Note_on_c, 0, 65, 53
1, 84000, Note_on_c, 0, 72, 64
1, 84000, Note_on_c, 0, 63, 43
1, 84000, Note_on_c, 0, 60, 35
1, 84000, Note_on_c, 0, 53, 35
1, 84360, Note_on_c, 0, 65, 0
1, 84360, Note_on_c, 0, 66, 47
1, 84480, Tempo, 379027
1, 84480, Note_on_c, 0, 66, 0
1, 84480, Note_on_c, 0, 53, 0
1, 84480, Note_on_c, 0, 72, 0
1, 84480, Note_on_c, 0, 63, 0
1, 84480, Note_on_c, 0, 60, 0
1, 84480, Note_on_c, 0, 65, 48
1, 84480, Note_on_c, 0, 72, 57
1, 84480, Note_on_c, 0, 63, 44
1, 84480, Note_on_c, 0, 60, 36
1, 84480, Note_on_c, 0, 53, 36
1, 84960, Tempo, 352900
1, 84960, Note_on_c, 0, 53, 0
1, 84960, Note_on_c, 0, 63, 0
1, 84960, Note_on_c, 0, 65, 0
1, 84960, Note_on_c, 0, 72, 0
1, 84960, Note_on_c, 0, 60, 0
1, 84960, Note_on_c, 0, 73, 68
1, 84960, Note_on_c, 0, 46, 49
1, 84967, Control_c, 0, 64, 0
1, 85087, Control_c, 0, 64, 127
1, 85320, Note_on_c, 0, 73, 0
1, 85320, Note_on_c, 0, 73, 64
1, 85440, Note_on_c, 0, 73, 0
1, 85440, Note_on_c, 0, 46, 0
1, 85440, Note_on_c, 0, 65, 50
1, 85440, Note_on_c, 0, 70, 50
1, 85440, Note_on_c, 0, 75, 69
1, 85440, Note_on_c, 0, 61, 45
1, 85440, Note_on_c, 0, 58, 37
1, 85440, Note_on_c, 0, 53, 37
1, 85920, Tempo, 368777
1, 85920, Note_on_c, 0, 53, 0
1, 85920, Note_on_c, 0, 70, 0
1, 85920, Note_on_c, 0, 75, 0
1, 85920, Note_on_c, 0, 65, 0
1, 85920, Note_on_c, 0, 58, 0
1, 85920, Note_on_c, 0, 61, 0
1, 85920, Note_on_c, 0, 65, 50
1, 85920, Note_on_c, 0, 70, 50
1, 85920, Note_on_c, 0, 76, 60
1, 85920, Note_on_c, 0, 53, 37
1, 85920, Note_on_c, 0, 61, 45
1, 85920, Note_on_c, 0, 58, 37
1, 85934, Control_c, 0, 64, 0
1, 86400, Tempo, 352900
1, 86400, Note_on_c, 0, 58, 0
1, 86400, Note_on_c, 0, 70, 0
1, 86400, Note_on_c, 0, 76, 0
1, 86400, Note_on_c, 0, 65, 0
1, 86400, Note_on_c, 0, 61, 0
1, 86400, Note_on_c, 0, 53, 0
1, 86400, Note_on_c, 0, 78, 74
1, 86400, Note_on_c, 0, 44, 53
1, 86548, Control_c, 0, 64, 127
1, 86760, Note_on_c, 0, 78, 0
1, 86760, Note_on_c, 0, 77, 72
1, 86880, Tempo, 367489
1, 86880, Note_on_c, 0, 77, 0
1, 86880, Note_on_c, 0, 44, 0
1, 86880, Note_on_c, 0, 73, 62
1, 86880, Note_on_c, 0, 68, 62
1, 86880, Note_on_c, 0, 80, 75
1, 86880, Note_on_c, 0, 53, 46
1, 86880, Note_on_c, 0, 56, 46
1, 86880, Note_on_c, 0, 65, 54
1, 86880, Note_on_c, 0, 61, 46
1, 87240, Note_on_c, 0, 61, 0
1, 87240, Note_on_c, 0, 56, 0
1, 87240, Note_on_c, 0, 53, 0
1, 87240, Note_on_c, 0, 65, 0
1, 87240, Note_on_c, 0, 46, 54
1, 87360, Tempo, 389636
1, 87360, Note_on_c, 0, 46, 0
1, 87360, Note_on_c, 0, 68, 0
1, 87360, Note_on_c, 0, 80, 0
1, 87360, Note_on_c, 0, 73, 0
1, 87360, Note_on_c, 0, 73, 73
1, 87360, Note_on_c, 0, 85, 89
1, 87360, Note_on_c, 0, 44, 67
1, 87840, Tempo, 373274
1, 87840, Note_on_c, 0, 44, 0
1, 87840, Note_on_c, 0, 85, 0
1, 87840, Note_on_c, 0, 73, 0
1, 87840, Note_on_c, 0, 72, 80
1, 87840, Note_on_c, 0, 66, 80
1, 87840, Note_on_c, 0, 78, 94
1, 87840, Note_on_c, 0, 32, 70
1, 87855, Control_c, 0, 64, 0
1, 87974, Control_c, 0, 64, 127
1, 88080, Note_on_c, 0, 78, 0
1, 88080, Note_on_c, 0, 72, 0
1, 88080, Note_on_c, 0, 66, 0
1, 88200, Tempo, 343034
1, 88200, Note_on_c, 0, 66, 75
1, 88200, Note_on_c, 0, 72, 75
1, 88200, Note_on_c, 0, 78, 90
1, 88320, Tempo, 369914
1, 88320, Note_on_c, 0, 78, 0
1, 88320, Note_on_c, 0, 32, 0
1, 88320, Note_on_c, 0, 66, 0
1, 88320, Note_on_c, 0, 72, 0
1, 88320, Note_on_c, 0, 66, 79
1, 88320, Note_on_c, 0, 72, 79
1, 88320, Note_on_c, 0, 78, 93
1, 88320, Note_on_c, 0, 63, 70
1, 88320, Note_on_c, 0, 56, 60
1, 88800, Note_on_c, 0, 56, 0
1, 88800, Note_on_c, 0, 78, 0
1, 88800, Note_on_c, 0, 66, 0
1, 88800, Note_on_c, 0, 72, 0
1, 88800, Note_on_c, 0, 63, 0
1, 88800, Note_on_c, 0, 66, 75
1, 88800, Note_on_c, 0, 72, 75
1, 88800, Note_on_c, 0, 78, 90
1, 89280, Tempo, 373274
1, 89280, Note_on_c, 0, 78, 0
1, 89280, Note_on_c, 0, 72, 0
1, 89280, Note_on_c, 0, 66, 0
1, 89280, Note_on_c, 0, 73, 79
1, 89280, Note_on_c, 0, 66, 79
1, 89280, Note_on_c, 0, 78, 93
1, 89280, Note_on_c, 0, 37, 69
1, 89315, Control_c, 0, 64, 0
1, 89414, Control_c, 0, 64, 127
1, 89520, Note_on_c, 0, 37, 0
1, 89520, Note_on_c, 0, 73, 0
1, 89520, Note_on_c, 0, 66, 0
1, 89520, Note_on_c, 0, 78, 0
1, 89640, Tempo, 343034
1, 89640, Note_on_c, 0, 66, 73
1, 89640, Note_on_c, 0, 73, 73
1, 89640, Note_on_c, 0, 78, 88
1, 89640, Note_on_c, 0, 55, 73
1, 89760, Tempo, 369914
1, 89760, Note_on_c, 0, 55, 0
1, 89760, Note_on_c, 0, 66, 0
1, 89760, Note_on_c, 0, 73, 0
1, 89760, Note_on_c, 0, 78, 0
1, 89760, Note_on_c, 0, 66, 77
1, 89760, Note_on_c, 0, 73, 77
1, 89760, Note_on_c, 0, 78, 91
1, 89760, Note_on_c, 0, 56, 77
1, 90120, Note_on_c, 0, 56, 0
1, 90120, Note_on_c, 0, 58, 72
1, 90240, Note_on_c, 0, 58, 0
1, 90240, Note_on_c, 0, 78, 0
1, 90240, Note_on_c, 0, 73, 0
1, 90240, Note_on_c, 0, 66, 0
1, 90240, Note_on_c, 0, 65, 73
1, 90240, Note_on_c, 0, 73, 73
1, 90240, Note_on_c, 0, 77, 88
1, 90240, Note_on_c, 0, 56, 75
1, 90251, Control_c, 0, 64, 0
1, 90720, Tempo, 373274
1, 90720, Note_on_c, 0, 56, 0
1, 90720, Note_on_c, 0, 65, 0
1, 90720, Note_on_c, 0, 73, 0
1, 90720, Note_on_c, 0, 77, 0
1, 90720, Note_on_c, 0, 72, 67
1, 90720, Note_on_c, 0, 66, 67
1, 90720, Note_on_c, 0, 77, 81
1, 90720, Note_on_c, 0, 44, 60
1, 90854, Control_c, 0, 64, 127
1, 90960, Note_on_c, 0, 44, 0
1, 90960, Note_on_c, 0, 72, 0
1, 90960, Note_on_c, 0, 66, 0
1, 90960, Note_on_c, 0, 77, 0
1, 91080, Tempo, 343034
1, 91080, Note_on_c, 0, 66, 63
1, 91080, Note_on_c, 0, 72, 63
1, 91080, Note_on_c, 0, 77, 76
1, 91080, Note_on_c, 0, 55, 60
1, 91200, Tempo, 369914
1, 91200, Note_on_c, 0, 55, 0
1, 91200, Note_on_c, 0, 66, 0
1, 91200, Note_on_c, 0, 72, 0
1, 91200, Note_on_c, 0, 77, 0
1, 91200, Note_on_c, 0, 66, 59
1, 91200, Note_on_c, 0, 72, 65
1, 91200, Note_on_c, 0, 77, 77
1, 91200, Note_on_c, 0, 56, 65
1, 91560, Note_on_c, 0, 56, 0
1, 91560, Note_on_c, 0, 57, 63
1, 91680, Tempo, 380204
1, 91680, Note_on_c, 0, 57, 0
1, 91680, Note_on_c, 0, 77, 0
1, 91680, Note_on_c, 0, 72, 0
1, 91680, Note_on_c, 0, 66, 0
1, 91680, Note_on_c, 0, 66, 63
1, 91680, Note_on_c, 0, 72, 63
1, 91680, Note_on_c, 0, 75, 74
1, 91680, Note_on_c, 0, 56, 64
1, 91697, Control_c, 0, 64, 0
1, 92160, Tempo, 380204
1, 92160, Note_on_c, 0, 56, 0
1, 92160, Note_on_c, 0, 66, 0
1, 92160, Note_on_c, 0, 72, 0
1, 92160, Note_on_c, 0, 75, 0
1, 92160, Note_on_c, 0, 66, 59
1, 92160, Note_on_c, 0, 75, 72
1, 92160, Note_on_c, 0, 49, 53
1, 92294, Control_c, 0, 64, 127
1, 92400, Note_on_c, 0, 49, 0
1, 92400, Note_on_c, 0, 75, 0
1, 92400, Note_on_c, 0, 66, 0
1, 92520, Tempo, 350877
1, 92520, Note_on_c, 0, 66, 53
1, 92520, Note_on_c, 0, 68, 53
1, 92520, Note_on_c, 0, 75, 63
1, 92520, Note_on_c, 0, 55, 46
1, 92640, Tempo, 376695
1, 92640, Note_on_c, 0, 55, 0
1, 92640, Note_on_c, 0, 66, 0
1, 92640, Note_on_c, 0, 68, 0
1, 92640, Note_on_c, 0, 75, 0
1, 92640, Note_on_c, 0, 66, 55
1, 92640, Note_on_c, 0, 68, 55
1, 92640, Note_on_c, 0, 75, 65
1, 92640, Note_on_c, 0, 56, 55
1, 93000, Note_on_c, 0, 56, 0
1, 93000, Note_on_c, 0, 60, 45
1, 93120, Tempo, 396144
1, 93120, Note_on_c, 0, 60, 0
1, 93120, Note_on_c, 0, 75, 0
1, 93120, Note_on_c, 0, 66, 0
1, 93120, Note_on_c, 0, 65, 46
1, 93120, Note_on_c, 0, 73, 56
1, 93120, Note_on_c, 0, 61, 47
1, 93136, Control_c, 0, 64, 0
1, 93600, Tempo, 288364
1, 93600, Note_on_c, 0, 61, 0
1, 93600, Note_on_c, 0, 68, 0
1, 93600, Note_on_c, 0, 65, 0
1, 93600, Note_on_c, 0, 73, 0
1, 93600, Note_on_c, 0, 68, 52
1, 93600, Note_on_c, 0, 74, 62
1, 93600, Note_on_c, 0, 41, 40
1, 93609, Control_c, 0, 64, 0
1, 93734, Control_c, 0, 64, 127
1, 93760, Note_on_c, 0, 74, 0
1, 93760, Note_on_c, 0, 68, 0
1, 93760, Note_on_c, 0, 62, 56
1, 93840, Note_on_c, 0, 41, 0
1, 93920, Note_on_c, 0, 62, 0
1, 93920, Note_on_c, 0, 68, 47
1, 93920, Note_on_c, 0, 74, 56
1, 94080, Tempo, 350898
1, 94080, Note_on_c, 0, 62, 66
1, 94080, Note_on_c, 0, 59, 35
1, 94080, Note_on_c, 0, 53, 29
1, 94560, Tempo, 381947
1, 94560, Note_on_c, 0, 53, 0
1, 94560, Note_on_c, 0, 62, 0
1, 94560, Note_on_c, 0, 59, 0
1, 94560, Note_on_c, 0, 74, 0
1, 94560, Note_on_c, 0, 62, 58
1, 94560, Note_on_c, 0, 74, 63
1, 94560, Note_on_c, 0, 53, 30
1, 94560, Note_on_c, 0, 59, 36
1, 94600, Tempo, 357356
1, 95040, Tempo, 304971
1, 95040, Note_on_c, 0, 59, 0
1, 95040, Note_on_c, 0, 74, 0
1, 95040, Note_on_c, 0, 68, 0
1, 95040, Note_on_c, 0, 62, 0
1, 95040, Note_on_c, 0, 53, 0
1, 95040, Note_on_c, 0, 69, 56
1, 95040, Note_on_c, 0, 74, 66
1, 95040, Note_on_c, 0, 42, 43
1, 95047, Control_c, 0, 64, 0
1, 95153, Control_c, 0, 64, 127
1, 95200, Note_on_c, 0, 74, 0
1, 95200, Note_on_c, 0, 69, 0
1, 95200, Note_on_c, 0, 62, 59
1, 95280, Note_on_c, 0, 42, 0
1, 95360, Note_on_c, 0, 62, 0
1, 95360, Note_on_c, 0, 69, 50
1, 95360, Note_on_c, 0, 74, 60
1, 95520, Tempo, 338658
1, 95520, Note_on_c, 0, 62, 70
1, 95520, Note_on_c, 0, 57, 37
1, 95520, Note_on_c, 0, 54, 31
1, 96000, Tempo, 381947
1, 96000, Note_on_c, 0, 54, 0
1, 96000, Note_on_c, 0, 57, 0
1, 96000, Note_on_c, 0, 54, 32
1, 96000, Note_on_c, 0, 57, 38
1, 96240, Note_on_c, 0, 62, 0
1, 96240, Note_on_c, 0, 74, 0
1, 96240, Note_on_c, 0, 61, 60
1, 96240, Note_on_c, 0, 73, 64
1, 96253, Control_c, 0, 64, 0
1, 96480, Tempo, 287646
1, 96480, Note_on_c, 0, 73, 0
1, 96480, Note_on_c, 0, 69, 0
1, 96480, Note_on_c, 0, 57, 0
1, 96480, Note_on_c, 0, 54, 0
1, 96480, Note_on_c, 0, 61, 0
1, 96480, Note_on_c, 0, 68, 59
1, 96480, Note_on_c, 0, 74, 70
1, 96480, Note_on_c, 0, 41, 45
1, 96551, Control_c, 0, 64, 127
1, 96640, Note_on_c, 0, 74, 0
1, 96640, Note_on_c, 0, 68, 0
1, 96640, Note_on_c, 0, 62, 63
1, 96720, Note_on_c, 0, 41, 0
1, 96800, Note_on_c, 0, 62, 0
1, 96800, Note_on_c, 0, 68, 53
1, 96800, Note_on_c, 0, 74, 63
1, 96960, Tempo, 338658
1, 96960, Note_on_c, 0, 62, 74
1, 96960, Note_on_c, 0, 59, 40
1, 96960, Note_on_c, 0, 53, 33
1, 97440, Tempo, 355177
1, 97440, Note_on_c, 0, 53, 0
1, 97440, Note_on_c, 0, 62, 0
1, 97440, Note_on_c, 0, 59, 0
1, 97440, Note_on_c, 0, 74, 0
1, 97440, Note_on_c, 0, 62, 65
1, 97440, Note_on_c, 0, 74, 70
1, 97440, Note_on_c, 0, 53, 34
1, 97440, Note_on_c, 0, 59, 40
1, 97920, Tempo, 302587
1, 97920, Note_on_c, 0, 59, 0
1, 97920, Note_on_c, 0, 74, 0
1, 97920, Note_on_c, 0, 68, 0
1, 97920, Note_on_c, 0, 62, 0
1, 97920, Note_on_c, 0, 53, 0
1, 97920, Note_on_c, 0, 69, 62
1, 97920, Note_on_c, 0, 74, 74
1, 97920, Note_on_c, 0, 42, 48
1, 97930, Control_c, 0, 64, 0
1, 98047, Control_c, 0, 64, 127
1, 98080, Note_on_c, 0, 74, 0
1, 98080, Note_on_c, 0, 69, 0
1, 98080, Note_on_c, 0, 62, 66
1, 98160, Note_on_c, 0, 42, 0
1, 98240, Note_on_c, 0, 62, 0
1, 98240, Note_on_c, 0, 69, 56
1, 98240, Note_on_c, 0, 74, 67
1, 98400, Tempo, 338658
1, 98400, Note_on_c, 0, 62, 78
1, 98400, Note_on_c, 0, 57, 42
1, 98400, Note_on_c, 0, 54, 35
1, 98880, Tempo, 357356
1, 98880, Note_on_c, 0, 54, 0
1, 98880, Note_on_c, 0, 57, 0
1, 98880, Note_on_c, 0, 54, 36
1, 98880, Note_on_c, 0, 57, 43
1, 99120, Note_on_c, 0, 62, 0
1, 99120, Note_on_c, 0, 74, 0
1, 99120, Note_on_c, 0, 61, 67
1, 99120, Note_on_c, 0, 73, 72
1, 99127, Control_c, 0, 64, 0
1, 99360, Tempo, 285524
1, 99360, Note_on_c, 0, 73, 0
1, 99360, Note_on_c, 0, 69, 0
1, 99360, Note_on_c, 0, 57, 0
1, 99360, Note_on_c, 0, 54, 0
1, 99360, Note_on_c, 0, 61, 0
1, 99360, Note_on_c, 0, 68, 66
1, 99360, Note_on_c, 0, 74, 78
1, 99360, Note_on_c, 0, 40, 51
1, 99431, Control_c, 0, 64, 127
1, 99520, Note_on_c, 0, 74, 0
1, 99520, Note_on_c, 0, 68, 0
1, 99520, Note_on_c, 0, 62, 70
1, 99600, Note_on_c, 0, 40, 0
1, 99680, Note_on_c, 0, 62, 0
1, 99680, Note_on_c, 0, 68, 59
1, 99680, Note_on_c, 0, 74, 70
1, 99840, Tempo, 347745
1, 99840, Note_on_c, 0, 62, 82
1, 99840, Note_on_c, 0, 59, 44
1, 99840, Note_on_c, 0, 52, 37
1, 100320, Tempo, 381947
1, 100320, Note_on_c, 0, 52, 0
1, 100320, Note_on_c, 0, 62, 0
1, 100320, Note_on_c, 0, 59, 0
1, 100320, Note_on_c, 0, 74, 0
1, 100320, Note_on_c, 0, 62, 70
1, 100320, Note_on_c, 0, 74, 76
1, 100320, Note_on_c, 0, 52, 37
1, 100320, Note_on_c, 0, 59, 44
1, 100360, Tempo, 359561
1, 100800, Tempo, 316573
1, 100800, Note_on_c, 0, 59, 0
1, 100800, Note_on_c, 0, 74, 0
1, 100800, Note_on_c, 0, 68, 0
1, 100800, Note_on_c, 0, 62, 0
1, 100800, Note_on_c, 0, 52, 0
1, 100800, Note_on_c, 0, 69, 66
1, 100800, Note_on_c, 0, 74, 78
1, 100800, Note_on_c, 0, 45, 51
1, 100810, Control_c, 0, 64, 0
1, 100840, Tempo, 299476
1, 100913, Control_c, 0, 64, 127
1, 100960, Note_on_c, 0, 74, 0
1, 100960, Note_on_c, 0, 69, 0
1, 100960, Note_on_c, 0, 62, 70
1, 101040, Note_on_c, 0, 45, 0
1, 101120, Note_on_c, 0, 62, 0
1, 101120, Note_on_c, 0, 69, 59
1, 101120, Note_on_c, 0, 74, 70
1, 101280, Tempo, 338658
1, 101280, Note_on_c, 0, 62, 82
1, 101280, Note_on_c, 0, 57, 44
1, 101280, Note_on_c, 0, 52, 37
1, 101760, Tempo, 358444
1, 101760, Note_on_c, 0, 52, 0
1, 101760, Note_on_c, 0, 57, 0
1, 101760, Note_on_c, 0, 52, 37
1, 101760, Note_on_c, 0, 57, 44
1, 102000, Note_on_c, 0, 62, 0
1, 102000, Note_on_c, 0, 74, 0
1, 102000, Note_on_c, 0, 61, 68
1, 102000, Note_on_c, 0, 73, 73
1, 102007, Control_c, 0, 64, 0
1, 102240, Tempo, 316573
1, 102240, Note_on_c, 0, 73, 0
1, 102240, Note_on_c, 0, 69, 0
1, 102240, Note_on_c, 0, 57, 0
1, 102240, Note_on_c, 0, 52, 0
1, 102240, Note_on_c, 0, 61, 0
1, 102240, Note_on_c, 0, 68, 66
1, 102240, Note_on_c, 0, 74, 78
1, 102240, Note_on_c, 0, 40, 51
1, 102311, Control_c, 0, 64, 127
1, 102400, Note_on_c, 0, 74, 0
1, 102400, Note_on_c, 0, 68, 0
1, 102400, Note_on_c, 0, 62, 70
1, 102480, Note_on_c, 0, 40, 0
1, 102560, Note_on_c, 0, 62, 0
1, 102560, Note_on_c, 0, 68, 59
1, 102560, Note_on_c, 0, 74, 70
1, 102720, Tempo, 338658
1, 102720, Note_on_c, 0, 62, 82
1, 102720, Note_on_c, 0, 59, 44
1, 102720, Note_on_c, 0, 52, 37
1, 103200, Tempo, 385753
1, 103200, Note_on_c, 0, 52, 0
1, 103200, Note_on_c, 0, 62, 0
1, 103200, Note_on_c, 0, 59, 0
1, 103200, Note_on_c, 0, 74, 0
1, 103200, Note_on_c, 0, 62, 70
1, 103200, Note_on_c, 0, 74, 76
1, 103200, Note_on_c, 0, 52, 37
1, 103200, Note_on_c, 0, 59, 44
1, 103680, Tempo, 342642
1, 103680, Note_on_c, 0, 59, 0
1, 103680, Note_on_c, 0, 74, 0
1, 103680, Note_on_c, 0, 68, 0
1, 103680, Note_on_c, 0, 62, 0
1, 103680, Note_on_c, 0, 52, 0
1, 103680, Note_on_c, 0, 69, 66
1, 103680, Note_on_c, 0, 74, 78
1, 103680, Note_on_c, 0, 45, 51
1, 103690, Control_c, 0, 64, 0
1, 103800, Control_c, 0, 64, 127
1, 103840, Note_on_c, 0, 74, 0
1, 103840, Note_on_c, 0, 69, 0
1, 103840, Note_on_c, 0, 62, 70
1, 103920, Note_on_c, 0, 45, 0
1, 104000, Note_on_c, 0, 62, 0
1, 104000, Note_on_c, 0, 69, 59
1, 104000, Note_on_c, 0, 74, 70
1, 104160, Tempo, 371012
1, 104160, Note_on_c, 0, 62, 82
1, 104160, Note_on_c, 0, 57, 44
1, 104160, Note_on_c, 0, 52, 37
1, 104640, Tempo, 396249
1, 104640, Note_on_c, 0, 52, 0
1, 104640, Note_on_c, 0, 57, 0
1, 104640, Note_on_c, 0, 52, 37
1, 104640, Note_on_c, 0, 57, 44
1, 104880, Note_on_c, 0, 62, 0
1, 104880, Note_on_c, 0, 74, 0
1, 104880, Note_on_c, 0, 61, 68
1, 104880, Note_on_c, 0, 73, 73
1, 104889, Control_c, 0, 64, 0
1, 105120, Tempo, 329092
1, 105120, Note_on_c, 0, 73, 0
1, 105120, Note_on_c, 0, 69, 0
1, 105120, Note_on_c, 0, 57, 0
1, 105120, Note_on_c, 0, 52, 0
1, 105120, Note_on_c, 0, 61, 0
1, 105120, Note_on_c, 0, 68, 52
1, 105120, Note_on_c, 0, 74, 62
1, 105120, Note_on_c, 0, 41, 40
1, 105191, Control_c, 0, 64, 127
1, 105280, Note_on_c, 0, 74, 0
1, 105280, Note_on_c, 0, 68, 0
1, 105280, Note_on_c, 0, 62, 56
1, 105360, Note_on_c, 0, 41, 0
1, 105440, Note_on_c, 0, 62, 0
1, 105440, Note_on_c, 0, 68, 47
1, 105440, Note_on_c, 0, 74, 56
1, 105600, Tempo, 347745
1, 105600, Note_on_c, 0, 62, 65
1, 105600, Note_on_c, 0, 59, 35
1, 105600, Note_on_c, 0, 53, 29
1, 106080, Tempo, 381947
1, 106080, Note_on_c, 0, 53, 0
1, 106080, Note_on_c, 0, 62, 0
1, 106080, Note_on_c, 0, 59, 0
1, 106080, Note_on_c, 0, 74, 0
1, 106080, Note_on_c, 0, 62, 56
1, 106080, Note_on_c, 0, 74, 61
1, 106080, Note_on_c, 0, 53, 29
1, 106080, Note_on_c, 0, 59, 35
1, 106560, Tempo, 320924
1, 106560, Note_on_c, 0, 59, 0
1, 106560, Note_on_c, 0, 74, 0
1, 106560, Note_on_c, 0, 68, 0
1, 106560, Note_on_c, 0, 62, 0
1, 106560, Note_on_c, 0, 53, 0
1, 106560, Note_on_c, 0, 69, 54
1, 106560, Note_on_c, 0, 74, 63
1, 106560, Note_on_c, 0, 42, 41
1, 106571, Control_c, 0, 64, 0
1, 106680, Control_c, 0, 64, 127
1, 106720, Note_on_c, 0, 74, 0
1, 106720, Note_on_c, 0, 69, 0
1, 106720, Note_on_c, 0, 62, 57
1, 106800, Note_on_c, 0, 42, 0
1, 106880, Note_on_c, 0, 62, 0
1, 106880, Note_on_c, 0, 69, 48
1, 106880, Note_on_c, 0, 74, 58
1, 107040, Tempo, 341627
1, 107040, Note_on_c, 0, 62, 68
1, 107040, Note_on_c, 0, 57, 36
1, 107040, Note_on_c, 0, 54, 30
1, 107520, Tempo, 364056
1, 107520, Note_on_c, 0, 54, 0
1, 107520, Note_on_c, 0, 57, 0
1, 107520, Note_on_c, 0, 54, 31
1, 107520, Note_on_c, 0, 57, 36
1, 107760, Note_on_c, 0, 62, 0
1, 107760, Note_on_c, 0, 74, 0
1, 107760, Note_on_c, 0, 61, 57
1, 107760, Note_on_c, 0, 73, 61
1, 107778, Control_c, 0, 64, 0
1, 108000, Tempo, 304971
1, 108000, Note_on_c, 0, 73, 0
1, 108000, Note_on_c, 0, 69, 0
1, 108000, Note_on_c, 0, 57, 0
1, 108000, Note_on_c, 0, 54, 0
1, 108000, Note_on_c, 0, 61, 0
1, 108000, Note_on_c, 0, 68, 56
1, 108000, Note_on_c, 0, 74, 66
1, 108000, Note_on_c, 0, 41, 43
1, 108071, Control_c, 0, 64, 127
1, 108160, Note_on_c, 0, 74, 0
1, 108160, Note_on_c, 0, 68, 0
1, 108160, Note_on_c, 0, 62, 59
1, 108240, Note_on_c, 0, 41, 0
1, 108320, Note_on_c, 0, 62, 0
1, 108320, Note_on_c, 0, 68, 50
1, 108320, Note_on_c, 0, 74, 59
1, 108480, Tempo, 338658
1, 108480, Note_on_c, 0, 62, 69
1, 108480, Note_on_c, 0, 59, 37
1, 108480, Note_on_c, 0, 53, 31
1, 108960, Tempo, 381947
1, 108960, Note_on_c, 0, 53, 0
1, 108960, Note_on_c, 0, 62, 0
1, 108960, Note_on_c, 0, 59, 0
1, 108960, Note_on_c, 0, 74, 0
1, 108960, Note_on_c, 0, 62, 60
1, 108960, Note_on_c, 0, 74, 65
1, 108960, Note_on_c, 0, 53, 31
1, 108960, Note_on_c, 0, 59, 37
1, 109000, Tempo, 367489
1, 109440, Tempo, 335721
1, 109440, Note_on_c, 0, 59, 0
1, 109440, Note_on_c, 0, 74, 0
1, 109440, Note_on_c, 0, 68, 0
1, 109440, Note_on_c, 0, 62, 0
1, 109440, Note_on_c, 0, 53, 0
1, 109440, Note_on_c, 0, 69, 57
1, 109440, Note_on_c, 0, 74, 67
1, 109440, Note_on_c, 0, 42, 44
1, 109450, Control_c, 0, 64, 0
1, 109553, Control_c, 0, 64, 127
1, 109600, Note_on_c, 0, 74, 0
1, 109600, Note_on_c, 0, 69, 0
1, 109600, Note_on_c, 0, 62, 60
1, 109680, Note_on_c, 0, 42, 0
1, 109760, Note_on_c, 0, 62, 0
1, 109760, Note_on_c, 0, 69, 51
1, 109760, Note_on_c, 0, 74, 61
1, 109920, Tempo, 355177
1, 109920, Note_on_c, 0, 62, 72
1, 109920, Note_on_c, 0, 57, 38
1, 109920, Note_on_c, 0, 54, 32
1, 110400, Tempo, 373390
1, 110400, Note_on_c, 0, 54, 0
1, 110400, Note_on_c, 0, 57, 0
1, 110400, Note_on_c, 0, 54, 32
1, 110400, Note_on_c, 0, 57, 39
1, 110640, Note_on_c, 0, 62, 0
1, 110640, Note_on_c, 0, 74, 0
1, 110640, Note_on_c, 0, 61, 60
1, 110640, Note_on_c, 0, 73, 64
1, 110651, Control_c, 0, 64, 0
1, 110880, Tempo, 316573
1, 110880, Note_on_c, 0, 73, 0
1, 110880, Note_on_c, 0, 69, 0
1, 110880, Note_on_c, 0, 57, 0
1, 110880, Note_on_c, 0, 54, 0
1, 110880, Note_on_c, 0, 61, 0
1, 110880, Note_on_c, 0, 68, 59
1, 110880, Note_on_c, 0, 74, 70
1, 110880, Note_on_c, 0, 40, 45
1, 110951, Control_c, 0, 64, 127
1, 111040, Note_on_c, 0, 74, 0
1, 111040, Note_on_c, 0, 68, 0
1, 111040, Note_on_c, 0, 62, 63
1, 111120, Note_on_c, 0, 40, 0
1, 111200, Note_on_c, 0, 62, 0
1, 111200, Note_on_c, 0, 68, 53
1, 111200, Note_on_c, 0, 74, 63
1, 111360, Tempo, 338658
1, 111360, Note_on_c, 0, 62, 73
1, 111360, Note_on_c, 0, 59, 39
1, 111360, Note_on_c, 0, 52, 33
1, 111840, Tempo, 357356
1, 111840, Note_on_c, 0, 52, 0
1, 111840, Note_on_c, 0, 62, 0
1, 111840, Note_on_c, 0, 59, 0
1, 111840, Note_on_c, 0, 74, 0
1, 111840, Note_on_c, 0, 62, 63
1, 111840, Note_on_c, 0, 74, 68
1, 111840, Note_on_c, 0, 52, 33
1, 111840, Note_on_c, 0, 59, 39
1, 112320, Tempo, 323607
1, 112320, Note_on_c, 0, 59, 0
1, 112320, Note_on_c, 0, 74, 0
1, 112320, Note_on_c, 0, 68, 0
1, 112320, Note_on_c, 0, 62, 0
1, 112320, Note_on_c, 0, 52, 0
1, 112320, Note_on_c, 0, 69, 59
1, 112320, Note_on_c, 0, 74, 70
1, 112320, Note_on_c, 0, 45, 45
1, 112330, Control_c, 0, 64, 0
1, 112461, Control_c, 0, 64, 127
1, 112480, Note_on_c, 0, 74, 0
1, 112480, Note_on_c, 0, 69, 0
1, 112480, Note_on_c, 0, 62, 63
1, 112560, Note_on_c, 0, 45, 0
1, 112640, Note_on_c, 0, 62, 0
1, 112640, Note_on_c, 0, 69, 53
1, 112640, Note_on_c, 0, 74, 63
1, 112800, Tempo, 346721
1, 112800, Note_on_c, 0, 62, 73
1, 112800, Note_on_c, 0, 57, 39
1, 112800, Note_on_c, 0, 52, 33
1, 113280, Tempo, 381947
1, 113280, Note_on_c, 0, 52, 0
1, 113280, Note_on_c, 0, 57, 0
1, 113280, Note_on_c, 0, 52, 33
1, 113280, Note_on_c, 0, 57, 39
1, 113520, Note_on_c, 0, 62, 0
1, 113520, Note_on_c, 0, 74, 0
1, 113520, Note_on_c, 0, 61, 61
1, 113520, Note_on_c, 0, 73, 65
1, 113530, Control_c, 0, 64, 0
1, 113760, Tempo, 334765
1, 113760, Note_on_c, 0, 73, 0
1, 113760, Note_on_c, 0, 69, 0
1, 113760, Note_on_c, 0, 57, 0
1, 113760, Note_on_c, 0, 52, 0
1, 113760, Note_on_c, 0, 61, 0
1, 113760, Note_on_c, 0, 68, 59
1, 113760, Note_on_c, 0, 74, 70
1, 113760, Note_on_c, 0, 40, 45
1, 113831, Control_c, 0, 64, 127
1, 113920, Note_on_c, 0, 74, 0
1, 113920, Note_on_c, 0, 68, 0
1, 113920, Note_on_c, 0, 62, 63
1, 114000, Note_on_c, 0, 40, 0
1, 114080, Note_on_c, 0, 62, 0
1, 114080, Note_on_c, 0, 68, 52
1, 114080, Note_on_c, 0, 74, 62
1, 114240, Tempo, 354087
1, 114240, Note_on_c, 0, 62, 72
1, 114240, Note_on_c, 0, 59, 38
1, 114240, Note_on_c, 0, 52, 32
1, 114720, Tempo, 381947
1, 114720, Note_on_c, 0, 52, 0
1, 114720, Note_on_c, 0, 62, 0
1, 114720, Note_on_c, 0, 59, 0
1, 114720, Note_on_c, 0, 74, 0
1, 114720, Note_on_c, 0, 62, 59
1, 114720, Note_on_c, 0, 74, 64
1, 114720, Note_on_c, 0, 52, 31
1, 114720, Note_on_c, 0, 59, 36
1, 115200, Tempo, 348797
1, 115200, Note_on_c, 0, 59, 0
1, 115200, Note_on_c, 0, 74, 0
1, 115200, Note_on_c, 0, 68, 0
1, 115200, Note_on_c, 0, 62, 0
1, 115200, Note_on_c, 0, 52, 0
1, 115200, Note_on_c, 0, 67, 54
1, 115200, Note_on_c, 0, 74, 64
1, 115200, Note_on_c, 0, 45, 42
1, 115211, Control_c, 0, 64, 0
1, 115360, Note_on_c, 0, 74, 0
1, 115360, Note_on_c, 0, 67, 0
1, 115360, Note_on_c, 0, 62, 57
1, 115363, Control_c, 0, 64, 127
1, 115440, Note_on_c, 0, 45, 0
1, 115520, Note_on_c, 0, 62, 0
1, 115520, Note_on_c, 0, 67, 47
1, 115520, Note_on_c, 0, 74, 56
1, 115680, Tempo, 377003
1, 115680, Note_on_c, 0, 62, 65
1, 115680, Note_on_c, 0, 64, 35
1, 115680, Note_on_c, 0, 57, 29
1, 116160, Tempo, 410200
1, 116160, Note_on_c, 0, 57, 0
1, 116160, Note_on_c, 0, 62, 0
1, 116160, Note_on_c, 0, 64, 0
1, 116160, Note_on_c, 0, 61, 53
1, 116160, Note_on_c, 0, 57, 28
1, 116160, Note_on_c, 0, 64, 34
1, 116400, Note_on_c, 0, 74, 0
1, 116400, Note_on_c, 0, 73, 56
1, 116415, Control_c, 0, 64, 0
1, 116640, Key_signature, 2, "major"
1, 116640, Tempo, 340638
1, 116640, Note_on_c, 0, 73, 0
1, 116640, Note_on_c, 0, 64, 0
1, 116640, Note_on_c, 0, 67, 0
1, 116640, Note_on_c, 0, 61, 0
1, 116640, Note_on_c, 0, 57, 0
1, 116640, Note_on_c, 0, 69, 68
1, 116640, Note_on_c, 0, 50, 59
1, 116732, Control_c, 0, 64, 127
1, 116880, Note_on_c, 0, 50, 0
1, 116880, Note_on_c, 0, 69, 0
1, 116880, Note_on_c, 0, 73, 70
1, 117120, Tempo, 309008
1, 117120, Note_on_c, 0, 73, 0
1, 117120, Note_on_c, 0, 74, 71
1, 117120, Note_on_c, 0, 66, 60
1, 117120, Note_on_c, 0, 50, 52
1, 117120, Note_on_c, 0, 57, 52
1, 117120, Note_on_c, 0, 62, 52
1, 117360, Note_on_c, 0, 74, 0
1, 117360, Note_on_c, 0, 76, 71
1, 117600, Tempo, 316573
1, 117600, Note_on_c, 0, 76, 0
1, 117600, Note_on_c, 0, 62, 0
1, 117600, Note_on_c, 0, 66, 0
1, 117600, Note_on_c, 0, 50, 0
1, 117600, Note_on_c, 0, 57, 0
1, 117600, Note_on_c, 0, 78, 72
1, 117600, Note_on_c, 0, 66, 61
1, 117600, Note_on_c, 0, 50, 52
1, 117600, Note_on_c, 0, 57, 52
1, 117600, Note_on_c, 0, 62, 52
1, 117840, Tempo, 349834
1, 117840, Note_on_c, 0, 78, 0
1, 117840, Note_on_c, 0, 79, 73
1, 117960, Note_on_c, 0, 79, 0
1, 117960, Note_on_c, 0, 78, 70
1, 118020, Note_on_c, 0, 78, 0
1, 118020, Note_on_c, 0, 79, 68
1, 118080, Tempo, 310655
1, 118080, Note_on_c, 0, 79, 0
1, 118080, Note_on_c, 0, 62, 0
1, 118080, Note_on_c, 0, 66, 0
1, 118080, Note_on_c, 0, 50, 0
1, 118080, Note_on_c, 0, 57, 0
1, 118080, Note_on_c, 0, 78, 76
1, 118080, Note_on_c, 0, 45, 59
1, 118090, Control_c, 0, 64, 0
1, 118235, Control_c, 0, 64, 127
1, 118320, Note_on_c, 0, 45, 0
1, 118560, Tempo, 304971
1, 118560, Note_on_c, 0, 78, 0
1, 118560, Note_on_c, 0, 67, 62
1, 118560, Note_on_c, 0, 76, 74
1, 118560, Note_on_c, 0, 52, 54
1, 118560, Note_on_c, 0, 57, 54
1, 118560, Note_on_c, 0, 61, 54
1, 118800, Note_on_c, 0, 76, 0
1, 118800, Note_on_c, 0, 74, 74
1, 119040, Note_on_c, 0, 74, 0
1, 119040, Note_on_c, 0, 61, 0
1, 119040, Note_on_c, 0, 67, 0
1, 119040, Note_on_c, 0, 52, 0
1, 119040, Note_on_c, 0, 57, 0
1, 119040, Note_on_c, 0, 67, 62
1, 119040, Note_on_c, 0, 73, 73
1, 119040, Note_on_c, 0, 52, 54
1, 119040, Note_on_c, 0, 57, 54
1, 119040, Note_on_c, 0, 61, 54
1, 119052, Control_c, 0, 64, 0
1, 119280, Note_on_c, 0, 73, 0
1, 119280, Note_on_c, 0, 71, 72
1, 119520, Tempo, 299476
1, 119520, Note_on_c, 0, 71, 0
1, 119520, Note_on_c, 0, 61, 0
1, 119520, Note_on_c, 0, 67, 0
1, 119520, Note_on_c, 0, 52, 0
1, 119520, Note_on_c, 0, 57, 0
1, 119520, Note_on_c, 0, 69, 74
1, 119520, Note_on_c, 0, 38, 59
1, 119612, Control_c, 0, 64, 127
1, 119760, Note_on_c, 0, 38, 0
1, 119760, Note_on_c, 0, 69, 0
1, 119760, Note_on_c, 0, 74, 70
1, 120000, Tempo, 316573
1, 120000, Note_on_c, 0, 74, 0
1, 120000, Note_on_c, 0, 66, 62
1, 120000, Note_on_c, 0, 74, 74
1, 120000, Note_on_c, 0, 50, 54
1, 120000, Note_on_c, 0, 57, 54
1, 120000, Note_on_c, 0, 62, 54
1, 120160, Note_on_c, 0, 74, 0
1, 120160, Note_on_c, 0, 76, 70
1, 120320, Note_on_c, 0, 76, 0
1, 120320, Note_on_c, 0, 74, 70
1, 120480, Tempo, 307377
1, 120480, Note_on_c, 0, 74, 0
1, 120480, Note_on_c, 0, 57, 0
1, 120480, Note_on_c, 0, 66, 0
1, 120480, Note_on_c, 0, 50, 0
1, 120480, Note_on_c, 0, 62, 0
1, 120480, Note_on_c, 0, 66, 59
1, 120480, Note_on_c, 0, 73, 70
1, 120480, Note_on_c, 0, 50, 54
1, 120480, Note_on_c, 0, 57, 54
1, 120480, Note_on_c, 0, 62, 54
1, 120497, Control_c, 0, 64, 0
1, 120720, Note_on_c, 0, 73, 0
1, 120720, Note_on_c, 0, 71, 70
1, 120960, Tempo, 317427
1, 120960, Note_on_c, 0, 71, 0
1, 120960, Note_on_c, 0, 62, 0
1, 120960, Note_on_c, 0, 66, 0
1, 120960, Note_on_c, 0, 50, 0
1, 120960, Note_on_c, 0, 57, 0
1, 120960, Note_on_c, 0, 73, 73
1, 120960, Note_on_c, 0, 45, 59
1, 121186, Control_c, 0, 64, 127
1, 121200, Note_on_c, 0, 45, 0
1, 121440, Tempo, 327243
1, 121440, Note_on_c, 0, 64, 44
1, 121440, Note_on_c, 0, 69, 53
1, 121440, Note_on_c, 0, 57, 43
1, 121920, Tempo, 353024
1, 121920, Note_on_c, 0, 57, 0
1, 121920, Note_on_c, 0, 69, 0
1, 121920, Note_on_c, 0, 64, 0
1, 121920, Note_on_c, 0, 67, 57
1, 121920, Note_on_c, 0, 69, 68
1, 121920, Note_on_c, 0, 57, 56
1, 121920, Note_on_c, 0, 64, 56
1, 122400, Tempo, 302587
1, 122400, Note_on_c, 0, 64, 0
1, 122400, Note_on_c, 0, 69, 0
1, 122400, Note_on_c, 0, 73, 0
1, 122400, Note_on_c, 0, 67, 0
1, 122400, Note_on_c, 0, 57, 0
1, 122400, Note_on_c, 0, 69, 74
1, 122400, Note_on_c, 0, 50, 59
1, 122408, Control_c, 0, 64, 0
1, 122517, Control_c, 0, 64, 127
1, 122640, Note_on_c, 0, 50, 0
1, 122640, Note_on_c, 0, 69, 0
1, 122640, Note_on_c, 0, 73, 70
1, 122880, Tempo, 294927
1, 122880, Note_on_c, 0, 73, 0
1, 122880, Note_on_c, 0, 74, 71
1, 122880, Note_on_c, 0, 66, 60
1, 122880, Note_on_c, 0, 57, 52
1, 122880, Note_on_c, 0, 62, 52
1, 123120, Note_on_c, 0, 74, 0
1, 123120, Note_on_c, 0, 76, 71
1, 123360, Tempo, 304167
1, 123360, Note_on_c, 0, 76, 0
1, 123360, Note_on_c, 0, 62, 0
1, 123360, Note_on_c, 0, 57, 0
1, 123360, Note_on_c, 0, 66, 0
1, 123360, Note_on_c, 0, 78, 72
1, 123360, Note_on_c, 0, 66, 61
1, 123360, Note_on_c, 0, 50, 52
1, 123360, Note_on_c, 0, 57, 52
1, 123360, Note_on_c, 0, 62, 52
1, 123600, Tempo, 336700
1, 123600, Note_on_c, 0, 78, 0
1, 123600, Note_on_c, 0, 79, 73
1, 123720, Note_on_c, 0, 79, 0
1, 123720, Note_on_c, 0, 78, 70
1, 123780, Note_on_c, 0, 78, 0
1, 123780, Note_on_c, 0, 79, 68
1, 123840, Tempo, 306576
1, 123840, Note_on_c, 0, 79, 0
1, 123840, Note_on_c, 0, 62, 0
1, 123840, Note_on_c, 0, 66, 0
1, 123840, Note_on_c, 0, 50, 0
1, 123840, Note_on_c, 0, 57, 0
1, 123840, Note_on_c, 0, 78, 76
1, 123840, Note_on_c, 0, 43, 59
1, 123849, Control_c, 0, 64, 0
1, 124038, Control_c, 0, 64, 127
1, 124080, Note_on_c, 0, 43, 0
1, 124320, Tempo, 296428
1, 124320, Note_on_c, 0, 78, 0
1, 124320, Note_on_c, 0, 67, 62
1, 124320, Note_on_c, 0, 76, 74
1, 124320, Note_on_c, 0, 59, 54
1, 124320, Note_on_c, 0, 64, 54
1, 124560, Note_on_c, 0, 76, 0
1, 124560, Note_on_c, 0, 74, 74
1, 124800, Note_on_c, 0, 74, 0
1, 124800, Note_on_c, 0, 64, 0
1, 124800, Note_on_c, 0, 59, 0
1, 124800, Note_on_c, 0, 67, 0
1, 124800, Note_on_c, 0, 67, 62
1, 124800, Note_on_c, 0, 73, 73
1, 124800, Note_on_c, 0, 52, 54
1, 124800, Note_on_c, 0, 59, 54
1, 124800, Note_on_c, 0, 64, 54
1, 124810, Control_c, 0, 64, 0
1, 125040, Note_on_c, 0, 73, 0
1, 125040, Note_on_c, 0, 71, 72
1, 125280, Tempo, 291971
1, 125280, Note_on_c, 0, 71, 0
1, 125280, Note_on_c, 0, 64, 0
1, 125280, Note_on_c, 0, 67, 0
1, 125280, Note_on_c, 0, 52, 0
1, 125280, Note_on_c, 0, 59, 0
1, 125280, Note_on_c, 0, 69, 74
1, 125280, Note_on_c, 0, 45, 59
1, 125400, Control_c, 0, 64, 127
1, 125520, Note_on_c, 0, 45, 0
1, 125520, Note_on_c, 0, 69, 0
1, 125520, Note_on_c, 0, 73, 70
1, 125760, Tempo, 313169
1, 125760, Note_on_c, 0, 73, 0
1, 125760, Note_on_c, 0, 67, 62
1, 125760, Note_on_c, 0, 73, 74
1, 125760, Note_on_c, 0, 57, 54
1, 125760, Note_on_c, 0, 64, 54
1, 125920, Note_on_c, 0, 73, 0
1, 125920, Note_on_c, 0, 74, 70
1, 126080, Note_on_c, 0, 74, 0
1, 126080, Note_on_c, 0, 73, 70
1, 126240, Tempo, 305764
1, 126240, Note_on_c, 0, 73, 0
1, 126240, Note_on_c, 0, 67, 0
1, 126240, Note_on_c, 0, 57, 0
1, 126240, Note_on_c, 0, 64, 0
1, 126240, Note_on_c, 0, 67, 59
1, 126240, Note_on_c, 0, 71, 70
1, 126240, Note_on_c, 0, 57, 54
1, 126240, Note_on_c, 0, 64, 54
1, 126254, Control_c, 0, 64, 0
1, 126480, Note_on_c, 0, 71, 0
1, 126480, Note_on_c, 0, 69, 70
1, 126720, Tempo, 313169
1, 126720, Note_on_c, 0, 69, 0
1, 126720, Note_on_c, 0, 64, 0
1, 126720, Note_on_c, 0, 57, 0
1, 126720, Note_on_c, 0, 67, 0
1, 126720, Note_on_c, 0, 74, 73
1, 126720, Note_on_c, 0, 38, 59
1, 126960, Note_on_c, 0, 38, 0
1, 126960, Control_c, 0, 64, 127
1, 127200, Tempo, 328156
1, 127200, Note_on_c, 0, 66, 53
1, 127200, Note_on_c, 0, 50, 36
1, 127200, Note_on_c, 0, 57, 36
1, 127200, Note_on_c, 0, 62, 43
1, 127680, Tempo, 358444
1, 127680, Note_on_c, 0, 62, 0
1, 127680, Note_on_c, 0, 50, 0
1, 127680, Note_on_c, 0, 57, 0
1, 127680, Note_on_c, 0, 66, 0
1, 127680, Note_on_c, 0, 66, 47
1, 127680, Note_on_c, 0, 50, 39
1, 127680, Note_on_c, 0, 57, 39
1, 127680, Note_on_c, 0, 62, 39
1, 128160, Tempo, 301084
1, 128160, Note_on_c, 0, 74, 0
1, 128160, Note_on_c, 0, 69, 40
1, 128176, Control_c, 0, 64, 0
1, 128262, Control_c, 0, 64, 127
1, 128400, Note_on_c, 0, 69, 0
1, 128400, Note_on_c, 0, 73, 39
1, 128640, Tempo, 294392
1, 128640, Note_on_c, 0, 73, 0
1, 128640, Note_on_c, 0, 57, 0
1, 128640, Note_on_c, 0, 66, 0
1, 128640, Note_on_c, 0, 50, 0
1, 128640, Note_on_c, 0, 62, 0
1, 128640, Note_on_c, 0, 74, 39
1, 128640, Note_on_c, 0, 66, 33
1, 128640, Note_on_c, 0, 50, 23
1, 128640, Note_on_c, 0, 57, 23
1, 128640, Note_on_c, 0, 62, 23
1, 128880, Note_on_c, 0, 74, 0
1, 128880, Note_on_c, 0, 76, 39
1, 129120, Tempo, 304152
1, 129120, Note_on_c, 0, 76, 0
1, 129120, Note_on_c, 0, 62, 0
1, 129120, Note_on_c, 0, 66, 0
1, 129120, Note_on_c, 0, 50, 0
1, 129120, Note_on_c, 0, 57, 0
1, 129120, Note_on_c, 0, 78, 40
1, 129120, Note_on_c, 0, 66, 33
1, 129120, Note_on_c, 0, 50, 23
1, 129120, Note_on_c, 0, 57, 23
1, 129120, Note_on_c, 0, 62, 23
1, 129360, Tempo, 339635
1, 129360, Note_on_c, 0, 78, 0
1, 129360, Note_on_c, 0, 79, 40
1, 129480, Note_on_c, 0, 79, 0
1, 129480, Note_on_c, 0, 78, 39
1, 129540, Note_on_c, 0, 78, 0
1, 129540, Note_on_c, 0, 79, 37
1, 129600, Tempo, 309598
1, 129600, Note_on_c, 0, 79, 0
1, 129600, Note_on_c, 0, 62, 0
1, 129600, Note_on_c, 0, 66, 0
1, 129600, Note_on_c, 0, 50, 0
1, 129600, Note_on_c, 0, 57, 0
1, 129600, Note_on_c, 0, 78, 42
1, 129600, Note_on_c, 0, 45, 27
1, 129616, Control_c, 0, 64, 0
1, 129812, Control_c, 0, 64, 127
1, 129840, Note_on_c, 0, 45, 0
1, 130080, Tempo, 299925
1, 130080, Note_on_c, 0, 78, 0
1, 130080, Note_on_c, 0, 67, 34
1, 130080, Note_on_c, 0, 76, 40
1, 130080, Note_on_c, 0, 52, 24
1, 130080, Note_on_c, 0, 57, 24
1, 130080, Note_on_c, 0, 61, 24
1, 130320, Note_on_c, 0, 76, 0
1, 130320, Note_on_c, 0, 74, 40
1, 130560, Note_on_c, 0, 74, 0
1, 130560, Note_on_c, 0, 61, 0
1, 130560, Note_on_c, 0, 67, 0
1, 130560, Note_on_c, 0, 52, 0
1, 130560, Note_on_c, 0, 57, 0
1, 130560, Note_on_c, 0, 67, 34
1, 130560, Note_on_c, 0, 73, 40
1, 130560, Note_on_c, 0, 52, 24
1, 130560, Note_on_c, 0, 57, 24
1, 130560, Note_on_c, 0, 61, 24
1, 130576, Control_c, 0, 64, 0
1, 130800, Note_on_c, 0, 73, 0
1, 130800, Note_on_c, 0, 71, 40
1, 131040, Tempo, 294392
1, 131040, Note_on_c, 0, 71, 0
1, 131040, Note_on_c, 0, 61, 0
1, 131040, Note_on_c, 0, 67, 0
1, 131040, Note_on_c, 0, 52, 0
1, 131040, Note_on_c, 0, 57, 0
1, 131040, Note_on_c, 0, 69, 40
1, 131040, Note_on_c, 0, 38, 27
1, 131146, Control_c, 0, 64, 127
1, 131280, Note_on_c, 0, 38, 0
1, 131280, Note_on_c, 0, 69, 0
1, 131280, Note_on_c, 0, 74, 39
1, 131520, Tempo, 317108
1, 131520, Note_on_c, 0, 74, 0
1, 131520, Note_on_c, 0, 66, 34
1, 131520, Note_on_c, 0, 74, 40
1, 131520, Note_on_c, 0, 50, 24
1, 131520, Note_on_c, 0, 57, 24
1, 131520, Note_on_c, 0, 62, 24
1, 131680, Note_on_c, 0, 74, 0
1, 131680, Note_on_c, 0, 76, 39
1, 131840, Note_on_c, 0, 76, 0
1, 131840, Note_on_c, 0, 74, 39
1, 132000, Tempo, 310495
1, 132000, Note_on_c, 0, 74, 0
1, 132000, Note_on_c, 0, 57, 0
1, 132000, Note_on_c, 0, 66, 0
1, 132000, Note_on_c, 0, 50, 0
1, 132000, Note_on_c, 0, 62, 0
1, 132000, Note_on_c, 0, 66, 32
1, 132000, Note_on_c, 0, 73, 39
1, 132000, Note_on_c, 0, 50, 24
1, 132000, Note_on_c, 0, 57, 24
1, 132000, Note_on_c, 0, 62, 24
1, 132018, Control_c, 0, 64, 0
1, 132240, Note_on_c, 0, 73, 0
1, 132240, Note_on_c, 0, 71, 39
1, 132480, Tempo, 326318
1, 132480, Note_on_c, 0, 71, 0
1, 132480, Note_on_c, 0, 62, 0
1, 132480, Note_on_c, 0, 66, 0
1, 132480, Note_on_c, 0, 50, 0
1, 132480, Note_on_c, 0, 57, 0
1, 132480, Note_on_c, 0, 73, 40
1, 132480, Note_on_c, 0, 45, 27
1, 132649, Control_c, 0, 64, 127
1, 132720, Note_on_c, 0, 45, 0
1, 132960, Tempo, 331895
1, 132960, Note_on_c, 0, 64, 24
1, 132960, Note_on_c, 0, 69, 29
1, 132960, Note_on_c, 0, 61, 20
1, 132960, Note_on_c, 0, 57, 20
1, 133440, Tempo, 359561
1, 133440, Note_on_c, 0, 57, 0
1, 133440, Note_on_c, 0, 69, 0
1, 133440, Note_on_c, 0, 61, 0
1, 133440, Note_on_c, 0, 64, 0
1, 133440, Note_on_c, 0, 67, 31
1, 133440, Note_on_c, 0, 69, 37
1, 133440, Note_on_c, 0, 57, 26
1, 133440, Note_on_c, 0, 64, 26
1, 133920, Tempo, 301084
1, 133920, Note_on_c, 0, 64, 0
1, 133920, Note_on_c, 0, 73, 0
1, 133920, Note_on_c, 0, 69, 0
1, 133920, Note_on_c, 0, 67, 0
1, 133920, Note_on_c, 0, 69, 40
1, 133920, Note_on_c, 0, 50, 27
1, 133928, Control_c, 0, 64, 0
1, 134019, Control_c, 0, 64, 127
1, 134160, Note_on_c, 0, 69, 0
1, 134160, Note_on_c, 0, 73, 39
1, 134400, Tempo, 294392
1, 134400, Note_on_c, 0, 73, 0
1, 134400, Note_on_c, 0, 50, 0
1, 134400, Note_on_c, 0, 57, 0
1, 134400, Note_on_c, 0, 74, 39
1, 134400, Note_on_c, 0, 66, 33
1, 134400, Note_on_c, 0, 57, 23
1, 134400, Note_on_c, 0, 62, 23
1, 134640, Note_on_c, 0, 74, 0
1, 134640, Note_on_c, 0, 76, 39
1, 134880, Tempo, 304152
1, 134880, Note_on_c, 0, 76, 0
1, 134880, Note_on_c, 0, 62, 0
1, 134880, Note_on_c, 0, 57, 0
1, 134880, Note_on_c, 0, 66, 0
1, 134880, Note_on_c, 0, 78, 40
1, 134880, Note_on_c, 0, 66, 33
1, 134880, Note_on_c, 0, 50, 23
1, 134880, Note_on_c, 0, 57, 23
1, 134880, Note_on_c, 0, 62, 23
1, 135120, Tempo, 345682
1, 135120, Note_on_c, 0, 78, 0
1, 135120, Note_on_c, 0, 79, 40
1, 135240, Note_on_c, 0, 79, 0
1, 135240, Note_on_c, 0, 78, 39
1, 135300, Note_on_c, 0, 78, 0
1, 135300, Note_on_c, 0, 79, 37
1, 135360, Tempo, 309598
1, 135360, Note_on_c, 0, 79, 0
1, 135360, Note_on_c, 0, 62, 0
1, 135360, Note_on_c, 0, 66, 0
1, 135360, Note_on_c, 0, 50, 0
1, 135360, Note_on_c, 0, 57, 0
1, 135360, Note_on_c, 0, 78, 42
1, 135360, Note_on_c, 0, 43, 27
1, 135370, Control_c, 0, 64, 0
1, 135515, Control_c, 0, 64, 127
1, 135600, Note_on_c, 0, 43, 0
1, 135840, Tempo, 299925
1, 135840, Note_on_c, 0, 78, 0
1, 135840, Note_on_c, 0, 67, 34
1, 135840, Note_on_c, 0, 76, 40
1, 135840, Note_on_c, 0, 59, 24
1, 135840, Note_on_c, 0, 64, 24
1, 136080, Note_on_c, 0, 76, 0
1, 136080, Note_on_c, 0, 74, 40
1, 136320, Note_on_c, 0, 74, 0
1, 136320, Note_on_c, 0, 64, 0
1, 136320, Note_on_c, 0, 59, 0
1, 136320, Note_on_c, 0, 67, 0
1, 136320, Note_on_c, 0, 67, 34
1, 136320, Note_on_c, 0, 73, 40
1, 136320, Note_on_c, 0, 52, 24
1, 136320, Note_on_c, 0, 59, 24
1, 136320, Note_on_c, 0, 64, 24
1, 136335, Control_c, 0, 64, 0
1, 136560, Note_on_c, 0, 73, 0
1, 136560, Note_on_c, 0, 71, 40
1, 136800, Tempo, 294392
1, 136800, Note_on_c, 0, 71, 0
1, 136800, Note_on_c, 0, 64, 0
1, 136800, Note_on_c, 0, 67, 0
1, 136800, Note_on_c, 0, 52, 0
1, 136800, Note_on_c, 0, 59, 0
1, 136800, Note_on_c, 0, 69, 40
1, 136800, Note_on_c, 0, 45, 27
1, 136934, Control_c, 0, 64, 127
1, 137040, Note_on_c, 0, 45, 0
1, 137040, Note_on_c, 0, 69, 0
1, 137040, Note_on_c, 0, 73, 39
1, 137280, Tempo, 317108
1, 137280, Note_on_c, 0, 73, 0
1, 137280, Note_on_c, 0, 67, 34
1, 137280, Note_on_c, 0, 73, 40
1, 137280, Note_on_c, 0, 57, 24
1, 137280, Note_on_c, 0, 64, 24
1, 137440, Note_on_c, 0, 73, 0
1, 137440, Note_on_c, 0, 74, 39
1, 137600, Note_on_c, 0, 74, 0
1, 137600, Note_on_c, 0, 73, 39
1, 137760, Tempo, 310495
1, 137760, Note_on_c, 0, 73, 0
1, 137760, Note_on_c, 0, 67, 0
1, 137760, Note_on_c, 0, 57, 0
1, 137760, Note_on_c, 0, 64, 0
1, 137760, Note_on_c, 0, 67, 32
1, 137760, Note_on_c, 0, 71, 39
1, 137760, Note_on_c, 0, 57, 24
1, 137760, Note_on_c, 0, 64, 24
1, 137775, Control_c, 0, 64, 0
1, 138000, Note_on_c, 0, 71, 0
1, 138000, Note_on_c, 0, 69, 39
1, 138240, Tempo, 320496
1, 138240, Note_on_c, 0, 69, 0
1, 138240, Note_on_c, 0, 64, 0
1, 138240, Note_on_c, 0, 57, 0
1, 138240, Note_on_c, 0, 67, 0
1, 138240, Note_on_c, 0, 74, 40
1, 138240, Note_on_c, 0, 38, 27
1, 138409, Control_c, 0, 64, 127
1, 138480, Note_on_c, 0, 38, 0
1, 138720, Tempo, 324886
1, 138720, Note_on_c, 0, 66, 29
1, 138720, Note_on_c, 0, 50, 17
1, 138720, Note_on_c, 0, 57, 17
1, 138720, Note_on_c, 0, 62, 20
1, 139200, Tempo, 346721
1, 139200, Note_on_c, 0, 62, 0
1, 139200, Note_on_c, 0, 50, 0
1, 139200, Note_on_c, 0, 57, 0
1, 139200, Note_on_c, 0, 66, 0
1, 139200, Note_on_c, 0, 66, 37
1, 139200, Note_on_c, 0, 50, 26
1, 139200, Note_on_c, 0, 57, 26
1, 139200, Note_on_c, 0, 62, 26
1, 139680, Tempo, 294190
1, 139680, Note_on_c, 0, 62, 0
1, 139680, Note_on_c, 0, 50, 0
1, 139680, Note_on_c, 0, 74, 0
1, 139680, Note_on_c, 0, 66, 0
1, 139680, Note_on_c, 0, 57, 0
1, 139680, Note_on_c, 0, 64, 73
1, 139680, Note_on_c, 0, 45, 59
1, 139693, Control_c, 0, 64, 0
1, 139761, Control_c, 0, 64, 127
1, 139920, Note_on_c, 0, 45, 0
1, 139920, Note_on_c, 0, 64, 0
1, 139920, Note_on_c, 0, 68, 70
1, 140160, Tempo, 287646
1, 140160, Note_on_c, 0, 68, 0
1, 140160, Note_on_c, 0, 69, 71
1, 140160, Note_on_c, 0, 61, 60
1, 140160, Note_on_c, 0, 45, 52
1, 140160, Note_on_c, 0, 52, 52
1, 140160, Note_on_c, 0, 57, 52
1, 140400, Note_on_c, 0, 69, 0
1, 140400, Note_on_c, 0, 71, 71
1, 140640, Tempo, 297192
1, 140640, Note_on_c, 0, 71, 0
1, 140640, Note_on_c, 0, 57, 0
1, 140640, Note_on_c, 0, 61, 0
1, 140640, Note_on_c, 0, 45, 0
1, 140640, Note_on_c, 0, 52, 0
1, 140640, Note_on_c, 0, 73, 72
1, 140640, Note_on_c, 0, 61, 61
1, 140640, Note_on_c, 0, 45, 52
1, 140640, Note_on_c, 0, 52, 52
1, 140640, Note_on_c, 0, 57, 52
1, 140880, Tempo, 330015
1, 140880, Note_on_c, 0, 73, 0
1, 140880, Note_on_c, 0, 74, 73
1, 141000, Note_on_c, 0, 74, 0
1, 141000, Note_on_c, 0, 73, 70
1, 141060, Note_on_c, 0, 73, 0
1, 141060, Note_on_c, 0, 74, 68
1, 141120, Tempo, 302496
1, 141120, Note_on_c, 0, 74, 0
1, 141120, Note_on_c, 0, 57, 0
1, 141120, Note_on_c, 0, 61, 0
1, 141120, Note_on_c, 0, 45, 0
1, 141120, Note_on_c, 0, 52, 0
1, 141120, Note_on_c, 0, 73, 76
1, 141120, Note_on_c, 0, 40, 59
1, 141134, Control_c, 0, 64, 0
1, 141275, Control_c, 0, 64, 127
1, 141360, Note_on_c, 0, 40, 0
1, 141600, Tempo, 293040
1, 141600, Note_on_c, 0, 73, 0
1, 141600, Note_on_c, 0, 62, 62
1, 141600, Note_on_c, 0, 71, 74
1, 141600, Note_on_c, 0, 52, 54
1, 141600, Note_on_c, 0, 59, 54
1, 141840, Note_on_c, 0, 71, 0
1, 141840, Note_on_c, 0, 69, 74
1, 142080, Note_on_c, 0, 69, 0
1, 142080, Note_on_c, 0, 59, 0
1, 142080, Note_on_c, 0, 52, 0
1, 142080, Note_on_c, 0, 62, 0
1, 142080, Note_on_c, 0, 62, 62
1, 142080, Note_on_c, 0, 68, 73
1, 142080, Note_on_c, 0, 52, 54
1, 142080, Note_on_c, 0, 59, 54
1, 142099, Control_c, 0, 64, 0
1, 142320, Note_on_c, 0, 68, 0
1, 142320, Note_on_c, 0, 66, 72
1, 142560, Tempo, 287646
1, 142560, Note_on_c, 0, 66, 0
1, 142560, Note_on_c, 0, 59, 0
1, 142560, Note_on_c, 0, 52, 0
1, 142560, Note_on_c, 0, 62, 0
1, 142560, Note_on_c, 0, 64, 74
1, 142560, Note_on_c, 0, 33, 59
1, 142694, Control_c, 0, 64, 127
1, 142800, Note_on_c, 0, 33, 0
1, 142800, Note_on_c, 0, 64, 0
1, 142800, Note_on_c, 0, 69, 70
1, 143040, Tempo, 309837
1, 143040, Note_on_c, 0, 69, 0
1, 143040, Note_on_c, 0, 61, 62
1, 143040, Note_on_c, 0, 69, 74
1, 143040, Note_on_c, 0, 45, 54
1, 143040, Note_on_c, 0, 52, 54
1, 143040, Note_on_c, 0, 57, 54
1, 143200, Note_on_c, 0, 69, 0
1, 143200, Note_on_c, 0, 71, 70
1, 143360, Note_on_c, 0, 71, 0
1, 143360, Note_on_c, 0, 69, 70
1, 143520, Tempo, 303383
1, 143520, Note_on_c, 0, 69, 0
1, 143520, Note_on_c, 0, 52, 0
1, 143520, Note_on_c, 0, 61, 0
1, 143520, Note_on_c, 0, 45, 0
1, 143520, Note_on_c, 0, 57, 0
1, 143520, Note_on_c, 0, 61, 59
1, 143520, Note_on_c, 0, 68, 70
1, 143520, Note_on_c, 0, 45, 54
1, 143520, Note_on_c, 0, 52, 54
1, 143520, Note_on_c, 0, 57, 54
1, 143535, Control_c, 0, 64, 0
1, 143760, Note_on_c, 0, 68, 0
1, 143760, Note_on_c, 0, 66, 70
1, 144000, Tempo, 313169
1, 144000, Note_on_c, 0, 66, 0
1, 144000, Note_on_c, 0, 57, 0
1, 144000, Note_on_c, 0, 61, 0
1, 144000, Note_on_c, 0, 45, 0
1, 144000, Note_on_c, 0, 52, 0
1, 144000, Note_on_c, 0, 68, 73
1, 144000, Note_on_c, 0, 40, 59
1, 144213, Control_c, 0, 64, 127
1, 144240, Note_on_c, 0, 40, 0
1, 144480, Tempo, 325415
1, 144480, Note_on_c, 0, 59, 44
1, 144480, Note_on_c, 0, 64, 53
1, 144480, Note_on_c, 0, 52, 43
1, 144960, Tempo, 350898
1, 144960, Note_on_c, 0, 52, 0
1, 144960, Note_on_c, 0, 64, 0
1, 144960, Note_on_c, 0, 59, 0
1, 144960, Note_on_c, 0, 62, 57
1, 144960, Note_on_c, 0, 64, 68
1, 144960, Note_on_c, 0, 52, 56
1, 144960, Note_on_c, 0, 59, 56
1, 145440, Tempo, 294190
1, 145440, Note_on_c, 0, 59, 0
1, 145440, Note_on_c, 0, 64, 0
1, 145440, Note_on_c, 0, 68, 0
1, 145440, Note_on_c, 0, 62, 0
1, 145440, Note_on_c, 0, 52, 0
1, 145440, Note_on_c, 0, 64, 74
1, 145440, Note_on_c, 0, 45, 59
1, 145453, Control_c, 0, 64, 0
1, 145536, Control_c, 0, 64, 127
1, 145680, Note_on_c, 0, 45, 0
1, 145680, Note_on_c, 0, 64, 0
1, 145680, Note_on_c, 0, 68, 70
1, 145920, Tempo, 287646
1, 145920, Note_on_c, 0, 68, 0
1, 145920, Note_on_c, 0, 69, 71
1, 145920, Note_on_c, 0, 61, 60
1, 145920, Note_on_c, 0, 52, 52
1, 145920, Note_on_c, 0, 57, 52
1, 146160, Note_on_c, 0, 69, 0
1, 146160, Note_on_c, 0, 71, 71
1, 146400, Tempo, 297192
1, 146400, Note_on_c, 0, 71, 0
1, 146400, Note_on_c, 0, 57, 0
1, 146400, Note_on_c, 0, 52, 0
1, 146400, Note_on_c, 0, 61, 0
1, 146400, Note_on_c, 0, 73, 72
1, 146400, Note_on_c, 0, 61, 61
1, 146400, Note_on_c, 0, 45, 52
1, 146400, Note_on_c, 0, 52, 52
1, 146400, Note_on_c, 0, 57, 52
1, 146640, Tempo, 327243
1, 146640, Note_on_c, 0, 73, 0
1, 146640, Note_on_c, 0, 74, 73
1, 146760, Note_on_c, 0, 74, 0
1, 146760, Note_on_c, 0, 73, 70
1, 146820, Note_on_c, 0, 73, 0
1, 146820, Note_on_c, 0, 74, 68
1, 146880, Tempo, 302496
1, 146880, Note_on_c, 0, 74, 0
1, 146880, Note_on_c, 0, 57, 0
1, 146880, Note_on_c, 0, 61, 0
1, 146880, Note_on_c, 0, 45, 0
1, 146880, Note_on_c, 0, 52, 0
1, 146880, Note_on_c, 0, 73, 76
1, 146880, Note_on_c, 0, 38, 59
1, 146891, Control_c, 0, 64, 0
1, 147086, Control_c, 0, 64, 127
1, 147120, Note_on_c, 0, 38, 0
1, 147360, Tempo, 293040
1, 147360, Note_on_c, 0, 73, 0
1, 147360, Note_on_c, 0, 62, 62
1, 147360, Note_on_c, 0, 71, 74
1, 147360, Note_on_c, 0, 54, 54
1, 147360, Note_on_c, 0, 59, 54
1, 147600, Note_on_c, 0, 71, 0
1, 147600, Note_on_c, 0, 69, 74
1, 147840, Note_on_c, 0, 69, 0
1, 147840, Note_on_c, 0, 59, 0
1, 147840, Note_on_c, 0, 54, 0
1, 147840, Note_on_c, 0, 62, 0
1, 147840, Note_on_c, 0, 62, 62
1, 147840, Note_on_c, 0, 68, 73
1, 147840, Note_on_c, 0, 47, 54
1, 147840, Note_on_c, 0, 54, 54
1, 147840, Note_on_c, 0, 59, 54
1, 147855, Control_c, 0, 64, 0
1, 148080, Note_on_c, 0, 68, 0
1, 148080, Note_on_c, 0, 66, 72
1, 148320, Tempo, 287646
1, 148320, Note_on_c, 0, 66, 0
1, 148320, Note_on_c, 0, 59, 0
1, 148320, Note_on_c, 0, 62, 0
1, 148320, Note_on_c, 0, 47, 0
1, 148320, Note_on_c, 0, 54, 0
1, 148320, Note_on_c, 0, 64, 74
1, 148320, Note_on_c, 0, 40, 59
1, 148440, Control_c, 0, 64, 127
1, 148560, Note_on_c, 0, 40, 0
1, 148560, Note_on_c, 0, 64, 0
1, 148560, Note_on_c, 0, 68, 70
1, 148800, Tempo, 309837
1, 148800, Note_on_c, 0, 68, 0
1, 148800, Note_on_c, 0, 62, 62
1, 148800, Note_on_c, 0, 68, 74
1, 148800, Note_on_c, 0, 52, 54
1, 148800, Note_on_c, 0, 59, 54
1, 148960, Note_on_c, 0, 68, 0
1, 148960, Note_on_c, 0, 69, 70
1, 149120, Note_on_c, 0, 69, 0
1, 149120, Note_on_c, 0, 68, 70
1, 149280, Tempo, 303383
1, 149280, Note_on_c, 0, 68, 0
1, 149280, Note_on_c, 0, 62, 0
1, 149280, Note_on_c, 0, 52, 0
1, 149280, Note_on_c, 0, 59, 0
1, 149280, Note_on_c, 0, 62, 59
1, 149280, Note_on_c, 0, 66, 70
1, 149280, Note_on_c, 0, 52, 54
1, 149280, Note_on_c, 0, 59, 54
1, 149294, Control_c, 0, 64, 0
1, 149520, Note_on_c, 0, 66, 0
1, 149520, Note_on_c, 0, 64, 70
1, 149760, Tempo, 318302
1, 149760, Note_on_c, 0, 64, 0
1, 149760, Note_on_c, 0, 59, 0
1, 149760, Note_on_c, 0, 52, 0
1, 149760, Note_on_c, 0, 62, 0
1, 149760, Note_on_c, 0, 69, 73
1, 149760, Note_on_c, 0, 33, 59
1, 149972, Control_c, 0, 64, 127
1, 150000, Note_on_c, 0, 33, 0
1, 150240, Tempo, 325415
1, 150240, Note_on_c, 0, 61, 53
1, 150240, Note_on_c, 0, 45, 36
1, 150240, Note_on_c, 0, 52, 36
1, 150240, Note_on_c, 0, 57, 43
1, 150720, Tempo, 346721
1, 150720, Note_on_c, 0, 57, 0
1, 150720, Note_on_c, 0, 45, 0
1, 150720, Note_on_c, 0, 52, 0
1, 150720, Note_on_c, 0, 61, 0
1, 150720, Note_on_c, 0, 61, 47
1, 150720, Note_on_c, 0, 45, 39
1, 150720, Note_on_c, 0, 52, 39
1, 150720, Note_on_c, 0, 57, 39
1, 151200, Tempo, 301598
1, 151200, Note_on_c, 0, 69, 0
1, 151200, Note_on_c, 0, 64, 40
1, 151216, Control_c, 0, 64, 0
1, 151302, Control_c, 0, 64, 127
1, 151440, Note_on_c, 0, 64, 0
1, 151440, Note_on_c, 0, 68, 39
1, 151680, Tempo, 294898
1, 151680, Note_on_c, 0, 68, 0
1, 151680, Note_on_c, 0, 52, 0
1, 151680, Note_on_c, 0, 61, 0
1, 151680, Note_on_c, 0, 45, 0
1, 151680, Note_on_c, 0, 57, 0
1, 151680, Note_on_c, 0, 69, 39
1, 151680, Note_on_c, 0, 61, 33
1, 151680, Note_on_c, 0, 45, 23
1, 151680, Note_on_c, 0, 52, 23
1, 151680, Note_on_c, 0, 57, 23
1, 151920, Note_on_c, 0, 69, 0
1, 151920, Note_on_c, 0, 71, 39
1, 152160, Tempo, 304677
1, 152160, Note_on_c, 0, 71, 0
1, 152160, Note_on_c, 0, 57, 0
1, 152160, Note_on_c, 0, 61, 0
1, 152160, Note_on_c, 0, 45, 0
1, 152160, Note_on_c, 0, 52, 0
1, 152160, Note_on_c, 0, 73, 40
1, 152160, Note_on_c, 0, 61, 33
1, 152160, Note_on_c, 0, 45, 23
1, 152160, Note_on_c, 0, 52, 23
1, 152160, Note_on_c, 0, 57, 23
1, 152400, Tempo, 334765
1, 152400, Note_on_c, 0, 73, 0
1, 152400, Note_on_c, 0, 74, 40
1, 152520, Note_on_c, 0, 74, 0
1, 152520, Note_on_c, 0, 73, 39
1, 152580, Note_on_c, 0, 73, 0
1, 152580, Note_on_c, 0, 74, 37
1, 152640, Tempo, 310110
1, 152640, Note_on_c, 0, 74, 0
1, 152640, Note_on_c, 0, 57, 0
1, 152640, Note_on_c, 0, 61, 0
1, 152640, Note_on_c, 0, 45, 0
1, 152640, Note_on_c, 0, 52, 0
1, 152640, Note_on_c, 0, 73, 42
1, 152640, Note_on_c, 0, 40, 27
1, 152650, Control_c, 0, 64, 0
1, 152795, Control_c, 0, 64, 127
1, 152880, Note_on_c, 0, 40, 0
1, 153120, Tempo, 300436
1, 153120, Note_on_c, 0, 73, 0
1, 153120, Note_on_c, 0, 62, 34
1, 153120, Note_on_c, 0, 71, 40
1, 153120, Note_on_c, 0, 52, 24
1, 153120, Note_on_c, 0, 59, 24
1, 153360, Note_on_c, 0, 71, 0
1, 153360, Note_on_c, 0, 69, 40
1, 153600, Note_on_c, 0, 69, 0
1, 153600, Note_on_c, 0, 59, 0
1, 153600, Note_on_c, 0, 52, 0
1, 153600, Note_on_c, 0, 62, 0
1, 153600, Note_on_c, 0, 62, 34
1, 153600, Note_on_c, 0, 68, 40
1, 153600, Note_on_c, 0, 52, 24
1, 153600, Note_on_c, 0, 59, 24
1, 153617, Control_c, 0, 64, 0
1, 153840, Note_on_c, 0, 68, 0
1, 153840, Note_on_c, 0, 66, 40
1, 154080, Tempo, 294898
1, 154080, Note_on_c, 0, 66, 0
1, 154080, Note_on_c, 0, 59, 0
1, 154080, Note_on_c, 0, 52, 0
1, 154080, Note_on_c, 0, 62, 0
1, 154080, Note_on_c, 0, 64, 40
1, 154080, Note_on_c, 0, 33, 27
1, 154236, Control_c, 0, 64, 127
1, 154320, Note_on_c, 0, 33, 0
1, 154320, Note_on_c, 0, 64, 0
1, 154320, Note_on_c, 0, 69, 39
1, 154560, Tempo, 317645
1, 154560, Note_on_c, 0, 69, 0
1, 154560, Note_on_c, 0, 61, 34
1, 154560, Note_on_c, 0, 69, 40
1, 154560, Note_on_c, 0, 45, 24
1, 154560, Note_on_c, 0, 52, 24
1, 154560, Note_on_c, 0, 57, 24
1, 154720, Note_on_c, 0, 69, 0
1, 154720, Note_on_c, 0, 71, 39
1, 154880, Note_on_c, 0, 71, 0
1, 154880, Note_on_c, 0, 69, 39
1, 155040, Tempo, 311026
1, 155040, Note_on_c, 0, 69, 0
1, 155040, Note_on_c, 0, 52, 0
1, 155040, Note_on_c, 0, 61, 0
1, 155040, Note_on_c, 0, 45, 0
1, 155040, Note_on_c, 0, 57, 0
1, 155040, Note_on_c, 0, 61, 32
1, 155040, Note_on_c, 0, 68, 39
1, 155040, Note_on_c, 0, 45, 24
1, 155040, Note_on_c, 0, 52, 24
1, 155040, Note_on_c, 0, 57, 24
1, 155056, Control_c, 0, 64, 0
1, 155280, Note_on_c, 0, 68, 0
1, 155280, Note_on_c, 0, 66, 39
1, 155520, Tempo, 321044
1, 155520, Note_on_c, 0, 66, 0
1, 155520, Note_on_c, 0, 57, 0
1, 155520, Note_on_c, 0, 61, 0
1, 155520, Note_on_c, 0, 45, 0
1, 155520, Note_on_c, 0, 52, 0
1, 155520, Note_on_c, 0, 68, 40
1, 155520, Note_on_c, 0, 40, 27
1, 155740, Control_c, 0, 64, 127
1, 155760, Note_on_c, 0, 40, 0
1, 156000, Tempo, 337667
1, 156000, Note_on_c, 0, 59, 24
1, 156000, Note_on_c, 0, 64, 29
1, 156000, Note_on_c, 0, 52, 20
1, 156480, Tempo, 350898
1, 156480, Note_on_c, 0, 52, 0
1, 156480, Note_on_c, 0, 64, 0
1, 156480, Note_on_c, 0, 59, 0
1, 156480, Note_on_c, 0, 62, 31
1, 156480, Note_on_c, 0, 64, 37
1, 156480, Note_on_c, 0, 52, 26
1, 156480, Note_on_c, 0, 59, 26
1, 156960, Tempo, 308198
1, 156960, Note_on_c, 0, 59, 0
1, 156960, Note_on_c, 0, 68, 0
1, 156960, Note_on_c, 0, 64, 0
1, 156960, Note_on_c, 0, 62, 0
1, 156960, Note_on_c, 0, 64, 40
1, 156960, Note_on_c, 0, 45, 27
1, 156967, Control_c, 0, 64, 0
1, 157038, Control_c, 0, 64, 127
1, 157200, Note_on_c, 0, 64, 0
1, 157200, Note_on_c, 0, 68, 39
1, 157440, Tempo, 299476
1, 157440, Note_on_c, 0, 68, 0
1, 157440, Note_on_c, 0, 45, 0
1, 157440, Note_on_c, 0, 52, 0
1, 157440, Note_on_c, 0, 69, 39
1, 157440, Note_on_c, 0, 61, 33
1, 157440, Note_on_c, 0, 52, 23
1, 157440, Note_on_c, 0, 57, 23
1, 157680, Note_on_c, 0, 69, 0
1, 157680, Note_on_c, 0, 71, 39
1, 157920, Tempo, 309837
1, 157920, Note_on_c, 0, 71, 0
1, 157920, Note_on_c, 0, 57, 0
1, 157920, Note_on_c, 0, 52, 0
1, 157920, Note_on_c, 0, 61, 0
1, 157920, Note_on_c, 0, 73, 40
1, 157920, Note_on_c, 0, 61, 33
1, 157920, Note_on_c, 0, 45, 23
1, 157920, Note_on_c, 0, 52, 23
1, 157920, Note_on_c, 0, 57, 23
1, 158160, Tempo, 332853
1, 158160, Note_on_c, 0, 73, 0
1, 158160, Note_on_c, 0, 74, 40
1, 158280, Note_on_c, 0, 74, 0
1, 158280, Note_on_c, 0, 73, 39
1, 158340, Note_on_c, 0, 73, 0
1, 158340, Note_on_c, 0, 74, 37
1, 158400, Tempo, 314005
1, 158400, Note_on_c, 0, 74, 0
1, 158400, Note_on_c, 0, 57, 0
1, 158400, Note_on_c, 0, 61, 0
1, 158400, Note_on_c, 0, 45, 0
1, 158400, Note_on_c, 0, 52, 0
1, 158400, Note_on_c, 0, 73, 42
1, 158400, Note_on_c, 0, 38, 27
1, 158408, Control_c, 0, 64, 0
1, 158555, Control_c, 0, 64, 127
1, 158640, Note_on_c, 0, 38, 0
1, 158880, Tempo, 305764
1, 158880, Note_on_c, 0, 73, 0
1, 158880, Note_on_c, 0, 62, 34
1, 158880, Note_on_c, 0, 71, 40
1, 158880, Note_on_c, 0, 54, 24
1, 158880, Note_on_c, 0, 59, 24
1, 159120, Note_on_c, 0, 71, 0
1, 159120, Note_on_c, 0, 69, 40
1, 159360, Note_on_c, 0, 69, 0
1, 159360, Note_on_c, 0, 59, 0
1, 159360, Note_on_c, 0, 54, 0
1, 159360, Note_on_c, 0, 62, 0
1, 159360, Note_on_c, 0, 62, 34
1, 159360, Note_on_c, 0, 68, 40
1, 159360, Note_on_c, 0, 47, 24
1, 159360, Note_on_c, 0, 54, 24
1, 159360, Note_on_c, 0, 59, 24
1, 159369, Control_c, 0, 64, 0
1, 159600, Note_on_c, 0, 68, 0
1, 159600, Note_on_c, 0, 66, 40
1, 159840, Tempo, 300255
1, 159840, Note_on_c, 0, 66, 0
1, 159840, Note_on_c, 0, 59, 0
1, 159840, Note_on_c, 0, 62, 0
1, 159840, Note_on_c, 0, 47, 0
1, 159840, Note_on_c, 0, 54, 0
1, 159840, Note_on_c, 0, 64, 40
1, 159840, Note_on_c, 0, 40, 27
1, 159953, Control_c, 0, 64, 127
1, 160080, Note_on_c, 0, 40, 0
1, 160080, Note_on_c, 0, 64, 0
1, 160080, Note_on_c, 0, 68, 39
1, 160320, Tempo, 327243
1, 160320, Note_on_c, 0, 68, 0
1, 160320, Note_on_c, 0, 62, 34
1, 160320, Note_on_c, 0, 68, 40
1, 160320, Note_on_c, 0, 52, 24
1, 160320, Note_on_c, 0, 59, 24
1, 160480, Note_on_c, 0, 68, 0
1, 160480, Note_on_c, 0, 69, 39
1, 160640, Note_on_c, 0, 69, 0
1, 160640, Note_on_c, 0, 68, 39
1, 160800, Tempo, 316573
1, 160800, Note_on_c, 0, 68, 0
1, 160800, Note_on_c, 0, 62, 0
1, 160800, Note_on_c, 0, 52, 0
1, 160800, Note_on_c, 0, 59, 0
1, 160800, Note_on_c, 0, 62, 32
1, 160800, Note_on_c, 0, 66, 39
1, 160800, Note_on_c, 0, 52, 24
1, 160800, Note_on_c, 0, 59, 24
1, 160819, Control_c, 0, 64, 0
1, 161040, Note_on_c, 0, 66, 0
1, 161040, Note_on_c, 0, 64, 39
1, 161280, Tempo, 327243
1, 161280, Note_on_c, 0, 64, 0
1, 161280, Note_on_c, 0, 59, 0
1, 161280, Note_on_c, 0, 52, 0
1, 161280, Note_on_c, 0, 62, 0
1, 161280, Note_on_c, 0, 69, 40
1, 161280, Note_on_c, 0, 33, 27
1, 161449, Control_c, 0, 64, 127
1, 161520, Note_on_c, 0, 33, 0
1, 161760, Tempo, 347745
1, 161760, Note_on_c, 0, 61, 37
1, 161760, Note_on_c, 0, 57, 21
1, 161760, Note_on_c, 0, 64, 25
1, 162240, Note_on_c, 0, 64, 0
1, 162240, Note_on_c, 0, 57, 0
1, 162240, Note_on_c, 0, 61, 0
1, 162240, Note_on_c, 0, 67, 73
1, 162240, Note_on_c, 0, 61, 73
1, 162240, Note_on_c, 0, 57, 60
1, 162240, Note_on_c, 0, 64, 60
1, 162720, Tempo, 294190
1, 162720, Note_on_c, 0, 64, 0
1, 162720, Note_on_c, 0, 61, 0
1, 162720, Note_on_c, 0, 57, 0
1, 162720, Note_on_c, 0, 67, 0
1, 162720, Note_on_c, 0, 66, 78
1, 162720, Note_on_c, 0, 50, 67
1, 162731, Control_c, 0, 64, 0
1, 162798, Control_c, 0, 64, 127
1, 162960, Note_on_c, 0, 50, 0
1, 162960, Note_on_c, 0, 69, 0
1, 162960, Note_on_c, 0, 73, 80
1, 163200, Tempo, 287646
1, 163200, Note_on_c, 0, 73, 0
1, 163200, Note_on_c, 0, 66, 0
1, 163200, Note_on_c, 0, 74, 81
1, 163200, Note_on_c, 0, 66, 69
1, 163200, Note_on_c, 0, 50, 59
1, 163200, Note_on_c, 0, 57, 59
1, 163200, Note_on_c, 0, 62, 59
1, 163440, Note_on_c, 0, 74, 0
1, 163440, Note_on_c, 0, 76, 81
1, 163680, Tempo, 297192
1, 163680, Note_on_c, 0, 76, 0
1, 163680, Note_on_c, 0, 62, 0
1, 163680, Note_on_c, 0, 66, 0
1, 163680, Note_on_c, 0, 50, 0
1, 163680, Note_on_c, 0, 57, 0
1, 163680, Note_on_c, 0, 78, 82
1, 163680, Note_on_c, 0, 66, 70
1, 163680, Note_on_c, 0, 50, 59
1, 163680, Note_on_c, 0, 57, 59
1, 163680, Note_on_c, 0, 62, 59
1, 163920, Tempo, 327243
1, 163920, Note_on_c, 0, 78, 0
1, 163920, Note_on_c, 0, 79, 83
1, 164040, Note_on_c, 0, 79, 0
1, 164040, Note_on_c, 0, 78, 80
1, 164100, Note_on_c, 0, 78, 0
1, 164100, Note_on_c, 0, 79, 78
1, 164160, Tempo, 302496
1, 164160, Note_on_c, 0, 79, 0
1, 164160, Note_on_c, 0, 62, 0
1, 164160, Note_on_c, 0, 66, 0
1, 164160, Note_on_c, 0, 50, 0
1, 164160, Note_on_c, 0, 57, 0
1, 164160, Note_on_c, 0, 78, 87
1, 164160, Note_on_c, 0, 45, 67
1, 164171, Control_c, 0, 64, 0
1, 164372, Control_c, 0, 64, 127
1, 164400, Note_on_c, 0, 45, 0
1, 164640, Tempo, 293040
1, 164640, Note_on_c, 0, 78, 0
1, 164640, Note_on_c, 0, 67, 71
1, 164640, Note_on_c, 0, 76, 85
1, 164640, Note_on_c, 0, 52, 62
1, 164640, Note_on_c, 0, 57, 62
1, 164640, Note_on_c, 0, 61, 62
1, 164880, Note_on_c, 0, 76, 0
1, 164880, Note_on_c, 0, 74, 85
1, 165120, Note_on_c, 0, 74, 0
1, 165120, Note_on_c, 0, 61, 0
1, 165120, Note_on_c, 0, 67, 0
1, 165120, Note_on_c, 0, 52, 0
1, 165120, Note_on_c, 0, 57, 0
1, 165120, Note_on_c, 0, 67, 71
1, 165120, Note_on_c, 0, 73, 83
1, 165120, Note_on_c, 0, 52, 62
1, 165120, Note_on_c, 0, 57, 62
1, 165120, Note_on_c, 0, 61, 62
1, 165137, Control_c, 0, 64, 0
1, 165360, Note_on_c, 0, 73, 0
1, 165360, Note_on_c, 0, 71, 82
1, 165600, Tempo, 287646
1, 165600, Note_on_c, 0, 71, 0
1, 165600, Note_on_c, 0, 61, 0
1, 165600, Note_on_c, 0, 67, 0
1, 165600, Note_on_c, 0, 52, 0
1, 165600, Note_on_c, 0, 57, 0
1, 165600, Note_on_c, 0, 69, 85
1, 165600, Note_on_c, 0, 38, 67
1, 165741, Control_c, 0, 64, 127
1, 165840, Note_on_c, 0, 38, 0
1, 165840, Note_on_c, 0, 69, 0
1, 165840, Note_on_c, 0, 74, 80
1, 166080, Tempo, 309837
1, 166080, Note_on_c, 0, 74, 0
1, 166080, Note_on_c, 0, 66, 71
1, 166080, Note_on_c, 0, 74, 85
1, 166080, Note_on_c, 0, 50, 62
1, 166080, Note_on_c, 0, 57, 62
1, 166080, Note_on_c, 0, 62, 62
1, 166240, Note_on_c, 0, 74, 0
1, 166240, Note_on_c, 0, 76, 80
1, 166400, Note_on_c, 0, 76, 0
1, 166400, Note_on_c, 0, 74, 80
1, 166560, Tempo, 303383
1, 166560, Note_on_c, 0, 74, 0
1, 166560, Note_on_c, 0, 57, 0
1, 166560, Note_on_c, 0, 66, 0
1, 166560, Note_on_c, 0, 50, 0
1, 166560, Note_on_c, 0, 62, 0
1, 166560, Note_on_c, 0, 66, 67
1, 166560, Note_on_c, 0, 73, 80
1, 166560, Note_on_c, 0, 50, 62
1, 166560, Note_on_c, 0, 57, 62
1, 166560, Note_on_c, 0, 62, 62
1, 166572, Control_c, 0, 64, 0
1, 166800, Note_on_c, 0, 73, 0
1, 166800, Note_on_c, 0, 71, 80
1, 167040, Tempo, 317427
1, 167040, Note_on_c, 0, 71, 0
1, 167040, Note_on_c, 0, 62, 0
1, 167040, Note_on_c, 0, 66, 0
1, 167040, Note_on_c, 0, 50, 0
1, 167040, Note_on_c, 0, 57, 0
1, 167040, Note_on_c, 0, 73, 83
1, 167040, Note_on_c, 0, 45, 67
1, 167252, Control_c, 0, 64, 127
1, 167280, Note_on_c, 0, 45, 0
1, 167520, Tempo, 331895
1, 167520, Note_on_c, 0, 64, 50
1, 167520, Note_on_c, 0, 69, 60
1, 167520, Note_on_c, 0, 57, 49
1, 168000, Tempo, 349834
1, 168000, Note_on_c, 0, 57, 0
1, 168000, Note_on_c, 0, 69, 0
1, 168000, Note_on_c, 0, 64, 0
1, 168000, Note_on_c, 0, 67, 65
1, 168000, Note_on_c, 0, 69, 78
1, 168000, Note_on_c, 0, 57, 64
1, 168000, Note_on_c, 0, 64, 64
1, 168480, Tempo, 294190
1, 168480, Note_on_c, 0, 64, 0
1, 168480, Note_on_c, 0, 69, 0
1, 168480, Note_on_c, 0, 73, 0
1, 168480, Note_on_c, 0, 67, 0
1, 168480, Note_on_c, 0, 57, 0
1, 168480, Note_on_c, 0, 69, 85
1, 168480, Note_on_c, 0, 50, 67
1, 168494, Control_c, 0, 64, 0
1, 168579, Control_c, 0, 64, 127
1, 168720, Note_on_c, 0, 50, 0
1, 168720, Note_on_c, 0, 69, 0
1, 168720, Note_on_c, 0, 73, 80
1, 168960, Tempo, 287646
1, 168960, Note_on_c, 0, 73, 0
1, 168960, Note_on_c, 0, 74, 81
1, 168960, Note_on_c, 0, 66, 69
1, 168960, Note_on_c, 0, 57, 59
1, 168960, Note_on_c, 0, 62, 59
1, 169200, Note_on_c, 0, 74, 0
1, 169200, Note_on_c, 0, 76, 81
1, 169440, Tempo, 297192
1, 169440, Note_on_c, 0, 76, 0
1, 169440, Note_on_c, 0, 62, 0
1, 169440, Note_on_c, 0, 57, 0
1, 169440, Note_on_c, 0, 66, 0
1, 169440, Note_on_c, 0, 78, 82
1, 169440, Note_on_c, 0, 66, 70
1, 169440, Note_on_c, 0, 50, 59
1, 169440, Note_on_c, 0, 57, 59
1, 169440, Note_on_c, 0, 62, 59
1, 169680, Tempo, 327243
1, 169680, Note_on_c, 0, 78, 0
1, 169680, Note_on_c, 0, 79, 83
1, 169800, Note_on_c, 0, 79, 0
1, 169800, Note_on_c, 0, 78, 80
1, 169860, Note_on_c, 0, 78, 0
1, 169860, Note_on_c, 0, 79, 78
1, 169920, Tempo, 302496
1, 169920, Note_on_c, 0, 79, 0
1, 169920, Note_on_c, 0, 62, 0
1, 169920, Note_on_c, 0, 66, 0
1, 169920, Note_on_c, 0, 50, 0
1, 169920, Note_on_c, 0, 57, 0
1, 169920, Note_on_c, 0, 78, 87
1, 169920, Note_on_c, 0, 43, 67
1, 169930, Control_c, 0, 64, 0
1, 170132, Control_c, 0, 64, 127
1, 170160, Note_on_c, 0, 43, 0
1, 170400, Tempo, 293040
1, 170400, Note_on_c, 0, 78, 0
1, 170400, Note_on_c, 0, 67, 71
1, 170400, Note_on_c, 0, 76, 85
1, 170400, Note_on_c, 0, 59, 62
1, 170400, Note_on_c, 0, 64, 62
1, 170640, Note_on_c, 0, 76, 0
1, 170640, Note_on_c, 0, 74, 85
1, 170880, Note_on_c, 0, 74, 0
1, 170880, Note_on_c, 0, 64, 0
1, 170880, Note_on_c, 0, 59, 0
1, 170880, Note_on_c, 0, 67, 0
1, 170880, Note_on_c, 0, 67, 71
1, 170880, Note_on_c, 0, 73, 83
1, 170880, Note_on_c, 0, 52, 62
1, 170880, Note_on_c, 0, 59, 62
1, 170880, Note_on_c, 0, 64, 62
1, 170894, Control_c, 0, 64, 0
1, 171120, Note_on_c, 0, 73, 0
1, 171120, Note_on_c, 0, 71, 82
1, 171360, Tempo, 287646
1, 171360, Note_on_c, 0, 71, 0
1, 171360, Note_on_c, 0, 64, 0
1, 171360, Note_on_c, 0, 67, 0
1, 171360, Note_on_c, 0, 52, 0
1, 171360, Note_on_c, 0, 59, 0
1, 171360, Note_on_c, 0, 69, 85
1, 171360, Note_on_c, 0, 45, 67
1, 171480, Control_c, 0, 64, 127
1, 171600, Note_on_c, 0, 45, 0
1, 171600, Note_on_c, 0, 69, 0
1, 171600, Note_on_c, 0, 73, 80
1, 171840, Tempo, 309837
1, 171840, Note_on_c, 0, 73, 0
1, 171840, Note_on_c, 0, 67, 71
1, 171840, Note_on_c, 0, 73, 85
1, 171840, Note_on_c, 0, 57, 62
1, 171840, Note_on_c, 0, 64, 62
1, 172000, Note_on_c, 0, 73, 0
1, 172000, Note_on_c, 0, 74, 80
1, 172160, Note_on_c, 0, 74, 0
1, 172160, Note_on_c, 0, 73, 80
1, 172320, Tempo, 303383
1, 172320, Note_on_c, 0, 73, 0
1, 172320, Note_on_c, 0, 67, 0
1, 172320, Note_on_c, 0, 57, 0
1, 172320, Note_on_c, 0, 64, 0
1, 172320, Note_on_c, 0, 67, 67
1, 172320, Note_on_c, 0, 71, 80
1, 172320, Note_on_c, 0, 57, 62
1, 172320, Note_on_c, 0, 64, 62
1, 172327, Control_c, 0, 64, 0
1, 172560, Note_on_c, 0, 71, 0
1, 172560, Note_on_c, 0, 69, 80
1, 172800, Tempo, 313169
1, 172800, Note_on_c, 0, 69, 0
1, 172800, Note_on_c, 0, 64, 0
1, 172800, Note_on_c, 0, 57, 0
1, 172800, Note_on_c, 0, 67, 0
1, 172800, Note_on_c, 0, 74, 83
1, 172800, Note_on_c, 0, 38, 67
1, 172969, Control_c, 0, 64, 127
1, 173040, Note_on_c, 0, 38, 0
1, 173280, Tempo, 322702
1, 173280, Note_on_c, 0, 66, 60
1, 173280, Note_on_c, 0, 50, 41
1, 173280, Note_on_c, 0, 57, 41
1, 173280, Note_on_c, 0, 62, 49
1, 173760, Tempo, 335721
1, 173760, Note_on_c, 0, 62, 0
1, 173760, Note_on_c, 0, 50, 0
1, 173760, Note_on_c, 0, 57, 0
1, 173760, Note_on_c, 0, 66, 0
1, 173760, Note_on_c, 0, 66, 54
1, 173760, Note_on_c, 0, 50, 44
1, 173760, Note_on_c, 0, 57, 44
1, 173760, Note_on_c, 0, 62, 44
1, 174240, Tempo, 306169
1, 174240, Note_on_c, 0, 74, 0
1, 174240, Note_on_c, 0, 69, 40
1, 174256, Control_c, 0, 64, 0
1, 174342, Control_c, 0, 64, 127
1, 174480, Note_on_c, 0, 69, 0
1, 174480, Note_on_c, 0, 73, 39
1, 174720, Tempo, 299371
1, 174720, Note_on_c, 0, 73, 0
1, 174720, Note_on_c, 0, 57, 0
1, 174720, Note_on_c, 0, 66, 0
1, 174720, Note_on_c, 0, 50, 0
1, 174720, Note_on_c, 0, 62, 0
1, 174720, Note_on_c, 0, 74, 39
1, 174720, Note_on_c, 0, 66, 33
1, 174720, Note_on_c, 0, 50, 23
1, 174720, Note_on_c, 0, 57, 23
1, 174720, Note_on_c, 0, 62, 23
1, 174960, Note_on_c, 0, 74, 0
1, 174960, Note_on_c, 0, 76, 39
1, 175200, Tempo, 309294
1, 175200, Note_on_c, 0, 76, 0
1, 175200, Note_on_c, 0, 62, 0
1, 175200, Note_on_c, 0, 66, 0
1, 175200, Note_on_c, 0, 50, 0
1, 175200, Note_on_c, 0, 57, 0
1, 175200, Note_on_c, 0, 78, 40
1, 175200, Note_on_c, 0, 66, 33
1, 175200, Note_on_c, 0, 50, 23
1, 175200, Note_on_c, 0, 57, 23
1, 175200, Note_on_c, 0, 62, 23
1, 175440, Tempo, 349834
1, 175440, Note_on_c, 0, 78, 0
1, 175440, Note_on_c, 0, 79, 40
1, 175560, Note_on_c, 0, 79, 0
1, 175560, Note_on_c, 0, 78, 39
1, 175620, Note_on_c, 0, 78, 0
1, 175620, Note_on_c, 0, 79, 37
1, 175680, Tempo, 314828
1, 175680, Note_on_c, 0, 79, 0
1, 175680, Note_on_c, 0, 62, 0
1, 175680, Note_on_c, 0, 66, 0
1, 175680, Note_on_c, 0, 50, 0
1, 175680, Note_on_c, 0, 57, 0
1, 175680, Note_on_c, 0, 78, 42
1, 175680, Note_on_c, 0, 45, 27
1, 175692, Control_c, 0, 64, 0
1, 175835, Control_c, 0, 64, 127
1, 175920, Note_on_c, 0, 45, 0
1, 176160, Tempo, 304987
1, 176160, Note_on_c, 0, 78, 0
1, 176160, Note_on_c, 0, 67, 34
1, 176160, Note_on_c, 0, 76, 40
1, 176160, Note_on_c, 0, 52, 24
1, 176160, Note_on_c, 0, 57, 24
1, 176160, Note_on_c, 0, 61, 24
1, 176400, Note_on_c, 0, 76, 0
1, 176400, Note_on_c, 0, 74, 40
1, 176640, Note_on_c, 0, 74, 0
1, 176640, Note_on_c, 0, 61, 0
1, 176640, Note_on_c, 0, 67, 0
1, 176640, Note_on_c, 0, 52, 0
1, 176640, Note_on_c, 0, 57, 0
1, 176640, Note_on_c, 0, 67, 34
1, 176640, Note_on_c, 0, 73, 40
1, 176640, Note_on_c, 0, 52, 24
1, 176640, Note_on_c, 0, 57, 24
1, 176640, Note_on_c, 0, 61, 24
1, 176651, Control_c, 0, 64, 0
1, 176880, Note_on_c, 0, 73, 0
1, 176880, Note_on_c, 0, 71, 40
1, 177120, Tempo, 299371
1, 177120, Note_on_c, 0, 71, 0
1, 177120, Note_on_c, 0, 61, 0
1, 177120, Note_on_c, 0, 67, 0
1, 177120, Note_on_c, 0, 52, 0
1, 177120, Note_on_c, 0, 57, 0
1, 177120, Note_on_c, 0, 69, 40
1, 177120, Note_on_c, 0, 38, 27
1, 177261, Control_c, 0, 64, 127
1, 177360, Note_on_c, 0, 38, 0
1, 177360, Note_on_c, 0, 69, 0
1, 177360, Note_on_c, 0, 74, 39
1, 177600, Tempo, 322459
1, 177600, Note_on_c, 0, 74, 0
1, 177600, Note_on_c, 0, 66, 34
1, 177600, Note_on_c, 0, 74, 40
1, 177600, Note_on_c, 0, 50, 24
1, 177600, Note_on_c, 0, 57, 24
1, 177600, Note_on_c, 0, 62, 24
1, 177760, Note_on_c, 0, 74, 0
1, 177760, Note_on_c, 0, 76, 39
1, 177920, Note_on_c, 0, 76, 0
1, 177920, Note_on_c, 0, 74, 39
1, 178080, Tempo, 315740
1, 178080, Note_on_c, 0, 74, 0
1, 178080, Note_on_c, 0, 57, 0
1, 178080, Note_on_c, 0, 66, 0
1, 178080, Note_on_c, 0, 50, 0
1, 178080, Note_on_c, 0, 62, 0
1, 178080, Note_on_c, 0, 66, 32
1, 178080, Note_on_c, 0, 73, 39
1, 178080, Note_on_c, 0, 50, 24
1, 178080, Note_on_c, 0, 57, 24
1, 178080, Note_on_c, 0, 62, 24
1, 178094, Control_c, 0, 64, 0
1, 178320, Note_on_c, 0, 73, 0
1, 178320, Note_on_c, 0, 71, 39
1, 178560, Tempo, 332853
1, 178560, Note_on_c, 0, 71, 0
1, 178560, Note_on_c, 0, 62, 0
1, 178560, Note_on_c, 0, 66, 0
1, 178560, Note_on_c, 0, 50, 0
1, 178560, Note_on_c, 0, 57, 0
1, 178560, Note_on_c, 0, 73, 40
1, 178560, Note_on_c, 0, 45, 27
1, 178729, Control_c, 0, 64, 127
1, 178800, Note_on_c, 0, 45, 0
1, 179040, Tempo, 350898
1, 179040, Note_on_c, 0, 64, 24
1, 179040, Note_on_c, 0, 69, 29
1, 179040, Note_on_c, 0, 61, 20
1, 179040, Note_on_c, 0, 57, 20
1, 179520, Tempo, 375799
1, 179520, Note_on_c, 0, 57, 0
1, 179520, Note_on_c, 0, 69, 0
1, 179520, Note_on_c, 0, 61, 0
1, 179520, Note_on_c, 0, 64, 0
1, 179520, Note_on_c, 0, 67, 31
1, 179520, Note_on_c, 0, 69, 37
1, 179520, Note_on_c, 0, 57, 26
1, 179520, Note_on_c, 0, 64, 26
1, 180000, Tempo, 323607
1, 180000, Note_on_c, 0, 64, 0
1, 180000, Note_on_c, 0, 73, 0
1, 180000, Note_on_c, 0, 69, 0
1, 180000, Note_on_c, 0, 67, 0
1, 180000, Note_on_c, 0, 69, 40
1, 180000, Note_on_c, 0, 50, 27
1, 180010, Control_c, 0, 64, 0
1, 180124, Control_c, 0, 64, 127
1, 180240, Note_on_c, 0, 69, 0
1, 180240, Note_on_c, 0, 73, 39
1, 180480, Tempo, 310655
1, 180480, Note_on_c, 0, 73, 0
1, 180480, Note_on_c, 0, 50, 0
1, 180480, Note_on_c, 0, 57, 0
1, 180480, Note_on_c, 0, 74, 39
1, 180480, Note_on_c, 0, 66, 33
1, 180480, Note_on_c, 0, 57, 23
1, 180480, Note_on_c, 0, 62, 23
1, 180720, Note_on_c, 0, 74, 0
1, 180720, Note_on_c, 0, 76, 39
1, 180960, Tempo, 317427
1, 180960, Note_on_c, 0, 76, 0
1, 180960, Note_on_c, 0, 62, 0
1, 180960, Note_on_c, 0, 57, 0
1, 180960, Note_on_c, 0, 66, 0
1, 180960, Note_on_c, 0, 78, 40
1, 180960, Note_on_c, 0, 66, 33
1, 180960, Note_on_c, 0, 50, 23
1, 180960, Note_on_c, 0, 57, 23
1, 180960, Note_on_c, 0, 62, 23
1, 181200, Tempo, 342642
1, 181200, Note_on_c, 0, 78, 0
1, 181200, Note_on_c, 0, 79, 40
1, 181320, Note_on_c, 0, 79, 0
1, 181320, Note_on_c, 0, 78, 39
1, 181380, Note_on_c, 0, 78, 0
1, 181380, Note_on_c, 0, 79, 37
1, 181440, Tempo, 329092
1, 181440, Note_on_c, 0, 79, 0
1, 181440, Note_on_c, 0, 62, 0
1, 181440, Note_on_c, 0, 66, 0
1, 181440, Note_on_c, 0, 50, 0
1, 181440, Note_on_c, 0, 57, 0
1, 181440, Note_on_c, 0, 78, 42
1, 181440, Note_on_c, 0, 43, 27
1, 181449, Control_c, 0, 64, 0
1, 181595, Control_c, 0, 64, 127
1, 181680, Note_on_c, 0, 43, 0
1, 181920, Tempo, 320924
1, 181920, Note_on_c, 0, 78, 0
1, 181920, Note_on_c, 0, 67, 34
1, 181920, Note_on_c, 0, 76, 40
1, 181920, Note_on_c, 0, 59, 24
1, 181920, Note_on_c, 0, 64, 24
1, 182160, Note_on_c, 0, 76, 0
1, 182160, Note_on_c, 0, 74, 40
1, 182400, Note_on_c, 0, 74, 0
1, 182400, Note_on_c, 0, 64, 0
1, 182400, Note_on_c, 0, 59, 0
1, 182400, Note_on_c, 0, 67, 0
1, 182400, Note_on_c, 0, 67, 34
1, 182400, Note_on_c, 0, 73, 40
1, 182400, Note_on_c, 0, 52, 24
1, 182400, Note_on_c, 0, 59, 24
1, 182400, Note_on_c, 0, 64, 24
1, 182414, Control_c, 0, 64, 0
1, 182640, Note_on_c, 0, 73, 0
1, 182640, Note_on_c, 0, 71, 40
1, 182880, Tempo, 311494
1, 182880, Note_on_c, 0, 71, 0
1, 182880, Note_on_c, 0, 64, 0
1, 182880, Note_on_c, 0, 67, 0
1, 182880, Note_on_c, 0, 52, 0
1, 182880, Note_on_c, 0, 59, 0
1, 182880, Note_on_c, 0, 69, 40
1, 182880, Note_on_c, 0, 45, 27
1, 183007, Control_c, 0, 64, 127
1, 183120, Note_on_c, 0, 45, 0
1, 183120, Note_on_c, 0, 69, 0
1, 183120, Note_on_c, 0, 73, 39
1, 183360, Tempo, 358444
1, 183360, Note_on_c, 0, 73, 0
1, 183360, Note_on_c, 0, 67, 34
1, 183360, Note_on_c, 0, 73, 40
1, 183360, Note_on_c, 0, 57, 24
1, 183360, Note_on_c, 0, 64, 24
1, 183520, Note_on_c, 0, 73, 0
1, 183520, Note_on_c, 0, 74, 39
1, 183680, Note_on_c, 0, 74, 0
1, 183680, Note_on_c, 0, 73, 39
1, 183840, Tempo, 331895
1, 183840, Note_on_c, 0, 73, 0
1, 183840, Note_on_c, 0, 67, 0
1, 183840, Note_on_c, 0, 57, 0
1, 183840, Note_on_c, 0, 64, 0
1, 183840, Note_on_c, 0, 67, 32
1, 183840, Note_on_c, 0, 71, 39
1, 183840, Note_on_c, 0, 57, 24
1, 183840, Note_on_c, 0, 64, 24
1, 183856, Control_c, 0, 64, 0
1, 184080, Note_on_c, 0, 71, 0
1, 184080, Note_on_c, 0, 69, 39
1, 184320, Tempo, 342642
1, 184320, Note_on_c, 0, 69, 0
1, 184320, Note_on_c, 0, 64, 0
1, 184320, Note_on_c, 0, 57, 0
1, 184320, Note_on_c, 0, 67, 0
1, 184320, Note_on_c, 0, 74, 40
1, 184320, Note_on_c, 0, 38, 27
1, 184546, Control_c, 0, 64, 127
1, 184560, Note_on_c, 0, 38, 0
1, 184800, Tempo, 354087
1, 184800, Note_on_c, 0, 66, 29
1, 184800, Note_on_c, 0, 50, 17
1, 184800, Note_on_c, 0, 57, 17
1, 184800, Note_on_c, 0, 62, 20
1, 185280, Tempo, 378239
1, 185280, Note_on_c, 0, 62, 0
1, 185280, Note_on_c, 0, 50, 0
1, 185280, Note_on_c, 0, 57, 0
1, 185280, Note_on_c, 0, 66, 0
1, 185280, Note_on_c, 0, 66, 37
1, 185280, Note_on_c, 0, 50, 26
1, 185280, Note_on_c, 0, 57, 26
1, 185280, Note_on_c, 0, 62, 26
1, 185760, Tempo, 332410
1, 185760, Note_on_c, 0, 62, 0
1, 185760, Note_on_c, 0, 50, 0
1, 185760, Note_on_c, 0, 74, 0
1, 185760, Note_on_c, 0, 66, 0
1, 185760, Note_on_c, 0, 57, 0
1, 185760, Note_on_c, 0, 74, 43
1, 185760, Note_on_c, 0, 66, 47
1, 185760, Note_on_c, 0, 50, 26
1, 185760, Note_on_c, 0, 57, 31
1, 185766, Control_c, 0, 64, 0
1, 185799, Control_c, 0, 64, 127
1, 186000, Note_on_c, 0, 66, 0
1, 186000, Note_on_c, 0, 69, 45
1, 186240, Tempo, 321716
1, 186240, Note_on_c, 0, 69, 0
1, 186240, Note_on_c, 0, 57, 0
1, 186240, Note_on_c, 0, 50, 0
1, 186240, Note_on_c, 0, 69, 49
1, 186240, Note_on_c, 0, 60, 27
1, 186240, Note_on_c, 0, 50, 23
1, 186251, Control_c, 0, 64, 0
1, 186318, Control_c, 0, 64, 127
1, 186420, Note_on_c, 0, 69, 0
1, 186420, Note_on_c, 0, 71, 41
1, 186480, Tempo, 310881
1, 186480, Note_on_c, 0, 71, 0
1, 186480, Note_on_c, 0, 69, 46
1, 186720, Tempo, 327869
1, 186720, Note_on_c, 0, 69, 0
1, 186720, Note_on_c, 0, 50, 0
1, 186720, Note_on_c, 0, 60, 0
1, 186720, Note_on_c, 0, 68, 46
1, 186720, Note_on_c, 0, 50, 23
1, 186720, Note_on_c, 0, 59, 28
1, 186728, Control_c, 0, 64, 0
1, 186960, Note_on_c, 0, 68, 0
1, 186960, Note_on_c, 0, 64, 45
1, 187200, Tempo, 333333
1, 187200, Note_on_c, 0, 64, 0
1, 187200, Note_on_c, 0, 59, 0
1, 187200, Note_on_c, 0, 50, 0
1, 187200, Note_on_c, 0, 74, 0
1, 187200, Note_on_c, 0, 74, 44
1, 187200, Note_on_c, 0, 64, 50
1, 187200, Note_on_c, 0, 50, 26
1, 187200, Note_on_c, 0, 55, 32
1, 187274, Control_c, 0, 64, 127
1, 187440, Note_on_c, 0, 64, 0
1, 187440, Note_on_c, 0, 67, 47
1, 187680, Tempo, 320856
1, 187680, Note_on_c, 0, 67, 0
1, 187680, Note_on_c, 0, 55, 0
1, 187680, Note_on_c, 0, 50, 0
1, 187680, Note_on_c, 0, 67, 51
1, 187680, Note_on_c, 0, 58, 28
1, 187680, Note_on_c, 0, 50, 24
1, 187695, Control_c, 0, 64, 0
1, 187772, Control_c, 0, 64, 127
1, 187860, Note_on_c, 0, 67, 0
1, 187860, Note_on_c, 0, 69, 43
1, 187920, Tempo, 310078
1, 187920, Note_on_c, 0, 69, 0
1, 187920, Note_on_c, 0, 67, 48
1, 188160, Tempo, 330579
1, 188160, Note_on_c, 0, 67, 0
1, 188160, Note_on_c, 0, 50, 0
1, 188160, Note_on_c, 0, 58, 0
1, 188160, Note_on_c, 0, 66, 48
1, 188160, Note_on_c, 0, 50, 24
1, 188160, Note_on_c, 0, 57, 29
1, 188174, Control_c, 0, 64, 0
1, 188400, Note_on_c, 0, 66, 0
1, 188400, Note_on_c, 0, 62, 43
1, 188640, Tempo, 326087
1, 188640, Note_on_c, 0, 62, 0
1, 188640, Note_on_c, 0, 57, 0
1, 188640, Note_on_c, 0, 50, 0
1, 188640, Note_on_c, 0, 74, 0
1, 188640, Note_on_c, 0, 74, 45
1, 188640, Note_on_c, 0, 66, 50
1, 188640, Note_on_c, 0, 50, 27
1, 188640, Note_on_c, 0, 57, 33
1, 188704, Control_c, 0, 64, 127
1, 188880, Note_on_c, 0, 66, 0
1, 188880, Note_on_c, 0, 69, 48
1, 189120, Tempo, 308483
1, 189120, Note_on_c, 0, 69, 0
1, 189120, Note_on_c, 0, 57, 0
1, 189120, Note_on_c, 0, 50, 0
1, 189120, Note_on_c, 0, 69, 52
1, 189120, Note_on_c, 0, 60, 29
1, 189120, Note_on_c, 0, 50, 24
1, 189131, Control_c, 0, 64, 0
1, 189184, Control_c, 0, 64, 127
1, 189300, Note_on_c, 0, 69, 0
1, 189300, Note_on_c, 0, 71, 44
1, 189360, Tempo, 292683
1, 189360, Note_on_c, 0, 71, 0
1, 189360, Note_on_c, 0, 69, 48
1, 189600, Tempo, 323450
1, 189600, Note_on_c, 0, 69, 0
1, 189600, Note_on_c, 0, 50, 0
1, 189600, Note_on_c, 0, 60, 0
1, 189600, Note_on_c, 0, 68, 48
1, 189600, Note_on_c, 0, 50, 24
1, 189600, Note_on_c, 0, 59, 29
1, 189617, Control_c, 0, 64, 0
1, 189840, Note_on_c, 0, 68, 0
1, 189840, Note_on_c, 0, 64, 44
1, 190080, Tempo, 326975
1, 190080, Note_on_c, 0, 64, 0
1, 190080, Note_on_c, 0, 59, 0
1, 190080, Note_on_c, 0, 50, 0
1, 190080, Note_on_c, 0, 74, 0
1, 190080, Note_on_c, 0, 74, 46
1, 190080, Note_on_c, 0, 64, 53
1, 190080, Note_on_c, 0, 50, 28
1, 190080, Note_on_c, 0, 55, 33
1, 190144, Control_c, 0, 64, 127
1, 190320, Note_on_c, 0, 64, 0
1, 190320, Note_on_c, 0, 67, 50
1, 190560, Tempo, 319166
1, 190560, Note_on_c, 0, 67, 0
1, 190560, Note_on_c, 0, 55, 0
1, 190560, Note_on_c, 0, 50, 0
1, 190560, Note_on_c, 0, 67, 53
1, 190560, Note_on_c, 0, 58, 30
1, 190560, Note_on_c, 0, 50, 25
1, 190575, Control_c, 0, 64, 0
1, 190600, Tempo, 304569
1, 190634, Control_c, 0, 64, 127
1, 190740, Note_on_c, 0, 67, 0
1, 190740, Note_on_c, 0, 69, 46
1, 190800, Tempo, 289855
1, 190800, Note_on_c, 0, 69, 0
1, 190800, Note_on_c, 0, 67, 50
1, 191040, Tempo, 323450
1, 191040, Note_on_c, 0, 67, 0
1, 191040, Note_on_c, 0, 50, 0
1, 191040, Note_on_c, 0, 58, 0
1, 191040, Note_on_c, 0, 66, 51
1, 191040, Note_on_c, 0, 50, 25
1, 191040, Note_on_c, 0, 57, 30
1, 191044, Control_c, 0, 64, 0
1, 191280, Note_on_c, 0, 66, 0
1, 191280, Note_on_c, 0, 62, 44
1, 191520, Tempo, 321819
1, 191520, Note_on_c, 0, 62, 0
1, 191520, Note_on_c, 0, 57, 0
1, 191520, Note_on_c, 0, 50, 0
1, 191520, Note_on_c, 0, 74, 0
1, 191520, Note_on_c, 0, 69, 48
1, 191520, Note_on_c, 0, 62, 53
1, 191520, Note_on_c, 0, 50, 29
1, 191520, Note_on_c, 0, 54, 35
1, 191566, Control_c, 0, 64, 127
1, 191760, Note_on_c, 0, 62, 0
1, 191760, Note_on_c, 0, 66, 51
1, 192000, Tempo, 304167
1, 192000, Note_on_c, 0, 66, 0
1, 192000, Note_on_c, 0, 54, 0
1, 192000, Note_on_c, 0, 50, 0
1, 192000, Note_on_c, 0, 66, 55
1, 192000, Note_on_c, 0, 57, 31
1, 192000, Note_on_c, 0, 50, 26
1, 192014, Control_c, 0, 64, 0
1, 192078, Control_c, 0, 64, 127
1, 192180, Note_on_c, 0, 66, 0
1, 192180, Note_on_c, 0, 67, 46
1, 192240, Tempo, 273461
1, 192240, Note_on_c, 0, 67, 0
1, 192240, Note_on_c, 0, 66, 51
1, 192480, Tempo, 309278
1, 192480, Note_on_c, 0, 66, 0
1, 192480, Note_on_c, 0, 50, 0
1, 192480, Note_on_c, 0, 57, 0
1, 192480, Note_on_c, 0, 64, 51
1, 192480, Note_on_c, 0, 50, 26
1, 192480, Note_on_c, 0, 56, 31
1, 192491, Control_c, 0, 64, 0
1, 192720, Note_on_c, 0, 64, 0
1, 192720, Note_on_c, 0, 59, 46
1, 192960, Tempo, 314961
1, 192960, Note_on_c, 0, 59, 0
1, 192960, Note_on_c, 0, 56, 0
1, 192960, Note_on_c, 0, 50, 0
1, 192960, Note_on_c, 0, 69, 0
1, 192960, Note_on_c, 0, 69, 48
1, 192960, Note_on_c, 0, 61, 55
1, 192960, Note_on_c, 0, 50, 29
1, 192960, Note_on_c, 0, 52, 35
1, 193024, Control_c, 0, 64, 127
1, 193200, Note_on_c, 0, 61, 0
1, 193200, Note_on_c, 0, 64, 52
1, 193440, Tempo, 299476
1, 193440, Note_on_c, 0, 64, 0
1, 193440, Note_on_c, 0, 52, 0
1, 193440, Note_on_c, 0, 50, 0
1, 193440, Note_on_c, 0, 64, 55
1, 193440, Note_on_c, 0, 55, 31
1, 193440, Note_on_c, 0, 50, 26
1, 193454, Control_c, 0, 64, 0
1, 193507, Control_c, 0, 64, 127
1, 193620, Note_on_c, 0, 64, 0
1, 193620, Note_on_c, 0, 66, 47
1, 193680, Tempo, 272826
1, 193680, Note_on_c, 0, 66, 0
1, 193680, Note_on_c, 0, 64, 52
1, 193920, Tempo, 317427
1, 193920, Note_on_c, 0, 64, 0
1, 193920, Note_on_c, 0, 50, 0
1, 193920, Note_on_c, 0, 55, 0
1, 193920, Note_on_c, 0, 62, 52
1, 193920, Note_on_c, 0, 50, 26
1, 193920, Note_on_c, 0, 54, 31
1, 193934, Control_c, 0, 64, 0
1, 194160, Note_on_c, 0, 62, 0
1, 194160, Note_on_c, 0, 57, 46
1, 194400, Tempo, 310881
1, 194400, Note_on_c, 0, 57, 0
1, 194400, Note_on_c, 0, 54, 0
1, 194400, Note_on_c, 0, 50, 0
1, 194400, Note_on_c, 0, 69, 0
1, 194400, Note_on_c, 0, 69, 48
1, 194400, Note_on_c, 0, 62, 53
1, 194400, Note_on_c, 0, 50, 29
1, 194400, Note_on_c, 0, 54, 35
1, 194414, Control_c, 0, 64, 0
1, 194457, Control_c, 0, 64, 127
1, 194640, Note_on_c, 0, 62, 0
1, 194640, Note_on_c, 0, 66, 51
1, 194880, Tempo, 287770
1, 194880, Note_on_c, 0, 66, 0
1, 194880, Note_on_c, 0, 54, 0
1, 194880, Note_on_c, 0, 50, 0
1, 194880, Note_on_c, 0, 66, 54
1, 194880, Note_on_c, 0, 57, 30
1, 194880, Note_on_c, 0, 50, 25
1, 194891, Control_c, 0, 64, 0
1, 194930, Control_c, 0, 64, 127
1, 195060, Note_on_c, 0, 66, 0
1, 195060, Note_on_c, 0, 67, 45
1, 195120, Tempo, 255864
1, 195120, Note_on_c, 0, 67, 0
1, 195120, Note_on_c, 0, 66, 50
1, 195360, Tempo, 313169
1, 195360, Note_on_c, 0, 66, 0
1, 195360, Note_on_c, 0, 50, 0
1, 195360, Note_on_c, 0, 57, 0
1, 195360, Note_on_c, 0, 64, 49
1, 195360, Note_on_c, 0, 50, 25
1, 195360, Note_on_c, 0, 56, 30
1, 195371, Control_c, 0, 64, 0
1, 195600, Note_on_c, 0, 64, 0
1, 195600, Note_on_c, 0, 59, 45
1, 195840, Tempo, 304569
1, 195840, Note_on_c, 0, 59, 0
1, 195840, Note_on_c, 0, 56, 0
1, 195840, Note_on_c, 0, 50, 0
1, 195840, Note_on_c, 0, 69, 0
1, 195840, Note_on_c, 0, 69, 46
1, 195840, Note_on_c, 0, 61, 53
1, 195840, Note_on_c, 0, 50, 28
1, 195840, Note_on_c, 0, 52, 33
1, 195890, Control_c, 0, 64, 127
1, 196080, Note_on_c, 0, 61, 0
1, 196080, Note_on_c, 0, 64, 50
1, 196320, Tempo, 300255
1, 196320, Note_on_c, 0, 64, 0
1, 196320, Note_on_c, 0, 52, 0
1, 196320, Note_on_c, 0, 50, 0
1, 196320, Note_on_c, 0, 64, 52
1, 196320, Note_on_c, 0, 55, 29
1, 196320, Note_on_c, 0, 50, 24
1, 196333, Control_c, 0, 64, 0
1, 196384, Control_c, 0, 64, 127
1, 196500, Note_on_c, 0, 64, 0
1, 196500, Note_on_c, 0, 66, 45
1, 196560, Tempo, 257511
1, 196560, Note_on_c, 0, 66, 0
1, 196560, Note_on_c, 0, 64, 49
1, 196800, Tempo, 306122
1, 196800, Note_on_c, 0, 64, 0
1, 196800, Note_on_c, 0, 50, 0
1, 196800, Note_on_c, 0, 55, 0
1, 196800, Note_on_c, 0, 62, 49
1, 196800, Note_on_c, 0, 50, 24
1, 196800, Note_on_c, 0, 54, 29
1, 196815, Control_c, 0, 64, 0
1, 197040, Note_on_c, 0, 62, 0
1, 197040, Note_on_c, 0, 57, 41
1, 197280, Tempo, 308483
1, 197280, Note_on_c, 0, 57, 0
1, 197280, Note_on_c, 0, 54, 0
1, 197280, Note_on_c, 0, 50, 0
1, 197280, Note_on_c, 0, 69, 0
1, 197280, Note_on_c, 0, 62, 40
1, 197280, Note_on_c, 0, 54, 44
1, 197280, Note_on_c, 0, 38, 24
1, 197280, Note_on_c, 0, 45, 29
1, 197333, Control_c, 0, 64, 127
1, 197520, Note_on_c, 0, 54, 0
1, 197520, Note_on_c, 0, 57, 42
1, 197760, Tempo, 297030
1, 197760, Note_on_c, 0, 57, 0
1, 197760, Note_on_c, 0, 45, 0
1, 197760, Note_on_c, 0, 38, 0
1, 197760, Note_on_c, 0, 57, 45
1, 197760, Note_on_c, 0, 48, 25
1, 197760, Note_on_c, 0, 38, 21
1, 197775, Control_c, 0, 64, 0
1, 197940, Note_on_c, 0, 57, 0
1, 197940, Note_on_c, 0, 59, 38
1, 198000, Tempo, 250522
1, 198000, Note_on_c, 0, 59, 0
1, 198000, Note_on_c, 0, 57, 41
1, 198240, Tempo, 300000
1, 198240, Note_on_c, 0, 57, 0
1, 198240, Note_on_c, 0, 38, 0
1, 198240, Note_on_c, 0, 48, 0
1, 198240, Note_on_c, 0, 56, 41
1, 198240, Note_on_c, 0, 38, 21
1, 198240, Note_on_c, 0, 47, 24
1, 198480, Note_on_c, 0, 56, 0
1, 198480, Note_on_c, 0, 52, 35
1, 198720, Tempo, 305344
1, 198720, Note_on_c, 0, 52, 0
1, 198720, Note_on_c, 0, 47, 0
1, 198720, Note_on_c, 0, 38, 0
1, 198720, Note_on_c, 0, 62, 0
1, 198720, Note_on_c, 0, 62, 39
1, 198720, Note_on_c, 0, 52, 44
1, 198720, Note_on_c, 0, 38, 23
1, 198720, Note_on_c, 0, 43, 28
1, 198791, Control_c, 0, 64, 127
1, 198960, Note_on_c, 0, 52, 0
1, 198960, Note_on_c, 0, 55, 41
1, 199200, Tempo, 294840
1, 199200, Note_on_c, 0, 55, 0
1, 199200, Note_on_c, 0, 43, 0
1, 199200, Note_on_c, 0, 38, 0
1, 199200, Note_on_c, 0, 55, 44
1, 199200, Note_on_c, 0, 46, 24
1, 199200, Note_on_c, 0, 38, 20
1, 199219, Control_c, 0, 64, 0
1, 199380, Note_on_c, 0, 55, 0
1, 199380, Note_on_c, 0, 57, 37
1, 199440, Tempo, 250522
1, 199440, Note_on_c, 0, 57, 0
1, 199440, Note_on_c, 0, 55, 41
1, 199680, Tempo, 297030
1, 199680, Note_on_c, 0, 55, 0
1, 199680, Note_on_c, 0, 38, 0
1, 199680, Note_on_c, 0, 46, 0
1, 199680, Note_on_c, 0, 54, 40
1, 199680, Note_on_c, 0, 38, 20
1, 199680, Note_on_c, 0, 45, 24
1, 199920, Note_on_c, 0, 54, 0
1, 199920, Note_on_c, 0, 50, 34
1, 200160, Tempo, 317292
1, 200160, Note_on_c, 0, 50, 0
1, 200160, Note_on_c, 0, 45, 0
1, 200160, Note_on_c, 0, 38, 0
1, 200160, Note_on_c, 0, 62, 0
1, 200160, Note_on_c, 0, 62, 33
1, 200160, Note_on_c, 0, 54, 36
1, 200160, Note_on_c, 0, 38, 20
1, 200160, Note_on_c, 0, 45, 23
1, 200227, Control_c, 0, 64, 127
1, 200400, Note_on_c, 0, 54, 0
1, 200400, Note_on_c, 0, 57, 35
1, 200640, Tempo, 298359
1, 200640, Note_on_c, 0, 57, 0
1, 200640, Note_on_c, 0, 45, 0
1, 200640, Note_on_c, 0, 38, 0
1, 200640, Note_on_c, 0, 57, 38
1, 200640, Note_on_c, 0, 48, 20
1, 200640, Note_on_c, 0, 38, 17
1, 200655, Control_c, 0, 64, 0
1, 200820, Note_on_c, 0, 57, 0
1, 200820, Note_on_c, 0, 59, 31
1, 200880, Tempo, 259179
1, 200880, Note_on_c, 0, 59, 0
1, 200880, Note_on_c, 0, 57, 34
1, 201120, Tempo, 308166
1, 201120, Note_on_c, 0, 57, 0
1, 201120, Note_on_c, 0, 38, 0
1, 201120, Note_on_c, 0, 48, 0
1, 201120, Note_on_c, 0, 56, 34
1, 201120, Note_on_c, 0, 38, 17
1, 201120, Note_on_c, 0, 47, 20
1, 201360, Note_on_c, 0, 56, 0
1, 201360, Note_on_c, 0, 52, 30
1, 201600, Tempo, 328407
1, 201600, Note_on_c, 0, 52, 0
1, 201600, Note_on_c, 0, 47, 0
1, 201600, Note_on_c, 0, 38, 0
1, 201600, Note_on_c, 0, 62, 0
1, 201600, Note_on_c, 0, 62, 32
1, 201600, Note_on_c, 0, 52, 37
1, 201600, Note_on_c, 0, 38, 19
1, 201600, Note_on_c, 0, 43, 22
1, 201646, Control_c, 0, 64, 127
1, 201840, Note_on_c, 0, 52, 0
1, 201840, Note_on_c, 0, 55, 34
1, 202080, Tempo, 317292
1, 202080, Note_on_c, 0, 55, 0
1, 202080, Note_on_c, 0, 43, 0
1, 202080, Note_on_c, 0, 38, 0
1, 202080, Note_on_c, 0, 55, 37
1, 202080, Note_on_c, 0, 46, 20
1, 202080, Note_on_c, 0, 38, 17
1, 202094, Control_c, 0, 64, 0
1, 202260, Note_on_c, 0, 55, 0
1, 202260, Note_on_c, 0, 57, 31
1, 202320, Tempo, 268456
1, 202320, Note_on_c, 0, 57, 0
1, 202320, Note_on_c, 0, 55, 34
1, 202560, Tempo, 318640
1, 202560, Note_on_c, 0, 55, 0
1, 202560, Note_on_c, 0, 38, 0
1, 202560, Note_on_c, 0, 46, 0
1, 202560, Note_on_c, 0, 54, 34
1, 202560, Note_on_c, 0, 38, 17
1, 202560, Note_on_c, 0, 45, 20
1, 202800, Note_on_c, 0, 54, 0
1, 202800, Note_on_c, 0, 50, 30
1, 203040, Tempo, 358209
1, 203040, Note_on_c, 0, 50, 0
1, 203040, Note_on_c, 0, 45, 0
1, 203040, Note_on_c, 0, 38, 0
1, 203040, Note_on_c, 0, 62, 0
1, 203040, Note_on_c, 0, 50, 39
1, 203040, Note_on_c, 0, 57, 46
1, 203040, Note_on_c, 0, 38, 26
1, 203040, Note_on_c, 0, 45, 31
1, 203096, Control_c, 0, 64, 127
1, 203520, Note_on_c, 0, 45, 0
1, 203520, Note_on_c, 0, 50, 0
1, 203520, Note_on_c, 0, 57, 0
1, 203520, Note_on_c, 0, 38, 0
1, 203520, Note_on_c, 0, 62, 41
1, 203520, Note_on_c, 0, 69, 49
1, 203520, Note_on_c, 0, 50, 28
1, 203520, Note_on_c, 0, 57, 34
1, 203946, Tempo, 348230
1, 204000, Note_on_c, 0, 57, 0
1, 204000, Note_on_c, 0, 62, 0
1, 204000, Note_on_c, 0, 69, 0
1, 204000, Note_on_c, 0, 50, 0
1, 204000, Note_on_c, 0, 74, 48
1, 204000, Note_on_c, 0, 62, 28
1, 204000, Note_on_c, 0, 69, 34
1, 204077, Tempo, 346620
1, 204208, Tempo, 345026
1, 204240, Note_on_c, 0, 74, 0
1, 204240, Note_on_c, 0, 81, 49
1, 204339, Tempo, 343446
1, 204448, Tempo, 341880
1, 204470, Tempo, 348230
1, 204480, Note_on_c, 0, 81, 0
1, 204480, Note_on_c, 0, 86, 51
1, 204492, Tempo, 349854
1, 204514, Tempo, 351494
1, 204536, Tempo, 353149
1, 204557, Tempo, 354820
1, 204579, Tempo, 356506
1, 204600, Note_on_c, 0, 86, 0
1, 204601, Tempo, 358209
1, 204623, Tempo, 359928
1, 204645, Tempo, 361664
1, 204666, Tempo, 363416
1, 204688, Tempo, 365186
1, 204710, Tempo, 366972
1, 204720, Note_on_c, 0, 90, 53
1, 204732, Tempo, 368777
1, 204754, Tempo, 370599
1, 204776, Tempo, 372439
1, 204797, Tempo, 374298
1, 204819, Tempo, 376176
1, 204840, Note_on_c, 0, 90, 0
1, 204841, Tempo, 378072
1, 204863, Tempo, 379987
1, 204885, Tempo, 381922
1, 204906, Tempo, 383877
1, 204928, Tempo, 385852
1, 204950, Tempo, 387847
1, 204960, Note_on_c, 0, 92, 55
1, 204972, Tempo, 389864
1, 204994, Tempo, 391901
1, 205016, Tempo, 393959
1, 205037, Tempo, 396040
1, 205059, Tempo, 398142
1, 205080, Note_on_c, 0, 92, 0
1, 205081, Tempo, 400267
1, 205103, Tempo, 402414
1, 205125, Tempo, 404585
1, 205146, Tempo, 406780
1, 205168, Tempo, 408998
1, 205190, Tempo, 411241
1, 205200, Note_on_c, 0, 93, 57
1, 205212, Tempo, 413508
1, 205234, Tempo, 415800
1, 205256, Tempo, 418118
1, 205277, Tempo, 420463
1, 205299, Tempo, 422833
1, 205320, Note_on_c, 0, 93, 0
1, 205321, Tempo, 425230
1, 205343, Tempo, 427655
1, 205365, Tempo, 430108
1, 205386, Tempo, 432588
1, 205408, Tempo, 435098
1, 205430, Tempo, 440205
1, 205440, Note_on_c, 0, 95, 59
1, 205452, Tempo, 445434
1, 205474, Tempo, 450789
1, 205496, Tempo, 456274
1, 205517, Tempo, 464756
1, 205539, Tempo, 470588
1, 205560, Note_on_c, 0, 95, 0
1, 205561, Tempo, 476569
1, 205583, Tempo, 482703
1, 205605, Tempo, 492207
1, 205626, Tempo, 498753
1, 205648, Tempo, 505476
1, 205680, Tempo, 692042
1, 205680, Note_on_c, 0, 97, 62
1, 205800, Note_on_c, 0, 97, 0
1, 205920, Tempo, 661521
1, 205920, Note_on_c, 0, 98, 64
1, 207360, Note_on_c, 0, 98, 0
1, 207360, Note_on_c, 0, 69, 0
1, 207360, Note_on_c, 0, 62, 0
1, 208800, Tempo, 582524
1, 208800, Control_c, 0, 64, 0
1, 208802, Tempo, 600000
1, 208802, End_track
0, 0, End_of_file
