0, 0, Header, 0, 1, 480
1, 0, Start_track
1, 0, Title_t, "Chopin Mazurka Opus 33 Nr. 4"
1, 0, Copyright_t, "Copyright © 2003 by Bernd Krueger "
1, 0, Text_t, "Frederic Chopin"
1, 0, Text_t, "Fertiggestellt am  14.7.2003\012"
1, 0, Text_t, "Update am 14.7.2010\012"
1, 0, Text_t, "Update am 25.2.2014\012"
1, 0, Text_t, "Dauer: 5:18 Minuten\012"
1, 0, SMPTE_offset, 96, 0, 3, 0, 0
1, 0, Time_signature, 3, 2, 24, 8
1, 0, Key_signature, 2, "major"
1, 0, Tempo, 500000
1, 0, Program_c, 0, 0
1, 0, Control_c, 0, 7, 100
1, 0, Control_c, 0, 10, 64
1, 0, Text_t, "bdca426d104a26ac9dcb070447587523"
1, 0, Control_c, 0, 91, 127
1, 0, Program_c, 0, 0
1, 0, Control_c, 0, 7, 100
1, 0, Control_c, 0, 10, 64
1, 960, Note_on_c, 0, 78, 55
1, 1440, Note_on_c, 0, 47, 50
1, 1493, Control_c, 0, 64, 127
1, 1680, Note_on_c, 0, 78, 0
1, 1680, Note_on_c, 0, 83, 50
1, 1920, Tempo, 552995
1, 1920, Note_on_c, 0, 83, 0
1, 1920, Note_on_c, 0, 47, 0
1, 1920, Note_on_c, 0, 79, 50
1, 1920, Note_on_c, 0, 64, 40
1, 1920, Note_on_c, 0, 59, 34
1, 1920, Note_on_c, 0, 55, 34
1, 1980, Note_on_c, 0, 79, 0
1, 1980, Note_on_c, 0, 81, 50
1, 2040, Tempo, 491803
1, 2040, Note_on_c, 0, 81, 0
1, 2040, Note_on_c, 0, 79, 57
1, 2400, Tempo, 478088
1, 2400, Note_on_c, 0, 79, 0
1, 2400, Note_on_c, 0, 64, 0
1, 2400, Note_on_c, 0, 59, 0
1, 2400, Note_on_c, 0, 55, 0
1, 2400, Note_on_c, 0, 78, 53
1, 2400, Note_on_c, 0, 64, 39
1, 2400, Note_on_c, 0, 59, 33
1, 2400, Note_on_c, 0, 55, 33
1, 2640, Tempo, 500000
1, 2640, Note_on_c, 0, 78, 0
1, 2640, Note_on_c, 0, 76, 50
1, 2880, Tempo, 436364
1, 2880, Note_on_c, 0, 76, 0
1, 2880, Note_on_c, 0, 55, 0
1, 2880, Note_on_c, 0, 59, 0
1, 2880, Note_on_c, 0, 64, 0
1, 2880, Note_on_c, 0, 78, 55
1, 2880, Note_on_c, 0, 47, 50
1, 2891, Control_c, 0, 64, 0
1, 3020, Tempo, 600000
1, 3078, Control_c, 0, 64, 127
1, 3120, Tempo, 500000
1, 3120, Note_on_c, 0, 78, 0
1, 3120, Note_on_c, 0, 71, 50
1, 3360, Tempo, 500000
1, 3360, Note_on_c, 0, 47, 0
1, 3360, Note_on_c, 0, 62, 31
1, 3360, Note_on_c, 0, 59, 26
1, 3360, Note_on_c, 0, 54, 26
1, 3840, Note_on_c, 0, 54, 0
1, 3840, Note_on_c, 0, 59, 0
1, 3840, Note_on_c, 0, 62, 0
1, 3840, Note_on_c, 0, 62, 31
1, 3840, Note_on_c, 0, 59, 26
1, 3840, Note_on_c, 0, 54, 26
1, 4320, Tempo, 500000
1, 4320, Note_on_c, 0, 54, 0
1, 4320, Note_on_c, 0, 71, 0
1, 4320, Note_on_c, 0, 62, 0
1, 4320, Note_on_c, 0, 59, 0
1, 4320, Note_on_c, 0, 73, 58
1, 4320, Note_on_c, 0, 47, 50
1, 4323, Control_c, 0, 64, 0
1, 4366, Control_c, 0, 64, 127
1, 4560, Note_on_c, 0, 73, 0
1, 4560, Note_on_c, 0, 76, 50
1, 4800, Tempo, 560748
1, 4800, Note_on_c, 0, 76, 0
1, 4800, Note_on_c, 0, 47, 0
1, 4800, Note_on_c, 0, 74, 50
1, 4800, Note_on_c, 0, 64, 40
1, 4800, Note_on_c, 0, 58, 34
1, 4800, Note_on_c, 0, 54, 34
1, 4860, Note_on_c, 0, 74, 0
1, 4860, Note_on_c, 0, 76, 50
1, 4920, Tempo, 487805
1, 4920, Note_on_c, 0, 76, 0
1, 4920, Note_on_c, 0, 74, 57
1, 5280, Tempo, 478088
1, 5280, Note_on_c, 0, 74, 0
1, 5280, Note_on_c, 0, 64, 0
1, 5280, Note_on_c, 0, 58, 0
1, 5280, Note_on_c, 0, 54, 0
1, 5280, Note_on_c, 0, 73, 53
1, 5280, Note_on_c, 0, 64, 39
1, 5280, Note_on_c, 0, 58, 33
1, 5280, Note_on_c, 0, 54, 33
1, 5292, Control_c, 0, 64, 0
1, 5520, Tempo, 500000
1, 5760, Tempo, 436364
1, 5760, Note_on_c, 0, 54, 0
1, 5760, Note_on_c, 0, 73, 0
1, 5760, Note_on_c, 0, 64, 0
1, 5760, Note_on_c, 0, 58, 0
1, 5760, Note_on_c, 0, 74, 55
1, 5760, Note_on_c, 0, 47, 50
1, 5900, Tempo, 600000
1, 5958, Control_c, 0, 64, 127
1, 6000, Tempo, 500000
1, 6000, Note_on_c, 0, 74, 0
1, 6000, Note_on_c, 0, 71, 50
1, 6240, Tempo, 491803
1, 6240, Note_on_c, 0, 47, 0
1, 6240, Note_on_c, 0, 62, 31
1, 6240, Note_on_c, 0, 59, 26
1, 6240, Note_on_c, 0, 54, 26
1, 6720, Tempo, 500000
1, 6720, Note_on_c, 0, 54, 0
1, 6720, Note_on_c, 0, 59, 0
1, 6720, Note_on_c, 0, 62, 0
1, 6720, Note_on_c, 0, 62, 31
1, 6720, Note_on_c, 0, 59, 26
1, 6720, Note_on_c, 0, 54, 26
1, 7200, Tempo, 500000
1, 7200, Note_on_c, 0, 54, 0
1, 7200, Note_on_c, 0, 71, 0
1, 7200, Note_on_c, 0, 62, 0
1, 7200, Note_on_c, 0, 59, 0
1, 7200, Note_on_c, 0, 73, 58
1, 7200, Note_on_c, 0, 37, 50
1, 7207, Control_c, 0, 64, 0
1, 7246, Control_c, 0, 64, 127
1, 7440, Note_on_c, 0, 73, 0
1, 7440, Note_on_c, 0, 71, 50
1, 7680, Tempo, 585366
1, 7680, Note_on_c, 0, 71, 0
1, 7680, Note_on_c, 0, 37, 0
1, 7680, Note_on_c, 0, 69, 46
1, 7680, Note_on_c, 0, 59, 40
1, 7680, Note_on_c, 0, 53, 34
1, 7680, Note_on_c, 0, 49, 34
1, 7698, Control_c, 0, 64, 0
1, 7740, Note_on_c, 0, 69, 0
1, 7740, Note_on_c, 0, 71, 47
1, 7800, Tempo, 489796
1, 7800, Note_on_c, 0, 71, 0
1, 7800, Note_on_c, 0, 69, 55
1, 7800, Control_c, 0, 64, 127
1, 8160, Tempo, 478088
1, 8160, Note_on_c, 0, 69, 0
1, 8160, Note_on_c, 0, 59, 0
1, 8160, Note_on_c, 0, 53, 0
1, 8160, Note_on_c, 0, 49, 0
1, 8160, Note_on_c, 0, 68, 53
1, 8160, Note_on_c, 0, 59, 39
1, 8160, Note_on_c, 0, 53, 33
1, 8160, Note_on_c, 0, 49, 33
1, 8167, Control_c, 0, 64, 0
1, 8400, Tempo, 500000
1, 8640, Tempo, 436364
1, 8640, Note_on_c, 0, 49, 0
1, 8640, Note_on_c, 0, 68, 0
1, 8640, Note_on_c, 0, 59, 0
1, 8640, Note_on_c, 0, 53, 0
1, 8640, Note_on_c, 0, 69, 55
1, 8640, Note_on_c, 0, 42, 50
1, 8780, Tempo, 600000
1, 8838, Control_c, 0, 64, 127
1, 8880, Tempo, 500000
1, 8880, Note_on_c, 0, 69, 0
1, 8880, Note_on_c, 0, 73, 50
1, 9120, Note_on_c, 0, 42, 0
1, 9120, Note_on_c, 0, 57, 37
1, 9120, Note_on_c, 0, 49, 31
1, 9360, Note_on_c, 0, 73, 0
1, 9600, Tempo, 480000
1, 9600, Note_on_c, 0, 49, 0
1, 9600, Note_on_c, 0, 57, 0
1, 9600, Note_on_c, 0, 61, 68
1, 9617, Control_c, 0, 64, 0
1, 10320, Note_on_c, 0, 61, 0
1, 10320, Note_on_c, 0, 59, 60
1, 10440, Tempo, 512821
1, 10560, Tempo, 470588
1, 10560, Note_on_c, 0, 59, 0
1, 10560, Note_on_c, 0, 57, 57
1, 10620, Note_on_c, 0, 57, 0
1, 10620, Note_on_c, 0, 59, 57
1, 10680, Note_on_c, 0, 59, 0
1, 10680, Note_on_c, 0, 57, 68
1, 11040, Tempo, 485830
1, 11040, Note_on_c, 0, 57, 0
1, 11040, Note_on_c, 0, 56, 67
1, 11520, Tempo, 463320
1, 11520, Note_on_c, 0, 56, 0
1, 11520, Note_on_c, 0, 57, 71
1, 12000, Tempo, 471661
1, 12000, Note_on_c, 0, 57, 0
1, 12000, Note_on_c, 0, 61, 67
1, 12960, Note_on_c, 0, 61, 0
1, 12960, Note_on_c, 0, 59, 71
1, 12960, Note_on_c, 0, 49, 47
1, 12960, Note_on_c, 0, 56, 58
1, 13440, Tempo, 462036
1, 13440, Note_on_c, 0, 56, 0
1, 13440, Note_on_c, 0, 59, 0
1, 13440, Note_on_c, 0, 57, 68
1, 13440, Note_on_c, 0, 54, 55
1, 13737, Control_c, 0, 64, 127
1, 13920, Tempo, 471661
1, 13920, Note_on_c, 0, 54, 0
1, 13920, Note_on_c, 0, 57, 0
1, 13920, Note_on_c, 0, 61, 68
1, 13920, Note_on_c, 0, 57, 55
1, 14400, Tempo, 531444
1, 14400, Note_on_c, 0, 57, 0
1, 14400, Note_on_c, 0, 61, 0
1, 14400, Note_on_c, 0, 49, 0
1, 14400, Note_on_c, 0, 59, 63
1, 14400, Note_on_c, 0, 49, 47
1, 14400, Note_on_c, 0, 56, 57
1, 14408, Control_c, 0, 64, 0
1, 14460, Note_on_c, 0, 59, 0
1, 14460, Note_on_c, 0, 61, 63
1, 14520, Tempo, 447761
1, 14520, Note_on_c, 0, 61, 0
1, 14520, Note_on_c, 0, 59, 73
1, 14640, Note_on_c, 0, 59, 0
1, 14640, Note_on_c, 0, 56, 0
1, 14640, Note_on_c, 0, 57, 66
1, 14640, Note_on_c, 0, 54, 51
1, 14877, Note_on_c, 0, 57, 0
1, 14880, Tempo, 471661
1, 14880, Note_on_c, 0, 54, 0
1, 14880, Note_on_c, 0, 61, 72
1, 14880, Note_on_c, 0, 57, 56
1, 15360, Note_on_c, 0, 57, 0
1, 15360, Note_on_c, 0, 61, 0
1, 15360, Note_on_c, 0, 61, 68
1, 15360, Note_on_c, 0, 57, 54
1, 15840, Tempo, 528961
1, 15840, Note_on_c, 0, 57, 0
1, 15840, Note_on_c, 0, 61, 0
1, 15840, Note_on_c, 0, 49, 0
1, 15840, Note_on_c, 0, 59, 61
1, 15840, Note_on_c, 0, 49, 47
1, 15840, Note_on_c, 0, 56, 57
1, 15900, Note_on_c, 0, 59, 0
1, 15900, Note_on_c, 0, 61, 61
1, 15960, Tempo, 449438
1, 15960, Note_on_c, 0, 61, 0
1, 15960, Note_on_c, 0, 59, 72
1, 16320, Tempo, 462036
1, 16320, Note_on_c, 0, 59, 0
1, 16320, Note_on_c, 0, 56, 0
1, 16320, Note_on_c, 0, 58, 72
1, 16320, Note_on_c, 0, 54, 56
1, 16479, Control_c, 0, 64, 127
1, 16800, Tempo, 471661
1, 16800, Note_on_c, 0, 54, 0
1, 16800, Note_on_c, 0, 58, 0
1, 16800, Note_on_c, 0, 61, 68
1, 16800, Note_on_c, 0, 58, 54
1, 17280, Tempo, 528961
1, 17280, Note_on_c, 0, 58, 0
1, 17280, Note_on_c, 0, 61, 0
1, 17280, Note_on_c, 0, 49, 0
1, 17280, Note_on_c, 0, 59, 62
1, 17280, Note_on_c, 0, 49, 47
1, 17280, Note_on_c, 0, 56, 57
1, 17326, Control_c, 0, 64, 0
1, 17340, Note_on_c, 0, 59, 0
1, 17340, Note_on_c, 0, 61, 63
1, 17400, Tempo, 458295
1, 17400, Note_on_c, 0, 61, 0
1, 17400, Note_on_c, 0, 59, 73
1, 17520, Note_on_c, 0, 59, 0
1, 17520, Note_on_c, 0, 56, 0
1, 17520, Note_on_c, 0, 58, 66
1, 17520, Note_on_c, 0, 54, 51
1, 17760, Tempo, 471661
1, 17760, Note_on_c, 0, 58, 0
1, 17760, Note_on_c, 0, 49, 0
1, 17760, Note_on_c, 0, 66, 72
1, 17760, Note_on_c, 0, 42, 47
1, 17792, Control_c, 0, 64, 127
1, 18240, Tempo, 500000
1, 18240, Note_on_c, 0, 66, 0
1, 18240, Note_on_c, 0, 54, 0
1, 18240, Note_on_c, 0, 78, 58
1, 18253, Control_c, 0, 64, 0
1, 18720, Note_on_c, 0, 42, 0
1, 18720, Note_on_c, 0, 47, 50
1, 18823, Control_c, 0, 64, 127
1, 18960, Note_on_c, 0, 78, 0
1, 18960, Note_on_c, 0, 83, 50
1, 19200, Tempo, 552995
1, 19200, Note_on_c, 0, 83, 0
1, 19200, Note_on_c, 0, 47, 0
1, 19200, Note_on_c, 0, 79, 50
1, 19200, Note_on_c, 0, 64, 40
1, 19200, Note_on_c, 0, 59, 34
1, 19200, Note_on_c, 0, 55, 34
1, 19260, Note_on_c, 0, 79, 0
1, 19260, Note_on_c, 0, 81, 50
1, 19320, Tempo, 491803
1, 19320, Note_on_c, 0, 81, 0
1, 19320, Note_on_c, 0, 79, 57
1, 19680, Tempo, 478088
1, 19680, Note_on_c, 0, 79, 0
1, 19680, Note_on_c, 0, 64, 0
1, 19680, Note_on_c, 0, 59, 0
1, 19680, Note_on_c, 0, 55, 0
1, 19680, Note_on_c, 0, 78, 53
1, 19680, Note_on_c, 0, 64, 39
1, 19680, Note_on_c, 0, 59, 33
1, 19680, Note_on_c, 0, 55, 33
1, 19920, Tempo, 500000
1, 19920, Note_on_c, 0, 78, 0
1, 19920, Note_on_c, 0, 76, 50
1, 20160, Tempo, 436364
1, 20160, Note_on_c, 0, 76, 0
1, 20160, Note_on_c, 0, 55, 0
1, 20160, Note_on_c, 0, 59, 0
1, 20160, Note_on_c, 0, 64, 0
1, 20160, Note_on_c, 0, 78, 55
1, 20160, Note_on_c, 0, 47, 50
1, 20169, Control_c, 0, 64, 0
1, 20300, Tempo, 600000
1, 20358, Control_c, 0, 64, 127
1, 20400, Tempo, 500000
1, 20400, Note_on_c, 0, 78, 0
1, 20400, Note_on_c, 0, 71, 50
1, 20640, Note_on_c, 0, 47, 0
1, 20640, Note_on_c, 0, 62, 31
1, 20640, Note_on_c, 0, 59, 26
1, 20640, Note_on_c, 0, 54, 26
1, 21120, Note_on_c, 0, 54, 0
1, 21120, Note_on_c, 0, 59, 0
1, 21120, Note_on_c, 0, 62, 0
1, 21120, Note_on_c, 0, 62, 31
1, 21120, Note_on_c, 0, 59, 26
1, 21120, Note_on_c, 0, 54, 26
1, 21600, Tempo, 500000
1, 21600, Note_on_c, 0, 54, 0
1, 21600, Note_on_c, 0, 71, 0
1, 21600, Note_on_c, 0, 62, 0
1, 21600, Note_on_c, 0, 59, 0
1, 21600, Note_on_c, 0, 73, 58
1, 21600, Note_on_c, 0, 47, 50
1, 21607, Control_c, 0, 64, 0
1, 21646, Control_c, 0, 64, 127
1, 21840, Note_on_c, 0, 73, 0
1, 21840, Note_on_c, 0, 76, 50
1, 22080, Tempo, 560748
1, 22080, Note_on_c, 0, 76, 0
1, 22080, Note_on_c, 0, 47, 0
1, 22080, Note_on_c, 0, 74, 50
1, 22080, Note_on_c, 0, 64, 40
1, 22080, Note_on_c, 0, 58, 34
1, 22080, Note_on_c, 0, 54, 34
1, 22140, Note_on_c, 0, 74, 0
1, 22140, Note_on_c, 0, 76, 50
1, 22200, Tempo, 487805
1, 22200, Note_on_c, 0, 76, 0
1, 22200, Note_on_c, 0, 74, 57
1, 22560, Tempo, 478088
1, 22560, Note_on_c, 0, 74, 0
1, 22560, Note_on_c, 0, 64, 0
1, 22560, Note_on_c, 0, 58, 0
1, 22560, Note_on_c, 0, 54, 0
1, 22560, Note_on_c, 0, 73, 53
1, 22560, Note_on_c, 0, 64, 39
1, 22560, Note_on_c, 0, 58, 33
1, 22560, Note_on_c, 0, 54, 33
1, 22571, Control_c, 0, 64, 0
1, 22800, Tempo, 500000
1, 23040, Tempo, 436364
1, 23040, Note_on_c, 0, 54, 0
1, 23040, Note_on_c, 0, 73, 0
1, 23040, Note_on_c, 0, 64, 0
1, 23040, Note_on_c, 0, 58, 0
1, 23040, Note_on_c, 0, 74, 55
1, 23040, Note_on_c, 0, 47, 50
1, 23180, Tempo, 600000
1, 23238, Control_c, 0, 64, 127
1, 23280, Tempo, 500000
1, 23280, Note_on_c, 0, 74, 0
1, 23280, Note_on_c, 0, 71, 50
1, 23520, Note_on_c, 0, 47, 0
1, 23520, Note_on_c, 0, 62, 31
1, 23520, Note_on_c, 0, 59, 26
1, 23520, Note_on_c, 0, 54, 26
1, 24000, Tempo, 472441
1, 24000, Note_on_c, 0, 54, 0
1, 24000, Note_on_c, 0, 71, 0
1, 24000, Note_on_c, 0, 62, 0
1, 24000, Note_on_c, 0, 59, 0
1, 24000, Note_on_c, 0, 50, 66
1, 24004, Control_c, 0, 64, 0
1, 24480, Note_on_c, 0, 59, 38
1, 24480, Note_on_c, 0, 65, 43
1, 24720, Note_on_c, 0, 50, 0
1, 24720, Note_on_c, 0, 55, 58
1, 24960, Tempo, 433213
1, 24960, Note_on_c, 0, 55, 0
1, 24960, Note_on_c, 0, 65, 0
1, 24960, Note_on_c, 0, 59, 0
1, 24960, Note_on_c, 0, 52, 65
1, 24960, Note_on_c, 0, 60, 34
1, 24960, Note_on_c, 0, 64, 38
1, 25120, Note_on_c, 0, 52, 0
1, 25120, Note_on_c, 0, 53, 57
1, 25280, Note_on_c, 0, 53, 0
1, 25280, Note_on_c, 0, 52, 55
1, 25440, Tempo, 472441
1, 25440, Note_on_c, 0, 52, 0
1, 25440, Note_on_c, 0, 64, 0
1, 25440, Note_on_c, 0, 60, 0
1, 25440, Note_on_c, 0, 50, 63
1, 25440, Note_on_c, 0, 60, 34
1, 25440, Note_on_c, 0, 64, 38
1, 25680, Note_on_c, 0, 50, 0
1, 25680, Note_on_c, 0, 48, 57
1, 25920, Tempo, 476190
1, 25920, Note_on_c, 0, 48, 0
1, 25920, Note_on_c, 0, 64, 0
1, 25920, Note_on_c, 0, 60, 0
1, 25920, Note_on_c, 0, 50, 64
1, 25920, Note_on_c, 0, 55, 41
1, 25920, Note_on_c, 0, 59, 41
1, 25920, Note_on_c, 0, 65, 46
1, 26280, Note_on_c, 0, 50, 0
1, 26280, Note_on_c, 0, 43, 55
1, 26400, Note_on_c, 0, 43, 0
1, 26400, Note_on_c, 0, 65, 0
1, 26400, Note_on_c, 0, 59, 0
1, 26400, Note_on_c, 0, 55, 0
1, 26400, Note_on_c, 0, 50, 64
1, 26400, Note_on_c, 0, 55, 34
1, 26400, Note_on_c, 0, 59, 34
1, 26400, Note_on_c, 0, 65, 38
1, 26880, Note_on_c, 0, 65, 0
1, 26880, Note_on_c, 0, 50, 0
1, 26880, Note_on_c, 0, 55, 0
1, 26880, Note_on_c, 0, 59, 0
1, 26880, Note_on_c, 0, 48, 59
1, 26880, Note_on_c, 0, 60, 34
1, 26880, Note_on_c, 0, 64, 38
1, 27360, Tempo, 472441
1, 27360, Note_on_c, 0, 64, 0
1, 27360, Note_on_c, 0, 60, 0
1, 27360, Note_on_c, 0, 48, 0
1, 27360, Note_on_c, 0, 50, 66
1, 27360, Note_on_c, 0, 59, 38
1, 27360, Note_on_c, 0, 65, 43
1, 27600, Note_on_c, 0, 50, 0
1, 27600, Note_on_c, 0, 55, 58
1, 27840, Tempo, 433213
1, 27840, Note_on_c, 0, 55, 0
1, 27840, Note_on_c, 0, 65, 0
1, 27840, Note_on_c, 0, 59, 0
1, 27840, Note_on_c, 0, 52, 65
1, 27840, Note_on_c, 0, 60, 34
1, 27840, Note_on_c, 0, 64, 38
1, 28000, Note_on_c, 0, 52, 0
1, 28000, Note_on_c, 0, 53, 57
1, 28160, Note_on_c, 0, 53, 0
1, 28160, Note_on_c, 0, 52, 55
1, 28320, Tempo, 472441
1, 28320, Note_on_c, 0, 52, 0
1, 28320, Note_on_c, 0, 64, 0
1, 28320, Note_on_c, 0, 60, 0
1, 28320, Note_on_c, 0, 50, 63
1, 28320, Note_on_c, 0, 60, 34
1, 28320, Note_on_c, 0, 64, 38
1, 28560, Note_on_c, 0, 50, 0
1, 28560, Note_on_c, 0, 48, 57
1, 28800, Tempo, 476190
1, 28800, Note_on_c, 0, 48, 0
1, 28800, Note_on_c, 0, 64, 0
1, 28800, Note_on_c, 0, 60, 0
1, 28800, Note_on_c, 0, 50, 64
1, 28800, Note_on_c, 0, 55, 41
1, 28800, Note_on_c, 0, 59, 41
1, 28800, Note_on_c, 0, 65, 46
1, 29160, Note_on_c, 0, 50, 0
1, 29160, Note_on_c, 0, 43, 54
1, 29280, Note_on_c, 0, 43, 0
1, 29280, Note_on_c, 0, 65, 0
1, 29280, Note_on_c, 0, 59, 0
1, 29280, Note_on_c, 0, 55, 0
1, 29280, Note_on_c, 0, 50, 62
1, 29280, Note_on_c, 0, 55, 33
1, 29280, Note_on_c, 0, 59, 33
1, 29280, Note_on_c, 0, 65, 37
1, 29760, Note_on_c, 0, 65, 0
1, 29760, Note_on_c, 0, 50, 0
1, 29760, Note_on_c, 0, 55, 0
1, 29760, Note_on_c, 0, 59, 0
1, 29760, Note_on_c, 0, 48, 56
1, 29760, Note_on_c, 0, 60, 32
1, 29760, Note_on_c, 0, 64, 36
1, 30240, Tempo, 452830
1, 30240, Note_on_c, 0, 64, 0
1, 30240, Note_on_c, 0, 60, 0
1, 30240, Note_on_c, 0, 48, 0
1, 30240, Note_on_c, 0, 50, 60
1, 30240, Note_on_c, 0, 55, 38
1, 30240, Note_on_c, 0, 59, 38
1, 30240, Note_on_c, 0, 65, 43
1, 30600, Note_on_c, 0, 50, 0
1, 30600, Note_on_c, 0, 43, 51
1, 30720, Tempo, 487805
1, 30720, Note_on_c, 0, 43, 0
1, 30720, Note_on_c, 0, 65, 0
1, 30720, Note_on_c, 0, 59, 0
1, 30720, Note_on_c, 0, 55, 0
1, 30720, Note_on_c, 0, 48, 58
1, 30720, Note_on_c, 0, 60, 31
1, 30720, Note_on_c, 0, 64, 34
1, 31200, Tempo, 466926
1, 31200, Note_on_c, 0, 64, 0
1, 31200, Note_on_c, 0, 60, 0
1, 31200, Note_on_c, 0, 48, 0
1, 31200, Note_on_c, 0, 50, 57
1, 31200, Note_on_c, 0, 55, 36
1, 31200, Note_on_c, 0, 59, 36
1, 31200, Note_on_c, 0, 65, 41
1, 31560, Note_on_c, 0, 50, 0
1, 31560, Note_on_c, 0, 43, 48
1, 31680, Tempo, 493827
1, 31680, Note_on_c, 0, 43, 0
1, 31680, Note_on_c, 0, 65, 0
1, 31680, Note_on_c, 0, 59, 0
1, 31680, Note_on_c, 0, 55, 0
1, 31680, Note_on_c, 0, 48, 56
1, 31680, Note_on_c, 0, 60, 29
1, 31680, Note_on_c, 0, 64, 29
1, 32160, Tempo, 470588
1, 32160, Note_on_c, 0, 64, 0
1, 32160, Note_on_c, 0, 60, 0
1, 32160, Note_on_c, 0, 48, 0
1, 32160, Note_on_c, 0, 50, 55
1, 32160, Note_on_c, 0, 55, 35
1, 32160, Note_on_c, 0, 59, 35
1, 32160, Note_on_c, 0, 65, 39
1, 32520, Note_on_c, 0, 50, 0
1, 32520, Note_on_c, 0, 43, 46
1, 32640, Tempo, 502092
1, 32640, Note_on_c, 0, 43, 0
1, 32640, Note_on_c, 0, 65, 0
1, 32640, Note_on_c, 0, 59, 0
1, 32640, Note_on_c, 0, 55, 0
1, 32640, Note_on_c, 0, 48, 53
1, 32640, Note_on_c, 0, 60, 28
1, 32640, Note_on_c, 0, 64, 31
1, 33120, Note_on_c, 0, 64, 0
1, 33120, Note_on_c, 0, 60, 0
1, 33120, Note_on_c, 0, 48, 0
1, 33120, Note_on_c, 0, 43, 52
1, 33120, Note_on_c, 0, 55, 52
1, 34560, Note_on_c, 0, 55, 0
1, 34560, Note_on_c, 0, 43, 0
1, 34560, Note_on_c, 0, 42, 48
1, 34560, Note_on_c, 0, 54, 48
1, 36000, Tempo, 500000
1, 36000, Note_on_c, 0, 54, 0
1, 36000, Note_on_c, 0, 42, 0
1, 36000, Note_on_c, 0, 78, 55
1, 36000, Note_on_c, 0, 35, 46
1, 36000, Note_on_c, 0, 47, 50
1, 36088, Control_c, 0, 64, 127
1, 36240, Note_on_c, 0, 78, 0
1, 36240, Note_on_c, 0, 83, 50
1, 36480, Tempo, 552995
1, 36480, Note_on_c, 0, 83, 0
1, 36480, Note_on_c, 0, 47, 0
1, 36480, Note_on_c, 0, 35, 0
1, 36480, Note_on_c, 0, 79, 50
1, 36480, Note_on_c, 0, 64, 40
1, 36480, Note_on_c, 0, 59, 34
1, 36480, Note_on_c, 0, 55, 34
1, 36540, Note_on_c, 0, 79, 0
1, 36540, Note_on_c, 0, 81, 50
1, 36600, Tempo, 491803
1, 36600, Note_on_c, 0, 81, 0
1, 36600, Note_on_c, 0, 79, 57
1, 36960, Tempo, 478088
1, 36960, Note_on_c, 0, 79, 0
1, 36960, Note_on_c, 0, 64, 0
1, 36960, Note_on_c, 0, 59, 0
1, 36960, Note_on_c, 0, 55, 0
1, 36960, Note_on_c, 0, 78, 53
1, 36960, Note_on_c, 0, 64, 39
1, 36960, Note_on_c, 0, 59, 33
1, 36960, Note_on_c, 0, 55, 33
1, 37200, Tempo, 500000
1, 37200, Note_on_c, 0, 78, 0
1, 37200, Note_on_c, 0, 76, 50
1, 37440, Tempo, 436364
1, 37440, Note_on_c, 0, 76, 0
1, 37440, Note_on_c, 0, 55, 0
1, 37440, Note_on_c, 0, 59, 0
1, 37440, Note_on_c, 0, 64, 0
1, 37440, Note_on_c, 0, 78, 55
1, 37440, Note_on_c, 0, 47, 50
1, 37451, Control_c, 0, 64, 0
1, 37580, Tempo, 600000
1, 37638, Control_c, 0, 64, 127
1, 37680, Tempo, 500000
1, 37680, Note_on_c, 0, 78, 0
1, 37680, Note_on_c, 0, 71, 50
1, 37920, Note_on_c, 0, 47, 0
1, 37920, Note_on_c, 0, 62, 31
1, 37920, Note_on_c, 0, 59, 26
1, 37920, Note_on_c, 0, 54, 26
1, 38400, Note_on_c, 0, 54, 0
1, 38400, Note_on_c, 0, 59, 0
1, 38400, Note_on_c, 0, 62, 0
1, 38400, Note_on_c, 0, 62, 31
1, 38400, Note_on_c, 0, 59, 26
1, 38400, Note_on_c, 0, 54, 26
1, 38880, Tempo, 500000
1, 38880, Note_on_c, 0, 54, 0
1, 38880, Note_on_c, 0, 71, 0
1, 38880, Note_on_c, 0, 62, 0
1, 38880, Note_on_c, 0, 59, 0
1, 38880, Note_on_c, 0, 73, 58
1, 38880, Note_on_c, 0, 47, 50
1, 38887, Control_c, 0, 64, 0
1, 38926, Control_c, 0, 64, 127
1, 39120, Note_on_c, 0, 73, 0
1, 39120, Note_on_c, 0, 76, 50
1, 39360, Tempo, 560748
1, 39360, Note_on_c, 0, 76, 0
1, 39360, Note_on_c, 0, 47, 0
1, 39360, Note_on_c, 0, 74, 50
1, 39360, Note_on_c, 0, 64, 40
1, 39360, Note_on_c, 0, 58, 34
1, 39360, Note_on_c, 0, 54, 34
1, 39420, Note_on_c, 0, 74, 0
1, 39420, Note_on_c, 0, 76, 50
1, 39480, Tempo, 487805
1, 39480, Note_on_c, 0, 76, 0
1, 39480, Note_on_c, 0, 74, 57
1, 39840, Tempo, 478088
1, 39840, Note_on_c, 0, 74, 0
1, 39840, Note_on_c, 0, 64, 0
1, 39840, Note_on_c, 0, 58, 0
1, 39840, Note_on_c, 0, 54, 0
1, 39840, Note_on_c, 0, 73, 53
1, 39840, Note_on_c, 0, 64, 39
1, 39840, Note_on_c, 0, 58, 33
1, 39840, Note_on_c, 0, 54, 33
1, 39853, Control_c, 0, 64, 0
1, 40080, Tempo, 500000
1, 40320, Tempo, 436364
1, 40320, Note_on_c, 0, 54, 0
1, 40320, Note_on_c, 0, 73, 0
1, 40320, Note_on_c, 0, 64, 0
1, 40320, Note_on_c, 0, 58, 0
1, 40320, Note_on_c, 0, 74, 55
1, 40320, Note_on_c, 0, 47, 50
1, 40460, Tempo, 600000
1, 40518, Control_c, 0, 64, 127
1, 40560, Tempo, 500000
1, 40560, Note_on_c, 0, 74, 0
1, 40560, Note_on_c, 0, 71, 50
1, 40800, Tempo, 493827
1, 40800, Note_on_c, 0, 47, 0
1, 40800, Note_on_c, 0, 62, 31
1, 40800, Note_on_c, 0, 59, 26
1, 40800, Note_on_c, 0, 54, 26
1, 41280, Note_on_c, 0, 54, 0
1, 41280, Note_on_c, 0, 59, 0
1, 41280, Note_on_c, 0, 62, 0
1, 41280, Note_on_c, 0, 62, 31
1, 41280, Note_on_c, 0, 59, 26
1, 41280, Note_on_c, 0, 54, 26
1, 41760, Tempo, 500000
1, 41760, Note_on_c, 0, 54, 0
1, 41760, Note_on_c, 0, 71, 0
1, 41760, Note_on_c, 0, 62, 0
1, 41760, Note_on_c, 0, 59, 0
1, 41760, Note_on_c, 0, 73, 58
1, 41760, Control_c, 0, 64, 0
1, 41760, Note_on_c, 0, 37, 50
1, 41806, Control_c, 0, 64, 127
1, 42000, Note_on_c, 0, 73, 0
1, 42000, Note_on_c, 0, 71, 50
1, 42240, Tempo, 585366
1, 42240, Note_on_c, 0, 71, 0
1, 42240, Note_on_c, 0, 37, 0
1, 42240, Note_on_c, 0, 69, 46
1, 42240, Note_on_c, 0, 59, 40
1, 42240, Note_on_c, 0, 53, 34
1, 42240, Note_on_c, 0, 49, 34
1, 42261, Control_c, 0, 64, 0
1, 42300, Note_on_c, 0, 69, 0
1, 42300, Note_on_c, 0, 71, 47
1, 42360, Tempo, 489796
1, 42360, Note_on_c, 0, 71, 0
1, 42360, Note_on_c, 0, 69, 55
1, 42360, Control_c, 0, 64, 127
1, 42720, Tempo, 478088
1, 42720, Note_on_c, 0, 69, 0
1, 42720, Note_on_c, 0, 59, 0
1, 42720, Note_on_c, 0, 53, 0
1, 42720, Note_on_c, 0, 49, 0
1, 42720, Note_on_c, 0, 68, 53
1, 42720, Note_on_c, 0, 59, 39
1, 42720, Note_on_c, 0, 53, 33
1, 42720, Note_on_c, 0, 49, 33
1, 42732, Control_c, 0, 64, 0
1, 42960, Tempo, 500000
1, 43200, Tempo, 436364
1, 43200, Note_on_c, 0, 49, 0
1, 43200, Note_on_c, 0, 68, 0
1, 43200, Note_on_c, 0, 59, 0
1, 43200, Note_on_c, 0, 53, 0
1, 43200, Note_on_c, 0, 69, 55
1, 43200, Note_on_c, 0, 42, 50
1, 43340, Tempo, 600000
1, 43398, Control_c, 0, 64, 127
1, 43440, Tempo, 500000
1, 43440, Note_on_c, 0, 69, 0
1, 43440, Note_on_c, 0, 73, 50
1, 43680, Note_on_c, 0, 42, 0
1, 43680, Note_on_c, 0, 57, 37
1, 43680, Note_on_c, 0, 49, 31
1, 43920, Note_on_c, 0, 73, 0
1, 44160, Tempo, 481928
1, 44160, Note_on_c, 0, 49, 0
1, 44160, Note_on_c, 0, 57, 0
1, 44160, Note_on_c, 0, 61, 68
1, 44177, Control_c, 0, 64, 0
1, 44880, Note_on_c, 0, 61, 0
1, 44880, Note_on_c, 0, 59, 60
1, 45000, Tempo, 510638
1, 45120, Tempo, 465116
1, 45120, Note_on_c, 0, 59, 0
1, 45120, Note_on_c, 0, 57, 57
1, 45180, Note_on_c, 0, 57, 0
1, 45180, Note_on_c, 0, 59, 57
1, 45240, Note_on_c, 0, 59, 0
1, 45240, Note_on_c, 0, 57, 68
1, 45600, Tempo, 485830
1, 45600, Note_on_c, 0, 57, 0
1, 45600, Note_on_c, 0, 56, 67
1, 46080, Tempo, 465116
1, 46080, Note_on_c, 0, 56, 0
1, 46080, Note_on_c, 0, 57, 71
1, 46560, Tempo, 472515
1, 46560, Note_on_c, 0, 57, 0
1, 46560, Note_on_c, 0, 61, 67
1, 47520, Note_on_c, 0, 61, 0
1, 47520, Note_on_c, 0, 59, 71
1, 47520, Note_on_c, 0, 49, 47
1, 47520, Note_on_c, 0, 56, 58
1, 48000, Tempo, 462892
1, 48000, Note_on_c, 0, 56, 0
1, 48000, Note_on_c, 0, 59, 0
1, 48000, Note_on_c, 0, 57, 68
1, 48000, Note_on_c, 0, 54, 55
1, 48480, Tempo, 472515
1, 48480, Note_on_c, 0, 54, 0
1, 48480, Note_on_c, 0, 57, 0
1, 48480, Note_on_c, 0, 61, 68
1, 48480, Note_on_c, 0, 57, 55
1, 48960, Tempo, 532434
1, 48960, Note_on_c, 0, 57, 0
1, 48960, Note_on_c, 0, 61, 0
1, 48960, Note_on_c, 0, 49, 0
1, 48960, Note_on_c, 0, 59, 63
1, 48960, Note_on_c, 0, 49, 47
1, 48960, Note_on_c, 0, 56, 57
1, 49020, Note_on_c, 0, 59, 0
1, 49020, Note_on_c, 0, 61, 63
1, 49080, Tempo, 449438
1, 49080, Note_on_c, 0, 61, 0
1, 49080, Note_on_c, 0, 59, 73
1, 49200, Note_on_c, 0, 59, 0
1, 49200, Note_on_c, 0, 56, 0
1, 49200, Note_on_c, 0, 57, 66
1, 49200, Note_on_c, 0, 54, 51
1, 49436, Note_on_c, 0, 57, 0
1, 49440, Tempo, 472515
1, 49440, Note_on_c, 0, 54, 0
1, 49440, Note_on_c, 0, 61, 72
1, 49440, Note_on_c, 0, 57, 56
1, 49920, Note_on_c, 0, 57, 0
1, 49920, Note_on_c, 0, 61, 0
1, 49920, Note_on_c, 0, 61, 68
1, 49920, Note_on_c, 0, 57, 54
1, 50400, Tempo, 529942
1, 50400, Note_on_c, 0, 57, 0
1, 50400, Note_on_c, 0, 61, 0
1, 50400, Note_on_c, 0, 49, 0
1, 50400, Note_on_c, 0, 59, 61
1, 50400, Note_on_c, 0, 49, 47
1, 50400, Note_on_c, 0, 56, 57
1, 50460, Note_on_c, 0, 59, 0
1, 50460, Note_on_c, 0, 61, 61
1, 50520, Tempo, 447761
1, 50520, Note_on_c, 0, 61, 0
1, 50520, Note_on_c, 0, 59, 72
1, 50880, Tempo, 462892
1, 50880, Note_on_c, 0, 59, 0
1, 50880, Note_on_c, 0, 56, 0
1, 50880, Note_on_c, 0, 58, 72
1, 50880, Note_on_c, 0, 54, 56
1, 50961, Control_c, 0, 64, 127
1, 51360, Tempo, 472515
1, 51360, Note_on_c, 0, 54, 0
1, 51360, Note_on_c, 0, 58, 0
1, 51360, Note_on_c, 0, 61, 68
1, 51360, Note_on_c, 0, 58, 54
1, 51840, Tempo, 529942
1, 51840, Note_on_c, 0, 58, 0
1, 51840, Note_on_c, 0, 61, 0
1, 51840, Note_on_c, 0, 49, 0
1, 51840, Note_on_c, 0, 59, 62
1, 51840, Note_on_c, 0, 49, 47
1, 51840, Note_on_c, 0, 56, 57
1, 51847, Control_c, 0, 64, 0
1, 51900, Note_on_c, 0, 59, 0
1, 51900, Note_on_c, 0, 61, 63
1, 51960, Tempo, 459137
1, 51960, Note_on_c, 0, 61, 0
1, 51960, Note_on_c, 0, 59, 73
1, 52080, Note_on_c, 0, 59, 0
1, 52080, Note_on_c, 0, 56, 0
1, 52080, Note_on_c, 0, 58, 66
1, 52080, Note_on_c, 0, 54, 51
1, 52320, Tempo, 472515
1, 52320, Note_on_c, 0, 58, 0
1, 52320, Note_on_c, 0, 49, 0
1, 52320, Note_on_c, 0, 66, 72
1, 52320, Note_on_c, 0, 42, 47
1, 52352, Control_c, 0, 64, 127
1, 52800, Tempo, 500000
1, 52800, Note_on_c, 0, 66, 0
1, 52800, Note_on_c, 0, 54, 0
1, 52800, Note_on_c, 0, 78, 58
1, 52811, Control_c, 0, 64, 0
1, 53280, Note_on_c, 0, 42, 0
1, 53280, Note_on_c, 0, 47, 50
1, 53354, Control_c, 0, 64, 127
1, 53520, Note_on_c, 0, 78, 0
1, 53520, Note_on_c, 0, 83, 50
1, 53760, Tempo, 552995
1, 53760, Note_on_c, 0, 83, 0
1, 53760, Note_on_c, 0, 47, 0
1, 53760, Note_on_c, 0, 79, 50
1, 53760, Note_on_c, 0, 64, 40
1, 53760, Note_on_c, 0, 59, 34
1, 53760, Note_on_c, 0, 55, 34
1, 53820, Note_on_c, 0, 79, 0
1, 53820, Note_on_c, 0, 81, 50
1, 53880, Tempo, 491803
1, 53880, Note_on_c, 0, 81, 0
1, 53880, Note_on_c, 0, 79, 57
1, 54240, Tempo, 478088
1, 54240, Note_on_c, 0, 79, 0
1, 54240, Note_on_c, 0, 64, 0
1, 54240, Note_on_c, 0, 59, 0
1, 54240, Note_on_c, 0, 55, 0
1, 54240, Note_on_c, 0, 78, 53
1, 54240, Note_on_c, 0, 64, 39
1, 54240, Note_on_c, 0, 59, 33
1, 54240, Note_on_c, 0, 55, 33
1, 54480, Tempo, 500000
1, 54480, Note_on_c, 0, 78, 0
1, 54480, Note_on_c, 0, 76, 50
1, 54720, Tempo, 436364
1, 54720, Note_on_c, 0, 76, 0
1, 54720, Note_on_c, 0, 55, 0
1, 54720, Note_on_c, 0, 59, 0
1, 54720, Note_on_c, 0, 64, 0
1, 54720, Note_on_c, 0, 78, 55
1, 54720, Note_on_c, 0, 47, 50
1, 54727, Control_c, 0, 64, 0
1, 54860, Tempo, 600000
1, 54918, Control_c, 0, 64, 127
1, 54960, Tempo, 500000
1, 54960, Note_on_c, 0, 78, 0
1, 54960, Note_on_c, 0, 71, 50
1, 55200, Tempo, 487805
1, 55200, Note_on_c, 0, 47, 0
1, 55200, Note_on_c, 0, 62, 31
1, 55200, Note_on_c, 0, 59, 26
1, 55200, Note_on_c, 0, 54, 26
1, 55680, Tempo, 500000
1, 55680, Note_on_c, 0, 54, 0
1, 55680, Note_on_c, 0, 59, 0
1, 55680, Note_on_c, 0, 62, 0
1, 55680, Note_on_c, 0, 62, 31
1, 55680, Note_on_c, 0, 59, 26
1, 55680, Note_on_c, 0, 54, 26
1, 56160, Tempo, 500000
1, 56160, Note_on_c, 0, 54, 0
1, 56160, Note_on_c, 0, 71, 0
1, 56160, Note_on_c, 0, 62, 0
1, 56160, Note_on_c, 0, 59, 0
1, 56160, Note_on_c, 0, 73, 58
1, 56160, Note_on_c, 0, 47, 50
1, 56169, Control_c, 0, 64, 0
1, 56245, Control_c, 0, 64, 127
1, 56400, Note_on_c, 0, 73, 0
1, 56400, Note_on_c, 0, 76, 50
1, 56640, Tempo, 560748
1, 56640, Note_on_c, 0, 76, 0
1, 56640, Note_on_c, 0, 47, 0
1, 56640, Note_on_c, 0, 74, 50
1, 56640, Note_on_c, 0, 64, 40
1, 56640, Note_on_c, 0, 58, 34
1, 56640, Note_on_c, 0, 54, 34
1, 56700, Note_on_c, 0, 74, 0
1, 56700, Note_on_c, 0, 76, 50
1, 56760, Tempo, 487805
1, 56760, Note_on_c, 0, 76, 0
1, 56760, Note_on_c, 0, 74, 57
1, 57120, Tempo, 478088
1, 57120, Note_on_c, 0, 74, 0
1, 57120, Note_on_c, 0, 64, 0
1, 57120, Note_on_c, 0, 58, 0
1, 57120, Note_on_c, 0, 54, 0
1, 57120, Note_on_c, 0, 73, 53
1, 57120, Note_on_c, 0, 64, 39
1, 57120, Note_on_c, 0, 58, 33
1, 57120, Note_on_c, 0, 54, 33
1, 57134, Control_c, 0, 64, 0
1, 57360, Tempo, 500000
1, 57600, Tempo, 436364
1, 57600, Note_on_c, 0, 54, 0
1, 57600, Note_on_c, 0, 73, 0
1, 57600, Note_on_c, 0, 64, 0
1, 57600, Note_on_c, 0, 58, 0
1, 57600, Note_on_c, 0, 74, 55
1, 57600, Note_on_c, 0, 47, 50
1, 57740, Tempo, 600000
1, 57798, Control_c, 0, 64, 127
1, 57840, Tempo, 500000
1, 57840, Note_on_c, 0, 74, 0
1, 57840, Note_on_c, 0, 71, 50
1, 58080, Note_on_c, 0, 47, 0
1, 58080, Note_on_c, 0, 62, 31
1, 58080, Note_on_c, 0, 59, 26
1, 58080, Note_on_c, 0, 54, 26
1, 58504, Control_c, 0, 64, 0
1, 58560, Tempo, 472441
1, 58560, Note_on_c, 0, 54, 0
1, 58560, Note_on_c, 0, 71, 0
1, 58560, Note_on_c, 0, 62, 0
1, 58560, Note_on_c, 0, 59, 0
1, 58560, Note_on_c, 0, 50, 66
1, 59040, Note_on_c, 0, 59, 38
1, 59040, Note_on_c, 0, 65, 43
1, 59280, Note_on_c, 0, 50, 0
1, 59280, Note_on_c, 0, 55, 58
1, 59520, Tempo, 433213
1, 59520, Note_on_c, 0, 55, 0
1, 59520, Note_on_c, 0, 65, 0
1, 59520, Note_on_c, 0, 59, 0
1, 59520, Note_on_c, 0, 52, 65
1, 59520, Note_on_c, 0, 60, 34
1, 59520, Note_on_c, 0, 64, 38
1, 59680, Note_on_c, 0, 52, 0
1, 59680, Note_on_c, 0, 53, 57
1, 59840, Note_on_c, 0, 53, 0
1, 59840, Note_on_c, 0, 52, 55
1, 60000, Tempo, 472441
1, 60000, Note_on_c, 0, 52, 0
1, 60000, Note_on_c, 0, 64, 0
1, 60000, Note_on_c, 0, 60, 0
1, 60000, Note_on_c, 0, 50, 63
1, 60000, Note_on_c, 0, 60, 34
1, 60000, Note_on_c, 0, 64, 38
1, 60240, Note_on_c, 0, 50, 0
1, 60240, Note_on_c, 0, 48, 57
1, 60480, Tempo, 476190
1, 60480, Note_on_c, 0, 48, 0
1, 60480, Note_on_c, 0, 64, 0
1, 60480, Note_on_c, 0, 60, 0
1, 60480, Note_on_c, 0, 50, 64
1, 60480, Note_on_c, 0, 55, 41
1, 60480, Note_on_c, 0, 59, 41
1, 60480, Note_on_c, 0, 65, 46
1, 60840, Note_on_c, 0, 50, 0
1, 60840, Note_on_c, 0, 43, 55
1, 60960, Note_on_c, 0, 43, 0
1, 60960, Note_on_c, 0, 65, 0
1, 60960, Note_on_c, 0, 59, 0
1, 60960, Note_on_c, 0, 55, 0
1, 60960, Note_on_c, 0, 50, 64
1, 60960, Note_on_c, 0, 55, 34
1, 60960, Note_on_c, 0, 59, 34
1, 60960, Note_on_c, 0, 65, 38
1, 61440, Note_on_c, 0, 65, 0
1, 61440, Note_on_c, 0, 50, 0
1, 61440, Note_on_c, 0, 55, 0
1, 61440, Note_on_c, 0, 59, 0
1, 61440, Note_on_c, 0, 48, 59
1, 61440, Note_on_c, 0, 60, 34
1, 61440, Note_on_c, 0, 64, 38
1, 61920, Tempo, 472441
1, 61920, Note_on_c, 0, 64, 0
1, 61920, Note_on_c, 0, 60, 0
1, 61920, Note_on_c, 0, 48, 0
1, 61920, Note_on_c, 0, 50, 66
1, 61920, Note_on_c, 0, 59, 38
1, 61920, Note_on_c, 0, 65, 43
1, 62160, Note_on_c, 0, 50, 0
1, 62160, Note_on_c, 0, 55, 58
1, 62400, Tempo, 433213
1, 62400, Note_on_c, 0, 55, 0
1, 62400, Note_on_c, 0, 65, 0
1, 62400, Note_on_c, 0, 59, 0
1, 62400, Note_on_c, 0, 52, 65
1, 62400, Note_on_c, 0, 60, 34
1, 62400, Note_on_c, 0, 64, 38
1, 62560, Note_on_c, 0, 52, 0
1, 62560, Note_on_c, 0, 53, 57
1, 62720, Note_on_c, 0, 53, 0
1, 62720, Note_on_c, 0, 52, 55
1, 62880, Tempo, 472441
1, 62880, Note_on_c, 0, 52, 0
1, 62880, Note_on_c, 0, 64, 0
1, 62880, Note_on_c, 0, 60, 0
1, 62880, Note_on_c, 0, 50, 63
1, 62880, Note_on_c, 0, 60, 34
1, 62880, Note_on_c, 0, 64, 38
1, 63120, Note_on_c, 0, 50, 0
1, 63120, Note_on_c, 0, 48, 57
1, 63360, Tempo, 476190
1, 63360, Note_on_c, 0, 48, 0
1, 63360, Note_on_c, 0, 64, 0
1, 63360, Note_on_c, 0, 60, 0
1, 63360, Note_on_c, 0, 50, 64
1, 63360, Note_on_c, 0, 55, 41
1, 63360, Note_on_c, 0, 59, 41
1, 63360, Note_on_c, 0, 65, 46
1, 63720, Note_on_c, 0, 50, 0
1, 63720, Note_on_c, 0, 43, 54
1, 63840, Note_on_c, 0, 43, 0
1, 63840, Note_on_c, 0, 65, 0
1, 63840, Note_on_c, 0, 59, 0
1, 63840, Note_on_c, 0, 55, 0
1, 63840, Note_on_c, 0, 50, 62
1, 63840, Note_on_c, 0, 55, 33
1, 63840, Note_on_c, 0, 59, 33
1, 63840, Note_on_c, 0, 65, 37
1, 64320, Note_on_c, 0, 65, 0
1, 64320, Note_on_c, 0, 50, 0
1, 64320, Note_on_c, 0, 55, 0
1, 64320, Note_on_c, 0, 59, 0
1, 64320, Note_on_c, 0, 48, 56
1, 64320, Note_on_c, 0, 60, 32
1, 64320, Note_on_c, 0, 64, 36
1, 64800, Tempo, 452830
1, 64800, Note_on_c, 0, 64, 0
1, 64800, Note_on_c, 0, 60, 0
1, 64800, Note_on_c, 0, 48, 0
1, 64800, Note_on_c, 0, 50, 60
1, 64800, Note_on_c, 0, 55, 38
1, 64800, Note_on_c, 0, 59, 38
1, 64800, Note_on_c, 0, 65, 43
1, 65160, Note_on_c, 0, 50, 0
1, 65160, Note_on_c, 0, 43, 51
1, 65280, Tempo, 487805
1, 65280, Note_on_c, 0, 43, 0
1, 65280, Note_on_c, 0, 65, 0
1, 65280, Note_on_c, 0, 59, 0
1, 65280, Note_on_c, 0, 55, 0
1, 65280, Note_on_c, 0, 48, 58
1, 65280, Note_on_c, 0, 60, 31
1, 65280, Note_on_c, 0, 64, 34
1, 65760, Tempo, 466926
1, 65760, Note_on_c, 0, 64, 0
1, 65760, Note_on_c, 0, 60, 0
1, 65760, Note_on_c, 0, 48, 0
1, 65760, Note_on_c, 0, 50, 57
1, 65760, Note_on_c, 0, 55, 36
1, 65760, Note_on_c, 0, 59, 36
1, 65760, Note_on_c, 0, 65, 41
1, 66120, Note_on_c, 0, 50, 0
1, 66120, Note_on_c, 0, 43, 48
1, 66240, Tempo, 493827
1, 66240, Note_on_c, 0, 43, 0
1, 66240, Note_on_c, 0, 65, 0
1, 66240, Note_on_c, 0, 59, 0
1, 66240, Note_on_c, 0, 55, 0
1, 66240, Note_on_c, 0, 48, 56
1, 66240, Note_on_c, 0, 60, 29
1, 66240, Note_on_c, 0, 64, 29
1, 66720, Tempo, 470588
1, 66720, Note_on_c, 0, 64, 0
1, 66720, Note_on_c, 0, 60, 0
1, 66720, Note_on_c, 0, 48, 0
1, 66720, Note_on_c, 0, 50, 55
1, 66720, Note_on_c, 0, 55, 35
1, 66720, Note_on_c, 0, 59, 35
1, 66720, Note_on_c, 0, 65, 39
1, 67080, Note_on_c, 0, 50, 0
1, 67080, Note_on_c, 0, 43, 46
1, 67200, Tempo, 502092
1, 67200, Note_on_c, 0, 43, 0
1, 67200, Note_on_c, 0, 65, 0
1, 67200, Note_on_c, 0, 59, 0
1, 67200, Note_on_c, 0, 55, 0
1, 67200, Note_on_c, 0, 48, 53
1, 67200, Note_on_c, 0, 60, 28
1, 67200, Note_on_c, 0, 64, 31
1, 67680, Note_on_c, 0, 64, 0
1, 67680, Note_on_c, 0, 60, 0
1, 67680, Note_on_c, 0, 48, 0
1, 67680, Note_on_c, 0, 43, 52
1, 67680, Note_on_c, 0, 55, 52
1, 69120, Tempo, 515021
1, 69120, Note_on_c, 0, 55, 0
1, 69120, Note_on_c, 0, 43, 0
1, 69120, Note_on_c, 0, 42, 60
1, 69120, Note_on_c, 0, 54, 59
1, 70080, Tempo, 582524
1, 70080, Note_on_c, 0, 54, 0
1, 70080, Note_on_c, 0, 42, 0
1, 70080, Note_on_c, 0, 41, 66
1, 70080, Note_on_c, 0, 53, 62
1, 70560, Key_signature, -2, "major"
1, 70560, Tempo, 400000
1, 70560, Note_on_c, 0, 53, 0
1, 70560, Note_on_c, 0, 41, 0
1, 70560, Note_on_c, 0, 34, 74
1, 70659, Control_c, 0, 64, 127
1, 70800, Note_on_c, 0, 34, 0
1, 71040, Tempo, 377358
1, 71040, Note_on_c, 0, 65, 68
1, 71040, Note_on_c, 0, 70, 68
1, 71040, Note_on_c, 0, 74, 80
1, 71040, Note_on_c, 0, 53, 54
1, 71040, Note_on_c, 0, 62, 64
1, 71040, Note_on_c, 0, 58, 54
1, 71520, Note_on_c, 0, 58, 0
1, 71520, Note_on_c, 0, 70, 0
1, 71520, Note_on_c, 0, 74, 0
1, 71520, Note_on_c, 0, 65, 0
1, 71520, Note_on_c, 0, 62, 0
1, 71520, Note_on_c, 0, 53, 0
1, 71520, Note_on_c, 0, 66, 68
1, 71520, Note_on_c, 0, 70, 68
1, 71520, Note_on_c, 0, 75, 80
1, 71520, Note_on_c, 0, 63, 64
1, 71520, Note_on_c, 0, 58, 64
1, 71520, Note_on_c, 0, 54, 64
1, 71539, Control_c, 0, 64, 0
1, 71690, Control_c, 0, 64, 127
1, 72000, Tempo, 361446
1, 72000, Note_on_c, 0, 54, 0
1, 72000, Note_on_c, 0, 70, 0
1, 72000, Note_on_c, 0, 75, 0
1, 72000, Note_on_c, 0, 66, 0
1, 72000, Note_on_c, 0, 58, 0
1, 72000, Note_on_c, 0, 63, 0
1, 72000, Note_on_c, 0, 78, 86
1, 72000, Note_on_c, 0, 46, 73
1, 72008, Control_c, 0, 64, 0
1, 72097, Control_c, 0, 64, 127
1, 72120, Note_on_c, 0, 78, 0
1, 72240, Note_on_c, 0, 46, 0
1, 72360, Tempo, 342857
1, 72360, Note_on_c, 0, 77, 80
1, 72360, Note_on_c, 0, 74, 61
1, 72460, Tempo, 349854
1, 72480, Note_on_c, 0, 74, 0
1, 72480, Note_on_c, 0, 72, 61
1, 72480, Note_on_c, 0, 65, 68
1, 72480, Note_on_c, 0, 62, 57
1, 72480, Note_on_c, 0, 58, 57
1, 72840, Note_on_c, 0, 72, 0
1, 72840, Note_on_c, 0, 77, 0
1, 72840, Note_on_c, 0, 74, 61
1, 72840, Note_on_c, 0, 77, 80
1, 72960, Tempo, 384615
1, 72960, Note_on_c, 0, 74, 0
1, 72960, Note_on_c, 0, 70, 80
1, 72960, Note_on_c, 0, 53, 68
1, 72972, Control_c, 0, 64, 0
1, 73320, Note_on_c, 0, 77, 0
1, 73440, Note_on_c, 0, 65, 0
1, 73440, Note_on_c, 0, 62, 0
1, 73440, Note_on_c, 0, 58, 0
1, 73440, Note_on_c, 0, 53, 0
1, 73440, Note_on_c, 0, 70, 0
1, 73440, Note_on_c, 0, 82, 85
1, 73440, Note_on_c, 0, 34, 72
1, 73560, Control_c, 0, 64, 127
1, 73680, Note_on_c, 0, 34, 0
1, 73680, Note_on_c, 0, 82, 0
1, 73920, Tempo, 377358
1, 73920, Note_on_c, 0, 65, 68
1, 73920, Note_on_c, 0, 70, 68
1, 73920, Note_on_c, 0, 74, 80
1, 73920, Note_on_c, 0, 53, 54
1, 73920, Note_on_c, 0, 62, 64
1, 73920, Note_on_c, 0, 58, 54
1, 74400, Note_on_c, 0, 58, 0
1, 74400, Note_on_c, 0, 70, 0
1, 74400, Note_on_c, 0, 74, 0
1, 74400, Note_on_c, 0, 65, 0
1, 74400, Note_on_c, 0, 62, 0
1, 74400, Note_on_c, 0, 53, 0
1, 74400, Note_on_c, 0, 66, 68
1, 74400, Note_on_c, 0, 70, 68
1, 74400, Note_on_c, 0, 75, 80
1, 74400, Note_on_c, 0, 63, 64
1, 74400, Note_on_c, 0, 58, 64
1, 74400, Note_on_c, 0, 54, 64
1, 74408, Control_c, 0, 64, 0
1, 74541, Control_c, 0, 64, 127
1, 74880, Tempo, 361446
1, 74880, Note_on_c, 0, 54, 0
1, 74880, Note_on_c, 0, 70, 0
1, 74880, Note_on_c, 0, 75, 0
1, 74880, Note_on_c, 0, 66, 0
1, 74880, Note_on_c, 0, 58, 0
1, 74880, Note_on_c, 0, 63, 0
1, 74880, Note_on_c, 0, 78, 86
1, 74880, Note_on_c, 0, 46, 73
1, 74886, Control_c, 0, 64, 0
1, 74977, Control_c, 0, 64, 127
1, 75000, Note_on_c, 0, 78, 0
1, 75120, Note_on_c, 0, 46, 0
1, 75240, Tempo, 343840
1, 75240, Note_on_c, 0, 77, 80
1, 75240, Note_on_c, 0, 74, 61
1, 75360, Tempo, 351906
1, 75360, Note_on_c, 0, 74, 0
1, 75360, Note_on_c, 0, 72, 61
1, 75360, Note_on_c, 0, 65, 68
1, 75360, Note_on_c, 0, 62, 57
1, 75360, Note_on_c, 0, 58, 57
1, 75720, Note_on_c, 0, 72, 0
1, 75720, Note_on_c, 0, 77, 0
1, 75720, Note_on_c, 0, 74, 61
1, 75720, Note_on_c, 0, 77, 80
1, 75840, Tempo, 384615
1, 75840, Note_on_c, 0, 74, 0
1, 75840, Note_on_c, 0, 70, 80
1, 75840, Note_on_c, 0, 53, 68
1, 75852, Control_c, 0, 64, 0
1, 76200, Note_on_c, 0, 77, 0
1, 76320, Tempo, 400000
1, 76320, Note_on_c, 0, 65, 0
1, 76320, Note_on_c, 0, 62, 0
1, 76320, Note_on_c, 0, 58, 0
1, 76320, Note_on_c, 0, 53, 0
1, 76320, Note_on_c, 0, 70, 0
1, 76320, Note_on_c, 0, 34, 79
1, 76419, Control_c, 0, 64, 127
1, 76560, Note_on_c, 0, 34, 0
1, 76800, Tempo, 377358
1, 76800, Note_on_c, 0, 65, 68
1, 76800, Note_on_c, 0, 70, 68
1, 76800, Note_on_c, 0, 74, 80
1, 76800, Note_on_c, 0, 53, 54
1, 76800, Note_on_c, 0, 62, 64
1, 76800, Note_on_c, 0, 58, 54
1, 77280, Note_on_c, 0, 58, 0
1, 77280, Note_on_c, 0, 70, 0
1, 77280, Note_on_c, 0, 74, 0
1, 77280, Note_on_c, 0, 65, 0
1, 77280, Note_on_c, 0, 62, 0
1, 77280, Note_on_c, 0, 53, 0
1, 77280, Note_on_c, 0, 66, 68
1, 77280, Note_on_c, 0, 70, 68
1, 77280, Note_on_c, 0, 75, 80
1, 77280, Note_on_c, 0, 63, 64
1, 77280, Note_on_c, 0, 58, 64
1, 77280, Note_on_c, 0, 54, 64
1, 77289, Control_c, 0, 64, 0
1, 77421, Control_c, 0, 64, 127
1, 77760, Tempo, 361446
1, 77760, Note_on_c, 0, 54, 0
1, 77760, Note_on_c, 0, 70, 0
1, 77760, Note_on_c, 0, 75, 0
1, 77760, Note_on_c, 0, 66, 0
1, 77760, Note_on_c, 0, 58, 0
1, 77760, Note_on_c, 0, 63, 0
1, 77760, Note_on_c, 0, 78, 86
1, 77760, Note_on_c, 0, 46, 73
1, 77770, Control_c, 0, 64, 0
1, 77857, Control_c, 0, 64, 127
1, 77880, Note_on_c, 0, 78, 0
1, 78000, Note_on_c, 0, 46, 0
1, 78120, Tempo, 342857
1, 78120, Note_on_c, 0, 77, 80
1, 78120, Note_on_c, 0, 74, 61
1, 78240, Tempo, 347826
1, 78240, Note_on_c, 0, 74, 0
1, 78240, Note_on_c, 0, 72, 61
1, 78240, Note_on_c, 0, 65, 68
1, 78240, Note_on_c, 0, 62, 57
1, 78240, Note_on_c, 0, 58, 57
1, 78600, Note_on_c, 0, 72, 0
1, 78600, Note_on_c, 0, 77, 0
1, 78600, Note_on_c, 0, 74, 61
1, 78600, Note_on_c, 0, 77, 80
1, 78720, Tempo, 384615
1, 78720, Note_on_c, 0, 74, 0
1, 78720, Note_on_c, 0, 70, 80
1, 78720, Note_on_c, 0, 53, 68
1, 78732, Control_c, 0, 64, 0
1, 79080, Note_on_c, 0, 77, 0
1, 79200, Note_on_c, 0, 65, 0
1, 79200, Note_on_c, 0, 62, 0
1, 79200, Note_on_c, 0, 58, 0
1, 79200, Note_on_c, 0, 53, 0
1, 79200, Note_on_c, 0, 70, 0
1, 79200, Note_on_c, 0, 94, 85
1, 79200, Note_on_c, 0, 82, 80
1, 79200, Note_on_c, 0, 46, 72
1, 79200, Note_on_c, 0, 34, 69
1, 79320, Control_c, 0, 64, 127
1, 79440, Note_on_c, 0, 34, 0
1, 79440, Note_on_c, 0, 94, 0
1, 79440, Note_on_c, 0, 82, 0
1, 79440, Note_on_c, 0, 46, 0
1, 79680, Tempo, 377358
1, 79680, Note_on_c, 0, 65, 68
1, 79680, Note_on_c, 0, 70, 68
1, 79680, Note_on_c, 0, 74, 80
1, 79680, Note_on_c, 0, 53, 54
1, 79680, Note_on_c, 0, 62, 64
1, 79680, Note_on_c, 0, 58, 54
1, 80160, Note_on_c, 0, 58, 0
1, 80160, Note_on_c, 0, 70, 0
1, 80160, Note_on_c, 0, 74, 0
1, 80160, Note_on_c, 0, 65, 0
1, 80160, Note_on_c, 0, 62, 0
1, 80160, Note_on_c, 0, 53, 0
1, 80160, Note_on_c, 0, 66, 68
1, 80160, Note_on_c, 0, 70, 68
1, 80160, Note_on_c, 0, 75, 80
1, 80160, Note_on_c, 0, 63, 64
1, 80160, Note_on_c, 0, 58, 64
1, 80160, Note_on_c, 0, 54, 64
1, 80177, Control_c, 0, 64, 0
1, 80316, Control_c, 0, 64, 127
1, 80640, Tempo, 361446
1, 80640, Note_on_c, 0, 54, 0
1, 80640, Note_on_c, 0, 70, 0
1, 80640, Note_on_c, 0, 75, 0
1, 80640, Note_on_c, 0, 66, 0
1, 80640, Note_on_c, 0, 58, 0
1, 80640, Note_on_c, 0, 63, 0
1, 80640, Note_on_c, 0, 78, 86
1, 80640, Note_on_c, 0, 46, 73
1, 80648, Control_c, 0, 64, 0
1, 80737, Control_c, 0, 64, 127
1, 80760, Note_on_c, 0, 78, 0
1, 80880, Note_on_c, 0, 46, 0
1, 81000, Tempo, 344828
1, 81000, Note_on_c, 0, 77, 80
1, 81000, Note_on_c, 0, 74, 61
1, 81120, Tempo, 349854
1, 81120, Note_on_c, 0, 74, 0
1, 81120, Note_on_c, 0, 72, 61
1, 81120, Note_on_c, 0, 65, 68
1, 81120, Note_on_c, 0, 62, 57
1, 81120, Note_on_c, 0, 58, 57
1, 81480, Note_on_c, 0, 72, 0
1, 81480, Note_on_c, 0, 77, 0
1, 81480, Note_on_c, 0, 74, 61
1, 81480, Note_on_c, 0, 77, 80
1, 81600, Tempo, 384615
1, 81600, Note_on_c, 0, 74, 0
1, 81600, Note_on_c, 0, 70, 80
1, 81600, Note_on_c, 0, 53, 68
1, 81612, Control_c, 0, 64, 0
1, 81960, Note_on_c, 0, 77, 0
1, 82080, Tempo, 400000
1, 82080, Note_on_c, 0, 65, 0
1, 82080, Note_on_c, 0, 62, 0
1, 82080, Note_on_c, 0, 58, 0
1, 82080, Note_on_c, 0, 53, 0
1, 82080, Note_on_c, 0, 70, 0
1, 82080, Note_on_c, 0, 39, 81
1, 82179, Control_c, 0, 64, 127
1, 82320, Note_on_c, 0, 39, 0
1, 82560, Tempo, 377358
1, 82560, Note_on_c, 0, 70, 68
1, 82560, Note_on_c, 0, 75, 68
1, 82560, Note_on_c, 0, 79, 80
1, 82560, Note_on_c, 0, 58, 54
1, 82560, Note_on_c, 0, 67, 64
1, 82560, Note_on_c, 0, 63, 54
1, 83040, Note_on_c, 0, 63, 0
1, 83040, Note_on_c, 0, 75, 0
1, 83040, Note_on_c, 0, 79, 0
1, 83040, Note_on_c, 0, 70, 0
1, 83040, Note_on_c, 0, 67, 0
1, 83040, Note_on_c, 0, 58, 0
1, 83040, Note_on_c, 0, 71, 68
1, 83040, Note_on_c, 0, 75, 68
1, 83040, Note_on_c, 0, 80, 80
1, 83040, Note_on_c, 0, 68, 64
1, 83040, Note_on_c, 0, 63, 64
1, 83040, Note_on_c, 0, 59, 64
1, 83051, Control_c, 0, 64, 0
1, 83196, Control_c, 0, 64, 127
1, 83520, Tempo, 361446
1, 83520, Note_on_c, 0, 59, 0
1, 83520, Note_on_c, 0, 75, 0
1, 83520, Note_on_c, 0, 80, 0
1, 83520, Note_on_c, 0, 71, 0
1, 83520, Note_on_c, 0, 63, 0
1, 83520, Note_on_c, 0, 68, 0
1, 83520, Note_on_c, 0, 83, 88
1, 83520, Control_c, 0, 64, 0
1, 83520, Note_on_c, 0, 51, 73
1, 83617, Control_c, 0, 64, 127
1, 83640, Note_on_c, 0, 83, 0
1, 83760, Note_on_c, 0, 51, 0
1, 83880, Note_on_c, 0, 82, 88
1, 83880, Note_on_c, 0, 79, 61
1, 84000, Tempo, 350877
1, 84000, Note_on_c, 0, 79, 0
1, 84000, Note_on_c, 0, 77, 61
1, 84000, Note_on_c, 0, 67, 68
1, 84000, Note_on_c, 0, 63, 57
1, 84000, Note_on_c, 0, 58, 57
1, 84360, Note_on_c, 0, 77, 0
1, 84360, Note_on_c, 0, 82, 0
1, 84360, Note_on_c, 0, 79, 61
1, 84360, Note_on_c, 0, 82, 88
1, 84480, Tempo, 384615
1, 84480, Note_on_c, 0, 79, 0
1, 84480, Note_on_c, 0, 63, 0
1, 84480, Note_on_c, 0, 58, 0
1, 84480, Note_on_c, 0, 67, 0
1, 84480, Note_on_c, 0, 75, 80
1, 84480, Note_on_c, 0, 51, 68
1, 84496, Control_c, 0, 64, 0
1, 84840, Note_on_c, 0, 82, 0
1, 84960, Note_on_c, 0, 51, 0
1, 84960, Note_on_c, 0, 75, 0
1, 84960, Note_on_c, 0, 99, 93
1, 84960, Note_on_c, 0, 87, 88
1, 84960, Note_on_c, 0, 39, 73
1, 85080, Control_c, 0, 64, 127
1, 85200, Note_on_c, 0, 39, 0
1, 85200, Note_on_c, 0, 87, 0
1, 85200, Note_on_c, 0, 99, 0
1, 85440, Tempo, 377358
1, 85440, Note_on_c, 0, 70, 68
1, 85440, Note_on_c, 0, 75, 68
1, 85440, Note_on_c, 0, 79, 80
1, 85440, Note_on_c, 0, 58, 54
1, 85440, Note_on_c, 0, 67, 64
1, 85440, Note_on_c, 0, 63, 54
1, 85920, Note_on_c, 0, 63, 0
1, 85920, Note_on_c, 0, 75, 0
1, 85920, Note_on_c, 0, 79, 0
1, 85920, Note_on_c, 0, 70, 0
1, 85920, Note_on_c, 0, 67, 0
1, 85920, Note_on_c, 0, 58, 0
1, 85920, Note_on_c, 0, 71, 68
1, 85920, Note_on_c, 0, 75, 68
1, 85920, Note_on_c, 0, 80, 80
1, 85920, Note_on_c, 0, 68, 64
1, 85920, Note_on_c, 0, 63, 64
1, 85920, Note_on_c, 0, 59, 64
1, 85930, Control_c, 0, 64, 0
1, 86076, Control_c, 0, 64, 127
1, 86400, Tempo, 373832
1, 86400, Note_on_c, 0, 59, 0
1, 86400, Note_on_c, 0, 75, 0
1, 86400, Note_on_c, 0, 80, 0
1, 86400, Note_on_c, 0, 71, 0
1, 86400, Note_on_c, 0, 63, 0
1, 86400, Note_on_c, 0, 68, 0
1, 86400, Note_on_c, 0, 83, 87
1, 86400, Note_on_c, 0, 51, 73
1, 86407, Control_c, 0, 64, 0
1, 86497, Control_c, 0, 64, 127
1, 86520, Note_on_c, 0, 83, 0
1, 86640, Note_on_c, 0, 51, 0
1, 86760, Note_on_c, 0, 82, 88
1, 86760, Note_on_c, 0, 79, 61
1, 86880, Tempo, 363636
1, 86880, Note_on_c, 0, 79, 0
1, 86880, Note_on_c, 0, 77, 61
1, 86880, Note_on_c, 0, 70, 68
1, 86880, Note_on_c, 0, 67, 57
1, 86880, Note_on_c, 0, 61, 57
1, 87240, Note_on_c, 0, 77, 0
1, 87240, Note_on_c, 0, 82, 0
1, 87240, Note_on_c, 0, 79, 61
1, 87240, Note_on_c, 0, 82, 88
1, 87360, Tempo, 384615
1, 87360, Note_on_c, 0, 79, 0
1, 87360, Note_on_c, 0, 67, 0
1, 87360, Note_on_c, 0, 61, 0
1, 87360, Note_on_c, 0, 70, 0
1, 87360, Note_on_c, 0, 76, 80
1, 87360, Note_on_c, 0, 51, 68
1, 87377, Control_c, 0, 64, 0
1, 87720, Note_on_c, 0, 82, 0
1, 87840, Note_on_c, 0, 51, 0
1, 87840, Note_on_c, 0, 39, 73
1, 87896, Control_c, 0, 64, 127
1, 88080, Note_on_c, 0, 39, 0
1, 88320, Tempo, 371517
1, 88320, Note_on_c, 0, 70, 68
1, 88320, Note_on_c, 0, 79, 80
1, 88320, Note_on_c, 0, 61, 65
1, 88800, Tempo, 384615
1, 88800, Note_on_c, 0, 61, 0
1, 88800, Note_on_c, 0, 79, 0
1, 88800, Note_on_c, 0, 70, 0
1, 88800, Note_on_c, 0, 71, 65
1, 88800, Note_on_c, 0, 80, 77
1, 88800, Note_on_c, 0, 62, 57
1, 88816, Control_c, 0, 64, 0
1, 89280, Tempo, 375000
1, 89280, Note_on_c, 0, 62, 0
1, 89280, Note_on_c, 0, 76, 0
1, 89280, Note_on_c, 0, 71, 0
1, 89280, Note_on_c, 0, 80, 0
1, 89280, Note_on_c, 0, 70, 65
1, 89280, Note_on_c, 0, 75, 65
1, 89280, Note_on_c, 0, 79, 77
1, 89280, Note_on_c, 0, 63, 59
1, 89360, Tempo, 376176
1, 89440, Tempo, 377358
1, 89520, Tempo, 378549
1, 89600, Tempo, 379747
1, 89680, Tempo, 380952
1, 89760, Tempo, 382166
1, 89760, Note_on_c, 0, 63, 0
1, 89760, Note_on_c, 0, 79, 0
1, 89760, Note_on_c, 0, 75, 0
1, 89760, Note_on_c, 0, 73, 62
1, 89760, Note_on_c, 0, 78, 74
1, 89760, Note_on_c, 0, 64, 57
1, 89840, Tempo, 383387
1, 89920, Tempo, 384615
1, 90000, Tempo, 385852
1, 90040, Tempo, 387097
1, 90120, Tempo, 388350
1, 90200, Tempo, 389610
1, 90240, Note_on_c, 0, 64, 0
1, 90240, Note_on_c, 0, 78, 0
1, 90240, Note_on_c, 0, 77, 71
1, 90240, Note_on_c, 0, 65, 54
1, 90280, Tempo, 390879
1, 90360, Tempo, 392157
1, 90440, Tempo, 393443
1, 90520, Tempo, 394737
1, 90600, Tempo, 396040
1, 90680, Tempo, 397351
1, 90720, Tempo, 398671
1, 90720, Note_on_c, 0, 65, 0
1, 90720, Note_on_c, 0, 77, 0
1, 90720, Note_on_c, 0, 76, 69
1, 90720, Note_on_c, 0, 66, 52
1, 91200, Tempo, 390879
1, 91200, Note_on_c, 0, 66, 0
1, 91200, Note_on_c, 0, 54, 59
1, 91620, Note_on_c, 0, 54, 0
1, 91620, Note_on_c, 0, 57, 60
1, 91680, Note_on_c, 0, 57, 0
1, 91680, Note_on_c, 0, 73, 0
1, 91680, Note_on_c, 0, 55, 68
1, 92120, Tempo, 397351
1, 92160, Note_on_c, 0, 55, 0
1, 92160, Note_on_c, 0, 76, 0
1, 92160, Note_on_c, 0, 70, 0
1, 92160, Note_on_c, 0, 54, 62
1, 92200, Tempo, 398671
1, 92240, Tempo, 400000
1, 92280, Tempo, 401338
1, 92320, Tempo, 402685
1, 92360, Tempo, 404040
1, 92400, Tempo, 405405
1, 92440, Tempo, 406780
1, 92480, Tempo, 408163
1, 92520, Tempo, 409556
1, 92560, Tempo, 410959
1, 92640, Tempo, 412371
1, 92640, Note_on_c, 0, 54, 0
1, 92640, Note_on_c, 0, 49, 55
1, 92680, Tempo, 413793
1, 92720, Tempo, 415225
1, 92760, Tempo, 416667
1, 92800, Tempo, 418118
1, 92840, Tempo, 419580
1, 92880, Tempo, 421053
1, 92920, Tempo, 422535
1, 92960, Tempo, 424028
1, 93000, Tempo, 425532
1, 93040, Tempo, 427046
1, 93120, Tempo, 428571
1, 93120, Note_on_c, 0, 49, 0
1, 93120, Note_on_c, 0, 50, 54
1, 93160, Tempo, 430108
1, 93200, Tempo, 431655
1, 93240, Tempo, 433213
1, 93280, Tempo, 434783
1, 93320, Tempo, 436364
1, 93360, Tempo, 437956
1, 93400, Tempo, 439560
1, 93440, Tempo, 441176
1, 93480, Tempo, 442804
1, 93520, Tempo, 444444
1, 93600, Key_signature, 2, "major"
1, 93600, Tempo, 500000
1, 93600, Note_on_c, 0, 50, 0
1, 93600, Note_on_c, 0, 78, 55
1, 93600, Note_on_c, 0, 47, 50
1, 93660, Control_c, 0, 64, 127
1, 93840, Note_on_c, 0, 78, 0
1, 93840, Note_on_c, 0, 83, 50
1, 94080, Tempo, 552995
1, 94080, Note_on_c, 0, 83, 0
1, 94080, Note_on_c, 0, 47, 0
1, 94080, Note_on_c, 0, 79, 50
1, 94080, Note_on_c, 0, 64, 40
1, 94080, Note_on_c, 0, 59, 34
1, 94080, Note_on_c, 0, 55, 34
1, 94140, Note_on_c, 0, 79, 0
1, 94140, Note_on_c, 0, 81, 50
1, 94200, Tempo, 491803
1, 94200, Note_on_c, 0, 81, 0
1, 94200, Note_on_c, 0, 79, 57
1, 94560, Tempo, 478088
1, 94560, Note_on_c, 0, 79, 0
1, 94560, Note_on_c, 0, 64, 0
1, 94560, Note_on_c, 0, 59, 0
1, 94560, Note_on_c, 0, 55, 0
1, 94560, Note_on_c, 0, 78, 53
1, 94560, Note_on_c, 0, 64, 39
1, 94560, Note_on_c, 0, 59, 33
1, 94560, Note_on_c, 0, 55, 33
1, 94800, Tempo, 500000
1, 94800, Note_on_c, 0, 78, 0
1, 94800, Note_on_c, 0, 76, 50
1, 95040, Tempo, 436364
1, 95040, Note_on_c, 0, 76, 0
1, 95040, Note_on_c, 0, 55, 0
1, 95040, Note_on_c, 0, 59, 0
1, 95040, Note_on_c, 0, 64, 0
1, 95040, Note_on_c, 0, 78, 55
1, 95040, Note_on_c, 0, 47, 50
1, 95047, Control_c, 0, 64, 0
1, 95180, Tempo, 600000
1, 95238, Control_c, 0, 64, 127
1, 95280, Tempo, 500000
1, 95280, Note_on_c, 0, 78, 0
1, 95280, Note_on_c, 0, 71, 50
1, 95520, Note_on_c, 0, 47, 0
1, 95520, Note_on_c, 0, 62, 31
1, 95520, Note_on_c, 0, 59, 26
1, 95520, Note_on_c, 0, 54, 26
1, 95560, Tempo, 481928
1, 96000, Note_on_c, 0, 54, 0
1, 96000, Note_on_c, 0, 59, 0
1, 96000, Note_on_c, 0, 62, 0
1, 96000, Note_on_c, 0, 62, 31
1, 96000, Note_on_c, 0, 59, 26
1, 96000, Note_on_c, 0, 54, 26
1, 96480, Tempo, 500000
1, 96480, Note_on_c, 0, 54, 0
1, 96480, Note_on_c, 0, 71, 0
1, 96480, Note_on_c, 0, 62, 0
1, 96480, Note_on_c, 0, 59, 0
1, 96480, Note_on_c, 0, 73, 58
1, 96480, Note_on_c, 0, 47, 50
1, 96487, Control_c, 0, 64, 0
1, 96526, Control_c, 0, 64, 127
1, 96720, Note_on_c, 0, 73, 0
1, 96720, Note_on_c, 0, 76, 50
1, 96960, Tempo, 560748
1, 96960, Note_on_c, 0, 76, 0
1, 96960, Note_on_c, 0, 47, 0
1, 96960, Note_on_c, 0, 74, 50
1, 96960, Note_on_c, 0, 64, 40
1, 96960, Note_on_c, 0, 58, 34
1, 96960, Note_on_c, 0, 54, 34
1, 97020, Note_on_c, 0, 74, 0
1, 97020, Note_on_c, 0, 76, 50
1, 97080, Tempo, 487805
1, 97080, Note_on_c, 0, 76, 0
1, 97080, Note_on_c, 0, 74, 57
1, 97440, Tempo, 478088
1, 97440, Note_on_c, 0, 74, 0
1, 97440, Note_on_c, 0, 64, 0
1, 97440, Note_on_c, 0, 58, 0
1, 97440, Note_on_c, 0, 54, 0
1, 97440, Note_on_c, 0, 73, 53
1, 97440, Note_on_c, 0, 64, 39
1, 97440, Note_on_c, 0, 58, 33
1, 97440, Note_on_c, 0, 54, 33
1, 97456, Control_c, 0, 64, 0
1, 97680, Tempo, 500000
1, 97920, Tempo, 436364
1, 97920, Note_on_c, 0, 54, 0
1, 97920, Note_on_c, 0, 73, 0
1, 97920, Note_on_c, 0, 64, 0
1, 97920, Note_on_c, 0, 58, 0
1, 97920, Note_on_c, 0, 74, 55
1, 97920, Note_on_c, 0, 47, 50
1, 98060, Tempo, 600000
1, 98118, Control_c, 0, 64, 127
1, 98160, Tempo, 500000
1, 98160, Note_on_c, 0, 74, 0
1, 98160, Note_on_c, 0, 71, 50
1, 98400, Tempo, 489796
1, 98400, Note_on_c, 0, 47, 0
1, 98400, Note_on_c, 0, 62, 31
1, 98400, Note_on_c, 0, 59, 26
1, 98400, Note_on_c, 0, 54, 26
1, 98880, Note_on_c, 0, 54, 0
1, 98880, Note_on_c, 0, 59, 0
1, 98880, Note_on_c, 0, 62, 0
1, 98880, Note_on_c, 0, 62, 31
1, 98880, Note_on_c, 0, 59, 26
1, 98880, Note_on_c, 0, 54, 26
1, 99360, Tempo, 500000
1, 99360, Note_on_c, 0, 54, 0
1, 99360, Note_on_c, 0, 71, 0
1, 99360, Note_on_c, 0, 62, 0
1, 99360, Note_on_c, 0, 59, 0
1, 99360, Note_on_c, 0, 73, 58
1, 99360, Note_on_c, 0, 37, 50
1, 99367, Control_c, 0, 64, 0
1, 99406, Control_c, 0, 64, 127
1, 99600, Note_on_c, 0, 73, 0
1, 99600, Note_on_c, 0, 71, 50
1, 99840, Tempo, 585366
1, 99840, Note_on_c, 0, 71, 0
1, 99840, Note_on_c, 0, 37, 0
1, 99840, Note_on_c, 0, 69, 46
1, 99840, Note_on_c, 0, 59, 40
1, 99840, Note_on_c, 0, 53, 34
1, 99840, Note_on_c, 0, 49, 34
1, 99861, Control_c, 0, 64, 0
1, 99900, Note_on_c, 0, 69, 0
1, 99900, Note_on_c, 0, 71, 47
1, 99960, Tempo, 489796
1, 99960, Note_on_c, 0, 71, 0
1, 99960, Note_on_c, 0, 69, 55
1, 99960, Control_c, 0, 64, 127
1, 100320, Tempo, 478088
1, 100320, Note_on_c, 0, 69, 0
1, 100320, Note_on_c, 0, 59, 0
1, 100320, Note_on_c, 0, 53, 0
1, 100320, Note_on_c, 0, 49, 0
1, 100320, Note_on_c, 0, 68, 53
1, 100320, Note_on_c, 0, 59, 39
1, 100320, Note_on_c, 0, 53, 33
1, 100320, Note_on_c, 0, 49, 33
1, 100336, Control_c, 0, 64, 0
1, 100560, Tempo, 500000
1, 100800, Tempo, 436364
1, 100800, Note_on_c, 0, 49, 0
1, 100800, Note_on_c, 0, 68, 0
1, 100800, Note_on_c, 0, 59, 0
1, 100800, Note_on_c, 0, 53, 0
1, 100800, Note_on_c, 0, 69, 55
1, 100800, Note_on_c, 0, 42, 50
1, 100940, Tempo, 600000
1, 100998, Control_c, 0, 64, 127
1, 101040, Tempo, 500000
1, 101040, Note_on_c, 0, 69, 0
1, 101040, Note_on_c, 0, 73, 50
1, 101280, Note_on_c, 0, 42, 0
1, 101280, Note_on_c, 0, 57, 37
1, 101280, Note_on_c, 0, 49, 31
1, 101520, Note_on_c, 0, 73, 0
1, 101760, Tempo, 481928
1, 101760, Note_on_c, 0, 49, 0
1, 101760, Note_on_c, 0, 57, 0
1, 101760, Note_on_c, 0, 61, 68
1, 101776, Control_c, 0, 64, 0
1, 102480, Note_on_c, 0, 61, 0
1, 102480, Note_on_c, 0, 59, 60
1, 102600, Tempo, 510638
1, 102720, Tempo, 466926
1, 102720, Note_on_c, 0, 59, 0
1, 102720, Note_on_c, 0, 57, 57
1, 102780, Note_on_c, 0, 57, 0
1, 102780, Note_on_c, 0, 59, 57
1, 102840, Note_on_c, 0, 59, 0
1, 102840, Note_on_c, 0, 57, 68
1, 103200, Tempo, 485830
1, 103200, Note_on_c, 0, 57, 0
1, 103200, Note_on_c, 0, 56, 67
1, 103680, Tempo, 465116
1, 103680, Note_on_c, 0, 56, 0
1, 103680, Note_on_c, 0, 57, 71
1, 104160, Tempo, 472813
1, 104160, Note_on_c, 0, 57, 0
1, 104160, Note_on_c, 0, 61, 67
1, 105120, Note_on_c, 0, 61, 0
1, 105120, Note_on_c, 0, 59, 71
1, 105120, Note_on_c, 0, 49, 47
1, 105120, Note_on_c, 0, 56, 58
1, 105600, Tempo, 463177
1, 105600, Note_on_c, 0, 56, 0
1, 105600, Note_on_c, 0, 59, 0
1, 105600, Note_on_c, 0, 57, 68
1, 105600, Note_on_c, 0, 54, 55
1, 105920, Control_c, 0, 64, 127
1, 106080, Tempo, 472813
1, 106080, Note_on_c, 0, 54, 0
1, 106080, Note_on_c, 0, 57, 0
1, 106080, Note_on_c, 0, 61, 68
1, 106080, Note_on_c, 0, 57, 55
1, 106560, Tempo, 532765
1, 106560, Note_on_c, 0, 57, 0
1, 106560, Note_on_c, 0, 61, 0
1, 106560, Note_on_c, 0, 49, 0
1, 106560, Note_on_c, 0, 59, 63
1, 106560, Note_on_c, 0, 49, 47
1, 106560, Note_on_c, 0, 56, 57
1, 106575, Control_c, 0, 64, 0
1, 106620, Note_on_c, 0, 59, 0
1, 106620, Note_on_c, 0, 61, 63
1, 106680, Tempo, 446097
1, 106680, Note_on_c, 0, 61, 0
1, 106680, Note_on_c, 0, 59, 73
1, 106800, Note_on_c, 0, 59, 0
1, 106800, Note_on_c, 0, 56, 0
1, 106800, Note_on_c, 0, 57, 66
1, 106800, Note_on_c, 0, 54, 51
1, 107037, Note_on_c, 0, 57, 0
1, 107040, Tempo, 472813
1, 107040, Note_on_c, 0, 54, 0
1, 107040, Note_on_c, 0, 61, 72
1, 107040, Note_on_c, 0, 57, 56
1, 107520, Note_on_c, 0, 57, 0
1, 107520, Note_on_c, 0, 61, 0
1, 107520, Note_on_c, 0, 61, 68
1, 107520, Note_on_c, 0, 57, 54
1, 108000, Tempo, 530270
1, 108000, Note_on_c, 0, 57, 0
1, 108000, Note_on_c, 0, 61, 0
1, 108000, Note_on_c, 0, 49, 0
1, 108000, Note_on_c, 0, 59, 61
1, 108000, Note_on_c, 0, 49, 47
1, 108000, Note_on_c, 0, 56, 57
1, 108060, Note_on_c, 0, 59, 0
1, 108060, Note_on_c, 0, 61, 61
1, 108120, Tempo, 437956
1, 108120, Note_on_c, 0, 61, 0
1, 108120, Note_on_c, 0, 59, 72
1, 108480, Tempo, 463177
1, 108480, Note_on_c, 0, 59, 0
1, 108480, Note_on_c, 0, 56, 0
1, 108480, Note_on_c, 0, 58, 72
1, 108480, Note_on_c, 0, 54, 56
1, 108530, Control_c, 0, 64, 127
1, 108960, Tempo, 472813
1, 108960, Note_on_c, 0, 54, 0
1, 108960, Note_on_c, 0, 58, 0
1, 108960, Note_on_c, 0, 61, 68
1, 108960, Note_on_c, 0, 58, 54
1, 109440, Tempo, 530270
1, 109440, Note_on_c, 0, 58, 0
1, 109440, Note_on_c, 0, 61, 0
1, 109440, Note_on_c, 0, 49, 0
1, 109440, Note_on_c, 0, 59, 62
1, 109440, Note_on_c, 0, 49, 47
1, 109440, Note_on_c, 0, 56, 57
1, 109447, Control_c, 0, 64, 0
1, 109500, Note_on_c, 0, 59, 0
1, 109500, Note_on_c, 0, 61, 63
1, 109560, Tempo, 459418
1, 109560, Note_on_c, 0, 61, 0
1, 109560, Note_on_c, 0, 59, 73
1, 109680, Note_on_c, 0, 59, 0
1, 109680, Note_on_c, 0, 56, 0
1, 109680, Note_on_c, 0, 58, 66
1, 109680, Note_on_c, 0, 54, 51
1, 109920, Tempo, 472813
1, 109920, Note_on_c, 0, 58, 0
1, 109920, Note_on_c, 0, 49, 0
1, 109920, Note_on_c, 0, 66, 72
1, 109920, Note_on_c, 0, 42, 47
1, 109952, Control_c, 0, 64, 127
1, 110400, Tempo, 500000
1, 110400, Note_on_c, 0, 66, 0
1, 110400, Note_on_c, 0, 54, 0
1, 110400, Note_on_c, 0, 78, 58
1, 110413, Control_c, 0, 64, 0
1, 110880, Note_on_c, 0, 42, 0
1, 110880, Note_on_c, 0, 47, 50
1, 110958, Control_c, 0, 64, 127
1, 111120, Note_on_c, 0, 78, 0
1, 111120, Note_on_c, 0, 83, 50
1, 111360, Tempo, 552995
1, 111360, Note_on_c, 0, 83, 0
1, 111360, Note_on_c, 0, 47, 0
1, 111360, Note_on_c, 0, 79, 50
1, 111360, Note_on_c, 0, 64, 40
1, 111360, Note_on_c, 0, 59, 34
1, 111360, Note_on_c, 0, 55, 34
1, 111420, Note_on_c, 0, 79, 0
1, 111420, Note_on_c, 0, 81, 50
1, 111480, Tempo, 491803
1, 111480, Note_on_c, 0, 81, 0
1, 111480, Note_on_c, 0, 79, 57
1, 111840, Tempo, 478088
1, 111840, Note_on_c, 0, 79, 0
1, 111840, Note_on_c, 0, 64, 0
1, 111840, Note_on_c, 0, 59, 0
1, 111840, Note_on_c, 0, 55, 0
1, 111840, Note_on_c, 0, 78, 53
1, 111840, Note_on_c, 0, 64, 39
1, 111840, Note_on_c, 0, 59, 33
1, 111840, Note_on_c, 0, 55, 33
1, 112080, Tempo, 500000
1, 112080, Note_on_c, 0, 78, 0
1, 112080, Note_on_c, 0, 76, 50
1, 112320, Tempo, 436364
1, 112320, Note_on_c, 0, 76, 0
1, 112320, Note_on_c, 0, 55, 0
1, 112320, Note_on_c, 0, 59, 0
1, 112320, Note_on_c, 0, 64, 0
1, 112320, Note_on_c, 0, 78, 55
1, 112320, Note_on_c, 0, 47, 50
1, 112333, Control_c, 0, 64, 0
1, 112460, Tempo, 600000
1, 112518, Control_c, 0, 64, 127
1, 112560, Tempo, 500000
1, 112560, Note_on_c, 0, 78, 0
1, 112560, Note_on_c, 0, 71, 50
1, 112800, Note_on_c, 0, 47, 0
1, 112800, Note_on_c, 0, 62, 31
1, 112800, Note_on_c, 0, 59, 26
1, 112800, Note_on_c, 0, 54, 26
1, 113280, Note_on_c, 0, 54, 0
1, 113280, Note_on_c, 0, 59, 0
1, 113280, Note_on_c, 0, 62, 0
1, 113280, Note_on_c, 0, 62, 31
1, 113280, Note_on_c, 0, 59, 26
1, 113280, Note_on_c, 0, 54, 26
1, 113760, Tempo, 500000
1, 113760, Note_on_c, 0, 54, 0
1, 113760, Note_on_c, 0, 71, 0
1, 113760, Note_on_c, 0, 62, 0
1, 113760, Note_on_c, 0, 59, 0
1, 113760, Note_on_c, 0, 73, 58
1, 113760, Note_on_c, 0, 47, 50
1, 113767, Control_c, 0, 64, 0
1, 113838, Control_c, 0, 64, 127
1, 114000, Note_on_c, 0, 73, 0
1, 114000, Note_on_c, 0, 76, 50
1, 114240, Tempo, 560748
1, 114240, Note_on_c, 0, 76, 0
1, 114240, Note_on_c, 0, 47, 0
1, 114240, Note_on_c, 0, 74, 50
1, 114240, Note_on_c, 0, 64, 40
1, 114240, Note_on_c, 0, 58, 34
1, 114240, Note_on_c, 0, 54, 34
1, 114300, Note_on_c, 0, 74, 0
1, 114300, Note_on_c, 0, 76, 50
1, 114360, Tempo, 487805
1, 114360, Note_on_c, 0, 76, 0
1, 114360, Note_on_c, 0, 74, 57
1, 114720, Tempo, 478088
1, 114720, Note_on_c, 0, 74, 0
1, 114720, Note_on_c, 0, 64, 0
1, 114720, Note_on_c, 0, 58, 0
1, 114720, Note_on_c, 0, 54, 0
1, 114720, Note_on_c, 0, 73, 53
1, 114720, Note_on_c, 0, 64, 39
1, 114720, Note_on_c, 0, 58, 33
1, 114720, Note_on_c, 0, 54, 33
1, 114734, Control_c, 0, 64, 0
1, 114960, Tempo, 500000
1, 115200, Tempo, 436364
1, 115200, Note_on_c, 0, 54, 0
1, 115200, Note_on_c, 0, 73, 0
1, 115200, Note_on_c, 0, 64, 0
1, 115200, Note_on_c, 0, 58, 0
1, 115200, Note_on_c, 0, 74, 55
1, 115200, Note_on_c, 0, 47, 50
1, 115340, Tempo, 600000
1, 115398, Control_c, 0, 64, 127
1, 115440, Tempo, 500000
1, 115440, Note_on_c, 0, 74, 0
1, 115440, Note_on_c, 0, 71, 50
1, 115680, Tempo, 489796
1, 115680, Note_on_c, 0, 47, 0
1, 115680, Note_on_c, 0, 62, 31
1, 115680, Note_on_c, 0, 59, 26
1, 115680, Note_on_c, 0, 54, 26
1, 116160, Tempo, 472441
1, 116160, Note_on_c, 0, 54, 0
1, 116160, Note_on_c, 0, 71, 0
1, 116160, Note_on_c, 0, 62, 0
1, 116160, Note_on_c, 0, 59, 0
1, 116160, Note_on_c, 0, 50, 66
1, 116164, Control_c, 0, 64, 0
1, 116640, Note_on_c, 0, 59, 38
1, 116640, Note_on_c, 0, 65, 43
1, 116880, Note_on_c, 0, 50, 0
1, 116880, Note_on_c, 0, 55, 58
1, 117120, Tempo, 433213
1, 117120, Note_on_c, 0, 55, 0
1, 117120, Note_on_c, 0, 65, 0
1, 117120, Note_on_c, 0, 59, 0
1, 117120, Note_on_c, 0, 52, 65
1, 117120, Note_on_c, 0, 60, 34
1, 117120, Note_on_c, 0, 64, 38
1, 117280, Note_on_c, 0, 52, 0
1, 117280, Note_on_c, 0, 53, 57
1, 117440, Note_on_c, 0, 53, 0
1, 117440, Note_on_c, 0, 52, 55
1, 117600, Tempo, 472441
1, 117600, Note_on_c, 0, 52, 0
1, 117600, Note_on_c, 0, 64, 0
1, 117600, Note_on_c, 0, 60, 0
1, 117600, Note_on_c, 0, 50, 63
1, 117600, Note_on_c, 0, 60, 34
1, 117600, Note_on_c, 0, 64, 38
1, 117840, Note_on_c, 0, 50, 0
1, 117840, Note_on_c, 0, 48, 57
1, 118080, Tempo, 476190
1, 118080, Note_on_c, 0, 48, 0
1, 118080, Note_on_c, 0, 64, 0
1, 118080, Note_on_c, 0, 60, 0
1, 118080, Note_on_c, 0, 50, 64
1, 118080, Note_on_c, 0, 55, 41
1, 118080, Note_on_c, 0, 59, 41
1, 118080, Note_on_c, 0, 65, 46
1, 118440, Note_on_c, 0, 50, 0
1, 118440, Note_on_c, 0, 43, 55
1, 118560, Note_on_c, 0, 43, 0
1, 118560, Note_on_c, 0, 65, 0
1, 118560, Note_on_c, 0, 59, 0
1, 118560, Note_on_c, 0, 55, 0
1, 118560, Note_on_c, 0, 50, 64
1, 118560, Note_on_c, 0, 55, 34
1, 118560, Note_on_c, 0, 59, 34
1, 118560, Note_on_c, 0, 65, 38
1, 119040, Note_on_c, 0, 65, 0
1, 119040, Note_on_c, 0, 50, 0
1, 119040, Note_on_c, 0, 55, 0
1, 119040, Note_on_c, 0, 59, 0
1, 119040, Note_on_c, 0, 48, 59
1, 119040, Note_on_c, 0, 60, 34
1, 119040, Note_on_c, 0, 64, 38
1, 119520, Tempo, 472441
1, 119520, Note_on_c, 0, 64, 0
1, 119520, Note_on_c, 0, 60, 0
1, 119520, Note_on_c, 0, 48, 0
1, 119520, Note_on_c, 0, 50, 66
1, 119520, Note_on_c, 0, 59, 38
1, 119520, Note_on_c, 0, 65, 43
1, 119760, Note_on_c, 0, 50, 0
1, 119760, Note_on_c, 0, 55, 58
1, 120000, Tempo, 433213
1, 120000, Note_on_c, 0, 55, 0
1, 120000, Note_on_c, 0, 65, 0
1, 120000, Note_on_c, 0, 59, 0
1, 120000, Note_on_c, 0, 52, 65
1, 120000, Note_on_c, 0, 60, 34
1, 120000, Note_on_c, 0, 64, 38
1, 120160, Note_on_c, 0, 52, 0
1, 120160, Note_on_c, 0, 53, 57
1, 120320, Note_on_c, 0, 53, 0
1, 120320, Note_on_c, 0, 52, 55
1, 120480, Tempo, 472441
1, 120480, Note_on_c, 0, 52, 0
1, 120480, Note_on_c, 0, 64, 0
1, 120480, Note_on_c, 0, 60, 0
1, 120480, Note_on_c, 0, 50, 63
1, 120480, Note_on_c, 0, 60, 34
1, 120480, Note_on_c, 0, 64, 38
1, 120720, Note_on_c, 0, 50, 0
1, 120720, Note_on_c, 0, 48, 57
1, 120960, Tempo, 476190
1, 120960, Note_on_c, 0, 48, 0
1, 120960, Note_on_c, 0, 64, 0
1, 120960, Note_on_c, 0, 60, 0
1, 120960, Note_on_c, 0, 50, 64
1, 120960, Note_on_c, 0, 55, 41
1, 120960, Note_on_c, 0, 59, 41
1, 120960, Note_on_c, 0, 65, 46
1, 121320, Note_on_c, 0, 50, 0
1, 121320, Note_on_c, 0, 43, 54
1, 121440, Note_on_c, 0, 43, 0
1, 121440, Note_on_c, 0, 65, 0
1, 121440, Note_on_c, 0, 59, 0
1, 121440, Note_on_c, 0, 55, 0
1, 121440, Note_on_c, 0, 50, 62
1, 121440, Note_on_c, 0, 55, 33
1, 121440, Note_on_c, 0, 59, 33
1, 121440, Note_on_c, 0, 65, 37
1, 121920, Note_on_c, 0, 65, 0
1, 121920, Note_on_c, 0, 50, 0
1, 121920, Note_on_c, 0, 55, 0
1, 121920, Note_on_c, 0, 59, 0
1, 121920, Note_on_c, 0, 48, 56
1, 121920, Note_on_c, 0, 60, 32
1, 121920, Note_on_c, 0, 64, 36
1, 122400, Tempo, 452830
1, 122400, Note_on_c, 0, 64, 0
1, 122400, Note_on_c, 0, 60, 0
1, 122400, Note_on_c, 0, 48, 0
1, 122400, Note_on_c, 0, 50, 60
1, 122400, Note_on_c, 0, 55, 38
1, 122400, Note_on_c, 0, 59, 38
1, 122400, Note_on_c, 0, 65, 43
1, 122760, Note_on_c, 0, 50, 0
1, 122760, Note_on_c, 0, 43, 51
1, 122880, Tempo, 487805
1, 122880, Note_on_c, 0, 43, 0
1, 122880, Note_on_c, 0, 65, 0
1, 122880, Note_on_c, 0, 59, 0
1, 122880, Note_on_c, 0, 55, 0
1, 122880, Note_on_c, 0, 48, 58
1, 122880, Note_on_c, 0, 60, 31
1, 122880, Note_on_c, 0, 64, 34
1, 123360, Tempo, 466926
1, 123360, Note_on_c, 0, 64, 0
1, 123360, Note_on_c, 0, 60, 0
1, 123360, Note_on_c, 0, 48, 0
1, 123360, Note_on_c, 0, 50, 57
1, 123360, Note_on_c, 0, 55, 36
1, 123360, Note_on_c, 0, 59, 36
1, 123360, Note_on_c, 0, 65, 41
1, 123720, Note_on_c, 0, 50, 0
1, 123720, Note_on_c, 0, 43, 48
1, 123840, Tempo, 493827
1, 123840, Note_on_c, 0, 43, 0
1, 123840, Note_on_c, 0, 65, 0
1, 123840, Note_on_c, 0, 59, 0
1, 123840, Note_on_c, 0, 55, 0
1, 123840, Note_on_c, 0, 48, 56
1, 123840, Note_on_c, 0, 60, 29
1, 123840, Note_on_c, 0, 64, 29
1, 124320, Tempo, 470588
1, 124320, Note_on_c, 0, 64, 0
1, 124320, Note_on_c, 0, 60, 0
1, 124320, Note_on_c, 0, 48, 0
1, 124320, Note_on_c, 0, 50, 55
1, 124320, Note_on_c, 0, 55, 35
1, 124320, Note_on_c, 0, 59, 35
1, 124320, Note_on_c, 0, 65, 39
1, 124680, Note_on_c, 0, 50, 0
1, 124680, Note_on_c, 0, 43, 46
1, 124800, Tempo, 502092
1, 124800, Note_on_c, 0, 43, 0
1, 124800, Note_on_c, 0, 65, 0
1, 124800, Note_on_c, 0, 59, 0
1, 124800, Note_on_c, 0, 55, 0
1, 124800, Note_on_c, 0, 48, 53
1, 124800, Note_on_c, 0, 60, 28
1, 124800, Note_on_c, 0, 64, 31
1, 125280, Note_on_c, 0, 64, 0
1, 125280, Note_on_c, 0, 60, 0
1, 125280, Note_on_c, 0, 48, 0
1, 125280, Note_on_c, 0, 43, 52
1, 125280, Note_on_c, 0, 55, 52
1, 126720, Note_on_c, 0, 55, 0
1, 126720, Note_on_c, 0, 43, 0
1, 126720, Note_on_c, 0, 42, 48
1, 126720, Note_on_c, 0, 54, 48
1, 128160, Tempo, 500000
1, 128160, Note_on_c, 0, 54, 0
1, 128160, Note_on_c, 0, 42, 0
1, 128160, Note_on_c, 0, 78, 55
1, 128160, Note_on_c, 0, 35, 46
1, 128160, Note_on_c, 0, 47, 50
1, 128248, Control_c, 0, 64, 127
1, 128400, Note_on_c, 0, 78, 0
1, 128400, Note_on_c, 0, 83, 50
1, 128640, Tempo, 552995
1, 128640, Note_on_c, 0, 83, 0
1, 128640, Note_on_c, 0, 47, 0
1, 128640, Note_on_c, 0, 35, 0
1, 128640, Note_on_c, 0, 79, 50
1, 128640, Note_on_c, 0, 64, 40
1, 128640, Note_on_c, 0, 59, 34
1, 128640, Note_on_c, 0, 55, 34
1, 128700, Note_on_c, 0, 79, 0
1, 128700, Note_on_c, 0, 81, 50
1, 128760, Tempo, 491803
1, 128760, Note_on_c, 0, 81, 0
1, 128760, Note_on_c, 0, 79, 57
1, 129120, Tempo, 478088
1, 129120, Note_on_c, 0, 79, 0
1, 129120, Note_on_c, 0, 64, 0
1, 129120, Note_on_c, 0, 59, 0
1, 129120, Note_on_c, 0, 55, 0
1, 129120, Note_on_c, 0, 78, 53
1, 129120, Note_on_c, 0, 64, 39
1, 129120, Note_on_c, 0, 59, 33
1, 129120, Note_on_c, 0, 55, 33
1, 129360, Tempo, 500000
1, 129360, Note_on_c, 0, 78, 0
1, 129360, Note_on_c, 0, 76, 50
1, 129600, Tempo, 436364
1, 129600, Note_on_c, 0, 76, 0
1, 129600, Note_on_c, 0, 55, 0
1, 129600, Note_on_c, 0, 59, 0
1, 129600, Note_on_c, 0, 64, 0
1, 129600, Note_on_c, 0, 78, 55
1, 129600, Note_on_c, 0, 47, 50
1, 129608, Control_c, 0, 64, 0
1, 129740, Tempo, 600000
1, 129798, Control_c, 0, 64, 127
1, 129840, Tempo, 500000
1, 129840, Note_on_c, 0, 78, 0
1, 129840, Note_on_c, 0, 71, 50
1, 130080, Note_on_c, 0, 47, 0
1, 130080, Note_on_c, 0, 62, 31
1, 130080, Note_on_c, 0, 59, 26
1, 130080, Note_on_c, 0, 54, 26
1, 130560, Note_on_c, 0, 54, 0
1, 130560, Note_on_c, 0, 59, 0
1, 130560, Note_on_c, 0, 62, 0
1, 130560, Note_on_c, 0, 62, 31
1, 130560, Note_on_c, 0, 59, 26
1, 130560, Note_on_c, 0, 54, 26
1, 131040, Tempo, 500000
1, 131040, Note_on_c, 0, 54, 0
1, 131040, Note_on_c, 0, 71, 0
1, 131040, Note_on_c, 0, 62, 0
1, 131040, Note_on_c, 0, 59, 0
1, 131040, Note_on_c, 0, 73, 58
1, 131040, Note_on_c, 0, 47, 50
1, 131048, Control_c, 0, 64, 0
1, 131086, Control_c, 0, 64, 127
1, 131280, Note_on_c, 0, 73, 0
1, 131280, Note_on_c, 0, 76, 50
1, 131520, Tempo, 560748
1, 131520, Note_on_c, 0, 76, 0
1, 131520, Note_on_c, 0, 47, 0
1, 131520, Note_on_c, 0, 74, 50
1, 131520, Note_on_c, 0, 64, 40
1, 131520, Note_on_c, 0, 58, 34
1, 131520, Note_on_c, 0, 54, 34
1, 131580, Note_on_c, 0, 74, 0
1, 131580, Note_on_c, 0, 76, 50
1, 131640, Tempo, 487805
1, 131640, Note_on_c, 0, 76, 0
1, 131640, Note_on_c, 0, 74, 57
1, 132000, Tempo, 478088
1, 132000, Note_on_c, 0, 74, 0
1, 132000, Note_on_c, 0, 64, 0
1, 132000, Note_on_c, 0, 58, 0
1, 132000, Note_on_c, 0, 54, 0
1, 132000, Note_on_c, 0, 73, 53
1, 132000, Note_on_c, 0, 64, 39
1, 132000, Note_on_c, 0, 58, 33
1, 132000, Note_on_c, 0, 54, 33
1, 132014, Control_c, 0, 64, 0
1, 132240, Tempo, 500000
1, 132480, Tempo, 436364
1, 132480, Note_on_c, 0, 54, 0
1, 132480, Note_on_c, 0, 73, 0
1, 132480, Note_on_c, 0, 64, 0
1, 132480, Note_on_c, 0, 58, 0
1, 132480, Note_on_c, 0, 74, 55
1, 132480, Note_on_c, 0, 47, 50
1, 132620, Tempo, 600000
1, 132678, Control_c, 0, 64, 127
1, 132720, Tempo, 500000
1, 132720, Note_on_c, 0, 74, 0
1, 132720, Note_on_c, 0, 71, 50
1, 132960, Note_on_c, 0, 47, 0
1, 132960, Note_on_c, 0, 62, 31
1, 132960, Note_on_c, 0, 59, 26
1, 132960, Note_on_c, 0, 54, 26
1, 133440, Note_on_c, 0, 54, 0
1, 133440, Note_on_c, 0, 59, 0
1, 133440, Note_on_c, 0, 62, 0
1, 133440, Note_on_c, 0, 62, 31
1, 133440, Note_on_c, 0, 59, 26
1, 133440, Note_on_c, 0, 54, 26
1, 133920, Tempo, 500000
1, 133920, Note_on_c, 0, 54, 0
1, 133920, Note_on_c, 0, 71, 0
1, 133920, Note_on_c, 0, 62, 0
1, 133920, Note_on_c, 0, 59, 0
1, 133920, Note_on_c, 0, 73, 58
1, 133920, Note_on_c, 0, 37, 50
1, 133928, Control_c, 0, 64, 0
1, 133966, Control_c, 0, 64, 127
1, 134160, Note_on_c, 0, 73, 0
1, 134160, Note_on_c, 0, 71, 50
1, 134400, Tempo, 585366
1, 134400, Note_on_c, 0, 71, 0
1, 134400, Note_on_c, 0, 37, 0
1, 134400, Note_on_c, 0, 69, 46
1, 134400, Note_on_c, 0, 59, 40
1, 134400, Note_on_c, 0, 53, 34
1, 134400, Note_on_c, 0, 49, 34
1, 134418, Control_c, 0, 64, 0
1, 134460, Note_on_c, 0, 69, 0
1, 134460, Note_on_c, 0, 71, 47
1, 134520, Tempo, 489796
1, 134520, Note_on_c, 0, 71, 0
1, 134520, Note_on_c, 0, 69, 55
1, 134520, Control_c, 0, 64, 127
1, 134880, Tempo, 478088
1, 134880, Note_on_c, 0, 69, 0
1, 134880, Note_on_c, 0, 59, 0
1, 134880, Note_on_c, 0, 53, 0
1, 134880, Note_on_c, 0, 49, 0
1, 134880, Note_on_c, 0, 68, 53
1, 134880, Note_on_c, 0, 59, 39
1, 134880, Note_on_c, 0, 53, 33
1, 134880, Note_on_c, 0, 49, 33
1, 134893, Control_c, 0, 64, 0
1, 135120, Tempo, 500000
1, 135360, Tempo, 436364
1, 135360, Note_on_c, 0, 49, 0
1, 135360, Note_on_c, 0, 68, 0
1, 135360, Note_on_c, 0, 59, 0
1, 135360, Note_on_c, 0, 53, 0
1, 135360, Note_on_c, 0, 69, 55
1, 135360, Note_on_c, 0, 42, 50
1, 135500, Tempo, 600000
1, 135558, Control_c, 0, 64, 127
1, 135600, Tempo, 500000
1, 135600, Note_on_c, 0, 69, 0
1, 135600, Note_on_c, 0, 73, 50
1, 135840, Note_on_c, 0, 42, 0
1, 135840, Note_on_c, 0, 57, 37
1, 135840, Note_on_c, 0, 49, 31
1, 136080, Note_on_c, 0, 73, 0
1, 136320, Tempo, 483871
1, 136320, Note_on_c, 0, 49, 0
1, 136320, Note_on_c, 0, 57, 0
1, 136320, Note_on_c, 0, 61, 68
1, 136337, Control_c, 0, 64, 0
1, 137040, Note_on_c, 0, 61, 0
1, 137040, Note_on_c, 0, 59, 60
1, 137160, Tempo, 508475
1, 137280, Tempo, 472441
1, 137280, Note_on_c, 0, 59, 0
1, 137280, Note_on_c, 0, 57, 57
1, 137340, Note_on_c, 0, 57, 0
1, 137340, Note_on_c, 0, 59, 57
1, 137400, Note_on_c, 0, 59, 0
1, 137400, Note_on_c, 0, 57, 68
1, 137760, Tempo, 481928
1, 137760, Note_on_c, 0, 57, 0
1, 137760, Note_on_c, 0, 56, 67
1, 138240, Tempo, 463320
1, 138240, Note_on_c, 0, 56, 0
1, 138240, Note_on_c, 0, 57, 71
1, 138720, Tempo, 472701
1, 138720, Note_on_c, 0, 57, 0
1, 138720, Note_on_c, 0, 61, 67
1, 139680, Note_on_c, 0, 61, 0
1, 139680, Note_on_c, 0, 59, 71
1, 139680, Note_on_c, 0, 49, 47
1, 139680, Note_on_c, 0, 56, 58
1, 140160, Tempo, 463070
1, 140160, Note_on_c, 0, 56, 0
1, 140160, Note_on_c, 0, 59, 0
1, 140160, Note_on_c, 0, 57, 68
1, 140160, Note_on_c, 0, 54, 55
1, 140366, Control_c, 0, 64, 127
1, 140640, Tempo, 472701
1, 140640, Note_on_c, 0, 54, 0
1, 140640, Note_on_c, 0, 57, 0
1, 140640, Note_on_c, 0, 61, 68
1, 140640, Note_on_c, 0, 57, 55
1, 141120, Tempo, 532623
1, 141120, Note_on_c, 0, 57, 0
1, 141120, Note_on_c, 0, 61, 0
1, 141120, Note_on_c, 0, 49, 0
1, 141120, Note_on_c, 0, 59, 63
1, 141120, Note_on_c, 0, 49, 47
1, 141120, Note_on_c, 0, 56, 57
1, 141132, Control_c, 0, 64, 0
1, 141180, Note_on_c, 0, 59, 0
1, 141180, Note_on_c, 0, 61, 63
1, 141240, Tempo, 431655
1, 141240, Note_on_c, 0, 61, 0
1, 141240, Note_on_c, 0, 59, 73
1, 141360, Note_on_c, 0, 59, 0
1, 141360, Note_on_c, 0, 56, 0
1, 141360, Note_on_c, 0, 57, 66
1, 141360, Note_on_c, 0, 54, 51
1, 141600, Tempo, 472701
1, 141600, Note_on_c, 0, 54, 0
1, 141600, Note_on_c, 0, 57, 0
1, 141600, Note_on_c, 0, 61, 72
1, 141600, Note_on_c, 0, 57, 56
1, 142080, Note_on_c, 0, 57, 0
1, 142080, Note_on_c, 0, 61, 0
1, 142080, Note_on_c, 0, 61, 68
1, 142080, Note_on_c, 0, 57, 54
1, 142560, Tempo, 530129
1, 142560, Note_on_c, 0, 57, 0
1, 142560, Note_on_c, 0, 61, 0
1, 142560, Note_on_c, 0, 49, 0
1, 142560, Note_on_c, 0, 59, 61
1, 142560, Note_on_c, 0, 49, 47
1, 142560, Note_on_c, 0, 56, 57
1, 142620, Note_on_c, 0, 59, 0
1, 142620, Note_on_c, 0, 61, 61
1, 142680, Tempo, 439560
1, 142680, Note_on_c, 0, 61, 0
1, 142680, Note_on_c, 0, 59, 72
1, 143040, Tempo, 463070
1, 143040, Note_on_c, 0, 59, 0
1, 143040, Note_on_c, 0, 56, 0
1, 143040, Note_on_c, 0, 58, 72
1, 143040, Note_on_c, 0, 54, 56
1, 143139, Control_c, 0, 64, 127
1, 143514, Note_on_c, 0, 58, 0
1, 143520, Tempo, 472701
1, 143520, Note_on_c, 0, 54, 0
1, 143520, Note_on_c, 0, 61, 68
1, 143520, Note_on_c, 0, 58, 54
1, 144000, Tempo, 530129
1, 144000, Note_on_c, 0, 58, 0
1, 144000, Note_on_c, 0, 61, 0
1, 144000, Note_on_c, 0, 49, 0
1, 144000, Note_on_c, 0, 59, 62
1, 144000, Note_on_c, 0, 49, 47
1, 144000, Note_on_c, 0, 56, 57
1, 144015, Control_c, 0, 64, 0
1, 144060, Note_on_c, 0, 59, 0
1, 144060, Note_on_c, 0, 61, 63
1, 144120, Tempo, 459313
1, 144120, Note_on_c, 0, 61, 0
1, 144120, Note_on_c, 0, 59, 73
1, 144240, Note_on_c, 0, 59, 0
1, 144240, Note_on_c, 0, 56, 0
1, 144240, Note_on_c, 0, 58, 66
1, 144240, Note_on_c, 0, 54, 51
1, 144480, Tempo, 472701
1, 144480, Note_on_c, 0, 58, 0
1, 144480, Note_on_c, 0, 49, 0
1, 144480, Note_on_c, 0, 66, 72
1, 144480, Note_on_c, 0, 42, 47
1, 144512, Control_c, 0, 64, 127
1, 144960, Tempo, 500000
1, 144960, Note_on_c, 0, 66, 0
1, 144960, Note_on_c, 0, 54, 0
1, 144960, Note_on_c, 0, 78, 58
1, 144971, Control_c, 0, 64, 0
1, 145440, Note_on_c, 0, 42, 0
1, 145440, Note_on_c, 0, 47, 50
1, 145504, Control_c, 0, 64, 127
1, 145680, Note_on_c, 0, 78, 0
1, 145680, Note_on_c, 0, 83, 50
1, 145920, Tempo, 552995
1, 145920, Note_on_c, 0, 83, 0
1, 145920, Note_on_c, 0, 47, 0
1, 145920, Note_on_c, 0, 79, 50
1, 145920, Note_on_c, 0, 64, 40
1, 145920, Note_on_c, 0, 59, 34
1, 145920, Note_on_c, 0, 55, 34
1, 145980, Note_on_c, 0, 79, 0
1, 145980, Note_on_c, 0, 81, 50
1, 146040, Tempo, 491803
1, 146040, Note_on_c, 0, 81, 0
1, 146040, Note_on_c, 0, 79, 57
1, 146400, Tempo, 478088
1, 146400, Note_on_c, 0, 79, 0
1, 146400, Note_on_c, 0, 64, 0
1, 146400, Note_on_c, 0, 59, 0
1, 146400, Note_on_c, 0, 55, 0
1, 146400, Note_on_c, 0, 78, 53
1, 146400, Note_on_c, 0, 64, 39
1, 146400, Note_on_c, 0, 59, 33
1, 146400, Note_on_c, 0, 55, 33
1, 146640, Tempo, 500000
1, 146640, Note_on_c, 0, 78, 0
1, 146640, Note_on_c, 0, 76, 50
1, 146880, Tempo, 436364
1, 146880, Note_on_c, 0, 76, 0
1, 146880, Note_on_c, 0, 55, 0
1, 146880, Note_on_c, 0, 59, 0
1, 146880, Note_on_c, 0, 64, 0
1, 146880, Note_on_c, 0, 78, 55
1, 146880, Note_on_c, 0, 47, 50
1, 146888, Control_c, 0, 64, 0
1, 147020, Tempo, 600000
1, 147120, Tempo, 500000
1, 147120, Note_on_c, 0, 78, 0
1, 147120, Note_on_c, 0, 71, 50
1, 147177, Control_c, 0, 64, 127
1, 147360, Tempo, 489796
1, 147360, Note_on_c, 0, 47, 0
1, 147360, Note_on_c, 0, 62, 31
1, 147360, Note_on_c, 0, 59, 26
1, 147360, Note_on_c, 0, 54, 26
1, 147840, Note_on_c, 0, 54, 0
1, 147840, Note_on_c, 0, 59, 0
1, 147840, Note_on_c, 0, 62, 0
1, 147840, Note_on_c, 0, 62, 31
1, 147840, Note_on_c, 0, 59, 26
1, 147840, Note_on_c, 0, 54, 26
1, 148320, Tempo, 500000
1, 148320, Note_on_c, 0, 54, 0
1, 148320, Note_on_c, 0, 71, 0
1, 148320, Note_on_c, 0, 62, 0
1, 148320, Note_on_c, 0, 59, 0
1, 148320, Note_on_c, 0, 73, 58
1, 148320, Note_on_c, 0, 47, 50
1, 148328, Control_c, 0, 64, 0
1, 148398, Control_c, 0, 64, 127
1, 148560, Note_on_c, 0, 73, 0
1, 148560, Note_on_c, 0, 76, 50
1, 148800, Tempo, 560748
1, 148800, Note_on_c, 0, 76, 0
1, 148800, Note_on_c, 0, 47, 0
1, 148800, Note_on_c, 0, 74, 50
1, 148800, Note_on_c, 0, 64, 40
1, 148800, Note_on_c, 0, 58, 34
1, 148800, Note_on_c, 0, 54, 34
1, 148860, Note_on_c, 0, 74, 0
1, 148860, Note_on_c, 0, 76, 50
1, 148920, Tempo, 487805
1, 148920, Note_on_c, 0, 76, 0
1, 148920, Note_on_c, 0, 74, 57
1, 149280, Tempo, 478088
1, 149280, Note_on_c, 0, 74, 0
1, 149280, Note_on_c, 0, 64, 0
1, 149280, Note_on_c, 0, 58, 0
1, 149280, Note_on_c, 0, 54, 0
1, 149280, Note_on_c, 0, 73, 53
1, 149280, Note_on_c, 0, 64, 39
1, 149280, Note_on_c, 0, 58, 33
1, 149280, Note_on_c, 0, 54, 33
1, 149294, Control_c, 0, 64, 0
1, 149520, Tempo, 500000
1, 149760, Tempo, 436364
1, 149760, Note_on_c, 0, 54, 0
1, 149760, Note_on_c, 0, 73, 0
1, 149760, Note_on_c, 0, 64, 0
1, 149760, Note_on_c, 0, 58, 0
1, 149760, Note_on_c, 0, 74, 55
1, 149760, Note_on_c, 0, 47, 50
1, 149900, Tempo, 600000
1, 149958, Control_c, 0, 64, 127
1, 150000, Tempo, 500000
1, 150000, Note_on_c, 0, 74, 0
1, 150000, Note_on_c, 0, 71, 50
1, 150240, Tempo, 489796
1, 150240, Note_on_c, 0, 47, 0
1, 150240, Note_on_c, 0, 62, 31
1, 150240, Note_on_c, 0, 59, 26
1, 150240, Note_on_c, 0, 54, 26
1, 150720, Tempo, 472441
1, 150720, Note_on_c, 0, 54, 0
1, 150720, Note_on_c, 0, 71, 0
1, 150720, Note_on_c, 0, 62, 0
1, 150720, Note_on_c, 0, 59, 0
1, 150720, Note_on_c, 0, 50, 66
1, 150734, Control_c, 0, 64, 0
1, 151200, Note_on_c, 0, 59, 38
1, 151200, Note_on_c, 0, 65, 43
1, 151440, Note_on_c, 0, 50, 0
1, 151440, Note_on_c, 0, 55, 58
1, 151680, Tempo, 433213
1, 151680, Note_on_c, 0, 55, 0
1, 151680, Note_on_c, 0, 65, 0
1, 151680, Note_on_c, 0, 59, 0
1, 151680, Note_on_c, 0, 52, 65
1, 151680, Note_on_c, 0, 60, 34
1, 151680, Note_on_c, 0, 64, 38
1, 151840, Note_on_c, 0, 52, 0
1, 151840, Note_on_c, 0, 53, 57
1, 152000, Note_on_c, 0, 53, 0
1, 152000, Note_on_c, 0, 52, 55
1, 152160, Tempo, 472441
1, 152160, Note_on_c, 0, 52, 0
1, 152160, Note_on_c, 0, 64, 0
1, 152160, Note_on_c, 0, 60, 0
1, 152160, Note_on_c, 0, 50, 63
1, 152160, Note_on_c, 0, 60, 34
1, 152160, Note_on_c, 0, 64, 38
1, 152400, Note_on_c, 0, 50, 0
1, 152400, Note_on_c, 0, 48, 57
1, 152640, Tempo, 476190
1, 152640, Note_on_c, 0, 48, 0
1, 152640, Note_on_c, 0, 64, 0
1, 152640, Note_on_c, 0, 60, 0
1, 152640, Note_on_c, 0, 50, 64
1, 152640, Note_on_c, 0, 55, 41
1, 152640, Note_on_c, 0, 59, 41
1, 152640, Note_on_c, 0, 65, 46
1, 153000, Note_on_c, 0, 50, 0
1, 153000, Note_on_c, 0, 43, 55
1, 153120, Note_on_c, 0, 43, 0
1, 153120, Note_on_c, 0, 65, 0
1, 153120, Note_on_c, 0, 59, 0
1, 153120, Note_on_c, 0, 55, 0
1, 153120, Note_on_c, 0, 50, 64
1, 153120, Note_on_c, 0, 55, 34
1, 153120, Note_on_c, 0, 59, 34
1, 153120, Note_on_c, 0, 65, 38
1, 153600, Note_on_c, 0, 65, 0
1, 153600, Note_on_c, 0, 50, 0
1, 153600, Note_on_c, 0, 55, 0
1, 153600, Note_on_c, 0, 59, 0
1, 153600, Note_on_c, 0, 48, 59
1, 153600, Note_on_c, 0, 60, 34
1, 153600, Note_on_c, 0, 64, 38
1, 154080, Tempo, 472441
1, 154080, Note_on_c, 0, 64, 0
1, 154080, Note_on_c, 0, 60, 0
1, 154080, Note_on_c, 0, 48, 0
1, 154080, Note_on_c, 0, 50, 66
1, 154080, Note_on_c, 0, 59, 38
1, 154080, Note_on_c, 0, 65, 43
1, 154320, Note_on_c, 0, 50, 0
1, 154320, Note_on_c, 0, 55, 58
1, 154560, Tempo, 433213
1, 154560, Note_on_c, 0, 55, 0
1, 154560, Note_on_c, 0, 65, 0
1, 154560, Note_on_c, 0, 59, 0
1, 154560, Note_on_c, 0, 52, 65
1, 154560, Note_on_c, 0, 60, 34
1, 154560, Note_on_c, 0, 64, 38
1, 154720, Note_on_c, 0, 52, 0
1, 154720, Note_on_c, 0, 53, 57
1, 154880, Note_on_c, 0, 53, 0
1, 154880, Note_on_c, 0, 52, 55
1, 155040, Tempo, 472441
1, 155040, Note_on_c, 0, 52, 0
1, 155040, Note_on_c, 0, 64, 0
1, 155040, Note_on_c, 0, 60, 0
1, 155040, Note_on_c, 0, 50, 63
1, 155040, Note_on_c, 0, 60, 34
1, 155040, Note_on_c, 0, 64, 38
1, 155280, Note_on_c, 0, 50, 0
1, 155280, Note_on_c, 0, 48, 57
1, 155520, Tempo, 476190
1, 155520, Note_on_c, 0, 48, 0
1, 155520, Note_on_c, 0, 64, 0
1, 155520, Note_on_c, 0, 60, 0
1, 155520, Note_on_c, 0, 50, 64
1, 155520, Note_on_c, 0, 55, 41
1, 155520, Note_on_c, 0, 59, 41
1, 155520, Note_on_c, 0, 65, 46
1, 155880, Note_on_c, 0, 50, 0
1, 155880, Note_on_c, 0, 43, 54
1, 156000, Note_on_c, 0, 43, 0
1, 156000, Note_on_c, 0, 65, 0
1, 156000, Note_on_c, 0, 59, 0
1, 156000, Note_on_c, 0, 55, 0
1, 156000, Note_on_c, 0, 50, 62
1, 156000, Note_on_c, 0, 55, 33
1, 156000, Note_on_c, 0, 59, 33
1, 156000, Note_on_c, 0, 65, 37
1, 156480, Note_on_c, 0, 65, 0
1, 156480, Note_on_c, 0, 50, 0
1, 156480, Note_on_c, 0, 55, 0
1, 156480, Note_on_c, 0, 59, 0
1, 156480, Note_on_c, 0, 48, 56
1, 156480, Note_on_c, 0, 60, 32
1, 156480, Note_on_c, 0, 64, 36
1, 156960, Tempo, 452830
1, 156960, Note_on_c, 0, 64, 0
1, 156960, Note_on_c, 0, 60, 0
1, 156960, Note_on_c, 0, 48, 0
1, 156960, Note_on_c, 0, 50, 60
1, 156960, Note_on_c, 0, 55, 38
1, 156960, Note_on_c, 0, 59, 38
1, 156960, Note_on_c, 0, 65, 43
1, 157320, Note_on_c, 0, 50, 0
1, 157320, Note_on_c, 0, 43, 51
1, 157440, Tempo, 487805
1, 157440, Note_on_c, 0, 43, 0
1, 157440, Note_on_c, 0, 65, 0
1, 157440, Note_on_c, 0, 59, 0
1, 157440, Note_on_c, 0, 55, 0
1, 157440, Note_on_c, 0, 48, 58
1, 157440, Note_on_c, 0, 60, 31
1, 157440, Note_on_c, 0, 64, 34
1, 157920, Tempo, 466926
1, 157920, Note_on_c, 0, 64, 0
1, 157920, Note_on_c, 0, 60, 0
1, 157920, Note_on_c, 0, 48, 0
1, 157920, Note_on_c, 0, 50, 57
1, 157920, Note_on_c, 0, 55, 36
1, 157920, Note_on_c, 0, 59, 36
1, 157920, Note_on_c, 0, 65, 41
1, 158280, Note_on_c, 0, 50, 0
1, 158280, Note_on_c, 0, 43, 48
1, 158400, Tempo, 493827
1, 158400, Note_on_c, 0, 43, 0
1, 158400, Note_on_c, 0, 65, 0
1, 158400, Note_on_c, 0, 59, 0
1, 158400, Note_on_c, 0, 55, 0
1, 158400, Note_on_c, 0, 48, 56
1, 158400, Note_on_c, 0, 60, 29
1, 158400, Note_on_c, 0, 64, 29
1, 158880, Tempo, 470588
1, 158880, Note_on_c, 0, 64, 0
1, 158880, Note_on_c, 0, 60, 0
1, 158880, Note_on_c, 0, 48, 0
1, 158880, Note_on_c, 0, 50, 55
1, 158880, Note_on_c, 0, 55, 35
1, 158880, Note_on_c, 0, 59, 35
1, 158880, Note_on_c, 0, 65, 39
1, 159240, Note_on_c, 0, 50, 0
1, 159240, Note_on_c, 0, 43, 46
1, 159360, Tempo, 502092
1, 159360, Note_on_c, 0, 43, 0
1, 159360, Note_on_c, 0, 65, 0
1, 159360, Note_on_c, 0, 59, 0
1, 159360, Note_on_c, 0, 55, 0
1, 159360, Note_on_c, 0, 48, 53
1, 159360, Note_on_c, 0, 60, 28
1, 159360, Note_on_c, 0, 64, 31
1, 159840, Note_on_c, 0, 64, 0
1, 159840, Note_on_c, 0, 60, 0
1, 159840, Note_on_c, 0, 48, 0
1, 159840, Note_on_c, 0, 43, 52
1, 159840, Note_on_c, 0, 55, 52
1, 161280, Tempo, 515021
1, 161280, Note_on_c, 0, 55, 0
1, 161280, Note_on_c, 0, 43, 0
1, 161280, Note_on_c, 0, 42, 60
1, 161280, Note_on_c, 0, 54, 59
1, 162240, Tempo, 582524
1, 162240, Note_on_c, 0, 54, 0
1, 162240, Note_on_c, 0, 42, 0
1, 162240, Note_on_c, 0, 41, 66
1, 162240, Note_on_c, 0, 53, 62
1, 162720, Key_signature, -2, "major"
1, 162720, Tempo, 400000
1, 162720, Note_on_c, 0, 53, 0
1, 162720, Note_on_c, 0, 41, 0
1, 162720, Note_on_c, 0, 34, 74
1, 162819, Control_c, 0, 64, 127
1, 162960, Note_on_c, 0, 34, 0
1, 163200, Tempo, 377358
1, 163200, Note_on_c, 0, 65, 68
1, 163200, Note_on_c, 0, 70, 68
1, 163200, Note_on_c, 0, 74, 80
1, 163200, Note_on_c, 0, 53, 54
1, 163200, Note_on_c, 0, 62, 64
1, 163200, Note_on_c, 0, 58, 54
1, 163680, Note_on_c, 0, 58, 0
1, 163680, Note_on_c, 0, 70, 0
1, 163680, Note_on_c, 0, 74, 0
1, 163680, Note_on_c, 0, 65, 0
1, 163680, Note_on_c, 0, 62, 0
1, 163680, Note_on_c, 0, 53, 0
1, 163680, Note_on_c, 0, 66, 68
1, 163680, Note_on_c, 0, 70, 68
1, 163680, Note_on_c, 0, 75, 80
1, 163680, Note_on_c, 0, 63, 64
1, 163680, Note_on_c, 0, 58, 64
1, 163680, Note_on_c, 0, 54, 64
1, 163692, Control_c, 0, 64, 0
1, 163850, Control_c, 0, 64, 127
1, 164160, Tempo, 361446
1, 164160, Note_on_c, 0, 54, 0
1, 164160, Note_on_c, 0, 70, 0
1, 164160, Note_on_c, 0, 75, 0
1, 164160, Note_on_c, 0, 66, 0
1, 164160, Note_on_c, 0, 58, 0
1, 164160, Note_on_c, 0, 63, 0
1, 164160, Note_on_c, 0, 78, 86
1, 164160, Note_on_c, 0, 46, 73
1, 164169, Control_c, 0, 64, 0
1, 164257, Control_c, 0, 64, 127
1, 164280, Note_on_c, 0, 78, 0
1, 164400, Note_on_c, 0, 46, 0
1, 164520, Note_on_c, 0, 77, 80
1, 164520, Note_on_c, 0, 74, 61
1, 164560, Tempo, 333333
1, 164620, Tempo, 349854
1, 164640, Note_on_c, 0, 74, 0
1, 164640, Note_on_c, 0, 72, 61
1, 164640, Note_on_c, 0, 65, 68
1, 164640, Note_on_c, 0, 62, 57
1, 164640, Note_on_c, 0, 58, 57
1, 165000, Note_on_c, 0, 72, 0
1, 165000, Note_on_c, 0, 77, 0
1, 165000, Note_on_c, 0, 74, 61
1, 165000, Note_on_c, 0, 77, 80
1, 165120, Tempo, 384615
1, 165120, Note_on_c, 0, 74, 0
1, 165120, Note_on_c, 0, 70, 80
1, 165120, Note_on_c, 0, 53, 68
1, 165137, Control_c, 0, 64, 0
1, 165480, Note_on_c, 0, 77, 0
1, 165600, Note_on_c, 0, 65, 0
1, 165600, Note_on_c, 0, 62, 0
1, 165600, Note_on_c, 0, 58, 0
1, 165600, Note_on_c, 0, 53, 0
1, 165600, Note_on_c, 0, 70, 0
1, 165600, Note_on_c, 0, 82, 85
1, 165600, Note_on_c, 0, 34, 72
1, 165720, Control_c, 0, 64, 127
1, 165840, Note_on_c, 0, 34, 0
1, 165840, Note_on_c, 0, 82, 0
1, 166080, Tempo, 377358
1, 166080, Note_on_c, 0, 65, 68
1, 166080, Note_on_c, 0, 70, 68
1, 166080, Note_on_c, 0, 74, 80
1, 166080, Note_on_c, 0, 53, 54
1, 166080, Note_on_c, 0, 62, 64
1, 166080, Note_on_c, 0, 58, 54
1, 166560, Note_on_c, 0, 58, 0
1, 166560, Note_on_c, 0, 70, 0
1, 166560, Note_on_c, 0, 74, 0
1, 166560, Note_on_c, 0, 65, 0
1, 166560, Note_on_c, 0, 62, 0
1, 166560, Note_on_c, 0, 53, 0
1, 166560, Note_on_c, 0, 66, 68
1, 166560, Note_on_c, 0, 70, 68
1, 166560, Note_on_c, 0, 75, 80
1, 166560, Note_on_c, 0, 63, 64
1, 166560, Note_on_c, 0, 58, 64
1, 166560, Note_on_c, 0, 54, 64
1, 166574, Control_c, 0, 64, 0
1, 166730, Control_c, 0, 64, 127
1, 167040, Tempo, 361446
1, 167040, Note_on_c, 0, 54, 0
1, 167040, Note_on_c, 0, 70, 0
1, 167040, Note_on_c, 0, 75, 0
1, 167040, Note_on_c, 0, 66, 0
1, 167040, Note_on_c, 0, 58, 0
1, 167040, Note_on_c, 0, 63, 0
1, 167040, Note_on_c, 0, 78, 86
1, 167040, Note_on_c, 0, 46, 73
1, 167049, Control_c, 0, 64, 0
1, 167137, Control_c, 0, 64, 127
1, 167160, Note_on_c, 0, 78, 0
1, 167280, Note_on_c, 0, 46, 0
1, 167400, Note_on_c, 0, 77, 80
1, 167400, Note_on_c, 0, 74, 61
1, 167440, Tempo, 335196
1, 167520, Tempo, 351906
1, 167520, Note_on_c, 0, 74, 0
1, 167520, Note_on_c, 0, 72, 61
1, 167520, Note_on_c, 0, 65, 68
1, 167520, Note_on_c, 0, 62, 57
1, 167520, Note_on_c, 0, 58, 57
1, 167880, Note_on_c, 0, 72, 0
1, 167880, Note_on_c, 0, 77, 0
1, 167880, Note_on_c, 0, 74, 61
1, 167880, Note_on_c, 0, 77, 80
1, 168000, Tempo, 384615
1, 168000, Note_on_c, 0, 74, 0
1, 168000, Note_on_c, 0, 70, 80
1, 168000, Note_on_c, 0, 53, 68
1, 168007, Control_c, 0, 64, 0
1, 168360, Note_on_c, 0, 77, 0
1, 168480, Tempo, 400000
1, 168480, Note_on_c, 0, 65, 0
1, 168480, Note_on_c, 0, 62, 0
1, 168480, Note_on_c, 0, 58, 0
1, 168480, Note_on_c, 0, 53, 0
1, 168480, Note_on_c, 0, 70, 0
1, 168480, Note_on_c, 0, 34, 79
1, 168579, Control_c, 0, 64, 127
1, 168720, Note_on_c, 0, 34, 0
1, 168960, Tempo, 377358
1, 168960, Note_on_c, 0, 65, 68
1, 168960, Note_on_c, 0, 70, 68
1, 168960, Note_on_c, 0, 74, 80
1, 168960, Note_on_c, 0, 53, 54
1, 168960, Note_on_c, 0, 62, 64
1, 168960, Note_on_c, 0, 58, 54
1, 169440, Note_on_c, 0, 58, 0
1, 169440, Note_on_c, 0, 70, 0
1, 169440, Note_on_c, 0, 74, 0
1, 169440, Note_on_c, 0, 65, 0
1, 169440, Note_on_c, 0, 62, 0
1, 169440, Note_on_c, 0, 53, 0
1, 169440, Note_on_c, 0, 66, 68
1, 169440, Note_on_c, 0, 70, 68
1, 169440, Note_on_c, 0, 75, 80
1, 169440, Note_on_c, 0, 63, 64
1, 169440, Note_on_c, 0, 58, 64
1, 169440, Note_on_c, 0, 54, 64
1, 169449, Control_c, 0, 64, 0
1, 169638, Control_c, 0, 64, 127
1, 169920, Tempo, 361446
1, 169920, Note_on_c, 0, 54, 0
1, 169920, Note_on_c, 0, 70, 0
1, 169920, Note_on_c, 0, 75, 0
1, 169920, Note_on_c, 0, 66, 0
1, 169920, Note_on_c, 0, 58, 0
1, 169920, Note_on_c, 0, 63, 0
1, 169920, Note_on_c, 0, 78, 86
1, 169920, Note_on_c, 0, 46, 73
1, 169931, Control_c, 0, 64, 0
1, 170017, Control_c, 0, 64, 127
1, 170040, Note_on_c, 0, 78, 0
1, 170160, Note_on_c, 0, 46, 0
1, 170280, Tempo, 336134
1, 170280, Note_on_c, 0, 77, 80
1, 170280, Note_on_c, 0, 74, 61
1, 170400, Tempo, 347826
1, 170400, Note_on_c, 0, 74, 0
1, 170400, Note_on_c, 0, 72, 61
1, 170400, Note_on_c, 0, 65, 68
1, 170400, Note_on_c, 0, 62, 57
1, 170400, Note_on_c, 0, 58, 57
1, 170760, Note_on_c, 0, 72, 0
1, 170760, Note_on_c, 0, 77, 0
1, 170760, Note_on_c, 0, 74, 61
1, 170760, Note_on_c, 0, 77, 80
1, 170880, Tempo, 384615
1, 170880, Note_on_c, 0, 74, 0
1, 170880, Note_on_c, 0, 70, 80
1, 170880, Note_on_c, 0, 53, 68
1, 170890, Control_c, 0, 64, 0
1, 171240, Note_on_c, 0, 77, 0
1, 171360, Note_on_c, 0, 65, 0
1, 171360, Note_on_c, 0, 62, 0
1, 171360, Note_on_c, 0, 58, 0
1, 171360, Note_on_c, 0, 53, 0
1, 171360, Note_on_c, 0, 70, 0
1, 171360, Note_on_c, 0, 94, 85
1, 171360, Note_on_c, 0, 82, 80
1, 171360, Note_on_c, 0, 46, 72
1, 171360, Note_on_c, 0, 34, 69
1, 171480, Control_c, 0, 64, 127
1, 171600, Note_on_c, 0, 34, 0
1, 171600, Note_on_c, 0, 94, 0
1, 171600, Note_on_c, 0, 82, 0
1, 171600, Note_on_c, 0, 46, 0
1, 171840, Tempo, 377358
1, 171840, Note_on_c, 0, 65, 68
1, 171840, Note_on_c, 0, 70, 68
1, 171840, Note_on_c, 0, 74, 80
1, 171840, Note_on_c, 0, 53, 54
1, 171840, Note_on_c, 0, 62, 64
1, 171840, Note_on_c, 0, 58, 54
1, 172320, Note_on_c, 0, 58, 0
1, 172320, Note_on_c, 0, 70, 0
1, 172320, Note_on_c, 0, 74, 0
1, 172320, Note_on_c, 0, 65, 0
1, 172320, Note_on_c, 0, 62, 0
1, 172320, Note_on_c, 0, 53, 0
1, 172320, Note_on_c, 0, 66, 68
1, 172320, Note_on_c, 0, 70, 68
1, 172320, Note_on_c, 0, 75, 80
1, 172320, Note_on_c, 0, 63, 64
1, 172320, Note_on_c, 0, 58, 64
1, 172320, Note_on_c, 0, 54, 64
1, 172339, Control_c, 0, 64, 0
1, 172476, Control_c, 0, 64, 127
1, 172800, Tempo, 361446
1, 172800, Note_on_c, 0, 54, 0
1, 172800, Note_on_c, 0, 70, 0
1, 172800, Note_on_c, 0, 75, 0
1, 172800, Note_on_c, 0, 66, 0
1, 172800, Note_on_c, 0, 58, 0
1, 172800, Note_on_c, 0, 63, 0
1, 172800, Note_on_c, 0, 78, 86
1, 172800, Note_on_c, 0, 46, 73
1, 172806, Control_c, 0, 64, 0
1, 172897, Control_c, 0, 64, 127
1, 172920, Note_on_c, 0, 78, 0
1, 173040, Note_on_c, 0, 46, 0
1, 173160, Tempo, 338028
1, 173160, Note_on_c, 0, 77, 80
1, 173160, Note_on_c, 0, 74, 61
1, 173280, Tempo, 349854
1, 173280, Note_on_c, 0, 74, 0
1, 173280, Note_on_c, 0, 72, 61
1, 173280, Note_on_c, 0, 65, 68
1, 173280, Note_on_c, 0, 62, 57
1, 173280, Note_on_c, 0, 58, 57
1, 173640, Note_on_c, 0, 72, 0
1, 173640, Note_on_c, 0, 77, 0
1, 173640, Note_on_c, 0, 74, 61
1, 173640, Note_on_c, 0, 77, 80
1, 173760, Tempo, 384615
1, 173760, Note_on_c, 0, 74, 0
1, 173760, Note_on_c, 0, 70, 80
1, 173760, Note_on_c, 0, 53, 68
1, 173774, Control_c, 0, 64, 0
1, 174120, Note_on_c, 0, 77, 0
1, 174240, Tempo, 400000
1, 174240, Note_on_c, 0, 65, 0
1, 174240, Note_on_c, 0, 62, 0
1, 174240, Note_on_c, 0, 58, 0
1, 174240, Note_on_c, 0, 53, 0
1, 174240, Note_on_c, 0, 70, 0
1, 174240, Note_on_c, 0, 39, 81
1, 174339, Control_c, 0, 64, 127
1, 174480, Note_on_c, 0, 39, 0
1, 174720, Tempo, 377358
1, 174720, Note_on_c, 0, 70, 68
1, 174720, Note_on_c, 0, 75, 68
1, 174720, Note_on_c, 0, 79, 80
1, 174720, Note_on_c, 0, 58, 54
1, 174720, Note_on_c, 0, 67, 64
1, 174720, Note_on_c, 0, 63, 54
1, 175200, Note_on_c, 0, 63, 0
1, 175200, Note_on_c, 0, 75, 0
1, 175200, Note_on_c, 0, 79, 0
1, 175200, Note_on_c, 0, 70, 0
1, 175200, Note_on_c, 0, 67, 0
1, 175200, Note_on_c, 0, 58, 0
1, 175200, Note_on_c, 0, 71, 68
1, 175200, Note_on_c, 0, 75, 68
1, 175200, Note_on_c, 0, 80, 80
1, 175200, Note_on_c, 0, 68, 64
1, 175200, Note_on_c, 0, 63, 64
1, 175200, Note_on_c, 0, 59, 64
1, 175217, Control_c, 0, 64, 0
1, 175341, Control_c, 0, 64, 127
1, 175680, Tempo, 361446
1, 175680, Note_on_c, 0, 59, 0
1, 175680, Note_on_c, 0, 75, 0
1, 175680, Note_on_c, 0, 80, 0
1, 175680, Note_on_c, 0, 71, 0
1, 175680, Note_on_c, 0, 63, 0
1, 175680, Note_on_c, 0, 68, 0
1, 175680, Note_on_c, 0, 83, 88
1, 175680, Note_on_c, 0, 51, 73
1, 175687, Control_c, 0, 64, 0
1, 175777, Control_c, 0, 64, 127
1, 175800, Note_on_c, 0, 83, 0
1, 175920, Note_on_c, 0, 51, 0
1, 176040, Note_on_c, 0, 82, 88
1, 176040, Note_on_c, 0, 79, 61
1, 176160, Tempo, 350877
1, 176160, Note_on_c, 0, 79, 0
1, 176160, Note_on_c, 0, 77, 61
1, 176160, Note_on_c, 0, 67, 68
1, 176160, Note_on_c, 0, 63, 57
1, 176160, Note_on_c, 0, 58, 57
1, 176520, Note_on_c, 0, 77, 0
1, 176520, Note_on_c, 0, 82, 0
1, 176520, Note_on_c, 0, 79, 61
1, 176520, Note_on_c, 0, 82, 88
1, 176640, Tempo, 384615
1, 176640, Note_on_c, 0, 79, 0
1, 176640, Note_on_c, 0, 63, 0
1, 176640, Note_on_c, 0, 58, 0
1, 176640, Note_on_c, 0, 67, 0
1, 176640, Note_on_c, 0, 75, 80
1, 176640, Note_on_c, 0, 51, 68
1, 176657, Control_c, 0, 64, 0
1, 177000, Note_on_c, 0, 82, 0
1, 177120, Note_on_c, 0, 51, 0
1, 177120, Note_on_c, 0, 75, 0
1, 177120, Note_on_c, 0, 99, 93
1, 177120, Note_on_c, 0, 87, 88
1, 177120, Note_on_c, 0, 39, 73
1, 177240, Control_c, 0, 64, 127
1, 177360, Note_on_c, 0, 39, 0
1, 177360, Note_on_c, 0, 87, 0
1, 177360, Note_on_c, 0, 99, 0
1, 177600, Tempo, 377358
1, 177600, Note_on_c, 0, 70, 68
1, 177600, Note_on_c, 0, 75, 68
1, 177600, Note_on_c, 0, 79, 80
1, 177600, Note_on_c, 0, 58, 54
1, 177600, Note_on_c, 0, 67, 64
1, 177600, Note_on_c, 0, 63, 54
1, 178080, Note_on_c, 0, 63, 0
1, 178080, Note_on_c, 0, 75, 0
1, 178080, Note_on_c, 0, 79, 0
1, 178080, Note_on_c, 0, 70, 0
1, 178080, Note_on_c, 0, 67, 0
1, 178080, Note_on_c, 0, 58, 0
1, 178080, Note_on_c, 0, 71, 68
1, 178080, Note_on_c, 0, 75, 68
1, 178080, Note_on_c, 0, 80, 80
1, 178080, Note_on_c, 0, 68, 64
1, 178080, Note_on_c, 0, 63, 64
1, 178080, Note_on_c, 0, 59, 64
1, 178089, Control_c, 0, 64, 0
1, 178236, Control_c, 0, 64, 127
1, 178560, Tempo, 373832
1, 178560, Note_on_c, 0, 59, 0
1, 178560, Note_on_c, 0, 75, 0
1, 178560, Note_on_c, 0, 80, 0
1, 178560, Note_on_c, 0, 71, 0
1, 178560, Note_on_c, 0, 63, 0
1, 178560, Note_on_c, 0, 68, 0
1, 178560, Note_on_c, 0, 83, 87
1, 178560, Note_on_c, 0, 51, 73
1, 178574, Control_c, 0, 64, 0
1, 178657, Control_c, 0, 64, 127
1, 178680, Note_on_c, 0, 83, 0
1, 178800, Note_on_c, 0, 51, 0
1, 178920, Note_on_c, 0, 82, 88
1, 178920, Note_on_c, 0, 79, 61
1, 179040, Tempo, 363636
1, 179040, Note_on_c, 0, 79, 0
1, 179040, Note_on_c, 0, 77, 61
1, 179040, Note_on_c, 0, 70, 68
1, 179040, Note_on_c, 0, 67, 57
1, 179040, Note_on_c, 0, 61, 57
1, 179400, Note_on_c, 0, 77, 0
1, 179400, Note_on_c, 0, 82, 0
1, 179400, Note_on_c, 0, 79, 61
1, 179400, Note_on_c, 0, 82, 88
1, 179520, Tempo, 384615
1, 179520, Note_on_c, 0, 79, 0
1, 179520, Note_on_c, 0, 67, 0
1, 179520, Note_on_c, 0, 61, 0
1, 179520, Note_on_c, 0, 70, 0
1, 179520, Note_on_c, 0, 76, 80
1, 179520, Note_on_c, 0, 51, 68
1, 179532, Control_c, 0, 64, 0
1, 179880, Note_on_c, 0, 82, 0
1, 180000, Note_on_c, 0, 51, 0
1, 180000, Note_on_c, 0, 39, 73
1, 180184, Control_c, 0, 64, 127
1, 180240, Note_on_c, 0, 39, 0
1, 180480, Tempo, 371517
1, 180480, Note_on_c, 0, 70, 68
1, 180480, Note_on_c, 0, 79, 80
1, 180480, Note_on_c, 0, 61, 65
1, 180960, Tempo, 384615
1, 180960, Note_on_c, 0, 61, 0
1, 180960, Note_on_c, 0, 79, 0
1, 180960, Note_on_c, 0, 70, 0
1, 180960, Note_on_c, 0, 71, 65
1, 180960, Note_on_c, 0, 80, 77
1, 180960, Note_on_c, 0, 62, 57
1, 180976, Control_c, 0, 64, 0
1, 181440, Tempo, 375000
1, 181440, Note_on_c, 0, 62, 0
1, 181440, Note_on_c, 0, 76, 0
1, 181440, Note_on_c, 0, 71, 0
1, 181440, Note_on_c, 0, 80, 0
1, 181440, Note_on_c, 0, 70, 65
1, 181440, Note_on_c, 0, 75, 65
1, 181440, Note_on_c, 0, 79, 77
1, 181440, Note_on_c, 0, 63, 59
1, 181520, Tempo, 376176
1, 181600, Tempo, 377358
1, 181680, Tempo, 378549
1, 181760, Tempo, 379747
1, 181840, Tempo, 380952
1, 181920, Tempo, 382166
1, 181920, Note_on_c, 0, 63, 0
1, 181920, Note_on_c, 0, 79, 0
1, 181920, Note_on_c, 0, 75, 0
1, 181920, Note_on_c, 0, 73, 62
1, 181920, Note_on_c, 0, 78, 74
1, 181920, Note_on_c, 0, 64, 57
1, 182000, Tempo, 383387
1, 182080, Tempo, 384615
1, 182160, Tempo, 385852
1, 182200, Tempo, 387097
1, 182280, Tempo, 388350
1, 182360, Tempo, 389610
1, 182400, Note_on_c, 0, 64, 0
1, 182400, Note_on_c, 0, 78, 0
1, 182400, Note_on_c, 0, 77, 71
1, 182400, Note_on_c, 0, 65, 54
1, 182440, Tempo, 390879
1, 182520, Tempo, 392157
1, 182600, Tempo, 393443
1, 182680, Tempo, 394737
1, 182760, Tempo, 396040
1, 182840, Tempo, 397351
1, 182880, Tempo, 398671
1, 182880, Note_on_c, 0, 65, 0
1, 182880, Note_on_c, 0, 77, 0
1, 182880, Note_on_c, 0, 76, 69
1, 182880, Note_on_c, 0, 66, 52
1, 183360, Tempo, 390879
1, 183360, Note_on_c, 0, 66, 0
1, 183360, Note_on_c, 0, 54, 59
1, 183780, Note_on_c, 0, 54, 0
1, 183780, Note_on_c, 0, 58, 60
1, 183840, Note_on_c, 0, 58, 0
1, 183840, Note_on_c, 0, 56, 68
1, 184240, Tempo, 400000
1, 184320, Tempo, 401338
1, 184320, Note_on_c, 0, 56, 0
1, 184320, Note_on_c, 0, 76, 0
1, 184320, Note_on_c, 0, 73, 0
1, 184320, Note_on_c, 0, 70, 0
1, 184320, Note_on_c, 0, 54, 63
1, 184400, Tempo, 402685
1, 184480, Tempo, 404040
1, 184520, Tempo, 405405
1, 184600, Tempo, 406780
1, 184680, Tempo, 408163
1, 184760, Tempo, 409556
1, 184800, Tempo, 410959
1, 184800, Note_on_c, 0, 54, 0
1, 184800, Note_on_c, 0, 49, 56
1, 184880, Tempo, 412371
1, 184960, Tempo, 413793
1, 185040, Tempo, 415225
1, 185080, Tempo, 416667
1, 185160, Tempo, 418118
1, 185240, Tempo, 419580
1, 185280, Note_on_c, 0, 49, 0
1, 185280, Note_on_c, 0, 54, 53
1, 185320, Tempo, 421053
1, 185360, Tempo, 422535
1, 185440, Tempo, 424028
1, 185520, Tempo, 425532
1, 185600, Tempo, 427046
1, 185640, Tempo, 428571
1, 185760, Key_signature, 5, "major"
1, 185760, Tempo, 493827
1, 185760, Note_on_c, 0, 54, 0
1, 185760, Note_on_c, 0, 75, 59
1, 185760, Note_on_c, 0, 47, 50
1, 185929, Control_c, 0, 64, 127
1, 186000, Note_on_c, 0, 75, 0
1, 186000, Note_on_c, 0, 76, 61
1, 186240, Tempo, 487805
1, 186240, Note_on_c, 0, 76, 0
1, 186240, Note_on_c, 0, 47, 0
1, 186240, Note_on_c, 0, 77, 63
1, 186240, Note_on_c, 0, 63, 43
1, 186240, Note_on_c, 0, 59, 36
1, 186240, Note_on_c, 0, 54, 36
1, 186720, Tempo, 508475
1, 186720, Note_on_c, 0, 54, 0
1, 186720, Note_on_c, 0, 77, 0
1, 186720, Note_on_c, 0, 63, 0
1, 186720, Note_on_c, 0, 59, 0
1, 186720, Note_on_c, 0, 78, 70
1, 186720, Note_on_c, 0, 63, 36
1, 186720, Note_on_c, 0, 71, 43
1, 186732, Control_c, 0, 64, 0
1, 187200, Tempo, 502092
1, 187200, Note_on_c, 0, 71, 0
1, 187200, Note_on_c, 0, 63, 0
1, 187200, Note_on_c, 0, 78, 0
1, 187200, Note_on_c, 0, 79, 77
1, 187200, Note_on_c, 0, 40, 53
1, 187313, Control_c, 0, 64, 127
1, 187560, Note_on_c, 0, 79, 0
1, 187560, Note_on_c, 0, 80, 64
1, 187680, Tempo, 495868
1, 187680, Note_on_c, 0, 80, 0
1, 187680, Note_on_c, 0, 40, 0
1, 187680, Note_on_c, 0, 76, 76
1, 187680, Note_on_c, 0, 61, 37
1, 187680, Note_on_c, 0, 59, 37
1, 187680, Note_on_c, 0, 64, 37
1, 187680, Note_on_c, 0, 68, 44
1, 187701, Control_c, 0, 64, 0
1, 187878, Control_c, 0, 64, 127
1, 188160, Tempo, 510638
1, 188160, Note_on_c, 0, 68, 0
1, 188160, Note_on_c, 0, 59, 0
1, 188160, Note_on_c, 0, 64, 0
1, 188160, Note_on_c, 0, 61, 0
1, 188400, Note_on_c, 0, 76, 0
1, 188400, Note_on_c, 0, 75, 67
1, 188640, Tempo, 495868
1, 188640, Note_on_c, 0, 75, 0
1, 188640, Note_on_c, 0, 75, 71
1, 188640, Control_c, 0, 64, 0
1, 188640, Note_on_c, 0, 42, 50
1, 188725, Control_c, 0, 64, 127
1, 188880, Tempo, 515021
1, 188880, Note_on_c, 0, 75, 0
1, 188880, Note_on_c, 0, 73, 59
1, 188940, Note_on_c, 0, 73, 0
1, 188940, Note_on_c, 0, 75, 60
1, 189000, Tempo, 495868
1, 189000, Note_on_c, 0, 75, 0
1, 189000, Note_on_c, 0, 73, 69
1, 189120, Note_on_c, 0, 73, 0
1, 189120, Note_on_c, 0, 42, 0
1, 189120, Note_on_c, 0, 72, 67
1, 189120, Note_on_c, 0, 64, 43
1, 189120, Note_on_c, 0, 58, 36
1, 189120, Note_on_c, 0, 54, 36
1, 189600, Tempo, 535714
1, 189600, Note_on_c, 0, 54, 0
1, 189600, Note_on_c, 0, 72, 0
1, 189600, Note_on_c, 0, 64, 0
1, 189600, Note_on_c, 0, 58, 0
1, 189600, Note_on_c, 0, 73, 70
1, 189600, Note_on_c, 0, 54, 38
1, 189600, Note_on_c, 0, 58, 38
1, 189600, Note_on_c, 0, 64, 45
1, 189613, Control_c, 0, 64, 0
1, 190080, Tempo, 506329
1, 190080, Note_on_c, 0, 64, 0
1, 190080, Note_on_c, 0, 73, 0
1, 190080, Note_on_c, 0, 54, 0
1, 190080, Note_on_c, 0, 58, 0
1, 190080, Note_on_c, 0, 76, 74
1, 190080, Note_on_c, 0, 43, 54
1, 190309, Control_c, 0, 64, 127
1, 190560, Tempo, 491803
1, 190560, Note_on_c, 0, 43, 0
1, 190560, Note_on_c, 0, 63, 47
1, 190560, Note_on_c, 0, 58, 39
1, 190560, Note_on_c, 0, 51, 39
1, 191040, Tempo, 508475
1, 191040, Note_on_c, 0, 51, 0
1, 191040, Note_on_c, 0, 76, 0
1, 191040, Note_on_c, 0, 63, 0
1, 191040, Note_on_c, 0, 58, 0
1, 191040, Note_on_c, 0, 75, 64
1, 191040, Note_on_c, 0, 51, 37
1, 191040, Note_on_c, 0, 58, 37
1, 191040, Note_on_c, 0, 63, 44
1, 191520, Note_on_c, 0, 63, 0
1, 191520, Note_on_c, 0, 75, 0
1, 191520, Note_on_c, 0, 51, 0
1, 191520, Note_on_c, 0, 58, 0
1, 191520, Note_on_c, 0, 71, 58
1, 191520, Note_on_c, 0, 44, 50
1, 191532, Control_c, 0, 64, 0
1, 191675, Control_c, 0, 64, 127
1, 191760, Note_on_c, 0, 71, 0
1, 191760, Note_on_c, 0, 73, 60
1, 192000, Tempo, 497925
1, 192000, Note_on_c, 0, 73, 0
1, 192000, Note_on_c, 0, 44, 0
1, 192000, Note_on_c, 0, 74, 63
1, 192000, Note_on_c, 0, 59, 43
1, 192000, Note_on_c, 0, 56, 36
1, 192000, Note_on_c, 0, 51, 36
1, 192480, Tempo, 515021
1, 192480, Note_on_c, 0, 51, 0
1, 192480, Note_on_c, 0, 74, 0
1, 192480, Note_on_c, 0, 59, 0
1, 192480, Note_on_c, 0, 56, 0
1, 192480, Note_on_c, 0, 75, 68
1, 192480, Note_on_c, 0, 51, 36
1, 192480, Note_on_c, 0, 56, 36
1, 192480, Note_on_c, 0, 59, 43
1, 192494, Control_c, 0, 64, 0
1, 192960, Note_on_c, 0, 59, 0
1, 192960, Note_on_c, 0, 75, 0
1, 192960, Note_on_c, 0, 51, 0
1, 192960, Note_on_c, 0, 56, 0
1, 192960, Note_on_c, 0, 78, 72
1, 192960, Note_on_c, 0, 37, 53
1, 193002, Control_c, 0, 64, 127
1, 193200, Note_on_c, 0, 78, 0
1, 193200, Note_on_c, 0, 76, 64
1, 193440, Tempo, 504202
1, 193440, Note_on_c, 0, 76, 0
1, 193440, Note_on_c, 0, 37, 0
1, 193440, Note_on_c, 0, 73, 70
1, 193440, Note_on_c, 0, 64, 45
1, 193440, Note_on_c, 0, 61, 38
1, 193440, Note_on_c, 0, 56, 38
1, 193920, Tempo, 540541
1, 193920, Note_on_c, 0, 56, 0
1, 193920, Note_on_c, 0, 73, 0
1, 193920, Note_on_c, 0, 64, 0
1, 193920, Note_on_c, 0, 61, 0
1, 193920, Note_on_c, 0, 68, 56
1, 193980, Note_on_c, 0, 68, 0
1, 193980, Note_on_c, 0, 70, 56
1, 194040, Tempo, 466926
1, 194040, Note_on_c, 0, 70, 0
1, 194040, Note_on_c, 0, 68, 64
1, 194050, Control_c, 0, 64, 0
1, 194160, Tempo, 517241
1, 194400, Note_on_c, 0, 68, 0
1, 194400, Note_on_c, 0, 67, 64
1, 194400, Note_on_c, 0, 50, 50
1, 194492, Control_c, 0, 64, 127
1, 194760, Note_on_c, 0, 67, 0
1, 194760, Note_on_c, 0, 68, 61
1, 194880, Tempo, 504202
1, 194880, Note_on_c, 0, 68, 0
1, 194880, Note_on_c, 0, 50, 0
1, 194880, Note_on_c, 0, 71, 64
1, 194880, Note_on_c, 0, 65, 44
1, 194880, Note_on_c, 0, 59, 37
1, 194880, Note_on_c, 0, 56, 37
1, 195360, Tempo, 515021
1, 195360, Note_on_c, 0, 56, 0
1, 195360, Note_on_c, 0, 71, 0
1, 195360, Note_on_c, 0, 65, 0
1, 195360, Note_on_c, 0, 59, 0
1, 195360, Note_on_c, 0, 70, 64
1, 195360, Note_on_c, 0, 56, 37
1, 195360, Note_on_c, 0, 58, 37
1, 195360, Note_on_c, 0, 65, 44
1, 195379, Control_c, 0, 64, 0
1, 195840, Note_on_c, 0, 65, 0
1, 195840, Note_on_c, 0, 70, 0
1, 195840, Note_on_c, 0, 56, 0
1, 195840, Note_on_c, 0, 58, 0
1, 195840, Note_on_c, 0, 67, 69
1, 195840, Note_on_c, 0, 51, 55
1, 196023, Control_c, 0, 64, 127
1, 196320, Tempo, 526316
1, 196320, Note_on_c, 0, 51, 0
1, 196320, Note_on_c, 0, 63, 47
1, 196320, Note_on_c, 0, 58, 39
1, 196320, Note_on_c, 0, 55, 39
1, 196800, Tempo, 568182
1, 196800, Note_on_c, 0, 55, 0
1, 196800, Note_on_c, 0, 67, 0
1, 196800, Note_on_c, 0, 63, 0
1, 196800, Note_on_c, 0, 58, 0
1, 196800, Note_on_c, 0, 66, 64
1, 196800, Note_on_c, 0, 49, 39
1, 196800, Note_on_c, 0, 54, 39
1, 196800, Note_on_c, 0, 58, 39
1, 196800, Note_on_c, 0, 64, 47
1, 196817, Control_c, 0, 64, 0
1, 197280, Tempo, 493827
1, 197280, Note_on_c, 0, 64, 0
1, 197280, Note_on_c, 0, 54, 0
1, 197280, Note_on_c, 0, 66, 0
1, 197280, Note_on_c, 0, 49, 0
1, 197280, Note_on_c, 0, 58, 0
1, 197280, Note_on_c, 0, 75, 59
1, 197280, Note_on_c, 0, 47, 50
1, 197449, Control_c, 0, 64, 127
1, 197520, Note_on_c, 0, 75, 0
1, 197520, Note_on_c, 0, 76, 61
1, 197760, Tempo, 487805
1, 197760, Note_on_c, 0, 76, 0
1, 197760, Note_on_c, 0, 47, 0
1, 197760, Note_on_c, 0, 78, 63
1, 197760, Note_on_c, 0, 63, 43
1, 197760, Note_on_c, 0, 59, 36
1, 197760, Note_on_c, 0, 54, 36
1, 198000, Tempo, 539568
1, 198240, Tempo, 555556
1, 198240, Note_on_c, 0, 54, 0
1, 198240, Note_on_c, 0, 78, 0
1, 198240, Note_on_c, 0, 63, 0
1, 198240, Note_on_c, 0, 59, 0
1, 198240, Note_on_c, 0, 87, 69
1, 198720, Tempo, 502092
1, 198720, Note_on_c, 0, 87, 0
1, 198720, Note_on_c, 0, 85, 69
1, 198720, Note_on_c, 0, 40, 51
1, 198727, Control_c, 0, 64, 0
1, 198904, Control_c, 0, 64, 127
1, 198960, Note_on_c, 0, 85, 0
1, 198960, Note_on_c, 0, 83, 64
1, 199200, Tempo, 495868
1, 199200, Note_on_c, 0, 83, 0
1, 199200, Note_on_c, 0, 40, 0
1, 199200, Note_on_c, 0, 80, 69
1, 199200, Note_on_c, 0, 61, 37
1, 199200, Note_on_c, 0, 59, 37
1, 199200, Note_on_c, 0, 64, 37
1, 199200, Note_on_c, 0, 68, 44
1, 199680, Tempo, 510638
1, 199680, Note_on_c, 0, 68, 0
1, 199680, Note_on_c, 0, 59, 0
1, 199680, Note_on_c, 0, 80, 0
1, 199680, Note_on_c, 0, 61, 0
1, 199680, Note_on_c, 0, 64, 0
1, 199680, Note_on_c, 0, 76, 67
1, 200160, Tempo, 495868
1, 200160, Note_on_c, 0, 76, 0
1, 200160, Note_on_c, 0, 75, 71
1, 200160, Note_on_c, 0, 42, 50
1, 200167, Control_c, 0, 64, 0
1, 200245, Control_c, 0, 64, 127
1, 200400, Tempo, 515021
1, 200400, Note_on_c, 0, 75, 0
1, 200400, Note_on_c, 0, 73, 59
1, 200460, Note_on_c, 0, 73, 0
1, 200460, Note_on_c, 0, 75, 60
1, 200520, Tempo, 495868
1, 200520, Note_on_c, 0, 75, 0
1, 200520, Note_on_c, 0, 73, 69
1, 200640, Note_on_c, 0, 73, 0
1, 200640, Note_on_c, 0, 42, 0
1, 200640, Note_on_c, 0, 72, 67
1, 200640, Note_on_c, 0, 64, 43
1, 200640, Note_on_c, 0, 58, 36
1, 200640, Note_on_c, 0, 54, 36
1, 201120, Tempo, 535714
1, 201120, Note_on_c, 0, 54, 0
1, 201120, Note_on_c, 0, 72, 0
1, 201120, Note_on_c, 0, 64, 0
1, 201120, Note_on_c, 0, 58, 0
1, 201120, Note_on_c, 0, 73, 70
1, 201120, Note_on_c, 0, 54, 38
1, 201120, Note_on_c, 0, 58, 38
1, 201120, Note_on_c, 0, 64, 45
1, 201138, Control_c, 0, 64, 0
1, 201600, Tempo, 506329
1, 201600, Note_on_c, 0, 64, 0
1, 201600, Note_on_c, 0, 73, 0
1, 201600, Note_on_c, 0, 54, 0
1, 201600, Note_on_c, 0, 58, 0
1, 201600, Note_on_c, 0, 76, 71
1, 201600, Note_on_c, 0, 43, 54
1, 201829, Control_c, 0, 64, 127
1, 202080, Tempo, 491803
1, 202080, Note_on_c, 0, 43, 0
1, 202080, Note_on_c, 0, 63, 47
1, 202080, Note_on_c, 0, 58, 39
1, 202080, Note_on_c, 0, 51, 39
1, 202560, Tempo, 543478
1, 202560, Note_on_c, 0, 51, 0
1, 202560, Note_on_c, 0, 76, 0
1, 202560, Note_on_c, 0, 63, 0
1, 202560, Note_on_c, 0, 58, 0
1, 202560, Note_on_c, 0, 75, 64
1, 202560, Note_on_c, 0, 51, 37
1, 202560, Note_on_c, 0, 58, 37
1, 202560, Note_on_c, 0, 63, 44
1, 203040, Tempo, 506329
1, 203040, Note_on_c, 0, 63, 0
1, 203040, Note_on_c, 0, 75, 0
1, 203040, Note_on_c, 0, 51, 0
1, 203040, Note_on_c, 0, 58, 0
1, 203040, Note_on_c, 0, 75, 77
1, 203040, Note_on_c, 0, 44, 55
1, 203051, Control_c, 0, 64, 0
1, 203195, Control_c, 0, 64, 127
1, 203520, Tempo, 497925
1, 203520, Note_on_c, 0, 44, 0
1, 203520, Note_on_c, 0, 53, 36
1, 203520, Note_on_c, 0, 63, 43
1, 203520, Note_on_c, 0, 59, 36
1, 203520, Note_on_c, 0, 56, 36
1, 203760, Note_on_c, 0, 75, 0
1, 203760, Note_on_c, 0, 75, 64
1, 203820, Note_on_c, 0, 75, 0
1, 203820, Note_on_c, 0, 77, 64
1, 203880, Note_on_c, 0, 77, 0
1, 203880, Note_on_c, 0, 75, 72
1, 204000, Tempo, 515021
1, 204000, Note_on_c, 0, 75, 0
1, 204000, Note_on_c, 0, 56, 0
1, 204000, Note_on_c, 0, 53, 0
1, 204000, Note_on_c, 0, 63, 0
1, 204000, Note_on_c, 0, 59, 0
1, 204000, Note_on_c, 0, 73, 74
1, 204015, Control_c, 0, 64, 0
1, 204240, Note_on_c, 0, 73, 0
1, 204240, Note_on_c, 0, 71, 71
1, 204480, Note_on_c, 0, 71, 0
1, 204480, Note_on_c, 0, 70, 79
1, 204480, Note_on_c, 0, 46, 53
1, 204522, Control_c, 0, 64, 127
1, 204720, Note_on_c, 0, 70, 0
1, 204720, Note_on_c, 0, 75, 73
1, 204960, Tempo, 504202
1, 204960, Note_on_c, 0, 75, 0
1, 204960, Note_on_c, 0, 46, 0
1, 204960, Note_on_c, 0, 78, 80
1, 204960, Note_on_c, 0, 63, 45
1, 204960, Note_on_c, 0, 58, 38
1, 204960, Note_on_c, 0, 54, 38
1, 205440, Tempo, 510638
1, 205440, Note_on_c, 0, 54, 0
1, 205440, Note_on_c, 0, 78, 0
1, 205440, Note_on_c, 0, 63, 0
1, 205440, Note_on_c, 0, 58, 0
1, 205440, Note_on_c, 0, 83, 79
1, 205440, Note_on_c, 0, 54, 38
1, 205440, Note_on_c, 0, 58, 38
1, 205440, Note_on_c, 0, 63, 45
1, 205453, Control_c, 0, 64, 0
1, 205680, Tempo, 517241
1, 205920, Note_on_c, 0, 63, 0
1, 205920, Note_on_c, 0, 83, 0
1, 205920, Note_on_c, 0, 54, 0
1, 205920, Note_on_c, 0, 58, 0
1, 205920, Note_on_c, 0, 82, 81
1, 205920, Note_on_c, 0, 46, 50
1, 206012, Control_c, 0, 64, 127
1, 206160, Note_on_c, 0, 82, 0
1, 206160, Note_on_c, 0, 77, 70
1, 206400, Tempo, 504202
1, 206400, Note_on_c, 0, 77, 0
1, 206400, Note_on_c, 0, 46, 0
1, 206400, Note_on_c, 0, 80, 80
1, 206400, Note_on_c, 0, 62, 44
1, 206400, Note_on_c, 0, 58, 37
1, 206400, Note_on_c, 0, 56, 37
1, 206880, Tempo, 515021
1, 206880, Note_on_c, 0, 56, 0
1, 206880, Note_on_c, 0, 58, 0
1, 206880, Note_on_c, 0, 62, 0
1, 206880, Note_on_c, 0, 56, 37
1, 206880, Note_on_c, 0, 58, 37
1, 206880, Note_on_c, 0, 65, 44
1, 207120, Note_on_c, 0, 80, 0
1, 207120, Note_on_c, 0, 78, 77
1, 207360, Note_on_c, 0, 78, 0
1, 207360, Note_on_c, 0, 65, 0
1, 207360, Note_on_c, 0, 58, 0
1, 207360, Note_on_c, 0, 56, 0
1, 207360, Note_on_c, 0, 75, 81
1, 207360, Note_on_c, 0, 51, 55
1, 207370, Control_c, 0, 64, 0
1, 207543, Control_c, 0, 64, 127
1, 207840, Tempo, 568182
1, 207840, Note_on_c, 0, 51, 0
1, 207840, Note_on_c, 0, 75, 0
1, 207840, Note_on_c, 0, 66, 80
1, 207840, Note_on_c, 0, 63, 39
1, 207840, Note_on_c, 0, 58, 33
1, 207840, Note_on_c, 0, 54, 29
1, 208080, Tempo, 542986
1, 208080, Note_on_c, 0, 66, 0
1, 208080, Note_on_c, 0, 78, 79
1, 208320, Tempo, 547445
1, 208320, Note_on_c, 0, 78, 0
1, 208320, Note_on_c, 0, 54, 0
1, 208320, Note_on_c, 0, 58, 0
1, 208320, Note_on_c, 0, 63, 0
1, 208320, Note_on_c, 0, 77, 78
1, 208320, Note_on_c, 0, 49, 23
1, 208320, Note_on_c, 0, 54, 28
1, 208320, Note_on_c, 0, 58, 30
1, 208320, Note_on_c, 0, 64, 35
1, 208334, Control_c, 0, 64, 0
1, 208480, Control_c, 0, 64, 127
1, 208560, Tempo, 585938
1, 208560, Note_on_c, 0, 77, 0
1, 208560, Note_on_c, 0, 76, 70
1, 208800, Tempo, 493827
1, 208800, Note_on_c, 0, 76, 0
1, 208800, Note_on_c, 0, 64, 0
1, 208800, Note_on_c, 0, 49, 0
1, 208800, Note_on_c, 0, 54, 0
1, 208800, Note_on_c, 0, 58, 0
1, 208800, Note_on_c, 0, 75, 67
1, 208800, Note_on_c, 0, 47, 50
1, 208807, Control_c, 0, 64, 0
1, 208969, Control_c, 0, 64, 127
1, 209040, Note_on_c, 0, 75, 0
1, 209040, Note_on_c, 0, 76, 70
1, 209280, Tempo, 487805
1, 209280, Note_on_c, 0, 76, 0
1, 209280, Note_on_c, 0, 47, 0
1, 209280, Note_on_c, 0, 77, 72
1, 209280, Note_on_c, 0, 63, 43
1, 209280, Note_on_c, 0, 59, 36
1, 209280, Note_on_c, 0, 57, 36
1, 209760, Tempo, 508475
1, 209760, Note_on_c, 0, 57, 0
1, 209760, Note_on_c, 0, 77, 0
1, 209760, Note_on_c, 0, 63, 0
1, 209760, Note_on_c, 0, 59, 0
1, 209760, Note_on_c, 0, 78, 75
1, 209760, Note_on_c, 0, 59, 36
1, 209760, Note_on_c, 0, 63, 36
1, 209760, Note_on_c, 0, 69, 43
1, 209773, Control_c, 0, 64, 0
1, 210240, Tempo, 502092
1, 210240, Note_on_c, 0, 69, 0
1, 210240, Note_on_c, 0, 78, 0
1, 210240, Note_on_c, 0, 59, 0
1, 210240, Note_on_c, 0, 63, 0
1, 210240, Note_on_c, 0, 79, 75
1, 210240, Note_on_c, 0, 40, 53
1, 210353, Control_c, 0, 64, 127
1, 210600, Note_on_c, 0, 79, 0
1, 210600, Note_on_c, 0, 80, 64
1, 210720, Tempo, 495868
1, 210720, Note_on_c, 0, 80, 0
1, 210720, Note_on_c, 0, 40, 0
1, 210720, Note_on_c, 0, 76, 69
1, 210720, Note_on_c, 0, 61, 37
1, 210720, Note_on_c, 0, 59, 37
1, 210720, Note_on_c, 0, 64, 37
1, 210720, Note_on_c, 0, 68, 44
1, 210741, Control_c, 0, 64, 0
1, 210836, Control_c, 0, 64, 127
1, 211200, Tempo, 510638
1, 211200, Note_on_c, 0, 68, 0
1, 211200, Note_on_c, 0, 59, 0
1, 211200, Note_on_c, 0, 64, 0
1, 211200, Note_on_c, 0, 61, 0
1, 211440, Note_on_c, 0, 76, 0
1, 211440, Note_on_c, 0, 75, 67
1, 211680, Tempo, 495868
1, 211680, Note_on_c, 0, 75, 0
1, 211680, Note_on_c, 0, 75, 71
1, 211680, Control_c, 0, 64, 0
1, 211680, Note_on_c, 0, 42, 50
1, 211765, Control_c, 0, 64, 127
1, 211920, Tempo, 515021
1, 211920, Note_on_c, 0, 75, 0
1, 211920, Note_on_c, 0, 73, 59
1, 211980, Note_on_c, 0, 73, 0
1, 211980, Note_on_c, 0, 75, 60
1, 212040, Tempo, 495868
1, 212040, Note_on_c, 0, 75, 0
1, 212040, Note_on_c, 0, 73, 69
1, 212160, Note_on_c, 0, 73, 0
1, 212160, Note_on_c, 0, 42, 0
1, 212160, Note_on_c, 0, 72, 67
1, 212160, Note_on_c, 0, 64, 43
1, 212160, Note_on_c, 0, 58, 36
1, 212160, Note_on_c, 0, 54, 36
1, 212640, Tempo, 524017
1, 212640, Note_on_c, 0, 54, 0
1, 212640, Note_on_c, 0, 72, 0
1, 212640, Note_on_c, 0, 64, 0
1, 212640, Note_on_c, 0, 58, 0
1, 212640, Note_on_c, 0, 73, 70
1, 212640, Note_on_c, 0, 54, 38
1, 212640, Note_on_c, 0, 58, 38
1, 212640, Note_on_c, 0, 64, 45
1, 212654, Control_c, 0, 64, 0
1, 212880, Tempo, 585938
1, 213120, Tempo, 506329
1, 213120, Note_on_c, 0, 64, 0
1, 213120, Note_on_c, 0, 73, 0
1, 213120, Note_on_c, 0, 54, 0
1, 213120, Note_on_c, 0, 58, 0
1, 213120, Note_on_c, 0, 76, 73
1, 213120, Note_on_c, 0, 43, 54
1, 213349, Control_c, 0, 64, 127
1, 213600, Tempo, 491803
1, 213600, Note_on_c, 0, 43, 0
1, 213600, Note_on_c, 0, 63, 47
1, 213600, Note_on_c, 0, 58, 39
1, 213600, Note_on_c, 0, 51, 39
1, 214080, Tempo, 508475
1, 214080, Note_on_c, 0, 51, 0
1, 214080, Note_on_c, 0, 76, 0
1, 214080, Note_on_c, 0, 63, 0
1, 214080, Note_on_c, 0, 58, 0
1, 214080, Note_on_c, 0, 75, 64
1, 214080, Note_on_c, 0, 51, 37
1, 214080, Note_on_c, 0, 58, 37
1, 214080, Note_on_c, 0, 63, 44
1, 214560, Note_on_c, 0, 63, 0
1, 214560, Note_on_c, 0, 75, 0
1, 214560, Note_on_c, 0, 51, 0
1, 214560, Note_on_c, 0, 58, 0
1, 214560, Note_on_c, 0, 71, 58
1, 214560, Note_on_c, 0, 44, 50
1, 214567, Control_c, 0, 64, 0
1, 214715, Control_c, 0, 64, 127
1, 214800, Note_on_c, 0, 71, 0
1, 214800, Note_on_c, 0, 73, 60
1, 215040, Tempo, 497925
1, 215040, Note_on_c, 0, 73, 0
1, 215040, Note_on_c, 0, 44, 0
1, 215040, Note_on_c, 0, 74, 63
1, 215040, Note_on_c, 0, 59, 43
1, 215040, Note_on_c, 0, 56, 36
1, 215040, Note_on_c, 0, 51, 36
1, 215520, Tempo, 515021
1, 215520, Note_on_c, 0, 51, 0
1, 215520, Note_on_c, 0, 74, 0
1, 215520, Note_on_c, 0, 59, 0
1, 215520, Note_on_c, 0, 56, 0
1, 215520, Note_on_c, 0, 75, 67
1, 215520, Note_on_c, 0, 51, 36
1, 215520, Note_on_c, 0, 56, 36
1, 215520, Note_on_c, 0, 59, 43
1, 215534, Control_c, 0, 64, 0
1, 216000, Note_on_c, 0, 59, 0
1, 216000, Note_on_c, 0, 75, 0
1, 216000, Note_on_c, 0, 51, 0
1, 216000, Note_on_c, 0, 56, 0
1, 216000, Note_on_c, 0, 78, 69
1, 216000, Note_on_c, 0, 37, 53
1, 216042, Control_c, 0, 64, 127
1, 216240, Note_on_c, 0, 78, 0
1, 216240, Note_on_c, 0, 76, 64
1, 216480, Tempo, 504202
1, 216480, Note_on_c, 0, 76, 0
1, 216480, Note_on_c, 0, 37, 0
1, 216480, Note_on_c, 0, 73, 70
1, 216480, Note_on_c, 0, 64, 45
1, 216480, Note_on_c, 0, 61, 38
1, 216480, Note_on_c, 0, 56, 38
1, 216960, Tempo, 540541
1, 216960, Note_on_c, 0, 56, 0
1, 216960, Note_on_c, 0, 73, 0
1, 216960, Note_on_c, 0, 64, 0
1, 216960, Note_on_c, 0, 61, 0
1, 216960, Note_on_c, 0, 68, 56
1, 217020, Note_on_c, 0, 68, 0
1, 217020, Note_on_c, 0, 70, 56
1, 217080, Tempo, 466926
1, 217080, Note_on_c, 0, 70, 0
1, 217080, Note_on_c, 0, 68, 64
1, 217110, Control_c, 0, 64, 0
1, 217200, Tempo, 517241
1, 217440, Note_on_c, 0, 68, 0
1, 217440, Note_on_c, 0, 67, 64
1, 217440, Note_on_c, 0, 50, 50
1, 217532, Control_c, 0, 64, 127
1, 217800, Note_on_c, 0, 67, 0
1, 217800, Note_on_c, 0, 68, 61
1, 217920, Tempo, 504202
1, 217920, Note_on_c, 0, 68, 0
1, 217920, Note_on_c, 0, 50, 0
1, 217920, Note_on_c, 0, 71, 64
1, 217920, Note_on_c, 0, 65, 44
1, 217920, Note_on_c, 0, 59, 37
1, 217920, Note_on_c, 0, 56, 37
1, 217936, Control_c, 0, 64, 0
1, 218400, Tempo, 515021
1, 218400, Note_on_c, 0, 56, 0
1, 218400, Note_on_c, 0, 71, 0
1, 218400, Note_on_c, 0, 65, 0
1, 218400, Note_on_c, 0, 59, 0
1, 218400, Note_on_c, 0, 70, 64
1, 218400, Note_on_c, 0, 56, 37
1, 218400, Note_on_c, 0, 58, 37
1, 218400, Note_on_c, 0, 65, 44
1, 218880, Note_on_c, 0, 65, 0
1, 218880, Note_on_c, 0, 70, 0
1, 218880, Note_on_c, 0, 56, 0
1, 218880, Note_on_c, 0, 58, 0
1, 218880, Note_on_c, 0, 67, 69
1, 218880, Note_on_c, 0, 51, 55
1, 219063, Control_c, 0, 64, 127
1, 219360, Tempo, 528169
1, 219360, Note_on_c, 0, 51, 0
1, 219360, Note_on_c, 0, 63, 47
1, 219360, Note_on_c, 0, 58, 39
1, 219360, Note_on_c, 0, 55, 39
1, 219840, Tempo, 547445
1, 219840, Note_on_c, 0, 55, 0
1, 219840, Note_on_c, 0, 67, 0
1, 219840, Note_on_c, 0, 63, 0
1, 219840, Note_on_c, 0, 58, 0
1, 219840, Note_on_c, 0, 66, 64
1, 219840, Note_on_c, 0, 49, 34
1, 219840, Note_on_c, 0, 54, 35
1, 219840, Note_on_c, 0, 58, 39
1, 219840, Note_on_c, 0, 64, 47
1, 219856, Control_c, 0, 64, 0
1, 220320, Tempo, 493827
1, 220320, Note_on_c, 0, 64, 0
1, 220320, Note_on_c, 0, 54, 0
1, 220320, Note_on_c, 0, 66, 0
1, 220320, Note_on_c, 0, 49, 0
1, 220320, Note_on_c, 0, 58, 0
1, 220320, Note_on_c, 0, 75, 59
1, 220320, Note_on_c, 0, 47, 50
1, 220489, Control_c, 0, 64, 127
1, 220560, Note_on_c, 0, 75, 0
1, 220560, Note_on_c, 0, 76, 61
1, 220800, Tempo, 487805
1, 220800, Note_on_c, 0, 76, 0
1, 220800, Note_on_c, 0, 47, 0
1, 220800, Note_on_c, 0, 78, 63
1, 220800, Note_on_c, 0, 63, 43
1, 220800, Note_on_c, 0, 59, 36
1, 220800, Note_on_c, 0, 54, 36
1, 221040, Tempo, 528169
1, 221280, Tempo, 555556
1, 221280, Note_on_c, 0, 54, 0
1, 221280, Note_on_c, 0, 78, 0
1, 221280, Note_on_c, 0, 63, 0
1, 221280, Note_on_c, 0, 59, 0
1, 221280, Note_on_c, 0, 87, 69
1, 221760, Tempo, 502092
1, 221760, Note_on_c, 0, 87, 0
1, 221760, Note_on_c, 0, 85, 69
1, 221760, Note_on_c, 0, 40, 51
1, 221771, Control_c, 0, 64, 0
1, 221958, Control_c, 0, 64, 127
1, 222000, Note_on_c, 0, 85, 0
1, 222000, Note_on_c, 0, 83, 64
1, 222240, Tempo, 495868
1, 222240, Note_on_c, 0, 83, 0
1, 222240, Note_on_c, 0, 40, 0
1, 222240, Note_on_c, 0, 80, 69
1, 222240, Note_on_c, 0, 61, 37
1, 222240, Note_on_c, 0, 59, 37
1, 222240, Note_on_c, 0, 64, 37
1, 222240, Note_on_c, 0, 68, 44
1, 222720, Tempo, 510638
1, 222720, Note_on_c, 0, 68, 0
1, 222720, Note_on_c, 0, 59, 0
1, 222720, Note_on_c, 0, 80, 0
1, 222720, Note_on_c, 0, 61, 0
1, 222720, Note_on_c, 0, 64, 0
1, 222720, Note_on_c, 0, 76, 67
1, 223200, Tempo, 495868
1, 223200, Note_on_c, 0, 76, 0
1, 223200, Note_on_c, 0, 75, 71
1, 223200, Note_on_c, 0, 42, 50
1, 223208, Control_c, 0, 64, 0
1, 223285, Control_c, 0, 64, 127
1, 223440, Tempo, 515021
1, 223440, Note_on_c, 0, 75, 0
1, 223440, Note_on_c, 0, 73, 59
1, 223500, Note_on_c, 0, 73, 0
1, 223500, Note_on_c, 0, 75, 60
1, 223560, Tempo, 495868
1, 223560, Note_on_c, 0, 75, 0
1, 223560, Note_on_c, 0, 73, 69
1, 223680, Note_on_c, 0, 73, 0
1, 223680, Note_on_c, 0, 42, 0
1, 223680, Note_on_c, 0, 72, 67
1, 223680, Note_on_c, 0, 64, 43
1, 223680, Note_on_c, 0, 58, 36
1, 223680, Note_on_c, 0, 54, 36
1, 224160, Tempo, 539568
1, 224160, Note_on_c, 0, 54, 0
1, 224160, Note_on_c, 0, 72, 0
1, 224160, Note_on_c, 0, 64, 0
1, 224160, Note_on_c, 0, 58, 0
1, 224160, Note_on_c, 0, 73, 70
1, 224160, Note_on_c, 0, 54, 38
1, 224160, Note_on_c, 0, 58, 38
1, 224160, Note_on_c, 0, 64, 45
1, 224171, Control_c, 0, 64, 0
1, 224640, Tempo, 506329
1, 224640, Note_on_c, 0, 64, 0
1, 224640, Note_on_c, 0, 73, 0
1, 224640, Note_on_c, 0, 54, 0
1, 224640, Note_on_c, 0, 58, 0
1, 224640, Note_on_c, 0, 76, 71
1, 224640, Note_on_c, 0, 43, 54
1, 224869, Control_c, 0, 64, 127
1, 225120, Tempo, 491803
1, 225120, Note_on_c, 0, 43, 0
1, 225120, Note_on_c, 0, 63, 47
1, 225120, Note_on_c, 0, 58, 39
1, 225120, Note_on_c, 0, 51, 39
1, 225600, Tempo, 524017
1, 225600, Note_on_c, 0, 51, 0
1, 225600, Note_on_c, 0, 76, 0
1, 225600, Note_on_c, 0, 63, 0
1, 225600, Note_on_c, 0, 58, 0
1, 225600, Note_on_c, 0, 75, 64
1, 225600, Note_on_c, 0, 51, 37
1, 225600, Note_on_c, 0, 58, 37
1, 225600, Note_on_c, 0, 63, 44
1, 226080, Tempo, 506329
1, 226080, Note_on_c, 0, 63, 0
1, 226080, Note_on_c, 0, 75, 0
1, 226080, Note_on_c, 0, 51, 0
1, 226080, Note_on_c, 0, 58, 0
1, 226080, Note_on_c, 0, 75, 67
1, 226080, Note_on_c, 0, 44, 55
1, 226087, Control_c, 0, 64, 0
1, 226235, Control_c, 0, 64, 127
1, 226560, Tempo, 497925
1, 226560, Note_on_c, 0, 44, 0
1, 226560, Note_on_c, 0, 53, 36
1, 226560, Note_on_c, 0, 63, 43
1, 226560, Note_on_c, 0, 59, 36
1, 226560, Note_on_c, 0, 56, 36
1, 226800, Note_on_c, 0, 75, 0
1, 226800, Note_on_c, 0, 75, 56
1, 226860, Note_on_c, 0, 75, 0
1, 226860, Note_on_c, 0, 77, 56
1, 226920, Note_on_c, 0, 77, 0
1, 226920, Note_on_c, 0, 75, 63
1, 227040, Tempo, 515021
1, 227040, Note_on_c, 0, 75, 0
1, 227040, Note_on_c, 0, 56, 0
1, 227040, Note_on_c, 0, 53, 0
1, 227040, Note_on_c, 0, 63, 0
1, 227040, Note_on_c, 0, 59, 0
1, 227040, Note_on_c, 0, 73, 65
1, 227052, Control_c, 0, 64, 0
1, 227280, Note_on_c, 0, 73, 0
1, 227280, Note_on_c, 0, 71, 62
1, 227520, Note_on_c, 0, 71, 0
1, 227520, Note_on_c, 0, 70, 69
1, 227520, Note_on_c, 0, 46, 53
1, 227633, Control_c, 0, 64, 127
1, 227760, Note_on_c, 0, 70, 0
1, 227760, Note_on_c, 0, 75, 64
1, 228000, Tempo, 504202
1, 228000, Note_on_c, 0, 75, 0
1, 228000, Note_on_c, 0, 46, 0
1, 228000, Note_on_c, 0, 78, 70
1, 228000, Note_on_c, 0, 63, 45
1, 228000, Note_on_c, 0, 58, 38
1, 228000, Note_on_c, 0, 54, 38
1, 228480, Tempo, 510638
1, 228480, Note_on_c, 0, 54, 0
1, 228480, Note_on_c, 0, 78, 0
1, 228480, Note_on_c, 0, 63, 0
1, 228480, Note_on_c, 0, 58, 0
1, 228480, Note_on_c, 0, 83, 69
1, 228480, Note_on_c, 0, 54, 38
1, 228480, Note_on_c, 0, 58, 38
1, 228480, Note_on_c, 0, 63, 45
1, 228720, Tempo, 517241
1, 228960, Note_on_c, 0, 63, 0
1, 228960, Note_on_c, 0, 83, 0
1, 228960, Note_on_c, 0, 54, 0
1, 228960, Note_on_c, 0, 58, 0
1, 228960, Note_on_c, 0, 82, 71
1, 228960, Note_on_c, 0, 46, 50
1, 228971, Control_c, 0, 64, 0
1, 229177, Control_c, 0, 64, 127
1, 229200, Note_on_c, 0, 82, 0
1, 229200, Note_on_c, 0, 77, 61
1, 229440, Tempo, 504202
1, 229440, Note_on_c, 0, 77, 0
1, 229440, Note_on_c, 0, 46, 0
1, 229440, Note_on_c, 0, 80, 70
1, 229440, Note_on_c, 0, 62, 44
1, 229440, Note_on_c, 0, 58, 37
1, 229440, Note_on_c, 0, 56, 37
1, 229920, Tempo, 515021
1, 229920, Note_on_c, 0, 56, 0
1, 229920, Note_on_c, 0, 58, 0
1, 229920, Note_on_c, 0, 62, 0
1, 229920, Note_on_c, 0, 56, 37
1, 229920, Note_on_c, 0, 58, 37
1, 229920, Note_on_c, 0, 65, 44
1, 230160, Note_on_c, 0, 80, 0
1, 230160, Note_on_c, 0, 78, 67
1, 230400, Note_on_c, 0, 78, 0
1, 230400, Note_on_c, 0, 65, 0
1, 230400, Note_on_c, 0, 58, 0
1, 230400, Note_on_c, 0, 56, 0
1, 230400, Note_on_c, 0, 75, 71
1, 230400, Note_on_c, 0, 51, 55
1, 230411, Control_c, 0, 64, 0
1, 230720, Control_c, 0, 64, 127
1, 230880, Tempo, 526316
1, 230880, Note_on_c, 0, 51, 0
1, 230880, Note_on_c, 0, 63, 39
1, 230880, Note_on_c, 0, 58, 33
1, 230880, Note_on_c, 0, 54, 29
1, 231120, Tempo, 542986
1, 231360, Tempo, 483871
1, 231360, Note_on_c, 0, 54, 0
1, 231360, Note_on_c, 0, 75, 0
1, 231360, Note_on_c, 0, 63, 0
1, 231360, Note_on_c, 0, 58, 0
1, 231360, Note_on_c, 0, 78, 75
1, 231360, Note_on_c, 0, 54, 36
1, 231360, Note_on_c, 0, 58, 42
1, 231360, Note_on_c, 0, 66, 50
1, 231840, Tempo, 442804
1, 231840, Note_on_c, 0, 66, 0
1, 231840, Note_on_c, 0, 78, 0
1, 231840, Note_on_c, 0, 54, 0
1, 231840, Note_on_c, 0, 58, 0
1, 231840, Note_on_c, 0, 92, 82
1, 231840, Note_on_c, 0, 80, 69
1, 231840, Note_on_c, 0, 70, 54
1, 231840, Note_on_c, 0, 76, 64
1, 231840, Control_c, 0, 64, 0
1, 231860, Tempo, 416667
1, 231960, Note_on_c, 0, 76, 0
1, 231960, Note_on_c, 0, 70, 0
1, 231974, Control_c, 0, 64, 127
1, 232200, Tempo, 394737
1, 232200, Note_on_c, 0, 80, 0
1, 232200, Note_on_c, 0, 92, 0
1, 232200, Note_on_c, 0, 90, 77
1, 232200, Note_on_c, 0, 78, 65
1, 232200, Note_on_c, 0, 66, 60
1, 232320, Tempo, 428571
1, 232320, Note_on_c, 0, 66, 0
1, 232320, Note_on_c, 0, 78, 0
1, 232320, Note_on_c, 0, 90, 0
1, 232320, Note_on_c, 0, 88, 76
1, 232320, Note_on_c, 0, 76, 64
1, 232320, Note_on_c, 0, 54, 58
1, 232680, Note_on_c, 0, 76, 0
1, 232680, Note_on_c, 0, 88, 0
1, 232800, Tempo, 421053
1, 232800, Note_on_c, 0, 54, 0
1, 232800, Note_on_c, 0, 64, 63
1, 232800, Note_on_c, 0, 70, 75
1, 232800, Note_on_c, 0, 42, 60
1, 232812, Control_c, 0, 64, 0
1, 233280, Tempo, 412371
1, 233280, Note_on_c, 0, 42, 0
1, 233280, Note_on_c, 0, 70, 0
1, 233280, Note_on_c, 0, 64, 0
1, 233280, Note_on_c, 0, 63, 64
1, 233280, Note_on_c, 0, 71, 76
1, 233280, Note_on_c, 0, 47, 68
1, 233365, Control_c, 0, 64, 127
1, 233520, Note_on_c, 0, 47, 0
1, 233520, Note_on_c, 0, 71, 0
1, 233520, Note_on_c, 0, 63, 0
1, 233640, Tempo, 397351
1, 233640, Note_on_c, 0, 66, 62
1, 233640, Note_on_c, 0, 73, 73
1, 233640, Note_on_c, 0, 54, 59
1, 233760, Tempo, 412371
1, 233760, Note_on_c, 0, 54, 0
1, 233760, Note_on_c, 0, 73, 0
1, 233760, Note_on_c, 0, 66, 0
1, 233760, Note_on_c, 0, 71, 68
1, 233760, Note_on_c, 0, 75, 81
1, 233760, Note_on_c, 0, 63, 66
1, 233760, Note_on_c, 0, 59, 56
1, 234240, Tempo, 421053
1, 234240, Note_on_c, 0, 59, 0
1, 234240, Note_on_c, 0, 71, 0
1, 234240, Note_on_c, 0, 75, 0
1, 234240, Note_on_c, 0, 63, 0
1, 234240, Note_on_c, 0, 78, 65
1, 234240, Note_on_c, 0, 90, 77
1, 234240, Note_on_c, 0, 71, 51
1, 234240, Note_on_c, 0, 75, 60
1, 234255, Control_c, 0, 64, 0
1, 234720, Tempo, 412371
1, 234720, Note_on_c, 0, 75, 0
1, 234720, Note_on_c, 0, 78, 0
1, 234720, Note_on_c, 0, 90, 0
1, 234720, Note_on_c, 0, 71, 0
1, 234720, Note_on_c, 0, 92, 82
1, 234720, Note_on_c, 0, 80, 69
1, 234720, Note_on_c, 0, 70, 54
1, 234720, Note_on_c, 0, 76, 64
1, 234776, Control_c, 0, 64, 127
1, 234840, Note_on_c, 0, 76, 0
1, 234840, Note_on_c, 0, 70, 0
1, 235080, Tempo, 394737
1, 235080, Note_on_c, 0, 80, 0
1, 235080, Note_on_c, 0, 92, 0
1, 235080, Note_on_c, 0, 90, 77
1, 235080, Note_on_c, 0, 78, 65
1, 235080, Note_on_c, 0, 66, 60
1, 235200, Tempo, 412371
1, 235200, Note_on_c, 0, 66, 0
1, 235200, Note_on_c, 0, 78, 0
1, 235200, Note_on_c, 0, 90, 0
1, 235200, Note_on_c, 0, 88, 76
1, 235200, Note_on_c, 0, 76, 64
1, 235200, Note_on_c, 0, 54, 58
1, 235560, Note_on_c, 0, 76, 0
1, 235560, Note_on_c, 0, 88, 0
1, 235680, Tempo, 422535
1, 235680, Note_on_c, 0, 54, 0
1, 235680, Note_on_c, 0, 64, 63
1, 235680, Note_on_c, 0, 70, 75
1, 235680, Note_on_c, 0, 42, 60
1, 235693, Control_c, 0, 64, 0
1, 236160, Tempo, 412371
1, 236160, Note_on_c, 0, 42, 0
1, 236160, Note_on_c, 0, 70, 0
1, 236160, Note_on_c, 0, 64, 0
1, 236160, Note_on_c, 0, 63, 64
1, 236160, Note_on_c, 0, 71, 76
1, 236160, Note_on_c, 0, 47, 68
1, 236245, Control_c, 0, 64, 127
1, 236400, Note_on_c, 0, 47, 0
1, 236400, Note_on_c, 0, 71, 0
1, 236400, Note_on_c, 0, 63, 0
1, 236520, Tempo, 397351
1, 236520, Note_on_c, 0, 66, 62
1, 236520, Note_on_c, 0, 73, 73
1, 236520, Note_on_c, 0, 54, 59
1, 236640, Tempo, 433213
1, 236640, Note_on_c, 0, 54, 0
1, 236640, Note_on_c, 0, 73, 0
1, 236640, Note_on_c, 0, 66, 0
1, 236640, Note_on_c, 0, 71, 68
1, 236640, Note_on_c, 0, 75, 81
1, 236640, Note_on_c, 0, 63, 66
1, 236640, Note_on_c, 0, 59, 56
1, 237120, Tempo, 422535
1, 237120, Note_on_c, 0, 59, 0
1, 237120, Note_on_c, 0, 71, 0
1, 237120, Note_on_c, 0, 75, 0
1, 237120, Note_on_c, 0, 63, 0
1, 237120, Note_on_c, 0, 75, 65
1, 237120, Note_on_c, 0, 78, 77
1, 237135, Control_c, 0, 64, 0
1, 237600, Tempo, 413793
1, 237600, Note_on_c, 0, 78, 0
1, 237600, Note_on_c, 0, 75, 0
1, 237600, Note_on_c, 0, 85, 69
1, 237600, Note_on_c, 0, 88, 81
1, 237600, Note_on_c, 0, 52, 68
1, 237685, Control_c, 0, 64, 127
1, 237720, Note_on_c, 0, 52, 0
1, 237720, Note_on_c, 0, 88, 0
1, 237720, Note_on_c, 0, 85, 0
1, 237960, Tempo, 380952
1, 237960, Note_on_c, 0, 78, 62
1, 237960, Note_on_c, 0, 82, 73
1, 237960, Note_on_c, 0, 73, 62
1, 238080, Tempo, 405405
1, 238080, Note_on_c, 0, 73, 0
1, 238080, Note_on_c, 0, 82, 0
1, 238080, Note_on_c, 0, 78, 0
1, 238080, Note_on_c, 0, 76, 66
1, 238080, Note_on_c, 0, 80, 73
1, 238080, Note_on_c, 0, 64, 56
1, 238080, Note_on_c, 0, 68, 66
1, 238440, Tempo, 389610
1, 238440, Note_on_c, 0, 68, 0
1, 238440, Note_on_c, 0, 76, 0
1, 238440, Note_on_c, 0, 80, 0
1, 238440, Note_on_c, 0, 64, 0
1, 238440, Note_on_c, 0, 78, 62
1, 238440, Note_on_c, 0, 82, 73
1, 238440, Note_on_c, 0, 73, 62
1, 238560, Tempo, 427046
1, 238560, Note_on_c, 0, 73, 0
1, 238560, Note_on_c, 0, 82, 0
1, 238560, Note_on_c, 0, 78, 0
1, 238560, Note_on_c, 0, 76, 65
1, 238560, Note_on_c, 0, 80, 77
1, 238560, Note_on_c, 0, 64, 55
1, 238560, Note_on_c, 0, 68, 65
1, 238575, Control_c, 0, 64, 0
1, 239040, Tempo, 415225
1, 239040, Note_on_c, 0, 68, 0
1, 239040, Note_on_c, 0, 76, 0
1, 239040, Note_on_c, 0, 80, 0
1, 239040, Note_on_c, 0, 64, 0
1, 239040, Note_on_c, 0, 83, 69
1, 239040, Note_on_c, 0, 87, 81
1, 239040, Note_on_c, 0, 42, 68
1, 239125, Control_c, 0, 64, 127
1, 239160, Note_on_c, 0, 42, 0
1, 239160, Note_on_c, 0, 87, 0
1, 239160, Note_on_c, 0, 83, 0
1, 239400, Tempo, 382166
1, 239400, Note_on_c, 0, 76, 62
1, 239400, Note_on_c, 0, 80, 73
1, 239400, Note_on_c, 0, 71, 62
1, 239520, Tempo, 408163
1, 239520, Note_on_c, 0, 71, 0
1, 239520, Note_on_c, 0, 80, 0
1, 239520, Note_on_c, 0, 76, 0
1, 239520, Note_on_c, 0, 75, 66
1, 239520, Note_on_c, 0, 78, 73
1, 239520, Note_on_c, 0, 63, 56
1, 239520, Note_on_c, 0, 66, 66
1, 239880, Tempo, 390879
1, 239880, Note_on_c, 0, 66, 0
1, 239880, Note_on_c, 0, 75, 0
1, 239880, Note_on_c, 0, 78, 0
1, 239880, Note_on_c, 0, 63, 0
1, 239880, Note_on_c, 0, 76, 62
1, 239880, Note_on_c, 0, 80, 73
1, 239880, Note_on_c, 0, 71, 62
1, 240000, Tempo, 424028
1, 240000, Note_on_c, 0, 71, 0
1, 240000, Note_on_c, 0, 80, 0
1, 240000, Note_on_c, 0, 76, 0
1, 240000, Note_on_c, 0, 75, 65
1, 240000, Note_on_c, 0, 78, 77
1, 240000, Note_on_c, 0, 63, 55
1, 240000, Note_on_c, 0, 66, 65
1, 240015, Control_c, 0, 64, 0
1, 240480, Tempo, 413793
1, 240480, Note_on_c, 0, 66, 0
1, 240480, Note_on_c, 0, 75, 0
1, 240480, Note_on_c, 0, 78, 0
1, 240480, Note_on_c, 0, 63, 0
1, 240480, Note_on_c, 0, 82, 69
1, 240480, Note_on_c, 0, 85, 81
1, 240480, Note_on_c, 0, 42, 68
1, 240565, Control_c, 0, 64, 127
1, 240600, Note_on_c, 0, 42, 0
1, 240600, Note_on_c, 0, 85, 0
1, 240600, Note_on_c, 0, 82, 0
1, 240840, Tempo, 397351
1, 240840, Note_on_c, 0, 75, 62
1, 240840, Note_on_c, 0, 78, 73
1, 240840, Note_on_c, 0, 70, 62
1, 240960, Tempo, 421053
1, 240960, Note_on_c, 0, 70, 0
1, 240960, Note_on_c, 0, 78, 0
1, 240960, Note_on_c, 0, 75, 0
1, 240960, Note_on_c, 0, 73, 66
1, 240960, Note_on_c, 0, 76, 73
1, 240960, Note_on_c, 0, 61, 56
1, 240960, Note_on_c, 0, 64, 66
1, 241320, Tempo, 400000
1, 241320, Note_on_c, 0, 64, 0
1, 241320, Note_on_c, 0, 73, 0
1, 241320, Note_on_c, 0, 76, 0
1, 241320, Note_on_c, 0, 61, 0
1, 241320, Note_on_c, 0, 75, 62
1, 241320, Note_on_c, 0, 78, 73
1, 241320, Note_on_c, 0, 70, 62
1, 241440, Tempo, 468750
1, 241440, Note_on_c, 0, 70, 0
1, 241440, Note_on_c, 0, 78, 0
1, 241440, Note_on_c, 0, 75, 0
1, 241440, Note_on_c, 0, 73, 65
1, 241440, Note_on_c, 0, 76, 77
1, 241440, Note_on_c, 0, 61, 55
1, 241440, Note_on_c, 0, 64, 65
1, 241455, Control_c, 0, 64, 0
1, 241920, Tempo, 456274
1, 241920, Note_on_c, 0, 64, 0
1, 241920, Note_on_c, 0, 73, 0
1, 241920, Note_on_c, 0, 76, 0
1, 241920, Note_on_c, 0, 61, 0
1, 241920, Note_on_c, 0, 71, 58
1, 241920, Note_on_c, 0, 75, 69
1, 241920, Note_on_c, 0, 47, 61
1, 242005, Control_c, 0, 64, 127
1, 242040, Note_on_c, 0, 75, 0
1, 242040, Note_on_c, 0, 71, 0
1, 242160, Note_on_c, 0, 47, 0
1, 242280, Tempo, 526316
1, 242280, Note_on_c, 0, 73, 52
1, 242280, Note_on_c, 0, 76, 62
1, 242400, Tempo, 487805
1, 242400, Note_on_c, 0, 76, 0
1, 242400, Note_on_c, 0, 73, 0
1, 242400, Note_on_c, 0, 74, 56
1, 242400, Note_on_c, 0, 80, 67
1, 242400, Note_on_c, 0, 59, 46
1, 242400, Note_on_c, 0, 65, 55
1, 242412, Control_c, 0, 64, 0
1, 242880, Note_on_c, 0, 65, 0
1, 242880, Note_on_c, 0, 74, 0
1, 242880, Note_on_c, 0, 80, 0
1, 242880, Note_on_c, 0, 75, 50
1, 242880, Note_on_c, 0, 78, 59
1, 242880, Note_on_c, 0, 66, 50
1, 243360, Tempo, 442804
1, 243360, Note_on_c, 0, 66, 0
1, 243360, Note_on_c, 0, 59, 0
1, 243360, Note_on_c, 0, 75, 0
1, 243360, Note_on_c, 0, 78, 0
1, 243360, Note_on_c, 0, 92, 82
1, 243360, Note_on_c, 0, 80, 69
1, 243360, Note_on_c, 0, 70, 54
1, 243360, Note_on_c, 0, 76, 64
1, 243360, Control_c, 0, 64, 0
1, 243380, Tempo, 416667
1, 243452, Control_c, 0, 64, 127
1, 243480, Note_on_c, 0, 76, 0
1, 243480, Note_on_c, 0, 70, 0
1, 243720, Tempo, 394737
1, 243720, Note_on_c, 0, 80, 0
1, 243720, Note_on_c, 0, 92, 0
1, 243720, Note_on_c, 0, 90, 77
1, 243720, Note_on_c, 0, 78, 65
1, 243720, Note_on_c, 0, 66, 60
1, 243840, Tempo, 428571
1, 243840, Note_on_c, 0, 66, 0
1, 243840, Note_on_c, 0, 78, 0
1, 243840, Note_on_c, 0, 90, 0
1, 243840, Note_on_c, 0, 88, 76
1, 243840, Note_on_c, 0, 76, 64
1, 243840, Note_on_c, 0, 54, 58
1, 244200, Note_on_c, 0, 76, 0
1, 244200, Note_on_c, 0, 88, 0
1, 244320, Tempo, 421053
1, 244320, Note_on_c, 0, 54, 0
1, 244320, Note_on_c, 0, 64, 63
1, 244320, Note_on_c, 0, 70, 75
1, 244320, Note_on_c, 0, 42, 60
1, 244337, Control_c, 0, 64, 0
1, 244800, Tempo, 412371
1, 244800, Note_on_c, 0, 42, 0
1, 244800, Note_on_c, 0, 70, 0
1, 244800, Note_on_c, 0, 64, 0
1, 244800, Note_on_c, 0, 63, 64
1, 244800, Note_on_c, 0, 71, 76
1, 244800, Note_on_c, 0, 47, 68
1, 244885, Control_c, 0, 64, 127
1, 245040, Note_on_c, 0, 47, 0
1, 245040, Note_on_c, 0, 71, 0
1, 245040, Note_on_c, 0, 63, 0
1, 245160, Tempo, 397351
1, 245160, Note_on_c, 0, 66, 62
1, 245160, Note_on_c, 0, 73, 73
1, 245160, Note_on_c, 0, 54, 59
1, 245280, Tempo, 431655
1, 245280, Note_on_c, 0, 54, 0
1, 245280, Note_on_c, 0, 73, 0
1, 245280, Note_on_c, 0, 66, 0
1, 245280, Note_on_c, 0, 71, 68
1, 245280, Note_on_c, 0, 75, 81
1, 245280, Note_on_c, 0, 63, 66
1, 245280, Note_on_c, 0, 59, 56
1, 245760, Tempo, 421053
1, 245760, Note_on_c, 0, 59, 0
1, 245760, Note_on_c, 0, 71, 0
1, 245760, Note_on_c, 0, 75, 0
1, 245760, Note_on_c, 0, 63, 0
1, 245760, Note_on_c, 0, 78, 65
1, 245760, Note_on_c, 0, 90, 77
1, 245760, Note_on_c, 0, 71, 51
1, 245760, Note_on_c, 0, 75, 60
1, 245775, Control_c, 0, 64, 0
1, 246240, Tempo, 412371
1, 246240, Note_on_c, 0, 75, 0
1, 246240, Note_on_c, 0, 78, 0
1, 246240, Note_on_c, 0, 90, 0
1, 246240, Note_on_c, 0, 71, 0
1, 246240, Note_on_c, 0, 92, 82
1, 246240, Note_on_c, 0, 80, 69
1, 246240, Note_on_c, 0, 70, 54
1, 246240, Note_on_c, 0, 76, 64
1, 246296, Control_c, 0, 64, 127
1, 246360, Note_on_c, 0, 76, 0
1, 246360, Note_on_c, 0, 70, 0
1, 246600, Tempo, 394737
1, 246600, Note_on_c, 0, 80, 0
1, 246600, Note_on_c, 0, 92, 0
1, 246600, Note_on_c, 0, 90, 77
1, 246600, Note_on_c, 0, 78, 65
1, 246600, Note_on_c, 0, 66, 60
1, 246720, Tempo, 413793
1, 246720, Note_on_c, 0, 66, 0
1, 246720, Note_on_c, 0, 78, 0
1, 246720, Note_on_c, 0, 90, 0
1, 246720, Note_on_c, 0, 88, 76
1, 246720, Note_on_c, 0, 76, 64
1, 246720, Note_on_c, 0, 54, 58
1, 247080, Note_on_c, 0, 76, 0
1, 247080, Note_on_c, 0, 88, 0
1, 247200, Tempo, 422535
1, 247200, Note_on_c, 0, 54, 0
1, 247200, Note_on_c, 0, 64, 63
1, 247200, Note_on_c, 0, 70, 75
1, 247200, Note_on_c, 0, 42, 60
1, 247216, Control_c, 0, 64, 0
1, 247680, Tempo, 412371
1, 247680, Note_on_c, 0, 42, 0
1, 247680, Note_on_c, 0, 70, 0
1, 247680, Note_on_c, 0, 64, 0
1, 247680, Note_on_c, 0, 63, 64
1, 247680, Note_on_c, 0, 71, 76
1, 247680, Note_on_c, 0, 47, 68
1, 247765, Control_c, 0, 64, 127
1, 247920, Note_on_c, 0, 47, 0
1, 247920, Note_on_c, 0, 71, 0
1, 247920, Note_on_c, 0, 63, 0
1, 248040, Tempo, 397351
1, 248040, Note_on_c, 0, 66, 62
1, 248040, Note_on_c, 0, 73, 73
1, 248040, Note_on_c, 0, 54, 59
1, 248160, Tempo, 433213
1, 248160, Note_on_c, 0, 54, 0
1, 248160, Note_on_c, 0, 73, 0
1, 248160, Note_on_c, 0, 66, 0
1, 248160, Note_on_c, 0, 71, 68
1, 248160, Note_on_c, 0, 75, 81
1, 248160, Note_on_c, 0, 63, 66
1, 248160, Note_on_c, 0, 59, 56
1, 248640, Tempo, 422535
1, 248640, Note_on_c, 0, 59, 0
1, 248640, Note_on_c, 0, 71, 0
1, 248640, Note_on_c, 0, 75, 0
1, 248640, Note_on_c, 0, 63, 0
1, 248640, Note_on_c, 0, 75, 65
1, 248640, Note_on_c, 0, 78, 77
1, 248655, Control_c, 0, 64, 0
1, 249120, Tempo, 413793
1, 249120, Note_on_c, 0, 78, 0
1, 249120, Note_on_c, 0, 75, 0
1, 249120, Note_on_c, 0, 85, 69
1, 249120, Note_on_c, 0, 88, 81
1, 249120, Note_on_c, 0, 52, 68
1, 249205, Control_c, 0, 64, 127
1, 249240, Note_on_c, 0, 52, 0
1, 249240, Note_on_c, 0, 88, 0
1, 249240, Note_on_c, 0, 85, 0
1, 249480, Tempo, 380952
1, 249480, Note_on_c, 0, 78, 62
1, 249480, Note_on_c, 0, 82, 73
1, 249480, Note_on_c, 0, 73, 62
1, 249600, Tempo, 405405
1, 249600, Note_on_c, 0, 73, 0
1, 249600, Note_on_c, 0, 82, 0
1, 249600, Note_on_c, 0, 78, 0
1, 249600, Note_on_c, 0, 76, 66
1, 249600, Note_on_c, 0, 80, 73
1, 249600, Note_on_c, 0, 64, 56
1, 249600, Note_on_c, 0, 68, 66
1, 249960, Tempo, 389610
1, 249960, Note_on_c, 0, 68, 0
1, 249960, Note_on_c, 0, 76, 0
1, 249960, Note_on_c, 0, 80, 0
1, 249960, Note_on_c, 0, 64, 0
1, 249960, Note_on_c, 0, 78, 62
1, 249960, Note_on_c, 0, 82, 73
1, 249960, Note_on_c, 0, 73, 62
1, 250080, Tempo, 427046
1, 250080, Note_on_c, 0, 73, 0
1, 250080, Note_on_c, 0, 82, 0
1, 250080, Note_on_c, 0, 78, 0
1, 250080, Note_on_c, 0, 76, 65
1, 250080, Note_on_c, 0, 80, 77
1, 250080, Note_on_c, 0, 64, 55
1, 250080, Note_on_c, 0, 68, 65
1, 250095, Control_c, 0, 64, 0
1, 250560, Tempo, 415225
1, 250560, Note_on_c, 0, 68, 0
1, 250560, Note_on_c, 0, 76, 0
1, 250560, Note_on_c, 0, 80, 0
1, 250560, Note_on_c, 0, 64, 0
1, 250560, Note_on_c, 0, 83, 69
1, 250560, Note_on_c, 0, 87, 81
1, 250560, Note_on_c, 0, 42, 68
1, 250645, Control_c, 0, 64, 127
1, 250680, Note_on_c, 0, 42, 0
1, 250680, Note_on_c, 0, 87, 0
1, 250680, Note_on_c, 0, 83, 0
1, 250920, Tempo, 382166
1, 250920, Note_on_c, 0, 76, 62
1, 250920, Note_on_c, 0, 80, 73
1, 250920, Note_on_c, 0, 71, 62
1, 251040, Tempo, 408163
1, 251040, Note_on_c, 0, 71, 0
1, 251040, Note_on_c, 0, 80, 0
1, 251040, Note_on_c, 0, 76, 0
1, 251040, Note_on_c, 0, 75, 66
1, 251040, Note_on_c, 0, 78, 73
1, 251040, Note_on_c, 0, 63, 56
1, 251040, Note_on_c, 0, 66, 66
1, 251400, Tempo, 390879
1, 251400, Note_on_c, 0, 66, 0
1, 251400, Note_on_c, 0, 75, 0
1, 251400, Note_on_c, 0, 78, 0
1, 251400, Note_on_c, 0, 63, 0
1, 251400, Note_on_c, 0, 76, 62
1, 251400, Note_on_c, 0, 80, 73
1, 251400, Note_on_c, 0, 71, 62
1, 251520, Tempo, 424028
1, 251520, Note_on_c, 0, 71, 0
1, 251520, Note_on_c, 0, 80, 0
1, 251520, Note_on_c, 0, 76, 0
1, 251520, Note_on_c, 0, 75, 65
1, 251520, Note_on_c, 0, 78, 77
1, 251520, Note_on_c, 0, 63, 55
1, 251520, Note_on_c, 0, 66, 65
1, 251535, Control_c, 0, 64, 0
1, 252000, Tempo, 413793
1, 252000, Note_on_c, 0, 66, 0
1, 252000, Note_on_c, 0, 75, 0
1, 252000, Note_on_c, 0, 78, 0
1, 252000, Note_on_c, 0, 63, 0
1, 252000, Note_on_c, 0, 82, 69
1, 252000, Note_on_c, 0, 85, 81
1, 252000, Note_on_c, 0, 42, 68
1, 252085, Control_c, 0, 64, 127
1, 252120, Note_on_c, 0, 42, 0
1, 252120, Note_on_c, 0, 85, 0
1, 252120, Note_on_c, 0, 82, 0
1, 252360, Tempo, 397351
1, 252360, Note_on_c, 0, 75, 62
1, 252360, Note_on_c, 0, 78, 73
1, 252360, Note_on_c, 0, 70, 62
1, 252480, Tempo, 421053
1, 252480, Note_on_c, 0, 70, 0
1, 252480, Note_on_c, 0, 78, 0
1, 252480, Note_on_c, 0, 75, 0
1, 252480, Note_on_c, 0, 73, 66
1, 252480, Note_on_c, 0, 76, 73
1, 252480, Note_on_c, 0, 61, 56
1, 252480, Note_on_c, 0, 64, 66
1, 252840, Tempo, 400000
1, 252840, Note_on_c, 0, 64, 0
1, 252840, Note_on_c, 0, 73, 0
1, 252840, Note_on_c, 0, 76, 0
1, 252840, Note_on_c, 0, 61, 0
1, 252840, Note_on_c, 0, 75, 62
1, 252840, Note_on_c, 0, 78, 73
1, 252840, Note_on_c, 0, 70, 62
1, 252960, Tempo, 437956
1, 252960, Note_on_c, 0, 70, 0
1, 252960, Note_on_c, 0, 78, 0
1, 252960, Note_on_c, 0, 75, 0
1, 252960, Note_on_c, 0, 73, 65
1, 252960, Note_on_c, 0, 76, 77
1, 252960, Note_on_c, 0, 61, 55
1, 252960, Note_on_c, 0, 64, 65
1, 252975, Control_c, 0, 64, 0
1, 253440, Tempo, 451128
1, 253440, Note_on_c, 0, 64, 0
1, 253440, Note_on_c, 0, 73, 0
1, 253440, Note_on_c, 0, 76, 0
1, 253440, Note_on_c, 0, 61, 0
1, 253800, Tempo, 396040
1, 253800, Note_on_c, 0, 56, 41
1, 253920, Tempo, 442804
1, 253920, Note_on_c, 0, 56, 0
1, 253920, Note_on_c, 0, 54, 47
1, 254280, Tempo, 398671
1, 254280, Note_on_c, 0, 54, 0
1, 254280, Note_on_c, 0, 56, 41
1, 254400, Tempo, 456274
1, 254400, Note_on_c, 0, 56, 0
1, 254400, Note_on_c, 0, 54, 46
1, 254880, Tempo, 412371
1, 254880, Note_on_c, 0, 54, 0
1, 254880, Note_on_c, 0, 56, 44
1, 255240, Tempo, 394737
1, 255240, Note_on_c, 0, 56, 0
1, 255240, Note_on_c, 0, 54, 37
1, 255360, Tempo, 431655
1, 255360, Note_on_c, 0, 54, 0
1, 255360, Note_on_c, 0, 52, 44
1, 255840, Tempo, 422535
1, 255840, Note_on_c, 0, 52, 0
1, 255840, Note_on_c, 0, 42, 38
1, 256320, Tempo, 413793
1, 256320, Note_on_c, 0, 42, 0
1, 256320, Note_on_c, 0, 47, 44
1, 256680, Tempo, 393443
1, 256680, Note_on_c, 0, 47, 0
1, 256680, Note_on_c, 0, 49, 41
1, 256800, Tempo, 422535
1, 256800, Note_on_c, 0, 49, 0
1, 256800, Note_on_c, 0, 51, 45
1, 256820, Tempo, 408163
1, 257280, Tempo, 412371
1, 257280, Note_on_c, 0, 51, 0
1, 257280, Note_on_c, 0, 54, 44
1, 257760, Tempo, 419580
1, 257760, Note_on_c, 0, 54, 0
1, 257760, Note_on_c, 0, 56, 46
1, 258120, Tempo, 394737
1, 258120, Note_on_c, 0, 56, 0
1, 258120, Note_on_c, 0, 54, 42
1, 258240, Tempo, 424028
1, 258240, Note_on_c, 0, 54, 0
1, 258240, Note_on_c, 0, 52, 45
1, 258720, Tempo, 415225
1, 258720, Note_on_c, 0, 52, 0
1, 258720, Note_on_c, 0, 42, 39
1, 259200, Tempo, 413793
1, 259200, Note_on_c, 0, 42, 0
1, 259200, Note_on_c, 0, 47, 44
1, 259560, Tempo, 393443
1, 259560, Note_on_c, 0, 47, 0
1, 259560, Note_on_c, 0, 49, 41
1, 259680, Tempo, 422535
1, 259680, Note_on_c, 0, 49, 0
1, 259680, Note_on_c, 0, 51, 45
1, 259700, Tempo, 408163
1, 260160, Tempo, 412371
1, 260160, Note_on_c, 0, 51, 0
1, 260160, Note_on_c, 0, 54, 44
1, 260640, Tempo, 413793
1, 260640, Note_on_c, 0, 54, 0
1, 260640, Note_on_c, 0, 64, 49
1, 261000, Tempo, 380952
1, 261000, Note_on_c, 0, 58, 41
1, 261120, Tempo, 405405
1, 261120, Note_on_c, 0, 58, 0
1, 261120, Note_on_c, 0, 56, 44
1, 261480, Tempo, 389610
1, 261480, Note_on_c, 0, 56, 0
1, 261480, Note_on_c, 0, 58, 41
1, 261600, Tempo, 427046
1, 261600, Note_on_c, 0, 58, 0
1, 261600, Note_on_c, 0, 56, 45
1, 262080, Tempo, 413793
1, 262080, Note_on_c, 0, 56, 0
1, 262080, Note_on_c, 0, 64, 0
1, 262080, Note_on_c, 0, 63, 49
1, 262440, Tempo, 380952
1, 262440, Note_on_c, 0, 56, 41
1, 262560, Tempo, 405405
1, 262560, Note_on_c, 0, 56, 0
1, 262560, Note_on_c, 0, 54, 44
1, 262920, Tempo, 389610
1, 262920, Note_on_c, 0, 54, 0
1, 262920, Note_on_c, 0, 56, 41
1, 263040, Tempo, 427046
1, 263040, Note_on_c, 0, 56, 0
1, 263040, Note_on_c, 0, 54, 45
1, 263520, Tempo, 413793
1, 263520, Note_on_c, 0, 54, 0
1, 263520, Note_on_c, 0, 63, 0
1, 263520, Note_on_c, 0, 61, 49
1, 263880, Tempo, 380952
1, 263880, Note_on_c, 0, 54, 41
1, 264000, Tempo, 405405
1, 264000, Note_on_c, 0, 54, 0
1, 264000, Note_on_c, 0, 52, 44
1, 264360, Tempo, 389610
1, 264360, Note_on_c, 0, 52, 0
1, 264360, Note_on_c, 0, 54, 41
1, 264480, Tempo, 427046
1, 264480, Note_on_c, 0, 54, 0
1, 264480, Note_on_c, 0, 52, 45
1, 264960, Tempo, 456274
1, 264960, Note_on_c, 0, 52, 0
1, 264960, Note_on_c, 0, 61, 0
1, 264960, Note_on_c, 0, 51, 44
1, 265320, Tempo, 526316
1, 265320, Note_on_c, 0, 51, 0
1, 265320, Note_on_c, 0, 52, 41
1, 265440, Tempo, 487805
1, 265440, Note_on_c, 0, 52, 0
1, 265440, Note_on_c, 0, 56, 45
1, 265920, Note_on_c, 0, 56, 0
1, 265920, Note_on_c, 0, 54, 44
1, 266400, Note_on_c, 0, 54, 0
1, 266400, Note_on_c, 0, 56, 46
1, 266760, Tempo, 394737
1, 266760, Note_on_c, 0, 56, 0
1, 266760, Note_on_c, 0, 54, 42
1, 266880, Tempo, 424028
1, 266880, Note_on_c, 0, 54, 0
1, 266880, Note_on_c, 0, 52, 45
1, 267360, Tempo, 415225
1, 267360, Note_on_c, 0, 52, 0
1, 267360, Note_on_c, 0, 42, 39
1, 267840, Tempo, 413793
1, 267840, Note_on_c, 0, 42, 0
1, 267840, Note_on_c, 0, 47, 44
1, 268200, Tempo, 393443
1, 268200, Note_on_c, 0, 47, 0
1, 268200, Note_on_c, 0, 49, 41
1, 268320, Tempo, 422535
1, 268320, Note_on_c, 0, 49, 0
1, 268320, Note_on_c, 0, 51, 45
1, 268340, Tempo, 408163
1, 268800, Tempo, 444444
1, 268800, Note_on_c, 0, 51, 0
1, 268800, Note_on_c, 0, 54, 44
1, 269280, Tempo, 489796
1, 269280, Note_on_c, 0, 54, 0
1, 269280, Note_on_c, 0, 55, 43
1, 269640, Tempo, 419580
1, 269640, Note_on_c, 0, 55, 0
1, 269640, Note_on_c, 0, 54, 39
1, 269760, Tempo, 437956
1, 269760, Note_on_c, 0, 54, 0
1, 269760, Note_on_c, 0, 52, 42
1, 270240, Tempo, 422535
1, 270240, Note_on_c, 0, 52, 0
1, 270240, Note_on_c, 0, 42, 36
1, 270720, Tempo, 454545
1, 270720, Note_on_c, 0, 42, 0
1, 270720, Note_on_c, 0, 47, 41
1, 271080, Tempo, 422535
1, 271080, Note_on_c, 0, 47, 0
1, 271080, Note_on_c, 0, 49, 38
1, 271200, Tempo, 444444
1, 271200, Note_on_c, 0, 49, 0
1, 271200, Note_on_c, 0, 50, 41
1, 271680, Tempo, 444444
1, 271680, Note_on_c, 0, 50, 0
1, 271680, Note_on_c, 0, 54, 40
1, 272160, Tempo, 456274
1, 272160, Note_on_c, 0, 54, 0
1, 272160, Note_on_c, 0, 55, 42
1, 272400, Note_on_c, 0, 55, 0
1, 272400, Note_on_c, 0, 54, 38
1, 272640, Tempo, 437956
1, 272640, Note_on_c, 0, 54, 0
1, 272640, Note_on_c, 0, 52, 41
1, 273120, Tempo, 466926
1, 273120, Note_on_c, 0, 52, 0
1, 273120, Note_on_c, 0, 43, 35
1, 273600, Tempo, 456274
1, 273600, Note_on_c, 0, 43, 0
1, 273600, Note_on_c, 0, 55, 41
1, 273840, Note_on_c, 0, 55, 0
1, 273840, Note_on_c, 0, 54, 37
1, 274080, Tempo, 437956
1, 274080, Note_on_c, 0, 54, 0
1, 274080, Note_on_c, 0, 52, 40
1, 274560, Tempo, 476190
1, 274560, Note_on_c, 0, 52, 0
1, 274560, Note_on_c, 0, 44, 34
1, 275040, Tempo, 466926
1, 275040, Note_on_c, 0, 44, 0
1, 275040, Note_on_c, 0, 55, 40
1, 275400, Note_on_c, 0, 55, 0
1, 275400, Note_on_c, 0, 54, 36
1, 275520, Tempo, 454545
1, 275520, Note_on_c, 0, 54, 0
1, 275520, Note_on_c, 0, 52, 39
1, 276000, Tempo, 483871
1, 276000, Note_on_c, 0, 52, 0
1, 276000, Note_on_c, 0, 45, 34
1, 276480, Tempo, 491803
1, 276480, Note_on_c, 0, 45, 0
1, 276480, Note_on_c, 0, 55, 40
1, 276840, Note_on_c, 0, 55, 0
1, 276840, Note_on_c, 0, 54, 36
1, 276960, Tempo, 474308
1, 276960, Note_on_c, 0, 54, 0
1, 276960, Note_on_c, 0, 52, 39
1, 277440, Tempo, 521739
1, 277440, Note_on_c, 0, 52, 0
1, 277440, Note_on_c, 0, 46, 33
1, 277920, Key_signature, 2, "major"
1, 277920, Tempo, 504202
1, 277920, Note_on_c, 0, 46, 0
1, 277920, Note_on_c, 0, 78, 46
1, 277920, Note_on_c, 0, 47, 42
1, 278008, Control_c, 0, 64, 127
1, 278160, Note_on_c, 0, 78, 0
1, 278160, Note_on_c, 0, 83, 42
1, 278400, Tempo, 552995
1, 278400, Note_on_c, 0, 83, 0
1, 278400, Note_on_c, 0, 47, 0
1, 278400, Note_on_c, 0, 79, 42
1, 278400, Note_on_c, 0, 64, 34
1, 278400, Note_on_c, 0, 59, 28
1, 278400, Note_on_c, 0, 55, 28
1, 278460, Note_on_c, 0, 79, 0
1, 278460, Note_on_c, 0, 81, 42
1, 278520, Tempo, 491803
1, 278520, Note_on_c, 0, 81, 0
1, 278520, Note_on_c, 0, 79, 48
1, 278880, Tempo, 478088
1, 278880, Note_on_c, 0, 79, 0
1, 278880, Note_on_c, 0, 64, 0
1, 278880, Note_on_c, 0, 59, 0
1, 278880, Note_on_c, 0, 55, 0
1, 278880, Note_on_c, 0, 78, 45
1, 278880, Note_on_c, 0, 64, 33
1, 278880, Note_on_c, 0, 59, 28
1, 278880, Note_on_c, 0, 55, 28
1, 279120, Tempo, 500000
1, 279120, Note_on_c, 0, 78, 0
1, 279120, Note_on_c, 0, 76, 42
1, 279360, Tempo, 436364
1, 279360, Note_on_c, 0, 76, 0
1, 279360, Note_on_c, 0, 55, 0
1, 279360, Note_on_c, 0, 59, 0
1, 279360, Note_on_c, 0, 64, 0
1, 279360, Note_on_c, 0, 78, 46
1, 279360, Note_on_c, 0, 47, 42
1, 279369, Control_c, 0, 64, 0
1, 279500, Tempo, 600000
1, 279558, Control_c, 0, 64, 127
1, 279600, Tempo, 500000
1, 279600, Note_on_c, 0, 78, 0
1, 279600, Note_on_c, 0, 71, 42
1, 279840, Note_on_c, 0, 47, 0
1, 279840, Note_on_c, 0, 62, 26
1, 279840, Note_on_c, 0, 59, 22
1, 279840, Note_on_c, 0, 54, 22
1, 280320, Note_on_c, 0, 54, 0
1, 280320, Note_on_c, 0, 59, 0
1, 280320, Note_on_c, 0, 62, 0
1, 280320, Note_on_c, 0, 62, 26
1, 280320, Note_on_c, 0, 59, 22
1, 280320, Note_on_c, 0, 54, 22
1, 280800, Tempo, 500000
1, 280800, Note_on_c, 0, 54, 0
1, 280800, Note_on_c, 0, 71, 0
1, 280800, Note_on_c, 0, 62, 0
1, 280800, Note_on_c, 0, 59, 0
1, 280800, Note_on_c, 0, 73, 49
1, 280800, Control_c, 0, 64, 0
1, 280800, Note_on_c, 0, 47, 42
1, 280881, Control_c, 0, 64, 127
1, 281040, Note_on_c, 0, 73, 0
1, 281040, Note_on_c, 0, 76, 42
1, 281280, Tempo, 560748
1, 281280, Note_on_c, 0, 76, 0
1, 281280, Note_on_c, 0, 47, 0
1, 281280, Note_on_c, 0, 74, 42
1, 281280, Note_on_c, 0, 64, 34
1, 281280, Note_on_c, 0, 58, 28
1, 281280, Note_on_c, 0, 54, 28
1, 281340, Note_on_c, 0, 74, 0
1, 281340, Note_on_c, 0, 76, 42
1, 281400, Tempo, 487805
1, 281400, Note_on_c, 0, 76, 0
1, 281400, Note_on_c, 0, 74, 48
1, 281760, Tempo, 478088
1, 281760, Note_on_c, 0, 74, 0
1, 281760, Note_on_c, 0, 64, 0
1, 281760, Note_on_c, 0, 58, 0
1, 281760, Note_on_c, 0, 54, 0
1, 281760, Note_on_c, 0, 73, 45
1, 281760, Note_on_c, 0, 64, 33
1, 281760, Note_on_c, 0, 58, 28
1, 281760, Note_on_c, 0, 54, 28
1, 281775, Control_c, 0, 64, 0
1, 282000, Tempo, 500000
1, 282240, Tempo, 436364
1, 282240, Note_on_c, 0, 54, 0
1, 282240, Note_on_c, 0, 73, 0
1, 282240, Note_on_c, 0, 64, 0
1, 282240, Note_on_c, 0, 58, 0
1, 282240, Note_on_c, 0, 74, 46
1, 282240, Note_on_c, 0, 47, 42
1, 282380, Tempo, 600000
1, 282438, Control_c, 0, 64, 127
1, 282480, Tempo, 500000
1, 282480, Note_on_c, 0, 74, 0
1, 282480, Note_on_c, 0, 71, 42
1, 282720, Note_on_c, 0, 47, 0
1, 282720, Note_on_c, 0, 62, 26
1, 282720, Note_on_c, 0, 59, 22
1, 282720, Note_on_c, 0, 54, 22
1, 283200, Note_on_c, 0, 54, 0
1, 283200, Note_on_c, 0, 59, 0
1, 283200, Note_on_c, 0, 62, 0
1, 283200, Note_on_c, 0, 62, 26
1, 283200, Note_on_c, 0, 59, 22
1, 283200, Note_on_c, 0, 54, 22
1, 283680, Tempo, 500000
1, 283680, Note_on_c, 0, 54, 0
1, 283680, Note_on_c, 0, 71, 0
1, 283680, Note_on_c, 0, 62, 0
1, 283680, Note_on_c, 0, 59, 0
1, 283680, Note_on_c, 0, 73, 55
1, 283680, Control_c, 0, 64, 0
1, 283680, Note_on_c, 0, 37, 47
1, 283726, Control_c, 0, 64, 127
1, 283920, Note_on_c, 0, 73, 0
1, 283920, Note_on_c, 0, 71, 47
1, 284160, Tempo, 585366
1, 284160, Note_on_c, 0, 71, 0
1, 284160, Note_on_c, 0, 37, 0
1, 284160, Note_on_c, 0, 69, 43
1, 284160, Note_on_c, 0, 59, 38
1, 284160, Note_on_c, 0, 53, 32
1, 284160, Note_on_c, 0, 49, 32
1, 284181, Control_c, 0, 64, 0
1, 284220, Note_on_c, 0, 69, 0
1, 284220, Note_on_c, 0, 71, 44
1, 284280, Tempo, 489796
1, 284280, Note_on_c, 0, 71, 0
1, 284280, Note_on_c, 0, 69, 52
1, 284280, Control_c, 0, 64, 127
1, 284640, Tempo, 478088
1, 284640, Note_on_c, 0, 69, 0
1, 284640, Note_on_c, 0, 59, 0
1, 284640, Note_on_c, 0, 53, 0
1, 284640, Note_on_c, 0, 49, 0
1, 284640, Note_on_c, 0, 68, 50
1, 284640, Note_on_c, 0, 59, 37
1, 284640, Note_on_c, 0, 53, 31
1, 284640, Note_on_c, 0, 49, 31
1, 284654, Control_c, 0, 64, 0
1, 284880, Tempo, 500000
1, 285120, Tempo, 436364
1, 285120, Note_on_c, 0, 49, 0
1, 285120, Note_on_c, 0, 68, 0
1, 285120, Note_on_c, 0, 59, 0
1, 285120, Note_on_c, 0, 53, 0
1, 285120, Note_on_c, 0, 69, 52
1, 285120, Note_on_c, 0, 42, 47
1, 285260, Tempo, 600000
1, 285318, Control_c, 0, 64, 127
1, 285360, Tempo, 500000
1, 285360, Note_on_c, 0, 69, 0
1, 285360, Note_on_c, 0, 73, 47
1, 285600, Note_on_c, 0, 42, 0
1, 285600, Note_on_c, 0, 57, 35
1, 285600, Note_on_c, 0, 49, 29
1, 285840, Note_on_c, 0, 73, 0
1, 286080, Tempo, 481928
1, 286080, Note_on_c, 0, 49, 0
1, 286080, Note_on_c, 0, 57, 0
1, 286080, Note_on_c, 0, 61, 68
1, 286108, Control_c, 0, 64, 0
1, 286800, Note_on_c, 0, 61, 0
1, 286800, Note_on_c, 0, 59, 60
1, 286920, Tempo, 508475
1, 287040, Tempo, 468750
1, 287040, Note_on_c, 0, 59, 0
1, 287040, Note_on_c, 0, 57, 57
1, 287100, Note_on_c, 0, 57, 0
1, 287100, Note_on_c, 0, 59, 57
1, 287160, Note_on_c, 0, 59, 0
1, 287160, Note_on_c, 0, 57, 68
1, 287520, Tempo, 491803
1, 287520, Note_on_c, 0, 57, 0
1, 287520, Note_on_c, 0, 56, 67
1, 288000, Tempo, 461538
1, 288000, Note_on_c, 0, 56, 0
1, 288000, Note_on_c, 0, 57, 71
1, 288480, Tempo, 473111
1, 288480, Note_on_c, 0, 57, 0
1, 288480, Note_on_c, 0, 61, 67
1, 289440, Note_on_c, 0, 61, 0
1, 289440, Note_on_c, 0, 59, 71
1, 289440, Note_on_c, 0, 49, 47
1, 289440, Note_on_c, 0, 56, 58
1, 289480, Tempo, 461538
1, 289920, Tempo, 449438
1, 289920, Note_on_c, 0, 56, 0
1, 289920, Note_on_c, 0, 59, 0
1, 289920, Note_on_c, 0, 57, 68
1, 289920, Note_on_c, 0, 54, 55
1, 290103, Control_c, 0, 64, 127
1, 290396, Note_on_c, 0, 57, 0
1, 290400, Tempo, 466926
1, 290400, Note_on_c, 0, 54, 0
1, 290400, Note_on_c, 0, 61, 68
1, 290400, Note_on_c, 0, 57, 55
1, 290880, Tempo, 533096
1, 290880, Note_on_c, 0, 57, 0
1, 290880, Note_on_c, 0, 61, 0
1, 290880, Note_on_c, 0, 49, 0
1, 290880, Note_on_c, 0, 59, 63
1, 290880, Note_on_c, 0, 49, 47
1, 290880, Note_on_c, 0, 56, 57
1, 290887, Control_c, 0, 64, 0
1, 290940, Note_on_c, 0, 59, 0
1, 290940, Note_on_c, 0, 61, 63
1, 291000, Tempo, 459700
1, 291000, Note_on_c, 0, 61, 0
1, 291000, Note_on_c, 0, 59, 73
1, 291040, Tempo, 436364
1, 291120, Note_on_c, 0, 59, 0
1, 291120, Note_on_c, 0, 56, 0
1, 291120, Note_on_c, 0, 57, 66
1, 291120, Note_on_c, 0, 54, 51
1, 291360, Tempo, 473111
1, 291360, Note_on_c, 0, 54, 0
1, 291360, Note_on_c, 0, 57, 0
1, 291360, Note_on_c, 0, 61, 72
1, 291360, Note_on_c, 0, 57, 56
1, 291840, Note_on_c, 0, 57, 0
1, 291840, Note_on_c, 0, 61, 0
1, 291840, Note_on_c, 0, 61, 68
1, 291840, Note_on_c, 0, 57, 54
1, 292320, Tempo, 530598
1, 292320, Note_on_c, 0, 57, 0
1, 292320, Note_on_c, 0, 61, 0
1, 292320, Note_on_c, 0, 49, 0
1, 292320, Note_on_c, 0, 59, 61
1, 292320, Note_on_c, 0, 49, 47
1, 292320, Note_on_c, 0, 56, 57
1, 292380, Note_on_c, 0, 59, 0
1, 292380, Note_on_c, 0, 61, 61
1, 292440, Tempo, 457841
1, 292440, Note_on_c, 0, 61, 0
1, 292440, Note_on_c, 0, 59, 72
1, 292480, Tempo, 434783
1, 292800, Tempo, 463464
1, 292800, Note_on_c, 0, 59, 0
1, 292800, Note_on_c, 0, 56, 0
1, 292800, Note_on_c, 0, 58, 72
1, 292800, Note_on_c, 0, 54, 56
1, 292899, Control_c, 0, 64, 127
1, 293275, Note_on_c, 0, 58, 0
1, 293280, Tempo, 473111
1, 293280, Note_on_c, 0, 54, 0
1, 293280, Note_on_c, 0, 61, 68
1, 293280, Note_on_c, 0, 58, 54
1, 293760, Tempo, 530598
1, 293760, Note_on_c, 0, 58, 0
1, 293760, Note_on_c, 0, 61, 0
1, 293760, Note_on_c, 0, 49, 0
1, 293760, Note_on_c, 0, 59, 62
1, 293760, Note_on_c, 0, 49, 47
1, 293760, Note_on_c, 0, 56, 57
1, 293768, Control_c, 0, 64, 0
1, 293820, Note_on_c, 0, 59, 0
1, 293820, Note_on_c, 0, 61, 63
1, 293880, Tempo, 459700
1, 293880, Note_on_c, 0, 61, 0
1, 293880, Note_on_c, 0, 59, 73
1, 294000, Note_on_c, 0, 59, 0
1, 294000, Note_on_c, 0, 56, 0
1, 294000, Note_on_c, 0, 58, 66
1, 294000, Note_on_c, 0, 54, 51
1, 294240, Tempo, 473111
1, 294240, Note_on_c, 0, 58, 0
1, 294240, Note_on_c, 0, 49, 0
1, 294240, Note_on_c, 0, 66, 72
1, 294240, Note_on_c, 0, 42, 47
1, 294272, Control_c, 0, 64, 127
1, 294720, Tempo, 500000
1, 294720, Note_on_c, 0, 66, 0
1, 294720, Note_on_c, 0, 54, 0
1, 294720, Note_on_c, 0, 78, 58
1, 294731, Control_c, 0, 64, 0
1, 295200, Note_on_c, 0, 42, 0
1, 295200, Note_on_c, 0, 47, 50
1, 295281, Control_c, 0, 64, 127
1, 295440, Note_on_c, 0, 78, 0
1, 295440, Note_on_c, 0, 83, 50
1, 295680, Tempo, 552995
1, 295680, Note_on_c, 0, 83, 0
1, 295680, Note_on_c, 0, 47, 0
1, 295680, Note_on_c, 0, 79, 50
1, 295680, Note_on_c, 0, 64, 40
1, 295680, Note_on_c, 0, 59, 34
1, 295680, Note_on_c, 0, 55, 34
1, 295740, Note_on_c, 0, 79, 0
1, 295740, Note_on_c, 0, 81, 50
1, 295800, Tempo, 491803
1, 295800, Note_on_c, 0, 81, 0
1, 295800, Note_on_c, 0, 79, 57
1, 296160, Tempo, 478088
1, 296160, Note_on_c, 0, 79, 0
1, 296160, Note_on_c, 0, 64, 0
1, 296160, Note_on_c, 0, 59, 0
1, 296160, Note_on_c, 0, 55, 0
1, 296160, Note_on_c, 0, 78, 53
1, 296160, Note_on_c, 0, 64, 39
1, 296160, Note_on_c, 0, 59, 33
1, 296160, Note_on_c, 0, 55, 33
1, 296400, Tempo, 500000
1, 296400, Note_on_c, 0, 78, 0
1, 296400, Note_on_c, 0, 76, 50
1, 296640, Tempo, 436364
1, 296640, Note_on_c, 0, 76, 0
1, 296640, Note_on_c, 0, 55, 0
1, 296640, Note_on_c, 0, 59, 0
1, 296640, Note_on_c, 0, 64, 0
1, 296640, Note_on_c, 0, 78, 55
1, 296640, Note_on_c, 0, 47, 50
1, 296649, Control_c, 0, 64, 0
1, 296780, Tempo, 600000
1, 296838, Control_c, 0, 64, 127
1, 296880, Tempo, 500000
1, 296880, Note_on_c, 0, 78, 0
1, 296880, Note_on_c, 0, 71, 50
1, 297120, Tempo, 478088
1, 297120, Note_on_c, 0, 47, 0
1, 297120, Note_on_c, 0, 62, 31
1, 297120, Note_on_c, 0, 59, 26
1, 297120, Note_on_c, 0, 54, 26
1, 297600, Tempo, 500000
1, 297600, Note_on_c, 0, 54, 0
1, 297600, Note_on_c, 0, 59, 0
1, 297600, Note_on_c, 0, 62, 0
1, 297600, Note_on_c, 0, 62, 31
1, 297600, Note_on_c, 0, 59, 26
1, 297600, Note_on_c, 0, 54, 26
1, 298080, Tempo, 500000
1, 298080, Note_on_c, 0, 54, 0
1, 298080, Note_on_c, 0, 71, 0
1, 298080, Note_on_c, 0, 62, 0
1, 298080, Note_on_c, 0, 59, 0
1, 298080, Note_on_c, 0, 73, 58
1, 298080, Note_on_c, 0, 47, 50
1, 298089, Control_c, 0, 64, 0
1, 298172, Control_c, 0, 64, 127
1, 298320, Note_on_c, 0, 73, 0
1, 298320, Note_on_c, 0, 76, 50
1, 298560, Tempo, 560748
1, 298560, Note_on_c, 0, 76, 0
1, 298560, Note_on_c, 0, 47, 0
1, 298560, Note_on_c, 0, 74, 50
1, 298560, Note_on_c, 0, 64, 40
1, 298560, Note_on_c, 0, 58, 34
1, 298560, Note_on_c, 0, 54, 34
1, 298620, Note_on_c, 0, 74, 0
1, 298620, Note_on_c, 0, 76, 50
1, 298680, Tempo, 487805
1, 298680, Note_on_c, 0, 76, 0
1, 298680, Note_on_c, 0, 74, 57
1, 299040, Tempo, 478088
1, 299040, Note_on_c, 0, 74, 0
1, 299040, Note_on_c, 0, 64, 0
1, 299040, Note_on_c, 0, 58, 0
1, 299040, Note_on_c, 0, 54, 0
1, 299040, Note_on_c, 0, 73, 53
1, 299040, Note_on_c, 0, 64, 39
1, 299040, Note_on_c, 0, 58, 33
1, 299040, Note_on_c, 0, 54, 33
1, 299054, Control_c, 0, 64, 0
1, 299280, Tempo, 500000
1, 299520, Tempo, 436364
1, 299520, Note_on_c, 0, 54, 0
1, 299520, Note_on_c, 0, 73, 0
1, 299520, Note_on_c, 0, 64, 0
1, 299520, Note_on_c, 0, 58, 0
1, 299520, Note_on_c, 0, 74, 55
1, 299520, Note_on_c, 0, 47, 50
1, 299660, Tempo, 600000
1, 299718, Control_c, 0, 64, 127
1, 299760, Tempo, 500000
1, 299760, Note_on_c, 0, 74, 0
1, 299760, Note_on_c, 0, 71, 50
1, 300000, Tempo, 483871
1, 300000, Note_on_c, 0, 47, 0
1, 300000, Note_on_c, 0, 62, 31
1, 300000, Note_on_c, 0, 59, 26
1, 300000, Note_on_c, 0, 54, 26
1, 300480, Tempo, 472441
1, 300480, Note_on_c, 0, 54, 0
1, 300480, Note_on_c, 0, 71, 0
1, 300480, Note_on_c, 0, 62, 0
1, 300480, Note_on_c, 0, 59, 0
1, 300480, Note_on_c, 0, 50, 66
1, 300495, Control_c, 0, 64, 0
1, 300960, Note_on_c, 0, 59, 38
1, 300960, Note_on_c, 0, 65, 43
1, 301200, Note_on_c, 0, 50, 0
1, 301200, Note_on_c, 0, 55, 58
1, 301440, Tempo, 433213
1, 301440, Note_on_c, 0, 55, 0
1, 301440, Note_on_c, 0, 65, 0
1, 301440, Note_on_c, 0, 59, 0
1, 301440, Note_on_c, 0, 52, 65
1, 301440, Note_on_c, 0, 60, 34
1, 301440, Note_on_c, 0, 64, 38
1, 301600, Note_on_c, 0, 52, 0
1, 301600, Note_on_c, 0, 53, 57
1, 301760, Note_on_c, 0, 53, 0
1, 301760, Note_on_c, 0, 52, 55
1, 301920, Tempo, 472441
1, 301920, Note_on_c, 0, 52, 0
1, 301920, Note_on_c, 0, 64, 0
1, 301920, Note_on_c, 0, 60, 0
1, 301920, Note_on_c, 0, 50, 63
1, 301920, Note_on_c, 0, 60, 34
1, 301920, Note_on_c, 0, 64, 38
1, 302160, Note_on_c, 0, 50, 0
1, 302160, Note_on_c, 0, 48, 57
1, 302400, Tempo, 476190
1, 302400, Note_on_c, 0, 48, 0
1, 302400, Note_on_c, 0, 64, 0
1, 302400, Note_on_c, 0, 60, 0
1, 302400, Note_on_c, 0, 50, 64
1, 302400, Note_on_c, 0, 55, 41
1, 302400, Note_on_c, 0, 59, 41
1, 302400, Note_on_c, 0, 65, 46
1, 302760, Note_on_c, 0, 50, 0
1, 302760, Note_on_c, 0, 43, 55
1, 302880, Note_on_c, 0, 43, 0
1, 302880, Note_on_c, 0, 65, 0
1, 302880, Note_on_c, 0, 59, 0
1, 302880, Note_on_c, 0, 55, 0
1, 302880, Note_on_c, 0, 50, 64
1, 302880, Note_on_c, 0, 55, 34
1, 302880, Note_on_c, 0, 59, 34
1, 302880, Note_on_c, 0, 65, 38
1, 303360, Tempo, 463320
1, 303360, Note_on_c, 0, 65, 0
1, 303360, Note_on_c, 0, 50, 0
1, 303360, Note_on_c, 0, 55, 0
1, 303360, Note_on_c, 0, 59, 0
1, 303360, Note_on_c, 0, 48, 59
1, 303360, Note_on_c, 0, 60, 34
1, 303360, Note_on_c, 0, 64, 38
1, 303840, Tempo, 472441
1, 303840, Note_on_c, 0, 64, 0
1, 303840, Note_on_c, 0, 60, 0
1, 303840, Note_on_c, 0, 48, 0
1, 303840, Note_on_c, 0, 50, 66
1, 303840, Note_on_c, 0, 59, 38
1, 303840, Note_on_c, 0, 65, 43
1, 303880, Tempo, 461538
1, 304080, Note_on_c, 0, 50, 0
1, 304080, Note_on_c, 0, 55, 58
1, 304320, Tempo, 433213
1, 304320, Note_on_c, 0, 55, 0
1, 304320, Note_on_c, 0, 65, 0
1, 304320, Note_on_c, 0, 59, 0
1, 304320, Note_on_c, 0, 52, 65
1, 304320, Note_on_c, 0, 60, 34
1, 304320, Note_on_c, 0, 64, 38
1, 304480, Note_on_c, 0, 52, 0
1, 304480, Note_on_c, 0, 53, 57
1, 304640, Note_on_c, 0, 53, 0
1, 304640, Note_on_c, 0, 52, 55
1, 304800, Tempo, 472441
1, 304800, Note_on_c, 0, 52, 0
1, 304800, Note_on_c, 0, 64, 0
1, 304800, Note_on_c, 0, 60, 0
1, 304800, Note_on_c, 0, 50, 63
1, 304800, Note_on_c, 0, 60, 34
1, 304800, Note_on_c, 0, 64, 38
1, 305040, Note_on_c, 0, 50, 0
1, 305040, Note_on_c, 0, 48, 57
1, 305280, Tempo, 476190
1, 305280, Note_on_c, 0, 48, 0
1, 305280, Note_on_c, 0, 64, 0
1, 305280, Note_on_c, 0, 60, 0
1, 305280, Note_on_c, 0, 50, 64
1, 305280, Note_on_c, 0, 55, 41
1, 305280, Note_on_c, 0, 59, 41
1, 305280, Note_on_c, 0, 65, 46
1, 305640, Note_on_c, 0, 50, 0
1, 305640, Note_on_c, 0, 43, 54
1, 305760, Note_on_c, 0, 43, 0
1, 305760, Note_on_c, 0, 65, 0
1, 305760, Note_on_c, 0, 59, 0
1, 305760, Note_on_c, 0, 55, 0
1, 305760, Note_on_c, 0, 50, 62
1, 305760, Note_on_c, 0, 55, 33
1, 305760, Note_on_c, 0, 59, 33
1, 305760, Note_on_c, 0, 65, 37
1, 306240, Note_on_c, 0, 65, 0
1, 306240, Note_on_c, 0, 50, 0
1, 306240, Note_on_c, 0, 55, 0
1, 306240, Note_on_c, 0, 59, 0
1, 306240, Note_on_c, 0, 48, 56
1, 306240, Note_on_c, 0, 60, 32
1, 306240, Note_on_c, 0, 64, 36
1, 306720, Tempo, 452830
1, 306720, Note_on_c, 0, 64, 0
1, 306720, Note_on_c, 0, 60, 0
1, 306720, Note_on_c, 0, 48, 0
1, 306720, Note_on_c, 0, 50, 60
1, 306720, Note_on_c, 0, 55, 38
1, 306720, Note_on_c, 0, 59, 38
1, 306720, Note_on_c, 0, 65, 43
1, 307080, Note_on_c, 0, 50, 0
1, 307080, Note_on_c, 0, 43, 51
1, 307200, Tempo, 487805
1, 307200, Note_on_c, 0, 43, 0
1, 307200, Note_on_c, 0, 65, 0
1, 307200, Note_on_c, 0, 59, 0
1, 307200, Note_on_c, 0, 55, 0
1, 307200, Note_on_c, 0, 48, 58
1, 307200, Note_on_c, 0, 60, 31
1, 307200, Note_on_c, 0, 64, 34
1, 307680, Tempo, 466926
1, 307680, Note_on_c, 0, 64, 0
1, 307680, Note_on_c, 0, 60, 0
1, 307680, Note_on_c, 0, 48, 0
1, 307680, Note_on_c, 0, 50, 57
1, 307680, Note_on_c, 0, 55, 36
1, 307680, Note_on_c, 0, 59, 36
1, 307680, Note_on_c, 0, 65, 41
1, 308040, Note_on_c, 0, 50, 0
1, 308040, Note_on_c, 0, 43, 48
1, 308160, Tempo, 493827
1, 308160, Note_on_c, 0, 43, 0
1, 308160, Note_on_c, 0, 65, 0
1, 308160, Note_on_c, 0, 59, 0
1, 308160, Note_on_c, 0, 55, 0
1, 308160, Note_on_c, 0, 48, 56
1, 308160, Note_on_c, 0, 60, 29
1, 308160, Note_on_c, 0, 64, 29
1, 308640, Tempo, 470588
1, 308640, Note_on_c, 0, 64, 0
1, 308640, Note_on_c, 0, 60, 0
1, 308640, Note_on_c, 0, 48, 0
1, 308640, Note_on_c, 0, 50, 55
1, 308640, Note_on_c, 0, 55, 35
1, 308640, Note_on_c, 0, 59, 35
1, 308640, Note_on_c, 0, 65, 39
1, 309000, Note_on_c, 0, 50, 0
1, 309000, Note_on_c, 0, 43, 46
1, 309120, Tempo, 502092
1, 309120, Note_on_c, 0, 43, 0
1, 309120, Note_on_c, 0, 65, 0
1, 309120, Note_on_c, 0, 59, 0
1, 309120, Note_on_c, 0, 55, 0
1, 309120, Note_on_c, 0, 48, 53
1, 309120, Note_on_c, 0, 60, 28
1, 309120, Note_on_c, 0, 64, 31
1, 309600, Tempo, 489796
1, 309600, Note_on_c, 0, 64, 0
1, 309600, Note_on_c, 0, 60, 0
1, 309600, Note_on_c, 0, 48, 0
1, 309600, Note_on_c, 0, 50, 54
1, 309600, Note_on_c, 0, 55, 34
1, 309600, Note_on_c, 0, 59, 34
1, 309600, Note_on_c, 0, 65, 38
1, 309960, Note_on_c, 0, 50, 0
1, 309960, Note_on_c, 0, 43, 45
1, 310080, Note_on_c, 0, 43, 0
1, 310080, Note_on_c, 0, 65, 0
1, 310080, Note_on_c, 0, 59, 0
1, 310080, Note_on_c, 0, 55, 0
1, 310080, Note_on_c, 0, 50, 51
1, 310080, Note_on_c, 0, 55, 26
1, 310080, Note_on_c, 0, 59, 26
1, 310080, Note_on_c, 0, 65, 30
1, 310560, Tempo, 510638
1, 310560, Note_on_c, 0, 65, 0
1, 310560, Note_on_c, 0, 50, 0
1, 310560, Note_on_c, 0, 55, 0
1, 310560, Note_on_c, 0, 59, 0
1, 310560, Note_on_c, 0, 48, 45
1, 310560, Note_on_c, 0, 60, 25
1, 310560, Note_on_c, 0, 64, 28
1, 311040, Tempo, 497925
1, 311040, Note_on_c, 0, 64, 0
1, 311040, Note_on_c, 0, 60, 0
1, 311040, Note_on_c, 0, 48, 0
1, 311040, Note_on_c, 0, 50, 50
1, 311040, Note_on_c, 0, 55, 31
1, 311040, Note_on_c, 0, 59, 31
1, 311040, Note_on_c, 0, 65, 36
1, 311400, Note_on_c, 0, 50, 0
1, 311400, Note_on_c, 0, 43, 41
1, 311520, Tempo, 512821
1, 311520, Note_on_c, 0, 43, 0
1, 311520, Note_on_c, 0, 65, 0
1, 311520, Note_on_c, 0, 59, 0
1, 311520, Note_on_c, 0, 55, 0
1, 311520, Note_on_c, 0, 50, 46
1, 311520, Note_on_c, 0, 55, 24
1, 311520, Note_on_c, 0, 59, 24
1, 311520, Note_on_c, 0, 65, 28
1, 312000, Tempo, 530973
1, 312000, Note_on_c, 0, 65, 0
1, 312000, Note_on_c, 0, 50, 0
1, 312000, Note_on_c, 0, 55, 0
1, 312000, Note_on_c, 0, 59, 0
1, 312000, Note_on_c, 0, 48, 41
1, 312000, Note_on_c, 0, 60, 23
1, 312000, Note_on_c, 0, 64, 26
1, 312480, Tempo, 519481
1, 312480, Note_on_c, 0, 64, 0
1, 312480, Note_on_c, 0, 60, 0
1, 312480, Note_on_c, 0, 48, 0
1, 312480, Note_on_c, 0, 67, 40
1, 312587, Control_c, 0, 64, 127
1, 313920, Tempo, 530973
1, 313920, Note_on_c, 0, 67, 0
1, 313920, Note_on_c, 0, 60, 45
1, 315360, Tempo, 519481
1, 315360, Note_on_c, 0, 60, 0
1, 315360, Note_on_c, 0, 67, 40
1, 316800, Tempo, 533333
1, 316800, Note_on_c, 0, 67, 0
1, 316800, Note_on_c, 0, 60, 45
1, 318240, Tempo, 521739
1, 318240, Note_on_c, 0, 60, 0
1, 318240, Note_on_c, 0, 67, 41
1, 321115, Note_on_c, 0, 67, 0
1, 321120, Tempo, 493827
1, 321120, Note_on_c, 0, 67, 54
1, 321123, Control_c, 0, 64, 0
1, 321600, Tempo, 442804
1, 321600, Note_on_c, 0, 67, 0
1, 321600, Note_on_c, 0, 60, 59
1, 322320, Tempo, 487805
1, 322320, Note_on_c, 0, 60, 0
1, 322320, Note_on_c, 0, 59, 52
1, 322560, Tempo, 470588
1, 322560, Note_on_c, 0, 59, 0
1, 322560, Note_on_c, 0, 52, 50
1, 322560, Note_on_c, 0, 58, 59
1, 322560, Note_on_c, 0, 61, 59
1, 322560, Note_on_c, 0, 42, 44
1, 322659, Control_c, 0, 64, 127
1, 322920, Note_on_c, 0, 61, 0
1, 322920, Note_on_c, 0, 52, 0
1, 322920, Note_on_c, 0, 58, 0
1, 322920, Note_on_c, 0, 54, 45
1, 323040, Tempo, 506329
1, 323040, Note_on_c, 0, 42, 0
1, 323040, Note_on_c, 0, 52, 49
1, 323040, Note_on_c, 0, 58, 58
1, 323040, Note_on_c, 0, 61, 58
1, 323040, Note_on_c, 0, 42, 39
1, 323057, Control_c, 0, 64, 0
1, 323195, Control_c, 0, 64, 127
1, 323520, Tempo, 588235
1, 323520, Note_on_c, 0, 42, 0
1, 323520, Note_on_c, 0, 58, 0
1, 323520, Note_on_c, 0, 54, 0
1, 323520, Note_on_c, 0, 52, 0
1, 323520, Note_on_c, 0, 61, 0
1, 323520, Note_on_c, 0, 50, 47
1, 323520, Note_on_c, 0, 54, 47
1, 323520, Note_on_c, 0, 59, 56
1, 323520, Note_on_c, 0, 35, 37
1, 323520, Note_on_c, 0, 47, 44
1, 323536, Control_c, 0, 64, 0
1, 323647, Control_c, 0, 64, 127
1, 324000, Note_on_c, 0, 47, 0
1, 324000, Note_on_c, 0, 59, 0
1, 324000, Note_on_c, 0, 50, 0
1, 324000, Note_on_c, 0, 54, 0
1, 324000, Note_on_c, 0, 35, 0
1, 324000, Control_c, 0, 64, 0
1, 325440, Tempo, 600000
1, 325440, End_track
0, 0, End_of_file
