0, 0, Header, 0, 1, 480
1, 0, Start_track
1, 0, Title_t, "Sonate opus 35, 4. Satz"
1, 0, Copyright_t, "Copyright © 2002 by Bernd Krueger"
1, 0, Text_t, "Frederic Chopin"
1, 0, Text_t, "Presto"
1, 0, Text_t, "Fertiggestellt am 30.4.2002\012"
1, 0, Text_t, "Normierung: 23.12.2002\012"
1, 0, Text_t, "Update am 8.8.2010\012"
1, 0, Text_t, "Update am 26.2.2014\012"
1, 0, Text_t, "Dauer: 1:25  Minuten\012"
1, 0, SMPTE_offset, 96, 0, 3, 0, 0
1, 0, Time_signature, 4, 2, 24, 8
1, 0, Key_signature, -5, "major"
1, 0, Tempo, 297722
1, 0, Program_c, 0, 0
1, 0, Control_c, 0, 7, 100
1, 0, Control_c, 0, 10, 64
1, 0, Control_c, 0, 91, 127
1, 0, Note_on_c, 0, 53, 35
1, 0, Control_c, 0, 64, 0
1, 0, Control_c, 0, 91, 127
1, 0, Text_t, "bdca426d104a26ac9dcb070447587523"
1, 0, Program_c, 0, 0
1, 0, Control_c, 0, 7, 100
1, 0, Control_c, 0, 10, 64
1, 0, Note_on_c, 0, 41, 30
1, 160, Tempo, 287164
1, 160, Note_on_c, 0, 55, 29
1, 160, Note_on_c, 0, 43, 24
1, 200, Note_on_c, 0, 41, 0
1, 200, Note_on_c, 0, 53, 0
1, 320, Tempo, 281465
1, 320, Note_on_c, 0, 58, 30
1, 320, Note_on_c, 0, 46, 25
1, 360, Note_on_c, 0, 55, 0
1, 360, Note_on_c, 0, 43, 0
1, 480, Tempo, 289366
1, 480, Note_on_c, 0, 61, 30
1, 480, Note_on_c, 0, 49, 25
1, 520, Note_on_c, 0, 58, 0
1, 520, Note_on_c, 0, 46, 0
1, 640, Tempo, 279382
1, 640, Note_on_c, 0, 52, 33
1, 640, Note_on_c, 0, 40, 28
1, 680, Note_on_c, 0, 61, 0
1, 680, Note_on_c, 0, 49, 0
1, 800, Tempo, 283581
1, 800, Note_on_c, 0, 55, 31
1, 800, Note_on_c, 0, 43, 26
1, 840, Note_on_c, 0, 52, 0
1, 840, Note_on_c, 0, 40, 0
1, 960, Note_on_c, 0, 55, 0
1, 960, Note_on_c, 0, 43, 0
1, 960, Note_on_c, 0, 53, 37
1, 960, Note_on_c, 0, 41, 30
1, 1120, Tempo, 275989
1, 1120, Note_on_c, 0, 55, 30
1, 1120, Note_on_c, 0, 43, 26
1, 1160, Note_on_c, 0, 41, 0
1, 1160, Note_on_c, 0, 53, 0
1, 1280, Tempo, 279382
1, 1280, Note_on_c, 0, 58, 31
1, 1280, Note_on_c, 0, 46, 26
1, 1320, Note_on_c, 0, 55, 0
1, 1320, Note_on_c, 0, 43, 0
1, 1440, Note_on_c, 0, 61, 32
1, 1440, Note_on_c, 0, 49, 27
1, 1480, Note_on_c, 0, 58, 0
1, 1480, Note_on_c, 0, 46, 0
1, 1600, Tempo, 273985
1, 1600, Note_on_c, 0, 52, 34
1, 1600, Note_on_c, 0, 40, 28
1, 1640, Note_on_c, 0, 61, 0
1, 1640, Note_on_c, 0, 49, 0
1, 1760, Tempo, 278707
1, 1760, Note_on_c, 0, 55, 33
1, 1760, Note_on_c, 0, 43, 27
1, 1800, Note_on_c, 0, 52, 0
1, 1800, Note_on_c, 0, 40, 0
1, 1904, Note_on_c, 0, 55, 0
1, 1904, Note_on_c, 0, 43, 0
1, 1920, Note_on_c, 0, 55, 40
1, 1920, Note_on_c, 0, 43, 34
1, 2080, Tempo, 272665
1, 2080, Note_on_c, 0, 57, 33
1, 2080, Note_on_c, 0, 45, 28
1, 2120, Note_on_c, 0, 43, 0
1, 2120, Note_on_c, 0, 55, 0
1, 2240, Tempo, 276663
1, 2240, Note_on_c, 0, 60, 35
1, 2240, Note_on_c, 0, 48, 29
1, 2280, Note_on_c, 0, 57, 0
1, 2280, Note_on_c, 0, 45, 0
1, 2400, Note_on_c, 0, 63, 36
1, 2400, Note_on_c, 0, 51, 28
1, 2440, Note_on_c, 0, 60, 0
1, 2440, Note_on_c, 0, 48, 0
1, 2560, Tempo, 270076
1, 2560, Note_on_c, 0, 54, 34
1, 2560, Note_on_c, 0, 42, 28
1, 2600, Note_on_c, 0, 63, 0
1, 2600, Note_on_c, 0, 51, 0
1, 2720, Tempo, 273985
1, 2720, Note_on_c, 0, 57, 36
1, 2720, Note_on_c, 0, 45, 30
1, 2760, Tempo, 273236
1, 2760, Note_on_c, 0, 54, 0
1, 2760, Note_on_c, 0, 42, 0
1, 2880, Note_on_c, 0, 57, 0
1, 2880, Note_on_c, 0, 45, 0
1, 2880, Note_on_c, 0, 55, 40
1, 2880, Note_on_c, 0, 43, 34
1, 3040, Tempo, 268793
1, 3040, Note_on_c, 0, 57, 34
1, 3040, Note_on_c, 0, 45, 28
1, 3080, Note_on_c, 0, 43, 0
1, 3080, Note_on_c, 0, 55, 0
1, 3200, Tempo, 273985
1, 3200, Note_on_c, 0, 60, 34
1, 3200, Note_on_c, 0, 48, 28
1, 3240, Note_on_c, 0, 57, 0
1, 3240, Note_on_c, 0, 45, 0
1, 3360, Note_on_c, 0, 63, 35
1, 3360, Note_on_c, 0, 51, 30
1, 3400, Note_on_c, 0, 60, 0
1, 3400, Note_on_c, 0, 48, 0
1, 3520, Tempo, 268156
1, 3520, Note_on_c, 0, 54, 34
1, 3520, Note_on_c, 0, 42, 28
1, 3560, Note_on_c, 0, 63, 0
1, 3560, Note_on_c, 0, 51, 0
1, 3680, Tempo, 271739
1, 3680, Note_on_c, 0, 57, 36
1, 3680, Note_on_c, 0, 45, 30
1, 3720, Note_on_c, 0, 54, 0
1, 3720, Note_on_c, 0, 42, 0
1, 3840, Note_on_c, 0, 57, 0
1, 3840, Note_on_c, 0, 45, 0
1, 3840, Note_on_c, 0, 58, 45
1, 3840, Note_on_c, 0, 46, 38
1, 4000, Tempo, 263112
1, 4000, Note_on_c, 0, 60, 35
1, 4000, Note_on_c, 0, 48, 29
1, 4040, Tempo, 265651
1, 4040, Note_on_c, 0, 46, 0
1, 4040, Note_on_c, 0, 58, 0
1, 4160, Tempo, 270721
1, 4160, Note_on_c, 0, 63, 38
1, 4160, Note_on_c, 0, 51, 32
1, 4200, Note_on_c, 0, 60, 0
1, 4200, Note_on_c, 0, 48, 0
1, 4320, Tempo, 268805
1, 4320, Note_on_c, 0, 66, 43
1, 4320, Note_on_c, 0, 54, 36
1, 4360, Note_on_c, 0, 63, 0
1, 4360, Note_on_c, 0, 51, 0
1, 4480, Tempo, 263112
1, 4480, Note_on_c, 0, 57, 39
1, 4480, Note_on_c, 0, 45, 33
1, 4520, Note_on_c, 0, 66, 0
1, 4520, Note_on_c, 0, 54, 0
1, 4640, Tempo, 268805
1, 4640, Note_on_c, 0, 60, 38
1, 4640, Note_on_c, 0, 48, 31
1, 4680, Note_on_c, 0, 57, 0
1, 4680, Note_on_c, 0, 45, 0
1, 4800, Note_on_c, 0, 60, 0
1, 4800, Note_on_c, 0, 48, 0
1, 4800, Note_on_c, 0, 61, 41
1, 4800, Note_on_c, 0, 49, 34
1, 4960, Tempo, 264504
1, 4960, Note_on_c, 0, 63, 39
1, 4960, Note_on_c, 0, 51, 32
1, 5000, Note_on_c, 0, 49, 0
1, 5000, Note_on_c, 0, 61, 0
1, 5120, Tempo, 268085
1, 5120, Note_on_c, 0, 66, 39
1, 5120, Note_on_c, 0, 54, 33
1, 5160, Note_on_c, 0, 63, 0
1, 5160, Note_on_c, 0, 51, 0
1, 5280, Note_on_c, 0, 69, 43
1, 5280, Note_on_c, 0, 57, 35
1, 5320, Note_on_c, 0, 66, 0
1, 5320, Note_on_c, 0, 54, 0
1, 5440, Tempo, 263794
1, 5440, Note_on_c, 0, 60, 39
1, 5440, Note_on_c, 0, 48, 33
1, 5480, Note_on_c, 0, 69, 0
1, 5480, Note_on_c, 0, 57, 0
1, 5600, Tempo, 268805
1, 5600, Note_on_c, 0, 63, 39
1, 5600, Note_on_c, 0, 51, 34
1, 5640, Note_on_c, 0, 60, 0
1, 5640, Note_on_c, 0, 48, 0
1, 5760, Note_on_c, 0, 63, 0
1, 5760, Note_on_c, 0, 51, 0
1, 5760, Note_on_c, 0, 61, 49
1, 5760, Note_on_c, 0, 49, 41
1, 5920, Tempo, 263112
1, 5920, Note_on_c, 0, 63, 42
1, 5920, Note_on_c, 0, 51, 35
1, 5960, Note_on_c, 0, 49, 0
1, 5960, Note_on_c, 0, 61, 0
1, 6080, Tempo, 269530
1, 6080, Note_on_c, 0, 66, 39
1, 6080, Note_on_c, 0, 54, 32
1, 6120, Note_on_c, 0, 63, 0
1, 6120, Note_on_c, 0, 51, 0
1, 6240, Tempo, 268805
1, 6240, Note_on_c, 0, 66, 0
1, 6240, Note_on_c, 0, 54, 0
1, 6240, Note_on_c, 0, 69, 40
1, 6240, Note_on_c, 0, 57, 37
1, 6400, Tempo, 263112
1, 6400, Note_on_c, 0, 60, 42
1, 6400, Note_on_c, 0, 48, 36
1, 6440, Note_on_c, 0, 57, 0
1, 6440, Note_on_c, 0, 69, 0
1, 6560, Tempo, 268805
1, 6560, Note_on_c, 0, 63, 43
1, 6560, Note_on_c, 0, 51, 36
1, 6600, Note_on_c, 0, 60, 0
1, 6600, Note_on_c, 0, 48, 0
1, 6720, Note_on_c, 0, 63, 0
1, 6720, Note_on_c, 0, 51, 0
1, 6720, Note_on_c, 0, 66, 50
1, 6720, Note_on_c, 0, 54, 41
1, 6880, Tempo, 264504
1, 6880, Note_on_c, 0, 70, 40
1, 6880, Note_on_c, 0, 58, 34
1, 6920, Note_on_c, 0, 54, 0
1, 6920, Note_on_c, 0, 66, 0
1, 7040, Tempo, 268085
1, 7040, Note_on_c, 0, 72, 41
1, 7040, Note_on_c, 0, 60, 34
1, 7080, Note_on_c, 0, 70, 0
1, 7080, Note_on_c, 0, 58, 0
1, 7200, Note_on_c, 0, 75, 44
1, 7200, Note_on_c, 0, 63, 38
1, 7240, Note_on_c, 0, 72, 0
1, 7240, Note_on_c, 0, 60, 0
1, 7360, Tempo, 261723
1, 7360, Note_on_c, 0, 65, 44
1, 7360, Note_on_c, 0, 53, 37
1, 7400, Note_on_c, 0, 75, 0
1, 7400, Note_on_c, 0, 63, 0
1, 7520, Tempo, 274750
1, 7520, Note_on_c, 0, 69, 44
1, 7520, Note_on_c, 0, 57, 37
1, 7560, Note_on_c, 0, 65, 0
1, 7560, Note_on_c, 0, 53, 0
1, 7680, Note_on_c, 0, 69, 0
1, 7680, Note_on_c, 0, 57, 0
1, 7680, Note_on_c, 0, 70, 56
1, 7680, Note_on_c, 0, 58, 47
1, 7840, Tempo, 263112
1, 7840, Note_on_c, 0, 73, 45
1, 7840, Note_on_c, 0, 61, 38
1, 7880, Note_on_c, 0, 58, 0
1, 7880, Note_on_c, 0, 70, 0
1, 8000, Tempo, 269530
1, 8000, Note_on_c, 0, 78, 49
1, 8000, Note_on_c, 0, 66, 40
1, 8040, Note_on_c, 0, 73, 0
1, 8040, Note_on_c, 0, 61, 0
1, 8160, Tempo, 268805
1, 8160, Note_on_c, 0, 77, 46
1, 8160, Note_on_c, 0, 65, 37
1, 8200, Note_on_c, 0, 78, 0
1, 8200, Note_on_c, 0, 66, 0
1, 8320, Tempo, 263112
1, 8320, Note_on_c, 0, 72, 45
1, 8320, Note_on_c, 0, 60, 38
1, 8360, Note_on_c, 0, 77, 0
1, 8360, Note_on_c, 0, 65, 0
1, 8480, Tempo, 268805
1, 8480, Note_on_c, 0, 73, 45
1, 8480, Note_on_c, 0, 61, 38
1, 8520, Note_on_c, 0, 72, 0
1, 8520, Note_on_c, 0, 60, 0
1, 8640, Note_on_c, 0, 73, 0
1, 8640, Note_on_c, 0, 61, 0
1, 8640, Note_on_c, 0, 76, 50
1, 8640, Note_on_c, 0, 64, 42
1, 8800, Tempo, 259000
1, 8800, Note_on_c, 0, 72, 46
1, 8800, Note_on_c, 0, 60, 39
1, 8960, Tempo, 265217
1, 8960, Note_on_c, 0, 60, 0
1, 8960, Note_on_c, 0, 76, 0
1, 8960, Note_on_c, 0, 64, 0
1, 8960, Note_on_c, 0, 72, 0
1, 8960, Note_on_c, 0, 73, 45
1, 8960, Note_on_c, 0, 61, 40
1, 9120, Note_on_c, 0, 69, 43
1, 9120, Note_on_c, 0, 57, 36
1, 9160, Note_on_c, 0, 61, 0
1, 9160, Note_on_c, 0, 73, 0
1, 9280, Tempo, 260349
1, 9280, Note_on_c, 0, 69, 0
1, 9280, Note_on_c, 0, 57, 0
1, 9280, Note_on_c, 0, 70, 47
1, 9280, Note_on_c, 0, 58, 39
1, 9440, Tempo, 268805
1, 9440, Note_on_c, 0, 66, 44
1, 9440, Note_on_c, 0, 54, 36
1, 9480, Note_on_c, 0, 58, 0
1, 9480, Note_on_c, 0, 70, 0
1, 9600, Note_on_c, 0, 66, 0
1, 9600, Note_on_c, 0, 54, 0
1, 9600, Note_on_c, 0, 64, 48
1, 9600, Note_on_c, 0, 52, 40
1, 9760, Tempo, 263112
1, 9760, Note_on_c, 0, 65, 44
1, 9760, Note_on_c, 0, 53, 37
1, 9800, Note_on_c, 0, 52, 0
1, 9800, Note_on_c, 0, 64, 0
1, 9920, Tempo, 267344
1, 9920, Note_on_c, 0, 70, 44
1, 9920, Note_on_c, 0, 58, 37
1, 9960, Note_on_c, 0, 65, 0
1, 9960, Note_on_c, 0, 53, 0
1, 10080, Tempo, 268805
1, 10080, Note_on_c, 0, 70, 0
1, 10080, Note_on_c, 0, 58, 0
1, 10080, Note_on_c, 0, 68, 45
1, 10080, Note_on_c, 0, 56, 39
1, 10240, Tempo, 259673
1, 10240, Note_on_c, 0, 69, 45
1, 10240, Note_on_c, 0, 57, 38
1, 10280, Note_on_c, 0, 56, 0
1, 10280, Note_on_c, 0, 68, 0
1, 10400, Tempo, 265922
1, 10400, Note_on_c, 0, 73, 45
1, 10400, Note_on_c, 0, 61, 38
1, 10440, Note_on_c, 0, 69, 0
1, 10440, Note_on_c, 0, 57, 0
1, 10560, Note_on_c, 0, 73, 0
1, 10560, Note_on_c, 0, 61, 0
1, 10560, Note_on_c, 0, 69, 47
1, 10560, Note_on_c, 0, 57, 41
1, 10720, Tempo, 256334
1, 10720, Note_on_c, 0, 70, 44
1, 10720, Note_on_c, 0, 58, 37
1, 10760, Note_on_c, 0, 57, 0
1, 10760, Note_on_c, 0, 69, 0
1, 10880, Tempo, 265217
1, 10880, Note_on_c, 0, 73, 45
1, 10880, Note_on_c, 0, 61, 38
1, 10920, Note_on_c, 0, 70, 0
1, 10920, Note_on_c, 0, 58, 0
1, 11040, Note_on_c, 0, 73, 0
1, 11040, Note_on_c, 0, 61, 0
1, 11040, Note_on_c, 0, 71, 46
1, 11040, Note_on_c, 0, 59, 39
1, 11200, Tempo, 257654
1, 11200, Note_on_c, 0, 72, 45
1, 11200, Note_on_c, 0, 60, 38
1, 11240, Note_on_c, 0, 59, 0
1, 11240, Note_on_c, 0, 71, 0
1, 11360, Tempo, 268805
1, 11360, Note_on_c, 0, 77, 45
1, 11360, Note_on_c, 0, 65, 38
1, 11400, Note_on_c, 0, 72, 0
1, 11400, Note_on_c, 0, 60, 0
1, 11520, Note_on_c, 0, 77, 0
1, 11520, Note_on_c, 0, 65, 0
1, 11520, Note_on_c, 0, 68, 48
1, 11520, Note_on_c, 0, 56, 40
1, 11680, Tempo, 259000
1, 11680, Note_on_c, 0, 71, 43
1, 11680, Note_on_c, 0, 59, 36
1, 11720, Note_on_c, 0, 56, 0
1, 11720, Note_on_c, 0, 68, 0
1, 11840, Tempo, 266631
1, 11840, Note_on_c, 0, 76, 45
1, 11840, Note_on_c, 0, 64, 38
1, 11880, Note_on_c, 0, 71, 0
1, 11880, Note_on_c, 0, 59, 0
1, 12000, Tempo, 268805
1, 12000, Note_on_c, 0, 75, 44
1, 12000, Note_on_c, 0, 63, 37
1, 12040, Note_on_c, 0, 76, 0
1, 12040, Note_on_c, 0, 64, 0
1, 12160, Tempo, 263112
1, 12160, Note_on_c, 0, 70, 40
1, 12160, Note_on_c, 0, 58, 34
1, 12200, Note_on_c, 0, 75, 0
1, 12200, Note_on_c, 0, 63, 0
1, 12320, Tempo, 268805
1, 12320, Note_on_c, 0, 71, 38
1, 12320, Note_on_c, 0, 59, 31
1, 12360, Note_on_c, 0, 70, 0
1, 12360, Note_on_c, 0, 58, 0
1, 12480, Note_on_c, 0, 71, 0
1, 12480, Note_on_c, 0, 59, 0
1, 12480, Note_on_c, 0, 74, 51
1, 12480, Note_on_c, 0, 62, 43
1, 12640, Tempo, 264504
1, 12640, Note_on_c, 0, 70, 43
1, 12640, Note_on_c, 0, 58, 36
1, 12800, Tempo, 268085
1, 12800, Note_on_c, 0, 62, 0
1, 12800, Note_on_c, 0, 74, 0
1, 12800, Note_on_c, 0, 71, 42
1, 12800, Note_on_c, 0, 59, 35
1, 12840, Note_on_c, 0, 70, 0
1, 12840, Note_on_c, 0, 58, 0
1, 12960, Note_on_c, 0, 67, 43
1, 12960, Note_on_c, 0, 55, 36
1, 13000, Note_on_c, 0, 71, 0
1, 13000, Note_on_c, 0, 59, 0
1, 13120, Tempo, 261723
1, 13120, Note_on_c, 0, 68, 45
1, 13120, Note_on_c, 0, 56, 38
1, 13280, Tempo, 268805
1, 13280, Note_on_c, 0, 67, 0
1, 13280, Note_on_c, 0, 55, 0
1, 13280, Note_on_c, 0, 64, 43
1, 13280, Note_on_c, 0, 52, 36
1, 13320, Note_on_c, 0, 68, 0
1, 13320, Note_on_c, 0, 56, 0
1, 13440, Note_on_c, 0, 64, 0
1, 13440, Note_on_c, 0, 52, 0
1, 13440, Note_on_c, 0, 62, 47
1, 13440, Note_on_c, 0, 50, 39
1, 13600, Tempo, 265217
1, 13600, Note_on_c, 0, 63, 41
1, 13600, Note_on_c, 0, 51, 34
1, 13760, Tempo, 268085
1, 13760, Note_on_c, 0, 50, 0
1, 13760, Note_on_c, 0, 62, 0
1, 13760, Note_on_c, 0, 68, 41
1, 13760, Note_on_c, 0, 56, 34
1, 13800, Note_on_c, 0, 63, 0
1, 13800, Note_on_c, 0, 51, 0
1, 13920, Tempo, 268805
1, 13920, Note_on_c, 0, 68, 0
1, 13920, Note_on_c, 0, 56, 0
1, 13920, Note_on_c, 0, 64, 44
1, 13920, Note_on_c, 0, 52, 36
1, 14080, Tempo, 259673
1, 14080, Note_on_c, 0, 65, 42
1, 14080, Note_on_c, 0, 53, 35
1, 14240, Tempo, 265217
1, 14240, Note_on_c, 0, 52, 0
1, 14240, Note_on_c, 0, 64, 0
1, 14240, Note_on_c, 0, 71, 42
1, 14240, Note_on_c, 0, 59, 35
1, 14280, Note_on_c, 0, 65, 0
1, 14280, Note_on_c, 0, 53, 0
1, 14400, Note_on_c, 0, 71, 0
1, 14400, Note_on_c, 0, 59, 0
1, 14400, Note_on_c, 0, 65, 47
1, 14400, Note_on_c, 0, 53, 39
1, 14560, Tempo, 256992
1, 14560, Note_on_c, 0, 66, 45
1, 14560, Note_on_c, 0, 54, 38
1, 14720, Tempo, 265217
1, 14720, Note_on_c, 0, 53, 0
1, 14720, Note_on_c, 0, 65, 0
1, 14720, Note_on_c, 0, 71, 43
1, 14720, Note_on_c, 0, 59, 36
1, 14760, Note_on_c, 0, 66, 0
1, 14760, Note_on_c, 0, 54, 0
1, 14880, Note_on_c, 0, 71, 0
1, 14880, Note_on_c, 0, 59, 0
1, 14880, Note_on_c, 0, 69, 45
1, 14880, Note_on_c, 0, 57, 37
1, 15040, Tempo, 258331
1, 15040, Note_on_c, 0, 70, 44
1, 15040, Note_on_c, 0, 58, 37
1, 15200, Tempo, 268805
1, 15200, Note_on_c, 0, 57, 0
1, 15200, Note_on_c, 0, 69, 0
1, 15200, Note_on_c, 0, 75, 44
1, 15200, Note_on_c, 0, 63, 37
1, 15240, Note_on_c, 0, 70, 0
1, 15240, Note_on_c, 0, 58, 0
1, 15360, Note_on_c, 0, 75, 0
1, 15360, Note_on_c, 0, 63, 0
1, 15360, Note_on_c, 0, 73, 51
1, 15360, Note_on_c, 0, 61, 43
1, 15520, Tempo, 263112
1, 15520, Note_on_c, 0, 65, 45
1, 15520, Note_on_c, 0, 53, 38
1, 15680, Tempo, 269530
1, 15680, Note_on_c, 0, 61, 0
1, 15680, Note_on_c, 0, 73, 0
1, 15680, Note_on_c, 0, 70, 41
1, 15680, Note_on_c, 0, 58, 34
1, 15720, Note_on_c, 0, 65, 0
1, 15720, Note_on_c, 0, 53, 0
1, 15840, Tempo, 268805
1, 15840, Note_on_c, 0, 61, 45
1, 15840, Note_on_c, 0, 49, 34
1, 15880, Note_on_c, 0, 70, 0
1, 15880, Note_on_c, 0, 58, 0
1, 16000, Tempo, 263112
1, 16000, Note_on_c, 0, 64, 43
1, 16000, Note_on_c, 0, 52, 36
1, 16160, Tempo, 276269
1, 16160, Note_on_c, 0, 61, 0
1, 16160, Note_on_c, 0, 49, 0
1, 16160, Note_on_c, 0, 69, 43
1, 16160, Note_on_c, 0, 57, 36
1, 16200, Note_on_c, 0, 64, 0
1, 16200, Note_on_c, 0, 52, 0
1, 16320, Tempo, 268085
1, 16320, Note_on_c, 0, 69, 0
1, 16320, Note_on_c, 0, 57, 0
1, 16320, Note_on_c, 0, 72, 45
1, 16320, Note_on_c, 0, 60, 38
1, 16480, Tempo, 264504
1, 16480, Note_on_c, 0, 63, 41
1, 16480, Note_on_c, 0, 51, 34
1, 16640, Tempo, 268085
1, 16640, Note_on_c, 0, 60, 0
1, 16640, Note_on_c, 0, 72, 0
1, 16640, Note_on_c, 0, 68, 42
1, 16640, Note_on_c, 0, 56, 35
1, 16680, Note_on_c, 0, 63, 0
1, 16680, Note_on_c, 0, 51, 0
1, 16800, Note_on_c, 0, 59, 42
1, 16800, Note_on_c, 0, 47, 34
1, 16840, Note_on_c, 0, 68, 0
1, 16840, Note_on_c, 0, 56, 0
1, 16960, Tempo, 261723
1, 16960, Note_on_c, 0, 62, 41
1, 16960, Note_on_c, 0, 50, 34
1, 17120, Tempo, 268805
1, 17120, Note_on_c, 0, 59, 0
1, 17120, Note_on_c, 0, 47, 0
1, 17120, Note_on_c, 0, 67, 42
1, 17120, Note_on_c, 0, 55, 35
1, 17160, Note_on_c, 0, 62, 0
1, 17160, Note_on_c, 0, 50, 0
1, 17280, Note_on_c, 0, 67, 0
1, 17280, Note_on_c, 0, 55, 0
1, 17280, Note_on_c, 0, 71, 53
1, 17280, Note_on_c, 0, 59, 45
1, 17440, Tempo, 263112
1, 17440, Note_on_c, 0, 62, 45
1, 17440, Note_on_c, 0, 50, 38
1, 17480, Note_on_c, 0, 59, 0
1, 17480, Note_on_c, 0, 71, 0
1, 17600, Tempo, 269530
1, 17600, Note_on_c, 0, 66, 45
1, 17600, Note_on_c, 0, 54, 38
1, 17640, Note_on_c, 0, 62, 0
1, 17640, Note_on_c, 0, 50, 0
1, 17760, Tempo, 268805
1, 17760, Note_on_c, 0, 58, 42
1, 17760, Note_on_c, 0, 46, 36
1, 17800, Note_on_c, 0, 66, 0
1, 17800, Note_on_c, 0, 54, 0
1, 17920, Tempo, 263112
1, 17920, Note_on_c, 0, 61, 42
1, 17920, Note_on_c, 0, 49, 35
1, 17960, Note_on_c, 0, 58, 0
1, 17960, Note_on_c, 0, 46, 0
1, 18080, Tempo, 268805
1, 18080, Note_on_c, 0, 66, 43
1, 18080, Note_on_c, 0, 54, 36
1, 18120, Note_on_c, 0, 61, 0
1, 18120, Note_on_c, 0, 49, 0
1, 18240, Note_on_c, 0, 66, 0
1, 18240, Note_on_c, 0, 54, 0
1, 18240, Note_on_c, 0, 70, 50
1, 18240, Note_on_c, 0, 58, 42
1, 18400, Tempo, 264504
1, 18400, Note_on_c, 0, 66, 45
1, 18400, Note_on_c, 0, 54, 38
1, 18440, Note_on_c, 0, 58, 0
1, 18440, Note_on_c, 0, 70, 0
1, 18560, Tempo, 268085
1, 18560, Note_on_c, 0, 71, 42
1, 18560, Note_on_c, 0, 59, 35
1, 18600, Note_on_c, 0, 66, 0
1, 18600, Note_on_c, 0, 54, 0
1, 18720, Tempo, 261040
1, 18720, Note_on_c, 0, 72, 46
1, 18720, Note_on_c, 0, 60, 39
1, 18760, Tempo, 260349
1, 18760, Note_on_c, 0, 71, 0
1, 18760, Note_on_c, 0, 59, 0
1, 18760, Control_c, 0, 64, 127
1, 18800, Tempo, 259673
1, 18840, Tempo, 259000
1, 18880, Tempo, 258331
1, 18880, Note_on_c, 0, 73, 51
1, 18880, Note_on_c, 0, 61, 43
1, 18920, Tempo, 257654
1, 18920, Note_on_c, 0, 72, 0
1, 18920, Note_on_c, 0, 60, 0
1, 18960, Tempo, 256992
1, 19000, Tempo, 256334
1, 19040, Tempo, 255667
1, 19040, Note_on_c, 0, 75, 54
1, 19040, Note_on_c, 0, 63, 45
1, 19080, Note_on_c, 0, 73, 0
1, 19080, Note_on_c, 0, 61, 0
1, 19200, Tempo, 266631
1, 19200, Note_on_c, 0, 75, 0
1, 19200, Note_on_c, 0, 63, 0
1, 19200, Note_on_c, 0, 76, 57
1, 19200, Note_on_c, 0, 64, 48
1, 19209, Control_c, 0, 64, 0
1, 19360, Tempo, 263112
1, 19360, Note_on_c, 0, 67, 45
1, 19360, Note_on_c, 0, 55, 38
1, 19400, Note_on_c, 0, 64, 0
1, 19400, Note_on_c, 0, 76, 0
1, 19520, Tempo, 269530
1, 19520, Note_on_c, 0, 72, 45
1, 19520, Note_on_c, 0, 60, 38
1, 19560, Note_on_c, 0, 67, 0
1, 19560, Note_on_c, 0, 55, 0
1, 19680, Tempo, 268805
1, 19680, Note_on_c, 0, 63, 43
1, 19680, Note_on_c, 0, 51, 34
1, 19720, Note_on_c, 0, 72, 0
1, 19720, Note_on_c, 0, 60, 0
1, 19840, Tempo, 263112
1, 19840, Note_on_c, 0, 66, 44
1, 19840, Note_on_c, 0, 54, 34
1, 20000, Tempo, 268805
1, 20000, Note_on_c, 0, 63, 0
1, 20000, Note_on_c, 0, 51, 0
1, 20000, Note_on_c, 0, 71, 44
1, 20000, Note_on_c, 0, 59, 34
1, 20040, Note_on_c, 0, 66, 0
1, 20040, Note_on_c, 0, 54, 0
1, 20160, Note_on_c, 0, 71, 0
1, 20160, Note_on_c, 0, 59, 0
1, 20160, Note_on_c, 0, 74, 48
1, 20160, Note_on_c, 0, 62, 40
1, 20320, Tempo, 256334
1, 20320, Note_on_c, 0, 65, 42
1, 20320, Note_on_c, 0, 53, 35
1, 20480, Tempo, 264504
1, 20480, Note_on_c, 0, 62, 0
1, 20480, Note_on_c, 0, 74, 0
1, 20480, Note_on_c, 0, 70, 43
1, 20480, Note_on_c, 0, 58, 36
1, 20520, Note_on_c, 0, 65, 0
1, 20520, Note_on_c, 0, 53, 0
1, 20640, Note_on_c, 0, 61, 43
1, 20640, Note_on_c, 0, 49, 36
1, 20680, Note_on_c, 0, 70, 0
1, 20680, Note_on_c, 0, 58, 0
1, 20800, Tempo, 261723
1, 20800, Note_on_c, 0, 64, 45
1, 20800, Note_on_c, 0, 52, 38
1, 20960, Tempo, 268805
1, 20960, Note_on_c, 0, 61, 0
1, 20960, Note_on_c, 0, 49, 0
1, 20960, Note_on_c, 0, 69, 45
1, 20960, Note_on_c, 0, 57, 38
1, 21000, Note_on_c, 0, 64, 0
1, 21000, Note_on_c, 0, 52, 0
1, 21120, Note_on_c, 0, 69, 0
1, 21120, Note_on_c, 0, 57, 0
1, 21120, Note_on_c, 0, 72, 49
1, 21120, Note_on_c, 0, 60, 41
1, 21280, Tempo, 263112
1, 21280, Note_on_c, 0, 64, 45
1, 21280, Note_on_c, 0, 52, 38
1, 21320, Note_on_c, 0, 60, 0
1, 21320, Note_on_c, 0, 72, 0
1, 21440, Tempo, 269530
1, 21440, Note_on_c, 0, 68, 45
1, 21440, Note_on_c, 0, 56, 38
1, 21480, Note_on_c, 0, 64, 0
1, 21480, Note_on_c, 0, 52, 0
1, 21600, Tempo, 268805
1, 21600, Note_on_c, 0, 59, 45
1, 21600, Note_on_c, 0, 47, 39
1, 21640, Note_on_c, 0, 68, 0
1, 21640, Note_on_c, 0, 56, 0
1, 21760, Tempo, 263112
1, 21760, Note_on_c, 0, 62, 43
1, 21760, Note_on_c, 0, 50, 36
1, 21800, Note_on_c, 0, 59, 0
1, 21800, Note_on_c, 0, 47, 0
1, 21920, Tempo, 268805
1, 21920, Note_on_c, 0, 67, 43
1, 21920, Note_on_c, 0, 55, 36
1, 21960, Note_on_c, 0, 62, 0
1, 21960, Note_on_c, 0, 50, 0
1, 22080, Note_on_c, 0, 67, 0
1, 22080, Note_on_c, 0, 55, 0
1, 22080, Note_on_c, 0, 71, 50
1, 22080, Note_on_c, 0, 59, 42
1, 22240, Tempo, 264504
1, 22240, Note_on_c, 0, 66, 45
1, 22240, Note_on_c, 0, 54, 38
1, 22280, Note_on_c, 0, 59, 0
1, 22280, Note_on_c, 0, 71, 0
1, 22400, Tempo, 268085
1, 22400, Note_on_c, 0, 73, 45
1, 22400, Note_on_c, 0, 61, 38
1, 22440, Note_on_c, 0, 66, 0
1, 22440, Note_on_c, 0, 54, 0
1, 22560, Tempo, 259000
1, 22560, Note_on_c, 0, 74, 50
1, 22560, Note_on_c, 0, 62, 42
1, 22595, Control_c, 0, 64, 127
1, 22600, Tempo, 258331
1, 22600, Note_on_c, 0, 73, 0
1, 22600, Note_on_c, 0, 61, 0
1, 22640, Tempo, 257654
1, 22680, Tempo, 256334
1, 22720, Tempo, 255667
1, 22720, Note_on_c, 0, 75, 52
1, 22720, Note_on_c, 0, 63, 44
1, 22760, Tempo, 255015
1, 22760, Note_on_c, 0, 74, 0
1, 22760, Note_on_c, 0, 62, 0
1, 22800, Tempo, 253711
1, 22840, Tempo, 253068
1, 22880, Tempo, 251794
1, 22880, Note_on_c, 0, 76, 54
1, 22880, Note_on_c, 0, 64, 45
1, 22920, Note_on_c, 0, 75, 0
1, 22920, Note_on_c, 0, 63, 0
1, 23040, Tempo, 265922
1, 23040, Note_on_c, 0, 76, 0
1, 23040, Note_on_c, 0, 64, 0
1, 23040, Note_on_c, 0, 77, 56
1, 23040, Note_on_c, 0, 65, 47
1, 23053, Control_c, 0, 64, 0
1, 23200, Tempo, 263112
1, 23200, Note_on_c, 0, 69, 45
1, 23200, Note_on_c, 0, 57, 38
1, 23240, Note_on_c, 0, 65, 0
1, 23240, Note_on_c, 0, 77, 0
1, 23360, Tempo, 276269
1, 23360, Note_on_c, 0, 75, 45
1, 23360, Note_on_c, 0, 63, 38
1, 23400, Note_on_c, 0, 69, 0
1, 23400, Note_on_c, 0, 57, 0
1, 23520, Tempo, 253711
1, 23520, Note_on_c, 0, 76, 54
1, 23520, Note_on_c, 0, 64, 45
1, 23560, Note_on_c, 0, 75, 0
1, 23560, Note_on_c, 0, 63, 0
1, 23583, Control_c, 0, 64, 127
1, 23600, Tempo, 253068
1, 23640, Tempo, 252430
1, 23680, Tempo, 251794
1, 23680, Note_on_c, 0, 77, 53
1, 23680, Note_on_c, 0, 65, 45
1, 23720, Note_on_c, 0, 76, 0
1, 23720, Note_on_c, 0, 64, 0
1, 23760, Tempo, 251151
1, 23800, Tempo, 250522
1, 23840, Tempo, 265922
1, 23840, Note_on_c, 0, 78, 56
1, 23840, Note_on_c, 0, 66, 47
1, 23880, Note_on_c, 0, 77, 0
1, 23880, Note_on_c, 0, 65, 0
1, 24000, Note_on_c, 0, 78, 0
1, 24000, Note_on_c, 0, 66, 0
1, 24000, Note_on_c, 0, 77, 61
1, 24000, Note_on_c, 0, 65, 51
1, 24016, Control_c, 0, 64, 0
1, 24160, Tempo, 264504
1, 24160, Note_on_c, 0, 70, 46
1, 24160, Note_on_c, 0, 58, 39
1, 24200, Note_on_c, 0, 65, 0
1, 24200, Note_on_c, 0, 77, 0
1, 24320, Tempo, 268085
1, 24320, Note_on_c, 0, 73, 50
1, 24320, Note_on_c, 0, 61, 42
1, 24360, Note_on_c, 0, 70, 0
1, 24360, Note_on_c, 0, 58, 0
1, 24480, Tempo, 253711
1, 24480, Note_on_c, 0, 76, 55
1, 24480, Note_on_c, 0, 64, 46
1, 24520, Note_on_c, 0, 73, 0
1, 24520, Note_on_c, 0, 61, 0
1, 24523, Control_c, 0, 64, 127
1, 24560, Tempo, 253068
1, 24600, Tempo, 252430
1, 24640, Tempo, 251794
1, 24640, Note_on_c, 0, 77, 57
1, 24640, Note_on_c, 0, 65, 48
1, 24680, Note_on_c, 0, 76, 0
1, 24680, Note_on_c, 0, 64, 0
1, 24720, Tempo, 251151
1, 24760, Tempo, 250522
1, 24800, Tempo, 265922
1, 24800, Note_on_c, 0, 78, 59
1, 24800, Note_on_c, 0, 66, 50
1, 24840, Note_on_c, 0, 77, 0
1, 24840, Note_on_c, 0, 65, 0
1, 24960, Note_on_c, 0, 78, 0
1, 24960, Note_on_c, 0, 66, 0
1, 24960, Note_on_c, 0, 79, 64
1, 24960, Note_on_c, 0, 67, 54
1, 24967, Control_c, 0, 64, 0
1, 25000, Tempo, 260349
1, 25120, Tempo, 255667
1, 25120, Note_on_c, 0, 71, 47
1, 25120, Note_on_c, 0, 59, 39
1, 25160, Note_on_c, 0, 67, 0
1, 25160, Note_on_c, 0, 79, 0
1, 25280, Tempo, 262410
1, 25280, Note_on_c, 0, 77, 54
1, 25280, Note_on_c, 0, 65, 45
1, 25320, Note_on_c, 0, 71, 0
1, 25320, Note_on_c, 0, 59, 0
1, 25440, Tempo, 253068
1, 25440, Note_on_c, 0, 78, 60
1, 25440, Note_on_c, 0, 66, 51
1, 25463, Control_c, 0, 64, 127
1, 25480, Note_on_c, 0, 77, 0
1, 25480, Note_on_c, 0, 65, 0
1, 25520, Tempo, 252430
1, 25560, Tempo, 251794
1, 25600, Tempo, 251151
1, 25600, Note_on_c, 0, 79, 60
1, 25600, Note_on_c, 0, 67, 51
1, 25640, Tempo, 250522
1, 25640, Note_on_c, 0, 78, 0
1, 25640, Note_on_c, 0, 66, 0
1, 25680, Tempo, 249896
1, 25720, Tempo, 249263
1, 25760, Tempo, 261040
1, 25760, Note_on_c, 0, 80, 65
1, 25760, Note_on_c, 0, 68, 55
1, 25800, Note_on_c, 0, 79, 0
1, 25800, Note_on_c, 0, 67, 0
1, 25920, Note_on_c, 0, 80, 0
1, 25920, Note_on_c, 0, 68, 0
1, 25920, Note_on_c, 0, 79, 68
1, 25920, Note_on_c, 0, 67, 57
1, 25930, Control_c, 0, 64, 0
1, 26080, Tempo, 264504
1, 26080, Note_on_c, 0, 72, 51
1, 26080, Note_on_c, 0, 60, 43
1, 26120, Note_on_c, 0, 67, 0
1, 26120, Note_on_c, 0, 79, 0
1, 26240, Tempo, 268085
1, 26240, Note_on_c, 0, 75, 60
1, 26240, Note_on_c, 0, 63, 51
1, 26280, Note_on_c, 0, 72, 0
1, 26280, Note_on_c, 0, 60, 0
1, 26383, Control_c, 0, 64, 127
1, 26400, Tempo, 262410
1, 26400, Note_on_c, 0, 78, 64
1, 26400, Note_on_c, 0, 66, 54
1, 26440, Tempo, 261723
1, 26440, Note_on_c, 0, 75, 0
1, 26440, Note_on_c, 0, 63, 0
1, 26480, Tempo, 261040
1, 26520, Tempo, 260349
1, 26560, Tempo, 259673
1, 26560, Note_on_c, 0, 79, 67
1, 26560, Note_on_c, 0, 67, 56
1, 26600, Tempo, 259000
1, 26600, Note_on_c, 0, 78, 0
1, 26600, Note_on_c, 0, 66, 0
1, 26640, Tempo, 258331
1, 26680, Tempo, 257654
1, 26720, Tempo, 265922
1, 26720, Note_on_c, 0, 80, 68
1, 26720, Note_on_c, 0, 68, 57
1, 26760, Note_on_c, 0, 79, 0
1, 26760, Note_on_c, 0, 67, 0
1, 26880, Note_on_c, 0, 80, 0
1, 26880, Note_on_c, 0, 68, 0
1, 26880, Note_on_c, 0, 75, 68
1, 26880, Note_on_c, 0, 63, 57
1, 26893, Control_c, 0, 64, 0
1, 27040, Tempo, 256992
1, 27040, Note_on_c, 0, 72, 58
1, 27040, Note_on_c, 0, 60, 49
1, 27200, Tempo, 265922
1, 27200, Note_on_c, 0, 63, 0
1, 27200, Note_on_c, 0, 75, 0
1, 27200, Note_on_c, 0, 77, 51
1, 27200, Note_on_c, 0, 65, 43
1, 27240, Note_on_c, 0, 72, 0
1, 27240, Note_on_c, 0, 60, 0
1, 27360, Tempo, 268805
1, 27360, Note_on_c, 0, 75, 53
1, 27360, Note_on_c, 0, 63, 43
1, 27400, Note_on_c, 0, 77, 0
1, 27400, Note_on_c, 0, 65, 0
1, 27520, Tempo, 259000
1, 27520, Note_on_c, 0, 68, 49
1, 27520, Note_on_c, 0, 56, 41
1, 27680, Tempo, 266631
1, 27680, Note_on_c, 0, 75, 0
1, 27680, Note_on_c, 0, 63, 0
1, 27680, Note_on_c, 0, 73, 52
1, 27680, Note_on_c, 0, 61, 44
1, 27720, Note_on_c, 0, 68, 0
1, 27720, Note_on_c, 0, 56, 0
1, 27840, Note_on_c, 0, 73, 0
1, 27840, Note_on_c, 0, 61, 0
1, 27840, Note_on_c, 0, 72, 57
1, 27840, Note_on_c, 0, 60, 48
1, 28000, Tempo, 260349
1, 28000, Note_on_c, 0, 63, 45
1, 28000, Note_on_c, 0, 51, 38
1, 28160, Tempo, 268085
1, 28160, Note_on_c, 0, 60, 0
1, 28160, Note_on_c, 0, 72, 0
1, 28160, Note_on_c, 0, 70, 47
1, 28160, Note_on_c, 0, 58, 39
1, 28200, Note_on_c, 0, 63, 0
1, 28200, Note_on_c, 0, 51, 0
1, 28320, Note_on_c, 0, 68, 50
1, 28320, Note_on_c, 0, 56, 41
1, 28360, Note_on_c, 0, 70, 0
1, 28360, Note_on_c, 0, 58, 0
1, 28480, Tempo, 261723
1, 28480, Note_on_c, 0, 60, 47
1, 28480, Note_on_c, 0, 48, 39
1, 28640, Tempo, 268805
1, 28640, Note_on_c, 0, 68, 0
1, 28640, Note_on_c, 0, 56, 0
1, 28640, Note_on_c, 0, 65, 47
1, 28640, Note_on_c, 0, 53, 39
1, 28680, Note_on_c, 0, 60, 0
1, 28680, Note_on_c, 0, 48, 0
1, 28800, Note_on_c, 0, 65, 0
1, 28800, Note_on_c, 0, 53, 0
1, 28800, Note_on_c, 0, 63, 56
1, 28800, Note_on_c, 0, 51, 47
1, 28960, Tempo, 263112
1, 28960, Note_on_c, 0, 56, 45
1, 28960, Note_on_c, 0, 44, 38
1, 29000, Note_on_c, 0, 51, 0
1, 29000, Note_on_c, 0, 63, 0
1, 29120, Tempo, 269530
1, 29120, Note_on_c, 0, 61, 45
1, 29120, Note_on_c, 0, 49, 38
1, 29160, Note_on_c, 0, 56, 0
1, 29160, Note_on_c, 0, 44, 0
1, 29280, Tempo, 268805
1, 29280, Note_on_c, 0, 60, 45
1, 29280, Note_on_c, 0, 48, 36
1, 29320, Note_on_c, 0, 61, 0
1, 29320, Note_on_c, 0, 49, 0
1, 29440, Tempo, 263112
1, 29440, Note_on_c, 0, 55, 42
1, 29440, Note_on_c, 0, 43, 35
1, 29480, Note_on_c, 0, 60, 0
1, 29480, Note_on_c, 0, 48, 0
1, 29600, Tempo, 268805
1, 29600, Note_on_c, 0, 56, 43
1, 29600, Note_on_c, 0, 44, 36
1, 29640, Note_on_c, 0, 55, 0
1, 29640, Note_on_c, 0, 43, 0
1, 29760, Note_on_c, 0, 56, 0
1, 29760, Note_on_c, 0, 44, 0
1, 29760, Note_on_c, 0, 60, 47
1, 29760, Note_on_c, 0, 48, 39
1, 29920, Tempo, 264504
1, 29920, Note_on_c, 0, 54, 39
1, 29920, Note_on_c, 0, 42, 33
1, 29960, Note_on_c, 0, 48, 0
1, 29960, Note_on_c, 0, 60, 0
1, 30080, Tempo, 268085
1, 30080, Note_on_c, 0, 62, 38
1, 30080, Note_on_c, 0, 50, 32
1, 30120, Note_on_c, 0, 54, 0
1, 30120, Note_on_c, 0, 42, 0
1, 30240, Note_on_c, 0, 60, 40
1, 30240, Note_on_c, 0, 48, 34
1, 30280, Note_on_c, 0, 62, 0
1, 30280, Note_on_c, 0, 50, 0
1, 30400, Tempo, 261723
1, 30400, Note_on_c, 0, 53, 39
1, 30400, Note_on_c, 0, 41, 33
1, 30440, Note_on_c, 0, 60, 0
1, 30440, Note_on_c, 0, 48, 0
1, 30560, Tempo, 268805
1, 30560, Note_on_c, 0, 54, 37
1, 30560, Note_on_c, 0, 42, 29
1, 30600, Note_on_c, 0, 53, 0
1, 30600, Note_on_c, 0, 41, 0
1, 30720, Tempo, 255667
1, 30720, Note_on_c, 0, 54, 0
1, 30720, Note_on_c, 0, 42, 0
1, 30720, Note_on_c, 0, 55, 42
1, 30720, Note_on_c, 0, 43, 35
1, 30760, Tempo, 256992
1, 30800, Tempo, 257654
1, 30840, Tempo, 258331
1, 30880, Tempo, 259000
1, 30880, Note_on_c, 0, 57, 38
1, 30880, Note_on_c, 0, 45, 32
1, 30920, Tempo, 259673
1, 30920, Note_on_c, 0, 43, 0
1, 30920, Note_on_c, 0, 55, 0
1, 30960, Tempo, 260349
1, 31000, Tempo, 261040
1, 31040, Tempo, 261723
1, 31040, Note_on_c, 0, 59, 35
1, 31040, Note_on_c, 0, 47, 29
1, 31080, Tempo, 262410
1, 31080, Note_on_c, 0, 57, 0
1, 31080, Note_on_c, 0, 45, 0
1, 31120, Tempo, 263112
1, 31160, Tempo, 263806
1, 31200, Tempo, 264504
1, 31200, Note_on_c, 0, 60, 36
1, 31200, Note_on_c, 0, 48, 33
1, 31240, Tempo, 265217
1, 31240, Note_on_c, 0, 59, 0
1, 31240, Note_on_c, 0, 47, 0
1, 31280, Tempo, 265922
1, 31320, Tempo, 266631
1, 31360, Tempo, 267344
1, 31360, Note_on_c, 0, 62, 38
1, 31360, Note_on_c, 0, 50, 32
1, 31400, Tempo, 268085
1, 31400, Note_on_c, 0, 60, 0
1, 31400, Note_on_c, 0, 48, 0
1, 31440, Tempo, 268805
1, 31480, Tempo, 269530
1, 31520, Tempo, 271003
1, 31520, Note_on_c, 0, 63, 42
1, 31520, Note_on_c, 0, 51, 35
1, 31560, Note_on_c, 0, 62, 0
1, 31560, Note_on_c, 0, 50, 0
1, 31680, Tempo, 257654
1, 31680, Note_on_c, 0, 63, 0
1, 31680, Note_on_c, 0, 51, 0
1, 31680, Note_on_c, 0, 56, 45
1, 31680, Note_on_c, 0, 44, 38
1, 31760, Tempo, 258331
1, 31800, Tempo, 259000
1, 31840, Tempo, 259673
1, 31840, Note_on_c, 0, 58, 36
1, 31840, Note_on_c, 0, 46, 30
1, 31880, Tempo, 260349
1, 31880, Note_on_c, 0, 44, 0
1, 31880, Note_on_c, 0, 56, 0
1, 31920, Tempo, 261040
1, 31960, Tempo, 261723
1, 32000, Tempo, 262410
1, 32000, Note_on_c, 0, 59, 34
1, 32000, Note_on_c, 0, 47, 28
1, 32040, Tempo, 263112
1, 32040, Note_on_c, 0, 58, 0
1, 32040, Note_on_c, 0, 46, 0
1, 32080, Tempo, 263806
1, 32160, Tempo, 264504
1, 32160, Note_on_c, 0, 60, 38
1, 32160, Note_on_c, 0, 48, 32
1, 32200, Tempo, 265217
1, 32200, Note_on_c, 0, 59, 0
1, 32200, Note_on_c, 0, 47, 0
1, 32240, Tempo, 265922
1, 32280, Tempo, 266631
1, 32320, Tempo, 267344
1, 32320, Note_on_c, 0, 61, 37
1, 32320, Note_on_c, 0, 49, 32
1, 32360, Tempo, 268085
1, 32360, Note_on_c, 0, 60, 0
1, 32360, Note_on_c, 0, 48, 0
1, 32400, Tempo, 268805
1, 32440, Tempo, 269530
1, 32480, Tempo, 270270
1, 32480, Note_on_c, 0, 63, 37
1, 32480, Note_on_c, 0, 51, 31
1, 32520, Note_on_c, 0, 61, 0
1, 32520, Note_on_c, 0, 49, 0
1, 32640, Tempo, 258331
1, 32640, Note_on_c, 0, 63, 0
1, 32640, Note_on_c, 0, 51, 0
1, 32640, Note_on_c, 0, 57, 48
1, 32640, Note_on_c, 0, 45, 40
1, 32720, Tempo, 259000
1, 32760, Tempo, 259673
1, 32800, Tempo, 260349
1, 32800, Note_on_c, 0, 58, 41
1, 32800, Note_on_c, 0, 46, 34
1, 32840, Tempo, 261040
1, 32840, Note_on_c, 0, 45, 0
1, 32840, Note_on_c, 0, 57, 0
1, 32880, Tempo, 261723
1, 32920, Tempo, 262410
1, 32960, Tempo, 263112
1, 32960, Note_on_c, 0, 60, 38
1, 32960, Note_on_c, 0, 48, 32
1, 33000, Tempo, 263806
1, 33000, Note_on_c, 0, 58, 0
1, 33000, Note_on_c, 0, 46, 0
1, 33040, Tempo, 264504
1, 33080, Tempo, 265217
1, 33120, Tempo, 265922
1, 33120, Note_on_c, 0, 61, 43
1, 33120, Note_on_c, 0, 49, 36
1, 33160, Tempo, 266631
1, 33160, Note_on_c, 0, 60, 0
1, 33160, Note_on_c, 0, 48, 0
1, 33200, Tempo, 267344
1, 33240, Tempo, 268085
1, 33280, Tempo, 268805
1, 33280, Note_on_c, 0, 63, 41
1, 33280, Note_on_c, 0, 51, 34
1, 33320, Tempo, 269530
1, 33320, Note_on_c, 0, 61, 0
1, 33320, Note_on_c, 0, 49, 0
1, 33360, Tempo, 270270
1, 33400, Tempo, 271003
1, 33440, Tempo, 271739
1, 33440, Note_on_c, 0, 65, 42
1, 33440, Note_on_c, 0, 53, 35
1, 33480, Note_on_c, 0, 63, 0
1, 33480, Note_on_c, 0, 51, 0
1, 33600, Tempo, 259000
1, 33600, Note_on_c, 0, 65, 0
1, 33600, Note_on_c, 0, 53, 0
1, 33600, Note_on_c, 0, 58, 48
1, 33600, Note_on_c, 0, 46, 40
1, 33680, Tempo, 259673
1, 33760, Tempo, 260349
1, 33760, Note_on_c, 0, 59, 38
1, 33760, Note_on_c, 0, 47, 32
1, 33800, Tempo, 261040
1, 33800, Note_on_c, 0, 46, 0
1, 33800, Note_on_c, 0, 58, 0
1, 33880, Tempo, 261723
1, 33920, Tempo, 262410
1, 33920, Note_on_c, 0, 60, 39
1, 33920, Note_on_c, 0, 48, 33
1, 33960, Note_on_c, 0, 59, 0
1, 33960, Note_on_c, 0, 47, 0
1, 34000, Tempo, 263112
1, 34040, Tempo, 263806
1, 34080, Note_on_c, 0, 61, 43
1, 34080, Note_on_c, 0, 49, 36
1, 34120, Tempo, 264504
1, 34120, Note_on_c, 0, 60, 0
1, 34120, Note_on_c, 0, 48, 0
1, 34160, Tempo, 265217
1, 34240, Tempo, 265922
1, 34240, Note_on_c, 0, 63, 39
1, 34240, Note_on_c, 0, 51, 33
1, 34280, Tempo, 266631
1, 34280, Note_on_c, 0, 61, 0
1, 34280, Note_on_c, 0, 49, 0
1, 34360, Tempo, 267344
1, 34400, Tempo, 268085
1, 34400, Note_on_c, 0, 65, 43
1, 34400, Note_on_c, 0, 53, 36
1, 34440, Note_on_c, 0, 63, 0
1, 34440, Note_on_c, 0, 51, 0
1, 34560, Tempo, 269530
1, 34560, Note_on_c, 0, 65, 0
1, 34560, Note_on_c, 0, 53, 0
1, 34560, Note_on_c, 0, 60, 51
1, 34560, Note_on_c, 0, 48, 43
1, 34680, Tempo, 268805
1, 34720, Note_on_c, 0, 61, 43
1, 34720, Note_on_c, 0, 49, 36
1, 34760, Tempo, 268085
1, 34760, Note_on_c, 0, 48, 0
1, 34760, Note_on_c, 0, 60, 0
1, 34840, Tempo, 267344
1, 34880, Note_on_c, 0, 62, 39
1, 34880, Note_on_c, 0, 50, 33
1, 34920, Tempo, 266631
1, 34920, Note_on_c, 0, 61, 0
1, 34920, Note_on_c, 0, 49, 0
1, 35000, Tempo, 265922
1, 35040, Note_on_c, 0, 63, 44
1, 35040, Note_on_c, 0, 51, 37
1, 35080, Tempo, 265217
1, 35080, Note_on_c, 0, 62, 0
1, 35080, Note_on_c, 0, 50, 0
1, 35160, Tempo, 264504
1, 35200, Note_on_c, 0, 65, 43
1, 35200, Note_on_c, 0, 53, 36
1, 35240, Tempo, 263806
1, 35240, Note_on_c, 0, 63, 0
1, 35240, Note_on_c, 0, 51, 0
1, 35320, Tempo, 263112
1, 35360, Tempo, 268805
1, 35360, Note_on_c, 0, 66, 45
1, 35360, Note_on_c, 0, 54, 38
1, 35400, Note_on_c, 0, 65, 0
1, 35400, Note_on_c, 0, 53, 0
1, 35520, Note_on_c, 0, 66, 0
1, 35520, Note_on_c, 0, 54, 0
1, 35520, Note_on_c, 0, 57, 51
1, 35520, Note_on_c, 0, 45, 43
1, 35560, Tempo, 268805
1, 35640, Tempo, 268085
1, 35680, Note_on_c, 0, 61, 43
1, 35680, Note_on_c, 0, 49, 36
1, 35720, Tempo, 267344
1, 35720, Note_on_c, 0, 45, 0
1, 35720, Note_on_c, 0, 57, 0
1, 35760, Tempo, 266631
1, 35840, Tempo, 265922
1, 35840, Note_on_c, 0, 62, 43
1, 35840, Note_on_c, 0, 50, 36
1, 35880, Note_on_c, 0, 61, 0
1, 35880, Note_on_c, 0, 49, 0
1, 35920, Tempo, 265217
1, 35960, Tempo, 264504
1, 36000, Note_on_c, 0, 63, 47
1, 36000, Note_on_c, 0, 51, 39
1, 36040, Tempo, 263806
1, 36040, Note_on_c, 0, 62, 0
1, 36040, Note_on_c, 0, 50, 0
1, 36120, Tempo, 263112
1, 36160, Tempo, 262410
1, 36160, Note_on_c, 0, 65, 45
1, 36160, Note_on_c, 0, 53, 38
1, 36200, Note_on_c, 0, 63, 0
1, 36200, Note_on_c, 0, 51, 0
1, 36240, Tempo, 261723
1, 36280, Tempo, 261040
1, 36320, Tempo, 268805
1, 36320, Note_on_c, 0, 66, 48
1, 36320, Note_on_c, 0, 54, 40
1, 36360, Note_on_c, 0, 65, 0
1, 36360, Note_on_c, 0, 53, 0
1, 36480, Note_on_c, 0, 66, 0
1, 36480, Note_on_c, 0, 54, 0
1, 36480, Note_on_c, 0, 69, 59
1, 36480, Note_on_c, 0, 57, 50
1, 36640, Tempo, 256334
1, 36640, Note_on_c, 0, 66, 48
1, 36640, Note_on_c, 0, 54, 40
1, 36680, Note_on_c, 0, 57, 0
1, 36680, Note_on_c, 0, 69, 0
1, 36800, Tempo, 264504
1, 36800, Note_on_c, 0, 64, 48
1, 36800, Note_on_c, 0, 52, 40
1, 36840, Note_on_c, 0, 66, 0
1, 36840, Note_on_c, 0, 54, 0
1, 36960, Tempo, 265922
1, 36960, Note_on_c, 0, 62, 49
1, 36960, Note_on_c, 0, 50, 41
1, 37000, Note_on_c, 0, 64, 0
1, 37000, Note_on_c, 0, 52, 0
1, 37120, Tempo, 259000
1, 37120, Note_on_c, 0, 64, 45
1, 37120, Note_on_c, 0, 52, 38
1, 37160, Note_on_c, 0, 62, 0
1, 37160, Note_on_c, 0, 50, 0
1, 37280, Tempo, 268805
1, 37280, Note_on_c, 0, 66, 46
1, 37280, Note_on_c, 0, 54, 39
1, 37320, Note_on_c, 0, 64, 0
1, 37320, Note_on_c, 0, 52, 0
1, 37440, Note_on_c, 0, 66, 0
1, 37440, Note_on_c, 0, 54, 0
1, 37440, Note_on_c, 0, 57, 51
1, 37440, Note_on_c, 0, 45, 43
1, 37600, Tempo, 264504
1, 37600, Note_on_c, 0, 61, 43
1, 37600, Note_on_c, 0, 49, 36
1, 37640, Note_on_c, 0, 45, 0
1, 37640, Note_on_c, 0, 57, 0
1, 37760, Tempo, 268085
1, 37760, Note_on_c, 0, 62, 41
1, 37760, Note_on_c, 0, 50, 34
1, 37800, Note_on_c, 0, 61, 0
1, 37800, Note_on_c, 0, 49, 0
1, 37920, Note_on_c, 0, 64, 45
1, 37920, Note_on_c, 0, 52, 38
1, 37960, Note_on_c, 0, 62, 0
1, 37960, Note_on_c, 0, 50, 0
1, 38080, Tempo, 261723
1, 38080, Note_on_c, 0, 65, 40
1, 38080, Note_on_c, 0, 53, 34
1, 38120, Note_on_c, 0, 64, 0
1, 38120, Note_on_c, 0, 52, 0
1, 38240, Tempo, 268805
1, 38240, Note_on_c, 0, 66, 45
1, 38240, Note_on_c, 0, 54, 38
1, 38280, Note_on_c, 0, 65, 0
1, 38280, Note_on_c, 0, 53, 0
1, 38400, Note_on_c, 0, 66, 0
1, 38400, Note_on_c, 0, 54, 0
1, 38400, Note_on_c, 0, 69, 51
1, 38400, Note_on_c, 0, 57, 43
1, 38560, Tempo, 258331
1, 38560, Note_on_c, 0, 68, 44
1, 38560, Note_on_c, 0, 56, 37
1, 38600, Note_on_c, 0, 57, 0
1, 38600, Note_on_c, 0, 69, 0
1, 38720, Tempo, 265922
1, 38720, Note_on_c, 0, 67, 40
1, 38720, Note_on_c, 0, 55, 34
1, 38760, Note_on_c, 0, 68, 0
1, 38760, Note_on_c, 0, 56, 0
1, 38880, Tempo, 266631
1, 38880, Note_on_c, 0, 66, 46
1, 38880, Note_on_c, 0, 54, 39
1, 38920, Note_on_c, 0, 67, 0
1, 38920, Note_on_c, 0, 55, 0
1, 39040, Tempo, 259673
1, 39040, Note_on_c, 0, 63, 43
1, 39040, Note_on_c, 0, 51, 36
1, 39080, Note_on_c, 0, 66, 0
1, 39080, Note_on_c, 0, 54, 0
1, 39200, Tempo, 268805
1, 39200, Note_on_c, 0, 60, 44
1, 39200, Note_on_c, 0, 48, 37
1, 39240, Note_on_c, 0, 63, 0
1, 39240, Note_on_c, 0, 51, 0
1, 39360, Note_on_c, 0, 60, 0
1, 39360, Note_on_c, 0, 48, 0
1, 39360, Note_on_c, 0, 66, 49
1, 39360, Note_on_c, 0, 54, 41
1, 39520, Tempo, 264504
1, 39520, Note_on_c, 0, 63, 43
1, 39520, Note_on_c, 0, 51, 36
1, 39560, Note_on_c, 0, 54, 0
1, 39560, Note_on_c, 0, 66, 0
1, 39680, Tempo, 268085
1, 39680, Note_on_c, 0, 60, 43
1, 39680, Note_on_c, 0, 48, 36
1, 39720, Note_on_c, 0, 63, 0
1, 39720, Note_on_c, 0, 51, 0
1, 39840, Note_on_c, 0, 58, 45
1, 39840, Note_on_c, 0, 46, 38
1, 39880, Note_on_c, 0, 60, 0
1, 39880, Note_on_c, 0, 48, 0
1, 40000, Tempo, 261723
1, 40000, Note_on_c, 0, 57, 44
1, 40000, Note_on_c, 0, 45, 37
1, 40040, Note_on_c, 0, 58, 0
1, 40040, Note_on_c, 0, 46, 0
1, 40160, Tempo, 268805
1, 40160, Note_on_c, 0, 56, 43
1, 40160, Note_on_c, 0, 44, 36
1, 40200, Note_on_c, 0, 57, 0
1, 40200, Note_on_c, 0, 45, 0
1, 40320, Note_on_c, 0, 56, 0
1, 40320, Note_on_c, 0, 44, 0
1, 40320, Note_on_c, 0, 55, 46
1, 40320, Note_on_c, 0, 43, 39
1, 40480, Tempo, 259000
1, 40480, Note_on_c, 0, 56, 39
1, 40480, Note_on_c, 0, 44, 33
1, 40520, Note_on_c, 0, 43, 0
1, 40520, Note_on_c, 0, 55, 0
1, 40640, Tempo, 265217
1, 40640, Note_on_c, 0, 57, 39
1, 40640, Note_on_c, 0, 45, 33
1, 40680, Note_on_c, 0, 56, 0
1, 40680, Note_on_c, 0, 44, 0
1, 40800, Note_on_c, 0, 53, 39
1, 40800, Note_on_c, 0, 41, 35
1, 40840, Note_on_c, 0, 57, 0
1, 40840, Note_on_c, 0, 45, 0
1, 40960, Tempo, 261040
1, 40960, Note_on_c, 0, 54, 39
1, 40960, Note_on_c, 0, 42, 33
1, 41000, Note_on_c, 0, 53, 0
1, 41000, Note_on_c, 0, 41, 0
1, 41120, Tempo, 268805
1, 41120, Note_on_c, 0, 56, 39
1, 41120, Note_on_c, 0, 44, 33
1, 41160, Note_on_c, 0, 54, 0
1, 41160, Note_on_c, 0, 42, 0
1, 41280, Note_on_c, 0, 56, 0
1, 41280, Note_on_c, 0, 44, 0
1, 41280, Note_on_c, 0, 52, 44
1, 41280, Note_on_c, 0, 40, 37
1, 41440, Tempo, 261723
1, 41440, Note_on_c, 0, 53, 38
1, 41440, Note_on_c, 0, 41, 32
1, 41480, Note_on_c, 0, 40, 0
1, 41480, Note_on_c, 0, 52, 0
1, 41600, Tempo, 268085
1, 41600, Note_on_c, 0, 54, 37
1, 41600, Note_on_c, 0, 42, 31
1, 41640, Note_on_c, 0, 53, 0
1, 41640, Note_on_c, 0, 41, 0
1, 41760, Note_on_c, 0, 50, 38
1, 41760, Note_on_c, 0, 38, 30
1, 41800, Note_on_c, 0, 54, 0
1, 41800, Note_on_c, 0, 42, 0
1, 41920, Tempo, 261723
1, 41920, Note_on_c, 0, 51, 36
1, 41920, Note_on_c, 0, 39, 30
1, 41960, Note_on_c, 0, 50, 0
1, 41960, Note_on_c, 0, 38, 0
1, 42080, Tempo, 268805
1, 42080, Note_on_c, 0, 53, 36
1, 42080, Note_on_c, 0, 41, 30
1, 42120, Note_on_c, 0, 51, 0
1, 42120, Note_on_c, 0, 39, 0
1, 42240, Tempo, 271739
1, 42240, Note_on_c, 0, 53, 0
1, 42240, Note_on_c, 0, 41, 0
1, 42240, Note_on_c, 0, 43, 38
1, 42240, Note_on_c, 0, 31, 32
1, 42400, Tempo, 265922
1, 42400, Note_on_c, 0, 44, 34
1, 42400, Note_on_c, 0, 32, 28
1, 42440, Note_on_c, 0, 31, 0
1, 42440, Note_on_c, 0, 43, 0
1, 42560, Tempo, 269530
1, 42560, Note_on_c, 0, 46, 34
1, 42560, Note_on_c, 0, 34, 28
1, 42600, Note_on_c, 0, 44, 0
1, 42600, Note_on_c, 0, 32, 0
1, 42720, Tempo, 271003
1, 42720, Note_on_c, 0, 48, 36
1, 42720, Note_on_c, 0, 36, 30
1, 42760, Note_on_c, 0, 46, 0
1, 42760, Note_on_c, 0, 34, 0
1, 42880, Tempo, 265217
1, 42880, Note_on_c, 0, 49, 38
1, 42880, Note_on_c, 0, 37, 32
1, 42920, Note_on_c, 0, 48, 0
1, 42920, Note_on_c, 0, 36, 0
1, 43040, Tempo, 268805
1, 43040, Note_on_c, 0, 51, 39
1, 43040, Note_on_c, 0, 39, 32
1, 43080, Note_on_c, 0, 49, 0
1, 43080, Note_on_c, 0, 37, 0
1, 43200, Note_on_c, 0, 51, 0
1, 43200, Note_on_c, 0, 39, 0
1, 43200, Note_on_c, 0, 53, 41
1, 43200, Note_on_c, 0, 41, 34
1, 43360, Tempo, 264504
1, 43360, Note_on_c, 0, 54, 40
1, 43360, Note_on_c, 0, 42, 34
1, 43400, Note_on_c, 0, 41, 0
1, 43400, Note_on_c, 0, 53, 0
1, 43520, Tempo, 268085
1, 43520, Note_on_c, 0, 55, 41
1, 43520, Note_on_c, 0, 43, 34
1, 43560, Note_on_c, 0, 54, 0
1, 43560, Note_on_c, 0, 42, 0
1, 43680, Note_on_c, 0, 56, 42
1, 43680, Note_on_c, 0, 44, 37
1, 43720, Note_on_c, 0, 55, 0
1, 43720, Note_on_c, 0, 43, 0
1, 43840, Tempo, 261723
1, 43840, Note_on_c, 0, 53, 41
1, 43840, Note_on_c, 0, 41, 34
1, 43880, Note_on_c, 0, 56, 0
1, 43880, Note_on_c, 0, 44, 0
1, 44000, Tempo, 268805
1, 44000, Note_on_c, 0, 58, 41
1, 44000, Note_on_c, 0, 46, 34
1, 44040, Note_on_c, 0, 53, 0
1, 44040, Note_on_c, 0, 41, 0
1, 44160, Tempo, 255667
1, 44160, Note_on_c, 0, 58, 0
1, 44160, Note_on_c, 0, 46, 0
1, 44160, Note_on_c, 0, 56, 46
1, 44160, Note_on_c, 0, 44, 39
1, 44320, Tempo, 263112
1, 44320, Note_on_c, 0, 65, 49
1, 44320, Note_on_c, 0, 53, 41
1, 44360, Note_on_c, 0, 44, 0
1, 44360, Note_on_c, 0, 56, 0
1, 44480, Tempo, 269530
1, 44480, Note_on_c, 0, 63, 47
1, 44480, Note_on_c, 0, 51, 39
1, 44520, Note_on_c, 0, 65, 0
1, 44520, Note_on_c, 0, 53, 0
1, 44640, Tempo, 268805
1, 44640, Note_on_c, 0, 61, 49
1, 44640, Note_on_c, 0, 49, 41
1, 44680, Note_on_c, 0, 63, 0
1, 44680, Note_on_c, 0, 51, 0
1, 44800, Tempo, 263112
1, 44800, Note_on_c, 0, 60, 46
1, 44800, Note_on_c, 0, 48, 38
1, 44840, Note_on_c, 0, 61, 0
1, 44840, Note_on_c, 0, 49, 0
1, 44960, Tempo, 268805
1, 44960, Note_on_c, 0, 58, 46
1, 44960, Note_on_c, 0, 46, 39
1, 45000, Note_on_c, 0, 60, 0
1, 45000, Note_on_c, 0, 48, 0
1, 45120, Note_on_c, 0, 58, 0
1, 45120, Note_on_c, 0, 46, 0
1, 45120, Note_on_c, 0, 56, 45
1, 45120, Note_on_c, 0, 44, 38
1, 45280, Tempo, 264504
1, 45280, Note_on_c, 0, 53, 43
1, 45280, Note_on_c, 0, 41, 36
1, 45320, Note_on_c, 0, 44, 0
1, 45320, Note_on_c, 0, 56, 0
1, 45440, Tempo, 268085
1, 45440, Note_on_c, 0, 54, 43
1, 45440, Note_on_c, 0, 42, 36
1, 45480, Note_on_c, 0, 53, 0
1, 45480, Note_on_c, 0, 41, 0
1, 45600, Note_on_c, 0, 56, 43
1, 45600, Note_on_c, 0, 44, 39
1, 45640, Note_on_c, 0, 54, 0
1, 45640, Note_on_c, 0, 42, 0
1, 45760, Tempo, 261723
1, 45760, Note_on_c, 0, 53, 46
1, 45760, Note_on_c, 0, 41, 38
1, 45800, Note_on_c, 0, 56, 0
1, 45800, Note_on_c, 0, 44, 0
1, 45920, Tempo, 268805
1, 45920, Note_on_c, 0, 58, 45
1, 45920, Note_on_c, 0, 46, 38
1, 45960, Note_on_c, 0, 53, 0
1, 45960, Note_on_c, 0, 41, 0
1, 46080, Note_on_c, 0, 58, 0
1, 46080, Note_on_c, 0, 46, 0
1, 46080, Note_on_c, 0, 56, 51
1, 46080, Note_on_c, 0, 44, 43
1, 46240, Tempo, 263112
1, 46240, Note_on_c, 0, 51, 44
1, 46240, Note_on_c, 0, 39, 37
1, 46280, Note_on_c, 0, 44, 0
1, 46280, Note_on_c, 0, 56, 0
1, 46400, Tempo, 269530
1, 46400, Note_on_c, 0, 53, 44
1, 46400, Note_on_c, 0, 41, 37
1, 46440, Note_on_c, 0, 51, 0
1, 46440, Note_on_c, 0, 39, 0
1, 46560, Tempo, 268805
1, 46560, Note_on_c, 0, 54, 45
1, 46560, Note_on_c, 0, 42, 38
1, 46600, Note_on_c, 0, 53, 0
1, 46600, Note_on_c, 0, 41, 0
1, 46720, Tempo, 265922
1, 46720, Note_on_c, 0, 51, 43
1, 46720, Note_on_c, 0, 39, 36
1, 46760, Note_on_c, 0, 54, 0
1, 46760, Note_on_c, 0, 42, 0
1, 46880, Tempo, 272492
1, 46880, Note_on_c, 0, 58, 53
1, 46880, Note_on_c, 0, 46, 45
1, 46920, Note_on_c, 0, 51, 0
1, 46920, Note_on_c, 0, 39, 0
1, 47040, Note_on_c, 0, 58, 0
1, 47040, Note_on_c, 0, 46, 0
1, 47040, Note_on_c, 0, 56, 51
1, 47040, Note_on_c, 0, 44, 43
1, 47200, Tempo, 266631
1, 47200, Note_on_c, 0, 49, 46
1, 47200, Note_on_c, 0, 37, 39
1, 47240, Note_on_c, 0, 44, 0
1, 47240, Note_on_c, 0, 56, 0
1, 47360, Tempo, 273236
1, 47360, Note_on_c, 0, 51, 47
1, 47360, Note_on_c, 0, 39, 39
1, 47400, Note_on_c, 0, 49, 0
1, 47400, Note_on_c, 0, 37, 0
1, 47520, Note_on_c, 0, 53, 51
1, 47520, Note_on_c, 0, 41, 43
1, 47560, Note_on_c, 0, 51, 0
1, 47560, Note_on_c, 0, 39, 0
1, 47680, Tempo, 265922
1, 47680, Note_on_c, 0, 49, 47
1, 47680, Note_on_c, 0, 37, 39
1, 47720, Note_on_c, 0, 53, 0
1, 47720, Note_on_c, 0, 41, 0
1, 47840, Tempo, 268805
1, 47840, Note_on_c, 0, 58, 53
1, 47840, Note_on_c, 0, 46, 45
1, 47880, Note_on_c, 0, 49, 0
1, 47880, Note_on_c, 0, 37, 0
1, 48000, Tempo, 273236
1, 48000, Note_on_c, 0, 58, 0
1, 48000, Note_on_c, 0, 46, 0
1, 48000, Note_on_c, 0, 56, 51
1, 48000, Note_on_c, 0, 44, 43
1, 48160, Tempo, 268085
1, 48160, Note_on_c, 0, 48, 44
1, 48160, Note_on_c, 0, 36, 37
1, 48200, Note_on_c, 0, 44, 0
1, 48200, Note_on_c, 0, 56, 0
1, 48320, Tempo, 276269
1, 48320, Note_on_c, 0, 49, 44
1, 48320, Note_on_c, 0, 37, 37
1, 48360, Note_on_c, 0, 48, 0
1, 48360, Note_on_c, 0, 36, 0
1, 48480, Tempo, 273236
1, 48480, Note_on_c, 0, 51, 46
1, 48480, Note_on_c, 0, 39, 39
1, 48520, Note_on_c, 0, 49, 0
1, 48520, Note_on_c, 0, 37, 0
1, 48640, Tempo, 268805
1, 48640, Note_on_c, 0, 48, 43
1, 48640, Note_on_c, 0, 36, 36
1, 48680, Note_on_c, 0, 51, 0
1, 48680, Note_on_c, 0, 39, 0
1, 48800, Tempo, 277816
1, 48800, Note_on_c, 0, 53, 50
1, 48800, Note_on_c, 0, 41, 42
1, 48840, Note_on_c, 0, 48, 0
1, 48840, Note_on_c, 0, 36, 0
1, 48960, Note_on_c, 0, 53, 0
1, 48960, Note_on_c, 0, 41, 0
1, 48960, Note_on_c, 0, 51, 48
1, 48960, Note_on_c, 0, 39, 40
1, 49120, Tempo, 273236
1, 49120, Note_on_c, 0, 46, 46
1, 49120, Note_on_c, 0, 34, 39
1, 49160, Note_on_c, 0, 39, 0
1, 49160, Note_on_c, 0, 51, 0
1, 49280, Tempo, 281743
1, 49280, Note_on_c, 0, 53, 47
1, 49280, Note_on_c, 0, 41, 39
1, 49320, Note_on_c, 0, 46, 0
1, 49320, Note_on_c, 0, 34, 0
1, 49440, Note_on_c, 0, 51, 51
1, 49440, Note_on_c, 0, 39, 43
1, 49480, Note_on_c, 0, 53, 0
1, 49480, Note_on_c, 0, 41, 0
1, 49600, Tempo, 273985
1, 49600, Note_on_c, 0, 44, 47
1, 49600, Note_on_c, 0, 32, 39
1, 49640, Note_on_c, 0, 51, 0
1, 49640, Note_on_c, 0, 39, 0
1, 49760, Tempo, 280951
1, 49760, Note_on_c, 0, 46, 47
1, 49760, Note_on_c, 0, 34, 39
1, 49800, Note_on_c, 0, 44, 0
1, 49800, Note_on_c, 0, 32, 0
1, 49920, Note_on_c, 0, 46, 0
1, 49920, Note_on_c, 0, 34, 0
1, 49920, Note_on_c, 0, 44, 51
1, 49920, Note_on_c, 0, 32, 43
1, 50080, Tempo, 272492
1, 50080, Note_on_c, 0, 49, 40
1, 50080, Note_on_c, 0, 37, 34
1, 50120, Note_on_c, 0, 32, 0
1, 50120, Note_on_c, 0, 44, 0
1, 50240, Tempo, 276269
1, 50240, Note_on_c, 0, 51, 42
1, 50240, Note_on_c, 0, 39, 35
1, 50280, Note_on_c, 0, 49, 0
1, 50280, Note_on_c, 0, 37, 0
1, 50400, Tempo, 275507
1, 50400, Note_on_c, 0, 53, 43
1, 50400, Note_on_c, 0, 41, 36
1, 50440, Note_on_c, 0, 51, 0
1, 50440, Note_on_c, 0, 39, 0
1, 50560, Tempo, 269530
1, 50560, Note_on_c, 0, 54, 45
1, 50560, Note_on_c, 0, 42, 38
1, 50600, Note_on_c, 0, 53, 0
1, 50600, Note_on_c, 0, 41, 0
1, 50720, Tempo, 273985
1, 50720, Note_on_c, 0, 56, 46
1, 50720, Note_on_c, 0, 44, 39
1, 50760, Note_on_c, 0, 54, 0
1, 50760, Note_on_c, 0, 42, 0
1, 50880, Note_on_c, 0, 56, 0
1, 50880, Note_on_c, 0, 44, 0
1, 50880, Note_on_c, 0, 58, 48
1, 50880, Note_on_c, 0, 46, 40
1, 51040, Tempo, 268805
1, 51040, Note_on_c, 0, 60, 51
1, 51040, Note_on_c, 0, 48, 43
1, 51080, Note_on_c, 0, 46, 0
1, 51080, Note_on_c, 0, 58, 0
1, 51200, Tempo, 272492
1, 51200, Note_on_c, 0, 61, 48
1, 51200, Note_on_c, 0, 49, 40
1, 51240, Note_on_c, 0, 60, 0
1, 51240, Note_on_c, 0, 48, 0
1, 51360, Note_on_c, 0, 63, 53
1, 51360, Note_on_c, 0, 51, 45
1, 51400, Note_on_c, 0, 61, 0
1, 51400, Note_on_c, 0, 49, 0
1, 51520, Tempo, 266631
1, 51520, Note_on_c, 0, 65, 50
1, 51520, Note_on_c, 0, 53, 42
1, 51560, Note_on_c, 0, 63, 0
1, 51560, Note_on_c, 0, 51, 0
1, 51680, Tempo, 273236
1, 51680, Note_on_c, 0, 66, 56
1, 51680, Note_on_c, 0, 54, 47
1, 51720, Note_on_c, 0, 65, 0
1, 51720, Note_on_c, 0, 53, 0
1, 51840, Tempo, 259673
1, 51840, Note_on_c, 0, 66, 0
1, 51840, Note_on_c, 0, 54, 0
1, 51840, Note_on_c, 0, 68, 59
1, 51840, Note_on_c, 0, 56, 50
1, 52000, Tempo, 263112
1, 52000, Note_on_c, 0, 77, 60
1, 52000, Note_on_c, 0, 65, 51
1, 52040, Note_on_c, 0, 56, 0
1, 52040, Note_on_c, 0, 68, 0
1, 52160, Tempo, 269530
1, 52160, Note_on_c, 0, 75, 57
1, 52160, Note_on_c, 0, 63, 48
1, 52200, Note_on_c, 0, 77, 0
1, 52200, Note_on_c, 0, 65, 0
1, 52320, Tempo, 268805
1, 52320, Note_on_c, 0, 73, 56
1, 52320, Note_on_c, 0, 61, 47
1, 52360, Note_on_c, 0, 75, 0
1, 52360, Note_on_c, 0, 63, 0
1, 52480, Tempo, 263112
1, 52480, Note_on_c, 0, 72, 54
1, 52480, Note_on_c, 0, 60, 45
1, 52520, Note_on_c, 0, 73, 0
1, 52520, Note_on_c, 0, 61, 0
1, 52640, Tempo, 268805
1, 52640, Note_on_c, 0, 70, 54
1, 52640, Note_on_c, 0, 58, 45
1, 52680, Note_on_c, 0, 72, 0
1, 52680, Note_on_c, 0, 60, 0
1, 52800, Note_on_c, 0, 70, 0
1, 52800, Note_on_c, 0, 58, 0
1, 52800, Note_on_c, 0, 68, 56
1, 52800, Note_on_c, 0, 56, 47
1, 52960, Tempo, 264504
1, 52960, Note_on_c, 0, 65, 51
1, 52960, Note_on_c, 0, 53, 43
1, 53000, Note_on_c, 0, 56, 0
1, 53000, Note_on_c, 0, 68, 0
1, 53120, Tempo, 272492
1, 53120, Note_on_c, 0, 66, 51
1, 53120, Note_on_c, 0, 54, 43
1, 53160, Note_on_c, 0, 65, 0
1, 53160, Note_on_c, 0, 53, 0
1, 53280, Note_on_c, 0, 68, 52
1, 53280, Note_on_c, 0, 56, 44
1, 53320, Note_on_c, 0, 66, 0
1, 53320, Note_on_c, 0, 54, 0
1, 53440, Tempo, 268805
1, 53440, Note_on_c, 0, 65, 51
1, 53440, Note_on_c, 0, 53, 43
1, 53480, Note_on_c, 0, 68, 0
1, 53480, Note_on_c, 0, 56, 0
1, 53600, Tempo, 274750
1, 53600, Note_on_c, 0, 70, 51
1, 53600, Note_on_c, 0, 58, 43
1, 53640, Note_on_c, 0, 65, 0
1, 53640, Note_on_c, 0, 53, 0
1, 53760, Note_on_c, 0, 70, 0
1, 53760, Note_on_c, 0, 58, 0
1, 53760, Note_on_c, 0, 68, 56
1, 53760, Note_on_c, 0, 56, 47
1, 53920, Tempo, 270270
1, 53920, Note_on_c, 0, 63, 48
1, 53920, Note_on_c, 0, 51, 40
1, 53960, Note_on_c, 0, 56, 0
1, 53960, Note_on_c, 0, 68, 0
1, 54080, Tempo, 277034
1, 54080, Note_on_c, 0, 65, 48
1, 54080, Note_on_c, 0, 53, 40
1, 54120, Note_on_c, 0, 63, 0
1, 54120, Note_on_c, 0, 51, 0
1, 54240, Tempo, 277034
1, 54240, Note_on_c, 0, 66, 53
1, 54240, Note_on_c, 0, 54, 45
1, 54280, Note_on_c, 0, 65, 0
1, 54280, Note_on_c, 0, 53, 0
1, 54400, Tempo, 272492
1, 54400, Note_on_c, 0, 63, 51
1, 54400, Note_on_c, 0, 51, 43
1, 54440, Note_on_c, 0, 66, 0
1, 54440, Note_on_c, 0, 54, 0
1, 54560, Tempo, 280951
1, 54560, Note_on_c, 0, 70, 51
1, 54560, Note_on_c, 0, 58, 43
1, 54600, Note_on_c, 0, 63, 0
1, 54600, Note_on_c, 0, 51, 0
1, 54720, Note_on_c, 0, 70, 0
1, 54720, Note_on_c, 0, 58, 0
1, 54720, Note_on_c, 0, 68, 52
1, 54720, Note_on_c, 0, 56, 44
1, 54880, Tempo, 277816
1, 54880, Note_on_c, 0, 61, 46
1, 54880, Note_on_c, 0, 49, 39
1, 54920, Note_on_c, 0, 56, 0
1, 54920, Note_on_c, 0, 68, 0
1, 55040, Tempo, 283353
1, 55040, Note_on_c, 0, 63, 46
1, 55040, Note_on_c, 0, 51, 39
1, 55080, Note_on_c, 0, 61, 0
1, 55080, Note_on_c, 0, 49, 0
1, 55200, Note_on_c, 0, 65, 51
1, 55200, Note_on_c, 0, 53, 43
1, 55240, Note_on_c, 0, 63, 0
1, 55240, Note_on_c, 0, 51, 0
1, 55360, Tempo, 274750
1, 55360, Note_on_c, 0, 61, 49
1, 55360, Note_on_c, 0, 49, 41
1, 55400, Note_on_c, 0, 65, 0
1, 55400, Note_on_c, 0, 53, 0
1, 55520, Tempo, 285796
1, 55520, Note_on_c, 0, 70, 56
1, 55520, Note_on_c, 0, 58, 47
1, 55560, Note_on_c, 0, 61, 0
1, 55560, Note_on_c, 0, 49, 0
1, 55680, Note_on_c, 0, 70, 0
1, 55680, Note_on_c, 0, 58, 0
1, 55680, Note_on_c, 0, 68, 52
1, 55680, Note_on_c, 0, 56, 44
1, 55840, Tempo, 280164
1, 55840, Note_on_c, 0, 60, 48
1, 55840, Note_on_c, 0, 48, 40
1, 55880, Note_on_c, 0, 56, 0
1, 55880, Note_on_c, 0, 68, 0
1, 56000, Tempo, 289115
1, 56000, Note_on_c, 0, 61, 40
1, 56000, Note_on_c, 0, 49, 34
1, 56040, Note_on_c, 0, 60, 0
1, 56040, Note_on_c, 0, 48, 0
1, 56160, Tempo, 289953
1, 56160, Note_on_c, 0, 63, 48
1, 56160, Note_on_c, 0, 51, 40
1, 56200, Note_on_c, 0, 61, 0
1, 56200, Note_on_c, 0, 49, 0
1, 56320, Tempo, 282552
1, 56320, Note_on_c, 0, 60, 47
1, 56320, Note_on_c, 0, 48, 39
1, 56360, Note_on_c, 0, 63, 0
1, 56360, Note_on_c, 0, 51, 0
1, 56480, Tempo, 289953
1, 56480, Note_on_c, 0, 65, 43
1, 56480, Note_on_c, 0, 53, 36
1, 56520, Note_on_c, 0, 60, 0
1, 56520, Note_on_c, 0, 48, 0
1, 56640, Note_on_c, 0, 65, 0
1, 56640, Note_on_c, 0, 53, 0
1, 56640, Note_on_c, 0, 63, 51
1, 56640, Note_on_c, 0, 51, 43
1, 56800, Tempo, 284158
1, 56800, Note_on_c, 0, 58, 46
1, 56800, Note_on_c, 0, 46, 39
1, 56840, Note_on_c, 0, 51, 0
1, 56840, Note_on_c, 0, 63, 0
1, 56960, Tempo, 292512
1, 56960, Note_on_c, 0, 65, 47
1, 56960, Note_on_c, 0, 53, 39
1, 57000, Note_on_c, 0, 58, 0
1, 57000, Note_on_c, 0, 46, 0
1, 57120, Note_on_c, 0, 63, 49
1, 57120, Note_on_c, 0, 51, 41
1, 57160, Note_on_c, 0, 65, 0
1, 57160, Note_on_c, 0, 53, 0
1, 57280, Tempo, 286615
1, 57280, Note_on_c, 0, 56, 48
1, 57280, Note_on_c, 0, 44, 40
1, 57320, Note_on_c, 0, 63, 0
1, 57320, Note_on_c, 0, 51, 0
1, 57440, Tempo, 296883
1, 57440, Note_on_c, 0, 65, 49
1, 57440, Note_on_c, 0, 53, 41
1, 57480, Note_on_c, 0, 56, 0
1, 57480, Note_on_c, 0, 44, 0
1, 57600, Tempo, 304770
1, 57600, Note_on_c, 0, 65, 0
1, 57600, Note_on_c, 0, 53, 0
1, 57600, Note_on_c, 0, 66, 53
1, 57600, Note_on_c, 0, 54, 45
1, 57760, Tempo, 283607
1, 57760, Note_on_c, 0, 65, 49
1, 57760, Note_on_c, 0, 53, 41
1, 57800, Note_on_c, 0, 54, 0
1, 57800, Note_on_c, 0, 66, 0
1, 57840, Tempo, 282845
1, 57880, Tempo, 282061
1, 57920, Tempo, 281268
1, 57920, Note_on_c, 0, 63, 51
1, 57920, Note_on_c, 0, 51, 43
1, 57960, Tempo, 280505
1, 57960, Note_on_c, 0, 65, 0
1, 57960, Note_on_c, 0, 53, 0
1, 58000, Tempo, 279733
1, 58040, Tempo, 278966
1, 58080, Note_on_c, 0, 61, 49
1, 58080, Note_on_c, 0, 49, 41
1, 58120, Tempo, 278190
1, 58120, Note_on_c, 0, 63, 0
1, 58120, Note_on_c, 0, 51, 0
1, 58160, Tempo, 277457
1, 58200, Tempo, 276702
1, 58240, Tempo, 275951
1, 58240, Note_on_c, 0, 60, 48
1, 58240, Note_on_c, 0, 48, 40
1, 58280, Tempo, 275217
1, 58280, Note_on_c, 0, 61, 0
1, 58280, Note_on_c, 0, 49, 0
1, 58320, Tempo, 274461
1, 58360, Tempo, 273723
1, 58400, Tempo, 275951
1, 58400, Note_on_c, 0, 58, 44
1, 58400, Note_on_c, 0, 46, 37
1, 58440, Note_on_c, 0, 60, 0
1, 58440, Note_on_c, 0, 48, 0
1, 58560, Tempo, 280505
1, 58560, Note_on_c, 0, 58, 0
1, 58560, Note_on_c, 0, 46, 0
1, 58560, Note_on_c, 0, 57, 54
1, 58560, Note_on_c, 0, 45, 45
1, 58720, Tempo, 275217
1, 58720, Note_on_c, 0, 65, 47
1, 58720, Note_on_c, 0, 53, 39
1, 58880, Tempo, 282061
1, 58880, Note_on_c, 0, 45, 0
1, 58880, Note_on_c, 0, 57, 0
1, 58880, Note_on_c, 0, 60, 46
1, 58880, Note_on_c, 0, 48, 39
1, 58920, Note_on_c, 0, 65, 0
1, 58920, Note_on_c, 0, 53, 0
1, 59040, Note_on_c, 0, 63, 49
1, 59040, Note_on_c, 0, 51, 41
1, 59080, Note_on_c, 0, 60, 0
1, 59080, Note_on_c, 0, 48, 0
1, 59200, Tempo, 276702
1, 59200, Note_on_c, 0, 61, 47
1, 59200, Note_on_c, 0, 49, 39
1, 59240, Note_on_c, 0, 63, 0
1, 59240, Note_on_c, 0, 51, 0
1, 59360, Tempo, 283607
1, 59360, Note_on_c, 0, 58, 47
1, 59360, Note_on_c, 0, 46, 39
1, 59400, Note_on_c, 0, 61, 0
1, 59400, Note_on_c, 0, 49, 0
1, 59520, Tempo, 281268
1, 59520, Note_on_c, 0, 58, 0
1, 59520, Note_on_c, 0, 46, 0
1, 59520, Note_on_c, 0, 57, 54
1, 59520, Note_on_c, 0, 45, 45
1, 59680, Tempo, 275217
1, 59680, Note_on_c, 0, 65, 47
1, 59680, Note_on_c, 0, 53, 39
1, 59840, Tempo, 284401
1, 59840, Note_on_c, 0, 45, 0
1, 59840, Note_on_c, 0, 57, 0
1, 59840, Note_on_c, 0, 60, 46
1, 59840, Note_on_c, 0, 48, 39
1, 59880, Note_on_c, 0, 65, 0
1, 59880, Note_on_c, 0, 53, 0
1, 60000, Tempo, 285198
1, 60000, Note_on_c, 0, 63, 47
1, 60000, Note_on_c, 0, 51, 39
1, 60040, Note_on_c, 0, 60, 0
1, 60040, Note_on_c, 0, 48, 0
1, 60160, Tempo, 277457
1, 60160, Note_on_c, 0, 61, 45
1, 60160, Note_on_c, 0, 49, 36
1, 60200, Note_on_c, 0, 63, 0
1, 60200, Note_on_c, 0, 51, 0
1, 60320, Tempo, 284401
1, 60320, Note_on_c, 0, 58, 45
1, 60320, Note_on_c, 0, 46, 37
1, 60360, Note_on_c, 0, 61, 0
1, 60360, Note_on_c, 0, 49, 0
1, 60480, Note_on_c, 0, 58, 0
1, 60480, Note_on_c, 0, 46, 0
1, 60480, Note_on_c, 0, 57, 54
1, 60480, Note_on_c, 0, 45, 45
1, 60640, Tempo, 278966
1, 60640, Note_on_c, 0, 65, 47
1, 60640, Note_on_c, 0, 53, 39
1, 60800, Tempo, 286807
1, 60800, Note_on_c, 0, 45, 0
1, 60800, Note_on_c, 0, 57, 0
1, 60800, Note_on_c, 0, 60, 46
1, 60800, Note_on_c, 0, 48, 39
1, 60840, Note_on_c, 0, 65, 0
1, 60840, Note_on_c, 0, 53, 0
1, 60960, Note_on_c, 0, 63, 49
1, 60960, Note_on_c, 0, 51, 41
1, 61000, Note_on_c, 0, 60, 0
1, 61000, Note_on_c, 0, 48, 0
1, 61120, Tempo, 280505
1, 61120, Note_on_c, 0, 61, 47
1, 61120, Note_on_c, 0, 49, 39
1, 61160, Note_on_c, 0, 63, 0
1, 61160, Note_on_c, 0, 51, 0
1, 61280, Tempo, 290065
1, 61280, Note_on_c, 0, 58, 45
1, 61280, Note_on_c, 0, 46, 38
1, 61320, Note_on_c, 0, 61, 0
1, 61320, Note_on_c, 0, 49, 0
1, 61440, Tempo, 285063
1, 61440, Note_on_c, 0, 58, 0
1, 61440, Note_on_c, 0, 46, 0
1, 61440, Note_on_c, 0, 68, 53
1, 61440, Note_on_c, 0, 56, 45
1, 61600, Tempo, 279499
1, 61600, Note_on_c, 0, 67, 47
1, 61600, Note_on_c, 0, 55, 39
1, 61640, Note_on_c, 0, 56, 0
1, 61640, Note_on_c, 0, 68, 0
1, 61680, Tempo, 278733
1, 61720, Tempo, 277945
1, 61760, Tempo, 277175
1, 61760, Note_on_c, 0, 65, 45
1, 61760, Note_on_c, 0, 53, 37
1, 61800, Tempo, 276421
1, 61800, Note_on_c, 0, 67, 0
1, 61800, Note_on_c, 0, 55, 0
1, 61880, Tempo, 275647
1, 61920, Tempo, 274901
1, 61920, Note_on_c, 0, 63, 49
1, 61920, Note_on_c, 0, 51, 41
1, 61960, Tempo, 274148
1, 61960, Note_on_c, 0, 65, 0
1, 61960, Note_on_c, 0, 53, 0
1, 62000, Tempo, 273411
1, 62080, Tempo, 272653
1, 62080, Note_on_c, 0, 62, 45
1, 62080, Note_on_c, 0, 50, 38
1, 62120, Tempo, 271912
1, 62120, Note_on_c, 0, 63, 0
1, 62120, Note_on_c, 0, 51, 0
1, 62160, Tempo, 271186
1, 62200, Tempo, 270453
1, 62240, Tempo, 271186
1, 62240, Note_on_c, 0, 60, 47
1, 62240, Note_on_c, 0, 48, 39
1, 62280, Note_on_c, 0, 62, 0
1, 62280, Note_on_c, 0, 50, 0
1, 62400, Tempo, 274148
1, 62400, Note_on_c, 0, 60, 0
1, 62400, Note_on_c, 0, 48, 0
1, 62400, Note_on_c, 0, 59, 49
1, 62400, Note_on_c, 0, 47, 42
1, 62560, Tempo, 269736
1, 62560, Note_on_c, 0, 67, 47
1, 62560, Note_on_c, 0, 55, 39
1, 62720, Tempo, 274148
1, 62720, Note_on_c, 0, 47, 0
1, 62720, Note_on_c, 0, 59, 0
1, 62720, Note_on_c, 0, 62, 43
1, 62720, Note_on_c, 0, 50, 36
1, 62760, Note_on_c, 0, 67, 0
1, 62760, Note_on_c, 0, 55, 0
1, 62880, Note_on_c, 0, 65, 47
1, 62880, Note_on_c, 0, 53, 39
1, 62920, Note_on_c, 0, 62, 0
1, 62920, Note_on_c, 0, 50, 0
1, 63040, Tempo, 271186
1, 63040, Note_on_c, 0, 63, 47
1, 63040, Note_on_c, 0, 51, 39
1, 63080, Note_on_c, 0, 65, 0
1, 63080, Note_on_c, 0, 53, 0
1, 63200, Tempo, 277175
1, 63200, Note_on_c, 0, 60, 47
1, 63200, Note_on_c, 0, 48, 39
1, 63240, Note_on_c, 0, 63, 0
1, 63240, Note_on_c, 0, 51, 0
1, 63360, Note_on_c, 0, 60, 0
1, 63360, Note_on_c, 0, 48, 0
1, 63360, Note_on_c, 0, 59, 49
1, 63360, Note_on_c, 0, 47, 43
1, 63520, Tempo, 273411
1, 63520, Note_on_c, 0, 67, 47
1, 63520, Note_on_c, 0, 55, 39
1, 63680, Tempo, 279499
1, 63680, Note_on_c, 0, 47, 0
1, 63680, Note_on_c, 0, 59, 0
1, 63680, Note_on_c, 0, 62, 44
1, 63680, Note_on_c, 0, 50, 37
1, 63720, Note_on_c, 0, 67, 0
1, 63720, Note_on_c, 0, 55, 0
1, 63840, Tempo, 280282
1, 63840, Note_on_c, 0, 65, 51
1, 63840, Note_on_c, 0, 53, 43
1, 63880, Note_on_c, 0, 62, 0
1, 63880, Note_on_c, 0, 50, 0
1, 64000, Tempo, 276421
1, 64000, Note_on_c, 0, 63, 47
1, 64000, Note_on_c, 0, 51, 39
1, 64040, Note_on_c, 0, 65, 0
1, 64040, Note_on_c, 0, 53, 0
1, 64160, Tempo, 284252
1, 64160, Note_on_c, 0, 60, 47
1, 64160, Note_on_c, 0, 48, 39
1, 64200, Note_on_c, 0, 63, 0
1, 64200, Note_on_c, 0, 51, 0
1, 64320, Note_on_c, 0, 60, 0
1, 64320, Note_on_c, 0, 48, 0
1, 64320, Note_on_c, 0, 59, 54
1, 64320, Note_on_c, 0, 47, 45
1, 64480, Tempo, 277175
1, 64480, Note_on_c, 0, 67, 47
1, 64480, Note_on_c, 0, 55, 39
1, 64640, Tempo, 288337
1, 64640, Note_on_c, 0, 47, 0
1, 64640, Note_on_c, 0, 59, 0
1, 64640, Note_on_c, 0, 62, 43
1, 64640, Note_on_c, 0, 50, 36
1, 64680, Note_on_c, 0, 67, 0
1, 64680, Note_on_c, 0, 55, 0
1, 64800, Tempo, 281862
1, 64800, Note_on_c, 0, 65, 51
1, 64800, Note_on_c, 0, 53, 43
1, 64840, Note_on_c, 0, 62, 0
1, 64840, Note_on_c, 0, 50, 0
1, 64960, Tempo, 284158
1, 64960, Note_on_c, 0, 63, 47
1, 64960, Note_on_c, 0, 51, 39
1, 65000, Note_on_c, 0, 65, 0
1, 65000, Note_on_c, 0, 53, 0
1, 65120, Tempo, 307913
1, 65120, Note_on_c, 0, 60, 47
1, 65120, Note_on_c, 0, 48, 39
1, 65160, Note_on_c, 0, 63, 0
1, 65160, Note_on_c, 0, 51, 0
1, 65280, Tempo, 273236
1, 65280, Note_on_c, 0, 60, 0
1, 65280, Note_on_c, 0, 48, 0
1, 65280, Note_on_c, 0, 73, 67
1, 65280, Note_on_c, 0, 61, 56
1, 65337, Control_c, 0, 64, 127
1, 65440, Tempo, 267344
1, 65440, Note_on_c, 0, 72, 58
1, 65440, Note_on_c, 0, 60, 49
1, 65480, Note_on_c, 0, 61, 0
1, 65480, Note_on_c, 0, 73, 0
1, 65600, Tempo, 275507
1, 65600, Note_on_c, 0, 70, 56
1, 65600, Note_on_c, 0, 58, 47
1, 65640, Note_on_c, 0, 72, 0
1, 65640, Note_on_c, 0, 60, 0
1, 65760, Tempo, 273236
1, 65760, Note_on_c, 0, 68, 56
1, 65760, Note_on_c, 0, 56, 47
1, 65800, Note_on_c, 0, 70, 0
1, 65800, Note_on_c, 0, 58, 0
1, 65920, Tempo, 268085
1, 65920, Note_on_c, 0, 67, 55
1, 65920, Note_on_c, 0, 55, 46
1, 65960, Note_on_c, 0, 68, 0
1, 65960, Note_on_c, 0, 56, 0
1, 66080, Tempo, 273236
1, 66080, Note_on_c, 0, 65, 55
1, 66080, Note_on_c, 0, 53, 46
1, 66120, Note_on_c, 0, 67, 0
1, 66120, Note_on_c, 0, 55, 0
1, 66240, Tempo, 280951
1, 66240, Note_on_c, 0, 65, 0
1, 66240, Note_on_c, 0, 53, 0
1, 66240, Note_on_c, 0, 70, 61
1, 66240, Note_on_c, 0, 58, 51
1, 66261, Control_c, 0, 64, 0
1, 66309, Control_c, 0, 64, 127
1, 66400, Tempo, 270270
1, 66400, Note_on_c, 0, 64, 55
1, 66400, Note_on_c, 0, 52, 46
1, 66440, Note_on_c, 0, 58, 0
1, 66440, Note_on_c, 0, 70, 0
1, 66509, Control_c, 0, 64, 0
1, 66560, Tempo, 273985
1, 66560, Note_on_c, 0, 67, 54
1, 66560, Note_on_c, 0, 55, 45
1, 66600, Note_on_c, 0, 64, 0
1, 66600, Note_on_c, 0, 52, 0
1, 66720, Note_on_c, 0, 61, 56
1, 66720, Note_on_c, 0, 49, 47
1, 66760, Note_on_c, 0, 67, 0
1, 66760, Note_on_c, 0, 55, 0
1, 66800, Control_c, 0, 64, 127
1, 66880, Tempo, 280951
1, 66880, Note_on_c, 0, 64, 55
1, 66880, Note_on_c, 0, 52, 46
1, 66920, Note_on_c, 0, 61, 0
1, 66920, Note_on_c, 0, 49, 0
1, 67040, Tempo, 321871
1, 67040, Note_on_c, 0, 60, 52
1, 67040, Note_on_c, 0, 48, 44
1, 67080, Note_on_c, 0, 64, 0
1, 67080, Note_on_c, 0, 52, 0
1, 67200, Tempo, 273236
1, 67200, Note_on_c, 0, 60, 0
1, 67200, Note_on_c, 0, 48, 0
1, 67200, Note_on_c, 0, 73, 67
1, 67200, Control_c, 0, 64, 0
1, 67200, Note_on_c, 0, 61, 56
1, 67297, Control_c, 0, 64, 127
1, 67360, Tempo, 267344
1, 67360, Note_on_c, 0, 72, 56
1, 67360, Note_on_c, 0, 60, 47
1, 67400, Note_on_c, 0, 61, 0
1, 67400, Note_on_c, 0, 73, 0
1, 67520, Tempo, 275507
1, 67520, Note_on_c, 0, 70, 59
1, 67520, Note_on_c, 0, 58, 50
1, 67560, Note_on_c, 0, 72, 0
1, 67560, Note_on_c, 0, 60, 0
1, 67680, Tempo, 273236
1, 67680, Note_on_c, 0, 68, 58
1, 67680, Note_on_c, 0, 56, 49
1, 67720, Note_on_c, 0, 70, 0
1, 67720, Note_on_c, 0, 58, 0
1, 67840, Tempo, 268085
1, 67840, Note_on_c, 0, 67, 56
1, 67840, Note_on_c, 0, 55, 47
1, 67880, Note_on_c, 0, 68, 0
1, 67880, Note_on_c, 0, 56, 0
1, 68000, Tempo, 279369
1, 68000, Note_on_c, 0, 65, 56
1, 68000, Note_on_c, 0, 53, 47
1, 68040, Note_on_c, 0, 67, 0
1, 68040, Note_on_c, 0, 55, 0
1, 68160, Tempo, 283353
1, 68160, Note_on_c, 0, 65, 0
1, 68160, Note_on_c, 0, 53, 0
1, 68160, Note_on_c, 0, 70, 62
1, 68160, Note_on_c, 0, 58, 52
1, 68178, Control_c, 0, 64, 0
1, 68238, Control_c, 0, 64, 127
1, 68320, Tempo, 275507
1, 68320, Note_on_c, 0, 64, 55
1, 68320, Note_on_c, 0, 52, 46
1, 68360, Note_on_c, 0, 58, 0
1, 68360, Note_on_c, 0, 70, 0
1, 68480, Tempo, 274750
1, 68480, Note_on_c, 0, 67, 56
1, 68480, Note_on_c, 0, 55, 47
1, 68520, Note_on_c, 0, 64, 0
1, 68520, Note_on_c, 0, 52, 0
1, 68640, Note_on_c, 0, 67, 0
1, 68640, Note_on_c, 0, 55, 0
1, 68640, Note_on_c, 0, 61, 54
1, 68640, Note_on_c, 0, 49, 46
1, 68651, Control_c, 0, 64, 0
1, 68697, Control_c, 0, 64, 127
1, 68800, Tempo, 280951
1, 68800, Note_on_c, 0, 64, 55
1, 68800, Note_on_c, 0, 52, 46
1, 68840, Note_on_c, 0, 49, 0
1, 68840, Note_on_c, 0, 61, 0
1, 68960, Tempo, 321871
1, 68960, Note_on_c, 0, 60, 57
1, 68960, Note_on_c, 0, 48, 45
1, 69000, Note_on_c, 0, 64, 0
1, 69000, Note_on_c, 0, 52, 0
1, 69120, Tempo, 293413
1, 69120, Note_on_c, 0, 60, 0
1, 69120, Note_on_c, 0, 48, 0
1, 69120, Note_on_c, 0, 70, 59
1, 69120, Note_on_c, 0, 58, 49
1, 69127, Control_c, 0, 64, 0
1, 69280, Tempo, 272430
1, 69280, Note_on_c, 0, 64, 53
1, 69280, Note_on_c, 0, 52, 45
1, 69320, Note_on_c, 0, 58, 0
1, 69320, Note_on_c, 0, 70, 0
1, 69440, Tempo, 279083
1, 69440, Note_on_c, 0, 67, 53
1, 69440, Note_on_c, 0, 55, 45
1, 69480, Note_on_c, 0, 64, 0
1, 69480, Note_on_c, 0, 52, 0
1, 69600, Tempo, 278319
1, 69600, Note_on_c, 0, 61, 51
1, 69600, Note_on_c, 0, 49, 43
1, 69640, Note_on_c, 0, 67, 0
1, 69640, Note_on_c, 0, 55, 0
1, 69760, Tempo, 272430
1, 69760, Note_on_c, 0, 64, 48
1, 69760, Note_on_c, 0, 52, 40
1, 69800, Note_on_c, 0, 61, 0
1, 69800, Note_on_c, 0, 49, 0
1, 69920, Tempo, 284158
1, 69920, Note_on_c, 0, 60, 48
1, 69920, Note_on_c, 0, 48, 40
1, 69960, Note_on_c, 0, 64, 0
1, 69960, Note_on_c, 0, 52, 0
1, 70080, Note_on_c, 0, 60, 0
1, 70080, Note_on_c, 0, 48, 0
1, 70080, Note_on_c, 0, 67, 57
1, 70080, Note_on_c, 0, 55, 48
1, 70240, Tempo, 273898
1, 70240, Note_on_c, 0, 61, 51
1, 70240, Note_on_c, 0, 49, 43
1, 70280, Note_on_c, 0, 55, 0
1, 70280, Note_on_c, 0, 67, 0
1, 70400, Tempo, 280951
1, 70400, Note_on_c, 0, 64, 49
1, 70400, Note_on_c, 0, 52, 42
1, 70440, Note_on_c, 0, 61, 0
1, 70440, Note_on_c, 0, 49, 0
1, 70560, Note_on_c, 0, 60, 50
1, 70560, Note_on_c, 0, 48, 41
1, 70600, Note_on_c, 0, 64, 0
1, 70600, Note_on_c, 0, 52, 0
1, 70720, Tempo, 275507
1, 70720, Note_on_c, 0, 64, 48
1, 70720, Note_on_c, 0, 52, 40
1, 70760, Note_on_c, 0, 60, 0
1, 70760, Note_on_c, 0, 48, 0
1, 70880, Tempo, 282552
1, 70880, Note_on_c, 0, 58, 48
1, 70880, Note_on_c, 0, 46, 40
1, 70920, Note_on_c, 0, 64, 0
1, 70920, Note_on_c, 0, 52, 0
1, 71040, Note_on_c, 0, 58, 0
1, 71040, Note_on_c, 0, 46, 0
1, 71040, Note_on_c, 0, 64, 59
1, 71040, Note_on_c, 0, 52, 50
1, 71200, Tempo, 277034
1, 71200, Note_on_c, 0, 58, 50
1, 71200, Note_on_c, 0, 46, 42
1, 71240, Note_on_c, 0, 52, 0
1, 71240, Note_on_c, 0, 64, 0
1, 71360, Tempo, 283353
1, 71360, Note_on_c, 0, 61, 48
1, 71360, Note_on_c, 0, 49, 41
1, 71400, Note_on_c, 0, 58, 0
1, 71400, Note_on_c, 0, 46, 0
1, 71520, Tempo, 280951
1, 71520, Note_on_c, 0, 57, 51
1, 71520, Note_on_c, 0, 45, 44
1, 71560, Note_on_c, 0, 61, 0
1, 71560, Note_on_c, 0, 49, 0
1, 71680, Tempo, 277034
1, 71680, Note_on_c, 0, 58, 49
1, 71680, Note_on_c, 0, 46, 41
1, 71720, Note_on_c, 0, 57, 0
1, 71720, Note_on_c, 0, 45, 0
1, 71840, Tempo, 283353
1, 71840, Note_on_c, 0, 56, 50
1, 71840, Note_on_c, 0, 44, 42
1, 71880, Note_on_c, 0, 58, 0
1, 71880, Note_on_c, 0, 46, 0
1, 72000, Note_on_c, 0, 56, 0
1, 72000, Note_on_c, 0, 44, 0
1, 72000, Note_on_c, 0, 61, 51
1, 72000, Note_on_c, 0, 49, 43
1, 72160, Tempo, 277816
1, 72160, Note_on_c, 0, 56, 48
1, 72160, Note_on_c, 0, 44, 40
1, 72200, Note_on_c, 0, 49, 0
1, 72200, Note_on_c, 0, 61, 0
1, 72320, Tempo, 283353
1, 72320, Note_on_c, 0, 58, 48
1, 72320, Note_on_c, 0, 46, 40
1, 72360, Note_on_c, 0, 56, 0
1, 72360, Note_on_c, 0, 44, 0
1, 72480, Note_on_c, 0, 55, 50
1, 72480, Note_on_c, 0, 43, 42
1, 72520, Note_on_c, 0, 58, 0
1, 72520, Note_on_c, 0, 46, 0
1, 72640, Tempo, 278590
1, 72640, Note_on_c, 0, 58, 48
1, 72640, Note_on_c, 0, 46, 40
1, 72680, Note_on_c, 0, 55, 0
1, 72680, Note_on_c, 0, 43, 0
1, 72800, Tempo, 285796
1, 72800, Note_on_c, 0, 54, 41
1, 72800, Note_on_c, 0, 42, 34
1, 72840, Note_on_c, 0, 58, 0
1, 72840, Note_on_c, 0, 46, 0
1, 72960, Tempo, 284158
1, 72960, Note_on_c, 0, 54, 0
1, 72960, Note_on_c, 0, 42, 0
1, 72960, Note_on_c, 0, 53, 51
1, 72960, Note_on_c, 0, 41, 43
1, 73120, Tempo, 269530
1, 73120, Note_on_c, 0, 55, 46
1, 73120, Note_on_c, 0, 43, 39
1, 73160, Note_on_c, 0, 41, 0
1, 73160, Note_on_c, 0, 53, 0
1, 73280, Tempo, 276269
1, 73280, Note_on_c, 0, 58, 45
1, 73280, Note_on_c, 0, 46, 38
1, 73320, Note_on_c, 0, 55, 0
1, 73320, Note_on_c, 0, 43, 0
1, 73440, Note_on_c, 0, 61, 45
1, 73440, Note_on_c, 0, 49, 39
1, 73480, Note_on_c, 0, 58, 0
1, 73480, Note_on_c, 0, 46, 0
1, 73600, Tempo, 270270
1, 73600, Note_on_c, 0, 52, 45
1, 73600, Note_on_c, 0, 40, 38
1, 73640, Note_on_c, 0, 61, 0
1, 73640, Note_on_c, 0, 49, 0
1, 73760, Tempo, 275507
1, 73760, Note_on_c, 0, 55, 46
1, 73760, Note_on_c, 0, 43, 39
1, 73800, Note_on_c, 0, 52, 0
1, 73800, Note_on_c, 0, 40, 0
1, 73920, Note_on_c, 0, 55, 0
1, 73920, Note_on_c, 0, 43, 0
1, 73920, Note_on_c, 0, 53, 51
1, 73920, Note_on_c, 0, 41, 43
1, 74080, Tempo, 268805
1, 74080, Note_on_c, 0, 55, 46
1, 74080, Note_on_c, 0, 43, 39
1, 74120, Note_on_c, 0, 41, 0
1, 74120, Note_on_c, 0, 53, 0
1, 74240, Tempo, 275507
1, 74240, Note_on_c, 0, 58, 45
1, 74240, Note_on_c, 0, 46, 38
1, 74280, Note_on_c, 0, 55, 0
1, 74280, Note_on_c, 0, 43, 0
1, 74400, Note_on_c, 0, 61, 45
1, 74400, Note_on_c, 0, 49, 39
1, 74440, Note_on_c, 0, 58, 0
1, 74440, Note_on_c, 0, 46, 0
1, 74560, Tempo, 268805
1, 74560, Note_on_c, 0, 52, 45
1, 74560, Note_on_c, 0, 40, 38
1, 74600, Note_on_c, 0, 61, 0
1, 74600, Note_on_c, 0, 49, 0
1, 74720, Tempo, 275507
1, 74720, Note_on_c, 0, 55, 46
1, 74720, Note_on_c, 0, 43, 39
1, 74760, Note_on_c, 0, 52, 0
1, 74760, Note_on_c, 0, 40, 0
1, 74864, Note_on_c, 0, 55, 0
1, 74864, Note_on_c, 0, 43, 0
1, 74880, Note_on_c, 0, 55, 53
1, 74880, Note_on_c, 0, 43, 45
1, 75040, Tempo, 268085
1, 75040, Note_on_c, 0, 57, 45
1, 75040, Note_on_c, 0, 45, 38
1, 75080, Note_on_c, 0, 43, 0
1, 75080, Note_on_c, 0, 55, 0
1, 75200, Tempo, 273985
1, 75200, Note_on_c, 0, 60, 46
1, 75200, Note_on_c, 0, 48, 39
1, 75240, Note_on_c, 0, 57, 0
1, 75240, Note_on_c, 0, 45, 0
1, 75360, Note_on_c, 0, 63, 47
1, 75360, Note_on_c, 0, 51, 39
1, 75400, Note_on_c, 0, 60, 0
1, 75400, Note_on_c, 0, 48, 0
1, 75520, Note_on_c, 0, 54, 45
1, 75520, Note_on_c, 0, 42, 38
1, 75540, Tempo, 267344
1, 75560, Note_on_c, 0, 63, 0
1, 75560, Note_on_c, 0, 51, 0
1, 75680, Note_on_c, 0, 57, 48
1, 75680, Note_on_c, 0, 45, 40
1, 75720, Tempo, 273236
1, 75720, Note_on_c, 0, 54, 0
1, 75720, Note_on_c, 0, 42, 0
1, 75840, Note_on_c, 0, 57, 0
1, 75840, Note_on_c, 0, 45, 0
1, 75840, Note_on_c, 0, 55, 53
1, 75840, Note_on_c, 0, 43, 45
1, 76000, Tempo, 266631
1, 76000, Note_on_c, 0, 57, 47
1, 76000, Note_on_c, 0, 45, 39
1, 76040, Note_on_c, 0, 43, 0
1, 76040, Note_on_c, 0, 55, 0
1, 76160, Tempo, 272492
1, 76160, Note_on_c, 0, 60, 46
1, 76160, Note_on_c, 0, 48, 39
1, 76200, Note_on_c, 0, 57, 0
1, 76200, Note_on_c, 0, 45, 0
1, 76320, Note_on_c, 0, 63, 49
1, 76320, Note_on_c, 0, 51, 41
1, 76360, Note_on_c, 0, 60, 0
1, 76360, Note_on_c, 0, 48, 0
1, 76480, Tempo, 265922
1, 76480, Note_on_c, 0, 54, 48
1, 76480, Note_on_c, 0, 42, 42
1, 76520, Note_on_c, 0, 63, 0
1, 76520, Note_on_c, 0, 51, 0
1, 76640, Tempo, 271739
1, 76640, Note_on_c, 0, 57, 46
1, 76640, Note_on_c, 0, 45, 39
1, 76680, Note_on_c, 0, 54, 0
1, 76680, Note_on_c, 0, 42, 0
1, 76800, Note_on_c, 0, 57, 0
1, 76800, Note_on_c, 0, 45, 0
1, 76800, Note_on_c, 0, 58, 55
1, 76800, Note_on_c, 0, 46, 46
1, 76960, Tempo, 263112
1, 76960, Note_on_c, 0, 60, 47
1, 76960, Note_on_c, 0, 48, 39
1, 77000, Note_on_c, 0, 46, 0
1, 77000, Note_on_c, 0, 58, 0
1, 77120, Tempo, 269530
1, 77120, Note_on_c, 0, 63, 48
1, 77120, Note_on_c, 0, 51, 40
1, 77160, Note_on_c, 0, 60, 0
1, 77160, Note_on_c, 0, 48, 0
1, 77280, Tempo, 268805
1, 77280, Note_on_c, 0, 66, 49
1, 77280, Note_on_c, 0, 54, 41
1, 77320, Note_on_c, 0, 63, 0
1, 77320, Note_on_c, 0, 51, 0
1, 77440, Tempo, 263112
1, 77440, Note_on_c, 0, 57, 48
1, 77440, Note_on_c, 0, 45, 40
1, 77480, Note_on_c, 0, 66, 0
1, 77480, Note_on_c, 0, 54, 0
1, 77600, Tempo, 268805
1, 77600, Note_on_c, 0, 60, 45
1, 77600, Note_on_c, 0, 48, 38
1, 77640, Note_on_c, 0, 57, 0
1, 77640, Note_on_c, 0, 45, 0
1, 77760, Note_on_c, 0, 60, 0
1, 77760, Note_on_c, 0, 48, 0
1, 77760, Note_on_c, 0, 61, 50
1, 77760, Note_on_c, 0, 49, 42
1, 77920, Tempo, 264504
1, 77920, Note_on_c, 0, 63, 49
1, 77920, Note_on_c, 0, 51, 41
1, 77960, Note_on_c, 0, 49, 0
1, 77960, Note_on_c, 0, 61, 0
1, 78080, Tempo, 268085
1, 78080, Note_on_c, 0, 66, 48
1, 78080, Note_on_c, 0, 54, 40
1, 78120, Note_on_c, 0, 63, 0
1, 78120, Note_on_c, 0, 51, 0
1, 78240, Note_on_c, 0, 69, 49
1, 78240, Note_on_c, 0, 57, 42
1, 78280, Note_on_c, 0, 66, 0
1, 78280, Note_on_c, 0, 54, 0
1, 78400, Tempo, 261723
1, 78400, Note_on_c, 0, 60, 49
1, 78400, Note_on_c, 0, 48, 41
1, 78440, Note_on_c, 0, 69, 0
1, 78440, Note_on_c, 0, 57, 0
1, 78560, Tempo, 268805
1, 78560, Note_on_c, 0, 63, 50
1, 78560, Note_on_c, 0, 51, 42
1, 78600, Note_on_c, 0, 60, 0
1, 78600, Note_on_c, 0, 48, 0
1, 78720, Note_on_c, 0, 63, 0
1, 78720, Note_on_c, 0, 51, 0
1, 78720, Note_on_c, 0, 61, 55
1, 78720, Note_on_c, 0, 49, 46
1, 78880, Tempo, 263112
1, 78880, Note_on_c, 0, 63, 49
1, 78880, Note_on_c, 0, 51, 41
1, 78920, Note_on_c, 0, 49, 0
1, 78920, Note_on_c, 0, 61, 0
1, 79040, Tempo, 269530
1, 79040, Note_on_c, 0, 66, 48
1, 79040, Note_on_c, 0, 54, 40
1, 79080, Note_on_c, 0, 63, 0
1, 79080, Note_on_c, 0, 51, 0
1, 79200, Tempo, 268805
1, 79200, Note_on_c, 0, 69, 50
1, 79200, Note_on_c, 0, 57, 40
1, 79240, Note_on_c, 0, 66, 0
1, 79240, Note_on_c, 0, 54, 0
1, 79360, Tempo, 263112
1, 79360, Note_on_c, 0, 60, 49
1, 79360, Note_on_c, 0, 48, 41
1, 79400, Note_on_c, 0, 69, 0
1, 79400, Note_on_c, 0, 57, 0
1, 79520, Tempo, 268805
1, 79520, Note_on_c, 0, 63, 50
1, 79520, Note_on_c, 0, 51, 42
1, 79560, Note_on_c, 0, 60, 0
1, 79560, Note_on_c, 0, 48, 0
1, 79680, Note_on_c, 0, 63, 0
1, 79680, Note_on_c, 0, 51, 0
1, 79680, Note_on_c, 0, 66, 57
1, 79680, Note_on_c, 0, 54, 47
1, 79840, Tempo, 264504
1, 79840, Note_on_c, 0, 70, 51
1, 79840, Note_on_c, 0, 58, 43
1, 79880, Note_on_c, 0, 54, 0
1, 79880, Note_on_c, 0, 66, 0
1, 80000, Tempo, 268085
1, 80000, Note_on_c, 0, 72, 52
1, 80000, Note_on_c, 0, 60, 44
1, 80040, Note_on_c, 0, 70, 0
1, 80040, Note_on_c, 0, 58, 0
1, 80160, Note_on_c, 0, 75, 54
1, 80160, Note_on_c, 0, 63, 45
1, 80200, Note_on_c, 0, 72, 0
1, 80200, Note_on_c, 0, 60, 0
1, 80320, Tempo, 261723
1, 80320, Note_on_c, 0, 65, 54
1, 80320, Note_on_c, 0, 53, 45
1, 80360, Note_on_c, 0, 75, 0
1, 80360, Note_on_c, 0, 63, 0
1, 80480, Tempo, 268805
1, 80480, Note_on_c, 0, 69, 55
1, 80480, Note_on_c, 0, 57, 46
1, 80520, Note_on_c, 0, 65, 0
1, 80520, Note_on_c, 0, 53, 0
1, 80640, Note_on_c, 0, 69, 0
1, 80640, Note_on_c, 0, 57, 0
1, 80640, Note_on_c, 0, 70, 65
1, 80640, Note_on_c, 0, 58, 55
1, 80800, Tempo, 258331
1, 80800, Note_on_c, 0, 73, 56
1, 80800, Note_on_c, 0, 61, 46
1, 80840, Note_on_c, 0, 58, 0
1, 80840, Note_on_c, 0, 70, 0
1, 80960, Tempo, 266631
1, 80960, Note_on_c, 0, 78, 55
1, 80960, Note_on_c, 0, 66, 46
1, 81000, Note_on_c, 0, 73, 0
1, 81000, Note_on_c, 0, 61, 0
1, 81120, Tempo, 266631
1, 81120, Note_on_c, 0, 77, 55
1, 81120, Note_on_c, 0, 65, 48
1, 81160, Note_on_c, 0, 78, 0
1, 81160, Note_on_c, 0, 66, 0
1, 81280, Tempo, 259673
1, 81280, Note_on_c, 0, 72, 54
1, 81280, Note_on_c, 0, 60, 45
1, 81320, Note_on_c, 0, 77, 0
1, 81320, Note_on_c, 0, 65, 0
1, 81440, Tempo, 266631
1, 81440, Note_on_c, 0, 73, 55
1, 81440, Note_on_c, 0, 61, 46
1, 81480, Note_on_c, 0, 72, 0
1, 81480, Note_on_c, 0, 60, 0
1, 81600, Note_on_c, 0, 73, 0
1, 81600, Note_on_c, 0, 61, 0
1, 81600, Note_on_c, 0, 76, 62
1, 81600, Note_on_c, 0, 64, 52
1, 81760, Tempo, 261040
1, 81760, Note_on_c, 0, 72, 57
1, 81760, Note_on_c, 0, 60, 48
1, 81920, Tempo, 268085
1, 81920, Note_on_c, 0, 64, 0
1, 81920, Note_on_c, 0, 76, 0
1, 81920, Note_on_c, 0, 73, 55
1, 81920, Note_on_c, 0, 61, 46
1, 81960, Note_on_c, 0, 72, 0
1, 81960, Note_on_c, 0, 60, 0
1, 82080, Note_on_c, 0, 69, 56
1, 82080, Note_on_c, 0, 57, 47
1, 82120, Note_on_c, 0, 73, 0
1, 82120, Note_on_c, 0, 61, 0
1, 82240, Tempo, 261723
1, 82240, Note_on_c, 0, 70, 55
1, 82240, Note_on_c, 0, 58, 46
1, 82400, Tempo, 268805
1, 82400, Note_on_c, 0, 69, 0
1, 82400, Note_on_c, 0, 57, 0
1, 82400, Note_on_c, 0, 66, 51
1, 82400, Note_on_c, 0, 54, 43
1, 82440, Note_on_c, 0, 70, 0
1, 82440, Note_on_c, 0, 58, 0
1, 82560, Note_on_c, 0, 66, 0
1, 82560, Note_on_c, 0, 54, 0
1, 82560, Note_on_c, 0, 64, 56
1, 82560, Note_on_c, 0, 52, 47
1, 82720, Tempo, 263112
1, 82720, Note_on_c, 0, 65, 51
1, 82720, Note_on_c, 0, 53, 43
1, 82880, Tempo, 269530
1, 82880, Note_on_c, 0, 52, 0
1, 82880, Note_on_c, 0, 64, 0
1, 82880, Note_on_c, 0, 70, 51
1, 82880, Note_on_c, 0, 58, 43
1, 82920, Note_on_c, 0, 65, 0
1, 82920, Note_on_c, 0, 53, 0
1, 83040, Tempo, 268805
1, 83040, Note_on_c, 0, 70, 0
1, 83040, Note_on_c, 0, 58, 0
1, 83040, Note_on_c, 0, 68, 56
1, 83040, Note_on_c, 0, 56, 45
1, 83200, Tempo, 260349
1, 83200, Note_on_c, 0, 69, 51
1, 83200, Note_on_c, 0, 57, 43
1, 83360, Tempo, 266631
1, 83360, Note_on_c, 0, 56, 0
1, 83360, Note_on_c, 0, 68, 0
1, 83360, Note_on_c, 0, 73, 51
1, 83360, Note_on_c, 0, 61, 43
1, 83400, Note_on_c, 0, 69, 0
1, 83400, Note_on_c, 0, 57, 0
1, 83520, Note_on_c, 0, 73, 0
1, 83520, Note_on_c, 0, 61, 0
1, 83520, Note_on_c, 0, 69, 58
1, 83520, Note_on_c, 0, 57, 48
1, 83680, Tempo, 259000
1, 83680, Note_on_c, 0, 70, 55
1, 83680, Note_on_c, 0, 58, 46
1, 83840, Tempo, 264504
1, 83840, Note_on_c, 0, 57, 0
1, 83840, Note_on_c, 0, 69, 0
1, 83840, Note_on_c, 0, 73, 56
1, 83840, Note_on_c, 0, 61, 47
1, 83880, Note_on_c, 0, 70, 0
1, 83880, Note_on_c, 0, 58, 0
1, 84000, Note_on_c, 0, 73, 0
1, 84000, Note_on_c, 0, 61, 0
1, 84000, Note_on_c, 0, 71, 59
1, 84000, Note_on_c, 0, 59, 50
1, 84160, Tempo, 255667
1, 84160, Note_on_c, 0, 72, 56
1, 84160, Note_on_c, 0, 60, 47
1, 84320, Tempo, 268805
1, 84320, Note_on_c, 0, 59, 0
1, 84320, Note_on_c, 0, 71, 0
1, 84320, Note_on_c, 0, 77, 53
1, 84320, Note_on_c, 0, 65, 44
1, 84360, Note_on_c, 0, 72, 0
1, 84360, Note_on_c, 0, 60, 0
1, 84480, Tempo, 263806
1, 84480, Note_on_c, 0, 77, 0
1, 84480, Note_on_c, 0, 65, 0
1, 84480, Note_on_c, 0, 68, 65
1, 84480, Note_on_c, 0, 56, 55
1, 84640, Tempo, 259673
1, 84640, Note_on_c, 0, 71, 59
1, 84640, Note_on_c, 0, 59, 50
1, 84680, Note_on_c, 0, 56, 0
1, 84680, Note_on_c, 0, 68, 0
1, 84800, Tempo, 266631
1, 84800, Note_on_c, 0, 76, 56
1, 84800, Note_on_c, 0, 64, 47
1, 84840, Note_on_c, 0, 71, 0
1, 84840, Note_on_c, 0, 59, 0
1, 84960, Tempo, 268805
1, 84960, Note_on_c, 0, 75, 62
1, 84960, Note_on_c, 0, 63, 52
1, 85000, Note_on_c, 0, 76, 0
1, 85000, Note_on_c, 0, 64, 0
1, 85120, Tempo, 261040
1, 85120, Note_on_c, 0, 70, 58
1, 85120, Note_on_c, 0, 58, 49
1, 85160, Note_on_c, 0, 75, 0
1, 85160, Note_on_c, 0, 63, 0
1, 85280, Tempo, 268805
1, 85280, Note_on_c, 0, 71, 54
1, 85280, Note_on_c, 0, 59, 43
1, 85320, Note_on_c, 0, 70, 0
1, 85320, Note_on_c, 0, 58, 0
1, 85440, Note_on_c, 0, 71, 0
1, 85440, Note_on_c, 0, 59, 0
1, 85440, Note_on_c, 0, 74, 62
1, 85440, Note_on_c, 0, 62, 52
1, 85600, Tempo, 264504
1, 85600, Note_on_c, 0, 70, 56
1, 85600, Note_on_c, 0, 58, 47
1, 85760, Tempo, 268085
1, 85760, Note_on_c, 0, 62, 0
1, 85760, Note_on_c, 0, 74, 0
1, 85760, Note_on_c, 0, 71, 53
1, 85760, Note_on_c, 0, 59, 45
1, 85800, Note_on_c, 0, 70, 0
1, 85800, Note_on_c, 0, 58, 0
1, 85920, Note_on_c, 0, 67, 58
1, 85920, Note_on_c, 0, 55, 49
1, 85960, Note_on_c, 0, 71, 0
1, 85960, Note_on_c, 0, 59, 0
1, 86080, Tempo, 261723
1, 86080, Note_on_c, 0, 68, 51
1, 86080, Note_on_c, 0, 56, 43
1, 86240, Tempo, 268805
1, 86240, Note_on_c, 0, 67, 0
1, 86240, Note_on_c, 0, 55, 0
1, 86240, Note_on_c, 0, 64, 51
1, 86240, Note_on_c, 0, 52, 43
1, 86280, Note_on_c, 0, 68, 0
1, 86280, Note_on_c, 0, 56, 0
1, 86400, Note_on_c, 0, 64, 0
1, 86400, Note_on_c, 0, 52, 0
1, 86400, Note_on_c, 0, 62, 56
1, 86400, Note_on_c, 0, 50, 47
1, 86560, Tempo, 263112
1, 86560, Note_on_c, 0, 63, 51
1, 86560, Note_on_c, 0, 51, 43
1, 86720, Tempo, 269530
1, 86720, Note_on_c, 0, 50, 0
1, 86720, Note_on_c, 0, 62, 0
1, 86720, Note_on_c, 0, 68, 51
1, 86720, Note_on_c, 0, 56, 43
1, 86760, Note_on_c, 0, 63, 0
1, 86760, Note_on_c, 0, 51, 0
1, 86880, Tempo, 268805
1, 86880, Note_on_c, 0, 68, 0
1, 86880, Note_on_c, 0, 56, 0
1, 86880, Note_on_c, 0, 64, 56
1, 86880, Note_on_c, 0, 52, 48
1, 87040, Tempo, 260349
1, 87040, Note_on_c, 0, 65, 53
1, 87040, Note_on_c, 0, 53, 45
1, 87200, Tempo, 265922
1, 87200, Note_on_c, 0, 52, 0
1, 87200, Note_on_c, 0, 64, 0
1, 87200, Note_on_c, 0, 71, 54
1, 87200, Note_on_c, 0, 59, 45
1, 87240, Note_on_c, 0, 65, 0
1, 87240, Note_on_c, 0, 53, 0
1, 87360, Note_on_c, 0, 71, 0
1, 87360, Note_on_c, 0, 59, 0
1, 87360, Note_on_c, 0, 65, 61
1, 87360, Note_on_c, 0, 53, 50
1, 87520, Tempo, 259673
1, 87520, Note_on_c, 0, 66, 55
1, 87520, Note_on_c, 0, 54, 46
1, 87680, Tempo, 263806
1, 87680, Note_on_c, 0, 53, 0
1, 87680, Note_on_c, 0, 65, 0
1, 87680, Note_on_c, 0, 71, 56
1, 87680, Note_on_c, 0, 59, 47
1, 87720, Note_on_c, 0, 66, 0
1, 87720, Note_on_c, 0, 54, 0
1, 87840, Note_on_c, 0, 71, 0
1, 87840, Note_on_c, 0, 59, 0
1, 87840, Note_on_c, 0, 69, 64
1, 87840, Note_on_c, 0, 57, 51
1, 88000, Tempo, 257654
1, 88000, Note_on_c, 0, 70, 56
1, 88000, Note_on_c, 0, 58, 47
1, 88160, Tempo, 268805
1, 88160, Note_on_c, 0, 57, 0
1, 88160, Note_on_c, 0, 69, 0
1, 88160, Note_on_c, 0, 75, 58
1, 88160, Note_on_c, 0, 63, 49
1, 88200, Note_on_c, 0, 70, 0
1, 88200, Note_on_c, 0, 58, 0
1, 88320, Note_on_c, 0, 75, 0
1, 88320, Note_on_c, 0, 63, 0
1, 88320, Note_on_c, 0, 73, 64
1, 88320, Note_on_c, 0, 61, 54
1, 88480, Tempo, 259673
1, 88480, Note_on_c, 0, 72, 53
1, 88480, Note_on_c, 0, 60, 45
1, 88520, Note_on_c, 0, 61, 0
1, 88520, Note_on_c, 0, 73, 0
1, 88640, Tempo, 269530
1, 88640, Note_on_c, 0, 71, 47
1, 88640, Note_on_c, 0, 59, 39
1, 88680, Note_on_c, 0, 72, 0
1, 88680, Note_on_c, 0, 60, 0
1, 88800, Tempo, 268805
1, 88800, Note_on_c, 0, 70, 56
1, 88800, Note_on_c, 0, 58, 47
1, 88840, Note_on_c, 0, 71, 0
1, 88840, Note_on_c, 0, 59, 0
1, 88960, Tempo, 263112
1, 88960, Note_on_c, 0, 69, 52
1, 88960, Note_on_c, 0, 57, 44
1, 89000, Note_on_c, 0, 70, 0
1, 89000, Note_on_c, 0, 58, 0
1, 89120, Tempo, 268805
1, 89120, Note_on_c, 0, 77, 56
1, 89120, Note_on_c, 0, 65, 45
1, 89160, Note_on_c, 0, 69, 0
1, 89160, Note_on_c, 0, 57, 0
1, 89280, Note_on_c, 0, 77, 0
1, 89280, Note_on_c, 0, 65, 0
1, 89280, Note_on_c, 0, 75, 64
1, 89280, Note_on_c, 0, 63, 54
1, 89440, Tempo, 264504
1, 89440, Note_on_c, 0, 74, 55
1, 89440, Note_on_c, 0, 62, 45
1, 89480, Note_on_c, 0, 63, 0
1, 89480, Note_on_c, 0, 75, 0
1, 89600, Tempo, 268085
1, 89600, Note_on_c, 0, 73, 55
1, 89600, Note_on_c, 0, 61, 45
1, 89640, Note_on_c, 0, 74, 0
1, 89640, Note_on_c, 0, 62, 0
1, 89760, Note_on_c, 0, 72, 57
1, 89760, Note_on_c, 0, 60, 48
1, 89800, Note_on_c, 0, 73, 0
1, 89800, Note_on_c, 0, 61, 0
1, 89920, Tempo, 261723
1, 89920, Note_on_c, 0, 70, 54
1, 89920, Note_on_c, 0, 58, 45
1, 89960, Note_on_c, 0, 72, 0
1, 89960, Note_on_c, 0, 60, 0
1, 90080, Tempo, 268805
1, 90080, Note_on_c, 0, 78, 58
1, 90080, Note_on_c, 0, 66, 48
1, 90120, Note_on_c, 0, 70, 0
1, 90120, Note_on_c, 0, 58, 0
1, 90240, Note_on_c, 0, 78, 0
1, 90240, Note_on_c, 0, 66, 0
1, 90240, Note_on_c, 0, 77, 67
1, 90240, Note_on_c, 0, 65, 56
1, 90400, Tempo, 263112
1, 90400, Note_on_c, 0, 75, 59
1, 90400, Note_on_c, 0, 63, 50
1, 90440, Note_on_c, 0, 65, 0
1, 90440, Note_on_c, 0, 77, 0
1, 90560, Tempo, 269530
1, 90560, Note_on_c, 0, 74, 56
1, 90560, Note_on_c, 0, 62, 47
1, 90600, Note_on_c, 0, 75, 0
1, 90600, Note_on_c, 0, 63, 0
1, 90720, Tempo, 268805
1, 90720, Note_on_c, 0, 73, 60
1, 90720, Note_on_c, 0, 61, 51
1, 90760, Note_on_c, 0, 74, 0
1, 90760, Note_on_c, 0, 62, 0
1, 90880, Tempo, 263112
1, 90880, Note_on_c, 0, 72, 58
1, 90880, Note_on_c, 0, 60, 49
1, 90920, Note_on_c, 0, 73, 0
1, 90920, Note_on_c, 0, 61, 0
1, 91040, Tempo, 273236
1, 91040, Note_on_c, 0, 81, 63
1, 91040, Note_on_c, 0, 69, 53
1, 91080, Note_on_c, 0, 72, 0
1, 91080, Note_on_c, 0, 60, 0
1, 91200, Note_on_c, 0, 81, 0
1, 91200, Note_on_c, 0, 69, 0
1, 91200, Note_on_c, 0, 72, 68
1, 91200, Note_on_c, 0, 60, 57
1, 91360, Tempo, 268085
1, 91360, Note_on_c, 0, 73, 62
1, 91360, Note_on_c, 0, 61, 52
1, 91520, Tempo, 275507
1, 91520, Note_on_c, 0, 60, 0
1, 91520, Note_on_c, 0, 72, 0
1, 91520, Note_on_c, 0, 82, 62
1, 91520, Note_on_c, 0, 70, 52
1, 91560, Note_on_c, 0, 73, 0
1, 91560, Note_on_c, 0, 61, 0
1, 91680, Note_on_c, 0, 82, 0
1, 91680, Note_on_c, 0, 70, 0
1, 91680, Note_on_c, 0, 74, 71
1, 91680, Note_on_c, 0, 62, 60
1, 91840, Tempo, 268085
1, 91840, Note_on_c, 0, 75, 62
1, 91840, Note_on_c, 0, 63, 52
1, 92000, Tempo, 277034
1, 92000, Note_on_c, 0, 62, 0
1, 92000, Note_on_c, 0, 74, 0
1, 92000, Note_on_c, 0, 82, 67
1, 92000, Note_on_c, 0, 70, 56
1, 92040, Note_on_c, 0, 75, 0
1, 92040, Note_on_c, 0, 63, 0
1, 92160, Tempo, 255667
1, 92160, Note_on_c, 0, 82, 0
1, 92160, Note_on_c, 0, 70, 0
1, 92160, Note_on_c, 0, 84, 72
1, 92160, Note_on_c, 0, 72, 61
1, 92240, Tempo, 256334
1, 92280, Tempo, 256992
1, 92320, Tempo, 257654
1, 92320, Note_on_c, 0, 82, 60
1, 92320, Note_on_c, 0, 70, 51
1, 92360, Tempo, 258331
1, 92360, Note_on_c, 0, 72, 0
1, 92360, Note_on_c, 0, 84, 0
1, 92400, Tempo, 259000
1, 92480, Tempo, 259673
1, 92480, Note_on_c, 0, 80, 56
1, 92480, Note_on_c, 0, 68, 47
1, 92520, Tempo, 260349
1, 92520, Note_on_c, 0, 82, 0
1, 92520, Note_on_c, 0, 70, 0
1, 92560, Tempo, 261040
1, 92600, Tempo, 261723
1, 92640, Tempo, 262410
1, 92640, Note_on_c, 0, 78, 62
1, 92640, Note_on_c, 0, 66, 52
1, 92680, Note_on_c, 0, 80, 0
1, 92680, Note_on_c, 0, 68, 0
1, 92720, Tempo, 263112
1, 92760, Tempo, 263806
1, 92800, Tempo, 264504
1, 92800, Note_on_c, 0, 77, 60
1, 92800, Note_on_c, 0, 65, 49
1, 92840, Tempo, 265217
1, 92840, Note_on_c, 0, 78, 0
1, 92840, Note_on_c, 0, 66, 0
1, 92880, Tempo, 265922
1, 92920, Tempo, 266631
1, 92960, Tempo, 268085
1, 92960, Note_on_c, 0, 76, 60
1, 92960, Note_on_c, 0, 64, 49
1, 93000, Note_on_c, 0, 77, 0
1, 93000, Note_on_c, 0, 65, 0
1, 93120, Note_on_c, 0, 76, 0
1, 93120, Note_on_c, 0, 64, 0
1, 93120, Note_on_c, 0, 84, 72
1, 93120, Note_on_c, 0, 72, 61
1, 93280, Tempo, 256334
1, 93280, Note_on_c, 0, 82, 62
1, 93280, Note_on_c, 0, 70, 52
1, 93320, Tempo, 256992
1, 93320, Note_on_c, 0, 72, 0
1, 93320, Note_on_c, 0, 84, 0
1, 93360, Tempo, 257654
1, 93400, Tempo, 258331
1, 93440, Tempo, 259000
1, 93440, Note_on_c, 0, 80, 59
1, 93440, Note_on_c, 0, 68, 47
1, 93480, Tempo, 259673
1, 93480, Note_on_c, 0, 82, 0
1, 93480, Note_on_c, 0, 70, 0
1, 93520, Tempo, 260349
1, 93560, Tempo, 261040
1, 93600, Tempo, 262410
1, 93600, Note_on_c, 0, 78, 63
1, 93600, Note_on_c, 0, 66, 53
1, 93640, Tempo, 263112
1, 93640, Note_on_c, 0, 80, 0
1, 93640, Note_on_c, 0, 68, 0
1, 93680, Tempo, 263806
1, 93720, Tempo, 264504
1, 93760, Tempo, 265217
1, 93760, Note_on_c, 0, 77, 59
1, 93760, Note_on_c, 0, 65, 48
1, 93800, Tempo, 265922
1, 93800, Note_on_c, 0, 78, 0
1, 93800, Note_on_c, 0, 66, 0
1, 93840, Tempo, 266631
1, 93880, Tempo, 268085
1, 93920, Tempo, 268805
1, 93920, Note_on_c, 0, 76, 58
1, 93920, Note_on_c, 0, 64, 49
1, 93960, Note_on_c, 0, 77, 0
1, 93960, Note_on_c, 0, 65, 0
1, 94080, Tempo, 259673
1, 94080, Note_on_c, 0, 76, 0
1, 94080, Note_on_c, 0, 64, 0
1, 94080, Note_on_c, 0, 78, 67
1, 94080, Note_on_c, 0, 66, 56
1, 94160, Tempo, 260349
1, 94200, Tempo, 261040
1, 94240, Note_on_c, 0, 77, 58
1, 94240, Note_on_c, 0, 65, 48
1, 94280, Tempo, 261723
1, 94280, Note_on_c, 0, 66, 0
1, 94280, Note_on_c, 0, 78, 0
1, 94320, Tempo, 262410
1, 94400, Tempo, 263112
1, 94400, Note_on_c, 0, 76, 56
1, 94400, Note_on_c, 0, 64, 47
1, 94440, Tempo, 263806
1, 94440, Note_on_c, 0, 77, 0
1, 94440, Note_on_c, 0, 65, 0
1, 94480, Tempo, 264504
1, 94560, Tempo, 265217
1, 94560, Note_on_c, 0, 75, 60
1, 94560, Note_on_c, 0, 63, 51
1, 94600, Tempo, 265922
1, 94600, Note_on_c, 0, 76, 0
1, 94600, Note_on_c, 0, 64, 0
1, 94680, Tempo, 266631
1, 94720, Tempo, 267344
1, 94720, Note_on_c, 0, 74, 56
1, 94720, Note_on_c, 0, 62, 47
1, 94760, Note_on_c, 0, 75, 0
1, 94760, Note_on_c, 0, 63, 0
1, 94800, Tempo, 268085
1, 94840, Tempo, 268805
1, 94880, Tempo, 269530
1, 94880, Note_on_c, 0, 73, 55
1, 94880, Note_on_c, 0, 61, 46
1, 94920, Note_on_c, 0, 74, 0
1, 94920, Note_on_c, 0, 62, 0
1, 95040, Note_on_c, 0, 73, 0
1, 95040, Note_on_c, 0, 61, 0
1, 95040, Note_on_c, 0, 75, 58
1, 95040, Note_on_c, 0, 63, 49
1, 95200, Tempo, 264504
1, 95200, Note_on_c, 0, 71, 54
1, 95200, Note_on_c, 0, 59, 45
1, 95240, Note_on_c, 0, 63, 0
1, 95240, Note_on_c, 0, 75, 0
1, 95360, Tempo, 268085
1, 95360, Note_on_c, 0, 72, 50
1, 95360, Note_on_c, 0, 60, 42
1, 95400, Note_on_c, 0, 71, 0
1, 95400, Note_on_c, 0, 59, 0
1, 95520, Note_on_c, 0, 73, 51
1, 95520, Note_on_c, 0, 61, 43
1, 95560, Note_on_c, 0, 72, 0
1, 95560, Note_on_c, 0, 60, 0
1, 95680, Tempo, 261723
1, 95680, Note_on_c, 0, 69, 47
1, 95680, Note_on_c, 0, 57, 40
1, 95720, Note_on_c, 0, 73, 0
1, 95720, Note_on_c, 0, 61, 0
1, 95840, Tempo, 268805
1, 95840, Note_on_c, 0, 70, 50
1, 95840, Note_on_c, 0, 58, 42
1, 95880, Note_on_c, 0, 69, 0
1, 95880, Note_on_c, 0, 57, 0
1, 96000, Note_on_c, 0, 70, 0
1, 96000, Note_on_c, 0, 58, 0
1, 96000, Note_on_c, 0, 72, 53
1, 96000, Note_on_c, 0, 60, 45
1, 96160, Tempo, 263112
1, 96160, Note_on_c, 0, 67, 45
1, 96160, Note_on_c, 0, 55, 37
1, 96320, Tempo, 269530
1, 96320, Note_on_c, 0, 60, 0
1, 96320, Note_on_c, 0, 72, 0
1, 96320, Note_on_c, 0, 68, 45
1, 96320, Note_on_c, 0, 56, 38
1, 96360, Note_on_c, 0, 67, 0
1, 96360, Note_on_c, 0, 55, 0
1, 96480, Tempo, 268805
1, 96480, Note_on_c, 0, 71, 46
1, 96480, Note_on_c, 0, 59, 39
1, 96520, Note_on_c, 0, 68, 0
1, 96520, Note_on_c, 0, 56, 0
1, 96640, Tempo, 263112
1, 96640, Note_on_c, 0, 66, 42
1, 96640, Note_on_c, 0, 54, 35
1, 96800, Tempo, 268805
1, 96800, Note_on_c, 0, 71, 0
1, 96800, Note_on_c, 0, 59, 0
1, 96800, Note_on_c, 0, 75, 39
1, 96800, Note_on_c, 0, 63, 31
1, 96840, Note_on_c, 0, 66, 0
1, 96840, Note_on_c, 0, 54, 0
1, 96960, Note_on_c, 0, 75, 0
1, 96960, Note_on_c, 0, 63, 0
1, 96960, Note_on_c, 0, 70, 46
1, 96960, Note_on_c, 0, 58, 39
1, 97120, Tempo, 264504
1, 97120, Note_on_c, 0, 65, 42
1, 97120, Note_on_c, 0, 53, 35
1, 97280, Tempo, 268085
1, 97280, Note_on_c, 0, 58, 0
1, 97280, Note_on_c, 0, 70, 0
1, 97280, Note_on_c, 0, 66, 45
1, 97280, Note_on_c, 0, 54, 37
1, 97320, Note_on_c, 0, 65, 0
1, 97320, Note_on_c, 0, 53, 0
1, 97440, Note_on_c, 0, 69, 43
1, 97440, Note_on_c, 0, 57, 39
1, 97480, Note_on_c, 0, 66, 0
1, 97480, Note_on_c, 0, 54, 0
1, 97600, Tempo, 261723
1, 97600, Note_on_c, 0, 64, 41
1, 97600, Note_on_c, 0, 52, 34
1, 97760, Tempo, 268805
1, 97760, Note_on_c, 0, 69, 0
1, 97760, Note_on_c, 0, 57, 0
1, 97760, Note_on_c, 0, 73, 39
1, 97760, Note_on_c, 0, 61, 32
1, 97800, Note_on_c, 0, 64, 0
1, 97800, Note_on_c, 0, 52, 0
1, 97920, Note_on_c, 0, 73, 0
1, 97920, Note_on_c, 0, 61, 0
1, 97920, Note_on_c, 0, 68, 51
1, 97920, Note_on_c, 0, 56, 43
1, 98080, Tempo, 263112
1, 98080, Note_on_c, 0, 63, 44
1, 98080, Note_on_c, 0, 51, 36
1, 98240, Tempo, 269530
1, 98240, Note_on_c, 0, 56, 0
1, 98240, Note_on_c, 0, 68, 0
1, 98240, Note_on_c, 0, 64, 44
1, 98240, Note_on_c, 0, 52, 36
1, 98280, Note_on_c, 0, 63, 0
1, 98280, Note_on_c, 0, 51, 0
1, 98400, Tempo, 268805
1, 98400, Note_on_c, 0, 67, 43
1, 98400, Note_on_c, 0, 55, 37
1, 98440, Note_on_c, 0, 64, 0
1, 98440, Note_on_c, 0, 52, 0
1, 98560, Tempo, 263112
1, 98560, Note_on_c, 0, 62, 41
1, 98560, Note_on_c, 0, 50, 34
1, 98720, Tempo, 268805
1, 98720, Note_on_c, 0, 67, 0
1, 98720, Note_on_c, 0, 55, 0
1, 98720, Note_on_c, 0, 71, 41
1, 98720, Note_on_c, 0, 59, 31
1, 98760, Note_on_c, 0, 62, 0
1, 98760, Note_on_c, 0, 50, 0
1, 98880, Note_on_c, 0, 71, 0
1, 98880, Note_on_c, 0, 59, 0
1, 98880, Note_on_c, 0, 66, 47
1, 98880, Note_on_c, 0, 54, 39
1, 99040, Tempo, 264504
1, 99040, Note_on_c, 0, 61, 40
1, 99040, Note_on_c, 0, 49, 34
1, 99200, Tempo, 268085
1, 99200, Note_on_c, 0, 54, 0
1, 99200, Note_on_c, 0, 66, 0
1, 99200, Note_on_c, 0, 62, 40
1, 99200, Note_on_c, 0, 50, 34
1, 99240, Note_on_c, 0, 61, 0
1, 99240, Note_on_c, 0, 49, 0
1, 99360, Note_on_c, 0, 65, 44
1, 99360, Note_on_c, 0, 53, 36
1, 99400, Note_on_c, 0, 62, 0
1, 99400, Note_on_c, 0, 50, 0
1, 99520, Tempo, 261723
1, 99520, Note_on_c, 0, 60, 38
1, 99520, Note_on_c, 0, 48, 32
1, 99680, Tempo, 268805
1, 99680, Note_on_c, 0, 65, 0
1, 99680, Note_on_c, 0, 53, 0
1, 99680, Note_on_c, 0, 69, 40
1, 99680, Note_on_c, 0, 57, 32
1, 99720, Note_on_c, 0, 60, 0
1, 99720, Note_on_c, 0, 48, 0
1, 99840, Note_on_c, 0, 69, 0
1, 99840, Note_on_c, 0, 57, 0
1, 99840, Note_on_c, 0, 74, 49
1, 99840, Note_on_c, 0, 62, 41
1, 100000, Tempo, 256992
1, 100000, Note_on_c, 0, 69, 42
1, 100000, Note_on_c, 0, 57, 35
1, 100160, Tempo, 264504
1, 100160, Note_on_c, 0, 62, 0
1, 100160, Note_on_c, 0, 74, 0
1, 100160, Note_on_c, 0, 70, 45
1, 100160, Note_on_c, 0, 58, 38
1, 100200, Note_on_c, 0, 69, 0
1, 100200, Note_on_c, 0, 57, 0
1, 100320, Tempo, 265922
1, 100320, Note_on_c, 0, 73, 48
1, 100320, Note_on_c, 0, 61, 41
1, 100360, Note_on_c, 0, 70, 0
1, 100360, Note_on_c, 0, 58, 0
1, 100480, Tempo, 258331
1, 100480, Note_on_c, 0, 68, 42
1, 100480, Note_on_c, 0, 56, 35
1, 100640, Tempo, 265217
1, 100640, Note_on_c, 0, 73, 0
1, 100640, Note_on_c, 0, 61, 0
1, 100640, Note_on_c, 0, 77, 39
1, 100640, Note_on_c, 0, 65, 30
1, 100680, Note_on_c, 0, 68, 0
1, 100680, Note_on_c, 0, 56, 0
1, 100800, Note_on_c, 0, 77, 0
1, 100800, Note_on_c, 0, 65, 0
1, 100800, Note_on_c, 0, 72, 47
1, 100800, Note_on_c, 0, 60, 40
1, 100960, Tempo, 259673
1, 100960, Note_on_c, 0, 67, 42
1, 100960, Note_on_c, 0, 55, 35
1, 101120, Tempo, 268085
1, 101120, Note_on_c, 0, 60, 0
1, 101120, Note_on_c, 0, 72, 0
1, 101120, Note_on_c, 0, 68, 42
1, 101120, Note_on_c, 0, 56, 35
1, 101160, Note_on_c, 0, 67, 0
1, 101160, Note_on_c, 0, 55, 0
1, 101280, Note_on_c, 0, 71, 44
1, 101280, Note_on_c, 0, 59, 36
1, 101320, Note_on_c, 0, 68, 0
1, 101320, Note_on_c, 0, 56, 0
1, 101440, Tempo, 261723
1, 101440, Note_on_c, 0, 66, 43
1, 101440, Note_on_c, 0, 54, 35
1, 101600, Tempo, 268805
1, 101600, Note_on_c, 0, 71, 0
1, 101600, Note_on_c, 0, 59, 0
1, 101600, Note_on_c, 0, 75, 39
1, 101600, Note_on_c, 0, 63, 32
1, 101640, Note_on_c, 0, 66, 0
1, 101640, Note_on_c, 0, 54, 0
1, 101760, Note_on_c, 0, 75, 0
1, 101760, Note_on_c, 0, 63, 0
1, 101760, Note_on_c, 0, 70, 47
1, 101760, Note_on_c, 0, 58, 39
1, 101920, Tempo, 263112
1, 101920, Note_on_c, 0, 65, 39
1, 101920, Note_on_c, 0, 53, 33
1, 102080, Tempo, 269530
1, 102080, Note_on_c, 0, 58, 0
1, 102080, Note_on_c, 0, 70, 0
1, 102080, Note_on_c, 0, 66, 41
1, 102080, Note_on_c, 0, 54, 34
1, 102120, Note_on_c, 0, 65, 0
1, 102120, Note_on_c, 0, 53, 0
1, 102240, Tempo, 268805
1, 102240, Note_on_c, 0, 69, 41
1, 102240, Note_on_c, 0, 57, 35
1, 102280, Note_on_c, 0, 66, 0
1, 102280, Note_on_c, 0, 54, 0
1, 102400, Tempo, 263112
1, 102400, Note_on_c, 0, 64, 39
1, 102400, Note_on_c, 0, 52, 32
1, 102560, Tempo, 268805
1, 102560, Note_on_c, 0, 69, 0
1, 102560, Note_on_c, 0, 57, 0
1, 102560, Note_on_c, 0, 73, 39
1, 102560, Note_on_c, 0, 61, 32
1, 102600, Note_on_c, 0, 64, 0
1, 102600, Note_on_c, 0, 52, 0
1, 102720, Note_on_c, 0, 73, 0
1, 102720, Note_on_c, 0, 61, 0
1, 102720, Note_on_c, 0, 68, 44
1, 102720, Note_on_c, 0, 56, 37
1, 102880, Tempo, 264504
1, 102880, Note_on_c, 0, 63, 39
1, 102880, Note_on_c, 0, 51, 33
1, 103040, Tempo, 268085
1, 103040, Note_on_c, 0, 56, 0
1, 103040, Note_on_c, 0, 68, 0
1, 103040, Note_on_c, 0, 64, 41
1, 103040, Note_on_c, 0, 52, 34
1, 103080, Note_on_c, 0, 63, 0
1, 103080, Note_on_c, 0, 51, 0
1, 103200, Note_on_c, 0, 67, 42
1, 103200, Note_on_c, 0, 55, 36
1, 103240, Note_on_c, 0, 64, 0
1, 103240, Note_on_c, 0, 52, 0
1, 103360, Tempo, 261723
1, 103360, Note_on_c, 0, 62, 39
1, 103360, Note_on_c, 0, 50, 33
1, 103520, Tempo, 268805
1, 103520, Note_on_c, 0, 67, 0
1, 103520, Note_on_c, 0, 55, 0
1, 103520, Note_on_c, 0, 71, 43
1, 103520, Note_on_c, 0, 59, 35
1, 103560, Note_on_c, 0, 62, 0
1, 103560, Note_on_c, 0, 50, 0
1, 103680, Note_on_c, 0, 71, 0
1, 103680, Note_on_c, 0, 59, 0
1, 103680, Note_on_c, 0, 76, 53
1, 103680, Note_on_c, 0, 64, 45
1, 103840, Tempo, 257654
1, 103840, Note_on_c, 0, 71, 39
1, 103840, Note_on_c, 0, 59, 33
1, 104000, Tempo, 265217
1, 104000, Note_on_c, 0, 64, 0
1, 104000, Note_on_c, 0, 76, 0
1, 104000, Note_on_c, 0, 72, 45
1, 104000, Note_on_c, 0, 60, 38
1, 104040, Note_on_c, 0, 71, 0
1, 104040, Note_on_c, 0, 59, 0
1, 104160, Tempo, 265922
1, 104160, Note_on_c, 0, 75, 45
1, 104160, Note_on_c, 0, 63, 38
1, 104200, Note_on_c, 0, 72, 0
1, 104200, Note_on_c, 0, 60, 0
1, 104320, Tempo, 259000
1, 104320, Note_on_c, 0, 70, 39
1, 104320, Note_on_c, 0, 58, 32
1, 104480, Tempo, 265217
1, 104480, Note_on_c, 0, 75, 0
1, 104480, Note_on_c, 0, 63, 0
1, 104480, Note_on_c, 0, 79, 42
1, 104480, Note_on_c, 0, 67, 36
1, 104520, Note_on_c, 0, 70, 0
1, 104520, Note_on_c, 0, 58, 0
1, 104640, Note_on_c, 0, 79, 0
1, 104640, Note_on_c, 0, 67, 0
1, 104640, Note_on_c, 0, 74, 51
1, 104640, Note_on_c, 0, 62, 40
1, 104800, Tempo, 260349
1, 104800, Note_on_c, 0, 69, 38
1, 104800, Note_on_c, 0, 57, 32
1, 104960, Tempo, 268085
1, 104960, Note_on_c, 0, 62, 0
1, 104960, Note_on_c, 0, 74, 0
1, 104960, Note_on_c, 0, 70, 42
1, 104960, Note_on_c, 0, 58, 35
1, 105000, Note_on_c, 0, 69, 0
1, 105000, Note_on_c, 0, 57, 0
1, 105120, Note_on_c, 0, 73, 43
1, 105120, Note_on_c, 0, 61, 35
1, 105160, Note_on_c, 0, 70, 0
1, 105160, Note_on_c, 0, 58, 0
1, 105280, Tempo, 261723
1, 105280, Note_on_c, 0, 68, 38
1, 105280, Note_on_c, 0, 56, 32
1, 105440, Tempo, 268805
1, 105440, Note_on_c, 0, 73, 0
1, 105440, Note_on_c, 0, 61, 0
1, 105440, Note_on_c, 0, 77, 39
1, 105440, Note_on_c, 0, 65, 32
1, 105480, Note_on_c, 0, 68, 0
1, 105480, Note_on_c, 0, 56, 0
1, 105600, Note_on_c, 0, 77, 0
1, 105600, Note_on_c, 0, 65, 0
1, 105600, Note_on_c, 0, 72, 49
1, 105600, Note_on_c, 0, 60, 41
1, 105760, Tempo, 263112
1, 105760, Note_on_c, 0, 67, 38
1, 105760, Note_on_c, 0, 55, 32
1, 105920, Tempo, 269530
1, 105920, Note_on_c, 0, 60, 0
1, 105920, Note_on_c, 0, 72, 0
1, 105920, Note_on_c, 0, 68, 39
1, 105920, Note_on_c, 0, 56, 33
1, 105960, Note_on_c, 0, 67, 0
1, 105960, Note_on_c, 0, 55, 0
1, 106080, Tempo, 268805
1, 106080, Note_on_c, 0, 71, 39
1, 106080, Note_on_c, 0, 59, 34
1, 106120, Note_on_c, 0, 68, 0
1, 106120, Note_on_c, 0, 56, 0
1, 106240, Tempo, 263112
1, 106240, Note_on_c, 0, 66, 36
1, 106240, Note_on_c, 0, 54, 31
1, 106400, Tempo, 268805
1, 106400, Note_on_c, 0, 71, 0
1, 106400, Note_on_c, 0, 59, 0
1, 106400, Note_on_c, 0, 75, 37
1, 106400, Note_on_c, 0, 63, 31
1, 106440, Note_on_c, 0, 66, 0
1, 106440, Note_on_c, 0, 54, 0
1, 106560, Note_on_c, 0, 75, 0
1, 106560, Note_on_c, 0, 63, 0
1, 106560, Note_on_c, 0, 70, 47
1, 106560, Note_on_c, 0, 58, 39
1, 106720, Tempo, 264504
1, 106720, Note_on_c, 0, 65, 36
1, 106720, Note_on_c, 0, 53, 31
1, 106880, Tempo, 268085
1, 106880, Note_on_c, 0, 58, 0
1, 106880, Note_on_c, 0, 70, 0
1, 106880, Note_on_c, 0, 75, 39
1, 106880, Note_on_c, 0, 63, 33
1, 106920, Note_on_c, 0, 65, 0
1, 106920, Note_on_c, 0, 53, 0
1, 107040, Note_on_c, 0, 70, 41
1, 107040, Note_on_c, 0, 58, 34
1, 107080, Note_on_c, 0, 75, 0
1, 107080, Note_on_c, 0, 63, 0
1, 107200, Tempo, 261723
1, 107200, Note_on_c, 0, 65, 34
1, 107200, Note_on_c, 0, 53, 29
1, 107360, Tempo, 268805
1, 107360, Note_on_c, 0, 70, 0
1, 107360, Note_on_c, 0, 58, 0
1, 107360, Note_on_c, 0, 73, 39
1, 107360, Note_on_c, 0, 61, 32
1, 107400, Note_on_c, 0, 65, 0
1, 107400, Note_on_c, 0, 53, 0
1, 107520, Tempo, 259000
1, 107520, Note_on_c, 0, 73, 0
1, 107520, Note_on_c, 0, 61, 0
1, 107520, Note_on_c, 0, 66, 49
1, 107520, Note_on_c, 0, 54, 41
1, 107600, Tempo, 259673
1, 107640, Tempo, 260349
1, 107680, Note_on_c, 0, 65, 42
1, 107680, Note_on_c, 0, 53, 35
1, 107720, Tempo, 261040
1, 107720, Note_on_c, 0, 54, 0
1, 107720, Note_on_c, 0, 66, 0
1, 107760, Tempo, 261723
1, 107840, Tempo, 262410
1, 107840, Note_on_c, 0, 64, 39
1, 107840, Note_on_c, 0, 52, 33
1, 107880, Tempo, 263112
1, 107880, Note_on_c, 0, 65, 0
1, 107880, Note_on_c, 0, 53, 0
1, 107960, Tempo, 263806
1, 108000, Tempo, 264504
1, 108000, Note_on_c, 0, 63, 43
1, 108000, Note_on_c, 0, 51, 36
1, 108040, Note_on_c, 0, 64, 0
1, 108040, Note_on_c, 0, 52, 0
1, 108080, Tempo, 265217
1, 108120, Tempo, 265922
1, 108160, Note_on_c, 0, 61, 43
1, 108160, Note_on_c, 0, 49, 35
1, 108200, Tempo, 266631
1, 108200, Note_on_c, 0, 63, 0
1, 108200, Note_on_c, 0, 51, 0
1, 108240, Tempo, 267344
1, 108280, Tempo, 268085
1, 108320, Tempo, 268805
1, 108320, Note_on_c, 0, 60, 42
1, 108320, Note_on_c, 0, 48, 35
1, 108360, Note_on_c, 0, 61, 0
1, 108360, Note_on_c, 0, 49, 0
1, 108480, Tempo, 257654
1, 108480, Note_on_c, 0, 60, 0
1, 108480, Note_on_c, 0, 48, 0
1, 108480, Note_on_c, 0, 66, 49
1, 108480, Note_on_c, 0, 54, 41
1, 108600, Tempo, 258331
1, 108640, Tempo, 258331
1, 108640, Note_on_c, 0, 65, 42
1, 108640, Note_on_c, 0, 53, 35
1, 108680, Note_on_c, 0, 54, 0
1, 108680, Note_on_c, 0, 66, 0
1, 108720, Tempo, 259000
1, 108760, Tempo, 259673
1, 108800, Tempo, 260349
1, 108800, Note_on_c, 0, 63, 42
1, 108800, Note_on_c, 0, 51, 35
1, 108840, Tempo, 261040
1, 108840, Note_on_c, 0, 65, 0
1, 108840, Note_on_c, 0, 53, 0
1, 108880, Tempo, 261723
1, 108920, Tempo, 262410
1, 108960, Note_on_c, 0, 61, 45
1, 108960, Note_on_c, 0, 49, 38
1, 109000, Tempo, 263112
1, 109000, Note_on_c, 0, 63, 0
1, 109000, Note_on_c, 0, 51, 0
1, 109040, Tempo, 263806
1, 109080, Tempo, 264504
1, 109120, Tempo, 265217
1, 109120, Note_on_c, 0, 60, 44
1, 109120, Note_on_c, 0, 48, 37
1, 109160, Tempo, 265922
1, 109160, Note_on_c, 0, 61, 0
1, 109160, Note_on_c, 0, 49, 0
1, 109200, Tempo, 266631
1, 109240, Tempo, 267344
1, 109280, Tempo, 268805
1, 109280, Note_on_c, 0, 58, 42
1, 109280, Note_on_c, 0, 46, 35
1, 109320, Note_on_c, 0, 60, 0
1, 109320, Note_on_c, 0, 48, 0
1, 109440, Tempo, 259000
1, 109440, Note_on_c, 0, 58, 0
1, 109440, Note_on_c, 0, 46, 0
1, 109440, Note_on_c, 0, 66, 49
1, 109440, Note_on_c, 0, 54, 41
1, 109520, Tempo, 259673
1, 109560, Tempo, 260349
1, 109600, Note_on_c, 0, 65, 45
1, 109600, Note_on_c, 0, 53, 38
1, 109640, Tempo, 261040
1, 109640, Note_on_c, 0, 54, 0
1, 109640, Note_on_c, 0, 66, 0
1, 109680, Tempo, 261723
1, 109720, Tempo, 262410
1, 109760, Note_on_c, 0, 63, 42
1, 109760, Note_on_c, 0, 51, 35
1, 109800, Tempo, 263112
1, 109800, Note_on_c, 0, 65, 0
1, 109800, Note_on_c, 0, 53, 0
1, 109840, Tempo, 263806
1, 109880, Tempo, 264504
1, 109920, Note_on_c, 0, 61, 45
1, 109920, Note_on_c, 0, 49, 38
1, 109960, Tempo, 265217
1, 109960, Note_on_c, 0, 63, 0
1, 109960, Note_on_c, 0, 51, 0
1, 110000, Tempo, 265922
1, 110040, Tempo, 266631
1, 110080, Note_on_c, 0, 60, 44
1, 110080, Note_on_c, 0, 48, 37
1, 110120, Tempo, 267344
1, 110120, Note_on_c, 0, 61, 0
1, 110120, Note_on_c, 0, 49, 0
1, 110160, Tempo, 268085
1, 110200, Tempo, 268805
1, 110240, Tempo, 268805
1, 110240, Note_on_c, 0, 59, 42
1, 110240, Note_on_c, 0, 47, 35
1, 110280, Note_on_c, 0, 60, 0
1, 110280, Note_on_c, 0, 48, 0
1, 110400, Tempo, 260349
1, 110400, Note_on_c, 0, 59, 0
1, 110400, Note_on_c, 0, 47, 0
1, 110400, Note_on_c, 0, 66, 49
1, 110400, Note_on_c, 0, 54, 41
1, 110480, Tempo, 261040
1, 110520, Tempo, 261723
1, 110560, Note_on_c, 0, 65, 45
1, 110560, Note_on_c, 0, 53, 38
1, 110600, Tempo, 262410
1, 110600, Note_on_c, 0, 54, 0
1, 110600, Note_on_c, 0, 66, 0
1, 110640, Tempo, 263112
1, 110680, Tempo, 263806
1, 110720, Note_on_c, 0, 63, 42
1, 110720, Note_on_c, 0, 51, 35
1, 110760, Tempo, 264504
1, 110760, Note_on_c, 0, 65, 0
1, 110760, Note_on_c, 0, 53, 0
1, 110800, Tempo, 265217
1, 110880, Tempo, 265922
1, 110880, Note_on_c, 0, 61, 45
1, 110880, Note_on_c, 0, 49, 38
1, 110920, Tempo, 266631
1, 110920, Note_on_c, 0, 63, 0
1, 110920, Note_on_c, 0, 51, 0
1, 110960, Tempo, 267344
1, 111040, Tempo, 268085
1, 111040, Note_on_c, 0, 59, 44
1, 111040, Note_on_c, 0, 47, 37
1, 111080, Tempo, 268805
1, 111080, Note_on_c, 0, 61, 0
1, 111080, Note_on_c, 0, 49, 0
1, 111120, Tempo, 269530
1, 111200, Tempo, 268805
1, 111200, Note_on_c, 0, 58, 42
1, 111200, Note_on_c, 0, 46, 35
1, 111240, Note_on_c, 0, 59, 0
1, 111240, Note_on_c, 0, 47, 0
1, 111360, Note_on_c, 0, 58, 0
1, 111360, Note_on_c, 0, 46, 0
1, 111360, Note_on_c, 0, 57, 45
1, 111360, Note_on_c, 0, 45, 38
1, 111400, Tempo, 269530
1, 111480, Tempo, 268805
1, 111520, Note_on_c, 0, 58, 43
1, 111520, Note_on_c, 0, 46, 36
1, 111560, Tempo, 268085
1, 111560, Note_on_c, 0, 45, 0
1, 111560, Note_on_c, 0, 57, 0
1, 111600, Tempo, 267344
1, 111680, Tempo, 266631
1, 111680, Note_on_c, 0, 60, 43
1, 111680, Note_on_c, 0, 48, 36
1, 111720, Note_on_c, 0, 58, 0
1, 111720, Note_on_c, 0, 46, 0
1, 111760, Tempo, 265922
1, 111800, Tempo, 265217
1, 111840, Note_on_c, 0, 63, 44
1, 111840, Note_on_c, 0, 51, 35
1, 111880, Tempo, 264504
1, 111880, Note_on_c, 0, 60, 0
1, 111880, Note_on_c, 0, 48, 0
1, 111960, Tempo, 263806
1, 112000, Tempo, 263112
1, 112000, Note_on_c, 0, 61, 41
1, 112000, Note_on_c, 0, 49, 34
1, 112040, Note_on_c, 0, 63, 0
1, 112040, Note_on_c, 0, 51, 0
1, 112160, Tempo, 268805
1, 112160, Note_on_c, 0, 57, 40
1, 112160, Note_on_c, 0, 45, 34
1, 112200, Note_on_c, 0, 61, 0
1, 112200, Note_on_c, 0, 49, 0
1, 112320, Note_on_c, 0, 57, 0
1, 112320, Note_on_c, 0, 45, 0
1, 112320, Note_on_c, 0, 60, 45
1, 112320, Note_on_c, 0, 48, 38
1, 112480, Tempo, 264504
1, 112480, Note_on_c, 0, 58, 40
1, 112480, Note_on_c, 0, 46, 34
1, 112520, Note_on_c, 0, 48, 0
1, 112520, Note_on_c, 0, 60, 0
1, 112640, Tempo, 268085
1, 112640, Note_on_c, 0, 53, 40
1, 112640, Note_on_c, 0, 41, 34
1, 112680, Note_on_c, 0, 58, 0
1, 112680, Note_on_c, 0, 46, 0
1, 112800, Note_on_c, 0, 56, 41
1, 112800, Note_on_c, 0, 44, 34
1, 112840, Note_on_c, 0, 53, 0
1, 112840, Note_on_c, 0, 41, 0
1, 112960, Tempo, 261723
1, 112960, Note_on_c, 0, 54, 40
1, 112960, Note_on_c, 0, 42, 34
1, 113000, Note_on_c, 0, 56, 0
1, 113000, Note_on_c, 0, 44, 0
1, 113120, Tempo, 268805
1, 113120, Note_on_c, 0, 53, 40
1, 113120, Note_on_c, 0, 41, 34
1, 113160, Note_on_c, 0, 54, 0
1, 113160, Note_on_c, 0, 42, 0
1, 113280, Tempo, 269530
1, 113280, Note_on_c, 0, 53, 0
1, 113280, Note_on_c, 0, 41, 0
1, 113280, Note_on_c, 0, 51, 45
1, 113280, Note_on_c, 0, 39, 38
1, 113360, Tempo, 268805
1, 113400, Tempo, 268085
1, 113440, Tempo, 267344
1, 113440, Note_on_c, 0, 53, 43
1, 113440, Note_on_c, 0, 41, 36
1, 113480, Note_on_c, 0, 39, 0
1, 113480, Note_on_c, 0, 51, 0
1, 113520, Tempo, 266631
1, 113560, Tempo, 265922
1, 113600, Tempo, 265217
1, 113600, Note_on_c, 0, 54, 43
1, 113600, Note_on_c, 0, 42, 36
1, 113640, Tempo, 264504
1, 113640, Note_on_c, 0, 53, 0
1, 113640, Note_on_c, 0, 41, 0
1, 113720, Tempo, 263806
1, 113760, Tempo, 263112
1, 113760, Note_on_c, 0, 58, 44
1, 113760, Note_on_c, 0, 46, 36
1, 113800, Tempo, 262410
1, 113800, Note_on_c, 0, 54, 0
1, 113800, Note_on_c, 0, 42, 0
1, 113840, Tempo, 261723
1, 113920, Tempo, 263112
1, 113920, Note_on_c, 0, 56, 41
1, 113920, Note_on_c, 0, 44, 34
1, 113960, Note_on_c, 0, 58, 0
1, 113960, Note_on_c, 0, 46, 0
1, 114080, Tempo, 268805
1, 114080, Note_on_c, 0, 54, 40
1, 114080, Note_on_c, 0, 42, 34
1, 114120, Note_on_c, 0, 56, 0
1, 114120, Note_on_c, 0, 44, 0
1, 114240, Note_on_c, 0, 54, 0
1, 114240, Note_on_c, 0, 42, 0
1, 114240, Note_on_c, 0, 53, 44
1, 114240, Note_on_c, 0, 41, 37
1, 114400, Tempo, 264504
1, 114400, Note_on_c, 0, 49, 40
1, 114400, Note_on_c, 0, 37, 34
1, 114440, Note_on_c, 0, 41, 0
1, 114440, Note_on_c, 0, 53, 0
1, 114560, Tempo, 268085
1, 114560, Note_on_c, 0, 51, 40
1, 114560, Note_on_c, 0, 39, 34
1, 114600, Note_on_c, 0, 49, 0
1, 114600, Note_on_c, 0, 37, 0
1, 114720, Note_on_c, 0, 53, 43
1, 114720, Note_on_c, 0, 41, 36
1, 114760, Note_on_c, 0, 51, 0
1, 114760, Note_on_c, 0, 39, 0
1, 114880, Tempo, 261723
1, 114880, Note_on_c, 0, 52, 40
1, 114880, Note_on_c, 0, 40, 34
1, 114920, Note_on_c, 0, 53, 0
1, 114920, Note_on_c, 0, 41, 0
1, 115040, Tempo, 268805
1, 115040, Note_on_c, 0, 53, 40
1, 115040, Note_on_c, 0, 41, 34
1, 115080, Note_on_c, 0, 52, 0
1, 115080, Note_on_c, 0, 40, 0
1, 115200, Tempo, 261723
1, 115200, Note_on_c, 0, 53, 0
1, 115200, Note_on_c, 0, 41, 0
1, 115200, Note_on_c, 0, 54, 44
1, 115200, Note_on_c, 0, 42, 37
1, 115280, Tempo, 262410
1, 115360, Tempo, 263112
1, 115360, Note_on_c, 0, 53, 39
1, 115360, Note_on_c, 0, 41, 33
1, 115400, Note_on_c, 0, 42, 0
1, 115400, Note_on_c, 0, 54, 0
1, 115440, Tempo, 263806
1, 115520, Tempo, 264504
1, 115520, Note_on_c, 0, 52, 39
1, 115520, Note_on_c, 0, 40, 33
1, 115560, Tempo, 265217
1, 115560, Note_on_c, 0, 53, 0
1, 115560, Note_on_c, 0, 41, 0
1, 115640, Tempo, 265922
1, 115680, Note_on_c, 0, 51, 39
1, 115680, Note_on_c, 0, 39, 33
1, 115720, Tempo, 266631
1, 115720, Note_on_c, 0, 52, 0
1, 115720, Note_on_c, 0, 40, 0
1, 115800, Tempo, 267344
1, 115840, Note_on_c, 0, 49, 36
1, 115840, Note_on_c, 0, 37, 30
1, 115880, Tempo, 268085
1, 115880, Note_on_c, 0, 51, 0
1, 115880, Note_on_c, 0, 39, 0
1, 115920, Tempo, 268805
1, 116000, Tempo, 268805
1, 116000, Note_on_c, 0, 48, 37
1, 116000, Note_on_c, 0, 36, 31
1, 116040, Note_on_c, 0, 49, 0
1, 116040, Note_on_c, 0, 37, 0
1, 116160, Tempo, 259673
1, 116160, Note_on_c, 0, 48, 0
1, 116160, Note_on_c, 0, 36, 0
1, 116160, Note_on_c, 0, 54, 44
1, 116160, Note_on_c, 0, 42, 37
1, 116240, Tempo, 260349
1, 116320, Tempo, 261040
1, 116320, Note_on_c, 0, 53, 39
1, 116320, Note_on_c, 0, 41, 33
1, 116360, Note_on_c, 0, 42, 0
1, 116360, Note_on_c, 0, 54, 0
1, 116400, Tempo, 261723
1, 116480, Tempo, 262410
1, 116480, Note_on_c, 0, 51, 39
1, 116480, Note_on_c, 0, 39, 33
1, 116520, Tempo, 263112
1, 116520, Note_on_c, 0, 53, 0
1, 116520, Note_on_c, 0, 41, 0
1, 116600, Tempo, 263806
1, 116640, Note_on_c, 0, 49, 39
1, 116640, Note_on_c, 0, 37, 33
1, 116680, Tempo, 264504
1, 116680, Note_on_c, 0, 51, 0
1, 116680, Note_on_c, 0, 39, 0
1, 116760, Tempo, 265217
1, 116800, Note_on_c, 0, 48, 36
1, 116800, Note_on_c, 0, 36, 30
1, 116840, Tempo, 265922
1, 116840, Note_on_c, 0, 49, 0
1, 116840, Note_on_c, 0, 37, 0
1, 116880, Tempo, 266631
1, 116960, Tempo, 268805
1, 116960, Note_on_c, 0, 46, 37
1, 116960, Note_on_c, 0, 34, 31
1, 117000, Note_on_c, 0, 48, 0
1, 117000, Note_on_c, 0, 36, 0
1, 117080, Tempo, 261040
1, 117120, Note_on_c, 0, 46, 0
1, 117120, Note_on_c, 0, 34, 0
1, 117120, Note_on_c, 0, 54, 44
1, 117120, Note_on_c, 0, 42, 37
1, 117160, Tempo, 261723
1, 117240, Tempo, 262410
1, 117280, Note_on_c, 0, 53, 39
1, 117280, Note_on_c, 0, 41, 33
1, 117320, Tempo, 263112
1, 117320, Note_on_c, 0, 42, 0
1, 117320, Note_on_c, 0, 54, 0
1, 117360, Tempo, 263806
1, 117440, Tempo, 264504
1, 117440, Note_on_c, 0, 51, 39
1, 117440, Note_on_c, 0, 39, 33
1, 117480, Note_on_c, 0, 53, 0
1, 117480, Note_on_c, 0, 41, 0
1, 117520, Tempo, 265217
1, 117600, Tempo, 265922
1, 117600, Note_on_c, 0, 49, 39
1, 117600, Note_on_c, 0, 37, 33
1, 117640, Tempo, 266631
1, 117640, Note_on_c, 0, 51, 0
1, 117640, Note_on_c, 0, 39, 0
1, 117720, Tempo, 267344
1, 117760, Note_on_c, 0, 48, 36
1, 117760, Note_on_c, 0, 36, 30
1, 117800, Tempo, 268085
1, 117800, Note_on_c, 0, 49, 0
1, 117800, Note_on_c, 0, 37, 0
1, 117840, Tempo, 268805
1, 117920, Tempo, 268805
1, 117920, Note_on_c, 0, 47, 37
1, 117920, Note_on_c, 0, 35, 31
1, 117960, Note_on_c, 0, 48, 0
1, 117960, Note_on_c, 0, 36, 0
1, 118080, Tempo, 258331
1, 118080, Note_on_c, 0, 47, 0
1, 118080, Note_on_c, 0, 35, 0
1, 118080, Note_on_c, 0, 54, 44
1, 118080, Note_on_c, 0, 42, 37
1, 118160, Tempo, 259000
1, 118200, Tempo, 259673
1, 118240, Tempo, 260349
1, 118240, Note_on_c, 0, 53, 39
1, 118240, Note_on_c, 0, 41, 33
1, 118280, Tempo, 261040
1, 118280, Note_on_c, 0, 42, 0
1, 118280, Note_on_c, 0, 54, 0
1, 118360, Tempo, 261723
1, 118400, Tempo, 262410
1, 118400, Note_on_c, 0, 51, 39
1, 118400, Note_on_c, 0, 39, 33
1, 118440, Tempo, 263112
1, 118440, Note_on_c, 0, 53, 0
1, 118440, Note_on_c, 0, 41, 0
1, 118480, Tempo, 263806
1, 118560, Tempo, 264504
1, 118560, Note_on_c, 0, 49, 39
1, 118560, Note_on_c, 0, 37, 33
1, 118600, Tempo, 265217
1, 118600, Note_on_c, 0, 51, 0
1, 118600, Note_on_c, 0, 39, 0
1, 118640, Tempo, 265922
1, 118680, Tempo, 266631
1, 118720, Note_on_c, 0, 47, 36
1, 118720, Note_on_c, 0, 35, 30
1, 118760, Tempo, 267344
1, 118760, Note_on_c, 0, 49, 0
1, 118760, Note_on_c, 0, 37, 0
1, 118800, Tempo, 268085
1, 118840, Tempo, 268805
1, 118880, Tempo, 269530
1, 118880, Note_on_c, 0, 46, 37
1, 118880, Note_on_c, 0, 34, 31
1, 118920, Note_on_c, 0, 47, 0
1, 118920, Note_on_c, 0, 35, 0
1, 119040, Tempo, 271003
1, 119040, Note_on_c, 0, 46, 0
1, 119040, Note_on_c, 0, 34, 0
1, 119040, Note_on_c, 0, 45, 41
1, 119040, Note_on_c, 0, 33, 34
1, 119160, Tempo, 270270
1, 119200, Note_on_c, 0, 46, 36
1, 119200, Note_on_c, 0, 34, 30
1, 119240, Note_on_c, 0, 33, 0
1, 119240, Note_on_c, 0, 45, 0
1, 119280, Tempo, 269530
1, 119360, Tempo, 268805
1, 119360, Note_on_c, 0, 47, 37
1, 119360, Note_on_c, 0, 35, 31
1, 119400, Note_on_c, 0, 46, 0
1, 119400, Note_on_c, 0, 34, 0
1, 119480, Tempo, 268085
1, 119520, Note_on_c, 0, 49, 45
1, 119520, Note_on_c, 0, 37, 38
1, 119560, Tempo, 267344
1, 119560, Note_on_c, 0, 47, 0
1, 119560, Note_on_c, 0, 35, 0
1, 119680, Tempo, 266631
1, 119680, Note_on_c, 0, 51, 39
1, 119680, Note_on_c, 0, 39, 33
1, 119720, Note_on_c, 0, 49, 0
1, 119720, Note_on_c, 0, 37, 0
1, 119760, Tempo, 265922
1, 119840, Note_on_c, 0, 53, 40
1, 119840, Note_on_c, 0, 41, 34
1, 119880, Tempo, 265217
1, 119880, Note_on_c, 0, 51, 0
1, 119880, Note_on_c, 0, 39, 0
1, 119960, Tempo, 264504
1, 120000, Note_on_c, 0, 53, 0
1, 120000, Note_on_c, 0, 41, 0
1, 120000, Note_on_c, 0, 54, 49
1, 120000, Note_on_c, 0, 42, 41
1, 120051, Control_c, 0, 64, 127
1, 120080, Tempo, 263806
1, 120160, Tempo, 263112
1, 120160, Note_on_c, 0, 56, 45
1, 120160, Note_on_c, 0, 44, 38
1, 120200, Note_on_c, 0, 42, 0
1, 120200, Note_on_c, 0, 54, 0
1, 120280, Tempo, 262410
1, 120320, Note_on_c, 0, 58, 46
1, 120320, Note_on_c, 0, 46, 39
1, 120360, Tempo, 261723
1, 120360, Note_on_c, 0, 56, 0
1, 120360, Note_on_c, 0, 44, 0
1, 120480, Tempo, 261040
1, 120480, Note_on_c, 0, 59, 54
1, 120480, Note_on_c, 0, 47, 45
1, 120520, Note_on_c, 0, 58, 0
1, 120520, Note_on_c, 0, 46, 0
1, 120560, Tempo, 260349
1, 120640, Note_on_c, 0, 61, 51
1, 120640, Note_on_c, 0, 49, 43
1, 120680, Tempo, 259673
1, 120680, Note_on_c, 0, 59, 0
1, 120680, Note_on_c, 0, 47, 0
1, 120760, Tempo, 259000
1, 120800, Note_on_c, 0, 63, 51
1, 120800, Note_on_c, 0, 51, 43
1, 120840, Note_on_c, 0, 61, 0
1, 120840, Note_on_c, 0, 49, 0
1, 120880, Tempo, 258331
1, 120960, Tempo, 257654
1, 120960, Note_on_c, 0, 63, 0
1, 120960, Note_on_c, 0, 51, 0
1, 120960, Note_on_c, 0, 65, 58
1, 120960, Note_on_c, 0, 53, 49
1, 120978, Control_c, 0, 64, 0
1, 121040, Tempo, 258331
1, 121120, Note_on_c, 0, 64, 53
1, 121120, Note_on_c, 0, 52, 45
1, 121160, Tempo, 259000
1, 121160, Note_on_c, 0, 53, 0
1, 121160, Note_on_c, 0, 65, 0
1, 121280, Tempo, 259673
1, 121280, Note_on_c, 0, 61, 46
1, 121280, Note_on_c, 0, 49, 39
1, 121320, Note_on_c, 0, 64, 0
1, 121320, Note_on_c, 0, 52, 0
1, 121360, Tempo, 260349
1, 121440, Note_on_c, 0, 60, 50
1, 121440, Note_on_c, 0, 48, 40
1, 121480, Tempo, 261040
1, 121480, Note_on_c, 0, 61, 0
1, 121480, Note_on_c, 0, 49, 0
1, 121600, Tempo, 261723
1, 121600, Note_on_c, 0, 58, 49
1, 121600, Note_on_c, 0, 46, 41
1, 121640, Note_on_c, 0, 60, 0
1, 121640, Note_on_c, 0, 48, 0
1, 121680, Tempo, 262410
1, 121760, Note_on_c, 0, 54, 44
1, 121760, Note_on_c, 0, 42, 37
1, 121800, Tempo, 263112
1, 121800, Note_on_c, 0, 58, 0
1, 121800, Note_on_c, 0, 46, 0
1, 121920, Tempo, 263806
1, 121920, Note_on_c, 0, 54, 0
1, 121920, Note_on_c, 0, 42, 0
1, 121920, Note_on_c, 0, 53, 49
1, 121920, Note_on_c, 0, 41, 41
1, 122000, Tempo, 264504
1, 122080, Note_on_c, 0, 52, 43
1, 122080, Note_on_c, 0, 40, 36
1, 122120, Tempo, 265217
1, 122120, Note_on_c, 0, 41, 0
1, 122120, Note_on_c, 0, 53, 0
1, 122240, Tempo, 265922
1, 122240, Note_on_c, 0, 49, 39
1, 122240, Note_on_c, 0, 37, 33
1, 122280, Note_on_c, 0, 52, 0
1, 122280, Note_on_c, 0, 40, 0
1, 122320, Tempo, 266631
1, 122400, Note_on_c, 0, 48, 43
1, 122400, Note_on_c, 0, 36, 36
1, 122440, Tempo, 267344
1, 122440, Note_on_c, 0, 49, 0
1, 122440, Note_on_c, 0, 37, 0
1, 122560, Tempo, 268085
1, 122560, Note_on_c, 0, 46, 36
1, 122560, Note_on_c, 0, 34, 30
1, 122600, Note_on_c, 0, 48, 0
1, 122600, Note_on_c, 0, 36, 0
1, 122640, Tempo, 268805
1, 122720, Tempo, 268805
1, 122720, Note_on_c, 0, 42, 34
1, 122720, Note_on_c, 0, 30, 30
1, 122760, Note_on_c, 0, 46, 0
1, 122760, Note_on_c, 0, 34, 0
1, 122880, Note_on_c, 0, 42, 0
1, 122880, Note_on_c, 0, 30, 0
1, 122880, Note_on_c, 0, 41, 39
1, 122880, Note_on_c, 0, 29, 33
1, 123040, Tempo, 263112
1, 123040, Note_on_c, 0, 46, 33
1, 123040, Note_on_c, 0, 34, 28
1, 123200, Tempo, 269530
1, 123200, Note_on_c, 0, 29, 0
1, 123200, Note_on_c, 0, 41, 0
1, 123200, Note_on_c, 0, 44, 33
1, 123200, Note_on_c, 0, 32, 28
1, 123240, Note_on_c, 0, 46, 0
1, 123240, Note_on_c, 0, 34, 0
1, 123360, Tempo, 268805
1, 123360, Note_on_c, 0, 45, 36
1, 123360, Note_on_c, 0, 33, 29
1, 123400, Note_on_c, 0, 44, 0
1, 123400, Note_on_c, 0, 32, 0
1, 123520, Tempo, 261040
1, 123520, Note_on_c, 0, 49, 34
1, 123520, Note_on_c, 0, 37, 28
1, 123680, Tempo, 265922
1, 123680, Note_on_c, 0, 45, 0
1, 123680, Note_on_c, 0, 33, 0
1, 123680, Note_on_c, 0, 45, 34
1, 123680, Note_on_c, 0, 33, 28
1, 123720, Note_on_c, 0, 49, 0
1, 123720, Note_on_c, 0, 37, 0
1, 123840, Note_on_c, 0, 45, 0
1, 123840, Note_on_c, 0, 33, 0
1, 123840, Note_on_c, 0, 46, 41
1, 123840, Note_on_c, 0, 34, 34
1, 124000, Tempo, 259673
1, 124000, Note_on_c, 0, 51, 37
1, 124000, Note_on_c, 0, 39, 31
1, 124160, Tempo, 264504
1, 124160, Note_on_c, 0, 34, 0
1, 124160, Note_on_c, 0, 46, 0
1, 124160, Note_on_c, 0, 47, 37
1, 124160, Note_on_c, 0, 35, 31
1, 124200, Note_on_c, 0, 51, 0
1, 124200, Note_on_c, 0, 39, 0
1, 124320, Note_on_c, 0, 48, 39
1, 124320, Note_on_c, 0, 36, 36
1, 124360, Note_on_c, 0, 47, 0
1, 124360, Note_on_c, 0, 35, 0
1, 124480, Tempo, 258331
1, 124480, Note_on_c, 0, 53, 39
1, 124480, Note_on_c, 0, 41, 33
1, 124640, Tempo, 263806
1, 124640, Note_on_c, 0, 48, 0
1, 124640, Note_on_c, 0, 36, 0
1, 124640, Note_on_c, 0, 48, 39
1, 124640, Note_on_c, 0, 36, 33
1, 124680, Note_on_c, 0, 53, 0
1, 124680, Note_on_c, 0, 41, 0
1, 124800, Note_on_c, 0, 48, 0
1, 124800, Note_on_c, 0, 36, 0
1, 124800, Note_on_c, 0, 49, 43
1, 124800, Note_on_c, 0, 37, 36
1, 124960, Tempo, 257654
1, 124960, Note_on_c, 0, 54, 39
1, 124960, Note_on_c, 0, 42, 33
1, 125120, Tempo, 264504
1, 125120, Note_on_c, 0, 37, 0
1, 125120, Note_on_c, 0, 49, 0
1, 125120, Note_on_c, 0, 50, 39
1, 125120, Note_on_c, 0, 38, 33
1, 125160, Note_on_c, 0, 54, 0
1, 125160, Note_on_c, 0, 42, 0
1, 125280, Tempo, 265922
1, 125280, Note_on_c, 0, 51, 41
1, 125280, Note_on_c, 0, 39, 34
1, 125320, Note_on_c, 0, 50, 0
1, 125320, Note_on_c, 0, 38, 0
1, 125440, Tempo, 258331
1, 125440, Note_on_c, 0, 57, 39
1, 125440, Note_on_c, 0, 45, 33
1, 125600, Tempo, 268805
1, 125600, Note_on_c, 0, 51, 0
1, 125600, Note_on_c, 0, 39, 0
1, 125600, Note_on_c, 0, 53, 39
1, 125600, Note_on_c, 0, 41, 33
1, 125640, Note_on_c, 0, 57, 0
1, 125640, Note_on_c, 0, 45, 0
1, 125760, Note_on_c, 0, 53, 0
1, 125760, Note_on_c, 0, 41, 0
1, 125760, Note_on_c, 0, 54, 46
1, 125760, Note_on_c, 0, 42, 34
1, 125920, Tempo, 265217
1, 125920, Note_on_c, 0, 61, 40
1, 125920, Note_on_c, 0, 49, 34
1, 126080, Tempo, 271003
1, 126080, Note_on_c, 0, 42, 0
1, 126080, Note_on_c, 0, 54, 0
1, 126080, Note_on_c, 0, 57, 39
1, 126080, Note_on_c, 0, 45, 33
1, 126120, Note_on_c, 0, 61, 0
1, 126120, Note_on_c, 0, 49, 0
1, 126240, Note_on_c, 0, 60, 40
1, 126240, Note_on_c, 0, 48, 34
1, 126280, Note_on_c, 0, 57, 0
1, 126280, Note_on_c, 0, 45, 0
1, 126400, Tempo, 264504
1, 126400, Note_on_c, 0, 66, 42
1, 126400, Note_on_c, 0, 54, 35
1, 126560, Tempo, 271739
1, 126560, Note_on_c, 0, 60, 0
1, 126560, Note_on_c, 0, 48, 0
1, 126560, Note_on_c, 0, 65, 40
1, 126560, Note_on_c, 0, 53, 34
1, 126600, Note_on_c, 0, 66, 0
1, 126600, Note_on_c, 0, 54, 0
1, 126720, Note_on_c, 0, 65, 0
1, 126720, Note_on_c, 0, 53, 0
1, 126720, Note_on_c, 0, 57, 45
1, 126720, Note_on_c, 0, 45, 38
1, 126880, Tempo, 263112
1, 126880, Note_on_c, 0, 61, 39
1, 126880, Note_on_c, 0, 49, 33
1, 127040, Tempo, 269530
1, 127040, Note_on_c, 0, 45, 0
1, 127040, Note_on_c, 0, 57, 0
1, 127040, Note_on_c, 0, 57, 41
1, 127040, Note_on_c, 0, 45, 34
1, 127080, Note_on_c, 0, 61, 0
1, 127080, Note_on_c, 0, 49, 0
1, 127200, Tempo, 268805
1, 127200, Note_on_c, 0, 60, 42
1, 127200, Note_on_c, 0, 48, 36
1, 127240, Note_on_c, 0, 57, 0
1, 127240, Note_on_c, 0, 45, 0
1, 127360, Tempo, 263112
1, 127360, Note_on_c, 0, 66, 43
1, 127360, Note_on_c, 0, 54, 36
1, 127520, Tempo, 271003
1, 127520, Note_on_c, 0, 60, 0
1, 127520, Note_on_c, 0, 48, 0
1, 127520, Note_on_c, 0, 65, 43
1, 127520, Note_on_c, 0, 53, 36
1, 127560, Note_on_c, 0, 66, 0
1, 127560, Note_on_c, 0, 54, 0
1, 127680, Note_on_c, 0, 65, 0
1, 127680, Note_on_c, 0, 53, 0
1, 127680, Note_on_c, 0, 57, 45
1, 127680, Note_on_c, 0, 45, 38
1, 127840, Tempo, 264504
1, 127840, Note_on_c, 0, 61, 39
1, 127840, Note_on_c, 0, 49, 33
1, 128000, Tempo, 271003
1, 128000, Note_on_c, 0, 45, 0
1, 128000, Note_on_c, 0, 57, 0
1, 128000, Note_on_c, 0, 57, 41
1, 128000, Note_on_c, 0, 45, 34
1, 128040, Note_on_c, 0, 61, 0
1, 128040, Note_on_c, 0, 49, 0
1, 128160, Note_on_c, 0, 60, 43
1, 128160, Note_on_c, 0, 48, 34
1, 128200, Note_on_c, 0, 57, 0
1, 128200, Note_on_c, 0, 45, 0
1, 128320, Tempo, 261723
1, 128320, Note_on_c, 0, 66, 43
1, 128320, Note_on_c, 0, 54, 36
1, 128480, Tempo, 277034
1, 128480, Note_on_c, 0, 60, 0
1, 128480, Note_on_c, 0, 48, 0
1, 128480, Note_on_c, 0, 65, 43
1, 128480, Note_on_c, 0, 53, 36
1, 128520, Note_on_c, 0, 66, 0
1, 128520, Note_on_c, 0, 54, 0
1, 128640, Note_on_c, 0, 65, 0
1, 128640, Note_on_c, 0, 53, 0
1, 128640, Note_on_c, 0, 60, 47
1, 128640, Note_on_c, 0, 48, 39
1, 128800, Tempo, 271739
1, 128800, Note_on_c, 0, 66, 43
1, 128800, Note_on_c, 0, 54, 36
1, 128960, Tempo, 274750
1, 128960, Note_on_c, 0, 48, 0
1, 128960, Note_on_c, 0, 60, 0
1, 128960, Note_on_c, 0, 65, 40
1, 128960, Note_on_c, 0, 53, 34
1, 129000, Note_on_c, 0, 66, 0
1, 129000, Note_on_c, 0, 54, 0
1, 129120, Tempo, 274750
1, 129120, Note_on_c, 0, 60, 41
1, 129120, Note_on_c, 0, 48, 34
1, 129160, Note_on_c, 0, 65, 0
1, 129160, Note_on_c, 0, 53, 0
1, 129280, Tempo, 271739
1, 129280, Note_on_c, 0, 66, 43
1, 129280, Note_on_c, 0, 54, 36
1, 129440, Tempo, 273985
1, 129440, Note_on_c, 0, 60, 0
1, 129440, Note_on_c, 0, 48, 0
1, 129440, Note_on_c, 0, 65, 40
1, 129440, Note_on_c, 0, 53, 34
1, 129480, Note_on_c, 0, 66, 0
1, 129480, Note_on_c, 0, 54, 0
1, 129600, Note_on_c, 0, 65, 0
1, 129600, Note_on_c, 0, 53, 0
1, 129600, Note_on_c, 0, 60, 45
1, 129600, Note_on_c, 0, 48, 38
1, 129760, Tempo, 271739
1, 129760, Note_on_c, 0, 66, 43
1, 129760, Note_on_c, 0, 54, 36
1, 129920, Tempo, 273985
1, 129920, Note_on_c, 0, 48, 0
1, 129920, Note_on_c, 0, 60, 0
1, 129920, Note_on_c, 0, 65, 40
1, 129920, Note_on_c, 0, 53, 34
1, 129960, Note_on_c, 0, 66, 0
1, 129960, Note_on_c, 0, 54, 0
1, 130080, Note_on_c, 0, 58, 44
1, 130080, Note_on_c, 0, 46, 37
1, 130120, Note_on_c, 0, 65, 0
1, 130120, Note_on_c, 0, 53, 0
1, 130240, Tempo, 267344
1, 130240, Note_on_c, 0, 66, 43
1, 130240, Note_on_c, 0, 54, 36
1, 130400, Tempo, 268805
1, 130400, Note_on_c, 0, 58, 0
1, 130400, Note_on_c, 0, 46, 0
1, 130400, Note_on_c, 0, 65, 43
1, 130400, Note_on_c, 0, 53, 36
1, 130440, Note_on_c, 0, 66, 0
1, 130440, Note_on_c, 0, 54, 0
1, 130520, Tempo, 268085
1, 130560, Note_on_c, 0, 65, 0
1, 130560, Note_on_c, 0, 53, 0
1, 130560, Note_on_c, 0, 61, 45
1, 130560, Note_on_c, 0, 49, 38
1, 130640, Tempo, 267344
1, 130720, Note_on_c, 0, 53, 36
1, 130720, Note_on_c, 0, 41, 30
1, 130760, Tempo, 266631
1, 130840, Tempo, 265922
1, 130880, Note_on_c, 0, 49, 0
1, 130880, Note_on_c, 0, 61, 0
1, 130880, Note_on_c, 0, 63, 39
1, 130880, Note_on_c, 0, 51, 33
1, 130920, Note_on_c, 0, 53, 0
1, 130920, Note_on_c, 0, 41, 0
1, 130960, Tempo, 265217
1, 131040, Note_on_c, 0, 65, 39
1, 131040, Note_on_c, 0, 53, 34
1, 131080, Tempo, 263112
1, 131080, Note_on_c, 0, 63, 0
1, 131080, Note_on_c, 0, 51, 0
1, 131120, Tempo, 263806
1, 131160, Tempo, 264504
1, 131200, Tempo, 265922
1, 131200, Note_on_c, 0, 63, 40
1, 131200, Note_on_c, 0, 51, 34
1, 131240, Tempo, 266631
1, 131240, Note_on_c, 0, 65, 0
1, 131240, Note_on_c, 0, 53, 0
1, 131280, Tempo, 267344
1, 131320, Tempo, 268805
1, 131360, Tempo, 268805
1, 131360, Note_on_c, 0, 61, 40
1, 131360, Note_on_c, 0, 49, 34
1, 131400, Note_on_c, 0, 63, 0
1, 131400, Note_on_c, 0, 51, 0
1, 131520, Tempo, 269530
1, 131520, Note_on_c, 0, 61, 0
1, 131520, Note_on_c, 0, 49, 0
1, 131520, Note_on_c, 0, 58, 44
1, 131520, Note_on_c, 0, 46, 37
1, 131600, Tempo, 268805
1, 131640, Tempo, 268085
1, 131680, Tempo, 267344
1, 131680, Note_on_c, 0, 53, 39
1, 131680, Note_on_c, 0, 41, 33
1, 131720, Note_on_c, 0, 46, 0
1, 131720, Note_on_c, 0, 58, 0
1, 131760, Tempo, 266631
1, 131800, Tempo, 265922
1, 131840, Tempo, 265217
1, 131840, Note_on_c, 0, 60, 39
1, 131840, Note_on_c, 0, 48, 33
1, 131880, Note_on_c, 0, 53, 0
1, 131880, Note_on_c, 0, 41, 0
1, 131920, Tempo, 264504
1, 131960, Tempo, 263806
1, 132000, Tempo, 263112
1, 132000, Note_on_c, 0, 61, 40
1, 132000, Note_on_c, 0, 49, 34
1, 132040, Tempo, 262410
1, 132040, Note_on_c, 0, 60, 0
1, 132040, Note_on_c, 0, 48, 0
1, 132080, Tempo, 263112
1, 132120, Tempo, 263806
1, 132160, Tempo, 265217
1, 132160, Note_on_c, 0, 60, 39
1, 132160, Note_on_c, 0, 48, 33
1, 132200, Tempo, 265922
1, 132200, Note_on_c, 0, 61, 0
1, 132200, Note_on_c, 0, 49, 0
1, 132240, Tempo, 266631
1, 132280, Tempo, 268085
1, 132320, Tempo, 268805
1, 132320, Note_on_c, 0, 58, 40
1, 132320, Note_on_c, 0, 46, 34
1, 132360, Note_on_c, 0, 60, 0
1, 132360, Note_on_c, 0, 48, 0
1, 132480, Tempo, 273236
1, 132480, Note_on_c, 0, 58, 0
1, 132480, Note_on_c, 0, 46, 0
1, 132480, Note_on_c, 0, 61, 45
1, 132480, Note_on_c, 0, 49, 38
1, 132640, Tempo, 256992
1, 132640, Note_on_c, 0, 53, 39
1, 132640, Note_on_c, 0, 41, 33
1, 132680, Note_on_c, 0, 49, 0
1, 132680, Note_on_c, 0, 61, 0
1, 132800, Tempo, 267344
1, 132800, Note_on_c, 0, 63, 39
1, 132800, Note_on_c, 0, 51, 33
1, 132840, Note_on_c, 0, 53, 0
1, 132840, Note_on_c, 0, 41, 0
1, 132960, Tempo, 268805
1, 132960, Note_on_c, 0, 65, 41
1, 132960, Note_on_c, 0, 53, 34
1, 133000, Note_on_c, 0, 63, 0
1, 133000, Note_on_c, 0, 51, 0
1, 133120, Tempo, 263112
1, 133120, Note_on_c, 0, 63, 40
1, 133120, Note_on_c, 0, 51, 34
1, 133160, Note_on_c, 0, 65, 0
1, 133160, Note_on_c, 0, 53, 0
1, 133280, Tempo, 268805
1, 133280, Note_on_c, 0, 61, 40
1, 133280, Note_on_c, 0, 49, 34
1, 133320, Note_on_c, 0, 63, 0
1, 133320, Note_on_c, 0, 51, 0
1, 133440, Note_on_c, 0, 61, 0
1, 133440, Note_on_c, 0, 49, 0
1, 133440, Note_on_c, 0, 58, 44
1, 133440, Note_on_c, 0, 46, 37
1, 133600, Tempo, 257654
1, 133600, Note_on_c, 0, 53, 39
1, 133600, Note_on_c, 0, 41, 33
1, 133640, Note_on_c, 0, 46, 0
1, 133640, Note_on_c, 0, 58, 0
1, 133760, Tempo, 268085
1, 133760, Note_on_c, 0, 60, 39
1, 133760, Note_on_c, 0, 48, 33
1, 133800, Note_on_c, 0, 53, 0
1, 133800, Note_on_c, 0, 41, 0
1, 133920, Note_on_c, 0, 61, 40
1, 133920, Note_on_c, 0, 49, 37
1, 133960, Note_on_c, 0, 60, 0
1, 133960, Note_on_c, 0, 48, 0
1, 134080, Tempo, 261723
1, 134080, Note_on_c, 0, 60, 40
1, 134080, Note_on_c, 0, 48, 34
1, 134120, Note_on_c, 0, 61, 0
1, 134120, Note_on_c, 0, 49, 0
1, 134240, Tempo, 268805
1, 134240, Note_on_c, 0, 58, 40
1, 134240, Note_on_c, 0, 46, 34
1, 134280, Note_on_c, 0, 60, 0
1, 134280, Note_on_c, 0, 48, 0
1, 134400, Note_on_c, 0, 58, 0
1, 134400, Note_on_c, 0, 46, 0
1, 134400, Note_on_c, 0, 51, 44
1, 134400, Note_on_c, 0, 39, 37
1, 134560, Tempo, 258331
1, 134560, Note_on_c, 0, 53, 39
1, 134560, Note_on_c, 0, 41, 33
1, 134600, Note_on_c, 0, 39, 0
1, 134600, Note_on_c, 0, 51, 0
1, 134720, Tempo, 269530
1, 134720, Note_on_c, 0, 58, 34
1, 134720, Note_on_c, 0, 46, 28
1, 134760, Note_on_c, 0, 53, 0
1, 134760, Note_on_c, 0, 41, 0
1, 134880, Tempo, 268805
1, 134880, Note_on_c, 0, 61, 37
1, 134880, Note_on_c, 0, 49, 29
1, 134920, Note_on_c, 0, 58, 0
1, 134920, Note_on_c, 0, 46, 0
1, 135034, Note_on_c, 0, 49, 0
1, 135040, Tempo, 263112
1, 135040, Note_on_c, 0, 49, 35
1, 135040, Note_on_c, 0, 37, 29
1, 135080, Note_on_c, 0, 61, 0
1, 135200, Tempo, 268805
1, 135200, Note_on_c, 0, 53, 35
1, 135200, Note_on_c, 0, 41, 29
1, 135240, Note_on_c, 0, 37, 0
1, 135240, Note_on_c, 0, 49, 0
1, 135360, Note_on_c, 0, 53, 0
1, 135360, Note_on_c, 0, 41, 0
1, 135360, Note_on_c, 0, 51, 44
1, 135360, Note_on_c, 0, 39, 37
1, 135520, Tempo, 259000
1, 135520, Note_on_c, 0, 53, 39
1, 135520, Note_on_c, 0, 41, 33
1, 135560, Note_on_c, 0, 39, 0
1, 135560, Note_on_c, 0, 51, 0
1, 135680, Tempo, 268085
1, 135680, Note_on_c, 0, 58, 34
1, 135680, Note_on_c, 0, 46, 28
1, 135720, Note_on_c, 0, 53, 0
1, 135720, Note_on_c, 0, 41, 0
1, 135840, Note_on_c, 0, 61, 36
1, 135840, Note_on_c, 0, 49, 30
1, 135880, Note_on_c, 0, 58, 0
1, 135880, Note_on_c, 0, 46, 0
1, 135996, Note_on_c, 0, 49, 0
1, 136000, Tempo, 261723
1, 136000, Note_on_c, 0, 49, 35
1, 136000, Note_on_c, 0, 37, 29
1, 136040, Note_on_c, 0, 61, 0
1, 136160, Tempo, 268805
1, 136160, Note_on_c, 0, 53, 35
1, 136160, Note_on_c, 0, 41, 29
1, 136200, Note_on_c, 0, 37, 0
1, 136200, Note_on_c, 0, 49, 0
1, 136320, Note_on_c, 0, 53, 0
1, 136320, Note_on_c, 0, 41, 0
1, 136320, Note_on_c, 0, 48, 44
1, 136320, Note_on_c, 0, 36, 37
1, 136480, Tempo, 259000
1, 136480, Note_on_c, 0, 49, 39
1, 136480, Note_on_c, 0, 37, 33
1, 136520, Note_on_c, 0, 36, 0
1, 136520, Note_on_c, 0, 48, 0
1, 136640, Tempo, 269530
1, 136640, Note_on_c, 0, 53, 34
1, 136640, Note_on_c, 0, 41, 28
1, 136680, Note_on_c, 0, 49, 0
1, 136680, Note_on_c, 0, 37, 0
1, 136800, Tempo, 268805
1, 136800, Note_on_c, 0, 58, 36
1, 136800, Note_on_c, 0, 46, 30
1, 136840, Note_on_c, 0, 53, 0
1, 136840, Note_on_c, 0, 41, 0
1, 136960, Tempo, 263112
1, 136960, Note_on_c, 0, 46, 0
1, 136960, Note_on_c, 0, 46, 35
1, 136960, Note_on_c, 0, 34, 29
1, 137000, Note_on_c, 0, 58, 0
1, 137120, Tempo, 268805
1, 137120, Note_on_c, 0, 49, 35
1, 137120, Note_on_c, 0, 37, 29
1, 137160, Note_on_c, 0, 34, 0
1, 137160, Note_on_c, 0, 46, 0
1, 137280, Note_on_c, 0, 49, 0
1, 137280, Note_on_c, 0, 37, 0
1, 137280, Note_on_c, 0, 48, 44
1, 137280, Note_on_c, 0, 36, 37
1, 137440, Tempo, 257654
1, 137440, Note_on_c, 0, 49, 39
1, 137440, Note_on_c, 0, 37, 33
1, 137480, Note_on_c, 0, 36, 0
1, 137480, Note_on_c, 0, 48, 0
1, 137600, Tempo, 268085
1, 137600, Note_on_c, 0, 53, 34
1, 137600, Note_on_c, 0, 41, 28
1, 137640, Note_on_c, 0, 49, 0
1, 137640, Note_on_c, 0, 37, 0
1, 137760, Note_on_c, 0, 58, 36
1, 137760, Note_on_c, 0, 46, 30
1, 137800, Note_on_c, 0, 53, 0
1, 137800, Note_on_c, 0, 41, 0
1, 137920, Tempo, 261723
1, 137920, Note_on_c, 0, 46, 0
1, 137920, Note_on_c, 0, 46, 35
1, 137920, Note_on_c, 0, 34, 29
1, 137960, Note_on_c, 0, 58, 0
1, 138080, Tempo, 268805
1, 138080, Note_on_c, 0, 49, 35
1, 138080, Note_on_c, 0, 37, 29
1, 138120, Note_on_c, 0, 34, 0
1, 138120, Note_on_c, 0, 46, 0
1, 138240, Note_on_c, 0, 49, 0
1, 138240, Note_on_c, 0, 37, 0
1, 138400, Tempo, 263112
1, 138560, Tempo, 269530
1, 138720, Tempo, 268805
1, 138880, Tempo, 263112
1, 139040, Tempo, 268805
1, 139200, Note_on_c, 0, 48, 44
1, 139200, Note_on_c, 0, 36, 37
1, 139360, Tempo, 257654
1, 139360, Note_on_c, 0, 49, 39
1, 139360, Note_on_c, 0, 37, 33
1, 139400, Note_on_c, 0, 36, 0
1, 139400, Note_on_c, 0, 48, 0
1, 139520, Tempo, 268085
1, 139520, Note_on_c, 0, 53, 34
1, 139520, Note_on_c, 0, 41, 28
1, 139560, Note_on_c, 0, 49, 0
1, 139560, Note_on_c, 0, 37, 0
1, 139680, Note_on_c, 0, 58, 35
1, 139680, Note_on_c, 0, 46, 29
1, 139720, Note_on_c, 0, 53, 0
1, 139720, Note_on_c, 0, 41, 0
1, 139834, Note_on_c, 0, 46, 0
1, 139840, Tempo, 261723
1, 139840, Note_on_c, 0, 46, 35
1, 139840, Note_on_c, 0, 34, 29
1, 139880, Note_on_c, 0, 58, 0
1, 140000, Tempo, 268805
1, 140000, Note_on_c, 0, 49, 35
1, 140000, Note_on_c, 0, 37, 29
1, 140040, Note_on_c, 0, 34, 0
1, 140040, Note_on_c, 0, 46, 0
1, 140160, Note_on_c, 0, 49, 0
1, 140160, Note_on_c, 0, 37, 0
1, 141120, Note_on_c, 0, 48, 57
1, 141120, Note_on_c, 0, 36, 48
1, 141280, Tempo, 258331
1, 141280, Note_on_c, 0, 49, 51
1, 141280, Note_on_c, 0, 37, 43
1, 141320, Note_on_c, 0, 36, 0
1, 141320, Note_on_c, 0, 48, 0
1, 141440, Tempo, 269530
1, 141440, Note_on_c, 0, 53, 46
1, 141440, Note_on_c, 0, 41, 39
1, 141480, Note_on_c, 0, 49, 0
1, 141480, Note_on_c, 0, 37, 0
1, 141600, Note_on_c, 0, 58, 47
1, 141600, Note_on_c, 0, 46, 40
1, 141640, Note_on_c, 0, 53, 0
1, 141640, Note_on_c, 0, 41, 0
1, 141755, Note_on_c, 0, 46, 0
1, 141760, Tempo, 264504
1, 141760, Note_on_c, 0, 46, 48
1, 141760, Note_on_c, 0, 34, 40
1, 141800, Note_on_c, 0, 58, 0
1, 141920, Tempo, 283353
1, 141920, Note_on_c, 0, 49, 49
1, 141920, Note_on_c, 0, 37, 41
1, 141960, Note_on_c, 0, 34, 0
1, 141960, Note_on_c, 0, 46, 0
1, 142080, Note_on_c, 0, 49, 0
1, 142080, Note_on_c, 0, 37, 0
1, 142080, Note_on_c, 0, 46, 100
1, 142080, Note_on_c, 0, 34, 78
1, 142347, Control_c, 0, 64, 127
1, 142560, Note_on_c, 0, 34, 0
1, 142560, Note_on_c, 0, 46, 0
1, 143040, Note_on_c, 0, 94, 99
1, 143040, Note_on_c, 0, 82, 83
1, 143040, Note_on_c, 0, 53, 66
1, 143040, Note_on_c, 0, 65, 79
1, 143040, Note_on_c, 0, 61, 66
1, 143040, Note_on_c, 0, 58, 66
1, 144000, Note_on_c, 0, 58, 0
1, 144000, Note_on_c, 0, 82, 0
1, 144000, Note_on_c, 0, 53, 0
1, 144000, Note_on_c, 0, 94, 0
1, 144000, Note_on_c, 0, 61, 0
1, 144000, Note_on_c, 0, 65, 0
1, 144002, Tempo, 323171
1, 145920, Control_c, 0, 64, 0
1, 145922, Tempo, 341880
1, 147840, Tempo, 352941
1, 147840, End_track
0, 0, End_of_file
