0, 0, Header, 0, 1, 480
1, 0, Start_track
1, 0, Title_t, "Chopin Polonaise in Ab major Opus 53"
1, 0, Copyright_t, "Copyright © 2003 by Bernd Krueger "
1, 0, Text_t, "Frederic Chopin"
1, 0, Text_t, "Maestoso"
1, 0, Text_t, "Fertiggestellt am 12.6.2003\012"
1, 0, Text_t, "Update am 24.5.2010\012"
1, 0, Text_t, "Update am 27.2.2014\012"
1, 0, Text_t, "Dauer: 5:55 Minuten\012"
1, 0, SMPTE_offset, 96, 0, 3, 0, 0
1, 0, Time_signature, 3, 2, 24, 8
1, 0, Key_signature, -4, "major"
1, 0, Tempo, 545455
1, 0, Program_c, 0, 0
1, 0, Control_c, 0, 7, 100
1, 0, Control_c, 0, 10, 64
1, 0, Note_on_c, 0, 51, 74
1, 0, Note_on_c, 0, 63, 88
1, 0, Control_c, 0, 91, 127
1, 0, Text_t, "bdca426d104a26ac9dcb070447587523"
1, 0, Program_c, 0, 0
1, 0, Control_c, 0, 7, 100
1, 0, Control_c, 0, 10, 64
1, 0, Note_on_c, 0, 27, 63
1, 0, Note_on_c, 0, 39, 75
1, 0, Control_c, 0, 64, 0
1, 86, Control_c, 0, 64, 127
1, 480, Note_on_c, 0, 39, 0
1, 480, Note_on_c, 0, 51, 0
1, 480, Note_on_c, 0, 63, 0
1, 480, Note_on_c, 0, 27, 0
1, 720, Tempo, 439560
1, 720, Note_on_c, 0, 49, 40
1, 720, Note_on_c, 0, 52, 40
1, 720, Note_on_c, 0, 57, 47
1, 724, Control_c, 0, 64, 0
1, 800, Tempo, 437956
1, 840, Tempo, 436364
1, 840, Note_on_c, 0, 57, 0
1, 840, Note_on_c, 0, 52, 0
1, 840, Note_on_c, 0, 49, 0
1, 840, Note_on_c, 0, 50, 42
1, 840, Note_on_c, 0, 53, 42
1, 840, Note_on_c, 0, 58, 50
1, 880, Tempo, 434783
1, 920, Tempo, 433213
1, 960, Tempo, 431655
1, 960, Note_on_c, 0, 58, 0
1, 960, Note_on_c, 0, 53, 0
1, 960, Note_on_c, 0, 50, 0
1, 960, Note_on_c, 0, 51, 45
1, 960, Note_on_c, 0, 54, 45
1, 960, Note_on_c, 0, 59, 53
1, 1000, Tempo, 430108
1, 1040, Tempo, 428571
1, 1080, Tempo, 427046
1, 1080, Note_on_c, 0, 59, 0
1, 1080, Note_on_c, 0, 54, 0
1, 1080, Note_on_c, 0, 51, 0
1, 1080, Note_on_c, 0, 52, 46
1, 1080, Note_on_c, 0, 55, 46
1, 1080, Note_on_c, 0, 60, 55
1, 1120, Tempo, 425532
1, 1160, Tempo, 424028
1, 1200, Tempo, 422535
1, 1200, Note_on_c, 0, 60, 0
1, 1200, Note_on_c, 0, 55, 0
1, 1200, Note_on_c, 0, 52, 0
1, 1200, Note_on_c, 0, 53, 49
1, 1200, Note_on_c, 0, 56, 49
1, 1200, Note_on_c, 0, 61, 58
1, 1240, Tempo, 421053
1, 1280, Tempo, 419580
1, 1320, Tempo, 418118
1, 1320, Note_on_c, 0, 61, 0
1, 1320, Note_on_c, 0, 56, 0
1, 1320, Note_on_c, 0, 53, 0
1, 1320, Note_on_c, 0, 53, 51
1, 1320, Note_on_c, 0, 57, 61
1, 1320, Note_on_c, 0, 62, 61
1, 1360, Tempo, 416667
1, 1400, Tempo, 415225
1, 1440, Tempo, 600000
1, 1440, Note_on_c, 0, 62, 0
1, 1440, Note_on_c, 0, 57, 0
1, 1440, Note_on_c, 0, 53, 0
1, 1440, Note_on_c, 0, 58, 57
1, 1440, Note_on_c, 0, 63, 68
1, 1440, Note_on_c, 0, 55, 63
1, 1560, Note_on_c, 0, 55, 0
1, 1560, Note_on_c, 0, 63, 0
1, 1560, Note_on_c, 0, 58, 0
1, 1920, Tempo, 638298
1, 1920, Note_on_c, 0, 55, 51
1, 1920, Note_on_c, 0, 58, 61
1, 1920, Note_on_c, 0, 39, 42
1, 1920, Note_on_c, 0, 46, 50
1, 2040, Tempo, 697837
1, 2040, Note_on_c, 0, 46, 0
1, 2040, Note_on_c, 0, 55, 0
1, 2040, Note_on_c, 0, 58, 0
1, 2040, Note_on_c, 0, 39, 0
1, 2400, Tempo, 689655
1, 2400, Note_on_c, 0, 56, 31
1, 2400, Note_on_c, 0, 64, 31
1, 2400, Note_on_c, 0, 68, 37
1, 2400, Note_on_c, 0, 50, 28
1, 2400, Note_on_c, 0, 59, 32
1, 2880, Tempo, 723066
1, 2880, Note_on_c, 0, 59, 0
1, 2880, Note_on_c, 0, 68, 0
1, 2880, Note_on_c, 0, 56, 0
1, 2880, Note_on_c, 0, 64, 0
1, 2880, Note_on_c, 0, 50, 0
1, 2880, Note_on_c, 0, 55, 28
1, 2880, Note_on_c, 0, 63, 28
1, 2880, Note_on_c, 0, 67, 32
1, 2880, Note_on_c, 0, 51, 23
1, 2880, Note_on_c, 0, 58, 28
1, 3120, Note_on_c, 0, 58, 0
1, 3120, Note_on_c, 0, 67, 0
1, 3120, Note_on_c, 0, 55, 0
1, 3120, Note_on_c, 0, 63, 0
1, 3120, Note_on_c, 0, 51, 0
1, 3360, Tempo, 558140
1, 3360, Note_on_c, 0, 44, 36
1, 3360, Note_on_c, 0, 59, 42
1, 3480, Note_on_c, 0, 43, 33
1, 3480, Note_on_c, 0, 58, 39
1, 3490, Note_on_c, 0, 59, 0
1, 3490, Note_on_c, 0, 44, 0
1, 3600, Note_on_c, 0, 38, 33
1, 3600, Note_on_c, 0, 52, 40
1, 3610, Note_on_c, 0, 43, 0
1, 3610, Note_on_c, 0, 58, 0
1, 3720, Note_on_c, 0, 39, 35
1, 3720, Note_on_c, 0, 51, 42
1, 3730, Note_on_c, 0, 38, 0
1, 3730, Note_on_c, 0, 52, 0
1, 3840, Note_on_c, 0, 44, 39
1, 3840, Note_on_c, 0, 59, 47
1, 3850, Note_on_c, 0, 39, 0
1, 3850, Note_on_c, 0, 51, 0
1, 3960, Note_on_c, 0, 43, 38
1, 3960, Note_on_c, 0, 58, 45
1, 3970, Note_on_c, 0, 44, 0
1, 3970, Note_on_c, 0, 59, 0
1, 4080, Note_on_c, 0, 38, 39
1, 4080, Note_on_c, 0, 52, 47
1, 4090, Note_on_c, 0, 43, 0
1, 4090, Note_on_c, 0, 58, 0
1, 4200, Note_on_c, 0, 39, 40
1, 4200, Note_on_c, 0, 51, 47
1, 4210, Note_on_c, 0, 38, 0
1, 4210, Note_on_c, 0, 52, 0
1, 4320, Tempo, 558140
1, 4320, Note_on_c, 0, 44, 44
1, 4320, Note_on_c, 0, 59, 53
1, 4330, Note_on_c, 0, 39, 0
1, 4330, Note_on_c, 0, 51, 0
1, 4440, Tempo, 555556
1, 4440, Note_on_c, 0, 43, 43
1, 4440, Note_on_c, 0, 58, 50
1, 4450, Note_on_c, 0, 44, 0
1, 4450, Note_on_c, 0, 59, 0
1, 4560, Tempo, 552995
1, 4560, Note_on_c, 0, 38, 44
1, 4560, Note_on_c, 0, 52, 53
1, 4570, Note_on_c, 0, 43, 0
1, 4570, Note_on_c, 0, 58, 0
1, 4680, Tempo, 550459
1, 4680, Note_on_c, 0, 39, 46
1, 4680, Note_on_c, 0, 51, 55
1, 4690, Note_on_c, 0, 38, 0
1, 4690, Note_on_c, 0, 52, 0
1, 4800, Tempo, 547945
1, 4800, Note_on_c, 0, 44, 52
1, 4800, Note_on_c, 0, 59, 61
1, 4810, Note_on_c, 0, 39, 0
1, 4810, Note_on_c, 0, 51, 0
1, 4920, Tempo, 545455
1, 4920, Note_on_c, 0, 43, 49
1, 4920, Note_on_c, 0, 58, 58
1, 4930, Note_on_c, 0, 44, 0
1, 4930, Note_on_c, 0, 59, 0
1, 5040, Tempo, 542986
1, 5040, Note_on_c, 0, 38, 49
1, 5040, Note_on_c, 0, 52, 59
1, 5050, Note_on_c, 0, 43, 0
1, 5050, Note_on_c, 0, 58, 0
1, 5160, Tempo, 540541
1, 5160, Note_on_c, 0, 39, 52
1, 5160, Note_on_c, 0, 51, 61
1, 5170, Note_on_c, 0, 38, 0
1, 5170, Note_on_c, 0, 52, 0
1, 5280, Tempo, 538117
1, 5280, Note_on_c, 0, 44, 58
1, 5280, Note_on_c, 0, 59, 70
1, 5290, Note_on_c, 0, 39, 0
1, 5290, Note_on_c, 0, 51, 0
1, 5400, Tempo, 535714
1, 5400, Note_on_c, 0, 43, 55
1, 5400, Note_on_c, 0, 58, 64
1, 5410, Note_on_c, 0, 44, 0
1, 5410, Note_on_c, 0, 59, 0
1, 5520, Tempo, 533333
1, 5520, Note_on_c, 0, 38, 55
1, 5520, Note_on_c, 0, 52, 66
1, 5530, Note_on_c, 0, 43, 0
1, 5530, Note_on_c, 0, 58, 0
1, 5640, Tempo, 530973
1, 5640, Note_on_c, 0, 39, 57
1, 5640, Note_on_c, 0, 51, 68
1, 5650, Note_on_c, 0, 38, 0
1, 5650, Note_on_c, 0, 52, 0
1, 5720, Tempo, 528634
1, 5760, Tempo, 571429
1, 5760, Note_on_c, 0, 39, 0
1, 5760, Note_on_c, 0, 51, 0
1, 5760, Note_on_c, 0, 59, 74
1, 5760, Note_on_c, 0, 56, 74
1, 5760, Note_on_c, 0, 52, 74
1, 5760, Note_on_c, 0, 64, 88
1, 5760, Control_c, 0, 91, 127
1, 5760, Text_t, "bdca426d104a26ac9dcb070447587523"
1, 5760, Note_on_c, 0, 44, 63
1, 5760, Note_on_c, 0, 39, 63
1, 5760, Note_on_c, 0, 51, 75
1, 5875, Control_c, 0, 64, 127
1, 6240, Note_on_c, 0, 51, 0
1, 6240, Note_on_c, 0, 44, 0
1, 6240, Note_on_c, 0, 56, 0
1, 6240, Note_on_c, 0, 52, 0
1, 6240, Note_on_c, 0, 59, 0
1, 6240, Note_on_c, 0, 39, 0
1, 6240, Note_on_c, 0, 64, 0
1, 6480, Tempo, 495868
1, 6480, Note_on_c, 0, 50, 40
1, 6480, Note_on_c, 0, 53, 40
1, 6480, Note_on_c, 0, 58, 47
1, 6485, Control_c, 0, 64, 0
1, 6520, Tempo, 425532
1, 6600, Tempo, 424028
1, 6600, Note_on_c, 0, 58, 0
1, 6600, Note_on_c, 0, 53, 0
1, 6600, Note_on_c, 0, 50, 0
1, 6600, Note_on_c, 0, 51, 42
1, 6600, Note_on_c, 0, 54, 42
1, 6600, Note_on_c, 0, 59, 50
1, 6680, Tempo, 422535
1, 6720, Note_on_c, 0, 59, 0
1, 6720, Note_on_c, 0, 54, 0
1, 6720, Note_on_c, 0, 51, 0
1, 6720, Note_on_c, 0, 52, 45
1, 6720, Note_on_c, 0, 55, 45
1, 6720, Note_on_c, 0, 60, 53
1, 6760, Tempo, 421053
1, 6840, Tempo, 419580
1, 6840, Note_on_c, 0, 60, 0
1, 6840, Note_on_c, 0, 55, 0
1, 6840, Note_on_c, 0, 52, 0
1, 6840, Note_on_c, 0, 53, 46
1, 6840, Note_on_c, 0, 56, 46
1, 6840, Note_on_c, 0, 61, 55
1, 6880, Tempo, 418118
1, 6960, Tempo, 416667
1, 6960, Note_on_c, 0, 61, 0
1, 6960, Note_on_c, 0, 56, 0
1, 6960, Note_on_c, 0, 53, 0
1, 6960, Note_on_c, 0, 54, 49
1, 6960, Note_on_c, 0, 57, 49
1, 6960, Note_on_c, 0, 62, 58
1, 7040, Tempo, 415225
1, 7080, Note_on_c, 0, 62, 0
1, 7080, Note_on_c, 0, 57, 0
1, 7080, Note_on_c, 0, 54, 0
1, 7080, Note_on_c, 0, 54, 51
1, 7080, Note_on_c, 0, 58, 61
1, 7080, Note_on_c, 0, 63, 61
1, 7120, Tempo, 413793
1, 7160, Tempo, 412371
1, 7200, Tempo, 600000
1, 7200, Note_on_c, 0, 63, 0
1, 7200, Note_on_c, 0, 58, 0
1, 7200, Note_on_c, 0, 54, 0
1, 7200, Note_on_c, 0, 59, 57
1, 7200, Note_on_c, 0, 64, 68
1, 7200, Note_on_c, 0, 56, 63
1, 7320, Note_on_c, 0, 56, 0
1, 7320, Note_on_c, 0, 64, 0
1, 7320, Note_on_c, 0, 59, 0
1, 7680, Tempo, 693802
1, 7680, Note_on_c, 0, 52, 45
1, 7680, Note_on_c, 0, 56, 45
1, 7680, Note_on_c, 0, 59, 54
1, 7680, Note_on_c, 0, 39, 37
1, 7680, Note_on_c, 0, 47, 45
1, 7800, Note_on_c, 0, 47, 0
1, 7800, Note_on_c, 0, 59, 0
1, 7800, Note_on_c, 0, 52, 0
1, 7800, Note_on_c, 0, 56, 0
1, 7800, Note_on_c, 0, 39, 0
1, 8160, Tempo, 681818
1, 8160, Note_on_c, 0, 61, 31
1, 8160, Note_on_c, 0, 70, 31
1, 8160, Note_on_c, 0, 73, 37
1, 8160, Note_on_c, 0, 58, 28
1, 8160, Note_on_c, 0, 55, 28
1, 8160, Note_on_c, 0, 64, 32
1, 8640, Note_on_c, 0, 64, 0
1, 8640, Note_on_c, 0, 70, 0
1, 8640, Note_on_c, 0, 73, 0
1, 8640, Note_on_c, 0, 61, 0
1, 8640, Note_on_c, 0, 55, 0
1, 8640, Note_on_c, 0, 58, 0
1, 8640, Note_on_c, 0, 68, 28
1, 8640, Note_on_c, 0, 71, 32
1, 8640, Note_on_c, 0, 56, 23
1, 8640, Note_on_c, 0, 59, 23
1, 8640, Note_on_c, 0, 64, 28
1, 8880, Note_on_c, 0, 64, 0
1, 8880, Note_on_c, 0, 56, 0
1, 8880, Note_on_c, 0, 68, 0
1, 8880, Note_on_c, 0, 71, 0
1, 8880, Note_on_c, 0, 59, 0
1, 9120, Tempo, 555556
1, 9120, Note_on_c, 0, 46, 36
1, 9120, Note_on_c, 0, 61, 42
1, 9240, Note_on_c, 0, 44, 33
1, 9240, Note_on_c, 0, 59, 39
1, 9250, Note_on_c, 0, 61, 0
1, 9250, Note_on_c, 0, 46, 0
1, 9360, Note_on_c, 0, 39, 33
1, 9360, Note_on_c, 0, 54, 40
1, 9370, Note_on_c, 0, 44, 0
1, 9370, Note_on_c, 0, 59, 0
1, 9480, Note_on_c, 0, 44, 35
1, 9480, Note_on_c, 0, 52, 42
1, 9490, Note_on_c, 0, 39, 0
1, 9490, Note_on_c, 0, 54, 0
1, 9600, Note_on_c, 0, 46, 39
1, 9600, Note_on_c, 0, 61, 47
1, 9610, Note_on_c, 0, 44, 0
1, 9610, Note_on_c, 0, 52, 0
1, 9720, Note_on_c, 0, 44, 38
1, 9720, Note_on_c, 0, 59, 45
1, 9730, Note_on_c, 0, 46, 0
1, 9730, Note_on_c, 0, 61, 0
1, 9840, Note_on_c, 0, 39, 39
1, 9840, Note_on_c, 0, 54, 47
1, 9850, Note_on_c, 0, 44, 0
1, 9850, Note_on_c, 0, 59, 0
1, 9960, Note_on_c, 0, 44, 40
1, 9960, Note_on_c, 0, 52, 47
1, 9970, Note_on_c, 0, 39, 0
1, 9970, Note_on_c, 0, 54, 0
1, 10080, Tempo, 552995
1, 10080, Note_on_c, 0, 46, 44
1, 10080, Note_on_c, 0, 61, 53
1, 10090, Note_on_c, 0, 44, 0
1, 10090, Note_on_c, 0, 52, 0
1, 10200, Note_on_c, 0, 44, 43
1, 10200, Note_on_c, 0, 59, 50
1, 10210, Note_on_c, 0, 46, 0
1, 10210, Note_on_c, 0, 61, 0
1, 10240, Tempo, 550459
1, 10320, Note_on_c, 0, 39, 44
1, 10320, Note_on_c, 0, 54, 53
1, 10330, Note_on_c, 0, 44, 0
1, 10330, Note_on_c, 0, 59, 0
1, 10400, Tempo, 547945
1, 10440, Note_on_c, 0, 44, 46
1, 10440, Note_on_c, 0, 52, 55
1, 10450, Note_on_c, 0, 39, 0
1, 10450, Note_on_c, 0, 54, 0
1, 10560, Tempo, 545455
1, 10560, Note_on_c, 0, 46, 52
1, 10560, Note_on_c, 0, 61, 61
1, 10570, Note_on_c, 0, 44, 0
1, 10570, Note_on_c, 0, 52, 0
1, 10680, Note_on_c, 0, 44, 49
1, 10680, Note_on_c, 0, 59, 58
1, 10690, Note_on_c, 0, 46, 0
1, 10690, Note_on_c, 0, 61, 0
1, 10720, Tempo, 542986
1, 10800, Note_on_c, 0, 39, 49
1, 10800, Note_on_c, 0, 54, 59
1, 10810, Note_on_c, 0, 44, 0
1, 10810, Note_on_c, 0, 59, 0
1, 10880, Tempo, 540541
1, 10920, Note_on_c, 0, 44, 52
1, 10920, Note_on_c, 0, 52, 61
1, 10930, Note_on_c, 0, 39, 0
1, 10930, Note_on_c, 0, 54, 0
1, 11040, Tempo, 538117
1, 11040, Note_on_c, 0, 46, 58
1, 11040, Note_on_c, 0, 61, 70
1, 11050, Note_on_c, 0, 44, 0
1, 11050, Note_on_c, 0, 52, 0
1, 11160, Note_on_c, 0, 44, 55
1, 11160, Note_on_c, 0, 59, 64
1, 11170, Note_on_c, 0, 46, 0
1, 11170, Note_on_c, 0, 61, 0
1, 11200, Tempo, 535714
1, 11280, Note_on_c, 0, 39, 55
1, 11280, Note_on_c, 0, 54, 66
1, 11290, Note_on_c, 0, 44, 0
1, 11290, Note_on_c, 0, 59, 0
1, 11360, Tempo, 533333
1, 11400, Note_on_c, 0, 44, 57
1, 11400, Note_on_c, 0, 52, 68
1, 11410, Note_on_c, 0, 39, 0
1, 11410, Note_on_c, 0, 54, 0
1, 11480, Tempo, 530973
1, 11520, Tempo, 545455
1, 11520, Note_on_c, 0, 44, 0
1, 11520, Note_on_c, 0, 52, 0
1, 11520, Note_on_c, 0, 60, 74
1, 11520, Note_on_c, 0, 57, 74
1, 11520, Note_on_c, 0, 53, 74
1, 11520, Note_on_c, 0, 65, 88
1, 11520, Control_c, 0, 91, 127
1, 11520, Text_t, "bdca426d104a26ac9dcb070447587523"
1, 11520, Note_on_c, 0, 45, 63
1, 11520, Note_on_c, 0, 39, 63
1, 11520, Note_on_c, 0, 51, 75
1, 11606, Control_c, 0, 64, 127
1, 12000, Note_on_c, 0, 51, 0
1, 12000, Note_on_c, 0, 45, 0
1, 12000, Note_on_c, 0, 57, 0
1, 12000, Note_on_c, 0, 53, 0
1, 12000, Note_on_c, 0, 60, 0
1, 12000, Note_on_c, 0, 39, 0
1, 12000, Note_on_c, 0, 65, 0
1, 12000, Control_c, 0, 64, 0
1, 12240, Tempo, 424028
1, 12240, Note_on_c, 0, 57, 45
1, 12240, Note_on_c, 0, 62, 53
1, 12240, Note_on_c, 0, 54, 45
1, 12320, Tempo, 422535
1, 12360, Tempo, 421053
1, 12360, Note_on_c, 0, 54, 0
1, 12360, Note_on_c, 0, 62, 0
1, 12360, Note_on_c, 0, 57, 0
1, 12360, Note_on_c, 0, 58, 47
1, 12360, Note_on_c, 0, 63, 56
1, 12360, Note_on_c, 0, 55, 47
1, 12400, Tempo, 419580
1, 12480, Tempo, 418118
1, 12480, Note_on_c, 0, 55, 0
1, 12480, Note_on_c, 0, 63, 0
1, 12480, Note_on_c, 0, 58, 0
1, 12480, Note_on_c, 0, 59, 50
1, 12480, Note_on_c, 0, 64, 59
1, 12480, Note_on_c, 0, 56, 50
1, 12520, Tempo, 416667
1, 12560, Tempo, 415225
1, 12600, Note_on_c, 0, 56, 0
1, 12600, Note_on_c, 0, 64, 0
1, 12600, Note_on_c, 0, 59, 0
1, 12600, Note_on_c, 0, 60, 52
1, 12600, Note_on_c, 0, 65, 59
1, 12600, Note_on_c, 0, 57, 52
1, 12640, Tempo, 413793
1, 12680, Tempo, 412371
1, 12720, Tempo, 410959
1, 12720, Note_on_c, 0, 57, 0
1, 12720, Note_on_c, 0, 65, 0
1, 12720, Note_on_c, 0, 60, 0
1, 12720, Note_on_c, 0, 61, 55
1, 12720, Note_on_c, 0, 67, 65
1, 12720, Note_on_c, 0, 58, 55
1, 12800, Tempo, 409556
1, 12840, Tempo, 408163
1, 12840, Note_on_c, 0, 58, 0
1, 12840, Note_on_c, 0, 67, 0
1, 12840, Note_on_c, 0, 61, 0
1, 12840, Note_on_c, 0, 62, 68
1, 12840, Note_on_c, 0, 68, 68
1, 12840, Note_on_c, 0, 59, 57
1, 12880, Tempo, 406780
1, 12920, Tempo, 405405
1, 12960, Tempo, 600000
1, 12960, Note_on_c, 0, 59, 0
1, 12960, Note_on_c, 0, 68, 0
1, 12960, Note_on_c, 0, 62, 0
1, 12960, Note_on_c, 0, 63, 64
1, 12960, Note_on_c, 0, 69, 76
1, 12960, Note_on_c, 0, 60, 71
1, 13080, Note_on_c, 0, 60, 0
1, 13080, Note_on_c, 0, 69, 0
1, 13080, Note_on_c, 0, 63, 0
1, 13440, Tempo, 634921
1, 13440, Note_on_c, 0, 57, 62
1, 13440, Note_on_c, 0, 53, 62
1, 13440, Note_on_c, 0, 60, 62
1, 13440, Note_on_c, 0, 65, 74
1, 13440, Note_on_c, 0, 39, 54
1, 13440, Note_on_c, 0, 51, 64
1, 13532, Control_c, 0, 64, 127
1, 13560, Note_on_c, 0, 51, 0
1, 13560, Note_on_c, 0, 53, 0
1, 13560, Note_on_c, 0, 60, 0
1, 13560, Note_on_c, 0, 57, 0
1, 13560, Note_on_c, 0, 39, 0
1, 13560, Note_on_c, 0, 65, 0
1, 13920, Tempo, 621762
1, 13920, Note_on_c, 0, 60, 66
1, 13920, Note_on_c, 0, 65, 66
1, 13920, Note_on_c, 0, 72, 78
1, 13920, Note_on_c, 0, 57, 67
1, 13920, Note_on_c, 0, 51, 56
1, 13920, Note_on_c, 0, 63, 67
1, 13960, Tempo, 689655
1, 14400, Tempo, 579710
1, 14400, Note_on_c, 0, 63, 0
1, 14400, Note_on_c, 0, 65, 0
1, 14400, Note_on_c, 0, 72, 0
1, 14400, Note_on_c, 0, 60, 0
1, 14400, Note_on_c, 0, 51, 0
1, 14400, Note_on_c, 0, 57, 0
1, 14400, Note_on_c, 0, 56, 62
1, 14400, Note_on_c, 0, 58, 62
1, 14400, Note_on_c, 0, 62, 62
1, 14400, Note_on_c, 0, 65, 62
1, 14400, Note_on_c, 0, 70, 73
1, 14400, Control_c, 0, 64, 0
1, 14400, Note_on_c, 0, 27, 52
1, 14400, Note_on_c, 0, 39, 62
1, 14480, Control_c, 0, 64, 127
1, 14640, Note_on_c, 0, 39, 0
1, 14640, Note_on_c, 0, 70, 0
1, 14640, Note_on_c, 0, 58, 0
1, 14640, Note_on_c, 0, 62, 0
1, 14640, Note_on_c, 0, 56, 0
1, 14640, Note_on_c, 0, 27, 0
1, 14640, Note_on_c, 0, 65, 0
1, 14869, Control_c, 0, 64, 0
1, 15120, Tempo, 430108
1, 15120, Note_on_c, 0, 59, 49
1, 15120, Note_on_c, 0, 64, 58
1, 15120, Note_on_c, 0, 56, 49
1, 15160, Tempo, 428571
1, 15200, Tempo, 427046
1, 15240, Tempo, 425532
1, 15240, Note_on_c, 0, 56, 0
1, 15240, Note_on_c, 0, 64, 0
1, 15240, Note_on_c, 0, 59, 0
1, 15240, Note_on_c, 0, 60, 51
1, 15240, Note_on_c, 0, 65, 61
1, 15240, Note_on_c, 0, 57, 51
1, 15280, Tempo, 424028
1, 15320, Tempo, 422535
1, 15360, Tempo, 421053
1, 15360, Note_on_c, 0, 57, 0
1, 15360, Note_on_c, 0, 65, 0
1, 15360, Note_on_c, 0, 60, 0
1, 15360, Note_on_c, 0, 61, 55
1, 15360, Note_on_c, 0, 66, 64
1, 15360, Note_on_c, 0, 58, 55
1, 15400, Tempo, 419580
1, 15440, Tempo, 418118
1, 15480, Tempo, 416667
1, 15480, Note_on_c, 0, 58, 0
1, 15480, Note_on_c, 0, 66, 0
1, 15480, Note_on_c, 0, 61, 0
1, 15480, Note_on_c, 0, 62, 57
1, 15480, Note_on_c, 0, 67, 64
1, 15480, Note_on_c, 0, 59, 57
1, 15520, Tempo, 415225
1, 15560, Tempo, 413793
1, 15600, Tempo, 412371
1, 15600, Note_on_c, 0, 59, 0
1, 15600, Note_on_c, 0, 67, 0
1, 15600, Note_on_c, 0, 62, 0
1, 15600, Note_on_c, 0, 63, 60
1, 15600, Note_on_c, 0, 68, 71
1, 15600, Note_on_c, 0, 60, 60
1, 15640, Tempo, 410959
1, 15680, Tempo, 409556
1, 15720, Tempo, 408163
1, 15720, Note_on_c, 0, 60, 0
1, 15720, Note_on_c, 0, 68, 0
1, 15720, Note_on_c, 0, 63, 0
1, 15720, Note_on_c, 0, 64, 74
1, 15720, Note_on_c, 0, 69, 74
1, 15720, Note_on_c, 0, 61, 62
1, 15760, Tempo, 406780
1, 15800, Tempo, 405405
1, 15840, Tempo, 600000
1, 15840, Note_on_c, 0, 61, 0
1, 15840, Note_on_c, 0, 69, 0
1, 15840, Note_on_c, 0, 64, 0
1, 15840, Note_on_c, 0, 65, 64
1, 15840, Note_on_c, 0, 70, 76
1, 15840, Note_on_c, 0, 62, 71
1, 15960, Note_on_c, 0, 62, 0
1, 15960, Note_on_c, 0, 70, 0
1, 15960, Note_on_c, 0, 65, 0
1, 16320, Tempo, 618557
1, 16320, Note_on_c, 0, 58, 63
1, 16320, Note_on_c, 0, 53, 63
1, 16320, Note_on_c, 0, 62, 75
1, 16320, Note_on_c, 0, 65, 75
1, 16320, Note_on_c, 0, 39, 54
1, 16320, Note_on_c, 0, 51, 64
1, 16406, Control_c, 0, 64, 127
1, 16440, Note_on_c, 0, 51, 0
1, 16440, Note_on_c, 0, 53, 0
1, 16440, Note_on_c, 0, 62, 0
1, 16440, Note_on_c, 0, 58, 0
1, 16440, Note_on_c, 0, 39, 0
1, 16440, Note_on_c, 0, 65, 0
1, 16800, Tempo, 666667
1, 16800, Note_on_c, 0, 65, 70
1, 16800, Note_on_c, 0, 70, 70
1, 16800, Note_on_c, 0, 77, 82
1, 16800, Note_on_c, 0, 58, 58
1, 16800, Note_on_c, 0, 62, 70
1, 16800, Note_on_c, 0, 56, 58
1, 16800, Note_on_c, 0, 68, 70
1, 17280, Tempo, 550459
1, 17280, Note_on_c, 0, 68, 0
1, 17280, Note_on_c, 0, 62, 0
1, 17280, Note_on_c, 0, 70, 0
1, 17280, Note_on_c, 0, 77, 0
1, 17280, Note_on_c, 0, 65, 0
1, 17280, Note_on_c, 0, 56, 0
1, 17280, Note_on_c, 0, 58, 0
1, 17280, Note_on_c, 0, 61, 65
1, 17280, Note_on_c, 0, 63, 65
1, 17280, Note_on_c, 0, 67, 65
1, 17280, Note_on_c, 0, 70, 65
1, 17280, Note_on_c, 0, 75, 77
1, 17280, Control_c, 0, 64, 0
1, 17280, Note_on_c, 0, 27, 54
1, 17280, Note_on_c, 0, 39, 65
1, 17333, Control_c, 0, 64, 127
1, 17502, Control_c, 0, 64, 0
1, 17520, Note_on_c, 0, 39, 0
1, 17520, Note_on_c, 0, 75, 0
1, 17520, Note_on_c, 0, 63, 0
1, 17520, Note_on_c, 0, 67, 0
1, 17520, Note_on_c, 0, 61, 0
1, 17520, Note_on_c, 0, 27, 0
1, 17520, Note_on_c, 0, 70, 0
1, 17760, Tempo, 545455
1, 17760, Note_on_c, 0, 73, 77
1, 17760, Note_on_c, 0, 77, 77
1, 17760, Note_on_c, 0, 34, 54
1, 17760, Note_on_c, 0, 46, 64
1, 17800, Tempo, 542986
1, 17840, Tempo, 540541
1, 17880, Tempo, 533333
1, 17880, Note_on_c, 0, 46, 0
1, 17880, Note_on_c, 0, 73, 0
1, 17880, Note_on_c, 0, 77, 0
1, 17880, Note_on_c, 0, 34, 0
1, 17880, Note_on_c, 0, 68, 72
1, 17960, Tempo, 530973
1, 18000, Tempo, 528634
1, 18000, Note_on_c, 0, 68, 0
1, 18000, Note_on_c, 0, 67, 72
1, 18000, Note_on_c, 0, 39, 46
1, 18000, Note_on_c, 0, 51, 55
1, 18040, Tempo, 526316
1, 18060, Note_on_c, 0, 51, 0
1, 18060, Note_on_c, 0, 39, 0
1, 18120, Tempo, 524017
1, 18120, Note_on_c, 0, 67, 0
1, 18120, Note_on_c, 0, 75, 72
1, 18120, Note_on_c, 0, 41, 49
1, 18120, Note_on_c, 0, 53, 58
1, 18160, Tempo, 521739
1, 18180, Note_on_c, 0, 53, 0
1, 18180, Note_on_c, 0, 41, 0
1, 18200, Tempo, 519481
1, 18240, Tempo, 517241
1, 18240, Note_on_c, 0, 75, 0
1, 18240, Note_on_c, 0, 73, 77
1, 18240, Note_on_c, 0, 77, 77
1, 18240, Note_on_c, 0, 43, 51
1, 18240, Note_on_c, 0, 55, 60
1, 18300, Note_on_c, 0, 55, 0
1, 18300, Note_on_c, 0, 43, 0
1, 18320, Tempo, 515021
1, 18360, Tempo, 512821
1, 18360, Note_on_c, 0, 77, 0
1, 18360, Note_on_c, 0, 73, 0
1, 18360, Note_on_c, 0, 68, 70
1, 18360, Note_on_c, 0, 44, 52
1, 18360, Note_on_c, 0, 56, 62
1, 18400, Tempo, 510638
1, 18420, Note_on_c, 0, 56, 0
1, 18420, Note_on_c, 0, 44, 0
1, 18440, Tempo, 508475
1, 18480, Note_on_c, 0, 68, 0
1, 18480, Note_on_c, 0, 67, 70
1, 18480, Note_on_c, 0, 46, 55
1, 18480, Note_on_c, 0, 58, 65
1, 18520, Tempo, 506329
1, 18540, Note_on_c, 0, 58, 0
1, 18540, Note_on_c, 0, 46, 0
1, 18560, Tempo, 504202
1, 18600, Tempo, 502092
1, 18600, Note_on_c, 0, 67, 0
1, 18600, Note_on_c, 0, 75, 70
1, 18600, Note_on_c, 0, 48, 56
1, 18600, Note_on_c, 0, 60, 67
1, 18640, Tempo, 500000
1, 18660, Note_on_c, 0, 60, 0
1, 18660, Note_on_c, 0, 48, 0
1, 18720, Note_on_c, 0, 75, 0
1, 18720, Note_on_c, 0, 70, 77
1, 18720, Note_on_c, 0, 77, 77
1, 18720, Note_on_c, 0, 49, 59
1, 18720, Note_on_c, 0, 61, 70
1, 18760, Tempo, 506329
1, 18780, Note_on_c, 0, 61, 0
1, 18780, Note_on_c, 0, 49, 0
1, 18840, Tempo, 508475
1, 18840, Note_on_c, 0, 77, 0
1, 18840, Note_on_c, 0, 70, 0
1, 18840, Note_on_c, 0, 67, 71
1, 18960, Tempo, 510638
1, 18960, Note_on_c, 0, 67, 0
1, 18960, Note_on_c, 0, 63, 71
1, 19080, Tempo, 512821
1, 19080, Note_on_c, 0, 63, 0
1, 19080, Note_on_c, 0, 75, 71
1, 19160, Tempo, 515021
1, 19200, Tempo, 521739
1, 19200, Note_on_c, 0, 75, 0
1, 19200, Note_on_c, 0, 72, 77
1, 19200, Note_on_c, 0, 77, 77
1, 19200, Note_on_c, 0, 39, 54
1, 19200, Note_on_c, 0, 51, 64
1, 19240, Tempo, 519481
1, 19260, Note_on_c, 0, 51, 0
1, 19260, Note_on_c, 0, 39, 0
1, 19280, Tempo, 517241
1, 19320, Note_on_c, 0, 77, 0
1, 19320, Note_on_c, 0, 72, 0
1, 19320, Note_on_c, 0, 67, 72
1, 19360, Tempo, 515021
1, 19400, Tempo, 512821
1, 19440, Tempo, 510638
1, 19440, Note_on_c, 0, 67, 0
1, 19440, Note_on_c, 0, 63, 72
1, 19520, Tempo, 508475
1, 19560, Tempo, 506329
1, 19560, Note_on_c, 0, 63, 0
1, 19560, Note_on_c, 0, 75, 72
1, 19600, Tempo, 504202
1, 19640, Tempo, 502092
1, 19680, Note_on_c, 0, 75, 0
1, 19680, Note_on_c, 0, 73, 77
1, 19680, Note_on_c, 0, 77, 77
1, 19680, Note_on_c, 0, 55, 59
1, 19680, Note_on_c, 0, 67, 70
1, 19720, Tempo, 504202
1, 19740, Control_c, 0, 64, 127
1, 19800, Tempo, 506329
1, 19800, Note_on_c, 0, 77, 0
1, 19800, Note_on_c, 0, 73, 0
1, 19800, Note_on_c, 0, 70, 71
1, 19840, Tempo, 508475
1, 19920, Tempo, 510638
1, 19920, Note_on_c, 0, 70, 0
1, 19920, Note_on_c, 0, 63, 71
1, 19960, Tempo, 512821
1, 20040, Tempo, 515021
1, 20040, Note_on_c, 0, 63, 0
1, 20040, Note_on_c, 0, 75, 71
1, 20080, Tempo, 517241
1, 20120, Tempo, 519481
1, 20160, Tempo, 524017
1, 20160, Note_on_c, 0, 75, 0
1, 20160, Note_on_c, 0, 55, 0
1, 20160, Note_on_c, 0, 73, 73
1, 20160, Note_on_c, 0, 77, 73
1, 20280, Note_on_c, 0, 77, 0
1, 20280, Note_on_c, 0, 73, 0
1, 20280, Note_on_c, 0, 67, 0
1, 20280, Note_on_c, 0, 70, 67
1, 20280, Note_on_c, 0, 61, 53
1, 20400, Note_on_c, 0, 61, 0
1, 20400, Note_on_c, 0, 70, 0
1, 20400, Note_on_c, 0, 63, 68
1, 20400, Note_on_c, 0, 58, 53
1, 20520, Note_on_c, 0, 58, 0
1, 20520, Note_on_c, 0, 63, 0
1, 20520, Note_on_c, 0, 75, 68
1, 20520, Note_on_c, 0, 51, 54
1, 20640, Note_on_c, 0, 51, 0
1, 20640, Note_on_c, 0, 75, 0
1, 20640, Note_on_c, 0, 73, 75
1, 20640, Note_on_c, 0, 77, 75
1, 20640, Note_on_c, 0, 67, 63
1, 20760, Note_on_c, 0, 67, 0
1, 20760, Note_on_c, 0, 77, 0
1, 20760, Note_on_c, 0, 73, 0
1, 20760, Note_on_c, 0, 70, 70
1, 20760, Note_on_c, 0, 61, 58
1, 20880, Tempo, 521739
1, 20880, Note_on_c, 0, 61, 0
1, 20880, Note_on_c, 0, 70, 0
1, 20880, Note_on_c, 0, 63, 71
1, 20880, Note_on_c, 0, 58, 58
1, 21000, Note_on_c, 0, 58, 0
1, 21000, Note_on_c, 0, 63, 0
1, 21000, Note_on_c, 0, 75, 71
1, 21000, Note_on_c, 0, 51, 58
1, 21120, Note_on_c, 0, 51, 0
1, 21120, Note_on_c, 0, 75, 0
1, 21120, Note_on_c, 0, 73, 77
1, 21120, Note_on_c, 0, 77, 77
1, 21120, Note_on_c, 0, 67, 63
1, 21240, Note_on_c, 0, 67, 0
1, 21240, Note_on_c, 0, 77, 0
1, 21240, Note_on_c, 0, 73, 0
1, 21240, Note_on_c, 0, 70, 72
1, 21240, Note_on_c, 0, 61, 58
1, 21360, Note_on_c, 0, 61, 0
1, 21360, Note_on_c, 0, 70, 0
1, 21360, Note_on_c, 0, 63, 73
1, 21360, Note_on_c, 0, 58, 58
1, 21480, Note_on_c, 0, 58, 0
1, 21480, Note_on_c, 0, 63, 0
1, 21480, Note_on_c, 0, 75, 73
1, 21480, Note_on_c, 0, 51, 59
1, 21560, Tempo, 519481
1, 21600, Note_on_c, 0, 51, 0
1, 21600, Note_on_c, 0, 75, 0
1, 21600, Note_on_c, 0, 73, 80
1, 21600, Note_on_c, 0, 77, 80
1, 21600, Note_on_c, 0, 67, 68
1, 21680, Tempo, 521739
1, 21720, Note_on_c, 0, 67, 0
1, 21720, Note_on_c, 0, 77, 0
1, 21720, Note_on_c, 0, 73, 0
1, 21720, Note_on_c, 0, 70, 74
1, 21720, Note_on_c, 0, 61, 60
1, 21760, Tempo, 524017
1, 21840, Tempo, 526316
1, 21840, Note_on_c, 0, 61, 0
1, 21840, Note_on_c, 0, 70, 0
1, 21840, Note_on_c, 0, 63, 75
1, 21840, Note_on_c, 0, 58, 61
1, 21960, Tempo, 528634
1, 21960, Note_on_c, 0, 58, 0
1, 21960, Note_on_c, 0, 63, 0
1, 21960, Note_on_c, 0, 75, 77
1, 21960, Note_on_c, 0, 51, 62
1, 22040, Tempo, 530973
1, 22080, Note_on_c, 0, 51, 0
1, 22080, Note_on_c, 0, 75, 0
1, 22080, Note_on_c, 0, 73, 83
1, 22080, Note_on_c, 0, 77, 83
1, 22080, Note_on_c, 0, 61, 70
1, 22120, Tempo, 533333
1, 22200, Note_on_c, 0, 61, 0
1, 22200, Note_on_c, 0, 77, 0
1, 22200, Note_on_c, 0, 73, 0
1, 22200, Note_on_c, 0, 70, 78
1, 22200, Note_on_c, 0, 55, 63
1, 22240, Tempo, 535714
1, 22320, Tempo, 538117
1, 22320, Note_on_c, 0, 55, 0
1, 22320, Note_on_c, 0, 70, 0
1, 22320, Note_on_c, 0, 63, 79
1, 22320, Note_on_c, 0, 51, 63
1, 22400, Tempo, 540541
1, 22440, Note_on_c, 0, 51, 0
1, 22440, Note_on_c, 0, 63, 0
1, 22440, Note_on_c, 0, 75, 79
1, 22440, Note_on_c, 0, 46, 63
1, 22480, Tempo, 538117
1, 22520, Tempo, 540541
1, 22550, Tempo, 538117
1, 22560, Note_on_c, 0, 46, 0
1, 22560, Note_on_c, 0, 75, 0
1, 22560, Note_on_c, 0, 73, 85
1, 22560, Note_on_c, 0, 77, 85
1, 22560, Note_on_c, 0, 55, 72
1, 22566, Tempo, 540541
1, 22578, Tempo, 545455
1, 22590, Tempo, 547945
1, 22606, Tempo, 552995
1, 22618, Tempo, 555556
1, 22630, Tempo, 560748
1, 22646, Tempo, 566038
1, 22658, Tempo, 568720
1, 22670, Tempo, 574163
1, 22680, Note_on_c, 0, 55, 0
1, 22680, Note_on_c, 0, 77, 0
1, 22680, Note_on_c, 0, 73, 0
1, 22680, Note_on_c, 0, 70, 80
1, 22680, Note_on_c, 0, 49, 66
1, 22686, Tempo, 576923
1, 22698, Tempo, 582524
1, 22710, Tempo, 585366
1, 22726, Tempo, 591133
1, 22738, Tempo, 597015
1, 22750, Tempo, 600000
1, 22766, Tempo, 606061
1, 22778, Tempo, 609137
1, 22790, Tempo, 615385
1, 22800, Note_on_c, 0, 49, 0
1, 22800, Note_on_c, 0, 70, 0
1, 22800, Note_on_c, 0, 63, 81
1, 22800, Note_on_c, 0, 46, 65
1, 22806, Tempo, 618557
1, 22818, Tempo, 625000
1, 22830, Tempo, 631579
1, 22846, Tempo, 634921
1, 22858, Tempo, 641711
1, 22870, Tempo, 645161
1, 22886, Tempo, 652174
1, 22898, Tempo, 655738
1, 22910, Tempo, 662983
1, 22920, Note_on_c, 0, 46, 0
1, 22920, Note_on_c, 0, 63, 0
1, 22920, Note_on_c, 0, 75, 82
1, 22920, Note_on_c, 0, 39, 66
1, 22926, Tempo, 670391
1, 22938, Tempo, 674157
1, 22950, Tempo, 681818
1, 22966, Tempo, 685714
1, 22978, Tempo, 693642
1, 22990, Tempo, 697674
1, 23006, Tempo, 705882
1, 23018, Tempo, 714286
1, 23040, Tempo, 882353
1, 23040, Note_on_c, 0, 39, 0
1, 23040, Note_on_c, 0, 75, 0
1, 23040, Note_on_c, 0, 73, 75
1, 23040, Note_on_c, 0, 77, 89
1, 23040, Note_on_c, 0, 32, 61
1, 23040, Note_on_c, 0, 44, 72
1, 23046, Control_c, 0, 64, 0
1, 23118, Control_c, 0, 64, 127
1, 23160, Note_on_c, 0, 44, 0
1, 23160, Note_on_c, 0, 32, 0
1, 23280, Tempo, 560748
1, 23280, Note_on_c, 0, 51, 61
1, 23280, Note_on_c, 0, 63, 72
1, 23400, Tempo, 621891
1, 23400, Note_on_c, 0, 77, 0
1, 23400, Note_on_c, 0, 73, 0
1, 23400, Note_on_c, 0, 72, 72
1, 23400, Note_on_c, 0, 75, 85
1, 23480, Tempo, 681818
1, 23508, Note_on_c, 0, 75, 0
1, 23508, Note_on_c, 0, 72, 0
1, 23520, Note_on_c, 0, 51, 0
1, 23520, Note_on_c, 0, 63, 0
1, 23520, Note_on_c, 0, 72, 72
1, 23520, Note_on_c, 0, 75, 85
1, 23520, Note_on_c, 0, 68, 70
1, 23520, Note_on_c, 0, 60, 70
1, 23520, Note_on_c, 0, 56, 59
1, 23760, Tempo, 685714
1, 23760, Note_on_c, 0, 56, 0
1, 23760, Note_on_c, 0, 68, 0
1, 23760, Note_on_c, 0, 60, 0
1, 23760, Note_on_c, 0, 39, 66
1, 23760, Note_on_c, 0, 51, 78
1, 23767, Control_c, 0, 64, 0
1, 23820, Note_on_c, 0, 51, 0
1, 23820, Note_on_c, 0, 39, 0
1, 24000, Tempo, 666667
1, 24000, Note_on_c, 0, 75, 0
1, 24000, Note_on_c, 0, 72, 0
1, 24000, Note_on_c, 0, 44, 67
1, 24000, Note_on_c, 0, 56, 79
1, 24120, Note_on_c, 0, 56, 0
1, 24120, Note_on_c, 0, 44, 0
1, 24240, Note_on_c, 0, 68, 68
1, 24240, Note_on_c, 0, 72, 80
1, 24240, Note_on_c, 0, 27, 56
1, 24240, Note_on_c, 0, 39, 67
1, 24360, Tempo, 705882
1, 24360, Note_on_c, 0, 72, 0
1, 24360, Note_on_c, 0, 68, 0
1, 24360, Note_on_c, 0, 70, 67
1, 24360, Note_on_c, 0, 73, 79
1, 24480, Tempo, 666667
1, 24480, Note_on_c, 0, 73, 0
1, 24480, Note_on_c, 0, 39, 0
1, 24480, Note_on_c, 0, 27, 0
1, 24480, Note_on_c, 0, 70, 0
1, 24480, Note_on_c, 0, 73, 72
1, 24480, Note_on_c, 0, 77, 85
1, 24480, Note_on_c, 0, 32, 61
1, 24480, Note_on_c, 0, 44, 72
1, 24500, Tempo, 705882
1, 24512, Control_c, 0, 64, 127
1, 24600, Tempo, 666667
1, 24600, Note_on_c, 0, 77, 0
1, 24600, Note_on_c, 0, 73, 0
1, 24600, Note_on_c, 0, 72, 68
1, 24600, Note_on_c, 0, 75, 80
1, 24660, Note_on_c, 0, 75, 0
1, 24660, Note_on_c, 0, 77, 74
1, 24720, Tempo, 574163
1, 24720, Note_on_c, 0, 77, 0
1, 24720, Note_on_c, 0, 32, 0
1, 24720, Note_on_c, 0, 44, 0
1, 24720, Note_on_c, 0, 75, 85
1, 24720, Note_on_c, 0, 63, 67
1, 24720, Note_on_c, 0, 51, 56
1, 24840, Tempo, 714286
1, 24840, Note_on_c, 0, 75, 0
1, 24840, Note_on_c, 0, 72, 0
1, 24840, Note_on_c, 0, 71, 68
1, 24840, Note_on_c, 0, 74, 80
1, 24960, Tempo, 677966
1, 24960, Note_on_c, 0, 74, 0
1, 24960, Note_on_c, 0, 51, 0
1, 24960, Note_on_c, 0, 63, 0
1, 24960, Note_on_c, 0, 71, 0
1, 24960, Note_on_c, 0, 72, 68
1, 24960, Note_on_c, 0, 75, 80
1, 24960, Note_on_c, 0, 68, 69
1, 24960, Note_on_c, 0, 60, 69
1, 24960, Note_on_c, 0, 56, 58
1, 24968, Control_c, 0, 64, 0
1, 25200, Tempo, 681818
1, 25200, Note_on_c, 0, 56, 0
1, 25200, Note_on_c, 0, 68, 0
1, 25200, Note_on_c, 0, 60, 0
1, 25200, Note_on_c, 0, 39, 61
1, 25200, Note_on_c, 0, 51, 73
1, 25260, Note_on_c, 0, 51, 0
1, 25260, Note_on_c, 0, 39, 0
1, 25440, Tempo, 645161
1, 25440, Note_on_c, 0, 75, 0
1, 25440, Note_on_c, 0, 72, 0
1, 25440, Note_on_c, 0, 44, 67
1, 25440, Note_on_c, 0, 56, 79
1, 25560, Note_on_c, 0, 56, 0
1, 25560, Note_on_c, 0, 44, 0
1, 25680, Tempo, 666667
1, 25680, Note_on_c, 0, 68, 68
1, 25680, Note_on_c, 0, 72, 80
1, 25680, Note_on_c, 0, 27, 56
1, 25680, Note_on_c, 0, 39, 67
1, 25800, Tempo, 677966
1, 25800, Note_on_c, 0, 72, 0
1, 25800, Note_on_c, 0, 68, 0
1, 25800, Note_on_c, 0, 70, 67
1, 25800, Note_on_c, 0, 73, 79
1, 25920, Tempo, 666667
1, 25920, Note_on_c, 0, 73, 0
1, 25920, Note_on_c, 0, 39, 0
1, 25920, Note_on_c, 0, 27, 0
1, 25920, Note_on_c, 0, 70, 0
1, 25920, Note_on_c, 0, 73, 72
1, 25920, Note_on_c, 0, 77, 85
1, 25920, Note_on_c, 0, 32, 61
1, 25920, Note_on_c, 0, 44, 72
1, 26001, Control_c, 0, 64, 127
1, 26040, Note_on_c, 0, 77, 0
1, 26040, Note_on_c, 0, 73, 0
1, 26040, Note_on_c, 0, 72, 68
1, 26040, Note_on_c, 0, 75, 80
1, 26100, Note_on_c, 0, 75, 0
1, 26100, Note_on_c, 0, 77, 74
1, 26160, Tempo, 571429
1, 26160, Note_on_c, 0, 77, 0
1, 26160, Note_on_c, 0, 32, 0
1, 26160, Note_on_c, 0, 44, 0
1, 26160, Note_on_c, 0, 75, 85
1, 26160, Note_on_c, 0, 63, 67
1, 26160, Note_on_c, 0, 51, 56
1, 26280, Tempo, 681818
1, 26280, Note_on_c, 0, 75, 0
1, 26280, Note_on_c, 0, 72, 0
1, 26280, Note_on_c, 0, 71, 68
1, 26280, Note_on_c, 0, 74, 80
1, 26400, Tempo, 666667
1, 26400, Note_on_c, 0, 74, 0
1, 26400, Note_on_c, 0, 51, 0
1, 26400, Note_on_c, 0, 63, 0
1, 26400, Note_on_c, 0, 71, 0
1, 26400, Note_on_c, 0, 73, 72
1, 26400, Note_on_c, 0, 77, 85
1, 26400, Note_on_c, 0, 68, 69
1, 26400, Note_on_c, 0, 60, 69
1, 26400, Note_on_c, 0, 56, 58
1, 26460, Note_on_c, 0, 77, 0
1, 26520, Note_on_c, 0, 73, 0
1, 26520, Note_on_c, 0, 72, 68
1, 26520, Note_on_c, 0, 75, 80
1, 26580, Note_on_c, 0, 77, 74
1, 26640, Tempo, 606061
1, 26640, Note_on_c, 0, 77, 0
1, 26640, Note_on_c, 0, 68, 0
1, 26640, Note_on_c, 0, 56, 0
1, 26640, Note_on_c, 0, 60, 0
1, 26640, Note_on_c, 0, 75, 0
1, 26640, Note_on_c, 0, 75, 85
1, 26640, Note_on_c, 0, 39, 56
1, 26640, Note_on_c, 0, 51, 67
1, 26760, Tempo, 689655
1, 26760, Note_on_c, 0, 51, 0
1, 26760, Note_on_c, 0, 72, 0
1, 26760, Note_on_c, 0, 75, 0
1, 26760, Note_on_c, 0, 39, 0
1, 26760, Note_on_c, 0, 71, 68
1, 26760, Note_on_c, 0, 74, 80
1, 26880, Tempo, 666667
1, 26880, Note_on_c, 0, 74, 0
1, 26880, Note_on_c, 0, 71, 0
1, 26880, Note_on_c, 0, 72, 68
1, 26880, Note_on_c, 0, 75, 80
1, 26880, Note_on_c, 0, 44, 59
1, 26880, Note_on_c, 0, 56, 70
1, 26894, Control_c, 0, 64, 0
1, 27000, Tempo, 810811
1, 27000, Note_on_c, 0, 56, 0
1, 27000, Note_on_c, 0, 44, 0
1, 27060, Note_on_c, 0, 75, 0
1, 27060, Note_on_c, 0, 72, 0
1, 27060, Note_on_c, 0, 63, 66
1, 27060, Note_on_c, 0, 39, 57
1, 27090, Note_on_c, 0, 70, 66
1, 27090, Note_on_c, 0, 46, 57
1, 27120, Tempo, 750000
1, 27120, Note_on_c, 0, 78, 78
1, 27120, Note_on_c, 0, 54, 68
1, 27145, Control_c, 0, 64, 127
1, 27240, Tempo, 714286
1, 27270, Note_on_c, 0, 54, 0
1, 27270, Note_on_c, 0, 39, 0
1, 27270, Note_on_c, 0, 46, 0
1, 27270, Note_on_c, 0, 41, 57
1, 27300, Note_on_c, 0, 48, 57
1, 27330, Note_on_c, 0, 51, 68
1, 27360, Note_on_c, 0, 63, 0
1, 27360, Note_on_c, 0, 70, 0
1, 27360, Note_on_c, 0, 78, 0
1, 27360, Note_on_c, 0, 63, 64
1, 27360, Note_on_c, 0, 69, 64
1, 27360, Note_on_c, 0, 77, 76
1, 27360, Control_c, 0, 64, 0
1, 27360, Note_on_c, 0, 57, 68
1, 27414, Control_c, 0, 64, 127
1, 27510, Note_on_c, 0, 57, 0
1, 27510, Note_on_c, 0, 51, 0
1, 27510, Note_on_c, 0, 41, 0
1, 27510, Note_on_c, 0, 48, 56
1, 27540, Note_on_c, 0, 53, 56
1, 27570, Note_on_c, 0, 57, 67
1, 27600, Note_on_c, 0, 69, 0
1, 27600, Note_on_c, 0, 77, 0
1, 27600, Note_on_c, 0, 63, 0
1, 27600, Note_on_c, 0, 48, 0
1, 27600, Note_on_c, 0, 65, 64
1, 27600, Note_on_c, 0, 69, 64
1, 27600, Note_on_c, 0, 72, 76
1, 27600, Note_on_c, 0, 63, 67
1, 27750, Note_on_c, 0, 63, 0
1, 27750, Note_on_c, 0, 48, 0
1, 27750, Note_on_c, 0, 53, 0
1, 27750, Note_on_c, 0, 57, 0
1, 27750, Note_on_c, 0, 46, 58
1, 27769, Control_c, 0, 64, 0
1, 27780, Note_on_c, 0, 53, 58
1, 27810, Note_on_c, 0, 58, 69
1, 27840, Note_on_c, 0, 65, 0
1, 27840, Note_on_c, 0, 72, 0
1, 27840, Note_on_c, 0, 69, 0
1, 27840, Note_on_c, 0, 65, 64
1, 27840, Note_on_c, 0, 70, 64
1, 27840, Note_on_c, 0, 73, 76
1, 27840, Note_on_c, 0, 61, 69
1, 27883, Control_c, 0, 64, 127
1, 28080, Tempo, 727273
1, 28080, Note_on_c, 0, 61, 0
1, 28080, Note_on_c, 0, 70, 0
1, 28080, Note_on_c, 0, 53, 0
1, 28080, Note_on_c, 0, 46, 0
1, 28080, Note_on_c, 0, 58, 0
1, 28080, Note_on_c, 0, 73, 0
1, 28080, Note_on_c, 0, 65, 0
1, 28080, Note_on_c, 0, 66, 73
1, 28080, Note_on_c, 0, 30, 55
1, 28080, Note_on_c, 0, 42, 65
1, 28086, Control_c, 0, 64, 0
1, 28160, Note_on_c, 0, 66, 0
1, 28160, Note_on_c, 0, 54, 73
1, 28240, Note_on_c, 0, 54, 0
1, 28240, Note_on_c, 0, 66, 73
1, 28320, Tempo, 705882
1, 28320, Note_on_c, 0, 66, 0
1, 28320, Note_on_c, 0, 42, 0
1, 28320, Note_on_c, 0, 30, 0
1, 28320, Note_on_c, 0, 53, 65
1, 28320, Note_on_c, 0, 65, 77
1, 28320, Note_on_c, 0, 29, 55
1, 28320, Note_on_c, 0, 41, 65
1, 28560, Tempo, 774194
1, 28560, Note_on_c, 0, 41, 0
1, 28560, Note_on_c, 0, 53, 0
1, 28560, Note_on_c, 0, 65, 0
1, 28560, Note_on_c, 0, 29, 0
1, 28560, Note_on_c, 0, 61, 72
1, 28560, Note_on_c, 0, 37, 53
1, 28560, Note_on_c, 0, 49, 63
1, 28740, Note_on_c, 0, 61, 0
1, 28740, Note_on_c, 0, 66, 78
1, 28800, Tempo, 810811
1, 28800, Note_on_c, 0, 66, 0
1, 28800, Note_on_c, 0, 49, 0
1, 28800, Note_on_c, 0, 37, 0
1, 28800, Note_on_c, 0, 75, 75
1, 28800, Note_on_c, 0, 78, 89
1, 28800, Note_on_c, 0, 34, 61
1, 28800, Note_on_c, 0, 46, 72
1, 28800, Control_c, 0, 64, 0
1, 28878, Control_c, 0, 64, 127
1, 28920, Note_on_c, 0, 46, 0
1, 28920, Note_on_c, 0, 34, 0
1, 29040, Tempo, 576923
1, 29040, Note_on_c, 0, 53, 61
1, 29040, Note_on_c, 0, 65, 72
1, 29160, Tempo, 641849
1, 29160, Note_on_c, 0, 78, 0
1, 29160, Note_on_c, 0, 75, 0
1, 29160, Note_on_c, 0, 73, 72
1, 29160, Note_on_c, 0, 77, 85
1, 29268, Note_on_c, 0, 77, 0
1, 29268, Note_on_c, 0, 73, 0
1, 29280, Tempo, 674157
1, 29280, Note_on_c, 0, 53, 0
1, 29280, Note_on_c, 0, 65, 0
1, 29280, Note_on_c, 0, 73, 72
1, 29280, Note_on_c, 0, 77, 85
1, 29280, Note_on_c, 0, 70, 70
1, 29280, Note_on_c, 0, 61, 70
1, 29280, Note_on_c, 0, 58, 59
1, 29520, Tempo, 693642
1, 29520, Note_on_c, 0, 58, 0
1, 29520, Note_on_c, 0, 70, 0
1, 29520, Note_on_c, 0, 61, 0
1, 29520, Note_on_c, 0, 41, 66
1, 29520, Note_on_c, 0, 53, 78
1, 29528, Control_c, 0, 64, 0
1, 29580, Note_on_c, 0, 53, 0
1, 29580, Note_on_c, 0, 41, 0
1, 29760, Tempo, 666667
1, 29760, Note_on_c, 0, 77, 0
1, 29760, Note_on_c, 0, 73, 0
1, 29760, Note_on_c, 0, 46, 67
1, 29760, Note_on_c, 0, 58, 79
1, 29880, Note_on_c, 0, 58, 0
1, 29880, Note_on_c, 0, 46, 0
1, 30000, Note_on_c, 0, 70, 68
1, 30000, Note_on_c, 0, 73, 80
1, 30000, Note_on_c, 0, 29, 56
1, 30000, Note_on_c, 0, 41, 67
1, 30120, Tempo, 705882
1, 30120, Note_on_c, 0, 73, 0
1, 30120, Note_on_c, 0, 70, 0
1, 30120, Note_on_c, 0, 72, 67
1, 30120, Note_on_c, 0, 75, 79
1, 30240, Tempo, 666667
1, 30240, Note_on_c, 0, 75, 0
1, 30240, Note_on_c, 0, 41, 0
1, 30240, Note_on_c, 0, 29, 0
1, 30240, Note_on_c, 0, 72, 0
1, 30240, Note_on_c, 0, 75, 72
1, 30240, Note_on_c, 0, 78, 85
1, 30240, Note_on_c, 0, 34, 61
1, 30240, Note_on_c, 0, 46, 72
1, 30260, Tempo, 705882
1, 30272, Control_c, 0, 64, 127
1, 30360, Tempo, 666667
1, 30360, Note_on_c, 0, 78, 0
1, 30360, Note_on_c, 0, 75, 0
1, 30360, Note_on_c, 0, 73, 68
1, 30360, Note_on_c, 0, 77, 80
1, 30420, Note_on_c, 0, 77, 0
1, 30420, Note_on_c, 0, 78, 74
1, 30480, Tempo, 574163
1, 30480, Note_on_c, 0, 78, 0
1, 30480, Note_on_c, 0, 34, 0
1, 30480, Note_on_c, 0, 46, 0
1, 30480, Note_on_c, 0, 77, 85
1, 30480, Note_on_c, 0, 65, 67
1, 30480, Note_on_c, 0, 53, 56
1, 30600, Tempo, 714286
1, 30600, Note_on_c, 0, 77, 0
1, 30600, Note_on_c, 0, 73, 0
1, 30600, Note_on_c, 0, 72, 68
1, 30600, Note_on_c, 0, 76, 80
1, 30720, Tempo, 681818
1, 30720, Note_on_c, 0, 76, 0
1, 30720, Note_on_c, 0, 53, 0
1, 30720, Note_on_c, 0, 65, 0
1, 30720, Note_on_c, 0, 72, 0
1, 30720, Note_on_c, 0, 73, 68
1, 30720, Note_on_c, 0, 77, 80
1, 30720, Note_on_c, 0, 70, 69
1, 30720, Note_on_c, 0, 61, 69
1, 30720, Note_on_c, 0, 58, 58
1, 30731, Control_c, 0, 64, 0
1, 30960, Tempo, 681818
1, 30960, Note_on_c, 0, 58, 0
1, 30960, Note_on_c, 0, 70, 0
1, 30960, Note_on_c, 0, 61, 0
1, 30960, Note_on_c, 0, 41, 61
1, 30960, Note_on_c, 0, 53, 73
1, 31020, Note_on_c, 0, 53, 0
1, 31020, Note_on_c, 0, 41, 0
1, 31200, Tempo, 645161
1, 31200, Note_on_c, 0, 77, 0
1, 31200, Note_on_c, 0, 73, 0
1, 31200, Note_on_c, 0, 46, 67
1, 31200, Note_on_c, 0, 58, 79
1, 31320, Note_on_c, 0, 58, 0
1, 31320, Note_on_c, 0, 46, 0
1, 31440, Tempo, 701754
1, 31440, Note_on_c, 0, 67, 68
1, 31440, Note_on_c, 0, 73, 68
1, 31440, Note_on_c, 0, 79, 80
1, 31440, Note_on_c, 0, 34, 56
1, 31440, Note_on_c, 0, 46, 67
1, 31560, Tempo, 693642
1, 31560, Note_on_c, 0, 79, 0
1, 31560, Note_on_c, 0, 67, 0
1, 31560, Note_on_c, 0, 73, 0
1, 31560, Note_on_c, 0, 68, 67
1, 31560, Note_on_c, 0, 80, 79
1, 31580, Tempo, 745342
1, 31680, Tempo, 693642
1, 31680, Note_on_c, 0, 80, 0
1, 31680, Note_on_c, 0, 46, 0
1, 31680, Note_on_c, 0, 34, 0
1, 31680, Note_on_c, 0, 68, 0
1, 31680, Note_on_c, 0, 72, 71
1, 31680, Note_on_c, 0, 84, 84
1, 31680, Note_on_c, 0, 27, 61
1, 31680, Note_on_c, 0, 39, 72
1, 31712, Control_c, 0, 64, 127
1, 31800, Note_on_c, 0, 39, 0
1, 31800, Note_on_c, 0, 72, 0
1, 31800, Note_on_c, 0, 84, 0
1, 31800, Note_on_c, 0, 27, 0
1, 31800, Note_on_c, 0, 79, 73
1, 31800, Note_on_c, 0, 75, 62
1, 31920, Tempo, 571429
1, 31920, Note_on_c, 0, 75, 0
1, 31920, Note_on_c, 0, 79, 0
1, 31920, Note_on_c, 0, 72, 66
1, 31920, Note_on_c, 0, 84, 78
1, 31920, Note_on_c, 0, 61, 55
1, 31920, Note_on_c, 0, 67, 66
1, 31920, Note_on_c, 0, 63, 55
1, 31924, Control_c, 0, 64, 0
1, 32040, Tempo, 681818
1, 32040, Note_on_c, 0, 63, 0
1, 32040, Note_on_c, 0, 61, 0
1, 32040, Note_on_c, 0, 72, 0
1, 32040, Note_on_c, 0, 84, 0
1, 32040, Note_on_c, 0, 67, 0
1, 32100, Note_on_c, 0, 70, 65
1, 32100, Note_on_c, 0, 82, 77
1, 32154, Note_on_c, 0, 82, 0
1, 32154, Note_on_c, 0, 70, 0
1, 32160, Tempo, 666667
1, 32160, Note_on_c, 0, 70, 68
1, 32160, Note_on_c, 0, 82, 81
1, 32160, Note_on_c, 0, 39, 59
1, 32160, Note_on_c, 0, 51, 69
1, 32192, Control_c, 0, 64, 127
1, 32280, Note_on_c, 0, 51, 0
1, 32280, Note_on_c, 0, 70, 0
1, 32280, Note_on_c, 0, 82, 0
1, 32280, Note_on_c, 0, 39, 0
1, 32280, Note_on_c, 0, 75, 70
1, 32280, Note_on_c, 0, 72, 59
1, 32400, Tempo, 571429
1, 32400, Note_on_c, 0, 72, 0
1, 32400, Note_on_c, 0, 75, 0
1, 32400, Note_on_c, 0, 70, 63
1, 32400, Note_on_c, 0, 82, 75
1, 32400, Note_on_c, 0, 60, 53
1, 32400, Note_on_c, 0, 63, 63
1, 32404, Control_c, 0, 64, 0
1, 32520, Tempo, 681818
1, 32520, Note_on_c, 0, 63, 0
1, 32520, Note_on_c, 0, 70, 0
1, 32520, Note_on_c, 0, 82, 0
1, 32520, Note_on_c, 0, 60, 0
1, 32580, Note_on_c, 0, 68, 57
1, 32580, Note_on_c, 0, 80, 67
1, 32634, Note_on_c, 0, 80, 0
1, 32634, Note_on_c, 0, 68, 0
1, 32640, Tempo, 666667
1, 32640, Note_on_c, 0, 68, 66
1, 32640, Note_on_c, 0, 80, 78
1, 32640, Note_on_c, 0, 39, 57
1, 32640, Note_on_c, 0, 51, 67
1, 32672, Control_c, 0, 64, 127
1, 32760, Note_on_c, 0, 51, 0
1, 32760, Note_on_c, 0, 68, 0
1, 32760, Note_on_c, 0, 80, 0
1, 32760, Note_on_c, 0, 39, 0
1, 32760, Note_on_c, 0, 75, 66
1, 32760, Note_on_c, 0, 70, 56
1, 32880, Tempo, 571429
1, 32880, Note_on_c, 0, 70, 0
1, 32880, Note_on_c, 0, 75, 0
1, 32880, Note_on_c, 0, 68, 62
1, 32880, Note_on_c, 0, 80, 73
1, 32880, Note_on_c, 0, 58, 51
1, 32880, Note_on_c, 0, 63, 61
1, 32883, Control_c, 0, 64, 0
1, 33000, Tempo, 681818
1, 33000, Note_on_c, 0, 63, 0
1, 33000, Note_on_c, 0, 68, 0
1, 33000, Note_on_c, 0, 80, 0
1, 33000, Note_on_c, 0, 58, 0
1, 33060, Note_on_c, 0, 67, 56
1, 33060, Note_on_c, 0, 79, 66
1, 33114, Note_on_c, 0, 79, 0
1, 33114, Note_on_c, 0, 67, 0
1, 33120, Tempo, 666667
1, 33120, Note_on_c, 0, 67, 63
1, 33120, Note_on_c, 0, 79, 75
1, 33120, Note_on_c, 0, 34, 54
1, 33120, Note_on_c, 0, 46, 64
1, 33152, Control_c, 0, 64, 127
1, 33240, Note_on_c, 0, 46, 0
1, 33240, Note_on_c, 0, 67, 0
1, 33240, Note_on_c, 0, 79, 0
1, 33240, Note_on_c, 0, 34, 0
1, 33240, Note_on_c, 0, 74, 65
1, 33240, Note_on_c, 0, 70, 55
1, 33360, Tempo, 571429
1, 33360, Note_on_c, 0, 70, 0
1, 33360, Note_on_c, 0, 74, 0
1, 33360, Note_on_c, 0, 67, 60
1, 33360, Note_on_c, 0, 79, 71
1, 33360, Note_on_c, 0, 56, 50
1, 33360, Note_on_c, 0, 62, 60
1, 33360, Note_on_c, 0, 58, 50
1, 33367, Control_c, 0, 64, 0
1, 33480, Tempo, 681818
1, 33480, Note_on_c, 0, 58, 0
1, 33480, Note_on_c, 0, 56, 0
1, 33480, Note_on_c, 0, 67, 0
1, 33480, Note_on_c, 0, 79, 0
1, 33480, Note_on_c, 0, 62, 0
1, 33540, Note_on_c, 0, 65, 57
1, 33540, Note_on_c, 0, 77, 68
1, 33594, Note_on_c, 0, 77, 0
1, 33594, Note_on_c, 0, 65, 0
1, 33600, Tempo, 666667
1, 33600, Note_on_c, 0, 65, 61
1, 33600, Note_on_c, 0, 77, 73
1, 33600, Note_on_c, 0, 39, 56
1, 33600, Note_on_c, 0, 51, 66
1, 33632, Control_c, 0, 64, 127
1, 33720, Note_on_c, 0, 51, 0
1, 33720, Note_on_c, 0, 65, 0
1, 33720, Note_on_c, 0, 77, 0
1, 33720, Note_on_c, 0, 39, 0
1, 33720, Note_on_c, 0, 70, 63
1, 33720, Note_on_c, 0, 67, 54
1, 33840, Tempo, 571429
1, 33840, Note_on_c, 0, 67, 0
1, 33840, Note_on_c, 0, 70, 0
1, 33840, Note_on_c, 0, 65, 58
1, 33840, Note_on_c, 0, 77, 69
1, 33840, Note_on_c, 0, 55, 52
1, 33840, Note_on_c, 0, 58, 62
1, 33843, Control_c, 0, 64, 0
1, 33960, Tempo, 681818
1, 33960, Note_on_c, 0, 58, 0
1, 33960, Note_on_c, 0, 65, 0
1, 33960, Note_on_c, 0, 77, 0
1, 33960, Note_on_c, 0, 55, 0
1, 34020, Note_on_c, 0, 63, 54
1, 34020, Note_on_c, 0, 75, 63
1, 34080, Tempo, 666667
1, 34080, Note_on_c, 0, 75, 0
1, 34080, Note_on_c, 0, 63, 0
1, 34080, Note_on_c, 0, 61, 63
1, 34080, Note_on_c, 0, 73, 75
1, 34080, Note_on_c, 0, 41, 57
1, 34080, Note_on_c, 0, 53, 68
1, 34112, Control_c, 0, 64, 127
1, 34200, Note_on_c, 0, 73, 0
1, 34200, Note_on_c, 0, 61, 0
1, 34200, Note_on_c, 0, 68, 63
1, 34200, Note_on_c, 0, 65, 54
1, 34320, Tempo, 571429
1, 34320, Note_on_c, 0, 65, 0
1, 34320, Note_on_c, 0, 68, 0
1, 34320, Note_on_c, 0, 41, 0
1, 34320, Note_on_c, 0, 61, 59
1, 34320, Note_on_c, 0, 73, 70
1, 34320, Note_on_c, 0, 56, 62
1, 34327, Control_c, 0, 64, 0
1, 34440, Tempo, 681818
1, 34440, Note_on_c, 0, 73, 0
1, 34440, Note_on_c, 0, 61, 0
1, 34500, Note_on_c, 0, 60, 53
1, 34500, Note_on_c, 0, 72, 62
1, 34560, Note_on_c, 0, 72, 0
1, 34560, Note_on_c, 0, 56, 0
1, 34560, Note_on_c, 0, 53, 0
1, 34560, Note_on_c, 0, 60, 0
1, 34560, Note_on_c, 0, 65, 63
1, 34560, Note_on_c, 0, 37, 51
1, 34560, Note_on_c, 0, 49, 61
1, 34641, Control_c, 0, 64, 127
1, 34800, Tempo, 655738
1, 34800, Note_on_c, 0, 49, 0
1, 34800, Note_on_c, 0, 37, 0
1, 34800, Note_on_c, 0, 53, 45
1, 34800, Note_on_c, 0, 58, 53
1, 35020, Tempo, 662983
1, 35040, Tempo, 659341
1, 35040, Note_on_c, 0, 58, 0
1, 35040, Note_on_c, 0, 53, 0
1, 35040, Note_on_c, 0, 65, 0
1, 35040, Note_on_c, 0, 67, 54
1, 35040, Note_on_c, 0, 36, 45
1, 35040, Note_on_c, 0, 48, 54
1, 35060, Tempo, 652174
1, 35072, Control_c, 0, 64, 0
1, 35080, Tempo, 648649
1, 35100, Tempo, 641711
1, 35100, Note_on_c, 0, 67, 0
1, 35100, Note_on_c, 0, 68, 55
1, 35118, Control_c, 0, 64, 127
1, 35120, Tempo, 638298
1, 35140, Tempo, 631579
1, 35160, Tempo, 628272
1, 35160, Note_on_c, 0, 68, 0
1, 35160, Note_on_c, 0, 67, 55
1, 35180, Tempo, 621762
1, 35200, Tempo, 618557
1, 35220, Tempo, 612245
1, 35220, Note_on_c, 0, 67, 0
1, 35220, Note_on_c, 0, 68, 56
1, 35240, Tempo, 609137
1, 35260, Tempo, 603015
1, 35280, Tempo, 652174
1, 35280, Note_on_c, 0, 68, 0
1, 35280, Note_on_c, 0, 48, 0
1, 35280, Note_on_c, 0, 36, 0
1, 35280, Note_on_c, 0, 65, 56
1, 35280, Note_on_c, 0, 52, 40
1, 35280, Note_on_c, 0, 60, 48
1, 35280, Note_on_c, 0, 58, 40
1, 35287, Control_c, 0, 64, 0
1, 35400, Note_on_c, 0, 65, 0
1, 35400, Note_on_c, 0, 67, 57
1, 35500, Tempo, 648649
1, 35520, Tempo, 645161
1, 35520, Note_on_c, 0, 67, 0
1, 35520, Note_on_c, 0, 58, 0
1, 35520, Note_on_c, 0, 60, 0
1, 35520, Note_on_c, 0, 52, 0
1, 35520, Note_on_c, 0, 68, 58
1, 35520, Note_on_c, 0, 29, 49
1, 35520, Note_on_c, 0, 41, 58
1, 35540, Tempo, 641711
1, 35560, Tempo, 638298
1, 35580, Tempo, 634921
1, 35580, Note_on_c, 0, 68, 0
1, 35580, Note_on_c, 0, 70, 59
1, 35587, Control_c, 0, 64, 127
1, 35600, Tempo, 631579
1, 35620, Tempo, 625000
1, 35640, Tempo, 621762
1, 35640, Note_on_c, 0, 70, 0
1, 35640, Note_on_c, 0, 68, 59
1, 35660, Tempo, 618557
1, 35680, Tempo, 615385
1, 35700, Tempo, 612245
1, 35700, Note_on_c, 0, 68, 0
1, 35700, Note_on_c, 0, 70, 60
1, 35720, Tempo, 609137
1, 35740, Tempo, 603015
1, 35760, Tempo, 652174
1, 35760, Note_on_c, 0, 70, 0
1, 35760, Note_on_c, 0, 41, 0
1, 35760, Note_on_c, 0, 29, 0
1, 35760, Note_on_c, 0, 67, 60
1, 35760, Note_on_c, 0, 53, 46
1, 35760, Note_on_c, 0, 56, 46
1, 35760, Note_on_c, 0, 60, 55
1, 35773, Control_c, 0, 64, 0
1, 35880, Note_on_c, 0, 67, 0
1, 35880, Note_on_c, 0, 68, 61
1, 36000, Tempo, 652316
1, 36000, Note_on_c, 0, 68, 0
1, 36000, Note_on_c, 0, 60, 0
1, 36000, Note_on_c, 0, 56, 0
1, 36000, Note_on_c, 0, 53, 0
1, 36000, Note_on_c, 0, 61, 42
1, 36000, Note_on_c, 0, 67, 42
1, 36000, Note_on_c, 0, 69, 60
1, 36000, Note_on_c, 0, 39, 47
1, 36000, Note_on_c, 0, 51, 56
1, 36046, Control_c, 0, 64, 127
1, 36120, Tempo, 670541
1, 36120, Note_on_c, 0, 51, 0
1, 36120, Note_on_c, 0, 69, 0
1, 36120, Note_on_c, 0, 39, 0
1, 36120, Note_on_c, 0, 70, 56
1, 36240, Tempo, 645300
1, 36240, Note_on_c, 0, 70, 0
1, 36240, Note_on_c, 0, 67, 0
1, 36240, Note_on_c, 0, 61, 0
1, 36240, Note_on_c, 0, 61, 39
1, 36240, Note_on_c, 0, 67, 39
1, 36240, Note_on_c, 0, 72, 56
1, 36240, Note_on_c, 0, 51, 44
1, 36240, Note_on_c, 0, 58, 52
1, 36254, Control_c, 0, 64, 0
1, 36360, Tempo, 689655
1, 36360, Note_on_c, 0, 72, 0
1, 36360, Note_on_c, 0, 73, 56
1, 36480, Tempo, 652174
1, 36480, Note_on_c, 0, 73, 0
1, 36480, Note_on_c, 0, 58, 0
1, 36480, Note_on_c, 0, 61, 0
1, 36480, Note_on_c, 0, 67, 0
1, 36480, Note_on_c, 0, 51, 0
1, 36480, Note_on_c, 0, 60, 50
1, 36480, Note_on_c, 0, 68, 50
1, 36480, Note_on_c, 0, 72, 60
1, 36480, Note_on_c, 0, 44, 44
1, 36480, Note_on_c, 0, 51, 44
1, 36480, Note_on_c, 0, 56, 52
1, 36720, Tempo, 652174
1, 36720, Note_on_c, 0, 56, 0
1, 36720, Note_on_c, 0, 68, 0
1, 36720, Note_on_c, 0, 72, 0
1, 36720, Note_on_c, 0, 60, 0
1, 36720, Note_on_c, 0, 51, 0
1, 36720, Note_on_c, 0, 44, 0
1, 36720, Note_on_c, 0, 59, 57
1, 36720, Note_on_c, 0, 62, 57
1, 36720, Note_on_c, 0, 65, 57
1, 36720, Note_on_c, 0, 68, 57
1, 36720, Note_on_c, 0, 77, 68
1, 36900, Note_on_c, 0, 77, 0
1, 36900, Note_on_c, 0, 65, 0
1, 36900, Note_on_c, 0, 59, 0
1, 36900, Note_on_c, 0, 62, 0
1, 36900, Note_on_c, 0, 68, 0
1, 36900, Note_on_c, 0, 60, 52
1, 36900, Note_on_c, 0, 63, 52
1, 36900, Note_on_c, 0, 68, 52
1, 36900, Note_on_c, 0, 75, 62
1, 36954, Note_on_c, 0, 75, 0
1, 36954, Note_on_c, 0, 60, 0
1, 36954, Note_on_c, 0, 63, 0
1, 36954, Note_on_c, 0, 68, 0
1, 36960, Note_on_c, 0, 60, 58
1, 36960, Note_on_c, 0, 63, 58
1, 36960, Note_on_c, 0, 68, 58
1, 36960, Note_on_c, 0, 75, 69
1, 37080, Note_on_c, 0, 75, 0
1, 37080, Note_on_c, 0, 60, 0
1, 37080, Note_on_c, 0, 63, 0
1, 37080, Note_on_c, 0, 68, 0
1, 37080, Note_on_c, 0, 68, 64
1, 37200, Tempo, 674157
1, 37200, Note_on_c, 0, 80, 76
1, 37200, Note_on_c, 0, 44, 56
1, 37200, Note_on_c, 0, 56, 66
1, 37320, Note_on_c, 0, 80, 0
1, 37320, Note_on_c, 0, 68, 0
1, 37380, Note_on_c, 0, 67, 59
1, 37380, Note_on_c, 0, 79, 70
1, 37440, Tempo, 701754
1, 37440, Note_on_c, 0, 79, 0
1, 37440, Note_on_c, 0, 56, 0
1, 37440, Note_on_c, 0, 44, 0
1, 37440, Note_on_c, 0, 67, 0
1, 37440, Note_on_c, 0, 65, 59
1, 37440, Note_on_c, 0, 77, 70
1, 37440, Note_on_c, 0, 37, 57
1, 37440, Note_on_c, 0, 49, 68
1, 37475, Control_c, 0, 64, 0
1, 37521, Control_c, 0, 64, 127
1, 37680, Tempo, 655738
1, 37680, Note_on_c, 0, 49, 0
1, 37680, Note_on_c, 0, 37, 0
1, 37680, Note_on_c, 0, 53, 50
1, 37680, Note_on_c, 0, 58, 59
1, 37900, Tempo, 662983
1, 37920, Tempo, 659341
1, 37920, Note_on_c, 0, 58, 0
1, 37920, Note_on_c, 0, 65, 0
1, 37920, Note_on_c, 0, 77, 0
1, 37920, Note_on_c, 0, 53, 0
1, 37920, Note_on_c, 0, 67, 64
1, 37920, Note_on_c, 0, 36, 58
1, 37920, Note_on_c, 0, 48, 69
1, 37940, Tempo, 652174
1, 37952, Control_c, 0, 64, 0
1, 37960, Tempo, 648649
1, 37980, Tempo, 641711
1, 37998, Control_c, 0, 64, 127
1, 38000, Tempo, 638298
1, 38020, Tempo, 631579
1, 38040, Tempo, 628272
1, 38040, Note_on_c, 0, 67, 0
1, 38040, Note_on_c, 0, 79, 65
1, 38060, Tempo, 621762
1, 38080, Tempo, 618557
1, 38080, Note_on_c, 0, 79, 0
1, 38080, Note_on_c, 0, 80, 66
1, 38100, Tempo, 612245
1, 38120, Tempo, 609137
1, 38120, Note_on_c, 0, 80, 0
1, 38120, Note_on_c, 0, 79, 65
1, 38140, Tempo, 603015
1, 38160, Tempo, 652174
1, 38160, Note_on_c, 0, 79, 0
1, 38160, Note_on_c, 0, 48, 0
1, 38160, Note_on_c, 0, 36, 0
1, 38160, Note_on_c, 0, 65, 56
1, 38160, Note_on_c, 0, 77, 66
1, 38160, Note_on_c, 0, 58, 52
1, 38160, Note_on_c, 0, 64, 62
1, 38160, Note_on_c, 0, 60, 52
1, 38173, Control_c, 0, 64, 0
1, 38280, Note_on_c, 0, 77, 0
1, 38280, Note_on_c, 0, 65, 0
1, 38280, Note_on_c, 0, 67, 56
1, 38280, Note_on_c, 0, 79, 67
1, 38380, Tempo, 648649
1, 38400, Tempo, 645161
1, 38400, Note_on_c, 0, 79, 0
1, 38400, Note_on_c, 0, 64, 0
1, 38400, Note_on_c, 0, 60, 0
1, 38400, Note_on_c, 0, 58, 0
1, 38400, Note_on_c, 0, 67, 0
1, 38400, Note_on_c, 0, 68, 64
1, 38400, Note_on_c, 0, 29, 60
1, 38400, Note_on_c, 0, 41, 71
1, 38420, Tempo, 641711
1, 38440, Tempo, 638298
1, 38460, Tempo, 634921
1, 38467, Control_c, 0, 64, 127
1, 38480, Tempo, 631579
1, 38500, Tempo, 625000
1, 38520, Tempo, 621762
1, 38520, Note_on_c, 0, 68, 0
1, 38520, Note_on_c, 0, 80, 65
1, 38540, Tempo, 618557
1, 38560, Tempo, 615385
1, 38560, Note_on_c, 0, 80, 0
1, 38560, Note_on_c, 0, 82, 65
1, 38580, Tempo, 612245
1, 38600, Tempo, 609137
1, 38600, Note_on_c, 0, 82, 0
1, 38600, Note_on_c, 0, 80, 65
1, 38620, Tempo, 603015
1, 38640, Tempo, 652174
1, 38640, Note_on_c, 0, 80, 0
1, 38640, Note_on_c, 0, 41, 0
1, 38640, Note_on_c, 0, 29, 0
1, 38640, Note_on_c, 0, 67, 60
1, 38640, Note_on_c, 0, 79, 71
1, 38640, Note_on_c, 0, 56, 67
1, 38640, Note_on_c, 0, 60, 67
1, 38640, Note_on_c, 0, 65, 67
1, 38658, Control_c, 0, 64, 0
1, 38760, Note_on_c, 0, 79, 0
1, 38760, Note_on_c, 0, 67, 0
1, 38760, Note_on_c, 0, 68, 61
1, 38760, Note_on_c, 0, 80, 72
1, 38880, Tempo, 652316
1, 38880, Note_on_c, 0, 80, 0
1, 38880, Note_on_c, 0, 60, 0
1, 38880, Note_on_c, 0, 65, 0
1, 38880, Note_on_c, 0, 56, 0
1, 38880, Note_on_c, 0, 68, 0
1, 38880, Note_on_c, 0, 69, 57
1, 38880, Note_on_c, 0, 75, 63
1, 38880, Note_on_c, 0, 81, 75
1, 38880, Note_on_c, 0, 39, 59
1, 38880, Note_on_c, 0, 51, 70
1, 38926, Control_c, 0, 64, 127
1, 39000, Tempo, 666815
1, 39000, Note_on_c, 0, 51, 0
1, 39000, Note_on_c, 0, 81, 0
1, 39000, Note_on_c, 0, 69, 0
1, 39000, Note_on_c, 0, 75, 0
1, 39000, Note_on_c, 0, 39, 0
1, 39000, Note_on_c, 0, 70, 63
1, 39000, Note_on_c, 0, 82, 70
1, 39120, Tempo, 648789
1, 39120, Note_on_c, 0, 82, 0
1, 39120, Note_on_c, 0, 70, 0
1, 39120, Note_on_c, 0, 72, 59
1, 39120, Note_on_c, 0, 79, 59
1, 39120, Note_on_c, 0, 84, 70
1, 39120, Note_on_c, 0, 58, 55
1, 39120, Note_on_c, 0, 61, 55
1, 39120, Note_on_c, 0, 63, 55
1, 39120, Note_on_c, 0, 67, 65
1, 39134, Control_c, 0, 64, 0
1, 39240, Tempo, 678119
1, 39240, Note_on_c, 0, 84, 0
1, 39240, Note_on_c, 0, 72, 0
1, 39240, Note_on_c, 0, 79, 0
1, 39240, Note_on_c, 0, 73, 59
1, 39240, Note_on_c, 0, 85, 70
1, 39360, Tempo, 681818
1, 39360, Note_on_c, 0, 85, 0
1, 39360, Note_on_c, 0, 63, 0
1, 39360, Note_on_c, 0, 67, 0
1, 39360, Note_on_c, 0, 58, 0
1, 39360, Note_on_c, 0, 73, 0
1, 39360, Note_on_c, 0, 61, 0
1, 39360, Note_on_c, 0, 72, 63
1, 39360, Note_on_c, 0, 80, 63
1, 39360, Note_on_c, 0, 84, 75
1, 39360, Note_on_c, 0, 56, 55
1, 39360, Note_on_c, 0, 63, 55
1, 39360, Note_on_c, 0, 68, 65
1, 39480, Note_on_c, 0, 68, 0
1, 39480, Note_on_c, 0, 80, 0
1, 39480, Note_on_c, 0, 84, 0
1, 39480, Note_on_c, 0, 72, 0
1, 39480, Note_on_c, 0, 63, 0
1, 39480, Note_on_c, 0, 56, 0
1, 39600, Tempo, 689655
1, 39600, Note_on_c, 0, 77, 64
1, 39600, Note_on_c, 0, 80, 64
1, 39600, Note_on_c, 0, 89, 76
1, 39600, Note_on_c, 0, 68, 64
1, 39600, Note_on_c, 0, 59, 64
1, 39600, Note_on_c, 0, 62, 64
1, 39600, Note_on_c, 0, 71, 64
1, 39720, Tempo, 710059
1, 39780, Note_on_c, 0, 71, 0
1, 39780, Note_on_c, 0, 59, 0
1, 39780, Note_on_c, 0, 80, 0
1, 39780, Note_on_c, 0, 89, 0
1, 39780, Note_on_c, 0, 77, 0
1, 39780, Note_on_c, 0, 62, 0
1, 39780, Note_on_c, 0, 68, 0
1, 39780, Note_on_c, 0, 75, 58
1, 39780, Note_on_c, 0, 80, 58
1, 39780, Note_on_c, 0, 87, 69
1, 39780, Note_on_c, 0, 68, 58
1, 39780, Note_on_c, 0, 60, 58
1, 39780, Note_on_c, 0, 72, 58
1, 39780, Note_on_c, 0, 63, 58
1, 39834, Note_on_c, 0, 63, 0
1, 39834, Note_on_c, 0, 60, 0
1, 39834, Note_on_c, 0, 80, 0
1, 39834, Note_on_c, 0, 87, 0
1, 39834, Note_on_c, 0, 75, 0
1, 39834, Note_on_c, 0, 72, 0
1, 39834, Note_on_c, 0, 68, 0
1, 39840, Tempo, 689655
1, 39840, Note_on_c, 0, 75, 65
1, 39840, Note_on_c, 0, 80, 65
1, 39840, Note_on_c, 0, 87, 77
1, 39840, Note_on_c, 0, 68, 65
1, 39840, Note_on_c, 0, 72, 65
1, 39840, Note_on_c, 0, 60, 65
1, 39840, Note_on_c, 0, 63, 65
1, 39960, Note_on_c, 0, 63, 0
1, 39960, Note_on_c, 0, 72, 0
1, 39960, Note_on_c, 0, 80, 0
1, 39960, Note_on_c, 0, 87, 0
1, 39960, Note_on_c, 0, 75, 0
1, 39960, Note_on_c, 0, 60, 0
1, 39960, Note_on_c, 0, 68, 0
1, 40020, Note_on_c, 0, 87, 60
1, 40020, Note_on_c, 0, 75, 60
1, 40020, Control_c, 0, 64, 127
1, 40020, Note_on_c, 0, 53, 56
1, 40050, Note_on_c, 0, 63, 56
1, 40080, Tempo, 666667
1, 40080, Note_on_c, 0, 75, 0
1, 40080, Note_on_c, 0, 87, 0
1, 40080, Note_on_c, 0, 73, 64
1, 40080, Note_on_c, 0, 81, 64
1, 40080, Note_on_c, 0, 85, 76
1, 40080, Note_on_c, 0, 69, 66
1, 40260, Note_on_c, 0, 69, 0
1, 40260, Note_on_c, 0, 53, 0
1, 40260, Note_on_c, 0, 73, 0
1, 40260, Note_on_c, 0, 63, 0
1, 40260, Note_on_c, 0, 85, 0
1, 40260, Note_on_c, 0, 81, 0
1, 40260, Note_on_c, 0, 72, 59
1, 40260, Note_on_c, 0, 84, 70
1, 40260, Note_on_c, 0, 46, 60
1, 40290, Note_on_c, 0, 53, 60
1, 40295, Control_c, 0, 64, 0
1, 40320, Tempo, 697674
1, 40320, Note_on_c, 0, 84, 0
1, 40320, Note_on_c, 0, 72, 0
1, 40320, Note_on_c, 0, 70, 64
1, 40320, Note_on_c, 0, 82, 76
1, 40320, Note_on_c, 0, 61, 71
1, 40360, Control_c, 0, 64, 127
1, 40440, Note_on_c, 0, 82, 0
1, 40440, Note_on_c, 0, 70, 0
1, 40500, Note_on_c, 0, 53, 0
1, 40500, Note_on_c, 0, 46, 0
1, 40500, Note_on_c, 0, 61, 0
1, 40500, Note_on_c, 0, 39, 56
1, 40529, Control_c, 0, 64, 0
1, 40530, Note_on_c, 0, 46, 56
1, 40560, Tempo, 674157
1, 40560, Note_on_c, 0, 58, 59
1, 40560, Note_on_c, 0, 66, 59
1, 40560, Note_on_c, 0, 70, 70
1, 40560, Note_on_c, 0, 54, 66
1, 40603, Control_c, 0, 64, 127
1, 40740, Note_on_c, 0, 54, 0
1, 40740, Note_on_c, 0, 46, 0
1, 40740, Note_on_c, 0, 58, 0
1, 40740, Note_on_c, 0, 39, 0
1, 40740, Note_on_c, 0, 70, 0
1, 40740, Note_on_c, 0, 66, 0
1, 40740, Note_on_c, 0, 60, 59
1, 40740, Note_on_c, 0, 72, 70
1, 40740, Note_on_c, 0, 34, 52
1, 40751, Control_c, 0, 64, 0
1, 40770, Note_on_c, 0, 41, 52
1, 40800, Tempo, 677966
1, 40800, Note_on_c, 0, 72, 0
1, 40800, Note_on_c, 0, 60, 0
1, 40800, Note_on_c, 0, 61, 62
1, 40800, Note_on_c, 0, 65, 62
1, 40800, Note_on_c, 0, 73, 74
1, 40800, Note_on_c, 0, 49, 62
1, 40840, Tempo, 701754
1, 40840, Control_c, 0, 64, 127
1, 40980, Note_on_c, 0, 49, 0
1, 40980, Note_on_c, 0, 34, 0
1, 41010, Note_on_c, 0, 41, 0
1, 41035, Control_c, 0, 64, 0
1, 41040, Tempo, 670391
1, 41040, Note_on_c, 0, 65, 0
1, 41040, Note_on_c, 0, 61, 0
1, 41040, Note_on_c, 0, 73, 0
1, 41040, Note_on_c, 0, 61, 61
1, 41040, Note_on_c, 0, 63, 61
1, 41040, Note_on_c, 0, 66, 61
1, 41040, Note_on_c, 0, 73, 72
1, 41040, Note_on_c, 0, 27, 52
1, 41040, Note_on_c, 0, 39, 62
1, 41074, Control_c, 0, 64, 127
1, 41220, Note_on_c, 0, 39, 0
1, 41220, Note_on_c, 0, 63, 0
1, 41220, Note_on_c, 0, 66, 0
1, 41220, Note_on_c, 0, 61, 0
1, 41220, Note_on_c, 0, 27, 0
1, 41220, Note_on_c, 0, 73, 0
1, 41220, Note_on_c, 0, 60, 58
1, 41220, Note_on_c, 0, 72, 69
1, 41220, Note_on_c, 0, 34, 52
1, 41226, Control_c, 0, 64, 0
1, 41250, Note_on_c, 0, 41, 52
1, 41280, Tempo, 701754
1, 41280, Note_on_c, 0, 72, 0
1, 41280, Note_on_c, 0, 60, 0
1, 41280, Note_on_c, 0, 58, 63
1, 41280, Note_on_c, 0, 65, 63
1, 41280, Note_on_c, 0, 70, 75
1, 41280, Note_on_c, 0, 49, 62
1, 41311, Control_c, 0, 64, 127
1, 41460, Note_on_c, 0, 49, 0
1, 41460, Note_on_c, 0, 41, 0
1, 41460, Note_on_c, 0, 34, 0
1, 41460, Note_on_c, 0, 39, 51
1, 41490, Note_on_c, 0, 46, 51
1, 41520, Tempo, 670391
1, 41520, Note_on_c, 0, 65, 0
1, 41520, Note_on_c, 0, 58, 0
1, 41520, Note_on_c, 0, 70, 0
1, 41520, Note_on_c, 0, 56, 61
1, 41520, Note_on_c, 0, 58, 61
1, 41520, Note_on_c, 0, 63, 61
1, 41520, Note_on_c, 0, 68, 72
1, 41520, Note_on_c, 0, 51, 61
1, 41533, Control_c, 0, 64, 0
1, 41617, Control_c, 0, 64, 127
1, 41700, Note_on_c, 0, 51, 0
1, 41700, Note_on_c, 0, 63, 0
1, 41700, Note_on_c, 0, 39, 0
1, 41700, Note_on_c, 0, 56, 0
1, 41700, Note_on_c, 0, 46, 0
1, 41700, Note_on_c, 0, 68, 0
1, 41700, Note_on_c, 0, 58, 0
1, 41700, Note_on_c, 0, 54, 57
1, 41700, Note_on_c, 0, 66, 68
1, 41700, Note_on_c, 0, 34, 56
1, 41730, Note_on_c, 0, 41, 56
1, 41760, Time_signature, 13, 4, 6, 8
1, 41760, Note_on_c, 0, 66, 0
1, 41760, Note_on_c, 0, 54, 0
1, 41760, Note_on_c, 0, 53, 60
1, 41760, Note_on_c, 0, 61, 60
1, 41760, Note_on_c, 0, 65, 71
1, 41760, Note_on_c, 0, 49, 66
1, 41780, Control_c, 0, 64, 0
1, 41800, Tempo, 693642
1, 41817, Control_c, 0, 64, 127
1, 41880, Note_on_c, 0, 65, 0
1, 41880, Note_on_c, 0, 61, 0
1, 41880, Note_on_c, 0, 53, 0
1, 41940, Note_on_c, 0, 41, 0
1, 41940, Note_on_c, 0, 49, 0
1, 41940, Note_on_c, 0, 34, 0
1, 42000, Note_on_c, 0, 45, 59
1, 42000, Note_on_c, 0, 33, 50
1, 42015, Control_c, 0, 64, 0
1, 42040, Tempo, 681818
1, 42055, Control_c, 0, 64, 127
1, 42060, Note_on_c, 0, 33, 0
1, 42060, Note_on_c, 0, 45, 0
1, 42060, Note_on_c, 0, 46, 59
1, 42060, Note_on_c, 0, 34, 50
1, 42120, Note_on_c, 0, 34, 0
1, 42120, Note_on_c, 0, 46, 0
1, 42120, Note_on_c, 0, 48, 60
1, 42120, Note_on_c, 0, 36, 51
1, 42160, Tempo, 677966
1, 42180, Note_on_c, 0, 36, 0
1, 42180, Note_on_c, 0, 48, 0
1, 42180, Note_on_c, 0, 49, 61
1, 42180, Note_on_c, 0, 37, 51
1, 42240, Tempo, 674157
1, 42240, Note_on_c, 0, 37, 0
1, 42240, Note_on_c, 0, 49, 0
1, 42240, Note_on_c, 0, 51, 61
1, 42240, Note_on_c, 0, 39, 51
1, 42300, Note_on_c, 0, 39, 0
1, 42300, Note_on_c, 0, 51, 0
1, 42300, Note_on_c, 0, 53, 62
1, 42300, Note_on_c, 0, 41, 52
1, 42320, Tempo, 670391
1, 42360, Note_on_c, 0, 41, 0
1, 42360, Note_on_c, 0, 53, 0
1, 42360, Note_on_c, 0, 55, 63
1, 42360, Note_on_c, 0, 43, 53
1, 42420, Note_on_c, 0, 43, 0
1, 42420, Note_on_c, 0, 55, 0
1, 42420, Note_on_c, 0, 57, 63
1, 42420, Note_on_c, 0, 45, 53
1, 42440, Tempo, 666667
1, 42480, Note_on_c, 0, 45, 0
1, 42480, Note_on_c, 0, 57, 0
1, 42480, Note_on_c, 0, 58, 64
1, 42480, Note_on_c, 0, 46, 54
1, 42520, Tempo, 662983
1, 42540, Note_on_c, 0, 46, 0
1, 42540, Note_on_c, 0, 58, 0
1, 42540, Note_on_c, 0, 60, 65
1, 42540, Note_on_c, 0, 48, 55
1, 42600, Tempo, 659341
1, 42600, Note_on_c, 0, 48, 0
1, 42600, Note_on_c, 0, 60, 0
1, 42600, Note_on_c, 0, 61, 65
1, 42600, Note_on_c, 0, 49, 55
1, 42660, Note_on_c, 0, 49, 0
1, 42660, Note_on_c, 0, 61, 0
1, 42660, Note_on_c, 0, 63, 66
1, 42660, Note_on_c, 0, 51, 56
1, 42720, Tempo, 655738
1, 42720, Note_on_c, 0, 51, 0
1, 42720, Note_on_c, 0, 63, 0
1, 42720, Note_on_c, 0, 65, 67
1, 42720, Note_on_c, 0, 53, 56
1, 42780, Note_on_c, 0, 53, 0
1, 42780, Note_on_c, 0, 65, 0
1, 42780, Note_on_c, 0, 67, 67
1, 42780, Note_on_c, 0, 55, 56
1, 42800, Tempo, 652174
1, 42840, Note_on_c, 0, 55, 0
1, 42840, Note_on_c, 0, 67, 0
1, 42840, Note_on_c, 0, 69, 68
1, 42840, Note_on_c, 0, 57, 57
1, 42880, Tempo, 648649
1, 42900, Note_on_c, 0, 57, 0
1, 42900, Note_on_c, 0, 69, 0
1, 42900, Note_on_c, 0, 70, 68
1, 42900, Note_on_c, 0, 58, 57
1, 42960, Note_on_c, 0, 58, 0
1, 42960, Note_on_c, 0, 70, 0
1, 42960, Note_on_c, 0, 72, 69
1, 42960, Note_on_c, 0, 60, 58
1, 43000, Tempo, 645161
1, 43020, Note_on_c, 0, 60, 0
1, 43020, Note_on_c, 0, 72, 0
1, 43020, Note_on_c, 0, 73, 70
1, 43020, Note_on_c, 0, 61, 59
1, 43080, Tempo, 641711
1, 43080, Note_on_c, 0, 61, 0
1, 43080, Note_on_c, 0, 73, 0
1, 43080, Note_on_c, 0, 75, 70
1, 43080, Note_on_c, 0, 63, 59
1, 43140, Note_on_c, 0, 63, 0
1, 43140, Note_on_c, 0, 75, 0
1, 43140, Note_on_c, 0, 77, 71
1, 43140, Note_on_c, 0, 65, 60
1, 43160, Tempo, 638298
1, 43200, Note_on_c, 0, 65, 0
1, 43200, Note_on_c, 0, 77, 0
1, 43200, Note_on_c, 0, 79, 72
1, 43200, Note_on_c, 0, 67, 61
1, 43240, Tempo, 634921
1, 43260, Note_on_c, 0, 67, 0
1, 43260, Note_on_c, 0, 79, 0
1, 43260, Note_on_c, 0, 81, 72
1, 43260, Note_on_c, 0, 69, 61
1, 43320, Time_signature, 3, 2, 24, 8
1, 43320, Tempo, 705882
1, 43320, Note_on_c, 0, 69, 0
1, 43320, Note_on_c, 0, 81, 0
1, 43320, Note_on_c, 0, 82, 77
1, 43320, Note_on_c, 0, 70, 77
1, 43334, Control_c, 0, 64, 0
1, 43440, Note_on_c, 0, 70, 0
1, 43440, Note_on_c, 0, 82, 0
1, 43500, Note_on_c, 0, 84, 71
1, 43560, Tempo, 648649
1, 43560, Note_on_c, 0, 84, 0
1, 43560, Note_on_c, 0, 73, 64
1, 43560, Note_on_c, 0, 82, 76
1, 43560, Note_on_c, 0, 79, 76
1, 43560, Note_on_c, 0, 27, 62
1, 43560, Note_on_c, 0, 39, 73
1, 43571, Control_c, 0, 64, 127
1, 43680, Note_on_c, 0, 39, 0
1, 43680, Note_on_c, 0, 79, 0
1, 43680, Note_on_c, 0, 73, 0
1, 43680, Note_on_c, 0, 82, 0
1, 43680, Note_on_c, 0, 27, 0
1, 43680, Note_on_c, 0, 81, 71
1, 43680, Note_on_c, 0, 78, 71
1, 43680, Note_on_c, 0, 72, 60
1, 43800, Tempo, 705882
1, 43800, Note_on_c, 0, 72, 0
1, 43800, Note_on_c, 0, 78, 0
1, 43800, Note_on_c, 0, 81, 0
1, 43800, Note_on_c, 0, 73, 63
1, 43800, Note_on_c, 0, 79, 75
1, 43800, Note_on_c, 0, 82, 75
1, 43800, Note_on_c, 0, 39, 56
1, 43800, Note_on_c, 0, 51, 66
1, 43920, Note_on_c, 0, 51, 0
1, 43920, Note_on_c, 0, 39, 0
1, 44040, Tempo, 681818
1, 44040, Note_on_c, 0, 73, 0
1, 44040, Note_on_c, 0, 79, 0
1, 44040, Note_on_c, 0, 82, 0
1, 44040, Note_on_c, 0, 72, 60
1, 44040, Note_on_c, 0, 79, 71
1, 44040, Note_on_c, 0, 84, 71
1, 44040, Note_on_c, 0, 51, 61
1, 44040, Note_on_c, 0, 63, 72
1, 44055, Control_c, 0, 64, 0
1, 44280, Tempo, 677966
1, 44280, Note_on_c, 0, 63, 0
1, 44280, Note_on_c, 0, 84, 0
1, 44280, Note_on_c, 0, 72, 0
1, 44280, Note_on_c, 0, 79, 0
1, 44280, Note_on_c, 0, 51, 0
1, 44280, Note_on_c, 0, 68, 62
1, 44280, Note_on_c, 0, 72, 62
1, 44280, Note_on_c, 0, 80, 73
1, 44280, Note_on_c, 0, 65, 70
1, 44280, Note_on_c, 0, 60, 59
1, 44280, Note_on_c, 0, 53, 59
1, 44520, Tempo, 710059
1, 44520, Note_on_c, 0, 53, 0
1, 44520, Note_on_c, 0, 72, 0
1, 44520, Note_on_c, 0, 80, 0
1, 44520, Note_on_c, 0, 68, 0
1, 44520, Note_on_c, 0, 60, 0
1, 44520, Note_on_c, 0, 65, 0
1, 44520, Note_on_c, 0, 63, 60
1, 44520, Note_on_c, 0, 68, 60
1, 44520, Note_on_c, 0, 75, 71
1, 44520, Note_on_c, 0, 48, 56
1, 44520, Note_on_c, 0, 56, 56
1, 44520, Note_on_c, 0, 60, 66
1, 44760, Tempo, 689655
1, 44760, Note_on_c, 0, 60, 0
1, 44760, Note_on_c, 0, 68, 0
1, 44760, Note_on_c, 0, 75, 0
1, 44760, Note_on_c, 0, 63, 0
1, 44760, Note_on_c, 0, 56, 0
1, 44760, Note_on_c, 0, 48, 0
1, 44760, Note_on_c, 0, 65, 65
1, 44760, Note_on_c, 0, 68, 65
1, 44760, Note_on_c, 0, 77, 77
1, 44760, Note_on_c, 0, 49, 61
1, 44760, Note_on_c, 0, 56, 72
1, 44760, Note_on_c, 0, 61, 72
1, 45000, Tempo, 718563
1, 45000, Note_on_c, 0, 61, 0
1, 45000, Note_on_c, 0, 68, 0
1, 45000, Note_on_c, 0, 77, 0
1, 45000, Note_on_c, 0, 65, 0
1, 45000, Note_on_c, 0, 56, 0
1, 45000, Note_on_c, 0, 49, 0
1, 45000, Note_on_c, 0, 68, 61
1, 45000, Note_on_c, 0, 72, 61
1, 45000, Note_on_c, 0, 80, 72
1, 45000, Note_on_c, 0, 41, 56
1, 45000, Note_on_c, 0, 53, 66
1, 45240, Tempo, 701754
1, 45240, Note_on_c, 0, 53, 0
1, 45240, Note_on_c, 0, 80, 0
1, 45240, Note_on_c, 0, 68, 0
1, 45240, Note_on_c, 0, 72, 0
1, 45240, Note_on_c, 0, 41, 0
1, 45240, Note_on_c, 0, 61, 69
1, 45240, Note_on_c, 0, 65, 69
1, 45240, Note_on_c, 0, 70, 81
1, 45240, Note_on_c, 0, 73, 81
1, 45240, Note_on_c, 0, 46, 60
1, 45240, Note_on_c, 0, 53, 72
1, 45240, Note_on_c, 0, 58, 72
1, 45367, Control_c, 0, 64, 127
1, 45480, Tempo, 784314
1, 45480, Note_on_c, 0, 58, 0
1, 45480, Note_on_c, 0, 46, 0
1, 45480, Note_on_c, 0, 65, 0
1, 45480, Note_on_c, 0, 70, 0
1, 45480, Note_on_c, 0, 61, 0
1, 45480, Note_on_c, 0, 53, 0
1, 45480, Note_on_c, 0, 73, 0
1, 45480, Note_on_c, 0, 65, 66
1, 45480, Note_on_c, 0, 68, 66
1, 45480, Note_on_c, 0, 73, 78
1, 45480, Note_on_c, 0, 77, 78
1, 45480, Note_on_c, 0, 34, 58
1, 45480, Note_on_c, 0, 46, 69
1, 45720, Tempo, 827586
1, 45720, Note_on_c, 0, 46, 0
1, 45720, Note_on_c, 0, 68, 0
1, 45720, Note_on_c, 0, 73, 0
1, 45720, Note_on_c, 0, 65, 0
1, 45720, Note_on_c, 0, 34, 0
1, 45720, Note_on_c, 0, 77, 0
1, 45720, Note_on_c, 0, 58, 74
1, 45720, Note_on_c, 0, 63, 74
1, 45720, Note_on_c, 0, 68, 87
1, 45720, Note_on_c, 0, 70, 87
1, 45720, Note_on_c, 0, 39, 65
1, 45720, Note_on_c, 0, 51, 77
1, 45733, Control_c, 0, 64, 0
1, 45872, Control_c, 0, 64, 127
1, 45960, Tempo, 952381
1, 45960, Note_on_c, 0, 51, 0
1, 45960, Note_on_c, 0, 63, 0
1, 45960, Note_on_c, 0, 68, 0
1, 45960, Note_on_c, 0, 58, 0
1, 45960, Note_on_c, 0, 39, 0
1, 45960, Note_on_c, 0, 70, 0
1, 45960, Note_on_c, 0, 61, 69
1, 45960, Note_on_c, 0, 63, 69
1, 45960, Note_on_c, 0, 67, 69
1, 45960, Note_on_c, 0, 70, 82
1, 45960, Note_on_c, 0, 75, 82
1, 45960, Note_on_c, 0, 27, 60
1, 45960, Note_on_c, 0, 39, 71
1, 46200, Tempo, 902256
1, 46200, Note_on_c, 0, 39, 0
1, 46200, Note_on_c, 0, 75, 0
1, 46200, Note_on_c, 0, 63, 0
1, 46200, Note_on_c, 0, 67, 0
1, 46200, Note_on_c, 0, 61, 0
1, 46200, Note_on_c, 0, 27, 0
1, 46200, Note_on_c, 0, 70, 0
1, 46200, Note_on_c, 0, 77, 82
1, 46200, Note_on_c, 0, 85, 82
1, 46200, Note_on_c, 0, 89, 97
1, 46200, Control_c, 0, 64, 0
1, 46200, Note_on_c, 0, 32, 67
1, 46200, Note_on_c, 0, 44, 79
1, 46200, Control_c, 0, 64, 0
1, 46278, Control_c, 0, 64, 127
1, 46320, Note_on_c, 0, 44, 0
1, 46320, Note_on_c, 0, 32, 0
1, 46440, Tempo, 560748
1, 46440, Note_on_c, 0, 60, 67
1, 46440, Note_on_c, 0, 51, 67
1, 46440, Note_on_c, 0, 63, 79
1, 46560, Tempo, 641849
1, 46560, Note_on_c, 0, 77, 0
1, 46560, Note_on_c, 0, 89, 0
1, 46560, Note_on_c, 0, 85, 0
1, 46560, Note_on_c, 0, 75, 79
1, 46560, Note_on_c, 0, 84, 79
1, 46560, Note_on_c, 0, 87, 93
1, 46668, Note_on_c, 0, 87, 0
1, 46668, Note_on_c, 0, 75, 0
1, 46668, Note_on_c, 0, 84, 0
1, 46680, Tempo, 701754
1, 46680, Note_on_c, 0, 63, 0
1, 46680, Note_on_c, 0, 60, 0
1, 46680, Note_on_c, 0, 51, 0
1, 46680, Note_on_c, 0, 75, 79
1, 46680, Note_on_c, 0, 84, 79
1, 46680, Note_on_c, 0, 87, 93
1, 46680, Note_on_c, 0, 68, 77
1, 46680, Note_on_c, 0, 60, 77
1, 46680, Note_on_c, 0, 56, 64
1, 46685, Control_c, 0, 64, 0
1, 46860, Note_on_c, 0, 63, 71
1, 46920, Tempo, 681818
1, 46920, Note_on_c, 0, 63, 0
1, 46920, Note_on_c, 0, 60, 0
1, 46920, Note_on_c, 0, 84, 0
1, 46920, Note_on_c, 0, 87, 0
1, 46920, Note_on_c, 0, 75, 0
1, 46920, Note_on_c, 0, 56, 0
1, 46920, Note_on_c, 0, 68, 0
1, 46920, Note_on_c, 0, 63, 71
1, 46920, Control_c, 0, 64, 127
1, 46920, Note_on_c, 0, 39, 72
1, 46920, Note_on_c, 0, 51, 85
1, 46968, Note_on_c, 0, 63, 0
1, 46968, Note_on_c, 0, 65, 71
1, 46980, Note_on_c, 0, 51, 0
1, 46980, Note_on_c, 0, 39, 0
1, 47016, Note_on_c, 0, 65, 0
1, 47016, Note_on_c, 0, 63, 71
1, 47064, Note_on_c, 0, 63, 0
1, 47064, Note_on_c, 0, 62, 71
1, 47112, Note_on_c, 0, 62, 0
1, 47112, Note_on_c, 0, 63, 71
1, 47160, Tempo, 666667
1, 47160, Note_on_c, 0, 63, 0
1, 47160, Note_on_c, 0, 68, 87
1, 47160, Note_on_c, 0, 44, 73
1, 47160, Note_on_c, 0, 56, 86
1, 47166, Control_c, 0, 64, 0
1, 47280, Note_on_c, 0, 56, 0
1, 47280, Note_on_c, 0, 44, 0
1, 47280, Note_on_c, 0, 68, 0
1, 47400, Note_on_c, 0, 72, 74
1, 47400, Note_on_c, 0, 80, 74
1, 47400, Note_on_c, 0, 84, 88
1, 47400, Note_on_c, 0, 27, 61
1, 47400, Note_on_c, 0, 39, 73
1, 47520, Tempo, 705882
1, 47520, Note_on_c, 0, 84, 0
1, 47520, Note_on_c, 0, 72, 0
1, 47520, Note_on_c, 0, 80, 0
1, 47520, Note_on_c, 0, 73, 73
1, 47520, Note_on_c, 0, 82, 73
1, 47520, Note_on_c, 0, 85, 86
1, 47640, Tempo, 666667
1, 47640, Note_on_c, 0, 85, 0
1, 47640, Note_on_c, 0, 73, 0
1, 47640, Note_on_c, 0, 39, 0
1, 47640, Note_on_c, 0, 27, 0
1, 47640, Note_on_c, 0, 82, 0
1, 47640, Note_on_c, 0, 77, 79
1, 47640, Note_on_c, 0, 85, 79
1, 47640, Note_on_c, 0, 89, 93
1, 47640, Note_on_c, 0, 32, 67
1, 47640, Note_on_c, 0, 44, 79
1, 47660, Tempo, 705882
1, 47672, Control_c, 0, 64, 127
1, 47760, Tempo, 666667
1, 47760, Note_on_c, 0, 89, 0
1, 47760, Note_on_c, 0, 77, 0
1, 47760, Note_on_c, 0, 85, 0
1, 47820, Note_on_c, 0, 75, 74
1, 47820, Note_on_c, 0, 84, 74
1, 47820, Note_on_c, 0, 87, 88
1, 47874, Note_on_c, 0, 87, 0
1, 47874, Note_on_c, 0, 75, 0
1, 47874, Note_on_c, 0, 84, 0
1, 47880, Tempo, 574163
1, 47880, Note_on_c, 0, 32, 0
1, 47880, Note_on_c, 0, 44, 0
1, 47880, Note_on_c, 0, 75, 74
1, 47880, Note_on_c, 0, 84, 74
1, 47880, Note_on_c, 0, 87, 93
1, 47880, Note_on_c, 0, 60, 61
1, 47880, Note_on_c, 0, 63, 73
1, 47880, Note_on_c, 0, 51, 61
1, 48000, Tempo, 714286
1, 48000, Note_on_c, 0, 87, 0
1, 48000, Note_on_c, 0, 75, 0
1, 48000, Note_on_c, 0, 84, 0
1, 48000, Note_on_c, 0, 74, 74
1, 48000, Note_on_c, 0, 83, 74
1, 48000, Note_on_c, 0, 86, 88
1, 48120, Tempo, 714286
1, 48120, Note_on_c, 0, 86, 0
1, 48120, Note_on_c, 0, 63, 0
1, 48120, Note_on_c, 0, 60, 0
1, 48120, Note_on_c, 0, 51, 0
1, 48120, Note_on_c, 0, 83, 0
1, 48120, Note_on_c, 0, 74, 0
1, 48120, Note_on_c, 0, 75, 74
1, 48120, Note_on_c, 0, 84, 74
1, 48120, Note_on_c, 0, 87, 88
1, 48120, Note_on_c, 0, 68, 75
1, 48120, Note_on_c, 0, 60, 75
1, 48120, Note_on_c, 0, 56, 63
1, 48126, Control_c, 0, 64, 0
1, 48300, Note_on_c, 0, 63, 70
1, 48360, Tempo, 681818
1, 48360, Note_on_c, 0, 63, 0
1, 48360, Note_on_c, 0, 60, 0
1, 48360, Note_on_c, 0, 84, 0
1, 48360, Note_on_c, 0, 87, 0
1, 48360, Note_on_c, 0, 75, 0
1, 48360, Note_on_c, 0, 56, 0
1, 48360, Note_on_c, 0, 68, 0
1, 48360, Note_on_c, 0, 63, 70
1, 48360, Note_on_c, 0, 39, 67
1, 48360, Note_on_c, 0, 51, 80
1, 48371, Control_c, 0, 64, 127
1, 48408, Note_on_c, 0, 63, 0
1, 48408, Note_on_c, 0, 65, 70
1, 48420, Note_on_c, 0, 51, 0
1, 48420, Note_on_c, 0, 39, 0
1, 48456, Note_on_c, 0, 65, 0
1, 48456, Note_on_c, 0, 63, 70
1, 48504, Note_on_c, 0, 63, 0
1, 48504, Note_on_c, 0, 62, 70
1, 48552, Note_on_c, 0, 62, 0
1, 48552, Note_on_c, 0, 63, 70
1, 48600, Tempo, 645161
1, 48600, Note_on_c, 0, 63, 0
1, 48600, Note_on_c, 0, 68, 87
1, 48600, Note_on_c, 0, 44, 73
1, 48600, Note_on_c, 0, 56, 86
1, 48609, Control_c, 0, 64, 0
1, 48720, Note_on_c, 0, 56, 0
1, 48720, Note_on_c, 0, 44, 0
1, 48720, Note_on_c, 0, 68, 0
1, 48840, Tempo, 666667
1, 48840, Note_on_c, 0, 84, 88
1, 48840, Note_on_c, 0, 72, 74
1, 48840, Note_on_c, 0, 80, 74
1, 48840, Note_on_c, 0, 27, 61
1, 48840, Note_on_c, 0, 39, 73
1, 48960, Tempo, 677966
1, 48960, Note_on_c, 0, 80, 0
1, 48960, Note_on_c, 0, 84, 0
1, 48960, Note_on_c, 0, 72, 0
1, 48960, Note_on_c, 0, 85, 86
1, 48960, Note_on_c, 0, 73, 73
1, 48960, Note_on_c, 0, 82, 73
1, 49080, Tempo, 666667
1, 49080, Note_on_c, 0, 82, 0
1, 49080, Note_on_c, 0, 85, 0
1, 49080, Note_on_c, 0, 39, 0
1, 49080, Note_on_c, 0, 27, 0
1, 49080, Note_on_c, 0, 73, 0
1, 49080, Note_on_c, 0, 85, 79
1, 49080, Note_on_c, 0, 89, 93
1, 49080, Note_on_c, 0, 77, 79
1, 49080, Note_on_c, 0, 32, 67
1, 49080, Note_on_c, 0, 44, 79
1, 49112, Control_c, 0, 64, 127
1, 49200, Note_on_c, 0, 77, 0
1, 49200, Note_on_c, 0, 85, 0
1, 49200, Note_on_c, 0, 89, 0
1, 49200, Note_on_c, 0, 75, 74
1, 49200, Note_on_c, 0, 84, 74
1, 49200, Note_on_c, 0, 87, 88
1, 49260, Note_on_c, 0, 87, 0
1, 49260, Note_on_c, 0, 89, 81
1, 49320, Tempo, 571429
1, 49320, Note_on_c, 0, 89, 0
1, 49320, Note_on_c, 0, 32, 0
1, 49320, Note_on_c, 0, 44, 0
1, 49320, Note_on_c, 0, 87, 93
1, 49320, Note_on_c, 0, 60, 61
1, 49320, Note_on_c, 0, 63, 73
1, 49320, Note_on_c, 0, 51, 61
1, 49440, Tempo, 681818
1, 49440, Note_on_c, 0, 87, 0
1, 49440, Note_on_c, 0, 84, 0
1, 49440, Note_on_c, 0, 75, 0
1, 49440, Note_on_c, 0, 83, 74
1, 49440, Note_on_c, 0, 86, 88
1, 49440, Note_on_c, 0, 74, 74
1, 49560, Tempo, 666667
1, 49560, Note_on_c, 0, 74, 0
1, 49560, Note_on_c, 0, 63, 0
1, 49560, Note_on_c, 0, 60, 0
1, 49560, Note_on_c, 0, 51, 0
1, 49560, Note_on_c, 0, 86, 0
1, 49560, Note_on_c, 0, 83, 0
1, 49560, Note_on_c, 0, 85, 79
1, 49560, Note_on_c, 0, 89, 93
1, 49560, Note_on_c, 0, 77, 79
1, 49560, Note_on_c, 0, 68, 75
1, 49560, Note_on_c, 0, 60, 75
1, 49560, Note_on_c, 0, 56, 63
1, 49574, Control_c, 0, 64, 0
1, 49610, Control_c, 0, 64, 127
1, 49680, Note_on_c, 0, 77, 0
1, 49680, Note_on_c, 0, 85, 0
1, 49680, Note_on_c, 0, 89, 0
1, 49680, Note_on_c, 0, 84, 74
1, 49680, Note_on_c, 0, 87, 88
1, 49680, Note_on_c, 0, 75, 74
1, 49740, Note_on_c, 0, 87, 0
1, 49740, Note_on_c, 0, 89, 81
1, 49800, Tempo, 606061
1, 49800, Note_on_c, 0, 89, 0
1, 49800, Note_on_c, 0, 60, 0
1, 49800, Note_on_c, 0, 56, 0
1, 49800, Note_on_c, 0, 68, 0
1, 49800, Note_on_c, 0, 87, 93
1, 49800, Note_on_c, 0, 39, 61
1, 49800, Note_on_c, 0, 51, 73
1, 49920, Tempo, 689655
1, 49920, Note_on_c, 0, 51, 0
1, 49920, Note_on_c, 0, 87, 0
1, 49920, Note_on_c, 0, 75, 0
1, 49920, Note_on_c, 0, 84, 0
1, 49920, Note_on_c, 0, 39, 0
1, 49920, Note_on_c, 0, 74, 74
1, 49920, Note_on_c, 0, 83, 74
1, 49920, Note_on_c, 0, 86, 88
1, 50040, Tempo, 666667
1, 50040, Note_on_c, 0, 86, 0
1, 50040, Note_on_c, 0, 83, 0
1, 50040, Note_on_c, 0, 74, 0
1, 50040, Note_on_c, 0, 75, 74
1, 50040, Note_on_c, 0, 84, 74
1, 50040, Note_on_c, 0, 87, 88
1, 50040, Note_on_c, 0, 44, 64
1, 50040, Note_on_c, 0, 56, 77
1, 50061, Control_c, 0, 64, 0
1, 50160, Tempo, 839161
1, 50160, Note_on_c, 0, 56, 0
1, 50160, Note_on_c, 0, 44, 0
1, 50220, Note_on_c, 0, 75, 0
1, 50220, Note_on_c, 0, 84, 0
1, 50220, Note_on_c, 0, 87, 0
1, 50220, Note_on_c, 0, 75, 72
1, 50220, Note_on_c, 0, 39, 62
1, 50250, Note_on_c, 0, 82, 72
1, 50250, Note_on_c, 0, 46, 62
1, 50280, Tempo, 750000
1, 50280, Note_on_c, 0, 90, 85
1, 50280, Note_on_c, 0, 54, 74
1, 50305, Control_c, 0, 64, 127
1, 50400, Tempo, 714286
1, 50430, Note_on_c, 0, 54, 0
1, 50430, Note_on_c, 0, 39, 0
1, 50430, Note_on_c, 0, 46, 0
1, 50430, Note_on_c, 0, 41, 62
1, 50460, Note_on_c, 0, 75, 0
1, 50460, Note_on_c, 0, 82, 0
1, 50460, Note_on_c, 0, 90, 0
1, 50460, Note_on_c, 0, 75, 70
1, 50460, Note_on_c, 0, 48, 62
1, 50490, Note_on_c, 0, 81, 70
1, 50490, Note_on_c, 0, 51, 74
1, 50520, Note_on_c, 0, 89, 83
1, 50520, Control_c, 0, 64, 0
1, 50520, Note_on_c, 0, 57, 74
1, 50574, Control_c, 0, 64, 127
1, 50670, Note_on_c, 0, 57, 0
1, 50670, Note_on_c, 0, 41, 0
1, 50670, Note_on_c, 0, 51, 0
1, 50670, Note_on_c, 0, 72, 70
1, 50670, Note_on_c, 0, 53, 61
1, 50700, Note_on_c, 0, 81, 0
1, 50700, Note_on_c, 0, 89, 0
1, 50700, Note_on_c, 0, 75, 0
1, 50700, Note_on_c, 0, 75, 70
1, 50700, Note_on_c, 0, 60, 61
1, 50730, Note_on_c, 0, 77, 70
1, 50730, Note_on_c, 0, 63, 73
1, 50760, Note_on_c, 0, 48, 0
1, 50760, Note_on_c, 0, 84, 83
1, 50760, Note_on_c, 0, 69, 73
1, 50773, Control_c, 0, 64, 0
1, 50803, Control_c, 0, 64, 127
1, 50910, Note_on_c, 0, 69, 0
1, 50910, Note_on_c, 0, 60, 0
1, 50910, Note_on_c, 0, 53, 0
1, 50910, Note_on_c, 0, 63, 0
1, 50940, Note_on_c, 0, 77, 0
1, 50940, Note_on_c, 0, 75, 0
1, 50940, Note_on_c, 0, 72, 0
1, 50940, Note_on_c, 0, 84, 0
1, 50940, Note_on_c, 0, 70, 70
1, 50940, Note_on_c, 0, 46, 63
1, 50970, Note_on_c, 0, 77, 70
1, 50970, Note_on_c, 0, 53, 75
1, 51000, Note_on_c, 0, 85, 83
1, 51000, Note_on_c, 0, 61, 75
1, 51011, Control_c, 0, 64, 0
1, 51180, Note_on_c, 0, 85, 0
1, 51180, Note_on_c, 0, 77, 0
1, 51180, Note_on_c, 0, 70, 0
1, 51240, Tempo, 727273
1, 51240, Note_on_c, 0, 46, 0
1, 51240, Note_on_c, 0, 53, 0
1, 51240, Note_on_c, 0, 61, 0
1, 51240, Note_on_c, 0, 78, 80
1, 51240, Note_on_c, 0, 42, 60
1, 51240, Note_on_c, 0, 54, 71
1, 51320, Note_on_c, 0, 78, 0
1, 51320, Note_on_c, 0, 66, 80
1, 51400, Note_on_c, 0, 66, 0
1, 51400, Note_on_c, 0, 78, 80
1, 51480, Tempo, 705882
1, 51480, Note_on_c, 0, 78, 0
1, 51480, Note_on_c, 0, 54, 0
1, 51480, Note_on_c, 0, 42, 0
1, 51480, Note_on_c, 0, 65, 71
1, 51480, Note_on_c, 0, 77, 84
1, 51480, Note_on_c, 0, 41, 60
1, 51480, Note_on_c, 0, 53, 71
1, 51720, Tempo, 774194
1, 51720, Note_on_c, 0, 53, 0
1, 51720, Note_on_c, 0, 65, 0
1, 51720, Note_on_c, 0, 77, 0
1, 51720, Note_on_c, 0, 41, 0
1, 51720, Note_on_c, 0, 61, 74
1, 51720, Note_on_c, 0, 73, 79
1, 51720, Note_on_c, 0, 37, 58
1, 51720, Note_on_c, 0, 49, 69
1, 51960, Tempo, 784314
1, 51960, Note_on_c, 0, 49, 0
1, 51960, Note_on_c, 0, 61, 0
1, 51960, Note_on_c, 0, 73, 0
1, 51960, Note_on_c, 0, 37, 0
1, 51960, Note_on_c, 0, 78, 82
1, 51960, Note_on_c, 0, 87, 82
1, 51960, Note_on_c, 0, 90, 97
1, 51960, Note_on_c, 0, 34, 67
1, 51960, Note_on_c, 0, 46, 79
1, 51960, Control_c, 0, 64, 0
1, 52038, Control_c, 0, 64, 127
1, 52080, Note_on_c, 0, 46, 0
1, 52080, Note_on_c, 0, 34, 0
1, 52200, Tempo, 576923
1, 52200, Note_on_c, 0, 61, 79
1, 52200, Note_on_c, 0, 53, 67
1, 52200, Note_on_c, 0, 65, 79
1, 52320, Tempo, 648649
1, 52320, Note_on_c, 0, 78, 0
1, 52320, Note_on_c, 0, 90, 0
1, 52320, Note_on_c, 0, 87, 0
1, 52320, Note_on_c, 0, 77, 79
1, 52320, Note_on_c, 0, 85, 79
1, 52320, Note_on_c, 0, 89, 93
1, 52428, Note_on_c, 0, 89, 0
1, 52428, Note_on_c, 0, 77, 0
1, 52428, Note_on_c, 0, 85, 0
1, 52440, Tempo, 693642
1, 52440, Note_on_c, 0, 65, 0
1, 52440, Note_on_c, 0, 61, 0
1, 52440, Note_on_c, 0, 53, 0
1, 52440, Note_on_c, 0, 77, 79
1, 52440, Note_on_c, 0, 85, 79
1, 52440, Note_on_c, 0, 89, 93
1, 52440, Note_on_c, 0, 70, 77
1, 52440, Note_on_c, 0, 61, 77
1, 52440, Note_on_c, 0, 58, 64
1, 52446, Control_c, 0, 64, 0
1, 52620, Note_on_c, 0, 65, 71
1, 52666, Control_c, 0, 64, 127
1, 52680, Tempo, 681818
1, 52680, Note_on_c, 0, 65, 0
1, 52680, Note_on_c, 0, 61, 0
1, 52680, Note_on_c, 0, 85, 0
1, 52680, Note_on_c, 0, 89, 0
1, 52680, Note_on_c, 0, 77, 0
1, 52680, Note_on_c, 0, 58, 0
1, 52680, Note_on_c, 0, 70, 0
1, 52680, Note_on_c, 0, 65, 71
1, 52680, Note_on_c, 0, 41, 72
1, 52680, Note_on_c, 0, 53, 85
1, 52728, Note_on_c, 0, 65, 0
1, 52728, Note_on_c, 0, 66, 71
1, 52740, Note_on_c, 0, 53, 0
1, 52740, Note_on_c, 0, 41, 0
1, 52776, Note_on_c, 0, 66, 0
1, 52776, Note_on_c, 0, 65, 71
1, 52824, Note_on_c, 0, 65, 0
1, 52824, Note_on_c, 0, 64, 71
1, 52872, Note_on_c, 0, 64, 0
1, 52872, Note_on_c, 0, 65, 71
1, 52920, Tempo, 666667
1, 52920, Note_on_c, 0, 65, 0
1, 52920, Note_on_c, 0, 70, 87
1, 52920, Note_on_c, 0, 46, 73
1, 52920, Note_on_c, 0, 58, 86
1, 52924, Control_c, 0, 64, 0
1, 53040, Note_on_c, 0, 58, 0
1, 53040, Note_on_c, 0, 46, 0
1, 53040, Note_on_c, 0, 70, 0
1, 53160, Note_on_c, 0, 73, 74
1, 53160, Note_on_c, 0, 85, 88
1, 53160, Note_on_c, 0, 82, 74
1, 53160, Note_on_c, 0, 29, 61
1, 53160, Note_on_c, 0, 41, 73
1, 53280, Tempo, 705882
1, 53280, Note_on_c, 0, 82, 0
1, 53280, Note_on_c, 0, 73, 0
1, 53280, Note_on_c, 0, 85, 0
1, 53280, Note_on_c, 0, 75, 73
1, 53280, Note_on_c, 0, 84, 73
1, 53280, Note_on_c, 0, 87, 86
1, 53400, Tempo, 666667
1, 53400, Note_on_c, 0, 87, 0
1, 53400, Note_on_c, 0, 75, 0
1, 53400, Note_on_c, 0, 41, 0
1, 53400, Note_on_c, 0, 29, 0
1, 53400, Note_on_c, 0, 84, 0
1, 53400, Note_on_c, 0, 90, 93
1, 53400, Note_on_c, 0, 78, 79
1, 53400, Note_on_c, 0, 87, 79
1, 53400, Note_on_c, 0, 34, 67
1, 53400, Note_on_c, 0, 46, 79
1, 53420, Tempo, 705882
1, 53432, Control_c, 0, 64, 127
1, 53520, Tempo, 666667
1, 53520, Note_on_c, 0, 87, 0
1, 53520, Note_on_c, 0, 90, 0
1, 53520, Note_on_c, 0, 78, 0
1, 53580, Note_on_c, 0, 77, 74
1, 53580, Note_on_c, 0, 85, 74
1, 53580, Note_on_c, 0, 89, 88
1, 53634, Note_on_c, 0, 89, 0
1, 53634, Note_on_c, 0, 77, 0
1, 53634, Note_on_c, 0, 85, 0
1, 53640, Tempo, 574163
1, 53640, Note_on_c, 0, 34, 0
1, 53640, Note_on_c, 0, 46, 0
1, 53640, Note_on_c, 0, 85, 74
1, 53640, Note_on_c, 0, 77, 74
1, 53640, Note_on_c, 0, 89, 93
1, 53640, Note_on_c, 0, 61, 61
1, 53640, Note_on_c, 0, 65, 73
1, 53640, Note_on_c, 0, 53, 61
1, 53760, Tempo, 714286
1, 53760, Note_on_c, 0, 89, 0
1, 53760, Note_on_c, 0, 85, 0
1, 53760, Note_on_c, 0, 77, 0
1, 53760, Note_on_c, 0, 76, 74
1, 53760, Note_on_c, 0, 88, 88
1, 53760, Note_on_c, 0, 84, 74
1, 53880, Tempo, 714286
1, 53880, Note_on_c, 0, 84, 0
1, 53880, Note_on_c, 0, 65, 0
1, 53880, Note_on_c, 0, 61, 0
1, 53880, Note_on_c, 0, 53, 0
1, 53880, Note_on_c, 0, 88, 0
1, 53880, Note_on_c, 0, 76, 0
1, 53880, Note_on_c, 0, 77, 88
1, 53880, Note_on_c, 0, 85, 74
1, 53880, Note_on_c, 0, 89, 88
1, 53880, Note_on_c, 0, 70, 75
1, 53880, Note_on_c, 0, 61, 75
1, 53880, Note_on_c, 0, 58, 63
1, 53895, Control_c, 0, 64, 0
1, 54060, Note_on_c, 0, 65, 71
1, 54120, Tempo, 681818
1, 54120, Note_on_c, 0, 65, 0
1, 54120, Note_on_c, 0, 61, 0
1, 54120, Note_on_c, 0, 85, 0
1, 54120, Note_on_c, 0, 89, 0
1, 54120, Note_on_c, 0, 77, 0
1, 54120, Note_on_c, 0, 58, 0
1, 54120, Note_on_c, 0, 70, 0
1, 54120, Note_on_c, 0, 65, 71
1, 54120, Note_on_c, 0, 41, 67
1, 54120, Note_on_c, 0, 53, 80
1, 54129, Control_c, 0, 64, 127
1, 54168, Note_on_c, 0, 65, 0
1, 54168, Note_on_c, 0, 66, 71
1, 54180, Note_on_c, 0, 53, 0
1, 54180, Note_on_c, 0, 41, 0
1, 54216, Note_on_c, 0, 66, 0
1, 54216, Note_on_c, 0, 65, 71
1, 54264, Note_on_c, 0, 65, 0
1, 54264, Note_on_c, 0, 64, 71
1, 54312, Note_on_c, 0, 64, 0
1, 54312, Note_on_c, 0, 65, 71
1, 54360, Tempo, 645161
1, 54360, Note_on_c, 0, 65, 0
1, 54360, Note_on_c, 0, 70, 87
1, 54360, Note_on_c, 0, 46, 73
1, 54360, Note_on_c, 0, 58, 86
1, 54364, Control_c, 0, 64, 0
1, 54480, Note_on_c, 0, 58, 0
1, 54480, Note_on_c, 0, 46, 0
1, 54600, Tempo, 701754
1, 54600, Note_on_c, 0, 70, 0
1, 54600, Note_on_c, 0, 79, 81
1, 54600, Note_on_c, 0, 91, 96
1, 54600, Note_on_c, 0, 85, 81
1, 54600, Note_on_c, 0, 34, 61
1, 54600, Note_on_c, 0, 46, 73
1, 54720, Tempo, 693642
1, 54720, Note_on_c, 0, 85, 0
1, 54720, Note_on_c, 0, 79, 0
1, 54720, Note_on_c, 0, 91, 0
1, 54720, Note_on_c, 0, 80, 80
1, 54720, Note_on_c, 0, 92, 94
1, 54740, Tempo, 745342
1, 54840, Tempo, 693642
1, 54840, Note_on_c, 0, 92, 0
1, 54840, Note_on_c, 0, 46, 0
1, 54840, Note_on_c, 0, 34, 0
1, 54840, Note_on_c, 0, 80, 0
1, 54840, Note_on_c, 0, 84, 85
1, 54840, Note_on_c, 0, 96, 101
1, 54840, Note_on_c, 0, 27, 67
1, 54840, Note_on_c, 0, 39, 79
1, 54872, Control_c, 0, 64, 127
1, 54960, Note_on_c, 0, 39, 0
1, 54960, Note_on_c, 0, 84, 0
1, 54960, Note_on_c, 0, 96, 0
1, 54960, Note_on_c, 0, 27, 0
1, 54960, Note_on_c, 0, 87, 74
1, 54960, Note_on_c, 0, 91, 88
1, 55080, Tempo, 571429
1, 55080, Note_on_c, 0, 91, 0
1, 55080, Note_on_c, 0, 87, 0
1, 55080, Note_on_c, 0, 96, 93
1, 55080, Note_on_c, 0, 84, 79
1, 55080, Note_on_c, 0, 67, 60
1, 55080, Note_on_c, 0, 61, 60
1, 55080, Note_on_c, 0, 72, 72
1, 55080, Note_on_c, 0, 63, 60
1, 55200, Tempo, 681818
1, 55200, Note_on_c, 0, 72, 0
1, 55200, Note_on_c, 0, 84, 0
1, 55200, Note_on_c, 0, 96, 0
1, 55200, Note_on_c, 0, 70, 70
1, 55260, Note_on_c, 0, 94, 92
1, 55260, Note_on_c, 0, 82, 78
1, 55261, Control_c, 0, 64, 0
1, 55314, Note_on_c, 0, 82, 0
1, 55314, Note_on_c, 0, 94, 0
1, 55320, Tempo, 666667
1, 55320, Note_on_c, 0, 61, 0
1, 55320, Note_on_c, 0, 67, 0
1, 55320, Note_on_c, 0, 63, 0
1, 55320, Note_on_c, 0, 70, 0
1, 55320, Note_on_c, 0, 82, 81
1, 55320, Note_on_c, 0, 94, 97
1, 55320, Note_on_c, 0, 51, 75
1, 55387, Control_c, 0, 64, 127
1, 55440, Note_on_c, 0, 51, 0
1, 55440, Note_on_c, 0, 94, 0
1, 55440, Note_on_c, 0, 82, 0
1, 55440, Note_on_c, 0, 84, 70
1, 55440, Note_on_c, 0, 87, 84
1, 55560, Tempo, 571429
1, 55560, Note_on_c, 0, 87, 0
1, 55560, Note_on_c, 0, 84, 0
1, 55560, Note_on_c, 0, 94, 90
1, 55560, Note_on_c, 0, 82, 75
1, 55560, Note_on_c, 0, 70, 72
1, 55560, Note_on_c, 0, 60, 58
1, 55560, Note_on_c, 0, 63, 69
1, 55680, Tempo, 681818
1, 55680, Note_on_c, 0, 70, 0
1, 55680, Note_on_c, 0, 94, 0
1, 55680, Note_on_c, 0, 82, 0
1, 55680, Note_on_c, 0, 68, 70
1, 55740, Note_on_c, 0, 80, 68
1, 55740, Note_on_c, 0, 92, 80
1, 55752, Control_c, 0, 64, 0
1, 55794, Note_on_c, 0, 92, 0
1, 55794, Note_on_c, 0, 80, 0
1, 55800, Tempo, 666667
1, 55800, Note_on_c, 0, 63, 0
1, 55800, Note_on_c, 0, 60, 0
1, 55800, Note_on_c, 0, 68, 0
1, 55800, Note_on_c, 0, 80, 79
1, 55800, Note_on_c, 0, 92, 93
1, 55800, Note_on_c, 0, 51, 73
1, 55867, Control_c, 0, 64, 127
1, 55920, Note_on_c, 0, 51, 0
1, 55920, Note_on_c, 0, 92, 0
1, 55920, Note_on_c, 0, 80, 0
1, 55920, Note_on_c, 0, 87, 79
1, 55920, Note_on_c, 0, 82, 67
1, 56040, Tempo, 571429
1, 56040, Note_on_c, 0, 82, 0
1, 56040, Note_on_c, 0, 87, 0
1, 56040, Note_on_c, 0, 92, 88
1, 56040, Note_on_c, 0, 80, 74
1, 56040, Note_on_c, 0, 68, 72
1, 56040, Note_on_c, 0, 58, 56
1, 56040, Note_on_c, 0, 63, 67
1, 56160, Tempo, 681818
1, 56160, Note_on_c, 0, 68, 0
1, 56160, Note_on_c, 0, 92, 0
1, 56160, Note_on_c, 0, 80, 0
1, 56160, Note_on_c, 0, 67, 70
1, 56220, Note_on_c, 0, 91, 79
1, 56220, Note_on_c, 0, 79, 67
1, 56230, Control_c, 0, 64, 0
1, 56274, Note_on_c, 0, 79, 0
1, 56274, Note_on_c, 0, 91, 0
1, 56280, Tempo, 666667
1, 56280, Note_on_c, 0, 63, 0
1, 56280, Note_on_c, 0, 58, 0
1, 56280, Note_on_c, 0, 67, 0
1, 56280, Note_on_c, 0, 79, 75
1, 56280, Note_on_c, 0, 91, 90
1, 56280, Note_on_c, 0, 46, 70
1, 56330, Control_c, 0, 64, 127
1, 56400, Note_on_c, 0, 46, 0
1, 56400, Note_on_c, 0, 91, 0
1, 56400, Note_on_c, 0, 79, 0
1, 56400, Note_on_c, 0, 86, 78
1, 56400, Note_on_c, 0, 82, 66
1, 56520, Tempo, 571429
1, 56520, Note_on_c, 0, 82, 0
1, 56520, Note_on_c, 0, 86, 0
1, 56520, Note_on_c, 0, 79, 72
1, 56520, Note_on_c, 0, 91, 85
1, 56520, Note_on_c, 0, 67, 72
1, 56520, Note_on_c, 0, 56, 55
1, 56520, Note_on_c, 0, 62, 66
1, 56520, Note_on_c, 0, 58, 55
1, 56640, Tempo, 681818
1, 56640, Note_on_c, 0, 67, 0
1, 56640, Note_on_c, 0, 79, 0
1, 56640, Note_on_c, 0, 91, 0
1, 56640, Note_on_c, 0, 65, 70
1, 56700, Note_on_c, 0, 89, 81
1, 56700, Note_on_c, 0, 77, 68
1, 56713, Control_c, 0, 64, 0
1, 56754, Note_on_c, 0, 77, 0
1, 56754, Note_on_c, 0, 89, 0
1, 56760, Tempo, 666667
1, 56760, Note_on_c, 0, 56, 0
1, 56760, Note_on_c, 0, 58, 0
1, 56760, Note_on_c, 0, 62, 0
1, 56760, Note_on_c, 0, 65, 0
1, 56760, Note_on_c, 0, 89, 88
1, 56760, Note_on_c, 0, 77, 73
1, 56760, Note_on_c, 0, 51, 72
1, 56834, Control_c, 0, 64, 127
1, 56880, Note_on_c, 0, 51, 0
1, 56880, Note_on_c, 0, 77, 0
1, 56880, Note_on_c, 0, 89, 0
1, 56880, Note_on_c, 0, 82, 75
1, 56880, Note_on_c, 0, 79, 64
1, 57000, Tempo, 571429
1, 57000, Note_on_c, 0, 79, 0
1, 57000, Note_on_c, 0, 82, 0
1, 57000, Note_on_c, 0, 77, 69
1, 57000, Note_on_c, 0, 89, 82
1, 57000, Note_on_c, 0, 65, 72
1, 57000, Note_on_c, 0, 55, 57
1, 57000, Note_on_c, 0, 58, 68
1, 57120, Tempo, 681818
1, 57120, Note_on_c, 0, 65, 0
1, 57120, Note_on_c, 0, 77, 0
1, 57120, Note_on_c, 0, 89, 0
1, 57120, Note_on_c, 0, 63, 70
1, 57180, Note_on_c, 0, 75, 64
1, 57180, Note_on_c, 0, 87, 75
1, 57184, Control_c, 0, 64, 0
1, 57240, Tempo, 666667
1, 57240, Note_on_c, 0, 87, 0
1, 57240, Note_on_c, 0, 63, 0
1, 57240, Note_on_c, 0, 58, 0
1, 57240, Note_on_c, 0, 55, 0
1, 57240, Note_on_c, 0, 75, 0
1, 57240, Note_on_c, 0, 73, 75
1, 57240, Note_on_c, 0, 85, 90
1, 57240, Note_on_c, 0, 41, 62
1, 57240, Note_on_c, 0, 53, 74
1, 57311, Control_c, 0, 64, 127
1, 57360, Note_on_c, 0, 85, 0
1, 57360, Note_on_c, 0, 73, 0
1, 57360, Note_on_c, 0, 77, 64
1, 57360, Note_on_c, 0, 80, 75
1, 57480, Tempo, 571429
1, 57480, Note_on_c, 0, 80, 0
1, 57480, Note_on_c, 0, 77, 0
1, 57480, Note_on_c, 0, 41, 0
1, 57480, Note_on_c, 0, 85, 84
1, 57480, Note_on_c, 0, 73, 70
1, 57480, Note_on_c, 0, 61, 72
1, 57480, Note_on_c, 0, 56, 68
1, 57600, Tempo, 681818
1, 57600, Note_on_c, 0, 61, 0
1, 57600, Note_on_c, 0, 73, 0
1, 57600, Note_on_c, 0, 85, 0
1, 57600, Note_on_c, 0, 60, 70
1, 57660, Note_on_c, 0, 84, 74
1, 57660, Note_on_c, 0, 72, 63
1, 57670, Control_c, 0, 64, 0
1, 57720, Note_on_c, 0, 72, 0
1, 57720, Note_on_c, 0, 60, 0
1, 57720, Note_on_c, 0, 56, 0
1, 57720, Note_on_c, 0, 53, 0
1, 57720, Note_on_c, 0, 84, 0
1, 57720, Note_on_c, 0, 65, 92
1, 57720, Note_on_c, 0, 37, 62
1, 57720, Note_on_c, 0, 49, 74
1, 57801, Control_c, 0, 64, 127
1, 57960, Tempo, 655738
1, 57960, Note_on_c, 0, 49, 0
1, 57960, Note_on_c, 0, 37, 0
1, 57960, Note_on_c, 0, 53, 55
1, 57960, Note_on_c, 0, 58, 64
1, 58180, Tempo, 662983
1, 58200, Tempo, 659341
1, 58200, Note_on_c, 0, 58, 0
1, 58200, Note_on_c, 0, 53, 0
1, 58200, Note_on_c, 0, 65, 0
1, 58200, Note_on_c, 0, 67, 70
1, 58200, Note_on_c, 0, 36, 63
1, 58200, Note_on_c, 0, 48, 75
1, 58212, Control_c, 0, 64, 0
1, 58220, Tempo, 652174
1, 58240, Tempo, 648649
1, 58260, Tempo, 641711
1, 58260, Note_on_c, 0, 67, 0
1, 58260, Note_on_c, 0, 68, 71
1, 58278, Control_c, 0, 64, 127
1, 58280, Tempo, 638298
1, 58300, Tempo, 631579
1, 58320, Tempo, 628272
1, 58320, Note_on_c, 0, 68, 0
1, 58320, Note_on_c, 0, 67, 71
1, 58340, Tempo, 621762
1, 58360, Tempo, 618557
1, 58380, Tempo, 612245
1, 58380, Note_on_c, 0, 67, 0
1, 58380, Note_on_c, 0, 68, 72
1, 58400, Tempo, 609137
1, 58420, Tempo, 603015
1, 58440, Tempo, 652174
1, 58440, Note_on_c, 0, 68, 0
1, 58440, Note_on_c, 0, 48, 0
1, 58440, Note_on_c, 0, 36, 0
1, 58440, Note_on_c, 0, 65, 72
1, 58440, Note_on_c, 0, 52, 57
1, 58440, Note_on_c, 0, 60, 68
1, 58440, Note_on_c, 0, 58, 57
1, 58450, Control_c, 0, 64, 0
1, 58560, Note_on_c, 0, 65, 0
1, 58560, Note_on_c, 0, 67, 73
1, 58660, Tempo, 648649
1, 58680, Tempo, 645161
1, 58680, Note_on_c, 0, 67, 0
1, 58680, Note_on_c, 0, 58, 0
1, 58680, Note_on_c, 0, 60, 0
1, 58680, Note_on_c, 0, 52, 0
1, 58680, Note_on_c, 0, 68, 75
1, 58680, Note_on_c, 0, 29, 66
1, 58680, Note_on_c, 0, 41, 78
1, 58700, Tempo, 641711
1, 58720, Tempo, 638298
1, 58740, Tempo, 634921
1, 58740, Note_on_c, 0, 68, 0
1, 58740, Note_on_c, 0, 70, 75
1, 58747, Control_c, 0, 64, 127
1, 58760, Tempo, 631579
1, 58780, Tempo, 625000
1, 58800, Tempo, 621762
1, 58800, Note_on_c, 0, 70, 0
1, 58800, Note_on_c, 0, 68, 77
1, 58820, Tempo, 618557
1, 58840, Tempo, 615385
1, 58860, Tempo, 612245
1, 58860, Note_on_c, 0, 68, 0
1, 58860, Note_on_c, 0, 70, 77
1, 58880, Tempo, 609137
1, 58900, Tempo, 603015
1, 58920, Tempo, 652174
1, 58920, Note_on_c, 0, 70, 0
1, 58920, Note_on_c, 0, 41, 0
1, 58920, Note_on_c, 0, 29, 0
1, 58920, Note_on_c, 0, 67, 78
1, 58920, Note_on_c, 0, 53, 73
1, 58920, Note_on_c, 0, 56, 73
1, 58920, Note_on_c, 0, 60, 73
1, 58923, Control_c, 0, 64, 0
1, 59040, Note_on_c, 0, 67, 0
1, 59040, Note_on_c, 0, 68, 79
1, 59160, Tempo, 677966
1, 59160, Note_on_c, 0, 68, 0
1, 59160, Note_on_c, 0, 60, 0
1, 59160, Note_on_c, 0, 56, 0
1, 59160, Note_on_c, 0, 53, 0
1, 59160, Note_on_c, 0, 61, 48
1, 59160, Note_on_c, 0, 67, 48
1, 59160, Note_on_c, 0, 69, 82
1, 59160, Note_on_c, 0, 39, 57
1, 59160, Note_on_c, 0, 51, 69
1, 59238, Control_c, 0, 64, 127
1, 59280, Note_on_c, 0, 51, 0
1, 59280, Note_on_c, 0, 69, 0
1, 59280, Note_on_c, 0, 39, 0
1, 59280, Note_on_c, 0, 70, 77
1, 59400, Tempo, 641849
1, 59400, Note_on_c, 0, 70, 0
1, 59400, Note_on_c, 0, 67, 0
1, 59400, Note_on_c, 0, 61, 0
1, 59400, Note_on_c, 0, 61, 44
1, 59400, Note_on_c, 0, 67, 44
1, 59400, Note_on_c, 0, 72, 77
1, 59400, Note_on_c, 0, 51, 54
1, 59400, Note_on_c, 0, 58, 63
1, 59520, Tempo, 689655
1, 59520, Note_on_c, 0, 72, 0
1, 59520, Note_on_c, 0, 73, 77
1, 59640, Tempo, 652174
1, 59640, Note_on_c, 0, 73, 0
1, 59640, Note_on_c, 0, 58, 0
1, 59640, Note_on_c, 0, 61, 0
1, 59640, Note_on_c, 0, 67, 0
1, 59640, Note_on_c, 0, 51, 0
1, 59640, Note_on_c, 0, 60, 69
1, 59640, Note_on_c, 0, 68, 69
1, 59640, Note_on_c, 0, 72, 82
1, 59640, Note_on_c, 0, 44, 60
1, 59640, Note_on_c, 0, 51, 60
1, 59640, Note_on_c, 0, 56, 71
1, 59650, Control_c, 0, 64, 0
1, 59880, Tempo, 652174
1, 59880, Note_on_c, 0, 56, 0
1, 59880, Note_on_c, 0, 68, 0
1, 59880, Note_on_c, 0, 72, 0
1, 59880, Note_on_c, 0, 60, 0
1, 59880, Note_on_c, 0, 51, 0
1, 59880, Note_on_c, 0, 44, 0
1, 59880, Note_on_c, 0, 77, 83
1, 59880, Note_on_c, 0, 59, 70
1, 59880, Note_on_c, 0, 62, 70
1, 59880, Note_on_c, 0, 65, 70
1, 59880, Note_on_c, 0, 68, 70
1, 60060, Note_on_c, 0, 68, 0
1, 60060, Note_on_c, 0, 62, 0
1, 60060, Note_on_c, 0, 77, 0
1, 60060, Note_on_c, 0, 59, 0
1, 60060, Note_on_c, 0, 65, 0
1, 60060, Note_on_c, 0, 63, 63
1, 60060, Note_on_c, 0, 60, 63
1, 60060, Note_on_c, 0, 75, 75
1, 60060, Note_on_c, 0, 68, 63
1, 60114, Note_on_c, 0, 68, 0
1, 60114, Note_on_c, 0, 63, 0
1, 60114, Note_on_c, 0, 60, 0
1, 60114, Note_on_c, 0, 75, 0
1, 60120, Note_on_c, 0, 60, 71
1, 60120, Note_on_c, 0, 75, 84
1, 60120, Note_on_c, 0, 63, 71
1, 60120, Note_on_c, 0, 68, 71
1, 60240, Note_on_c, 0, 68, 0
1, 60240, Note_on_c, 0, 60, 0
1, 60240, Note_on_c, 0, 75, 0
1, 60240, Note_on_c, 0, 63, 0
1, 60240, Note_on_c, 0, 68, 79
1, 60360, Tempo, 674157
1, 60360, Note_on_c, 0, 80, 83
1, 60360, Note_on_c, 0, 44, 61
1, 60360, Note_on_c, 0, 56, 72
1, 60480, Note_on_c, 0, 80, 0
1, 60480, Note_on_c, 0, 68, 0
1, 60540, Note_on_c, 0, 67, 64
1, 60540, Note_on_c, 0, 79, 77
1, 60600, Tempo, 701754
1, 60600, Note_on_c, 0, 79, 0
1, 60600, Note_on_c, 0, 56, 0
1, 60600, Note_on_c, 0, 44, 0
1, 60600, Note_on_c, 0, 67, 0
1, 60600, Note_on_c, 0, 65, 64
1, 60600, Note_on_c, 0, 77, 77
1, 60600, Note_on_c, 0, 37, 62
1, 60600, Note_on_c, 0, 49, 74
1, 60635, Control_c, 0, 64, 0
1, 60681, Control_c, 0, 64, 127
1, 60840, Tempo, 655738
1, 60840, Note_on_c, 0, 49, 0
1, 60840, Note_on_c, 0, 37, 0
1, 60840, Note_on_c, 0, 53, 55
1, 60840, Note_on_c, 0, 58, 64
1, 61060, Tempo, 662983
1, 61080, Tempo, 659341
1, 61080, Note_on_c, 0, 58, 0
1, 61080, Note_on_c, 0, 65, 0
1, 61080, Note_on_c, 0, 77, 0
1, 61080, Note_on_c, 0, 53, 0
1, 61080, Note_on_c, 0, 67, 70
1, 61080, Note_on_c, 0, 36, 63
1, 61080, Note_on_c, 0, 48, 75
1, 61089, Control_c, 0, 64, 0
1, 61100, Tempo, 652174
1, 61120, Tempo, 648649
1, 61140, Tempo, 641711
1, 61158, Control_c, 0, 64, 127
1, 61160, Tempo, 638298
1, 61180, Tempo, 631579
1, 61200, Tempo, 628272
1, 61200, Note_on_c, 0, 67, 0
1, 61200, Note_on_c, 0, 79, 71
1, 61220, Tempo, 621762
1, 61240, Tempo, 618557
1, 61240, Note_on_c, 0, 79, 0
1, 61240, Note_on_c, 0, 80, 72
1, 61260, Tempo, 612245
1, 61280, Tempo, 609137
1, 61280, Note_on_c, 0, 80, 0
1, 61280, Note_on_c, 0, 79, 71
1, 61300, Tempo, 603015
1, 61320, Tempo, 652174
1, 61320, Note_on_c, 0, 79, 0
1, 61320, Note_on_c, 0, 48, 0
1, 61320, Note_on_c, 0, 36, 0
1, 61320, Note_on_c, 0, 65, 61
1, 61320, Note_on_c, 0, 77, 72
1, 61320, Note_on_c, 0, 58, 57
1, 61320, Note_on_c, 0, 64, 68
1, 61320, Note_on_c, 0, 60, 57
1, 61329, Control_c, 0, 64, 0
1, 61440, Note_on_c, 0, 77, 0
1, 61440, Note_on_c, 0, 65, 0
1, 61440, Note_on_c, 0, 67, 61
1, 61440, Note_on_c, 0, 79, 73
1, 61540, Tempo, 648649
1, 61560, Tempo, 645161
1, 61560, Note_on_c, 0, 79, 0
1, 61560, Note_on_c, 0, 64, 0
1, 61560, Note_on_c, 0, 60, 0
1, 61560, Note_on_c, 0, 58, 0
1, 61560, Note_on_c, 0, 67, 0
1, 61560, Note_on_c, 0, 68, 70
1, 61560, Note_on_c, 0, 29, 66
1, 61560, Note_on_c, 0, 41, 78
1, 61580, Tempo, 641711
1, 61600, Tempo, 638298
1, 61620, Tempo, 634921
1, 61627, Control_c, 0, 64, 127
1, 61640, Tempo, 631579
1, 61660, Tempo, 625000
1, 61680, Tempo, 621762
1, 61680, Note_on_c, 0, 68, 0
1, 61680, Note_on_c, 0, 80, 71
1, 61700, Tempo, 618557
1, 61720, Tempo, 615385
1, 61720, Note_on_c, 0, 80, 0
1, 61720, Note_on_c, 0, 82, 71
1, 61740, Tempo, 612245
1, 61760, Tempo, 609137
1, 61760, Note_on_c, 0, 82, 0
1, 61760, Note_on_c, 0, 80, 71
1, 61780, Tempo, 603015
1, 61800, Tempo, 652174
1, 61800, Note_on_c, 0, 80, 0
1, 61800, Note_on_c, 0, 41, 0
1, 61800, Note_on_c, 0, 29, 0
1, 61800, Note_on_c, 0, 67, 66
1, 61800, Note_on_c, 0, 79, 78
1, 61800, Note_on_c, 0, 56, 73
1, 61800, Note_on_c, 0, 60, 73
1, 61800, Note_on_c, 0, 65, 73
1, 61811, Control_c, 0, 64, 0
1, 61920, Note_on_c, 0, 79, 0
1, 61920, Note_on_c, 0, 67, 0
1, 61920, Note_on_c, 0, 68, 67
1, 61920, Note_on_c, 0, 80, 79
1, 62040, Tempo, 655881
1, 62040, Note_on_c, 0, 80, 0
1, 62040, Note_on_c, 0, 60, 0
1, 62040, Note_on_c, 0, 65, 0
1, 62040, Note_on_c, 0, 56, 0
1, 62040, Note_on_c, 0, 68, 0
1, 62040, Note_on_c, 0, 69, 69
1, 62040, Note_on_c, 0, 75, 69
1, 62040, Note_on_c, 0, 81, 82
1, 62040, Note_on_c, 0, 39, 64
1, 62040, Note_on_c, 0, 51, 77
1, 62086, Control_c, 0, 64, 127
1, 62160, Tempo, 666815
1, 62160, Note_on_c, 0, 51, 0
1, 62160, Note_on_c, 0, 81, 0
1, 62160, Note_on_c, 0, 69, 0
1, 62160, Note_on_c, 0, 75, 0
1, 62160, Note_on_c, 0, 39, 0
1, 62160, Note_on_c, 0, 70, 69
1, 62160, Note_on_c, 0, 82, 77
1, 62280, Tempo, 645300
1, 62280, Note_on_c, 0, 82, 0
1, 62280, Note_on_c, 0, 70, 0
1, 62280, Note_on_c, 0, 72, 64
1, 62280, Note_on_c, 0, 79, 64
1, 62280, Note_on_c, 0, 84, 77
1, 62280, Note_on_c, 0, 58, 60
1, 62280, Note_on_c, 0, 61, 60
1, 62280, Note_on_c, 0, 63, 60
1, 62280, Note_on_c, 0, 67, 71
1, 62308, Control_c, 0, 64, 0
1, 62400, Tempo, 674309
1, 62400, Note_on_c, 0, 84, 0
1, 62400, Note_on_c, 0, 72, 0
1, 62400, Note_on_c, 0, 79, 0
1, 62400, Note_on_c, 0, 73, 64
1, 62400, Note_on_c, 0, 85, 77
1, 62520, Tempo, 681818
1, 62520, Note_on_c, 0, 85, 0
1, 62520, Note_on_c, 0, 63, 0
1, 62520, Note_on_c, 0, 67, 0
1, 62520, Note_on_c, 0, 58, 0
1, 62520, Note_on_c, 0, 73, 0
1, 62520, Note_on_c, 0, 61, 0
1, 62520, Note_on_c, 0, 72, 69
1, 62520, Note_on_c, 0, 80, 69
1, 62520, Note_on_c, 0, 84, 82
1, 62520, Note_on_c, 0, 56, 60
1, 62520, Note_on_c, 0, 63, 60
1, 62520, Note_on_c, 0, 68, 71
1, 62640, Note_on_c, 0, 68, 0
1, 62640, Note_on_c, 0, 80, 0
1, 62640, Note_on_c, 0, 84, 0
1, 62640, Note_on_c, 0, 72, 0
1, 62640, Note_on_c, 0, 63, 0
1, 62640, Note_on_c, 0, 56, 0
1, 62760, Tempo, 689655
1, 62760, Note_on_c, 0, 77, 70
1, 62760, Note_on_c, 0, 80, 70
1, 62760, Note_on_c, 0, 89, 83
1, 62760, Note_on_c, 0, 68, 70
1, 62760, Note_on_c, 0, 59, 70
1, 62760, Note_on_c, 0, 62, 70
1, 62760, Note_on_c, 0, 71, 70
1, 62880, Tempo, 710059
1, 62940, Note_on_c, 0, 71, 0
1, 62940, Note_on_c, 0, 59, 0
1, 62940, Note_on_c, 0, 80, 0
1, 62940, Note_on_c, 0, 89, 0
1, 62940, Note_on_c, 0, 77, 0
1, 62940, Note_on_c, 0, 62, 0
1, 62940, Note_on_c, 0, 68, 0
1, 62940, Note_on_c, 0, 75, 63
1, 62940, Note_on_c, 0, 80, 63
1, 62940, Note_on_c, 0, 87, 75
1, 62940, Note_on_c, 0, 68, 63
1, 62940, Note_on_c, 0, 60, 63
1, 62940, Note_on_c, 0, 72, 63
1, 62940, Note_on_c, 0, 63, 63
1, 62994, Note_on_c, 0, 63, 0
1, 62994, Note_on_c, 0, 60, 0
1, 62994, Note_on_c, 0, 80, 0
1, 62994, Note_on_c, 0, 87, 0
1, 62994, Note_on_c, 0, 75, 0
1, 62994, Note_on_c, 0, 72, 0
1, 62994, Note_on_c, 0, 68, 0
1, 63000, Tempo, 689655
1, 63000, Note_on_c, 0, 75, 71
1, 63000, Note_on_c, 0, 80, 71
1, 63000, Note_on_c, 0, 87, 84
1, 63000, Note_on_c, 0, 68, 71
1, 63000, Note_on_c, 0, 72, 71
1, 63000, Note_on_c, 0, 60, 71
1, 63000, Note_on_c, 0, 63, 71
1, 63120, Note_on_c, 0, 63, 0
1, 63120, Note_on_c, 0, 72, 0
1, 63120, Note_on_c, 0, 80, 0
1, 63120, Note_on_c, 0, 87, 0
1, 63120, Note_on_c, 0, 75, 0
1, 63120, Note_on_c, 0, 60, 0
1, 63120, Note_on_c, 0, 68, 0
1, 63150, Note_on_c, 0, 53, 61
1, 63180, Note_on_c, 0, 87, 66
1, 63180, Note_on_c, 0, 75, 66
1, 63180, Note_on_c, 0, 60, 61
1, 63210, Note_on_c, 0, 63, 61
1, 63240, Tempo, 666667
1, 63240, Note_on_c, 0, 75, 0
1, 63240, Note_on_c, 0, 87, 0
1, 63240, Note_on_c, 0, 73, 70
1, 63240, Note_on_c, 0, 81, 70
1, 63240, Note_on_c, 0, 85, 83
1, 63240, Note_on_c, 0, 69, 72
1, 63247, Control_c, 0, 64, 127
1, 63420, Note_on_c, 0, 69, 0
1, 63420, Note_on_c, 0, 81, 0
1, 63420, Note_on_c, 0, 60, 0
1, 63420, Note_on_c, 0, 53, 0
1, 63420, Note_on_c, 0, 63, 0
1, 63420, Note_on_c, 0, 85, 0
1, 63420, Note_on_c, 0, 73, 0
1, 63420, Note_on_c, 0, 72, 64
1, 63420, Note_on_c, 0, 84, 77
1, 63420, Note_on_c, 0, 46, 66
1, 63425, Control_c, 0, 64, 0
1, 63450, Note_on_c, 0, 53, 66
1, 63480, Tempo, 697674
1, 63480, Note_on_c, 0, 84, 0
1, 63480, Note_on_c, 0, 72, 0
1, 63480, Note_on_c, 0, 70, 70
1, 63480, Note_on_c, 0, 82, 83
1, 63480, Note_on_c, 0, 61, 78
1, 63520, Control_c, 0, 64, 127
1, 63600, Note_on_c, 0, 82, 0
1, 63600, Note_on_c, 0, 70, 0
1, 63660, Note_on_c, 0, 53, 0
1, 63660, Note_on_c, 0, 46, 0
1, 63660, Note_on_c, 0, 61, 0
1, 63660, Note_on_c, 0, 51, 61
1, 63689, Control_c, 0, 64, 0
1, 63690, Note_on_c, 0, 58, 61
1, 63720, Tempo, 674157
1, 63720, Note_on_c, 0, 70, 64
1, 63720, Note_on_c, 0, 78, 64
1, 63720, Note_on_c, 0, 82, 77
1, 63720, Note_on_c, 0, 66, 72
1, 63763, Control_c, 0, 64, 127
1, 63900, Note_on_c, 0, 66, 0
1, 63900, Note_on_c, 0, 58, 0
1, 63900, Note_on_c, 0, 70, 0
1, 63900, Note_on_c, 0, 51, 0
1, 63900, Note_on_c, 0, 82, 0
1, 63900, Note_on_c, 0, 78, 0
1, 63900, Note_on_c, 0, 72, 64
1, 63900, Note_on_c, 0, 84, 77
1, 63900, Note_on_c, 0, 46, 57
1, 63911, Control_c, 0, 64, 0
1, 63930, Note_on_c, 0, 53, 57
1, 63960, Tempo, 677966
1, 63960, Note_on_c, 0, 84, 0
1, 63960, Note_on_c, 0, 72, 0
1, 63960, Note_on_c, 0, 73, 68
1, 63960, Note_on_c, 0, 77, 68
1, 63960, Note_on_c, 0, 85, 81
1, 63960, Note_on_c, 0, 61, 68
1, 64000, Tempo, 701754
1, 64000, Control_c, 0, 64, 127
1, 64140, Note_on_c, 0, 61, 0
1, 64140, Note_on_c, 0, 53, 0
1, 64140, Note_on_c, 0, 46, 0
1, 64140, Note_on_c, 0, 39, 57
1, 64146, Control_c, 0, 64, 0
1, 64170, Note_on_c, 0, 46, 57
1, 64200, Tempo, 670391
1, 64200, Note_on_c, 0, 77, 0
1, 64200, Note_on_c, 0, 73, 0
1, 64200, Note_on_c, 0, 85, 0
1, 64200, Note_on_c, 0, 75, 67
1, 64200, Note_on_c, 0, 73, 67
1, 64200, Note_on_c, 0, 85, 79
1, 64200, Note_on_c, 0, 78, 67
1, 64200, Note_on_c, 0, 54, 68
1, 64234, Control_c, 0, 64, 127
1, 64380, Note_on_c, 0, 54, 0
1, 64380, Note_on_c, 0, 85, 0
1, 64380, Note_on_c, 0, 39, 0
1, 64380, Note_on_c, 0, 75, 0
1, 64380, Note_on_c, 0, 46, 0
1, 64380, Note_on_c, 0, 78, 0
1, 64380, Note_on_c, 0, 73, 0
1, 64380, Note_on_c, 0, 72, 63
1, 64380, Note_on_c, 0, 84, 75
1, 64380, Note_on_c, 0, 34, 57
1, 64385, Control_c, 0, 64, 0
1, 64410, Note_on_c, 0, 41, 57
1, 64440, Tempo, 701754
1, 64440, Note_on_c, 0, 84, 0
1, 64440, Note_on_c, 0, 72, 0
1, 64440, Note_on_c, 0, 70, 69
1, 64440, Note_on_c, 0, 77, 69
1, 64440, Note_on_c, 0, 82, 82
1, 64440, Note_on_c, 0, 49, 68
1, 64471, Control_c, 0, 64, 127
1, 64620, Note_on_c, 0, 49, 0
1, 64620, Note_on_c, 0, 41, 0
1, 64620, Note_on_c, 0, 34, 0
1, 64620, Note_on_c, 0, 39, 56
1, 64650, Note_on_c, 0, 46, 56
1, 64680, Tempo, 670391
1, 64680, Note_on_c, 0, 77, 0
1, 64680, Note_on_c, 0, 70, 0
1, 64680, Note_on_c, 0, 82, 0
1, 64680, Note_on_c, 0, 68, 67
1, 64680, Note_on_c, 0, 75, 67
1, 64680, Note_on_c, 0, 80, 79
1, 64680, Note_on_c, 0, 70, 67
1, 64680, Note_on_c, 0, 54, 67
1, 64689, Control_c, 0, 64, 0
1, 64777, Control_c, 0, 64, 127
1, 64860, Note_on_c, 0, 54, 0
1, 64860, Note_on_c, 0, 80, 0
1, 64860, Note_on_c, 0, 39, 0
1, 64860, Note_on_c, 0, 68, 0
1, 64860, Note_on_c, 0, 46, 0
1, 64860, Note_on_c, 0, 70, 0
1, 64860, Note_on_c, 0, 75, 0
1, 64860, Note_on_c, 0, 66, 62
1, 64860, Note_on_c, 0, 78, 74
1, 64860, Note_on_c, 0, 46, 61
1, 64890, Note_on_c, 0, 53, 61
1, 64920, Time_signature, 17, 4, 6, 8
1, 64920, Note_on_c, 0, 78, 0
1, 64920, Note_on_c, 0, 66, 0
1, 64920, Note_on_c, 0, 73, 66
1, 64920, Note_on_c, 0, 77, 78
1, 64920, Note_on_c, 0, 65, 66
1, 64920, Note_on_c, 0, 61, 72
1, 64940, Control_c, 0, 64, 0
1, 64960, Tempo, 693642
1, 64977, Control_c, 0, 64, 127
1, 65040, Note_on_c, 0, 65, 0
1, 65040, Note_on_c, 0, 77, 0
1, 65040, Note_on_c, 0, 73, 0
1, 65100, Note_on_c, 0, 53, 0
1, 65100, Note_on_c, 0, 61, 0
1, 65100, Note_on_c, 0, 46, 0
1, 65160, Note_on_c, 0, 45, 64
1, 65160, Note_on_c, 0, 33, 55
1, 65172, Tempo, 666667
1, 65175, Control_c, 0, 64, 0
1, 65206, Control_c, 0, 64, 127
1, 65220, Note_on_c, 0, 33, 0
1, 65220, Note_on_c, 0, 45, 0
1, 65220, Note_on_c, 0, 46, 64
1, 65220, Note_on_c, 0, 34, 55
1, 65264, Tempo, 662983
1, 65280, Note_on_c, 0, 34, 0
1, 65280, Note_on_c, 0, 46, 0
1, 65280, Note_on_c, 0, 48, 66
1, 65280, Note_on_c, 0, 36, 56
1, 65340, Note_on_c, 0, 36, 0
1, 65340, Note_on_c, 0, 48, 0
1, 65340, Note_on_c, 0, 49, 67
1, 65340, Note_on_c, 0, 37, 56
1, 65344, Tempo, 659341
1, 65400, Note_on_c, 0, 37, 0
1, 65400, Note_on_c, 0, 49, 0
1, 65400, Note_on_c, 0, 51, 67
1, 65400, Note_on_c, 0, 39, 56
1, 65424, Tempo, 655738
1, 65460, Note_on_c, 0, 39, 0
1, 65460, Note_on_c, 0, 51, 0
1, 65460, Note_on_c, 0, 53, 68
1, 65460, Note_on_c, 0, 41, 57
1, 65504, Tempo, 652174
1, 65520, Note_on_c, 0, 41, 0
1, 65520, Note_on_c, 0, 53, 0
1, 65520, Note_on_c, 0, 55, 69
1, 65520, Note_on_c, 0, 43, 58
1, 65580, Note_on_c, 0, 43, 0
1, 65580, Note_on_c, 0, 55, 0
1, 65580, Note_on_c, 0, 57, 69
1, 65580, Note_on_c, 0, 45, 58
1, 65584, Tempo, 648649
1, 65640, Note_on_c, 0, 45, 0
1, 65640, Note_on_c, 0, 57, 0
1, 65640, Note_on_c, 0, 58, 70
1, 65640, Note_on_c, 0, 46, 59
1, 65664, Tempo, 645161
1, 65700, Note_on_c, 0, 46, 0
1, 65700, Note_on_c, 0, 58, 0
1, 65700, Note_on_c, 0, 60, 71
1, 65700, Note_on_c, 0, 48, 60
1, 65744, Tempo, 641711
1, 65760, Note_on_c, 0, 48, 0
1, 65760, Note_on_c, 0, 60, 0
1, 65760, Note_on_c, 0, 61, 71
1, 65760, Note_on_c, 0, 49, 60
1, 65820, Note_on_c, 0, 49, 0
1, 65820, Note_on_c, 0, 61, 0
1, 65820, Note_on_c, 0, 63, 72
1, 65820, Note_on_c, 0, 51, 61
1, 65824, Tempo, 638298
1, 65880, Note_on_c, 0, 51, 0
1, 65880, Note_on_c, 0, 63, 0
1, 65880, Note_on_c, 0, 65, 73
1, 65880, Note_on_c, 0, 53, 61
1, 65904, Tempo, 634921
1, 65940, Note_on_c, 0, 53, 0
1, 65940, Note_on_c, 0, 65, 0
1, 65940, Note_on_c, 0, 67, 73
1, 65940, Note_on_c, 0, 55, 61
1, 65984, Tempo, 631579
1, 66000, Note_on_c, 0, 55, 0
1, 66000, Note_on_c, 0, 67, 0
1, 66000, Note_on_c, 0, 69, 74
1, 66000, Note_on_c, 0, 57, 62
1, 66060, Note_on_c, 0, 57, 0
1, 66060, Note_on_c, 0, 69, 0
1, 66060, Note_on_c, 0, 70, 74
1, 66060, Note_on_c, 0, 58, 62
1, 66064, Tempo, 628272
1, 66120, Note_on_c, 0, 58, 0
1, 66120, Note_on_c, 0, 70, 0
1, 66120, Note_on_c, 0, 72, 75
1, 66120, Note_on_c, 0, 60, 63
1, 66144, Tempo, 625000
1, 66180, Note_on_c, 0, 60, 0
1, 66180, Note_on_c, 0, 72, 0
1, 66180, Note_on_c, 0, 73, 77
1, 66180, Note_on_c, 0, 61, 64
1, 66224, Tempo, 621762
1, 66240, Note_on_c, 0, 61, 0
1, 66240, Note_on_c, 0, 73, 0
1, 66240, Note_on_c, 0, 75, 77
1, 66240, Note_on_c, 0, 63, 64
1, 66300, Note_on_c, 0, 63, 0
1, 66300, Note_on_c, 0, 75, 0
1, 66300, Note_on_c, 0, 77, 78
1, 66300, Note_on_c, 0, 65, 66
1, 66304, Tempo, 618557
1, 66360, Note_on_c, 0, 65, 0
1, 66360, Note_on_c, 0, 77, 0
1, 66360, Note_on_c, 0, 79, 77
1, 66360, Note_on_c, 0, 67, 67
1, 66384, Tempo, 615385
1, 66420, Note_on_c, 0, 67, 0
1, 66420, Note_on_c, 0, 79, 0
1, 66420, Note_on_c, 0, 81, 77
1, 66420, Note_on_c, 0, 69, 65
1, 66464, Tempo, 612245
1, 66480, Note_on_c, 0, 69, 0
1, 66480, Note_on_c, 0, 81, 0
1, 66480, Note_on_c, 0, 82, 78
1, 66480, Note_on_c, 0, 70, 66
1, 66540, Note_on_c, 0, 70, 0
1, 66540, Note_on_c, 0, 82, 0
1, 66540, Note_on_c, 0, 84, 79
1, 66540, Note_on_c, 0, 72, 67
1, 66544, Tempo, 609137
1, 66600, Note_on_c, 0, 72, 0
1, 66600, Note_on_c, 0, 84, 0
1, 66600, Note_on_c, 0, 85, 80
1, 66600, Note_on_c, 0, 73, 68
1, 66624, Tempo, 606061
1, 66660, Note_on_c, 0, 73, 0
1, 66660, Note_on_c, 0, 85, 0
1, 66660, Note_on_c, 0, 87, 80
1, 66660, Note_on_c, 0, 75, 69
1, 66704, Tempo, 603015
1, 66720, Note_on_c, 0, 75, 0
1, 66720, Note_on_c, 0, 87, 0
1, 66720, Note_on_c, 0, 89, 81
1, 66720, Note_on_c, 0, 77, 70
1, 66780, Note_on_c, 0, 77, 0
1, 66780, Note_on_c, 0, 89, 0
1, 66780, Note_on_c, 0, 91, 82
1, 66780, Note_on_c, 0, 79, 71
1, 66800, Tempo, 476190
1, 66870, Note_on_c, 0, 79, 0
1, 66870, Note_on_c, 0, 91, 0
1, 66870, Note_on_c, 0, 93, 83
1, 66870, Note_on_c, 0, 81, 72
1, 66930, Note_on_c, 0, 81, 0
1, 66960, Time_signature, 3, 2, 24, 8
1, 66960, Tempo, 705882
1, 66960, Note_on_c, 0, 93, 0
1, 66960, Note_on_c, 0, 94, 92
1, 66960, Note_on_c, 0, 82, 92
1, 66975, Control_c, 0, 64, 0
1, 67080, Note_on_c, 0, 82, 0
1, 67080, Note_on_c, 0, 94, 0
1, 67140, Note_on_c, 0, 96, 85
1, 67200, Tempo, 648649
1, 67200, Note_on_c, 0, 96, 0
1, 67200, Note_on_c, 0, 85, 77
1, 67200, Note_on_c, 0, 94, 91
1, 67200, Note_on_c, 0, 91, 91
1, 67200, Note_on_c, 0, 27, 68
1, 67200, Note_on_c, 0, 39, 80
1, 67211, Control_c, 0, 64, 127
1, 67320, Note_on_c, 0, 39, 0
1, 67320, Note_on_c, 0, 91, 0
1, 67320, Note_on_c, 0, 85, 0
1, 67320, Note_on_c, 0, 94, 0
1, 67320, Note_on_c, 0, 27, 0
1, 67320, Note_on_c, 0, 90, 85
1, 67320, Note_on_c, 0, 84, 72
1, 67320, Note_on_c, 0, 93, 85
1, 67440, Tempo, 705882
1, 67440, Note_on_c, 0, 93, 0
1, 67440, Note_on_c, 0, 84, 0
1, 67440, Note_on_c, 0, 90, 0
1, 67440, Note_on_c, 0, 85, 75
1, 67440, Note_on_c, 0, 91, 90
1, 67440, Note_on_c, 0, 94, 90
1, 67440, Note_on_c, 0, 51, 61
1, 67440, Note_on_c, 0, 63, 72
1, 67560, Note_on_c, 0, 63, 0
1, 67560, Note_on_c, 0, 51, 0
1, 67680, Tempo, 681818
1, 67680, Note_on_c, 0, 85, 0
1, 67680, Note_on_c, 0, 91, 0
1, 67680, Note_on_c, 0, 94, 0
1, 67680, Note_on_c, 0, 84, 72
1, 67680, Note_on_c, 0, 91, 85
1, 67680, Note_on_c, 0, 96, 85
1, 67680, Note_on_c, 0, 72, 67
1, 67680, Note_on_c, 0, 67, 67
1, 67680, Note_on_c, 0, 63, 67
1, 67680, Note_on_c, 0, 75, 79
1, 67691, Control_c, 0, 64, 0
1, 67920, Tempo, 677966
1, 67920, Note_on_c, 0, 75, 0
1, 67920, Note_on_c, 0, 67, 0
1, 67920, Note_on_c, 0, 91, 0
1, 67920, Note_on_c, 0, 96, 0
1, 67920, Note_on_c, 0, 84, 0
1, 67920, Note_on_c, 0, 63, 0
1, 67920, Note_on_c, 0, 72, 0
1, 67920, Note_on_c, 0, 80, 74
1, 67920, Note_on_c, 0, 84, 74
1, 67920, Note_on_c, 0, 92, 88
1, 67920, Note_on_c, 0, 77, 77
1, 67920, Note_on_c, 0, 72, 64
1, 67920, Note_on_c, 0, 65, 64
1, 68160, Tempo, 710059
1, 68160, Note_on_c, 0, 65, 0
1, 68160, Note_on_c, 0, 84, 0
1, 68160, Note_on_c, 0, 92, 0
1, 68160, Note_on_c, 0, 80, 0
1, 68160, Note_on_c, 0, 72, 0
1, 68160, Note_on_c, 0, 77, 0
1, 68160, Note_on_c, 0, 75, 72
1, 68160, Note_on_c, 0, 80, 72
1, 68160, Note_on_c, 0, 87, 85
1, 68160, Note_on_c, 0, 60, 61
1, 68160, Note_on_c, 0, 68, 61
1, 68160, Note_on_c, 0, 72, 72
1, 68400, Tempo, 805369
1, 68400, Note_on_c, 0, 72, 0
1, 68400, Note_on_c, 0, 80, 0
1, 68400, Note_on_c, 0, 87, 0
1, 68400, Note_on_c, 0, 75, 0
1, 68400, Note_on_c, 0, 68, 0
1, 68400, Note_on_c, 0, 60, 0
1, 68400, Note_on_c, 0, 77, 72
1, 68400, Note_on_c, 0, 80, 72
1, 68400, Note_on_c, 0, 89, 85
1, 68400, Note_on_c, 0, 61, 61
1, 68400, Note_on_c, 0, 68, 61
1, 68400, Note_on_c, 0, 73, 72
1, 68520, Note_on_c, 0, 73, 0
1, 68520, Note_on_c, 0, 80, 0
1, 68520, Note_on_c, 0, 89, 0
1, 68520, Note_on_c, 0, 77, 0
1, 68520, Note_on_c, 0, 68, 0
1, 68520, Note_on_c, 0, 61, 0
1, 68640, Tempo, 769231
1, 68640, Note_on_c, 0, 61, 67
1, 68640, Note_on_c, 0, 55, 56
1, 68640, Note_on_c, 0, 63, 67
1, 68640, Note_on_c, 0, 39, 58
1, 68640, Note_on_c, 0, 51, 69
1, 68661, Control_c, 0, 64, 127
1, 68820, Note_on_c, 0, 55, 0
1, 68820, Note_on_c, 0, 61, 0
1, 68820, Note_on_c, 0, 55, 56
1, 68820, Note_on_c, 0, 61, 67
1, 68874, Note_on_c, 0, 61, 0
1, 68874, Note_on_c, 0, 55, 0
1, 68880, Note_on_c, 0, 55, 61
1, 68880, Note_on_c, 0, 61, 72
1, 68880, Note_on_c, 0, 70, 72
1, 69120, Tempo, 816327
1, 69120, Note_on_c, 0, 51, 0
1, 69120, Note_on_c, 0, 39, 0
1, 69120, Note_on_c, 0, 63, 0
1, 69120, Note_on_c, 0, 27, 51
1, 69120, Note_on_c, 0, 39, 61
1, 69125, Control_c, 0, 64, 0
1, 69240, Note_on_c, 0, 39, 0
1, 69240, Note_on_c, 0, 27, 0
1, 69360, Note_on_c, 0, 70, 0
1, 69360, Note_on_c, 0, 61, 0
1, 69360, Note_on_c, 0, 55, 0
1, 69360, Note_on_c, 0, 56, 56
1, 69360, Note_on_c, 0, 60, 56
1, 69360, Note_on_c, 0, 68, 67
1, 69360, Note_on_c, 0, 32, 51
1, 69360, Note_on_c, 0, 44, 61
1, 69480, Note_on_c, 0, 44, 0
1, 69480, Note_on_c, 0, 68, 0
1, 69480, Note_on_c, 0, 56, 0
1, 69480, Note_on_c, 0, 60, 0
1, 69480, Note_on_c, 0, 32, 0
1, 69840, Note_on_c, 0, 72, 66
1, 69840, Note_on_c, 0, 84, 78
1, 69840, Note_on_c, 0, 24, 47
1, 69840, Note_on_c, 0, 36, 55
1, 69879, Control_c, 0, 64, 127
1, 69960, Note_on_c, 0, 36, 0
1, 69960, Note_on_c, 0, 72, 0
1, 69960, Note_on_c, 0, 84, 0
1, 69960, Note_on_c, 0, 24, 0
1, 70080, Tempo, 731707
1, 70080, Note_on_c, 0, 60, 42
1, 70080, Note_on_c, 0, 72, 51
1, 70080, Note_on_c, 0, 36, 34
1, 70080, Note_on_c, 0, 48, 41
1, 70200, Note_on_c, 0, 48, 0
1, 70200, Note_on_c, 0, 60, 0
1, 70200, Note_on_c, 0, 72, 0
1, 70200, Note_on_c, 0, 36, 0
1, 70260, Note_on_c, 0, 60, 40
1, 70260, Note_on_c, 0, 72, 47
1, 70260, Note_on_c, 0, 36, 33
1, 70260, Note_on_c, 0, 48, 39
1, 70270, Control_c, 0, 64, 0
1, 70320, Tempo, 769231
1, 70320, Note_on_c, 0, 48, 0
1, 70320, Note_on_c, 0, 60, 0
1, 70320, Note_on_c, 0, 72, 0
1, 70320, Note_on_c, 0, 36, 0
1, 70320, Note_on_c, 0, 61, 45
1, 70320, Note_on_c, 0, 72, 55
1, 70320, Note_on_c, 0, 40, 44
1, 70320, Note_on_c, 0, 49, 44
1, 70394, Control_c, 0, 64, 127
1, 70560, Tempo, 722892
1, 70560, Note_on_c, 0, 49, 0
1, 70560, Note_on_c, 0, 61, 0
1, 70560, Note_on_c, 0, 72, 0
1, 70560, Note_on_c, 0, 40, 0
1, 70560, Note_on_c, 0, 60, 41
1, 70560, Note_on_c, 0, 72, 51
1, 70560, Note_on_c, 0, 28, 35
1, 70560, Note_on_c, 0, 40, 42
1, 70680, Note_on_c, 0, 40, 0
1, 70680, Note_on_c, 0, 60, 0
1, 70680, Note_on_c, 0, 72, 0
1, 70680, Note_on_c, 0, 28, 0
1, 70740, Note_on_c, 0, 60, 39
1, 70740, Note_on_c, 0, 72, 47
1, 70740, Note_on_c, 0, 40, 36
1, 70740, Note_on_c, 0, 48, 44
1, 70752, Control_c, 0, 64, 0
1, 70800, Tempo, 759494
1, 70800, Note_on_c, 0, 48, 0
1, 70800, Note_on_c, 0, 60, 0
1, 70800, Note_on_c, 0, 72, 0
1, 70800, Note_on_c, 0, 40, 0
1, 70800, Note_on_c, 0, 63, 49
1, 70800, Note_on_c, 0, 72, 58
1, 70800, Note_on_c, 0, 41, 40
1, 70800, Note_on_c, 0, 51, 49
1, 70860, Control_c, 0, 64, 127
1, 71040, Tempo, 722892
1, 71040, Note_on_c, 0, 51, 0
1, 71040, Note_on_c, 0, 63, 0
1, 71040, Note_on_c, 0, 72, 0
1, 71040, Note_on_c, 0, 41, 0
1, 71040, Note_on_c, 0, 60, 46
1, 71040, Note_on_c, 0, 72, 55
1, 71040, Note_on_c, 0, 29, 39
1, 71040, Note_on_c, 0, 41, 47
1, 71160, Note_on_c, 0, 41, 0
1, 71160, Note_on_c, 0, 60, 0
1, 71160, Note_on_c, 0, 72, 0
1, 71160, Note_on_c, 0, 29, 0
1, 71220, Note_on_c, 0, 61, 44
1, 71220, Note_on_c, 0, 72, 52
1, 71220, Note_on_c, 0, 41, 37
1, 71220, Note_on_c, 0, 49, 45
1, 71230, Control_c, 0, 64, 0
1, 71280, Tempo, 759494
1, 71280, Note_on_c, 0, 49, 0
1, 71280, Note_on_c, 0, 61, 0
1, 71280, Note_on_c, 0, 72, 0
1, 71280, Note_on_c, 0, 41, 0
1, 71280, Note_on_c, 0, 65, 51
1, 71280, Note_on_c, 0, 72, 62
1, 71280, Note_on_c, 0, 43, 44
1, 71280, Note_on_c, 0, 53, 51
1, 71317, Control_c, 0, 64, 127
1, 71520, Tempo, 722892
1, 71520, Note_on_c, 0, 53, 0
1, 71520, Note_on_c, 0, 65, 0
1, 71520, Note_on_c, 0, 72, 0
1, 71520, Note_on_c, 0, 43, 0
1, 71520, Note_on_c, 0, 60, 49
1, 71520, Note_on_c, 0, 72, 58
1, 71520, Note_on_c, 0, 31, 39
1, 71520, Note_on_c, 0, 43, 48
1, 71640, Note_on_c, 0, 43, 0
1, 71640, Note_on_c, 0, 60, 0
1, 71640, Note_on_c, 0, 72, 0
1, 71640, Note_on_c, 0, 31, 0
1, 71700, Note_on_c, 0, 64, 47
1, 71700, Note_on_c, 0, 72, 55
1, 71700, Note_on_c, 0, 43, 39
1, 71700, Note_on_c, 0, 52, 45
1, 71712, Control_c, 0, 64, 0
1, 71760, Tempo, 754717
1, 71760, Note_on_c, 0, 52, 0
1, 71760, Note_on_c, 0, 64, 0
1, 71760, Note_on_c, 0, 72, 0
1, 71760, Note_on_c, 0, 43, 0
1, 71760, Note_on_c, 0, 67, 55
1, 71760, Note_on_c, 0, 72, 67
1, 71760, Note_on_c, 0, 44, 51
1, 71760, Note_on_c, 0, 55, 51
1, 71811, Control_c, 0, 64, 127
1, 72000, Tempo, 722892
1, 72000, Note_on_c, 0, 55, 0
1, 72000, Note_on_c, 0, 67, 0
1, 72000, Note_on_c, 0, 72, 0
1, 72000, Note_on_c, 0, 44, 0
1, 72000, Note_on_c, 0, 60, 51
1, 72000, Note_on_c, 0, 72, 61
1, 72000, Note_on_c, 0, 32, 42
1, 72000, Note_on_c, 0, 44, 51
1, 72120, Note_on_c, 0, 44, 0
1, 72120, Note_on_c, 0, 60, 0
1, 72120, Note_on_c, 0, 72, 0
1, 72120, Note_on_c, 0, 32, 0
1, 72180, Note_on_c, 0, 65, 48
1, 72180, Note_on_c, 0, 72, 56
1, 72180, Note_on_c, 0, 44, 43
1, 72180, Note_on_c, 0, 53, 51
1, 72191, Control_c, 0, 64, 0
1, 72240, Tempo, 754717
1, 72240, Note_on_c, 0, 53, 0
1, 72240, Note_on_c, 0, 65, 0
1, 72240, Note_on_c, 0, 72, 0
1, 72240, Note_on_c, 0, 44, 0
1, 72240, Note_on_c, 0, 68, 56
1, 72240, Note_on_c, 0, 72, 68
1, 72240, Note_on_c, 0, 44, 48
1, 72240, Note_on_c, 0, 56, 56
1, 72300, Control_c, 0, 64, 127
1, 72480, Tempo, 718563
1, 72480, Note_on_c, 0, 56, 0
1, 72480, Note_on_c, 0, 68, 0
1, 72480, Note_on_c, 0, 72, 0
1, 72480, Note_on_c, 0, 44, 0
1, 72480, Note_on_c, 0, 60, 55
1, 72480, Note_on_c, 0, 72, 66
1, 72480, Note_on_c, 0, 32, 47
1, 72480, Note_on_c, 0, 44, 56
1, 72600, Note_on_c, 0, 44, 0
1, 72600, Note_on_c, 0, 60, 0
1, 72600, Note_on_c, 0, 72, 0
1, 72600, Note_on_c, 0, 32, 0
1, 72660, Note_on_c, 0, 66, 51
1, 72660, Note_on_c, 0, 72, 61
1, 72660, Note_on_c, 0, 44, 45
1, 72660, Note_on_c, 0, 54, 52
1, 72671, Control_c, 0, 64, 0
1, 72720, Tempo, 810811
1, 72720, Note_on_c, 0, 54, 0
1, 72720, Note_on_c, 0, 66, 0
1, 72720, Note_on_c, 0, 72, 0
1, 72720, Note_on_c, 0, 44, 0
1, 72720, Note_on_c, 0, 67, 55
1, 72720, Note_on_c, 0, 72, 68
1, 72720, Note_on_c, 0, 64, 55
1, 72720, Note_on_c, 0, 76, 68
1, 72720, Note_on_c, 0, 43, 46
1, 72720, Note_on_c, 0, 55, 55
1, 72801, Control_c, 0, 64, 127
1, 72960, Tempo, 693642
1, 72960, Note_on_c, 0, 55, 0
1, 72960, Note_on_c, 0, 72, 0
1, 72960, Note_on_c, 0, 64, 0
1, 72960, Note_on_c, 0, 67, 0
1, 72960, Note_on_c, 0, 43, 0
1, 72960, Note_on_c, 0, 76, 0
1, 72960, Note_on_c, 0, 84, 71
1, 72960, Note_on_c, 0, 88, 71
1, 72960, Note_on_c, 0, 76, 71
1, 72960, Note_on_c, 0, 55, 52
1, 72960, Note_on_c, 0, 67, 52
1, 73020, Note_on_c, 0, 67, 0
1, 73020, Note_on_c, 0, 55, 0
1, 73080, Tempo, 784314
1, 73080, Note_on_c, 0, 55, 54
1, 73080, Note_on_c, 0, 67, 54
1, 73140, Note_on_c, 0, 67, 0
1, 73140, Note_on_c, 0, 55, 0
1, 73200, Tempo, 689655
1, 73200, Note_on_c, 0, 57, 60
1, 73200, Note_on_c, 0, 69, 60
1, 73214, Control_c, 0, 64, 0
1, 73320, Note_on_c, 0, 69, 0
1, 73320, Note_on_c, 0, 57, 0
1, 73320, Note_on_c, 0, 55, 56
1, 73320, Note_on_c, 0, 67, 56
1, 73440, Tempo, 674157
1, 73440, Note_on_c, 0, 67, 0
1, 73440, Note_on_c, 0, 84, 0
1, 73440, Note_on_c, 0, 76, 0
1, 73440, Note_on_c, 0, 88, 0
1, 73440, Note_on_c, 0, 55, 0
1, 73440, Note_on_c, 0, 74, 66
1, 73440, Note_on_c, 0, 83, 66
1, 73440, Note_on_c, 0, 86, 66
1, 73440, Note_on_c, 0, 55, 56
1, 73440, Note_on_c, 0, 67, 56
1, 73465, Control_c, 0, 64, 127
1, 73500, Note_on_c, 0, 67, 0
1, 73500, Note_on_c, 0, 55, 0
1, 73560, Tempo, 710059
1, 73560, Note_on_c, 0, 74, 0
1, 73560, Note_on_c, 0, 83, 0
1, 73560, Note_on_c, 0, 86, 0
1, 73560, Note_on_c, 0, 76, 69
1, 73560, Note_on_c, 0, 84, 69
1, 73560, Note_on_c, 0, 88, 69
1, 73560, Note_on_c, 0, 55, 56
1, 73560, Note_on_c, 0, 67, 56
1, 73620, Note_on_c, 0, 67, 0
1, 73620, Note_on_c, 0, 55, 0
1, 73680, Tempo, 670391
1, 73680, Note_on_c, 0, 76, 0
1, 73680, Note_on_c, 0, 84, 0
1, 73680, Note_on_c, 0, 88, 0
1, 73680, Note_on_c, 0, 89, 71
1, 73680, Note_on_c, 0, 86, 71
1, 73680, Note_on_c, 0, 77, 71
1, 73680, Note_on_c, 0, 55, 65
1, 73680, Note_on_c, 0, 67, 65
1, 73800, Note_on_c, 0, 67, 0
1, 73800, Note_on_c, 0, 55, 0
1, 73920, Note_on_c, 0, 89, 0
1, 73920, Note_on_c, 0, 86, 0
1, 73920, Note_on_c, 0, 77, 0
1, 73920, Note_on_c, 0, 76, 71
1, 73920, Note_on_c, 0, 79, 71
1, 73920, Note_on_c, 0, 88, 71
1, 73920, Note_on_c, 0, 62, 53
1, 73920, Note_on_c, 0, 65, 53
1, 73920, Note_on_c, 0, 67, 53
1, 73920, Note_on_c, 0, 71, 53
1, 73927, Control_c, 0, 64, 0
1, 74008, Control_c, 0, 64, 127
1, 74100, Note_on_c, 0, 88, 0
1, 74100, Note_on_c, 0, 76, 0
1, 74100, Note_on_c, 0, 79, 0
1, 74100, Note_on_c, 0, 74, 68
1, 74100, Note_on_c, 0, 86, 68
1, 74160, Note_on_c, 0, 86, 0
1, 74160, Note_on_c, 0, 67, 0
1, 74160, Note_on_c, 0, 71, 0
1, 74160, Note_on_c, 0, 62, 0
1, 74160, Note_on_c, 0, 74, 0
1, 74160, Note_on_c, 0, 65, 0
1, 74160, Note_on_c, 0, 76, 68
1, 74160, Note_on_c, 0, 84, 68
1, 74160, Note_on_c, 0, 88, 68
1, 74160, Note_on_c, 0, 60, 49
1, 74160, Note_on_c, 0, 67, 49
1, 74160, Note_on_c, 0, 72, 49
1, 74165, Control_c, 0, 64, 0
1, 74234, Control_c, 0, 64, 127
1, 74400, Tempo, 662983
1, 74400, Note_on_c, 0, 72, 0
1, 74400, Note_on_c, 0, 84, 0
1, 74400, Note_on_c, 0, 88, 0
1, 74400, Note_on_c, 0, 76, 0
1, 74400, Note_on_c, 0, 67, 0
1, 74400, Note_on_c, 0, 60, 0
1, 74400, Note_on_c, 0, 60, 59
1, 74400, Note_on_c, 0, 48, 50
1, 74460, Note_on_c, 0, 48, 0
1, 74460, Note_on_c, 0, 60, 0
1, 74460, Note_on_c, 0, 64, 61
1, 74460, Note_on_c, 0, 52, 51
1, 74520, Note_on_c, 0, 52, 0
1, 74520, Note_on_c, 0, 64, 0
1, 74520, Note_on_c, 0, 67, 62
1, 74520, Note_on_c, 0, 55, 52
1, 74560, Tempo, 659341
1, 74580, Note_on_c, 0, 55, 0
1, 74580, Note_on_c, 0, 67, 0
1, 74580, Note_on_c, 0, 71, 63
1, 74580, Note_on_c, 0, 59, 53
1, 74640, Note_on_c, 0, 59, 0
1, 74640, Note_on_c, 0, 71, 0
1, 74640, Note_on_c, 0, 72, 64
1, 74640, Note_on_c, 0, 60, 54
1, 74680, Tempo, 655738
1, 74700, Note_on_c, 0, 60, 0
1, 74700, Note_on_c, 0, 72, 0
1, 74700, Note_on_c, 0, 76, 66
1, 74700, Note_on_c, 0, 64, 56
1, 74760, Note_on_c, 0, 64, 0
1, 74760, Note_on_c, 0, 76, 0
1, 74760, Note_on_c, 0, 79, 68
1, 74760, Note_on_c, 0, 67, 57
1, 74820, Note_on_c, 0, 67, 0
1, 74820, Note_on_c, 0, 79, 0
1, 74820, Note_on_c, 0, 83, 68
1, 74820, Note_on_c, 0, 71, 57
1, 74840, Tempo, 652174
1, 74880, Note_on_c, 0, 71, 0
1, 74880, Note_on_c, 0, 83, 0
1, 74880, Note_on_c, 0, 84, 70
1, 74880, Note_on_c, 0, 72, 62
1, 74940, Note_on_c, 0, 84, 0
1, 74940, Note_on_c, 0, 88, 72
1, 74960, Tempo, 648649
1, 75000, Note_on_c, 0, 88, 0
1, 75000, Note_on_c, 0, 72, 0
1, 75000, Note_on_c, 0, 91, 73
1, 75000, Note_on_c, 0, 60, 56
1, 75060, Note_on_c, 0, 91, 0
1, 75060, Note_on_c, 0, 96, 74
1, 75080, Tempo, 645161
1, 75120, Tempo, 693642
1, 75120, Note_on_c, 0, 96, 0
1, 75120, Note_on_c, 0, 60, 0
1, 75120, Note_on_c, 0, 85, 63
1, 75120, Note_on_c, 0, 97, 75
1, 75120, Note_on_c, 0, 61, 49
1, 75120, Note_on_c, 0, 73, 58
1, 75134, Control_c, 0, 64, 0
1, 75160, Tempo, 689655
1, 75194, Control_c, 0, 64, 127
1, 75200, Tempo, 693642
1, 75240, Tempo, 701754
1, 75280, Tempo, 705882
1, 75320, Tempo, 714286
1, 75360, Tempo, 722892
1, 75360, Note_on_c, 0, 73, 0
1, 75360, Note_on_c, 0, 85, 0
1, 75360, Note_on_c, 0, 97, 0
1, 75360, Note_on_c, 0, 61, 0
1, 75360, Note_on_c, 0, 86, 67
1, 75360, Note_on_c, 0, 98, 79
1, 75360, Note_on_c, 0, 62, 52
1, 75360, Note_on_c, 0, 74, 62
1, 75371, Control_c, 0, 64, 0
1, 75400, Tempo, 727273
1, 75409, Control_c, 0, 64, 127
1, 75440, Tempo, 736196
1, 75480, Tempo, 745342
1, 75520, Tempo, 750000
1, 75560, Tempo, 759494
1, 75600, Tempo, 839161
1, 75600, Note_on_c, 0, 74, 0
1, 75600, Note_on_c, 0, 86, 0
1, 75600, Note_on_c, 0, 98, 0
1, 75600, Note_on_c, 0, 62, 0
1, 75600, Note_on_c, 0, 87, 69
1, 75600, Note_on_c, 0, 99, 82
1, 75600, Note_on_c, 0, 63, 55
1, 75600, Note_on_c, 0, 75, 65
1, 75603, Control_c, 0, 64, 0
1, 75667, Control_c, 0, 64, 127
1, 75720, Note_on_c, 0, 75, 0
1, 75720, Note_on_c, 0, 87, 0
1, 75720, Note_on_c, 0, 99, 0
1, 75720, Note_on_c, 0, 63, 0
1, 75840, Tempo, 731707
1, 75840, Note_on_c, 0, 63, 42
1, 75840, Note_on_c, 0, 75, 51
1, 75840, Note_on_c, 0, 39, 34
1, 75840, Note_on_c, 0, 51, 41
1, 75960, Note_on_c, 0, 51, 0
1, 75960, Note_on_c, 0, 63, 0
1, 75960, Note_on_c, 0, 75, 0
1, 75960, Note_on_c, 0, 39, 0
1, 76020, Note_on_c, 0, 63, 40
1, 76020, Note_on_c, 0, 75, 47
1, 76020, Note_on_c, 0, 39, 33
1, 76020, Note_on_c, 0, 51, 39
1, 76031, Control_c, 0, 64, 0
1, 76080, Tempo, 769231
1, 76080, Note_on_c, 0, 51, 0
1, 76080, Note_on_c, 0, 63, 0
1, 76080, Note_on_c, 0, 75, 0
1, 76080, Note_on_c, 0, 39, 0
1, 76080, Note_on_c, 0, 64, 45
1, 76080, Note_on_c, 0, 75, 55
1, 76080, Note_on_c, 0, 43, 44
1, 76080, Note_on_c, 0, 52, 44
1, 76147, Control_c, 0, 64, 127
1, 76320, Tempo, 722892
1, 76320, Note_on_c, 0, 52, 0
1, 76320, Note_on_c, 0, 64, 0
1, 76320, Note_on_c, 0, 75, 0
1, 76320, Note_on_c, 0, 43, 0
1, 76320, Note_on_c, 0, 63, 41
1, 76320, Note_on_c, 0, 75, 51
1, 76320, Note_on_c, 0, 31, 35
1, 76320, Note_on_c, 0, 43, 42
1, 76440, Note_on_c, 0, 43, 0
1, 76440, Note_on_c, 0, 63, 0
1, 76440, Note_on_c, 0, 75, 0
1, 76440, Note_on_c, 0, 31, 0
1, 76500, Note_on_c, 0, 63, 39
1, 76500, Note_on_c, 0, 75, 47
1, 76500, Note_on_c, 0, 43, 36
1, 76500, Note_on_c, 0, 51, 44
1, 76513, Control_c, 0, 64, 0
1, 76560, Tempo, 759494
1, 76560, Note_on_c, 0, 51, 0
1, 76560, Note_on_c, 0, 63, 0
1, 76560, Note_on_c, 0, 75, 0
1, 76560, Note_on_c, 0, 43, 0
1, 76560, Note_on_c, 0, 66, 49
1, 76560, Note_on_c, 0, 75, 58
1, 76560, Note_on_c, 0, 44, 40
1, 76560, Note_on_c, 0, 54, 49
1, 76620, Control_c, 0, 64, 127
1, 76800, Tempo, 722892
1, 76800, Note_on_c, 0, 54, 0
1, 76800, Note_on_c, 0, 66, 0
1, 76800, Note_on_c, 0, 75, 0
1, 76800, Note_on_c, 0, 44, 0
1, 76800, Note_on_c, 0, 63, 46
1, 76800, Note_on_c, 0, 75, 55
1, 76800, Note_on_c, 0, 32, 39
1, 76800, Note_on_c, 0, 44, 47
1, 76920, Note_on_c, 0, 44, 0
1, 76920, Note_on_c, 0, 63, 0
1, 76920, Note_on_c, 0, 75, 0
1, 76920, Note_on_c, 0, 32, 0
1, 76980, Note_on_c, 0, 64, 44
1, 76980, Note_on_c, 0, 75, 52
1, 76980, Note_on_c, 0, 44, 37
1, 76980, Note_on_c, 0, 52, 45
1, 76991, Control_c, 0, 64, 0
1, 77040, Tempo, 759494
1, 77040, Note_on_c, 0, 52, 0
1, 77040, Note_on_c, 0, 64, 0
1, 77040, Note_on_c, 0, 75, 0
1, 77040, Note_on_c, 0, 44, 0
1, 77040, Note_on_c, 0, 68, 51
1, 77040, Note_on_c, 0, 75, 62
1, 77040, Note_on_c, 0, 46, 44
1, 77040, Note_on_c, 0, 56, 51
1, 77077, Control_c, 0, 64, 127
1, 77280, Tempo, 722892
1, 77280, Note_on_c, 0, 56, 0
1, 77280, Note_on_c, 0, 68, 0
1, 77280, Note_on_c, 0, 75, 0
1, 77280, Note_on_c, 0, 46, 0
1, 77280, Note_on_c, 0, 63, 49
1, 77280, Note_on_c, 0, 75, 58
1, 77280, Note_on_c, 0, 34, 39
1, 77280, Note_on_c, 0, 46, 48
1, 77400, Note_on_c, 0, 46, 0
1, 77400, Note_on_c, 0, 63, 0
1, 77400, Note_on_c, 0, 75, 0
1, 77400, Note_on_c, 0, 34, 0
1, 77460, Note_on_c, 0, 67, 47
1, 77460, Note_on_c, 0, 75, 55
1, 77460, Note_on_c, 0, 46, 38
1, 77460, Note_on_c, 0, 55, 45
1, 77470, Control_c, 0, 64, 0
1, 77520, Tempo, 754717
1, 77520, Note_on_c, 0, 55, 0
1, 77520, Note_on_c, 0, 67, 0
1, 77520, Note_on_c, 0, 75, 0
1, 77520, Note_on_c, 0, 46, 0
1, 77520, Note_on_c, 0, 70, 55
1, 77520, Note_on_c, 0, 75, 67
1, 77520, Note_on_c, 0, 47, 51
1, 77520, Note_on_c, 0, 58, 51
1, 77583, Control_c, 0, 64, 127
1, 77760, Tempo, 722892
1, 77760, Note_on_c, 0, 58, 0
1, 77760, Note_on_c, 0, 70, 0
1, 77760, Note_on_c, 0, 75, 0
1, 77760, Note_on_c, 0, 47, 0
1, 77760, Note_on_c, 0, 63, 51
1, 77760, Note_on_c, 0, 75, 61
1, 77760, Note_on_c, 0, 35, 42
1, 77760, Note_on_c, 0, 47, 51
1, 77880, Note_on_c, 0, 47, 0
1, 77880, Note_on_c, 0, 63, 0
1, 77880, Note_on_c, 0, 75, 0
1, 77880, Note_on_c, 0, 35, 0
1, 77940, Note_on_c, 0, 68, 48
1, 77940, Note_on_c, 0, 75, 56
1, 77940, Note_on_c, 0, 47, 43
1, 77940, Note_on_c, 0, 56, 51
1, 77954, Control_c, 0, 64, 0
1, 78000, Tempo, 754717
1, 78000, Note_on_c, 0, 56, 0
1, 78000, Note_on_c, 0, 68, 0
1, 78000, Note_on_c, 0, 75, 0
1, 78000, Note_on_c, 0, 47, 0
1, 78000, Note_on_c, 0, 71, 56
1, 78000, Note_on_c, 0, 75, 68
1, 78000, Note_on_c, 0, 47, 48
1, 78000, Note_on_c, 0, 59, 56
1, 78060, Control_c, 0, 64, 127
1, 78240, Tempo, 718563
1, 78240, Note_on_c, 0, 59, 0
1, 78240, Note_on_c, 0, 71, 0
1, 78240, Note_on_c, 0, 75, 0
1, 78240, Note_on_c, 0, 47, 0
1, 78240, Note_on_c, 0, 63, 55
1, 78240, Note_on_c, 0, 75, 66
1, 78240, Note_on_c, 0, 35, 47
1, 78240, Note_on_c, 0, 47, 56
1, 78360, Note_on_c, 0, 47, 0
1, 78360, Note_on_c, 0, 63, 0
1, 78360, Note_on_c, 0, 75, 0
1, 78360, Note_on_c, 0, 35, 0
1, 78420, Note_on_c, 0, 69, 51
1, 78420, Note_on_c, 0, 75, 61
1, 78420, Note_on_c, 0, 47, 45
1, 78420, Note_on_c, 0, 57, 52
1, 78427, Control_c, 0, 64, 0
1, 78480, Tempo, 810811
1, 78480, Note_on_c, 0, 57, 0
1, 78480, Note_on_c, 0, 69, 0
1, 78480, Note_on_c, 0, 75, 0
1, 78480, Note_on_c, 0, 47, 0
1, 78480, Note_on_c, 0, 70, 55
1, 78480, Note_on_c, 0, 75, 68
1, 78480, Note_on_c, 0, 67, 55
1, 78480, Note_on_c, 0, 79, 68
1, 78480, Note_on_c, 0, 46, 46
1, 78480, Note_on_c, 0, 58, 55
1, 78561, Control_c, 0, 64, 127
1, 78720, Tempo, 693642
1, 78720, Note_on_c, 0, 58, 0
1, 78720, Note_on_c, 0, 75, 0
1, 78720, Note_on_c, 0, 67, 0
1, 78720, Note_on_c, 0, 70, 0
1, 78720, Note_on_c, 0, 46, 0
1, 78720, Note_on_c, 0, 79, 0
1, 78720, Note_on_c, 0, 87, 71
1, 78720, Note_on_c, 0, 91, 71
1, 78720, Note_on_c, 0, 79, 71
1, 78720, Note_on_c, 0, 58, 52
1, 78720, Note_on_c, 0, 70, 52
1, 78780, Note_on_c, 0, 70, 0
1, 78780, Note_on_c, 0, 58, 0
1, 78840, Tempo, 784314
1, 78840, Note_on_c, 0, 58, 54
1, 78840, Note_on_c, 0, 70, 54
1, 78900, Note_on_c, 0, 70, 0
1, 78900, Note_on_c, 0, 58, 0
1, 78960, Tempo, 689655
1, 78960, Note_on_c, 0, 60, 60
1, 78960, Note_on_c, 0, 72, 60
1, 78965, Control_c, 0, 64, 0
1, 79080, Note_on_c, 0, 72, 0
1, 79080, Note_on_c, 0, 60, 0
1, 79080, Note_on_c, 0, 58, 56
1, 79080, Note_on_c, 0, 70, 56
1, 79200, Tempo, 674157
1, 79200, Note_on_c, 0, 70, 0
1, 79200, Note_on_c, 0, 87, 0
1, 79200, Note_on_c, 0, 79, 0
1, 79200, Note_on_c, 0, 91, 0
1, 79200, Note_on_c, 0, 58, 0
1, 79200, Note_on_c, 0, 78, 66
1, 79200, Note_on_c, 0, 86, 66
1, 79200, Note_on_c, 0, 90, 66
1, 79200, Note_on_c, 0, 58, 56
1, 79200, Note_on_c, 0, 70, 56
1, 79246, Control_c, 0, 64, 127
1, 79260, Note_on_c, 0, 70, 0
1, 79260, Note_on_c, 0, 58, 0
1, 79320, Tempo, 710059
1, 79320, Note_on_c, 0, 78, 0
1, 79320, Note_on_c, 0, 86, 0
1, 79320, Note_on_c, 0, 90, 0
1, 79320, Note_on_c, 0, 79, 69
1, 79320, Note_on_c, 0, 87, 69
1, 79320, Note_on_c, 0, 91, 69
1, 79320, Note_on_c, 0, 58, 56
1, 79320, Note_on_c, 0, 70, 56
1, 79380, Note_on_c, 0, 70, 0
1, 79380, Note_on_c, 0, 58, 0
1, 79440, Tempo, 670391
1, 79440, Note_on_c, 0, 79, 0
1, 79440, Note_on_c, 0, 87, 0
1, 79440, Note_on_c, 0, 91, 0
1, 79440, Note_on_c, 0, 92, 71
1, 79440, Note_on_c, 0, 86, 71
1, 79440, Note_on_c, 0, 80, 71
1, 79440, Note_on_c, 0, 58, 65
1, 79440, Note_on_c, 0, 70, 65
1, 79560, Note_on_c, 0, 70, 0
1, 79560, Note_on_c, 0, 58, 0
1, 79590, Note_on_c, 0, 58, 53
1, 79620, Note_on_c, 0, 65, 53
1, 79623, Control_c, 0, 64, 0
1, 79650, Note_on_c, 0, 68, 53
1, 79680, Tempo, 689655
1, 79680, Note_on_c, 0, 92, 0
1, 79680, Note_on_c, 0, 80, 0
1, 79680, Note_on_c, 0, 86, 0
1, 79680, Note_on_c, 0, 79, 71
1, 79680, Note_on_c, 0, 86, 71
1, 79680, Note_on_c, 0, 91, 71
1, 79680, Note_on_c, 0, 74, 53
1, 79715, Control_c, 0, 64, 127
1, 79860, Note_on_c, 0, 91, 0
1, 79860, Note_on_c, 0, 79, 0
1, 79860, Note_on_c, 0, 86, 0
1, 79860, Note_on_c, 0, 77, 68
1, 79860, Note_on_c, 0, 89, 68
1, 79920, Tempo, 714286
1, 79920, Note_on_c, 0, 89, 0
1, 79920, Note_on_c, 0, 65, 0
1, 79920, Note_on_c, 0, 74, 0
1, 79920, Note_on_c, 0, 68, 0
1, 79920, Note_on_c, 0, 77, 0
1, 79920, Note_on_c, 0, 58, 0
1, 79920, Note_on_c, 0, 79, 68
1, 79920, Note_on_c, 0, 87, 68
1, 79920, Note_on_c, 0, 91, 68
1, 79920, Note_on_c, 0, 63, 49
1, 79920, Note_on_c, 0, 67, 49
1, 79920, Note_on_c, 0, 75, 49
1, 79927, Control_c, 0, 64, 0
1, 80160, Tempo, 714286
1, 80160, Note_on_c, 0, 75, 0
1, 80160, Note_on_c, 0, 87, 0
1, 80160, Note_on_c, 0, 91, 0
1, 80160, Note_on_c, 0, 79, 0
1, 80160, Note_on_c, 0, 67, 0
1, 80160, Note_on_c, 0, 63, 0
1, 80160, Note_on_c, 0, 68, 56
1, 80160, Note_on_c, 0, 79, 67
1, 80160, Note_on_c, 0, 51, 40
1, 80160, Note_on_c, 0, 59, 40
1, 80160, Note_on_c, 0, 63, 48
1, 80213, Control_c, 0, 64, 127
1, 80340, Note_on_c, 0, 79, 0
1, 80340, Note_on_c, 0, 77, 63
1, 80400, Note_on_c, 0, 77, 0
1, 80400, Note_on_c, 0, 63, 0
1, 80400, Note_on_c, 0, 68, 0
1, 80400, Note_on_c, 0, 51, 0
1, 80400, Note_on_c, 0, 59, 0
1, 80400, Note_on_c, 0, 67, 50
1, 80400, Note_on_c, 0, 75, 59
1, 80400, Note_on_c, 0, 51, 38
1, 80400, Note_on_c, 0, 58, 38
1, 80400, Note_on_c, 0, 63, 45
1, 80419, Control_c, 0, 64, 0
1, 80496, Control_c, 0, 64, 127
1, 80640, Note_on_c, 0, 63, 0
1, 80640, Note_on_c, 0, 51, 0
1, 80640, Note_on_c, 0, 67, 0
1, 80640, Note_on_c, 0, 75, 0
1, 80640, Note_on_c, 0, 58, 0
1, 80640, Note_on_c, 0, 56, 56
1, 80640, Note_on_c, 0, 67, 67
1, 80640, Note_on_c, 0, 39, 40
1, 80640, Note_on_c, 0, 47, 40
1, 80640, Note_on_c, 0, 51, 48
1, 80654, Control_c, 0, 64, 0
1, 80700, Control_c, 0, 64, 127
1, 80820, Note_on_c, 0, 67, 0
1, 80820, Note_on_c, 0, 65, 63
1, 80880, Tempo, 774194
1, 80880, Note_on_c, 0, 65, 0
1, 80880, Note_on_c, 0, 51, 0
1, 80880, Note_on_c, 0, 56, 0
1, 80880, Note_on_c, 0, 39, 0
1, 80880, Note_on_c, 0, 47, 0
1, 80880, Note_on_c, 0, 55, 50
1, 80880, Note_on_c, 0, 63, 59
1, 80880, Note_on_c, 0, 39, 38
1, 80880, Note_on_c, 0, 46, 38
1, 80880, Note_on_c, 0, 51, 45
1, 80898, Control_c, 0, 64, 0
1, 80968, Control_c, 0, 64, 127
1, 81120, Note_on_c, 0, 51, 0
1, 81120, Note_on_c, 0, 39, 0
1, 81120, Note_on_c, 0, 55, 0
1, 81120, Note_on_c, 0, 63, 0
1, 81120, Note_on_c, 0, 46, 0
1, 81120, Note_on_c, 0, 27, 45
1, 81120, Note_on_c, 0, 39, 45
1, 81240, Note_on_c, 0, 39, 0
1, 81240, Note_on_c, 0, 27, 0
1, 81293, Control_c, 0, 64, 0
1, 81360, Note_on_c, 0, 65, 68
1, 81360, Note_on_c, 0, 25, 49
1, 81360, Note_on_c, 0, 37, 58
1, 81436, Control_c, 0, 64, 127
1, 81480, Note_on_c, 0, 37, 0
1, 81480, Note_on_c, 0, 25, 0
1, 81600, Tempo, 681973
1, 81600, Note_on_c, 0, 53, 38
1, 81600, Note_on_c, 0, 55, 45
1, 81690, Note_on_c, 0, 55, 0
1, 81690, Note_on_c, 0, 53, 0
1, 81720, Tempo, 779423
1, 81720, Note_on_c, 0, 53, 39
1, 81720, Note_on_c, 0, 55, 47
1, 81810, Note_on_c, 0, 55, 0
1, 81810, Note_on_c, 0, 53, 0
1, 81840, Tempo, 722892
1, 81840, Note_on_c, 0, 53, 41
1, 81840, Note_on_c, 0, 55, 49
1, 82020, Note_on_c, 0, 55, 0
1, 82020, Note_on_c, 0, 53, 0
1, 82080, Tempo, 740741
1, 82080, Note_on_c, 0, 53, 38
1, 82080, Note_on_c, 0, 55, 45
1, 82260, Note_on_c, 0, 55, 0
1, 82260, Note_on_c, 0, 53, 0
1, 82320, Tempo, 754717
1, 82320, Note_on_c, 0, 65, 0
1, 82320, Note_on_c, 0, 58, 63
1, 82320, Note_on_c, 0, 53, 38
1, 82320, Note_on_c, 0, 55, 45
1, 82500, Note_on_c, 0, 55, 0
1, 82500, Note_on_c, 0, 53, 0
1, 82560, Note_on_c, 0, 53, 38
1, 82560, Note_on_c, 0, 55, 45
1, 82740, Note_on_c, 0, 55, 0
1, 82740, Note_on_c, 0, 53, 0
1, 82800, Tempo, 740741
1, 82800, Note_on_c, 0, 58, 0
1, 82800, Note_on_c, 0, 60, 67
1, 82800, Note_on_c, 0, 36, 45
1, 82800, Note_on_c, 0, 48, 53
1, 82803, Control_c, 0, 64, 0
1, 82838, Control_c, 0, 64, 127
1, 83040, Tempo, 674309
1, 83040, Note_on_c, 0, 36, 0
1, 83040, Note_on_c, 0, 52, 39
1, 83040, Note_on_c, 0, 55, 47
1, 83130, Note_on_c, 0, 55, 0
1, 83130, Note_on_c, 0, 52, 0
1, 83160, Tempo, 731886
1, 83160, Note_on_c, 0, 52, 39
1, 83160, Note_on_c, 0, 55, 47
1, 83250, Note_on_c, 0, 55, 0
1, 83250, Note_on_c, 0, 52, 0
1, 83280, Tempo, 718735
1, 83280, Note_on_c, 0, 52, 42
1, 83280, Note_on_c, 0, 55, 50
1, 83460, Note_on_c, 0, 55, 0
1, 83460, Note_on_c, 0, 52, 0
1, 83520, Note_on_c, 0, 60, 0
1, 83520, Note_on_c, 0, 60, 64
1, 83520, Note_on_c, 0, 52, 38
1, 83520, Note_on_c, 0, 55, 45
1, 83533, Control_c, 0, 64, 0
1, 83700, Note_on_c, 0, 55, 0
1, 83700, Note_on_c, 0, 52, 0
1, 83700, Note_on_c, 0, 60, 0
1, 83700, Note_on_c, 0, 61, 62
1, 83760, Tempo, 750000
1, 83760, Note_on_c, 0, 61, 0
1, 83760, Note_on_c, 0, 48, 0
1, 83760, Note_on_c, 0, 61, 53
1, 83760, Note_on_c, 0, 34, 46
1, 83760, Note_on_c, 0, 46, 55
1, 83780, Tempo, 745342
1, 83795, Control_c, 0, 64, 127
1, 83800, Tempo, 740741
1, 83820, Tempo, 736196
1, 83820, Note_on_c, 0, 61, 0
1, 83820, Note_on_c, 0, 63, 54
1, 83840, Tempo, 731707
1, 83860, Tempo, 727273
1, 83880, Tempo, 718563
1, 83880, Note_on_c, 0, 63, 0
1, 83880, Note_on_c, 0, 61, 56
1, 83900, Tempo, 714286
1, 83920, Tempo, 710059
1, 83940, Tempo, 705882
1, 83940, Note_on_c, 0, 61, 0
1, 83940, Note_on_c, 0, 63, 56
1, 83960, Tempo, 701754
1, 83980, Tempo, 693642
1, 84000, Note_on_c, 0, 63, 0
1, 84000, Note_on_c, 0, 46, 0
1, 84000, Note_on_c, 0, 34, 0
1, 84000, Note_on_c, 0, 61, 57
1, 84000, Note_on_c, 0, 55, 45
1, 84000, Note_on_c, 0, 53, 38
1, 84020, Tempo, 697674
1, 84048, Note_on_c, 0, 61, 0
1, 84048, Note_on_c, 0, 63, 57
1, 84060, Tempo, 701754
1, 84096, Note_on_c, 0, 63, 0
1, 84096, Note_on_c, 0, 61, 56
1, 84100, Tempo, 705882
1, 84140, Tempo, 710059
1, 84144, Note_on_c, 0, 61, 0
1, 84144, Note_on_c, 0, 60, 56
1, 84180, Tempo, 714286
1, 84192, Note_on_c, 0, 60, 0
1, 84192, Note_on_c, 0, 61, 55
1, 84220, Tempo, 718563
1, 84240, Tempo, 722892
1, 84240, Note_on_c, 0, 61, 0
1, 84240, Note_on_c, 0, 53, 0
1, 84240, Note_on_c, 0, 55, 0
1, 84240, Note_on_c, 0, 60, 67
1, 84240, Note_on_c, 0, 36, 45
1, 84240, Note_on_c, 0, 48, 53
1, 84243, Control_c, 0, 64, 0
1, 84360, Control_c, 0, 64, 127
1, 84480, Tempo, 670541
1, 84480, Note_on_c, 0, 36, 0
1, 84480, Note_on_c, 0, 52, 39
1, 84480, Note_on_c, 0, 55, 47
1, 84570, Note_on_c, 0, 55, 0
1, 84570, Note_on_c, 0, 52, 0
1, 84600, Tempo, 693802
1, 84600, Note_on_c, 0, 52, 39
1, 84600, Note_on_c, 0, 55, 47
1, 84690, Note_on_c, 0, 55, 0
1, 84690, Note_on_c, 0, 52, 0
1, 84720, Note_on_c, 0, 55, 50
1, 84720, Note_on_c, 0, 52, 42
1, 84900, Note_on_c, 0, 52, 0
1, 84900, Note_on_c, 0, 55, 0
1, 84960, Note_on_c, 0, 60, 0
1, 84960, Note_on_c, 0, 60, 64
1, 84960, Note_on_c, 0, 52, 38
1, 84960, Note_on_c, 0, 55, 45
1, 84985, Control_c, 0, 64, 0
1, 85140, Note_on_c, 0, 55, 0
1, 85140, Note_on_c, 0, 52, 0
1, 85140, Note_on_c, 0, 60, 0
1, 85140, Note_on_c, 0, 61, 62
1, 85200, Tempo, 759494
1, 85200, Note_on_c, 0, 61, 0
1, 85200, Note_on_c, 0, 48, 0
1, 85200, Note_on_c, 0, 61, 53
1, 85200, Note_on_c, 0, 34, 46
1, 85200, Note_on_c, 0, 46, 55
1, 85204, Tempo, 754717
1, 85220, Tempo, 750000
1, 85232, Tempo, 745342
1, 85235, Control_c, 0, 64, 127
1, 85244, Tempo, 740741
1, 85260, Tempo, 736196
1, 85260, Note_on_c, 0, 61, 0
1, 85260, Note_on_c, 0, 63, 54
1, 85272, Tempo, 731707
1, 85284, Tempo, 727273
1, 85300, Tempo, 722892
1, 85312, Tempo, 718563
1, 85320, Tempo, 714286
1, 85320, Note_on_c, 0, 63, 0
1, 85320, Note_on_c, 0, 61, 56
1, 85332, Tempo, 710059
1, 85344, Tempo, 705882
1, 85360, Tempo, 701754
1, 85372, Tempo, 697674
1, 85380, Note_on_c, 0, 61, 0
1, 85380, Note_on_c, 0, 63, 56
1, 85384, Tempo, 693642
1, 85400, Tempo, 689655
1, 85412, Tempo, 685714
1, 85424, Tempo, 677966
1, 85440, Note_on_c, 0, 63, 0
1, 85440, Note_on_c, 0, 46, 0
1, 85440, Note_on_c, 0, 34, 0
1, 85440, Note_on_c, 0, 61, 57
1, 85440, Note_on_c, 0, 53, 38
1, 85440, Note_on_c, 0, 55, 45
1, 85452, Tempo, 681818
1, 85472, Tempo, 685714
1, 85488, Note_on_c, 0, 61, 0
1, 85488, Note_on_c, 0, 63, 57
1, 85500, Tempo, 689655
1, 85520, Tempo, 693642
1, 85536, Note_on_c, 0, 63, 0
1, 85536, Note_on_c, 0, 61, 56
1, 85544, Tempo, 697674
1, 85564, Tempo, 701754
1, 85584, Note_on_c, 0, 61, 0
1, 85584, Note_on_c, 0, 60, 56
1, 85592, Tempo, 705882
1, 85612, Tempo, 710059
1, 85632, Note_on_c, 0, 60, 0
1, 85632, Note_on_c, 0, 61, 55
1, 85640, Tempo, 714286
1, 85660, Tempo, 718563
1, 85680, Note_on_c, 0, 61, 0
1, 85680, Note_on_c, 0, 55, 0
1, 85680, Note_on_c, 0, 53, 0
1, 85680, Note_on_c, 0, 60, 64
1, 85680, Note_on_c, 0, 48, 53
1, 85680, Note_on_c, 0, 36, 45
1, 85685, Control_c, 0, 64, 0
1, 85783, Control_c, 0, 64, 127
1, 85920, Tempo, 659486
1, 85920, Note_on_c, 0, 36, 0
1, 85920, Note_on_c, 0, 48, 0
1, 85920, Note_on_c, 0, 60, 0
1, 85920, Note_on_c, 0, 62, 56
1, 85920, Note_on_c, 0, 60, 47
1, 85920, Note_on_c, 0, 55, 39
1, 85920, Note_on_c, 0, 58, 39
1, 86010, Note_on_c, 0, 58, 0
1, 86010, Note_on_c, 0, 55, 0
1, 86010, Note_on_c, 0, 60, 0
1, 86040, Tempo, 693802
1, 86040, Note_on_c, 0, 62, 0
1, 86040, Note_on_c, 0, 64, 58
1, 86040, Note_on_c, 0, 55, 39
1, 86040, Note_on_c, 0, 58, 39
1, 86040, Note_on_c, 0, 60, 47
1, 86130, Note_on_c, 0, 60, 0
1, 86130, Note_on_c, 0, 58, 0
1, 86130, Note_on_c, 0, 55, 0
1, 86160, Note_on_c, 0, 64, 0
1, 86160, Note_on_c, 0, 65, 61
1, 86160, Note_on_c, 0, 55, 42
1, 86160, Note_on_c, 0, 58, 42
1, 86160, Note_on_c, 0, 60, 50
1, 86180, Tempo, 697674
1, 86340, Note_on_c, 0, 60, 0
1, 86340, Note_on_c, 0, 58, 0
1, 86340, Note_on_c, 0, 55, 0
1, 86400, Tempo, 705882
1, 86400, Note_on_c, 0, 65, 0
1, 86400, Note_on_c, 0, 67, 64
1, 86400, Note_on_c, 0, 58, 38
1, 86400, Note_on_c, 0, 55, 38
1, 86400, Note_on_c, 0, 60, 45
1, 86580, Note_on_c, 0, 60, 0
1, 86580, Note_on_c, 0, 55, 0
1, 86580, Note_on_c, 0, 58, 0
1, 86620, Tempo, 677966
1, 86640, Tempo, 697674
1, 86640, Note_on_c, 0, 67, 0
1, 86640, Note_on_c, 0, 70, 63
1, 86640, Note_on_c, 0, 41, 46
1, 86640, Note_on_c, 0, 53, 55
1, 86653, Control_c, 0, 64, 0
1, 86714, Control_c, 0, 64, 127
1, 86720, Tempo, 701754
1, 86760, Tempo, 705882
1, 86760, Note_on_c, 0, 70, 0
1, 86760, Note_on_c, 0, 68, 62
1, 86840, Tempo, 710059
1, 86880, Tempo, 714286
1, 86880, Note_on_c, 0, 68, 0
1, 86880, Note_on_c, 0, 41, 0
1, 86880, Note_on_c, 0, 67, 61
1, 86880, Note_on_c, 0, 56, 38
1, 86880, Note_on_c, 0, 60, 45
1, 86920, Tempo, 718563
1, 87000, Tempo, 722892
1, 87000, Note_on_c, 0, 67, 0
1, 87000, Note_on_c, 0, 65, 59
1, 87060, Note_on_c, 0, 65, 0
1, 87060, Note_on_c, 0, 65, 49
1, 87062, Tempo, 857143
1, 87090, Note_on_c, 0, 65, 0
1, 87090, Note_on_c, 0, 65, 48
1, 87120, Tempo, 759494
1, 87120, Note_on_c, 0, 65, 0
1, 87120, Note_on_c, 0, 60, 0
1, 87120, Note_on_c, 0, 56, 0
1, 87120, Note_on_c, 0, 53, 0
1, 87120, Note_on_c, 0, 77, 68
1, 87120, Note_on_c, 0, 37, 49
1, 87120, Note_on_c, 0, 49, 58
1, 87120, Control_c, 0, 64, 0
1, 87221, Control_c, 0, 64, 127
1, 87360, Tempo, 697837
1, 87360, Note_on_c, 0, 49, 0
1, 87360, Note_on_c, 0, 37, 0
1, 87360, Note_on_c, 0, 58, 38
1, 87360, Note_on_c, 0, 55, 38
1, 87360, Note_on_c, 0, 65, 45
1, 87450, Note_on_c, 0, 65, 0
1, 87450, Note_on_c, 0, 55, 0
1, 87450, Note_on_c, 0, 58, 0
1, 87480, Tempo, 736377
1, 87480, Note_on_c, 0, 55, 39
1, 87480, Note_on_c, 0, 65, 47
1, 87480, Note_on_c, 0, 58, 39
1, 87570, Note_on_c, 0, 58, 0
1, 87570, Note_on_c, 0, 65, 0
1, 87570, Note_on_c, 0, 55, 0
1, 87600, Tempo, 710059
1, 87600, Note_on_c, 0, 58, 41
1, 87600, Note_on_c, 0, 55, 41
1, 87600, Note_on_c, 0, 65, 49
1, 87780, Note_on_c, 0, 65, 0
1, 87780, Note_on_c, 0, 55, 0
1, 87780, Note_on_c, 0, 58, 0
1, 87840, Tempo, 714286
1, 87840, Note_on_c, 0, 55, 38
1, 87840, Note_on_c, 0, 58, 38
1, 87840, Note_on_c, 0, 65, 45
1, 88020, Note_on_c, 0, 65, 0
1, 88020, Note_on_c, 0, 58, 0
1, 88020, Note_on_c, 0, 55, 0
1, 88080, Tempo, 722892
1, 88080, Note_on_c, 0, 77, 0
1, 88080, Note_on_c, 0, 58, 53
1, 88080, Note_on_c, 0, 70, 63
1, 88080, Note_on_c, 0, 55, 38
1, 88080, Note_on_c, 0, 65, 45
1, 88260, Note_on_c, 0, 65, 0
1, 88260, Note_on_c, 0, 55, 0
1, 88320, Note_on_c, 0, 65, 45
1, 88320, Note_on_c, 0, 55, 38
1, 88500, Note_on_c, 0, 55, 0
1, 88500, Note_on_c, 0, 65, 0
1, 88560, Tempo, 722892
1, 88560, Note_on_c, 0, 70, 0
1, 88560, Note_on_c, 0, 58, 0
1, 88560, Note_on_c, 0, 60, 56
1, 88560, Note_on_c, 0, 72, 67
1, 88560, Note_on_c, 0, 36, 45
1, 88560, Note_on_c, 0, 48, 53
1, 88563, Control_c, 0, 64, 0
1, 88683, Control_c, 0, 64, 127
1, 88800, Tempo, 701754
1, 88800, Note_on_c, 0, 48, 0
1, 88800, Note_on_c, 0, 36, 0
1, 88800, Note_on_c, 0, 64, 47
1, 88800, Note_on_c, 0, 55, 39
1, 88890, Note_on_c, 0, 55, 0
1, 88890, Note_on_c, 0, 64, 0
1, 88920, Note_on_c, 0, 64, 47
1, 88920, Note_on_c, 0, 55, 39
1, 89010, Note_on_c, 0, 55, 0
1, 89010, Note_on_c, 0, 64, 0
1, 89040, Note_on_c, 0, 64, 50
1, 89040, Note_on_c, 0, 55, 42
1, 89220, Note_on_c, 0, 55, 0
1, 89220, Note_on_c, 0, 64, 0
1, 89280, Note_on_c, 0, 72, 0
1, 89280, Note_on_c, 0, 60, 0
1, 89280, Note_on_c, 0, 72, 64
1, 89280, Note_on_c, 0, 55, 38
1, 89280, Note_on_c, 0, 64, 45
1, 89435, Control_c, 0, 64, 0
1, 89460, Note_on_c, 0, 64, 0
1, 89460, Note_on_c, 0, 55, 0
1, 89460, Note_on_c, 0, 72, 0
1, 89460, Note_on_c, 0, 73, 62
1, 89490, Note_on_c, 0, 73, 0
1, 89490, Note_on_c, 0, 61, 49
1, 89520, Tempo, 759494
1, 89520, Note_on_c, 0, 61, 0
1, 89520, Note_on_c, 0, 73, 53
1, 89520, Note_on_c, 0, 34, 46
1, 89520, Note_on_c, 0, 46, 55
1, 89524, Tempo, 754717
1, 89540, Tempo, 750000
1, 89552, Tempo, 745342
1, 89555, Control_c, 0, 64, 127
1, 89564, Tempo, 740741
1, 89580, Tempo, 736196
1, 89580, Note_on_c, 0, 73, 0
1, 89580, Note_on_c, 0, 75, 54
1, 89592, Tempo, 731707
1, 89604, Tempo, 727273
1, 89620, Tempo, 722892
1, 89632, Tempo, 718563
1, 89640, Tempo, 714286
1, 89640, Note_on_c, 0, 75, 0
1, 89640, Note_on_c, 0, 73, 56
1, 89652, Tempo, 710059
1, 89664, Tempo, 705882
1, 89680, Tempo, 701754
1, 89692, Tempo, 697674
1, 89700, Note_on_c, 0, 73, 0
1, 89700, Note_on_c, 0, 75, 56
1, 89704, Tempo, 693642
1, 89720, Tempo, 689655
1, 89732, Tempo, 685714
1, 89744, Tempo, 677966
1, 89760, Note_on_c, 0, 75, 0
1, 89760, Note_on_c, 0, 46, 0
1, 89760, Note_on_c, 0, 34, 0
1, 89760, Note_on_c, 0, 73, 57
1, 89760, Note_on_c, 0, 56, 38
1, 89760, Note_on_c, 0, 53, 38
1, 89760, Note_on_c, 0, 65, 45
1, 89772, Tempo, 681818
1, 89792, Tempo, 685714
1, 89808, Note_on_c, 0, 73, 0
1, 89808, Note_on_c, 0, 75, 57
1, 89820, Tempo, 689655
1, 89840, Tempo, 693642
1, 89856, Note_on_c, 0, 75, 0
1, 89856, Note_on_c, 0, 73, 56
1, 89864, Tempo, 697674
1, 89884, Tempo, 701754
1, 89904, Note_on_c, 0, 73, 0
1, 89904, Note_on_c, 0, 72, 56
1, 89912, Tempo, 705882
1, 89932, Tempo, 710059
1, 89952, Note_on_c, 0, 72, 0
1, 89952, Note_on_c, 0, 73, 55
1, 89960, Tempo, 714286
1, 89980, Tempo, 718563
1, 90000, Tempo, 722892
1, 90000, Note_on_c, 0, 73, 0
1, 90000, Note_on_c, 0, 56, 0
1, 90000, Note_on_c, 0, 53, 0
1, 90000, Note_on_c, 0, 65, 0
1, 90000, Note_on_c, 0, 60, 56
1, 90000, Note_on_c, 0, 72, 67
1, 90000, Note_on_c, 0, 36, 45
1, 90000, Note_on_c, 0, 48, 53
1, 90005, Control_c, 0, 64, 0
1, 90123, Control_c, 0, 64, 127
1, 90240, Tempo, 681973
1, 90240, Note_on_c, 0, 48, 0
1, 90240, Note_on_c, 0, 36, 0
1, 90240, Note_on_c, 0, 64, 47
1, 90240, Note_on_c, 0, 55, 39
1, 90330, Note_on_c, 0, 55, 0
1, 90330, Note_on_c, 0, 64, 0
1, 90360, Tempo, 714456
1, 90360, Note_on_c, 0, 64, 48
1, 90360, Note_on_c, 0, 55, 40
1, 90450, Note_on_c, 0, 55, 0
1, 90450, Note_on_c, 0, 64, 0
1, 90480, Tempo, 693802
1, 90480, Note_on_c, 0, 64, 50
1, 90480, Note_on_c, 0, 55, 43
1, 90660, Note_on_c, 0, 55, 0
1, 90660, Note_on_c, 0, 64, 0
1, 90720, Note_on_c, 0, 72, 0
1, 90720, Note_on_c, 0, 60, 0
1, 90720, Note_on_c, 0, 72, 66
1, 90720, Note_on_c, 0, 55, 39
1, 90720, Note_on_c, 0, 64, 46
1, 90900, Note_on_c, 0, 64, 0
1, 90900, Note_on_c, 0, 55, 0
1, 90900, Note_on_c, 0, 72, 0
1, 90900, Note_on_c, 0, 73, 64
1, 90903, Control_c, 0, 64, 0
1, 90930, Note_on_c, 0, 73, 0
1, 90930, Note_on_c, 0, 61, 51
1, 90960, Tempo, 759494
1, 90960, Note_on_c, 0, 61, 0
1, 90960, Note_on_c, 0, 73, 55
1, 90960, Note_on_c, 0, 34, 48
1, 90960, Note_on_c, 0, 46, 57
1, 90964, Tempo, 754717
1, 90980, Tempo, 750000
1, 90992, Tempo, 745342
1, 90995, Control_c, 0, 64, 127
1, 91004, Tempo, 740741
1, 91020, Tempo, 736196
1, 91020, Note_on_c, 0, 73, 0
1, 91020, Note_on_c, 0, 75, 56
1, 91032, Tempo, 731707
1, 91044, Tempo, 727273
1, 91060, Tempo, 722892
1, 91072, Tempo, 718563
1, 91080, Tempo, 714286
1, 91080, Note_on_c, 0, 75, 0
1, 91080, Note_on_c, 0, 73, 58
1, 91092, Tempo, 710059
1, 91104, Tempo, 705882
1, 91120, Tempo, 701754
1, 91132, Tempo, 697674
1, 91140, Note_on_c, 0, 73, 0
1, 91140, Note_on_c, 0, 75, 58
1, 91144, Tempo, 693642
1, 91160, Tempo, 689655
1, 91172, Tempo, 685714
1, 91184, Tempo, 677966
1, 91200, Note_on_c, 0, 75, 0
1, 91200, Note_on_c, 0, 46, 0
1, 91200, Note_on_c, 0, 34, 0
1, 91200, Note_on_c, 0, 73, 60
1, 91200, Note_on_c, 0, 56, 40
1, 91200, Note_on_c, 0, 65, 48
1, 91200, Note_on_c, 0, 53, 40
1, 91212, Tempo, 681818
1, 91232, Tempo, 685714
1, 91248, Note_on_c, 0, 73, 0
1, 91248, Note_on_c, 0, 75, 60
1, 91260, Tempo, 689655
1, 91280, Tempo, 693642
1, 91296, Note_on_c, 0, 75, 0
1, 91296, Note_on_c, 0, 73, 59
1, 91304, Tempo, 697674
1, 91324, Tempo, 701754
1, 91344, Note_on_c, 0, 73, 0
1, 91344, Note_on_c, 0, 72, 58
1, 91352, Tempo, 705882
1, 91372, Tempo, 710059
1, 91392, Note_on_c, 0, 72, 0
1, 91392, Note_on_c, 0, 73, 57
1, 91400, Tempo, 714286
1, 91420, Tempo, 718563
1, 91434, Tempo, 689655
1, 91440, Time_signature, 7, 3, 12, 8
1, 91440, Note_on_c, 0, 73, 0
1, 91440, Note_on_c, 0, 56, 0
1, 91440, Note_on_c, 0, 65, 0
1, 91440, Note_on_c, 0, 53, 0
1, 91440, Note_on_c, 0, 74, 56
1, 91440, Control_c, 0, 64, 0
1, 91440, Note_on_c, 0, 34, 49
1, 91440, Note_on_c, 0, 46, 58
1, 91474, Tempo, 685714
1, 91475, Control_c, 0, 64, 127
1, 91500, Note_on_c, 0, 74, 0
1, 91500, Note_on_c, 0, 75, 57
1, 91502, Tempo, 681818
1, 91542, Tempo, 677966
1, 91560, Note_on_c, 0, 75, 0
1, 91560, Note_on_c, 0, 74, 59
1, 91570, Tempo, 674157
1, 91610, Tempo, 670391
1, 91620, Note_on_c, 0, 74, 0
1, 91620, Note_on_c, 0, 75, 60
1, 91634, Tempo, 666667
1, 91680, Note_on_c, 0, 75, 0
1, 91680, Note_on_c, 0, 46, 0
1, 91680, Note_on_c, 0, 34, 0
1, 91680, Note_on_c, 0, 74, 61
1, 91680, Note_on_c, 0, 56, 41
1, 91680, Note_on_c, 0, 62, 41
1, 91680, Note_on_c, 0, 68, 50
1, 91680, Note_on_c, 0, 58, 41
1, 91728, Note_on_c, 0, 74, 0
1, 91728, Note_on_c, 0, 75, 61
1, 91776, Note_on_c, 0, 75, 0
1, 91776, Note_on_c, 0, 74, 61
1, 91824, Note_on_c, 0, 74, 0
1, 91824, Note_on_c, 0, 73, 60
1, 91872, Note_on_c, 0, 73, 0
1, 91872, Note_on_c, 0, 74, 59
1, 91902, Tempo, 666667
1, 91920, Note_on_c, 0, 74, 0
1, 91920, Note_on_c, 0, 68, 0
1, 91920, Note_on_c, 0, 56, 0
1, 91920, Note_on_c, 0, 62, 0
1, 91920, Note_on_c, 0, 58, 0
1, 91920, Note_on_c, 0, 75, 58
1, 91920, Note_on_c, 0, 39, 62
1, 91920, Note_on_c, 0, 27, 53
1, 91925, Control_c, 0, 64, 0
1, 91975, Control_c, 0, 64, 127
1, 91980, Note_on_c, 0, 75, 0
1, 91980, Note_on_c, 0, 77, 59
1, 92040, Note_on_c, 0, 77, 0
1, 92040, Note_on_c, 0, 75, 60
1, 92100, Note_on_c, 0, 75, 0
1, 92100, Note_on_c, 0, 77, 62
1, 92144, Tempo, 659341
1, 92160, Note_on_c, 0, 77, 0
1, 92160, Note_on_c, 0, 27, 0
1, 92160, Note_on_c, 0, 39, 0
1, 92160, Note_on_c, 0, 75, 62
1, 92160, Note_on_c, 0, 61, 46
1, 92160, Note_on_c, 0, 58, 46
1, 92160, Note_on_c, 0, 63, 54
1, 92160, Note_on_c, 0, 55, 46
1, 92212, Tempo, 655738
1, 92220, Note_on_c, 0, 75, 0
1, 92220, Note_on_c, 0, 77, 63
1, 92264, Tempo, 652174
1, 92280, Note_on_c, 0, 77, 0
1, 92280, Note_on_c, 0, 75, 64
1, 92332, Tempo, 648649
1, 92340, Note_on_c, 0, 75, 0
1, 92340, Note_on_c, 0, 77, 65
1, 92384, Tempo, 645161
1, 92400, Note_on_c, 0, 77, 0
1, 92400, Note_on_c, 0, 55, 0
1, 92400, Note_on_c, 0, 61, 0
1, 92400, Note_on_c, 0, 58, 0
1, 92400, Note_on_c, 0, 63, 0
1, 92400, Note_on_c, 0, 75, 66
1, 92400, Note_on_c, 0, 58, 57
1, 92400, Note_on_c, 0, 61, 57
1, 92400, Note_on_c, 0, 63, 57
1, 92400, Note_on_c, 0, 67, 68
1, 92408, Control_c, 0, 64, 0
1, 92441, Control_c, 0, 64, 127
1, 92452, Tempo, 641711
1, 92460, Note_on_c, 0, 75, 0
1, 92460, Note_on_c, 0, 77, 68
1, 92504, Tempo, 638298
1, 92520, Note_on_c, 0, 77, 0
1, 92520, Note_on_c, 0, 75, 69
1, 92572, Tempo, 634921
1, 92580, Note_on_c, 0, 75, 0
1, 92580, Note_on_c, 0, 74, 69
1, 92624, Tempo, 631579
1, 92630, Tempo, 677966
1, 92640, Tempo, 408163
1, 92640, Note_on_c, 0, 74, 0
1, 92640, Note_on_c, 0, 67, 0
1, 92640, Note_on_c, 0, 58, 0
1, 92640, Note_on_c, 0, 61, 0
1, 92640, Note_on_c, 0, 63, 0
1, 92640, Note_on_c, 0, 75, 67
1, 92640, Note_on_c, 0, 61, 49
1, 92640, Note_on_c, 0, 63, 49
1, 92640, Note_on_c, 0, 67, 49
1, 92640, Note_on_c, 0, 73, 59
1, 92652, Tempo, 409556
1, 92664, Tempo, 412371
1, 92680, Tempo, 415225
1, 92692, Tempo, 418118
1, 92700, Note_on_c, 0, 75, 0
1, 92700, Note_on_c, 0, 77, 68
1, 92704, Tempo, 421053
1, 92720, Tempo, 424028
1, 92732, Tempo, 425532
1, 92744, Tempo, 428571
1, 92760, Tempo, 431655
1, 92760, Note_on_c, 0, 77, 0
1, 92760, Note_on_c, 0, 79, 70
1, 92772, Tempo, 434783
1, 92784, Tempo, 437956
1, 92800, Tempo, 441176
1, 92812, Tempo, 444444
1, 92820, Note_on_c, 0, 79, 0
1, 92820, Note_on_c, 0, 80, 71
1, 92824, Tempo, 446097
1, 92840, Tempo, 449438
1, 92852, Tempo, 452830
1, 92864, Tempo, 456274
1, 92880, Tempo, 459770
1, 92880, Note_on_c, 0, 80, 0
1, 92880, Note_on_c, 0, 82, 72
1, 92892, Tempo, 463320
1, 92904, Tempo, 466926
1, 92920, Tempo, 468750
1, 92932, Tempo, 472441
1, 92940, Note_on_c, 0, 82, 0
1, 92940, Note_on_c, 0, 84, 74
1, 92944, Tempo, 476190
1, 92960, Tempo, 480000
1, 92972, Tempo, 483871
1, 92984, Tempo, 487805
1, 93000, Tempo, 491803
1, 93000, Note_on_c, 0, 84, 0
1, 93000, Note_on_c, 0, 85, 75
1, 93012, Tempo, 493827
1, 93024, Tempo, 497925
1, 93040, Tempo, 502092
1, 93052, Tempo, 506329
1, 93060, Note_on_c, 0, 85, 0
1, 93060, Note_on_c, 0, 87, 76
1, 93064, Tempo, 510638
1, 93080, Tempo, 515021
1, 93120, Time_signature, 3, 2, 24, 8
1, 93120, Tempo, 851064
1, 93120, Note_on_c, 0, 87, 0
1, 93120, Note_on_c, 0, 73, 0
1, 93120, Note_on_c, 0, 61, 0
1, 93120, Note_on_c, 0, 63, 0
1, 93120, Note_on_c, 0, 67, 0
1, 93120, Note_on_c, 0, 77, 82
1, 93120, Note_on_c, 0, 85, 82
1, 93120, Note_on_c, 0, 89, 97
1, 93120, Control_c, 0, 64, 0
1, 93120, Note_on_c, 0, 32, 67
1, 93120, Note_on_c, 0, 44, 79
1, 93120, Control_c, 0, 64, 0
1, 93240, Note_on_c, 0, 44, 0
1, 93240, Note_on_c, 0, 32, 0
1, 93240, Control_c, 0, 64, 127
1, 93360, Tempo, 560748
1, 93360, Note_on_c, 0, 60, 67
1, 93360, Note_on_c, 0, 51, 67
1, 93360, Note_on_c, 0, 63, 79
1, 93480, Tempo, 628404
1, 93480, Note_on_c, 0, 77, 0
1, 93480, Note_on_c, 0, 89, 0
1, 93480, Note_on_c, 0, 85, 0
1, 93480, Note_on_c, 0, 75, 79
1, 93480, Note_on_c, 0, 84, 79
1, 93480, Note_on_c, 0, 87, 93
1, 93588, Note_on_c, 0, 87, 0
1, 93588, Note_on_c, 0, 75, 0
1, 93588, Note_on_c, 0, 84, 0
1, 93600, Tempo, 701754
1, 93600, Note_on_c, 0, 63, 0
1, 93600, Note_on_c, 0, 60, 0
1, 93600, Note_on_c, 0, 51, 0
1, 93600, Note_on_c, 0, 75, 79
1, 93600, Note_on_c, 0, 84, 79
1, 93600, Note_on_c, 0, 87, 93
1, 93600, Note_on_c, 0, 68, 77
1, 93600, Note_on_c, 0, 60, 77
1, 93600, Note_on_c, 0, 56, 64
1, 93622, Control_c, 0, 64, 0
1, 93780, Note_on_c, 0, 63, 71
1, 93840, Tempo, 693642
1, 93840, Note_on_c, 0, 63, 0
1, 93840, Note_on_c, 0, 60, 0
1, 93840, Note_on_c, 0, 84, 0
1, 93840, Note_on_c, 0, 87, 0
1, 93840, Note_on_c, 0, 75, 0
1, 93840, Note_on_c, 0, 56, 0
1, 93840, Note_on_c, 0, 68, 0
1, 93840, Note_on_c, 0, 63, 71
1, 93840, Note_on_c, 0, 39, 72
1, 93840, Note_on_c, 0, 51, 85
1, 93844, Control_c, 0, 64, 127
1, 93888, Note_on_c, 0, 63, 0
1, 93888, Note_on_c, 0, 65, 71
1, 93900, Note_on_c, 0, 51, 0
1, 93900, Note_on_c, 0, 39, 0
1, 93936, Note_on_c, 0, 65, 0
1, 93936, Note_on_c, 0, 63, 71
1, 93984, Note_on_c, 0, 63, 0
1, 93984, Note_on_c, 0, 62, 71
1, 94032, Note_on_c, 0, 62, 0
1, 94032, Note_on_c, 0, 63, 71
1, 94080, Tempo, 666667
1, 94080, Note_on_c, 0, 63, 0
1, 94080, Note_on_c, 0, 68, 87
1, 94080, Note_on_c, 0, 44, 73
1, 94080, Note_on_c, 0, 56, 86
1, 94090, Control_c, 0, 64, 0
1, 94200, Note_on_c, 0, 56, 0
1, 94200, Note_on_c, 0, 44, 0
1, 94200, Note_on_c, 0, 68, 0
1, 94320, Note_on_c, 0, 72, 74
1, 94320, Note_on_c, 0, 80, 74
1, 94320, Note_on_c, 0, 84, 88
1, 94320, Note_on_c, 0, 27, 61
1, 94320, Note_on_c, 0, 39, 73
1, 94440, Tempo, 705882
1, 94440, Note_on_c, 0, 84, 0
1, 94440, Note_on_c, 0, 72, 0
1, 94440, Note_on_c, 0, 80, 0
1, 94440, Note_on_c, 0, 73, 73
1, 94440, Note_on_c, 0, 82, 73
1, 94440, Note_on_c, 0, 85, 86
1, 94560, Tempo, 666667
1, 94560, Note_on_c, 0, 85, 0
1, 94560, Note_on_c, 0, 73, 0
1, 94560, Note_on_c, 0, 39, 0
1, 94560, Note_on_c, 0, 27, 0
1, 94560, Note_on_c, 0, 82, 0
1, 94560, Note_on_c, 0, 77, 79
1, 94560, Note_on_c, 0, 85, 79
1, 94560, Note_on_c, 0, 89, 93
1, 94560, Note_on_c, 0, 32, 67
1, 94560, Note_on_c, 0, 44, 79
1, 94580, Tempo, 705882
1, 94592, Control_c, 0, 64, 127
1, 94680, Tempo, 666667
1, 94680, Note_on_c, 0, 89, 0
1, 94680, Note_on_c, 0, 77, 0
1, 94680, Note_on_c, 0, 85, 0
1, 94740, Note_on_c, 0, 75, 74
1, 94740, Note_on_c, 0, 84, 74
1, 94740, Note_on_c, 0, 87, 88
1, 94794, Note_on_c, 0, 87, 0
1, 94794, Note_on_c, 0, 75, 0
1, 94794, Note_on_c, 0, 84, 0
1, 94800, Tempo, 574163
1, 94800, Note_on_c, 0, 32, 0
1, 94800, Note_on_c, 0, 44, 0
1, 94800, Note_on_c, 0, 75, 74
1, 94800, Note_on_c, 0, 84, 74
1, 94800, Note_on_c, 0, 87, 93
1, 94800, Note_on_c, 0, 60, 61
1, 94800, Note_on_c, 0, 63, 73
1, 94800, Note_on_c, 0, 51, 61
1, 94920, Tempo, 714286
1, 94920, Note_on_c, 0, 87, 0
1, 94920, Note_on_c, 0, 75, 0
1, 94920, Note_on_c, 0, 84, 0
1, 94920, Note_on_c, 0, 74, 74
1, 94920, Note_on_c, 0, 83, 74
1, 94920, Note_on_c, 0, 86, 88
1, 95040, Tempo, 714286
1, 95040, Note_on_c, 0, 86, 0
1, 95040, Note_on_c, 0, 63, 0
1, 95040, Note_on_c, 0, 60, 0
1, 95040, Note_on_c, 0, 51, 0
1, 95040, Note_on_c, 0, 83, 0
1, 95040, Note_on_c, 0, 74, 0
1, 95040, Note_on_c, 0, 75, 74
1, 95040, Note_on_c, 0, 84, 74
1, 95040, Note_on_c, 0, 87, 88
1, 95040, Note_on_c, 0, 68, 75
1, 95040, Note_on_c, 0, 60, 75
1, 95040, Note_on_c, 0, 56, 63
1, 95060, Control_c, 0, 64, 0
1, 95220, Note_on_c, 0, 63, 70
1, 95280, Tempo, 681818
1, 95280, Note_on_c, 0, 63, 0
1, 95280, Note_on_c, 0, 60, 0
1, 95280, Note_on_c, 0, 84, 0
1, 95280, Note_on_c, 0, 87, 0
1, 95280, Note_on_c, 0, 75, 0
1, 95280, Note_on_c, 0, 56, 0
1, 95280, Note_on_c, 0, 68, 0
1, 95280, Note_on_c, 0, 63, 70
1, 95280, Note_on_c, 0, 39, 67
1, 95280, Note_on_c, 0, 51, 80
1, 95291, Control_c, 0, 64, 127
1, 95328, Note_on_c, 0, 63, 0
1, 95328, Note_on_c, 0, 65, 70
1, 95340, Note_on_c, 0, 51, 0
1, 95340, Note_on_c, 0, 39, 0
1, 95376, Note_on_c, 0, 65, 0
1, 95376, Note_on_c, 0, 63, 70
1, 95424, Note_on_c, 0, 63, 0
1, 95424, Note_on_c, 0, 62, 70
1, 95472, Note_on_c, 0, 62, 0
1, 95472, Note_on_c, 0, 63, 70
1, 95520, Tempo, 645161
1, 95520, Note_on_c, 0, 63, 0
1, 95520, Note_on_c, 0, 68, 87
1, 95520, Note_on_c, 0, 44, 73
1, 95520, Note_on_c, 0, 56, 86
1, 95536, Control_c, 0, 64, 0
1, 95640, Note_on_c, 0, 56, 0
1, 95640, Note_on_c, 0, 44, 0
1, 95640, Note_on_c, 0, 68, 0
1, 95760, Tempo, 666667
1, 95760, Note_on_c, 0, 84, 88
1, 95760, Note_on_c, 0, 72, 74
1, 95760, Note_on_c, 0, 80, 74
1, 95760, Note_on_c, 0, 27, 61
1, 95760, Note_on_c, 0, 39, 73
1, 95880, Tempo, 677966
1, 95880, Note_on_c, 0, 80, 0
1, 95880, Note_on_c, 0, 84, 0
1, 95880, Note_on_c, 0, 72, 0
1, 95880, Note_on_c, 0, 85, 86
1, 95880, Note_on_c, 0, 73, 73
1, 95880, Note_on_c, 0, 82, 73
1, 96000, Tempo, 666667
1, 96000, Note_on_c, 0, 82, 0
1, 96000, Note_on_c, 0, 85, 0
1, 96000, Note_on_c, 0, 39, 0
1, 96000, Note_on_c, 0, 27, 0
1, 96000, Note_on_c, 0, 73, 0
1, 96000, Note_on_c, 0, 85, 79
1, 96000, Note_on_c, 0, 89, 93
1, 96000, Note_on_c, 0, 77, 79
1, 96000, Note_on_c, 0, 32, 67
1, 96000, Note_on_c, 0, 44, 79
1, 96032, Control_c, 0, 64, 127
1, 96120, Note_on_c, 0, 77, 0
1, 96120, Note_on_c, 0, 85, 0
1, 96120, Note_on_c, 0, 89, 0
1, 96120, Note_on_c, 0, 75, 74
1, 96120, Note_on_c, 0, 84, 74
1, 96120, Note_on_c, 0, 87, 88
1, 96180, Note_on_c, 0, 87, 0
1, 96180, Note_on_c, 0, 89, 81
1, 96240, Tempo, 571429
1, 96240, Note_on_c, 0, 89, 0
1, 96240, Note_on_c, 0, 32, 0
1, 96240, Note_on_c, 0, 44, 0
1, 96240, Note_on_c, 0, 87, 93
1, 96240, Note_on_c, 0, 60, 61
1, 96240, Note_on_c, 0, 63, 73
1, 96240, Note_on_c, 0, 51, 61
1, 96360, Tempo, 681818
1, 96360, Note_on_c, 0, 87, 0
1, 96360, Note_on_c, 0, 84, 0
1, 96360, Note_on_c, 0, 75, 0
1, 96360, Note_on_c, 0, 83, 74
1, 96360, Note_on_c, 0, 86, 88
1, 96360, Note_on_c, 0, 74, 74
1, 96480, Tempo, 666667
1, 96480, Note_on_c, 0, 74, 0
1, 96480, Note_on_c, 0, 63, 0
1, 96480, Note_on_c, 0, 60, 0
1, 96480, Note_on_c, 0, 51, 0
1, 96480, Note_on_c, 0, 86, 0
1, 96480, Note_on_c, 0, 83, 0
1, 96480, Note_on_c, 0, 85, 79
1, 96480, Note_on_c, 0, 89, 93
1, 96480, Note_on_c, 0, 77, 79
1, 96480, Note_on_c, 0, 68, 75
1, 96480, Note_on_c, 0, 60, 75
1, 96480, Note_on_c, 0, 56, 63
1, 96490, Control_c, 0, 64, 0
1, 96540, Control_c, 0, 64, 127
1, 96600, Note_on_c, 0, 77, 0
1, 96600, Note_on_c, 0, 85, 0
1, 96600, Note_on_c, 0, 89, 0
1, 96600, Note_on_c, 0, 84, 74
1, 96600, Note_on_c, 0, 87, 88
1, 96600, Note_on_c, 0, 75, 74
1, 96660, Note_on_c, 0, 87, 0
1, 96660, Note_on_c, 0, 89, 81
1, 96720, Tempo, 606061
1, 96720, Note_on_c, 0, 89, 0
1, 96720, Note_on_c, 0, 60, 0
1, 96720, Note_on_c, 0, 56, 0
1, 96720, Note_on_c, 0, 68, 0
1, 96720, Note_on_c, 0, 87, 93
1, 96720, Note_on_c, 0, 39, 61
1, 96720, Note_on_c, 0, 51, 73
1, 96840, Tempo, 689655
1, 96840, Note_on_c, 0, 51, 0
1, 96840, Note_on_c, 0, 87, 0
1, 96840, Note_on_c, 0, 75, 0
1, 96840, Note_on_c, 0, 84, 0
1, 96840, Note_on_c, 0, 39, 0
1, 96840, Note_on_c, 0, 74, 74
1, 96840, Note_on_c, 0, 83, 74
1, 96840, Note_on_c, 0, 86, 88
1, 96960, Tempo, 666667
1, 96960, Note_on_c, 0, 86, 0
1, 96960, Note_on_c, 0, 83, 0
1, 96960, Note_on_c, 0, 74, 0
1, 96960, Note_on_c, 0, 75, 74
1, 96960, Note_on_c, 0, 84, 74
1, 96960, Note_on_c, 0, 87, 88
1, 96960, Note_on_c, 0, 44, 64
1, 96960, Note_on_c, 0, 56, 77
1, 96975, Control_c, 0, 64, 0
1, 97080, Tempo, 839161
1, 97080, Note_on_c, 0, 56, 0
1, 97080, Note_on_c, 0, 44, 0
1, 97140, Note_on_c, 0, 75, 0
1, 97140, Note_on_c, 0, 84, 0
1, 97140, Note_on_c, 0, 87, 0
1, 97140, Note_on_c, 0, 75, 72
1, 97140, Note_on_c, 0, 39, 62
1, 97170, Note_on_c, 0, 82, 72
1, 97170, Note_on_c, 0, 46, 62
1, 97200, Tempo, 750000
1, 97200, Note_on_c, 0, 90, 85
1, 97200, Note_on_c, 0, 54, 74
1, 97225, Control_c, 0, 64, 127
1, 97320, Tempo, 714286
1, 97350, Note_on_c, 0, 54, 0
1, 97350, Note_on_c, 0, 39, 0
1, 97350, Note_on_c, 0, 46, 0
1, 97350, Note_on_c, 0, 41, 62
1, 97380, Note_on_c, 0, 75, 0
1, 97380, Note_on_c, 0, 82, 0
1, 97380, Note_on_c, 0, 90, 0
1, 97380, Note_on_c, 0, 75, 70
1, 97380, Note_on_c, 0, 48, 62
1, 97410, Note_on_c, 0, 81, 70
1, 97410, Note_on_c, 0, 51, 74
1, 97440, Note_on_c, 0, 89, 83
1, 97440, Control_c, 0, 64, 0
1, 97440, Note_on_c, 0, 57, 74
1, 97540, Control_c, 0, 64, 127
1, 97590, Note_on_c, 0, 57, 0
1, 97590, Note_on_c, 0, 41, 0
1, 97590, Note_on_c, 0, 51, 0
1, 97590, Note_on_c, 0, 72, 70
1, 97590, Note_on_c, 0, 53, 61
1, 97620, Note_on_c, 0, 81, 0
1, 97620, Note_on_c, 0, 89, 0
1, 97620, Note_on_c, 0, 75, 0
1, 97620, Note_on_c, 0, 75, 70
1, 97620, Note_on_c, 0, 60, 61
1, 97650, Note_on_c, 0, 77, 70
1, 97650, Note_on_c, 0, 63, 73
1, 97680, Note_on_c, 0, 48, 0
1, 97680, Note_on_c, 0, 84, 83
1, 97680, Note_on_c, 0, 69, 73
1, 97830, Note_on_c, 0, 69, 0
1, 97830, Note_on_c, 0, 60, 0
1, 97830, Note_on_c, 0, 53, 0
1, 97830, Note_on_c, 0, 63, 0
1, 97849, Control_c, 0, 64, 0
1, 97860, Note_on_c, 0, 77, 0
1, 97860, Note_on_c, 0, 75, 0
1, 97860, Note_on_c, 0, 72, 0
1, 97860, Note_on_c, 0, 84, 0
1, 97860, Note_on_c, 0, 70, 70
1, 97860, Note_on_c, 0, 46, 63
1, 97890, Note_on_c, 0, 77, 70
1, 97890, Note_on_c, 0, 53, 75
1, 97920, Note_on_c, 0, 85, 83
1, 97920, Note_on_c, 0, 61, 75
1, 98100, Note_on_c, 0, 85, 0
1, 98100, Note_on_c, 0, 77, 0
1, 98100, Note_on_c, 0, 70, 0
1, 98160, Tempo, 727273
1, 98160, Note_on_c, 0, 46, 0
1, 98160, Note_on_c, 0, 53, 0
1, 98160, Note_on_c, 0, 61, 0
1, 98160, Note_on_c, 0, 78, 80
1, 98160, Note_on_c, 0, 42, 60
1, 98160, Note_on_c, 0, 54, 71
1, 98240, Note_on_c, 0, 78, 0
1, 98240, Note_on_c, 0, 66, 80
1, 98320, Note_on_c, 0, 66, 0
1, 98320, Note_on_c, 0, 78, 80
1, 98400, Tempo, 705882
1, 98400, Note_on_c, 0, 78, 0
1, 98400, Note_on_c, 0, 54, 0
1, 98400, Note_on_c, 0, 42, 0
1, 98400, Note_on_c, 0, 65, 71
1, 98400, Note_on_c, 0, 77, 84
1, 98400, Note_on_c, 0, 41, 60
1, 98400, Note_on_c, 0, 53, 71
1, 98640, Tempo, 774194
1, 98640, Note_on_c, 0, 53, 0
1, 98640, Note_on_c, 0, 65, 0
1, 98640, Note_on_c, 0, 77, 0
1, 98640, Note_on_c, 0, 41, 0
1, 98640, Note_on_c, 0, 61, 74
1, 98640, Note_on_c, 0, 73, 79
1, 98640, Note_on_c, 0, 37, 58
1, 98640, Note_on_c, 0, 49, 69
1, 98880, Tempo, 784314
1, 98880, Note_on_c, 0, 49, 0
1, 98880, Note_on_c, 0, 61, 0
1, 98880, Note_on_c, 0, 73, 0
1, 98880, Note_on_c, 0, 37, 0
1, 98880, Note_on_c, 0, 78, 82
1, 98880, Note_on_c, 0, 87, 82
1, 98880, Note_on_c, 0, 90, 97
1, 98880, Note_on_c, 0, 34, 67
1, 98880, Note_on_c, 0, 46, 79
1, 98880, Control_c, 0, 64, 0
1, 98958, Control_c, 0, 64, 127
1, 99000, Note_on_c, 0, 46, 0
1, 99000, Note_on_c, 0, 34, 0
1, 99120, Tempo, 576923
1, 99120, Note_on_c, 0, 61, 79
1, 99120, Note_on_c, 0, 53, 67
1, 99120, Note_on_c, 0, 65, 79
1, 99240, Tempo, 638434
1, 99240, Note_on_c, 0, 78, 0
1, 99240, Note_on_c, 0, 90, 0
1, 99240, Note_on_c, 0, 87, 0
1, 99240, Note_on_c, 0, 77, 79
1, 99240, Note_on_c, 0, 85, 79
1, 99240, Note_on_c, 0, 89, 93
1, 99348, Note_on_c, 0, 89, 0
1, 99348, Note_on_c, 0, 77, 0
1, 99348, Note_on_c, 0, 85, 0
1, 99360, Tempo, 693642
1, 99360, Note_on_c, 0, 65, 0
1, 99360, Note_on_c, 0, 61, 0
1, 99360, Note_on_c, 0, 53, 0
1, 99360, Note_on_c, 0, 77, 79
1, 99360, Note_on_c, 0, 85, 79
1, 99360, Note_on_c, 0, 89, 93
1, 99360, Note_on_c, 0, 70, 77
1, 99360, Note_on_c, 0, 61, 77
1, 99360, Note_on_c, 0, 58, 64
1, 99365, Control_c, 0, 64, 0
1, 99540, Note_on_c, 0, 65, 71
1, 99586, Control_c, 0, 64, 127
1, 99600, Tempo, 693642
1, 99600, Note_on_c, 0, 65, 0
1, 99600, Note_on_c, 0, 61, 0
1, 99600, Note_on_c, 0, 85, 0
1, 99600, Note_on_c, 0, 89, 0
1, 99600, Note_on_c, 0, 77, 0
1, 99600, Note_on_c, 0, 58, 0
1, 99600, Note_on_c, 0, 70, 0
1, 99600, Note_on_c, 0, 65, 71
1, 99600, Note_on_c, 0, 41, 72
1, 99600, Note_on_c, 0, 53, 85
1, 99648, Note_on_c, 0, 65, 0
1, 99648, Note_on_c, 0, 66, 71
1, 99660, Note_on_c, 0, 53, 0
1, 99660, Note_on_c, 0, 41, 0
1, 99696, Note_on_c, 0, 66, 0
1, 99696, Note_on_c, 0, 65, 71
1, 99744, Note_on_c, 0, 65, 0
1, 99744, Note_on_c, 0, 64, 71
1, 99792, Note_on_c, 0, 64, 0
1, 99792, Note_on_c, 0, 65, 71
1, 99840, Tempo, 666667
1, 99840, Note_on_c, 0, 65, 0
1, 99840, Note_on_c, 0, 70, 87
1, 99840, Control_c, 0, 64, 0
1, 99840, Note_on_c, 0, 46, 73
1, 99840, Note_on_c, 0, 58, 86
1, 99960, Note_on_c, 0, 58, 0
1, 99960, Note_on_c, 0, 46, 0
1, 100080, Note_on_c, 0, 70, 0
1, 100080, Note_on_c, 0, 73, 74
1, 100080, Note_on_c, 0, 85, 88
1, 100080, Note_on_c, 0, 82, 74
1, 100080, Note_on_c, 0, 29, 61
1, 100080, Note_on_c, 0, 41, 73
1, 100200, Tempo, 705882
1, 100200, Note_on_c, 0, 82, 0
1, 100200, Note_on_c, 0, 73, 0
1, 100200, Note_on_c, 0, 85, 0
1, 100200, Note_on_c, 0, 75, 73
1, 100200, Note_on_c, 0, 84, 73
1, 100200, Note_on_c, 0, 87, 86
1, 100320, Tempo, 666667
1, 100320, Note_on_c, 0, 87, 0
1, 100320, Note_on_c, 0, 75, 0
1, 100320, Note_on_c, 0, 41, 0
1, 100320, Note_on_c, 0, 29, 0
1, 100320, Note_on_c, 0, 84, 0
1, 100320, Note_on_c, 0, 90, 93
1, 100320, Note_on_c, 0, 78, 79
1, 100320, Note_on_c, 0, 87, 79
1, 100320, Note_on_c, 0, 34, 67
1, 100320, Note_on_c, 0, 46, 79
1, 100340, Tempo, 705882
1, 100352, Control_c, 0, 64, 127
1, 100440, Tempo, 666667
1, 100440, Note_on_c, 0, 87, 0
1, 100440, Note_on_c, 0, 90, 0
1, 100440, Note_on_c, 0, 78, 0
1, 100500, Note_on_c, 0, 77, 74
1, 100500, Note_on_c, 0, 85, 74
1, 100500, Note_on_c, 0, 89, 88
1, 100560, Tempo, 574163
1, 100560, Note_on_c, 0, 89, 0
1, 100560, Note_on_c, 0, 77, 0
1, 100560, Note_on_c, 0, 46, 0
1, 100560, Note_on_c, 0, 34, 0
1, 100560, Note_on_c, 0, 85, 0
1, 100560, Note_on_c, 0, 85, 74
1, 100560, Note_on_c, 0, 77, 74
1, 100560, Note_on_c, 0, 89, 93
1, 100560, Note_on_c, 0, 61, 61
1, 100560, Note_on_c, 0, 65, 73
1, 100560, Note_on_c, 0, 53, 61
1, 100680, Tempo, 714286
1, 100680, Note_on_c, 0, 89, 0
1, 100680, Note_on_c, 0, 85, 0
1, 100680, Note_on_c, 0, 77, 0
1, 100680, Note_on_c, 0, 76, 74
1, 100680, Note_on_c, 0, 88, 88
1, 100680, Note_on_c, 0, 84, 74
1, 100800, Tempo, 714286
1, 100800, Note_on_c, 0, 84, 0
1, 100800, Note_on_c, 0, 65, 0
1, 100800, Note_on_c, 0, 61, 0
1, 100800, Note_on_c, 0, 53, 0
1, 100800, Note_on_c, 0, 88, 0
1, 100800, Note_on_c, 0, 76, 0
1, 100800, Note_on_c, 0, 77, 88
1, 100800, Note_on_c, 0, 85, 74
1, 100800, Note_on_c, 0, 89, 88
1, 100800, Note_on_c, 0, 70, 75
1, 100800, Note_on_c, 0, 61, 75
1, 100800, Note_on_c, 0, 58, 63
1, 100813, Control_c, 0, 64, 0
1, 100980, Note_on_c, 0, 65, 71
1, 101040, Tempo, 681818
1, 101040, Note_on_c, 0, 65, 0
1, 101040, Note_on_c, 0, 61, 0
1, 101040, Note_on_c, 0, 85, 0
1, 101040, Note_on_c, 0, 89, 0
1, 101040, Note_on_c, 0, 77, 0
1, 101040, Note_on_c, 0, 58, 0
1, 101040, Note_on_c, 0, 70, 0
1, 101040, Note_on_c, 0, 65, 71
1, 101040, Note_on_c, 0, 41, 67
1, 101040, Note_on_c, 0, 53, 80
1, 101049, Control_c, 0, 64, 127
1, 101088, Note_on_c, 0, 65, 0
1, 101088, Note_on_c, 0, 66, 71
1, 101100, Note_on_c, 0, 53, 0
1, 101100, Note_on_c, 0, 41, 0
1, 101136, Note_on_c, 0, 66, 0
1, 101136, Note_on_c, 0, 65, 71
1, 101184, Note_on_c, 0, 65, 0
1, 101184, Note_on_c, 0, 64, 71
1, 101232, Note_on_c, 0, 64, 0
1, 101232, Note_on_c, 0, 65, 71
1, 101280, Tempo, 645161
1, 101280, Note_on_c, 0, 65, 0
1, 101280, Note_on_c, 0, 70, 87
1, 101280, Note_on_c, 0, 46, 73
1, 101280, Note_on_c, 0, 58, 86
1, 101291, Control_c, 0, 64, 0
1, 101400, Note_on_c, 0, 58, 0
1, 101400, Note_on_c, 0, 46, 0
1, 101520, Tempo, 701754
1, 101520, Note_on_c, 0, 70, 0
1, 101520, Note_on_c, 0, 79, 81
1, 101520, Note_on_c, 0, 91, 96
1, 101520, Note_on_c, 0, 85, 81
1, 101520, Note_on_c, 0, 34, 61
1, 101520, Note_on_c, 0, 46, 73
1, 101640, Tempo, 693642
1, 101640, Note_on_c, 0, 85, 0
1, 101640, Note_on_c, 0, 79, 0
1, 101640, Note_on_c, 0, 91, 0
1, 101640, Note_on_c, 0, 80, 80
1, 101640, Note_on_c, 0, 92, 94
1, 101660, Tempo, 745342
1, 101760, Tempo, 693642
1, 101760, Note_on_c, 0, 92, 0
1, 101760, Note_on_c, 0, 46, 0
1, 101760, Note_on_c, 0, 34, 0
1, 101760, Note_on_c, 0, 80, 0
1, 101760, Note_on_c, 0, 84, 85
1, 101760, Note_on_c, 0, 96, 101
1, 101760, Note_on_c, 0, 27, 67
1, 101760, Note_on_c, 0, 39, 79
1, 101792, Control_c, 0, 64, 127
1, 101880, Note_on_c, 0, 39, 0
1, 101880, Note_on_c, 0, 84, 0
1, 101880, Note_on_c, 0, 96, 0
1, 101880, Note_on_c, 0, 27, 0
1, 101880, Note_on_c, 0, 87, 74
1, 101880, Note_on_c, 0, 91, 88
1, 102000, Tempo, 571429
1, 102000, Note_on_c, 0, 91, 0
1, 102000, Note_on_c, 0, 87, 0
1, 102000, Note_on_c, 0, 96, 93
1, 102000, Note_on_c, 0, 84, 79
1, 102000, Note_on_c, 0, 67, 60
1, 102000, Note_on_c, 0, 61, 60
1, 102000, Note_on_c, 0, 72, 72
1, 102000, Note_on_c, 0, 63, 60
1, 102120, Tempo, 681818
1, 102120, Note_on_c, 0, 72, 0
1, 102120, Note_on_c, 0, 84, 0
1, 102120, Note_on_c, 0, 96, 0
1, 102120, Note_on_c, 0, 70, 70
1, 102180, Note_on_c, 0, 94, 92
1, 102180, Note_on_c, 0, 82, 78
1, 102187, Control_c, 0, 64, 0
1, 102234, Note_on_c, 0, 82, 0
1, 102234, Note_on_c, 0, 94, 0
1, 102240, Tempo, 666667
1, 102240, Note_on_c, 0, 61, 0
1, 102240, Note_on_c, 0, 67, 0
1, 102240, Note_on_c, 0, 63, 0
1, 102240, Note_on_c, 0, 70, 0
1, 102240, Note_on_c, 0, 82, 81
1, 102240, Note_on_c, 0, 94, 97
1, 102240, Note_on_c, 0, 51, 75
1, 102272, Control_c, 0, 64, 127
1, 102360, Note_on_c, 0, 51, 0
1, 102360, Note_on_c, 0, 94, 0
1, 102360, Note_on_c, 0, 82, 0
1, 102360, Note_on_c, 0, 84, 70
1, 102360, Note_on_c, 0, 87, 84
1, 102480, Tempo, 571429
1, 102480, Note_on_c, 0, 87, 0
1, 102480, Note_on_c, 0, 84, 0
1, 102480, Note_on_c, 0, 94, 90
1, 102480, Note_on_c, 0, 82, 75
1, 102480, Note_on_c, 0, 70, 72
1, 102480, Note_on_c, 0, 60, 58
1, 102480, Note_on_c, 0, 63, 69
1, 102600, Tempo, 681818
1, 102600, Note_on_c, 0, 70, 0
1, 102600, Note_on_c, 0, 94, 0
1, 102600, Note_on_c, 0, 82, 0
1, 102600, Note_on_c, 0, 68, 70
1, 102660, Note_on_c, 0, 80, 68
1, 102660, Note_on_c, 0, 92, 80
1, 102670, Control_c, 0, 64, 0
1, 102714, Note_on_c, 0, 92, 0
1, 102714, Note_on_c, 0, 80, 0
1, 102720, Tempo, 666667
1, 102720, Note_on_c, 0, 63, 0
1, 102720, Note_on_c, 0, 60, 0
1, 102720, Note_on_c, 0, 68, 0
1, 102720, Note_on_c, 0, 80, 79
1, 102720, Note_on_c, 0, 92, 93
1, 102720, Note_on_c, 0, 51, 73
1, 102752, Control_c, 0, 64, 127
1, 102840, Note_on_c, 0, 51, 0
1, 102840, Note_on_c, 0, 92, 0
1, 102840, Note_on_c, 0, 80, 0
1, 102840, Note_on_c, 0, 87, 79
1, 102840, Note_on_c, 0, 82, 67
1, 102960, Tempo, 571429
1, 102960, Note_on_c, 0, 82, 0
1, 102960, Note_on_c, 0, 87, 0
1, 102960, Note_on_c, 0, 92, 88
1, 102960, Note_on_c, 0, 80, 74
1, 102960, Note_on_c, 0, 68, 72
1, 102960, Note_on_c, 0, 58, 56
1, 102960, Note_on_c, 0, 63, 67
1, 103080, Tempo, 681818
1, 103080, Note_on_c, 0, 68, 0
1, 103080, Note_on_c, 0, 92, 0
1, 103080, Note_on_c, 0, 80, 0
1, 103080, Note_on_c, 0, 67, 70
1, 103140, Note_on_c, 0, 91, 79
1, 103140, Note_on_c, 0, 79, 67
1, 103150, Control_c, 0, 64, 0
1, 103194, Note_on_c, 0, 79, 0
1, 103194, Note_on_c, 0, 91, 0
1, 103200, Tempo, 666667
1, 103200, Note_on_c, 0, 63, 0
1, 103200, Note_on_c, 0, 58, 0
1, 103200, Note_on_c, 0, 67, 0
1, 103200, Note_on_c, 0, 79, 75
1, 103200, Note_on_c, 0, 91, 90
1, 103200, Note_on_c, 0, 46, 70
1, 103232, Control_c, 0, 64, 127
1, 103320, Note_on_c, 0, 46, 0
1, 103320, Note_on_c, 0, 91, 0
1, 103320, Note_on_c, 0, 79, 0
1, 103320, Note_on_c, 0, 86, 78
1, 103320, Note_on_c, 0, 82, 66
1, 103440, Tempo, 571429
1, 103440, Note_on_c, 0, 82, 0
1, 103440, Note_on_c, 0, 86, 0
1, 103440, Note_on_c, 0, 79, 72
1, 103440, Note_on_c, 0, 91, 85
1, 103440, Note_on_c, 0, 67, 72
1, 103440, Note_on_c, 0, 56, 55
1, 103440, Note_on_c, 0, 62, 66
1, 103440, Note_on_c, 0, 58, 55
1, 103560, Tempo, 681818
1, 103560, Note_on_c, 0, 67, 0
1, 103560, Note_on_c, 0, 79, 0
1, 103560, Note_on_c, 0, 91, 0
1, 103560, Note_on_c, 0, 65, 70
1, 103620, Note_on_c, 0, 89, 81
1, 103620, Note_on_c, 0, 77, 68
1, 103630, Control_c, 0, 64, 0
1, 103674, Note_on_c, 0, 77, 0
1, 103674, Note_on_c, 0, 89, 0
1, 103680, Tempo, 666667
1, 103680, Note_on_c, 0, 56, 0
1, 103680, Note_on_c, 0, 58, 0
1, 103680, Note_on_c, 0, 62, 0
1, 103680, Note_on_c, 0, 65, 0
1, 103680, Note_on_c, 0, 89, 88
1, 103680, Note_on_c, 0, 77, 73
1, 103680, Note_on_c, 0, 51, 72
1, 103712, Control_c, 0, 64, 127
1, 103800, Note_on_c, 0, 51, 0
1, 103800, Note_on_c, 0, 77, 0
1, 103800, Note_on_c, 0, 89, 0
1, 103800, Note_on_c, 0, 82, 75
1, 103800, Note_on_c, 0, 79, 64
1, 103920, Tempo, 571429
1, 103920, Note_on_c, 0, 79, 0
1, 103920, Note_on_c, 0, 82, 0
1, 103920, Note_on_c, 0, 77, 69
1, 103920, Note_on_c, 0, 89, 82
1, 103920, Note_on_c, 0, 65, 72
1, 103920, Note_on_c, 0, 55, 57
1, 103920, Note_on_c, 0, 58, 68
1, 104040, Tempo, 681818
1, 104040, Note_on_c, 0, 65, 0
1, 104040, Note_on_c, 0, 77, 0
1, 104040, Note_on_c, 0, 89, 0
1, 104040, Note_on_c, 0, 63, 70
1, 104100, Note_on_c, 0, 75, 64
1, 104100, Note_on_c, 0, 87, 75
1, 104110, Control_c, 0, 64, 0
1, 104160, Tempo, 666667
1, 104160, Note_on_c, 0, 87, 0
1, 104160, Note_on_c, 0, 63, 0
1, 104160, Note_on_c, 0, 58, 0
1, 104160, Note_on_c, 0, 55, 0
1, 104160, Note_on_c, 0, 75, 0
1, 104160, Note_on_c, 0, 73, 75
1, 104160, Note_on_c, 0, 85, 90
1, 104160, Note_on_c, 0, 41, 62
1, 104160, Note_on_c, 0, 53, 74
1, 104192, Control_c, 0, 64, 127
1, 104280, Note_on_c, 0, 85, 0
1, 104280, Note_on_c, 0, 73, 0
1, 104280, Note_on_c, 0, 77, 64
1, 104280, Note_on_c, 0, 80, 75
1, 104400, Tempo, 571429
1, 104400, Note_on_c, 0, 80, 0
1, 104400, Note_on_c, 0, 77, 0
1, 104400, Note_on_c, 0, 41, 0
1, 104400, Note_on_c, 0, 85, 84
1, 104400, Note_on_c, 0, 73, 70
1, 104400, Note_on_c, 0, 61, 72
1, 104400, Note_on_c, 0, 56, 68
1, 104520, Tempo, 681818
1, 104520, Note_on_c, 0, 61, 0
1, 104520, Note_on_c, 0, 73, 0
1, 104520, Note_on_c, 0, 85, 0
1, 104520, Note_on_c, 0, 60, 70
1, 104580, Note_on_c, 0, 84, 74
1, 104580, Note_on_c, 0, 72, 63
1, 104587, Control_c, 0, 64, 0
1, 104640, Note_on_c, 0, 72, 0
1, 104640, Note_on_c, 0, 60, 0
1, 104640, Note_on_c, 0, 56, 0
1, 104640, Note_on_c, 0, 53, 0
1, 104640, Note_on_c, 0, 84, 0
1, 104640, Note_on_c, 0, 65, 92
1, 104640, Note_on_c, 0, 37, 62
1, 104640, Note_on_c, 0, 49, 74
1, 104721, Control_c, 0, 64, 127
1, 104880, Tempo, 655738
1, 104880, Note_on_c, 0, 49, 0
1, 104880, Note_on_c, 0, 37, 0
1, 104880, Note_on_c, 0, 53, 55
1, 104880, Note_on_c, 0, 58, 64
1, 105100, Tempo, 662983
1, 105120, Tempo, 659341
1, 105120, Note_on_c, 0, 58, 0
1, 105120, Note_on_c, 0, 53, 0
1, 105120, Note_on_c, 0, 65, 0
1, 105120, Note_on_c, 0, 67, 56
1, 105120, Note_on_c, 0, 36, 50
1, 105120, Note_on_c, 0, 48, 60
1, 105130, Control_c, 0, 64, 0
1, 105140, Tempo, 652174
1, 105160, Tempo, 648649
1, 105180, Tempo, 641711
1, 105180, Note_on_c, 0, 67, 0
1, 105180, Note_on_c, 0, 68, 56
1, 105198, Control_c, 0, 64, 127
1, 105200, Tempo, 638298
1, 105220, Tempo, 631579
1, 105240, Tempo, 628272
1, 105240, Note_on_c, 0, 68, 0
1, 105240, Note_on_c, 0, 67, 56
1, 105260, Tempo, 621762
1, 105280, Tempo, 618557
1, 105300, Tempo, 612245
1, 105300, Note_on_c, 0, 67, 0
1, 105300, Note_on_c, 0, 68, 57
1, 105320, Tempo, 609137
1, 105340, Tempo, 603015
1, 105360, Tempo, 652174
1, 105360, Note_on_c, 0, 68, 0
1, 105360, Note_on_c, 0, 48, 0
1, 105360, Note_on_c, 0, 36, 0
1, 105360, Note_on_c, 0, 65, 57
1, 105360, Note_on_c, 0, 52, 45
1, 105360, Note_on_c, 0, 60, 54
1, 105360, Note_on_c, 0, 58, 45
1, 105369, Control_c, 0, 64, 0
1, 105480, Note_on_c, 0, 65, 0
1, 105480, Note_on_c, 0, 67, 58
1, 105580, Tempo, 648649
1, 105600, Tempo, 645161
1, 105600, Note_on_c, 0, 67, 0
1, 105600, Note_on_c, 0, 58, 0
1, 105600, Note_on_c, 0, 60, 0
1, 105600, Note_on_c, 0, 52, 0
1, 105600, Note_on_c, 0, 68, 60
1, 105600, Note_on_c, 0, 29, 52
1, 105600, Note_on_c, 0, 41, 62
1, 105620, Tempo, 641711
1, 105640, Tempo, 638298
1, 105660, Tempo, 634921
1, 105660, Note_on_c, 0, 68, 0
1, 105660, Note_on_c, 0, 70, 60
1, 105667, Control_c, 0, 64, 127
1, 105680, Tempo, 631579
1, 105700, Tempo, 625000
1, 105720, Tempo, 621762
1, 105720, Note_on_c, 0, 70, 0
1, 105720, Note_on_c, 0, 68, 61
1, 105740, Tempo, 618557
1, 105760, Tempo, 615385
1, 105780, Tempo, 612245
1, 105780, Note_on_c, 0, 68, 0
1, 105780, Note_on_c, 0, 70, 61
1, 105800, Tempo, 609137
1, 105820, Tempo, 603015
1, 105840, Tempo, 652174
1, 105840, Note_on_c, 0, 70, 0
1, 105840, Note_on_c, 0, 41, 0
1, 105840, Note_on_c, 0, 29, 0
1, 105840, Note_on_c, 0, 67, 62
1, 105840, Note_on_c, 0, 53, 58
1, 105840, Note_on_c, 0, 56, 58
1, 105840, Note_on_c, 0, 60, 58
1, 105853, Control_c, 0, 64, 0
1, 105960, Note_on_c, 0, 67, 0
1, 105960, Note_on_c, 0, 68, 63
1, 106080, Tempo, 666815
1, 106080, Note_on_c, 0, 68, 0
1, 106080, Note_on_c, 0, 60, 0
1, 106080, Note_on_c, 0, 56, 0
1, 106080, Note_on_c, 0, 53, 0
1, 106080, Note_on_c, 0, 61, 46
1, 106080, Note_on_c, 0, 67, 46
1, 106080, Note_on_c, 0, 69, 65
1, 106080, Note_on_c, 0, 39, 43
1, 106080, Note_on_c, 0, 51, 51
1, 106126, Control_c, 0, 64, 127
1, 106200, Tempo, 678119
1, 106200, Note_on_c, 0, 51, 0
1, 106200, Note_on_c, 0, 69, 0
1, 106200, Note_on_c, 0, 39, 0
1, 106200, Note_on_c, 0, 70, 61
1, 106320, Tempo, 648789
1, 106320, Note_on_c, 0, 70, 0
1, 106320, Note_on_c, 0, 67, 0
1, 106320, Note_on_c, 0, 61, 0
1, 106320, Note_on_c, 0, 61, 43
1, 106320, Note_on_c, 0, 67, 43
1, 106320, Note_on_c, 0, 72, 61
1, 106320, Note_on_c, 0, 51, 40
1, 106320, Note_on_c, 0, 58, 47
1, 106440, Tempo, 689655
1, 106440, Note_on_c, 0, 72, 0
1, 106440, Note_on_c, 0, 73, 61
1, 106560, Tempo, 652174
1, 106560, Note_on_c, 0, 73, 0
1, 106560, Note_on_c, 0, 58, 0
1, 106560, Note_on_c, 0, 61, 0
1, 106560, Note_on_c, 0, 67, 0
1, 106560, Note_on_c, 0, 51, 0
1, 106560, Note_on_c, 0, 60, 46
1, 106560, Note_on_c, 0, 68, 55
1, 106560, Note_on_c, 0, 72, 65
1, 106560, Note_on_c, 0, 44, 40
1, 106560, Note_on_c, 0, 51, 48
1, 106560, Note_on_c, 0, 56, 56
1, 106579, Control_c, 0, 64, 0
1, 106800, Tempo, 652174
1, 106800, Note_on_c, 0, 56, 0
1, 106800, Note_on_c, 0, 68, 0
1, 106800, Note_on_c, 0, 72, 0
1, 106800, Note_on_c, 0, 60, 0
1, 106800, Note_on_c, 0, 51, 0
1, 106800, Note_on_c, 0, 44, 0
1, 106800, Note_on_c, 0, 77, 66
1, 106800, Note_on_c, 0, 59, 56
1, 106800, Note_on_c, 0, 62, 56
1, 106800, Note_on_c, 0, 65, 56
1, 106800, Note_on_c, 0, 68, 56
1, 106980, Note_on_c, 0, 68, 0
1, 106980, Note_on_c, 0, 62, 0
1, 106980, Note_on_c, 0, 77, 0
1, 106980, Note_on_c, 0, 59, 0
1, 106980, Note_on_c, 0, 65, 0
1, 106980, Note_on_c, 0, 63, 50
1, 106980, Note_on_c, 0, 60, 50
1, 106980, Note_on_c, 0, 75, 60
1, 106980, Note_on_c, 0, 68, 50
1, 107034, Note_on_c, 0, 68, 0
1, 107034, Note_on_c, 0, 63, 0
1, 107034, Note_on_c, 0, 60, 0
1, 107034, Note_on_c, 0, 75, 0
1, 107040, Note_on_c, 0, 60, 56
1, 107040, Note_on_c, 0, 75, 67
1, 107040, Note_on_c, 0, 63, 56
1, 107040, Note_on_c, 0, 68, 56
1, 107160, Note_on_c, 0, 68, 0
1, 107160, Note_on_c, 0, 60, 0
1, 107160, Note_on_c, 0, 75, 0
1, 107160, Note_on_c, 0, 63, 0
1, 107160, Note_on_c, 0, 68, 63
1, 107280, Tempo, 674157
1, 107280, Note_on_c, 0, 80, 75
1, 107280, Note_on_c, 0, 44, 55
1, 107280, Note_on_c, 0, 56, 65
1, 107400, Note_on_c, 0, 80, 0
1, 107400, Note_on_c, 0, 68, 0
1, 107460, Note_on_c, 0, 67, 58
1, 107460, Note_on_c, 0, 79, 70
1, 107520, Tempo, 701754
1, 107520, Note_on_c, 0, 79, 0
1, 107520, Note_on_c, 0, 56, 0
1, 107520, Note_on_c, 0, 44, 0
1, 107520, Note_on_c, 0, 67, 0
1, 107520, Note_on_c, 0, 65, 58
1, 107520, Note_on_c, 0, 77, 70
1, 107520, Note_on_c, 0, 37, 56
1, 107520, Note_on_c, 0, 49, 67
1, 107555, Control_c, 0, 64, 0
1, 107601, Control_c, 0, 64, 127
1, 107760, Tempo, 655738
1, 107760, Note_on_c, 0, 49, 0
1, 107760, Note_on_c, 0, 37, 0
1, 107760, Note_on_c, 0, 53, 50
1, 107760, Note_on_c, 0, 58, 58
1, 107980, Tempo, 662983
1, 108000, Tempo, 659341
1, 108000, Note_on_c, 0, 58, 0
1, 108000, Note_on_c, 0, 65, 0
1, 108000, Note_on_c, 0, 77, 0
1, 108000, Note_on_c, 0, 53, 0
1, 108000, Note_on_c, 0, 67, 64
1, 108000, Note_on_c, 0, 36, 57
1, 108000, Note_on_c, 0, 48, 69
1, 108011, Control_c, 0, 64, 0
1, 108020, Tempo, 652174
1, 108040, Tempo, 648649
1, 108060, Tempo, 641711
1, 108078, Control_c, 0, 64, 127
1, 108080, Tempo, 638298
1, 108100, Tempo, 631579
1, 108120, Tempo, 628272
1, 108120, Note_on_c, 0, 67, 0
1, 108120, Note_on_c, 0, 79, 64
1, 108140, Tempo, 621762
1, 108160, Tempo, 618557
1, 108160, Note_on_c, 0, 79, 0
1, 108160, Note_on_c, 0, 80, 65
1, 108180, Tempo, 612245
1, 108200, Tempo, 609137
1, 108200, Note_on_c, 0, 80, 0
1, 108200, Note_on_c, 0, 79, 64
1, 108220, Tempo, 603015
1, 108240, Tempo, 652174
1, 108240, Note_on_c, 0, 79, 0
1, 108240, Note_on_c, 0, 48, 0
1, 108240, Note_on_c, 0, 36, 0
1, 108240, Note_on_c, 0, 65, 55
1, 108240, Note_on_c, 0, 77, 65
1, 108240, Note_on_c, 0, 58, 51
1, 108240, Note_on_c, 0, 64, 62
1, 108240, Note_on_c, 0, 60, 51
1, 108250, Control_c, 0, 64, 0
1, 108360, Note_on_c, 0, 77, 0
1, 108360, Note_on_c, 0, 65, 0
1, 108360, Note_on_c, 0, 67, 55
1, 108360, Note_on_c, 0, 79, 66
1, 108460, Tempo, 648649
1, 108480, Tempo, 645161
1, 108480, Note_on_c, 0, 79, 0
1, 108480, Note_on_c, 0, 64, 0
1, 108480, Note_on_c, 0, 60, 0
1, 108480, Note_on_c, 0, 58, 0
1, 108480, Note_on_c, 0, 67, 0
1, 108480, Note_on_c, 0, 68, 64
1, 108480, Note_on_c, 0, 29, 59
1, 108480, Note_on_c, 0, 41, 71
1, 108500, Tempo, 641711
1, 108520, Tempo, 638298
1, 108540, Tempo, 634921
1, 108547, Control_c, 0, 64, 127
1, 108560, Tempo, 631579
1, 108580, Tempo, 625000
1, 108600, Tempo, 621762
1, 108600, Note_on_c, 0, 68, 0
1, 108600, Note_on_c, 0, 80, 64
1, 108620, Tempo, 618557
1, 108640, Tempo, 615385
1, 108640, Note_on_c, 0, 80, 0
1, 108640, Note_on_c, 0, 82, 64
1, 108660, Tempo, 612245
1, 108680, Tempo, 609137
1, 108680, Note_on_c, 0, 82, 0
1, 108680, Note_on_c, 0, 80, 64
1, 108700, Tempo, 603015
1, 108720, Tempo, 652174
1, 108720, Note_on_c, 0, 80, 0
1, 108720, Note_on_c, 0, 41, 0
1, 108720, Note_on_c, 0, 29, 0
1, 108720, Note_on_c, 0, 67, 59
1, 108720, Note_on_c, 0, 79, 71
1, 108720, Note_on_c, 0, 56, 66
1, 108720, Note_on_c, 0, 60, 66
1, 108720, Note_on_c, 0, 65, 66
1, 108734, Control_c, 0, 64, 0
1, 108840, Note_on_c, 0, 79, 0
1, 108840, Note_on_c, 0, 67, 0
1, 108840, Note_on_c, 0, 68, 60
1, 108840, Note_on_c, 0, 80, 72
1, 108960, Tempo, 662983
1, 108960, Note_on_c, 0, 80, 0
1, 108960, Note_on_c, 0, 60, 0
1, 108960, Note_on_c, 0, 65, 0
1, 108960, Note_on_c, 0, 56, 0
1, 108960, Note_on_c, 0, 68, 0
1, 108960, Note_on_c, 0, 69, 52
1, 108960, Note_on_c, 0, 75, 52
1, 108960, Note_on_c, 0, 81, 74
1, 108960, Note_on_c, 0, 39, 58
1, 108960, Note_on_c, 0, 51, 70
1, 109006, Control_c, 0, 64, 127
1, 109080, Tempo, 670541
1, 109080, Note_on_c, 0, 51, 0
1, 109080, Note_on_c, 0, 81, 0
1, 109080, Note_on_c, 0, 69, 0
1, 109080, Note_on_c, 0, 75, 0
1, 109080, Note_on_c, 0, 39, 0
1, 109080, Note_on_c, 0, 70, 63
1, 109080, Note_on_c, 0, 82, 70
1, 109200, Tempo, 645300
1, 109200, Note_on_c, 0, 82, 0
1, 109200, Note_on_c, 0, 70, 0
1, 109200, Note_on_c, 0, 72, 49
1, 109200, Note_on_c, 0, 79, 58
1, 109200, Note_on_c, 0, 84, 70
1, 109200, Note_on_c, 0, 58, 46
1, 109200, Note_on_c, 0, 61, 46
1, 109200, Note_on_c, 0, 63, 55
1, 109200, Note_on_c, 0, 67, 64
1, 109215, Control_c, 0, 64, 0
1, 109320, Tempo, 674309
1, 109320, Note_on_c, 0, 84, 0
1, 109320, Note_on_c, 0, 72, 0
1, 109320, Note_on_c, 0, 79, 0
1, 109320, Note_on_c, 0, 73, 58
1, 109320, Note_on_c, 0, 85, 70
1, 109440, Tempo, 681818
1, 109440, Note_on_c, 0, 85, 0
1, 109440, Note_on_c, 0, 63, 0
1, 109440, Note_on_c, 0, 67, 0
1, 109440, Note_on_c, 0, 58, 0
1, 109440, Note_on_c, 0, 73, 0
1, 109440, Note_on_c, 0, 61, 0
1, 109440, Note_on_c, 0, 72, 63
1, 109440, Note_on_c, 0, 80, 63
1, 109440, Note_on_c, 0, 84, 74
1, 109440, Note_on_c, 0, 56, 55
1, 109440, Note_on_c, 0, 63, 55
1, 109440, Note_on_c, 0, 68, 64
1, 109560, Note_on_c, 0, 68, 0
1, 109560, Note_on_c, 0, 80, 0
1, 109560, Note_on_c, 0, 84, 0
1, 109560, Note_on_c, 0, 72, 0
1, 109560, Note_on_c, 0, 63, 0
1, 109560, Note_on_c, 0, 56, 0
1, 109680, Tempo, 689655
1, 109680, Note_on_c, 0, 77, 64
1, 109680, Note_on_c, 0, 80, 64
1, 109680, Note_on_c, 0, 89, 75
1, 109680, Note_on_c, 0, 68, 64
1, 109680, Note_on_c, 0, 59, 64
1, 109680, Note_on_c, 0, 62, 64
1, 109680, Note_on_c, 0, 71, 64
1, 109800, Tempo, 710059
1, 109860, Note_on_c, 0, 71, 0
1, 109860, Note_on_c, 0, 59, 0
1, 109860, Note_on_c, 0, 80, 0
1, 109860, Note_on_c, 0, 89, 0
1, 109860, Note_on_c, 0, 77, 0
1, 109860, Note_on_c, 0, 62, 0
1, 109860, Note_on_c, 0, 68, 0
1, 109860, Note_on_c, 0, 75, 57
1, 109860, Note_on_c, 0, 80, 57
1, 109860, Note_on_c, 0, 87, 69
1, 109860, Note_on_c, 0, 68, 57
1, 109860, Note_on_c, 0, 60, 57
1, 109860, Note_on_c, 0, 72, 57
1, 109860, Note_on_c, 0, 63, 57
1, 109914, Note_on_c, 0, 63, 0
1, 109914, Note_on_c, 0, 60, 0
1, 109914, Note_on_c, 0, 80, 0
1, 109914, Note_on_c, 0, 87, 0
1, 109914, Note_on_c, 0, 75, 0
1, 109914, Note_on_c, 0, 72, 0
1, 109914, Note_on_c, 0, 68, 0
1, 109920, Tempo, 689655
1, 109920, Note_on_c, 0, 75, 64
1, 109920, Note_on_c, 0, 80, 64
1, 109920, Note_on_c, 0, 87, 77
1, 109920, Note_on_c, 0, 68, 64
1, 109920, Note_on_c, 0, 72, 64
1, 109920, Note_on_c, 0, 60, 64
1, 109920, Note_on_c, 0, 63, 64
1, 110040, Note_on_c, 0, 63, 0
1, 110040, Note_on_c, 0, 72, 0
1, 110040, Note_on_c, 0, 80, 0
1, 110040, Note_on_c, 0, 87, 0
1, 110040, Note_on_c, 0, 75, 0
1, 110040, Note_on_c, 0, 60, 0
1, 110040, Note_on_c, 0, 68, 0
1, 110070, Note_on_c, 0, 53, 55
1, 110100, Note_on_c, 0, 87, 59
1, 110100, Note_on_c, 0, 75, 59
1, 110100, Note_on_c, 0, 60, 55
1, 110100, Control_c, 0, 64, 127
1, 110130, Note_on_c, 0, 63, 55
1, 110160, Tempo, 666667
1, 110160, Note_on_c, 0, 75, 0
1, 110160, Note_on_c, 0, 87, 0
1, 110160, Note_on_c, 0, 73, 64
1, 110160, Note_on_c, 0, 81, 64
1, 110160, Note_on_c, 0, 85, 75
1, 110160, Note_on_c, 0, 69, 65
1, 110340, Note_on_c, 0, 69, 0
1, 110340, Note_on_c, 0, 81, 0
1, 110340, Note_on_c, 0, 60, 0
1, 110340, Note_on_c, 0, 53, 0
1, 110340, Note_on_c, 0, 63, 0
1, 110340, Note_on_c, 0, 85, 0
1, 110340, Note_on_c, 0, 73, 0
1, 110340, Note_on_c, 0, 72, 58
1, 110340, Note_on_c, 0, 84, 70
1, 110340, Note_on_c, 0, 46, 59
1, 110370, Note_on_c, 0, 53, 59
1, 110375, Control_c, 0, 64, 0
1, 110400, Tempo, 697674
1, 110400, Note_on_c, 0, 84, 0
1, 110400, Note_on_c, 0, 72, 0
1, 110400, Note_on_c, 0, 70, 64
1, 110400, Note_on_c, 0, 82, 75
1, 110400, Note_on_c, 0, 61, 71
1, 110440, Control_c, 0, 64, 127
1, 110520, Note_on_c, 0, 82, 0
1, 110520, Note_on_c, 0, 70, 0
1, 110580, Note_on_c, 0, 53, 0
1, 110580, Note_on_c, 0, 46, 0
1, 110580, Note_on_c, 0, 61, 0
1, 110580, Note_on_c, 0, 51, 55
1, 110609, Control_c, 0, 64, 0
1, 110610, Note_on_c, 0, 58, 55
1, 110640, Tempo, 674157
1, 110640, Note_on_c, 0, 70, 58
1, 110640, Note_on_c, 0, 78, 58
1, 110640, Note_on_c, 0, 82, 70
1, 110640, Note_on_c, 0, 66, 65
1, 110683, Control_c, 0, 64, 127
1, 110820, Note_on_c, 0, 66, 0
1, 110820, Note_on_c, 0, 58, 0
1, 110820, Note_on_c, 0, 70, 0
1, 110820, Note_on_c, 0, 51, 0
1, 110820, Note_on_c, 0, 82, 0
1, 110820, Note_on_c, 0, 78, 0
1, 110820, Note_on_c, 0, 72, 58
1, 110820, Note_on_c, 0, 84, 70
1, 110820, Note_on_c, 0, 46, 51
1, 110831, Control_c, 0, 64, 0
1, 110850, Note_on_c, 0, 53, 51
1, 110880, Tempo, 677966
1, 110880, Note_on_c, 0, 84, 0
1, 110880, Note_on_c, 0, 72, 0
1, 110880, Note_on_c, 0, 73, 62
1, 110880, Note_on_c, 0, 77, 62
1, 110880, Note_on_c, 0, 85, 73
1, 110880, Note_on_c, 0, 61, 62
1, 110920, Tempo, 701754
1, 110920, Control_c, 0, 64, 127
1, 111060, Note_on_c, 0, 61, 0
1, 111060, Note_on_c, 0, 53, 0
1, 111060, Note_on_c, 0, 46, 0
1, 111060, Note_on_c, 0, 39, 51
1, 111066, Control_c, 0, 64, 0
1, 111090, Note_on_c, 0, 46, 51
1, 111120, Tempo, 670391
1, 111120, Note_on_c, 0, 77, 0
1, 111120, Note_on_c, 0, 73, 0
1, 111120, Note_on_c, 0, 85, 0
1, 111120, Note_on_c, 0, 75, 60
1, 111120, Note_on_c, 0, 73, 60
1, 111120, Note_on_c, 0, 85, 72
1, 111120, Note_on_c, 0, 78, 60
1, 111120, Note_on_c, 0, 54, 62
1, 111154, Control_c, 0, 64, 127
1, 111300, Note_on_c, 0, 54, 0
1, 111300, Note_on_c, 0, 85, 0
1, 111300, Note_on_c, 0, 39, 0
1, 111300, Note_on_c, 0, 75, 0
1, 111300, Note_on_c, 0, 46, 0
1, 111300, Note_on_c, 0, 78, 0
1, 111300, Note_on_c, 0, 73, 0
1, 111300, Note_on_c, 0, 72, 57
1, 111300, Note_on_c, 0, 84, 69
1, 111300, Note_on_c, 0, 34, 51
1, 111329, Control_c, 0, 64, 0
1, 111330, Note_on_c, 0, 41, 51
1, 111360, Tempo, 701754
1, 111360, Note_on_c, 0, 84, 0
1, 111360, Note_on_c, 0, 72, 0
1, 111360, Note_on_c, 0, 70, 63
1, 111360, Note_on_c, 0, 77, 63
1, 111360, Note_on_c, 0, 82, 74
1, 111360, Note_on_c, 0, 49, 62
1, 111391, Control_c, 0, 64, 127
1, 111540, Note_on_c, 0, 49, 0
1, 111540, Note_on_c, 0, 41, 0
1, 111540, Note_on_c, 0, 34, 0
1, 111540, Note_on_c, 0, 39, 50
1, 111570, Note_on_c, 0, 46, 50
1, 111600, Tempo, 670391
1, 111600, Note_on_c, 0, 77, 0
1, 111600, Note_on_c, 0, 70, 0
1, 111600, Note_on_c, 0, 82, 0
1, 111600, Note_on_c, 0, 68, 60
1, 111600, Note_on_c, 0, 75, 60
1, 111600, Note_on_c, 0, 80, 72
1, 111600, Note_on_c, 0, 70, 60
1, 111600, Note_on_c, 0, 54, 60
1, 111649, Control_c, 0, 64, 0
1, 111697, Control_c, 0, 64, 127
1, 111780, Note_on_c, 0, 54, 0
1, 111780, Note_on_c, 0, 80, 0
1, 111780, Note_on_c, 0, 39, 0
1, 111780, Note_on_c, 0, 68, 0
1, 111780, Note_on_c, 0, 46, 0
1, 111780, Note_on_c, 0, 70, 0
1, 111780, Note_on_c, 0, 75, 0
1, 111780, Note_on_c, 0, 66, 56
1, 111780, Note_on_c, 0, 78, 67
1, 111780, Note_on_c, 0, 46, 55
1, 111810, Note_on_c, 0, 53, 55
1, 111840, Time_signature, 17, 4, 6, 8
1, 111840, Note_on_c, 0, 78, 0
1, 111840, Note_on_c, 0, 66, 0
1, 111840, Note_on_c, 0, 73, 59
1, 111840, Note_on_c, 0, 77, 71
1, 111840, Note_on_c, 0, 65, 59
1, 111840, Note_on_c, 0, 61, 65
1, 111860, Control_c, 0, 64, 0
1, 111880, Tempo, 693642
1, 111897, Control_c, 0, 64, 127
1, 111960, Note_on_c, 0, 65, 0
1, 111960, Note_on_c, 0, 77, 0
1, 111960, Note_on_c, 0, 73, 0
1, 112020, Note_on_c, 0, 53, 0
1, 112020, Note_on_c, 0, 61, 0
1, 112020, Note_on_c, 0, 46, 0
1, 112080, Note_on_c, 0, 45, 64
1, 112080, Note_on_c, 0, 33, 55
1, 112092, Tempo, 666667
1, 112096, Control_c, 0, 64, 0
1, 112129, Control_c, 0, 64, 127
1, 112140, Note_on_c, 0, 33, 0
1, 112140, Note_on_c, 0, 45, 0
1, 112140, Note_on_c, 0, 46, 64
1, 112140, Note_on_c, 0, 34, 55
1, 112184, Tempo, 662983
1, 112200, Note_on_c, 0, 34, 0
1, 112200, Note_on_c, 0, 46, 0
1, 112200, Note_on_c, 0, 48, 66
1, 112200, Note_on_c, 0, 36, 56
1, 112260, Note_on_c, 0, 36, 0
1, 112260, Note_on_c, 0, 48, 0
1, 112260, Note_on_c, 0, 49, 67
1, 112260, Note_on_c, 0, 37, 56
1, 112264, Tempo, 659341
1, 112320, Note_on_c, 0, 37, 0
1, 112320, Note_on_c, 0, 49, 0
1, 112320, Note_on_c, 0, 51, 67
1, 112320, Note_on_c, 0, 39, 56
1, 112344, Tempo, 655738
1, 112380, Note_on_c, 0, 39, 0
1, 112380, Note_on_c, 0, 51, 0
1, 112380, Note_on_c, 0, 53, 68
1, 112380, Note_on_c, 0, 41, 57
1, 112424, Tempo, 652174
1, 112440, Note_on_c, 0, 41, 0
1, 112440, Note_on_c, 0, 53, 0
1, 112440, Note_on_c, 0, 55, 69
1, 112440, Note_on_c, 0, 43, 58
1, 112500, Note_on_c, 0, 43, 0
1, 112500, Note_on_c, 0, 55, 0
1, 112500, Note_on_c, 0, 57, 69
1, 112500, Note_on_c, 0, 45, 58
1, 112504, Tempo, 648649
1, 112560, Note_on_c, 0, 45, 0
1, 112560, Note_on_c, 0, 57, 0
1, 112560, Note_on_c, 0, 58, 70
1, 112560, Note_on_c, 0, 46, 59
1, 112584, Tempo, 645161
1, 112620, Note_on_c, 0, 46, 0
1, 112620, Note_on_c, 0, 58, 0
1, 112620, Note_on_c, 0, 60, 71
1, 112620, Note_on_c, 0, 48, 60
1, 112664, Tempo, 641711
1, 112680, Note_on_c, 0, 48, 0
1, 112680, Note_on_c, 0, 60, 0
1, 112680, Note_on_c, 0, 61, 71
1, 112680, Note_on_c, 0, 49, 60
1, 112740, Note_on_c, 0, 49, 0
1, 112740, Note_on_c, 0, 61, 0
1, 112740, Note_on_c, 0, 63, 72
1, 112740, Note_on_c, 0, 51, 61
1, 112744, Tempo, 638298
1, 112800, Note_on_c, 0, 51, 0
1, 112800, Note_on_c, 0, 63, 0
1, 112800, Note_on_c, 0, 65, 73
1, 112800, Note_on_c, 0, 53, 61
1, 112824, Tempo, 634921
1, 112860, Note_on_c, 0, 53, 0
1, 112860, Note_on_c, 0, 65, 0
1, 112860, Note_on_c, 0, 67, 73
1, 112860, Note_on_c, 0, 55, 61
1, 112904, Tempo, 631579
1, 112920, Note_on_c, 0, 55, 0
1, 112920, Note_on_c, 0, 67, 0
1, 112920, Note_on_c, 0, 69, 74
1, 112920, Note_on_c, 0, 57, 62
1, 112980, Note_on_c, 0, 57, 0
1, 112980, Note_on_c, 0, 69, 0
1, 112980, Note_on_c, 0, 70, 74
1, 112980, Note_on_c, 0, 58, 62
1, 112984, Tempo, 628272
1, 113040, Note_on_c, 0, 58, 0
1, 113040, Note_on_c, 0, 70, 0
1, 113040, Note_on_c, 0, 72, 75
1, 113040, Note_on_c, 0, 60, 63
1, 113064, Tempo, 625000
1, 113100, Note_on_c, 0, 60, 0
1, 113100, Note_on_c, 0, 72, 0
1, 113100, Note_on_c, 0, 73, 77
1, 113100, Note_on_c, 0, 61, 64
1, 113144, Tempo, 621762
1, 113160, Note_on_c, 0, 61, 0
1, 113160, Note_on_c, 0, 73, 0
1, 113160, Note_on_c, 0, 75, 77
1, 113160, Note_on_c, 0, 63, 64
1, 113220, Note_on_c, 0, 63, 0
1, 113220, Note_on_c, 0, 75, 0
1, 113220, Note_on_c, 0, 77, 78
1, 113220, Note_on_c, 0, 65, 66
1, 113224, Tempo, 618557
1, 113280, Note_on_c, 0, 65, 0
1, 113280, Note_on_c, 0, 77, 0
1, 113280, Note_on_c, 0, 79, 77
1, 113280, Note_on_c, 0, 67, 67
1, 113304, Tempo, 615385
1, 113340, Note_on_c, 0, 67, 0
1, 113340, Note_on_c, 0, 79, 0
1, 113340, Note_on_c, 0, 81, 77
1, 113340, Note_on_c, 0, 69, 65
1, 113384, Tempo, 612245
1, 113400, Note_on_c, 0, 69, 0
1, 113400, Note_on_c, 0, 81, 0
1, 113400, Note_on_c, 0, 82, 78
1, 113400, Note_on_c, 0, 70, 66
1, 113460, Note_on_c, 0, 70, 0
1, 113460, Note_on_c, 0, 82, 0
1, 113460, Note_on_c, 0, 84, 79
1, 113460, Note_on_c, 0, 72, 67
1, 113464, Tempo, 609137
1, 113520, Note_on_c, 0, 72, 0
1, 113520, Note_on_c, 0, 84, 0
1, 113520, Note_on_c, 0, 85, 80
1, 113520, Note_on_c, 0, 73, 68
1, 113544, Tempo, 606061
1, 113580, Note_on_c, 0, 73, 0
1, 113580, Note_on_c, 0, 85, 0
1, 113580, Note_on_c, 0, 87, 80
1, 113580, Note_on_c, 0, 75, 69
1, 113624, Tempo, 603015
1, 113640, Note_on_c, 0, 75, 0
1, 113640, Note_on_c, 0, 87, 0
1, 113640, Note_on_c, 0, 89, 81
1, 113640, Note_on_c, 0, 77, 70
1, 113700, Note_on_c, 0, 77, 0
1, 113700, Note_on_c, 0, 89, 0
1, 113700, Note_on_c, 0, 91, 82
1, 113700, Note_on_c, 0, 79, 71
1, 113720, Tempo, 476190
1, 113790, Note_on_c, 0, 79, 0
1, 113790, Note_on_c, 0, 91, 0
1, 113790, Note_on_c, 0, 93, 83
1, 113790, Note_on_c, 0, 81, 72
1, 113850, Note_on_c, 0, 81, 0
1, 113880, Time_signature, 3, 2, 24, 8
1, 113880, Tempo, 705882
1, 113880, Note_on_c, 0, 93, 0
1, 113880, Note_on_c, 0, 94, 92
1, 113880, Note_on_c, 0, 82, 92
1, 113902, Control_c, 0, 64, 0
1, 114000, Note_on_c, 0, 82, 0
1, 114000, Note_on_c, 0, 94, 0
1, 114060, Note_on_c, 0, 96, 85
1, 114120, Tempo, 648649
1, 114120, Note_on_c, 0, 96, 0
1, 114120, Note_on_c, 0, 85, 77
1, 114120, Note_on_c, 0, 94, 91
1, 114120, Note_on_c, 0, 91, 91
1, 114120, Note_on_c, 0, 27, 68
1, 114120, Note_on_c, 0, 39, 80
1, 114131, Control_c, 0, 64, 127
1, 114240, Note_on_c, 0, 39, 0
1, 114240, Note_on_c, 0, 91, 0
1, 114240, Note_on_c, 0, 85, 0
1, 114240, Note_on_c, 0, 94, 0
1, 114240, Note_on_c, 0, 27, 0
1, 114240, Note_on_c, 0, 90, 85
1, 114240, Note_on_c, 0, 84, 72
1, 114240, Note_on_c, 0, 93, 85
1, 114360, Tempo, 705882
1, 114360, Note_on_c, 0, 93, 0
1, 114360, Note_on_c, 0, 84, 0
1, 114360, Note_on_c, 0, 90, 0
1, 114360, Note_on_c, 0, 85, 75
1, 114360, Note_on_c, 0, 91, 90
1, 114360, Note_on_c, 0, 94, 90
1, 114360, Note_on_c, 0, 51, 61
1, 114360, Note_on_c, 0, 63, 72
1, 114480, Note_on_c, 0, 63, 0
1, 114480, Note_on_c, 0, 51, 0
1, 114600, Tempo, 681818
1, 114600, Note_on_c, 0, 85, 0
1, 114600, Note_on_c, 0, 91, 0
1, 114600, Note_on_c, 0, 94, 0
1, 114600, Note_on_c, 0, 84, 72
1, 114600, Note_on_c, 0, 91, 85
1, 114600, Note_on_c, 0, 96, 85
1, 114600, Note_on_c, 0, 72, 67
1, 114600, Note_on_c, 0, 67, 67
1, 114600, Note_on_c, 0, 63, 67
1, 114600, Note_on_c, 0, 75, 79
1, 114611, Control_c, 0, 64, 0
1, 114840, Tempo, 677966
1, 114840, Note_on_c, 0, 75, 0
1, 114840, Note_on_c, 0, 67, 0
1, 114840, Note_on_c, 0, 91, 0
1, 114840, Note_on_c, 0, 96, 0
1, 114840, Note_on_c, 0, 84, 0
1, 114840, Note_on_c, 0, 63, 0
1, 114840, Note_on_c, 0, 72, 0
1, 114840, Note_on_c, 0, 80, 74
1, 114840, Note_on_c, 0, 84, 74
1, 114840, Note_on_c, 0, 92, 88
1, 114840, Note_on_c, 0, 77, 77
1, 114840, Note_on_c, 0, 72, 64
1, 114840, Note_on_c, 0, 65, 64
1, 115080, Tempo, 710059
1, 115080, Note_on_c, 0, 65, 0
1, 115080, Note_on_c, 0, 84, 0
1, 115080, Note_on_c, 0, 92, 0
1, 115080, Note_on_c, 0, 80, 0
1, 115080, Note_on_c, 0, 72, 0
1, 115080, Note_on_c, 0, 77, 0
1, 115080, Note_on_c, 0, 75, 72
1, 115080, Note_on_c, 0, 80, 72
1, 115080, Note_on_c, 0, 87, 85
1, 115080, Note_on_c, 0, 60, 61
1, 115080, Note_on_c, 0, 68, 61
1, 115080, Note_on_c, 0, 72, 72
1, 115320, Tempo, 805369
1, 115320, Note_on_c, 0, 72, 0
1, 115320, Note_on_c, 0, 80, 0
1, 115320, Note_on_c, 0, 87, 0
1, 115320, Note_on_c, 0, 75, 0
1, 115320, Note_on_c, 0, 68, 0
1, 115320, Note_on_c, 0, 60, 0
1, 115320, Note_on_c, 0, 77, 72
1, 115320, Note_on_c, 0, 80, 72
1, 115320, Note_on_c, 0, 89, 85
1, 115320, Note_on_c, 0, 61, 61
1, 115320, Note_on_c, 0, 68, 61
1, 115320, Note_on_c, 0, 73, 72
1, 115440, Note_on_c, 0, 73, 0
1, 115440, Note_on_c, 0, 80, 0
1, 115440, Note_on_c, 0, 89, 0
1, 115440, Note_on_c, 0, 77, 0
1, 115440, Note_on_c, 0, 68, 0
1, 115440, Note_on_c, 0, 61, 0
1, 115560, Tempo, 769231
1, 115560, Note_on_c, 0, 61, 67
1, 115560, Note_on_c, 0, 55, 56
1, 115560, Note_on_c, 0, 63, 67
1, 115560, Note_on_c, 0, 39, 58
1, 115560, Note_on_c, 0, 51, 69
1, 115617, Control_c, 0, 64, 127
1, 115740, Note_on_c, 0, 55, 0
1, 115740, Note_on_c, 0, 61, 0
1, 115740, Note_on_c, 0, 55, 56
1, 115740, Note_on_c, 0, 61, 67
1, 115794, Note_on_c, 0, 61, 0
1, 115794, Note_on_c, 0, 55, 0
1, 115800, Note_on_c, 0, 55, 61
1, 115800, Note_on_c, 0, 61, 72
1, 115800, Note_on_c, 0, 70, 72
1, 116040, Tempo, 816327
1, 116040, Note_on_c, 0, 51, 0
1, 116040, Note_on_c, 0, 39, 0
1, 116040, Note_on_c, 0, 63, 0
1, 116040, Note_on_c, 0, 27, 51
1, 116040, Note_on_c, 0, 39, 61
1, 116047, Control_c, 0, 64, 0
1, 116160, Note_on_c, 0, 39, 0
1, 116160, Note_on_c, 0, 27, 0
1, 116280, Note_on_c, 0, 70, 0
1, 116280, Note_on_c, 0, 61, 0
1, 116280, Note_on_c, 0, 55, 0
1, 116280, Note_on_c, 0, 56, 56
1, 116280, Note_on_c, 0, 60, 56
1, 116280, Note_on_c, 0, 68, 67
1, 116280, Note_on_c, 0, 32, 51
1, 116280, Note_on_c, 0, 44, 61
1, 116400, Note_on_c, 0, 44, 0
1, 116400, Note_on_c, 0, 68, 0
1, 116400, Note_on_c, 0, 56, 0
1, 116400, Note_on_c, 0, 60, 0
1, 116400, Note_on_c, 0, 32, 0
1, 116670, Note_on_c, 0, 56, 67
1, 116680, Tempo, 681818
1, 116700, Note_on_c, 0, 59, 70
1, 116700, Note_on_c, 0, 40, 53
1, 116706, Control_c, 0, 64, 127
1, 116730, Note_on_c, 0, 64, 74
1, 116730, Note_on_c, 0, 47, 56
1, 116760, Key_signature, 4, "major"
1, 116760, Tempo, 764331
1, 116760, Note_on_c, 0, 68, 80
1, 116760, Note_on_c, 0, 52, 60
1, 117150, Note_on_c, 0, 52, 0
1, 117150, Note_on_c, 0, 47, 0
1, 117150, Note_on_c, 0, 59, 0
1, 117150, Note_on_c, 0, 40, 0
1, 117150, Note_on_c, 0, 56, 0
1, 117150, Note_on_c, 0, 68, 0
1, 117150, Note_on_c, 0, 64, 0
1, 117150, Note_on_c, 0, 56, 67
1, 117160, Tempo, 677966
1, 117180, Note_on_c, 0, 59, 70
1, 117180, Note_on_c, 0, 40, 53
1, 117210, Note_on_c, 0, 64, 74
1, 117210, Note_on_c, 0, 47, 56
1, 117240, Note_on_c, 0, 68, 79
1, 117240, Note_on_c, 0, 52, 60
1, 117280, Tempo, 764331
1, 117630, Note_on_c, 0, 52, 0
1, 117630, Note_on_c, 0, 47, 0
1, 117630, Note_on_c, 0, 59, 0
1, 117630, Note_on_c, 0, 40, 0
1, 117630, Note_on_c, 0, 56, 0
1, 117630, Note_on_c, 0, 68, 0
1, 117630, Note_on_c, 0, 64, 0
1, 117630, Note_on_c, 0, 56, 66
1, 117640, Tempo, 681818
1, 117660, Note_on_c, 0, 59, 69
1, 117660, Note_on_c, 0, 40, 53
1, 117690, Note_on_c, 0, 64, 72
1, 117690, Note_on_c, 0, 47, 56
1, 117720, Note_on_c, 0, 68, 78
1, 117720, Note_on_c, 0, 52, 60
1, 117760, Tempo, 764331
1, 118110, Note_on_c, 0, 52, 0
1, 118110, Note_on_c, 0, 47, 0
1, 118110, Note_on_c, 0, 59, 0
1, 118110, Note_on_c, 0, 40, 0
1, 118110, Note_on_c, 0, 56, 0
1, 118110, Note_on_c, 0, 68, 0
1, 118110, Note_on_c, 0, 64, 0
1, 118110, Note_on_c, 0, 56, 67
1, 118120, Tempo, 685714
1, 118140, Note_on_c, 0, 59, 70
1, 118140, Note_on_c, 0, 40, 53
1, 118170, Note_on_c, 0, 64, 74
1, 118170, Note_on_c, 0, 47, 56
1, 118200, Tempo, 764331
1, 118200, Note_on_c, 0, 68, 79
1, 118200, Note_on_c, 0, 52, 60
1, 118590, Note_on_c, 0, 52, 0
1, 118590, Note_on_c, 0, 47, 0
1, 118590, Note_on_c, 0, 59, 0
1, 118590, Note_on_c, 0, 40, 0
1, 118590, Note_on_c, 0, 56, 0
1, 118590, Note_on_c, 0, 68, 0
1, 118590, Note_on_c, 0, 64, 0
1, 118590, Note_on_c, 0, 56, 67
1, 118600, Tempo, 677966
1, 118620, Note_on_c, 0, 59, 70
1, 118620, Note_on_c, 0, 40, 53
1, 118650, Note_on_c, 0, 64, 74
1, 118650, Note_on_c, 0, 47, 56
1, 118680, Tempo, 764331
1, 118680, Note_on_c, 0, 68, 79
1, 118680, Note_on_c, 0, 52, 60
1, 119070, Note_on_c, 0, 52, 0
1, 119070, Note_on_c, 0, 47, 0
1, 119070, Note_on_c, 0, 59, 0
1, 119070, Note_on_c, 0, 40, 0
1, 119070, Note_on_c, 0, 56, 0
1, 119070, Note_on_c, 0, 68, 0
1, 119070, Note_on_c, 0, 64, 0
1, 119070, Note_on_c, 0, 56, 67
1, 119080, Tempo, 681818
1, 119100, Note_on_c, 0, 59, 70
1, 119100, Note_on_c, 0, 40, 53
1, 119130, Note_on_c, 0, 64, 75
1, 119130, Note_on_c, 0, 47, 56
1, 119140, Tempo, 612245
1, 119160, Note_on_c, 0, 68, 81
1, 119160, Note_on_c, 0, 52, 60
1, 119640, Tempo, 582524
1, 119640, Note_on_c, 0, 52, 0
1, 119640, Note_on_c, 0, 47, 0
1, 119640, Note_on_c, 0, 59, 0
1, 119640, Note_on_c, 0, 40, 0
1, 119640, Note_on_c, 0, 56, 0
1, 119640, Note_on_c, 0, 68, 0
1, 119640, Note_on_c, 0, 64, 0
1, 119640, Note_on_c, 0, 56, 65
1, 119640, Note_on_c, 0, 59, 65
1, 119640, Note_on_c, 0, 64, 74
1, 119640, Note_on_c, 0, 68, 80
1, 119640, Note_on_c, 0, 40, 53
1, 119640, Note_on_c, 0, 47, 53
1, 119640, Note_on_c, 0, 52, 63
1, 119700, Note_on_c, 0, 52, 0
1, 119700, Note_on_c, 0, 40, 0
1, 119700, Note_on_c, 0, 59, 0
1, 119700, Note_on_c, 0, 64, 0
1, 119700, Note_on_c, 0, 56, 0
1, 119700, Note_on_c, 0, 47, 0
1, 119700, Note_on_c, 0, 68, 0
1, 119749, Control_c, 0, 64, 0
1, 119760, Note_on_c, 0, 39, 24
1, 119760, Note_on_c, 0, 51, 28
1, 119820, Note_on_c, 0, 51, 0
1, 119820, Note_on_c, 0, 39, 0
1, 119880, Note_on_c, 0, 37, 24
1, 119880, Note_on_c, 0, 49, 28
1, 119940, Note_on_c, 0, 49, 0
1, 119940, Note_on_c, 0, 37, 0
1, 120000, Tempo, 612245
1, 120000, Note_on_c, 0, 35, 24
1, 120000, Note_on_c, 0, 47, 28
1, 120060, Note_on_c, 0, 47, 0
1, 120060, Note_on_c, 0, 35, 0
1, 120120, Tempo, 582524
1, 120120, Note_on_c, 0, 40, 28
1, 120120, Note_on_c, 0, 52, 35
1, 120180, Note_on_c, 0, 52, 0
1, 120180, Note_on_c, 0, 40, 0
1, 120240, Note_on_c, 0, 39, 27
1, 120240, Note_on_c, 0, 51, 32
1, 120300, Note_on_c, 0, 51, 0
1, 120300, Note_on_c, 0, 39, 0
1, 120360, Note_on_c, 0, 37, 24
1, 120360, Note_on_c, 0, 49, 28
1, 120420, Note_on_c, 0, 49, 0
1, 120420, Note_on_c, 0, 37, 0
1, 120480, Tempo, 603015
1, 120480, Note_on_c, 0, 35, 24
1, 120480, Note_on_c, 0, 47, 28
1, 120540, Note_on_c, 0, 47, 0
1, 120540, Note_on_c, 0, 35, 0
1, 120600, Tempo, 576923
1, 120600, Note_on_c, 0, 40, 28
1, 120600, Note_on_c, 0, 52, 35
1, 120660, Note_on_c, 0, 52, 0
1, 120660, Note_on_c, 0, 40, 0
1, 120720, Note_on_c, 0, 39, 24
1, 120720, Note_on_c, 0, 51, 28
1, 120780, Note_on_c, 0, 51, 0
1, 120780, Note_on_c, 0, 39, 0
1, 120840, Note_on_c, 0, 37, 24
1, 120840, Note_on_c, 0, 49, 28
1, 120900, Note_on_c, 0, 49, 0
1, 120900, Note_on_c, 0, 37, 0
1, 120960, Tempo, 612245
1, 120960, Note_on_c, 0, 35, 24
1, 120960, Note_on_c, 0, 47, 28
1, 121020, Note_on_c, 0, 47, 0
1, 121020, Note_on_c, 0, 35, 0
1, 121080, Tempo, 574163
1, 121080, Note_on_c, 0, 40, 29
1, 121080, Note_on_c, 0, 52, 34
1, 121140, Note_on_c, 0, 52, 0
1, 121140, Note_on_c, 0, 40, 0
1, 121200, Note_on_c, 0, 39, 24
1, 121200, Note_on_c, 0, 51, 28
1, 121260, Note_on_c, 0, 51, 0
1, 121260, Note_on_c, 0, 39, 0
1, 121320, Note_on_c, 0, 37, 24
1, 121320, Note_on_c, 0, 49, 28
1, 121380, Note_on_c, 0, 49, 0
1, 121380, Note_on_c, 0, 37, 0
1, 121440, Tempo, 609137
1, 121440, Note_on_c, 0, 35, 24
1, 121440, Note_on_c, 0, 47, 28
1, 121500, Note_on_c, 0, 47, 0
1, 121500, Note_on_c, 0, 35, 0
1, 121560, Tempo, 574163
1, 121560, Note_on_c, 0, 40, 29
1, 121560, Note_on_c, 0, 52, 34
1, 121620, Note_on_c, 0, 52, 0
1, 121620, Note_on_c, 0, 40, 0
1, 121680, Note_on_c, 0, 39, 26
1, 121680, Note_on_c, 0, 51, 32
1, 121740, Note_on_c, 0, 51, 0
1, 121740, Note_on_c, 0, 39, 0
1, 121800, Note_on_c, 0, 37, 24
1, 121800, Note_on_c, 0, 49, 29
1, 121860, Note_on_c, 0, 49, 0
1, 121860, Note_on_c, 0, 37, 0
1, 121920, Tempo, 609137
1, 121920, Note_on_c, 0, 35, 24
1, 121920, Note_on_c, 0, 47, 29
1, 121980, Note_on_c, 0, 47, 0
1, 121980, Note_on_c, 0, 35, 0
1, 122040, Tempo, 576923
1, 122040, Note_on_c, 0, 40, 29
1, 122040, Note_on_c, 0, 52, 35
1, 122100, Note_on_c, 0, 52, 0
1, 122100, Note_on_c, 0, 40, 0
1, 122160, Note_on_c, 0, 39, 23
1, 122160, Note_on_c, 0, 51, 28
1, 122220, Note_on_c, 0, 51, 0
1, 122220, Note_on_c, 0, 39, 0
1, 122280, Note_on_c, 0, 37, 23
1, 122280, Note_on_c, 0, 49, 28
1, 122340, Note_on_c, 0, 49, 0
1, 122340, Note_on_c, 0, 37, 0
1, 122400, Note_on_c, 0, 35, 23
1, 122400, Note_on_c, 0, 47, 28
1, 122420, Tempo, 609137
1, 122460, Note_on_c, 0, 47, 0
1, 122460, Note_on_c, 0, 35, 0
1, 122520, Tempo, 582524
1, 122520, Note_on_c, 0, 56, 36
1, 122520, Note_on_c, 0, 59, 44
1, 122520, Note_on_c, 0, 40, 30
1, 122520, Note_on_c, 0, 52, 36
1, 122580, Note_on_c, 0, 52, 0
1, 122580, Note_on_c, 0, 40, 0
1, 122640, Note_on_c, 0, 39, 24
1, 122640, Note_on_c, 0, 51, 29
1, 122700, Note_on_c, 0, 51, 0
1, 122700, Note_on_c, 0, 39, 0
1, 122760, Note_on_c, 0, 37, 25
1, 122760, Note_on_c, 0, 49, 29
1, 122820, Note_on_c, 0, 49, 0
1, 122820, Note_on_c, 0, 37, 0
1, 122880, Tempo, 609137
1, 122880, Note_on_c, 0, 35, 25
1, 122880, Note_on_c, 0, 47, 29
1, 122940, Note_on_c, 0, 47, 0
1, 122940, Note_on_c, 0, 35, 0
1, 123000, Tempo, 582524
1, 123000, Note_on_c, 0, 40, 30
1, 123000, Note_on_c, 0, 52, 36
1, 123060, Note_on_c, 0, 52, 0
1, 123060, Note_on_c, 0, 40, 0
1, 123120, Note_on_c, 0, 39, 28
1, 123120, Note_on_c, 0, 51, 34
1, 123180, Note_on_c, 0, 51, 0
1, 123180, Note_on_c, 0, 39, 0
1, 123240, Note_on_c, 0, 37, 25
1, 123240, Note_on_c, 0, 49, 30
1, 123300, Note_on_c, 0, 49, 0
1, 123300, Note_on_c, 0, 37, 0
1, 123360, Tempo, 615385
1, 123360, Note_on_c, 0, 35, 25
1, 123360, Note_on_c, 0, 47, 30
1, 123420, Note_on_c, 0, 47, 0
1, 123420, Note_on_c, 0, 35, 0
1, 123480, Tempo, 582524
1, 123480, Note_on_c, 0, 59, 0
1, 123480, Note_on_c, 0, 56, 0
1, 123480, Note_on_c, 0, 57, 34
1, 123480, Note_on_c, 0, 59, 41
1, 123480, Note_on_c, 0, 40, 30
1, 123480, Note_on_c, 0, 52, 36
1, 123540, Note_on_c, 0, 52, 0
1, 123540, Note_on_c, 0, 40, 0
1, 123600, Note_on_c, 0, 39, 25
1, 123600, Note_on_c, 0, 51, 29
1, 123660, Note_on_c, 0, 51, 0
1, 123660, Note_on_c, 0, 39, 0
1, 123720, Note_on_c, 0, 37, 25
1, 123720, Note_on_c, 0, 49, 29
1, 123780, Note_on_c, 0, 49, 0
1, 123780, Note_on_c, 0, 37, 0
1, 123840, Tempo, 615385
1, 123840, Note_on_c, 0, 59, 0
1, 123840, Note_on_c, 0, 57, 0
1, 123840, Note_on_c, 0, 57, 36
1, 123840, Note_on_c, 0, 59, 43
1, 123840, Note_on_c, 0, 35, 26
1, 123840, Note_on_c, 0, 47, 30
1, 123900, Note_on_c, 0, 47, 0
1, 123900, Note_on_c, 0, 35, 0
1, 123960, Tempo, 582524
1, 123960, Note_on_c, 0, 59, 0
1, 123960, Note_on_c, 0, 57, 0
1, 123960, Note_on_c, 0, 56, 36
1, 123960, Note_on_c, 0, 59, 43
1, 123960, Note_on_c, 0, 40, 31
1, 123960, Note_on_c, 0, 52, 36
1, 124020, Note_on_c, 0, 52, 0
1, 124020, Note_on_c, 0, 40, 0
1, 124080, Note_on_c, 0, 39, 26
1, 124080, Note_on_c, 0, 51, 30
1, 124140, Note_on_c, 0, 51, 0
1, 124140, Note_on_c, 0, 39, 0
1, 124200, Tempo, 558140
1, 124200, Note_on_c, 0, 37, 26
1, 124200, Note_on_c, 0, 49, 30
1, 124260, Note_on_c, 0, 49, 0
1, 124260, Note_on_c, 0, 37, 0
1, 124320, Tempo, 612245
1, 124320, Note_on_c, 0, 59, 0
1, 124320, Note_on_c, 0, 56, 0
1, 124320, Note_on_c, 0, 56, 35
1, 124320, Note_on_c, 0, 64, 41
1, 124320, Note_on_c, 0, 35, 26
1, 124320, Note_on_c, 0, 47, 30
1, 124380, Note_on_c, 0, 47, 0
1, 124380, Note_on_c, 0, 35, 0
1, 124440, Tempo, 574163
1, 124440, Note_on_c, 0, 64, 0
1, 124440, Note_on_c, 0, 56, 0
1, 124440, Note_on_c, 0, 56, 39
1, 124440, Note_on_c, 0, 59, 39
1, 124440, Note_on_c, 0, 68, 46
1, 124440, Note_on_c, 0, 40, 31
1, 124440, Note_on_c, 0, 52, 36
1, 124500, Note_on_c, 0, 52, 0
1, 124500, Note_on_c, 0, 40, 0
1, 124560, Note_on_c, 0, 39, 28
1, 124560, Note_on_c, 0, 51, 33
1, 124620, Note_on_c, 0, 51, 0
1, 124620, Note_on_c, 0, 39, 0
1, 124680, Note_on_c, 0, 37, 25
1, 124680, Note_on_c, 0, 49, 30
1, 124740, Note_on_c, 0, 49, 0
1, 124740, Note_on_c, 0, 37, 0
1, 124800, Tempo, 612245
1, 124800, Note_on_c, 0, 35, 25
1, 124800, Note_on_c, 0, 47, 30
1, 124860, Note_on_c, 0, 47, 0
1, 124860, Note_on_c, 0, 35, 0
1, 124920, Tempo, 582524
1, 124920, Note_on_c, 0, 68, 0
1, 124920, Note_on_c, 0, 59, 0
1, 124920, Note_on_c, 0, 56, 0
1, 124920, Note_on_c, 0, 57, 33
1, 124920, Note_on_c, 0, 59, 33
1, 124920, Note_on_c, 0, 66, 40
1, 124920, Note_on_c, 0, 40, 30
1, 124920, Note_on_c, 0, 52, 37
1, 124980, Note_on_c, 0, 52, 0
1, 124980, Note_on_c, 0, 40, 0
1, 125040, Note_on_c, 0, 39, 25
1, 125040, Note_on_c, 0, 51, 30
1, 125100, Note_on_c, 0, 51, 0
1, 125100, Note_on_c, 0, 39, 0
1, 125160, Note_on_c, 0, 37, 25
1, 125160, Note_on_c, 0, 49, 30
1, 125220, Note_on_c, 0, 49, 0
1, 125220, Note_on_c, 0, 37, 0
1, 125280, Tempo, 612245
1, 125280, Note_on_c, 0, 35, 25
1, 125280, Note_on_c, 0, 47, 30
1, 125340, Note_on_c, 0, 47, 0
1, 125340, Note_on_c, 0, 35, 0
1, 125400, Tempo, 582524
1, 125400, Note_on_c, 0, 66, 0
1, 125400, Note_on_c, 0, 59, 0
1, 125400, Note_on_c, 0, 57, 0
1, 125400, Note_on_c, 0, 56, 35
1, 125400, Note_on_c, 0, 59, 42
1, 125400, Note_on_c, 0, 40, 30
1, 125400, Note_on_c, 0, 52, 37
1, 125460, Note_on_c, 0, 52, 0
1, 125460, Note_on_c, 0, 40, 0
1, 125520, Note_on_c, 0, 39, 25
1, 125520, Note_on_c, 0, 51, 30
1, 125580, Note_on_c, 0, 51, 0
1, 125580, Note_on_c, 0, 39, 0
1, 125640, Tempo, 558140
1, 125640, Note_on_c, 0, 37, 25
1, 125640, Note_on_c, 0, 49, 30
1, 125700, Note_on_c, 0, 49, 0
1, 125700, Note_on_c, 0, 37, 0
1, 125760, Tempo, 612245
1, 125760, Note_on_c, 0, 59, 0
1, 125760, Note_on_c, 0, 56, 0
1, 125760, Note_on_c, 0, 56, 34
1, 125760, Note_on_c, 0, 64, 41
1, 125760, Note_on_c, 0, 35, 25
1, 125760, Note_on_c, 0, 47, 30
1, 125820, Note_on_c, 0, 47, 0
1, 125820, Note_on_c, 0, 35, 0
1, 125880, Tempo, 576923
1, 125880, Note_on_c, 0, 64, 0
1, 125880, Note_on_c, 0, 56, 0
1, 125880, Note_on_c, 0, 56, 36
1, 125880, Note_on_c, 0, 59, 36
1, 125880, Note_on_c, 0, 68, 44
1, 125880, Note_on_c, 0, 40, 31
1, 125880, Note_on_c, 0, 52, 38
1, 125940, Note_on_c, 0, 52, 0
1, 125940, Note_on_c, 0, 40, 0
1, 126000, Note_on_c, 0, 39, 30
1, 126000, Note_on_c, 0, 51, 35
1, 126060, Note_on_c, 0, 51, 0
1, 126060, Note_on_c, 0, 39, 0
1, 126120, Note_on_c, 0, 68, 0
1, 126120, Note_on_c, 0, 59, 0
1, 126120, Note_on_c, 0, 56, 0
1, 126120, Note_on_c, 0, 37, 26
1, 126120, Note_on_c, 0, 49, 33
1, 126180, Note_on_c, 0, 49, 0
1, 126180, Note_on_c, 0, 37, 0
1, 126240, Tempo, 615385
1, 126240, Note_on_c, 0, 57, 34
1, 126240, Note_on_c, 0, 63, 40
1, 126240, Note_on_c, 0, 35, 26
1, 126240, Note_on_c, 0, 47, 33
1, 126300, Note_on_c, 0, 47, 0
1, 126300, Note_on_c, 0, 35, 0
1, 126340, Tempo, 582524
1, 126360, Tempo, 566038
1, 126360, Note_on_c, 0, 63, 0
1, 126360, Note_on_c, 0, 57, 0
1, 126360, Note_on_c, 0, 56, 34
1, 126360, Note_on_c, 0, 64, 41
1, 126360, Note_on_c, 0, 40, 33
1, 126360, Note_on_c, 0, 52, 39
1, 126420, Tempo, 568720
1, 126420, Note_on_c, 0, 52, 0
1, 126420, Note_on_c, 0, 40, 0
1, 126460, Tempo, 571429
1, 126480, Note_on_c, 0, 39, 27
1, 126480, Note_on_c, 0, 51, 32
1, 126500, Tempo, 574163
1, 126540, Note_on_c, 0, 51, 0
1, 126540, Note_on_c, 0, 39, 0
1, 126560, Tempo, 576923
1, 126600, Tempo, 579710
1, 126600, Note_on_c, 0, 64, 0
1, 126600, Note_on_c, 0, 56, 0
1, 126600, Note_on_c, 0, 56, 35
1, 126600, Note_on_c, 0, 64, 35
1, 126600, Note_on_c, 0, 68, 41
1, 126600, Note_on_c, 0, 37, 27
1, 126600, Note_on_c, 0, 49, 33
1, 126640, Tempo, 582524
1, 126660, Note_on_c, 0, 49, 0
1, 126660, Note_on_c, 0, 37, 0
1, 126680, Tempo, 585366
1, 126720, Tempo, 612245
1, 126720, Note_on_c, 0, 35, 28
1, 126720, Note_on_c, 0, 47, 33
1, 126780, Note_on_c, 0, 47, 0
1, 126780, Note_on_c, 0, 35, 0
1, 126840, Tempo, 574163
1, 126840, Note_on_c, 0, 68, 0
1, 126840, Note_on_c, 0, 64, 0
1, 126840, Note_on_c, 0, 56, 0
1, 126840, Note_on_c, 0, 59, 39
1, 126840, Note_on_c, 0, 68, 39
1, 126840, Note_on_c, 0, 71, 46
1, 126840, Note_on_c, 0, 40, 34
1, 126840, Note_on_c, 0, 52, 41
1, 126900, Note_on_c, 0, 52, 0
1, 126900, Note_on_c, 0, 40, 0
1, 126960, Note_on_c, 0, 39, 27
1, 126960, Note_on_c, 0, 51, 33
1, 127020, Note_on_c, 0, 51, 0
1, 127020, Note_on_c, 0, 39, 0
1, 127080, Tempo, 555556
1, 127080, Note_on_c, 0, 71, 0
1, 127080, Note_on_c, 0, 68, 0
1, 127080, Note_on_c, 0, 59, 0
1, 127080, Note_on_c, 0, 61, 39
1, 127080, Note_on_c, 0, 68, 39
1, 127080, Note_on_c, 0, 73, 47
1, 127080, Note_on_c, 0, 37, 27
1, 127080, Note_on_c, 0, 49, 33
1, 127140, Note_on_c, 0, 49, 0
1, 127140, Note_on_c, 0, 73, 0
1, 127140, Note_on_c, 0, 61, 0
1, 127140, Note_on_c, 0, 68, 0
1, 127140, Note_on_c, 0, 37, 0
1, 127200, Tempo, 609137
1, 127200, Note_on_c, 0, 63, 40
1, 127200, Note_on_c, 0, 68, 40
1, 127200, Note_on_c, 0, 75, 48
1, 127200, Note_on_c, 0, 35, 28
1, 127200, Note_on_c, 0, 47, 33
1, 127260, Note_on_c, 0, 47, 0
1, 127260, Note_on_c, 0, 75, 0
1, 127260, Note_on_c, 0, 63, 0
1, 127260, Note_on_c, 0, 68, 0
1, 127260, Note_on_c, 0, 35, 0
1, 127320, Tempo, 574163
1, 127320, Note_on_c, 0, 64, 42
1, 127320, Note_on_c, 0, 68, 42
1, 127320, Note_on_c, 0, 76, 50
1, 127320, Note_on_c, 0, 40, 35
1, 127320, Note_on_c, 0, 52, 41
1, 127380, Note_on_c, 0, 52, 0
1, 127380, Note_on_c, 0, 40, 0
1, 127440, Note_on_c, 0, 64, 0
1, 127440, Note_on_c, 0, 68, 0
1, 127440, Note_on_c, 0, 76, 0
1, 127440, Note_on_c, 0, 39, 31
1, 127440, Note_on_c, 0, 51, 38
1, 127500, Note_on_c, 0, 51, 0
1, 127500, Note_on_c, 0, 39, 0
1, 127560, Tempo, 588235
1, 127560, Note_on_c, 0, 59, 38
1, 127560, Note_on_c, 0, 68, 38
1, 127560, Note_on_c, 0, 71, 45
1, 127560, Note_on_c, 0, 37, 28
1, 127560, Note_on_c, 0, 49, 35
1, 127620, Note_on_c, 0, 49, 0
1, 127620, Note_on_c, 0, 37, 0
1, 127680, Tempo, 609137
1, 127680, Note_on_c, 0, 59, 0
1, 127680, Note_on_c, 0, 68, 0
1, 127680, Note_on_c, 0, 71, 0
1, 127680, Note_on_c, 0, 35, 28
1, 127680, Note_on_c, 0, 47, 35
1, 127740, Note_on_c, 0, 47, 0
1, 127740, Note_on_c, 0, 35, 0
1, 127800, Tempo, 582524
1, 127800, Note_on_c, 0, 68, 45
1, 127800, Note_on_c, 0, 71, 45
1, 127800, Note_on_c, 0, 80, 53
1, 127800, Note_on_c, 0, 40, 36
1, 127800, Note_on_c, 0, 52, 42
1, 127860, Note_on_c, 0, 52, 0
1, 127860, Note_on_c, 0, 40, 0
1, 127920, Note_on_c, 0, 39, 29
1, 127920, Note_on_c, 0, 51, 34
1, 127980, Note_on_c, 0, 51, 0
1, 127980, Note_on_c, 0, 39, 0
1, 128040, Note_on_c, 0, 37, 29
1, 128040, Note_on_c, 0, 49, 34
1, 128100, Note_on_c, 0, 49, 0
1, 128100, Note_on_c, 0, 37, 0
1, 128160, Tempo, 612245
1, 128160, Note_on_c, 0, 35, 29
1, 128160, Note_on_c, 0, 47, 34
1, 128220, Note_on_c, 0, 47, 0
1, 128220, Note_on_c, 0, 35, 0
1, 128280, Tempo, 582524
1, 128280, Note_on_c, 0, 80, 0
1, 128280, Note_on_c, 0, 71, 0
1, 128280, Note_on_c, 0, 68, 0
1, 128280, Note_on_c, 0, 59, 40
1, 128280, Note_on_c, 0, 66, 40
1, 128280, Note_on_c, 0, 69, 40
1, 128280, Note_on_c, 0, 71, 48
1, 128280, Note_on_c, 0, 40, 35
1, 128280, Note_on_c, 0, 52, 41
1, 128340, Note_on_c, 0, 52, 0
1, 128340, Note_on_c, 0, 40, 0
1, 128400, Note_on_c, 0, 39, 29
1, 128400, Note_on_c, 0, 51, 34
1, 128460, Note_on_c, 0, 51, 0
1, 128460, Note_on_c, 0, 39, 0
1, 128520, Note_on_c, 0, 37, 29
1, 128520, Note_on_c, 0, 49, 34
1, 128580, Note_on_c, 0, 49, 0
1, 128580, Note_on_c, 0, 37, 0
1, 128640, Tempo, 609137
1, 128640, Note_on_c, 0, 35, 29
1, 128640, Note_on_c, 0, 47, 34
1, 128700, Note_on_c, 0, 47, 0
1, 128700, Note_on_c, 0, 35, 0
1, 128760, Tempo, 582524
1, 128760, Note_on_c, 0, 40, 35
1, 128760, Note_on_c, 0, 52, 42
1, 128820, Note_on_c, 0, 52, 0
1, 128820, Note_on_c, 0, 40, 0
1, 128880, Note_on_c, 0, 39, 33
1, 128880, Note_on_c, 0, 51, 39
1, 128940, Note_on_c, 0, 51, 0
1, 128940, Note_on_c, 0, 39, 0
1, 129000, Tempo, 558140
1, 129000, Note_on_c, 0, 71, 0
1, 129000, Note_on_c, 0, 59, 0
1, 129000, Note_on_c, 0, 66, 0
1, 129000, Note_on_c, 0, 69, 0
1, 129000, Note_on_c, 0, 59, 41
1, 129000, Note_on_c, 0, 69, 41
1, 129000, Note_on_c, 0, 71, 49
1, 129000, Note_on_c, 0, 37, 29
1, 129000, Note_on_c, 0, 49, 35
1, 129060, Note_on_c, 0, 49, 0
1, 129060, Note_on_c, 0, 71, 0
1, 129060, Note_on_c, 0, 59, 0
1, 129060, Note_on_c, 0, 69, 0
1, 129060, Note_on_c, 0, 37, 0
1, 129120, Tempo, 606061
1, 129120, Note_on_c, 0, 59, 41
1, 129120, Note_on_c, 0, 69, 41
1, 129120, Note_on_c, 0, 71, 49
1, 129120, Note_on_c, 0, 35, 29
1, 129120, Note_on_c, 0, 47, 35
1, 129180, Note_on_c, 0, 47, 0
1, 129180, Note_on_c, 0, 71, 0
1, 129180, Note_on_c, 0, 59, 0
1, 129180, Note_on_c, 0, 69, 0
1, 129180, Note_on_c, 0, 35, 0
1, 129240, Tempo, 582524
1, 129240, Note_on_c, 0, 59, 43
1, 129240, Note_on_c, 0, 69, 43
1, 129240, Note_on_c, 0, 71, 51
1, 129240, Note_on_c, 0, 40, 35
1, 129240, Note_on_c, 0, 52, 42
1, 129300, Note_on_c, 0, 52, 0
1, 129300, Note_on_c, 0, 40, 0
1, 129360, Note_on_c, 0, 59, 0
1, 129360, Note_on_c, 0, 69, 0
1, 129360, Note_on_c, 0, 71, 0
1, 129360, Note_on_c, 0, 39, 28
1, 129360, Note_on_c, 0, 51, 34
1, 129420, Note_on_c, 0, 51, 0
1, 129420, Note_on_c, 0, 39, 0
1, 129480, Note_on_c, 0, 59, 40
1, 129480, Note_on_c, 0, 69, 40
1, 129480, Note_on_c, 0, 71, 48
1, 129480, Note_on_c, 0, 37, 29
1, 129480, Note_on_c, 0, 49, 34
1, 129540, Note_on_c, 0, 49, 0
1, 129540, Note_on_c, 0, 37, 0
1, 129600, Tempo, 612245
1, 129600, Note_on_c, 0, 59, 0
1, 129600, Note_on_c, 0, 69, 0
1, 129600, Note_on_c, 0, 71, 0
1, 129600, Note_on_c, 0, 35, 29
1, 129600, Note_on_c, 0, 47, 34
1, 129660, Note_on_c, 0, 47, 0
1, 129660, Note_on_c, 0, 35, 0
1, 129720, Tempo, 582524
1, 129720, Note_on_c, 0, 59, 44
1, 129720, Note_on_c, 0, 68, 44
1, 129720, Note_on_c, 0, 71, 52
1, 129720, Note_on_c, 0, 40, 35
1, 129720, Note_on_c, 0, 52, 41
1, 129780, Note_on_c, 0, 52, 0
1, 129780, Note_on_c, 0, 40, 0
1, 129840, Note_on_c, 0, 39, 29
1, 129840, Note_on_c, 0, 51, 35
1, 129900, Note_on_c, 0, 51, 0
1, 129900, Note_on_c, 0, 39, 0
1, 129960, Tempo, 563380
1, 129960, Note_on_c, 0, 37, 29
1, 129960, Note_on_c, 0, 49, 35
1, 130020, Note_on_c, 0, 49, 0
1, 130020, Note_on_c, 0, 37, 0
1, 130080, Tempo, 615385
1, 130080, Note_on_c, 0, 59, 0
1, 130080, Note_on_c, 0, 68, 0
1, 130080, Note_on_c, 0, 71, 0
1, 130080, Note_on_c, 0, 64, 41
1, 130080, Note_on_c, 0, 68, 41
1, 130080, Note_on_c, 0, 76, 50
1, 130080, Note_on_c, 0, 35, 29
1, 130080, Note_on_c, 0, 47, 35
1, 130140, Note_on_c, 0, 47, 0
1, 130140, Note_on_c, 0, 35, 0
1, 130188, Note_on_c, 0, 64, 0
1, 130188, Note_on_c, 0, 68, 0
1, 130188, Note_on_c, 0, 76, 0
1, 130200, Tempo, 582524
1, 130200, Note_on_c, 0, 64, 44
1, 130200, Note_on_c, 0, 68, 44
1, 130200, Note_on_c, 0, 76, 52
1, 130200, Note_on_c, 0, 40, 36
1, 130200, Note_on_c, 0, 52, 42
1, 130260, Note_on_c, 0, 52, 0
1, 130260, Note_on_c, 0, 40, 0
1, 130320, Note_on_c, 0, 39, 32
1, 130320, Note_on_c, 0, 51, 39
1, 130380, Note_on_c, 0, 51, 0
1, 130380, Note_on_c, 0, 39, 0
1, 130440, Note_on_c, 0, 37, 29
1, 130440, Note_on_c, 0, 49, 36
1, 130500, Note_on_c, 0, 49, 0
1, 130500, Note_on_c, 0, 37, 0
1, 130560, Tempo, 615385
1, 130560, Note_on_c, 0, 35, 29
1, 130560, Note_on_c, 0, 47, 35
1, 130620, Note_on_c, 0, 47, 0
1, 130620, Note_on_c, 0, 35, 0
1, 130680, Tempo, 582524
1, 130680, Note_on_c, 0, 76, 0
1, 130680, Note_on_c, 0, 68, 0
1, 130680, Note_on_c, 0, 64, 0
1, 130680, Note_on_c, 0, 59, 40
1, 130680, Note_on_c, 0, 64, 40
1, 130680, Note_on_c, 0, 68, 48
1, 130680, Note_on_c, 0, 40, 36
1, 130680, Note_on_c, 0, 52, 42
1, 130740, Note_on_c, 0, 52, 0
1, 130740, Note_on_c, 0, 40, 0
1, 130800, Note_on_c, 0, 39, 29
1, 130800, Note_on_c, 0, 51, 35
1, 130860, Note_on_c, 0, 51, 0
1, 130860, Note_on_c, 0, 39, 0
1, 130920, Note_on_c, 0, 37, 29
1, 130920, Note_on_c, 0, 49, 35
1, 130980, Note_on_c, 0, 49, 0
1, 130980, Note_on_c, 0, 37, 0
1, 131040, Tempo, 615385
1, 131040, Note_on_c, 0, 35, 29
1, 131040, Note_on_c, 0, 47, 35
1, 131100, Note_on_c, 0, 47, 0
1, 131100, Note_on_c, 0, 35, 0
1, 131160, Tempo, 582524
1, 131160, Note_on_c, 0, 68, 0
1, 131160, Note_on_c, 0, 64, 0
1, 131160, Note_on_c, 0, 59, 0
1, 131160, Note_on_c, 0, 57, 45
1, 131160, Note_on_c, 0, 59, 45
1, 131160, Note_on_c, 0, 66, 53
1, 131160, Note_on_c, 0, 40, 36
1, 131160, Note_on_c, 0, 52, 42
1, 131220, Note_on_c, 0, 52, 0
1, 131220, Note_on_c, 0, 40, 0
1, 131280, Note_on_c, 0, 39, 29
1, 131280, Note_on_c, 0, 51, 35
1, 131340, Note_on_c, 0, 51, 0
1, 131340, Note_on_c, 0, 39, 0
1, 131400, Tempo, 555556
1, 131400, Note_on_c, 0, 59, 0
1, 131400, Note_on_c, 0, 57, 0
1, 131400, Note_on_c, 0, 57, 43
1, 131400, Note_on_c, 0, 59, 51
1, 131400, Note_on_c, 0, 37, 29
1, 131400, Note_on_c, 0, 49, 35
1, 131460, Note_on_c, 0, 49, 0
1, 131460, Note_on_c, 0, 59, 0
1, 131460, Note_on_c, 0, 37, 0
1, 131460, Note_on_c, 0, 57, 0
1, 131520, Tempo, 615385
1, 131520, Note_on_c, 0, 59, 51
1, 131520, Note_on_c, 0, 57, 43
1, 131520, Note_on_c, 0, 35, 29
1, 131520, Note_on_c, 0, 47, 35
1, 131580, Note_on_c, 0, 47, 0
1, 131580, Note_on_c, 0, 57, 0
1, 131580, Note_on_c, 0, 35, 0
1, 131580, Note_on_c, 0, 59, 0
1, 131640, Tempo, 582524
1, 131640, Note_on_c, 0, 57, 45
1, 131640, Note_on_c, 0, 59, 54
1, 131640, Note_on_c, 0, 40, 36
1, 131640, Note_on_c, 0, 52, 42
1, 131700, Note_on_c, 0, 52, 0
1, 131700, Note_on_c, 0, 40, 0
1, 131760, Note_on_c, 0, 59, 0
1, 131760, Note_on_c, 0, 57, 0
1, 131760, Note_on_c, 0, 39, 32
1, 131760, Note_on_c, 0, 51, 39
1, 131820, Note_on_c, 0, 51, 0
1, 131820, Note_on_c, 0, 39, 0
1, 131880, Note_on_c, 0, 66, 0
1, 131880, Note_on_c, 0, 57, 44
1, 131880, Note_on_c, 0, 59, 44
1, 131880, Note_on_c, 0, 66, 52
1, 131880, Note_on_c, 0, 37, 29
1, 131880, Note_on_c, 0, 49, 36
1, 131940, Note_on_c, 0, 49, 0
1, 131940, Note_on_c, 0, 37, 0
1, 132000, Note_on_c, 0, 35, 29
1, 132000, Note_on_c, 0, 47, 36
1, 132020, Tempo, 615385
1, 132060, Note_on_c, 0, 47, 0
1, 132060, Note_on_c, 0, 35, 0
1, 132120, Tempo, 571429
1, 132120, Note_on_c, 0, 66, 0
1, 132120, Note_on_c, 0, 59, 0
1, 132120, Note_on_c, 0, 57, 0
1, 132120, Note_on_c, 0, 57, 44
1, 132120, Note_on_c, 0, 59, 44
1, 132120, Note_on_c, 0, 68, 52
1, 132120, Note_on_c, 0, 40, 36
1, 132120, Note_on_c, 0, 52, 43
1, 132140, Tempo, 571429
1, 132180, Note_on_c, 0, 52, 0
1, 132180, Note_on_c, 0, 68, 0
1, 132180, Note_on_c, 0, 57, 0
1, 132180, Note_on_c, 0, 59, 0
1, 132180, Note_on_c, 0, 40, 0
1, 132200, Tempo, 574163
1, 132240, Tempo, 576923
1, 132240, Note_on_c, 0, 57, 43
1, 132240, Note_on_c, 0, 59, 43
1, 132240, Note_on_c, 0, 66, 51
1, 132240, Note_on_c, 0, 39, 29
1, 132240, Note_on_c, 0, 51, 36
1, 132280, Tempo, 579710
1, 132300, Note_on_c, 0, 51, 0
1, 132300, Note_on_c, 0, 66, 0
1, 132300, Note_on_c, 0, 57, 0
1, 132300, Note_on_c, 0, 59, 0
1, 132300, Note_on_c, 0, 39, 0
1, 132340, Tempo, 582524
1, 132360, Note_on_c, 0, 57, 42
1, 132360, Note_on_c, 0, 59, 42
1, 132360, Note_on_c, 0, 64, 50
1, 132360, Note_on_c, 0, 37, 29
1, 132360, Note_on_c, 0, 49, 36
1, 132380, Tempo, 585366
1, 132420, Tempo, 588235
1, 132420, Note_on_c, 0, 49, 0
1, 132420, Note_on_c, 0, 64, 0
1, 132420, Note_on_c, 0, 57, 0
1, 132420, Note_on_c, 0, 59, 0
1, 132420, Note_on_c, 0, 37, 0
1, 132460, Tempo, 591133
1, 132480, Tempo, 612245
1, 132480, Note_on_c, 0, 63, 40
1, 132480, Note_on_c, 0, 57, 40
1, 132480, Note_on_c, 0, 59, 40
1, 132480, Note_on_c, 0, 66, 48
1, 132480, Note_on_c, 0, 35, 29
1, 132480, Note_on_c, 0, 47, 36
1, 132540, Note_on_c, 0, 47, 0
1, 132540, Note_on_c, 0, 57, 0
1, 132540, Note_on_c, 0, 59, 0
1, 132540, Note_on_c, 0, 63, 0
1, 132540, Note_on_c, 0, 35, 0
1, 132540, Note_on_c, 0, 66, 0
1, 132600, Tempo, 579710
1, 132600, Note_on_c, 0, 56, 52
1, 132600, Note_on_c, 0, 64, 44
1, 132600, Note_on_c, 0, 68, 52
1, 132600, Note_on_c, 0, 40, 36
1, 132600, Note_on_c, 0, 52, 43
1, 132660, Note_on_c, 0, 52, 0
1, 132660, Note_on_c, 0, 40, 0
1, 132720, Note_on_c, 0, 39, 29
1, 132720, Note_on_c, 0, 51, 36
1, 132780, Note_on_c, 0, 51, 0
1, 132780, Note_on_c, 0, 39, 0
1, 132840, Note_on_c, 0, 37, 30
1, 132840, Note_on_c, 0, 49, 36
1, 132900, Note_on_c, 0, 49, 0
1, 132900, Note_on_c, 0, 37, 0
1, 132960, Tempo, 615385
1, 132960, Note_on_c, 0, 56, 0
1, 132960, Note_on_c, 0, 61, 50
1, 132960, Note_on_c, 0, 35, 30
1, 132960, Note_on_c, 0, 47, 35
1, 133020, Note_on_c, 0, 47, 0
1, 133020, Note_on_c, 0, 35, 0
1, 133080, Tempo, 576923
1, 133080, Note_on_c, 0, 61, 0
1, 133080, Note_on_c, 0, 59, 52
1, 133080, Note_on_c, 0, 40, 37
1, 133080, Note_on_c, 0, 52, 43
1, 133140, Note_on_c, 0, 52, 0
1, 133140, Note_on_c, 0, 40, 0
1, 133200, Note_on_c, 0, 39, 33
1, 133200, Note_on_c, 0, 51, 40
1, 133260, Note_on_c, 0, 51, 0
1, 133260, Note_on_c, 0, 39, 0
1, 133320, Tempo, 600000
1, 133320, Note_on_c, 0, 37, 30
1, 133320, Note_on_c, 0, 49, 37
1, 133380, Note_on_c, 0, 49, 0
1, 133380, Note_on_c, 0, 37, 0
1, 133440, Tempo, 615385
1, 133440, Note_on_c, 0, 64, 0
1, 133440, Note_on_c, 0, 68, 0
1, 133440, Note_on_c, 0, 68, 42
1, 133440, Note_on_c, 0, 71, 51
1, 133440, Note_on_c, 0, 35, 30
1, 133440, Note_on_c, 0, 47, 37
1, 133500, Note_on_c, 0, 47, 0
1, 133500, Note_on_c, 0, 35, 0
1, 133548, Note_on_c, 0, 71, 0
1, 133548, Note_on_c, 0, 68, 0
1, 133560, Tempo, 576923
1, 133560, Note_on_c, 0, 68, 42
1, 133560, Note_on_c, 0, 71, 51
1, 133560, Note_on_c, 0, 40, 37
1, 133560, Note_on_c, 0, 52, 43
1, 133620, Note_on_c, 0, 52, 0
1, 133620, Note_on_c, 0, 40, 0
1, 133680, Note_on_c, 0, 39, 30
1, 133680, Note_on_c, 0, 51, 36
1, 133740, Note_on_c, 0, 51, 0
1, 133740, Note_on_c, 0, 39, 0
1, 133800, Note_on_c, 0, 37, 30
1, 133800, Note_on_c, 0, 49, 37
1, 133860, Note_on_c, 0, 49, 0
1, 133860, Note_on_c, 0, 37, 0
1, 133920, Tempo, 618557
1, 133920, Note_on_c, 0, 35, 30
1, 133920, Note_on_c, 0, 47, 37
1, 133980, Note_on_c, 0, 47, 0
1, 133980, Note_on_c, 0, 35, 0
1, 134040, Tempo, 574163
1, 134040, Note_on_c, 0, 71, 0
1, 134040, Note_on_c, 0, 68, 0
1, 134040, Note_on_c, 0, 59, 0
1, 134040, Note_on_c, 0, 56, 45
1, 134040, Note_on_c, 0, 59, 53
1, 134040, Note_on_c, 0, 40, 37
1, 134040, Note_on_c, 0, 52, 44
1, 134100, Note_on_c, 0, 52, 0
1, 134100, Note_on_c, 0, 40, 0
1, 134160, Note_on_c, 0, 39, 31
1, 134160, Note_on_c, 0, 51, 37
1, 134220, Note_on_c, 0, 51, 0
1, 134220, Note_on_c, 0, 39, 0
1, 134280, Note_on_c, 0, 37, 31
1, 134280, Note_on_c, 0, 49, 37
1, 134340, Note_on_c, 0, 49, 0
1, 134340, Note_on_c, 0, 37, 0
1, 134400, Tempo, 612245
1, 134400, Note_on_c, 0, 35, 31
1, 134400, Note_on_c, 0, 47, 38
1, 134460, Note_on_c, 0, 47, 0
1, 134460, Note_on_c, 0, 35, 0
1, 134520, Tempo, 574163
1, 134520, Note_on_c, 0, 40, 38
1, 134520, Note_on_c, 0, 52, 45
1, 134580, Note_on_c, 0, 52, 0
1, 134580, Note_on_c, 0, 40, 0
1, 134640, Note_on_c, 0, 39, 36
1, 134640, Note_on_c, 0, 51, 42
1, 134700, Note_on_c, 0, 51, 0
1, 134700, Note_on_c, 0, 39, 0
1, 134760, Tempo, 594059
1, 134760, Note_on_c, 0, 59, 0
1, 134760, Note_on_c, 0, 56, 0
1, 134760, Note_on_c, 0, 55, 45
1, 134760, Note_on_c, 0, 59, 54
1, 134760, Note_on_c, 0, 37, 31
1, 134760, Note_on_c, 0, 49, 38
1, 134820, Note_on_c, 0, 49, 0
1, 134820, Note_on_c, 0, 55, 0
1, 134820, Note_on_c, 0, 59, 0
1, 134820, Note_on_c, 0, 37, 0
1, 134880, Tempo, 615385
1, 134880, Note_on_c, 0, 56, 46
1, 134880, Note_on_c, 0, 59, 54
1, 134880, Note_on_c, 0, 35, 31
1, 134880, Note_on_c, 0, 47, 39
1, 134940, Note_on_c, 0, 47, 0
1, 134940, Note_on_c, 0, 56, 0
1, 134940, Note_on_c, 0, 59, 0
1, 134940, Note_on_c, 0, 35, 0
1, 135000, Tempo, 574163
1, 135000, Note_on_c, 0, 57, 48
1, 135000, Note_on_c, 0, 59, 57
1, 135000, Note_on_c, 0, 40, 40
1, 135000, Note_on_c, 0, 52, 48
1, 135060, Note_on_c, 0, 52, 0
1, 135060, Note_on_c, 0, 40, 0
1, 135120, Note_on_c, 0, 59, 0
1, 135120, Note_on_c, 0, 57, 0
1, 135120, Note_on_c, 0, 39, 33
1, 135120, Note_on_c, 0, 51, 40
1, 135180, Note_on_c, 0, 51, 0
1, 135180, Note_on_c, 0, 39, 0
1, 135240, Note_on_c, 0, 57, 47
1, 135240, Note_on_c, 0, 61, 55
1, 135240, Note_on_c, 0, 37, 33
1, 135240, Note_on_c, 0, 49, 41
1, 135300, Note_on_c, 0, 49, 0
1, 135300, Note_on_c, 0, 57, 0
1, 135300, Note_on_c, 0, 61, 0
1, 135300, Note_on_c, 0, 37, 0
1, 135360, Tempo, 612245
1, 135360, Note_on_c, 0, 57, 48
1, 135360, Note_on_c, 0, 63, 57
1, 135360, Note_on_c, 0, 35, 34
1, 135360, Note_on_c, 0, 47, 42
1, 135420, Note_on_c, 0, 47, 0
1, 135420, Note_on_c, 0, 57, 0
1, 135420, Note_on_c, 0, 63, 0
1, 135420, Note_on_c, 0, 35, 0
1, 135480, Tempo, 576923
1, 135480, Note_on_c, 0, 56, 51
1, 135480, Note_on_c, 0, 64, 61
1, 135480, Note_on_c, 0, 40, 43
1, 135480, Note_on_c, 0, 52, 51
1, 135540, Note_on_c, 0, 52, 0
1, 135540, Note_on_c, 0, 40, 0
1, 135600, Note_on_c, 0, 39, 34
1, 135600, Note_on_c, 0, 51, 43
1, 135660, Note_on_c, 0, 51, 0
1, 135660, Note_on_c, 0, 39, 0
1, 135720, Tempo, 566038
1, 135720, Note_on_c, 0, 37, 35
1, 135720, Note_on_c, 0, 49, 43
1, 135780, Note_on_c, 0, 49, 0
1, 135780, Note_on_c, 0, 37, 0
1, 135840, Tempo, 612245
1, 135840, Note_on_c, 0, 64, 0
1, 135840, Note_on_c, 0, 56, 0
1, 135840, Note_on_c, 0, 56, 49
1, 135840, Note_on_c, 0, 59, 49
1, 135840, Note_on_c, 0, 35, 37
1, 135840, Note_on_c, 0, 47, 43
1, 135900, Note_on_c, 0, 47, 0
1, 135900, Note_on_c, 0, 35, 0
1, 135948, Note_on_c, 0, 59, 0
1, 135948, Note_on_c, 0, 56, 0
1, 135960, Tempo, 576923
1, 135960, Note_on_c, 0, 56, 51
1, 135960, Note_on_c, 0, 59, 51
1, 135960, Note_on_c, 0, 68, 61
1, 135960, Note_on_c, 0, 40, 44
1, 135960, Note_on_c, 0, 52, 53
1, 136020, Note_on_c, 0, 52, 0
1, 136020, Note_on_c, 0, 40, 0
1, 136080, Note_on_c, 0, 39, 41
1, 136080, Note_on_c, 0, 51, 49
1, 136140, Note_on_c, 0, 51, 0
1, 136140, Note_on_c, 0, 39, 0
1, 136200, Note_on_c, 0, 37, 38
1, 136200, Note_on_c, 0, 49, 46
1, 136260, Note_on_c, 0, 49, 0
1, 136260, Note_on_c, 0, 37, 0
1, 136320, Tempo, 612245
1, 136320, Note_on_c, 0, 35, 38
1, 136320, Note_on_c, 0, 47, 46
1, 136380, Note_on_c, 0, 47, 0
1, 136380, Note_on_c, 0, 35, 0
1, 136440, Tempo, 574163
1, 136440, Note_on_c, 0, 68, 0
1, 136440, Note_on_c, 0, 59, 0
1, 136440, Note_on_c, 0, 56, 0
1, 136440, Note_on_c, 0, 57, 53
1, 136440, Note_on_c, 0, 59, 53
1, 136440, Note_on_c, 0, 66, 63
1, 136440, Note_on_c, 0, 40, 47
1, 136440, Note_on_c, 0, 52, 57
1, 136500, Note_on_c, 0, 52, 0
1, 136500, Note_on_c, 0, 40, 0
1, 136560, Note_on_c, 0, 39, 38
1, 136560, Note_on_c, 0, 51, 46
1, 136620, Note_on_c, 0, 51, 0
1, 136620, Note_on_c, 0, 39, 0
1, 136680, Note_on_c, 0, 37, 40
1, 136680, Note_on_c, 0, 49, 47
1, 136740, Note_on_c, 0, 49, 0
1, 136740, Note_on_c, 0, 37, 0
1, 136800, Tempo, 612245
1, 136800, Note_on_c, 0, 35, 40
1, 136800, Note_on_c, 0, 47, 48
1, 136860, Note_on_c, 0, 47, 0
1, 136860, Note_on_c, 0, 35, 0
1, 136920, Tempo, 574163
1, 136920, Note_on_c, 0, 66, 0
1, 136920, Note_on_c, 0, 59, 0
1, 136920, Note_on_c, 0, 57, 0
1, 136920, Note_on_c, 0, 56, 57
1, 136920, Note_on_c, 0, 59, 67
1, 136920, Note_on_c, 0, 40, 51
1, 136920, Note_on_c, 0, 52, 59
1, 136980, Note_on_c, 0, 52, 0
1, 136980, Note_on_c, 0, 40, 0
1, 137040, Note_on_c, 0, 39, 41
1, 137040, Note_on_c, 0, 51, 50
1, 137100, Note_on_c, 0, 51, 0
1, 137100, Note_on_c, 0, 39, 0
1, 137160, Tempo, 591133
1, 137160, Note_on_c, 0, 37, 41
1, 137160, Note_on_c, 0, 49, 50
1, 137220, Note_on_c, 0, 49, 0
1, 137220, Note_on_c, 0, 37, 0
1, 137280, Tempo, 612245
1, 137280, Note_on_c, 0, 59, 0
1, 137280, Note_on_c, 0, 56, 0
1, 137280, Note_on_c, 0, 56, 60
1, 137280, Note_on_c, 0, 64, 71
1, 137280, Note_on_c, 0, 35, 42
1, 137280, Note_on_c, 0, 47, 51
1, 137340, Note_on_c, 0, 47, 0
1, 137340, Note_on_c, 0, 35, 0
1, 137388, Note_on_c, 0, 64, 0
1, 137388, Note_on_c, 0, 56, 0
1, 137400, Tempo, 574163
1, 137400, Note_on_c, 0, 56, 61
1, 137400, Note_on_c, 0, 59, 61
1, 137400, Note_on_c, 0, 68, 72
1, 137400, Note_on_c, 0, 40, 52
1, 137400, Note_on_c, 0, 52, 61
1, 137460, Note_on_c, 0, 52, 0
1, 137460, Note_on_c, 0, 40, 0
1, 137520, Note_on_c, 0, 39, 48
1, 137520, Note_on_c, 0, 51, 58
1, 137580, Note_on_c, 0, 51, 0
1, 137580, Note_on_c, 0, 39, 0
1, 137640, Note_on_c, 0, 68, 0
1, 137640, Note_on_c, 0, 59, 0
1, 137640, Note_on_c, 0, 56, 0
1, 137640, Note_on_c, 0, 37, 44
1, 137640, Note_on_c, 0, 49, 55
1, 137700, Note_on_c, 0, 49, 0
1, 137700, Note_on_c, 0, 37, 0
1, 137760, Tempo, 612245
1, 137760, Note_on_c, 0, 57, 59
1, 137760, Note_on_c, 0, 63, 71
1, 137760, Note_on_c, 0, 35, 45
1, 137760, Note_on_c, 0, 47, 56
1, 137820, Note_on_c, 0, 47, 0
1, 137820, Note_on_c, 0, 35, 0
1, 137880, Tempo, 579710
1, 137880, Note_on_c, 0, 63, 0
1, 137880, Note_on_c, 0, 57, 0
1, 137880, Note_on_c, 0, 56, 61
1, 137880, Note_on_c, 0, 64, 73
1, 137880, Note_on_c, 0, 40, 56
1, 137880, Note_on_c, 0, 52, 66
1, 137940, Note_on_c, 0, 52, 0
1, 137940, Note_on_c, 0, 40, 0
1, 138000, Note_on_c, 0, 39, 45
1, 138000, Note_on_c, 0, 51, 53
1, 138060, Note_on_c, 0, 51, 0
1, 138060, Note_on_c, 0, 39, 0
1, 138120, Note_on_c, 0, 64, 0
1, 138120, Note_on_c, 0, 56, 0
1, 138120, Note_on_c, 0, 56, 63
1, 138120, Note_on_c, 0, 64, 63
1, 138120, Note_on_c, 0, 68, 76
1, 138120, Note_on_c, 0, 37, 46
1, 138120, Note_on_c, 0, 49, 54
1, 138180, Note_on_c, 0, 49, 0
1, 138180, Note_on_c, 0, 37, 0
1, 138240, Tempo, 606061
1, 138240, Note_on_c, 0, 35, 47
1, 138240, Note_on_c, 0, 47, 57
1, 138300, Note_on_c, 0, 47, 0
1, 138300, Note_on_c, 0, 35, 0
1, 138360, Tempo, 574163
1, 138360, Note_on_c, 0, 68, 0
1, 138360, Note_on_c, 0, 64, 0
1, 138360, Note_on_c, 0, 56, 0
1, 138360, Note_on_c, 0, 59, 66
1, 138360, Note_on_c, 0, 68, 66
1, 138360, Note_on_c, 0, 71, 78
1, 138360, Note_on_c, 0, 40, 58
1, 138360, Note_on_c, 0, 52, 69
1, 138420, Note_on_c, 0, 52, 0
1, 138420, Note_on_c, 0, 40, 0
1, 138480, Note_on_c, 0, 39, 47
1, 138480, Note_on_c, 0, 51, 57
1, 138540, Note_on_c, 0, 51, 0
1, 138540, Note_on_c, 0, 39, 0
1, 138600, Note_on_c, 0, 37, 47
1, 138600, Note_on_c, 0, 49, 57
1, 138660, Note_on_c, 0, 49, 0
1, 138660, Note_on_c, 0, 37, 0
1, 138720, Tempo, 612245
1, 138720, Note_on_c, 0, 35, 48
1, 138720, Note_on_c, 0, 47, 58
1, 138780, Note_on_c, 0, 47, 0
1, 138780, Note_on_c, 0, 35, 0
1, 138840, Tempo, 574163
1, 138840, Note_on_c, 0, 71, 0
1, 138840, Note_on_c, 0, 68, 0
1, 138840, Note_on_c, 0, 59, 0
1, 138840, Note_on_c, 0, 61, 61
1, 138840, Note_on_c, 0, 68, 61
1, 138840, Note_on_c, 0, 73, 72
1, 138840, Note_on_c, 0, 40, 62
1, 138840, Note_on_c, 0, 52, 73
1, 138900, Note_on_c, 0, 52, 0
1, 138900, Note_on_c, 0, 40, 0
1, 138960, Note_on_c, 0, 61, 0
1, 138960, Note_on_c, 0, 68, 0
1, 138960, Note_on_c, 0, 73, 0
1, 138960, Note_on_c, 0, 63, 64
1, 138960, Note_on_c, 0, 68, 64
1, 138960, Note_on_c, 0, 75, 75
1, 138960, Note_on_c, 0, 39, 56
1, 138960, Note_on_c, 0, 51, 67
1, 139020, Note_on_c, 0, 51, 0
1, 139020, Note_on_c, 0, 39, 0
1, 139080, Tempo, 566038
1, 139080, Note_on_c, 0, 63, 0
1, 139080, Note_on_c, 0, 68, 0
1, 139080, Note_on_c, 0, 75, 0
1, 139080, Note_on_c, 0, 64, 64
1, 139080, Note_on_c, 0, 68, 64
1, 139080, Note_on_c, 0, 76, 77
1, 139080, Note_on_c, 0, 37, 52
1, 139080, Note_on_c, 0, 49, 63
1, 139140, Note_on_c, 0, 49, 0
1, 139140, Note_on_c, 0, 37, 0
1, 139200, Tempo, 612245
1, 139200, Note_on_c, 0, 64, 0
1, 139200, Note_on_c, 0, 68, 0
1, 139200, Note_on_c, 0, 76, 0
1, 139200, Note_on_c, 0, 66, 68
1, 139200, Note_on_c, 0, 71, 68
1, 139200, Note_on_c, 0, 78, 82
1, 139200, Note_on_c, 0, 35, 52
1, 139200, Note_on_c, 0, 47, 63
1, 139260, Note_on_c, 0, 47, 0
1, 139260, Note_on_c, 0, 35, 0
1, 139320, Tempo, 576923
1, 139320, Note_on_c, 0, 66, 0
1, 139320, Note_on_c, 0, 71, 0
1, 139320, Note_on_c, 0, 78, 0
1, 139320, Note_on_c, 0, 71, 85
1, 139320, Note_on_c, 0, 68, 71
1, 139320, Note_on_c, 0, 76, 71
1, 139320, Note_on_c, 0, 80, 85
1, 139320, Note_on_c, 0, 40, 64
1, 139320, Note_on_c, 0, 52, 77
1, 139380, Note_on_c, 0, 52, 0
1, 139380, Note_on_c, 0, 40, 0
1, 139440, Note_on_c, 0, 39, 53
1, 139440, Note_on_c, 0, 51, 63
1, 139500, Note_on_c, 0, 51, 0
1, 139500, Note_on_c, 0, 39, 0
1, 139560, Tempo, 594059
1, 139560, Note_on_c, 0, 40, 54
1, 139560, Note_on_c, 0, 52, 64
1, 139620, Note_on_c, 0, 52, 0
1, 139620, Note_on_c, 0, 40, 0
1, 139680, Tempo, 609137
1, 139680, Note_on_c, 0, 71, 0
1, 139680, Note_on_c, 0, 70, 81
1, 139680, Note_on_c, 0, 38, 55
1, 139680, Note_on_c, 0, 50, 65
1, 139740, Note_on_c, 0, 50, 0
1, 139740, Note_on_c, 0, 38, 0
1, 139800, Tempo, 574163
1, 139800, Note_on_c, 0, 80, 0
1, 139800, Note_on_c, 0, 68, 0
1, 139800, Note_on_c, 0, 76, 0
1, 139800, Note_on_c, 0, 67, 74
1, 139800, Note_on_c, 0, 75, 74
1, 139800, Note_on_c, 0, 79, 88
1, 139800, Note_on_c, 0, 39, 66
1, 139800, Note_on_c, 0, 51, 77
1, 139860, Note_on_c, 0, 51, 0
1, 139860, Note_on_c, 0, 39, 0
1, 139920, Note_on_c, 0, 38, 54
1, 139920, Note_on_c, 0, 50, 65
1, 139980, Note_on_c, 0, 50, 0
1, 139980, Note_on_c, 0, 38, 0
1, 140040, Note_on_c, 0, 36, 54
1, 140040, Note_on_c, 0, 48, 65
1, 140100, Note_on_c, 0, 48, 0
1, 140100, Note_on_c, 0, 36, 0
1, 140160, Tempo, 612245
1, 140160, Note_on_c, 0, 34, 54
1, 140160, Note_on_c, 0, 46, 65
1, 140220, Note_on_c, 0, 46, 0
1, 140220, Note_on_c, 0, 34, 0
1, 140280, Tempo, 574163
1, 140280, Note_on_c, 0, 39, 67
1, 140280, Note_on_c, 0, 51, 79
1, 140340, Note_on_c, 0, 51, 0
1, 140340, Note_on_c, 0, 39, 0
1, 140400, Note_on_c, 0, 38, 62
1, 140400, Note_on_c, 0, 50, 75
1, 140460, Note_on_c, 0, 50, 0
1, 140460, Note_on_c, 0, 38, 0
1, 140520, Tempo, 591133
1, 140520, Note_on_c, 0, 79, 0
1, 140520, Note_on_c, 0, 70, 0
1, 140520, Note_on_c, 0, 67, 0
1, 140520, Note_on_c, 0, 75, 0
1, 140520, Note_on_c, 0, 58, 72
1, 140520, Note_on_c, 0, 67, 72
1, 140520, Note_on_c, 0, 70, 86
1, 140520, Note_on_c, 0, 36, 58
1, 140520, Note_on_c, 0, 48, 69
1, 140580, Note_on_c, 0, 48, 0
1, 140580, Note_on_c, 0, 36, 0
1, 140640, Tempo, 612245
1, 140640, Note_on_c, 0, 34, 58
1, 140640, Note_on_c, 0, 46, 69
1, 140700, Note_on_c, 0, 46, 0
1, 140700, Note_on_c, 0, 34, 0
1, 140760, Tempo, 576923
1, 140760, Note_on_c, 0, 67, 0
1, 140760, Note_on_c, 0, 58, 0
1, 140760, Note_on_c, 0, 63, 76
1, 140760, Note_on_c, 0, 67, 76
1, 140760, Note_on_c, 0, 75, 90
1, 140760, Note_on_c, 0, 39, 69
1, 140760, Note_on_c, 0, 51, 84
1, 140820, Note_on_c, 0, 51, 0
1, 140820, Note_on_c, 0, 39, 0
1, 140880, Note_on_c, 0, 38, 58
1, 140880, Note_on_c, 0, 50, 68
1, 140940, Note_on_c, 0, 50, 0
1, 140940, Note_on_c, 0, 38, 0
1, 141000, Note_on_c, 0, 67, 0
1, 141000, Note_on_c, 0, 70, 0
1, 141000, Note_on_c, 0, 63, 0
1, 141000, Note_on_c, 0, 67, 81
1, 141000, Note_on_c, 0, 70, 81
1, 141000, Note_on_c, 0, 79, 96
1, 141000, Note_on_c, 0, 36, 59
1, 141000, Note_on_c, 0, 48, 70
1, 141060, Note_on_c, 0, 48, 0
1, 141060, Note_on_c, 0, 36, 0
1, 141120, Tempo, 609137
1, 141120, Note_on_c, 0, 34, 61
1, 141120, Note_on_c, 0, 46, 71
1, 141180, Note_on_c, 0, 46, 0
1, 141180, Note_on_c, 0, 34, 0
1, 141240, Tempo, 574163
1, 141240, Note_on_c, 0, 79, 0
1, 141240, Note_on_c, 0, 75, 0
1, 141240, Note_on_c, 0, 67, 0
1, 141240, Note_on_c, 0, 70, 0
1, 141240, Note_on_c, 0, 70, 85
1, 141240, Note_on_c, 0, 79, 85
1, 141240, Note_on_c, 0, 82, 101
1, 141240, Note_on_c, 0, 39, 71
1, 141240, Note_on_c, 0, 51, 82
1, 141300, Note_on_c, 0, 51, 0
1, 141300, Note_on_c, 0, 39, 0
1, 141360, Note_on_c, 0, 38, 57
1, 141360, Note_on_c, 0, 50, 68
1, 141420, Note_on_c, 0, 50, 0
1, 141420, Note_on_c, 0, 38, 0
1, 141480, Tempo, 566038
1, 141480, Note_on_c, 0, 36, 58
1, 141480, Note_on_c, 0, 48, 69
1, 141540, Note_on_c, 0, 48, 0
1, 141540, Note_on_c, 0, 36, 0
1, 141600, Tempo, 612245
1, 141600, Note_on_c, 0, 70, 0
1, 141600, Note_on_c, 0, 79, 0
1, 141600, Note_on_c, 0, 82, 0
1, 141600, Note_on_c, 0, 75, 83
1, 141600, Note_on_c, 0, 79, 83
1, 141600, Note_on_c, 0, 87, 99
1, 141600, Note_on_c, 0, 34, 58
1, 141600, Note_on_c, 0, 46, 69
1, 141660, Note_on_c, 0, 46, 0
1, 141660, Note_on_c, 0, 34, 0
1, 141720, Tempo, 574163
1, 141720, Note_on_c, 0, 75, 0
1, 141720, Note_on_c, 0, 79, 0
1, 141720, Note_on_c, 0, 75, 84
1, 141720, Note_on_c, 0, 79, 100
1, 141720, Note_on_c, 0, 39, 72
1, 141720, Note_on_c, 0, 51, 85
1, 141780, Note_on_c, 0, 51, 0
1, 141780, Note_on_c, 0, 39, 0
1, 141840, Note_on_c, 0, 38, 64
1, 141840, Note_on_c, 0, 50, 78
1, 141900, Note_on_c, 0, 50, 0
1, 141900, Note_on_c, 0, 38, 0
1, 141960, Tempo, 594059
1, 141960, Note_on_c, 0, 36, 60
1, 141960, Note_on_c, 0, 48, 73
1, 142020, Note_on_c, 0, 48, 0
1, 142020, Note_on_c, 0, 36, 0
1, 142080, Tempo, 612245
1, 142080, Note_on_c, 0, 79, 0
1, 142080, Note_on_c, 0, 75, 0
1, 142080, Note_on_c, 0, 75, 81
1, 142080, Note_on_c, 0, 67, 81
1, 142080, Note_on_c, 0, 79, 96
1, 142080, Note_on_c, 0, 34, 60
1, 142080, Note_on_c, 0, 46, 73
1, 142140, Note_on_c, 0, 46, 0
1, 142140, Note_on_c, 0, 34, 0
1, 142200, Tempo, 585366
1, 142200, Note_on_c, 0, 67, 0
1, 142200, Note_on_c, 0, 75, 0
1, 142200, Note_on_c, 0, 67, 81
1, 142200, Note_on_c, 0, 75, 81
1, 142200, Note_on_c, 0, 39, 73
1, 142200, Note_on_c, 0, 51, 87
1, 142260, Note_on_c, 0, 51, 0
1, 142260, Note_on_c, 0, 39, 0
1, 142320, Note_on_c, 0, 38, 60
1, 142320, Note_on_c, 0, 50, 72
1, 142380, Note_on_c, 0, 50, 0
1, 142380, Note_on_c, 0, 38, 0
1, 142440, Note_on_c, 0, 75, 0
1, 142440, Note_on_c, 0, 79, 0
1, 142440, Note_on_c, 0, 87, 0
1, 142440, Note_on_c, 0, 67, 0
1, 142440, Note_on_c, 0, 72, 78
1, 142440, Note_on_c, 0, 84, 92
1, 142440, Note_on_c, 0, 79, 78
1, 142440, Note_on_c, 0, 36, 60
1, 142440, Note_on_c, 0, 48, 72
1, 142500, Note_on_c, 0, 48, 0
1, 142500, Note_on_c, 0, 36, 0
1, 142560, Tempo, 609137
1, 142560, Note_on_c, 0, 72, 0
1, 142560, Note_on_c, 0, 84, 0
1, 142560, Note_on_c, 0, 79, 0
1, 142560, Note_on_c, 0, 34, 62
1, 142560, Note_on_c, 0, 46, 74
1, 142620, Note_on_c, 0, 46, 0
1, 142620, Note_on_c, 0, 34, 0
1, 142680, Tempo, 574163
1, 142680, Note_on_c, 0, 70, 85
1, 142680, Note_on_c, 0, 79, 85
1, 142680, Note_on_c, 0, 82, 102
1, 142680, Note_on_c, 0, 39, 73
1, 142680, Note_on_c, 0, 51, 84
1, 142740, Note_on_c, 0, 51, 0
1, 142740, Note_on_c, 0, 39, 0
1, 142800, Note_on_c, 0, 38, 59
1, 142800, Note_on_c, 0, 50, 70
1, 142860, Note_on_c, 0, 50, 0
1, 142860, Note_on_c, 0, 38, 0
1, 142920, Note_on_c, 0, 36, 59
1, 142920, Note_on_c, 0, 48, 70
1, 142980, Note_on_c, 0, 48, 0
1, 142980, Note_on_c, 0, 36, 0
1, 143040, Tempo, 612245
1, 143040, Note_on_c, 0, 34, 59
1, 143040, Note_on_c, 0, 46, 71
1, 143100, Note_on_c, 0, 46, 0
1, 143100, Note_on_c, 0, 34, 0
1, 143160, Tempo, 582524
1, 143160, Note_on_c, 0, 82, 0
1, 143160, Note_on_c, 0, 79, 0
1, 143160, Note_on_c, 0, 70, 0
1, 143160, Note_on_c, 0, 39, 74
1, 143160, Note_on_c, 0, 51, 87
1, 143220, Note_on_c, 0, 51, 0
1, 143220, Note_on_c, 0, 39, 0
1, 143280, Note_on_c, 0, 38, 66
1, 143280, Note_on_c, 0, 50, 80
1, 143340, Note_on_c, 0, 50, 0
1, 143340, Note_on_c, 0, 38, 0
1, 143400, Note_on_c, 0, 58, 83
1, 143400, Note_on_c, 0, 70, 98
1, 143400, Note_on_c, 0, 36, 62
1, 143400, Note_on_c, 0, 48, 74
1, 143460, Note_on_c, 0, 48, 0
1, 143460, Note_on_c, 0, 58, 0
1, 143460, Note_on_c, 0, 70, 0
1, 143460, Note_on_c, 0, 36, 0
1, 143520, Tempo, 612245
1, 143520, Note_on_c, 0, 58, 83
1, 143520, Note_on_c, 0, 70, 98
1, 143520, Note_on_c, 0, 34, 62
1, 143520, Note_on_c, 0, 46, 74
1, 143580, Note_on_c, 0, 46, 0
1, 143580, Note_on_c, 0, 58, 0
1, 143580, Note_on_c, 0, 70, 0
1, 143580, Note_on_c, 0, 34, 0
1, 143640, Tempo, 582524
1, 143640, Note_on_c, 0, 58, 89
1, 143640, Note_on_c, 0, 70, 106
1, 143640, Note_on_c, 0, 68, 89
1, 143640, Note_on_c, 0, 39, 75
1, 143640, Note_on_c, 0, 51, 89
1, 143700, Note_on_c, 0, 51, 0
1, 143700, Note_on_c, 0, 39, 0
1, 143760, Note_on_c, 0, 58, 0
1, 143760, Note_on_c, 0, 70, 0
1, 143760, Note_on_c, 0, 68, 0
1, 143760, Note_on_c, 0, 38, 62
1, 143760, Note_on_c, 0, 50, 74
1, 143820, Note_on_c, 0, 50, 0
1, 143820, Note_on_c, 0, 38, 0
1, 143880, Note_on_c, 0, 65, 86
1, 143880, Note_on_c, 0, 68, 86
1, 143880, Note_on_c, 0, 70, 86
1, 143880, Note_on_c, 0, 77, 101
1, 143880, Note_on_c, 0, 36, 62
1, 143880, Note_on_c, 0, 48, 74
1, 143940, Note_on_c, 0, 48, 0
1, 143940, Note_on_c, 0, 36, 0
1, 144000, Tempo, 609137
1, 144000, Note_on_c, 0, 70, 0
1, 144000, Note_on_c, 0, 65, 0
1, 144000, Note_on_c, 0, 68, 0
1, 144000, Note_on_c, 0, 77, 0
1, 144000, Note_on_c, 0, 34, 63
1, 144000, Note_on_c, 0, 46, 75
1, 144060, Note_on_c, 0, 46, 0
1, 144060, Note_on_c, 0, 34, 0
1, 144120, Tempo, 745527
1, 144120, Note_on_c, 0, 63, 94
1, 144120, Note_on_c, 0, 67, 94
1, 144120, Note_on_c, 0, 75, 111
1, 144120, Note_on_c, 0, 39, 76
1, 144120, Note_on_c, 0, 51, 90
1, 144180, Note_on_c, 0, 51, 0
1, 144180, Note_on_c, 0, 39, 0
1, 144240, Tempo, 689814
1, 144240, Note_on_c, 0, 63, 0
1, 144240, Note_on_c, 0, 67, 0
1, 144240, Note_on_c, 0, 75, 0
1, 144270, Note_on_c, 0, 51, 70
1, 144300, Note_on_c, 0, 57, 72
1, 144300, Note_on_c, 0, 35, 58
1, 144330, Note_on_c, 0, 59, 74
1, 144330, Note_on_c, 0, 42, 61
1, 144360, Tempo, 685871
1, 144360, Note_on_c, 0, 63, 77
1, 144360, Control_c, 0, 64, 127
1, 144360, Note_on_c, 0, 47, 63
1, 144510, Note_on_c, 0, 63, 0
1, 144510, Note_on_c, 0, 57, 0
1, 144510, Note_on_c, 0, 51, 0
1, 144510, Note_on_c, 0, 59, 0
1, 144510, Note_on_c, 0, 51, 72
1, 144540, Note_on_c, 0, 47, 0
1, 144540, Note_on_c, 0, 35, 0
1, 144540, Note_on_c, 0, 42, 0
1, 144540, Note_on_c, 0, 57, 75
1, 144540, Note_on_c, 0, 35, 60
1, 144570, Note_on_c, 0, 59, 78
1, 144570, Note_on_c, 0, 42, 63
1, 144600, Note_on_c, 0, 63, 81
1, 144600, Note_on_c, 0, 47, 66
1, 144750, Note_on_c, 0, 63, 0
1, 144750, Note_on_c, 0, 57, 0
1, 144750, Note_on_c, 0, 51, 0
1, 144750, Note_on_c, 0, 59, 0
1, 144750, Note_on_c, 0, 51, 74
1, 144780, Note_on_c, 0, 47, 0
1, 144780, Note_on_c, 0, 35, 0
1, 144780, Note_on_c, 0, 42, 0
1, 144780, Note_on_c, 0, 57, 78
1, 144780, Note_on_c, 0, 35, 63
1, 144810, Note_on_c, 0, 59, 80
1, 144810, Note_on_c, 0, 42, 65
1, 144840, Note_on_c, 0, 63, 83
1, 144840, Note_on_c, 0, 47, 69
1, 144990, Note_on_c, 0, 63, 0
1, 144990, Note_on_c, 0, 57, 0
1, 144990, Note_on_c, 0, 51, 0
1, 144990, Note_on_c, 0, 59, 0
1, 144990, Note_on_c, 0, 51, 77
1, 145017, Tempo, 697837
1, 145020, Note_on_c, 0, 47, 0
1, 145020, Note_on_c, 0, 35, 0
1, 145020, Note_on_c, 0, 42, 0
1, 145020, Note_on_c, 0, 57, 80
1, 145020, Note_on_c, 0, 35, 64
1, 145050, Note_on_c, 0, 59, 82
1, 145050, Note_on_c, 0, 42, 68
1, 145065, Tempo, 701919
1, 145080, Note_on_c, 0, 63, 86
1, 145080, Note_on_c, 0, 47, 71
1, 145089, Tempo, 706048
1, 145200, Tempo, 681973
1, 145230, Note_on_c, 0, 63, 0
1, 145230, Note_on_c, 0, 57, 0
1, 145230, Note_on_c, 0, 51, 0
1, 145230, Note_on_c, 0, 59, 0
1, 145230, Note_on_c, 0, 51, 80
1, 145260, Note_on_c, 0, 47, 0
1, 145260, Note_on_c, 0, 35, 0
1, 145260, Note_on_c, 0, 42, 0
1, 145260, Note_on_c, 0, 57, 83
1, 145260, Note_on_c, 0, 35, 66
1, 145290, Note_on_c, 0, 59, 85
1, 145290, Note_on_c, 0, 42, 70
1, 145320, Note_on_c, 0, 63, 89
1, 145320, Note_on_c, 0, 47, 73
1, 145560, Tempo, 659486
1, 145560, Note_on_c, 0, 47, 0
1, 145560, Note_on_c, 0, 42, 0
1, 145560, Note_on_c, 0, 57, 0
1, 145560, Note_on_c, 0, 35, 0
1, 145560, Note_on_c, 0, 51, 0
1, 145560, Note_on_c, 0, 63, 0
1, 145560, Note_on_c, 0, 59, 0
1, 145560, Note_on_c, 0, 52, 84
1, 145560, Note_on_c, 0, 56, 84
1, 145560, Note_on_c, 0, 64, 99
1, 145560, Note_on_c, 0, 28, 59
1, 145560, Note_on_c, 0, 40, 70
1, 145563, Control_c, 0, 64, 0
1, 145680, Note_on_c, 0, 40, 0
1, 145680, Note_on_c, 0, 64, 0
1, 145680, Note_on_c, 0, 52, 0
1, 145680, Note_on_c, 0, 56, 0
1, 145680, Note_on_c, 0, 28, 0
1, 145884, Tempo, 555556
1, 145920, Tempo, 640273
1, 145950, Tempo, 524980
1, 145950, Note_on_c, 0, 56, 79
1, 145960, Tempo, 593296
1, 145973, Control_c, 0, 64, 127
1, 145980, Note_on_c, 0, 59, 80
1, 145980, Note_on_c, 0, 40, 80
1, 146010, Note_on_c, 0, 64, 80
1, 146010, Note_on_c, 0, 47, 80
1, 146040, Tempo, 659486
1, 146040, Note_on_c, 0, 68, 80
1, 146040, Note_on_c, 0, 52, 80
1, 146430, Note_on_c, 0, 52, 0
1, 146430, Note_on_c, 0, 47, 0
1, 146430, Note_on_c, 0, 59, 0
1, 146430, Note_on_c, 0, 40, 0
1, 146430, Note_on_c, 0, 56, 0
1, 146430, Note_on_c, 0, 68, 0
1, 146430, Note_on_c, 0, 64, 0
1, 146430, Note_on_c, 0, 56, 78
1, 146440, Tempo, 596659
1, 146460, Note_on_c, 0, 59, 78
1, 146460, Note_on_c, 0, 40, 78
1, 146490, Note_on_c, 0, 64, 77
1, 146490, Note_on_c, 0, 47, 77
1, 146520, Tempo, 663130
1, 146520, Note_on_c, 0, 68, 77
1, 146520, Note_on_c, 0, 52, 77
1, 146910, Note_on_c, 0, 52, 0
1, 146910, Note_on_c, 0, 47, 0
1, 146910, Note_on_c, 0, 59, 0
1, 146910, Note_on_c, 0, 40, 0
1, 146910, Note_on_c, 0, 56, 0
1, 146910, Note_on_c, 0, 68, 0
1, 146910, Note_on_c, 0, 64, 0
1, 146910, Note_on_c, 0, 56, 75
1, 146920, Tempo, 600000
1, 146940, Note_on_c, 0, 59, 75
1, 146940, Note_on_c, 0, 40, 75
1, 146970, Note_on_c, 0, 64, 75
1, 146970, Note_on_c, 0, 47, 75
1, 147000, Tempo, 659486
1, 147000, Note_on_c, 0, 68, 74
1, 147000, Note_on_c, 0, 52, 74
1, 147390, Note_on_c, 0, 52, 0
1, 147390, Note_on_c, 0, 47, 0
1, 147390, Note_on_c, 0, 59, 0
1, 147390, Note_on_c, 0, 40, 0
1, 147390, Note_on_c, 0, 56, 0
1, 147390, Note_on_c, 0, 68, 0
1, 147390, Note_on_c, 0, 64, 0
1, 147390, Note_on_c, 0, 56, 72
1, 147400, Tempo, 593296
1, 147420, Note_on_c, 0, 59, 72
1, 147420, Note_on_c, 0, 40, 72
1, 147450, Note_on_c, 0, 64, 72
1, 147450, Note_on_c, 0, 47, 72
1, 147480, Tempo, 663130
1, 147480, Note_on_c, 0, 68, 72
1, 147480, Note_on_c, 0, 52, 72
1, 147870, Note_on_c, 0, 52, 0
1, 147870, Note_on_c, 0, 47, 0
1, 147870, Note_on_c, 0, 59, 0
1, 147870, Note_on_c, 0, 40, 0
1, 147870, Note_on_c, 0, 56, 0
1, 147870, Note_on_c, 0, 68, 0
1, 147870, Note_on_c, 0, 64, 0
1, 147870, Note_on_c, 0, 56, 69
1, 147880, Tempo, 596659
1, 147900, Note_on_c, 0, 59, 69
1, 147900, Note_on_c, 0, 40, 69
1, 147930, Note_on_c, 0, 64, 69
1, 147930, Note_on_c, 0, 47, 69
1, 147940, Tempo, 535714
1, 147960, Note_on_c, 0, 68, 69
1, 147960, Note_on_c, 0, 52, 69
1, 147965, Tempo, 594707
1, 148440, Tempo, 565824
1, 148440, Note_on_c, 0, 52, 0
1, 148440, Note_on_c, 0, 47, 0
1, 148440, Note_on_c, 0, 59, 0
1, 148440, Note_on_c, 0, 40, 0
1, 148440, Note_on_c, 0, 56, 0
1, 148440, Note_on_c, 0, 68, 0
1, 148440, Note_on_c, 0, 64, 0
1, 148440, Note_on_c, 0, 56, 66
1, 148440, Note_on_c, 0, 59, 66
1, 148440, Note_on_c, 0, 64, 66
1, 148440, Note_on_c, 0, 68, 66
1, 148440, Note_on_c, 0, 40, 66
1, 148440, Note_on_c, 0, 47, 66
1, 148440, Note_on_c, 0, 52, 66
1, 148500, Note_on_c, 0, 52, 0
1, 148500, Note_on_c, 0, 40, 0
1, 148500, Note_on_c, 0, 59, 0
1, 148500, Note_on_c, 0, 64, 0
1, 148500, Note_on_c, 0, 56, 0
1, 148500, Note_on_c, 0, 47, 0
1, 148500, Note_on_c, 0, 68, 0
1, 148549, Control_c, 0, 64, 0
1, 148560, Note_on_c, 0, 39, 24
1, 148560, Note_on_c, 0, 51, 28
1, 148620, Note_on_c, 0, 51, 0
1, 148620, Note_on_c, 0, 39, 0
1, 148680, Note_on_c, 0, 37, 24
1, 148680, Note_on_c, 0, 49, 28
1, 148740, Note_on_c, 0, 49, 0
1, 148740, Note_on_c, 0, 37, 0
1, 148800, Tempo, 594707
1, 148800, Note_on_c, 0, 35, 24
1, 148800, Note_on_c, 0, 47, 28
1, 148860, Note_on_c, 0, 47, 0
1, 148860, Note_on_c, 0, 35, 0
1, 148920, Tempo, 560381
1, 148920, Note_on_c, 0, 40, 28
1, 148920, Note_on_c, 0, 52, 35
1, 148980, Note_on_c, 0, 52, 0
1, 148980, Note_on_c, 0, 40, 0
1, 149040, Note_on_c, 0, 39, 27
1, 149040, Note_on_c, 0, 51, 32
1, 149100, Note_on_c, 0, 51, 0
1, 149100, Note_on_c, 0, 39, 0
1, 149160, Note_on_c, 0, 37, 24
1, 149160, Note_on_c, 0, 49, 28
1, 149220, Note_on_c, 0, 49, 0
1, 149220, Note_on_c, 0, 37, 0
1, 149280, Tempo, 585709
1, 149280, Note_on_c, 0, 35, 24
1, 149280, Note_on_c, 0, 47, 28
1, 149340, Note_on_c, 0, 47, 0
1, 149340, Note_on_c, 0, 35, 0
1, 149400, Tempo, 555042
1, 149400, Note_on_c, 0, 40, 28
1, 149400, Note_on_c, 0, 52, 35
1, 149460, Note_on_c, 0, 52, 0
1, 149460, Note_on_c, 0, 40, 0
1, 149520, Note_on_c, 0, 39, 24
1, 149520, Note_on_c, 0, 51, 28
1, 149580, Note_on_c, 0, 51, 0
1, 149580, Note_on_c, 0, 39, 0
1, 149640, Note_on_c, 0, 37, 24
1, 149640, Note_on_c, 0, 49, 28
1, 149700, Note_on_c, 0, 49, 0
1, 149700, Note_on_c, 0, 37, 0
1, 149760, Tempo, 594707
1, 149760, Note_on_c, 0, 35, 24
1, 149760, Note_on_c, 0, 47, 28
1, 149820, Note_on_c, 0, 47, 0
1, 149820, Note_on_c, 0, 35, 0
1, 149880, Tempo, 552435
1, 149880, Note_on_c, 0, 40, 29
1, 149880, Note_on_c, 0, 52, 35
1, 149940, Note_on_c, 0, 52, 0
1, 149940, Note_on_c, 0, 40, 0
1, 150000, Note_on_c, 0, 39, 24
1, 150000, Note_on_c, 0, 51, 28
1, 150060, Note_on_c, 0, 51, 0
1, 150060, Note_on_c, 0, 39, 0
1, 150120, Note_on_c, 0, 37, 24
1, 150120, Note_on_c, 0, 49, 28
1, 150180, Note_on_c, 0, 49, 0
1, 150180, Note_on_c, 0, 37, 0
1, 150240, Tempo, 591658
1, 150240, Note_on_c, 0, 35, 24
1, 150240, Note_on_c, 0, 47, 28
1, 150300, Note_on_c, 0, 47, 0
1, 150300, Note_on_c, 0, 35, 0
1, 150360, Tempo, 557724
1, 150360, Note_on_c, 0, 40, 29
1, 150360, Note_on_c, 0, 52, 34
1, 150420, Note_on_c, 0, 52, 0
1, 150420, Note_on_c, 0, 40, 0
1, 150480, Note_on_c, 0, 39, 26
1, 150480, Note_on_c, 0, 51, 32
1, 150540, Note_on_c, 0, 51, 0
1, 150540, Note_on_c, 0, 39, 0
1, 150600, Note_on_c, 0, 37, 24
1, 150600, Note_on_c, 0, 49, 29
1, 150660, Note_on_c, 0, 49, 0
1, 150660, Note_on_c, 0, 37, 0
1, 150720, Tempo, 591658
1, 150720, Note_on_c, 0, 35, 24
1, 150720, Note_on_c, 0, 47, 29
1, 150780, Note_on_c, 0, 47, 0
1, 150780, Note_on_c, 0, 35, 0
1, 150840, Tempo, 560381
1, 150840, Note_on_c, 0, 40, 29
1, 150840, Note_on_c, 0, 52, 35
1, 150900, Note_on_c, 0, 52, 0
1, 150900, Note_on_c, 0, 40, 0
1, 150960, Note_on_c, 0, 39, 24
1, 150960, Note_on_c, 0, 51, 28
1, 151020, Note_on_c, 0, 51, 0
1, 151020, Note_on_c, 0, 39, 0
1, 151080, Note_on_c, 0, 37, 24
1, 151080, Note_on_c, 0, 49, 28
1, 151140, Note_on_c, 0, 49, 0
1, 151140, Note_on_c, 0, 37, 0
1, 151200, Note_on_c, 0, 35, 24
1, 151200, Note_on_c, 0, 47, 28
1, 151220, Tempo, 591658
1, 151260, Note_on_c, 0, 47, 0
1, 151260, Note_on_c, 0, 35, 0
1, 151320, Tempo, 565824
1, 151320, Note_on_c, 0, 56, 37
1, 151320, Note_on_c, 0, 59, 44
1, 151320, Note_on_c, 0, 40, 31
1, 151320, Note_on_c, 0, 52, 36
1, 151380, Note_on_c, 0, 52, 0
1, 151380, Note_on_c, 0, 40, 0
1, 151440, Note_on_c, 0, 39, 24
1, 151440, Note_on_c, 0, 51, 29
1, 151500, Note_on_c, 0, 51, 0
1, 151500, Note_on_c, 0, 39, 0
1, 151560, Note_on_c, 0, 37, 25
1, 151560, Note_on_c, 0, 49, 29
1, 151620, Note_on_c, 0, 49, 0
1, 151620, Note_on_c, 0, 37, 0
1, 151680, Tempo, 591658
1, 151680, Note_on_c, 0, 35, 25
1, 151680, Note_on_c, 0, 47, 29
1, 151740, Note_on_c, 0, 47, 0
1, 151740, Note_on_c, 0, 35, 0
1, 151800, Tempo, 565824
1, 151800, Note_on_c, 0, 40, 30
1, 151800, Note_on_c, 0, 52, 36
1, 151860, Note_on_c, 0, 52, 0
1, 151860, Note_on_c, 0, 40, 0
1, 151920, Note_on_c, 0, 39, 28
1, 151920, Note_on_c, 0, 51, 34
1, 151980, Note_on_c, 0, 51, 0
1, 151980, Note_on_c, 0, 39, 0
1, 152040, Note_on_c, 0, 37, 25
1, 152040, Note_on_c, 0, 49, 30
1, 152100, Note_on_c, 0, 49, 0
1, 152100, Note_on_c, 0, 37, 0
1, 152160, Tempo, 597729
1, 152160, Note_on_c, 0, 35, 25
1, 152160, Note_on_c, 0, 47, 30
1, 152220, Note_on_c, 0, 47, 0
1, 152220, Note_on_c, 0, 35, 0
1, 152280, Tempo, 565824
1, 152280, Note_on_c, 0, 59, 0
1, 152280, Note_on_c, 0, 56, 0
1, 152280, Note_on_c, 0, 57, 35
1, 152280, Note_on_c, 0, 59, 42
1, 152280, Note_on_c, 0, 40, 30
1, 152280, Note_on_c, 0, 52, 36
1, 152340, Note_on_c, 0, 52, 0
1, 152340, Note_on_c, 0, 40, 0
1, 152400, Note_on_c, 0, 39, 25
1, 152400, Note_on_c, 0, 51, 29
1, 152460, Note_on_c, 0, 51, 0
1, 152460, Note_on_c, 0, 39, 0
1, 152520, Note_on_c, 0, 37, 25
1, 152520, Note_on_c, 0, 49, 29
1, 152580, Note_on_c, 0, 49, 0
1, 152580, Note_on_c, 0, 37, 0
1, 152640, Tempo, 597729
1, 152640, Note_on_c, 0, 59, 0
1, 152640, Note_on_c, 0, 57, 0
1, 152640, Note_on_c, 0, 57, 36
1, 152640, Note_on_c, 0, 59, 44
1, 152640, Note_on_c, 0, 35, 26
1, 152640, Note_on_c, 0, 47, 30
1, 152700, Note_on_c, 0, 47, 0
1, 152700, Note_on_c, 0, 35, 0
1, 152760, Tempo, 565824
1, 152760, Note_on_c, 0, 59, 0
1, 152760, Note_on_c, 0, 57, 0
1, 152760, Note_on_c, 0, 56, 36
1, 152760, Note_on_c, 0, 59, 44
1, 152760, Note_on_c, 0, 40, 31
1, 152760, Note_on_c, 0, 52, 36
1, 152820, Note_on_c, 0, 52, 0
1, 152820, Note_on_c, 0, 40, 0
1, 152880, Note_on_c, 0, 39, 26
1, 152880, Note_on_c, 0, 51, 30
1, 152940, Note_on_c, 0, 51, 0
1, 152940, Note_on_c, 0, 39, 0
1, 153000, Tempo, 542152
1, 153000, Note_on_c, 0, 37, 26
1, 153000, Note_on_c, 0, 49, 30
1, 153060, Note_on_c, 0, 49, 0
1, 153060, Note_on_c, 0, 37, 0
1, 153120, Tempo, 594707
1, 153120, Note_on_c, 0, 59, 0
1, 153120, Note_on_c, 0, 56, 0
1, 153120, Note_on_c, 0, 56, 35
1, 153120, Note_on_c, 0, 64, 41
1, 153120, Note_on_c, 0, 35, 26
1, 153120, Note_on_c, 0, 47, 30
1, 153180, Note_on_c, 0, 47, 0
1, 153180, Note_on_c, 0, 35, 0
1, 153228, Note_on_c, 0, 64, 0
1, 153228, Note_on_c, 0, 56, 0
1, 153240, Tempo, 557724
1, 153240, Note_on_c, 0, 56, 39
1, 153240, Note_on_c, 0, 59, 39
1, 153240, Note_on_c, 0, 68, 46
1, 153240, Note_on_c, 0, 40, 31
1, 153240, Note_on_c, 0, 52, 36
1, 153300, Note_on_c, 0, 52, 0
1, 153300, Note_on_c, 0, 40, 0
1, 153360, Note_on_c, 0, 39, 28
1, 153360, Note_on_c, 0, 51, 33
1, 153420, Note_on_c, 0, 51, 0
1, 153420, Note_on_c, 0, 39, 0
1, 153480, Note_on_c, 0, 37, 26
1, 153480, Note_on_c, 0, 49, 31
1, 153540, Note_on_c, 0, 49, 0
1, 153540, Note_on_c, 0, 37, 0
1, 153600, Tempo, 594707
1, 153600, Note_on_c, 0, 35, 26
1, 153600, Note_on_c, 0, 47, 31
1, 153660, Note_on_c, 0, 47, 0
1, 153660, Note_on_c, 0, 35, 0
1, 153720, Tempo, 565824
1, 153720, Note_on_c, 0, 68, 0
1, 153720, Note_on_c, 0, 59, 0
1, 153720, Note_on_c, 0, 56, 0
1, 153720, Note_on_c, 0, 57, 33
1, 153720, Note_on_c, 0, 59, 33
1, 153720, Note_on_c, 0, 66, 40
1, 153720, Note_on_c, 0, 40, 31
1, 153720, Note_on_c, 0, 52, 38
1, 153780, Note_on_c, 0, 52, 0
1, 153780, Note_on_c, 0, 40, 0
1, 153840, Note_on_c, 0, 39, 26
1, 153840, Note_on_c, 0, 51, 30
1, 153900, Note_on_c, 0, 51, 0
1, 153900, Note_on_c, 0, 39, 0
1, 153960, Note_on_c, 0, 37, 26
1, 153960, Note_on_c, 0, 49, 30
1, 154020, Note_on_c, 0, 49, 0
1, 154020, Note_on_c, 0, 37, 0
1, 154080, Tempo, 594707
1, 154080, Note_on_c, 0, 35, 26
1, 154080, Note_on_c, 0, 47, 30
1, 154140, Note_on_c, 0, 47, 0
1, 154140, Note_on_c, 0, 35, 0
1, 154200, Tempo, 565824
1, 154200, Note_on_c, 0, 66, 0
1, 154200, Note_on_c, 0, 59, 0
1, 154200, Note_on_c, 0, 57, 0
1, 154200, Note_on_c, 0, 56, 35
1, 154200, Note_on_c, 0, 59, 42
1, 154200, Note_on_c, 0, 40, 31
1, 154200, Note_on_c, 0, 52, 38
1, 154260, Note_on_c, 0, 52, 0
1, 154260, Note_on_c, 0, 40, 0
1, 154320, Note_on_c, 0, 39, 25
1, 154320, Note_on_c, 0, 51, 30
1, 154380, Note_on_c, 0, 51, 0
1, 154380, Note_on_c, 0, 39, 0
1, 154440, Tempo, 544662
1, 154440, Note_on_c, 0, 37, 25
1, 154440, Note_on_c, 0, 49, 30
1, 154500, Note_on_c, 0, 49, 0
1, 154500, Note_on_c, 0, 37, 0
1, 154560, Tempo, 594707
1, 154560, Note_on_c, 0, 59, 0
1, 154560, Note_on_c, 0, 56, 0
1, 154560, Note_on_c, 0, 56, 35
1, 154560, Note_on_c, 0, 64, 42
1, 154560, Note_on_c, 0, 35, 25
1, 154560, Note_on_c, 0, 47, 30
1, 154620, Note_on_c, 0, 47, 0
1, 154620, Note_on_c, 0, 35, 0
1, 154668, Note_on_c, 0, 64, 0
1, 154668, Note_on_c, 0, 56, 0
1, 154680, Tempo, 560381
1, 154680, Note_on_c, 0, 56, 36
1, 154680, Note_on_c, 0, 59, 36
1, 154680, Note_on_c, 0, 68, 44
1, 154680, Note_on_c, 0, 40, 31
1, 154680, Note_on_c, 0, 52, 38
1, 154740, Note_on_c, 0, 52, 0
1, 154740, Note_on_c, 0, 40, 0
1, 154800, Note_on_c, 0, 39, 30
1, 154800, Note_on_c, 0, 51, 36
1, 154860, Note_on_c, 0, 51, 0
1, 154860, Note_on_c, 0, 39, 0
1, 154920, Note_on_c, 0, 68, 0
1, 154920, Note_on_c, 0, 59, 0
1, 154920, Note_on_c, 0, 56, 0
1, 154920, Note_on_c, 0, 37, 26
1, 154920, Note_on_c, 0, 49, 33
1, 154980, Note_on_c, 0, 49, 0
1, 154980, Note_on_c, 0, 37, 0
1, 155040, Tempo, 597729
1, 155040, Note_on_c, 0, 57, 34
1, 155040, Note_on_c, 0, 63, 41
1, 155040, Note_on_c, 0, 35, 26
1, 155040, Note_on_c, 0, 47, 33
1, 155100, Note_on_c, 0, 47, 0
1, 155100, Note_on_c, 0, 35, 0
1, 155140, Tempo, 565824
1, 155160, Tempo, 549803
1, 155160, Note_on_c, 0, 63, 0
1, 155160, Note_on_c, 0, 57, 0
1, 155160, Note_on_c, 0, 56, 35
1, 155160, Note_on_c, 0, 64, 42
1, 155160, Note_on_c, 0, 40, 33
1, 155160, Note_on_c, 0, 52, 40
1, 155220, Tempo, 552435
1, 155220, Note_on_c, 0, 52, 0
1, 155220, Note_on_c, 0, 40, 0
1, 155260, Tempo, 555042
1, 155280, Note_on_c, 0, 39, 27
1, 155280, Note_on_c, 0, 51, 32
1, 155300, Tempo, 557724
1, 155340, Note_on_c, 0, 51, 0
1, 155340, Note_on_c, 0, 39, 0
1, 155360, Tempo, 560381
1, 155400, Tempo, 563063
1, 155400, Note_on_c, 0, 64, 0
1, 155400, Note_on_c, 0, 56, 0
1, 155400, Note_on_c, 0, 56, 36
1, 155400, Note_on_c, 0, 64, 36
1, 155400, Note_on_c, 0, 68, 42
1, 155400, Note_on_c, 0, 37, 27
1, 155400, Note_on_c, 0, 49, 33
1, 155440, Tempo, 565824
1, 155460, Note_on_c, 0, 49, 0
1, 155460, Note_on_c, 0, 37, 0
1, 155480, Tempo, 568559
1, 155520, Tempo, 594707
1, 155520, Note_on_c, 0, 35, 28
1, 155520, Note_on_c, 0, 47, 33
1, 155580, Note_on_c, 0, 47, 0
1, 155580, Note_on_c, 0, 35, 0
1, 155640, Tempo, 557724
1, 155640, Note_on_c, 0, 68, 0
1, 155640, Note_on_c, 0, 64, 0
1, 155640, Note_on_c, 0, 56, 0
1, 155640, Note_on_c, 0, 59, 39
1, 155640, Note_on_c, 0, 68, 39
1, 155640, Note_on_c, 0, 71, 47
1, 155640, Note_on_c, 0, 40, 35
1, 155640, Note_on_c, 0, 52, 42
1, 155700, Note_on_c, 0, 52, 0
1, 155700, Note_on_c, 0, 40, 0
1, 155760, Note_on_c, 0, 39, 28
1, 155760, Note_on_c, 0, 51, 34
1, 155820, Note_on_c, 0, 51, 0
1, 155820, Note_on_c, 0, 39, 0
1, 155880, Tempo, 532245
1, 155880, Note_on_c, 0, 71, 0
1, 155880, Note_on_c, 0, 68, 0
1, 155880, Note_on_c, 0, 59, 0
1, 155880, Note_on_c, 0, 61, 39
1, 155880, Note_on_c, 0, 68, 39
1, 155880, Note_on_c, 0, 73, 47
1, 155880, Note_on_c, 0, 37, 28
1, 155880, Note_on_c, 0, 49, 34
1, 155940, Note_on_c, 0, 49, 0
1, 155940, Note_on_c, 0, 73, 0
1, 155940, Note_on_c, 0, 61, 0
1, 155940, Note_on_c, 0, 68, 0
1, 155940, Note_on_c, 0, 37, 0
1, 156000, Tempo, 591658
1, 156000, Note_on_c, 0, 63, 40
1, 156000, Note_on_c, 0, 68, 40
1, 156000, Note_on_c, 0, 75, 49
1, 156000, Note_on_c, 0, 35, 28
1, 156000, Note_on_c, 0, 47, 34
1, 156060, Note_on_c, 0, 47, 0
1, 156060, Note_on_c, 0, 75, 0
1, 156060, Note_on_c, 0, 63, 0
1, 156060, Note_on_c, 0, 68, 0
1, 156060, Note_on_c, 0, 35, 0
1, 156120, Tempo, 557724
1, 156120, Note_on_c, 0, 64, 43
1, 156120, Note_on_c, 0, 68, 43
1, 156120, Note_on_c, 0, 76, 51
1, 156120, Note_on_c, 0, 40, 35
1, 156120, Note_on_c, 0, 52, 41
1, 156180, Note_on_c, 0, 52, 0
1, 156180, Note_on_c, 0, 40, 0
1, 156240, Note_on_c, 0, 64, 0
1, 156240, Note_on_c, 0, 68, 0
1, 156240, Note_on_c, 0, 76, 0
1, 156240, Note_on_c, 0, 39, 32
1, 156240, Note_on_c, 0, 51, 39
1, 156300, Note_on_c, 0, 51, 0
1, 156300, Note_on_c, 0, 39, 0
1, 156360, Tempo, 571374
1, 156360, Note_on_c, 0, 59, 39
1, 156360, Note_on_c, 0, 68, 39
1, 156360, Note_on_c, 0, 71, 45
1, 156360, Note_on_c, 0, 37, 28
1, 156360, Note_on_c, 0, 49, 35
1, 156420, Note_on_c, 0, 49, 0
1, 156420, Note_on_c, 0, 37, 0
1, 156480, Tempo, 591658
1, 156480, Note_on_c, 0, 59, 0
1, 156480, Note_on_c, 0, 68, 0
1, 156480, Note_on_c, 0, 71, 0
1, 156480, Note_on_c, 0, 35, 28
1, 156480, Note_on_c, 0, 47, 35
1, 156540, Note_on_c, 0, 47, 0
1, 156540, Note_on_c, 0, 35, 0
1, 156600, Tempo, 565824
1, 156600, Note_on_c, 0, 68, 45
1, 156600, Note_on_c, 0, 71, 45
1, 156600, Note_on_c, 0, 80, 54
1, 156600, Note_on_c, 0, 40, 36
1, 156600, Note_on_c, 0, 52, 42
1, 156660, Note_on_c, 0, 52, 0
1, 156660, Note_on_c, 0, 40, 0
1, 156720, Note_on_c, 0, 39, 29
1, 156720, Note_on_c, 0, 51, 34
1, 156780, Note_on_c, 0, 51, 0
1, 156780, Note_on_c, 0, 39, 0
1, 156840, Note_on_c, 0, 37, 29
1, 156840, Note_on_c, 0, 49, 34
1, 156900, Note_on_c, 0, 49, 0
1, 156900, Note_on_c, 0, 37, 0
1, 156960, Tempo, 594707
1, 156960, Note_on_c, 0, 35, 29
1, 156960, Note_on_c, 0, 47, 34
1, 157020, Note_on_c, 0, 47, 0
1, 157020, Note_on_c, 0, 35, 0
1, 157080, Tempo, 558140
1, 157080, Note_on_c, 0, 80, 0
1, 157080, Note_on_c, 0, 71, 0
1, 157080, Note_on_c, 0, 68, 0
1, 157080, Note_on_c, 0, 59, 34
1, 157080, Note_on_c, 0, 66, 34
1, 157080, Note_on_c, 0, 69, 41
1, 157080, Note_on_c, 0, 71, 49
1, 157080, Note_on_c, 0, 40, 36
1, 157080, Note_on_c, 0, 52, 42
1, 157140, Note_on_c, 0, 52, 0
1, 157140, Note_on_c, 0, 40, 0
1, 157200, Note_on_c, 0, 39, 29
1, 157200, Note_on_c, 0, 51, 35
1, 157260, Note_on_c, 0, 51, 0
1, 157260, Note_on_c, 0, 39, 0
1, 157320, Note_on_c, 0, 37, 29
1, 157320, Note_on_c, 0, 49, 35
1, 157380, Note_on_c, 0, 49, 0
1, 157380, Note_on_c, 0, 37, 0
1, 157440, Tempo, 591658
1, 157440, Note_on_c, 0, 35, 29
1, 157440, Note_on_c, 0, 47, 35
1, 157500, Note_on_c, 0, 47, 0
1, 157500, Note_on_c, 0, 35, 0
1, 157560, Tempo, 558140
1, 157560, Note_on_c, 0, 40, 36
1, 157560, Note_on_c, 0, 52, 42
1, 157620, Note_on_c, 0, 52, 0
1, 157620, Note_on_c, 0, 40, 0
1, 157680, Note_on_c, 0, 39, 33
1, 157680, Note_on_c, 0, 51, 39
1, 157740, Note_on_c, 0, 51, 0
1, 157740, Note_on_c, 0, 39, 0
1, 157800, Tempo, 571374
1, 157800, Note_on_c, 0, 71, 0
1, 157800, Note_on_c, 0, 59, 0
1, 157800, Note_on_c, 0, 66, 0
1, 157800, Note_on_c, 0, 69, 0
1, 157800, Note_on_c, 0, 59, 42
1, 157800, Note_on_c, 0, 69, 42
1, 157800, Note_on_c, 0, 71, 50
1, 157800, Note_on_c, 0, 37, 29
1, 157800, Note_on_c, 0, 49, 36
1, 157860, Note_on_c, 0, 49, 0
1, 157860, Note_on_c, 0, 71, 0
1, 157860, Note_on_c, 0, 59, 0
1, 157860, Note_on_c, 0, 69, 0
1, 157860, Note_on_c, 0, 37, 0
1, 157920, Tempo, 588697
1, 157920, Note_on_c, 0, 59, 42
1, 157920, Note_on_c, 0, 69, 42
1, 157920, Note_on_c, 0, 71, 50
1, 157920, Note_on_c, 0, 35, 29
1, 157920, Note_on_c, 0, 47, 36
1, 157980, Note_on_c, 0, 47, 0
1, 157980, Note_on_c, 0, 71, 0
1, 157980, Note_on_c, 0, 59, 0
1, 157980, Note_on_c, 0, 69, 0
1, 157980, Note_on_c, 0, 35, 0
1, 158040, Tempo, 558140
1, 158040, Note_on_c, 0, 59, 43
1, 158040, Note_on_c, 0, 69, 43
1, 158040, Note_on_c, 0, 71, 52
1, 158040, Note_on_c, 0, 40, 36
1, 158040, Note_on_c, 0, 52, 42
1, 158100, Note_on_c, 0, 52, 0
1, 158100, Note_on_c, 0, 40, 0
1, 158160, Note_on_c, 0, 59, 0
1, 158160, Note_on_c, 0, 69, 0
1, 158160, Note_on_c, 0, 71, 0
1, 158160, Note_on_c, 0, 39, 29
1, 158160, Note_on_c, 0, 51, 35
1, 158220, Note_on_c, 0, 51, 0
1, 158220, Note_on_c, 0, 39, 0
1, 158280, Note_on_c, 0, 59, 41
1, 158280, Note_on_c, 0, 69, 41
1, 158280, Note_on_c, 0, 71, 49
1, 158280, Note_on_c, 0, 37, 30
1, 158280, Note_on_c, 0, 49, 35
1, 158340, Note_on_c, 0, 49, 0
1, 158340, Note_on_c, 0, 37, 0
1, 158400, Tempo, 594707
1, 158400, Note_on_c, 0, 59, 0
1, 158400, Note_on_c, 0, 69, 0
1, 158400, Note_on_c, 0, 71, 0
1, 158400, Note_on_c, 0, 35, 30
1, 158400, Note_on_c, 0, 47, 35
1, 158460, Note_on_c, 0, 47, 0
1, 158460, Note_on_c, 0, 35, 0
1, 158520, Tempo, 565824
1, 158520, Note_on_c, 0, 59, 45
1, 158520, Note_on_c, 0, 68, 45
1, 158520, Note_on_c, 0, 71, 53
1, 158520, Note_on_c, 0, 40, 36
1, 158520, Note_on_c, 0, 52, 42
1, 158580, Note_on_c, 0, 52, 0
1, 158580, Note_on_c, 0, 40, 0
1, 158640, Note_on_c, 0, 39, 29
1, 158640, Note_on_c, 0, 51, 35
1, 158700, Note_on_c, 0, 51, 0
1, 158700, Note_on_c, 0, 39, 0
1, 158760, Tempo, 547246
1, 158760, Note_on_c, 0, 37, 29
1, 158760, Note_on_c, 0, 49, 35
1, 158820, Note_on_c, 0, 49, 0
1, 158820, Note_on_c, 0, 37, 0
1, 158880, Tempo, 597729
1, 158880, Note_on_c, 0, 59, 0
1, 158880, Note_on_c, 0, 68, 0
1, 158880, Note_on_c, 0, 71, 0
1, 158880, Note_on_c, 0, 64, 42
1, 158880, Note_on_c, 0, 68, 42
1, 158880, Note_on_c, 0, 76, 50
1, 158880, Note_on_c, 0, 35, 29
1, 158880, Note_on_c, 0, 47, 35
1, 158940, Note_on_c, 0, 47, 0
1, 158940, Note_on_c, 0, 35, 0
1, 158988, Note_on_c, 0, 64, 0
1, 158988, Note_on_c, 0, 68, 0
1, 158988, Note_on_c, 0, 76, 0
1, 159000, Tempo, 558140
1, 159000, Note_on_c, 0, 64, 44
1, 159000, Note_on_c, 0, 68, 44
1, 159000, Note_on_c, 0, 76, 53
1, 159000, Note_on_c, 0, 40, 36
1, 159000, Note_on_c, 0, 52, 43
1, 159060, Note_on_c, 0, 52, 0
1, 159060, Note_on_c, 0, 40, 0
1, 159120, Note_on_c, 0, 39, 33
1, 159120, Note_on_c, 0, 51, 39
1, 159180, Note_on_c, 0, 51, 0
1, 159180, Note_on_c, 0, 39, 0
1, 159240, Note_on_c, 0, 37, 29
1, 159240, Note_on_c, 0, 49, 36
1, 159300, Note_on_c, 0, 49, 0
1, 159300, Note_on_c, 0, 37, 0
1, 159360, Tempo, 597729
1, 159360, Note_on_c, 0, 35, 29
1, 159360, Note_on_c, 0, 47, 36
1, 159420, Note_on_c, 0, 47, 0
1, 159420, Note_on_c, 0, 35, 0
1, 159480, Tempo, 560748
1, 159480, Note_on_c, 0, 76, 0
1, 159480, Note_on_c, 0, 68, 0
1, 159480, Note_on_c, 0, 64, 0
1, 159480, Note_on_c, 0, 59, 41
1, 159480, Note_on_c, 0, 64, 41
1, 159480, Note_on_c, 0, 68, 49
1, 159480, Note_on_c, 0, 40, 37
1, 159480, Note_on_c, 0, 52, 43
1, 159540, Note_on_c, 0, 52, 0
1, 159540, Note_on_c, 0, 40, 0
1, 159600, Note_on_c, 0, 39, 30
1, 159600, Note_on_c, 0, 51, 36
1, 159660, Note_on_c, 0, 51, 0
1, 159660, Note_on_c, 0, 39, 0
1, 159720, Note_on_c, 0, 37, 30
1, 159720, Note_on_c, 0, 49, 36
1, 159780, Note_on_c, 0, 49, 0
1, 159780, Note_on_c, 0, 37, 0
1, 159840, Tempo, 597729
1, 159840, Note_on_c, 0, 35, 30
1, 159840, Note_on_c, 0, 47, 36
1, 159900, Note_on_c, 0, 47, 0
1, 159900, Note_on_c, 0, 35, 0
1, 159960, Tempo, 560748
1, 159960, Note_on_c, 0, 68, 0
1, 159960, Note_on_c, 0, 64, 0
1, 159960, Note_on_c, 0, 59, 0
1, 159960, Note_on_c, 0, 57, 46
1, 159960, Note_on_c, 0, 59, 46
1, 159960, Note_on_c, 0, 66, 54
1, 159960, Note_on_c, 0, 40, 37
1, 159960, Note_on_c, 0, 52, 43
1, 160020, Note_on_c, 0, 52, 0
1, 160020, Note_on_c, 0, 40, 0
1, 160080, Note_on_c, 0, 39, 30
1, 160080, Note_on_c, 0, 51, 36
1, 160140, Note_on_c, 0, 51, 0
1, 160140, Note_on_c, 0, 39, 0
1, 160200, Tempo, 539617
1, 160200, Note_on_c, 0, 59, 0
1, 160200, Note_on_c, 0, 57, 0
1, 160200, Note_on_c, 0, 57, 44
1, 160200, Note_on_c, 0, 59, 52
1, 160200, Note_on_c, 0, 37, 30
1, 160200, Note_on_c, 0, 49, 36
1, 160260, Note_on_c, 0, 49, 0
1, 160260, Note_on_c, 0, 59, 0
1, 160260, Note_on_c, 0, 37, 0
1, 160260, Note_on_c, 0, 57, 0
1, 160320, Tempo, 597729
1, 160320, Note_on_c, 0, 59, 52
1, 160320, Note_on_c, 0, 57, 44
1, 160320, Note_on_c, 0, 35, 30
1, 160320, Note_on_c, 0, 47, 36
1, 160380, Note_on_c, 0, 47, 0
1, 160380, Note_on_c, 0, 57, 0
1, 160380, Note_on_c, 0, 35, 0
1, 160380, Note_on_c, 0, 59, 0
1, 160440, Tempo, 558140
1, 160440, Note_on_c, 0, 57, 45
1, 160440, Note_on_c, 0, 59, 54
1, 160440, Note_on_c, 0, 40, 36
1, 160440, Note_on_c, 0, 52, 43
1, 160500, Note_on_c, 0, 52, 0
1, 160500, Note_on_c, 0, 40, 0
1, 160560, Note_on_c, 0, 59, 0
1, 160560, Note_on_c, 0, 57, 0
1, 160560, Note_on_c, 0, 39, 32
1, 160560, Note_on_c, 0, 51, 40
1, 160620, Note_on_c, 0, 51, 0
1, 160620, Note_on_c, 0, 39, 0
1, 160680, Note_on_c, 0, 66, 0
1, 160680, Note_on_c, 0, 57, 45
1, 160680, Note_on_c, 0, 59, 45
1, 160680, Note_on_c, 0, 66, 54
1, 160680, Note_on_c, 0, 37, 30
1, 160680, Note_on_c, 0, 49, 37
1, 160740, Note_on_c, 0, 49, 0
1, 160740, Note_on_c, 0, 37, 0
1, 160800, Note_on_c, 0, 35, 30
1, 160800, Note_on_c, 0, 47, 37
1, 160820, Tempo, 597729
1, 160860, Note_on_c, 0, 47, 0
1, 160860, Note_on_c, 0, 35, 0
1, 160920, Tempo, 555042
1, 160920, Note_on_c, 0, 66, 0
1, 160920, Note_on_c, 0, 59, 0
1, 160920, Note_on_c, 0, 57, 0
1, 160920, Note_on_c, 0, 57, 45
1, 160920, Note_on_c, 0, 59, 45
1, 160920, Note_on_c, 0, 68, 53
1, 160920, Note_on_c, 0, 40, 37
1, 160920, Note_on_c, 0, 52, 44
1, 160940, Tempo, 555042
1, 160980, Note_on_c, 0, 52, 0
1, 160980, Note_on_c, 0, 68, 0
1, 160980, Note_on_c, 0, 57, 0
1, 160980, Note_on_c, 0, 59, 0
1, 160980, Note_on_c, 0, 40, 0
1, 161000, Tempo, 557724
1, 161040, Tempo, 560381
1, 161040, Note_on_c, 0, 57, 44
1, 161040, Note_on_c, 0, 59, 44
1, 161040, Note_on_c, 0, 66, 52
1, 161040, Note_on_c, 0, 39, 30
1, 161040, Note_on_c, 0, 51, 36
1, 161080, Tempo, 563063
1, 161100, Note_on_c, 0, 51, 0
1, 161100, Note_on_c, 0, 66, 0
1, 161100, Note_on_c, 0, 57, 0
1, 161100, Note_on_c, 0, 59, 0
1, 161100, Note_on_c, 0, 39, 0
1, 161140, Tempo, 565824
1, 161160, Note_on_c, 0, 57, 43
1, 161160, Note_on_c, 0, 59, 43
1, 161160, Note_on_c, 0, 64, 51
1, 161160, Note_on_c, 0, 37, 30
1, 161160, Note_on_c, 0, 49, 36
1, 161180, Tempo, 568559
1, 161220, Tempo, 571374
1, 161220, Note_on_c, 0, 49, 0
1, 161220, Note_on_c, 0, 64, 0
1, 161220, Note_on_c, 0, 57, 0
1, 161220, Note_on_c, 0, 59, 0
1, 161220, Note_on_c, 0, 37, 0
1, 161260, Tempo, 574163
1, 161280, Tempo, 594707
1, 161280, Note_on_c, 0, 63, 41
1, 161280, Note_on_c, 0, 57, 41
1, 161280, Note_on_c, 0, 59, 41
1, 161280, Note_on_c, 0, 66, 50
1, 161280, Note_on_c, 0, 35, 30
1, 161280, Note_on_c, 0, 47, 36
1, 161340, Note_on_c, 0, 47, 0
1, 161340, Note_on_c, 0, 57, 0
1, 161340, Note_on_c, 0, 59, 0
1, 161340, Note_on_c, 0, 63, 0
1, 161340, Note_on_c, 0, 35, 0
1, 161340, Note_on_c, 0, 66, 0
1, 161400, Tempo, 558140
1, 161400, Note_on_c, 0, 56, 53
1, 161400, Note_on_c, 0, 64, 45
1, 161400, Note_on_c, 0, 68, 53
1, 161400, Note_on_c, 0, 40, 37
1, 161400, Note_on_c, 0, 52, 44
1, 161460, Note_on_c, 0, 52, 0
1, 161460, Note_on_c, 0, 40, 0
1, 161520, Note_on_c, 0, 39, 29
1, 161520, Note_on_c, 0, 51, 36
1, 161580, Note_on_c, 0, 51, 0
1, 161580, Note_on_c, 0, 39, 0
1, 161640, Tempo, 542152
1, 161640, Note_on_c, 0, 37, 30
1, 161640, Note_on_c, 0, 49, 36
1, 161700, Note_on_c, 0, 49, 0
1, 161700, Note_on_c, 0, 37, 0
1, 161760, Tempo, 597729
1, 161760, Note_on_c, 0, 56, 0
1, 161760, Note_on_c, 0, 61, 51
1, 161760, Note_on_c, 0, 35, 30
1, 161760, Note_on_c, 0, 47, 36
1, 161820, Note_on_c, 0, 47, 0
1, 161820, Note_on_c, 0, 35, 0
1, 161880, Tempo, 558140
1, 161880, Note_on_c, 0, 61, 0
1, 161880, Note_on_c, 0, 59, 54
1, 161880, Note_on_c, 0, 40, 38
1, 161880, Note_on_c, 0, 52, 44
1, 161940, Note_on_c, 0, 52, 0
1, 161940, Note_on_c, 0, 40, 0
1, 162000, Note_on_c, 0, 39, 34
1, 162000, Note_on_c, 0, 51, 41
1, 162060, Note_on_c, 0, 51, 0
1, 162060, Note_on_c, 0, 39, 0
1, 162120, Tempo, 582807
1, 162120, Note_on_c, 0, 37, 31
1, 162120, Note_on_c, 0, 49, 38
1, 162180, Note_on_c, 0, 49, 0
1, 162180, Note_on_c, 0, 37, 0
1, 162240, Tempo, 597729
1, 162240, Note_on_c, 0, 64, 0
1, 162240, Note_on_c, 0, 68, 0
1, 162240, Note_on_c, 0, 68, 43
1, 162240, Note_on_c, 0, 71, 52
1, 162240, Note_on_c, 0, 35, 31
1, 162240, Note_on_c, 0, 47, 38
1, 162300, Note_on_c, 0, 47, 0
1, 162300, Note_on_c, 0, 35, 0
1, 162340, Tempo, 558140
1, 162348, Note_on_c, 0, 71, 0
1, 162348, Note_on_c, 0, 68, 0
1, 162360, Tempo, 558140
1, 162360, Note_on_c, 0, 68, 43
1, 162360, Note_on_c, 0, 71, 52
1, 162360, Note_on_c, 0, 40, 38
1, 162360, Note_on_c, 0, 52, 44
1, 162420, Note_on_c, 0, 52, 0
1, 162420, Note_on_c, 0, 40, 0
1, 162480, Note_on_c, 0, 39, 31
1, 162480, Note_on_c, 0, 51, 37
1, 162540, Note_on_c, 0, 51, 0
1, 162540, Note_on_c, 0, 39, 0
1, 162600, Note_on_c, 0, 37, 31
1, 162600, Note_on_c, 0, 49, 38
1, 162660, Note_on_c, 0, 49, 0
1, 162660, Note_on_c, 0, 37, 0
1, 162720, Tempo, 600841
1, 162720, Note_on_c, 0, 35, 31
1, 162720, Note_on_c, 0, 47, 38
1, 162780, Note_on_c, 0, 47, 0
1, 162780, Note_on_c, 0, 35, 0
1, 162840, Tempo, 558140
1, 162840, Note_on_c, 0, 71, 0
1, 162840, Note_on_c, 0, 68, 0
1, 162840, Note_on_c, 0, 59, 0
1, 162840, Note_on_c, 0, 56, 45
1, 162840, Note_on_c, 0, 59, 53
1, 162840, Note_on_c, 0, 40, 37
1, 162840, Note_on_c, 0, 52, 44
1, 162900, Note_on_c, 0, 52, 0
1, 162900, Note_on_c, 0, 40, 0
1, 162960, Note_on_c, 0, 39, 31
1, 162960, Note_on_c, 0, 51, 37
1, 163020, Note_on_c, 0, 51, 0
1, 163020, Note_on_c, 0, 39, 0
1, 163080, Note_on_c, 0, 37, 31
1, 163080, Note_on_c, 0, 49, 37
1, 163140, Note_on_c, 0, 49, 0
1, 163140, Note_on_c, 0, 37, 0
1, 163200, Tempo, 594707
1, 163200, Note_on_c, 0, 35, 31
1, 163200, Note_on_c, 0, 47, 38
1, 163260, Note_on_c, 0, 47, 0
1, 163260, Note_on_c, 0, 35, 0
1, 163320, Tempo, 558140
1, 163320, Note_on_c, 0, 40, 38
1, 163320, Note_on_c, 0, 52, 45
1, 163380, Note_on_c, 0, 52, 0
1, 163380, Note_on_c, 0, 40, 0
1, 163440, Note_on_c, 0, 39, 36
1, 163440, Note_on_c, 0, 51, 42
1, 163500, Note_on_c, 0, 51, 0
1, 163500, Note_on_c, 0, 39, 0
1, 163560, Tempo, 577034
1, 163560, Note_on_c, 0, 59, 0
1, 163560, Note_on_c, 0, 56, 0
1, 163560, Note_on_c, 0, 55, 45
1, 163560, Note_on_c, 0, 59, 54
1, 163560, Note_on_c, 0, 37, 31
1, 163560, Note_on_c, 0, 49, 38
1, 163620, Note_on_c, 0, 49, 0
1, 163620, Note_on_c, 0, 55, 0
1, 163620, Note_on_c, 0, 59, 0
1, 163620, Note_on_c, 0, 37, 0
1, 163680, Tempo, 597729
1, 163680, Note_on_c, 0, 56, 46
1, 163680, Note_on_c, 0, 59, 54
1, 163680, Note_on_c, 0, 35, 31
1, 163680, Note_on_c, 0, 47, 39
1, 163740, Note_on_c, 0, 47, 0
1, 163740, Note_on_c, 0, 56, 0
1, 163740, Note_on_c, 0, 59, 0
1, 163740, Note_on_c, 0, 35, 0
1, 163800, Tempo, 565824
1, 163800, Note_on_c, 0, 57, 48
1, 163800, Note_on_c, 0, 59, 57
1, 163800, Note_on_c, 0, 40, 40
1, 163800, Note_on_c, 0, 52, 48
1, 163860, Note_on_c, 0, 52, 0
1, 163860, Note_on_c, 0, 40, 0
1, 163920, Note_on_c, 0, 59, 0
1, 163920, Note_on_c, 0, 57, 0
1, 163920, Note_on_c, 0, 39, 33
1, 163920, Note_on_c, 0, 51, 40
1, 163980, Note_on_c, 0, 51, 0
1, 163980, Note_on_c, 0, 39, 0
1, 164040, Note_on_c, 0, 57, 47
1, 164040, Note_on_c, 0, 61, 55
1, 164040, Note_on_c, 0, 37, 33
1, 164040, Note_on_c, 0, 49, 41
1, 164100, Note_on_c, 0, 49, 0
1, 164100, Note_on_c, 0, 57, 0
1, 164100, Note_on_c, 0, 61, 0
1, 164100, Note_on_c, 0, 37, 0
1, 164160, Tempo, 594707
1, 164160, Note_on_c, 0, 57, 48
1, 164160, Note_on_c, 0, 63, 57
1, 164160, Note_on_c, 0, 35, 34
1, 164160, Note_on_c, 0, 47, 42
1, 164220, Note_on_c, 0, 47, 0
1, 164220, Note_on_c, 0, 57, 0
1, 164220, Note_on_c, 0, 63, 0
1, 164220, Note_on_c, 0, 35, 0
1, 164280, Tempo, 565824
1, 164280, Note_on_c, 0, 56, 51
1, 164280, Note_on_c, 0, 64, 61
1, 164280, Note_on_c, 0, 40, 43
1, 164280, Note_on_c, 0, 52, 51
1, 164340, Note_on_c, 0, 52, 0
1, 164340, Note_on_c, 0, 40, 0
1, 164400, Note_on_c, 0, 39, 34
1, 164400, Note_on_c, 0, 51, 43
1, 164460, Note_on_c, 0, 51, 0
1, 164460, Note_on_c, 0, 39, 0
1, 164520, Tempo, 549803
1, 164520, Note_on_c, 0, 37, 35
1, 164520, Note_on_c, 0, 49, 43
1, 164580, Note_on_c, 0, 49, 0
1, 164580, Note_on_c, 0, 37, 0
1, 164640, Tempo, 594707
1, 164640, Note_on_c, 0, 64, 0
1, 164640, Note_on_c, 0, 56, 0
1, 164640, Note_on_c, 0, 56, 49
1, 164640, Note_on_c, 0, 59, 49
1, 164640, Note_on_c, 0, 35, 37
1, 164640, Note_on_c, 0, 47, 43
1, 164700, Note_on_c, 0, 47, 0
1, 164700, Note_on_c, 0, 35, 0
1, 164748, Note_on_c, 0, 59, 0
1, 164748, Note_on_c, 0, 56, 0
1, 164760, Tempo, 560748
1, 164760, Note_on_c, 0, 56, 51
1, 164760, Note_on_c, 0, 59, 51
1, 164760, Note_on_c, 0, 68, 61
1, 164760, Note_on_c, 0, 40, 44
1, 164760, Note_on_c, 0, 52, 53
1, 164820, Note_on_c, 0, 52, 0
1, 164820, Note_on_c, 0, 40, 0
1, 164880, Note_on_c, 0, 39, 41
1, 164880, Note_on_c, 0, 51, 49
1, 164940, Note_on_c, 0, 51, 0
1, 164940, Note_on_c, 0, 39, 0
1, 165000, Note_on_c, 0, 37, 38
1, 165000, Note_on_c, 0, 49, 46
1, 165060, Note_on_c, 0, 49, 0
1, 165060, Note_on_c, 0, 37, 0
1, 165120, Tempo, 594707
1, 165120, Note_on_c, 0, 35, 38
1, 165120, Note_on_c, 0, 47, 46
1, 165180, Note_on_c, 0, 47, 0
1, 165180, Note_on_c, 0, 35, 0
1, 165240, Tempo, 558140
1, 165240, Note_on_c, 0, 68, 0
1, 165240, Note_on_c, 0, 59, 0
1, 165240, Note_on_c, 0, 56, 0
1, 165240, Note_on_c, 0, 57, 53
1, 165240, Note_on_c, 0, 59, 53
1, 165240, Note_on_c, 0, 66, 63
1, 165240, Note_on_c, 0, 40, 47
1, 165240, Note_on_c, 0, 52, 57
1, 165300, Note_on_c, 0, 52, 0
1, 165300, Note_on_c, 0, 40, 0
1, 165360, Note_on_c, 0, 39, 38
1, 165360, Note_on_c, 0, 51, 46
1, 165420, Note_on_c, 0, 51, 0
1, 165420, Note_on_c, 0, 39, 0
1, 165480, Note_on_c, 0, 37, 40
1, 165480, Note_on_c, 0, 49, 47
1, 165540, Note_on_c, 0, 49, 0
1, 165540, Note_on_c, 0, 37, 0
1, 165600, Tempo, 594707
1, 165600, Note_on_c, 0, 35, 40
1, 165600, Note_on_c, 0, 47, 48
1, 165660, Note_on_c, 0, 47, 0
1, 165660, Note_on_c, 0, 35, 0
1, 165720, Tempo, 565824
1, 165720, Note_on_c, 0, 66, 0
1, 165720, Note_on_c, 0, 59, 0
1, 165720, Note_on_c, 0, 57, 0
1, 165720, Note_on_c, 0, 56, 57
1, 165720, Note_on_c, 0, 59, 67
1, 165720, Note_on_c, 0, 40, 51
1, 165720, Note_on_c, 0, 52, 59
1, 165780, Note_on_c, 0, 52, 0
1, 165780, Note_on_c, 0, 40, 0
1, 165840, Note_on_c, 0, 39, 41
1, 165840, Note_on_c, 0, 51, 50
1, 165900, Note_on_c, 0, 51, 0
1, 165900, Note_on_c, 0, 39, 0
1, 165960, Tempo, 574163
1, 165960, Note_on_c, 0, 37, 41
1, 165960, Note_on_c, 0, 49, 50
1, 166020, Note_on_c, 0, 49, 0
1, 166020, Note_on_c, 0, 37, 0
1, 166080, Tempo, 594707
1, 166080, Note_on_c, 0, 59, 0
1, 166080, Note_on_c, 0, 56, 0
1, 166080, Note_on_c, 0, 56, 60
1, 166080, Note_on_c, 0, 64, 71
1, 166080, Note_on_c, 0, 35, 42
1, 166080, Note_on_c, 0, 47, 51
1, 166140, Note_on_c, 0, 47, 0
1, 166140, Note_on_c, 0, 35, 0
1, 166188, Note_on_c, 0, 64, 0
1, 166188, Note_on_c, 0, 56, 0
1, 166200, Tempo, 555556
1, 166200, Note_on_c, 0, 56, 61
1, 166200, Note_on_c, 0, 59, 61
1, 166200, Note_on_c, 0, 68, 72
1, 166200, Note_on_c, 0, 40, 52
1, 166200, Note_on_c, 0, 52, 61
1, 166260, Note_on_c, 0, 52, 0
1, 166260, Note_on_c, 0, 40, 0
1, 166320, Note_on_c, 0, 39, 48
1, 166320, Note_on_c, 0, 51, 58
1, 166380, Note_on_c, 0, 51, 0
1, 166380, Note_on_c, 0, 39, 0
1, 166440, Note_on_c, 0, 68, 0
1, 166440, Note_on_c, 0, 59, 0
1, 166440, Note_on_c, 0, 56, 0
1, 166440, Note_on_c, 0, 37, 44
1, 166440, Note_on_c, 0, 49, 55
1, 166500, Note_on_c, 0, 49, 0
1, 166500, Note_on_c, 0, 37, 0
1, 166560, Tempo, 594707
1, 166560, Note_on_c, 0, 57, 58
1, 166560, Note_on_c, 0, 63, 70
1, 166560, Note_on_c, 0, 35, 45
1, 166560, Note_on_c, 0, 47, 56
1, 166620, Note_on_c, 0, 47, 0
1, 166620, Note_on_c, 0, 35, 0
1, 166680, Tempo, 563380
1, 166680, Note_on_c, 0, 63, 0
1, 166680, Note_on_c, 0, 57, 0
1, 166680, Note_on_c, 0, 56, 61
1, 166680, Note_on_c, 0, 64, 73
1, 166680, Note_on_c, 0, 40, 56
1, 166680, Note_on_c, 0, 52, 66
1, 166740, Note_on_c, 0, 52, 0
1, 166740, Note_on_c, 0, 40, 0
1, 166800, Note_on_c, 0, 39, 45
1, 166800, Note_on_c, 0, 51, 53
1, 166860, Note_on_c, 0, 51, 0
1, 166860, Note_on_c, 0, 39, 0
1, 166920, Note_on_c, 0, 64, 0
1, 166920, Note_on_c, 0, 56, 0
1, 166920, Note_on_c, 0, 56, 63
1, 166920, Note_on_c, 0, 64, 63
1, 166920, Note_on_c, 0, 68, 76
1, 166920, Note_on_c, 0, 37, 46
1, 166920, Note_on_c, 0, 49, 54
1, 166980, Note_on_c, 0, 49, 0
1, 166980, Note_on_c, 0, 37, 0
1, 167040, Tempo, 588697
1, 167040, Note_on_c, 0, 35, 47
1, 167040, Note_on_c, 0, 47, 57
1, 167100, Note_on_c, 0, 47, 0
1, 167100, Note_on_c, 0, 35, 0
1, 167160, Tempo, 555556
1, 167160, Note_on_c, 0, 68, 0
1, 167160, Note_on_c, 0, 64, 0
1, 167160, Note_on_c, 0, 56, 0
1, 167160, Note_on_c, 0, 59, 66
1, 167160, Note_on_c, 0, 68, 66
1, 167160, Note_on_c, 0, 71, 78
1, 167160, Note_on_c, 0, 40, 58
1, 167160, Note_on_c, 0, 52, 69
1, 167220, Note_on_c, 0, 52, 0
1, 167220, Note_on_c, 0, 40, 0
1, 167280, Note_on_c, 0, 39, 47
1, 167280, Note_on_c, 0, 51, 57
1, 167340, Note_on_c, 0, 51, 0
1, 167340, Note_on_c, 0, 39, 0
1, 167400, Note_on_c, 0, 37, 47
1, 167400, Note_on_c, 0, 49, 57
1, 167460, Note_on_c, 0, 49, 0
1, 167460, Note_on_c, 0, 37, 0
1, 167520, Tempo, 594707
1, 167520, Note_on_c, 0, 35, 48
1, 167520, Note_on_c, 0, 47, 58
1, 167580, Note_on_c, 0, 47, 0
1, 167580, Note_on_c, 0, 35, 0
1, 167640, Tempo, 555556
1, 167640, Note_on_c, 0, 71, 0
1, 167640, Note_on_c, 0, 68, 0
1, 167640, Note_on_c, 0, 59, 0
1, 167640, Note_on_c, 0, 61, 61
1, 167640, Note_on_c, 0, 68, 61
1, 167640, Note_on_c, 0, 73, 72
1, 167640, Note_on_c, 0, 40, 62
1, 167640, Note_on_c, 0, 52, 73
1, 167666, Control_c, 0, 64, 127
1, 167700, Note_on_c, 0, 52, 0
1, 167700, Note_on_c, 0, 40, 0
1, 167760, Note_on_c, 0, 61, 0
1, 167760, Note_on_c, 0, 68, 0
1, 167760, Note_on_c, 0, 73, 0
1, 167760, Note_on_c, 0, 63, 64
1, 167760, Note_on_c, 0, 68, 64
1, 167760, Note_on_c, 0, 75, 75
1, 167760, Note_on_c, 0, 39, 56
1, 167760, Note_on_c, 0, 51, 67
1, 167820, Note_on_c, 0, 51, 0
1, 167820, Note_on_c, 0, 39, 0
1, 167880, Note_on_c, 0, 63, 0
1, 167880, Note_on_c, 0, 68, 0
1, 167880, Note_on_c, 0, 75, 0
1, 167880, Note_on_c, 0, 64, 64
1, 167880, Note_on_c, 0, 68, 64
1, 167880, Note_on_c, 0, 76, 77
1, 167880, Note_on_c, 0, 37, 52
1, 167880, Note_on_c, 0, 49, 63
1, 167940, Note_on_c, 0, 49, 0
1, 167940, Note_on_c, 0, 37, 0
1, 168000, Tempo, 594707
1, 168000, Note_on_c, 0, 64, 0
1, 168000, Note_on_c, 0, 68, 0
1, 168000, Note_on_c, 0, 76, 0
1, 168000, Note_on_c, 0, 66, 67
1, 168000, Note_on_c, 0, 71, 67
1, 168000, Note_on_c, 0, 78, 81
1, 168000, Note_on_c, 0, 35, 52
1, 168000, Note_on_c, 0, 47, 63
1, 168060, Note_on_c, 0, 47, 0
1, 168060, Note_on_c, 0, 35, 0
1, 168120, Tempo, 558140
1, 168120, Note_on_c, 0, 66, 0
1, 168120, Note_on_c, 0, 71, 0
1, 168120, Note_on_c, 0, 78, 0
1, 168120, Note_on_c, 0, 71, 85
1, 168120, Note_on_c, 0, 68, 71
1, 168120, Note_on_c, 0, 76, 71
1, 168120, Note_on_c, 0, 80, 85
1, 168120, Note_on_c, 0, 40, 64
1, 168120, Note_on_c, 0, 52, 77
1, 168131, Control_c, 0, 64, 0
1, 168180, Note_on_c, 0, 52, 0
1, 168180, Note_on_c, 0, 40, 0
1, 168240, Note_on_c, 0, 39, 53
1, 168240, Note_on_c, 0, 51, 63
1, 168300, Note_on_c, 0, 51, 0
1, 168300, Note_on_c, 0, 39, 0
1, 168360, Tempo, 577034
1, 168360, Note_on_c, 0, 40, 54
1, 168360, Note_on_c, 0, 52, 64
1, 168420, Note_on_c, 0, 52, 0
1, 168420, Note_on_c, 0, 40, 0
1, 168480, Tempo, 591658
1, 168480, Note_on_c, 0, 71, 0
1, 168480, Note_on_c, 0, 70, 81
1, 168480, Note_on_c, 0, 38, 55
1, 168480, Note_on_c, 0, 50, 65
1, 168540, Note_on_c, 0, 50, 0
1, 168540, Note_on_c, 0, 38, 0
1, 168600, Note_on_c, 0, 80, 0
1, 168600, Note_on_c, 0, 68, 0
1, 168600, Note_on_c, 0, 76, 0
1, 168600, Note_on_c, 0, 67, 74
1, 168600, Note_on_c, 0, 75, 74
1, 168600, Note_on_c, 0, 79, 88
1, 168600, Note_on_c, 0, 39, 66
1, 168600, Note_on_c, 0, 51, 77
1, 168660, Note_on_c, 0, 51, 0
1, 168660, Note_on_c, 0, 39, 0
1, 168720, Note_on_c, 0, 38, 54
1, 168720, Note_on_c, 0, 50, 65
1, 168780, Note_on_c, 0, 50, 0
1, 168780, Note_on_c, 0, 38, 0
1, 168840, Note_on_c, 0, 36, 54
1, 168840, Note_on_c, 0, 48, 65
1, 168900, Note_on_c, 0, 48, 0
1, 168900, Note_on_c, 0, 36, 0
1, 168960, Tempo, 594707
1, 168960, Note_on_c, 0, 34, 54
1, 168960, Note_on_c, 0, 46, 65
1, 169020, Note_on_c, 0, 46, 0
1, 169020, Note_on_c, 0, 34, 0
1, 169080, Tempo, 558140
1, 169080, Note_on_c, 0, 39, 67
1, 169080, Note_on_c, 0, 51, 79
1, 169140, Note_on_c, 0, 51, 0
1, 169140, Note_on_c, 0, 39, 0
1, 169200, Note_on_c, 0, 38, 62
1, 169200, Note_on_c, 0, 50, 75
1, 169260, Note_on_c, 0, 50, 0
1, 169260, Note_on_c, 0, 38, 0
1, 169320, Note_on_c, 0, 79, 0
1, 169320, Note_on_c, 0, 70, 0
1, 169320, Note_on_c, 0, 67, 0
1, 169320, Note_on_c, 0, 75, 0
1, 169320, Note_on_c, 0, 58, 72
1, 169320, Note_on_c, 0, 67, 72
1, 169320, Note_on_c, 0, 70, 86
1, 169320, Note_on_c, 0, 36, 58
1, 169320, Note_on_c, 0, 48, 69
1, 169380, Note_on_c, 0, 48, 0
1, 169380, Note_on_c, 0, 36, 0
1, 169440, Tempo, 594707
1, 169440, Note_on_c, 0, 34, 58
1, 169440, Note_on_c, 0, 46, 69
1, 169500, Note_on_c, 0, 46, 0
1, 169500, Note_on_c, 0, 34, 0
1, 169560, Tempo, 557724
1, 169560, Note_on_c, 0, 67, 0
1, 169560, Note_on_c, 0, 58, 0
1, 169560, Note_on_c, 0, 63, 76
1, 169560, Note_on_c, 0, 67, 76
1, 169560, Note_on_c, 0, 75, 90
1, 169560, Note_on_c, 0, 39, 69
1, 169560, Note_on_c, 0, 51, 84
1, 169589, Control_c, 0, 64, 127
1, 169620, Note_on_c, 0, 51, 0
1, 169620, Note_on_c, 0, 39, 0
1, 169680, Note_on_c, 0, 38, 58
1, 169680, Note_on_c, 0, 50, 68
1, 169709, Control_c, 0, 64, 0
1, 169740, Note_on_c, 0, 50, 0
1, 169740, Note_on_c, 0, 38, 0
1, 169800, Note_on_c, 0, 67, 0
1, 169800, Note_on_c, 0, 70, 0
1, 169800, Note_on_c, 0, 63, 0
1, 169800, Note_on_c, 0, 67, 81
1, 169800, Note_on_c, 0, 70, 81
1, 169800, Note_on_c, 0, 79, 96
1, 169800, Note_on_c, 0, 36, 59
1, 169800, Note_on_c, 0, 48, 70
1, 169834, Control_c, 0, 64, 127
1, 169860, Note_on_c, 0, 48, 0
1, 169860, Note_on_c, 0, 36, 0
1, 169920, Tempo, 591658
1, 169920, Note_on_c, 0, 34, 61
1, 169920, Note_on_c, 0, 46, 71
1, 169949, Control_c, 0, 64, 0
1, 169980, Note_on_c, 0, 46, 0
1, 169980, Note_on_c, 0, 34, 0
1, 170040, Tempo, 565824
1, 170040, Note_on_c, 0, 79, 0
1, 170040, Note_on_c, 0, 75, 0
1, 170040, Note_on_c, 0, 67, 0
1, 170040, Note_on_c, 0, 70, 0
1, 170040, Note_on_c, 0, 70, 85
1, 170040, Note_on_c, 0, 79, 85
1, 170040, Note_on_c, 0, 82, 101
1, 170040, Note_on_c, 0, 39, 71
1, 170040, Note_on_c, 0, 51, 82
1, 170100, Note_on_c, 0, 51, 0
1, 170100, Note_on_c, 0, 39, 0
1, 170160, Note_on_c, 0, 38, 57
1, 170160, Note_on_c, 0, 50, 68
1, 170220, Note_on_c, 0, 50, 0
1, 170220, Note_on_c, 0, 38, 0
1, 170280, Tempo, 549803
1, 170280, Note_on_c, 0, 36, 58
1, 170280, Note_on_c, 0, 48, 69
1, 170340, Note_on_c, 0, 48, 0
1, 170340, Note_on_c, 0, 36, 0
1, 170400, Tempo, 594707
1, 170400, Note_on_c, 0, 70, 0
1, 170400, Note_on_c, 0, 79, 0
1, 170400, Note_on_c, 0, 82, 0
1, 170400, Note_on_c, 0, 75, 83
1, 170400, Note_on_c, 0, 79, 83
1, 170400, Note_on_c, 0, 87, 99
1, 170400, Note_on_c, 0, 34, 58
1, 170400, Note_on_c, 0, 46, 69
1, 170460, Note_on_c, 0, 46, 0
1, 170460, Note_on_c, 0, 34, 0
1, 170520, Tempo, 558140
1, 170520, Note_on_c, 0, 75, 0
1, 170520, Note_on_c, 0, 79, 0
1, 170520, Note_on_c, 0, 75, 84
1, 170520, Note_on_c, 0, 79, 100
1, 170520, Note_on_c, 0, 39, 72
1, 170520, Note_on_c, 0, 51, 85
1, 170580, Note_on_c, 0, 51, 0
1, 170580, Note_on_c, 0, 39, 0
1, 170640, Note_on_c, 0, 38, 64
1, 170640, Note_on_c, 0, 50, 78
1, 170700, Note_on_c, 0, 50, 0
1, 170700, Note_on_c, 0, 38, 0
1, 170760, Note_on_c, 0, 36, 60
1, 170760, Note_on_c, 0, 48, 73
1, 170820, Note_on_c, 0, 48, 0
1, 170820, Note_on_c, 0, 36, 0
1, 170880, Tempo, 594707
1, 170880, Note_on_c, 0, 79, 0
1, 170880, Note_on_c, 0, 75, 0
1, 170880, Note_on_c, 0, 75, 81
1, 170880, Note_on_c, 0, 67, 81
1, 170880, Note_on_c, 0, 79, 96
1, 170880, Note_on_c, 0, 34, 60
1, 170880, Note_on_c, 0, 46, 73
1, 170940, Note_on_c, 0, 46, 0
1, 170940, Note_on_c, 0, 34, 0
1, 171000, Tempo, 558140
1, 171000, Note_on_c, 0, 67, 0
1, 171000, Note_on_c, 0, 75, 0
1, 171000, Note_on_c, 0, 67, 81
1, 171000, Note_on_c, 0, 75, 81
1, 171000, Note_on_c, 0, 39, 73
1, 171000, Note_on_c, 0, 51, 87
1, 171026, Control_c, 0, 64, 127
1, 171060, Note_on_c, 0, 51, 0
1, 171060, Note_on_c, 0, 39, 0
1, 171120, Note_on_c, 0, 38, 60
1, 171120, Note_on_c, 0, 50, 72
1, 171137, Control_c, 0, 64, 0
1, 171180, Note_on_c, 0, 50, 0
1, 171180, Note_on_c, 0, 38, 0
1, 171240, Note_on_c, 0, 75, 0
1, 171240, Note_on_c, 0, 79, 0
1, 171240, Note_on_c, 0, 87, 0
1, 171240, Note_on_c, 0, 67, 0
1, 171240, Note_on_c, 0, 72, 78
1, 171240, Note_on_c, 0, 84, 92
1, 171240, Note_on_c, 0, 79, 78
1, 171240, Note_on_c, 0, 36, 60
1, 171240, Note_on_c, 0, 48, 72
1, 171300, Note_on_c, 0, 48, 0
1, 171300, Note_on_c, 0, 36, 0
1, 171300, Control_c, 0, 64, 127
1, 171360, Tempo, 591658
1, 171360, Note_on_c, 0, 72, 0
1, 171360, Note_on_c, 0, 84, 0
1, 171360, Note_on_c, 0, 79, 0
1, 171360, Note_on_c, 0, 34, 62
1, 171360, Note_on_c, 0, 46, 74
1, 171403, Control_c, 0, 64, 0
1, 171420, Note_on_c, 0, 46, 0
1, 171420, Note_on_c, 0, 34, 0
1, 171480, Tempo, 558140
1, 171480, Note_on_c, 0, 70, 85
1, 171480, Note_on_c, 0, 79, 85
1, 171480, Note_on_c, 0, 82, 102
1, 171480, Note_on_c, 0, 39, 73
1, 171480, Note_on_c, 0, 51, 84
1, 171540, Note_on_c, 0, 51, 0
1, 171540, Note_on_c, 0, 39, 0
1, 171600, Note_on_c, 0, 38, 59
1, 171600, Note_on_c, 0, 50, 70
1, 171660, Note_on_c, 0, 50, 0
1, 171660, Note_on_c, 0, 38, 0
1, 171720, Note_on_c, 0, 36, 59
1, 171720, Note_on_c, 0, 48, 70
1, 171780, Note_on_c, 0, 48, 0
1, 171780, Note_on_c, 0, 36, 0
1, 171840, Tempo, 594707
1, 171840, Note_on_c, 0, 34, 59
1, 171840, Note_on_c, 0, 46, 71
1, 171900, Note_on_c, 0, 46, 0
1, 171900, Note_on_c, 0, 34, 0
1, 171960, Tempo, 565824
1, 171960, Note_on_c, 0, 82, 0
1, 171960, Note_on_c, 0, 79, 0
1, 171960, Note_on_c, 0, 70, 0
1, 171960, Note_on_c, 0, 39, 74
1, 171960, Note_on_c, 0, 51, 87
1, 172020, Note_on_c, 0, 51, 0
1, 172020, Note_on_c, 0, 39, 0
1, 172080, Note_on_c, 0, 38, 66
1, 172080, Note_on_c, 0, 50, 80
1, 172140, Note_on_c, 0, 50, 0
1, 172140, Note_on_c, 0, 38, 0
1, 172200, Note_on_c, 0, 58, 83
1, 172200, Note_on_c, 0, 70, 98
1, 172200, Note_on_c, 0, 36, 62
1, 172200, Note_on_c, 0, 48, 74
1, 172220, Tempo, 549803
1, 172240, Control_c, 0, 64, 127
1, 172260, Note_on_c, 0, 48, 0
1, 172260, Note_on_c, 0, 58, 0
1, 172260, Note_on_c, 0, 70, 0
1, 172260, Note_on_c, 0, 36, 0
1, 172320, Tempo, 594707
1, 172320, Note_on_c, 0, 58, 83
1, 172320, Note_on_c, 0, 70, 98
1, 172320, Note_on_c, 0, 34, 62
1, 172320, Note_on_c, 0, 46, 74
1, 172380, Note_on_c, 0, 46, 0
1, 172380, Note_on_c, 0, 58, 0
1, 172380, Note_on_c, 0, 70, 0
1, 172380, Note_on_c, 0, 34, 0
1, 172440, Tempo, 565824
1, 172440, Note_on_c, 0, 58, 89
1, 172440, Note_on_c, 0, 70, 106
1, 172440, Note_on_c, 0, 68, 89
1, 172440, Note_on_c, 0, 39, 75
1, 172440, Note_on_c, 0, 51, 89
1, 172500, Note_on_c, 0, 51, 0
1, 172500, Note_on_c, 0, 39, 0
1, 172560, Note_on_c, 0, 58, 0
1, 172560, Note_on_c, 0, 70, 0
1, 172560, Note_on_c, 0, 68, 0
1, 172560, Note_on_c, 0, 38, 62
1, 172560, Note_on_c, 0, 50, 74
1, 172620, Note_on_c, 0, 50, 0
1, 172620, Note_on_c, 0, 38, 0
1, 172680, Note_on_c, 0, 65, 86
1, 172680, Note_on_c, 0, 68, 86
1, 172680, Note_on_c, 0, 70, 86
1, 172680, Note_on_c, 0, 77, 101
1, 172680, Note_on_c, 0, 36, 62
1, 172680, Note_on_c, 0, 48, 74
1, 172691, Control_c, 0, 64, 0
1, 172740, Note_on_c, 0, 48, 0
1, 172740, Note_on_c, 0, 36, 0
1, 172743, Control_c, 0, 64, 127
1, 172800, Tempo, 591658
1, 172800, Note_on_c, 0, 70, 0
1, 172800, Note_on_c, 0, 65, 0
1, 172800, Note_on_c, 0, 68, 0
1, 172800, Note_on_c, 0, 77, 0
1, 172800, Note_on_c, 0, 34, 63
1, 172800, Note_on_c, 0, 46, 75
1, 172860, Note_on_c, 0, 46, 0
1, 172860, Note_on_c, 0, 34, 0
1, 172920, Key_signature, -4, "major"
1, 172920, Tempo, 609137
1, 172920, Note_on_c, 0, 63, 83
1, 172920, Note_on_c, 0, 67, 94
1, 172920, Note_on_c, 0, 75, 111
1, 172920, Note_on_c, 0, 39, 64
1, 172920, Note_on_c, 0, 51, 71
1, 172931, Control_c, 0, 64, 0
1, 172940, Tempo, 591133
1, 172971, Control_c, 0, 64, 127
1, 172980, Note_on_c, 0, 51, 0
1, 172980, Note_on_c, 0, 39, 0
1, 173040, Note_on_c, 0, 63, 0
1, 173040, Note_on_c, 0, 67, 0
1, 173040, Note_on_c, 0, 75, 0
1, 173160, Note_on_c, 0, 63, 67
1, 173160, Note_on_c, 0, 75, 79
1, 173160, Note_on_c, 0, 39, 54
1, 173160, Note_on_c, 0, 51, 64
1, 173220, Note_on_c, 0, 51, 0
1, 173220, Note_on_c, 0, 63, 0
1, 173220, Note_on_c, 0, 75, 0
1, 173220, Note_on_c, 0, 39, 0
1, 173280, Note_on_c, 0, 63, 63
1, 173280, Note_on_c, 0, 75, 75
1, 173280, Note_on_c, 0, 39, 49
1, 173280, Note_on_c, 0, 51, 58
1, 173340, Note_on_c, 0, 51, 0
1, 173340, Note_on_c, 0, 63, 0
1, 173340, Note_on_c, 0, 75, 0
1, 173340, Note_on_c, 0, 39, 0
1, 173400, Note_on_c, 0, 63, 68
1, 173400, Note_on_c, 0, 75, 81
1, 173400, Note_on_c, 0, 40, 53
1, 173400, Note_on_c, 0, 52, 63
1, 173412, Control_c, 0, 64, 0
1, 173454, Control_c, 0, 64, 127
1, 173640, Note_on_c, 0, 52, 0
1, 173640, Note_on_c, 0, 63, 0
1, 173640, Note_on_c, 0, 75, 0
1, 173640, Note_on_c, 0, 40, 0
1, 173640, Note_on_c, 0, 63, 66
1, 173640, Note_on_c, 0, 75, 78
1, 173640, Note_on_c, 0, 40, 51
1, 173640, Note_on_c, 0, 52, 61
1, 173700, Note_on_c, 0, 52, 0
1, 173700, Note_on_c, 0, 63, 0
1, 173700, Note_on_c, 0, 75, 0
1, 173700, Note_on_c, 0, 40, 0
1, 173760, Note_on_c, 0, 63, 62
1, 173760, Note_on_c, 0, 75, 73
1, 173760, Note_on_c, 0, 40, 50
1, 173760, Note_on_c, 0, 52, 59
1, 173820, Note_on_c, 0, 52, 0
1, 173820, Note_on_c, 0, 63, 0
1, 173820, Note_on_c, 0, 75, 0
1, 173820, Note_on_c, 0, 40, 0
1, 173880, Tempo, 597015
1, 173880, Note_on_c, 0, 63, 67
1, 173880, Note_on_c, 0, 75, 79
1, 173880, Note_on_c, 0, 41, 55
1, 173880, Note_on_c, 0, 53, 65
1, 173892, Control_c, 0, 64, 0
1, 173920, Tempo, 600000
1, 173940, Control_c, 0, 64, 127
1, 173960, Tempo, 606061
1, 174000, Tempo, 609137
1, 174040, Tempo, 615385
1, 174080, Tempo, 621762
1, 174120, Tempo, 625000
1, 174120, Note_on_c, 0, 53, 0
1, 174120, Note_on_c, 0, 63, 0
1, 174120, Note_on_c, 0, 75, 0
1, 174120, Note_on_c, 0, 41, 0
1, 174120, Note_on_c, 0, 63, 62
1, 174120, Note_on_c, 0, 75, 74
1, 174120, Note_on_c, 0, 41, 52
1, 174120, Note_on_c, 0, 53, 62
1, 174160, Tempo, 631579
1, 174180, Note_on_c, 0, 53, 0
1, 174180, Note_on_c, 0, 63, 0
1, 174180, Note_on_c, 0, 75, 0
1, 174180, Note_on_c, 0, 41, 0
1, 174200, Tempo, 638298
1, 174220, Tempo, 701754
1, 174240, Note_on_c, 0, 63, 60
1, 174240, Note_on_c, 0, 75, 71
1, 174240, Note_on_c, 0, 41, 51
1, 174240, Note_on_c, 0, 53, 60
1, 174300, Note_on_c, 0, 53, 0
1, 174300, Note_on_c, 0, 63, 0
1, 174300, Note_on_c, 0, 75, 0
1, 174300, Note_on_c, 0, 41, 0
1, 174360, Tempo, 618557
1, 174360, Note_on_c, 0, 61, 51
1, 174360, Note_on_c, 0, 63, 51
1, 174360, Note_on_c, 0, 75, 81
1, 174360, Note_on_c, 0, 42, 43
1, 174360, Note_on_c, 0, 54, 51
1, 174363, Control_c, 0, 64, 0
1, 174402, Control_c, 0, 64, 127
1, 174600, Tempo, 591133
1, 174600, Note_on_c, 0, 54, 0
1, 174600, Note_on_c, 0, 63, 0
1, 174600, Note_on_c, 0, 61, 0
1, 174600, Note_on_c, 0, 42, 0
1, 174600, Note_on_c, 0, 63, 55
1, 174600, Note_on_c, 0, 61, 51
1, 174600, Note_on_c, 0, 54, 43
1, 174660, Note_on_c, 0, 54, 0
1, 174660, Note_on_c, 0, 61, 0
1, 174660, Note_on_c, 0, 63, 0
1, 174720, Note_on_c, 0, 63, 54
1, 174720, Note_on_c, 0, 61, 51
1, 174720, Note_on_c, 0, 54, 43
1, 174780, Note_on_c, 0, 54, 0
1, 174780, Note_on_c, 0, 61, 0
1, 174780, Note_on_c, 0, 63, 0
1, 174840, Note_on_c, 0, 75, 0
1, 174840, Note_on_c, 0, 63, 54
1, 174840, Note_on_c, 0, 70, 71
1, 174840, Note_on_c, 0, 61, 51
1, 174840, Note_on_c, 0, 54, 43
1, 175080, Tempo, 612245
1, 175080, Note_on_c, 0, 54, 0
1, 175080, Note_on_c, 0, 61, 0
1, 175080, Note_on_c, 0, 63, 0
1, 175080, Note_on_c, 0, 63, 54
1, 175080, Note_on_c, 0, 54, 43
1, 175080, Note_on_c, 0, 61, 51
1, 175140, Note_on_c, 0, 61, 0
1, 175140, Note_on_c, 0, 54, 0
1, 175140, Note_on_c, 0, 63, 0
1, 175200, Note_on_c, 0, 63, 53
1, 175200, Note_on_c, 0, 54, 43
1, 175200, Note_on_c, 0, 61, 51
1, 175260, Note_on_c, 0, 61, 0
1, 175260, Note_on_c, 0, 54, 0
1, 175260, Note_on_c, 0, 63, 0
1, 175320, Tempo, 606061
1, 175320, Note_on_c, 0, 70, 0
1, 175320, Note_on_c, 0, 60, 58
1, 175320, Note_on_c, 0, 66, 58
1, 175320, Note_on_c, 0, 72, 68
1, 175320, Note_on_c, 0, 44, 40
1, 175320, Note_on_c, 0, 51, 40
1, 175320, Note_on_c, 0, 56, 48
1, 175324, Control_c, 0, 64, 0
1, 175362, Control_c, 0, 64, 127
1, 175560, Tempo, 591133
1, 175560, Note_on_c, 0, 56, 0
1, 175560, Note_on_c, 0, 66, 0
1, 175560, Note_on_c, 0, 72, 0
1, 175560, Note_on_c, 0, 60, 0
1, 175560, Note_on_c, 0, 51, 0
1, 175560, Note_on_c, 0, 44, 0
1, 175560, Note_on_c, 0, 66, 56
1, 175560, Note_on_c, 0, 77, 66
1, 175560, Note_on_c, 0, 51, 40
1, 175560, Note_on_c, 0, 56, 40
1, 175560, Note_on_c, 0, 60, 48
1, 175620, Note_on_c, 0, 60, 0
1, 175620, Note_on_c, 0, 51, 0
1, 175620, Note_on_c, 0, 56, 0
1, 175680, Note_on_c, 0, 77, 0
1, 175680, Note_on_c, 0, 66, 0
1, 175680, Note_on_c, 0, 66, 54
1, 175680, Note_on_c, 0, 75, 64
1, 175680, Note_on_c, 0, 51, 40
1, 175680, Note_on_c, 0, 56, 40
1, 175680, Note_on_c, 0, 60, 48
1, 175740, Note_on_c, 0, 60, 0
1, 175740, Note_on_c, 0, 51, 0
1, 175740, Note_on_c, 0, 56, 0
1, 175800, Note_on_c, 0, 75, 0
1, 175800, Note_on_c, 0, 66, 0
1, 175800, Note_on_c, 0, 65, 57
1, 175800, Note_on_c, 0, 75, 68
1, 175800, Note_on_c, 0, 49, 45
1, 175800, Note_on_c, 0, 56, 45
1, 175800, Note_on_c, 0, 60, 52
1, 175803, Control_c, 0, 64, 0
1, 175920, Note_on_c, 0, 75, 0
1, 175920, Note_on_c, 0, 73, 64
1, 176040, Tempo, 609137
1, 176040, Note_on_c, 0, 73, 0
1, 176040, Note_on_c, 0, 60, 0
1, 176040, Note_on_c, 0, 65, 0
1, 176040, Note_on_c, 0, 49, 0
1, 176040, Note_on_c, 0, 56, 0
1, 176040, Note_on_c, 0, 65, 54
1, 176040, Note_on_c, 0, 73, 64
1, 176040, Note_on_c, 0, 49, 40
1, 176040, Note_on_c, 0, 56, 40
1, 176040, Note_on_c, 0, 61, 48
1, 176100, Note_on_c, 0, 61, 0
1, 176100, Note_on_c, 0, 49, 0
1, 176100, Note_on_c, 0, 65, 0
1, 176100, Note_on_c, 0, 73, 0
1, 176100, Note_on_c, 0, 56, 0
1, 176160, Note_on_c, 0, 65, 49
1, 176160, Note_on_c, 0, 72, 59
1, 176160, Note_on_c, 0, 49, 40
1, 176160, Note_on_c, 0, 56, 40
1, 176160, Note_on_c, 0, 61, 48
1, 176220, Note_on_c, 0, 61, 0
1, 176220, Note_on_c, 0, 49, 0
1, 176220, Note_on_c, 0, 65, 0
1, 176220, Note_on_c, 0, 72, 0
1, 176220, Note_on_c, 0, 56, 0
1, 176280, Note_on_c, 0, 65, 52
1, 176280, Note_on_c, 0, 70, 62
1, 176280, Note_on_c, 0, 49, 45
1, 176280, Note_on_c, 0, 55, 45
1, 176280, Note_on_c, 0, 61, 54
1, 176340, Control_c, 0, 64, 127
1, 176520, Tempo, 591133
1, 176520, Note_on_c, 0, 61, 0
1, 176520, Note_on_c, 0, 49, 0
1, 176520, Note_on_c, 0, 55, 0
1, 176520, Note_on_c, 0, 65, 0
1, 176520, Note_on_c, 0, 65, 53
1, 176520, Note_on_c, 0, 49, 43
1, 176520, Note_on_c, 0, 55, 43
1, 176520, Note_on_c, 0, 61, 51
1, 176628, Note_on_c, 0, 61, 0
1, 176628, Note_on_c, 0, 49, 0
1, 176628, Note_on_c, 0, 55, 0
1, 176628, Note_on_c, 0, 65, 0
1, 176640, Note_on_c, 0, 65, 53
1, 176640, Note_on_c, 0, 49, 43
1, 176640, Note_on_c, 0, 55, 43
1, 176640, Note_on_c, 0, 61, 51
1, 176748, Note_on_c, 0, 61, 0
1, 176748, Note_on_c, 0, 49, 0
1, 176748, Note_on_c, 0, 55, 0
1, 176748, Note_on_c, 0, 65, 0
1, 176760, Tempo, 612245
1, 176760, Note_on_c, 0, 70, 0
1, 176760, Note_on_c, 0, 60, 54
1, 176760, Note_on_c, 0, 64, 54
1, 176760, Note_on_c, 0, 72, 64
1, 176760, Note_on_c, 0, 48, 45
1, 176760, Note_on_c, 0, 55, 45
1, 176760, Note_on_c, 0, 58, 54
1, 176768, Control_c, 0, 64, 0
1, 176873, Control_c, 0, 64, 127
1, 177000, Tempo, 591133
1, 177000, Note_on_c, 0, 58, 0
1, 177000, Note_on_c, 0, 48, 0
1, 177000, Note_on_c, 0, 64, 0
1, 177000, Note_on_c, 0, 60, 0
1, 177000, Note_on_c, 0, 55, 0
1, 177000, Note_on_c, 0, 60, 54
1, 177000, Note_on_c, 0, 64, 54
1, 177000, Note_on_c, 0, 48, 43
1, 177000, Note_on_c, 0, 55, 43
1, 177000, Note_on_c, 0, 58, 51
1, 177108, Note_on_c, 0, 58, 0
1, 177108, Note_on_c, 0, 60, 0
1, 177108, Note_on_c, 0, 64, 0
1, 177108, Note_on_c, 0, 48, 0
1, 177108, Note_on_c, 0, 55, 0
1, 177120, Note_on_c, 0, 60, 53
1, 177120, Note_on_c, 0, 64, 53
1, 177120, Note_on_c, 0, 48, 43
1, 177120, Note_on_c, 0, 55, 43
1, 177120, Note_on_c, 0, 58, 51
1, 177228, Note_on_c, 0, 58, 0
1, 177228, Note_on_c, 0, 60, 0
1, 177228, Note_on_c, 0, 64, 0
1, 177228, Note_on_c, 0, 48, 0
1, 177228, Note_on_c, 0, 55, 0
1, 177240, Tempo, 600000
1, 177240, Note_on_c, 0, 72, 0
1, 177240, Note_on_c, 0, 65, 57
1, 177240, Note_on_c, 0, 60, 57
1, 177240, Note_on_c, 0, 70, 68
1, 177240, Note_on_c, 0, 53, 45
1, 177240, Note_on_c, 0, 56, 52
1, 177247, Control_c, 0, 64, 0
1, 177360, Note_on_c, 0, 70, 0
1, 177360, Note_on_c, 0, 68, 64
1, 177480, Tempo, 609137
1, 177480, Note_on_c, 0, 68, 0
1, 177480, Note_on_c, 0, 56, 0
1, 177480, Note_on_c, 0, 65, 0
1, 177480, Note_on_c, 0, 60, 0
1, 177480, Note_on_c, 0, 53, 0
1, 177480, Note_on_c, 0, 60, 54
1, 177480, Note_on_c, 0, 68, 64
1, 177480, Note_on_c, 0, 53, 40
1, 177480, Note_on_c, 0, 56, 48
1, 177540, Note_on_c, 0, 56, 0
1, 177540, Note_on_c, 0, 60, 0
1, 177540, Note_on_c, 0, 68, 0
1, 177540, Note_on_c, 0, 53, 0
1, 177600, Note_on_c, 0, 60, 49
1, 177600, Note_on_c, 0, 67, 59
1, 177600, Note_on_c, 0, 51, 40
1, 177600, Note_on_c, 0, 56, 48
1, 177660, Note_on_c, 0, 56, 0
1, 177660, Note_on_c, 0, 60, 0
1, 177660, Note_on_c, 0, 67, 0
1, 177660, Note_on_c, 0, 51, 0
1, 177720, Note_on_c, 0, 60, 52
1, 177720, Note_on_c, 0, 65, 62
1, 177720, Note_on_c, 0, 50, 45
1, 177720, Note_on_c, 0, 56, 54
1, 177780, Control_c, 0, 64, 127
1, 177960, Tempo, 591133
1, 177960, Note_on_c, 0, 56, 0
1, 177960, Note_on_c, 0, 50, 0
1, 177960, Note_on_c, 0, 60, 0
1, 177960, Note_on_c, 0, 60, 50
1, 177960, Note_on_c, 0, 62, 50
1, 177960, Note_on_c, 0, 50, 40
1, 177960, Note_on_c, 0, 56, 48
1, 178068, Note_on_c, 0, 56, 0
1, 178068, Note_on_c, 0, 62, 0
1, 178068, Note_on_c, 0, 50, 0
1, 178068, Note_on_c, 0, 60, 0
1, 178080, Note_on_c, 0, 60, 50
1, 178080, Note_on_c, 0, 62, 50
1, 178080, Note_on_c, 0, 50, 40
1, 178080, Note_on_c, 0, 56, 48
1, 178188, Note_on_c, 0, 56, 0
1, 178188, Note_on_c, 0, 62, 0
1, 178188, Note_on_c, 0, 50, 0
1, 178188, Note_on_c, 0, 60, 0
1, 178200, Tempo, 612245
1, 178200, Note_on_c, 0, 65, 0
1, 178200, Note_on_c, 0, 59, 54
1, 178200, Note_on_c, 0, 62, 54
1, 178200, Note_on_c, 0, 67, 64
1, 178200, Note_on_c, 0, 43, 45
1, 178200, Note_on_c, 0, 50, 45
1, 178200, Note_on_c, 0, 55, 54
1, 178207, Control_c, 0, 64, 0
1, 178313, Control_c, 0, 64, 127
1, 178440, Tempo, 591133
1, 178440, Note_on_c, 0, 55, 0
1, 178440, Note_on_c, 0, 43, 0
1, 178440, Note_on_c, 0, 62, 0
1, 178440, Note_on_c, 0, 59, 0
1, 178440, Note_on_c, 0, 50, 0
1, 178440, Note_on_c, 0, 59, 51
1, 178440, Note_on_c, 0, 62, 51
1, 178440, Note_on_c, 0, 43, 40
1, 178440, Note_on_c, 0, 50, 40
1, 178440, Note_on_c, 0, 55, 48
1, 178548, Note_on_c, 0, 55, 0
1, 178548, Note_on_c, 0, 59, 0
1, 178548, Note_on_c, 0, 62, 0
1, 178548, Note_on_c, 0, 43, 0
1, 178548, Note_on_c, 0, 50, 0
1, 178560, Note_on_c, 0, 59, 50
1, 178560, Note_on_c, 0, 62, 50
1, 178560, Note_on_c, 0, 43, 40
1, 178560, Note_on_c, 0, 50, 40
1, 178560, Note_on_c, 0, 55, 48
1, 178668, Note_on_c, 0, 55, 0
1, 178668, Note_on_c, 0, 59, 0
1, 178668, Note_on_c, 0, 62, 0
1, 178668, Note_on_c, 0, 43, 0
1, 178668, Note_on_c, 0, 50, 0
1, 178680, Tempo, 615385
1, 178680, Note_on_c, 0, 67, 0
1, 178680, Note_on_c, 0, 60, 47
1, 178680, Note_on_c, 0, 63, 56
1, 178680, Control_c, 0, 64, 0
1, 178680, Note_on_c, 0, 48, 42
1, 178680, Note_on_c, 0, 55, 49
1, 178737, Control_c, 0, 64, 127
1, 178740, Note_on_c, 0, 63, 0
1, 178740, Note_on_c, 0, 65, 56
1, 178800, Note_on_c, 0, 65, 0
1, 178800, Note_on_c, 0, 63, 62
1, 178920, Tempo, 600000
1, 178920, Note_on_c, 0, 63, 0
1, 178920, Note_on_c, 0, 60, 0
1, 178920, Note_on_c, 0, 48, 0
1, 178920, Note_on_c, 0, 55, 0
1, 178920, Note_on_c, 0, 59, 49
1, 178920, Note_on_c, 0, 62, 58
1, 178920, Note_on_c, 0, 48, 38
1, 178920, Note_on_c, 0, 55, 45
1, 179028, Note_on_c, 0, 55, 0
1, 179028, Note_on_c, 0, 48, 0
1, 179040, Note_on_c, 0, 62, 0
1, 179040, Note_on_c, 0, 59, 0
1, 179040, Note_on_c, 0, 60, 49
1, 179040, Note_on_c, 0, 63, 59
1, 179040, Note_on_c, 0, 48, 38
1, 179040, Note_on_c, 0, 55, 45
1, 179148, Note_on_c, 0, 55, 0
1, 179148, Note_on_c, 0, 48, 0
1, 179160, Tempo, 600000
1, 179160, Note_on_c, 0, 63, 0
1, 179160, Note_on_c, 0, 60, 0
1, 179160, Note_on_c, 0, 65, 56
1, 179160, Note_on_c, 0, 62, 47
1, 179160, Note_on_c, 0, 56, 49
1, 179160, Note_on_c, 0, 46, 42
1, 179166, Control_c, 0, 64, 0
1, 179180, Tempo, 615385
1, 179217, Control_c, 0, 64, 127
1, 179220, Note_on_c, 0, 65, 0
1, 179220, Note_on_c, 0, 67, 56
1, 179280, Note_on_c, 0, 67, 0
1, 179280, Note_on_c, 0, 65, 62
1, 179400, Tempo, 609137
1, 179400, Note_on_c, 0, 65, 0
1, 179400, Note_on_c, 0, 62, 0
1, 179400, Note_on_c, 0, 56, 0
1, 179400, Note_on_c, 0, 46, 0
1, 179400, Note_on_c, 0, 60, 49
1, 179400, Note_on_c, 0, 63, 58
1, 179400, Note_on_c, 0, 56, 45
1, 179400, Note_on_c, 0, 46, 38
1, 179420, Tempo, 597015
1, 179508, Note_on_c, 0, 46, 0
1, 179508, Note_on_c, 0, 56, 0
1, 179520, Note_on_c, 0, 63, 0
1, 179520, Note_on_c, 0, 60, 0
1, 179520, Note_on_c, 0, 62, 59
1, 179520, Note_on_c, 0, 65, 59
1, 179520, Note_on_c, 0, 46, 38
1, 179520, Note_on_c, 0, 56, 45
1, 179628, Note_on_c, 0, 56, 0
1, 179628, Note_on_c, 0, 46, 0
1, 179640, Note_on_c, 0, 65, 0
1, 179640, Note_on_c, 0, 62, 0
1, 179640, Note_on_c, 0, 55, 54
1, 179640, Note_on_c, 0, 67, 64
1, 179640, Note_on_c, 0, 63, 54
1, 179640, Note_on_c, 0, 39, 45
1, 179640, Note_on_c, 0, 46, 45
1, 179640, Note_on_c, 0, 51, 54
1, 179653, Control_c, 0, 64, 0
1, 179753, Control_c, 0, 64, 127
1, 179880, Note_on_c, 0, 51, 0
1, 179880, Note_on_c, 0, 55, 0
1, 179880, Note_on_c, 0, 63, 0
1, 179880, Note_on_c, 0, 39, 0
1, 179880, Note_on_c, 0, 46, 0
1, 179880, Note_on_c, 0, 63, 51
1, 179880, Note_on_c, 0, 55, 51
1, 179880, Note_on_c, 0, 46, 40
1, 179880, Note_on_c, 0, 51, 48
1, 179880, Note_on_c, 0, 39, 40
1, 179988, Note_on_c, 0, 39, 0
1, 179988, Note_on_c, 0, 63, 0
1, 179988, Note_on_c, 0, 55, 0
1, 179988, Note_on_c, 0, 46, 0
1, 179988, Note_on_c, 0, 51, 0
1, 180000, Tempo, 659341
1, 180000, Note_on_c, 0, 63, 50
1, 180000, Note_on_c, 0, 55, 50
1, 180000, Note_on_c, 0, 46, 40
1, 180000, Note_on_c, 0, 51, 48
1, 180000, Note_on_c, 0, 39, 40
1, 180108, Note_on_c, 0, 39, 0
1, 180108, Note_on_c, 0, 63, 0
1, 180108, Note_on_c, 0, 55, 0
1, 180108, Note_on_c, 0, 46, 0
1, 180108, Note_on_c, 0, 51, 0
1, 180120, Tempo, 638298
1, 180120, Note_on_c, 0, 67, 0
1, 180120, Note_on_c, 0, 74, 51
1, 180120, Note_on_c, 0, 65, 51
1, 180120, Note_on_c, 0, 67, 51
1, 180120, Note_on_c, 0, 79, 81
1, 180120, Note_on_c, 0, 35, 43
1, 180120, Note_on_c, 0, 47, 51
1, 180124, Control_c, 0, 64, 0
1, 180269, Control_c, 0, 64, 127
1, 180360, Tempo, 618557
1, 180360, Note_on_c, 0, 47, 0
1, 180360, Note_on_c, 0, 65, 0
1, 180360, Note_on_c, 0, 74, 0
1, 180360, Note_on_c, 0, 67, 0
1, 180360, Note_on_c, 0, 35, 0
1, 180360, Note_on_c, 0, 67, 55
1, 180360, Note_on_c, 0, 65, 55
1, 180360, Note_on_c, 0, 47, 43
1, 180360, Note_on_c, 0, 59, 51
1, 180360, Note_on_c, 0, 55, 43
1, 180468, Note_on_c, 0, 55, 0
1, 180468, Note_on_c, 0, 67, 0
1, 180468, Note_on_c, 0, 65, 0
1, 180468, Note_on_c, 0, 47, 0
1, 180468, Note_on_c, 0, 59, 0
1, 180480, Note_on_c, 0, 67, 54
1, 180480, Note_on_c, 0, 65, 54
1, 180480, Note_on_c, 0, 47, 43
1, 180480, Note_on_c, 0, 59, 51
1, 180480, Note_on_c, 0, 55, 43
1, 180588, Note_on_c, 0, 55, 0
1, 180588, Note_on_c, 0, 67, 0
1, 180588, Note_on_c, 0, 65, 0
1, 180588, Note_on_c, 0, 47, 0
1, 180588, Note_on_c, 0, 59, 0
1, 180600, Note_on_c, 0, 79, 0
1, 180600, Note_on_c, 0, 67, 54
1, 180600, Note_on_c, 0, 65, 54
1, 180600, Note_on_c, 0, 74, 71
1, 180600, Note_on_c, 0, 47, 43
1, 180600, Note_on_c, 0, 59, 51
1, 180600, Note_on_c, 0, 55, 43
1, 180840, Tempo, 625000
1, 180840, Note_on_c, 0, 55, 0
1, 180840, Note_on_c, 0, 47, 0
1, 180840, Note_on_c, 0, 65, 0
1, 180840, Note_on_c, 0, 67, 0
1, 180840, Note_on_c, 0, 59, 0
1, 180840, Note_on_c, 0, 67, 54
1, 180840, Note_on_c, 0, 65, 54
1, 180840, Note_on_c, 0, 47, 43
1, 180840, Note_on_c, 0, 55, 43
1, 180840, Note_on_c, 0, 59, 51
1, 180948, Note_on_c, 0, 59, 0
1, 180948, Note_on_c, 0, 67, 0
1, 180948, Note_on_c, 0, 65, 0
1, 180948, Note_on_c, 0, 47, 0
1, 180948, Note_on_c, 0, 55, 0
1, 180960, Note_on_c, 0, 67, 53
1, 180960, Note_on_c, 0, 65, 53
1, 180960, Note_on_c, 0, 47, 43
1, 180960, Note_on_c, 0, 55, 43
1, 180960, Note_on_c, 0, 59, 51
1, 181068, Note_on_c, 0, 59, 0
1, 181068, Note_on_c, 0, 67, 0
1, 181068, Note_on_c, 0, 65, 0
1, 181068, Note_on_c, 0, 47, 0
1, 181068, Note_on_c, 0, 55, 0
1, 181080, Tempo, 615385
1, 181080, Note_on_c, 0, 74, 0
1, 181080, Note_on_c, 0, 70, 58
1, 181080, Note_on_c, 0, 64, 58
1, 181080, Note_on_c, 0, 72, 58
1, 181080, Note_on_c, 0, 76, 68
1, 181080, Note_on_c, 0, 48, 40
1, 181080, Note_on_c, 0, 55, 40
1, 181080, Note_on_c, 0, 60, 48
1, 181087, Control_c, 0, 64, 0
1, 181212, Control_c, 0, 64, 127
1, 181320, Tempo, 597015
1, 181320, Note_on_c, 0, 60, 0
1, 181320, Note_on_c, 0, 48, 0
1, 181320, Note_on_c, 0, 64, 0
1, 181320, Note_on_c, 0, 70, 0
1, 181320, Note_on_c, 0, 72, 0
1, 181320, Note_on_c, 0, 55, 0
1, 181320, Note_on_c, 0, 70, 56
1, 181320, Note_on_c, 0, 64, 56
1, 181320, Note_on_c, 0, 72, 56
1, 181320, Note_on_c, 0, 48, 40
1, 181320, Note_on_c, 0, 55, 40
1, 181320, Note_on_c, 0, 60, 48
1, 181428, Note_on_c, 0, 60, 0
1, 181428, Note_on_c, 0, 48, 0
1, 181428, Note_on_c, 0, 70, 0
1, 181428, Note_on_c, 0, 64, 0
1, 181428, Note_on_c, 0, 72, 0
1, 181428, Note_on_c, 0, 55, 0
1, 181440, Note_on_c, 0, 70, 57
1, 181440, Note_on_c, 0, 64, 54
1, 181440, Note_on_c, 0, 72, 57
1, 181440, Note_on_c, 0, 48, 40
1, 181440, Note_on_c, 0, 55, 40
1, 181440, Note_on_c, 0, 60, 48
1, 181548, Note_on_c, 0, 60, 0
1, 181548, Note_on_c, 0, 48, 0
1, 181548, Note_on_c, 0, 70, 0
1, 181548, Note_on_c, 0, 64, 0
1, 181548, Note_on_c, 0, 72, 0
1, 181548, Note_on_c, 0, 55, 0
1, 181560, Note_on_c, 0, 76, 0
1, 181560, Note_on_c, 0, 68, 57
1, 181560, Note_on_c, 0, 72, 57
1, 181560, Note_on_c, 0, 79, 68
1, 181560, Control_c, 0, 64, 0
1, 181560, Note_on_c, 0, 53, 45
1, 181560, Note_on_c, 0, 60, 45
1, 181560, Note_on_c, 0, 64, 52
1, 181680, Note_on_c, 0, 79, 0
1, 181680, Note_on_c, 0, 77, 64
1, 181800, Tempo, 609137
1, 181800, Note_on_c, 0, 77, 0
1, 181800, Note_on_c, 0, 64, 0
1, 181800, Note_on_c, 0, 53, 0
1, 181800, Note_on_c, 0, 68, 0
1, 181800, Note_on_c, 0, 72, 0
1, 181800, Note_on_c, 0, 60, 0
1, 181800, Note_on_c, 0, 68, 54
1, 181800, Note_on_c, 0, 72, 54
1, 181800, Note_on_c, 0, 77, 64
1, 181800, Note_on_c, 0, 53, 40
1, 181800, Note_on_c, 0, 60, 40
1, 181800, Note_on_c, 0, 65, 48
1, 181860, Note_on_c, 0, 65, 0
1, 181860, Note_on_c, 0, 72, 0
1, 181860, Note_on_c, 0, 77, 0
1, 181860, Note_on_c, 0, 68, 0
1, 181860, Note_on_c, 0, 60, 0
1, 181860, Note_on_c, 0, 53, 0
1, 181920, Note_on_c, 0, 68, 49
1, 181920, Note_on_c, 0, 72, 49
1, 181920, Note_on_c, 0, 75, 59
1, 181920, Note_on_c, 0, 53, 40
1, 181920, Note_on_c, 0, 60, 40
1, 181920, Note_on_c, 0, 65, 48
1, 181980, Note_on_c, 0, 65, 0
1, 181980, Note_on_c, 0, 72, 0
1, 181980, Note_on_c, 0, 75, 0
1, 181980, Note_on_c, 0, 68, 0
1, 181980, Note_on_c, 0, 60, 0
1, 181980, Note_on_c, 0, 53, 0
1, 182040, Note_on_c, 0, 72, 52
1, 182040, Note_on_c, 0, 68, 44
1, 182040, Note_on_c, 0, 65, 44
1, 182040, Note_on_c, 0, 74, 62
1, 182040, Note_on_c, 0, 53, 45
1, 182040, Note_on_c, 0, 60, 45
1, 182040, Note_on_c, 0, 62, 54
1, 182100, Control_c, 0, 64, 127
1, 182280, Tempo, 591133
1, 182280, Note_on_c, 0, 62, 0
1, 182280, Note_on_c, 0, 53, 0
1, 182280, Note_on_c, 0, 68, 0
1, 182280, Note_on_c, 0, 72, 0
1, 182280, Note_on_c, 0, 65, 0
1, 182280, Note_on_c, 0, 60, 0
1, 182280, Note_on_c, 0, 72, 53
1, 182280, Note_on_c, 0, 68, 53
1, 182280, Note_on_c, 0, 65, 53
1, 182280, Note_on_c, 0, 53, 43
1, 182280, Note_on_c, 0, 60, 43
1, 182280, Note_on_c, 0, 62, 51
1, 182388, Note_on_c, 0, 62, 0
1, 182388, Note_on_c, 0, 53, 0
1, 182388, Note_on_c, 0, 72, 0
1, 182388, Note_on_c, 0, 68, 0
1, 182388, Note_on_c, 0, 65, 0
1, 182388, Note_on_c, 0, 60, 0
1, 182400, Note_on_c, 0, 72, 53
1, 182400, Note_on_c, 0, 68, 53
1, 182400, Note_on_c, 0, 65, 53
1, 182400, Note_on_c, 0, 53, 43
1, 182400, Note_on_c, 0, 60, 43
1, 182400, Note_on_c, 0, 62, 51
1, 182508, Note_on_c, 0, 62, 0
1, 182508, Note_on_c, 0, 53, 0
1, 182508, Note_on_c, 0, 72, 0
1, 182508, Note_on_c, 0, 68, 0
1, 182508, Note_on_c, 0, 65, 0
1, 182508, Note_on_c, 0, 60, 0
1, 182520, Tempo, 612245
1, 182520, Note_on_c, 0, 74, 0
1, 182520, Note_on_c, 0, 70, 54
1, 182520, Note_on_c, 0, 72, 54
1, 182520, Note_on_c, 0, 76, 64
1, 182520, Note_on_c, 0, 55, 45
1, 182520, Note_on_c, 0, 60, 45
1, 182520, Note_on_c, 0, 64, 54
1, 182524, Control_c, 0, 64, 0
1, 182633, Control_c, 0, 64, 127
1, 182760, Tempo, 591133
1, 182760, Note_on_c, 0, 64, 0
1, 182760, Note_on_c, 0, 55, 0
1, 182760, Note_on_c, 0, 72, 0
1, 182760, Note_on_c, 0, 70, 0
1, 182760, Note_on_c, 0, 60, 0
1, 182760, Note_on_c, 0, 70, 54
1, 182760, Note_on_c, 0, 72, 54
1, 182760, Note_on_c, 0, 55, 43
1, 182760, Note_on_c, 0, 60, 43
1, 182760, Note_on_c, 0, 64, 51
1, 182868, Note_on_c, 0, 64, 0
1, 182868, Note_on_c, 0, 70, 0
1, 182868, Note_on_c, 0, 72, 0
1, 182868, Note_on_c, 0, 55, 0
1, 182868, Note_on_c, 0, 60, 0
1, 182880, Note_on_c, 0, 70, 53
1, 182880, Note_on_c, 0, 72, 53
1, 182880, Note_on_c, 0, 55, 43
1, 182880, Note_on_c, 0, 60, 43
1, 182880, Note_on_c, 0, 64, 51
1, 182988, Note_on_c, 0, 64, 0
1, 182988, Note_on_c, 0, 70, 0
1, 182988, Note_on_c, 0, 72, 0
1, 182988, Note_on_c, 0, 55, 0
1, 182988, Note_on_c, 0, 60, 0
1, 183000, Tempo, 600000
1, 183000, Note_on_c, 0, 76, 0
1, 183000, Note_on_c, 0, 68, 54
1, 183000, Note_on_c, 0, 72, 54
1, 183000, Note_on_c, 0, 79, 64
1, 183000, Control_c, 0, 64, 0
1, 183000, Note_on_c, 0, 56, 42
1, 183000, Note_on_c, 0, 60, 42
1, 183000, Note_on_c, 0, 64, 49
1, 183120, Note_on_c, 0, 79, 0
1, 183120, Note_on_c, 0, 77, 61
1, 183240, Tempo, 618557
1, 183240, Note_on_c, 0, 77, 0
1, 183240, Note_on_c, 0, 64, 0
1, 183240, Note_on_c, 0, 56, 0
1, 183240, Note_on_c, 0, 68, 0
1, 183240, Note_on_c, 0, 72, 0
1, 183240, Note_on_c, 0, 60, 0
1, 183240, Note_on_c, 0, 68, 51
1, 183240, Note_on_c, 0, 72, 51
1, 183240, Note_on_c, 0, 77, 60
1, 183240, Note_on_c, 0, 56, 38
1, 183240, Note_on_c, 0, 60, 38
1, 183240, Note_on_c, 0, 65, 45
1, 183300, Note_on_c, 0, 65, 0
1, 183300, Note_on_c, 0, 72, 0
1, 183300, Note_on_c, 0, 77, 0
1, 183300, Note_on_c, 0, 68, 0
1, 183300, Note_on_c, 0, 60, 0
1, 183300, Note_on_c, 0, 56, 0
1, 183360, Note_on_c, 0, 68, 44
1, 183360, Note_on_c, 0, 72, 44
1, 183360, Note_on_c, 0, 75, 54
1, 183360, Note_on_c, 0, 56, 36
1, 183360, Note_on_c, 0, 60, 36
1, 183360, Note_on_c, 0, 65, 44
1, 183420, Note_on_c, 0, 65, 0
1, 183420, Note_on_c, 0, 72, 0
1, 183420, Note_on_c, 0, 75, 0
1, 183420, Note_on_c, 0, 68, 0
1, 183420, Note_on_c, 0, 60, 0
1, 183420, Note_on_c, 0, 56, 0
1, 183480, Tempo, 600000
1, 183480, Note_on_c, 0, 68, 51
1, 183480, Note_on_c, 0, 75, 61
1, 183480, Note_on_c, 0, 53, 39
1, 183480, Note_on_c, 0, 60, 39
1, 183480, Note_on_c, 0, 65, 47
1, 183497, Control_c, 0, 64, 127
1, 183520, Tempo, 609137
1, 183600, Note_on_c, 0, 75, 0
1, 183600, Note_on_c, 0, 74, 56
1, 183720, Tempo, 628272
1, 183720, Note_on_c, 0, 74, 0
1, 183720, Note_on_c, 0, 65, 0
1, 183720, Note_on_c, 0, 68, 0
1, 183720, Note_on_c, 0, 53, 0
1, 183720, Note_on_c, 0, 60, 0
1, 183720, Note_on_c, 0, 65, 46
1, 183720, Note_on_c, 0, 68, 46
1, 183720, Note_on_c, 0, 74, 56
1, 183720, Note_on_c, 0, 53, 35
1, 183720, Note_on_c, 0, 60, 41
1, 183780, Note_on_c, 0, 60, 0
1, 183780, Note_on_c, 0, 74, 0
1, 183780, Note_on_c, 0, 65, 0
1, 183780, Note_on_c, 0, 68, 0
1, 183780, Note_on_c, 0, 53, 0
1, 183840, Note_on_c, 0, 65, 42
1, 183840, Note_on_c, 0, 68, 42
1, 183840, Note_on_c, 0, 72, 51
1, 183840, Note_on_c, 0, 53, 35
1, 183840, Note_on_c, 0, 60, 41
1, 183900, Note_on_c, 0, 60, 0
1, 183900, Note_on_c, 0, 72, 0
1, 183900, Note_on_c, 0, 65, 0
1, 183900, Note_on_c, 0, 68, 0
1, 183900, Note_on_c, 0, 53, 0
1, 183960, Tempo, 612245
1, 183960, Note_on_c, 0, 65, 49
1, 183960, Note_on_c, 0, 72, 57
1, 183960, Note_on_c, 0, 50, 38
1, 183960, Note_on_c, 0, 56, 38
1, 183960, Note_on_c, 0, 60, 45
1, 183971, Control_c, 0, 64, 0
1, 184023, Control_c, 0, 64, 127
1, 184080, Note_on_c, 0, 72, 0
1, 184080, Note_on_c, 0, 70, 53
1, 184200, Tempo, 628272
1, 184200, Note_on_c, 0, 70, 0
1, 184200, Note_on_c, 0, 60, 0
1, 184200, Note_on_c, 0, 65, 0
1, 184200, Note_on_c, 0, 50, 0
1, 184200, Note_on_c, 0, 56, 0
1, 184200, Note_on_c, 0, 62, 42
1, 184200, Note_on_c, 0, 65, 42
1, 184200, Note_on_c, 0, 70, 51
1, 184200, Note_on_c, 0, 50, 31
1, 184200, Note_on_c, 0, 55, 31
1, 184200, Note_on_c, 0, 60, 38
1, 184260, Note_on_c, 0, 60, 0
1, 184260, Note_on_c, 0, 65, 0
1, 184260, Note_on_c, 0, 70, 0
1, 184260, Note_on_c, 0, 62, 0
1, 184260, Note_on_c, 0, 55, 0
1, 184260, Note_on_c, 0, 50, 0
1, 184320, Note_on_c, 0, 62, 38
1, 184320, Note_on_c, 0, 65, 38
1, 184320, Note_on_c, 0, 68, 45
1, 184320, Note_on_c, 0, 50, 31
1, 184320, Note_on_c, 0, 53, 31
1, 184320, Note_on_c, 0, 60, 38
1, 184380, Note_on_c, 0, 60, 0
1, 184380, Note_on_c, 0, 65, 0
1, 184380, Note_on_c, 0, 68, 0
1, 184380, Note_on_c, 0, 62, 0
1, 184380, Note_on_c, 0, 53, 0
1, 184380, Note_on_c, 0, 50, 0
1, 184440, Tempo, 648649
1, 184440, Note_on_c, 0, 59, 39
1, 184440, Note_on_c, 0, 62, 39
1, 184440, Note_on_c, 0, 67, 47
1, 184440, Control_c, 0, 64, 0
1, 184440, Note_on_c, 0, 43, 34
1, 184440, Note_on_c, 0, 50, 34
1, 184440, Note_on_c, 0, 55, 39
1, 184444, Control_c, 0, 64, 0
1, 184531, Control_c, 0, 64, 127
1, 184560, Note_on_c, 0, 55, 0
1, 184560, Note_on_c, 0, 62, 0
1, 184560, Note_on_c, 0, 67, 0
1, 184560, Note_on_c, 0, 59, 0
1, 184560, Note_on_c, 0, 50, 0
1, 184560, Note_on_c, 0, 43, 0
1, 184674, Control_c, 0, 64, 0
1, 184680, Tempo, 631579
1, 184680, Note_on_c, 0, 63, 33
1, 184680, Note_on_c, 0, 60, 33
1, 184680, Note_on_c, 0, 67, 39
1, 184680, Note_on_c, 0, 43, 30
1, 184680, Note_on_c, 0, 48, 30
1, 184680, Note_on_c, 0, 55, 36
1, 184800, Note_on_c, 0, 55, 0
1, 184800, Note_on_c, 0, 60, 0
1, 184800, Note_on_c, 0, 67, 0
1, 184800, Note_on_c, 0, 63, 0
1, 184800, Note_on_c, 0, 48, 0
1, 184800, Note_on_c, 0, 43, 0
1, 184800, Note_on_c, 0, 60, 32
1, 184800, Note_on_c, 0, 57, 32
1, 184800, Note_on_c, 0, 67, 38
1, 184800, Note_on_c, 0, 43, 30
1, 184800, Note_on_c, 0, 51, 30
1, 184800, Note_on_c, 0, 55, 36
1, 184920, Tempo, 685714
1, 184920, Note_on_c, 0, 55, 0
1, 184920, Note_on_c, 0, 57, 0
1, 184920, Note_on_c, 0, 67, 0
1, 184920, Note_on_c, 0, 60, 0
1, 184920, Note_on_c, 0, 51, 0
1, 184920, Note_on_c, 0, 43, 0
1, 184920, Note_on_c, 0, 59, 31
1, 184920, Note_on_c, 0, 62, 31
1, 184920, Note_on_c, 0, 67, 44
1, 184920, Note_on_c, 0, 43, 31
1, 184920, Note_on_c, 0, 50, 31
1, 184920, Note_on_c, 0, 55, 37
1, 185040, Note_on_c, 0, 55, 0
1, 185040, Note_on_c, 0, 62, 0
1, 185040, Note_on_c, 0, 67, 0
1, 185040, Note_on_c, 0, 59, 0
1, 185040, Note_on_c, 0, 50, 0
1, 185040, Note_on_c, 0, 43, 0
1, 185160, Tempo, 648649
1, 185160, Note_on_c, 0, 63, 30
1, 185160, Note_on_c, 0, 60, 30
1, 185160, Note_on_c, 0, 67, 36
1, 185160, Note_on_c, 0, 43, 28
1, 185160, Note_on_c, 0, 48, 28
1, 185160, Note_on_c, 0, 55, 34
1, 185280, Note_on_c, 0, 55, 0
1, 185280, Note_on_c, 0, 60, 0
1, 185280, Note_on_c, 0, 67, 0
1, 185280, Note_on_c, 0, 63, 0
1, 185280, Note_on_c, 0, 48, 0
1, 185280, Note_on_c, 0, 43, 0
1, 185280, Note_on_c, 0, 60, 29
1, 185280, Note_on_c, 0, 57, 29
1, 185280, Note_on_c, 0, 67, 35
1, 185280, Note_on_c, 0, 43, 28
1, 185280, Note_on_c, 0, 51, 28
1, 185280, Note_on_c, 0, 55, 34
1, 185400, Tempo, 701754
1, 185400, Note_on_c, 0, 55, 0
1, 185400, Note_on_c, 0, 57, 0
1, 185400, Note_on_c, 0, 67, 0
1, 185400, Note_on_c, 0, 60, 0
1, 185400, Note_on_c, 0, 51, 0
1, 185400, Note_on_c, 0, 43, 0
1, 185400, Note_on_c, 0, 62, 34
1, 185400, Note_on_c, 0, 67, 34
1, 185400, Note_on_c, 0, 59, 28
1, 185400, Note_on_c, 0, 43, 27
1, 185400, Note_on_c, 0, 50, 27
1, 185400, Note_on_c, 0, 55, 33
1, 185520, Note_on_c, 0, 55, 0
1, 185520, Note_on_c, 0, 67, 0
1, 185520, Note_on_c, 0, 59, 0
1, 185520, Note_on_c, 0, 62, 0
1, 185520, Note_on_c, 0, 50, 0
1, 185520, Note_on_c, 0, 43, 0
1, 185640, Tempo, 621891
1, 185640, Note_on_c, 0, 74, 50
1, 185640, Control_c, 0, 64, 127
1, 185640, Note_on_c, 0, 62, 38
1, 185880, Tempo, 673325
1, 186000, Note_on_c, 0, 74, 0
1, 186000, Note_on_c, 0, 72, 39
1, 186120, Note_on_c, 0, 72, 0
1, 186120, Note_on_c, 0, 62, 0
1, 186120, Note_on_c, 0, 71, 38
1, 186120, Note_on_c, 0, 62, 32
1, 186240, Tempo, 702329
1, 186240, Note_on_c, 0, 71, 0
1, 186240, Note_on_c, 0, 69, 37
1, 186360, Tempo, 680272
1, 186360, Note_on_c, 0, 69, 0
1, 186360, Note_on_c, 0, 68, 36
1, 186360, Note_on_c, 0, 54, 27
1, 186360, Note_on_c, 0, 60, 32
1, 186480, Note_on_c, 0, 68, 0
1, 186480, Note_on_c, 0, 69, 36
1, 186540, Tempo, 676743
1, 186600, Note_on_c, 0, 69, 0
1, 186600, Note_on_c, 0, 60, 0
1, 186600, Note_on_c, 0, 54, 0
1, 186600, Note_on_c, 0, 62, 0
1, 186600, Note_on_c, 0, 71, 36
1, 186600, Note_on_c, 0, 50, 24
1, 186600, Note_on_c, 0, 62, 29
1, 186700, Tempo, 673250
1, 186720, Note_on_c, 0, 71, 0
1, 186720, Note_on_c, 0, 72, 36
1, 186840, Note_on_c, 0, 72, 0
1, 186840, Note_on_c, 0, 62, 0
1, 186840, Note_on_c, 0, 50, 0
1, 186840, Note_on_c, 0, 73, 36
1, 186840, Note_on_c, 0, 55, 27
1, 186840, Note_on_c, 0, 59, 32
1, 186846, Control_c, 0, 64, 0
1, 186860, Tempo, 669718
1, 186960, Note_on_c, 0, 73, 0
1, 186960, Note_on_c, 0, 74, 36
1, 187080, Note_on_c, 0, 74, 0
1, 187080, Note_on_c, 0, 59, 0
1, 187080, Note_on_c, 0, 55, 0
1, 187080, Note_on_c, 0, 79, 40
1, 187080, Note_on_c, 0, 50, 24
1, 187080, Note_on_c, 0, 62, 28
1, 187200, Note_on_c, 0, 79, 0
1, 187200, Note_on_c, 0, 76, 36
1, 187320, Tempo, 746733
1, 187320, Note_on_c, 0, 76, 0
1, 187320, Note_on_c, 0, 62, 0
1, 187320, Note_on_c, 0, 50, 0
1, 187320, Note_on_c, 0, 73, 36
1, 187320, Note_on_c, 0, 38, 47
1, 187355, Control_c, 0, 64, 127
1, 187440, Tempo, 702329
1, 187440, Note_on_c, 0, 38, 0
1, 187440, Note_on_c, 0, 73, 0
1, 187440, Note_on_c, 0, 74, 38
1, 187500, Tempo, 698568
1, 187540, Tempo, 694847
1, 187560, Note_on_c, 0, 74, 0
1, 187560, Note_on_c, 0, 78, 40
1, 187560, Note_on_c, 0, 50, 24
1, 187560, Note_on_c, 0, 62, 28
1, 187580, Tempo, 691165
1, 187620, Tempo, 687443
1, 187660, Tempo, 683839
1, 187680, Note_on_c, 0, 78, 0
1, 187680, Note_on_c, 0, 76, 38
1, 187700, Tempo, 680272
1, 187800, Tempo, 676743
1, 187800, Note_on_c, 0, 76, 0
1, 187800, Note_on_c, 0, 62, 0
1, 187800, Note_on_c, 0, 50, 0
1, 187800, Note_on_c, 0, 74, 36
1, 187800, Note_on_c, 0, 57, 27
1, 187800, Note_on_c, 0, 60, 32
1, 187880, Tempo, 680272
1, 187920, Note_on_c, 0, 74, 0
1, 187920, Note_on_c, 0, 72, 36
1, 187960, Tempo, 683839
1, 188040, Tempo, 687443
1, 188040, Note_on_c, 0, 72, 0
1, 188040, Note_on_c, 0, 60, 0
1, 188040, Note_on_c, 0, 57, 0
1, 188040, Note_on_c, 0, 64, 36
1, 188040, Note_on_c, 0, 50, 24
1, 188040, Note_on_c, 0, 62, 28
1, 188120, Tempo, 691165
1, 188140, Tempo, 680272
1, 188160, Tempo, 702329
1, 188160, Note_on_c, 0, 64, 0
1, 188160, Note_on_c, 0, 66, 36
1, 188280, Tempo, 680272
1, 188280, Note_on_c, 0, 66, 0
1, 188280, Note_on_c, 0, 62, 0
1, 188280, Note_on_c, 0, 50, 0
1, 188280, Note_on_c, 0, 67, 32
1, 188280, Note_on_c, 0, 55, 27
1, 188280, Note_on_c, 0, 59, 32
1, 188282, Control_c, 0, 64, 0
1, 188310, Note_on_c, 0, 67, 0
1, 188310, Note_on_c, 0, 69, 32
1, 188340, Note_on_c, 0, 69, 0
1, 188340, Note_on_c, 0, 67, 36
1, 188400, Note_on_c, 0, 67, 0
1, 188400, Note_on_c, 0, 66, 36
1, 188520, Note_on_c, 0, 66, 0
1, 188520, Note_on_c, 0, 59, 0
1, 188520, Note_on_c, 0, 55, 0
1, 188520, Note_on_c, 0, 67, 35
1, 188520, Note_on_c, 0, 50, 24
1, 188520, Note_on_c, 0, 62, 29
1, 188640, Note_on_c, 0, 67, 0
1, 188640, Note_on_c, 0, 68, 36
1, 188760, Tempo, 702329
1, 188760, Note_on_c, 0, 68, 0
1, 188760, Note_on_c, 0, 62, 0
1, 188760, Note_on_c, 0, 50, 0
1, 188760, Note_on_c, 0, 69, 36
1, 188760, Note_on_c, 0, 54, 27
1, 188760, Note_on_c, 0, 57, 32
1, 188880, Tempo, 676743
1, 188880, Note_on_c, 0, 69, 0
1, 188880, Note_on_c, 0, 78, 40
1, 189000, Note_on_c, 0, 78, 0
1, 189000, Note_on_c, 0, 57, 0
1, 189000, Note_on_c, 0, 54, 0
1, 189000, Note_on_c, 0, 76, 37
1, 189000, Note_on_c, 0, 50, 24
1, 189000, Note_on_c, 0, 62, 28
1, 189120, Note_on_c, 0, 76, 0
1, 189120, Note_on_c, 0, 74, 36
1, 189240, Tempo, 706132
1, 189240, Note_on_c, 0, 74, 0
1, 189240, Note_on_c, 0, 62, 0
1, 189240, Note_on_c, 0, 50, 0
1, 189240, Note_on_c, 0, 73, 38
1, 189240, Note_on_c, 0, 55, 27
1, 189240, Note_on_c, 0, 58, 32
1, 189280, Control_c, 0, 64, 127
1, 189360, Note_on_c, 0, 73, 0
1, 189360, Note_on_c, 0, 78, 37
1, 189480, Note_on_c, 0, 78, 0
1, 189480, Note_on_c, 0, 58, 0
1, 189480, Note_on_c, 0, 55, 0
1, 189480, Note_on_c, 0, 79, 39
1, 189480, Note_on_c, 0, 50, 27
1, 189480, Note_on_c, 0, 62, 32
1, 189600, Tempo, 698568
1, 189600, Note_on_c, 0, 79, 0
1, 189600, Note_on_c, 0, 81, 40
1, 189720, Tempo, 673250
1, 189720, Note_on_c, 0, 81, 0
1, 189720, Note_on_c, 0, 84, 42
1, 189800, Tempo, 676743
1, 189840, Note_on_c, 0, 84, 0
1, 189840, Note_on_c, 0, 82, 40
1, 189860, Tempo, 680272
1, 189920, Tempo, 683839
1, 189960, Note_on_c, 0, 82, 0
1, 189960, Note_on_c, 0, 62, 0
1, 189960, Note_on_c, 0, 50, 0
1, 189960, Note_on_c, 0, 79, 38
1, 189960, Note_on_c, 0, 50, 26
1, 189960, Note_on_c, 0, 62, 31
1, 189980, Tempo, 687443
1, 190040, Tempo, 691165
1, 190080, Note_on_c, 0, 79, 0
1, 190080, Note_on_c, 0, 73, 36
1, 190100, Tempo, 694847
1, 190160, Tempo, 698568
1, 190180, Tempo, 687443
1, 190200, Note_on_c, 0, 73, 0
1, 190200, Note_on_c, 0, 62, 0
1, 190200, Note_on_c, 0, 50, 0
1, 190200, Note_on_c, 0, 74, 44
1, 190200, Note_on_c, 0, 54, 27
1, 190200, Note_on_c, 0, 57, 32
1, 190208, Control_c, 0, 64, 0
1, 190240, Tempo, 691165
1, 190380, Note_on_c, 0, 74, 0
1, 190380, Note_on_c, 0, 76, 36
1, 190440, Note_on_c, 0, 76, 0
1, 190440, Note_on_c, 0, 57, 0
1, 190440, Note_on_c, 0, 54, 0
1, 190440, Note_on_c, 0, 74, 44
1, 190440, Note_on_c, 0, 50, 24
1, 190440, Note_on_c, 0, 62, 28
1, 190520, Tempo, 694847
1, 190613, Tempo, 695008
1, 190620, Note_on_c, 0, 74, 0
1, 190620, Note_on_c, 0, 75, 36
1, 190680, Note_on_c, 0, 75, 0
1, 190680, Note_on_c, 0, 62, 0
1, 190680, Note_on_c, 0, 50, 0
1, 190680, Note_on_c, 0, 74, 44
1, 190680, Note_on_c, 0, 55, 27
1, 190680, Note_on_c, 0, 58, 32
1, 190685, Tempo, 698731
1, 190733, Tempo, 702494
1, 190781, Tempo, 706298
1, 190829, Tempo, 710143
1, 190860, Note_on_c, 0, 74, 0
1, 190860, Note_on_c, 0, 76, 36
1, 190877, Tempo, 714031
1, 190920, Note_on_c, 0, 76, 0
1, 190920, Note_on_c, 0, 58, 0
1, 190920, Note_on_c, 0, 55, 0
1, 190920, Note_on_c, 0, 74, 44
1, 190920, Note_on_c, 0, 50, 24
1, 190920, Note_on_c, 0, 62, 28
1, 190925, Tempo, 718047
1, 190997, Tempo, 722022
1, 191045, Tempo, 726041
1, 191093, Tempo, 730105
1, 191100, Note_on_c, 0, 74, 0
1, 191100, Note_on_c, 0, 75, 36
1, 191141, Tempo, 734214
1, 191160, Note_on_c, 0, 75, 0
1, 191160, Note_on_c, 0, 62, 0
1, 191160, Note_on_c, 0, 50, 0
1, 191160, Note_on_c, 0, 74, 44
1, 191160, Note_on_c, 0, 56, 27
1, 191160, Note_on_c, 0, 59, 32
1, 191189, Tempo, 738462
1, 191237, Tempo, 742666
1, 191309, Tempo, 746919
1, 191340, Note_on_c, 0, 74, 0
1, 191340, Note_on_c, 0, 76, 36
1, 191357, Tempo, 751221
1, 191400, Note_on_c, 0, 76, 0
1, 191400, Note_on_c, 0, 59, 0
1, 191400, Note_on_c, 0, 56, 0
1, 191400, Note_on_c, 0, 74, 44
1, 191400, Note_on_c, 0, 50, 24
1, 191400, Note_on_c, 0, 62, 28
1, 191405, Tempo, 755572
1, 191453, Tempo, 759975
1, 191501, Tempo, 764526
1, 191549, Tempo, 769034
1, 191580, Note_on_c, 0, 74, 0
1, 191580, Note_on_c, 0, 75, 36
1, 191600, Tempo, 709975
1, 191640, Tempo, 714031
1, 191640, Note_on_c, 0, 75, 0
1, 191640, Note_on_c, 0, 62, 0
1, 191640, Note_on_c, 0, 50, 0
1, 191640, Note_on_c, 0, 74, 40
1, 191640, Note_on_c, 0, 57, 27
1, 191640, Note_on_c, 0, 60, 29
1, 191671, Control_c, 0, 64, 127
1, 191760, Note_on_c, 0, 74, 0
1, 191760, Note_on_c, 0, 72, 39
1, 191880, Note_on_c, 0, 72, 0
1, 191880, Note_on_c, 0, 60, 0
1, 191880, Note_on_c, 0, 57, 0
1, 191880, Note_on_c, 0, 70, 38
1, 191880, Note_on_c, 0, 50, 24
1, 191880, Note_on_c, 0, 62, 32
1, 192000, Tempo, 702329
1, 192000, Note_on_c, 0, 70, 0
1, 192000, Note_on_c, 0, 69, 36
1, 192120, Tempo, 680272
1, 192120, Note_on_c, 0, 69, 0
1, 192120, Note_on_c, 0, 68, 36
1, 192240, Note_on_c, 0, 68, 0
1, 192240, Note_on_c, 0, 69, 36
1, 192300, Tempo, 676743
1, 192360, Note_on_c, 0, 69, 0
1, 192360, Note_on_c, 0, 62, 0
1, 192360, Note_on_c, 0, 50, 0
1, 192360, Note_on_c, 0, 70, 36
1, 192360, Note_on_c, 0, 50, 24
1, 192360, Note_on_c, 0, 62, 29
1, 192460, Tempo, 673250
1, 192480, Note_on_c, 0, 70, 0
1, 192480, Note_on_c, 0, 72, 36
1, 192600, Note_on_c, 0, 72, 0
1, 192600, Note_on_c, 0, 62, 0
1, 192600, Note_on_c, 0, 50, 0
1, 192600, Note_on_c, 0, 73, 36
1, 192600, Note_on_c, 0, 55, 27
1, 192600, Note_on_c, 0, 58, 32
1, 192611, Control_c, 0, 64, 0
1, 192620, Tempo, 669718
1, 192720, Tempo, 718047
1, 192720, Note_on_c, 0, 73, 0
1, 192720, Note_on_c, 0, 74, 39
1, 192840, Tempo, 687600
1, 192840, Note_on_c, 0, 74, 0
1, 192840, Note_on_c, 0, 58, 0
1, 192840, Note_on_c, 0, 55, 0
1, 192840, Note_on_c, 0, 79, 47
1, 192840, Note_on_c, 0, 50, 24
1, 192840, Note_on_c, 0, 62, 28
1, 192900, Note_on_c, 0, 79, 0
1, 192960, Note_on_c, 0, 78, 40
1, 193020, Note_on_c, 0, 78, 0
1, 193080, Tempo, 759878
1, 193080, Note_on_c, 0, 62, 0
1, 193080, Note_on_c, 0, 50, 0
1, 193080, Note_on_c, 0, 77, 47
1, 193080, Note_on_c, 0, 38, 47
1, 193120, Control_c, 0, 64, 127
1, 193140, Note_on_c, 0, 77, 0
1, 193200, Tempo, 702329
1, 193200, Note_on_c, 0, 38, 0
1, 193200, Note_on_c, 0, 76, 40
1, 193240, Tempo, 698568
1, 193260, Note_on_c, 0, 76, 0
1, 193280, Tempo, 694847
1, 193320, Tempo, 691165
1, 193320, Note_on_c, 0, 75, 39
1, 193320, Note_on_c, 0, 50, 24
1, 193320, Note_on_c, 0, 62, 28
1, 193360, Tempo, 687443
1, 193380, Note_on_c, 0, 75, 0
1, 193400, Tempo, 683839
1, 193440, Tempo, 680272
1, 193440, Note_on_c, 0, 74, 38
1, 193500, Note_on_c, 0, 74, 0
1, 193560, Note_on_c, 0, 62, 0
1, 193560, Note_on_c, 0, 50, 0
1, 193560, Note_on_c, 0, 73, 36
1, 193560, Note_on_c, 0, 54, 27
1, 193560, Note_on_c, 0, 60, 32
1, 193640, Tempo, 676743
1, 193680, Note_on_c, 0, 73, 0
1, 193680, Note_on_c, 0, 72, 36
1, 193760, Tempo, 680272
1, 193800, Note_on_c, 0, 72, 0
1, 193800, Note_on_c, 0, 60, 0
1, 193800, Note_on_c, 0, 54, 0
1, 193800, Note_on_c, 0, 69, 36
1, 193800, Note_on_c, 0, 50, 24
1, 193800, Note_on_c, 0, 62, 28
1, 193880, Tempo, 683839
1, 193900, Tempo, 680272
1, 193920, Tempo, 702329
1, 193920, Note_on_c, 0, 69, 0
1, 193920, Note_on_c, 0, 70, 36
1, 194040, Tempo, 680272
1, 194040, Note_on_c, 0, 70, 0
1, 194040, Note_on_c, 0, 62, 0
1, 194040, Note_on_c, 0, 50, 0
1, 194040, Note_on_c, 0, 67, 32
1, 194040, Note_on_c, 0, 55, 27
1, 194040, Note_on_c, 0, 58, 32
1, 194042, Control_c, 0, 64, 0
1, 194070, Note_on_c, 0, 67, 0
1, 194070, Note_on_c, 0, 69, 32
1, 194100, Note_on_c, 0, 69, 0
1, 194100, Note_on_c, 0, 67, 36
1, 194160, Note_on_c, 0, 67, 0
1, 194160, Note_on_c, 0, 66, 41
1, 194280, Note_on_c, 0, 66, 0
1, 194280, Note_on_c, 0, 58, 0
1, 194280, Note_on_c, 0, 55, 0
1, 194280, Note_on_c, 0, 67, 35
1, 194280, Note_on_c, 0, 50, 24
1, 194280, Note_on_c, 0, 62, 29
1, 194400, Note_on_c, 0, 67, 0
1, 194400, Note_on_c, 0, 69, 40
1, 194520, Tempo, 742482
1, 194520, Note_on_c, 0, 69, 0
1, 194520, Note_on_c, 0, 62, 0
1, 194520, Note_on_c, 0, 50, 0
1, 194520, Note_on_c, 0, 70, 50
1, 194520, Note_on_c, 0, 55, 34
1, 194520, Note_on_c, 0, 58, 40
1, 194617, Control_c, 0, 64, 127
1, 194640, Tempo, 709975
1, 194640, Note_on_c, 0, 70, 0
1, 194640, Note_on_c, 0, 82, 54
1, 194760, Note_on_c, 0, 82, 0
1, 194760, Note_on_c, 0, 58, 0
1, 194760, Note_on_c, 0, 55, 0
1, 194760, Note_on_c, 0, 81, 51
1, 194760, Note_on_c, 0, 50, 30
1, 194760, Note_on_c, 0, 63, 36
1, 194880, Note_on_c, 0, 81, 0
1, 194880, Note_on_c, 0, 79, 49
1, 195000, Tempo, 698568
1, 195000, Note_on_c, 0, 79, 0
1, 195000, Note_on_c, 0, 81, 56
1, 195120, Note_on_c, 0, 81, 0
1, 195120, Note_on_c, 0, 79, 55
1, 195240, Note_on_c, 0, 79, 0
1, 195240, Note_on_c, 0, 63, 0
1, 195240, Note_on_c, 0, 50, 0
1, 195240, Note_on_c, 0, 77, 53
1, 195240, Note_on_c, 0, 50, 34
1, 195240, Note_on_c, 0, 63, 40
1, 195360, Tempo, 698568
1, 195360, Note_on_c, 0, 77, 0
1, 195360, Note_on_c, 0, 75, 51
1, 195480, Tempo, 673250
1, 195480, Note_on_c, 0, 75, 0
1, 195480, Note_on_c, 0, 63, 0
1, 195480, Note_on_c, 0, 50, 0
1, 195480, Note_on_c, 0, 77, 53
1, 195480, Note_on_c, 0, 55, 33
1, 195480, Note_on_c, 0, 58, 39
1, 195500, Tempo, 683839
1, 195560, Tempo, 687443
1, 195600, Note_on_c, 0, 77, 0
1, 195600, Note_on_c, 0, 75, 51
1, 195620, Tempo, 691165
1, 195660, Tempo, 694847
1, 195720, Tempo, 698568
1, 195720, Note_on_c, 0, 75, 0
1, 195720, Note_on_c, 0, 58, 0
1, 195720, Note_on_c, 0, 55, 0
1, 195720, Note_on_c, 0, 70, 48
1, 195720, Note_on_c, 0, 50, 33
1, 195720, Note_on_c, 0, 63, 39
1, 195780, Tempo, 702329
1, 195820, Tempo, 706132
1, 195840, Note_on_c, 0, 70, 0
1, 195840, Note_on_c, 0, 72, 45
1, 195880, Tempo, 709975
1, 195920, Tempo, 713946
1, 195940, Tempo, 687443
1, 195960, Tempo, 734125
1, 195960, Note_on_c, 0, 72, 0
1, 195960, Note_on_c, 0, 63, 0
1, 195960, Note_on_c, 0, 50, 0
1, 195960, Note_on_c, 0, 74, 46
1, 195960, Control_c, 0, 64, 0
1, 195960, Note_on_c, 0, 54, 29
1, 195960, Note_on_c, 0, 57, 29
1, 195960, Note_on_c, 0, 62, 35
1, 195997, Control_c, 0, 64, 127
1, 196000, Tempo, 729927
1, 196020, Note_on_c, 0, 74, 0
1, 196020, Note_on_c, 0, 75, 43
1, 196040, Tempo, 725865
1, 196080, Tempo, 721848
1, 196080, Note_on_c, 0, 75, 0
1, 196080, Note_on_c, 0, 74, 46
1, 196120, Tempo, 717875
1, 196140, Note_on_c, 0, 74, 0
1, 196140, Note_on_c, 0, 75, 44
1, 196160, Tempo, 709975
1, 196200, Note_on_c, 0, 75, 0
1, 196200, Note_on_c, 0, 62, 0
1, 196200, Note_on_c, 0, 57, 0
1, 196200, Note_on_c, 0, 54, 0
1, 196200, Note_on_c, 0, 74, 46
1, 196200, Note_on_c, 0, 50, 36
1, 196260, Note_on_c, 0, 74, 0
1, 196260, Note_on_c, 0, 75, 46
1, 196300, Tempo, 706132
1, 196320, Note_on_c, 0, 75, 0
1, 196320, Note_on_c, 0, 74, 47
1, 196360, Note_on_c, 0, 74, 0
1, 196360, Note_on_c, 0, 73, 46
1, 196400, Note_on_c, 0, 73, 0
1, 196400, Note_on_c, 0, 74, 46
1, 196440, Tempo, 702329
1, 196440, Note_on_c, 0, 74, 0
1, 196440, Note_on_c, 0, 50, 0
1, 196440, Note_on_c, 0, 75, 50
1, 196440, Note_on_c, 0, 55, 32
1, 196440, Note_on_c, 0, 58, 32
1, 196440, Note_on_c, 0, 63, 38
1, 196443, Control_c, 0, 64, 0
1, 196477, Control_c, 0, 64, 127
1, 196500, Tempo, 698568
1, 196500, Note_on_c, 0, 75, 0
1, 196500, Note_on_c, 0, 77, 47
1, 196560, Tempo, 694847
1, 196560, Note_on_c, 0, 77, 0
1, 196560, Note_on_c, 0, 75, 51
1, 196620, Tempo, 691165
1, 196620, Note_on_c, 0, 75, 0
1, 196620, Note_on_c, 0, 77, 47
1, 196660, Tempo, 687443
1, 196680, Note_on_c, 0, 77, 0
1, 196680, Note_on_c, 0, 63, 0
1, 196680, Note_on_c, 0, 58, 0
1, 196680, Note_on_c, 0, 55, 0
1, 196680, Note_on_c, 0, 75, 52
1, 196680, Note_on_c, 0, 49, 40
1, 196740, Note_on_c, 0, 75, 0
1, 196740, Note_on_c, 0, 77, 49
1, 196800, Note_on_c, 0, 77, 0
1, 196800, Note_on_c, 0, 75, 54
1, 196840, Note_on_c, 0, 75, 0
1, 196840, Note_on_c, 0, 74, 51
1, 196880, Tempo, 691165
1, 196880, Note_on_c, 0, 74, 0
1, 196880, Note_on_c, 0, 75, 51
1, 196899, Tempo, 687600
1, 196920, Note_on_c, 0, 75, 0
1, 196920, Note_on_c, 0, 49, 0
1, 196920, Note_on_c, 0, 76, 58
1, 196920, Note_on_c, 0, 55, 36
1, 196920, Note_on_c, 0, 58, 36
1, 196920, Note_on_c, 0, 64, 42
1, 196926, Control_c, 0, 64, 0
1, 196944, Control_c, 0, 64, 127
1, 196980, Note_on_c, 0, 76, 0
1, 196980, Note_on_c, 0, 77, 52
1, 197040, Note_on_c, 0, 77, 0
1, 197040, Note_on_c, 0, 76, 56
1, 197100, Tempo, 687443
1, 197100, Note_on_c, 0, 76, 0
1, 197100, Note_on_c, 0, 77, 53
1, 197160, Tempo, 691165
1, 197160, Note_on_c, 0, 77, 0
1, 197160, Note_on_c, 0, 64, 0
1, 197160, Note_on_c, 0, 58, 0
1, 197160, Note_on_c, 0, 55, 0
1, 197160, Note_on_c, 0, 76, 60
1, 197160, Note_on_c, 0, 48, 43
1, 197180, Tempo, 691165
1, 197200, Tempo, 706132
1, 197220, Tempo, 721848
1, 197220, Note_on_c, 0, 76, 0
1, 197220, Note_on_c, 0, 77, 55
1, 197240, Tempo, 738280
1, 197260, Tempo, 755382
1, 197280, Tempo, 773395
1, 197280, Note_on_c, 0, 77, 0
1, 197280, Note_on_c, 0, 76, 61
1, 197300, Tempo, 792288
1, 197320, Tempo, 812128
1, 197320, Note_on_c, 0, 76, 0
1, 197320, Note_on_c, 0, 75, 57
1, 197340, Tempo, 832871
1, 197360, Tempo, 860462
1, 197360, Note_on_c, 0, 75, 0
1, 197360, Note_on_c, 0, 76, 57
1, 197380, Tempo, 702329
1, 197400, Tempo, 702329
1, 197400, Note_on_c, 0, 76, 0
1, 197400, Note_on_c, 0, 48, 0
1, 197400, Note_on_c, 0, 77, 64
1, 197400, Note_on_c, 0, 41, 52
1, 197409, Control_c, 0, 64, 0
1, 197454, Control_c, 0, 64, 127
1, 197520, Note_on_c, 0, 41, 0
1, 197520, Note_on_c, 0, 77, 0
1, 197520, Note_on_c, 0, 75, 51
1, 197640, Note_on_c, 0, 75, 0
1, 197640, Note_on_c, 0, 73, 51
1, 197640, Note_on_c, 0, 53, 34
1, 197640, Note_on_c, 0, 65, 44
1, 197760, Tempo, 702329
1, 197760, Note_on_c, 0, 73, 0
1, 197760, Note_on_c, 0, 72, 54
1, 197880, Tempo, 680272
1, 197880, Note_on_c, 0, 72, 0
1, 197880, Note_on_c, 0, 71, 45
1, 198000, Note_on_c, 0, 71, 0
1, 198000, Note_on_c, 0, 72, 48
1, 198060, Tempo, 676743
1, 198120, Note_on_c, 0, 72, 0
1, 198120, Note_on_c, 0, 65, 0
1, 198120, Note_on_c, 0, 53, 0
1, 198120, Note_on_c, 0, 73, 45
1, 198120, Note_on_c, 0, 53, 34
1, 198120, Note_on_c, 0, 65, 40
1, 198220, Tempo, 673250
1, 198240, Tempo, 759975
1, 198240, Note_on_c, 0, 73, 0
1, 198240, Note_on_c, 0, 75, 46
1, 198360, Tempo, 702494
1, 198360, Note_on_c, 0, 75, 0
1, 198360, Note_on_c, 0, 65, 0
1, 198360, Note_on_c, 0, 53, 0
1, 198360, Note_on_c, 0, 76, 54
1, 198360, Note_on_c, 0, 58, 37
1, 198360, Note_on_c, 0, 61, 44
1, 198368, Control_c, 0, 64, 0
1, 198480, Tempo, 718047
1, 198480, Note_on_c, 0, 76, 0
1, 198480, Note_on_c, 0, 77, 49
1, 198600, Tempo, 687600
1, 198600, Note_on_c, 0, 77, 0
1, 198600, Note_on_c, 0, 61, 0
1, 198600, Note_on_c, 0, 58, 0
1, 198600, Note_on_c, 0, 82, 59
1, 198600, Note_on_c, 0, 53, 33
1, 198600, Note_on_c, 0, 65, 39
1, 198720, Note_on_c, 0, 82, 0
1, 198720, Note_on_c, 0, 81, 55
1, 198840, Tempo, 759878
1, 198840, Note_on_c, 0, 81, 0
1, 198840, Note_on_c, 0, 65, 0
1, 198840, Note_on_c, 0, 53, 0
1, 198840, Note_on_c, 0, 80, 59
1, 198840, Note_on_c, 0, 29, 56
1, 198881, Control_c, 0, 64, 127
1, 198960, Tempo, 702329
1, 198960, Note_on_c, 0, 29, 0
1, 198960, Note_on_c, 0, 80, 0
1, 198960, Note_on_c, 0, 79, 48
1, 199000, Tempo, 698568
1, 199040, Tempo, 694847
1, 199080, Tempo, 691165
1, 199080, Note_on_c, 0, 79, 0
1, 199080, Note_on_c, 0, 78, 51
1, 199080, Note_on_c, 0, 53, 33
1, 199080, Note_on_c, 0, 65, 39
1, 199120, Tempo, 687443
1, 199160, Tempo, 683839
1, 199200, Tempo, 680272
1, 199200, Note_on_c, 0, 78, 0
1, 199200, Note_on_c, 0, 77, 54
1, 199320, Note_on_c, 0, 77, 0
1, 199320, Note_on_c, 0, 65, 0
1, 199320, Note_on_c, 0, 53, 0
1, 199320, Note_on_c, 0, 76, 50
1, 199320, Note_on_c, 0, 57, 37
1, 199320, Note_on_c, 0, 63, 44
1, 199400, Tempo, 676743
1, 199440, Note_on_c, 0, 76, 0
1, 199440, Note_on_c, 0, 75, 47
1, 199520, Tempo, 680272
1, 199560, Note_on_c, 0, 75, 0
1, 199560, Note_on_c, 0, 63, 0
1, 199560, Note_on_c, 0, 57, 0
1, 199560, Note_on_c, 0, 73, 51
1, 199560, Note_on_c, 0, 53, 33
1, 199560, Note_on_c, 0, 65, 39
1, 199640, Tempo, 683839
1, 199660, Tempo, 680272
1, 199680, Tempo, 702329
1, 199680, Note_on_c, 0, 73, 0
1, 199680, Note_on_c, 0, 72, 49
1, 199800, Tempo, 680272
1, 199800, Note_on_c, 0, 72, 0
1, 199800, Note_on_c, 0, 65, 0
1, 199800, Note_on_c, 0, 53, 0
1, 199800, Note_on_c, 0, 70, 41
1, 199800, Note_on_c, 0, 58, 37
1, 199800, Note_on_c, 0, 61, 44
1, 199802, Control_c, 0, 64, 0
1, 199830, Note_on_c, 0, 70, 0
1, 199830, Note_on_c, 0, 72, 41
1, 199860, Note_on_c, 0, 72, 0
1, 199860, Note_on_c, 0, 70, 50
1, 199920, Note_on_c, 0, 70, 0
1, 199920, Note_on_c, 0, 69, 45
1, 200040, Note_on_c, 0, 69, 0
1, 200040, Note_on_c, 0, 61, 0
1, 200040, Note_on_c, 0, 58, 0
1, 200040, Note_on_c, 0, 70, 50
1, 200040, Note_on_c, 0, 53, 34
1, 200040, Note_on_c, 0, 65, 40
1, 200160, Note_on_c, 0, 70, 0
1, 200160, Note_on_c, 0, 72, 45
1, 200280, Tempo, 742482
1, 200280, Note_on_c, 0, 72, 0
1, 200280, Note_on_c, 0, 65, 0
1, 200280, Note_on_c, 0, 53, 0
1, 200280, Note_on_c, 0, 73, 49
1, 200280, Note_on_c, 0, 58, 37
1, 200280, Note_on_c, 0, 61, 44
1, 200377, Control_c, 0, 64, 127
1, 200400, Tempo, 709975
1, 200400, Note_on_c, 0, 73, 0
1, 200400, Note_on_c, 0, 85, 57
1, 200520, Note_on_c, 0, 85, 0
1, 200520, Note_on_c, 0, 61, 0
1, 200520, Note_on_c, 0, 58, 0
1, 200520, Note_on_c, 0, 84, 53
1, 200520, Note_on_c, 0, 53, 33
1, 200520, Note_on_c, 0, 66, 39
1, 200640, Note_on_c, 0, 84, 0
1, 200640, Note_on_c, 0, 82, 51
1, 200760, Tempo, 698568
1, 200760, Note_on_c, 0, 82, 0
1, 200760, Note_on_c, 0, 84, 56
1, 200880, Note_on_c, 0, 84, 0
1, 200880, Note_on_c, 0, 82, 55
1, 201000, Note_on_c, 0, 82, 0
1, 201000, Note_on_c, 0, 66, 0
1, 201000, Note_on_c, 0, 53, 0
1, 201000, Note_on_c, 0, 80, 53
1, 201000, Note_on_c, 0, 53, 37
1, 201000, Note_on_c, 0, 66, 44
1, 201120, Tempo, 698568
1, 201120, Note_on_c, 0, 80, 0
1, 201120, Note_on_c, 0, 78, 51
1, 201240, Tempo, 673250
1, 201240, Note_on_c, 0, 78, 0
1, 201240, Note_on_c, 0, 66, 0
1, 201240, Note_on_c, 0, 53, 0
1, 201240, Note_on_c, 0, 80, 53
1, 201240, Note_on_c, 0, 58, 36
1, 201240, Note_on_c, 0, 61, 42
1, 201260, Tempo, 683839
1, 201320, Tempo, 687443
1, 201360, Note_on_c, 0, 80, 0
1, 201360, Note_on_c, 0, 78, 51
1, 201380, Tempo, 691165
1, 201420, Tempo, 694847
1, 201480, Tempo, 698568
1, 201480, Note_on_c, 0, 78, 0
1, 201480, Note_on_c, 0, 61, 0
1, 201480, Note_on_c, 0, 58, 0
1, 201480, Note_on_c, 0, 73, 48
1, 201480, Note_on_c, 0, 53, 36
1, 201480, Note_on_c, 0, 66, 42
1, 201540, Tempo, 702329
1, 201580, Tempo, 706132
1, 201600, Note_on_c, 0, 73, 0
1, 201600, Note_on_c, 0, 75, 45
1, 201640, Tempo, 709975
1, 201680, Tempo, 713946
1, 201700, Tempo, 687443
1, 201720, Tempo, 734125
1, 201720, Note_on_c, 0, 75, 0
1, 201720, Note_on_c, 0, 66, 0
1, 201720, Note_on_c, 0, 53, 0
1, 201720, Note_on_c, 0, 77, 46
1, 201720, Control_c, 0, 64, 0
1, 201720, Note_on_c, 0, 57, 31
1, 201720, Note_on_c, 0, 60, 38
1, 201757, Control_c, 0, 64, 127
1, 201760, Tempo, 729927
1, 201800, Tempo, 725865
1, 201800, Note_on_c, 0, 77, 0
1, 201800, Note_on_c, 0, 78, 44
1, 201840, Tempo, 721848
1, 201880, Tempo, 717875
1, 201880, Note_on_c, 0, 78, 0
1, 201880, Note_on_c, 0, 77, 43
1, 201920, Tempo, 709975
1, 201960, Note_on_c, 0, 77, 0
1, 201960, Note_on_c, 0, 60, 0
1, 201960, Note_on_c, 0, 57, 0
1, 201960, Note_on_c, 0, 76, 45
1, 201960, Note_on_c, 0, 53, 33
1, 201960, Note_on_c, 0, 65, 38
1, 202040, Note_on_c, 0, 76, 0
1, 202040, Note_on_c, 0, 77, 42
1, 202060, Tempo, 706132
1, 202120, Note_on_c, 0, 77, 0
1, 202120, Note_on_c, 0, 78, 43
1, 202200, Tempo, 702329
1, 202200, Note_on_c, 0, 78, 0
1, 202200, Note_on_c, 0, 65, 0
1, 202200, Note_on_c, 0, 53, 0
1, 202200, Note_on_c, 0, 77, 43
1, 202200, Note_on_c, 0, 58, 32
1, 202200, Note_on_c, 0, 61, 38
1, 202206, Control_c, 0, 64, 0
1, 202237, Control_c, 0, 64, 127
1, 202260, Tempo, 698568
1, 202280, Note_on_c, 0, 77, 0
1, 202280, Note_on_c, 0, 78, 43
1, 202320, Tempo, 694847
1, 202360, Note_on_c, 0, 78, 0
1, 202360, Note_on_c, 0, 77, 41
1, 202380, Tempo, 691165
1, 202420, Tempo, 687443
1, 202440, Note_on_c, 0, 77, 0
1, 202440, Note_on_c, 0, 61, 0
1, 202440, Note_on_c, 0, 58, 0
1, 202440, Note_on_c, 0, 76, 43
1, 202440, Note_on_c, 0, 53, 31
1, 202440, Note_on_c, 0, 65, 38
1, 202520, Note_on_c, 0, 76, 0
1, 202520, Note_on_c, 0, 77, 40
1, 202600, Note_on_c, 0, 77, 0
1, 202600, Note_on_c, 0, 78, 40
1, 202612, Tempo, 683839
1, 202660, Tempo, 694847
1, 202680, Note_on_c, 0, 78, 0
1, 202680, Note_on_c, 0, 65, 0
1, 202680, Note_on_c, 0, 53, 0
1, 202680, Note_on_c, 0, 77, 42
1, 202680, Note_on_c, 0, 59, 32
1, 202680, Note_on_c, 0, 62, 37
1, 202686, Control_c, 0, 64, 0
1, 202708, Tempo, 698568
1, 202723, Control_c, 0, 64, 127
1, 202732, Tempo, 702329
1, 202760, Note_on_c, 0, 77, 0
1, 202760, Note_on_c, 0, 78, 39
1, 202780, Tempo, 706132
1, 202804, Tempo, 709975
1, 202840, Note_on_c, 0, 78, 0
1, 202840, Note_on_c, 0, 77, 38
1, 202852, Tempo, 713946
1, 202876, Tempo, 717875
1, 202920, Note_on_c, 0, 77, 0
1, 202920, Note_on_c, 0, 62, 0
1, 202920, Note_on_c, 0, 59, 0
1, 202920, Note_on_c, 0, 76, 41
1, 202920, Note_on_c, 0, 53, 29
1, 202920, Note_on_c, 0, 65, 36
1, 202924, Tempo, 721848
1, 202948, Tempo, 725865
1, 202972, Tempo, 729927
1, 202996, Tempo, 746733
1, 203000, Note_on_c, 0, 76, 0
1, 203000, Note_on_c, 0, 77, 39
1, 203020, Tempo, 782677
1, 203044, Tempo, 822368
1, 203068, Tempo, 872093
1, 203080, Note_on_c, 0, 77, 0
1, 203080, Note_on_c, 0, 78, 38
1, 203092, Tempo, 921517
1, 203116, Tempo, 976880
1, 203140, Tempo, 1047852
1, 203160, Note_on_c, 0, 78, 0
1, 203160, Note_on_c, 0, 65, 0
1, 203160, Note_on_c, 0, 53, 0
1, 203160, Note_on_c, 0, 77, 43
1, 203160, Note_on_c, 0, 60, 28
1, 203160, Note_on_c, 0, 63, 31
1, 203164, Tempo, 725865
1, 203169, Control_c, 0, 64, 0
1, 203212, Tempo, 721848
1, 203214, Control_c, 0, 64, 127
1, 203260, Tempo, 717875
1, 203280, Note_on_c, 0, 77, 0
1, 203280, Note_on_c, 0, 75, 41
1, 203308, Tempo, 713946
1, 203356, Tempo, 709975
1, 203400, Note_on_c, 0, 75, 0
1, 203400, Note_on_c, 0, 63, 0
1, 203400, Note_on_c, 0, 60, 0
1, 203400, Note_on_c, 0, 73, 40
1, 203400, Note_on_c, 0, 53, 26
1, 203400, Note_on_c, 0, 65, 34
1, 203404, Tempo, 706132
1, 203476, Tempo, 709975
1, 203520, Note_on_c, 0, 73, 0
1, 203520, Note_on_c, 0, 72, 39
1, 203524, Tempo, 713946
1, 203596, Tempo, 687443
1, 203640, Note_on_c, 0, 72, 0
1, 203640, Note_on_c, 0, 71, 38
1, 203760, Note_on_c, 0, 71, 0
1, 203760, Note_on_c, 0, 72, 38
1, 203836, Tempo, 683839
1, 203880, Note_on_c, 0, 72, 0
1, 203880, Note_on_c, 0, 65, 0
1, 203880, Note_on_c, 0, 53, 0
1, 203880, Note_on_c, 0, 73, 38
1, 203880, Note_on_c, 0, 53, 26
1, 203880, Note_on_c, 0, 65, 31
1, 204000, Tempo, 751221
1, 204000, Note_on_c, 0, 73, 0
1, 204000, Note_on_c, 0, 75, 39
1, 204120, Tempo, 698731
1, 204120, Note_on_c, 0, 75, 0
1, 204120, Note_on_c, 0, 65, 0
1, 204120, Note_on_c, 0, 53, 0
1, 204120, Note_on_c, 0, 76, 39
1, 204120, Note_on_c, 0, 58, 28
1, 204120, Note_on_c, 0, 61, 34
1, 204126, Control_c, 0, 64, 0
1, 204240, Note_on_c, 0, 76, 0
1, 204240, Note_on_c, 0, 77, 39
1, 204268, Tempo, 676743
1, 204360, Tempo, 691165
1, 204360, Note_on_c, 0, 77, 0
1, 204360, Note_on_c, 0, 61, 0
1, 204360, Note_on_c, 0, 58, 0
1, 204360, Note_on_c, 0, 82, 43
1, 204360, Note_on_c, 0, 53, 25
1, 204360, Note_on_c, 0, 65, 30
1, 204420, Note_on_c, 0, 82, 0
1, 204480, Tempo, 827815
1, 204540, Note_on_c, 0, 81, 42
1, 204600, Tempo, 759878
1, 204600, Note_on_c, 0, 81, 0
1, 204600, Note_on_c, 0, 65, 0
1, 204600, Note_on_c, 0, 53, 0
1, 204600, Note_on_c, 0, 80, 49
1, 204600, Note_on_c, 0, 29, 43
1, 204635, Control_c, 0, 64, 127
1, 204660, Note_on_c, 0, 80, 0
1, 204675, Tempo, 710143
1, 204720, Note_on_c, 0, 29, 0
1, 204720, Note_on_c, 0, 79, 43
1, 204747, Tempo, 706298
1, 204780, Note_on_c, 0, 79, 0
1, 204795, Tempo, 702494
1, 204840, Note_on_c, 0, 78, 41
1, 204840, Note_on_c, 0, 53, 25
1, 204840, Note_on_c, 0, 65, 30
1, 204843, Tempo, 698731
1, 204900, Note_on_c, 0, 78, 0
1, 204915, Tempo, 695008
1, 204960, Note_on_c, 0, 77, 40
1, 204963, Tempo, 691244
1, 205011, Tempo, 687600
1, 205020, Note_on_c, 0, 77, 0
1, 205059, Tempo, 683995
1, 205080, Note_on_c, 0, 65, 0
1, 205080, Note_on_c, 0, 53, 0
1, 205080, Note_on_c, 0, 76, 39
1, 205080, Note_on_c, 0, 57, 28
1, 205080, Note_on_c, 0, 63, 34
1, 205083, Tempo, 683995
1, 205200, Note_on_c, 0, 76, 0
1, 205200, Note_on_c, 0, 75, 39
1, 205227, Tempo, 680426
1, 205320, Note_on_c, 0, 75, 0
1, 205320, Note_on_c, 0, 63, 0
1, 205320, Note_on_c, 0, 57, 0
1, 205320, Note_on_c, 0, 72, 38
1, 205320, Note_on_c, 0, 53, 25
1, 205320, Note_on_c, 0, 65, 30
1, 205347, Tempo, 676895
1, 205400, Tempo, 683839
1, 205420, Tempo, 680272
1, 205440, Tempo, 702329
1, 205440, Note_on_c, 0, 72, 0
1, 205440, Note_on_c, 0, 73, 38
1, 205560, Tempo, 680272
1, 205560, Note_on_c, 0, 73, 0
1, 205560, Note_on_c, 0, 65, 0
1, 205560, Note_on_c, 0, 53, 0
1, 205560, Note_on_c, 0, 70, 34
1, 205560, Note_on_c, 0, 58, 28
1, 205560, Note_on_c, 0, 61, 34
1, 205562, Control_c, 0, 64, 0
1, 205590, Note_on_c, 0, 70, 0
1, 205590, Note_on_c, 0, 72, 34
1, 205620, Note_on_c, 0, 72, 0
1, 205620, Note_on_c, 0, 70, 38
1, 205680, Note_on_c, 0, 70, 0
1, 205680, Note_on_c, 0, 69, 38
1, 205800, Note_on_c, 0, 69, 0
1, 205800, Note_on_c, 0, 61, 0
1, 205800, Note_on_c, 0, 58, 0
1, 205800, Note_on_c, 0, 70, 37
1, 205800, Note_on_c, 0, 53, 26
1, 205800, Note_on_c, 0, 65, 31
1, 205920, Note_on_c, 0, 70, 0
1, 205920, Note_on_c, 0, 73, 38
1, 206040, Tempo, 687443
1, 206040, Note_on_c, 0, 73, 0
1, 206040, Note_on_c, 0, 65, 0
1, 206040, Note_on_c, 0, 53, 0
1, 206040, Note_on_c, 0, 72, 47
1, 206040, Note_on_c, 0, 41, 51
1, 206049, Control_c, 0, 64, 0
1, 206094, Control_c, 0, 64, 127
1, 206160, Note_on_c, 0, 41, 0
1, 206160, Note_on_c, 0, 72, 0
1, 206160, Note_on_c, 0, 70, 41
1, 206280, Note_on_c, 0, 70, 0
1, 206280, Note_on_c, 0, 68, 40
1, 206280, Note_on_c, 0, 48, 26
1, 206280, Note_on_c, 0, 60, 34
1, 206400, Note_on_c, 0, 68, 0
1, 206400, Note_on_c, 0, 67, 39
1, 206520, Tempo, 680272
1, 206520, Note_on_c, 0, 67, 0
1, 206520, Note_on_c, 0, 66, 38
1, 206640, Note_on_c, 0, 66, 0
1, 206640, Note_on_c, 0, 67, 38
1, 206700, Tempo, 676743
1, 206760, Note_on_c, 0, 67, 0
1, 206760, Note_on_c, 0, 60, 0
1, 206760, Note_on_c, 0, 48, 0
1, 206760, Note_on_c, 0, 68, 38
1, 206760, Note_on_c, 0, 48, 26
1, 206760, Note_on_c, 0, 60, 31
1, 206860, Tempo, 673250
1, 206880, Tempo, 755572
1, 206880, Note_on_c, 0, 68, 0
1, 206880, Note_on_c, 0, 70, 39
1, 207000, Tempo, 691244
1, 207000, Note_on_c, 0, 70, 0
1, 207000, Note_on_c, 0, 60, 0
1, 207000, Note_on_c, 0, 48, 0
1, 207000, Note_on_c, 0, 71, 39
1, 207000, Note_on_c, 0, 53, 28
1, 207000, Note_on_c, 0, 56, 34
1, 207006, Control_c, 0, 64, 0
1, 207120, Tempo, 718047
1, 207120, Note_on_c, 0, 71, 0
1, 207120, Note_on_c, 0, 72, 47
1, 207240, Tempo, 669867
1, 207240, Note_on_c, 0, 72, 0
1, 207240, Note_on_c, 0, 56, 0
1, 207240, Note_on_c, 0, 53, 0
1, 207240, Note_on_c, 0, 77, 43
1, 207240, Note_on_c, 0, 48, 25
1, 207240, Note_on_c, 0, 60, 30
1, 207360, Note_on_c, 0, 77, 0
1, 207360, Note_on_c, 0, 73, 42
1, 207480, Tempo, 691165
1, 207480, Note_on_c, 0, 73, 0
1, 207480, Note_on_c, 0, 60, 0
1, 207480, Note_on_c, 0, 48, 0
1, 207480, Note_on_c, 0, 72, 47
1, 207480, Note_on_c, 0, 39, 47
1, 207489, Control_c, 0, 64, 0
1, 207534, Control_c, 0, 64, 127
1, 207600, Note_on_c, 0, 39, 0
1, 207600, Note_on_c, 0, 72, 0
1, 207600, Note_on_c, 0, 70, 41
1, 207720, Note_on_c, 0, 70, 0
1, 207720, Note_on_c, 0, 68, 40
1, 207720, Note_on_c, 0, 48, 26
1, 207720, Note_on_c, 0, 60, 34
1, 207840, Tempo, 702329
1, 207840, Note_on_c, 0, 68, 0
1, 207840, Note_on_c, 0, 67, 39
1, 207960, Tempo, 694847
1, 207960, Note_on_c, 0, 67, 0
1, 207960, Note_on_c, 0, 66, 38
1, 208080, Tempo, 713946
1, 208080, Note_on_c, 0, 66, 0
1, 208080, Note_on_c, 0, 67, 45
1, 208200, Tempo, 676743
1, 208200, Note_on_c, 0, 67, 0
1, 208200, Note_on_c, 0, 60, 0
1, 208200, Note_on_c, 0, 48, 0
1, 208200, Note_on_c, 0, 72, 47
1, 208200, Note_on_c, 0, 48, 26
1, 208200, Note_on_c, 0, 60, 31
1, 208320, Note_on_c, 0, 72, 0
1, 208320, Note_on_c, 0, 71, 39
1, 208440, Tempo, 669718
1, 208440, Note_on_c, 0, 71, 0
1, 208440, Note_on_c, 0, 60, 0
1, 208440, Note_on_c, 0, 48, 0
1, 208440, Note_on_c, 0, 70, 39
1, 208440, Note_on_c, 0, 37, 48
1, 208446, Control_c, 0, 64, 0
1, 208520, Tempo, 673250
1, 208537, Control_c, 0, 64, 127
1, 208560, Note_on_c, 0, 37, 0
1, 208560, Note_on_c, 0, 70, 0
1, 208560, Note_on_c, 0, 68, 39
1, 208580, Tempo, 676743
1, 208660, Tempo, 680272
1, 208680, Note_on_c, 0, 68, 0
1, 208680, Note_on_c, 0, 67, 39
1, 208680, Note_on_c, 0, 49, 25
1, 208680, Note_on_c, 0, 60, 30
1, 208720, Tempo, 683839
1, 208800, Tempo, 687443
1, 208800, Note_on_c, 0, 67, 0
1, 208800, Note_on_c, 0, 65, 38
1, 208860, Tempo, 691165
1, 208920, Tempo, 746733
1, 208920, Note_on_c, 0, 65, 0
1, 208920, Note_on_c, 0, 60, 0
1, 208920, Note_on_c, 0, 49, 0
1, 208920, Note_on_c, 0, 64, 43
1, 208920, Note_on_c, 0, 36, 49
1, 208929, Control_c, 0, 64, 0
1, 209012, Control_c, 0, 64, 127
1, 209040, Tempo, 687443
1, 209040, Note_on_c, 0, 36, 0
1, 209040, Note_on_c, 0, 64, 0
1, 209040, Note_on_c, 0, 72, 49
1, 209160, Note_on_c, 0, 72, 0
1, 209160, Note_on_c, 0, 70, 40
1, 209160, Note_on_c, 0, 48, 26
1, 209160, Note_on_c, 0, 60, 34
1, 209280, Note_on_c, 0, 70, 0
1, 209280, Note_on_c, 0, 68, 39
1, 209400, Tempo, 680272
1, 209400, Note_on_c, 0, 68, 0
1, 209400, Note_on_c, 0, 66, 38
1, 209520, Note_on_c, 0, 66, 0
1, 209520, Note_on_c, 0, 67, 38
1, 209580, Tempo, 676743
1, 209640, Note_on_c, 0, 67, 0
1, 209640, Note_on_c, 0, 60, 0
1, 209640, Note_on_c, 0, 48, 0
1, 209640, Note_on_c, 0, 68, 38
1, 209640, Note_on_c, 0, 48, 26
1, 209640, Note_on_c, 0, 60, 31
1, 209740, Tempo, 673250
1, 209760, Tempo, 746919
1, 209760, Note_on_c, 0, 68, 0
1, 209760, Note_on_c, 0, 70, 39
1, 209880, Tempo, 680426
1, 209880, Note_on_c, 0, 70, 0
1, 209880, Note_on_c, 0, 60, 0
1, 209880, Note_on_c, 0, 48, 0
1, 209880, Note_on_c, 0, 71, 39
1, 209880, Note_on_c, 0, 53, 28
1, 209880, Note_on_c, 0, 56, 34
1, 209886, Control_c, 0, 64, 0
1, 209900, Tempo, 669718
1, 210000, Tempo, 698568
1, 210000, Note_on_c, 0, 71, 0
1, 210000, Note_on_c, 0, 72, 49
1, 210120, Tempo, 673325
1, 210120, Note_on_c, 0, 72, 0
1, 210120, Note_on_c, 0, 56, 0
1, 210120, Note_on_c, 0, 53, 0
1, 210120, Note_on_c, 0, 77, 43
1, 210120, Note_on_c, 0, 48, 25
1, 210120, Note_on_c, 0, 60, 30
1, 210240, Note_on_c, 0, 77, 0
1, 210240, Note_on_c, 0, 73, 42
1, 210360, Tempo, 691165
1, 210360, Note_on_c, 0, 73, 0
1, 210360, Note_on_c, 0, 60, 0
1, 210360, Note_on_c, 0, 48, 0
1, 210360, Note_on_c, 0, 72, 48
1, 210360, Note_on_c, 0, 39, 50
1, 210369, Control_c, 0, 64, 0
1, 210457, Control_c, 0, 64, 127
1, 210480, Note_on_c, 0, 39, 0
1, 210480, Note_on_c, 0, 72, 0
1, 210480, Note_on_c, 0, 70, 41
1, 210600, Note_on_c, 0, 70, 0
1, 210600, Note_on_c, 0, 68, 40
1, 210600, Note_on_c, 0, 48, 26
1, 210600, Note_on_c, 0, 60, 34
1, 210720, Tempo, 702329
1, 210720, Note_on_c, 0, 68, 0
1, 210720, Note_on_c, 0, 67, 39
1, 210840, Tempo, 694847
1, 210840, Note_on_c, 0, 67, 0
1, 210840, Note_on_c, 0, 66, 38
1, 210960, Tempo, 713946
1, 210960, Note_on_c, 0, 66, 0
1, 210960, Note_on_c, 0, 67, 38
1, 211080, Tempo, 676743
1, 211080, Note_on_c, 0, 67, 0
1, 211080, Note_on_c, 0, 60, 0
1, 211080, Note_on_c, 0, 48, 0
1, 211080, Note_on_c, 0, 72, 45
1, 211080, Note_on_c, 0, 48, 26
1, 211080, Note_on_c, 0, 60, 31
1, 211200, Note_on_c, 0, 72, 0
1, 211200, Note_on_c, 0, 71, 39
1, 211320, Tempo, 669718
1, 211320, Note_on_c, 0, 71, 0
1, 211320, Note_on_c, 0, 60, 0
1, 211320, Note_on_c, 0, 48, 0
1, 211320, Note_on_c, 0, 70, 39
1, 211320, Note_on_c, 0, 37, 51
1, 211326, Control_c, 0, 64, 0
1, 211400, Tempo, 673250
1, 211412, Control_c, 0, 64, 127
1, 211440, Note_on_c, 0, 37, 0
1, 211440, Note_on_c, 0, 70, 0
1, 211440, Note_on_c, 0, 68, 39
1, 211460, Tempo, 676743
1, 211540, Tempo, 680272
1, 211560, Note_on_c, 0, 68, 0
1, 211560, Note_on_c, 0, 67, 39
1, 211560, Note_on_c, 0, 49, 25
1, 211560, Note_on_c, 0, 60, 30
1, 211600, Tempo, 683839
1, 211680, Tempo, 687443
1, 211680, Note_on_c, 0, 67, 0
1, 211680, Note_on_c, 0, 65, 38
1, 211740, Tempo, 691165
1, 211800, Tempo, 746733
1, 211800, Note_on_c, 0, 65, 0
1, 211800, Note_on_c, 0, 60, 0
1, 211800, Note_on_c, 0, 49, 0
1, 211800, Note_on_c, 0, 64, 43
1, 211800, Note_on_c, 0, 36, 49
1, 211809, Control_c, 0, 64, 0
1, 211903, Control_c, 0, 64, 127
1, 211920, Tempo, 687443
1, 211920, Note_on_c, 0, 36, 0
1, 211920, Note_on_c, 0, 64, 0
1, 211920, Note_on_c, 0, 72, 46
1, 212040, Note_on_c, 0, 72, 0
1, 212040, Note_on_c, 0, 70, 40
1, 212040, Note_on_c, 0, 48, 26
1, 212040, Note_on_c, 0, 60, 34
1, 212160, Note_on_c, 0, 70, 0
1, 212160, Note_on_c, 0, 68, 39
1, 212280, Tempo, 680272
1, 212280, Note_on_c, 0, 68, 0
1, 212280, Note_on_c, 0, 66, 38
1, 212400, Note_on_c, 0, 66, 0
1, 212400, Note_on_c, 0, 67, 38
1, 212460, Tempo, 676743
1, 212520, Note_on_c, 0, 67, 0
1, 212520, Note_on_c, 0, 60, 0
1, 212520, Note_on_c, 0, 48, 0
1, 212520, Note_on_c, 0, 68, 38
1, 212520, Note_on_c, 0, 48, 26
1, 212520, Note_on_c, 0, 60, 31
1, 212620, Tempo, 673250
1, 212640, Tempo, 718047
1, 212640, Note_on_c, 0, 68, 0
1, 212640, Note_on_c, 0, 70, 39
1, 212760, Tempo, 680426
1, 212760, Note_on_c, 0, 70, 0
1, 212760, Note_on_c, 0, 60, 0
1, 212760, Note_on_c, 0, 48, 0
1, 212760, Note_on_c, 0, 71, 39
1, 212760, Note_on_c, 0, 53, 28
1, 212760, Note_on_c, 0, 56, 34
1, 212768, Control_c, 0, 64, 0
1, 212780, Tempo, 669718
1, 212880, Tempo, 698568
1, 212880, Note_on_c, 0, 71, 0
1, 212880, Note_on_c, 0, 72, 49
1, 213000, Tempo, 666297
1, 213000, Note_on_c, 0, 72, 0
1, 213000, Note_on_c, 0, 56, 0
1, 213000, Note_on_c, 0, 53, 0
1, 213000, Note_on_c, 0, 75, 43
1, 213000, Note_on_c, 0, 48, 25
1, 213000, Note_on_c, 0, 60, 30
1, 213120, Note_on_c, 0, 75, 0
1, 213120, Note_on_c, 0, 73, 42
1, 213240, Tempo, 687443
1, 213240, Note_on_c, 0, 73, 0
1, 213240, Note_on_c, 0, 60, 0
1, 213240, Note_on_c, 0, 48, 0
1, 213240, Note_on_c, 0, 72, 50
1, 213240, Note_on_c, 0, 51, 28
1, 213240, Note_on_c, 0, 55, 39
1, 213249, Control_c, 0, 64, 0
1, 213294, Control_c, 0, 64, 127
1, 213360, Note_on_c, 0, 72, 0
1, 213360, Note_on_c, 0, 70, 41
1, 213480, Note_on_c, 0, 70, 0
1, 213480, Note_on_c, 0, 55, 0
1, 213480, Note_on_c, 0, 51, 0
1, 213480, Note_on_c, 0, 68, 40
1, 213480, Note_on_c, 0, 48, 26
1, 213480, Note_on_c, 0, 60, 34
1, 213600, Note_on_c, 0, 68, 0
1, 213600, Note_on_c, 0, 67, 39
1, 213720, Tempo, 680272
1, 213720, Note_on_c, 0, 67, 0
1, 213720, Note_on_c, 0, 66, 36
1, 213840, Note_on_c, 0, 66, 0
1, 213840, Note_on_c, 0, 67, 37
1, 213900, Tempo, 676743
1, 213960, Note_on_c, 0, 67, 0
1, 213960, Note_on_c, 0, 60, 0
1, 213960, Note_on_c, 0, 48, 0
1, 213960, Note_on_c, 0, 68, 38
1, 213960, Note_on_c, 0, 48, 26
1, 213960, Note_on_c, 0, 60, 31
1, 214060, Tempo, 673250
1, 214080, Note_on_c, 0, 68, 0
1, 214080, Note_on_c, 0, 70, 39
1, 214200, Note_on_c, 0, 70, 0
1, 214200, Note_on_c, 0, 60, 0
1, 214200, Note_on_c, 0, 48, 0
1, 214200, Note_on_c, 0, 71, 39
1, 214200, Note_on_c, 0, 49, 28
1, 214200, Note_on_c, 0, 53, 34
1, 214206, Control_c, 0, 64, 0
1, 214220, Tempo, 669718
1, 214280, Control_c, 0, 64, 127
1, 214320, Tempo, 698568
1, 214320, Note_on_c, 0, 71, 0
1, 214320, Note_on_c, 0, 72, 48
1, 214440, Tempo, 666297
1, 214440, Note_on_c, 0, 72, 0
1, 214440, Note_on_c, 0, 53, 0
1, 214440, Note_on_c, 0, 49, 0
1, 214440, Note_on_c, 0, 73, 40
1, 214440, Note_on_c, 0, 48, 25
1, 214440, Note_on_c, 0, 60, 30
1, 214560, Note_on_c, 0, 73, 0
1, 214560, Note_on_c, 0, 71, 38
1, 214680, Tempo, 687443
1, 214680, Note_on_c, 0, 71, 0
1, 214680, Note_on_c, 0, 60, 0
1, 214680, Note_on_c, 0, 48, 0
1, 214680, Note_on_c, 0, 72, 49
1, 214680, Note_on_c, 0, 52, 39
1, 214689, Control_c, 0, 64, 0
1, 214777, Control_c, 0, 64, 127
1, 214800, Note_on_c, 0, 72, 0
1, 214800, Note_on_c, 0, 70, 41
1, 214920, Note_on_c, 0, 70, 0
1, 214920, Note_on_c, 0, 52, 0
1, 214920, Note_on_c, 0, 68, 40
1, 214920, Note_on_c, 0, 48, 26
1, 214920, Note_on_c, 0, 60, 34
1, 215040, Note_on_c, 0, 68, 0
1, 215040, Note_on_c, 0, 67, 39
1, 215160, Tempo, 680272
1, 215160, Note_on_c, 0, 67, 0
1, 215160, Note_on_c, 0, 66, 36
1, 215187, Tempo, 673325
1, 215280, Note_on_c, 0, 66, 0
1, 215280, Note_on_c, 0, 67, 37
1, 215400, Note_on_c, 0, 67, 0
1, 215400, Note_on_c, 0, 60, 0
1, 215400, Note_on_c, 0, 48, 0
1, 215400, Note_on_c, 0, 68, 38
1, 215400, Note_on_c, 0, 48, 26
1, 215400, Note_on_c, 0, 60, 31
1, 215520, Note_on_c, 0, 68, 0
1, 215520, Note_on_c, 0, 70, 39
1, 215523, Tempo, 746919
1, 215640, Tempo, 676895
1, 215640, Note_on_c, 0, 70, 0
1, 215640, Note_on_c, 0, 60, 0
1, 215640, Note_on_c, 0, 48, 0
1, 215640, Note_on_c, 0, 71, 39
1, 215640, Note_on_c, 0, 53, 28
1, 215640, Note_on_c, 0, 56, 34
1, 215646, Control_c, 0, 64, 0
1, 215660, Tempo, 669718
1, 215720, Control_c, 0, 64, 127
1, 215760, Tempo, 698568
1, 215760, Note_on_c, 0, 71, 0
1, 215760, Note_on_c, 0, 72, 50
1, 215880, Tempo, 666297
1, 215880, Note_on_c, 0, 72, 0
1, 215880, Note_on_c, 0, 56, 0
1, 215880, Note_on_c, 0, 53, 0
1, 215880, Note_on_c, 0, 75, 40
1, 215880, Note_on_c, 0, 48, 25
1, 215880, Note_on_c, 0, 60, 30
1, 216000, Note_on_c, 0, 75, 0
1, 216000, Note_on_c, 0, 73, 38
1, 216120, Tempo, 687443
1, 216120, Note_on_c, 0, 73, 0
1, 216120, Note_on_c, 0, 60, 0
1, 216120, Note_on_c, 0, 48, 0
1, 216120, Note_on_c, 0, 72, 49
1, 216120, Note_on_c, 0, 51, 28
1, 216120, Note_on_c, 0, 55, 39
1, 216129, Control_c, 0, 64, 0
1, 216174, Control_c, 0, 64, 127
1, 216240, Note_on_c, 0, 72, 0
1, 216240, Note_on_c, 0, 70, 41
1, 216360, Note_on_c, 0, 70, 0
1, 216360, Note_on_c, 0, 55, 0
1, 216360, Note_on_c, 0, 51, 0
1, 216360, Note_on_c, 0, 68, 40
1, 216360, Note_on_c, 0, 48, 26
1, 216360, Note_on_c, 0, 60, 34
1, 216480, Note_on_c, 0, 68, 0
1, 216480, Note_on_c, 0, 67, 39
1, 216600, Tempo, 680272
1, 216600, Note_on_c, 0, 67, 0
1, 216600, Note_on_c, 0, 66, 36
1, 216720, Note_on_c, 0, 66, 0
1, 216720, Note_on_c, 0, 67, 37
1, 216780, Tempo, 676743
1, 216840, Note_on_c, 0, 67, 0
1, 216840, Note_on_c, 0, 60, 0
1, 216840, Note_on_c, 0, 48, 0
1, 216840, Note_on_c, 0, 68, 38
1, 216840, Note_on_c, 0, 48, 26
1, 216840, Note_on_c, 0, 60, 31
1, 216940, Tempo, 673250
1, 216960, Tempo, 738462
1, 216960, Note_on_c, 0, 68, 0
1, 216960, Note_on_c, 0, 70, 39
1, 217080, Tempo, 683995
1, 217080, Note_on_c, 0, 70, 0
1, 217080, Note_on_c, 0, 60, 0
1, 217080, Note_on_c, 0, 48, 0
1, 217080, Note_on_c, 0, 71, 39
1, 217080, Note_on_c, 0, 49, 28
1, 217080, Note_on_c, 0, 53, 34
1, 217086, Control_c, 0, 64, 0
1, 217100, Tempo, 669718
1, 217166, Control_c, 0, 64, 127
1, 217200, Tempo, 698568
1, 217200, Note_on_c, 0, 71, 0
1, 217200, Note_on_c, 0, 72, 50
1, 217320, Tempo, 666297
1, 217320, Note_on_c, 0, 72, 0
1, 217320, Note_on_c, 0, 53, 0
1, 217320, Note_on_c, 0, 49, 0
1, 217320, Note_on_c, 0, 73, 40
1, 217320, Note_on_c, 0, 48, 25
1, 217320, Note_on_c, 0, 60, 30
1, 217440, Note_on_c, 0, 73, 0
1, 217440, Note_on_c, 0, 71, 38
1, 217560, Note_on_c, 0, 71, 0
1, 217560, Note_on_c, 0, 72, 50
1, 217560, Note_on_c, 0, 52, 34
1, 217574, Control_c, 0, 64, 0
1, 217657, Control_c, 0, 64, 127
1, 217680, Note_on_c, 0, 72, 0
1, 217680, Note_on_c, 0, 70, 44
1, 217800, Note_on_c, 0, 70, 0
1, 217800, Note_on_c, 0, 52, 0
1, 217800, Note_on_c, 0, 60, 0
1, 217800, Note_on_c, 0, 48, 0
1, 217800, Note_on_c, 0, 68, 43
1, 217806, Control_c, 0, 64, 0
1, 217920, Tempo, 698568
1, 217920, Note_on_c, 0, 68, 0
1, 217920, Note_on_c, 0, 67, 42
1, 218040, Tempo, 666297
1, 218040, Note_on_c, 0, 67, 0
1, 218040, Note_on_c, 0, 66, 45
1, 218040, Note_on_c, 0, 54, 37
1, 218160, Note_on_c, 0, 54, 0
1, 218160, Note_on_c, 0, 66, 0
1, 218160, Note_on_c, 0, 67, 46
1, 218160, Note_on_c, 0, 55, 39
1, 218280, Note_on_c, 0, 55, 0
1, 218280, Note_on_c, 0, 67, 0
1, 218280, Note_on_c, 0, 68, 50
1, 218280, Note_on_c, 0, 56, 43
1, 218400, Note_on_c, 0, 56, 0
1, 218400, Note_on_c, 0, 68, 0
1, 218400, Note_on_c, 0, 70, 55
1, 218400, Note_on_c, 0, 58, 46
1, 218520, Note_on_c, 0, 58, 0
1, 218520, Note_on_c, 0, 70, 0
1, 218520, Note_on_c, 0, 68, 57
1, 218520, Note_on_c, 0, 56, 48
1, 218640, Note_on_c, 0, 56, 0
1, 218640, Note_on_c, 0, 68, 0
1, 218640, Note_on_c, 0, 67, 57
1, 218640, Note_on_c, 0, 55, 48
1, 218760, Note_on_c, 0, 55, 0
1, 218760, Note_on_c, 0, 67, 0
1, 218760, Note_on_c, 0, 65, 57
1, 218760, Note_on_c, 0, 53, 48
1, 218880, Tempo, 702329
1, 218880, Note_on_c, 0, 53, 0
1, 218880, Note_on_c, 0, 65, 0
1, 218880, Note_on_c, 0, 64, 59
1, 218880, Note_on_c, 0, 52, 49
1, 219000, Tempo, 666297
1, 219000, Note_on_c, 0, 52, 0
1, 219000, Note_on_c, 0, 64, 0
1, 219000, Note_on_c, 0, 63, 58
1, 219000, Note_on_c, 0, 51, 48
1, 219120, Note_on_c, 0, 51, 0
1, 219120, Note_on_c, 0, 63, 0
1, 219120, Note_on_c, 0, 64, 61
1, 219120, Note_on_c, 0, 52, 51
1, 219240, Note_on_c, 0, 52, 0
1, 219240, Note_on_c, 0, 64, 0
1, 219240, Note_on_c, 0, 65, 63
1, 219240, Note_on_c, 0, 53, 53
1, 219360, Note_on_c, 0, 53, 0
1, 219360, Note_on_c, 0, 65, 0
1, 219360, Note_on_c, 0, 67, 65
1, 219360, Note_on_c, 0, 55, 55
1, 219480, Tempo, 680272
1, 219480, Note_on_c, 0, 55, 0
1, 219480, Note_on_c, 0, 67, 0
1, 219480, Note_on_c, 0, 61, 74
1, 219480, Note_on_c, 0, 49, 62
1, 219497, Control_c, 0, 64, 127
1, 219600, Note_on_c, 0, 67, 66
1, 219600, Note_on_c, 0, 55, 56
1, 219720, Note_on_c, 0, 55, 0
1, 219720, Note_on_c, 0, 61, 0
1, 219720, Note_on_c, 0, 49, 0
1, 219720, Note_on_c, 0, 67, 0
1, 219720, Note_on_c, 0, 60, 71
1, 219720, Note_on_c, 0, 48, 60
1, 219840, Note_on_c, 0, 67, 63
1, 219840, Note_on_c, 0, 55, 53
1, 219850, Control_c, 0, 64, 0
1, 219960, Note_on_c, 0, 55, 0
1, 219960, Note_on_c, 0, 60, 0
1, 219960, Note_on_c, 0, 48, 0
1, 219960, Note_on_c, 0, 67, 0
1, 219960, Note_on_c, 0, 59, 60
1, 219960, Note_on_c, 0, 47, 51
1, 220080, Note_on_c, 0, 47, 0
1, 220080, Note_on_c, 0, 59, 0
1, 220080, Note_on_c, 0, 60, 63
1, 220080, Note_on_c, 0, 48, 53
1, 220200, Note_on_c, 0, 48, 0
1, 220200, Note_on_c, 0, 60, 0
1, 220200, Note_on_c, 0, 61, 65
1, 220200, Note_on_c, 0, 49, 54
1, 220320, Note_on_c, 0, 49, 0
1, 220320, Note_on_c, 0, 61, 0
1, 220320, Note_on_c, 0, 63, 68
1, 220320, Note_on_c, 0, 51, 57
1, 220440, Note_on_c, 0, 51, 0
1, 220440, Note_on_c, 0, 63, 0
1, 220440, Note_on_c, 0, 61, 70
1, 220440, Note_on_c, 0, 49, 60
1, 220560, Note_on_c, 0, 49, 0
1, 220560, Note_on_c, 0, 61, 0
1, 220560, Note_on_c, 0, 60, 68
1, 220560, Note_on_c, 0, 48, 58
1, 220680, Note_on_c, 0, 48, 0
1, 220680, Note_on_c, 0, 60, 0
1, 220680, Note_on_c, 0, 58, 67
1, 220680, Note_on_c, 0, 46, 56
1, 220800, Note_on_c, 0, 46, 0
1, 220800, Note_on_c, 0, 58, 0
1, 220800, Note_on_c, 0, 56, 65
1, 220800, Note_on_c, 0, 44, 55
1, 220920, Note_on_c, 0, 44, 0
1, 220920, Note_on_c, 0, 56, 0
1, 220920, Note_on_c, 0, 55, 76
1, 220920, Note_on_c, 0, 43, 64
1, 220960, Tempo, 683839
1, 221040, Note_on_c, 0, 60, 69
1, 221040, Note_on_c, 0, 48, 58
1, 221160, Note_on_c, 0, 48, 0
1, 221160, Note_on_c, 0, 60, 0
1, 221160, Note_on_c, 0, 58, 70
1, 221160, Note_on_c, 0, 46, 58
1, 221280, Note_on_c, 0, 46, 0
1, 221280, Note_on_c, 0, 55, 0
1, 221280, Note_on_c, 0, 43, 0
1, 221280, Note_on_c, 0, 58, 0
1, 221280, Note_on_c, 0, 54, 70
1, 221280, Note_on_c, 0, 42, 59
1, 221400, Tempo, 694847
1, 221400, Note_on_c, 0, 42, 0
1, 221400, Note_on_c, 0, 54, 0
1, 221400, Note_on_c, 0, 53, 73
1, 221400, Note_on_c, 0, 41, 62
1, 221520, Note_on_c, 0, 60, 70
1, 221520, Note_on_c, 0, 48, 58
1, 221640, Note_on_c, 0, 48, 0
1, 221640, Note_on_c, 0, 60, 0
1, 221640, Note_on_c, 0, 58, 70
1, 221640, Note_on_c, 0, 46, 58
1, 221760, Note_on_c, 0, 46, 0
1, 221760, Note_on_c, 0, 53, 0
1, 221760, Note_on_c, 0, 41, 0
1, 221760, Note_on_c, 0, 58, 0
1, 221760, Note_on_c, 0, 52, 70
1, 221760, Note_on_c, 0, 40, 59
1, 221880, Tempo, 709975
1, 221880, Note_on_c, 0, 40, 0
1, 221880, Note_on_c, 0, 52, 0
1, 221880, Note_on_c, 0, 51, 79
1, 221880, Note_on_c, 0, 39, 66
1, 222000, Note_on_c, 0, 56, 72
1, 222000, Note_on_c, 0, 44, 60
1, 222120, Note_on_c, 0, 44, 0
1, 222120, Note_on_c, 0, 56, 0
1, 222120, Note_on_c, 0, 55, 74
1, 222120, Note_on_c, 0, 43, 61
1, 222240, Note_on_c, 0, 43, 0
1, 222240, Note_on_c, 0, 51, 0
1, 222240, Note_on_c, 0, 39, 0
1, 222240, Note_on_c, 0, 55, 0
1, 222240, Note_on_c, 0, 51, 75
1, 222240, Note_on_c, 0, 39, 63
1, 222340, Tempo, 742482
1, 222360, Note_on_c, 0, 39, 0
1, 222360, Note_on_c, 0, 51, 0
1, 222360, Note_on_c, 0, 49, 82
1, 222360, Note_on_c, 0, 37, 69
1, 222420, Tempo, 746733
1, 222460, Tempo, 751033
1, 222480, Note_on_c, 0, 55, 78
1, 222480, Note_on_c, 0, 43, 65
1, 222500, Tempo, 755382
1, 222540, Tempo, 759878
1, 222580, Tempo, 764331
1, 222600, Note_on_c, 0, 43, 0
1, 222600, Note_on_c, 0, 55, 0
1, 222600, Note_on_c, 0, 53, 81
1, 222600, Note_on_c, 0, 41, 68
1, 222620, Tempo, 768836
1, 222660, Tempo, 773395
1, 222700, Tempo, 778008
1, 222720, Note_on_c, 0, 41, 0
1, 222720, Note_on_c, 0, 49, 0
1, 222720, Note_on_c, 0, 37, 0
1, 222720, Note_on_c, 0, 53, 0
1, 222720, Note_on_c, 0, 49, 82
1, 222720, Note_on_c, 0, 37, 68
1, 222740, Tempo, 782677
1, 222780, Tempo, 787505
1, 222820, Tempo, 822368
1, 222840, Note_on_c, 0, 37, 0
1, 222840, Note_on_c, 0, 49, 0
1, 222840, Note_on_c, 0, 48, 88
1, 222840, Note_on_c, 0, 36, 74
1, 222860, Tempo, 843763
1, 222900, Tempo, 866176
1, 222940, Tempo, 896057
1, 222960, Note_on_c, 0, 51, 82
1, 222960, Note_on_c, 0, 39, 70
1, 222980, Tempo, 921517
1, 223020, Tempo, 948467
1, 223060, Tempo, 984413
1, 223080, Note_on_c, 0, 39, 0
1, 223080, Note_on_c, 0, 48, 0
1, 223080, Note_on_c, 0, 36, 0
1, 223080, Note_on_c, 0, 51, 0
1, 223080, Note_on_c, 0, 46, 84
1, 223080, Note_on_c, 0, 34, 71
1, 223100, Tempo, 1015057
1, 223140, Tempo, 1064963
1, 223180, Tempo, 1120239
1, 223200, Note_on_c, 0, 51, 86
1, 223200, Note_on_c, 0, 39, 73
1, 223220, Tempo, 1192132
1, 223320, Tempo, 955414
1, 223320, Note_on_c, 0, 39, 0
1, 223320, Note_on_c, 0, 46, 0
1, 223320, Note_on_c, 0, 34, 0
1, 223320, Note_on_c, 0, 51, 0
1, 223320, Note_on_c, 0, 77, 82
1, 223320, Note_on_c, 0, 85, 88
1, 223320, Note_on_c, 0, 89, 102
1, 223320, Control_c, 0, 64, 0
1, 223320, Note_on_c, 0, 32, 70
1, 223320, Note_on_c, 0, 44, 84
1, 223320, Control_c, 0, 64, 0
1, 223398, Control_c, 0, 64, 127
1, 223440, Note_on_c, 0, 44, 0
1, 223440, Note_on_c, 0, 32, 0
1, 223560, Tempo, 560748
1, 223560, Note_on_c, 0, 60, 67
1, 223560, Note_on_c, 0, 51, 67
1, 223560, Note_on_c, 0, 63, 79
1, 223680, Tempo, 635055
1, 223680, Note_on_c, 0, 77, 0
1, 223680, Note_on_c, 0, 89, 0
1, 223680, Note_on_c, 0, 85, 0
1, 223680, Note_on_c, 0, 75, 79
1, 223680, Note_on_c, 0, 84, 79
1, 223680, Note_on_c, 0, 87, 93
1, 223788, Note_on_c, 0, 87, 0
1, 223788, Note_on_c, 0, 75, 0
1, 223788, Note_on_c, 0, 84, 0
1, 223800, Tempo, 701754
1, 223800, Note_on_c, 0, 63, 0
1, 223800, Note_on_c, 0, 60, 0
1, 223800, Note_on_c, 0, 51, 0
1, 223800, Note_on_c, 0, 75, 79
1, 223800, Note_on_c, 0, 84, 79
1, 223800, Note_on_c, 0, 87, 93
1, 223800, Note_on_c, 0, 68, 77
1, 223800, Note_on_c, 0, 60, 77
1, 223800, Note_on_c, 0, 56, 64
1, 223811, Control_c, 0, 64, 0
1, 223980, Note_on_c, 0, 63, 71
1, 224040, Tempo, 693642
1, 224040, Note_on_c, 0, 63, 0
1, 224040, Note_on_c, 0, 60, 0
1, 224040, Note_on_c, 0, 84, 0
1, 224040, Note_on_c, 0, 87, 0
1, 224040, Note_on_c, 0, 75, 0
1, 224040, Note_on_c, 0, 56, 0
1, 224040, Note_on_c, 0, 68, 0
1, 224040, Note_on_c, 0, 63, 71
1, 224040, Control_c, 0, 64, 127
1, 224040, Note_on_c, 0, 39, 72
1, 224040, Note_on_c, 0, 51, 85
1, 224088, Note_on_c, 0, 63, 0
1, 224088, Note_on_c, 0, 65, 71
1, 224100, Note_on_c, 0, 51, 0
1, 224100, Note_on_c, 0, 39, 0
1, 224136, Note_on_c, 0, 65, 0
1, 224136, Note_on_c, 0, 63, 71
1, 224184, Note_on_c, 0, 63, 0
1, 224184, Note_on_c, 0, 62, 71
1, 224232, Note_on_c, 0, 62, 0
1, 224232, Note_on_c, 0, 63, 71
1, 224280, Tempo, 666667
1, 224280, Note_on_c, 0, 63, 0
1, 224280, Note_on_c, 0, 68, 87
1, 224280, Note_on_c, 0, 44, 73
1, 224280, Note_on_c, 0, 56, 86
1, 224285, Control_c, 0, 64, 0
1, 224400, Note_on_c, 0, 56, 0
1, 224400, Note_on_c, 0, 44, 0
1, 224400, Note_on_c, 0, 68, 0
1, 224520, Note_on_c, 0, 72, 74
1, 224520, Note_on_c, 0, 80, 74
1, 224520, Note_on_c, 0, 84, 88
1, 224520, Note_on_c, 0, 27, 61
1, 224520, Note_on_c, 0, 39, 73
1, 224640, Tempo, 705882
1, 224640, Note_on_c, 0, 84, 0
1, 224640, Note_on_c, 0, 72, 0
1, 224640, Note_on_c, 0, 80, 0
1, 224640, Note_on_c, 0, 73, 73
1, 224640, Note_on_c, 0, 82, 73
1, 224640, Note_on_c, 0, 85, 86
1, 224760, Tempo, 666667
1, 224760, Note_on_c, 0, 85, 0
1, 224760, Note_on_c, 0, 73, 0
1, 224760, Note_on_c, 0, 39, 0
1, 224760, Note_on_c, 0, 27, 0
1, 224760, Note_on_c, 0, 82, 0
1, 224760, Note_on_c, 0, 77, 79
1, 224760, Note_on_c, 0, 85, 79
1, 224760, Note_on_c, 0, 89, 93
1, 224760, Note_on_c, 0, 32, 67
1, 224760, Note_on_c, 0, 44, 79
1, 224780, Tempo, 705882
1, 224792, Control_c, 0, 64, 127
1, 224880, Tempo, 666667
1, 224880, Note_on_c, 0, 89, 0
1, 224880, Note_on_c, 0, 77, 0
1, 224880, Note_on_c, 0, 85, 0
1, 224940, Note_on_c, 0, 75, 74
1, 224940, Note_on_c, 0, 84, 74
1, 224940, Note_on_c, 0, 87, 88
1, 224994, Note_on_c, 0, 87, 0
1, 224994, Note_on_c, 0, 75, 0
1, 224994, Note_on_c, 0, 84, 0
1, 225000, Tempo, 574163
1, 225000, Note_on_c, 0, 32, 0
1, 225000, Note_on_c, 0, 44, 0
1, 225000, Note_on_c, 0, 75, 74
1, 225000, Note_on_c, 0, 84, 74
1, 225000, Note_on_c, 0, 87, 93
1, 225000, Note_on_c, 0, 60, 61
1, 225000, Note_on_c, 0, 63, 73
1, 225000, Note_on_c, 0, 51, 61
1, 225120, Tempo, 714286
1, 225120, Note_on_c, 0, 87, 0
1, 225120, Note_on_c, 0, 75, 0
1, 225120, Note_on_c, 0, 84, 0
1, 225120, Note_on_c, 0, 74, 74
1, 225120, Note_on_c, 0, 83, 74
1, 225120, Note_on_c, 0, 86, 88
1, 225240, Tempo, 714286
1, 225240, Note_on_c, 0, 86, 0
1, 225240, Note_on_c, 0, 63, 0
1, 225240, Note_on_c, 0, 60, 0
1, 225240, Note_on_c, 0, 51, 0
1, 225240, Note_on_c, 0, 83, 0
1, 225240, Note_on_c, 0, 74, 0
1, 225240, Note_on_c, 0, 75, 74
1, 225240, Note_on_c, 0, 84, 74
1, 225240, Note_on_c, 0, 87, 88
1, 225240, Note_on_c, 0, 68, 75
1, 225240, Note_on_c, 0, 60, 75
1, 225240, Note_on_c, 0, 56, 63
1, 225257, Control_c, 0, 64, 0
1, 225420, Note_on_c, 0, 63, 70
1, 225480, Tempo, 681818
1, 225480, Note_on_c, 0, 63, 0
1, 225480, Note_on_c, 0, 60, 0
1, 225480, Note_on_c, 0, 84, 0
1, 225480, Note_on_c, 0, 87, 0
1, 225480, Note_on_c, 0, 75, 0
1, 225480, Note_on_c, 0, 56, 0
1, 225480, Note_on_c, 0, 68, 0
1, 225480, Note_on_c, 0, 63, 70
1, 225480, Note_on_c, 0, 39, 67
1, 225480, Note_on_c, 0, 51, 80
1, 225491, Control_c, 0, 64, 127
1, 225528, Note_on_c, 0, 63, 0
1, 225528, Note_on_c, 0, 65, 70
1, 225540, Note_on_c, 0, 51, 0
1, 225540, Note_on_c, 0, 39, 0
1, 225576, Note_on_c, 0, 65, 0
1, 225576, Note_on_c, 0, 63, 70
1, 225624, Note_on_c, 0, 63, 0
1, 225624, Note_on_c, 0, 62, 70
1, 225672, Note_on_c, 0, 62, 0
1, 225672, Note_on_c, 0, 63, 70
1, 225720, Tempo, 645161
1, 225720, Note_on_c, 0, 63, 0
1, 225720, Note_on_c, 0, 68, 87
1, 225720, Note_on_c, 0, 44, 73
1, 225720, Note_on_c, 0, 56, 86
1, 225734, Control_c, 0, 64, 0
1, 225840, Note_on_c, 0, 56, 0
1, 225840, Note_on_c, 0, 44, 0
1, 225840, Note_on_c, 0, 68, 0
1, 225960, Tempo, 666667
1, 225960, Note_on_c, 0, 84, 88
1, 225960, Note_on_c, 0, 72, 74
1, 225960, Note_on_c, 0, 80, 74
1, 225960, Note_on_c, 0, 27, 61
1, 225960, Note_on_c, 0, 39, 73
1, 226080, Tempo, 677966
1, 226080, Note_on_c, 0, 80, 0
1, 226080, Note_on_c, 0, 84, 0
1, 226080, Note_on_c, 0, 72, 0
1, 226080, Note_on_c, 0, 85, 86
1, 226080, Note_on_c, 0, 73, 73
1, 226080, Note_on_c, 0, 82, 73
1, 226200, Tempo, 666667
1, 226200, Note_on_c, 0, 82, 0
1, 226200, Note_on_c, 0, 85, 0
1, 226200, Note_on_c, 0, 39, 0
1, 226200, Note_on_c, 0, 27, 0
1, 226200, Note_on_c, 0, 73, 0
1, 226200, Note_on_c, 0, 85, 79
1, 226200, Note_on_c, 0, 89, 93
1, 226200, Note_on_c, 0, 77, 79
1, 226200, Note_on_c, 0, 32, 67
1, 226200, Note_on_c, 0, 44, 79
1, 226232, Control_c, 0, 64, 127
1, 226320, Note_on_c, 0, 77, 0
1, 226320, Note_on_c, 0, 85, 0
1, 226320, Note_on_c, 0, 89, 0
1, 226320, Note_on_c, 0, 75, 74
1, 226320, Note_on_c, 0, 84, 74
1, 226320, Note_on_c, 0, 87, 88
1, 226380, Note_on_c, 0, 87, 0
1, 226380, Note_on_c, 0, 89, 81
1, 226440, Tempo, 571429
1, 226440, Note_on_c, 0, 89, 0
1, 226440, Note_on_c, 0, 32, 0
1, 226440, Note_on_c, 0, 44, 0
1, 226440, Note_on_c, 0, 87, 93
1, 226440, Note_on_c, 0, 60, 61
1, 226440, Note_on_c, 0, 63, 73
1, 226440, Note_on_c, 0, 51, 61
1, 226560, Tempo, 681818
1, 226560, Note_on_c, 0, 87, 0
1, 226560, Note_on_c, 0, 84, 0
1, 226560, Note_on_c, 0, 75, 0
1, 226560, Note_on_c, 0, 83, 74
1, 226560, Note_on_c, 0, 86, 88
1, 226560, Note_on_c, 0, 74, 74
1, 226680, Tempo, 666667
1, 226680, Note_on_c, 0, 74, 0
1, 226680, Note_on_c, 0, 63, 0
1, 226680, Note_on_c, 0, 60, 0
1, 226680, Note_on_c, 0, 51, 0
1, 226680, Note_on_c, 0, 86, 0
1, 226680, Note_on_c, 0, 83, 0
1, 226680, Note_on_c, 0, 85, 79
1, 226680, Note_on_c, 0, 89, 93
1, 226680, Note_on_c, 0, 77, 79
1, 226680, Note_on_c, 0, 68, 75
1, 226680, Note_on_c, 0, 60, 75
1, 226680, Note_on_c, 0, 56, 63
1, 226695, Control_c, 0, 64, 0
1, 226737, Control_c, 0, 64, 127
1, 226800, Note_on_c, 0, 77, 0
1, 226800, Note_on_c, 0, 85, 0
1, 226800, Note_on_c, 0, 89, 0
1, 226800, Note_on_c, 0, 84, 74
1, 226800, Note_on_c, 0, 87, 88
1, 226800, Note_on_c, 0, 75, 74
1, 226860, Note_on_c, 0, 87, 0
1, 226860, Note_on_c, 0, 89, 81
1, 226920, Tempo, 606061
1, 226920, Note_on_c, 0, 89, 0
1, 226920, Note_on_c, 0, 60, 0
1, 226920, Note_on_c, 0, 56, 0
1, 226920, Note_on_c, 0, 68, 0
1, 226920, Note_on_c, 0, 87, 93
1, 226920, Note_on_c, 0, 39, 61
1, 226920, Note_on_c, 0, 51, 73
1, 227040, Tempo, 689655
1, 227040, Note_on_c, 0, 51, 0
1, 227040, Note_on_c, 0, 87, 0
1, 227040, Note_on_c, 0, 75, 0
1, 227040, Note_on_c, 0, 84, 0
1, 227040, Note_on_c, 0, 39, 0
1, 227040, Note_on_c, 0, 74, 74
1, 227040, Note_on_c, 0, 83, 74
1, 227040, Note_on_c, 0, 86, 88
1, 227160, Tempo, 666667
1, 227160, Note_on_c, 0, 86, 0
1, 227160, Note_on_c, 0, 83, 0
1, 227160, Note_on_c, 0, 74, 0
1, 227160, Note_on_c, 0, 75, 74
1, 227160, Note_on_c, 0, 84, 74
1, 227160, Note_on_c, 0, 87, 88
1, 227160, Note_on_c, 0, 44, 64
1, 227160, Note_on_c, 0, 56, 77
1, 227170, Control_c, 0, 64, 0
1, 227280, Tempo, 839161
1, 227280, Note_on_c, 0, 56, 0
1, 227280, Note_on_c, 0, 44, 0
1, 227340, Note_on_c, 0, 75, 0
1, 227340, Note_on_c, 0, 84, 0
1, 227340, Note_on_c, 0, 87, 0
1, 227340, Note_on_c, 0, 75, 72
1, 227340, Note_on_c, 0, 39, 62
1, 227370, Note_on_c, 0, 82, 72
1, 227370, Note_on_c, 0, 46, 62
1, 227400, Tempo, 750000
1, 227400, Note_on_c, 0, 90, 85
1, 227400, Note_on_c, 0, 54, 74
1, 227425, Control_c, 0, 64, 127
1, 227520, Tempo, 714286
1, 227550, Note_on_c, 0, 54, 0
1, 227550, Note_on_c, 0, 39, 0
1, 227550, Note_on_c, 0, 46, 0
1, 227550, Note_on_c, 0, 41, 62
1, 227580, Note_on_c, 0, 75, 0
1, 227580, Note_on_c, 0, 82, 0
1, 227580, Note_on_c, 0, 90, 0
1, 227580, Note_on_c, 0, 75, 70
1, 227580, Note_on_c, 0, 48, 62
1, 227610, Note_on_c, 0, 81, 70
1, 227610, Note_on_c, 0, 51, 74
1, 227640, Note_on_c, 0, 89, 83
1, 227640, Control_c, 0, 64, 0
1, 227640, Note_on_c, 0, 57, 74
1, 227703, Control_c, 0, 64, 127
1, 227790, Note_on_c, 0, 57, 0
1, 227790, Note_on_c, 0, 41, 0
1, 227790, Note_on_c, 0, 51, 0
1, 227790, Note_on_c, 0, 72, 70
1, 227790, Note_on_c, 0, 53, 61
1, 227820, Note_on_c, 0, 81, 0
1, 227820, Note_on_c, 0, 89, 0
1, 227820, Note_on_c, 0, 75, 0
1, 227820, Note_on_c, 0, 75, 70
1, 227820, Note_on_c, 0, 60, 61
1, 227850, Note_on_c, 0, 77, 70
1, 227850, Note_on_c, 0, 63, 73
1, 227880, Note_on_c, 0, 48, 0
1, 227880, Note_on_c, 0, 84, 83
1, 227880, Note_on_c, 0, 69, 73
1, 228030, Note_on_c, 0, 69, 0
1, 228030, Note_on_c, 0, 60, 0
1, 228030, Note_on_c, 0, 53, 0
1, 228030, Note_on_c, 0, 63, 0
1, 228060, Note_on_c, 0, 77, 0
1, 228060, Note_on_c, 0, 75, 0
1, 228060, Note_on_c, 0, 72, 0
1, 228060, Note_on_c, 0, 84, 0
1, 228060, Note_on_c, 0, 70, 70
1, 228060, Note_on_c, 0, 46, 63
1, 228067, Control_c, 0, 64, 0
1, 228090, Note_on_c, 0, 77, 70
1, 228090, Note_on_c, 0, 53, 75
1, 228120, Note_on_c, 0, 85, 83
1, 228120, Note_on_c, 0, 61, 75
1, 228300, Note_on_c, 0, 85, 0
1, 228300, Note_on_c, 0, 77, 0
1, 228300, Note_on_c, 0, 70, 0
1, 228360, Tempo, 727273
1, 228360, Note_on_c, 0, 46, 0
1, 228360, Note_on_c, 0, 53, 0
1, 228360, Note_on_c, 0, 61, 0
1, 228360, Note_on_c, 0, 78, 80
1, 228360, Note_on_c, 0, 42, 60
1, 228360, Note_on_c, 0, 54, 71
1, 228440, Note_on_c, 0, 78, 0
1, 228440, Note_on_c, 0, 66, 80
1, 228520, Note_on_c, 0, 66, 0
1, 228520, Note_on_c, 0, 78, 80
1, 228600, Tempo, 705882
1, 228600, Note_on_c, 0, 78, 0
1, 228600, Note_on_c, 0, 54, 0
1, 228600, Note_on_c, 0, 42, 0
1, 228600, Note_on_c, 0, 65, 71
1, 228600, Note_on_c, 0, 77, 84
1, 228600, Note_on_c, 0, 41, 60
1, 228600, Note_on_c, 0, 53, 71
1, 228840, Tempo, 774194
1, 228840, Note_on_c, 0, 53, 0
1, 228840, Note_on_c, 0, 65, 0
1, 228840, Note_on_c, 0, 77, 0
1, 228840, Note_on_c, 0, 41, 0
1, 228840, Note_on_c, 0, 61, 74
1, 228840, Note_on_c, 0, 73, 79
1, 228840, Note_on_c, 0, 37, 58
1, 228840, Note_on_c, 0, 49, 69
1, 229080, Tempo, 784314
1, 229080, Note_on_c, 0, 49, 0
1, 229080, Note_on_c, 0, 61, 0
1, 229080, Note_on_c, 0, 73, 0
1, 229080, Note_on_c, 0, 37, 0
1, 229080, Note_on_c, 0, 78, 82
1, 229080, Note_on_c, 0, 87, 82
1, 229080, Note_on_c, 0, 90, 97
1, 229080, Note_on_c, 0, 34, 67
1, 229080, Note_on_c, 0, 46, 79
1, 229080, Control_c, 0, 64, 0
1, 229158, Control_c, 0, 64, 127
1, 229200, Note_on_c, 0, 46, 0
1, 229200, Note_on_c, 0, 34, 0
1, 229320, Tempo, 576923
1, 229320, Note_on_c, 0, 61, 79
1, 229320, Note_on_c, 0, 53, 67
1, 229320, Note_on_c, 0, 65, 79
1, 229440, Tempo, 645300
1, 229440, Note_on_c, 0, 78, 0
1, 229440, Note_on_c, 0, 90, 0
1, 229440, Note_on_c, 0, 87, 0
1, 229440, Note_on_c, 0, 77, 79
1, 229440, Note_on_c, 0, 85, 79
1, 229440, Note_on_c, 0, 89, 93
1, 229548, Note_on_c, 0, 89, 0
1, 229548, Note_on_c, 0, 77, 0
1, 229548, Note_on_c, 0, 85, 0
1, 229560, Tempo, 693642
1, 229560, Note_on_c, 0, 65, 0
1, 229560, Note_on_c, 0, 61, 0
1, 229560, Note_on_c, 0, 53, 0
1, 229560, Note_on_c, 0, 77, 79
1, 229560, Note_on_c, 0, 85, 79
1, 229560, Note_on_c, 0, 89, 93
1, 229560, Note_on_c, 0, 70, 77
1, 229560, Note_on_c, 0, 61, 77
1, 229560, Note_on_c, 0, 58, 64
1, 229566, Control_c, 0, 64, 0
1, 229740, Note_on_c, 0, 65, 71
1, 229786, Control_c, 0, 64, 127
1, 229800, Tempo, 693642
1, 229800, Note_on_c, 0, 65, 0
1, 229800, Note_on_c, 0, 61, 0
1, 229800, Note_on_c, 0, 85, 0
1, 229800, Note_on_c, 0, 89, 0
1, 229800, Note_on_c, 0, 77, 0
1, 229800, Note_on_c, 0, 58, 0
1, 229800, Note_on_c, 0, 70, 0
1, 229800, Note_on_c, 0, 65, 71
1, 229800, Note_on_c, 0, 41, 72
1, 229800, Note_on_c, 0, 53, 85
1, 229848, Note_on_c, 0, 65, 0
1, 229848, Note_on_c, 0, 66, 71
1, 229860, Note_on_c, 0, 53, 0
1, 229860, Note_on_c, 0, 41, 0
1, 229896, Note_on_c, 0, 66, 0
1, 229896, Note_on_c, 0, 65, 71
1, 229944, Note_on_c, 0, 65, 0
1, 229944, Note_on_c, 0, 64, 71
1, 229992, Note_on_c, 0, 64, 0
1, 229992, Note_on_c, 0, 65, 71
1, 230040, Tempo, 666667
1, 230040, Note_on_c, 0, 65, 0
1, 230040, Note_on_c, 0, 70, 87
1, 230040, Note_on_c, 0, 46, 73
1, 230040, Note_on_c, 0, 58, 86
1, 230044, Control_c, 0, 64, 0
1, 230160, Note_on_c, 0, 58, 0
1, 230160, Note_on_c, 0, 46, 0
1, 230160, Note_on_c, 0, 70, 0
1, 230280, Note_on_c, 0, 73, 74
1, 230280, Note_on_c, 0, 85, 88
1, 230280, Note_on_c, 0, 82, 74
1, 230280, Note_on_c, 0, 29, 61
1, 230280, Note_on_c, 0, 41, 73
1, 230400, Tempo, 705882
1, 230400, Note_on_c, 0, 82, 0
1, 230400, Note_on_c, 0, 73, 0
1, 230400, Note_on_c, 0, 85, 0
1, 230400, Note_on_c, 0, 75, 73
1, 230400, Note_on_c, 0, 84, 73
1, 230400, Note_on_c, 0, 87, 86
1, 230520, Tempo, 666667
1, 230520, Note_on_c, 0, 87, 0
1, 230520, Note_on_c, 0, 75, 0
1, 230520, Note_on_c, 0, 41, 0
1, 230520, Note_on_c, 0, 29, 0
1, 230520, Note_on_c, 0, 84, 0
1, 230520, Note_on_c, 0, 90, 93
1, 230520, Note_on_c, 0, 78, 79
1, 230520, Note_on_c, 0, 87, 79
1, 230520, Note_on_c, 0, 34, 67
1, 230520, Note_on_c, 0, 46, 79
1, 230540, Tempo, 705882
1, 230552, Control_c, 0, 64, 127
1, 230640, Tempo, 666667
1, 230640, Note_on_c, 0, 87, 0
1, 230640, Note_on_c, 0, 90, 0
1, 230640, Note_on_c, 0, 78, 0
1, 230700, Note_on_c, 0, 77, 74
1, 230700, Note_on_c, 0, 85, 74
1, 230700, Note_on_c, 0, 89, 88
1, 230754, Note_on_c, 0, 89, 0
1, 230754, Note_on_c, 0, 77, 0
1, 230754, Note_on_c, 0, 85, 0
1, 230760, Tempo, 574163
1, 230760, Note_on_c, 0, 34, 0
1, 230760, Note_on_c, 0, 46, 0
1, 230760, Note_on_c, 0, 85, 74
1, 230760, Note_on_c, 0, 77, 74
1, 230760, Note_on_c, 0, 89, 93
1, 230760, Note_on_c, 0, 61, 61
1, 230760, Note_on_c, 0, 65, 73
1, 230760, Note_on_c, 0, 53, 61
1, 230880, Tempo, 714286
1, 230880, Note_on_c, 0, 89, 0
1, 230880, Note_on_c, 0, 85, 0
1, 230880, Note_on_c, 0, 77, 0
1, 230880, Note_on_c, 0, 76, 74
1, 230880, Note_on_c, 0, 88, 88
1, 230880, Note_on_c, 0, 84, 74
1, 231000, Tempo, 714286
1, 231000, Note_on_c, 0, 84, 0
1, 231000, Note_on_c, 0, 65, 0
1, 231000, Note_on_c, 0, 61, 0
1, 231000, Note_on_c, 0, 53, 0
1, 231000, Note_on_c, 0, 88, 0
1, 231000, Note_on_c, 0, 76, 0
1, 231000, Note_on_c, 0, 77, 88
1, 231000, Note_on_c, 0, 85, 74
1, 231000, Note_on_c, 0, 89, 88
1, 231000, Note_on_c, 0, 70, 75
1, 231000, Note_on_c, 0, 61, 75
1, 231000, Note_on_c, 0, 58, 63
1, 231015, Control_c, 0, 64, 0
1, 231180, Note_on_c, 0, 65, 71
1, 231240, Tempo, 681818
1, 231240, Note_on_c, 0, 65, 0
1, 231240, Note_on_c, 0, 61, 0
1, 231240, Note_on_c, 0, 85, 0
1, 231240, Note_on_c, 0, 89, 0
1, 231240, Note_on_c, 0, 77, 0
1, 231240, Note_on_c, 0, 58, 0
1, 231240, Note_on_c, 0, 70, 0
1, 231240, Note_on_c, 0, 65, 71
1, 231240, Note_on_c, 0, 41, 67
1, 231240, Note_on_c, 0, 53, 80
1, 231249, Control_c, 0, 64, 127
1, 231288, Note_on_c, 0, 65, 0
1, 231288, Note_on_c, 0, 66, 71
1, 231300, Note_on_c, 0, 53, 0
1, 231300, Note_on_c, 0, 41, 0
1, 231336, Note_on_c, 0, 66, 0
1, 231336, Note_on_c, 0, 65, 71
1, 231384, Note_on_c, 0, 65, 0
1, 231384, Note_on_c, 0, 64, 71
1, 231432, Note_on_c, 0, 64, 0
1, 231432, Note_on_c, 0, 65, 71
1, 231480, Tempo, 645161
1, 231480, Note_on_c, 0, 65, 0
1, 231480, Note_on_c, 0, 70, 87
1, 231480, Note_on_c, 0, 46, 73
1, 231480, Note_on_c, 0, 58, 86
1, 231482, Control_c, 0, 64, 0
1, 231600, Note_on_c, 0, 58, 0
1, 231600, Note_on_c, 0, 46, 0
1, 231720, Tempo, 701754
1, 231720, Note_on_c, 0, 70, 0
1, 231720, Note_on_c, 0, 79, 81
1, 231720, Note_on_c, 0, 91, 96
1, 231720, Note_on_c, 0, 85, 81
1, 231720, Note_on_c, 0, 34, 61
1, 231720, Note_on_c, 0, 46, 73
1, 231840, Tempo, 693642
1, 231840, Note_on_c, 0, 85, 0
1, 231840, Note_on_c, 0, 79, 0
1, 231840, Note_on_c, 0, 91, 0
1, 231840, Note_on_c, 0, 80, 80
1, 231840, Note_on_c, 0, 92, 94
1, 231860, Tempo, 745342
1, 231960, Tempo, 693642
1, 231960, Note_on_c, 0, 92, 0
1, 231960, Note_on_c, 0, 46, 0
1, 231960, Note_on_c, 0, 34, 0
1, 231960, Note_on_c, 0, 80, 0
1, 231960, Note_on_c, 0, 84, 85
1, 231960, Note_on_c, 0, 96, 101
1, 231960, Note_on_c, 0, 27, 67
1, 231960, Note_on_c, 0, 39, 79
1, 231992, Control_c, 0, 64, 127
1, 232080, Note_on_c, 0, 39, 0
1, 232080, Note_on_c, 0, 84, 0
1, 232080, Note_on_c, 0, 96, 0
1, 232080, Note_on_c, 0, 27, 0
1, 232080, Note_on_c, 0, 87, 74
1, 232080, Note_on_c, 0, 91, 88
1, 232200, Tempo, 571429
1, 232200, Note_on_c, 0, 91, 0
1, 232200, Note_on_c, 0, 87, 0
1, 232200, Note_on_c, 0, 96, 93
1, 232200, Note_on_c, 0, 84, 79
1, 232200, Note_on_c, 0, 67, 60
1, 232200, Note_on_c, 0, 61, 60
1, 232200, Note_on_c, 0, 72, 72
1, 232200, Note_on_c, 0, 63, 60
1, 232320, Tempo, 681818
1, 232320, Note_on_c, 0, 72, 0
1, 232320, Note_on_c, 0, 84, 0
1, 232320, Note_on_c, 0, 96, 0
1, 232320, Note_on_c, 0, 70, 70
1, 232380, Note_on_c, 0, 94, 92
1, 232380, Note_on_c, 0, 82, 78
1, 232390, Control_c, 0, 64, 0
1, 232434, Note_on_c, 0, 82, 0
1, 232434, Note_on_c, 0, 94, 0
1, 232440, Tempo, 666667
1, 232440, Note_on_c, 0, 61, 0
1, 232440, Note_on_c, 0, 67, 0
1, 232440, Note_on_c, 0, 63, 0
1, 232440, Note_on_c, 0, 70, 0
1, 232440, Note_on_c, 0, 82, 81
1, 232440, Note_on_c, 0, 94, 97
1, 232440, Note_on_c, 0, 51, 75
1, 232472, Control_c, 0, 64, 127
1, 232560, Note_on_c, 0, 51, 0
1, 232560, Note_on_c, 0, 94, 0
1, 232560, Note_on_c, 0, 82, 0
1, 232560, Note_on_c, 0, 84, 70
1, 232560, Note_on_c, 0, 87, 84
1, 232680, Tempo, 571429
1, 232680, Note_on_c, 0, 87, 0
1, 232680, Note_on_c, 0, 84, 0
1, 232680, Note_on_c, 0, 94, 90
1, 232680, Note_on_c, 0, 82, 75
1, 232680, Note_on_c, 0, 70, 72
1, 232680, Note_on_c, 0, 60, 58
1, 232680, Note_on_c, 0, 63, 69
1, 232800, Tempo, 681818
1, 232800, Note_on_c, 0, 70, 0
1, 232800, Note_on_c, 0, 94, 0
1, 232800, Note_on_c, 0, 82, 0
1, 232800, Note_on_c, 0, 68, 70
1, 232860, Note_on_c, 0, 80, 68
1, 232860, Note_on_c, 0, 92, 80
1, 232871, Control_c, 0, 64, 0
1, 232914, Note_on_c, 0, 92, 0
1, 232914, Note_on_c, 0, 80, 0
1, 232920, Tempo, 666667
1, 232920, Note_on_c, 0, 63, 0
1, 232920, Note_on_c, 0, 60, 0
1, 232920, Note_on_c, 0, 68, 0
1, 232920, Note_on_c, 0, 80, 79
1, 232920, Note_on_c, 0, 92, 93
1, 232920, Note_on_c, 0, 51, 73
1, 232952, Control_c, 0, 64, 127
1, 233040, Note_on_c, 0, 51, 0
1, 233040, Note_on_c, 0, 92, 0
1, 233040, Note_on_c, 0, 80, 0
1, 233040, Note_on_c, 0, 87, 79
1, 233040, Note_on_c, 0, 82, 67
1, 233160, Tempo, 571429
1, 233160, Note_on_c, 0, 82, 0
1, 233160, Note_on_c, 0, 87, 0
1, 233160, Note_on_c, 0, 92, 88
1, 233160, Note_on_c, 0, 80, 74
1, 233160, Note_on_c, 0, 68, 72
1, 233160, Note_on_c, 0, 58, 56
1, 233160, Note_on_c, 0, 63, 67
1, 233280, Tempo, 681818
1, 233280, Note_on_c, 0, 68, 0
1, 233280, Note_on_c, 0, 92, 0
1, 233280, Note_on_c, 0, 80, 0
1, 233280, Note_on_c, 0, 67, 70
1, 233340, Note_on_c, 0, 91, 79
1, 233340, Note_on_c, 0, 79, 67
1, 233352, Control_c, 0, 64, 0
1, 233394, Note_on_c, 0, 79, 0
1, 233394, Note_on_c, 0, 91, 0
1, 233400, Tempo, 666667
1, 233400, Note_on_c, 0, 63, 0
1, 233400, Note_on_c, 0, 58, 0
1, 233400, Note_on_c, 0, 67, 0
1, 233400, Note_on_c, 0, 79, 75
1, 233400, Note_on_c, 0, 91, 90
1, 233400, Note_on_c, 0, 46, 70
1, 233432, Control_c, 0, 64, 127
1, 233520, Note_on_c, 0, 46, 0
1, 233520, Note_on_c, 0, 91, 0
1, 233520, Note_on_c, 0, 79, 0
1, 233520, Note_on_c, 0, 86, 78
1, 233520, Note_on_c, 0, 82, 66
1, 233640, Tempo, 571429
1, 233640, Note_on_c, 0, 82, 0
1, 233640, Note_on_c, 0, 86, 0
1, 233640, Note_on_c, 0, 79, 72
1, 233640, Note_on_c, 0, 91, 85
1, 233640, Note_on_c, 0, 67, 72
1, 233640, Note_on_c, 0, 56, 55
1, 233640, Note_on_c, 0, 62, 66
1, 233640, Note_on_c, 0, 58, 55
1, 233760, Tempo, 681818
1, 233760, Note_on_c, 0, 67, 0
1, 233760, Note_on_c, 0, 79, 0
1, 233760, Note_on_c, 0, 91, 0
1, 233760, Note_on_c, 0, 65, 70
1, 233820, Note_on_c, 0, 89, 81
1, 233820, Note_on_c, 0, 77, 68
1, 233830, Control_c, 0, 64, 0
1, 233874, Note_on_c, 0, 77, 0
1, 233874, Note_on_c, 0, 89, 0
1, 233880, Tempo, 666667
1, 233880, Note_on_c, 0, 56, 0
1, 233880, Note_on_c, 0, 58, 0
1, 233880, Note_on_c, 0, 62, 0
1, 233880, Note_on_c, 0, 65, 0
1, 233880, Note_on_c, 0, 89, 88
1, 233880, Note_on_c, 0, 77, 73
1, 233880, Note_on_c, 0, 51, 72
1, 233912, Control_c, 0, 64, 127
1, 234000, Note_on_c, 0, 51, 0
1, 234000, Note_on_c, 0, 77, 0
1, 234000, Note_on_c, 0, 89, 0
1, 234000, Note_on_c, 0, 82, 75
1, 234000, Note_on_c, 0, 79, 64
1, 234120, Tempo, 571429
1, 234120, Note_on_c, 0, 79, 0
1, 234120, Note_on_c, 0, 82, 0
1, 234120, Note_on_c, 0, 77, 69
1, 234120, Note_on_c, 0, 89, 82
1, 234120, Note_on_c, 0, 65, 72
1, 234120, Note_on_c, 0, 55, 57
1, 234120, Note_on_c, 0, 58, 68
1, 234240, Tempo, 681818
1, 234240, Note_on_c, 0, 65, 0
1, 234240, Note_on_c, 0, 77, 0
1, 234240, Note_on_c, 0, 89, 0
1, 234240, Note_on_c, 0, 63, 70
1, 234300, Note_on_c, 0, 75, 64
1, 234300, Note_on_c, 0, 87, 75
1, 234310, Control_c, 0, 64, 0
1, 234360, Tempo, 666667
1, 234360, Note_on_c, 0, 87, 0
1, 234360, Note_on_c, 0, 63, 0
1, 234360, Note_on_c, 0, 58, 0
1, 234360, Note_on_c, 0, 55, 0
1, 234360, Note_on_c, 0, 75, 0
1, 234360, Note_on_c, 0, 73, 75
1, 234360, Note_on_c, 0, 85, 90
1, 234360, Note_on_c, 0, 41, 62
1, 234360, Note_on_c, 0, 53, 74
1, 234392, Control_c, 0, 64, 127
1, 234480, Note_on_c, 0, 85, 0
1, 234480, Note_on_c, 0, 73, 0
1, 234480, Note_on_c, 0, 77, 64
1, 234480, Note_on_c, 0, 80, 75
1, 234600, Tempo, 571429
1, 234600, Note_on_c, 0, 80, 0
1, 234600, Note_on_c, 0, 77, 0
1, 234600, Note_on_c, 0, 41, 0
1, 234600, Note_on_c, 0, 85, 84
1, 234600, Note_on_c, 0, 73, 70
1, 234600, Note_on_c, 0, 61, 72
1, 234600, Note_on_c, 0, 56, 68
1, 234720, Tempo, 681818
1, 234720, Note_on_c, 0, 61, 0
1, 234720, Note_on_c, 0, 73, 0
1, 234720, Note_on_c, 0, 85, 0
1, 234720, Note_on_c, 0, 60, 68
1, 234780, Note_on_c, 0, 84, 71
1, 234780, Note_on_c, 0, 72, 61
1, 234790, Control_c, 0, 64, 0
1, 234840, Note_on_c, 0, 72, 0
1, 234840, Note_on_c, 0, 60, 0
1, 234840, Note_on_c, 0, 56, 0
1, 234840, Note_on_c, 0, 53, 0
1, 234840, Note_on_c, 0, 84, 0
1, 234840, Note_on_c, 0, 65, 88
1, 234840, Note_on_c, 0, 37, 59
1, 234840, Note_on_c, 0, 49, 71
1, 234921, Control_c, 0, 64, 127
1, 235080, Tempo, 655738
1, 235080, Note_on_c, 0, 49, 0
1, 235080, Note_on_c, 0, 37, 0
1, 235080, Note_on_c, 0, 53, 51
1, 235080, Note_on_c, 0, 58, 59
1, 235300, Tempo, 662983
1, 235320, Tempo, 659341
1, 235320, Note_on_c, 0, 58, 0
1, 235320, Note_on_c, 0, 53, 0
1, 235320, Note_on_c, 0, 65, 0
1, 235320, Note_on_c, 0, 67, 59
1, 235320, Note_on_c, 0, 36, 53
1, 235320, Note_on_c, 0, 48, 63
1, 235340, Tempo, 652174
1, 235352, Control_c, 0, 64, 0
1, 235360, Tempo, 648649
1, 235380, Tempo, 641711
1, 235380, Note_on_c, 0, 67, 0
1, 235380, Note_on_c, 0, 68, 60
1, 235398, Control_c, 0, 64, 127
1, 235400, Tempo, 638298
1, 235420, Tempo, 631579
1, 235440, Tempo, 628272
1, 235440, Note_on_c, 0, 68, 0
1, 235440, Note_on_c, 0, 67, 61
1, 235460, Tempo, 621762
1, 235480, Tempo, 618557
1, 235500, Tempo, 612245
1, 235500, Note_on_c, 0, 67, 0
1, 235500, Note_on_c, 0, 68, 61
1, 235520, Tempo, 609137
1, 235540, Tempo, 603015
1, 235560, Tempo, 652174
1, 235560, Note_on_c, 0, 68, 0
1, 235560, Note_on_c, 0, 48, 0
1, 235560, Note_on_c, 0, 36, 0
1, 235560, Note_on_c, 0, 65, 62
1, 235560, Note_on_c, 0, 52, 49
1, 235560, Note_on_c, 0, 60, 59
1, 235560, Note_on_c, 0, 58, 49
1, 235574, Control_c, 0, 64, 0
1, 235680, Note_on_c, 0, 65, 0
1, 235680, Note_on_c, 0, 67, 64
1, 235780, Tempo, 648649
1, 235800, Tempo, 645161
1, 235800, Note_on_c, 0, 67, 0
1, 235800, Note_on_c, 0, 58, 0
1, 235800, Note_on_c, 0, 60, 0
1, 235800, Note_on_c, 0, 52, 0
1, 235800, Note_on_c, 0, 68, 66
1, 235800, Note_on_c, 0, 29, 58
1, 235800, Note_on_c, 0, 41, 69
1, 235820, Tempo, 641711
1, 235840, Tempo, 638298
1, 235860, Tempo, 634921
1, 235860, Note_on_c, 0, 68, 0
1, 235860, Note_on_c, 0, 70, 67
1, 235867, Control_c, 0, 64, 127
1, 235880, Tempo, 631579
1, 235900, Tempo, 625000
1, 235920, Tempo, 621762
1, 235920, Note_on_c, 0, 70, 0
1, 235920, Note_on_c, 0, 68, 69
1, 235940, Tempo, 618557
1, 235960, Tempo, 615385
1, 235980, Tempo, 612245
1, 235980, Note_on_c, 0, 68, 0
1, 235980, Note_on_c, 0, 70, 70
1, 236000, Tempo, 609137
1, 236020, Tempo, 603015
1, 236040, Tempo, 652174
1, 236040, Note_on_c, 0, 70, 0
1, 236040, Note_on_c, 0, 41, 0
1, 236040, Note_on_c, 0, 29, 0
1, 236040, Note_on_c, 0, 67, 71
1, 236040, Note_on_c, 0, 53, 67
1, 236040, Note_on_c, 0, 56, 67
1, 236040, Note_on_c, 0, 60, 67
1, 236052, Control_c, 0, 64, 0
1, 236160, Note_on_c, 0, 67, 0
1, 236160, Note_on_c, 0, 68, 73
1, 236280, Tempo, 663130
1, 236280, Note_on_c, 0, 68, 0
1, 236280, Note_on_c, 0, 60, 0
1, 236280, Note_on_c, 0, 56, 0
1, 236280, Note_on_c, 0, 53, 0
1, 236280, Note_on_c, 0, 61, 45
1, 236280, Note_on_c, 0, 67, 54
1, 236280, Note_on_c, 0, 69, 77
1, 236280, Note_on_c, 0, 39, 51
1, 236280, Note_on_c, 0, 51, 72
1, 236326, Control_c, 0, 64, 127
1, 236400, Tempo, 681973
1, 236400, Note_on_c, 0, 51, 0
1, 236400, Note_on_c, 0, 69, 0
1, 236400, Note_on_c, 0, 39, 0
1, 236400, Note_on_c, 0, 70, 73
1, 236520, Tempo, 645300
1, 236520, Note_on_c, 0, 70, 0
1, 236520, Note_on_c, 0, 67, 0
1, 236520, Note_on_c, 0, 61, 0
1, 236520, Note_on_c, 0, 61, 43
1, 236520, Note_on_c, 0, 67, 51
1, 236520, Note_on_c, 0, 72, 73
1, 236520, Note_on_c, 0, 51, 48
1, 236520, Note_on_c, 0, 58, 68
1, 236535, Control_c, 0, 64, 0
1, 236640, Tempo, 689655
1, 236640, Note_on_c, 0, 72, 0
1, 236640, Note_on_c, 0, 73, 74
1, 236760, Tempo, 652174
1, 236760, Note_on_c, 0, 73, 0
1, 236760, Note_on_c, 0, 58, 0
1, 236760, Note_on_c, 0, 61, 0
1, 236760, Note_on_c, 0, 67, 0
1, 236760, Note_on_c, 0, 51, 0
1, 236760, Note_on_c, 0, 60, 57
1, 236760, Note_on_c, 0, 68, 68
1, 236760, Note_on_c, 0, 72, 81
1, 236760, Note_on_c, 0, 44, 50
1, 236760, Note_on_c, 0, 51, 50
1, 236760, Note_on_c, 0, 56, 70
1, 237000, Tempo, 652174
1, 237000, Note_on_c, 0, 56, 0
1, 237000, Note_on_c, 0, 68, 0
1, 237000, Note_on_c, 0, 72, 0
1, 237000, Note_on_c, 0, 60, 0
1, 237000, Note_on_c, 0, 51, 0
1, 237000, Note_on_c, 0, 44, 0
1, 237000, Note_on_c, 0, 77, 83
1, 237000, Note_on_c, 0, 59, 70
1, 237000, Note_on_c, 0, 62, 70
1, 237000, Note_on_c, 0, 65, 70
1, 237000, Note_on_c, 0, 68, 70
1, 237180, Note_on_c, 0, 68, 0
1, 237180, Note_on_c, 0, 62, 0
1, 237180, Note_on_c, 0, 77, 0
1, 237180, Note_on_c, 0, 59, 0
1, 237180, Note_on_c, 0, 65, 0
1, 237180, Note_on_c, 0, 63, 63
1, 237180, Note_on_c, 0, 60, 63
1, 237180, Note_on_c, 0, 75, 75
1, 237180, Note_on_c, 0, 68, 63
1, 237234, Note_on_c, 0, 68, 0
1, 237234, Note_on_c, 0, 63, 0
1, 237234, Note_on_c, 0, 60, 0
1, 237234, Note_on_c, 0, 75, 0
1, 237240, Note_on_c, 0, 60, 71
1, 237240, Note_on_c, 0, 75, 84
1, 237240, Note_on_c, 0, 63, 71
1, 237240, Note_on_c, 0, 68, 71
1, 237360, Note_on_c, 0, 68, 0
1, 237360, Note_on_c, 0, 60, 0
1, 237360, Note_on_c, 0, 75, 0
1, 237360, Note_on_c, 0, 63, 0
1, 237360, Note_on_c, 0, 68, 79
1, 237480, Tempo, 674157
1, 237480, Note_on_c, 0, 80, 83
1, 237480, Note_on_c, 0, 44, 61
1, 237480, Note_on_c, 0, 56, 72
1, 237600, Note_on_c, 0, 80, 0
1, 237600, Note_on_c, 0, 68, 0
1, 237660, Note_on_c, 0, 67, 64
1, 237660, Note_on_c, 0, 79, 77
1, 237720, Tempo, 701754
1, 237720, Note_on_c, 0, 79, 0
1, 237720, Note_on_c, 0, 56, 0
1, 237720, Note_on_c, 0, 44, 0
1, 237720, Note_on_c, 0, 67, 0
1, 237720, Note_on_c, 0, 65, 64
1, 237720, Note_on_c, 0, 77, 77
1, 237720, Note_on_c, 0, 37, 62
1, 237720, Note_on_c, 0, 49, 74
1, 237755, Control_c, 0, 64, 0
1, 237801, Control_c, 0, 64, 127
1, 237960, Tempo, 655738
1, 237960, Note_on_c, 0, 49, 0
1, 237960, Note_on_c, 0, 37, 0
1, 237960, Note_on_c, 0, 53, 55
1, 237960, Note_on_c, 0, 58, 64
1, 238180, Tempo, 662983
1, 238200, Tempo, 659341
1, 238200, Note_on_c, 0, 58, 0
1, 238200, Note_on_c, 0, 65, 0
1, 238200, Note_on_c, 0, 77, 0
1, 238200, Note_on_c, 0, 53, 0
1, 238200, Note_on_c, 0, 67, 70
1, 238200, Note_on_c, 0, 36, 63
1, 238200, Note_on_c, 0, 48, 75
1, 238220, Tempo, 652174
1, 238232, Control_c, 0, 64, 0
1, 238240, Tempo, 648649
1, 238260, Tempo, 641711
1, 238278, Control_c, 0, 64, 127
1, 238280, Tempo, 638298
1, 238300, Tempo, 631579
1, 238320, Tempo, 628272
1, 238320, Note_on_c, 0, 67, 0
1, 238320, Note_on_c, 0, 79, 71
1, 238340, Tempo, 621762
1, 238360, Tempo, 618557
1, 238360, Note_on_c, 0, 79, 0
1, 238360, Note_on_c, 0, 80, 72
1, 238380, Tempo, 612245
1, 238400, Tempo, 609137
1, 238400, Note_on_c, 0, 80, 0
1, 238400, Note_on_c, 0, 79, 71
1, 238420, Tempo, 603015
1, 238440, Tempo, 652174
1, 238440, Note_on_c, 0, 79, 0
1, 238440, Note_on_c, 0, 48, 0
1, 238440, Note_on_c, 0, 36, 0
1, 238440, Note_on_c, 0, 65, 61
1, 238440, Note_on_c, 0, 77, 72
1, 238440, Note_on_c, 0, 58, 57
1, 238440, Note_on_c, 0, 64, 68
1, 238440, Note_on_c, 0, 60, 57
1, 238449, Control_c, 0, 64, 0
1, 238560, Note_on_c, 0, 77, 0
1, 238560, Note_on_c, 0, 65, 0
1, 238560, Note_on_c, 0, 67, 61
1, 238560, Note_on_c, 0, 79, 73
1, 238660, Tempo, 648649
1, 238680, Tempo, 645161
1, 238680, Note_on_c, 0, 79, 0
1, 238680, Note_on_c, 0, 64, 0
1, 238680, Note_on_c, 0, 60, 0
1, 238680, Note_on_c, 0, 58, 0
1, 238680, Note_on_c, 0, 67, 0
1, 238680, Note_on_c, 0, 68, 70
1, 238680, Note_on_c, 0, 29, 66
1, 238680, Note_on_c, 0, 41, 78
1, 238700, Tempo, 641711
1, 238720, Tempo, 638298
1, 238740, Tempo, 634921
1, 238747, Control_c, 0, 64, 127
1, 238760, Tempo, 631579
1, 238780, Tempo, 625000
1, 238800, Tempo, 621762
1, 238800, Note_on_c, 0, 68, 0
1, 238800, Note_on_c, 0, 80, 71
1, 238820, Tempo, 618557
1, 238840, Tempo, 615385
1, 238840, Note_on_c, 0, 80, 0
1, 238840, Note_on_c, 0, 82, 71
1, 238860, Tempo, 612245
1, 238880, Tempo, 609137
1, 238880, Note_on_c, 0, 82, 0
1, 238880, Note_on_c, 0, 80, 71
1, 238900, Tempo, 603015
1, 238920, Tempo, 652174
1, 238920, Note_on_c, 0, 80, 0
1, 238920, Note_on_c, 0, 41, 0
1, 238920, Note_on_c, 0, 29, 0
1, 238920, Note_on_c, 0, 67, 66
1, 238920, Note_on_c, 0, 79, 78
1, 238920, Note_on_c, 0, 53, 68
1, 238920, Note_on_c, 0, 56, 70
1, 238920, Note_on_c, 0, 60, 73
1, 238920, Note_on_c, 0, 65, 73
1, 238933, Control_c, 0, 64, 0
1, 239040, Note_on_c, 0, 79, 0
1, 239040, Note_on_c, 0, 67, 0
1, 239040, Note_on_c, 0, 68, 67
1, 239040, Note_on_c, 0, 80, 79
1, 239160, Tempo, 655881
1, 239160, Note_on_c, 0, 80, 0
1, 239160, Note_on_c, 0, 65, 0
1, 239160, Note_on_c, 0, 53, 0
1, 239160, Note_on_c, 0, 56, 0
1, 239160, Note_on_c, 0, 68, 0
1, 239160, Note_on_c, 0, 60, 0
1, 239160, Note_on_c, 0, 69, 49
1, 239160, Note_on_c, 0, 75, 69
1, 239160, Note_on_c, 0, 81, 82
1, 239160, Note_on_c, 0, 39, 64
1, 239160, Note_on_c, 0, 51, 77
1, 239206, Control_c, 0, 64, 127
1, 239280, Tempo, 681973
1, 239280, Note_on_c, 0, 51, 0
1, 239280, Note_on_c, 0, 81, 0
1, 239280, Note_on_c, 0, 69, 0
1, 239280, Note_on_c, 0, 75, 0
1, 239280, Note_on_c, 0, 39, 0
1, 239280, Note_on_c, 0, 70, 69
1, 239280, Note_on_c, 0, 82, 77
1, 239400, Tempo, 641849
1, 239400, Note_on_c, 0, 82, 0
1, 239400, Note_on_c, 0, 70, 0
1, 239400, Note_on_c, 0, 72, 45
1, 239400, Note_on_c, 0, 79, 64
1, 239400, Note_on_c, 0, 84, 77
1, 239400, Note_on_c, 0, 58, 43
1, 239400, Note_on_c, 0, 61, 43
1, 239400, Note_on_c, 0, 63, 60
1, 239400, Note_on_c, 0, 67, 71
1, 239415, Control_c, 0, 64, 0
1, 239520, Tempo, 674309
1, 239520, Note_on_c, 0, 84, 0
1, 239520, Note_on_c, 0, 72, 0
1, 239520, Note_on_c, 0, 79, 0
1, 239520, Note_on_c, 0, 73, 64
1, 239520, Note_on_c, 0, 85, 77
1, 239640, Tempo, 681818
1, 239640, Note_on_c, 0, 85, 0
1, 239640, Note_on_c, 0, 63, 0
1, 239640, Note_on_c, 0, 67, 0
1, 239640, Note_on_c, 0, 58, 0
1, 239640, Note_on_c, 0, 73, 0
1, 239640, Note_on_c, 0, 61, 0
1, 239640, Note_on_c, 0, 72, 69
1, 239640, Note_on_c, 0, 80, 69
1, 239640, Note_on_c, 0, 84, 82
1, 239640, Note_on_c, 0, 56, 60
1, 239640, Note_on_c, 0, 63, 60
1, 239640, Note_on_c, 0, 68, 71
1, 239760, Note_on_c, 0, 68, 0
1, 239760, Note_on_c, 0, 80, 0
1, 239760, Note_on_c, 0, 84, 0
1, 239760, Note_on_c, 0, 72, 0
1, 239760, Note_on_c, 0, 63, 0
1, 239760, Note_on_c, 0, 56, 0
1, 239880, Tempo, 689655
1, 239880, Note_on_c, 0, 77, 70
1, 239880, Note_on_c, 0, 80, 70
1, 239880, Note_on_c, 0, 89, 83
1, 239880, Note_on_c, 0, 68, 70
1, 239880, Note_on_c, 0, 59, 70
1, 239880, Note_on_c, 0, 62, 70
1, 239880, Note_on_c, 0, 71, 70
1, 240000, Tempo, 710059
1, 240060, Note_on_c, 0, 71, 0
1, 240060, Note_on_c, 0, 59, 0
1, 240060, Note_on_c, 0, 80, 0
1, 240060, Note_on_c, 0, 89, 0
1, 240060, Note_on_c, 0, 77, 0
1, 240060, Note_on_c, 0, 62, 0
1, 240060, Note_on_c, 0, 68, 0
1, 240060, Note_on_c, 0, 75, 63
1, 240060, Note_on_c, 0, 80, 63
1, 240060, Note_on_c, 0, 87, 75
1, 240060, Note_on_c, 0, 68, 63
1, 240060, Note_on_c, 0, 60, 63
1, 240060, Note_on_c, 0, 72, 63
1, 240060, Note_on_c, 0, 63, 63
1, 240114, Note_on_c, 0, 63, 0
1, 240114, Note_on_c, 0, 60, 0
1, 240114, Note_on_c, 0, 80, 0
1, 240114, Note_on_c, 0, 87, 0
1, 240114, Note_on_c, 0, 75, 0
1, 240114, Note_on_c, 0, 72, 0
1, 240114, Note_on_c, 0, 68, 0
1, 240120, Tempo, 689655
1, 240120, Note_on_c, 0, 75, 71
1, 240120, Note_on_c, 0, 80, 71
1, 240120, Note_on_c, 0, 87, 84
1, 240120, Note_on_c, 0, 68, 71
1, 240120, Note_on_c, 0, 72, 71
1, 240120, Note_on_c, 0, 60, 71
1, 240120, Note_on_c, 0, 63, 71
1, 240240, Note_on_c, 0, 63, 0
1, 240240, Note_on_c, 0, 72, 0
1, 240240, Note_on_c, 0, 80, 0
1, 240240, Note_on_c, 0, 87, 0
1, 240240, Note_on_c, 0, 75, 0
1, 240240, Note_on_c, 0, 60, 0
1, 240240, Note_on_c, 0, 68, 0
1, 240270, Note_on_c, 0, 53, 61
1, 240300, Note_on_c, 0, 87, 66
1, 240300, Note_on_c, 0, 75, 66
1, 240300, Note_on_c, 0, 60, 61
1, 240300, Control_c, 0, 64, 127
1, 240330, Note_on_c, 0, 63, 61
1, 240360, Tempo, 666667
1, 240360, Note_on_c, 0, 75, 0
1, 240360, Note_on_c, 0, 87, 0
1, 240360, Note_on_c, 0, 73, 70
1, 240360, Note_on_c, 0, 81, 70
1, 240360, Note_on_c, 0, 85, 83
1, 240360, Note_on_c, 0, 69, 72
1, 240540, Note_on_c, 0, 69, 0
1, 240540, Note_on_c, 0, 81, 0
1, 240540, Note_on_c, 0, 60, 0
1, 240540, Note_on_c, 0, 53, 0
1, 240540, Note_on_c, 0, 63, 0
1, 240540, Note_on_c, 0, 85, 0
1, 240540, Note_on_c, 0, 73, 0
1, 240540, Note_on_c, 0, 72, 64
1, 240540, Note_on_c, 0, 84, 77
1, 240540, Note_on_c, 0, 46, 66
1, 240570, Note_on_c, 0, 53, 66
1, 240575, Control_c, 0, 64, 0
1, 240600, Tempo, 697674
1, 240600, Note_on_c, 0, 84, 0
1, 240600, Note_on_c, 0, 72, 0
1, 240600, Note_on_c, 0, 70, 70
1, 240600, Note_on_c, 0, 82, 83
1, 240600, Note_on_c, 0, 61, 78
1, 240640, Control_c, 0, 64, 127
1, 240720, Note_on_c, 0, 82, 0
1, 240720, Note_on_c, 0, 70, 0
1, 240780, Note_on_c, 0, 53, 0
1, 240780, Note_on_c, 0, 46, 0
1, 240780, Note_on_c, 0, 61, 0
1, 240780, Note_on_c, 0, 51, 61
1, 240809, Control_c, 0, 64, 0
1, 240810, Note_on_c, 0, 58, 61
1, 240840, Tempo, 674157
1, 240840, Note_on_c, 0, 70, 64
1, 240840, Note_on_c, 0, 78, 64
1, 240840, Note_on_c, 0, 82, 77
1, 240840, Note_on_c, 0, 66, 72
1, 240883, Control_c, 0, 64, 127
1, 241020, Note_on_c, 0, 66, 0
1, 241020, Note_on_c, 0, 58, 0
1, 241020, Note_on_c, 0, 70, 0
1, 241020, Note_on_c, 0, 51, 0
1, 241020, Note_on_c, 0, 82, 0
1, 241020, Note_on_c, 0, 78, 0
1, 241020, Note_on_c, 0, 72, 64
1, 241020, Note_on_c, 0, 84, 77
1, 241020, Note_on_c, 0, 46, 57
1, 241031, Control_c, 0, 64, 0
1, 241050, Note_on_c, 0, 53, 57
1, 241080, Tempo, 677966
1, 241080, Note_on_c, 0, 84, 0
1, 241080, Note_on_c, 0, 72, 0
1, 241080, Note_on_c, 0, 73, 68
1, 241080, Note_on_c, 0, 77, 68
1, 241080, Note_on_c, 0, 85, 81
1, 241080, Note_on_c, 0, 61, 68
1, 241120, Tempo, 701754
1, 241120, Control_c, 0, 64, 127
1, 241260, Note_on_c, 0, 61, 0
1, 241260, Note_on_c, 0, 53, 0
1, 241260, Note_on_c, 0, 46, 0
1, 241260, Note_on_c, 0, 39, 57
1, 241266, Control_c, 0, 64, 0
1, 241290, Note_on_c, 0, 46, 57
1, 241320, Tempo, 670391
1, 241320, Note_on_c, 0, 77, 0
1, 241320, Note_on_c, 0, 73, 0
1, 241320, Note_on_c, 0, 85, 0
1, 241320, Note_on_c, 0, 75, 67
1, 241320, Note_on_c, 0, 73, 67
1, 241320, Note_on_c, 0, 85, 79
1, 241320, Note_on_c, 0, 78, 67
1, 241320, Note_on_c, 0, 54, 68
1, 241354, Control_c, 0, 64, 127
1, 241500, Note_on_c, 0, 54, 0
1, 241500, Note_on_c, 0, 85, 0
1, 241500, Note_on_c, 0, 39, 0
1, 241500, Note_on_c, 0, 75, 0
1, 241500, Note_on_c, 0, 46, 0
1, 241500, Note_on_c, 0, 78, 0
1, 241500, Note_on_c, 0, 73, 0
1, 241500, Note_on_c, 0, 72, 63
1, 241500, Note_on_c, 0, 84, 75
1, 241500, Note_on_c, 0, 34, 57
1, 241529, Control_c, 0, 64, 0
1, 241530, Note_on_c, 0, 41, 57
1, 241560, Tempo, 701754
1, 241560, Note_on_c, 0, 84, 0
1, 241560, Note_on_c, 0, 72, 0
1, 241560, Note_on_c, 0, 70, 69
1, 241560, Note_on_c, 0, 77, 69
1, 241560, Note_on_c, 0, 82, 82
1, 241560, Note_on_c, 0, 49, 68
1, 241591, Control_c, 0, 64, 127
1, 241740, Note_on_c, 0, 49, 0
1, 241740, Note_on_c, 0, 41, 0
1, 241740, Note_on_c, 0, 34, 0
1, 241740, Note_on_c, 0, 39, 56
1, 241770, Note_on_c, 0, 46, 56
1, 241800, Tempo, 670391
1, 241800, Note_on_c, 0, 77, 0
1, 241800, Note_on_c, 0, 70, 0
1, 241800, Note_on_c, 0, 82, 0
1, 241800, Note_on_c, 0, 68, 67
1, 241800, Note_on_c, 0, 75, 67
1, 241800, Note_on_c, 0, 80, 79
1, 241800, Note_on_c, 0, 70, 67
1, 241800, Note_on_c, 0, 54, 67
1, 241849, Control_c, 0, 64, 0
1, 241897, Control_c, 0, 64, 127
1, 241980, Note_on_c, 0, 54, 0
1, 241980, Note_on_c, 0, 80, 0
1, 241980, Note_on_c, 0, 39, 0
1, 241980, Note_on_c, 0, 68, 0
1, 241980, Note_on_c, 0, 46, 0
1, 241980, Note_on_c, 0, 70, 0
1, 241980, Note_on_c, 0, 75, 0
1, 241980, Note_on_c, 0, 66, 62
1, 241980, Note_on_c, 0, 78, 74
1, 241980, Note_on_c, 0, 46, 61
1, 242010, Note_on_c, 0, 53, 61
1, 242040, Time_signature, 17, 4, 6, 8
1, 242040, Note_on_c, 0, 78, 0
1, 242040, Note_on_c, 0, 66, 0
1, 242040, Note_on_c, 0, 73, 66
1, 242040, Note_on_c, 0, 77, 78
1, 242040, Note_on_c, 0, 65, 66
1, 242040, Note_on_c, 0, 61, 72
1, 242060, Control_c, 0, 64, 0
1, 242080, Tempo, 693642
1, 242097, Control_c, 0, 64, 127
1, 242160, Note_on_c, 0, 65, 0
1, 242160, Note_on_c, 0, 77, 0
1, 242160, Note_on_c, 0, 73, 0
1, 242220, Note_on_c, 0, 53, 0
1, 242220, Note_on_c, 0, 61, 0
1, 242220, Note_on_c, 0, 46, 0
1, 242280, Note_on_c, 0, 45, 64
1, 242280, Note_on_c, 0, 33, 55
1, 242291, Control_c, 0, 64, 0
1, 242292, Tempo, 666667
1, 242320, Control_c, 0, 64, 127
1, 242340, Note_on_c, 0, 33, 0
1, 242340, Note_on_c, 0, 45, 0
1, 242340, Note_on_c, 0, 46, 64
1, 242340, Note_on_c, 0, 34, 55
1, 242384, Tempo, 662983
1, 242400, Note_on_c, 0, 34, 0
1, 242400, Note_on_c, 0, 46, 0
1, 242400, Note_on_c, 0, 48, 66
1, 242400, Note_on_c, 0, 36, 56
1, 242460, Note_on_c, 0, 36, 0
1, 242460, Note_on_c, 0, 48, 0
1, 242460, Note_on_c, 0, 49, 67
1, 242460, Note_on_c, 0, 37, 56
1, 242464, Tempo, 659341
1, 242520, Note_on_c, 0, 37, 0
1, 242520, Note_on_c, 0, 49, 0
1, 242520, Note_on_c, 0, 51, 67
1, 242520, Note_on_c, 0, 39, 56
1, 242544, Tempo, 655738
1, 242580, Note_on_c, 0, 39, 0
1, 242580, Note_on_c, 0, 51, 0
1, 242580, Note_on_c, 0, 53, 68
1, 242580, Note_on_c, 0, 41, 57
1, 242624, Tempo, 652174
1, 242640, Note_on_c, 0, 41, 0
1, 242640, Note_on_c, 0, 53, 0
1, 242640, Note_on_c, 0, 55, 69
1, 242640, Note_on_c, 0, 43, 58
1, 242700, Note_on_c, 0, 43, 0
1, 242700, Note_on_c, 0, 55, 0
1, 242700, Note_on_c, 0, 57, 69
1, 242700, Note_on_c, 0, 45, 58
1, 242704, Tempo, 648649
1, 242760, Note_on_c, 0, 45, 0
1, 242760, Note_on_c, 0, 57, 0
1, 242760, Note_on_c, 0, 58, 70
1, 242760, Note_on_c, 0, 46, 59
1, 242784, Tempo, 645161
1, 242820, Note_on_c, 0, 46, 0
1, 242820, Note_on_c, 0, 58, 0
1, 242820, Note_on_c, 0, 60, 71
1, 242820, Note_on_c, 0, 48, 60
1, 242864, Tempo, 641711
1, 242880, Note_on_c, 0, 48, 0
1, 242880, Note_on_c, 0, 60, 0
1, 242880, Note_on_c, 0, 61, 71
1, 242880, Note_on_c, 0, 49, 60
1, 242940, Note_on_c, 0, 49, 0
1, 242940, Note_on_c, 0, 61, 0
1, 242940, Note_on_c, 0, 63, 72
1, 242940, Note_on_c, 0, 51, 61
1, 242944, Tempo, 638298
1, 243000, Note_on_c, 0, 51, 0
1, 243000, Note_on_c, 0, 63, 0
1, 243000, Note_on_c, 0, 65, 73
1, 243000, Note_on_c, 0, 53, 61
1, 243024, Tempo, 634921
1, 243060, Note_on_c, 0, 53, 0
1, 243060, Note_on_c, 0, 65, 0
1, 243060, Note_on_c, 0, 67, 73
1, 243060, Note_on_c, 0, 55, 61
1, 243104, Tempo, 631579
1, 243120, Note_on_c, 0, 55, 0
1, 243120, Note_on_c, 0, 67, 0
1, 243120, Note_on_c, 0, 69, 74
1, 243120, Note_on_c, 0, 57, 62
1, 243180, Note_on_c, 0, 57, 0
1, 243180, Note_on_c, 0, 69, 0
1, 243180, Note_on_c, 0, 70, 74
1, 243180, Note_on_c, 0, 58, 62
1, 243184, Tempo, 628272
1, 243240, Note_on_c, 0, 58, 0
1, 243240, Note_on_c, 0, 70, 0
1, 243240, Note_on_c, 0, 72, 75
1, 243240, Note_on_c, 0, 60, 63
1, 243264, Tempo, 625000
1, 243300, Note_on_c, 0, 60, 0
1, 243300, Note_on_c, 0, 72, 0
1, 243300, Note_on_c, 0, 73, 77
1, 243300, Note_on_c, 0, 61, 64
1, 243344, Tempo, 621762
1, 243360, Note_on_c, 0, 61, 0
1, 243360, Note_on_c, 0, 73, 0
1, 243360, Note_on_c, 0, 75, 77
1, 243360, Note_on_c, 0, 63, 64
1, 243420, Note_on_c, 0, 63, 0
1, 243420, Note_on_c, 0, 75, 0
1, 243420, Note_on_c, 0, 77, 78
1, 243420, Note_on_c, 0, 65, 66
1, 243424, Tempo, 618557
1, 243480, Note_on_c, 0, 65, 0
1, 243480, Note_on_c, 0, 77, 0
1, 243480, Note_on_c, 0, 79, 77
1, 243480, Note_on_c, 0, 67, 67
1, 243504, Tempo, 615385
1, 243540, Note_on_c, 0, 67, 0
1, 243540, Note_on_c, 0, 79, 0
1, 243540, Note_on_c, 0, 81, 77
1, 243540, Note_on_c, 0, 69, 65
1, 243584, Tempo, 612245
1, 243600, Note_on_c, 0, 69, 0
1, 243600, Note_on_c, 0, 81, 0
1, 243600, Note_on_c, 0, 82, 78
1, 243600, Note_on_c, 0, 70, 66
1, 243660, Note_on_c, 0, 70, 0
1, 243660, Note_on_c, 0, 82, 0
1, 243660, Note_on_c, 0, 84, 79
1, 243660, Note_on_c, 0, 72, 67
1, 243664, Tempo, 609137
1, 243720, Note_on_c, 0, 72, 0
1, 243720, Note_on_c, 0, 84, 0
1, 243720, Note_on_c, 0, 85, 80
1, 243720, Note_on_c, 0, 73, 68
1, 243744, Tempo, 606061
1, 243780, Note_on_c, 0, 73, 0
1, 243780, Note_on_c, 0, 85, 0
1, 243780, Note_on_c, 0, 87, 80
1, 243780, Note_on_c, 0, 75, 69
1, 243824, Tempo, 603015
1, 243840, Note_on_c, 0, 75, 0
1, 243840, Note_on_c, 0, 87, 0
1, 243840, Note_on_c, 0, 89, 81
1, 243840, Note_on_c, 0, 77, 70
1, 243900, Note_on_c, 0, 77, 0
1, 243900, Note_on_c, 0, 89, 0
1, 243900, Note_on_c, 0, 91, 82
1, 243900, Note_on_c, 0, 79, 71
1, 243920, Tempo, 476190
1, 243990, Note_on_c, 0, 79, 0
1, 243990, Note_on_c, 0, 91, 0
1, 243990, Note_on_c, 0, 93, 83
1, 243990, Note_on_c, 0, 81, 72
1, 244050, Note_on_c, 0, 81, 0
1, 244080, Time_signature, 3, 2, 24, 8
1, 244080, Tempo, 635795
1, 244080, Note_on_c, 0, 93, 0
1, 244080, Note_on_c, 0, 94, 92
1, 244080, Note_on_c, 0, 82, 92
1, 244093, Control_c, 0, 64, 0
1, 244120, Tempo, 652174
1, 244200, Note_on_c, 0, 82, 0
1, 244200, Note_on_c, 0, 94, 0
1, 244260, Note_on_c, 0, 96, 85
1, 244320, Tempo, 631579
1, 244320, Note_on_c, 0, 96, 0
1, 244320, Note_on_c, 0, 85, 77
1, 244320, Note_on_c, 0, 94, 91
1, 244320, Note_on_c, 0, 91, 91
1, 244320, Note_on_c, 0, 27, 68
1, 244320, Note_on_c, 0, 39, 80
1, 244331, Control_c, 0, 64, 127
1, 244440, Note_on_c, 0, 39, 0
1, 244440, Note_on_c, 0, 91, 0
1, 244440, Note_on_c, 0, 85, 0
1, 244440, Note_on_c, 0, 94, 0
1, 244440, Note_on_c, 0, 27, 0
1, 244440, Note_on_c, 0, 90, 85
1, 244440, Note_on_c, 0, 84, 72
1, 244440, Note_on_c, 0, 93, 85
1, 244560, Tempo, 670391
1, 244560, Note_on_c, 0, 93, 0
1, 244560, Note_on_c, 0, 84, 0
1, 244560, Note_on_c, 0, 90, 0
1, 244560, Note_on_c, 0, 85, 75
1, 244560, Note_on_c, 0, 91, 90
1, 244560, Note_on_c, 0, 94, 90
1, 244560, Note_on_c, 0, 51, 61
1, 244560, Note_on_c, 0, 63, 72
1, 244680, Note_on_c, 0, 63, 0
1, 244680, Note_on_c, 0, 51, 0
1, 244800, Tempo, 628272
1, 244800, Note_on_c, 0, 85, 0
1, 244800, Note_on_c, 0, 91, 0
1, 244800, Note_on_c, 0, 94, 0
1, 244800, Note_on_c, 0, 84, 72
1, 244800, Note_on_c, 0, 91, 85
1, 244800, Note_on_c, 0, 96, 85
1, 244800, Note_on_c, 0, 72, 67
1, 244800, Note_on_c, 0, 67, 67
1, 244800, Note_on_c, 0, 63, 67
1, 244800, Note_on_c, 0, 75, 79
1, 244811, Control_c, 0, 64, 0
1, 245040, Tempo, 648649
1, 245040, Note_on_c, 0, 75, 0
1, 245040, Note_on_c, 0, 67, 0
1, 245040, Note_on_c, 0, 91, 0
1, 245040, Note_on_c, 0, 96, 0
1, 245040, Note_on_c, 0, 84, 0
1, 245040, Note_on_c, 0, 63, 0
1, 245040, Note_on_c, 0, 72, 0
1, 245040, Note_on_c, 0, 80, 74
1, 245040, Note_on_c, 0, 84, 74
1, 245040, Note_on_c, 0, 92, 88
1, 245040, Note_on_c, 0, 77, 77
1, 245040, Note_on_c, 0, 72, 64
1, 245040, Note_on_c, 0, 65, 64
1, 245280, Tempo, 639522
1, 245280, Note_on_c, 0, 65, 0
1, 245280, Note_on_c, 0, 84, 0
1, 245280, Note_on_c, 0, 92, 0
1, 245280, Note_on_c, 0, 80, 0
1, 245280, Note_on_c, 0, 72, 0
1, 245280, Note_on_c, 0, 77, 0
1, 245280, Note_on_c, 0, 75, 72
1, 245280, Note_on_c, 0, 80, 72
1, 245280, Note_on_c, 0, 87, 85
1, 245280, Note_on_c, 0, 60, 61
1, 245280, Note_on_c, 0, 68, 61
1, 245280, Note_on_c, 0, 72, 72
1, 245320, Tempo, 677966
1, 245520, Tempo, 638298
1, 245520, Note_on_c, 0, 72, 0
1, 245520, Note_on_c, 0, 80, 0
1, 245520, Note_on_c, 0, 87, 0
1, 245520, Note_on_c, 0, 75, 0
1, 245520, Note_on_c, 0, 68, 0
1, 245520, Note_on_c, 0, 60, 0
1, 245520, Note_on_c, 0, 77, 74
1, 245520, Note_on_c, 0, 80, 74
1, 245520, Note_on_c, 0, 89, 88
1, 245520, Note_on_c, 0, 73, 77
1, 245520, Note_on_c, 0, 68, 64
1, 245520, Note_on_c, 0, 61, 64
1, 245760, Tempo, 674157
1, 245760, Note_on_c, 0, 61, 0
1, 245760, Note_on_c, 0, 80, 0
1, 245760, Note_on_c, 0, 89, 0
1, 245760, Note_on_c, 0, 77, 0
1, 245760, Note_on_c, 0, 68, 0
1, 245760, Note_on_c, 0, 73, 0
1, 245760, Note_on_c, 0, 75, 72
1, 245760, Note_on_c, 0, 80, 72
1, 245760, Note_on_c, 0, 87, 85
1, 245760, Note_on_c, 0, 60, 61
1, 245760, Note_on_c, 0, 68, 61
1, 245760, Note_on_c, 0, 72, 72
1, 246000, Tempo, 641711
1, 246000, Note_on_c, 0, 72, 0
1, 246000, Note_on_c, 0, 80, 0
1, 246000, Note_on_c, 0, 87, 0
1, 246000, Note_on_c, 0, 75, 0
1, 246000, Note_on_c, 0, 68, 0
1, 246000, Note_on_c, 0, 60, 0
1, 246000, Note_on_c, 0, 72, 70
1, 246000, Note_on_c, 0, 75, 70
1, 246000, Note_on_c, 0, 84, 83
1, 246000, Note_on_c, 0, 68, 73
1, 246000, Note_on_c, 0, 63, 60
1, 246000, Note_on_c, 0, 56, 60
1, 246240, Tempo, 639522
1, 246240, Note_on_c, 0, 56, 0
1, 246240, Note_on_c, 0, 75, 0
1, 246240, Note_on_c, 0, 84, 0
1, 246240, Note_on_c, 0, 72, 0
1, 246240, Note_on_c, 0, 63, 0
1, 246240, Note_on_c, 0, 68, 0
1, 246240, Note_on_c, 0, 68, 68
1, 246240, Note_on_c, 0, 72, 68
1, 246240, Note_on_c, 0, 80, 80
1, 246240, Note_on_c, 0, 53, 57
1, 246240, Note_on_c, 0, 65, 68
1, 246280, Tempo, 681818
1, 246480, Tempo, 645161
1, 246480, Note_on_c, 0, 65, 0
1, 246480, Note_on_c, 0, 80, 0
1, 246480, Note_on_c, 0, 68, 0
1, 246480, Note_on_c, 0, 72, 0
1, 246480, Note_on_c, 0, 53, 0
1, 246480, Note_on_c, 0, 65, 70
1, 246480, Note_on_c, 0, 68, 70
1, 246480, Note_on_c, 0, 77, 83
1, 246480, Note_on_c, 0, 61, 73
1, 246480, Note_on_c, 0, 56, 60
1, 246480, Note_on_c, 0, 49, 60
1, 246720, Tempo, 685714
1, 246720, Note_on_c, 0, 49, 0
1, 246720, Note_on_c, 0, 68, 0
1, 246720, Note_on_c, 0, 77, 0
1, 246720, Note_on_c, 0, 65, 0
1, 246720, Note_on_c, 0, 56, 0
1, 246720, Note_on_c, 0, 61, 0
1, 246720, Note_on_c, 0, 63, 68
1, 246720, Note_on_c, 0, 67, 68
1, 246720, Note_on_c, 0, 75, 80
1, 246720, Note_on_c, 0, 51, 57
1, 246720, Note_on_c, 0, 58, 57
1, 246720, Note_on_c, 0, 61, 68
1, 246960, Tempo, 646900
1, 246960, Note_on_c, 0, 61, 0
1, 246960, Note_on_c, 0, 67, 0
1, 246960, Note_on_c, 0, 75, 0
1, 246960, Note_on_c, 0, 63, 0
1, 246960, Note_on_c, 0, 58, 0
1, 246960, Note_on_c, 0, 51, 0
1, 246960, Note_on_c, 0, 60, 68
1, 246960, Note_on_c, 0, 68, 68
1, 246960, Note_on_c, 0, 72, 80
1, 246960, Note_on_c, 0, 32, 57
1, 246960, Note_on_c, 0, 44, 68
1, 247012, Control_c, 0, 64, 127
1, 247080, Note_on_c, 0, 44, 0
1, 247080, Note_on_c, 0, 72, 0
1, 247080, Note_on_c, 0, 60, 0
1, 247080, Note_on_c, 0, 68, 0
1, 247080, Note_on_c, 0, 32, 0
1, 247120, Control_c, 0, 64, 0
1, 247200, Tempo, 594059
1, 247200, Note_on_c, 0, 63, 66
1, 247200, Note_on_c, 0, 51, 57
1, 247200, Note_on_c, 0, 56, 57
1, 247200, Note_on_c, 0, 60, 68
1, 247235, Control_c, 0, 64, 127
1, 247260, Note_on_c, 0, 63, 0
1, 247260, Note_on_c, 0, 65, 61
1, 247320, Note_on_c, 0, 65, 0
1, 247320, Note_on_c, 0, 63, 65
1, 247380, Note_on_c, 0, 63, 0
1, 247380, Note_on_c, 0, 65, 61
1, 247440, Note_on_c, 0, 65, 0
1, 247440, Note_on_c, 0, 60, 0
1, 247440, Note_on_c, 0, 56, 0
1, 247440, Note_on_c, 0, 51, 0
1, 247440, Note_on_c, 0, 62, 81
1, 247440, Note_on_c, 0, 53, 62
1, 247440, Note_on_c, 0, 56, 62
1, 247440, Note_on_c, 0, 59, 73
1, 247445, Control_c, 0, 64, 0
1, 247492, Control_c, 0, 64, 127
1, 247640, Tempo, 562905
1, 247680, Note_on_c, 0, 59, 0
1, 247680, Note_on_c, 0, 62, 0
1, 247680, Note_on_c, 0, 53, 0
1, 247680, Note_on_c, 0, 56, 0
1, 247680, Note_on_c, 0, 65, 71
1, 247680, Note_on_c, 0, 41, 57
1, 247680, Note_on_c, 0, 53, 68
1, 247760, Note_on_c, 0, 65, 0
1, 247760, Note_on_c, 0, 68, 73
1, 247800, Tempo, 559754
1, 247800, Note_on_c, 0, 53, 0
1, 247800, Note_on_c, 0, 41, 0
1, 247840, Note_on_c, 0, 68, 0
1, 247840, Note_on_c, 0, 71, 75
1, 247920, Tempo, 556483
1, 247920, Note_on_c, 0, 71, 0
1, 247920, Note_on_c, 0, 74, 77
1, 247920, Note_on_c, 0, 29, 62
1, 247920, Note_on_c, 0, 41, 73
1, 248000, Note_on_c, 0, 74, 0
1, 248000, Note_on_c, 0, 77, 79
1, 248040, Note_on_c, 0, 41, 0
1, 248040, Note_on_c, 0, 29, 0
1, 248080, Tempo, 553403
1, 248080, Note_on_c, 0, 77, 0
1, 248080, Note_on_c, 0, 80, 81
1, 248120, Tempo, 547945
1, 248160, Tempo, 550459
1, 248160, Note_on_c, 0, 80, 0
1, 248160, Note_on_c, 0, 83, 83
1, 248160, Note_on_c, 0, 28, 63
1, 248160, Note_on_c, 0, 40, 75
1, 248174, Control_c, 0, 64, 0
1, 248200, Tempo, 555556
1, 248234, Control_c, 0, 64, 127
1, 248240, Tempo, 560748
1, 248240, Note_on_c, 0, 83, 0
1, 248240, Note_on_c, 0, 86, 85
1, 248280, Tempo, 563380
1, 248320, Tempo, 568720
1, 248320, Note_on_c, 0, 86, 0
1, 248320, Note_on_c, 0, 98, 87
1, 248360, Tempo, 574163
1, 248400, Tempo, 579710
1, 248400, Note_on_c, 0, 98, 0
1, 248400, Note_on_c, 0, 40, 0
1, 248400, Note_on_c, 0, 28, 0
1, 248400, Note_on_c, 0, 87, 89
1, 248400, Note_on_c, 0, 99, 89
1, 248400, Note_on_c, 0, 27, 64
1, 248400, Note_on_c, 0, 39, 76
1, 248404, Control_c, 0, 64, 0
1, 248440, Tempo, 603015
1, 248466, Control_c, 0, 64, 127
1, 248520, Note_on_c, 0, 39, 0
1, 248520, Note_on_c, 0, 87, 0
1, 248520, Note_on_c, 0, 99, 0
1, 248520, Note_on_c, 0, 27, 0
1, 248640, Tempo, 550560
1, 248640, Note_on_c, 0, 70, 75
1, 248640, Note_on_c, 0, 82, 89
1, 248640, Note_on_c, 0, 75, 75
1, 248640, Note_on_c, 0, 58, 60
1, 248640, Note_on_c, 0, 61, 60
1, 248640, Note_on_c, 0, 63, 60
1, 248640, Note_on_c, 0, 67, 71
1, 248700, Note_on_c, 0, 67, 0
1, 248700, Note_on_c, 0, 61, 0
1, 248700, Note_on_c, 0, 82, 0
1, 248700, Note_on_c, 0, 75, 0
1, 248700, Note_on_c, 0, 70, 0
1, 248700, Note_on_c, 0, 63, 0
1, 248700, Note_on_c, 0, 58, 0
1, 248760, Tempo, 574273
1, 248760, Note_on_c, 0, 70, 70
1, 248760, Note_on_c, 0, 82, 83
1, 248760, Note_on_c, 0, 75, 70
1, 248760, Note_on_c, 0, 58, 56
1, 248760, Note_on_c, 0, 61, 56
1, 248760, Note_on_c, 0, 63, 56
1, 248760, Note_on_c, 0, 67, 67
1, 248820, Note_on_c, 0, 67, 0
1, 248820, Note_on_c, 0, 61, 0
1, 248820, Note_on_c, 0, 82, 0
1, 248820, Note_on_c, 0, 75, 0
1, 248820, Note_on_c, 0, 70, 0
1, 248820, Note_on_c, 0, 63, 0
1, 248820, Note_on_c, 0, 58, 0
1, 248880, Tempo, 576923
1, 248880, Note_on_c, 0, 70, 75
1, 248880, Note_on_c, 0, 75, 75
1, 248880, Note_on_c, 0, 82, 89
1, 248880, Note_on_c, 0, 58, 60
1, 248880, Note_on_c, 0, 61, 60
1, 248880, Note_on_c, 0, 63, 60
1, 248880, Note_on_c, 0, 67, 71
1, 249000, Note_on_c, 0, 67, 0
1, 249000, Note_on_c, 0, 61, 0
1, 249000, Note_on_c, 0, 75, 0
1, 249000, Note_on_c, 0, 82, 0
1, 249000, Note_on_c, 0, 70, 0
1, 249000, Note_on_c, 0, 63, 0
1, 249000, Note_on_c, 0, 58, 0
1, 249085, Control_c, 0, 64, 0
1, 249120, Tempo, 591250
1, 249120, Note_on_c, 0, 69, 70
1, 249120, Note_on_c, 0, 75, 70
1, 249120, Note_on_c, 0, 81, 83
1, 249120, Note_on_c, 0, 58, 55
1, 249120, Note_on_c, 0, 61, 55
1, 249120, Note_on_c, 0, 63, 55
1, 249120, Note_on_c, 0, 66, 65
1, 249142, Control_c, 0, 64, 127
1, 249240, Tempo, 625130
1, 249240, Note_on_c, 0, 66, 0
1, 249240, Note_on_c, 0, 61, 0
1, 249240, Note_on_c, 0, 75, 0
1, 249240, Note_on_c, 0, 81, 0
1, 249240, Note_on_c, 0, 69, 0
1, 249240, Note_on_c, 0, 63, 0
1, 249240, Note_on_c, 0, 58, 0
1, 249240, Note_on_c, 0, 70, 73
1, 249240, Note_on_c, 0, 75, 73
1, 249240, Note_on_c, 0, 82, 87
1, 249240, Note_on_c, 0, 58, 58
1, 249240, Note_on_c, 0, 61, 58
1, 249240, Note_on_c, 0, 63, 58
1, 249240, Note_on_c, 0, 67, 69
1, 249320, Tempo, 618557
1, 249360, Tempo, 588235
1, 249360, Note_on_c, 0, 67, 0
1, 249360, Note_on_c, 0, 61, 0
1, 249360, Note_on_c, 0, 75, 0
1, 249360, Note_on_c, 0, 82, 0
1, 249360, Note_on_c, 0, 70, 0
1, 249360, Note_on_c, 0, 63, 0
1, 249360, Note_on_c, 0, 58, 0
1, 249360, Note_on_c, 0, 72, 77
1, 249360, Note_on_c, 0, 75, 77
1, 249360, Note_on_c, 0, 84, 91
1, 249360, Note_on_c, 0, 58, 61
1, 249360, Note_on_c, 0, 61, 61
1, 249360, Note_on_c, 0, 63, 61
1, 249360, Note_on_c, 0, 68, 72
1, 249373, Control_c, 0, 64, 0
1, 249429, Control_c, 0, 64, 127
1, 249600, Tempo, 634921
1, 249600, Note_on_c, 0, 68, 0
1, 249600, Note_on_c, 0, 61, 0
1, 249600, Note_on_c, 0, 75, 0
1, 249600, Note_on_c, 0, 84, 0
1, 249600, Note_on_c, 0, 72, 0
1, 249600, Note_on_c, 0, 63, 0
1, 249600, Note_on_c, 0, 58, 0
1, 249600, Note_on_c, 0, 67, 75
1, 249600, Note_on_c, 0, 73, 75
1, 249600, Note_on_c, 0, 75, 75
1, 249600, Note_on_c, 0, 79, 89
1, 249600, Note_on_c, 0, 58, 59
1, 249600, Note_on_c, 0, 61, 59
1, 249600, Note_on_c, 0, 63, 59
1, 249600, Note_on_c, 0, 70, 70
1, 249840, Tempo, 597193
1, 249840, Note_on_c, 0, 70, 0
1, 249840, Note_on_c, 0, 67, 0
1, 249840, Note_on_c, 0, 58, 0
1, 249840, Note_on_c, 0, 73, 0
1, 249840, Note_on_c, 0, 75, 0
1, 249840, Note_on_c, 0, 79, 0
1, 249840, Note_on_c, 0, 61, 0
1, 249840, Note_on_c, 0, 63, 0
1, 249840, Note_on_c, 0, 68, 74
1, 249840, Note_on_c, 0, 72, 74
1, 249840, Note_on_c, 0, 80, 88
1, 249840, Note_on_c, 0, 44, 62
1, 249840, Note_on_c, 0, 56, 74
1, 249841, Control_c, 0, 64, 0
1, 249895, Control_c, 0, 64, 127
1, 249960, Note_on_c, 0, 56, 0
1, 249960, Note_on_c, 0, 80, 0
1, 249960, Note_on_c, 0, 68, 0
1, 249960, Note_on_c, 0, 72, 0
1, 249960, Note_on_c, 0, 44, 0
1, 250000, Control_c, 0, 64, 0
1, 250080, Tempo, 574163
1, 250080, Note_on_c, 0, 63, 66
1, 250080, Note_on_c, 0, 51, 57
1, 250080, Note_on_c, 0, 56, 57
1, 250080, Note_on_c, 0, 60, 68
1, 250140, Note_on_c, 0, 63, 0
1, 250140, Note_on_c, 0, 65, 61
1, 250200, Note_on_c, 0, 65, 0
1, 250200, Note_on_c, 0, 63, 65
1, 250260, Note_on_c, 0, 63, 0
1, 250260, Note_on_c, 0, 65, 61
1, 250320, Note_on_c, 0, 65, 0
1, 250320, Note_on_c, 0, 60, 0
1, 250320, Note_on_c, 0, 56, 0
1, 250320, Note_on_c, 0, 51, 0
1, 250320, Note_on_c, 0, 62, 81
1, 250320, Note_on_c, 0, 53, 62
1, 250320, Note_on_c, 0, 56, 62
1, 250320, Note_on_c, 0, 59, 73
1, 250340, Control_c, 0, 64, 127
1, 250520, Tempo, 562905
1, 250560, Note_on_c, 0, 59, 0
1, 250560, Note_on_c, 0, 62, 0
1, 250560, Note_on_c, 0, 53, 0
1, 250560, Note_on_c, 0, 56, 0
1, 250560, Note_on_c, 0, 65, 71
1, 250560, Note_on_c, 0, 41, 57
1, 250560, Note_on_c, 0, 53, 68
1, 250640, Note_on_c, 0, 65, 0
1, 250640, Note_on_c, 0, 68, 73
1, 250680, Tempo, 559754
1, 250680, Note_on_c, 0, 53, 0
1, 250680, Note_on_c, 0, 41, 0
1, 250720, Note_on_c, 0, 68, 0
1, 250720, Note_on_c, 0, 71, 75
1, 250800, Tempo, 556483
1, 250800, Note_on_c, 0, 71, 0
1, 250800, Note_on_c, 0, 74, 77
1, 250800, Note_on_c, 0, 29, 62
1, 250800, Note_on_c, 0, 41, 73
1, 250840, Tempo, 550459
1, 250880, Note_on_c, 0, 74, 0
1, 250880, Note_on_c, 0, 77, 79
1, 250920, Tempo, 552995
1, 250920, Note_on_c, 0, 41, 0
1, 250920, Note_on_c, 0, 29, 0
1, 250960, Tempo, 555556
1, 250960, Note_on_c, 0, 77, 0
1, 250960, Note_on_c, 0, 80, 81
1, 251040, Tempo, 558140
1, 251040, Note_on_c, 0, 80, 0
1, 251040, Note_on_c, 0, 83, 83
1, 251040, Note_on_c, 0, 28, 63
1, 251040, Note_on_c, 0, 40, 75
1, 251056, Control_c, 0, 64, 0
1, 251080, Tempo, 560748
1, 251114, Control_c, 0, 64, 127
1, 251120, Note_on_c, 0, 83, 0
1, 251120, Note_on_c, 0, 86, 85
1, 251160, Tempo, 563380
1, 251200, Tempo, 566038
1, 251200, Note_on_c, 0, 86, 0
1, 251200, Note_on_c, 0, 98, 87
1, 251240, Tempo, 568720
1, 251280, Tempo, 588235
1, 251280, Note_on_c, 0, 98, 0
1, 251280, Note_on_c, 0, 40, 0
1, 251280, Note_on_c, 0, 28, 0
1, 251280, Note_on_c, 0, 87, 89
1, 251280, Note_on_c, 0, 99, 89
1, 251280, Note_on_c, 0, 27, 64
1, 251280, Note_on_c, 0, 39, 76
1, 251282, Control_c, 0, 64, 0
1, 251346, Control_c, 0, 64, 127
1, 251400, Note_on_c, 0, 39, 0
1, 251400, Note_on_c, 0, 87, 0
1, 251400, Note_on_c, 0, 99, 0
1, 251400, Note_on_c, 0, 27, 0
1, 251520, Tempo, 540638
1, 251520, Note_on_c, 0, 70, 75
1, 251520, Note_on_c, 0, 82, 89
1, 251520, Note_on_c, 0, 75, 75
1, 251520, Note_on_c, 0, 58, 60
1, 251520, Note_on_c, 0, 61, 60
1, 251520, Note_on_c, 0, 63, 60
1, 251520, Note_on_c, 0, 67, 71
1, 251580, Note_on_c, 0, 67, 0
1, 251580, Note_on_c, 0, 61, 0
1, 251580, Note_on_c, 0, 82, 0
1, 251580, Note_on_c, 0, 75, 0
1, 251580, Note_on_c, 0, 70, 0
1, 251580, Note_on_c, 0, 63, 0
1, 251580, Note_on_c, 0, 58, 0
1, 251640, Tempo, 558243
1, 251640, Note_on_c, 0, 70, 70
1, 251640, Note_on_c, 0, 82, 83
1, 251640, Note_on_c, 0, 75, 70
1, 251640, Note_on_c, 0, 58, 56
1, 251640, Note_on_c, 0, 61, 56
1, 251640, Note_on_c, 0, 63, 56
1, 251640, Note_on_c, 0, 67, 67
1, 251700, Note_on_c, 0, 67, 0
1, 251700, Note_on_c, 0, 61, 0
1, 251700, Note_on_c, 0, 82, 0
1, 251700, Note_on_c, 0, 75, 0
1, 251700, Note_on_c, 0, 70, 0
1, 251700, Note_on_c, 0, 63, 0
1, 251700, Note_on_c, 0, 58, 0
1, 251760, Tempo, 571429
1, 251760, Note_on_c, 0, 70, 75
1, 251760, Note_on_c, 0, 75, 75
1, 251760, Note_on_c, 0, 82, 89
1, 251760, Note_on_c, 0, 58, 60
1, 251760, Note_on_c, 0, 61, 60
1, 251760, Note_on_c, 0, 63, 60
1, 251760, Note_on_c, 0, 67, 71
1, 251880, Note_on_c, 0, 67, 0
1, 251880, Note_on_c, 0, 61, 0
1, 251880, Note_on_c, 0, 75, 0
1, 251880, Note_on_c, 0, 82, 0
1, 251880, Note_on_c, 0, 70, 0
1, 251880, Note_on_c, 0, 63, 0
1, 251880, Note_on_c, 0, 58, 0
1, 251880, Note_on_c, 0, 72, 63
1, 251880, Note_on_c, 0, 75, 63
1, 251880, Note_on_c, 0, 84, 75
1, 251880, Note_on_c, 0, 58, 51
1, 251880, Note_on_c, 0, 61, 51
1, 251880, Note_on_c, 0, 63, 51
1, 251880, Note_on_c, 0, 68, 60
1, 252000, Tempo, 612245
1, 252000, Note_on_c, 0, 68, 0
1, 252000, Note_on_c, 0, 61, 0
1, 252000, Note_on_c, 0, 75, 0
1, 252000, Note_on_c, 0, 84, 0
1, 252000, Note_on_c, 0, 72, 0
1, 252000, Note_on_c, 0, 63, 0
1, 252000, Note_on_c, 0, 58, 0
1, 252000, Note_on_c, 0, 69, 70
1, 252000, Note_on_c, 0, 75, 70
1, 252000, Note_on_c, 0, 81, 83
1, 252000, Note_on_c, 0, 58, 55
1, 252000, Note_on_c, 0, 61, 55
1, 252000, Note_on_c, 0, 63, 55
1, 252000, Note_on_c, 0, 66, 65
1, 252012, Control_c, 0, 64, 0
1, 252067, Control_c, 0, 64, 127
1, 252120, Note_on_c, 0, 66, 0
1, 252120, Note_on_c, 0, 61, 0
1, 252120, Note_on_c, 0, 75, 0
1, 252120, Note_on_c, 0, 81, 0
1, 252120, Note_on_c, 0, 69, 0
1, 252120, Note_on_c, 0, 63, 0
1, 252120, Note_on_c, 0, 58, 0
1, 252120, Note_on_c, 0, 70, 73
1, 252120, Note_on_c, 0, 75, 73
1, 252120, Note_on_c, 0, 82, 87
1, 252120, Note_on_c, 0, 58, 58
1, 252120, Note_on_c, 0, 61, 58
1, 252120, Note_on_c, 0, 63, 58
1, 252120, Note_on_c, 0, 67, 69
1, 252240, Tempo, 689655
1, 252240, Note_on_c, 0, 67, 0
1, 252240, Note_on_c, 0, 61, 0
1, 252240, Note_on_c, 0, 75, 0
1, 252240, Note_on_c, 0, 82, 0
1, 252240, Note_on_c, 0, 70, 0
1, 252240, Note_on_c, 0, 63, 0
1, 252240, Note_on_c, 0, 58, 0
1, 252240, Note_on_c, 0, 72, 77
1, 252240, Note_on_c, 0, 75, 77
1, 252240, Note_on_c, 0, 84, 91
1, 252240, Note_on_c, 0, 58, 61
1, 252240, Note_on_c, 0, 61, 61
1, 252240, Note_on_c, 0, 63, 61
1, 252240, Note_on_c, 0, 68, 72
1, 252251, Control_c, 0, 64, 0
1, 252309, Control_c, 0, 64, 127
1, 252480, Tempo, 674157
1, 252480, Note_on_c, 0, 68, 0
1, 252480, Note_on_c, 0, 61, 0
1, 252480, Note_on_c, 0, 75, 0
1, 252480, Note_on_c, 0, 84, 0
1, 252480, Note_on_c, 0, 72, 0
1, 252480, Note_on_c, 0, 63, 0
1, 252480, Note_on_c, 0, 58, 0
1, 252480, Note_on_c, 0, 67, 75
1, 252480, Note_on_c, 0, 73, 75
1, 252480, Note_on_c, 0, 75, 75
1, 252480, Note_on_c, 0, 79, 89
1, 252480, Note_on_c, 0, 58, 59
1, 252480, Note_on_c, 0, 61, 59
1, 252480, Note_on_c, 0, 63, 59
1, 252480, Note_on_c, 0, 70, 70
1, 252520, Tempo, 722892
1, 252720, Tempo, 627878
1, 252720, Note_on_c, 0, 70, 0
1, 252720, Note_on_c, 0, 67, 0
1, 252720, Note_on_c, 0, 58, 0
1, 252720, Note_on_c, 0, 73, 0
1, 252720, Note_on_c, 0, 75, 0
1, 252720, Note_on_c, 0, 79, 0
1, 252720, Note_on_c, 0, 61, 0
1, 252720, Note_on_c, 0, 63, 0
1, 252720, Note_on_c, 0, 77, 85
1, 252720, Note_on_c, 0, 68, 78
1, 252720, Note_on_c, 0, 72, 84
1, 252720, Note_on_c, 0, 80, 102
1, 252720, Note_on_c, 0, 32, 70
1, 252720, Note_on_c, 0, 44, 84
1, 252720, Control_c, 0, 64, 0
1, 252724, Control_c, 0, 64, 0
1, 252798, Control_c, 0, 64, 127
1, 252840, Note_on_c, 0, 44, 0
1, 252840, Note_on_c, 0, 32, 0
1, 252960, Tempo, 457666
1, 252960, Note_on_c, 0, 39, 67
1, 252960, Note_on_c, 0, 51, 79
1, 253080, Tempo, 510725
1, 253080, Note_on_c, 0, 51, 0
1, 253080, Note_on_c, 0, 68, 0
1, 253080, Note_on_c, 0, 80, 0
1, 253080, Note_on_c, 0, 77, 0
1, 253080, Note_on_c, 0, 39, 0
1, 253080, Note_on_c, 0, 72, 0
1, 253080, Note_on_c, 0, 75, 93
1, 253188, Note_on_c, 0, 75, 0
1, 253200, Tempo, 572792
1, 253200, Note_on_c, 0, 63, 79
1, 253200, Note_on_c, 0, 72, 79
1, 253200, Note_on_c, 0, 75, 93
1, 253200, Note_on_c, 0, 56, 77
1, 253200, Note_on_c, 0, 44, 64
1, 253320, Note_on_c, 0, 44, 0
1, 253320, Note_on_c, 0, 56, 0
1, 253440, Tempo, 566145
1, 253440, Note_on_c, 0, 51, 72
1, 253440, Note_on_c, 0, 63, 85
1, 253500, Note_on_c, 0, 63, 0
1, 253500, Note_on_c, 0, 51, 0
1, 253680, Tempo, 544119
1, 253680, Note_on_c, 0, 75, 0
1, 253680, Note_on_c, 0, 72, 0
1, 253680, Note_on_c, 0, 63, 0
1, 253680, Note_on_c, 0, 56, 73
1, 253680, Note_on_c, 0, 68, 86
1, 253800, Note_on_c, 0, 68, 0
1, 253800, Note_on_c, 0, 56, 0
1, 253920, Note_on_c, 0, 72, 74
1, 253920, Note_on_c, 0, 80, 74
1, 253920, Note_on_c, 0, 84, 88
1, 253920, Note_on_c, 0, 63, 61
1, 253920, Note_on_c, 0, 75, 73
1, 254040, Tempo, 576147
1, 254040, Note_on_c, 0, 75, 0
1, 254040, Note_on_c, 0, 84, 0
1, 254040, Note_on_c, 0, 72, 0
1, 254040, Note_on_c, 0, 80, 0
1, 254040, Note_on_c, 0, 63, 0
1, 254040, Note_on_c, 0, 73, 73
1, 254040, Note_on_c, 0, 82, 73
1, 254040, Note_on_c, 0, 85, 86
1, 254160, Tempo, 631912
1, 254160, Note_on_c, 0, 85, 0
1, 254160, Note_on_c, 0, 82, 0
1, 254160, Note_on_c, 0, 73, 0
1, 254160, Note_on_c, 0, 77, 82
1, 254160, Note_on_c, 0, 85, 88
1, 254160, Note_on_c, 0, 89, 102
1, 254160, Note_on_c, 0, 32, 70
1, 254160, Note_on_c, 0, 44, 84
1, 254160, Control_c, 0, 64, 0
1, 254166, Control_c, 0, 64, 0
1, 254238, Control_c, 0, 64, 127
1, 254280, Note_on_c, 0, 44, 0
1, 254280, Note_on_c, 0, 32, 0
1, 254400, Tempo, 457666
1, 254400, Note_on_c, 0, 39, 67
1, 254400, Note_on_c, 0, 51, 79
1, 254520, Tempo, 510725
1, 254520, Note_on_c, 0, 51, 0
1, 254520, Note_on_c, 0, 77, 0
1, 254520, Note_on_c, 0, 89, 0
1, 254520, Note_on_c, 0, 85, 0
1, 254520, Note_on_c, 0, 39, 0
1, 254520, Note_on_c, 0, 75, 79
1, 254520, Note_on_c, 0, 84, 79
1, 254520, Note_on_c, 0, 87, 93
1, 254628, Note_on_c, 0, 87, 0
1, 254628, Note_on_c, 0, 84, 0
1, 254628, Note_on_c, 0, 75, 0
1, 254640, Tempo, 572792
1, 254640, Note_on_c, 0, 75, 79
1, 254640, Note_on_c, 0, 84, 79
1, 254640, Note_on_c, 0, 87, 93
1, 254640, Note_on_c, 0, 56, 77
1, 254640, Note_on_c, 0, 44, 64
1, 254760, Note_on_c, 0, 44, 0
1, 254760, Note_on_c, 0, 56, 0
1, 254880, Tempo, 566145
1, 254880, Note_on_c, 0, 51, 72
1, 254880, Note_on_c, 0, 63, 85
1, 254940, Note_on_c, 0, 63, 0
1, 254940, Note_on_c, 0, 51, 0
1, 255120, Tempo, 544119
1, 255120, Note_on_c, 0, 87, 0
1, 255120, Note_on_c, 0, 84, 0
1, 255120, Note_on_c, 0, 75, 0
1, 255120, Note_on_c, 0, 56, 73
1, 255120, Note_on_c, 0, 68, 86
1, 255240, Note_on_c, 0, 68, 0
1, 255240, Note_on_c, 0, 56, 0
1, 255360, Note_on_c, 0, 72, 74
1, 255360, Note_on_c, 0, 80, 74
1, 255360, Note_on_c, 0, 84, 88
1, 255360, Note_on_c, 0, 63, 61
1, 255360, Note_on_c, 0, 75, 73
1, 255480, Tempo, 576147
1, 255480, Note_on_c, 0, 75, 0
1, 255480, Note_on_c, 0, 84, 0
1, 255480, Note_on_c, 0, 72, 0
1, 255480, Note_on_c, 0, 80, 0
1, 255480, Note_on_c, 0, 63, 0
1, 255480, Note_on_c, 0, 73, 73
1, 255480, Note_on_c, 0, 82, 73
1, 255480, Note_on_c, 0, 85, 86
1, 255600, Tempo, 563380
1, 255600, Note_on_c, 0, 85, 0
1, 255600, Note_on_c, 0, 82, 0
1, 255600, Note_on_c, 0, 73, 0
1, 255600, Note_on_c, 0, 77, 82
1, 255600, Note_on_c, 0, 85, 88
1, 255600, Note_on_c, 0, 89, 102
1, 255600, Control_c, 0, 64, 0
1, 255600, Note_on_c, 0, 32, 70
1, 255600, Note_on_c, 0, 44, 84
1, 255600, Control_c, 0, 64, 0
1, 255605, Control_c, 0, 64, 0
1, 255678, Control_c, 0, 64, 127
1, 255720, Note_on_c, 0, 44, 0
1, 255720, Note_on_c, 0, 32, 0
1, 255840, Tempo, 457666
1, 255840, Note_on_c, 0, 39, 67
1, 255840, Note_on_c, 0, 51, 79
1, 255960, Tempo, 529427
1, 255960, Note_on_c, 0, 51, 0
1, 255960, Note_on_c, 0, 77, 0
1, 255960, Note_on_c, 0, 89, 0
1, 255960, Note_on_c, 0, 85, 0
1, 255960, Note_on_c, 0, 39, 0
1, 255960, Note_on_c, 0, 75, 79
1, 255960, Note_on_c, 0, 84, 79
1, 255960, Note_on_c, 0, 87, 93
1, 256080, Tempo, 533333
1, 256080, Note_on_c, 0, 87, 0
1, 256080, Note_on_c, 0, 84, 0
1, 256080, Note_on_c, 0, 75, 0
1, 256080, Note_on_c, 0, 77, 82
1, 256080, Note_on_c, 0, 85, 88
1, 256080, Note_on_c, 0, 89, 102
1, 256080, Note_on_c, 0, 56, 77
1, 256080, Note_on_c, 0, 44, 64
1, 256200, Note_on_c, 0, 44, 0
1, 256200, Note_on_c, 0, 56, 0
1, 256320, Tempo, 547945
1, 256320, Note_on_c, 0, 51, 72
1, 256320, Note_on_c, 0, 63, 85
1, 256380, Note_on_c, 0, 63, 0
1, 256380, Note_on_c, 0, 51, 0
1, 256440, Note_on_c, 0, 89, 0
1, 256440, Note_on_c, 0, 85, 0
1, 256440, Note_on_c, 0, 77, 0
1, 256440, Note_on_c, 0, 75, 79
1, 256440, Note_on_c, 0, 84, 79
1, 256440, Note_on_c, 0, 87, 93
1, 256560, Tempo, 526316
1, 256560, Note_on_c, 0, 87, 0
1, 256560, Note_on_c, 0, 84, 0
1, 256560, Note_on_c, 0, 75, 0
1, 256560, Note_on_c, 0, 77, 82
1, 256560, Note_on_c, 0, 85, 88
1, 256560, Note_on_c, 0, 89, 102
1, 256560, Note_on_c, 0, 56, 73
1, 256560, Note_on_c, 0, 68, 86
1, 256680, Note_on_c, 0, 68, 0
1, 256680, Note_on_c, 0, 56, 0
1, 256800, Note_on_c, 0, 51, 61
1, 256800, Note_on_c, 0, 63, 73
1, 256920, Tempo, 555556
1, 256920, Note_on_c, 0, 63, 0
1, 256920, Note_on_c, 0, 77, 0
1, 256920, Note_on_c, 0, 89, 0
1, 256920, Note_on_c, 0, 85, 0
1, 256920, Note_on_c, 0, 51, 0
1, 256920, Note_on_c, 0, 75, 79
1, 256920, Note_on_c, 0, 84, 79
1, 256920, Note_on_c, 0, 87, 93
1, 257040, Tempo, 603258
1, 257040, Note_on_c, 0, 87, 0
1, 257040, Note_on_c, 0, 84, 0
1, 257040, Note_on_c, 0, 75, 0
1, 257040, Note_on_c, 0, 77, 82
1, 257040, Note_on_c, 0, 85, 88
1, 257040, Note_on_c, 0, 89, 102
1, 257040, Control_c, 0, 64, 0
1, 257040, Note_on_c, 0, 44, 70
1, 257040, Note_on_c, 0, 56, 84
1, 257040, Control_c, 0, 64, 0
1, 257044, Control_c, 0, 64, 0
1, 257118, Control_c, 0, 64, 127
1, 257120, Tempo, 547945
1, 257160, Note_on_c, 0, 56, 0
1, 257160, Note_on_c, 0, 44, 0
1, 257280, Tempo, 457666
1, 257280, Note_on_c, 0, 39, 67
1, 257280, Note_on_c, 0, 51, 79
1, 257400, Tempo, 529427
1, 257400, Note_on_c, 0, 51, 0
1, 257400, Note_on_c, 0, 77, 0
1, 257400, Note_on_c, 0, 89, 0
1, 257400, Note_on_c, 0, 85, 0
1, 257400, Note_on_c, 0, 39, 0
1, 257400, Note_on_c, 0, 75, 79
1, 257400, Note_on_c, 0, 84, 79
1, 257400, Note_on_c, 0, 87, 93
1, 257499, Control_c, 0, 64, 0
1, 257508, Note_on_c, 0, 87, 0
1, 257508, Note_on_c, 0, 84, 0
1, 257508, Note_on_c, 0, 75, 0
1, 257520, Tempo, 572792
1, 257520, Note_on_c, 0, 75, 79
1, 257520, Note_on_c, 0, 84, 79
1, 257520, Note_on_c, 0, 87, 93
1, 257520, Note_on_c, 0, 32, 71
1, 257520, Note_on_c, 0, 44, 84
1, 257580, Note_on_c, 0, 44, 0
1, 257580, Note_on_c, 0, 32, 0
1, 257640, Note_on_c, 0, 31, 68
1, 257640, Note_on_c, 0, 43, 80
1, 257700, Note_on_c, 0, 43, 0
1, 257700, Note_on_c, 0, 31, 0
1, 257760, Tempo, 566145
1, 257760, Note_on_c, 0, 29, 68
1, 257760, Note_on_c, 0, 41, 81
1, 257820, Note_on_c, 0, 41, 0
1, 257820, Note_on_c, 0, 29, 0
1, 257880, Note_on_c, 0, 27, 68
1, 257880, Note_on_c, 0, 39, 81
1, 257940, Note_on_c, 0, 39, 0
1, 257940, Note_on_c, 0, 27, 0
1, 258000, Tempo, 550257
1, 258000, Note_on_c, 0, 87, 0
1, 258000, Note_on_c, 0, 84, 0
1, 258000, Note_on_c, 0, 75, 0
1, 258000, Note_on_c, 0, 89, 93
1, 258000, Note_on_c, 0, 84, 79
1, 258000, Note_on_c, 0, 77, 79
1, 258000, Note_on_c, 0, 32, 64
1, 258000, Note_on_c, 0, 44, 77
1, 258040, Tempo, 553403
1, 258060, Note_on_c, 0, 44, 0
1, 258060, Note_on_c, 0, 77, 0
1, 258060, Note_on_c, 0, 89, 0
1, 258060, Note_on_c, 0, 84, 0
1, 258060, Note_on_c, 0, 32, 0
1, 258080, Tempo, 556483
1, 258120, Tempo, 559754
1, 258120, Note_on_c, 0, 79, 81
1, 258120, Note_on_c, 0, 84, 81
1, 258120, Note_on_c, 0, 91, 96
1, 258120, Note_on_c, 0, 31, 68
1, 258120, Note_on_c, 0, 43, 80
1, 258140, Tempo, 562905
1, 258180, Tempo, 566145
1, 258180, Note_on_c, 0, 43, 0
1, 258180, Note_on_c, 0, 31, 0
1, 258220, Tempo, 569422
1, 258240, Tempo, 572792
1, 258240, Note_on_c, 0, 79, 0
1, 258240, Note_on_c, 0, 84, 0
1, 258240, Note_on_c, 0, 91, 0
1, 258240, Note_on_c, 0, 80, 85
1, 258240, Note_on_c, 0, 84, 85
1, 258240, Note_on_c, 0, 92, 100
1, 258240, Note_on_c, 0, 29, 70
1, 258240, Note_on_c, 0, 41, 83
1, 258280, Tempo, 576147
1, 258300, Note_on_c, 0, 41, 0
1, 258300, Note_on_c, 0, 29, 0
1, 258320, Tempo, 579542
1, 258340, Tempo, 583034
1, 258360, Note_on_c, 0, 80, 0
1, 258360, Note_on_c, 0, 84, 0
1, 258360, Note_on_c, 0, 92, 0
1, 258360, Note_on_c, 0, 82, 89
1, 258360, Note_on_c, 0, 87, 89
1, 258360, Note_on_c, 0, 94, 105
1, 258360, Note_on_c, 0, 27, 73
1, 258360, Note_on_c, 0, 39, 86
1, 258380, Tempo, 586510
1, 258420, Tempo, 589971
1, 258420, Note_on_c, 0, 39, 0
1, 258420, Note_on_c, 0, 27, 0
1, 258440, Tempo, 593648
1, 258480, Tempo, 569422
1, 258480, Note_on_c, 0, 94, 0
1, 258480, Note_on_c, 0, 82, 0
1, 258480, Note_on_c, 0, 96, 110
1, 258480, Note_on_c, 0, 92, 110
1, 258480, Note_on_c, 0, 84, 93
1, 258480, Note_on_c, 0, 32, 74
1, 258480, Note_on_c, 0, 44, 89
1, 258600, Note_on_c, 0, 87, 0
1, 258720, Note_on_c, 0, 92, 0
1, 258720, Note_on_c, 0, 84, 0
1, 258720, Note_on_c, 0, 96, 0
1, 258720, Note_on_c, 0, 44, 0
1, 258720, Note_on_c, 0, 32, 0
1, 259200, Tempo, 623895
1, 259200, Note_on_c, 0, 52, 79
1, 259200, Note_on_c, 0, 55, 79
1, 259200, Note_on_c, 0, 60, 93
1, 259200, Note_on_c, 0, 64, 93
1, 259200, Note_on_c, 0, 36, 65
1, 259200, Note_on_c, 0, 43, 65
1, 259200, Note_on_c, 0, 48, 77
1, 259211, Control_c, 0, 64, 127
1, 259260, Note_on_c, 0, 48, 0
1, 259260, Note_on_c, 0, 36, 0
1, 259260, Note_on_c, 0, 55, 0
1, 259260, Note_on_c, 0, 60, 0
1, 259260, Note_on_c, 0, 52, 0
1, 259260, Note_on_c, 0, 43, 0
1, 259260, Note_on_c, 0, 64, 0
1, 259320, Note_on_c, 0, 52, 75
1, 259320, Note_on_c, 0, 55, 75
1, 259320, Note_on_c, 0, 60, 89
1, 259320, Note_on_c, 0, 64, 89
1, 259320, Note_on_c, 0, 36, 61
1, 259320, Note_on_c, 0, 43, 61
1, 259320, Note_on_c, 0, 48, 72
1, 259380, Note_on_c, 0, 48, 0
1, 259380, Note_on_c, 0, 36, 0
1, 259380, Note_on_c, 0, 55, 0
1, 259380, Note_on_c, 0, 60, 0
1, 259380, Note_on_c, 0, 52, 0
1, 259380, Note_on_c, 0, 43, 0
1, 259380, Note_on_c, 0, 64, 0
1, 259440, Note_on_c, 0, 52, 79
1, 259440, Note_on_c, 0, 55, 79
1, 259440, Note_on_c, 0, 60, 93
1, 259440, Note_on_c, 0, 64, 93
1, 259440, Note_on_c, 0, 36, 65
1, 259440, Note_on_c, 0, 43, 65
1, 259440, Note_on_c, 0, 48, 77
1, 259560, Note_on_c, 0, 48, 0
1, 259560, Note_on_c, 0, 36, 0
1, 259560, Note_on_c, 0, 55, 0
1, 259560, Note_on_c, 0, 60, 0
1, 259560, Note_on_c, 0, 52, 0
1, 259560, Note_on_c, 0, 43, 0
1, 259560, Note_on_c, 0, 64, 0
1, 259680, Tempo, 666297
1, 259680, Note_on_c, 0, 52, 74
1, 259680, Note_on_c, 0, 55, 74
1, 259680, Note_on_c, 0, 60, 88
1, 259680, Note_on_c, 0, 64, 88
1, 259680, Note_on_c, 0, 36, 60
1, 259680, Note_on_c, 0, 43, 60
1, 259680, Note_on_c, 0, 48, 71
1, 259800, Note_on_c, 0, 48, 0
1, 259800, Note_on_c, 0, 36, 0
1, 259800, Note_on_c, 0, 55, 0
1, 259800, Note_on_c, 0, 60, 0
1, 259800, Note_on_c, 0, 52, 0
1, 259800, Note_on_c, 0, 43, 0
1, 259800, Note_on_c, 0, 64, 0
1, 259820, Tempo, 526593
1, 259830, Note_on_c, 0, 52, 78
1, 259860, Note_on_c, 0, 55, 78
1, 259860, Note_on_c, 0, 36, 60
1, 259890, Note_on_c, 0, 60, 92
1, 259890, Note_on_c, 0, 43, 60
1, 259920, Tempo, 589971
1, 259920, Note_on_c, 0, 64, 92
1, 259920, Note_on_c, 0, 48, 71
1, 260160, Note_on_c, 0, 48, 0
1, 260160, Note_on_c, 0, 43, 0
1, 260160, Note_on_c, 0, 55, 0
1, 260160, Note_on_c, 0, 36, 0
1, 260160, Note_on_c, 0, 52, 0
1, 260160, Note_on_c, 0, 64, 0
1, 260160, Note_on_c, 0, 60, 0
1, 260171, Control_c, 0, 64, 0
1, 260280, Tempo, 521014
1, 260310, Note_on_c, 0, 52, 79
1, 260340, Note_on_c, 0, 55, 79
1, 260340, Note_on_c, 0, 36, 60
1, 260370, Note_on_c, 0, 60, 93
1, 260370, Note_on_c, 0, 43, 60
1, 260383, Control_c, 0, 64, 127
1, 260400, Tempo, 589971
1, 260400, Note_on_c, 0, 64, 93
1, 260400, Note_on_c, 0, 48, 71
1, 260640, Note_on_c, 0, 48, 0
1, 260640, Note_on_c, 0, 43, 0
1, 260640, Note_on_c, 0, 55, 0
1, 260640, Note_on_c, 0, 36, 0
1, 260640, Note_on_c, 0, 52, 0
1, 260640, Note_on_c, 0, 64, 0
1, 260640, Note_on_c, 0, 60, 0
1, 260723, Control_c, 0, 64, 0
1, 260760, Tempo, 523789
1, 260790, Note_on_c, 0, 51, 79
1, 260820, Note_on_c, 0, 55, 79
1, 260820, Note_on_c, 0, 39, 60
1, 260846, Control_c, 0, 64, 127
1, 260850, Note_on_c, 0, 61, 93
1, 260880, Tempo, 556483
1, 260880, Note_on_c, 0, 63, 93
1, 260880, Note_on_c, 0, 46, 71
1, 261120, Note_on_c, 0, 46, 0
1, 261120, Note_on_c, 0, 55, 0
1, 261120, Note_on_c, 0, 39, 0
1, 261120, Note_on_c, 0, 51, 0
1, 261120, Note_on_c, 0, 63, 0
1, 261120, Note_on_c, 0, 61, 0
1, 261161, Control_c, 0, 64, 0
1, 261360, Tempo, 621891
1, 261360, Note_on_c, 0, 56, 86
1, 261360, Note_on_c, 0, 60, 86
1, 261360, Note_on_c, 0, 68, 102
1, 261360, Note_on_c, 0, 32, 67
1, 261360, Note_on_c, 0, 44, 79
1, 261445, Control_c, 0, 64, 127
1, 261600, Note_on_c, 0, 44, 0
1, 261600, Note_on_c, 0, 68, 0
1, 261600, Note_on_c, 0, 56, 0
1, 261600, Note_on_c, 0, 60, 0
1, 261600, Note_on_c, 0, 32, 0
1, 261981, Control_c, 0, 64, 0
1, 262800, Tempo, 681818
1, 268080, Tempo, 582524
1, 268080, End_track
0, 0, End_of_file
